<?xml version="1.0" encoding="UTF-8"?>
<!DOCTYPE svg PUBLIC "-//W3C//DTD SVG 1.1//EN" "http://www.w3.org/Graphics/SVG/1.1/DTD/svg11.dtd">
<!-- Creator: CorelDRAW -->
<svg xmlns="http://www.w3.org/2000/svg" xml:space="preserve" width="2000px" height="1600px" version="1.1" style="shape-rendering:geometricPrecision; text-rendering:geometricPrecision; image-rendering:optimizeQuality; fill-rule:evenodd; clip-rule:evenodd"
viewBox="0 0 2000 1600"
 xmlns:xlink="http://www.w3.org/1999/xlink">
 <defs>
  <style type="text/css">
   <![CDATA[
    .fil1 {fill:#221F1F;fill-rule:nonzero}
    .fil2 {fill:#AA1D37;fill-rule:nonzero}
    .fil3 {fill:#C9CACE;fill-rule:nonzero}
    .fil0 {fill:#FEFEFE;fill-rule:nonzero}
   ]]>
  </style>
 </defs>
 <g id="Capa_x0020_1">
  <metadata id="CorelCorpID_0Corel-Layer"/>
  <g id="Alabama_x0020_Crimson_x0020_Tide.cdr">
   <path class="fil0" d="M980.32 320.84c87.82,-3.66 176.58,17.27 253.25,60.37 99.2,55.19 177.71,146.69 216.59,253.41 37.54,101.41 39.14,215.62 4.47,318.04 -28.09,84.27 -80.59,160.03 -148.95,216.66 -67.97,56.56 -151.93,93.64 -239.55,105.63 -103.67,14.6 -212.01,-5.89 -302.88,-58.01 -60.98,-34.64 -114.16,-82.87 -154.72,-140.06 -43.76,-61.62 -72.61,-133.79 -83.17,-208.64 -12.85,-88.71 -0.26,-181 36.34,-262.88 36.65,-82.95 97.73,-154.72 173.21,-204.9 72.43,-48.43 158.37,-76.12 245.41,-79.62zm122.03 365.66c16.3,-25.34 35.53,-48.71 56.41,-70.42 -17.6,56.79 -30.33,114.89 -44.68,172.52 -25.65,2.87 -51.25,6.32 -76.9,9.19 22.81,-36.47 41.45,-75.38 65.17,-111.29zm-159.52 -651.45c165.87,-12.78 335.44,30.55 474.59,121.8 161.81,104.79 281.91,272.28 327.39,459.79 31.52,127.23 29.49,262.57 -5.79,388.82 -46.83,169.81 -154.84,321.53 -299.1,422.43 -88.66,62.47 -190.75,105.72 -297.32,125.81 -119.41,22.63 -244.21,16.44 -360.71,-18.31 -177.09,-52.14 -333.1,-171.15 -431.11,-327.51 -44.67,-70.63 -77.56,-148.68 -96.94,-230 -26.67,-111.42 -27.81,-228.85 -3.43,-340.82 25.04,-115.81 77.82,-225.43 152.26,-317.59 83.75,-104.05 194.92,-185.96 319.49,-234.34 70.5,-27.61 145.19,-44.42 220.67,-50.08zm-12.26 33.09l0 0c-109.01,10.11 -215.65,45.03 -309.36,101.66 -114.42,68.65 -209.43,169.15 -271.62,287.19 -53.44,100.7 -82.39,214.07 -84.57,328 -2.16,103.54 17.62,207.62 58.33,302.91 62.43,147.38 174.63,272.91 313.93,351.64 87.34,49.73 185.02,81.12 285.01,91.43 110.27,11.76 223.16,-1.7 327.46,-39.39 161.81,-57.98 301.36,-175.01 387.03,-323.98 52.03,-89.71 84.54,-190.61 94.65,-293.79 11.48,-114.24 -3.86,-231.19 -45.31,-338.29 -32.63,-84.88 -81.42,-163.46 -142.68,-230.63 -88.58,-97.47 -203.83,-170.59 -330.01,-208.56 -91.27,-27.63 -187.93,-37.13 -282.86,-28.19zm291.93 420.06l0 0c-28.9,20.75 -57.34,47.09 -94.3,51.05 -32.33,3.91 -65.47,4.29 -97.44,-2.44 -15.55,-3.73 -32.31,-9.44 -41.76,-23.23 -5.33,-6.94 -4.92,-15.98 -5.1,-24.26 -21.34,3.99 -28.37,30.45 -22.73,48.87 4.21,19.27 20.85,32.93 39.01,38.65 35.22,11.2 72.73,7.62 109,11.73 -55.87,70 -105.95,144.41 -151.97,221.18 -8.31,0.03 -17.58,-0.4 -23.75,-6.75 -11.2,-11.43 -13.74,-29.26 -9.55,-44.29 -9.55,4.26 -18.92,9.77 -25.14,18.41 -16.71,21.94 -15.52,55.29 2.21,76.32 7.19,8.81 18.28,13.05 29.23,14.88 -20.67,36.75 -38.96,75.33 -65.88,108.09 -12.57,15.44 -27.61,29.28 -45.38,38.5 -21.95,11.35 -48.66,13.18 -71.93,4.87 -17.93,-7.87 -31.29,-23.77 -39.9,-40.99 -6.52,-13.79 -10.38,-31.11 -2.49,-45.13 2.32,-5.07 6.94,-10.87 3.41,-16.48 -4.78,-5.69 -13.74,-2.74 -18.8,1.22 -18.13,13.89 -28.82,36.55 -29,59.3 -0.68,25.5 9.73,50.62 26.74,69.41 18.97,20.88 46.45,33.5 74.57,35.15 20.72,1.02 41.98,0.23 61.84,-6.42 30.02,-9.91 55.98,-29.34 77.92,-51.71 43.32,-45 73.7,-100.35 101.38,-155.84 34.31,-5.36 68.57,-10.84 102.91,-16.1 -3.07,44.37 -9.42,88.76 -6.53,133.31 2.52,28.62 9.45,59.86 31.93,79.67 19.55,17.29 48.05,18.18 72.33,12.7 22.14,-5.64 45.03,-14.17 60.57,-31.7 11.27,-12.44 18.77,-29.56 15.34,-46.52 -10.95,1.06 -19.76,8.43 -30.05,11.68 -19.17,7.16 -41.54,13.31 -61.15,4.32 -11.53,-5.19 -16.87,-17.93 -17.3,-29.95 -4.01,-47.16 -1.9,-94.78 4.42,-141.64 10.97,-1.6 23.14,-7.21 33.78,-1.54 7.54,4.03 7.49,13.71 8.84,21.07 9.14,-5.99 18.06,-12.87 24.07,-22.14 6.15,-9.14 6.79,-20.62 7.12,-31.29 0.22,-12.42 -4.68,-25.83 -15.78,-32.43 -14.9,-8.99 -33.29,-7.6 -49.8,-4.98 19.79,-90.21 39.47,-182.37 84.83,-263.82 -12.57,-6.1 -25.25,-11.91 -37.72,-18.19 -2.59,-0.94 -5.13,-3.02 -8,-2.54z"/>
   <path class="fil1" d="M969.22 0l61.66 0c108.17,4.55 215.49,30.45 313.15,77.33 166.7,79.22 304.17,217.91 381.79,385.38 44.95,95.87 69.76,200.83 74.18,306.59l0 61.56c-4.42,104.96 -28.9,209.17 -73.24,304.46 -73.35,159.13 -200.51,292.72 -355.84,373.81 -104.69,55.34 -221.92,86 -340.14,90.87l-61.64 0c-107.5,-4.49 -214.19,-30.12 -311.39,-76.49 -165.89,-78.33 -303.03,-215.5 -381.31,-381.39 -46.34,-97.19 -71.97,-203.91 -76.44,-311.41l0 -61.59c5.71,-143.72 50.46,-285.74 129.55,-405.97 63.97,-98.01 149.64,-181.77 249.09,-243.45 116.83,-73.1 252.98,-114.19 390.58,-119.7zm-26.39 35.05l0 0c-75.48,5.66 -150.17,22.47 -220.67,50.08 -124.57,48.38 -235.74,130.29 -319.49,234.34 -74.44,92.16 -127.22,201.78 -152.26,317.59 -24.38,111.97 -23.24,229.4 3.43,340.82 19.38,81.32 52.27,159.37 96.94,230 98.01,156.36 254.02,275.37 431.11,327.51 116.5,34.75 241.3,40.94 360.71,18.31 106.57,-20.09 208.66,-63.34 297.32,-125.81 144.26,-100.9 252.27,-252.62 299.1,-422.43 35.28,-126.25 37.31,-261.59 5.79,-388.82 -45.48,-187.51 -165.58,-355 -327.39,-459.79 -139.15,-91.25 -308.72,-134.58 -474.59,-121.8z"/>
   <path class="fil2" d="M1222.5 488.2c2.87,-0.48 5.41,1.6 8,2.54 12.47,6.28 25.15,12.09 37.72,18.19 -45.36,81.45 -65.04,173.61 -84.83,263.82 16.51,-2.62 34.9,-4.01 49.8,4.98 11.1,6.6 16,20.01 15.78,32.43 -0.33,10.67 -0.97,22.15 -7.12,31.29 -6.01,9.27 -14.93,16.15 -24.07,22.14 -1.35,-7.36 -1.3,-17.04 -8.84,-21.07 -10.64,-5.67 -22.81,-0.06 -33.78,1.54 -6.32,46.86 -8.43,94.48 -4.42,141.64 0.43,12.02 5.77,24.76 17.3,29.95 19.61,8.99 41.98,2.84 61.15,-4.32 10.29,-3.25 19.1,-10.62 30.05,-11.68 3.43,16.96 -4.07,34.08 -15.34,46.52 -15.54,17.53 -38.43,26.06 -60.57,31.7 -24.28,5.48 -52.78,4.59 -72.33,-12.7 -22.48,-19.81 -29.41,-51.05 -31.93,-79.67 -2.89,-44.55 3.46,-88.94 6.53,-133.31 -34.34,5.26 -68.6,10.74 -102.91,16.1 -27.68,55.49 -58.06,110.84 -101.38,155.84 -21.94,22.37 -47.9,41.8 -77.92,51.71 -19.86,6.65 -41.12,7.44 -61.84,6.42 -28.12,-1.65 -55.6,-14.27 -74.57,-35.15 -17.01,-18.79 -27.42,-43.91 -26.74,-69.41 0.18,-22.75 10.87,-45.41 29,-59.3 5.06,-3.96 14.02,-6.91 18.8,-1.22 3.53,5.61 -1.09,11.41 -3.41,16.48 -7.89,14.02 -4.03,31.34 2.49,45.13 8.61,17.22 21.97,33.12 39.9,40.99 23.27,8.31 49.98,6.48 71.93,-4.87 17.77,-9.22 32.81,-23.06 45.38,-38.5 26.92,-32.76 45.21,-71.34 65.88,-108.09 -10.95,-1.83 -22.04,-6.07 -29.23,-14.88 -17.73,-21.03 -18.92,-54.38 -2.21,-76.32 6.22,-8.64 15.59,-14.15 25.14,-18.41 -4.19,15.03 -1.65,32.86 9.55,44.29 6.17,6.35 15.44,6.78 23.75,6.75 46.02,-76.77 96.1,-151.18 151.97,-221.18 -36.27,-4.11 -73.78,-0.53 -109,-11.73 -18.16,-5.72 -34.8,-19.38 -39.01,-38.65 -5.64,-18.42 1.39,-44.88 22.73,-48.87 0.18,8.28 -0.23,17.32 5.1,24.26 9.45,13.79 26.21,19.5 41.76,23.23 31.97,6.73 65.11,6.35 97.44,2.44 36.96,-3.96 65.4,-30.3 94.3,-51.05zm-246.68 875.69c7.04,-0.1 14.1,-0.1 21.18,-0.03 -1.19,31.29 -1.82,62.58 -2.18,93.89 -7.01,0.03 -14.02,-0.2 -20.98,-0.66 0.92,-31.06 1.93,-62.14 1.98,-93.2zm501.29 -262.83c3.5,-6.35 7.36,-12.53 11.65,-18.39 26.19,16.91 53.01,32.84 79.49,49.29 -3.7,6.1 -7.46,12.17 -11.25,18.21 -26.69,-16.28 -53.18,-32.89 -79.89,-49.11zm-995.59 -6.58c9.09,-5.41 18.19,-10.77 27.31,-16.13 3.7,6.2 7.41,12.44 11.07,18.69 -9.04,5.41 -18.03,10.95 -27.25,16.03 -3.74,-6.2 -7.44,-12.4 -11.13,-18.59zm1080.28 -491.66c21.9,-3.94 43.74,-8.36 65.83,-11.2 -18.87,11.89 -39.31,21.03 -58.89,31.64 -2.29,-6.83 -4.6,-13.63 -6.94,-20.44zm-1185.75 -21.23c21.97,2.92 43.63,7.62 65.52,11.1 -2.33,6.88 -4.72,13.76 -7.18,20.62 -19.3,-10.82 -39.95,-19.4 -58.34,-31.72zm587.96 -374.48c8.59,-0.41 17.2,-0.79 25.81,-1.27 0.61,11.13 1.19,22.25 1.39,33.37 -8.5,0.51 -17.04,0.87 -25.55,1.32 -0.71,-11.12 -1.09,-22.27 -1.65,-33.42zm-249.88 -3.1c14.68,16.71 25.88,36.24 39.12,54.12 -6.66,3.03 -13.24,6.13 -19.76,9.32 -6.4,-21.15 -13.62,-42.08 -19.36,-63.44zm481.38 33.45c10.84,-19.33 20.21,-39.57 32.48,-58.01 -3.02,21.95 -8.13,43.56 -12.12,65.35 -6.83,-2.36 -13.61,-4.85 -20.36,-7.34zm-234.32 -89.4c8.46,-0.43 16.94,-0.81 25.4,-1.21 0.56,10.05 1.04,20.11 1.5,30.17 -8.51,0.18 -16.97,0.56 -25.45,0.86 -0.35,-9.93 -0.81,-19.88 -1.45,-29.82zm-30.62 -79.92c94.93,-8.94 191.59,0.56 282.86,28.19 126.18,37.97 241.43,111.09 330.01,208.56 61.26,67.17 110.05,145.75 142.68,230.63 41.45,107.1 56.79,224.05 45.31,338.29 -10.11,103.18 -42.62,204.08 -94.65,293.79 -85.67,148.97 -225.22,266 -387.03,323.98 -104.3,37.69 -217.19,51.15 -327.46,39.39 -99.99,-10.31 -197.67,-41.7 -285.01,-91.43 -139.3,-78.73 -251.5,-204.26 -313.93,-351.64 -40.71,-95.29 -60.49,-199.37 -58.33,-302.91 2.18,-113.93 31.13,-227.3 84.57,-328 62.19,-118.04 157.2,-218.54 271.62,-287.19 93.71,-56.63 200.35,-91.55 309.36,-101.66zm-25.17 50.77l0 0c0.66,9.88 1.11,19.76 1.39,29.66 3.94,0 7.85,0 11.79,-0.02 1.27,30.88 2.99,61.71 4.09,92.57 -3.69,0.38 -7.39,0.73 -11.08,1.09 0.26,10.49 0.66,20.95 1.45,31.42 34.85,-2.11 69.74,-3.36 104.56,-5.51 9.63,-0.84 14.78,-10.85 16.18,-19.38 1.34,-12.73 -0.43,-25.55 -1.25,-38.25 -1.37,-12.34 -13.66,-19.43 -24.73,-21.74 12.42,-2.51 22.73,-13.23 23.29,-26.11 0.12,-12.59 -1.3,-25.62 -6.81,-37.1 -3.4,-7.32 -10.87,-13.03 -19.28,-11.86 -33.22,1.65 -66.38,3.65 -99.6,5.23zm233.6 133.41l0 0c-3.68,-1.27 -7.37,-2.57 -11.03,-3.86 -3.65,9.85 -7.33,19.71 -10.81,29.61 16.02,6.1 32.17,11.94 48.27,17.91 6.1,-11.36 12.15,-22.74 18.29,-34.06 8.71,3.2 17.45,6.4 26.16,9.62 -3.15,12.47 -6.17,24.99 -9.19,37.49 15.84,5.74 31.51,11.91 47.51,17.24 3.43,-10.13 7.29,-20.09 10.9,-30.14 -3.35,-1.14 -6.71,-2.29 -10.01,-3.43 6.4,-41.52 13.31,-82.97 19.96,-124.47 -22.04,-8.28 -44.16,-16.36 -66.23,-24.51 -21.26,36.22 -42.64,72.36 -63.82,108.6zm-467.61 -55.34l0 0c11,40.58 22.3,81.07 33.27,121.62 -3.5,1.68 -7.01,3.36 -10.51,5.06 4.8,9.34 9.19,18.87 13.79,28.31 15.54,-7.28 30.98,-14.85 46.55,-22.17 -3.79,-12.31 -7.9,-24.53 -11.66,-36.85 8.33,-4.09 16.74,-8.05 25.14,-12.01 6.84,10.87 13.54,21.84 20.5,32.63 15.09,-7.31 30.25,-14.39 45.33,-21.71 -4.52,-9.62 -9.22,-19.17 -13.69,-28.82 -3.35,1.47 -6.67,2.97 -10,4.47 -24.97,-33.73 -50.11,-67.31 -75.05,-101.06 -21.21,10.21 -42.56,20.14 -63.67,30.53zm734.35 81.45l0 0c2.59,2.59 5.21,5.15 7.82,7.74 -21.99,21.67 -44.49,42.8 -66.23,64.69 -2.9,-2.29 -5.74,-4.57 -8.59,-6.86 -7.06,7.34 -14.4,14.43 -21.76,21.46 11.58,12.62 24.05,24.41 35.58,37.08 20.16,-18.95 39.36,-38.91 59.81,-57.5 -5.28,23.72 -10.69,47.39 -16.1,71.09 23.62,-5.84 47.06,-12.52 70.73,-18.21 -20.35,19.71 -40.61,39.49 -60.95,59.17 11.45,12.6 23.74,24.41 35.42,36.83 7.72,-7.52 15.88,-14.58 23.06,-22.66 -2.59,-2.61 -5.18,-5.23 -7.74,-7.82 22.09,-21.05 43.93,-42.38 65.75,-63.74 2.49,2.21 4.98,4.44 7.47,6.65 7.82,-7.09 15.13,-14.73 22.6,-22.2 -11.38,-11.96 -23.03,-23.67 -34.49,-35.55 -25.04,6.58 -50.03,13.25 -75.05,19.86 6.99,-25.12 14.05,-50.21 21.01,-75.33 -11.48,-12.65 -23.98,-24.33 -35.46,-36.98 -7.52,7.55 -14.96,15.16 -22.88,22.28zm-425.42 42.41l0 0c-87.04,3.5 -172.98,31.19 -245.41,79.62 -75.48,50.18 -136.56,121.95 -173.21,204.9 -36.6,81.88 -49.19,174.17 -36.34,262.88 10.56,74.85 39.41,147.02 83.17,208.64 40.56,57.19 93.74,105.42 154.72,140.06 90.87,52.12 199.21,72.61 302.88,58.01 87.62,-11.99 171.58,-49.07 239.55,-105.63 68.36,-56.63 120.86,-132.39 148.95,-216.66 34.67,-102.42 33.07,-216.63 -4.47,-318.04 -38.88,-106.72 -117.39,-198.22 -216.59,-253.41 -76.67,-43.1 -165.43,-64.03 -253.25,-60.37zm-529.81 64.18l0 0c7.7,6.93 15.42,13.84 23.06,20.82 2.59,-2.82 5.16,-5.64 7.75,-8.46 22.88,20.78 46.12,41.15 68.8,62.13 -2.36,2.74 -4.72,5.46 -7.09,8.2 8,7.01 15.78,14.27 23.85,21.21 26.06,-28.96 52.17,-57.88 78.15,-86.91 -14.81,-13.03 -29.34,-26.42 -44.09,-39.5 -9.09,10.21 -18.26,20.32 -27.4,30.46 6.52,6.29 13.3,12.34 19.98,18.51 -4.52,5.08 -9.14,10.11 -13.94,14.93 -22.73,-20.47 -45.41,-41.01 -68.27,-61.36 2.29,-2.74 4.58,-5.48 6.86,-8.2 -7.82,-7.08 -15.59,-14.22 -23.54,-21.15 -14.68,16.45 -29.69,32.63 -44.12,49.32zm-86.52 155.86l0 0c-7.65,22.22 -15.7,44.29 -23.29,66.51 36.44,21.01 73.24,41.42 109.71,62.38 -1.34,3.58 -2.66,7.16 -3.98,10.76 9.95,3.59 19.96,7.06 29.99,10.54 5.61,-16.25 11.43,-32.45 17.07,-48.71 -11.56,-5.66 -22.86,-11.83 -34.39,-17.6 3.07,-8.81 6.12,-17.6 9.32,-26.36 12.52,2.9 25.04,5.79 37.59,8.51 5.46,-15.9 11.12,-31.72 16.68,-47.57 -10.13,-3.43 -20.24,-6.91 -30.25,-10.62 -1.27,3.38 -2.56,6.79 -3.81,10.19 -41.57,-5.92 -83.09,-12.17 -124.64,-18.03zm1150.8 26.74l0 0c-1.21,-3.66 -2.38,-7.31 -3.55,-10.97 -9.96,3.38 -19.91,6.75 -29.97,9.8 5.28,16.38 10.54,32.79 16.08,49.09 12.75,-2.21 25.45,-4.62 38.17,-6.85 2.69,8.89 5.59,17.7 8.58,26.49 -11.66,5.46 -23.39,10.74 -35.05,16.12 5.44,15.93 10.47,32 16.13,47.85 10.06,-3.43 20.14,-6.78 30.25,-10.11 -1.14,-3.45 -2.24,-6.93 -3.33,-10.36 36.6,-20.49 73.12,-41.09 109.67,-61.66 -7.12,-22.45 -14.63,-44.78 -22.07,-67.13 -41.63,5.95 -83.28,11.84 -124.91,17.73zm-1061.51 345.75l0 0c-29.1,8.26 -58.08,17.04 -87.21,25.32 -9.7,2.64 -19.58,6.07 -27.17,12.96 -4.98,4.49 -9.1,11.3 -7.07,18.26 5.72,22.4 12.6,44.49 18.82,66.76 18.49,-5.35 36.93,-10.84 55.42,-16.15 -2.97,-10.46 -6.05,-20.87 -9.12,-31.29 -8,2.34 -15.97,4.7 -23.97,7.01 -2.09,-6.73 -4.09,-13.48 -6.05,-20.24 30.2,-8.71 60.3,-17.8 90.57,-26.26 1.88,6.73 3.81,13.49 5.69,20.24 -5.97,1.7 -11.91,3.41 -17.86,5.11 2.8,9.93 5.74,19.81 8.61,29.71 16.21,-4.77 32.46,-9.37 48.61,-14.3 -6.17,-21.13 -12.21,-42.26 -18.51,-63.34 -3.38,-12.92 -19.1,-17.39 -30.76,-13.79zm1068.14 -1.55l0 0c-9.29,30.73 -18.77,61.39 -28.19,92.07 10.24,3.07 20.4,6.29 30.68,9.24 0.61,-2.16 1.86,-6.5 2.47,-8.66 29.99,8.94 59.75,18.67 89.85,27.25 -0.79,3.02 -1.52,6.07 -2.24,9.12 10.21,3.2 20.42,6.37 30.71,9.42 9.5,-31.36 19.3,-62.65 28.75,-94.02 -16.92,-5.2 -33.83,-10.44 -50.75,-15.59 -3.09,10.11 -6.27,20.19 -9.26,30.35 6.62,1.98 13.25,4.04 19.86,6.14 -2.01,6.91 -4.12,13.82 -6.28,20.7 -11.04,-3.25 -22.02,-6.68 -32.99,-10.11 2.72,-9.09 5.54,-18.15 8.33,-27.22 -9.14,-2.79 -18.28,-5.56 -27.43,-8.31 -2.66,9.12 -5.63,18.16 -8.96,27.08 -9.63,-3.1 -19.28,-6.02 -28.93,-8.99 2.06,-6.91 4.17,-13.82 6.4,-20.68 5.49,1.6 10.92,3.23 16.41,4.85 2.94,-9.39 5.81,-18.86 8.68,-28.29 -15.69,-4.77 -31.36,-9.7 -47.11,-14.35zm-1034.64 127.37l0 0c1.45,2.67 2.9,5.33 4.34,8.02 -26.79,16 -53.58,31.98 -80.45,47.88 -1.76,-2.49 -3.51,-4.96 -5.29,-7.42 -9.04,5.36 -18.05,10.69 -27.12,16.03 7.8,13 15.29,26.16 23.42,38.93 18.31,-11.1 36.82,-21.94 55.21,-32.97 3.71,6.25 7.47,12.48 11.22,18.7 -13.53,8 -26.97,16.1 -40.5,24.07 -5.13,2.95 -10.44,7.04 -11.43,13.29 4.67,11.96 12.9,22.14 18.82,33.52 9.82,-4.8 19.15,-10.62 28.24,-16.71 -1.2,-1.83 -3.56,-5.49 -4.75,-7.34 8.46,-5.89 17.93,-10.44 25.5,-17.53 6.09,-5.61 6.47,-14.32 5.99,-22.01 7.42,3.93 16.26,8.15 24.66,4.54 9.25,-3.96 17.75,-9.45 26.57,-14.27 13.66,-6.88 22.04,-25.83 11.86,-39.01 -12.91,-21.36 -25.43,-42.95 -38.38,-64.28 -9.29,5.51 -18.61,11.02 -27.91,16.56zm991.77 5.89l0 0c-6.55,1.02 -9.93,7.19 -13.18,12.22 -13.31,21.71 -27.1,43.12 -40.3,64.89 9.22,5.51 18.33,11.2 27.5,16.83 1.65,-2.69 3.33,-5.38 5,-8.05 26.87,16.31 53.52,32.94 80.28,49.37 -1.49,2.7 -2.99,5.36 -4.46,8.08 9.04,5.49 18.1,10.97 27.04,16.69 12.98,-21.59 26.09,-43.13 39.29,-64.56 2.47,-4.27 5.49,-8.43 6.4,-13.39 0.33,-8.28 -4.8,-15.9 -11.76,-20.01 -29.26,-18.16 -58.69,-36.06 -87.9,-54.27 -8.2,-5.26 -17.88,-10.19 -27.91,-7.8zm-906.49 122.77l0 0c2.21,2.23 4.45,4.52 6.68,6.78 -22.57,21.84 -45.53,43.3 -68.26,64.97 -2.01,-1.96 -4.02,-3.92 -6,-5.85 -7.52,7.29 -15.24,14.33 -22.6,21.77 12.04,12.9 24.2,25.7 36.44,38.4 7.75,-7.19 15.32,-14.6 23.11,-21.74 -1.98,-2.39 -3.96,-4.77 -5.91,-7.14 22.63,-21.36 44.92,-43.07 67.83,-64.15 1.93,2.01 3.86,4.04 5.79,6.1 7.98,-7.19 15.6,-14.79 23.49,-22.02 -11.96,-13.41 -24.66,-26.16 -36.97,-39.24 -8,7.24 -15.67,14.81 -23.6,22.12zm792.11 20.11l0 0c7.54,7.77 15.44,15.22 23.46,22.53 1.98,-2.34 3.99,-4.67 6,-6.98 22.8,21.53 45.43,43.3 67.86,65.22 -1.27,1.6 -3.86,4.8 -5.13,6.4 7.46,7.33 15.11,14.52 22.75,21.68 11.96,-13.15 24.59,-25.65 36.68,-38.7 -8.11,-6.88 -15.34,-14.65 -23.19,-21.79 -2.11,2.08 -4.22,4.19 -6.3,6.3 -22.71,-21.31 -45,-43.03 -67.4,-64.64 1.8,-2.28 3.6,-4.54 5.43,-6.8 -7.62,-7.5 -15.49,-14.66 -23.09,-22.18 -12.19,13.16 -24.99,25.71 -37.07,38.96zm-708.98 22.81l0 0c-5.69,9.17 -11.48,18.31 -16.94,27.63 1.88,1.07 5.69,3.25 7.57,4.32 -16.13,26.94 -33.05,53.41 -49.55,80.13 -1.96,-0.97 -5.9,-2.87 -7.88,-3.84 -5.58,8.86 -11.04,17.8 -16.61,26.69 12.09,7.7 24.33,15.14 36.47,22.73 15.01,-23.62 29.39,-47.67 44.52,-71.18 -0.73,23.36 -3.04,46.65 -3.98,70.02 19.93,-12.8 39.59,-25.99 59.6,-38.63 -14.98,24.68 -30.47,49.09 -45.61,73.7 12.14,7.49 24.23,15.08 36.37,22.6 5.64,-9.27 11.35,-18.46 17.17,-27.61 -2.64,-1.7 -5.26,-3.4 -7.9,-5.07 16.53,-26.39 32.63,-53.03 49.47,-79.22 1.73,1.02 5.18,3.05 6.91,4.07 5.84,-9.12 11.58,-18.29 17.22,-27.53 -11.71,-7.32 -23.39,-14.71 -35.2,-21.87 -21.28,13.38 -41.78,28.04 -63.32,40.96 2.34,-25.14 5.24,-50.23 8.11,-75.3 -12.12,-7.62 -24.21,-15.21 -36.42,-22.6zm587.91 65.19l0 0c10.34,16.08 21.13,31.85 31.44,47.95 7.39,-4.67 14.65,-9.52 21.79,-14.55 -4.82,-6.91 -9.5,-13.92 -14.12,-20.93 3.91,-2.54 7.85,-5 11.81,-7.41 16.96,26.41 34.62,52.39 51.63,78.78 -1.65,1.06 -4.98,3.2 -6.63,4.27 5.95,8.88 11.79,17.82 17.91,26.59 14.65,-9.76 29.38,-19.41 44.09,-29.11 -5.92,-8.91 -11.84,-17.8 -17.81,-26.67 -2.44,1.5 -4.85,3 -7.26,4.52 -17.5,-25.98 -34.39,-52.36 -51.91,-78.32 3.76,-2.56 7.54,-5.13 11.35,-7.67 4.95,7.06 9.68,14.25 14.17,21.61 7.16,-4.72 14.3,-9.47 21.57,-14.07 -10.65,-16.1 -21.29,-32.2 -31.88,-48.33 -32.02,21.16 -64,42.39 -96.15,63.34zm-100.01 36.04l0 0c6.32,25.93 12.77,51.84 18.99,77.82 -18.41,-22.96 -35.96,-46.58 -53.89,-69.89 -13.94,3.58 -27.96,6.83 -41.93,10.28 2.46,10.54 5,21.05 7.67,31.54 3.1,-0.71 6.2,-1.37 9.3,-2 7.36,30.4 14.93,60.77 22.19,91.2 -3.07,0.73 -6.12,1.5 -9.17,2.28 2.52,10.42 5.08,20.85 7.52,31.32 14.15,-3.38 28.29,-6.76 42.36,-10.34 -6.42,-26.69 -13.33,-53.28 -19.25,-80.07 17.93,23.74 35.94,47.46 54.02,71.11 11.08,-2.39 22.12,-5.03 33.17,-7.62 -9.96,-40.71 -19.81,-81.45 -29.87,-122.11 2.8,-0.94 5.62,-1.85 8.46,-2.74 -2.54,-10.37 -5.13,-20.7 -7.69,-31.04 -13.95,3.51 -27.94,6.76 -41.88,10.26zm-327.17 2.47l0 0c-6.17,6.5 -6.83,15.89 -9.37,24.07 -2.84,12.55 -8.53,24.89 -7.01,38.02 1.07,7.85 5.29,16.38 13.39,18.85 11.76,3.63 23.77,6.29 35.6,9.65 -2.54,10.79 -5.56,21.46 -8.48,32.17 -6.73,-1.72 -13.46,-3.5 -20.14,-5.35 1.3,-4.98 2.62,-9.99 3.96,-14.94 -11.05,-2.97 -22.07,-5.97 -33.09,-8.91 -4.32,15.49 -8.46,31.06 -12.55,46.65 22.23,5.77 44.35,11.94 66.57,17.73 12.29,4.19 24.28,-6.48 27.58,-17.75 4.17,-14.45 8,-29.03 11.73,-43.59 2.92,-11.14 -0.43,-26.97 -13.1,-30.19 -11.84,-3.46 -23.85,-6.33 -35.71,-9.68 2.69,-9.93 5.31,-19.86 7.93,-29.81 6.95,1.65 13.91,3.45 20.87,5.25 -1.07,4.62 -2.13,9.27 -3.15,13.95 10.01,2.51 19.96,5.25 29.95,7.87 4.03,-14.83 8.2,-29.64 11.8,-44.6 -21.05,-5.23 -41.9,-11.35 -62.93,-16.63 -8.53,-2.47 -18.08,0.58 -23.85,7.24zm141.31 17.01l0 0c-10.18,2.87 -16.91,12.9 -16.71,23.34 -0.61,36.9 -1.73,73.8 -2.46,110.68 -0.79,10.9 7.46,22.53 18.79,23.16 18.57,0.64 37.18,1.17 55.75,1.3 12.72,-3.02 17.29,-17.91 17.39,-29.51 0.92,-34.77 1.66,-69.57 2.44,-104.33 0.92,-12.4 -8.91,-25.86 -22.17,-24.66 -17.65,0.33 -35.53,-2.31 -53.03,0.02zm145.12 -644.98l0 0c-23.72,35.91 -42.36,74.82 -65.17,111.29 25.65,-2.87 51.25,-6.32 76.9,-9.19 14.35,-57.63 27.08,-115.73 44.68,-172.52 -20.88,21.71 -40.11,45.08 -56.41,70.42z"/>
   <path class="fil3" d="M957.23 1331.48c17.5,-2.33 35.38,0.31 53.03,-0.02 13.26,-1.2 23.09,12.26 22.17,24.66 -0.78,34.76 -1.52,69.56 -2.44,104.33 -0.1,11.6 -4.67,26.49 -17.39,29.51 -18.57,-0.13 -37.18,-0.66 -55.75,-1.3 -11.33,-0.63 -19.58,-12.26 -18.79,-23.16 0.73,-36.88 1.85,-73.78 2.46,-110.68 -0.2,-10.44 6.53,-20.47 16.71,-23.34zm-141.31 -17.01c5.77,-6.66 15.32,-9.71 23.85,-7.24 21.03,5.28 41.88,11.4 62.93,16.63 -3.6,14.96 -7.77,29.77 -11.8,44.6 -9.99,-2.62 -19.94,-5.36 -29.95,-7.87 1.02,-4.68 2.08,-9.33 3.15,-13.95 -6.96,-1.8 -13.92,-3.6 -20.87,-5.25 -2.62,9.95 -5.24,19.88 -7.93,29.81 11.86,3.35 23.87,6.22 35.71,9.68 12.67,3.22 16.02,19.05 13.1,30.19 -3.73,14.56 -7.56,29.14 -11.73,43.59 -3.3,11.27 -15.29,21.94 -27.58,17.75 -22.22,-5.79 -44.34,-11.96 -66.57,-17.73 4.09,-15.59 8.23,-31.16 12.55,-46.65 11.02,2.94 22.04,5.94 33.09,8.91 -1.34,4.95 -2.66,9.96 -3.96,14.94 6.68,1.85 13.41,3.63 20.14,5.35 2.92,-10.71 5.94,-21.38 8.48,-32.17 -11.83,-3.36 -23.84,-6.02 -35.6,-9.65 -8.1,-2.47 -12.32,-11 -13.39,-18.85 -1.52,-13.13 4.17,-25.47 7.01,-38.02 2.54,-8.18 3.2,-17.57 9.37,-24.07zm327.17 -2.47c13.94,-3.5 27.93,-6.75 41.88,-10.26 2.56,10.34 5.15,20.67 7.69,31.04 -2.84,0.89 -5.66,1.8 -8.46,2.74 10.06,40.66 19.91,81.4 29.87,122.11 -11.05,2.59 -22.09,5.23 -33.17,7.62 -18.08,-23.65 -36.09,-47.37 -54.02,-71.11 5.92,26.79 12.83,53.38 19.25,80.07 -14.07,3.58 -28.21,6.96 -42.36,10.34 -2.44,-10.47 -5,-20.9 -7.52,-31.32 3.05,-0.78 6.1,-1.55 9.17,-2.28 -7.26,-30.43 -14.83,-60.8 -22.19,-91.2 -3.1,0.63 -6.2,1.29 -9.3,2 -2.67,-10.49 -5.21,-21 -7.67,-31.54 13.97,-3.45 27.99,-6.7 41.93,-10.28 17.93,23.31 35.48,46.93 53.89,69.89 -6.22,-25.98 -12.67,-51.89 -18.99,-77.82zm100.01 -36.04c32.15,-20.95 64.13,-42.18 96.15,-63.34 10.59,16.13 21.23,32.23 31.88,48.33 -7.27,4.6 -14.41,9.35 -21.57,14.07 -4.49,-7.36 -9.22,-14.55 -14.17,-21.61 -3.81,2.54 -7.59,5.11 -11.35,7.67 17.52,25.96 34.41,52.34 51.91,78.32 2.41,-1.52 4.82,-3.02 7.26,-4.52 5.97,8.87 11.89,17.76 17.81,26.67 -14.71,9.7 -29.44,19.35 -44.09,29.11 -6.12,-8.77 -11.96,-17.71 -17.91,-26.59 1.65,-1.07 4.98,-3.21 6.63,-4.27 -17.01,-26.39 -34.67,-52.37 -51.63,-78.78 -3.96,2.41 -7.9,4.87 -11.81,7.41 4.62,7.01 9.3,14.02 14.12,20.93 -7.14,5.03 -14.4,9.88 -21.79,14.55 -10.31,-16.1 -21.1,-31.87 -31.44,-47.95zm-587.91 -65.19c12.21,7.39 24.3,14.98 36.42,22.6 -2.87,25.07 -5.77,50.16 -8.11,75.3 21.54,-12.92 42.04,-27.58 63.32,-40.96 11.81,7.16 23.49,14.55 35.2,21.87 -5.64,9.24 -11.38,18.41 -17.22,27.53 -1.73,-1.02 -5.18,-3.05 -6.91,-4.07 -16.84,26.19 -32.94,52.83 -49.47,79.22 2.64,1.67 5.26,3.37 7.9,5.07 -5.82,9.15 -11.53,18.34 -17.17,27.61 -12.14,-7.52 -24.23,-15.11 -36.37,-22.6 15.14,-24.61 30.63,-49.02 45.61,-73.7 -20.01,12.64 -39.67,25.83 -59.6,38.63 0.94,-23.37 3.25,-46.66 3.98,-70.02 -15.13,23.51 -29.51,47.56 -44.52,71.18 -12.14,-7.59 -24.38,-15.03 -36.47,-22.73 5.57,-8.89 11.03,-17.83 16.61,-26.69 1.98,0.97 5.92,2.87 7.88,3.84 16.5,-26.72 33.42,-53.19 49.55,-80.13 -1.88,-1.07 -5.69,-3.25 -7.57,-4.32 5.46,-9.32 11.25,-18.46 16.94,-27.63zm708.98 -22.81c12.08,-13.25 24.88,-25.8 37.07,-38.96 7.6,7.52 15.47,14.68 23.09,22.18 -1.83,2.26 -3.63,4.52 -5.43,6.8 22.4,21.61 44.69,43.33 67.4,64.64 2.08,-2.11 4.19,-4.22 6.3,-6.3 7.85,7.14 15.08,14.91 23.19,21.79 -12.09,13.05 -24.72,25.55 -36.68,38.7 -7.64,-7.16 -15.29,-14.35 -22.75,-21.68 1.27,-1.6 3.86,-4.8 5.13,-6.4 -22.43,-21.92 -45.06,-43.69 -67.86,-65.22 -2.01,2.31 -4.02,4.64 -6,6.98 -8.02,-7.31 -15.92,-14.76 -23.46,-22.53zm-792.11 -20.11c7.93,-7.31 15.6,-14.88 23.6,-22.12 12.31,13.08 25.01,25.83 36.97,39.24 -7.89,7.23 -15.51,14.83 -23.49,22.02 -1.93,-2.06 -3.86,-4.09 -5.79,-6.1 -22.91,21.08 -45.2,42.79 -67.83,64.15 1.95,2.37 3.93,4.75 5.91,7.14 -7.79,7.14 -15.36,14.55 -23.11,21.74 -12.24,-12.7 -24.4,-25.5 -36.44,-38.4 7.36,-7.44 15.08,-14.48 22.6,-21.77 1.98,1.93 3.99,3.89 6,5.85 22.73,-21.67 45.69,-43.13 68.26,-64.97 -2.23,-2.26 -4.47,-4.55 -6.68,-6.78zm949.36 -256.03c15.75,4.65 31.42,9.58 47.11,14.35 -2.87,9.43 -5.74,18.9 -8.68,28.29 -5.49,-1.62 -10.92,-3.25 -16.41,-4.85 -2.23,6.86 -4.34,13.77 -6.4,20.68 9.65,2.97 19.3,5.89 28.93,8.99 3.33,-8.92 6.3,-17.96 8.96,-27.08 9.15,2.75 18.29,5.52 27.43,8.31 -2.79,9.07 -5.61,18.13 -8.33,27.22 10.97,3.43 21.95,6.86 32.99,10.11 2.16,-6.88 4.27,-13.79 6.28,-20.7 -6.61,-2.1 -13.24,-4.16 -19.86,-6.14 2.99,-10.16 6.17,-20.24 9.26,-30.35 16.92,5.15 33.83,10.39 50.75,15.59 -9.45,31.37 -19.25,62.66 -28.75,94.02 -10.29,-3.05 -20.5,-6.22 -30.71,-9.42 0.72,-3.05 1.45,-6.1 2.24,-9.12 -30.1,-8.58 -59.86,-18.31 -89.85,-27.25 -0.61,2.16 -1.86,6.5 -2.47,8.66 -10.28,-2.95 -20.44,-6.17 -30.68,-9.24 9.42,-30.68 18.9,-61.34 28.19,-92.07zm-1068.14 1.55c11.66,-3.6 27.38,0.87 30.76,13.79 6.3,21.08 12.34,42.21 18.51,63.34 -16.15,4.93 -32.4,9.53 -48.61,14.3 -2.87,-9.9 -5.81,-19.78 -8.61,-29.71 5.95,-1.7 11.89,-3.41 17.86,-5.11 -1.88,-6.75 -3.81,-13.51 -5.69,-20.24 -30.27,8.46 -60.37,17.55 -90.57,26.26 1.96,6.76 3.96,13.51 6.05,20.24 8,-2.31 15.97,-4.67 23.97,-7.01 3.07,10.42 6.15,20.83 9.12,31.29 -18.49,5.31 -36.93,10.8 -55.42,16.15 -6.22,-22.27 -13.1,-44.36 -18.82,-66.76 -2.03,-6.96 2.09,-13.77 7.07,-18.26 7.59,-6.89 17.47,-10.32 27.17,-12.96 29.13,-8.28 58.11,-17.06 87.21,-25.32zm-2.77 -528.35c14.43,-16.69 29.44,-32.87 44.12,-49.32 7.95,6.93 15.72,14.07 23.54,21.15 -2.28,2.72 -4.57,5.46 -6.86,8.2 22.86,20.35 45.54,40.89 68.27,61.36 4.8,-4.82 9.42,-9.85 13.94,-14.93 -6.68,-6.17 -13.46,-12.22 -19.98,-18.51 9.14,-10.14 18.31,-20.25 27.4,-30.46 14.75,13.08 29.28,26.47 44.09,39.5 -25.98,29.03 -52.09,57.95 -78.15,86.91 -8.07,-6.94 -15.85,-14.2 -23.85,-21.21 2.37,-2.74 4.73,-5.46 7.09,-8.2 -22.68,-20.98 -45.92,-41.35 -68.8,-62.13 -2.59,2.82 -5.16,5.64 -7.75,8.46 -7.64,-6.98 -15.36,-13.89 -23.06,-20.82zm955.23 -106.59c7.92,-7.12 15.36,-14.73 22.88,-22.28 11.48,12.65 23.98,24.33 35.46,36.98 -6.96,25.12 -14.02,50.21 -21.01,75.33 25.02,-6.61 50.01,-13.28 75.05,-19.86 11.46,11.88 23.11,23.59 34.49,35.55 -7.47,7.47 -14.78,15.11 -22.6,22.2 -2.49,-2.21 -4.98,-4.44 -7.47,-6.65 -21.82,21.36 -43.66,42.69 -65.75,63.74 2.56,2.59 5.15,5.21 7.74,7.82 -7.18,8.08 -15.34,15.14 -23.06,22.66 -11.68,-12.42 -23.97,-24.23 -35.42,-36.83 20.34,-19.68 40.6,-39.46 60.95,-59.17 -23.67,5.69 -47.11,12.37 -70.73,18.21 5.41,-23.7 10.82,-47.37 16.1,-71.09 -20.45,18.59 -39.65,38.55 -59.81,57.5 -11.53,-12.67 -24,-24.46 -35.58,-37.08 7.36,-7.03 14.7,-14.12 21.76,-21.46 2.85,2.29 5.69,4.57 8.59,6.86 21.74,-21.89 44.24,-43.02 66.23,-64.69 -2.61,-2.59 -5.23,-5.15 -7.82,-7.74zm-500.34 -159.52c33.22,-1.58 66.38,-3.58 99.6,-5.23 8.41,-1.17 15.88,4.54 19.28,11.86 5.51,11.48 6.93,24.51 6.81,37.1 -0.56,12.88 -10.87,23.6 -23.29,26.11 11.07,2.31 23.36,9.4 24.73,21.74 0.82,12.7 2.59,25.52 1.25,38.25 -1.4,8.53 -6.55,18.54 -16.18,19.38 -34.82,2.15 -69.71,3.4 -104.56,5.51 -0.79,-10.47 -1.19,-20.93 -1.45,-31.42 3.69,-0.36 7.39,-0.71 11.08,-1.09 -1.1,-30.86 -2.82,-61.69 -4.09,-92.57 -3.94,0.02 -7.85,0.02 -11.79,0.02 -0.28,-9.9 -0.73,-19.78 -1.39,-29.66zm55.79 29.15l0 0c0.64,9.94 1.1,19.89 1.45,29.82 8.48,-0.3 16.94,-0.68 25.45,-0.86 -0.46,-10.06 -0.94,-20.12 -1.5,-30.17 -8.46,0.4 -16.94,0.78 -25.4,1.21zm2.82 59.05l0 0c0.56,11.15 0.94,22.3 1.65,33.42 8.51,-0.45 17.05,-0.81 25.55,-1.32 -0.2,-11.12 -0.78,-22.24 -1.39,-33.37 -8.61,0.48 -17.22,0.86 -25.81,1.27zm174.99 45.21c21.18,-36.24 42.56,-72.38 63.82,-108.6 22.07,8.15 44.19,16.23 66.23,24.51 -6.65,41.5 -13.56,82.95 -19.96,124.47 3.3,1.14 6.66,2.29 10.01,3.43 -3.61,10.05 -7.47,20.01 -10.9,30.14 -16,-5.33 -31.67,-11.5 -47.51,-17.24 3.02,-12.5 6.04,-25.02 9.19,-37.49 -8.71,-3.22 -17.45,-6.42 -26.16,-9.62 -6.14,11.32 -12.19,22.7 -18.29,34.06 -16.1,-5.97 -32.25,-11.81 -48.27,-17.91 3.48,-9.9 7.16,-19.76 10.81,-29.61 3.66,1.29 7.35,2.59 11.03,3.86zm56.51 -14.86l0 0c6.75,2.49 13.53,4.98 20.36,7.34 3.99,-21.79 9.1,-43.4 12.12,-65.35 -12.27,18.44 -21.64,38.68 -32.48,58.01zm-524.12 -40.48c21.11,-10.39 42.46,-20.32 63.67,-30.53 24.94,33.75 50.08,67.33 75.05,101.06 3.33,-1.5 6.65,-3 10,-4.47 4.47,9.65 9.17,19.2 13.69,28.82 -15.08,7.32 -30.24,14.4 -45.33,21.71 -6.96,-10.79 -13.66,-21.76 -20.5,-32.63 -8.4,3.96 -16.81,7.92 -25.14,12.01 3.76,12.32 7.87,24.54 11.66,36.85 -15.57,7.32 -31.01,14.89 -46.55,22.17 -4.6,-9.44 -8.99,-18.97 -13.79,-28.31 3.5,-1.7 7.01,-3.38 10.51,-5.06 -10.97,-40.55 -22.27,-81.04 -33.27,-121.62zm42.74 7.03l0 0c5.74,21.36 12.96,42.29 19.36,63.44 6.52,-3.19 13.1,-6.29 19.76,-9.32 -13.24,-17.88 -24.44,-37.41 -39.12,-54.12zm-350.14 336.87c41.55,5.86 83.07,12.11 124.64,18.03 1.25,-3.4 2.54,-6.81 3.81,-10.19 10.01,3.71 20.12,7.19 30.25,10.62 -5.56,15.85 -11.22,31.67 -16.68,47.57 -12.55,-2.72 -25.07,-5.61 -37.59,-8.51 -3.2,8.76 -6.25,17.55 -9.32,26.36 11.53,5.77 22.83,11.94 34.39,17.6 -5.64,16.26 -11.46,32.46 -17.07,48.71 -10.03,-3.48 -20.04,-6.95 -29.99,-10.54 1.32,-3.6 2.64,-7.18 3.98,-10.76 -36.47,-20.96 -73.27,-41.37 -109.71,-62.38 7.59,-22.22 15.64,-44.29 23.29,-66.51zm12.06 40.71l0 0c18.39,12.32 39.04,20.9 58.34,31.72 2.46,-6.86 4.85,-13.74 7.18,-20.62 -21.89,-3.48 -43.55,-8.18 -65.52,-11.1zm1138.74 -13.97c41.63,-5.89 83.28,-11.78 124.91,-17.73 7.44,22.35 14.95,44.68 22.07,67.13 -36.55,20.57 -73.07,41.17 -109.67,61.66 1.09,3.43 2.19,6.91 3.33,10.36 -10.11,3.33 -20.19,6.68 -30.25,10.11 -5.66,-15.85 -10.69,-31.92 -16.13,-47.85 11.66,-5.38 23.39,-10.66 35.05,-16.12 -2.99,-8.79 -5.89,-17.6 -8.58,-26.49 -12.72,2.23 -25.42,4.64 -38.17,6.85 -5.54,-16.3 -10.8,-32.71 -16.08,-49.09 10.06,-3.05 20.01,-6.42 29.97,-9.8 1.17,3.66 2.34,7.31 3.55,10.97zm47.01 35.2l0 0c2.34,6.81 4.65,13.61 6.94,20.44 19.58,-10.61 40.02,-19.75 58.89,-31.64 -22.09,2.84 -43.93,7.26 -65.83,11.2zm-1075.02 436.37c9.3,-5.54 18.62,-11.05 27.91,-16.56 12.95,21.33 25.47,42.92 38.38,64.28 10.18,13.18 1.8,32.13 -11.86,39.01 -8.82,4.82 -17.32,10.31 -26.57,14.27 -8.4,3.61 -17.24,-0.61 -24.66,-4.54 0.48,7.69 0.1,16.4 -5.99,22.01 -7.57,7.09 -17.04,11.64 -25.5,17.53 1.19,1.85 3.55,5.51 4.75,7.34 -9.09,6.09 -18.42,11.91 -28.24,16.71 -5.92,-11.38 -14.15,-21.56 -18.82,-33.52 0.99,-6.25 6.3,-10.34 11.43,-13.29 13.53,-7.97 26.97,-16.07 40.5,-24.07 -3.75,-6.22 -7.51,-12.45 -11.22,-18.7 -18.39,11.03 -36.9,21.87 -55.21,32.97 -8.13,-12.77 -15.62,-25.93 -23.42,-38.93 9.07,-5.34 18.08,-10.67 27.12,-16.03 1.78,2.46 3.53,4.93 5.29,7.42 26.87,-15.9 53.66,-31.88 80.45,-47.88 -1.44,-2.69 -2.89,-5.35 -4.34,-8.02zm-5.26 55.29l0 0c3.69,6.19 7.39,12.39 11.13,18.59 9.22,-5.08 18.21,-10.62 27.25,-16.03 -3.66,-6.25 -7.37,-12.49 -11.07,-18.69 -9.12,5.36 -18.22,10.72 -27.31,16.13zm997.03 -49.4c10.03,-2.39 19.71,2.54 27.91,7.8 29.21,18.21 58.64,36.11 87.9,54.27 6.96,4.11 12.09,11.73 11.76,20.01 -0.91,4.96 -3.93,9.12 -6.4,13.39 -13.2,21.43 -26.31,42.97 -39.29,64.56 -8.94,-5.72 -18,-11.2 -27.04,-16.69 1.47,-2.72 2.97,-5.38 4.46,-8.08 -26.76,-16.43 -53.41,-33.06 -80.28,-49.37 -1.67,2.67 -3.35,5.36 -5,8.05 -9.17,-5.63 -18.28,-11.32 -27.5,-16.83 13.2,-21.77 26.99,-43.18 40.3,-64.89 3.25,-5.03 6.63,-11.2 13.18,-12.22zm-1.44 55.98l0 0c26.71,16.22 53.2,32.83 79.89,49.11 3.79,-6.04 7.55,-12.11 11.25,-18.21 -26.48,-16.45 -53.3,-32.38 -79.49,-49.29 -4.29,5.86 -8.15,12.04 -11.65,18.39zm-501.29 262.83l0 0c-0.05,31.06 -1.06,62.14 -1.98,93.2 6.96,0.46 13.97,0.69 20.98,0.66 0.36,-31.31 0.99,-62.6 2.18,-93.89 -7.08,-0.07 -14.14,-0.07 -21.18,0.03z"/>
  </g>
 </g>
</svg>
