<?xml version="1.0" encoding="UTF-8"?>
<!DOCTYPE svg PUBLIC "-//W3C//DTD SVG 1.1//EN" "http://www.w3.org/Graphics/SVG/1.1/DTD/svg11.dtd">
<!-- Creator: CorelDRAW -->
<svg xmlns="http://www.w3.org/2000/svg" xml:space="preserve" width="2000px" height="1600px" version="1.1" style="shape-rendering:geometricPrecision; text-rendering:geometricPrecision; image-rendering:optimizeQuality; fill-rule:evenodd; clip-rule:evenodd"
viewBox="0 0 2000 1600"
 xmlns:xlink="http://www.w3.org/1999/xlink">
 <defs>
  <style type="text/css">
   <![CDATA[
    .fil0 {fill:#661012;fill-rule:nonzero}
   ]]>
  </style>
 </defs>
 <g id="Capa_x0020_1">
  <metadata id="CorelCorpID_0Corel-Layer"/>
  <path id="Alabama_x0020_A_x0026_M_x0020_Bulldogs.cdr" class="fil0" d="M561.47 1385.78c20.77,-54.32 41.72,-108.55 62.55,-162.82 56.18,104.58 153.14,188.88 268.32,221.03 54.6,15.49 112.5,18.23 168.48,9.24 137.65,-16.68 261.05,-105.98 328.76,-225.67 20.4,48.58 40.69,97.22 61.18,145.75 -39.16,55.14 -88.81,102.86 -145.72,139.45 -81.71,53.06 -177.86,82.6 -275.05,87.24l-50.06 0c-66.49,-3.4 -132.83,-16.81 -193.93,-43.68 -87.11,-37.82 -163.58,-98.08 -224.53,-170.54zm570.49 -364.06c30.88,-1.71 61.89,-0.28 92.82,-0.84 5.59,0.35 12.39,-0.97 16.87,3.27 3.2,3.96 5.46,9.32 4.31,14.48 -6.07,7.52 -16.81,9.42 -22.42,17.4 -4.17,7.01 2.64,13.86 4.67,20.44 19.23,48.51 38.2,97.14 57.32,145.7 3.91,9.6 6.96,19.66 12.34,28.6 5.62,-1.83 11.13,-3.86 16.69,-5.87 5.28,5.67 12.06,11.15 13.11,19.41 -0.62,5.03 -4.09,8.96 -6.96,12.92 -21.49,28.02 -49.35,50.03 -75.36,73.63 -7.77,-3.35 -19.91,-9.17 -17.67,-19.4 3.6,-3.33 8.07,-5.62 11.35,-9.27 0.48,-10.59 0.1,-21.69 -4.19,-31.55 -21.84,-54.9 -44.8,-109.36 -68.14,-163.63 -56.61,101.92 -112.99,204.01 -169.4,306.08 -55.16,-104.07 -108.77,-208.99 -164.09,-312.96 -0.89,-0.03 -2.69,-0.1 -3.6,-0.15 -24.08,58.38 -47.42,117.1 -71.34,175.54 -7.04,14.2 11.76,25.68 8.3,40.15 -1.45,4.55 -5.76,7.29 -9.55,9.81 -21.66,-6.68 -37.76,-24.26 -51.83,-41.22 -9.83,-12.22 -19.46,-24.56 -29.77,-36.32 -6.3,-7.21 -0.07,-17.88 7.09,-21.82 4.65,-2.84 9.06,2.26 13.46,3.56 21.94,-53.06 44.8,-105.81 63.72,-160.05 4.14,-11.79 7.77,-23.78 9.63,-36.14 -5.29,-2.14 -10.72,-3.81 -15.85,-6.28 -5.74,-7.28 -5.18,-23.51 6.42,-24.28 34.03,-0.22 68.12,0.03 102.17,-0.1 44.45,81.63 88.82,163.28 133.06,245.01 0.73,2.21 5.05,7.67 5.99,1.98 43.53,-82.75 87.24,-165.39 130.85,-248.1zm-540.35 -834.42c7.11,-3.25 18.64,-3.65 20.96,5.79 2.18,10.72 2.05,22.12 0.02,32.87 -4.77,15.82 -23.08,19.27 -33.8,29.79 -6.96,5.81 -7.77,15.36 -10.39,23.44 -2.46,10.18 -7.03,20.04 -7.21,30.68 0.02,167.57 0,335.16 0,502.73 -0.51,29.25 1.01,58.66 -0.71,87.82 -35.86,92.8 -72.28,185.42 -108.45,278.12 -0.1,-265.85 -0.07,-531.71 -0.02,-797.54 -0.41,-6.07 1.17,-12.62 -1.53,-18.31 -18.28,5.13 -28.54,24.16 -46.52,29.97 -5.26,2.08 -10.21,-2.67 -11,-7.64 -6.5,-23.04 4.19,-47.24 20.52,-63.44 53.76,-51.38 109.26,-103.8 178.13,-134.28zm789.24 8.31c-0.56,-6.73 3.12,-13.44 9.47,-16.03 16.02,3.2 30.6,11.15 45,18.57 39.34,21.84 75.91,48.61 109.39,78.65 22.5,20.72 44.97,42.95 58.48,70.76 6.58,13.02 7.37,31.18 -5.15,40.91 -11.2,2.39 -17.93,-10.26 -28.17,-12.01 -5.18,5.13 -3.2,13.08 -3.65,19.6 0.05,268.04 0.17,536.08 -0.05,804.09 -42.52,-103.46 -83.99,-207.41 -126.23,-311.01 -2.03,-4.9 -4.21,-9.93 -3.86,-15.33 0.05,-200.69 0,-401.38 0.03,-602.06 0.15,-8.15 -3.4,-16.13 -9.22,-21.77 -11.07,-11.1 -27.5,-14.3 -38.93,-24.89 -7.98,-7.62 -6.63,-19.45 -7.11,-29.48zm-413.01 -195.61l54.15 0c24.02,1.7 48.18,3.1 72,6.83 10.26,2.44 21.76,5.13 28.95,13.44 6.81,11.63 6.5,28.14 -1.65,38.98 -9.68,7.16 -22.73,4.75 -33.9,7.16 21.63,56.51 45.13,112.33 67.37,168.64 149.82,371.86 299.53,743.74 449.22,1115.66 2.39,6.04 6.83,13.41 14.43,12.54 12.77,-1.9 21.84,-15.54 35.53,-13.25 9.42,2.31 12.95,12.72 14.6,21.2 3.35,17.32 -5.03,34.16 -15.44,47.44 -12.65,16.11 -27.58,30.23 -40.41,46.2 -34.08,35.4 -67.63,76.11 -116.29,91.25 -11.22,-10.74 -15.8,-27.2 -12.34,-42.23 7.06,-11.89 22.22,-18.65 24.96,-33.2 0.56,-8.45 -4.29,-16 -6.9,-23.77 -59.53,-152.69 -118.89,-305.45 -178.37,-458.16 -207.13,0 -414.27,0 -621.41,0 -66.59,157.64 -133.13,315.3 -199.72,472.94 -5.03,11.68 -0.2,24.43 5.82,34.74 6.68,12.32 17.14,23.32 18.92,37.77 0.76,11.07 -7.8,20.14 -16.86,25.17 -4.7,3.25 -9.83,-1.22 -14.4,-2.62 -35.33,-16.66 -62.61,-45.64 -89.5,-73.17 -26.82,-28.77 -56.26,-56.1 -75.89,-90.59l0 -13.08c1.93,-10.56 7.75,-21.63 17.98,-26.08 12.55,-0.28 20.42,13.77 32.99,13.82 8.33,-1.55 13.11,-9.6 19.15,-14.84 8.99,-7.74 11.38,-19.8 15.82,-30.27 163.33,-418.23 326.68,-836.44 490.01,-1254.68 1.5,-4.01 2.77,-8.13 3.99,-12.24 -12.34,-2.9 -26.62,1.09 -37.64,-6.07 -4.52,-8.15 -4.17,-18.01 -3.81,-27.02 0.43,-10.54 6.96,-21.72 17.98,-23.77 26.59,-4.93 53.69,-6.81 80.66,-8.74zm-233.42 887.67l0 0c180.55,-0.13 361.07,-0.02 541.61,-0.05 -91.38,-222.07 -182.73,-444.17 -273.88,-666.34 -89.04,222.23 -178.59,444.22 -267.73,666.39zm218.67 -445.92c0.78,-8.53 10.31,-11.15 17.34,-12.39 20.7,-2.67 41.83,-1.73 62.38,1.62 6.09,1.45 13.61,1.76 17.57,7.42 4.45,6.07 3.56,17.24 -4.37,19.99 -4.85,2.33 -12.06,2.74 -13.41,9.09 -0.78,6.02 2.01,11.81 3.91,17.4 48.08,119.64 96.08,239.31 144.21,358.9 4.01,13.21 23.21,2.93 29.03,14.25 2.03,5.46 4.34,12.04 1.37,17.6 -2.24,2.62 -6.22,1.43 -9.2,1.88 -41.44,-0.15 -82.94,0.08 -124.39,-0.1 -9.02,1.07 -7.26,-10.97 -4.72,-16.28 3.81,-9.19 13.74,-12.72 22.98,-13.43 0.43,-22.2 -15.8,-39.55 -23.85,-59.15 -50.64,0.05 -101.25,0.02 -151.87,0 -8.86,21.76 -18.92,43.15 -25.52,65.72 5.86,0.28 11.76,0.06 17.6,0.77 5.81,4.06 3.02,12.59 2.69,18.59 -0.41,6.37 -7.62,7.41 -12.65,7.06 -38.83,-0.26 -77.71,0.3 -116.52,-0.28 -5.84,-4.93 -4.5,-13.61 -2.82,-20.17 9.12,-0.73 18.64,-2.54 25.73,-8.78 8.25,-6.02 12.7,-15.55 15.97,-24.95 47.24,-121.65 94.66,-243.25 141.95,-364.87 -5.54,-5.59 -15.4,-10.49 -13.41,-19.89zm-11.13 285.21l0 0c37.23,0.53 74.41,-0.94 111.62,-0.61 -18.72,-46.86 -37.28,-93.77 -56.05,-140.6 -18.67,47.01 -37.15,94.1 -55.57,141.21z"/>
 </g>
</svg>
