<?xml version="1.0" encoding="UTF-8"?>
<!DOCTYPE svg PUBLIC "-//W3C//DTD SVG 1.1//EN" "http://www.w3.org/Graphics/SVG/1.1/DTD/svg11.dtd">
<!-- Creator: CorelDRAW -->
<svg xmlns="http://www.w3.org/2000/svg" xml:space="preserve" width="2000px" height="1600px" version="1.1" style="shape-rendering:geometricPrecision; text-rendering:geometricPrecision; image-rendering:optimizeQuality; fill-rule:evenodd; clip-rule:evenodd"
viewBox="0 0 2000 1600"
 xmlns:xlink="http://www.w3.org/1999/xlink">
 <defs>
  <style type="text/css">
   <![CDATA[
    .fil1 {fill:#0B5641;fill-rule:nonzero}
    .fil2 {fill:#FDC52E;fill-rule:nonzero}
    .fil0 {fill:#FEFEFE;fill-rule:nonzero}
   ]]>
  </style>
 </defs>
 <g id="Capa_x0020_1">
  <metadata id="CorelCorpID_0Corel-Layer"/>
  <g id="Alaska_x0020_Anchorage_x0020_Seawolves.cdr">
   <path class="fil0" d="M1185.45 639.01c27.6,-10.29 57.44,-13.01 86.71,-12.09 31.38,1.23 63.27,8.62 89.76,26.06 15.53,10.09 28.88,23.37 39.63,38.44 13.01,17.48 20.2,38.72 34.87,55.08 19.54,23.85 49.16,36.1 78.43,43.14 -1.62,22 -7.07,43.69 -16.41,63.68 -26.65,-4.54 -54.79,-8.44 -81.01,0.41 -24.36,7.71 -42.12,27.23 -64.46,38.82 -23.56,12.78 -50.68,16.72 -77.12,17.96 -36.71,1.46 -75.05,0.15 -109.08,-15.23 -18.76,-8.22 -34.14,-21.94 -50.78,-33.48 -28.49,-18.62 -64.39,-17.82 -96.76,-12.92 -8.93,-20.4 -13.29,-42.85 -12.97,-65.08 16.33,-3.03 32.62,-7.29 47.4,-15.07 15.02,-7.52 27.64,-19.22 37.61,-32.65 10.67,-13.93 17.1,-30.54 27.55,-44.61 16.18,-23.74 39.54,-42.63 66.63,-52.46zm-278.51 -464.32c56.91,-12.04 115.18,-18.84 173.41,-16.49 84.4,2.77 168.32,22.66 244.68,58.85 101.29,47.6 188.34,123.52 252.07,215.24 58.25,85.56 95.47,185.25 108.39,287.89 59.67,20.67 118.68,43.51 175.75,70.61 30.38,14.44 60.39,29.84 88.74,47.97 15.15,9.57 28.22,23.27 34.59,40.25 8.15,21.34 4.63,45.92 -6.39,65.57 -10.49,17.18 -23.62,32.55 -36.64,47.83 -33.68,38.53 -69.36,75.29 -106.5,110.46 -47.74,45.13 -104.2,84.85 -169.74,97.87 7.17,16.23 8.85,34.99 3.48,52.01 -5.67,19.36 -20.4,35.72 -38.78,43.92 -18.86,8.62 -41.19,8.48 -60.18,0.41 -24.94,-10.72 -50.16,-20.77 -75.85,-29.46 -51.33,48.61 -110.59,88.92 -174.96,118.15 -141.46,64.89 -306.93,73.7 -455.12,26.97 -71.61,-25.6 -138.72,-62.63 -201.5,-105.28 -27.77,-19.99 -56.45,-38.61 -84.86,-57.62 -186.63,-124.76 -373.29,-249.48 -560.2,-373.82 31.07,-23.9 61.96,-48.05 93.96,-70.69 106.88,-75.85 221.34,-140.35 337.93,-199.88 37.65,-118.67 113.64,-223.1 208.46,-302.82 72.2,-60.3 157.15,-106.94 249.26,-127.94zm56.15 28.96l0 0c-20.26,3.38 -40.62,6.5 -60.51,11.74 -68.46,17.56 -132.34,50.59 -189.12,92.36 -51.66,38.24 -97.71,84.02 -136.4,135.33 -42.03,55.98 -75.61,118.85 -94.66,186.38 -0.45,3.2 -3.99,3.83 -6.26,5.31 -136.44,69.89 -270.86,145.35 -392.61,239.02 20.83,13.58 41.75,26.97 62.46,40.7 21.77,-16.14 43.75,-32.02 66.09,-47.42 200,-138.43 422.7,-242.14 653.87,-316.69 26.41,-8.57 50.37,-29.4 56.23,-57.42 7.97,-36.56 -4.61,-73.41 -17.27,-107.37 -2.07,-7.05 -7.08,-13.67 -5.98,-21.35 1.29,-5.55 6.82,-8.03 11.84,-9.25 54.51,-16 111.82,-19.38 168.35,-18.38 46.36,38.69 85.87,84.76 124.22,131.2 18.84,23.59 37.85,47.13 54.89,72.06 5.61,8.21 -3.32,16.57 -11.43,17.14 -161.94,23.01 -321.59,62.76 -474.93,119.81 -194.57,72 -378.45,171.71 -547.39,291.93 20.83,13.62 41.74,27.16 62.62,40.7 123.96,-80.56 248.72,-161.12 382.95,-223.8 76.08,-35.46 155.14,-65.16 236.91,-84.52 22.82,-5.51 47.11,10.25 53.55,32.37 5.47,18.17 -1.95,39.02 -16.57,50.8 -6.25,5.08 -14.34,6.53 -21.86,8.74 -45.62,13.21 -90.7,28.41 -134.97,45.62 -148.28,57.15 -287.15,136.44 -417.63,226.71 21.38,14.15 42.69,28.37 64.21,42.3 69.38,-46.79 139.72,-92.4 213.38,-132.2 65.61,-35.32 134.04,-66.21 205.9,-86.42 20.54,-5.94 44.61,3.42 54.85,22.39 14.3,24.08 -0.26,59.93 -27.42,67.02 -130.26,41.89 -254.35,103.42 -365.47,183.39 21.18,14.19 42.46,28.26 63.62,42.46 46.38,-30.5 94.78,-57.95 144.96,-81.67 26.24,-12.25 52.83,-24.01 80.58,-32.41 17.15,-4.99 37.29,-0.96 49.78,12.21 14.15,15.92 13.81,42.59 0.16,58.77 -7.14,8.46 -18.31,11.14 -28.08,15.26 -56.27,23 -110.81,50.9 -160.84,85.54 44.99,32.38 92.18,61.94 142.24,85.88 32.59,15.29 66.04,29.32 101.19,37.49 128.04,32.28 266.84,21.86 387.71,-31.83 70.17,-30.71 134.02,-75.42 187.61,-130.05 34,11.1 67.53,23.6 100.34,37.81 12.52,5.59 28.33,4.1 38.64,-5.32 13.29,-11.78 14.11,-34.23 2.25,-47.3 -5.24,-6.41 -13.4,-8.83 -20.63,-12.13 -93.98,-40.49 -195.61,-61.02 -297.42,-67.84 -100.37,-6.68 -201.22,-1.02 -300.96,11.13 -6.37,0.86 -13.68,-0.39 -18.08,-5.45 -5.56,-5.8 -4.68,-14.63 -3.41,-21.88 5.7,-24.52 11.35,-49.3 21.72,-72.33 8.07,-17.96 19.6,-35.64 37.38,-45.2 8.89,-5.19 19.31,-6.15 29.21,-8.05 92.77,-16.29 187.34,-20.55 281.34,-17.09 163.62,6.41 325.87,34.48 484.02,76.14 20.97,-21.1 42.62,-41.6 61.76,-64.42 -30.69,-13.27 -62.05,-25.03 -94,-34.9 -19.07,15.14 -40.93,26.77 -64.14,34.08 -22.34,6 -46.31,4.45 -68.27,-2.37 16.98,-21.94 34.91,-43.12 53.83,-63.42 15.86,-16.63 31.94,-33.39 50.9,-46.58 6.99,-5.63 16.33,-1.64 23.95,0.41 49.06,14.87 96.44,34.74 143.36,55.3 3.75,-8.91 6.5,-18.96 3.69,-28.51 -2.62,-10.08 -10.34,-17.96 -18.82,-23.53 -25.85,-16.68 -53.36,-30.59 -80.95,-44.12 -64.55,-30.69 -131.3,-56.78 -199.43,-78.41 -7.7,-82.96 -31.09,-164.59 -70.34,-238.17 -34.35,-65.71 -82.3,-123.96 -138.2,-172.46 -60.51,-52.3 -131.75,-92.22 -208.15,-115.98 -87.02,-27.27 -180.34,-33.33 -270.36,-19.26zm-34.46 168.29l0 0c15.65,13.3 31.63,26.55 44.19,42.98 12.53,15.14 15.61,35.66 16.08,54.71 -0.21,34.84 -12.19,70.5 -36.3,96.09 36.85,-21.04 76.12,-38.57 117.78,-47.52 45.7,-10.23 93.55,-10.27 139.39,-0.62 -22.23,-20.24 -46.11,-38.65 -70.9,-55.61 -63.41,-43 -134.45,-76.47 -210.24,-90.03zm144.92 665.88l0 0c-13.52,23.55 -21.03,49.83 -27.38,76.05 45.04,-0.77 89.82,-13.41 128.69,-36.19 26.59,-15.38 50.33,-35.29 71.37,-57.6 -57.87,1.84 -115.77,6.92 -172.68,17.74zm185.32 -17.8l0 0c-15.35,26.85 -30.85,53.6 -46.19,80.46 40.18,4.87 81.46,-0.78 118.74,-16.51 34.04,-14.16 65.36,-34.64 93.26,-58.63 -55.14,-4.38 -110.51,-6.49 -165.81,-5.32zm179.61 6.51l0 0c-19.23,26.3 -37.75,53.2 -53.44,81.77 37.65,7.23 77.06,5.08 113.73,-6.16 36.83,-11.13 70.89,-30.42 100.82,-54.45 -53.38,-9.3 -107.15,-16.39 -161.11,-21.16zm141.57 69.75l0 0c21.97,5.4 44.01,10.53 65.81,16.63 -15.67,21.14 -38.53,35.17 -60.18,49.37 42.32,9.09 87.03,1.47 125.6,-17.54 28.49,-13.76 54.41,-32.34 78.39,-52.87 -56.92,-17.3 -115.03,-30.46 -173.51,-41.23 -10.57,16.31 -22.7,31.57 -36.11,45.64zm-332.39 -421.9l0 0c-39.02,5.51 -72.32,37.67 -79.21,76.45 -6.12,30.49 3.71,63.62 25.69,85.64 17.61,18.27 42.81,28.76 68.15,28.74 24.92,0.26 49.77,-9.71 67.49,-27.23 18.5,-17.96 29.46,-43.63 28.74,-69.48 0.45,-31.34 -16.37,-62.08 -42.51,-79.19 -19.78,-13.41 -44.79,-18.74 -68.35,-14.93z"/>
   <path class="fil1" d="M963.09 203.65c90.02,-14.07 183.34,-8.01 270.36,19.26 76.4,23.76 147.64,63.68 208.15,115.98 55.9,48.5 103.85,106.75 138.2,172.46 39.25,73.58 62.64,155.21 70.34,238.17 68.13,21.63 134.88,47.72 199.43,78.41 27.59,13.53 55.1,27.44 80.95,44.12 8.48,5.57 16.2,13.45 18.82,23.53 2.81,9.55 0.06,19.6 -3.69,28.51 -46.92,-20.56 -94.3,-40.43 -143.36,-55.3 -7.62,-2.05 -16.96,-6.04 -23.95,-0.41 -18.96,13.19 -35.04,29.95 -50.9,46.58 -18.92,20.3 -36.85,41.48 -53.83,63.42 21.96,6.82 45.93,8.37 68.27,2.37 23.21,-7.31 45.07,-18.94 64.14,-34.08 31.95,9.87 63.31,21.63 94,34.9 -19.14,22.82 -40.79,43.32 -61.76,64.42 -158.15,-41.66 -320.4,-69.73 -484.02,-76.14 -94,-3.46 -188.57,0.8 -281.34,17.09 -9.9,1.9 -20.32,2.86 -29.21,8.05 -17.78,9.56 -29.31,27.24 -37.38,45.2 -10.37,23.03 -16.02,47.81 -21.72,72.33 -1.27,7.25 -2.15,16.08 3.41,21.88 4.4,5.06 11.71,6.31 18.08,5.45 99.74,-12.15 200.59,-17.81 300.96,-11.13 101.81,6.82 203.44,27.35 297.42,67.84 7.23,3.3 15.39,5.72 20.63,12.13 11.86,13.07 11.04,35.52 -2.25,47.3 -10.31,9.42 -26.12,10.91 -38.64,5.32 -32.81,-14.21 -66.34,-26.71 -100.34,-37.81 -53.59,54.63 -117.44,99.34 -187.61,130.05 -120.87,53.69 -259.67,64.11 -387.71,31.83 -35.15,-8.17 -68.6,-22.2 -101.19,-37.49 -50.06,-23.94 -97.25,-53.5 -142.24,-85.88 50.03,-34.64 104.57,-62.54 160.84,-85.54 9.77,-4.12 20.94,-6.8 28.08,-15.26 13.65,-16.18 13.99,-42.85 -0.16,-58.77 -12.49,-13.17 -32.63,-17.2 -49.78,-12.21 -27.75,8.4 -54.34,20.16 -80.58,32.41 -50.18,23.72 -98.58,51.17 -144.96,81.67 -21.16,-14.2 -42.44,-28.27 -63.62,-42.46 111.12,-79.97 235.21,-141.5 365.47,-183.39 27.16,-7.09 41.72,-42.94 27.42,-67.02 -10.24,-18.97 -34.31,-28.33 -54.85,-22.39 -71.86,20.21 -140.29,51.1 -205.9,86.42 -73.66,39.8 -144,85.41 -213.38,132.2 -21.52,-13.93 -42.83,-28.15 -64.21,-42.3 130.48,-90.27 269.35,-169.56 417.63,-226.71 44.27,-17.21 89.35,-32.41 134.97,-45.62 7.52,-2.21 15.61,-3.66 21.86,-8.74 14.62,-11.78 22.04,-32.63 16.57,-50.8 -6.44,-22.12 -30.73,-37.88 -53.55,-32.37 -81.77,19.36 -160.83,49.06 -236.91,84.52 -134.23,62.68 -258.99,143.24 -382.95,223.8 -20.88,-13.54 -41.79,-27.08 -62.62,-40.7 168.94,-120.22 352.82,-219.93 547.39,-291.93 153.34,-57.05 312.99,-96.8 474.93,-119.81 8.11,-0.57 17.04,-8.93 11.43,-17.14 -17.04,-24.93 -36.05,-48.47 -54.89,-72.06 -38.35,-46.44 -77.86,-92.51 -124.22,-131.2 -56.53,-1 -113.84,2.38 -168.35,18.38 -5.02,1.22 -10.55,3.7 -11.84,9.25 -1.1,7.68 3.91,14.3 5.98,21.35 12.66,33.96 25.24,70.81 17.27,107.37 -5.86,28.02 -29.82,48.85 -56.23,57.42 -231.17,74.55 -453.87,178.26 -653.87,316.69 -22.34,15.4 -44.32,31.28 -66.09,47.42 -20.71,-13.73 -41.63,-27.12 -62.46,-40.7 121.75,-93.67 256.17,-169.13 392.61,-239.02 2.27,-1.48 5.81,-2.11 6.26,-5.31 19.05,-67.53 52.63,-130.4 94.66,-186.38 38.69,-51.31 84.74,-97.09 136.4,-135.33 56.78,-41.77 120.66,-74.8 189.12,-92.36 19.89,-5.24 40.25,-8.36 60.51,-11.74zm616.96 892.63c13.41,-14.07 25.54,-29.33 36.11,-45.64 58.48,10.77 116.59,23.93 173.51,41.23 -23.98,20.53 -49.9,39.11 -78.39,52.87 -38.57,19.01 -83.28,26.63 -125.6,17.54 21.65,-14.2 44.51,-28.23 60.18,-49.37 -21.8,-6.1 -43.84,-11.23 -65.81,-16.63zm-141.57 -69.75c53.96,4.77 107.73,11.86 161.11,21.16 -29.93,24.03 -63.99,43.32 -100.82,54.45 -36.67,11.24 -76.08,13.39 -113.73,6.16 15.69,-28.57 34.21,-55.47 53.44,-81.77zm-179.61 -6.51c55.3,-1.17 110.67,0.94 165.81,5.32 -27.9,23.99 -59.22,44.47 -93.26,58.63 -37.28,15.73 -78.56,21.38 -118.74,16.51 15.34,-26.86 30.84,-53.61 46.19,-80.46zm-185.32 17.8c56.91,-10.82 114.81,-15.9 172.68,-17.74 -21.04,22.31 -44.78,42.22 -71.37,57.6 -38.87,22.78 -83.65,35.42 -128.69,36.19 6.35,-26.22 13.86,-52.5 27.38,-76.05zm174.11 -363.44c23.56,-3.81 48.57,1.52 68.35,14.93 26.14,17.11 42.96,47.85 42.51,79.19 0.72,25.85 -10.24,51.52 -28.74,69.48 -17.72,17.52 -42.57,27.49 -67.49,27.23 -25.34,0.02 -50.54,-10.47 -68.15,-28.74 -21.98,-22.02 -31.81,-55.15 -25.69,-85.64 6.89,-38.78 40.19,-70.94 79.21,-76.45zm-319.03 -302.44c75.79,13.56 146.83,47.03 210.24,90.03 24.79,16.96 48.67,35.37 70.9,55.61 -45.84,-9.65 -93.69,-9.61 -139.39,0.62 -41.66,8.95 -80.93,26.48 -117.78,47.52 24.11,-25.59 36.09,-61.25 36.3,-96.09 -0.47,-19.05 -3.55,-39.57 -16.08,-54.71 -12.56,-16.43 -28.54,-29.68 -44.19,-42.98zm30.5 -217.9c95.05,-14.32 193.37,-7.96 285.42,20.06 66.47,20.11 129.49,51.51 185.72,92.29 61.12,44.15 114.18,99.23 157.09,161.21 57.43,84.8 94.41,183.18 108.33,284.61 55.51,18.79 110.02,40.52 163.16,65.18 32.79,15.32 65.11,31.79 95.75,51.05 15.8,9.83 29.64,23.45 37.59,40.45 12.39,25.61 9.4,56.95 -4.42,81.4 -11.51,18.75 -25.87,35.56 -40.19,52.22 -33.84,38.48 -69.62,75.23 -106.94,110.34 -45.66,42.71 -98.78,80.5 -160.27,95.8 6.88,25.34 1.42,53.83 -15.09,74.37 -16.31,20.55 -42.73,32.57 -68.97,31.08 -19.34,0.1 -36.48,-9.65 -53.99,-16.47 -15.08,-6.17 -30.32,-11.9 -45.66,-17.37 -98.24,91.91 -225.77,152.15 -359.46,168.19 -91.79,11.31 -186.01,3.01 -274.38,-24.32 -72.8,-25.6 -140.95,-63.13 -204.81,-106.16 -30.11,-21.67 -61.23,-41.85 -92.05,-62.48 -134.99,-90.33 -270.16,-180.41 -405.21,-270.66 -53.46,-35.91 -107.47,-71.04 -160.75,-107.19 0.1,-0.64 0.25,-1.93 0.33,-2.58 28.9,-22.14 57.54,-44.64 86.93,-66.12 111.02,-81.12 231.19,-148.69 353.13,-211.78 20.42,-64.26 53.03,-124.25 92.87,-178.49 42.34,-57.29 93.2,-108.3 150.49,-150.68 60.49,-44.65 128.54,-79.78 201.32,-99.34 24.29,-6.7 49.2,-10.65 74.06,-14.61zm-52.19 20.65l0 0c-92.11,21 -177.06,67.64 -249.26,127.94 -94.82,79.72 -170.81,184.15 -208.46,302.82 -116.59,59.53 -231.05,124.03 -337.93,199.88 -32,22.64 -62.89,46.79 -93.96,70.69 186.91,124.34 373.57,249.06 560.2,373.82 28.41,19.01 57.09,37.63 84.86,57.62 62.78,42.65 129.89,79.68 201.5,105.28 148.19,46.73 313.66,37.92 455.12,-26.97 64.37,-29.23 123.63,-69.54 174.96,-118.15 25.69,8.69 50.91,18.74 75.85,29.46 18.99,8.07 41.32,8.21 60.18,-0.41 18.38,-8.2 33.11,-24.56 38.78,-43.92 5.37,-17.02 3.69,-35.78 -3.48,-52.01 65.54,-13.02 122,-52.74 169.74,-97.87 37.14,-35.17 72.82,-71.93 106.5,-110.46 13.02,-15.28 26.15,-30.65 36.64,-47.83 11.02,-19.65 14.54,-44.23 6.39,-65.57 -6.37,-16.98 -19.44,-30.68 -34.59,-40.25 -28.35,-18.13 -58.36,-33.53 -88.74,-47.97 -57.07,-27.1 -116.08,-49.94 -175.75,-70.61 -12.92,-102.64 -50.14,-202.33 -108.39,-287.89 -63.73,-91.72 -150.78,-167.64 -252.07,-215.24 -76.36,-36.19 -160.28,-56.08 -244.68,-58.85 -58.23,-2.35 -116.5,4.45 -173.41,16.49zm-41.99 83.02l0 0c-90.74,33.1 -170.73,92.09 -234.57,164.07 -48.22,54.96 -87.55,118.72 -109.28,188.86 86.82,-40.38 174.9,-78.74 266.49,-107.03 10.3,-3.3 20.74,-6.47 30.48,-11.22 8.33,-4.1 16.03,-10.72 19.06,-19.75 2.58,-9.3 2.5,-19.11 1.05,-28.59 -4.32,-29.72 -19.4,-56.46 -24.93,-85.89 -1.31,-9.55 -2.03,-19.83 1.87,-28.92 4.32,-11.1 14.5,-18.87 25.33,-23.11 40.64,-15.95 83.55,-25.32 126.63,-31.83 40.23,-5.73 80.93,-9.42 121.61,-7.72 12.52,0.43 23.56,7.41 32.61,15.59 37.28,33.67 72.82,69.21 106.78,106.2 47.48,51.99 92.38,106.66 130.17,166.18 36.65,8.75 66.31,35.17 87.49,65.35 10.71,14.44 17.73,31.27 29.06,45.27 13.48,17.36 31.14,31.11 50.43,41.45 29.91,16.02 62.91,24.79 95.25,34.41 -9.52,-94.38 -41.19,-186.86 -94.29,-265.64 -40.04,-58.51 -90.29,-110.2 -148.42,-150.89 -66.32,-46.57 -142.93,-78.51 -222.82,-92.23 -96.76,-17.04 -197.41,-6.58 -290,25.44zm320.5 381.3l0 0c-27.09,9.83 -50.45,28.72 -66.63,52.46 -10.45,14.07 -16.88,30.68 -27.55,44.61 -9.97,13.43 -22.59,25.13 -37.61,32.65 -14.78,7.78 -31.07,12.04 -47.4,15.07 -0.32,22.23 4.04,44.68 12.97,65.08 32.37,-4.9 68.27,-5.7 96.76,12.92 16.64,11.54 32.02,25.26 50.78,33.48 34.03,15.38 72.37,16.69 109.08,15.23 26.44,-1.24 53.56,-5.18 77.12,-17.96 22.34,-11.59 40.1,-31.11 64.46,-38.82 26.22,-8.85 54.36,-4.95 81.01,-0.41 9.34,-19.99 14.79,-41.68 16.41,-63.68 -29.27,-7.04 -58.89,-19.29 -78.43,-43.14 -14.67,-16.36 -21.86,-37.6 -34.87,-55.08 -10.75,-15.07 -24.1,-28.35 -39.63,-38.44 -26.49,-17.44 -58.38,-24.83 -89.76,-26.06 -29.27,-0.92 -59.11,1.8 -86.71,12.09zm-197.03 576.17l0 0c-75.64,17.68 -149.65,43.98 -217.41,82.26 41.55,24.16 85.95,43.51 132.12,56.89 120.61,32.18 251.74,24.92 367.35,-22.66 67.45,-27.49 129.31,-68.39 181.32,-119.35 -64.26,-17.4 -131.09,-23.38 -197.46,-24.79 -89.31,-1.33 -178.86,7.5 -265.92,27.65z"/>
   <path class="fil2" d="M864.95 257.71c92.59,-32.02 193.24,-42.48 290,-25.44 79.89,13.72 156.5,45.66 222.82,92.23 58.13,40.69 108.38,92.38 148.42,150.89 53.1,78.78 84.77,171.26 94.29,265.64 -32.34,-9.62 -65.34,-18.39 -95.25,-34.41 -19.29,-10.34 -36.95,-24.09 -50.43,-41.45 -11.33,-14 -18.35,-30.83 -29.06,-45.27 -21.18,-30.18 -50.84,-56.6 -87.49,-65.35 -37.79,-59.52 -82.69,-114.19 -130.17,-166.18 -33.96,-36.99 -69.5,-72.53 -106.78,-106.2 -9.05,-8.18 -20.09,-15.16 -32.61,-15.59 -40.68,-1.7 -81.38,1.99 -121.61,7.72 -43.08,6.51 -85.99,15.88 -126.63,31.83 -10.83,4.24 -21.01,12.01 -25.33,23.11 -3.9,9.09 -3.18,19.37 -1.87,28.92 5.53,29.43 20.61,56.17 24.93,85.89 1.45,9.48 1.53,19.29 -1.05,28.59 -3.03,9.03 -10.73,15.65 -19.06,19.75 -9.74,4.75 -20.18,7.92 -30.48,11.22 -91.59,28.29 -179.67,66.65 -266.49,107.03 21.73,-70.14 61.06,-133.9 109.28,-188.86 63.84,-71.98 143.83,-130.97 234.57,-164.07zm123.47 957.47c87.06,-20.15 176.61,-28.98 265.92,-27.65 66.37,1.41 133.2,7.39 197.46,24.79 -52.01,50.96 -113.87,91.86 -181.32,119.35 -115.61,47.58 -246.74,54.84 -367.35,22.66 -46.17,-13.38 -90.57,-32.73 -132.12,-56.89 67.76,-38.28 141.77,-64.58 217.41,-82.26z"/>
  </g>
 </g>
</svg>
