<?xml version="1.0" encoding="UTF-8"?>
<!DOCTYPE svg PUBLIC "-//W3C//DTD SVG 1.1//EN" "http://www.w3.org/Graphics/SVG/1.1/DTD/svg11.dtd">
<!-- Creator: CorelDRAW -->
<svg xmlns="http://www.w3.org/2000/svg" xml:space="preserve" width="2000px" height="1600px" version="1.1" style="shape-rendering:geometricPrecision; text-rendering:geometricPrecision; image-rendering:optimizeQuality; fill-rule:evenodd; clip-rule:evenodd"
viewBox="0 0 2000 1600"
 xmlns:xlink="http://www.w3.org/1999/xlink">
 <defs>
  <style type="text/css">
   <![CDATA[
    .fil3 {fill:black;fill-rule:nonzero}
    .fil2 {fill:#005DAB;fill-rule:nonzero}
    .fil0 {fill:#FEFEFE;fill-rule:nonzero}
    .fil1 {fill:#FFD204;fill-rule:nonzero}
   ]]>
  </style>
 </defs>
 <g id="Capa_x0020_1">
  <metadata id="CorelCorpID_0Corel-Layer"/>
  <g id="Alaska_x0020_Nanooks.cdr">
   <path class="fil0" d="M1533.45 1281.03c6.38,-20.86 11.95,-41.97 18.68,-62.72 6.2,20.73 11.33,41.77 17.37,62.57 -12.01,0.46 -24.05,0.18 -36.05,0.15zm-836.55 -246.8c56.39,-0.21 112.76,-0.03 169.15,-0.1 3.64,9.95 8.38,19.55 14.87,27.94 2.58,3.43 6.55,5.28 10.33,7.06 -59.47,-0.03 -118.95,0.3 -178.42,-0.17 5.2,-1.99 5.74,-7.89 3.86,-12.4 -6.09,-7.91 -17.23,-11.82 -19.79,-22.33zm314.45 -28.86c2.26,13.42 5.38,27.29 13.33,38.61 10.57,12.8 26.35,19.76 41.69,25.07 -18.46,0.23 -36.91,0.1 -55.37,0.11 0.17,-21.26 -0.43,-42.55 0.35,-63.79zm244.27 -141.1c17.12,-1.33 33.8,-7.09 51.1,-6.17 14.66,0.38 28.1,6.88 41.48,12.23 8.72,3.69 18.17,4.99 27.28,7.4 0,63.81 -0.02,127.61 0,191.42 -37.26,0.06 -74.53,0 -111.81,0.03 -39.27,-0.26 -78.55,0.51 -117.8,-0.41 2.81,-0.48 5.6,-0.99 8.46,-1.44 0.64,-9.02 -5.51,-17.84 -14.01,-20.71 -11.08,-4.69 -23.23,-6.53 -33.81,-12.47 62.36,-0.03 124.72,-0.02 187.1,-0.02 8.19,6.25 19.11,8.18 29.19,6.62 0.56,-2.23 1.17,-4.42 1.76,-6.62 5.3,0 10.61,-0.01 15.92,-0.06 -0.18,-51.82 0.13,-103.63 -0.15,-155.43 -27.11,0.15 -54.23,-0.03 -81.34,0.08 -1.16,-4.81 -2.24,-9.63 -3.37,-14.45zm-642.98 -20.12c24.77,-0.21 49.52,-0.05 74.3,-0.08 -1.7,11.5 -2.2,23.14 -3.83,34.65 -11.76,-0.08 -23.52,0.03 -35.26,-0.1 -0.3,24.86 0.03,49.73 -0.17,74.58 -10.98,14.94 -21.52,30.32 -30.36,46.63 -0.61,6.73 -2.13,14.64 2.13,20.53 6.22,9.53 6.94,21.26 11.33,31.57 2.75,6.25 5.29,13.26 11.21,17.23 -9.78,-0.08 -19.57,0.17 -29.35,-0.11 0.1,-74.96 0.08,-149.92 0,-224.9zm393.09 -160.62c33.72,-0.61 66.05,-11.56 99.41,-15.17 18.87,-1.36 38.3,-1.79 56.49,4.2 12.6,5.34 25.52,10.29 36.99,17.88 16.33,10.11 32.4,20.75 49.85,28.89 6.97,3.57 14,7.18 21.62,9.21 21.85,5.59 43.8,10.88 66.04,14.84 17.25,3.6 34.94,5.79 51.45,12.26 19.46,6.64 39.34,14.97 53.65,30.26 6.75,7.24 10.54,16.38 14.07,25.46 6.24,14.12 23.49,18.82 29.64,32.92 -5.84,4.44 -12.06,8.81 -19.31,10.48 -16.36,3.15 -33.12,2.12 -49.58,0.36 0.81,-3.27 1.12,-7.19 4.37,-9.04 6.53,-4.6 14.33,-6.78 21.59,-9.93 -2.99,-10.55 1.98,-20.96 1.65,-31.63 -9.86,-1.91 -15.55,8.02 -23.5,11.64 -5.64,3.37 -11.75,-0.61 -17.44,-1.73 -10.29,-3.21 -20.93,0.84 -30.08,5.49 -6.61,4.06 -15.88,1.69 -20.48,-4.37 -9.39,-9.97 -10.49,-24.9 -20.03,-34.78 4.21,-2.87 10.03,-2.03 14.65,-4.35 -8.48,-5.83 -18.16,-9.49 -27.61,-13.4 -6.46,-2.7 -13.62,-2.22 -20.22,-0.39 -0.36,4.68 -2.46,10.17 1.06,14.2 4.75,7.88 15.12,9.32 20,17.1 -2.97,2.71 -5.37,7.46 -10.08,6.88 -15.58,-0.43 -26.94,-15.36 -42.83,-14.52 -4.15,-0.19 -7.72,2.28 -11.67,2.89 -7.71,-2.57 -13.63,-8.82 -21.56,-10.82 -7.67,3.4 -16.25,7.34 -24.76,4.52 -12.83,-2.93 -23.2,-11.36 -34.3,-17.91 0.35,-2.97 0.49,-6.2 2.46,-8.64 4.1,-3.76 10.52,-4.62 13.34,-9.85 1.7,-2.19 1.67,-6.69 -1.22,-7.82 -5.49,-0.42 -11,-0.09 -16.49,-0.13 -6.25,-6.08 -7.34,-15.39 -13.33,-21.64 -6.14,-0.71 -10.39,5.36 -13.29,10 -3.58,7.37 -4.75,15.62 -7.26,23.37 -8.15,14.23 -21.74,23.9 -33.81,34.53 -10.26,8.88 -22.43,16.23 -29.74,27.98 -4.14,11.24 2.33,23.47 10.54,31.15 -10.42,9.22 -25.02,12.07 -34.91,22.05 -5.86,5.71 -11.27,14.4 -8.1,22.78 4.73,1.94 14.5,2.51 11.89,10.03 -5.15,10.93 -16.16,18.83 -18.17,31.35 6.99,8.77 11.16,19.38 14.71,29.9 3.76,16.03 8.57,31.78 13.57,47.45 -4.67,9.02 -18.85,8.96 -21.13,20.06 4.36,4.09 9.49,7.85 15.59,8.65 7.42,1.44 15.96,3.91 20.04,10.84 11.13,-4.4 24.54,-2.26 33.77,5.33 5.05,3.92 9.82,8.19 14.83,12.15 -18.37,2.57 -37.06,2.21 -55.43,-0.1 -15.3,-2.29 -30.86,-9.17 -39.5,-22.56 -5.18,-6.53 -8.21,-14.45 -10.18,-22.46 -3.43,-19.63 -4.84,-39.59 -4.66,-59.49 -1.8,-18.23 -2.66,-36.8 -8.41,-54.33 -6.52,-17.07 -12.64,-34.34 -17.21,-52.05 -2.03,-11 -3.2,-23.29 2.59,-33.41 4.67,-8.93 10.11,-18.72 7.06,-29.13 -13.14,3.13 -20.32,15.45 -26.65,26.26 -6.3,8.95 -7.14,21.09 -15.57,28.64 -6.93,5.1 -14.66,9.11 -22.86,11.75 -7.5,-0.98 -13.94,-5.58 -21.39,-6.57 -14.38,0.3 -27.82,6.07 -41.64,9.45 -11.27,2.08 -24.13,2.39 -33.6,-5.08 -6.83,-5.87 -12.42,-14.79 -10.85,-24.13 2.39,-16.44 10.62,-32.5 7.06,-49.42 -20.82,24.45 -50.47,40.17 -68.56,67.1 4.71,11.7 5.85,25.35 1.02,37.2 -3.09,9.1 -9.68,16.52 -16.74,22.81 -11.63,8.67 -23.03,17.68 -35.1,25.74 -5.39,3.58 -9.55,8.63 -14.15,13.11 1.53,10.24 7.13,20.67 3.84,31.04 -4.63,6.48 -11.76,10.51 -18.37,14.65 -6.56,4.12 -14.63,5.7 -20.19,11.34 0.58,6.93 0.94,13.94 0.3,20.9 -1.58,7.52 -5.19,14.41 -7.82,21.61 13.43,5.62 27.68,9.33 41.88,12.55 -5.92,4.96 -14.05,4.71 -21.31,5.46 -13.9,0.41 -28.1,-1.47 -40.92,-7.11 -4.5,-11.76 -5.95,-24.48 -11.36,-35.89 -1.78,-4.68 -4.98,-8.63 -7.18,-13.1 3.58,-15.61 12.52,-29.29 22.93,-41.21 9.4,-9.34 18.17,-19.27 27.62,-28.55 9.49,-12.4 17.62,-26.75 19.17,-42.57 3.31,-20.15 3.64,-40.69 7.77,-60.71 11.16,-44.79 36.35,-86.44 72.04,-115.91 13.12,-11.73 29.34,-19.02 45.24,-26.16 36.18,-13.67 75.65,-12.32 113.68,-11.34 25.02,0.72 50.04,1.13 75.08,0.69zm-268.11 -629.07c169.33,0 338.65,0 507.98,0 0,75.59 0,151.17 0,226.76 -28.95,0.07 -57.89,-0.08 -86.82,0.08 32.97,144.91 65.97,289.8 98.89,434.72 -13.61,-6.89 -27.91,-12.44 -40.69,-20.86 -33.68,-149.74 -68.23,-299.28 -102.01,-448.99 31.87,0.02 63.73,0.05 95.6,-0.01 -0.04,-52.22 0,-104.43 -0.02,-156.65 -145.96,-0.02 -291.92,-0.02 -437.88,0 -0.05,52.18 0.1,104.36 -0.09,156.55 30.3,0.3 60.6,0.06 90.9,0.11 -32.3,156.26 -65.33,312.36 -97.58,468.63 -9.31,7.57 -18.95,14.89 -26.9,23.96 -7.05,8.23 -13.5,16.94 -19.59,25.91 12.82,-63.71 26.6,-127.22 39.8,-190.87 20.27,-97.55 41.21,-194.98 61.07,-292.61 -27.56,0.1 -55.1,0.03 -82.66,0.03 0,-75.59 0,-151.17 0,-226.76zm175.53 527.26c23.09,-105.98 45.54,-212.1 68.66,-318.08 21.74,105.95 42.4,212.11 63.91,318.1 -44.18,0.11 -88.38,0.14 -132.57,-0.02zm62.96 -109.23l0 0c-5.04,23.66 -10.35,47.27 -15.16,70.98 12.6,0 25.22,0.04 37.83,-0.03 -5.9,-30.08 -12.07,-60.12 -17.94,-90.2 -2.43,6.19 -3.25,12.8 -4.73,19.25zm68.39 702.54c20.83,-7.37 45.12,-6.89 64.57,4.24 0.02,-2.34 0.02,-4.65 0.05,-6.94 18.42,-0.07 36.86,-0.17 55.3,0.04 -0.08,24.83 -0.08,49.63 0,74.45 -18.11,0.15 -36.22,0.04 -54.31,0.07 -0.88,-6.53 -1.35,-13.59 -5.53,-18.98 -8.29,-10.71 -25.81,-13.59 -36.61,-5.25 -3.71,5.72 2.92,10.87 7.72,12.95 23.58,11.38 49.63,17.56 71.79,31.91 13.89,9.25 24.64,23.78 27.54,40.41 2.78,17.28 0.05,36.28 -10.95,50.37 -10.47,13.08 -26.19,21.03 -42.27,24.82 -20.85,4.49 -43.84,3.26 -62.57,-7.74 -0.03,2.66 -0.05,5.35 -0.08,8.04 -18.44,-0.28 -36.9,0.31 -55.34,-0.32 0.4,-27.26 0.05,-54.52 0.18,-81.79 18.25,0.02 36.5,-0.04 54.76,0.04 0.46,9.07 0.12,19.46 6.94,26.49 9.04,9.07 25.34,12.68 36.02,4.46 5.51,-3.77 6.25,-12.56 1.29,-17.06 -6.76,-5.94 -15.31,-9.29 -23.45,-12.84 -15.34,-6.2 -30.66,-12.6 -45.08,-20.78 -10.24,-5.85 -20.4,-12.96 -26.25,-23.52 -8.33,-15.04 -8.43,-33.82 -2.23,-49.64 6.68,-16.51 22.28,-27.46 38.51,-33.43zm-18.69 20.38l0 0c-20.76,17.62 -21.22,55.57 1.75,71.58 11.56,8.41 24.64,14.45 37.69,20.21 13.22,5.82 27.23,10.27 39.38,18.3 6.24,4.11 11.14,11.24 10.29,19 -0.33,9.31 -8.32,16.41 -16.57,19.38 -13.08,4.13 -27.99,0.15 -37.97,-9.07 -6.87,-6.35 -9.32,-15.88 -10.07,-24.89 -12.54,0.09 -25.09,0.05 -37.62,0.02 -0.15,21.56 0.03,43.11 -0.1,64.67 12.51,0.21 25.05,0.05 37.57,0.1 0,-5.84 -0.02,-11.66 0.05,-17.48 8.44,7.53 17.73,14.74 29.04,17.23 23.27,5.53 49.33,1.81 68.86,-12.48 8.81,-6.35 14.97,-16.04 17.48,-26.57 3.81,-16.08 1.91,-34.42 -8.74,-47.59 -8.17,-11.01 -20.55,-17.66 -32.84,-23.07 -17.58,-8.28 -36.55,-13.29 -53.81,-22.3 -6.44,-3.23 -12.22,-9.41 -12.14,-17 0.43,-6.73 6,-11.84 12.05,-14 10.64,-3.81 23.19,-2.73 32.73,3.51 8.32,4.96 13.34,13.9 14.97,23.29 12.67,-0.13 25.35,0.19 38.02,-0.18 -0.27,-19.05 -0.04,-38.1 -0.12,-57.15 -12.62,-0.04 -25.23,0.06 -37.83,-0.07 -0.14,5.49 -0.14,10.97 -0.1,16.46 -5.46,-4.7 -10.81,-9.76 -17.44,-12.8 -24.14,-10.85 -54.32,-6.03 -74.53,10.9zm-657.25 -23.05c46.87,-0.23 93.75,-0.03 140.6,-0.1 0.03,16.08 0.05,32.16 0,48.24 -7.72,0 -15.45,0 -23.17,0 11.97,38.23 23.5,76.61 35.79,114.72 8.18,-0.16 16.36,-0.11 24.52,-0.06 -0.05,16.08 0.09,32.16 -0.06,48.26 -33.5,-0.1 -67,-0.07 -100.49,-0.02 -0.12,-16.1 -0.02,-32.18 -0.05,-48.27 4.42,-0.02 8.82,0.01 13.24,0.06 -1.4,-6.3 -3.13,-12.5 -4.91,-18.69 -12.74,0.1 -25.47,0.1 -38.18,0 -2.02,6.19 -3.83,12.42 -5.74,18.64 4.65,-0.01 9.31,-0.03 13.97,-0.13 0.36,16.13 0.16,32.28 0.09,48.41 -30.42,-0.09 -60.87,-0.12 -91.32,0.03 -0.29,-16.12 -0.06,-32.21 -0.11,-48.32 8.61,-0.02 17.23,0.06 25.84,-0.07 10.84,-38.23 22.07,-76.33 32.89,-114.56 -7.64,0 -15.27,0.03 -22.93,-0.07 0.09,-16.03 0.09,-32.04 0.02,-48.07zm8.58 8.72l0 0c0.23,10.24 0.08,20.49 0.1,30.74 8.59,0.05 17.2,-0.01 25.79,0.05 -12.73,43.97 -25.33,87.98 -38.08,131.93 -7.85,-0.03 -15.72,-0.02 -23.57,-0.02 -0.02,10.29 0,20.6 0,30.91 24.67,0.12 49.35,-0.16 74,0.15 0.43,-10.36 0.19,-20.73 0.15,-31.11 -5.67,0.05 -11.34,0.05 -17.02,0.04 3.55,-11.98 7.22,-23.9 10.84,-35.84 17.12,-0.03 34.24,-0.02 51.37,-0.02 3.22,11.98 6.52,23.95 9.65,35.96 -5.24,-0.05 -10.49,-0.32 -15.73,0 -0.75,10.2 0.01,20.46 -0.38,30.69 27.8,0.28 55.63,0.16 83.45,0.06 -0.15,-10.3 0.03,-20.59 -0.13,-30.89 -7.47,0.07 -14.93,0.05 -22.38,0.04 -13.56,-44.02 -27.4,-87.94 -40.9,-131.98 8.75,0.08 17.49,0.08 26.25,0.02 -0.03,-10.31 0,-20.6 -0.01,-30.89 -41.14,0.11 -82.27,-0.23 -123.4,0.16zm183.61 -8.8c40.28,-0.02 80.53,-0.04 120.79,0 0,16.08 0,32.14 0,48.22 -9.35,0 -18.68,0 -28.03,0 0.06,38.23 -0.15,76.48 0.11,114.71 16.94,-0.12 33.89,-0.18 50.85,0.03 0.35,-11.45 0.08,-22.89 0.16,-34.32 17.6,-0.03 35.18,-0.02 52.78,0 -0.03,27.49 0.07,54.99 -0.05,82.48 -65.1,-0.03 -130.18,-0.12 -195.26,0.05 -0.31,-16.1 -0.01,-32.18 -0.16,-48.26 8.81,-0.13 17.61,-0.05 26.42,-0.06 0,-38.22 0.02,-76.42 -0.02,-114.63 -9.2,0 -18.39,0 -27.59,0 -0.02,-16.08 -0.03,-32.16 0,-48.22zm9.01 8.7l0 0c0.08,10.28 0.01,20.57 0.05,30.86 8.98,-0.03 17.99,0.1 26.98,-0.11 0.54,44 0.06,88.02 0.23,132.04 -9.09,0.06 -18.19,-0.12 -27.28,0.13 0.08,10.22 0.12,20.45 -0.02,30.68 59.62,0.38 119.26,-0.09 178.88,0.23 0.35,-21.61 0.07,-43.23 0.15,-64.84 -11.82,0 -23.65,-0.01 -35.46,0 -0.01,11.27 0.02,22.55 -0.03,33.81 -22.78,0 -45.57,-0.03 -68.35,0.02 -0.13,-43.99 -0.03,-87.97 -0.05,-131.94 9.34,-0.02 18.69,-0.02 28.03,-0.02 0.01,-10.29 -0.05,-20.58 0.04,-30.86 -34.38,-0.11 -68.79,-0.1 -103.17,0zm240.43 -8.7c46.85,-0.02 93.73,-0.02 140.58,0 0.02,16.08 0.02,32.14 0,48.22 -7.75,0 -15.52,-0.07 -23.27,0.1 11.91,38.13 23.77,76.3 35.58,114.46 8.18,0.1 16.37,0.16 24.57,-0.08 0.56,16.11 0.1,32.26 0.25,48.39 -33.48,0.05 -66.96,-0.1 -100.43,0.06 -0.43,-16.05 -0.01,-32.09 -0.23,-48.14 4.44,-0.16 8.87,-0.2 13.31,-0.15 -1.5,-6.25 -3.2,-12.42 -4.95,-18.59 -12.79,0.04 -25.58,-0.03 -38.38,0.05 -1.79,6.19 -3.69,12.34 -5.54,18.53 4.75,-0.05 9.52,-0.02 14.27,0.16 -0.23,16.03 -0.05,32.04 -0.1,48.06 -30.51,0.03 -61.02,0 -91.52,0.02 0.1,-16.12 -0.26,-32.25 0.2,-48.36 8.44,0.23 16.9,0 25.37,0.23 11.26,-38.13 22,-76.43 33.18,-114.57 -7.62,-0.27 -15.26,-0.17 -22.89,-0.17 0,-16.08 0,-32.14 0,-48.22zm8.61 8.69l0 0c0.08,10.29 0.03,20.58 0.03,30.87 8.51,0 17,0.05 25.51,-0.06 -12.1,44.13 -25.28,88 -37.83,132.04 -7.85,-0.07 -15.68,-0.04 -23.54,-0.04 0,10.31 -0.01,20.62 0,30.93 24.74,0 49.48,0 74.22,0 0,-10.31 0,-20.62 0,-30.93 -5.74,-0.01 -11.48,-0.01 -17.22,0 3.76,-11.94 7.13,-24.01 11.04,-35.92 17.1,0.13 34.2,-0.05 51.31,0.1 3.15,11.94 6.41,23.85 9.63,35.79 -5.33,0.03 -10.67,0.03 -16,0.03 0,10.31 0,20.62 0,30.93 27.76,0 55.51,0 83.29,0 0,-10.31 0,-20.62 0,-30.93 -7.49,-0.01 -14.96,-0.01 -22.43,0 -13.72,-43.95 -27.35,-87.94 -41.04,-131.91 8.78,-0.05 17.55,-0.05 26.33,0 0.06,-10.32 0.01,-20.64 0.03,-30.95 -41.12,0.03 -82.22,-0.07 -123.33,0.05zm382.27 -8.69c34.52,0.06 69.03,-0.19 103.54,0.11 -0.1,16.02 -0.08,32.01 0,48.03 -4.18,0.05 -8.33,0.1 -12.49,0.18 0.17,11.76 -0.03,23.52 0.12,35.29 13.08,-11.05 24.9,-23.53 37.39,-35.24l-4.01 -0.17c-0.05,-16.08 -0.05,-32.16 0,-48.22 33.93,0.02 67.87,-0.02 101.79,0.02 0.02,16.06 0,32.14 0,48.22 -9.4,0 -18.82,0 -28.22,0 -15.71,15.59 -31.2,31.42 -47.03,46.87 18.5,22.81 37.75,45.01 56.38,67.71 8.09,0.08 16.17,0.01 24.25,0.08 -0.1,16.09 0.18,32.19 -0.15,48.29 -35.74,-0.36 -71.48,0.3 -107.2,-0.33 0.51,-15.24 -0.27,-30.51 0.34,-45.72 0.35,-0.82 1.03,-2.49 1.36,-3.31 -11.63,-13.81 -22.93,-27.93 -34.97,-41.38 0.03,14.15 -0.05,28.31 0.05,42.48 4.03,-0.06 8.05,-0.13 12.09,-0.21 0.56,16.11 0.08,32.24 0.25,48.37 -34.47,0.07 -68.93,-0.08 -103.39,0.08 -0.25,-16.06 0.03,-32.14 -0.17,-48.21 8.61,-0.18 17.2,-0.18 25.81,0.05 0.59,-38.21 -0.02,-76.46 0.3,-114.69 -8.68,-0.16 -17.37,-0.06 -26.04,-0.08 0,-16.08 0,-32.16 0,-48.22zm8.62 8.67l0 0c0.05,10.29 0.02,20.58 0.02,30.89 8.66,0 17.33,0 25.99,0.02 0,43.97 -0.02,87.94 0,131.91 -8.64,0.01 -17.28,0.03 -25.91,-0.02 -0.08,10.34 -0.21,20.7 0.08,31.06 28.67,-0.22 57.35,-0.04 86.01,-0.1 0.04,-10.31 0.02,-20.64 0.02,-30.94 -4.12,0 -8.23,0.01 -12.32,0.05 -0.1,-43.99 -0.03,-87.98 -0.05,-131.96 4.12,-0.02 8.25,-0.04 12.39,-0.04 0,-10.25 -0.1,-20.51 0.08,-30.77 -28.78,-0.28 -57.54,-0.1 -86.31,-0.1zm124.56 -0.03l0 0c-0.02,10.29 0,20.6 -0.02,30.9 5.62,0.04 11.26,0 16.89,0.04 -21.08,20.56 -42.52,40.79 -63.78,61.19 19.56,23.73 39.58,47.07 59.13,70.8 -4.08,-0.05 -8.15,-0.08 -12.21,-0.08 -0.05,10.27 0.03,20.55 -0.06,30.84 30,0.13 60,0.21 90,-0.03 -0.14,-10.28 -0.05,-20.54 -0.07,-30.8 -6.55,0 -13.08,0.05 -19.61,-0.13 -21.13,-25.71 -42.86,-50.91 -63.91,-76.67 18.51,-18.24 36.81,-36.7 55.17,-55.11 7.65,-0.06 15.31,-0.03 22.97,-0.01 0.04,-10.31 0,-20.63 0.02,-30.94 -28.17,0 -56.36,0 -84.52,0zm150.49 -8.64c46.86,-0.02 93.73,-0.02 140.59,0 0.01,16.06 0,32.14 0.01,48.22 -7.78,0 -15.57,-0.08 -23.34,0.12 11.96,38.13 23.72,76.32 35.6,114.49 8.21,0.02 16.42,0.1 24.65,-0.1 0.45,16.11 0.09,32.24 0.18,48.36 -33.48,0.03 -66.96,-0.09 -100.45,0.05 -0.33,-16.04 0.03,-32.08 -0.2,-48.11 4.42,-0.2 8.84,-0.23 13.29,-0.15 -1.61,-6.22 -3.25,-12.4 -4.96,-18.57 -12.8,-0.02 -25.6,-0.09 -38.4,0.03 -1.83,6.17 -3.72,12.32 -5.52,18.49 4.76,-0.03 9.55,0 14.31,0.2 -0.24,16.01 -0.03,32.04 -0.11,48.06 -30.5,-0.02 -61.01,0 -91.52,0 0.12,-16.13 -0.25,-32.25 0.2,-48.36 8.43,0.21 16.87,0.03 25.31,0.2 11.4,-38.1 21.99,-76.45 33.25,-114.58 -7.63,-0.21 -15.27,-0.13 -22.89,-0.13 0,-16.08 0,-32.16 0,-48.22zm8.61 8.69l0 0c0.08,10.29 0.02,20.58 0.05,30.89 8.54,-0.02 17.09,-0.02 25.63,-0.02 -12.58,44 -25.33,87.97 -38.05,131.94 -7.82,-0.01 -15.63,0 -23.43,0 -0.04,10.31 -0.04,20.62 -0.02,30.93 24.74,0 49.48,0 74.22,0 0,-10.31 0,-20.62 0,-30.93 -5.76,-0.01 -11.5,-0.01 -17.22,0 3.46,-11.92 7.37,-23.71 10.62,-35.7 17.2,-0.37 34.42,-0.1 51.65,-0.13 3.11,11.95 6.42,23.88 9.67,35.82 -5.33,0 -10.65,0 -15.97,0.01 0,10.31 0,20.62 0,30.93 27.76,0 55.52,0 83.29,0 0,-10.31 0.02,-20.62 -0.01,-30.93 -7.48,0 -14.93,-0.05 -22.38,0.07 -13.92,-43.94 -27.35,-88.02 -41.14,-131.99 8.79,-0.02 17.58,-0.04 26.39,0.01 0.05,-10.32 0.02,-20.64 0.03,-30.95 -41.11,0.03 -82.21,-0.07 -123.33,0.05zm-1075.89 100.16c6.27,-20.88 11.68,-42.07 18.8,-62.66 5.83,20.83 11.35,41.74 17.16,62.58 -11.98,0.14 -23.97,0 -35.96,0.08zm18.13 -31.14l0 0c-2.33,7.42 -4.42,14.91 -6.62,22.38 4.36,0.07 8.71,0.1 13.07,0.15 -2.12,-7.52 -3.7,-15.21 -6.45,-22.53zm441.86 -31.58c6.43,20.71 11.84,41.76 17.28,62.75 -11.94,-0.2 -23.88,0.15 -35.81,-0.21 6.34,-20.8 12.16,-41.76 18.53,-62.54zm-0.38 31.23l0 0c-2.08,7.61 -4.41,15.16 -6.49,22.78 4.34,0.02 8.68,0.03 13.02,0.05 -2.13,-7.62 -3.83,-15.39 -6.53,-22.83zm667.92 22.8l0 0c4.37,0 8.74,0.01 13.11,0.05 -2.08,-7.56 -3.89,-15.18 -6.27,-22.63 -2.62,7.4 -4.58,15.04 -6.84,22.58z"/>
   <path class="fil1" d="M1003.15 1184.12c17.68,-19.76 44.66,-29.89 70.92,-29.36 8.35,-0.17 16.51,2.03 24.84,1.86 26.98,-0.15 53.96,0.1 80.95,-0.11 0.46,35.29 -0.02,70.62 0.23,105.93 -4.54,0.12 -9.07,0.12 -13.59,0.12 15.78,14.49 25.3,35.29 25.13,56.82 6.72,0.09 13.43,0.09 20.14,0.08 0.05,-27.74 -0.05,-55.47 0.05,-83.21 -8.81,-0.16 -17.61,-0.05 -26.42,-0.1 0,-26.39 -0.02,-52.76 0.01,-79.15 85.75,0 171.51,-0.01 257.27,0 0.02,26.39 0,52.78 0,79.17 -12.22,-0.03 -24.42,0.1 -36.62,-0.08 -11.1,10.67 -21.82,21.73 -32.78,32.57 14.2,16.9 28.36,33.84 42.55,50.75 15.72,0.1 31.44,0.05 47.16,0.01 7.63,-27.82 16.47,-55.35 23.58,-83.3 -5.84,0.05 -11.67,0.07 -17.5,0.03 0,-26.39 -0.01,-52.76 0,-79.15 57.18,0 114.35,0 171.53,0 0.02,26.39 0,52.78 0,79.17 -5.79,0.02 -11.56,0 -17.34,-0.07 8.12,27.84 17.4,55.34 25.54,83.16 9.63,0.38 19.26,0.12 28.91,0.2 0,26.38 0,52.77 0,79.16 -164.11,0 -328.21,0 -492.31,0 0.01,-15.37 -0.08,-30.72 0.06,-46.08 -8.61,19.92 -26.6,34.24 -46.64,41.63 -16.92,6.25 -35.41,8.11 -53.29,5.89 -15.2,-2.72 -30.71,-0.94 -46.04,-1.44 -240.7,-0.05 -481.38,0.09 -722.07,-0.06 0.08,-26.36 0.05,-52.72 0.01,-79.05 9.78,-0.1 19.58,-0.05 29.38,-0.05 8.1,-27.74 16.14,-55.48 24.01,-83.29 -5.84,-0.43 -12.12,0.94 -17.73,-0.65 -0.41,-26.15 -0.03,-52.33 -0.16,-78.5 57.21,0.07 114.42,-0.23 171.64,0.15 -0.18,26.27 -0.18,52.54 0,78.83 -5.83,0.22 -11.65,0.22 -17.45,0.12 8.52,27.81 17.2,55.56 25.84,83.34 13.38,0 26.75,0 40.13,0 0.06,-27.71 -0.08,-55.4 0.08,-83.11 -9.22,-0.38 -18.46,-0.12 -27.68,-0.18 -0.03,-26.39 -0.01,-52.78 -0.01,-79.17 50.58,0 101.15,-0.01 151.73,0 0.02,26.39 0,52.76 0,79.15 -9.46,0.02 -18.93,0.04 -28.4,-0.01 -0.15,27.75 0.03,55.49 -0.08,83.25 6.78,0.1 13.57,0.17 20.37,-0.15 -0.28,-11.2 -0.08,-22.39 -0.13,-33.59 28.03,0 56.07,-0.02 84.11,0.01 -0.05,11.19 0.15,22.38 -0.15,33.58 5.2,0.25 10.37,0.27 15.57,0.17 7.87,-27.69 15.95,-55.34 23.87,-83.01 -5.94,-0.33 -11.9,-0.3 -17.85,-0.21 -0.02,-26.39 0,-52.78 0,-79.17 57.18,-0.03 114.36,-0.03 171.54,0 -0.03,26.39 0,52.76 -0.02,79.15 -5.78,0.02 -11.56,0 -17.33,-0.08 8.28,27.82 17.35,55.41 25.63,83.24 4.65,0.11 9.3,0.14 13.97,0.14 0.08,-11.31 -0.18,-22.64 0.16,-33.94 7.72,0.15 15.44,0.13 23.18,0.1 -11.29,-9.58 -20.37,-22.15 -23.49,-36.81 -4.96,-22.25 -0.53,-47.45 14.99,-64.7zm541.84 88.32c2.26,-7.54 4.22,-15.18 6.84,-22.58 2.38,7.45 4.19,15.07 6.27,22.63 -4.37,-0.04 -8.74,-0.05 -13.11,-0.05zm-667.92 -22.8c2.7,7.44 4.4,15.21 6.53,22.83 -4.34,-0.02 -8.68,-0.03 -13.02,-0.05 2.08,-7.62 4.41,-15.17 6.49,-22.78zm-441.48 0.35c2.75,7.32 4.33,15.01 6.45,22.53 -4.36,-0.05 -8.71,-0.08 -13.07,-0.15 2.2,-7.47 4.29,-14.96 6.62,-22.38zm540.52 -777.5c1.48,-6.45 2.3,-13.06 4.73,-19.25 5.87,30.08 12.04,60.12 17.94,90.2 -12.61,0.07 -25.23,0.03 -37.83,0.03 4.81,-23.71 10.12,-47.32 15.16,-70.98zm-305.4 -472.29c153.17,-0.38 306.32,-0.07 459.47,-0.16 60.79,0.14 121.59,-0.3 182.36,0.23 -0.31,115.76 -0.1,231.52 -0.11,347.3 -22.45,0.15 -44.91,0 -67.38,0.07 28.45,129.2 57.03,258.36 85.65,387.51 -24.52,-5.59 -48.95,-11.76 -73.03,-19.08l0 -0.05c-32.92,-144.92 -65.92,-289.81 -98.89,-434.72 28.93,-0.16 57.87,-0.01 86.82,-0.08 0,-75.59 0,-151.17 0,-226.76 -169.33,0 -338.65,0 -507.98,0 0,75.59 0,151.17 0,226.76 27.56,0 55.1,0.07 82.66,-0.03 -19.86,97.63 -40.8,195.06 -61.07,292.61 -13.2,63.65 -26.98,127.16 -39.8,190.87 -8.67,13 -16.08,26.77 -22.13,41.17 -6.14,11.87 -7.79,25.28 -10.34,38.23 -24.78,0.03 -49.53,-0.13 -74.3,0.08 0.08,74.98 0.1,149.94 0,224.9 9.78,0.28 19.57,0.03 29.35,0.11 23.56,0.76 47.72,7.03 70.84,-0.2 59.47,0.47 118.95,0.14 178.42,0.17 28.27,3.55 56.87,-2.79 85.12,1.65 6.32,1.35 13,0.73 19.03,-1.5 4.37,-2.34 2.85,-8.4 0.99,-11.94 -5.71,-9.53 -16.39,-14.27 -26.19,-18.47 -10.18,-4.82 -20.76,-12.31 -23.29,-23.98 -2.41,-11.47 -2.01,-23.46 0.25,-34.92 3.36,-18.74 4.85,-37.74 7.03,-56.62 1.3,-10.72 5.22,-21.79 14.2,-28.45 9,0.68 17.87,2.49 26.91,2.94 4.97,8.98 9.67,18.42 10.67,28.81 1.45,15.44 3.75,30.86 3.37,46.41 -0.12,10.8 0.58,21.59 2.01,32.31 -0.78,21.24 -0.18,42.53 -0.35,63.79 18.46,-0.01 36.91,0.12 55.37,-0.11 26.09,5.51 53.42,5.16 79.5,-0.28 39.25,0.92 78.53,0.15 117.8,0.41 37.28,-0.03 74.55,0.03 111.81,-0.03 -0.02,-63.81 0,-127.61 0,-191.42 21.67,5.34 44.12,6.91 66.38,6.32 -0.08,83.86 0.18,167.75 -0.13,251.61 -184.13,-0.21 -368.24,-0.03 -552.36,-0.1 -114.39,0.08 -228.77,-0.15 -343.17,0.12 -0.74,-28.32 -0.09,-56.65 -0.31,-84.99 0.1,-91.15 -0.2,-182.33 0.13,-273.5 34.18,0.1 68.35,0.1 102.5,0 29.91,-143.21 60.09,-286.36 89.99,-429.57 -22.56,-0.02 -45.14,0.07 -67.72,-0.03 0,-115.8 0.15,-231.59 -0.08,-347.39zm373.79 1174.83l0 0c-16.23,5.97 -31.83,16.92 -38.51,33.43 -6.2,15.82 -6.1,34.6 2.23,49.64 5.85,10.56 16.01,17.67 26.25,23.52 14.42,8.18 29.74,14.58 45.08,20.78 8.14,3.55 16.69,6.9 23.45,12.84 4.96,4.5 4.22,13.29 -1.29,17.06 -10.68,8.22 -26.98,4.61 -36.02,-4.46 -6.82,-7.03 -6.48,-17.42 -6.94,-26.49 -18.26,-0.08 -36.51,-0.02 -54.76,-0.04 -0.13,27.27 0.22,54.53 -0.18,81.79 18.44,0.63 36.9,0.04 55.34,0.32 0.03,-2.69 0.05,-5.38 0.08,-8.04 18.73,11 41.72,12.23 62.57,7.74 16.08,-3.79 31.8,-11.74 42.27,-24.82 11,-14.09 13.73,-33.09 10.95,-50.37 -2.9,-16.63 -13.65,-31.16 -27.54,-40.41 -22.16,-14.35 -48.21,-20.53 -71.79,-31.91 -4.8,-2.08 -11.43,-7.23 -7.72,-12.95 10.8,-8.34 28.32,-5.46 36.61,5.25 4.18,5.39 4.65,12.45 5.53,18.98 18.09,-0.03 36.2,0.08 54.31,-0.07 -0.08,-24.82 -0.08,-49.62 0,-74.45 -18.44,-0.21 -36.88,-0.11 -55.3,-0.04 -0.03,2.29 -0.03,4.6 -0.05,6.94 -19.45,-11.13 -43.74,-11.61 -64.57,-4.24zm-675.94 -2.67l0 0c0.07,16.03 0.07,32.04 -0.02,48.07 7.66,0.1 15.29,0.07 22.93,0.07 -10.82,38.23 -22.05,76.33 -32.89,114.56 -8.61,0.13 -17.23,0.05 -25.84,0.07 0.05,16.11 -0.18,32.2 0.11,48.32 30.45,-0.15 60.9,-0.12 91.32,-0.03 0.07,-16.13 0.27,-32.28 -0.09,-48.41 -4.66,0.1 -9.32,0.12 -13.97,0.13 1.91,-6.22 3.72,-12.45 5.74,-18.64 12.71,0.1 25.44,0.1 38.18,0 1.78,6.19 3.51,12.39 4.91,18.69 -4.42,-0.05 -8.82,-0.08 -13.24,-0.06 0.03,16.09 -0.07,32.17 0.05,48.27 33.49,-0.05 66.99,-0.08 100.49,0.02 0.15,-16.1 0.01,-32.18 0.06,-48.26 -8.16,-0.05 -16.34,-0.1 -24.52,0.06 -12.29,-38.11 -23.82,-76.49 -35.79,-114.72 7.72,0 15.45,0 23.17,0 0.05,-16.08 0.03,-32.16 0,-48.24 -46.85,0.07 -93.73,-0.13 -140.6,0.1zm192.19 -0.08l0 0c-0.03,16.06 -0.02,32.14 0,48.22 9.2,0 18.39,0 27.59,0 0.04,38.21 0.02,76.41 0.02,114.63 -8.81,0.01 -17.61,-0.07 -26.42,0.06 0.15,16.08 -0.15,32.16 0.16,48.26 65.08,-0.17 130.16,-0.08 195.26,-0.05 0.12,-27.49 0.02,-54.99 0.05,-82.48 -17.6,-0.02 -35.18,-0.03 -52.78,0 -0.08,11.43 0.19,22.87 -0.16,34.32 -16.96,-0.21 -33.91,-0.15 -50.85,-0.03 -0.26,-38.23 -0.05,-76.48 -0.11,-114.71 9.35,0 18.68,0 28.03,0 0,-16.08 0,-32.14 0,-48.22 -40.26,-0.04 -80.51,-0.02 -120.79,0zm249.44 0l0 0c0,16.08 0,32.14 0,48.22 7.63,0 15.27,-0.1 22.89,0.17 -11.18,38.14 -21.92,76.44 -33.18,114.57 -8.47,-0.23 -16.93,0 -25.37,-0.23 -0.46,16.11 -0.1,32.24 -0.2,48.36 30.5,-0.02 61.01,0.01 91.52,-0.02 0.05,-16.02 -0.13,-32.03 0.1,-48.06 -4.75,-0.18 -9.52,-0.21 -14.27,-0.16 1.85,-6.19 3.75,-12.34 5.54,-18.53 12.8,-0.08 25.59,-0.01 38.38,-0.05 1.75,6.17 3.45,12.34 4.95,18.59 -4.44,-0.05 -8.87,-0.01 -13.31,0.15 0.22,16.05 -0.2,32.09 0.23,48.14 33.47,-0.16 66.95,-0.01 100.43,-0.06 -0.15,-16.13 0.31,-32.28 -0.25,-48.39 -8.2,0.24 -16.39,0.18 -24.57,0.08 -11.81,-38.16 -23.67,-76.33 -35.58,-114.46 7.75,-0.17 15.52,-0.1 23.27,-0.1 0.02,-16.08 0.02,-32.14 0,-48.22 -46.85,-0.02 -93.73,-0.02 -140.58,0zm390.88 0l0 0c0,16.06 0,32.14 0,48.22 8.67,0.02 17.36,-0.08 26.04,0.08 -0.32,38.23 0.29,76.48 -0.3,114.69 -8.61,-0.23 -17.2,-0.23 -25.81,-0.05 0.2,16.07 -0.08,32.15 0.17,48.21 34.46,-0.16 68.92,-0.01 103.39,-0.08 -0.17,-16.13 0.31,-32.26 -0.25,-48.37 -4.04,0.08 -8.06,0.15 -12.09,0.21 -0.1,-14.17 -0.02,-28.33 -0.05,-42.48 12.04,13.45 23.34,27.57 34.97,41.38 -0.33,0.82 -1.01,2.49 -1.36,3.31 -0.61,15.21 0.17,30.48 -0.34,45.72 35.72,0.63 71.46,-0.03 107.2,0.33 0.33,-16.1 0.05,-32.2 0.15,-48.29 -8.08,-0.07 -16.16,0 -24.25,-0.08 -18.63,-22.7 -37.88,-44.9 -56.38,-67.71 15.83,-15.45 31.32,-31.28 47.03,-46.87 9.4,0 18.82,0 28.22,0 0,-16.08 0.02,-32.16 0,-48.22 -33.92,-0.04 -67.86,0 -101.79,-0.02 -0.05,16.06 -0.05,32.14 0,48.22l4.01 0.17c-12.49,11.71 -24.31,24.19 -37.39,35.24 -0.15,-11.77 0.05,-23.53 -0.12,-35.29 4.16,-0.08 8.31,-0.13 12.49,-0.18 -0.08,-16.02 -0.1,-32.01 0,-48.03 -34.51,-0.3 -69.02,-0.05 -103.54,-0.11zm283.67 0l0 0c0,16.06 0,32.14 0,48.22 7.62,0 15.26,-0.08 22.89,0.13 -11.26,38.13 -21.85,76.48 -33.25,114.58 -8.44,-0.17 -16.88,0.01 -25.31,-0.2 -0.45,16.11 -0.08,32.23 -0.2,48.36 30.51,0 61.02,-0.02 91.52,0 0.08,-16.02 -0.13,-32.05 0.11,-48.06 -4.76,-0.2 -9.55,-0.23 -14.31,-0.2 1.8,-6.17 3.69,-12.32 5.52,-18.49 12.8,-0.12 25.6,-0.05 38.4,-0.03 1.71,6.17 3.35,12.35 4.96,18.57 -4.45,-0.08 -8.87,-0.05 -13.29,0.15 0.23,16.03 -0.13,32.07 0.2,48.11 33.49,-0.14 66.97,-0.02 100.45,-0.05 -0.09,-16.12 0.27,-32.25 -0.18,-48.36 -8.23,0.2 -16.44,0.12 -24.65,0.1 -11.88,-38.17 -23.64,-76.36 -35.6,-114.49 7.77,-0.2 15.56,-0.12 23.34,-0.12 -0.01,-16.08 0,-32.16 -0.01,-48.22 -46.86,-0.02 -93.73,-0.02 -140.59,0z"/>
   <path class="fil2" d="M548.74 1446.01c0.14,-10.46 -0.14,-20.93 0.19,-31.39 39.81,0.18 79.61,0.03 119.42,0.08 -0.02,10.46 0.05,20.92 -0.05,31.37 -8.03,-0.06 -16.08,-0.01 -24.11,-0.05 12.42,40.21 25.43,80.24 37.98,120.42 7.21,-0.02 14.42,-0.02 21.64,0 0.05,10.37 -0.12,20.76 0.11,31.15 -29.96,0.46 -59.95,0 -89.93,0.23 -0.13,-10.45 -0.05,-20.93 -0.07,-31.38 7.71,-0.02 15.41,-0.02 23.11,0.01 -2.79,-10.34 -5.69,-20.63 -8.49,-30.94 -15.7,0.04 -31.39,-0.06 -47.07,0.05 -2.94,10.34 -6.4,20.54 -9.36,30.88 8.04,0 16.05,-0.02 24.08,0 -0.01,10.45 0.07,20.91 -0.06,31.36 -27.03,-0.03 -54.07,-0.08 -81.1,0.02 -0.13,-10.45 -0.05,-20.93 -0.06,-31.38 7.55,-0.02 15.09,0 22.64,-0.02 11.76,-40.13 23.65,-80.22 35.36,-120.36 -8.08,-0.04 -16.14,0.01 -24.23,-0.05zm898.07 -31.31c29.82,0 59.64,0 89.47,0 0.02,10.43 -0.02,20.87 0.02,31.31 -7.57,0.59 -15.59,-1.03 -22.89,0.7 -16.97,16.33 -33.83,32.81 -50.57,49.4 13.16,16.05 26.83,31.67 40.16,47.58 6.65,7.41 12.53,15.57 19.59,22.57 6.19,0.46 12.42,0.06 18.64,0.18 -0.02,10.44 0.05,20.89 -0.05,31.36 -32.67,-0.03 -65.34,-0.04 -98.03,0 -0.12,-10.45 -0.04,-20.91 -0.05,-31.36 6.86,-0.02 13.72,0.01 20.58,-0.02 -18.08,-21.87 -36.8,-43.18 -54.95,-64.95 19.89,-18.31 39.73,-36.68 59.21,-55.41 -7.05,-0.04 -14.09,-0.02 -21.13,-0.02 0,-10.46 0,-20.9 0,-31.34zm-111.34 31.32c0.08,-10.47 -0.14,-20.93 0.13,-31.38 31.81,0.11 63.63,0.08 95.46,0.01 0.2,10.46 0.01,20.9 0.11,31.36 -7.67,0.05 -15.34,0.06 -22.99,-0.02 -0.31,40.13 -0.01,80.27 -0.15,120.41 7.01,0.04 14.02,0.02 21.05,0.04 -0.05,10.45 0.13,20.93 -0.12,31.38 -31.2,-0.25 -62.41,0.23 -93.59,-0.23 0.23,-10.39 0.05,-20.78 0.13,-31.15 8.28,-0.07 16.56,0.16 24.85,-0.2 -0.31,-40.08 -0.01,-80.14 -0.15,-120.2 -8.26,0 -16.5,0.02 -24.73,-0.02zm-616.4 -31.32c25.56,-0.1 51.12,0.17 76.69,-0.13 22.59,37.54 44.49,75.47 66.92,113.09 0.63,-27.19 0.12,-54.41 0.28,-81.62 -7.98,0 -15.96,0.02 -23.93,-0.02 0.1,-10.47 -0.15,-20.93 0.15,-31.38 27.41,0.11 54.81,0.1 82.22,0.01 0.25,10.44 0.03,20.9 0.13,31.37 -8.66,0.04 -17.32,0 -25.98,0.02 0,50.98 -0.06,101.94 0.04,152.9 -13.64,0.15 -27.3,0.04 -40.94,0.07 -26.14,-44.78 -52.03,-89.71 -78.32,-134.38 0.1,33.92 0.05,67.85 0.03,101.77 7.69,0.05 15.39,0.02 23.09,0.04 -0.02,10.45 0.12,20.93 -0.08,31.4 -26.75,-0.13 -53.5,-0.05 -80.26,-0.04 -0.09,-10.47 -0.03,-20.91 -0.04,-31.36 8.14,-0.07 16.29,0.14 24.44,-0.2 -0.33,-40.06 0.08,-80.14 -0.22,-120.22 -8.08,0.04 -16.16,0.04 -24.24,-0.01 0.03,-10.44 0,-20.87 0.02,-31.31zm-396.26 31.32c0.1,-10.47 -0.15,-20.93 0.15,-31.38 25.56,0.16 51.13,0 76.71,0.08 22.33,37.52 44.11,75.37 66.74,112.73 -0.28,-27.15 0.08,-54.3 -0.2,-81.44 -7.8,0.05 -15.6,0.03 -23.42,0.03 0,-10.42 0.05,-20.83 -0.03,-31.24 27.36,-0.23 54.74,-0.05 82.1,-0.1 -0.01,10.46 0.05,20.92 -0.05,31.39 -8.46,-0.1 -16.92,0 -25.38,-0.1 -0.3,50.99 -0.03,102.01 -0.13,153.02 -13.61,0.05 -27.21,-0.08 -40.82,0.06 -16.26,-27.36 -32.05,-55.01 -48.16,-82.48 -10.09,-16.95 -19.43,-34.38 -30.1,-50.97 -0.18,33.59 -0.03,67.2 -0.07,100.82 7.56,-0.02 15.11,-0.02 22.67,0 -0.02,10.45 0.06,20.93 -0.07,31.38 -26.67,-0.21 -53.35,0.2 -80.02,-0.2 0.2,-10.4 0.05,-20.79 0.11,-31.18 8.08,0 16.18,-0.02 24.28,0.01 0.07,-40.14 0.02,-80.27 0.02,-120.39 -8.1,-0.04 -16.22,0 -24.33,-0.04zm1238.76 1.11c7.02,-27.33 41.37,-42.08 66.48,-30.05 5.6,2.6 9.96,7.14 14.21,11.53 -0.01,-4.66 -0.03,-9.29 -0.01,-13.91 10.44,-0.01 20.88,0 31.32,0 0.1,18.64 -0.12,37.28 0.13,55.91 -10.44,0.32 -20.88,0.17 -31.3,0.12 -1.13,-8.81 -4.82,-17.68 -12.47,-22.7 -8.74,-6.21 -23.29,-5.92 -29.62,3.57 -4.39,6.89 -0.52,15.98 5.9,20.09 14.42,9.53 31.29,14.43 46.02,23.43 13.78,7.23 25.23,19.89 28.63,35.36 3.26,15.18 2.16,31.93 -5.56,45.65 -12.88,20.93 -41.35,28.77 -63.99,20.83 -7.64,-2.6 -13.63,-8.14 -19.04,-13.9 0.07,4.9 0.09,9.81 0.07,14.73 -10.44,-0.03 -20.88,-0.02 -31.32,-0.02 -0.03,-20.86 0.05,-41.72 -0.05,-62.59 10.41,-0.05 20.83,-0.31 31.24,0.09 1.15,8.49 2.11,17.89 8.61,24.26 7.83,8.84 22.92,12.35 32.37,4.05 8.48,-6.68 9.27,-20.48 1.7,-28.13 -9.37,-9.12 -22.07,-13.31 -33.28,-19.55 -11.07,-6.1 -22.43,-12.25 -31.35,-21.37 -11.63,-12.59 -12.36,-31.5 -8.69,-47.4zm-227.32 -266.21c28.16,0 56.35,0 84.52,0 -0.02,10.31 0.02,20.63 -0.02,30.94 -7.66,-0.02 -15.32,-0.05 -22.97,0.01 -18.36,18.41 -36.66,36.87 -55.17,55.11 21.05,25.76 42.78,50.96 63.91,76.67 6.53,0.18 13.06,0.13 19.61,0.13 0.02,10.26 -0.07,20.52 0.07,30.8 -30,0.24 -60,0.16 -90,0.03 0.09,-10.29 0.01,-20.57 0.06,-30.84 4.06,0 8.13,0.03 12.21,0.08 -19.55,-23.73 -39.57,-47.07 -59.13,-70.8 21.26,-20.4 42.7,-40.63 63.78,-61.19 -5.63,-0.04 -11.27,0 -16.89,-0.04 0.02,-10.3 0,-20.61 0.02,-30.9zm-124.56 0.03c28.77,0 57.53,-0.18 86.31,0.1 -0.18,10.26 -0.08,20.52 -0.08,30.77 -4.14,0 -8.27,0.02 -12.39,0.04 0.02,43.98 -0.05,87.97 0.05,131.96 4.09,-0.04 8.2,-0.05 12.32,-0.05 0,10.3 0.02,20.63 -0.02,30.94 -28.66,0.06 -57.34,-0.12 -86.01,0.1 -0.29,-10.36 -0.16,-20.72 -0.08,-31.06 8.63,0.05 17.27,0.03 25.91,0.02 -0.02,-43.97 0,-87.94 0,-131.91 -8.66,-0.02 -17.33,-0.02 -25.99,-0.02 0,-10.31 0.03,-20.6 -0.02,-30.89zm-639.93 0.03c34.38,-0.1 68.79,-0.11 103.17,0 -0.09,10.28 -0.03,20.57 -0.04,30.86 -9.34,0 -18.69,0 -28.03,0.02 0.02,43.97 -0.08,87.95 0.05,131.94 22.78,-0.05 45.57,-0.02 68.35,-0.02 0.05,-11.26 0.02,-22.54 0.03,-33.81 11.81,-0.01 23.64,0 35.46,0 -0.08,21.61 0.2,43.23 -0.15,64.84 -59.62,-0.32 -119.26,0.15 -178.88,-0.23 0.14,-10.23 0.1,-20.46 0.02,-30.68 9.09,-0.25 18.19,-0.07 27.28,-0.13 -0.17,-44.02 0.31,-88.04 -0.23,-132.04 -8.99,0.21 -18,0.08 -26.98,0.11 -0.04,-10.29 0.03,-20.58 -0.05,-30.86zm456.05 14.43c20.21,-16.93 50.39,-21.75 74.53,-10.9 6.63,3.04 11.98,8.1 17.44,12.8 -0.04,-5.49 -0.04,-10.97 0.1,-16.46 12.6,0.13 25.21,0.03 37.83,0.07 0.08,19.05 -0.15,38.1 0.12,57.15 -12.67,0.37 -25.35,0.05 -38.02,0.18 -1.63,-9.39 -6.65,-18.33 -14.97,-23.29 -9.54,-6.24 -22.09,-7.32 -32.73,-3.51 -6.05,2.16 -11.62,7.27 -12.05,14 -0.08,7.59 5.7,13.77 12.14,17 17.26,9.01 36.23,14.02 53.81,22.3 12.29,5.41 24.67,12.06 32.84,23.07 10.65,13.17 12.55,31.51 8.74,47.59 -2.51,10.53 -8.67,20.22 -17.48,26.57 -19.53,14.29 -45.59,18.01 -68.86,12.48 -11.31,-2.49 -20.6,-9.7 -29.04,-17.23 -0.07,5.82 -0.05,11.64 -0.05,17.48 -12.52,-0.05 -25.06,0.11 -37.57,-0.1 0.13,-21.56 -0.05,-43.11 0.1,-64.67 12.53,0.03 25.08,0.07 37.62,-0.02 0.75,9.01 3.2,18.54 10.07,24.89 9.98,9.22 24.89,13.2 37.97,9.07 8.25,-2.97 16.24,-10.07 16.57,-19.38 0.85,-7.76 -4.05,-14.89 -10.29,-19 -12.15,-8.03 -26.16,-12.48 -39.38,-18.3 -13.05,-5.76 -26.13,-11.8 -37.69,-20.21 -22.97,-16.01 -22.51,-53.96 -1.75,-71.58zm-248.13 -249.96c12.47,-9.53 25.88,-20.32 42.19,-21.28 12.5,15.34 19.21,34.49 25.76,52.95 6.71,19.05 12.95,38.26 20.42,57.01 -56.39,0.07 -112.76,-0.11 -169.15,0.1 -1.42,-9.8 3.12,-19.51 8.82,-27.21 9.29,-11.07 20.52,-20.3 31.88,-29.14 13.74,-10.34 26.26,-22.19 40.08,-32.43zm329.96 -43.47c24.02,7.83 31.28,36.48 53.84,46.46 14.6,7.85 30.6,12.66 44.98,20.94 13.26,7.85 28.76,10.8 41.94,18.87 20.22,9.58 27.69,33.05 45.21,45.88 -62.38,0 -124.74,-0.01 -187.1,0.02 -2.06,-1.67 -4,-3.46 -5.95,-5.23 3.1,-35.52 -3.86,-71.15 0.72,-106.59 0.94,-7.11 3.68,-13.77 6.36,-20.35zm-459.96 51.22c0.2,-24.85 -0.13,-49.72 0.17,-74.58 11.74,0.13 23.5,0.02 35.26,0.1 -2.32,15.5 -3.5,32.11 -12.24,45.64 -7.34,9.92 -15.9,18.88 -23.19,28.84zm583.45 -88.6c8.15,0.98 16.36,0.56 24.49,-0.33 1.13,4.82 2.21,9.64 3.37,14.45 27.11,-0.11 54.23,0.07 81.34,-0.08 0.28,51.8 -0.03,103.61 0.15,155.43 -5.31,0.05 -10.62,0.06 -15.92,0.06 2.89,-9.58 2.53,-19.71 2.17,-29.57 -1.26,-17.42 -10.16,-32.9 -19.1,-47.45 -3.06,-5 -7.1,-9.35 -11.63,-13.04 -12.39,-10.07 -26.64,-17.4 -40.26,-25.59 -8.84,-5.19 -16.21,-12.68 -21.87,-21.19 -5.92,-9.78 -4.9,-21.93 -2.74,-32.69zm-458.46 -775.09c145.96,-0.02 291.92,-0.02 437.88,0 0.02,52.22 -0.02,104.43 0.02,156.65 -31.87,0.06 -63.73,0.03 -95.6,0.01 33.78,149.71 68.33,299.25 102.01,448.99 -23.3,-12.5 -46.05,-27.51 -72.27,-33.05 -12.82,-1.06 -25.88,-1.41 -38.64,0.13 -31.77,9.4 -65,11.49 -97.9,13.11 -35.78,1.53 -71.55,-1.3 -107.32,0.41 -20.52,0.96 -41.45,-0.3 -61.49,5.11 -13.6,4.04 -27.49,7.69 -40.22,14.09 -11.28,6.23 -23.08,11.79 -33.24,19.84 32.25,-156.27 65.28,-312.37 97.58,-468.63 -30.3,-0.05 -60.6,0.19 -90.9,-0.11 0.19,-52.19 0.04,-104.37 0.09,-156.55zm140.48 492.21l0 0c44.19,0.16 88.39,0.13 132.57,0.02 -21.51,-105.99 -42.17,-212.15 -63.91,-318.1 -23.12,105.98 -45.57,212.1 -68.66,318.08zm-536.01 599.36c41.13,-0.39 82.26,-0.05 123.4,-0.16 0.01,10.29 -0.02,20.58 0.01,30.89 -8.76,0.06 -17.5,0.06 -26.25,-0.02 13.5,44.04 27.34,87.96 40.9,131.98 7.45,0.01 14.91,0.03 22.38,-0.04 0.16,10.3 -0.02,20.59 0.13,30.89 -27.82,0.1 -55.65,0.22 -83.45,-0.06 0.39,-10.23 -0.37,-20.49 0.38,-30.69 5.24,-0.32 10.49,-0.05 15.73,0 -3.13,-12.01 -6.43,-23.98 -9.65,-35.96 -17.13,0 -34.25,-0.01 -51.37,0.02 -3.62,11.94 -7.29,23.86 -10.84,35.84 5.68,0.01 11.35,0.01 17.02,-0.04 0.04,10.38 0.28,20.75 -0.15,31.11 -24.65,-0.31 -49.33,-0.03 -74,-0.15 0,-10.31 -0.02,-20.62 0,-30.91 7.85,0 15.72,-0.01 23.57,0.02 12.75,-43.95 25.35,-87.96 38.08,-131.93 -8.59,-0.06 -17.2,0 -25.79,-0.05 -0.02,-10.25 0.13,-20.5 -0.1,-30.74zm40.32 100.05l0 0c11.99,-0.08 23.98,0.06 35.96,-0.08 -5.81,-20.84 -11.33,-41.75 -17.16,-62.58 -7.12,20.59 -12.53,41.78 -18.8,62.66zm401.34 -100.16c41.11,-0.12 82.21,-0.02 123.33,-0.05 -0.02,10.31 0.03,20.63 -0.03,30.95 -8.78,-0.05 -17.55,-0.05 -26.33,0 13.69,43.97 27.32,87.96 41.04,131.91 7.47,-0.01 14.94,-0.01 22.43,0 0,10.31 0,20.62 0,30.93 -27.78,0 -55.53,0 -83.29,0 0,-10.31 0,-20.62 0,-30.93 5.33,0 10.67,0 16,-0.03 -3.22,-11.94 -6.48,-23.85 -9.63,-35.79 -17.11,-0.15 -34.21,0.03 -51.31,-0.1 -3.91,11.91 -7.28,23.98 -11.04,35.92 5.74,-0.01 11.48,-0.01 17.22,0 0,10.31 0,20.62 0,30.93 -24.74,0 -49.48,0 -74.22,0 -0.01,-10.31 0,-20.62 0,-30.93 7.86,0 15.69,-0.03 23.54,0.04 12.55,-44.04 25.73,-87.91 37.83,-132.04 -8.51,0.11 -17,0.06 -25.51,0.06 0,-10.29 0.05,-20.58 -0.03,-30.87zm58.65 37.44l0 0c-6.37,20.78 -12.19,41.74 -18.53,62.54 11.93,0.36 23.87,0.01 35.81,0.21 -5.44,-20.99 -10.85,-42.04 -17.28,-62.75zm615.9 -37.44c41.12,-0.12 82.22,-0.02 123.33,-0.05 -0.01,10.31 0.02,20.63 -0.03,30.95 -8.81,-0.05 -17.6,-0.03 -26.39,-0.01 13.79,43.97 27.22,88.05 41.14,131.99 7.45,-0.12 14.9,-0.07 22.38,-0.07 0.03,10.31 0.01,20.62 0.01,30.93 -27.77,0 -55.53,0 -83.29,0 0,-10.31 0,-20.62 0,-30.93 5.32,-0.01 10.64,-0.01 15.97,-0.01 -3.25,-11.94 -6.56,-23.87 -9.67,-35.82 -17.23,0.03 -34.45,-0.24 -51.65,0.13 -3.25,11.99 -7.16,23.78 -10.62,35.7 5.72,-0.01 11.46,-0.01 17.22,0 0,10.31 0,20.62 0,30.93 -24.74,0 -49.48,0 -74.22,0 -0.02,-10.31 -0.02,-20.62 0.02,-30.93 7.8,0 15.61,-0.01 23.43,0 12.72,-43.97 25.47,-87.94 38.05,-131.94 -8.54,0 -17.09,0 -25.63,0.02 -0.03,-10.31 0.03,-20.6 -0.05,-30.89zm40.1 100.06l0 0c12,0.03 24.04,0.31 36.05,-0.15 -6.04,-20.8 -11.17,-41.84 -17.37,-62.57 -6.73,20.75 -12.3,41.86 -18.68,62.72zm-535.97 132.07c23.45,-2.88 48.19,-1.22 69.81,8.96 25.2,12.09 44.12,36.51 49.42,63.97 5.03,26.05 0.24,54.63 -16.05,75.97 -14.33,19.91 -37.16,32.8 -61.32,36.23 -23.03,3.24 -47.29,2.3 -69.02,-6.51 -20.52,-8.25 -36.6,-25.27 -46.17,-44.91 -10.26,-21.74 -11.51,-47.32 -4.65,-70.23 7.65,-24.46 26.08,-45.55 49.66,-55.74 9.01,-3.96 18.59,-6.45 28.32,-7.74zm6.46 34.29l0 0c-15.51,4.27 -28.17,16.92 -33.05,32.18 -4.55,14.25 -5.21,29.7 -2.42,44.38 2.88,15.16 12.3,29.09 25.78,36.78 15.25,8.41 35.11,7.34 49.41,-2.59 8.44,-6.05 15.42,-14.43 18.83,-24.34 4.84,-13.69 5.69,-28.67 3.4,-42.93 -2.34,-14.6 -9.93,-28.77 -22.25,-37.26 -11.39,-7.97 -26.42,-9.85 -39.7,-6.22zm211.34 -34.27c26.52,-3.31 55.06,-0.68 78.26,13.56 19.38,12.4 34.41,32.07 39.9,54.57 7.15,28.93 1.63,61.65 -18.01,84.62 -15.37,19.32 -39.12,30.6 -63.42,33.11 -27,2.73 -56.19,0.11 -79.21,-15.49 -21.56,-15.16 -36.4,-39.8 -39.09,-66.07 -2.57,-22.2 2.08,-45.54 14.79,-64.11 14.78,-22.66 40.03,-37.27 66.78,-40.19zm6.15 34.32l0 0c-16.5,4.65 -29.42,18.84 -33.67,35.31 -3.9,14.96 -4.44,31.06 -0.27,46.02 3.73,13.75 13.15,25.91 25.78,32.59 13.34,6.79 29.92,6.68 43.23,-0.18 10.92,-5.76 19.58,-15.62 23.76,-27.25 4.98,-13.74 5.56,-28.78 3.47,-43.13 -2.38,-14.66 -10.11,-28.71 -22.42,-37.31 -11.47,-7.88 -26.57,-9.76 -39.88,-6.05zm-631.44 60.88l0 0c10.31,-0.05 20.63,-0.02 30.94,-0.02 -4.93,-17.85 -9.97,-35.67 -14.76,-53.55 -5.77,17.74 -10.73,35.72 -16.18,53.57z"/>
   <path class="fil3" d="M1106.07 662.24c12.76,-1.54 25.82,-1.19 38.64,-0.13 26.22,5.54 48.97,20.55 72.27,33.05 12.78,8.42 27.08,13.97 40.69,20.86l0 0.05c24.08,7.32 48.51,13.49 73.03,19.08 33.22,6.98 67.01,14.6 96.71,31.68 8.3,5.64 16.55,11.85 22.62,19.94 4.65,8.09 6.61,17.72 12.83,24.92 8.67,8.1 18.15,15.34 28.25,21.58 4.22,3.28 8.18,7.57 9.38,12.94 -0.69,3.93 -2.52,7.59 -4.85,10.79 -8.14,7.98 -17.17,15.32 -27.75,19.82 -7.9,4.66 -16.81,7.36 -26.03,7.23 -22.26,0.59 -44.71,-0.98 -66.38,-6.32 -9.11,-2.41 -18.56,-3.71 -27.28,-7.4 -13.38,-5.35 -26.82,-11.85 -41.48,-12.23 -17.3,-0.92 -33.98,4.84 -51.1,6.17 -8.13,0.89 -16.34,1.31 -24.49,0.33 -2.16,10.76 -3.18,22.91 2.74,32.69 5.66,8.51 13.03,16 21.87,21.19 13.62,8.19 27.87,15.52 40.26,25.59 4.53,3.69 8.57,8.04 11.63,13.04 8.94,14.55 17.84,30.03 19.1,47.45 0.36,9.86 0.72,19.99 -2.17,29.57 -0.59,2.2 -1.2,4.39 -1.76,6.62 -10.08,1.56 -21,-0.37 -29.19,-6.62 -17.52,-12.83 -24.99,-36.3 -45.21,-45.88 -13.18,-8.07 -28.68,-11.02 -41.94,-18.87 -14.38,-8.28 -30.38,-13.09 -44.98,-20.94 -22.56,-9.98 -29.82,-38.63 -53.84,-46.46 -2.68,6.58 -5.42,13.24 -6.36,20.35 -4.58,35.44 2.38,71.07 -0.72,106.59 1.95,1.77 3.89,3.56 5.95,5.23 10.58,5.94 22.73,7.78 33.81,12.47 8.5,2.87 14.65,11.69 14.01,20.71 -2.86,0.45 -5.65,0.96 -8.46,1.44 -26.08,5.44 -53.41,5.79 -79.5,0.28 -15.34,-5.31 -31.12,-12.27 -41.69,-25.07 -7.95,-11.32 -11.07,-25.19 -13.33,-38.61 -1.43,-10.72 -2.13,-21.51 -2.01,-32.31 0.38,-15.55 -1.92,-30.97 -3.37,-46.41 -1,-10.39 -5.7,-19.83 -10.67,-28.81 -9.04,-0.45 -17.91,-2.26 -26.91,-2.94 -8.98,6.66 -12.9,17.73 -14.2,28.45 -2.18,18.88 -3.67,37.88 -7.03,56.62 -2.26,11.46 -2.66,23.45 -0.25,34.92 2.53,11.67 13.11,19.16 23.29,23.98 9.8,4.2 20.48,8.94 26.19,18.47 1.86,3.54 3.38,9.6 -0.99,11.94 -6.03,2.23 -12.71,2.85 -19.03,1.5 -28.25,-4.44 -56.85,1.9 -85.12,-1.65 -3.78,-1.78 -7.75,-3.63 -10.33,-7.06 -6.49,-8.39 -11.23,-17.99 -14.87,-27.94 -7.47,-18.75 -13.71,-37.96 -20.42,-57.01 -6.55,-18.46 -13.26,-37.61 -25.76,-52.95 -16.31,0.96 -29.72,11.75 -42.19,21.28 -13.82,10.24 -26.34,22.09 -40.08,32.43 -11.36,8.84 -22.59,18.07 -31.88,29.14 -5.7,7.7 -10.24,17.41 -8.82,27.21 2.56,10.51 13.7,14.42 19.79,22.33 1.88,4.51 1.34,10.41 -3.86,12.4 -23.12,7.23 -47.28,0.96 -70.84,0.2 -5.92,-3.97 -8.46,-10.98 -11.21,-17.23 -4.39,-10.31 -5.11,-22.04 -11.33,-31.57 -4.26,-5.89 -2.74,-13.8 -2.13,-20.53 8.84,-16.31 19.38,-31.69 30.36,-46.63 7.29,-9.96 15.85,-18.92 23.19,-28.84 8.74,-13.53 9.92,-30.14 12.24,-45.64 1.63,-11.51 2.13,-23.15 3.83,-34.65 2.55,-12.95 4.2,-26.36 10.34,-38.23 6.05,-14.4 13.46,-28.17 22.13,-41.17 6.09,-8.97 12.54,-17.68 19.59,-25.91 7.95,-9.07 17.59,-16.39 26.9,-23.96 10.16,-8.05 21.96,-13.61 33.24,-19.84 12.73,-6.4 26.62,-10.05 40.22,-14.09 20.04,-5.41 40.97,-4.15 61.49,-5.11 35.77,-1.71 71.54,1.12 107.32,-0.41 32.9,-1.62 66.13,-3.71 97.9,-13.11zm-100.34 21.29l0 0c-25.04,0.44 -50.06,0.03 -75.08,-0.69 -38.03,-0.98 -77.5,-2.33 -113.68,11.34 -15.9,7.14 -32.12,14.43 -45.24,26.16 -35.69,29.47 -60.88,71.12 -72.04,115.91 -4.13,20.02 -4.46,40.56 -7.77,60.71 -1.55,15.82 -9.68,30.17 -19.17,42.57 -9.45,9.28 -18.22,19.21 -27.62,28.55 -10.41,11.92 -19.35,25.6 -22.93,41.21 2.2,4.47 5.4,8.42 7.18,13.1 5.41,11.41 6.86,24.13 11.36,35.89 12.82,5.64 27.02,7.52 40.92,7.11 7.26,-0.75 15.39,-0.5 21.31,-5.46 -14.2,-3.22 -28.45,-6.93 -41.88,-12.55 2.63,-7.2 6.24,-14.09 7.82,-21.61 0.64,-6.96 0.28,-13.97 -0.3,-20.9 5.56,-5.64 13.63,-7.22 20.19,-11.34 6.61,-4.14 13.74,-8.17 18.37,-14.65 3.29,-10.37 -2.31,-20.8 -3.84,-31.04 4.6,-4.48 8.76,-9.53 14.15,-13.11 12.07,-8.06 23.47,-17.07 35.1,-25.74 7.06,-6.29 13.65,-13.71 16.74,-22.81 4.83,-11.85 3.69,-25.5 -1.02,-37.2 18.09,-26.93 47.74,-42.65 68.56,-67.1 3.56,16.92 -4.67,32.98 -7.06,49.42 -1.57,9.34 4.02,18.26 10.85,24.13 9.47,7.47 22.33,7.16 33.6,5.08 13.82,-3.38 27.26,-9.15 41.64,-9.45 7.45,0.99 13.89,5.59 21.39,6.57 8.2,-2.64 15.93,-6.65 22.86,-11.75 8.43,-7.55 9.27,-19.69 15.57,-28.64 6.33,-10.81 13.51,-23.13 26.65,-26.26 3.05,10.41 -2.39,20.2 -7.06,29.13 -5.79,10.12 -4.62,22.41 -2.59,33.41 4.57,17.71 10.69,34.98 17.21,52.05 5.75,17.53 6.61,36.1 8.41,54.33 -0.18,19.9 1.23,39.86 4.66,59.49 1.97,8.01 5,15.93 10.18,22.46 8.64,13.39 24.2,20.27 39.5,22.56 18.37,2.31 37.06,2.67 55.43,0.1 -5.01,-3.96 -9.78,-8.23 -14.83,-12.15 -9.23,-7.59 -22.64,-9.73 -33.77,-5.33 -4.08,-6.93 -12.62,-9.4 -20.04,-10.84 -6.1,-0.8 -11.23,-4.56 -15.59,-8.65 2.28,-11.1 16.46,-11.04 21.13,-20.06 -5,-15.67 -9.81,-31.42 -13.57,-47.45 -3.55,-10.52 -7.72,-21.13 -14.71,-29.9 2.01,-12.52 13.02,-20.42 18.17,-31.35 2.61,-7.52 -7.16,-8.09 -11.89,-10.03 -3.17,-8.38 2.24,-17.07 8.1,-22.78 9.89,-9.98 24.49,-12.83 34.91,-22.05 -8.21,-7.68 -14.68,-19.91 -10.54,-31.15 7.31,-11.75 19.48,-19.1 29.74,-27.98 12.07,-10.63 25.66,-20.3 33.81,-34.53 2.51,-7.75 3.68,-16 7.26,-23.37 2.9,-4.64 7.15,-10.71 13.29,-10 5.99,6.25 7.08,15.56 13.33,21.64 5.49,0.04 11,-0.29 16.49,0.13 2.89,1.13 2.92,5.63 1.22,7.82 -2.82,5.23 -9.24,6.09 -13.34,9.85 -1.97,2.44 -2.11,5.67 -2.46,8.64 11.1,6.55 21.47,14.98 34.3,17.91 8.51,2.82 17.09,-1.12 24.76,-4.52 7.93,2 13.85,8.25 21.56,10.82 3.95,-0.61 7.52,-3.08 11.67,-2.89 15.89,-0.84 27.25,14.09 42.83,14.52 4.71,0.58 7.11,-4.17 10.08,-6.88 -4.88,-7.78 -15.25,-9.22 -20,-17.1 -3.52,-4.03 -1.42,-9.52 -1.06,-14.2 6.6,-1.83 13.76,-2.31 20.22,0.39 9.45,3.91 19.13,7.57 27.61,13.4 -4.62,2.32 -10.44,1.48 -14.65,4.35 9.54,9.88 10.64,24.81 20.03,34.78 4.6,6.06 13.87,8.43 20.48,4.37 9.15,-4.65 19.79,-8.7 30.08,-5.49 5.69,1.12 11.8,5.1 17.44,1.73 7.95,-3.62 13.64,-13.55 23.5,-11.64 0.33,10.67 -4.64,21.08 -1.65,31.63 -7.26,3.15 -15.06,5.33 -21.59,9.93 -3.25,1.85 -3.56,5.77 -4.37,9.04 16.46,1.76 33.22,2.79 49.58,-0.36 7.25,-1.67 13.47,-6.04 19.31,-10.48 -6.15,-14.1 -23.4,-18.8 -29.64,-32.92 -3.53,-9.08 -7.32,-18.22 -14.07,-25.46 -14.31,-15.29 -34.19,-23.62 -53.65,-30.26 -16.51,-6.47 -34.2,-8.66 -51.45,-12.26 -22.24,-3.96 -44.19,-9.25 -66.04,-14.84 -7.62,-2.03 -14.65,-5.64 -21.62,-9.21 -17.45,-8.14 -33.52,-18.78 -49.85,-28.89 -11.47,-7.59 -24.39,-12.54 -36.99,-17.88 -18.19,-5.99 -37.62,-5.56 -56.49,-4.2 -33.36,3.61 -65.69,14.56 -99.41,15.17z"/>
  </g>
 </g>
</svg>
