<?xml version="1.0" encoding="UTF-8"?>
<!DOCTYPE svg PUBLIC "-//W3C//DTD SVG 1.1//EN" "http://www.w3.org/Graphics/SVG/1.1/DTD/svg11.dtd">
<!-- Creator: CorelDRAW -->
<svg xmlns="http://www.w3.org/2000/svg" xml:space="preserve" width="2000px" height="1600px" version="1.1" style="shape-rendering:geometricPrecision; text-rendering:geometricPrecision; image-rendering:optimizeQuality; fill-rule:evenodd; clip-rule:evenodd"
viewBox="0 0 2000 1600"
 xmlns:xlink="http://www.w3.org/1999/xlink">
 <defs>
  <style type="text/css">
   <![CDATA[
    .fil0 {fill:#401E6B;fill-rule:nonzero}
    .fil1 {fill:#FCB827;fill-rule:nonzero}
   ]]>
  </style>
 </defs>
 <g id="Capa_x0020_1">
  <metadata id="CorelCorpID_0Corel-Layer"/>
  <g id="Albany_x0020_Great_x0020_Danes.cdr">
   <path class="fil0" d="M886.13 1031.36c175.39,-11.64 352.42,4.28 523.26,45.44 120.51,28.83 237.85,70.14 350.71,121.21 -0.04,3.03 -0.06,6.06 -0.06,9.1 -12.29,-5.47 -24.23,-11.68 -36.6,-16.99 -0.03,6.23 -0.03,12.48 -0.01,18.72 -65.57,-28.48 -132.52,-53.82 -200.8,-75.01 13.66,38.16 27.14,76.37 40.85,114.51 32.31,-0.93 64.61,-0.51 96.92,-1.59 -0.08,85.01 0.18,170.03 -0.14,255.04l-538.79 0c-0.27,-84.82 -0.04,-169.65 -0.12,-254.47 42.41,-0.1 84.82,0.3 127.21,-0.51 -19.55,-61.26 -39.1,-122.5 -58.91,-183.69 -134.75,-15.09 -271.29,-14.35 -405.79,2.94 -19.98,60.58 -39.91,121.19 -60.04,181.71 42.48,0.36 84.93,-0.58 127.41,-0.53 0.23,84.84 0.25,169.69 -0.02,254.55l-516.76 0c-0.02,-84.52 -0.08,-169.03 0.04,-253.57 32.87,0.12 65.74,-0.07 98.61,0.12 13.54,-37.48 26.02,-75.32 38.17,-113.27 -62.05,19.21 -122.92,42.11 -182.65,67.6 2.67,-9.82 4.83,-19.75 6.66,-29.76 187.6,-78.52 387.71,-128.41 590.85,-141.55zm-679.85 -247.07c32.91,-18.17 67.21,-33.79 101.4,-49.41 0.96,19.08 0.13,38.22 0.43,57.31 -7.51,3.26 -14.96,6.64 -22.45,9.92 -0.33,72.68 -0.05,145.36 -0.15,218.04 -0.22,40.11 1.17,80.38 -3.27,120.34 -4.14,37.95 -12.78,76.12 -31.5,109.73 -15.8,28.69 -39.58,52.66 -67.6,69.5 -16.05,9.59 -32.89,18.53 -51.25,22.71 -11.61,2.58 -24.98,2.14 -34.54,-5.76 -12.4,-10.14 -17.48,-26.17 -21.13,-41.18 -6.3,-28.57 -6.94,-58.01 -7.09,-87.15 0.01,-96.13 -0.02,-192.25 0.01,-288.4 -7.11,3.88 -13.64,8.7 -20.6,12.87 -0.21,-18.49 -0.09,-36.97 -0.05,-55.44 34.01,-22.56 68.67,-44.18 104.23,-64.24 0.11,18.74 0.56,37.54 -0.19,56.26 -6.51,4.4 -13.62,7.81 -20.36,11.85 0.02,101.49 -0.02,202.98 0.02,304.46 0.74,19.63 0.02,39.89 6.78,58.65 3.06,8.52 9.48,17.06 18.94,18.62 11.5,1.98 22.45,-3.85 31.69,-10.06 13.43,-8.96 22.76,-22.96 28.05,-38.03 7.32,-20.77 8.86,-43.01 9.5,-64.87 0.09,-106.6 -0.06,-213.23 0.09,-319.83 -6.94,3.29 -13.75,6.85 -20.69,10.1 -0.27,-18.66 0.24,-37.33 -0.27,-55.99zm1456.56 -54.43c39.68,16.27 78.35,34.86 116.79,53.88 0.54,19.03 0.11,38.05 0.22,57.07 -9.56,-4.55 -18.95,-9.5 -28.65,-13.74 13.71,63.49 30.01,126.42 41.11,190.43 3.95,20.66 7.16,41.48 11.27,62.11 4.47,2.54 11.12,0.82 16.44,1.78 6.49,-29.35 12.87,-58.72 20.58,-87.77 9.45,-34.62 19.61,-69.07 29.34,-103.61 -8.73,-5.14 -17.5,-10.22 -26.4,-15.01 -0.34,-18.86 -0.19,-37.71 -0.1,-56.56 36.9,20.66 72.82,43.03 108.04,66.4 0.09,18.45 0.21,36.89 -0.08,55.33 -6.32,-3.67 -12.21,-8.07 -18.66,-11.5 -29.54,82.75 -60.45,165.01 -90.01,247.72 -0.79,31.21 0.06,62.48 -0.4,93.71 11.69,7.12 23.73,13.66 35.4,20.85 -0.06,19.78 0,39.55 -0.04,59.32 -44.56,-26.17 -90.33,-50.25 -136.9,-72.64 0.06,-20.02 0.02,-40.04 0.02,-60.08 12.49,5.31 24.14,12.38 36.69,17.6 0.07,-31.52 -0.08,-63.01 0.07,-94.53 0.53,-9.12 -3.19,-17.65 -5.25,-26.36 -28.33,-105.6 -56.59,-211.29 -86.24,-316.52 -7.08,-4.74 -15.73,-6.79 -23.35,-10.61 0.07,-19.1 -0.11,-38.19 0.11,-57.27zm-305.91 -93.74c38.57,7.61 76.64,17.63 114.47,28.23 10.14,49.61 20.13,99.26 30.16,148.9 13.98,71.98 30.71,143.38 46.47,214.99 5.93,-1 11.88,-1.73 17.88,-2.28 -4.89,-81.46 -5.7,-163.12 -7.58,-244.68 0.09,-16.88 -0.72,-33.72 -0.57,-50.59 -8.09,-2.75 -16.16,-5.52 -24.34,-7.98 -0.04,-13.11 -0.06,-26.23 0.01,-39.32 30.62,9.95 60.78,21.18 90.94,32.4 0.65,13 0.03,26 0.37,39.02 -7.96,-2.66 -15.67,-5.91 -23.59,-8.58 -0.11,116.86 0.15,233.73 -0.15,350.61 -26.57,-10.1 -53.53,-19.12 -80.6,-27.79 -26.18,-121.54 -53.02,-242.93 -79.35,-364.44 -6.09,0.38 -12.15,0.96 -18.17,1.82 -0.23,34.98 0.85,69.94 0.43,104.92 1.15,29.46 -0.17,58.94 0.96,88.41 -0.26,33.43 0.38,66.84 0.62,100.28 8.62,2.07 17.2,4.33 25.74,6.71 -0.04,13.97 0,27.93 -0.02,41.89 -31.06,-8.15 -62.25,-15.75 -93.64,-22.47 0.06,-14 0.06,-27.98 0,-41.96 8.22,1.43 16.31,3.52 24.54,5.01 -0.21,-102.62 0.22,-205.23 -0.23,-307.83 -7.77,-2.97 -16.26,-3.74 -24.31,-5.81 0.04,-13.15 0.08,-26.3 -0.04,-39.46zm-748.65 6.8c33.62,-7.74 67.41,-14.87 101.47,-20.42 0.13,13.59 -0.08,27.17 0.13,40.77 -9.67,2 -19.44,3.6 -29.17,5.37 -0.2,102.33 -0.03,204.68 -0.09,307.02 23.95,-4.22 47.87,-8.55 71.95,-11.9 0.13,-27.99 -0.19,-56.01 0.17,-84.02 15.69,-2.13 31.38,-4.27 47.11,-6.14 0.56,42.54 0.11,85.08 0.23,127.6 -64.41,7.66 -128.47,18.52 -191.61,33.36 -0.57,-14.5 -0.29,-29.05 -0.15,-43.55 6.84,-1.47 13.69,-3.05 20.52,-4.59 0.04,-102.39 0.08,-204.78 -0.02,-307.17 -6.88,1.54 -13.75,3.2 -20.71,4.33 0.19,-13.57 -0.06,-27.12 0.17,-40.66zm228.48 -544.71l330.09 0c28.47,80.19 56.24,160.66 84.55,240.91 27.57,77.63 55.37,155.16 82.83,232.85 226.34,42.95 443.87,131.06 636.7,257.04 9.86,5.95 18.84,13.38 29.07,18.65l0 0.81c-4.91,4.53 -7.83,10.68 -11.59,16.1 -82.97,-56.16 -170.5,-105.64 -261.71,-147.11 -219.55,-100.13 -460.06,-153.87 -701.32,-156.97 -56.46,-1.73 -112.87,2.28 -169.14,6.47 -42.32,2.81 -84.24,9.26 -126.21,14.94 -65.97,8.37 -130.9,23.37 -195.04,40.6 -185.39,50.61 -362.2,132.29 -521.26,240.13 -1.69,1.68 -3.16,1.55 -4.38,-0.39 -3.44,-4.29 -6.36,-8.99 -9.35,-13.6l0 -1.04c74.04,-49.99 151.55,-94.84 232.14,-133.39 138.04,-66.23 284.74,-114.36 435.18,-142.75 56.35,-157.8 112.53,-315.66 169.44,-473.25zm13.93 19.85l0 0c-53.64,149.71 -107.42,299.36 -160.59,449.22 5.08,-0.83 10.18,-1.65 15.26,-2.52 70.18,-11.8 141.08,-19.25 212.16,-22.5 4.61,-0.51 10.06,0.3 14.2,-1.17 19.34,-55.24 38.35,-110.61 56.8,-166.13 4.91,11.51 8.04,23.69 12.42,35.43 13.91,41.46 27.64,82.99 41.64,124.44 1.09,7.92 11,3.97 16.44,5.51 39.66,3.12 79.55,3.5 119.06,8.5 26.47,-30.42 52.55,-61.18 79.04,-91.59 1.02,2.05 2.07,4.12 3.14,6.19 11.52,33.59 24.01,66.83 35.41,100.46 5.12,0.95 10.28,1.78 15.43,2.59 -27.26,-77.1 -54.88,-154.09 -82.22,-231.17 -25.29,-72.4 -50.85,-144.71 -75.92,-217.18 -100.75,-0.32 -201.52,-0.19 -302.27,-0.08zm137.93 319.32l0 0c-11.78,34.53 -23.67,69.02 -35.58,103.49 23.48,-0.21 46.96,-0.74 70.46,-0.55 -12.14,-34.13 -22.62,-68.86 -34.88,-102.94zm-145.67 167.47c39.4,-3.51 78.93,-5.83 118.48,-6.69 18.65,0 38.63,2.86 53.68,14.79 13.38,10.61 19.98,27.31 22.95,43.66 3.31,19.27 3.48,39.03 1.09,58.41 -2.16,15.38 -7.28,31.43 -19.22,42.05 -8.75,7.88 -20.21,11.77 -31.59,13.9 -0.15,6.13 -0.15,12.27 0.09,18.4 16.78,1.45 33.49,8.81 43.5,22.77 15.48,21.29 17.67,48.84 17.93,74.33 -0.7,26.98 -2.9,56.92 -21.84,77.97 -18.44,19.49 -46.66,24.05 -72.22,25.68 -37.68,1.19 -75.35,3.37 -112.9,6.59 0.05,-14.6 -0.12,-29.2 0.09,-43.8 7.04,-0.42 14.08,-1.06 21.09,-1.75 -0.18,-102.32 0.27,-204.63 -0.22,-306.94 -6.98,0.73 -13.98,1.33 -20.96,1.97 0.04,-13.77 -0.08,-27.56 0.05,-41.34zm72.21 34.13l0 0c0.44,43.05 0,86.1 0.21,129.13 18.78,-1.2 40.02,1.51 55.81,-11.03 16.2,-12.94 18.28,-35.52 18.42,-54.8 -0.59,-19.01 -1.81,-40.98 -16.84,-54.68 -15.85,-13.71 -38.42,-9.9 -57.6,-8.62zm0.19 168.64l0 0c-0.02,47.34 -0.05,94.68 0.02,142.03 21.54,-1.54 46.47,2.39 64.18,-12.85 16.29,-15.05 16.86,-39.11 17.57,-59.74 0.02,-21.35 -2.24,-46.13 -19.7,-60.88 -17.55,-14.24 -41.37,-8.65 -62.07,-8.56zm238.14 -202.73c28.22,1.86 56.31,5.65 84.37,9.37 23.53,119.7 46.81,239.46 69.84,359.27 4.51,0.96 9.05,1.86 13.6,2.82 -0.26,14.49 0.39,28.99 -0.38,43.46 -28.61,-5.57 -57.4,-10.31 -86.34,-13.98 -0.73,-14.64 -0.19,-29.31 -0.3,-43.95 7.41,1.11 14.85,2.17 22.28,3.16 -4.22,-27.98 -8.34,-55.99 -12.57,-83.97 -30.14,-4.19 -60.36,-7.73 -90.65,-10.46 -4.33,27.04 -9.9,53.91 -13.4,81.06 7.77,0.54 15.55,1.16 23.28,2.07 -0.02,14.54 0.05,29.08 -0.04,43.65 -27.64,-2.51 -55.3,-4.67 -83.03,-5.76 -0.39,-14.36 -0.13,-28.71 -0.15,-43.07 0.66,-0.62 1.98,-1.9 2.65,-2.52 23.45,-113.75 47.49,-227.38 70.84,-341.15zm38.38 47.04l0 0c-9.23,60.21 -20.35,120.09 -31.57,179.94 25.76,2.39 51.44,5.55 77.1,8.92 -6.51,-37.61 -12.62,-75.28 -19,-112.91 -3.38,-25.32 -6.45,-50.66 -9.69,-76.01 -5.62,-0.05 -11.23,-0.04 -16.84,0.06zm-789.14 52.87c25.53,-9 50.93,-18.44 76.87,-26.15 22.53,109.2 45.71,218.26 68.1,327.5 4.34,-0.94 8.71,-1.9 13,-3.12 -0.04,14.43 0.02,28.88 -0.04,43.31 -28.6,7.4 -56.92,15.79 -85.08,24.59 -0.08,-14.37 -0.08,-28.73 0,-43.1 7.02,-2.13 14,-4.42 21.05,-6.42 -3.93,-26.38 -7.77,-52.79 -12.45,-79.04 -29.32,9.54 -58.93,18.65 -87.42,30.41 -4.87,29.08 -9.01,58.34 -13.43,87.52 7.86,-2.74 15.6,-5.85 23.48,-8.56 0.21,14.11 -0.13,28.24 0.21,42.35 -26.34,10.05 -52.59,20.38 -78.74,30.93 0.15,-14.18 -0.19,-28.35 0.22,-42.52 2.07,-0.79 4.16,-1.58 6.25,-2.35 18.36,-102.22 36.65,-204.44 55.22,-306.62 4.29,-22.9 7.98,-45.93 12.76,-68.73zm31.4 28.82l0 0c-9.33,66.04 -20.19,131.87 -30.95,197.71 24.8,-9 49.76,-17.56 74.84,-25.76 -4.79,-27.6 -9.67,-55.2 -14.52,-82.8 -5.59,-29.81 -8.28,-60.04 -12.63,-90.03 -5.49,0.43 -11.64,-1.15 -16.74,0.88zm776.69 331.61l0 0c21.37,66.98 42.86,133.91 64.31,200.85 -44.84,0.71 -89.69,0.47 -134.53,0.58 0.08,71.61 0.06,143.22 0,214.83 166.83,0.17 333.68,0.04 500.51,0.05 0,-71.64 0,-143.29 0,-214.92 -30.46,0.17 -60.9,0.98 -91.36,0.98 -16.86,-47.17 -33.59,-94.39 -50.46,-141.56 -4.71,-1.35 -9.41,-2.73 -14.12,-3.99 17.43,52.87 35.38,105.57 52.65,158.48 28.9,0.41 57.82,-0.25 86.72,-0.89 0.35,62.07 -0.14,124.14 0.24,186.21 -24.82,0.44 -49.65,0.08 -74.47,0.19 -132.06,-0.13 -264.12,0.28 -396.18,-0.21 0.23,-61.93 0.26,-123.87 -0.02,-185.81 46.81,-0.17 93.64,-0.7 140.45,-0.64 -21.94,-70.71 -44.42,-141.26 -66.36,-211.97 -5.79,-0.71 -11.59,-1.45 -17.38,-2.18zm-465.16 7.66l0 0c-23.18,69.84 -47.15,139.42 -70.48,209.2 46.78,-0.6 93.59,-0.32 140.38,-1.04 0.47,62.47 0.38,124.97 0.06,187.45 -73.04,-0.24 -146.1,-0.03 -219.14,-0.11 -76.48,1.09 -152.98,0.04 -229.46,0.62 -0.04,-0.51 -0.11,-1.5 -0.15,-1.99 15.59,-16.8 30.4,-34.3 45.72,-51.36 99.21,-112.48 198.89,-224.56 297.83,-337.26 -23.06,3.58 -46.09,7.55 -69.03,11.82 -44.12,9.23 -87.82,20.37 -131.12,32.9 -5.13,1.53 -10.29,3.03 -15.43,4.56 -15.37,46.92 -30.72,93.85 -47.39,140.32 -31.12,0.17 -62.24,-0.25 -93.34,0.2 0.34,71.33 -0.26,142.66 0.28,213.97 64.37,-0.32 128.73,-0.04 193.1,-0.14 94.69,-0.96 189.41,-0.26 284.12,-0.47 -0.04,-71.51 0.09,-143.03 -0.06,-214.52 -45.11,0.71 -90.23,0.41 -135.33,0.98 21.64,-66.01 43.71,-131.86 65.21,-197.92 -5.29,0.81 -10.56,1.68 -15.77,2.79z"/>
   <path class="fil1" d="M915.35 807.62c20.7,-0.09 44.52,-5.68 62.07,8.56 17.46,14.75 19.72,39.53 19.7,60.88 -0.71,20.63 -1.28,44.69 -17.57,59.74 -17.71,15.24 -42.64,11.31 -64.18,12.85 -0.07,-47.35 -0.04,-94.69 -0.02,-142.03zm-273.96 282.6c22.94,-4.27 45.97,-8.24 69.03,-11.82 -98.94,112.7 -198.62,224.78 -297.83,337.26 -15.32,17.06 -30.13,34.56 -45.72,51.36 -0.94,-11.59 -0.27,-23.24 -0.45,-34.85 0.11,-50.02 -0.23,-100.05 0.16,-150.08 31.18,-0.11 62.38,0.43 93.53,-0.28 16.33,-53.02 33.61,-105.74 50.16,-158.69 43.3,-12.53 87,-23.67 131.12,-32.9zm218.63 -959.01c94.52,-0.03 189.05,-0.3 283.55,0.13 38.56,110.82 78.26,221.25 116.69,332.1 -1.07,-2.07 -2.12,-4.14 -3.14,-6.19 -26.49,30.41 -52.57,61.17 -79.04,91.59 -39.51,-5 -79.4,-5.38 -119.06,-8.5 -14.92,-41.51 -29.84,-83.03 -44.74,-124.54 -8.62,-23.14 -16.2,-46.69 -25.46,-69.59 -23.51,65.44 -47.69,130.63 -71.3,196.05 -71.08,3.25 -141.98,10.7 -212.16,22.5 51.52,-144.53 103.24,-288.99 154.66,-433.55zm-34.06 457.61c45.63,-4.57 91.44,-7.2 137.3,-8.05 24.66,0.11 51.32,5.7 69.1,24.08 19.74,20.06 25.14,49.47 25.95,76.56 0.56,27.04 -1.47,56.26 -17.69,79 -5.3,7.94 -13.32,13.21 -20.83,18.78 3.07,3.82 8.62,5.19 12.33,8.58 21.43,16.63 30.59,44.08 33.45,70.16 2.35,23.95 1.75,48.28 -2.75,71.97 1.38,-0.08 4.12,-0.23 5.48,-0.3 23.65,-114.57 47.62,-229.07 71.53,-343.6 37.76,3.03 75.47,7.21 112.95,12.91 17.63,91.51 35.69,182.95 53.32,274.47 5.81,28.52 10.61,57.25 16.93,85.66 13.23,2.09 26.49,4.03 39.57,7.06 -0.08,-89.88 0.41,-179.78 -0.25,-269.64 -7.3,-3.19 -15.84,-3.48 -23.61,-5.57 -0.13,-25.92 -0.11,-51.85 -0.02,-77.79 50.14,9.99 99.91,21.99 148.88,36.68 9.79,49.09 19.93,98.1 29.71,147.19 8.09,39.51 15.6,79.14 24.84,118.38 0.3,-34.07 -1.62,-68.14 -1.75,-102.24 -0.94,-23.06 -0.25,-46.19 -1.6,-69.23 -8.11,-2.53 -16.2,-5.05 -24.22,-7.79 0,-26.08 -0.02,-52.14 0,-78.2 43.24,13.04 85.63,28.71 127.73,45.01 2,14.65 0.7,29.56 1.08,44.32 -0.42,11.61 0.6,23.26 -0.79,34.83 -7.6,-2.84 -15.07,-5.93 -22.66,-8.77 -0.01,116.86 0.04,233.7 -0.01,350.56 -38.07,-14.85 -76.79,-27.88 -115.66,-40.38 -14.92,-70.37 -30.42,-140.6 -45.68,-210.87 -5.68,-24.27 -9.91,-48.9 -16.58,-72.89 0.15,34.58 0.89,69.16 0.61,103.78 1.16,27.34 -0.23,54.71 0.86,82.07 8.62,2.16 17.14,4.69 25.78,6.79 0.37,26.96 0.09,53.93 0.15,80.91 -37.9,-10.61 -76.05,-20.29 -114.56,-28.32 -45.27,-10.74 -91.33,-18.08 -137.48,-23.78 -1.21,-26.32 -0.21,-52.72 -0.51,-79.06 6.32,0.79 12.62,1.6 18.96,2.37 -2.35,-15.99 -4.64,-31.99 -7.18,-47.94 -20.3,-2.52 -40.57,-5.27 -60.96,-6.87 -2.45,15.43 -5.4,30.78 -7.75,46.23 6.98,0.53 13.96,1.18 20.88,2.37 -0.47,26.08 0.02,52.19 -0.26,78.29 -39.19,-3.82 -78.46,-7.04 -117.84,-8.2 -0.53,-25.55 0.3,-51.11 -0.43,-76.64 -4.22,18.91 -12.83,37.54 -27.81,50.3 -22.11,19.03 -52.32,24.04 -80.55,25.62 -43.03,1.19 -85.98,3.88 -128.84,7.94 -0.09,-26.19 -0.13,-52.4 0.02,-78.59 7.02,-0.75 14.05,-1.37 21.09,-2.05 0.11,-44.97 -0.24,-89.95 0.17,-134.92 0.7,-45.61 0.08,-91.25 0.32,-136.86 -6.92,0.51 -13.83,1.13 -20.72,1.86 0,-25.38 -0.01,-50.78 0,-76.18zm16.99 16.03l0 0c-0.13,13.78 -0.01,27.57 -0.05,41.34 6.98,-0.64 13.98,-1.24 20.96,-1.97 0.49,102.31 0.04,204.62 0.22,306.94 -7.01,0.69 -14.05,1.33 -21.09,1.75 -0.21,14.6 -0.04,29.2 -0.09,43.8 37.55,-3.22 75.22,-5.4 112.9,-6.59 25.56,-1.63 53.78,-6.19 72.22,-25.68 18.94,-21.05 21.14,-50.99 21.84,-77.97 -0.26,-25.49 -2.45,-53.04 -17.93,-74.33 -10.01,-13.96 -26.72,-21.32 -43.5,-22.77 -0.24,-6.13 -0.24,-12.27 -0.09,-18.4 11.38,-2.13 22.84,-6.02 31.59,-13.9 11.94,-10.62 17.06,-26.67 19.22,-42.05 2.39,-19.38 2.22,-39.14 -1.09,-58.41 -2.97,-16.35 -9.57,-33.05 -22.95,-43.66 -15.05,-11.93 -35.03,-14.79 -53.68,-14.79 -39.55,0.86 -79.08,3.18 -118.48,6.69zm310.54 0.04l0 0c-23.35,113.77 -47.39,227.4 -70.84,341.15 -0.67,0.62 -1.99,1.9 -2.65,2.52 0.02,14.36 -0.24,28.71 0.15,43.07 27.73,1.09 55.39,3.25 83.03,5.76 0.09,-14.57 0.02,-29.11 0.04,-43.65 -7.73,-0.91 -15.51,-1.53 -23.28,-2.07 3.5,-27.15 9.07,-54.02 13.4,-81.06 30.29,2.73 60.51,6.27 90.65,10.46 4.23,27.98 8.35,55.99 12.57,83.97 -7.43,-0.99 -14.87,-2.05 -22.28,-3.16 0.11,14.64 -0.43,29.31 0.3,43.95 28.94,3.67 57.73,8.41 86.34,13.98 0.77,-14.47 0.12,-28.97 0.38,-43.46 -4.55,-0.96 -9.09,-1.86 -13.6,-2.82 -23.03,-119.81 -46.31,-239.57 -69.84,-359.27 -28.06,-3.72 -56.15,-7.51 -84.37,-9.37zm203.44 31.23l0 0c0.12,13.16 0.08,26.31 0.04,39.46 8.05,2.07 16.54,2.84 24.31,5.81 0.45,102.6 0.02,205.21 0.23,307.83 -8.23,-1.49 -16.32,-3.58 -24.54,-5.01 0.06,13.98 0.06,27.96 0,41.96 31.39,6.72 62.58,14.32 93.64,22.47 0.02,-13.96 -0.02,-27.92 0.02,-41.89 -8.54,-2.38 -17.12,-4.64 -25.74,-6.71 -0.24,-33.44 -0.88,-66.85 -0.62,-100.28 -1.13,-29.47 0.19,-58.95 -0.96,-88.41 0.42,-34.98 -0.66,-69.94 -0.43,-104.92 6.02,-0.86 12.08,-1.44 18.17,-1.82 26.33,121.51 53.17,242.9 79.35,364.44 27.07,8.67 54.03,17.69 80.6,27.79 0.3,-116.88 0.04,-233.75 0.15,-350.61 7.92,2.67 15.63,5.92 23.59,8.58 -0.34,-13.02 0.28,-26.02 -0.37,-39.02 -30.16,-11.22 -60.32,-22.45 -90.94,-32.4 -0.07,13.09 -0.05,26.21 -0.01,39.32 8.18,2.46 16.25,5.23 24.34,7.98 -0.15,16.87 0.66,33.71 0.57,50.59 1.88,81.56 2.69,163.22 7.58,244.68 -6,0.55 -11.95,1.28 -17.88,2.28 -15.76,-71.61 -32.49,-143.01 -46.47,-214.99 -10.03,-49.64 -20.02,-99.29 -30.16,-148.9 -37.83,-10.6 -75.9,-20.62 -114.47,-28.23zm-766.05 -6.99c45.06,-10.75 90.49,-20.08 136.27,-27.25 0.11,25.42 -0.02,50.84 0.06,76.24 -9.69,1.84 -19.46,3.33 -29.17,5.08 -0.03,90.55 -0.02,181.11 -0.02,271.65 12.4,-2.17 24.84,-4.01 37.22,-6.29 -0.17,-25.66 0.06,-51.33 -0.11,-76.99 0.45,-2.35 -1.3,-7.02 2.5,-7.07 26.6,-3.77 53.23,-8.28 80.06,-9.77 -0.36,53.89 -0.23,107.77 -0.06,161.64 -24.12,3.61 -48.45,5.85 -72.55,9.76 -51.85,7.76 -103.31,18.12 -154.3,30.39 0.04,-26.43 -0.11,-52.85 0.08,-79.27 6.86,-1.5 13.69,-3.16 20.54,-4.68 0.19,-90.46 0,-180.92 0.1,-271.4 -6.95,1.39 -13.83,3.06 -20.7,4.76 0,-25.61 -0.13,-51.2 0.08,-76.8zm17.4 13.79l0 0c-0.23,13.54 0.02,27.09 -0.17,40.66 6.96,-1.13 13.83,-2.79 20.71,-4.33 0.1,102.39 0.06,204.78 0.02,307.17 -6.83,1.54 -13.68,3.12 -20.52,4.59 -0.14,14.5 -0.42,29.05 0.15,43.55 63.14,-14.84 127.2,-25.7 191.61,-33.36 -0.12,-42.52 0.33,-85.06 -0.23,-127.6 -15.73,1.87 -31.42,4.01 -47.11,6.14 -0.36,28.01 -0.04,56.03 -0.17,84.02 -24.08,3.35 -48,7.68 -71.95,11.9 0.06,-102.34 -0.11,-204.69 0.09,-307.02 9.73,-1.77 19.5,-3.37 29.17,-5.37 -0.21,-13.6 0,-27.18 -0.13,-40.77 -34.06,5.55 -67.85,12.68 -101.47,20.42zm306.88 -3.94c19.18,-1.28 41.75,-5.09 57.6,8.62 15.03,13.7 16.25,35.67 16.84,54.68 -0.14,19.28 -2.22,41.86 -18.42,54.8 -15.79,12.54 -37.03,9.83 -55.81,11.03 -0.21,-43.03 0.23,-86.08 -0.21,-129.13zm18.05 16.17l0 0c0,31.64 0,63.29 0,94.93 10.65,-0.41 23.31,-0.65 30.46,-9.95 8.88,-11.83 8.54,-27.64 8.6,-41.75 -0.57,-12.21 -1,-25.75 -8.85,-35.82 -7.52,-8.54 -19.9,-7.58 -30.21,-7.41zm258.66 -3.22c5.61,-0.1 11.22,-0.11 16.84,-0.06 3.24,25.35 6.31,50.69 9.69,76.01 6.38,37.63 12.49,75.3 19,112.91 -25.66,-3.37 -51.34,-6.53 -77.1,-8.92 11.22,-59.85 22.34,-119.73 31.57,-179.94zm7.53 63.52l0 0c-6.12,33.53 -12.06,67.07 -18.55,100.52 11.7,2.13 23.59,3.01 35.41,4.35 -5.42,-34.98 -12.65,-69.71 -16.86,-104.87zm-807.1 -25.23c33.17,-12.21 66.53,-23.97 100.44,-33.94 22.63,109.48 45.7,218.87 68.35,328.33 5.68,-1.19 11.29,-2.61 16.92,-4.08 0.13,26.43 0.15,52.89 -0.02,79.32 -40.4,10.09 -80.25,22.2 -119.87,34.94 0.02,-24.85 0.05,-49.73 -0.04,-74.58 0.21,-1.26 0.64,-3.82 0.85,-5.08 5.93,-2.35 12.11,-3.95 18.17,-5.99 -1.99,-14.67 -4.42,-29.29 -6.73,-43.93 -19.53,5.91 -38.59,13.15 -57.91,19.66 -2.53,16.24 -5.42,32.44 -7.17,48.79 6.26,-2.33 12.51,-4.69 18.89,-6.74 0.13,26.63 0.24,53.25 -0.06,79.87 -38.17,13.51 -75.84,28.51 -112.91,44.84 -0.69,-26.78 -0.13,-53.59 -0.28,-80.38 2.69,-1.11 5.4,-2.22 8.13,-3.29 22.77,-124.38 44.7,-248.94 67.58,-373.3 -0.04,-3.09 3.56,-3.33 5.66,-4.44zm10.43 14.58l0 0c-4.78,22.8 -8.47,45.83 -12.76,68.73 -18.57,102.18 -36.86,204.4 -55.22,306.62 -2.09,0.77 -4.18,1.56 -6.25,2.35 -0.41,14.17 -0.07,28.34 -0.22,42.52 26.15,-10.55 52.4,-20.88 78.74,-30.93 -0.34,-14.11 0,-28.24 -0.21,-42.35 -7.88,2.71 -15.62,5.82 -23.48,8.56 4.42,-29.18 8.56,-58.44 13.43,-87.52 28.49,-11.76 58.1,-20.87 87.42,-30.41 4.68,26.25 8.52,52.66 12.45,79.04 -7.05,2 -14.03,4.29 -21.05,6.42 -0.08,14.37 -0.08,28.73 0,43.1 28.16,-8.8 56.48,-17.19 85.08,-24.59 0.06,-14.43 0,-28.88 0.04,-43.31 -4.29,1.22 -8.66,2.18 -13,3.12 -22.39,-109.24 -45.57,-218.3 -68.1,-327.5 -25.94,7.71 -51.34,17.15 -76.87,26.15zm1241.3 -1.07c23.23,8.12 45.57,18.64 68.09,28.5 28.77,12.96 57.14,26.75 85.15,41.24 -0.03,31.91 0.06,63.82 -0.03,95.75 -7.04,-3.29 -13.98,-6.79 -20.87,-10.39 7.32,34.47 15.63,68.72 23.05,103.15 4.8,23.4 9.07,46.92 13.26,70.44 4.72,-16.3 8.09,-32.95 12.68,-49.3 7.91,-28.37 16.24,-56.63 24.05,-85.04 -7.87,-4.36 -15.77,-8.67 -23.52,-13.23 0.17,-31.98 0,-63.98 0.09,-95.97 49.09,26.32 96.52,55.64 142.88,86.53 0.15,32.46 0.21,64.91 -0.03,97.37 -9.17,-5.55 -17.77,-12.01 -27,-17.41 -24.59,66.87 -48.87,133.85 -73.38,200.76 -3.27,10.36 -9.3,20.26 -8.69,31.47 0.28,24.33 -0.23,48.66 0.28,72.98 11.95,6.49 23.71,13.42 35.18,20.76 -0.32,33.15 0.08,66.3 -0.2,99.45 -55.6,-33.45 -112.63,-64.55 -171.5,-91.87 -0.23,-26.7 -0.04,-53.4 -0.09,-80.08 -0.02,-6.24 -0.02,-12.49 0.01,-18.72 12.37,5.31 24.31,11.52 36.6,16.99 0,-3.04 0.02,-6.07 0.06,-9.1 -0.17,-20.36 0.41,-40.76 -0.23,-61.08 -2.62,-14.35 -7.36,-28.22 -10.82,-42.37 -25.36,-94.99 -51.38,-189.8 -77.35,-284.63 -8.78,-3.83 -17.61,-7.56 -26.54,-10.98 -1.96,-31.73 0,-63.48 -1.13,-95.22zm18.81 26.13l0 0c-0.22,19.08 -0.04,38.17 -0.11,57.27 7.62,3.82 16.27,5.87 23.35,10.61 29.65,105.23 57.91,210.92 86.24,316.52 2.06,8.71 5.78,17.24 5.25,26.36 -0.15,31.52 0,63.01 -0.07,94.53 -12.55,-5.22 -24.2,-12.29 -36.69,-17.6 0,20.04 0.04,40.06 -0.02,60.08 46.57,22.39 92.34,46.47 136.9,72.64 0.04,-19.77 -0.02,-39.54 0.04,-59.32 -11.67,-7.19 -23.71,-13.73 -35.4,-20.85 0.46,-31.23 -0.39,-62.5 0.4,-93.71 29.56,-82.71 60.47,-164.97 90.01,-247.72 6.45,3.43 12.34,7.83 18.66,11.5 0.29,-18.44 0.17,-36.88 0.08,-55.33 -35.22,-23.37 -71.14,-45.74 -108.04,-66.4 -0.09,18.85 -0.24,37.7 0.1,56.56 8.9,4.79 17.67,9.87 26.4,15.01 -9.73,34.54 -19.89,68.99 -29.34,103.61 -7.71,29.05 -14.09,58.42 -20.58,87.77 -5.32,-0.96 -11.97,0.76 -16.44,-1.78 -4.11,-20.63 -7.32,-41.45 -11.27,-62.11 -11.1,-64.01 -27.4,-126.94 -41.11,-190.43 9.7,4.24 19.09,9.19 28.65,13.74 -0.11,-19.02 0.32,-38.04 -0.22,-57.07 -38.44,-19.02 -77.11,-37.61 -116.79,-53.88zm-1473.79 43.5c44.42,-23.75 89.95,-45.44 136.43,-64.87 0.05,31.7 0,63.42 0.01,95.12 -7.49,3.29 -14.99,6.57 -22.5,9.82 -0.19,80.17 -0.02,160.36 -0.07,240.53 0.34,39.76 -0.62,79.74 -7.64,118.95 -1.83,10.01 -3.99,19.94 -6.66,29.76 -9.45,34.88 -25.7,68.49 -50.58,95.04 -22.57,24.36 -51.36,42.27 -81.77,55.29 -18.75,7.56 -40.8,12.23 -60,3.6 -18.11,-8.32 -28.01,-27.23 -33.79,-45.37 -9.95,-33.3 -10.51,-68.44 -10.76,-102.91 0.04,-85.42 0,-170.82 0.02,-256.22 -6.98,4.23 -13.73,8.86 -20.64,13.24 -0.06,-32.47 -0.21,-64.94 0.09,-97.42 45.14,-30.05 91.24,-58.74 139.03,-84.38 0.18,31.98 -0.1,63.97 0.13,95.95 -6.98,4.05 -14.08,7.9 -20.94,12.19 0.43,97.37 -0.02,194.72 0.22,292.08 0.68,17.46 -0.13,35.34 4.82,52.31 1.45,3.76 2.99,8.73 7.39,9.86 7.4,-0.15 13.79,-4.54 19.63,-8.64 12.49,-9.18 19.49,-23.91 23.01,-38.66 6.32,-26.36 5.23,-53.7 5.3,-80.6 -0.03,-86.44 0.08,-172.89 -0.05,-259.33 -6.91,3.41 -13.74,6.96 -20.6,10.46 -0.12,-31.93 0.03,-63.87 -0.08,-95.8zm17.23 10.93l0 0c0.51,18.66 0,37.33 0.27,55.99 6.94,-3.25 13.75,-6.81 20.69,-10.1 -0.15,106.6 0,213.23 -0.09,319.83 -0.64,21.86 -2.18,44.1 -9.5,64.87 -5.29,15.07 -14.62,29.07 -28.05,38.03 -9.24,6.21 -20.19,12.04 -31.69,10.06 -9.46,-1.56 -15.88,-10.1 -18.94,-18.62 -6.76,-18.76 -6.04,-39.02 -6.78,-58.65 -0.04,-101.48 0,-202.97 -0.02,-304.46 6.74,-4.04 13.85,-7.45 20.36,-11.85 0.75,-18.72 0.3,-37.52 0.19,-56.26 -35.56,20.06 -70.22,41.68 -104.23,64.24 -0.04,18.47 -0.16,36.95 0.05,55.44 6.96,-4.17 13.49,-8.99 20.6,-12.87 -0.03,96.15 0,192.27 -0.01,288.4 0.15,29.14 0.79,58.58 7.09,87.15 3.65,15.01 8.73,31.04 21.13,41.18 9.56,7.9 22.93,8.34 34.54,5.76 18.36,-4.18 35.2,-13.12 51.25,-22.71 28.02,-16.84 51.8,-40.81 67.6,-69.5 18.72,-33.61 27.36,-71.78 31.5,-109.73 4.44,-39.96 3.05,-80.23 3.27,-120.34 0.1,-72.68 -0.18,-145.36 0.15,-218.04 7.49,-3.28 14.94,-6.66 22.45,-9.92 -0.3,-19.09 0.53,-38.23 -0.43,-57.31 -34.19,15.62 -68.49,31.24 -101.4,49.41zm227.85 -50.67c5.1,-2.03 11.25,-0.45 16.74,-0.88 4.35,29.99 7.04,60.22 12.63,90.03 4.85,27.6 9.73,55.2 14.52,82.8 -25.08,8.2 -50.04,16.76 -74.84,25.76 10.76,-65.84 21.62,-131.67 30.95,-197.71zm7.45 66.55l0 0c-4.29,35.13 -11.4,69.88 -16.31,104.93 10.84,-4.03 21.8,-7.68 32.83,-11.12 -5.16,-31.33 -10.54,-62.63 -16.52,-93.81zm491.2 24.12l0 0c-0.06,35.8 -0.06,71.61 0,107.39 11.96,-0.77 25.83,0.51 35.31,-8.39 9.92,-10.87 10.42,-26.66 11.2,-40.56 -0.02,-16.8 0.92,-35.62 -9.49,-49.86 -8.93,-10.99 -24.46,-9.07 -37.02,-8.58z"/>
  </g>
 </g>
</svg>
