<?xml version="1.0" encoding="UTF-8"?>
<!DOCTYPE svg PUBLIC "-//W3C//DTD SVG 1.1//EN" "http://www.w3.org/Graphics/SVG/1.1/DTD/svg11.dtd">
<!-- Creator: CorelDRAW -->
<svg xmlns="http://www.w3.org/2000/svg" xml:space="preserve" width="2000px" height="1600px" version="1.1" style="shape-rendering:geometricPrecision; text-rendering:geometricPrecision; image-rendering:optimizeQuality; fill-rule:evenodd; clip-rule:evenodd"
viewBox="0 0 2000 1600"
 xmlns:xlink="http://www.w3.org/1999/xlink">
 <defs>
  <style type="text/css">
   <![CDATA[
    .fil6 {fill:#2B0046;fill-rule:nonzero}
    .fil2 {fill:#4D2470;fill-rule:nonzero}
    .fil3 {fill:#765F95;fill-rule:nonzero}
    .fil4 {fill:#784918;fill-rule:nonzero}
    .fil1 {fill:#B58236;fill-rule:nonzero}
    .fil5 {fill:#E9C14E;fill-rule:nonzero}
    .fil0 {fill:#FEFEFE;fill-rule:nonzero}
   ]]>
  </style>
 </defs>
 <g id="Capa_x0020_1">
  <metadata id="CorelCorpID_0Corel-Layer"/>
  <g id="Alcorn_x0020_State_x0020_Braves.cdr">
   <path class="fil0" d="M313.42 910.27c1.9,-3.99 4.19,-10.99 9.93,-9.07 5.03,3.73 6.55,10.48 7.77,16.34 -2.83,-3.72 -4.99,-8.09 -8.74,-10.97 -4.99,0.07 -6.61,5.63 -8.58,9.29 -20.78,50.27 -40.54,100.98 -61.89,151.02l-1.01 -1.72c20.77,-51.67 41.6,-103.3 62.52,-154.89zm239.58 228.14c-2.35,-8.93 -3.4,-18.31 -2.7,-27.51 0.16,8.17 0.82,16.41 3.01,24.32 1.4,4.97 6.25,8.1 10.93,9.62 13.96,4.3 28.71,3.26 43.12,3.33 6.49,0.19 12.9,-0.93 19.28,-2.12 14.09,-4.13 20.08,-19 21.69,-32.34 1.64,-0.24 3.28,-0.45 4.94,-0.64 0.45,2.06 0.92,4.13 1.42,6.22 -1.95,-0.45 -3.89,-0.86 -5.82,-1.26 -2.53,8.85 -4.36,18.43 -10.51,25.63 -7.04,7.36 -17.74,8.64 -27.36,9.42 -15.01,0.53 -30.24,0.6 -44.96,-2.73 -6.13,-1.31 -11.47,-5.75 -13.04,-11.94zm727.17 -80.23c12.15,1.97 24.43,1.92 36.69,1.69 21.54,28.05 40.08,58.37 63.17,85.25 -1.07,-0.14 -3.25,-0.44 -4.33,-0.57 -20.21,-24 -37.28,-50.39 -55.83,-75.63 -3.49,-5.37 -10.69,-4.76 -16.27,-4.87 -7.84,0.35 -15.76,-0.71 -23.49,0.86 0.01,-2.26 0.03,-4.5 0.06,-6.73zm-312.26 9.67c-2.41,-13.11 -4.51,-26.58 -2.75,-39.88 -0.59,13.23 1.09,26.44 4.04,39.33 7.72,36.98 33.79,71.92 71.08,82.69 24.89,7.01 54.15,5.59 74.88,-11.35 17.38,-13.67 26.67,-34.81 30.83,-56.04 0.09,9 -2.83,17.62 -5.9,25.98 -4.03,10.31 -9.47,20.3 -17.33,28.21 -1.47,1.49 -2.88,3.01 -4.33,4.51 -2.65,2.73 -5.63,5.16 -9.07,6.82 -29.76,16.45 -68.23,13.22 -95.8,-6.23 -24.86,-16.86 -39.11,-45.43 -45.65,-74.04zm-669.8 -21.66c4.68,-12.11 8.78,-24.48 13.84,-36.43l0.69 -0.17c4.49,12.18 8.77,24.44 13.35,36.58 -9.29,0.11 -18.58,0.09 -27.88,0.02zm1053.84 -49.66c2.4,7.82 -0.51,15.99 -2.96,23.46 -4.58,12.57 -13.9,25.51 -28.08,27.44 -13.51,1.75 -27.35,0.35 -40.46,-3.24 -0.22,-2.63 -0.98,-5.39 0.29,-7.88l1.04 2.54c12.66,3.7 26.14,4.8 39.21,3.06 6.86,-0.9 12.75,-5.06 17.41,-9.95 8.71,-9.5 13.93,-22.49 13.55,-35.43zm193.77 -20.73c3.01,2.21 5.87,4.61 8.38,7.41 13.49,15.31 27.86,29.8 41.63,44.83 32.28,33.32 65.74,65.46 97.92,98.87 2.42,2.54 5.35,4.8 6.87,8.07 -0.53,0.39 -1.62,1.21 -2.16,1.6 -28.65,-28.53 -57.4,-57 -85.86,-85.73 -21.87,-21.73 -42.48,-44.65 -63.84,-66.83 -0.23,-0.34 -0.64,-1 -0.85,-1.33 -0.33,-0.57 -0.97,-1.72 -1.3,-2.29 -0.19,-1.14 -0.58,-3.46 -0.79,-4.6zm-158.76 25.01c4.61,-9.38 6.41,-19.79 7.81,-30.04 0.12,18.23 -5.63,36.4 -16.88,50.81 -7.48,9.93 -16.46,18.77 -26.03,26.68l-1.56 0.09c-0.36,-1.31 -0.69,-2.61 -0.98,-3.89 15.2,-11.83 29.23,-26.1 37.64,-43.65zm-1075.17 -25.09c-1.83,-2.25 -0.39,-4.43 2.02,-5.17 9.75,30.23 22.41,59.52 31.77,89.86l-1.33 2.59c0.47,0.84 1.36,2.52 1.81,3.35 -22.02,1.09 -44.13,0.12 -66.19,0.4 -0.02,-1.78 -0.03,-3.56 -0.07,-5.31 21.49,0.04 42.98,-0.01 64.47,0.04 -7.71,-20.94 -15.39,-41.87 -23.1,-62.81 -2.95,-7.72 -5.13,-15.8 -9.38,-22.95zm971.08 -52.41c13.06,-2.2 27.24,-2.3 39.47,3.45 20.64,9.23 32.75,33.31 30.06,55.35 0,-18.35 -9.25,-37 -25.16,-46.57 -13.52,-8.45 -30.36,-9.11 -45.61,-6 -0.37,0.73 -1.11,2.18 -1.49,2.91 -0.28,-3.1 -1.9,-8.59 2.73,-9.14zm-258.26 -1.59c1.97,-0.76 4,-1.4 6.05,-1.95 1.59,-0.35 4.77,-1.07 6.36,-1.44 1.12,0.99 2.26,1.99 3.42,3.01 -5.27,0.15 -10.57,1.21 -15.83,0.38zm18.11 -3.34l-0.3 -0.44c11.63,-1.13 23.6,-1.82 34.96,1.48 20.09,5.15 36.68,19.42 48.3,36.19 13.18,19.35 20.14,42.34 22.89,65.43 0.33,8.9 0.9,17.79 1.03,26.69 -0.39,8.24 0.06,16.51 -0.72,24.73 -0.78,-23.07 1.69,-46.7 -4.91,-69.21 -8.63,-34.17 -31.4,-67.49 -65.95,-79.06 -8.06,-2.51 -16.44,-4.35 -24.92,-4.11 -3.27,-0.18 -6.76,0.41 -9.8,-0.93l-0.58 -0.77zm160.54 -5.49c8.89,-1.47 18.48,-1.31 26.86,2.33 6.65,3.18 7.89,11.16 8.24,17.76 0.95,21.42 -0.54,42.89 0.89,64.31 0.18,2.71 0,5.46 -0.51,8.15 -0.92,-22.28 0,-44.74 -0.69,-67.09 -0.37,-5.8 -1.15,-12.73 -6.48,-16.15 -7.33,-4.73 -16.36,-3.66 -24.6,-4.37 -2.57,-0.31 -2.88,-3.07 -3.71,-4.94zm484.07 -1.28c-0.21,-2.43 -0.07,-5.66 3.19,-5.58 18.9,-1.27 37.85,1.35 56.78,0.3 10.61,-0.05 21.49,-1.94 31.96,0.36 0.44,2.68 0.19,5.39 0.1,8.1 -5.37,-0.41 -10.71,-0.98 -15.94,-2.19 -6.43,-1.33 -12.98,-0.36 -19.44,-0.3 -18.76,0.37 -37.5,-0.88 -56.24,-0.69l-0.41 0zm-1214.22 -0.07c0.69,-1.93 0.22,-5.45 3.13,-5.47 10.88,-1.05 21.83,0.16 32.75,0.17 23.09,1.14 46.2,-0.78 69.3,-0.41 3.57,-0.87 6.2,4.09 2.9,6.06 -5.77,0.03 -11.54,0.19 -17.31,0.33 -8.53,-0.43 -17.05,0.02 -25.58,0.12 -21.73,0.45 -43.46,-0.78 -65.19,-0.8zm554.2 -8.15c17.96,-2.71 36.53,-3.87 54.53,-1.02 -13.25,1.59 -26.62,0.57 -39.88,1.59 -31.7,2.23 -62.9,15.41 -85.4,38.04 -17.78,18.27 -30.16,41.56 -35.98,66.33 -1.89,7.15 -2.54,14.56 -4.37,21.73 2.14,-29.51 11.97,-59.01 31.05,-81.91 19.78,-24.39 49.29,-39.77 80.05,-44.76zm-259.38 0.64c42.48,-7.03 85.97,-1.8 127.67,7.22 1.9,1.31 1.23,4.06 1.92,6.01 -19.71,-3.21 -39.25,-7.69 -59.2,-9.24 -31.47,-2.47 -64.01,-2.24 -94.19,8.14 -32.56,11.14 -60.56,35.75 -74.38,67.45 -7.27,15.79 -10.14,33.04 -12.09,50.18 0.64,-29.99 9.78,-60.37 28.88,-83.83 20.07,-24.92 50.02,-40.76 81.39,-45.93z"/>
   <path class="fil1" d="M1112.9 1241.1c166.53,-0.03 333.06,0.04 499.62,-0.03 23.95,46.64 46.6,94.28 76.81,137.32 8.1,11.32 15.91,22.99 26.1,32.58 23.35,22.3 50.08,40.97 78.47,56.26 22.75,11.81 47.71,22.91 74,19.73 0.23,37.67 0,75.33 0.12,112.98 -275.66,0.09 -551.35,0.02 -827.01,0.04 -0.26,-41.56 -0.73,-83.14 -0.37,-124.72 29.4,-1.29 58.85,-1.88 88.19,-4.4 16.09,-1.47 32.66,-4.3 46.72,-12.77 7.12,-4.21 9.93,-12.61 10.59,-20.43 0.9,-12.73 0.83,-25.74 -2.64,-38.12 -7.9,-30.25 -22.94,-57.87 -35.16,-86.47 -11.79,-24 -23.95,-47.82 -35.44,-71.97zm612.34 -198.59c0.21,-22.61 -0.24,-45.34 0.71,-67.97 1.19,21.4 0,42.86 1.05,64.26 -0.43,0.91 -1.31,2.78 -1.76,3.71zm-722.23 -139.53c19.98,-6.77 41.23,-8.86 62.22,-7.98 35.27,0.24 71.54,11.23 98.25,34.94 22.5,19.69 36.24,48.19 40.21,77.65 5.03,36.98 -1.42,76.27 -21.82,107.95 -15.34,23.82 -38.29,42.56 -64.69,52.89 -30.66,12.3 -64.82,14.12 -97.11,8.18 -5.2,-1.01 -10.4,-2.15 -15.2,-4.38 12.27,0.49 23.8,5.96 36.21,5.2 14.94,-0.43 30.14,0.66 44.86,-2.62 22.99,-2.54 44.84,-12.61 62.9,-26.9 25.28,-20.09 41.98,-49.99 47.7,-81.61 3.47,-17.14 3.26,-34.74 2.21,-52.12 -2.87,-28.12 -13.84,-56.46 -34.93,-75.93 -21.47,-22.06 -52.03,-32.3 -81.98,-35.88 -18,-2.85 -36.57,-1.69 -54.53,1.02 -30.76,4.99 -60.27,20.37 -80.05,44.76 -19.08,22.9 -28.91,52.4 -31.05,81.91 -3.3,8.96 0.08,18.31 0.03,27.51 4.23,40.11 25.69,79.36 60.58,100.66 8.62,6.06 18.93,8.84 28.05,14 -21.24,-5.37 -40.68,-17.46 -56.09,-32.94 -46.86,-47.48 -53.09,-127.99 -16.25,-183.16 16.48,-25.12 41.84,-44.14 70.48,-53.15zm-231.49 -470.63c70.86,-144.07 141.34,-288.33 212.29,-432.34 19.49,0.09 38.99,-0.14 58.48,0.12 140.36,279.16 281.31,558.05 421.62,837.26 -160.57,-0.05 -321.15,0.02 -481.72,-0.05 -27.31,-59.79 -54.7,-119.53 -81.94,-179.35 -11.09,19.12 -20.51,39.17 -30.94,58.66 -20.94,40.25 -41.66,80.63 -62.75,120.79 -77.86,-0.15 -155.71,-0.05 -233.56,-0.05 65.86,-135.15 132.47,-269.97 198.52,-405.04zm195.78 -372.59l0 0 -0.19 -0.24c-32.14,66.65 -65.1,132.93 -97.61,199.43 -92.47,188.94 -185.52,377.62 -277.76,566.68 14.1,0 28.19,-0.04 42.29,0l0.26 -0.57c41.16,0.58 82.34,-0.11 123.52,0.32 14.03,0.37 28.07,0.25 42.09,0.07 17.11,-33.73 34.93,-67.09 52.15,-100.75 16.34,-31.08 32.18,-62.43 48.89,-93.3 29.33,64.83 59.09,129.47 88.64,194.19 14.74,-0.02 29.49,0.33 44.22,-0.17 125.12,-0.62 250.24,-0.04 375.36,-0.43 11.79,1.6 23.94,0.15 35.87,0.69 -53.03,-106.11 -106.78,-211.84 -159.93,-317.88 -62.33,-123.01 -123.8,-246.46 -186.38,-369.33 -20.78,-42.32 -42.6,-84.12 -63.26,-126.49 -14.92,-0.99 -29.85,0.71 -44.77,0.12 -7.7,15.93 -15.51,31.82 -23.39,47.66zm-651.29 835.84c4.16,-1.19 9.36,-1.4 12.8,1.69 4.89,4.34 6.96,10.78 9.55,16.59 28.43,68.93 55.76,138.34 84.57,207.12 4.77,10.21 9.34,21.21 18.22,28.61 8.36,6.75 21.06,0.71 28.99,7.96 6.82,-4.8 15.49,-3.66 23.33,-5.03 5.15,-11.33 3.49,-24.18 5.01,-36.24 0.33,-55.82 0.04,-111.65 0.16,-167.46 0.16,-7.58 -1.19,-15.06 -1.78,-22.6 -7.03,-8.87 -19.73,-1.79 -27.88,-8.27 -5.8,-4.89 -3.63,-15.7 3.96,-17.43 7.92,-1.42 16.06,-0.76 24.08,-0.76 15.47,1 30.97,0.5 46.46,0.62 13.23,0.02 26.64,-2.09 39.75,0.28 7.18,2.07 9.05,12.11 3.59,16.98 -6.6,5.75 -15.93,2.07 -23.61,4.23 -5.43,1.52 -5.63,8.28 -5.84,12.92 -0.59,39.75 -0.17,79.51 -0.36,119.28 0.15,22.43 -0.44,44.91 0.76,67.33 0.91,4.95 0.55,10.76 4.05,14.78 6.72,4.89 15.5,4.32 23.38,5.17 12.62,0.38 25.46,1.02 37.89,-1.61 8.04,-1.59 13.43,-8.93 15.33,-16.51 1.86,-5.41 1.31,-12.56 6.97,-15.76 5.29,-3.71 13.46,-0.89 15.22,5.36 1.56,12.09 -0.74,24.18 -2.17,36.15 -1.49,7.34 -1.77,15.84 -7.26,21.54 -6.6,6.27 -16.48,5.17 -24.86,5.86 -21.88,-0.81 -43.8,-1.38 -65.72,-1.49 -20.64,-1.38 -41.37,-1.43 -62.01,-0.14 -9.5,-0.1 -20.23,2.47 -28.21,-4.18 -4.42,2.91 -9.53,4.63 -14.86,4.44 -24.46,-0.01 -48.93,0.33 -73.37,-0.72 -5.72,-0.64 -13.37,-0.54 -16.19,-6.65 -2.07,-5.91 1.52,-11.52 6.86,-13.94 -7.77,-22.37 -17.29,-44.12 -25.29,-66.4 -21.59,-0.83 -43.2,-0.12 -64.81,-0.4 -2.17,0.4 -5.87,-0.93 -6.75,1.94 -5.53,13.04 -10.4,26.37 -15.77,39.5 -3.06,7.91 -6.52,16.1 -5.86,24.77 7.45,1.18 17.27,-1.64 22.54,5.32 2.58,6.06 0.33,14.42 -6.77,16.03 -8.39,1.21 -16.98,0.42 -25.42,0.12 -20.84,-1.92 -41.7,1.83 -62.52,0.05 -9.17,-1.03 -11.9,-14.99 -4.06,-19.46 7.43,-3.01 16.07,-0.66 23.41,-4.08 7.98,-4.56 11.74,-13.44 15.23,-21.49 29.73,-73.31 59.3,-146.68 89.05,-219.98 2.37,-5.25 4.77,-11.28 10.21,-14.04zm-2.59 14.67l0 0c-20.92,51.59 -41.75,103.22 -62.52,154.89l-0.67 -1.14c-7.5,17.77 -14.28,35.82 -21.75,53.61 -4.99,11.56 -8.72,24.19 -17.53,33.55 -7.24,6.86 -17.34,7.98 -26.86,7.82 -7,-0.07 -3.59,10.57 1.83,9.94 14.42,-0.37 28.97,0.81 43.27,-1.33 13.15,1.84 26.53,1.45 39.75,1.05 0.48,-0.64 1.45,-1.94 1.93,-2.57 1.02,-1.64 1.64,-3.46 1.9,-5.48 -8.48,-1.16 -20.07,1.54 -24.65,-7.93 -0.07,0.93 -0.2,2.78 -0.29,3.7 -0.73,-3.63 -0.64,-7.36 0.09,-10.97 0.27,1.78 0.58,3.57 0.95,5.39 0.86,-4.92 1.86,-9.83 3.74,-14.44 6.48,-16.53 12.84,-33.1 19.44,-49.56 0.74,-3.23 4.66,-2.42 7.06,-2.68 23.65,0.19 47.3,-0.1 70.93,0.19 3.92,3.22 4.92,8.35 6.71,12.84 4.55,12.59 9.9,24.85 14.43,37.45 2.12,7.46 4.4,14.9 7.93,21.85 -2.92,1.38 -6.2,2.26 -8.67,4.47 -1.84,3.04 0.24,6.12 2.45,8.24 4.2,1.83 8.76,2.59 13.33,2.44 26.43,0.01 52.9,0.91 79.29,-0.35 0.15,-1.87 0.31,-3.73 0.48,-5.56 0.07,-1.09 0.23,-3.28 0.31,-4.37 -2.83,-4.53 -7.37,-1.57 -10.76,0.4 -4.59,-0.59 -9.36,-0.78 -13.64,-2.68 -9.12,-3.68 -13.46,-13.18 -18.61,-20.87 -9.84,-19.64 -17.29,-40.35 -25.77,-60.59 -20.16,-47.99 -39.18,-96.44 -58.9,-144.6 -2.23,-5.27 -3.96,-10.85 -7.5,-15.44 -1.22,-5.86 -2.74,-12.61 -7.77,-16.34 -5.74,-1.92 -8.03,5.08 -9.93,9.07zm159.69 1.27l0 0c1.47,4.25 6.58,2.63 9.93,3.25 8.55,-0.12 19.62,3.15 21.2,12.91 1.79,14.37 0.27,28.95 1.26,43.4 -1.09,51.84 -0.09,103.76 -0.8,155.6 -1.79,9.49 -0.57,19.92 -5.77,28.45 -5.14,4.86 -13.04,3.01 -19.48,3.78 -3.99,-0.57 -6.03,6.5 -1.73,7.48 0.52,2.09 0.47,5.64 3.66,5.24 15.51,0.55 31.04,-0.49 46.57,-0.45 32.29,-0.11 64.52,2.16 96.8,2.12 7.22,-0.26 14.98,0.88 21.73,-2.29 4.84,-3.91 4.79,-10.94 6.03,-16.52 1.04,-11.14 3.87,-22.37 2.11,-33.54l0.07 -1.68c-0.5,-2.09 -0.97,-4.16 -1.42,-6.22 -1.66,0.19 -3.3,0.4 -4.94,0.64 -1.61,13.34 -7.6,28.21 -21.69,32.34 -6.38,1.19 -12.79,2.31 -19.28,2.12 -14.41,-0.07 -29.16,0.97 -43.12,-3.33 -4.68,-1.52 -9.53,-4.65 -10.93,-9.62 -2.19,-7.91 -2.85,-16.15 -3.01,-24.32 1.47,-11.39 0.59,-22.91 0.71,-34.36 -1.93,-12.56 -1.09,-25.25 -1.24,-37.88 0,-21.32 0.1,-42.63 -0.19,-63.95 0.45,-8.86 -0.93,-17.86 1.07,-26.6 -0.35,17.21 0.1,34.43 -0.29,51.63 -0.26,2.49 2.16,2.51 1.86,0 -0.48,-18.19 0.52,-36.39 -0.83,-54.55 0.47,-7.8 -0.38,-16.91 5.05,-23.26 6.09,-4.72 14.23,-5.27 21.67,-5.05 2.01,-0.22 4.58,0.49 5.96,-1.45 -0.41,-1.59 -1.38,-2.76 -2.88,-3.54 3.3,-1.97 0.67,-6.93 -2.9,-6.06 -23.1,-0.37 -46.21,1.55 -69.3,0.41 -10.92,-0.01 -21.87,-1.22 -32.75,-0.17 -2.91,0.02 -2.44,3.54 -3.13,5.47zm307.47 -15.68c28.53,-1.97 57.34,-1.31 85.59,3.49 8.84,1.36 17.51,3.77 26.42,4.61 6.19,0.17 12.13,5.56 11.92,11.9 -2.99,19.44 -1.6,39.23 -3.28,58.78 -0.31,4.7 -2.28,10.44 -7.2,12.01 -4.2,0.47 -9.71,1.19 -12.35,-2.97 -4.17,-5.36 -2.39,-12.47 -3.85,-18.62 -2.77,-10.25 -8.87,-20.06 -18.33,-25.29 -17.1,-10.11 -37.38,-12.4 -56.83,-13.49 -15.81,0.85 -32.2,2.61 -46.23,10.54 -21.02,11.62 -34.37,33.89 -38.86,57.07 -4.92,24.9 -5.03,51.4 3.47,75.57 8.59,25.91 25.17,50.11 49.25,63.77 12.94,7.27 27.74,11.45 42.63,11.13 16.27,-0.06 33.61,0.65 48.36,-7.38 10.99,-6.06 18.49,-17.39 21.2,-29.52 0.97,-4.01 2.42,-8.39 6.29,-10.5 6.41,-4.22 16.23,1.29 15.77,9.01 0.58,12.72 -2.65,25.21 -4.56,37.71 -1.94,9.02 -2.84,20.28 -11.7,25.43 -10.26,5.63 -22.11,6.94 -33.49,8.77 -34.2,3.49 -69.37,2.96 -102.57,-6.79 -30.02,-8.86 -57.99,-26.68 -76.38,-52.3 -17.52,-24.01 -25.65,-54.13 -25.24,-83.67 -0.79,-24.63 5.67,-49.39 17.62,-70.87 14.99,-26.38 39.5,-47.01 67.75,-57.94 14.25,-5.68 29.41,-8.67 44.6,-10.45zm-12.65 8.17l0 0c-31.37,5.17 -61.32,21.01 -81.39,45.93 -19.1,23.46 -28.24,53.84 -28.88,83.83 -1.07,6.51 -1.06,13.16 0.14,19.67 1.64,15.6 4.83,31.27 11.72,45.45 14.81,32.97 45.21,57.55 79.32,68.49 25.02,8.51 51.67,10.81 77.94,9.93 18.88,-0.12 38.3,-1.43 56.12,-8.19 8.76,-3.24 9.09,-13.83 10.85,-21.55 2.25,-12.77 6.06,-25.83 3.78,-38.84l1.96 0.39c-0.25,-2.18 -0.49,-4.36 -0.73,-6.52 -2.35,0.11 -6.29,-0.81 -6.37,2.66 -2.49,14.46 -11.2,27.71 -23.48,35.72 -10.95,7.07 -24.23,8.61 -36.93,9.68 -11.5,0.41 -23.18,0.76 -34.46,-1.99 -30.09,-6.86 -56.71,-26.96 -72.13,-53.62 -11.33,-18.65 -15.83,-40.43 -17.67,-61.9 -0.94,-9.23 -0.87,-18.59 1.05,-27.71 0.35,0.9 1.05,2.68 1.4,3.56 1.45,-21.21 9.57,-42.18 23.54,-58.32 15.91,-17.98 40.03,-27.41 63.83,-27.24 20.42,-0.88 41.33,1.32 60.14,9.76 12.18,5.17 22.65,14.86 27.25,27.45 3.66,7.41 2.55,15.87 4.8,23.65 0.93,0 2.81,0 3.76,0 1.42,-3.22 2.56,-6.7 0.97,-10.07 1.48,-18.97 -0.45,-38.18 3.06,-56.99 -0.69,-1.95 -0.02,-4.7 -1.92,-6.01 -41.7,-9.02 -85.19,-14.25 -127.67,-7.22zm752.93 -5.79c2.23,-3.62 6.91,-3.61 10.68,-3.23 8.1,1.54 12.5,9.5 17.98,14.93 31.2,32.71 62.58,65.22 94.54,97.2 16.22,16.02 32.14,32.35 47.74,48.98 8.81,8.74 16.79,18.35 26.19,26.48 0.29,-23.26 -1.87,-46.5 -1.59,-69.76 0.46,-23.08 -1.66,-46.11 -1.66,-69.18 -0.12,-6.41 0.15,-13.48 -3.63,-18.99 -7.63,-7.41 -19.97,0.07 -28,-6.49 -3.88,-2.87 -4.04,-8.36 -2.76,-12.58 1.83,-3.88 6.22,-5.58 10.29,-5.66 15.48,-1.02 30.96,0.83 46.45,0.46 13.82,0.31 27.69,-1.83 41.49,-0.12 7.22,0.68 11.45,10.06 6.69,15.74 -4.65,6.53 -13.53,4.54 -20.37,5.49 -6.34,1.92 -6.39,9.81 -6.98,15.24 -0.07,26.49 -0.74,52.97 -1.81,79.44 0.34,29.85 -0.48,59.68 -1.47,89.49 -0.86,20.31 0.66,40.71 -1.07,60.98 -0.24,4.75 -3.19,8.56 -6.29,11.9 -4.96,0.33 -10.52,0.98 -14.61,-2.42 -11.11,-8.38 -20,-19.26 -30.35,-28.52 -26.98,-27.08 -53.81,-54.36 -80.96,-81.29 -23.06,-22.63 -45,-46.34 -67.25,-69.73 -0.72,24.98 1.14,49.9 1.65,74.88 -0.26,20.17 0.91,40.33 1.79,60.47 0.74,6.43 1.12,13.67 5.32,18.9 8.05,4.84 18.99,0.12 26.78,5.77 5.9,5.48 2.69,16.65 -5.53,17.76 -16.84,1.91 -33.88,-0.25 -50.77,-0.33 -13.32,0.72 -26.63,1.41 -39.95,0.85 -4.27,0.01 -7.43,-3.06 -10.56,-5.5 -3.35,2.73 -7.03,5.77 -11.62,5.58 -13.3,0.17 -26.6,0 -39.9,0.07 -13.06,0.05 -26.67,-1.88 -37.95,-8.89 -12.6,-7.66 -22.3,-19.06 -31.42,-30.42 -17.4,-21.92 -32.58,-45.48 -49.4,-67.84 -8.57,0.31 -17.12,-0.57 -25.67,0.09 0.22,19.52 -0.57,39.07 0.96,58.57 0.68,8.24 -1.08,18.3 4.77,24.95 8.19,2.64 17.4,0.86 25.62,3.68 7.56,4.38 5.56,17.91 -3.54,19.17 -23.17,2.37 -46.54,-1.5 -69.77,0.05 -10.42,0.61 -20.83,0.81 -31.25,0.57 -4.35,-0.12 -9.01,-2.14 -11.16,-6.08 -2.41,-4.96 -0.64,-12.06 4.89,-14.01 6.01,-1.76 12.39,-1.55 18.57,-2.29 2.23,-4.86 3.39,-10.09 3.7,-15.41 1.9,-14.39 1.22,-28.92 1.34,-43.38 -0.05,-51.8 0.13,-103.62 -0.08,-155.42 -0.74,-5.53 0.12,-14.43 -6.95,-15.98 -7.54,-2.9 -16.37,0.78 -23.44,-3.73 -6.8,-4.3 -5.37,-16.64 2.94,-18.19 18.31,-2.25 36.78,0.62 55.15,-0.09 28.25,0.78 56.85,-3.37 84.8,2.11 13.89,2.95 27.55,8.69 38.12,18.33 11.9,11.98 19.07,28.38 20.18,45.2 0.86,20.56 -6.27,41.08 -19.11,57.11 -6.82,8.93 -15.08,16.58 -23.21,24.27 20.97,26.48 41.56,53.32 64.2,78.4 10.04,11.47 22.01,22.44 37.11,26.39 7.29,2.25 16.91,-0.34 21.61,7.1 6.58,-8.01 17.6,-4.73 26.42,-7.1 2.82,-1.67 3.25,-5.26 3.7,-8.18 3.27,-28.66 1.07,-57.54 2.16,-86.3 -0.5,-12.16 1.21,-24.27 0.76,-36.41 1.45,-33.93 -0.09,-67.91 1.5,-101.83 0.3,-7.13 -0.62,-15.17 3.99,-21.25zm3.39 9.07l0 0c-0.21,10.38 -0.83,20.73 -1.59,31.09 -0.52,31.08 0.09,62.17 -0.48,93.26 -2.73,21.18 -1.11,42.62 -1.59,63.93 -0.51,14.34 1.26,28.85 -1.47,43.05 -0.35,5.79 -0.26,12.42 -4.99,16.63 -6.65,4.34 -14.88,3.09 -22.36,3.87 -3.45,1.18 -2.4,5.15 -2.95,7.93 9.72,3.85 20.47,0.97 30.66,1.78 6.96,0.72 13.82,-2.32 20.73,-0.62 11.43,1.24 22.99,0.27 34.48,0.77 3.59,-0.46 8.72,1.34 10.6,-2.84 1.87,-1.75 2.78,-5.77 -0.79,-5.91 -9.04,-1.61 -21.01,1.15 -27.07,-7.6 -7.82,-14.91 -6.08,-32.29 -6.6,-48.52 -1.73,-20.63 -0.31,-41.36 -1.09,-62.02 -2.48,-19.24 -1.64,-38.76 -1.08,-58.09 21.36,22.18 41.97,45.1 63.84,66.83 28.46,28.73 57.21,57.2 85.86,85.73l-1.07 0.62c8.21,7.86 16.02,16.12 24.2,24.01 6.15,5.5 11.3,12.61 19.07,15.98 3.82,1.06 5.51,-3.19 7.71,-5.37 -2.47,-18.4 -0.61,-37 -0.78,-55.48 1.35,-32.82 1.81,-65.68 1.59,-98.53 1.19,-27.07 1.19,-54.15 1.92,-81.24 0.58,-9.13 2.74,-20.28 12.42,-23.97 5.23,1.21 10.57,1.78 15.94,2.19 0.09,-2.71 0.34,-5.42 -0.1,-8.1 -10.47,-2.3 -21.35,-0.41 -31.96,-0.36 -18.93,1.05 -37.88,-1.57 -56.78,-0.3 -3.26,-0.08 -3.4,3.15 -3.19,5.58l0.41 0 0.74 2.56c8.73,1.43 19.04,-1.12 26.43,4.91 7.22,5.89 6.34,16.01 6.32,24.35 -0.88,16.26 2.35,32.35 1.56,48.63 0.5,20.65 -1.33,41.45 1.55,61.99 0.45,14.54 -0.34,29.12 0.26,43.67 -13.11,-12.18 -24.63,-25.93 -37.36,-38.51 -15.58,-15.54 -30.21,-31.99 -45.98,-47.32 -19.45,-19.18 -38.54,-38.73 -57.83,-58.09 -13.37,-13.1 -25.38,-27.47 -38.89,-40.44 -4.97,-4.37 -8.56,-10.99 -15.32,-12.78l-1.1 -1.58c-1.92,2.42 -4.2,4.96 -3.87,8.31zm-320.99 5.58l0 0c0.83,1.87 1.14,4.63 3.71,4.94 8.24,0.71 17.27,-0.36 24.6,4.37 5.33,3.42 6.11,10.35 6.48,16.15 0.69,22.35 -0.23,44.81 0.69,67.09 -0.68,15.01 0.15,30.09 -0.18,45.14 0.5,11.59 -2.05,23.06 -1.26,34.67 -0.55,17.8 1.4,35.8 -1.6,53.46 -0.16,6.01 -1.11,12.33 -4.89,17.22 -6.31,3.28 -13.58,2.42 -20.39,3.31 -5.9,2.92 -0.05,11.15 5.08,9.73 14.39,-0.43 28.88,0.74 43.15,-1.35 5.17,0.49 10.31,1.56 15.57,1.23 12.69,-0.43 25.42,0.67 38.08,-0.17 0.52,-0.63 1.56,-1.87 2.06,-2.49 3.33,-0.55 4.68,-5.68 0.55,-6.01 -8.03,-1.38 -16.63,0.05 -24.23,-3.47 -4.11,-2.15 -5.55,-6.81 -7.05,-10.82l-1.59 0.28c-2.8,-18.36 -1.17,-37.09 -2.02,-55.59 -0.59,-8.55 -0.16,-17.11 0.09,-25.67 7.73,-1.57 15.65,-0.51 23.49,-0.86 5.58,0.11 12.78,-0.5 16.27,4.87 18.55,25.24 35.62,51.63 55.83,75.63 1.05,4.14 4.52,6.84 7.46,9.69 6.93,6.46 14.82,12.12 23.87,15.18 11.69,4.06 24.29,2.99 36.46,3.13 9.78,-0.21 19.61,0.39 29.39,-0.23 3.4,0.4 4.16,-3.85 4.09,-6.32 0.17,-2.07 1.56,-4.96 -1.31,-5.68 -6.38,-1.14 -12.97,-1.01 -19.09,-3.34 -17.58,-6.03 -30.71,-20.03 -42.49,-33.78 -20.26,-23.1 -39.2,-47.32 -58.23,-71.43 -1.07,-1.49 -2.4,-2.66 -3.99,-3.51 9.57,-7.91 18.55,-16.75 26.03,-26.68 11.25,-14.41 17,-32.58 16.88,-50.81 0.2,-17.7 -7.46,-35.82 -21.09,-47.31 -17.86,-13.63 -41.3,-17.13 -63.22,-16.86 -28.2,0.28 -56.39,0.76 -84.58,0.11 -6.35,-0.02 -12.74,-0.5 -19.08,0.2 -3.53,-0.36 -2.92,3.82 -3.54,5.98zm-164.24 10.4c12.96,-3.09 26,0.36 39,0.9 34.55,11.57 57.32,44.89 65.95,79.06 6.6,22.51 4.13,46.14 4.91,69.21 0.78,-8.22 0.33,-16.49 0.72,-24.73 2.84,5.06 1.44,11.19 1.85,16.75 -1.74,24.31 -7.15,49.56 -22.47,69.17 -1.74,1.55 -3.3,5.13 -6.22,3.14 7.86,-7.91 13.3,-17.9 17.33,-28.21 3.07,-8.36 5.99,-16.98 5.9,-25.98 -4.16,21.23 -13.45,42.37 -30.83,56.04 -20.73,16.94 -49.99,18.36 -74.88,11.35 -37.29,-10.77 -63.36,-45.71 -71.08,-82.69 0.38,-10.95 -3.42,-21.47 -3.35,-32.42 -0.54,-27.95 2.89,-57.75 19.57,-81.12 12.11,-17.65 32.63,-28.03 53.6,-30.47zm-2.45 3.78l0 0c-17.66,2.18 -34.84,10.87 -45.33,25.5 -15.51,21.05 -19.83,48.23 -19.57,73.81 -0.59,31.69 7.62,64.82 28.33,89.49 16.7,20.09 42.63,31.77 68.7,31.63 20.15,0.48 40.61,-8.79 52.66,-25.13 12.94,-17.04 17.9,-38.61 19.76,-59.53 0.45,-16.8 1.32,-33.85 -2.15,-50.42 -4.41,-23.21 -14.41,-46.03 -31.72,-62.53 -18.36,-18 -45.31,-26.46 -70.68,-22.82zm110.24 146.53l0 0c-1.2,1.94 -2.01,6.72 0.53,7.62 1.19,-1.97 1.83,-6.72 -0.53,-7.62zm134.82 -144.06c15.25,-3.11 32.09,-2.45 45.61,6 15.91,9.57 25.16,28.22 25.16,46.57 -0.47,4.78 -0.83,9.6 -0.45,14.42 0.38,12.94 -4.84,25.93 -13.55,35.43 -4.66,4.89 -10.55,9.05 -17.41,9.95 -13.07,1.74 -26.55,0.64 -39.21,-3.06l-1.04 -2.54c-0.72,-4.97 -0.69,-10.02 -0.69,-15.01 0.14,-29.62 -0.03,-59.25 0.09,-88.85 0.38,-0.73 1.12,-2.18 1.49,-2.91zm5.18 2.16l0 0c0.43,33.29 -0.09,66.59 0.22,99.86 -0.05,4.03 5.41,2.97 8.02,3.73 11.92,0.59 26.43,3.68 35.91,-5.6 11.57,-10.84 14.91,-27.67 14.44,-42.94 0.59,-18.81 -6.27,-39.76 -22.91,-50.16 -10.6,-6.89 -23.69,-5.53 -35.68,-4.89zm-975.02 44.02c4.25,7.15 6.43,15.23 9.38,22.95 7.71,20.94 15.39,41.87 23.1,62.81 -21.49,-0.05 -42.98,0 -64.47,-0.04 10,-28.79 21.18,-57.22 31.99,-85.72zm-2.73 25.15l0 0c-6.42,17.89 -13.47,35.54 -19.86,53.44 15.22,0.26 30.43,0.28 45.65,-0.02 -7.22,-20 -14.63,-39.93 -21.87,-59.92 -1.84,1.78 -3.14,4.04 -3.92,6.5zm122.42 240.2c78.65,0.24 157.27,-0.35 235.9,0.29 -10.07,22.06 -20.9,43.76 -31.35,65.64 -7.37,15.5 -11.97,32.1 -17.25,48.39 -6.81,21.4 -11.8,44.2 -8.24,66.69 2.69,16.22 16.98,27.1 31.43,32.75 15.71,5.98 31.68,11.87 48.47,13.9 17,2.18 34.17,2.32 51.29,2.54 0.39,42.86 0.43,85.71 1.5,128.53 -203.74,0.4 -407.5,0.06 -611.24,0.18 -0.01,-31.06 0,-62.12 -0.01,-93.18 42.61,-1.91 83.93,-14.9 123.07,-31.16 23.99,-10.78 48.66,-22.63 66.69,-42.3 44.98,-58.76 82.15,-123.57 109.74,-192.27zm7.41 12.06l0 0c-3.35,8.11 -7.24,16.01 -11.02,23.94 -26.48,54.5 -55.29,108.27 -91.67,156.89 -22.59,31.27 -59.9,45.78 -94.52,59.4 -31.25,12.56 -64.05,21.65 -97.73,24.12 -0.25,14.82 -0.3,29.66 0.24,44.49 0.24,8.87 -0.54,17.78 0.66,26.62l-0.35 0.26c195.64,-0.2 391.28,-0.2 586.92,0l-0.32 -0.43c-0.41,-35.29 -0.29,-70.61 -1.2,-105.9 -34.14,0.17 -69.36,-4.7 -99.93,-20.64 -14.58,-7.24 -26.62,-20.32 -30.28,-36.42 -5.56,-22.83 0.21,-46.34 6.04,-68.52 1.87,-3.71 2.77,-7.81 4.06,-11.73 10.64,-31.78 24.89,-62.18 39.28,-92.39 -14.35,0.06 -28.72,-0.28 -43.09,0.19 -40.84,0.24 -81.69,0.24 -122.54,0.12 -14.84,-0.4 -29.71,-0.4 -44.55,0zm692.75 -0.26l0 0c6.51,16.18 15.86,31.02 23.29,46.77 11.93,26.07 24.83,51.81 33.68,79.15 6.67,20.78 11.92,42.86 8.39,64.76 -2.16,8.2 -5.71,16.41 -12.21,22.13 -6.82,6.16 -15.77,9.05 -24.6,10.98 -35.53,7.93 -72.1,9.19 -108.37,9.76 1.11,26.91 0.24,53.86 0.52,80.79 0.31,7.08 -0.93,14.32 0.91,21.3l-0.41 0.27c267.79,-0.03 535.6,-0.22 803.4,0.11l-0.22 -0.23c1.05,-7.72 0.5,-15.49 0.6,-23.23 -0.03,-21.39 0.06,-42.75 -0.01,-64.12 0.77,-3.37 -3.7,-2.71 -5.51,-3.42 -29.02,-4.85 -55.76,-17.76 -81.53,-31.33l0.03 -0.87c-25.36,-15.15 -48.24,-34.22 -68.42,-55.72 -19.76,-20.44 -33.84,-45.36 -48.21,-69.65 -16.5,-28.76 -32.16,-58 -47.4,-87.45 -12.78,-0.16 -25.56,0.03 -38.33,-0.14l0.23 0.74c-44.22,-0.78 -88.5,-0.1 -132.73,-0.31 -80.03,0.16 -160.08,-0.05 -240.09,0.5l-0.29 -0.52c-20.88,-0.74 -41.82,-0.19 -62.72,-0.27z"/>
   <path class="fil2" d="M967.3 59.76c7.88,-15.84 15.69,-31.73 23.39,-47.66 14.92,0.59 29.85,-1.11 44.77,-0.12 20.66,42.37 42.48,84.17 63.26,126.49 0.45,13.3 0.1,26.62 0.07,39.92 0.03,3.32 0.08,6.77 1.57,9.85 17.12,34.44 33.53,69.25 50.26,103.88 74.44,153.37 148.64,306.84 223.3,460.1 12.11,24.07 23.3,48.6 35.24,72.77 -125.12,0.39 -250.24,-0.19 -375.36,0.43 -32.66,-61.51 -64.89,-123.28 -97.35,-184.91 -11.92,-21.84 -22.56,-44.4 -35.25,-65.8 -0.68,18.88 -0.3,37.8 -0.26,56.69 -16.71,30.87 -32.55,62.22 -48.89,93.3 -10.65,-1.78 -20.17,-9 -31.16,-8.38 -22.37,35.5 -42.13,72.69 -63.08,109.06 -41.18,-0.43 -82.36,0.26 -123.52,-0.32 112.48,-246.01 225.92,-491.61 337.68,-737.94 1.98,-5.01 5.59,-9.64 6.04,-15.1 -3.37,-4.26 -7.46,-7.89 -10.71,-12.26zm227.35 1193.9c80.01,-0.55 160.06,-0.34 240.09,-0.5 44.23,0.21 88.51,-0.47 132.73,0.31 6.85,21.21 16.7,41.32 26.32,61.39 15.24,30.39 32.46,59.85 52.55,87.3 32,44.17 72.68,83.45 122.59,106.63 0.98,-14.06 -0.25,-28.16 0.64,-42.23 25.77,13.57 52.51,26.48 81.53,31.33 1.81,0.71 6.28,0.05 5.51,3.42 0.07,21.37 -0.02,42.73 0.01,64.12 -0.1,7.74 0.45,15.51 -0.6,23.23 -10.49,-10.5 -19.93,-22.02 -30.54,-32.4 -1.8,-2.14 -4.7,-1.83 -7.13,-1.95 -187.73,0.32 -375.48,-0.38 -563.22,0.77 -19.18,-0.27 -38.4,0.83 -57.54,-0.69 4.15,-0.59 8.28,-1.29 12.4,-1.95 1.51,-14.61 1.4,-29.43 0.18,-44.05 -8.9,2.28 -17.21,6.34 -26.12,8.54 -27.07,6.96 -55.17,6.72 -82.83,9.08 -0.15,9.57 -0.27,19.16 0.26,28.74 -15.39,12.17 -32.23,22.37 -48.23,33.76 -1.84,-6.98 -0.6,-14.22 -0.91,-21.3 -0.28,-26.93 0.59,-53.88 -0.52,-80.79 36.27,-0.57 72.84,-1.83 108.37,-9.76 8.83,-1.93 17.78,-4.82 24.6,-10.98 6.5,-5.72 10.05,-13.93 12.21,-22.13 12.27,12.12 22.8,25.86 34.22,38.74 2.16,2.66 7.14,5.32 9.4,1.32 6.39,-11.46 9.9,-24.39 11.68,-37.33 3.78,-22.27 -1.09,-45 -8.42,-66.04 -13.9,-43.11 -30.81,-85.23 -49.23,-126.58zm-711.21 -0.53c40.85,0.12 81.7,0.12 122.54,-0.12 -11.09,28.82 -21.32,58.02 -29.14,87.92 -1.14,4.33 -1.45,8.82 -1.75,13.28 10.19,1.05 20.38,2.57 30.64,2.73 -5.83,22.18 -11.6,45.69 -6.04,68.52 3.66,16.1 15.7,29.18 30.28,36.42 30.57,15.94 65.79,20.81 99.93,20.64 0.91,35.29 0.79,70.61 1.2,105.9 -7.3,-10.07 -14.02,-20.54 -20.97,-30.85 -90.68,0.05 -181.35,-0.02 -272.03,0.36 -25.67,-0.01 -51.34,0.42 -76.99,-0.01 0.74,-11.32 -2.33,-22.55 -0.74,-33.81 1.39,-11.57 0.69,-23.23 -0.49,-34.75 -0.79,-7.67 2.64,-15.53 -0.53,-22.91 -9.49,11.78 -20.9,22.08 -34.27,29.28 -16.93,8.62 -34.17,17.02 -52.77,21.42 -29.14,7.86 -58.84,13.47 -88.51,18.93 -0.28,7.14 -0.31,14.29 -0.07,21.44 46.81,0.33 93.64,-0.04 140.45,-0.24 3.64,0.07 7.27,0.34 10.91,0.53 -5.39,0.31 -10.77,0.73 -16.18,0.69 -42.01,-0.29 -84.04,0.26 -126.05,-0.03 -3.88,0.1 -8.25,-0.36 -11.4,2.42 -12.21,9.22 -24.32,18.58 -36.61,27.7 -1.2,-8.84 -0.42,-17.75 -0.66,-26.62 -0.54,-14.83 -0.49,-29.67 -0.24,-44.49 33.68,-2.47 66.48,-11.56 97.73,-24.12 34.62,-13.62 71.93,-28.13 94.52,-59.4 12.56,2.75 23.3,10.54 35.67,13.58 8.79,-8.91 14.42,-20.31 21.37,-30.63 32.7,-53.1 61.52,-108.44 90.2,-163.78z"/>
   <path class="fil3" d="M967.11 59.52l0.19 0.24c3.25,4.37 7.34,8 10.71,12.26 -0.45,5.46 -4.06,10.09 -6.04,15.1 -111.76,246.33 -225.2,491.93 -337.68,737.94l-0.26 0.57c-14.1,-0.04 -28.19,0 -42.29,0 92.24,-189.06 185.29,-377.74 277.76,-566.68 32.51,-66.5 65.47,-132.78 97.61,-199.43zm216.94 1457.41c8.91,-2.2 17.22,-6.26 26.12,-8.54 1.22,14.62 1.33,29.44 -0.18,44.05 -4.12,0.66 -8.25,1.36 -12.4,1.95 -32.04,0.02 -64.07,0.05 -96.11,0.36 -0.53,-9.58 -0.41,-19.17 -0.26,-28.74 27.66,-2.36 55.76,-2.12 82.83,-9.08zm-858.97 -21.2c13.37,-7.2 24.78,-17.5 34.27,-29.28 3.17,7.38 -0.26,15.24 0.53,22.91 1.18,11.52 1.88,23.18 0.49,34.75 -1.59,11.26 1.48,22.49 0.74,33.81 -8.67,-0.32 -17.34,-0.18 -26.02,-0.11 -3.64,-0.19 -7.27,-0.46 -10.91,-0.53 -46.81,0.2 -93.64,0.57 -140.45,0.24 -0.24,-7.15 -0.21,-14.3 0.07,-21.44 29.67,-5.46 59.37,-11.07 88.51,-18.93 18.6,-4.4 35.84,-12.8 52.77,-21.42zm1242.16 -243c12.77,0.17 25.55,-0.02 38.33,0.14 15.24,29.45 30.9,58.69 47.4,87.45 14.37,24.29 28.45,49.21 48.21,69.65 20.18,21.5 43.06,40.57 68.42,55.72l-0.03 0.87c-0.89,14.07 0.34,28.17 -0.64,42.23 -49.91,-23.18 -90.59,-62.46 -122.59,-106.63 -20.09,-27.45 -37.31,-56.91 -52.55,-87.3 -9.62,-20.07 -19.47,-40.18 -26.32,-61.39l-0.23 -0.74zm-435.6 0.14c20.9,0.08 41.84,-0.47 62.72,0.27l0.29 0.52c18.42,41.35 35.33,83.47 49.23,126.58 7.33,21.04 12.2,43.77 8.42,66.04 -1.78,12.94 -5.29,25.87 -11.68,37.33 -2.26,4 -7.24,1.34 -9.4,-1.32 -11.42,-12.88 -21.95,-26.62 -34.22,-38.74 3.53,-21.9 -1.72,-43.98 -8.39,-64.76 -8.85,-27.34 -21.75,-53.08 -33.68,-79.15 -7.43,-15.75 -16.78,-30.59 -23.29,-46.77zm-525.66 0.14c14.37,-0.47 28.74,-0.13 43.09,-0.19 -14.39,30.21 -28.64,60.61 -39.28,92.39 -1.29,3.92 -2.19,8.02 -4.06,11.73 -10.26,-0.16 -20.45,-1.68 -30.64,-2.73 0.3,-4.46 0.61,-8.95 1.75,-13.28 7.82,-29.9 18.05,-59.1 29.14,-87.92zm-167.09 0.12c14.84,-0.4 29.71,-0.4 44.55,0 -28.68,55.34 -57.5,110.68 -90.2,163.78 -6.95,10.32 -12.58,21.72 -21.37,30.63 -12.37,-3.04 -23.11,-10.83 -35.67,-13.58 36.38,-48.62 65.19,-102.39 91.67,-156.89 3.78,-7.93 7.67,-15.83 11.02,-23.94zm382 -536.81c10.99,-0.62 20.51,6.6 31.16,8.38 -17.22,33.66 -35.04,67.02 -52.15,100.75 -14.02,0.18 -28.06,0.3 -42.09,-0.07 20.95,-36.37 40.71,-73.56 63.08,-109.06zm80.31 -141.61c12.69,21.4 23.33,43.96 35.25,65.8 32.46,61.63 64.69,123.4 97.35,184.91 -14.73,0.5 -29.48,0.15 -44.22,0.17 -29.55,-64.72 -59.31,-129.36 -88.64,-194.19 -0.04,-18.89 -0.42,-37.81 0.26,-56.69zm197.52 -436.24c62.58,122.87 124.05,246.32 186.38,369.33 53.15,106.04 106.9,211.77 159.93,317.88 -11.93,-0.54 -24.08,0.91 -35.87,-0.69 -11.94,-24.17 -23.13,-48.7 -35.24,-72.77 -74.66,-153.26 -148.86,-306.73 -223.3,-460.1 -16.73,-34.63 -33.14,-69.44 -50.26,-103.88 -1.49,-3.08 -1.54,-6.53 -1.57,-9.85 0.03,-13.3 0.38,-26.62 -0.07,-39.92z"/>
   <path class="fil4" d="M309.06 1000.87c0.78,-2.46 2.08,-4.72 3.92,-6.5 7.24,19.99 14.65,39.92 21.87,59.92 -15.22,0.3 -30.43,0.28 -45.65,0.02 6.39,-17.9 13.44,-35.55 19.86,-53.44zm-60.94 151.81c4.58,9.47 16.17,6.77 24.65,7.93 -0.26,2.02 -0.88,3.84 -1.9,5.48 -5.82,0.01 -11.95,0.74 -17.51,-1.33 -3.53,-1.28 -5.27,-4.86 -5.53,-8.38 0.09,-0.92 0.22,-2.77 0.29,-3.7zm1033.92 -6.51l1.59 -0.28c1.5,4.01 2.94,8.67 7.05,10.82 7.6,3.52 16.2,2.09 24.23,3.47 4.13,0.33 2.78,5.46 -0.55,6.01 -7.84,-0.33 -15.98,-0.17 -23.44,-2.85 -6.5,-3.09 -7.38,-10.99 -8.88,-17.17zm-172.68 1.95c3.44,-1.66 6.42,-4.09 9.07,-6.82 -0.66,4.32 -5.01,6.79 -9.07,6.82zm-454.74 -27.15c1.76,11.17 -1.07,22.4 -2.11,33.54 -1.24,5.58 -1.19,12.61 -6.03,16.52 -6.75,3.17 -14.51,2.03 -21.73,2.29 -32.28,0.04 -64.51,-2.23 -96.8,-2.12 -15.53,-0.04 -31.06,1 -46.57,0.45 -3.19,0.4 -3.14,-3.15 -3.66,-5.24 12.73,0.25 25.39,-1.9 38.14,-1.46 40.33,-0.68 80.63,2.6 120.97,1.65 4.83,-0.15 11.35,-1.05 12.52,-6.78 3.42,-12.63 4.51,-25.83 5.27,-38.85zm-300.9 -43.26c10.24,22.11 17.8,45.42 27.29,67.89 3,6.03 3.07,12.8 2.22,19.35 27.57,0.88 55.18,1.14 82.76,0.74 -0.17,1.83 -0.33,3.69 -0.48,5.56 -26.39,1.26 -52.86,0.36 -79.29,0.35 -4.57,0.15 -9.13,-0.61 -13.33,-2.44 2.5,-2.38 5.61,-3.84 8.84,-4.94 2.92,-11.97 -4.3,-22.63 -7.96,-33.49 -6.56,-17.73 -14.13,-35.09 -20.05,-53.02zm-80.98 0.82c25.75,-0.33 51.51,-0.04 77.28,-0.16 0,1.97 0,3.94 0.02,5.94 -23.63,-0.29 -47.28,0 -70.93,-0.19 -2.4,0.26 -6.32,-0.55 -7.06,2.68 -6.6,16.46 -12.96,33.03 -19.44,49.56 -1.88,4.61 -2.88,9.52 -3.74,14.44 -0.37,-1.82 -0.68,-3.61 -0.95,-5.39 1.36,-8.19 4.54,-15.91 7.6,-23.58 5.8,-14.41 11.41,-28.88 17.22,-43.3zm1077.56 -30.18l1.56 -0.09c1.59,0.85 2.92,2.02 3.99,3.51 19.03,24.11 37.97,48.33 58.23,71.43 11.78,13.75 24.91,27.75 42.49,33.78 6.12,2.33 12.71,2.2 19.09,3.34 2.87,0.72 1.48,3.61 1.31,5.68 -8.5,-0.24 -17.24,-0.74 -25.1,-4.32 -12.57,-5.56 -22.9,-15.08 -31.97,-25.24 -21.96,-24.32 -41.75,-50.45 -62.24,-75.98 -3.02,-3.66 -6.32,-7.34 -7.36,-12.11zm-642.58 -15.18c1.84,21.47 6.34,43.25 17.67,61.9 15.42,26.66 42.04,46.76 72.13,53.62 11.28,2.75 22.96,2.4 34.46,1.99 12.7,-1.07 25.98,-2.61 36.93,-9.68 12.28,-8.01 20.99,-21.26 23.48,-35.72 0.08,-3.47 4.02,-2.55 6.37,-2.66 0.24,2.16 0.48,4.34 0.73,6.52l-1.96 -0.39c-0.86,-0.17 -2.6,-0.5 -3.47,-0.67 -2.71,7.81 -4.56,16.07 -9.13,23.08 -6.57,11.3 -18,19.33 -30.61,22.45 -14.55,3.68 -29.75,3.84 -44.66,3.23 -31.04,-2.71 -59.66,-20.62 -77.93,-45.51 -16.36,-22.47 -23.98,-50.56 -24.01,-78.16zm840.09 -50.48c0.21,0.33 0.62,0.99 0.85,1.33 -0.56,19.33 -1.4,38.85 1.08,58.09 0.78,20.66 -0.64,41.39 1.09,62.02 0.52,16.23 -1.22,33.61 6.6,48.52 6.06,8.75 18.03,5.99 27.07,7.6 3.57,0.14 2.66,4.16 0.79,5.91 -9.07,-0.21 -19.81,0.89 -27.08,-5.53 -6.93,-9.75 -6.79,-22.48 -7.81,-33.91 0.19,-17.9 -1.42,-35.74 -1.04,-53.63 -0.24,-13.32 0.75,-26.71 -1.14,-39.94 -1.21,-16.79 -0.33,-33.65 -0.41,-50.46zm-1234 -12.14c1.07,1.35 1.94,2.82 2.59,4.42 10.47,28.49 20.82,57 31.51,85.4 -0.59,0 -1.74,0.02 -2.33,0.04 -9.36,-30.34 -22.02,-59.63 -31.77,-89.86zm716.85 -50.78c3.78,-1.75 7.95,-2.53 12.06,-1.39l0.58 0.77c3.04,1.34 6.53,0.75 9.8,0.93 8.48,-0.24 16.86,1.6 24.92,4.11 -13,-0.54 -26.04,-3.99 -39,-0.9 -20.97,2.44 -41.49,12.82 -53.6,30.47 -16.68,23.37 -20.11,53.17 -19.57,81.12 -0.07,10.95 3.73,21.47 3.35,32.42 -2.95,-12.89 -4.63,-26.1 -4.04,-39.33 -0.21,-24.74 3.06,-50.32 15.41,-72.17 9.12,-16.36 24.63,-29.43 42.89,-34.24l1.15 0.16c5.26,0.83 10.56,-0.23 15.83,-0.38 -1.16,-1.02 -2.3,-2.02 -3.42,-3.01 -1.59,0.37 -4.77,1.09 -6.36,1.44zm-298.47 27.5c13.74,-17.05 35,-26.69 56.56,-28.56 24.61,-2.03 50.38,0.07 72.84,11.06 11.95,5.78 21.09,16.81 24.68,29.59 1.83,5.9 1.49,12.24 3.18,18.2 1.05,0.26 3.14,0.82 4.2,1.09 0.21,-1.1 0.6,-3.31 0.81,-4.4 1.59,3.37 0.45,6.85 -0.97,10.07 -0.95,0 -2.83,0 -3.76,0 -2.25,-7.78 -1.14,-16.24 -4.8,-23.65 -4.6,-12.59 -15.07,-22.28 -27.25,-27.45 -18.81,-8.44 -39.72,-10.64 -60.14,-9.76 -23.8,-0.17 -47.92,9.26 -63.83,27.24 -13.97,16.14 -22.09,37.11 -23.54,58.32 -0.35,-0.88 -1.05,-2.66 -1.4,-3.56 3.08,-20.83 9.57,-41.89 23.42,-58.19zm-168.31 -35.05c5.77,-0.14 11.54,-0.3 17.31,-0.33 1.5,0.78 2.47,1.95 2.88,3.54 -1.38,1.94 -3.95,1.23 -5.96,1.45 -7.44,-0.22 -15.58,0.33 -21.67,5.05 -5.43,6.35 -4.58,15.46 -5.05,23.26 1.35,18.16 0.35,36.36 0.83,54.55 0.3,2.51 -2.12,2.49 -1.86,0 0.39,-17.2 -0.06,-34.42 0.29,-51.63 0.67,-9.48 -0.67,-19.59 3.7,-28.4 1.71,-3.95 6.09,-5.45 9.53,-7.49zm517.96 -9.85c29.95,3.58 60.51,13.82 81.98,35.88 21.09,19.47 32.06,47.81 34.93,75.93 1.05,17.38 1.26,34.98 -2.21,52.12 -5.72,31.62 -22.42,61.52 -47.7,81.61 -18.06,14.29 -39.91,24.36 -62.9,26.9 -2.87,-1.45 -5.95,-2.16 -9.06,-2.71 29.33,-2.87 58.13,-14.84 79.27,-35.62 21.42,-20.31 35.12,-48.02 40.18,-76.95 5.17,-28.26 2.59,-58.54 -10.24,-84.49 -10.13,-20.54 -27.12,-37.33 -47.18,-48.17 -25.44,-13.96 -54.65,-19.52 -83.41,-20.46 -4.6,-0.32 -9.07,-1.52 -13.54,-2.45 13.26,-1.02 26.63,0 39.88,-1.59zm447.38 -1.79c6.76,1.79 10.35,8.41 15.32,12.78 13.51,12.97 25.52,27.34 38.89,40.44 19.29,19.36 38.38,38.91 57.83,58.09 15.77,15.33 30.4,31.78 45.98,47.32 12.73,12.58 24.25,26.33 37.36,38.51 0.64,0.62 1.9,1.88 2.54,2.5 0.49,-9.83 -0.19,-19.67 0.61,-29.47 0.15,11.94 0.38,23.88 0.1,35.79 -10.21,-7.51 -17.84,-17.87 -26.88,-26.68 -47.02,-49.65 -96.11,-97.29 -142.88,-147.16 -9.73,-10.6 -20.75,-20.15 -28.87,-32.12zm-1222.07 -8.64c5.58,-6.81 16.2,-8.45 23.59,-3.71 7.1,4.45 10.07,12.73 13.3,20.05 28.37,69.59 55.35,139.78 84.28,209.16 4.37,9.5 8.46,19.76 16.46,26.88 7.74,4.96 17.65,1.33 25.89,4.99 6,-2.05 12.35,-2.03 18.61,-2.5 2.81,-14.58 2.52,-29.5 2.67,-44.27 -0.06,-52.98 0.13,-105.98 -0.08,-158.95 -0.64,-4.98 0.93,-10.89 -2.04,-15.19 -7.29,-2.05 -15.51,0.16 -22.28,-3.87 -9.55,-4.9 -10.89,-19.98 -2.61,-26.68 5.28,-4.93 13.01,-4.89 19.78,-4.79 29.4,1.19 58.8,1.12 88.2,-0.03 6.63,-0.09 14.23,0.5 18.86,5.91 7.15,7.03 5.28,20.57 -3.46,25.44 -7.25,4.14 -15.98,2.35 -23.9,3.71 -1.87,17.79 -1.32,35.71 -1.39,53.57 0,32.8 0,65.58 0,98.4 0.19,17.26 -0.48,34.78 3.04,51.77 13.32,4.51 27.66,3.3 41.5,3.46 6.56,-0.5 13.92,-0.3 19.48,-4.41 8.17,-7.1 4.27,-20.36 12.71,-27.17 4.96,-4.39 12.01,-4.63 18.11,-2.95 -12.42,-27.73 -16.54,-59.09 -12.2,-89.13 4.49,-30.73 18.73,-60.3 41.49,-81.67 23.98,-23.44 56.66,-36.31 89.67,-39.99 35.93,-3.99 72.39,-0.92 107.7,6.43 6.79,1.36 14.68,0.86 20.1,5.94 4.89,3.99 6.74,10.74 5.76,16.86 -2.49,18.41 -1.73,37.01 -2.65,55.53 -0.55,6.15 -2.76,12.87 -8.37,16.2 -6.85,4.63 -16.88,3.44 -22.31,-2.85 -3.59,-4.11 -4.5,-9.7 -4.68,-14.96 -0.39,-12.4 -7.65,-24.71 -19.24,-29.72 -22.54,-10.68 -48.61,-12.51 -72.98,-8.35 -16.58,2.75 -31.73,12.32 -41.61,25.88 -13.56,18.22 -17.62,41.58 -17.9,63.81 -0.84,22.47 3.61,45.51 15.2,64.96 15.41,26.14 43.09,45.48 73.56,48.4 13.35,0.52 26.99,0.31 40,-3.07 10.68,-2.77 19.76,-10.57 24.1,-20.73 3.38,-6.2 2.8,-14.15 7.87,-19.43 6.71,-7.79 20.68,-7.24 26.47,1.35 4.21,5.9 3.74,13.57 2.79,20.4 -2,14.33 -3.85,28.75 -7.73,42.73 -1.83,6.86 -6.38,13.07 -12.87,16.18 -13.2,6.24 -27.95,7.9 -42.31,9.45 -36.01,2.65 -73.17,1.45 -107.42,-11.05 -29.09,-10.54 -55.22,-29.75 -72.6,-55.47 -0.52,15 -2.28,30.06 -5.61,44.71 -1.8,9.1 -9.24,16.79 -18.55,18.13 -17.12,2.49 -34.46,0.31 -51.69,0.68 -28.77,-0.35 -57.53,-2.89 -86.31,-1.3 -11.59,-0.15 -23.6,2.44 -34.76,-1.73 -4.59,0.28 -8.96,2.39 -13.64,2.25 -25.84,0.02 -51.68,0.29 -77.51,-0.71 -7.01,0 -15.25,-2.18 -18.57,-9 -4.19,-6.94 -1.19,-15.56 4.1,-20.93 -7.43,-19.76 -14.82,-39.52 -22.39,-59.23 -20.5,0.08 -41.02,0.19 -61.53,-0.04 -7.22,18.52 -14.92,36.95 -20.67,56 6.65,-0.15 14.21,-0.31 19.21,4.89 8.94,8.45 4.52,25.62 -7.62,28.29 -14.24,2.11 -28.66,-0.39 -42.96,-0.24 -15.51,0.43 -31.02,1.57 -46.55,0.83 -10.3,-0.5 -18.24,-11.47 -15.22,-21.4 1.61,-6.17 6.82,-11.11 13.18,-11.99 6.16,-0.78 12.83,0.28 18.55,-2.66 6.82,-4.68 9.52,-12.97 12.71,-20.21 27.66,-69.49 55.52,-138.89 83.28,-208.35 3.59,-8.33 6.06,-17.45 11.99,-24.51zm8.86 3.66l0 0c-5.44,2.76 -7.84,8.79 -10.21,14.04 -29.75,73.3 -59.32,146.67 -89.05,219.98 -3.49,8.05 -7.25,16.93 -15.23,21.49 -7.34,3.42 -15.98,1.07 -23.41,4.08 -7.84,4.47 -5.11,18.43 4.06,19.46 20.82,1.78 41.68,-1.97 62.52,-0.05 8.44,0.3 17.03,1.09 25.42,-0.12 7.1,-1.61 9.35,-9.97 6.77,-16.03 -5.27,-6.96 -15.09,-4.14 -22.54,-5.32 -0.66,-8.67 2.8,-16.86 5.86,-24.77 5.37,-13.13 10.24,-26.46 15.77,-39.5 0.88,-2.87 4.58,-1.54 6.75,-1.94 21.61,0.28 43.22,-0.43 64.81,0.4 8,22.28 17.52,44.03 25.29,66.4 -5.34,2.42 -8.93,8.03 -6.86,13.94 2.82,6.11 10.47,6.01 16.19,6.65 24.44,1.05 48.91,0.71 73.37,0.72 5.33,0.19 10.44,-1.53 14.86,-4.44 7.98,6.65 18.71,4.08 28.21,4.18 20.64,-1.29 41.37,-1.24 62.01,0.14 21.92,0.11 43.84,0.68 65.72,1.49 8.38,-0.69 18.26,0.41 24.86,-5.86 5.49,-5.7 5.77,-14.2 7.26,-21.54 1.43,-11.97 3.73,-24.06 2.17,-36.15 -1.76,-6.25 -9.93,-9.07 -15.22,-5.36 -5.66,3.2 -5.11,10.35 -6.97,15.76 -1.9,7.58 -7.29,14.92 -15.33,16.51 -12.43,2.63 -25.27,1.99 -37.89,1.61 -7.88,-0.85 -16.66,-0.28 -23.38,-5.17 -3.5,-4.02 -3.14,-9.83 -4.05,-14.78 -1.2,-22.42 -0.61,-44.9 -0.76,-67.33 0.19,-39.77 -0.23,-79.53 0.36,-119.28 0.21,-4.64 0.41,-11.4 5.84,-12.92 7.68,-2.16 17.01,1.52 23.61,-4.23 5.46,-4.87 3.59,-14.91 -3.59,-16.98 -13.11,-2.37 -26.52,-0.26 -39.75,-0.28 -15.49,-0.12 -30.99,0.38 -46.46,-0.62 -8.02,0 -16.16,-0.66 -24.08,0.76 -7.59,1.73 -9.76,12.54 -3.96,17.43 8.15,6.48 20.85,-0.6 27.88,8.27 0.59,7.54 1.94,15.02 1.78,22.6 -0.12,55.81 0.17,111.64 -0.16,167.46 -1.52,12.06 0.14,24.91 -5.01,36.24 -7.84,1.37 -16.51,0.23 -23.33,5.03 -7.93,-7.25 -20.63,-1.21 -28.99,-7.96 -8.88,-7.4 -13.45,-18.4 -18.22,-28.61 -28.81,-68.78 -56.14,-138.19 -84.57,-207.12 -2.59,-5.81 -4.66,-12.25 -9.55,-16.59 -3.44,-3.09 -8.64,-2.88 -12.8,-1.69zm464.57 0.26l0 0c-15.19,1.78 -30.35,4.77 -44.6,10.45 -28.25,10.93 -52.76,31.56 -67.75,57.94 -11.95,21.48 -18.41,46.24 -17.62,70.87 -0.41,29.54 7.72,59.66 25.24,83.67 18.39,25.62 46.36,43.44 76.38,52.3 33.2,9.75 68.37,10.28 102.57,6.79 11.38,-1.83 23.23,-3.14 33.49,-8.77 8.86,-5.15 9.76,-16.41 11.7,-25.43 1.91,-12.5 5.14,-24.99 4.56,-37.71 0.46,-7.72 -9.36,-13.23 -15.77,-9.01 -3.87,2.11 -5.32,6.49 -6.29,10.5 -2.71,12.13 -10.21,23.46 -21.2,29.52 -14.75,8.03 -32.09,7.32 -48.36,7.38 -14.89,0.32 -29.69,-3.86 -42.63,-11.13 -24.08,-13.66 -40.66,-37.86 -49.25,-63.77 -8.5,-24.17 -8.39,-50.67 -3.47,-75.57 4.49,-23.18 17.84,-45.45 38.86,-57.07 14.03,-7.93 30.42,-9.69 46.23,-10.54 19.45,1.09 39.73,3.38 56.83,13.49 9.46,5.23 15.56,15.04 18.33,25.29 1.46,6.15 -0.32,13.26 3.85,18.62 2.64,4.16 8.15,3.44 12.35,2.97 4.92,-1.57 6.89,-7.31 7.2,-12.01 1.68,-19.55 0.29,-39.34 3.28,-58.78 0.21,-6.34 -5.73,-11.73 -11.92,-11.9 -8.91,-0.84 -17.58,-3.25 -26.42,-4.61 -28.25,-4.8 -57.06,-5.46 -85.59,-3.49zm254.45 -6.29c36.93,-3.92 75.86,0.61 108.86,18.55 20.22,11.04 37.58,27.45 48.95,47.56 16.74,28.95 21.54,63.74 17.53,96.63 -3.45,30.03 -15.42,59.26 -35.2,82.25 -23.16,27.26 -56.9,44.53 -92.12,49.58 -31.13,4.35 -63.7,2.05 -92.98,-9.88 -27.1,-10.94 -50.37,-30.89 -65.38,-55.94 -32.75,-53.32 -29.23,-126.7 10.02,-175.74 23.95,-30.97 61.8,-49.03 100.32,-53.01zm-32.02 13.41l0 0c-28.64,9.01 -54,28.03 -70.48,53.15 -36.84,55.17 -30.61,135.68 16.25,183.16 15.41,15.48 34.85,27.57 56.09,32.94 4.8,2.23 10,3.37 15.2,4.38 32.29,5.94 66.45,4.12 97.11,-8.18 26.4,-10.33 49.35,-29.07 64.69,-52.89 20.4,-31.68 26.85,-70.97 21.82,-107.95 -3.97,-29.46 -17.71,-57.96 -40.21,-77.65 -26.71,-23.71 -62.98,-34.7 -98.25,-34.94 -20.99,-0.88 -42.24,1.21 -62.22,7.98zm512.74 -9.49c6.72,-8.81 20.87,-7.73 27.91,0.09 16.15,16.69 31.7,33.94 47.95,50.54 39.34,41.65 80.62,81.39 119.8,123.2 -0.8,-37.75 -1.89,-75.49 -2.46,-113.25 -0.5,-8.69 0.02,-17.58 -2.59,-25.99 -9.5,-1.78 -21.23,1.55 -28.64,-6.29 -8.01,-7.76 -5.11,-23.17 5.67,-26.85 11.78,-3.86 24.35,-0.7 36.5,-1.41 19.6,1.73 39.29,-1.47 58.86,0.08 11.87,1.02 18.83,15.84 12.03,25.64 -5.32,8.76 -16.46,7.58 -25.24,8.77 -2.23,11.97 -1.09,24.19 -1.92,36.26 -0.65,43.18 -1.19,86.35 -2.31,129.52 -0.09,23.59 -0.45,47.19 -1.25,70.78 0.28,8.35 -4.18,17.24 -12.4,20.07 -8.03,2.63 -16.68,-0.81 -22.61,-6.35 -29.54,-27.38 -57.09,-56.8 -85.73,-85.09 -26.73,-26.39 -53.01,-53.22 -78.54,-80.75 -0.17,30.57 1.81,61.13 1.95,91.72 0.66,13.83 0.04,27.93 3.67,41.45 9.31,3.58 21.43,-1.15 28.69,7.45 8.67,9.19 2.48,26.22 -10.14,27.58 -20.58,2.16 -41.3,-1.46 -61.91,0.11 -9.8,0.58 -19.61,0.55 -29.4,0.41 -3.89,0 -7.46,-1.55 -10.97,-2.95 -8.91,4.68 -19.16,2.56 -28.76,2.99 -20.36,-0.42 -42.32,2.43 -60.87,-7.93 -20.38,-11.21 -34.05,-30.75 -47.71,-48.92 -12.32,-16.51 -23.77,-33.61 -35.93,-50.23 -5.41,0.07 -10.81,0.02 -16.18,-0.48 0.24,23.8 -0.97,47.88 2.69,71.47 7.86,4.03 18.17,-0.15 25.91,4.87 7.15,4.15 9.79,14.19 5.94,21.46 -2.69,6.04 -9.36,9.31 -15.72,9.71 -17.22,0.41 -34.44,-0.32 -51.66,-0.92 -16.08,0.03 -32.16,1.57 -48.26,0.86 -6.77,-0.34 -13.67,-4.42 -15.93,-11.03 -2.95,-6.98 -0.21,-15.96 6.41,-19.78 5.72,-3.8 12.85,-2.68 19.33,-3.47 3.16,-16.35 1.97,-33.01 2.9,-49.53 0.02,-46.6 0.04,-93.19 -0.02,-139.79 -0.5,-8.21 -0.32,-16.43 -0.84,-24.63 -0.23,-1.9 -0.26,-5.15 -3.11,-4.8 -7.38,-1.56 -15.44,0.36 -22.35,-3.27 -7.45,-3.71 -10.83,-13.71 -7.24,-21.18 2.57,-6.99 10.26,-10.52 17.34,-10.41 23.01,-0.31 46.02,1.66 69.01,0.48 30.49,-0.43 62.84,-3.26 91.03,10.81 20.21,9.25 33.84,29.49 38.07,50.94 2.66,17.61 0.62,36.14 -7.24,52.24 -7.43,15.47 -18.65,28.95 -31.56,40.18 17.47,22.33 35.03,44.6 53.57,66.07 10.78,12.14 21.8,25.56 37.6,31.16 7.62,3.09 16.4,0.85 23.62,5.09 7.03,-3.66 15.08,-2.59 22.69,-3.49 3.54,-18.81 1.45,-38.08 2.49,-57.08 1.12,-56.7 1.54,-113.4 2.71,-170.1 0.45,-8.79 -0.97,-18.75 5.15,-26.03zm5.11 4.75l0 0c-4.61,6.08 -3.69,14.12 -3.99,21.25 -1.59,33.92 -0.05,67.9 -1.5,101.83 0.45,12.14 -1.26,24.25 -0.76,36.41 -1.09,28.76 1.11,57.64 -2.16,86.3 -0.45,2.92 -0.88,6.51 -3.7,8.18 -8.82,2.37 -19.84,-0.91 -26.42,7.1 -4.7,-7.44 -14.32,-4.85 -21.61,-7.1 -15.1,-3.95 -27.07,-14.92 -37.11,-26.39 -22.64,-25.08 -43.23,-51.92 -64.2,-78.4 8.13,-7.69 16.39,-15.34 23.21,-24.27 12.84,-16.03 19.97,-36.55 19.11,-57.11 -1.11,-16.82 -8.28,-33.22 -20.18,-45.2 -10.57,-9.64 -24.23,-15.38 -38.12,-18.33 -27.95,-5.48 -56.55,-1.33 -84.8,-2.11 -18.37,0.71 -36.84,-2.16 -55.15,0.09 -8.31,1.55 -9.74,13.89 -2.94,18.19 7.07,4.51 15.9,0.83 23.44,3.73 7.07,1.55 6.21,10.45 6.95,15.98 0.21,51.8 0.03,103.62 0.08,155.42 -0.12,14.46 0.56,28.99 -1.34,43.38 -0.31,5.32 -1.47,10.55 -3.7,15.41 -6.18,0.74 -12.56,0.53 -18.57,2.29 -5.53,1.95 -7.3,9.05 -4.89,14.01 2.15,3.94 6.81,5.96 11.16,6.08 10.42,0.24 20.83,0.04 31.25,-0.57 23.23,-1.55 46.6,2.32 69.77,-0.05 9.1,-1.26 11.1,-14.79 3.54,-19.17 -8.22,-2.82 -17.43,-1.04 -25.62,-3.68 -5.85,-6.65 -4.09,-16.71 -4.77,-24.95 -1.53,-19.5 -0.74,-39.05 -0.96,-58.57 8.55,-0.66 17.1,0.22 25.67,-0.09 16.82,22.36 32,45.92 49.4,67.84 9.12,11.36 18.82,22.76 31.42,30.42 11.28,7.01 24.89,8.94 37.95,8.89 13.3,-0.07 26.6,0.1 39.9,-0.07 4.59,0.19 8.27,-2.85 11.62,-5.58 3.13,2.44 6.29,5.51 10.56,5.5 13.32,0.56 26.63,-0.13 39.95,-0.85 16.89,0.08 33.93,2.24 50.77,0.33 8.22,-1.11 11.43,-12.28 5.53,-17.76 -7.79,-5.65 -18.73,-0.93 -26.78,-5.77 -4.2,-5.23 -4.58,-12.47 -5.32,-18.9 -0.88,-20.14 -2.05,-40.3 -1.79,-60.47 -0.51,-24.98 -2.37,-49.9 -1.65,-74.88 22.25,23.39 44.19,47.1 67.25,69.73 27.15,26.93 53.98,54.21 80.96,81.29 10.35,9.26 19.24,20.14 30.35,28.52 4.09,3.4 9.65,2.75 14.61,2.42 3.1,-3.34 6.05,-7.15 6.29,-11.9 1.73,-20.27 0.21,-40.67 1.07,-60.98 0.99,-29.81 1.81,-59.64 1.47,-89.49 1.07,-26.47 1.74,-52.95 1.81,-79.44 0.59,-5.43 0.64,-13.32 6.98,-15.24 6.84,-0.95 15.72,1.04 20.37,-5.49 4.76,-5.68 0.53,-15.06 -6.69,-15.74 -13.8,-1.71 -27.67,0.43 -41.49,0.12 -15.49,0.37 -30.97,-1.48 -46.45,-0.46 -4.07,0.08 -8.46,1.78 -10.29,5.66 -1.28,4.22 -1.12,9.71 2.76,12.58 8.03,6.56 20.37,-0.92 28,6.49 3.78,5.51 3.51,12.58 3.63,18.99 0,23.07 2.12,46.1 1.66,69.18 -0.28,23.26 1.88,46.5 1.59,69.76 -9.4,-8.13 -17.38,-17.74 -26.19,-26.48 -15.6,-16.63 -31.52,-32.96 -47.74,-48.98 -31.96,-31.98 -63.34,-64.49 -94.54,-97.2 -5.48,-5.43 -9.88,-13.39 -17.98,-14.93 -3.77,-0.38 -8.45,-0.39 -10.68,3.23zm-484.29 28.83c25.37,-3.64 52.32,4.82 70.68,22.82 17.31,16.5 27.31,39.32 31.72,62.53 3.47,16.57 2.6,33.62 2.15,50.42 -1.86,20.92 -6.82,42.49 -19.76,59.53 -12.05,16.34 -32.51,25.61 -52.66,25.13 -26.07,0.14 -52,-11.54 -68.7,-31.63 -20.71,-24.67 -28.92,-57.8 -28.33,-89.49 -0.26,-25.58 4.06,-52.76 19.57,-73.81 10.49,-14.63 27.67,-23.32 45.33,-25.5zm-4.98 7.33l0 0c-10.19,2.12 -19.91,6.67 -27.77,13.54 -13.93,12.45 -20.77,30.87 -23.75,48.9 -4.82,31.2 -2.66,64.45 11.21,93.21 10.03,21.57 28.34,39.92 51.38,47.05 18.13,5.41 38.84,6.2 55.82,-3.23 16.47,-8.7 26.51,-25.89 31.35,-43.36 6.18,-23.07 7.13,-47.46 3.99,-71.08 -3.89,-28.07 -16.76,-56.31 -40.54,-72.89 -17.66,-12.68 -40.6,-16.24 -61.69,-12.14zm255.22 -2.7c11.99,-0.64 25.08,-2 35.68,4.89 16.64,10.4 23.5,31.35 22.91,50.16 0.47,15.27 -2.87,32.1 -14.44,42.94 -9.48,9.28 -23.99,6.19 -35.91,5.6 -2.61,-0.76 -8.07,0.3 -8.02,-3.73 -0.31,-33.27 0.21,-66.57 -0.22,-99.86zm6.46 5.41l0 0c-0.16,30.49 -0.04,60.97 -0.07,91.48 9.21,1.26 18.9,2.52 28,0.03 11.62,-5.61 16.06,-19.34 17.55,-31.3 1.85,-16.87 0.34,-36.27 -12.07,-49.12 -8.52,-9.02 -21.41,-11.99 -33.41,-11.09zm-995.16 109.08l0 0c9.3,0.07 18.59,0.09 27.88,-0.02 -4.58,-12.14 -8.86,-24.4 -13.35,-36.58l-0.69 0.17c-5.06,11.95 -9.16,24.32 -13.84,36.43z"/>
   <path class="fil5" d="M1203.26 912.89c0.62,-2.16 0.01,-6.34 3.54,-5.98 6.34,-0.7 12.73,-0.22 19.08,-0.2 28.19,0.65 56.38,0.17 84.58,-0.11 21.92,-0.27 45.36,3.23 63.22,16.86 13.63,11.49 21.29,29.61 21.09,47.31 -1.4,10.25 -3.2,20.66 -7.81,30.04 -8.41,17.55 -22.44,31.82 -37.64,43.65 0.29,1.28 0.62,2.58 0.98,3.89 1.04,4.77 4.34,8.45 7.36,12.11 20.49,25.53 40.28,51.66 62.24,75.98 9.07,10.16 19.4,19.68 31.97,25.24 7.86,3.58 16.6,4.08 25.1,4.32 0.07,2.47 -0.69,6.72 -4.09,6.32 -9.78,0.62 -19.61,0.02 -29.39,0.23 -12.17,-0.14 -24.77,0.93 -36.46,-3.13 -9.05,-3.06 -16.94,-8.72 -23.87,-15.18 -2.94,-2.85 -6.41,-5.55 -7.46,-9.69 1.08,0.13 3.26,0.43 4.33,0.57 -23.09,-26.88 -41.63,-57.2 -63.17,-85.25 -12.26,0.23 -24.54,0.28 -36.69,-1.69 -0.03,2.23 -0.05,4.47 -0.06,6.73 -0.25,8.56 -0.68,17.12 -0.09,25.67 0.85,18.5 -0.78,37.23 2.02,55.59 1.5,6.18 2.38,14.08 8.88,17.17 7.46,2.68 15.6,2.52 23.44,2.85 -0.5,0.62 -1.54,1.86 -2.06,2.49 -12.66,0.84 -25.39,-0.26 -38.08,0.17 -5.26,0.33 -10.4,-0.74 -15.57,-1.23 -14.27,2.09 -28.76,0.92 -43.15,1.35 -5.13,1.42 -10.98,-6.81 -5.08,-9.73 6.81,-0.89 14.08,-0.03 20.39,-3.31 3.78,-4.89 4.73,-11.21 4.89,-17.22 3,-17.66 1.05,-35.66 1.6,-53.46 -0.79,-11.61 1.76,-23.08 1.26,-34.67 0.33,-15.05 -0.5,-30.13 0.18,-45.14 0.51,-2.69 0.69,-5.44 0.51,-8.15 -1.43,-21.42 0.06,-42.89 -0.89,-64.31 -0.35,-6.6 -1.59,-14.58 -8.24,-17.76 -8.38,-3.64 -17.97,-3.8 -26.86,-2.33zm-56.45 160.71c2.36,0.9 1.72,5.65 0.53,7.62 -2.54,-0.9 -1.73,-5.68 -0.53,-7.62zm-673.7 -162.06c21.73,0.02 43.46,1.25 65.19,0.8 8.53,-0.1 17.05,-0.55 25.58,-0.12 -3.44,2.04 -7.82,3.54 -9.53,7.49 -4.37,8.81 -3.03,18.92 -3.7,28.4 -2,8.74 -0.62,17.74 -1.07,26.6 0.29,21.32 0.19,42.63 0.19,63.95 0.15,12.63 -0.69,25.32 1.24,37.88 -0.12,11.45 0.76,22.97 -0.71,34.36 -0.7,9.2 0.35,18.58 2.7,27.51 1.57,6.19 6.91,10.63 13.04,11.94 14.72,3.33 29.95,3.26 44.96,2.73 9.62,-0.78 20.32,-2.06 27.36,-9.42 6.15,-7.2 7.98,-16.78 10.51,-25.63 1.93,0.4 3.87,0.81 5.82,1.26l-0.07 1.68c-0.76,13.02 -1.85,26.22 -5.27,38.85 -1.17,5.73 -7.69,6.63 -12.52,6.78 -40.34,0.95 -80.64,-2.33 -120.97,-1.65 -12.75,-0.44 -25.41,1.71 -38.14,1.46 -4.3,-0.98 -2.26,-8.05 1.73,-7.48 6.44,-0.77 14.34,1.08 19.48,-3.78 5.2,-8.53 3.98,-18.96 5.77,-28.45 0.71,-51.84 -0.29,-103.76 0.8,-155.6 -0.99,-14.45 0.53,-29.03 -1.26,-43.4 -1.58,-9.76 -12.65,-13.03 -21.2,-12.91 -3.35,-0.62 -8.46,1 -9.93,-3.25zm271.02 4.62c30.18,-10.38 62.72,-10.61 94.19,-8.14 19.95,1.55 39.49,6.03 59.2,9.24 -3.51,18.81 -1.58,38.02 -3.06,56.99 -0.21,1.09 -0.6,3.3 -0.81,4.4 -1.06,-0.27 -3.15,-0.83 -4.2,-1.09 -1.69,-5.96 -1.35,-12.3 -3.18,-18.2 -3.59,-12.78 -12.73,-23.81 -24.68,-29.59 -22.46,-10.99 -48.23,-13.09 -72.84,-11.06 -21.56,1.87 -42.82,11.51 -56.56,28.56 -13.85,16.3 -20.34,37.36 -23.42,58.19 -1.92,9.12 -1.99,18.48 -1.05,27.71 0.03,27.6 7.65,55.69 24.01,78.16 18.27,24.89 46.89,42.8 77.93,45.51 14.91,0.61 30.11,0.45 44.66,-3.23 12.61,-3.12 24.04,-11.15 30.61,-22.45 4.57,-7.01 6.42,-15.27 9.13,-23.08 0.87,0.17 2.61,0.5 3.47,0.67 2.28,13.01 -1.53,26.07 -3.78,38.84 -1.76,7.72 -2.09,18.31 -10.85,21.55 -17.82,6.76 -37.24,8.07 -56.12,8.19 -26.27,0.88 -52.92,-1.42 -77.94,-9.93 -34.11,-10.94 -64.51,-35.52 -79.32,-68.49 -6.89,-14.18 -10.08,-29.85 -11.72,-45.45 -1.2,-6.51 -1.21,-13.16 -0.14,-19.67 1.95,-17.14 4.82,-34.39 12.09,-50.18 13.82,-31.7 41.82,-56.31 74.38,-67.45zm780.12 -8.85c-0.33,-3.35 1.95,-5.89 3.87,-8.31l1.1 1.58c8.12,11.97 19.14,21.52 28.87,32.12 46.77,49.87 95.86,97.51 142.88,147.16 9.04,8.81 16.67,19.17 26.88,26.68 0.28,-11.91 0.05,-23.85 -0.1,-35.79 -0.8,9.8 -0.12,19.64 -0.61,29.47 -0.64,-0.62 -1.9,-1.88 -2.54,-2.5 -0.6,-14.55 0.19,-29.13 -0.26,-43.67 -2.88,-20.54 -1.05,-41.34 -1.55,-61.99 0.79,-16.28 -2.44,-32.37 -1.56,-48.63 0.02,-8.34 0.9,-18.46 -6.32,-24.35 -7.39,-6.03 -17.7,-3.48 -26.43,-4.91l-0.74 -2.56c18.74,-0.19 37.48,1.06 56.24,0.69 6.46,-0.06 13.01,-1.03 19.44,0.3 -9.68,3.69 -11.84,14.84 -12.42,23.97 -0.73,27.09 -0.73,54.17 -1.92,81.24 0.22,32.85 -0.24,65.71 -1.59,98.53 0.17,18.48 -1.69,37.08 0.78,55.48 -2.2,2.18 -3.89,6.43 -7.71,5.37 -7.77,-3.37 -12.92,-10.48 -19.07,-15.98 -8.18,-7.89 -15.99,-16.15 -24.2,-24.01l1.07 -0.62c0.54,-0.39 1.63,-1.21 2.16,-1.6 -1.52,-3.27 -4.45,-5.53 -6.87,-8.07 -32.18,-33.41 -65.64,-65.55 -97.92,-98.87 -13.77,-15.03 -28.14,-29.52 -41.63,-44.83 -2.51,-2.8 -5.37,-5.2 -8.38,-7.41 0.21,1.14 0.6,3.46 0.79,4.6 0.33,0.57 0.97,1.72 1.3,2.29 0.08,16.81 -0.8,33.67 0.41,50.46 1.89,13.23 0.9,26.62 1.14,39.94 -0.38,17.89 1.23,35.73 1.04,53.63 1.02,11.43 0.88,24.16 7.81,33.91 7.27,6.42 18.01,5.32 27.08,5.53 -1.88,4.18 -7.01,2.38 -10.6,2.84 -11.49,-0.5 -23.05,0.47 -34.48,-0.77 -6.91,-1.7 -13.77,1.34 -20.73,0.62 -10.19,-0.81 -20.94,2.07 -30.66,-1.78 0.55,-2.78 -0.5,-6.75 2.95,-7.93 7.48,-0.78 15.71,0.47 22.36,-3.87 4.73,-4.21 4.64,-10.84 4.99,-16.63 2.73,-14.2 0.96,-28.71 1.47,-43.05 0.48,-21.31 -1.14,-42.75 1.59,-63.93 0.57,-31.09 -0.04,-62.18 0.48,-93.26 0.76,-10.36 1.38,-20.71 1.59,-31.09zm200.99 135.2l0 0c0.45,-0.93 1.33,-2.8 1.76,-3.71 -1.05,-21.4 0.14,-42.86 -1.05,-64.26 -0.95,22.63 -0.5,45.36 -0.71,67.97zm-768.68 -100.51c22.5,-22.63 53.7,-35.81 85.4,-38.04 4.47,0.93 8.94,2.13 13.54,2.45 28.76,0.94 57.97,6.5 83.41,20.46 20.06,10.84 37.05,27.63 47.18,48.17 12.83,25.95 15.41,56.23 10.24,84.49 -5.06,28.93 -18.76,56.64 -40.18,76.95 -21.14,20.78 -49.94,32.75 -79.27,35.62 3.11,0.55 6.19,1.26 9.06,2.71 -14.72,3.28 -29.92,2.19 -44.86,2.62 -12.41,0.76 -23.94,-4.71 -36.21,-5.2 -9.12,-5.16 -19.43,-7.94 -28.05,-14 -34.89,-21.3 -56.35,-60.55 -60.58,-100.66 0.05,-9.2 -3.33,-18.55 -0.03,-27.51 1.83,-7.17 2.48,-14.58 4.37,-21.73 5.82,-24.77 18.2,-48.06 35.98,-66.33zm74.1 -22.23l0 0c-2.05,0.55 -4.08,1.19 -6.05,1.95l-1.15 -0.16c-18.26,4.81 -33.77,17.88 -42.89,34.24 -12.35,21.85 -15.62,47.43 -15.41,72.17 -1.76,13.3 0.34,26.77 2.75,39.88 6.54,28.61 20.79,57.18 45.65,74.04 27.57,19.45 66.04,22.68 95.8,6.23 4.06,-0.03 8.41,-2.5 9.07,-6.82 1.45,-1.5 2.86,-3.02 4.33,-4.51 2.92,1.99 4.48,-1.59 6.22,-3.14 15.32,-19.61 20.73,-44.86 22.47,-69.17 -0.41,-5.56 0.99,-11.69 -1.85,-16.75 -0.13,-8.9 -0.7,-17.79 -1.03,-26.69 -2.75,-23.09 -9.71,-46.08 -22.89,-65.43 -11.62,-16.77 -28.21,-31.04 -48.3,-36.19 -11.36,-3.3 -23.33,-2.61 -34.96,-1.48l0.3 0.44c-4.11,-1.14 -8.28,-0.36 -12.06,1.39zm-716.86 -3.91c1.97,-3.66 3.59,-9.22 8.58,-9.29 3.75,2.88 5.91,7.25 8.74,10.97 3.54,4.59 5.27,10.17 7.5,15.44 19.72,48.16 38.74,96.61 58.9,144.6 8.48,20.24 15.93,40.95 25.77,60.59 5.15,7.69 9.49,17.19 18.61,20.87 4.28,1.9 9.05,2.09 13.64,2.68 3.39,-1.97 7.93,-4.93 10.76,-0.4 -0.08,1.09 -0.24,3.28 -0.31,4.37 -27.58,0.4 -55.19,0.14 -82.76,-0.74 0.85,-6.55 0.78,-13.32 -2.22,-19.35 -9.49,-22.47 -17.05,-45.78 -27.29,-67.89 5.92,17.93 13.49,35.29 20.05,53.02 3.66,10.86 10.88,21.52 7.96,33.49 -3.23,1.1 -6.34,2.56 -8.84,4.94 -2.21,-2.12 -4.29,-5.2 -2.45,-8.24 2.47,-2.21 5.75,-3.09 8.67,-4.47 -3.53,-6.95 -5.81,-14.39 -7.93,-21.85 -4.53,-12.6 -9.88,-24.86 -14.43,-37.45 -1.79,-4.49 -2.79,-9.62 -6.71,-12.84 -0.02,-2 -0.02,-3.97 -0.02,-5.94 -25.77,0.12 -51.53,-0.17 -77.28,0.16 -5.81,14.42 -11.42,28.89 -17.22,43.3 -3.06,7.67 -6.24,15.39 -7.6,23.58 -0.73,3.61 -0.82,7.34 -0.09,10.97 0.26,3.52 2,7.1 5.53,8.38 5.56,2.07 11.69,1.34 17.51,1.33 -0.48,0.63 -1.45,1.93 -1.93,2.57 -13.22,0.4 -26.6,0.79 -39.75,-1.05 -14.3,2.14 -28.85,0.96 -43.27,1.33 -5.42,0.63 -8.83,-10.01 -1.83,-9.94 9.52,0.16 19.62,-0.96 26.86,-7.82 8.81,-9.36 12.54,-21.99 17.53,-33.55 7.47,-17.79 14.25,-35.84 21.75,-53.61l0.67 1.14 1.01 1.72c21.35,-50.04 41.11,-100.75 61.89,-151.02zm-2.01 59.86l0 0c-10.81,28.5 -21.99,56.93 -31.99,85.72 0.04,1.75 0.05,3.53 0.07,5.31 22.06,-0.28 44.17,0.69 66.19,-0.4 -0.45,-0.83 -1.34,-2.51 -1.81,-3.35l1.33 -2.59c0.59,-0.02 1.74,-0.04 2.33,-0.04 -10.69,-28.4 -21.04,-56.91 -31.51,-85.4 -0.65,-1.6 -1.52,-3.07 -2.59,-4.42 -2.41,0.74 -3.85,2.92 -2.02,5.17zm971.08 -52.41l0 0c-4.63,0.55 -3.01,6.04 -2.73,9.14 -0.12,29.6 0.05,59.23 -0.09,88.85 0,4.99 -0.03,10.04 0.69,15.01 -1.27,2.49 -0.51,5.25 -0.29,7.88 13.11,3.59 26.95,4.99 40.46,3.24 14.18,-1.93 23.5,-14.87 28.08,-27.44 2.45,-7.47 5.36,-15.64 2.96,-23.46 -0.38,-4.82 -0.02,-9.64 0.45,-14.42 2.69,-22.04 -9.42,-46.12 -30.06,-55.35 -12.23,-5.75 -26.41,-5.65 -39.47,-3.45z"/>
   <path class="fil6" d="M1101.48 1554.75c32.04,-0.31 64.07,-0.34 96.11,-0.36 19.14,1.52 38.36,0.42 57.54,0.69 187.74,-1.15 375.49,-0.45 563.22,-0.77 2.43,0.12 5.33,-0.19 7.13,1.95 10.61,10.38 20.05,21.9 30.54,32.4l0.22 0.23c-267.8,-0.33 -535.61,-0.14 -803.4,-0.11l0.41 -0.27c16,-11.39 32.84,-21.59 48.23,-33.76zm-766.39 3.06c8.68,-0.07 17.35,-0.21 26.02,0.11 25.65,0.43 51.32,0 76.99,0.01 90.68,-0.38 181.35,-0.31 272.03,-0.36 6.95,10.31 13.67,20.78 20.97,30.85l0.32 0.43c-195.64,-0.2 -391.28,-0.2 -586.92,0l0.35 -0.26c12.29,-9.12 24.4,-18.48 36.61,-27.7 3.15,-2.78 7.52,-2.32 11.4,-2.42 42.01,0.29 84.04,-0.26 126.05,0.03 5.41,0.04 10.79,-0.38 16.18,-0.69z"/>
  </g>
 </g>
</svg>
