<?xml version="1.0" encoding="UTF-8"?>
<!DOCTYPE svg PUBLIC "-//W3C//DTD SVG 1.1//EN" "http://www.w3.org/Graphics/SVG/1.1/DTD/svg11.dtd">
<!-- Creator: CorelDRAW -->
<svg xmlns="http://www.w3.org/2000/svg" xml:space="preserve" width="2000px" height="1600px" version="1.1" style="shape-rendering:geometricPrecision; text-rendering:geometricPrecision; image-rendering:optimizeQuality; fill-rule:evenodd; clip-rule:evenodd"
viewBox="0 0 2000 1600"
 xmlns:xlink="http://www.w3.org/1999/xlink">
 <defs>
  <style type="text/css">
   <![CDATA[
    .fil1 {fill:black;fill-rule:nonzero}
    .fil0 {fill:#A31F37;fill-rule:nonzero}
    .fil2 {fill:#FEFEFE;fill-rule:nonzero}
   ]]>
  </style>
 </defs>
 <g id="Capa_x0020_1">
  <metadata id="CorelCorpID_0Corel-Layer"/>
  <g id="Arkansas_x0020_Razorbacks.cdr">
   <path class="fil0" d="M89.47 758.69c10.51,-10.42 25.48,-15.27 40.09,-14.88 22.35,0.32 44.63,7.79 62.87,20.58 4.13,11.76 8.33,23.7 16.17,33.65 -28.25,9.34 -59.65,8.59 -87.51,-1.74 -10.6,-3.68 -19.2,-11.73 -30.27,-14.21 -9.3,-2.46 -19.11,-1.63 -28.23,1.2 7.36,0.26 14.95,0.41 21.81,3.34 8.53,3.31 15.36,9.65 23.57,13.54 17.86,8.66 37.73,11.78 57.32,13.69 -21.31,9.31 -46.92,7.58 -67.21,-3.59 -7.91,-4.16 -14.55,-10.38 -22.72,-14.04 -11.1,-5.2 -23.28,-7.48 -35.36,-9.05 9.42,-12.71 26.18,-18.59 41.63,-16.52 11.38,0.98 21.7,6.86 33.15,7.31 7.96,0.37 15.89,-0.82 23.65,-2.48 -14.49,-9.9 -32.14,-13.12 -48.96,-16.8zm1212.73 257.57c3.8,1.58 7.62,3.15 11.45,4.7 -5.08,8.57 -5.99,18.69 -9.86,27.76 -10.86,27.27 -34.15,47.84 -60.48,59.83 -15.96,7.31 -34.19,14.51 -42.27,31.42 -6.22,13.74 -14.32,27.25 -27.16,35.76 -12.08,8.4 -27.26,11.64 -41.78,10.03 -16.26,-1.63 -32.52,-3.3 -48.79,-5.02 3.72,-5.86 7.74,-11.54 12.03,-17 15.96,1.39 31.88,3.88 47.94,4.37 16.85,0.4 32.41,-10.51 39.92,-25.22 4.87,-9.64 9.38,-19.74 17.21,-27.42 13.47,-13.97 32.87,-18.96 49.03,-28.88 25.86,-15.51 44.66,-41.43 52.76,-70.33zm242.87 -331.48c1.37,-3.15 5.11,-8.52 8.68,-4.91 -1.95,5.59 -5.35,10.92 -3.98,17.25 -2.81,-3.41 -6.72,-7.53 -4.7,-12.34zm-40.81 -22.37c2.68,0.4 5.4,0.83 8.12,1.24 0.42,13.11 3.18,25.95 8.14,38.09 -10.36,-10.4 -15.49,-24.85 -16.26,-39.33zm3.22 -8.4c6.27,-1.43 12.6,-3.04 19.09,-3.11 2.96,2.03 5.2,4.9 7.62,7.51 -8.93,-1.31 -17.83,-2.87 -26.71,-4.4zm-154.95 -258.43c11.47,15.23 23.99,29.64 37.22,43.37 -3.05,-1.41 -6.12,-2.83 -9.16,-4.26 0,3.89 0.06,7.77 0.09,11.66 -10.32,-4.91 -20.2,-10.7 -30.63,-15.34 0.11,-11.84 1.07,-23.66 2.48,-35.43zm-75.32 10.01c24.34,20.81 49.41,41.26 77.91,56.17 36.94,20.67 73.78,43.87 100.44,77.37 -1.5,-16.95 -13.97,-29.92 -25.9,-40.79 -9.4,-8.39 -19.56,-15.84 -29.97,-22.87 -0.02,-2.78 -0.02,-5.53 0.01,-8.31 12.62,7.14 24.35,15.75 35.49,25.03 0.7,-4.88 1.46,-9.76 2.22,-14.65 12.73,8.72 24.76,18.37 36.45,28.42 0.39,-3.77 0.77,-7.55 1.18,-11.31 50.66,33.44 98.71,71.49 139.13,116.97 25.28,27.72 47.27,58.63 75.88,83.18 19.26,16.78 41.27,30.03 63.99,41.58 33.12,17.96 66.7,35.2 98.49,55.48 -18.26,15.15 -33.49,35.34 -37.41,59.22 17.22,-16.55 36.02,-32.67 58.87,-40.77 9.01,-3.41 18.85,-3.78 28.21,-1.71 -21.02,15.14 -38.91,35.95 -46.55,61.04 19.3,-17.52 39.91,-34.1 63.48,-45.53 12.73,-5.92 26.81,-10.82 41.04,-8.7 8.58,1.32 17.22,6.76 19.83,15.43 2.65,11.47 -2.66,24.13 -12.54,30.49 -8.24,5.31 -16.86,10.92 -26.77,12.23 -30.68,4.89 -61.47,13.49 -87.89,30.31 -8.06,5.68 -17.31,11.76 -20.48,21.63 -1.57,4.14 2.59,8.23 6.74,7.55 12.76,-1.37 23.98,-8.65 34.3,-15.86 6.68,-5.33 15.32,-10.99 15.5,-20.54 13.71,-6.58 27.87,-12.45 42.74,-15.87 -14.41,7.75 -27.86,17.41 -39.24,29.18 -12.41,12.91 -24.7,26.69 -40.78,35.15 -9.28,4.96 -20.76,6.14 -30.45,1.64 -13.21,-5.6 -21.26,-18.13 -32.23,-26.75 -31.93,-25.46 -65.46,-48.86 -99.37,-71.58 3.83,-14.8 5.01,-30.1 5.77,-45.37 1.56,-19.61 6.44,-38.74 9.42,-58.15 -12.93,7.76 -26.81,14.34 -37.84,24.82 -11.15,10.06 -20.22,22.23 -27.25,35.46 -10.95,-25.81 -25.81,-51.45 -49.55,-67.45 -4.86,-3.63 -12.3,-5.46 -17.24,-1.02 -5.23,4.11 -5.23,12.39 -0.85,17.13 10.45,13.25 16.28,29.4 19.87,45.74 -22.13,-4.98 -44.96,-7.9 -67.6,-5.46 -11.88,1.44 -24.5,5.77 -31.75,15.84 -4.91,6.71 -5.03,15.43 -3.78,23.31 1.93,-4.98 3.3,-10.38 6.9,-14.47 6.87,-7.92 16.97,-12.08 26.89,-14.73 22.64,-5.77 46.27,-5.27 69.41,-3.7 0.93,5.11 1.8,10.23 2.65,15.38 -22.96,-2 -46.44,-2.69 -68.99,2.88 -8.72,2.44 -18.48,5.65 -23.46,13.82 -3.85,7.77 -0.98,17.52 4.57,23.74 7.45,7.68 18.48,10.45 28.81,11.51 8.52,1.07 17.83,-0.65 25.56,4.03 17.65,9.73 29.31,27.96 48.29,35.65 16.62,7 34.95,2.02 52.23,4.96 7.81,1.04 13.73,6.74 20.22,10.66 26.89,17.06 53.88,34.45 83.48,46.46 11.75,4.45 25.7,8.95 37.65,2.75 5.39,-2.49 6.87,-8.67 8.92,-13.67 5.33,8.07 9.2,18.34 5.07,27.79 -5.14,11.71 -14.01,22.24 -25.18,28.57 -8.83,4.97 -19.28,2.46 -28.03,-1.24 -26.09,-10.16 -50.44,-24.3 -76.56,-34.31 -28.42,-9.67 -59.28,-9.52 -88.69,-5.12 -17.14,2.33 -33.31,8.75 -50.11,12.56 -19.9,5.16 -40,11.05 -60.79,10.18 -11.88,0.61 -23.13,-4.96 -35.03,-3.61 -16.94,1.15 -33.91,3.42 -50.26,8.07 -9.44,2.42 -17.6,8.97 -27.63,9.01 -16.68,-0.3 -33.72,-0.78 -49.69,-6.13 -25.85,-8.03 -48.12,-25.81 -62.81,-48.4 -16.64,-24.86 -24.35,-54.3 -29.27,-83.46 -2.15,42.19 7.79,87.52 36.63,119.67 -13.1,24.5 -30.95,46.83 -53.8,62.87 -29.46,21.28 -65.98,30.56 -94.14,53.89 -23.23,18.39 -39.87,43.28 -56.11,67.7 -11.6,17.28 -26.5,34.8 -47.85,39.39 -18,4.94 -36.83,-0.04 -52.93,-8.46 -23.76,-11.52 -44.11,-28.54 -65.18,-44.1 -15.86,-4.94 -33.21,0.14 -49.19,-4.3 -14.32,-7.12 -24.63,-19.87 -37.1,-29.54 -18.41,-11.68 -37.52,-22.24 -55.76,-34.17 11.91,0.33 24.12,0.68 35.56,4.4 10.04,5.09 19.33,11.58 29.08,17.2 11.8,6.98 20.09,18.34 31.27,26.06 15.72,2.53 32.25,-0.49 47.81,3.92 9.1,2.92 16.2,9.69 23.9,15.08 17.74,12.89 35.65,25.99 55.8,34.93 11.77,5.57 26.14,5.27 37.65,-0.78 8.49,-4.81 14.75,-12.58 20.48,-20.3 11.86,-16.52 22.55,-33.91 35.23,-49.84 5.85,-7.47 13.02,-13.75 19.42,-20.72 -25.56,9.71 -43.62,31.56 -60.14,52.36 -7.61,8.8 -16.49,18.85 -28.94,19.61 -17.89,1.15 -33.88,-9.05 -47.18,-19.89 -14.19,-11.27 -26.86,-25.79 -44.94,-30.77 -14,-3.98 -25.81,-12.87 -36.22,-22.75 15.98,0.99 31.89,-1.45 47.67,-3.69 78.6,-12.24 154.14,-45.03 216.17,-94.87 -11.06,-11.31 -26.12,-17.28 -40.98,-21.76 -31.63,-9.06 -64.4,-13.25 -96.22,-21.57 -29.47,-7.29 -58.37,-18.13 -83.67,-35.17 1.6,-5.89 3.61,-12.53 0.41,-18.26 -6.01,-11.05 -18.57,-16.01 -29.91,-19.69 -17.64,-5.94 -36.62,-5.18 -54.77,-2.4 -10.93,-13.57 -16.72,-30.77 -17.13,-48.14 -1.19,-21.61 3.53,-42.98 10.06,-63.45 -22.64,19.69 -27.55,51.99 -26.27,80.45 -12.17,1.63 -25.48,1.46 -36.09,-5.48 -9.68,-6.01 -13.7,-17.22 -20.26,-25.99 -19.3,-26.9 -46.4,-46.63 -72.66,-66.2 -14.5,-10.66 -27.18,-23.5 -39.83,-36.24 -3.46,10.13 -0.32,21.07 6.75,28.84 19.17,22.07 44.03,38.28 63.63,59.96 16.02,17.19 29.71,37.82 33.54,61.43 3.46,18.33 0.26,37.29 -6.24,54.59 -11.48,4.96 -22.79,10.31 -34.33,15.12 14.89,-24.48 26.32,-53.86 19.13,-82.78 -6.89,-30.36 -33.62,-52.02 -62.21,-61.2 19.78,18.65 40.15,40.39 44.19,68.4 2.81,18.15 -7.64,34.93 -21.02,46.2 4.83,0.46 9.68,0.94 14.5,1.48 -6.03,11.16 -16.67,18.69 -26.62,26.09 4.46,1.03 8.94,2.01 13.41,3.03 -14.76,12.69 -32.28,21.8 -50.47,28.53 -4.66,1.5 -9.67,3.96 -14.59,2.09 -25.93,-7.47 -51.66,-21.61 -65.85,-45.38 -7.66,-11.9 -10.62,-25.98 -11.97,-39.87 -7.29,12.84 -10.33,28.65 -5.28,42.85 4.85,14.87 16.56,26.03 28.72,35.22 -6.96,-1.13 -13.88,-2.42 -20.8,-3.68 1.45,5.53 2.59,11.95 7.89,15.21 9.08,6.22 17.04,15.82 28.69,16.7 20.11,1.67 40.22,-1.88 59.63,-6.93 31.32,-8.42 61.22,-21.45 89.99,-36.3 36.36,-19.45 74.58,-37.12 115.62,-43.57 21.11,-2.98 44.73,-3.28 63.07,9.25 -7.94,2.96 -15.95,5.7 -23.94,8.47 1.35,4.51 2.7,9.05 4.07,13.58 -6.42,3.28 -13.42,5.59 -19.21,9.97 1.78,9.98 4.52,19.74 6.57,29.66 -6.16,2.48 -12.3,5.01 -18.41,7.6 3.55,15.93 -6.05,30.35 -15.48,42.17 -8.42,10.84 -18.12,21 -23.98,33.56 -3.87,7.4 -0.06,15.65 1.09,23.24 -23.77,-11.44 -51.23,-11.32 -76.56,-5.9 -34.76,7.23 -67.38,21.92 -99.11,37.46 -38.95,19.23 -76.48,41.17 -115.58,60.1 -18.65,8.84 -37.72,17.4 -58.09,21.4 -11.09,2.11 -23.43,2.53 -33.44,-3.46 -11.84,-7.36 -20.96,-19.09 -24.9,-32.49 -4.25,-14.04 -3.57,-28.95 -2.18,-43.38 2.37,-23.67 6.29,-47.37 4.68,-71.23 -1.26,-21.23 -7.35,-42.22 -18.37,-60.45 -5.22,-7.53 -12.42,-13.41 -17.97,-20.68 -13.6,-16.91 -25.62,-36.99 -25.6,-59.37 -11.29,-12.42 -21.56,-26.59 -25.18,-43.3 -2.74,-10.93 -2.58,-24.46 -13.03,-31.43 -25.62,-17.43 -60.33,-19.85 -81.53,-44.14 -21.41,-23.76 -19.54,-63.13 2.38,-85.93 17.58,-19.5 47.9,-25.51 71.6,-14.26 13.86,6.27 25.07,17.72 31.51,31.45 -6.92,10.16 -11.21,22.09 -19.33,31.4 -6.85,7.77 -18.15,6.85 -27.05,3.7 1.16,-4.9 3.35,-10.31 0.63,-15.12 -3.67,-7.8 -15.54,-9.6 -21.26,-3.1 -5.46,5.23 -4.63,14.85 1.2,19.48 12.4,10.6 30.86,17.68 46.42,9.73 12.6,-5.98 17.65,-19.72 24.5,-30.86 28.12,-47.72 65.33,-91.73 114.13,-119.17 31.4,-18.09 66.42,-28.27 100.78,-39.07 33.89,-8.38 68.77,-12.33 103.61,-13.94 -4.78,-4.08 -9.46,-8.27 -14.03,-12.58 20.67,-4.2 41.71,-5.82 62.7,-7.34 -4.45,-4.33 -9.13,-8.42 -13.83,-12.47 20.98,-3.66 42.18,-6.35 63.49,-6.88 -4.23,-4.02 -8.51,-8.01 -12.74,-12.01 20.79,-3.57 41.77,-6.38 62.9,-7.07 -4.63,-4.81 -9.51,-9.34 -14.41,-13.86 20.74,-4.05 41.81,-6.14 62.9,-7.27 -4.77,-4.77 -9.51,-9.56 -14.11,-14.46 21.09,-2.87 42.38,-3.76 63.66,-3.91 -4.64,-4.98 -9.22,-10.01 -13.77,-15.04 21.35,-2.07 42.87,-1.98 64.3,-1.31 -4.17,-5.37 -8.37,-10.7 -12.49,-16.08 21.18,-0.3 42.42,0.65 63.46,3.27 -3.54,-5.79 -7.09,-11.56 -10.64,-17.33 21.11,2.05 42.07,5.57 62.76,10.3 -2.76,-6.2 -5.54,-12.38 -8.2,-18.59 20.74,4.81 41.04,11.28 60.96,18.74 -2.26,-6.4 -4.53,-12.8 -6.75,-19.22 20.35,6.23 39.87,14.76 59.09,23.81 -1.75,-6.94 -3.61,-13.84 -5.36,-20.76 19.85,8.88 38.33,20.43 56.61,32.14 -0.74,-6.68 -1.55,-13.38 -2.29,-20.06 18.05,10.46 35.04,22.68 51.45,35.54 4.09,3.35 8.71,6.29 11.88,10.64 2.99,7.94 4.18,16.45 6.6,24.59 -14.37,-12.97 -29.34,-25.38 -45.49,-36.1 2.22,7.44 4.66,14.8 7.01,22.22 -17.13,-12.49 -34.52,-24.7 -53.54,-34.19 2.18,9.29 4.77,18.49 7.1,27.74 -18.76,-9.03 -37.06,-19.04 -56.1,-27.46 2.39,6.61 4.7,13.25 6.81,19.96 -19.39,-7.51 -38.44,-15.89 -58.07,-22.75 2.44,5.6 4.94,11.17 7.32,16.8 -19.2,-4.59 -38.15,-10.27 -57.5,-14.19 3.41,5.81 6.98,11.5 10.57,17.22 -20.19,-2.72 -40.24,-6.44 -60.52,-8.32 4.09,5.47 8.32,10.84 12.47,16.28 -20.91,-0.43 -41.78,-1.78 -62.69,-2.35 5.42,6.25 11.03,12.34 16.62,18.42 -40.39,3.32 -80.41,9.98 -120.19,17.52 7.66,7.02 15.53,13.79 23.19,20.8 -41.37,9.21 -81.6,24.2 -118.54,44.94 48.8,-17.34 99.5,-29.14 150.88,-35.76 -7.03,-6.48 -14.47,-12.49 -21.41,-19.06 39.85,-8.01 80.65,-11.86 121.3,-10.43 -5.41,-5.85 -11.01,-11.51 -16.21,-17.56 21.44,1.83 42.81,4.27 64.24,6.27 -4.06,-5.22 -8.24,-10.34 -12.33,-15.52 20.45,3.18 40.76,7.29 61.15,10.88 -3.46,-5.06 -6.96,-10.07 -10.27,-15.21 21.89,6.92 43.13,15.78 64.74,23.53 -2.19,-5.29 -4.5,-10.51 -6.81,-15.74 20.5,7.82 40.59,16.63 60.96,24.75 -2.03,-6.2 -4.16,-12.39 -6.08,-18.63 32.24,13.14 62.49,30.88 90.65,51.3 13.34,9.88 26.85,19.71 38.84,31.24 12.06,14.02 26.45,26.64 43.79,33.67 10.42,4.14 22.94,2.13 30.9,-5.98 -9.99,0.11 -20.5,0.47 -29.59,-4.36 -25.49,-12.66 -42.59,-37.12 -54.56,-62.17 -18.39,-39.94 -27.07,-83.76 -30.67,-127.38zm53.56 60.78l0 0zm0 0c4.88,11.87 12.28,22.51 20.68,32.17 -1.18,10.97 2.81,21.68 10.57,29.45 -2.98,8.61 -4.13,18.36 -0.21,26.89 5.5,11.63 14.68,21.24 25.18,28.54 0.54,-4.57 1.04,-9.12 1.58,-13.67 9.21,2.33 17.48,7.12 25.16,12.62 -0.96,-5.03 -1.91,-10.05 -2.79,-15.08 9.97,2.54 19.14,7.25 27.65,12.93 -9.1,-23.46 -25.66,-42.99 -43.07,-60.74 -20,-19.53 -41.7,-37.33 -64.75,-53.11zm199.59 94.91l0 0zm0 0c13.49,18.72 29.49,35.5 46.16,51.41 -9.41,-3.86 -18.98,-7.47 -28.99,-9.47 4.94,6.48 10.79,12.19 17.06,17.37 18.94,15.82 41.37,29.24 66.46,31.47 -26.72,-36.63 -57.88,-72.91 -100.69,-90.78zm-467.07 30.17l0 0zm0 0c3.74,5.83 7.59,11.59 11.48,17.34 -31.11,-0.98 -62.43,3.85 -91.59,14.73 36.15,-3.33 73.47,-4.17 108.48,7.05 -0.97,-3.58 -2.04,-7.13 -3.04,-10.66 31.31,10.75 60.43,28.31 83.55,52.08 1.6,-6.31 2.63,-12.75 3.46,-19.2 10.49,16.52 18.97,34.17 28.27,51.34 2.54,-5.83 4.89,-11.71 7.35,-17.58 2.39,9.94 10.56,20.09 5.61,30.47 -8.33,24.7 -7.09,52.62 3.83,76.34 1.44,-32.4 7.03,-66.96 28.76,-92.4 -10.78,-27.84 -23.99,-55.48 -44.32,-77.7 -0.36,6.49 -0.65,13 -0.84,19.5 -11.89,-17.67 -27.01,-33.04 -44.36,-45.39 1.83,9.68 3.23,19.45 3.92,29.29 -30.55,-18.52 -64.87,-31.67 -100.56,-35.21zm382.98 5.18l0 0zm0 0c28.16,3.76 52.25,21.17 70.31,42.3 -4.68,-0.48 -9.72,-0.06 -13.92,-2.5 -12.65,-7.05 -25.79,-13.65 -40.03,-16.76 8.03,6.44 16.67,12.21 23.75,19.78 3.06,3.36 7.07,6.82 6.68,11.86 0.98,22.36 5.24,47.01 22.13,63.18 11.62,11.3 28.94,12.87 44.26,10.51 -3.85,-2.15 -7.68,-4.3 -11.51,-6.46 14.78,1.04 29.34,-3.46 41.33,-12.04 18.09,7.54 38.39,8.62 57.39,4.07 -9.62,-0.89 -19.18,-2.89 -27.94,-7.07 -25.03,-11.51 -45.23,-31.19 -62.46,-52.3 -13.19,-16.47 -28.71,-31.4 -47.14,-41.85 -18.83,-10.76 -41.18,-16.77 -62.85,-12.72zm-990.41 33.47l0 0zm0 0c-45.31,26.07 -79.67,67.42 -105.89,111.97 -7.19,11.71 -12.54,25.35 -24.14,33.57 -14.25,9.8 -33.1,10.99 -49.36,6.03 -14.07,-4.52 -27.61,-12.08 -37.51,-23.17 -9.45,-10.82 -9.19,-26.36 -4.66,-39.26 -11.15,17.41 -11.14,41.95 2.52,58.02 12.43,14.55 31.56,20.06 48.66,27.09 16.02,6.42 34.15,13.14 43.01,29.1 7.7,12.55 6.24,28.12 12.71,41.13 4.92,10.51 13.01,19 20.95,27.29 -3.28,17.71 6.3,34.47 16.13,48.42 8.66,12.82 21.59,22.16 29.1,35.82 14.51,24.42 17.19,53.61 17.15,81.44 -0.27,25.49 -6.55,50.62 -5.64,76.15 0.31,13.23 5.68,26.44 15.69,35.25 6.42,4.75 14.95,3.44 22.35,2.62 22.46,-3.49 43.46,-12.74 63.96,-22.16 60.18,-28.4 117.04,-64.01 179.79,-86.81 29.87,-10.43 62.47,-18.48 93.9,-10.36 -10.53,-20.11 -32.9,-29.86 -54.32,-33.23 4.59,4.31 9.21,8.62 13.75,13.03 -20.56,-4.09 -41.91,-2.98 -61.98,2.88 5.12,3.19 10.38,6.16 15.56,9.29 -20.63,-0.74 -41.84,1.43 -60.56,10.66 5.79,2.46 11.6,4.86 17.45,7.21 -20.98,0.63 -41.76,6.68 -59.69,17.62 2.65,0.92 5.33,1.88 8.01,2.81 -18.24,2.26 -35.82,9.47 -50.14,21.02 1.8,0.39 5.41,1.18 7.22,1.57 -34.75,17.63 -69.81,35.43 -107.18,46.83 -7.01,1.42 -17.5,5.9 -21.66,-2.56 -7.59,-14.04 -4.63,-30.69 -3.45,-45.86 2.32,3.07 4.59,6.16 6.94,9.21 4.02,-19.24 4.09,-39.61 -1.77,-58.5 4.01,4.63 8.14,9.14 12.39,13.52 -0.2,-22.31 -6.16,-44.4 -17.33,-63.73 6.19,2.81 12.32,5.81 18.5,8.67 -7.72,-21.77 -21.76,-40.74 -37.41,-57.46 -9.38,-9.07 -16.99,-20.13 -21.24,-32.49 -2.48,-6.86 -0.04,-14.13 0.92,-21.04 -7.67,-9.23 -16.92,-17.57 -21.18,-29.1 -4.24,-8.21 -3.94,-17.56 -5.13,-26.46 -3.92,-7.4 -8.84,-14.72 -8.82,-23.45 -1.24,-9 3.2,-17.16 5.35,-25.54 -5.59,-13.89 -8.66,-29.01 -6.26,-43.97 6.44,8.08 12.33,16.57 18.34,24.97 -5.2,-20.15 -5.59,-41.2 -3.42,-61.81 3.79,3.63 7.53,7.31 11.26,10.99 0.76,-14.25 2.28,-29.1 8.98,-41.93 2.73,3.06 4.86,6.59 6.99,10.11 6.68,-17.56 16.26,-34.01 28.33,-48.4 0.73,3.53 1.48,7.08 2.21,10.65 23.65,-34.56 62.5,-54 100.01,-69.86 -27.46,7.94 -54.64,17.76 -79.39,32.21zm-201.06 71.9l0 0zm0 0c10.36,-1.52 21.35,-1.2 30.81,3.77 10.91,5.04 18.63,14.82 23.53,25.55 2,-3.36 4.01,-6.73 6.07,-10.06 -11.77,-20.24 -39.08,-29.66 -60.41,-19.26zm1008.51 119.69l0 0zm0 0c-0.76,15.89 4.83,31.39 12.97,44.82 5.48,7.9 2.96,18.08 6.14,26.79 7.05,23.48 26.02,40.6 45.76,53.81 -15.73,7.4 -32.95,0.85 -47.9,-5.24 5.2,10.27 11.73,20.13 21.09,27.05 19.72,15.12 45.44,19.39 69.71,19.13 9.81,0.26 18.52,-4.59 27.7,-7.25 20.94,-6.37 42.72,-10.38 64.64,-10.83 8.25,-0.31 15.97,3.33 24.18,3.69 21.85,1.31 42.91,-5.55 63.83,-10.73 11.09,-2.71 21.82,-6.7 32.99,-9.09 31.4,-6.9 64.33,-8.14 95.88,-1.37 12.58,2.61 24.42,7.64 36.61,11.58 -13.69,-11.97 -30.66,-19.64 -48.21,-23.96 -35.23,-8.77 -72.25,-4.45 -107.02,4.37 -15.93,3.63 -31.71,8.81 -48.14,9.44 -25.49,-0.26 -52.3,-6 -72.23,-22.83 2.19,7.82 5.8,15.13 10.12,21.99 -21.44,1.82 -45.16,-2.33 -60.75,-18.31 -9.7,-0.09 -19.76,-1.2 -28.02,-6.7 -6.32,-3.33 -9.99,-9.66 -15.06,-14.36 -5.79,-3.55 -12.48,-5.86 -17.11,-11.06 -5.53,-5.2 -8.1,-12.51 -10.01,-19.65 -4.7,-2.52 -9.62,-4.85 -13.41,-8.66 -7.99,-7.68 -10.2,-18.98 -10.92,-29.58 -5.57,-3.67 -10.84,-8.12 -13.69,-14.3 -7.88,-15.56 -6.09,-33.53 -4.07,-50.24 -8.47,12.22 -14.43,26.5 -15.08,41.49zm-468.84 115.43l0 0zm0 0c-33.77,13.5 -66.18,30.08 -99.47,44.71 -29.5,12.84 -59.87,25.11 -92.04,29.09 -12.49,1.74 -25.07,0.31 -37.58,-0.13 19.49,7.82 41.02,7.94 61.63,5.92 40.06,-4.59 78.23,-19.09 114.36,-36.49 28.12,-13.95 56.85,-26.88 86.86,-36.2 -0.66,7.12 0.52,14.26 3.46,20.81 -2.16,4.44 -5.16,8.97 -4.58,14.15 0.12,5.17 4.01,8.92 6.86,12.83 0.65,-5.18 0.02,-11.09 3.5,-15.42 3.07,-4.31 8.34,-5.99 12.85,-8.28 -1.46,-8.98 -6.58,-18.6 -2.2,-27.46 2.52,-5.61 8.62,-7.81 13.69,-10.45 0.02,-3.26 0.06,-6.5 0.11,-9.72 -23.38,0.78 -45.84,8.16 -67.45,16.64zm-673.36 -181.98l0 0zm0 0c11.03,4.23 21.87,9.19 31.29,16.46 7.97,-1.55 15.96,-3.11 23.97,-4.53 -16.93,-8.73 -36.13,-13.88 -55.26,-11.93zm-1.04 32.63l0 0zm0 0c21.8,8.03 45.81,9.57 68.53,4.91 -1.66,-4.06 -3.07,-8.29 -5.45,-12.01 -4.15,-1.63 -8.72,-1.19 -13.05,-0.96 -16.85,1.4 -33.41,5.05 -50.03,8.06z"/>
   <path class="fil1" d="M1446.27 596.63c21.67,-4.05 44.02,1.96 62.85,12.72 18.43,10.45 33.95,25.38 47.14,41.85 17.23,21.11 37.43,40.79 62.46,52.3 8.76,4.18 18.32,6.18 27.94,7.07 -19,4.55 -39.3,3.47 -57.39,-4.07 -11.99,8.58 -26.55,13.08 -41.33,12.04 3.83,2.16 7.66,4.31 11.51,6.46 -15.32,2.36 -32.64,0.79 -44.26,-10.51 -16.89,-16.17 -21.15,-40.82 -22.13,-63.18 0.39,-5.04 -3.62,-8.5 -6.68,-11.86 -7.08,-7.57 -15.72,-13.34 -23.75,-19.78 14.24,3.11 27.38,9.71 40.03,16.76 4.2,2.44 9.24,2.02 13.92,2.5 -18.06,-21.13 -42.15,-38.54 -70.31,-42.3zm-651.8 340.49c21.61,-8.48 44.07,-15.86 67.45,-16.64 -0.05,3.22 -0.09,6.46 -0.11,9.72 -5.07,2.64 -11.17,4.84 -13.69,10.45 -4.38,8.86 0.74,18.48 2.2,27.46 -4.51,2.29 -9.78,3.97 -12.85,8.28 -3.48,4.33 -2.85,10.24 -3.5,15.42 -2.85,-3.91 -6.74,-7.66 -6.86,-12.83 -0.58,-5.18 2.42,-9.71 4.58,-14.15 -2.94,-6.55 -4.12,-13.69 -3.46,-20.81 -30.01,9.32 -58.74,22.25 -86.86,36.2 -36.13,17.4 -74.3,31.9 -114.36,36.49 -20.61,2.02 -42.14,1.9 -61.63,-5.92 12.51,0.44 25.09,1.87 37.58,0.13 32.17,-3.98 62.54,-16.25 92.04,-29.09 33.29,-14.63 65.7,-31.21 99.47,-44.71zm468.84 -115.43c0.65,-14.99 6.61,-29.27 15.08,-41.49 -2.02,16.71 -3.81,34.68 4.07,50.24 2.85,6.18 8.12,10.63 13.69,14.3 0.72,10.6 2.93,21.9 10.92,29.58 3.79,3.81 8.71,6.14 13.41,8.66 1.91,7.14 4.48,14.45 10.01,19.65 4.63,5.2 11.32,7.51 17.11,11.06 5.07,4.7 8.74,11.03 15.06,14.36 8.26,5.5 18.32,6.61 28.02,6.7 15.59,15.98 39.31,20.13 60.75,18.31 -4.32,-6.86 -7.93,-14.17 -10.12,-21.99 19.93,16.83 46.74,22.57 72.23,22.83 16.43,-0.63 32.21,-5.81 48.14,-9.44 34.77,-8.82 71.79,-13.14 107.02,-4.37 17.55,4.32 34.52,11.99 48.21,23.96 -12.19,-3.94 -24.03,-8.97 -36.61,-11.58 -31.55,-6.77 -64.48,-5.53 -95.88,1.37 -11.17,2.39 -21.9,6.38 -32.99,9.09 -20.92,5.18 -41.98,12.04 -63.83,10.73 -8.21,-0.36 -15.93,-4 -24.18,-3.69 -21.92,0.45 -43.7,4.46 -64.64,10.83 -9.18,2.66 -17.89,7.51 -27.7,7.25 -24.27,0.26 -49.99,-4.01 -69.71,-19.13 -9.36,-6.92 -15.89,-16.78 -21.09,-27.05 14.95,6.09 32.17,12.64 47.9,5.24 -19.74,-13.21 -38.71,-30.33 -45.76,-53.81 -3.18,-8.71 -0.66,-18.89 -6.14,-26.79 -8.14,-13.43 -13.73,-28.93 -12.97,-44.82zm-1143.24 -33.92c16.62,-3.01 33.18,-6.66 50.03,-8.06 4.33,-0.23 8.9,-0.67 13.05,0.96 2.38,3.72 3.79,7.95 5.45,12.01 -22.72,4.66 -46.73,3.12 -68.53,-4.91zm1.04 -32.63c19.13,-1.95 38.33,3.2 55.26,11.93 -8.01,1.42 -16,2.98 -23.97,4.53 -9.42,-7.27 -20.26,-12.23 -31.29,-16.46zm133.69 -53.14c21.33,-10.4 48.64,-0.98 60.41,19.26 -2.06,3.33 -4.07,6.7 -6.07,10.06 -4.9,-10.73 -12.62,-20.51 -23.53,-25.55 -9.46,-4.97 -20.45,-5.29 -30.81,-3.77zm201.06 -71.9c24.75,-14.45 51.93,-24.27 79.39,-32.21 -37.51,15.86 -76.36,35.3 -100.01,69.86 -0.73,-3.57 -1.48,-7.12 -2.21,-10.65 -12.07,14.39 -21.65,30.84 -28.33,48.4 -2.13,-3.52 -4.26,-7.05 -6.99,-10.11 -6.7,12.83 -8.22,27.68 -8.98,41.93 -3.73,-3.68 -7.47,-7.36 -11.26,-10.99 -2.17,20.61 -1.78,41.66 3.42,61.81 -6.01,-8.4 -11.9,-16.89 -18.34,-24.97 -2.4,14.96 0.67,30.08 6.26,43.97 -2.15,8.38 -6.59,16.54 -5.35,25.54 -0.02,8.73 4.9,16.05 8.82,23.45 1.19,8.9 0.89,18.25 5.13,26.46 4.26,11.53 13.51,19.87 21.18,29.1 -0.96,6.91 -3.4,14.18 -0.92,21.04 4.25,12.36 11.86,23.42 21.24,32.49 15.65,16.72 29.69,35.69 37.41,57.46 -6.18,-2.86 -12.31,-5.86 -18.5,-8.67 11.17,19.33 17.13,41.42 17.33,63.73 -4.25,-4.38 -8.38,-8.89 -12.39,-13.52 5.86,18.89 5.79,39.26 1.77,58.5 -2.35,-3.05 -4.62,-6.14 -6.94,-9.21 -1.18,15.17 -4.14,31.82 3.45,45.86 4.16,8.46 14.65,3.98 21.66,2.56 37.37,-11.4 72.43,-29.2 107.18,-46.83 -1.81,-0.39 -5.42,-1.18 -7.22,-1.57 14.32,-11.55 31.9,-18.76 50.14,-21.02 -2.68,-0.93 -5.36,-1.89 -8.01,-2.81 17.93,-10.94 38.71,-16.99 59.69,-17.62 -5.85,-2.35 -11.66,-4.75 -17.45,-7.21 18.72,-9.23 39.93,-11.4 60.56,-10.66 -5.18,-3.13 -10.44,-6.1 -15.56,-9.29 20.07,-5.86 41.42,-6.97 61.98,-2.88 -4.54,-4.41 -9.16,-8.72 -13.75,-13.03 21.42,3.37 43.79,13.12 54.32,33.23 -31.43,-8.12 -64.03,-0.07 -93.9,10.36 -62.75,22.8 -119.61,58.41 -179.79,86.81 -20.5,9.42 -41.5,18.67 -63.96,22.16 -7.4,0.82 -15.93,2.13 -22.35,-2.62 -10.01,-8.81 -15.38,-22.02 -15.69,-35.25 -0.91,-25.53 5.37,-50.66 5.64,-76.15 0.04,-27.83 -2.64,-57.02 -17.15,-81.44 -7.51,-13.66 -20.44,-23 -29.1,-35.82 -9.83,-13.95 -19.41,-30.71 -16.13,-48.42 -7.94,-8.29 -16.03,-16.78 -20.95,-27.29 -6.47,-13.01 -5.01,-28.58 -12.71,-41.13 -8.86,-15.96 -26.99,-22.68 -43.01,-29.1 -17.1,-7.03 -36.23,-12.54 -48.66,-27.09 -13.66,-16.07 -13.67,-40.61 -2.52,-58.02 -4.53,12.9 -4.79,28.44 4.66,39.26 9.9,11.09 23.44,18.65 37.51,23.17 16.26,4.96 35.11,3.77 49.36,-6.03 11.6,-8.22 16.95,-21.86 24.14,-33.57 26.22,-44.55 60.58,-85.9 105.89,-111.97zm607.43 -38.65c35.69,3.54 70.01,16.69 100.56,35.21 -0.69,-9.84 -2.09,-19.61 -3.92,-29.29 17.35,12.35 32.47,27.72 44.36,45.39 0.19,-6.5 0.48,-13.01 0.84,-19.5 20.33,22.22 33.54,49.86 44.32,77.7 -21.73,25.44 -27.32,60 -28.76,92.4 -10.92,-23.72 -12.16,-51.64 -3.83,-76.34 4.95,-10.38 -3.22,-20.53 -5.61,-30.47 -2.46,5.87 -4.81,11.75 -7.35,17.58 -9.3,-17.17 -17.78,-34.82 -28.27,-51.34 -0.83,6.45 -1.86,12.89 -3.46,19.2 -23.12,-23.77 -52.24,-41.33 -83.55,-52.08 1,3.53 2.07,7.08 3.04,10.66 -35.01,-11.22 -72.33,-10.38 -108.48,-7.05 29.16,-10.88 60.48,-15.71 91.59,-14.73 -3.89,-5.75 -7.74,-11.51 -11.48,-17.34zm467.07 -30.17c42.81,17.87 73.97,54.15 100.69,90.78 -25.09,-2.23 -47.52,-15.65 -66.46,-31.47 -6.27,-5.18 -12.12,-10.89 -17.06,-17.37 10.01,2 19.58,5.61 28.99,9.47 -16.67,-15.91 -32.67,-32.69 -46.16,-51.41zm-199.59 -94.91c23.05,15.78 44.75,33.58 64.75,53.11 17.41,17.75 33.97,37.28 43.07,60.74 -8.51,-5.68 -17.68,-10.39 -27.65,-12.93 0.88,5.03 1.83,10.05 2.79,15.08 -7.68,-5.5 -15.95,-10.29 -25.16,-12.62 -0.54,4.55 -1.04,9.1 -1.58,13.67 -10.5,-7.3 -19.68,-16.91 -25.18,-28.54 -3.92,-8.53 -2.77,-18.28 0.21,-26.89 -7.76,-7.77 -11.75,-18.48 -10.57,-29.45 -8.4,-9.66 -15.8,-20.3 -20.68,-32.17zm13.3 -103.61l2.59 0 -1.94 0.02c9.44,13.47 18.28,27.4 28.84,40.05 14.49,17.87 30.99,33.99 48.01,49.42 0.48,-2.76 0.96,-5.51 1.45,-8.27 11.63,8.27 23.51,16.21 35.17,24.46 0.2,-1.93 0.63,-5.79 0.85,-7.74 62.35,37.53 118.78,84.61 168.62,137.54 21.5,22.39 39.87,47.61 61.91,69.51 20.9,21.11 45.95,37.78 72.65,50.68 24.31,12.51 48.07,26.05 71.62,39.96 15.89,9.57 31.95,18.99 46.9,30.03 16.04,-1.92 33.03,1.33 45.83,11.62 17.33,-5.44 37.43,-7.2 53.73,2.27 10.91,5.74 18.59,16.93 19.7,29.27l0 9.33c-0.76,13.95 -8.94,26.55 -20.7,33.8 -18.6,11.8 -39.3,20.24 -56.49,34.25 -17.48,13.28 -30.15,31.63 -47.06,45.55 -10.73,8.88 -24.28,14.39 -38.3,14.37 3.49,14.19 -2.09,28.81 -10.86,39.93 -10.14,13.39 -23.76,26.23 -41.26,27.99 -21.33,2.37 -41.81,-6.79 -60.35,-16.32 -12.51,-6.55 -24.98,-13.15 -37.52,-19.63 -11.49,-5.97 -24.46,-8.19 -37.21,-9.47 -24.4,-1.96 -49.21,0.43 -72.65,7.49 -13.75,4.41 -27.89,7.46 -41.82,11.18 -24.18,6.51 -49.97,8.86 -74.54,2.98 -16.43,-1 -32.86,2.27 -48.86,5.75 -9.97,1.91 -18.28,8.57 -28.38,9.96 -17.1,2.73 -34.56,1.44 -51.64,-0.82 -5.72,8.83 -6.66,19.56 -10.97,28.99 -11.81,29.11 -35.73,52.03 -63.44,66.09 -10.44,5.7 -22.04,9.31 -31.68,16.39 -8.97,6.7 -11.12,18.37 -17.28,27.18 -15.04,24.81 -43.86,40.56 -72.93,38.89 -21,-1.68 -41.91,-4.26 -62.87,-6.22 -14.13,18.36 -33.78,33.92 -57.41,36.82 -25.66,4.68 -50.99,-5.22 -72.73,-18.09 -18.55,-10.44 -34.98,-24.09 -52.17,-36.51 -14.82,-2.48 -30.29,0.47 -45,-3.23 -22.22,-8 -35.28,-29.59 -55.96,-40.1 -18.87,-11.39 -37.76,-22.75 -56.56,-34.26 -2.74,-1.46 -5.66,-3.94 -8.88,-2.3 -23.07,7.09 -44.78,17.91 -66.37,28.57 -40.55,20.31 -80.15,42.54 -121.33,61.56 -22.81,10.28 -46.14,20.16 -70.9,24.58 -15.09,2.54 -31.6,2.85 -45.36,-4.77 -18.39,-10.94 -31.99,-29.79 -35.86,-50.92 -5.86,-29.71 1.93,-59.61 3.54,-89.32 1.68,-23.4 -1.32,-47.66 -12.44,-68.6 -3.73,-8.11 -11,-13.58 -16.48,-20.39 -15.28,-18 -28.36,-39.06 -31.93,-62.78 -0.32,-6.18 -5.57,-10.12 -8.72,-14.93 -11.03,-14.45 -17.15,-31.97 -19.65,-49.84 -0.33,-7.46 -8.14,-10.1 -13.78,-12.88 -20.76,-8.97 -43,-15.39 -61.39,-29.06 -11.15,5.32 -23.94,6.23 -34.58,12.72 -23.66,12.68 -52,17.4 -78.17,10.55 -14,-3.35 -26.71,-10.45 -38.22,-18.93 -21.74,-13.72 -48.45,-10.04 -72.84,-12.35l0 -3.28 0.02 2.57c9.99,-11.32 18.92,-23.55 29.29,-34.52 10.8,-11.18 25.77,-17.17 41.07,-18.8 9.01,-10.25 20.17,-18.96 33.54,-22.74 29.4,-8.51 61.06,-0.94 87.62,12.81 1.84,-23.74 13.55,-46.89 32.77,-61.21 16.58,-12.85 38.32,-18.66 59.13,-16.17 21.76,2.37 42.09,14.03 55.67,31.14 28.07,-40.44 64,-76.36 107.86,-99.44 25.5,-13.68 52.97,-23.2 80.63,-31.46 27.04,-6.42 54.19,-12.54 81.76,-16.13 -3.46,-3.05 -6.92,-6.11 -10.4,-9.16 19.17,-4.29 38.4,-8.4 57.88,-10.93 -3.26,-2.87 -6.5,-5.72 -9.72,-8.62 20.13,-4.33 40.34,-8.46 60.74,-11.27 -3.05,-2.91 -6.14,-5.79 -9.17,-8.73 19.7,-4.04 39.52,-7.66 59.5,-10.05 -3.76,-3.53 -7.57,-7.03 -11.31,-10.58 20.69,-4.02 41.35,-8.24 62.28,-10.92 -4.27,-4.31 -8.59,-8.57 -12.77,-12.93 20.71,-3.42 41.56,-6.14 62.52,-7.59 -3.61,-4.12 -7.29,-8.17 -10.99,-12.21 21.28,-3.11 42.72,-5.81 64.25,-5.7 -3.99,-5.05 -7.99,-10.08 -11.84,-15.24 21.97,-1.46 44.04,-2.06 66.02,-0.63 -3.74,-5.98 -7.46,-11.97 -11.1,-18 22.4,1.14 44.77,3.33 66.88,7.23 -2.89,-6.64 -5.87,-13.23 -8.81,-19.83 21.2,4.14 42.28,9.03 63.07,14.97 -2.11,-6.05 -4.22,-12.09 -6.38,-18.1 20.76,5.7 41.48,11.73 61.42,19.89 -1.96,-7.29 -3.88,-14.58 -5.82,-21.87 21.24,8.72 42.33,18.06 62.12,29.77 -0.81,-6.23 -1.53,-12.49 -2.31,-18.74 28.53,15.58 56.38,32.58 82.28,52.28 -3.22,-21.98 -4.66,-44.2 -5.04,-66.42 22.67,22.8 47.02,44 73.58,62.15 1.8,-24.59 4.52,-49.12 7.83,-73.56zm8.46 32.82l0 0zm0 0c-1.41,11.77 -2.37,23.59 -2.48,35.43 10.43,4.64 20.31,10.43 30.63,15.34 -0.03,-3.89 -0.09,-7.77 -0.09,-11.66 3.04,1.43 6.11,2.85 9.16,4.26 -13.23,-13.73 -25.75,-28.14 -37.22,-43.37zm-75.32 10.01l0 0zm0 0c3.6,43.62 12.28,87.44 30.67,127.38 11.97,25.05 29.07,49.51 54.56,62.17 9.09,4.83 19.6,4.47 29.59,4.36 -7.96,8.11 -20.48,10.12 -30.9,5.98 -17.34,-7.03 -31.73,-19.65 -43.79,-33.67 -11.99,-11.53 -25.5,-21.36 -38.84,-31.24 -28.16,-20.42 -58.41,-38.16 -90.65,-51.3 1.92,6.24 4.05,12.43 6.08,18.63 -20.37,-8.12 -40.46,-16.93 -60.96,-24.75 2.31,5.23 4.62,10.45 6.81,15.74 -21.61,-7.75 -42.85,-16.61 -64.74,-23.53 3.31,5.14 6.81,10.15 10.27,15.21 -20.39,-3.59 -40.7,-7.7 -61.15,-10.88 4.09,5.18 8.27,10.3 12.33,15.52 -21.43,-2 -42.8,-4.44 -64.24,-6.27 5.2,6.05 10.8,11.71 16.21,17.56 -40.65,-1.43 -81.45,2.42 -121.3,10.43 6.94,6.57 14.38,12.58 21.41,19.06 -51.38,6.62 -102.08,18.42 -150.88,35.76 36.94,-20.74 77.17,-35.73 118.54,-44.94 -7.66,-7.01 -15.53,-13.78 -23.19,-20.8 39.78,-7.54 79.8,-14.2 120.19,-17.52 -5.59,-6.08 -11.2,-12.17 -16.62,-18.42 20.91,0.57 41.78,1.92 62.69,2.35 -4.15,-5.44 -8.38,-10.81 -12.47,-16.28 20.28,1.88 40.33,5.6 60.52,8.32 -3.59,-5.72 -7.16,-11.41 -10.57,-17.22 19.35,3.92 38.3,9.6 57.5,14.19 -2.38,-5.63 -4.88,-11.2 -7.32,-16.8 19.63,6.86 38.68,15.24 58.07,22.75 -2.11,-6.71 -4.42,-13.35 -6.81,-19.96 19.04,8.42 37.34,18.43 56.1,27.46 -2.33,-9.25 -4.92,-18.45 -7.1,-27.74 19.02,9.49 36.41,21.7 53.54,34.19 -2.35,-7.42 -4.79,-14.78 -7.01,-22.22 16.15,10.72 31.12,23.13 45.49,36.1 -2.42,-8.14 -3.61,-16.65 -6.6,-24.59 -3.17,-4.35 -7.79,-7.29 -11.88,-10.64 -16.41,-12.86 -33.4,-25.08 -51.45,-35.54 0.74,6.68 1.55,13.38 2.29,20.06 -18.28,-11.71 -36.76,-23.26 -56.61,-32.14 1.75,6.92 3.61,13.82 5.36,20.76 -19.22,-9.05 -38.74,-17.58 -59.09,-23.81 2.22,6.42 4.49,12.82 6.75,19.22 -19.92,-7.46 -40.22,-13.93 -60.96,-18.74 2.66,6.21 5.44,12.39 8.2,18.59 -20.69,-4.73 -41.65,-8.25 -62.76,-10.3 3.55,5.77 7.1,11.54 10.64,17.33 -21.04,-2.62 -42.28,-3.57 -63.46,-3.27 4.12,5.38 8.32,10.71 12.49,16.08 -21.43,-0.67 -42.95,-0.76 -64.3,1.31 4.55,5.03 9.13,10.06 13.77,15.04 -21.28,0.15 -42.57,1.04 -63.66,3.91 4.6,4.9 9.34,9.69 14.11,14.46 -21.09,1.13 -42.16,3.22 -62.9,7.27 4.9,4.52 9.78,9.05 14.41,13.86 -21.13,0.69 -42.11,3.5 -62.9,7.07 4.23,4 8.51,7.99 12.74,12.01 -21.31,0.53 -42.51,3.22 -63.49,6.88 4.7,4.05 9.38,8.14 13.83,12.47 -20.99,1.52 -42.03,3.14 -62.7,7.34 4.57,4.31 9.25,8.5 14.03,12.58 -34.84,1.61 -69.72,5.56 -103.61,13.94 -34.36,10.8 -69.38,20.98 -100.78,39.07 -48.8,27.44 -86.01,71.45 -114.13,119.17 -6.85,11.14 -11.9,24.88 -24.5,30.86 -15.56,7.95 -34.02,0.87 -46.42,-9.73 -5.83,-4.63 -6.66,-14.25 -1.2,-19.48 5.72,-6.5 17.59,-4.7 21.26,3.1 2.72,4.81 0.53,10.22 -0.63,15.12 8.9,3.15 20.2,4.07 27.05,-3.7 8.12,-9.31 12.41,-21.24 19.33,-31.4 -6.44,-13.73 -17.65,-25.18 -31.51,-31.45 -23.7,-11.25 -54.02,-5.24 -71.6,14.26 -21.92,22.8 -23.79,62.17 -2.38,85.93 21.2,24.29 55.91,26.71 81.53,44.14 10.45,6.97 10.29,20.5 13.03,31.43 3.62,16.71 13.89,30.88 25.18,43.3 -0.02,22.38 12,42.46 25.6,59.37 5.55,7.27 12.75,13.15 17.97,20.68 11.02,18.23 17.11,39.22 18.37,60.45 1.61,23.86 -2.31,47.56 -4.68,71.23 -1.39,14.43 -2.07,29.34 2.18,43.38 3.94,13.4 13.06,25.13 24.9,32.49 10.01,5.99 22.35,5.57 33.44,3.46 20.37,-4 39.44,-12.56 58.09,-21.4 39.1,-18.93 76.63,-40.87 115.58,-60.1 31.73,-15.54 64.35,-30.23 99.11,-37.46 25.33,-5.42 52.79,-5.54 76.56,5.9 -1.15,-7.59 -4.96,-15.84 -1.09,-23.24 5.86,-12.56 15.56,-22.72 23.98,-33.56 9.43,-11.82 19.03,-26.24 15.48,-42.17 6.11,-2.59 12.25,-5.12 18.41,-7.6 -2.05,-9.92 -4.79,-19.68 -6.57,-29.66 5.79,-4.38 12.79,-6.69 19.21,-9.97 -1.37,-4.53 -2.72,-9.07 -4.07,-13.58 7.99,-2.77 16,-5.51 23.94,-8.47 -18.34,-12.53 -41.96,-12.23 -63.07,-9.25 -41.04,6.45 -79.26,24.12 -115.62,43.57 -28.77,14.85 -58.67,27.88 -89.99,36.3 -19.41,5.05 -39.52,8.6 -59.63,6.93 -11.65,-0.88 -19.61,-10.48 -28.69,-16.7 -5.3,-3.26 -6.44,-9.68 -7.89,-15.21 6.92,1.26 13.84,2.55 20.8,3.68 -12.16,-9.19 -23.87,-20.35 -28.72,-35.22 -5.05,-14.2 -2.01,-30.01 5.28,-42.85 1.35,13.89 4.31,27.97 11.97,39.87 14.19,23.77 39.92,37.91 65.85,45.38 4.92,1.87 9.93,-0.59 14.59,-2.09 18.19,-6.73 35.71,-15.84 50.47,-28.53 -4.47,-1.02 -8.95,-2 -13.41,-3.03 9.95,-7.4 20.59,-14.93 26.62,-26.09 -4.82,-0.54 -9.67,-1.02 -14.5,-1.48 13.38,-11.27 23.83,-28.05 21.02,-46.2 -4.04,-28.01 -24.41,-49.75 -44.19,-68.4 28.59,9.18 55.32,30.84 62.21,61.2 7.19,28.92 -4.24,58.3 -19.13,82.78 11.54,-4.81 22.85,-10.16 34.33,-15.12 6.5,-17.3 9.7,-36.26 6.24,-54.59 -3.83,-23.61 -17.52,-44.24 -33.54,-61.43 -19.6,-21.68 -44.46,-37.89 -63.63,-59.96 -7.07,-7.77 -10.21,-18.71 -6.75,-28.84 12.65,12.74 25.33,25.58 39.83,36.24 26.26,19.57 53.36,39.3 72.66,66.2 6.56,8.77 10.58,19.98 20.26,25.99 10.61,6.94 23.92,7.11 36.09,5.48 -1.28,-28.46 3.63,-60.76 26.27,-80.45 -6.53,20.47 -11.25,41.84 -10.06,63.45 0.41,17.37 6.2,34.57 17.13,48.14 18.15,-2.78 37.13,-3.54 54.77,2.4 11.34,3.68 23.9,8.64 29.91,19.69 3.2,5.73 1.19,12.37 -0.41,18.26 25.3,17.04 54.2,27.88 83.67,35.17 31.82,8.32 64.59,12.51 96.22,21.57 14.86,4.48 29.92,10.45 40.98,21.76 -62.03,49.84 -137.57,82.63 -216.17,94.87 -15.78,2.24 -31.69,4.68 -47.67,3.69 10.41,9.88 22.22,18.77 36.22,22.75 18.08,4.98 30.75,19.5 44.94,30.77 13.3,10.84 29.29,21.04 47.18,19.89 12.45,-0.76 21.33,-10.81 28.94,-19.61 16.52,-20.8 34.58,-42.65 60.14,-52.36 -6.4,6.97 -13.57,13.25 -19.42,20.72 -12.68,15.93 -23.37,33.32 -35.23,49.84 -5.73,7.72 -11.99,15.49 -20.48,20.3 -11.51,6.05 -25.88,6.35 -37.65,0.78 -20.15,-8.94 -38.06,-22.04 -55.8,-34.93 -7.7,-5.39 -14.8,-12.16 -23.9,-15.08 -15.56,-4.41 -32.09,-1.39 -47.81,-3.92 -11.18,-7.72 -19.47,-19.08 -31.27,-26.06 -9.75,-5.62 -19.04,-12.11 -29.08,-17.2 -11.44,-3.72 -23.65,-4.07 -35.56,-4.4 18.24,11.93 37.35,22.49 55.76,34.17 12.47,9.67 22.78,22.42 37.1,29.54 15.98,4.44 33.33,-0.64 49.19,4.3 21.07,15.56 41.42,32.58 65.18,44.1 16.1,8.42 34.93,13.4 52.93,8.46 21.35,-4.59 36.25,-22.11 47.85,-39.39 16.24,-24.42 32.88,-49.31 56.11,-67.7 28.16,-23.33 64.68,-32.61 94.14,-53.89 22.85,-16.04 40.7,-38.37 53.8,-62.87 -28.84,-32.15 -38.78,-77.48 -36.63,-119.67 4.92,29.16 12.63,58.6 29.27,83.46 14.69,22.59 36.96,40.37 62.81,48.4 15.97,5.35 33.01,5.83 49.69,6.13 10.03,-0.04 18.19,-6.59 27.63,-9.01 16.35,-4.65 33.32,-6.92 50.26,-8.07 11.9,-1.35 23.15,4.22 35.03,3.61 20.79,0.87 40.89,-5.02 60.79,-10.18 16.8,-3.81 32.97,-10.23 50.11,-12.56 29.41,-4.4 60.27,-4.55 88.69,5.12 26.12,10.01 50.47,24.15 76.56,34.31 8.75,3.7 19.2,6.21 28.03,1.24 11.17,-6.33 20.04,-16.86 25.18,-28.57 4.13,-9.45 0.26,-19.72 -5.07,-27.79 -2.05,5 -3.53,11.18 -8.92,13.67 -11.95,6.2 -25.9,1.7 -37.65,-2.75 -29.6,-12.01 -56.59,-29.4 -83.48,-46.46 -6.49,-3.92 -12.41,-9.62 -20.22,-10.66 -17.28,-2.94 -35.61,2.04 -52.23,-4.96 -18.98,-7.69 -30.64,-25.92 -48.29,-35.65 -7.73,-4.68 -17.04,-2.96 -25.56,-4.03 -10.33,-1.06 -21.36,-3.83 -28.81,-11.51 -5.55,-6.22 -8.42,-15.97 -4.57,-23.74 4.98,-8.17 14.74,-11.38 23.46,-13.82 22.55,-5.57 46.03,-4.88 68.99,-2.88 -0.85,-5.15 -1.72,-10.27 -2.65,-15.38 -23.14,-1.57 -46.77,-2.07 -69.41,3.7 -9.92,2.65 -20.02,6.81 -26.89,14.73 -3.6,4.09 -4.97,9.49 -6.9,14.47 -1.25,-7.88 -1.13,-16.6 3.78,-23.31 7.25,-10.07 19.87,-14.4 31.75,-15.84 22.64,-2.44 45.47,0.48 67.6,5.46 -3.59,-16.34 -9.42,-32.49 -19.87,-45.74 -4.38,-4.74 -4.38,-13.02 0.85,-17.13 4.94,-4.44 12.38,-2.61 17.24,1.02 23.74,16 38.6,41.64 49.55,67.45 7.03,-13.23 16.1,-25.4 27.25,-35.46 11.03,-10.48 24.91,-17.06 37.84,-24.82 -2.98,19.41 -7.86,38.54 -9.42,58.15 -0.76,15.27 -1.94,30.57 -5.77,45.37 33.91,22.72 67.44,46.12 99.37,71.58 10.97,8.62 19.02,21.15 32.23,26.75 9.69,4.5 21.17,3.32 30.45,-1.64 16.08,-8.46 28.37,-22.24 40.78,-35.15 11.38,-11.77 24.83,-21.43 39.24,-29.18 -14.87,3.42 -29.03,9.29 -42.74,15.87 -0.18,9.55 -8.82,15.21 -15.5,20.54 -10.32,7.21 -21.54,14.49 -34.3,15.86 -4.15,0.68 -8.31,-3.41 -6.74,-7.55 3.17,-9.87 12.42,-15.95 20.48,-21.63 26.42,-16.82 57.21,-25.42 87.89,-30.31 9.91,-1.31 18.53,-6.92 26.77,-12.23 9.88,-6.36 15.19,-19.02 12.54,-30.49 -2.61,-8.67 -11.25,-14.11 -19.83,-15.43 -14.23,-2.12 -28.31,2.78 -41.04,8.7 -23.57,11.43 -44.18,28.01 -63.48,45.53 7.64,-25.09 25.53,-45.9 46.55,-61.04 -9.36,-2.07 -19.2,-1.7 -28.21,1.71 -22.85,8.1 -41.65,24.22 -58.87,40.77 3.92,-23.88 19.15,-44.07 37.41,-59.22 -31.79,-20.28 -65.37,-37.52 -98.49,-55.48 -22.72,-11.55 -44.73,-24.8 -63.99,-41.58 -28.61,-24.55 -50.6,-55.46 -75.88,-83.18 -40.42,-45.48 -88.47,-83.53 -139.13,-116.97 -0.41,3.76 -0.79,7.54 -1.18,11.31 -11.69,-10.05 -23.72,-19.7 -36.45,-28.42 -0.76,4.89 -1.52,9.77 -2.22,14.65 -11.14,-9.28 -22.87,-17.89 -35.49,-25.03 -0.03,2.78 -0.03,5.53 -0.01,8.31 10.41,7.03 20.57,14.48 29.97,22.87 11.93,10.87 24.4,23.84 25.9,40.79 -26.66,-33.5 -63.5,-56.7 -100.44,-77.37 -28.5,-14.91 -53.57,-35.36 -77.91,-56.17zm-1187.74 353.1l0 0zm0 0c16.82,3.68 34.47,6.9 48.96,16.8 -7.76,1.66 -15.69,2.85 -23.65,2.48 -11.45,-0.45 -21.77,-6.33 -33.15,-7.31 -15.45,-2.07 -32.21,3.81 -41.63,16.52 12.08,1.57 24.26,3.85 35.36,9.05 8.17,3.66 14.81,9.88 22.72,14.04 20.29,11.17 45.9,12.9 67.21,3.59 -19.59,-1.91 -39.46,-5.03 -57.32,-13.69 -8.21,-3.89 -15.04,-10.23 -23.57,-13.54 -6.86,-2.93 -14.45,-3.08 -21.81,-3.34 9.12,-2.83 18.93,-3.66 28.23,-1.2 11.07,2.48 19.67,10.53 30.27,14.21 27.86,10.33 59.26,11.08 87.51,1.74 -7.84,-9.95 -12.04,-21.89 -16.17,-33.65 -18.24,-12.79 -40.52,-20.26 -62.87,-20.58 -14.61,-0.39 -29.58,4.46 -40.09,14.88zm1492.86 -11.53l0 0zm0 0c9.22,12.86 15.78,27.51 19.54,42.89 6.2,25.36 7.38,51.76 5.53,77.76 -0.59,7.71 0.08,16.54 6.07,22.16 5.49,5.15 14.12,3.7 20.26,0.52 8.01,-4.31 10.03,-14.41 8.97,-22.75 -2.57,-20.19 -7.55,-40.08 -14.93,-59.04 -9.55,-23.81 -23.63,-47.18 -45.44,-61.54zm63.91 74.56l0 0zm0 0c-2.95,8.09 -3.56,18.74 3.53,24.89 5.42,4.4 13.52,7.77 20.22,4.23 7.44,-4.55 10.16,-13.72 10.73,-21.96 1.93,-19.92 2.5,-40 6.87,-59.61 -18.47,13.01 -33.43,31.21 -41.35,52.45zm-112.07 24.5l0 0zm0 0c2.19,11.06 19.04,16.8 26.35,7.6 4.24,-10.03 4.29,-23.42 -4.26,-31.34 -6.79,8.44 -15.15,15.41 -22.09,23.74zm27.31 6.92l0 0zm0 0c2.55,9.71 14.52,14.93 23.39,10.43 4.88,-3.11 5.03,-9.34 5.64,-14.48 0.81,-7.28 -1.68,-14.66 -6.88,-19.82 -6.81,8.49 -15.23,15.49 -22.15,23.87zm105.64 37.11l0 0zm0 0c-2.09,10.86 11.42,19.41 20.82,14.52 -0.83,10.55 11.97,20.15 21.22,13.47 -0.33,10.22 12.34,20.13 21.28,13.05 7.17,-7.98 13.87,-19.13 10.21,-30.2 -9.1,4.44 -18.37,8.53 -27.64,12.6 4.7,-7.66 9.69,-16.74 6.14,-25.92 -9.05,4.85 -18.59,8.64 -27.92,12.9 4.44,-8.92 8.66,-19.78 3.39,-29.31 -8.72,6.96 -19.17,11.51 -27.5,18.89zm-758.39 51.92l0 0zm0 0c0.72,3.85 1.45,7.71 2.19,11.56 -5.98,3.11 -12.05,5.98 -17.93,9.23 12.17,5.85 24.86,10.6 38.02,13.69 36.39,8.7 73.97,10.16 111.17,12.38 -14.63,-3.26 -29.45,-5.72 -43.97,-9.45 -31.6,-7.53 -62.06,-19.97 -89.48,-37.41zm393.47 74.09l0 0zm0 0c-8.1,28.9 -26.9,54.82 -52.76,70.33 -16.16,9.92 -35.56,14.91 -49.03,28.88 -7.83,7.68 -12.34,17.78 -17.21,27.42 -7.51,14.71 -23.07,25.62 -39.92,25.22 -16.06,-0.49 -31.98,-2.98 -47.94,-4.37 -4.29,5.46 -8.31,11.14 -12.03,17 16.27,1.72 32.53,3.39 48.79,5.02 14.52,1.61 29.7,-1.63 41.78,-10.03 12.84,-8.51 20.94,-22.02 27.16,-35.76 8.08,-16.91 26.31,-24.11 42.27,-31.42 26.33,-11.99 49.62,-32.56 60.48,-59.83 3.87,-9.07 4.78,-19.19 9.86,-27.76 -3.83,-1.55 -7.65,-3.12 -11.45,-4.7zm205.28 -362.25l0 0zm0 0c8.88,1.53 17.78,3.09 26.71,4.4 -2.42,-2.61 -4.66,-5.48 -7.62,-7.51 -6.49,0.07 -12.82,1.68 -19.09,3.11zm-3.22 8.4l0 0zm0 0c0.77,14.48 5.9,28.93 16.26,39.33 -4.96,-12.14 -7.72,-24.98 -8.14,-38.09 -2.72,-0.41 -5.44,-0.84 -8.12,-1.24zm16.94 5.77l0 0zm0 0c1.24,13.8 5.17,29.34 17.41,37.46 12.57,7.57 27.98,1.91 39.58,-4.86 -2.37,-1.81 -4.76,-3.59 -7.14,-5.35 -5.39,9.77 -19.37,13.88 -28.11,6.05 -9.56,-7.75 -7.36,-23.64 2.98,-29.71 -5.7,-7.88 -16.58,-4.04 -24.72,-3.59zm23.87 16.6l0 0zm0 0c-2.02,4.81 1.89,8.93 4.7,12.34 -1.37,-6.33 2.03,-11.66 3.98,-17.25 -3.57,-3.61 -7.31,1.76 -8.68,4.91z"/>
   <path class="fil2" d="M1521.2 668.18c8.14,-0.45 19.02,-4.29 24.72,3.59 -10.34,6.07 -12.54,21.96 -2.98,29.71 8.74,7.83 22.72,3.72 28.11,-6.05 2.38,1.76 4.77,3.54 7.14,5.35 -11.6,6.77 -27.01,12.43 -39.58,4.86 -12.24,-8.12 -16.17,-23.66 -17.41,-37.46zm-612.47 273.99c27.42,17.44 57.88,29.88 89.48,37.41 14.52,3.73 29.34,6.19 43.97,9.45 -37.2,-2.22 -74.78,-3.68 -111.17,-12.38 -13.16,-3.09 -25.85,-7.84 -38.02,-13.69 5.88,-3.25 11.95,-6.12 17.93,-9.23 -0.74,-3.85 -1.47,-7.71 -2.19,-11.56zm758.39 -51.92c8.33,-7.38 18.78,-11.93 27.5,-18.89 5.27,9.53 1.05,20.39 -3.39,29.31 9.33,-4.26 18.87,-8.05 27.92,-12.9 3.55,9.18 -1.44,18.26 -6.14,25.92 9.27,-4.07 18.54,-8.16 27.64,-12.6 3.66,11.07 -3.04,22.22 -10.21,30.2 -8.94,7.08 -21.61,-2.83 -21.28,-13.05 -9.25,6.68 -22.05,-2.92 -21.22,-13.47 -9.4,4.89 -22.91,-3.66 -20.82,-14.52zm-105.64 -37.11c6.92,-8.38 15.34,-15.38 22.15,-23.87 5.2,5.16 7.69,12.54 6.88,19.82 -0.61,5.14 -0.76,11.37 -5.64,14.48 -8.87,4.5 -20.84,-0.72 -23.39,-10.43zm-27.31 -6.92c6.94,-8.33 15.3,-15.3 22.09,-23.74 8.55,7.92 8.5,21.31 4.26,31.34 -7.31,9.2 -24.16,3.46 -26.35,-7.6zm112.07 -24.5c7.92,-21.24 22.88,-39.44 41.35,-52.45 -4.37,19.61 -4.94,39.69 -6.87,59.61 -0.57,8.24 -3.29,17.41 -10.73,21.96 -6.7,3.54 -14.8,0.17 -20.22,-4.23 -7.09,-6.15 -6.48,-16.8 -3.53,-24.89zm-63.91 -74.56c21.81,14.36 35.89,37.73 45.44,61.54 7.38,18.96 12.36,38.85 14.93,59.04 1.06,8.34 -0.96,18.44 -8.97,22.75 -6.14,3.18 -14.77,4.63 -20.26,-0.52 -5.99,-5.62 -6.66,-14.45 -6.07,-22.16 1.85,-26 0.67,-52.4 -5.53,-77.76 -3.76,-15.38 -10.32,-30.03 -19.54,-42.89z"/>
  </g>
 </g>
</svg>
