<?xml version="1.0" encoding="UTF-8"?>
<!DOCTYPE svg PUBLIC "-//W3C//DTD SVG 1.1//EN" "http://www.w3.org/Graphics/SVG/1.1/DTD/svg11.dtd">
<!-- Creator: CorelDRAW -->
<svg xmlns="http://www.w3.org/2000/svg" xml:space="preserve" width="2000px" height="1600px" version="1.1" style="shape-rendering:geometricPrecision; text-rendering:geometricPrecision; image-rendering:optimizeQuality; fill-rule:evenodd; clip-rule:evenodd"
viewBox="0 0 2000 1600"
 xmlns:xlink="http://www.w3.org/1999/xlink">
 <defs>
  <style type="text/css">
   <![CDATA[
    .fil1 {fill:#173561;fill-rule:nonzero}
    .fil0 {fill:#F48229;fill-rule:nonzero}
   ]]>
  </style>
 </defs>
 <g id="Capa_x0020_1">
  <metadata id="CorelCorpID_0Corel-Layer"/>
  <g id="Auburn_x0020_Tigers.cdr">
   <path class="fil0" d="M834.3 0l331.8 0c59.82,105.44 119.12,211.19 178.76,316.71 0.18,-35.52 0,-71.04 0.08,-106.56 187.54,-0.05 375.11,0 562.66,-0.02l0 257.59c-37.55,0.03 -75.09,-0.02 -112.64,0.03 -0.05,166.66 -0.05,333.29 0,499.95 36.05,0.05 72.13,-0.03 108.18,0.02 0.05,84.59 0.03,169.17 0.03,253.75 -40.51,0.18 -81.04,-0.1 -121.55,0.15 -10.81,49.5 -28.23,98.08 -55.95,140.71 -19.52,30.35 -45.16,56.71 -74.91,77.14 -69.75,50.68 -148.25,89.19 -231.16,112.94 -118.26,34.43 -241.98,44.12 -364.59,47.59l-110.05 0c-119.16,-3.42 -239.26,-12.61 -354.55,-44.73 -76.54,-21.12 -149.98,-53.93 -215.85,-98.36 -34.38,-22.83 -68.11,-47.62 -94.61,-79.57 -37.8,-43.74 -60.96,-98.88 -69.7,-155.79 -37.59,-0.06 -75.19,0 -112.76,-0.03 -0.02,-84.61 -0.05,-169.21 0,-253.82 35.85,0 71.7,0.05 107.55,0 0.05,-166.66 0.05,-333.29 0,-499.95 -37.55,-0.05 -75.09,0 -112.64,-0.03l0 -257.59c187.55,0.02 375.12,-0.03 562.66,0.02 0.05,35.87 -0.02,71.72 0.03,107.6 59.85,-105.85 119.42,-211.88 179.21,-317.75zm-305.19 544.84c13.09,-25.5 25.45,-51.4 38.23,-77.07 -12.73,-0.1 -25.47,-0.02 -38.18,-0.05 -0.1,25.72 0,51.42 -0.05,77.12zm737.85 302.63c-171.97,0.08 -343.95,-0.13 -515.92,0.1 -21.57,38.89 -43.7,77.44 -65.27,116.3 49.24,0.11 98.51,0 147.77,0.06 0.03,85.84 -0.02,171.69 0.03,257.54 -81.09,0.18 -162.18,-0.1 -243.27,0.13 46.43,29.06 96.89,52.3 150.21,65.41 64.6,15.9 131.31,20.64 197.62,22.71 56.5,1.78 113.11,1.09 169.59,-1.95 66.66,-4 133.93,-11.89 197.14,-34.48 36.66,-13.34 71.8,-30.98 104.86,-51.69 -81.09,-0.21 -162.17,0.02 -243.29,-0.11 0.05,-84.58 0,-169.18 0.03,-253.77 55.72,-0.02 111.41,0 167.14,-0.02 -22.31,-40.03 -44.43,-80.16 -66.64,-120.23zm168.53 -379.75c12.84,25.7 25.57,51.42 38.59,77.04 -0.08,-25.67 -0.03,-51.34 -0.03,-77.01 -12.86,-0.05 -25.69,-0.03 -38.56,-0.03zm-427.29 -76.2c-37.49,65.06 -75.04,130.08 -112.53,195.14 74.53,0.1 149.07,-0.03 223.6,0.08 -37.02,-65.09 -73.83,-130.28 -111.07,-195.22z"/>
   <path class="fil1" d="M864.63 50.61c90.46,0.05 180.89,0.02 271.35,0.02 182.1,322.74 364.02,645.55 546.02,968.33 56.61,0.03 113.22,0.05 169.85,0 0.1,50.43 0.03,100.86 0.03,151.29 -211.37,0.03 -422.74,0 -634.13,0 -0.05,-50.43 -0.03,-100.83 0,-151.24 67.57,-0.02 135.14,-0.05 202.71,0 -41.14,-74.28 -82.18,-148.63 -123.45,-222.83 -191.97,0.12 -383.95,-0.13 -575.95,0.12 -40.81,73.07 -82,145.9 -122.93,218.89 61.59,0.03 123.19,-0.05 184.78,0.03 -0.02,51.67 0,103.34 0,155.01 -211.39,0.05 -422.78,0.05 -634.18,0 -0.02,-50.41 0.03,-100.81 0,-151.22 56.64,-0.1 113.27,0.05 169.93,-0.07 181.87,-322.84 363.85,-645.62 545.97,-968.33zm-602.38 1170.4c83.37,-0.32 166.74,0 250.1,-0.15 31.37,38.21 76.69,60.66 120.33,81.8 94.92,45.19 201.62,55.14 305.32,58.25 49.8,1.6 99.6,1.14 149.37,-0.86 66.93,-3.04 134.23,-9.42 198.96,-27.39 41.16,-11.29 80.61,-28.25 118.03,-48.66 31.01,-16.23 60.96,-35.95 83.41,-63.19 83.32,0.28 166.64,-0.15 249.95,0.2 -7.82,44.08 -26.22,86.56 -55.04,120.99 -29.59,36.18 -69.16,62.1 -108.22,86.91 -78.16,48.71 -166.64,78.89 -256.89,95.5 -123.34,22.98 -249.32,25.79 -374.43,24.07 -121.47,-2.99 -244.25,-12.81 -360.96,-48.71 -81.67,-24.96 -158.18,-65.87 -225.27,-118.63 -35.11,-28.45 -63.75,-65.42 -79.95,-107.8 -6.58,-16.91 -11.42,-34.48 -14.71,-52.33zm1133.98 -959.64c153.57,0.05 307.14,0.02 460.71,0.02 0.02,51.7 0.07,103.39 -0.03,155.09 -37.72,-0.07 -75.44,0.03 -113.16,-0.05 -0.18,183.98 0,367.93 -0.08,551.9 -10.86,0.03 -21.72,0.08 -32.58,-0.05 -61.82,-110.18 -124.13,-220.13 -186.03,-330.28 -1.31,-2.28 -1.87,-4.76 -1.67,-7.37 0.05,-73.72 0.03,-147.41 0,-221.11 -42.38,-0.05 -84.78,-0.03 -127.16,-0.03 -0.05,-49.36 -0.05,-98.73 0,-148.12zm-1253.17 0.02c153.57,0 307.14,0 460.71,0 0.05,49.37 0.05,98.74 0,148.1 -42.4,0 -84.78,-0.02 -127.16,0.03 0,72.83 -0.1,145.7 0.05,218.56 -0.23,3.44 0.45,7.29 -1.39,10.45 -61.9,109.93 -124,219.75 -185.83,329.75 -11.04,0.13 -22.07,0.08 -33.11,0.05 -0.13,-183.97 0.23,-367.98 -0.15,-551.95 -37.7,0.2 -75.4,0 -113.09,0.1 -0.1,-51.7 -0.05,-103.39 -0.03,-155.09zm663.85 376.59l0 0c133.44,0 266.89,0 400.33,0 -66.07,-116.64 -132.48,-233.12 -198.71,-349.68 -67.09,116.64 -134.35,233.14 -201.62,349.68z"/>
  </g>
 </g>
</svg>
