<?xml version="1.0" encoding="UTF-8"?>
<!DOCTYPE svg PUBLIC "-//W3C//DTD SVG 1.1//EN" "http://www.w3.org/Graphics/SVG/1.1/DTD/svg11.dtd">
<!-- Creator: CorelDRAW -->
<svg xmlns="http://www.w3.org/2000/svg" xml:space="preserve" width="2000px" height="1600px" version="1.1" style="shape-rendering:geometricPrecision; text-rendering:geometricPrecision; image-rendering:optimizeQuality; fill-rule:evenodd; clip-rule:evenodd"
viewBox="0 0 2000 1600"
 xmlns:xlink="http://www.w3.org/1999/xlink">
 <defs>
  <style type="text/css">
   <![CDATA[
    .fil2 {fill:#050607;fill-rule:nonzero}
    .fil1 {fill:#145FAC;fill-rule:nonzero}
    .fil4 {fill:#221F1F;fill-rule:nonzero}
    .fil3 {fill:#494F52;fill-rule:nonzero}
    .fil0 {fill:#FEFEFE;fill-rule:nonzero}
   ]]>
  </style>
 </defs>
 <g id="Capa_x0020_1">
  <metadata id="CorelCorpID_0Corel-Layer"/>
  <g id="Bentley_x0020_Falcons.cdr">
   <path class="fil0" d="M711.3 78.65c95.1,-17.67 191.85,-25.04 288.45,-27.11 0.02,18.76 0,37.52 0.02,56.3 -82.35,3.3 -164.75,9.28 -246.25,22 -101.74,15.47 -200.74,45.2 -296.82,81.63 5.27,229.68 10.81,459.37 16.55,689.03 1.65,45.09 -0.21,90.96 11.38,134.98 7.13,29.41 20.5,56.72 34.91,83.15 15.7,31.44 36.2,60.31 60.25,85.89 44.58,47.66 95.4,88.95 146.48,129.39 82.94,66.68 177.76,116.45 273.44,162.03 0.09,20.46 0.04,40.94 0.04,61.41 -51.98,-27.54 -103.41,-56.12 -154.04,-86.12 -54.04,-32.43 -107.89,-65.76 -156.45,-106.15 -34.65,-28.32 -68.69,-57.37 -101.24,-88.1 -41.92,-39.78 -82.1,-82.36 -112.05,-132.11 -18.52,-31.36 -35.98,-63.96 -44.68,-99.58 -10.71,-40.53 -9.83,-82.76 -11.07,-124.3 -6.88,-247.47 -14.07,-494.94 -20.5,-742.42 3.68,-1.44 7.3,-3 10.9,-4.63 96.07,-43.28 196.93,-76.36 300.68,-95.29zm-89.85 152.52c126.1,0.03 252.23,0.01 378.34,0.01 33.98,0.32 68.05,-1.01 101.98,1.64 48.45,3.88 97.46,11.81 142.09,31.88 44.73,20.17 80.73,57.83 100.38,102.64 16.85,37.59 22.14,79.5 19.91,120.39 -1.92,38.73 -11.24,77.75 -31.29,111.23 -15.64,26.63 -38.72,48.45 -65.22,64.13 -25.77,15.1 -54.27,26.13 -83.9,30.46 54.41,6.44 109.67,21.7 153.94,55.21 25.15,18.72 43.1,45.33 56.33,73.41 15.17,32.49 22.66,68.56 21.44,104.41 -1.13,38.8 -12.06,77.01 -29.84,111.43 -12.93,26.11 -32.17,48.73 -54.51,67.3 -27.76,23.06 -59.99,40.33 -93.58,53.22 -30.47,11.52 -62.26,20.2 -94.75,23.26 -47.6,2.74 -95.32,1.54 -142.98,1.8 -117.78,-0.81 -235.54,-2.91 -353.28,-5.82l0.04 -0.52c15.17,-23.3 29.58,-47.1 44.49,-70.57 46.65,-0.01 93.3,0.06 139.93,-0.03 -0.02,-265.03 -0.06,-530.05 0.02,-795.07 33.48,25.55 66.9,51.17 100.29,76.83 0.04,82.91 -0.02,165.79 0.04,248.7 0.21,50.76 0.69,101.54 0.92,152.29 -0.02,85.41 0.04,170.83 -0.04,256.23 -32.86,21.31 -65.93,42.28 -98.66,63.75 69.93,2.67 139.93,4.84 209.91,3.91 35.08,-0.77 70.55,-1.47 104.82,-9.87 37.78,-8.85 74.63,-24.72 104.16,-50.31 23.63,-20.16 41.56,-46.83 51.47,-76.26 10.48,-31.76 15.7,-65.92 10.43,-99.19 -4.66,-29.7 -19.29,-57.31 -39.6,-79.27 -17.8,-19.43 -39.18,-35.32 -61.64,-48.96 -36.65,-21.27 -77.92,-33.09 -119.22,-41.32 -31.92,-5.91 -64.26,-10.51 -96.75,-11.12 23.47,-5.14 47.38,-8.33 70.7,-14.26 26.56,-6.85 53.83,-11.54 79.34,-21.95 24.33,-9.77 47.36,-22.84 68.26,-38.66 23.93,-18.43 39.95,-45.93 46.22,-75.31 5.72,-26.11 5.91,-53.04 5.12,-79.62 -1.41,-33.91 -20.47,-64.3 -43.67,-87.9 -21.8,-21.27 -47.49,-39.14 -76.28,-49.44 -41.03,-14.03 -84.69,-18.1 -127.8,-19.42 -112.39,0.04 -224.81,-0.11 -337.2,0.1 -20.35,-26.28 -39.6,-53.42 -60.36,-79.36z"/>
   <path class="fil1" d="M972.87 0l26.88 0c0.05,16.99 0.04,33.99 0,50.98l0 0.56c-96.6,2.07 -193.35,9.44 -288.45,27.11 -103.75,18.93 -204.61,52.01 -300.68,95.29 -3.6,1.63 -7.22,3.19 -10.9,4.63 6.43,247.48 13.62,494.95 20.5,742.42 1.24,41.54 0.36,83.77 11.07,124.3 8.7,35.62 26.16,68.22 44.68,99.58 29.95,49.75 70.13,92.33 112.05,132.11 32.55,30.73 66.59,59.78 101.24,88.1 48.56,40.39 102.41,73.72 156.45,106.15 50.63,30 102.06,58.58 154.04,86.12l0 1.33c0.19,13.77 -0.34,27.55 0.41,41.32l-1.01 0c-62.52,-33.52 -125.08,-67.13 -185.91,-103.69 -54.75,-32.9 -109.11,-67.02 -158.16,-108.13 -52.95,-43.63 -105.1,-88.69 -151.2,-139.63 -22.14,-24.56 -42.54,-50.8 -59.48,-79.22 -19.94,-33.95 -38.38,-69.31 -48.28,-107.63 -8.78,-32.32 -10.88,-65.95 -11.9,-99.28 -7.59,-268.59 -14.06,-537.21 -21.73,-805.8l0 -17.89c143.02,-66.96 296.77,-111.23 453.79,-128.69 52,-6.08 104.31,-8.82 156.59,-10.04zm-219.35 129.84c81.5,-12.72 163.9,-18.7 246.25,-22 0.02,41.11 0,82.23 0.02,123.34 -126.11,0 -252.24,0.02 -378.34,-0.01 -1.11,9.19 -0.47,18.43 -0.6,27.66 0.07,41.87 -0.13,83.75 0.09,125.64 36.77,0.39 73.57,-0.47 110.32,0.43 -0.44,219.59 0.03,439.2 -0.23,658.8 -28.31,0.67 -56.63,-0.47 -84.91,0.56 0.41,44.32 -0.44,88.68 0.43,132.99l-0.04 0.52c117.74,2.91 235.5,5.01 353.28,5.82 -0.04,104.12 0.07,208.22 -0.08,312.35 -95.68,-45.58 -190.5,-95.35 -273.44,-162.03 -51.08,-40.44 -101.9,-81.73 -146.48,-129.39 -24.05,-25.58 -44.55,-54.45 -60.25,-85.89 -14.41,-26.43 -27.78,-53.74 -34.91,-83.15 -11.59,-44.02 -9.73,-89.89 -11.38,-134.98 -5.74,-229.66 -11.28,-459.35 -16.55,-689.03 96.08,-36.43 195.08,-66.16 296.82,-81.63z"/>
   <path class="fil2" d="M999.75 0l42.88 0c104.4,2.85 208.73,14.93 310.41,39.17 97.97,22.99 193.26,56.83 284.48,99.22 -4.37,187.11 -9.85,374.21 -14.62,561.32 -2.51,89.39 -4.63,178.81 -7.37,268.21 -1.03,36.72 -4.59,73.81 -16.13,108.9 -11.5,35.47 -29.45,68.43 -48.71,100.22 -37.07,58.75 -87.43,107.54 -138.75,153.76 -31.53,27.96 -63.85,55.12 -97.09,81.07 -54.47,40.66 -112.9,75.66 -171.68,109.67 -37.57,21.55 -75.52,42.45 -113.77,62.78 -9.39,5.38 -19.56,9.53 -28.47,15.68l-0.77 0c-0.75,-13.77 -0.22,-27.55 -0.41,-41.32 63.23,-33.71 125.8,-68.69 186.84,-106.24 26.11,-16.21 51.96,-32.83 77.02,-50.61 29.18,-20.44 56.31,-43.59 83.6,-66.44 49.76,-42.52 98.59,-86.71 140.08,-137.55 20.03,-24.53 37.36,-51.18 52.13,-79.19 15.81,-28.28 27.72,-58.9 33.59,-90.8 5.16,-27.13 6,-54.79 6.53,-82.31 7.05,-255.76 14.33,-511.51 21.25,-767.29 -68.09,-30.89 -138.24,-57.49 -210.46,-77.11 -127.12,-34.7 -259.15,-47.57 -390.58,-50.16 0.04,-16.99 0.05,-33.99 0,-50.98zm-67.51 789.4c36.88,-3.45 74.07,-4.86 111.04,-2 32.02,2.68 64.6,8.59 93.21,23.85 23.56,12.46 42.93,33.43 51.36,58.94 11.29,33.8 10.63,72.76 -6.68,104.46 -13.86,25.92 -37.63,45.45 -64.1,57.55 -16.95,7.54 -35.65,9.47 -53.89,11.5 -43.53,3.9 -87.33,3.49 -130.98,1.93 0.08,-85.4 0.02,-170.82 0.04,-256.23zm-0.96 -400.99c44.12,-3.36 88.8,-5.35 132.69,1.31 28.85,4.84 56.33,18.97 76.96,39.73 18.39,18.78 27.69,45.28 26.77,71.39 -1.03,35.3 -13.35,71.54 -39.09,96.51 -20.65,20.55 -48.96,32.33 -77.75,35.26 -39.69,4.26 -79.68,4.46 -119.54,4.5 -0.06,-82.91 0,-165.79 -0.04,-248.7z"/>
   <path class="fil3" d="M999.75 50.98c131.43,2.59 263.46,15.46 390.58,50.16 72.22,19.62 142.37,46.22 210.46,77.11 -6.92,255.78 -14.2,511.53 -21.25,767.29 -0.53,27.52 -1.37,55.18 -6.53,82.31 -5.87,31.9 -17.78,62.52 -33.59,90.8 -14.77,28.01 -32.1,54.66 -52.13,79.19 -41.49,50.84 -90.32,95.03 -140.08,137.55 -27.29,22.85 -54.42,46 -83.6,66.44 -25.06,17.78 -50.91,34.4 -77.02,50.61 -61.04,37.55 -123.61,72.53 -186.84,106.24l0 -1.33c0,-20.47 0.05,-40.95 -0.04,-61.41 92.62,-45.36 185.3,-92.8 266.49,-157.12 53.23,-41.94 106.27,-84.65 152.76,-134.15 21.79,-23.28 41.17,-48.99 55.97,-77.28 14.63,-27.12 29.45,-54.49 37.64,-84.37 13.25,-43.8 11.97,-90 13.43,-135.24 5.84,-231.93 11.45,-463.91 16.73,-695.86 -72.85,-27.72 -147.33,-51.64 -223.58,-68.15 -104.93,-22.88 -212.35,-30.87 -319.38,-35.93 -0.02,-18.78 0,-37.54 -0.02,-56.3l0 -0.56zm-378.3 180.19c20.76,25.94 40.01,53.08 60.36,79.36 112.39,-0.21 224.81,-0.06 337.2,-0.1 43.11,1.32 86.77,5.39 127.8,19.42 28.79,10.3 54.48,28.17 76.28,49.44 23.2,23.6 42.26,53.99 43.67,87.9 0.79,26.58 0.6,53.51 -5.12,79.62 -6.27,29.38 -22.29,56.88 -46.22,75.31 -20.9,15.82 -43.93,28.89 -68.26,38.66 -25.51,10.41 -52.78,15.1 -79.34,21.95 -23.32,5.93 -47.23,9.12 -70.7,14.26 32.49,0.61 64.83,5.21 96.75,11.12 41.3,8.23 82.57,20.05 119.22,41.32 22.46,13.64 43.84,29.53 61.64,48.96 20.31,21.96 34.94,49.57 39.6,79.27 5.27,33.27 0.05,67.43 -10.43,99.19 -9.91,29.43 -27.84,56.1 -51.47,76.26 -29.53,25.59 -66.38,41.46 -104.16,50.31 -34.27,8.4 -69.74,9.1 -104.82,9.87 -69.98,0.93 -139.98,-1.24 -209.91,-3.91 32.73,-21.47 65.8,-42.44 98.66,-63.75 43.65,1.56 87.45,1.97 130.98,-1.93 18.24,-2.03 36.94,-3.96 53.89,-11.5 26.47,-12.1 50.24,-31.63 64.1,-57.55 17.31,-31.7 17.97,-70.66 6.68,-104.46 -8.43,-25.51 -27.8,-46.48 -51.36,-58.94 -28.61,-15.26 -61.19,-21.17 -93.21,-23.85 -36.97,-2.86 -74.16,-1.45 -111.04,2 -0.23,-50.75 -0.71,-101.53 -0.92,-152.29 39.86,-0.04 79.85,-0.24 119.54,-4.5 28.79,-2.93 57.1,-14.71 77.75,-35.26 25.74,-24.97 38.06,-61.21 39.09,-96.51 0.92,-26.11 -8.38,-52.61 -26.77,-71.39 -20.63,-20.76 -48.11,-34.89 -76.96,-39.73 -43.89,-6.66 -88.57,-4.67 -132.69,-1.31 -33.39,-25.66 -66.81,-51.28 -100.29,-76.83 -0.08,265.02 -0.04,530.04 -0.02,795.07 -46.63,0.09 -93.28,0.02 -139.93,0.03 -14.91,23.47 -29.32,47.27 -44.49,70.57 -0.87,-44.31 -0.02,-88.67 -0.43,-132.99 28.28,-1.03 56.6,0.11 84.91,-0.56 0.26,-219.6 -0.21,-439.21 0.23,-658.8 -36.75,-0.9 -73.55,-0.04 -110.32,-0.43 -0.22,-41.89 -0.02,-83.77 -0.09,-125.64 0.13,-9.23 -0.51,-18.47 0.6,-27.66z"/>
   <path class="fil4" d="M999.77 107.84c107.03,5.06 214.45,13.05 319.38,35.93 76.25,16.51 150.73,40.43 223.58,68.15 -5.28,231.95 -10.89,463.93 -16.73,695.86 -1.46,45.24 -0.18,91.44 -13.43,135.24 -8.19,29.88 -23.01,57.25 -37.64,84.37 -14.8,28.29 -34.18,54 -55.97,77.28 -46.49,49.5 -99.53,92.21 -152.76,134.15 -81.19,64.32 -173.87,111.76 -266.49,157.12 0.15,-104.13 0.04,-208.23 0.08,-312.35 47.66,-0.26 95.38,0.94 142.98,-1.8 32.49,-3.06 64.28,-11.74 94.75,-23.26 33.59,-12.89 65.82,-30.16 93.58,-53.22 22.34,-18.57 41.58,-41.19 54.51,-67.3 17.78,-34.42 28.71,-72.63 29.84,-111.43 1.22,-35.85 -6.27,-71.92 -21.44,-104.41 -13.23,-28.08 -31.18,-54.69 -56.33,-73.41 -44.27,-33.51 -99.53,-48.77 -153.94,-55.21 29.63,-4.33 58.13,-15.36 83.9,-30.46 26.5,-15.68 49.58,-37.5 65.22,-64.13 20.05,-33.48 29.37,-72.5 31.29,-111.23 2.23,-40.89 -3.06,-82.8 -19.91,-120.39 -19.65,-44.81 -55.65,-82.47 -100.38,-102.64 -44.63,-20.07 -93.64,-28 -142.09,-31.88 -33.93,-2.65 -68,-1.32 -101.98,-1.64 -0.02,-41.11 0,-82.23 -0.02,-123.34z"/>
  </g>
 </g>
</svg>
