<?xml version="1.0" encoding="UTF-8"?>
<!DOCTYPE svg PUBLIC "-//W3C//DTD SVG 1.1//EN" "http://www.w3.org/Graphics/SVG/1.1/DTD/svg11.dtd">
<!-- Creator: CorelDRAW -->
<svg xmlns="http://www.w3.org/2000/svg" xml:space="preserve" width="2000px" height="1600px" version="1.1" style="shape-rendering:geometricPrecision; text-rendering:geometricPrecision; image-rendering:optimizeQuality; fill-rule:evenodd; clip-rule:evenodd"
viewBox="0 0 2000 1600"
 xmlns:xlink="http://www.w3.org/1999/xlink">
 <defs>
  <style type="text/css">
   <![CDATA[
    .fil2 {fill:#850038;fill-rule:nonzero}
    .fil1 {fill:#FCB813;fill-rule:nonzero}
    .fil0 {fill:#FEFEFE;fill-rule:nonzero}
   ]]>
  </style>
 </defs>
 <g id="Capa_x0020_1">
  <metadata id="CorelCorpID_0Corel-Layer"/>
  <g id="Bethune_x0020_Cookman_x0020_Wildcats.cdr">
   <path class="fil0" d="M592.6 58.09c221.42,-0.09 442.82,0.03 664.23,-0.06 1.92,0.2 4.43,-0.69 5.84,1.16 44.28,43.39 88.59,86.71 133.02,129.93 3.45,3.94 8.26,6.99 10.88,11.5 0.03,30.41 0,60.82 0,91.22 55.27,-0.01 110.45,0.24 165.68,0 46.83,46.8 93.34,93.94 139.79,141.14 -0.06,83.71 0.12,167.4 -0.09,251.1 -87.86,-0.2 -175.72,0.12 -263.58,-0.16 0.15,-42.67 0.01,-85.35 0.07,-128.02 -13.98,-0.24 -27.95,-0.13 -41.93,-0.06 0.18,47.06 0,94.14 0.09,141.2 -0.24,2.22 0.77,4.99 -1.21,6.66 -26.49,26.62 -53.22,53.01 -79.59,79.73 21.16,21.2 41.75,42.95 62.66,64.38 5.9,6.5 12.8,12.25 18.09,19.22 0.05,58.64 0.05,117.28 0,175.9 13.97,-0.18 28,0.47 41.95,-0.29 -0.19,-42.66 0.02,-85.33 -0.1,-127.98 87.81,-0.1 175.64,0.12 263.46,-0.1 0.39,87.6 0.12,175.25 0.13,262.87 -41.59,43.14 -82.94,86.51 -124.67,129.5 -60.26,-0.07 -120.52,-0.06 -180.77,-0.01 0.14,28.87 -0.13,57.75 0.14,86.65 -40.5,41.65 -81.81,82.57 -122.46,124.09 -8.2,7.96 -15.85,16.64 -24.37,24.18 -222.41,0.14 -444.83,0.05 -667.25,0.05 0,-78.36 0.12,-156.72 -0.06,-235.06 -52.94,0.16 -105.9,-0.02 -158.85,0.09 -48.75,-47.15 -96.97,-94.86 -145.65,-142.08 -0.09,-241.48 0.05,-482.95 -0.07,-724.44 41.04,-42.07 82.68,-83.54 123.92,-125.38 7.85,-7.67 15.15,-15.9 23.31,-23.2 52.51,0.07 104.97,0.17 157.4,0.08 0.03,-77.93 0.06,-155.87 -0.01,-233.81zm28.31 27.9l0 0c-0.09,319.02 -0.02,638.04 -0.03,957.06 69.2,-0.12 138.38,0.15 207.58,-0.13 -0.12,-46.24 -0.01,-92.48 -0.06,-138.72 114.13,-0.12 228.27,-0.01 342.39,-0.05 0.03,134.02 0.05,268.06 -0.01,402.08 -57.45,0 -114.99,-0.15 -172.35,0.33 -12.95,-0.78 -25.81,0.36 -38.78,0.22 -112.91,0.05 -225.84,0.09 -338.76,0.03 -0.01,69.05 -0.07,138.12 0.03,207.18 209.02,-0.15 418.06,0.05 627.09,-0.08 2.33,-1.44 3.9,-3.83 5.92,-5.62 41.67,-41.8 82.97,-83.95 124.58,-125.81 0.09,-168.22 0.03,-336.44 0.02,-504.66 -30.32,-31.18 -60.48,-62.51 -90.87,-93.63 -1.94,-1.47 0.59,-3.07 1.57,-4.12 29.82,-29.67 59.48,-59.52 89.31,-89.19 0.04,-45.04 -0.04,-90.1 0.04,-135.16 -69.27,-0.04 -138.53,-0.03 -207.8,0 0.04,46.51 0.04,93.03 0,139.54 -114.13,-0.12 -228.25,0 -342.38,-0.06 0.02,-133.78 0,-267.55 0.02,-401.34 20.26,-1.06 40.61,-0.36 60.91,-0.6 163.03,-0.35 326.07,-0.59 489.12,-0.88 0.24,-26.87 0.03,-53.77 0.11,-80.64 -42.98,-41.88 -85.65,-84.16 -128.96,-125.64 -209.56,-0.15 -419.12,0.06 -628.69,-0.11zm-178.89 238.33l0 0c-41.96,42.28 -83.59,84.92 -125.71,127.04 -0.14,233.96 -0.14,467.93 -0.02,701.9 42.85,41.58 85.38,83.5 128.23,125.08 6.75,0.83 13.76,0.07 20.6,0.34 225.96,-0.04 451.92,0.08 677.88,-0.06 -0.07,-69.15 -0.01,-138.31 -0.03,-207.45 -206.37,0.04 -412.75,-0.03 -619.12,0.03 -0.03,-181.2 -0.12,-362.41 0.04,-543.61 22.95,0.08 45.91,0.06 68.87,0 -0.09,-69.14 -0.01,-138.29 -0.04,-207.45 -48.05,-0.01 -96.08,0.03 -144.13,-0.03 -3.1,-0.72 -4.57,2.57 -6.57,4.21zm414.17 -4.13l0 0c-0.03,69.09 0.06,138.2 -0.04,207.3 36.44,0.33 72.9,0.04 109.36,0.15 170.23,0 340.47,0 510.71,0 0.06,42.74 0.09,85.5 -0.02,128.24 69.17,0.4 138.37,0.01 207.57,0.19 -0.01,-70.72 0.17,-141.46 -0.1,-212.2 -32.78,-32.55 -65,-65.67 -97.51,-98.5 -8.58,-8.3 -16.53,-17.46 -25.51,-25.21 -234.82,0 -469.64,-0.06 -704.46,0.03zm-304.24 235.64l0 0c0.15,162.38 0.06,324.76 0.06,487.13 13.55,-0.04 27.11,0.08 40.66,-0.06 -0.09,-162.37 -0.01,-324.75 -0.03,-487.12 -13.56,0.03 -27.13,-0.06 -40.69,0.05zm304.3 0.06l0 0c-0.01,36.87 0.06,73.74 -0.04,110.61 7.87,1.85 16.13,0.4 24.18,0.85 87.31,0.09 174.63,-0.16 261.94,0.14 0.13,-0.48 0.37,-1.42 0.49,-1.9 0.23,-36.54 -0.13,-73.1 0.18,-109.64 -5.85,-0.38 -11.73,-0.08 -17.58,-0.17 -89.73,0.08 -179.46,-0.15 -269.17,0.11zm-0.01 376.46l0 0c0,36.78 0.07,73.56 -0.05,110.34 6.05,0.57 12.15,0.14 18.23,0.27 89.49,0 178.99,-0.01 268.49,0.02 0.06,-36.84 -0.21,-73.7 0.14,-110.52 -8.34,-0.5 -16.71,-0.08 -25.04,-0.21 -87.26,0.07 -174.53,-0.15 -261.77,0.1zm620.01 10.32l0 0c0.01,42.85 0.03,85.68 0,128.52 -23.28,0.01 -46.56,-0.08 -69.83,0.04 0.18,69.14 0.06,138.28 0.06,207.42 56.36,0.09 112.75,-0.06 169.11,0.09 35.07,-36.21 69.86,-72.68 104.88,-108.94 1.23,-1.58 3.68,-2.79 3.33,-5.12 -0.03,-74.03 0.05,-148.05 -0.03,-222.08 -69.17,0.1 -138.35,-0.08 -207.52,0.07z"/>
   <path class="fil1" d="M534.69 0c250.12,0.15 500.26,-0.11 750.37,0.12 59.76,58.5 119.74,116.75 179.35,175.39 -0.15,19.09 0.02,38.16 -0.07,57.25 0.3,0.37 0.9,1.09 1.19,1.46 43.9,0.03 87.79,-0.12 131.67,0.08 54.91,55.66 110.04,111.09 164.89,166.81 2.49,2.96 6.08,5.2 7.85,8.65 0.09,110.45 -0.12,220.91 0.09,331.38 -106.74,0.36 -213.51,-0.02 -320.26,0.18 -14.18,14.19 -28.26,28.46 -42.59,42.49 23.31,24.17 46.6,48.37 70.02,72.44 97.57,0.12 195.14,0.06 292.71,0.03 0.11,114.84 -0.03,229.68 0.08,344.52 -52.54,54.56 -105.03,109.18 -157.53,163.8 -45.31,0.03 -90.62,-0.02 -135.93,0.01 -4.09,0.05 -8.22,-0.37 -12.24,0.54 0.42,17.63 -0.12,35.26 -0.03,52.92 -59.99,60.67 -120.05,121.29 -180.08,181.93 -249.82,-0.1 -499.65,-0.06 -749.47,-0.01 -0.03,-78.38 -0.09,-156.75 0.03,-235.11 -41.65,-0.63 -83.37,-0.1 -125.03,-0.27 -59.94,-58.53 -119.92,-117 -179.74,-175.67 0.21,-257.53 -0.02,-515.07 0.12,-772.62 60,-60.71 120.1,-121.34 180.11,-182.05 41.46,-0.11 82.92,-0.09 124.37,0 0.26,-78.09 0.02,-156.18 0.12,-234.27zm321.55 932.35c87.24,-0.25 174.51,-0.03 261.77,-0.1 8.33,0.13 16.7,-0.29 25.04,0.21 -0.35,36.82 -0.08,73.68 -0.14,110.52 -89.5,-0.03 -179,-0.02 -268.49,-0.02 -6.08,-0.13 -12.18,0.3 -18.23,-0.27 0.12,-36.78 0.05,-73.56 0.05,-110.34zm0.01 -376.46c89.71,-0.26 179.44,-0.03 269.17,-0.11 5.85,0.09 11.73,-0.21 17.58,0.17 -0.31,36.54 0.05,73.1 -0.18,109.64 -0.12,0.48 -0.36,1.42 -0.49,1.9 -87.31,-0.3 -174.63,-0.05 -261.94,-0.14 -8.05,-0.45 -16.31,1 -24.18,-0.85 0.1,-36.87 0.03,-73.74 0.04,-110.61zm-304.3 -0.06c13.56,-0.11 27.13,-0.02 40.69,-0.05 0.02,162.37 -0.06,324.75 0.03,487.12 -13.55,0.14 -27.11,0.02 -40.66,0.06 0,-162.37 0.09,-324.75 -0.06,-487.13zm40.65 -497.74l0 0c0.07,77.94 0.04,155.88 0.01,233.81 -52.43,0.09 -104.89,-0.01 -157.4,-0.08 -8.16,7.3 -15.46,15.53 -23.31,23.2 -41.24,41.84 -82.88,83.31 -123.92,125.38 0.12,241.49 -0.02,482.96 0.07,724.44 48.68,47.22 96.9,94.93 145.65,142.08 52.95,-0.11 105.91,0.07 158.85,-0.09 0.18,78.34 0.06,156.7 0.06,235.06 222.42,0 444.84,0.09 667.25,-0.05 8.52,-7.54 16.17,-16.22 24.37,-24.18 40.65,-41.52 81.96,-82.44 122.46,-124.09 -0.27,-28.9 0,-57.78 -0.14,-86.65 60.25,-0.05 120.51,-0.06 180.77,0.01 41.73,-42.99 83.08,-86.36 124.67,-129.5 -0.01,-87.62 0.26,-175.27 -0.13,-262.87 -87.82,0.22 -175.65,0 -263.46,0.1 0.12,42.65 -0.09,85.32 0.1,127.98 -13.95,0.76 -27.98,0.11 -41.95,0.29 0.05,-58.62 0.05,-117.26 0,-175.9 -5.29,-6.97 -12.19,-12.72 -18.09,-19.22 -20.91,-21.43 -41.5,-43.18 -62.66,-64.38 26.37,-26.72 53.1,-53.11 79.59,-79.73 1.98,-1.67 0.97,-4.44 1.21,-6.66 -0.09,-47.06 0.09,-94.14 -0.09,-141.2 13.98,-0.07 27.95,-0.18 41.93,0.06 -0.06,42.67 0.08,85.35 -0.07,128.02 87.86,0.28 175.72,-0.04 263.58,0.16 0.21,-83.7 0.03,-167.39 0.09,-251.1 -46.45,-47.2 -92.96,-94.34 -139.79,-141.14 -55.23,0.24 -110.41,-0.01 -165.68,0 0,-30.4 0.03,-60.81 0,-91.22 -2.62,-4.51 -7.43,-7.56 -10.88,-11.5 -44.43,-43.22 -88.74,-86.54 -133.02,-129.93 -1.41,-1.85 -3.92,-0.96 -5.84,-1.16 -221.41,0.09 -442.81,-0.03 -664.23,0.06z"/>
   <path class="fil2" d="M620.91 85.99c209.57,0.17 419.13,-0.04 628.69,0.11 43.31,41.48 85.98,83.76 128.96,125.64 -0.08,26.87 0.13,53.77 -0.11,80.64 -163.05,0.29 -326.09,0.53 -489.12,0.88 -20.3,0.24 -40.65,-0.46 -60.91,0.6 -0.02,133.79 0,267.56 -0.02,401.34 114.13,0.06 228.25,-0.06 342.38,0.06 0.04,-46.51 0.04,-93.03 0,-139.54 69.27,-0.03 138.53,-0.04 207.8,0 -0.08,45.06 0,90.12 -0.04,135.16 -29.83,29.67 -59.49,59.52 -89.31,89.19 -0.98,1.05 -3.51,2.65 -1.57,4.12 30.39,31.12 60.55,62.45 90.87,93.63 0.01,168.22 0.07,336.44 -0.02,504.66 -41.61,41.86 -82.91,84.01 -124.58,125.81 -2.02,1.79 -3.59,4.18 -5.92,5.62 -209.03,0.13 -418.07,-0.07 -627.09,0.08 -0.1,-69.06 -0.04,-138.13 -0.03,-207.18 112.92,0.06 225.85,0.02 338.76,-0.03 12.97,0.14 25.83,-1 38.78,-0.22 57.36,-0.48 114.9,-0.33 172.35,-0.33 0.06,-134.02 0.04,-268.06 0.01,-402.08 -114.12,0.04 -228.26,-0.07 -342.39,0.05 0.05,46.24 -0.06,92.48 0.06,138.72 -69.2,0.28 -138.38,0.01 -207.58,0.13 0.01,-319.02 -0.06,-638.04 0.03,-957.06zm855.34 856.68c69.17,-0.15 138.35,0.03 207.52,-0.07 0.08,74.03 0,148.05 0.03,222.08 0.35,2.33 -2.1,3.54 -3.33,5.12 -35.02,36.26 -69.81,72.73 -104.88,108.94 -56.36,-0.15 -112.75,0 -169.11,-0.09 0,-69.14 0.12,-138.28 -0.06,-207.42 23.27,-0.12 46.55,-0.03 69.83,-0.04 0.03,-42.84 0.01,-85.67 0,-128.52zm-620.06 -622.48c234.82,-0.09 469.64,-0.03 704.46,-0.03 8.98,7.75 16.93,16.91 25.51,25.21 32.51,32.83 64.73,65.95 97.51,98.5 0.27,70.74 0.09,141.48 0.1,212.2 -69.2,-0.18 -138.4,0.21 -207.57,-0.19 0.11,-42.74 0.08,-85.5 0.02,-128.24 -170.24,0 -340.48,0 -510.71,0 -36.46,-0.11 -72.92,0.18 -109.36,-0.15 0.1,-69.1 0.01,-138.21 0.04,-207.3zm-414.17 4.13c2,-1.64 3.47,-4.93 6.57,-4.21 48.05,0.06 96.08,0.02 144.13,0.03 0.03,69.16 -0.05,138.31 0.04,207.45 -22.96,0.06 -45.92,0.08 -68.87,0 -0.16,181.2 -0.07,362.41 -0.04,543.61 206.37,-0.06 412.75,0.01 619.12,-0.03 0.02,69.14 -0.04,138.3 0.03,207.45 -225.96,0.14 -451.92,0.02 -677.88,0.06 -6.84,-0.27 -13.85,0.49 -20.6,-0.34 -42.85,-41.58 -85.38,-83.5 -128.23,-125.08 -0.12,-233.97 -0.12,-467.94 0.02,-701.9 42.12,-42.12 83.75,-84.76 125.71,-127.04z"/>
  </g>
 </g>
</svg>
