<?xml version="1.0" encoding="UTF-8"?>
<!DOCTYPE svg PUBLIC "-//W3C//DTD SVG 1.1//EN" "http://www.w3.org/Graphics/SVG/1.1/DTD/svg11.dtd">
<!-- Creator: CorelDRAW -->
<svg xmlns="http://www.w3.org/2000/svg" xml:space="preserve" width="2000px" height="1600px" version="1.1" style="shape-rendering:geometricPrecision; text-rendering:geometricPrecision; image-rendering:optimizeQuality; fill-rule:evenodd; clip-rule:evenodd"
viewBox="0 0 2000 1600"
 xmlns:xlink="http://www.w3.org/1999/xlink">
 <defs>
  <style type="text/css">
   <![CDATA[
    .fil2 {fill:black;fill-rule:nonzero}
    .fil4 {fill:#00974D;fill-rule:nonzero}
    .fil3 {fill:#026346;fill-rule:nonzero}
    .fil1 {fill:#B0B0B1;fill-rule:nonzero}
    .fil5 {fill:#C51F3E;fill-rule:nonzero}
    .fil0 {fill:#FEFEFE;fill-rule:nonzero}
   ]]>
  </style>
 </defs>
 <g id="Capa_x0020_1">
  <metadata id="CorelCorpID_0Corel-Layer"/>
  <g id="Binghamton_x0020_Bearcats.cdr">
   <path class="fil0" d="M1582.62 895.82c3.33,-1.01 6.83,-1.45 10.36,-1.45 26.45,0.03 52.9,0.01 79.34,0.01 7.17,-0.18 14.75,3.15 18.07,9.78 3.48,6.52 2.17,14.33 -0.63,20.85 -16.57,40.02 -33.17,80.06 -49.74,120.09 -5.64,14.22 -18.16,25.2 -32.54,30.08 -6.45,2.15 -13.34,2.08 -20.02,2 -23.35,-0.07 -46.72,0.04 -70.07,-0.03 -6.69,0.02 -14,-2.21 -17.9,-8 -4.59,-6.42 -3.74,-15.08 -0.83,-22 14.4,-34.68 28.74,-69.38 43.13,-104.05 4.58,-10.02 7.33,-21.17 14.58,-29.73 6.78,-8.23 16.01,-14.49 26.25,-17.55zm-97.43 377.92c0.08,-0.61 0.24,-1.8 0.34,-2.41 12.02,8.58 24.69,17.42 39.42,20.44 5.92,1.77 11.02,-2.25 16.45,-3.68 9.61,-1.03 16.72,7.51 20.68,15.25 -10.72,4.29 -22.56,7.16 -34.05,4.34 -18.47,-4.33 -32.82,-18.49 -42.84,-33.94zm34.24 -32.97c-2.69,-3.03 -6.26,-5.63 -7.31,-9.72 17.44,8.49 35.08,19.19 55.14,19.26 6.7,0.23 12.76,-2.87 17.95,-6.72 8.33,4.57 15.12,12.08 17.48,21.44 -10.5,5.73 -22.74,8.58 -34.62,6.11 -19.23,-3.94 -35.18,-16.68 -48.64,-30.37zm22.93 -61.06c0.15,-0.57 0.44,-1.75 0.57,-2.32 18.3,12.11 41.45,17.75 62.98,12.06 10.06,0 20.67,7.07 22.93,17.31 -11.55,3.61 -23.65,6.69 -35.82,4.88 -20.66,-2.21 -38.99,-15.1 -50.66,-31.93zm9.52 -69.87c16.48,9.19 33.54,18.58 52.49,21.3 8.58,1.27 18.3,0.26 24.51,-6.48 7.7,4.27 14.55,10.85 17.11,19.49 -3.83,3.77 -9.43,4.27 -14.39,5.45 -13.35,2.43 -27.71,3.04 -40.38,-2.53 -12.64,-5.3 -23.08,-14.84 -31.2,-25.72 -1.82,-2.08 -3.19,-5.27 -6.41,-5.14 -0.57,-2.14 -1.2,-4.27 -1.73,-6.37zm164.77 -215.34c31.09,-0.23 62.17,-0.1 93.26,-0.08 7.07,30.57 14.11,61.18 21.25,91.73 13.26,-30.37 25.47,-61.19 38.29,-91.77 17.07,0.04 34.12,-0.07 51.2,0.06 -25.33,60.87 -50.52,121.79 -75.71,182.69 -14.77,0.07 -29.54,0.02 -44.31,0.04 -8.27,-34.2 -15.44,-68.68 -24.24,-102.73 -13.85,34.29 -28.38,68.31 -42.26,102.58 -17.09,0.29 -34.2,0.13 -51.29,0.09 17.58,-42.15 34.88,-84.42 52.52,-126.54 18.44,-7.92 37.24,-15.06 55.43,-23.53 -23.51,0.09 -47.05,-0.04 -70.57,0.07 -1.29,-10.87 -2.35,-21.75 -3.57,-32.61zm-331.6 32.61c-1.13,-10.96 -2.97,-21.88 -3.13,-32.89 50.44,0.4 100.88,0.04 151.32,0.18 -4.42,10.92 -8.95,21.81 -13.5,32.67 -15.56,0.02 -31.12,-0.05 -46.68,0.04 -20.55,50.07 -41.4,100.04 -62.1,150.07 -17.02,-0.05 -34.05,0.02 -51.07,-0.03 17.4,-42.19 34.97,-84.33 52.36,-126.52 18.58,-7.88 37.38,-15.29 55.78,-23.56 -27.66,0.02 -55.32,-0.05 -82.98,0.04zm-244.53 -32.74c31.95,0 63.92,0.09 95.87,-0.04 2.91,27.29 4.46,54.73 6.94,82.08 23.82,-26.06 47.55,-52.17 71.24,-78.34 1.64,-1.62 3.07,-4.29 5.87,-3.69 16.21,-0.03 32.42,0.06 48.64,-0.01 -21.86,60.9 -44.2,121.64 -65.88,182.59 -17.12,0.48 -34.27,0.08 -51.39,0.21 11.17,-30.74 22.26,-61.53 33.4,-92.31 -25.3,26.87 -49.69,54.66 -74.64,81.86 -2.96,2.9 -5.1,6.97 -9.1,8.6 -2.1,-30.22 -4.71,-60.4 -6.92,-90.62 -14.77,30.68 -28.84,61.69 -43.35,92.48 -17.02,-0.05 -34.04,0.04 -51.03,-0.05 19.54,-42.17 39.28,-84.26 58.93,-126.37 18.25,-8.2 37.22,-14.88 55.15,-23.7 -23.4,0 -46.79,0.07 -70.18,-0.04 -1.2,-10.89 -2.36,-21.77 -3.55,-32.65zm-353.89 0.22c31.03,-0.48 62.06,-0.04 93.09,-0.22 -8.78,21.87 -18.28,43.48 -26.85,65.47 12.71,-0.19 25.44,0.03 38.14,-0.13 8.75,-21.79 18.14,-43.3 26.76,-65.14 17.11,-0.41 34.24,-0.07 51.36,-0.19 -25.21,60.94 -50.55,121.81 -75.65,182.79 -17.07,0 -34.12,0 -51.18,0 11.66,-28.24 23.43,-56.43 35.05,-84.7 -12.89,0.16 -25.78,-0.46 -38.66,0.33 -10.97,28.27 -23.24,56.04 -34.45,84.22 -17.09,0.31 -34.2,0.07 -51.29,0.15 17.42,-42.18 34.91,-84.31 52.37,-126.49 18.4,-8.08 37.3,-15.06 55.47,-23.61 -23.52,0.02 -47.03,-0.03 -70.55,0.04 -1.2,-10.85 -2.21,-21.71 -3.61,-32.52zm-166.15 33.61c7.24,-20.13 28.1,-35.45 49.83,-33.83 34.88,0.13 69.76,-0.13 104.64,0.11 -5.87,14.23 -11.8,28.43 -17.67,42.67 -4.89,-3.45 -9.86,-6.71 -14.76,-10.08 -23.48,0 -46.96,-0.01 -70.44,0 -14.49,34.98 -28.99,69.97 -43.44,104.96 -2.47,4.47 -1.24,11.73 4.75,12.28 9.35,0.5 18.73,-0.07 28.1,0.26 5.58,-12.95 11.14,-25.95 16.13,-39.12 -0.14,-6.52 -1.45,-12.94 -1.97,-19.43 20.46,-0.01 40.93,-0.03 61.39,0 -12.56,30.33 -25.2,60.67 -37.65,91.05 -35.45,0.24 -70.88,-0.01 -106.33,0.13 -6.95,0.09 -14.86,-0.77 -19.67,-6.42 -5.82,-6.23 -5.49,-15.82 -2.29,-23.23 16.4,-39.81 32.97,-79.56 49.38,-119.35zm-215.93 -33.8c5.8,-0.02 11.58,-0.02 17.38,0 21.55,14.59 49.67,16.93 74.53,11.26 -4.32,-3.26 -8.39,-6.91 -11.62,-11.29 4.28,0 8.57,0.01 12.86,0.03 7.18,30.65 14.12,61.37 21.44,91.97 12.92,-30.6 25.37,-61.41 38.28,-92.04 17,0.13 34,0 51,0.09 -25.29,60.98 -50.35,122.05 -75.92,182.91 -14.69,-0.39 -29.41,-0.02 -44.1,-0.22 -7.9,-34.29 -15.84,-68.58 -23.85,-102.84 -14.44,34.22 -28.44,68.62 -42.76,102.88 -17.04,0.02 -34.06,0.03 -51.09,0 17.37,-42.1 34.99,-84.11 52.19,-126.26 18.69,-8.24 37.7,-15.69 56.41,-23.85 -23.74,0.07 -47.48,0 -71.21,0.03 -1.28,-10.88 -2.47,-21.76 -3.54,-32.67zm-100.68 0c31.03,-0.02 62.06,-0.02 93.09,0 -25.1,60.83 -50.64,121.5 -75.39,182.47 -17.13,0.68 -34.28,0.11 -51.42,0.3 17.42,-42.27 34.91,-84.5 52.5,-126.69 18.47,-7.72 37.17,-15.03 55.34,-23.41 -23.53,-0.03 -47.05,0.04 -70.59,-0.01 -1.19,-10.89 -2.28,-21.79 -3.53,-32.66zm705.62 -106.48c3.24,3.52 4.08,8.27 5.63,12.63 1.93,5.82 5.71,10.78 9.04,15.86 -5.01,-2.26 -10.03,-5.3 -12.65,-10.33 -3.31,-5.45 -2.45,-12.12 -2.02,-18.16zm84.25 -0.52c0.22,-0.84 0.68,-2.54 0.9,-3.36 2.25,7.29 3.26,15.5 0.08,22.68 -2.77,5.99 -8.6,9.82 -14.66,11.92 0.11,-0.59 0.33,-1.75 0.44,-2.34 7.66,-7.66 13.29,-17.83 13.24,-28.9zm-692.73 1.98c4.18,-9.49 14.59,-14.98 24.77,-14.17 -5.21,38.46 0.68,81.27 27.55,111 0.5,-0.44 1.46,-1.31 1.94,-1.75 0.27,0.81 0.83,2.39 1.08,3.2 0.56,0.78 1.66,2.3 2.21,3.08 -23.13,-8.36 -40.4,-28.1 -51.8,-49.3 -7.98,-15.71 -13.65,-35.23 -5.75,-52.06zm81.44 -10.59c-0.74,-13.1 8.62,-24.94 20.42,-29.64 1.7,-0.46 5.1,-1.36 6.8,-1.8 -4.53,39.12 6.21,78.91 26.13,112.52 1.07,2.03 1.92,4.15 2.52,6.37 -12.7,-8.21 -22.76,-19.87 -31.98,-31.71 -12.03,-16.31 -22.86,-35.04 -23.89,-55.74zm515.52 -38.57c4.7,0.55 9.43,0.92 14.15,1.38 -2.62,9.58 -0.79,19.34 0.55,28.94 -7.81,-8.38 -12.36,-19.21 -14.7,-30.32zm107.28 -3.66c3.9,0.44 7.84,0.79 11.79,1.05 0.2,11.47 -5.58,22.54 -14.53,29.56 -0.26,-2.33 -0.48,-4.64 -0.69,-6.95 0.69,0.98 2.07,2.95 2.77,3.94 2.15,-8.98 3.66,-18.63 0.66,-27.6zm-500.06 -16.04c12.66,0.07 21.66,10.77 26.41,21.41 9.78,22.53 10.2,48.22 4.88,71.94 -2.69,10.75 -6,21.64 -12.08,31.01 0.83,-12.21 2.67,-24.34 2.29,-36.59 0.29,-30.46 -6.87,-60.98 -21.5,-87.77zm85.86 -11.77c10.74,-1.03 19.61,6.57 25.01,15.05 7.68,12.61 10.28,27.71 9.52,42.32 -0.98,22.39 -7.72,44.54 -19.59,63.57 -0.26,-0.72 -0.76,-2.16 -1.02,-2.87 8.09,-26.95 10.44,-56.25 2.49,-83.5 -3.39,-12.4 -9.63,-23.74 -16.41,-34.57zm524.16 -54.97c30.02,-4.28 59.97,-12.38 86.39,-27.57 -29.32,23.44 -65.89,36.44 -102.72,41.97 6.11,-3.98 11.62,-8.8 16.33,-14.4zm-407.03 -33.59c28.56,13.44 58.01,25.15 88.58,33.16 2.96,5.47 7.18,10.17 11.99,14.09 -35.84,-9.7 -71.31,-23.94 -100.57,-47.25zm416.85 11.63c33.96,-4.95 65.23,-20.69 93.63,-39.37 -25.42,27.86 -61.77,43.21 -97.79,52.12 1.54,-4.2 2.98,-8.44 4.16,-12.75zm-427.76 -44.41c30.19,17.07 60.94,34.07 94.57,43.37 -0.13,3.36 0,6.74 0.5,10.07 -34.51,-11.95 -66.92,-30.15 -95.07,-53.44zm428.66 24.4c37.83,-8.53 71.66,-29.82 99.85,-55.97 -22.81,34.12 -60.62,55.98 -99.76,66.15 -0.02,-3.41 -0.03,-6.8 -0.09,-10.18zm-441.55 -61.53c34.94,22.76 70.5,45.82 110.5,58.73 -0.99,3.11 -1.68,6.3 -2.17,9.52 -40.61,-14.37 -77.06,-38.86 -108.33,-68.25zm162.66 -20.19c0.64,-1.62 -0.69,-5.98 2.35,-5.08 1.92,1.03 3.69,2.34 5.47,3.61 -0.57,5.01 0.83,10.64 5.58,13.19 6.28,4.16 15.38,1.06 18.22,-5.82 2.65,0.25 5.3,0.57 7.97,0.92 -3.06,8.8 -11.95,15.39 -21.42,14.38 -10.37,-0.92 -19.13,-10.7 -18.17,-21.2zm221.52 -13.74c7.08,9.51 2.79,24.26 -7.84,29.07 -9.14,5.08 -21.55,0.9 -26.24,-8.27 2.24,-0.78 4.53,-1.55 6.81,-2.32 4.05,4.49 10.94,6.85 16.48,3.57 5.99,-2.84 7.99,-10.57 5.58,-16.46 1.72,-1.86 3.45,-3.73 5.21,-5.59zm-1056.33 378.05c50.4,-0.05 100.83,0.02 151.25,-0.03 5.95,-0.13 12.3,1.47 16.41,6.06 5.82,6 5.71,15.48 2.72,22.83 -3.42,8.23 -6.61,16.59 -10.31,24.7 -14.55,10.73 -30.37,19.68 -44.92,30.42 5.31,5.25 10.19,10.92 15.33,16.34 4.91,4.73 4.93,12.48 2.63,18.49 -3.98,10.14 -8.38,20.13 -12.43,30.24 -7.29,19.63 -27.39,34.66 -48.69,33.75 -35.25,-0.09 -70.5,0.02 -105.75,-0.05 17.46,-42.23 34.85,-84.5 52.52,-126.61 18.48,-7.87 37.24,-15.11 55.49,-23.48 -23.59,0.01 -47.18,0.01 -70.75,0.01 -1.13,-10.9 -2.31,-21.78 -3.5,-32.67zm79.56 32.62l0 0c-16.32,39.11 -32.42,78.32 -48.7,117.46 8.73,-0.06 17.48,0.09 26.21,-0.02 7.9,0.04 15.01,-5.86 17.51,-13.17 3.71,-8.97 9.58,-19.45 4.2,-28.99 -6.5,-7.91 -13.99,-15.01 -20.55,-22.89 26.13,-17.53 52.74,-34.38 78.53,-52.41 -19.06,0.11 -38.14,0.09 -57.2,0.02zm804.88 -32.69c26.24,0.17 52.5,-0.06 78.74,0.11 10.45,0.13 20.67,6.91 24.07,16.92 2.53,6.58 0.98,13.69 0.12,20.45 -6.36,48.41 -12.79,96.83 -19.05,145.26 -14.77,0.21 -29.52,0.04 -44.27,0.1 2.03,-14.11 3.59,-28.27 5.69,-42.36 -14.38,0.22 -28.8,-0.44 -43.17,0.35 -5.47,14.1 -11.45,28.03 -17.27,42.01 -17.02,-0.02 -34.05,0.01 -51.09,-0.02 17.53,-41.94 34.66,-84.05 52.31,-125.93 18.26,-8.93 37.66,-15.82 56.31,-24.11 -18.67,-0.15 -37.35,0.06 -56.02,-0.09 4.57,-10.89 9.01,-21.82 13.63,-32.69zm16.09 108.31l0 0c11.02,-0.04 22.05,-0.21 33.06,0.11 3.94,-25.16 6.76,-50.5 10.22,-75.73 -4.11,0.04 -8.18,0.05 -12.25,0.05 -10.31,25.2 -21.19,50.19 -31.03,75.57zm586.41 -75.27l0 0c-15.69,39.19 -32.26,78.03 -48.27,117.09 12.73,0.05 25.47,0 38.2,0.04 16.28,-39.12 32.43,-78.31 48.69,-117.43 -12.87,0.19 -25.76,-0.38 -38.62,0.3z"/>
   <path class="fil1" d="M1278.9 224.49l20.84 0c1.44,7.21 5.21,13.61 7.48,20.54 11.84,32.93 19.58,67.94 17.75,103.09 94.52,32.58 171.94,107.33 213.93,197.37 -11.57,-3.55 -22.58,-8.68 -34.17,-12.21 3.83,8.49 8.31,16.67 12.29,25.1 1.6,3.11 2.93,6.56 5.61,8.99 47.24,36.98 85.69,86.74 104.52,144.09 13.97,41.87 15.23,87.38 5.76,130.38 122.36,0.08 244.73,0.1 367.09,-0.01l0 0.92c-8.05,14.89 -13.35,31.08 -20.18,46.57 -32.51,78.51 -65.09,157 -97.52,235.54 -1.12,1.62 -1.43,5.12 -4.1,4.77 -40.48,0.06 -80.96,0 -121.44,0.02 -2.91,6.8 -8.36,13.17 -7.39,21 1.2,25.78 -5.96,51.98 -20.38,73.42 -3.02,4.83 -8.21,8.77 -8.53,14.86 -3.9,33.02 -23.88,63.91 -53.07,80.08 -4.96,2.89 -11.18,4.57 -13.96,10.09 -16.69,25.71 -45.07,43.96 -75.84,46.41l-22.34 0c-7.66,-1.73 -15.4,-3.24 -22.91,-5.49 -7.79,-2.39 -16.02,-1.2 -24.02,-1.4 -391.1,-0.09 -782.2,0.15 -1173.31,-0.13 19.39,-48.27 39.94,-96.08 59.39,-144.34 -42.45,-0.24 -84.92,-0.02 -127.38,-0.11 12.72,-31.53 26.3,-62.73 38.73,-94.37 -101.92,-0.05 -203.83,0 -305.75,-0.02l0 -1.82c21.93,-51.09 42.56,-102.73 64.16,-153.96 1.38,-3.41 3.11,-6.94 2.49,-10.72 -4.27,-40.42 -8.84,-80.83 -12.97,-121.25 93.08,-0.04 186.15,0 279.23,-0.02 -10.94,-21.84 -13.83,-46.91 -9.71,-70.88 -30.68,-5.01 -56.4,-27.52 -68.76,-55.57 15.47,-0.49 31.42,-2.89 44.75,-11.27 19.54,-11.82 31.2,-32.26 42.93,-51.12 15.27,-25.41 32.67,-50.46 57.01,-68.03 3.1,-2.5 7.17,-4.42 8.59,-8.42 13.86,-35.61 35.52,-68.71 65.04,-93.26 3.06,-9.83 4.27,-20.2 7.18,-30.11 -3.53,2.47 -7.03,4.99 -10.57,7.48 -4.01,-21.18 3.19,-42.67 12.99,-61.27 23.44,-42.65 63.35,-74.9 107.99,-93.33 49.58,-20.59 106.34,-21.94 157.37,-5.79 3.64,1.11 7.2,2.75 11.05,3.04 5.98,-0.4 11.71,-2.39 17.49,-3.83 3.22,-20.22 7.28,-40.44 14.14,-59.78 13.95,-2.48 28.27,-1.67 42.14,0.89 40,7.49 76.98,26.06 111.18,47.55 3.74,1.95 7.2,5.95 11.81,5.03 62.43,-10.76 126.44,-12.05 189.35,-4.65 36.85,-33.95 83.44,-59.63 134.02,-64.07zm202.11 1044.09c1.51,0.67 3.06,1.37 4.63,2.07l-0.11 0.68c-0.1,0.61 -0.26,1.8 -0.34,2.41 10.02,15.45 24.37,29.61 42.84,33.94 11.49,2.82 23.33,-0.05 34.05,-4.34 1.42,4.45 1.7,9.81 -2.26,13.11 -8.77,7.66 -22.01,8.38 -32.77,5.1 -15.35,-4.81 -27.69,-16.39 -36.48,-29.54 -4.69,-7.09 -8.3,-14.99 -9.56,-23.43zm26.56 -40.86c0.79,2.12 7.81,0.57 4.55,3.33 1.05,4.09 4.62,6.69 7.31,9.72 13.46,13.69 29.41,26.43 48.64,30.37 11.88,2.47 24.12,-0.38 34.62,-6.11 0.79,7.42 -2.45,15.58 -9.76,18.45 -15.54,7.33 -33.22,0.3 -46.41,-8.75 -16.68,-11.89 -31.4,-27.73 -38.95,-47.01zm30.79 -52.93c1.55,0.65 3.13,1.27 4.75,1.86l-0.18 0.74c-0.13,0.57 -0.42,1.75 -0.57,2.32 11.67,16.83 30,29.72 50.66,31.93 12.17,1.81 24.27,-1.27 35.82,-4.88 0.55,5.95 -2.01,12.05 -6.92,15.52 -10.13,7.24 -23.67,8.29 -35.4,4.85 -24.12,-6.74 -42.32,-28.42 -48.16,-52.34zm-565.98 -14.77c1.52,-3.9 3.13,-7.77 4.89,-11.56 5.09,0.25 10.37,-0.59 15.33,0.9 3.75,3.09 -0.63,8.69 -4.11,10.02 -5.23,1.36 -10.77,0.42 -16.11,0.64zm581.23 -43.81c3.22,-0.13 4.59,3.06 6.41,5.14 8.12,10.88 18.56,20.42 31.2,25.72 12.67,5.57 27.03,4.96 40.38,2.53 4.96,-1.18 10.56,-1.68 14.39,-5.45l0.58 -0.48c-0.05,6.07 0.5,13.11 -4.41,17.64 -8.88,8.69 -22.77,8.99 -34.3,7 -25.78,-5.77 -45.85,-27.74 -54.25,-52.1zm-544.12 -328.29c0.66,-0.94 0.55,-4.88 2.5,-3.2 5.34,9.06 12.12,18.21 22.49,21.78 2.59,-2.98 5.8,-5.3 9.43,-6.92 3.57,3.13 6.83,6.59 9.66,10.42 3.74,-3.39 7.54,-6.78 11.22,-10.26 3.98,1.72 7.4,4.39 10.53,7.37 7.11,-5.62 12.91,-12.58 18.42,-19.71 0.05,11.07 -5.58,21.24 -13.24,28.9 -0.11,0.59 -0.33,1.75 -0.44,2.34l-0.08 0.48c-18.32,3.83 -37.57,3.15 -55.49,-2.23l-0.33 -0.48c-3.33,-5.08 -7.11,-10.04 -9.04,-15.86 -1.55,-4.36 -2.39,-9.11 -5.63,-12.63zm-583.71 -12.71c15.27,3.3 26.1,16.76 31.48,30.72 4.01,9.82 0.25,20.35 -3.14,29.76 -5.74,15.67 -5.06,33.34 1.15,48.77 -0.48,0.44 -1.44,1.31 -1.94,1.75 -26.87,-29.73 -32.76,-72.54 -27.55,-111zm77.09 -26.06c8.6,-3.77 19.56,-3.88 27.07,2.36 9.77,8.14 13.91,21 15.86,33.15 -5.97,9.12 -8.34,20.04 -9.19,30.77 -1.07,17.33 0.48,34.79 4.4,51.72 -0.59,0.02 -1.78,0.07 -2.37,0.09l-0.32 -1c-0.6,-2.22 -1.45,-4.34 -2.52,-6.37 -19.92,-33.61 -30.66,-73.4 -26.13,-112.52 -1.7,0.44 -5.1,1.34 -6.8,1.8zm82.71 -20.11c4.92,-5.58 12.32,-8.23 19.61,-8.52 14.63,26.79 21.79,57.31 21.5,87.77 0.38,12.25 -1.46,24.38 -2.29,36.59 -0.09,0.76 -0.29,2.29 -0.4,3.06 -2.86,-3.96 -4.02,-8.75 -5.99,-13.11 -8.03,-18.35 -19.22,-35.31 -33.06,-49.78 -5.93,-6.02 -7.69,-14.75 -8.74,-22.84 -1.09,-11.62 1.53,-24.22 9.37,-33.17zm475.18 -14.42c11.01,13.08 27.95,19.53 44.49,21.94 3,8.97 1.49,18.62 -0.66,27.6 -0.7,-0.99 -2.08,-2.96 -2.77,-3.94 -2.32,-6.74 -4.95,-13.39 -8.97,-19.33 -3.94,1.98 -7.9,3.97 -11.84,5.94 -4.45,-3.11 -8.67,-6.53 -12.61,-10.25 -2.67,3.96 -5.95,7.64 -10.55,9.28 -2.88,-2.64 -5.86,-5.12 -8.9,-7.52 -3.28,4.68 -7.72,8.31 -12.19,11.79 -4.99,-1.55 -9.61,-3.96 -14.13,-6.54 -5.12,9.25 -6.85,19.87 -6.05,30.35 -0.96,-0.68 -2.86,-2.04 -3.82,-2.7l-0.09 -0.7c-1.34,-9.6 -3.17,-19.36 -0.55,-28.94 12.24,-0.25 25.28,-1.73 35.52,-9.08 6.36,-4.18 10.52,-10.88 13.12,-17.9zm-397.96 31.13c1.55,-16.15 10.98,-33.87 28.25,-37 6.78,10.83 13.02,22.17 16.41,34.57 7.95,27.25 5.6,56.55 -2.49,83.5 0.26,0.71 0.76,2.15 1.02,2.87l0.14 0.4c-1.82,2.62 -3.7,5.18 -5.71,7.65 0.61,-25.2 -13.15,-48.44 -30.36,-65.86 -7.57,-6.21 -7.96,-17.13 -7.26,-26.13zm396.54 -64.18c14.8,-7.87 29.28,-16.36 44.14,-24.11 4.77,-0.46 4.49,5.56 2.97,8.51 -3.74,5.27 -10.8,5.4 -16.06,8.29 -10.68,5.72 -20.45,13.02 -29.93,20.51 -13.19,-11.32 -28.56,-19.63 -44.22,-27.03 1.51,-1.64 2.99,-5.03 5.84,-3.01 13.13,3.82 25.34,10.23 37.26,16.84zm167.84 -423.04l0 0c-27.81,12.21 -53.04,29.96 -74.71,51.16 -4.72,0.59 -9.47,-1.2 -14.2,-1.46 -63.3,-7.53 -127.75,-4.71 -190.33,7.22 -31.9,-22.96 -67.2,-42.02 -105.55,-51.53 -12.02,-2.74 -24.3,-5.08 -36.7,-4.32 -4.75,18.87 -8.64,37.93 -11.93,57.1 -12.31,2.79 -24.61,5.46 -36.91,8.24 -36.67,-14.52 -77.4,-18.47 -116.17,-11.22 -40.29,7.52 -78.86,25.71 -109.3,53.3 -11.75,11.1 -22.93,23.88 -27.59,39.7 8.81,-6.99 19.6,-10.73 30.54,-12.85 -23.34,28.43 -37.87,63.87 -41.88,100.39 -30.06,21.75 -50.7,54.05 -64.94,87.8 -2.24,4.39 -2.41,10.43 -7.22,12.97 -25.28,16.17 -43.4,40.85 -59.48,65.67 -11.22,16.82 -21.6,34.46 -35.91,48.92 -9.76,9.68 -21.99,16.96 -35.51,19.81 13.46,18.49 37.92,23.83 59.58,22.21 -5.47,17.72 -8.57,36.58 -5.75,55.07 2.91,21.82 14.77,42.13 32.25,55.5 -99.78,0.04 -199.56,-0.38 -299.32,0.22 3.79,32.25 6.98,64.59 10.57,96.87 1.36,0 4.09,0 5.47,-0.02 -20.75,50 -41.45,100 -62.15,150.02 47.71,0.22 95.43,0.04 143.15,0.09 9.22,-0.11 18.58,0.58 27.69,-1.23 8.9,-1.42 17.11,-5.21 25.11,-9.15 -1.44,3.44 -2.86,6.89 -4.28,10.37 433.15,0.09 866.28,-0.06 1299.41,0.07 4.81,18.4 15.73,35.03 31.22,46.19 -17.55,-4.04 -34.2,-12.8 -45.78,-26.8 -0.89,19.6 0.79,39.65 7.99,58.07 5.05,14.12 14.51,25.98 25.49,35.98 -19.71,-5.91 -36.67,-18.52 -50.28,-33.72 -3.59,11.09 -3.88,22.84 -3.57,34.39 -356.43,0.01 -712.87,0.03 -1069.3,0 -17.2,41.58 -34.57,83.09 -51.6,124.75 388.38,0.14 776.75,-0.08 1165.13,0.11 16.65,5.14 34.33,8.91 51.83,5.95 25.45,-5.07 48.74,-22.05 59.56,-45.92 12.78,-4.42 24.65,-11.62 34.01,-21.45 15.23,-15.01 23.33,-36.1 25.07,-57.18 -0.32,-5.56 5.13,-8.47 7.93,-12.58 17.35,-21.64 22.32,-50.59 19.69,-77.63 5.8,-9.35 10.51,-19.41 12.93,-30.2 4.71,-0.03 9.46,-0.03 14.21,0.02 4.35,-9.43 7.35,-19.54 12.49,-28.56 2.45,9.45 4.31,19.06 6.74,28.52 30.66,-0.09 61.36,0.22 92.03,-0.16 33.57,-82.54 68.36,-164.61 101.99,-247.13 -40.39,0.13 -80.78,0 -121.16,0.06 -2.56,6.07 -5.05,12.17 -7.55,18.28 -1.9,-6 -3.1,-12.21 -4.61,-18.3 -76.61,0.02 -153.22,0.03 -229.85,0 14.47,-43.19 17.83,-90.57 5.8,-134.74 -16.17,-60.16 -56.83,-111.65 -106.76,-147.84 -14.03,-31.53 -31.16,-61.75 -51.55,-89.63 12.58,5.06 25.03,10.44 37.7,15.28 -38.19,-64.1 -101.58,-110.53 -170.66,-136.79 -5.16,-2.31 -11.03,-3.08 -15.88,-5.9 1.92,-39.7 -3.15,-80.2 -18.1,-117.23 -20.39,-0.39 -40.46,5.32 -59.1,13.24zm-874.93 890l0 0c3.61,0 7.22,0 10.83,0.02 -3.72,8.78 -7.3,17.64 -11.04,26.42 -1.8,4.24 -3.35,9.29 -1.21,13.72 5.34,6.95 15.06,6.97 23.02,7.68 15.45,-0.29 31.25,1.48 46.33,-2.78 7.78,-2.15 15.33,-6.92 18.73,-14.47 4.9,-11.18 9.34,-22.54 14.15,-33.76 0.99,-2.08 1.25,-4.38 1.47,-6.63 -10.87,-2.69 -22.25,-0.57 -33.33,-1.31 -5.55,12.91 -10.74,25.97 -16.21,38.94 -2.5,7.66 -14.82,10.84 -19.93,4.16 4.66,-11.83 9.69,-23.5 14.55,-35.23 1.05,-2.06 1.27,-4.35 1.46,-6.6 -14.48,-2.7 -29.47,-0.49 -44.16,-1.25 -1.61,3.67 -3.15,7.37 -4.66,11.09zm128.3 0l0 0c3.78,0 7.55,0 11.35,0.02 -5.42,13.09 -10.83,26.18 -16.28,39.26 -1.18,2.47 -2.99,6.89 1.34,7.39 8.45,0.75 16.98,0.05 25.47,0.33 3.98,-9.23 7.72,-18.59 11.62,-27.85 7.06,8.99 12.78,18.95 19.93,27.86 9.34,-0.11 18.69,-0.03 28.03,-0.03 7.11,-16.91 14.03,-33.89 21.1,-50.79 1.09,-2.23 2.4,-6.28 -1.25,-6.82 -8.53,-1.03 -17.18,-0.15 -25.75,-0.44 -3.42,7.99 -6.79,16.02 -9.96,24.14 -6.37,-7.62 -10.7,-16.98 -17.68,-23.97 -14.27,-0.52 -28.56,0.2 -42.83,-0.35 -2.07,3.57 -3.6,7.42 -5.09,11.25zm134.42 -11.05l0 0c-1.56,3.66 -3.09,7.35 -4.58,11.03 3.77,0 7.55,0.02 11.34,0.06 -5.78,13.81 -11.47,27.64 -17.2,41.47 -1.47,2.39 0.13,5.41 3.04,5.27 9.94,0.47 19.91,0.03 29.87,0.18 6.91,-16.56 13.7,-33.17 20.64,-49.72 0.72,-2.31 2.82,-5.05 0.78,-7.26 -2.75,-1.36 -5.9,-0.98 -8.82,-1.09 -11.7,0.1 -23.39,0.02 -35.07,0.06zm70.87 11.01l0 0c3.63,0.02 7.27,0.02 10.92,0 2.67,14.92 3.44,30.15 6.33,45.01 0.59,0.46 1.77,1.38 2.36,1.84 9.82,0.43 19.69,0 29.52,0.17 15.4,-15.42 30.19,-31.4 45.49,-46.91 3.08,-3.52 7.02,-6.46 8.75,-10.94 -9.61,-0.4 -19.23,-0.09 -28.82,-0.22 -9.71,10.79 -19.34,21.66 -29.12,32.38 -0.81,-9.98 -0.61,-20.13 -2.23,-30 -0.42,-0.54 -1.25,-1.59 -1.67,-2.12 -12.36,-0.52 -24.74,-0.17 -37.09,-0.15 -1.51,3.63 -3.01,7.28 -4.44,10.94zm132.37 -10.97l0 0c-1.52,3.68 -3.03,7.36 -4.53,11.08 3.7,-0.05 7.41,-0.11 11.13,-0.14 -5.36,14.45 -11.95,28.45 -17.37,42.89 -1.05,2.61 2.47,4.25 4.62,4.05 21.53,0.22 43.08,0.05 64.61,0.07 6.18,0.2 7.09,-7.24 9.28,-11.49 -13.48,0 -26.96,0 -40.42,0 1.95,-4.75 3.92,-9.5 5.87,-14.24 9.59,-0.25 19.23,0.37 28.8,-0.29 4.81,-1.66 5.55,-7.24 7.5,-11.25 -10.5,-0.02 -20.98,0 -31.46,0 1.31,-3.23 2.6,-6.45 3.91,-9.65 10.33,-0.17 20.68,0.25 31.01,-0.17 4.66,-1.53 5.3,-7.09 7.13,-10.92 -26.69,0.04 -53.39,-0.04 -80.08,0.06zm115.77 0.03l0 0c-1.51,3.65 -3.02,7.29 -4.51,10.98 4.12,0 8.27,0 12.41,0 -5.56,13.79 -11.42,27.48 -17.04,41.27 -2.13,2.56 0.45,5.4 3.15,5.52 9.87,0.46 19.76,0.02 29.65,0.17 3.69,-8.58 6.89,-17.37 10.98,-25.78 7.13,6.65 9.8,16.65 15.86,24.18 0.68,0.37 2.06,1.08 2.74,1.43 11.95,0.45 23.92,0.04 35.87,0.15 -6.16,-8.67 -14.27,-15.98 -19.61,-25.21 12.62,-0.44 23.85,-10.31 24.66,-23.11 -0.24,-7.61 -9.17,-9.41 -15.19,-9.62 -26.32,-0.09 -52.66,-0.13 -78.97,0.02zm135.51 20.57l0 0c-0.63,3.63 0.66,7.57 4.27,9.1 8.84,3.68 18.78,3.92 27.55,7.83 3.39,3.46 -1.62,8.52 -5.36,8.78 -13.06,0.39 -26.13,0.04 -39.19,0.13 -1.46,3.26 -2.95,6.59 -3,10.26 2.81,0.85 5.73,1.45 8.73,1.32 15.98,-0.18 31.97,0.13 47.95,-0.14 11.6,-0.63 21.38,-9.61 24.24,-20.67 1.6,-3.96 0.42,-9.5 -3.81,-11.21 -8.75,-3.78 -18.55,-4.25 -27.31,-7.88 -3.78,-2.45 0.38,-6.15 3.33,-6.43 10.24,-0.63 20.51,0.07 30.77,-0.31 1.51,-3.83 3.08,-7.65 4.7,-11.42 -16.72,0.02 -33.45,-0.09 -50.17,0.04 -11.32,0.18 -20.75,9.81 -22.7,20.6zm109.44 -20.46l0 0c-1.38,3.67 -2.82,7.31 -4.29,10.94 3.7,-0.05 7.4,-0.11 11.13,-0.14 -5.66,14.89 -12.18,29.44 -18.09,44.25 0.88,0.61 2.62,1.86 3.5,2.49 10.22,0.57 20.53,0.44 30.79,0.01 7.11,-18.67 15.64,-36.79 22.49,-55.56 -3.69,-2.85 -8.4,-2.13 -12.71,-2.21 -10.94,0.19 -21.9,-0.24 -32.82,0.22zm75.51 -0.11l0 0c-1.47,3.65 -2.97,7.29 -4.4,10.98 7.86,0.02 15.72,-0.02 23.61,0.04 -5.53,13.37 -11.07,26.75 -16.63,40.12 -0.89,1.9 -2.16,5.58 0.94,6.21 10.33,1.42 20.94,0.19 31.4,0.61 6.68,-15.64 12.91,-31.46 19.67,-47.05 6.59,-0.04 13.24,0.42 19.83,-0.15 4.38,-1.77 5.04,-7.06 6.94,-10.81 -27.12,-0.02 -54.23,-0.11 -81.36,0.05zm105.58 10.68l0 0c4.49,0.37 9.02,0.37 13.57,0.3 4.2,8.03 8.53,16 12.54,24.14 -2.11,5.08 -4.29,10.15 -6.41,15.23 -1.36,2.47 -2.61,7.02 1.68,7.33 10.18,0.59 20.42,0.2 30.65,0.15 3.09,-7.51 5.59,-15.38 9.55,-22.47 11.83,-10.37 23.98,-20.38 35.97,-30.59 1.49,-1.3 2.62,-2.89 3.35,-4.77 -10.05,-0.18 -20.11,-0.02 -30.16,-0.09 -6.98,6.87 -13.87,13.85 -20.8,20.76 -2.87,-6.16 -5.28,-12.53 -8.45,-18.49 -1.55,-2.64 -4.86,-2.2 -7.4,-2.29 -9.85,0.09 -19.69,-0.09 -29.54,0.15 -1.42,3.57 -2.97,7.11 -4.55,10.64z"/>
   <path class="fil2" d="M933.98 1137.55c26.31,-0.15 52.65,-0.11 78.97,-0.02 6.02,0.21 14.95,2.01 15.19,9.62 -0.81,12.8 -12.04,22.67 -24.66,23.11 5.34,9.23 13.45,16.54 19.61,25.21 -11.95,-0.11 -23.92,0.3 -35.87,-0.15 -0.68,-0.35 -2.06,-1.06 -2.74,-1.43 -6.06,-7.53 -8.73,-17.53 -15.86,-24.18 -4.09,8.41 -7.29,17.2 -10.98,25.78 -9.89,-0.15 -19.78,0.29 -29.65,-0.17 -2.7,-0.12 -5.28,-2.96 -3.15,-5.52 5.62,-13.79 11.48,-27.48 17.04,-41.27 -4.14,0 -8.29,0 -12.41,0 1.49,-3.69 3,-7.33 4.51,-10.98zm-441.24 172.07c2.53,-6.65 5.29,-13.19 8.09,-19.71 4.95,-0.02 9.94,-0.39 14.88,0.33 2.52,0.42 3.96,3.02 2.71,5.32 -1.72,4.15 -2.77,9.06 -6.21,12.16 -5.95,3.22 -13.02,1.62 -19.47,1.9zm654.3 -16.67c6.85,-9.34 13.26,-19.08 20.95,-27.74 0.1,9.17 -0.66,18.33 -0.81,27.52 -6.7,0.72 -13.44,0.35 -20.14,0.22zm-393.02 -0.08c6.61,-9.59 13.49,-19.04 20.88,-28.06 -0.17,9.39 -0.59,18.8 -1.14,28.19 -6.6,0.15 -13.17,0.22 -19.74,-0.13zm-241.9 -30.49c5.8,0.2 12.1,-1.35 17.59,1.12 1.78,3.63 -0.91,7.98 -3.69,10.3 -5.89,3.16 -12.91,1.41 -19.28,1.73 1.79,-4.39 3.59,-8.77 5.38,-13.15zm396.5 -0.57c6.09,-0.17 12.23,0.03 18.23,1.27 1.92,6.43 -2.8,13.64 -9.41,14.53 -5.12,0.62 -10.28,0.24 -15.4,0.24 2.2,-5.36 4.41,-10.7 6.58,-16.04zm880.22 -115.38c1.59,0.11 3.21,0.24 4.84,0.37 2.09,6.37 3.84,12.87 6.28,19.15 1.92,-6.43 3.63,-12.93 6.1,-19.17 1.18,-0.06 3.54,-0.15 4.71,-0.2 0,8.47 0,16.92 0,25.39l-3.2 0.09c-0.09,-6.26 0,-12.5 0.02,-18.74 -2.71,5.93 -3.96,12.35 -6.28,18.41l-2.38 0.63c-3.35,-6.19 -4.66,-13.32 -6.37,-20.09 -0.88,6.46 -0.74,12.98 -0.63,19.5 -0.75,0.17 -2.26,0.5 -3.03,0.66 -0.41,-8.65 -0.32,-17.35 -0.06,-26zm-20.24 0.16c5.77,0.13 11.55,0.1 17.33,0.08 -0.02,0.7 -0.07,2.1 -0.09,2.8 -2.62,-0.02 -5.19,-0.02 -7.75,-0.02 -0.02,7.57 0.05,15.16 -0.08,22.74 -0.79,-0.09 -2.37,-0.25 -3.16,-0.33 0.01,-7.46 0,-14.9 0.01,-22.32 -2.76,-0.05 -5.47,-0.18 -8.12,-0.75 0.48,-0.56 1.4,-1.64 1.86,-2.2zm-408.58 1.64c1.58,-3.53 3.13,-7.07 4.55,-10.64 9.85,-0.24 19.69,-0.06 29.54,-0.15 2.54,0.09 5.85,-0.35 7.4,2.29 3.17,5.96 5.58,12.33 8.45,18.49 6.93,-6.91 13.82,-13.89 20.8,-20.76 10.05,0.07 20.11,-0.09 30.16,0.09 -0.73,1.88 -1.86,3.47 -3.35,4.77 -11.99,10.21 -24.14,20.22 -35.97,30.59 -3.96,7.09 -6.46,14.96 -9.55,22.47 -10.23,0.05 -20.47,0.44 -30.65,-0.15 -4.29,-0.31 -3.04,-4.86 -1.68,-7.33 2.12,-5.08 4.3,-10.15 6.41,-15.23 -4.01,-8.14 -8.34,-16.11 -12.54,-24.14 -4.55,0.07 -9.08,0.07 -13.57,-0.3zm-105.58 -10.68c27.13,-0.16 54.24,-0.07 81.36,-0.05 -1.9,3.75 -2.56,9.04 -6.94,10.81 -6.59,0.57 -13.24,0.11 -19.83,0.15 -6.76,15.59 -12.99,31.41 -19.67,47.05 -10.46,-0.42 -21.07,0.81 -31.4,-0.61 -3.1,-0.63 -1.83,-4.31 -0.94,-6.21 5.56,-13.37 11.1,-26.75 16.63,-40.12 -7.89,-0.06 -15.75,-0.02 -23.61,-0.04 1.43,-3.69 2.93,-7.33 4.4,-10.98zm-75.51 0.11c10.92,-0.46 21.88,-0.03 32.82,-0.22 4.31,0.08 9.02,-0.64 12.71,2.21 -6.85,18.77 -15.38,36.89 -22.49,55.56 -10.26,0.43 -20.57,0.56 -30.79,-0.01 -0.88,-0.63 -2.62,-1.88 -3.5,-2.49 5.91,-14.81 12.43,-29.36 18.09,-44.25 -3.73,0.03 -7.43,0.09 -11.13,0.14 1.47,-3.63 2.91,-7.27 4.29,-10.94zm-109.44 20.46c1.95,-10.79 11.38,-20.42 22.7,-20.6 16.72,-0.13 33.45,-0.02 50.17,-0.04 -1.62,3.77 -3.19,7.59 -4.7,11.42 -10.26,0.38 -20.53,-0.32 -30.77,0.31 -2.95,0.28 -7.11,3.98 -3.33,6.43 8.76,3.63 18.56,4.1 27.31,7.88 4.23,1.71 5.41,7.25 3.81,11.21 -2.86,11.06 -12.64,20.04 -24.24,20.67 -15.98,0.27 -31.97,-0.04 -47.95,0.14 -3,0.13 -5.92,-0.47 -8.73,-1.32 0.05,-3.67 1.54,-7 3,-10.26 13.06,-0.09 26.13,0.26 39.19,-0.13 3.74,-0.26 8.75,-5.32 5.36,-8.78 -8.77,-3.91 -18.71,-4.15 -27.55,-7.83 -3.61,-1.53 -4.9,-5.47 -4.27,-9.1zm-251.28 -20.6c26.69,-0.1 53.39,-0.02 80.08,-0.06 -1.83,3.83 -2.47,9.39 -7.13,10.92 -10.33,0.42 -20.68,0 -31.01,0.17 -1.31,3.2 -2.6,6.42 -3.91,9.65 10.48,0 20.96,-0.02 31.46,0 -1.95,4.01 -2.69,9.59 -7.5,11.25 -9.57,0.66 -19.21,0.04 -28.8,0.29 -1.95,4.74 -3.92,9.49 -5.87,14.24 13.46,0 26.94,0 40.42,0 -2.19,4.25 -3.1,11.69 -9.28,11.49 -21.53,-0.02 -43.08,0.15 -64.61,-0.07 -2.15,0.2 -5.67,-1.44 -4.62,-4.05 5.42,-14.44 12.01,-28.44 17.37,-42.89 -3.72,0.03 -7.43,0.09 -11.13,0.14 1.5,-3.72 3.01,-7.4 4.53,-11.08zm-132.37 10.97c1.43,-3.66 2.93,-7.31 4.44,-10.94 12.35,-0.02 24.73,-0.37 37.09,0.15 0.42,0.53 1.25,1.58 1.67,2.12 1.62,9.87 1.42,20.02 2.23,30 9.78,-10.72 19.41,-21.59 29.12,-32.38 9.59,0.13 19.21,-0.18 28.82,0.22 -1.73,4.48 -5.67,7.42 -8.75,10.94 -15.3,15.51 -30.09,31.49 -45.49,46.91 -9.83,-0.17 -19.7,0.26 -29.52,-0.17 -0.59,-0.46 -1.77,-1.38 -2.36,-1.84 -2.89,-14.86 -3.66,-30.09 -6.33,-45.01 -3.65,0.02 -7.29,0.02 -10.92,0zm-70.87 -11.01c11.68,-0.04 23.37,0.04 35.07,-0.06 2.92,0.11 6.07,-0.27 8.82,1.09 2.04,2.21 -0.06,4.95 -0.78,7.26 -6.94,16.55 -13.73,33.16 -20.64,49.72 -9.96,-0.15 -19.93,0.29 -29.87,-0.18 -2.91,0.14 -4.51,-2.88 -3.04,-5.27 5.73,-13.83 11.42,-27.66 17.2,-41.47 -3.79,-0.04 -7.57,-0.06 -11.34,-0.06 1.49,-3.68 3.02,-7.37 4.58,-11.03zm-134.42 11.05c1.49,-3.83 3.02,-7.68 5.09,-11.25 14.27,0.55 28.56,-0.17 42.83,0.35 6.98,6.99 11.31,16.35 17.68,23.97 3.17,-8.12 6.54,-16.15 9.96,-24.14 8.57,0.29 17.22,-0.59 25.75,0.44 3.65,0.54 2.34,4.59 1.25,6.82 -7.07,16.9 -13.99,33.88 -21.1,50.79 -9.34,0 -18.69,-0.08 -28.03,0.03 -7.15,-8.91 -12.87,-18.87 -19.93,-27.86 -3.9,9.26 -7.64,18.62 -11.62,27.85 -8.49,-0.28 -17.02,0.42 -25.47,-0.33 -4.33,-0.5 -2.52,-4.92 -1.34,-7.39 5.45,-13.08 10.86,-26.17 16.28,-39.26 -3.8,-0.02 -7.57,-0.02 -11.35,-0.02zm-128.3 0c1.51,-3.72 3.05,-7.42 4.66,-11.09 14.69,0.76 29.68,-1.45 44.16,1.25 -0.19,2.25 -0.41,4.54 -1.46,6.6 -4.86,11.73 -9.89,23.4 -14.55,35.23 5.11,6.68 17.43,3.5 19.93,-4.16 5.47,-12.97 10.66,-26.03 16.21,-38.94 11.08,0.74 22.46,-1.38 33.33,1.31 -0.22,2.25 -0.48,4.55 -1.47,6.63 -4.81,11.22 -9.25,22.58 -14.15,33.76 -3.4,7.55 -10.95,12.32 -18.73,14.47 -15.08,4.26 -30.88,2.49 -46.33,2.78 -7.96,-0.71 -17.68,-0.73 -23.02,-7.68 -2.14,-4.43 -0.59,-9.48 1.21,-13.72 3.74,-8.78 7.32,-17.64 11.04,-26.42 -3.61,-0.02 -7.22,-0.02 -10.83,-0.02zm-196.54 -113.04c5.91,-13.46 11.07,-27.26 17.13,-40.64 5.21,6 15.39,12.02 11.08,21.34 -3.13,6.7 -4.18,15.95 -11.6,19.37 -5.41,1.09 -11.2,1.15 -16.61,-0.07zm869.43 -41.25c6.21,-15.1 11.8,-30.56 19.1,-45.16 -0.8,15.16 -3.72,30.11 -5.42,45.18 -4.57,0.05 -9.13,0.05 -13.68,-0.02zm579.54 -58.46c6.83,-0.77 13.7,-0.36 20.57,-0.4 -13.79,33.66 -27.74,67.26 -41.75,100.83 -6.65,-0.02 -13.3,0.02 -19.94,0 13.26,-33.65 27.9,-66.76 41.12,-100.43zm-1407.42 -0.36c8.06,-0.08 16.13,-0.22 24.18,0.12 -10.72,7.26 -21.33,14.77 -32.62,21.11 2.3,-7.27 5.62,-14.16 8.44,-21.23zm856.57 -486.43c3.19,-22.41 12.95,-46.76 34.5,-57.2 -8.9,14.51 -15.05,30.96 -15.16,48.16 -0.7,17.77 4.73,34.95 11.73,51.05 -12.58,4.21 -23.48,12.81 -29.58,24.69 -4.03,-21.93 -4.51,-44.6 -1.49,-66.7zm173.35 -190.46c18.64,-7.92 38.71,-13.63 59.1,-13.24 14.95,37.03 20.02,77.53 18.1,117.23 4.85,2.82 10.72,3.59 15.88,5.9 69.08,26.26 132.47,72.69 170.66,136.79 -12.67,-4.84 -25.12,-10.22 -37.7,-15.28 20.39,27.88 37.52,58.1 51.55,89.63 49.93,36.19 90.59,87.68 106.76,147.84 12.03,44.17 8.67,91.55 -5.8,134.74 76.63,0.03 153.24,0.02 229.85,0 1.51,6.09 2.71,12.3 4.61,18.3 2.5,-6.11 4.99,-12.21 7.55,-18.28 40.38,-0.06 80.77,0.07 121.16,-0.06 -33.63,82.52 -68.42,164.59 -101.99,247.13 -30.67,0.38 -61.37,0.07 -92.03,0.16 -2.43,-9.46 -4.29,-19.07 -6.74,-28.52 -5.14,9.02 -8.14,19.13 -12.49,28.56 -4.75,-0.05 -9.5,-0.05 -14.21,-0.02 -2.42,10.79 -7.13,20.85 -12.93,30.2 2.63,27.04 -2.34,55.99 -19.69,77.63 -2.8,4.11 -8.25,7.02 -7.93,12.58 -1.74,21.08 -9.84,42.17 -25.07,57.18 -9.36,9.83 -21.23,17.03 -34.01,21.45 -10.82,23.87 -34.11,40.85 -59.56,45.92 -17.5,2.96 -35.18,-0.81 -51.83,-5.95 -388.38,-0.19 -776.75,0.03 -1165.13,-0.11 17.03,-41.66 34.4,-83.17 51.6,-124.75 356.43,0.03 712.87,0.01 1069.3,0 -0.31,-11.55 -0.02,-23.3 3.57,-34.39 13.61,15.2 30.57,27.81 50.28,33.72 -10.98,-10 -20.44,-21.86 -25.49,-35.98 -7.2,-18.42 -8.88,-38.47 -7.99,-58.07 11.58,14 28.23,22.76 45.78,26.8 -15.49,-11.16 -26.41,-27.79 -31.22,-46.19 -433.13,-0.13 -866.26,0.02 -1299.41,-0.07 1.42,-3.48 2.84,-6.93 4.28,-10.37 -8,3.94 -16.21,7.73 -25.11,9.15 -9.11,1.81 -18.47,1.12 -27.69,1.23 -47.72,-0.05 -95.44,0.13 -143.15,-0.09 20.7,-50.02 41.4,-100.02 62.15,-150.02 -1.38,0.02 -4.11,0.02 -5.47,0.02 -3.59,-32.28 -6.78,-64.62 -10.57,-96.87 99.76,-0.6 199.54,-0.18 299.32,-0.22 -17.48,-13.37 -29.34,-33.68 -32.25,-55.5 -2.82,-18.49 0.28,-37.35 5.75,-55.07 -21.66,1.62 -46.12,-3.72 -59.58,-22.21 13.52,-2.85 25.75,-10.13 35.51,-19.81 14.31,-14.46 24.69,-32.1 35.91,-48.92 16.08,-24.82 34.2,-49.5 59.48,-65.67 4.81,-2.54 4.98,-8.58 7.22,-12.97 14.24,-33.75 34.88,-66.05 64.94,-87.8 4.01,-36.52 18.54,-71.96 41.88,-100.39 -10.94,2.12 -21.73,5.86 -30.54,12.85 4.66,-15.82 15.84,-28.6 27.59,-39.7 30.44,-27.59 69.01,-45.78 109.3,-53.3 38.77,-7.25 79.5,-3.3 116.17,11.22 12.3,-2.78 24.6,-5.45 36.91,-8.24 3.29,-19.17 7.18,-38.23 11.93,-57.1 12.4,-0.76 24.68,1.58 36.7,4.32 38.35,9.51 73.65,28.57 105.55,51.53 62.58,-11.93 127.03,-14.75 190.33,-7.22 4.73,0.26 9.48,2.05 14.2,1.46 21.67,-21.2 46.9,-38.95 74.71,-51.16zm-67.22 85.47l0 0c-4.49,6.26 -10.14,11.99 -12.76,19.35 7.44,1.86 14.53,4.79 21.4,8.16 4.94,3.13 10.77,5.67 13.89,10.89 -23.19,-6.65 -48.11,-5.88 -71.44,-0.5 -2.19,-0.15 -4.35,0.68 -6.46,0.99 4.25,-11.82 10.57,-22.72 17,-33.48 4.73,-7.18 9.55,-14.31 14.64,-21.27 -29.36,-7.55 -62.27,-9.94 -89.99,4.42 -25.95,-11.03 -55.39,-8.27 -81.89,-0.79 3.31,5.43 8.01,9.81 11.88,14.86 7.91,9.93 15.32,20.26 21.82,31.18 -2.67,-0.26 -5.34,-0.87 -8.01,-0.68 -16.8,-3.39 -34.46,-2.67 -51.14,1.03 -0.41,-0.52 -1.24,-1.58 -1.64,-2.12 5.61,-3.77 11.25,-7.59 16.68,-11.67 -28.23,-45.81 -78.08,-76.56 -130.77,-85.14 -6.39,27.31 -10.57,55.21 -11.05,83.28 -0.19,13.96 3.96,28.98 15.56,37.73 1.58,19.63 5.32,42.63 22.76,54.68 3.76,-9.34 8.18,-18.44 11.57,-27.9l-0.28 -1.68c-9.52,-11.62 -16.68,-25.06 -21.18,-39.41 -9.24,-29.12 -7.62,-60.61 -0.24,-89.94 2.38,1.65 4.7,3.37 7.04,5.08l0.42 -0.02c22.89,19.63 44.31,41.68 58.97,68.27 -5.16,-1.73 -8.6,-6.35 -13.3,-8.91 -9.09,-5.45 -19.18,-10.06 -29.87,-10.91 8.4,8.79 16.32,18.24 21.97,29.03 -7.66,-2.32 -15.5,-4.27 -23.57,-4.13 9.49,6.65 18.84,13.7 25.62,23.28 8.23,-5.17 16.81,-9.82 25.95,-13.18 0.62,1.65 1.21,3.31 1.8,4.99 -22.84,17.05 -38.97,42.91 -43.9,71.03 12.45,-18.12 24.75,-37.39 43.27,-49.95 -7.27,15.64 -12.96,32.27 -14.16,49.6 -1.58,17.57 2.82,35.72 13.23,50.07 5.34,-6.83 11.84,-12.54 18.84,-17.64 20.49,22.17 51.6,30.2 80.82,31.31 4.57,11.76 11.31,23.16 22.14,29.98 -3.63,16.65 -5.25,35.73 5.53,50.2 -8.07,-0.85 -16.25,-4.18 -21.16,-10.88 -5.03,-6.39 -6.38,-14.66 -7.02,-22.53 -5.73,-6.2 -11.57,-12.34 -17.17,-18.65 -7.09,6.28 -15.63,11.53 -25.41,11.45 -12.56,1.35 -25.4,-5.02 -31.58,-16.08 -2.75,-3.72 -2.89,-9.07 -6.56,-12.08 -1.27,6.03 -2.49,12.58 0.13,18.46 2.17,5.82 7.4,9.52 11.49,13.94 -9.56,-0.33 -19.35,-2.41 -28.71,0.55 -8.01,2.12 -14.86,7.15 -20.06,13.52 -4.54,-10.5 0.41,-22.43 9.47,-28.66 -9.96,-8.71 -19.32,-18.41 -25.27,-30.42 -3.18,3.81 -4.21,8.8 -5.63,13.44 -4.02,14.18 -4.42,29.04 -3.67,43.69 -5.23,-2.77 -8.1,-8.27 -11.45,-12.91 -14.48,-23.47 -17.11,-51.92 -16.52,-78.88 -10.55,-7.92 -17.44,-19.43 -23.92,-30.65 -4.88,3.98 -10.3,8.18 -16.89,8.35 -12.56,1.12 -23.94,-6.17 -32.76,-14.39 -0.46,6.8 2.17,13.26 3.97,19.69 9.82,30.92 29.54,57.55 51.98,80.52 -2.84,-0.79 -5.64,-1.68 -8.16,-3.19 -16.12,-9.12 -29.58,-22.14 -42.16,-35.58 -4.18,-4.35 -7.59,-9.43 -12.36,-13.2 -1.32,38.15 5.55,77.07 23.1,111.21 19.41,37.55 51.29,69.04 89.98,86.37 -6.35,4.24 -13.44,7.33 -19.43,12.16 -13.63,10.11 -24.47,25.84 -24.42,43.33 14.79,-11.08 32.69,-17.49 50.96,-19.7 18.41,-2.58 37.02,-0.65 55.38,1.41 -9.3,-9.42 -22.21,-13.9 -35.07,-15.69 7.44,-3.48 16.06,-2.89 24.11,-3.48 11.82,-0.57 24,4.5 30.59,14.57 12.94,19.52 15.82,43.33 21.23,65.6 5.25,21.21 15.55,43.33 35.42,54.42 15.04,8.84 33.09,9.11 49.98,7.66 14.79,-1.88 29.92,-6.1 41.42,-16.02 14.34,-12.03 21.19,-30.31 25.96,-47.87 5.07,-17.33 6.82,-35.98 16.49,-51.64 12.32,-21.17 34.86,-35.24 58.84,-39.13 1.12,0.2 3.35,0.63 4.45,0.85 -11.93,5.82 -22.82,14.4 -29.74,25.85 33.09,-7.93 69.85,-11.71 101.38,3.89 -0.22,-1.18 -0.7,-3.5 -0.94,-4.66l-0.77 -0.31c-8.05,-17.5 -24.31,-30.08 -41.95,-36.95 6.17,-3.14 12.76,-5.37 18.87,-8.69 29.76,-14.64 53.96,-39.52 69.17,-68.89 18.2,-35.34 25.46,-75.66 24.48,-115.2 -4.66,2.42 -8.43,6.21 -13.08,8.62 -11.58,6.39 -24.88,9.56 -38.08,9.17 3.42,-4.29 8.16,-7.25 11.86,-11.27 15.28,-16.02 25.8,-36.42 30.94,-57.92 -7.63,3.87 -15.67,7.26 -24.27,8 -11.97,1.47 -24.04,-2.84 -33.23,-10.45l-0.57 -1.84c-4.97,9.05 -10.09,18 -15.98,26.5 3.81,17.44 4.16,35.69 0.62,53.23 -4.58,23.18 -16.02,44.62 -31.27,62.54 0.24,-7.39 2.87,-14.48 2.75,-21.9 0.35,-14.29 -1.68,-29.83 -10.19,-41.66 -5.52,10.7 -13.5,19.88 -22.17,28.14 8.32,7.02 15.84,17.32 12.96,28.86 -4.65,-3.79 -8.76,-8.54 -14.6,-10.53 -13.87,-5.67 -29.04,-3.72 -43.55,-3.08 6,-3.13 12.67,-5.52 17.29,-10.73 9.24,-9.03 8.49,-24.42 1.97,-34.77 -0.42,6.57 0.26,13.42 -2.23,19.68 -3.78,10.81 -14.29,18.16 -25.32,20 -8.71,1.79 -17.33,-0.82 -25.05,-4.71 -3.53,5.91 -9.17,9.93 -15.23,12.89 -3.87,18.05 -18.75,31.86 -35.91,37.5 0.24,-0.92 0.72,-2.79 0.96,-3.71 12.52,-12.74 11.62,-32.56 8.29,-48.82 9.13,-5.67 14.56,-15.5 17.8,-25.47 30.56,-9.32 57.63,-27.29 82.03,-47.47 5.89,4.32 10.72,9.81 15.84,14.97 0.27,-0.04 0.84,-0.15 1.12,-0.19 10.39,-20.84 10.65,-45.34 5.08,-67.6 13.74,10.46 22.03,25.96 32.55,39.26 -1.79,-13.94 -4.18,-28.03 -10.28,-40.81 -7.96,-17.84 -22.87,-32.61 -41.23,-39.56 7.79,-0.33 15.06,2.73 22.57,4.22 7.83,-8.97 15.47,-18.43 23.89,-27.02 -8.82,1.86 -17.24,5.16 -25.97,7.39 7.04,-10.72 16.21,-19.74 24.26,-29.67 -12.18,1.49 -22.42,9.34 -34.09,12.28 13.37,-20.14 29.58,-38.3 47.77,-54.21 2.19,-0.57 3.57,-2.64 5.49,-3.76 2.89,8.78 3.79,18.1 3.88,27.31 0.45,29.76 -7.88,58.82 -18.43,86.37 5.87,6.78 10.7,14.37 15.34,22.01 11.95,-13.85 12.56,-33.41 13.33,-50.79 12.71,-10.19 15.93,-27.5 16.01,-42.91 0.13,-24.81 -5.2,-49.3 -11.92,-73.08 -44.62,14.57 -83.81,43.93 -113.17,80.3zm-563.94 10.35l0 0c-6.87,3.51 -14.18,6.5 -20.13,11.51 8.99,-1.03 18.18,-0.26 26.78,2.67 -3.26,3.88 -8.53,5.1 -12.56,7.95 -35.54,21.29 -58.62,60.06 -64,100.76 14.52,-4.35 29.41,-7.33 44.52,-8.62 13.83,-0.66 27.86,0.44 40.99,5.14 -1.23,0.74 -2.47,1.45 -3.7,2.19 -32.04,3.55 -63.59,14.25 -90.35,32.43 -23.57,16.43 -44.18,39.08 -53.08,66.85 15.79,-4.73 32.32,-7.33 48.81,-6.02 7.93,1.01 15.72,2.98 23.18,5.87 -1.27,0.89 -2.54,1.77 -3.81,2.66 -38.32,6.57 -75.3,23.09 -104.44,49.06 -21.23,18.43 -37.58,41.56 -53.33,64.66 -8.82,12.41 -17.37,25.8 -30.68,33.88 23.46,-1.93 42.12,-17.79 61.21,-29.89 -10.64,16.41 -23.22,32.23 -28.6,51.4l-0.55 0.26c-2.06,9.5 -1.68,20.72 5.67,27.97 8.42,-18.02 29.03,-29.77 48.86,-26.04 4.49,0.48 11.11,2.45 13.89,-2.41 5.06,-18.82 9.72,-39.81 24.91,-53.28 0.15,4.09 0.32,8.2 0.85,12.27 0.09,2.48 0.29,4.97 0.57,7.44 1.7,5.78 1.71,13.42 6.15,17.59 4.13,-2.34 7.11,-6.36 11.33,-8.66 16,-10.4 36.76,-12.67 54.6,-5.8 4.7,-10.44 3.28,-22.38 -0.38,-32.89 -0.43,-2.1 -1.99,-4.55 -0.26,-6.52 7.36,3.7 13.17,9.59 18.23,15.97l-0.29 0.31c3.84,4.46 6.72,10.31 12.28,12.91 3.04,-0.39 5.36,-2.71 7.97,-4.11 13.24,-8.19 29.76,-13.53 45.16,-8.62 -0.41,-11.05 -2.28,-22.24 -7.24,-32.22 -2.83,-6.4 -7.94,-11.37 -11.14,-17.56 16.46,9.1 30.81,21.94 41.29,37.59 2.47,4.27 4.81,8.62 7.07,13 7.18,-6 16.08,-10.16 25.53,-10.53 15.43,-0.88 30.07,4.95 44.31,10.07 3.7,1.53 8.25,2.29 11.47,-0.72 4.01,-4.53 3.19,-11.47 0.51,-16.5 -5.91,-11.73 -15.34,-21.38 -25.74,-29.24 -26.17,-19.47 -61.09,-26.02 -92.73,-18.62 -5.56,1.4 -11.23,2.96 -15.91,6.41 -1.75,0.72 -3.48,1.53 -5.16,2.39 0.61,0.72 1.85,2.16 2.45,2.88 -6.11,-1.94 -10.77,-6.69 -16.79,-8.83 -14.9,-6.31 -33.67,-2.54 -44.66,9.4 -4.05,3.72 -7.83,8.32 -8.88,13.86 -7.46,-4.66 -15.26,-9.78 -24.45,-9.46 -8.75,0.09 -17.41,3.31 -24,9.08l-1.99 -0.59c7.38,-17.48 27.96,-28.75 46.47,-22.25 8.67,-11.16 21.51,-18.78 35.3,-21.69 12.63,-2.82 25.69,-0.89 37.92,2.83 8.06,-5.72 17.59,-8.73 27.25,-10.4 -3.44,-4.94 -9.09,-7.55 -14.14,-10.52 -12.58,-6.5 -26.1,-11.08 -39.83,-14.36 0.18,-0.54 0.58,-1.57 0.79,-2.1 17.29,-6.56 36.63,-5.97 54.55,-2.41 13.96,2.46 27.88,6.55 42.19,5.74 8.16,-0.33 14.86,-6.46 18.3,-13.5 8.11,-17.4 6.47,-38.62 -3.55,-54.92 -7.18,-13.24 -18.95,-22.85 -29.89,-32.79 26.22,-2.38 51.23,10.25 70.52,27.12 -0.8,-10.29 -7.57,-18.91 -14.57,-26 -19.32,-18.45 -44.79,-29.25 -70.5,-35.32 13.44,-4.66 24.86,-14.72 30.87,-27.65 8.6,-17.51 8.1,-37.68 5.87,-56.57 19.56,-5.36 40.76,-4.83 59.89,1.92 -11.75,10.9 -24.55,22.22 -29.58,38.04 7.81,-4.8 15.22,-10.25 23.43,-14.38 18.99,-10.41 39.76,-16.76 60.04,-24.09 0.26,-7.86 0.36,-15.74 0.51,-23.61 -14.55,1.79 -28.25,7.61 -42.04,12.32 -18.71,-10.44 -40.37,-16.66 -61.81,-16.13 -31.78,-1.55 -63.16,8.1 -91.73,21.42zm690.68 45.23l0 0c4.55,8.14 10.81,15.17 17.89,21.21 8.41,6.89 18.95,13.74 30.36,11.44 9.91,-2.14 16.06,-10.77 21.64,-18.49 3.58,15.25 3.3,31.03 0.92,46.43 0.26,0.44 0.76,1.32 1.02,1.77 3.5,10.77 6.13,21.74 8.23,32.85 13.85,16.87 28.71,33.35 39,52.76 -9.53,-4.4 -19.11,-9.85 -29.98,-9.57 0.35,0.88 1.09,2.67 1.44,3.57 19.54,24.62 37.2,51.1 49.89,79.96 -26.78,22.29 -45.07,55.75 -45.49,90.96 -0.68,26.02 8.4,51.25 21,73.68 2.43,-3.99 2.43,-8.84 3.77,-13.24 2.76,-9.89 7.37,-19.98 15.95,-26.13 -0.46,32.56 8.47,67.55 33.72,89.8 6.33,6.55 15.86,7.2 24.22,9.31 27.14,5.18 56.22,5.9 82.5,-3.46 11.81,-18.52 19.15,-40.29 20.9,-62.19 6.65,-36.87 -2.89,-75.76 -22.87,-107.2 -16.85,-26.63 -40.04,-49.06 -66.46,-66.1 -3.82,-2.13 -4.13,-6.96 -5.93,-10.53 -22.21,-54.36 -58.07,-102.38 -100.06,-143.08 11.05,-0.44 22.08,0.58 33.08,1.81 -9.12,-10.72 -20.72,-19.01 -32.1,-27.13 -28.56,-19.11 -60.15,-33.63 -92.95,-43.77 -3.35,5.02 -6.52,10.2 -9.69,15.34zm-118.14 116.77l0 0c-1.76,1.86 -3.49,3.73 -5.21,5.59 2.41,5.89 0.41,13.62 -5.58,16.46 -5.54,3.28 -12.43,0.92 -16.48,-3.57 -2.28,0.77 -4.57,1.54 -6.81,2.32 4.69,9.17 17.1,13.35 26.24,8.27 10.63,-4.81 14.92,-19.56 7.84,-29.07zm-221.52 13.74l0 0c-0.96,10.5 7.8,20.28 18.17,21.2 9.47,1.01 18.36,-5.58 21.42,-14.38 -2.67,-0.35 -5.32,-0.67 -7.97,-0.92 -2.84,6.88 -11.94,9.98 -18.22,5.82 -4.75,-2.55 -6.15,-8.18 -5.58,-13.19 -1.78,-1.27 -3.55,-2.58 -5.47,-3.61 -3.04,-0.9 -1.71,3.46 -2.35,5.08zm-203.14 106.49l0 0c10.02,13.33 19.64,27.1 26.52,42.39 10.56,22.84 16.78,48.93 11.27,73.92 -3.38,15.03 -14.99,27.79 -30.07,31.57 -3.42,26.55 -15.16,51.32 -31.58,72.26 25.32,-18.27 43.9,-45.72 51.53,-76.02 5.5,-3.15 11.63,-5.32 16.31,-9.78 10.52,-8.8 15.25,-22.96 14.31,-36.42 -1.6,-28 -14.33,-54.48 -31.88,-75.95 -7.7,-8.44 -15.61,-17.5 -26.41,-21.97zm-81.1 109.17l0 0c-0.7,9 -0.31,19.92 7.26,26.13 17.21,17.42 30.97,40.66 30.36,65.86 2.01,-2.47 3.89,-5.03 5.71,-7.65l-0.14 -0.4c11.87,-19.03 18.61,-41.18 19.59,-63.57 0.76,-14.61 -1.84,-29.71 -9.52,-42.32 -5.4,-8.48 -14.27,-16.08 -25.01,-15.05 -17.27,3.13 -26.7,20.85 -28.25,37zm-77.22 -16.71l0 0c-7.84,8.95 -10.46,21.55 -9.37,33.17 1.05,8.09 2.81,16.82 8.74,22.84 13.84,14.47 25.03,31.43 33.06,49.78 1.97,4.36 3.13,9.15 5.99,13.11 0.11,-0.77 0.31,-2.3 0.4,-3.06 6.08,-9.37 9.39,-20.26 12.08,-31.01 5.32,-23.72 4.9,-49.41 -4.88,-71.94 -4.75,-10.64 -13.75,-21.34 -26.41,-21.41 -7.29,0.29 -14.69,2.94 -19.61,8.52zm-82.71 20.11l0 0c-11.8,4.7 -21.16,16.54 -20.42,29.64 1.03,20.7 11.86,39.43 23.89,55.74 9.22,11.84 19.28,23.5 31.98,31.71l0.32 1c0.59,-0.02 1.78,-0.07 2.37,-0.09 -3.92,-16.93 -5.47,-34.39 -4.4,-51.72 0.85,-10.73 3.22,-21.65 9.19,-30.77 -1.95,-12.15 -6.09,-25.01 -15.86,-33.15 -7.51,-6.24 -18.47,-6.13 -27.07,-2.36zm-101.86 40.23l0 0c-7.9,16.83 -2.23,36.35 5.75,52.06 11.4,21.2 28.67,40.94 51.8,49.3 -0.55,-0.78 -1.65,-2.3 -2.21,-3.08 -0.25,-0.81 -0.81,-2.39 -1.08,-3.2 -6.21,-15.43 -6.89,-33.1 -1.15,-48.77 3.39,-9.41 7.15,-19.94 3.14,-29.76 -5.38,-13.96 -16.21,-27.42 -31.48,-30.72 -10.18,-0.81 -20.59,4.68 -24.77,14.17zm918.73 14.76l0 0c-4.42,18.88 -6.79,39.47 0.46,58 14.33,-0.09 28.7,0.29 43.02,-0.24 -9.81,-9.58 -19.65,-19.58 -25.45,-32.23 -8.73,-16.96 -9.83,-36.46 -8.49,-55.16 -4.21,9.51 -7.01,19.58 -9.54,29.63zm-1216.55 81.87l0 0c1.38,16.48 3.26,32.92 5.19,49.33 11.8,0.15 23.61,-0.24 35.41,0.2 -5.72,4.07 -12.89,5.55 -19.15,8.64 -19.69,46.93 -39.04,93.98 -58.47,141 39.3,0.66 78.64,0.03 117.96,0.31 23.02,0.96 45.13,-13.96 54.62,-34.64 3.59,-8.23 6.87,-16.58 10.35,-24.83 3.55,-8.17 7.77,-17.03 5.34,-26.15 -1.38,-8.63 -9.19,-13.7 -14.07,-20.27 12.65,-9.17 26.44,-16.82 38.73,-26.41 4.12,-9.04 7.77,-18.31 11.45,-27.53 3.83,-9.43 3.63,-21 -2.74,-29.29 -5.25,-6.87 -14.07,-10.2 -22.56,-10.25 -54.02,-0.1 -108.05,0.11 -162.06,-0.11zm191.6 0l0 0c1.42,16.46 3.46,32.87 5.14,49.31 11.93,0.22 23.86,-0.31 35.78,0.32 -6.74,5.37 -18.93,4.32 -21.75,13.75 -18.4,45.44 -37.98,90.45 -55.88,136.08 22.73,0.04 45.47,-0.18 68.22,0.11 3.77,-6.66 6.04,-14.03 9.17,-21.01 19.39,-46.93 38.88,-93.81 58.25,-140.74 1.42,-2.96 1.93,-6.65 4.7,-8.75 0.73,6.56 1.38,13.15 1.84,19.75 12.13,1.56 24.46,-0.56 36.59,1.19 -6.04,2.54 -12.25,4.7 -18.18,7.48 -2.74,1.03 -3.2,4.31 -4.4,6.63 -18.41,45.1 -37.53,89.94 -55.72,135.14 22.96,0.31 45.92,0.29 68.87,0 10.87,-26.17 21.77,-52.32 32.49,-78.56 0.42,-1.7 1.43,-2.75 3.06,-3.15 6.22,27.34 12.28,54.75 19.15,81.95 18.64,-0.13 37.27,-0.04 55.91,-0.04 12.98,-29.81 24.95,-60.07 37.57,-90.05 14.97,-36.49 30.42,-72.78 45.1,-109.38 -23.04,0.22 -46.1,-0.18 -69.13,0.22 -9.62,23.94 -19.75,47.68 -29.47,71.57 -1.18,-1.73 -2.23,-3.57 -2.52,-5.66 -4.98,-22.08 -10.1,-44.12 -15.34,-66.15 -8.33,0.15 -16.67,-0.11 -25.01,0.28 1.76,2.67 3.53,5.36 5.26,8.07l0.35 0c3.23,4.38 7.3,8.03 11.62,11.29 -24.86,5.67 -52.98,3.33 -74.53,-11.26 -3.37,-2.74 -6.68,-5.5 -9.98,-8.3 -39.06,-0.06 -78.12,0.11 -117.16,-0.09zm318.29 38.34l0 0c-16.49,39.91 -33.06,79.78 -49.54,119.67 -4.24,9.79 -4.85,22.13 2.19,30.81 6.37,8.32 17.35,11.1 27.38,10.66 37.35,-0.33 74.72,0.48 112.03,-0.41 14.55,-35.83 29.54,-71.49 44.31,-107.23 -27.68,-0.28 -55.36,-0.08 -83.04,-0.11 0.33,9.19 2.87,18.28 2.41,27.47 -3.83,10.35 -8.6,20.35 -12.45,30.72 -6.78,0.46 -13.57,0.28 -20.35,0.22 13.69,-33.64 27.72,-67.16 41.64,-100.72 18.47,-0.2 36.93,0.06 55.4,-0.12 3.13,0.09 6.65,-0.45 9.3,1.65 6.19,4.09 12.17,8.51 18.47,12.47 7,-14.18 11.66,-29.43 18.91,-43.48 0.89,9.8 1.97,19.58 3.04,29.37 11.97,0.24 23.96,-0.35 35.93,0.34 -6.19,3.68 -13.35,5.28 -19.56,8.85 -5.78,12.29 -10.48,25.09 -15.85,37.55 -14.02,34.5 -28.88,68.66 -42.43,103.34 23.02,-0.09 46.07,0.46 69.08,-0.28 11.45,-28.25 22.92,-56.52 35.12,-84.46 6.51,0.08 13.03,-0.01 19.55,0.21 -10.94,28.34 -23.5,56.06 -34.42,84.42 22.88,0.37 45.75,0.09 68.62,0.14 27.85,-66.31 55.14,-132.85 82.69,-199.28 -23.08,-0.02 -46.15,-0.22 -69.23,0.09 -8.85,21.79 -17.9,43.5 -26.96,65.2 -6.65,0.07 -13.29,0.07 -19.94,0.04 8.14,-22.03 18.6,-43.19 26.2,-65.38 -74.32,-0.02 -148.67,0.05 -223,-0.04 -24.2,-1.09 -47.05,16.04 -55.5,38.29zm378.04 -38.27l0 0c-6.98,16.33 -13.62,32.82 -20.48,49.21 8.66,0.4 17.39,-0.65 25.97,0.79 -5.98,2.5 -12.13,4.6 -18.01,7.35 -2.85,0.96 -3.35,4.27 -4.55,6.63 -18.38,45.15 -37.6,89.96 -55.69,135.23 22.97,0.25 45.93,0.31 68.9,-0.04 6.09,-14.05 11.21,-28.56 17.99,-42.3 8.99,0.29 17.97,0.02 26.94,0.2 -1.31,14.13 -3.77,28.12 -5.19,42.25 43.18,0.03 86.39,0.2 129.58,-0.08 8.34,-17.84 16.64,-35.71 24.99,-53.55 2.19,-4.66 3.99,-9.58 7.22,-13.66 2,22.48 2.92,45.1 5.67,67.51 3.31,-0.11 6.66,-0.17 10.02,-0.15 19.65,-20.35 37.64,-42.34 57.55,-62.43 -6.28,21.09 -15.09,41.38 -21.81,62.34 22.99,-0.15 46.01,0.66 68.95,-0.41 20.32,-57.44 41.49,-114.54 61.95,-171.93 0.85,-1.93 1.07,-4.7 3.48,-5.32 0.87,9.21 1.85,18.41 2.91,27.6 16.14,0.32 32.31,-0.44 48.44,0.39 -5.89,3.02 -12.25,4.99 -18.2,7.85 -2.28,0.79 -2.89,3.29 -3.79,5.23 -18.62,45.56 -37.83,90.88 -56.3,136.5 22.91,0.37 45.84,0.11 68.77,0.13 21.08,-49.89 41.36,-100.1 62.37,-150.02 15.42,-0.06 30.85,-0.11 46.28,0.05 7.02,-16.31 14.13,-32.67 20.24,-49.35 -77.18,0.14 -154.38,-0.3 -231.54,0.22 -20.92,23.44 -41.96,46.81 -63.47,69.7 -2.61,-23.22 -3.79,-46.61 -5.96,-69.89 -37.72,-0.05 -75.42,-0.07 -113.13,0.02 1.82,16.36 3.64,32.73 5.26,49.14 11.99,0.29 24.02,-0.26 36.01,0.31 -6.21,4.4 -15.03,4.7 -20.21,10.28 -21.21,45.01 -42.17,90.16 -63.16,135.28 -0.15,-1.95 -0.13,-3.9 0,-5.84 6.57,-50.4 13.35,-100.81 19.81,-151.23 2.12,-15.01 -7.51,-30.35 -21.6,-35.58 -7.27,-3.09 -15.3,-2.39 -23,-2.41 -24.4,0 -48.8,0 -73.21,-0.02zm595.16 0.44l0 0c-20.18,3.37 -38.03,18.16 -45.5,37.18 -15.4,37.28 -30.83,74.53 -46.29,111.79 -3.09,7.46 -6.86,15.03 -6.51,23.33 -0.1,8.47 4.14,17 11.32,21.62 5.86,3.96 13.08,5.07 20.02,5.03 24.59,-0.04 49.19,-0.05 73.79,0.02 23.36,0.48 45.58,-15.27 54.37,-36.67 16.67,-40.33 33.4,-80.64 50.11,-120.95 3.83,-8.96 4.86,-19.95 -0.48,-28.53 -5.49,-9.14 -16.43,-13.91 -26.89,-13.28 -27.97,0.37 -55.98,-0.55 -83.94,0.46zm121.18 -0.39l0 0c1.62,16.41 3.44,32.8 5.27,49.21 11.78,0.22 23.61,-0.35 35.39,0.32 -5.82,3.97 -13,5.19 -19,8.84 -9.45,20.88 -17.63,42.35 -26.61,63.46 -10.45,25.87 -21.83,51.4 -31.7,77.49 22.65,0.13 45.3,-0.25 67.96,0.21 8.38,-16.41 14.31,-34 21.75,-50.85 4.91,-10.72 8.21,-22.29 14.23,-32.43 6.3,27.66 12.88,55.25 19.1,82.93 18.93,0.11 37.92,0.51 56.85,-0.21 27.24,-66.24 54.79,-132.35 82.14,-198.54 -22.89,-1.09 -45.88,-0.15 -68.79,-0.48 -7.81,18.12 -15.14,36.43 -22.76,54.62 -2.58,5.86 -4.35,12.16 -8.07,17.42 -5.56,-23.88 -11.23,-47.75 -16.53,-71.69 -36.39,-0.76 -72.82,-0.17 -109.23,-0.3zm-60.92 223.06l0 0c9.91,5.91 18.01,15.29 20.33,26.82 2.54,12.48 1.99,27.34 -7.29,37.07 -6.23,6.77 -15.6,9 -24.44,9.63 10.46,9.41 12.38,24.97 9.04,38.01 -4.62,14.81 -21.29,22.45 -35.96,21.16 5.21,5.56 9.9,12.01 11.43,19.63 2.47,13.74 -4.47,28.62 -16.76,35.34 -7.2,4.37 -15.89,4.9 -24.05,3.91 2.86,6.98 3.55,14.67 1,21.86 13.22,0.92 26.57,-5.73 33.2,-17.31 -3,-1.38 -5.97,-2.77 -8.9,-4.24 32.42,-5.97 61.9,-30.02 70.26,-62.5 -12.19,6.07 -26.55,8.58 -39.65,3.83 11.79,-5.66 23.98,-10.83 34.07,-19.34 19.27,-14.75 31.84,-38.14 31.81,-62.62 -10.24,8.48 -21.81,19.54 -36.34,16.19 15.1,-9.96 29.36,-22.21 37.66,-38.64 4.33,-8.98 8.9,-18.58 8.73,-28.76 -21.38,0.26 -42.76,0.33 -64.14,-0.04zm-94.66 0.65l0 0c0.53,2.1 1.16,4.23 1.73,6.37 8.4,24.36 28.47,46.33 54.25,52.1 11.53,1.99 25.42,1.69 34.3,-7 4.91,-4.53 4.36,-11.57 4.41,-17.64l-0.58 0.48c-2.56,-8.64 -9.41,-15.22 -17.11,-19.49 -6.21,6.74 -15.93,7.75 -24.51,6.48 -18.95,-2.72 -36.01,-12.11 -52.49,-21.3zm-13.52 64.95l0 0c5.84,23.92 24.04,45.6 48.16,52.34 11.73,3.44 25.27,2.39 35.4,-4.85 4.91,-3.47 7.47,-9.57 6.92,-15.52 -2.26,-10.24 -12.87,-17.31 -22.93,-17.31 -21.53,5.69 -44.68,0.05 -62.98,-12.06l0.18 -0.74c-1.62,-0.59 -3.2,-1.21 -4.75,-1.86zm-30.79 52.93l0 0c7.55,19.28 22.27,35.12 38.95,47.01 13.19,9.05 30.87,16.08 46.41,8.75 7.31,-2.87 10.55,-11.03 9.76,-18.45 -2.36,-9.36 -9.15,-16.87 -17.48,-21.44 -5.19,3.85 -11.25,6.95 -17.95,6.72 -20.06,-0.07 -37.7,-10.77 -55.14,-19.26 3.26,-2.76 -3.76,-1.21 -4.55,-3.33zm-1036.26 20.31l0 0c-2.01,4.7 -3.96,9.41 -5.82,14.16 3.87,0.02 7.71,0.02 11.58,0.02 -7.03,19.26 -15.78,37.88 -23.11,57.04 -1.81,3.83 3.79,4.47 6.33,4.62 20.89,0.2 41.79,-0.02 62.69,0.09 8.66,0.54 17.2,-4.07 21.77,-11.38 4.18,-6.58 8.51,-13.79 8.84,-21.75 0.37,-6.17 -5.85,-8.88 -10.85,-9.98 6.28,-2.34 12.9,-5.82 15.46,-12.43 1.89,-4.86 4.31,-10.96 1.01,-15.73 -3.98,-4.38 -10.52,-4.35 -15.97,-4.71 -23.98,0.01 -47.95,-0.08 -71.93,0.05zm138.19 -0.02l0 0c-2.04,4.7 -4.47,9.3 -5.45,14.39 3.65,-0.11 7.29,-0.22 10.98,-0.3 -7.33,20.18 -16.83,39.52 -23.94,59.76 2.85,1.59 6.04,2.19 9.3,2.1 19.7,0 39.41,-0.05 59.13,0 2.29,-5.17 4.46,-10.39 6.48,-15.67 -11.45,0.02 -22.91,-0.11 -34.36,0.11 1.09,-6.48 4.14,-12.43 7.09,-18.23 11.6,0.33 23.2,0.09 34.81,0.16 2.02,-4.88 4.05,-9.74 6.02,-14.62 -11.68,-0.24 -23.37,-0.07 -35.05,-0.07 1.73,-4.72 3.59,-9.36 5.67,-13.91 11.7,0.08 23.37,0.08 35.07,0.02 2.04,-4.51 3.94,-9.08 5.69,-13.7 -27.15,-0.15 -54.29,-0.07 -81.44,-0.04zm134.83 0.17l0 0c-1.9,4.7 -3.8,9.39 -5.6,14.12 4.53,-0.07 9.08,-0.09 13.63,0.04 -15.16,19.12 -31.18,37.55 -46.67,56.39 -1.09,1.47 -1.91,3.1 -2.47,4.88 9.17,0.65 18.36,0.24 27.55,0.33 4,-5.47 8.05,-10.9 11.94,-16.42 10.22,-0.32 20.46,-0.08 30.68,-0.15 0.51,5.1 -2.8,12.74 2.12,16.13 10.46,1.03 21.05,0.17 31.56,0.42 -0.46,-24.49 0.81,-48.98 0.24,-73.46 -0.64,-0.53 -1.9,-1.62 -2.54,-2.17 -20.11,-0.63 -40.31,-0.35 -60.44,-0.11zm123.42 0.13l0 0c-1.82,4.66 -3.74,9.28 -5.39,14.01 3.5,-0.07 7.03,-0.13 10.57,-0.2 -0.13,5.1 -3.04,9.48 -4.77,14.16 -5.95,14.81 -12.36,29.45 -18.18,44.31 0.3,2.91 3.98,3 6.19,3.28 9.04,0.13 18.1,0.31 27.13,-0.26 3.46,-9.41 7.62,-18.54 11.32,-27.84 0.89,-2.47 2.31,-4.66 4.09,-6.56 6.94,9.45 8.22,21.92 13.59,32.28 1.18,2.45 4.11,2.36 6.43,2.43 10.02,0.08 20.02,0 30.04,0 -5.27,-11.23 -11.27,-22.09 -16.17,-33.49 8.87,-1.35 17.62,-5.44 22.48,-13.28 4.06,-6.52 8.77,-14.85 5.47,-22.56 -3.22,-6.49 -11.45,-6.43 -17.66,-6.63 -25.04,0.25 -50.11,-0.41 -75.14,0.35zm141.74 11.34l0 0c-8.55,11.05 -13.32,24.42 -17.83,37.48 -2.05,6.67 -4.57,15.51 1.31,20.99 6.39,5.68 15.61,5.1 23.59,5.71 12.08,0.09 24.18,0.41 36.24,-0.2 1.91,-5.34 4.12,-10.55 6.19,-15.82 -9.27,-0.22 -18.6,0.66 -27.79,-0.64 -4.26,-0.34 -6.26,-5.27 -4.79,-8.92 2.69,-9.37 6.74,-18.34 11.25,-26.98 2.03,-4.05 5.29,-8.21 10.24,-8.38 10.04,-0.66 20.11,0.3 30.17,-0.44 1.84,-4.84 3.83,-9.61 5.71,-14.44 -15.64,-0.05 -31.28,-0.09 -46.91,0 -10.17,0.09 -20.94,3.35 -27.38,11.64zm128.45 -11.66l0 0c-2.17,4.63 -4.64,9.23 -5.36,14.37 4.33,-0.09 8.64,-0.18 12.96,-0.17 -13.37,17.5 -28.08,33.98 -42,51.04 -2.4,3.36 -6.56,6.15 -6.69,10.62 8.93,0.2 17.88,-0.04 26.82,0.2 4.45,-5.36 8.28,-11.19 12.56,-16.68 10.12,0 20.25,0 30.38,-0.02 0.65,5.21 -3.33,13.67 2.8,16.41 10.3,0.44 20.61,0.13 30.92,0.09 -0.48,-23.35 0.52,-46.67 0.41,-70 0.29,-2.5 -0.63,-5.69 -3.69,-5.69 -19.68,-0.44 -39.41,-0.06 -59.11,-0.17zm105.93 14.2l0 0c7.75,0.1 15.51,0.11 23.28,-0.05 -0.37,2.15 -0.85,4.31 -1.77,6.33 -7.39,17.39 -14.37,34.96 -21.81,52.32 1.64,1.97 3.96,3.15 6.61,3.02 9.07,0.26 18.16,0.28 27.24,-0.13 8.2,-20.58 16.85,-40.99 25.34,-61.45 7.68,-0.35 15.53,0.83 23.12,-0.61 3.77,-3.37 4.49,-9.08 6.51,-13.61 -27.47,-0.14 -54.95,0.13 -82.43,-0.14 -2.35,4.62 -4.25,9.46 -6.09,14.32zm122.96 5.18l0 0c-1.82,5.16 -5.96,11.88 -1.01,16.59 8.2,7.44 20.26,7.35 29.58,12.74 3.57,4.66 -1.81,10.23 -6.69,10.35 -12.82,1.35 -25.73,0.59 -38.56,0.76 -2.36,5.32 -4.61,10.7 -6.74,16.13 15.65,0 31.31,0 46.96,0.02 7.31,-0.2 15.06,-0.53 21.55,-4.35 8.65,-4.88 13.53,-14.21 16.66,-23.27 1.59,-4.46 1.99,-10.67 -2.67,-13.43 -7.44,-4.55 -16.22,-5.87 -24.23,-9.06 -2.27,-0.81 -5.58,-2.25 -4.35,-5.34 0.18,-4.03 4.55,-5.97 8.08,-6.13 12.68,-1.2 25.44,-0.24 38.15,-0.7 1.84,-4.51 3.7,-9.03 5.56,-13.52 -18.88,-0.35 -37.77,-0.18 -56.63,-0.11 -11.83,-0.17 -21.68,8.69 -25.66,19.32zm114.18 1.21l0 0c1.26,8.44 4.87,16.34 9.56,23.43 8.79,13.15 21.13,24.73 36.48,29.54 10.76,3.28 24,2.56 32.77,-5.1 3.96,-3.3 3.68,-8.66 2.26,-13.11 -3.96,-7.74 -11.07,-16.28 -20.68,-15.25 -5.43,1.43 -10.53,5.45 -16.45,3.68 -14.73,-3.02 -27.4,-11.86 -39.42,-20.44l0.11 -0.68c-1.57,-0.7 -3.12,-1.4 -4.63,-2.07zm-369.35 -674.56c5.03,-4.15 10.68,-8.44 17.4,-8.97 4.97,0.15 5.19,5.91 6.78,9.39 5.87,-1.93 11.45,-4.64 17.22,-6.91 11.47,-3.14 24.34,-4.29 35.36,1.16 9.04,4.07 15.84,12.4 18.32,21.97 4.79,18.07 -0.48,38.6 -13.85,51.77 -11.27,11.36 -27.49,17.33 -43.42,16.12 -4.88,-0.43 -9.86,-1.27 -13.96,-4.11 12.28,-3.04 24.01,-8.29 33.81,-16.39 -9.58,0.26 -19.65,1.03 -28.51,-3.39 12.52,-3.61 24.16,-10.26 33.06,-19.87 -9.23,1.99 -18.64,3.5 -28.09,2.43 11.35,-7.92 26.54,-13.61 31.33,-27.88 2.19,-4.81 -4.38,-6.04 -7.66,-6.32 -20.72,-0.53 -39.61,16.15 -43.96,36.01 -1.18,8.63 -0.04,17.69 -4,25.78 2.49,2.65 4.96,5.32 7.42,8.01 -14.38,5.05 -28.69,11.36 -40.16,21.62 -3.26,2.91 -6.91,7.62 -3.83,11.99 5.39,7.99 16.02,9.3 24.82,10.48 20.43,1.73 37.88,-12.62 48.82,-28.51 36.08,-3.9 71.64,-12.45 105.42,-25.75 -3.46,2.99 -7.18,5.66 -11.12,7.94 -25.53,15.21 -54.22,24 -82.84,31.25 -6.02,9.67 -14,18.2 -23.74,24.18 -2.95,2.01 -6.48,3.47 -8.45,6.58 -14.77,22.94 -16.34,51.16 -27.54,75.6 -6.79,14.91 -21.76,24.53 -37.66,27.05 -15.87,2.34 -32.57,2.89 -48.03,-2.03 -11.95,-3.72 -21.89,-12.85 -26.92,-24.27 -10.52,-23.41 -9.59,-50.27 -20.31,-73.61 -7.19,-5.65 -15.34,-10.61 -19.84,-18.91 -2.7,-3.48 -3.61,-9.76 -8.97,-9.85 -30.51,-3.93 -60.07,-15.03 -85.58,-32.25 -4.53,-2.89 -8.82,-6.13 -12.56,-10 4.11,1.55 8.13,3.37 12.12,5.27 34.09,15.83 71.51,24.55 109.14,24.71 3.09,6.98 7.16,13.78 13.49,18.29 11.44,8.69 27.06,9.43 40.54,5.93 5.58,-1.79 11.82,-4.35 14.7,-9.8 -1.04,-6.74 -5.88,-12.28 -10.59,-16.92 -10.1,-9.56 -24.07,-13.3 -37.59,-14.55 2.8,-3.56 5.62,-7.11 8.38,-10.7 -10.19,-13.26 -4.86,-31.97 -13.89,-45.75 -7.18,-10.49 -20.92,-13.98 -32.98,-12.98 -4,0.64 -9.01,1.55 -11.13,5.39 5.27,12.31 17.41,19.36 27.17,27.72 -9.58,0.94 -19.06,-0.72 -28.43,-2.45 8.93,9.84 21.25,15.45 32.92,21.29 -10.01,2.74 -20.42,2.39 -30.64,1.31 8.64,9.83 21.82,12.7 33.76,16.52 -6.73,8.43 -18.92,7.68 -28.16,4.53 -10.15,-4.37 -20.1,-10.04 -27.2,-18.69 -8.4,-9.8 -12.31,-22.97 -11.73,-35.75 0.75,-14.73 9.66,-28.78 22.85,-35.47 10.9,-5.8 24.24,-5.82 35.51,-1.07 3.24,1.68 6.44,3.45 9.7,5.14 2.23,-3.26 3.91,-8.21 8.66,-8.2 8.58,1.07 15.45,7.02 21.58,12.68 7.48,7.58 14.48,16.13 17.94,26.37 -7.28,-4.61 -13.45,-12.95 -22.86,-12.45 1.59,8.69 5.12,16.85 8.31,25.04 2.08,5.4 5.6,10.7 11.2,12.93 6.5,2.73 13.37,4.59 19.67,7.87 6.5,2.96 13.37,7.45 20.82,5.35 9.32,-4.8 18.09,-10.68 27.76,-14.8 7.57,-3.43 16,-7.79 18.73,-16.28 2.83,-8.25 9.5,-15.49 8.06,-24.77 -11.67,-3.46 -19.67,8.14 -28.69,13.35 4.18,-11.79 12.95,-21.2 22.12,-29.37zm-52.32 87.55l0 0c-11.92,-6.61 -24.13,-13.02 -37.26,-16.84 -2.85,-2.02 -4.33,1.37 -5.84,3.01 15.66,7.4 31.03,15.71 44.22,27.03 9.48,-7.49 19.25,-14.79 29.93,-20.51 5.26,-2.89 12.32,-3.02 16.06,-8.29 1.52,-2.95 1.8,-8.97 -2.97,-8.51 -14.86,7.75 -29.34,16.24 -44.14,24.11zm1.42 33.05l0 0c-2.6,7.02 -6.76,13.72 -13.12,17.9 -10.24,7.35 -23.28,8.83 -35.52,9.08 -4.72,-0.46 -9.45,-0.83 -14.15,-1.38 2.34,11.11 6.89,21.94 14.7,30.32l0.09 0.7c0.96,0.66 2.86,2.02 3.82,2.7 -0.8,-10.48 0.93,-21.1 6.05,-30.35 4.52,2.58 9.14,4.99 14.13,6.54 4.47,-3.48 8.91,-7.11 12.19,-11.79 3.04,2.4 6.02,4.88 8.9,7.52 4.6,-1.64 7.88,-5.32 10.55,-9.28 3.94,3.72 8.16,7.14 12.61,10.25 3.94,-1.97 7.9,-3.96 11.84,-5.94 4.02,5.94 6.65,12.59 8.97,19.33 0.21,2.31 0.43,4.62 0.69,6.95 8.95,-7.02 14.73,-18.09 14.53,-29.56 -3.95,-0.26 -7.89,-0.61 -11.79,-1.05 -16.54,-2.41 -33.48,-8.86 -44.49,-21.94zm-5.05 68.49l0 0c-3.09,-9.39 -0.42,-20.14 -6.32,-28.67 -3.4,3.13 -6.85,6.24 -10.46,9.17 -3.94,-1.77 -7.77,-3.7 -11.51,-5.82 -4.58,11.16 -1.69,24.22 5.77,33.43 3.05,-2.99 6.35,-6.39 10.88,-6.8 3.83,3.5 5.89,8.77 9.72,12.45 4.09,-3.77 7.96,-7.81 12.03,-11.62 2.69,1.75 5.4,3.52 8.09,5.29 9.79,-8.4 17.38,-21.22 14.58,-34.53 -2.65,1.54 -5.25,3.18 -7.79,4.89 -4.35,-2.79 -8.31,-6.11 -12.36,-9.28 -10.33,7.42 -7.14,21.53 -12.63,31.49zm-46.22 4.81l0 0c-0.43,6.04 -1.29,12.71 2.02,18.16 2.62,5.03 7.64,8.07 12.65,10.33l0.33 0.48c17.92,5.38 37.17,6.06 55.49,2.23l0.08 -0.48c6.06,-2.1 11.89,-5.93 14.66,-11.92 3.18,-7.18 2.17,-15.39 -0.08,-22.68 -0.22,0.82 -0.68,2.52 -0.9,3.36 -5.51,7.13 -11.31,14.09 -18.42,19.71 -3.13,-2.98 -6.55,-5.65 -10.53,-7.37 -3.68,3.48 -7.48,6.87 -11.22,10.26 -2.83,-3.83 -6.09,-7.29 -9.66,-10.42 -3.63,1.62 -6.84,3.94 -9.43,6.92 -10.37,-3.57 -17.15,-12.72 -22.49,-21.78 -1.95,-1.68 -1.84,2.26 -2.5,3.2zm-37.11 372.1l0 0c5.34,-0.22 10.88,0.72 16.11,-0.64 3.48,-1.33 7.86,-6.93 4.11,-10.02 -4.96,-1.49 -10.24,-0.65 -15.33,-0.9 -1.76,3.79 -3.37,7.66 -4.89,11.56z"/>
   <path class="fil3" d="M1599.17 927.37c12.86,-0.68 25.75,-0.11 38.62,-0.3 -16.26,39.12 -32.41,78.31 -48.69,117.43 -12.73,-0.04 -25.47,0.01 -38.2,-0.04 16.01,-39.06 32.58,-77.9 48.27,-117.09zm47.37 181.82c21.38,0.37 42.76,0.3 64.14,0.04 0.17,10.18 -4.4,19.78 -8.73,28.76 -8.3,16.43 -22.56,28.68 -37.66,38.64 14.53,3.35 26.1,-7.71 36.34,-16.19 0.03,24.48 -12.54,47.87 -31.81,62.62 -10.09,8.51 -22.28,13.68 -34.07,19.34 13.1,4.75 27.46,2.24 39.65,-3.83 -8.36,32.48 -37.84,56.53 -70.26,62.5 2.93,1.47 5.9,2.86 8.9,4.24 -6.63,11.58 -19.98,18.23 -33.2,17.31 2.55,-7.19 1.86,-14.88 -1,-21.86 8.16,0.99 16.85,0.46 24.05,-3.91 12.29,-6.72 19.23,-21.6 16.76,-35.34 -1.53,-7.62 -6.22,-14.07 -11.43,-19.63 14.67,1.29 31.34,-6.35 35.96,-21.16 3.34,-13.04 1.42,-28.6 -9.04,-38.01 8.84,-0.63 18.21,-2.86 24.44,-9.63 9.28,-9.73 9.83,-24.59 7.29,-37.07 -2.32,-11.53 -10.42,-20.91 -20.33,-26.82zm-326.8 -305.05c2.53,-10.05 5.33,-20.12 9.54,-29.63 -1.34,18.7 -0.24,38.2 8.49,55.16 5.8,12.65 15.64,22.65 25.45,32.23 -14.32,0.53 -28.69,0.15 -43.02,0.24 -7.25,-18.53 -4.88,-39.12 -0.46,-58zm-113.51 -101.34c20.99,-0.99 43.18,3.26 60.66,15.47 4.81,3.06 8.17,8.25 13.72,10.15l0.77 0.31c0.24,1.16 0.72,3.48 0.94,4.66 -31.53,-15.6 -68.29,-11.82 -101.38,-3.89 6.92,-11.45 17.81,-20.03 29.74,-25.85 -1.1,-0.22 -3.33,-0.65 -4.45,-0.85zm-700.48 -57.64c9.19,-0.32 16.99,4.8 24.45,9.46 3.76,7.54 6.41,15.92 12.27,22.16 -1.73,1.97 -0.17,4.42 0.26,6.52 3.66,10.51 5.08,22.45 0.38,32.89 -17.84,-6.87 -38.6,-4.6 -54.6,5.8 -4.22,2.3 -7.2,6.32 -11.33,8.66 -4.44,-4.17 -4.45,-11.81 -6.15,-17.59 8.8,-7.68 17.85,-15.45 28.75,-20.02 7.62,-3.57 16.04,-4.59 24.31,-5.63 -0.68,-9.08 -2.86,-18.03 -6.5,-26.38 -2.75,-6.09 -7.72,-10.73 -11.84,-15.87zm238.15 -8.58c10.8,4.47 18.71,13.53 26.41,21.97 17.55,21.47 30.28,47.95 31.88,75.95 0.94,13.46 -3.79,27.62 -14.31,36.42 -4.68,4.46 -10.81,6.63 -16.31,9.78 -7.63,30.3 -26.21,57.75 -51.53,76.02 16.42,-20.94 28.16,-45.71 31.58,-72.26 15.08,-3.78 26.69,-16.54 30.07,-31.57 5.51,-24.99 -0.71,-51.08 -11.27,-73.92 -6.88,-15.29 -16.5,-29.06 -26.52,-42.39zm-204.82 4.18c10.99,-11.94 29.76,-15.71 44.66,-9.4 6.02,2.14 10.68,6.89 16.79,8.83 2.34,0.99 4.72,1.97 6.91,3.27 3.2,6.19 8.31,11.16 11.14,17.56 4.96,9.98 6.83,21.17 7.24,32.22 -15.4,-4.91 -31.92,0.43 -45.16,8.62 -2.61,1.4 -4.93,3.72 -7.97,4.11 -5.56,-2.6 -8.44,-8.45 -12.28,-12.91l0.29 -0.31c9.56,-12.53 25.41,-16.03 38.03,-24.19 -8.4,-14.78 -21.44,-28.91 -38.91,-31.91 -7.19,-1.68 -14.18,1.58 -20.74,4.11zm80.07 -12.25c31.64,-7.4 66.56,-0.85 92.73,18.62 10.4,7.86 19.83,17.51 25.74,29.24 2.68,5.03 3.5,11.97 -0.51,16.5 -3.22,3.01 -7.77,2.25 -11.47,0.72 -14.24,-5.12 -28.88,-10.95 -44.31,-10.07 -9.45,0.37 -18.35,4.53 -25.53,10.53 -2.26,-4.38 -4.6,-8.73 -7.07,-13 8.08,-12.01 23.54,-11.88 36.24,-14.36 4.42,-0.37 9.62,-3.67 8.6,-8.71 -3.77,-6.67 -11.01,-10.34 -17.68,-13.49 -14.07,-5.85 -28.89,-10.58 -44.21,-11.16 -9.52,-0.42 -18.97,0.96 -28.44,1.59 4.68,-3.45 10.35,-5.01 15.91,-6.41zm506.34 10.52c4.35,-19.86 23.24,-36.54 43.96,-36.01 3.28,0.28 9.85,1.51 7.66,6.32 -4.79,14.27 -19.98,19.96 -31.33,27.88 9.45,1.07 18.86,-0.44 28.09,-2.43 -8.9,9.61 -20.54,16.26 -33.06,19.87 8.86,4.42 18.93,3.65 28.51,3.39 -9.8,8.1 -21.53,13.35 -33.81,16.39 4.1,2.84 9.08,3.68 13.96,4.11 -6.8,18.19 -23.82,28.93 -39.73,38.36 -8.8,-1.18 -19.43,-2.49 -24.82,-10.48 -3.08,-4.37 0.57,-9.08 3.83,-11.99 11.47,-10.26 25.78,-16.57 40.16,-21.62 -2.46,-2.69 -4.93,-5.36 -7.42,-8.01 3.96,-8.09 2.82,-17.15 4,-25.78zm233.04 -177.09c8.91,6.5 17.24,13.88 24.45,22.26 19.08,20.35 35.23,43.54 47.39,68.67 2.06,4.15 4.46,8.42 4.03,13.23 -5.67,0.7 -11.31,1.62 -16.89,2.87 3.56,6.28 8.53,11.57 12.62,17.46 11.29,15.62 21.07,32.36 28.97,49.92 1.73,3.73 2.96,7.85 1.84,11.96 -6.28,30.24 -6.45,61.8 0.35,91.99 8.31,-13.13 14.95,-27.2 22.49,-40.78 2.67,23.81 3.4,48.4 12.59,70.91 5.62,14.89 16.06,29.7 31.97,34.54 13.54,3.95 29.03,2.16 40.76,-5.91 6.72,-4.58 10.62,-11.97 14.58,-18.82 -1.75,21.9 -9.09,43.67 -20.9,62.19 -26.28,9.36 -55.36,8.64 -82.5,3.46 -8.36,-2.11 -17.89,-2.76 -24.22,-9.31 -25.25,-22.25 -34.18,-57.24 -33.72,-89.8 -8.58,6.15 -13.19,16.24 -15.95,26.13 -1.34,4.4 -1.34,9.25 -3.77,13.24 -12.6,-22.43 -21.68,-47.66 -21,-73.68 0.42,-35.21 18.71,-68.67 45.49,-90.96 -12.69,-28.86 -30.35,-55.34 -49.89,-79.96 -0.35,-0.9 -1.09,-2.69 -1.44,-3.57 10.87,-0.28 20.45,5.17 29.98,9.57 -10.29,-19.41 -25.15,-35.89 -39,-52.76 -2.1,-11.11 -4.73,-22.08 -8.23,-32.85zm-494.96 -112.44c10.69,0.85 20.78,5.46 29.87,10.91 4.7,2.56 8.14,7.18 13.3,8.91 2.69,4.84 4.81,10 6.8,15.18 -9.14,3.36 -17.72,8.01 -25.95,13.18 -6.78,-9.58 -16.13,-16.63 -25.62,-23.28 8.07,-0.14 15.91,1.81 23.57,4.13 -5.65,-10.79 -13.57,-20.24 -21.97,-29.03zm338.09 3.26c11.67,-2.94 21.91,-10.79 34.09,-12.28 -8.05,9.93 -17.22,18.95 -24.26,29.67 8.73,-2.23 17.15,-5.53 25.97,-7.39 -8.42,8.59 -16.06,18.05 -23.89,27.02 -7.51,-1.49 -14.78,-4.55 -22.57,-4.22 -1.94,-0.79 -3.82,-1.67 -5.68,-2.54 4.02,-10.79 10.28,-20.55 16.34,-30.26zm-513.91 -19.83c21.44,-0.53 43.1,5.69 61.81,16.13 13.79,-4.71 27.49,-10.53 42.04,-12.32 -0.15,7.87 -0.25,15.75 -0.51,23.61 -20.28,7.33 -41.05,13.68 -60.04,24.09 -8.21,4.13 -15.62,9.58 -23.43,14.38 5.03,-15.82 17.83,-27.14 29.58,-38.04 -19.13,-6.75 -40.33,-7.28 -59.89,-1.92 2.23,18.89 2.73,39.06 -5.87,56.57 -6.01,12.93 -17.43,22.99 -30.87,27.65 25.71,6.07 51.18,16.87 70.5,35.32 7,7.09 13.77,15.71 14.57,26 -19.29,-16.87 -44.3,-29.5 -70.52,-27.12 10.94,9.94 22.71,19.55 29.89,32.79 10.02,16.3 11.66,37.52 3.55,54.92 -3.44,7.04 -10.14,13.17 -18.3,13.5 -14.31,0.81 -28.23,-3.28 -42.19,-5.74 -17.92,-3.56 -37.26,-4.15 -54.55,2.41 -0.21,0.53 -0.61,1.56 -0.79,2.1 13.73,3.28 27.25,7.86 39.83,14.36 5.05,2.97 10.7,5.58 14.14,10.52 -9.66,1.67 -19.19,4.68 -27.25,10.4 -12.23,-3.72 -25.29,-5.65 -37.92,-2.83 -13.79,2.91 -26.63,10.53 -35.3,21.69 -18.51,-6.5 -39.09,4.77 -46.47,22.25l1.99 0.59c-5.43,5.74 -6.65,13.86 -8.71,21.19 -2.78,9.82 -2.49,20.08 -2.58,30.19 -0.53,-4.07 -0.7,-8.18 -0.85,-12.27 -15.19,13.47 -19.85,34.46 -24.91,53.28 -2.78,4.86 -9.4,2.89 -13.89,2.41 -19.83,-3.73 -40.44,8.02 -48.86,26.04 -7.35,-7.25 -7.73,-18.47 -5.67,-27.97l0.55 -0.26c6.61,-2.78 10.94,-8.95 17.13,-12.45 8.97,-6.26 19.76,-9.04 30.57,-9.57 2.87,-18.68 12.12,-35.27 21.4,-51.38 -14.81,2.79 -27.79,11.1 -39.23,20.59 5.2,-14.94 14.42,-28.13 24.02,-40.54 32.93,-41.6 82.3,-69.54 134.88,-76.52 -10.94,-2.04 -22.06,-1.1 -32.93,0.76 1.27,-0.89 2.54,-1.77 3.81,-2.66 -7.46,-2.89 -15.25,-4.86 -23.18,-5.87 16.9,-37.48 51.54,-64.51 89.32,-79.02 15.41,-6.23 31.87,-8.9 47.95,-12.73 -14.01,-2.95 -28.47,-2.98 -42.65,-1.51 1.23,-0.74 2.47,-1.45 3.7,-2.19 -13.13,-4.7 -27.16,-5.8 -40.99,-5.14 0.9,-0.28 2.7,-0.85 3.62,-1.12 4.83,-36.71 22.69,-72.64 52.66,-95.1 6.29,-4.94 13.44,-8.6 19.89,-13.32 -9.34,-1.36 -18.79,-0.74 -28.2,-0.83 20.74,-13.66 45.29,-19.63 69.15,-25.32zm135.42 -53.7c52.69,8.58 102.54,39.33 130.77,85.14 -5.43,4.08 -11.07,7.9 -16.68,11.67 0.4,0.54 1.23,1.6 1.64,2.12 -1.55,0.39 -3.1,0.77 -4.64,1.16 -15.82,-32.78 -43.49,-59.61 -76.03,-75.71 -3.24,-1.69 -6.72,-3.3 -10.46,-2.56l-0.42 0.02c-2.34,-1.71 -4.66,-3.43 -7.04,-5.08 -7.38,29.33 -9,60.82 0.24,89.94 4.5,14.35 11.66,27.79 21.18,39.41l0.28 1.68c-3.39,9.46 -7.81,18.56 -11.57,27.9 -17.44,-12.05 -21.18,-35.05 -22.76,-54.68 -11.6,-8.75 -15.75,-23.77 -15.56,-37.73 0.48,-28.07 4.66,-55.97 11.05,-83.28zm336.79 64.77c29.36,-36.37 68.55,-65.73 113.17,-80.3 6.72,23.78 12.05,48.27 11.92,73.08 -0.08,15.41 -3.3,32.72 -16.01,42.91 -0.77,17.38 -1.38,36.94 -13.33,50.79 -4.64,-7.64 -9.47,-15.23 -15.34,-22.01 10.55,-27.55 18.88,-56.61 18.43,-86.37 -0.09,-9.21 -0.99,-18.53 -3.88,-27.31 -1.92,1.12 -3.3,3.19 -5.49,3.76 -3.02,0.75 -6.1,1.4 -8.84,2.87 -29.94,15.97 -55.03,40.77 -71.99,70.09 -6.87,-3.37 -13.96,-6.3 -21.4,-8.16 2.62,-7.36 8.27,-13.09 12.76,-19.35zm-183.73 2.63c18.17,-6.9 38.83,-7.86 57.16,-0.94 5.25,1.88 9.98,4.96 15.23,6.82 6.35,-0.81 12.06,-4.31 18.29,-5.84 17.71,-5.07 38.03,-6.61 54.68,2.74 -6.43,10.76 -12.75,21.66 -17,33.48 2.11,-0.31 4.27,-1.14 6.46,-0.99 9.39,2.98 19.3,3.85 28.71,6.81 17.98,4.94 34.86,13.21 50.77,22.75 3.96,1.62 2.77,6.13 2.31,9.43 -2.91,15.24 -9.34,29.74 -18.42,42.3 -17.24,24.82 -43.81,41.67 -72.01,51.47 -3.24,1.36 -7.8,2.05 -8.63,6.15 -3.71,11.62 -10.59,21.73 -17.89,31.37 1.99,7.29 3.8,14.69 4.02,22.28 0.59,8.95 -1.57,17.88 -0.11,26.79 -0.24,0.92 -0.72,2.79 -0.96,3.71 17.16,-5.64 32.04,-19.45 35.91,-37.5 6.06,-2.96 11.7,-6.98 15.23,-12.89 7.72,3.89 16.34,6.5 25.05,4.71 11.03,-1.84 21.54,-9.19 25.32,-20 2.49,-6.26 1.81,-13.11 2.23,-19.68 6.52,10.35 7.27,25.74 -1.97,34.77 -4.62,5.21 -11.29,7.6 -17.29,10.73 14.51,-0.64 29.68,-2.59 43.55,3.08 5.84,1.99 9.95,6.74 14.6,10.53 2.88,-11.54 -4.64,-21.84 -12.96,-28.86 8.67,-8.26 16.65,-17.44 22.17,-28.14 8.51,11.83 10.54,27.37 10.19,41.66 0.12,7.42 -2.51,14.51 -2.75,21.9 15.25,-17.92 26.69,-39.36 31.27,-62.54 3.54,-17.54 3.19,-35.79 -0.62,-53.23 5.89,-8.5 11.01,-17.45 15.98,-26.5l0.57 1.84c3.32,14.59 18.01,22.33 31.64,24.87 -8.8,19.08 -22.78,35.06 -37.75,49.54 11.88,10.55 28.64,12.1 43.77,10.24 -12.3,21.14 -30.68,38.34 -51.17,51.45 -14.59,8.53 -30.24,16.11 -47,18.86 -4.44,-3.24 -6.01,-9.67 -10.61,-13.11 -18.05,-16.47 -47.31,-13.89 -65.66,0.7 1.13,0.03 3.38,0.11 4.52,0.14 -5.77,2.27 -11.35,4.98 -17.22,6.91 -1.59,-3.48 -1.81,-9.24 -6.78,-9.39 -6.72,0.53 -12.37,4.82 -17.4,8.97 -9.17,8.17 -17.94,17.58 -22.12,29.37 9.02,-5.21 17.02,-16.81 28.69,-13.35 -8.8,7.84 -11.86,21.23 -23.15,26.26 -10.66,4.99 -21.67,9.19 -32.46,13.9 -0.69,5.25 -0.93,10.67 1.06,15.69 -7.45,2.1 -14.32,-2.39 -20.82,-5.35 -6.3,-3.28 -13.17,-5.14 -19.67,-7.87 -5.6,-2.23 -9.12,-7.53 -11.2,-12.93 -3.19,-8.19 -6.72,-16.35 -8.31,-25.04 9.41,-0.5 15.58,7.84 22.86,12.45 -3.46,-10.24 -10.46,-18.79 -17.94,-26.37 -6.13,-5.66 -13,-11.61 -21.58,-12.68 -4.75,-0.01 -6.43,4.94 -8.66,8.2 -3.26,-1.69 -6.46,-3.46 -9.7,-5.14l2.39 -0.57c-6.1,-6.32 -14.31,-10.11 -22.63,-12.48 -16.32,-4.39 -34.99,2.04 -45.16,15.56 -3.5,4.69 -6.06,10 -8.38,15.34 -40,-12.91 -75.56,-35.97 -110.5,-58.73 31.27,29.39 67.72,53.88 108.33,68.25 -0.39,4.09 -0.65,8.16 -0.87,12.25 -33.63,-9.3 -64.38,-26.3 -94.57,-43.37 28.15,23.29 60.56,41.49 95.07,53.44 1.42,4.2 2.89,8.36 4.42,12.5 -30.57,-8.01 -60.02,-19.72 -88.58,-33.16 29.26,23.31 64.73,37.55 100.57,47.25 12.21,7.59 25.69,14.97 40.48,14.7 9.24,3.15 21.43,3.9 28.16,-4.53 -11.94,-3.82 -25.12,-6.69 -33.76,-16.52 10.22,1.08 20.63,1.43 30.64,-1.31 -11.67,-5.84 -23.99,-11.45 -32.92,-21.29 9.37,1.73 18.85,3.39 28.43,2.45 -9.76,-8.36 -21.9,-15.41 -27.17,-27.72 2.12,-3.84 7.13,-4.75 11.13,-5.39 12.06,-1 25.8,2.49 32.98,12.98 9.03,13.78 3.7,32.49 13.89,45.75 -2.76,3.59 -5.58,7.14 -8.38,10.7 13.52,1.25 27.49,4.99 37.59,14.55 4.71,4.64 9.55,10.18 10.59,16.92 -2.88,5.45 -9.12,8.01 -14.7,9.8 -13.48,3.5 -29.1,2.76 -40.54,-5.93 -6.33,-4.51 -10.4,-11.31 -13.49,-18.29 -37.63,-0.16 -75.05,-8.88 -109.14,-24.71 -3.99,-1.9 -8.01,-3.72 -12.12,-5.27 3.74,3.87 8.03,7.11 12.56,10 25.51,17.22 55.07,28.32 85.58,32.25 5.36,0.09 6.27,6.37 8.97,9.85 4.5,8.3 12.65,13.26 19.84,18.91 10.72,23.34 9.79,50.2 20.31,73.61 5.03,11.42 14.97,20.55 26.92,24.27 15.46,4.92 32.16,4.37 48.03,2.03 -0.16,8.38 -4.75,15.41 -9.11,22.21 -16.89,1.45 -34.94,1.18 -49.98,-7.66 -19.87,-11.09 -30.17,-33.21 -35.42,-54.42 -5.41,-22.27 -8.29,-46.08 -21.23,-65.6 -6.59,-10.07 -18.77,-15.14 -30.59,-14.57 -8.05,0.59 -16.67,0 -24.11,3.48 12.86,1.79 25.77,6.27 35.07,15.69 -18.36,-2.06 -36.97,-3.99 -55.38,-1.41 -18.27,2.21 -36.17,8.62 -50.96,19.7 -0.05,-17.49 10.79,-33.22 24.42,-43.33 5.99,-4.83 13.08,-7.92 19.43,-12.16 -38.69,-17.33 -70.57,-48.82 -89.98,-86.37 -17.55,-34.14 -24.42,-73.06 -23.1,-111.21 4.77,3.77 8.18,8.85 12.36,13.2 12.58,13.44 26.04,26.46 42.16,35.58 2.52,1.51 5.32,2.4 8.16,3.19 -22.44,-22.97 -42.16,-49.6 -51.98,-80.52 -1.8,-6.43 -4.43,-12.89 -3.97,-19.69 8.82,8.22 20.2,15.51 32.76,14.39 6.59,-0.17 12.01,-4.37 16.89,-8.35 6.48,11.22 13.37,22.73 23.92,30.65 -0.59,26.96 2.04,55.41 16.52,78.88 3.35,4.64 6.22,10.14 11.45,12.91 -0.75,-14.65 -0.35,-29.51 3.67,-43.69 1.42,-4.64 2.45,-9.63 5.63,-13.44 5.95,12.01 15.31,21.71 25.27,30.42 -9.06,6.23 -14.01,18.16 -9.47,28.66 5.2,-6.37 12.05,-11.4 20.06,-13.52 9.36,-2.96 19.15,-0.88 28.71,-0.55 -4.09,-4.42 -9.32,-8.12 -11.49,-13.94 -2.62,-5.88 -1.4,-12.43 -0.13,-18.46 3.67,3.01 3.81,8.36 6.56,12.08 6.18,11.06 19.02,17.43 31.58,16.08 9.78,0.08 18.32,-5.17 25.41,-11.45 5.6,6.31 11.44,12.45 17.17,18.65 0.64,7.87 1.99,16.14 7.02,22.53 4.91,6.7 13.09,10.03 21.16,10.88 -10.78,-14.47 -9.16,-33.55 -5.53,-50.2 -10.83,-6.82 -17.57,-18.22 -22.14,-29.98 -29.22,-1.11 -60.33,-9.14 -80.82,-31.31 -8.55,-9.27 -12.75,-21.79 -14.06,-34.15 -1.45,-16.97 1.29,-33.99 5.22,-50.49 1.65,-9.91 12.78,-12.38 20.23,-16.76 14.2,-7.98 30.32,-10.76 46.03,-14.07 2.67,-0.19 5.34,0.42 8.01,0.68 -6.5,-10.92 -13.91,-21.25 -21.82,-31.18zm77.6 102.36l0 0c-3.02,22.1 -2.54,44.77 1.49,66.7 6.1,-11.88 17,-20.48 29.58,-24.69 -7,-16.1 -12.43,-33.28 -11.73,-51.05 0.11,-17.2 6.26,-33.65 15.16,-48.16 -21.55,10.44 -31.31,34.79 -34.5,57.2zm-950.64 437.02c54.01,0.22 108.04,0.01 162.06,0.11 8.49,0.05 17.31,3.38 22.56,10.25 6.37,8.29 6.57,19.86 2.74,29.29 -3.68,9.22 -7.33,18.49 -11.45,27.53 -12.29,9.59 -26.08,17.24 -38.73,26.41 4.88,6.57 12.69,11.64 14.07,20.27 2.43,9.12 -1.79,17.98 -5.34,26.15 -3.48,8.25 -6.76,16.6 -10.35,24.83 -9.49,20.68 -31.6,35.6 -54.62,34.64 -39.32,-0.28 -78.66,0.35 -117.96,-0.31 19.43,-47.02 38.78,-94.07 58.47,-141 6.26,-3.09 13.43,-4.57 19.15,-8.64 -11.8,-0.44 -23.61,-0.05 -35.41,-0.2 -1.93,-16.41 -3.81,-32.85 -5.19,-49.33zm9.04 8.39l0 0c1.19,10.89 2.37,21.77 3.5,32.67 23.57,0 47.16,0 70.75,-0.01 -18.25,8.37 -37.01,15.61 -55.49,23.48 -17.67,42.11 -35.06,84.38 -52.52,126.61 35.25,0.07 70.5,-0.04 105.75,0.05 21.3,0.91 41.4,-14.12 48.69,-33.75 4.05,-10.11 8.45,-20.1 12.43,-30.24 2.3,-6.01 2.28,-13.76 -2.63,-18.49 -5.14,-5.42 -10.02,-11.09 -15.33,-16.34 14.55,-10.74 30.37,-19.69 44.92,-30.42 3.7,-8.11 6.89,-16.47 10.31,-24.7 2.99,-7.35 3.1,-16.83 -2.72,-22.83 -4.11,-4.59 -10.46,-6.19 -16.41,-6.06 -50.42,0.05 -100.85,-0.02 -151.25,0.03zm182.56 -8.39c39.04,0.2 78.1,0.03 117.16,0.09 3.3,2.8 6.61,5.56 9.98,8.3 -5.8,-0.02 -11.58,-0.02 -17.38,0 1.07,10.91 2.26,21.79 3.54,32.67 23.73,-0.03 47.47,0.04 71.21,-0.03 -18.71,8.16 -37.72,15.61 -56.41,23.85 -17.2,42.15 -34.82,84.16 -52.19,126.26 17.03,0.03 34.05,0.02 51.09,0 14.32,-34.26 28.32,-68.66 42.76,-102.88 8.01,34.26 15.95,68.55 23.85,102.84 14.69,0.2 29.41,-0.17 44.1,0.22 25.57,-60.86 50.63,-121.93 75.92,-182.91 -17,-0.09 -34,0.04 -51,-0.09 -12.91,30.63 -25.36,61.44 -38.28,92.04 -7.32,-30.6 -14.26,-61.32 -21.44,-91.97 -4.29,-0.02 -8.58,-0.03 -12.86,-0.03l-0.35 0c-1.73,-2.71 -3.5,-5.4 -5.26,-8.07 8.34,-0.39 16.68,-0.13 25.01,-0.28 5.24,22.03 10.36,44.07 15.34,66.15 0.29,2.09 1.34,3.93 2.52,5.66 9.72,-23.89 19.85,-47.63 29.47,-71.57 23.03,-0.4 46.09,0 69.13,-0.22 -14.68,36.6 -30.13,72.89 -45.1,109.38 -12.62,29.98 -24.59,60.24 -37.57,90.05 -18.64,0 -37.27,-0.09 -55.91,0.04 -6.87,-27.2 -12.93,-54.61 -19.15,-81.95 -1.63,0.4 -2.64,1.45 -3.06,3.15 -10.72,26.24 -21.62,52.39 -32.49,78.56 -22.95,0.29 -45.91,0.31 -68.87,0 18.19,-45.2 37.31,-90.04 55.72,-135.14 1.2,-2.32 1.66,-5.6 4.4,-6.63 5.93,-2.78 12.14,-4.94 18.18,-7.48 -12.13,-1.75 -24.46,0.37 -36.59,-1.19 -0.46,-6.6 -1.11,-13.19 -1.84,-19.75 -2.77,2.1 -3.28,5.79 -4.7,8.75 -19.37,46.93 -38.86,93.81 -58.25,140.74 -3.13,6.98 -5.4,14.35 -9.17,21.01 -22.75,-0.29 -45.49,-0.07 -68.22,-0.11 17.9,-45.63 37.48,-90.64 55.88,-136.08 2.82,-9.43 15.01,-8.38 21.75,-13.75 -11.92,-0.63 -23.85,-0.1 -35.78,-0.32 -1.68,-16.44 -3.72,-32.85 -5.14,-49.31zm9.08 8.39l0 0c1.25,10.87 2.34,21.77 3.53,32.66 23.54,0.05 47.06,-0.02 70.59,0.01 -18.17,8.38 -36.87,15.69 -55.34,23.41 -17.59,42.19 -35.08,84.42 -52.5,126.69 17.14,-0.19 34.29,0.38 51.42,-0.3 24.75,-60.97 50.29,-121.64 75.39,-182.47 -31.03,-0.02 -62.06,-0.02 -93.09,0zm309.21 29.95c8.45,-22.25 31.3,-39.38 55.5,-38.29 74.33,0.09 148.68,0.02 223,0.04 -7.6,22.19 -18.06,43.35 -26.2,65.38 6.65,0.03 13.29,0.03 19.94,-0.04 9.06,-21.7 18.11,-43.41 26.96,-65.2 23.08,-0.31 46.15,-0.11 69.23,-0.09 -27.55,66.43 -54.84,132.97 -82.69,199.28 -22.87,-0.05 -45.74,0.23 -68.62,-0.14 10.92,-28.36 23.48,-56.08 34.42,-84.42 -6.52,-0.22 -13.04,-0.13 -19.55,-0.21 -12.2,27.94 -23.67,56.21 -35.12,84.46 -23.01,0.74 -46.06,0.19 -69.08,0.28 13.55,-34.68 28.41,-68.84 42.43,-103.34 5.37,-12.46 10.07,-25.26 15.85,-37.55 6.21,-3.57 13.37,-5.17 19.56,-8.85 -11.97,-0.69 -23.96,-0.1 -35.93,-0.34 -1.07,-9.79 -2.15,-19.57 -3.04,-29.37 -7.25,14.05 -11.91,29.3 -18.91,43.48 -6.3,-3.96 -12.28,-8.38 -18.47,-12.47 -2.65,-2.1 -6.17,-1.56 -9.3,-1.65 -18.47,0.18 -36.93,-0.08 -55.4,0.12 -13.92,33.56 -27.95,67.08 -41.64,100.72 6.78,0.06 13.57,0.24 20.35,-0.22 3.85,-10.37 8.62,-20.37 12.45,-30.72 0.46,-9.19 -2.08,-18.28 -2.41,-27.47 27.68,0.03 55.36,-0.17 83.04,0.11 -14.77,35.74 -29.76,71.4 -44.31,107.23 -37.31,0.89 -74.68,0.08 -112.03,0.41 -10.03,0.44 -21.01,-2.34 -27.38,-10.66 -7.04,-8.68 -6.43,-21.02 -2.19,-30.81 16.48,-39.89 33.05,-79.76 49.54,-119.67zm7.4 3.85l0 0c-16.41,39.79 -32.98,79.54 -49.38,119.35 -3.2,7.41 -3.53,17 2.29,23.23 4.81,5.65 12.72,6.51 19.67,6.42 35.45,-0.14 70.88,0.11 106.33,-0.13 12.45,-30.38 25.09,-60.72 37.65,-91.05 -20.46,-0.03 -40.93,-0.01 -61.39,0 0.52,6.49 1.83,12.91 1.97,19.43 -4.99,13.17 -10.55,26.17 -16.13,39.12 -9.37,-0.33 -18.75,0.24 -28.1,-0.26 -5.99,-0.55 -7.22,-7.81 -4.75,-12.28 14.45,-34.99 28.95,-69.98 43.44,-104.96 23.48,-0.01 46.96,0 70.44,0 4.9,3.37 9.87,6.63 14.76,10.08 5.87,-14.24 11.8,-28.44 17.67,-42.67 -34.88,-0.24 -69.76,0.02 -104.64,-0.11 -21.73,-1.62 -42.59,13.7 -49.83,33.83zm166.15 -33.61l0 0c1.4,10.81 2.41,21.67 3.61,32.52 23.52,-0.07 47.03,-0.02 70.55,-0.04 -18.17,8.55 -37.07,15.53 -55.47,23.61 -17.46,42.18 -34.95,84.31 -52.37,126.49 17.09,-0.08 34.2,0.16 51.29,-0.15 11.21,-28.18 23.48,-55.95 34.45,-84.22 12.88,-0.79 25.77,-0.17 38.66,-0.33 -11.62,28.27 -23.39,56.46 -35.05,84.7 17.06,0 34.11,0 51.18,0 25.1,-60.98 50.44,-121.85 75.65,-182.79 -17.12,0.12 -34.25,-0.22 -51.36,0.19 -8.62,21.84 -18.01,43.35 -26.76,65.14 -12.7,0.16 -25.43,-0.06 -38.14,0.13 8.57,-21.99 18.07,-43.6 26.85,-65.47 -31.03,0.18 -62.06,-0.26 -93.09,0.22zm204.49 -8.51c24.41,0.02 48.81,0.02 73.21,0.02 7.7,0.02 15.73,-0.68 23,2.41 14.09,5.23 23.72,20.57 21.6,35.58 -6.46,50.42 -13.24,100.83 -19.81,151.23 -0.13,1.94 -0.15,3.89 0,5.84 20.99,-45.12 41.95,-90.27 63.16,-135.28 5.18,-5.58 14,-5.88 20.21,-10.28 -11.99,-0.57 -24.02,-0.02 -36.01,-0.31 -1.62,-16.41 -3.44,-32.78 -5.26,-49.14 37.71,-0.09 75.41,-0.07 113.13,-0.02 2.17,23.28 3.35,46.67 5.96,69.89 21.51,-22.89 42.55,-46.26 63.47,-69.7 77.16,-0.52 154.36,-0.08 231.54,-0.22 -6.11,16.68 -13.22,33.04 -20.24,49.35 -15.43,-0.16 -30.86,-0.11 -46.28,-0.05 -21.01,49.92 -41.29,100.13 -62.37,150.02 -22.93,-0.02 -45.86,0.24 -68.77,-0.13 18.47,-45.62 37.68,-90.94 56.3,-136.5 0.9,-1.94 1.51,-4.44 3.79,-5.23 5.95,-2.86 12.31,-4.83 18.2,-7.85 -16.13,-0.83 -32.3,-0.07 -48.44,-0.39 -1.06,-9.19 -2.04,-18.39 -2.91,-27.6 -2.41,0.62 -2.63,3.39 -3.48,5.32 -20.46,57.39 -41.63,114.49 -61.95,171.93 -22.94,1.07 -45.96,0.26 -68.95,0.41 6.72,-20.96 15.53,-41.25 21.81,-62.34 -19.91,20.09 -37.9,42.08 -57.55,62.43 -3.36,-0.02 -6.71,0.04 -10.02,0.15 -2.75,-22.41 -3.67,-45.03 -5.67,-67.51 -3.23,4.08 -5.03,9 -7.22,13.66 -8.35,17.84 -16.65,35.71 -24.99,53.55 -43.19,0.28 -86.4,0.11 -129.58,0.08 1.42,-14.13 3.88,-28.12 5.19,-42.25 -8.97,-0.18 -17.95,0.09 -26.94,-0.2 -6.78,13.74 -11.9,28.25 -17.99,42.3 -22.97,0.35 -45.93,0.29 -68.9,0.04 18.09,-45.27 37.31,-90.08 55.69,-135.23 1.2,-2.36 1.7,-5.67 4.55,-6.63 5.88,-2.75 12.03,-4.85 18.01,-7.35 -8.58,-1.44 -17.31,-0.39 -25.97,-0.79 6.86,-16.39 13.5,-32.88 20.48,-49.21zm5.55 8.25l0 0c-4.62,10.87 -9.06,21.8 -13.63,32.69 18.67,0.15 37.35,-0.06 56.02,0.09 -18.65,8.29 -38.05,15.18 -56.31,24.11 -17.65,41.88 -34.78,83.99 -52.31,125.93 17.04,0.03 34.07,0 51.09,0.02 5.82,-13.98 11.8,-27.91 17.27,-42.01 14.37,-0.79 28.79,-0.13 43.17,-0.35 -2.1,14.09 -3.66,28.25 -5.69,42.36 14.75,-0.06 29.5,0.11 44.27,-0.1 6.26,-48.43 12.69,-96.85 19.05,-145.26 0.86,-6.76 2.41,-13.87 -0.12,-20.45 -3.4,-10.01 -13.62,-16.79 -24.07,-16.92 -26.24,-0.17 -52.5,0.06 -78.74,-0.11zm143.85 0.04l0 0c1.19,10.88 2.35,21.76 3.55,32.65 23.39,0.11 46.78,0.04 70.18,0.04 -17.93,8.82 -36.9,15.5 -55.15,23.7 -19.65,42.11 -39.39,84.2 -58.93,126.37 16.99,0.09 34.01,0 51.03,0.05 14.51,-30.79 28.58,-61.8 43.35,-92.48 2.21,30.22 4.82,60.4 6.92,90.62 4,-1.63 6.14,-5.7 9.1,-8.6 24.95,-27.2 49.34,-54.99 74.64,-81.86 -11.14,30.78 -22.23,61.57 -33.4,92.31 17.12,-0.13 34.27,0.27 51.39,-0.21 21.68,-60.95 44.02,-121.69 65.88,-182.59 -16.22,0.07 -32.43,-0.02 -48.64,0.01 -2.8,-0.6 -4.23,2.07 -5.87,3.69 -23.69,26.17 -47.42,52.28 -71.24,78.34 -2.48,-27.35 -4.03,-54.79 -6.94,-82.08 -31.95,0.13 -63.92,0.04 -95.87,0.04zm244.53 32.74l0 0c27.66,-0.09 55.32,-0.02 82.98,-0.04 -18.4,8.27 -37.2,15.68 -55.78,23.56 -17.39,42.19 -34.96,84.33 -52.36,126.52 17.02,0.05 34.05,-0.02 51.07,0.03 20.7,-50.03 41.55,-100 62.1,-150.07 15.56,-0.09 31.12,-0.02 46.68,-0.04 4.55,-10.86 9.08,-21.75 13.5,-32.67 -50.44,-0.14 -100.88,0.22 -151.32,-0.18 0.16,11.01 2,21.93 3.13,32.89zm201.23 -40.59c27.96,-1.01 55.97,-0.09 83.94,-0.46 10.46,-0.63 21.4,4.14 26.89,13.28 5.34,8.58 4.31,19.57 0.48,28.53 -16.71,40.31 -33.44,80.62 -50.11,120.95 -8.79,21.4 -31.01,37.15 -54.37,36.67 -24.6,-0.07 -49.2,-0.06 -73.79,-0.02 -6.94,0.04 -14.16,-1.07 -20.02,-5.03 -7.18,-4.62 -11.42,-13.15 -11.32,-21.62 -0.35,-8.3 3.42,-15.87 6.51,-23.33 15.46,-37.26 30.89,-74.51 46.29,-111.79 7.47,-19.02 25.32,-33.81 45.5,-37.18zm-3.66 9.3l0 0c-10.24,3.06 -19.47,9.32 -26.25,17.55 -7.25,8.56 -10,19.71 -14.58,29.73 -14.39,34.67 -28.73,69.37 -43.13,104.05 -2.91,6.92 -3.76,15.58 0.83,22 3.9,5.79 11.21,8.02 17.9,8 23.35,0.07 46.72,-0.04 70.07,0.03 6.68,0.08 13.57,0.15 20.02,-2 14.38,-4.88 26.9,-15.86 32.54,-30.08 16.57,-40.03 33.17,-80.07 49.74,-120.09 2.8,-6.52 4.11,-14.33 0.63,-20.85 -3.32,-6.63 -10.9,-9.96 -18.07,-9.78 -26.44,0 -52.89,0.02 -79.34,-0.01 -3.53,0 -7.03,0.44 -10.36,1.45zm124.84 -9.69c36.41,0.13 72.84,-0.46 109.23,0.3 5.3,23.94 10.97,47.81 16.53,71.69 3.72,-5.26 5.49,-11.56 8.07,-17.42 7.62,-18.19 14.95,-36.5 22.76,-54.62 22.91,0.33 45.9,-0.61 68.79,0.48 -27.35,66.19 -54.9,132.3 -82.14,198.54 -18.93,0.72 -37.92,0.32 -56.85,0.21 -6.22,-27.68 -12.8,-55.27 -19.1,-82.93 -6.02,10.14 -9.32,21.71 -14.23,32.43 -7.44,16.85 -13.37,34.44 -21.75,50.85 -22.66,-0.46 -45.31,-0.08 -67.96,-0.21 9.87,-26.09 21.25,-51.62 31.7,-77.49 8.98,-21.11 17.16,-42.58 26.61,-63.46 6,-3.65 13.18,-4.87 19,-8.84 -11.78,-0.67 -23.61,-0.1 -35.39,-0.32 -1.83,-16.41 -3.65,-32.8 -5.27,-49.21zm9.19 8.37l0 0c1.22,10.86 2.28,21.74 3.57,32.61 23.52,-0.11 47.06,0.02 70.57,-0.07 -18.19,8.47 -36.99,15.61 -55.43,23.53 -17.64,42.12 -34.94,84.39 -52.52,126.54 17.09,0.04 34.2,0.2 51.29,-0.09 13.88,-34.27 28.41,-68.29 42.26,-102.58 8.8,34.05 15.97,68.53 24.24,102.73 14.77,-0.02 29.54,0.03 44.31,-0.04 25.19,-60.9 50.38,-121.82 75.71,-182.69 -17.08,-0.13 -34.13,-0.02 -51.2,-0.06 -12.82,30.58 -25.03,61.4 -38.29,91.77 -7.14,-30.55 -14.18,-61.16 -21.25,-91.73 -31.09,-0.02 -62.17,-0.15 -93.26,0.08zm-1524.86 32.52c19.06,0.07 38.14,0.09 57.2,-0.02 -25.79,18.03 -52.4,34.88 -78.53,52.41 6.56,7.88 14.05,14.98 20.55,22.89 5.38,9.54 -0.49,20.02 -4.2,28.99 -2.5,7.31 -9.61,13.21 -17.51,13.17 -8.73,0.11 -17.48,-0.04 -26.21,0.02 16.28,-39.14 32.38,-78.35 48.7,-117.46zm5.47 8.4l0 0c-2.82,7.07 -6.14,13.96 -8.44,21.23 11.29,-6.34 21.9,-13.85 32.62,-21.11 -8.05,-0.34 -16.12,-0.2 -24.18,-0.12zm-41.55 100.07l0 0c5.41,1.22 11.2,1.16 16.61,0.07 7.42,-3.42 8.47,-12.67 11.6,-19.37 4.31,-9.32 -5.87,-15.34 -11.08,-21.34 -6.06,13.38 -11.22,27.18 -17.13,40.64zm857.05 -32.85c9.84,-25.38 20.72,-50.37 31.03,-75.57 4.07,0 8.14,-0.01 12.25,-0.05 -3.46,25.23 -6.28,50.57 -10.22,75.73 -11.01,-0.32 -22.04,-0.15 -33.06,-0.11zm12.38 -8.4l0 0c4.55,0.07 9.11,0.07 13.68,0.02 1.7,-15.07 4.62,-30.02 5.42,-45.18 -7.3,14.6 -12.89,30.06 -19.1,45.16zm579.54 -58.46l0 0c-13.22,33.67 -27.86,66.78 -41.12,100.43 6.64,0.02 13.29,-0.02 19.94,0 14.01,-33.57 27.96,-67.17 41.75,-100.83 -6.87,0.04 -13.74,-0.37 -20.57,0.4z"/>
   <path class="fil4" d="M1137.94 1247.99c19.7,0.11 39.43,-0.27 59.11,0.17 3.06,0 3.98,3.19 3.69,5.69 0.11,23.33 -0.89,46.65 -0.41,70 -10.31,0.04 -20.62,0.35 -30.92,-0.09 -6.13,-2.74 -2.15,-11.2 -2.8,-16.41 -10.13,0.02 -20.26,0.02 -30.38,0.02 -4.28,5.49 -8.11,11.32 -12.56,16.68 -8.94,-0.24 -17.89,0 -26.82,-0.2 0.13,-4.47 4.29,-7.26 6.69,-10.62 13.92,-17.06 28.63,-33.54 42,-51.04 -4.32,-0.01 -8.63,0.08 -12.96,0.17 0.72,-5.14 3.19,-9.74 5.36,-14.37zm228.89 19.38c3.98,-10.63 13.83,-19.49 25.66,-19.32 18.86,-0.07 37.75,-0.24 56.63,0.11 -1.86,4.49 -3.72,9.01 -5.56,13.52 -12.71,0.46 -25.47,-0.5 -38.15,0.7 -3.53,0.16 -7.9,2.1 -8.08,6.13 -1.23,3.09 2.08,4.53 4.35,5.34 8.01,3.19 16.79,4.51 24.23,9.06 4.66,2.76 4.26,8.97 2.67,13.43 -3.13,9.06 -8.01,18.39 -16.66,23.27 -6.49,3.82 -14.24,4.15 -21.55,4.35 -15.65,-0.02 -31.31,-0.02 -46.96,-0.02 2.13,-5.43 4.38,-10.81 6.74,-16.13 12.83,-0.17 25.74,0.59 38.56,-0.76 4.88,-0.12 10.26,-5.69 6.69,-10.35 -9.32,-5.39 -21.38,-5.3 -29.58,-12.74 -4.95,-4.71 -0.81,-11.43 1.01,-16.59zm-122.96 -5.18c1.84,-4.86 3.74,-9.7 6.09,-14.32 27.48,0.27 54.96,0 82.43,0.14 -2.02,4.53 -2.74,10.24 -6.51,13.61 -7.59,1.44 -15.44,0.26 -23.12,0.61 -8.49,20.46 -17.14,40.87 -25.34,61.45 -9.08,0.41 -18.17,0.39 -27.24,0.13 -2.65,0.13 -4.97,-1.05 -6.61,-3.02 7.44,-17.36 14.42,-34.93 21.81,-52.32 0.92,-2.02 1.4,-4.18 1.77,-6.33 -7.77,0.16 -15.53,0.15 -23.28,0.05zm-234.38 -2.54c6.44,-8.29 17.21,-11.55 27.38,-11.64 15.63,-0.09 31.27,-0.05 46.91,0 -1.88,4.83 -3.87,9.6 -5.71,14.44 -10.06,0.74 -20.13,-0.22 -30.17,0.44 -4.95,0.17 -8.21,4.33 -10.24,8.38 -4.51,8.64 -8.56,17.61 -11.25,26.98 -1.47,3.65 0.53,8.58 4.79,8.92 9.19,1.3 18.52,0.42 27.79,0.64 -2.07,5.27 -4.28,10.48 -6.19,15.82 -12.06,0.61 -24.16,0.29 -36.24,0.2 -7.98,-0.61 -17.2,-0.03 -23.59,-5.71 -5.88,-5.48 -3.36,-14.32 -1.31,-20.99 4.51,-13.06 9.28,-26.43 17.83,-37.48zm-399.99 -11.64c27.15,-0.03 54.29,-0.11 81.44,0.04 -1.75,4.62 -3.65,9.19 -5.69,13.7 -11.7,0.06 -23.37,0.06 -35.07,-0.02 -2.08,4.55 -3.94,9.19 -5.67,13.91 11.68,0 23.37,-0.17 35.05,0.07 -1.97,4.88 -4,9.74 -6.02,14.62 -11.61,-0.07 -23.21,0.17 -34.81,-0.16 -2.95,5.8 -6,11.75 -7.09,18.23 11.45,-0.22 22.91,-0.09 34.36,-0.11 -2.02,5.28 -4.19,10.5 -6.48,15.67 -19.72,-0.05 -39.43,0 -59.13,0 -3.26,0.09 -6.45,-0.51 -9.3,-2.1 7.11,-20.24 16.61,-39.58 23.94,-59.76 -3.69,0.08 -7.33,0.19 -10.98,0.3 0.98,-5.09 3.41,-9.69 5.45,-14.39zm-127.75 -593.77c6.59,-5.77 15.25,-8.99 24,-9.08 4.12,5.14 9.09,9.78 11.84,15.87 3.64,8.35 5.82,17.3 6.5,26.38 -8.27,1.04 -16.69,2.06 -24.31,5.63 -10.9,4.57 -19.95,12.34 -28.75,20.02 -0.28,-2.47 -0.48,-4.96 -0.57,-7.44 0.09,-10.11 -0.2,-20.37 2.58,-30.19 2.06,-7.33 3.28,-15.45 8.71,-21.19zm57.33 -13.48c6.56,-2.53 13.55,-5.79 20.74,-4.11 17.47,3 30.51,17.13 38.91,31.91 -12.62,8.16 -28.47,11.66 -38.03,24.19 -5.06,-6.38 -10.87,-12.27 -18.23,-15.97 -5.86,-6.24 -8.51,-14.62 -12.27,-22.16 1.05,-5.54 4.83,-10.14 8.88,-13.86zm64.16 -5.84c9.47,-0.63 18.92,-2.01 28.44,-1.59 15.32,0.58 30.14,5.31 44.21,11.16 6.67,3.15 13.91,6.82 17.68,13.49 1.02,5.04 -4.18,8.34 -8.6,8.71 -12.7,2.48 -28.16,2.35 -36.24,14.36 -10.48,-15.65 -24.83,-28.49 -41.29,-37.59 -2.19,-1.3 -4.57,-2.28 -6.91,-3.27 -0.6,-0.72 -1.84,-2.16 -2.45,-2.88 1.68,-0.86 3.41,-1.67 5.16,-2.39zm491.84 1.38c11.29,-5.03 14.35,-18.42 23.15,-26.26 1.44,9.28 -5.23,16.52 -8.06,24.77 -2.73,8.49 -11.16,12.85 -18.73,16.28 -9.67,4.12 -18.44,10 -27.76,14.8 -1.99,-5.02 -1.75,-10.44 -1.06,-15.69 10.79,-4.71 21.8,-8.91 32.46,-13.9zm-191.82 -42.63c10.17,-13.52 28.84,-19.95 45.16,-15.56 8.32,2.37 16.53,6.16 22.63,12.48l-2.39 0.57c-11.27,-4.75 -24.61,-4.73 -35.51,1.07 -13.19,6.69 -22.1,20.74 -22.85,35.47 -0.58,12.78 3.33,25.95 11.73,35.75 7.1,8.65 17.05,14.32 27.2,18.69 -14.79,0.27 -28.27,-7.11 -40.48,-14.7 -4.81,-3.92 -9.03,-8.62 -11.99,-14.09 -1.53,-4.14 -3,-8.3 -4.42,-12.5 -0.5,-3.33 -0.63,-6.71 -0.5,-10.07 0.22,-4.09 0.48,-8.16 0.87,-12.25 0.49,-3.22 1.18,-6.41 2.17,-9.52 2.32,-5.34 4.88,-10.65 8.38,-15.34zm-370.59 -15.93c10.87,-1.86 21.99,-2.8 32.93,-0.76 -52.58,6.98 -101.95,34.92 -134.88,76.52 -9.6,12.41 -18.82,25.6 -24.02,40.54 11.44,-9.49 24.42,-17.8 39.23,-20.59 -9.28,16.11 -18.53,32.7 -21.4,51.38 -10.81,0.53 -21.6,3.31 -30.57,9.57 -6.19,3.5 -10.52,9.67 -17.13,12.45 5.38,-19.17 17.96,-34.99 28.6,-51.4 -19.09,12.1 -37.75,27.96 -61.21,29.89 13.31,-8.08 21.86,-21.47 30.68,-33.88 15.75,-23.1 32.1,-46.23 53.33,-64.66 29.14,-25.97 66.12,-42.49 104.44,-49.06zm75.25 -101.79c14.18,-1.47 28.64,-1.44 42.65,1.51 -16.08,3.83 -32.54,6.5 -47.95,12.73 -37.78,14.51 -72.42,41.54 -89.32,79.02 -16.49,-1.31 -33.02,1.29 -48.81,6.02 8.9,-27.77 29.51,-50.42 53.08,-66.85 26.76,-18.18 58.31,-28.88 90.35,-32.43zm678.78 -76.37c3.17,-5.14 6.34,-10.32 9.69,-15.34 32.8,10.14 64.39,24.66 92.95,43.77 11.38,8.12 22.98,16.41 32.1,27.13 -11,-1.23 -22.03,-2.25 -33.08,-1.81 41.99,40.7 77.85,88.72 100.06,143.08 1.8,3.57 2.11,8.4 5.93,10.53 26.42,17.04 49.61,39.47 66.46,66.1 19.98,31.44 29.52,70.33 22.87,107.2 -3.96,6.85 -7.86,14.24 -14.58,18.82 -11.73,8.07 -27.22,9.86 -40.76,5.91 -15.91,-4.84 -26.35,-19.65 -31.97,-34.54 -9.19,-22.51 -9.92,-47.1 -12.59,-70.91 -7.54,13.58 -14.18,27.65 -22.49,40.78 -6.8,-30.19 -6.63,-61.75 -0.35,-91.99 1.12,-4.11 -0.11,-8.23 -1.84,-11.96 -7.9,-17.56 -17.68,-34.3 -28.97,-49.92 -4.09,-5.89 -9.06,-11.18 -12.62,-17.46 5.58,-1.25 11.22,-2.17 16.89,-2.87 0.43,-4.81 -1.97,-9.08 -4.03,-13.23 -12.16,-25.13 -28.31,-48.32 -47.39,-68.67 -7.21,-8.38 -15.54,-15.76 -24.45,-22.26 -0.26,-0.45 -0.76,-1.33 -1.02,-1.77 2.38,-15.4 2.66,-31.18 -0.92,-46.43 -5.58,7.72 -11.73,16.35 -21.64,18.49 -11.41,2.3 -21.95,-4.55 -30.36,-11.44 -7.08,-6.04 -13.34,-13.07 -17.89,-21.21zm-690.68 -45.23c28.57,-13.32 59.95,-22.97 91.73,-21.42 -23.86,5.69 -48.41,11.66 -69.15,25.32 9.41,0.09 18.86,-0.53 28.2,0.83 -6.45,4.72 -13.6,8.38 -19.89,13.32 -29.97,22.46 -47.83,58.39 -52.66,95.1 -0.92,0.27 -2.72,0.84 -3.62,1.12 -15.11,1.29 -30,4.27 -44.52,8.62 5.38,-40.7 28.46,-79.47 64,-100.76 4.03,-2.85 9.3,-4.07 12.56,-7.95 -8.6,-2.93 -17.79,-3.7 -26.78,-2.67 5.95,-5.01 13.26,-8 20.13,-11.51zm450.22 -21.79c27.72,-14.36 60.63,-11.97 89.99,-4.42 -5.09,6.96 -9.91,14.09 -14.64,21.27 -16.65,-9.35 -36.97,-7.81 -54.68,-2.74 -6.23,1.53 -11.94,5.03 -18.29,5.84 -5.25,-1.86 -9.98,-4.94 -15.23,-6.82 -18.33,-6.92 -38.99,-5.96 -57.16,0.94 -3.87,-5.05 -8.57,-9.43 -11.88,-14.86 26.5,-7.48 55.94,-10.24 81.89,0.79zm-198.47 -31.51c3.74,-0.74 7.22,0.87 10.46,2.56 32.54,16.1 60.21,42.93 76.03,75.71 1.54,-0.39 3.09,-0.77 4.64,-1.16 16.68,-3.7 34.34,-4.42 51.14,-1.03 -15.71,3.31 -31.83,6.09 -46.03,14.07 -7.45,4.38 -18.58,6.85 -20.23,16.76 -3.93,16.5 -6.67,33.52 -5.22,50.49 1.31,12.36 5.51,24.88 14.06,34.15 -7,5.1 -13.5,10.81 -18.84,17.64 -10.41,-14.35 -14.81,-32.5 -13.23,-50.07 1.2,-17.33 6.89,-33.96 14.16,-49.6 -18.52,12.56 -30.82,31.83 -43.27,49.95 4.93,-28.12 21.06,-53.98 43.9,-71.03 -0.59,-1.68 -1.18,-3.34 -1.8,-4.99 -1.99,-5.18 -4.11,-10.34 -6.8,-15.18 -14.66,-26.59 -36.08,-48.64 -58.97,-68.27zm392.82 0.37c2.74,-1.47 5.82,-2.12 8.84,-2.87 -18.19,15.91 -34.4,34.07 -47.77,54.21 -6.06,9.71 -12.32,19.47 -16.34,30.26 1.86,0.87 3.74,1.75 5.68,2.54 18.36,6.95 33.27,21.72 41.23,39.56 6.1,12.78 8.49,26.87 10.28,40.81 -10.52,-13.3 -18.81,-28.8 -32.55,-39.26 5.57,22.26 5.31,46.76 -5.08,67.6 -0.28,0.04 -0.85,0.15 -1.12,0.19 -5.12,-5.16 -9.95,-10.65 -15.84,-14.97 -24.4,20.18 -51.47,38.15 -82.03,47.47 -3.24,9.97 -8.67,19.8 -17.8,25.47 3.33,16.26 4.23,36.08 -8.29,48.82 -1.46,-8.91 0.7,-17.84 0.11,-26.79 -0.22,-7.59 -2.03,-14.99 -4.02,-22.28 7.3,-9.64 14.18,-19.75 17.89,-31.37 0.83,-4.1 5.39,-4.79 8.63,-6.15 28.2,-9.8 54.77,-26.65 72.01,-51.47 9.08,-12.56 15.51,-27.06 18.42,-42.3 0.46,-3.3 1.65,-7.81 -2.31,-9.43 -15.91,-9.54 -32.79,-17.81 -50.77,-22.75 -9.41,-2.96 -19.32,-3.83 -28.71,-6.81 23.33,-5.38 48.25,-6.15 71.44,0.5 -3.12,-5.22 -8.95,-7.76 -13.89,-10.89 16.96,-29.32 42.05,-54.12 71.99,-70.09zm44.73 143.42c9.19,7.61 21.26,11.92 33.23,10.45 8.6,-0.74 16.64,-4.13 24.27,-8 -5.14,21.5 -15.66,41.9 -30.94,57.92 -3.7,4.02 -8.44,6.98 -11.86,11.27 13.2,0.39 26.5,-2.78 38.08,-9.17 4.65,-2.41 8.42,-6.2 13.08,-8.62 0.98,39.54 -6.28,79.86 -24.48,115.2 -15.21,29.37 -39.41,54.25 -69.17,68.89 -6.11,3.32 -12.7,5.55 -18.87,8.69 17.64,6.87 33.9,19.45 41.95,36.95 -5.55,-1.9 -8.91,-7.09 -13.72,-10.15 -17.48,-12.21 -39.67,-16.46 -60.66,-15.47 -23.98,3.89 -46.52,17.96 -58.84,39.13 -9.67,15.66 -11.42,34.31 -16.49,51.64 -4.77,17.56 -11.62,35.84 -25.96,47.87 -11.5,9.92 -26.63,14.14 -41.42,16.02 4.36,-6.8 8.95,-13.83 9.11,-22.21 15.9,-2.52 30.87,-12.14 37.66,-27.05 11.2,-24.44 12.77,-52.66 27.54,-75.6 1.97,-3.11 5.5,-4.57 8.45,-6.58 9.74,-5.98 17.72,-14.51 23.74,-24.18 28.62,-7.25 57.31,-16.04 82.84,-31.25 3.94,-2.28 7.66,-4.95 11.12,-7.94 -33.78,13.3 -69.34,21.85 -105.42,25.75 -10.94,15.89 -28.39,30.24 -48.82,28.51 15.91,-9.43 32.93,-20.17 39.73,-38.36 15.93,1.21 32.15,-4.76 43.42,-16.12 13.37,-13.17 18.64,-33.7 13.85,-51.77 -2.48,-9.57 -9.28,-17.9 -18.32,-21.97 -11.02,-5.45 -23.89,-4.3 -35.36,-1.16 -1.14,-0.03 -3.39,-0.11 -4.52,-0.14 18.35,-14.59 47.61,-17.17 65.66,-0.7 4.6,3.44 6.17,9.87 10.61,13.11 16.76,-2.75 32.41,-10.33 47,-18.86 20.49,-13.11 38.87,-30.31 51.17,-51.45 -15.13,1.86 -31.89,0.31 -43.77,-10.24 14.97,-14.48 28.95,-30.46 37.75,-49.54 -13.63,-2.54 -28.32,-10.28 -31.64,-24.87zm-59.39 166.97l0 0c0.06,3.38 0.07,6.77 0.09,10.18 39.14,-10.17 76.95,-32.03 99.76,-66.15 -28.19,26.15 -62.02,47.44 -99.85,55.97zm-0.9 20.01l0 0c-1.18,4.31 -2.62,8.55 -4.16,12.75 36.02,-8.91 72.37,-24.26 97.79,-52.12 -28.4,18.68 -59.67,34.42 -93.63,39.37zm-9.82 21.96l0 0c-4.71,5.6 -10.22,10.42 -16.33,14.4 36.83,-5.53 73.4,-18.53 102.72,-41.97 -26.42,15.19 -56.37,23.29 -86.39,27.57zm-743.9 594.25c23.98,-0.13 47.95,-0.04 71.93,-0.05 5.45,0.36 11.99,0.33 15.97,4.71 3.3,4.77 0.88,10.87 -1.01,15.73 -2.56,6.61 -9.18,10.09 -15.46,12.43 5,1.1 11.22,3.81 10.85,9.98 -0.33,7.96 -4.66,15.17 -8.84,21.75 -4.57,7.31 -13.11,11.92 -21.77,11.38 -20.9,-0.11 -41.8,0.11 -62.69,-0.09 -2.54,-0.15 -8.14,-0.79 -6.33,-4.62 7.33,-19.16 16.08,-37.78 23.11,-57.04 -3.87,0 -7.71,0 -11.58,-0.02 1.86,-4.75 3.81,-9.46 5.82,-14.16zm40.81 14.35l0 0c-1.79,4.38 -3.59,8.76 -5.38,13.15 6.37,-0.32 13.39,1.43 19.28,-1.73 2.78,-2.32 5.47,-6.67 3.69,-10.3 -5.49,-2.47 -11.79,-0.92 -17.59,-1.12zm-19.38 47.24l0 0c6.45,-0.28 13.52,1.32 19.47,-1.9 3.44,-3.1 4.49,-8.01 6.21,-12.16 1.25,-2.3 -0.19,-4.9 -2.71,-5.32 -4.94,-0.72 -9.93,-0.35 -14.88,-0.33 -2.8,6.52 -5.56,13.06 -8.09,19.71zm251.59 -61.44c20.13,-0.24 40.33,-0.52 60.44,0.11 0.64,0.55 1.9,1.64 2.54,2.17 0.57,24.48 -0.7,48.97 -0.24,73.46 -10.51,-0.25 -21.1,0.61 -31.56,-0.42 -4.92,-3.39 -1.61,-11.03 -2.12,-16.13 -10.22,0.07 -20.46,-0.17 -30.68,0.15 -3.89,5.52 -7.94,10.95 -11.94,16.42 -9.19,-0.09 -18.38,0.32 -27.55,-0.33 0.56,-1.78 1.38,-3.41 2.47,-4.88 15.49,-18.84 31.51,-37.27 46.67,-56.39 -4.55,-0.13 -9.1,-0.11 -13.63,-0.04 1.8,-4.73 3.7,-9.42 5.6,-14.12zm9.69 44.69l0 0c6.57,0.35 13.14,0.28 19.74,0.13 0.55,-9.39 0.97,-18.8 1.14,-28.19 -7.39,9.02 -14.27,18.47 -20.88,28.06zm113.73 -44.56c25.03,-0.76 50.1,-0.1 75.14,-0.35 6.21,0.2 14.44,0.14 17.66,6.63 3.3,7.71 -1.41,16.04 -5.47,22.56 -4.86,7.84 -13.61,11.93 -22.48,13.28 4.9,11.4 10.9,22.26 16.17,33.49 -10.02,0 -20.02,0.08 -30.04,0 -2.32,-0.07 -5.25,0.02 -6.43,-2.43 -5.37,-10.36 -6.65,-22.83 -13.59,-32.28 -1.78,1.9 -3.2,4.09 -4.09,6.56 -3.7,9.3 -7.86,18.43 -11.32,27.84 -9.03,0.57 -18.09,0.39 -27.13,0.26 -2.21,-0.28 -5.89,-0.37 -6.19,-3.28 5.82,-14.86 12.23,-29.5 18.18,-44.31 1.73,-4.68 4.64,-9.06 4.77,-14.16 -3.54,0.07 -7.07,0.13 -10.57,0.2 1.65,-4.73 3.57,-9.35 5.39,-14.01zm40.87 13.5l0 0c-2.17,5.34 -4.38,10.68 -6.58,16.04 5.12,0 10.28,0.38 15.4,-0.24 6.61,-0.89 11.33,-8.1 9.41,-14.53 -6,-1.24 -12.14,-1.44 -18.23,-1.27zm238.42 31.14l0 0c6.7,0.13 13.44,0.5 20.14,-0.22 0.15,-9.19 0.91,-18.35 0.81,-27.52 -7.69,8.66 -14.1,18.4 -20.95,27.74z"/>
   <path class="fil5" d="M1055.71 783.11c5.49,-9.96 2.3,-24.07 12.63,-31.49 4.05,3.17 8.01,6.49 12.36,9.28 2.54,-1.71 5.14,-3.35 7.79,-4.89 2.8,13.31 -4.79,26.13 -14.58,34.53 -2.69,-1.77 -5.4,-3.54 -8.09,-5.29 -4.07,3.81 -7.94,7.85 -12.03,11.62 -3.83,-3.68 -5.89,-8.95 -9.72,-12.45 -4.53,0.41 -7.83,3.81 -10.88,6.8 -7.46,-9.21 -10.35,-22.27 -5.77,-33.43 3.74,2.12 7.57,4.05 11.51,5.82 3.61,-2.93 7.06,-6.04 10.46,-9.17 5.9,8.53 3.23,19.28 6.32,28.67z"/>
  </g>
 </g>
</svg>
