<?xml version="1.0" encoding="UTF-8"?>
<!DOCTYPE svg PUBLIC "-//W3C//DTD SVG 1.1//EN" "http://www.w3.org/Graphics/SVG/1.1/DTD/svg11.dtd">
<!-- Creator: CorelDRAW -->
<svg xmlns="http://www.w3.org/2000/svg" xml:space="preserve" width="2000px" height="1600px" version="1.1" style="shape-rendering:geometricPrecision; text-rendering:geometricPrecision; image-rendering:optimizeQuality; fill-rule:evenodd; clip-rule:evenodd"
viewBox="0 0 2000 1600"
 xmlns:xlink="http://www.w3.org/1999/xlink">
 <defs>
  <style type="text/css">
   <![CDATA[
    .fil3 {fill:#040204;fill-rule:nonzero}
    .fil1 {fill:#8D021C;fill-rule:nonzero}
    .fil2 {fill:#D90229;fill-rule:nonzero}
    .fil0 {fill:#FBFDFB;fill-rule:nonzero}
   ]]>
  </style>
 </defs>
 <g id="Capa_x0020_1">
  <metadata id="CorelCorpID_0Corel-Layer"/>
  <g id="Boston_x0020_University_x0020_Terriers.cdr">
   <path class="fil0" d="M1278.56 1414.61c21.33,-0.14 42.62,0.13 63.94,-0.17 3.57,4.28 10.36,7.48 9.62,14.03 0.03,15.75 0.4,31.55 -0.23,47.29 -2.81,6.22 -8.52,10.7 -14.91,12.94 6.85,8.82 7.05,26.77 20.92,26.6 0.07,6.55 0.1,13.1 0.17,19.68 -6.98,-0.06 -13.94,-0.13 -20.89,-0.27 -8.49,-15.97 -14.37,-33.45 -24.7,-48.35l-4.27 1.7c-0.64,8.89 -0.27,17.81 -0.24,26.77 2.24,-0.07 6.75,-0.13 9.03,-0.17 0.06,6.69 0.1,13.44 0.16,20.19 -12.8,0.07 -25.6,0.03 -38.39,0.17 -0.11,-6.76 -0.14,-13.47 -0.17,-20.16 2.3,0 6.92,-0.06 9.22,-0.06 0.07,-26.54 -0.17,-53.04 0.14,-79.54 -2.31,-0.17 -6.92,-0.54 -9.23,-0.7 -0.07,-6.65 -0.1,-13.34 -0.17,-19.95zm351.78 -0.04c13.37,0 26.73,-0.03 40.1,0.04 0,6.65 0.04,13.33 0.07,20.01 -2.41,0 -7.25,0 -9.66,0 4.51,8.56 8.89,17.21 14.07,25.44 3.95,-8.16 8.66,-15.98 11.5,-24.6 -1.91,-0.37 -5.72,-1.14 -7.59,-1.54 -0.03,-6.45 0,-12.9 0.04,-19.31 12.53,-0.07 25.06,-0.04 37.59,-0.04 -0.03,6.49 -0.06,12.97 -0.13,19.45 -8.89,-0.87 -10.63,8.66 -14.11,14.67 -5.37,11.9 -12.36,23.1 -17.04,35.33 -1.13,10.12 -0.3,20.35 -0.53,30.54 2.3,0.14 6.95,0.34 9.25,0.44 -0.06,6.65 -0.13,13.3 -0.23,19.95 -12.8,-0.03 -25.6,0.03 -38.4,-0.24 0.1,-6.58 0.17,-13.13 0.27,-19.65 2.3,-0.13 6.88,-0.43 9.16,-0.56 -1.14,-12.94 3,-27.24 -4.18,-38.97 -7.39,-13.27 -13.74,-27.14 -21.53,-40.14 -2.17,-0.33 -6.48,-0.93 -8.65,-1.27 -0.03,-6.55 -0.03,-13.06 0,-19.55zm-103.7 0.2c27.6,-0.43 55.21,-0.1 82.85,-0.2 0,14.51 0.1,29.01 -0.2,43.55 -6.56,-0.04 -13.11,0 -19.65,0.1 -0.17,-7.86 -0.24,-15.71 -0.27,-23.53 -2.88,0 -8.66,-0.03 -11.57,-0.03 -0.26,26.47 0.31,52.93 -0.3,79.4 2.34,0.3 7.02,0.87 9.36,1.14 0.03,6.52 0.07,13.06 0.17,19.62 -12.87,0.13 -25.74,0.13 -38.57,0.03 0,-6.55 0.03,-13.07 0.07,-19.55 2.34,-0.37 7.08,-1.04 9.46,-1.37 -0.74,-26.44 -0.07,-52.87 -0.4,-79.31 -2.88,0.04 -8.69,0.07 -11.57,0.1 -0.03,7.82 -0.06,15.61 -0.13,23.43 -6.42,-0.07 -12.77,-0.1 -19.15,-0.1 -0.07,-14.44 0.03,-28.87 -0.1,-43.28zm-147.05 10.29c3.91,-3.5 7.05,-8.45 12.2,-10.29 14.54,-0.67 29.14,-0.03 43.75,-0.13 3.34,3.41 6.75,6.85 10.12,10.26 0.07,7.95 0.07,15.94 0.07,23.93 -6.68,0 -13.37,0 -20.05,0 0,-4.72 0,-9.43 0,-14.14 -8.62,-0.03 -17.25,-0.03 -25.84,0 -0.1,9.42 -0.1,18.85 0.04,28.31 11.66,-0.04 23.36,0 35.09,-0.1 3.51,3.34 7.05,6.71 10.63,10.06 0.13,13.1 0.23,26.2 0.2,39.33 1.8,10.19 -8.22,15.94 -13.91,22.69 -13.36,-0.13 -26.7,-0.1 -40.03,-0.03 -4.11,-4.14 -8.19,-8.26 -12.27,-12.37 0.07,-7.35 0.1,-14.7 0.17,-22.02 6.65,0 13.33,0.03 19.98,0.1 0,4.68 0.04,9.43 0.07,14.17 8.56,-0.03 17.11,0 25.7,0.13 0.24,-10.66 0.2,-21.35 0.03,-32.01 -11.16,0 -22.35,0.63 -33.48,-0.14 -5.02,-2.6 -8.49,-7.31 -12.5,-11.12 0.17,-15.54 0.17,-31.08 0.03,-46.63zm-195.64 9.2c0.14,-6.32 -0.06,-12.64 0.64,-18.89 24.33,-1.8 48.89,-0.5 73.32,-0.56 -0.13,12.19 -0.13,24.39 -0.17,36.62 -6.98,-0.06 -14,-0.1 -20.98,-0.2 0,-5.54 0,-11.09 0,-16.57 -7.76,0 -15.51,0 -23.26,0.03 -0.04,8.02 0,16.08 0,24.13 8.08,0 16.2,0.03 24.29,0.17 -0.03,6.55 0,13.1 0.07,19.68 -8.22,0.17 -16.41,0.27 -24.63,0.64 0.33,11.79 0.3,23.62 0.2,35.45 7.79,0.04 15.61,0.04 23.46,0 -0.13,-8.42 -0.07,-16.84 0.23,-25.23 6.89,0.1 13.77,0.17 20.66,0.24 0.03,15.03 0.03,30.11 0,45.15 -24.5,0 -49.03,-0.07 -73.53,0.06 -0.03,-6.61 -0.03,-13.2 -0.03,-19.78 2.37,-0.27 7.09,-0.84 9.43,-1.14 -0.61,-26.4 -0.07,-52.8 -0.31,-79.2 -2.33,-0.14 -7.05,-0.44 -9.39,-0.6zm-109.95 -19.65c12.77,-0.07 25.54,-0.07 38.33,0 0.04,6.68 0.04,13.33 0.07,20.01 -2.24,-0.03 -6.78,-0.13 -9.02,-0.16 5.28,20.38 8.65,41.34 15.3,61.39 4.98,-20.39 9.76,-40.84 14.54,-61.29 -2.3,0 -6.88,0.03 -9.19,0.06 0,-6.71 0.04,-13.36 0.07,-20.01 12.77,-0.07 25.56,-0.07 38.33,-0.04 0.03,6.62 0.07,13.24 0.13,19.89 -2.13,0.1 -6.41,0.26 -8.55,0.36 -8.42,33.26 -16.41,66.64 -24.53,99.96 -7.55,0.1 -15.11,0.1 -22.63,-0.07 -7.75,-33.41 -16.64,-66.5 -24.93,-99.75 -2.04,-0.17 -6.05,-0.44 -8.05,-0.57 0.03,-6.62 0.07,-13.2 0.13,-19.78zm-59.55 5.51c3.27,-1.64 6.45,-3.44 9.69,-5.18 9.32,-0.57 18.68,-0.44 28.01,-0.37 0.03,6.55 0.06,13.1 0.13,19.69 -2.07,0.2 -6.25,0.6 -8.35,0.76 0.1,26.14 -0.34,52.27 0.26,78.41 12,0.47 7.05,13.6 8.36,21.35 -12.6,0.14 -25.23,0.14 -37.83,0.2 -0.07,-6.58 -0.1,-13.2 -0.17,-19.78 2.14,-0.24 6.42,-0.74 8.55,-0.97 -0.33,-26.5 -0.06,-53 -0.2,-79.51 -2.03,0 -6.11,0 -8.15,0 -0.1,-4.91 -0.2,-9.75 -0.3,-14.6zm-369.12 -5.55c9.36,-0.07 18.68,-0.03 28.04,0.27 8.95,21.32 16.61,43.31 27.37,63.8 0.97,-14.61 0.43,-29.21 0.4,-43.82 -2.27,-0.06 -6.82,-0.2 -9.06,-0.26 0,-6.69 0,-13.34 0.04,-19.99 12.83,0 25.63,0 38.43,0 0,6.65 -0.04,13.34 -0.07,20.02 -2.3,0.13 -6.92,0.33 -9.22,0.47 0.07,33.32 0.37,66.67 -0.17,99.99 -6.32,-0.1 -12.6,-0.2 -18.91,-0.34 -8.96,-21.18 -17.35,-42.64 -27.44,-63.33 -0.37,14.44 -0.07,28.91 -0.2,43.38 2.3,0.04 6.95,0.1 9.26,0.14 -0.04,6.68 -0.11,13.4 -0.21,20.15 -12.8,-0.2 -25.6,-0.1 -38.39,-0.23 0.06,-6.72 0.13,-13.41 0.16,-20.06 2.31,-0.03 6.85,-0.06 9.13,-0.1 -0.14,-26.63 0.2,-53.27 -0.2,-79.9 -2.24,-0.04 -6.76,-0.14 -8.99,-0.17 0,-6.72 0,-13.37 0.03,-20.02zm-189.66 0.04c27.47,-0.17 54.94,0.16 82.42,-0.17 0.6,14.5 0.23,29.04 0.36,43.58 -6.71,0 -13.46,-0.04 -20.22,-0.04 0.07,-7.88 0.07,-15.74 0.07,-23.56 -2.74,0.2 -8.22,0.64 -10.99,0.84 0.33,26.47 0.13,52.97 0.13,79.47 2.31,0.03 6.95,0.13 9.26,0.17 -0.04,6.68 -0.1,13.4 -0.17,20.12 -12.8,-0.14 -25.6,-0.07 -38.43,-0.2 0.06,-6.72 0.13,-13.47 0.2,-20.16 2.07,0.04 6.21,0.1 8.29,0.14 -0.04,-26.74 0.03,-53.47 -0.04,-80.18 -2.67,0.07 -8.05,0.2 -10.76,0.27 0,7.69 -0.03,15.41 -0.03,23.13 -6.72,0 -13.44,0 -20.12,0 0.07,-14.47 0.03,-28.94 0.03,-43.41zm-87.02 10.72c3.51,-3.67 7.05,-7.28 10.62,-10.86 14.68,0.14 29.35,0.14 44.05,0.03 3.68,3.35 7.49,6.56 10.83,10.3 1.5,7.92 0.5,16.11 0.5,24.16 -6.98,-0.1 -13.97,-0.17 -20.92,-0.27 0.03,-4.68 0.1,-9.35 0.13,-14 -8.32,-0.03 -16.64,-0.07 -24.96,0 -0.03,9.42 -0.03,18.85 0,28.27 11.23,0.2 22.49,-0.53 33.69,0.3 5.14,2.58 8.45,7.66 12.46,11.67 -0.7,14.74 0.3,29.51 -0.47,44.25 -3.97,5.88 -8.92,11.52 -14.87,15.47 -12.96,0.8 -26,0.03 -39,0.2 -3.94,-4.08 -7.92,-8.12 -11.86,-12.13 -0.07,-7.39 -0.1,-14.74 -0.2,-22.06 6.68,-0.07 13.4,-0.1 20.12,-0.13 0.03,4.71 0.1,9.46 0.13,14.2 8.32,0.1 16.64,0.1 24.96,0.03 0.04,-10.59 0,-21.15 -0.16,-31.75 -11.33,0.1 -22.66,0.14 -33.99,-0.1 -3.58,-3.64 -7.15,-7.21 -10.79,-10.79 -0.31,-15.61 0.03,-31.21 -0.27,-46.79zm1098.87 -10.93c12.47,0.24 24.93,0.24 37.43,0.07 0.1,6.62 0.17,13.23 0.23,19.92 -2.14,0.17 -6.45,0.57 -8.59,0.77 0.2,26.5 0.1,53 0.07,79.5 2.11,0.1 6.35,0.24 8.49,0.3 -0.07,6.66 -0.07,13.3 -0.1,19.99 -12.57,-0.03 -25.13,-0.07 -37.7,-0.1 0.04,-6.72 0.07,-13.4 0.1,-20.05 2.11,-0.04 6.29,-0.07 8.36,-0.1 -0.04,-26.64 0,-53.27 0,-79.88 -2.11,-0.1 -6.35,-0.26 -8.49,-0.36 0.07,-6.69 0.1,-13.37 0.2,-20.06zm-558.88 0.1c8.99,0.04 18.01,0.07 27.04,0.04 9.39,21.79 17.74,44.01 27.8,65.5 0.34,-15.14 0.17,-30.31 0.04,-45.45 -2.28,0.03 -6.79,0.03 -9.06,0.03 -0.03,-6.81 -0.03,-13.63 -0.03,-20.45 2.7,0.27 8.08,0.8 10.79,1.04 8.79,4.01 18.11,6.91 27.77,8.02 -0.03,3.71 0,7.42 0,11.16 -2.3,0.13 -6.92,0.37 -9.22,0.5 -0.07,33.35 0.03,66.67 -0.03,100.03 -6.22,0 -12.4,-0.04 -18.62,-0.04 -9.19,-20.75 -17.28,-42.01 -27.1,-62.49 -0.47,14.13 -0.27,28.27 -0.2,42.41 2.3,0.06 6.92,0.16 9.22,0.2 -0.03,6.65 -0.07,13.3 -0.1,19.95 -12.83,-0.07 -25.63,-0.07 -38.43,-0.03 -0.07,-6.55 -0.1,-13.07 -0.14,-19.59 2.14,-0.23 6.45,-0.67 8.59,-0.9 -0.2,-26.47 -0.06,-52.9 -0.1,-79.37 -2.14,-0.2 -6.41,-0.57 -8.55,-0.77 0.1,-6.62 0.2,-13.2 0.33,-19.79zm-106.84 -0.1c12.67,0.24 25.36,0.24 38.06,0.07 0.11,6.65 0.21,13.34 0.31,20.05 -2.34,0.07 -7.02,0.17 -9.36,0.24 0.06,26.73 -0.2,53.47 0.16,80.17 8.79,-0.1 17.62,-0.13 26.41,0 0.36,-26.7 0.03,-53.44 0.16,-80.17 -2.33,-0.07 -7.01,-0.17 -9.35,-0.24 0.1,-6.71 0.16,-13.4 0.33,-20.12 12.73,0.24 25.43,0.24 38.13,0.07 0.1,6.69 0.17,13.4 0.24,20.12 -2.31,0.03 -6.96,0.1 -9.29,0.17 -0.24,29.34 0.43,58.72 -0.27,88.02 -2.84,4.62 -7.05,8.16 -10.73,12.1 -14.94,0.04 -29.84,0.04 -44.78,0.04 -3.68,-4.01 -8.16,-7.49 -10.83,-12.27 -0.64,-29.27 -0.03,-58.58 -0.23,-87.89 -2.34,-0.04 -7.02,-0.17 -9.36,-0.2 0.1,-6.75 0.2,-13.47 0.4,-20.16zm261.17 -140.56c15.14,-7.22 31.45,-11.86 48.1,-13.9 1.37,5.65 2.8,11.33 3.91,17.08 -18.15,1.3 -38.04,-0.94 -53.38,10.82 -1.53,-4.34 -4.14,-11.36 1.37,-14zm-34.82 -40.87c14.97,0 28.14,-10.63 43.08,-8.42 15.87,6.75 28.51,19.08 41.24,30.41 -14.71,3.14 -29.31,6.82 -44.25,8.76 -12.36,-11.5 -26.2,-21.19 -40.07,-30.75zm14.37 -29.41c-3.91,-10.03 1.77,-20.55 11.2,-24.76 10.89,3.81 21.55,8.22 32.65,11.39 1.23,1.84 3.64,5.52 4.88,7.39 -12.73,-2.47 -26.84,-0.34 -38.9,-5.18 -1.17,-1.77 -3.51,-5.35 -4.68,-7.15 0.37,3.24 1.07,9.75 1.43,13 16.92,1.87 34.19,1.07 51.24,1.77 -5.65,-0.87 -9.83,-4.18 -11.7,-9.56 8.05,5.35 17.48,8.05 25.87,12.87 -16.68,1.43 -33.49,0.26 -50.1,2.47 -7.28,0.57 -15.54,2.61 -21.89,-2.24zm-213.38 -13.53c22.82,-11.93 50.43,-12.57 75.26,-7.52 51.56,13.6 101.06,36.32 143.57,68.64 5.55,4.04 10.29,9.02 14.77,14.2 -9.96,3.21 -19.75,6.95 -29.08,11.7 -4.27,-7.72 -8.95,-15.17 -13.83,-22.49l-0.27 1.67c15.11,24.83 9.09,59.09 -11.36,79.14 -18.25,17.61 -45.22,26.83 -70.35,21.49 -17.54,-3.55 -32.32,-15.21 -43.81,-28.44 -11.87,-22.63 -15.41,-51.04 -3.81,-74.56 4.74,-11.43 14.2,-19.79 20.95,-29.95 -32.01,19.59 -35.22,61.39 -35.79,95.21 -8.76,-1.6 -18.38,-3.7 -23.66,-11.63 -13.04,-14.36 -9.93,-34.92 -10.83,-52.7 -0.9,-21.59 10.9,-41.27 25.5,-56.28 -32.15,22.26 -37.43,66.07 -32.75,102 -11.16,-6.28 -26.1,-11.36 -29.44,-25.3 -4.78,-29.81 -0.1,-65.3 24.93,-85.18zm292.62 -10.67c47.22,30.42 71.55,87.46 72.89,142.27 -0.4,14.1 2.77,29.71 -5.22,42.34 -5.24,-2.87 -15.97,-3.51 -14,-12.09 7.59,-34.93 7.59,-73.63 -11.03,-105.28 -11.73,8.56 -16.64,22.96 -22.49,35.66 1.81,-17.44 9.76,-33.28 19.75,-47.35 -0.97,-4.88 -6.95,-6.19 -10.06,-9.33 -2.9,4.31 -5.75,8.69 -8.85,12.84 2,-6.69 4.21,-13.31 6.55,-19.85 -5.28,-6.39 -13.4,-11.37 -15.21,-19.86 -1.24,-7.92 -7.79,-13.23 -12.33,-19.35zm-165.39 -1.23c-5.15,-14.94 21.92,-22.53 27.27,-8.76 6.68,15.51 12.5,31.38 18.78,47.06 -5.12,-3.01 -10.13,-6.09 -15.11,-9.23 -4.51,-14.2 -18.18,-24.39 -18.38,-40 -1.2,2.07 -2.27,4.18 -3.24,6.38 4.41,12.47 15.37,21.22 19.62,33.79 -14.17,-4.24 -21.09,-18.01 -28.94,-29.24zm-41.31 -16.55c-2.94,-6.98 -2.34,-14.5 1.6,-21.02 5.18,6.25 5.25,16.04 -1.6,21.02zm41.47 -25.56c19.45,-11.36 43.25,-9.19 64.34,-4.55 2.7,5.28 5.27,10.67 7.68,16.11 -24.33,0.9 -50.3,0.67 -72.02,-11.56zm235.08 15.41c13.4,-13.54 26.06,-27.81 37.36,-43.18 7.65,5.98 18.01,8.25 24,16.34 -10.13,7.65 -21.93,13.57 -34.83,13.77 -7.12,7.48 -15.24,15.04 -26.53,13.07zm-191.87 -65.37c1.04,-6.49 2.21,-12.94 3.55,-19.32 3.57,3.98 6.91,8.19 10.02,12.57l-7.45 1.27c3.01,3.91 8.02,6.98 6.52,13 -4.38,-2.28 -8.52,-4.88 -12.64,-7.52zm-269.16 21.15c6.65,-17.51 21.46,-32.45 40.14,-36.33 21.96,-4.64 44.31,2.64 63.7,12.7 38.7,19.42 67.27,55.85 81.01,96.52 -6.22,-1.17 -12.44,-2.37 -18.65,-3.58 -8.32,-23.92 -26.5,-42.94 -45.32,-59.18 -16.41,-12.84 -33.39,-27.31 -54.54,-31.05 -16.27,-2.81 -31.28,6.28 -42.48,17.15 4.78,-12.34 16.78,-18.45 27.24,-25.17 -21.12,-1.14 -40.3,11.4 -51.1,28.94zm242.86 -12.86c5.75,-12.24 13,-24.74 25.7,-30.82 -1.47,8.82 -1.97,17.85 -0.97,26.77 -8.39,0.37 -16.71,1.54 -24.73,4.05zm-153.29 -23.1c0.97,-6.08 9.19,-6.48 14.03,-6.28 13.71,2.61 23.9,15.91 24.73,29.61 -9.69,-2.71 -12.09,-12.8 -16.71,-20.42 0.6,2.64 1.74,7.89 2.31,10.53 -7.95,-4.85 -16.41,-8.66 -24.36,-13.44zm136.72 -39c0.3,21.99 -1.84,44.62 7.55,65.3 -11.1,8.89 -26.17,13.3 -40.34,11.6 1.54,-28.37 14,-55.71 32.79,-76.9zm10.83 60.19c-9.16,-21.56 -10.57,-47.12 -0.87,-68.74 7.52,14.4 13.97,30.31 28.1,39.67 -10.93,7.82 -20.35,17.47 -27.23,29.07zm-214.16 -81.54c16.01,2.17 31.82,5.54 47.83,7.92 -2.34,4.17 -4.68,8.28 -7.06,12.46 -3.77,-2.34 -7.55,-4.58 -11.36,-6.78 3.88,5.28 13.37,9.66 6.89,16.94 -14.07,-7.32 -23.4,-21.35 -36.3,-30.54zm62.56 5.71c2.61,-5.75 6.25,-10.96 10.93,-15.21 -4.98,24.47 15.47,43.05 24.8,63.64 -2.04,-0.74 -6.08,-2.14 -8.12,-2.88 -6.12,-4.58 -11.33,-10.12 -16.51,-15.7 -6.22,3.57 -12.4,7.18 -18.62,10.76 2.74,-5.89 5.68,-11.67 8.46,-17.52 -7.79,6.76 -14.44,14.67 -22.03,21.63 5.05,-15.81 13.91,-29.91 21.09,-44.72zm112.56 -15c4.31,-4.08 10.26,-3.28 14.2,0.9 6.69,6.78 11.5,15.87 21.13,19.15 -21.13,20.58 -35.56,46.78 -45.19,74.42 -7.82,-31.41 -5.08,-65.57 9.86,-94.47zm-91.64 26.83c13.84,-23.23 25.74,-47.82 40.37,-70.68 6.25,10.46 8.89,24.39 1.31,34.89 -11.56,18.08 -14.51,39.73 -17.38,60.52 -0.57,0.34 -1.7,1 -2.31,1.34 -7.88,-7.25 -13,-17.01 -21.15,-24.03l-0.84 -2.04zm426.57 -73.25c9.73,1.27 21.59,3.94 24.06,15.03 -7.11,-3.1 -14.23,-6.31 -21.89,-7.78 -0.73,-2.44 -1.47,-4.85 -2.17,-7.25zm-72.58 0.43c17.91,-3.91 36.46,-5.08 54.7,-3.34 9.29,0 11.93,11.16 12.6,18.58 -2.97,-3.31 -4.48,-9.02 -9.76,-8.96 -21.32,-4.18 -44.04,-2.4 -63.39,7.92 -5.02,-1.07 -10.06,-2.04 -15.08,-2.6 3.21,3.87 7.16,7.01 11.17,10.05 -6.99,-1.26 -13.61,-3.94 -19.82,-7.31 7.65,-8.42 18.85,-11.77 29.58,-14.34zm-284.14 -2.84c22.79,-13.07 48.46,1.84 66.17,16.71 9.19,9.69 20.22,20.32 21.32,34.42 -8.69,-15.21 -20.75,-30.21 -38.43,-34.92 -13.17,-3.28 -27.8,-11.7 -40.84,-3.71 -13.1,6.18 -20.52,19.11 -29.88,29.47 7.09,-13.9 15.98,-28.4 30.48,-35.49 11.77,-3.77 24.1,0.47 36.03,0.97 -13.2,-8.82 -29.61,-9.72 -44.85,-7.45zm87.16 21.22c18.68,-13.63 39.57,-29.91 63.93,-28.61 -9.72,6.89 -21.65,8.96 -32.45,13.54 -10.89,4.14 -20.99,10.06 -31.48,15.07zm-13.84 -12.16c12.54,-16.81 35.43,-20.36 54.85,-23.4 -19.19,5.65 -36.7,15.34 -54.85,23.4zm7.36 -71.46c1.67,-0.73 5.08,-2.2 6.78,-2.94 -0.74,8.09 -1.84,16.15 -3.58,24.1l-4.87 -3.94c0.16,-1.71 0.5,-5.15 0.7,-6.89 0.23,-2.57 0.7,-7.72 0.97,-10.33zm234.07 -9.39c1.67,-0.83 5.01,-2.5 6.65,-3.31 1.97,8.66 0.6,17.42 -2.81,25.54 -6.28,-2.64 -18.88,1.64 -18.91,-8.39 0.96,1.3 2.87,3.91 3.84,5.21l6.88 -0.2c-0.2,-2.71 -0.53,-8.12 -0.7,-10.83l4.48 1.21c0.17,-2.31 0.43,-6.92 0.57,-9.23zm-178.56 -10.83c20.22,12.94 39.26,28.45 62.06,36.8 -4.75,3.64 -11.1,3.44 -16.65,4.88 -16.67,2.87 -33.22,6.65 -49.56,11.06 5.35,-16.98 8.19,-35.16 4.15,-52.74zm-99.09 24.13c2.74,-13.93 4.21,-28.8 12.1,-41 -4.48,16.98 -7.63,34.22 -10.03,51.6 -1.27,-3.38 -3.14,-6.89 -2.07,-10.6zm49.73 -45.68c13.63,-3.38 25.93,4.44 34.72,14.14 8.65,14.43 2,30.94 0.57,46.25 -1.47,0.4 -4.45,1.17 -5.95,1.54 0.33,-9.26 0.73,-18.52 0.63,-27.78 -1.7,8.96 -2.97,18.08 -6.28,26.64 -2.31,-14.74 2.14,-31.21 -7.59,-44.05 -3.74,-0.06 -7.48,-0.13 -11.19,-0.2 -3.68,5.95 -7.25,11.97 -10.23,18.28 -2.31,4.85 -4.01,9.93 -5.98,14.91 -1.37,3.04 -4.08,9.09 -5.45,12.13 -0.37,-8.66 0,-17.25 -0.2,-25.9l1.1 -2.57c1.04,-12.5 6.49,-24.94 15.85,-33.39zm-60.96 43.55c1,-18.32 5.68,-37.37 16.91,-52.17 -6.89,16.27 -10.76,33.58 -12.53,51.13 -1.11,0.27 -3.28,0.77 -4.38,1.04zm44.51 -58.96c4.75,-7.62 16.68,-7.95 20.56,0.67 -9.5,12.57 -20.59,24.57 -25,40.14 -7.72,23.73 -0.7,49.19 10.19,70.71 -10.43,1.21 -14.3,-9.75 -19.01,-16.81 -17.75,-29.94 -7.92,-69.21 13.26,-94.71zm118.74 -9.15c20.56,14.2 39.91,30.54 57.82,47.95 10.16,8.69 4.98,26.14 -4.51,32.75 2.54,-8.82 6.18,-19.35 -1.44,-26.83 -16.71,-18.51 -34.16,-36.36 -51.87,-53.87zm149.82 9.82c10.9,-12.3 11.67,-29.07 14.74,-44.35 8.96,26.51 -9.09,50.07 -24.7,69.42l0.67 -12.17c-2.64,4.11 -3.31,8.86 -3.01,13.64 -2.3,3 -5.24,5.38 -8.02,7.88 2.48,-4.67 5.42,-9.12 7.09,-14.17 -10.46,8.69 -18.92,19.59 -30.08,27.47 -0.03,-2.4 -0.13,-7.25 -0.17,-9.65 15.44,-11.47 30.65,-23.66 43.48,-38.07zm-320.99 -63.2c14.17,-7.51 33.15,-6.85 45.55,4.02 24.46,19.61 40.4,47.15 60.86,70.48 1.87,-1.37 3.7,-2.78 5.61,-4.15 -1.5,-1.6 -4.44,-4.81 -5.92,-6.41 34.06,25.2 73.9,42.34 116,47.89 -0.76,4.84 -1.83,9.66 -3.14,14.4 -31.34,-9.36 -63.16,-19.82 -90.13,-38.9 -4.81,-3.48 -10.09,-6.88 -12.57,-12.53 -1.53,1.67 -3.04,3.37 -4.51,5.08 20.72,13.23 40.07,28.97 62.26,40.1 -16.17,-2.14 -30.91,-10.12 -43.94,-19.58 -21.36,-15.27 -42.01,-31.52 -61.46,-49.13 -15.91,-15.81 -32.72,-33.59 -55.58,-38.33 -20.15,-0.9 -36.06,13.93 -50.13,26.47 7.62,-18.99 25.17,-34.93 46.79,-32.82 18.41,-2.57 32.95,10.16 46.59,20.35 -5.89,-7.75 -12,-15.64 -20.09,-21.25 -10.86,-6.69 -24.03,-5.48 -36.19,-5.69zm236.21 -86.99c32.75,19.75 62.29,45.42 84.28,76.87 -19.45,-19.25 -39.33,-38.4 -62.76,-52.9 3.11,8.82 6.95,17.44 9.22,26.56 -9.59,-17.24 -20.22,-33.85 -30.74,-50.53zm-225.12 -32.35c14.41,-13 31.48,-26.2 52,-25.4 22.23,1.74 39.94,17.15 55.01,32.22 27.71,30.01 53.37,62.5 71.96,98.99 -23.5,-31.95 -45.59,-65.6 -75.27,-92.3 -14.7,-14.74 -38.66,-16.65 -57.38,-9.73 -0.03,-0.87 -0.03,-2.67 -0.03,-3.58 6.55,-2.8 13.33,-5.01 19.98,-7.51 -19.65,-1.84 -38.66,5.48 -54.7,16.37 -18.89,12.9 -37.23,26.74 -54.01,42.38 -2.54,2.54 -5.58,4.04 -9.16,4.51 15.44,-20.15 33.12,-38.53 51.6,-55.95zm202.63 -43.11c16.67,-16.41 35.25,-31.45 56.88,-40.8 -16.21,16.77 -39.27,25.2 -55.95,41.77l-0.93 -0.97zm-114.73 18.62c42.34,17.18 79.67,44.24 114.26,73.69 -9.99,-14.37 -25.47,-23.56 -36.8,-36.7 31.55,2.74 54.21,27.91 70.32,52.87 17.28,25.23 25.1,55.11 34.02,83.89 1.34,-0.24 3.98,-0.74 5.28,-1.01 6.55,-11.53 10.49,-24.33 15.31,-36.66 7.95,1.11 4.88,10.23 4.17,15.71 -5.78,23.63 -11.36,48.26 -25.93,68.28 -6.82,10.52 -16.28,20.18 -17.81,33.21l-3.98 -2.9c1.97,9.49 2.04,19.18 1.27,28.84 23.63,4.41 48.16,8.52 69.21,20.75 -26.37,-0.2 -52.9,0.5 -78.7,6.15 35.79,1.07 73.05,-7.02 107.68,6.05 10.59,4.48 25.63,6.12 29.81,18.68 8.02,21.76 6.41,45.49 4.51,68.14 -3.31,33.52 -19.38,66.28 -45.75,87.6 -11.87,9.52 -27.51,0.1 -38.5,-6.39 -0.14,-14.03 15.5,-22.86 16.67,-37.26 -9.85,14.27 -17.37,30.11 -28.8,43.35 -21.69,25.13 -48.56,48.29 -81.58,56.18 -26.3,5.98 -54.68,8.05 -80.54,-0.64 -24.97,-12.87 -35.29,-42.01 -40.71,-67.84 -4.31,-15.58 0.87,-31.45 -0.43,-47.09 -1.27,4.91 -1.94,9.96 -2.44,15 -9.23,-10.15 -23.56,-14.4 -31.05,-26.26 -6.18,-8.36 -9.49,-19.02 -17.38,-25.97 -11.39,-3.64 -17.48,-14.74 -27.97,-19.85 1.34,-1.74 4.04,-5.21 5.38,-6.95 -18.01,-0.3 -29.58,16.77 -35.82,31.65 4.51,-4.82 8.72,-9.9 13.7,-14.21 -9.83,29.68 -16.81,63.3 -4.35,93.28 -1.6,0.03 -4.78,0.16 -6.38,0.23 5.11,7.55 13.7,14.37 23.46,12.33 16.71,-3.07 31.48,-12.13 47.69,-16.94 9.79,-2.17 19.92,-0.74 29.84,-0.24 0.94,6.96 1.61,13.94 2.24,20.93 -16.77,-2.24 -33.28,2.37 -48.72,8.48 0.5,-2.07 1.54,-6.21 2.04,-8.28 -10.33,9.79 -19.96,21.22 -32.89,27.6 -11.9,-2.07 -19.42,-13.63 -26.83,-22.19 -1.61,1.77 -3.18,3.54 -4.78,5.35 7.32,5.84 11.96,14.47 8.42,23.96 -7.29,-8.39 -13.57,-17.55 -20.52,-26.17 4.51,-1.9 8.96,-4.04 13.13,-6.62 -21.32,-22.52 -19.62,-55.94 -18.71,-84.71 3.27,-23.06 15.2,-44.55 31.48,-61.03 8.32,-7.55 19.28,-1.17 28.1,1.87 23.7,8.02 38.67,29.58 52.91,48.83 8.02,-22.26 25.13,-40.61 46.59,-50.43 9.52,-4.71 21.18,-6.02 28.47,-14.44 14.54,-15.84 32.05,-29.41 52.37,-36.86 11.73,-4.24 24.53,-3.71 36.32,-7.89 3.48,-12.2 8.22,-24.53 7.69,-37.39 -3.14,-7.39 -9.46,-12.77 -15.04,-18.25 -29.67,-27.1 -62.49,-51.57 -85.69,-84.89 -7.21,-10.99 -16.47,-21.75 -18.11,-35.26 17.71,4.99 32.28,16.82 47.96,26.01 11.26,6.41 20.58,16.64 33.48,19.88 4.15,-18.15 -5.71,-34.99 -15.2,-49.56 -26.27,-39.64 -60.06,-73.36 -92.37,-107.91zm154.76 209.64l0 0c9.49,4.44 15.58,-6.55 19.89,-13.14 -5.72,2.38 -10.4,8.39 -16.78,8.23 -13.27,-5.02 -24.83,-13.34 -36.83,-20.69 8.66,11.29 21.19,19.25 33.72,25.6zm-40.37 -14.71l0 0c9.83,13.14 23.16,23.66 37.57,31.38 13,7.46 25.66,-7.31 26.26,-19.65 -5.34,5.62 -9.25,14.04 -17.27,16.11 -18.12,-3.94 -31.55,-17.94 -46.56,-27.84zm32.49 90.6l0 0c14.17,-2 10.19,-19.98 10.92,-30.24 -4.41,9.79 -7.55,20.05 -10.92,30.24zm-2.34 9.8l0 0c19.61,-3.38 39.67,-0.84 59.48,-2.61 -7.82,-4.71 -17.14,-3.07 -25.76,-3.11 -11.37,0.6 -23.36,0.34 -33.72,5.72zm-11.13 41.1l0 0c-6.05,6.32 0.87,14.47 7.72,15.91 20.15,5.11 41.47,10.86 56.64,26.03 -2.9,-0.06 -8.65,-0.2 -11.56,-0.26 13.13,10.29 22.59,26.16 38.67,32.01 8.55,-2.34 13.4,-10.66 19.08,-16.84 10.49,-11.93 12.93,-28.44 22.56,-40.97 3.91,-5.58 10.29,-13.81 3.24,-19.72 -25.47,-18.48 -59.02,-16.28 -88.76,-13.64 -16.58,2.34 -35.96,4.01 -47.59,17.48zm-70.18 88.5l0 0c-0.44,4.48 -1.01,8.95 -1.64,13.43 2.04,-0.67 6.08,-2.04 8.12,-2.74 2.71,-5.35 -3.54,-7.55 -6.48,-10.69zm13.3 13.43l0 0c-0.3,4.75 -1.97,9.06 -4.78,12.87 3.51,-0.64 7.02,-1.34 10.49,-2.11 0.14,-4.47 -3.01,-7.62 -5.71,-10.76zm-28.91 3.68l0 0c-0.07,2.1 -0.27,6.25 -0.33,8.35 -2.11,0.27 -6.32,0.81 -8.39,1.07 2.8,4.28 10.62,7.29 13.5,1.47 2.27,-4.17 -2.44,-8.05 -4.78,-10.89zm18.38 10.43l0 0c-1.3,5.91 -5.05,8.75 -11.16,8.58 4.17,7.12 12.13,5.35 16.67,-0.06 -1.83,-2.84 -3.67,-5.68 -5.51,-8.52zm-12.83 33.45l0 0c0.93,7.25 6.01,10.03 12.63,6.88 0.17,-1.93 0.47,-5.78 0.63,-7.72 -4.37,1.17 -8.82,2.11 -13.26,0.84zm-889.43 301.78c20.65,0.03 41.34,0.1 61.99,-0.07 3.84,3.74 7.69,7.52 11.5,11.33 -2.18,13.64 5.98,32.18 -7.56,41.41 2.44,2.97 4.92,5.91 7.42,8.92 0.14,13.24 0.24,26.47 0.2,39.74 1.24,8.28 -5.81,15.34 -12.6,18.78 -20.35,0.77 -40.77,0.03 -61.12,0.17 0.03,-6.69 0.07,-13.37 0.1,-20.06 2.31,0 6.85,0 9.12,-0.03 -0.13,-26.67 0.3,-53.34 -0.23,-80.01 -2.24,-0.03 -6.72,-0.1 -8.96,-0.13 0.04,-6.72 0.07,-13.37 0.14,-20.05zm30.04 20.15l0 0c0,8.05 0,16.11 0.03,24.16 7.76,0 15.51,0 23.26,0 0.04,-8.05 0.04,-16.14 0.04,-24.19 -7.79,0 -15.58,0 -23.33,0.03zm-0.07 45.12l0 0c0.1,11.63 0.1,23.26 -0.03,34.92 7.82,0.07 15.67,0.07 23.49,0.07 -0.1,-11.67 -0.1,-23.33 0.04,-34.96 -7.86,-0.1 -15.68,-0.1 -23.5,-0.03zm65.47 -51.27c2.98,-5.55 7.76,-10.12 12.87,-13.7 13.23,-0.27 26.7,-1.24 39.84,0.6 4.31,3.81 7.82,8.39 11.53,12.77 -0.37,31.44 -0.1,62.89 -0.14,94.34 -4.01,4.11 -8.02,8.22 -12,12.33 -13.66,0.04 -27.37,0.07 -41.04,-0.06 -3.67,-4.15 -7.48,-8.16 -11.29,-12.14 0.13,-31.38 -0.43,-62.79 0.23,-94.14zm19.82 6.12l0 0c0.03,26.77 -0.2,53.53 0.13,80.27 7.96,-0.1 15.91,-0.1 23.9,-0.1 0.23,-26.7 0.07,-53.44 0.1,-80.14 -8.05,-0.03 -16.11,-0.07 -24.13,-0.03zm256.26 -6.59c4.48,-4.61 8.39,-10.19 14.21,-13.23 12.33,-0.57 24.73,-0.57 37.06,0 5.95,2.87 9.79,8.65 14.33,13.3 -0.56,31.35 -0.03,62.7 -0.3,94.04 -4.54,4.15 -8.32,9.49 -13.8,12.47 -13.13,0.77 -26.27,0.06 -39.4,0.2 -3.88,-4.28 -7.75,-8.56 -11.7,-12.7 -0.56,-31.35 0.2,-62.73 -0.4,-94.08zm21.12 6.62l0 0c0,26.74 -0.13,53.47 0.1,80.21 7.69,-0.07 15.41,-0.07 23.13,0 0.27,-26.74 0.1,-53.47 0.1,-80.21 -7.79,-0.03 -15.57,-0.03 -23.33,0zm727.75 0l0 0c0,10.69 0,21.42 -0.13,32.15 8.02,0.3 16,0.4 24.03,0.57 0.33,-10.93 0.33,-21.82 0.26,-32.72 -8.05,-0.03 -16.11,-0.03 -24.16,0z"/>
   <path class="fil1" d="M420.58 676.97c5.18,-0.37 10.4,-0.74 15.61,-0.84 87.09,0.17 174.18,-0.3 261.27,0.23 0.71,124.93 -0.16,249.88 0.3,374.81 0,7.42 -0.56,14.83 -1.2,22.25 -91.97,-0.06 -183.91,0 -275.88,-0.06 0.1,-132.14 0.4,-264.25 -0.1,-396.39zm784.93 656.46c193.53,-0.04 387.06,0.43 580.6,-0.23 1.17,88.89 0.17,177.82 0.5,266.75 -555.87,0.07 -1111.77,0.07 -1667.64,0 0,-88.8 0,-177.62 0,-266.42 185.98,-0.03 371.99,0 557.97,0 54.01,0.33 108.02,-0.74 161.99,0.5 11.69,7.09 23.53,14.04 35.76,20.29 -30.18,2.27 -60.46,0.83 -90.67,1.2 -212.55,0.37 -425.06,-0.57 -637.61,0.43 -0.37,73.53 -0.17,147.05 -0.1,220.57 83.34,1.54 166.76,0.34 250.11,0.64 374.27,0.13 748.57,-0.04 1122.83,0.07 80.38,-0.24 160.78,0.43 241.16,-0.37 1.1,-48.26 0.2,-96.55 0.53,-144.81 -0.43,-25.43 0.87,-50.86 -0.77,-76.23 -184.71,-0.7 -369.42,0.07 -554.13,-0.37 0.1,-7.35 -0.13,-14.7 -0.53,-22.02zm-214.22 -484.72c3.98,-3.84 9.02,-11.53 15.17,-6.25 12.43,10.09 31.68,16.58 32.79,35.22 0.36,16.35 -2.01,34.76 -13.51,47.29 -10.15,7.32 -22.75,10.03 -34.02,15.14 -14.13,-14.57 -20.18,-35.89 -14.97,-55.54 0.2,8.65 -0.17,17.24 0.2,25.9 1.37,-3.04 4.08,-9.09 5.45,-12.13 1.04,0.6 3.14,1.77 4.18,2.37 -0.2,1.74 -0.54,5.18 -0.7,6.89 -1.07,8.12 -2.74,18.84 5.74,23.76 7.39,5.51 14.81,-2.91 17.15,-9.53 5.08,-14.13 4.68,-30.44 -1.21,-44.31 -6.68,-6.08 -13.63,2.4 -19.18,5.91 2.98,-6.31 6.55,-12.33 10.23,-18.28 3.71,0.07 7.45,0.14 11.19,0.2 9.73,12.84 5.28,29.31 7.59,44.05 3.31,-8.56 4.58,-17.68 6.28,-26.64 0.1,9.26 -0.3,18.52 -0.63,27.78 1.5,-0.37 4.48,-1.14 5.95,-1.54 1.43,-15.31 8.08,-31.82 -0.57,-46.25 -8.79,-9.7 -21.09,-17.52 -34.72,-14.14 -0.61,0.03 -1.81,0.07 -2.41,0.1zm476.1 -848.39c137.85,-0.44 275.74,-0.37 413.63,-0.04 -0.27,74.9 0.37,149.79 -0.33,224.68 -31.35,-0.26 -62.73,-0.06 -94.08,-0.09 -0.07,307.62 0.1,615.25 -0.07,922.88 -43.74,43.68 -87.62,87.22 -131.04,131.2 -151.25,0.44 -302.51,0.14 -453.77,0.14 -2.5,-2.44 -4.91,-4.95 -7.25,-7.52 -4.51,-12.37 -8.82,-24.8 -13.5,-37.1 11.96,7.49 20.55,21.02 34.22,25.07 140.33,0.5 280.73,-0.1 421.05,0.26 6.86,0.67 13.14,-2 17.72,-7.05 32.48,-32.25 64.63,-64.8 97.22,-96.95 7.51,-7.85 18.54,-15.4 16.5,-27.87 -0.33,-307.23 0.14,-614.45 -0.16,-921.68 31.55,-1.34 63.13,0.37 94.71,-0.97 0,-61.96 -0.07,-123.95 0.1,-185.95 -65.34,-1.27 -130.67,-0.1 -196.01,-0.56 -59.92,0.43 -119.84,-0.67 -179.76,0.5 -0.4,62.02 -0.03,124.05 -0.1,186.08 31.21,0.87 62.46,0.4 93.71,0.23 1.17,267.36 0.06,534.78 0.5,802.14 -0.34,21.92 1.03,43.88 -1.07,65.74 -89.63,-0.17 -179.26,0.06 -268.9,-0.24 2.81,-6.11 5.25,-12.4 7.39,-18.75 81.28,-0.03 162.55,0.11 243.83,-0.06 0,-276.48 -0.13,-552.93 0.07,-829.41 -31.62,-0.67 -63.23,0.6 -94.85,-0.67 0.6,-74.66 0.17,-149.35 0.24,-224.01zm-494.62 0c137.86,-0.37 275.78,-0.5 413.67,0.07 -0.4,74.86 0.47,149.75 -0.43,224.57 -31.08,-0.19 -62.2,-0.26 -93.28,0.04 -0.03,236.11 0.44,472.22 -0.23,708.29 -6.02,-1.83 -12.1,-3.4 -18.08,-5.17 -1.2,-38.47 0.9,-76.94 -1.3,-115.37 -0.07,-8.12 -0.1,-16.24 -0.07,-24.36 0.27,-5.98 0.77,-11.97 0.97,-17.95 0.3,-188.22 -0.37,-376.47 0.33,-564.69 31.15,-0.27 62.3,0.5 93.41,-0.6 -0.33,-61.93 -0.1,-123.86 -0.03,-185.78 -73.12,-1.44 -146.28,-0.04 -219.44,-0.54 -52.06,0.27 -104.16,-0.6 -156.23,0.44 -0.67,61.99 -0.2,123.95 -0.1,185.94 31.25,1.31 62.56,0.24 93.84,0.64 0.54,134.71 0,269.43 0.27,404.14 0.4,12.97 0.1,25.97 -2.01,38.77 -5.51,-3.51 -11.03,-6.98 -16.67,-10.19 -0.17,-137.82 -0.21,-275.68 0.03,-413.5 -31.62,-0.81 -63.26,0.53 -94.85,-0.71 0.57,-74.69 0.17,-149.35 0.2,-224.04zm-852.2 -0.04c216.93,-0.43 433.86,-0.23 650.75,-0.1 43.65,43.62 88.5,86.06 132.14,129.71 0.1,116.2 0.07,232.4 0,348.63 -28.91,29.01 -58.25,57.62 -86.72,87.09 10.46,9.96 20.62,20.25 30.08,31.18 -4.75,5.08 -9.29,10.4 -13.71,15.84 -11.49,-18.51 -29.34,-31.58 -42.77,-48.49 24.36,-23.99 48.42,-48.29 72.58,-72.52 6.96,-7.18 15.21,-13.33 20.56,-21.92 1.3,-6.62 1.13,-13.4 1.2,-20.12 -0.53,-88.03 -0.1,-176.06 -0.33,-264.08 -0.27,-15.54 1.23,-31.12 -0.54,-46.56 -9.09,-13.9 -23.26,-23.46 -34.62,-35.35 -19.12,-19.79 -39.7,-38.04 -58.92,-57.69 -9.29,-8.59 -17.34,-18.64 -27.77,-25.9 -7.12,-1.77 -14.51,-1.2 -21.76,-1.3 -200.25,0.57 -400.53,-0.57 -600.78,0.57 -1.11,61.99 0,124.02 -0.37,186.01 31.31,1.27 62.66,0.07 94.01,0.5 0.67,276.18 -0.1,552.36 0.27,828.54 0.23,13.04 0.06,26.07 -0.97,39.1 -31.08,0.4 -62.2,-1.07 -93.24,0.77 -0.04,61.63 -0.2,123.25 0.1,184.88 92.27,1.54 184.54,0.13 276.81,0.63 87.93,0.04 175.85,0.04 263.78,-0.03 22.89,-0.2 45.89,0.94 68.75,-1.03 5.24,6.95 10.73,13.73 16.44,20.28 -214.86,0.6 -429.74,-0.03 -644.6,0.34 -0.9,-74.8 0.23,-149.62 -0.57,-224.38 31.58,-0.94 63.17,-0.07 94.75,-0.47 0,-276.48 -0.17,-552.93 0.06,-829.38 -31.58,-0.67 -63.19,0.4 -94.77,-0.57 0.46,-74.72 0.13,-149.45 0.16,-224.18zm300.08 205.7c92.3,-0.67 184.61,-0.2 276.95,-0.16 0.1,93.57 0.43,187.15 -0.27,280.72 -92.2,-0.07 -184.48,0.84 -276.68,-0.43 0.4,-93.38 0.17,-186.75 0,-280.13zm19.15 18.85l0 0c0,81.05 0,162.05 0,243.1 79.64,0.06 159.28,0 238.92,0.03 0.03,-81.04 0.06,-162.08 -0.04,-243.13 -79.6,0.04 -159.24,0 -238.88,0zm0.3 470.22l0 0c-0.67,119.81 -0.14,239.61 -0.3,359.42 79.64,0 159.28,0 238.92,0 0.09,-119.7 -0.07,-239.41 0.06,-359.16 -79.57,-0.33 -159.14,0.24 -238.68,-0.26z"/>
   <path class="fil2" d="M146.41 1355.95c212.55,-1 425.06,-0.06 637.61,-0.43 30.21,-0.37 60.49,1.07 90.67,-1.2 32.78,16.04 62.16,38.13 90.53,60.89 -2.71,-0.24 -8.09,-0.77 -10.79,-1.04 0,6.82 0,13.64 0.03,20.45 2.27,0 6.78,0 9.06,-0.03 0.13,15.14 0.3,30.31 -0.04,45.45 -10.06,-21.49 -18.41,-43.71 -27.8,-65.5 -9.03,0.03 -18.05,0 -27.04,-0.04 -0.13,6.59 -0.23,13.17 -0.33,19.79 2.14,0.2 6.41,0.57 8.55,0.77 0.04,26.47 -0.1,52.9 0.1,79.37 -2.14,0.23 -6.45,0.67 -8.59,0.9 0.04,6.52 0.07,13.04 0.14,19.59 12.8,-0.04 25.6,-0.04 38.43,0.03 0.03,-6.65 0.07,-13.3 0.1,-19.95 -2.3,-0.04 -6.92,-0.14 -9.22,-0.2 -0.07,-14.14 -0.27,-28.28 0.2,-42.41 9.82,20.48 17.91,41.74 27.1,62.49 6.22,0 12.4,0.04 18.62,0.04 0.06,-33.36 -0.04,-66.68 0.03,-100.03 2.3,-0.13 6.92,-0.37 9.22,-0.5 0,-3.74 -0.03,-7.45 0,-11.16 7.22,-0.5 14.41,-1.44 21.46,-3.11 0.1,4.85 0.2,9.69 0.3,14.6 2.04,0 6.12,0 8.15,0 0.14,26.51 -0.13,53.01 0.2,79.51 -2.13,0.23 -6.41,0.73 -8.55,0.97 0.07,6.58 0.1,13.2 0.17,19.78 12.6,-0.06 25.23,-0.06 37.83,-0.2 -1.31,-7.75 3.64,-20.88 -8.36,-21.35 -0.6,-26.14 -0.16,-52.27 -0.26,-78.41 2.1,-0.16 6.28,-0.56 8.35,-0.76 -0.07,-6.59 -0.1,-13.14 -0.13,-19.69 -9.33,-0.07 -18.69,-0.2 -28.01,0.37 17.88,-18.48 33.12,-39.3 48.26,-60.02 19.05,8.02 37.7,17.11 57.68,22.62 17.95,5.08 36.7,13.9 55.61,8.63 13.23,-3.91 18.65,-18.32 20.35,-30.72 184.71,0.44 369.42,-0.33 554.13,0.37 1.64,25.37 0.34,50.8 0.77,76.23 -0.33,48.26 0.57,96.55 -0.53,144.81 -80.38,0.8 -160.78,0.13 -241.16,0.37 -374.26,-0.11 -748.56,0.06 -1122.83,-0.07 -83.35,-0.3 -166.77,0.9 -250.11,-0.64 -0.07,-73.52 -0.27,-147.04 0.1,-220.57zm71.11 123.86c7.82,-0.07 15.64,-0.07 23.5,0.03 -0.14,11.63 -0.14,23.29 -0.04,34.96 -7.82,0 -15.67,0 -23.49,-0.07 0.13,-11.66 0.13,-23.29 0.03,-34.92zm1090.42 -45.12c8.05,-0.03 16.11,-0.03 24.16,0 0.07,10.9 0.07,21.79 -0.26,32.72 -8.03,-0.17 -16.01,-0.27 -24.03,-0.57 0.13,-10.73 0.13,-21.46 0.13,-32.15zm-727.75 0c7.76,-0.03 15.54,-0.03 23.33,0 0,26.74 0.17,53.47 -0.1,80.21 -7.72,-0.07 -15.44,-0.07 -23.13,0 -0.23,-26.74 -0.1,-53.47 -0.1,-80.21zm-277.38 -0.03c8.02,-0.04 16.08,0 24.13,0.03 -0.03,26.7 0.13,53.44 -0.1,80.14 -7.99,0 -15.94,0 -23.9,0.1 -0.33,-26.74 -0.1,-53.5 -0.13,-80.27zm-85.22 0.03c7.75,-0.03 15.54,-0.03 23.33,-0.03 0,8.05 0,16.14 -0.04,24.19 -7.75,0 -15.5,0 -23.26,0 -0.03,-8.05 -0.03,-16.11 -0.03,-24.16zm710.37 -279.42c10.73,2.04 19.28,-4.31 25.9,-11.9 23.76,9.19 49.36,12.03 74.66,10.23 8.55,7.15 15.3,16.84 25.83,21.72 -16.54,3.41 -22.79,27.07 -9.32,37.36 9.29,0.3 18.61,-0.56 27.9,-0.16 -14.03,9.89 -31.28,14.47 -48.22,15.7 -8.86,1.04 -17.31,-5.71 -20.19,-13.76 -6.81,-16.45 -12.76,-33.26 -20.01,-49.5 -5.89,-11.43 -22.1,-6.99 -30.22,-0.47 -7.42,8.46 -4.61,20.82 3.58,27.57 -13.7,-3.61 -33.39,-3.07 -37.1,-20.28 3.51,-5.01 6.12,-10.5 7.19,-16.51zm-137.79 -91.67c9.96,-20.99 20.29,-41.78 30.48,-62.63 7.42,-0.67 14,2.04 19.58,6.78 -3.51,4.01 -7.25,7.82 -11.23,11.43 2.51,3.25 5.18,6.32 8.02,9.26l0.84 2.04c0.87,4.21 1.6,8.62 3.94,12.36 15.78,25.67 32.69,50.74 52.47,73.56 -12.56,7.52 -18.98,-9.06 -27.34,-15.41 -0.76,-15.5 -10.92,-27.53 -22.29,-37.06l7.19 1.11c-9.33,-20.59 -29.78,-39.17 -24.8,-63.64 -4.68,4.25 -8.32,9.46 -10.93,15.21 -7.18,14.81 -16.04,28.91 -21.09,44.72 7.59,-6.96 14.24,-14.87 22.03,-21.63 -2.78,5.85 -5.72,11.63 -8.46,17.52 6.22,-3.58 12.4,-7.19 18.62,-10.76 5.18,5.58 10.39,11.12 16.51,15.7 -8.89,-1.27 -17.98,-1.1 -26.07,3.21 -8.82,4.38 -18.45,-0.77 -27.47,-1.77zm482.95 -250.85c2.2,38.43 0.1,76.9 1.3,115.37 -13.4,-7.26 -24.66,-17.75 -37.6,-25.71 3.21,-9.02 6.22,-18.28 6.89,-27.9 1.1,-7.79 0.16,-16.64 6.08,-22.73 9.63,-11.79 18.01,-24.69 23.33,-39.03zm-137.86 -162.75c5.68,-12.34 14.51,-23.06 23.36,-33.29 1.64,20.85 -2.74,43.75 -15.47,60.49 0,-2.57 0,-7.75 0,-10.36l-1.84 6.55c-4.65,-6.78 -7.32,-15.14 -6.05,-23.39zm-268.16 -13.24c10.56,-14.57 23.73,-27.87 39.14,-37.29 -5.48,31.68 -14.84,63.8 -33.19,90.53 -0.03,-3.48 -0.1,-10.36 -0.1,-13.83 -5.88,8.28 -4.98,20.85 -13.57,26.8 0.47,-22.03 -1.37,-45.59 7.72,-66.21zm619.47 -617.49c59.92,-1.17 119.84,-0.07 179.76,-0.5 65.34,0.46 130.67,-0.71 196.01,0.56 -0.17,62 -0.1,123.99 -0.1,185.95 -31.58,1.34 -63.16,-0.37 -94.71,0.97 0.3,307.23 -0.17,614.45 0.16,921.68 2.04,12.47 -8.99,20.02 -16.5,27.87 -32.59,32.15 -64.74,64.7 -97.22,96.95 -4.58,5.05 -10.86,7.72 -17.72,7.05 -140.32,-0.36 -280.72,0.24 -421.05,-0.26 -13.67,-4.05 -22.26,-17.58 -34.22,-25.07 -10.9,-16.37 -21.02,-33.52 -35.19,-47.35 -2.21,-3.11 -6.65,-5.45 -6.62,-9.56 12.03,-5.15 24.23,-9.86 35.99,-15.61 10.26,-5.38 22.13,-0.83 32.99,-3.44 7.38,-3.07 12.43,-9.66 18.11,-15 16.44,2.1 26.5,-11.97 40.34,-17.58 21.92,-9.76 33.82,-32.32 44.11,-52.71 89.64,0.3 179.27,0.07 268.9,0.24 2.1,-21.86 0.73,-43.82 1.07,-65.74 -0.44,-267.36 0.67,-534.78 -0.5,-802.14 -31.25,0.17 -62.5,0.64 -93.71,-0.23 0.07,-62.03 -0.3,-124.06 0.1,-186.08zm-494.51 0c52.07,-1.04 104.17,-0.17 156.23,-0.44 73.16,0.5 146.32,-0.9 219.44,0.54 -0.07,61.92 -0.3,123.85 0.03,185.78 -31.11,1.1 -62.26,0.33 -93.41,0.6 -0.7,188.22 -0.03,376.47 -0.33,564.69 -0.2,5.98 -0.7,11.97 -0.97,17.95 -20.02,-51.77 -67.54,-85.49 -111.92,-115.33 8.72,-25.44 14.87,-51.77 27.74,-75.6 3.34,-14.5 18.54,-19.98 25.5,-32.15 3.44,-5.08 4.24,-11.29 5.81,-17.08 -19.02,2.51 -36.09,11.77 -53.04,20.16 -21.38,11.96 -42.61,26.36 -56.58,46.92 -8.62,12.66 -5.98,28.64 0.44,41.6 -9.36,-1.27 -19.18,-2.17 -26.94,-8.15 2.11,-12.8 2.41,-25.8 2.01,-38.77 -0.27,-134.71 0.27,-269.43 -0.27,-404.14 -31.28,-0.4 -62.59,0.67 -93.84,-0.64 -0.1,-61.99 -0.57,-123.95 0.1,-185.94zm-852.1 0c200.25,-1.14 400.53,0 600.78,-0.57 7.25,0.1 14.64,-0.47 21.76,1.3 10.43,7.26 18.48,17.31 27.77,25.9 19.22,19.65 39.8,37.9 58.92,57.69 11.36,11.89 25.53,21.45 34.62,35.35 1.77,15.44 0.27,31.02 0.54,46.56 0.23,88.02 -0.2,176.05 0.33,264.08 -0.07,6.72 0.1,13.5 -1.2,20.12 -5.35,8.59 -13.6,14.74 -20.56,21.92 -24.16,24.23 -48.22,48.53 -72.58,72.52 13.43,16.91 31.28,29.98 42.77,48.49 -12.26,16.18 -29.44,32.32 -28.4,54.34 0.5,30.11 22.76,53.81 43.48,73.23 -15.68,26.3 -22.83,56.58 -28.21,86.42 -4.01,20.79 0.03,42.78 11.43,60.62 13.1,19.65 28.71,37.7 38.8,59.26 -10.06,17.24 -19.48,34.89 -29.34,52.3 -8.52,-3.34 -17.25,-11.43 -26.84,-7.49 -6.05,5.38 -8.55,13.7 -12.6,20.59 -19.92,-2.54 -39.7,-6.05 -59.62,-8.22 13.2,16.64 27.71,32.18 41.67,48.19 -3.47,10.93 -15.73,11.09 -24.69,14.97 -15.94,5.81 -27.91,19.69 -33.49,35.49 -8.52,23.16 -8.45,48.29 -8.15,72.62 0.1,30.72 14.03,59.46 31.95,83.69 -22.86,1.97 -45.86,0.83 -68.75,1.03 -87.93,0.07 -175.85,0.07 -263.78,0.03 -92.27,-0.5 -184.54,0.91 -276.81,-0.63 -0.3,-61.63 -0.14,-123.25 -0.1,-184.88 31.04,-1.84 62.16,-0.37 93.24,-0.77 1.03,-13.03 1.2,-26.06 0.97,-39.1 -0.37,-276.18 0.4,-552.36 -0.27,-828.54 -31.35,-0.43 -62.7,0.77 -94.01,-0.5 0.37,-61.99 -0.74,-124.02 0.37,-186.01zm280.69 186.71l0 0c0.17,93.38 0.4,186.75 0,280.13 92.2,1.27 184.48,0.36 276.68,0.43 0.7,-93.57 0.37,-187.15 0.27,-280.72 -92.34,-0.04 -184.65,-0.51 -276.95,0.16zm-0.07 470.99l0 0c0.5,132.14 0.2,264.25 0.1,396.39 91.97,0.06 183.91,0 275.88,0.06 0.64,-7.42 1.2,-14.83 1.2,-22.25 -0.46,-124.93 0.41,-249.88 -0.3,-374.81 -87.09,-0.53 -174.18,-0.06 -261.27,-0.23 -5.21,0.1 -10.43,0.47 -15.61,0.84zm381.22 737.43l0 0c-0.2,6.69 -0.3,13.41 -0.4,20.16 2.34,0.03 7.02,0.16 9.36,0.2 0.2,29.31 -0.41,58.62 0.23,87.89 2.67,4.78 7.15,8.26 10.83,12.27 14.94,0 29.84,0 44.78,-0.04 3.68,-3.94 7.89,-7.48 10.73,-12.1 0.7,-29.3 0.03,-58.68 0.27,-88.02 2.33,-0.07 6.98,-0.14 9.29,-0.17 -0.07,-6.72 -0.14,-13.43 -0.24,-20.12 -12.7,0.17 -25.4,0.17 -38.13,-0.07 -0.17,6.72 -0.23,13.41 -0.33,20.12 2.34,0.07 7.02,0.17 9.35,0.24 -0.13,26.73 0.2,53.47 -0.16,80.17 -8.79,-0.13 -17.62,-0.1 -26.41,0 -0.36,-26.7 -0.1,-53.44 -0.16,-80.17 2.34,-0.07 7.02,-0.17 9.36,-0.24 -0.1,-6.71 -0.2,-13.4 -0.31,-20.05 -12.7,0.17 -25.39,0.17 -38.06,-0.07zm665.72 0l0 0c-0.1,6.69 -0.13,13.37 -0.2,20.06 2.14,0.1 6.38,0.26 8.49,0.36 0,26.61 -0.04,53.24 0,79.88 -2.07,0.03 -6.25,0.06 -8.36,0.1 -0.03,6.65 -0.06,13.33 -0.1,20.05 12.57,0.03 25.13,0.07 37.7,0.1 0.03,-6.69 0.03,-13.33 0.1,-19.99 -2.14,-0.06 -6.38,-0.2 -8.49,-0.3 0.03,-26.5 0.13,-53 -0.07,-79.5 2.14,-0.2 6.45,-0.6 8.59,-0.77 -0.06,-6.69 -0.13,-13.3 -0.23,-19.92 -12.5,0.17 -24.96,0.17 -37.43,-0.07zm-1279.97 0.14l0 0c-0.07,6.68 -0.1,13.33 -0.14,20.05 2.24,0.03 6.72,0.1 8.96,0.13 0.53,26.67 0.1,53.34 0.23,80.01 -2.27,0.03 -6.81,0.03 -9.12,0.03 -0.03,6.69 -0.07,13.37 -0.1,20.06 20.35,-0.14 40.77,0.6 61.12,-0.17 6.79,-3.44 13.84,-10.5 12.6,-18.78 0.04,-13.27 -0.06,-26.5 -0.2,-39.74 -2.5,-3.01 -4.98,-5.95 -7.42,-8.92 13.54,-9.23 5.38,-27.77 7.56,-41.41 -3.81,-3.81 -7.66,-7.59 -11.5,-11.33 -20.65,0.17 -41.34,0.1 -61.99,0.07zm95.44 14l0 0c-0.66,31.35 -0.1,62.76 -0.23,94.14 3.81,3.98 7.62,7.99 11.29,12.14 13.67,0.13 27.38,0.1 41.04,0.06 3.98,-4.11 7.99,-8.22 12,-12.33 0.04,-31.45 -0.23,-62.9 0.14,-94.34 -3.71,-4.38 -7.22,-8.96 -11.53,-12.77 -13.14,-1.84 -26.61,-0.87 -39.84,-0.6 -5.11,3.58 -9.89,8.15 -12.87,13.7zm85.66 -3.21l0 0c0.3,15.58 -0.04,31.18 0.27,46.79 3.64,3.58 7.21,7.15 10.79,10.79 11.33,0.24 22.66,0.2 33.99,0.1 0.16,10.6 0.2,21.16 0.16,31.75 -8.32,0.07 -16.64,0.07 -24.96,-0.03 -0.03,-4.74 -0.1,-9.49 -0.13,-14.2 -6.72,0.03 -13.44,0.06 -20.12,0.13 0.1,7.32 0.13,14.67 0.2,22.06 3.94,4.01 7.92,8.05 11.86,12.13 13,-0.17 26.04,0.6 39,-0.2 5.95,-3.95 10.9,-9.59 14.87,-15.47 0.77,-14.74 -0.23,-29.51 0.47,-44.25 -4.01,-4.01 -7.32,-9.09 -12.46,-11.67 -11.2,-0.83 -22.46,-0.1 -33.69,-0.3 -0.03,-9.42 -0.03,-18.85 0,-28.27 8.32,-0.07 16.64,-0.03 24.96,0 -0.03,4.65 -0.1,9.32 -0.13,14 6.95,0.1 13.94,0.17 20.92,0.27 0,-8.05 1,-16.24 -0.5,-24.16 -3.34,-3.74 -7.15,-6.95 -10.83,-10.3 -14.7,0.11 -29.37,0.11 -44.05,-0.03 -3.57,3.58 -7.11,7.19 -10.62,10.86zm87.02 -10.72l0 0c0,14.47 0.04,28.94 -0.03,43.41 6.68,0 13.4,0 20.12,0 0,-7.72 0.03,-15.44 0.03,-23.13 2.71,-0.07 8.09,-0.2 10.76,-0.27 0.07,26.71 0,53.44 0.04,80.18 -2.08,-0.04 -6.22,-0.1 -8.29,-0.14 -0.07,6.69 -0.14,13.44 -0.2,20.16 12.83,0.13 25.63,0.06 38.43,0.2 0.07,-6.72 0.13,-13.44 0.17,-20.12 -2.31,-0.04 -6.95,-0.14 -9.26,-0.17 0,-26.5 0.2,-53 -0.13,-79.47 2.77,-0.2 8.25,-0.64 10.99,-0.84 0,7.82 0,15.68 -0.07,23.56 6.76,0 13.51,0.04 20.22,0.04 -0.13,-14.54 0.24,-29.08 -0.36,-43.58 -27.48,0.33 -54.95,0 -82.42,0.17zm103.4 13.46l0 0c0.6,31.35 -0.16,62.73 0.4,94.08 3.95,4.14 7.82,8.42 11.7,12.7 13.13,-0.14 26.27,0.57 39.4,-0.2 5.48,-2.98 9.26,-8.32 13.8,-12.47 0.27,-31.34 -0.26,-62.69 0.3,-94.04 -4.54,-4.65 -8.38,-10.43 -14.33,-13.3 -12.33,-0.57 -24.73,-0.57 -37.06,0 -5.82,3.04 -9.73,8.62 -14.21,13.23zm86.26 -13.5l0 0c-0.03,6.65 -0.03,13.3 -0.03,20.02 2.23,0.03 6.75,0.13 8.99,0.17 0.4,26.63 0.06,53.27 0.2,79.9 -2.28,0.04 -6.82,0.07 -9.13,0.1 -0.03,6.65 -0.1,13.34 -0.16,20.06 12.79,0.13 25.59,0.03 38.39,0.23 0.1,-6.75 0.17,-13.47 0.21,-20.15 -2.31,-0.04 -6.96,-0.1 -9.26,-0.14 0.13,-14.47 -0.17,-28.94 0.2,-43.38 10.09,20.69 18.48,42.15 27.44,63.33 6.31,0.14 12.59,0.24 18.91,0.34 0.54,-33.32 0.24,-66.67 0.17,-99.99 2.3,-0.14 6.92,-0.34 9.22,-0.47 0.03,-6.68 0.07,-13.37 0.07,-20.02 -12.8,0 -25.6,0 -38.43,0 -0.04,6.65 -0.04,13.3 -0.04,19.99 2.24,0.06 6.79,0.2 9.06,0.26 0.03,14.61 0.57,29.21 -0.4,43.82 -10.76,-20.49 -18.42,-42.48 -27.37,-63.8 -9.36,-0.3 -18.68,-0.34 -28.04,-0.27zm428.67 0.04l0 0c-0.06,6.58 -0.1,13.16 -0.13,19.78 2,0.13 6.01,0.4 8.05,0.57 8.29,33.25 17.18,66.34 24.93,99.75 7.52,0.17 15.08,0.17 22.63,0.07 8.12,-33.32 16.11,-66.7 24.53,-99.96 2.14,-0.1 6.42,-0.26 8.55,-0.36 -0.06,-6.65 -0.1,-13.27 -0.13,-19.89 -12.77,-0.03 -25.56,-0.03 -38.33,0.04 -0.03,6.65 -0.07,13.3 -0.07,20.01 2.31,-0.03 6.89,-0.06 9.19,-0.06 -4.78,20.45 -9.56,40.9 -14.54,61.29 -6.65,-20.05 -10.02,-41.01 -15.3,-61.39 2.24,0.03 6.78,0.13 9.02,0.16 -0.03,-6.68 -0.03,-13.33 -0.07,-20.01 -12.79,-0.07 -25.56,-0.07 -38.33,0zm109.95 19.65l0 0c2.34,0.16 7.06,0.46 9.39,0.6 0.24,26.4 -0.3,52.8 0.31,79.2 -2.34,0.3 -7.06,0.87 -9.43,1.14 0,6.58 0,13.17 0.03,19.78 24.5,-0.13 49.03,-0.06 73.53,-0.06 0.03,-15.04 0.03,-30.12 0,-45.15 -6.89,-0.07 -13.77,-0.14 -20.66,-0.24 -0.3,8.39 -0.36,16.81 -0.23,25.23 -7.85,0.04 -15.67,0.04 -23.46,0 0.1,-11.83 0.13,-23.66 -0.2,-35.45 8.22,-0.37 16.41,-0.47 24.63,-0.64 -0.07,-6.58 -0.1,-13.13 -0.07,-19.68 -8.09,-0.14 -16.21,-0.17 -24.29,-0.17 0,-8.05 -0.04,-16.11 0,-24.13 7.75,-0.03 15.5,-0.03 23.26,-0.03 0,5.48 0,11.03 0,16.57 6.98,0.1 14,0.14 20.98,0.2 0.04,-12.23 0.04,-24.43 0.17,-36.62 -24.43,0.06 -48.99,-1.24 -73.32,0.56 -0.7,6.25 -0.5,12.57 -0.64,18.89zm94.61 -19.65l0 0c0.07,6.61 0.1,13.3 0.17,19.95 2.31,0.16 6.92,0.53 9.23,0.7 -0.31,26.5 -0.07,53 -0.14,79.54 -2.3,0 -6.92,0.06 -9.22,0.06 0.03,6.69 0.06,13.4 0.17,20.16 12.79,-0.14 25.59,-0.1 38.39,-0.17 -0.06,-6.75 -0.1,-13.5 -0.16,-20.19 -2.28,0.04 -6.79,0.1 -9.03,0.17 -0.03,-8.96 -0.4,-17.88 0.24,-26.77l4.27 -1.7c10.33,14.9 16.21,32.38 24.7,48.35 6.95,0.14 13.91,0.21 20.89,0.27 -0.07,-6.58 -0.1,-13.13 -0.17,-19.68 -13.87,0.17 -14.07,-17.78 -20.92,-26.6 6.39,-2.24 12.1,-6.72 14.91,-12.94 0.63,-15.74 0.26,-31.54 0.23,-47.29 0.74,-6.55 -6.05,-9.75 -9.62,-14.03 -21.32,0.3 -42.61,0.03 -63.94,0.17zm101.03 10.45l0 0c0.14,15.55 0.14,31.09 -0.03,46.63 4.01,3.81 7.48,8.52 12.5,11.12 11.13,0.77 22.32,0.14 33.48,0.14 0.17,10.66 0.21,21.35 -0.03,32.01 -8.59,-0.13 -17.14,-0.16 -25.7,-0.13 -0.03,-4.74 -0.07,-9.49 -0.07,-14.17 -6.65,-0.07 -13.33,-0.1 -19.98,-0.1 -0.07,7.32 -0.1,14.67 -0.17,22.02 4.08,4.11 8.16,8.23 12.27,12.37 13.33,-0.07 26.67,-0.1 40.03,0.03 5.69,-6.75 15.71,-12.5 13.91,-22.69 0.03,-13.13 -0.07,-26.23 -0.2,-39.33 -3.58,-3.35 -7.12,-6.72 -10.63,-10.06 -11.73,0.1 -23.43,0.06 -35.09,0.1 -0.14,-9.46 -0.14,-18.89 -0.04,-28.31 8.59,-0.03 17.22,-0.03 25.84,0 0,4.71 0,9.42 0,14.14 6.68,0 13.37,0 20.05,0 0,-7.99 0,-15.98 -0.07,-23.93 -3.37,-3.41 -6.78,-6.85 -10.12,-10.26 -14.61,0.1 -29.21,-0.54 -43.75,0.13 -5.15,1.84 -8.29,6.79 -12.2,10.29zm147.05 -10.29l0 0c0.13,14.41 0.03,28.84 0.1,43.28 6.38,0 12.73,0.03 19.15,0.1 0.07,-7.82 0.1,-15.61 0.13,-23.43 2.88,-0.03 8.69,-0.06 11.57,-0.1 0.33,26.44 -0.34,52.87 0.4,79.31 -2.38,0.33 -7.12,1 -9.46,1.37 -0.04,6.48 -0.07,13 -0.07,19.55 12.83,0.1 25.7,0.1 38.57,-0.03 -0.1,-6.56 -0.14,-13.1 -0.17,-19.62 -2.34,-0.27 -7.02,-0.84 -9.36,-1.14 0.61,-26.47 0.04,-52.93 0.3,-79.4 2.91,0 8.69,0.03 11.57,0.03 0.03,7.82 0.1,15.67 0.27,23.53 6.54,-0.1 13.09,-0.14 19.65,-0.1 0.3,-14.54 0.2,-29.04 0.2,-43.55 -27.64,0.1 -55.25,-0.23 -82.85,0.2zm103.7 -0.2l0 0c-0.03,6.49 -0.03,13 0,19.55 2.17,0.34 6.48,0.94 8.65,1.27 7.79,13 14.14,26.87 21.53,40.14 7.18,11.73 3.04,26.03 4.18,38.97 -2.28,0.13 -6.86,0.43 -9.16,0.56 -0.1,6.52 -0.17,13.07 -0.27,19.65 12.8,0.27 25.6,0.21 38.4,0.24 0.1,-6.65 0.17,-13.3 0.23,-19.95 -2.3,-0.1 -6.95,-0.3 -9.25,-0.44 0.23,-10.19 -0.6,-20.42 0.53,-30.54 4.68,-12.23 11.67,-23.43 17.04,-35.33 3.48,-6.01 5.22,-15.54 14.11,-14.67 0.07,-6.48 0.1,-12.96 0.13,-19.45 -12.53,0 -25.06,-0.03 -37.59,0.04 -0.04,6.41 -0.07,12.86 -0.04,19.31 1.87,0.4 5.68,1.17 7.59,1.54 -2.84,8.62 -7.55,16.44 -11.5,24.6 -5.18,-8.23 -9.56,-16.88 -14.07,-25.44 2.41,0 7.25,0 9.66,0 -0.03,-6.68 -0.07,-13.36 -0.07,-20.01 -13.37,-0.07 -26.73,-0.04 -40.1,-0.04z"/>
   <path class="fil3" d="M1157.22 963.27c11.63,-13.47 31.01,-15.14 47.59,-17.48 29.74,-2.64 63.29,-4.84 88.76,13.64 7.05,5.91 0.67,14.14 -3.24,19.72 -9.63,12.53 -12.07,29.04 -22.56,40.97 -5.68,6.18 -10.53,14.5 -19.08,16.84 -16.08,-5.85 -25.54,-21.72 -38.67,-32.01 2.91,0.06 8.66,0.2 11.56,0.26 -15.17,-15.17 -36.49,-20.92 -56.64,-26.03 -6.85,-1.44 -13.77,-9.59 -7.72,-15.91zm-80.24 149.49c4.44,1.27 8.89,0.33 13.26,-0.84 -0.16,1.94 -0.46,5.79 -0.63,7.72 -6.62,3.15 -11.7,0.37 -12.63,-6.88zm12.83 -33.45c1.84,2.84 3.68,5.68 5.51,8.52 -4.54,5.41 -12.5,7.18 -16.67,0.06 6.11,0.17 9.86,-2.67 11.16,-8.58zm-18.38 -10.43c2.34,2.84 7.05,6.72 4.78,10.89 -2.88,5.82 -10.7,2.81 -13.5,-1.47 2.07,-0.26 6.28,-0.8 8.39,-1.07 0.06,-2.1 0.26,-6.25 0.33,-8.35zm28.91 -3.68c2.7,3.14 5.85,6.29 5.71,10.76 -3.47,0.77 -6.98,1.47 -10.49,2.11 2.81,-3.81 4.48,-8.12 4.78,-12.87zm-13.3 -13.43c2.94,3.14 9.19,5.34 6.48,10.69 -2.04,0.7 -6.08,2.07 -8.12,2.74 0.63,-4.48 1.2,-8.95 1.64,-13.43zm81.31 -129.6c10.36,-5.38 22.35,-5.12 33.72,-5.72 8.62,0.04 17.94,-1.6 25.76,3.11 -19.81,1.77 -39.87,-0.77 -59.48,2.61zm2.34 -9.8c3.37,-10.19 6.51,-20.45 10.92,-30.24 -0.73,10.26 3.25,28.24 -10.92,30.24zm-182.31 -28.94c5.55,-3.51 12.5,-11.99 19.18,-5.91 5.89,13.87 6.29,30.18 1.21,44.31 -2.34,6.62 -9.76,15.04 -17.15,9.53 -8.48,-4.92 -6.81,-15.64 -5.74,-23.76l4.87 3.94c1.74,-7.95 2.84,-16.01 3.58,-24.1 -1.7,0.74 -5.11,2.21 -6.78,2.94 -0.27,2.61 -0.74,7.76 -0.97,10.33 -1.04,-0.6 -3.14,-1.77 -4.18,-2.37 1.97,-4.98 3.67,-10.06 5.98,-14.91zm149.82 -61.66c15.01,9.9 28.44,23.9 46.56,27.84 8.02,-2.07 11.93,-10.49 17.27,-16.11 -0.6,12.34 -13.26,27.11 -26.26,19.65 -14.41,-7.72 -27.74,-18.24 -37.57,-31.38zm40.37 14.71c-12.53,-6.35 -25.06,-14.31 -33.72,-25.6 12,7.35 23.56,15.67 36.83,20.69 6.38,0.16 11.06,-5.85 16.78,-8.23 -4.31,6.59 -10.4,17.58 -19.89,13.14zm-187.08 -346.3c6.32,-3.51 10.93,4.11 9.02,9.6 -0.33,26.36 -25.97,40.9 -43.64,56.11 -10.3,20.48 -18.15,42.57 -32.69,60.65 -4.58,9.09 -6.92,19.29 -11.13,28.61 24.23,-17.04 50.97,-34.49 81.65,-35.02 26.27,2.67 49.99,15.8 72.69,28.44 5.64,3.21 11.16,6.68 16.67,10.19 7.76,5.98 17.58,6.88 26.94,8.15 -6.42,-12.96 -9.06,-28.94 -0.44,-41.6 13.97,-20.56 35.2,-34.96 56.58,-46.92 16.95,-8.39 34.02,-17.65 53.04,-20.16 -1.57,5.79 -2.37,12 -5.81,17.08 -6.96,12.17 -22.16,17.65 -25.5,32.15 -12.87,23.83 -19.02,50.16 -27.74,75.6 44.38,29.84 91.9,63.56 111.92,115.33 -0.03,8.12 0,16.24 0.07,24.36 -5.32,14.34 -13.7,27.24 -23.33,39.03 -5.92,6.09 -4.98,14.94 -6.08,22.73 -0.67,9.62 -3.68,18.88 -6.89,27.9 12.94,7.96 24.2,18.45 37.6,25.71 5.98,1.77 12.06,3.34 18.08,5.17 7.82,3.01 16.21,5.95 22.12,12.14 6.35,11.79 7.49,25.6 9.19,38.7 1.78,23.49 1.74,47.72 -5.71,70.34 -2.14,6.35 -4.58,12.64 -7.39,18.75 -10.29,20.39 -22.19,42.95 -44.11,52.71 -13.84,5.61 -23.9,19.68 -40.34,17.58 -5.68,5.34 -10.73,11.93 -18.11,15 -10.86,2.61 -22.73,-1.94 -32.99,3.44 -11.76,5.75 -23.96,10.46 -35.99,15.61 -0.03,4.11 4.41,6.45 6.62,9.56 14.17,13.83 24.29,30.98 35.19,47.35 4.68,12.3 8.99,24.73 13.5,37.1 5.82,20.15 9.73,40.91 11.03,61.86 0.4,7.32 0.63,14.67 0.53,22.02 -1.7,12.4 -7.12,26.81 -20.35,30.72 -18.91,5.27 -37.66,-3.55 -55.61,-8.63 -19.98,-5.51 -38.63,-14.6 -57.68,-22.62 -15.14,20.72 -30.38,41.54 -48.26,60.02 -3.24,1.74 -6.42,3.54 -9.69,5.18 -7.05,1.67 -14.24,2.61 -21.46,3.11 -9.66,-1.11 -18.98,-4.01 -27.77,-8.02 -28.37,-22.76 -57.75,-44.85 -90.53,-60.89 -12.23,-6.25 -24.07,-13.2 -35.76,-20.29 -25.47,-16.91 -51.3,-33.85 -73.39,-55.11 -5.71,-6.55 -11.2,-13.33 -16.44,-20.28 -17.92,-24.23 -31.85,-52.97 -31.95,-83.69 -0.3,-24.33 -0.37,-49.46 8.15,-72.62 5.58,-15.8 17.55,-29.68 33.49,-35.49 8.96,-3.88 21.22,-4.04 24.69,-14.97 -13.96,-16.01 -28.47,-31.55 -41.67,-48.19 19.92,2.17 39.7,5.68 59.62,8.22 4.05,-6.89 6.55,-15.21 12.6,-20.59 9.59,-3.94 18.32,4.15 26.84,7.49 9.86,-17.41 19.28,-35.06 29.34,-52.3 -10.09,-21.56 -25.7,-39.61 -38.8,-59.26 -11.4,-17.84 -15.44,-39.83 -11.43,-60.62 5.38,-29.84 12.53,-60.12 28.21,-86.42 -20.72,-19.42 -42.98,-43.12 -43.48,-73.23 -1.04,-22.02 16.14,-38.16 28.4,-54.34 4.42,-5.44 8.96,-10.76 13.71,-15.84 27.23,-29.31 60.82,-51.4 93.2,-74.46 16.55,-11.56 32.39,-24.96 51.47,-32.15zm147.05 118.04l0 0 0.93 0.97c16.68,-16.57 39.74,-25 55.95,-41.77 -21.63,9.35 -40.21,24.39 -56.88,40.8zm-271.44 28.54l0 0c-9.09,20.62 -7.25,44.18 -7.72,66.21 8.59,-5.95 7.69,-18.52 13.57,-26.8 0,3.47 0.07,10.35 0.1,13.83 18.35,-26.73 27.71,-58.85 33.19,-90.53 -15.41,9.42 -28.58,22.72 -39.14,37.29zm268.16 13.24l0 0c-1.27,8.25 1.4,16.61 6.05,23.39l1.84 -6.55c0,2.61 0,7.79 0,10.36 12.73,-16.74 17.11,-39.64 15.47,-60.49 -8.85,10.23 -17.68,20.95 -23.36,33.29zm-199.35 1.33l0 0c-18.48,17.42 -36.16,35.8 -51.6,55.95 3.58,-0.47 6.62,-1.97 9.16,-4.51 16.78,-15.64 35.12,-29.48 54.01,-42.38 16.04,-10.89 35.05,-18.21 54.7,-16.37 -6.65,2.5 -13.43,4.71 -19.98,7.51 0,0.91 0,2.71 0.03,3.58 18.72,-6.92 42.68,-5.01 57.38,9.73 29.68,26.7 51.77,60.35 75.27,92.3 -18.59,-36.49 -44.25,-68.98 -71.96,-98.99 -15.07,-15.07 -32.78,-30.48 -55.01,-32.22 -20.52,-0.8 -37.59,12.4 -52,25.4zm87.9 -24.49l0 0c32.31,34.55 66.1,68.27 92.37,107.91 9.49,14.57 19.35,31.41 15.2,49.56 -12.9,-3.24 -22.22,-13.47 -33.48,-19.88 -15.68,-9.19 -30.25,-21.02 -47.96,-26.01 1.64,13.51 10.9,24.27 18.11,35.26 23.2,33.32 56.02,57.79 85.69,84.89 5.58,5.48 11.9,10.86 15.04,18.25 0.53,12.86 -4.21,25.19 -7.69,37.39 -11.79,4.18 -24.59,3.65 -36.32,7.89 -20.32,7.45 -37.83,21.02 -52.37,36.86 -7.29,8.42 -18.95,9.73 -28.47,14.44 -21.46,9.82 -38.57,28.17 -46.59,50.43 -14.24,-19.25 -29.21,-40.81 -52.91,-48.83 -8.82,-3.04 -19.78,-9.42 -28.1,-1.87 -16.28,16.48 -28.21,37.97 -31.48,61.03 -0.91,28.77 -2.61,62.19 18.71,84.71 -4.17,2.58 -8.62,4.72 -13.13,6.62 6.95,8.62 13.23,17.78 20.52,26.17 3.54,-9.49 -1.1,-18.12 -8.42,-23.96 1.6,-1.81 3.17,-3.58 4.78,-5.35 7.41,8.56 14.93,20.12 26.83,22.19 12.93,-6.38 22.56,-17.81 32.89,-27.6 -0.5,2.07 -1.54,6.21 -2.04,8.28 15.44,-6.11 31.95,-10.72 48.72,-8.48 -0.63,-6.99 -1.3,-13.97 -2.24,-20.93 -9.92,-0.5 -20.05,-1.93 -29.84,0.24 -16.21,4.81 -30.98,13.87 -47.69,16.94 -9.76,2.04 -18.35,-4.78 -23.46,-12.33 1.6,-0.07 4.78,-0.2 6.38,-0.23 -12.46,-29.98 -5.48,-63.6 4.35,-93.28 -4.98,4.31 -9.19,9.39 -13.7,14.21 6.24,-14.88 17.81,-31.95 35.82,-31.65 -1.34,1.74 -4.04,5.21 -5.38,6.95 10.49,5.11 16.58,16.21 27.97,19.85 7.89,6.95 11.2,17.61 17.38,25.97 7.49,11.86 21.82,16.11 31.05,26.26 0.5,-5.04 1.17,-10.09 2.44,-15 1.3,15.64 -3.88,31.51 0.43,47.09 5.42,25.83 15.74,54.97 40.71,67.84 25.86,8.69 54.24,6.62 80.54,0.64 33.02,-7.89 59.89,-31.05 81.58,-56.18 11.43,-13.24 18.95,-29.08 28.8,-43.35 -1.17,14.4 -16.81,23.23 -16.67,37.26 10.99,6.49 26.63,15.91 38.5,6.39 26.37,-21.32 42.44,-54.08 45.75,-87.6 1.9,-22.65 3.51,-46.38 -4.51,-68.14 -4.18,-12.56 -19.22,-14.2 -29.81,-18.68 -34.63,-13.07 -71.89,-4.98 -107.68,-6.05 25.8,-5.65 52.33,-6.35 78.7,-6.15 -21.05,-12.23 -45.58,-16.34 -69.21,-20.75 0.77,-9.66 0.7,-19.35 -1.27,-28.84l3.98 2.9c1.53,-13.03 10.99,-22.69 17.81,-33.21 14.57,-20.02 20.15,-44.65 25.93,-68.28 0.71,-5.48 3.78,-14.6 -4.17,-15.71 -4.82,12.33 -8.76,25.13 -15.31,36.66 -1.3,0.27 -3.94,0.77 -5.28,1.01 -8.92,-28.78 -16.74,-58.66 -34.02,-83.89 -16.11,-24.96 -38.77,-50.13 -70.32,-52.87 11.33,13.14 26.81,22.33 36.8,36.7 -34.59,-29.45 -71.92,-56.51 -114.26,-73.69zm137.22 56.84l0 0c10.52,16.68 21.15,33.29 30.74,50.53 -2.27,-9.12 -6.11,-17.74 -9.22,-26.56 23.43,14.5 43.31,33.65 62.76,52.9 -21.99,-31.45 -51.53,-57.12 -84.28,-76.87zm-236.21 86.99l0 0c12.16,0.21 25.33,-1 36.19,5.69 8.09,5.61 14.2,13.5 20.09,21.25 -13.64,-10.19 -28.18,-22.92 -46.59,-20.35 -21.62,-2.11 -39.17,13.83 -46.79,32.82 14.07,-12.54 29.98,-27.37 50.13,-26.47 22.86,4.74 39.67,22.52 55.58,38.33 19.45,17.61 40.1,33.86 61.46,49.13 13.03,9.46 27.77,17.44 43.94,19.58 -22.19,-11.13 -41.54,-26.87 -62.26,-40.1 1.47,-1.71 2.98,-3.41 4.51,-5.08 2.48,5.65 7.76,9.05 12.57,12.53 26.97,19.08 58.79,29.54 90.13,38.9 1.31,-4.74 2.38,-9.56 3.14,-14.4 -42.1,-5.55 -81.94,-22.69 -116,-47.89 1.48,1.6 4.42,4.81 5.92,6.41 -1.91,1.37 -3.74,2.78 -5.61,4.15 -20.46,-23.33 -36.4,-50.87 -60.86,-70.48 -12.4,-10.87 -31.38,-11.53 -45.55,-4.02zm320.99 63.2l0 0c-12.83,14.41 -28.04,26.6 -43.48,38.07 0.04,2.4 0.14,7.25 0.17,9.65 11.16,-7.88 19.62,-18.78 30.08,-27.47 -1.67,5.05 -4.61,9.5 -7.09,14.17 2.78,-2.5 5.72,-4.88 8.02,-7.88 -0.3,-4.78 0.37,-9.53 3.01,-13.64l-0.67 12.17c15.61,-19.35 33.66,-42.91 24.7,-69.42 -3.07,15.28 -3.84,32.05 -14.74,44.35zm-149.82 -9.82l0 0c17.71,17.51 35.16,35.36 51.87,53.87 7.62,7.48 3.98,18.01 1.44,26.83 9.49,-6.61 14.67,-24.06 4.51,-32.75 -17.91,-17.41 -37.26,-33.75 -57.82,-47.95zm-118.74 9.15l0 0c-21.18,25.5 -31.01,64.77 -13.26,94.71 4.71,7.06 8.58,18.02 19.01,16.81 -10.89,-21.52 -17.91,-46.98 -10.19,-70.71 4.41,-15.57 15.5,-27.57 25,-40.14 -3.88,-8.62 -15.81,-8.29 -20.56,-0.67zm-44.51 58.96l0 0c1.1,-0.27 3.27,-0.77 4.38,-1.04 1.77,-17.55 5.64,-34.86 12.53,-51.13 -11.23,14.8 -15.91,33.85 -16.91,52.17zm58.55 -43.45l0 0c0.6,-0.03 1.8,-0.07 2.41,-0.1 -9.36,8.45 -14.81,20.89 -15.85,33.39l-1.1 2.57c-5.21,19.65 0.84,40.97 14.97,55.54 11.27,-5.11 23.87,-7.82 34.02,-15.14 11.5,-12.53 13.87,-30.94 13.51,-47.29 -1.11,-18.64 -20.36,-25.13 -32.79,-35.22 -6.15,-5.28 -11.19,2.41 -15.17,6.25zm-47.32 45.58l0 0c-1.07,3.71 0.8,7.22 2.07,10.6 2.4,-17.38 5.55,-34.62 10.03,-51.6 -7.89,12.2 -9.36,27.07 -12.1,41zm99.09 -24.13l0 0c4.04,17.58 1.2,35.76 -4.15,52.74 16.34,-4.41 32.89,-8.19 49.56,-11.06 5.55,-1.44 11.9,-1.24 16.65,-4.88 -22.8,-8.35 -41.84,-23.86 -62.06,-36.8zm178.56 10.83l0 0c-0.14,2.31 -0.4,6.92 -0.57,9.23l-4.48 -1.21c0.17,2.71 0.5,8.12 0.7,10.83l-6.88 0.2c-0.97,-1.3 -2.88,-3.91 -3.84,-5.21 0.03,10.03 12.63,5.75 18.91,8.39 3.41,-8.12 4.78,-16.88 2.81,-25.54 -1.64,0.81 -4.98,2.48 -6.65,3.31zm-241.43 80.85l0 0c18.15,-8.06 35.66,-17.75 54.85,-23.4 -19.42,3.04 -42.31,6.59 -54.85,23.4zm13.84 12.16l0 0c10.49,-5.01 20.59,-10.93 31.48,-15.07 10.8,-4.58 22.73,-6.65 32.45,-13.54 -24.36,-1.3 -45.25,14.98 -63.93,28.61zm-87.16 -21.22l0 0c15.24,-2.27 31.65,-1.37 44.85,7.45 -11.93,-0.5 -24.26,-4.74 -36.03,-0.97 -14.5,7.09 -23.39,21.59 -30.48,35.49 9.36,-10.36 16.78,-23.29 29.88,-29.47 13.04,-7.99 27.67,0.43 40.84,3.71 17.68,4.71 29.74,19.71 38.43,34.92 -1.1,-14.1 -12.13,-24.73 -21.32,-34.42 -17.71,-14.87 -43.38,-29.78 -66.17,-16.71zm-69.85 75.66l0 0c-2.84,-2.94 -5.51,-6.01 -8.02,-9.26 3.98,-3.61 7.72,-7.42 11.23,-11.43 -5.58,-4.74 -12.16,-7.45 -19.58,-6.78 -10.19,20.85 -20.52,41.64 -30.48,62.63 9.02,1 18.65,6.15 27.47,1.77 8.09,-4.31 17.18,-4.48 26.07,-3.21 2.04,0.74 6.08,2.14 8.12,2.88l-7.19 -1.11c11.37,9.53 21.53,21.56 22.29,37.06 8.36,6.35 14.78,22.93 27.34,15.41 -19.78,-22.82 -36.69,-47.89 -52.47,-73.56 -2.34,-3.74 -3.07,-8.15 -3.94,-12.36 8.15,7.02 13.27,16.78 21.15,24.03 0.61,-0.34 1.74,-1 2.31,-1.34 2.87,-20.79 5.82,-42.44 17.38,-60.52 7.58,-10.5 4.94,-24.43 -1.31,-34.89 -14.63,22.86 -26.53,47.45 -40.37,70.68zm91.64 -26.83l0 0c-14.94,28.9 -17.68,63.06 -9.86,94.47 9.63,-27.64 24.06,-53.84 45.19,-74.42 -9.63,-3.28 -14.44,-12.37 -21.13,-19.15 -3.94,-4.18 -9.89,-4.98 -14.2,-0.9zm-175.12 9.29l0 0c12.9,9.19 22.23,23.22 36.3,30.54 6.48,-7.28 -3.01,-11.66 -6.89,-16.94 3.81,2.2 7.59,4.44 11.36,6.78 2.38,-4.18 4.72,-8.29 7.06,-12.46 -16.01,-2.38 -31.82,-5.75 -47.83,-7.92zm214.16 81.54l0 0c6.88,-11.6 16.3,-21.25 27.23,-29.07 -14.13,-9.36 -20.58,-25.27 -28.1,-39.67 -9.7,21.62 -8.29,47.18 0.87,68.74zm-10.83 -60.19l0 0c-18.79,21.19 -31.25,48.53 -32.79,76.9 14.17,1.7 29.24,-2.71 40.34,-11.6 -9.39,-20.68 -7.25,-43.31 -7.55,-65.3zm-136.72 39l0 0c7.95,4.78 16.41,8.59 24.36,13.44 -0.57,-2.64 -1.71,-7.89 -2.31,-10.53 4.62,7.62 7.02,17.71 16.71,20.42 -0.83,-13.7 -11.02,-27 -24.73,-29.61 -4.84,-0.2 -13.06,0.2 -14.03,6.28zm153.29 23.1l0 0c8.02,-2.51 16.34,-3.68 24.73,-4.05 -1,-8.92 -0.5,-17.95 0.97,-26.77 -12.7,6.08 -19.95,18.58 -25.7,30.82zm-242.86 12.86l0 0c10.8,-17.54 29.98,-30.08 51.1,-28.94 -10.46,6.72 -22.46,12.83 -27.24,25.17 11.2,-10.87 26.21,-19.96 42.48,-17.15 21.15,3.74 38.13,18.21 54.54,31.05 18.82,16.24 37,35.26 45.32,59.18 6.21,1.21 12.43,2.41 18.65,3.58 -13.74,-40.67 -42.31,-77.1 -81.01,-96.52 -19.39,-10.06 -41.74,-17.34 -63.7,-12.7 -18.68,3.88 -33.49,18.82 -40.14,36.33zm269.16 -21.15l0 0c4.12,2.64 8.26,5.24 12.64,7.52 1.5,-6.02 -3.51,-9.09 -6.52,-13l7.45 -1.27c-3.11,-4.38 -6.45,-8.59 -10.02,-12.57 -1.34,6.38 -2.51,12.83 -3.55,19.32zm191.87 65.37l0 0c11.29,1.97 19.41,-5.59 26.53,-13.07 12.9,-0.2 24.7,-6.12 34.83,-13.77 -5.99,-8.09 -16.35,-10.36 -24,-16.34 -11.3,15.37 -23.96,29.64 -37.36,43.18zm-235.08 -15.41l0 0c21.72,12.23 47.69,12.46 72.02,11.56 -2.41,-5.44 -4.98,-10.83 -7.68,-16.11 -21.09,-4.64 -44.89,-6.81 -64.34,4.55zm-41.47 25.56l0 0c6.85,-4.98 6.78,-14.77 1.6,-21.02 -3.94,6.52 -4.54,14.04 -1.6,21.02zm12.9 -6.31l0 0c-1.07,6.01 -3.68,11.5 -7.19,16.51 3.71,17.21 23.4,16.67 37.1,20.28 -8.19,-6.75 -11,-19.11 -3.58,-27.57 8.12,-6.52 24.33,-10.96 30.22,0.47 7.25,16.24 13.2,33.05 20.01,49.5 2.88,8.05 11.33,14.8 20.19,13.76 16.94,-1.23 34.19,-5.81 48.22,-15.7 -9.29,-0.4 -18.61,0.46 -27.9,0.16 -13.47,-10.29 -7.22,-33.95 9.32,-37.36 -10.53,-4.88 -17.28,-14.57 -25.83,-21.72 -25.3,1.8 -50.9,-1.04 -74.66,-10.23 -6.62,7.59 -15.17,13.94 -25.9,11.9zm28.41 22.86l0 0c7.85,11.23 14.77,25 28.94,29.24 -4.25,-12.57 -15.21,-21.32 -19.62,-33.79 0.97,-2.2 2.04,-4.31 3.24,-6.38 0.2,15.61 13.87,25.8 18.38,40 4.98,3.14 9.99,6.22 15.11,9.23 -6.28,-15.68 -12.1,-31.55 -18.78,-47.06 -5.35,-13.77 -32.42,-6.18 -27.27,8.76zm165.39 1.23l0 0c4.54,6.12 11.09,11.43 12.33,19.35 1.81,8.49 9.93,13.47 15.21,19.86 -2.34,6.54 -4.55,13.16 -6.55,19.85 3.1,-4.15 5.95,-8.53 8.85,-12.84 3.11,3.14 9.09,4.45 10.06,9.33 -9.99,14.07 -17.94,29.91 -19.75,47.35 5.85,-12.7 10.76,-27.1 22.49,-35.66 18.62,31.65 18.62,70.35 11.03,105.28 -1.97,8.58 8.76,9.22 14,12.09 7.99,-12.63 4.82,-28.24 5.22,-42.34 -1.34,-54.81 -25.67,-111.85 -72.89,-142.27zm-292.62 10.67l0 0c-25.03,19.88 -29.71,55.37 -24.93,85.18 3.34,13.94 18.28,19.02 29.44,25.3 -4.68,-35.93 0.6,-79.74 32.75,-102 -14.6,15.01 -26.4,34.69 -25.5,56.28 0.9,17.78 -2.21,38.34 10.83,52.7 5.28,7.93 14.9,10.03 23.66,11.63 0.57,-33.82 3.78,-75.62 35.79,-95.21 -6.75,10.16 -16.21,18.52 -20.95,29.95 -11.6,23.52 -8.06,51.93 3.81,74.56 11.49,13.23 26.27,24.89 43.81,28.44 25.13,5.34 52.1,-3.88 70.35,-21.49 20.45,-20.05 26.47,-54.31 11.36,-79.14l0.27 -1.67c4.88,7.32 9.56,14.77 13.83,22.49 9.33,-4.75 19.12,-8.49 29.08,-11.7 -4.48,-5.18 -9.22,-10.16 -14.77,-14.2 -42.51,-32.32 -92.01,-55.04 -143.57,-68.64 -24.83,-5.05 -52.44,-4.41 -75.26,7.52zm213.38 13.53l0 0c6.35,4.85 14.61,2.81 21.89,2.24 16.61,-2.21 33.42,-1.04 50.1,-2.47 -8.39,-4.82 -17.82,-7.52 -25.87,-12.87 1.87,5.38 6.05,8.69 11.7,9.56 -17.05,-0.7 -34.32,0.1 -51.24,-1.77 -0.36,-3.25 -1.06,-9.76 -1.43,-13 1.17,1.8 3.51,5.38 4.68,7.15 12.06,4.84 26.17,2.71 38.9,5.18 -1.24,-1.87 -3.65,-5.55 -4.88,-7.39 -11.1,-3.17 -21.76,-7.58 -32.65,-11.39 -9.43,4.21 -15.11,14.73 -11.2,24.76zm-14.37 29.41l0 0c13.87,9.56 27.71,19.25 40.07,30.75 14.94,-1.94 29.54,-5.62 44.25,-8.76 -12.73,-11.33 -25.37,-23.66 -41.24,-30.41 -14.94,-2.21 -28.11,8.42 -43.08,8.42zm34.82 40.87l0 0c-5.51,2.64 -2.9,9.66 -1.37,14 15.34,-11.76 35.23,-9.52 53.38,-10.82 -1.11,-5.75 -2.54,-11.43 -3.91,-17.08 -16.65,2.04 -32.96,6.68 -48.1,13.9zm128.04 -318.22l0 0c-10.73,2.57 -21.93,5.92 -29.58,14.34 6.21,3.37 12.83,6.05 19.82,7.31 -4.01,-3.04 -7.96,-6.18 -11.17,-10.05 5.02,0.56 10.06,1.53 15.08,2.6 19.35,-10.32 42.07,-12.1 63.39,-7.92 5.28,-0.06 6.79,5.65 9.76,8.96 -0.67,-7.42 -3.31,-18.58 -12.6,-18.58 -18.24,-1.74 -36.79,-0.57 -54.7,3.34zm72.58 -0.43l0 0c0.7,2.4 1.44,4.81 2.17,7.25 7.66,1.47 14.78,4.68 21.89,7.78 -2.47,-11.09 -14.33,-13.76 -24.06,-15.03z"/>
  </g>
 </g>
</svg>
