<?xml version="1.0" encoding="UTF-8"?>
<!DOCTYPE svg PUBLIC "-//W3C//DTD SVG 1.1//EN" "http://www.w3.org/Graphics/SVG/1.1/DTD/svg11.dtd">
<!-- Creator: CorelDRAW -->
<svg xmlns="http://www.w3.org/2000/svg" xml:space="preserve" width="2000px" height="1600px" version="1.1" style="shape-rendering:geometricPrecision; text-rendering:geometricPrecision; image-rendering:optimizeQuality; fill-rule:evenodd; clip-rule:evenodd"
viewBox="0 0 2000 1600"
 xmlns:xlink="http://www.w3.org/1999/xlink">
 <defs>
  <style type="text/css">
   <![CDATA[
    .fil1 {fill:#040204;fill-rule:nonzero}
    .fil3 {fill:#840416;fill-rule:nonzero}
    .fil2 {fill:#C4B163;fill-rule:nonzero}
    .fil0 {fill:#FBFDFB;fill-rule:nonzero}
   ]]>
  </style>
 </defs>
 <g id="Capa_x0020_1">
  <metadata id="CorelCorpID_0Corel-Layer"/>
  <g id="Boston_x0020_College_x0020_Eagles.cdr">
   <path class="fil0" d="M1193.12 942.24c32.34,6.46 62.88,20.07 91.32,36.55 20.86,12.84 41.24,27.47 56.53,46.88 8.02,10.43 14.45,23.25 12.73,36.79 -7.13,-1.66 -14.39,-2.75 -21.73,-1.9 1.69,-3.6 3.26,-7.23 4.74,-10.88 -5.2,0.15 -8.01,6.77 -13.81,4.53 -7.98,-3.75 -10.19,-13.24 -13.79,-20.56 -3.66,-9.25 -11.43,-16.17 -20.13,-20.55 4.77,5.59 10.34,10.7 13.21,17.68 -5.2,2.39 -11.7,5.38 -11.76,12 -2.09,11.1 12.63,18.14 20.92,11.13 2.96,2.63 5.92,5.32 8.8,8.1 -17.72,6.89 -34.83,-6.17 -53,-4.47 4.14,12.75 9.49,25.09 15.51,37.09 -36.01,-22.49 -75.28,-39.88 -116.69,-49.58 12.88,-11.55 28.72,-18.74 43.2,-27.9 -19.26,-11.91 -39.79,-22.43 -62.04,-27.33 22.01,-8.83 46.26,-12.21 69.87,-10.22 -6.74,-13.21 -14.73,-25.73 -23.88,-37.36zm-397.99 219.77c34.64,-5.07 68.35,-17.5 97.37,-37.21 15.63,38.54 52.12,63.82 90.45,76.54 9.43,3.6 19.5,5.17 28.96,8.74 -74.31,23.22 -158.62,2.81 -216.78,-48.07zm558.06 -81.47c14.96,0.7 23.06,23.49 12.45,33.95 2.66,-13 -3.78,-24.88 -12.45,-33.95z"/>
   <path class="fil1" d="M595.42 0l593.37 0c53.63,1.87 107.53,2.93 160.74,10.94 32.98,5.2 66.66,12.37 95.44,30.05 22.76,13.7 40.57,36.04 47.04,61.98 6.53,25.48 2.9,52.42 -4.42,77.33 -12.6,43.17 -35.76,82.04 -54.59,122.58 -14.39,27.72 -26.43,56.99 -45.62,81.87 -26.94,36.58 -64.85,63.85 -106.32,81.8 17.23,21.65 22.03,50.97 19.22,77.91 -3.02,31.29 -16.38,60.22 -30.47,87.88 48.52,-38.58 106.32,-62.19 159.44,-93.38 61.52,-35.47 121.13,-78.27 162.1,-137.31 31.04,-43.81 47.61,-96.86 49.61,-150.37 16.86,36.37 20.22,78.02 12.96,117.2 -8.58,48.59 -30.92,93.72 -59.04,133.9 29.27,-19.29 50,-48.25 72.22,-74.73 -6.53,48.79 -27.38,95.4 -59.49,132.74 28.14,-9.52 52.18,-28.15 72.49,-49.43 -14.63,44.17 -46.7,81.05 -85.76,105.72 96.25,1.66 192.63,0.33 288.95,0.66 -59.59,122.8 -121.38,244.54 -181.06,367.31 -107.26,0.24 -214.49,0.21 -321.74,0 20.98,-42.23 41.81,-84.56 62.82,-126.79 -13.09,-0.12 -26.15,0.03 -39.24,-0.15 -25,44.44 -53.79,91.15 -101.22,114.48 22.95,16.81 46.08,35.25 60.28,60.38 5.54,9 6.35,19.59 7.05,29.86 12.21,14.3 23.3,33.71 16.38,52.97 -8.19,21.25 -30.23,31.95 -49.94,40.24 3.05,-14 5.74,-29.03 -0.69,-42.57 -4.57,11.91 -9.41,23.73 -16.09,34.61 -11.06,-7.77 -20.59,-17.56 -28.29,-28.66 -4.39,-6.77 -12.34,-9.52 -19.08,-13.24 -22.31,-11.7 -45.68,-21.25 -69.56,-29.17 22.19,35.25 44.08,71.25 57.77,110.8 5.14,2.84 10.19,6.01 15.9,7.71 5.84,-12.85 12.64,-25.25 18.53,-38.06 107.14,0.09 214.28,-0.12 321.42,0.09 -30.56,61.46 -60.73,123.13 -91.54,184.47 -25,51.63 -50.24,104.17 -87.79,148.07 -26.03,30.53 -58.77,55.2 -95.77,70.86 -59.16,25 -123.98,31.8 -187.52,35.94 -77.58,4.57 -155.27,3.3 -232.96,3.48 -167.66,-0.03 -335.32,0.06 -502.98,-0.06 103.9,-210.98 208.59,-421.57 312.4,-632.61 -87.55,2.23 -175.13,1.48 -262.71,1.6 -116.99,0 -233.95,-0.06 -350.94,0.03l0 -7.14 0.99 5.21c12.91,-29.39 27.85,-57.81 42.05,-86.56 145.14,-293.51 290.64,-586.87 435.66,-880.44zm23.58 36.88l0 0c-148.04,298.08 -295.57,596.49 -443.06,894.83 41.72,0.34 83.46,0.07 125.18,0.16 159.77,-0.52 319.6,1.33 479.34,-1.58 -5.8,-7.22 -12.27,-13.87 -17.5,-21.52 -8.01,-0.09 -15.99,-0.03 -23.97,0.39 7.28,-0.6 14.57,-1.21 21.85,-1.66 -26.78,-35.61 -49.39,-74.61 -63.78,-116.9 -2.33,-7.5 -4.6,-14.97 -6.59,-22.52 -64.91,-0.52 -129.78,-0.04 -194.69,-0.25 22.34,-44.5 43.93,-89.36 66.3,-133.8 -4.66,-7.86 -9.44,-15.66 -14.12,-23.49 -11.37,-22.49 -22.1,-45.74 -26.33,-70.77 23.52,21.16 51.09,38.27 82.01,46.01 1.43,-2.2 4.24,-6.62 5.66,-8.82 -9.68,-9.31 -20.44,-17.48 -28.66,-28.21 -41.09,-48.34 -54.18,-114.91 -48.13,-176.82 6.26,9.31 7.38,21.01 12.49,30.99 17.62,41.69 44.77,83.49 86.85,103.42 -13.36,-20.59 -26.63,-41.54 -34.95,-64.85 -23.97,-64.51 -21.61,-136.13 -4.53,-202.03 1.99,-6.59 2.54,-13.97 7.19,-19.41 0.52,80.93 23.79,163.1 72.68,228.27 5.32,6.59 10,13.97 17.02,18.93 -15.06,-36.28 -27.72,-73.95 -31.78,-113.22 -7.89,-64.6 6.93,-132.2 43.39,-186.37 4.29,-6.26 8.46,-12.82 14.57,-17.53 -10.4,44.29 -15.24,90.72 -7.74,135.82 0.24,12.79 3.38,25.58 6.74,37.91 21.28,-40.84 40.84,-82.56 61.73,-123.61 123.86,0.09 247.71,0 371.54,0.03 11.73,0.48 24.09,1.12 34.64,6.77 4.93,2.66 6.44,8.37 6.96,13.54 -2,15.45 -10.68,28.82 -17.27,42.63 -10.79,22.34 -21.67,44.68 -33.16,66.72 -17.11,27.78 -51,39.6 -82.2,41.05 -108.92,0.43 -217.84,-0.3 -326.73,0.37 3.32,7.52 6.89,14.93 10.52,22.34 24.91,47.46 62.21,86.7 100.06,123.97 8.74,6.99 15.78,16.57 25.58,21.83 40.42,0.33 80.83,0 121.22,0.15 8.8,0.42 18.2,0.85 25.97,5.38 7.14,3.96 6.65,13 5.38,19.92 -5.83,26.82 -21.55,49.89 -31.68,75.04 5.99,4.74 11.88,9.58 17.87,14.36 45.86,37.79 90.54,78.48 123.1,128.69 4.38,6.86 8.52,13.88 12.84,20.77 8.5,-12.46 13.37,-26.82 20.47,-40.03 7.5,-15.57 17.93,-29.5 24.4,-45.59 20.52,-41.05 40.84,-82.16 61.06,-123.34 12.1,-26.93 22.41,-57.56 14.18,-87.12 -7.71,-27.15 -32.98,-45.02 -58.8,-53.06 0.91,-3.93 5.9,-2.87 8.8,-4.2 52.6,-12.03 104.54,-36.37 139.43,-78.75 23.39,-27.06 36.21,-60.89 52.72,-92.18 18.32,-39.26 41.02,-77.02 51.69,-119.38 6.32,-24.73 5.78,-54.2 -12.75,-73.79 -21.92,-22.82 -54.3,-30.32 -84.2,-36.37 -66.41,-11.3 -134.04,-11.94 -201.21,-12.97 -179.21,-0.12 -358.39,0.21 -537.6,-0.15zm180.12 200.52l0 0c-16.21,32.08 -31.78,64.49 -47.77,96.68 100.82,-0.24 201.67,0.12 302.46,-0.18 19.53,-1.21 42.32,-5.99 53.57,-23.73 12.09,-24.22 24.28,-48.4 35.91,-72.89 -114.72,0.09 -229.45,-0.12 -344.17,0.12zm-104.57 137.67l0 0c16.78,89.97 67.14,172.26 137.22,230.76 63.39,54.99 137.79,96.71 196.19,157.53 26.52,24.82 44.05,57.86 54.69,92.26 11.61,37.94 12.46,80.72 -5.2,116.97 -15.75,32.71 -44.71,57.04 -76.54,73.37 23,32.56 56.71,54.9 90.06,75.61 -30.18,-3.12 -59.83,-10.1 -89,-18.26 2.63,5.38 8.01,8.43 12.51,12.09 28.66,21.85 63.24,33.61 97.31,44.07 -12.75,1.42 -25.63,0.37 -38.45,0.49 2.21,3.96 6.8,5.23 10.67,6.89 22.25,8.19 46.8,10.79 70.08,5.9 -5.14,-28.84 -16.48,-56.29 -30.45,-81.9 -19.52,-3.11 -39.69,-5.5 -58.01,-13.6 21.56,0.27 42.81,-3.42 63.82,-7.8 13.15,-2.78 26.66,-1.97 39.9,-3.75 -16.17,-4.72 -32.95,-7.02 -49.03,-11.88 17.47,-13.21 35.61,-25.97 56.26,-33.74 0.36,-0.76 1.03,-2.33 1.36,-3.08 -24.22,-11.43 -50.21,-18.08 -75.91,-24.97 25.21,-13.88 52.66,-24.88 81.32,-28.93 -8.19,-15.45 -18.77,-29.39 -27.81,-44.32 31.38,2.63 61.49,12.6 90.84,23.46 -7.41,-86.19 10.79,-177.49 63.94,-247.29 47.4,-61.64 118.05,-97.83 183.02,-137.64 39.6,-24.31 80.17,-53.51 98.7,-97.83 -6.11,4.99 -10.76,11.4 -16.35,16.87 -29.21,29.75 -65.82,50.63 -102.09,70.5 -71.35,38.27 -146.14,73.7 -204.94,130.65 -54.72,51.06 -92.2,119.33 -108.65,192.12 18.87,8.07 37.16,19.32 50.22,35.37 -21.11,-6.38 -42.54,-11.58 -64.37,-14.63 -6.4,-10.73 -6.98,-24.25 -12.57,-35.55 -22.89,-62.04 -69.44,-111.16 -118.96,-153.24 -73.97,-61.98 -155.24,-115.82 -221.56,-186.53 -39.63,-41.29 -72.89,-88.76 -98.22,-139.97zm-36.52 108.47l0 0c1.27,5.38 3.02,10.64 5.08,15.78 39.69,101.55 103.96,193.24 184.71,266.37 1.03,1.36 3.11,4.14 4.14,5.53 -12.85,-5.35 -24.91,-12.4 -36.97,-19.23 -52.45,-30.5 -102.39,-65.11 -151.1,-101.24 1.91,3.75 3.96,7.44 6.47,10.82 45.05,62.55 95.47,122.38 156.93,169.48 7.95,6.35 17.11,11.12 24.52,18.2 -30.69,-7.77 -59.31,-21.5 -88.21,-33.98 18.98,40.99 50.96,74.82 86.3,102.36 26.06,19.86 55.78,36.46 88.43,41.9 18.5,2.33 38.18,1.63 55.11,-6.96 24.43,-12.18 44.26,-35.91 47.31,-63.57 3.15,-29.26 -10.7,-57.2 -27.6,-80.14 -29.11,-38.67 -68.11,-68.54 -108.47,-94.57 -96.31,-59.64 -181.5,-137.97 -246.65,-230.75zm825.24 130.84l0 0c-49.85,28.72 -102.69,56.2 -139.79,101.49 -18.92,23.97 -31.32,52.42 -39.78,81.56 -0.82,3.05 -1.87,6.23 -1.06,9.4 15.81,-12.09 33.53,-22.58 53.3,-26.42 -8.34,47.37 -26.15,93.56 -54.36,132.71 35.86,-12.84 60.04,-45.04 76.28,-78.08 18.41,-37.52 36.82,-75.94 65.72,-106.72 25.39,-27.18 56.47,-48.52 89.9,-64.6 3.75,-1.72 7.17,-4.11 10.28,-6.86 -38.42,2.93 -75.39,14.42 -111.88,26.06 48.16,-29.75 92.72,-65.73 129.57,-108.84 5.59,-6.8 11.88,-13.15 15.96,-21.04 -29.66,22.95 -61.31,43.23 -94.14,61.34zm-572.9 -37.61l0 0c15.14,13.16 30.95,25.55 46.91,37.67 6.78,-12.27 12.28,-25.18 18.63,-37.67 -21.86,-0.18 -43.72,-0.18 -65.54,0zm646.3 99.43l0 0c-26.63,17.87 -53.93,35.43 -76.3,58.65 -18.44,18.87 -33.26,40.9 -45.86,64 -4.11,7.2 -8.13,14.45 -11.64,21.98 26.72,0 53.48,-0.3 80.23,0.15 -21.16,42.11 -41.75,84.49 -62.85,126.64 79.51,0.18 159.05,0.21 238.58,0 48.1,-97.8 96.92,-195.23 144.87,-293.09 -78.3,0.06 -156.6,-0.3 -234.89,0.18 -10.98,6.77 -21.2,14.72 -32.14,21.49zm-1001.18 54.45l0 0c29.92,0.51 59.85,-0.24 89.78,0.42 -20.98,-19.28 -41.08,-39.66 -58.56,-62.18 -11.21,20.13 -20.43,41.38 -31.22,61.76zm637.63 211.59l0 0c9.15,11.63 17.14,24.15 23.88,37.36 -23.61,-1.99 -47.86,1.39 -69.87,10.22 22.25,4.9 42.78,15.42 62.04,27.33 -14.48,9.16 -30.32,16.35 -43.2,27.9 41.41,9.7 80.68,27.09 116.69,49.58 -6.02,-12 -11.37,-24.34 -15.51,-37.09 18.17,-1.7 35.28,11.36 53,4.47 -2.88,-2.78 -5.84,-5.47 -8.8,-8.1 -8.29,7.01 -23.01,-0.03 -20.92,-11.13 0.06,-6.62 6.56,-9.61 11.76,-12 -2.87,-6.98 -8.44,-12.09 -13.21,-17.68 8.7,4.38 16.47,11.3 20.13,20.55 3.6,7.32 5.81,16.81 13.79,20.56 5.8,2.24 8.61,-4.38 13.81,-4.53 -1.48,3.65 -3.05,7.28 -4.74,10.88 7.34,-0.85 14.6,0.24 21.73,1.9 1.72,-13.54 -4.71,-26.36 -12.73,-36.79 -15.29,-19.41 -35.67,-34.04 -56.53,-46.88 -28.44,-16.48 -58.98,-30.09 -91.32,-36.55zm-419.85 22.82l0 0c-98.83,199.13 -197.11,398.53 -295.57,597.84 152.76,0.1 305.48,0 458.24,0.04 94.9,-0.37 190.21,1.93 284.56,-10.19 53.79,-7.47 109.05,-20.68 153.18,-53.96 41.69,-31.02 68.99,-76.61 92.54,-121.99 30.44,-60.76 60.22,-121.83 90.51,-182.68 -79.63,0.27 -159.28,-0.45 -238.91,0.45 -2.09,4.66 -4.23,9.25 -6.47,13.82 7.77,2.26 14.66,7.56 22.67,8.73 4.66,6.11 11.64,10.4 14.97,17.57 6.19,12.06 5.07,26.84 -0.25,39.03 -2.99,-10.98 -8.7,-24.19 -20.71,-27.21 2.27,15.57 -9.25,29.93 -23.88,33.89l-0.45 -4.54c8.19,-10.73 4.66,-30.68 -9.95,-33.25 -12.36,27.72 -26.78,54.42 -39.96,81.74 -9.01,20.59 -22.22,40.06 -40.99,52.88 -16.27,11.58 -36.31,17.2 -56.14,17.2 -118.93,-0.27 -237.86,0.36 -356.79,-0.3 19.74,-39.88 39.3,-79.81 59.13,-119.66 5.99,-14.6 15.42,-27.84 19.96,-42.99 -7.2,-1.72 -14.3,-3.8 -21.32,-6.1 -40.02,-13.85 -77.42,-39.45 -99.27,-76.34 71.43,-20.64 143.71,-48.46 198.94,-99.91 3.09,-2.63 5.63,-5.8 7.47,-9.4 -55.77,-10.82 -106.71,-39.24 -149.67,-75.82 -5.38,0.18 -10.76,0.33 -16.15,0.48 -8.55,0.7 -17.14,0.88 -25.69,0.67zm528.46 87.82l0 0 -0.09 -3.9c6.56,4.57 5.99,-7.44 -0.06,-2.18l0 -2.51 3.48 -2.66c-0.64,-1.63 -1.97,-4.92 -2.63,-6.56 -10.04,1.36 -11.61,16.93 -0.7,17.81zm-19.98 12.88l0 0c7.2,22.34 17.57,44.17 33.44,61.67 9.64,-5.99 10.4,-18.44 12.24,-28.54 -2.69,-1.78 -5.35,-3.54 -8.01,-5.32 1.57,9.64 1.57,19.47 0.24,29.14 -1.24,0.25 -3.69,0.67 -4.93,0.88 -7.31,-14.9 -14.05,-30.14 -19.68,-45.77 13.58,2.27 26.15,8.62 37.82,15.69 12.79,7.77 21.25,22.28 20.68,37.4 8.49,-5.38 17.72,-11.49 21.04,-21.53 3.05,-14.09 -5.35,-27.81 -15.42,-36.91 -11.57,-7.71 -26.66,-4.5 -39.39,-1.84 -12.85,5.41 -25.24,-3.87 -38.03,-4.87zm-125.15 59.25l0 0c14.39,15.33 33.46,24.43 51.51,34.49 -9.7,-0.03 -19.41,0.13 -29.05,0.52 9.58,9.79 23.43,13.84 36.3,17.5 8.53,1.51 17.63,4.42 26.21,1.6 -6.22,-18.53 -16.14,-35.58 -27.69,-51.27 -19.13,2.94 -38.3,-0.45 -57.28,-2.84zm-361.47 37l0 0c58.16,50.88 142.47,71.29 216.78,48.07 -9.46,-3.57 -19.53,-5.14 -28.96,-8.74 -38.33,-12.72 -74.82,-38 -90.45,-76.54 -29.02,19.71 -62.73,32.14 -97.37,37.21zm227.15 66.78l0 0c-33.04,13.46 -69.8,13.85 -104.84,10.58 -18.95,39.52 -38.64,78.7 -58.04,118 99.09,0.03 198.16,-0.04 297.26,0.03 12.18,0.09 24.42,-3.36 34.52,-10.22 15.18,-9.92 23.64,-26.73 31.08,-42.66 6.04,-13.75 13.78,-26.72 19.53,-40.6 -4.27,-6.8 -10.55,-11.7 -17.69,-15.2 5.17,26.84 -21.1,44.53 -43.5,51.06 9.61,-10.95 20.1,-23.49 19.2,-39.03 -0.21,-14.36 -14.57,-23.98 -27.88,-24.34 -17.53,-1.75 -33.89,10.98 -38.69,27.51 -7.53,-16.87 -8.16,-40.48 10.19,-50.6 -0.64,-7.38 -11.25,-10.95 -17.02,-15.03 -22.71,-2.9 -45.35,-9.31 -65.09,-21.19 -13.45,16.84 -24.07,36.1 -39.03,51.69zm121.89 -35.16l0 0c6.8,6.66 16.05,10.16 22.86,16.93 -6.35,3.99 -12.52,8.41 -17.48,14.12 14.09,-4.2 31.26,-7.92 43.75,2.3 10.09,6.77 14.08,18.5 19.98,28.51 0.63,-9.04 -0.27,-18.14 -3.63,-26.61 13.3,3.39 24.49,11.4 36.16,18.26 -17.75,-28.62 -52.73,-37.39 -81.08,-51.72 -6.11,-4.36 -13.73,-1.94 -20.56,-1.79zm94.44 9.68l0 0c9.13,4.17 18.38,7.98 27.57,12.03 -4.5,4.9 -8.92,9.98 -11.94,15.96 11.1,-4.95 23.73,-7.43 35.67,-4.08 11.1,3.36 19.59,11.67 27.27,19.92 -0.45,-6.89 -3.57,-13.12 -6.38,-19.22 10.1,2.45 19.56,6.83 29.24,10.61 -4.63,-7.74 -12.22,-13.06 -20.2,-16.87 -22.25,-10.91 -47.82,-12.43 -69.71,-24.19 -3.87,1.91 -7.68,3.87 -11.52,5.84z"/>
   <path class="fil2" d="M1281.75 1065.76c12.79,1 25.18,10.28 38.03,4.87 12.73,-2.66 27.82,-5.87 39.39,1.84 10.07,9.1 18.47,22.82 15.42,36.91 -3.32,10.04 -12.55,16.15 -21.04,21.53 0.57,-15.12 -7.89,-29.63 -20.68,-37.4 -11.67,-7.07 -24.24,-13.42 -37.82,-15.69 5.63,15.63 12.37,30.87 19.68,45.77 1.24,-0.21 3.69,-0.63 4.93,-0.88 1.33,-9.67 1.33,-19.5 -0.24,-29.14 2.66,1.78 5.32,3.54 8.01,5.32 -1.84,10.1 -2.6,22.55 -12.24,28.54 -15.87,-17.5 -26.24,-39.33 -33.44,-61.67zm-424.11 159.62c7.02,2.3 14.12,4.38 21.32,6.1 -4.54,15.15 -13.97,28.39 -19.96,42.99 -19.83,39.85 -39.39,79.78 -59.13,119.66 118.93,0.66 237.86,0.03 356.79,0.3 19.83,0 39.87,-5.62 56.14,-17.2 18.77,-12.82 31.98,-32.29 40.99,-52.88 13.18,-27.32 27.6,-54.02 39.96,-81.74 14.61,2.57 18.14,22.52 9.95,33.25 -12.18,22.89 -22.98,46.5 -34.62,69.68 -19.04,39.58 -58.76,69.75 -103.48,71.32 -134.1,0.33 -268.23,-0.12 -402.37,0.21 31.02,-64.12 62.82,-127.84 94.41,-191.69zm380.97 -22.07c3.84,-1.97 7.65,-3.93 11.52,-5.84 21.89,11.76 47.46,13.28 69.71,24.19 7.98,3.81 15.57,9.13 20.2,16.87 -9.68,-3.78 -19.14,-8.16 -29.24,-10.61 2.81,6.1 5.93,12.33 6.38,19.22 -7.68,-8.25 -16.17,-16.56 -27.27,-19.92 -11.94,-3.35 -24.57,-0.87 -35.67,4.08 3.02,-5.98 7.44,-11.06 11.94,-15.96 -9.19,-4.05 -18.44,-7.86 -27.57,-12.03zm-94.44 -9.68c6.83,-0.15 14.45,-2.57 20.56,1.79 28.35,14.33 63.33,23.1 81.08,51.72 -11.67,-6.86 -22.86,-14.87 -36.16,-18.26 3.36,8.47 4.26,17.57 3.63,26.61 -5.9,-10.01 -9.89,-21.74 -19.98,-28.51 -12.49,-10.22 -29.66,-6.5 -43.75,-2.3 4.96,-5.71 11.13,-10.13 17.48,-14.12 -6.81,-6.77 -16.06,-10.27 -22.86,-16.93zm157.56 -140.75c-10.91,-0.88 -9.34,-16.45 0.7,-17.81 0.66,1.64 1.99,4.93 2.63,6.56l-3.48 2.66 0 2.51 0.06 2.18 0.09 3.9zm-528.46 -87.82c8.55,0.21 17.14,0.03 25.69,-0.67 -94.47,191.82 -189.66,383.3 -283.98,575.21 182.71,0.12 365.43,-0.03 548.14,0.09 61.73,-1.12 123.83,-3.21 184.68,-14.42 48.37,-8.98 97.04,-26.97 132.44,-62.37 40.15,-40.51 64.09,-93.26 88.85,-143.78 17.2,-34.01 33.95,-68.2 50.58,-102.48 -61.88,0.36 -123.8,-0.57 -185.65,0.48 -8.01,-1.17 -14.9,-6.47 -22.67,-8.73 2.24,-4.57 4.38,-9.16 6.47,-13.82 79.63,-0.9 159.28,-0.18 238.91,-0.45 -30.29,60.85 -60.07,121.92 -90.51,182.68 -23.55,45.38 -50.85,90.97 -92.54,121.99 -44.13,33.28 -99.39,46.49 -153.18,53.96 -94.35,12.12 -189.66,9.82 -284.56,10.19 -152.76,-0.04 -305.48,0.06 -458.24,-0.04 98.46,-199.31 196.74,-398.71 295.57,-597.84zm783.4 -288.86c10.94,-6.77 21.16,-14.72 32.14,-21.49 78.29,-0.48 156.59,-0.12 234.89,-0.18 -47.95,97.86 -96.77,195.29 -144.87,293.09 -79.53,0.21 -159.07,0.18 -238.58,0 21.1,-42.15 41.69,-84.53 62.85,-126.64 -26.75,-0.45 -53.51,-0.15 -80.23,-0.15 3.51,-7.53 7.53,-14.78 11.64,-21.98 34.73,0.51 69.44,-1.51 104.17,-0.67 -20.89,42.57 -42.32,84.86 -62.94,127.58 63.1,0.33 126.19,0 189.28,0.15 41.51,-82.95 82.29,-166.27 123.58,-249.34 -77.3,-0.52 -154.63,0.18 -231.93,-0.37zm-1008.71 -65.66c4.68,7.83 9.46,15.63 14.12,23.49 -22.37,44.44 -43.96,89.3 -66.3,133.8 64.91,0.21 129.78,-0.27 194.69,0.25 1.99,7.55 4.26,15.02 6.59,22.52 -79.24,-0.43 -158.47,-0.03 -237.71,-0.21 29.27,-60.07 58.98,-119.93 88.61,-179.85zm292.57 -92.87c44.87,-1.63 89.82,-0.15 134.71,-0.75 18.65,-0.21 39.3,-0.24 54.75,11.82 13.03,10.94 14.69,30.02 10.13,45.47 -7.53,28.35 -22.89,53.74 -35.25,80.14 -5.99,-4.78 -11.88,-9.62 -17.87,-14.36 10.13,-25.15 25.85,-48.22 31.68,-75.04 1.27,-6.92 1.76,-15.96 -5.38,-19.92 -7.77,-4.53 -17.17,-4.96 -25.97,-5.38 -40.39,-0.15 -80.8,0.18 -121.22,-0.15 -9.8,-5.26 -16.84,-14.84 -25.58,-21.83zm-79.35 -339.7c129.87,-0.6 259.74,-0.03 389.61,-0.3 18.47,0.63 39.42,3.08 52.81,17.29 13.25,15.51 8.62,38.12 0.61,54.96 -13.63,28.66 -28.18,56.86 -41.96,85.43 -19.35,38.76 -63.97,57.38 -105.48,58.35 -105.41,0.06 -210.86,0.09 -316.3,0 -3.63,-7.41 -7.2,-14.82 -10.52,-22.34 108.89,-0.67 217.81,0.06 326.73,-0.37 31.2,-1.45 65.09,-13.27 82.2,-41.05 11.49,-22.04 22.37,-44.38 33.16,-66.72 6.59,-13.81 15.27,-27.18 17.27,-42.63 -0.52,-5.17 -2.03,-10.88 -6.96,-13.54 -10.55,-5.65 -22.91,-6.29 -34.64,-6.77 -123.83,-0.03 -247.68,0.06 -371.54,-0.03 -20.89,41.05 -40.45,82.77 -61.73,123.61 -3.36,-12.33 -6.5,-25.12 -6.74,-37.91 18.44,-35.67 35.76,-71.94 53.48,-107.98zm-142.18 -141.09c179.21,0.36 358.39,0.03 537.6,0.15 67.17,1.03 134.8,1.67 201.21,12.97 29.9,6.05 62.28,13.55 84.2,36.37 18.53,19.59 19.07,49.06 12.75,73.79 -10.67,42.36 -33.37,80.12 -51.69,119.38 -16.51,31.29 -29.33,65.12 -52.72,92.18 -34.89,42.38 -86.83,66.72 -139.43,78.75 -2.9,1.33 -7.89,0.27 -8.8,4.2 25.82,8.04 51.09,25.91 58.8,53.06 8.23,29.56 -2.08,60.19 -14.18,87.12 -20.22,41.18 -40.54,82.29 -61.06,123.34 -6.47,16.09 -16.9,30.02 -24.4,45.59 -7.1,13.21 -11.97,27.57 -20.47,40.03 -4.32,-6.89 -8.46,-13.91 -12.84,-20.77 28.99,-52.24 53.17,-107.02 80.65,-160.07 13.12,-27.94 31.53,-55.6 30.35,-87.76 0.34,-22.16 -12.96,-42.57 -31.01,-54.57 -25.88,-17.68 -57.26,-24.49 -87.67,-29.6 2.9,-0.99 5.77,-2.02 8.8,-2.75 43.62,-7.8 87.27,-18.11 127.72,-36.67 32.8,-15.11 63.58,-36.36 85.22,-65.63 13.43,-17.14 21.89,-37.36 31.81,-56.59 18.74,-40.66 41.99,-79.39 56.22,-122.01 5.35,-18.05 10.74,-38.36 2.42,-56.41 -8.28,-17.23 -27.02,-25.34 -44.07,-31.2 -35.89,-11.19 -73.65,-14.54 -110.98,-16.84 -38.12,-3.84 -76.49,-2 -114.67,-4.53 -176.79,0.24 -353.61,-0.28 -530.4,0.24 -140.3,283.78 -281.24,567.25 -421.08,851.24 149.85,0.12 299.71,0.09 449.56,0.03 26.06,-0.79 52.12,0.51 78.15,-0.76 7.98,-0.42 15.96,-0.48 23.97,-0.39 5.23,7.65 11.7,14.3 17.5,21.52 -159.74,2.91 -319.57,1.06 -479.34,1.58 -41.72,-0.09 -83.46,0.18 -125.18,-0.16 147.49,-298.34 295.02,-596.75 443.06,-894.83zm722.7 1038.55l0 0c3.87,2.03 7.77,2.03 11.7,0.06 -0.21,-4.44 -10.46,-3.35 -11.7,-0.06zm11.49 5.11l0 0c8.67,9.07 15.11,20.95 12.45,33.95 10.61,-10.46 2.51,-33.25 -12.45,-33.95z"/>
   <path class="fil3" d="M632.36 58.65c176.79,-0.52 353.61,0 530.4,-0.24 38.18,2.53 76.55,0.69 114.67,4.53 37.33,2.3 75.09,5.65 110.98,16.84 17.05,5.86 35.79,13.97 44.07,31.2 8.32,18.05 2.93,38.36 -2.42,56.41 -14.23,42.62 -37.48,81.35 -56.22,122.01 -9.92,19.23 -18.38,39.45 -31.81,56.59 -21.64,29.27 -52.42,50.52 -85.22,65.63 -40.45,18.56 -84.1,28.87 -127.72,36.67 -3.03,0.73 -5.9,1.76 -8.8,2.75 30.41,5.11 61.79,11.92 87.67,29.6 18.05,12 31.35,32.41 31.01,54.57 1.18,32.16 -17.23,59.82 -30.35,87.76 -27.48,53.05 -51.66,107.83 -80.65,160.07 -32.56,-50.21 -77.24,-90.9 -123.1,-128.69 12.36,-26.4 27.72,-51.79 35.25,-80.14 4.56,-15.45 2.9,-34.53 -10.13,-45.47 -15.45,-12.06 -36.1,-12.03 -54.75,-11.82 -44.89,0.6 -89.84,-0.88 -134.71,0.75 -37.85,-37.27 -75.15,-76.51 -100.06,-123.97 105.44,0.09 210.89,0.06 316.3,0 41.51,-0.97 86.13,-19.59 105.48,-58.35 13.78,-28.57 28.33,-56.77 41.96,-85.43 8.01,-16.84 12.64,-39.45 -0.61,-54.96 -13.39,-14.21 -34.34,-16.66 -52.81,-17.29 -129.87,0.27 -259.74,-0.3 -389.61,0.3 -17.72,36.04 -35.04,72.31 -53.48,107.98 -7.5,-45.1 -2.66,-91.53 7.74,-135.82 -6.11,4.71 -10.28,11.27 -14.57,17.53 -36.46,54.17 -51.28,121.77 -43.39,186.37 4.06,39.27 16.72,76.94 31.78,113.22 -7.02,-4.96 -11.7,-12.34 -17.02,-18.93 -48.89,-65.17 -72.16,-147.34 -72.68,-228.27 -4.65,5.44 -5.2,12.82 -7.19,19.41 -17.08,65.9 -19.44,137.52 4.53,202.03 8.32,23.31 21.59,44.26 34.95,64.85 -42.08,-19.93 -69.23,-61.73 -86.85,-103.42 -5.11,-9.98 -6.23,-21.68 -12.49,-30.99 -6.05,61.91 7.04,128.48 48.13,176.82 8.22,10.73 18.98,18.9 28.66,28.21 -1.42,2.2 -4.23,6.62 -5.66,8.82 -30.92,-7.74 -58.49,-24.85 -82.01,-46.01 4.23,25.03 14.96,48.28 26.33,70.77 -29.63,59.92 -59.34,119.78 -88.61,179.85 79.24,0.18 158.47,-0.22 237.71,0.21 14.39,42.29 37,81.29 63.78,116.9 -7.28,0.45 -14.57,1.06 -21.85,1.66 -26.03,1.27 -52.09,-0.03 -78.15,0.76 -149.85,0.06 -299.71,0.09 -449.56,-0.03 139.84,-283.99 280.78,-567.46 421.08,-851.24zm524.24 1066.36c18.98,2.39 38.15,5.78 57.28,2.84 11.55,15.69 21.47,32.74 27.69,51.27 -8.58,2.82 -17.68,-0.09 -26.21,-1.6 -12.87,-3.66 -26.72,-7.71 -36.3,-17.5 9.64,-0.39 19.35,-0.55 29.05,-0.52 -18.05,-10.06 -37.12,-19.16 -51.51,-34.49zm185.1 -49.58c1.24,-3.29 11.49,-4.38 11.7,0.06 -3.93,1.97 -7.83,1.97 -11.7,-0.06zm-40.12 -28.63c6.05,-5.26 6.62,6.75 0.06,2.18l-0.06 -2.18zm-502.62 -82.41c5.39,-0.15 10.77,-0.3 16.15,-0.48 42.96,36.58 93.9,65 149.67,75.82 -1.84,3.6 -4.38,6.77 -7.47,9.4 -55.23,51.45 -127.51,79.27 -198.94,99.91 21.85,36.89 59.25,62.49 99.27,76.34 -31.59,63.85 -63.39,127.57 -94.41,191.69 134.14,-0.33 268.27,0.12 402.37,-0.21 44.72,-1.57 84.44,-31.74 103.48,-71.32 11.64,-23.18 22.44,-46.79 34.62,-69.68l0.45 4.54c14.63,-3.96 26.15,-18.32 23.88,-33.89 12.01,3.02 17.72,16.23 20.71,27.21 5.32,-12.19 6.44,-26.97 0.25,-39.03 -3.33,-7.17 -10.31,-11.46 -14.97,-17.57 61.85,-1.05 123.77,-0.12 185.65,-0.48 -16.63,34.28 -33.38,68.47 -50.58,102.48 -24.76,50.52 -48.7,103.27 -88.85,143.78 -35.4,35.4 -84.07,53.39 -132.44,62.37 -60.85,11.21 -122.95,13.3 -184.68,14.42 -182.71,-0.12 -365.43,0.03 -548.14,-0.09 94.32,-191.91 189.51,-383.39 283.98,-575.21zm681.41 -229.54c22.37,-23.22 49.67,-40.78 76.3,-58.65 77.3,0.55 154.63,-0.15 231.93,0.37 -41.29,83.07 -82.07,166.39 -123.58,249.34 -63.09,-0.15 -126.18,0.18 -189.28,-0.15 20.62,-42.72 42.05,-85.01 62.94,-127.58 -34.73,-0.84 -69.44,1.18 -104.17,0.67 12.6,-23.1 27.42,-45.13 45.86,-64zm2.9 -120.47c32.83,-18.11 64.48,-38.39 94.14,-61.34 -4.08,7.89 -10.37,14.24 -15.96,21.04 -36.85,43.11 -81.41,79.09 -129.57,108.84 36.49,-11.64 73.46,-23.13 111.88,-26.06 -3.11,2.75 -6.53,5.14 -10.28,6.86 -33.43,16.08 -64.51,37.42 -89.9,64.6 -28.9,30.78 -47.31,69.2 -65.72,106.72 -16.24,33.04 -40.42,65.24 -76.28,78.08 28.21,-39.15 46.02,-85.34 54.36,-132.71 -19.77,3.84 -37.49,14.33 -53.3,26.42 -0.81,-3.17 0.24,-6.35 1.06,-9.4 8.46,-29.14 20.86,-57.59 39.78,-81.56 37.1,-45.29 89.94,-72.77 139.79,-101.49zm-825.24 -130.84c65.15,92.78 150.34,171.11 246.65,230.75 40.36,26.03 79.36,55.9 108.47,94.57 16.9,22.94 30.75,50.88 27.6,80.14 -3.05,27.66 -22.88,51.39 -47.31,63.57 -16.93,8.59 -36.61,9.29 -55.11,6.96 -32.65,-5.44 -62.37,-22.04 -88.43,-41.9 -35.34,-27.54 -67.32,-61.37 -86.3,-102.36 28.9,12.48 57.52,26.21 88.21,33.98 -7.41,-7.08 -16.57,-11.85 -24.52,-18.2 -61.46,-47.1 -111.88,-106.93 -156.93,-169.48 -2.51,-3.38 -4.56,-7.07 -6.47,-10.82 48.71,36.13 98.65,70.74 151.1,101.24 12.06,6.83 24.12,13.88 36.97,19.23 -1.03,-1.39 -3.11,-4.17 -4.14,-5.53 -80.75,-73.13 -145.02,-164.82 -184.71,-266.37 -2.06,-5.14 -3.81,-10.4 -5.08,-15.78zm36.52 -108.47c25.33,51.21 58.59,98.68 98.22,139.97 66.32,70.71 147.59,124.55 221.56,186.53 49.52,42.08 96.07,91.2 118.96,153.24 5.59,11.3 6.17,24.82 12.57,35.55 21.83,3.05 43.26,8.25 64.37,14.63 -13.06,-16.05 -31.35,-27.3 -50.22,-35.37 16.45,-72.79 53.93,-141.06 108.65,-192.12 58.8,-56.95 133.59,-92.38 204.94,-130.65 36.27,-19.87 72.88,-40.75 102.09,-70.5 5.59,-5.47 10.24,-11.88 16.35,-16.87 -18.53,44.32 -59.1,73.52 -98.7,97.83 -64.97,39.81 -135.62,76 -183.02,137.64 -53.15,69.8 -71.35,161.1 -63.94,247.29 -29.35,-10.86 -59.46,-20.83 -90.84,-23.46 9.04,14.93 19.62,28.87 27.81,44.32 -28.66,4.05 -56.11,15.05 -81.32,28.93 25.7,6.89 51.69,13.54 75.91,24.97 -0.33,0.75 -1,2.32 -1.36,3.08 -20.65,7.77 -38.79,20.53 -56.26,33.74 16.08,4.86 32.86,7.16 49.03,11.88 -13.24,1.78 -26.75,0.97 -39.9,3.75 -21.01,4.38 -42.26,8.07 -63.82,7.8 18.32,8.1 38.49,10.49 58.01,13.6 13.97,25.61 25.31,53.06 30.45,81.9 -23.28,4.89 -47.83,2.29 -70.08,-5.9 -3.87,-1.66 -8.46,-2.93 -10.67,-6.89 12.82,-0.12 25.7,0.93 38.45,-0.49 -34.07,-10.46 -68.65,-22.22 -97.31,-44.07 -4.5,-3.66 -9.88,-6.71 -12.51,-12.09 29.17,8.16 58.82,15.14 89,18.26 -33.35,-20.71 -67.06,-43.05 -90.06,-75.61 31.83,-16.33 60.79,-40.66 76.54,-73.37 17.66,-36.25 16.81,-79.03 5.2,-116.97 -10.64,-34.4 -28.17,-67.44 -54.69,-92.26 -58.4,-60.82 -132.8,-102.54 -196.19,-157.53 -70.08,-58.5 -120.44,-140.79 -137.22,-230.76z"/>
  </g>
 </g>
</svg>
