<?xml version="1.0" encoding="UTF-8"?>
<!DOCTYPE svg PUBLIC "-//W3C//DTD SVG 1.1//EN" "http://www.w3.org/Graphics/SVG/1.1/DTD/svg11.dtd">
<!-- Creator: CorelDRAW -->
<svg xmlns="http://www.w3.org/2000/svg" xml:space="preserve" width="2000px" height="1600px" version="1.1" style="shape-rendering:geometricPrecision; text-rendering:geometricPrecision; image-rendering:optimizeQuality; fill-rule:evenodd; clip-rule:evenodd"
viewBox="0 0 2000 1600"
 xmlns:xlink="http://www.w3.org/1999/xlink">
 <defs>
  <style type="text/css">
   <![CDATA[
    .fil1 {fill:#004685;fill-rule:nonzero}
    .fil2 {fill:#F47937;fill-rule:nonzero}
    .fil0 {fill:#FEFEFE;fill-rule:nonzero}
   ]]>
  </style>
 </defs>
 <g id="Capa_x0020_1">
  <metadata id="CorelCorpID_0Corel-Layer"/>
  <g id="Bucknell_x0020_Bison.cdr">
   <path class="fil0" d="M511.4 1089.52c28.43,-4.19 56.86,-8.39 85.31,-12.52 -8.66,8.14 -17.53,16.02 -26.37,23.97 -11.79,53.39 -23.48,106.81 -35.12,160.25 -4,18.41 -7.19,37.54 -16.9,54 -10.88,18.51 -29.33,31.64 -49.35,38.7 -26.39,8.56 -54.61,12.18 -82.2,8.56 -12.81,-2.1 -26.66,-8.16 -32.3,-20.65 -6.08,-13.04 -3.4,-27.89 -0.82,-41.43 12.26,-58.3 24.8,-116.56 37.11,-174.84 -5.52,-5.79 -11.01,-11.6 -16.23,-17.63 36.29,-4.74 72.49,-10.13 108.78,-14.8 -8.09,7.59 -16.18,15.19 -24.11,22.95 -10.37,48.66 -21.02,97.28 -31.59,145.89 -3.23,16.21 -7.97,32.18 -9.29,48.72 -0.44,6.02 1.74,13.25 7.89,15.6 10.12,3.54 21.15,1.68 31.38,-0.54 11.01,-2.58 21.07,-9.61 26.27,-19.77 7.63,-14.78 9.37,-31.58 13.29,-47.53 10.98,-50.44 22.07,-100.88 33,-151.32 -6.31,-5.81 -12.56,-11.68 -18.75,-17.61zm1368.16 -43.69c38.24,20.67 68.6,52.41 102.6,78.91 -37.57,-21.07 -77,-43.17 -102.6,-78.91zm-412.03 -259.48c3.54,-2.26 7.08,-4.52 10.65,-6.77 16.87,9.9 32.68,21.51 47.65,34.11 -24.15,-10.17 -50.59,-12.07 -76.46,-12.77 3.73,-3.02 7.51,-6.01 11.36,-8.91 9.33,1.6 18.66,3.11 28.03,4.47 -7,-3.52 -14.11,-6.86 -21.23,-10.13zm89.96 -50.48c7.08,-4.57 15.82,-1.76 23.04,1.07 13.48,5.45 27.9,11.64 36.35,24.13 12.35,-1.38 25.09,-1.57 37.13,1.99 5.82,1.72 11.86,4.45 15.32,9.75 -19.69,-1.59 -39.5,-2.54 -59.16,-0.06 -10.23,-12.25 -23.92,-22.96 -39.9,-26.02 -9.83,-2.16 -17.94,4.95 -22.53,12.83 0.88,-8.49 1.8,-18.66 9.75,-23.69zm-67.41 -141.86c-4.25,-9.48 0.84,-19.63 5.08,-28.14 2.6,5.66 5.49,11.18 8.76,16.46 -1.55,2.22 -5.47,3.52 -4.78,6.79 0.44,8.26 8.51,12.6 14.72,16.52 -8.7,-1.49 -19.18,-3 -23.78,-11.63zm387.53 -141.28c7.8,16.73 10.97,37.08 2.01,54.04 -11.74,22.5 -35.61,35.45 -58.91,43.06 3.78,-12.32 6.36,-24.99 8.64,-37.67 13.1,-1.3 26.48,-6.06 35.26,-16.29 10.32,-11.72 13.69,-27.9 13,-43.14zm-453.14 -97.68c-18.22,13.21 -35.94,28.83 -44.91,50 -6.39,14.51 -7.99,32.1 -0.31,46.44 7.86,15.3 27.48,19.98 34.54,35.95 2.84,5.37 0.11,12.88 -5.91,14.45 -20.5,4.11 -44.65,-3.86 -54.48,-23.31 -10.72,-21.51 -9.9,-48.14 0.39,-69.67 13.67,-27.69 41.87,-45.22 70.68,-53.86zm214.59 576.48c35.76,-5.2 71.44,-10.9 107.21,-16.06 -6.29,6.52 -12.75,12.88 -19.2,19.25 -1.89,2.07 -4.41,3.96 -4.91,6.92 -16.71,78.47 -33.35,156.98 -50.02,235.47 35.2,-3.56 66.75,-28.28 78.49,-61.68 9.62,-0.96 19.25,-1.72 28.89,-2.58 -5.79,27.72 -11.72,55.39 -17.32,83.13 -61.67,7.65 -123.37,15.01 -185.05,22.39 7.78,-7.99 16.75,-14.85 23.94,-23.36 18.05,-81.91 35.47,-163.98 53,-246.01 -5.16,-5.71 -10.13,-11.58 -15.03,-17.47zm25.03 14.59l0 0c-17.65,84.76 -35.18,169.52 -52.6,254.3 4.97,-0.57 9.98,-1.13 14.99,-1.68 17.09,-84.76 34.23,-169.51 51.36,-254.25 -4.61,0.52 -9.18,1.09 -13.75,1.63zm86.29 202.85l0 0c-16.65,19.1 -41.66,28.43 -65.93,33.15 -2.58,0.38 -5.06,1.3 -5.87,4 18.49,3.61 38.7,3.55 55.8,-5.26 15.83,-8.2 25.66,-25.32 26.98,-42.85 -5.93,0.4 -7.25,7.4 -10.98,10.96zm-302.56 -191.46c35.87,-5.01 71.74,-10.05 107.63,-15.01 -6.56,6.31 -13.14,12.6 -19.85,18.76 -2.12,2.01 -4.64,4.03 -4.87,7.19 -16.6,77.38 -33.29,154.76 -49.79,232.16 34.74,-3.69 66.52,-27.4 78.39,-60.48 9.64,-1.36 19.29,-2.62 28.95,-3.86 -6.16,27.76 -12.6,55.43 -18.53,83.23 -61.64,7.46 -123.29,14.95 -184.95,22.33 7.4,-7.15 15.28,-13.78 22.87,-20.74 2.18,-1.61 2.75,-4.34 3.36,-6.81 17.19,-79.77 34.67,-159.46 51.84,-239.23 -5.05,-5.82 -10.02,-11.71 -15.05,-17.54zm24.93 14.61l0 0c-17.82,84.72 -35.94,169.37 -53.71,254.11 4.97,-0.48 9.93,-1.01 14.92,-1.53 18.03,-84.78 35.89,-169.6 53.92,-254.38 -5.05,0.58 -10.1,1.17 -15.13,1.8zm93.14 204.19l0 0c-11.7,16.96 -32.51,24.55 -52.12,27.53 -4.4,1 -9.95,0.14 -12.95,4.28 17.23,4.71 37.27,5.8 52.91,-4.18 11.09,-7 17.11,-19.64 19.1,-32.24 -3.79,-1.47 -4.99,2.6 -6.94,4.61zm-309.62 -191.82c58.78,-8.47 117.65,-16.38 176.48,-24.66 -5.27,24.49 -10.74,48.96 -16.15,73.42 -10.04,1.24 -20.06,2.47 -30.08,3.78 1.78,-9.17 4.05,-20.32 -4.02,-27.26 -11.93,-13.46 -31.41,-11.15 -47.3,-8.61 -7.32,34.9 -14.91,69.76 -22.08,104.69 25.64,-6.6 38.54,-33.04 47.4,-55.7 4.28,-0.55 8.56,-0.99 12.86,-1.45 -7.4,35.64 -15.62,71.11 -23.38,106.67 -3.75,0.8 -7.46,1.66 -11.17,2.51 -1.39,-6.58 -3.42,-13.69 -9.27,-17.67 -6.41,-4.99 -14.9,-4.93 -22.62,-4.95 -6.6,29.96 -13.21,59.92 -19.71,89.9 16.29,-2.66 32.85,-7.11 46.31,-17.07 7.47,-5.74 14.74,-11.97 20.42,-19.56 5.83,-7.54 7.78,-17.12 12.71,-25.19 9.68,-1.33 19.39,-2.6 29.12,-3.59 -8.03,27.57 -16.06,55.22 -22.48,83.23 -60.04,7.5 -120.1,14.97 -180.16,22.33 8.28,-7.45 16.22,-15.27 24.36,-22.88 17.21,-80.02 34.42,-160.04 51.72,-240.06 -4.72,-5.89 -10.07,-11.28 -14.51,-17.36 0.08,-0.67 0.25,-2.01 0.33,-2.68l1.22 2.16zm88.13 2.76l0 0c1.49,4.49 6.54,2.44 9.94,3.02 13.77,0.09 29.46,2.12 39.29,12.83 3.96,3.59 2.81,11.26 8.7,12.67 1.61,-10.95 1.95,-25.2 -9.08,-31.47 -15.39,-8.05 -33.46,-2.22 -48.85,2.95zm-64.11 12.12l0 0c-17.14,80.61 -34.15,161.24 -51.44,241.81 5.01,-0.57 10.06,-1.11 15.11,-1.62 16.75,-80.71 33.5,-161.4 50.15,-242.14 -4.63,0.65 -9.22,1.28 -13.82,1.95zm79.46 200.05l0 0c-10.94,20.08 -33.86,29.32 -55.37,32.7 -4,1.22 -10.27,-0.27 -11.67,4.88 16.81,3.46 35.91,5.5 51.3,-3.81 11.27,-6.69 17.16,-19.41 19.07,-31.95 -0.84,-0.46 -2.51,-1.36 -3.33,-1.82zm-170.59 -204.97c20.44,-2.77 40.84,-5.94 61.28,-8.62 -7.06,6.5 -14.49,12.58 -21.8,18.83 -1.91,1.82 -4.53,3.41 -4.95,6.26 -18.43,85.98 -36.65,172.02 -55.09,258.01 -21.16,2.43 -42.31,4.89 -63.46,7.42 -16.19,-62.62 -32.69,-125.17 -49,-187.77 -12.99,59.56 -26.2,119.07 -39.07,178.65 6.22,5.94 12.57,11.72 18.8,17.68 -20.94,2.34 -41.82,5.11 -62.79,7.4 10.95,-51.43 21.87,-102.85 32.81,-154.28 8.37,-40.48 17.67,-80.75 25.29,-121.36 26.49,-3.73 52.99,-7.46 79.51,-11.13 13.15,54.92 25.64,110.06 39.37,164.86 12.94,-58.68 25.96,-117.32 39.1,-175.95zm7.53 16.87l0 0c-17.21,80.25 -33.57,160.69 -50.42,241.03 4.59,-0.63 9.22,-1.22 13.84,-1.82 17.08,-80.17 34.27,-160.32 51.32,-240.49 -4.95,0.4 -9.84,0.88 -14.74,1.28zm-160.69 22.48l0 0c-16.71,80.35 -33.42,160.69 -50.21,241.02 5.05,-1.15 10.1,-2.28 15.17,-3.37 16.65,-79.81 33.51,-159.58 50.05,-239.41 -5.01,0.56 -10.02,1.15 -15.01,1.76zm28.24 4.52l0 0c-1.22,9.31 -5.75,18.52 -4.2,27.97 17.17,63.19 34.32,126.37 51.37,189.58 4.54,-0.59 9.11,-1.15 13.69,-1.72 -19.06,-71.86 -38.18,-143.73 -57.32,-215.6 -0.9,-0.04 -2.66,-0.16 -3.54,-0.23zm-152.94 -5.53c30.46,-4.17 60.86,-8.72 91.36,-12.47 -11.53,11.3 -24.95,20.79 -34.63,33.85 -26.39,33 -53.21,65.68 -79.31,98.91 19.08,39.23 37.44,78.79 56.25,118.14 4.67,8.41 12.07,14.82 18.05,22.26 -37.44,4.61 -74.89,9.18 -112.33,13.75 6.46,-7.35 13.29,-14.36 20.02,-21.44 -11.53,-24.97 -22.6,-50.13 -34.06,-75.14 -5.94,27 -11.2,54.13 -17.15,81.11 5.38,6 11,11.76 16.31,17.8 -36.61,4.55 -73.19,9.27 -109.81,13.65 8,-8.87 18.49,-15.81 25.34,-25.51 16.92,-76.69 33.61,-153.46 50.23,-230.21 -3.37,-6.23 -6.71,-12.46 -9.91,-18.75 34.44,-4.46 68.86,-9.2 103.33,-13.6 -7.8,8.47 -16.96,15.6 -24.61,24.17 -7.61,30.48 -13.84,61.36 -20.9,91.99 25.87,-34.21 52.01,-68.2 77.88,-102.41 -5.37,-5.37 -10.73,-10.71 -16.06,-16.1zm28.87 13.27l0 0c-34.43,44.13 -68.93,88.18 -103.48,132.2 17.34,34.85 34.25,69.9 51.82,104.64 4.57,-0.53 9.14,-1.07 13.73,-1.56 -16.47,-34.65 -33.29,-69.14 -49.87,-103.73 34.8,-44.53 69.66,-89.01 104.51,-133.52 -5.58,0.67 -11.16,1.32 -16.71,1.97zm-128.64 18.66l0 0c-16.41,77.74 -32.68,155.49 -48.93,233.25 4.99,-0.59 10,-1.18 14.99,-1.74 16.39,-78.3 32.68,-156.63 49.03,-234.93 -5.05,1.13 -10.08,2.27 -15.09,3.42zm-556.23 -26.1c27.32,-3.33 55.14,-9.04 82.58,-3.92 11.03,2.45 23.84,7.17 28.05,18.72 5.33,14.78 4.68,31.01 2.52,46.35 -4.19,23.27 -11.66,45.91 -21.32,67.48 -7.09,17.2 -21.8,29.9 -37.26,39.52 17.07,6.19 27.34,23.38 29.73,40.72 4.66,29.77 -6.12,59.83 -23.21,83.94 -15.09,22.79 -39.56,37.73 -65.24,45.85 -27.73,8.87 -56.98,10.84 -85.72,14.25 -17.11,1.83 -34.19,3.99 -51.3,5.7 6.92,-6.98 14.13,-13.62 21.28,-20.35 1.61,-1.74 3.83,-3.21 4.17,-5.73 21.72,-101.08 43.12,-202.28 64.93,-303.35 -5.6,-6.64 -11.55,-13 -16.73,-19.98 22.45,-3.48 45.03,-6.08 67.52,-9.2zm65.6 10.33l0 0c1.47,4.34 4.86,7.84 5.79,12.41 2.62,13 0.69,26.36 -1.2,39.31 -4.92,27.91 -11.99,55.68 -23.98,81.47 -4.07,8.76 -9.43,17.06 -17.02,23.23 1.53,1.05 3.5,2.45 5.32,0.9 12.77,-6.37 21.09,-18.64 28.22,-30.52 11.72,-20.46 19.56,-43.09 23.96,-66.21 2.75,-16.1 2.79,-33.56 -4.44,-48.53 -3.36,-5.94 -9.06,-13.04 -16.65,-12.06zm-106.62 14.41l0 0c-21.49,102.89 -43.36,205.72 -64.89,308.63 5.01,-0.6 10,-1.17 14.99,-1.72 21.74,-102.8 43.29,-205.63 64.99,-308.44 -5.03,0.46 -10.06,0.98 -15.09,1.53zm57.31 4.57l0 0c-9.28,44.19 -18.74,88.36 -28.19,132.51 10.42,-1.44 21.09,-2.24 31.04,-5.83 5.48,-1.9 7.74,-7.79 10.15,-12.51 6.96,-15.85 11.62,-32.58 15.72,-49.35 4.11,-18.79 8.56,-37.78 7.89,-57.13 -0.11,-3.33 -0.34,-7.04 -2.92,-9.48 -11.21,-1.44 -22.51,0.55 -33.69,1.79zm18.12 149.83l0 0c3.62,4.36 6.27,9.49 6.5,15.28 2.05,23.36 -2.65,46.75 -9.33,69.04 -6.44,20.27 -13.94,41.19 -29.58,56.31 8.4,0.63 14.55,-6.31 20.1,-11.6 16.42,-18.09 26.1,-41.36 31.95,-64.82 4.72,-18.87 6.23,-40.86 -5.14,-57.69 -3.31,-3.94 -9.05,-9.6 -14.5,-6.52zm-53.65 15.93l0 0c-8.28,39.94 -16.5,79.9 -24.72,119.86 11.72,-1.49 23.69,-2.29 34.95,-6.08 9.47,-3.36 14.21,-13.17 17.92,-21.81 9.37,-23.52 13.11,-48.84 15.6,-73.88 0.06,-6.6 1.05,-16.79 -6.98,-19.09 -12.03,-3.11 -24.63,-0.4 -36.77,1zm498.34 -167.94c13.63,-4.43 27.13,-9.17 40.8,-13.46 -6.94,31.49 -14.19,62.89 -20.99,94.4 -12.07,1.76 -24.15,3.38 -36.24,5.03 1.88,-14.72 1.84,-29.96 -1.6,-44.44 -2.16,-7.24 -5.97,-16.15 -14.38,-17.47 -11.36,-1.74 -22.01,4.76 -29.89,12.35 -11.74,10.99 -16.77,26.79 -21.35,41.74 -6.75,24.61 -12.6,49.48 -17.31,74.55 -4.82,24 -11.32,48.2 -9.5,72.92 0.27,6.66 4.03,14.25 11.32,15.24 14.51,1.69 28.45,-6.25 37.38,-17.26 12.43,-15.34 21.11,-33.48 28.01,-51.86 10.02,-1.2 20.02,-2.48 30.02,-3.74 -6.33,30.28 -13.27,60.42 -19.73,90.68 -11.11,-1.51 -22.18,-3.28 -33.29,-4.87 -18.34,14.76 -42.91,20.55 -65.97,16.58 -18.18,-3.56 -34.68,-15.45 -43.25,-31.92 -8.83,-18.22 -9,-39.06 -7.65,-58.83 3.52,-46 23.56,-89.52 51.61,-125.66 17.95,-22.62 39.79,-43.33 66.83,-54.51 17.45,-6.71 38.5,-9.91 55.18,0.53zm-77.8 24.99l0 0c-31.15,24.21 -54.52,57.63 -69.64,93.87 -12.91,32.21 -18.53,68.62 -9.69,102.58 3.51,15.77 17.05,26.77 30.59,34.13 0.04,-5.13 -4.09,-8.68 -6.33,-12.87 -8.49,-14.55 -10.59,-31.82 -10.36,-48.39 0.95,-34.84 10.51,-69.01 24.8,-100.65 11.3,-25.09 26.13,-48.9 46.02,-68.07 1.76,-4.17 -3.94,-2.51 -5.39,-0.6zm-117.77 10.79l0 0c-12.73,61.3 -25.5,122.6 -38.24,183.9 -3.9,19.62 -15.12,38.32 -32.39,48.89 -2.64,1.49 -4.89,3.52 -5.62,6.63 25.93,-6.13 45.58,-28.89 52.58,-53.95 13,-62.32 25.76,-124.67 38.7,-187 -5.01,0.5 -10.02,1.03 -15.03,1.53zm-171.24 185.62l0 0c-3.17,15.12 -7.91,31.11 -2.29,46.29 4.03,12.81 16.08,21.8 29.21,23.56 -0.42,-5.24 -6.29,-6.62 -9.29,-10.1 -9.1,-9.62 -10.29,-24.17 -7.65,-36.6 12.93,-63.95 26.37,-127.8 39.22,-191.74 -4.9,0.46 -9.83,0.94 -14.74,1.38 -11.78,55.68 -22.93,111.49 -34.46,167.21z"/>
   <path class="fil1" d="M1423.71 560.4c30.69,-0.02 64.07,-10.78 81.62,-37.55 2.62,25.24 11.82,51.53 32.05,68.01 14.24,11.68 33.29,15.05 51.26,14.07 -11.24,4.99 -22.5,9.87 -33.65,14.99 0.9,25.28 -0.92,51.13 -10.33,74.86 -3.67,-25.2 -9.36,-50.5 -20.93,-73.35 -11.86,1.17 -24.78,-0.21 -34.4,-7.84 -10.02,-7.43 -12.01,-20.93 -20.86,-29.35 -11.49,-13.19 -28.68,-18.62 -44.76,-23.84zm-442.51 804.7c23.35,-2.33 46.56,-6.54 70.02,-7.55 -1.14,4.99 -1.51,10.27 -3.67,14.99 -2.69,2.56 -6.65,2.49 -10.04,3.19 -19.96,2.38 -39.94,4.84 -59.88,7.29 1.13,-6 2.31,-11.97 3.57,-17.92zm8.51 -26.4c22.05,-2.28 43.96,-5.74 66.08,-7.46 -0.55,2.7 -1.05,5.41 -1.57,8.15 -22.98,4.07 -46.29,6.08 -69.46,9 1.11,-3.38 -0.5,-10.17 4.95,-9.69zm410.94 -48.87c28.14,-3.6 56.25,-7.33 84.38,-10.96 -2.72,13.79 -5.74,27.53 -8.38,41.34 -28.14,3.57 -56.27,7.34 -84.41,10.95 2.54,-13.82 5.54,-27.57 8.41,-41.33zm-1164.59 -56.14c12.14,-1.4 24.74,-4.11 36.77,-1 8.03,2.3 7.04,12.49 6.98,19.09 -2.49,25.04 -6.23,50.36 -15.6,73.88 -3.71,8.64 -8.45,18.45 -17.92,21.81 -11.26,3.79 -23.23,4.59 -34.95,6.08 8.22,-39.96 16.44,-79.92 24.72,-119.86zm35.53 -165.76c11.18,-1.24 22.48,-3.23 33.69,-1.79 2.58,2.44 2.81,6.15 2.92,9.48 0.67,19.35 -3.78,38.34 -7.89,57.13 -4.1,16.77 -8.76,33.5 -15.72,49.35 -2.41,4.72 -4.67,10.61 -10.15,12.51 -9.95,3.59 -20.62,4.39 -31.04,5.83 9.45,-44.15 18.91,-88.32 28.19,-132.51zm909.71 -442.48c45.54,1.81 90.92,8.24 135.12,19.37 42.78,11.03 84.88,26.77 121.8,51.45 -18.32,5.32 -36.73,10.25 -55.16,15.12 -59.26,-39.21 -126.96,-64.97 -196.5,-78.79 -3.79,-0.08 -3.62,-4.84 -5.26,-7.15zm-273.67 -171.72c35.14,-7.5 72.16,0.25 103.63,16.77 -32.06,-0.62 -64.36,1.85 -95.6,9.31 -19.54,5.01 -39.18,11.95 -55.2,24.57 -13.12,11.3 -24.78,24.18 -37.5,35.91 -38.62,37.95 -78.68,75.52 -126.21,102.16 -19.71,11.37 -40.73,20.17 -61.95,28.24 -7.65,7.42 -8.03,19.48 -8.41,29.54 1.09,41.01 25.81,81.93 64.55,97.51 22.64,10.1 48.24,8.4 72.04,3.88 37.94,-7.66 73.1,-25.29 105.24,-46.44 3.56,-2.39 7.63,-3.94 11.8,-4.93 21.7,-5.38 44.38,-8.97 66.71,-5.4 -1.61,-3.84 -3.1,-7.72 -4.63,-11.58 -20.59,-2.24 -41.26,-0.19 -61.72,1.97 -9.58,0.25 -16.5,7.7 -24.62,11.74 -38.25,21.89 -82.47,39.21 -127.29,32.56 -34.91,-4.86 -64.88,-27.88 -83.94,-56.79 28.57,16.69 62.22,27.34 95.49,21.59 44.32,-7.17 81.39,-35.22 114.26,-64.11l1.02 -0.23c25.79,12.16 53.93,23.69 83.02,19.83 0.53,-14.88 8.2,-30.16 21.74,-37.12 21.14,1.36 40.51,11.59 56.98,24.36 3,-8.66 -1.9,-17.01 -8.82,-21.93 -9.35,-7.55 -20.92,-11.78 -29.88,-19.86 33.3,-1.4 67.22,2.23 98.98,12.52 -10,-8.85 -21.28,-16 -33.52,-21.26 -12.98,-3.1 -26.38,-1.61 -39.52,-2.16 -14.74,-3.94 -26.9,-14.04 -41.45,-18.47 -16.29,-5.22 -33.25,-11.15 -50.61,-8.86 -7.82,0.88 -12.93,7.29 -18.34,12.26 -12.75,12.03 -26.33,23.35 -41.36,32.43 -5.39,3.38 -11.91,3.71 -18.05,4.22 -20.3,1.25 -40.82,0.39 -60.74,-3.82 -19.68,8.32 -40.02,15.97 -61.3,18.8 9.92,-10.58 21.68,-19.26 33.52,-27.56 12.9,-8.49 26.75,-16.65 42.29,-18.81 18.64,-0.38 37.34,2.54 55.93,1.57 13.84,-8.78 25.81,-20.27 36.56,-32.57 6.17,-7.13 16.02,-9.04 24.97,-9.48 24.26,-0.99 47.91,5.6 71.22,11.38 9.52,2.18 17.99,7.07 26.43,11.72 19.08,8.83 40.76,5.87 60.82,10.46 24.32,6.63 47.8,15.92 71.22,25.12 14.93,5.18 26.12,16.9 37.44,27.38 11.18,11.51 23.42,22.62 31.3,36.75 -1.74,35.24 -5.03,71.07 -17.06,104.51 -24.13,-15.27 -48.29,-30.49 -72.35,-45.85 17.88,23.16 36.25,45.93 54.25,68.97 -68.45,4.61 -136.96,-8.3 -202.28,-27.97 -3.15,-1.36 -7.61,-1.34 -9.25,-4.84 -6.39,-12.22 -9.41,-25.79 -13.83,-38.76 -34.53,0.88 -64.78,19.81 -93.8,36.54 -18.05,11.7 -37.34,21.7 -58.15,27.48 -20.15,5.66 -41.07,10.19 -62.12,8.93 -24.76,-2.13 -48.28,-11.51 -69.92,-23.33 -13.94,-7.92 -27.67,-16.79 -38.63,-28.64 -9.65,-10.44 -10.26,-26.77 -21.58,-35.8 -2.3,-11.39 -4.34,-22.79 -6.56,-34.18 -0.73,-2.93 -0.31,-5.91 0.86,-8.63 -2.03,-14.05 -3.92,-29.69 4.03,-42.33 9.05,-14.32 25.66,-20.71 40.9,-26.19 14.32,-4.71 24.63,-16.33 37.67,-23.35 33.06,-17.25 61.11,-42.14 90.92,-64.17 17.38,-12.33 31.34,-28.64 47.28,-42.66 26.48,-24.24 57.36,-45.69 93.12,-52.9zm840.38 -65.87c24.15,34.53 29.98,78.75 26.62,119.92 -1.04,19.58 -9.89,38.78 -24.96,51.47 -24.47,20.44 -57.41,26.7 -88.45,27.56 16.68,-24.08 35.24,-47.71 45.18,-75.59 6.41,12.68 8.02,27.63 4.63,41.44 17.48,-10.88 27.04,-30.33 32.33,-49.58 10.27,-37.5 8.4,-76.92 4.65,-115.22zm-672.87 -247.19l38.61 0c89.96,4.3 175.83,39.75 249.69,89.94 85.49,-10.25 173.5,-3.4 255.68,22.7 18.58,6.04 36.79,13.17 54.49,21.43 -2.39,-8.64 -4.89,-17.21 -7.26,-25.83 61.68,21.78 118.18,63.21 150.82,120.67 17.84,31.01 26.67,66.4 29.2,101.89 6.02,-6.31 11.07,-13.86 12.75,-22.56 3.86,-16.29 -0.57,-32.89 -5.07,-48.53 21.97,18.72 41.99,41.01 53.14,67.97 7.97,18.99 8.85,41.84 -1.74,60.02 -12.47,22.32 -35.37,36.05 -57.86,46.64 -11.82,5.83 -24.61,9.31 -36.73,14.32 -8.83,13.19 -20.04,24.95 -34.57,31.87 4.34,13.41 5.33,28.03 1.45,41.67 -4.45,16.36 -14.55,30.59 -26.75,42.12 -16.23,16.37 -32.85,34.93 -36.8,58.47 -2.91,11.76 -3.66,25.39 -13.22,34.09 -11.72,11.28 -29.02,12.72 -44.47,12.54 -3.29,11.4 -11.93,20.56 -22.83,25.05 -20.65,8.78 -43.86,7.42 -65.64,4.63 4.28,12.64 3.56,27.28 -4.65,38.22 -14.43,19.62 -38.7,27.94 -61.28,34.09 45.28,-5.66 90.35,-13.11 135.55,-19.48 71.62,-10.48 143.23,-21 214.83,-31.49 -24.66,26.23 -50.11,51.74 -74.95,77.8 24.86,5.89 37.94,30.25 59.7,41.62 22.46,12.95 49.14,13.5 74.32,13.2 21.14,13.36 38.45,32.29 52.96,52.52 20.67,29.22 33.08,64.13 35.49,99.83l0 18.32c-23.69,-13.31 -47.73,-25.97 -71.57,-39.01 14.63,18.57 29.24,37.15 43.71,55.87 -52.2,22.1 -111.53,20.23 -165.62,6.41 -9.96,46.8 -19.71,93.63 -29.62,140.45 -356.56,43.77 -713.15,87.27 -1069.69,131.21l-7.75 0c55.19,-34.82 110.1,-70.1 165.22,-105.07 -288.24,33.58 -576.46,67.31 -864.68,100.98l0 -0.88c29.2,-27.88 58.24,-55.95 87.48,-83.77 5.33,-4.59 5.08,-12.18 6.75,-18.45 18.58,-88.24 37.28,-176.44 55.96,-264.65 -23.15,-21.14 -46.35,-42.21 -69.5,-63.32 42.58,-6.56 85.18,-13.14 127.78,-19.64 -32.54,-17.84 -62.66,-42.56 -80.57,-75.6 -13.64,-25.03 -17.06,-55.22 -9.51,-82.7 9.28,-34.28 31.48,-63.69 57.52,-87.21 20.42,-18.22 43.48,-33.76 68.76,-44.39 13.42,-5.82 28.41,-7.63 41.14,-15.15 8.32,-4.78 16.35,-11.74 18.7,-21.43 2.49,-9.14 -1.07,-18.7 -6.35,-26.14 -7.87,-11.72 -21.95,-17.76 -28.56,-30.48 -8.66,-15.35 -7.02,-33.73 -3.33,-50.28 16.04,7.74 32.68,14.7 50.38,17.57 -22.33,-15.47 -42.14,-38.43 -44.37,-66.56 -2.64,-29.64 13.59,-56.83 32.44,-78.3 5.22,36.27 18.4,73.39 45.97,98.74 15.14,14.24 35.07,22.01 55.33,25.37 11.95,8.43 21.11,20.63 28.21,33.33 9.96,17.8 11.41,40.71 1.41,58.83 -12.47,23.37 -35.47,38.63 -58.16,50.96 -23.29,12.6 -46.96,24.49 -70.85,35.96 -30.57,15.53 -62.37,29.66 -89.25,51.32 -17.55,13.9 -31.47,33.25 -35.98,55.45 -4.46,22.18 -2.91,46.83 9.79,66.18 12.71,19.92 35.5,31.2 58.24,35.14 15.45,2.39 32.44,3.25 46.52,-4.68 0.82,-16.14 3.71,-32.11 7.4,-47.84 14.83,-63.16 46.27,-123.1 93.25,-168.28 16.75,-16.98 36.69,-30.29 54.87,-45.64 43.1,-35.7 84.29,-74.92 115.01,-122.1 9.33,-13.94 15.93,-29.58 26.12,-42.95 18.78,-25.6 39.22,-49.96 61.05,-73 20.29,-20.8 41.42,-41.51 67.13,-55.55 -15.12,-3.9 -30.17,-8.1 -45.25,-12.14 19.29,-27.32 41.66,-52.27 64.93,-76.21 44.97,-44.95 95.62,-84.67 152.06,-114.21 56.35,-29.79 118.84,-48.43 182.62,-51.87zm-162.35 103.44c-54.3,28.7 -104.95,64.51 -149.77,106.54 18.55,7.26 36.33,16.25 53.9,25.6 -17.26,7.76 -32.22,19.5 -47,31.09 -42.65,34.59 -81.47,73.79 -116.57,115.97 -23.66,28.87 -45.63,59.38 -62.81,92.6 -12.64,24.62 -27.92,48.12 -47.14,68.14 -19.58,20.5 -44.05,37.73 -72.33,43.16 -27.78,18.28 -51.34,42.71 -70.8,69.6 -40.56,57.3 -60.86,128.12 -60.08,198.08 19.39,1.82 39.68,6.1 54.95,19.01 11.21,9.16 17.02,23.59 17.15,37.9 100.37,-14.06 200.75,-28.07 301.15,-41.94 -0.61,-32.81 -11.68,-65.56 -32.6,-91.01 -27.53,-33.9 -67.88,-55.16 -109.56,-66.25 32.52,-9.54 68.34,-4.82 98.24,10.69 9.26,5.31 17.55,12.33 27.55,16.31 27.38,12.25 59.41,10.3 86.66,-1.25 18.91,-7.2 34.57,-20.68 53.44,-27.99 35.01,-14.7 75.98,-15.05 110.94,0 -40.02,31.82 -78.57,65.99 -111.17,105.49 82.79,-33.88 171.93,-54.38 261.7,-52.62 42.05,0.65 84.44,5.72 124.57,18.72 -13.17,10.92 -26.56,21.57 -39.79,32.41 79.94,-21.05 162.64,-28.87 244.99,-32.6 -14.74,-4.97 -29.9,-8.61 -45.28,-10.96 -42.88,-6.65 -86.44,-7.19 -129.71,-5.41 7.69,-6.48 15.47,-12.85 23,-19.54 -37.03,-16.92 -78.05,-21.99 -118.26,-24.69 35.28,-36.4 80.79,-63.3 130.27,-74.81 -5.77,-46.52 -25.62,-91.28 -56.73,-126.37 53.35,20.8 95.81,64.57 120.46,115.66 30.06,-33.14 76.69,-44.93 120.02,-44.95 -36.46,9.71 -69.45,34.53 -85.45,69.14 -1.97,6 -8.64,7.53 -13.75,9.84 -26.63,9.87 -55.45,12.66 -83.67,10.86 -25.56,-1.33 -53.19,4.88 -71.55,23.79 24.71,-3.12 50.25,-5.07 74.59,1.59 9.48,2.39 17.8,7.89 27.21,10.53 21.11,6.2 43.48,5.57 65.18,3.52 -23.57,12.12 -50.13,16.04 -76.16,18.91 27.58,8.36 56.75,10.29 85.43,9.08 33.06,-1.85 66.52,-7.53 96.73,-21.55 9.49,-5.01 20.64,-10.76 24.25,-21.62 2.62,-11.7 -9.14,-19.12 -18.57,-22.37 -24.66,-8.43 -51.16,-9.24 -76.96,-9.33 16.16,-25.41 39.56,-47.94 69.16,-56.29 5.22,8.54 11.28,16.84 19.62,22.62 16.18,11.87 37.53,14.3 56.9,10.86 -17.68,-6.35 -35.81,-17.42 -42.08,-36.16 -6.85,-17.88 4.24,-42.14 24.32,-44.47 17.63,-1.32 35.12,6.57 48.6,17.53 7.59,8.74 17.63,15.56 29.05,18.01 17.97,1.05 36.63,-1.17 53.78,5.56 -1.49,-18.45 13.45,-32.35 25.7,-43.97 22.62,-18.4 36.33,-47.15 35.66,-76.39 -7.99,1.95 -15.91,4.11 -23.86,6.18 -1.53,20.67 -14.9,39.02 -32.2,49.73 -14.11,8.51 -23.21,22.71 -32.26,36.02 -2.67,-22.33 6.52,-44.15 18.55,-62.46 8.2,-12.89 6.29,-29.07 4.4,-43.45 31.43,1.11 64.34,-4.47 90.78,-22.41 24.06,-16 39.81,-42.65 44.8,-70.89 6.58,-36.58 1.19,-74.75 -12.08,-109.28 -15.15,-38.58 -43.6,-72.77 -81.23,-90.99 -0.13,8.62 -0.11,17.23 -0.11,25.85 -61.78,-45.41 -137.44,-68.32 -213.02,-76.33 -93.48,-9.54 -188.43,0.1 -279.28,23.35 22.18,-25.97 49.35,-47.1 77.67,-65.91 -59.21,-32.85 -127.8,-47.97 -195.33,-43.56 -68.11,4.17 -134.04,26.39 -194.21,57.88zm964.82 208.62c0.69,15.24 -2.68,31.42 -13,43.14 -8.78,10.23 -22.16,14.99 -35.26,16.29 -2.28,12.68 -4.86,25.35 -8.64,37.67 23.3,-7.61 47.17,-20.56 58.91,-43.06 8.96,-16.96 5.79,-37.31 -2.01,-54.04zm-320.12 283.14c-7.95,5.03 -8.87,15.2 -9.75,23.69 4.59,-7.88 12.7,-14.99 22.53,-12.83 15.98,3.06 29.67,13.77 39.9,26.02 19.66,-2.48 39.47,-1.53 59.16,0.06 -3.46,-5.3 -9.5,-8.03 -15.32,-9.75 -12.04,-3.56 -24.78,-3.37 -37.13,-1.99 -8.45,-12.49 -22.87,-18.68 -36.35,-24.13 -7.22,-2.83 -15.96,-5.64 -23.04,-1.07zm-89.96 50.48c7.12,3.27 14.23,6.61 21.23,10.13 -9.37,-1.36 -18.7,-2.87 -28.03,-4.47 -3.85,2.9 -7.63,5.89 -11.36,8.91 25.87,0.7 52.31,2.6 76.46,12.77 -14.97,-12.6 -30.78,-24.21 -47.65,-34.11 -3.57,2.25 -7.11,4.51 -10.65,6.77zm171.53 145.18c4.9,5.89 9.87,11.76 15.03,17.47 -17.53,82.03 -34.95,164.1 -53,246.01 -7.19,8.51 -16.16,15.37 -23.94,23.36 61.68,-7.38 123.38,-14.74 185.05,-22.39 5.6,-27.74 11.53,-55.41 17.32,-83.13 -9.64,0.86 -19.27,1.62 -28.89,2.58 -11.74,33.4 -43.29,58.12 -78.49,61.68 16.67,-78.49 33.31,-157 50.02,-235.47 0.5,-2.96 3.02,-4.85 4.91,-6.92 6.45,-6.37 12.91,-12.73 19.2,-19.25 -35.77,5.16 -71.45,10.86 -107.21,16.06zm-191.24 25.98c5.03,5.83 10,11.72 15.05,17.54 -17.17,79.77 -34.65,159.46 -51.84,239.23 -0.61,2.47 -1.18,5.2 -3.36,6.81 -7.59,6.96 -15.47,13.59 -22.87,20.74 61.66,-7.38 123.31,-14.87 184.95,-22.33 5.93,-27.8 12.37,-55.47 18.53,-83.23 -9.66,1.24 -19.31,2.5 -28.95,3.86 -11.87,33.08 -43.65,56.79 -78.39,60.48 16.5,-77.4 33.19,-154.78 49.79,-232.16 0.23,-3.16 2.75,-5.18 4.87,-7.19 6.71,-6.16 13.29,-12.45 19.85,-18.76 -35.89,4.96 -71.76,10 -107.63,15.01zm-191.55 26.98l-1.22 -2.16c-0.08,0.67 -0.25,2.01 -0.33,2.68 4.44,6.08 9.79,11.47 14.51,17.36 -17.3,80.02 -34.51,160.04 -51.72,240.06 -8.14,7.61 -16.08,15.43 -24.36,22.88 60.06,-7.36 120.12,-14.83 180.16,-22.33 6.42,-28.01 14.45,-55.66 22.48,-83.23 -9.73,0.99 -19.44,2.26 -29.12,3.59 -4.93,8.07 -6.88,17.65 -12.71,25.19 -5.68,7.59 -12.95,13.82 -20.42,19.56 -13.46,9.96 -30.02,14.41 -46.31,17.07 6.5,-29.98 13.11,-59.94 19.71,-89.9 7.72,0.02 16.21,-0.04 22.62,4.95 5.85,3.98 7.88,11.09 9.27,17.67 3.71,-0.85 7.42,-1.71 11.17,-2.51 7.76,-35.56 15.98,-71.03 23.38,-106.67 -4.3,0.46 -8.58,0.9 -12.86,1.45 -8.86,22.66 -21.76,49.1 -47.4,55.7 7.17,-34.93 14.76,-69.79 22.08,-104.69 15.89,-2.54 35.37,-4.85 47.3,8.61 8.07,6.94 5.8,18.09 4.02,27.26 10.02,-1.31 20.04,-2.54 30.08,-3.78 5.41,-24.46 10.88,-48.93 16.15,-73.42 -58.83,8.28 -117.7,16.19 -176.48,24.66zm506.6 -16.12c-4.59,21.95 -9.18,43.9 -13.67,65.87 28.03,10.44 49.84,32.78 64.39,58.4 12.26,-8.32 25.05,-15.97 38.84,-21.46 -8.45,-18.73 -24.61,-31.95 -35.74,-48.83 19.04,3.88 39.66,9.92 58.24,0.75 -19.46,-0.73 -39.31,-4.99 -55.56,-16.16 -11.78,-7.55 -20.44,-18.72 -30.88,-27.82 -7.17,-6.27 -16.52,-8.87 -25.62,-10.75zm-573.71 26.08c-13.14,58.63 -26.16,117.27 -39.1,175.95 -13.73,-54.8 -26.22,-109.94 -39.37,-164.86 -26.52,3.67 -53.02,7.4 -79.51,11.13 -7.62,40.61 -16.92,80.88 -25.29,121.36 -10.94,51.43 -21.86,102.85 -32.81,154.28 20.97,-2.29 41.85,-5.06 62.79,-7.4 -6.23,-5.96 -12.58,-11.74 -18.8,-17.68 12.87,-59.58 26.08,-119.09 39.07,-178.65 16.31,62.6 32.81,125.15 49,187.77 21.15,-2.53 42.3,-4.99 63.46,-7.42 18.44,-85.99 36.66,-172.03 55.09,-258.01 0.42,-2.85 3.04,-4.44 4.95,-6.26 7.31,-6.25 14.74,-12.33 21.8,-18.83 -20.44,2.68 -40.84,5.85 -61.28,8.62zm-277.86 38.34c5.33,5.39 10.69,10.73 16.06,16.1 -25.87,34.21 -52.01,68.2 -77.88,102.41 7.06,-30.63 13.29,-61.51 20.9,-91.99 7.65,-8.57 16.81,-15.7 24.61,-24.17 -34.47,4.4 -68.89,9.14 -103.33,13.6 3.2,6.29 6.54,12.52 9.91,18.75 -16.62,76.75 -33.31,153.52 -50.23,230.21 -6.85,9.7 -17.34,16.64 -25.34,25.51 36.62,-4.38 73.2,-9.1 109.81,-13.65 -5.31,-6.04 -10.93,-11.8 -16.31,-17.8 5.95,-26.98 11.21,-54.11 17.15,-81.11 11.46,25.01 22.53,50.17 34.06,75.14 -6.73,7.08 -13.56,14.09 -20.02,21.44 37.44,-4.57 74.89,-9.14 112.33,-13.75 -5.98,-7.44 -13.38,-13.85 -18.05,-22.26 -18.81,-39.35 -37.17,-78.91 -56.25,-118.14 26.1,-33.23 52.92,-65.91 79.31,-98.91 9.68,-13.06 23.1,-22.55 34.63,-33.85 -30.5,3.75 -60.9,8.3 -91.36,12.47zm-656 5.83c-22.49,3.12 -45.07,5.72 -67.52,9.2 5.18,6.98 11.13,13.34 16.73,19.98 -21.81,101.07 -43.21,202.27 -64.93,303.35 -0.34,2.52 -2.56,3.99 -4.17,5.73 -7.15,6.73 -14.36,13.37 -21.28,20.35 17.11,-1.71 34.19,-3.87 51.3,-5.7 28.74,-3.41 57.99,-5.38 85.72,-14.25 25.68,-8.12 50.15,-23.06 65.24,-45.85 17.09,-24.11 27.87,-54.17 23.21,-83.94 -2.39,-17.34 -12.66,-34.53 -29.73,-40.72 15.46,-9.62 30.17,-22.32 37.26,-39.52 9.66,-21.57 17.13,-44.21 21.32,-67.48 2.16,-15.34 2.81,-31.57 -2.52,-46.35 -4.21,-11.55 -17.02,-16.27 -28.05,-18.72 -27.44,-5.12 -55.26,0.59 -82.58,3.92zm1624.26 7.21c25.6,35.74 65.03,57.84 102.6,78.91 -34,-26.5 -64.36,-58.24 -102.6,-78.91zm-1145.16 19.92c-16.68,-10.44 -37.73,-7.24 -55.18,-0.53 -27.04,11.18 -48.88,31.89 -66.83,54.51 -28.05,36.14 -48.09,79.66 -51.61,125.66 -1.35,19.77 -1.18,40.61 7.65,58.83 8.57,16.47 25.07,28.36 43.25,31.92 23.06,3.97 47.63,-1.82 65.97,-16.58 11.11,1.59 22.18,3.36 33.29,4.87 6.46,-30.26 13.4,-60.4 19.73,-90.68 -10,1.26 -20,2.54 -30.02,3.74 -6.9,18.38 -15.58,36.52 -28.01,51.86 -8.93,11.01 -22.87,18.95 -37.38,17.26 -7.29,-0.99 -11.05,-8.58 -11.32,-15.24 -1.82,-24.72 4.68,-48.92 9.5,-72.92 4.71,-25.07 10.56,-49.94 17.31,-74.55 4.58,-14.95 9.61,-30.75 21.35,-41.74 7.88,-7.59 18.53,-14.09 29.89,-12.35 8.41,1.32 12.22,10.23 14.38,17.47 3.44,14.48 3.48,29.72 1.6,44.44 12.09,-1.65 24.17,-3.27 36.24,-5.03 6.8,-31.51 14.05,-62.91 20.99,-94.4 -13.67,4.29 -27.17,9.03 -40.8,13.46zm-223 23.77c6.19,5.93 12.44,11.8 18.75,17.61 -10.93,50.44 -22.02,100.88 -33,151.32 -3.92,15.95 -5.66,32.75 -13.29,47.53 -5.2,10.16 -15.26,17.19 -26.27,19.77 -10.23,2.22 -21.26,4.08 -31.38,0.54 -6.15,-2.35 -8.33,-9.58 -7.89,-15.6 1.32,-16.54 6.06,-32.51 9.29,-48.72 10.57,-48.61 21.22,-97.23 31.59,-145.89 7.93,-7.76 16.02,-15.36 24.11,-22.95 -36.29,4.67 -72.49,10.06 -108.78,14.8 5.22,6.03 10.71,11.84 16.23,17.63 -12.31,58.28 -24.85,116.54 -37.11,174.84 -2.58,13.54 -5.26,28.39 0.82,41.43 5.64,12.49 19.49,18.55 32.3,20.65 27.59,3.62 55.81,0 82.2,-8.56 20.02,-7.06 38.47,-20.19 49.35,-38.7 9.71,-16.46 12.9,-35.59 16.9,-54 11.64,-53.44 23.33,-106.86 35.12,-160.25 8.84,-7.95 17.71,-15.83 26.37,-23.97 -28.45,4.13 -56.88,8.33 -85.31,12.52zm1153.86 150.42c-3.06,15.58 -6.54,31.07 -9.7,46.62 -20.95,-12.57 -41.72,-25.41 -62.67,-37.98 -11.3,1.42 -22.66,2.18 -33.87,4.13 -5.04,26.01 -10.7,51.88 -15.9,77.86 12.02,-1.03 23.99,-2.64 36.04,-3.42 3.88,-15.53 6.67,-31.3 10.19,-46.92 20.78,12.81 41.74,25.31 62.52,38.12 11.15,-1.7 22.32,-3.44 33.52,-4.89 4.93,-20.94 9.14,-42.03 13.77,-63.02 8.37,-6.04 16.94,-11.78 25.26,-17.88 -19.74,2.22 -39.41,5.07 -59.16,7.38zm-179.93 21.78c-31.18,3.92 -62.39,7.49 -93.53,11.68 -10.79,1.76 -23.98,5.51 -27.75,17.13 -3.59,14.96 -6.57,30.08 -9.69,45.13 -1.07,4.99 -1.65,12.29 4.28,14.43 8.03,2.53 16.64,1 24.88,0.44 32.27,-3.86 64.53,-7.91 96.82,-11.87 9.47,-1.4 19.51,-3.19 27.21,-9.35 6.08,-5.03 6.66,-13.37 8.34,-20.52 2.31,-12.79 5.98,-25.31 7.59,-38.2 0.84,-4.28 -1.63,-8.93 -6.06,-9.83 -10.54,-2.6 -21.47,0.12 -32.09,0.96zm-176.99 21.83c-24.42,2.99 -48.8,6.16 -73.22,9.11 -9.27,1.16 -18.73,2.02 -27.45,5.52 -5.64,2.22 -10.9,6.58 -12.47,12.66 -2.6,9.18 -6.12,19.27 -1.97,28.57 9.87,3.65 20.48,1.89 30.67,0.91 23.73,-2.79 47.46,-5.62 71.2,-8.47 -0.8,3.5 -1.58,7.02 -2.33,10.54 -24.91,3.36 -49.81,6.63 -74.7,10.06 -12.24,2.12 -24.61,-0.48 -36.92,0.11 -0.4,5.16 -2.93,11.03 -0.06,15.87 5.75,6 15.01,4.47 22.5,4.05 31,-4.3 62.09,-7.99 93.1,-12.21 10.82,-1.67 23.46,-5.4 28.26,-16.33 2.58,-7.4 4.28,-15.26 4.55,-23.08 -1.07,-9.16 -12.06,-10.04 -19.27,-9.24 -28.3,2.62 -56.48,6.6 -84.74,9.68 0.84,-3.56 1.68,-7.11 2.6,-10.65 24.72,-2.76 49.35,-6.45 74.05,-9.33 10.31,-0.29 20.54,1.62 30.84,2.1 0.46,-5.45 3.5,-12.18 -1.2,-16.65 -6.58,-5.2 -15.7,-3.43 -23.44,-3.22zm-182.16 21.78c-5.45,26.1 -10.62,52.24 -16.24,78.3 12.58,-1.07 25.11,-2.52 37.69,-3.63 5.37,-26.54 10.92,-53.04 16.12,-79.6 -12.53,1.57 -25.03,3.33 -37.57,4.93zm-66.6 7.73c-42.6,5.35 -85.26,10.32 -127.84,15.83 5.56,4.47 11.85,7.86 17.97,11.55 -4.72,21.37 -9,42.83 -13.74,64.17 34.72,-3.62 69.44,-7.46 104.16,-11.21 11.92,-1.55 24.34,-3.54 34.63,-10.17 8.99,-5.62 8.62,-17.46 11.13,-26.6 2.35,-5.52 -2.95,-9.4 -7.17,-11.62 4.09,-2.34 9.25,-4.48 10.65,-9.45 2.52,-6.54 5.03,-15.96 -1.76,-20.8 -8.83,-3.69 -18.76,-2.47 -28.03,-1.7zm300.27 -946.56c30.59,-24.07 68.89,-38.34 107.82,-39.73 45.12,-1.46 90.47,12.85 127.2,38.93 -37.89,-6.03 -77.62,-7.67 -114.6,4.05 -19.77,6.33 -39.39,18.8 -47.25,38.87 -5.45,12.49 -2.35,27.04 4.82,38.17 10.34,16 25.98,27.61 42.08,37.32 -7.88,15.68 -20.15,29.71 -36.17,37.38 -16.66,8.01 -36.16,8.15 -53.81,3.63 -33.38,-9.1 -71.32,-8.18 -101.05,11.13 13.75,0.52 28.07,0.59 40.9,6.22 6.73,2.69 10.65,9.08 15.96,13.65 10.04,8.72 22.34,14.13 34.42,19.44 -33.92,4.8 -71.85,2.74 -100.25,-18.41 -20.74,-15.24 -30.09,-41.13 -31.89,-66 13.17,10.42 31.3,12.23 47.02,7.26 11.26,-3.78 23.17,-4.53 34.95,-5.07 -13.65,-14.6 -18.95,-35.69 -15.49,-55.16 4.42,-28.95 23.08,-53.61 45.34,-71.68zm64.62 -11.45c-28.81,8.64 -57.01,26.17 -70.68,53.86 -10.29,21.53 -11.11,48.16 -0.39,69.67 9.83,19.45 33.98,27.42 54.48,23.31 6.02,-1.57 8.75,-9.08 5.91,-14.45 -7.06,-15.97 -26.68,-20.65 -34.54,-35.95 -7.68,-14.34 -6.08,-31.93 0.31,-46.44 8.97,-21.17 26.69,-36.79 44.91,-50zm65.61 238.96c4.6,8.63 15.08,10.14 23.78,11.63 -6.21,-3.92 -14.28,-8.26 -14.72,-16.52 -0.69,-3.27 3.23,-4.57 4.78,-6.79 -3.27,-5.28 -6.16,-10.8 -8.76,-16.46 -4.24,8.51 -9.33,18.66 -5.08,28.14z"/>
   <path class="fil2" d="M1059.58 1313.06c9.27,-0.77 19.2,-1.99 28.03,1.7 6.79,4.84 4.28,14.26 1.76,20.8 -1.4,4.97 -6.56,7.11 -10.65,9.45 4.22,2.22 9.52,6.1 7.17,11.62 -2.51,9.14 -2.14,20.98 -11.13,26.6 -10.29,6.63 -22.71,8.62 -34.63,10.17 -34.72,3.75 -69.44,7.59 -104.16,11.21 4.74,-21.34 9.02,-42.8 13.74,-64.17 -6.12,-3.69 -12.41,-7.08 -17.97,-11.55 42.58,-5.51 85.24,-10.48 127.84,-15.83zm66.6 -7.73c12.54,-1.6 25.04,-3.36 37.57,-4.93 -5.2,26.56 -10.75,53.06 -16.12,79.6 -12.58,1.11 -25.11,2.56 -37.69,3.63 5.62,-26.06 10.79,-52.2 16.24,-78.3zm182.16 -21.78c7.74,-0.21 16.86,-1.98 23.44,3.22 4.7,4.47 1.66,11.2 1.2,16.65 -10.3,-0.48 -20.53,-2.39 -30.84,-2.1 -24.7,2.88 -49.33,6.57 -74.05,9.33 -0.92,3.54 -1.76,7.09 -2.6,10.65 28.26,-3.08 56.44,-7.06 84.74,-9.68 7.21,-0.8 18.2,0.08 19.27,9.24 -0.27,7.82 -1.97,15.68 -4.55,23.08 -4.8,10.93 -17.44,14.66 -28.26,16.33 -31.01,4.22 -62.1,7.91 -93.1,12.21 -7.49,0.42 -16.75,1.95 -22.5,-4.05 -2.87,-4.84 -0.34,-10.71 0.06,-15.87 12.31,-0.59 24.68,2.01 36.92,-0.11 24.89,-3.43 49.79,-6.7 74.7,-10.06 0.75,-3.52 1.53,-7.04 2.33,-10.54 -23.74,2.85 -47.47,5.68 -71.2,8.47 -10.19,0.98 -20.8,2.74 -30.67,-0.91 -4.15,-9.3 -0.63,-19.39 1.97,-28.57 1.57,-6.08 6.83,-10.44 12.47,-12.66 8.72,-3.5 18.18,-4.36 27.45,-5.52 24.42,-2.95 48.8,-6.12 73.22,-9.11zm356.92 -43.61c19.75,-2.31 39.42,-5.16 59.16,-7.38 -8.32,6.1 -16.89,11.84 -25.26,17.88 -4.63,20.99 -8.84,42.08 -13.77,63.02 -11.2,1.45 -22.37,3.19 -33.52,4.89 -20.78,-12.81 -41.74,-25.31 -62.52,-38.12 -3.52,15.62 -6.31,31.39 -10.19,46.92 -12.05,0.78 -24.02,2.39 -36.04,3.42 5.2,-25.98 10.86,-51.85 15.9,-77.86 11.21,-1.95 22.57,-2.71 33.87,-4.13 20.95,12.57 41.72,25.41 62.67,37.98 3.16,-15.55 6.64,-31.04 9.7,-46.62zm-1375.55 -22.18c5.45,-3.08 11.19,2.58 14.5,6.52 11.37,16.83 9.86,38.82 5.14,57.69 -5.85,23.46 -15.53,46.73 -31.95,64.82 -5.55,5.29 -11.7,12.23 -20.1,11.6 15.64,-15.12 23.14,-36.04 29.58,-56.31 6.68,-22.29 11.38,-45.68 9.33,-69.04 -0.23,-5.79 -2.88,-10.92 -6.5,-15.28zm1070.04 -18.34c0.82,0.46 2.49,1.36 3.33,1.82 -1.91,12.54 -7.8,25.26 -19.07,31.95 -15.39,9.31 -34.49,7.27 -51.3,3.81 1.4,-5.15 7.67,-3.66 11.67,-4.88 21.51,-3.38 44.43,-12.62 55.37,-32.7zm206.14 -23.11c1.95,-2.01 3.15,-6.08 6.94,-4.61 -1.99,12.6 -8.01,25.24 -19.1,32.24 -15.64,9.98 -35.68,8.89 -52.91,4.18 3,-4.14 8.55,-3.28 12.95,-4.28 19.61,-2.98 40.42,-10.57 52.12,-27.53zm184.49 -27.34c3.73,-3.56 5.05,-10.56 10.98,-10.96 -1.32,17.53 -11.15,34.65 -26.98,42.85 -17.1,8.81 -37.31,8.87 -55.8,5.26 0.81,-2.7 3.29,-3.62 5.87,-4 24.27,-4.72 49.28,-14.05 65.93,-33.15zm-1382.79 138.18c11.53,-55.72 22.68,-111.53 34.46,-167.21 4.91,-0.44 9.84,-0.92 14.74,-1.38 -12.85,63.94 -26.29,127.79 -39.22,191.74 -2.64,12.43 -1.45,26.98 7.65,36.6 3,3.48 8.87,4.86 9.29,10.1 -13.13,-1.76 -25.18,-10.75 -29.21,-23.56 -5.62,-15.18 -0.88,-31.17 2.29,-46.29zm171.24 -185.62c5.01,-0.5 10.02,-1.03 15.03,-1.53 -12.94,62.33 -25.7,124.68 -38.7,187 -7,25.06 -26.65,47.82 -52.58,53.95 0.73,-3.11 2.98,-5.14 5.62,-6.63 17.27,-10.57 28.49,-29.27 32.39,-48.89 12.74,-61.3 25.51,-122.6 38.24,-183.9zm117.77 -10.79c1.45,-1.91 7.15,-3.57 5.39,0.6 -19.89,19.17 -34.72,42.98 -46.02,68.07 -14.29,31.64 -23.85,65.81 -24.8,100.65 -0.23,16.57 1.87,33.84 10.36,48.39 2.24,4.19 6.37,7.74 6.33,12.87 -13.54,-7.36 -27.08,-18.36 -30.59,-34.13 -8.84,-33.96 -3.22,-70.37 9.69,-102.58 15.12,-36.24 38.49,-69.66 69.64,-93.87zm154.93 -26.02c5.01,-1.15 10.04,-2.29 15.09,-3.42 -16.35,78.3 -32.64,156.63 -49.03,234.93 -4.99,0.56 -10,1.15 -14.99,1.74 16.25,-77.76 32.52,-155.51 48.93,-233.25zm-597.25 -1.36c5.03,-0.55 10.06,-1.07 15.09,-1.53 -21.7,102.81 -43.25,205.64 -64.99,308.44 -4.99,0.55 -9.98,1.12 -14.99,1.72 21.53,-102.91 43.4,-205.74 64.89,-308.63zm106.62 -14.41c7.59,-0.98 13.29,6.12 16.65,12.06 7.23,14.97 7.19,32.43 4.44,48.53 -4.4,23.12 -12.24,45.75 -23.96,66.21 -7.13,11.88 -15.45,24.15 -28.22,30.52 -1.82,1.55 -3.79,0.15 -5.32,-0.9 7.59,-6.17 12.95,-14.47 17.02,-23.23 11.99,-25.79 19.06,-53.56 23.98,-81.47 1.89,-12.95 3.82,-26.31 1.2,-39.31 -0.93,-4.57 -4.32,-8.07 -5.79,-12.41zm619.27 -2.89c5.55,-0.65 11.13,-1.3 16.71,-1.97 -34.85,44.51 -69.71,88.99 -104.51,133.52 16.58,34.59 33.4,69.08 49.87,103.73 -4.59,0.49 -9.16,1.03 -13.73,1.56 -17.57,-34.74 -34.48,-69.79 -51.82,-104.64 34.55,-44.02 69.05,-88.07 103.48,-132.2zm124.07 -7.74c0.88,0.07 2.64,0.19 3.54,0.23 19.14,71.87 38.26,143.74 57.32,215.6 -4.58,0.57 -9.15,1.13 -13.69,1.72 -17.05,-63.21 -34.2,-126.39 -51.37,-189.58 -1.55,-9.45 2.98,-18.66 4.2,-27.97zm-28.24 -4.52c4.99,-0.61 10,-1.2 15.01,-1.76 -16.54,79.83 -33.4,159.6 -50.05,239.41 -5.07,1.09 -10.12,2.22 -15.17,3.37 16.79,-80.33 33.5,-160.67 50.21,-241.02zm160.69 -22.48c4.9,-0.4 9.79,-0.88 14.74,-1.28 -17.05,80.17 -34.24,160.32 -51.32,240.49 -4.62,0.6 -9.25,1.19 -13.84,1.82 16.85,-80.34 33.21,-160.78 50.42,-241.03zm83.6 -11.95c4.6,-0.67 9.19,-1.3 13.82,-1.95 -16.65,80.74 -33.4,161.43 -50.15,242.14 -5.05,0.51 -10.1,1.05 -15.11,1.62 17.29,-80.57 34.3,-161.2 51.44,-241.81zm64.11 -12.12c15.39,-5.17 33.46,-11 48.85,-2.95 11.03,6.27 10.69,20.52 9.08,31.47 -5.89,-1.41 -4.74,-9.08 -8.7,-12.67 -9.83,-10.71 -25.52,-12.74 -39.29,-12.83 -3.4,-0.58 -8.45,1.47 -9.94,-3.02zm128.35 -15.13c5.03,-0.63 10.08,-1.22 15.13,-1.8 -18.03,84.78 -35.89,169.6 -53.92,254.38 -4.99,0.52 -9.95,1.05 -14.92,1.53 17.77,-84.74 35.89,-169.39 53.71,-254.11zm290.12 -3.75c9.1,1.88 18.45,4.48 25.62,10.75 10.44,9.1 19.1,20.27 30.88,27.82 16.25,11.17 36.1,15.43 55.56,16.16 -18.58,9.17 -39.2,3.13 -58.24,-0.75 11.13,16.88 27.29,30.1 35.74,48.83 -13.79,5.49 -26.58,13.14 -38.84,21.46 -14.55,-25.62 -36.36,-47.96 -64.39,-58.4 4.49,-21.97 9.08,-43.92 13.67,-65.87zm-98.78 -22.25c4.57,-0.54 9.14,-1.11 13.75,-1.63 -17.13,84.74 -34.27,169.49 -51.36,254.25 -5.01,0.55 -10.02,1.11 -14.99,1.68 17.42,-84.78 34.95,-169.54 52.6,-254.3zm-751.3 -702.01c60.17,-31.49 126.1,-53.71 194.21,-57.88 67.53,-4.41 136.12,10.71 195.33,43.56 -28.32,18.81 -55.49,39.94 -77.67,65.91 90.85,-23.25 185.8,-32.89 279.28,-23.35 75.58,8.01 151.24,30.92 213.02,76.33 0,-8.62 -0.02,-17.23 0.11,-25.85 37.63,18.22 66.08,52.41 81.23,90.99 13.27,34.53 18.66,72.7 12.08,109.28 -4.99,28.24 -20.74,54.89 -44.8,70.89 -26.44,17.94 -59.35,23.52 -90.78,22.41 1.89,14.38 3.8,30.56 -4.4,43.45 -12.03,18.31 -21.22,40.13 -18.55,62.46 9.05,-13.31 18.15,-27.51 32.26,-36.02 17.3,-10.71 30.67,-29.06 32.2,-49.73 7.95,-2.07 15.87,-4.23 23.86,-6.18 0.67,29.24 -13.04,57.99 -35.66,76.39 -12.25,11.62 -27.19,25.52 -25.7,43.97 -17.15,-6.73 -35.81,-4.51 -53.78,-5.56 -11.42,-2.45 -21.46,-9.27 -29.05,-18.01 -13.48,-10.96 -30.97,-18.85 -48.6,-17.53 -20.08,2.33 -31.17,26.59 -24.32,44.47 6.27,18.74 24.4,29.81 42.08,36.16 -19.37,3.44 -40.72,1.01 -56.9,-10.86 -8.34,-5.78 -14.4,-14.08 -19.62,-22.62 -29.6,8.35 -53,30.88 -69.16,56.29 25.8,0.09 52.3,0.9 76.96,9.33 9.43,3.25 21.19,10.67 18.57,22.37 -3.61,10.86 -14.76,16.61 -24.25,21.62 -30.21,14.02 -63.67,19.7 -96.73,21.55 -28.68,1.21 -57.85,-0.72 -85.43,-9.08 26.03,-2.87 52.59,-6.79 76.16,-18.91 -21.7,2.05 -44.07,2.68 -65.18,-3.52 -9.41,-2.64 -17.73,-8.14 -27.21,-10.53 -24.34,-6.66 -49.88,-4.71 -74.59,-1.59 18.36,-18.91 45.99,-25.12 71.55,-23.79 28.22,1.8 57.04,-0.99 83.67,-10.86 5.11,-2.31 11.78,-3.84 13.75,-9.84 16,-34.61 48.99,-59.43 85.45,-69.14 -43.33,0.02 -89.96,11.81 -120.02,44.95 -24.65,-51.09 -67.11,-94.86 -120.46,-115.66 31.11,35.09 50.96,79.85 56.73,126.37 -49.48,11.51 -94.99,38.41 -130.27,74.81 40.21,2.7 81.23,7.77 118.26,24.69 -7.53,6.69 -15.31,13.06 -23,19.54 43.27,-1.78 86.83,-1.24 129.71,5.41 15.38,2.35 30.54,5.99 45.28,10.96 -82.35,3.73 -165.05,11.55 -244.99,32.6 13.23,-10.84 26.62,-21.49 39.79,-32.41 -40.13,-13 -82.52,-18.07 -124.57,-18.72 -89.77,-1.76 -178.91,18.74 -261.7,52.62 32.6,-39.5 71.15,-73.67 111.17,-105.49 -34.96,-15.05 -75.93,-14.7 -110.94,0 -18.87,7.31 -34.53,20.79 -53.44,27.99 -27.25,11.55 -59.28,13.5 -86.66,1.25 -10,-3.98 -18.29,-11 -27.55,-16.31 -29.9,-15.51 -65.72,-20.23 -98.24,-10.69 41.68,11.09 82.03,32.35 109.56,66.25 20.92,25.45 31.99,58.2 32.6,91.01 -100.4,13.87 -200.78,27.88 -301.15,41.94 -0.13,-14.31 -5.94,-28.74 -17.15,-37.9 -15.27,-12.91 -35.56,-17.19 -54.95,-19.01 -0.78,-69.96 19.52,-140.78 60.08,-198.08 19.46,-26.89 43.02,-51.32 70.8,-69.6 28.28,-5.43 52.75,-22.66 72.33,-43.16 19.22,-20.02 34.5,-43.52 47.14,-68.14 17.18,-33.22 39.15,-63.73 62.81,-92.6 35.1,-42.18 73.92,-81.38 116.57,-115.97 14.78,-11.59 29.74,-23.33 47,-31.09 -17.57,-9.35 -35.35,-18.34 -53.9,-25.6 44.82,-42.03 95.47,-77.84 149.77,-106.54zm447.06 122.39l0 0c-22.26,18.07 -40.92,42.73 -45.34,71.68 -3.46,19.47 1.84,40.56 15.49,55.16 -11.78,0.54 -23.69,1.29 -34.95,5.07 -15.72,4.97 -33.85,3.16 -47.02,-7.26 1.8,24.87 11.15,50.76 31.89,66 28.4,21.15 66.33,23.21 100.25,18.41 -12.08,-5.31 -24.38,-10.72 -34.42,-19.44 -5.31,-4.57 -9.23,-10.96 -15.96,-13.65 -12.83,-5.63 -27.15,-5.7 -40.9,-6.22 29.73,-19.31 67.67,-20.23 101.05,-11.13 17.65,4.52 37.15,4.38 53.81,-3.63 16.02,-7.67 28.29,-21.7 36.17,-37.38 -16.1,-9.71 -31.74,-21.32 -42.08,-37.32 -7.17,-11.13 -10.27,-25.68 -4.82,-38.17 7.86,-20.07 27.48,-32.54 47.25,-38.87 36.98,-11.72 76.71,-10.08 114.6,-4.05 -36.73,-26.08 -82.08,-40.39 -127.2,-38.93 -38.93,1.39 -77.23,15.66 -107.82,39.73zm388.16 21.36l0 0c3.75,38.3 5.62,77.72 -4.65,115.22 -5.29,19.25 -14.85,38.7 -32.33,49.58 3.39,-13.81 1.78,-28.76 -4.63,-41.44 -9.94,27.88 -28.5,51.51 -45.18,75.59 31.04,-0.86 63.98,-7.12 88.45,-27.56 15.07,-12.69 23.92,-31.89 24.96,-51.47 3.36,-41.17 -2.47,-85.39 -26.62,-119.92zm-840.38 65.87l0 0c-35.76,7.21 -66.64,28.66 -93.12,52.9 -15.94,14.02 -29.9,30.33 -47.28,42.66 -29.81,22.03 -57.86,46.92 -90.92,64.17 -13.04,7.02 -23.35,18.64 -37.67,23.35 -15.24,5.48 -31.85,11.87 -40.9,26.19 -7.95,12.64 -6.06,28.28 -4.03,42.33 -1.17,2.72 -1.59,5.7 -0.86,8.63 2.22,11.39 4.26,22.79 6.56,34.18 11.32,9.03 11.93,25.36 21.58,35.8 10.96,11.85 24.69,20.72 38.63,28.64 21.64,11.82 45.16,21.2 69.92,23.33 21.05,1.26 41.97,-3.27 62.12,-8.93 20.81,-5.78 40.1,-15.78 58.15,-27.48 29.02,-16.73 59.27,-35.66 93.8,-36.54 4.42,12.97 7.44,26.54 13.83,38.76 1.64,3.5 6.1,3.48 9.25,4.84 65.32,19.67 133.83,32.58 202.28,27.97 -18,-23.04 -36.37,-45.81 -54.25,-68.97 24.06,15.36 48.22,30.58 72.35,45.85 12.03,-33.44 15.32,-69.27 17.06,-104.51 -7.88,-14.13 -20.12,-25.24 -31.3,-36.75 -11.32,-10.48 -22.51,-22.2 -37.44,-27.38 -23.42,-9.2 -46.9,-18.49 -71.22,-25.12 -20.06,-4.59 -41.74,-1.63 -60.82,-10.46 -8.44,-4.65 -16.91,-9.54 -26.43,-11.72 -23.31,-5.78 -46.96,-12.37 -71.22,-11.38 -8.95,0.44 -18.8,2.35 -24.97,9.48 -10.75,12.3 -22.72,23.79 -36.56,32.57 -18.59,0.97 -37.29,-1.95 -55.93,-1.57 -15.54,2.16 -29.39,10.32 -42.29,18.81 -11.84,8.3 -23.6,16.98 -33.52,27.56 21.28,-2.83 41.62,-10.48 61.3,-18.8 19.92,4.21 40.44,5.07 60.74,3.82 6.14,-0.51 12.66,-0.84 18.05,-4.22 15.03,-9.08 28.61,-20.4 41.36,-32.43 5.41,-4.97 10.52,-11.38 18.34,-12.26 17.36,-2.29 34.32,3.64 50.61,8.86 14.55,4.43 26.71,14.53 41.45,18.47 13.14,0.55 26.54,-0.94 39.52,2.16 12.24,5.26 23.52,12.41 33.52,21.26 -31.76,-10.29 -65.68,-13.92 -98.98,-12.52 8.96,8.08 20.53,12.31 29.88,19.86 6.92,4.92 11.82,13.27 8.82,21.93 -16.47,-12.77 -35.84,-23 -56.98,-24.36 -13.54,6.96 -21.21,22.24 -21.74,37.12 -29.09,3.86 -57.23,-7.67 -83.02,-19.83l-1.02 0.23c-32.87,28.89 -69.94,56.94 -114.26,64.11 -33.27,5.75 -66.92,-4.9 -95.49,-21.59 19.06,28.91 49.03,51.93 83.94,56.79 44.82,6.65 89.04,-10.67 127.29,-32.56 8.12,-4.04 15.04,-11.49 24.62,-11.74 20.46,-2.16 41.13,-4.21 61.72,-1.97 1.53,3.86 3.02,7.74 4.63,11.58 -22.33,-3.57 -45.01,0.02 -66.71,5.4 -4.17,0.99 -8.24,2.54 -11.8,4.93 -32.14,21.15 -67.3,38.78 -105.24,46.44 -23.8,4.52 -49.4,6.22 -72.04,-3.88 -38.74,-15.58 -63.46,-56.5 -64.55,-97.51 0.38,-10.06 0.76,-22.12 8.41,-29.54 21.22,-8.07 42.24,-16.87 61.95,-28.24 47.53,-26.64 87.59,-64.21 126.21,-102.16 12.72,-11.73 24.38,-24.61 37.5,-35.91 16.02,-12.62 35.66,-19.56 55.2,-24.57 31.24,-7.46 63.54,-9.93 95.6,-9.31 -31.47,-16.52 -68.49,-24.27 -103.63,-16.77zm516.08 106.67l0 0c16.08,5.22 33.27,10.65 44.76,23.84 8.85,8.42 10.84,21.92 20.86,29.35 9.62,7.63 22.54,9.01 34.4,7.84 11.57,22.85 17.26,48.15 20.93,73.35 9.41,-23.73 11.23,-49.58 10.33,-74.86 11.15,-5.12 22.41,-10 33.65,-14.99 -17.97,0.98 -37.02,-2.39 -51.26,-14.07 -20.23,-16.48 -29.43,-42.77 -32.05,-68.01 -17.55,26.77 -50.93,37.53 -81.62,37.55zm-242.41 65.05l0 0c1.64,2.31 1.47,7.07 5.26,7.15 69.54,13.82 137.24,39.58 196.5,78.79 18.43,-4.87 36.84,-9.8 55.16,-15.12 -36.92,-24.68 -79.02,-40.42 -121.8,-51.45 -44.2,-11.13 -89.58,-17.56 -135.12,-19.37zm304.03 636.27c10.62,-0.84 21.55,-3.56 32.09,-0.96 4.43,0.9 6.9,5.55 6.06,9.83 -1.61,12.89 -5.28,25.41 -7.59,38.2 -1.68,7.15 -2.26,15.49 -8.34,20.52 -7.7,6.16 -17.74,7.95 -27.21,9.35 -32.29,3.96 -64.55,8.01 -96.82,11.87 -8.24,0.56 -16.85,2.09 -24.88,-0.44 -5.93,-2.14 -5.35,-9.44 -4.28,-14.43 3.12,-15.05 6.1,-30.17 9.69,-45.13 3.77,-11.62 16.96,-15.37 27.75,-17.13 31.14,-4.19 62.35,-7.76 93.53,-11.68zm-84.68 28.11l0 0c-2.87,13.76 -5.87,27.51 -8.41,41.33 28.14,-3.61 56.27,-7.38 84.41,-10.95 2.64,-13.81 5.66,-27.55 8.38,-41.34 -28.13,3.63 -56.24,7.36 -84.38,10.96zm-410.94 48.87l0 0c-5.45,-0.48 -3.84,6.31 -4.95,9.69 23.17,-2.92 46.48,-4.93 69.46,-9 0.52,-2.74 1.02,-5.45 1.57,-8.15 -22.12,1.72 -44.03,5.18 -66.08,7.46zm-8.51 26.4l0 0c-1.26,5.95 -2.44,11.92 -3.57,17.92 19.94,-2.45 39.92,-4.91 59.88,-7.29 3.39,-0.7 7.35,-0.63 10.04,-3.19 2.16,-4.72 2.53,-10 3.67,-14.99 -23.46,1.01 -46.67,5.22 -70.02,7.55z"/>
  </g>
 </g>
</svg>
