<?xml version="1.0" encoding="UTF-8"?>
<!DOCTYPE svg PUBLIC "-//W3C//DTD SVG 1.1//EN" "http://www.w3.org/Graphics/SVG/1.1/DTD/svg11.dtd">
<!-- Creator: CorelDRAW -->
<svg xmlns="http://www.w3.org/2000/svg" xml:space="preserve" width="2000px" height="1600px" version="1.1" style="shape-rendering:geometricPrecision; text-rendering:geometricPrecision; image-rendering:optimizeQuality; fill-rule:evenodd; clip-rule:evenodd"
viewBox="0 0 2000 1600"
 xmlns:xlink="http://www.w3.org/1999/xlink">
 <defs>
  <style type="text/css">
   <![CDATA[
    .fil3 {fill:#004839;fill-rule:nonzero}
    .fil2 {fill:#130B1A;fill-rule:nonzero}
    .fil1 {fill:#B19458;fill-rule:nonzero}
    .fil4 {fill:#FDEBBA;fill-rule:nonzero}
    .fil0 {fill:#FEFEFE;fill-rule:nonzero}
   ]]>
  </style>
 </defs>
 <g id="Capa_x0020_1">
  <metadata id="CorelCorpID_0Corel-Layer"/>
  <g id="Cal_x0020_Poly_x0020_Mustangs.cdr">
   <path class="fil0" d="M1101.31 1189.85c4.69,16.84 7.57,34.16 11.11,51.29 -7.25,0.09 -14.45,0.09 -21.68,0.13 3.9,-17.06 6.56,-34.4 10.57,-51.42zm367.66 14.5c9.77,-0.94 20.72,-1.78 28.38,5.65 -9.64,0.51 -19.33,0.93 -28.92,-0.14 0.13,-1.38 0.4,-4.15 0.54,-5.51zm-567.92 -352.04c3.82,2.21 7.74,4.2 11.72,6.16 -2.53,25.43 -7.32,50.6 -10.09,76.01 -0.96,6.74 -1.83,13.52 -3.88,20.06 0.44,-34.09 0.62,-68.18 2.25,-102.23zm-80.02 -60.53c12.04,-15.61 34.44,-14.63 51.13,-8.32 11.25,6.34 24.63,5.2 36.95,3.91 3.9,-1.19 5.42,3.16 6.47,5.95 3.95,10.42 6.58,21.29 10.17,31.84 -3.84,6.4 -7.52,13.16 -13.16,18.18 -6.63,2.79 -14.1,0.38 -20.73,-1.25 -2.39,-0.78 -4.75,-1.65 -7.05,-2.58 -6.58,-5.11 -14.46,-13.17 -11.31,-22.27 1.34,-6.05 3.12,-12 5.17,-17.85 -0.75,0.52 -2.25,1.54 -3.01,2.05 -13.52,-15.81 -36.36,-12.06 -54.63,-9.66zm167.9 -159.32c2.52,3.31 5.52,6.34 7.57,10 2.12,5.91 2.52,12.38 5.28,18.09 11.54,9.78 26.82,4.35 40.07,2.21 -1.31,2.95 -2.36,6.03 -4.15,8.73 -14.36,5.93 -31.03,4.21 -44.5,-2.95 -7.28,-10.6 -3.71,-24.12 -4.27,-36.08zm-222.65 -37.59c10.01,-5.73 21.77,-6.45 33.06,-6.51 -3.59,5.82 -6.74,11.89 -9.08,18.34l-0.18 0.02c-19.5,3.37 -37.28,12.49 -54.53,21.77 -21.73,12.47 -36.12,33.69 -53.92,50.72 6.56,-17.14 19.03,-31.02 32.01,-43.58 16,-15.39 33.11,-30.01 52.64,-40.76zm206.75 -105.73c5.57,1.05 10.04,-1.69 13.98,-5.26 -1.91,4.03 -2.31,9.48 -6.6,11.84 -3.48,-0.8 -5.15,-4.17 -7.38,-6.58zm-69.72 3.79c8.52,-15.52 18.16,-30.45 28.46,-44.84 -2.43,12.38 -9.3,23.11 -14.25,34.54 -8.73,19.79 -16.87,39.84 -24.25,60.19 -2.01,5.67 -4.85,11.4 -10.24,14.52 -16.76,10.8 -33.92,20.96 -50.45,32.09 -18.49,12.6 -28.09,33.73 -44.04,48.9 6.47,-13.03 12.76,-26.21 20.24,-38.68 9.48,-10.85 18.69,-22.11 29.45,-31.75 14.28,-10.6 29.87,-19.28 45.22,-28.18 6.74,-15.55 12.61,-31.48 19.86,-46.79zm33.57 -132.05c7.52,5.33 17.2,8.52 22.02,16.91 5.87,9.04 11.47,18.27 16.2,27.98 9.82,-0.63 19.99,-3.3 29.61,0.04 6.09,2.08 11.71,5.42 16.89,9.24 5.55,4.19 7.02,11.47 9.86,17.45 6.76,-13.55 14.28,-27.31 26.01,-37.22 14.62,-8.05 18.76,-25.9 31.68,-35.87 -3.59,8.83 -6.04,18 -7.54,27.42 -2.12,12.2 -12.07,21.12 -22.98,25.9 2.68,11.51 5.25,23.07 7.54,34.67 1.97,10.33 10.27,18.36 11.74,28.78 -1.05,12.49 -8.48,23.29 -11.09,35.45 -1.54,6.69 -5.18,13.19 -3.93,20.24 1.9,18.78 -1.31,37.48 -4.28,55.97 4.82,7.81 12.23,14.89 12.98,24.48 -2.12,9.93 -10.12,17.15 -17.06,24.03 0.87,6.27 3.83,14.34 -1.9,19.23 -3.95,4.04 -9.57,0.49 -14.32,0.58 -7.52,-1.29 -13.79,5.4 -21.24,4.13 -7.74,-5.18 -7.54,-15.24 -10.49,-23.1 -3.97,-4.19 -9.93,-6.15 -13.34,-10.95 -5.07,-7.05 -5.56,-16.11 -6,-24.5 4.04,-8.56 10.19,-18.16 20.39,-19.58 6.2,-0.45 9.88,5.35 13.01,9.79 3.88,5.98 8.54,11.49 11.87,17.83 -1.95,6.35 -9.37,11.89 -6.16,19 2.21,4.91 4.24,13.64 11.35,11.94 6.41,-1.12 9.69,-7.63 13.93,-11.91 9.41,-2.52 14.36,-11.14 17.44,-19.68 -3.28,-2.12 -6.42,-5 -10.48,-5.29 -4.33,2.83 -7.1,7.36 -9.62,11.74 -3.3,-6.07 -6.02,-12.43 -8.21,-18.99 5.42,-2.81 10.67,-5.93 16.04,-8.88 1.12,-14.14 3.68,-28.2 3.1,-42.41 -0.04,-8.81 -1.83,-17.89 1.07,-26.44 2.95,-9.21 5.22,-18.7 5.87,-28.38 -7.76,9.71 -16.71,18.99 -21.46,30.68 -5.35,19.14 2.3,38.48 3.7,57.51 -4.28,5.74 -9.28,11.09 -11.4,18.12 -4.86,-1.87 -10.46,-3.86 -12.58,-9.1 -6.96,-15.08 -9.35,-31.77 -15.62,-47.14 -4.13,-12.05 -9.41,-23.7 -13.36,-35.81 -2.26,-6.45 0.31,-13.17 0.71,-19.68 1.23,-8.97 -1.54,-17.8 -4.64,-26.1 3.12,-15.87 -8.28,-29.03 -20.55,-37.2 -0.42,-0.31 -1.29,-0.96 -1.71,-1.27 -3.02,-1.36 -6.25,-2.79 -7.3,-6.2 -8.34,-17.92 -14.19,-37.15 -25.75,-53.41zm66.2 74l0 0c0.13,15.38 3.88,30.52 3.57,45.9 -1.7,5.13 -4.37,9.88 -6.45,14.83 7.14,-4.53 14.17,-9.23 21.06,-14.12 -6.45,-15.39 -11.98,-31.12 -18.18,-46.61zm44.84 7.63l0 0c1.79,16.91 4.84,33.65 7.32,50.47 3.55,-4.1 6.94,-8.32 10.35,-12.52 -6.02,-12.58 -11.49,-25.43 -17.67,-37.95zm-52.29 172.4l0 0c6.78,9.75 15.68,17.84 23.98,26.3 -2.1,-6.56 -4.42,-13.03 -6.74,-19.52 2.46,-3.68 5.58,-7.12 6.85,-11.45 -1.18,-4.08 -2.74,-8.52 -6.2,-11.2 -3.55,-1.07 -7.23,-1.42 -10.84,-1.98 -3.44,5.29 -11.43,10.77 -7.05,17.85zm115.01 -41.7c49.5,3.63 99.08,6.87 148.59,10.66 22.06,1.21 45.13,3.88 64.5,15.4 19.25,12.11 26.28,36.05 26.43,57.69 0.63,34.2 0.18,68.43 0.25,102.63 -0.47,20.21 -0.45,42.7 -13.74,59.3 -10.36,13.03 -28.07,16.67 -43.89,15.57 -22.26,-1.45 -44.42,-3.97 -66.66,-5.62 -0.05,42.01 -0.02,84.05 -0.02,126.06 -37.82,-2.68 -75.66,-4.58 -113.45,-7.25 9.68,-13.32 20.14,-26.06 29.98,-39.29 1.94,-2.3 2.39,-5.31 2.34,-8.24 -0.09,-92.96 -0.02,-185.93 -0.02,-278.9 0.63,-4.84 -2.65,-8.57 -5.44,-12.05 -9.8,-11.87 -19.46,-23.8 -28.87,-35.96zm18.74 9.84l0 0c7.52,10.13 16.04,19.5 23.38,29.78 0.89,5 0.38,10.13 0.49,15.2 -0.07,67.69 -0.02,135.38 -0.04,203.07 -0.34,25.79 0.69,51.69 -0.47,77.44 -7.39,11.17 -16.42,21.15 -24.12,32.1 29.76,1 59.46,3.64 89.2,5.02 -0.16,-41.9 0,-83.8 -0.07,-125.7 25.12,0.92 50.11,4.15 75.19,6.09 9.93,0.45 20.5,-0.4 29.25,-5.6 9.55,-5.82 14.97,-16.48 17.06,-27.17 4.22,-22.11 2.48,-44.73 2.39,-67.09 1.07,-17.13 -0.2,-34.27 -0.04,-51.4 0.82,-19.06 0.87,-39.96 -10.2,-56.38 -11.4,-17.18 -33.44,-21.49 -52.41,-24.59 -49.84,-3.99 -99.75,-7.02 -149.61,-10.77zm-662.44 37.32c37.32,-6.51 74.71,-12.6 112.15,-18.47 0.49,24.36 -1.29,48.68 -0.45,73.02 0.41,57.99 -0.24,115.97 0.18,173.94 -0.58,17 -0.58,34.02 -0.02,51 9.62,-1.56 19.81,-2.01 28.4,-7.08 14.57,-8.36 28.89,-17.15 43.66,-25.18 -2.23,32.93 -0.76,65.97 -1.16,98.94 -61.04,9.37 -122.08,18.54 -183.1,28 9.12,-15.77 19.14,-30.99 28.67,-46.52 4.26,-6.18 2.52,-14.03 2.85,-21.03 -0.15,-91.3 -0.02,-182.59 -0.06,-273.91 -10.4,-10.89 -21.04,-21.53 -31.12,-32.71zm16.95 5.36l0 0c7.41,8.56 15.31,16.73 23.4,24.65 -0.15,1.07 -0.44,3.21 -0.58,4.28 -0.11,97.26 0.12,194.51 -0.11,291.74 -8.34,11.95 -15.61,24.58 -23.36,36.94 52.79,-7.98 105.6,-15.77 158.3,-24.32 0.24,-25.45 0.13,-50.91 0.06,-76.36 -9.61,5.26 -19.05,10.84 -28.44,16.46 -12.56,8.48 -28.52,7.39 -42.82,10.55 0.2,-99.37 0.2,-198.76 0,-298.15 -28.82,4.82 -57.56,10.06 -86.45,14.21zm923.54 -18.72c11.76,-3.88 24.39,-2.5 36.39,-0.63 21.04,3.51 42.1,6.79 63.1,10.54 19.36,3.56 40.33,8.74 53.61,24.49 15.91,18.3 18.25,43.71 18.76,66.93 0.18,67.67 0,135.32 0.09,202.98 -0.13,15.67 -0.53,31.51 -4.13,46.81 -2.92,11.45 -8.54,23.07 -18.89,29.5 -11.96,7.56 -26.89,7.29 -40.36,5.15 -25.48,-3.93 -50.85,-8.5 -76.22,-12.92 -18.45,-3.28 -37.48,-10.51 -49.12,-25.92 -12.74,-16.45 -15.17,-38.06 -14.82,-58.21 0.05,-72.89 0,-145.78 0.02,-218.67 0,-16.97 1.37,-34.62 9.33,-49.93 4.69,-9.06 12.4,-16.91 22.24,-20.12zm6.9 6.85l0 0c-9.97,1.81 -18.01,9.37 -22.22,18.34 -7.39,15.26 -7.66,32.66 -8.1,49.28 0,72.2 -0.05,144.39 0.02,216.57 0.42,17.71 2.28,36.86 13.68,51.29 11.22,14.32 29.67,19.99 46.94,23 22.93,3.68 45.89,7.37 68.74,11.65 12.2,1.87 25.74,3.68 36.99,-2.68 8.81,-4.8 13.63,-14.39 16.31,-23.67 4.15,-15.84 3.57,-32.37 4.19,-48.61 0,-63.99 0.05,-127.95 -0.02,-191.94 -0.72,-21.42 -0.11,-44.44 -11.72,-63.38 -8.85,-15.13 -25.9,-22.87 -42.45,-26.24 -23.94,-4.8 -48.08,-8.52 -72.18,-12.56 -9.97,-1.43 -20.21,-3.35 -30.18,-1.05zm-1164.74 55.28c51.64,-12 103.2,-24.36 154.83,-36.47 20.53,120.56 40.52,241.22 61.47,361.69 -22.56,4.64 -45.09,9.28 -67.6,14.04 -3.17,0.22 -6.52,1.89 -9.62,0.56 -4.44,-29.14 -9.1,-58.28 -12.94,-87.53 -20.35,4.4 -40.56,9.37 -60.82,14.1 -4.68,31.64 -8.95,63.34 -13.41,95.02 -32.48,8.61 -64.92,17.4 -97.52,25.66 8.68,-15.84 17.41,-31.64 26.28,-47.37 5.18,-8.59 5.34,-18.85 6.9,-28.44 14.19,-93.75 27.86,-187.57 42.19,-281.27 -9.75,-10.17 -20.68,-19.17 -29.76,-29.99zm16.37 5l0 0c7.48,7.41 14.91,14.84 22.31,22.31 -15.44,101.72 -30.5,203.47 -45.73,305.21 -5.27,14.63 -14.82,27.35 -21.56,41.36 24.46,-5.93 48.62,-13.05 73.05,-19.12 4.66,-31.81 8.5,-63.74 13.36,-95.51 25.06,-5.62 50,-11.82 75.12,-17.11 4.49,29.56 8.59,59.19 13.21,88.73 19.97,-3.97 40,-7.77 59.88,-12.14 -0.6,-10.44 -3.32,-20.59 -4.8,-30.9 -17.82,-104.68 -35.42,-209.4 -53.25,-314.09 -43.84,10.53 -87.79,20.62 -131.59,31.26zm1318.4 -42.59c37.75,8.88 75.72,16.87 113.29,26.53 -0.31,99.41 -0.25,198.83 -0.05,298.25 9.84,2.02 19.79,7.94 30.01,4.68 13.37,-3.64 26.69,-7.43 40.12,-10.89 -0.43,33.51 0,67.02 -0.78,100.51 -59.68,-14.59 -119.3,-29.45 -179.07,-43.66 8.35,-11.33 17.83,-21.75 26.48,-32.84 4.47,-5 2.64,-12.07 3.02,-18.14 -0.16,-90 -0.07,-179.98 -0.05,-269.96 0.76,-7.03 -4.46,-12.27 -8.01,-17.69 -8.39,-12.23 -17.07,-24.25 -24.96,-36.79zm18.74 12.92l0 0c7.47,10.91 14.92,21.82 22.46,32.68 -0.13,97.41 -0.04,194.82 -0.04,292.23 0.27,2.49 -0.36,4.7 -1.85,6.62 -6.81,8.7 -14.01,17.05 -20.91,25.64 51.9,13 103.95,25.41 155.86,38.24 0.05,-26.31 1.23,-52.59 0.78,-78.92 -12.87,3.06 -25.32,7.77 -38.3,10.2 -11,-1.67 -21.44,-5.93 -32.17,-8.77 0.09,-99.35 -0.07,-198.67 0.09,-298.02 -28.65,-6.65 -57.28,-13.36 -85.92,-19.9zm-385.39 -0.25c17.66,1.52 35.38,2.64 53,4.49 5.34,-0.11 8.42,5.55 8.02,10.33 0.06,35.07 0.06,70.14 0,105.19 0.46,4.53 -3.28,9.53 -8.17,8.35 -17.65,-1.01 -35.21,-3.02 -52.83,-4.2 0.04,-41.38 0.09,-82.77 -0.02,-124.16zm8.3 9.22l0 0c0.22,35.76 -0.05,71.55 0.13,107.31 14.59,0.96 29.11,2.61 43.73,3.12 -0.16,-35.65 0.02,-71.3 -0.11,-106.95 -14.62,-0.94 -29.16,-2.5 -43.75,-3.48zm496.45 10.3c35.99,9.84 71.82,20.31 107.69,30.53 5.11,0.31 5.53,5.77 6.83,9.61 10.73,41.9 21.62,83.75 32.75,125.54 13.36,-36.83 24.39,-74.47 37.37,-111.44 26.02,9.8 52.5,18.27 78.6,27.89 -25.48,58.57 -50.29,117.4 -75.66,176.01 -1.91,4.33 -2.83,9.03 -2.69,13.78 0.2,52.73 -0.05,105.42 0.13,158.14 -35.94,-11.8 -72.33,-22.2 -108.16,-34.31 9.97,-11.07 21.33,-21.04 30.3,-32.95 1.18,-36.15 0,-72.45 0.55,-108.63 0.78,-10.78 -4.19,-20.6 -7.52,-30.52 -19.16,-54.49 -38.5,-108.9 -57.49,-163.43 -3.26,-9.79 -10.69,-17.22 -16.64,-25.39 -8.64,-11.62 -17.94,-22.8 -26.06,-34.83zm21.55 14.64l0 0c8.26,12.38 18.67,23.29 26.44,36.01 22.69,63.12 44.58,126.54 67.13,189.73 1.36,3.72 1.03,7.76 1.14,11.69 -0.27,37.79 0.18,75.61 -0.23,113.4 -6.69,9.73 -16.01,17.4 -23.78,26.28 27.96,9.42 56.22,17.92 84.4,26.62 -0.29,-50.98 -0.2,-101.98 -0.06,-152.96 1.78,-10.33 7.78,-19.41 11.35,-29.2 21.22,-49.82 42.68,-99.53 63.86,-149.35 -20.78,-7.03 -41.39,-14.5 -62.07,-21.75 -14.46,43.55 -28.4,87.3 -43.31,130.69 -14.25,-52.18 -26.7,-104.9 -41.54,-156.91 -27.51,-8.88 -55.64,-15.93 -83.33,-24.25zm-292.45 -5.29c3.26,-1.54 7.03,-0.02 10.47,0.27 13.12,2.68 26.53,3.99 39.56,7.12 8.12,3.66 4.95,14.03 5.33,21.01 -0.03,72.98 0.44,145.98 -0.05,218.96 0.34,6.02 -6.87,5.89 -11.02,4.86 -13.36,-2.52 -26.88,-4.21 -40.18,-7.02 -5.42,-0.79 -7.79,-6.54 -7.3,-11.45 0.03,-75.16 0.03,-150.33 -0.02,-225.49 -0.13,-3.06 0.25,-6.58 3.21,-8.26zm5.31 8.03l0 0c-0.15,76.26 0.09,152.5 -0.13,228.73 13.95,2.72 28,4.93 41.97,7.52 -0.11,-76.44 0.06,-152.89 -0.09,-229.33 -13.92,-2.21 -27.8,-4.77 -41.75,-6.92zm-1298.02 15.98c11.94,-2.03 25.61,-0.43 34.51,8.52 10.53,9.8 13.79,24.59 15.2,38.33 1.98,21.17 0.89,42.5 1.18,63.74 -26.59,7.88 -53.08,16.13 -79.78,23.58 -0.14,-17.6 -0.16,-35.18 0.04,-52.78 -12.74,4.04 -25.88,6.98 -38.33,11.87 -3.66,6.67 -1.22,15.35 -1.87,22.82 0.09,68.72 -0.05,137.41 0.07,206.13 13.29,-4.4 26.63,-8.62 39.95,-12.92 0.43,-22.09 -0.44,-44.24 0.34,-66.31 26.06,-9.39 53.08,-16.11 79.58,-24.2 -0.42,27.48 1.11,55.08 -1.54,82.48 -2.08,20.93 -8.81,42.88 -25.14,57.13 -16.96,15.09 -39.89,19.53 -60.76,26.64 -20.32,6.05 -40.04,14.42 -60.97,18.23 -13.34,2.5 -29.14,0.47 -38.26,-10.62 -10.18,-12.36 -11.78,-29.2 -12.12,-44.62 0.02,-75.88 -0.06,-151.76 0.05,-227.63 0.55,-25.26 5.26,-52.52 22.82,-71.84 16.33,-17.85 41.03,-22.85 62.98,-30.37 20.69,-6 40.7,-14.66 62.05,-18.18zm-5.89 9.77l0 0c-25.86,6.45 -50.85,15.86 -76.26,23.83 -15.97,5.04 -32.3,12.67 -41.85,27.11 -14.97,22.02 -15.46,49.79 -15.44,75.47 0.02,69.14 0.02,138.26 0,207.4 0.18,10.62 0.51,21.42 3.63,31.66 2.7,8.72 8.95,17.2 18.23,19.41 11.81,2.88 23.99,-0.2 35.3,-3.73 23.16,-7.38 46.2,-15.1 69.41,-22.33 12.69,-3.99 25.36,-9.64 34.51,-19.61 13.14,-13.23 17.83,-32.22 19.52,-50.22 1.34,-22.94 1.68,-45.89 1.23,-68.85 -20.7,6.29 -41.45,12.43 -62.27,18.4 -0.18,19.93 0.27,39.85 -0.16,59.77 -0.17,5.98 -5.95,9.29 -11.06,10.74 -13.3,4.19 -26.39,9.05 -39.87,12.62 -3.55,1.25 -6.83,-1.98 -6.25,-5.53 -0.22,-75.92 0,-151.87 -0.11,-227.79 -0.62,-5.11 1.58,-10.93 6.76,-12.67 11.2,-4 22.69,-7.01 33.98,-10.71 4.62,-1.34 9.3,-3.46 14.21,-2.66 2.03,2.21 2.7,5.18 2.5,8.13 0.07,14.25 -0.07,28.51 0,42.76 20.75,-5.97 41.25,-12.69 62.07,-18.42 0.98,-18.43 0,-36.91 -0.78,-55.31 -1.1,-12.85 -3.59,-27.31 -14.17,-35.94 -9.35,-7.46 -22.24,-6.01 -33.13,-3.53zm184.6 3.73c4.82,-1.14 9.63,-2.28 14.45,-3.35 7.55,51.74 15.6,103.41 23.09,155.17 -20.19,4.82 -40.44,9.28 -60.64,13.97 7.68,-55.27 15.53,-110.51 23.1,-165.79zm-12.9 154.94l0 0c13.7,-3.21 27.38,-6.58 41.1,-9.66 -7.19,-45.51 -13.41,-91.16 -20.57,-136.65 -7.57,48.64 -13.73,97.54 -20.53,146.31zm-23.4 296c19.32,-0.05 38.64,-0.05 57.96,0.04 9.28,17.67 18.9,35.18 28.09,52.9 10.11,-17.45 19.54,-35.25 29.31,-52.88 19.37,-0.15 38.76,-0.02 58.15,-0.13 -5.98,7.54 -12.16,14.93 -18.34,22.29 0.11,18.49 0.09,36.99 0.09,55.48 0.04,10.4 -2.17,20.89 -0.45,31.24 2.59,8.72 7.41,16.58 11.18,24.81 -17.54,0.11 -35.07,0.35 -52.59,-0.14 0,-18.67 -0.29,-37.32 -0.74,-55.97 -9.52,14.72 -17.29,30.52 -26.03,45.73 -9.84,-14.97 -17.96,-30.96 -27.24,-46.25 -0.47,18.9 -0.09,37.82 -0.2,56.72 -16.87,-0.18 -33.74,0.44 -50.56,-0.2 2.34,-10 11.02,-18.16 9.75,-29.07 -0.47,-26.73 0.6,-53.53 -0.49,-80.23 -4.91,-8.81 -12.25,-16 -17.89,-24.34zm11.73 5.57l0 0c4.04,5.8 9.28,10.89 12.5,17.23 0.44,28.76 0.02,57.51 0.2,86.27 0.38,5.38 -2.95,9.91 -4.93,14.64 -0.61,1.02 -1.83,3.05 -2.44,4.06 12.05,0.07 24.1,-0.02 36.15,0.04 -0.76,-24.02 1.05,-48.19 -0.92,-72.1 0.72,0.44 2.15,1.33 2.84,1.78 10.15,18.09 20.88,35.85 30.87,54.04 11.69,-18.94 21.02,-39.31 33.27,-57.9 0.22,24.72 0.16,49.44 0.02,74.16 12.45,0.2 24.92,0.16 37.39,0.07 -2.94,-6.92 -8.25,-13.34 -8.05,-21.17 0.02,-28.74 0.07,-57.48 0.02,-86.19 4.24,-4.93 8.46,-9.88 12.54,-14.95 -13.97,-0.04 -27.93,0.05 -41.88,-0.02 -11.24,19.92 -21.91,40.16 -33.26,60.01 -10.53,-20.03 -21.33,-39.95 -31.93,-59.94 -14.12,-0.07 -28.27,-0.07 -42.39,-0.03zm214.78 -5.64c18.41,0.09 36.82,0.09 55.22,0 1.16,33.18 0.38,66.42 0.43,99.62 3.75,0 7.49,0 11.26,0.02 0.27,-33.22 0.03,-66.42 0.14,-99.64 18.16,0.04 36.32,0.16 54.48,-0.07 -4.24,10 -11.51,19.46 -10.93,30.84 0.07,23.87 0.13,47.76 0.07,71.64 0.17,9.14 -2.64,19.05 -10.24,24.78 -9.51,7.48 -22.36,6.65 -33.76,6.81 -13.86,-0.45 -28.4,1.47 -41.56,-3.77 -8.97,-3.57 -13.46,-13.3 -13.35,-22.51 -0.49,-25.64 -0.09,-51.3 -0.11,-76.93 0.69,-11.54 -7.16,-20.82 -11.65,-30.79zm9.64 5.6l0 0c3.22,7.47 8.88,14.52 8.24,23.11 -0.09,16.33 0.04,32.69 -0.09,49.04 -0.67,12.41 -1.52,25.01 0.89,37.33 2.32,8.27 11.4,11.58 19.14,12.33 14.01,1.03 28.09,0.54 42.12,0.23 7.23,0.02 14.97,-2.19 19.7,-7.99 5.14,-5.93 5.07,-14.28 5.43,-21.68 0,-23.81 0.02,-47.59 -0.07,-71.4 -0.83,-7.78 4.26,-14.21 7.2,-20.97 -13.23,0.04 -26.43,0 -39.64,0.04 -0.13,33.49 0.09,66.98 0.54,100.49 -7.84,0.02 -15.67,0.05 -23.52,-0.02 0.2,-33.49 0.02,-67 0.09,-100.49 -13.34,0 -26.68,0.02 -40.03,-0.02zm179.31 7.12c5.42,-9.49 16.96,-12.7 27.22,-12.63 22.02,-0.11 44.04,-0.05 66.06,0.02 -0.15,15.64 -0.11,31.28 -0.02,46.92 -8.86,-3.81 -17.13,-8.9 -26.15,-12.32 -9.03,-1.47 -18.25,-0.42 -27.35,-0.51 0.02,5.18 0.02,10.38 0.05,15.6 15.72,0.84 33.22,-2.86 47.38,5.91 10.33,7.54 10.18,21.71 10.2,33.22 -0.22,11.67 1.45,24.92 -6.2,34.76 -6.5,8.72 -18.16,10.17 -28.23,10.26 -21.86,0.02 -43.7,0 -65.54,-0.07 -0.03,-16.17 -0.12,-32.37 0.06,-48.54 8.61,4.64 16.76,10.24 25.77,14.12 9.8,1.94 19.92,0.58 29.87,0.67 0,-5.89 0,-11.76 0.03,-17.63 -14.84,-0.44 -30.55,1.88 -44.56,-4.1 -10.82,-5.53 -12.91,-18.61 -12.98,-29.59 0.2,-12.04 -1.76,-25.12 4.39,-36.09zm6.21 1.54l0 0c-6.81,9.34 -3.93,21.52 -4.56,32.28 -0.09,9.84 0.49,22.84 11.07,27.31 14.95,4.59 30.88,1.45 46.27,2.36 0.07,9.97 0.05,19.95 0.02,29.92 -12.18,-0.16 -24.38,0.43 -36.52,-0.18 -6.24,-2.39 -11.71,-6.29 -17.42,-9.64l0.13 -2.18c-5.29,10.46 -1.54,23.16 -2.34,34.51 17.78,0.38 35.56,0.29 53.34,0.38 3.89,0.09 7.81,-0.42 11.52,-1.69l2.38 0.53c6.67,-1.29 14.44,-3.14 17.76,-9.79 4.51,-8.91 2.9,-19.32 3.53,-28.94 -0.16,-10.75 0.51,-25.32 -11.14,-30.54 -14.99,-5.07 -31.07,-1.12 -46.49,-2.61 -0.51,-9.46 -0.11,-18.95 -0.22,-28.43 11.15,0.29 22.35,-0.58 33.46,0.38 6.85,2.68 13.16,6.54 19.81,9.68 0.16,-10.66 0.07,-21.32 0.12,-31.97 -19.19,0 -38.36,-0.06 -57.52,0 -8.3,0.12 -17.98,1.32 -23.2,8.62zm149.23 -14.22c41.12,0 82.24,0.09 123.38,-0.04 -0.14,19.34 0.27,38.69 -0.2,58.01 -9.28,-7.05 -18.12,-14.66 -27.53,-21.47 -3.22,-2.52 -7.48,-2.45 -11.27,-3.21 -0.25,22.98 0,45.96 -0.18,68.94 -0.67,11.58 6.72,21.29 10.84,31.61 -22.11,0.09 -44.22,0.12 -66.3,-0.02 4.48,-10.15 12.36,-19.63 11.4,-31.34 -0.18,-23.03 -0.05,-46.03 -0.14,-69.05 -4.3,0.69 -9.12,0.51 -12.6,3.59 -9.26,6.85 -17.96,14.45 -27.35,21.19 0,-19.41 0.06,-38.8 -0.05,-58.21zm5.8 5.6l0 0c0.09,13.48 -0.15,26.93 0.18,40.41 6.72,-4.84 12.96,-10.27 19.59,-15.22 5.69,-4.75 13.63,-2.16 20.39,-2.72 0,26.22 0,52.43 0.02,78.62 0.56,6.79 -3.55,12.5 -6.18,18.41l-0.78 -0.02 -1 2.25c15.95,1.32 32.01,0.36 48.01,0.54 -3.32,-7.48 -8.72,-14.71 -7.88,-23.3 0.14,-25.5 -0.02,-51 0.09,-76.5 5.45,-0.04 10.89,-0.04 16.34,-0.02 7.74,5.96 15.37,12.11 23.22,17.94 0.11,-13.48 0.02,-26.93 0.04,-40.41 -37.34,0.02 -74.69,-0.02 -112.04,0.02zm191.07 -5.62c21.75,0.07 43.5,0 65.26,0.07 5.95,33.4 12.89,66.64 18.72,100.06 1.82,12.43 9.61,22.62 14.94,33.67 -17.93,0.15 -35.87,0.24 -53.81,-0.05 -1.12,-10.28 -2.77,-20.5 -4.64,-30.65 -5.22,0.09 -10.49,-0.09 -15.64,0.67 -2.25,9.9 -2.88,20.08 -4.31,30.09 -18.38,0.07 -36.79,0.12 -55.15,-0.02 5.18,-9.68 13.26,-18.2 15.26,-29.31 6.56,-34.83 12.99,-69.68 19.37,-104.53zm5.15 5.67l0 0c-6.49,33.78 -12.56,67.62 -18.81,101.42 -1.18,7.9 -6.44,14.12 -10.41,20.77 13.07,0.23 26.12,0.07 39.19,0.09 1.41,-10.39 2.73,-20.79 4.2,-31.17 8.79,-0.04 17.58,-0.04 26.37,0 1.5,10.38 3.24,20.75 4.68,31.15 12.92,0.04 25.82,0.07 38.71,0 -3.3,-6.29 -7.29,-12.31 -9.25,-19.16 -6.94,-34.21 -12.92,-68.61 -19.77,-102.81 -18.27,-0.85 -36.61,-0.18 -54.91,-0.29zm146.63 -5.6c16.97,-0.07 33.95,-0.11 50.93,0.07 10.22,17.75 20.26,35.6 30.97,53.05 -0.02,-17.92 -0.2,-35.81 0.11,-53.72 16.73,1.07 33.49,0.4 50.27,0.53 -3.91,10.04 -10.38,19.66 -9.75,30.86 0.49,34.33 -0.54,68.67 -0.34,103.03 -13.65,0.02 -27.33,0.11 -40.98,-0.09 -10.06,-18.79 -20.08,-37.62 -30.5,-56.2 -0.18,18.76 0.02,37.55 -0.05,56.31 -17.06,0 -34.13,0.02 -51.2,-0.05 4.37,-10.19 11.74,-19.92 10.87,-31.56 -0.16,-23.83 -0.12,-47.66 0,-71.49 0.53,-11.24 -6.45,-20.68 -10.33,-30.74zm9.03 5.55l0 0c3.04,7.46 8.08,14.66 7.48,23.07 -0.34,28.16 0.64,56.36 -1.07,84.47 -1.28,4.24 -3.33,8.17 -5.09,12.23l-1.25 0.02 0.18 2.43c11.62,-0.15 23.27,0.4 34.89,-0.4l0.51 0.09c-0.58,-24.48 -0.35,-48.97 -0.15,-73.47 13.79,24.45 27.08,49.2 40.4,73.89 10.44,0 20.91,0.02 31.37,0 -0.02,-33.06 0.02,-66.13 -0.02,-99.19 -0.54,-8.37 4.13,-15.62 6.94,-23.14 -11.83,-0.02 -23.65,-0.04 -35.48,0 -0.02,23.05 0.07,46.1 -0.02,69.17 -14.16,-22.67 -27.06,-46.1 -40.6,-69.12 -12.7,-0.11 -25.39,-0.07 -38.09,-0.05zm193.75 2.37c5.69,-6.49 14.77,-7.94 22.95,-7.97 21.98,-0.11 43.98,0.23 65.95,-0.15 0.16,15.84 0.16,31.7 0,47.54 -7.89,-4.35 -14.94,-10.42 -23.49,-13.43 -9.46,-0.96 -19.01,-0.22 -28.51,-0.4 -0.02,7.83 -0.05,15.66 -0.07,23.49 17.43,-0.09 34.85,0.11 52.28,-0.18 1.16,15.91 0.17,31.86 0.8,47.77 0.67,9.73 0.87,19.48 0.76,29.23 -20.37,0.06 -40.72,-0.03 -61.09,0.11 -9.28,-0.07 -19.48,-0.45 -26.97,-6.65 -6.32,-4.77 -8.84,-12.76 -9.66,-20.3 -2.57,-21.58 -1.14,-43.33 -1.48,-64.99 0.72,-11.56 0.07,-24.99 8.53,-34.07zm2.27 6.62l0 0c-5.69,10.45 -4.03,22.72 -4.21,34.14 0.44,21.55 -2.61,43.48 2.34,64.7 2.1,8.52 10.33,13.43 18.67,14.19 21.64,0.45 43.31,0.07 64.97,0.2l0.18 -2.39c0,-20.79 0,-41.58 -0.58,-62.38 -12.74,-0.11 -25.5,-0.15 -38.24,0 3.01,5.6 6.87,10.8 9.19,16.76 0.71,8.74 0.16,17.56 0.22,26.33 -8.21,0 -16.42,0 -24.6,-0.07 0.46,-26.17 -0.54,-52.36 0.55,-78.53 12.27,0.17 24.59,-0.45 36.86,0.24 5.47,2.43 10.29,6.05 15.39,9.1 0.21,-10.42 0.09,-20.86 0.14,-31.28 -20.04,0 -40.05,-0.09 -60.08,0 -7.59,0.25 -16.6,1.88 -20.8,8.99zm34.72 46.63l0 0c0.09,12.77 -0.98,25.48 -1.25,38.24 4.42,0.07 8.83,0.12 13.3,0.16 -0.25,-6.4 0.75,-13.03 -0.99,-19.25 -2.87,-6.83 -7.07,-12.97 -11.06,-19.15zm122.15 -41.6c2.81,-11.9 14.86,-19.33 26.61,-19.35 23.25,-0.64 46.52,-0.04 69.77,-0.27 0.13,15.71 0.13,31.42 0.04,47.12 -8.83,-3.86 -17.06,-9.03 -26.1,-12.36 -9.15,-1.58 -18.5,-0.49 -27.69,-0.78 -0.02,5.29 -0.02,10.6 0.05,15.89 13.25,0.13 26.82,-1.32 39.8,2.09 9.53,2.46 16.24,11.56 17.04,21.2 0.92,11.18 0.65,22.44 0.32,33.67 -0.07,8.88 -4.26,18.16 -12.23,22.62 -7.61,4.33 -16.62,4.37 -25.1,4.51 -20.64,-0.14 -41.29,0.06 -61.93,-0.16 0.11,-16.13 0.07,-32.24 0.02,-48.35 8.9,4.55 17.05,10.65 26.42,14.24 9.61,1.43 19.41,0.38 29.11,0.42 -0.02,-5.87 -0.02,-11.71 -0.02,-17.58 -14.06,-0.45 -28.69,1.43 -42.26,-3.17 -9.77,-3.41 -14.59,-13.96 -14.74,-23.74 -0.27,-11.98 -1.54,-24.2 0.89,-36zm10.55 -7.1l0 0c-6.02,5.91 -5.96,14.93 -5.87,22.78 0.29,9.64 -0.98,19.63 2.08,28.98 2.54,7.41 10.42,11.31 17.87,11.65 12.54,0.64 25.1,0.02 37.64,0.26 -0.12,9.95 -0.12,19.93 0,29.9 -12.48,-0.25 -25.01,0.63 -37.44,-0.36 -6.45,-2.83 -12.29,-6.87 -18.54,-10.1 -0.07,10.75 0.02,21.48 -0.07,32.24 22.45,-0.12 44.91,0.58 67.36,-0.32 10.22,-0.06 19.59,-8.14 20.03,-18.56 0.41,-12.63 1.48,-25.46 -0.67,-37.95 -1.18,-7.43 -7.56,-13.05 -14.88,-14.05 -13.74,-2.15 -27.64,-0.41 -41.45,-0.74 -0.07,-9.6 -0.05,-19.19 0,-28.78 10.93,0.24 21.89,-0.31 32.82,0.22 7.05,2.37 13.34,6.45 19.92,9.84 0.65,-10.69 1.21,-21.57 -0.36,-32.19 -18.47,0.6 -36.94,0 -55.39,0.29 -8.03,0.26 -17.07,0.8 -23.05,6.89zm-494.78 61.87l0 0c1.63,-0.05 4.91,-0.14 6.56,-0.2 -0.92,-5.2 -1.96,-10.38 -3.24,-15.49 -1.82,5.05 -2.65,10.38 -3.32,15.69z"/>
   <path class="fil1" d="M1587.99 1159.66c7.59,-5.13 16.91,-6.78 25.95,-6.71 24.43,-0.03 48.86,0.11 73.29,-0.07 0.27,22.13 -0.74,44.31 0.42,66.4 4.42,18.13 4.64,37.05 2.77,55.57 -2.34,16.33 -17.62,28.74 -33.96,28.54 -27.37,0.29 -54.75,0.06 -82.12,0.09 -0.2,-24.66 0.96,-49.31 0.6,-73.94 -2.25,-14.44 -2.97,-29.12 -1.63,-43.64 0.87,-10.29 5.91,-20.5 14.68,-26.24zm-868.41 130.45c0.8,-11.35 -2.95,-24.05 2.34,-34.51l-0.13 2.18c-0.85,10.22 -0.29,20.49 -0.38,30.73 21.01,0.42 42.03,-0.56 63.03,0.29 -3.71,1.27 -7.63,1.78 -11.52,1.69 -17.78,-0.09 -35.56,0 -53.34,-0.38zm741 -67.38c3.99,6.18 8.19,12.32 11.06,19.15 1.74,6.22 0.74,12.85 0.99,19.25 -4.47,-0.04 -8.88,-0.09 -13.3,-0.16 0.27,-12.76 1.34,-25.47 1.25,-38.24zm-362.08 13.17c0.67,-5.31 1.5,-10.64 3.32,-15.69 1.28,5.11 2.32,10.29 3.24,15.49 -1.65,0.06 -4.93,0.15 -6.56,0.2zm-53.12 -714.74c4.75,-11.69 13.7,-20.97 21.46,-30.68 -0.65,9.68 -2.92,19.17 -5.87,28.38 -2.9,8.55 -1.11,17.63 -1.07,26.44 0.58,14.21 -1.98,28.27 -3.1,42.41 -5.37,2.95 -10.62,6.07 -16.04,8.88 -0.78,0.07 -2.32,0.16 -3.08,0.2 2.12,-7.03 7.12,-12.38 11.4,-18.12 -1.4,-19.03 -9.05,-38.37 -3.7,-57.51zm-149.1 28.91c15.13,-37.06 31.17,-74.34 56.44,-105.79 -6.4,18.98 -13.87,37.61 -20.28,56.6 -6.58,20.63 -9.75,42.16 -15.99,62.89 -1.74,5.8 -4.38,11.69 -9.6,15.15 -12.94,8.99 -27.82,14.72 -42.54,20.12 -25.5,8.3 -43.42,29.5 -62.76,46.88 7.36,-13.88 17.09,-26.33 26.41,-38.91 12.81,-17.18 31.37,-28.49 49.22,-39.69 7.18,-4.69 16.67,-8.06 19.1,-17.25zm80.78 -110.59c5.49,6.11 10.76,12.47 15.13,19.48 3.1,8.3 5.87,17.13 4.64,26.1 -0.4,6.51 -2.97,13.23 -0.71,19.68 3.95,12.11 9.23,23.76 13.36,35.81 -2.18,-2.03 -4.3,-4.06 -6.4,-6.16l3.43 2.72c-5.55,-13.65 -13.34,-26.24 -19.47,-39.62 1.54,-4 3.66,-7.9 3.9,-12.27 -0.62,-5.92 -4.5,-10.71 -6.6,-16.11 -3.73,-9.53 -4.73,-19.79 -7.28,-29.63zm-15.43 -126.9c10.06,-6.14 20.57,-11.49 30.92,-17.14 -1.99,12.88 -4.93,25.57 -6.54,38.49 14.93,7.87 32.73,7.94 47.83,15.48 8.21,4.15 13.77,11.74 20.44,17.78 7.14,-7.31 9.64,-18.2 18.14,-24.36 11.62,-10.75 27.78,-12.58 42.59,-15.66 -4.48,25.77 -2.83,53.19 -14.61,77.19 -3.42,9.11 -9.26,17.07 -17.09,22.85 4.42,19.03 21.66,35 17.2,55.71 -1.59,15.12 -9.68,28.22 -14.24,42.48 -3.36,9.35 -0.73,19.3 -0.64,28.91 0.4,9.71 -2.75,19.21 -1.99,28.92 3.57,8.83 10.78,16.66 10.29,26.79 -0.38,13.74 -6.65,27.17 -15.95,37.21 -1.57,8.01 -2.26,16.92 -8.06,23.23 -9.39,9.55 -16.87,21.71 -30.32,26.06 6.43,19.81 -0.4,40.31 -1.07,60.44 5.64,7.03 11.09,14.23 16.98,21.04 13.12,13.07 14.08,32.84 23.4,48.19 9.13,14.39 21.24,26.66 30.25,41.14 5.36,8.5 5.4,18.85 8.15,28.29 1.96,7.16 3.35,14.48 4.44,21.84 4.62,-6.81 12.87,-12.65 12.18,-21.73 -0.07,-90.02 -0.04,-180.07 -0.02,-270.09 0.18,-3.59 -0.63,-7.16 -3.17,-9.82 -14.61,-18.16 -29.41,-36.16 -43.68,-54.57 23.26,0.25 46.4,2.81 69.63,4.26 39.69,2.99 79.4,5.69 119.11,8.5 20.37,2.26 41.45,6.85 58.3,19.14 19.12,14.68 26.68,39.65 26.91,62.92 0.42,35.96 0.13,71.95 0.15,107.92 -0.33,21.21 -1.83,44.39 -15.79,61.55 -11.23,14.64 -30.46,20.19 -48.24,19.9 -20.26,-0.47 -40.34,-3.7 -60.57,-4.66 0.09,24.27 -0.2,48.55 0.13,72.82 1.32,17.54 0.67,35.14 0.89,52.72 -45.87,-2.94 -91.8,-5.2 -137.63,-8.75 -4.44,7.97 -9.19,15.75 -14.14,23.43 -9.75,13.88 -5.38,32.46 -13.55,47.01 -5.51,8.39 -14.14,13.96 -20.7,21.42 -6.11,8.12 -6.89,19.05 -13.1,27.08 -8.01,7.25 -17.85,12.07 -26.72,18.12 -6.94,4.12 -13.97,10.06 -22.61,8.88 -16.35,-2.19 -31.94,-9.69 -44.24,-20.64 -11.98,-9.13 -17.49,-25.59 -14.19,-40.18 2.46,-11.65 4.76,-24.83 14.35,-32.93 7.56,-6.07 16.15,-10.8 24.96,-14.79 10.69,-5.02 22.74,-2.66 33.96,-1.48 2.1,-4.7 3.99,-9.52 6.72,-13.9 4.12,-6.87 14.12,-8.5 16.24,-16.82 5.71,-16.93 13.7,-33.6 14.9,-51.65 -3.61,-3.59 -8.03,-6.15 -12.31,-8.79 -12.9,-7.52 -25.48,-15.86 -39.69,-20.75 -9.66,-3.43 -18.68,-8.38 -27.4,-13.72 -8.75,2.52 -17.8,3.6 -26.75,5.02 -4.06,23.83 -7.88,47.73 -10.55,71.75 -1.54,15.09 -6.74,30.26 -17.09,41.59 -8.75,10.02 -17.34,20.17 -25.86,30.37 -5.67,1 -11.31,1.98 -16.96,2.96 3.06,9.95 0.23,19.99 -1.38,29.88 3.46,9.26 10.35,17.06 12.16,26.99 2.59,13.46 -0.4,27.04 -1.85,40.45 -1.25,7.88 -1.07,16.11 -3.53,23.74 -8.1,8.7 -20.17,12.22 -31.1,15.93 -6.94,2.88 -14.19,0.45 -21.06,-1.25 0.33,21.91 -0.63,43.88 0.42,65.77 4.33,15.31 4.15,31.28 3.46,47.05 -0.58,9.33 -3.64,18.88 -10.42,25.55 -7.34,7.14 -17.85,9.99 -27.86,9.86 -26.13,0.02 -52.25,-0.04 -78.36,-0.02 -0.07,-23.67 -0.56,-47.37 0.49,-71.04 -2.01,-16.89 -3.21,-34.07 -1.22,-51.02 2.54,-16.33 18.22,-28.16 34.38,-28.34 23.56,-0.55 47.16,0.32 70.72,-0.4 -15.26,-7.32 -29.25,-18.23 -39.22,-31.93 4.64,-15.97 13.3,-30.54 18.56,-46.27 -4.68,-10.1 -7.03,-21.01 -6.25,-32.19 -18.31,-3.28 -34.93,-12.05 -52.52,-17.76 -14.52,-3.26 -18.74,-19.23 -27.68,-29.18 5.51,-13.03 12.22,-25.5 17.67,-38.55 -5.29,-6.74 -5.76,-15.24 -5.04,-23.41 -12.79,-8.7 -28.23,-15.17 -36.77,-28.69 -6.56,-10.37 -3.15,-23.22 1.96,-33.4 -16.2,-34.18 -34.34,-68.94 -37.48,-107.25 -2.61,-16.22 -0.29,-32.66 2.77,-48.61 4.9,-23.22 11.58,-47.07 27.26,-65.53 -10.64,-14.88 -19.9,-32.41 -18.14,-51.31 0.47,-11.65 7.23,-21.51 13.74,-30.68 -9.17,-2 -18.65,-3.28 -27.97,-1.6 -17.54,2.3 -32.87,14.03 -51,12.98 -10.82,-0.76 -22.4,-2.43 -31.02,-9.59 -11.06,-8.59 -22.15,-17.14 -33.22,-25.7 17.96,1.8 35.79,6.18 53.93,5.24 4.82,-7.14 9.39,-14.9 16.93,-19.55 16.51,-10.88 37.42,-12.51 56.63,-10.86 -8.64,-4.06 -18.03,-6.07 -26.71,-9.99 23.49,-2.73 47.1,-3.95 70.61,-6.36 8.75,-0.74 17.81,-1.9 26.37,0.75 10.31,3.02 19.82,8.17 29.52,12.7 4.73,2.5 10.04,4.75 13.05,9.41 1.96,3.93 2.43,8.37 3.48,12.59 9.84,1.85 20.17,5.53 30.01,1.69 7.59,-2.7 15.48,-5.33 21.95,-10.28 6.14,-5.85 10.98,-12.9 16.34,-19.46 -18.1,-4.37 -33.96,-18.51 -37.46,-37.21 -2.26,-14.32 -3.69,-28.78 -5.18,-43.19 13.99,10.55 26.37,23.38 41.52,32.26 9.68,1.31 19.14,-3.75 28.56,-5.78 -11.47,-15.08 -17.07,-33.38 -21.51,-51.52 10.71,4.02 20.79,9.69 31.84,12.83 6.22,1.88 12.2,-1.67 18.02,-3.41 -7.83,-19.03 -19.21,-37.33 -21.37,-58.16 0.71,-18.66 3.19,-37.22 4.46,-55.85 8.46,13.81 16,28.11 23.99,42.19 13.34,-2.63 26.99,-4.77 40.56,-2.36 4.35,-10.53 10.44,-20.98 20.37,-27.13zm-3.91 16.4l0 0c-5.42,6.55 -7.83,14.92 -8.95,23.24 -12.67,-5.28 -26.59,-5.2 -39.75,-1.98 9.46,7.85 18.34,16.73 23.42,28.11 -7.4,0.09 -17,3.52 -22.33,-3.5 -10.66,-13.03 -16.8,-29.05 -26.48,-42.75 -0.87,7.85 -2.17,15.71 -1.9,23.6 0.85,9.33 4.71,18.01 8.15,26.6 5.57,12.45 9.43,26.73 21.5,34.65 -10.39,3.92 -20.59,8.65 -31.46,11.13 -7.71,-0.98 -14.79,-4.49 -22.06,-7.03 3.55,9.06 6.62,18.7 13.12,26.17 4.04,4.78 10.73,5.02 16.33,6.67 -11.18,10.33 -26.46,13.43 -40.74,16.98 -4.13,0.69 -8.63,2.34 -12.58,0.11 -10.15,-4.68 -18.16,-12.76 -26.95,-19.48 1.11,12.88 2.07,27.18 11.62,36.97 9.62,11.07 24.9,13.63 38.8,13.97 -8.68,9.37 -16.91,19.14 -24.88,29.09 -7.09,9.44 -18.98,12.83 -29.49,16.96 -13.81,5.55 -28.27,-0.4 -42.13,-2.55 7.72,9.31 15.53,19.19 26.49,24.84 7.07,3.88 15.37,2.63 23.09,2.54 -0.07,0.51 -0.18,1.54 -0.25,2.05 -14.03,-0.29 -28.02,1.07 -41.94,2.75 -8.86,0.98 -14.7,8.5 -21.71,13.14 0.49,-11.4 9.28,-19.39 15.15,-28.36 -8.21,4.37 -17.4,7.68 -23.96,14.46 -5.76,8.59 -12.21,18.76 -8.32,29.47 -3.53,3.1 -7.1,6.11 -10.73,9.04 -1.48,-11.02 -0.87,-22.94 5.37,-32.53 7.68,-11.54 20.31,-18.23 30.08,-27.67 2.3,-8.05 4.95,-16.64 4.04,-25.05 -6.76,-6.32 -16.07,-8.99 -24.19,-13.17 -9.39,-4.64 -19.77,-7.4 -30.32,-6.4 -14.9,0.78 -29.83,1.47 -44.71,2.5 14.97,4.26 30.41,6.72 45.27,11.38 11.78,3.46 18.05,14.95 25.79,23.51 6.2,-1.45 12.43,-2.94 18.65,-4.37 -12.85,13.7 -32.13,17.43 -46.16,29.34 -12,11.73 -12.29,29.67 -17.25,44.75 -3.43,-8.96 -6.53,-19.09 -2.65,-28.46 5.38,-16.27 20.23,-25.93 32.31,-36.88 -11.85,2.81 -22.32,9.35 -31.91,16.57 -10.24,7.43 -18.63,18.81 -18.63,31.93 -0.76,18.54 10.13,34.6 20.91,48.68 -8.21,9.8 -16.13,20.21 -20.26,32.46 -7.54,21.96 -13.36,44.85 -13.7,68.16 1.34,15.69 2.81,31.57 7.99,46.54 8.59,26.24 20.37,51.27 32.77,75.9 -3.32,4.84 -7.25,9.8 -7.65,15.89 -0.83,6.98 3.12,13.54 8.3,17.89 10.31,8.79 22.73,14.55 33.69,22.44 -0.47,5.11 -2.28,10.18 -1.7,15.38 1.32,4.15 4.75,7.14 7.36,10.5 -6.09,12.97 -12.22,25.88 -18.38,38.8 6.07,7.68 9.73,18.81 20.12,21.62 18.26,5.89 35.5,16.06 55.02,17.09 2.81,6.07 4.89,12.54 4.26,19.34 -1.02,8.3 3.86,15.35 7.88,22.11 -8.05,14.44 -13.28,30.17 -20.17,45.12 7.97,7 15.35,14.85 24.39,20.52 8.54,4.71 18.13,7.68 27.82,8.63 9.97,-2.05 19.16,-6.64 28.78,-9.9 1.81,-16.96 5.02,-33.8 5.91,-50.82 0.78,-13.57 -8.81,-24.08 -13.32,-36.06 -1.27,-8.16 3.93,-16.17 2.3,-24.45 -0.98,-5.26 -3.01,-10.28 -4.57,-15.37 8.25,-1.07 16.48,-2.39 24.74,-3.73 8.1,-9.61 16.24,-19.16 24.47,-28.64 8.97,-10.18 13.05,-23.7 14.46,-36.97 3.17,-25.95 7.12,-51.79 11.51,-77.53 5,-0.96 10.02,-1.99 14.97,-3.15 7.07,0.31 13.79,-1.87 20.01,-5.06 8.59,5.62 17.45,11.02 27.16,14.57 19.25,6.65 36.43,17.85 53.68,28.49 5.71,3.05 9.1,9.48 7.87,15.97 -2.65,18.65 -10.33,36.08 -16.64,53.7 -2.14,9.08 -13.92,9.69 -17.34,17.9 -3.03,6.11 -5.82,12.33 -9.1,18.34 -11.04,-4.07 -23.94,-7.21 -35.05,-1.66 -9.13,4.62 -19.14,9.04 -25.57,17.27 -5.38,9.95 -7.85,21.53 -8.1,32.8 1.03,15.35 14.42,25.25 26.8,32.01 8.99,4.22 18.94,9.58 29.16,7.17 10.53,-5.4 20.1,-12.5 30.21,-18.61 11.93,-6.58 10.62,-22.69 19.25,-32.02 6.38,-6.98 14.88,-12.11 19.79,-20.34 5.22,-12.12 3.99,-25.93 8.79,-38.18 4.33,-9.41 11.38,-17.27 15.6,-26.75 3.01,-6.62 4.23,-13.87 6.89,-20.61 4.04,-7.83 12.43,-12.67 15.53,-21.04 0.53,-10.8 -4.84,-20.73 -6.16,-31.3 -1.54,-11.85 -10.06,-20.75 -16.93,-29.85 -7.99,-10.82 -17.63,-20.8 -22.4,-33.63 -4.47,-9.83 -6.54,-20.72 -12.12,-30.03 -7.94,-10.71 -17.53,-20.23 -24.67,-31.54 -0.09,-13.46 2.81,-26.75 3.77,-40.14 1.09,-10.35 -2.73,-20.3 -4.49,-30.36 7.36,-2.08 16.09,-3.15 20.97,-9.75 3.73,-5.2 8.28,-9.66 12.79,-14.17 6.24,-6.16 4.17,-15.95 7.78,-23.25 8.57,-8.3 13.97,-19.77 14.82,-31.66 -0.78,-9.26 -6.92,-16.75 -11.56,-24.41 2.1,-14.76 3.57,-29.69 2.32,-44.59 -2.7,-22.51 15.13,-40.5 16.04,-62.45 1.43,-10.42 -4.64,-19.59 -9.08,-28.47 -4.79,-8.57 -7.38,-18.07 -10.01,-27.46 8.16,-4.4 15.14,-11 18.42,-19.86 10.44,-19.7 9.86,-42.43 13.17,-63.9 -6.72,1.74 -13.7,3.15 -19.61,6.96 -15.06,8.1 -17.45,27.6 -31.62,36.86 -7.23,-10.62 -15.17,-22.15 -27.66,-26.93 -13.75,-4.82 -28.38,-6.67 -41.95,-12.02 -3.17,-1.5 -7.43,-3.75 -6.6,-7.95 0.22,-7.63 1.98,-15.1 3.15,-22.64 -7.92,4.28 -16.54,8.25 -21.96,15.8zm-336.6 200.77l0 0c-11.35,1.94 -21.19,8.48 -29.74,15.88 13.95,-3.03 27.56,-7.63 41.59,-10.33 -19.57,17.78 -46.59,27.29 -72.96,22.74 11.03,12.11 29.32,13.47 44.4,10.1 12.14,-4.24 23.9,-9.99 36.81,-11.49 14.04,-2.65 28.72,0.47 40.59,8.33 8.3,-5.89 16.86,-11.43 25.97,-16 -10.73,-6.02 -21.56,-12 -33.22,-16 -16.98,-6.53 -35.74,-6.24 -53.44,-3.23zm489.52 43.46l0 0c9.41,12.16 19.07,24.09 28.87,35.96 2.79,3.48 6.07,7.21 5.44,12.05 0,92.97 -0.07,185.94 0.02,278.9 0.05,2.93 -0.4,5.94 -2.34,8.24 -9.84,13.23 -20.3,25.97 -29.98,39.29 37.79,2.67 75.63,4.57 113.45,7.25 0,-42.01 -0.03,-84.05 0.02,-126.06 22.24,1.65 44.4,4.17 66.66,5.62 15.82,1.1 33.53,-2.54 43.89,-15.57 13.29,-16.6 13.27,-39.09 13.74,-59.3 -0.07,-34.2 0.38,-68.43 -0.25,-102.63 -0.15,-21.64 -7.18,-45.58 -26.43,-57.69 -19.37,-11.52 -42.44,-14.19 -64.5,-15.4 -49.51,-3.79 -99.09,-7.03 -148.59,-10.66zm-393.92 600.98l0 0c-6.15,10.97 -4.19,24.05 -4.39,36.09 0.07,10.98 2.16,24.06 12.98,29.59 14.01,5.98 29.72,3.66 44.56,4.1 -0.03,5.87 -0.03,11.74 -0.03,17.63 -9.95,-0.09 -20.07,1.27 -29.87,-0.67 -9.01,-3.88 -17.16,-9.48 -25.77,-14.12 -0.18,16.17 -0.09,32.37 -0.06,48.54 21.84,0.07 43.68,0.09 65.54,0.07 10.07,-0.09 21.73,-1.54 28.23,-10.26 7.65,-9.84 5.98,-23.09 6.2,-34.76 -0.02,-11.51 0.13,-25.68 -10.2,-33.22 -14.16,-8.77 -31.66,-5.07 -47.38,-5.91 -0.03,-5.22 -0.03,-10.42 -0.05,-15.6 9.1,0.09 18.32,-0.96 27.35,0.51 9.02,3.42 17.29,8.51 26.15,12.32 -0.09,-15.64 -0.13,-31.28 0.02,-46.92 -22.02,-0.07 -44.04,-0.13 -66.06,-0.02 -10.26,-0.07 -21.8,3.14 -27.22,12.63zm-260.9 -563.34c44.69,-6.99 89.25,-14.89 133.93,-21.96 -0.37,99.51 -0.15,199.01 -0.11,298.5 4.17,-1.19 8.5,-2.12 12.34,-4.27 19.75,-11.26 39.13,-23.2 59.08,-34.09 -0.2,42.33 -0.4,84.65 -0.31,126.99 -62.25,9.35 -124.47,18.86 -186.7,28.43 -31.75,5 -62.89,13.25 -94.62,18.34 -4.59,-29.36 -8.12,-58.9 -13.36,-88.15 -13.61,3.52 -27.33,6.6 -41.07,9.48 -5.43,31.5 -8.93,63.32 -13.44,94.98 -42.05,11.6 -84.42,22.04 -126.36,33.95 -0.78,-0.73 -2.32,-2.25 -3.1,-2.99 -8.03,5.11 -16.56,9.46 -25.62,12.48 -25.7,8.63 -51.6,16.64 -77.37,25.05 -18.78,5.6 -41.52,8.21 -58.01,-4.64 -16.88,-12.87 -20.52,-35.59 -20.95,-55.49 0,-68.49 0,-136.98 0,-205.48 -0.62,-31.95 -0.17,-66.39 17.96,-94.1 11.96,-19.03 33,-29.72 53.93,-35.99 23.85,-7.59 47.43,-16.02 71.55,-22.76 15.8,-4.19 33.62,-6.15 48.57,1.9 15.24,8.28 23.2,25.32 25.79,41.83 4.37,27.47 1.85,55.38 2.59,83.02 -33.76,10.02 -67.42,20.35 -101.25,30.16 0.11,-17.64 0.11,-35.27 0.03,-52.89 -6.16,1.78 -12.57,3.14 -18.21,6.31 -0.65,68.22 -0.11,136.49 -0.25,204.74 6.16,-1.92 12.3,-3.9 18.46,-5.89 0.13,-22.4 0,-44.8 0.06,-67.2 33.74,-9.93 67.4,-19.99 101.09,-29.96 -0.42,35.45 1.45,71.04 -2.14,106.38 7.03,-9.77 6.89,-22.13 8.81,-33.51 13.5,-90.18 26.71,-180.43 40.58,-270.54 -13.14,-13.65 -26.95,-26.62 -39.91,-40.43 61.85,-14.3 123.53,-29.29 185.36,-43.66 19.7,114.9 38.77,229.91 58.56,344.81 5.2,-7.79 11.18,-15.28 14.73,-23.98 0.96,-8.15 0.24,-16.36 0.38,-24.5 0.04,-86.14 -0.07,-172.28 0.04,-258.42 -13.88,-14.71 -28.18,-29.03 -41.83,-43.93 3.5,-1.19 7.14,-1.85 10.77,-2.52zm11.12 9.52l0 0c10.08,11.18 20.72,21.82 31.12,32.71 0.04,91.32 -0.09,182.61 0.06,273.91 -0.33,7 1.41,14.85 -2.85,21.03 -9.53,15.53 -19.55,30.75 -28.67,46.52 61.02,-9.46 122.06,-18.63 183.1,-28 0.4,-32.97 -1.07,-66.01 1.16,-98.94 -14.77,8.03 -29.09,16.82 -43.66,25.18 -8.59,5.07 -18.78,5.52 -28.4,7.08 -0.56,-16.98 -0.56,-34 0.02,-51 -0.42,-57.97 0.23,-115.95 -0.18,-173.94 -0.84,-24.34 0.94,-48.66 0.45,-73.02 -37.44,5.87 -74.83,11.96 -112.15,18.47zm-217.35 48.77l0 0c9.08,10.82 20.01,19.82 29.76,29.99 -14.33,93.7 -28,187.52 -42.19,281.27 -1.56,9.59 -1.72,19.85 -6.9,28.44 -8.87,15.73 -17.6,31.53 -26.28,47.37 32.6,-8.26 65.04,-17.05 97.52,-25.66 4.46,-31.68 8.73,-63.38 13.41,-95.02 20.26,-4.73 40.47,-9.7 60.82,-14.1 3.84,29.25 8.5,58.39 12.94,87.53 3.1,1.33 6.45,-0.34 9.62,-0.56 22.51,-4.76 45.04,-9.4 67.6,-14.04 -20.95,-120.47 -40.94,-241.13 -61.47,-361.69 -51.63,12.11 -103.19,24.47 -154.83,36.47zm-90.74 27.96l0 0c-21.35,3.52 -41.36,12.18 -62.05,18.18 -21.95,7.52 -46.65,12.52 -62.98,30.37 -17.56,19.32 -22.27,46.58 -22.82,71.84 -0.11,75.87 -0.03,151.75 -0.05,227.63 0.34,15.42 1.94,32.26 12.12,44.62 9.12,11.09 24.92,13.12 38.26,10.62 20.93,-3.81 40.65,-12.18 60.97,-18.23 20.87,-7.11 43.8,-11.55 60.76,-26.64 16.33,-14.25 23.06,-36.2 25.14,-57.13 2.65,-27.4 1.12,-55 1.54,-82.48 -26.5,8.09 -53.52,14.81 -79.58,24.2 -0.78,22.07 0.09,44.22 -0.34,66.31 -13.32,4.3 -26.66,8.52 -39.95,12.92 -0.12,-68.72 0.02,-137.41 -0.07,-206.13 0.65,-7.47 -1.79,-16.15 1.87,-22.82 12.45,-4.89 25.59,-7.83 38.33,-11.87 -0.2,17.6 -0.18,35.18 -0.04,52.78 26.7,-7.45 53.19,-15.7 79.78,-23.58 -0.29,-21.24 0.8,-42.57 -1.18,-63.74 -1.41,-13.74 -4.67,-28.53 -15.2,-38.33 -8.9,-8.95 -22.57,-10.55 -34.51,-8.52zm1248.52 -101.38c15.1,-4.13 30.83,-1.54 45.96,1.03 22.58,4.06 45.31,7.25 67.75,11.93 19.59,4.08 39.32,13.01 51.12,29.81 15.24,20.59 17.49,47.21 17.96,72 -0.07,70.65 0.09,141.33 -0.07,212.01 -1,23.49 -2.41,50.04 -19.77,67.94 -14.95,15.28 -38.08,15.79 -57.87,13 -24.25,-4.19 -48.5,-8.36 -72.78,-12.38 -20.72,-3.57 -41.94,-11.6 -55.84,-28.04 -14.14,-16.74 -18.81,-39.31 -18.94,-60.71 -0.07,-63.94 0.04,-127.88 0.07,-191.82 0.64,-27.56 -2.93,-56.45 7.87,-82.58 5.8,-15.23 18.38,-28.35 34.54,-32.19zm0.06 11.29l0 0c-9.84,3.21 -17.55,11.06 -22.24,20.12 -7.96,15.31 -9.33,32.96 -9.33,49.93 -0.02,72.89 0.03,145.78 -0.02,218.67 -0.35,20.15 2.08,41.76 14.82,58.21 11.64,15.41 30.67,22.64 49.12,25.92 25.37,4.42 50.74,8.99 76.22,12.92 13.47,2.14 28.4,2.41 40.36,-5.15 10.35,-6.43 15.97,-18.05 18.89,-29.5 3.6,-15.3 4,-31.14 4.13,-46.81 -0.09,-67.66 0.09,-135.31 -0.09,-202.98 -0.51,-23.22 -2.85,-48.63 -18.76,-66.93 -13.28,-15.75 -34.25,-20.93 -53.61,-24.49 -21,-3.75 -42.06,-7.03 -63.1,-10.54 -12,-1.87 -24.63,-3.25 -36.39,0.63zm151.81 7.54c20.83,4.44 41.49,9.73 62.33,14.26 27.15,5.98 53.99,13.45 81.46,17.82 38.04,10.82 76.1,21.67 114.14,32.55 8.63,2.61 17.58,4.24 25.92,7.77 10.73,34.33 17.92,69.74 28.16,104.25 9.81,-29 18.78,-58.29 29.11,-87.12 33.11,11.94 66.33,23.49 99.64,34.87 -26.06,63.03 -53.66,125.41 -80.23,188.24 -2.47,6.31 -1.45,13.27 -1.65,19.9 0.14,53.79 0.07,107.58 0.05,161.35 -45.74,-14.15 -91.34,-28.72 -137.12,-42.66 -70.57,-18.43 -141.7,-34.74 -212.44,-52.5 11.22,-14.79 23.44,-28.75 35.02,-43.26 2.46,-2.56 2.93,-6.09 2.81,-9.48 -0.09,-90.02 -0.09,-180.04 0,-270.07 -0.11,-3.5 -0.02,-7.29 -2.27,-10.22 -14.91,-21.95 -30.17,-43.68 -44.93,-65.7zm25.12 17l0 0c7.89,12.54 16.57,24.56 24.96,36.79 3.55,5.42 8.77,10.66 8.01,17.69 -0.02,89.98 -0.11,179.96 0.05,269.96 -0.38,6.07 1.45,13.14 -3.02,18.14 -8.65,11.09 -18.13,21.51 -26.48,32.84 59.77,14.21 119.39,29.07 179.07,43.66 0.78,-33.49 0.35,-67 0.78,-100.51 -13.43,3.46 -26.75,7.25 -40.12,10.89 -10.22,3.26 -20.17,-2.66 -30.01,-4.68 -0.2,-99.42 -0.26,-198.84 0.05,-298.25 -37.57,-9.66 -75.54,-17.65 -113.29,-26.53zm138.1 32.19l0 0c8.12,12.03 17.42,23.21 26.06,34.83 5.95,8.17 13.38,15.6 16.64,25.39 18.99,54.53 38.33,108.94 57.49,163.43 3.33,9.92 8.3,19.74 7.52,30.52 -0.55,36.18 0.63,72.48 -0.55,108.63 -8.97,11.91 -20.33,21.88 -30.3,32.95 35.83,12.11 72.22,22.51 108.16,34.31 -0.18,-52.72 0.07,-105.41 -0.13,-158.14 -0.14,-4.75 0.78,-9.45 2.69,-13.78 25.37,-58.61 50.18,-117.44 75.66,-176.01 -26.1,-9.62 -52.58,-18.09 -78.6,-27.89 -12.98,36.97 -24.01,74.61 -37.37,111.44 -11.13,-41.79 -22.02,-83.64 -32.75,-125.54 -1.3,-3.84 -1.72,-9.3 -6.83,-9.61 -35.87,-10.22 -71.7,-20.69 -107.69,-30.53zm-14.08 0.61l0 0c-0.31,94.62 -0.22,189.26 -0.04,283.9 5.62,1.25 11.49,3.72 17.33,1.94 17.65,-4.82 35.27,-9.86 53.03,-14.41 -0.31,33.48 -0.47,66.97 -0.62,100.46 0.42,9.33 -2.7,19.95 2.83,28.25 9.31,-11.41 19.55,-22 29.65,-32.69 4.02,-4.44 9.82,-8.79 9.04,-15.55 0.04,-31.28 -0.14,-62.54 0.07,-93.79 0.04,-6.12 -0.45,-12.32 -2.57,-18.1 -20.82,-58.74 -41.5,-117.55 -62.18,-176.36 -2.72,-7.77 -8.37,-13.9 -13.21,-20.35 -11.2,-14.37 -21.82,-29.2 -33.33,-43.3zm-482.37 -10.91c14.59,0.98 29.13,2.54 43.75,3.48 0.13,35.65 -0.05,71.3 0.11,106.95 -14.62,-0.51 -29.14,-2.16 -43.73,-3.12 -0.18,-35.76 0.09,-71.55 -0.13,-107.31zm10.55 50.44l0 0c0.15,15.66 -0.49,31.32 0.53,46.96 7.34,0.43 14.68,0.85 22.05,1.25 -0.36,-28.35 -0.09,-56.73 -0.25,-85.09 -7.14,-0.51 -14.23,-1.25 -21.33,-2.12 -1.72,12.94 -0.85,25.99 -1,39zm220.31 -22.76c13.95,2.15 27.83,4.71 41.75,6.92 0.15,76.44 -0.02,152.89 0.09,229.33 -13.97,-2.59 -28.02,-4.8 -41.97,-7.52 0.22,-76.23 -0.02,-152.47 0.13,-228.73zm10.76 219.83l0 0c6.76,1.09 13.54,2.28 20.32,3.28 -0.09,-68.85 -0.11,-137.7 0.03,-206.53 -6.77,-1.34 -13.55,-2.61 -20.28,-3.97 -0.27,69.07 -0.14,138.15 -0.07,207.22zm-1142.97 -35.41c6.8,-48.77 12.96,-97.67 20.53,-146.31 7.16,45.49 13.38,91.14 20.57,136.65 -13.72,3.08 -27.4,6.45 -41.1,9.66zm20.59 -68.74l0 0c-2.85,18.01 -5.46,36.06 -7.36,54.2 5.09,-1.03 10.17,-2.12 15.26,-3.22 -2.16,-17.04 -4.28,-34.15 -7.9,-50.98zm-61.6 355.95c26.82,-0.11 53.62,-0.03 80.43,-0.05 7.75,14.62 15.69,29.14 23.25,43.86 8.61,-14.25 16.24,-29.09 24.41,-43.59 27.22,-0.36 54.41,-0.25 81.63,-0.31 -9.01,12.11 -20.19,22.6 -28.47,35.2 -0.95,25.97 -0.29,52.08 -0.33,78.09 2.37,13.39 10.64,24.88 15.86,37.3 -24.83,0.67 -49.68,-0.11 -74.51,0.45 -0.16,-11.13 0,-22.24 -0.09,-33.38 -6.38,10.29 -11.43,21.33 -18.01,31.51 -7.09,-9.82 -11.76,-21.2 -19.03,-30.93 -0.45,10.87 -0.22,21.75 -0.18,32.62 -24.32,-0.2 -48.68,0.34 -73,-0.29 4.93,-10.86 11.87,-21.02 15,-32.6 0.71,-25.29 0,-50.64 0.33,-75.94 1,-6.8 -4.04,-11.8 -7.81,-16.71 -6.65,-8.3 -13.14,-16.71 -19.48,-25.23zm17.61 8.79l0 0c5.64,8.34 12.98,15.53 17.89,24.34 1.09,26.7 0.02,53.5 0.49,80.23 1.27,10.91 -7.41,19.07 -9.75,29.07 16.82,0.64 33.69,0.02 50.56,0.2 0.11,-18.9 -0.27,-37.82 0.2,-56.72 9.28,15.29 17.4,31.28 27.24,46.25 8.74,-15.21 16.51,-31.01 26.03,-45.73 0.45,18.65 0.74,37.3 0.74,55.97 17.52,0.49 35.05,0.25 52.59,0.14 -3.77,-8.23 -8.59,-16.09 -11.18,-24.81 -1.72,-10.35 0.49,-20.84 0.45,-31.24 0,-18.49 0.02,-36.99 -0.09,-55.48 6.18,-7.36 12.36,-14.75 18.34,-22.29 -19.39,0.11 -38.78,-0.02 -58.15,0.13 -9.77,17.63 -19.2,35.43 -29.31,52.88 -9.19,-17.72 -18.81,-35.23 -28.09,-52.9 -19.32,-0.09 -38.64,-0.09 -57.96,-0.04zm212.84 -8.82c49.64,0.05 99.28,0.36 148.92,-0.02 -5.09,11.78 -12.6,22.74 -15.88,35.16 -0.65,25.99 0.06,52.01 -0.23,78.02 -0.11,8.21 -2.2,16.6 -7.25,23.23 -7.16,10.02 -19.9,14.54 -31.9,14.39 -13.43,0 -26.84,0.18 -40.27,-0.11 -11.29,-0.36 -23.72,-4.02 -30.5,-13.68 -5,-6.78 -6.05,-15.48 -6.22,-23.67 -0.25,-25.93 0.4,-51.9 -0.21,-77.82 -3.52,-12.58 -11,-23.69 -16.46,-35.5zm13.67 8.75l0 0c4.49,9.97 12.34,19.25 11.65,30.79 0.02,25.63 -0.38,51.29 0.11,76.93 -0.11,9.21 4.38,18.94 13.35,22.51 13.16,5.24 27.7,3.32 41.56,3.77 11.4,-0.16 24.25,0.67 33.76,-6.81 7.6,-5.73 10.41,-15.64 10.24,-24.78 0.06,-23.88 0,-47.77 -0.07,-71.64 -0.58,-11.38 6.69,-20.84 10.93,-30.84 -18.16,0.23 -36.32,0.11 -54.48,0.07 -0.11,33.22 0.13,66.42 -0.14,99.64 -3.77,-0.02 -7.51,-0.02 -11.26,-0.02 -0.05,-33.2 0.73,-66.44 -0.43,-99.62 -18.4,0.09 -36.81,0.09 -55.22,0zm336.07 -8.77c46.78,0.07 93.59,0.43 140.4,0.27 -0.29,27.98 0.13,55.95 -0.25,83.93 -12.94,-9.95 -25.61,-20.23 -38.77,-29.87 0.24,21.08 -0.81,42.25 0.42,63.29 3.97,11.74 10.53,22.42 14.66,34.14 -31.01,0.31 -61.98,-1.83 -92.99,-0.83 4.71,-11.35 11.8,-21.68 15.79,-33.28 0.94,-21.36 -0.06,-42.8 0.45,-64.17 -13.25,10.24 -26.12,20.95 -39.71,30.74 -0.13,-28.06 -0.07,-56.15 0,-84.22zm8.32 8.81l0 0c0.11,19.41 0.05,38.8 0.05,58.21 9.39,-6.74 18.09,-14.34 27.35,-21.19 3.48,-3.08 8.3,-2.9 12.6,-3.59 0.09,23.02 -0.04,46.02 0.14,69.05 0.96,11.71 -6.92,21.19 -11.4,31.34 22.08,0.14 44.19,0.11 66.3,0.02 -4.12,-10.32 -11.51,-20.03 -10.84,-31.61 0.18,-22.98 -0.07,-45.96 0.18,-68.94 3.79,0.76 8.05,0.69 11.27,3.21 9.41,6.81 18.25,14.42 27.53,21.47 0.47,-19.32 0.06,-38.67 0.2,-58.01 -41.14,0.13 -82.26,0.04 -123.38,0.04zm189.97 -8.85c26.35,0.06 52.7,0.02 79.07,0.04 6.99,36.3 13.52,72.69 20.64,108.97 3.68,15.15 13.63,27.71 19.97,41.78 -24.9,0.14 -49.78,-0.02 -74.65,0.09 -1.63,-10.15 -2.75,-20.46 -5.85,-30.29 -1.94,10.04 -3.08,20.21 -4.39,30.34 -25.79,-0.2 -51.59,0 -77.38,-0.11 7.66,-15.44 21.33,-28.45 23.3,-46.25 6.04,-34.92 12.94,-69.7 19.29,-104.57zm6.9 8.83l0 0c-6.38,34.85 -12.81,69.7 -19.37,104.53 -2,11.11 -10.08,19.63 -15.26,29.31 18.36,0.14 36.77,0.09 55.15,0.02 1.43,-10.01 2.06,-20.19 4.31,-30.09 5.15,-0.76 10.42,-0.58 15.64,-0.67 1.87,10.15 3.52,20.37 4.64,30.65 17.94,0.29 35.88,0.2 53.81,0.05 -5.33,-11.05 -13.12,-21.24 -14.94,-33.67 -5.83,-33.42 -12.77,-66.66 -18.72,-100.06 -21.76,-0.07 -43.51,0 -65.26,-0.07zm138.57 -8.57c22.93,0.09 45.87,0 68.83,0.05 5.73,9.82 11.08,19.88 17.55,29.27 0.27,-9.68 0.14,-19.36 -0.06,-29.05 24.07,-0.47 48.15,-0.18 72.22,-0.18 -4.71,12.34 -12.47,23.85 -14.1,37.11 -0.05,37.99 -0.07,76.01 0.04,114 -18.34,1.32 -36.63,-1.4 -54.97,-0.56 -5.67,-9.99 -10.71,-20.34 -17.05,-29.94 -0.29,10.25 -0.13,20.51 -0.18,30.75 -24.25,0.11 -48.5,0.13 -72.75,0 3.93,-9.71 8.72,-19.03 13.05,-28.56 3.26,-6.49 2.19,-13.97 2.37,-20.95 -0.4,-22.38 0.4,-44.75 -0.31,-67.11 -3.11,-12.23 -10.2,-23.05 -14.64,-34.83zm13.21 8.64l0 0c3.88,10.06 10.86,19.5 10.33,30.74 -0.12,23.83 -0.16,47.66 0,71.49 0.87,11.64 -6.5,21.37 -10.87,31.56 17.07,0.07 34.14,0.05 51.2,0.05 0.07,-18.76 -0.13,-37.55 0.05,-56.31 10.42,18.58 20.44,37.41 30.5,56.2 13.65,0.2 27.33,0.11 40.98,0.09 -0.2,-34.36 0.83,-68.7 0.34,-103.03 -0.63,-11.2 5.84,-20.82 9.75,-30.86 -16.78,-0.13 -33.54,0.54 -50.27,-0.53 -0.31,17.91 -0.13,35.8 -0.11,53.72 -10.71,-17.45 -20.75,-35.3 -30.97,-53.05 -16.98,-0.18 -33.96,-0.14 -50.93,-0.07zm196.73 1.76c7.39,-7.87 18.52,-10.66 28.98,-10.42 24.88,0.2 49.73,-0.18 74.61,0.25 -0.72,50.44 1.76,100.84 1.16,151.29 -20.06,0.64 -40.07,-1.52 -60.11,-0.92 -13.85,-0.07 -29.49,1.87 -41,-7.59 -10.67,-8.03 -13.21,-22.06 -13.79,-34.58 -0.76,-20.72 -0.16,-41.49 -0.33,-62.22 0.08,-12.49 1.36,-26.39 10.48,-35.81zm6.05 6.16l0 0c-8.46,9.08 -7.81,22.51 -8.53,34.07 0.34,21.66 -1.09,43.41 1.48,64.99 0.82,7.54 3.34,15.53 9.66,20.3 7.49,6.2 17.69,6.58 26.97,6.65 20.37,-0.14 40.72,-0.05 61.09,-0.11 0.11,-9.75 -0.09,-19.5 -0.76,-29.23 -0.63,-15.91 0.36,-31.86 -0.8,-47.77 -17.43,0.29 -34.85,0.09 -52.28,0.18 0.02,-7.83 0.05,-15.66 0.07,-23.49 9.5,0.18 19.05,-0.56 28.51,0.4 8.55,3.01 15.6,9.08 23.49,13.43 0.16,-15.84 0.16,-31.7 0,-47.54 -21.97,0.38 -43.97,0.04 -65.95,0.15 -8.18,0.03 -17.26,1.48 -22.95,7.97zm45.38 34.87l0 0c-0.14,1.36 -0.41,4.13 -0.54,5.51 9.59,1.07 19.28,0.65 28.92,0.14 -7.66,-7.43 -18.61,-6.59 -28.38,-5.65zm113.76 -23.22l0 0c-2.43,11.8 -1.16,24.02 -0.89,36 0.15,9.78 4.97,20.33 14.74,23.74 13.57,4.6 28.2,2.72 42.26,3.17 0,5.87 0,11.71 0.02,17.58 -9.7,-0.04 -19.5,1.01 -29.11,-0.42 -9.37,-3.59 -17.52,-9.69 -26.42,-14.24 0.05,16.11 0.09,32.22 -0.02,48.35 20.64,0.22 41.29,0.02 61.93,0.16 8.48,-0.14 17.49,-0.18 25.1,-4.51 7.97,-4.46 12.16,-13.74 12.23,-22.62 0.33,-11.23 0.6,-22.49 -0.32,-33.67 -0.8,-9.64 -7.51,-18.74 -17.04,-21.2 -12.98,-3.41 -26.55,-1.96 -39.8,-2.09 -0.07,-5.29 -0.07,-10.6 -0.05,-15.89 9.19,0.29 18.54,-0.8 27.69,0.78 9.04,3.33 17.27,8.5 26.1,12.36 0.09,-15.7 0.09,-31.41 -0.04,-47.12 -23.25,0.23 -46.52,-0.37 -69.77,0.27 -11.75,0.02 -23.8,7.45 -26.61,19.35z"/>
   <path class="fil2" d="M976.95 469.24c0.14,-10.66 -2.27,-21.22 -1.65,-31.92 0.43,0.55 1.32,1.62 1.76,2.16 2.55,9.84 3.55,20.1 7.28,29.63 2.1,5.4 5.98,10.19 6.6,16.11 -0.24,4.37 -2.36,8.27 -3.9,12.27 6.13,13.38 13.92,25.97 19.47,39.62l-3.43 -2.72c-12.52,-13.61 -26.51,-27.31 -32.84,-45.07 -3.28,-7.83 0.98,-14.95 6.71,-20.08zm614.5 818.06c19.5,-1.05 39.09,-0.91 58.59,-0.11 -19.5,1.05 -39.09,0.94 -58.59,0.11zm-148.79 1.83c21.4,-4.55 43.44,-1.18 65.15,-2.19l-0.18 2.39c-21.66,-0.13 -43.33,0.25 -64.97,-0.2zm-212.75 -2.23l1.25 -0.02c11.29,-0.29 22.73,-0.58 33.82,2.05 -11.62,0.8 -23.27,0.25 -34.89,0.4l-0.18 -2.43zm-181.1 0.38c11.32,-0.83 22.65,-0.67 33.98,-0.89l0.14 1.56c-11.38,-0.11 -22.76,0.11 -34.12,-0.67zm-473.96 -0.74c8.1,-0.02 16.2,0.11 24.28,0.74 -8.06,0.51 -16.14,0.62 -24.19,0.62l-0.09 -1.36zm546.23 -1.18c11.58,1.67 23.27,1.49 34.94,1.29l0.04 1.16c-11.62,0.12 -23.25,0 -34.87,-0.17 -0.02,-0.58 -0.09,-1.72 -0.11,-2.28zm-209.12 1.25c14.35,0.27 28.67,-0.11 43.02,-0.29 -14.82,2.81 -29.94,0.47 -44.8,2.52l1 -2.25 0.78 0.02zm-190.55 1.9c0.09,-10.24 -0.47,-20.51 0.38,-30.73 1,9.64 1.16,19.33 1.29,29.01 20.44,1.4 41.19,-2.19 61.36,2.01 -21,-0.85 -42.02,0.13 -63.03,-0.29zm-369.22 -72.2l1.36 0.94c1.97,23.91 0.16,48.08 0.92,72.1 -12.05,-0.06 -24.1,0.03 -36.15,-0.04 0.61,-1.01 1.83,-3.04 2.44,-4.06 10.28,1.65 20.7,2.07 31.1,1.63 0.58,-23.52 -0.14,-47.06 0.33,-70.57zm1319.53 -49.46c1.57,10.62 1.01,21.5 0.36,32.19 -1.87,-10.64 -1.89,-21.53 -0.36,-32.19zm72.36 -192.7c2.43,-1.32 4.93,-2.45 7.49,-3.55 -0.24,19.9 0.38,39.81 -0.42,59.68 -45.07,-10.91 -90.05,-22.08 -135.13,-32.88 3.23,-3.08 5.57,-9.66 11.08,-7.28 38.82,9.02 77.33,19.35 116.24,28.05 0.89,-14.66 -0.67,-29.41 0.74,-44.02zm-1559.68 -34.09c3.12,-0.98 6.22,-1.99 9.34,-2.94 0.4,25.85 2.03,52.22 -4.55,77.52 -3.39,12.61 -10.08,24.97 -21.06,32.49 -11.85,8.34 -26.06,12.02 -39.67,16.35 -22.26,6.74 -44.02,15.28 -66.66,20.73 -9.64,2.54 -20.04,1.36 -27.98,-5 29.36,-0.74 56.11,-14.01 83.89,-21.95 19.07,-6.83 42.34,-10.15 54.17,-28.58 15.55,-26.71 12.56,-58.92 12.52,-88.62zm440.72 -35.54c-0.43,-5.2 5.26,-6.65 8.54,-9.3 0.42,19.21 0.07,38.41 0.29,57.65 -34.74,5.35 -69.5,10.46 -104.21,15.95 -10.22,1.72 -20.5,3.19 -30.86,3.72 2.75,-4.9 5.83,-10.66 12.27,-10.75 37.91,-5.76 75.84,-11.4 113.7,-17.51 0.02,-13.26 -0.76,-26.55 0.27,-39.76zm-332.99 10.02c29.3,-7.68 59.01,-13.66 88.4,-21.06 0.6,3.36 1.2,6.73 1.83,10.12 -27.33,6.23 -54.69,12.36 -81.91,19.13 -4.12,30.38 -8.36,60.75 -12.56,91.13 0.11,4.44 -4.93,5.05 -8.14,6.18 -14.37,3.62 -28.74,7.28 -43.01,11.27 1.85,-4.06 3.72,-8.1 5.62,-12.16 12.27,-3.03 24.47,-6.34 36.61,-9.86 4.77,-31.55 8.74,-63.18 13.16,-94.75zm-197.71 -151.45c9.81,-2.54 19.23,-6.67 29.27,-8.32 4.93,-1.25 8.85,2.68 12.87,4.8 -17.2,6.09 -35.2,9.79 -52.12,16.69 -7.54,3.03 -10.91,11.35 -10.46,19.05 0.11,66.2 0.04,132.41 0.04,198.61 -0.24,12.18 -0.42,24.41 1.37,36.48 -7.19,-2.28 -11.07,-9 -10.42,-16.4 -0.25,-72.89 0.11,-145.82 -0.14,-218.73 -0.04,-9 1.9,-19.13 9.4,-24.99 6.09,-3.88 13.4,-5.04 20.19,-7.19zm1861.16 -10.17c2.79,0.47 5.6,0.91 8.46,1.38 -5.31,15.8 -12.83,30.7 -19.19,46.07 -14.01,32.78 -28.11,65.51 -42.08,98.28 -4.62,11.29 -11.6,22.25 -11.04,34.9 0.31,46.04 -0.02,92.12 0.24,138.16 -21.39,-5.8 -42.43,-12.78 -63.47,-19.65 3.19,-2.48 5.67,-8.23 10.58,-6.14 15.01,3.62 29.4,9.51 44.48,13.03 0.03,-44.02 -0.67,-88.06 -0.71,-132.08 0.07,-4.26 0.69,-8.54 2.3,-12.51 24.09,-53.52 47.23,-107.49 70.43,-161.44zm-1778.1 -39.27c5,3.55 9.9,7.81 11.6,13.97 6.87,22.06 4.82,45.51 4.84,68.27 -16.08,4.44 -31.84,10.04 -48.1,13.83 0.2,-3.1 0.4,-6.2 0.6,-9.3 12.43,-4.15 25.7,-6.11 37.53,-11.83 1.52,-25.03 2.27,-51 -6.47,-74.94zm1634.93 -8.19c3.84,1.79 9.82,2.08 10.47,7.35 12.94,50.53 26.41,100.95 39.33,151.51 2.05,6.49 -1.49,12.71 -3.84,18.58 -11.29,-41.72 -21.86,-83.64 -32.93,-125.43 -4.12,-17.38 -9.61,-34.45 -13.03,-52.01zm-1488.75 -8.96c8.45,-3.39 17.55,-4.67 26.32,-7.01 0.69,3.35 1.36,6.67 2.08,10.02 -6.99,1.56 -13.95,3.17 -20.91,4.75 -7.23,48.15 -13.52,96.43 -20.39,144.62 -1.61,10.04 -1.74,20.39 -5,30.07 -2.92,0.98 -5.91,1.85 -8.92,2.59 6.94,-54.13 15.04,-108.09 22.47,-162.13 1.33,-7.61 0.87,-15.91 4.35,-22.91zm1349.23 -28.78c2.58,0.95 5.24,1.87 7.76,3.12 0.87,3.46 0.98,7.05 1.09,10.62 -0.6,93.06 0.25,186.11 -0.38,279.17 -2.92,-0.87 -5.75,-1.74 -8.63,-2.61 0.16,-96.76 -0.09,-193.54 0.16,-290.3zm-230.85 -8.57c8.92,-5.31 19.41,-1.01 28.85,0.27 12.07,2.52 27.24,1 34.64,13.03 -16.89,-1.14 -33.33,-5.56 -50.08,-7.68 -8.12,-1.18 -14.84,6.9 -14.17,14.66 -0.31,79.02 0.27,158.07 -0.27,237.09 -4.97,-4.97 -9.86,-10.93 -9.15,-18.45 0.03,-72.22 0.21,-144.41 -0.04,-216.61 -0.33,-8.43 2.48,-17.89 10.22,-22.31zm-1058.23 -4.64c2.45,-1.14 4.93,-2.17 7.47,-3.1 17.74,102.74 34.89,205.59 52.38,308.37 1.25,7.43 2.37,14.88 3.37,22.36 -14.99,2.76 -29.85,6.09 -44.82,8.97 -0.53,-3.22 -1.05,-6.43 -1.58,-9.64 11.64,-2.7 23.78,-3.68 35.05,-7.81 0.06,-3.48 -0.27,-6.94 -0.72,-10.37 -17.09,-99.82 -33.68,-199.75 -50.82,-299.57 -0.42,-3.03 -0.82,-6.16 -0.33,-9.21zm1161.48 -6.52c19.57,19.91 17.63,49.98 18.18,75.75 -0.06,58.03 0.03,116.04 0,174.06 0,18.59 0.43,37.42 -3.5,55.67 -2.05,8.34 -5.53,17.69 -13.79,21.66 -9.55,4.51 -20.46,3.06 -30.54,1.63 -24.94,-4.24 -49.89,-8.45 -74.78,-12.87 -15.56,-2.84 -31.91,-9.39 -40.27,-23.67 11.15,5.6 22.55,11.08 35.02,12.91 28.27,4.64 56.45,9.73 84.76,14.11 6.94,0.73 14.59,1.98 21.04,-1.48 5.06,-3.39 7.45,-9.39 9.21,-14.99 3.95,-14.26 3.93,-29.2 4,-43.89 -0.2,-70.61 0.2,-141.22 -0.16,-211.83 0.11,-16.16 -2.9,-32.18 -9.17,-47.06zm-1038 2.39c0.36,-0.6 1.08,-1.83 1.43,-2.43 0.02,87.05 0.02,174.09 -0.02,261.14 -0.09,11.74 0.76,23.54 -0.78,35.23l-1.32 2.08c0.23,-97.23 0,-194.48 0.11,-291.74 0.14,-1.07 0.43,-3.21 0.58,-4.28zm693.53 -23.49c20.79,0.62 41.56,2.39 62.26,4.41 6.74,0.16 11.36,5.29 15.42,10.02 -22.8,-0.64 -45.4,-4.06 -68.2,-4.93 -0.76,44.09 0.07,88.17 -0.36,132.26 -3.1,-0.6 -6.16,-1.18 -9.24,-1.79 -0.15,-46.65 -0.17,-93.32 0.12,-139.97zm-646.96 -3.64c2.94,-1.16 5.91,-2.3 8.99,-3.12 -0.25,96.45 -0.09,192.89 -0.07,289.34 -3.08,0.25 -6.13,0.52 -9.19,0.78 -0.6,-88.9 -0.02,-177.83 -0.34,-266.74 -0.04,-6.76 -0.31,-13.54 0.61,-20.26zm761.08 -11.18c14.19,10.15 19.49,28.05 19.45,44.78 0.2,36.48 0.09,72.96 0,109.43 -0.2,14.1 -0.87,29.43 -9.17,41.43 -6.31,8.82 -17.91,11.03 -28.09,10.8 -29.05,-0.76 -57.78,-6.09 -86.85,-6.38 -0.29,41.83 -0.07,83.67 -0.32,125.5 -17.13,0.18 -34.11,-2.39 -51.2,-2.66 -5.26,-0.02 -10.44,-1.13 -15.44,-2.7 3.37,-2.78 5.89,-8.25 11.09,-7.4 15.46,0.26 30.95,1.13 46.36,2.54 -0.91,-23.2 1.21,-46.36 0.81,-69.54 -0.25,-18.83 0.35,-37.66 0.33,-56.47 32.55,1.03 64.77,6.98 97.36,7.32 7.01,0.09 15.71,-0.65 19.5,-7.56 4.98,-9.26 6.25,-20.02 6.56,-30.37 0.16,-27.55 0.2,-55.11 1.18,-82.64 0.12,-17.07 1.32,-34.38 -2.61,-51.13 -1.89,-8.68 -5.82,-16.69 -8.96,-24.95zm-265.97 3.51c2.52,-4.38 5.29,-8.91 9.62,-11.74 4.06,0.29 7.2,3.17 10.48,5.29 -3.08,8.54 -8.03,17.16 -17.44,19.68 -1.05,-4.38 -1.99,-8.79 -2.66,-13.23zm-53.34 -0.67c-4.38,-7.08 3.61,-12.56 7.05,-17.85 3.61,0.56 7.29,0.91 10.84,1.98 3.46,2.68 5.02,7.12 6.2,11.2 -1.27,4.33 -4.39,7.77 -6.85,11.45 2.32,6.49 4.64,12.96 6.74,19.52 -8.3,-8.46 -17.2,-16.55 -23.98,-26.3zm-374.51 -85.16c17.7,-3.01 36.46,-3.3 53.44,3.23 11.66,4 22.49,9.98 33.22,16 -9.11,4.57 -17.67,10.11 -25.97,16 -11.87,-7.86 -26.55,-10.98 -40.59,-8.33 -12.91,1.5 -24.67,7.25 -36.81,11.49 -15.08,3.37 -33.37,2.01 -44.4,-10.1 26.37,4.55 53.39,-4.96 72.96,-22.74 -14.03,2.7 -27.64,7.3 -41.59,10.33 8.55,-7.4 18.39,-13.94 29.74,-15.88zm426.8 -87.24c6.18,12.52 11.65,25.37 17.67,37.95 -3.41,4.2 -6.8,8.42 -10.35,12.52 -2.48,-16.82 -5.53,-33.56 -7.32,-50.47zm-44.84 -7.63c6.2,15.49 11.73,31.22 18.18,46.61 -6.89,4.89 -13.92,9.59 -21.06,14.12 2.08,-4.95 4.75,-9.7 6.45,-14.83 0.31,-15.38 -3.44,-30.52 -3.57,-45.9zm-45.36 -105.9c5.42,-7.55 14.04,-11.52 21.96,-15.8 -1.17,7.54 -2.93,15.01 -3.15,22.64 -0.83,4.2 3.43,6.45 6.6,7.95 13.57,5.35 28.2,7.2 41.95,12.02 12.49,4.78 20.43,16.31 27.66,26.93 14.17,-9.26 16.56,-28.76 31.62,-36.86 5.91,-3.81 12.89,-5.22 19.61,-6.96 -3.31,21.47 -2.73,44.2 -13.17,63.9 -3.28,8.86 -10.26,15.46 -18.42,19.86 2.63,9.39 5.22,18.89 10.01,27.46 4.44,8.88 10.51,18.05 9.08,28.47 -0.91,21.95 -18.74,39.94 -16.04,62.45 1.25,14.9 -0.22,29.83 -2.32,44.59 4.64,7.66 10.78,15.15 11.56,24.41 -0.85,11.89 -6.25,23.36 -14.82,31.66 -3.61,7.3 -1.54,17.09 -7.78,23.25 -4.51,4.51 -9.06,8.97 -12.79,14.17 -4.88,6.6 -13.61,7.67 -20.97,9.75 1.76,10.06 5.58,20.01 4.49,30.36 -0.96,13.39 -3.86,26.68 -3.77,40.14 7.14,11.31 16.73,20.83 24.67,31.54 5.58,9.31 7.65,20.2 12.12,30.03 4.77,12.83 14.41,22.81 22.4,33.63 6.87,9.1 15.39,18 16.93,29.85 1.32,10.57 6.69,20.5 6.16,31.3 -3.1,8.37 -11.49,13.21 -15.53,21.04 -2.66,6.74 -3.88,13.99 -6.89,20.61 -4.22,9.48 -11.27,17.34 -15.6,26.75 -4.8,12.25 -3.57,26.06 -8.79,38.18 -4.91,8.23 -13.41,13.36 -19.79,20.34 -8.63,9.33 -7.32,25.44 -19.25,32.02 -10.11,6.11 -19.68,13.21 -30.21,18.61 -10.22,2.41 -20.17,-2.95 -29.16,-7.17 -12.38,-6.76 -25.77,-16.66 -26.8,-32.01 0.25,-11.27 2.72,-22.85 8.1,-32.8 6.43,-8.23 16.44,-12.65 25.57,-17.27 11.11,-5.55 24.01,-2.41 35.05,1.66 3.28,-6.01 6.07,-12.23 9.1,-18.34 3.42,-8.21 15.2,-8.82 17.34,-17.9 6.31,-17.62 13.99,-35.05 16.64,-53.7 1.23,-6.49 -2.16,-12.92 -7.87,-15.97 -17.25,-10.64 -34.43,-21.84 -53.68,-28.49 -9.71,-3.55 -18.57,-8.95 -27.16,-14.57 -6.22,3.19 -12.94,5.37 -20.01,5.06 -4.95,1.16 -9.97,2.19 -14.97,3.15 -4.39,25.74 -8.34,51.58 -11.51,77.53 -1.41,13.27 -5.49,26.79 -14.46,36.97 -8.23,9.48 -16.37,19.03 -24.47,28.64 -8.26,1.34 -16.49,2.66 -24.74,3.73 1.56,5.09 3.59,10.11 4.57,15.37 1.63,8.28 -3.57,16.29 -2.3,24.45 4.51,11.98 14.1,22.49 13.32,36.06 -0.89,17.02 -4.1,33.86 -5.91,50.82 -9.62,3.26 -18.81,7.85 -28.78,9.9 -9.69,-0.95 -19.28,-3.92 -27.82,-8.63 -9.04,-5.67 -16.42,-13.52 -24.39,-20.52 6.89,-14.95 12.12,-30.68 20.17,-45.12 -4.02,-6.76 -8.9,-13.81 -7.88,-22.11 0.63,-6.8 -1.45,-13.27 -4.26,-19.34 -19.52,-1.03 -36.76,-11.2 -55.02,-17.09 -10.39,-2.81 -14.05,-13.94 -20.12,-21.62 6.16,-12.92 12.29,-25.83 18.38,-38.8 -2.61,-3.36 -6.04,-6.35 -7.36,-10.5 -0.58,-5.2 1.23,-10.27 1.7,-15.38 -10.96,-7.89 -23.38,-13.65 -33.69,-22.44 -5.18,-4.35 -9.13,-10.91 -8.3,-17.89 0.4,-6.09 4.33,-11.05 7.65,-15.89 -12.4,-24.63 -24.18,-49.66 -32.77,-75.9 -5.18,-14.97 -6.65,-30.85 -7.99,-46.54 0.34,-23.31 6.16,-46.2 13.7,-68.16 4.13,-12.25 12.05,-22.66 20.26,-32.46 -10.78,-14.08 -21.67,-30.14 -20.91,-48.68 0,-13.12 8.39,-24.5 18.63,-31.93 9.59,-7.22 20.06,-13.76 31.91,-16.57 -12.08,10.95 -26.93,20.61 -32.31,36.88 -3.88,9.37 -0.78,19.5 2.65,28.46 4.96,-15.08 5.25,-33.02 17.25,-44.75 14.03,-11.91 33.31,-15.64 46.16,-29.34 -6.22,1.43 -12.45,2.92 -18.65,4.37 -7.74,-8.56 -14.01,-20.05 -25.79,-23.51 -14.86,-4.66 -30.3,-7.12 -45.27,-11.38 14.88,-1.03 29.81,-1.72 44.71,-2.5 10.55,-1 20.93,1.76 30.32,6.4 8.12,4.18 17.43,6.85 24.19,13.17 0.91,8.41 -1.74,17 -4.04,25.05 -9.77,9.44 -22.4,16.13 -30.08,27.67 -6.24,9.59 -6.85,21.51 -5.37,32.53 3.63,-2.93 7.2,-5.94 10.73,-9.04 -3.89,-10.71 2.56,-20.88 8.32,-29.47 6.56,-6.78 15.75,-10.09 23.96,-14.46 -5.87,8.97 -14.66,16.96 -15.15,28.36 7.01,-4.64 12.85,-12.16 21.71,-13.14 13.92,-1.68 27.91,-3.04 41.94,-2.75 0.07,-0.51 0.18,-1.54 0.25,-2.05 -7.72,0.09 -16.02,1.34 -23.09,-2.54 -10.96,-5.65 -18.77,-15.53 -26.49,-24.84 13.86,2.15 28.32,8.1 42.13,2.55 10.51,-4.13 22.4,-7.52 29.49,-16.96 7.97,-9.95 16.2,-19.72 24.88,-29.09 -13.9,-0.34 -29.18,-2.9 -38.8,-13.97 -9.55,-9.79 -10.51,-24.09 -11.62,-36.97 8.79,6.72 16.8,14.8 26.95,19.48 3.95,2.23 8.45,0.58 12.58,-0.11 14.28,-3.55 29.56,-6.65 40.74,-16.98 -5.6,-1.65 -12.29,-1.89 -16.33,-6.67 -6.5,-7.47 -9.57,-17.11 -13.12,-26.17 7.27,2.54 14.35,6.05 22.06,7.03 10.87,-2.48 21.07,-7.21 31.46,-11.13 -12.07,-7.92 -15.93,-22.2 -21.5,-34.65 -3.44,-8.59 -7.3,-17.27 -8.15,-26.6 -0.27,-7.89 1.03,-15.75 1.9,-23.6 9.68,13.7 15.82,29.72 26.48,42.75 5.33,7.02 14.93,3.59 22.33,3.5 -5.08,-11.38 -13.96,-20.26 -23.42,-28.11 13.16,-3.22 27.08,-3.3 39.75,1.98 1.12,-8.32 3.53,-16.69 8.95,-23.24zm3.91 21.1l0 0c8.97,10.69 23.93,12.85 36.81,15.8 14.66,1.65 28.44,9.92 36.79,22.06 1.98,7.3 -0.74,15.06 -1.16,22.47 5.4,-6.94 12.2,-15.26 9.84,-24.65 -3.57,-7.84 -11.07,-12.81 -17.65,-17.94 -13.63,-10.6 -31.28,-12.67 -47.37,-17.4 -3.66,-1.25 -7.76,-2.17 -10.39,-5.2 -1.76,-4.78 -1.74,-9.98 -2.46,-14.95 -4.26,5.51 -9.61,13.05 -4.41,19.81zm-72.65 3.39l0 0c2.39,12.63 7.59,25.19 16.87,34.32 9.01,8 22,5.98 33.09,6.06 -1.16,-3.01 -2.21,-6.02 -3.66,-8.9 -8.82,-1.43 -18.43,2.12 -26.75,-1.78 -8.82,-8.15 -12.14,-20.39 -19.55,-29.7zm47.9 7.41l0 0c11.56,16.26 17.41,35.49 25.75,53.41 1.05,3.41 4.28,4.84 7.3,6.2 0.42,0.31 1.29,0.96 1.71,1.27 -6.33,1.01 -12.83,0.58 -18.49,-2.67 -7.37,9.19 -14.57,18.51 -21.17,28.26l-0.21 0.74c-10.3,14.39 -19.94,29.32 -28.46,44.84 -7.25,15.31 -13.12,31.24 -19.86,46.79 -15.35,8.9 -30.94,17.58 -45.22,28.18 -10.76,9.64 -19.97,20.9 -29.45,31.75 -7.48,12.47 -13.77,25.65 -20.24,38.68l-0.6 0.63c-1.83,3.77 -3.71,7.52 -5.85,11.11 1.03,-14.7 4.49,-29.07 7.99,-43.35l0.18 -0.02c2.34,-6.45 5.49,-12.52 9.08,-18.34 -11.29,0.06 -23.05,0.78 -33.06,6.51 -19.53,10.75 -36.64,25.37 -52.64,40.76 -12.98,12.56 -25.45,26.44 -32.01,43.58 -8.26,16.66 -13.63,34.87 -16.49,53.27 -2.68,21.51 5.4,42.3 12.36,62.23 4.06,9.66 6.4,20.48 13.61,28.49 9.44,11.62 24.76,14.88 37.79,20.86 -13.45,-27.18 -26.79,-55.73 -27.79,-86.59 0.93,-25.23 5.08,-50.38 12.65,-74.49 -1.14,15.1 -3.35,30.16 -2.5,45.38 1,18.09 1.11,37.34 10.24,53.59 4.86,8.83 10.39,17.73 18.85,23.53 11.62,8.15 24.07,14.97 36.12,22.4 -0.02,-15.5 8.1,-29.29 12.29,-43.88 5.27,-10.11 -2.74,-20.44 -1.47,-30.97 1.7,-16.6 9.82,-31.59 16.09,-46.83 -6.05,26.37 -2.37,53.59 2.83,79.78 -11.33,21.76 -16.17,48.84 -4.6,71.51 1.72,6.47 7.79,10.53 14.44,9.64 18.76,-4.55 35.07,-15.71 49.89,-27.74 -2.39,-13.49 1.36,-27.19 9.72,-37.95 0.76,-0.51 2.26,-1.53 3.01,-2.05 -2.05,5.85 -3.83,11.8 -5.17,17.85 -3.15,9.1 4.73,17.16 11.31,22.27 -3.32,22.44 -6.49,44.91 -9.57,67.4 -0.16,8.81 -7.85,14.25 -12.38,20.99 -6,6.85 -7.57,16.04 -9.69,24.59 -5.13,-7.99 -1.62,-17.47 0.21,-25.93 -5.09,-3.1 -9.66,-8.07 -15.64,-9.08 -7.08,1.85 -14.04,4.2 -20.73,7.1 -2.61,1.02 -2.68,4.39 -3.75,6.58 -3.12,11.09 -6.98,22.24 -7.52,33.84 4.13,11.58 10.76,22.49 18.12,32.31 15.53,-1.3 31.03,-3.08 46.54,-4.89 8.21,-13.63 22.8,-22.58 28.4,-37.88 2.05,-6.54 2.92,-13.32 3.88,-20.06 2.77,-25.41 7.56,-50.58 10.09,-76.01 -3.98,-1.96 -7.9,-3.95 -11.72,-6.16 -3.17,-3.32 -6.27,-6.69 -9.19,-10.22 6.63,1.63 14.1,4.04 20.73,1.25 5.64,-5.02 9.32,-11.78 13.16,-18.18 -3.59,-10.55 -6.22,-21.42 -10.17,-31.84 -1.05,-2.79 -2.57,-7.14 -6.47,-5.95 -12.32,1.29 -25.7,2.43 -36.95,-3.91 -16.69,-6.31 -39.09,-7.29 -51.13,8.32 -0.9,0.14 -2.7,0.43 -3.6,0.56 4.2,-13.74 15.6,-27.37 31.04,-27.19 8.3,0.15 17.31,-1.95 24.98,2.11 7.88,3.66 16.29,5.96 24.72,7.9 -0.11,-12.76 -0.95,-26.08 -7.02,-37.59 -3.71,-7.52 -9.75,-13.45 -15.71,-19.19 7.14,2.66 14.88,4.33 21.24,8.7 7.65,6.45 12.23,15.55 18,23.54 0.76,-10.37 2.44,-20.86 0.96,-31.23 -1.4,-11.36 -6.24,-21.84 -10.08,-32.51 -2.74,-6.69 -4.84,-13.72 -8.68,-19.88 -4.04,-4.95 -8.66,-9.37 -12.83,-14.19 12.67,-2.56 25.59,-7.32 38.64,-5.35 14.44,7.16 26.98,17.6 40.23,26.68 -3.77,-18.94 -5.11,-38.28 -8.41,-57.31 -5.2,-23.97 -11,-47.82 -17,-71.6 3.21,-15.1 8.34,-29.72 12.45,-44.6 6.31,-20.86 11.64,-42.01 18.58,-62.67 -3.52,20.33 -7.9,40.47 -13.16,60.4 -3.24,11.87 -0.56,24.03 1.83,35.74 2.39,10.11 2.94,20.66 6.25,30.5 6.42,4.59 14.94,6.49 19.78,13.12 2.99,7.63 2.7,16.01 4,24.02 0.44,8.39 0.93,17.45 6,24.5 3.41,4.8 9.37,6.76 13.34,10.95 2.95,7.86 2.75,17.92 10.49,23.1 7.45,1.27 13.72,-5.42 21.24,-4.13 4.75,-0.09 10.37,3.46 14.32,-0.58 5.73,-4.89 2.77,-12.96 1.9,-19.23 6.94,-6.88 14.94,-14.1 17.06,-24.03 -0.75,-9.59 -8.16,-16.67 -12.98,-24.48 2.97,-18.49 6.18,-37.19 4.28,-55.97 -1.25,-7.05 2.39,-13.55 3.93,-20.24 2.61,-12.16 10.04,-22.96 11.09,-35.45 -1.47,-10.42 -9.77,-18.45 -11.74,-28.78 -2.29,-11.6 -4.86,-23.16 -7.54,-34.67 10.91,-4.78 20.86,-13.7 22.98,-25.9 1.5,-9.42 3.95,-18.59 7.54,-27.42 -12.92,9.97 -17.06,27.82 -31.68,35.87 -11.73,9.91 -19.25,23.67 -26.01,37.22 -2.84,-5.98 -4.31,-13.26 -9.86,-17.45 -5.18,-3.82 -10.8,-7.16 -16.89,-9.24 -9.62,-3.34 -19.79,-0.67 -29.61,-0.04 -4.73,-9.71 -10.33,-18.94 -16.2,-27.98 -4.82,-8.39 -14.5,-11.58 -22.02,-16.91zm-63.83 74.43l0 0c4.82,2.85 10.31,8.72 16.33,5.69 9.64,-5.09 18.48,-11.63 26.91,-18.5 -14.68,3.53 -27.84,12.16 -43.24,12.81zm-0.98 35.49l0 0c-9.84,3.31 -19.79,6.54 -30.1,8.08 -9.52,1.83 -17.35,-5.09 -25.27,-9.1 4.99,8.21 11.75,20.88 23.24,18.29 11.16,-2.16 22.34,-4.44 33.25,-7.65 11.46,-3.06 16.42,-15.11 20.95,-24.88 -7.05,5.49 -13.35,12.41 -22.07,15.26zm-10.13 36.77l0 0c-11.53,12.85 -21.28,27.51 -34.62,38.62 -14.33,7.27 -30.84,8.92 -46.63,10.62 11.42,8.46 26.55,5.27 39.33,2.34 9.93,-2.18 16.24,-10.66 21.55,-18.6 7.05,-10.83 15.22,-21.04 20.37,-32.98zm-158.71 75.05l0 0c-9.62,16.11 -8.28,36.3 -4.65,54.02 3.06,-2.97 6.41,-5.71 8.88,-9.24 -0.31,-11.27 -6.02,-22.58 -2.38,-33.8 7.36,-14.61 23.09,-21.98 32.95,-34.56 -13.3,4.57 -26.46,12 -34.8,23.58zm31.65 19.7l0 0c8.75,-3.3 4.84,-12.98 4.29,-19.87 -3.44,6.04 -6.16,12.82 -4.29,19.87zm-65.12 6.92l0 0c3.15,13.7 12.32,24.65 20.5,35.63 2.21,-2.07 4.42,-4.17 6.63,-6.25 -10.46,-8.43 -17.98,-19.65 -27.13,-29.38zm319.17 23.22l0 0c0.56,11.96 -3.01,25.48 4.27,36.08 13.47,7.16 30.14,8.88 44.5,2.95 1.79,-2.7 2.84,-5.78 4.15,-8.73 -13.25,2.14 -28.53,7.57 -40.07,-2.21 -2.76,-5.71 -3.16,-12.18 -5.28,-18.09 -2.05,-3.66 -5.05,-6.69 -7.57,-10zm-20.72 126.44l0 0c-6.29,19.88 -16.53,38.15 -24.86,57.18 9.08,-8.95 15.96,-19.77 24.1,-29.52 6.27,-8.25 14.1,-16.15 15.91,-26.77 2.2,-11.09 3.41,-22.35 4.1,-33.62 1.3,-13.43 -7.03,-24.85 -13.07,-36.08 0.44,23.05 0.11,46.48 -6.18,68.81zm27.82 25.57l0 0c-4.64,9.01 -5.58,19.34 -7.81,29.11 15.84,19.12 40.63,28.54 54.79,49.24 -13.29,-3.44 -25.79,-9.21 -38.59,-14.05 9.93,9.63 20.54,18.51 30.32,28.35 10.15,9.64 20.43,20.26 34.24,24.39 4.98,5.11 8.5,11.53 14.13,16.11 4.41,-1.12 10.93,-0.9 12.42,-6.32 1.1,-7.74 -1.78,-15.3 -3.92,-22.62 -4.58,-15.08 -17.54,-25.12 -26.35,-37.57 -9.08,-13.37 -15.55,-28.22 -22.09,-42.9 -8.3,-13.48 -19.39,-25.13 -30.63,-36.17 -5.36,4.35 -11.31,7.92 -16.51,12.43zm-37.06 51.82l0 0c-9.5,4.06 -20.24,3.02 -30.34,3.46 -0.45,4.51 -0.87,9.06 -1.3,13.59 12.34,-3.48 25.3,-3.66 37.64,-7.14 8.52,5.84 17.25,11.69 27.36,14.43 -7.08,-8.25 -16.29,-15.14 -20.78,-25.32 -1.02,-6.74 0.9,-13.56 1.54,-20.28 -4.21,7.34 -7.11,16.07 -14.12,21.26zm-210.72 46.19l0 0c1.69,0.87 5.08,2.61 6.76,3.48 9.55,-3.55 16.89,-10.71 23.51,-18.19 -5.37,-1.98 -10.53,-4.48 -15.46,-7.38 -2.41,8.81 -8.07,16.11 -14.81,22.09zm118.2 -2.17l0 0c-6.67,11.67 -18.12,18.7 -29.25,25.46 2.5,-0.6 5.02,-1.25 7.52,-1.92 3.84,1.76 7.63,3.68 11.35,5.69 5.56,-8.88 8.04,-19.14 10.38,-29.23zm-133.75 13.1l0 0c13.79,15.35 29.78,28.67 43.1,44.42 -1.11,11.33 -7.16,23.72 0.4,34.13 -1.89,13.57 -8.25,25.88 -14.9,37.64 6.63,2.43 13.18,5.02 19.68,7.83 4.33,-10.62 8.25,-21.46 10.71,-32.66 1.85,-7.81 -1.45,-15.39 -4.2,-22.51 -5.13,-10.62 2.97,-22.18 -1.18,-33 -1.76,-4.77 -6.81,-6.83 -10.69,-9.53 -14.41,-8.61 -28.51,-17.73 -42.92,-26.32zm323.03 81.97l0 0c-5.76,11.4 -5.58,24.67 -7.49,37.08 -7.7,4.97 -16,9.05 -23.36,14.52 -8.77,7.77 -9.62,20.93 -17.76,29.1 -11.98,7.74 -25.82,12.11 -37.69,20.12 6.34,3.41 12.59,7.78 19.93,8.63 9.23,-2.99 16.66,-9.81 24.94,-14.72 12.18,-6.34 11.13,-22.22 19.05,-31.97 7.39,-8.5 18.37,-12.99 25.46,-21.76 1.99,-8.85 0.58,-18.11 2.16,-27.04 1.92,-15.01 15.73,-24.29 20.35,-38.26 -9.19,7.32 -18.4,14.95 -25.59,24.3zm-229.46 35.31l0 0c2.23,4.76 4.7,9.4 6.67,14.28 4.13,8.75 -2.83,17.54 -2.97,26.4 3.68,13.18 15.86,23.74 14.73,38.28 -1.88,15.55 -7.03,30.5 -11.2,45.56 6,-0.98 13.47,0.27 18.02,-4.57 3.66,-12.59 4.89,-25.79 6.52,-38.78 1.58,-12.32 -9.15,-21.02 -13.16,-31.73 -3.89,-6.98 -0.16,-14.68 0.91,-21.84 2.14,-8.43 -1.12,-17.27 -6.45,-23.8 -2.9,-4.29 -8.68,-3.08 -13.07,-3.8zm146.76 -521.55l0 0c2.23,2.41 3.9,5.78 7.38,6.58 4.29,-2.36 4.69,-7.81 6.6,-11.84 -3.94,3.57 -8.41,6.31 -13.98,5.26z"/>
   <path class="fil3" d="M1593.28 1174.03c5.98,-6.09 15.02,-6.63 23.05,-6.89 18.45,-0.29 36.92,0.31 55.39,-0.29 -1.53,10.66 -1.51,21.55 0.36,32.19 -6.58,-3.39 -12.87,-7.47 -19.92,-9.84 -10.93,-0.53 -21.89,0.02 -32.82,-0.22 -0.05,9.59 -0.07,19.18 0,28.78 13.81,0.33 27.71,-1.41 41.45,0.74 7.32,1 13.7,6.62 14.88,14.05 2.15,12.49 1.08,25.32 0.67,37.95 -0.44,10.42 -9.81,18.5 -20.03,18.56 -22.45,0.9 -44.91,0.2 -67.36,0.32 0.09,-10.76 0,-21.49 0.07,-32.24 6.25,3.23 12.09,7.27 18.54,10.1 12.43,0.99 24.96,0.11 37.44,0.36 -0.12,-9.97 -0.12,-19.95 0,-29.9 -12.54,-0.24 -25.1,0.38 -37.64,-0.26 -7.45,-0.34 -15.33,-4.24 -17.87,-11.65 -3.06,-9.35 -1.79,-19.34 -2.08,-28.98 -0.09,-7.85 -0.15,-16.87 5.87,-22.78zm-167.42 2.07c4.2,-7.11 13.21,-8.74 20.8,-8.99 20.03,-0.09 40.04,0 60.08,0 -0.05,10.42 0.07,20.86 -0.14,31.28 -5.1,-3.05 -9.92,-6.67 -15.39,-9.1 -12.27,-0.69 -24.59,-0.07 -36.86,-0.24 -1.09,26.17 -0.09,52.36 -0.55,78.53 8.18,0.07 16.39,0.07 24.6,0.07 -0.06,-8.77 0.49,-17.59 -0.22,-26.33 -2.32,-5.96 -6.18,-11.16 -9.19,-16.76 12.74,-0.15 25.5,-0.11 38.24,0 0.58,20.8 0.58,41.59 0.58,62.38 -21.71,1.01 -43.75,-2.36 -65.15,2.19 -8.34,-0.76 -16.57,-5.67 -18.67,-14.19 -4.95,-21.22 -1.9,-43.15 -2.34,-64.7 0.18,-11.42 -1.48,-23.69 4.21,-34.14zm-196.02 -8.99c12.7,-0.02 25.39,-0.06 38.09,0.05 13.54,23.02 26.44,46.45 40.6,69.12 0.09,-23.07 0,-46.12 0.02,-69.17 11.83,-0.04 23.65,-0.02 35.48,0 -2.81,7.52 -7.48,14.77 -6.94,23.14 0.04,33.06 0,66.13 0.02,99.19 -10.46,0.02 -20.93,0 -31.37,0 -13.32,-24.69 -26.61,-49.44 -40.4,-73.89 -0.2,24.5 -0.43,48.99 0.15,73.47l-0.51 -0.09c-11.09,-2.63 -22.53,-2.34 -33.82,-2.05 1.76,-4.06 3.81,-7.99 5.09,-12.23 1.71,-28.11 0.73,-56.31 1.07,-84.47 0.6,-8.41 -4.44,-15.61 -7.48,-23.07zm-351.88 0c37.35,-0.04 74.7,0 112.04,-0.02 -0.02,13.48 0.07,26.93 -0.04,40.41 -7.85,-5.83 -15.48,-11.98 -23.22,-17.94 -5.45,-0.02 -10.89,-0.02 -16.34,0.02 -0.11,25.5 0.05,51 -0.09,76.5 -0.84,8.59 4.56,15.82 7.88,23.3 -16,-0.18 -32.06,0.78 -48.01,-0.54 14.86,-2.05 29.98,0.29 44.8,-2.52 -14.35,0.18 -28.67,0.56 -43.02,0.29 2.63,-5.91 6.74,-11.62 6.18,-18.41 -0.02,-26.19 -0.02,-52.4 -0.02,-78.62 -6.76,0.56 -14.7,-2.03 -20.39,2.72 -6.63,4.95 -12.87,10.38 -19.59,15.22 -0.33,-13.48 -0.09,-26.93 -0.18,-40.41zm-155.03 8.62c5.22,-7.3 14.9,-8.5 23.2,-8.62 19.16,-0.06 38.33,0 57.52,0 -0.05,10.65 0.04,21.31 -0.12,31.97 -6.65,-3.14 -12.96,-7 -19.81,-9.68 -11.11,-0.96 -22.31,-0.09 -33.46,-0.38 0.11,9.48 -0.29,18.97 0.22,28.43 15.42,1.49 31.5,-2.46 46.49,2.61 11.65,5.22 10.98,19.79 11.14,30.54 -0.63,9.62 0.98,20.03 -3.53,28.94 -3.32,6.65 -11.09,8.5 -17.76,9.79l-2.38 -0.53c-20.17,-4.2 -40.92,-0.61 -61.36,-2.01 -0.13,-9.68 -0.29,-19.37 -1.29,-29.01 5.71,3.35 11.18,7.25 17.42,9.64 12.14,0.61 24.34,0.02 36.52,0.18 0.03,-9.97 0.05,-19.95 -0.02,-29.92 -15.39,-0.91 -31.32,2.23 -46.27,-2.36 -10.58,-4.47 -11.16,-17.47 -11.07,-27.31 0.63,-10.76 -2.25,-22.94 4.56,-32.28zm-409.94 -8.62c14.12,-0.04 28.27,-0.04 42.39,0.03 10.6,19.99 21.4,39.91 31.93,59.94 11.35,-19.85 22.02,-40.09 33.26,-60.01 13.95,0.07 27.91,-0.02 41.88,0.02 -4.08,5.07 -8.3,10.02 -12.54,14.95 0.05,28.71 0,57.45 -0.02,86.19 -0.2,7.83 5.11,14.25 8.05,21.17 -12.47,0.09 -24.94,0.13 -37.39,-0.07 0.14,-24.72 0.2,-49.44 -0.02,-74.16 -12.25,18.59 -21.58,38.96 -33.27,57.9 -9.99,-18.19 -20.72,-35.95 -30.87,-54.04 -0.69,-0.45 -2.12,-1.34 -2.84,-1.78l-1.36 -0.94c-0.47,23.51 0.25,47.05 -0.33,70.57 -10.4,0.44 -20.82,0.02 -31.1,-1.63 1.98,-4.73 5.31,-9.26 4.93,-14.64 -0.18,-28.76 0.24,-57.51 -0.2,-86.27 -3.22,-6.34 -8.46,-11.43 -12.5,-17.23zm513.28 -156.42c4.39,0.72 10.17,-0.49 13.07,3.8 5.33,6.53 8.59,15.37 6.45,23.8 -1.07,7.16 -4.8,14.86 -0.91,21.84 4.01,10.71 14.74,19.41 13.16,31.73 -1.63,12.99 -2.86,26.19 -6.52,38.78 -4.55,4.84 -12.02,3.59 -18.02,4.57 4.17,-15.06 9.32,-30.01 11.2,-45.56 1.13,-14.54 -11.05,-25.1 -14.73,-38.28 0.14,-8.86 7.1,-17.65 2.97,-26.4 -1.97,-4.88 -4.44,-9.52 -6.67,-14.28zm229.46 -35.31c7.19,-9.35 16.4,-16.98 25.59,-24.3 -4.62,13.97 -18.43,23.25 -20.35,38.26 -1.58,8.93 -0.17,18.19 -2.16,27.04 -7.09,8.77 -18.07,13.26 -25.46,21.76 -7.92,9.75 -6.87,25.63 -19.05,31.97 -8.28,4.91 -15.71,11.73 -24.94,14.72 -7.34,-0.85 -13.59,-5.22 -19.93,-8.63 11.87,-8.01 25.71,-12.38 37.69,-20.12 8.14,-8.17 8.99,-21.33 17.76,-29.1 7.36,-5.47 15.66,-9.55 23.36,-14.52 1.91,-12.41 1.73,-25.68 7.49,-37.08zm-96.76 -139.09c7.01,-5.19 9.91,-13.92 14.12,-21.26 -0.64,6.72 -2.56,13.54 -1.54,20.28 4.49,10.18 13.7,17.07 20.78,25.32 -10.11,-2.74 -18.84,-8.59 -27.36,-14.43 -12.34,3.48 -25.3,3.66 -37.64,7.14 0.43,-4.53 0.85,-9.08 1.3,-13.59 10.1,-0.44 20.84,0.6 30.34,-3.46zm9.24 -77.39c6.29,-22.33 6.62,-45.76 6.18,-68.81 6.04,11.23 14.37,22.65 13.07,36.08 -0.69,11.27 -1.9,22.53 -4.1,33.62 -1.81,10.62 -9.64,18.52 -15.91,26.77 -8.14,9.75 -15.02,20.57 -24.1,29.52 8.33,-19.03 18.57,-37.3 24.86,-57.18zm-298.45 -149.66c9.15,9.73 16.67,20.95 27.13,29.38 -2.21,2.08 -4.42,4.18 -6.63,6.25 -8.18,-10.98 -17.35,-21.93 -20.5,-35.63zm65.12 -6.92c-1.87,-7.05 0.85,-13.83 4.29,-19.87 0.55,6.89 4.46,16.57 -4.29,19.87zm-31.65 -19.7c8.34,-11.58 21.5,-19.01 34.8,-23.58 -9.86,12.58 -25.59,19.95 -32.95,34.56 -3.64,11.22 2.07,22.53 2.38,33.8 -2.47,3.53 -5.82,6.27 -8.88,9.24 -3.63,-17.72 -4.97,-37.91 4.65,-54.02zm158.71 -75.05c-5.15,11.94 -13.32,22.15 -20.37,32.98 -5.31,7.94 -11.62,16.42 -21.55,18.6 -12.78,2.93 -27.91,6.12 -39.33,-2.34 15.79,-1.7 32.3,-3.35 46.63,-10.62 13.34,-11.11 23.09,-25.77 34.62,-38.62zm10.13 -36.77c8.72,-2.85 15.02,-9.77 22.07,-15.26 -4.53,9.77 -9.49,21.82 -20.95,24.88 -10.91,3.21 -22.09,5.49 -33.25,7.65 -11.49,2.59 -18.25,-10.08 -23.24,-18.29 7.92,4.01 15.75,10.93 25.27,9.1 10.31,-1.54 20.26,-4.77 30.1,-8.08zm0.98 -35.49c15.4,-0.65 28.56,-9.28 43.24,-12.81 -8.43,6.87 -17.27,13.41 -26.91,18.5 -6.02,3.03 -11.51,-2.84 -16.33,-5.69zm15.93 -81.84c7.41,9.31 10.73,21.55 19.55,29.7 8.32,3.9 17.93,0.35 26.75,1.78 1.45,2.88 2.5,5.89 3.66,8.9 -11.09,-0.08 -24.08,1.94 -33.09,-6.06 -9.28,-9.13 -14.48,-21.69 -16.87,-34.32zm72.65 -3.39c-5.2,-6.76 0.15,-14.3 4.41,-19.81 0.72,4.97 0.7,10.17 2.46,14.95 2.63,3.03 6.73,3.95 10.39,5.2 16.09,4.73 33.74,6.8 47.37,17.4 6.58,5.13 14.08,10.1 17.65,17.94 2.36,9.39 -4.44,17.71 -9.84,24.65 0.42,-7.41 3.14,-15.17 1.16,-22.47 -8.35,-12.14 -22.13,-20.41 -36.79,-22.06 -12.88,-2.95 -27.84,-5.11 -36.81,-15.8zm167.75 232.97c49.86,3.75 99.77,6.78 149.61,10.77 18.97,3.1 41.01,7.41 52.41,24.59 11.07,16.42 11.02,37.32 10.2,56.38 -0.16,17.13 1.11,34.27 0.04,51.4 0.09,22.36 1.83,44.98 -2.39,67.09 -2.09,10.69 -7.51,21.35 -17.06,27.17 -8.75,5.2 -19.32,6.05 -29.25,5.6 -25.08,-1.94 -50.07,-5.17 -75.19,-6.09 0.07,41.9 -0.09,83.8 0.07,125.7 -29.74,-1.38 -59.44,-4.02 -89.2,-5.02 7.7,-10.95 16.73,-20.93 24.12,-32.1 1.16,-25.75 0.13,-51.65 0.47,-77.44 0.02,-67.69 -0.03,-135.38 0.04,-203.07 -0.11,-5.07 0.4,-10.2 -0.49,-15.2 -7.34,-10.28 -15.86,-19.65 -23.38,-29.78zm185.56 29.02l0 0c3.14,8.26 7.07,16.27 8.96,24.95 3.93,16.75 2.73,34.06 2.61,51.13 -0.98,27.53 -1.02,55.09 -1.18,82.64 -0.31,10.35 -1.58,21.11 -6.56,30.37 -3.79,6.91 -12.49,7.65 -19.5,7.56 -32.59,-0.34 -64.81,-6.29 -97.36,-7.32 0.02,18.81 -0.58,37.64 -0.33,56.47 0.4,23.18 -1.72,46.34 -0.81,69.54 -15.41,-1.41 -30.9,-2.28 -46.36,-2.54 -5.2,-0.85 -7.72,4.62 -11.09,7.4 5,1.57 10.18,2.68 15.44,2.7 17.09,0.27 34.07,2.84 51.2,2.66 0.25,-41.83 0.03,-83.67 0.32,-125.5 29.07,0.29 57.8,5.62 86.85,6.38 10.18,0.23 21.78,-1.98 28.09,-10.8 8.3,-12 8.97,-27.33 9.17,-41.43 0.09,-36.47 0.2,-72.95 0,-109.43 0.04,-16.73 -5.26,-34.63 -19.45,-44.78zm-114.12 14.82l0 0c-0.29,46.65 -0.27,93.32 -0.12,139.97 3.08,0.61 6.14,1.19 9.24,1.79 0.43,-44.09 -0.4,-88.17 0.36,-132.26 22.8,0.87 45.4,4.29 68.2,4.93 -4.06,-4.73 -8.68,-9.86 -15.42,-10.02 -20.7,-2.02 -41.47,-3.79 -62.26,-4.41zm16.89 17.33l0 0c0.11,41.39 0.06,82.78 0.02,124.16 17.62,1.18 35.18,3.19 52.83,4.2 4.89,1.18 8.63,-3.82 8.17,-8.35 0.06,-35.05 0.06,-70.12 0,-105.19 0.4,-4.78 -2.68,-10.44 -8.02,-10.33 -17.62,-1.85 -35.34,-2.97 -53,-4.49zm-733.82 -18.49c28.89,-4.15 57.63,-9.39 86.45,-14.21 0.2,99.39 0.2,198.78 0,298.15 14.3,-3.16 30.26,-2.07 42.82,-10.55 9.39,-5.62 18.83,-11.2 28.44,-16.46 0.07,25.45 0.18,50.91 -0.06,76.36 -52.7,8.55 -105.51,16.34 -158.3,24.32 7.75,-12.36 15.02,-24.99 23.36,-36.94l1.32 -2.08c1.54,-11.69 0.69,-23.49 0.78,-35.23 0.04,-87.05 0.04,-174.09 0.02,-261.14 -0.35,0.6 -1.07,1.83 -1.43,2.43 -8.09,-7.92 -15.99,-16.09 -23.4,-24.65zm69.97 -2.48l0 0c-0.92,6.72 -0.65,13.5 -0.61,20.26 0.32,88.91 -0.26,177.84 0.34,266.74 3.06,-0.26 6.11,-0.53 9.19,-0.78 -0.02,-96.45 -0.18,-192.89 0.07,-289.34 -3.08,0.82 -6.05,1.96 -8.99,3.12zm71.26 281.27l0 0c-1.03,13.21 -0.25,26.5 -0.27,39.76 -37.86,6.11 -75.79,11.75 -113.7,17.51 -6.44,0.09 -9.52,5.85 -12.27,10.75 10.36,-0.53 20.64,-2 30.86,-3.72 34.71,-5.49 69.47,-10.6 104.21,-15.95 -0.22,-19.24 0.13,-38.44 -0.29,-57.65 -3.28,2.65 -8.97,4.1 -8.54,9.3zm789.21 -290.66c9.97,-2.3 20.21,-0.38 30.18,1.05 24.1,4.04 48.24,7.76 72.18,12.56 16.55,3.37 33.6,11.11 42.45,26.24 11.61,18.94 11,41.96 11.72,63.38 0.07,63.99 0.02,127.95 0.02,191.94 -0.62,16.24 -0.04,32.77 -4.19,48.61 -2.68,9.28 -7.5,18.87 -16.31,23.67 -11.25,6.36 -24.79,4.55 -36.99,2.68 -22.85,-4.28 -45.81,-7.97 -68.74,-11.65 -17.27,-3.01 -35.72,-8.68 -46.94,-23 -11.4,-14.43 -13.26,-33.58 -13.68,-51.29 -0.07,-72.18 -0.02,-144.37 -0.02,-216.57 0.44,-16.62 0.71,-34.02 8.1,-49.28 4.21,-8.97 12.25,-16.53 22.22,-18.34zm130.96 34.13l0 0c6.27,14.88 9.28,30.9 9.17,47.06 0.36,70.61 -0.04,141.22 0.16,211.83 -0.07,14.69 -0.05,29.63 -4,43.89 -1.76,5.6 -4.15,11.6 -9.21,14.99 -6.45,3.46 -14.1,2.21 -21.04,1.48 -28.31,-4.38 -56.49,-9.47 -84.76,-14.11 -12.47,-1.83 -23.87,-7.31 -35.02,-12.91 8.36,14.28 24.71,20.83 40.27,23.67 24.89,4.42 49.84,8.63 74.78,12.87 10.08,1.43 20.99,2.88 30.54,-1.63 8.26,-3.97 11.74,-13.32 13.79,-21.66 3.93,-18.25 3.5,-37.08 3.5,-55.67 0.03,-58.02 -0.06,-116.03 0,-174.06 -0.55,-25.77 1.39,-55.84 -18.18,-75.75zm-103.25 11.16l0 0c-7.74,4.42 -10.55,13.88 -10.22,22.31 0.25,72.2 0.07,144.39 0.04,216.61 -0.71,7.52 4.18,13.48 9.15,18.45 0.54,-79.02 -0.04,-158.07 0.27,-237.09 -0.67,-7.76 6.05,-15.84 14.17,-14.66 16.75,2.12 33.19,6.54 50.08,7.68 -7.4,-12.03 -22.57,-10.51 -34.64,-13.03 -9.44,-1.28 -19.93,-5.58 -28.85,-0.27zm9.52 13.94l0 0c-2.96,1.68 -3.34,5.2 -3.21,8.26 0.05,75.16 0.05,150.33 0.02,225.49 -0.49,4.91 1.88,10.66 7.3,11.45 13.3,2.81 26.82,4.5 40.18,7.02 4.15,1.03 11.36,1.16 11.02,-4.86 0.49,-72.98 0.02,-145.98 0.05,-218.96 -0.38,-6.98 2.79,-17.35 -5.33,-21.01 -13.03,-3.13 -26.44,-4.44 -39.56,-7.12 -3.44,-0.29 -7.21,-1.81 -10.47,-0.27zm-1185.6 1.05c43.8,-10.64 87.75,-20.73 131.59,-31.26 17.83,104.69 35.43,209.41 53.25,314.09 1.48,10.31 4.2,20.46 4.8,30.9 -19.88,4.37 -39.91,8.17 -59.88,12.14 -4.62,-29.54 -8.72,-59.17 -13.21,-88.73 -25.12,5.29 -50.06,11.49 -75.12,17.11 -4.86,31.77 -8.7,63.7 -13.36,95.51 -24.43,6.07 -48.59,13.19 -73.05,19.12 6.74,-14.01 16.29,-26.73 21.56,-41.36 15.23,-101.74 30.29,-203.49 45.73,-305.21 -7.4,-7.47 -14.83,-14.9 -22.31,-22.31zm117.85 -19.63l0 0c-0.49,3.05 -0.09,6.18 0.33,9.21 17.14,99.82 33.73,199.75 50.82,299.57 0.45,3.43 0.78,6.89 0.72,10.37 -11.27,4.13 -23.41,5.11 -35.05,7.81 0.53,3.21 1.05,6.42 1.58,9.64 14.97,-2.88 29.83,-6.21 44.82,-8.97 -1,-7.48 -2.12,-14.93 -3.37,-22.36 -17.49,-102.78 -34.64,-205.63 -52.38,-308.37 -2.54,0.93 -5.02,1.96 -7.47,3.1zm-60.15 41.99l0 0c-3.48,7 -3.02,15.3 -4.35,22.91 -7.43,54.04 -15.53,108 -22.47,162.13 3.01,-0.74 6,-1.61 8.92,-2.59 3.26,-9.68 3.39,-20.03 5,-30.07 6.87,-48.19 13.16,-96.47 20.39,-144.62 6.96,-1.58 13.92,-3.19 20.91,-4.75 -0.72,-3.35 -1.39,-6.67 -2.08,-10.02 -8.77,2.34 -17.87,3.62 -26.32,7.01zm13.9 14.1l0 0c-7.57,55.28 -15.42,110.52 -23.1,165.79 20.2,-4.69 40.45,-9.15 60.64,-13.97 -7.49,-51.76 -15.54,-103.43 -23.09,-155.17 -4.82,1.07 -9.63,2.21 -14.45,3.35zm-45.43 203.94l0 0c-4.42,31.57 -8.39,63.2 -13.16,94.75 -12.14,3.52 -24.34,6.83 -36.61,9.86 -1.9,4.06 -3.77,8.1 -5.62,12.16 14.27,-3.99 28.64,-7.65 43.01,-11.27 3.21,-1.13 8.25,-1.74 8.14,-6.18 4.2,-30.38 8.44,-60.75 12.56,-91.13 27.22,-6.77 54.58,-12.9 81.91,-19.13 -0.63,-3.39 -1.23,-6.76 -1.83,-10.12 -29.39,7.4 -59.1,13.38 -88.4,21.06zm1310.97 -270.07c28.64,6.54 57.27,13.25 85.92,19.9 -0.16,99.35 0,198.67 -0.09,298.02 10.73,2.84 21.17,7.1 32.17,8.77 12.98,-2.43 25.43,-7.14 38.3,-10.2 0.45,26.33 -0.73,52.61 -0.78,78.92 -51.91,-12.83 -103.96,-25.24 -155.86,-38.24 6.9,-8.59 14.1,-16.94 20.91,-25.64 1.49,-1.92 2.12,-4.13 1.85,-6.62 0,-97.41 -0.09,-194.82 0.04,-292.23 -7.54,-10.86 -14.99,-21.77 -22.46,-32.68zm69.79 23.25l0 0c-0.25,96.76 0,193.54 -0.16,290.3 2.88,0.87 5.71,1.74 8.63,2.61 0.63,-93.06 -0.22,-186.11 0.38,-279.17 -0.11,-3.57 -0.22,-7.16 -1.09,-10.62 -2.52,-1.25 -5.18,-2.17 -7.76,-3.12zm71.19 306.43l0 0c-1.41,14.61 0.15,29.36 -0.74,44.02 -38.91,-8.7 -77.42,-19.03 -116.24,-28.05 -5.51,-2.38 -7.85,4.2 -11.08,7.28 45.08,10.8 90.06,21.97 135.13,32.88 0.8,-19.87 0.18,-39.78 0.42,-59.68 -2.56,1.1 -5.06,2.23 -7.49,3.55zm-0.07 -295.77c27.69,8.32 55.82,15.37 83.33,24.25 14.84,52.01 27.29,104.73 41.54,156.91 14.91,-43.39 28.85,-87.14 43.31,-130.69 20.68,7.25 41.29,14.72 62.07,21.75 -21.18,49.82 -42.64,99.53 -63.86,149.35 -3.57,9.79 -9.57,18.87 -11.35,29.2 -0.14,50.98 -0.23,101.98 0.06,152.96 -28.18,-8.7 -56.44,-17.2 -84.4,-26.62 7.77,-8.88 17.09,-16.55 23.78,-26.28 0.41,-37.79 -0.04,-75.61 0.23,-113.4 -0.11,-3.93 0.22,-7.97 -1.14,-11.69 -22.55,-63.19 -44.44,-126.61 -67.13,-189.73 -7.77,-12.72 -18.18,-23.63 -26.44,-36.01zm68.4 27.08l0 0c3.42,17.56 8.91,34.63 13.03,52.01 11.07,41.79 21.64,83.71 32.93,125.43 2.35,-5.87 5.89,-12.09 3.84,-18.58 -12.92,-50.56 -26.39,-100.98 -39.33,-151.51 -0.65,-5.27 -6.63,-5.56 -10.47,-7.35zm143.17 47.46l0 0c-23.2,53.95 -46.34,107.92 -70.43,161.44 -1.61,3.97 -2.23,8.25 -2.3,12.51 0.04,44.02 0.74,88.06 0.71,132.08 -15.08,-3.52 -29.47,-9.41 -44.48,-13.03 -4.91,-2.09 -7.39,3.66 -10.58,6.14 21.04,6.87 42.08,13.85 63.47,19.65 -0.26,-46.04 0.07,-92.12 -0.24,-138.16 -0.56,-12.65 6.42,-23.61 11.04,-34.9 13.97,-32.77 28.07,-65.5 42.08,-98.28 6.36,-15.37 13.88,-30.27 19.19,-46.07 -2.86,-0.47 -5.67,-0.91 -8.46,-1.38zm-1802.62 -46.05c10.89,-2.48 23.78,-3.93 33.13,3.53 10.58,8.63 13.07,23.09 14.17,35.94 0.78,18.4 1.76,36.88 0.78,55.31 -20.82,5.73 -41.32,12.45 -62.07,18.42 -0.07,-14.25 0.07,-28.51 0,-42.76 0.2,-2.95 -0.47,-5.92 -2.5,-8.13 -4.91,-0.8 -9.59,1.32 -14.21,2.66 -11.29,3.7 -22.78,6.71 -33.98,10.71 -5.18,1.74 -7.38,7.56 -6.76,12.67 0.11,75.92 -0.11,151.87 0.11,227.79 -0.58,3.55 2.7,6.78 6.25,5.53 13.48,-3.57 26.57,-8.43 39.87,-12.62 5.11,-1.45 10.89,-4.76 11.06,-10.74 0.43,-19.92 -0.02,-39.84 0.16,-59.77 20.82,-5.97 41.57,-12.11 62.27,-18.4 0.45,22.96 0.11,45.91 -1.23,68.85 -1.69,18 -6.38,36.99 -19.52,50.22 -9.15,9.97 -21.82,15.62 -34.51,19.61 -23.21,7.23 -46.25,14.95 -69.41,22.33 -11.31,3.53 -23.49,6.61 -35.3,3.73 -9.28,-2.21 -15.53,-10.69 -18.23,-19.41 -3.12,-10.24 -3.45,-21.04 -3.63,-31.66 0.02,-69.14 0.02,-138.26 0,-207.4 -0.02,-25.68 0.47,-53.45 15.44,-75.47 9.55,-14.44 25.88,-22.07 41.85,-27.11 25.41,-7.97 50.4,-17.38 76.26,-23.83zm24.52 6.78l0 0c8.74,23.94 7.99,49.91 6.47,74.94 -11.83,5.72 -25.1,7.68 -37.53,11.83 -0.2,3.1 -0.4,6.2 -0.6,9.3 16.26,-3.79 32.02,-9.39 48.1,-13.83 -0.02,-22.76 2.03,-46.21 -4.84,-68.27 -1.7,-6.16 -6.6,-10.42 -11.6,-13.97zm-83.06 49.44l0 0c-6.79,2.15 -14.1,3.31 -20.19,7.19 -7.5,5.86 -9.44,15.99 -9.4,24.99 0.25,72.91 -0.11,145.84 0.14,218.73 -0.65,7.4 3.23,14.12 10.42,16.4 -1.79,-12.07 -1.61,-24.3 -1.37,-36.48 0,-66.2 0.07,-132.41 -0.04,-198.61 -0.45,-7.7 2.92,-16.02 10.46,-19.05 16.92,-6.9 34.92,-10.6 52.12,-16.69 -4.02,-2.12 -7.94,-6.05 -12.87,-4.8 -10.04,1.65 -19.46,5.78 -29.27,8.32zm89.98 176.97l0 0c0.04,29.7 3.03,61.91 -12.52,88.62 -11.83,18.43 -35.1,21.75 -54.17,28.58 -27.78,7.94 -54.53,21.21 -83.89,21.95 7.94,6.36 18.34,7.54 27.98,5 22.64,-5.45 44.4,-13.99 66.66,-20.73 13.61,-4.33 27.82,-8.01 39.67,-16.35 10.98,-7.52 17.67,-19.88 21.06,-32.49 6.58,-25.3 4.95,-51.67 4.55,-77.52 -3.12,0.95 -6.22,1.96 -9.34,2.94zm353.01 227.01c13.35,0.04 26.69,0.02 40.03,0.02 -0.07,33.49 0.11,67 -0.09,100.49 7.85,0.07 15.68,0.04 23.52,0.02 -0.45,-33.51 -0.67,-67 -0.54,-100.49 13.21,-0.04 26.41,0 39.64,-0.04 -2.94,6.76 -8.03,13.19 -7.2,20.97 0.09,23.81 0.07,47.59 0.07,71.4 -0.36,7.4 -0.29,15.75 -5.43,21.68 -4.73,5.8 -12.47,8.01 -19.7,7.99 -14.03,0.31 -28.11,0.8 -42.12,-0.23 -7.74,-0.75 -16.82,-4.06 -19.14,-12.33 -2.41,-12.32 -1.56,-24.92 -0.89,-37.33 0.13,-16.35 0,-32.71 0.09,-49.04 0.64,-8.59 -5.02,-15.64 -8.24,-23.11zm37.44 119.47l0 0 0.09 1.36c8.05,0 16.13,-0.11 24.19,-0.62 -8.08,-0.63 -16.18,-0.76 -24.28,-0.74zm499.33 -119.38c18.3,0.11 36.64,-0.56 54.91,0.29 6.85,34.2 12.83,68.6 19.77,102.81 1.96,6.85 5.95,12.87 9.25,19.16 -12.89,0.07 -25.79,0.04 -38.71,0 -1.44,-10.4 -3.18,-20.77 -4.68,-31.15 -8.79,-0.04 -17.58,-0.04 -26.37,0 -1.47,10.38 -2.79,20.78 -4.2,31.17 -13.07,-0.02 -26.12,0.14 -39.19,-0.09 3.97,-6.65 9.23,-12.87 10.41,-20.77 6.25,-33.8 12.32,-67.64 18.81,-101.42zm27.13 22.69l0 0c-4.01,17.02 -6.67,34.36 -10.57,51.42 7.23,-0.04 14.43,-0.04 21.68,-0.13 -3.54,-17.13 -6.42,-34.45 -11.11,-51.29zm19.77 95.51l0 0c0.02,0.56 0.09,1.7 0.11,2.28 11.62,0.17 23.25,0.29 34.87,0.17l-0.04 -1.16c-11.67,0.2 -23.36,0.38 -34.94,-1.29zm-72.27 1.92l0 0c11.36,0.78 22.74,0.56 34.12,0.67l-0.14 -1.56c-11.33,0.22 -22.66,0.06 -33.98,0.89zm542.64 0.02l0 0c19.5,0.83 39.09,0.94 58.59,-0.11 -19.5,-0.8 -39.09,-0.94 -58.59,0.11z"/>
   <path class="fil4" d="M931.98 447.35c6.6,-9.75 13.8,-19.07 21.17,-28.26 5.66,3.25 12.16,3.68 18.49,2.67 12.27,8.17 23.67,21.33 20.55,37.2 -4.37,-7.01 -9.64,-13.37 -15.13,-19.48 -0.44,-0.54 -1.33,-1.61 -1.76,-2.16 -0.62,10.7 1.79,21.26 1.65,31.92 -5.73,5.13 -9.99,12.25 -6.71,20.08 6.33,17.76 20.32,31.46 32.84,45.07 2.1,2.1 4.22,4.13 6.4,6.16 6.27,15.37 8.66,32.06 15.62,47.14 2.12,5.24 7.72,7.23 12.58,9.1 0.76,-0.04 2.3,-0.13 3.08,-0.2 2.19,6.56 4.91,12.92 8.21,18.99 0.67,4.44 1.61,8.85 2.66,13.23 -4.24,4.28 -7.52,10.79 -13.93,11.91 -7.11,1.7 -9.14,-7.03 -11.35,-11.94 -3.21,-7.11 4.21,-12.65 6.16,-19 -3.33,-6.34 -7.99,-11.85 -11.87,-17.83 -3.13,-4.44 -6.81,-10.24 -13.01,-9.79 -10.2,1.42 -16.35,11.02 -20.39,19.58 -1.3,-8.01 -1.01,-16.39 -4,-24.02 -4.84,-6.63 -13.36,-8.53 -19.78,-13.12 -3.31,-9.84 -3.86,-20.39 -6.25,-30.5 -2.39,-11.71 -5.07,-23.87 -1.83,-35.74 5.26,-19.93 9.64,-40.07 13.16,-60.4 -6.94,20.66 -12.27,41.81 -18.58,62.67 -4.11,14.88 -9.24,29.5 -12.45,44.6 6,23.78 11.8,47.63 17,71.6 3.3,19.03 4.64,38.37 8.41,57.31 -13.25,-9.08 -25.79,-19.52 -40.23,-26.68 -13.05,-1.97 -25.97,2.79 -38.64,5.35 4.17,4.82 8.79,9.24 12.83,14.19 3.84,6.16 5.94,13.19 8.68,19.88 3.84,10.67 8.68,21.15 10.08,32.51 1.48,10.37 -0.2,20.86 -0.96,31.23 -5.77,-7.99 -10.35,-17.09 -18,-23.54 -6.36,-4.37 -14.1,-6.04 -21.24,-8.7 5.96,5.74 12,11.67 15.71,19.19 6.07,11.51 6.91,24.83 7.02,37.59 -8.43,-1.94 -16.84,-4.24 -24.72,-7.9 -7.67,-4.06 -16.68,-1.96 -24.98,-2.11 -15.44,-0.18 -26.84,13.45 -31.04,27.19 0.9,-0.13 2.7,-0.42 3.6,-0.56 18.27,-2.4 41.11,-6.15 54.63,9.66 -8.36,10.76 -12.11,24.46 -9.72,37.95 -14.82,12.03 -31.13,23.19 -49.89,27.74 -6.65,0.89 -12.72,-3.17 -14.44,-9.64 -11.57,-22.67 -6.73,-49.75 4.6,-71.51 -5.2,-26.19 -8.88,-53.41 -2.83,-79.78 -6.27,15.24 -14.39,30.23 -16.09,46.83 -1.27,10.53 6.74,20.86 1.47,30.97 -4.19,14.59 -12.31,28.38 -12.29,43.88 -12.05,-7.43 -24.5,-14.25 -36.12,-22.4 -8.46,-5.8 -13.99,-14.7 -18.85,-23.53 -9.13,-16.25 -9.24,-35.5 -10.24,-53.59 -0.85,-15.22 1.36,-30.28 2.5,-45.38 -7.57,24.11 -11.72,49.26 -12.65,74.49 1,30.86 14.34,59.41 27.79,86.59 -13.03,-5.98 -28.35,-9.24 -37.79,-20.86 -7.21,-8.01 -9.55,-18.83 -13.61,-28.49 -6.96,-19.93 -15.04,-40.72 -12.36,-62.23 2.86,-18.4 8.23,-36.61 16.49,-53.27 17.8,-17.03 32.19,-38.25 53.92,-50.72 17.25,-9.28 35.03,-18.4 54.53,-21.77 -3.5,14.28 -6.96,28.65 -7.99,43.35 2.14,-3.59 4.02,-7.34 5.85,-11.11l0.6 -0.63c15.95,-15.17 25.55,-36.3 44.04,-48.9 16.53,-11.13 33.69,-21.29 50.45,-32.09 5.39,-3.12 8.23,-8.85 10.24,-14.52 7.38,-20.35 15.52,-40.4 24.25,-60.19 4.95,-11.43 11.82,-22.16 14.25,-34.54l0.21 -0.74zm-199.28 446.06c14.41,8.59 28.51,17.71 42.92,26.32 3.88,2.7 8.93,4.76 10.69,9.53 4.15,10.82 -3.95,22.38 1.18,33 2.75,7.12 6.05,14.7 4.2,22.51 -2.46,11.2 -6.38,22.04 -10.71,32.66 -6.5,-2.81 -13.05,-5.4 -19.68,-7.83 6.65,-11.76 13.01,-24.07 14.9,-37.64 -7.56,-10.41 -1.51,-22.8 -0.4,-34.13 -13.32,-15.75 -29.31,-29.07 -43.1,-44.42zm133.75 -13.1c-2.34,10.09 -4.82,20.35 -10.38,29.23 -3.72,-2.01 -7.51,-3.93 -11.35,-5.69 -2.5,0.67 -5.02,1.32 -7.52,1.92 11.13,-6.76 22.58,-13.79 29.25,-25.46zm-118.2 2.17c6.74,-5.98 12.4,-13.28 14.81,-22.09 4.93,2.9 10.09,5.4 15.46,7.38 -6.62,7.48 -13.96,14.64 -23.51,18.19 -1.68,-0.87 -5.07,-2.61 -6.76,-3.48zm136.56 -42.97c2.3,0.93 4.66,1.8 7.05,2.58 2.92,3.53 6.02,6.9 9.19,10.22 -1.63,34.05 -1.81,68.14 -2.25,102.23 -5.6,15.3 -20.19,24.25 -28.4,37.88 -15.51,1.81 -31.01,3.59 -46.54,4.89 -7.36,-9.82 -13.99,-20.73 -18.12,-32.31 0.54,-11.6 4.4,-22.75 7.52,-33.84 1.07,-2.19 1.14,-5.56 3.75,-6.58 6.69,-2.9 13.65,-5.25 20.73,-7.1 5.98,1.01 10.55,5.98 15.64,9.08 -1.83,8.46 -5.34,17.94 -0.21,25.93 2.12,-8.55 3.69,-17.74 9.69,-24.59 4.53,-6.74 12.22,-12.18 12.38,-20.99 3.08,-22.49 6.25,-44.96 9.57,-67.4zm111.22 -55.04c5.2,-4.51 11.15,-8.08 16.51,-12.43 11.24,11.04 22.33,22.69 30.63,36.17 6.54,14.68 13.01,29.53 22.09,42.9 8.81,12.45 21.77,22.49 26.35,37.57 2.14,7.32 5.02,14.88 3.92,22.62 -1.49,5.42 -8.01,5.2 -12.42,6.32 -5.63,-4.58 -9.15,-11 -14.13,-16.11 -13.81,-4.13 -24.09,-14.75 -34.24,-24.39 -9.78,-9.84 -20.39,-18.72 -30.32,-28.35 12.8,4.84 25.3,10.61 38.59,14.05 -14.16,-20.7 -38.95,-30.12 -54.79,-49.24 2.23,-9.77 3.17,-20.1 7.81,-29.11zm-99.75 -234.4l0 0c-2.43,9.19 -11.92,12.56 -19.1,17.25 -17.85,11.2 -36.41,22.51 -49.22,39.69 -9.32,12.58 -19.05,25.03 -26.41,38.91 19.34,-17.38 37.26,-38.58 62.76,-46.88 14.72,-5.4 29.6,-11.13 42.54,-20.12 5.22,-3.46 7.86,-9.35 9.6,-15.15 6.24,-20.73 9.41,-42.26 15.99,-62.89 6.41,-18.99 13.88,-37.62 20.28,-56.6 -25.27,31.45 -41.31,68.73 -56.44,105.79z"/>
  </g>
 </g>
</svg>
