<?xml version="1.0" encoding="UTF-8"?>
<!DOCTYPE svg PUBLIC "-//W3C//DTD SVG 1.1//EN" "http://www.w3.org/Graphics/SVG/1.1/DTD/svg11.dtd">
<!-- Creator: CorelDRAW -->
<svg xmlns="http://www.w3.org/2000/svg" xml:space="preserve" width="2000px" height="1600px" version="1.1" style="shape-rendering:geometricPrecision; text-rendering:geometricPrecision; image-rendering:optimizeQuality; fill-rule:evenodd; clip-rule:evenodd"
viewBox="0 0 2000 1600"
 xmlns:xlink="http://www.w3.org/1999/xlink">
 <defs>
  <style type="text/css">
   <![CDATA[
    .fil2 {fill:#004070;fill-rule:nonzero}
    .fil0 {fill:#BBBBBD;fill-rule:nonzero}
    .fil3 {fill:#F5821F;fill-rule:nonzero}
    .fil1 {fill:#FEFEFE;fill-rule:nonzero}
   ]]>
  </style>
 </defs>
 <g id="Capa_x0020_1">
  <metadata id="CorelCorpID_0Corel-Layer"/>
  <g id="Cal_x0020_State_x0020_Fullerton_x0020_Titans.cdr">
   <path class="fil0" d="M971.77 0.57c172.71,-6.61 346.99,44.8 488.11,144.68 143.28,100.45 252.28,248.98 303.95,416.29 37.97,121.25 45.98,251.6 24.24,376.73 -30.76,180.6 -126.9,348.79 -265.86,467.93 -74.34,64.21 -160.6,114.55 -253.14,147.52 -202.41,72.73 -434.31,59.44 -626.37,-37.78 -186.68,-92.26 -333.94,-260.74 -400.22,-458.18 -38.69,-113.06 -50.92,-234.91 -36.74,-353.49 14.38,-122.74 58.14,-241.86 126.37,-344.86 86.93,-132.02 213.83,-237.25 359.81,-297.97 88.59,-36.98 183.9,-57.65 279.85,-60.87z"/>
   <path class="fil1" d="M940.96 63.57c107.23,-8.53 216.34,6.27 317.16,43.95 112.83,41.94 214.89,112.15 294.7,202.25 61.21,68.88 109.42,149.31 141.06,235.88 38.9,105.96 52.69,220.87 40.75,333.08 -11.21,107.42 -46.55,212.24 -102.74,304.47 -89.22,147.67 -231.71,262.32 -395.41,317.03 -116.57,39.5 -243.08,48.76 -364.25,27.64 -98.63,-17.11 -193.67,-54.66 -277.22,-109.76 -137.04,-89.37 -242.77,-225.65 -294.93,-380.74 -39.35,-115.76 -48.92,-241.36 -28.45,-361.89 21.87,-130.79 80.43,-255.04 166.73,-355.65 90.7,-106.22 211.98,-186.07 345.69,-226.59 51.02,-15.52 103.73,-25.51 156.91,-29.67z"/>
   <path class="fil2" d="M928.14 105.72c100.29,-10.06 202.87,0.94 298.2,33.91 121.98,41.37 231.51,117.95 313.19,217.44 63.29,76.89 109.81,167.52 135.24,263.81 30.74,116.18 30.89,240.32 0.47,356.58 -25.02,96.06 -71.17,186.45 -133.92,263.34 -58.58,72 -131.68,132.15 -213.62,175.73 -100.45,53.75 -214.34,81.62 -328.21,81.54 -113.61,-0.05 -227.19,-27.95 -327.38,-81.67 -156.21,-82.54 -278.55,-226.67 -334.09,-394.45 -33.89,-100.89 -43.9,-209.61 -29.83,-315.08 13.57,-103.05 50.81,-202.88 108.04,-289.68 68.08,-103.88 164.37,-189.15 275.95,-243.78 73.75,-36.48 154.12,-59.31 235.96,-67.69zm-191.39 280.68c30.58,49.57 62.33,98.48 92.31,148.38 0.55,75.85 -0.02,151.76 0.29,227.61 -24.29,23.04 -47.82,46.88 -72.39,69.61 23.63,22.86 47.48,45.53 71.56,67.97 0.26,77.8 0,155.63 0.13,233.43 -33.21,40.49 -66.39,80.98 -99.73,121.36 138.55,0.29 277.07,0.05 415.62,0.13 -36.41,-40.46 -72.81,-80.92 -109.19,-121.41 0,-74.19 -0.03,-148.37 0,-222.56 48.13,22.18 96.16,44.57 144.26,66.75 0.08,-96.16 0.03,-192.3 0.03,-288.46 -47.66,18.65 -95.33,37.24 -142.97,55.99 -0.1,-59.58 0,-119.15 -0.05,-178.72 45.51,0.23 91.07,-0.6 136.52,0.39 42.1,28.08 83.55,57.26 125.47,85.63 0.02,-88.7 0.02,-177.4 0.02,-266.12 -187.3,0 -374.58,0 -561.88,0.02z"/>
   <path class="fil3" d="M825.68 436.46c143.36,-0.05 286.69,-0.03 430.05,-0.03 0,43.04 0.02,86.08 0,129.11 -19.79,-14.12 -39.43,-28.42 -59.08,-42.7 -2.65,-2.52 -6.3,-2.68 -9.7,-2.6 -65.04,0.11 -130.1,0.06 -195.13,0.06 -0.05,91.66 -0.03,183.32 -0.03,274.98 17.29,-0.29 34.61,0.55 51.85,-0.36 31.49,-11.21 62.44,-24.03 93.77,-35.73 0,49.01 0.03,98.03 -0.03,147.05 -31.67,-14.69 -62.82,-30.56 -94.6,-44.91 -16.74,-0.99 -33.57,-0.08 -50.34,-0.36 0.16,96.68 -0.28,193.38 0.24,290.04 15.7,20.36 33.96,38.85 50.39,58.74 -71.14,0.62 -142.29,0.23 -213.43,0.18 15.91,-20.13 34.61,-38.22 50.1,-58.48 0.55,-89.35 0.11,-178.75 0.21,-268.1 0.76,-3.66 -2.99,-5.53 -4.97,-7.85 -15.21,-14.07 -30.47,-28.08 -45.42,-42.44 17,-16.33 33.75,-32.97 50.96,-49.09 0,-87.19 0.5,-174.4 -0.26,-261.57 -17.39,-29.1 -36.61,-57.15 -54.58,-85.94z"/>
  </g>
 </g>
</svg>
