<?xml version="1.0" encoding="UTF-8"?>
<!DOCTYPE svg PUBLIC "-//W3C//DTD SVG 1.1//EN" "http://www.w3.org/Graphics/SVG/1.1/DTD/svg11.dtd">
<!-- Creator: CorelDRAW -->
<svg xmlns="http://www.w3.org/2000/svg" xml:space="preserve" width="2000px" height="1600px" version="1.1" style="shape-rendering:geometricPrecision; text-rendering:geometricPrecision; image-rendering:optimizeQuality; fill-rule:evenodd; clip-rule:evenodd"
viewBox="0 0 2000 1600"
 xmlns:xlink="http://www.w3.org/1999/xlink">
 <defs>
  <style type="text/css">
   <![CDATA[
    .fil1 {fill:black;fill-rule:nonzero}
    .fil2 {fill:#C2C5C8;fill-rule:nonzero}
    .fil0 {fill:#E41837;fill-rule:nonzero}
   ]]>
  </style>
 </defs>
 <g id="Capa_x0020_1">
  <metadata id="CorelCorpID_0Corel-Layer"/>
  <g id="Cal_x0020_State_x0020_Northridge_x0020_Matadors.cdr">
   <path class="fil0" d="M752.73 994.77c5.27,-3.82 9.43,-10.05 15.77,-11.82 46.31,-0.18 92.64,0.02 138.97,-0.08 19.63,16.91 39.22,33.87 58.88,50.75 0.3,17.94 -0.94,35.96 1.4,53.81 2.07,16.82 6.13,33.46 12.66,49.14 -40.32,-0.07 -80.63,-0.02 -120.95,-0.03 -0.09,-16.37 0.13,-32.72 -0.07,-49.07 -0.22,-9.79 -7.65,-18.63 -17.12,-20.83 -12.96,-3.61 -27.29,7.28 -27.42,20.71 -0.19,27.24 0,54.5 -0.07,81.75 32.32,0 64.65,0 96.97,0 19.62,17.37 39.1,34.89 58.76,52.23 -0.09,59.49 0.26,119.01 -0.19,178.49 -19.07,17.52 -39.21,33.97 -58.69,51.1 -46.93,0 -93.86,0.09 -140.79,-0.03 -19.29,-17.1 -39.23,-33.49 -58.34,-50.75 -1.08,-9.02 -0.15,-18.18 -0.43,-27.24 0.65,-28.13 -3.28,-56.64 -14.15,-82.71 40.35,0.02 80.7,-0.02 121.05,0.02 0.02,18.65 -0.08,37.31 0.02,55.98 0,11.84 11.22,22.13 23.01,21.29 11.93,-0.16 21.82,-11.17 21.57,-22.93 0.18,-28.97 0,-57.95 0.06,-86.93 -32.31,-0.17 -64.67,0.34 -96.97,-0.23 -20.07,-16.64 -39.06,-34.68 -58.77,-51.79 -0.01,-57.37 0.03,-114.73 -0.01,-172.1 14.89,-12.97 29.89,-25.82 44.85,-38.73zm-356.74 38.85c19.63,-16.9 39.27,-33.79 58.82,-50.75 48.92,0.03 97.84,0 146.74,0.01 19.63,16.84 39.17,33.76 58.76,50.62 -0.03,44.36 -0.02,88.72 0,133.08 -41.34,0.07 -82.66,-0.06 -123.98,0.07 10.23,-24.55 14.15,-51.36 14.35,-77.83 0.24,-7.28 -3.44,-14.36 -9.34,-18.56 -7.96,-6.11 -19.99,-5.47 -27.44,1.19 -6.23,4.96 -8.31,13.19 -8.1,20.86 -0.01,80.72 0.05,161.42 -0.03,242.14 0,7.85 -0.62,16.47 4.11,23.26 5.88,9.29 19.09,12.55 28.73,7.35 7.7,-3.81 12.17,-12.32 12.22,-20.74 0.35,-29.33 -0.15,-58.66 -0.33,-87.97 38.13,0.04 76.26,0 114.39,0.02 0.01,47.83 -0.02,95.68 0.01,143.53 -19.77,16.99 -39.46,34.04 -59.22,51.06 -50.21,-0.02 -100.41,-0.02 -150.6,-0.02 -19.69,-17.02 -39.46,-33.95 -59.1,-51.02 0.03,-31.84 0,-63.67 0.01,-95.5 -0.11,-15.08 0.85,-30.33 -2.29,-45.19 -2.79,-15.2 -8.92,-29.68 -17.75,-42.34 13.41,-19.33 20.06,-42.83 20.06,-66.24 -0.03,-39.02 -0.02,-78.01 -0.02,-117.03zm1087.75 -50.75c40.07,0.05 80.14,-0.02 120.2,0.03 -0.03,54.81 0.02,109.61 -0.03,164.42 -0.55,24.46 5.68,49.56 20.14,69.53 -14.4,19.86 -20.69,44.85 -20.14,69.18 0.03,54.98 0.03,109.95 0,164.93 -17.44,-0.09 -34.87,0.06 -52.31,-0.05 -18.07,-0.27 -35.62,-8.55 -47.83,-21.8 -10.39,-10.85 -16.92,-24.7 -21.65,-38.8 -16.6,-45.52 -32.98,-91.15 -49.72,-136.63 -0.18,41.97 -0.03,83.94 -0.08,125.91 0.08,24.89 7.25,49.35 18.7,71.33 -39.91,0.05 -79.83,0 -119.75,0.04 0,-128.49 0,-256.95 0,-385.42 -0.35,-28.41 -5.01,-57.56 -18.94,-82.67 41.83,0.03 83.65,0 125.47,0.01 21.57,58.88 42.65,117.95 64.6,176.67 0.15,-30.81 0.01,-61.61 0.06,-92.43 0.76,-29.01 -5.04,-58.53 -18.72,-84.25zm-481.6 -0.02c41.94,0.1 83.87,-0.02 125.81,0.05 -0.03,121.08 0.02,242.17 -0.03,363.27 -0.6,11.46 9.77,22.17 21.34,21.31 11.26,0.12 20.68,-10.42 20.39,-21.46 0.09,-94.08 0,-188.17 0.04,-282.25 -0.4,-27.84 -5.28,-56.3 -18.83,-80.96 41.91,0.16 83.81,0.02 125.72,0.09 0.01,139.06 -0.04,278.11 0.03,417.17 -18.14,15.71 -36.41,31.3 -54.48,47.1 -2.27,1.82 -4.58,4.29 -7.8,3.77 -44.83,0 -89.65,0 -134.48,0 -19.52,-16.95 -39.06,-33.9 -58.77,-50.65 -0.09,-111.57 -0.02,-223.14 -0.04,-334.7 -0.38,-28.43 -4.99,-57.61 -18.9,-82.74zm-41.25 -765.88c11.99,8.92 25.45,15.75 39.85,19.82 -7.34,4 -15.14,6.95 -22.94,9.89 6.77,3.41 13.7,6.46 20.78,9.19 9.79,16.06 15.43,34.25 19.76,52.46 8.1,35.29 11.12,71.53 12.31,107.67 -36.68,-4.74 -75.36,-2.27 -109.18,13.68 6.63,-11.42 14.66,-21.95 22.93,-32.25 -7.6,-30.97 -13.89,-62.23 -20.26,-93.46 10.91,-10.98 19.21,-24.14 26.02,-37.95 -15.26,10.71 -35.25,15.4 -53.26,9.27 -15.48,-4.38 -25.97,-17.47 -40.06,-24.47 -7.8,-4.04 -17.21,-7.86 -25.89,-4.29 -5.78,2.24 -8.67,8.05 -12.03,12.81 -0.36,-5.28 -1.37,-10.87 0.76,-15.92 2.48,-5.88 7.59,-10.33 13.24,-13.07 9.23,-2.52 19.27,-2.69 28.17,1.1 12.68,4.66 20.63,16.68 33.01,21.9 24.78,11.79 55.18,5.29 75.95,-11.66 -4.85,-3.24 -9.7,-6.47 -14.53,-9.76 1.77,-4.99 3.58,-9.97 5.37,-14.96zm-26.24 -166.05c16.1,-11.24 37.06,-13.04 55.86,-9.05 23.44,5.26 45.45,18.62 59.26,38.5 -1.15,-6.87 -2.24,-13.73 -3.34,-20.61 11.99,2.67 24.85,7.16 31.97,17.89 5.31,7.44 5.36,16.96 4.44,25.7 -14.63,-3.32 -29.33,-6.3 -44.16,-8.57 -6.61,-0.82 -11.56,-5.76 -17.35,-8.57 -22.21,-11.5 -48.19,-15.3 -72.85,-11.67 -12.3,2.05 -25.14,5.53 -34.38,14.36 -5.02,5.3 -12.97,4.28 -19.5,6.01 1.37,3.41 2.95,6.72 4.34,10.11 -6.7,-1.52 -13.26,-3.54 -19.64,-6.08 1.15,-10.79 6.2,-21.33 15.23,-27.64 7.5,-5.8 16.69,-8.6 25.82,-10.57 5.78,-1.47 9.39,-6.78 14.3,-9.81zm92.27 203.03c4.46,-4.91 8.44,-10.26 11.96,-15.89l0.55 0.49c21.92,18.23 43.04,37.51 61.88,58.97 4.53,4.96 8.4,10.47 12.59,15.72 -1.15,8.38 -3.1,16.65 -5.47,24.76 -11.56,33.64 -10.79,69.73 -12.18,104.82 -3.02,-2.47 -5.88,-5.14 -8.93,-7.55 -5.65,-43.17 -15.35,-86.01 -31.3,-126.58 -7.67,-19.24 -17.11,-37.83 -29.1,-54.74zm-175.25 29.64c5.97,6.66 11.7,13.85 14.99,22.26 -0.86,3.45 -3.23,6.3 -5.11,9.24 -14.05,19.79 -30.95,37.38 -48.62,53.93 -7.54,-3.36 -15.39,-5.91 -23.37,-7.93 9.15,8.11 16.67,17.85 22.82,28.39 -11.91,-6.9 -24.82,-11.98 -38.3,-14.73 5.49,-6.18 11.91,-11.46 17.59,-17.47 21.98,-22.85 42,-47.58 60,-73.69zm-92.89 136c5.01,-14.63 9.22,-29.54 14.78,-43.97 4.73,4.59 9.56,9.33 12.46,15.35 -3.22,12.05 -8.68,23.46 -12.41,35.4 -9.2,26.74 -16.48,54.1 -25.6,80.87 -4.9,-1.65 -9.85,-3.14 -14.65,-5.04l-0.42 -1.04c8.02,-27.37 17.06,-54.45 25.84,-81.57zm455.73 11.58c41.69,-25.12 88.77,-45.25 138.26,-44.48 -7.5,42.76 -6.68,86.51 -2.06,129.54 3.95,39.11 14.35,77.32 16.91,116.61 2.15,29.26 -0.32,59.42 -11.36,86.84 -10.87,27.36 -30.08,50.98 -53.34,68.81 -27.03,20.15 -60.75,28.86 -93.83,31.99 -50.06,4.32 -100.45,-2.27 -149.06,-14.17 33.35,30.27 78.18,43.19 121.57,51.03 -43.66,5.39 -87.84,0.38 -130.79,-7.92 -24.81,-4.51 -48.97,-11.81 -73.61,-17.04 -70.95,-14.69 -146.17,-8.76 -213.61,17.91 -21.76,8.63 -42.91,19.09 -62.16,32.45 -24.12,-24.57 -44.59,-53.14 -57.44,-85.23 -18.8,-46.51 -22.53,-99.82 -7.2,-147.84 10.74,23.32 24.29,45.78 43.09,63.5 11.36,10.61 24.42,19.67 39.23,24.67 -20.22,-31.67 -32.1,-69.01 -32.16,-106.69 38.29,36.04 84.81,63.43 135.3,78.33 44.14,12.88 90.97,18.07 136.68,11.99 -40.12,-5.49 -79.36,-17.75 -115,-37.04 -26.86,-14.73 -52.53,-32.54 -73.17,-55.32 33.35,13.4 67.6,24.74 102.86,31.97 75.22,15.9 153.67,16.3 229.04,1.13 17.69,-3.64 35.23,-8.1 52.35,-13.88 -29.7,2.29 -59.39,5.63 -89.22,5.12 -44.63,0.65 -89.42,-3.34 -133.03,-13.03 -35.22,-8.17 -70.41,-19.31 -101.19,-38.67 82.32,16.57 169.75,8.64 247.33,-23.76 33.95,-14.2 65.79,-33.32 94.48,-56.35 -29.71,9.1 -60.03,16.53 -90.91,20.39 38.78,-42.61 82.98,-80.58 132.04,-110.86zm-234.18 0.03c32.18,-2.16 65.03,5.33 92.86,21.68 -20.66,0.08 -41.41,-0.09 -61.85,3.35 12.26,6.45 23.47,14.79 33.17,24.69 -1.84,13.44 -3.57,26.99 -7.25,40.1 -0.47,2.59 -3.07,3.71 -4.98,5.11 -32.18,20.16 -67.55,37.09 -105.72,41.35 5.02,-49.2 23.15,-97.27 53.77,-136.28z"/>
   <path class="fil1" d="M1249.44 1508.14c21.78,0.05 43.56,-0.1 65.35,0.05 7.5,-0.21 15.55,4.05 17.27,11.81 1.82,8.79 2.15,18.27 -0.5,26.94 -1.62,5.21 -6.97,7.27 -11.68,8.79 3.31,1.55 7.49,2.45 9.51,5.86 3.05,5.11 2.5,11.37 2.9,17.12 2.86,-0.02 5.7,-0.04 8.59,0 0,6.94 0,13.91 0,20.87 -8.19,-0.08 -16.37,0.15 -24.55,-0.05 -3.74,-0.18 -8.55,-0.58 -10.18,-4.56 -3.44,-9.05 -0.51,-19.24 -3.9,-28.22 -5.08,-2.56 -11.03,-1.05 -16.47,-1.42 -0.02,4.44 -0.02,8.9 -0.02,13.38 3.33,-0.04 6.68,-0.02 10.02,0 -0.03,7.08 0.22,14.19 -0.26,21.29l-45.93 0c-0.22,-7.11 -0.17,-14.21 -0.15,-21.29 3.19,-0.04 6.39,-0.02 9.6,0 0,-16.7 0,-33.41 0,-50.11 -3.21,-0.01 -6.41,-0.01 -9.6,0 0,-6.83 0,-13.64 0,-20.46zm115.57 8.47c2.47,-5.56 8.67,-8.35 14.5,-8.38 12.87,-0.24 25.75,-0.04 38.65,-0.09 5.96,0 13.22,0.91 16.43,6.73 3.76,7.14 2.91,15.54 3.64,23.34 -8.45,0 -16.9,-0.02 -25.35,0 -0.32,-3.03 -0.75,-6.03 -1.32,-9.01 -7.72,-0.86 -15.52,-0.88 -23.22,-0.01 -0.1,3.29 -0.5,6.69 0.47,9.94 11.67,2.93 23.88,2.82 35.71,5.02 6.58,0.72 12.29,5.71 13.46,12.29 2.14,11.36 2.45,23.77 -2.17,34.56 -3.07,7.45 -11.96,8.28 -18.87,9l-34.83 0c-6.43,-1.1 -14.91,-0.8 -18.32,-7.55 -3.64,-7.46 -2.82,-16.1 -3.4,-24.15 8.43,-0.06 16.88,-0.03 25.35,-0.03 0.35,3.37 0.78,6.78 1.3,10.17 6.51,0.32 13.06,0.37 19.59,0.27 1.79,-0.44 5.6,0.45 5.76,-2.29 0.4,-2.97 0.22,-5.96 0.2,-8.94 -12.81,-2.89 -26.07,-2.9 -38.89,-5.57 -7.14,-1.46 -11.03,-8.55 -11.51,-15.32 -0.74,-9.99 -1.47,-20.64 2.82,-29.98zm-548.56 -8.47c29.93,0 59.86,0 89.77,0 0,12.25 0,24.49 0.02,36.75 -6.98,0 -13.93,0 -20.9,0 0,-5.58 0,-11.14 0,-16.7 -3.49,-0.02 -6.96,-0.02 -10.43,0 0,16.83 0,33.67 0,50.52 3.47,-0.04 6.94,-0.02 10.43,-0.02 -0.05,7.1 0.25,14.21 -0.33,21.31l-47.58 0c-0.15,-7.11 -0.12,-14.21 -0.1,-21.29 3.47,-0.02 6.95,-0.04 10.44,0 0,-16.85 -0.02,-33.69 0,-50.52 -3.49,-0.02 -6.97,-0.02 -10.44,0 0,5.56 0,11.12 0,16.7 -6.97,0 -13.93,-0.02 -20.88,0 0,-12.26 0,-24.5 0,-36.75zm-257.2 0c16.87,0.12 33.75,-0.23 50.6,0.14 2.94,-0.3 5.03,2.13 5.18,4.92 3.17,14.6 5.53,29.37 8.7,43.98 3.29,-14.93 5.65,-30.06 8.94,-44.98 0.33,-2.6 2.79,-4.22 5.31,-3.97 16.62,-0.25 33.25,0 49.87,-0.09 0,6.82 0,13.63 0,20.46 -3.21,-0.01 -6.4,-0.01 -9.6,0 0,16.7 0,33.41 0,50.11 3.19,-0.04 6.39,-0.02 9.6,0 -0.03,7.08 0.22,14.19 -0.27,21.29l-43.49 0c-0.11,-7.11 -0.08,-14.19 -0.08,-21.29 2.35,-0.04 4.73,-0.04 7.1,-0.02 -0.14,-15.03 0.25,-30.06 -0.2,-45.08 -6.12,21.53 -9.67,43.75 -15.99,65.22 -8.23,0.85 -16.78,1.62 -24.95,-0.16 -3.31,-4.95 -3.51,-11.21 -5.08,-16.81 -3.96,-16.1 -7.01,-32.45 -11.6,-48.38 -0.52,15.06 -0.07,30.15 -0.22,45.23 2.5,-0.04 5.01,-0.02 7.52,0 0,7.08 0.06,14.18 -0.12,21.29l-41.19 0c-0.05,-7.11 -0.03,-14.21 -0.03,-21.29 3.19,-0.04 6.4,-0.02 9.6,0 0,-16.7 0,-33.41 0,-50.11 -3.2,-0.01 -6.41,-0.01 -9.6,0 0,-6.83 0,-13.64 0,-20.46zm784.7 -504.78c26.42,-0.04 52.84,-0.04 79.27,0 33.25,91.51 66.97,182.86 99.85,274.5 0.64,-71.9 0.07,-143.81 0.29,-215.71 0.01,-19.84 -2.37,-39.74 -7.93,-58.83 22.54,0.02 45.07,0 67.64,0.02 -0.02,41.3 -0.02,82.61 -0.02,123.91 0.13,14.58 -0.67,29.26 1.5,43.76 2.07,16 7.13,31.55 14.57,45.86 -12.85,23.6 -17.02,50.92 -16.07,77.53 0.03,45.19 -0.03,90.4 0.03,135.61 -11.02,0.04 -22.03,0.14 -33.05,0.05 -11.44,0.04 -22.36,-5.41 -30.26,-13.47 -7.87,-7.92 -12.86,-18.16 -16.52,-28.56 -30.48,-83.86 -61.18,-167.64 -91.57,-251.51 -0.56,76.56 -0.07,153.12 -0.26,229.69 -0.16,21.52 1.91,43.15 7.92,63.87 -22.53,-0.03 -45.08,0 -67.61,-0.02 0,-124.87 -0.01,-249.73 0,-374.61 -0.25,-17.62 -2.95,-35.16 -7.78,-52.09zm-310.2 -0.02c24.44,-0.02 48.87,-0.02 73.32,0 0.02,114.82 -0.08,229.63 0.04,344.45 0.11,22.5 21.14,41.94 43.57,40.42 20.93,-0.78 39.5,-19.31 39.45,-40.43 0.02,-80.69 0,-161.39 0.02,-242.07 -0.39,-34.21 2.52,-69.23 -7.87,-102.37 24.62,0 49.22,-0.02 73.84,0 -0.04,129.09 0.08,258.19 -0.07,387.28 -14.56,12.32 -28.89,24.93 -43.39,37.32 -2.2,2.29 -5.44,2.12 -8.35,2.19 -38.96,-0.12 -77.95,-0.03 -116.91,-0.05 -15.28,-13.24 -30.66,-26.37 -45.9,-39.65 0,-111.63 -0.01,-223.26 0,-334.91 -0.25,-17.64 -2.89,-35.21 -7.75,-52.18zm-264.65 4.48c2.69,-2.34 5.61,-5.08 9.51,-4.5 38.94,0.02 77.89,0.02 116.82,0 4.23,-0.61 7.22,2.69 10.17,5.1 13.18,11.61 26.58,22.96 39.87,34.44 -0.23,24.51 0.74,49.23 6.25,73.23 -23.79,-0.01 -47.59,0 -71.39,-0.01 -0.15,-10.21 0.37,-20.41 -0.28,-30.58 -0.93,-14.62 -9.89,-28.46 -22.93,-35.14 -11.59,-6.3 -26.17,-6.58 -38.06,-0.91 -14.45,6.67 -24.79,21.82 -24.76,37.85 0.04,34.22 0.02,68.44 0.02,102.66 36.59,0 73.19,0.05 109.76,-0.01 15.37,13.68 30.82,27.25 46.05,41.1 -0.13,53.16 -0.05,106.32 -0.05,159.48 -15.43,13.1 -30.63,26.47 -46.05,39.58 -41.87,-0.1 -83.72,-0.01 -125.57,-0.03 -13.55,-11.72 -27.06,-23.45 -40.72,-35.01 -2.59,-2.38 -6.15,-4.79 -5.25,-8.83 0.47,-25.3 0,-50.86 -5.94,-75.59 23.85,-0.02 47.7,-0.04 71.55,0.02 0.11,12.32 -0.3,24.68 0.15,37.02 0.88,19.19 16.16,36.41 35.05,39.79 17.22,3.55 35.98,-5.12 44.75,-20.26 4.12,-6.8 6.23,-14.72 6.08,-22.63 -0.07,-35.81 -0.02,-71.62 -0.04,-107.41 -35.25,-0.03 -70.5,0 -105.73,-0.02 -2.64,0.25 -5.07,-0.7 -6.87,-2.59 -14.38,-12.84 -28.78,-25.67 -43.16,-38.49 0.02,-49.09 0.07,-98.16 -0.03,-147.24 0.17,-2.74 -0.38,-6.15 2.36,-7.82 12.81,-11.07 25.75,-22.01 38.44,-33.2zm-352.27 35.12c15.27,-13.24 30.67,-26.34 45.92,-39.62 42.34,0.02 84.67,0 127.03,0.02 4.61,-0.57 7.63,3.41 10.9,5.95 12.7,11.39 26.09,22.03 38.6,33.6 1.07,4.66 0.45,9.54 0.59,14.3 -0.07,29.51 -0.02,59.02 -0.04,88.53 -24.86,0 -49.72,0 -74.57,0 4.36,-19.74 6.45,-40.05 5.96,-60.26 -1.05,-21.91 -21.26,-40.88 -43.29,-40.01 -22.38,-0.42 -42.42,19.47 -42.55,41.77 -0.05,86.31 -0.05,172.62 0,258.92 -0.14,23.65 22.26,44.09 45.78,42 20.86,-1.13 39.18,-19.29 40.06,-40.23 0.35,-23.55 0.02,-47.11 0.14,-70.66 24.18,-0.04 48.38,0.03 72.56,-0.05 0.22,37.81 0.02,75.62 0.1,113.43 -15.31,13.11 -30.51,26.36 -45.84,39.45 -43.44,0 -86.88,-0.05 -130.32,0.03 -2.91,0.09 -5.96,-0.15 -8.09,-2.4 -14.33,-12.33 -28.6,-24.7 -42.92,-37.03 0.02,-26 0,-51.99 0.02,-77.98 -0.12,-19.99 0.88,-40.21 -3.34,-59.87 -2.42,-12.7 -7.2,-24.77 -12.86,-36.34 8.28,-15.05 12.97,-31.87 14.98,-48.87 1.69,-14.52 1.14,-29.15 1.22,-43.73 -0.02,-26.99 0.03,-53.96 -0.04,-80.95zm502.87 -1010.2c16.82,-12.6 38.18,-19.05 59.16,-17.46 21.94,1.44 43,9.91 61.11,22.16 3.04,2.44 7.04,2.19 10.72,2.68 14.56,1.47 29.04,6.84 39.98,16.78 12.48,11.26 19.86,28.14 18.96,44.98 -0.18,10.69 -3.91,22.56 -13.05,28.86 -15.69,3.44 -31.76,5.14 -47.74,6.8 -6.1,22.61 -12.13,45.24 -18.21,67.87 42.91,16.97 84.49,38.03 121.79,65.35 5.06,2.99 2.85,9.87 3.52,14.75 1.29,29.78 -9.13,58.14 -17.75,86.13 -7.43,23.72 -12.18,48.29 -13.21,73.14 44.82,-41.02 99.69,-70.63 158.11,-87.03 39.15,-11.08 79.88,-16.29 120.55,-16.22 -19.52,70.4 -16.25,144.68 -7.13,216.43 4.66,40.04 15.93,79.48 13.86,120.09 -1,35.39 -9.08,70.73 -24.87,102.49 -23.73,48.12 -65.57,86.25 -114.49,107.78 -62.47,27.96 -133.67,30.86 -200.29,18.59 -30.55,-5.16 -59.75,-16 -90.16,-21.7 -45.06,-9.23 -92.04,-11.37 -137.27,-1.99 -61.26,12.61 -119.1,45.37 -158.71,94.13 -39.74,-45.82 -71.92,-99.45 -86.47,-158.76 -17.68,-70.92 -8.73,-149.18 28.48,-212.51 13.28,-3.42 26.55,-6.85 39.76,-10.55 1.76,-33.16 12.86,-64.81 23.32,-96.01 16.2,-48.05 30.5,-96.71 43.74,-145.63 0.62,-2.88 2.42,-5.21 4.31,-7.39 12.08,-14.11 23.95,-28.4 35.12,-43.25 6.25,-8.57 12.51,-17.27 16.6,-27.12 -4.5,-15.72 -5.72,-33.71 2.83,-48.32 8.8,-15.25 25.77,-23.17 41.97,-28.06 28.22,-8.35 57.95,-8.37 87.13,-8.13 -5.29,-20.06 -12.21,-39.64 -18.57,-59.36 -12.29,-2.72 -25,-4.69 -36.61,-9.74 -7.05,-7.1 -10.16,-17.47 -9.74,-27.32 -0.02,-12.78 6.25,-24.87 15.17,-33.74 9.65,-9.82 22.23,-16.28 35.25,-20.39 5.1,-1.34 8.69,-5.36 12.83,-8.33zm14.95 18.18l0 0c-4.91,3.03 -8.52,8.34 -14.3,9.81 -9.13,1.97 -18.32,4.77 -25.82,10.57 -9.03,6.31 -14.08,16.85 -15.23,27.64 6.38,2.54 12.94,4.56 19.64,6.08 -1.39,-3.39 -2.97,-6.7 -4.34,-10.11 6.53,-1.73 14.48,-0.71 19.5,-6.01 9.24,-8.83 22.08,-12.31 34.38,-14.36 24.66,-3.63 50.64,0.17 72.85,11.67 5.79,2.81 10.74,7.75 17.35,8.57 14.83,2.27 29.53,5.25 44.16,8.57 0.92,-8.74 0.87,-18.26 -4.44,-25.7 -7.12,-10.73 -19.98,-15.22 -31.97,-17.89 1.1,6.88 2.19,13.74 3.34,20.61 -13.81,-19.88 -35.82,-33.24 -59.26,-38.5 -18.8,-3.99 -39.76,-2.19 -55.86,9.05zm25.37 55.1l0 0c-2.56,7.05 -4.18,14.38 -6.42,21.53 -2.95,-3.96 -5.52,-8.23 -8.82,-11.94 -8.98,-2.77 -18.97,5.14 -18.03,14.56 1.12,7.87 3.92,15.38 5.76,23.12 2.79,9.67 4.11,20.91 12.33,27.79 4.61,4.29 11.3,5.07 17.3,4.19 5.51,-1.05 7.06,-9.3 2.7,-12.54 -4.1,-2.31 -9.65,-1.46 -12.66,-5.68 3.71,-3.24 8.82,-3.11 13.13,-5.01 0.59,-2.29 0.2,-6.23 -3.09,-5.76 -4.44,-0.3 -8.92,0.08 -13.36,-0.27 -2.72,-6.23 5.85,-7.3 10.02,-7.92 -2.44,-2.69 -4.69,-5.53 -6.76,-8.48 5.39,-0.19 10.8,-0.17 16.21,-0.15 1.17,-10.29 3.34,-20.5 3.95,-30.87 0.41,-6.28 -10.04,-8.35 -12.26,-2.57zm29.76 11.99l0 0c-5.35,0.59 -11.46,6.55 -7.08,11.69 7.11,6.25 21.94,6.6 26.27,-2.9 -0.2,-8.99 -12.41,-10.39 -19.19,-8.79zm-43.22 86.9l0 0c-1.61,5.71 -3.23,11.42 -4.78,17.17 -24.92,-2.02 -50.04,-3.26 -74.94,-0.6 -11.61,1.38 -23.42,3.46 -33.92,8.87 -5.65,2.74 -10.76,7.19 -13.24,13.07 -2.13,5.05 -1.12,10.64 -0.76,15.92 3.36,-4.76 6.25,-10.57 12.03,-12.81 8.68,-3.57 18.09,0.25 25.89,4.29 14.09,7 24.58,20.09 40.06,24.47 18.01,6.13 38,1.44 53.26,-9.27 -6.81,13.81 -15.11,26.97 -26.02,37.95 6.37,31.23 12.66,62.49 20.26,93.46 -8.27,10.3 -16.3,20.83 -22.93,32.25 33.82,-15.95 72.5,-18.42 109.18,-13.68 -1.19,-36.14 -4.21,-72.38 -12.31,-107.67 -4.33,-18.21 -9.97,-36.4 -19.76,-52.46 -7.08,-2.73 -14.01,-5.78 -20.78,-9.19 7.8,-2.94 15.6,-5.89 22.94,-9.89 -14.4,-4.07 -27.86,-10.9 -39.85,-19.82 -4.88,-3.91 -9.69,-7.88 -14.33,-12.06zm80.36 49.04l0 0c11.99,16.91 21.43,35.5 29.1,54.74 15.95,40.57 25.65,83.41 31.3,126.58 3.05,2.41 5.91,5.08 8.93,7.55 1.39,-35.09 0.62,-71.18 12.18,-104.82 2.37,-8.11 4.32,-16.38 5.47,-24.76 -4.19,-5.25 -8.06,-10.76 -12.59,-15.72 8.59,0.1 17.19,0.37 25.77,0.55 0.94,-4.49 2.87,-10.57 -2,-13.56 -25.07,-20.88 -54.87,-35.59 -85.65,-45.96l-0.55 -0.49c-3.52,5.63 -7.5,10.98 -11.96,15.89zm-204.17 29.12l0 0c-16.8,22.97 -33.72,46.12 -54.18,66.02 -3.13,3.48 -8.04,5.72 -9.64,10.34 -12.93,46.88 -25.17,93.98 -39.36,140.51 4.29,0.64 8.6,1.14 12.89,1.74l0.48 -0.52 0.42 1.04c4.8,1.9 9.75,3.39 14.65,5.04 9.12,-26.77 16.4,-54.13 25.6,-80.87 3.73,-11.94 9.19,-23.35 12.41,-35.4 -2.9,-6.02 -7.73,-10.76 -12.46,-15.35 0.14,-0.22 0.39,-0.66 0.52,-0.87 13.48,2.75 26.39,7.83 38.3,14.73 -6.15,-10.54 -13.67,-20.28 -22.82,-28.39 7.98,2.02 15.83,4.57 23.37,7.93 17.67,-16.55 34.57,-34.14 48.62,-53.93 1.88,-2.94 4.25,-5.79 5.11,-9.24 -3.29,-8.41 -9.02,-15.6 -14.99,-22.26 -7.8,-7.38 -21.37,-9.24 -28.92,-0.52zm-6.57 131.83l0 0c-5.22,2.32 -6.49,8.4 -8.93,13.03 -14.95,33.22 -25.55,68.19 -34.84,103.36 2.27,8.95 11.66,13.21 14.03,22.11 15.68,-7.18 31.18,-14.84 45.76,-24.11 9.24,8.83 19.69,16.31 30.97,22.31 5.59,-34.27 17.48,-67.59 35.55,-97.29 -12.16,-22.39 -11.1,-49.13 -22.06,-72.05 -20.21,10.79 -40.37,21.67 -60.48,32.64zm398.33 16.27l0 0c-49.06,30.28 -93.26,68.25 -132.04,110.86 30.88,-3.86 61.2,-11.29 90.91,-20.39 -28.69,23.03 -60.53,42.15 -94.48,56.35 -77.58,32.4 -165.01,40.33 -247.33,23.76 30.78,19.36 65.97,30.5 101.19,38.67 43.61,9.69 88.4,13.68 133.03,13.03 29.83,0.51 59.52,-2.83 89.22,-5.12 -17.12,5.78 -34.66,10.24 -52.35,13.88 -75.37,15.17 -153.82,14.77 -229.04,-1.13 -35.26,-7.23 -69.51,-18.57 -102.86,-31.97 20.64,22.78 46.31,40.59 73.17,55.32 35.64,19.29 74.88,31.55 115,37.04 -45.71,6.08 -92.54,0.89 -136.68,-11.99 -50.49,-14.9 -97.01,-42.29 -135.3,-78.33 0.06,37.68 11.94,75.02 32.16,106.69 -14.81,-5 -27.87,-14.06 -39.23,-24.67 -18.8,-17.72 -32.35,-40.18 -43.09,-63.5 -15.33,48.02 -11.6,101.33 7.2,147.84 12.85,32.09 33.32,60.66 57.44,85.23 19.25,-13.36 40.4,-23.82 62.16,-32.45 67.44,-26.67 142.66,-32.6 213.61,-17.91 24.64,5.23 48.8,12.53 73.61,17.04 42.95,8.3 87.13,13.31 130.79,7.92 -43.39,-7.84 -88.22,-20.76 -121.57,-51.03 48.61,11.9 99,18.49 149.06,14.17 33.08,-3.13 66.8,-11.84 93.83,-31.99 23.26,-17.83 42.47,-41.45 53.34,-68.81 11.04,-27.42 13.51,-57.58 11.36,-86.84 -2.56,-39.29 -12.96,-77.5 -16.91,-116.61 -4.62,-43.03 -5.44,-86.78 2.06,-129.54 -49.49,-0.77 -96.57,19.36 -138.26,44.48zm-234.18 0.03l0 0c-14,1.13 -27.81,3.99 -41.21,8.18 -26.99,36.85 -41.98,82.39 -41.68,128.1 9.68,1.04 19.44,0.92 29.12,0 38.17,-4.26 73.54,-21.19 105.72,-41.35 1.91,-1.4 4.51,-2.52 4.98,-5.11 3.68,-13.11 5.41,-26.66 7.25,-40.1 -9.7,-9.9 -20.91,-18.24 -33.17,-24.69 20.44,-3.44 41.19,-3.27 61.85,-3.35 -27.83,-16.35 -60.68,-23.84 -92.86,-21.68zm-284.86 128.68l0 0c-3.49,9.59 -7.2,19.43 -7.59,29.73 4.31,4.75 9.71,8.39 14.92,12.09 2.8,2.54 6.54,0.45 9.62,-0.33 4.12,2.69 8.92,3.99 13.56,1.8 4.29,2.16 8.72,1.09 12.12,-2.13 3.18,0.61 7.09,2.8 9.81,-0.09 5.91,-5.73 11.24,-12.09 16.37,-18.5 -0.32,-0.62 -0.99,-1.86 -1.32,-2.47 -6.72,-3.61 -13.38,2.35 -19.24,5.16 -3.48,-6.23 -9.41,-13.75 -5.92,-21.1 2.63,-4.97 8.04,-1.88 11.8,-0.33 4.57,-1.79 9.15,-3.61 13.74,-5.36 -4.79,-3.99 -8.05,-9.27 -10.72,-14.8 -3.88,-7.48 -13.51,-8.03 -20.93,-7.88 -15.52,-0.32 -30.78,9.57 -36.22,24.21zm39.69 956.46c1.26,-3.84 3.7,-8.3 8.29,-8.4 8.27,-0.4 16.62,-0.51 24.88,0.09 4.63,0.6 6.5,5.49 7.89,9.33 6.88,20.45 13.86,40.87 20.69,61.35 2.61,-0.04 5.23,-0.04 7.85,-0.02 -0.03,7.1 0.22,14.21 -0.27,21.31l-44.79 0c-0.05,-6.96 -0.03,-13.93 -0.03,-20.89 2.72,-0.02 5.46,0 8.2,0.03 -0.7,-2.52 -1.39,-5.04 -2.07,-7.53 -7.55,-0.02 -15.1,-0.02 -22.65,0 -0.67,2.49 -1.34,4.98 -1.99,7.51 2.69,-0.01 5.38,-0.01 8.07,0 0,6.95 0.05,13.92 -0.12,20.88l-42.86 0c-0.05,-7.11 -0.03,-14.21 -0.03,-21.31 2.57,-0.02 5.16,0 7.73,0.03 7.14,-20.77 14.07,-41.62 21.21,-62.38zm19.28 14.53l0 0c-2.29,7.12 -4.19,14.33 -6.26,21.52 4.15,0 8.33,0 12.5,0 -2,-7.2 -3.75,-14.47 -6.24,-21.52zm191.97 -16.95c2.63,-8.23 12.59,-5.93 19.2,-6.24 6.48,0.46 16.35,-2.14 19.26,5.74 7.9,21.58 14.88,43.53 22.31,65.27 2.52,-0.02 5.06,0 7.6,0.02 0,7.08 0.05,14.19 -0.12,21.29l-44.52 0c-0.05,-6.96 -0.03,-13.93 -0.03,-20.88 2.68,-0.03 5.37,-0.01 8.08,-0.01 -0.75,-2.51 -1.47,-5.01 -2.19,-7.5 -7.53,0 -15.05,0 -22.56,0 -0.69,2.49 -1.37,4.98 -2.04,7.5 2.74,-0.04 5.51,0 8.27,0.01 0,6.95 0.05,13.92 -0.12,20.88l-42.86 0c-0.05,-7.1 -0.03,-14.19 -0.03,-21.29 2.52,-0.04 5.04,-0.02 7.58,-0.02 7.53,-21.54 14.37,-43.34 22.17,-64.77zm18.33 16.79l0 0c-2.38,7.15 -4.19,14.48 -6.33,21.69 4.18,-0.01 8.37,-0.01 12.56,0 -2.1,-7.23 -3.79,-14.58 -6.23,-21.69zm68.83 -22.57c19.09,0.04 38.2,-0.06 57.29,0.04 9.02,-0.02 19.09,2.57 24.11,10.77 7.47,12.23 6.13,27.27 6.3,41.02 -0.38,11.26 -1.07,24.15 -9.62,32.57 -6.9,6.84 -17.24,6.33 -26.15,7.46l-51.9 0c-0.05,-7.11 -0.03,-14.21 -0.03,-21.29 3.19,-0.04 6.4,-0.02 9.6,0 0,-16.7 0,-33.41 0,-50.11 -3.2,-0.01 -6.41,-0.01 -9.6,0 0,-6.83 0,-13.64 0,-20.46zm36.74 20.46l0 0c0,16.69 0,33.39 0,50.09 5.67,-0.08 11.34,0.28 16.99,-0.18 2.12,-0.14 4.39,-1.22 4.66,-3.54 1.64,-9.94 0.6,-20.06 0.92,-30.07 -0.37,-4.82 0.53,-10.37 -2.06,-14.61 -6.36,-2.76 -13.73,-1.34 -20.51,-1.69zm76.65 -3.02c1.38,-7.45 5.99,-15.52 14.14,-16.75 10.99,-1.49 22.15,-0.32 33.22,-0.7 7.33,0.2 15.3,-0.99 22,2.72 6.76,4.46 8.7,13.03 9.73,20.56 1.71,14.53 1.66,29.26 0.12,43.81 -1,7.15 -2.44,15.11 -8.17,20.12 -4.57,4.21 -11.32,3.68 -17.03,4.66l-31.22 0c-5.71,-1.02 -12.49,-0.8 -16.68,-5.48 -5.33,-5.54 -6.53,-13.56 -7.45,-20.87 -1.35,-15.99 -1.7,-32.27 1.34,-48.07zm27.69 4.44l0 0c-2.06,7.57 -0.85,15.48 -1.46,23.22 0.56,7.81 -0.46,15.78 1.14,23.5 5.96,3.09 13.48,1.13 20.03,1.35 3.94,0.63 3.69,-3.64 4,-6.28 0.39,-13.83 1.52,-27.99 -1.02,-41.64 -7.38,-1.33 -15.24,-1.05 -22.69,-0.15zm111.11 -1.42l0 0c0,5.85 0,11.68 0,17.52 4.03,-0.01 8.05,0.12 12.1,-0.01 2.28,-0.3 6.19,0.21 6.51,-2.99 0.75,-4.51 1.4,-9.76 -1.05,-13.8 -5.65,-1.57 -11.75,-0.38 -17.56,-0.72z"/>
   <path class="fil2" d="M962.99 0l18.42 0c17.71,1.67 35.07,6.83 50.82,15.1 7.07,3.67 13.65,8.87 21.78,9.92 9.81,1.59 19.63,3.67 28.58,8.12 21.31,9.9 37.21,30.51 41.34,53.64 2.72,15.37 0.91,32.17 -7.79,45.43 -4.21,6.24 -9.77,12.54 -17.52,14.03 -12.47,2.45 -25.17,3.74 -37.74,5.56 -3.94,14.86 -8.14,29.64 -11.79,44.58 39.86,16.75 78.41,37.12 113.4,62.64 3.37,2.58 7.33,5.46 7.68,10.09 1.81,12.64 1.49,25.54 0.17,38.23 -3.66,34.74 -19.42,66.62 -25.5,100.84 46.13,-33.67 98.97,-58.08 154.72,-70.58 40.77,-9.57 82.8,-12.2 124.56,-11.5 -7.57,24.43 -13.78,49.35 -16.37,74.84 -7.68,70.48 0.38,141.59 12.79,211.05 10.83,59.24 5.38,122.61 -22.08,176.77 -23.38,46.55 -62.56,84.58 -109.06,107.82 -53.61,27.33 -115.25,35.86 -174.83,31.44 -32.88,-2.39 -65.38,-8.89 -97.02,-18.11 -34.87,-9.78 -70.79,-16.63 -107.09,-17.5 -34.99,-0.58 -70.19,4.71 -103.06,16.82 -48.59,17.85 -92.04,50.15 -121.97,92.51 -17.92,-17.99 -33.69,-38.06 -47.89,-59.09 -38.14,-56.8 -63.86,-123.71 -64.16,-192.75 -0.74,-55.37 15.9,-110.17 44.06,-157.58 11.14,-2.74 22.24,-5.58 33.35,-8.47 9.1,-43.82 23.73,-86.2 36.46,-129.04 10.3,-34.3 20.89,-68.52 30.55,-103.01 2.13,-8.02 8.01,-14.13 13.09,-20.41 12.69,-15.76 24.97,-31.85 36.89,-48.22 3.11,-4.04 5.92,-8.9 4.41,-14.19 -2.89,-15.47 -2.1,-32.09 5.38,-46.22 8.27,-16.45 24.27,-27.44 41.05,-33.95 26.07,-10.05 54.32,-12.17 82.01,-12.71 -2.83,-10.22 -6.22,-20.27 -9.42,-30.38 -9.56,-2.54 -19.29,-4.43 -28.58,-7.82 -6.65,-2.2 -11.02,-8.08 -14.38,-13.91 -9.64,-16.6 -9.39,-37.98 -0.8,-54.95 7.3,-14.83 20.11,-26.35 34.52,-34.1 9.07,-4.98 19.56,-7.23 27.78,-13.78 15.28,-11.92 34.02,-19.06 53.24,-21.16zm-267.52 559.88c5.44,-14.64 20.7,-24.53 36.22,-24.21 7.42,-0.15 17.05,0.4 20.93,7.88 2.67,5.53 5.93,10.81 10.72,14.8 -4.59,1.75 -9.17,3.57 -13.74,5.36 -3.76,-1.55 -9.17,-4.64 -11.8,0.33 -3.49,7.35 2.44,14.87 5.92,21.1 5.86,-2.81 12.52,-8.77 19.24,-5.16 0.33,0.61 1,1.85 1.32,2.47 -5.13,6.41 -10.46,12.77 -16.37,18.5 -2.72,2.89 -6.63,0.7 -9.81,0.09 -3.4,3.22 -7.83,4.29 -12.12,2.13 -4.64,2.19 -9.44,0.89 -13.56,-1.8 -3.08,0.78 -6.82,2.87 -9.62,0.33 -5.21,-3.7 -10.61,-7.34 -14.92,-12.09 0.39,-10.3 4.1,-20.14 7.59,-29.73zm243.65 -120.5c13.4,-4.19 27.21,-7.05 41.21,-8.18 -30.62,39.01 -48.75,87.08 -53.77,136.28 -9.68,0.92 -19.44,1.04 -29.12,0 -0.3,-45.71 14.69,-91.25 41.68,-128.1zm25.59 -68.94c8.22,-1.45 17.52,-2.89 25.22,1.15 4.09,1.74 1.5,7.78 -2.36,7.37 -7.14,-0.09 -14.43,-0.85 -21.36,1.32 -3.95,0.75 -8.78,3.77 -12.15,0.11 -2.98,-1.45 -0.12,-4.84 1.5,-6.09 2.62,-2.09 5.93,-3.08 9.15,-3.86zm-0.47 -24.17c8.19,-0.93 17.51,-2.05 24.77,2.66 2.59,2.1 -0.1,5.36 -1.17,7.55 -12.06,-2.91 -24.88,-1.39 -36.07,3.89 -1.74,-1.69 -4.86,-2.91 -4.3,-5.88 3.41,-5.81 10.73,-7 16.77,-8.22zm-20.81 -19.47c9.69,-6.72 22.38,-7.08 33.76,-6.23 4.87,0.08 8.97,2.89 11.7,6.78 -0.91,0.87 -2.73,2.62 -3.65,3.49 -13.48,-2.07 -27.93,-1.8 -40.05,5.16 -3.49,-1.79 -5.73,-6.53 -1.76,-9.2zm13.05 -33.27c8.56,-0.97 18,-2.19 26.03,1.7 3.5,1.34 4.18,6.18 1.19,8.44 -15.38,-2.73 -32.18,-1.87 -45.63,6.83 -2.15,-1.96 -5.13,-4.88 -2.55,-7.8 4.91,-6.35 13.56,-7.65 20.96,-9.17zm-133.73 -10.46c7.55,-8.72 21.12,-6.86 28.92,0.52 -18,26.11 -38.02,50.84 -60,73.69 -5.68,6.01 -12.1,11.29 -17.59,17.47 -0.13,0.21 -0.38,0.65 -0.52,0.87 -5.56,14.43 -9.77,29.34 -14.78,43.97 -8.78,27.12 -17.82,54.2 -25.84,81.57l-0.48 0.52c-4.29,-0.6 -8.6,-1.1 -12.89,-1.74 14.19,-46.53 26.43,-93.63 39.36,-140.51 1.6,-4.62 6.51,-6.86 9.64,-10.34 20.46,-19.9 37.38,-43.05 54.18,-66.02zm216.68 -44.52c30.78,10.37 60.58,25.08 85.65,45.96 4.87,2.99 2.94,9.07 2,13.56 -8.58,-0.18 -17.18,-0.45 -25.77,-0.55 -18.84,-21.46 -39.96,-40.74 -61.88,-58.97zm-92.87 -33.64c4.64,4.18 9.45,8.15 14.33,12.06 -1.79,4.99 -3.6,9.97 -5.37,14.96 4.83,3.29 9.68,6.52 14.53,9.76 -20.77,16.95 -51.17,23.45 -75.95,11.66 -12.38,-5.22 -20.33,-17.24 -33.01,-21.9 -8.9,-3.79 -18.94,-3.62 -28.17,-1.1 10.5,-5.41 22.31,-7.49 33.92,-8.87 24.9,-2.66 50.02,-1.42 74.94,0.6 1.55,-5.75 3.17,-11.46 4.78,-17.17zm43.22 -86.9c6.78,-1.6 18.99,-0.2 19.19,8.79 -4.33,9.5 -19.16,9.15 -26.27,2.9 -4.38,-5.14 1.73,-11.1 7.08,-11.69zm-29.76 -11.99c2.22,-5.78 12.67,-3.71 12.26,2.57 -0.61,10.37 -2.78,20.58 -3.95,30.87 -5.41,-0.02 -10.82,-0.04 -16.21,0.15 2.07,2.95 4.32,5.79 6.76,8.48 -4.17,0.62 -12.74,1.69 -10.02,7.92 4.44,0.35 8.92,-0.03 13.36,0.27 3.29,-0.47 3.68,3.47 3.09,5.76 -4.31,1.9 -9.42,1.77 -13.13,5.01 3.01,4.22 8.56,3.37 12.66,5.68 4.36,3.24 2.81,11.49 -2.7,12.54 -6,0.88 -12.69,0.1 -17.3,-4.19 -8.22,-6.88 -9.54,-18.12 -12.33,-27.79 -1.84,-7.74 -4.64,-15.25 -5.76,-23.12 -0.94,-9.42 9.05,-17.33 18.03,-14.56 3.3,3.71 5.87,7.98 8.82,11.94 2.24,-7.15 3.86,-14.48 6.42,-21.53zm-130.49 318.98c12.99,-6.84 25.78,-14.06 38.83,-20.82 4.19,16.56 6.48,33.68 12.88,49.63 -12.95,22.7 -22.37,47.32 -28.63,72.67 -6.6,-5.08 -12.53,-10.92 -18.62,-16.57 -13.23,9.02 -27.28,16.69 -41.47,24 -2.24,-2.08 -4.33,-4.72 -2.87,-7.91 8.7,-31.8 18.63,-63.42 32.3,-93.5 1.3,-3.52 4.29,-5.89 7.58,-7.5l0 0zm-13.35 -10.1c-5.22,2.32 -6.49,8.4 -8.93,13.03 -14.95,33.22 -25.55,68.19 -34.84,103.36 2.27,8.95 11.66,13.21 14.03,22.11 15.68,-7.18 31.18,-14.84 45.76,-24.11 9.24,8.83 19.69,16.31 30.97,22.31 5.59,-34.27 17.48,-67.59 35.55,-97.29 -12.16,-22.39 -11.1,-49.13 -22.06,-72.05 -20.21,10.79 -40.37,21.67 -60.48,32.64zm103.52 -382.16l0 0c-4.14,2.97 -7.73,6.99 -12.83,8.33 -13.02,4.11 -25.6,10.57 -35.25,20.39 -8.92,8.87 -15.19,20.96 -15.17,33.74 -0.42,9.85 2.69,20.22 9.74,27.32 11.61,5.05 24.32,7.02 36.61,9.74 6.36,19.72 13.28,39.3 18.57,59.36 -29.18,-0.24 -58.91,-0.22 -87.13,8.13 -16.2,4.89 -33.17,12.81 -41.97,28.06 -8.55,14.61 -7.33,32.6 -2.83,48.32 -4.09,9.85 -10.35,18.55 -16.6,27.12 -11.17,14.85 -23.04,29.14 -35.12,43.25 -1.89,2.18 -3.69,4.51 -4.31,7.39 -13.24,48.92 -27.54,97.58 -43.74,145.63 -10.46,31.2 -21.56,62.85 -23.32,96.01 -13.21,3.7 -26.48,7.13 -39.76,10.55 -37.21,63.33 -46.16,141.59 -28.48,212.51 14.55,59.31 46.73,112.94 86.47,158.76 39.61,-48.76 97.45,-81.52 158.71,-94.13 45.23,-9.38 92.21,-7.24 137.27,1.99 30.41,5.7 59.61,16.54 90.16,21.7 66.62,12.27 137.82,9.37 200.29,-18.59 48.92,-21.53 90.76,-59.66 114.49,-107.78 15.79,-31.76 23.87,-67.1 24.87,-102.49 2.07,-40.61 -9.2,-80.05 -13.86,-120.09 -9.12,-71.75 -12.39,-146.03 7.13,-216.43 -40.67,-0.07 -81.4,5.14 -120.55,16.22 -58.42,16.4 -113.29,46.01 -158.11,87.03 1.03,-24.85 5.78,-49.42 13.21,-73.14 8.62,-27.99 19.04,-56.35 17.75,-86.13 -0.67,-4.88 1.54,-11.76 -3.52,-14.75 -37.3,-27.32 -78.88,-48.38 -121.79,-65.35 6.08,-22.63 12.11,-45.26 18.21,-67.87 15.98,-1.66 32.05,-3.36 47.74,-6.8 9.14,-6.3 12.87,-18.17 13.05,-28.86 0.9,-16.84 -6.48,-33.72 -18.96,-44.98 -10.94,-9.94 -25.42,-15.31 -39.98,-16.78 -3.68,-0.49 -7.68,-0.24 -10.72,-2.68 -18.11,-12.25 -39.17,-20.72 -61.11,-22.16 -20.98,-1.59 -42.34,4.86 -59.16,17.46z"/>
  </g>
 </g>
</svg>
