<?xml version="1.0" encoding="UTF-8"?>
<!DOCTYPE svg PUBLIC "-//W3C//DTD SVG 1.1//EN" "http://www.w3.org/Graphics/SVG/1.1/DTD/svg11.dtd">
<!-- Creator: CorelDRAW -->
<svg xmlns="http://www.w3.org/2000/svg" xml:space="preserve" width="2000px" height="1600px" version="1.1" style="shape-rendering:geometricPrecision; text-rendering:geometricPrecision; image-rendering:optimizeQuality; fill-rule:evenodd; clip-rule:evenodd"
viewBox="0 0 2000 1600"
 xmlns:xlink="http://www.w3.org/1999/xlink">
 <defs>
  <style type="text/css">
   <![CDATA[
    .fil0 {fill:#292F74;fill-rule:nonzero}
    .fil1 {fill:#F8B116;fill-rule:nonzero}
   ]]>
  </style>
 </defs>
 <g id="Capa_x0020_1">
  <metadata id="CorelCorpID_0Corel-Layer"/>
  <g id="California_x0020_Golden_x0020_Bears.cdr">
   <path class="fil0" d="M555.58 200.79c115.61,-83.18 248.71,-146.2 390.92,-164.85 27.38,-1.62 55.96,-2.24 81.88,8.13 22.3,8.65 41.89,26.93 47.85,50.61 13.18,40.56 8.52,85.09 -7.4,124.16 -17.06,42.23 -43.87,79.88 -73.8,113.87 -24.28,23 -48.87,46.97 -79.43,61.43 -22.61,10.97 -50.02,12.27 -72.99,1.72 -10.84,-4.59 -19.31,-14.41 -22.2,-25.79 -5.52,-22.59 3.23,-48.77 23.19,-61.51 38.86,-27.61 92.61,-17.04 130.64,-46.37 14.33,-12.5 28.14,-26.44 36.55,-43.74 11.31,-23.03 14.3,-49.47 11.49,-74.77 -2.68,-16.69 -14.9,-30.32 -29.1,-38.68 -9.14,-5.91 -20.55,-3.88 -30.84,-4.38 -60.21,-0.28 -117.36,25.38 -165.66,59.71 -45.38,32.07 -85.58,70.7 -125.07,109.6 -119.31,128.09 -223.31,274 -284.01,439.3 -14.56,39.59 -26.44,80.15 -35.58,121.34 -4.41,21.88 -9.77,43.74 -10.66,66.14 -2.5,48.87 -3.36,98.58 7.87,146.51 10.63,48.77 38.42,95.25 81.62,121.61 59.16,24.75 132.65,6.77 174.33,-41.84 59.29,-65.13 79.77,-154.56 133.67,-223.31 45.4,-55.3 97.19,-106.73 159.45,-142.86 53.77,-31.57 115.88,-50.17 178.48,-49.08 26.52,1.41 46.68,21.47 62.6,40.8 6.43,-13.08 13.42,-25.87 19.93,-38.92 45.59,-0.08 91.15,-2.19 136.77,-1.72 5.83,1.64 11.8,7.34 11.04,13.96 -0.78,8.34 -1.35,16.91 -4.43,24.77 -42.93,101.45 -85.89,202.89 -128.64,304.44 -9.11,29.59 -23.31,58.82 -21.98,90.52 1.25,14.49 5.08,31.05 17.95,39.68 12.42,8.44 28.16,5.39 42.17,4.32 24.96,-0.15 48.35,-10.31 70.7,-20.42 50.88,-24.57 93.89,-62.03 135.21,-99.91 -6.91,-40.27 -12.35,-80.91 -11.93,-121.84 -1.28,-115.98 31.34,-230.26 82.34,-333.71 40.02,-80.34 89.72,-155.94 147.87,-224.35 53.38,-62.94 112.75,-122.02 182.85,-166.21 21.91,-13.59 44.86,-25.65 68.9,-34.96 20.4,-7.79 45.18,-8.54 63.93,3.83 6.98,6.83 10.27,16.65 12.85,25.87 6.43,27.59 2.21,56.22 -2.92,83.65 -4.17,24.54 -14.36,47.44 -22.54,70.81 -83.12,221.38 -214.21,421.19 -360.41,605.73 -4.48,4.46 -2.55,11.02 -2.37,16.6 4.43,57 16.65,114.99 46.94,164.22 20.77,34.13 51.56,61.82 87.69,78.89 42.44,25.58 93.97,27.69 137.68,50.27 6.43,3.21 12.95,8.57 13.34,16.36 0.41,8.52 0.62,17.93 -4.51,25.25 -21.23,34.2 -50.43,62.96 -83.13,86.2 -39.65,28.13 -84.04,48.77 -129.34,66.01 -116.08,44.11 -242.09,52.6 -365.18,50.2 -99.88,-2.92 -199.6,-9.51 -299.46,-12.89 -66.01,-3.05 -132,-5.99 -198.04,-8.57 -92.84,-5.03 -185.82,-7.01 -278.79,-7.43 -103.76,0.63 -208.02,5.29 -310.16,24.83 -52.32,9.92 -103.95,23.97 -153.6,43.32 -3.96,-1.93 -10.37,-5.39 -6.51,-10.6 16.64,-38.14 50.43,-64.87 83.12,-88.86 30.41,-23.32 65.08,-40.17 99.83,-55.98 113.14,-49.68 237.3,-67.89 359.95,-72.58 152.19,-5.42 304.06,8.54 456.02,14.56 61.84,0.94 123.5,5.86 185.25,8.78 68.51,3.88 137.05,7.97 205.62,11.38 59.13,-0.73 118.45,4.69 177.45,-1.56 39.45,-3.78 79.25,-13.23 113.38,-34.02 9.64,-5.71 17.48,-17.64 14.98,-29.05 -9.38,-12.89 -25.17,-18.89 -40.25,-22.01 -18.34,-3.41 -37.25,-3.83 -55.13,-9.46 -33.6,-13.73 -67.15,-28.42 -96.9,-49.49 -40.75,-28.24 -76.83,-64.51 -100.4,-108.4 -64.04,56.68 -136.43,107.38 -219.77,130.46 -35.22,9.98 -71.98,14.35 -108.58,12.84 -13,-0.62 -26.39,-0.26 -38.79,-4.84 -23.47,-7.92 -42.78,-26.18 -53.14,-48.56 -8.81,-16.99 -8.57,-36.65 -14.98,-54.42 -33.97,49.6 -82.19,94.75 -143.26,105.77 -42.1,4.76 -86.95,2.42 -125.04,-17.9 -19.31,-10.16 -35.93,-25.19 -48.48,-42.99 -12.74,-18.2 -16.6,-40.53 -22.3,-61.55 -40.04,35.82 -83.65,68.33 -132.57,91.07 -67.37,32.2 -145.63,44.34 -218.65,26.08 -24.51,-6.75 -49.5,-12.53 -72.6,-23.4 -53.9,-24.77 -100.72,-66.71 -127.68,-119.91 -12.5,-24.36 -18.91,-51.29 -22.64,-78.28 -9.77,-60.13 -9.48,-121.82 0.47,-181.89 14.38,-89.54 49.68,-174.57 95.43,-252.46 27.51,-46.97 58.82,-91.59 92.24,-134.53 20.19,-25.63 40.51,-51.29 63.59,-74.4 66.51,-69.24 137.58,-134.47 215.81,-190.35zm1319.84 85.16l0 0zm0 0c-37.96,28.55 -70.02,64.16 -98.37,102.09 -25.87,34.91 -49.55,71.54 -70.07,109.86 -45.85,82.19 -94.75,165.29 -113.64,258.66 -8.31,37.9 -9.3,76.98 -6.69,115.59 95.11,-122.57 176.57,-255.35 247.17,-393.37 20.71,-40.82 41.55,-81.7 58.04,-124.45 5.94,-16.57 10.91,-34.02 9.82,-51.81 -0.44,-7.53 -4.43,-15.01 -10.89,-19.05 -5.1,-2.21 -11.25,-1.27 -15.37,2.48zm-825.89 476.94l0 0zm0 0c-16.18,5.99 -31.37,14.51 -45.41,24.51 -46.97,34.03 -78.46,84.41 -104.33,135.31 -10.81,22.54 -22.53,44.78 -30.01,68.67 -8.52,25.01 -16.65,50.46 -18.92,76.93 -2.39,23.6 1.13,48.61 13.84,69.04 3.41,5.86 10.31,8.04 16.31,10.29 20.19,6.22 43.55,7.32 62.13,-4.23 22.4,-13.52 39.15,-34.67 53.4,-56.21 39,-89.77 74.87,-180.95 115.8,-269.92 7.53,-13.59 6.28,-33.52 -6.44,-43.63 -15.89,-11.91 -37.35,-13.96 -56.37,-10.76z"/>
   <path class="fil1" d="M1049.53 762.89c19.02,-3.2 40.48,-1.15 56.37,10.76 12.72,10.11 13.97,30.04 6.44,43.63 -40.93,88.97 -76.8,180.15 -115.8,269.92 -14.25,21.54 -31,42.69 -53.4,56.21 -18.58,11.55 -41.94,10.45 -62.13,4.23 -6,-2.25 -12.9,-4.43 -16.31,-10.29 -12.71,-20.43 -16.23,-45.44 -13.84,-69.04 2.27,-26.47 10.4,-51.92 18.92,-76.93 7.48,-23.89 19.2,-46.13 30.01,-68.67 25.87,-50.9 57.36,-101.28 104.33,-135.31 14.04,-10 29.23,-18.52 45.41,-24.51zm-27.28 44.96l0 0zm0 0c-74.11,63.1 -120.3,154.77 -136.48,249.99 -0.65,15.55 -5.39,31.73 -0.57,46.99 4.3,12.12 18.68,15.45 30.17,14.57 16.31,-0.99 29.46,-12.46 38.81,-24.96 11.7,-16.28 20.77,-34.34 28.35,-52.83 34.44,-79.69 68.51,-159.56 103.26,-239.12 -0.75,-1.44 -2.24,-4.33 -2.99,-5.79 -20.51,-7.16 -43.12,-0.47 -60.55,11.15zm853.17 -521.9c4.12,-3.75 10.27,-4.69 15.37,-2.48 6.46,4.04 10.45,11.52 10.89,19.05 1.09,17.79 -3.88,35.24 -9.82,51.81 -16.49,42.75 -37.33,83.63 -58.04,124.45 -70.6,138.02 -152.06,270.8 -247.17,393.37 -2.61,-38.61 -1.62,-77.69 6.69,-115.59 18.89,-93.37 67.79,-176.47 113.64,-258.66 20.52,-38.32 44.2,-74.95 70.07,-109.86 28.35,-37.93 60.41,-73.54 98.37,-102.09zm-257.49 502.99l0 0zm0 0c26.99,-37.88 51.12,-77.74 75.55,-117.31 55.52,-92.06 107.23,-186.52 154.27,-283.2 10.69,-22.06 20.69,-45.01 23.22,-69.66 -120.98,133.1 -206.95,296.59 -253.04,470.17zm-681.77 -783.87c11.2,-1.51 22.43,-3.62 33.78,-2.87 29.47,1.25 60.05,4.07 86.36,18.58 24.02,12.74 42.02,35.22 50.72,60.85 16.13,46.35 11.34,98.16 -6.51,143.31 -17.79,40.46 -41.21,78.52 -69.74,112.28 -35.89,41.89 -80.23,79.37 -133.8,95.66 -25.08,2 -52.02,0.83 -74.71,-11.2 -19.46,-10.11 -31.57,-30.67 -35.4,-51.8 -4.43,-27.01 4.97,-55.8 23.71,-75.62 19.69,-21 48.53,-29.1 75.75,-35.09 26.05,-6.2 53.93,-10.6 75.81,-27.25 20.45,-15.71 31.08,-42.18 30.76,-67.58 0.37,-13 -6.9,-26.83 -19.35,-31.67 -12.11,-4.67 -25.19,-1.62 -37.7,-0.92 -11.04,0.58 -21.23,5.4 -31.49,9.04 -76.18,28.87 -142.84,78.36 -200.46,135.24 -85.27,84.84 -152.95,185.29 -215,287.8 -44.42,83.11 -83.99,169.96 -104.49,262.34 -16.65,75.21 -18.63,154.69 2.11,229.3 4.22,14.14 7.53,28.97 16.02,41.34 14.41,21.96 36.05,40.85 62.42,45.98 33.24,5.52 68.9,-2.03 96.18,-22.14 24.88,-17.93 42.69,-43.64 57.86,-69.9 15.81,-28.11 29.02,-57.57 43.37,-86.43 26.52,-52.47 61.69,-100.38 102.3,-142.79 54.76,-55.93 120.93,-101.96 195.41,-127.23 33.58,-11.13 68.62,-18.26 104.02,-19.54 22.85,1.02 45.9,6.17 65.91,17.56 8.73,-4.82 16.07,-12.38 25.4,-15.95 49.31,-0.49 98.66,0.81 148,0.45 18.49,-1.9 33.47,15.37 36,32.46 4.5,23.91 -7.11,46.73 -17.04,67.73 -43.4,104.62 -93.05,206.82 -129.13,314.36 -7.51,19.04 -9.9,39.85 -8.44,60.2 33.6,4.43 67.6,-5.55 96.9,-21.68 35.98,-19.92 66.93,-47.3 98.71,-73.09 -16.7,-120.96 -2.81,-245.64 38.06,-360.6 43.98,-124.39 116.71,-236.93 202.63,-336.42 30.19,-34.96 61.45,-69.17 96.59,-99.23 41.55,-36.84 85.87,-71.67 136.51,-95.14 19.54,-8.57 39.6,-17.69 61.32,-18.23 22.54,-1.44 48.43,3.41 63.2,22.01 20.95,30.27 23.81,69.22 19.67,104.78 -5.18,51.42 -26.6,98.99 -45.61,146.43 -82.48,198.22 -198.88,380.76 -331.14,549.28 -4.87,6.85 -11.43,12.69 -14.98,20.32 -0.13,70.49 28.82,141.48 81.07,189.37 21.03,19.4 45.98,34.38 72.63,44.7 32.57,13.75 69.3,15 100.82,31.55 18.06,9.11 32.67,26.86 34.73,47.36 -6.15,31 -22.85,58.98 -43.01,82.94 -34.39,39.81 -78.7,69.61 -124.89,94.07 -94.67,49.42 -201.53,70.6 -307.37,77.37 -96.13,6.93 -192.55,2.69 -288.67,-1.43 -103.45,-5.42 -206.9,-10.6 -310.35,-15.92 -65.88,-3.88 -131.84,-5.41 -197.8,-6.85 -55.6,-0.36 -111.19,-3.2 -166.76,-0.91 -131.16,2.14 -264.33,14.67 -388.28,60.15 -13.81,6.59 -29.47,5.76 -44.37,5.16 -10.63,-0.49 -22.87,-6.69 -24.17,-18.37 -1.72,-20.16 6.61,-39.75 18.02,-55.95 13.97,-19.57 31.19,-36.5 48.07,-53.51 73.95,-59.32 161.2,-101.08 252.56,-125.7 116.89,-31.83 238.91,-37.17 359.45,-36.42 33.81,1.85 67.76,1.1 101.6,2.92 90.34,3.73 180.64,8.42 271.03,10.06 158.94,7.47 317.85,15.37 476.79,22.69 51,-1.38 104.17,-0.91 151.72,-22.15 -80.11,-10.52 -158.71,-44.59 -215.18,-103.31 -13.32,-13.6 -25.01,-28.66 -35.46,-44.52 -69.06,56.34 -150.21,100.53 -238.68,116.1 -34.72,6.1 -70.31,7.95 -105.43,4.75 -41.86,-0.97 -80.91,-28.11 -99.43,-65.16 -45.12,47.31 -112.41,68.8 -176.78,65.88 -29.18,-1.25 -58.46,-6.59 -85.48,-17.81 -33.76,-16.83 -65.36,-42.36 -80.83,-77.61 -81.1,69.61 -190.93,104.44 -297.32,94.46 -36.06,-2.79 -71.3,-12.01 -105.53,-23.37 -59.14,-21.54 -110.04,-63.69 -144.43,-116.18 -17.95,-27.64 -31.39,-58.57 -37.17,-91.13 -6.41,-40.4 -9.62,-81.36 -8.73,-122.26 1.09,-84.64 20.03,-168.6 52.26,-246.72 34.05,-82.82 82.24,-159.2 137.31,-229.56 55.18,-70.21 116.94,-135.03 181.86,-196.22 75.58,-65.13 156.31,-124.97 244.41,-172.12 84.46,-45.28 176.21,-78.02 271.3,-91.28zm-380.58 195.72l0 0zm0 0c-78.23,55.88 -149.3,121.11 -215.81,190.35 -23.08,23.11 -43.4,48.77 -63.59,74.4 -33.42,42.94 -64.73,87.56 -92.24,134.53 -45.75,77.89 -81.05,162.92 -95.43,252.46 -9.95,60.07 -10.24,121.76 -0.47,181.89 3.73,26.99 10.14,53.92 22.64,78.28 26.96,53.2 73.78,95.14 127.68,119.91 23.1,10.87 48.09,16.65 72.6,23.4 73.02,18.26 151.28,6.12 218.65,-26.08 48.92,-22.74 92.53,-55.25 132.57,-91.07 5.7,21.02 9.56,43.35 22.3,61.55 12.55,17.8 29.17,32.83 48.48,42.99 38.09,20.32 82.94,22.66 125.04,17.9 61.07,-11.02 109.29,-56.17 143.26,-105.77 6.41,17.77 6.17,37.43 14.98,54.42 10.36,22.38 29.67,40.64 53.14,48.56 12.4,4.58 25.79,4.22 38.79,4.84 36.6,1.51 73.36,-2.86 108.58,-12.84 83.34,-23.08 155.73,-73.78 219.77,-130.46 23.57,43.89 59.65,80.16 100.4,108.4 29.75,21.07 63.3,35.76 96.9,49.49 17.88,5.63 36.79,6.05 55.13,9.46 15.08,3.12 30.87,9.12 40.25,22.01 2.5,11.41 -5.34,23.34 -14.98,29.05 -34.13,20.79 -73.93,30.24 -113.38,34.02 -59,6.25 -118.32,0.83 -177.45,1.56 -68.57,-3.41 -137.11,-7.5 -205.62,-11.38 -61.75,-2.92 -123.41,-7.84 -185.25,-8.78 -151.96,-6.02 -303.83,-19.98 -456.02,-14.56 -122.65,4.69 -246.81,22.9 -359.95,72.58 -34.75,15.81 -69.42,32.66 -99.83,55.98 -32.69,23.99 -66.48,50.72 -83.12,88.86 -3.86,5.21 2.55,8.67 6.51,10.6 49.65,-19.35 101.28,-33.4 153.6,-43.32 102.14,-19.54 206.4,-24.2 310.16,-24.83 92.97,0.42 185.95,2.4 278.79,7.43 66.04,2.58 132.03,5.52 198.04,8.57 99.86,3.38 199.58,9.97 299.46,12.89 123.09,2.4 249.1,-6.09 365.18,-50.2 45.3,-17.24 89.69,-37.88 129.34,-66.01 32.7,-23.24 61.9,-52 83.13,-86.2 5.13,-7.32 4.92,-16.73 4.51,-25.25 -0.39,-7.79 -6.91,-13.15 -13.34,-16.36 -43.71,-22.58 -95.24,-24.69 -137.68,-50.27 -36.13,-17.07 -66.92,-44.76 -87.69,-78.89 -30.29,-49.23 -42.51,-107.22 -46.94,-164.22 -0.18,-5.58 -2.11,-12.14 2.37,-16.6 146.2,-184.54 277.29,-384.35 360.41,-605.73 8.18,-23.37 18.37,-46.27 22.54,-70.81 5.13,-27.43 9.35,-56.06 2.92,-83.65 -2.58,-9.22 -5.87,-19.04 -12.85,-25.87 -18.75,-12.37 -43.53,-11.62 -63.93,-3.83 -24.04,9.31 -46.99,21.37 -68.9,34.96 -70.1,44.19 -129.47,103.27 -182.85,166.21 -58.15,68.41 -107.85,144.01 -147.87,224.35 -51,103.45 -83.62,217.73 -82.34,333.71 -0.42,40.93 5.02,81.57 11.93,121.84 -41.32,37.88 -84.33,75.34 -135.21,99.91 -22.35,10.11 -45.74,20.27 -70.7,20.42 -14.01,1.07 -29.75,4.12 -42.17,-4.32 -12.87,-8.63 -16.7,-25.19 -17.95,-39.68 -1.33,-31.7 12.87,-60.93 21.98,-90.52 42.75,-101.55 85.71,-202.99 128.64,-304.44 3.08,-7.86 3.65,-16.43 4.43,-24.77 0.76,-6.62 -5.21,-12.32 -11.04,-13.96 -45.62,-0.47 -91.18,1.64 -136.77,1.72 -6.51,13.05 -13.5,25.84 -19.93,38.92 -15.92,-19.33 -36.08,-39.39 -62.6,-40.8 -62.6,-1.09 -124.71,17.51 -178.48,49.08 -62.26,36.13 -114.05,87.56 -159.45,142.86 -53.9,68.75 -74.38,158.18 -133.67,223.31 -41.68,48.61 -115.17,66.59 -174.33,41.84 -43.2,-26.36 -70.99,-72.84 -81.62,-121.61 -11.23,-47.93 -10.37,-97.64 -7.87,-146.51 0.89,-22.4 6.25,-44.26 10.66,-66.14 9.14,-41.19 21.02,-81.75 35.58,-121.34 60.7,-165.3 164.7,-311.21 284.01,-439.3 39.49,-38.9 79.69,-77.53 125.07,-109.6 48.3,-34.33 105.45,-59.99 165.66,-59.71 10.29,0.5 21.7,-1.53 30.84,4.38 14.2,8.36 26.42,21.99 29.1,38.68 2.81,25.3 -0.18,51.74 -11.49,74.77 -8.41,17.3 -22.22,31.24 -36.55,43.74 -38.03,29.33 -91.78,18.76 -130.64,46.37 -19.96,12.74 -28.71,38.92 -23.19,61.51 2.89,11.38 11.36,21.2 22.2,25.79 22.97,10.55 50.38,9.25 72.99,-1.72 30.56,-14.46 55.15,-38.43 79.43,-61.43 29.93,-33.99 56.74,-71.64 73.8,-113.87 15.92,-39.07 20.58,-83.6 7.4,-124.16 -5.96,-23.68 -25.55,-41.96 -47.85,-50.61 -25.92,-10.37 -54.5,-9.75 -81.88,-8.13 -142.21,18.65 -275.31,81.67 -390.92,164.85z"/>
  </g>
 </g>
</svg>
