<?xml version="1.0" encoding="UTF-8"?>
<!DOCTYPE svg PUBLIC "-//W3C//DTD SVG 1.1//EN" "http://www.w3.org/Graphics/SVG/1.1/DTD/svg11.dtd">
<!-- Creator: CorelDRAW -->
<svg xmlns="http://www.w3.org/2000/svg" xml:space="preserve" width="2000px" height="1600px" version="1.1" style="shape-rendering:geometricPrecision; text-rendering:geometricPrecision; image-rendering:optimizeQuality; fill-rule:evenodd; clip-rule:evenodd"
viewBox="0 0 2000 1600"
 xmlns:xlink="http://www.w3.org/1999/xlink">
 <defs>
  <style type="text/css">
   <![CDATA[
    .fil1 {fill:black;fill-rule:nonzero}
    .fil0 {fill:#F58025;fill-rule:nonzero}
    .fil2 {fill:#FEFEFE;fill-rule:nonzero}
   ]]>
  </style>
 </defs>
 <g id="Capa_x0020_1">
  <metadata id="CorelCorpID_0Corel-Layer"/>
  <g id="Campbell_x0020_Fighting_x0020_Camels.cdr">
   <path class="fil0" d="M201.04 950.44c26.38,-15.69 46.37,-39.59 67.35,-61.53 3.26,30.63 6.57,61.39 13.69,91.42 -19.84,16.64 -42.42,30.2 -60.45,48.86 -26.36,35.18 -46.98,74.27 -67.81,112.87 -12.32,23.8 -25.11,47.61 -32.91,73.37 -7.19,21.31 -19.17,40.48 -28.97,60.59 5,-5.84 9.63,-11.97 14.53,-17.91 -3.23,11.51 -6.66,22.98 -9.85,34.52 -3.64,13.74 -0.53,27.91 1.19,41.7 1.28,7.91 1.76,16.61 7.02,23.15 10.77,14.6 23.13,28.65 28.49,46.37 -5.8,-3.57 -12,-10.33 -19.41,-6.66 -10.24,4.83 -12.65,17.12 -19.36,25.3 -4.78,-2.41 -3.79,-8.67 -5.65,-12.84 3.81,-5.02 7.43,-10.72 6.66,-17.34 0.39,-13.08 -10.43,-22.18 -13.35,-34.28 6.98,-2.36 14.27,-1.93 20.81,1.52 -5.82,-6.85 -14.44,-9.19 -23.1,-9.75 -2.8,-14.05 -0.05,-28.61 -3.94,-42.51 -3.04,1.47 -4.66,3.84 -4.85,7.09 -0.92,11.52 -0.39,23.13 0.17,34.67 -11.13,-2.34 -22.55,-0.22 -32.23,5.65 11.3,-3.31 24.04,-4.61 33.99,2.99 3.5,15.62 16.92,26.87 18.69,43.17 -1.43,1.52 -2.85,3.04 -4.3,4.59 -2.15,-4.86 -6.59,-8.79 -12.19,-8.28 -12.43,-0.29 -18.28,13.18 -28.92,17.11 -5.05,-0.75 -5.17,-6.39 -6.43,-10.28 -4.51,-18.78 -3.69,-40.58 -17.76,-55.55 -6.14,-7.2 -13.81,-16.39 -10.22,-26.51 4.66,-7.44 10,-14.53 12.58,-23.05 2.01,4.53 4.03,9.14 6.18,13.68 -2.44,-19.24 -5.65,-40.07 3.24,-58.2 7.63,-12.97 19.94,-22.41 32.64,-30.06 3.35,-1.66 5.33,-4.8 6.66,-8.14 21.03,-48.13 42.32,-96.15 63.52,-144.22 8.98,-20.54 18.97,-40.8 24.45,-62.62 4.64,-14.54 6.69,-30.09 14.15,-43.56 5,-9.77 17.38,-9.77 25.69,-15.33zm677.66 251.59c10.7,-9.78 21.73,-19.2 32.28,-29.17 12.7,9.25 25.06,18.95 37.81,28.15 -2.13,-5.14 -4.42,-10.16 -6.62,-15.23 13.09,6.71 20.31,20.69 33.49,27.28 14.48,8.47 31.57,2.05 47.27,4.23 -13.21,2.26 -26.92,6.39 -40.25,2.75 -5.24,-1.31 -10.6,-2.25 -15.98,-2.54 4.56,8.28 14.73,9.42 23.18,10.72 28.17,1.38 54.44,-15.88 82.8,-11.06 7.39,0.92 14.03,4.57 19.92,8.98 -3.69,-0.58 -7.39,-1.18 -11.03,-1.71 -4.18,7.03 -3.46,15.21 -3.87,23.03 -1.64,2.92 -5.04,3.7 -7.99,4.61 -22.09,6.04 -44.39,12.92 -64.02,24.99 -12.8,7.97 -25.93,19.05 -42.08,16.9 -9.1,-0.17 -15.52,-7.51 -18.23,-15.57 2.85,-8.74 11.33,-12.44 19.27,-15.33 -14.2,-2.68 -29.87,-4.9 -41.21,-14.49 -8.26,-16.03 -7.51,-34.93 -9.97,-52.46 -2.27,7.39 -3.26,15.07 -3.94,22.74 -10.23,-5.72 -20.59,-11.17 -30.83,-16.82zm-225.82 -334.78c13.78,0.24 29.02,1.67 39.74,11.35 11.87,10.4 17.14,25.9 21.56,40.58 6.25,22.19 13.06,44.37 15.71,67.36 0.92,5.38 -0.48,10.69 -2.1,15.81 -10.33,-1.81 -19.87,-6.21 -29.04,-11.03 5.55,6.27 11.32,12.6 18.66,16.82 8.35,5.02 17.94,9.2 23.66,17.43 8.64,16.66 11.35,35.81 19.99,52.42 17.38,20.88 43.94,30.1 67.31,42.37 -9.97,11.97 -18.28,25.22 -25.04,39.25 -26.65,-14.15 -55.09,-24.55 -82.56,-36.82 -3.87,-5.43 -5.85,-11.92 -8.48,-17.96 24.97,7.97 48.72,18.9 72.16,30.44 -1.45,-4.85 -3.45,-9.72 -7.55,-12.94 -16.18,-14.02 -37.42,-19.94 -55,-31.81 -9.27,-6.6 -8.83,-19.32 -11.83,-29.24 -1.86,-10.62 -7.41,-21.2 -17.96,-25.35 2.82,11.42 6.73,22.77 6.66,34.67 -24.96,-65.09 -38.7,-134.16 -45.89,-203.35zm217.95 -340.26c13.14,0.95 26.15,3.21 39.28,4.35 -0.02,1.11 -0.07,3.28 -0.09,4.37 -4.83,0.94 -12.17,0.48 -13.4,6.69 -5.7,18.68 -5.27,38.55 -9.23,57.6 -2.31,10.77 -6.76,22.14 -16.34,28.44 -11.9,8.45 -27.62,8.01 -41.16,4.56 -9.8,-2.46 -19.8,-7.48 -24.8,-16.68 -4.27,-7.1 -4.58,-15.55 -4.78,-23.59 6.72,-0.14 13.4,-0.63 20.07,-1.57 0.02,9.81 1.13,20.67 8.2,28.13 10.31,9.73 28.64,11.32 39.02,0.84 10.28,-10.31 12.07,-25.66 13.59,-39.45 1.33,-13.66 4.32,-27.35 2.94,-41.11 -1.42,-6.95 -11.27,-5.86 -13.3,-12.58zm-75.37 -9.65c12.72,0.91 25.33,3.18 38.05,4.37 3.81,-0.03 6.93,2.22 9.8,4.49 -4.51,1.04 -9.44,0.99 -13.59,3.23 -4.01,7.85 -3.94,17.02 -5.12,25.59 -5.84,4.57 -12.82,6.93 -20.25,6.26 0.74,-10.87 3.71,-21.59 3.11,-32.5 -1.91,-5.63 -10.19,-5.43 -12,-11.44zm-14.89 -45.29c19.26,-8.65 42.12,-3.19 58.61,8.98 3.48,-2.85 7.08,-5.65 11.44,-6.98 -0.31,13.33 -1.37,26.63 -2.43,39.91 -6.23,-1.02 -6.45,-7.85 -8.74,-12.44 -4.37,-10.4 -11.13,-21.84 -22.96,-24.6 -10.6,-3.45 -22.48,1.21 -28.85,10.09 -11.27,15 -13.13,34.91 -11.06,53 2.34,12.84 9.78,26.36 22.72,30.97 10.74,4.25 23.1,0.65 31.5,-6.78 4.83,-3.72 8.46,-9.85 15.21,-10.05 -0.67,7.05 -5.98,11.91 -11.27,15.94 -24.48,21.19 -67.57,11.49 -81.74,-17.31 -14.61,-28.35 -1.91,-67.62 27.57,-80.73zm-13.89 -131.26c15.96,-5.31 32.96,-7.68 49.76,-6.4 30.88,2.29 61.73,6.98 91.47,15.79 16.01,5.67 31.58,13.54 44.16,25.11 7.32,6.61 13.64,14.22 20.26,21.51 -2.11,13.18 -4.16,26.55 -9.08,39.06 -2.1,5.04 -5.41,10.67 -11.37,11.51 -22.94,5.51 -46.79,4.59 -70.21,4.37 -42.71,-1.64 -85.41,-5.07 -127.69,-11.39 -14.58,-2.44 -29.54,-3.84 -43.5,-9.01 -6.25,-1.66 -5.14,-9.53 -6.88,-14.46 6.95,-15.23 14.05,-30.42 21.9,-45.24 3.02,-6.37 9.12,-10.28 14.48,-14.48 8.43,-6.14 16.71,-12.97 26.7,-16.37zm90.9 -141.16c44.68,-25.57 95.77,-38.6 146.97,-41.38 59.35,-3.26 119.89,6.35 174.12,31.17 50.24,22.62 93.98,58.01 129.76,99.63 59.48,71.73 114.43,148.45 152.65,233.79 -4.18,2.83 -8.35,5.65 -12.51,8.52 -35.92,-80.92 -87.34,-153.9 -142.99,-222.37 -33.58,-41.6 -75.03,-77.45 -123.22,-101.08 -44.47,-22.31 -94.08,-33.61 -143.74,-34.84 -52.53,-1.76 -106.03,6.95 -153.83,29.41 -62.12,28.94 -110.55,80.95 -146.57,138.21 -38.24,61.49 -63.2,130.61 -77.59,201.39 -17.89,88.89 -21.46,180.15 -16.78,270.51 6.73,120.13 31.7,241.59 90.58,347.6 8.55,15.62 18.23,30.56 27.96,45.46 -3.79,3.28 -7.54,6.59 -11.28,9.92 -60.23,-87.34 -94.78,-190.17 -111.03,-294.43 -9.1,-58.24 -13.47,-117.24 -13.08,-176.17 -0.61,-68.78 5.29,-137.7 18.66,-205.23 17.53,-85.61 49.93,-169.36 102.27,-239.85 30.03,-39.64 66.14,-75.61 109.65,-100.26zm-50.75 -110.23c67.19,-15.09 136.6,-17.82 205.16,-13.64 117.52,8.95 231.76,45.43 336.59,98.5 9.05,4.27 17.65,9.46 26.79,13.49 2.56,-0.72 3.77,-3.76 5.63,-5.53 14.8,-19.17 29.16,-38.65 43.19,-58.4 10.69,-13.95 22.45,-29.06 39.76,-34.86 16.1,-3.52 38.41,0.68 44.13,18.47 6.91,21.83 7.17,44.98 9.42,67.57 6.54,97.2 12.89,194.39 19.24,291.61 -4.8,3.58 -9.54,7.3 -14.2,11.09 -3.74,-53.31 -7.31,-106.59 -10.59,-159.92 -4.49,-56.32 -6.62,-112.79 -11.86,-169.07 -2.19,-13.44 -1.54,-28.1 -8.25,-40.29 -8.82,-7.29 -23.62,-7.68 -32.6,-0.31 -10.09,7.65 -17.98,17.76 -25.39,27.93 -17.29,24.33 -35.06,48.33 -53.84,71.53 -108.23,-59.94 -227.27,-102.75 -350.83,-115.16 -77.4,-7.31 -156.2,-3.54 -231.93,14.66 -84.74,19.92 -164.8,58.98 -233,113.06 -70.08,55.67 -128.72,125.15 -174.78,201.73 -56.09,93.59 -90.2,199.99 -100.46,308.53 -12.99,133.67 3.96,272.03 60.31,394.7 39.93,86.86 98.33,165.3 170.25,228.28 61.46,53.5 134.13,93.67 211.5,119.02 57.37,18.95 117.14,30.28 177.3,35.15 105.94,9.18 215.08,1.38 314.98,-37.13 44.42,-17.04 86.67,-39.73 125.25,-67.59 34.5,-24.53 64.85,-54.18 95.29,-83.41 34.98,-35.16 69.63,-71.37 96.33,-113.4 12.67,-20.79 25.06,-44.44 21.31,-69.62 -3.45,-19.58 -31.48,-21.18 -43.19,-8.09 -12.28,10.64 -20.23,25.06 -29.84,37.95 -50.67,70.37 -110.23,135.97 -183.6,183.19 -46.83,30.15 -99.63,51.83 -154.96,59.65 -85.68,11.69 -175.32,-5.74 -249.61,-50.26 -40.19,-23.8 -75.78,-54.8 -106.85,-89.54 3.89,-3.09 7.75,-6.21 11.64,-9.3 26.46,28.83 55.48,55.58 88.45,76.82 89.55,59.22 206.03,77.26 308.68,44.91 75.83,-24.03 141.43,-72.77 195.96,-129.69 34.79,-35.76 65.26,-75.45 93.58,-116.44 9.82,-12.94 22.01,-27.38 38.87,-29.77 15.47,8.93 30.54,18.59 45.72,28.05 4.61,26.22 -7.07,51.57 -19.75,73.78 -22.28,37.52 -51.64,70.18 -81.72,101.57 -36.21,36.31 -72.59,72.91 -114.09,103.28 -74.63,54.97 -163.08,90.26 -254.51,104.48 -36.74,6.18 -74.04,8.86 -111.29,8.86 -107.6,1.09 -216.46,-15.3 -316.19,-56.8 -82.37,-34.02 -157.31,-85.95 -217.78,-151.47 -59.32,-63.35 -107.1,-137.61 -139.13,-218.31 -24.68,-61.62 -39.93,-126.8 -47.25,-192.68 -9.58,-92.56 -5.33,-186.86 15.57,-277.63 22.41,-98.31 65.45,-191.72 124.86,-273.15 52.83,-72.66 117.46,-137.56 193.67,-185.62 60.55,-38.39 127.98,-65.79 198.06,-80.78zm826.96 294.65c10.74,-13.35 24,-26.82 41.91,-29.02 25.59,-4.03 46.74,13.69 68.27,24.36 -5.45,-5.94 -11.29,-11.52 -17.11,-17.04 21.75,2.72 40.82,15.08 54.92,31.5 -2.65,0.22 -7.97,0.7 -10.65,0.94 34.09,3.53 68.25,6.57 102.12,11.64 17.03,2.39 33.01,8.84 48.99,14.82 20.69,6.88 37.03,23.2 48.67,41.16 -5.6,-0.79 -11.15,-1.69 -16.64,-2.94l5.12 -1.5c0.7,-0.17 2.13,-0.55 2.83,-0.72 -20.28,-14.39 -43.87,-26.27 -69.34,-25.69 -6.54,-0.34 -9.24,6.57 -12.6,10.91 -7.68,-1.64 -15.47,-2.85 -23.35,-2.89 -14.29,-0.17 -28.43,-2.54 -42.73,-2.59 17.87,3.72 35.64,7.9 53.77,10.26 14.24,1.55 24.69,12.7 38.46,15.7 19.65,4.8 39.9,7.31 60.16,7.53 -16.56,-6.4 -34.28,-8.48 -51.26,-13.4 -8.25,-2.54 -18.22,-3.74 -23.37,-11.54 -1.27,-7.22 7.78,-8.72 13.14,-8.57 19.72,1.08 37.85,10.72 54.29,21 -10.43,-0.41 -19.84,-5.16 -29.67,-7.99 -9.65,-2.94 -19.7,-4.18 -29.69,-5.02 24.77,7.85 49.83,14.9 73.97,24.65 -1.52,-6.79 -2.87,-13.62 -4.23,-20.43 2.68,2.71 5.39,5.44 8.04,8.19 -0.84,3.35 -1.66,6.69 -2.27,10.09 0.44,1.09 1.31,3.28 1.77,4.39 6.32,12.44 16.8,24.29 14.39,39.31 0.91,7.31 -5.56,11.32 -10.58,15.09 5.82,-19.49 0.02,-40.18 -11.47,-56.35 3.99,13.28 11.21,26.94 7.51,41.14 -2.94,14.82 -18.06,26.87 -33.36,24.26 -27.33,-4.27 -47.49,-27.06 -74.87,-31.27 -13.32,-2.29 -29.38,-2.05 -39.4,8.33 -4.58,5.27 -9.17,12.61 -6.59,19.8 3.53,8.16 11.08,13.86 18.93,17.55 15.21,6.67 32.79,8.69 48.82,3.82 10.76,-2.95 20.18,-9.76 31.33,-11.47 9.78,-1.84 19.34,2.27 29.14,2.12 10.16,-0.19 20.3,0.51 30.44,1.55 0.08,-3.94 0.25,-7.87 0.44,-11.78 7.97,1.52 12.67,9.87 11.66,17.55 -0.53,5.24 -7,6.47 -11.25,5.55 -15.11,-1.86 -30.2,-8.3 -45.56,-4.27 -15.96,2.19 -25.37,17.6 -40.8,21.12 -14.94,5.26 -30.68,0.92 -45.17,-3.64 -13.32,-3.67 -25.71,-9.85 -38.36,-15.21 -7.46,-3.38 -15.71,-7.34 -19.31,-15.19 -1.02,-4.71 -0.82,-9.58 -0.9,-14.36 2.42,-2.85 4.86,-5.7 7.27,-8.6 -8.33,4.81 -16.42,11.37 -17.11,21.75 -21.23,3.41 -42.76,5.53 -63.45,11.57 20.35,-0.15 40.63,-4.68 61.01,-2.37 5.11,0.12 8.9,3.82 12.89,6.57 -13.59,0.48 -27.48,-0.41 -40.73,3.31 -32.57,8.13 -67.21,16.94 -100.36,6.47 -22.33,-5.82 -41.23,-21.95 -50.33,-43.17 0.82,18.44 7.75,37.08 22.69,48.7 -26.85,12.94 -47.75,34.47 -69.89,53.81 -33.1,31.26 -64.05,64.75 -97.8,95.36 -25.08,24.02 -54.71,42.44 -83.77,61.17 -39.55,24.82 -79.98,48.41 -122.31,68.18 -8.69,3.77 -23.32,4.95 -26.38,-6.57 -2.44,-16.05 3.79,-31.69 7.38,-47.12 -13.01,28.61 -26.45,57.75 -47.22,81.7 -17.81,17.76 -39.71,31.31 -63.1,40.38 4.05,-9.05 8.52,-17.93 12.21,-27.18 -23.22,29.67 -45.26,60.28 -67.48,90.75 -22.28,31.14 -44.87,62.17 -65.01,94.78 -3.98,-4.37 -8.06,-8.62 -12.31,-12.7 4.83,9.1 10.4,18.83 9.17,29.55 -1.47,9.85 -8.42,17.6 -14.75,24.8 -11.42,12.12 -24.09,23.37 -38.67,31.53 -13.23,7.5 -28.35,0.58 -41.96,-1.86 4.58,2.77 9.22,5.45 13.88,8.16 -22.67,23.13 -46.86,44.93 -73.13,63.93 -38.43,29.67 -77.35,58.71 -115.03,89.3 4.68,-1.45 9.32,-3.02 13.98,-4.54 -5.97,17.6 -7.85,36.79 -5.34,55.19 6.2,16.34 21.49,27.35 27.81,43.84 -4.44,-3.6 -8.62,-10.79 -15.35,-8.16 -9.68,3.21 -12,14.22 -17.41,21.63 -6.52,0.92 -12.14,-5.09 -12.19,-11.4 -1.11,-9.1 -3.48,-22.11 -14.58,-23.44 -13.11,0.97 -18.88,16.97 -30.93,19.56 -7.75,-7.05 -10.98,-17.53 -11.78,-27.67 -1.35,-16.85 -8.4,-33.15 -19.39,-45.94 -4.94,-5.58 -12.04,-12.31 -8.35,-20.52 6.09,-15.26 24.41,-17.24 37.23,-24.14 -2.51,5.5 -4.98,11.05 -7.29,16.68 10.84,-13.64 19.31,-29.24 32.01,-41.28 14.36,-12.1 34.16,-13.43 50.24,-22.07 16.17,-13.57 31.79,-27.88 47.56,-41.96 2.15,3.77 2.99,9.17 7.55,10.91 6.62,1.72 13.14,-1.23 19.49,-2.75 -5.1,-1.18 -11.69,0.15 -15.16,-4.61 -2.23,-3.79 -1.62,-8.38 -0.95,-12.48 5.51,-30.47 24.7,-57.53 50.1,-74.84 6.08,-4.2 13.54,-5.24 20.64,-6.62 27.23,-29.09 52.97,-59.72 75.42,-92.68 15.79,-25.59 30.18,-52.05 44.66,-78.41 2.15,2.56 4.25,5.12 6.4,7.7 -3.48,-10.57 -7.17,-21.51 -5.89,-32.81 4.92,-37.32 24.43,-70.95 29.09,-108.32 2.85,-18.67 10.19,-36.17 15.04,-54.32 -10.36,20.4 -21,40.68 -31.31,61.1 -7.44,14.29 -15.77,28.8 -28.54,39.01 -12.31,9.76 -28.46,12.07 -43.65,13.4 -30.63,3.29 -61.58,1.77 -92.05,-2.34 -15.81,-2.03 -31.17,-6.69 -47.05,-8.18 32.28,11.13 65.93,18.3 100.04,20.2 33.49,2.01 68.18,3.02 100.12,-8.95 -5.34,16.15 -9.71,32.64 -11.01,49.63 -19.99,0.05 -39.98,-0.87 -59.9,-2.39 -55.16,-4.15 -111.44,-10.93 -162.16,-34.42 -23.97,-11.37 -47.24,-28.64 -57.19,-54.13 -8.62,-21 -4.18,-44.06 -7.27,-65.96 -4.05,-31.14 -11.83,-63.13 -31.02,-88.62 5.7,21.39 10.38,43.29 10.41,65.5 -1.89,30.61 -10.58,62.21 -31.53,85.46 -3.5,-55.04 -2.78,-110.35 1.71,-165.3 0.07,-7.03 3.67,-13.16 6.74,-19.22 84.81,16.71 169.98,31.63 255.3,45.56 0.41,5.12 0.92,10.23 1.47,15.38 -21.73,18.46 -50.96,21.12 -77.86,26.07 11.42,5.99 22.26,15.74 36.07,13.9 -2.92,0.75 -5.82,1.5 -8.69,2.3 4.25,4.66 8.52,9.32 12.82,13.98 4.56,-1.16 9.15,-2.32 13.76,-3.41 -4.42,2.51 -8.91,4.93 -13.37,7.37 -0.22,5.6 -0.44,11.22 -0.63,16.85 14.22,-2.27 28.24,-7.78 38.58,-18.06 12.74,-11.95 17.69,-29.38 21.29,-45.89 6.04,-2.35 13.5,-4.04 16.46,-10.51 3.6,-7.14 0.68,-15.13 -2.34,-21.87 9.06,-13.21 16.4,-27.5 22.82,-42.15 12.7,-29.14 24.04,-59.25 29.6,-90.65 4.8,-35.98 4.07,-72.41 3.4,-108.62 24.31,19.1 51.64,33.85 79.43,47.22 12.09,5.65 24.33,11.25 37.42,14.2 17.28,4.13 35.51,1.83 52.65,6.78 11.44,3.33 22.86,8.26 31.24,17.02 12.46,12.7 21,28.59 32.93,41.77 22.07,26.36 56.81,42.05 91.26,39.49 35.12,-2.6 67.14,-19.04 97.29,-36.09 69.5,-38.75 131.28,-89.93 187.94,-145.48 -0.99,-0.65 -2.94,-1.95 -3.93,-2.58 1.3,-3.09 2.53,-6.21 3.76,-9.32 -12.74,2.75 -25.15,10.79 -38.55,7.39 -7.36,-4.81 -8.06,-14.85 -11.54,-22.31 13.95,-11.71 34.88,-16.42 51.93,-8.98 9.22,3.84 15.23,12.17 21.46,19.58 -1.69,-4.66 -3.45,-9.3 -5.19,-13.93zm-61.42 4.03l0 0zm0 0c3.58,4.15 8.45,7.34 14.1,7.51 8.07,-0.17 15.4,-4.13 23.37,-4.88 6.45,2.1 12.05,6.13 18.13,9.1 -12.79,-17.35 -36.81,-16.36 -55.6,-11.73zm80.73 5.8l0 0zm0 0c10.94,-0.56 23.08,-1.77 31.22,7.16 -1.93,7.08 -3.4,15 0.46,21.73 6.66,11.74 23.34,15.24 34.81,8.67 15.69,-6.49 26.61,-19.89 38.29,-31.63 -13.47,5.92 -28.49,10.58 -43.24,7.49 -12.96,-2.49 -20.93,-15.14 -33.92,-17.46 -9.41,-1.47 -18.66,1.69 -27.62,4.04zm40.18 63.1l0 0zm0 0c18.1,4.11 36.76,-6.42 46.49,-21.48 -12.38,10.11 -27.54,21.29 -44.51,16.97 -9.71,-1.57 -16.01,-9.42 -21.83,-16.56 2.25,9.97 9.59,18.83 19.85,21.07zm-297.46 254l0 0zm0 0c-14.02,9.44 -29.5,16.78 -42.51,27.67 -3.16,3.26 -8.84,7.94 -4.88,12.67 4.61,0.36 9.22,-0.58 13.45,-2.44 34.06,-14.89 63.47,-38.07 92.08,-61.39 22.98,-19.05 46.52,-37.49 68.61,-57.55 -45.92,20.76 -85.37,52.79 -126.75,81.04zm-271.26 -57.27l0 0zm0 0c10.58,3.55 21.59,6.5 30.95,12.85 24.92,15.79 41.82,41.14 54.2,67.35 -2.24,-20.13 -8.83,-40.43 -21.77,-56.29 -5.92,-7.66 -14.9,-11.81 -21.92,-18.23 19.29,-2.9 37.44,5.65 56.27,7.7 -29.74,-15.16 -65.04,-23.95 -97.73,-13.38zm-199.94 418.63l0 0zm0 0c11.78,-7.85 21.97,-17.92 30.64,-29.07 21.43,-27.96 37.88,-59.27 56.15,-89.3 3.21,-3.94 -3.14,-7.27 -4.44,-10.6 -22.7,45.8 -49.35,89.83 -82.35,128.97zm-224.95 273.91l0 0zm0 0c-0.61,6.66 4.22,11.78 7.72,16.9 5.36,7.12 7.32,15.96 10.46,24.14 9.8,-15.83 -10.94,-29.52 -6.4,-45.65 1.83,-8.59 5.84,-16.51 8.69,-24.77 -9.83,6.9 -21.01,16.08 -20.47,29.38zm-642.23 -816.48c-13.54,-23.92 -19.43,-52.39 -15.57,-79.64 0.68,17.33 10.7,32.18 21.8,44.73 -4.25,-11.47 -9.03,-22.79 -11.61,-34.79 10.69,18.08 21.89,36.55 38.84,49.57 9.71,8.13 21.54,13.03 33.51,16.77 5.17,13.09 16.63,22 29.24,27.36 -13.23,-10.55 -22.41,-26 -23.4,-43.12 15.65,13.01 33.85,23.32 53.96,27.33 42.9,9.08 86.65,0.05 129.59,-3.74 -2.65,7.17 -4.82,14.53 -7.72,21.63 -8.23,2.24 -17.14,0.48 -25.64,0.99 -32.54,0.75 -65.33,3.74 -96.83,12.24 -14.3,3.5 -26,13.11 -39.79,17.86 -12.82,3.74 -26.65,4.61 -39.64,1.26 9.46,-1.19 19.31,-2.05 27.64,-7.17 -28.29,-3.05 -54.94,-15.55 -77.06,-33.17 -10.38,-8.36 -18.18,-19.63 -22.67,-32.16 7.32,6.47 15.09,13.3 25.35,14.05zm12.77 -26.07l0 0zm0 0c3.72,10.74 8.5,21.34 15.7,30.22 9.46,11.62 25.44,14.25 39.49,15.69 -9.29,-4.78 -19.1,-8.83 -27.26,-15.47 -10.74,-8.74 -19.04,-19.94 -27.93,-30.44zm1212.19 373.76c15,-4.8 30.95,-2.22 46.02,0.85 22.11,4.85 44.03,12.57 62.62,25.81 8.14,5.74 15.38,12.67 23.37,18.61 9.39,-1.06 19.94,-3.94 28.51,1.66 13.86,9.25 25.64,21.9 33.71,36.51 4.39,7.43 2.8,17.04 8.2,23.95 0.34,-2.35 1.02,-7.05 1.38,-9.42 36.82,26.44 74.94,51.78 106.68,84.45 16.18,15.11 31.1,31.48 46.82,47.05 9.29,10.26 17.76,25.64 33.77,24.75 22.36,-1.84 44.73,-8.67 67.28,-3.94 -2.46,4.4 -4.87,8.81 -6.88,13.45 6.21,-4.66 11.37,-11.61 19.53,-12.82 17.94,-3.04 38.41,-3.19 53.29,8.88 -5.32,-0.43 -12.05,-5.36 -16.08,-0.02 -3.94,6.59 -0.37,14.61 0.17,21.68 -4.04,4.71 -10.02,6.37 -16.01,6.59 -22.04,1.04 -44.69,4.2 -64.36,14.8 -13.16,7.36 -23.98,19.96 -39.6,22.06 -8.57,0.66 -18.01,0.2 -25.32,-4.75 -6.18,-5.65 -9.27,-13.76 -13.45,-20.84 3.53,-0.38 7.05,-0.74 10.6,-1.13 -14.22,-4.54 -30.25,-10.67 -36.86,-25.18 -5.05,-14.82 -1.5,-30.64 0.77,-45.63 -2.68,3.41 -5.31,6.83 -7.9,10.29 -17.74,-14.78 -35.89,-29.02 -53.52,-43.89 -12.36,3.93 -25.95,8.45 -38.55,2.75 -34.5,-13.67 -60.58,-41.41 -86.99,-66.46 6.88,-0.25 13.81,-0.46 20.69,-1.31 -62.57,-18.35 -125.8,-41.26 -176.91,-83.05 -6.47,-4.75 -10.84,-11.59 -13.62,-19.02 3.46,-15.31 18.69,-23.13 32.64,-26.68zm119.84 82.71l0 0zm0 0c-1.73,-9.97 -0.74,-20.01 2.49,-29.57 -9.15,6.98 -11.25,21.41 -2.49,29.57zm-1199.51 2.13l0 0zm0 0c-6.74,3.45 -14.32,5.84 -19.77,11.34 -5.44,5.75 -6.4,13.98 -8.12,21.35 -2.75,14.12 -8.66,27.57 -9.36,42.1 1.32,-0.77 4,-2.27 5.33,-3.02 11.16,-14.17 11.93,-33.6 21.71,-48.6 10.98,-15.11 30.78,-20.47 41.64,-35.7 2.68,-3.31 2.85,-7.73 3.48,-11.74 -11.81,7.85 -22,18.14 -34.91,24.27z"/>
   <path class="fil1" d="M1653.1 393.88c8.96,-2.35 18.21,-5.51 27.62,-4.04 12.99,2.32 20.96,14.97 33.92,17.46 14.75,3.09 29.77,-1.57 43.24,-7.49 -11.68,11.74 -22.6,25.14 -38.29,31.63 -11.47,6.57 -28.15,3.07 -34.81,-8.67 -3.86,-6.73 -2.39,-14.65 -0.46,-21.73 -8.14,-8.93 -20.28,-7.72 -31.22,-7.16zm-953.43 952.37c-0.54,-13.3 10.64,-22.48 20.47,-29.38 -2.85,8.26 -6.86,16.18 -8.69,24.77 -4.54,16.13 16.2,29.82 6.4,45.65 -3.14,-8.18 -5.1,-17.02 -10.46,-24.14 -3.5,-5.12 -8.33,-10.24 -7.72,-16.9zm224.95 -273.91c33,-39.14 59.65,-83.17 82.35,-128.97 1.3,3.33 7.65,6.66 4.44,10.6 -18.27,30.03 -34.72,61.34 -56.15,89.3 -8.67,11.15 -18.86,21.22 -30.64,29.07zm-721.89 -110.04c12.91,-6.13 23.1,-16.42 34.91,-24.27 -0.63,4.01 -0.8,8.43 -3.48,11.74 -10.86,15.23 -30.66,20.59 -41.64,35.7 -9.78,15 -10.55,34.43 -21.71,48.6 -1.33,0.75 -4.01,2.25 -5.33,3.02 0.7,-14.53 6.61,-27.98 9.36,-42.1 1.72,-7.37 2.68,-15.6 8.12,-21.35 5.45,-5.5 13.03,-7.89 19.77,-11.34zm1199.51 -2.13c-8.76,-8.16 -6.66,-22.59 2.49,-29.57 -3.23,9.56 -4.22,19.6 -2.49,29.57zm-277.68 -306.46c32.69,-10.57 67.99,-1.78 97.73,13.38 -18.83,-2.05 -36.98,-10.6 -56.27,-7.7 7.02,6.42 16,10.57 21.92,18.23 12.94,15.86 19.53,36.16 21.77,56.29 -12.38,-26.21 -29.28,-51.56 -54.2,-67.35 -9.36,-6.35 -20.37,-9.3 -30.95,-12.85zm271.26 57.27c41.38,-28.25 80.83,-60.28 126.75,-81.04 -22.09,20.06 -45.63,38.5 -68.61,57.55 -28.61,23.32 -58.02,46.5 -92.08,61.39 -4.23,1.86 -8.84,2.8 -13.45,2.44 -3.96,-4.73 1.72,-9.41 4.88,-12.67 13.01,-10.89 28.49,-18.23 42.51,-27.67zm-1325.61 -207.28c8.89,10.5 17.19,21.7 27.93,30.44 8.16,6.64 17.97,10.69 27.26,15.47 -14.05,-1.44 -30.03,-4.07 -39.49,-15.69 -7.2,-8.88 -11.98,-19.48 -15.7,-30.22zm1623.07 -46.72c-10.26,-2.24 -17.6,-11.1 -19.85,-21.07 5.82,7.14 12.12,14.99 21.83,16.56 16.97,4.32 32.13,-6.86 44.51,-16.97 -9.73,15.06 -28.39,25.59 -46.49,21.48zm187 -14.51c3.36,-4.34 6.06,-11.25 12.6,-10.91 25.47,-0.58 49.06,11.3 69.34,25.69 -0.7,0.17 -2.13,0.55 -2.83,0.72l-5.12 1.5c5.49,1.25 11.04,2.15 16.64,2.94 -11.64,-17.96 -27.98,-34.28 -48.67,-41.16 -15.98,-5.98 -31.96,-12.43 -48.99,-14.82 -33.87,-5.07 -68.03,-8.11 -102.12,-11.64 2.68,-0.24 8,-0.72 10.65,-0.94 -14.1,-16.42 -33.17,-28.78 -54.92,-31.5 5.82,5.52 11.66,11.1 17.11,17.04 -21.53,-10.67 -42.68,-28.39 -68.27,-24.36 -17.91,2.2 -31.17,15.67 -41.91,29.02 1.74,4.63 3.5,9.27 5.19,13.93 -6.23,-7.41 -12.24,-15.74 -21.46,-19.58 -17.05,-7.44 -37.98,-2.73 -51.93,8.98 3.48,7.46 4.18,17.5 11.54,22.31 13.4,3.4 25.81,-4.64 38.55,-7.39 -1.23,3.11 -2.46,6.23 -3.76,9.32 0.99,0.63 2.94,1.93 3.93,2.58 -56.66,55.55 -118.44,106.73 -187.94,145.48 -30.15,17.05 -62.17,33.49 -97.29,36.09 -34.45,2.56 -69.19,-13.13 -91.26,-39.49 -11.93,-13.18 -20.47,-29.07 -32.93,-41.77 -8.38,-8.76 -19.8,-13.69 -31.24,-17.02 -17.14,-4.95 -35.37,-2.65 -52.65,-6.78 -13.09,-2.95 -25.33,-8.55 -37.42,-14.2 -27.79,-13.37 -55.12,-28.12 -79.43,-47.22 0.67,36.21 1.4,72.64 -3.4,108.62 -5.56,31.4 -16.9,61.51 -29.6,90.65 -6.42,14.65 -13.76,28.94 -22.82,42.15 3.02,6.74 5.94,14.73 2.34,21.87 -2.96,6.47 -10.42,8.16 -16.46,10.51 -3.6,16.51 -8.55,33.94 -21.29,45.89 -10.34,10.28 -24.36,15.79 -38.58,18.06 0.19,-5.63 0.41,-11.25 0.63,-16.85 4.46,-2.44 8.95,-4.86 13.37,-7.37 -4.61,1.09 -9.2,2.25 -13.76,3.41 -4.3,-4.66 -8.57,-9.32 -12.82,-13.98 2.87,-0.8 5.77,-1.55 8.69,-2.3 -13.81,1.84 -24.65,-7.91 -36.07,-13.9 26.9,-4.95 56.13,-7.61 77.86,-26.07 -0.55,-5.15 -1.06,-10.26 -1.47,-15.38 -85.32,-13.93 -170.49,-28.85 -255.3,-45.56 -3.07,6.06 -6.67,12.19 -6.74,19.22 -4.49,54.95 -5.21,110.26 -1.71,165.3 20.95,-23.25 29.64,-54.85 31.53,-85.46 -0.03,-22.21 -4.71,-44.11 -10.41,-65.5 19.19,25.49 26.97,57.48 31.02,88.62 3.09,21.9 -1.35,44.96 7.27,65.96 9.95,25.49 33.22,42.76 57.19,54.13 50.72,23.49 107,30.27 162.16,34.42 19.92,1.52 39.91,2.44 59.9,2.39 1.3,-16.99 5.67,-33.48 11.01,-49.63 -31.94,11.97 -66.63,10.96 -100.12,8.95 -34.11,-1.9 -67.76,-9.07 -100.04,-20.2 15.88,1.49 31.24,6.15 47.05,8.18 30.47,4.11 61.42,5.63 92.05,2.34 15.19,-1.33 31.34,-3.64 43.65,-13.4 12.77,-10.21 21.1,-24.72 28.54,-39.01 10.31,-20.42 20.95,-40.7 31.31,-61.1 -4.85,18.15 -12.19,35.65 -15.04,54.32 -4.66,37.37 -24.17,71 -29.09,108.32 -1.28,11.3 2.41,22.24 5.89,32.81 -2.15,-2.58 -4.25,-5.14 -6.4,-7.7 -14.48,26.36 -28.87,52.82 -44.66,78.41 -22.45,32.96 -48.19,63.59 -75.42,92.68 -7.1,1.38 -14.56,2.42 -20.64,6.62 -25.4,17.31 -44.59,44.37 -50.1,74.84 -0.67,4.1 -1.28,8.69 0.95,12.48 3.47,4.76 10.06,3.43 15.16,4.61 -6.35,1.52 -12.87,4.47 -19.49,2.75 -4.56,-1.74 -5.4,-7.14 -7.55,-10.91 -15.77,14.08 -31.39,28.39 -47.56,41.96 -16.08,8.64 -35.88,9.97 -50.24,22.07 -12.7,12.04 -21.17,27.64 -32.01,41.28 2.31,-5.63 4.78,-11.18 7.29,-16.68 -12.82,6.9 -31.14,8.88 -37.23,24.14 -3.69,8.21 3.41,14.94 8.35,20.52 10.99,12.79 18.04,29.09 19.39,45.94 0.8,10.14 4.03,20.62 11.78,27.67 12.05,-2.59 17.82,-18.59 30.93,-19.56 11.1,1.33 13.47,14.34 14.58,23.44 0.05,6.31 5.67,12.32 12.19,11.4 5.41,-7.41 7.73,-18.42 17.41,-21.63 6.73,-2.63 10.91,4.56 15.35,8.16 -6.32,-16.49 -21.61,-27.5 -27.81,-43.84 -2.51,-18.4 -0.63,-37.59 5.34,-55.19 -4.66,1.52 -9.3,3.09 -13.98,4.54 37.68,-30.59 76.6,-59.63 115.03,-89.3 26.27,-19 50.46,-40.8 73.13,-63.93 -4.66,-2.71 -9.3,-5.39 -13.88,-8.16 13.61,2.44 28.73,9.36 41.96,1.86 14.58,-8.16 27.25,-19.41 38.67,-31.53 6.33,-7.2 13.28,-14.95 14.75,-24.8 1.23,-10.72 -4.34,-20.45 -9.17,-29.55 4.25,4.08 8.33,8.33 12.31,12.7 20.14,-32.61 42.73,-63.64 65.01,-94.78 22.22,-30.47 44.26,-61.08 67.48,-90.75 -3.69,9.25 -8.16,18.13 -12.21,27.18 23.39,-9.07 45.29,-22.62 63.1,-40.38 20.77,-23.95 34.21,-53.09 47.22,-81.7 -3.59,15.43 -9.82,31.07 -7.38,47.12 3.06,11.52 17.69,10.34 26.38,6.57 42.33,-19.77 82.76,-43.36 122.31,-68.18 29.06,-18.73 58.69,-37.15 83.77,-61.17 33.75,-30.61 64.7,-64.1 97.8,-95.36 22.14,-19.34 43.04,-40.87 69.89,-53.81 -14.94,-11.62 -21.87,-30.26 -22.69,-48.7 9.1,21.22 28,37.35 50.33,43.17 33.15,10.47 67.79,1.66 100.36,-6.47 13.25,-3.72 27.14,-2.83 40.73,-3.31 -3.99,-2.75 -7.78,-6.45 -12.89,-6.57 -20.38,-2.31 -40.66,2.22 -61.01,2.37 20.69,-6.04 42.22,-8.16 63.45,-11.57 0.69,-10.38 8.78,-16.94 17.11,-21.75 -2.41,2.9 -4.85,5.75 -7.27,8.6 0.08,4.78 -0.12,9.65 0.9,14.36 3.6,7.85 11.85,11.81 19.31,15.19 12.65,5.36 25.04,11.54 38.36,15.21 14.49,4.56 30.23,8.9 45.17,3.64 15.43,-3.52 24.84,-18.93 40.8,-21.12 15.36,-4.03 30.45,2.41 45.56,4.27 4.25,0.92 10.72,-0.31 11.25,-5.55 1.01,-7.68 -3.69,-16.03 -11.66,-17.55 -0.19,3.91 -0.36,7.84 -0.44,11.78 -10.14,-1.04 -20.28,-1.74 -30.44,-1.55 -9.8,0.15 -19.36,-3.96 -29.14,-2.12 -11.15,1.71 -20.57,8.52 -31.33,11.47 -16.03,4.87 -33.61,2.85 -48.82,-3.82 -7.85,-3.69 -15.4,-9.39 -18.93,-17.55 -2.58,-7.19 2.01,-14.53 6.59,-19.8 10.02,-10.38 26.08,-10.62 39.4,-8.33 27.38,4.21 47.54,27 74.87,31.27 15.3,2.61 30.42,-9.44 33.36,-24.26 3.7,-14.2 -3.52,-27.86 -7.51,-41.14 11.49,16.17 17.29,36.86 11.47,56.35 5.02,-3.77 11.49,-7.78 10.58,-15.09 2.41,-15.02 -8.07,-26.87 -14.39,-39.31 12.7,15.19 28.97,35.08 18.75,55.92 0.2,4.7 -0.02,9.44 0.42,14.14 1.23,4.71 4.27,9.25 3.35,14.32 -1.69,2.68 -4.08,4.76 -6.23,7 1.72,4.71 4.61,10.02 2.27,15.04 -3.23,3.98 -8.23,7.39 -13.59,6.59 -13.76,-1.52 -26.82,-9.75 -40.97,-6.61 -10.33,1.37 -19.24,7.34 -26.43,14.6 -11.86,12.07 -30.3,16.3 -46.55,12.46 -24.38,-6.06 -46.14,-19.36 -69.99,-26.87 -14.8,0.6 -30.01,0.58 -44.23,5.34 -30.22,8.76 -61.44,14.96 -92.92,16.05 -13.88,0.89 -27.71,-2.54 -39.69,-9.54 -30.42,18.13 -57.48,41.31 -82.32,66.42 -35.15,34.84 -67.04,73.27 -106.61,103.35 -40.29,30.56 -83.68,56.73 -127.3,82.23 10.14,8.47 22.47,13.54 33.96,19.82 28.4,15.04 58.36,28.37 82.28,50.31 22.16,-3.21 40.61,12.58 53.09,28.99 4.01,4.98 6.28,11.21 10.52,16.01 33.66,27.4 67.58,54.59 99.88,83.6 20.88,19.44 40.29,40.35 60.04,60.89 7.99,7.51 15.67,15.96 25.71,20.79 5.72,0.94 11.66,0.75 17.36,-0.56 16.47,-3.79 33.7,-6.13 50.48,-2.87 11.9,2.9 24.07,-0.48 36.14,0.53 14.78,0 30.32,6.59 38.22,19.58 5.82,5.84 13.06,10.57 16.29,18.56 -3.81,11.18 -16.58,13.57 -26.58,16.18 -28.44,6.06 -56.68,13.49 -83.82,24.02 -18.93,7.1 -34.28,22.77 -55.06,24.82 -12.27,1.88 -24.44,-4.44 -31.29,-14.46 -7.03,-10.53 -11.08,-22.67 -17.05,-33.75 -13.52,-4.66 -21.19,-17.92 -22.69,-31.56 -4.01,-3.11 -7.99,-6.18 -12.1,-9.07 4.66,25.39 -5.91,50.36 -18.05,72.13 -23.3,40.42 -54.73,75.33 -86.96,108.76 -35.47,35.51 -71.2,71.17 -111.8,100.89 -70.31,51.95 -152.92,86.48 -238.77,102.39 -64.24,12.16 -130.08,14.77 -195.26,10.52 -103.18,-6.13 -206.41,-29.38 -298.68,-76.87 -88.17,-44.37 -163.88,-111.31 -222.83,-190.11 -59.63,-78.73 -101.74,-170.45 -123.34,-266.77 -23.76,18.76 -51.43,34.4 -67.89,60.69 -23.42,34.77 -43.24,71.75 -62.53,108.91 -7.63,15.69 -16.22,30.94 -22.4,47.31 -4.32,11.37 -11.18,21.59 -14.97,33.17 -6.79,16.88 -11.3,34.55 -15.19,52.3 -2.22,9.07 0.8,18.2 1.33,27.28 1.23,11.2 1.33,23.41 8.84,32.59 10.84,17.45 26.94,34.5 25.42,56.54 -0.6,5.72 -0.07,14.77 -7.37,16.34 -12.6,3.38 -26.19,2.51 -38.79,-0.5 -13.76,4.78 -28.58,2.92 -42.85,2.51 -6.3,-0.53 -15,-1.96 -16.44,-9.39 -4.04,-17.44 -4.86,-35.61 -10.14,-52.78 -4.13,-14.53 -19.56,-22.89 -21.59,-38.34 -2.77,-12.86 9.88,-20.56 14.44,-31.07 9.32,-16.87 -1.54,-37.9 8.81,-54.41 6.76,-10.89 19.73,-14.66 29.77,-21.08 19.82,-42.25 38.77,-84.98 57.92,-127.56 12.62,-29.17 26.89,-57.78 35.51,-88.49 5.55,-16.58 7.58,-34.28 14.31,-50.48 6.77,-13.32 23.98,-12.41 34.46,-21.24 25.97,-19.56 48.16,-43.55 71.53,-66.03 -6.79,-102.51 4.37,-206.41 35.27,-304.53 -38.22,-1.83 -76.99,1.16 -113.95,11.4 -21.34,5.53 -40.17,19.36 -62.62,20.62 -27.82,0.87 -55.19,-9.13 -77.74,-25.02 16.25,3.63 32.9,7.15 49.66,5.34 -32.76,-8.47 -62.7,-30.95 -76.8,-62.17 -8.13,-17.86 -12.38,-37.78 -11.13,-57.41 6.01,17.15 15.38,33.01 27.52,46.55 -13.63,-31.67 -8.81,-71 14.47,-96.9 -1.02,11.87 -4.76,25.17 2.14,35.99 11.71,19.77 25.91,38.27 43.1,53.6 7.12,6.32 15.55,11.1 24.7,13.85 0.12,-7.02 2.48,-13.64 6.47,-19.38 10.98,18.83 31.86,29.09 52,35.2 44.93,11.58 91.28,1.06 136.57,-2.3 37.59,-96.93 95.55,-185.53 167.69,-260.22 61.54,-63.69 135.6,-115.81 217.88,-149.06 111.13,-45.41 234.44,-56.44 352.96,-41.09 111.94,14.9 219.9,53.53 319.13,106.86 17.5,-21.34 33.27,-44.04 49.63,-66.27 12.12,-14.46 25.91,-31.05 45.97,-33.25 11.97,0.08 25.2,1.74 34.43,10.19 6.68,6.11 9.19,15.23 10.81,23.83 4.61,24.75 6.59,49.9 7.68,75.01 6.59,90.99 11.73,182.1 18.47,273.07 10.86,-8.96 21.75,-17.89 32.71,-26.7 -14.87,-4.18 -17.94,-20.59 -20.86,-33.53 2.1,-1.99 4.13,-4.06 6.06,-6.23 -0.94,-4.78 -2.17,-9.47 -3.31,-14.2 12.36,-12.65 29.53,-20.71 47.44,-19.68 10.67,-0.29 19.49,6.43 27.16,13.02 1.98,-7.41 -3.86,-12.39 -10.98,-12.99 6.06,-2.92 12.77,-2.58 18.88,0.02 -3.6,-5.67 -9.59,-7.79 -15.96,-8.66 7.87,-1.81 16.03,-2.68 23.97,-0.66 -4.18,-6.54 -11.97,-6.01 -18.8,-6.59 9.43,-4.27 20.01,-5.45 29.23,-0.12 -3.81,-8.04 -12.94,-9.49 -20.81,-10.69 11.13,-1.76 22.45,-2.25 33.46,0.46 -5.91,-7.66 -15.4,-10.77 -23.78,-14.85 14.54,0.46 28.95,3.81 41.72,10.91 -5.99,-12.14 -18.95,-17.11 -30.69,-21.87 0.49,-0.12 1.45,-0.34 1.96,-0.44 12.14,2.8 26.15,1.81 36.19,10.41 5.65,4.32 8.42,11.08 11.73,17.16 5.63,-6.92 0.34,-15.37 -2.73,-22.21 11.59,8.11 19.08,19.97 25.21,32.43 1.28,-6.14 -0.49,-12 -2.27,-17.77 7.51,5.77 12.12,14.31 12.55,23.85 18.93,6.01 32.26,21.92 43.17,37.71 44.11,0.75 89.37,0.1 131.81,13.83 21.1,7.7 44.59,17.92 54.76,39.4 4.17,2.37 9.1,4.01 12.26,7.82 0.97,4.67 0.19,12.27 -5.99,12.39 0.61,-3.4 1.43,-6.74 2.27,-10.09 -2.65,-2.75 -5.36,-5.48 -8.04,-8.19 1.36,6.81 2.71,13.64 4.23,20.43 -24.14,-9.75 -49.2,-16.8 -73.97,-24.65 9.99,0.84 20.04,2.08 29.69,5.02 9.83,2.83 19.24,7.58 29.67,7.99 -16.44,-10.28 -34.57,-19.92 -54.29,-21 -5.36,-0.15 -14.41,1.35 -13.14,8.57 5.15,7.8 15.12,9 23.37,11.54 16.98,4.92 34.7,7 51.26,13.4 -20.26,-0.22 -40.51,-2.73 -60.16,-7.53 -13.77,-3 -24.22,-14.15 -38.46,-15.7 -18.13,-2.36 -35.9,-6.54 -53.77,-10.26 14.3,0.05 28.44,2.42 42.73,2.59 7.88,0.04 15.67,1.25 23.35,2.89zm-307.91 -54.39c18.79,-4.63 42.81,-5.62 55.6,11.73 -6.08,-2.97 -11.68,-7 -18.13,-9.1 -7.97,0.75 -15.3,4.71 -23.37,4.88 -5.65,-0.17 -10.52,-3.36 -14.1,-7.51zm-765.54 -298.68l0 0zm0 0c-70.08,14.99 -137.51,42.39 -198.06,80.78 -76.21,48.06 -140.84,112.96 -193.67,185.62 -59.41,81.43 -102.45,174.84 -124.86,273.15 -20.9,90.77 -25.15,185.07 -15.57,277.63 7.32,65.88 22.57,131.06 47.25,192.68 32.03,80.7 79.81,154.96 139.13,218.31 60.47,65.52 135.41,117.45 217.78,151.47 99.73,41.5 208.59,57.89 316.19,56.8 37.25,0 74.55,-2.68 111.29,-8.86 91.43,-14.22 179.88,-49.51 254.51,-104.48 41.5,-30.37 77.88,-66.97 114.09,-103.28 30.08,-31.39 59.44,-64.05 81.72,-101.57 12.68,-22.21 24.36,-47.56 19.75,-73.78 -15.18,-9.46 -30.25,-19.12 -45.72,-28.05 -16.86,2.39 -29.05,16.83 -38.87,29.77 -28.32,40.99 -58.79,80.68 -93.58,116.44 -54.53,56.92 -120.13,105.66 -195.96,129.69 -102.65,32.35 -219.13,14.31 -308.68,-44.91 -32.97,-21.24 -61.99,-47.99 -88.45,-76.82 -3.89,3.09 -7.75,6.21 -11.64,9.3 31.07,34.74 66.66,65.74 106.85,89.54 74.29,44.52 163.93,61.95 249.61,50.26 55.33,-7.82 108.13,-29.5 154.96,-59.65 73.37,-47.22 132.93,-112.82 183.6,-183.19 9.61,-12.89 17.56,-27.31 29.84,-37.95 11.71,-13.09 39.74,-11.49 43.19,8.09 3.75,25.18 -8.64,48.83 -21.31,69.62 -26.7,42.03 -61.35,78.24 -96.33,113.4 -30.44,29.23 -60.79,58.88 -95.29,83.41 -38.58,27.86 -80.83,50.55 -125.25,67.59 -99.9,38.51 -209.04,46.31 -314.98,37.13 -60.16,-4.87 -119.93,-16.2 -177.3,-35.15 -77.37,-25.35 -150.04,-65.52 -211.5,-119.02 -71.92,-62.98 -130.32,-141.42 -170.25,-228.28 -56.35,-122.67 -73.3,-261.03 -60.31,-394.7 10.26,-108.54 44.37,-214.94 100.46,-308.53 46.06,-76.58 104.7,-146.06 174.78,-201.73 68.2,-54.08 148.26,-93.14 233,-113.06 75.73,-18.2 154.53,-21.97 231.93,-14.66 123.56,12.41 242.6,55.22 350.83,115.16 18.78,-23.2 36.55,-47.2 53.84,-71.53 7.41,-10.17 15.3,-20.28 25.39,-27.93 8.98,-7.37 23.78,-6.98 32.6,0.31 6.71,12.19 6.06,26.85 8.25,40.29 5.24,56.28 7.37,112.75 11.86,169.07 3.28,53.33 6.85,106.61 10.59,159.92 4.66,-3.79 9.4,-7.51 14.2,-11.09 -6.35,-97.22 -12.7,-194.41 -19.24,-291.61 -2.25,-22.59 -2.51,-45.74 -9.42,-67.57 -5.72,-17.79 -28.03,-21.99 -44.13,-18.47 -17.31,5.8 -29.07,20.91 -39.76,34.86 -14.03,19.75 -28.39,39.23 -43.19,58.4 -1.86,1.77 -3.07,4.81 -5.63,5.53 -9.14,-4.03 -17.74,-9.22 -26.79,-13.49 -104.83,-53.07 -219.07,-89.55 -336.59,-98.5 -68.56,-4.18 -137.97,-1.45 -205.16,13.64zm50.75 110.23l0 0zm0 0c-43.51,24.65 -79.62,60.62 -109.65,100.26 -52.34,70.49 -84.74,154.24 -102.27,239.85 -13.37,67.53 -19.27,136.45 -18.66,205.23 -0.39,58.93 3.98,117.93 13.08,176.17 16.25,104.26 50.8,207.09 111.03,294.43 3.74,-3.33 7.49,-6.64 11.28,-9.92 -9.73,-14.9 -19.41,-29.84 -27.96,-45.46 -58.88,-106.01 -83.85,-227.47 -90.58,-347.6 -4.68,-90.36 -1.11,-181.62 16.78,-270.51 14.39,-70.78 39.35,-139.9 77.59,-201.39 36.02,-57.26 84.45,-109.27 146.57,-138.21 47.8,-22.46 101.3,-31.17 153.83,-29.41 49.66,1.23 99.27,12.53 143.74,34.84 48.19,23.63 89.64,59.48 123.22,101.08 55.65,68.47 107.07,141.45 142.99,222.37 4.16,-2.87 8.33,-5.69 12.51,-8.52 -38.22,-85.34 -93.17,-162.06 -152.65,-233.79 -35.78,-41.62 -79.52,-77.01 -129.76,-99.63 -54.23,-24.82 -114.77,-34.43 -174.12,-31.17 -51.2,2.78 -102.29,15.81 -146.97,41.38zm59.75 -5.36l0 0zm0 0c-54.51,17.77 -101.47,53.74 -137.95,97.44 6.38,9.73 5.94,21.58 3.94,32.54 11.08,-8.04 13.95,-22.53 9.75,-35.08 9.78,7.2 15.14,18.81 14.7,30.93 4.2,-5.82 8.98,-11.86 9.61,-19.29 1.72,-12.15 -3.79,-23.56 -9.56,-33.85 7.24,3.24 14.03,7.75 18.66,14.29 8.53,10.99 10.41,25.13 13.52,38.27 8.84,-18.59 0.03,-39.16 -5.69,-57.34 18.56,13.47 26.02,36.62 28.8,58.45 2.41,-4.66 3.59,-9.78 4.58,-14.9 -1.64,-8.66 -4.2,-17.09 -8.04,-25.03 19.92,7.41 27.31,29.86 28.42,49.3 4.56,-6.64 3.65,-14.8 4.08,-22.43 3.6,7.51 5.89,15.52 8.38,23.44 9.46,-10.02 5.19,-24.14 2.05,-35.76 13.71,12.82 17.07,32.11 21.94,49.35 3.77,-6.76 2.8,-14.53 2.08,-21.9 9.39,9.66 14.12,22.36 17.6,35.11 0.94,-5.24 1.47,-10.53 2.03,-15.82 5.94,8.98 8.69,19.46 11.49,29.75 0,-4.01 -0.02,-11.98 -0.05,-15.99 3.79,6.6 5.72,13.93 7.12,21.35 1.16,1.16 3.48,3.5 4.64,4.66 5.45,-4.74 14.36,-5.97 18.37,1.2 6.59,12.24 18.9,22.55 17.96,37.59 23.85,18.18 50.6,31.99 77.38,45.24 12.41,6.14 24.91,12.39 38.43,15.65 16.97,4.27 34.81,2.34 51.81,6.47 14.68,2.87 27.74,10.91 39.3,20.08 14.61,11.47 25.09,26.99 36.79,41.17 21.68,24.55 56.13,36.55 88.41,31.89 39.31,-4.9 74.67,-24.7 107.6,-45.53 -27.13,-61.93 -63.78,-119.17 -104.02,-173.29 -21.52,-28.13 -42.86,-56.57 -67.63,-81.97 -44.61,-45.51 -101.58,-79.35 -163.92,-93.64 -63.3,-14.32 -130.75,-12.7 -192.58,7.65zm-158.81 123.82l0 0zm0 0c0.58,1.65 1.77,4.9 2.35,6.52 2.27,-5.26 4.12,-10.72 5.79,-16.22 -2.73,3.21 -5.48,6.44 -8.14,9.7zm8.16 22.7l0 0zm0 0c-9.99,3.4 -18.27,10.23 -26.7,16.37 -5.36,4.2 -11.46,8.11 -14.48,14.48 -7.85,14.82 -14.95,30.01 -21.9,45.24 1.74,4.93 0.63,12.8 6.88,14.46 13.96,5.17 28.92,6.57 43.5,9.01 42.28,6.32 84.98,9.75 127.69,11.39 23.42,0.22 47.27,1.14 70.21,-4.37 5.96,-0.84 9.27,-6.47 11.37,-11.51 4.92,-12.51 6.97,-25.88 9.08,-39.06 -6.62,-7.29 -12.94,-14.9 -20.26,-21.51 -12.58,-11.57 -28.15,-19.44 -44.16,-25.11 -29.74,-8.81 -60.59,-13.5 -91.47,-15.79 -16.8,-1.28 -33.8,1.09 -49.76,6.4zm206.83 42.46l0 0zm0 0c1.25,1.14 3.76,3.46 5.02,4.59 2.29,14.94 -2.27,29.94 -5.72,44.37 -2.78,8.11 -4.73,17.8 -11.93,23.25 -9.34,3.19 -19.29,3.98 -29.02,5.05 -37.44,2.58 -74.98,0.55 -112.38,-1.81 6.28,2.34 12.51,4.87 18.57,7.77 8.16,-6.25 22.18,-2.99 23.75,7.99 0.49,12.29 -1.01,24.63 -1.9,36.87 -0.15,4.56 -3.09,8.08 -5.8,11.41 -0.14,9.01 -6.47,17.75 -16.2,16.81l-0.14 3.62c7.89,-1.55 17.72,1.98 18.88,10.89 1.83,15.33 -13.79,24.21 -24.53,31.74 -0.15,6.45 -0.94,13.18 1.21,19.41 2.8,10.22 16.87,13.47 25.08,7.92 6.69,-5.58 8.64,-14.65 9.9,-22.84 2.03,-15.28 4.54,-30.54 5.21,-45.94 -3.93,-1.93 -8.98,-2.99 -10.91,-7.41 -5.84,-8.69 1.09,-22.57 11.88,-21.7 13.08,1.95 26.14,4.56 39.42,4.51 5.84,4.64 10.38,12.43 6.62,19.82 -2.06,5.89 -8.14,7.85 -13.74,8.62 -6.78,25.88 -2.8,55.24 -18.01,78.46 -10.4,15.62 -29.82,20.91 -47.66,20.5 30.69,4.08 61.01,10.62 91.77,14.17 9.77,-6.62 14.82,-18.01 20.69,-27.88 16.12,-31.07 28.41,-64.39 34.62,-98.89 5.55,-39.81 8.49,-79.98 8.59,-120.15 0.97,-9.08 -6.32,-15.55 -9.85,-23.16 -2.49,-4.75 -7.17,-12.6 -13.42,-7.99zm-276.33 49.86l0 0zm0 0c-5.07,13.61 -10.79,27.16 -14.1,41.33 0.92,29.23 -0.05,59.24 -11.15,86.76 -5.46,16.88 -18.13,31.17 -18.21,49.66 56.76,13.52 114.58,21.97 171.75,33.42 -10.86,-4.04 -22.07,-9.49 -28.63,-19.49 -6.76,-9.53 -7.95,-21.63 -7.51,-32.98 -9.08,-2.51 -18.37,-5.14 -26.12,-10.67 -20.28,-13.4 -30.42,-39.2 -27.28,-62.96 2.99,-29.79 26.51,-58.01 57.21,-61.05 -21.41,-3.77 -43.23,-4.62 -64.5,-9.23 -11.3,-2.6 -25.86,-2.7 -31.46,-14.79zm-639.74 96.66l0 0zm0 0c-10.26,-0.75 -18.03,-7.58 -25.35,-14.05 4.49,12.53 12.29,23.8 22.67,32.16 22.12,17.62 48.77,30.12 77.06,33.17 -8.33,5.12 -18.18,5.98 -27.64,7.17 12.99,3.35 26.82,2.48 39.64,-1.26 13.79,-4.75 25.49,-14.36 39.79,-17.86 31.5,-8.5 64.29,-11.49 96.83,-12.24 8.5,-0.51 17.41,1.25 25.64,-0.99 2.9,-7.1 5.07,-14.46 7.72,-21.63 -42.94,3.79 -86.69,12.82 -129.59,3.74 -20.11,-4.01 -38.31,-14.32 -53.96,-27.33 0.99,17.12 10.17,32.57 23.4,43.12 -12.61,-5.36 -24.07,-14.27 -29.24,-27.36 -11.97,-3.74 -23.8,-8.64 -33.51,-16.77 -16.95,-13.02 -28.15,-31.49 -38.84,-49.57 2.58,12 7.36,23.32 11.61,34.79 -11.1,-12.55 -21.12,-27.4 -21.8,-44.73 -3.86,27.25 2.03,55.72 15.57,79.64zm723.13 -57.72l0 0zm0 0c-29.48,13.11 -42.18,52.38 -27.57,80.73 14.17,28.8 57.26,38.5 81.74,17.31 5.29,-4.03 10.6,-8.89 11.27,-15.94 -6.75,0.2 -10.38,6.33 -15.21,10.05 -8.4,7.43 -20.76,11.03 -31.5,6.78 -12.94,-4.61 -20.38,-18.13 -22.72,-30.97 -2.07,-18.09 -0.21,-38 11.06,-53 6.37,-8.88 18.25,-13.54 28.85,-10.09 11.83,2.76 18.59,14.2 22.96,24.6 2.29,4.59 2.51,11.42 8.74,12.44 1.06,-13.28 2.12,-26.58 2.43,-39.91 -4.36,1.33 -7.96,4.13 -11.44,6.98 -16.49,-12.17 -39.35,-17.63 -58.61,-8.98zm8.83 35.85l0 0zm0 0c3.55,-0.92 7.07,-3.26 10.89,-2.34 10.19,1.76 20.38,3.52 30.68,4.46 -4.51,-9.2 -9.36,-23.08 -21.84,-22.64 -11.16,-0.29 -16.11,11.87 -19.73,20.52zm1042.16 15.18l0 0zm0 0c4.42,0.65 8.93,1.98 13.47,1.16 3.26,-3.93 5.22,-8.71 7.66,-13.18 -8.89,-0.22 -16.69,4.54 -21.13,12.02zm22.6 -11.83l0 0zm0 0c-2.42,4.66 -4.9,9.37 -5.89,14.56 5.5,0.85 11.1,1.67 16.46,3.43 5.41,-4.1 7.82,-10.6 10.96,-16.37 -7.17,-0.75 -14.34,-1.42 -21.53,-1.62zm15.62 17.07l0 0zm0 0c5.55,1.67 11.27,2.85 16.99,4.11 3.26,-3.26 5.68,-7.15 7.51,-11.38 -5.55,-2.48 -11.05,-5.04 -16.53,-7.62 -3.24,4.66 -5.8,9.68 -7.97,14.89zm-1074.32 -10.98l0 0zm0 0c1.81,6.01 10.09,5.81 12,11.44 0.6,10.91 -2.37,21.63 -3.11,32.5 7.43,0.67 14.41,-1.69 20.25,-6.26 1.18,-8.57 1.11,-17.74 5.12,-25.59 4.15,-2.24 9.08,-2.19 13.59,-3.23 -2.87,-2.27 -5.99,-4.52 -9.8,-4.49 -12.72,-1.19 -25.33,-3.46 -38.05,-4.37zm1099.96 4.63l0 0zm0 0c-1.4,2.95 -2.78,5.89 -4.13,8.84 7.02,4.1 16.87,5.67 24.36,2 -6.59,-3.91 -13.38,-7.46 -20.23,-10.84zm-54.52 23.71l0 0zm0 0c1.26,-6.01 2.83,-12.02 2.49,-18.2 -3.98,-1.16 -8.01,-2.2 -12,-3.19 -1.69,8.76 2.54,16.27 9.51,21.39zm-1054.47 -17.65l0 0zm0 0c1.09,8.4 2.39,16.95 6.91,24.29 1.18,-5.89 2.05,-11.83 2.8,-17.79 -3.34,-2.03 -6.57,-4.18 -9.71,-6.5zm84.4 -1.04l0 0zm0 0c2.03,6.72 11.88,5.63 13.3,12.58 1.38,13.76 -1.61,27.45 -2.94,41.11 -1.52,13.79 -3.31,29.14 -13.59,39.45 -10.38,10.48 -28.71,8.89 -39.02,-0.84 -7.07,-7.46 -8.18,-18.32 -8.2,-28.13 -6.67,0.94 -13.35,1.43 -20.07,1.57 0.2,8.04 0.51,16.49 4.78,23.59 5,9.2 15,14.22 24.8,16.68 13.54,3.45 29.26,3.89 41.16,-4.56 9.58,-6.3 14.03,-17.67 16.34,-28.44 3.96,-19.05 3.53,-38.92 9.23,-57.6 1.23,-6.21 8.57,-5.75 13.4,-6.69 0.02,-1.09 0.07,-3.26 0.09,-4.37 -13.13,-1.14 -26.14,-3.4 -39.28,-4.35zm976.57 1.98l0 0zm0 0c-3.82,5.17 -4.25,11.62 -4.08,17.8 6.78,2.29 13.69,5.16 21.03,4.12 0.53,-6.39 1.23,-12.79 2,-19.16 -5.79,-2.83 -12.7,-4.45 -18.95,-2.76zm125.68 8.4l0 0zm0 0c-1.45,0.71 -4.39,2.13 -5.84,2.83 3.23,0.96 6.71,1.83 10.09,0.72 -0.34,-3.69 -0.6,-7.41 -0.82,-11.1 -1.23,2.49 -2.37,5 -3.43,7.55zm-104.87 -5.72l0 0zm0 0c-0.9,6.71 -2.03,13.35 -3.24,20.02 7.54,-0.1 15.09,-0.75 22.53,-2.13 0.19,-4.97 0.41,-9.94 0.6,-14.92 -6.44,-1.88 -13.08,-4.15 -19.89,-2.97zm20.79 17l0 0zm0 0c7.5,-3.82 16.73,-5.31 22.57,-11.86 -6.57,-0.6 -13.21,-0.91 -19.51,-2.94 -2.65,4.51 -3.19,9.63 -3.06,14.8zm-965.22 125.27l0 0zm0 0c-5.15,3.96 -2.93,11.03 -1.45,16.25 -9.93,7.7 -20.55,14.8 -32.35,19.29 -13.33,4.22 -27.07,7.17 -40.95,8.84 4.35,2.34 8.5,5.43 13.35,6.73 10.96,0.87 20.77,-5.17 31.44,-6.25 -4.91,7.94 -13.28,12.38 -21.59,15.98 2.01,1.79 3.94,3.52 5.94,5.33 14.17,-3.88 25.54,-13.32 36.82,-22.23 -3.94,16.51 -17.12,29.12 -32.62,35.17 -0.05,1.7 -0.14,5.12 -0.19,6.84 9.87,-2.37 18.97,-7.44 26.43,-14.27 13.93,-12.99 19.34,-32.18 22.29,-50.36 5.89,-0.12 13.4,-1.57 15.01,-8.28 2.95,-11.61 -13.42,-20.69 -22.13,-13.04zm-270.9 193.33l0 0zm0 0c7.19,69.19 20.93,138.26 45.89,203.35 0.07,-11.9 -3.84,-23.25 -6.66,-34.67 10.55,4.15 16.1,14.73 17.96,25.35 3,9.92 2.56,22.64 11.83,29.24 17.58,11.87 38.82,17.79 55,31.81 4.1,3.22 6.1,8.09 7.55,12.94 -23.44,-11.54 -47.19,-22.47 -72.16,-30.44 2.63,6.04 4.61,12.53 8.48,17.96 27.47,12.27 55.91,22.67 82.56,36.82 6.76,-14.03 15.07,-27.28 25.04,-39.25 -23.37,-12.27 -49.93,-21.49 -67.31,-42.37 -8.64,-16.61 -11.35,-35.76 -19.99,-52.42 -5.72,-8.23 -15.31,-12.41 -23.66,-17.43 -7.34,-4.22 -13.11,-10.55 -18.66,-16.82 9.17,4.82 18.71,9.22 29.04,11.03 1.62,-5.12 3.02,-10.43 2.1,-15.81 -2.65,-22.99 -9.46,-45.17 -15.71,-67.36 -4.42,-14.68 -9.69,-30.18 -21.56,-40.58 -10.72,-9.68 -25.96,-11.11 -39.74,-11.35zm629.52 10.21l0 0zm0 0c-13.95,3.55 -29.18,11.37 -32.64,26.68 2.78,7.43 7.15,14.27 13.62,19.02 51.11,41.79 114.34,64.7 176.91,83.05 -6.88,0.85 -13.81,1.06 -20.69,1.31 26.41,25.05 52.49,52.79 86.99,66.46 12.6,5.7 26.19,1.18 38.55,-2.75 17.63,14.87 35.78,29.11 53.52,43.89 2.59,-3.46 5.22,-6.88 7.9,-10.29 -2.27,14.99 -5.82,30.81 -0.77,45.63 6.61,14.51 22.64,20.64 36.86,25.18 -3.55,0.39 -7.07,0.75 -10.6,1.13 4.18,7.08 7.27,15.19 13.45,20.84 7.31,4.95 16.75,5.41 25.32,4.75 15.62,-2.1 26.44,-14.7 39.6,-22.06 19.67,-10.6 42.32,-13.76 64.36,-14.8 5.99,-0.22 11.97,-1.88 16.01,-6.59 -0.54,-7.07 -4.11,-15.09 -0.17,-21.68 4.03,-5.34 10.76,-0.41 16.08,0.02 -14.88,-12.07 -35.35,-11.92 -53.29,-8.88 -8.16,1.21 -13.32,8.16 -19.53,12.82 2.01,-4.64 4.42,-9.05 6.88,-13.45 -22.55,-4.73 -44.92,2.1 -67.28,3.94 -16.01,0.89 -24.48,-14.49 -33.77,-24.75 -15.72,-15.57 -30.64,-31.94 -46.82,-47.05 -31.74,-32.67 -69.86,-58.01 -106.68,-84.45 -0.36,2.37 -1.04,7.07 -1.38,9.42 -5.4,-6.91 -3.81,-16.52 -8.2,-23.95 -8.07,-14.61 -19.85,-27.26 -33.71,-36.51 -8.57,-5.6 -19.12,-2.72 -28.51,-1.66 -7.99,-5.94 -15.23,-12.87 -23.37,-18.61 -18.59,-13.24 -40.51,-20.96 -62.62,-25.81 -15.07,-3.07 -31.02,-5.65 -46.02,-0.85zm-1081.36 72.98l0 0zm0 0c-8.31,5.56 -20.69,5.56 -25.69,15.33 -7.46,13.47 -9.51,29.02 -14.15,43.56 -5.48,21.82 -15.47,42.08 -24.45,62.62 -21.2,48.07 -42.49,96.09 -63.52,144.22 -1.33,3.34 -3.31,6.48 -6.66,8.14 -12.7,7.65 -25.01,17.09 -32.64,30.06 -8.89,18.13 -5.68,38.96 -3.24,58.2 -2.15,-4.54 -4.17,-9.15 -6.18,-13.68 -2.58,8.52 -7.92,15.61 -12.58,23.05 -3.59,10.12 4.08,19.31 10.22,26.51 14.07,14.97 13.25,36.77 17.76,55.55 1.26,3.89 1.38,9.53 6.43,10.28 10.64,-3.93 16.49,-17.4 28.92,-17.11 5.6,-0.51 10.04,3.42 12.19,8.28 1.45,-1.55 2.87,-3.07 4.3,-4.59 -1.77,-16.3 -15.19,-27.55 -18.69,-43.17 -9.95,-7.6 -22.69,-6.3 -33.99,-2.99 9.68,-5.87 21.1,-7.99 32.23,-5.65 -0.56,-11.54 -1.09,-23.15 -0.17,-34.67 0.19,-3.25 1.81,-5.62 4.85,-7.09 3.89,13.9 1.14,28.46 3.94,42.51 8.66,0.56 17.28,2.9 23.1,9.75 -6.54,-3.45 -13.83,-3.88 -20.81,-1.52 2.92,12.1 13.74,21.2 13.35,34.28 0.77,6.62 -2.85,12.32 -6.66,17.34 1.86,4.17 0.87,10.43 5.65,12.84 6.71,-8.18 9.12,-20.47 19.36,-25.3 7.41,-3.67 13.61,3.09 19.41,6.66 -5.36,-17.72 -17.72,-31.77 -28.49,-46.37 -5.26,-6.54 -5.74,-15.24 -7.02,-23.15 -1.72,-13.79 -4.83,-27.96 -1.19,-41.7 3.19,-11.54 6.62,-23.01 9.85,-34.52 -4.9,5.94 -9.53,12.07 -14.53,17.91 9.8,-20.11 21.78,-39.28 28.97,-60.59 7.8,-25.76 20.59,-49.57 32.91,-73.37 20.83,-38.6 41.45,-77.69 67.81,-112.87 18.03,-18.66 40.61,-32.22 60.45,-48.86 -7.12,-30.03 -10.43,-60.79 -13.69,-91.42 -20.98,21.94 -40.97,45.84 -67.35,61.53zm538.19 -52.48l0 0zm0 0c4.64,30.95 11.66,61.8 10.89,93.28 -0.89,17.6 6.13,34.12 11.74,50.41 5.43,12.85 9.87,27.23 21.14,36.29 14.71,12.48 31.65,21.85 48.24,31.53 2.2,1.08 5.21,3.55 7.31,0.7 10.65,-9.32 23.78,-14.85 37.38,-18.25 15.5,-16.98 29.47,-35.3 43.52,-53.48 24.46,-31.55 43.87,-66.53 62.41,-101.76 -67.06,-0.41 -134.61,-5.62 -199.75,-22.33 -14.77,-4.08 -29.77,-8.23 -42.88,-16.39zm374.06 40.1l0 0zm0 0c-6.45,1.98 -9.15,8.74 -13.4,13.35 -32.28,41.38 -63.23,83.89 -91.3,128.24 -4.23,4.93 -2.39,11.61 -3.62,17.46 -1.74,9.8 -8.96,17.21 -15.05,24.62 -12.02,12.94 -24.93,25.76 -41.06,33.46 -6.57,3.26 -14.03,3.67 -21.15,2.27 -3.16,2.92 -6.37,5.79 -9.58,8.67 8.33,8.28 19.31,12.24 29.64,17.26 13.93,6.06 19.39,23.83 35.35,26.24 25.83,2.85 51.9,-1.11 77.52,-4.61 17.57,-1.23 36.16,6.11 47.05,20.21 -1.16,1.35 -3.5,4.08 -4.66,5.45 4.25,3.38 9.25,6.47 11.49,11.69 0.97,3.38 -0.12,8.23 -4.08,9.12 -25.61,8.4 -52.75,13.5 -76.34,27.14 -17.79,10.45 -35.85,20.42 -53.93,30.32 -10.91,6.16 -26.46,7.53 -35.66,-2.36 -12.14,-11.57 -14.19,-28.95 -13.56,-44.84 -4.98,-2.31 -10.36,-4.63 -13.6,-9.29 -4.2,-5.55 -4.65,-12.84 -7.87,-18.81 -13.73,-7.96 -27.59,-15.81 -41.79,-22.91 -20.9,13.93 -40.53,29.65 -60.16,45.27 30.3,33.7 64.97,63.78 104.13,86.74 70.83,41.96 156.12,58.28 237.51,46.74 53.98,-8.23 105.33,-29.94 150.64,-60.14 75.01,-49.88 134.86,-119.19 185.7,-192.82 10.31,-15.11 23.44,-29.45 41.31,-35.37 -12.29,-8.67 -25.91,-15.21 -38.17,-23.87 -30.61,-22.34 -58.88,-47.73 -88.26,-71.61 -64.49,-27.93 -132.42,-46.59 -199.71,-66.46 -16.82,-5.19 -34.59,-8.79 -49.44,-18.79 -12.48,6.23 -25.06,12.27 -37.95,17.63zm-381.13 208.44l0 0zm0 0c10.38,19.8 21.92,39.04 34.74,57.39 10.91,-9.61 21.58,-19.49 32.25,-29.38 -21.53,-11.18 -44.15,-19.99 -66.99,-28.01zm146.54 55.53l0 0zm0 0c10.24,5.65 20.6,11.1 30.83,16.82 0.68,-7.67 1.67,-15.35 3.94,-22.74 2.46,17.53 1.71,36.43 9.97,52.46 11.34,9.59 27.01,11.81 41.21,14.49 -7.94,2.89 -16.42,6.59 -19.27,15.33 2.71,8.06 9.13,15.4 18.23,15.57 16.15,2.15 29.28,-8.93 42.08,-16.9 19.63,-12.07 41.93,-18.95 64.02,-24.99 2.95,-0.91 6.35,-1.69 7.99,-4.61 0.41,-7.82 -0.31,-16 3.87,-23.03 3.64,0.53 7.34,1.13 11.03,1.71 -5.89,-4.41 -12.53,-8.06 -19.92,-8.98 -28.36,-4.82 -54.63,12.44 -82.8,11.06 -8.45,-1.3 -18.62,-2.44 -23.18,-10.72 5.38,0.29 10.74,1.23 15.98,2.54 13.33,3.64 27.04,-0.49 40.25,-2.75 -15.7,-2.18 -32.79,4.24 -47.27,-4.23 -13.18,-6.59 -20.4,-20.57 -33.49,-27.28 2.2,5.07 4.49,10.09 6.62,15.23 -12.75,-9.2 -25.11,-18.9 -37.81,-28.15 -10.55,9.97 -21.58,19.39 -32.28,29.17zm806.15 -799.73l0 0zm0 0c0.1,6.78 -0.82,14.85 4.44,20.11 6.04,5.46 14.3,7.87 22.36,7.1 -2.9,-4.06 -4.69,-8.72 -5.48,-13.62 -7.68,-3.57 -14.56,-8.54 -21.32,-13.59z"/>
   <path class="fil2" d="M758.52 318.09c2.66,-3.26 5.41,-6.49 8.14,-9.7 -1.67,5.5 -3.52,10.96 -5.79,16.22 -0.58,-1.62 -1.77,-4.87 -2.35,-6.52zm165.26 355.83c8.71,-7.65 25.08,1.43 22.13,13.04 -1.61,6.71 -9.12,8.16 -15.01,8.28 -2.95,18.18 -8.36,37.37 -22.29,50.36 -7.46,6.83 -16.56,11.9 -26.43,14.27 0.05,-1.72 0.14,-5.14 0.19,-6.84 15.5,-6.05 28.68,-18.66 32.62,-35.17 -11.28,8.91 -22.65,18.35 -36.82,22.23 -2,-1.81 -3.93,-3.54 -5.94,-5.33 8.31,-3.6 16.68,-8.04 21.59,-15.98 -10.67,1.08 -20.48,7.12 -31.44,6.25 -4.85,-1.3 -9,-4.39 -13.35,-6.73 13.88,-1.67 27.62,-4.62 40.95,-8.84 11.8,-4.49 22.42,-11.59 32.35,-19.29 -1.48,-5.22 -3.7,-12.29 1.45,-16.25zm965.22 -125.27c-0.13,-5.17 0.41,-10.29 3.06,-14.8 6.3,2.03 12.94,2.34 19.51,2.94 -5.84,6.55 -15.07,8.04 -22.57,11.86zm-20.79 -17c6.81,-1.18 13.45,1.09 19.89,2.97 -0.19,4.98 -0.41,9.95 -0.6,14.92 -7.44,1.38 -14.99,2.03 -22.53,2.13 1.21,-6.67 2.34,-13.31 3.24,-20.02zm104.87 5.72c1.06,-2.55 2.2,-5.06 3.43,-7.55 0.22,3.69 0.48,7.41 0.82,11.1 -3.38,1.11 -6.86,0.24 -10.09,-0.72 1.45,-0.7 4.39,-2.12 5.84,-2.83zm-125.68 -8.4c6.25,-1.69 13.16,-0.07 18.95,2.76 -0.77,6.37 -1.47,12.77 -2,19.16 -7.34,1.04 -14.25,-1.83 -21.03,-4.12 -0.17,-6.18 0.26,-12.63 4.08,-17.8zm-1060.97 -0.94c3.14,2.32 6.37,4.47 9.71,6.5 -0.75,5.96 -1.62,11.9 -2.8,17.79 -4.52,-7.34 -5.82,-15.89 -6.91,-24.29zm1054.47 17.65c-6.97,-5.12 -11.2,-12.63 -9.51,-21.39 3.99,0.99 8.02,2.03 12,3.19 0.34,6.18 -1.23,12.19 -2.49,18.2zm54.52 -23.71c6.85,3.38 13.64,6.93 20.23,10.84 -7.49,3.67 -17.34,2.1 -24.36,-2 1.35,-2.95 2.73,-5.89 4.13,-8.84zm-25.64 6.35c2.17,-5.21 4.73,-10.23 7.97,-14.89 5.48,2.58 10.98,5.14 16.53,7.62 -1.83,4.23 -4.25,8.12 -7.51,11.38 -5.72,-1.26 -11.44,-2.44 -16.99,-4.11zm-15.62 -17.07c7.19,0.2 14.36,0.87 21.53,1.62 -3.14,5.77 -5.55,12.27 -10.96,16.37 -5.36,-1.76 -10.96,-2.58 -16.46,-3.43 0.99,-5.19 3.47,-9.9 5.89,-14.56zm-22.6 11.83c4.44,-7.48 12.24,-12.24 21.13,-12.02 -2.44,4.47 -4.4,9.25 -7.66,13.18 -4.54,0.82 -9.05,-0.51 -13.47,-1.16zm-1042.16 -15.18c3.62,-8.65 8.57,-20.81 19.73,-20.52 12.48,-0.44 17.33,13.44 21.84,22.64 -10.3,-0.94 -20.49,-2.7 -30.68,-4.46 -3.82,-0.92 -7.34,1.42 -10.89,2.34zm-92.22 -74.79c5.6,12.09 20.16,12.19 31.46,14.79 21.27,4.61 43.09,5.46 64.5,9.23 -30.7,3.04 -54.22,31.26 -57.21,61.05 -3.14,23.76 7,49.56 27.28,62.96 7.75,5.53 17.04,8.16 26.12,10.67 -0.44,11.35 0.75,23.45 7.51,32.98 6.56,10 17.77,15.45 28.63,19.49 -57.17,-11.45 -114.99,-19.9 -171.75,-33.42 0.08,-18.49 12.75,-32.78 18.21,-49.66 11.1,-27.52 12.07,-57.53 11.15,-86.76 3.31,-14.17 9.03,-27.72 14.1,-41.33zm987.67 -30.81c6.76,5.05 13.64,10.02 21.32,13.59 0.79,4.9 2.58,9.56 5.48,13.62 -8.06,0.77 -16.32,-1.64 -22.36,-7.1 -5.26,-5.26 -4.34,-13.33 -4.44,-20.11zm-711.34 -19.05c6.25,-4.61 10.93,3.24 13.42,7.99 3.53,7.61 10.82,14.08 9.85,23.16 -0.1,40.17 -3.04,80.34 -8.59,120.15 -6.21,34.5 -18.5,67.82 -34.62,98.89 -5.87,9.87 -10.92,21.26 -20.69,27.88 -30.76,-3.55 -61.08,-10.09 -91.77,-14.17 17.84,0.41 37.26,-4.88 47.66,-20.5 15.21,-23.22 11.23,-52.58 18.01,-78.46 5.6,-0.77 11.68,-2.73 13.74,-8.62 3.76,-7.39 -0.78,-15.18 -6.62,-19.82 -13.28,0.05 -26.34,-2.56 -39.42,-4.51 -10.79,-0.87 -17.72,13.01 -11.88,21.7 1.93,4.42 6.98,5.48 10.91,7.41 -0.67,15.4 -3.18,30.66 -5.21,45.94 -1.26,8.19 -3.21,17.26 -9.9,22.84 -8.21,5.55 -22.28,2.3 -25.08,-7.92 -2.15,-6.23 -1.36,-12.96 -1.21,-19.41 10.74,-7.53 26.36,-16.41 24.53,-31.74 -1.16,-8.91 -10.99,-12.44 -18.88,-10.89l0.14 -3.62c9.73,0.94 16.06,-7.8 16.2,-16.81 2.71,-3.33 5.65,-6.85 5.8,-11.41 0.89,-12.24 2.39,-24.58 1.9,-36.87 -1.57,-10.98 -15.59,-14.24 -23.75,-7.99 -6.06,-2.9 -12.29,-5.43 -18.57,-7.77 37.4,2.36 74.94,4.39 112.38,1.81 9.73,-1.07 19.68,-1.86 29.02,-5.05 7.2,-5.45 9.15,-15.14 11.93,-23.25 3.45,-14.43 8.01,-29.43 5.72,-44.37 -1.26,-1.13 -3.77,-3.45 -5.02,-4.59z"/>
  </g>
 </g>
</svg>
