<?xml version="1.0" encoding="UTF-8"?>
<!DOCTYPE svg PUBLIC "-//W3C//DTD SVG 1.1//EN" "http://www.w3.org/Graphics/SVG/1.1/DTD/svg11.dtd">
<!-- Creator: CorelDRAW -->
<svg xmlns="http://www.w3.org/2000/svg" xml:space="preserve" width="2000px" height="1600px" version="1.1" style="shape-rendering:geometricPrecision; text-rendering:geometricPrecision; image-rendering:optimizeQuality; fill-rule:evenodd; clip-rule:evenodd"
viewBox="0 0 2000 1600"
 xmlns:xlink="http://www.w3.org/1999/xlink">
 <defs>
  <style type="text/css">
   <![CDATA[
    .fil1 {fill:#182E5B;fill-rule:nonzero}
    .fil0 {fill:#EBAC1E;fill-rule:nonzero}
    .fil2 {fill:#FEFEFE;fill-rule:nonzero}
   ]]>
  </style>
 </defs>
 <g id="Capa_x0020_1">
  <metadata id="CorelCorpID_0Corel-Layer"/>
  <g id="Canisius_x0020_Golden_x0020_Griffins.cdr">
   <path class="fil0" d="M1212.29 911.56c29.91,-1.5 60,-0.56 89.96,-0.39 1.93,12.55 -13.71,18.44 -12.21,30.7 0.05,109.26 0.1,218.51 -0.02,327.77 -0.94,13.97 10.86,24.4 11.55,38.16 -15.16,0.13 -30.22,-1.75 -45.27,-3.22 -5.95,-0.94 -11.86,-1.8 -17.8,-2.56 -10.16,-1.05 -20.32,-2.32 -30.27,-4.52 0.2,-12.09 13.92,-18.44 13.31,-30.4 -0.13,-110.02 0.12,-220.06 -0.13,-330.08 0.89,-9.82 -16.07,-15.97 -9.12,-25.46zm114.08 19.44c3.53,3.58 4.58,8.51 4.4,13.39 -0.16,102.47 -0.03,204.95 -0.08,307.43 -0.23,14.34 4.47,28.13 10.74,40.85 -12.92,-12.44 -15.67,-31.43 -15.84,-48.52 0.05,-82.09 0,-164.2 0.02,-246.29 0.28,-22.29 -0.76,-44.61 0.76,-66.86zm96.52 -6.52c0.91,-1.07 2.74,-3.2 3.68,-4.27 1.44,51.24 0.2,102.56 0.61,153.82 -0.03,69.62 0.07,139.24 -0.06,208.87 -13.68,-2.97 -27.11,-6.91 -40.65,-10.47 -1.01,-70.35 -0.27,-140.74 -0.5,-211.09 0.33,-43.07 -0.87,-86.21 1.14,-129.24 1.45,-0.23 4.34,-0.69 5.79,-0.92 0.1,81.48 0.02,162.94 0.05,244.41 0.28,29.13 -0.64,58.25 0.58,87.35 9.65,2.49 19.38,4.8 29.1,7.08 0.38,-115.17 -0.13,-230.37 0.26,-345.54zm-79.58 -15.18c4.27,3.53 8.3,7.26 12.26,11.12 -11.02,0.71 -22.04,0.43 -33.03,1.01 0.13,1.35 0.38,4.01 0.51,5.36 -3.89,-4.32 -6.5,-9.52 -8.48,-14.93 9.57,-0.86 19.22,-1.07 28.74,-2.56zm-281.18 -66.38c11.45,3.69 22.4,8.79 34.03,11.96 32.47,9.14 66.83,10.49 100.19,6.15 -2.72,4.31 -5.44,8.63 -8.05,13.02 24.32,-4.06 46.39,-15.54 69.42,-23.61 -25.5,22.17 -59.54,33.62 -92.96,35.47 3.35,-4.26 7.09,-8.23 10.69,-12.31 -16.22,0.68 -32.55,-0.21 -48.34,-4.12 -22.75,-5.48 -46.06,-12.16 -64.98,-26.56zm486.03 -1.52c25.22,-9.27 52.49,-3.96 78.66,-5.53l2.34 -0.03c-0.35,1.52 -1.07,4.6 -1.42,6.12 -28.46,1.07 -59.29,-5.31 -85.52,8.81 -9.62,4.6 -15.49,13.84 -23.03,20.97 -0.3,-1.42 -0.91,-4.24 -1.22,-5.63 6.3,-11.89 17.62,-20.34 30.19,-24.71zm46.44 -36.16c8.31,3.76 17.19,5.95 26.36,5.16 1.68,3.38 3.33,6.78 5,10.18 -9.11,4.14 -21.28,5.56 -28.67,-2.56 -3.83,-3.18 -2.31,-8.48 -2.69,-12.78zm-43.72 2.77c13.66,2.64 27.37,-0.1 40.47,-3.96 -0.94,3.45 1.55,10.08 -3.32,11.17 -11.71,4.98 -26,-1.47 -36.49,6.71 -8.96,5.89 -19.42,8.96 -28.36,14.82 -9.07,5.79 -11.1,17.12 -16.99,25.44 -0.45,-13.02 3.23,-27.72 13.69,-36.28 10.48,-5.71 22.8,-8.55 31,-17.9zm-103.95 -12.41c8.91,4.11 18.28,11.12 19.6,21.53 -6.07,6.65 -15.33,7.33 -23.74,6.62 2.06,-9.29 3.45,-18.68 4.14,-28.15zm160.67 -0.77c3.53,0.77 7.06,1.65 10.62,2.57 1.01,2.41 2.1,4.85 3.22,7.26 -4.82,-3 -9.42,-6.3 -13.84,-9.83zm-164.6 -10.81c7.26,-1.04 14.7,-0.49 21.09,3.43 -6.14,1.59 -12.26,3.17 -18.33,5 -0.94,-2.82 -1.88,-5.64 -2.76,-8.43zm-538.54 0.73c20.16,4.95 40.32,10.34 61.16,11.53 14.32,1.73 28.79,0.43 43.17,1.19 5.28,0.11 7.74,5.67 11.04,8.97 -39.35,4.67 -80.56,-2.57 -115.37,-21.69zm507.79 5.03c2.15,-2.79 3.35,-6.88 7.16,-7.79 2.33,2.56 4.41,5.35 6.57,8.12 -4.59,-0.03 -9.16,-0.15 -13.73,-0.33zm80.28 -11.37l1.5 -0.49 0.53 1.48c-0.5,-0.26 -1.52,-0.77 -2.03,-0.99zm100.17 -11.61c4.24,-1.37 8.45,-2.94 12.87,-3.65 5.18,0.35 9.4,3.98 13.92,6.27 -5.03,8.43 -12.7,15.49 -23.03,15.79 -1.22,-6.14 -2.47,-12.29 -3.76,-18.41zm-141.28 -10.86c0.94,0.93 2.82,2.81 3.76,3.75l-2.28 0.46 -1.93 -1.93 0.45 -2.28zm-29.6 1.67c10.43,-0.18 22.39,0.18 30.57,7.54 3.53,7.75 -4.67,13.31 -9.09,18.36 -6.5,-9.19 -14.8,-16.89 -21.48,-25.9zm114.51 -1.67c17.67,-6.78 37.76,5.76 43.77,22.77 -5.07,3.63 -9.87,8.23 -16.14,9.7 -7.09,1.42 -14.25,-0.48 -21.33,-0.43 -7.29,6.35 -15.46,11.47 -24.45,15.05 -8.53,17.5 -15.29,35.73 -18.23,55.05 9.75,6.68 20.61,15.49 21.02,28.36 0.53,11.96 -6.93,26.05 -19.55,28.06 -15.06,-1.35 -27.09,-12.06 -38.14,-21.38 -1.24,-15.69 -0.71,-31.84 -0.61,-47.71 0.26,-6.37 -2.92,-12.03 -5.84,-17.47 4.09,-1.82 8.15,-3.68 12.22,-5.56 5.28,16.99 8.3,34.56 11.02,52.11 12.28,-24.84 8.63,-54.9 -4.55,-78.59 4.72,-0.35 9.47,-0.69 14.22,-0.89 2.33,4.52 4.75,9.04 7.34,13.43 1.8,-8.02 0.89,-16.81 4.14,-24.37 9.06,-12.01 20.77,-22.9 35.11,-28.13zm-10.21 -9.86c10.14,-2.61 20.65,-4.06 31.11,-2.54 -6.12,8.92 -17.67,8.05 -26.54,12.24 -11.88,5.16 -20.18,15.42 -30.03,23.36 -1.07,0.05 -3.2,0.13 -4.27,0.18 4.17,-4.32 7.34,-9.5 9.7,-14.98 5.92,-0.48 9.14,-5.94 10.46,-11.17 3.15,-2.39 6.3,-4.83 9.57,-7.09zm37.96 -4.97c12.57,-2.92 26.08,-2.47 37.99,2.87 -2.11,4.69 -4.04,9.52 -6.91,13.81 -5.56,0.84 -10.97,-0.92 -16.02,-3.05 -2.23,-1.8 -4.47,-3.6 -6.68,-5.41 -2.94,-2.61 -5.69,-5.43 -8.38,-8.22zm-164.63 5.63c7.62,-7.54 18.86,-5.1 28.46,-4.74 -3.12,5.43 -6.14,10.91 -8.73,16.6 -6.45,-3.88 -17.12,-3.99 -19.73,-11.86zm-142.75 -38.44c17.22,14.88 39.23,22.02 60.13,30.01 15.38,5.92 31.71,9.37 46.46,16.89 8.66,-4.57 18.21,-7.16 28.09,-6.17 -1.02,1.24 -3.08,3.78 -4.09,5.05l-1.45 1.6c-11.3,2.06 -21.73,6.78 -31.53,12.62 1.42,-3.53 2.99,-7.01 4.44,-10.51 -6.83,5.74 -11.94,13.1 -17.62,19.88 -13.05,-3 -25.29,-8.68 -37.81,-13.38 0.56,-1.12 1.63,-3.38 2.18,-4.5 -19.04,-8.48 -39.5,-13.94 -57.74,-23.96 1.25,-9.65 5.31,-18.62 8.94,-27.53zm-288.34 -0.05c11.43,16.38 22.27,33.26 35.96,47.94 9.95,11.35 21.35,21.3 31.51,32.47 -5.16,0.59 -10.31,1.1 -15.47,1.65 17.52,18.87 39.23,32.99 60.05,47.79 -17.87,-6.07 -33.56,-17.06 -48.65,-28.11 -9.9,-7.49 -19.67,-15.41 -27.29,-25.29 5.2,-0.51 10.44,-0.89 15.69,-1.29 -10.15,-13.41 -22.9,-24.63 -32.55,-38.44 -7.95,-11.33 -15.03,-23.46 -19.25,-36.72zm-636.95 -59.06c20.44,7.44 42.05,2.08 63.1,2.82 7.59,-0.08 14.55,3.2 21,6.91 -17.17,-4.47 -34.36,2.26 -51.68,1.34 -11.65,0.23 -24.07,-2.28 -32.42,-11.07zm1034.22 -29.68c7.64,-1.68 15.13,0.38 20.97,5.56 -0.48,-1.73 -1.42,-5.2 -1.9,-6.93 14.09,-1.55 18.53,15.69 18.46,26.71 -13.05,-7.57 -26.08,-15.49 -37.53,-25.34zm95.65 -62.49c3.75,-0.23 3.81,6.07 0.05,5.97 -3.76,0.13 -3.86,-6.12 -0.05,-5.97zm-109.69 -21.93c5.05,-1.7 10.66,-5.56 15.94,-2.32 7.01,3.66 16.63,8.84 15.31,18.21 -0.33,13.89 -18.46,21.71 -29.14,13.13 -6.81,-4.32 -7.04,-12.9 -7.5,-20.06 -1.59,-0.64 -4.74,-1.91 -6.34,-2.52 4.67,-0.17 9.39,-0.25 14.09,-0.43 -0.03,0.46 -0.1,1.4 -0.13,1.86 -2.28,5.33 -2.39,12.69 3.94,15.31 10.59,6.17 23.05,-8.64 15.21,-18.08 -4.57,-7.21 -13.61,-3.81 -19.81,-1.17 -0.38,-0.99 -1.17,-2.94 -1.57,-3.93zm-236.77 -191.98c19.96,2.69 40.04,3.91 60.17,3.7 13.16,8.64 28.32,13.74 43.88,15.8 0,0.45 0.03,1.34 0.03,1.8 -25.98,7.16 -53.78,3.73 -78.72,-5.71 -9.26,-3.74 -17.82,-9.09 -25.36,-15.59zm79.52 -24.02c10.08,-0.61 19.6,-4.24 29.23,-6.99 12.11,16.28 30.52,25.12 48.67,32.81 -22.04,2.79 -44.46,-0.61 -65.69,-6.78 -16.09,-5 -32.42,-10.44 -46.28,-20.34 11.35,0.53 22.7,2.26 34.07,1.3zm-154.42 -7.62c13.4,13.53 30.77,24.55 50.35,25.14 7.82,-0.31 12.01,7.26 17.46,11.52 7.21,7.06 16.81,10.57 25.98,14.25 -26.38,6.95 -54.46,0.15 -77.44,-13.56 -8.84,-5.69 -17.68,-12.21 -23.21,-21.36 1.52,-5.61 4.32,-10.76 6.86,-15.99zm23 -8.15c12.42,-1.3 24.93,-2.26 37.45,-1.75 6.22,-0.11 11.07,4.29 16.05,7.39 13,9.16 26.94,16.93 39.94,26.12 -32.43,-5.13 -69.34,-6.09 -93.44,-31.76zm-2.26 -33.36c10.26,3.02 20.29,6.88 30.93,8.48 2.97,5.25 5.73,10.61 8.48,15.99 -17.32,0.13 -34.64,0.03 -51.93,0.51 3.84,-8.51 7.59,-17.06 12.52,-24.98zm87.32 -98.04c44.23,-12.67 88.87,-25.41 134.88,-29.38 33.46,-3.17 65.68,8.53 96.51,19.99 34.07,11.27 64.94,30.19 94.35,50.42 25.29,16.84 44.28,43.07 52.43,72.32 4.37,15.33 3.68,32.83 -5.03,46.54 -8.66,13.84 -23.79,21.73 -38.49,27.65 -24.22,9.19 -49.61,15.28 -75.31,18.43 -47.51,6.7 -92.7,23.41 -137.19,40.68 -5.58,1.85 -11.32,5 -17.36,3.55 -12.39,-2.66 -24.91,-5.13 -36.92,-9.24 31.43,-13.31 63.6,-24.76 95.6,-36.61 15.94,-5.59 31.86,-11.43 48.31,-15.39 36.44,-8.18 74.81,-7.92 109.84,-21.94 17.98,-5.81 29.81,-23.81 32.83,-41.82 2.57,-23.91 -13.94,-44.33 -30.87,-59.11 -29.81,-25.24 -65.84,-41.94 -102.45,-54.84 -21.23,-7.13 -42.96,-13 -65.16,-16.25 -17.74,-2.74 -35.72,-0.56 -53.34,2.06 -43.11,7.41 -85.26,19.29 -127.03,32.11 -3.89,1.25 -7.67,2.72 -11.35,4.45 30.57,-4.34 60.53,-12.39 90.67,-19.07 56.85,-15.06 117.08,-3.55 170.91,17.27 27.95,11.19 55.32,24.52 79.75,42.25 11.8,8.15 19.52,21.15 23.51,34.71 3.58,12.59 1.19,27.54 -8.51,36.84 -9.49,8.93 -23.1,10.86 -35.59,11.7 -19.91,0.49 -40.5,1.58 -59.44,-5.79 -20.42,-7.69 -41.16,-15.64 -58.94,-28.48 13.61,0.91 27.25,3.32 40.93,1.47 -12.97,-4.45 -26.76,-5.44 -39.91,-9.17 -17.19,-3.93 -33.75,-10.05 -50.58,-15.18 8.15,5.91 17.34,10.05 26.46,14.22 10.33,4.21 15.28,15.05 23.64,21.86 12.62,11.78 29.48,16.71 44.79,23.84 -27.55,-0.53 -55.2,-4.37 -81.64,-12.31 -22.31,-6.56 -42.32,-18.82 -61.29,-31.97 5.61,-1.68 11.27,-3.3 16.91,-4.98 0.05,-0.46 0.1,-1.39 0.15,-1.85 -26.66,2.33 -52.71,-4.22 -78.07,-11.5 14.55,11.04 32.29,18.4 50.7,18.86 4.39,4.52 8.33,9.45 11.58,14.86 -26.13,7.54 -53.75,4.57 -79.98,-0.64 -15.26,-3.17 -29.78,-11.15 -38.42,-24.45 2.34,-2.18 4.67,-4.34 7.01,-6.53 -14.04,-2.28 -27.7,-6.39 -40.8,-11.85 4.31,-19.71 3.27,-40.53 -4.8,-59.16 28.79,-9.88 57.21,-20.98 86.71,-28.57zm-578.61 -151.99c44.72,-10.84 91.33,-13.91 137.06,-8.73 44.06,4.74 87.85,14.93 128.15,33.59 43.9,20.01 83.15,48.32 123.02,75.1 29.2,19.99 59.49,40.15 80.67,69.07 10.25,14.37 21.7,30.8 18.53,49.48 -4.04,27.94 -21.1,51.37 -32.86,76.38 -4.08,8.96 -7.38,19.35 -3.22,28.92 12.54,36 41.13,65.59 75.26,81.99 11.4,4.97 21.05,13.15 28.36,23.18 -14.5,-0.89 -29.2,-1.45 -43.39,2.23l-2.26 -0.35c10.51,6.85 22.26,14.12 26.3,26.81 9.42,25.52 -0.94,52.31 -10.43,76.12 2.71,-2.05 5.41,-4.11 8.12,-6.17 24.71,32.91 37.15,75.52 30.47,116.47 -22.52,-9.8 -48.22,-17.34 -72.57,-9.95 13.56,2.31 27.5,1.75 40.93,4.92 14.04,3.15 28.31,9.42 36.95,21.48 16.04,22.68 30.59,46.7 50.04,66.73 15.24,15.64 36.67,22.14 56.35,30.19 -0.36,-1.73 -1.12,-5.15 -1.48,-6.86 10.28,3.31 20.26,7.93 28.34,15.29 11.55,9.55 25.29,16.61 39.35,21.53 24.66,-5.97 32.61,-35.42 56.37,-42.98 9.75,-4.85 19.32,2.28 28.97,3.8 6.15,2.49 15.67,3.63 16.99,11.4 -1.96,8.16 -8.63,15.01 -16.45,17.8 -5.16,0.59 -10.31,-0.1 -15.44,-0.43 -5.18,4.29 -11.43,6.91 -17.8,8.86 2.21,15.01 -3.15,29.33 -8.71,42.94 -4.29,9.09 -1.95,19.14 0.48,28.36 1.09,3.61 1.45,8.23 5.54,9.8 11.8,6.58 25.06,14.88 39.07,9.88 -2.21,-3.96 -3.42,-8.81 -7.08,-11.71 -5.28,-2.28 -11.12,-2.54 -16.73,-3.3 -3.23,-7.69 -8.28,-14.8 -9.55,-23.16 8.89,-15.3 21.08,-29.17 24.4,-47.2 14.37,-2.61 28.54,-6.34 41.85,-12.44 1.37,6.73 2.51,13.51 3.32,20.34 -5.08,-3.33 -9.95,-6.91 -14.67,-10.71 -9.76,2.92 -23.85,1.62 -27.4,13.55 -5.49,13.28 -15.44,23.9 -22.04,36.46 1.29,6.07 4.65,11.43 7.34,16.99 8.2,2.11 17.14,3.86 23.56,9.9 9.12,7.77 10.54,22.98 3,32.3 -3.71,4.42 -9.6,5.79 -14.73,7.77 -8.48,-3.78 -17.95,-3.96 -26.51,-7.26 -10,-5.54 -16.88,-15.13 -26.38,-21.38 -8.23,-5.36 -17.44,-9.29 -24.63,-16.12 -10.03,-8.84 -14.52,-22.45 -25.44,-30.4 -16.28,-12.46 -37.48,-20.28 -58.07,-16.88 -11.04,3.88 -21.25,9.95 -32.65,12.82 -13.66,4.34 -28.13,4.14 -42.28,3.61 3.71,-3.13 7.49,-6.17 11.23,-9.24 -40.86,-5.97 -83.11,-14.38 -118.2,-37.28 11.05,0.31 22.07,1.3 33.14,0.79 -8.59,-6.22 -17.96,-11.28 -26.69,-17.29 -21.35,-14.43 -39.99,-32.58 -55.66,-52.99 10.82,2.94 21.66,5.94 32.68,8.07 -13.4,-14.27 -26.1,-29.45 -35.04,-47.02 -14.57,-26.44 -21.07,-56.42 -22.77,-86.36 -3.61,9.27 -6,18.95 -7.8,28.75 -7.28,-1.96 -14.47,-4.17 -21.61,-6.56 4.02,4.78 8.05,9.53 11.94,14.43 -14.55,-0.59 -28.34,-5.39 -42.02,-9.96 15.23,12.39 33.28,21.48 52.96,23.82 3.15,13.71 8.86,26.94 10.36,40.98 -3.27,6.53 -9.8,3.4 -15.03,1.6 0.76,3.05 1.52,6.12 2.28,9.19 -10.4,9.09 -22.92,14.96 -34.55,22.14 3.45,5.33 12.67,10.06 7.01,17.04 -10.97,-2.62 -17.12,-14.27 -28.87,-15.21 1.39,4.8 2.92,9.6 3.68,14.55 -10.44,0.08 -17.6,-8.66 -26.36,-12.98 0.26,4.78 0.54,9.55 0.74,14.33 -11.53,-3.23 -18.84,-13.94 -30.47,-16.86 -14.4,-4.17 -26.69,-12.88 -39.18,-20.77 5.44,24.8 27.73,38.97 46.21,53.67 -10.76,0.33 -21.86,-0.53 -31.58,-5.56 -11.48,-4.95 -20.11,-14.14 -28.85,-22.72 2.08,4.69 4.24,9.37 6.35,14.09 -3.76,-1.25 -7.49,-2.49 -11.2,-3.73 8.23,7.21 16.48,15.26 19.78,26.02 8.31,25.14 2.16,51.72 -0.3,77.27 -1.96,20.39 -8.94,39.71 -14.4,59.31 14.32,-4.42 26.99,-13 37.96,-23.03 9.88,-9.14 16.02,-21.3 23.31,-32.4 12.57,-19.37 26.08,-38.21 37.09,-58.55 4.88,1.52 9.78,3.1 14.66,4.72 -20.19,30.72 -39.18,62.49 -63.2,90.47 -9.85,11.91 -24.43,17.9 -36.67,26.81 -3.8,2.26 -3.22,7.14 -3.91,10.9 1.71,17.34 9.07,33.38 13,50.24 10.52,34.71 19.76,69.8 30.65,104.39 1.98,-19.68 0.89,-39.49 1.12,-59.24 0.2,-38.49 -0.38,-76.99 0.33,-115.48 24.27,-0.84 48.7,-1.6 72.95,0.48 -3.41,10.52 -12.17,19.35 -11.2,31.06 0.23,105.04 0.1,210.1 0.05,315.15 -0.1,13.35 8.4,24.68 9.93,37.8 3.91,-0.02 7.82,-0.05 11.75,-0.05 -1.44,-16.15 12.47,-28.99 9.65,-45.45 -0.4,-59.31 0.08,-118.62 -0.25,-177.93 -2.62,-43.96 -0.31,-88.01 -1.45,-132.01 -0.15,-9.96 -6.93,-17.8 -11.43,-26.18 15.09,-3.5 30.65,-2.21 45.99,-2.31 15.82,0.1 31.66,-0.46 47.48,0.74 -2.72,10.69 -13.18,18.48 -12.04,30.16 0.71,60.99 -1.19,122.03 1.45,182.97 -0.1,43.21 0.08,86.43 -0.15,129.67 -1.07,13.1 8.17,23.56 11.07,35.82 -27.65,0.49 -55.13,4.73 -82.8,3l0.05 0.74c24.37,1.14 48.65,-1.35 72.95,-2.47 26.99,2.85 54.16,0.1 81.15,3.08 67.59,2.36 135.15,7.54 202.16,16.96 33.82,3.75 67.11,10.96 100.77,15.64 29.69,6.7 59.47,12.85 89.13,19.62 -4.88,-11.85 -13.03,-23.13 -12.34,-36.53 0.17,-121.95 0.02,-243.91 0.07,-365.86 -0.33,-8.68 4.62,-16.05 8.66,-23.28 -20.51,-0.33 -41.08,0.33 -61.6,-0.51 5.41,-4.42 10.95,-8.81 17.27,-11.91 8.96,0.54 17.97,0.64 26.96,0.51 8.66,2.61 16.43,7.41 24.81,10.76 -11.73,11.13 -8.13,27.91 -8.51,42.33 0.08,114.31 0.05,228.59 0,342.88 -0.1,13.89 8.05,25.72 13.77,37.81 -2.59,1.49 -5.18,3.02 -7.75,4.54 5.82,1.93 11.63,3.76 17.47,5.64 0.08,-56.67 -0.2,-113.35 0.08,-170.02 -1.73,-6.85 6.34,-6.02 10.79,-6.42 32.65,0.05 65.35,0.15 98.03,0.02 0.36,17.57 -24.12,22.12 -24.78,39.36 -1.7,20.28 -0.66,40.7 -0.91,61.04 0.55,24.4 -1.15,48.92 0.71,73.28 11.78,7.1 25.21,10.79 37.85,16.04 0.18,-41.61 0.03,-83.25 0.08,-124.87 0.15,-21.99 -0.1,-44.05 -2.36,-65.91 -1.68,-13.92 -15.87,-20.24 -26.53,-26.46 -19.2,-10.44 -38.09,-21.38 -57.62,-31.21 -19.01,-7.92 -35.85,-24.93 -36.53,-46.51 -0.28,-50.15 0.17,-100.3 -0.21,-150.44 1.4,0.07 4.14,0.23 5.54,0.3 0.89,49.82 -0.31,99.69 0.51,149.5 0.73,19.58 16.68,34.2 33.46,41.82 21.43,10.23 41.8,22.52 62.69,33.82 9.19,5.43 20.01,11.38 23.23,22.37 2.47,10.46 2.54,21.28 3.08,31.97 1.9,58.37 0.96,116.82 1.01,175.24 -16.65,-6.72 -33.18,-13.78 -49.84,-20.46 -0.48,-43.95 0.1,-87.88 -0.3,-131.83 0.1,-5.71 -0.33,-11.58 1.21,-17.14 6.15,-9.16 15.39,-15.69 22.4,-24.17 -31.74,-0.96 -63.53,-0.76 -95.27,-0.1 0.56,59.41 -0.78,118.8 -0.61,178.22 -75.74,-20.7 -153.05,-35.27 -230.88,-45.33 -124.56,-15.76 -250.5,-20.13 -375.91,-14.16 -112.96,6.09 -225.9,19.65 -335.82,46.97 24,-2.03 47.56,-7.47 71.45,-10.23 121.25,-16.23 243.98,-20.24 366.11,-14.27 116.63,6.4 232.91,20.97 347.07,45.88 95.88,21.1 190.61,49.31 279.99,90.24 15.1,6.6 28.79,16.32 44.58,21.35 6.71,1.91 15.06,3.71 20.9,-1.32 6.37,-5.43 6.68,-14.52 6.83,-22.24 -0.18,-87.19 -0.13,-174.39 -0.05,-261.6 -0.18,-39.16 -20.54,-78.99 -55.48,-98.11 -21.68,-11.53 -42.99,-23.79 -64.82,-35.04 -0.79,-56.73 -0.1,-113.45 -0.33,-170.17 16.73,-0.21 33.46,0.66 50.19,0.71 -0.1,28.13 -0.22,56.29 0.23,84.42 -0.33,4.07 0.38,8.87 -2.74,12.06 -6.65,7.39 -14.57,13.54 -21.23,20.98 31.79,0.94 63.61,0.28 95.42,0.38 -0.07,-32.38 0.18,-64.75 -0.12,-97.12 -0.49,-17.52 -0.21,-36.92 -11.94,-51.24 -13.1,-17.55 -36.48,-21.38 -56.97,-21.2 -0.03,-1.5 -0.08,-4.55 -0.11,-6.05 18.28,0.08 37.71,2.34 52.74,13.77 11.3,8 16.33,21.5 21.48,33.79l0 133.25c-35.9,3.41 -72.11,1.65 -108.11,1.32 -1.75,-19.42 27.37,-22.9 25.03,-42.48 -0.02,-25.54 -0.02,-51.08 -0.18,-76.62 -12.87,-0.46 -25.74,-0.44 -38.62,-0.31 0.41,53.35 -0.83,106.72 0.69,160.04 21.76,12.03 43.8,23.64 65.43,35.93 16.46,9.24 29.71,23.43 39.03,39.76 8.99,14.8 12.29,32.02 16.73,48.52l0 286.49c-3.22,6.75 -5.84,15.41 -13.46,18.35 -13.5,4.09 -27.27,-1.6 -39.2,-7.64 -58.4,-30.93 -120.96,-53.14 -184.03,-72.44 -104.87,-31.56 -212.83,-51.92 -321.45,-65.08 -52.38,-5.58 -104.81,-11.58 -157.52,-12.92 -136.4,-5.81 -273.69,-0.53 -408.39,22.7 -16.68,2.21 -33.01,7.18 -49.94,7.29 1.21,-4.02 2.46,-8 3.75,-11.96 -0.33,-13.79 8.94,-25.67 8.05,-39.54 -0.28,-15.26 0.46,-30.47 1.12,-45.67 0.2,-71.12 -0.15,-142.22 0.18,-213.31 0.02,-1.83 0.1,-5.44 0.12,-7.24 -17.74,7.59 -38.77,6.83 -55.6,-2.77 -8.61,-3.96 -15.82,-12.49 -26.05,-11.4 -13.48,-0.4 -27.58,2.64 -40.58,-1.98 1.15,-16.65 17.88,-27.98 17.24,-45.17 0.1,-24.75 0.03,-49.54 -0.17,-74.32 -13.41,-0.12 -26.82,-0.12 -40.22,0 -0.16,164.69 -0.49,329.4 0.15,494.06 12.85,-7.16 26.33,-13.51 38.08,-22.37 1.07,-4.6 0.97,-9.32 1.05,-13.97 -0.28,-42.35 -0.08,-84.7 -0.13,-127.08 0.13,-17.42 -0.61,-34.88 0.89,-52.28 27.14,-0.56 54.33,-0.84 81.48,0.18 0.5,68.2 -0.1,136.4 0.33,204.6 -0.46,3.78 0.94,8.78 -2.87,11.27 -7.21,5.84 -15.95,9.37 -23.92,14.02 -32.86,18.66 -65.41,37.86 -97.96,57.05 -15.56,9.22 -30.72,21.15 -49.38,22.83 -9.58,1.17 -20.24,-3.66 -23.85,-12.98 -5.15,-13.23 -3.07,-27.75 -3.45,-41.56 0,-178.63 0.18,-357.28 -0.07,-535.88 0.1,-20.59 10.96,-41.18 29.14,-51.33 10.08,-6.15 21.89,-8.92 33.65,-8.87 26.56,-0.17 53.11,0.49 79.65,-0.4 7.21,0.71 14.34,1.85 21.48,2.89l1.78 0.26c8.25,4.06 15.46,10.05 23.86,13.78 7.82,-2.92 14.88,-8.45 23.49,-8.76 9.29,-0.22 18.33,2.47 27.6,2.92 16.17,1.17 32.32,-2.08 47.68,-6.98 9.02,-2.64 18.36,-6.47 27.88,-4.49 10.79,10.08 17.22,23.76 26.89,34.81 11.1,12.49 19.83,27.85 35.04,35.98 9.4,5.02 17.34,12.08 25.52,18.79 -6.12,-8.82 -12.6,-17.4 -18,-26.69 0.15,2.64 0.45,7.87 0.58,10.51 -20.13,-13.23 -33.46,-34.1 -44.71,-54.89 -19.12,-33.52 -34.46,-69.52 -42.18,-107.46 -3.17,-17.87 -12.64,-33.69 -17.62,-51.03 0.41,12.92 0.41,25.95 2.59,38.74 -34.86,19.27 -70.84,37.2 -109.13,48.6 -18.71,4.95 -39.84,10.72 -58.12,1.25 -11.7,-8.08 -20.11,-20.7 -24.35,-34.18 -7.79,-29.61 9.45,-59.21 2.49,-88.87 -3.43,-13.25 -10.61,-25.72 -20.72,-34.96 -13.96,-11.78 -32.52,-15.26 -49.84,-19.22 6.6,4.62 13.23,9.29 19.14,14.83 -16.14,0.58 -31.68,-4.12 -46.74,-9.37 11.58,12.24 26.15,20.74 41.54,27.24 -13.38,1.42 -26.89,1.02 -40.24,-0.51 -3.86,-0.2 -7.17,-2.43 -10.49,-4.13 7.24,-0.94 14.52,-1.53 21.81,-2.27 -15.11,-9.49 -28.03,-23.28 -31.99,-41.2 9.24,2.71 18.58,5.35 28.26,5.99 -3.63,-4.57 -7.49,-8.91 -11.4,-13.23 16.63,-2.06 33.03,1.65 48.44,7.74 -1.6,-3.47 -3.2,-6.9 -4.82,-10.36 19.35,2.16 39.68,7.6 53.22,22.53 13.15,13.15 16.09,32.14 22.26,48.9 5.19,14.7 2.75,30.42 2.06,45.6 -0.86,14.68 2.46,30.29 11.86,41.87 5.36,6.3 14.75,3.94 21.1,0.64 48.27,-26.26 90.95,-61.17 135.03,-93.65 0.15,3.86 0.33,7.72 0.5,11.61 16.66,-32.63 43.42,-64.75 81.18,-72.06 26.43,-6.81 55.1,5.96 80.31,-7.14 -21.91,0 -43.82,-0.25 -65.69,-2.05 11.13,-8.26 22.78,-15.75 34.71,-22.75 32.43,-18.82 65.56,-37.28 101.62,-48.2 20.54,-5.02 40.57,-12.16 59.23,-22.19 18.01,-9.67 37.33,-16.96 57.46,-20.56 -5.25,10.23 -10.61,20.49 -14.01,31.56 9.04,-12.06 17.19,-25.09 29.12,-34.64 11.58,-9.77 25.21,-17.13 39.92,-21.04 9.57,-2.47 18.33,-7.01 27.42,-10.75 7.51,-2.53 15.56,-0.25 23.28,-0.22 -34.96,-10.9 -64.62,-39.44 -74.98,-74.75 -6.78,-22.2 -0.48,-45.3 6.65,-66.53 7.72,-22.72 12.29,-48.11 3.81,-71.3 -9.87,-25.74 -28.49,-46.99 -48.8,-65.12 -29.76,-26.41 -63.78,-47.51 -98.82,-66.1 -11.37,-5.89 -22.75,-11.95 -34.86,-16.22 49.03,27.7 98.44,57.54 135.43,100.88 19.33,22.93 35.35,50.98 35.7,81.73 0.64,20.14 -6.98,39.13 -10.64,58.65 -5.05,24.33 -0.45,50.3 11.33,72.04 9.55,17.69 25.36,30.72 42.02,41.41 -21.33,10.33 -46.24,11.78 -68.93,5.56 -9.86,-2.77 -17.47,-9.93 -24.36,-17.14 15.8,-3.02 32.12,-5.41 46.17,-13.76 -5.77,-0.91 -11.53,-1.75 -17.32,-2.34 -11.28,10.21 -27.58,6.35 -41.26,9.3 4.54,7.79 9.77,15.51 17.32,20.74 11.29,8.53 25.26,12.06 38.59,16.07 -12.14,7.9 -25.19,15.26 -39.79,17.12 -25.52,3.3 -51.64,-2.49 -74.85,-13.15 18.53,-6.18 37.93,-9.88 55.76,-18.06 -20.8,-2.36 -41.59,-5.48 -61.73,-11.47 -17.97,-5.36 -36.61,-10.42 -51.97,-21.64 22.8,0.08 45.68,0.26 68.4,-1.88 -48.88,-12.72 -97.42,-30.29 -139.22,-59.18 30.42,3.32 61.02,4.42 91.59,2.64 0,-0.43 -0.03,-1.35 -0.03,-1.8 -27.9,-4.12 -55.6,-10.44 -81.98,-20.6 -19.73,-7.92 -39.61,-17.69 -53.58,-34.25 29.53,1.52 59.01,4.65 88.61,3.45 -35.59,-7.23 -72.26,-13.78 -104.25,-31.94 -9.67,-5.25 -18.13,-12.47 -25.16,-20.92 34.71,0.86 69.42,1.09 104.08,-0.69 -42.59,-6.06 -87.73,-12.46 -123.43,-38.44 18.36,-1.6 36.82,-1.9 55.05,-4.72 -26.87,-5.23 -52.18,-15.69 -78.21,-23.71 13.92,9.37 30.4,13.48 45.12,21.22 -12.62,1.32 -25.31,1.48 -37.98,2.08 15.54,19.33 39.41,27.7 61.24,37.48 -12.69,0.92 -25.42,0.56 -38.14,0.94 6.38,10.44 14.27,20.06 24.3,27.19 11.94,9.35 26.26,14.73 39.28,22.3 -10.13,-0.21 -20.21,-1.27 -30.31,-1.78 23.25,24.58 52.02,43.82 82.97,57.41 -11.09,-0.08 -22.21,-0.18 -33.28,0.58 26.86,27.7 63.04,43.32 97.98,58.15 -9.37,0.86 -18.79,0.96 -28.19,1.42 29.1,24.73 67.42,33.82 103.83,41.82 -13.66,6.12 -28.34,9.34 -42.71,13.35 14.65,17.35 38.04,20.93 59.11,24.66 -18.61,10.61 -38.85,17.95 -59.08,24.75 -38.27,12.29 -81,17.35 -119.19,2.06 11.63,-6.3 22.07,-15.79 35.55,-17.8 17.54,-3.2 34.86,-7.62 51.77,-13.33 -32.91,3.99 -66.12,8.15 -99.28,4.77 -23.84,-2.25 -48.34,-7.69 -68.07,-21.93 17.57,-4.52 34.89,-10.51 52.84,-13.31 29.45,0.03 58.85,-2.49 88.03,-6.55l0.43 -0.58c-47.33,1.14 -94.78,0.07 -141.73,-6.35 -21.38,-3.38 -43.4,-7.49 -61.98,-19.25 14.12,-2.64 28.49,-4.85 41.56,-11.04 11.07,-5.71 23.72,-3.58 35.65,-3.71 17.93,0.26 35.75,-1.95 53.63,-3.02 -14.37,-1.83 -28.92,-1.4 -43.34,-2.36 -47.56,-2.9 -95.09,-8.51 -141.46,-19.78 -21.17,-5.33 -42.91,-11.86 -59.92,-26.2 15.24,-0.03 30.7,2.05 45.78,-1.17 10.23,-1.96 20.21,-6.32 30.83,-5.26 35.62,3.51 71.67,1.75 107.15,-2.56 -51.17,-0.26 -102.66,-3.13 -152.73,-14.32 -23.13,-5.41 -46.29,-12.37 -66.7,-24.81 11.04,-0.91 22.29,-1.19 33.06,-4.11 9.44,-2.31 18.63,-6.73 28.59,-5.94 33.03,1.26 65.81,-3.91 98.59,-7.06l0.08 -1.07c-53.12,2.36 -107.28,2.97 -159.08,-10.89 -23.79,-6.7 -47.66,-16.05 -66.29,-32.76 24.57,1.2 48.92,-7.44 73.35,-2.36 33.85,4.37 68.66,8.28 102.45,1.32 -62.26,-4.03 -125.63,-9.16 -184.64,-30.8 -18.41,-7.41 -37.48,-16.65 -48.83,-33.66 14.91,0.86 29.71,3.91 44.72,3.25 9.37,-0.36 18.71,-2.32 28.1,-1.22 25.93,2.99 52,5 78.13,4.92l0.16 -1.29c-47.82,-4.12 -95.6,-11.1 -141.92,-23.82 -17.62,-5.33 -36.25,-11.09 -48.95,-25.29 18.84,1.02 37.55,4.85 56.5,3.53 47.5,-2.67 92.93,-19.04 136.24,-37.75 24.89,-10.47 48.27,-24.58 74.32,-32.12 33.72,-9.98 68.89,-13.74 103.83,-16.43 5.53,-0.51 11.02,-1.4 16.47,-2.44 -36.53,-1.8 -73.73,-2.54 -109.43,6.73 -57.36,14.14 -107.25,47.84 -163.47,65.25 -22.57,6.83 -46.13,11.78 -69.85,10.13 10.36,-5.05 21.53,-8.12 32.2,-12.41 17.57,-6.91 33.44,-17.24 50.07,-26.05 48.39,-26.54 99.05,-50 152.9,-63.05zm216.13 168.19l0 0zm0 0c8.81,7.77 19.09,13.56 28.59,20.41 -7.69,0.13 -15.36,-0.43 -23.03,-0.68 22.37,22.09 49.87,38.01 76.63,54.11 -15.62,0.56 -30.98,-2.64 -46.47,-3.96 14.88,23.46 39.13,38.51 62.72,52 -11.17,0.86 -22.29,-0.44 -33.39,-1.58 17.55,25.24 44.76,41.44 73.2,51.67 -11.96,3.28 -24.45,1.53 -36.66,2.19 10.48,16.75 29.3,24.98 46.72,32.52 12.57,4.57 25.54,10.26 39.2,8.86 -24.58,-9.44 -53.88,-12.97 -71.63,-34.58 20.04,-2.21 40.2,-2.87 60.26,-4.82 -35.83,-10.06 -76.15,-19.02 -100.4,-49.85 30.77,2.97 61.78,8.1 92.78,4.73 -23.77,-6.02 -48.04,-10.82 -70.54,-20.93 -17.92,-8.12 -36.48,-17.44 -48.42,-33.69 17.98,2.77 35.98,5.69 54.21,6.04 17.78,1.22 35.55,-0.6 53.32,-0.02 -0.81,-0.51 -2.44,-1.5 -3.25,-2.01 -47.99,-4.59 -97.68,-19.95 -132.44,-54.89 10.87,-1.32 21.79,-1.55 32.68,-2.46 -18.48,-6.58 -36.59,-14.15 -54.08,-23.06zm-426.69 675.17l0 0zm0 0c-13.46,10.99 -19.45,28.71 -18.97,45.73 0.05,183.65 0,367.3 0.05,550.93 0.41,9.82 1.63,22.92 12.06,27.29 11.78,3.71 23.67,-2.56 33.9,-7.9 47.25,-28.46 94.68,-56.67 143.08,-83.15 0.15,-68.63 0.05,-137.29 0.07,-205.92 -23.05,-0.08 -46.08,-1.22 -69.14,-0.53 -0.18,63.63 -0.02,127.28 -0.07,190.91 -17.35,10.54 -34.87,20.74 -52.51,30.77 -0.1,-87.06 -0.69,-174.15 0.51,-261.22 0,-83.35 -0.28,-166.71 0.78,-250.05 17.35,0.56 34.69,0.61 52.03,0.67 -0.03,26.45 -0.33,52.91 -0.05,79.39 1.22,15.62 -11.53,27.04 -16.89,40.7 28.39,1.88 56.9,1.15 85.32,0.54 0.07,-41.77 0,-83.51 0.05,-125.28 0.48,-13.26 -5.08,-26.81 -15.7,-34.99 -12.03,-9.32 -27.72,-11.96 -42.55,-12.04 -22.12,-1.24 -44.21,0.66 -66.32,0.08 -16.15,-0.51 -33.24,3.12 -45.65,14.07zm192.38 52.94l0 0zm0 0c4.27,5.35 9.27,10.18 12.93,16.02 -0.46,126.8 -0.13,253.78 -0.21,380.63 0.18,10.01 -5.35,18.74 -8.35,27.98 25.09,-6.32 50.35,-11.88 75.49,-17.92 -4.42,-7.21 -12.11,-13.59 -11.33,-22.8 0.1,-110.84 0.1,-221.69 -0.28,-332.52 13.87,-0.36 27.73,-0.23 41.59,-0.23 0,41.67 0,83.33 0,125 -9.16,0.05 -18.33,0.05 -27.49,0.05 -2.49,12.64 -4.78,25.29 -6.73,38.03 11.37,0.11 22.75,0.11 34.12,-0.02 0.43,54.03 -0.38,108.06 0.46,162.09 -0.1,9.32 -4.98,17.6 -8.1,26.16 24.86,-4.4 49.71,-8.76 74.75,-11.99 -4.77,-8.53 -12.95,-16.32 -11.86,-26.89 0.13,-107.55 0.05,-215.11 0.08,-322.66 0.15,-11.63 -5.41,-23.46 -15.41,-29.71 -16.91,-11.22 -38.09,-11.15 -57.59,-10.87 -30.7,0.61 -61.4,-1.47 -92.07,-0.35zm195.99 -0.08l0 0zm0 0c4.3,7.19 10.8,14.12 9.75,23.13 -0.3,110.15 0.26,220.29 -0.28,330.44 1.07,12.19 -3.93,23.36 -9.54,33.82 23.28,-2.69 46.57,-5.28 69.82,-8.15 -3.6,-8.36 -9.59,-16.23 -9.26,-25.72 -1.25,-79.73 -0.61,-159.46 -0.46,-239.18 5.69,14.27 8.71,29.4 13.07,44.07 13.59,49.87 27.88,99.54 41.11,149.48 2.26,22.57 4.14,46.54 -4.87,67.97 21.73,-1.29 43.47,-2.56 65.15,-4.47 -3.76,-9.88 -9.52,-19.57 -8.68,-30.54 0.33,-109.67 -0.36,-219.33 0.38,-328.97 3.02,-3.86 5.94,-7.74 8.78,-11.7 -19.7,-0.74 -39.38,-0.31 -59.08,-0.31 -0.71,69.98 0.63,139.98 -0.69,209.91 -2.74,-5.89 -4.8,-12.09 -6.57,-18.33 -15.26,-53.17 -30.6,-106.29 -46.11,-159.38 -3.33,-10.31 -2.8,-21.25 -2.49,-31.94 -20.01,-0.59 -40.04,-0.41 -60.03,-0.13zm199.53 -0.07l0 0zm0 0c3.58,6.5 8.96,12.77 8.25,20.71 1.34,66.88 0.25,133.81 0.61,200.72 -0.54,42.38 1.95,84.75 -0.16,127.1 -0.53,8 -5.4,14.81 -8.37,22.07 25.51,-0.46 51.01,-1.57 76.5,-1.5 -4.85,-9.75 -11.1,-19.47 -10.18,-30.87 -0.11,-105.83 0.05,-211.69 -0.08,-317.52 -1.14,-7.99 5.1,-13.71 9.09,-19.83 -25.21,-0.88 -50.45,0.18 -75.66,-0.88zm-224.69 40.82l0 0zm0 0c0,1.96 -0.05,5.87 -0.05,7.82 0.15,107.33 -0.28,214.68 0.2,322.04 5.95,7.18 12.22,15.05 12.07,24.93 3.04,-0.08 6.09,-0.15 9.16,-0.15 -5.28,-10.52 4.09,-19.43 6.12,-29.36 2.79,-54.1 -1.52,-108.34 1.63,-162.42 -0.16,-50.35 0.22,-100.7 -0.21,-151.02l2.16 0.15c-0.96,-2.31 -2.01,-4.57 -3.12,-6.81 -8.99,-3.09 -18.61,-3.65 -27.96,-5.18zm-95.92 16.2l0 0zm0 0c-0.36,39.36 0.93,78.74 -0.66,118.07 7.13,-8.53 19.17,-4.88 28.79,-5.15 0.76,-37.66 0.51,-75.37 0.13,-113.02 -9.42,0.13 -18.84,0.13 -28.26,0.1zm188.14 102.96l0 0zm0 0c-0.46,64.52 -0.07,129.04 -0.2,193.56 -0.48,8.81 5.84,15.64 8.89,23.41 2.05,3.27 -0.79,6.52 -3.58,8.05l0.02 0.86c11.17,-0.69 22.29,-2.29 33.52,-2.46 -5.84,-9.88 3.07,-19.99 3.73,-30.09 1.12,-17.52 1.93,-35.63 -3.25,-52.64 -13.41,-46.79 -25.72,-93.89 -39.13,-140.69zm-187.79 59.62l0 0zm0 0c-0.68,53.96 -0.1,107.91 -0.35,161.89 -0.66,11.78 10.99,19.07 13.07,30.24 2.8,-0.66 5.61,-1.29 8.43,-1.93 -2,-13.76 9.42,-24.75 8.41,-38.41 -0.23,-32.2 0.3,-64.42 -0.31,-96.62 -1.78,-18.4 -0.66,-36.91 -1.34,-55.37 -9.3,0.15 -18.62,0.15 -27.91,0.2zm814.08 -577.56c5.87,-3.91 11.45,1.47 15.95,4.87 10.2,8.53 22.98,13.84 31.69,24.17 14.9,17.37 23.08,41.85 17.24,64.44 -6.63,20.75 -22.4,37.2 -39.64,49.82 -0.76,-13.15 -0.2,-27.35 -7.21,-39.05 -6.12,-9.88 -20.54,-6.75 -27.6,-15.54 -9.5,-10.64 -13.91,-27.62 -29.2,-31.66 -22.7,-4.37 -45.63,1.93 -67.64,7.08 4.16,1.6 8.38,3.13 12.31,5.28 30.83,18.67 57.87,42.76 87.22,63.51 3.73,-13.64 -2.79,-26.92 -4.39,-40.32 2.97,2.23 7.16,3.78 7.89,7.92 3.26,11.04 6.02,22.57 5.67,34.17 -0.36,8.64 -11.23,8.71 -16.56,4.62 -23.23,-14.39 -44.46,-31.71 -66.19,-48.21 -12.88,-9.5 -24.86,-20.8 -40.3,-26 -3.09,-4.27 2.82,-5.41 5.54,-7.21 18.99,-8.46 39.3,-13.44 59.18,-19.35 8.41,-2.77 17.37,-5.46 23.92,-11.76 6.76,-6.17 6.32,-16.65 12.67,-23.05 6.91,-2.01 15.87,-3.4 21.36,2.51 5.81,5.89 12.67,10.72 20.94,12.47 -8.27,-5.39 -16.8,-10.69 -22.85,-18.71zm-21.43 22.31l0 0zm0 0c2.39,0.21 7.19,0.61 9.57,0.84 -0.02,-3.43 -0.02,-6.85 -0.68,-10.23 -3.33,2.79 -6.15,6.07 -8.89,9.39zm-350.34 334.93c21.68,-6.7 44.71,-3.91 67.06,-4.52 20.44,-0.12 43.52,2.87 57.53,19.45 11.89,14.81 7.9,34.81 8.51,52.33 -0.61,13.97 1.52,28.21 -1.3,41.98 -7.46,3.35 -16.14,1.39 -24.09,1.9 -19.25,-0.74 -38.7,1.27 -57.82,-0.99 -0.78,-0.71 -2.36,-2.11 -3.15,-2.82 3.02,-12.85 20.57,-18 19.1,-32.35 0.12,-11.22 0,-22.44 -0.54,-33.64 -9.75,-0.15 -19.5,-0.15 -29.25,-0.03 0.18,18.82 -0.78,37.68 0.38,56.5 1.35,14.29 12.62,24.2 21.41,34.45 18.33,20.62 36.39,41.47 54.59,62.21 15.31,16.07 22.24,38.8 21.94,60.71 -0.08,27.07 0.05,54.14 -0.03,81.23 0.26,13.91 -5.91,29.12 -19.14,35.29 -19.6,10.03 -42.15,6.63 -63.28,6.45 -16.75,0.38 -33.36,-2.92 -49.36,-7.54 -17.34,-5.18 -33.26,-20.19 -33.69,-39.18 -0.3,-30.67 -0.38,-61.42 0.15,-92.09 28.57,-0.99 57.28,-1.3 85.85,0.15 -2.51,10.79 -10.49,18.79 -17.32,27.02 0,20.99 -1.34,42.12 0.56,63.02 9.5,1.57 19.15,0.91 28.74,0.78 0.46,-25.11 0.18,-50.22 0.23,-75.33 0,-13.97 -4.95,-28.08 -14.98,-37.99 -18,-20.13 -36.36,-39.96 -54.23,-60.17 -8.71,-9.96 -19.12,-18.94 -24.3,-31.44 -6.63,-14.21 -4.65,-30.24 -4.88,-45.42 0.36,-15.92 -0.68,-31.87 0.46,-47.76 1.47,-16.3 16.15,-27.73 30.85,-32.2zm-7.64 10.08l0 0zm0 0c-10.67,4.57 -19.55,14.58 -19.71,26.64 -0.43,22.88 -0.12,45.8 -0.15,68.68 -0.13,14.14 7.03,27.17 16.73,37.05 21.79,23.94 43.45,47.98 65.11,72.06 8.88,9.59 15.33,22.04 15.26,35.36 0.05,29.54 0.1,59.06 -0.08,88.57 -13.41,0.18 -26.74,-0.87 -40.09,-1.7 0.66,-24.25 -0.28,-48.5 0.56,-72.75 5.07,-5.86 9.85,-11.98 14.39,-18.25 -23.64,-1.63 -47.25,1.75 -70.91,0.25 -1.91,23.31 -0.59,46.72 -1.04,70.1 0.15,11.63 -1.58,24.94 6.62,34.51 13.59,17.22 37.02,20.72 57.56,21.84 21.03,0.38 42.43,3.88 63.17,-0.79 13.03,-2.77 25.12,-13.66 24.96,-27.7 0.28,-31.33 -0.05,-62.67 0.16,-94 0.45,-20.54 -9.45,-40.02 -23.74,-54.31 -19.02,-21.61 -37.86,-43.34 -57.08,-64.77 -6.63,-7.47 -13.41,-15.59 -15.36,-25.67 -2.19,-11.73 -0.08,-23.67 -0.59,-35.47 -0.56,-11 -0.12,-21.97 0.38,-32.94 13.23,0 26.44,0 39.66,0 -0.12,16.84 0.92,33.77 -0.35,50.58 -4.27,6.81 -10.23,12.34 -15.01,18.82 23.57,0.81 47.15,0.38 70.72,0.25 0.12,-22.42 -0.03,-44.81 0.25,-67.21 0.23,-10.1 -5.56,-19.47 -13.56,-25.26 -14.62,-10.36 -33.46,-11 -50.73,-10.89 -22.42,0.58 -46.08,-2.57 -67.13,7zm155.13 -10.56l0 0zm0 0c3.23,4.47 6.58,8.81 10.08,13.08 0.64,113.04 0.03,226.1 0.31,339.17 0.74,9.9 -7.8,16.65 -12.34,24.55 26.46,3.02 52.86,6.88 79.47,8.58 -3.43,-7.72 -8.22,-14.9 -10.2,-23.15 -1.02,-8.41 -0.39,-16.91 -0.49,-25.34 0.05,-105.02 0,-210.01 0.03,-315.03 -0.48,-9.24 7.79,-15.18 12.59,-22.09 -26.48,0.23 -52.96,-0.2 -79.45,0.23z"/>
   <path class="fil1" d="M710.34 1415.79c6.76,-0.79 13.87,-1.85 20.54,-0.02 5.64,1.85 3.86,9.04 4.42,13.6 -1.37,27.1 -0.68,54.27 -2.13,81.36 0.33,6.37 -3.4,12.31 -9.5,14.39 -13.4,4.93 -27.75,8.16 -42.1,7.88 -5.35,0.38 -9.8,-4.12 -9.03,-9.5 -0.03,-27.17 1.19,-54.34 1.75,-81.48 0.2,-5.81 0.12,-12.97 5.43,-16.68 8.96,-6.22 20.11,-7.72 30.62,-9.55zm831.91 62.67c13.68,3.2 27.19,7.16 40.88,10.53 0.12,4.62 0.17,9.3 0.28,13.97 -5.82,-1.37 -11.56,-2.77 -17.3,-4.27 -0.48,11.55 -0.58,23.13 -1.27,34.69 5.95,1.77 11.91,3.48 17.91,5.07 -0.06,4.55 -0.08,9.07 -0.13,13.64 -5.79,-1.52 -11.55,-3.05 -17.39,-4.29 -0.89,11.91 -1.68,23.89 -0.79,35.82 5.91,1.48 11.96,2.65 17.57,5.16 0.02,3.73 -0.1,7.46 -0.38,11.22 -14.42,-0.48 -27.91,-6.24 -41.9,-9.09 0.03,-37.5 1.48,-74.98 2.52,-112.45zm-1047.4 -11.99c8.81,-5.86 19.5,-7.69 29.58,-10.31 7.54,-1.39 16.18,-3.96 23.28,0.26 2.65,9.21 0.89,18.94 0.82,28.36 -8.2,1.98 -16.35,4.11 -24.56,6.02 -0.02,-6.56 0.26,-13.08 0.59,-19.58 -3.86,0.53 -7.7,1.09 -11.55,1.7 -0.79,28.31 -1.27,56.62 -1.96,84.93 3.78,-0.78 7.57,-1.55 11.35,-2.28 0.69,-10.54 -0.74,-21.23 1.34,-31.61 7.83,-3 16.13,-4.42 24.28,-6.17 -0.41,10.38 -0.48,20.77 -0.74,31.15 0,5.36 -2.08,10.97 -6.9,13.79 -11.05,7.03 -24.38,9.01 -36.97,11.55 -6.45,1.32 -17.6,1.42 -17.34,-7.72 0.28,-27.95 1.54,-55.91 1.72,-83.84 -0.02,-6.04 1.55,-12.9 7.06,-16.25zm864 -29.91c9.67,-5.53 21.33,-1.57 31.53,0.23 9.42,2.44 21.87,3.81 26.21,13.96 2.26,8.81 0.2,18.01 0.2,26.99 -7.51,-1.75 -15.03,-3.52 -22.52,-5.3 -0.36,-6.91 0.89,-14.09 -1.04,-20.77 -4.6,-1.42 -9.35,-2.31 -14.04,-3.25 -0.79,28.26 -1.83,56.54 -2.01,84.83 5.05,1.07 10.08,2.18 15.16,3.22 0.28,-9.31 0.97,-18.63 0.41,-27.93 -1.53,-1.01 -4.55,-3.02 -6.07,-4.03 -0.08,-4.78 -0.1,-9.55 -0.1,-14.27 9.9,2.59 20.28,3.65 29.83,7.46 -0.51,14.5 -0.51,29.02 -0.91,43.55 0.22,5.05 -2.16,11.07 -8.05,11.19 -12.37,0.94 -24.58,-2.31 -36.44,-5.38 -6.45,-2.06 -14.98,-5.61 -15.36,-13.46 -0.96,-25.39 1.27,-50.78 1.07,-76.17 0.12,-6.98 -0.18,-14.19 2.13,-20.87zm-167.63 -39.76c13.68,1.85 27.29,4.11 40.98,6.02 0.05,4.52 0.05,9.04 0.05,13.58 -5.66,-0.81 -11.3,-1.65 -16.93,-2.39 -0.08,11.81 -0.94,23.59 -0.79,35.4 5.91,0.71 12.01,0.94 17.65,3.1 0,4.24 -0.34,8.48 -0.51,12.74 -5.92,-0.66 -11.81,-1.37 -17.68,-2.21 0.18,12.04 -0.93,24.07 -0.48,36.11 5.84,0.68 11.66,1.47 17.52,2.13 -0.2,4.5 -0.48,8.96 -0.68,13.48 -13.99,-1.34 -27.86,-3.75 -41.8,-5.48 0.51,-37.5 1.12,-75 2.67,-112.48zm-329.29 -4.5c7.97,-0.66 15.97,-1.34 23.96,-1.65 -0.83,32.63 -1.21,65.28 -2.13,97.94 4.47,-0.41 8.97,-0.82 13.43,-1.25 -0.02,4.52 -0.05,9.07 -0.07,13.64 -12.65,1.47 -25.37,2.51 -38.06,3.63 0.66,-37.43 1.27,-74.88 2.87,-112.31zm164.78 -11.7c8.18,0.63 16.38,1.29 24.61,1.9 -0.99,33.01 -2.47,66.07 -2.21,99.1 4.34,0.23 8.71,0.49 13.1,0.74 0,4.44 0,8.89 0,13.38 -12.72,-0.61 -25.39,-1.75 -38.01,-3.2 0.25,-37.32 1.37,-74.62 2.51,-111.92zm-549.3 -353.24c10.23,-1.09 17.44,7.44 26.05,11.4 16.83,9.6 37.86,10.36 55.6,2.77 -0.02,1.8 -0.1,5.41 -0.12,7.24 -16.18,7.39 -34.74,5.79 -51.52,1.6 -12.7,-3.38 -22.14,-13.05 -30.01,-23.01zm244.61 -70.46c9.35,1.53 18.97,2.09 27.96,5.18 1.11,2.24 2.16,4.5 3.12,6.81l-2.16 -0.15c-9.75,-0.64 -19.37,-2.26 -28.97,-4.02 0,-1.95 0.05,-5.86 0.05,-7.82zm339.1 -31.46c21.05,-9.57 44.71,-6.42 67.13,-7 17.27,-0.11 36.11,0.53 50.73,10.89 8,5.79 13.79,15.16 13.56,25.26 -0.28,22.4 -0.13,44.79 -0.25,67.21 -23.57,0.13 -47.15,0.56 -70.72,-0.25 4.78,-6.48 10.74,-12.01 15.01,-18.82 1.27,-16.81 0.23,-33.74 0.35,-50.58 -13.22,0 -26.43,0 -39.66,0 -0.5,10.97 -0.94,21.94 -0.38,32.94 0.51,11.8 -1.6,23.74 0.59,35.47 1.95,10.08 8.73,18.2 15.36,25.67 19.22,21.43 38.06,43.16 57.08,64.77 14.29,14.29 24.19,33.77 23.74,54.31 -0.21,31.33 0.12,62.67 -0.16,94 0.16,14.04 -11.93,24.93 -24.96,27.7 -20.74,4.67 -42.14,1.17 -63.17,0.79 -20.54,-1.12 -43.97,-4.62 -57.56,-21.84 -8.2,-9.57 -6.47,-22.88 -6.62,-34.51 0.45,-23.38 -0.87,-46.79 1.04,-70.1 23.66,1.5 47.27,-1.88 70.91,-0.25 -4.54,6.27 -9.32,12.39 -14.39,18.25 -0.84,24.25 0.1,48.5 -0.56,72.75 13.35,0.83 26.68,1.88 40.09,1.7 0.18,-29.51 0.13,-59.03 0.08,-88.57 0.07,-13.32 -6.38,-25.77 -15.26,-35.36 -21.66,-24.08 -43.32,-48.12 -65.11,-72.06 -9.7,-9.88 -16.86,-22.91 -16.73,-37.05 0.03,-22.88 -0.28,-45.8 0.15,-68.68 0.16,-12.06 9.04,-22.07 19.71,-26.64zm-114.41 -9.36c25.21,1.06 50.45,0 75.66,0.88 -3.99,6.12 -10.23,11.84 -9.09,19.83 0.13,105.83 -0.03,211.69 0.08,317.52 -0.92,11.4 5.33,21.12 10.18,30.87 -25.49,-0.07 -50.99,1.04 -76.5,1.5 2.97,-7.26 7.84,-14.07 8.37,-22.07 2.11,-42.35 -0.38,-84.72 0.16,-127.1 -0.36,-66.91 0.73,-133.84 -0.61,-200.72 0.71,-7.94 -4.67,-14.21 -8.25,-20.71zm-199.53 0.07c19.99,-0.28 40.02,-0.46 60.03,0.13 -0.31,10.69 -0.84,21.63 2.49,31.94 15.51,53.09 30.85,106.21 46.11,159.38 1.77,6.24 3.83,12.44 6.57,18.33 1.32,-69.93 -0.02,-139.93 0.69,-209.91 19.7,0 39.38,-0.43 59.08,0.31 -2.84,3.96 -5.76,7.84 -8.78,11.7 -0.74,109.64 -0.05,219.3 -0.38,328.97 -0.84,10.97 4.92,20.66 8.68,30.54 -21.68,1.91 -43.42,3.18 -65.15,4.47 9.01,-21.43 7.13,-45.4 4.87,-67.97 -13.23,-49.94 -27.52,-99.61 -41.11,-149.48 -4.36,-14.67 -7.38,-29.8 -13.07,-44.07 -0.15,79.72 -0.79,159.45 0.46,239.18 -0.33,9.49 5.66,17.36 9.26,25.72 -23.25,2.87 -46.54,5.46 -69.82,8.15 5.61,-10.46 10.61,-21.63 9.54,-33.82 0.54,-110.15 -0.02,-220.29 0.28,-330.44 1.05,-9.01 -5.45,-15.94 -9.75,-23.13zm-195.99 0.08c30.67,-1.12 61.37,0.96 92.07,0.35 19.5,-0.28 40.68,-0.35 57.59,10.87 10,6.25 15.56,18.08 15.41,29.71 -0.03,107.55 0.05,215.11 -0.08,322.66 -1.09,10.57 7.09,18.36 11.86,26.89 -25.04,3.23 -49.89,7.59 -74.75,11.99 3.12,-8.56 8,-16.84 8.1,-26.16 -0.84,-54.03 -0.03,-108.06 -0.46,-162.09 -11.37,0.13 -22.75,0.13 -34.12,0.02 1.95,-12.74 4.24,-25.39 6.73,-38.03 9.16,0 18.33,0 27.49,-0.05 0,-41.67 0,-83.33 0,-125 -13.86,0 -27.72,-0.13 -41.59,0.23 0.38,110.83 0.38,221.68 0.28,332.52 -0.78,9.21 6.91,15.59 11.33,22.8 -25.14,6.04 -50.4,11.6 -75.49,17.92 3,-9.24 8.53,-17.97 8.35,-27.98 0.08,-126.85 -0.25,-253.83 0.21,-380.63 -3.66,-5.84 -8.66,-10.67 -12.93,-16.02zm665.06 -1.35c26.49,-0.43 52.97,0 79.45,-0.23 -4.8,6.91 -13.07,12.85 -12.59,22.09 -0.03,105.02 0.02,210.01 -0.03,315.03 0.1,8.43 -0.53,16.93 0.49,25.34 1.98,8.25 6.77,15.43 10.2,23.15 -26.61,-1.7 -53.01,-5.56 -79.47,-8.58 4.54,-7.9 13.08,-14.65 12.34,-24.55 -0.28,-113.07 0.33,-226.13 -0.31,-339.17 -3.5,-4.27 -6.85,-8.61 -10.08,-13.08zm-857.44 -51.59c12.41,-10.95 29.5,-14.58 45.65,-14.07 22.11,0.58 44.2,-1.32 66.32,-0.08 14.83,0.08 30.52,2.72 42.55,12.04 10.62,8.18 16.18,21.73 15.7,34.99 -0.05,41.77 0.02,83.51 -0.05,125.28 -28.42,0.61 -56.93,1.34 -85.32,-0.54 5.36,-13.66 18.11,-25.08 16.89,-40.7 -0.28,-26.48 0.02,-52.94 0.05,-79.39 -17.34,-0.06 -34.68,-0.11 -52.03,-0.67 -1.06,83.34 -0.78,166.7 -0.78,250.05 -1.2,87.07 -0.61,174.16 -0.51,261.22 17.64,-10.03 35.16,-20.23 52.51,-30.77 0.05,-63.63 -0.11,-127.28 0.07,-190.91 23.06,-0.69 46.09,0.45 69.14,0.53 -0.02,68.63 0.08,137.29 -0.07,205.92 -48.4,26.48 -95.83,54.69 -143.08,83.15 -10.23,5.34 -22.12,11.61 -33.9,7.9 -10.43,-4.37 -11.65,-17.47 -12.06,-27.29 -0.05,-183.63 0,-367.28 -0.05,-550.93 -0.48,-17.02 5.51,-34.74 18.97,-45.73zm117.66 -20.11c6.24,-6.17 14.65,-9.02 23,-10.89 -0.3,4.59 -0.81,9.19 -1.52,13.78 -7.14,-1.04 -14.27,-2.18 -21.48,-2.89zm1029.62 -78.84c1.35,-5.36 5.23,-9.42 10.46,-11.17 -1.32,5.23 -4.54,10.69 -10.46,11.17zm-86.99 -183.91c2.74,-3.32 5.56,-6.6 8.89,-9.39 0.66,3.38 0.66,6.8 0.68,10.23 -2.38,-0.23 -7.18,-0.63 -9.57,-0.84zm-65.94 -41.41c6.2,-2.64 15.24,-6.04 19.81,1.17 7.84,9.44 -4.62,24.25 -15.21,18.08 -6.33,-2.62 -6.22,-9.98 -3.94,-15.31 0.03,-0.46 0.1,-1.4 0.13,-1.86l-0.79 -2.08zm-100.98 -61.77c19.1,3.27 34.15,22.36 34.23,41.46 -3.15,-4.37 -5.97,-8.96 -9.7,-12.8 1.3,6.63 4.29,12.75 6.45,19.12 -3.71,-2.77 -7.92,-5.33 -10.03,-9.65 -3.45,-6.73 -0.84,-14.88 -3.96,-21.63 -4.67,-6.45 -11.83,-10.49 -16.99,-16.5zm-38.62 -32.4c33.09,-4.22 63.96,16.55 82.12,42.78 3.98,6.42 10.69,10.16 16.43,14.78 -2.24,-0.1 -6.76,-0.33 -8.99,-0.43 -0.18,2.31 -0.49,6.9 -0.66,9.19 -4.4,-8.86 -7.92,-18.39 -14.68,-25.83 -15.67,-17.87 -38.14,-28.76 -61.24,-33.15 3.73,13.12 15.97,20.81 22.16,32.49 -4.9,-2.1 -9.57,-4.62 -14.34,-6.95 6.22,10.1 15.01,18.18 23.15,26.68 -2.23,-0.02 -6.65,-0.1 -8.86,-0.15 5.03,10.06 14.15,16.73 22.37,23.97 -7.49,-2.06 -15.23,-4.7 -20.51,-10.72 -5.66,-5.61 -7.34,-13.65 -9.17,-21.09 -6.42,-5.84 -13.3,-12.6 -14.09,-21.74 0.02,-7.54 -7.14,-11.3 -10.82,-16.99 -2.84,-3.65 -2.28,-8.53 -2.87,-12.84zm-428.06 -256.73c17.49,8.91 35.6,16.48 54.08,23.06 -10.89,0.91 -21.81,1.14 -32.68,2.46 34.76,34.94 84.45,50.3 132.44,54.89 0.81,0.51 2.44,1.5 3.25,2.01 -17.77,-0.58 -35.54,1.24 -53.32,0.02 -18.23,-0.35 -36.23,-3.27 -54.21,-6.04 11.94,16.25 30.5,25.57 48.42,33.69 22.5,10.11 46.77,14.91 70.54,20.93 -31,3.37 -62.01,-1.76 -92.78,-4.73 24.25,30.83 64.57,39.79 100.4,49.85 -20.06,1.95 -40.22,2.61 -60.26,4.82 17.75,21.61 47.05,25.14 71.63,34.58 -13.66,1.4 -26.63,-4.29 -39.2,-8.86 -17.42,-7.54 -36.24,-15.77 -46.72,-32.52 12.21,-0.66 24.7,1.09 36.66,-2.19 -28.44,-10.23 -55.65,-26.43 -73.2,-51.67 11.1,1.14 22.22,2.44 33.39,1.58 -23.59,-13.49 -47.84,-28.54 -62.72,-52 15.49,1.32 30.85,4.52 46.47,3.96 -26.76,-16.1 -54.26,-32.02 -76.63,-54.11 7.67,0.25 15.34,0.81 23.03,0.68 -9.5,-6.85 -19.78,-12.64 -28.59,-20.41zm-160.39 -188.12l69.59 0c19.07,3.22 38.44,4.57 57.41,8.38 39.51,7.74 77.98,21.51 112.71,41.94 27.93,16.43 54.62,34.87 81.61,52.77 38.97,26.63 78.23,54.87 107.07,92.75 29.73,-9.9 59.03,-21.1 89.32,-29.2 45.1,-13.28 90.78,-25.59 137.62,-30.65 34.79,-3.73 68.48,8.53 100.63,20.16 35.67,12.14 68.27,31.64 98.87,53.38 22.75,15.66 39.84,38.92 49.56,64.64 6.83,18.92 8.86,41.34 -1.6,59.34 -10.08,17.67 -29.45,26.79 -47.63,33.84 -21.2,7.32 -43.04,13.16 -65.31,15.9 -27.34,3.96 -54.46,10.03 -80.61,18.99 -24.3,8.63 -48.07,18.69 -72.04,28.21 39.16,11.68 78.11,24.3 115.84,40.09 -0.31,-4.34 -0.92,-8.66 -0.64,-13 0.97,-4.64 7.11,-8.91 11.38,-5.43 11.3,7.16 21.63,16.05 30.72,25.9 7.19,7.54 9.27,18.96 18.15,24.98 9.07,6.93 17.52,14.58 25.39,22.83 8.38,9.8 23.82,11.42 29.53,23.89 5.11,9.27 0.69,19.63 -0.78,29.2 3.04,8.53 11.27,14.29 14.9,22.7 11.43,23.87 9.8,54.18 -5.71,75.94 -10.41,14.43 -24.17,27.88 -41.59,33.09 -2.19,-16.58 2.56,-38.8 -13.71,-49.54 0.73,12.87 5.18,25.95 1.83,38.8 -4.24,9.27 -17.47,7.77 -24.71,3.07 -27.8,-17.29 -53.52,-37.65 -79.65,-57.28 -5.74,-5.36 -13.31,-0.1 -19.68,1.09 -23.92,5.97 -41.61,24.35 -57.25,42.3 -3.15,3.48 -5.87,8.68 -3.28,13.31 4.55,8.04 13.66,11.34 21.81,14.52 25.37,9.67 51.06,18.46 76.76,27.17 8.27,3.53 17.14,0.61 25.64,-0.05 9.07,-0.16 16.15,-7.21 25.19,-7.6 15.59,-1.77 30.67,3.61 45.2,8.51 15.2,6.27 31.83,15.95 36.38,32.98l-1.5 0.49c0.51,0.22 1.53,0.73 2.03,0.99l1.83 -0.08c1.07,-0.05 3.2,-0.13 4.27,-0.18 9.85,-7.94 18.15,-18.2 30.03,-23.36 8.87,-4.19 20.42,-3.32 26.54,-12.24 -10.46,-1.52 -20.97,-0.07 -31.11,2.54 10.08,-6.67 23.01,-11.19 35.15,-8.4 15.23,3.6 31.07,-3.23 46.31,1.12 15.94,7.51 32.17,17.62 40.37,33.92 7.62,14.09 8.2,31.03 3.99,46.29 -7.39,-4.07 -9.86,-12.24 -13.28,-19.35 3.78,11.63 7.33,23.51 6.95,35.87 0.03,1.5 0.08,4.55 0.11,6.05 20.49,-0.18 43.87,3.65 56.97,21.2 11.73,14.32 11.45,33.72 11.94,51.24 0.3,32.37 0.05,64.74 0.12,97.12 -31.81,-0.1 -63.63,0.56 -95.42,-0.38 6.66,-7.44 14.58,-13.59 21.23,-20.98 3.12,-3.19 2.41,-7.99 2.74,-12.06 -0.45,-28.13 -0.33,-56.29 -0.23,-84.42 -16.73,-0.05 -33.46,-0.92 -50.19,-0.71 0.23,56.72 -0.46,113.44 0.33,170.17 21.83,11.25 43.14,23.51 64.82,35.04 34.94,19.12 55.3,58.95 55.48,98.11 -0.08,87.21 -0.13,174.41 0.05,261.6 -0.15,7.72 -0.46,16.81 -6.83,22.24 -5.84,5.03 -14.19,3.23 -20.9,1.32 -15.79,-5.03 -29.48,-14.75 -44.58,-21.35 -89.38,-40.93 -184.11,-69.14 -279.99,-90.24 -114.16,-24.91 -230.44,-39.48 -347.07,-45.88 -122.13,-5.97 -244.86,-1.96 -366.11,14.27 -23.89,2.76 -47.45,8.2 -71.45,10.23 109.92,-27.32 222.86,-40.88 335.82,-46.97 125.41,-5.97 251.35,-1.6 375.91,14.16 77.83,10.06 155.14,24.63 230.88,45.33 -0.17,-59.42 1.17,-118.81 0.61,-178.22 31.74,-0.66 63.53,-0.86 95.27,0.1 -7.01,8.48 -16.25,15.01 -22.4,24.17 -1.54,5.56 -1.11,11.43 -1.21,17.14 0.4,43.95 -0.18,87.88 0.3,131.83 16.66,6.68 33.19,13.74 49.84,20.46 -0.05,-58.42 0.89,-116.87 -1.01,-175.24 -0.54,-10.69 -0.61,-21.51 -3.08,-31.97 -3.22,-10.99 -14.04,-16.94 -23.23,-22.37 -20.89,-11.3 -41.26,-23.59 -62.69,-33.82 -16.78,-7.62 -32.73,-22.24 -33.46,-41.82 -0.82,-49.81 0.38,-99.68 -0.51,-149.5 -1.4,-0.07 -4.14,-0.23 -5.54,-0.3 -4.54,-0.18 -9.09,-0.41 -13.58,-1.1 -8.38,-3.35 -16.15,-8.15 -24.81,-10.76 -4.29,-5.23 -8.5,-10.54 -12.72,-15.82 -4.75,5.1 -9.57,10.16 -14.24,15.31 -6.32,3.1 -11.86,7.49 -17.27,11.91 20.52,0.84 41.09,0.18 61.6,0.51 -4.04,7.23 -8.99,14.6 -8.66,23.28 -0.05,121.95 0.1,243.91 -0.07,365.86 -0.69,13.4 7.46,24.68 12.34,36.53 -29.66,-6.77 -59.44,-12.92 -89.13,-19.62 -12.51,-3.99 -25.67,-6.63 -37.19,-13.18 -10.01,-5.69 -19.12,-12.92 -26.97,-21.33 -6.27,-12.72 -10.97,-26.51 -10.74,-40.85 0.05,-102.48 -0.08,-204.96 0.08,-307.43 0.18,-4.88 -0.87,-9.81 -4.4,-13.39 -0.83,-1.06 -2.48,-3.14 -3.32,-4.21 -0.13,-1.35 -0.38,-4.01 -0.51,-5.36 10.99,-0.58 22.01,-0.3 33.03,-1.01 -3.96,-3.86 -7.99,-7.59 -12.26,-11.12 -10.74,-9.88 -25.59,-14.02 -35.42,-25.09 -10.38,-9.32 -14.52,-25.37 -28.92,-29.91 -5.08,-3.15 -10.92,-1.35 -15.23,2.18 -26.54,19.1 -57.41,33.01 -90.12,36.49 -7.92,0.68 -16.45,2.03 -23.76,-1.96 1.09,-3.98 2.84,-7.71 4.72,-11.37 -38.52,-1.57 -77.49,-14.12 -107.1,-39.33 0.28,-3.05 0.74,-6.1 0.74,-9.17 -8.63,-5.96 -17.04,-12.67 -26.61,-17.01 -32.58,4.24 -65.38,-1.57 -96.16,-12.37 -22.52,32.76 -43.06,66.99 -67.97,98.01 -13.18,12.57 -29.53,21.33 -45.07,30.63 0.69,-3.76 0.11,-8.64 3.91,-10.9 12.24,-8.91 26.82,-14.9 36.67,-26.81 24.02,-27.98 43.01,-59.75 63.2,-90.47 -4.88,-1.62 -9.78,-3.2 -14.66,-4.72 -11.01,20.34 -24.52,39.18 -37.09,58.55 -7.29,11.1 -13.43,23.26 -23.31,32.4 -10.97,10.03 -23.64,18.61 -37.96,23.03 5.46,-19.6 12.44,-38.92 14.4,-59.31 2.46,-25.55 8.61,-52.13 0.3,-77.27 -3.3,-10.76 -11.55,-18.81 -19.78,-26.02 3.71,1.24 7.44,2.48 11.2,3.73 -2.11,-4.72 -4.27,-9.4 -6.35,-14.09 8.74,8.58 17.37,17.77 28.85,22.72 9.72,5.03 20.82,5.89 31.58,5.56 -18.48,-14.7 -40.77,-28.87 -46.21,-53.67 12.49,7.89 24.78,16.6 39.18,20.77 11.63,2.92 18.94,13.63 30.47,16.86 -0.2,-4.78 -0.48,-9.55 -0.74,-14.33 8.76,4.32 15.92,13.06 26.36,12.98 -0.76,-4.95 -2.29,-9.75 -3.68,-14.55 11.75,0.94 17.9,12.59 28.87,15.21 5.66,-6.98 -3.56,-11.71 -7.01,-17.04 11.63,-7.18 24.15,-13.05 34.55,-22.14 -0.76,-3.07 -1.52,-6.14 -2.28,-9.19 5.23,1.8 11.76,4.93 15.03,-1.6 -1.5,-14.04 -7.21,-27.27 -10.36,-40.98 -19.68,-2.34 -37.73,-11.43 -52.96,-23.82 13.68,4.57 27.47,9.37 42.02,9.96 -3.89,-4.9 -7.92,-9.65 -11.94,-14.43 7.14,2.39 14.33,4.6 21.61,6.56 1.8,-9.8 4.19,-19.48 7.8,-28.75 1.7,29.94 8.2,59.92 22.77,86.36 8.94,17.57 21.64,32.75 35.04,47.02 -11.02,-2.13 -21.86,-5.13 -32.68,-8.07 15.67,20.41 34.31,38.56 55.66,52.99 8.73,6.01 18.1,11.07 26.69,17.29 -11.07,0.51 -22.09,-0.48 -33.14,-0.79 35.09,22.9 77.34,31.31 118.2,37.28 -3.74,3.07 -7.52,6.11 -11.23,9.24 14.15,0.53 28.62,0.73 42.28,-3.61 11.4,-2.87 21.61,-8.94 32.65,-12.82 20.59,-3.4 41.79,4.42 58.07,16.88 10.92,7.95 15.41,21.56 25.44,30.4 7.19,6.83 16.4,10.76 24.63,16.12 9.5,6.25 16.38,15.84 26.38,21.38 8.56,3.3 18.03,3.48 26.51,7.26 5.13,-1.98 11.02,-3.35 14.73,-7.77 7.54,-9.32 6.12,-24.53 -3,-32.3 -6.42,-6.04 -15.36,-7.79 -23.56,-9.9 -2.69,-5.56 -6.05,-10.92 -7.34,-16.99 6.6,-12.56 16.55,-23.18 22.04,-36.46 3.55,-11.93 17.64,-10.63 27.4,-13.55 4.72,3.8 9.59,7.38 14.67,10.71 -0.81,-6.83 -1.95,-13.61 -3.32,-20.34 -13.31,6.1 -27.48,9.83 -41.85,12.44 -3.32,18.03 -15.51,31.9 -24.4,47.2 1.27,8.36 6.32,15.47 9.55,23.16 5.61,0.76 11.45,1.02 16.73,3.3 3.66,2.9 4.87,7.75 7.08,11.71 -14.01,5 -27.27,-3.3 -39.07,-9.88 -4.09,-1.57 -4.45,-6.19 -5.54,-9.8 -2.43,-9.22 -4.77,-19.27 -0.48,-28.36 5.56,-13.61 10.92,-27.93 8.71,-42.94 6.37,-1.95 12.62,-4.57 17.8,-8.86 5.13,0.33 10.28,1.02 15.44,0.43 7.82,-2.79 14.49,-9.64 16.45,-17.8 -1.32,-7.77 -10.84,-8.91 -16.99,-11.4 -9.65,-1.52 -19.22,-8.65 -28.97,-3.8 -23.76,7.56 -31.71,37.01 -56.37,42.98 -14.06,-4.92 -27.8,-11.98 -39.35,-21.53 -8.08,-7.36 -18.06,-11.98 -28.34,-15.29 0.36,1.71 1.12,5.13 1.48,6.86 -19.68,-8.05 -41.11,-14.55 -56.35,-30.19 -19.45,-20.03 -34,-44.05 -50.04,-66.73 -8.64,-12.06 -22.91,-18.33 -36.95,-21.48 -13.43,-3.17 -27.37,-2.61 -40.93,-4.92 24.35,-7.39 50.05,0.15 72.57,9.95 6.68,-40.95 -5.76,-83.56 -30.47,-116.47 -2.71,2.06 -5.41,4.12 -8.12,6.17 9.49,-23.81 19.85,-50.6 10.43,-76.12 -4.04,-12.69 -15.79,-19.96 -26.3,-26.81l2.26 0.35c10.23,4.19 22.24,6.96 28.97,16.56 12.87,17.92 12.31,42.33 26.84,59.39 7.89,10.33 20.28,15.16 31.05,21.73 -16.89,1.63 -32.17,-6.35 -46.77,-13.56 12.87,28.26 43.44,41.01 71.5,48.83 -15.31,8 -33.01,7.11 -49.74,6.35 36.05,20.21 80.28,-1.17 116.42,18.56 -10.9,1.83 -22.04,1.85 -32.73,4.72 -18.89,4.9 -35.68,16.15 -55.08,19.27 -9.69,1.65 -19.37,-0.56 -28.84,-2.38 7.9,10.69 20.54,16.8 33.85,16.32 28.03,2.06 51.44,-16.68 78.3,-20.92 11.15,-2.11 22.55,-1.32 33.85,-1.4 -2.06,-2.05 -4.12,-4.11 -6.12,-6.17 13.02,0.38 26.28,-0.91 38.16,-6.62 23.59,-10.34 48.62,-16.38 73,-24.4 10.87,-3.03 15.77,-13.92 19.73,-23.44 -8.13,-1.85 -16.18,-4.04 -24.02,-6.83 -3.76,5.59 -7.06,12.24 -13.59,15.08 -10.08,4.55 -23.94,2.21 -30.26,-7.39 -3.71,-7.03 -4.09,-15.36 -8.35,-22.16 0.48,-5.51 1.9,-10.89 3.73,-16.1 -4.09,-0.61 -8.15,-1.32 -12.17,-2.11 10.47,-5.46 21.49,-0.35 32.3,0.05 22.9,-2.16 30.55,28.11 52.1,30.57 11.48,1.25 22.98,-0.5 34.46,-1.22 11.02,-0.32 21.89,-4.82 32.91,-1.72 -2.06,4.14 -4.04,8.33 -6,12.54 -0.68,-2.72 -2.05,-8.1 -2.74,-10.79 -1.67,4.04 -3.2,8.13 -4.67,12.26 5.38,2.37 10.74,4.93 16.43,6.55 2.28,-6.77 4.95,-15.23 -0.03,-21.53 -6.78,-7.94 -17.92,-10.25 -24.65,-18.28 -18.28,-20.56 -43.65,-32.42 -68.02,-44.05 -42.1,-19.15 -85.8,-34.66 -130.13,-47.74 -17.75,-5.38 -36.24,-7.36 -54.39,-10.84 -28.26,-5.13 -56.67,-11.32 -85.57,-10.08 -8.4,0.56 -17.82,-0.2 -24.7,5.54 -34.13,-16.4 -62.72,-45.99 -75.26,-81.99 -4.16,-9.57 -0.86,-19.96 3.22,-28.92 11.76,-25.01 28.82,-48.44 32.86,-76.38 3.17,-18.68 -8.28,-35.11 -18.53,-49.48 -21.18,-28.92 -51.47,-49.08 -80.67,-69.07 -39.87,-26.78 -79.12,-55.09 -123.02,-75.1 -40.3,-18.66 -84.09,-28.85 -128.15,-33.59 -45.73,-5.18 -92.34,-2.11 -137.06,8.73 -53.85,13.05 -104.51,36.51 -152.9,63.05 -16.63,8.81 -32.5,19.14 -50.07,26.05 -10.67,4.29 -21.84,7.36 -32.2,12.41 23.72,1.65 47.28,-3.3 69.85,-10.13 56.22,-17.41 106.11,-51.11 163.47,-65.25 35.7,-9.27 72.9,-8.53 109.43,-6.73 -5.45,1.04 -10.94,1.93 -16.47,2.44 -34.94,2.69 -70.11,6.45 -103.83,16.43 -26.05,7.54 -49.43,21.65 -74.32,32.12 -43.31,18.71 -88.74,35.08 -136.24,37.75 -18.95,1.32 -37.66,-2.51 -56.5,-3.53 12.7,14.2 31.33,19.96 48.95,25.29 46.32,12.72 94.1,19.7 141.92,23.82l-0.16 1.29c-26.13,0.08 -52.2,-1.93 -78.13,-4.92 -9.39,-1.1 -18.73,0.86 -28.1,1.22 -15.01,0.66 -29.81,-2.39 -44.72,-3.25 11.35,17.01 30.42,26.25 48.83,33.66 59.01,21.64 122.38,26.77 184.64,30.8 -33.79,6.96 -68.6,3.05 -102.45,-1.32 -24.43,-5.08 -48.78,3.56 -73.35,2.36 18.63,16.71 42.5,26.06 66.29,32.76 51.8,13.86 105.96,13.25 159.08,10.89l-0.08 1.07c-32.78,3.15 -65.56,8.32 -98.59,7.06 -9.96,-0.79 -19.15,3.63 -28.59,5.94 -10.77,2.92 -22.02,3.2 -33.06,4.11 20.41,12.44 43.57,19.4 66.7,24.81 50.07,11.19 101.56,14.06 152.73,14.32 -35.48,4.31 -71.53,6.07 -107.15,2.56 -10.62,-1.06 -20.6,3.3 -30.83,5.26 -15.08,3.22 -30.54,1.14 -45.78,1.17 17.01,14.34 38.75,20.87 59.92,26.2 46.37,11.27 93.9,16.88 141.46,19.78 14.42,0.96 28.97,0.53 43.34,2.36 -17.88,1.07 -35.7,3.28 -53.63,3.02 -11.93,0.13 -24.58,-2 -35.65,3.71 -13.07,6.19 -27.44,8.4 -41.56,11.04 18.58,11.76 40.6,15.87 61.98,19.25 46.95,6.42 94.4,7.49 141.73,6.35l-0.43 0.58c-29.18,4.06 -58.58,6.58 -88.03,6.55 -17.95,2.8 -35.27,8.79 -52.84,13.31 19.73,14.24 44.23,19.68 68.07,21.93 33.16,3.38 66.37,-0.78 99.28,-4.77 -16.91,5.71 -34.23,10.13 -51.77,13.33 -13.48,2.01 -23.92,11.5 -35.55,17.8 38.19,15.29 80.92,10.23 119.19,-2.06 20.23,-6.8 40.47,-14.14 59.08,-24.75 -21.07,-3.73 -44.46,-7.31 -59.11,-24.66 14.37,-4.01 29.05,-7.23 42.71,-13.35 -36.41,-8 -74.73,-17.09 -103.83,-41.82 9.4,-0.46 18.82,-0.56 28.19,-1.42 -34.94,-14.83 -71.12,-30.45 -97.98,-58.15 11.07,-0.76 22.19,-0.66 33.28,-0.58 -30.95,-13.59 -59.72,-32.83 -82.97,-57.41 10.1,0.51 20.18,1.57 30.31,1.78 -13.02,-7.57 -27.34,-12.95 -39.28,-22.3 -10.03,-7.13 -17.92,-16.75 -24.3,-27.19 12.72,-0.38 25.45,-0.02 38.14,-0.94 -21.83,-9.78 -45.7,-18.15 -61.24,-37.48 12.67,-0.6 25.36,-0.76 37.98,-2.08 -14.72,-7.74 -31.2,-11.85 -45.12,-21.22 26.03,8.02 51.34,18.48 78.21,23.71 -18.23,2.82 -36.69,3.12 -55.05,4.72 35.7,25.98 80.84,32.38 123.43,38.44 -34.66,1.78 -69.37,1.55 -104.08,0.69 7.03,8.45 15.49,15.67 25.16,20.92 31.99,18.16 68.66,24.71 104.25,31.94 -29.6,1.2 -59.08,-1.93 -88.61,-3.45 13.97,16.56 33.85,26.33 53.58,34.25 26.38,10.16 54.08,16.48 81.98,20.6 0,0.45 0.03,1.37 0.03,1.8 -30.57,1.78 -61.17,0.68 -91.59,-2.64 41.8,28.89 90.34,46.46 139.22,59.18 -22.72,2.14 -45.6,1.96 -68.4,1.88 15.36,11.22 34,16.28 51.97,21.64 20.14,5.99 40.93,9.11 61.73,11.47 -17.83,8.18 -37.23,11.88 -55.76,18.06 23.21,10.66 49.33,16.45 74.85,13.15 14.6,-1.86 27.65,-9.22 39.79,-17.12 -13.33,-4.01 -27.3,-7.54 -38.59,-16.07 -7.55,-5.23 -12.78,-12.95 -17.32,-20.74 13.68,-2.95 29.98,0.91 41.26,-9.3 5.79,0.59 11.55,1.43 17.32,2.34 -14.05,8.35 -30.37,10.74 -46.17,13.76 6.89,7.21 14.5,14.37 24.36,17.14 22.69,6.22 47.6,4.77 68.93,-5.56 -16.66,-10.69 -32.47,-23.72 -42.02,-41.41 -11.78,-21.74 -16.38,-47.71 -11.33,-72.04 3.66,-19.52 11.28,-38.51 10.64,-58.65 -0.35,-30.75 -16.37,-58.8 -35.7,-81.73 -36.99,-43.34 -86.4,-73.18 -135.43,-100.88 12.11,4.27 23.49,10.33 34.86,16.22 35.04,18.59 69.06,39.69 98.82,66.1 20.31,18.13 38.93,39.38 48.8,65.12 8.48,23.19 3.91,48.58 -3.81,71.3 -7.13,21.23 -13.43,44.33 -6.65,66.53 10.36,35.31 40.02,63.85 74.98,74.75 -7.72,-0.03 -15.77,-2.31 -23.28,0.22 -9.09,3.74 -17.85,8.28 -27.42,10.75 -14.71,3.91 -28.34,11.27 -39.92,21.04 -11.93,9.55 -20.08,22.58 -29.12,34.64 3.4,-11.07 8.76,-21.33 14.01,-31.56 -20.13,3.6 -39.45,10.89 -57.46,20.56 -18.66,10.03 -38.69,17.17 -59.23,22.19 -36.06,10.92 -69.19,29.38 -101.62,48.2 -11.93,7 -23.58,14.49 -34.71,22.75 21.87,1.8 43.78,2.05 65.69,2.05 -25.21,13.1 -53.88,0.33 -80.31,7.14 -37.76,7.31 -64.52,39.43 -81.18,72.06 -0.17,-3.89 -0.35,-7.75 -0.5,-11.61 -44.08,32.48 -86.76,67.39 -135.03,93.65 -6.35,3.3 -15.74,5.66 -21.1,-0.64 -9.4,-11.58 -12.72,-27.19 -11.86,-41.87 0.69,-15.18 3.13,-30.9 -2.06,-45.6 -6.17,-16.76 -9.11,-35.75 -22.26,-48.9 -13.54,-14.93 -33.87,-20.37 -53.22,-22.53 1.62,3.46 3.22,6.89 4.82,10.36 -15.41,-6.09 -31.81,-9.8 -48.44,-7.74 3.91,4.32 7.77,8.66 11.4,13.23 -9.68,-0.64 -19.02,-3.28 -28.26,-5.99 3.96,17.92 16.88,31.71 31.99,41.2 -7.29,0.74 -14.57,1.33 -21.81,2.27 3.32,1.7 6.63,3.93 10.49,4.13 13.35,1.53 26.86,1.93 40.24,0.51 -15.39,-6.5 -29.96,-15 -41.54,-27.24 15.06,5.25 30.6,9.95 46.74,9.37 -5.91,-5.54 -12.54,-10.21 -19.14,-14.83 17.32,3.96 35.88,7.44 49.84,19.22 10.11,9.24 17.29,21.71 20.72,34.96 6.96,29.66 -10.28,59.26 -2.49,88.87 4.24,13.48 12.65,26.1 24.35,34.18 18.28,9.47 39.41,3.7 58.12,-1.25 38.29,-11.4 74.27,-29.33 109.13,-48.6 -2.18,-12.79 -2.18,-25.82 -2.59,-38.74 4.98,17.34 14.45,33.16 17.62,51.03 7.72,37.94 23.06,73.94 42.18,107.46 11.25,20.79 24.58,41.66 44.71,54.89 -0.13,-2.64 -0.43,-7.87 -0.58,-10.51 5.4,9.29 11.88,17.87 18,26.69 -8.18,-6.71 -16.12,-13.77 -25.52,-18.79 -15.21,-8.13 -23.94,-23.49 -35.04,-35.98 -9.67,-11.05 -16.1,-24.73 -26.89,-34.81 -9.52,-1.98 -18.86,1.85 -27.88,4.49 -15.36,4.9 -31.51,8.15 -47.68,6.98 -9.27,-0.45 -18.31,-3.14 -27.6,-2.92 -8.61,0.31 -15.67,5.84 -23.49,8.76 -8.4,-3.73 -15.61,-9.72 -23.86,-13.78 5.25,-6.96 11.98,-12.67 20.74,-14.38 0.38,5.77 0.56,11.53 0.74,17.32 10.74,-3.17 21.78,-5.23 33.01,-5.15 8.12,0.38 13.96,-6.07 20,-10.46 -2.56,-2.82 -5.1,-5.61 -7.51,-8.54 7.92,-4.62 13.86,-13.43 23.66,-14.09 17.93,-3.12 35.95,0.66 53.35,4.9 -8.97,-21.96 -13.89,-45.14 -20.04,-67.92 -43.67,21.36 -86.73,46.85 -135.56,54.19 -15.76,2.05 -33.46,1.42 -46.23,-9.22 -14.38,-12.01 -22.27,-30.67 -23.85,-49.08 -1.67,-22.09 7.7,-43.34 6.15,-65.43 0.68,-5.26 -5.11,-6.71 -8.63,-8.86 -14.71,-8.36 -30.98,1.32 -46.52,0.15 -23.03,1.37 -45.22,-12.67 -55.2,-33.21 2.51,-0.59 7.52,-1.76 10.03,-2.36 -12.75,-12.5 -21.51,-29.23 -21.66,-47.36 5.18,0.92 10.21,2.92 15.49,3.25 6.12,-1.8 11.88,-4.87 18.31,-5.66 9.42,-1.19 18.91,1.32 28.33,-0.23 24.33,-3.5 51.14,4.27 66.88,23.84 11.38,12.62 15.03,29.51 20.85,44.95 5.74,14.37 4.85,30.11 4.16,45.24 -0.74,15.87 1.3,33.64 12.42,45.83 9.29,-0.18 17.44,-5.35 25.39,-9.6 34.1,-19.93 65.33,-44.28 96.36,-68.65 12.92,-10.67 27.37,-20.32 36.51,-34.74 10.51,-15.41 24.32,-28.89 41.13,-37.24 16.33,-8.46 34.63,-13.21 49.39,-24.56 22.87,-16.68 47.05,-31.43 71.57,-45.55 -21.78,-4.06 -48.42,-3.48 -63.45,-22.6 6.27,-3.04 12.7,-5.71 19.15,-8.33 -27.48,-4.82 -56.04,-9.16 -80.24,-23.91 -7.87,-4.73 -13.66,-12.17 -17.06,-20.62 8.48,-1.98 17.11,-3.28 25.62,-5.21 -25.39,-6.65 -52.71,-9.62 -75.16,-24.3 -5.76,-3.17 -8.45,-9.19 -9.98,-15.28 9.88,-1.88 19.86,-3.38 29.53,-6.22 -13.2,-4.14 -27.09,-5.31 -40.52,-8.61 -24.76,-5.86 -49.23,-13.4 -72.31,-24.22 -11.99,-5.92 -25.19,-12.75 -30.42,-25.92 14.34,-2.49 28.99,-1.86 43.39,-4.14 -24.27,-10.36 -50.86,-16.41 -72.34,-32.43 -4.64,-3.15 -6.37,-8.68 -8.53,-13.58 10.56,-1.91 21.3,-2.52 31.89,-4.32 -22.67,-6.4 -45.52,-13.33 -65.71,-25.85 -12.8,-8.02 -26.76,-16.81 -32.83,-31.33 11.68,-1.45 23.44,-1.7 35.17,-2.54 -25.22,-10.23 -52.44,-18.89 -72.19,-38.52 -7.01,-6.47 -10.61,-15.48 -12.72,-24.6 4.59,-0.71 9.19,-1.34 13.81,-1.95 -20.21,-7.55 -42.6,-15.9 -53.93,-35.7l0 -7.24c26.81,0.84 54.77,-1.52 78.92,-14.12 51.72,-25.8 100.85,-57.63 156.2,-75.53 35.88,-11.58 72.72,-20.01 109.82,-26.64zm522.87 171.92l0 0zm0 0c-29.5,7.59 -57.92,18.69 -86.71,28.57 8.07,18.63 9.11,39.45 4.8,59.16 13.1,5.46 26.76,9.57 40.8,11.85 -2.34,2.19 -4.67,4.35 -7.01,6.53 8.64,13.3 23.16,21.28 38.42,24.45 26.23,5.21 53.85,8.18 79.98,0.64 -3.25,-5.41 -7.19,-10.34 -11.58,-14.86 -18.41,-0.46 -36.15,-7.82 -50.7,-18.86 25.36,7.28 51.41,13.83 78.07,11.5 -0.05,0.46 -0.1,1.39 -0.15,1.85 -5.64,1.68 -11.3,3.3 -16.91,4.98 18.97,13.15 38.98,25.41 61.29,31.97 26.44,7.94 54.09,11.78 81.64,12.31 -15.31,-7.13 -32.17,-12.06 -44.79,-23.84 -8.36,-6.81 -13.31,-17.65 -23.64,-21.86 -9.12,-4.17 -18.31,-8.31 -26.46,-14.22 16.83,5.13 33.39,11.25 50.58,15.18 13.15,3.73 26.94,4.72 39.91,9.17 -13.68,1.85 -27.32,-0.56 -40.93,-1.47 17.78,12.84 38.52,20.79 58.94,28.48 18.94,7.37 39.53,6.28 59.44,5.79 12.49,-0.84 26.1,-2.77 35.59,-11.7 9.7,-9.3 12.09,-24.25 8.51,-36.84 -3.99,-13.56 -11.71,-26.56 -23.51,-34.71 -24.43,-17.73 -51.8,-31.06 -79.75,-42.25 -53.83,-20.82 -114.06,-32.33 -170.91,-17.27 -30.14,6.68 -60.1,14.73 -90.67,19.07 3.68,-1.73 7.46,-3.2 11.35,-4.45 41.77,-12.82 83.92,-24.7 127.03,-32.11 17.62,-2.62 35.6,-4.8 53.34,-2.06 22.2,3.25 43.93,9.12 65.16,16.25 36.61,12.9 72.64,29.6 102.45,54.84 16.93,14.78 33.44,35.2 30.87,59.11 -3.02,18.01 -14.85,36.01 -32.83,41.82 -35.03,14.02 -73.4,13.76 -109.84,21.94 -16.45,3.96 -32.37,9.8 -48.31,15.39 -32,11.85 -64.17,23.3 -95.6,36.61 12.01,4.11 24.53,6.58 36.92,9.24 6.04,1.45 11.78,-1.7 17.36,-3.55 44.49,-17.27 89.68,-33.98 137.19,-40.68 25.7,-3.15 51.09,-9.24 75.31,-18.43 14.7,-5.92 29.83,-13.81 38.49,-27.65 8.71,-13.71 9.4,-31.21 5.03,-46.54 -8.15,-29.25 -27.14,-55.48 -52.43,-72.32 -29.41,-20.23 -60.28,-39.15 -94.35,-50.42 -30.83,-11.46 -63.05,-23.16 -96.51,-19.99 -46.01,3.97 -90.65,16.71 -134.88,29.38zm-87.32 98.04l0 0zm0 0c-4.93,7.92 -8.68,16.47 -12.52,24.98 17.29,-0.48 34.61,-0.38 51.93,-0.51 -2.75,-5.38 -5.51,-10.74 -8.48,-15.99 -10.64,-1.6 -20.67,-5.46 -30.93,-8.48zm2.26 33.36l0 0zm0 0c24.1,25.67 61.01,26.63 93.44,31.76 -13,-9.19 -26.94,-16.96 -39.94,-26.12 -4.98,-3.1 -9.83,-7.5 -16.05,-7.39 -12.52,-0.51 -25.03,0.45 -37.45,1.75zm-23 8.15l0 0zm0 0c-2.54,5.23 -5.34,10.38 -6.86,15.99 5.53,9.15 14.37,15.67 23.21,21.36 22.98,13.71 51.06,20.51 77.44,13.56 -9.17,-3.68 -18.77,-7.19 -25.98,-14.25 -5.45,-4.26 -9.64,-11.83 -17.46,-11.52 -19.58,-0.59 -36.95,-11.61 -50.35,-25.14zm154.42 7.62l0 0zm0 0c-11.37,0.96 -22.72,-0.77 -34.07,-1.3 13.86,9.9 30.19,15.34 46.28,20.34 21.23,6.17 43.65,9.57 65.69,6.78 -18.15,-7.69 -36.56,-16.53 -48.67,-32.81 -9.63,2.75 -19.15,6.38 -29.23,6.99zm-79.52 24.02l0 0zm0 0c7.54,6.5 16.1,11.85 25.36,15.59 24.94,9.44 52.74,12.87 78.72,5.71 0,-0.46 -0.03,-1.35 -0.03,-1.8 -15.56,-2.06 -30.72,-7.16 -43.88,-15.8 -20.13,0.21 -40.21,-1.01 -60.17,-3.7zm225.04 198.42l0 0zm0 0c1.6,0.61 4.75,1.88 6.34,2.52 0.46,7.16 0.69,15.74 7.5,20.06 10.68,8.58 28.81,0.76 29.14,-13.13 1.32,-9.37 -8.3,-14.55 -15.31,-18.21 -5.28,-3.24 -10.89,0.62 -15.94,2.32 -0.71,-1.86 -2.16,-5.59 -2.87,-7.44 -4.27,3.7 -6.88,8.68 -8.86,13.88zm100.67 16.59l0 0zm0 0c6.05,8.02 14.58,13.32 22.85,18.71 -8.27,-1.75 -15.13,-6.58 -20.94,-12.47 -5.49,-5.91 -14.45,-4.52 -21.36,-2.51 -6.35,6.4 -5.91,16.88 -12.67,23.05 -6.55,6.3 -15.51,8.99 -23.92,11.76 -19.88,5.91 -40.19,10.89 -59.18,19.35 -2.72,1.8 -8.63,2.94 -5.54,7.21 15.44,5.2 27.42,16.5 40.3,26 21.73,16.5 42.96,33.82 66.19,48.21 5.33,4.09 16.2,4.02 16.56,-4.62 0.35,-11.6 -2.41,-23.13 -5.67,-34.17 -0.73,-4.14 -4.92,-5.69 -7.89,-7.92 1.6,13.4 8.12,26.68 4.39,40.32 -29.35,-20.75 -56.39,-44.84 -87.22,-63.51 -3.93,-2.15 -8.15,-3.68 -12.31,-5.28 22.01,-5.15 44.94,-11.45 67.64,-7.08 15.29,4.04 19.7,21.02 29.2,31.66 7.06,8.79 21.48,5.66 27.6,15.54 7.01,11.7 6.45,25.9 7.21,39.05 17.24,-12.62 33.01,-29.07 39.64,-49.82 5.84,-22.59 -2.34,-47.07 -17.24,-64.44 -8.71,-10.33 -21.49,-15.64 -31.69,-24.17 -4.5,-3.4 -10.08,-8.78 -15.95,-4.87zm20.75 -1.1l0 0zm0 0c-3.81,-0.15 -3.71,6.1 0.05,5.97 3.76,0.1 3.7,-6.2 -0.05,-5.97zm-95.65 62.49l0 0zm0 0c11.45,9.85 24.48,17.77 37.53,25.34 0.07,-11.02 -4.37,-28.26 -18.46,-26.71 0.48,1.73 1.42,5.2 1.9,6.93 -5.84,-5.18 -13.33,-7.24 -20.97,-5.56zm-118.42 25.14l0 0zm0 0c-22.45,10.18 -42.23,27.04 -67.37,30.59 0.06,0.23 0.11,0.71 0.13,0.94 35.6,3.02 64.85,-20.39 94.15,-36.79 -9.34,-1.19 -18.46,1.52 -26.91,5.26zm-915.8 4.54l0 0zm0 0c8.35,8.79 20.77,11.3 32.42,11.07 17.32,0.92 34.51,-5.81 51.68,-1.34 -6.45,-3.71 -13.41,-6.99 -21,-6.91 -21.05,-0.74 -42.66,4.62 -63.1,-2.82zm636.95 59.06l0 0zm0 0c4.22,13.26 11.3,25.39 19.25,36.72 9.65,13.81 22.4,25.03 32.55,38.44 -5.25,0.4 -10.49,0.78 -15.69,1.29 7.62,9.88 17.39,17.8 27.29,25.29 15.09,11.05 30.78,22.04 48.65,28.11 -20.82,-14.8 -42.53,-28.92 -60.05,-47.79 5.16,-0.55 10.31,-1.06 15.47,-1.65 -10.16,-11.17 -21.56,-21.12 -31.51,-32.47 -13.69,-14.68 -24.53,-31.56 -35.96,-47.94zm288.34 0.05l0 0zm0 0c-3.63,8.91 -7.69,17.88 -8.94,27.53 18.24,10.02 38.7,15.48 57.74,23.96 -0.55,1.12 -1.62,3.38 -2.18,4.5 12.52,4.7 24.76,10.38 37.81,13.38 5.68,-6.78 10.79,-14.14 17.62,-19.88 -1.45,3.5 -3.02,6.98 -4.44,10.51 9.8,-5.84 20.23,-10.56 31.53,-12.62 8.81,1.55 18.2,1.96 26.08,6.68 11.07,6.35 19.85,16.63 24.85,28.34 0.54,7.99 1.2,16.02 3.18,23.86 0.38,-0.78 1.17,-2.31 1.57,-3.1 1.09,-13.76 -0.91,-29.19 -11.83,-38.87 -11.17,-10.61 -25.87,-22.98 -42.4,-18.51 1.01,-1.27 3.07,-3.81 4.09,-5.05 -9.88,-0.99 -19.43,1.6 -28.09,6.17 -14.75,-7.52 -31.08,-10.97 -46.46,-16.89 -20.9,-7.99 -42.91,-15.13 -60.13,-30.01zm142.75 38.44l0 0zm0 0c2.61,7.87 13.28,7.98 19.73,11.86 2.59,-5.69 5.61,-11.17 8.73,-16.6 -9.6,-0.36 -20.84,-2.8 -28.46,4.74zm164.63 -5.63l0 0zm0 0c2.69,2.79 5.44,5.61 8.38,8.22 -5.05,-2.71 -10.76,-4.03 -16.48,-3.15 6.12,3.74 12.44,7.16 18.56,10.95 -0.45,0.99 -1.39,2.97 -1.85,3.96 10.18,9.95 15.74,23.23 20.29,36.46 1.95,-15.36 -2.79,-31.76 -13.84,-42.81 5.05,2.13 10.46,3.89 16.02,3.05 2.87,-4.29 4.8,-9.12 6.91,-13.81 -11.91,-5.34 -25.42,-5.79 -37.99,-2.87zm-135.46 5.35l0 0zm0 0c7.09,4.24 15.16,6.4 22.8,9.48l-0.45 2.28 1.93 1.93 2.28 -0.46c13.84,7.82 26.08,17.88 36.82,29.58 -8.58,-26.23 -37.38,-40.93 -63.38,-42.81zm175.12 2.37l0 0zm0 0c5.44,4.82 12.62,7.13 17.9,12.18 -1.29,0.46 -3.85,1.4 -5.15,1.86 13.33,7.26 22.47,19.62 30.47,32.14 -2.03,-15.44 -12.16,-28.49 -24.3,-37.65 -5.64,-4.04 -11.58,-8.81 -18.92,-8.53zm-67.41 7.11l0 0zm0 0c-14.34,5.23 -26.05,16.12 -35.11,28.13 -3.25,7.56 -2.34,16.35 -4.14,24.37 -2.59,-4.39 -5.01,-8.91 -7.34,-13.43 -4.75,0.2 -9.5,0.54 -14.22,0.89 13.18,23.69 16.83,53.75 4.55,78.59 -2.72,-17.55 -5.74,-35.12 -11.02,-52.11 -4.07,1.88 -8.13,3.74 -12.22,5.56 2.92,5.44 6.1,11.1 5.84,17.47 -0.1,15.87 -0.63,32.02 0.61,47.71 11.05,9.32 23.08,20.03 38.14,21.38 12.62,-2.01 20.08,-16.1 19.55,-28.06 -0.41,-12.87 -11.27,-21.68 -21.02,-28.36 2.94,-19.32 9.7,-37.55 18.23,-55.05 8.99,-3.58 17.16,-8.7 24.45,-15.05 7.08,-0.05 14.24,1.85 21.33,0.43 6.27,-1.47 11.07,-6.07 16.14,-9.7 -6.01,-17.01 -26.1,-29.55 -43.77,-22.77zm-114.51 1.67l0 0zm0 0c6.68,9.01 14.98,16.71 21.48,25.9 4.42,-5.05 12.62,-10.61 9.09,-18.36 -8.18,-7.36 -20.14,-7.72 -30.57,-7.54zm170.88 9.19l0 0zm0 0c1.29,6.12 2.54,12.27 3.76,18.41 10.33,-0.3 18,-7.36 23.03,-15.79 -4.52,-2.29 -8.74,-5.92 -13.92,-6.27 -4.42,0.71 -8.63,2.28 -12.87,3.65zm-132.59 7.92l0 0zm0 0c5.51,6.28 12.39,11.18 19.65,15.29 0.18,-1.02 0.56,-3 0.74,-4.01 -1.48,-0.36 -4.4,-1.12 -5.84,-1.47 -4.4,-3.92 -9.14,-7.47 -14.55,-9.81zm-47.86 15.06l0 0zm0 0c4.57,0.18 9.14,0.3 13.73,0.33 -2.16,-2.77 -4.24,-5.56 -6.57,-8.12 -3.81,0.91 -5.01,5 -7.16,7.79zm-507.79 -5.03l0 0zm0 0c34.81,19.12 76.02,26.36 115.37,21.69 -3.3,-3.3 -5.76,-8.86 -11.04,-8.97 -14.38,-0.76 -28.85,0.54 -43.17,-1.19 -20.84,-1.19 -41,-6.58 -61.16,-11.53zm538.54 -0.73l0 0zm0 0c0.88,2.79 1.82,5.61 2.76,8.43 6.07,-1.83 12.19,-3.41 18.33,-5 -6.39,-3.92 -13.83,-4.47 -21.09,-3.43zm164.7 0.91l0 0zm0 0c3.53,4.11 8.54,7.21 10.52,12.47 -3.56,-0.92 -7.09,-1.8 -10.62,-2.57 4.42,3.53 9.02,6.83 13.84,9.83 9.8,12.62 13.51,28.13 15.79,43.67 0.89,-12.13 1.3,-24.73 -3.14,-36.28 -4.07,-12.57 -14.53,-21.94 -26.39,-27.12zm-146.73 6.22l0 0zm0 0c5.46,9.8 8.46,20.62 12.8,30.93 4.06,9.67 4.52,20.44 8.63,30.09 2.41,-21.33 0.1,-50.02 -21.43,-61.02zm-14.04 4.45l0 0zm0 0c-0.69,9.47 -2.08,18.86 -4.14,28.15 8.41,0.71 17.67,0.03 23.74,-6.62 -1.32,-10.41 -10.69,-17.42 -19.6,-21.53zm103.95 12.41l0 0zm0 0c-8.2,9.35 -20.52,12.19 -31,17.9 -10.46,8.56 -14.14,23.26 -13.69,36.28 5.89,-8.32 7.92,-19.65 16.99,-25.44 8.94,-5.86 19.4,-8.93 28.36,-14.82 10.49,-8.18 24.78,-1.73 36.49,-6.71 4.87,-1.09 2.38,-7.72 3.32,-11.17 -13.1,3.86 -26.81,6.6 -40.47,3.96zm43.72 -2.77l0 0zm0 0c0.38,4.3 -1.14,9.6 2.69,12.78 7.39,8.12 19.56,6.7 28.67,2.56 -1.67,-3.4 -3.32,-6.8 -5,-10.18 -9.17,0.79 -18.05,-1.4 -26.36,-5.16zm-197.39 27.48l0 0zm0 0c-4.69,9.95 -14.29,17.34 -17.49,27.82 2.97,13.16 18.82,10.87 26.97,18.82 6.62,5.51 8.27,14.37 12.95,21.25 13.53,-2.74 25.79,-9.29 38.39,-14.7 -5.18,-13.76 -4.96,-28.69 -2.67,-43.01 0.94,-7.82 -7.82,-10.87 -13.48,-13.51 -1.17,1.68 -3.48,5.03 -4.62,6.7 -1.5,-0.3 -4.45,-0.96 -5.94,-1.27 -0.18,-3.09 -0.34,-6.17 -0.49,-9.24 -6.12,-4.19 -12.57,-10.33 -20.64,-7.39 -8.4,-0.51 -9.34,9.07 -12.98,14.53zm162.99 -8.03l0 0zm0 0c-11.78,7.6 -25.8,11.2 -36.95,19.76 -4.44,5.79 -11.62,14.9 -5.28,21.66 0.31,1.39 0.92,4.21 1.22,5.63 7.54,-7.13 13.41,-16.37 23.03,-20.97 26.23,-14.12 57.06,-7.74 85.52,-8.81 0.35,-1.52 1.07,-4.6 1.42,-6.12l-2.34 0.03c-0.3,-1.55 -0.88,-4.63 -1.19,-6.17 -12.34,1.52 -25.26,0.78 -35.17,-7.65 -9.85,3.1 -20.16,2.03 -30.26,2.64zm-498.07 18.23l0 0zm0 0c18.92,14.4 42.23,21.08 64.98,26.56 15.79,3.91 32.12,4.8 48.34,4.12 -3.6,4.08 -7.34,8.05 -10.69,12.31 33.42,-1.85 67.46,-13.3 92.96,-35.47 -23.03,8.07 -45.1,19.55 -69.42,23.61 2.61,-4.39 5.33,-8.71 8.05,-13.02 -33.36,4.34 -67.72,2.99 -100.19,-6.15 -11.63,-3.17 -22.58,-8.27 -34.03,-11.96zm475.7 56.35l0 0zm0 0c-6.65,1.93 -14.09,1.88 -19.73,6.37 4.55,-0.28 9.09,-0.94 13.61,-1.7l-0.15 1.22c-1.37,1.19 -4.09,3.55 -5.46,4.74 13.28,-3.52 26.2,-10.25 35.01,-21.04 -7.82,3.35 -15,8.25 -23.28,10.41zm-122.69 10.99l0 0zm0 0c0.3,1.52 0.94,4.57 1.24,6.09 8.51,-1.42 15.62,-6.5 22.17,-11.83 -7.77,2.11 -15.54,4.19 -23.41,5.74zm7.75 14.22l0 0zm0 0c-9.93,2.49 -19.83,5.2 -29.99,6.7 -1.45,0.23 -4.34,0.69 -5.79,0.92 -2.01,43.03 -0.81,86.17 -1.14,129.24 0.23,70.35 -0.51,140.74 0.5,211.09 13.54,3.56 26.97,7.5 40.65,10.47 0.13,-69.63 0.03,-139.25 0.06,-208.87 -0.41,-51.26 0.83,-102.58 -0.61,-153.82 -0.94,1.07 -2.77,3.2 -3.68,4.27zm-723.52 507.97l0 0zm0 0c-1.54,28.26 -1.09,56.57 -2.36,84.83 3.81,-0.71 7.62,-1.37 11.43,-2.03 0.91,-28.19 1.73,-56.42 2.08,-84.63 -3.73,0.58 -7.44,1.19 -11.15,1.83z"/>
   <path class="fil2" d="M1095.98 425.73c6.88,-5.74 16.3,-4.98 24.7,-5.54 28.9,-1.24 57.31,4.95 85.57,10.08 18.15,3.48 36.64,5.46 54.39,10.84 44.33,13.08 88.03,28.59 130.13,47.74 24.37,11.63 49.74,23.49 68.02,44.05 6.73,8.03 17.87,10.34 24.65,18.28 4.98,6.3 2.31,14.76 0.03,21.53 -5.69,-1.62 -11.05,-4.18 -16.43,-6.55 1.47,-4.13 3,-8.22 4.67,-12.26 0.69,2.69 2.06,8.07 2.74,10.79 1.96,-4.21 3.94,-8.4 6,-12.54 -11.02,-3.1 -21.89,1.4 -32.91,1.72 -11.48,0.72 -22.98,2.47 -34.46,1.22 -21.55,-2.46 -29.2,-32.73 -52.1,-30.57 -10.81,-0.4 -21.83,-5.51 -32.3,-0.05 4.02,0.79 8.08,1.5 12.17,2.11 -1.83,5.21 -3.25,10.59 -3.73,16.1 4.26,6.8 4.64,15.13 8.35,22.16 6.32,9.6 20.18,11.94 30.26,7.39 6.53,-2.84 9.83,-9.49 13.59,-15.08 7.84,2.79 15.89,4.98 24.02,6.83 -3.96,9.52 -8.86,20.41 -19.73,23.44 -24.38,8.02 -49.41,14.06 -73,24.4 -11.88,5.71 -25.14,7 -38.16,6.62 2,2.06 4.06,4.12 6.12,6.17 -11.3,0.08 -22.7,-0.71 -33.85,1.4 -26.86,4.24 -50.27,22.98 -78.3,20.92 -13.31,0.48 -25.95,-5.63 -33.85,-16.32 9.47,1.82 19.15,4.03 28.84,2.38 19.4,-3.12 36.19,-14.37 55.08,-19.27 10.69,-2.87 21.83,-2.89 32.73,-4.72 -36.14,-19.73 -80.37,1.65 -116.42,-18.56 16.73,0.76 34.43,1.65 49.74,-6.35 -28.06,-7.82 -58.63,-20.57 -71.5,-48.83 14.6,7.21 29.88,15.19 46.77,13.56 -10.77,-6.57 -23.16,-11.4 -31.05,-21.73 -14.53,-17.06 -13.97,-41.47 -26.84,-59.39 -6.73,-9.6 -18.74,-12.37 -28.97,-16.56 14.19,-3.68 28.89,-3.12 43.39,-2.23 -7.31,-10.03 -16.96,-18.21 -28.36,-23.18zm319.16 484.53c7.87,-1.55 15.64,-3.63 23.41,-5.74 -6.55,5.33 -13.66,10.41 -22.17,11.83 -0.3,-1.52 -0.94,-4.57 -1.24,-6.09zm122.69 -10.99c8.28,-2.16 15.46,-7.06 23.28,-10.41 -8.81,10.79 -21.73,17.52 -35.01,21.04 1.37,-1.19 4.09,-3.55 5.46,-4.74l0.15 -1.22c-4.52,0.76 -9.06,1.42 -13.61,1.7 5.64,-4.49 13.08,-4.44 19.73,-6.37zm-76.86 -108.12c21.53,11 23.84,39.69 21.43,61.02 -4.11,-9.65 -4.57,-20.42 -8.63,-30.09 -4.34,-10.31 -7.34,-21.13 -12.8,-30.93zm146.73 -6.22c11.86,5.18 22.32,14.55 26.39,27.12 4.44,11.55 4.03,24.15 3.14,36.28 -2.28,-15.54 -5.99,-31.05 -15.79,-43.67 -1.12,-2.41 -2.21,-4.85 -3.22,-7.26 -1.98,-5.26 -6.99,-8.36 -10.52,-12.47zm-147.59 -10.21c5.41,2.34 10.15,5.89 14.55,9.81 1.44,0.35 4.36,1.11 5.84,1.47 -0.18,1.01 -0.56,2.99 -0.74,4.01 -7.26,-4.11 -14.14,-9.01 -19.65,-15.29zm-72.82 -20.64c16.53,-4.47 31.23,7.9 42.4,18.51 10.92,9.68 12.92,25.11 11.83,38.87 -0.4,0.79 -1.19,2.32 -1.57,3.1 -1.98,-7.84 -2.64,-15.87 -3.18,-23.86 -5,-11.71 -13.78,-21.99 -24.85,-28.34 -7.88,-4.72 -17.27,-5.13 -26.08,-6.68l1.45 -1.6zm216.45 -5.25c7.34,-0.28 13.28,4.49 18.92,8.53 12.14,9.16 22.27,22.21 24.3,37.65 -8,-12.52 -17.14,-24.88 -30.47,-32.14 1.3,-0.46 3.86,-1.4 5.15,-1.86 -5.28,-5.05 -12.46,-7.36 -17.9,-12.18zm-47.76 -2.65c5.72,-0.88 11.43,0.44 16.48,3.15 2.21,1.81 4.45,3.61 6.68,5.41 11.05,11.05 15.79,27.45 13.84,42.81 -4.55,-13.23 -10.11,-26.51 -20.29,-36.46 0.46,-0.99 1.4,-2.97 1.85,-3.96 -6.12,-3.79 -12.44,-7.21 -18.56,-10.95zm-127.36 0.28c26,1.88 54.8,16.58 63.38,42.81 -10.74,-11.7 -22.98,-21.76 -36.82,-29.58 -0.94,-0.94 -2.82,-2.82 -3.76,-3.75 -7.64,-3.08 -15.71,-5.24 -22.8,-9.48zm-181.41 -101.81c8.45,-3.74 17.57,-6.45 26.91,-5.26 -29.3,16.4 -58.55,39.81 -94.15,36.79 -0.02,-0.23 -0.07,-0.71 -0.13,-0.94 25.14,-3.55 44.92,-20.41 67.37,-30.59zm92.65 -103.12c1.98,-5.2 4.59,-10.18 8.86,-13.88 0.71,1.85 2.16,5.58 2.87,7.44 0.4,0.99 1.19,2.94 1.57,3.93l0.79 2.08c-4.7,0.18 -9.42,0.26 -14.09,0.43zm-126.3 -96.68l0 0zm0 0c0.59,4.31 0.03,9.19 2.87,12.84 3.68,5.69 10.84,9.45 10.82,16.99 0.79,9.14 7.67,15.9 14.09,21.74 1.83,7.44 3.51,15.48 9.17,21.09 5.28,6.02 13.02,8.66 20.51,10.72 -8.22,-7.24 -17.34,-13.91 -22.37,-23.97 2.21,0.05 6.63,0.13 8.86,0.15 -8.14,-8.5 -16.93,-16.58 -23.15,-26.68 4.77,2.33 9.44,4.85 14.34,6.95 -6.19,-11.68 -18.43,-19.37 -22.16,-32.49 23.1,4.39 45.57,15.28 61.24,33.15 6.76,7.44 10.28,16.97 14.68,25.83 0.17,-2.29 0.48,-6.88 0.66,-9.19 2.23,0.1 6.75,0.33 8.99,0.43 -5.74,-4.62 -12.45,-8.36 -16.43,-14.78 -18.16,-26.23 -49.03,-47 -82.12,-42.78zm38.62 32.4l0 0zm0 0c5.16,6.01 12.32,10.05 16.99,16.5 3.12,6.75 0.51,14.9 3.96,21.63 2.11,4.32 6.32,6.88 10.03,9.65 -2.16,-6.37 -5.15,-12.49 -6.45,-19.12 3.73,3.84 6.55,8.43 9.7,12.8 -0.08,-19.1 -15.13,-38.19 -34.23,-41.46z"/>
  </g>
 </g>
</svg>
