<?xml version="1.0" encoding="UTF-8"?>
<!DOCTYPE svg PUBLIC "-//W3C//DTD SVG 1.1//EN" "http://www.w3.org/Graphics/SVG/1.1/DTD/svg11.dtd">
<!-- Creator: CorelDRAW -->
<svg xmlns="http://www.w3.org/2000/svg" xml:space="preserve" width="2000px" height="1600px" version="1.1" style="shape-rendering:geometricPrecision; text-rendering:geometricPrecision; image-rendering:optimizeQuality; fill-rule:evenodd; clip-rule:evenodd"
viewBox="0 0 2000 1600"
 xmlns:xlink="http://www.w3.org/1999/xlink">
 <defs>
  <style type="text/css">
   <![CDATA[
    .fil1 {fill:#6B0B24;fill-rule:nonzero}
    .fil2 {fill:#FDCD0A;fill-rule:nonzero}
    .fil0 {fill:#FEFEFE;fill-rule:nonzero}
   ]]>
  </style>
 </defs>
 <g id="Capa_x0020_1">
  <metadata id="CorelCorpID_0Corel-Layer"/>
  <g id="Central_x0020_Michigan_x0020_Chippewas.cdr">
   <path class="fil0" d="M1191.73 344.65c64.95,-0.03 129.9,-0.05 194.87,0.02 -2.98,6.98 -6.15,13.9 -9.18,20.86 -54.8,-0.02 -109.58,0.02 -164.38,-0.02 -90.87,201.28 -181.63,402.62 -272.38,603.97 -10.22,-0.02 -20.43,0.03 -30.65,-0.04 93.83,-208.29 187.87,-416.5 281.72,-624.79z"/>
   <path class="fil1" d="M1042.55 94.34l716.16 0c68.43,49.4 136.7,99.01 205.2,148.3 -53.31,112.74 -106.01,225.8 -159.75,338.32 -70.26,-0.43 -140.57,-0.06 -210.85,-0.18 -103.59,0.43 -207.14,-0.86 -310.73,-0.58 25.31,-57.45 50.75,-114.85 76.11,-172.3 6.28,-14.1 12.45,-28.25 18.73,-42.37 3.03,-6.96 6.2,-13.88 9.18,-20.86 -64.97,-0.07 -129.92,-0.05 -194.87,-0.02 -93.85,208.29 -187.89,416.5 -281.72,624.79 10.22,0.07 20.43,0.02 30.65,0.04 15.61,0 31.23,0 46.84,0 40.07,-0.02 80.12,0 120.18,-0.02 35.87,-80.97 71.67,-161.99 107.57,-242.94 59.71,0.5 119.39,-0.79 179.1,-0.54 119.53,0.41 239.03,-1.02 358.58,-0.54 -51.69,114.19 -103.75,228.2 -155.46,342.37 -1.04,4.32 -5.4,5.61 -8.95,7.21 -109.94,48.16 -219.5,97.29 -329.58,145.09 -240.21,0.56 -480.48,0.04 -720.7,0.24 -68.09,-50.48 -136.05,-101.19 -204.12,-151.7 10.38,-23.78 21.27,-47.3 31.87,-70.96 5.54,-12.43 11.28,-24.77 16.7,-37.25 76.5,0 152.99,-0.02 229.49,0.03 4.61,-9.61 9.15,-19.23 13.72,-28.84 -173.9,-0.02 -347.82,0.09 -521.74,-0.07 10.44,-23.18 21.01,-46.32 31.66,-69.44 97.08,0.04 194.17,0 291.25,0.02 8.5,-18.62 16.79,-37.31 25.29,-55.93 5.7,-12.84 11.53,-25.63 17.34,-38.42 127.07,-0.02 254.14,0.02 381.22,-0.02 3.81,-8.82 7.68,-17.63 11.45,-26.44 -264.27,-0.21 -528.52,-0.05 -792.79,-0.09 14.94,-32.8 29.45,-65.81 44.75,-98.45 137.22,0.32 274.42,0.05 411.64,0.14 28.67,-63.66 57.42,-127.28 86.1,-190.94 5.24,-11.68 10.6,-23.32 15.75,-35.05 51.21,0.02 102.42,-0.07 153.63,0.05 4.49,-9.36 8.79,-18.81 13.08,-28.27 -179.39,-0.07 -358.8,0.04 -538.21,-0.05 10.28,-22.62 20.27,-45.38 30.82,-67.86 128.02,0.2 256.05,0.04 384.09,0.09 11.73,-26.11 23.5,-52.18 35.28,-78.26 111.98,-49.5 223.95,-99.03 336.04,-148.3zm-990.53 1238.99c538.53,0.04 1077.09,-0.09 1615.64,0.04 -17.85,38.55 -35.55,77.15 -53.29,115.78 -538.12,-0.05 -1076.25,0.11 -1614.37,-0.1l0 -0.49c17.58,-38.31 34.62,-76.86 52.02,-115.23z"/>
   <path class="fil2" d="M1694.69 1333.33c12.43,0 24.88,-0.03 37.33,0.02 -26.35,57.51 -53.17,114.82 -79.7,172.27 -544.21,0.02 -1088.41,0.09 -1632.61,-0.02 5.53,-12.25 11,-24.55 16.7,-36.7 531.75,0.04 1063.48,0 1595.23,0.02 21.22,-45.11 42.03,-90.4 63.05,-135.59zm-1557.83 -372.8c81.94,-0.2 163.89,-0.04 245.83,-0.09 -5.42,12.48 -11.16,24.82 -16.7,37.25 -81.63,0.09 -163.23,0.04 -244.84,0.02 5.18,-12.43 10.56,-24.75 15.71,-37.18zm1619.03 -176.49c14.26,0.68 28.47,-0.93 42.73,-0.41 -51.05,113.51 -102.19,227.01 -153.81,340.27 -115.68,51.64 -231.34,103.42 -346.98,155.17 -4.61,1.85 -9.04,4.97 -14.21,4.56 -255.26,-0.07 -510.51,0.02 -765.79,-0.04 -61.31,-46.26 -122.71,-92.39 -183.95,-138.72 4.85,-11.25 10.03,-22.37 14.84,-33.62 57.83,43.09 115.24,86.82 173.04,130.01 252.45,-0.12 504.91,0.11 757.34,-0.12 22.98,-8.94 45.33,-19.86 68.09,-29.55 89.94,-39.8 180.02,-79.33 269.9,-119.28 37.74,-84.3 75.7,-168.5 113.51,-252.77 8.54,-18.44 16.25,-37.31 25.29,-55.5zm-1665.02 22.14c5.88,-12.76 11.52,-25.6 17.33,-38.39 120.5,-0.02 241,0.02 361.5,0 -5.81,12.79 -11.64,25.58 -17.34,38.42 -120.5,-0.03 -240.99,0.04 -361.49,-0.03zm185.58 -389.22c117.13,-0.06 234.26,0 351.37,-0.02 -5.15,11.73 -10.51,23.37 -15.75,35.05 -117.36,-0.09 -234.69,0.09 -352.05,-0.09 5.52,-11.64 10.87,-23.32 16.43,-34.94zm664.21 552.52c90.75,-201.35 181.51,-402.69 272.38,-603.97 54.8,0.04 109.58,0 164.38,0.02 -6.28,14.12 -12.45,28.27 -18.73,42.37 -39.3,0.02 -78.62,-0.02 -117.92,0.02 -84.41,187.19 -168.86,374.38 -253.27,561.56 -15.61,0 -31.23,0 -46.84,0zm1033.22 -681.8c8.74,5.98 17.42,12.09 26.12,18.14l0 1.56c-52.97,112.52 -105.42,225.27 -158.37,337.81 -115.17,-1.15 -230.4,-0.29 -345.58,-0.57 -67.21,-1.15 -134.44,-0.29 -201.68,-0.58 7.19,-14.85 15.03,-29.36 22.42,-44.09 170.35,0.11 340.7,-0.03 511.07,0.06 48.73,-104.06 97.32,-208.22 146.02,-312.33z"/>
  </g>
 </g>
</svg>
