<?xml version="1.0" encoding="UTF-8"?>
<!DOCTYPE svg PUBLIC "-//W3C//DTD SVG 1.1//EN" "http://www.w3.org/Graphics/SVG/1.1/DTD/svg11.dtd">
<!-- Creator: CorelDRAW -->
<svg xmlns="http://www.w3.org/2000/svg" xml:space="preserve" width="2000px" height="1600px" version="1.1" style="shape-rendering:geometricPrecision; text-rendering:geometricPrecision; image-rendering:optimizeQuality; fill-rule:evenodd; clip-rule:evenodd"
viewBox="0 0 2000 1600"
 xmlns:xlink="http://www.w3.org/1999/xlink">
 <defs>
  <style type="text/css">
   <![CDATA[
    .fil0 {fill:#00529B;fill-rule:nonzero}
    .fil1 {fill:#D1D4D7;fill-rule:nonzero}
    .fil2 {fill:#FEFEFE;fill-rule:nonzero}
   ]]>
  </style>
 </defs>
 <g id="Capa_x0020_1">
  <metadata id="CorelCorpID_0Corel-Layer"/>
  <g id="Central_x0020_Connecticut_x0020_Blue_x0020_Devils.cdr">
   <path class="fil0" d="M1697.29 669.47c27.54,-16.06 60.01,-23.65 91.79,-23.65 6.17,3.88 11.29,9.53 16.76,14.3 21.36,21 40.07,45.19 53.48,72.01 3.18,-4.06 6.36,-7.94 9.54,-11.82 6,21.71 9.7,44.48 7.94,67.07 -35.3,12.89 -69.54,29.12 -102.2,48.01 0.53,-12.89 6.36,-24.89 13.24,-35.83 -12.18,-13.42 -20.65,-29.83 -26.12,-46.95 -1.59,-5.12 -2.3,-10.59 -5.65,-15 -10.77,-14.3 -22.24,-28.25 -34.6,-41.13 31.6,6 62.31,15.71 91.96,27.89 -7.41,-19.6 -20.12,-36.89 -35.48,-51.01 -26.82,-3.53 -54.01,-3.53 -81.01,-3l0.35 -0.89zm-1363.69 298.3c4.23,0.18 8.29,0.18 12.53,0.18 0.35,4.41 -1.94,8.65 -3.71,12.53 -4.23,2.47 -9.53,0.88 -14.29,1.23 1.76,-4.58 3.7,-9.17 5.47,-13.94zm439.5 -19.77c4.77,0 9.53,0 14.47,0.36 -2.11,11.12 -7.94,21.18 -11.47,31.94 -5.12,2.3 -10.77,1.24 -16.24,1.41 4.24,-11.29 8.83,-22.41 13.24,-33.71zm-431.74 0c3.71,0 7.42,0 11.12,0.18 -0.53,4.06 -1.41,8.65 -4.41,11.47 -3.71,0.88 -7.59,0.35 -11.47,0.35 1.59,-4.06 3.18,-7.94 4.76,-12zm1326.99 -61.42c9.7,8.65 21.53,15.53 34.77,17.3 9,1.41 17.82,3.7 26.3,7.23 -13.6,7.42 -26.3,16.24 -37.6,26.65 -2.65,-5.47 -3.53,-11.65 -3.88,-17.65 -2.3,-2.64 -5.47,-4.41 -7.77,-6.88 -7.06,-7.24 -10.06,-17.12 -11.82,-26.65zm-1341.46 -95.85c6.35,0 12.71,0 19.06,0 -6.17,17.65 -12.35,35.31 -18.53,52.96 -6.53,0.17 -13.06,0.17 -19.59,0.17 5.47,-18 12,-35.65 19.06,-53.13zm716.09 -182.5c12,-0.18 23.83,0 35.83,-0.18 -3.88,11.12 -7.77,22.24 -11.82,33.36 -12.01,-0.18 -23.83,0 -35.84,0 3.89,-11.12 7.95,-22.24 11.83,-33.18zm190.8 61.24c12.89,-22.41 25.6,-45.01 38.66,-67.42 -3.53,22.41 -6.71,45.01 -10.24,67.42 -9.35,0 -18.88,0 -28.42,0zm375.08 -261.76c45.36,-62.83 136.26,-90.19 207.75,-58.07 -14.83,16.42 -28.24,34.77 -35.83,55.78 -4.06,11.47 -5.65,24.89 0,36.18 7.59,15.01 14.3,30.54 17.47,47.13 3.53,2.65 6.89,5.12 10.42,7.77 17.82,-6.89 29.83,-23.3 38.3,-39.72 8.3,-16.41 13.59,-34.77 13.77,-53.3 25.94,13.77 46.77,36.01 61.24,61.42 11.65,19.77 16.77,42.89 16.24,65.84 -0.35,30.71 -10.41,62.13 -31.59,84.9 25.42,47.3 43.77,98.31 54.01,150.91 1.06,6.71 3.18,13.59 2.65,20.48 -6.71,6.88 -14.3,13.06 -21.01,19.94 15.71,53.49 24.71,108.91 32.3,164.15 -18,-2.82 -36,-5.82 -54.01,-8.82 2.65,7.06 5.83,13.94 9.18,20.65 -12.53,20.83 -29.3,38.48 -45.71,56.31 1.94,12.88 3.17,27 -2.3,39.18 -1.94,4.41 -6.71,7.94 -5.29,13.24 4.59,47.83 15.88,95.67 38.48,138.38 4.94,9.36 10.76,18.36 17.29,26.83 -50.3,14.83 -104.67,5.12 -151.79,-16.06 -25.07,-10.42 -47.66,-26.13 -71.49,-39.19 -47.48,-26.83 -95.67,-52.42 -146.15,-73.25 -70.42,-31.06 -145.44,-57.01 -223.28,-55.77 -34.95,1.41 -69.72,6 -103.43,14.29 -26.12,7.06 -51.54,16.24 -76.25,27.36 5.12,-37.95 25.24,-72.01 49.07,-101.14 -314.01,0 -628.02,0 -942.02,0 7.41,-20.82 15,-41.3 22.41,-62.13 -12,-13.94 -24.18,-27.53 -36,-41.65 315.06,-0.18 629.95,0 944.84,0 -2.12,-6.71 -4.24,-13.59 -6.18,-20.3 -340.13,0 -680.26,0 -1020.39,0 -14.65,-0.53 -29.83,-7.59 -37.06,-20.65 -5.83,-10.95 -4.24,-23.83 -0.88,-35.13 5.47,-17.65 11.82,-35.12 18.88,-52.07 -2.82,-3.35 -5.65,-6.53 -8.29,-9.7 -25.6,-0.18 -52.78,1.58 -76.43,-10.07 -17.12,-7.76 -29.48,-25.41 -30.01,-44.48 -1.23,-25.59 10.42,-49.24 18.54,-73.07 10.76,-28.42 19.23,-58.07 33.18,-85.25 -14.83,-16.95 -29.83,-33.71 -44.13,-51.01 65.49,-0.18 130.97,0 196.45,0 21.72,0.35 44.66,1.41 63.9,12.71 8.3,4.76 15.18,12 19.94,20.47 317.54,0 635.08,0 952.79,0 52.95,-81.72 146.5,-134.67 243.58,-139.79 29.12,-1.77 58.25,1.41 86.84,6.7zm29.3 52.25l0 0zm0 0c-9,26.12 -0.53,56.66 19.24,75.55 12.36,9.7 28.07,15.35 43.77,16.06 20.13,0.35 38.84,-13.06 46.78,-31.24 4.76,-12.18 2.12,-25.77 -2.65,-37.6 -4.06,-10.77 -11.47,-20.12 -13.77,-31.59 -5.64,-23.3 1.42,-47.66 12.71,-68.14 0.53,0 1.41,-0.17 1.77,-0.17 -0.36,-0.53 -1.06,-1.59 -1.41,-2.12 -46.25,4.06 -90.73,34.77 -106.44,79.25zm239.52 4.77l0 0zm0 0c-4.59,24 -16.77,46.95 -36.18,61.95 8.29,8.65 16.06,17.65 23.65,27.01 4.41,5.64 8.83,11.65 13.24,17.47 20.3,-28.07 24,-69.19 4.23,-98.49 -1.76,-2.47 -3.35,-5.12 -4.94,-7.94zm-1761.01 75.54l0 0zm0 0c4.77,5.83 9.71,11.47 14.65,16.95 -12,10.76 -17.83,26.12 -23.47,40.59 -9.18,24.18 -17.83,48.72 -26.66,73.08 -4.94,12.53 -9.35,25.24 -10.94,38.65 -1.06,6.89 0.88,14.65 6.35,19.24 9.54,7.59 22.42,9 34.07,9.88 43.42,0.18 87.02,-0.17 130.62,0 4.76,-13.76 9.7,-27.53 14.64,-41.3 -36,-0.35 -72.01,-0.17 -107.84,-0.17 11.3,-39.37 24.89,-78.02 41.48,-115.44 13.94,0 28.06,0 42.01,0 -3.18,9 -6.36,17.83 -9.53,26.83 21.88,0 43.77,0 65.48,0 4.24,-12.36 9.18,-24.54 11.47,-37.42 1.77,-8.83 -2.12,-18.53 -10.06,-23.12 -11.47,-6.53 -25.06,-7.24 -37.95,-7.77 -44.83,0 -89.66,0 -134.32,0zm205.81 33.18l0 0zm0 0c4.06,4.77 8.12,9.36 12.35,13.95 -17.65,50.48 -35.83,100.78 -53.48,151.26 49.95,0 100.08,0 150.21,0 4.24,-11.47 8.29,-23.12 12.36,-34.59 -28.95,0 -57.9,0 -87.02,0 4.06,-11.47 7.94,-22.95 12.35,-34.24 13.42,0.17 27.01,0 40.42,0.17 2.65,-0.53 6.18,0.89 8.47,-0.88 3.71,-9.88 6.89,-19.77 10.42,-29.65 -16.24,0 -32.48,0 -48.72,0 3.53,-10.42 7.42,-20.83 11.12,-31.24 10.95,-0.18 21.89,-0.18 32.83,-0.18 -2.11,6.35 -4.41,12.71 -6.53,18.89 18.01,0.17 36.01,0 54.01,0.17 6.53,-17.82 12.71,-35.83 19.07,-53.66 -55.96,0 -111.91,0.18 -167.86,0zm190.1 0l0 0zm0 0c4.06,4.77 8.29,9.54 12.35,14.3 -17.65,50.31 -35.3,100.61 -52.77,150.91 18.88,-0.17 37.59,0 56.48,0 10.59,-31.77 21.36,-63.36 32.12,-94.96 11.12,31.42 21.36,63.19 32.13,94.96 20.12,0 40.42,0 60.72,0 19.59,-55.07 39.18,-110.14 58.77,-165.21 -19.41,0.36 -38.65,-0.17 -57.89,0.18 -11.12,33.36 -22.24,66.54 -33.54,99.73 -10.06,-33.36 -20.3,-66.55 -30.53,-99.91 -25.95,0 -51.9,0.18 -77.84,0zm236.16 0l0 0zm0 0c-6.35,17.83 -12.71,35.66 -19.06,53.49 15.18,0.17 30.36,0 45.72,0.17 2.29,-6.35 4.58,-12.71 6.7,-18.88 7.77,-0.18 15.54,-0.18 23.3,-0.18 -15.53,43.6 -31.06,87.02 -46.42,130.61 21.53,0 42.89,0 64.42,0 15.54,-43.42 30.89,-86.84 46.43,-130.43 7.41,-0.18 15,0 22.59,-0.18 -2.12,6.35 -4.41,12.71 -6.53,18.89 15.18,0.17 30.36,0.17 45.54,0 6.17,-17.83 12.53,-35.48 18.88,-53.31 -67.25,-0.18 -134.32,0 -201.57,-0.18zm223.99 0l0 0zm0 0c4.06,4.77 8.3,9.54 12.53,14.3 -18,50.31 -36,100.61 -53.66,150.91 21.54,0 43.25,0 64.96,0 7.94,-22.06 15.71,-44.3 23.83,-66.54 12,0.18 24,0.18 36,0.18 -7.94,22.06 -15.88,44.13 -23.65,66.36 21.18,0 42.54,0 63.9,0 5.47,-16.23 11.12,-32.47 16.77,-48.53 2.64,-7.06 5.82,-15.18 2.29,-22.6 -3.88,-7.59 -13.24,-9 -19.94,-13.06 9.88,-2.65 19.94,-6.18 27.53,-13.41 8.65,-8.65 11.83,-20.83 15.89,-31.95 3,-8.65 3.88,-20.65 -4.42,-26.83 -10.06,-7.59 -23.12,-7.94 -35.12,-8.65 -42.36,-0.18 -84.55,0 -126.91,-0.18zm237.23 0.18l0 0zm0 0c4.23,4.59 8.29,9.36 12.53,13.77 -30.19,50.48 -60.54,100.78 -90.9,151.26 21.71,0 43.24,0 64.77,0 7.24,-13.59 14.65,-27 21.89,-40.59 12.89,-0.18 25.95,0 39.01,0 -1.77,13.59 -4.06,27 -6,40.59 21.89,0 43.77,0 65.66,0 5.47,-55.07 10.77,-109.96 16.24,-165.03 -40.95,-0.18 -82.08,0 -123.2,0zm179.15 -0.18l0 0zm0 0c4.24,4.59 8.3,9.36 12.53,13.95 -17.47,50.48 -35.3,100.78 -52.77,151.26 51.01,0 102.19,0 153.38,0 3.88,-11.47 7.94,-23.12 12.18,-34.59 -29.65,0 -59.31,0 -88.96,0 15.18,-43.6 30.54,-87.02 45.89,-130.62 -27.36,0 -54.89,0.18 -82.25,0zm370.84 10.42l0 0zm0 0c-9.53,11.65 -22.06,19.94 -34.06,28.24 -32.83,17.47 -70.43,24.71 -107.32,22.42 -15.36,10.41 -30.18,21.71 -44.83,33.36 3.53,39.71 11.29,78.89 21.18,117.55 1.06,6.35 6.7,9.71 10.76,13.94 26.13,24.01 53.84,46.07 81.02,68.66 -22.77,-1.23 -44.83,-8.29 -65.66,-17.47 -32.12,-14.3 -62.13,-33.01 -90.72,-53.48 -1.24,-8.83 -2.65,-17.65 -5.48,-26.12 -24.53,0 -49.06,0 -73.6,0 -4.23,11.29 -8.12,22.76 -12.18,34.06 11.12,16.24 24.89,30.89 40.78,42.54 2.29,1.23 4.23,3.88 7.23,3.53 17.12,-0.35 34.42,-2.3 50.84,-7.41 -6.36,11.65 -13.07,23.3 -22.77,32.47 -13.06,9.36 -26.3,18.71 -39.89,27.54 12.35,33.36 25.41,66.72 42.18,98.31 3.36,5.12 5.3,12.01 11.12,15.01 52.07,32.47 106.61,61.24 162.56,86.31 47.84,21 96.91,39.36 147.56,51.71 -5.11,-21.71 -9,-43.77 -11.47,-66.01 -20.65,-6.18 -34.24,-25.59 -38.3,-46.07 15.53,7.95 33.71,9.71 50.48,5.3 -4.24,-11.3 -9.71,-22.24 -17.3,-31.6 -4.94,-3.53 -10.94,-4.94 -16.41,-7.41 -30.89,-10.59 -63.37,-15.89 -95.85,-18.89 -8.65,5.12 -16.94,10.95 -25.59,16.24 5.82,-32.3 27.36,-61.42 57.36,-75.01 22.77,7.41 43.96,19.06 64.61,30.71 19.94,11.83 39.71,23.65 58.07,37.77 7.06,-6.88 13.24,-14.83 18.71,-23.12 -10.95,-25.59 -22.6,-51.01 -33.72,-76.43l2.83 0.35c23.47,8.83 47.83,15.36 72.19,21.54 -5.65,-45.54 -18,-90.2 -34.77,-132.91 10.94,-7.94 21.53,-16.24 32.12,-24.71 -10.94,-45.36 -30.18,-88.61 -56.48,-127.09 -30.18,-23.83 -64.95,-41.12 -99.9,-56.66 -2.47,-1.76 -3.89,1.59 -5.3,2.83zm-1582.38 187.1l0 0zm0 0c2.11,2.47 4.41,5.11 6.7,7.76 -7.76,7.77 -10.59,18.71 -14.47,28.77 -4.24,12.18 -9.18,24.18 -12.71,36.72 -1.41,4.76 -2.47,10.94 1.94,14.65 5.65,4.41 13.24,4.23 19.95,4.76 19.06,0 37.95,0 56.83,0 2.47,-6.53 4.77,-13.24 7.06,-19.77 -16.76,-0.17 -33.53,0.18 -50.3,-0.17 5.29,-18.18 11.65,-36.01 19.24,-53.31 6.53,0 12.88,0 19.24,0 -1.41,4.06 -2.83,8.12 -4.24,12.36 10.24,0 20.48,0.17 30.71,0 2.12,-7.59 5.83,-15.01 4.77,-22.77 -2.47,-6.89 -10.59,-8.47 -16.95,-9 -22.59,-0.18 -45.18,0 -67.77,0zm115.26 0l0 0zm0 0c1.94,2.47 4.23,4.76 6.35,7.23 -5.47,6.36 -8.65,14.12 -11.65,21.89 -4.94,13.41 -9.71,27 -14.3,40.6 -1.76,6 -3.35,13.76 1.77,18.18 6.88,4.94 15.88,4.23 23.83,4.76 13.59,-0.35 27.35,0.88 40.77,-0.88 9.53,-1.24 18.53,-7.24 22.42,-16.06 6.88,-14.83 11.12,-30.36 16.76,-45.54 2.47,-7.24 6.18,-15.36 3,-22.77 -4.23,-6.71 -13.23,-6.71 -20.12,-7.24 -22.94,-0.35 -45.89,-0.17 -68.83,-0.17zm115.43 0l0 0zm0 0c2.47,2.82 4.94,5.64 7.06,8.64 -10.06,27.89 -19.59,55.96 -29.48,84.02 10.59,0 21.18,0 31.6,0 6.35,-17.65 11.82,-35.48 18.18,-52.95 6,17.65 11.83,35.3 17.83,52.95 11.29,0 22.59,0 33.89,0 11.12,-30.89 22.06,-61.78 33,-92.66 -10.76,0 -21.71,0 -32.65,0 -5.83,18.53 -12.53,36.89 -18.53,55.42 -5.83,-18.36 -11.3,-36.89 -17.13,-55.42 -14.47,0 -29.12,0 -43.77,0zm130.97 0l0 0zm0 0c2.29,2.64 4.59,5.29 7.06,7.76 -9.36,28.42 -19.77,56.48 -29.48,84.9 10.59,0 21.18,0 31.6,0 6.35,-17.65 11.82,-35.48 18.18,-53.13 6,17.65 11.82,35.48 17.82,53.13 11.3,0 22.6,0 33.89,0 11.12,-30.89 22.07,-61.78 33.01,-92.66 -10.77,0 -21.71,0 -32.65,0 -5.83,18.53 -12.36,36.89 -18.54,55.24 -5.82,-18.35 -11.29,-36.89 -17.12,-55.24 -14.47,0 -29.12,0 -43.77,0zm131.14 0l0 0zm0 0c2.3,2.47 4.59,4.94 6.53,7.76 0.53,2.3 -1.05,4.41 -1.58,6.53 -9.36,26.13 -18.71,52.25 -27.72,78.37 28.07,0 56.13,0 84.2,0 2.29,-6.71 4.59,-13.24 6.88,-19.77 -16.24,-0.17 -32.48,0 -48.54,0 2.3,-6.35 4.41,-12.71 6.53,-18.88 9.18,0 18.18,-0.18 27.36,0 2.12,-5.65 4.24,-11.3 6,-17.12 -9,0 -18,0 -27,0 1.94,-5.65 3.88,-11.3 5.82,-16.95 6.18,-0.18 12.18,-0.18 18.18,-0.18 -1.06,3.36 -2.29,6.71 -3.53,10.24 10.24,0 20.48,0 30.54,-0.17 3.35,-10.07 7.24,-19.77 10.41,-29.83 -31.24,0 -62.66,0 -94.08,0zm112.97 0l0 0zm0 0c1.94,2.64 5.47,4.94 6.18,8.29 -8.65,9.53 -11.48,22.24 -16.07,33.89 -4.06,12.18 -9.53,23.83 -11.65,36.54 -1.05,4.59 1.77,9.35 5.83,10.94 6.35,2.83 13.59,2.83 20.3,3 17.82,0 35.83,0 53.66,0 2.29,-6.53 4.58,-13.06 7.06,-19.59 -16.77,-0.53 -33.54,-0.18 -50.31,-0.18 5.3,-18.35 11.47,-36.18 19.42,-53.65 6.35,0.17 12.71,0.17 19.06,0.17 -1.41,4.06 -3,8.3 -4.41,12.36 10.41,0 20.65,0 30.89,0 1.94,-6.89 5.11,-13.77 5.11,-21.01 -1.23,-8.29 -10.76,-10.41 -17.82,-10.76 -22.42,-0.18 -44.84,0 -67.25,0zm109.96 0l0 0zm0 0c-3.53,9.88 -7.24,19.94 -10.77,29.83 8.65,0.17 17.3,0.17 25.78,0.17 1.23,-3.53 2.64,-7.06 3.88,-10.59 4.23,0 8.47,0 12.71,0 -8.65,24.36 -17.48,48.89 -26.13,73.25 12.18,0 24.19,0 36.19,0 8.82,-24.36 17.47,-48.89 26.12,-73.25 4.06,0 8.3,0 12.36,0 -1.24,3.53 -2.48,7.06 -3.71,10.59 8.65,0 17.12,0 25.77,-0.17 3.53,-9.89 7.06,-19.95 10.59,-29.83 -37.6,0 -75.19,0 -112.79,0zm126.56 0l0 0zm0 0c2.29,2.82 4.76,5.47 7.06,8.29 -10.06,28.07 -19.77,56.31 -29.66,84.37 12.01,0 24.01,0 36.19,0 10.94,-30.89 21.88,-61.78 32.65,-92.66 -15.35,0 -30.71,0 -46.24,0zm67.42 0l0 0zm0 0c2.3,2.64 4.59,5.29 6.89,7.76 -7.06,6.71 -9.71,16.24 -13.24,25.07 -4.59,13.23 -9.89,26.3 -13.77,39.71 -1.23,4.94 -2.82,11.3 1.41,15.18 5.65,4.41 13.24,4.41 20.12,4.94 18.89,0.18 37.95,0 57.02,0 2.29,-6.71 4.59,-13.24 6.88,-19.77 -16.77,0 -33.54,0 -50.3,0 5.29,-18.35 11.65,-36.18 19.41,-53.48 6.36,0 12.71,0 19.24,0 -1.59,4.06 -3,8.3 -4.41,12.36 10.24,0 20.65,0.17 30.89,0 1.94,-7.06 5.12,-13.77 4.94,-21.18 -1.24,-8.12 -10.59,-10.24 -17.47,-10.59 -22.42,-0.18 -45.01,0 -67.61,0zm105.38 0l0 0zm0 0c2.29,2.82 4.76,5.47 7.06,8.29 -7.77,21.36 -15.36,42.89 -23.12,64.43 -1.24,3.7 -2.83,7.76 -1.06,11.65 1.76,4.41 6.88,6 11.12,7.06 12.71,2.11 25.59,1.06 38.47,1.23 11.48,0.18 24.19,-0.35 33.54,-7.76 4.94,-3.54 7.41,-9.18 9.36,-14.66 8.29,-23.47 16.59,-46.77 24.88,-70.24 -12,0 -24.18,0 -36.18,0 -8.65,24.18 -17.3,48.53 -25.95,72.89 -6,0 -12,0 -17.82,0 8.47,-24.36 17.12,-48.54 25.59,-72.89 -15.36,0 -30.54,0 -45.89,0zm119.32 0l0 0zm0 0c-3.71,9.88 -7.24,19.94 -10.77,30 8.65,0 17.3,0 25.77,0 1.24,-3.53 2.47,-7.06 3.71,-10.59 4.23,0 8.47,-0.17 12.71,0 -8.48,24.36 -17.3,48.72 -25.95,73.25 12.18,0 24.18,0.18 36.36,-0.17 8.47,-24.36 17.3,-48.72 25.95,-73.08 4.05,0 8.11,0 12.17,0 -1.23,3.53 -2.29,7.06 -3.53,10.59 8.65,0 17.12,0 25.6,0 3.53,-10.06 7.23,-19.94 10.59,-30 -37.6,0 -75.02,0 -112.61,0zm-982.97 168.74l0 0zm0 0c-1.06,2.82 -2.12,5.47 -3,8.29 1.06,0 3.35,0 4.41,0 -5.12,13.95 -10.77,27.54 -16.06,41.48 9.53,0 19.06,0.53 28.59,-0.17 9.18,-1.42 11.3,-11.3 13.95,-18.54 1.41,-2.47 0,-4.94 -1.06,-7.24 4.76,-4.58 7.41,-11.29 8.12,-17.82 0.17,-4.06 -4.42,-5.83 -7.77,-5.83 -9.18,-0.35 -18.18,0 -27.18,-0.17zm97.61 0l0 0zm0 0c-1.06,2.82 -2.3,5.47 -3.36,8.11 1.24,0.18 3.36,0.36 4.42,0.36 -5.48,13.77 -10.77,27.53 -16.07,41.3 9.71,0.18 19.42,0 29.13,0.18 1.06,-2.65 1.94,-5.3 3,-7.95 -6.18,0 -12.18,0 -18.36,0 5.47,-13.94 10.95,-27.88 16.24,-42 -4.94,0 -10.06,0 -15,0zm85.96 8.29l0 0zm0 0c1.05,0 3.17,0 4.23,0 -3.88,11.12 -8.82,21.89 -12.35,33.19 -1.42,3.53 1.06,7.76 4.94,8.12 6.71,0.52 13.59,0.35 20.3,0.17 6.71,0 12.53,-4.59 14.82,-10.77 5.3,-12.88 10.06,-25.94 15.18,-38.83 -3.53,-0.17 -7.06,-0.17 -10.59,-0.17 -5.29,12.7 -9.7,25.59 -15.18,38.3 -3.53,6.35 -12.35,3 -18.18,3.53 3.18,-14.48 10.42,-27.71 15.01,-41.66 -4.95,-0.17 -9.89,-0.17 -14.83,-0.17 -1.24,2.64 -2.3,5.47 -3.35,8.29zm101.49 -0.18l0 0zm0 0c1.06,0.18 3.35,0.36 4.41,0.36 -5.29,13.77 -10.77,27.53 -16.06,41.3 10.77,0.18 21.36,0 31.95,0.18 1.06,-2.65 2.11,-5.3 3,-7.95 -7.06,0 -14.12,0 -21.18,0 1.58,-4.23 3.35,-8.64 4.94,-12.88 6.71,0 13.24,0 19.77,0 1.06,-2.65 2.12,-5.3 3.17,-7.77 -6.53,-0.17 -13.23,0 -19.76,-0.17 1.58,-4.24 3.35,-8.65 5.11,-12.89 6.89,0 13.95,0 20.83,0.18 1.24,-2.83 2.47,-5.47 3.53,-8.3 -12.18,-0.17 -24.18,0 -36.36,-0.17 -1.23,2.64 -2.29,5.47 -3.35,8.11zm146.68 -7.76l0 0zm0 0c-1.06,2.65 -1.95,5.29 -2.83,7.94 1.06,0 3.18,0 4.24,0 -5.12,13.95 -10.77,27.71 -15.89,41.48 9.53,0 19.24,0.35 28.77,0 6,-0.53 10.59,-5.12 12.53,-10.59 3.53,-9.88 7.77,-19.41 10.95,-29.3 1.76,-3.88 -0.71,-9 -5.12,-9.35 -10.94,-1.06 -21.89,-0.53 -32.65,-0.18zm99.37 -0.18l0 0zm0 0c-1.06,2.65 -2.12,5.47 -3.18,8.12 1.06,0 3.36,0 4.41,0 -5.29,13.95 -10.76,27.71 -16.06,41.48 10.77,0.18 21.36,0.18 32.13,0 0.88,-2.47 1.94,-5.12 3,-7.77 -7.06,0 -14.12,0 -21.18,0 1.58,-4.23 3.17,-8.64 4.76,-12.88 6.53,0 13.06,-0.18 19.59,0.18 1.24,-2.65 2.3,-5.3 3.36,-7.95 -6.53,-0.17 -13.06,-0.17 -19.77,0 1.59,-4.41 3.35,-8.65 4.94,-12.88 7.06,-0.18 14.12,-0.18 21.36,-0.18 1.06,-2.65 2.12,-5.47 3.35,-8.29 -12.35,0 -24.53,0 -36.71,0.17zm92.49 0l0 0zm0 0c-0.88,2.65 -1.94,5.3 -2.83,7.94 1.24,0 3.89,0.36 5.12,0.36 -0.7,13.77 -1.23,27.53 -1.59,41.3 4.59,0.18 9.01,0.18 13.42,0 12.18,-16.41 24.18,-33.01 36.36,-49.6 -3.53,-0.17 -7.24,-0.17 -10.77,-0.17 -9.53,13.06 -18.71,26.3 -28.24,39.18 0.18,-13.06 1.41,-26.12 1.94,-39.18 -4.59,0 -9,0 -13.41,0.17zm104.84 -0.17l0 0zm0 0c-1.06,2.64 -2.29,5.47 -3.35,8.11 1.23,0.18 3.35,0.36 4.41,0.36 -5.47,13.77 -10.76,27.53 -16.06,41.3 3.53,0 7.06,0 10.77,0 6.35,-16.59 12.88,-33.01 19.24,-49.77 -4.95,0 -10.06,0 -15.01,0zm70.25 8.29l0 0zm0 0c1.06,0 3.36,0.18 4.42,0.18 -5.3,13.77 -10.95,27.53 -16.07,41.48 9.71,-0.18 19.42,0 29.13,0 0.88,-2.65 1.94,-5.3 2.82,-7.95 -6,0 -12.18,0 -18.36,0 5.48,-13.94 11.13,-27.88 16.42,-42 -5.12,0 -10.24,0 -15.18,0 -1.06,2.82 -2.12,5.47 -3.18,8.29zm89.14 9.53l0 0zm0 0c-1.24,3.18 -2.12,7.95 1.23,10.06 5.83,2.12 12.01,0.89 18.01,1.42 -1.59,4.06 -2.12,9.35 -5.65,12.18 -7.06,1.23 -14.47,0.17 -21.71,0.52 -1.06,2.65 -1.94,5.12 -3,7.77 10.94,-1.06 24,3.36 33.54,-3.71 4.58,-6.17 7.94,-13.94 7.94,-21.53 -4.77,-6.35 -13.95,-2.82 -20.65,-3.88 1.59,-3.89 2.12,-8.47 5.12,-11.65 4.23,-1.24 8.82,-0.53 13.23,-0.71 -0.88,2.12 -1.58,4.06 -2.47,6 3,0 6,0 9.18,0 1.77,-4.76 3.71,-9.53 5.47,-14.29 -9.35,0.53 -19.06,-1.06 -28.24,1.23 -7.24,2.3 -9.71,10.24 -12,16.59zm522.28 15.01l0 0zm0 0c19.42,2.82 38.66,6.88 57.9,11.12 -12,-8.65 -25.24,-15.71 -38.66,-22.07 -6.53,3.53 -12.88,7.24 -19.24,10.95zm35.66 -233.88l0 0zm0 0c8.12,21.19 21.53,41.84 42.71,51.72 -1.76,-5.82 -3.88,-11.65 -5.65,-17.47 3.53,-2.12 7.06,-4.42 10.77,-6.71 -15,-10.94 -31.59,-19.06 -47.83,-27.54z"/>
   <path class="fil1" d="M1734.71 312.93l41.13 0c6.53,1.94 13.41,3.18 20.12,4.59 20.3,5.12 39.71,14.12 56.31,27 -19.95,19.24 -37.95,41.31 -49.25,66.72 -7.77,18.36 5.47,35.83 12.53,52.07 5.83,-7.41 9.89,-15.88 13.24,-24.71 8.12,-22.06 11.83,-46.07 10.24,-69.72 31.41,9.53 59.83,28.42 81.19,53.31 16.06,19.24 29.48,41.3 35.83,65.83 11.47,43.78 4.59,92.85 -21.89,130.09 26.48,55.78 46.25,115.26 53.66,176.86 -5.29,6.53 -12,11.65 -17.82,17.65 -2.12,1.59 -0.89,4.41 -0.54,6.53 13.07,51.37 21.19,103.79 28.6,156.03 0.53,3.36 1.23,6.53 1.94,9.71l0 12.71c-16.24,-0.88 -31.95,-4.94 -48.19,-6.71 -12,20.12 -27.35,37.95 -42.89,55.6 -1.06,9.53 0.53,19.6 -2.29,29.13 -1.41,8.65 -8.12,16.06 -6.36,25.24 6.89,61.25 30.19,122.14 72.73,167.68 -20.66,10.59 -43.42,14.83 -66.02,18.53l-42.71 0c-10.59,-2.64 -21.54,-3.18 -32.13,-5.65 -27,-5.29 -53.13,-14.82 -77.48,-27.53 -24.54,-12.53 -47.84,-27.36 -71.84,-40.77 -59.84,-33.19 -121.26,-64.08 -185.86,-87.02 -25.07,-8.83 -50.31,-16.77 -76.25,-22.07 -46.78,-9.53 -95.32,-11.12 -142.09,-1.76 -50.31,10.24 -99.38,26.3 -145.27,49.24 0.53,-49.06 9.89,-83.66 43.78,-117.55 -313.31,0 -626.43,0.18 -939.55,-0.18 8.65,-26.3 18.88,-52.07 27.89,-78.36 -13.07,-15.36 -26.13,-30.54 -39.54,-45.54 -17.48,-0.18 -34.95,0 -52.42,-0.18 -14.65,0 -29.3,-4.41 -40.95,-13.24 -12.54,-9.18 -21.36,-23.47 -22.42,-39.18 -1.94,-22.6 7.59,-44.13 15.36,-64.96 -23.66,-0.35 -48.01,-2.29 -69.37,-13.59 -20.3,-10.24 -35.48,-30.71 -38.3,-53.3 -3.18,-24.18 4.59,-48.01 12.35,-70.61 11.12,-31.06 21.18,-62.48 34.24,-92.84 -21.18,-25.06 -43.24,-49.42 -64.42,-74.48l0 -1.06c83.13,0.88 166.09,0 249.23,0.53 27.53,0.7 57.36,4.94 78.72,24 4.24,3.18 7.24,9.53 13.24,9 308.18,0 616.18,0.18 924.19,-0.17 32.48,-46.95 77.66,-85.08 129.38,-109.09 63.19,-30 135.56,-38.83 204.39,-28.24 20.3,-23.12 46.07,-40.95 74.31,-52.77 19.42,-8.65 40.42,-12.89 61.25,-16.77zm-517.87 644.6c2.29,-6.35 4.76,-14.29 12,-16.59 9.18,-2.29 18.89,-0.7 28.24,-1.23 -1.76,4.76 -3.7,9.53 -5.47,14.29 -3.18,0 -6.18,0 -9.18,0 0.89,-1.94 1.59,-3.88 2.47,-6 -4.41,0.18 -9,-0.53 -13.23,0.71 -3,3.18 -3.53,7.76 -5.12,11.65 6.7,1.06 15.88,-2.47 20.65,3.88 0,7.59 -3.36,15.36 -7.94,21.53 -9.54,7.07 -22.6,2.65 -33.54,3.71 1.06,-2.65 1.94,-5.12 3,-7.77 7.24,-0.35 14.65,0.71 21.71,-0.52 3.53,-2.83 4.06,-8.12 5.65,-12.18 -6,-0.53 -12.18,0.7 -18.01,-1.42 -3.35,-2.11 -2.47,-6.88 -1.23,-10.06zm-89.14 -9.53c1.06,-2.82 2.12,-5.47 3.18,-8.29 4.94,0 10.06,0 15.18,0 -5.29,14.12 -10.94,28.06 -16.42,42 6.18,0 12.36,0 18.36,0 -0.88,2.65 -1.94,5.3 -2.82,7.95 -9.71,0 -19.42,-0.18 -29.13,0 5.12,-13.95 10.77,-27.71 16.07,-41.48 -1.06,0 -3.36,-0.18 -4.42,-0.18zm-70.25 -8.29c4.95,0 10.06,0 15.01,0 -6.36,16.76 -12.89,33.18 -19.24,49.77 -3.71,0 -7.24,0 -10.77,0 5.3,-13.77 10.59,-27.53 16.06,-41.3 -1.06,0 -3.18,-0.18 -4.41,-0.36 1.06,-2.64 2.29,-5.47 3.35,-8.11zm-104.84 0.17c4.41,-0.17 8.82,-0.17 13.41,-0.17 -0.53,13.06 -1.76,26.12 -1.94,39.18 9.53,-12.88 18.71,-26.12 28.24,-39.18 3.53,0 7.24,0 10.77,0.17 -12.18,16.59 -24.18,33.19 -36.36,49.6 -4.41,0.18 -8.83,0.18 -13.42,0 0.36,-13.77 0.89,-27.53 1.59,-41.3 -1.23,0 -3.88,-0.36 -5.12,-0.36 0.89,-2.64 1.95,-5.29 2.83,-7.94zm-92.49 0c12.18,-0.17 24.36,-0.17 36.71,-0.17 -1.23,2.82 -2.29,5.64 -3.35,8.29 -7.24,0 -14.3,0 -21.36,0.18 -1.59,4.23 -3.35,8.47 -4.94,12.88 6.71,-0.17 13.24,-0.17 19.77,0 -1.06,2.65 -2.12,5.3 -3.36,7.95 -6.53,-0.36 -13.06,-0.18 -19.59,-0.18 -1.59,4.24 -3.18,8.65 -4.76,12.88 7.06,0 14.12,0 21.18,0 -1.06,2.65 -2.12,5.3 -3,7.77 -10.77,0.18 -21.36,0.18 -32.13,0 5.3,-13.77 10.77,-27.53 16.06,-41.48 -1.05,0 -3.35,0 -4.41,0 1.06,-2.65 2.12,-5.47 3.18,-8.12zm-99.37 0.18c10.76,-0.35 21.71,-0.88 32.65,0.18 4.41,0.35 6.88,5.47 5.12,9.35 -3.18,9.89 -7.42,19.42 -10.95,29.3 -1.94,5.47 -6.53,10.06 -12.53,10.59 -9.53,0.35 -19.24,0 -28.77,0 5.12,-13.77 10.77,-27.53 15.89,-41.48 -1.06,0 -3.18,0 -4.24,0 0.88,-2.65 1.77,-5.29 2.83,-7.94zm12.35 7.94l0 0zm0 0c-4.41,11.3 -9,22.42 -13.24,33.71 5.47,-0.17 11.12,0.89 16.24,-1.41 3.53,-10.76 9.36,-20.82 11.47,-31.94 -4.94,-0.36 -9.7,-0.36 -14.47,-0.36zm-159.03 -0.18c1.06,-2.64 2.12,-5.47 3.35,-8.11 12.18,0.17 24.18,0 36.36,0.17 -1.06,2.83 -2.29,5.47 -3.53,8.3 -6.88,-0.18 -13.94,-0.18 -20.83,-0.18 -1.76,4.24 -3.53,8.65 -5.11,12.89 6.53,0.17 13.23,0 19.76,0.17 -1.05,2.47 -2.11,5.12 -3.17,7.77 -6.53,0 -13.06,0 -19.77,0 -1.59,4.24 -3.36,8.65 -4.94,12.88 7.06,0 14.12,0 21.18,0 -0.89,2.65 -1.94,5.3 -3,7.95 -10.59,-0.18 -21.18,0 -31.95,-0.18 5.29,-13.77 10.77,-27.53 16.06,-41.3 -1.06,0 -3.35,-0.18 -4.41,-0.36zm-101.49 0.18c1.05,-2.82 2.11,-5.65 3.35,-8.29 4.94,0 9.88,0 14.83,0.17 -4.59,13.95 -11.83,27.18 -15.01,41.66 5.83,-0.53 14.65,2.82 18.18,-3.53 5.48,-12.71 9.89,-25.6 15.18,-38.3 3.53,0 7.06,0 10.59,0.17 -5.12,12.89 -9.88,25.95 -15.18,38.83 -2.29,6.18 -8.11,10.77 -14.82,10.77 -6.71,0.18 -13.59,0.35 -20.3,-0.17 -3.88,-0.36 -6.36,-4.59 -4.94,-8.12 3.53,-11.3 8.47,-22.07 12.35,-33.19 -1.06,0 -3.18,0 -4.23,0zm-85.96 -8.29c4.94,0 10.06,0 15,0 -5.29,14.12 -10.77,28.06 -16.24,42 6.18,0 12.18,0 18.36,0 -1.06,2.65 -1.94,5.3 -3,7.95 -9.71,-0.18 -19.42,0 -29.13,-0.18 5.3,-13.77 10.59,-27.53 16.07,-41.3 -1.06,0 -3.18,-0.18 -4.42,-0.36 1.06,-2.64 2.3,-5.29 3.36,-8.11zm-97.61 0c9,0.17 18,-0.18 27.18,0.17 3.35,0 7.94,1.77 7.77,5.83 -0.71,6.53 -3.36,13.24 -8.12,17.82 1.06,2.3 2.47,4.77 1.06,7.24 -2.65,7.24 -4.77,17.12 -13.95,18.54 -9.53,0.7 -19.06,0.17 -28.59,0.17 5.29,-13.94 10.94,-27.53 16.06,-41.48 -1.06,0 -3.35,0 -4.41,0 0.88,-2.82 1.94,-5.47 3,-8.29zm12.35 8.29l0 0zm0 0c-1.58,4.06 -3.17,7.94 -4.76,12 3.88,0 7.76,0.53 11.47,-0.35 3,-2.82 3.88,-7.41 4.41,-11.47 -3.7,-0.18 -7.41,-0.18 -11.12,-0.18zm-7.76 19.77l0 0zm0 0c-1.77,4.77 -3.71,9.36 -5.47,13.94 4.76,-0.35 10.06,1.24 14.29,-1.23 1.77,-3.88 4.06,-8.12 3.71,-12.53 -4.24,0 -8.3,0 -12.53,-0.18zm978.38 -196.8c37.59,0 75.01,0 112.61,0 -3.36,10.06 -7.06,19.94 -10.59,30 -8.48,0 -16.95,0 -25.6,0 1.24,-3.53 2.3,-7.06 3.53,-10.59 -4.06,0 -8.12,0 -12.17,0 -8.65,24.36 -17.48,48.72 -25.95,73.08 -12.18,0.35 -24.18,0.17 -36.36,0.17 8.65,-24.53 17.47,-48.89 25.95,-73.25 -4.24,-0.17 -8.48,0 -12.71,0 -1.24,3.53 -2.47,7.06 -3.71,10.59 -8.47,0 -17.12,0 -25.77,0 3.53,-10.06 7.06,-20.12 10.77,-30zm-119.32 0c15.35,0 30.53,0 45.89,0 -8.47,24.35 -17.12,48.53 -25.59,72.89 5.82,0 11.82,0 17.82,0 8.65,-24.36 17.3,-48.71 25.95,-72.89 12,0 24.18,0 36.18,0 -8.29,23.47 -16.59,46.77 -24.88,70.24 -1.95,5.48 -4.42,11.12 -9.36,14.66 -9.35,7.41 -22.06,7.94 -33.54,7.76 -12.88,-0.17 -25.76,0.88 -38.47,-1.23 -4.24,-1.06 -9.36,-2.65 -11.12,-7.06 -1.77,-3.89 -0.18,-7.95 1.06,-11.65 7.76,-21.54 15.35,-43.07 23.12,-64.43 -2.3,-2.82 -4.77,-5.47 -7.06,-8.29zm-105.38 0c22.6,0 45.19,-0.18 67.61,0 6.88,0.35 16.23,2.47 17.47,10.59 0.18,7.41 -3,14.12 -4.94,21.18 -10.24,0.17 -20.65,0 -30.89,0 1.41,-4.06 2.82,-8.3 4.41,-12.36 -6.53,0 -12.88,0 -19.24,0 -7.76,17.3 -14.12,35.13 -19.41,53.48 16.76,0 33.53,0 50.3,0 -2.29,6.53 -4.59,13.06 -6.88,19.77 -19.07,0 -38.13,0.18 -57.02,0 -6.88,-0.53 -14.47,-0.53 -20.12,-4.94 -4.23,-3.88 -2.64,-10.24 -1.41,-15.18 3.88,-13.41 9.18,-26.48 13.77,-39.71 3.53,-8.83 6.18,-18.36 13.24,-25.07 -2.3,-2.47 -4.59,-5.12 -6.89,-7.76zm-67.42 0c15.53,0 30.89,0 46.24,0 -10.77,30.88 -21.71,61.77 -32.65,92.66 -12.18,0 -24.18,0 -36.19,0 9.89,-28.06 19.6,-56.3 29.66,-84.37 -2.3,-2.82 -4.77,-5.47 -7.06,-8.29zm-126.56 0c37.6,0 75.19,0 112.79,0 -3.53,9.88 -7.06,19.94 -10.59,29.83 -8.65,0.17 -17.12,0.17 -25.77,0.17 1.23,-3.53 2.47,-7.06 3.71,-10.59 -4.06,0 -8.3,0 -12.36,0 -8.65,24.36 -17.3,48.89 -26.12,73.25 -12,0 -24.01,0 -36.19,0 8.65,-24.36 17.48,-48.89 26.13,-73.25 -4.24,0 -8.48,0 -12.71,0 -1.24,3.53 -2.65,7.06 -3.88,10.59 -8.48,0 -17.13,0 -25.78,-0.17 3.53,-9.89 7.24,-19.95 10.77,-29.83zm-109.96 0c22.41,0 44.83,-0.18 67.25,0 7.06,0.35 16.59,2.47 17.82,10.76 0,7.24 -3.17,14.12 -5.11,21.01 -10.24,0 -20.48,0 -30.89,0 1.41,-4.06 3,-8.3 4.41,-12.36 -6.35,0 -12.71,0 -19.06,-0.17 -7.95,17.47 -14.12,35.3 -19.42,53.65 16.77,0 33.54,-0.35 50.31,0.18 -2.48,6.53 -4.77,13.06 -7.06,19.59 -17.83,0 -35.84,0 -53.66,0 -6.71,-0.17 -13.95,-0.17 -20.3,-3 -4.06,-1.59 -6.88,-6.35 -5.83,-10.94 2.12,-12.71 7.59,-24.36 11.65,-36.54 4.59,-11.65 7.42,-24.36 16.07,-33.89 -0.71,-3.35 -4.24,-5.65 -6.18,-8.29zm-112.97 0c31.42,0 62.84,0 94.08,0 -3.17,10.06 -7.06,19.76 -10.41,29.83 -10.06,0.17 -20.3,0.17 -30.54,0.17 1.24,-3.53 2.47,-6.88 3.53,-10.24 -6,0 -12,0 -18.18,0.18 -1.94,5.65 -3.88,11.3 -5.82,16.95 9,0 18,0 27,0 -1.76,5.82 -3.88,11.47 -6,17.12 -9.18,-0.18 -18.18,0 -27.36,0 -2.12,6.17 -4.23,12.53 -6.53,18.88 16.06,0 32.3,-0.17 48.54,0 -2.29,6.53 -4.59,13.06 -6.88,19.77 -28.07,0 -56.13,0 -84.2,0 9.01,-26.12 18.36,-52.24 27.72,-78.37 0.53,-2.12 2.11,-4.23 1.58,-6.53 -1.94,-2.82 -4.23,-5.29 -6.53,-7.76zm-131.14 0c14.65,0 29.3,0 43.77,0 5.83,18.35 11.3,36.89 17.12,55.24 6.18,-18.35 12.71,-36.71 18.54,-55.24 10.94,0 21.88,0 32.65,0 -10.94,30.88 -21.89,61.77 -33.01,92.66 -11.29,0 -22.59,0 -33.89,0 -6,-17.65 -11.82,-35.48 -17.82,-53.13 -6.36,17.65 -11.83,35.48 -18.18,53.13 -10.42,0 -21.01,0 -31.6,0 9.71,-28.42 20.12,-56.48 29.48,-84.9 -2.47,-2.47 -4.77,-5.12 -7.06,-7.76zm-130.97 0c14.65,0 29.3,0 43.77,0 5.83,18.53 11.3,37.06 17.13,55.42 6,-18.53 12.7,-36.89 18.53,-55.42 10.94,0 21.89,0 32.65,0 -10.94,30.88 -21.88,61.77 -33,92.66 -11.3,0 -22.6,0 -33.89,0 -6,-17.65 -11.83,-35.3 -17.83,-52.95 -6.36,17.47 -11.83,35.3 -18.18,52.95 -10.42,0 -21.01,0 -31.6,0 9.89,-28.06 19.42,-56.13 29.48,-84.02 -2.12,-3 -4.59,-5.82 -7.06,-8.64zm-115.43 0c22.94,0 45.89,-0.18 68.83,0.17 6.89,0.53 15.89,0.53 20.12,7.24 3.18,7.41 -0.53,15.53 -3,22.77 -5.64,15.18 -9.88,30.71 -16.76,45.54 -3.89,8.82 -12.89,14.82 -22.42,16.06 -13.42,1.76 -27.18,0.53 -40.77,0.88 -7.95,-0.53 -16.95,0.18 -23.83,-4.76 -5.12,-4.42 -3.53,-12.18 -1.77,-18.18 4.59,-13.6 9.36,-27.19 14.3,-40.6 3,-7.77 6.18,-15.53 11.65,-21.89 -2.12,-2.47 -4.41,-4.76 -6.35,-7.23zm34.06 19.76l0 0zm0 0c-7.06,17.48 -13.59,35.13 -19.06,53.13 6.53,0 13.06,0 19.59,-0.17 6.18,-17.65 12.36,-35.31 18.53,-52.96 -6.35,0 -12.71,0 -19.06,0zm-149.32 -19.76c22.59,0 45.18,-0.18 67.77,0 6.36,0.53 14.48,2.11 16.95,9 1.06,7.76 -2.65,15.18 -4.77,22.77 -10.23,0.17 -20.47,0 -30.71,0 1.41,-4.24 2.83,-8.3 4.24,-12.36 -6.36,0 -12.71,0 -19.24,0 -7.59,17.3 -13.95,35.13 -19.24,53.31 16.77,0.35 33.54,0 50.3,0.17 -2.29,6.53 -4.59,13.24 -7.06,19.77 -18.88,0 -37.77,0 -56.83,0 -6.71,-0.53 -14.3,-0.35 -19.95,-4.76 -4.41,-3.71 -3.35,-9.89 -1.94,-14.65 3.53,-12.54 8.47,-24.54 12.71,-36.72 3.88,-10.06 6.71,-21 14.47,-28.77 -2.29,-2.65 -4.59,-5.29 -6.7,-7.76zm1441 -136.44c36.89,2.29 74.49,-4.95 107.32,-22.42 -11.65,18 -23.13,36.54 -28.6,57.36l-0.35 0.89c27,-0.53 54.19,-0.53 81.01,3 15.36,14.12 28.07,31.41 35.48,51.01 -29.65,-12.18 -60.36,-21.89 -91.96,-27.89 12.36,12.88 23.83,26.83 34.6,41.13 3.35,4.41 4.06,9.88 5.65,15 5.47,17.12 13.94,33.53 26.12,46.95 -6.88,10.94 -12.71,22.94 -13.24,35.83 32.66,-18.89 66.9,-35.12 102.2,-48.01 4.06,30.36 8.3,60.9 8.47,91.61 -10.06,9.71 -23.83,14.65 -36.54,20.12 0.89,0.53 2.48,1.24 3.36,1.76l-2.83 -0.35c11.12,25.42 22.77,50.84 33.72,76.43 -5.47,8.29 -11.65,16.24 -18.71,23.12 -18.36,-14.12 -38.13,-25.94 -58.07,-37.77 -20.65,-11.65 -41.84,-23.3 -64.61,-30.71 -30,13.59 -51.54,42.71 -57.36,75.01 8.65,-5.29 16.94,-11.12 25.59,-16.24 32.48,3 64.96,8.3 95.85,18.89 5.47,2.47 11.47,3.88 16.41,7.41 7.59,9.36 13.06,20.3 17.3,31.6 -16.77,4.41 -34.95,2.65 -50.48,-5.3 4.06,20.48 17.65,39.89 38.3,46.07 2.47,22.24 6.36,44.3 11.47,66.01 -50.65,-12.35 -99.72,-30.71 -147.56,-51.71 -55.95,-25.07 -110.49,-53.84 -162.56,-86.31 -5.82,-3 -7.76,-9.89 -11.12,-15.01 -16.77,-31.59 -29.83,-64.95 -42.18,-98.31 13.59,-8.83 26.83,-18.18 39.89,-27.54 9.7,-9.17 16.41,-20.82 22.77,-32.47 -16.42,5.11 -33.72,7.06 -50.84,7.41 -3,0.35 -4.94,-2.3 -7.23,-3.53 -15.89,-11.65 -29.66,-26.3 -40.78,-42.54 4.06,-11.3 7.95,-22.77 12.18,-34.06 24.54,0 49.07,0 73.6,0 2.83,8.47 4.24,17.29 5.48,26.12 28.59,20.47 58.6,39.18 90.72,53.48 20.83,9.18 42.89,16.24 65.66,17.47 -27.18,-22.59 -54.89,-44.65 -81.02,-68.66 -4.06,-4.23 -9.7,-7.59 -10.76,-13.94 -9.89,-38.66 -17.65,-77.84 -21.18,-117.55 14.65,-11.65 29.47,-22.95 44.83,-33.36zm49.78 252.05l0 0zm0 0c1.76,9.53 4.76,19.41 11.82,26.65 2.3,2.47 5.47,4.24 7.77,6.88 0.35,6 1.23,12.18 3.88,17.65 11.3,-10.41 24,-19.23 37.6,-26.65 -8.48,-3.53 -17.3,-5.82 -26.3,-7.23 -13.24,-1.77 -25.07,-8.65 -34.77,-17.3zm217.98 -389.02c-0.35,-8.48 -4.59,-16.42 -3.71,-24.89 19.77,29.3 16.07,70.42 -4.23,98.49 -4.41,-5.82 -8.83,-11.83 -13.24,-17.47 14.3,-14.83 23.12,-35.31 21.18,-56.13zm-248.17 -37.6c15.71,-44.48 60.19,-75.19 106.44,-79.25 0.35,0.53 1.05,1.59 1.41,2.12 -0.36,0 -1.24,0.17 -1.77,0.17 -3.7,0.36 -7.23,1.24 -10.41,3.36 -27.89,16.06 -47.66,45.36 -51.9,77.13 -4.41,30.54 5.3,61.25 19.24,88.08 -15.7,-0.71 -31.41,-6.36 -43.77,-16.06 -19.77,-18.89 -28.24,-49.43 -19.24,-75.55zm-29.3 -52.25c-28.59,-5.29 -57.72,-8.47 -86.84,-6.7 -97.08,5.12 -190.63,58.07 -243.58,139.79 -317.71,0 -635.25,0 -952.79,0 -4.76,-8.47 -11.64,-15.71 -19.94,-20.47 -19.24,-11.3 -42.18,-12.36 -63.9,-12.71 -65.48,0 -130.96,-0.18 -196.45,0 14.3,17.3 29.3,34.06 44.13,51.01 -13.95,27.18 -22.42,56.83 -33.18,85.25 -8.12,23.83 -19.77,47.48 -18.54,73.07 0.53,19.07 12.89,36.72 30.01,44.48 23.65,11.65 50.83,9.89 76.43,10.07 2.64,3.17 5.47,6.35 8.29,9.7 -7.06,16.95 -13.41,34.42 -18.88,52.07 -3.36,11.3 -4.95,24.18 0.88,35.13 7.23,13.06 22.41,20.12 37.06,20.65 340.13,0 680.26,0 1020.39,0 1.94,6.71 4.06,13.59 6.18,20.3 -314.89,0 -629.78,-0.18 -944.84,0 11.82,14.12 24,27.71 36,41.65 -7.41,20.83 -15,41.31 -22.41,62.13 314,0 628.01,0 942.02,0 -23.83,29.13 -43.95,63.19 -49.07,101.14 24.71,-11.12 50.13,-20.3 76.25,-27.36 33.71,-8.29 68.48,-12.88 103.43,-14.29 77.84,-1.24 152.86,24.71 223.28,55.77 50.48,20.83 98.67,46.42 146.15,73.25 23.83,13.06 46.42,28.77 71.49,39.19 47.12,21.18 101.49,30.89 151.79,16.06 -6.53,-8.47 -12.35,-17.47 -17.29,-26.83 -22.6,-42.71 -33.89,-90.55 -38.48,-138.38 -1.42,-5.3 3.35,-8.83 5.29,-13.24 5.47,-12.18 4.24,-26.3 2.3,-39.18 16.41,-17.83 33.18,-35.48 45.71,-56.31 -3.35,-6.71 -6.53,-13.59 -9.18,-20.65 18.01,3 36.01,6 54.01,8.82 -7.59,-55.24 -16.59,-110.66 -32.3,-164.15 6.71,-6.88 14.3,-13.06 21.01,-19.94 0.53,-6.89 -1.59,-13.77 -2.65,-20.48 -10.24,-52.6 -28.59,-103.61 -54.01,-150.91 21.18,-22.77 31.24,-54.19 31.59,-84.9 0.53,-22.95 -4.59,-46.07 -16.24,-65.84 -14.47,-25.41 -35.3,-47.65 -61.24,-61.42 -0.18,18.53 -5.47,36.89 -13.77,53.3 -8.47,16.42 -20.48,32.83 -38.3,39.72 -3.53,-2.65 -6.89,-5.12 -10.42,-7.77 -3.17,-16.59 -9.88,-32.12 -17.47,-47.13 -5.65,-11.29 -4.06,-24.71 0,-36.18 7.59,-21.01 21,-39.36 35.83,-55.78 -71.49,-32.12 -162.39,-4.76 -207.75,58.07z"/>
   <path class="fil2" d="M1209.96 573.63c41.12,0 82.25,-0.18 123.2,0 -5.47,55.07 -10.77,109.96 -16.24,165.03 -21.89,0 -43.77,0 -65.66,0 1.94,-13.59 4.23,-27 6,-40.59 -13.06,0 -26.12,-0.18 -39.01,0 -7.24,13.59 -14.65,27 -21.89,40.59 -21.53,0 -43.06,0 -64.77,0 30.36,-50.48 60.71,-100.78 90.9,-151.26 -4.24,-4.41 -8.3,-9.18 -12.53,-13.77zm529.16 398.91c6.36,-3.71 12.71,-7.42 19.24,-10.95 13.42,6.36 26.66,13.42 38.66,22.07 -19.24,-4.24 -38.48,-8.3 -57.9,-11.12zm35.66 -233.88c16.24,8.48 32.83,16.6 47.83,27.54 -3.71,2.29 -7.24,4.59 -10.77,6.71 1.77,5.82 3.89,11.65 5.65,17.47 -21.18,-9.88 -34.59,-30.53 -42.71,-51.72zm-14.83 -154.79c1.41,-1.24 2.83,-4.59 5.3,-2.83 34.95,15.54 69.72,32.83 99.9,56.66 26.3,38.48 45.54,81.73 56.48,127.09 -10.59,8.47 -21.18,16.77 -32.12,24.71 16.77,42.71 29.12,87.37 34.77,132.91 -24.36,-6.18 -48.72,-12.71 -72.19,-21.54 -0.88,-0.52 -2.47,-1.23 -3.36,-1.76 12.71,-5.47 26.48,-10.41 36.54,-20.12 -0.17,-30.71 -4.41,-61.25 -8.47,-91.61 1.76,-22.59 -1.94,-45.36 -7.94,-67.07 -3.18,3.88 -6.36,7.76 -9.54,11.82 -13.41,-26.82 -32.12,-51.01 -53.48,-72.01 -5.47,-4.77 -10.59,-10.42 -16.76,-14.3 -31.78,0 -64.25,7.59 -91.79,23.65 5.47,-20.82 16.95,-39.36 28.6,-57.36 12,-8.3 24.53,-16.59 34.06,-28.24zm-370.84 -10.42c27.36,0.18 54.89,0 82.25,0 -15.35,43.6 -30.71,87.02 -45.89,130.62 29.65,0 59.31,0 88.96,0 -4.24,11.47 -8.3,23.12 -12.18,34.59 -51.19,0 -102.37,0 -153.38,0 17.47,-50.48 35.3,-100.78 52.77,-151.26 -4.23,-4.59 -8.29,-9.36 -12.53,-13.95zm-640.37 0c67.25,0.18 134.32,0 201.57,0.18 -6.35,17.83 -12.71,35.48 -18.88,53.31 -15.18,0.17 -30.36,0.17 -45.54,0 2.12,-6.18 4.41,-12.54 6.53,-18.89 -7.59,0.18 -15.18,0 -22.59,0.18 -15.54,43.59 -30.89,87.01 -46.43,130.43 -21.53,0 -42.89,0 -64.42,0 15.36,-43.59 30.89,-87.01 46.42,-130.61 -7.76,0 -15.53,0 -23.3,0.18 -2.12,6.17 -4.41,12.53 -6.7,18.88 -15.36,-0.17 -30.54,0 -45.72,-0.17 6.35,-17.83 12.71,-35.66 19.06,-53.49zm-236.16 0c25.94,0.18 51.89,0 77.84,0 10.23,33.36 20.47,66.55 30.53,99.91 11.3,-33.19 22.42,-66.37 33.54,-99.73 19.24,-0.35 38.48,0.18 57.89,-0.18 -19.59,55.07 -39.18,110.14 -58.77,165.21 -20.3,0 -40.6,0 -60.72,0 -10.77,-31.77 -21.01,-63.54 -32.13,-94.96 -10.76,31.6 -21.53,63.19 -32.12,94.96 -18.89,0 -37.6,-0.17 -56.48,0 17.47,-50.3 35.12,-100.6 52.77,-150.91 -4.06,-4.76 -8.29,-9.53 -12.35,-14.3zm-190.1 0c55.95,0.18 111.9,0 167.86,0 -6.36,17.83 -12.54,35.84 -19.07,53.66 -18,-0.17 -36,0 -54.01,-0.17 2.12,-6.18 4.42,-12.54 6.53,-18.89 -10.94,0 -21.88,0 -32.83,0.18 -3.7,10.41 -7.59,20.82 -11.12,31.24 16.24,0 32.48,0 48.72,0 -3.53,9.88 -6.71,19.77 -10.42,29.65 -2.29,1.77 -5.82,0.35 -8.47,0.88 -13.41,-0.17 -27,0 -40.42,-0.17 -4.41,11.29 -8.29,22.77 -12.35,34.24 29.12,0 58.07,0 87.02,0 -4.07,11.47 -8.12,23.12 -12.36,34.59 -50.13,0 -100.26,0 -150.21,0 17.65,-50.48 35.83,-100.78 53.48,-151.26 -4.23,-4.59 -8.29,-9.18 -12.35,-13.95zm-205.81 -33.18c44.66,0 89.49,0 134.32,0 12.89,0.53 26.48,1.24 37.95,7.77 7.94,4.59 11.83,14.29 10.06,23.12 -2.29,12.88 -7.23,25.06 -11.47,37.42 -21.71,0 -43.6,0 -65.48,0 3.17,-9 6.35,-17.83 9.53,-26.83 -13.95,0 -28.07,0 -42.01,0 -16.59,37.42 -30.18,76.07 -41.48,115.44 35.83,0 71.84,-0.18 107.84,0.17 -4.94,13.77 -9.88,27.54 -14.64,41.3 -43.6,-0.17 -87.2,0.18 -130.62,0 -11.65,-0.88 -24.53,-2.29 -34.07,-9.88 -5.47,-4.59 -7.41,-12.35 -6.35,-19.24 1.59,-13.41 6,-26.12 10.94,-38.65 8.83,-24.36 17.48,-48.9 26.66,-73.08 5.64,-14.47 11.47,-29.83 23.47,-40.59 -4.94,-5.48 -9.88,-11.12 -14.65,-16.95zm1761.01 -75.54c1.59,2.82 3.18,5.47 4.94,7.94 -0.88,8.47 3.36,16.41 3.71,24.89 1.94,20.82 -6.88,41.3 -21.18,56.13 -7.59,-9.36 -15.36,-18.36 -23.65,-27.01 19.41,-15 31.59,-37.95 36.18,-61.95zm-143.85 -78.37c3.18,-2.12 6.71,-3 10.41,-3.36 -11.29,20.48 -18.35,44.84 -12.71,68.14 2.3,11.47 9.71,20.82 13.77,31.59 4.77,11.83 7.41,25.42 2.65,37.6 -7.94,18.18 -26.65,31.59 -46.78,31.24 -13.94,-26.83 -23.65,-57.54 -19.24,-88.08 4.24,-31.77 24.01,-61.07 51.9,-77.13zm-761.1 187.09c42.36,0.18 84.55,0 126.91,0.18 12,0.71 25.06,1.06 35.12,8.65 8.3,6.18 7.42,18.18 4.42,26.83 -4.06,11.12 -7.24,23.3 -15.89,31.95 -7.59,7.23 -17.65,10.76 -27.53,13.41 6.7,4.06 16.06,5.47 19.94,13.06 3.53,7.42 0.35,15.54 -2.29,22.6 -5.65,16.06 -11.3,32.3 -16.77,48.53 -21.36,0 -42.72,0 -63.9,0 7.77,-22.23 15.71,-44.3 23.65,-66.36 -12,0 -24,0 -36,-0.18 -8.12,22.24 -15.89,44.48 -23.83,66.54 -21.71,0 -43.42,0 -64.96,0 17.66,-50.3 35.66,-100.6 53.66,-150.91 -4.23,-4.76 -8.47,-9.53 -12.53,-14.3zm70.25 34.78l0 0zm0 0c-3.88,10.94 -7.94,22.06 -11.83,33.18 12.01,0 23.83,-0.18 35.84,0 4.05,-11.12 7.94,-22.24 11.82,-33.36 -12,0.18 -23.83,0 -35.83,0.18zm190.8 61.24l0 0zm0 0c9.54,0 19.07,0 28.42,0 3.53,-22.41 6.71,-45.01 10.24,-67.42 -13.06,22.41 -25.77,45.01 -38.66,67.42z"/>
  </g>
 </g>
</svg>
