<?xml version="1.0" encoding="UTF-8"?>
<!DOCTYPE svg PUBLIC "-//W3C//DTD SVG 1.1//EN" "http://www.w3.org/Graphics/SVG/1.1/DTD/svg11.dtd">
<!-- Creator: CorelDRAW -->
<svg xmlns="http://www.w3.org/2000/svg" xml:space="preserve" width="2000px" height="1600px" version="1.1" style="shape-rendering:geometricPrecision; text-rendering:geometricPrecision; image-rendering:optimizeQuality; fill-rule:evenodd; clip-rule:evenodd"
viewBox="0 0 2000 1600"
 xmlns:xlink="http://www.w3.org/1999/xlink">
 <defs>
  <style type="text/css">
   <![CDATA[
    .fil1 {fill:#050607;fill-rule:nonzero}
    .fil0 {fill:#4E2583;fill-rule:nonzero}
    .fil2 {fill:#949CA0;fill-rule:nonzero}
    .fil3 {fill:#FEFEFE;fill-rule:nonzero}
   ]]>
  </style>
 </defs>
 <g id="Capa_x0020_1">
  <metadata id="CorelCorpID_0Corel-Layer"/>
  <g id="Central_x0020_Arkansas_x0020_Bears.cdr">
   <path class="fil0" d="M1267.94 799.11c122.31,22.76 241.95,60.6 354.61,113.48 -6.55,16.58 -12.67,33.34 -19.2,49.93 -1.95,4.82 -3.7,9.88 -3.4,15.18 0.1,86.1 0.05,172.17 0.03,258.24 -30.38,-12.93 -60.91,-25.53 -92.04,-36.52 -0.03,-31.88 -0.03,-63.77 0,-95.65 -47.06,-16.96 -95.04,-31.23 -143.49,-43.63 0,31.9 0,63.8 0,95.7 -31.95,-7.88 -64.13,-14.91 -96.51,-20.78 0,-112 -0.03,-223.97 0,-335.95zm-628.7 21.56c31.77,-8.61 64.08,-15.06 96.35,-21.46 0.72,111.95 0,223.9 0.36,335.85 -114.31,21.03 -226.18,55.06 -332.77,101.41 0,-88.81 -0.03,-177.6 0,-266.41 0.25,-5.28 -2.14,-10.08 -4.04,-14.83 -6.07,-14.15 -11.61,-28.52 -17.73,-42.67 37.26,-17.37 75.28,-33.07 113.83,-47.29 0,95.44 0.02,190.88 -0.03,286.32 47.34,-17.09 95.39,-32.22 144.18,-44.62 -0.15,-95.44 0.15,-190.85 -0.15,-286.3zm190.5 -35.6c114.21,-13.46 230.02,-13.39 344.23,-0.13 0,41.19 0,82.36 0,123.56 -32.71,-3.92 -65.58,-6.3 -98.44,-8.26 0.08,-24.53 -0.08,-49.06 0.08,-73.57 -49.04,-2.82 -98.21,-2.39 -147.25,-0.18 -0.03,78.88 -0.38,157.79 0.17,236.65 48.97,-2.41 98.04,-2.01 147,-0.2 0.2,-21.26 -0.33,-42.54 0.31,-63.8 32.73,2.44 65.55,4.47 98.13,8.61 0,37.79 0,75.55 0,113.34 -114.24,-13.18 -229.94,-13.1 -344.18,0.05 0.03,-112.02 0.15,-224.05 -0.05,-336.07zm539.94 -475.89c32.15,23.57 58.89,53.94 81.62,86.55 7.01,10.44 14.15,20.91 19.58,32.31 -11.45,-4.52 -22.85,-9.25 -34.79,-12.27 30.91,54.61 75.4,101.82 128.51,135.34 -15.04,25.83 -17.5,57.07 -15.04,86.27 12.42,-20.69 27.58,-40.71 48.84,-53 27.07,-16.43 62.5,-16.51 90.49,-2.28 19.86,10.08 34.41,28.09 44.5,47.56 26.03,-1.06 53.68,7.24 71.01,27.54 18.15,20.9 23.41,49.44 24.48,76.29 19.53,11.17 35.1,29.58 41.5,51.3 5.08,16.18 5.31,33.5 2.66,50.16 13.67,13.05 24.08,29.94 27.08,48.81 2.84,14.53 0.48,29.46 -3.66,43.5 16,31.06 4.93,68.83 -14.6,95.6 2.46,-18.9 5.53,-39.11 -2.42,-57.12 -3.35,-8.28 -10.38,-14.04 -17.55,-18.92 7.09,-20.29 11.97,-42.56 6.61,-63.85 -3.41,-13.15 -12.8,-23.97 -24.84,-30.04 2.95,-23.39 3.73,-49.5 -9.98,-69.89 -7.47,-11.66 -21.16,-16.72 -34.29,-18.47 2.77,-24.63 0.84,-52.14 -15.03,-72.3 -16.46,-20.57 -47.7,-26.19 -70.33,-12.67 -4.34,-21.19 -12.69,-43.18 -30.27,-56.87 -17.98,-13.94 -44.57,-13.84 -63.11,-1.01 -25.53,17.6 -37.51,54.4 -23.7,82.86 6.12,13.85 6.05,29.31 4.98,44.12 -20.8,6.98 -38.86,20.42 -52.16,37.79 -0.36,-27.84 5.53,-55.59 16.71,-81.09 -32.51,13.84 -55.44,43.55 -66.8,76.34 -13.38,-4.55 -27.3,-8.68 -38.78,-17.29 -17.8,-12.98 -30.09,-31.8 -40.68,-50.8 -15.04,-26.06 -38.5,-49.47 -68.6,-56.51 22.43,29.92 34.74,66.14 41.4,102.61 -104.41,-30.07 -212.8,-44.22 -321.1,-50.42 14.99,-6.5 31.42,-12.03 42.11,-25.19 7.47,-8.43 10.52,-19.53 11.79,-30.5 20.67,-3.56 41.04,-8.56 61.23,-14.17 -2.03,5.84 -3.86,11.76 -5.28,17.78 43.43,-11.36 84.64,-33.83 113.7,-68.58 45.64,-54.19 61.74,-127.92 58.28,-197.41 6.73,5.11 13.26,10.52 20.07,15.55 9.19,-32.08 3.12,-65.83 -4.14,-97.63zm-813.11 76.9c21.28,-28.8 45.72,-55.64 74.67,-76.92 -6.99,31.77 -12.93,65.32 -4.12,97.34 7.24,-4.54 13.67,-10.26 20.25,-15.69 -3.23,63.64 9.8,130.18 46.75,183.06 29.33,42.44 75.81,71.44 125.72,83.07 -1.99,-5.76 -3.94,-11.5 -5.9,-17.24 20.42,5.3 40.89,10.43 61.67,14.14 0.53,13.28 6.07,26.21 16.1,35.08 10.67,10.31 24.96,15.18 38.5,20.41 -108.67,6.02 -217.47,20.3 -322.26,50.44 6.7,-36.54 19.2,-72.63 41.37,-102.78 -29.59,7.34 -52.9,29.97 -67.93,55.67 -10.72,18.97 -22.58,38.15 -40.44,51.2 -11.68,8.97 -25.93,13.49 -39.84,17.63 -11.1,-32.87 -34.32,-62.28 -66.62,-76.22 11.58,25.63 16.79,53.66 17.17,81.7 -13.33,-17.39 -31.29,-31.39 -52.37,-37.94 -1.17,-15.29 -1.32,-31.26 5.18,-45.49 16.2,-34.43 -5.43,-81.52 -42.94,-89.98 -17.25,-4.24 -36.4,0.89 -49.07,13.34 -14.3,14.09 -21.67,33.62 -25.4,53 -27.2,-17.5 -66.67,-3.76 -78.63,25.83 -8.07,18.41 -8.91,39.08 -6.91,58.84 -12.64,1.81 -25.93,6.4 -33.42,17.5 -14.37,20.42 -13.89,47.04 -10.64,70.76 -9.68,5.35 -18.56,12.97 -22.55,23.59 -9.3,22.81 -3.23,48.13 4.21,70.53 -6.95,4.52 -13.74,9.98 -17.04,17.85 -8.78,18.62 -5.58,39.77 -2.36,59.3 -19.43,-27.38 -31.41,-65.37 -15.03,-96.99 -4.63,-14.93 -6.84,-30.96 -3.23,-46.35 3.71,-17.47 13.44,-33.24 26.16,-45.61 -2.41,-20.44 -1.85,-41.93 7.01,-60.88 7.69,-17.34 21.59,-31.31 37.69,-41.04 0.78,-27.15 6.58,-55.92 25.06,-76.85 17.33,-19.58 44.42,-27.83 70.02,-26.61 11.13,-20.75 27.08,-40.08 49.04,-49.78 28.2,-12.4 62.74,-11.15 88.77,5.94 20.49,12.47 34.84,32.31 46.85,52.6 0.82,-29.64 0.05,-61.03 -15.39,-87.34 52.91,-33.88 97.45,-80.84 128.46,-135.47 -12.01,3 -23.42,7.82 -34.92,12.24 7.26,-14.85 16.84,-28.39 26.36,-41.88zm740.07 -150.24c45.41,105.54 17.47,239.26 -68.8,315.91 -27.92,24.66 -62.17,42.56 -99.03,48.94 35.84,-54.17 49.2,-120 50.9,-184.08 1.07,-42.18 -7.98,-84.85 -28.98,-121.68 20.62,5.62 39.21,17.17 54.43,32.05 11.93,-19.93 17.65,-43.04 18.03,-66.2 27.05,30.07 42.06,69.35 47.59,109.05 11.53,-16.94 16.94,-37.13 20.88,-56.99 4.55,-25.37 5.99,-51.28 4.98,-77zm-551.47 287.08c-67.51,-83.15 -82.54,-206.32 -34.36,-302.4 -2.64,38.38 5.89,78.1 28.09,109.94 0.81,-29.81 16.28,-57.82 39.59,-76.03 -3.84,21.05 2.16,42.15 10.29,61.43 8.88,-6.35 16.58,-14.3 25.95,-20.04 13.77,-9.06 29.28,-15.24 45.38,-18.69 -8.05,-9.65 -13.2,-21.36 -13.79,-34.01 6.15,7.65 12.5,15.9 22.1,19.31 18.06,7.39 38.17,1.17 54.2,-8.23 26.59,-15.98 57.42,-27.76 88.91,-24.43 23.06,2.18 44.72,11.6 64.59,23.13 16.45,9.88 37.02,17.12 55.87,9.81 9.5,-3.18 16.18,-10.95 21.99,-18.72 0.51,15.21 -7.67,29.89 -20.11,38.4 -10.75,7.97 -23.65,12.14 -36.5,15.24 14.12,10.38 24.66,25.34 29.39,42.28 8.76,30.25 3.93,62.76 -5.9,92.14 6.3,-37.2 -3.78,-77.48 -29.1,-105.85 -9.02,-10.29 -20.29,-18.24 -32.03,-25.07 5.24,-0.94 10.44,-1.93 15.68,-2.97 -13.82,-9.91 -30.86,-13.39 -47.45,-15.39 -19.15,-2.08 -38.55,-2.06 -57.67,0.2 -16,2.06 -32.49,5.49 -45.79,15.16 5.18,1.02 10.41,2.01 15.62,2.95 -31.55,16.94 -55.67,47.57 -63.17,82.74 -2.08,11 -3.91,22.76 0.59,33.45 -0.36,0.15 -1.04,0.48 -1.37,0.64 -0.69,-0.16 -2.06,-0.41 -2.75,-0.56 1.37,-9.81 -2.08,-19.31 -2.84,-28.98 -2.39,-23.65 0.28,-48.86 13.1,-69.36 5.11,-8.61 12.73,-15.24 20.14,-21.79 -4.75,-0.74 -9.7,-2.57 -14.3,-0.3 -26.89,8.35 -48.53,30.09 -58.26,56.33 -13.56,35.02 -11.02,73.47 -6.7,110.01 5.84,48.44 20.57,96.28 47.16,137.48 -50.08,-9.02 -94.73,-38.66 -126.55,-77.82zm-29.99 -423.08c8.38,-20.42 30.57,-33.63 52.57,-31.17 29.91,2.97 56.51,19.61 79.36,38.2 50.95,-14.15 104.26,-15.44 156.78,-16.1 50.1,1.17 101.15,1.98 149.56,16.38 23.52,-18.74 50.56,-36.17 81.32,-38.55 21.92,-1.93 43.61,11.83 51.63,32.23 14.5,36.44 -0.18,82.64 -33.57,103.44 7.11,-17.04 12.75,-36.63 5.56,-54.63 -4.14,-11.84 -14.02,-20.01 -23.72,-27.28 7.19,-2.46 14.4,-4.8 21.61,-7.21 -18.56,-5 -39.24,-6.73 -57.14,1.47 -9.09,3.89 -16.16,11.03 -22.45,18.44 8.84,6.55 19.4,13.56 21.81,25.12 2.06,10.72 -6.09,19.99 -14.4,25.5 -15.26,10.46 -33.17,15.84 -50.59,21.43 3.84,-10.44 7.55,-21 9.25,-32.05 -27.89,17.3 -56.46,35.53 -89.2,41.78 -13.13,1.9 -28.26,2.28 -39.08,-6.71 -8.03,-6.32 -11.03,-16.53 -14.15,-25.82 -2.51,12.87 -9.42,26.18 -22.42,30.93 -14.58,5.1 -30.66,2.39 -45.03,-2.03 -26.75,-8.46 -51,-23.01 -74.26,-38.4 1.24,11.17 5.05,21.74 9.04,32.15 -17.93,-5.26 -36.09,-11.25 -51.61,-21.94 -8.05,-5.54 -15.52,-14.56 -13.38,-25.02 2.41,-11.15 12.14,-18.41 21.25,-24.15 -15.89,-26.24 -52.03,-29.67 -78.7,-20.29 7.06,2.08 14.09,4.26 21.03,6.78 -9.04,7.18 -18.59,14.7 -22.88,25.85 -7.95,18.16 -2.39,38.4 4.67,55.87 -33.53,-21.02 -48.05,-67.81 -32.86,-104.22zm649.27 769.37l0 0zm0 0c0,46.4 -0.03,92.77 0,139.17 48.5,12.55 96.38,27.43 143.49,44.45 -0.15,-46.76 0.25,-93.51 -0.2,-140.24 -47.14,-16.44 -94.89,-31.11 -143.29,-43.38z"/>
   <path class="fil1" d="M671.01 1259.68c10.03,-2.54 20.29,-6.73 30.83,-4.59 9.15,1.85 16.18,10.59 16.1,19.96 -0.1,13.43 2.62,28.27 -5.3,40.15 8.66,10.87 5.2,25.78 4.39,38.5 -1.52,14.68 -14.53,25.22 -28.24,28.27 -37.72,9.83 -75,21.36 -111.65,34.62 -0.07,-42.34 0.15,-84.7 -0.12,-127.04 30.78,-11.55 62.32,-21.05 93.99,-29.87zm637.66 0.21c7.65,-4.55 17.12,-2.95 25.3,-0.79 29.03,8.03 57.85,16.86 86.3,26.82 0.07,10.77 0.07,21.56 0,32.33 -28.83,-10.19 -58.03,-19.3 -87.54,-27.3 -0.03,5.08 -0.06,10.21 -0.06,15.34 22.51,6.14 44.88,12.82 67.05,20.11 15.27,4.83 28.55,18.36 29.84,34.77 0.49,10.13 0.71,20.34 -0.25,30.45 -0.61,6.68 -5.36,12.57 -11.66,14.81 -7.52,2.84 -15.57,0.45 -22.85,-1.86 -31.14,-10.41 -62.79,-19.17 -94.58,-27.27 0.12,-10.59 0.07,-21.18 0.1,-31.77 32.15,7.61 63.9,16.86 95.34,26.99 -0.1,-5.18 -0.23,-10.31 -0.38,-15.46 -23.04,-7.34 -46.2,-14.2 -69.49,-20.65 -13.38,-3.66 -25.27,-14.55 -27.43,-28.62 -1.11,-10.01 -0.73,-20.14 -0.43,-30.18 0.23,-7.23 4.19,-14.42 10.74,-17.72zm-548.06 -21.16c38.63,-7.62 77.66,-13.33 116.85,-17.29 0.03,10.56 0,21.13 0,31.69 -27.2,3.1 -54.47,6.07 -81.4,11.23 0.08,5.13 0.16,10.28 0.23,15.44 26.9,-4.62 53.97,-8.18 81.15,-10.82 0.05,10.56 0.05,21.13 0.02,31.72 -27.22,2.69 -54.32,6.35 -81.29,10.84 0.02,5.19 0.02,10.39 0.07,15.62 26.97,-4.36 54.05,-8.15 81.25,-10.71 -0.03,10.56 0.02,21.15 -0.11,31.72 -39.06,3.91 -77.94,9.67 -116.44,17.34 -0.74,-42.26 -0.08,-84.52 -0.33,-126.78zm629.23 -336.68c31.39,8.63 62.5,18.31 93.34,28.82 0.1,28.83 -0.18,57.65 0.12,86.48 -30.85,-10.01 -61.76,-19.99 -93.2,-28.04 -0.59,-29.08 -0.11,-58.18 -0.26,-87.26zm-683.2 -858.9c20.09,-13.26 45.51,-16.38 68.88,-12.11 29.56,4.97 57.09,18.48 81.47,35.63 46.93,-6.66 94.25,-11.94 141.69,-11.43 48.61,-0.66 97.09,4.42 145.12,11.45 27.88,-19.2 59.73,-34.49 93.89,-37.15 25.27,-2.06 52.11,5.84 69.99,24.35 15.45,15.34 22.84,36.93 25.05,58.19 2.23,26.36 -0.67,53.08 -7.83,78.5 -0.61,3.86 -3.53,8.23 -0.66,11.86 8.46,13.97 15.93,28.54 22.99,43.27 76.9,33.02 139.22,92.75 188.44,159.34 14.22,19.53 27.61,39.75 39.01,61.08 -10.74,-1.72 -21.38,-3.93 -32.1,-5.58 21.13,24.73 48.63,42.77 75.63,60.47 3.91,2.21 7.77,5.86 12.67,5 33.12,-3.33 67.76,4.83 94.96,24.33 13.39,9.42 24.69,21.46 34.67,34.39 33.78,4.9 66.03,22.65 85.94,50.71 10.57,14.79 18.01,31.73 22.35,49.35 1.78,7.14 2.69,14.6 6.15,21.23 4.62,9.98 13.84,16.59 19.86,25.6 18.59,25.05 27.07,56.51 26.61,87.47 20.91,27.63 30.68,63.69 24.94,98.03 -1.77,7.54 1.3,14.88 2.62,22.25 5.36,31.11 -2.19,63.24 -16.99,90.72 -21.31,42.18 -56.48,75.43 -94.76,102.27 -5.23,-14.91 -9.27,-30.22 -14.55,-45.08 -2.87,-1.02 -5.92,0.53 -8.76,0.81 -22.48,5.01 -46.2,5.24 -68.5,-0.78 -5.13,-1.43 -10.87,-2.49 -14.27,-6.99 3.73,-5.41 7.21,-10.94 10.52,-16.61 -25.78,-8.25 -50.34,-19.93 -73.71,-33.55 -0.05,41.78 -0.02,83.58 0,125.39 65.07,0.02 130.16,-0.05 195.23,0.05 -36.62,99.07 -73.52,198.07 -110.35,297.09 -69.84,0.15 -139.68,-0.33 -209.5,0.25 0.36,32.05 0.05,64.16 0.15,96.23 -87.46,-45.66 -182.04,-76.72 -278.17,-98.18 -130.41,-28.85 -265.55,-36.39 -398.3,-21.49 -104.4,11.71 -207.36,36.42 -305.57,73.75 -34.92,13.47 -69.41,28.2 -102.4,45.92 0.02,-32.12 -0.08,-64.25 0.05,-96.38 -69.82,-0.23 -139.63,-0.05 -209.45,-0.1 -36.77,-99.02 -73.7,-197.99 -110.3,-297.09 65.5,-0.1 131,-0.03 196.52,-0.05 0,-42.34 0,-84.7 0,-127.04 -24.12,14.45 -49.67,26.72 -76.52,35.25 3.71,5.9 7.37,11.86 10.77,17.96 -28.39,13.59 -61.66,11.86 -91.61,4.6 -4.82,15.36 -9.7,30.75 -14.57,46.12 -45.34,-31.62 -86.45,-73.22 -105.3,-126.25 -9.78,-26.19 -10.72,-55.21 -3.27,-82.11 -5.39,-31.85 -0.79,-65.88 16.65,-93.43 3.21,-5.72 8.82,-10.82 7.98,-17.91 -0.08,-34.56 13.26,-69.21 37.31,-94.15 7.36,-7.61 12.14,-17.6 13.66,-28.08 6.22,-30.53 21.97,-59.71 46.68,-79.14 18.01,-14.4 40.15,-23.01 62.81,-26.59 9.98,-12.65 20.87,-24.71 34.13,-34.01 28.45,-20.42 64.86,-28.77 99.45,-24.38 30.35,-18.97 61.01,-38.78 84.65,-66.08 -10.72,1.9 -21.41,3.99 -32.1,5.97 10.06,-20.29 23.16,-38.94 36.09,-57.48 49.37,-67.91 112.28,-128.63 189.94,-162.74 7.67,-17.57 16.38,-34.67 25.98,-51.25 -9.72,-31.7 -15.01,-65.93 -7.72,-98.72 4.75,-21.28 16.99,-41.32 35.76,-52.95zm8.54 56.69l0 0zm0 0c-15.19,36.41 -0.67,83.2 32.86,104.22 -7.06,-17.47 -12.62,-37.71 -4.67,-55.87 4.29,-11.15 13.84,-18.67 22.88,-25.85 -6.94,-2.52 -13.97,-4.7 -21.03,-6.78 26.67,-9.38 62.81,-5.95 78.7,20.29 -9.11,5.74 -18.84,13 -21.25,24.15 -2.14,10.46 5.33,19.48 13.38,25.02 15.52,10.69 33.68,16.68 51.61,21.94 -3.99,-10.41 -7.8,-20.98 -9.04,-32.15 23.26,15.39 47.51,29.94 74.26,38.4 14.37,4.42 30.45,7.13 45.03,2.03 13,-4.75 19.91,-18.06 22.42,-30.93 3.12,9.29 6.12,19.5 14.15,25.82 10.82,8.99 25.95,8.61 39.08,6.71 32.74,-6.25 61.31,-24.48 89.2,-41.78 -1.7,11.05 -5.41,21.61 -9.25,32.05 17.42,-5.59 35.33,-10.97 50.59,-21.43 8.31,-5.51 16.46,-14.78 14.4,-25.5 -2.41,-11.56 -12.97,-18.57 -21.81,-25.12 6.29,-7.41 13.36,-14.55 22.45,-18.44 17.9,-8.2 38.58,-6.47 57.14,-1.47 -7.21,2.41 -14.42,4.75 -21.61,7.21 9.7,7.27 19.58,15.44 23.72,27.28 7.19,18 1.55,37.59 -5.56,54.63 33.39,-20.8 48.07,-67 33.57,-103.44 -8.02,-20.4 -29.71,-34.16 -51.63,-32.23 -30.76,2.38 -57.8,19.81 -81.32,38.55 -48.41,-14.4 -99.46,-15.21 -149.56,-16.38 -52.52,0.66 -105.83,1.95 -156.78,16.1 -22.85,-18.59 -49.45,-35.23 -79.36,-38.2 -22,-2.46 -44.19,10.75 -52.57,31.17zm29.99 423.08l0 0zm0 0c31.82,39.16 76.47,68.8 126.55,77.82 -26.59,-41.2 -41.32,-89.04 -47.16,-137.48 -4.32,-36.54 -6.86,-74.99 6.7,-110.01 9.73,-26.24 31.37,-47.98 58.26,-56.33 4.6,-2.27 9.55,-0.44 14.3,0.3 -7.41,6.55 -15.03,13.18 -20.14,21.79 -12.82,20.5 -15.49,45.71 -13.1,69.36 0.76,9.67 4.21,19.17 2.84,28.98 0.69,0.15 2.06,0.4 2.75,0.56l-0.79 0.35c5.1,14.6 9.27,29.56 15.9,43.61 1.55,-13.82 5.1,-28.35 15.13,-38.56 9.58,-10.03 24.59,-12.97 37.87,-10.46 10.57,1.78 21.71,5.94 32.28,1.88 13.1,-4.39 18.08,-20.32 16.15,-32.86 -3.78,-14.17 -21.92,-19.58 -34.16,-13.23 -6.22,3.15 -6.29,10.84 -7.26,16.78 -10.06,-1.98 -21.03,-4.34 -28.32,-12.11 -9.72,-10.85 -5.48,-28.75 5.16,-37.41 14.02,-11.66 32.89,-14.53 50.49,-16.36 22.75,-1.67 46.02,-1.44 68.31,3.94 12.58,3.1 25.45,8.91 32.56,20.27 5.36,8.96 6.07,22.09 -1.8,29.86 -7.36,7.72 -18.29,10.16 -28.45,11.61 -0.48,-5.59 -0.25,-12.57 -5.68,-15.98 -12.68,-7.61 -32.87,-1.37 -35.69,14.25 -0.63,9.09 1.83,18.95 8.03,25.83 8.25,8.15 20.98,8.26 31.54,5.44 13.44,-3.56 28.85,-4.57 40.97,3.45 14.7,9.45 20.09,27.76 21.2,44.32 4.22,-9.98 8.59,-19.96 11.25,-30.48 9.83,-29.38 14.66,-61.89 5.9,-92.14 -4.73,-16.94 -15.27,-31.9 -29.39,-42.28 12.85,-3.1 25.75,-7.27 36.5,-15.24 12.44,-8.51 20.62,-23.19 20.11,-38.4 -5.81,7.77 -12.49,15.54 -21.99,18.72 -18.85,7.31 -39.42,0.07 -55.87,-9.81 -19.87,-11.53 -41.53,-20.95 -64.59,-23.13 -31.49,-3.33 -62.32,8.45 -88.91,24.43 -16.03,9.4 -36.14,15.62 -54.2,8.23 -9.6,-3.41 -15.95,-11.66 -22.1,-19.31 0.59,12.65 5.74,24.36 13.79,34.01 -16.1,3.45 -31.61,9.63 -45.38,18.69 -9.37,5.74 -17.07,13.69 -25.95,20.04 -8.13,-19.28 -14.13,-40.38 -10.29,-61.43 -23.31,18.21 -38.78,46.22 -39.59,76.03 -22.2,-31.84 -30.73,-71.56 -28.09,-109.94 -48.18,96.08 -33.15,219.25 34.36,302.4zm132.04 -297.78l0 0zm0 0c-4.55,10.04 -0.94,22.23 9.09,27.31 -4.17,-7.27 2.16,-17.76 10.72,-14.81 6.45,1.78 6.9,9.07 5.74,14.53 4.54,-3.92 8.56,-8.49 10.84,-14.12 -12.42,-3.46 -24.58,-7.7 -36.39,-12.91zm210.51 13.08l0 0zm0 0c2.08,7.55 7.95,12.65 14.99,15.52 -1.98,-5.16 -2.65,-12.01 3.22,-14.98 7.26,-4.73 14.05,3.73 13.92,10.71 6.04,-6.5 7.49,-15.72 3.83,-23.79 -11.7,4.97 -23.62,9.47 -35.96,12.54zm208.92 -2.38l0 0zm0 0c1.01,25.72 -0.43,51.63 -4.98,77 -3.94,19.86 -9.35,40.05 -20.88,56.99 -5.53,-39.7 -20.54,-78.98 -47.59,-109.05 -0.38,23.16 -6.1,46.27 -18.03,66.2 -15.22,-14.88 -33.81,-26.43 -54.43,-32.05 21,36.83 30.05,79.5 28.98,121.68 -1.7,64.08 -15.06,129.91 -50.9,184.08 36.86,-6.38 71.11,-24.28 99.03,-48.94 86.27,-76.65 114.21,-210.37 68.8,-315.91zm-740.07 150.24l0 0zm0 0c-9.52,13.49 -19.1,27.03 -26.36,41.88 11.5,-4.42 22.91,-9.24 34.92,-12.24 -31.01,54.63 -75.55,101.59 -128.46,135.47 15.44,26.31 16.21,57.7 15.39,87.34 -12.01,-20.29 -26.36,-40.13 -46.85,-52.6 -26.03,-17.09 -60.57,-18.34 -88.77,-5.94 -21.96,9.7 -37.91,29.03 -49.04,49.78 -25.6,-1.22 -52.69,7.03 -70.02,26.61 -18.48,20.93 -24.28,49.7 -25.06,76.85 -16.1,9.73 -30,23.7 -37.69,41.04 -8.86,18.95 -9.42,40.44 -7.01,60.88 -12.72,12.37 -22.45,28.14 -26.16,45.61 -3.61,15.39 -1.4,31.42 3.23,46.35 -16.38,31.62 -4.4,69.61 15.03,96.99 -3.22,-19.53 -6.42,-40.68 2.36,-59.3 3.3,-7.87 10.09,-13.33 17.04,-17.85 -7.44,-22.4 -13.51,-47.72 -4.21,-70.53 3.99,-10.62 12.87,-18.24 22.55,-23.59 -3.25,-23.72 -3.73,-50.34 10.64,-70.76 7.49,-11.1 20.78,-15.69 33.42,-17.5 -2,-19.76 -1.16,-40.43 6.91,-58.84 11.96,-29.59 51.43,-43.33 78.63,-25.83 3.73,-19.38 11.1,-38.91 25.4,-53 12.67,-12.45 31.82,-17.58 49.07,-13.34 37.51,8.46 59.14,55.55 42.94,89.98 -6.5,14.23 -6.35,30.2 -5.18,45.49 21.08,6.55 39.04,20.55 52.37,37.94 -0.38,-28.04 -5.59,-56.07 -17.17,-81.7 32.3,13.94 55.52,43.35 66.62,76.22 13.91,-4.14 28.16,-8.66 39.84,-17.63 17.86,-13.05 29.72,-32.23 40.44,-51.2 15.03,-25.7 38.34,-48.33 67.93,-55.67 -22.17,30.15 -34.67,66.24 -41.37,102.78 104.79,-30.14 213.59,-44.42 322.26,-50.44 -13.54,-5.23 -27.83,-10.1 -38.5,-20.41 -10.03,-8.87 -15.57,-21.8 -16.1,-35.08 -20.78,-3.71 -41.25,-8.84 -61.67,-14.14 1.96,5.74 3.91,11.48 5.9,17.24 -49.91,-11.63 -96.39,-40.63 -125.72,-83.07 -36.95,-52.88 -49.98,-119.42 -46.75,-183.06 -6.58,5.43 -13.01,11.15 -20.25,15.69 -8.81,-32.02 -2.87,-65.57 4.12,-97.34 -28.95,21.28 -53.39,48.12 -74.67,76.92zm813.11 -76.9l0 0zm0 0c7.26,31.8 13.33,65.55 4.14,97.63 -6.81,-5.03 -13.34,-10.44 -20.07,-15.55 3.46,69.49 -12.64,143.22 -58.28,197.41 -29.06,34.75 -70.27,57.22 -113.7,68.58 1.42,-6.02 3.25,-11.94 5.28,-17.78 -20.19,5.61 -40.56,10.61 -61.23,14.17 -1.27,10.97 -4.32,22.07 -11.79,30.5 -10.69,13.16 -27.12,18.69 -42.11,25.19 108.3,6.2 216.69,20.35 321.1,50.42 -6.66,-36.47 -18.97,-72.69 -41.4,-102.61 30.1,7.04 53.56,30.45 68.6,56.51 10.59,19 22.88,37.82 40.68,50.8 11.48,8.61 25.4,12.74 38.78,17.29 11.36,-32.79 34.29,-62.5 66.8,-76.34 -11.18,25.5 -17.07,53.25 -16.71,81.09 13.3,-17.37 31.36,-30.81 52.16,-37.79 1.07,-14.81 1.14,-30.27 -4.98,-44.12 -13.81,-28.46 -1.83,-65.26 23.7,-82.86 18.54,-12.83 45.13,-12.93 63.11,1.01 17.58,13.69 25.93,35.68 30.27,56.87 22.63,-13.52 53.87,-7.9 70.33,12.67 15.87,20.16 17.8,47.67 15.03,72.3 13.13,1.75 26.82,6.81 34.29,18.47 13.71,20.39 12.93,46.5 9.98,69.89 12.04,6.07 21.43,16.89 24.84,30.04 5.36,21.29 0.48,43.56 -6.61,63.85 7.17,4.88 14.2,10.64 17.55,18.92 7.95,18.01 4.88,38.22 2.42,57.12 19.53,-26.77 30.6,-64.54 14.6,-95.6 4.14,-14.04 6.5,-28.97 3.66,-43.5 -3,-18.87 -13.41,-35.76 -27.08,-48.81 2.65,-16.66 2.42,-33.98 -2.66,-50.16 -6.4,-21.72 -21.97,-40.13 -41.5,-51.3 -1.07,-26.85 -6.33,-55.39 -24.48,-76.29 -17.33,-20.3 -44.98,-28.6 -71.01,-27.54 -10.09,-19.47 -24.64,-37.48 -44.5,-47.56 -27.99,-14.23 -63.42,-14.15 -90.49,2.28 -21.26,12.29 -36.42,32.31 -48.84,53 -2.46,-29.2 0,-60.44 15.04,-86.27 -53.11,-33.52 -97.6,-80.73 -128.51,-135.34 11.94,3.02 23.34,7.75 34.79,12.27 -5.43,-11.4 -12.57,-21.87 -19.58,-32.31 -22.73,-32.61 -49.47,-62.98 -81.62,-86.55zm-430.89 117.06l0 0zm0 0c0.54,20.24 7.95,40.73 22.96,54.75 -1.88,-12.52 -3.73,-25.35 -0.84,-37.89 5.49,5.61 10.75,11.48 16.34,16.99 1.67,-4.34 3.42,-8.66 5.15,-12.98 3.63,4.98 7.39,9.88 11.2,14.73 2.31,-5.23 4.55,-10.49 6.83,-15.72 2.49,5.21 4.78,10.52 7.04,15.87 3.73,-5 7.57,-9.95 11.43,-14.88 1.67,4.4 3.35,8.79 5.05,13.18 5.23,-5.76 10.24,-11.83 16.58,-16.43 2.29,12.47 0.56,25.04 -1.16,37.46 14.75,-14.37 22.24,-34.74 23.11,-55.08 -15.27,3.68 -30.68,6.9 -46.33,8.38 -26.05,2.94 -52.11,-2.39 -77.36,-8.38zm-28.9 52.52l0 0zm0 0c7.67,53.43 10.16,107.4 10.8,161.32 -0.89,8.1 6.32,13.69 12.67,17.09 15.36,7.87 33.02,9.4 49.98,10.56 26.29,0.54 53.51,1.22 78.6,-7.82 8.49,-3.35 18.8,-9.32 18.65,-19.71 0.33,-54.01 2.71,-108.19 10.92,-161.67 -10.52,14.17 -16.21,31.11 -20.96,47.92 -9.37,34.95 -12.8,71.24 -13.66,107.35 -36.93,8.23 -75.78,8.54 -112.66,-0.17 -0.97,-37.03 -4.47,-74.29 -14.53,-110.05 -4.59,-15.69 -10.26,-31.41 -19.81,-44.82zm47.14 133.99l0 0zm0 0c9.17,3.91 19.28,4.77 29.1,5.54 17.15,0.25 34.57,0.96 51.36,-3.2 2.89,-0.94 6.88,-1.12 7.67,-4.8 3.91,-10.54 1.37,-22.3 -3.86,-31.95 -1.66,8.71 -4.6,17.34 -10.54,24.12 -2.49,-3.37 -4.98,-6.75 -7.47,-10.13 -2.57,2.92 -5.16,5.82 -7.7,8.76 -2.41,-2.79 -4.79,-5.61 -7.18,-8.4 -2.64,2.94 -5.28,5.86 -7.93,8.78 -2.61,-2.94 -5.28,-5.81 -8,-8.63 -2.31,2.77 -4.64,5.51 -6.96,8.28 -2.51,-2.87 -5.02,-5.74 -7.51,-8.61 -2.72,3.33 -5.44,6.68 -8.18,10.01 -5.31,-7.22 -8.38,-15.65 -10.36,-24.28 -5.03,10.59 -7.8,23.51 -2.44,34.51zm-623.67 36.88l0 0zm0 0c-13.18,10.1 -14.65,28.49 -14.71,43.81 -0.63,35.35 16.54,70.04 44.32,91.7 -4.01,-28.08 -6.4,-56.83 -2.08,-85.02 1.6,-11.97 8.08,-23.7 4.6,-35.94 -3.23,-13.23 -20.02,-23.01 -32.13,-14.55zm1301.77 16.83l0 0zm0 0c-2.32,9.17 1.98,18.06 3.78,26.9 6.32,30.37 3.4,61.64 -0.79,92.09 34.03,-26.74 51.63,-73.14 41.93,-115.56 -2.51,-9.65 -7.92,-20.52 -18.54,-22.93 -12.34,-2.89 -24.4,7.62 -26.38,19.5zm-1399.85 53.26l0 0zm0 0c-6.3,15.14 -2.82,32.13 1.55,47.32 9.29,31.97 33.93,58.64 64.4,71.69 -13.15,-33.22 -25.09,-68.47 -22.6,-104.71 0.33,-11.99 -7.85,-24.25 -19.96,-26.64 -9.5,-2.57 -20.02,3.17 -23.39,12.34zm1490.87 -0.02l0 0zm0 0c-6.12,10.61 -2.64,23.28 -3.74,34.87 -2.21,29.15 -11.83,57.11 -22.5,84.16 39.47,-16.51 67.94,-56.71 69.08,-99.61 0.41,-10.76 -1.85,-23.77 -11.98,-29.66 -10.82,-6.22 -25.35,-0.46 -30.86,10.24zm-921.78 43.17l0 0zm0 0c0.15,128.94 0.1,257.91 0.02,386.87 130.9,-17.57 264.08,-17.73 394.98,-0.08 0,-54.7 0,-109.43 0,-164.16 -49.48,-6.55 -99.31,-10.82 -149.18,-12.24 -0.06,21.23 0,42.46 -0.03,63.69 -32.08,-1.19 -64.23,-1.19 -96.31,0.1 -0.5,-62.04 -0.02,-124.06 -0.25,-186.1 32.15,-1.27 64.41,-1.27 96.59,0 -0.08,24.43 0.07,48.89 -0.11,73.34 49.91,2.24 99.79,5.95 149.29,12.8 0,-58.13 0.02,-116.26 -0.03,-174.4 -130.9,-17.27 -264.1,-17.39 -394.97,0.18zm-190.33 38.1l0 0zm0 0c-0.22,95.54 0.08,191.08 -0.15,286.65 -31.39,8.31 -62.37,18.11 -93.23,28.22 -0.08,-95.44 0,-190.89 -0.02,-286.33 -58.57,20.02 -116.02,43.41 -171.61,70.63 9.01,21.05 17.35,42.39 26.31,63.47 1.47,3.65 3.23,7.36 3.07,11.43 0.03,100.03 -0.02,200.05 0,300.09 121.53,-56.59 250.64,-96.74 382.86,-118.76 -0.03,-129.04 0.03,-258.08 -0.03,-387.12 -49.57,8.05 -98.66,18.79 -147.2,31.72zm628.5 -31.72l0 0zm0 0c-0.03,128.99 0,258 0,386.99 49.6,8.26 98.72,19.2 147.28,32.18 0.02,-31.85 0.02,-63.72 0.02,-95.59 31.34,8.96 62.66,18.11 93.36,29.05 -0.05,31.85 0.03,63.7 -0.05,95.54 48.41,16.54 95.72,36.04 142.22,57.32 0.05,-98.13 0.03,-196.26 0,-294.4 -0.07,-3.17 0.49,-6.22 1.73,-9.14 9.09,-23.9 18.29,-47.74 27.25,-71.69 -130.06,-62.84 -269.18,-107.2 -411.81,-130.26zm-1050.24 39.67l0 0zm0 0c-5.94,14.17 -1.06,30.17 5.06,43.5 11.55,26.08 35.45,46.04 63.01,53.26 -12.34,-22.68 -24.59,-46.05 -29.36,-71.67 -1.8,-9.45 -0.69,-20.47 -7.95,-27.89 -8.05,-9.22 -25.17,-8.99 -30.76,2.8zm1585.25 -2.11l0 0zm0 0c-7.39,7.87 -5.49,19.5 -7.85,29.2 -5.31,24.87 -16.71,47.95 -29.28,69.9 36.04,-9.45 65.35,-40.84 70.76,-77.87 0.83,-8.33 0.48,-18.24 -6.3,-24.15 -7.72,-7.37 -20.88,-4.88 -27.33,2.92zm-1614.32 87.34l0 0zm0 0c-3.03,14.24 3.14,28.32 9.9,40.56 12.67,22.75 35.76,38.68 61.11,44.08 -15.78,-24.2 -30.51,-50.33 -34.37,-79.39 -1.16,-8.63 -7.54,-16.53 -16.35,-18.08 -8.94,-2.56 -18.54,3.84 -20.29,12.83zm1643.88 -7.06l0 0zm0 0c-6.73,6.42 -6.02,16.33 -8.2,24.68 -5.79,24.21 -18.49,46 -31.67,66.85 34.44,-7.06 63.64,-35 70.81,-69.59 1.34,-7.54 1.39,-16.33 -3.91,-22.45 -6.66,-8.13 -20.37,-7.09 -27.03,0.51zm-1656.33 93.43l0 0zm0 0c-4.34,11.48 0.86,23.77 6.27,33.93 12.25,23.22 36.14,39.32 62.02,42.92 -13.28,-18.23 -26.03,-37.43 -32.83,-59.12 -2.57,-7.52 -2.44,-16.61 -9,-22.1 -7.36,-7.74 -22.45,-6.04 -26.46,4.37zm1666.8 6.99l0 0zm0 0c-5.19,26.13 -20.22,48.78 -35.71,69.94 32.56,-4.47 61.89,-29.34 69.41,-61.61 2.21,-8.59 -0.13,-20.63 -9.7,-23.52 -10.62,-4.04 -22.48,4.29 -24,15.19zm-1312.82 277.53l0 0zm0 0c0,71.06 0.05,142.12 -0.02,213.18 113.04,-50.48 234.36,-81.6 357.36,-94.8 215.18,-22.83 437.43,6.58 635.73,94.8 -0.13,-71.08 0,-142.17 -0.08,-213.23 -99.45,-36.75 -203.22,-61.56 -308.36,-74.87 -229.77,-28.62 -467.05,-5.51 -684.63,74.92zm-299.12 -63.08l0 0zm0 0c24.91,68.34 50.99,136.28 75.6,204.75 59.26,0.66 118.53,0.1 177.78,0.28 0.03,-40.84 0.05,-81.68 0,-122.49 -41.22,17.65 -81.44,37.43 -121.93,56.63 0.23,-46.3 -0.25,-92.62 0.26,-138.92 -43.89,-0.68 -87.83,-0.13 -131.71,-0.25zm1459.91 -0.13l0 0zm0 0c-0.3,46.42 -0.13,92.85 -0.1,139.3 -40.48,-19.2 -80.71,-38.98 -121.91,-56.63 -0.1,40.81 -0.02,81.65 -0.02,122.49 59.02,0.07 118.07,-0.13 177.09,0.1 25.75,-68.27 50.92,-136.76 76.37,-205.16 -43.81,-0.1 -87.62,0.1 -131.43,-0.1zm-744.86 42.69c-0.11,-15.69 14.75,-28.09 29.89,-28.21 27,-1.45 54.04,-1.2 81.07,-0.94 15.23,-0.41 31.67,10.79 33.67,26.46 0.23,33.83 0,67.66 0.1,101.49 -11.65,-0.59 -23.29,-1.22 -34.94,-1.15 -0.13,-15.87 0.2,-31.74 -0.21,-47.59 -24.71,-0.43 -49.47,-0.56 -74.16,0.86 0.16,15.75 0.08,31.52 0.06,47.29 -11.89,0.21 -23.75,1.22 -35.61,1.5 0.25,-33.24 -0.1,-66.46 0.13,-99.71zm35.5 3.23l0 0zm0 0c0,5.28 0,10.56 0.03,15.87 24.68,-1.37 49.39,-0.58 74.1,-0.71 0.11,-5.28 0.18,-10.54 0.28,-15.77 -24.78,-0.18 -49.62,-0.59 -74.41,0.61zm157.33 -27.41c34.39,2.11 68.55,7.34 102.56,12.75 12.04,1.27 24.5,6.07 31.29,16.69 8.22,10.84 5.63,25.17 5.99,37.87 -0.08,8.53 -1.12,19.22 -9.6,23.72 -13.18,6.6 -27.91,0.15 -41.58,-1.15 21.75,19.53 43.48,39.06 64.51,59.36 -18.61,-4.32 -37.89,-6.25 -56.17,-11.48 -20.53,-17.91 -40.56,-36.4 -61.31,-54.02 0.02,15.34 -0.03,30.68 0.05,46.02 -11.89,-1.15 -23.77,-2.34 -35.63,-3.64 -0.05,-42.03 0.18,-84.08 -0.11,-126.12zm35.59 34.98l0 0zm0 0c0.05,5.23 0.1,10.46 0.17,15.72 23.12,2.76 46.2,6.04 69.16,9.98 -0.05,-5.23 -0.08,-10.47 -0.13,-15.67 -22.98,-3.84 -46.07,-7.24 -69.2,-10.03zm-537.68 54.45l0 0zm0 0c0,5.05 0,10.08 0,15.16 23.75,-7.54 47.59,-14.71 71.69,-21 0,-5.13 0.03,-10.24 0.03,-15.34 -24.18,6.14 -48,13.53 -71.72,21.18zm0.86 47.51l0 0zm0 0c-1.85,4.7 -0.5,10.24 -0.89,15.27 23.7,-7.87 47.72,-14.71 71.83,-21.26 -0.05,-5.1 -0.08,-10.21 -0.11,-15.29 -23.79,6.45 -47.64,12.93 -70.83,21.28z"/>
   <path class="fil2" d="M504.76 1265.04c217.58,-80.43 454.86,-103.54 684.63,-74.92 105.14,13.31 208.91,38.12 308.36,74.87 0.08,71.06 -0.05,142.15 0.08,213.23 -198.3,-88.22 -420.55,-117.63 -635.73,-94.8 -123,13.2 -244.32,44.32 -357.36,94.8 0.07,-71.06 0.02,-142.12 0.02,-213.18zm107.53 92.24c23.19,-8.35 47.04,-14.83 70.83,-21.28 0.03,5.08 0.06,10.19 0.11,15.29 -24.11,6.55 -48.13,13.39 -71.83,21.26 0.39,-5.03 -0.96,-10.57 0.89,-15.27zm-0.86 -47.51c23.72,-7.65 47.54,-15.04 71.72,-21.18 0,5.1 -0.03,10.21 -0.03,15.34 -24.1,6.29 -47.94,13.46 -71.69,21 0,-5.08 0,-10.11 0,-15.16zm537.68 -54.45c23.13,2.79 46.22,6.19 69.2,10.03 0.05,5.2 0.08,10.44 0.13,15.67 -22.96,-3.94 -46.04,-7.22 -69.16,-9.98 -0.07,-5.26 -0.12,-10.49 -0.17,-15.72zm-192.92 -7.57c24.79,-1.2 49.63,-0.79 74.41,-0.61 -0.1,5.23 -0.17,10.49 -0.28,15.77 -24.71,0.13 -49.42,-0.66 -74.1,0.71 -0.03,-5.31 -0.03,-10.59 -0.03,-15.87zm709.36 -45.92c43.81,0.2 87.62,0 131.43,0.1 -25.45,68.4 -50.62,136.89 -76.37,205.16 -59.02,-0.23 -118.07,-0.03 -177.09,-0.1 0,-40.84 -0.08,-81.68 0.02,-122.49 41.2,17.65 81.43,37.43 121.91,56.63 -0.03,-46.45 -0.2,-92.88 0.1,-139.3zm-1459.91 0.13c43.88,0.12 87.82,-0.43 131.71,0.25 -0.51,46.3 -0.03,92.62 -0.26,138.92 40.49,-19.2 80.71,-38.98 121.93,-56.63 0.05,40.81 0.03,81.65 0,122.49 -59.25,-0.18 -118.52,0.38 -177.78,-0.28 -24.61,-68.47 -50.69,-136.41 -75.6,-204.75zm704.25 -723.2c9.55,13.41 15.22,29.13 19.81,44.82 10.06,35.76 13.56,73.02 14.53,110.05 36.88,8.71 75.73,8.4 112.66,0.17 0.86,-36.11 4.29,-72.4 13.66,-107.35 4.75,-16.81 10.44,-33.75 20.96,-47.92 -8.21,53.48 -10.59,107.66 -10.92,161.67 0.15,10.39 -10.16,16.36 -18.65,19.71 -25.09,9.04 -52.31,8.36 -78.6,7.82 -16.96,-1.16 -34.62,-2.69 -49.98,-10.56 -6.35,-3.4 -13.56,-8.99 -12.67,-17.09 -0.64,-53.92 -3.13,-107.89 -10.8,-161.32zm60.4 -195.79c19.12,-2.26 38.52,-2.28 57.67,-0.2 16.59,2 33.63,5.48 47.45,15.39 -5.24,1.04 -10.44,2.03 -15.68,2.97 11.74,6.83 23.01,14.78 32.03,25.07 25.32,28.37 35.4,68.65 29.1,105.85 -2.66,10.52 -7.03,20.5 -11.25,30.48 -1.11,-16.56 -6.5,-34.87 -21.2,-44.32 -12.12,-8.02 -27.53,-7.01 -40.97,-3.45 -10.56,2.82 -23.29,2.71 -31.54,-5.44 -6.2,-6.88 -8.66,-16.74 -8.03,-25.83 2.82,-15.62 23.01,-21.86 35.69,-14.25 5.43,3.41 5.2,10.39 5.68,15.98 10.16,-1.45 21.09,-3.89 28.45,-11.61 7.87,-7.77 7.16,-20.9 1.8,-29.86 -7.11,-11.36 -19.98,-17.17 -32.56,-20.27 -22.29,-5.38 -45.56,-5.61 -68.31,-3.94 -17.6,1.83 -36.47,4.7 -50.49,16.36 -10.64,8.66 -14.88,26.56 -5.16,37.41 7.29,7.77 18.26,10.13 28.32,12.11 0.97,-5.94 1.04,-13.63 7.26,-16.78 12.24,-6.35 30.38,-0.94 34.16,13.23 1.93,12.54 -3.05,28.47 -16.15,32.86 -10.57,4.06 -21.71,-0.1 -32.28,-1.88 -13.28,-2.51 -28.29,0.43 -37.87,10.46 -10.03,10.21 -13.58,24.74 -15.13,38.56 -6.63,-14.05 -10.8,-29.01 -15.9,-43.61l0.79 -0.35c0.33,-0.16 1.01,-0.49 1.37,-0.64 -4.5,-10.69 -2.67,-22.45 -0.59,-33.45 7.5,-35.17 31.62,-65.8 63.17,-82.74 -5.21,-0.94 -10.44,-1.93 -15.62,-2.95 13.3,-9.67 29.79,-13.1 45.79,-15.16zm-230.45 -282.97l33.65 0c32.3,5.69 63.29,17.83 90.82,35.63 84.9,-12.42 171.45,-13.97 256.48,-1.95 7.24,0.73 15.36,3.4 21.76,-1.5 27.64,-16.69 58.39,-29.01 90.72,-32.18l25.96 0c38.12,4.22 74.49,27.48 90.66,62.81 19.38,41.39 15.11,89.34 4.78,132.59 5.84,9.25 8.96,20.6 16.76,28.35 75.07,36.36 137.17,95.26 186.49,161.8 21.48,28.52 40.02,59.15 55.62,91.25 3.71,8.89 11.78,15.01 20.6,18.39 7.33,1.27 14.88,0.43 22.32,0.89 42.21,2.23 83.5,21.2 112.02,52.54 4.14,4.5 8.31,9.65 14.79,10.64 27.37,6.96 52.85,21.34 72.55,41.63 21.46,22.27 36.07,50.79 42.7,80.91 1.11,10.62 8.53,18.34 15.23,25.93 21.41,26.21 34.16,59.31 36.42,93.06 0.16,6.12 2.44,11.86 5.64,17.01 11.96,20.07 19.33,42.85 21.28,66.16 2.42,18.16 -3.68,36.57 1.96,54.45l0 47.85c-9.19,42.64 -30.76,82.19 -60.34,114.11 -7.83,7.92 -9.86,19.28 -13.9,29.26 -43.88,117.64 -87.44,235.4 -131.53,352.96 -66.64,-0.05 -133.28,-0.07 -199.92,0.03 -0.03,39.11 -0.03,78.24 0,117.38l-1.5 0c-164.65,-98.13 -356.72,-145.19 -547.53,-149.08 -206.25,-3.58 -415.75,43.38 -594.01,149.08l-0.83 0c-0.66,-39.08 -0.13,-78.2 -0.26,-117.28 -64.99,-0.36 -129.98,-0.08 -194.97,-0.13 -3.5,0.59 -6.32,-1.29 -6.98,-4.82 -45.03,-121.15 -90.01,-242.34 -135.04,-363.51 -1.55,-3.93 -4.06,-7.36 -6.88,-10.49 -32.71,-34.82 -57.37,-78.5 -64.41,-126.17l0 -31.77c1.55,-10.72 4.98,-21.33 3.48,-32.25 -3.91,-33.99 4.27,-69.06 22.15,-98.16 5.28,-8.15 4.21,-18.24 5.71,-27.43 4.14,-28.34 15.62,-55.72 33.4,-78.25 5.84,-7.59 14.22,-14.04 15.9,-24.02 5.15,-24.23 14.8,-47.65 29.41,-67.76 20.64,-28.78 51.73,-49.83 86.07,-58.44 5.1,-0.97 9.42,-3.86 12.65,-7.9 31.36,-35.83 78.88,-56.86 126.52,-55.69 13.54,1.42 26.54,-7.78 31.77,-19.97 28.88,-59.81 69.11,-113.7 115.63,-160.91 35.33,-35.07 75.23,-66.08 120.06,-88.1 8.15,-3.03 10.43,-11.97 14.24,-18.85 2.7,-5.79 6.43,-11.22 7.88,-17.5 -1.4,-11.15 -5.06,-21.89 -6.12,-33.09 -4.52,-37.41 -1.35,-78.14 20.57,-109.99 17.83,-26.77 48.3,-42.69 79.57,-47.52zm-33.2 43.15l0 0zm0 0c-18.77,11.63 -31.01,31.67 -35.76,52.95 -7.29,32.79 -2,67.02 7.72,98.72 -9.6,16.58 -18.31,33.68 -25.98,51.25 -77.66,34.11 -140.57,94.83 -189.94,162.74 -12.93,18.54 -26.03,37.19 -36.09,57.48 10.69,-1.98 21.38,-4.07 32.1,-5.97 -23.64,27.3 -54.3,47.11 -84.65,66.08 -34.59,-4.39 -71,3.96 -99.45,24.38 -13.26,9.3 -24.15,21.36 -34.13,34.01 -22.66,3.58 -44.8,12.19 -62.81,26.59 -24.71,19.43 -40.46,48.61 -46.68,79.14 -1.52,10.48 -6.3,20.47 -13.66,28.08 -24.05,24.94 -37.39,59.59 -37.31,94.15 0.84,7.09 -4.77,12.19 -7.98,17.91 -17.44,27.55 -22.04,61.58 -16.65,93.43 -7.45,26.9 -6.51,55.92 3.27,82.11 18.85,53.03 59.96,94.63 105.3,126.25 4.87,-15.37 9.75,-30.76 14.57,-46.12 29.95,7.26 63.22,8.99 91.61,-4.6 -3.4,-6.1 -7.06,-12.06 -10.77,-17.96 26.85,-8.53 52.4,-20.8 76.52,-35.25 0,42.34 0,84.7 0,127.04 -65.52,0.02 -131.02,-0.05 -196.52,0.05 36.6,99.1 73.53,198.07 110.3,297.09 69.82,0.05 139.63,-0.13 209.45,0.1 -0.13,32.13 -0.03,64.26 -0.05,96.38 32.99,-17.72 67.48,-32.45 102.4,-45.92 98.21,-37.33 201.17,-62.04 305.57,-73.75 132.75,-14.9 267.89,-7.36 398.3,21.49 96.13,21.46 190.71,52.52 278.17,98.18 -0.1,-32.07 0.21,-64.18 -0.15,-96.23 69.82,-0.58 139.66,-0.1 209.5,-0.25 36.83,-99.02 73.73,-198.02 110.35,-297.09 -65.07,-0.1 -130.16,-0.03 -195.23,-0.05 -0.02,-41.81 -0.05,-83.61 0,-125.39 23.37,13.62 47.93,25.3 73.71,33.55 -3.31,5.67 -6.79,11.2 -10.52,16.61 3.4,4.5 9.14,5.56 14.27,6.99 22.3,6.02 46.02,5.79 68.5,0.78 2.84,-0.28 5.89,-1.83 8.76,-0.81 5.28,14.86 9.32,30.17 14.55,45.08 38.28,-26.84 73.45,-60.09 94.76,-102.27 14.8,-27.48 22.35,-59.61 16.99,-90.72 -1.32,-7.37 -4.39,-14.71 -2.62,-22.25 5.74,-34.34 -4.03,-70.4 -24.94,-98.03 0.46,-30.96 -8.02,-62.42 -26.61,-87.47 -6.02,-9.01 -15.24,-15.62 -19.86,-25.6 -3.46,-6.63 -4.37,-14.09 -6.15,-21.23 -4.34,-17.62 -11.78,-34.56 -22.35,-49.35 -19.91,-28.06 -52.16,-45.81 -85.94,-50.71 -9.98,-12.93 -21.28,-24.97 -34.67,-34.39 -27.2,-19.5 -61.84,-27.66 -94.96,-24.33 -4.9,0.86 -8.76,-2.79 -12.67,-5 -27,-17.7 -54.5,-35.74 -75.63,-60.47 10.72,1.65 21.36,3.86 32.1,5.58 -11.4,-21.33 -24.79,-41.55 -39.01,-61.08 -49.22,-66.59 -111.54,-126.32 -188.44,-159.34 -7.06,-14.73 -14.53,-29.3 -22.99,-43.27 -2.87,-3.63 0.05,-8 0.66,-11.86 7.16,-25.42 10.06,-52.14 7.83,-78.5 -2.21,-21.26 -9.6,-42.85 -25.05,-58.19 -17.88,-18.51 -44.72,-26.41 -69.99,-24.35 -34.16,2.66 -66.01,17.95 -93.89,37.15 -48.03,-7.03 -96.51,-12.11 -145.12,-11.45 -47.44,-0.51 -94.76,4.77 -141.69,11.43 -24.38,-17.15 -51.91,-30.66 -81.47,-35.63 -23.37,-4.27 -48.79,-1.15 -68.88,12.11zm214.05 1201.37l0 0zm0 0c-0.23,33.25 0.12,66.47 -0.13,99.71 11.86,-0.28 23.72,-1.29 35.61,-1.5 0.02,-15.77 0.1,-31.54 -0.06,-47.29 24.69,-1.42 49.45,-1.29 74.16,-0.86 0.41,15.85 0.08,31.72 0.21,47.59 11.65,-0.07 23.29,0.56 34.94,1.15 -0.1,-33.83 0.13,-67.66 -0.1,-101.49 -2,-15.67 -18.44,-26.87 -33.67,-26.46 -27.03,-0.26 -54.07,-0.51 -81.07,0.94 -15.14,0.12 -30,12.52 -29.89,28.21zm-160.08 -5.79l0 0zm0 0c0.25,42.26 -0.41,84.52 0.33,126.78 38.5,-7.67 77.38,-13.43 116.44,-17.34 0.13,-10.57 0.08,-21.16 0.11,-31.72 -27.2,2.56 -54.28,6.35 -81.25,10.71 -0.05,-5.23 -0.05,-10.43 -0.07,-15.62 26.97,-4.49 54.07,-8.15 81.29,-10.84 0.03,-10.59 0.03,-21.16 -0.02,-31.72 -27.18,2.64 -54.25,6.2 -81.15,10.82 -0.07,-5.16 -0.15,-10.31 -0.23,-15.44 26.93,-5.16 54.2,-8.13 81.4,-11.23 0,-10.56 0.03,-21.13 0,-31.69 -39.19,3.96 -78.22,9.67 -116.85,17.29zm352.91 -18.39l0 0zm0 0c0.29,42.04 0.06,84.09 0.11,126.12 11.86,1.3 23.74,2.49 35.63,3.64 -0.08,-15.34 -0.03,-30.68 -0.05,-46.02 20.75,17.62 40.78,36.11 61.31,54.02 18.28,5.23 37.56,7.16 56.17,11.48 -21.03,-20.3 -42.76,-39.83 -64.51,-59.36 13.67,1.3 28.4,7.75 41.58,1.15 8.48,-4.5 9.52,-15.19 9.6,-23.72 -0.36,-12.7 2.23,-27.03 -5.99,-37.87 -6.79,-10.62 -19.25,-15.42 -31.29,-16.69 -34.01,-5.41 -68.17,-10.64 -102.56,-12.75zm-442.51 39.34l0 0zm0 0c-31.67,8.82 -63.21,18.32 -93.99,29.87 0.27,42.34 0.05,84.7 0.12,127.04 36.65,-13.26 73.93,-24.79 111.65,-34.62 13.71,-3.05 26.72,-13.59 28.24,-28.27 0.81,-12.72 4.27,-27.63 -4.39,-38.5 7.92,-11.88 5.2,-26.72 5.3,-40.15 0.08,-9.37 -6.95,-18.11 -16.1,-19.96 -10.54,-2.14 -20.8,2.05 -30.83,4.59zm637.66 0.21l0 0zm0 0c-6.55,3.3 -10.51,10.49 -10.74,17.72 -0.3,10.04 -0.68,20.17 0.43,30.18 2.16,14.07 14.05,24.96 27.43,28.62 23.29,6.45 46.45,13.31 69.49,20.65 0.15,5.15 0.28,10.28 0.38,15.46 -31.44,-10.13 -63.19,-19.38 -95.34,-26.99 -0.03,10.59 0.02,21.18 -0.1,31.77 31.79,8.1 63.44,16.86 94.58,27.27 7.28,2.31 15.33,4.7 22.85,1.86 6.3,-2.24 11.05,-8.13 11.66,-14.81 0.96,-10.11 0.74,-20.32 0.25,-30.45 -1.29,-16.41 -14.57,-29.94 -29.84,-34.77 -22.17,-7.29 -44.54,-13.97 -67.05,-20.11 0,-5.13 0.03,-10.26 0.06,-15.34 29.51,8 58.71,17.11 87.54,27.3 0.07,-10.77 0.07,-21.56 0,-32.33 -28.45,-9.96 -57.27,-18.79 -86.3,-26.82 -8.18,-2.16 -17.65,-3.76 -25.3,0.79z"/>
   <path class="fil3" d="M1364.45 869.21c48.4,12.27 96.15,26.94 143.29,43.38 0.45,46.73 0.05,93.48 0.2,140.24 -47.11,-17.02 -94.99,-31.9 -143.49,-44.45 -0.03,-46.4 0,-92.77 0,-139.17zm453.13 118.3c1.52,-10.9 13.38,-19.23 24,-15.19 9.57,2.89 11.91,14.93 9.7,23.52 -7.52,32.27 -36.85,57.14 -69.41,61.61 15.49,-21.16 30.52,-43.81 35.71,-69.94zm-1666.8 -6.99c4.01,-10.41 19.1,-12.11 26.46,-4.37 6.56,5.49 6.43,14.58 9,22.1 6.8,21.69 19.55,40.89 32.83,59.12 -25.88,-3.6 -49.77,-19.7 -62.02,-42.92 -5.41,-10.16 -10.61,-22.45 -6.27,-33.93zm1656.33 -93.43c6.66,-7.6 20.37,-8.64 27.03,-0.51 5.3,6.12 5.25,14.91 3.91,22.45 -7.17,34.59 -36.37,62.53 -70.81,69.59 13.18,-20.85 25.88,-42.64 31.67,-66.85 2.18,-8.35 1.47,-18.26 8.2,-24.68zm-1643.88 7.06c1.75,-8.99 11.35,-15.39 20.29,-12.83 8.81,1.55 15.19,9.45 16.35,18.08 3.86,29.06 18.59,55.19 34.37,79.39 -25.35,-5.4 -48.44,-21.33 -61.11,-44.08 -6.76,-12.24 -12.93,-26.32 -9.9,-40.56zm1614.32 -87.34c6.45,-7.8 19.61,-10.29 27.33,-2.92 6.78,5.91 7.13,15.82 6.3,24.15 -5.41,37.03 -34.72,68.42 -70.76,77.87 12.57,-21.95 23.97,-45.03 29.28,-69.9 2.36,-9.7 0.46,-21.33 7.85,-29.2zm-1585.25 2.11c5.59,-11.79 22.71,-12.02 30.76,-2.8 7.26,7.42 6.15,18.44 7.95,27.89 4.77,25.62 17.02,48.99 29.36,71.67 -27.56,-7.22 -51.46,-27.18 -63.01,-53.26 -6.12,-13.33 -11,-29.33 -5.06,-43.5zm1533.85 -89.22c5.51,-10.7 20.04,-16.46 30.86,-10.24 10.13,5.89 12.39,18.9 11.98,29.66 -1.14,42.9 -29.61,83.1 -69.08,99.61 10.67,-27.05 20.29,-55.01 22.5,-84.16 1.1,-11.59 -2.38,-24.26 3.74,-34.87zm-1490.87 0.02c3.37,-9.17 13.89,-14.91 23.39,-12.34 12.11,2.39 20.29,14.65 19.96,26.64 -2.49,36.24 9.45,71.49 22.6,104.71 -30.47,-13.05 -55.11,-39.72 -64.4,-71.69 -4.37,-15.19 -7.85,-32.18 -1.55,-47.32zm1399.85 -53.26c1.98,-11.88 14.04,-22.39 26.38,-19.5 10.62,2.41 16.03,13.28 18.54,22.93 9.7,42.42 -7.9,88.82 -41.93,115.56 4.19,-30.45 7.11,-61.72 0.79,-92.09 -1.8,-8.84 -6.1,-17.73 -3.78,-26.9zm-1301.77 -16.83c12.11,-8.46 28.9,1.32 32.13,14.55 3.48,12.24 -3,23.97 -4.6,35.94 -4.32,28.19 -1.93,56.94 2.08,85.02 -27.78,-21.66 -44.95,-56.35 -44.32,-91.7 0.06,-15.32 1.53,-33.71 14.71,-43.81zm623.67 -36.88c-5.36,-11 -2.59,-23.92 2.44,-34.51 1.98,8.63 5.05,17.06 10.36,24.28 2.74,-3.33 5.46,-6.68 8.18,-10.01 2.49,2.87 5,5.74 7.51,8.61 2.32,-2.77 4.65,-5.51 6.96,-8.28 2.72,2.82 5.39,5.69 8,8.63 2.65,-2.92 5.29,-5.84 7.93,-8.78 2.39,2.79 4.77,5.61 7.18,8.4 2.54,-2.94 5.13,-5.84 7.7,-8.76 2.49,3.38 4.98,6.76 7.47,10.13 5.94,-6.78 8.88,-15.41 10.54,-24.12 5.23,9.65 7.77,21.41 3.86,31.95 -0.79,3.68 -4.78,3.86 -7.67,4.8 -16.79,4.16 -34.21,3.45 -51.36,3.2 -9.82,-0.77 -19.93,-1.63 -29.1,-5.54zm-18.24 -186.51c25.25,5.99 51.31,11.32 77.36,8.38 15.65,-1.48 31.06,-4.7 46.33,-8.38 -0.87,20.34 -8.36,40.71 -23.11,55.08 1.72,-12.42 3.45,-24.99 1.16,-37.46 -6.34,4.6 -11.35,10.67 -16.58,16.43 -1.7,-4.39 -3.38,-8.78 -5.05,-13.18 -3.86,4.93 -7.7,9.88 -11.43,14.88 -2.26,-5.35 -4.55,-10.66 -7.04,-15.87 -2.28,5.23 -4.52,10.49 -6.83,15.72 -3.81,-4.85 -7.57,-9.75 -11.2,-14.73 -1.73,4.32 -3.48,8.64 -5.15,12.98 -5.59,-5.51 -10.85,-11.38 -16.34,-16.99 -2.89,12.54 -1.04,25.37 0.84,37.89 -15.01,-14.02 -22.42,-34.51 -22.96,-54.75zm148.93 -188.02c12.34,-3.07 24.26,-7.57 35.96,-12.54 3.66,8.07 2.21,17.29 -3.83,23.79 0.13,-6.98 -6.66,-15.44 -13.92,-10.71 -5.87,2.97 -5.2,9.82 -3.22,14.98 -7.04,-2.87 -12.91,-7.97 -14.99,-15.52zm-210.51 -13.08c11.81,5.21 23.97,9.45 36.39,12.91 -2.28,5.63 -6.3,10.2 -10.84,14.12 1.16,-5.46 0.71,-12.75 -5.74,-14.53 -8.56,-2.95 -14.89,7.54 -10.72,14.81 -10.03,-5.08 -13.64,-17.27 -9.09,-27.31zm-72.84 537.73c130.87,-17.57 264.07,-17.45 394.97,-0.18 0.05,58.14 0.03,116.27 0.03,174.4 -49.5,-6.85 -99.38,-10.56 -149.29,-12.8 0.18,-24.45 0.03,-48.91 0.11,-73.34 -32.18,-1.27 -64.44,-1.27 -96.59,0 0.23,62.04 -0.25,124.06 0.25,186.1 32.08,-1.29 64.23,-1.29 96.31,-0.1 0.03,-21.23 -0.03,-42.46 0.03,-63.69 49.87,1.42 99.7,5.69 149.18,12.24 0,54.73 0,109.46 0,164.16 -130.9,-17.65 -264.08,-17.49 -394.98,0.08 0.08,-128.96 0.13,-257.93 -0.02,-386.87zm25.37 22.2l0 0zm0 0c0.2,112.02 0.08,224.05 0.05,336.07 114.24,-13.15 229.94,-13.23 344.18,-0.05 0,-37.79 0,-75.55 0,-113.34 -32.58,-4.14 -65.4,-6.17 -98.13,-8.61 -0.64,21.26 -0.11,42.54 -0.31,63.8 -48.96,-1.81 -98.03,-2.21 -147,0.2 -0.55,-78.86 -0.2,-157.77 -0.17,-236.65 49.04,-2.21 98.21,-2.64 147.25,0.18 -0.16,24.51 0,49.04 -0.08,73.57 32.86,1.96 65.73,4.34 98.44,8.26 0,-41.2 0,-82.37 0,-123.56 -114.21,-13.26 -230.02,-13.33 -344.23,0.13zm-215.7 15.9c48.54,-12.93 97.63,-23.67 147.2,-31.72 0.06,129.04 0,258.08 0.03,387.12 -132.22,22.02 -261.33,62.17 -382.86,118.76 -0.02,-100.04 0.03,-200.06 0,-300.09 0.16,-4.07 -1.6,-7.78 -3.07,-11.43 -8.96,-21.08 -17.3,-42.42 -26.31,-63.47 55.59,-27.22 113.04,-50.61 171.61,-70.63 0.02,95.44 -0.06,190.89 0.02,286.33 30.86,-10.11 61.84,-19.91 93.23,-28.22 0.23,-95.57 -0.07,-191.11 0.15,-286.65zm25.2 19.7l0 0zm0 0c0.3,95.45 0,190.86 0.15,286.3 -48.79,12.4 -96.84,27.53 -144.18,44.62 0.05,-95.44 0.03,-190.88 0.03,-286.32 -38.55,14.22 -76.57,29.92 -113.83,47.29 6.12,14.15 11.66,28.52 17.73,42.67 1.9,4.75 4.29,9.55 4.04,14.83 -0.03,88.81 0,177.6 0,266.41 106.59,-46.35 218.46,-80.38 332.77,-101.41 -0.36,-111.95 0.36,-223.9 -0.36,-335.85 -32.27,6.4 -64.58,12.85 -96.35,21.46zm603.3 -51.42c142.63,23.06 281.75,67.42 411.81,130.26 -8.96,23.95 -18.16,47.79 -27.25,71.69 -1.24,2.92 -1.8,5.97 -1.73,9.14 0.03,98.14 0.05,196.27 0,294.4 -46.5,-21.28 -93.81,-40.78 -142.22,-57.32 0.08,-31.84 0,-63.69 0.05,-95.54 -30.7,-10.94 -62.02,-20.09 -93.36,-29.05 0,31.87 0,63.74 -0.02,95.59 -48.56,-12.98 -97.68,-23.92 -147.28,-32.18 0,-128.99 -0.03,-258 0,-386.99zm25.4 29.86l0 0zm0 0c-0.03,111.98 0,223.95 0,335.95 32.38,5.87 64.56,12.9 96.51,20.78 0,-31.9 0,-63.8 0,-95.7 48.45,12.4 96.43,26.67 143.49,43.63 -0.03,31.88 -0.03,63.77 0,95.65 31.13,10.99 61.66,23.59 92.04,36.52 0.02,-86.07 0.07,-172.14 -0.03,-258.24 -0.3,-5.3 1.45,-10.36 3.4,-15.18 6.53,-16.59 12.65,-33.35 19.2,-49.93 -112.66,-52.88 -232.3,-90.72 -354.61,-113.48zm121.9 102.94l0 0zm0 0c0.15,29.08 -0.33,58.18 0.26,87.26 31.44,8.05 62.35,18.03 93.2,28.04 -0.3,-28.83 -0.02,-57.65 -0.12,-86.48 -30.84,-10.51 -61.95,-20.19 -93.34,-28.82z"/>
  </g>
 </g>
</svg>
