<?xml version="1.0" encoding="UTF-8"?>
<!DOCTYPE svg PUBLIC "-//W3C//DTD SVG 1.1//EN" "http://www.w3.org/Graphics/SVG/1.1/DTD/svg11.dtd">
<!-- Creator: CorelDRAW -->
<svg xmlns="http://www.w3.org/2000/svg" xml:space="preserve" width="2000px" height="1600px" version="1.1" style="shape-rendering:geometricPrecision; text-rendering:geometricPrecision; image-rendering:optimizeQuality; fill-rule:evenodd; clip-rule:evenodd"
viewBox="0 0 2000 1600"
 xmlns:xlink="http://www.w3.org/1999/xlink">
 <defs>
  <style type="text/css">
   <![CDATA[
    .fil0 {fill:black;fill-rule:nonzero}
    .fil2 {fill:#0D6C39;fill-rule:nonzero}
    .fil1 {fill:#FEFEFE;fill-rule:nonzero}
   ]]>
  </style>
 </defs>
 <g id="Capa_x0020_1">
  <metadata id="CorelCorpID_0Corel-Layer"/>
  <g id="Chicago_x0020_State_x0020_Cougars.cdr">
   <path class="fil0" d="M1045.13 0l0.08 0c77.84,52.88 165.63,89.57 255.62,116.17 70.93,20.87 143.84,34.84 217.27,43.02 18.89,13.71 36.85,28.82 56.05,42.23 49.52,35.79 101.69,68.02 156.26,95.57 28.42,13.87 57.22,27.28 87.32,37.13 1.78,8.25 3.48,16.56 3.86,24.99l0 28.5c-4.8,50.69 -22.83,99.02 -44.52,144.71 -14.35,29.54 -30.05,58.54 -48.31,85.84 -10.66,8.28 -23.67,13.26 -35.3,20.14 -23.92,52.85 -74.23,90.01 -128.33,107.89 10.39,-19.1 18.24,-41.86 11.25,-63.5 -8.1,-28.09 -33.42,-46.6 -58.72,-58.54 -23.87,-13.96 -53.99,-18.03 -79.92,-7.36 -32.35,13 -58.13,39.59 -73.93,70.3 -18.16,33.55 -35.35,69.25 -37.97,107.91 -1.32,21.28 6.22,45.26 25.81,56.23 17.06,8.66 37.48,13.53 56.07,6.63 34.9,-11.64 59.51,-41.15 80.71,-69.72 16.28,37.99 12.34,81.27 -0.4,119.67 -2.64,8.46 -8.39,17.52 -4.25,26.49 5.26,9.12 16.31,11.43 25.66,14.04 -48.79,86.71 -97.12,173.67 -146.04,260.3 -34.28,-39.7 -70.9,-77.69 -112.63,-109.62 -29.82,-22.6 -62.32,-42.81 -98.52,-53.36 -30.01,-9.09 -62.98,-6.04 -91.45,6.86 -43.66,19.46 -81.07,50.14 -116.47,81.7 -73.14,66.98 -137.35,142.91 -198.78,220.52 -57.68,73.32 -112.41,148.93 -164.67,226.19 -4.22,6.14 -8.26,12.47 -11.76,19.07l-1.37 0c27.93,-90.64 45.91,-184.63 51.12,-279.41 6.27,-110.38 -5.87,-222.07 -39.06,-327.67 -59.33,-190.51 -185.78,-357.16 -346.67,-473.88 -17.65,-12.85 -35.98,-24.74 -54.73,-35.92l0 -2.97 0.13 2.9c104.74,-104.51 235.91,-180.24 375.49,-227.79 64.18,-22.12 130.52,-38.24 197.72,-47.72 21.63,-53.58 49.85,-104.51 83.86,-151.26 9.67,7.67 20.19,14.17 31.06,20.04 33.8,18.31 69.53,32.81 105.65,45.97 5.48,-48.89 35.43,-91.79 72.81,-122.29z"/>
   <path class="fil1" d="M1400.13 916.19c25.93,-24.58 53.81,-48.07 73.19,-78.5 -0.14,30.73 -7.91,75.5 -39.19,90.01 -11.15,-4.37 -22.65,-7.78 -34,-11.51zm42.31 -612.99l17.98 10.43c-2.66,12.38 0.09,25.98 12.02,30.83 10.19,4.85 21.76,2.48 31.54,-5.59l19.26 11.17c-14.87,9.4 -41.05,17.57 -59.64,6.5 -18.46,-11.69 -19.62,-33.07 -21.16,-53.34zm29.97 17.38l18.46 11c-7.57,5.36 -20.63,0.61 -18.46,-11zm125.56 328.23c20.61,4.29 43.82,6.14 63.67,-1.7 -10.57,31.44 -35.63,55.95 -63.72,72.46 11.64,-26.2 22.8,-48.11 0.05,-70.76z"/>
   <path class="fil2" d="M847.24 124.65c9.17,3.6 17.6,8.73 26.49,12.92 82.08,40.03 171.53,63.42 261.94,74.75 87.39,10.39 176.1,10.56 263.44,-0.31 10.87,-0.89 20.83,-5.69 31.34,-8.1 18.31,-3.27 37.89,-2.44 54.99,5.49 11.47,4.62 19.83,14.09 29.96,20.85 38.2,26.59 80.74,46.17 123.41,64.38 48.28,20.09 97.47,37.99 147.35,53.69 2.51,0.94 5.03,1.93 7.52,3.05 -43.33,3.37 -86.58,7.51 -129.86,11.48 -4.77,12.77 -8.5,27.22 -4.06,40.6 4.01,10.93 16.63,15.4 27.43,15.01 7.82,0.92 9.39,-8.73 14.88,-12.29 8.18,-6.3 19.89,-13.18 29.92,-6.88 17.78,7.9 26.74,27.02 29.74,45.26 4.01,34.59 -2.26,69.53 -12.75,102.45 -17.5,30.35 -48.84,51.73 -82.77,59.63 -43.02,10.34 -88.23,3.73 -129.98,-9.04 -21.38,-6.35 -41.12,-16.92 -62.27,-23.85 -19.76,-6.6 -40.28,-12.29 -61.29,-12.04 -9.34,-0.07 -19.09,0.23 -27.42,4.95 -45.67,24.06 -79.8,65.66 -102.48,111.34 -16.05,32.11 -27.63,66.47 -33.91,101.82 -5.58,32.25 -1.67,66.82 14.81,95.49 19.28,34.36 52.24,58.77 87.09,75.76 26.43,12.78 54.52,22.2 83.3,28.07 2.77,0.63 5.43,1.62 8,2.92 -27.15,43.25 -53.26,87.13 -80.1,130.56 -1.38,1.91 -2.8,3.79 -4.27,5.61 -3.38,-31.44 -16.97,-61.79 -39.67,-84.01 -19.56,-19.63 -43.91,-34.64 -70.3,-43.07 -103.06,-27 -205.15,-58.31 -303.92,-98.39 -48.71,-20.06 -96.89,-41.88 -142.25,-68.83 -27.68,-15.92 -50.26,-42.79 -56.48,-74.61 -6,-29.03 1.34,-59.07 13.43,-85.54 14.53,-31.67 35.58,-59.99 59.48,-85.18 4.65,-4.04 7.98,-15.03 0.41,-17.32 -9.22,4.72 -16.92,11.84 -25.3,17.85 -38.42,30.08 -74.79,65.96 -93.71,111.8 -13.79,32.48 -14.83,70.2 -1.86,103.11 14.99,39.75 44.68,72.26 78.35,97.3 4.6,41.6 -14.83,80.89 -35.1,115.86 -18.97,31.62 -41.6,60.9 -65.85,88.63 -2.06,2.24 -4.34,4.24 -6.83,6 -12.27,-82.75 -34.29,-164.22 -68.01,-240.87 -36.63,-84.14 -86.66,-162.36 -147.43,-231.08 -52.4,-58.8 -112.08,-111.82 -179.74,-152.46 93.36,-89.35 208.92,-154.01 331.56,-193.57 43.4,-13.62 87.67,-25.4 132.9,-30.76 5.28,31.21 24.51,59.45 51.66,75.78 39.77,24.31 87.9,29.8 133.64,28.32 -30.71,-6.4 -62.99,-12.82 -88.16,-32.89 -23.18,-17.34 -35.73,-46.57 -34.21,-75.27 1.63,-45.26 22.76,-87.09 46.94,-124.37zm199.06 -54.22c4.8,-2.11 11.12,-6.12 15.9,-1.81 39.21,26.92 84.09,44.04 128.89,59.13 58.33,18.79 118.02,33.55 178.41,43.93 -1.14,3.03 -4.72,2.19 -7.24,2.62 -51.71,3.78 -103.69,4.19 -155.45,1.19 -62.81,-5.33 -126.61,-14.98 -184.28,-41.65 -7.27,-1.39 -4.65,-9.14 -3.96,-14.22 2.61,-18.84 9.9,-39.72 27.73,-49.19zm241.9 186.94l0 0c37.79,14.86 76.27,27.89 114.21,42.34 6.89,21.36 17.78,41.9 34.09,57.6 15.01,14.8 36.14,23.64 57.37,22.2 21.03,-0.49 39.92,-10.39 58.54,-18.95 19.68,-3.3 39.52,-5.87 59.3,-8.79 -3.13,-2.69 -7.21,-3.4 -11.05,-4.34 -25.27,-5.77 -49.93,-14.27 -73.52,-24.99 -34.24,-15.98 -66.97,-37.21 -90.67,-67.07 -0.81,-0.56 -2.46,-1.71 -3.3,-2.29 -47.95,6.4 -96.74,9.52 -144.97,4.29zm73.48 193.07l0 0c-90.57,2.06 -181.16,2.28 -271.7,4.67 -67.68,0.41 -135.34,1.78 -203,3.18 82.06,3.48 164.22,4.24 246.3,7.18 44.93,0.11 89.81,2.62 134.73,3.31 42.34,0.28 84.65,2.84 126.99,3.14 44.72,0.64 89.39,3.18 134.09,3.43 2.49,-9.29 6.07,-18.26 8.08,-27.65 -58.51,1.37 -117,1.37 -175.49,2.74zm-88.64 35.58l0 0c-80.35,0.74 -160.71,2.79 -241.07,2.72 26.06,2.84 52.3,3.02 78.45,3.6 139.54,4.07 279.07,9.3 418.57,13.03 -0.68,-7.44 -1.52,-14.86 -2.54,-22.25 -84.47,1.22 -168.91,2.42 -253.41,2.9zm170.16 32.76l0 0c-54.96,0.33 -109.84,3.58 -164.8,3.81 -47.57,2.52 -95.24,1.93 -142.78,4.45 40.84,2.89 81.8,1.67 122.67,4.24 97.01,2.16 193.98,6.19 290.99,8.2 -6.02,-8.43 -13.66,-15.47 -20.44,-23.26 -28.57,0.43 -57.09,1.75 -85.64,2.56z"/>
  </g>
 </g>
</svg>
