<?xml version="1.0" encoding="UTF-8"?>
<!DOCTYPE svg PUBLIC "-//W3C//DTD SVG 1.1//EN" "http://www.w3.org/Graphics/SVG/1.1/DTD/svg11.dtd">
<!-- Creator: CorelDRAW -->
<svg xmlns="http://www.w3.org/2000/svg" xml:space="preserve" width="2000px" height="1600px" version="1.1" style="shape-rendering:geometricPrecision; text-rendering:geometricPrecision; image-rendering:optimizeQuality; fill-rule:evenodd; clip-rule:evenodd"
viewBox="0 0 2000 1600"
 xmlns:xlink="http://www.w3.org/1999/xlink">
 <defs>
  <style type="text/css">
   <![CDATA[
    .fil0 {fill:black;fill-rule:nonzero}
    .fil3 {fill:#095746;fill-rule:nonzero}
    .fil1 {fill:#FEFEFE;fill-rule:nonzero}
    .fil2 {fill:#FFD204;fill-rule:nonzero}
   ]]>
  </style>
 </defs>
 <g id="Capa_x0020_1">
  <metadata id="CorelCorpID_0Corel-Layer"/>
  <g id="Clarkson_x0020_Golden_x0020_Knights.cdr">
   <path class="fil0" d="M810.97 0l30.57 0c40.71,5.33 78.46,27.47 105.42,58.11 30.16,34.22 44.57,79.73 47.82,124.63 1.97,30.89 0.93,62.25 -6.19,92.48 13.52,6.95 25.46,16.67 34.9,28.59 33.23,8.32 60.14,33.91 74.98,64.2 10.38,20.14 15.81,42.39 19.15,64.69 11.95,8.65 23.85,17.4 35.64,26.28 -2.56,1.97 -5.1,3.93 -7.66,5.88 0.92,13.57 2.56,27.09 3.68,40.66 85.11,-13.77 168.89,-35.28 250.39,-63.31 7.1,-2.34 13.95,-5.48 21.28,-7.1 21.51,0.3 42.16,13.64 51.22,33.18 4.82,9.68 5.88,20.64 6.01,31.32 0,124.14 -0.1,248.26 0.05,372.4 97.63,-0.12 195.27,-0.02 292.9,-0.05l0 466.49c-60.06,-17.84 -120.74,-33.66 -181.75,-47.92 -7.63,-1.83 -15.27,-3.53 -23.05,-4.36 23.08,29.93 48.98,57.63 72.95,86.9 -38.94,-8.24 -77.65,-17.45 -116.61,-25.54 -2.26,15.57 -4.77,31.12 -7.28,46.67 -33.71,-5.91 -67.47,-11.64 -101.31,-16.84 -121.76,68.54 -243.62,136.87 -365.38,205.39 -10.75,5.96 -21.25,12.99 -33.48,15.52 -16.44,3.96 -34.19,0.99 -48.7,-7.53 -124.47,-70.04 -249.05,-139.9 -373.49,-209.96 -3.33,-2.31 -7.26,-3.04 -11.14,-1.98 -32.29,5.15 -64.53,10.61 -96.7,16.49 -2.63,-15.88 -5.04,-31.78 -7.55,-47.66 -38.87,8.07 -77.5,17.25 -116.31,25.54 17.68,-21.25 35.82,-42.1 53.68,-63.18 6.46,-7.84 13.97,-15 18.72,-24.08 -46.42,7.51 -91.68,20.7 -137.01,32.98 -22.67,6.44 -45.4,12.66 -67.85,19.78l0 -466.71c98.06,0.03 196.16,-0.02 294.22,0.03 0.05,-119.86 0.03,-239.71 0.03,-359.57 0.12,-10.27 -0.74,-20.65 1.24,-30.77 5.1,-26.63 31.89,-49.36 59.38,-45.63 91.5,32.75 186.06,57.3 282.2,71.58 0.08,-7.91 0.76,-15.83 2.59,-23.51 -15.63,-32.17 -23.34,-69.78 -13.9,-104.92 7.78,-29.62 28.43,-54.63 53.85,-71.17 -3.07,-19.16 -8.5,-38.53 -19.79,-54.59 -8.09,-11.59 -20.95,-21.99 -35.81,-20.98 -6.67,0.28 -11.67,4.85 -15.12,10.15 -0.89,-13.35 1.34,-28.39 12.05,-37.57 11.29,-10.15 27.44,-10.58 41.8,-9.79 -8.55,-25.65 -25.21,-52.18 -52.76,-59.87 -21.46,-7.23 -44.09,12.94 -44.44,34.48 -1.27,28.43 13.24,54.36 27.09,78.15 -32.85,-1.12 -66.05,-14.76 -87.03,-40.66 -24.53,-29.91 -31.3,-70.34 -29.81,-108.04 3.33,-25.16 15.15,-49.33 32.98,-67.45 19.38,-19.4 46.34,-29.45 73.33,-31.83z"/>
   <path class="fil1" d="M572.25 465.62c8.75,-3.7 17.3,1.96 25.55,4.44 89.66,31.12 182.17,54.28 276.16,67.88l0.58 0.08c0.81,3.93 1.7,7.86 2.66,11.77 -100.04,-13.75 -198.33,-39.19 -293.46,-72.88 -11.87,-4.11 -21.86,9.41 -20.65,20.39 -0.07,109.84 0,219.7 -0.02,329.54 0.13,14.89 -0.48,29.83 0.53,44.72l0.03 0.81c-3.99,0.1 -7.99,0.2 -12,0.28 0.1,-125.92 -0.08,-251.84 0.1,-377.76 -0.25,-12.86 7.96,-25.54 20.52,-29.27zm776.31 901.69c6.47,0.79 12.96,1.63 19.38,2.84 -111.08,62.18 -221.98,124.68 -332.96,187.03 -10.3,5.45 -20.22,13.06 -32.29,13.65 -8.07,0.63 -15.95,-1.96 -22.88,-5.89 -115.26,-64.94 -230.76,-129.52 -345.97,-194.53 6.34,-0.81 12.68,-2.36 19.13,-1.98l2.1 0.53c106.21,59.82 212.54,119.4 318.75,179.19 7.59,4.13 14.92,9.43 23.59,10.98 8.96,1.45 16.95,-3.83 24.43,-7.94 108.8,-61.46 218,-122.26 326.72,-183.88zm339.24 -164.65c3.35,-3.17 9.97,1.93 6.93,5.76 -3.22,2.05 -9.69,-1.93 -6.93,-5.76zm-1065.7 15.93c250.49,-34.98 505.85,-35.31 756.31,0.18 -0.6,3.04 -1.19,6.11 -1.75,9.18 -249.29,-35.16 -503.49,-35.13 -752.76,0.03 -0.59,-3.12 -1.2,-6.27 -1.8,-9.39zm-223.86 -67.19c12.48,-2.62 24.91,-5.43 37.39,-8.07 -0.03,2.18 -0.08,6.57 -0.1,8.75 -9.95,2.03 -19.89,4.19 -29.76,6.55 0.05,9.74 0.1,19.5 -0.12,29.24 -14.59,3.17 -29.1,6.7 -43.63,10.02 0.02,-2.18 0.05,-6.57 0.07,-8.75 12,-2.89 24,-5.68 36.02,-8.42 0.1,-9.79 0.05,-19.56 0.13,-29.32zm387.16 -28.92c1.5,-0.03 4.52,-0.08 6.01,-0.1 -0.17,2.97 -0.38,5.96 -0.6,8.95 -4.01,-1.24 -4.44,-5.45 -5.41,-8.85zm364.57 -3.63c3.12,-0.07 6.24,-0.1 9.38,-0.13 -0.07,1.78 -0.28,5.36 -0.38,7.13 -2.82,-0.28 -5.6,-0.53 -8.39,-0.78 -0.16,-1.55 -0.46,-4.67 -0.61,-6.22zm-186.17 -3.8c2.62,-0.21 5.23,-0.38 7.84,-0.56 -0.15,2.51 -0.3,5 -0.43,7.53 -2.46,-0.15 -4.92,-0.25 -7.36,-0.38 -0.02,-2.21 -0.02,-4.41 -0.05,-6.59zm-399.18 4.89c12.98,-2.41 26.12,-4.03 39.19,-6.19 -0.1,2.77 -0.21,5.56 -0.31,8.35 -10.7,1.54 -21.38,3.35 -32.09,4.84 -0.12,9.72 -0.02,19.41 -0.27,29.12 -12.87,2.03 -25.68,4.24 -38.46,6.6 -0.03,-2.13 -0.03,-6.37 -0.03,-8.47 10.35,-1.73 20.7,-3.63 31.05,-5.3 0.56,-9.59 -1.24,-19.66 0.92,-28.95zm168.86 -20.01c1.57,0.18 4.74,0.56 6.34,0.76 3.3,18.54 5.48,37.34 8.37,55.98 -1.62,0.15 -4.84,0.48 -6.47,0.64 -2.79,-19.13 -5.5,-38.26 -8.24,-57.38zm458.69 -7.97c13.35,1.47 26.84,1.75 40.16,3.48 0.13,1.57 0.38,4.74 0.51,6.34 -11.04,-0.71 -22.05,-1.73 -33.08,-2.31 0.03,17.5 -0.13,34.98 0.1,52.48 -1.93,0.08 -5.76,0.28 -7.66,0.36 -0.1,-20.12 -0.05,-40.23 -0.03,-60.35zm-90.7 -20.24c1.9,0 5.7,0 7.6,0 0,25.16 0,50.3 0,75.47 -1.9,0 -5.7,0 -7.6,0 0,-25.17 0,-50.31 0,-75.47zm-185.81 -5.02c1.75,-0.03 5.22,-0.03 6.97,-0.03 0.26,26.16 -0.6,52.36 0.49,78.49 -3.4,-1.96 -8.04,-3.99 -7.31,-8.78 -0.41,-23.21 0,-46.47 -0.15,-69.68zm360.93 -0.84c1.73,0.08 5.18,0.18 6.9,0.25 -0.25,23.11 0.36,46.22 -0.33,69.36 -14.89,-1.73 -29.8,-3 -44.72,-4.32 0,-1.64 0,-4.94 0,-6.57 12.69,1.27 25.39,2.24 38.08,3.61 0.02,-20.78 -0.15,-41.55 0.07,-62.33zm302.93 -13.77c23.94,56.84 46.21,114.48 68.79,171.9 -3.58,-0.6 -5.94,-2.51 -7.03,-5.65 -19.86,-50.25 -39.9,-100.45 -59.99,-150.63 -2.2,-4.92 -1.67,-10.42 -1.77,-15.62zm-661.43 1.85c12.1,-4.95 27.55,0.25 35.39,10.37 -11.49,-4.54 -23.97,-5.73 -35.39,-10.37zm190.43 -6.95c0.96,-2.33 1.95,-4.67 2.94,-6.98 10.88,0 21.76,-0.07 32.65,0.13 -0.05,1.7 -0.18,5.12 -0.23,6.85 -11.8,-0.03 -23.59,-0.03 -35.36,0zm130.63 -15.88c20.04,0.63 40.39,-1.65 60.17,2.54 6.62,1.29 11.7,5.88 16.01,10.78 -24.05,-10.17 -50.89,-4.98 -76.23,-6.32 0.03,-1.75 0.03,-5.25 0.05,-7zm296.66 -44.24c1.75,-0.05 5.28,-0.13 7.03,-0.18 -0.03,62.46 0.07,124.91 -0.05,187.36 -4.44,-0.86 -8.88,-1.7 -13.27,-2.51 -0.03,8.44 0,16.92 -0.03,25.39 -2.35,-0.51 -4.71,-1.02 -7.05,-1.5 0.16,-10.45 0.1,-20.87 0.1,-31.3 4.44,0.89 8.86,1.75 13.35,2.64 -0.08,-59.97 0.07,-119.93 -0.08,-179.9zm-90 -0.18c1.93,0.05 5.76,0.13 7.66,0.18 -0.43,56.97 0.54,113.97 -0.48,170.92 -14.61,-2.67 -29.32,-4.85 -43.98,-7.23 0,-1.52 0.02,-4.54 0.02,-6.06 12.25,1.87 24.48,3.83 36.71,5.93 0.2,-54.56 0,-109.15 0.07,-163.74zm-169.37 0c1.78,0.05 5.3,0.13 7.08,0.16 -0.05,3.93 -0.05,7.88 -0.05,11.84 -1.7,0.08 -5.1,0.23 -6.8,0.31 -0.13,-4.11 -0.18,-8.22 -0.23,-12.31zm-261.22 0.05c1.9,0 5.71,0 7.61,0 0,44.83 0,89.65 0,134.47 -4.41,-0.05 -8.83,-0.08 -13.22,-0.1 -0.12,8.04 -0.15,16.11 -0.12,24.17 -1.88,0 -5.68,-0.02 -7.59,-0.02 0,-10.38 -0.07,-20.75 0.16,-31.13 4.36,0.03 8.75,0.08 13.16,0.11 0,-42.49 0,-85.01 0,-127.5zm-99.56 0c1.75,0 5.22,0 6.97,0 0.08,18.32 -0.17,36.63 0.16,54.92 -15.15,0.43 -30.27,0.33 -45.41,0.08 0.1,-2.49 0.23,-4.97 0.36,-7.43 12.63,0 25.26,0 37.92,0 0,-15.86 0,-31.71 0,-47.57zm-88.15 0c1.9,0 5.71,0 7.61,0 0.05,46.63 -0.1,93.25 0.08,139.9 -4.47,0.33 -8.96,0.68 -13.42,1.09 0,7.66 0,15.35 0.07,23.03 -1.75,0.15 -5.27,0.48 -7.02,0.64 0,-10.3 0,-20.63 0,-30.93 4.13,-0.22 8.27,-0.4 12.4,-0.5 0.64,-44.39 0.1,-88.81 0.28,-133.23zm-344.37 0.06c1.75,0 5.25,-0.06 7,-0.08 -0.13,60.9 0.28,121.81 -0.2,182.69 -3.43,2.48 -8.37,2.1 -12.38,3.34 -0.15,7.39 0.13,14.79 -0.25,22.2 -2.34,1.07 -4.77,1.8 -7.36,2.21 -0.15,-10.53 -0.28,-21.06 0.18,-31.58 4.39,-0.89 8.75,-1.8 13.11,-2.72 -0.18,-58.7 0.03,-117.37 -0.1,-176.06zm-84.93 18.21c-0.02,-6.14 -0.02,-12.3 0.05,-18.44 1.93,0.1 5.76,0.33 7.69,0.43 -0.13,6.09 -0.2,12.2 -0.35,18.31 -2.46,-0.1 -4.93,-0.2 -7.39,-0.3zm319.16 -21.89c1.57,0.25 4.74,0.71 6.32,0.96 5.02,31.25 9.28,62.66 13.97,93.98 -13.85,0 -27.7,0 -41.55,0 0.26,-1.75 0.77,-5.22 1.04,-6.95 10.96,-0.02 21.95,0 32.93,-0.05 -4.06,-29.32 -8.85,-58.57 -12.71,-87.94zm926.93 -32.52c16.92,0 33.82,0 50.73,0 0,1.75 0,5.22 0,6.97 -14.28,-0.07 -28.56,0.18 -42.81,-0.2 -0.84,55.53 0.17,111.1 -0.51,166.66 -2.97,-7.56 -7.58,-14.89 -7.43,-23.24 0.05,-50.07 0,-100.12 0.02,-150.19zm-121.76 0c17.84,0 35.69,0 53.53,0 0.78,2.33 1.57,4.67 2.38,7.02 -16.31,-0.12 -32.62,-0.05 -48.93,-0.05 -0.03,7.82 -0.03,15.63 0,23.44 -1.72,0.03 -5.17,0.08 -6.9,0.1 -0.13,-10.17 -0.1,-20.34 -0.08,-30.51zm-156.43 11.97c5.58,-9.16 17.1,-11.67 27.04,-11.95 20.32,-0.07 40.61,-0.02 60.93,-0.02 10.4,0.33 22.68,2.56 28.54,12.22 -17.76,-8.09 -37.62,-4.49 -56.44,-5.25 -15.37,0.54 -32.22,-2.41 -46.12,5.76 -12.35,7.92 -12.71,24.07 -13.37,37.16 -0.4,40.16 -0.02,80.34 -0.17,120.52 -0.26,14.94 -0.23,30.87 8.34,43.83 -11.51,-7 -15.19,-20.95 -15.24,-33.63 -0.13,-43.91 0.02,-87.8 -0.08,-131.71 0.03,-12.45 -0.07,-25.9 6.57,-36.93zm-168.2 -3.58c7.4,-6.97 18.14,-8.44 27.9,-8.44 29.45,0.12 58.88,-0.03 88.33,0.1 -0.18,1.77 -0.56,5.35 -0.74,7.13 -26.68,-0.49 -53.4,-0.06 -80.08,-0.26 -10.35,0.05 -22.17,1.52 -29.25,9.95 -7.71,9.69 -7.51,22.83 -7.53,34.57 0.58,17.88 -2.56,36.91 6.26,53.37 -4.97,-4.19 -9.71,-9.11 -11.28,-15.62 -3.76,-14.87 -2.24,-30.32 -2.57,-45.49 0.13,-12.12 0.38,-25.77 8.96,-35.31zm-88.17 -8.29c14.56,-0.23 29.12,-0.03 43.68,-0.1 0,1.72 0,5.22 0,6.97 -12,-0.02 -24.03,0.03 -36.05,-0.07 -13.87,30.03 -27.07,60.34 -41.07,90.3 -3.45,-0.15 -6.9,-0.28 -10.32,-0.41 14.76,-32.13 29.25,-64.43 43.76,-96.69zm-107.86 30.19c0.02,-10.1 0,-20.17 0.1,-30.24 19.2,-0.1 38.4,-0.03 57.61,-0.05 0,1.75 0,5.22 0,6.97 -16.72,0.05 -33.44,-0.15 -50.15,0.13 0.07,7.79 0.07,15.6 0.05,23.39 -2.54,-0.08 -5.1,-0.15 -7.61,-0.2zm-187.05 -30.29c36.32,0.07 72.62,-0.13 108.92,0.07 10.45,0.74 23.16,2.31 28.97,12.38 -15.3,-7.53 -32.57,-5.17 -48.98,-5.48 -27.35,0.15 -54.72,-0.33 -82.06,0.23 0.12,7.69 0.12,15.4 0.15,23.11 -1.7,0.08 -5.15,0.23 -6.87,0.3 -0.21,-10.19 -0.16,-20.39 -0.13,-30.61zm-143.96 0.02c26.31,-0.12 52.59,0.13 78.89,-0.12 0.46,2.36 0.92,4.74 1.37,7.15 -24.3,-0.08 -48.62,-0.25 -72.95,0.1 -10.4,62.4 -21.21,124.75 -31.86,187.13 -3.27,1.01 -7.74,0 -10.2,2.61 -0.5,7.23 0.23,14.51 -0.33,21.74 -1.7,0.38 -5.07,1.11 -6.77,1.49 0,-10.55 0.03,-21.07 -0.02,-31.58 3.32,-0.4 6.64,-0.76 9.96,-1.11 10.61,-62.48 21.39,-124.9 31.91,-187.41zm-201.02 -0.02c23.23,0 46.47,0.02 69.7,0 0,1.75 0.03,5.22 0.03,6.97 -20.62,-0.1 -41.25,0.18 -61.89,-0.17 -0.26,7.91 -0.26,15.82 -0.36,23.76 -1.85,-0.02 -5.58,-0.1 -7.43,-0.12 -0.08,-10.15 -0.05,-20.3 -0.05,-30.44zm-150.93 12.17c7.23,-9.84 20.52,-11.67 31.86,-12.17 27.83,0.1 55.68,-0.26 83.5,0.23 -0.4,1.64 -1.26,4.97 -1.67,6.62 -25.49,0.4 -51.01,-0.13 -76.5,0.2 -9.72,0.76 -20.7,1.7 -27.83,9.13 -7.69,7.87 -8.45,19.58 -8.75,29.96 0,78.3 0.07,156.58 -0.03,234.86 -1.9,0.51 -5.65,1.48 -7.53,1.98 -0.08,-78.07 0.05,-156.15 -0.05,-234.23 0.18,-12.33 -0.31,-25.95 7,-36.58zm-67.22 -67.95c499.28,-0.03 998.56,0 1497.82,-0.03 0.08,137.74 0.08,275.48 0,413.19 -49.77,-14 -99.69,-27.52 -150.17,-38.73 4.21,-2.23 8.37,-4.54 12.58,-6.77 42.95,9.99 85.69,20.95 128.05,33.2 0.16,-130.46 0.08,-260.94 0.05,-391.4 -493.17,0.05 -986.31,0 -1479.45,0.02 -0.03,130.46 0.05,260.9 -0.03,391.35 42.36,-12.17 85.08,-23.08 127.97,-33.2 4.01,2.16 8.02,4.36 11.98,6.65 -49.85,11.92 -99.54,24.58 -148.8,38.83 0,-137.71 0,-275.42 0,-413.11zm327.81 -69.81c0.17,-110.85 -0.11,-221.68 0.15,-332.5 95.58,34.32 194.56,59.41 295.16,73.56 -3.65,3.43 -7.33,6.85 -10.91,10.35 -92.31,-14.61 -182.89,-38.78 -271.06,-69.55 0.1,102.65 -0.08,205.31 0.07,307.97 -4.36,3.52 -8.8,6.97 -13.41,10.17zm630.88 -273.32c71.38,-14.94 142.07,-33.97 210.49,-59.28 -0.08,0.38 -0.23,1.14 -0.31,1.52 -4.64,7.66 -10.07,14.76 -14.86,22.32 -87.08,29.45 -176.91,50.94 -267.94,63.9 -1.81,-1.65 -3.56,-3.35 -5.26,-5.07 -1.11,-3.28 -2.13,-6.57 -3.07,-9.9 27.2,-3.01 54.11,-8.24 80.95,-13.49zm206.86 -86.58c10.15,-2.68 20.75,3.66 26.61,11.77 6.64,8.73 4.95,20.3 5.17,30.57 -0.1,121.71 -0.02,243.44 -0.05,365.15 -3.83,0 -7.63,0 -11.41,0 -0.03,-126 0.1,-251.99 -0.05,-377.98 0.83,-10.79 -10.73,-21.92 -21.39,-17.41 -71.28,25.47 -144.46,45.64 -218.7,60.32 -16.54,3.12 -33.03,6.63 -49.75,8.43 1.12,-1.5 3.4,-4.54 4.54,-6.07 -0.25,-1.42 -0.73,-4.23 -0.99,-5.65 90.56,-14.72 179.67,-38.2 266.02,-69.13z"/>
   <path class="fil2" d="M636.3 1277.8c8.07,-0.08 20.6,-5.33 25.21,3.9 2.36,11.39 3.48,23.14 3.89,34.78 -0.18,9 -11.34,9.46 -17.96,10.5 -7.46,0.13 -17.63,4.11 -22.78,-3.3 -2.82,-11.36 -3.25,-23.28 -4.21,-34.9 -0.38,-8.73 9.28,-10.35 15.85,-10.98zm18.87 90.07c8.37,-2.05 17.02,-2.43 25.5,-3.85 104.58,58.62 209.06,117.44 313.6,176.19 3.91,2.92 8.88,2.31 12.81,-0.23 103.57,-58.19 207.09,-116.48 310.71,-174.54 9.89,-3.15 20.6,1.39 30.77,1.87 -108.72,61.62 -217.92,122.42 -326.72,183.88 -7.48,4.11 -15.47,9.39 -24.43,7.94 -8.67,-1.55 -16,-6.85 -23.59,-10.98 -106.21,-59.79 -212.54,-119.37 -318.75,-179.19l0.1 -1.09zm333.67 -25.03c90.89,-0.49 181.82,4.66 272.23,14.1 7.89,0.86 15.88,1.22 23.62,3.14 -98.2,55.12 -196.29,110.45 -294.56,165.44 -5.5,3.73 -11.54,-0.23 -16.43,-2.94 -94.44,-53.32 -189.16,-106.13 -283.52,-159.53 99.05,-12.38 198.82,-19.63 298.66,-20.21zm417.15 -49.47c0.15,-5.1 4.84,-9.46 10.04,-8.6 10.66,0.48 21.08,3.05 31.68,4.14 -0.58,4.97 -1.16,9.96 -1.75,14.96 -4.49,-0.5 -8.98,-0.99 -13.47,-1.42 -0.63,-1.39 -1.92,-4.16 -2.58,-5.55 -2.51,0.02 -5,0.07 -7.46,0.15 -0.18,2.54 -0.36,5.1 -0.53,7.68 7.84,1.96 20.42,0.11 23.74,9.37 -0.38,7.78 1.09,21.25 -9.23,23.05 -11.65,-0.1 -23.06,-3.09 -34.6,-4.46 0.63,-5.23 1.29,-10.43 1.98,-15.63 5.14,0.76 10.27,1.5 15.44,2.23 -1.57,5.89 4.47,5.41 8.48,6.42 0.33,-3.14 0.68,-6.26 1.04,-9.38 -7.28,-1.5 -15.68,-0.94 -21.77,-5.76 -3.98,-4.95 -1.62,-11.57 -1.01,-17.2zm-846.83 -3.96c11.14,-3.07 22.78,-3.62 34.12,-5.65 0.56,4.97 1.12,9.94 1.65,14.94 -5.73,-0.03 -13.9,4.92 -17.5,-1.75 -2.29,0.5 -4.6,1.04 -6.88,1.6 1.32,9.2 2.54,18.41 3.58,27.67 2.92,-0.51 5.83,-0.99 8.78,-1.45 -0.61,-4.31 -0.33,-9.89 -6.5,-8.65 -0.68,-3.39 -0.66,-6.72 0.08,-9.91 6.54,-1.6 13.29,-2.16 19.94,-3.17 1.19,9.99 2.51,19.98 3.95,29.95 -11.24,1.8 -22.47,4.19 -33.86,4.82 -12.1,-0.58 -9.49,-15.24 -11.42,-23.56 -0.07,-8.04 -5.86,-20.7 4.06,-24.84zm775.5 -16c17.3,2.28 34.6,4.49 51.92,6.62 -0.61,6.24 -1.24,12.48 -1.82,18.74 -3.71,-0.38 -7.41,-0.71 -11.09,-1.04 -0.96,-3.88 0.03,-9.71 -5.61,-9.51 -0.1,10.22 -5.3,21.31 -0.32,30.97 0.07,2.21 0.17,6.62 0.22,8.83 -7.94,-1.12 -15.98,-1.57 -23.84,-3.14 -2.06,-2.54 -0.25,-6.37 -0.61,-9.36 1.09,-0.71 3.3,-2.11 4.41,-2.82 1.53,-8.6 2.41,-17.38 2.51,-26.08 -1.21,-0.17 -3.67,-0.5 -4.89,-0.68 -0.18,1.95 -0.51,5.88 -0.69,7.86 -4,-0.5 -8.01,-0.96 -11.99,-1.44 0.43,-6.35 1.04,-12.66 1.8,-18.95zm-649.66 -1.78c8.02,-0.71 16.04,-1.55 24.05,-2.26 0.31,3.28 0.61,6.6 0.86,9.92 -0.86,0.81 -2.56,2.44 -3.42,3.25 0.35,8.65 1.57,17.25 2.33,25.9 1.6,-0.13 4.82,-0.36 6.45,-0.48 -0.26,-3.02 -0.49,-6.07 -0.71,-9.06 5.35,-0.48 10.67,-0.94 16.03,-1.37 0.53,6.47 1.09,12.94 1.72,19.43 -14.58,1.52 -29.17,3.25 -43.76,4.72 0.13,-4.47 -1.8,-9.97 2.9,-12.78 -0.59,-8.53 -0.92,-17.1 -2.39,-25.5 -0.94,-0.33 -2.79,-0.94 -3.73,-1.27 -0.12,-3.5 -0.25,-7.02 -0.33,-10.5zm578.73 -5.78c7.05,0.61 14.11,1.34 21.16,2.08 -0.41,6.32 -0.91,12.63 -1.52,18.95 2.61,0.3 5.22,0.66 7.86,1.01 0.53,-6.34 1.04,-12.66 1.57,-18.97 7.03,0.61 14.06,1.34 21.08,2.13 -0.23,3.02 -0.43,6.04 -0.61,9.05 -1.11,0.66 -3.32,1.98 -4.41,2.67 -0.38,10.27 -4.08,21.15 0.91,30.87 0.03,1.8 0.05,5.4 0.08,7.2 -7.1,-0.76 -14.21,-1.49 -21.31,-2.18 0.56,-6.67 1.14,-13.34 1.73,-19.99 -1.93,0.05 -5.79,0.18 -7.71,0.23 -1.05,6.24 -1.27,12.61 -1.81,18.92 -6.95,-0.78 -13.9,-1.52 -20.85,-2.23 0.21,-2.64 0.66,-7.89 0.89,-10.53 1.04,-0.07 3.12,-0.2 4.16,-0.27 0.48,-8.12 1.24,-16.21 2,-24.31 -2.99,-4.36 -3.62,-9.48 -3.22,-14.63zm-68.31 15.02c1.09,-6.73 -1.29,-17.51 7.49,-19.64 11.76,-0.96 23.54,1.57 35.33,2.11 -0.33,4.92 -0.58,9.84 -0.86,14.79 -5.33,-1.42 -14.89,2.41 -16.36,-5.05 -1.96,-0.26 -5.86,-0.74 -7.82,-0.97 -0.33,9.57 -1.06,19.13 -1.62,28.72 2.21,-0.18 6.62,-0.53 8.83,-0.71 0.15,-1.93 0.4,-5.76 0.56,-7.69 -1.2,0.03 -3.55,0.08 -4.72,0.1 -0.03,-3.78 -0.05,-7.56 -0.05,-11.31 7.12,0.48 14.25,1.04 21.38,1.62 -0.58,10.18 -1.34,20.35 -1.8,30.52 -12.89,-2.31 -27.24,0.38 -39.11,-5.81 -4.93,-7.96 -0.89,-17.93 -1.25,-26.68zm-46.11 -24.1c8.27,0.35 16.51,0.91 24.75,1.6 -0.05,4.56 -0.15,9.36 -4.11,12.45 -1.52,7.66 -1.54,15.58 -1.47,23.36 3.07,4.11 3.71,9.13 3.61,14.16 -8.58,-0.71 -17.13,-1.27 -25.7,-1.65 0.3,-3.38 0.66,-6.72 1.04,-10.07 0.81,-0.54 2.43,-1.65 3.25,-2.21 1.24,-8.45 1.64,-17.1 1.24,-25.62 -0.91,-0.66 -2.77,-2 -3.68,-2.66 0.28,-2.34 0.81,-7.03 1.07,-9.36zm-331.62 2.28c14.23,-0.61 28.44,-1.9 42.67,-2.69 0.13,5.61 0.33,11.24 0.66,16.87 -4.67,0.23 -9.36,0.51 -14.03,0.81 1.57,-6.85 -4.26,-5.68 -8.85,-5.45 0.23,2.89 0.48,5.81 0.76,8.75 3.98,-0.25 7.94,-0.48 11.92,-0.71 0.18,2.43 0.56,7.36 0.74,9.82 -4.06,0.22 -8.12,0.5 -12.15,0.81 0.07,3.22 0.15,6.47 0.25,9.71 2.74,-0.25 5.45,-0.56 8.22,-0.78 -0.15,-1.58 -0.48,-4.7 -0.63,-6.27 5.2,-0.33 10.4,-0.61 15.62,-0.81 0.13,5.68 0.33,11.41 0.66,17.12 -14.86,0.84 -29.68,2.21 -44.54,2.82 -0.03,-4.62 0.56,-9.13 3.17,-13.02 1.09,-8.34 -0.15,-16.89 -0.79,-25.26 -1.01,-0.3 -3.04,-0.94 -4.08,-1.24 0.13,-3.53 0.25,-7 0.4,-10.48zm253.13 -6.54c6.65,0.48 13.4,0.15 19.94,1.49 5.89,7.94 9.59,17.28 15.47,25.24 0.36,-8.27 0.34,-16.51 0.54,-24.76 6.39,0.13 12.76,0.38 19.15,0.56 -0.15,3.48 -0.28,6.98 -0.41,10.48l-3.65 0.46c0.96,9.96 -4.79,22.42 3.07,30.41 -0.15,2.18 -0.43,6.57 -0.58,8.78 -6.6,-0.31 -13.19,-0.66 -19.76,-0.97 -4.92,-8.62 -10.15,-17.1 -14.92,-25.82 -0.3,8.34 -0.76,16.66 -1.12,25.01 -6.26,-0.2 -12.53,-0.51 -18.77,-0.94 -0.05,-3.2 -0.07,-6.37 -0.07,-9.51 0.99,-0.53 2.94,-1.62 3.93,-2.18 0.99,-8.42 0.38,-16.92 1.17,-25.37 -5.43,-2.15 -3.38,-8.37 -3.99,-12.88zm-150.16 0.71c6.44,-0.28 12.88,-0.64 19.32,-0.89 -0.07,4.79 0.18,9.84 -3.8,13.34 -0.25,8.68 0.73,17.35 0.46,26.05 1.16,0 3.5,0 4.66,-0.02 -0.17,3.57 -0.33,7.15 -0.45,10.78 -6.37,0.1 -12.71,0.71 -19.08,0.58 -6.87,-7.48 -11.59,-16.61 -17.6,-24.76 0.61,8.53 0.84,17.1 1.19,25.65 -6.52,0.35 -13.04,0.58 -19.56,0.91 0.03,-3.47 0.05,-6.92 0.1,-10.35l3.58 -1.7c0.53,-8.62 -0.43,-17.25 -0.63,-25.85 -5.38,-1.67 -3.35,-7.91 -4.47,-11.94 7.76,0.83 19.53,-5.1 23.8,4.11 4.38,6.52 8.52,13.24 12.91,19.78 0.02,-8.57 -0.33,-17.12 -0.43,-25.69zm79.14 -2.67c7.05,-0.02 14.1,0 21.13,0 -0.03,6.42 -0.08,12.81 0,19.23 4.11,-5.86 7.68,-12.1 10.96,-18.44 5.37,-0.13 10.78,-0.2 16.15,-0.28 0.08,3.58 0.13,7.13 0.23,10.73 -1.42,0.1 -4.21,0.33 -5.6,0.43 -2.21,3.32 -4.42,6.6 -6.6,9.95 2.29,-0.08 6.9,-0.26 9.21,-0.36 0.3,5.99 0.43,11.97 0.46,17.96 1.06,0.05 3.22,0.15 4.31,0.18 0.02,3.78 0.05,7.56 0.1,11.36 -7.25,-0.38 -14.48,-0.68 -21.74,-0.79 0.3,-6.08 0.64,-12.17 0.91,-18.23 -2.1,0 -6.29,-0.03 -8.39,-0.03 -0.03,6.09 0,12.18 0.02,18.29 -7.28,0.13 -14.56,0.13 -21.81,-0.1 0.84,-4.16 -2.16,-11.39 4.59,-11.44 0.08,-8.73 0.13,-17.43 0.08,-26.15 -5.23,-2.06 -3.5,-7.92 -4.01,-12.31zm388.89 3.07c3.65,-16.92 5.71,-34.14 10.12,-50.88l2.71 1.77c37.87,23.8 77.14,45.36 114.94,69.33 -42.62,-6.57 -85.16,-13.72 -127.77,-20.22zm-790.26 -48.42c0.99,-0.59 2.94,-1.73 3.91,-2.31 3.17,17.12 6.31,34.24 9.61,51.32 -43.12,7.07 -86.35,13.67 -129.42,21.07 38.58,-23.46 77.32,-46.64 115.9,-70.08zm25.47 22.78c249.27,-35.16 503.47,-35.19 752.76,-0.03 -0.38,2.16 -1.16,6.44 -1.54,8.6 -248.21,-35.11 -501.34,-35.23 -749.55,0.08 -0.56,-2.9 -1.14,-5.79 -1.67,-8.65zm-381.08 -341.41c402.05,-0.02 804.08,-0.02 1206.11,-0.02 102.84,-0.15 205.7,0.3 308.53,-0.23 0.84,144.33 0.1,288.69 0.36,433.03 -56.24,-16.06 -112.76,-31.08 -169.81,-44.04 3.78,-2.03 7.56,-4.03 11.34,-6.06 50.48,11.21 100.4,24.73 150.17,38.73 0.08,-137.71 0.08,-275.45 0,-413.19 -499.26,0.03 -998.54,0 -1497.82,0.03 0,137.69 0,275.4 0,413.11 49.26,-14.25 98.95,-26.91 148.8,-38.83l0.38 -0.11c3.75,2.11 7.51,4.19 11.23,6.35 -56.79,13.14 -113.2,27.85 -169.21,44.03 -0.16,-144.26 -0.03,-288.54 -0.08,-432.8zm524.12 -27.8c6.36,2.49 9.94,8.4 13.69,13.73 -5.47,-0.08 -10.93,-0.03 -16.38,0.1 0.91,-4.62 1.8,-9.21 2.69,-13.83zm581.8 -24.27c7.38,14.58 18.51,26.71 30.03,38.1 -3.58,-0.03 -7.13,-0.03 -10.68,-0.05 -6.67,-8.88 -15.24,-16.42 -26.84,-17.35 2.92,-6.75 5.38,-13.68 7.49,-20.7zm-300.09 20.9c35.03,-10.86 63.22,-35.67 89.82,-59.89 6.6,28.54 23.11,53.34 39.5,77.14 -3.75,-0.08 -7.51,-0.15 -11.24,-0.26 -12.81,-19.88 -25.46,-40.33 -31.81,-63.34 -23.81,24.53 -52,45.51 -84.16,57.74l-0.94 0.4c-0.41,-3.93 -0.79,-7.89 -1.17,-11.79zm-459.99 -17.81c16.31,-15.4 32.73,-30.72 49.06,-46.14 16.59,20.95 38.63,39.04 65.19,45.1 10.99,2.89 24.07,0.05 33.16,8.3 5.48,4 5.68,11.13 6.41,17.24l-0.48 -0.81c-2.84,-4.38 -5.25,-9.53 -10.09,-12.05 -9.52,-5.45 -20.86,-3.19 -31.21,-4.94 -24.88,-3.53 -46.31,-18.67 -63.36,-36.4 -14.56,13.87 -29.15,27.75 -43.88,41.45 -1.63,-3.91 -3.22,-7.84 -4.8,-11.75zm317.94 -79.67c19.41,7.63 39.14,15.32 56.04,27.8 15.98,12.05 28.66,28.05 38.38,45.45 5.68,9.9 11.89,20.78 23.26,24.89 0.4,4.69 0.73,9.41 0.66,14.13 -6.68,-3.25 -14.64,-4.42 -20.12,-9.72 -5.66,-8.29 -8.7,-18.08 -14.43,-26.35 -17.81,-28.52 -47.03,-47.54 -77.45,-60.43 -9.1,37.42 -36.22,68.04 -68,88.53 -10.38,6.98 -23.04,8.5 -35.16,9.72 -1.07,-1.93 -3.22,-5.79 -4.29,-7.69 14.44,-0.89 29.35,-4.01 40.87,-13.32 29.73,-22.85 54.23,-55.29 60.24,-93.01zm270.74 -17.61c1.16,3.88 2.53,7.79 2.51,11.92 -6.52,11.52 -14.03,22.48 -22.48,32.68 10.91,31.42 29.3,59.48 45.81,88.14 -5.2,-1.34 -7.3,-6.49 -10.19,-10.37 -16.8,-25.29 -33.82,-51.09 -43.23,-80.18 10.56,-13.14 19.69,-27.32 27.58,-42.19zm125.58 -73.38c24.13,40.13 35.49,88.25 29.12,134.84 -3.22,24.76 -11.41,48.71 -23.05,70.75 -3.94,0.03 -7.84,0.05 -11.72,0.08 11.18,-59.46 2.69,-123.54 -29.48,-175.39 4.92,-3.85 9.97,-7.58 15.09,-11.21 27.63,40.13 35.01,90.89 29.51,138.53 -1.02,11.13 -3.68,22.04 -5.15,33.15 16.59,-30.06 20.85,-65.62 16.92,-99.38 -3.58,-28.62 -12.86,-56.37 -26.23,-81.86 -2.72,-3.93 3.42,-6.52 4.99,-9.51zm-656.42 38.1c2.97,-24.81 12.17,-49.26 27.72,-68.97 1.65,2.84 3.3,5.68 4.95,8.55 -17.35,25.51 -25.39,57.53 -21.26,88.17 2.69,-26.81 12.48,-53.91 31.99,-73.11 38.23,46.22 94.26,76.1 153.03,86.25 -0.81,1.57 -2.43,4.77 -3.24,6.34 -55.05,-9.39 -110.19,-32.82 -146.82,-76.35 -7.97,9.33 -13.62,20.44 -16.9,32.26 -8.01,28.62 -9.86,58.75 -7.25,88.28 -16.79,-27.09 -26.23,-59.46 -22.22,-91.42zm556.76 -79.63c25.49,1.93 48.93,16.54 64.05,36.88 -2.69,3.99 -5.56,7.84 -8.57,11.57 -15.76,-13.85 -37.8,-14.41 -57.51,-17.09 0.43,-3.5 -0.1,-7.28 1.4,-10.53 17.9,-0.33 35.05,5.68 51.16,12.99 -13.98,-14.11 -32.62,-22.91 -51.95,-26.82 0.36,-1.75 1.07,-5.25 1.42,-7zm-47.21 -12.05c8.5,2.72 16.97,5.66 25.32,8.83 3.47,58.7 -16.51,120.44 -59.28,161.71 15.55,-18.14 29.45,-37.97 38.25,-60.32 1.19,-2.99 2.36,-6.01 3.5,-9.03 4.44,-11.92 7.69,-24.27 9.97,-36.81 0.58,-3.47 1.12,-6.95 1.62,-10.4 1.85,-13.52 1.6,-27.16 1.45,-40.76 -5.66,-1.85 -11.34,-3.63 -16.97,-5.53 -3.63,-1.04 -4.9,-3.6 -3.86,-7.69zm-457.04 18.32c29.9,-16.16 64.81,-17.81 97.86,-21.99 0.25,2.38 0.81,7.15 1.06,9.56 -26.68,4.11 -54.23,7.43 -79.04,18.67 27.93,-3.81 56.82,-7.21 84.65,-0.84 0.79,2.87 1.6,5.73 2.41,8.6 -31.66,-1.75 -64.08,-3.73 -95.15,3.83 -4.31,-5.71 -8.22,-11.67 -11.79,-17.83zm419.17 -22.3c0.18,1.14 0.56,3.48 0.74,4.64 -7.13,9.06 -16.03,16.64 -26.41,21.77 -0.07,-1.22 -0.2,-3.63 -0.28,-4.82 9.92,-5.56 18.95,-12.58 25.95,-21.59zm-299.01 -0.02c10.02,-1.27 20.03,-2.62 30.06,-3.83 -0.36,3.06 -0.74,6.13 -1.1,9.2 -6.97,0.84 -13.92,1.73 -20.87,2.59 1.16,12 3.07,23.95 6.39,35.54l0.51 1.7c9.76,34.12 33.1,64.45 65.16,80.28 -27.95,-9.74 -50.68,-31.73 -63.59,-58.11 -10.32,-20.9 -16.01,-44.09 -16.56,-67.37zm312.43 -7.69c4.39,2.08 8.78,4.19 13.12,6.37 0.3,50.17 -11.95,104.43 -48.33,141.08 31.99,-37.89 45.31,-88.52 44.34,-137.43 -3.5,-1.57 -6.97,-3.17 -10.42,-4.72 0.4,-1.77 0.83,-3.55 1.29,-5.3zm-13.24 -20.12c-0.15,10.25 -11.06,14.97 -18.92,18.9 -0.1,-1.14 -0.33,-3.45 -0.46,-4.59 7.38,-3.4 13.85,-8.37 19.38,-14.31zm-256.02 16.82c21.36,-1.9 42.13,-9.79 58.75,-23.46 2.36,2.56 4.71,5.12 7.1,7.71 -16.51,12.73 -36.58,20.19 -57.28,22.27 -3.22,18.37 -1.22,37.87 7.82,54.36 7.53,14.71 19.98,25.88 32.34,36.48 -23.59,-14.05 -44.11,-36.55 -49.11,-64.28 -2.28,-10.93 -1.5,-22.14 0.38,-33.08zm75.16 -18.64c0.84,-3.96 1.65,-7.94 2.43,-11.92l0.41 2.13c0.69,4.41 1.42,9.23 5.58,11.79 39.27,31.23 89.42,44.5 138.32,50.99 0.28,1.19 0.86,3.63 1.14,4.82 -52.81,-6.29 -107.7,-21.21 -147.88,-57.81zm-1.8 -23.79c-4.64,-2.16 -2.03,-7.23 -1.78,-10.99 1.52,3.55 3.07,7.36 6.62,9.41 42.59,30.57 95.68,45.56 147.94,44.04 0.02,1.19 0.07,3.52 0.1,4.72 -54.23,1.57 -109.48,-14.26 -152.88,-47.18zm202.07 24.22c91.03,-12.96 180.86,-34.45 267.94,-63.9 0.3,118.54 0.1,237.07 0.1,355.61 -17.76,-12.94 -27.75,-33.1 -40.08,-50.71 -5.33,-6.24 -1.98,-14.53 -1.82,-21.81 5.19,-58.95 -12.16,-122.85 -57.18,-163.36 -6.75,5.38 -13.14,11.16 -19.76,16.67 -18.82,-30.39 -52.08,-48.91 -86.12,-57.03l-0.96 3.76c-23.21,-5 -46.52,-10.43 -68.47,-19.71l1.09 -4.59c1.7,1.72 3.45,3.42 5.26,5.07zm-113.49 -72.01c6.62,-0.28 13.24,-0.72 19.88,-0.77 -0.55,0.79 -1.65,2.34 -2.2,3.12 -4.75,0.56 -9.52,0.74 -14.26,0.99 1.4,13.96 3.48,27.86 4.19,41.88l0.1 2.26c-2.41,-1.77 -3.66,-4.46 -3.58,-7.46 -1.44,-13.34 -2.69,-26.68 -4.13,-40.02zm-30.8 0.5c6.01,-0.05 12.03,-0.05 18.04,-0.02 -0.05,0.78 -0.21,2.38 -0.26,3.17 -4.74,-0.03 -9.48,-0.03 -14.2,-0.03 1.34,11.98 2.74,23.95 4.16,35.92 -0.74,-0.23 -2.18,-0.68 -2.92,-0.94 -2.51,-12.55 -2.99,-25.44 -4.82,-38.1zm-400.63 -1.77c88.17,30.77 178.75,54.94 271.06,69.55 -23.84,12.2 -51.41,10 -77.29,12.94 -0.08,1.72 -0.2,5.22 -0.25,6.97 -31.43,2.41 -63.06,6.42 -92.94,16.92 -3.18,-4.84 -6.4,-9.66 -9.57,-14.51 -30.13,17.38 -53.67,46.68 -62.37,80.57 -8.78,33.89 -4.49,70.41 8.7,102.58 -11.24,12.22 -24.48,22.42 -37.27,32.95 -0.15,-102.66 0.03,-205.32 -0.07,-307.97zm461.43 -0.48c5.97,-0.82 11.93,-1.96 17.96,-2.24 0.41,0.81 1.25,2.46 1.68,3.27 -5.33,0.72 -10.68,1.32 -16.01,1.96 1.98,16.18 3.96,32.36 5.96,48.57l-3.35 0.23c-2.02,-17.27 -4.26,-34.52 -6.24,-51.79zm-126.77 24.14c6.01,-11.03 6.16,-23.59 8.19,-35.59 3.98,11.37 1.77,23.37 -1.47,34.6 34.11,19.33 73.08,27.78 111.46,33.92 14.91,1.72 30.03,5.61 45.07,2.99 2.89,-0.81 5.68,-1.82 8.45,-3.04 15.6,-7.16 27.62,-19.74 38.43,-32.72 -0.28,1.75 -0.84,5.25 -1.12,7 -14.15,18.72 -35.31,37.46 -60.5,34.88 -30.77,-2.85 -61.38,-8.2 -91.11,-16.7 -20.09,-5.93 -40.03,-13.44 -57.4,-25.34zm172 -31.96c5.05,-1.44 10.12,-2.86 15.27,-3.93 -0.5,0.81 -1.57,2.41 -2.1,3.22 -3.22,1.35 -6.52,2.51 -9.79,3.7 1.54,15.73 3.57,31.41 4.92,47.14 -0.64,1.54 -1.45,2.99 -2.41,4.36 -2.34,-18.11 -4.06,-36.33 -5.89,-54.49zm19.46 -6.19c4.54,-2.2 9.1,-4.41 13.72,-6.47l1.32 -0.58c-0.96,5.73 -7.38,6.75 -11.59,9.29 0.84,13.21 2.46,26.35 3.73,39.54 -0.66,1.14 -1.93,3.4 -2.59,4.52 -2.06,-15.38 -3.27,-30.85 -4.59,-46.3zm78.46 45.15c74.24,-14.68 147.42,-34.85 218.7,-60.32 10.66,-4.51 22.22,6.62 21.39,17.41 0.15,125.99 0.02,251.98 0.05,377.98 -5.51,0 -11.01,0 -16.49,0 0,-76.08 0,-152.15 0,-228.22 -0.33,-50.15 0.66,-100.33 -0.51,-150.45 0.08,-0.38 0.23,-1.14 0.31,-1.52 -68.42,25.31 -139.11,44.34 -210.49,59.28 -26.84,5.25 -53.75,10.48 -80.95,13.49 5.53,-6.72 12.03,-12.58 17.74,-19.15l0.5 -0.07c16.72,-1.8 33.21,-5.31 49.75,-8.43zm-634.34 -40.23c-1.21,-10.98 8.78,-24.5 20.65,-20.39 95.13,33.69 193.42,59.13 293.46,72.88 0.74,5.55 -0.1,11.06 -1.59,16.41l-0.79 -0.13c-100.6,-14.15 -199.58,-39.24 -295.16,-73.56 -0.26,110.82 0.02,221.65 -0.15,332.5 -2.59,3.73 -6.02,7.38 -6.35,12.12 -0.65,7.84 4.42,14.41 8.05,20.88 -5.33,5.18 -11.39,9.51 -17.61,13.55 -1.01,-14.89 -0.4,-29.83 -0.53,-44.72 0.02,-109.84 -0.05,-219.7 0.02,-329.54zm321.85 -13.82c2.59,-5.73 8.6,-7.97 14.15,-9.69 -21.33,14.51 -17.96,53.95 7.21,62.32 -5.71,-0.1 -12.03,-0.48 -15.86,-5.37 -11.16,-12.53 -13.16,-32.47 -5.5,-47.26zm215.77 -39.17c1.29,-0.5 3.88,-1.52 5.14,-2.05 8.27,5.5 16.24,11.49 23.87,17.86 -10.07,6.16 -20.44,11.97 -31.68,15.7 7.48,-5.18 15.02,-10.27 21.97,-16.19 -6.44,-5.09 -12.91,-10.14 -19.3,-15.32zm-73.31 -123.94c28.08,9.85 49.31,33.87 61.28,60.48 7.61,16.05 11.34,33.48 14.31,50.88 -2.56,1.63 -5.1,3.27 -7.64,4.92 -3.22,-45.48 -27.72,-88.73 -65.54,-114.27 -0.61,-0.51 -1.8,-1.5 -2.41,-2.01zm-110.47 -0.5c15.09,-8.02 33.3,-5.56 48.47,0.96 18.29,5.1 33.51,18.26 42.77,34.68 -7.51,-6.29 -14.08,-14.34 -23.79,-17.33 -18.6,-5.63 -36.76,-19.91 -57.05,-12.2 -24.94,11.06 -43.99,34.88 -48.88,61.82 -4.59,21.43 -1.15,43.6 5.07,64.35 5.71,-1.82 11.67,-4.18 17.78,-2.99 7.13,1.12 12.46,6.39 17.93,10.6 7.64,-2.36 15.81,-3.73 23.65,-1.42 13.19,3.6 26.66,5.96 40.13,8.14 -17.89,3.05 -35.85,-1.7 -53.76,-0.83 -5.25,-0.05 -8.24,4.41 -10.72,8.32 -4.52,-6.93 -11.27,-13.42 -20.02,-13.7 -8.01,0.61 -15.34,5.05 -19.38,12.05 -12.22,-24.35 -16.94,-52.56 -12.89,-79.5 4.8,-30.39 24.74,-57.07 50.69,-72.95zm20.26 -29.07c34.91,2.89 71.31,24.15 80.62,59.76 -0.92,-0.66 -2.74,-2 -3.65,-2.66 -9.9,-29.53 -40.46,-46.25 -69.74,-50.51 -0.55,1.45 -1.7,4.32 -2.25,5.76 -1.83,-4.06 -3.48,-8.17 -4.98,-12.35zm-180.5 -254.93c28.56,-21.69 67.12,-25.14 101.51,-19.2 -30.41,-1.04 -62.93,4.05 -87.59,23.13 -16.38,12.35 -25.89,31.86 -28.99,51.85 21.69,-26.53 49.36,-50.73 83.79,-58.14 27.16,-5.94 55.88,1.16 78.55,16.84 24.41,16.85 46.17,39.01 58.02,66.59 15.17,34.14 20.7,72.47 17.32,109.55 -4.54,-15.7 -10.91,-32.21 -24.73,-42.1 4.31,7.96 8.96,15.9 11.09,24.8 5.86,21.39 2.56,43.71 1.19,65.45 -4.85,-1.22 -9.67,-2.36 -14.54,-3.37 -6.34,3.7 -12.88,7.07 -19.43,10.42 0.05,-13.98 -2.33,-29.37 -12.58,-39.72 -4.36,-4.77 -10.68,-6.72 -16.64,-8.63 16.59,13.42 19.41,36.63 14.03,56.19 -2.92,-21.21 -10.3,-43.99 -28.39,-57.02 -11.89,-8.93 -27.19,-10.73 -41.62,-9.92 5.73,-7.59 13.59,-13.78 23.08,-15.7 13.12,-3.25 26.46,0.38 39.01,4.08 -6.8,-28.94 -19.25,-58.52 -43.45,-77.14 -14.91,-11.03 -35.84,-17.93 -53.37,-8.9 -14.66,6.11 -23.36,19.83 -30.52,33.25 -0.17,-17.17 2.11,-34.9 11.29,-49.79 -16.76,13.47 -25.24,35.33 -25.24,56.49 -0.07,10.43 2.36,20.6 4.52,30.74 -21.21,-24.63 -30.31,-59.94 -22.6,-91.62 -13.98,28.77 -13.24,64.28 3.02,92 -16.16,-15.57 -26.66,-36.68 -31.53,-58.44 -7.79,-36.73 4.56,-78.41 34.8,-101.69zm47.59 45.05l0 0c25.11,-7.99 54.51,-8.2 76.55,7.94 29.63,21.23 41.65,57.81 49.82,91.7 -2.26,-28.16 -8.32,-56.62 -22.02,-81.58 -8.95,-16.59 -24.17,-31.02 -43.32,-34.2 -21.56,-3.39 -42.82,5.36 -61.03,16.14zm-492.11 867.11c10.3,-9.56 24.99,-11.94 38.51,-12.63 32.52,-0.07 65.06,0 97.58,-0.02 0.05,28.1 0.03,56.24 0,84.34 -21.53,0 -43.1,0 -64.66,0 0,-7.84 0,-15.65 0,-23.46 -4.23,-0.03 -8.44,-0.03 -12.68,0 0,58.36 0,116.73 0,175.1 4.19,-0.91 8.37,-1.83 12.58,-2.71 0.15,-9.85 0.1,-19.66 0.1,-29.48 22.4,-4.92 44.8,-9.79 67.22,-14.64 0,30.37 0,60.76 0,91.14 -51.51,10.91 -102.98,22.53 -153.46,37.6 -0.03,-87.97 0.05,-175.97 -0.03,-263.96 0.21,-14.72 3.33,-31.05 14.84,-41.28zm6.6 6.78l0 0c-9.79,8.47 -12.58,22.07 -12.53,34.5 0,83.88 -0.03,167.79 0,251.7 44.67,-12.15 89.77,-22.54 135.02,-32.26 0.18,-24.15 -0.1,-48.3 0.15,-72.45 -16.46,3.33 -32.87,6.85 -49.16,10.83 0.33,9.72 0.33,19.46 0.05,29.18 -10.27,2.13 -20.49,4.54 -30.69,7.07 -0.48,-65.52 0,-131.04 -0.25,-196.56 10.3,-0.1 20.59,-0.05 30.92,-0.2 0.25,8.06 0.28,16.13 0.18,24.22 15.65,0 31.3,0 46.95,0 -0.05,-22.22 0.1,-44.44 -0.08,-66.66 -27.95,0.2 -55.88,-0.05 -83.81,0.13 -12.81,0.25 -26.83,1.47 -36.75,10.5zm135.86 -19.43c33.18,0 66.36,0 99.54,0.02 -0.03,20.3 0.15,40.59 -0.11,60.88 -4.18,-0.02 -8.39,-0.02 -12.58,0 -0.02,46.85 0.16,93.7 -0.07,140.53 1.77,-0.1 5.32,-0.33 7.1,-0.43 -0.05,-9.82 -0.05,-19.63 0.05,-29.43 23.44,-3.47 46.8,-7.33 70.21,-10.8 0.13,9.69 0.1,19.38 0.1,29.07 1.86,-0.28 5.56,-0.86 7.41,-1.17 10.33,-62.91 21.49,-125.69 31.96,-188.57 34.73,-0.28 69.46,0.08 104.18,-0.18 10.33,57.05 20.01,114.23 29.88,171.35 6.83,-0.18 13.68,-0.63 20.5,-1.12 0.3,-36.42 0.05,-72.85 0.13,-109.27 -4.44,0 -8.86,0 -13.27,0.02 -0.1,-20.29 -0.03,-40.58 -0.05,-60.9 40.61,0 81.2,0 121.78,0 16.01,-0.05 33.59,4.54 43.43,18.13 11.59,15.35 8.06,35.57 8.52,53.48 0.1,14.71 -4.95,29.6 -16.21,39.49 16.49,12.28 16.26,34.55 15.58,53.04 9.08,-0.66 18.18,-0.61 27.29,-0.53 0,-34.25 0,-68.49 0,-102.73 -4.41,0 -8.83,0 -13.22,0.02 -0.2,-20.29 -0.04,-40.58 -0.07,-60.88 29.15,-0.02 58.32,-0.02 87.46,0 0.1,18.9 -0.15,37.8 0.13,56.7 9.28,-18.72 17.04,-38.13 26.28,-56.85 22.47,0.31 44.97,0.05 67.45,0.15 -0.03,20.3 0.1,40.59 -0.05,60.88 -7.18,-0.02 -14.36,-0.02 -21.54,-0.12 -5.3,9.51 -10.63,19.05 -15.88,28.61 9.54,0.02 19.1,0 28.64,0.07 0.28,26.28 -0.71,52.64 0.48,78.87 5.68,0.68 11.44,0.78 17.17,1.16 0.13,-9.68 0.11,-19.35 0.03,-28.99 23.69,1.6 47.38,3.45 71.07,5.43 0,9.61 0,19.25 -0.02,28.89 4.44,0.43 8.88,0.84 13.34,1.27 0,-11.97 0,-23.97 0,-35.94 -23.36,-1.48 -50.48,5.15 -70.29,-10.73 -14.33,-11.22 -17.65,-30.52 -16.61,-47.69 1.11,-18.37 -2.84,-37.65 3.8,-55.27 6.7,-16.9 24.96,-26.56 42.62,-26.41 36.12,-0.05 72.24,-0.13 108.36,0.05 -0.07,26.18 -0.02,52.33 -0.02,78.53 -22.48,-0.45 -44.88,0.38 -67.3,1.07 -0.51,-6.29 -0.63,-12.61 -0.66,-18.92 -4.34,0.12 -8.75,-0.26 -12.99,0.68 -0.55,6.32 -0.23,12.66 -0.2,18.97 21.84,1.96 45.48,-3.19 65.7,7.51 14.48,7.33 21.41,24.02 21.13,39.62 -0.03,22.02 0.18,44.07 -0.08,66.08 -0.23,15.4 -5.91,32.6 -20.44,40.11 -15.42,9.03 -33.87,5.27 -50.66,3.98 -59.03,-5.3 -118.15,-9.61 -177.38,-11.44 -0.03,-26.84 0.07,-53.68 -0.05,-80.49 -4.01,0 -8.02,0.03 -12,0.05 -0.08,26.66 0.12,53.3 -0.1,79.96 -46.75,-1.04 -93.53,-0.84 -140.28,-0.41 -9.16,-0.3 -19.51,-1.04 -26.3,-8.04 -6.17,-6.24 -7.06,-15.57 -7.13,-23.92 0.07,-17.55 0.07,-35.11 0.05,-52.66 -4.67,-0.02 -9.31,-0.02 -13.95,0 -0.18,28.69 0.33,57.38 -0.26,86.04 -52.3,3.2 -104.81,6.37 -157.04,11.39 -2.74,-21.31 -6.31,-42.51 -9.44,-63.77 -6.26,-0.05 -12.53,-0.08 -18.77,-0.2 -4.08,22.75 -6.03,45.81 -10.29,68.54 -79.2,8.47 -157.96,21.08 -236.01,36.86 -0.13,-20.37 0,-40.77 -0.05,-61.14 4.39,-2.18 14.2,-0.1 13.29,-7.2 0.05,-50.15 0.03,-100.3 0.03,-150.45 -4.42,0.03 -8.83,0.05 -13.25,0.08 -0.15,-20.3 -0.05,-40.61 -0.07,-60.93zm9.66 8.8l0 0c-0.3,14.18 -0.1,28.33 -0.15,42.51 4.24,0.03 8.47,0.08 12.73,0.13 -0.17,57.23 0.05,114.45 -0.12,171.65 -4.19,0.94 -8.4,1.91 -12.58,2.87 -0.05,14.15 -0.03,28.33 -0.03,42.51 48.17,-9.28 96.47,-17.83 145.02,-24.88 0.46,-23.97 0.08,-47.94 0.2,-71.89 -16.99,3 -34.42,4.36 -51.14,8.57 -0.6,9.39 -0.15,18.83 -0.17,28.24 -8.68,1.65 -17.38,3.14 -26.11,4.51 0.13,-53.87 0,-107.75 0.08,-161.63 4.44,-0.05 8.9,-0.08 13.34,-0.1 -0.1,-14.16 -0.02,-28.28 -0.05,-42.41 -27.01,-0.06 -54,0.07 -81.02,-0.08zm201.94 0.05l0 0c-10.88,62.88 -21.2,125.84 -32.36,188.65 -3.76,0.46 -7.51,0.94 -11.27,1.42 0.1,14.23 0.13,28.46 0,42.72 20.27,-2.36 40.49,-5.2 60.7,-7.79 3.17,-22.83 5.76,-45.76 9.57,-68.44 11.41,-1.32 22.95,-0.02 34.45,-0.76 3.93,20.93 6.46,42.16 9.25,63.29 20.42,-1.17 40.74,-3.43 61.16,-4.95 -0.02,-14.13 0,-28.26 -0.02,-42.38 -4.34,0.25 -8.68,0.55 -13.02,0.86 -9.46,-55.28 -19.3,-110.5 -28.66,-165.77 -0.94,-2.46 -0.15,-8.22 -4.59,-6.82 -28.39,-0.06 -56.8,0.05 -85.21,-0.03zm142.08 0.33l0 0c0.35,14.03 0.1,28.11 0.2,42.16 4.42,0 8.88,0.05 13.34,0.1 -0.1,42.41 -0.07,84.82 -0.02,127.24 -4.47,0.35 -8.9,0.68 -13.34,0.99 0.1,14.18 -0.28,28.36 0.25,42.54 22.96,-1.5 45.96,-2.41 68.92,-4.19 -0.2,-28.82 0.13,-57.63 -0.18,-86.45 10.66,-0.48 21.31,-0.5 31.96,0 -0.12,21.31 -0.35,42.62 0.05,63.9 0.11,7.69 2.47,17.17 11.22,18.95 18.51,4.11 37.61,0.2 56.38,1.27 0.16,-14.21 0.06,-28.39 0.08,-42.57 -4.44,0 -8.88,-0.02 -13.32,-0.02 -0.63,-15.55 2.08,-32.52 -5.65,-46.78 -4.54,-8.39 -13.8,-11.59 -22.07,-15.01 7.18,-3.4 15.07,-6.45 20.01,-13.02 7.66,-9.64 7.97,-22.63 8.37,-34.37 -0.1,-11.97 0.97,-24.73 -4.61,-35.77 -5.3,-10.78 -17.07,-16.79 -28.62,-18.11 -15.98,-1.95 -32.13,-0.94 -48.17,-1.16 -24.93,0.17 -49.89,-0.38 -74.8,0.3zm188.19 -0.48l0 0c-0.63,14.18 -0.18,28.41 -0.3,42.61 4.44,0.03 8.92,0.11 13.39,0.18 -0.15,40.46 -0.13,80.94 0,121.4 -4.57,0.21 -9.11,0.38 -13.62,0.64 0.43,14 0.18,28 0.2,42.03 23.08,-0.38 46.12,1.14 69.23,0.61 -0.16,-26.61 -0.03,-53.19 -0.08,-79.8 10.02,-0.03 20.06,0.05 30.11,-0.23 0.91,26.86 -0.23,53.72 0.56,80.59 22.8,2.31 45.96,2.2 68.89,3.88 0,-14.18 0,-28.34 0,-42.49 -4.84,-0.33 -9.69,-0.58 -14.51,-0.79 -0.15,-26.12 -0.02,-52.28 -0.07,-78.4 -11.93,-0.03 -23.85,-0.03 -35.77,0.02 8.45,-15.85 17.6,-31.33 25.87,-47.28 6.27,-0.28 12.56,-0.38 18.85,-0.43 -0.13,-14.13 -0.05,-28.26 -0.08,-42.36 -17.47,-0.06 -34.95,0.07 -52.43,-0.08 -14.15,29.25 -25.92,59.74 -41.14,88.43 -0.64,-29.45 -0.1,-58.9 -0.28,-88.35 -22.96,-0.1 -45.89,0.2 -68.82,-0.18zm196.36 12.33l0 0c-9.79,9.97 -9.61,24.88 -9.64,37.89 0.43,14.41 -1.12,29.02 1.78,43.25 2.99,15.55 17.73,27.53 33.48,28.06 17.4,0.99 34.85,0.12 52.3,0.4 0.06,18.47 -0.15,36.96 0.13,55.43 -10.88,-0.46 -21.69,-1.7 -32.49,-2.82 -0.08,-9.43 0.33,-18.89 -0.13,-28.33 -17.1,-2.54 -34.6,-2.72 -51.85,-4.44 0.03,23.79 -0.05,47.56 0.03,71.35 31.71,2.72 63.41,5.43 95.12,8.15 9.79,0.76 20.42,0.53 28.89,-5.1 9.41,-5.25 13.88,-16.24 14.56,-26.56 1.68,-19.3 0.64,-38.71 0.94,-58.04 -0.38,-11.84 0.41,-24.98 -6.82,-35.08 -7.26,-10.3 -20.35,-14.23 -32.37,-14.81 -16.11,-0.76 -32.24,-0.13 -48.35,-0.33 0,-12.91 0,-25.8 0,-38.69 10.78,-0.02 21.59,-0.05 32.37,0.08 -0.03,6.09 -0.05,12.2 -0.03,18.32 16.26,0 32.55,0 48.83,0 -0.02,-20.32 0.08,-40.64 -0.07,-60.96 -30.46,0.18 -60.91,0 -91.34,0.08 -12.59,0.02 -26.56,2.18 -35.34,12.15zm183.78 -18.75c18.69,-4.34 38.1,-1.45 57.12,-2.28 19.64,-0.18 43,-1.8 57.58,14.05 14.82,15.25 12.48,38.05 13.42,57.58 -0.33,49.11 0.87,98.25 -0.78,147.33 -0.46,15.12 -5.41,32.39 -19.81,39.87 -18.04,8.65 -38.28,2.52 -56.98,-0.07 -21.51,-4.04 -45.33,-4.52 -63.34,-18.54 -13.52,-10.33 -19.33,-27.73 -19.43,-44.24 -0.2,-44.85 0.03,-89.7 -0.1,-134.55 0,-13.82 0.79,-28.43 8.04,-40.63 5.1,-9.18 14.08,-15.93 24.28,-18.52zm17.2 6.8l0 0c-9.97,0.58 -20.75,2.43 -28.13,9.74 -9.14,9.13 -11.85,22.7 -11.9,35.18 0.13,48.17 -0.05,96.37 0.07,144.54 0,15.32 7.87,30.87 21.69,38.12 17.78,9.62 38.59,9.74 58.02,13.68 15.85,1.98 33.83,7.99 48.47,-1.4 11.72,-8.55 12.68,-24.5 13.19,-37.77 0.08,-50.68 -0.03,-101.39 0.05,-152.09 -0.15,-13.27 -1.19,-28.06 -10.63,-38.36 -9.61,-10.58 -24.88,-11.29 -38.2,-11.79 -17.53,-0.03 -35.1,-0.31 -52.63,0.15zm113.48 -9.08c26.26,0.07 52.51,-0.18 78.79,0.15 11.72,29.91 23.87,59.66 35.69,89.54 2.13,5.61 4.29,11.21 7.49,16.31 0.93,-35.26 0.22,-70.59 0.38,-105.88 26.86,-0.25 53.72,-0.05 80.58,-0.12 -0.02,20.32 0.05,40.61 -0.05,60.93 -4.44,-0.05 -8.88,-0.08 -13.26,-0.05 -0.08,63.95 0.15,127.92 -0.13,191.87 4.46,1.29 8.95,2.58 13.44,3.88 0,20.87 0,41.78 0,62.68 -26.33,-7.51 -52.88,-14.21 -79.42,-20.93 -13.7,-35.41 -27.75,-70.72 -41.93,-105.95 -0.91,32.11 -0.15,64.25 -0.4,96.36 -26.99,-5.76 -54.03,-11.31 -81.15,-16.36 -0.05,-20.7 -0.03,-41.4 -0.03,-62.07 4.44,0.86 8.88,1.75 13.35,2.61 -0.05,-50.7 0,-101.41 -0.03,-152.09 -4.44,0 -8.85,0 -13.24,0.05 -0.15,-20.32 -0.05,-40.61 -0.08,-60.93zm9.64 8.82l0 0c-0.25,14.19 -0.1,28.36 -0.12,42.54 4.41,-0.02 8.85,0 13.31,0 0,57.69 0,115.34 0,173 -4.46,-0.84 -8.92,-1.67 -13.34,-2.46 0.05,14.33 -0.05,28.64 0.08,42.97 20.9,4.36 41.78,8.75 62.7,12.96 0,-44.36 0.1,-88.7 -0.02,-133.04 19.63,46.37 37.77,93.42 56.41,140.22 1.4,2.69 1.88,7.1 5.73,7.43 19.61,5.1 39.37,9.72 58.93,15 0.23,-14.54 0.05,-29.05 0.1,-43.56 -4.46,-1.32 -8.93,-2.61 -13.39,-3.9 0.15,-69.56 0.02,-139.09 0.07,-208.62 4.42,0 8.86,-0.02 13.32,0 -0.1,-14.2 0.26,-28.41 -0.23,-42.58 -20.62,0.2 -41.24,0.07 -61.86,0.07 -0.23,49.01 0.15,98.02 -0.18,147 -20.17,-48.78 -39.4,-97.92 -59,-146.92 -20.83,-0.13 -41.68,0.02 -62.51,-0.11zm-807.1 34.3c6.29,28.61 8.8,57.99 13.75,86.88 -8.9,0 -17.81,0 -26.71,0 4.29,-28.97 8.73,-57.91 12.96,-86.88zm-0.2 56.19l0 0c-0.69,7.33 -1.65,14.63 -2.82,21.91 2.29,-0.15 4.57,-0.3 6.88,-0.45 -1.12,-7.21 -2.31,-14.41 -4.06,-21.46zm167.95 -47.95c10.58,-0.02 21.13,0 31.71,0 0,13.96 0,27.88 0,41.83 -10.58,0.03 -21.16,0.05 -31.71,-0.02 0,-13.93 0,-27.85 0,-41.81zm8.85 9.52l0 0c0.03,7.61 0.03,15.22 0.03,22.83 4.64,0 9.28,0 13.95,0 0,-7.59 0,-15.17 0.05,-22.76 -4.69,-0.05 -9.36,-0.07 -14.03,-0.07zm522.49 -9.41c10.33,-0.16 20.65,-0.08 31,-0.21 0.38,52.31 0,104.59 0.18,156.89 -10.43,-1.47 -20.83,-3.17 -31.18,-4.89 0.16,-50.61 0.13,-101.19 0,-151.79zm8.96 9.41l0 0c0,44.79 -0.05,89.56 0.02,134.36 4.42,0.71 8.86,1.42 13.3,2.16 0,-45.51 0,-91.02 0,-136.52 -4.47,-0.03 -8.91,-0.03 -13.32,0zm-669.16 269.36c10.02,-2.31 20.47,-2.05 30.67,-3.3 5.3,-0.73 13.29,-0.28 14.66,6.19 1.85,10.83 2.15,21.92 2.38,32.9 0.74,5.41 -3.98,9.82 -9.13,10.17 -11.9,1.78 -23.97,2.11 -35.92,3.45 -0.28,-4.76 -1.6,-10.02 2.77,-13.49 0.07,-8.09 -0.97,-16.16 -1.45,-24.25 -4.77,-1.6 -5.53,-7.54 -3.98,-11.67zm20.75 8.75l0 0c0.76,9.18 1.37,18.42 2.03,27.63 2.08,-0.08 6.21,-0.23 8.29,-0.31 -0.71,-9.38 -1.37,-18.72 -1.77,-28.11 -2.87,0.26 -5.71,0.51 -8.55,0.79zm-132.23 14.13l0 0c1.16,9.36 2.18,18.72 3.17,28.08 2.81,-0.4 5.6,-0.78 8.42,-1.19 -1.4,-8.98 -1.75,-18.11 -3.53,-27.04 -2,0.05 -6.04,0.13 -8.06,0.15z"/>
   <path class="fil3" d="M581.59 1206.39c5.55,-1.04 11.21,-1.24 16.84,-1.19 -38.58,23.44 -77.32,46.62 -115.9,70.08 43.07,-7.4 86.3,-14 129.42,-21.07 119.96,-18.32 241.28,-28.29 362.64,-30.14 129.72,-1.27 259.39,8.19 387.92,25.44 8.75,1.09 17.5,2.39 26.18,4.11 42.61,6.5 85.15,13.65 127.77,20.22 -37.8,-23.97 -77.07,-45.53 -114.94,-69.33 35.36,3.93 70.32,11.34 105.37,17.58 34.43,6.47 68.82,13.24 102.86,21.49 -2.38,1.97 -4.82,3.95 -7.56,5.42 -20.77,10.86 -41.16,22.4 -61.97,33.24 15.5,21.84 34.98,40.58 51.14,61.97 -27.67,-5.74 -55.17,-12.38 -83.02,-17.2 -2.54,15.06 -4.11,30.31 -7.18,45.25 -0.96,0.25 -2.84,0.73 -3.8,0.99 -106.75,-18.37 -214.2,-33.26 -322.28,-40.79 -127.29,-9.59 -255.31,-8.5 -382.42,2.79 -98.19,8.45 -195.8,22.45 -292.83,39.57 -3.22,-15.85 -5.12,-31.91 -7.91,-47.84 -27.78,5.05 -55.28,11.62 -82.95,17.2 16.89,-20.62 34.7,-40.46 51.57,-61.08 -22.68,-14.33 -47.79,-24.68 -70.14,-39.5 63.24,-14.76 127.21,-26.2 191.19,-37.21zm35.1 166.73c5.69,-1.09 11.39,-2.03 17.15,-2.71 115.21,65.01 230.71,129.59 345.97,194.53 6.93,3.93 14.81,6.52 22.88,5.89 12.07,-0.59 21.99,-8.2 32.29,-13.65 110.98,-62.35 221.88,-124.85 332.96,-187.03 5.4,0.08 10.7,1.22 15.98,2.26 -1.95,1.7 -3.99,3.25 -6.14,4.67 -113.29,63.47 -226.39,127.24 -339.63,190.75 -9.79,5.41 -19.33,12.28 -30.79,13.37 -11.75,1.8 -23.77,-1.19 -33.87,-7.28 -118.86,-67.04 -238.08,-133.5 -356.8,-200.8zm20.58 -84.62c2.02,-0.02 6.06,-0.1 8.06,-0.15 1.78,8.93 2.13,18.06 3.53,27.04 -2.82,0.41 -5.61,0.79 -8.42,1.19 -0.99,-9.36 -2.01,-18.72 -3.17,-28.08zm132.23 -14.13c2.84,-0.28 5.68,-0.53 8.55,-0.79 0.4,9.39 1.06,18.73 1.77,28.11 -2.08,0.08 -6.21,0.23 -8.29,0.31 -0.66,-9.21 -1.27,-18.45 -2.03,-27.63zm832.9 -74.65c4.92,8.45 8.24,17.68 10.96,27.04 -3.76,-0.81 -7.46,-1.62 -11.17,-2.44 0.18,-8.21 0.16,-16.41 0.21,-24.6zm-898.95 -9.89c2.4,-16.06 4.46,-32.17 6.44,-48.3 3.85,15.29 4.23,31.2 7.86,46.55 60.68,-4.62 121.35,-10.84 182.23,-12.23 0.28,-3.3 0.59,-6.55 0.92,-9.82 17.63,10.96 38.91,8.58 58.64,7.97 105.88,-1.63 211.78,3.68 317.13,14 13.85,1.04 28.38,0.66 41.17,-5.3 8.27,-3.6 14.23,-10.58 20.85,-16.39 8.7,16.95 25.26,27.65 43.02,33.23 -0.99,6.42 -2.03,12.86 -3.3,19.23 -250.46,-35.49 -505.82,-35.16 -756.31,-0.18 -1.12,-5.98 -2.03,-12.02 -2.72,-18.06 27.93,-4.21 56.01,-7.36 84.07,-10.7zm-319.37 -155.47c23.04,-1.58 46.15,-0.03 69.23,-0.81 1.45,25.41 0.4,50.96 0.51,76.42 -23.06,4.7 -46.02,9.85 -68.95,15.05 -1.52,-30.17 0.05,-60.45 -0.79,-90.66zm602.22 -14.79c0.66,18.67 0.38,37.36 0.21,56.06 -2.16,-10.17 -5.03,-20.35 -10.66,-29.17 5,-8.32 8.04,-17.56 10.45,-26.89zm-196.66 -9.54c3.09,0.1 6.19,0.23 9.31,0.38 -0.25,16.69 0.56,33.43 -0.43,50.12 -3.55,-16.71 -6.42,-33.61 -8.88,-50.5zm-529.06 -105.73c493.14,-0.02 986.28,0.03 1479.45,-0.02 0.03,130.46 0.11,260.94 -0.05,391.4 -42.36,-12.25 -85.1,-23.21 -128.05,-33.2 8.27,-3.73 15.61,-10.28 24.64,-11.88 29.17,6.27 57.7,15.3 86.98,21.16 0.02,-29.98 0.2,-59.97 -0.08,-89.95 -4.41,-1.5 -8.83,-2.97 -13.22,-4.44 0.18,-55.73 -0.38,-111.46 0.28,-167.19 4.32,-0.05 8.63,-0.1 12.97,-0.12 -0.08,-29.56 0.71,-59.13 -0.41,-88.66 -35.64,0.03 -71.25,0.15 -106.89,-0.05 -1.09,16.82 -0.1,33.69 -0.51,50.56 -7.89,-16.34 -13.75,-33.54 -20.62,-50.31 -33.92,-0.3 -67.81,-0.25 -101.7,0 -0.17,3.35 -0.35,6.73 -0.53,10.1 -26.03,-14.13 -56.16,-9.54 -84.49,-10.3 -15.35,-0.28 -31.41,0 -45.46,6.95 -8.04,3.7 -13.95,10.48 -20.22,16.49 -0.17,-7.84 -0.3,-15.65 -0.43,-23.49 -40.43,0.36 -80.89,-0.23 -121.33,0.25 -13.84,0.11 -26.93,5.13 -38.63,12.26 -0.15,-4.14 -0.3,-8.25 -0.43,-12.33 -29.88,0.2 -59.79,-0.84 -89.62,0.53 -39.37,-1.42 -78.81,-0.1 -118.2,-0.76 -0.59,6.65 -0.74,13.32 -0.54,20.01 -7.23,-5.15 -13.8,-11.59 -22.37,-14.48 -21.74,-8.02 -45.28,-4.67 -67.93,-5.38 -32.57,0.48 -65.22,-0.99 -97.71,0.71 0.53,20.73 -0.03,41.43 0.46,62.15 -5.89,-20.57 -7.61,-42.01 -12.03,-62.91 -42.21,0.05 -84.42,0.1 -126.6,-0.02 -10.17,53.49 -18.11,107.42 -28.08,160.97 -21.38,2.89 -42.67,6.59 -64.03,9.69 -1.11,-27.14 0.06,-54.31 -0.6,-81.45 4.51,-0.31 9.03,-0.61 13.57,-0.89 -0.05,-29.4 -0.03,-58.82 -0.05,-88.22 -70.8,-0.1 -141.62,0 -212.44,-0.05 -19.89,0.2 -41.68,4.46 -55.76,19.63 -13.7,14.99 -16.74,36.27 -16.51,55.81 0.35,91.36 -0.51,182.78 0.45,274.13 24,-6.9 48.2,-13.17 72.4,-19.41 12.12,-4.54 21.79,6.6 32.26,10.86 -42.89,10.12 -85.61,21.03 -127.97,33.2 0.08,-130.45 0,-260.89 0.03,-391.35zm1071.19 -31.75c2.99,-5.86 6.13,-11.67 9.48,-17.35 11.6,0.93 20.17,8.47 26.84,17.35 -12.1,0.07 -24.22,0.07 -36.32,0zm-281.01 -5.76c32.16,-12.23 60.35,-33.21 84.16,-57.74 6.35,23.01 19,43.46 31.81,63.34 -38.98,0.41 -77.97,0.18 -116.96,0.13 0.25,-1.45 0.74,-4.31 0.99,-5.73zm-457.3 -17.45c14.73,-13.7 29.32,-27.58 43.88,-41.45 17.05,17.73 38.48,32.87 63.36,36.4 10.35,1.75 21.69,-0.51 31.21,4.94 4.84,2.52 7.25,7.67 10.09,12.05 -1.19,3.66 -2.33,7.36 -3.45,11.04 -39.72,0.63 -79.44,0.05 -119.17,0.35 -14.13,2.08 -18.9,-14.35 -25.92,-23.33zm319.48 -75.65c30.42,12.89 59.64,31.91 77.45,60.43 5.73,8.27 8.77,18.06 14.43,26.35 5.48,5.3 13.44,6.47 20.12,9.72l1.59 2.1c-54.46,0.71 -108.94,0.1 -163.4,0.31 -17.79,-0.33 -35.62,0.78 -53.35,-0.66 12.12,-1.22 24.78,-2.74 35.16,-9.72 31.78,-20.49 58.9,-51.11 68,-88.53zm244.43 11.22c8.45,-10.2 15.96,-21.16 22.48,-32.68 10.14,43.91 27.8,87.47 59.79,120.14 -12.15,0.56 -24.33,-0.23 -36.46,0.68 -16.51,-28.66 -34.9,-56.72 -45.81,-88.14zm-298.94 -37.19c8.3,-0.94 16.67,-0.99 24.99,-0.13 -2.69,32.32 -22.86,60.25 -47.18,80.36 -18.47,15.25 -47.89,16.49 -66.79,1.6 40.25,-11.69 74.07,-42.67 88.98,-81.83zm342.29 -15.96c23.95,-8.09 46.14,-20.54 67.07,-34.55 32.17,51.85 40.66,115.93 29.48,175.39 -11.04,-0.33 -22.15,0.83 -33.13,-0.56 -23.72,-21.28 -41.2,-49.21 -52.33,-78.99 -6.77,-19.66 -12.02,-40.36 -11.09,-61.29zm-524.75 -23.59c3.28,-11.82 8.93,-22.93 16.9,-32.26 36.63,43.53 91.77,66.96 146.82,76.35 -14.56,23.11 -33.28,44.67 -58.52,56.29 -21.11,9.31 -44.27,17.63 -67.68,13.72 -17.55,-2.66 -33,-12.89 -44.77,-25.82 -2.61,-29.53 -0.76,-59.66 7.25,-88.28zm525.26 -51.41c19.71,2.68 41.75,3.24 57.51,17.09l0.2 0.15c-20.24,19.59 -44.42,35.36 -71.33,44.04 6.49,-19.94 12.05,-40.31 13.62,-61.28zm-490.43 -7.26c31.07,-7.56 63.49,-5.58 95.15,-3.83 10.4,28.41 25.34,55.6 46.93,77.09 -53.96,-5.25 -109.28,-28.56 -142.08,-73.26zm116.46 -32.19c6.95,-0.86 13.9,-1.75 20.87,-2.59 0.16,8.1 0.66,16.19 1.98,24.18 -4.51,-0.03 -10.02,-2.41 -13.52,1.65 -3.02,3.34 -2.26,8.19 -2.94,12.3 -3.32,-11.59 -5.23,-23.54 -6.39,-35.54zm262.99 -5.99c8.1,-5.68 18.34,-8.21 26.79,-13.69 0.36,3.9 0.74,7.81 1.14,11.74 -7,9.01 -16.03,16.03 -25.95,21.59 -0.94,-6.52 -2.13,-13.04 -1.98,-19.64zm-219.34 -6.44c20.7,-2.08 40.77,-9.54 57.28,-22.27 37.59,36.5 89.49,53.4 140.17,61.49 13.4,2.58 28.24,2.28 39.85,-5.71 11.34,-7.03 17.91,-19.18 22.1,-31.43 3.45,1.55 6.92,3.15 10.42,4.72 0.97,48.91 -12.35,99.54 -44.34,137.43 -12.5,13.98 -29.07,24.18 -46.37,31.15 -7.4,3.68 -15.8,0.56 -21.63,-4.51 -11.5,-9.64 -20.45,-21.87 -31.89,-31.56 -24.6,-22.52 -59.18,-28.48 -85.43,-48.47 -12.36,-10.6 -24.81,-21.77 -32.34,-36.48 -9.04,-16.49 -11.04,-35.99 -7.82,-54.36zm69.43 -34.95c28.28,15.7 58.01,29.55 89.95,35.79 17.22,4.21 35,3.96 52.48,5.99 0.51,7 1.12,13.97 1.47,21 -48.9,-6.49 -99.05,-19.76 -138.32,-50.99 -4.16,-2.56 -4.89,-7.38 -5.58,-11.79zm156.92 8.22c6.72,-3.56 13.16,-7.69 18.99,-12.59 0.51,5.36 1.15,10.68 2.11,15.98 -5.53,5.94 -12,10.91 -19.38,14.31 -0.61,-5.91 -1.19,-11.79 -1.72,-17.7zm-205.75 -29.61c7.31,2.89 15.02,3.96 22.3,0.33 1.16,16.8 -15.98,26.28 -29.53,31.31 4.26,-10.05 8.04,-20.53 7.23,-31.64zm42.41 -3.6c49.09,18.01 99.87,38.28 153.16,34.96 0.61,6.16 1.07,12.32 1.4,18.49 -52.26,1.52 -105.35,-13.47 -147.94,-44.04 -3.55,-2.05 -5.1,-5.86 -6.62,-9.41zm15.25 -71.33c39.92,4.87 80.81,-0.35 118.69,-13.8 7.1,6.27 14.38,12.33 21,19.1 -52.31,15.73 -108.16,12.89 -161.48,4.14 0.1,-3.4 -0.71,-8.19 3.35,-9.69 5.98,-1.8 12.32,-0.18 18.44,0.25zm205.46 49.21c89.06,-14.79 176.73,-37.84 261.71,-68.31 15.04,-3.73 31.07,6.24 38.3,19.3 5.71,9.26 5.35,20.45 5.17,30.93 -0.2,122.62 0.18,245.21 -0.17,367.83 -3.58,0 -7.13,0.03 -10.66,0.03 0.03,-121.71 -0.05,-243.44 0.05,-365.15 -0.22,-10.27 1.47,-21.84 -5.17,-30.57 -5.86,-8.11 -16.46,-14.45 -26.61,-11.77 -86.35,30.93 -175.46,54.41 -266.02,69.13 0.74,-3.58 -2.89,-11.42 3.4,-11.42zm-613.66 -28.33c-0.98,-22.22 20.22,-44.39 42.85,-40.18 80.08,28.53 162.44,50.86 246.18,65.67 14.15,2.54 28.46,4.29 42.54,7.31 0.45,3.52 0.93,7.07 1.42,10.65 -93.99,-13.6 -186.5,-36.76 -276.16,-67.88 -8.25,-2.48 -16.8,-8.14 -25.55,-4.44 -12.56,3.73 -20.77,16.41 -20.52,29.27 -0.18,125.92 0,251.84 -0.1,377.76 -3.58,-0.05 -7.15,-0.08 -10.73,-0.1 0,-126.02 -0.13,-252.04 0.07,-378.06zm532.21 -36.91c9.39,-3.96 18.67,-8.19 27.53,-13.27 6.39,5.18 12.86,10.23 19.3,15.32 -6.95,5.92 -14.49,11.01 -21.97,16.19l-0.94 0.66c-8.24,-5.96 -16.51,-11.92 -23.92,-18.9zm-145.85 -131.6c20.29,-7.71 38.45,6.57 57.05,12.2 9.71,2.99 16.28,11.04 23.79,17.33 5.53,1.67 11.49,-0.18 17.17,-0.36 18.54,27.17 31.02,58.8 33.76,91.73 0.89,-0.21 2.64,-0.61 3.53,-0.82 0.48,-33.38 -10.27,-66.58 -28.21,-94.59 -0.63,-9.84 -2.86,-19.43 -4.61,-29.09 37.82,25.54 62.32,68.79 65.54,114.27 -34.01,19.33 -73.33,29.17 -112.34,29.83 -13.47,-2.18 -26.94,-4.54 -40.13,-8.14 -7.84,-2.31 -16.01,-0.94 -23.65,1.42 -5.47,-4.21 -10.8,-9.48 -17.93,-10.6 -6.11,-1.19 -12.07,1.17 -17.78,2.99 -6.22,-20.75 -9.66,-42.92 -5.07,-64.35 4.89,-26.94 23.94,-50.76 48.88,-61.82zm17.09 -28.59c29.28,4.26 59.84,20.98 69.74,50.51 -7.03,-4.82 -8.55,-14.06 -14.74,-19.69 -14.38,-16.33 -36.3,-23.23 -57.46,-24.55l0.21 -0.51c0.55,-1.44 1.7,-4.31 2.25,-5.76zm-5.75 -11.49c5.02,-2.91 9.91,-6.26 15.6,-7.79 33.02,6.25 63.46,30.72 72.01,63.98 1.37,2.56 -1.7,3.9 -2.87,5.68 -7.68,-17.35 -18.77,-33.74 -34.95,-44.24 -14.71,-10.22 -32.29,-14.99 -49.79,-17.63zm-39.58 187.89c23.87,9.28 28.08,47.81 7.21,62.32 -25.17,-8.37 -28.54,-47.81 -7.21,-62.32zm-4.74 19.43l0 0c-6.72,7.94 -3.88,27.72 8.85,26.33 7.46,-5.28 7.06,-16.92 2.57,-24.07 -2.08,-4.21 -8.07,-6.32 -11.42,-2.26zm197.4 -3.04c14.03,-3.48 27.65,-8.6 40.05,-16.11 0.28,3.93 0.59,7.89 0.89,11.84 -4.62,2.06 -9.18,4.27 -13.72,6.47 1.32,15.45 2.53,30.92 4.59,46.3 0.66,-1.12 1.93,-3.38 2.59,-4.52 3.12,-4.24 6.77,-8.02 10.37,-11.82 0.33,2.77 0.71,5.56 1.12,8.35 -10.81,12.98 -22.83,25.56 -38.43,32.72 -2.31,-24.43 -5.38,-48.78 -7.46,-73.23zm7.76 8.39l0 0c1.83,18.16 3.55,36.38 5.89,54.49 0.96,-1.37 1.77,-2.82 2.41,-4.36 3.17,-2.06 9.15,-3.05 9.03,-7.92 -0.66,-14.36 -2.26,-28.69 -4.16,-42.92 0.53,-0.81 1.6,-2.41 2.1,-3.22 -5.15,1.07 -10.22,2.49 -15.27,3.93zm-163.81 -3.63c48.88,4.87 98.49,4.27 147.17,-2.61 2.49,24.73 4.77,49.47 7.89,74.12 -15.04,2.62 -30.16,-1.27 -45.07,-2.99 -38.38,-6.14 -77.35,-14.59 -111.46,-33.92 3.24,-11.23 5.45,-23.23 1.47,-34.6zm118.58 11.45l0 0c1.98,17.27 4.22,34.52 6.24,51.79l3.35 -0.23c4.9,0.16 9.82,0.33 14.71,0.51 -1.11,-17.04 -4.92,-33.91 -4.66,-51.04 -0.43,-0.81 -1.27,-2.46 -1.68,-3.27 -6.03,0.28 -11.99,1.42 -17.96,2.24zm-60.8 2.25l0 0c1.83,12.66 2.31,25.55 4.82,38.1 0.74,0.26 2.18,0.71 2.92,0.94 4.64,0.69 9.28,1.6 13.87,2.66 -1.24,-12.86 -2.81,-25.69 -3.83,-38.55 0.05,-0.79 0.21,-2.39 0.26,-3.17 -6.01,-0.03 -12.03,-0.03 -18.04,0.02zm30.8 -0.5l0 0c1.44,13.34 2.69,26.68 4.13,40.02 -0.08,3 1.17,5.69 3.58,7.46l-0.1 -2.26c4.97,0.92 9.92,1.73 14.91,2.54 -0.94,-15.19 -2.76,-30.34 -4.84,-45.41 0.55,-0.78 1.65,-2.33 2.2,-3.12 -6.64,0.05 -13.26,0.49 -19.88,0.77zm132.03 111.71l3.6 1.19c5.63,1.9 11.31,3.68 16.97,5.53 0.15,13.6 0.4,27.24 -1.45,40.76 -5.4,-5.32 -16.69,-7.13 -18.51,2.49 -1.75,10.02 10.09,12.48 16.89,7.91 -2.28,12.54 -5.53,24.89 -9.97,36.81 -4.24,-2.84 -8.14,-9.34 -14.05,-6.98 -6.42,1.96 -8.04,11.42 -2.74,15.48 3.83,3.07 8.93,0.66 13.29,0.53 -8.8,22.35 -22.7,42.18 -38.25,60.32 -15.98,17.73 -36.58,30.47 -57.2,42.11 -10.05,5.33 -21.23,9.74 -32.73,9.56 -15.8,-7.48 -22.55,-25.03 -34.29,-37.01 -27.4,-28.61 -63.04,-47.23 -98.55,-63.72 -32.06,-15.83 -55.4,-46.16 -65.16,-80.28 7.35,2.87 14.86,1.72 19.88,-4.67 13.63,35.69 49.04,56.34 82.37,70.9 36.14,13.5 67.52,38.35 90.45,69.22 4.82,5.79 10.48,12.71 18.52,13.37 46.9,-18.95 84.5,-59.43 100.35,-107.45 8.5,-24.4 11.01,-50.38 10.58,-76.07zm-285.19 73.2l0 0c-6.75,3 -6.73,13.85 0.05,16.8 5.25,3.37 11.79,-1.17 13.21,-6.55 1.98,-6.97 -6.9,-14.08 -13.26,-10.25zm56.28 30.85l0 0c-6.36,2.21 -8.01,11.82 -2.61,15.93 4.72,4.31 13.19,2 14.81,-4.24 2.85,-7.25 -5.22,-14.4 -12.2,-11.69zm194.97 30.26l0 0c-4.92,1.07 -8.75,7.08 -6.29,11.85 1.85,6.69 12.25,7.86 15.37,1.52 5.22,-5.71 -1.83,-15.93 -9.08,-13.37zm-126.68 18.16l0 0c-6.34,3.1 -6.95,13.09 -0.61,16.57 5.45,4.06 13.88,-1.12 13.88,-7.64 1.06,-6.9 -7.39,-12.32 -13.27,-8.93zm81.15 20.09l0 0c-4.9,3.23 -5.91,10.68 -1.2,14.59 5.46,5.56 15.88,-0.25 14.36,-7.76 0.33,-6.7 -7.99,-9.72 -13.16,-6.83zm-758.07 162.4c9.92,-9.03 23.94,-10.25 36.75,-10.5 27.93,-0.18 55.86,0.07 83.81,-0.13 0.18,22.22 0.03,44.44 0.08,66.66 -15.65,0 -31.3,0 -46.95,0 0.1,-8.09 0.07,-16.16 -0.18,-24.22 -10.33,0.15 -20.62,0.1 -30.92,0.2 0.25,65.52 -0.23,131.04 0.25,196.56 10.2,-2.53 20.42,-4.94 30.69,-7.07 0.28,-9.72 0.28,-19.46 -0.05,-29.18 16.29,-3.98 32.7,-7.5 49.16,-10.83 -0.25,24.15 0.03,48.3 -0.15,72.45 -45.25,9.72 -90.35,20.11 -135.02,32.26 -0.03,-83.91 0,-167.82 0,-251.7 -0.05,-12.43 2.74,-26.03 12.53,-34.5zm0.15 7.96l0 0c-7.31,10.63 -6.82,24.25 -7,36.58 0.1,78.08 -0.03,156.16 0.05,234.23 1.88,-0.5 5.63,-1.47 7.53,-1.98 0.1,-78.28 0.03,-156.56 0.03,-234.86 0.3,-10.38 1.06,-22.09 8.75,-29.96 7.13,-7.43 18.11,-8.37 27.83,-9.13 25.49,-0.33 51.01,0.2 76.5,-0.2 0.41,-1.65 1.27,-4.98 1.67,-6.62 -27.82,-0.49 -55.67,-0.13 -83.5,-0.23 -11.34,0.5 -24.63,2.33 -31.86,12.17zm79.29 42.24l0 0c2.46,0.1 4.93,0.2 7.39,0.3 0.15,-6.11 0.22,-12.22 0.35,-18.31 -1.93,-0.1 -5.76,-0.33 -7.69,-0.43 -0.07,6.14 -0.07,12.3 -0.05,18.44zm0.03 146.39l0 0c-0.08,9.76 -0.03,19.53 -0.13,29.32 -12.02,2.74 -24.02,5.53 -36.02,8.42 -0.02,2.18 -0.05,6.57 -0.07,8.75 14.53,-3.32 29.04,-6.85 43.63,-10.02 0.22,-9.74 0.17,-19.5 0.12,-29.24 9.87,-2.36 19.81,-4.52 29.76,-6.55 0.02,-2.18 0.07,-6.57 0.1,-8.75 -12.48,2.64 -24.91,5.45 -37.39,8.07zm66.05 -207.22c27.02,0.15 54.01,0.02 81.02,0.08 0.03,14.13 -0.05,28.25 0.05,42.41 -4.44,0.02 -8.9,0.05 -13.34,0.1 -0.08,53.88 0.05,107.76 -0.08,161.63 8.73,-1.37 17.43,-2.86 26.11,-4.51 0.02,-9.41 -0.43,-18.85 0.17,-28.24 16.72,-4.21 34.15,-5.57 51.14,-8.57 -0.12,23.95 0.26,47.92 -0.2,71.89 -48.55,7.05 -96.85,15.6 -145.02,24.88 0,-14.18 -0.02,-28.36 0.03,-42.51 4.18,-0.96 8.39,-1.93 12.58,-2.87 0.17,-57.2 -0.05,-114.42 0.12,-171.65 -4.26,-0.05 -8.49,-0.1 -12.73,-0.13 0.05,-14.18 -0.15,-28.33 0.15,-42.51zm5.56 6.42l0 0c0,10.14 -0.03,20.29 0.05,30.44 1.85,0.02 5.58,0.1 7.43,0.12 0.1,-7.94 0.1,-15.85 0.36,-23.76 20.64,0.35 41.27,0.07 61.89,0.17 0,-1.75 -0.03,-5.22 -0.03,-6.97 -23.23,0.02 -46.47,0 -69.7,0zm13.29 36.2l0 0c0.13,58.69 -0.08,117.36 0.1,176.06 -4.36,0.92 -8.72,1.83 -13.11,2.72 -0.46,10.52 -0.33,21.05 -0.18,31.58 2.59,-0.41 5.02,-1.14 7.36,-2.21 0.38,-7.41 0.1,-14.81 0.25,-22.2 4.01,-1.24 8.95,-0.86 12.38,-3.34 0.48,-60.88 0.07,-121.79 0.2,-182.69 -1.75,0.02 -5.25,0.08 -7,0.08zm81.48 133.14l0 0c-2.16,9.29 -0.36,19.36 -0.92,28.95 -10.35,1.67 -20.7,3.57 -31.05,5.3 0,2.1 0,6.34 0.03,8.47 12.78,-2.36 25.59,-4.57 38.46,-6.6 0.25,-9.71 0.15,-19.4 0.27,-29.12 10.71,-1.49 21.39,-3.3 32.09,-4.84 0.1,-2.79 0.21,-5.58 0.31,-8.35 -13.07,2.16 -26.21,3.78 -39.19,6.19zm101.61 -175.71c28.41,0.08 56.82,-0.03 85.21,0.03 4.44,-1.4 3.65,4.36 4.59,6.82 9.36,55.27 19.2,110.49 28.66,165.77 4.34,-0.31 8.68,-0.61 13.02,-0.86 0.02,14.12 0,28.25 0.02,42.38 -20.42,1.52 -40.74,3.78 -61.16,4.95 -2.79,-21.13 -5.32,-42.36 -9.25,-63.29 -11.5,0.74 -23.04,-0.56 -34.45,0.76 -3.81,22.68 -6.4,45.61 -9.57,68.44 -20.21,2.59 -40.43,5.43 -60.7,7.79 0.13,-14.26 0.1,-28.49 0,-42.72 3.76,-0.48 7.51,-0.96 11.27,-1.42 11.16,-62.81 21.48,-125.77 32.36,-188.65zm4.64 6.39l0 0c-10.52,62.51 -21.3,124.93 -31.91,187.41 -3.32,0.35 -6.64,0.71 -9.96,1.11 0.05,10.51 0.02,21.03 0.02,31.58 1.7,-0.38 5.07,-1.11 6.77,-1.49 0.56,-7.23 -0.17,-14.51 0.33,-21.74 2.46,-2.61 6.93,-1.6 10.2,-2.61 10.65,-62.38 21.46,-124.73 31.86,-187.13 24.33,-0.35 48.65,-0.18 72.95,-0.1 -0.45,-2.41 -0.91,-4.79 -1.37,-7.15 -26.3,0.25 -52.58,0 -78.89,0.12zm38.99 27.88l0 0c-4.23,28.97 -8.67,57.91 -12.96,86.88 8.9,0 17.81,0 26.71,0 -4.95,-28.89 -7.46,-58.27 -13.75,-86.88zm7.51 4.62l0 0c3.86,29.37 8.65,58.62 12.71,87.94 -10.98,0.05 -21.97,0.03 -32.93,0.05 -0.27,1.73 -0.78,5.2 -1.04,6.95 13.85,0 27.7,0 41.55,0 -4.69,-31.32 -8.95,-62.73 -13.97,-93.98 -1.58,-0.25 -4.75,-0.71 -6.32,-0.96zm16.11 116.81l0 0c2.74,19.12 5.45,38.25 8.24,57.38 1.63,-0.16 4.85,-0.49 6.47,-0.64 -2.89,-18.64 -5.07,-37.44 -8.37,-55.98 -1.6,-0.2 -4.77,-0.58 -6.34,-0.76zm51.92 22.55l0 0c0.97,3.4 1.4,7.61 5.41,8.85 0.22,-2.99 0.43,-5.98 0.6,-8.95 -1.49,0.02 -4.51,0.07 -6.01,0.1zm22.91 -177.92c24.91,-0.68 49.87,-0.13 74.8,-0.3 16.04,0.22 32.19,-0.79 48.17,1.16 11.55,1.32 23.32,7.33 28.62,18.11 5.58,11.04 4.51,23.8 4.61,35.77 -0.4,11.74 -0.71,24.73 -8.37,34.37 -4.94,6.57 -12.83,9.62 -20.01,13.02 8.27,3.42 17.53,6.62 22.07,15.01 7.73,14.26 5.02,31.23 5.65,46.78 4.44,0 8.88,0.02 13.32,0.02 -0.02,14.18 0.08,28.36 -0.08,42.57 -18.77,-1.07 -37.87,2.84 -56.38,-1.27 -8.75,-1.78 -11.11,-11.26 -11.22,-18.95 -0.4,-21.28 -0.17,-42.59 -0.05,-63.9 -10.65,-0.5 -21.3,-0.48 -31.96,0 0.31,28.82 -0.02,57.63 0.18,86.45 -22.96,1.78 -45.96,2.69 -68.92,4.19 -0.53,-14.18 -0.15,-28.36 -0.25,-42.54 4.44,-0.31 8.87,-0.64 13.34,-0.99 -0.05,-42.42 -0.08,-84.83 0.02,-127.24 -4.46,-0.05 -8.92,-0.1 -13.34,-0.1 -0.1,-14.05 0.15,-28.13 -0.2,-42.16zm6.52 6.04l0 0c-0.03,10.22 -0.08,20.42 0.13,30.61 1.72,-0.07 5.17,-0.22 6.87,-0.3 -0.03,-7.71 -0.03,-15.42 -0.15,-23.11 27.34,-0.56 54.71,-0.08 82.06,-0.23 16.41,0.31 33.68,-2.05 48.98,5.48 -5.81,-10.07 -18.52,-11.64 -28.97,-12.38 -36.3,-0.2 -72.6,0 -108.92,-0.07zm12.68 36.14l0 0c-0.18,44.42 0.36,88.84 -0.28,133.23 -4.13,0.1 -8.27,0.28 -12.4,0.5 0,10.3 0,20.63 0,30.93 1.75,-0.16 5.27,-0.49 7.02,-0.64 -0.07,-7.68 -0.07,-15.37 -0.07,-23.03 4.46,-0.41 8.95,-0.76 13.42,-1.09 -0.18,-46.65 -0.03,-93.27 -0.08,-139.9 -1.9,0 -5.71,0 -7.61,0zm50.1 0l0 0c0,13.96 0,27.88 0,41.81 10.55,0.07 21.13,0.05 31.71,0.02 0,-13.95 0,-27.87 0,-41.83 -10.58,0 -21.13,-0.02 -31.71,0zm38.05 0l0 0c0,15.86 0,31.71 0,47.57 -12.66,0 -25.29,0 -37.92,0 -0.13,2.46 -0.26,4.94 -0.36,7.43 15.14,0.25 30.26,0.35 45.41,-0.08 -0.33,-18.29 -0.08,-36.6 -0.16,-54.92 -1.75,0 -5.22,0 -6.97,0zm2.43 67.2l0 0c11.42,4.64 23.9,5.83 35.39,10.37 -7.84,-10.12 -23.29,-15.32 -35.39,-10.37zm-2.43 12.76l0 0c0.15,23.21 -0.26,46.47 0.15,69.68 -0.73,4.79 3.91,6.82 7.31,8.78 -1.09,-26.13 -0.23,-52.33 -0.49,-78.49 -1.75,0 -5.22,0 -6.97,0.03zm48.14 48.35l0 0c0.03,2.18 0.03,4.38 0.05,6.59 2.44,0.13 4.9,0.23 7.36,0.38 0.13,-2.53 0.28,-5.02 0.43,-7.53 -2.61,0.18 -5.22,0.35 -7.84,0.56zm32.7 -170.97c22.93,0.38 45.86,0.08 68.82,0.18 0.18,29.45 -0.36,58.9 0.28,88.35 15.22,-28.69 26.99,-59.18 41.14,-88.43 17.48,0.15 34.96,0.02 52.43,0.08 0.03,14.1 -0.05,28.23 0.08,42.36 -6.29,0.05 -12.58,0.15 -18.85,0.43 -8.27,15.95 -17.42,31.43 -25.87,47.28 11.92,-0.05 23.84,-0.05 35.77,-0.02 0.05,26.12 -0.08,52.28 0.07,78.4 4.82,0.21 9.67,0.46 14.51,0.79 0,14.15 0,28.31 0,42.49 -22.93,-1.68 -46.09,-1.57 -68.89,-3.88 -0.79,-26.87 0.35,-53.73 -0.56,-80.59 -10.05,0.28 -20.09,0.2 -30.11,0.23 0.05,26.61 -0.08,53.19 0.08,79.8 -23.11,0.53 -46.15,-0.99 -69.23,-0.61 -0.02,-14.03 0.23,-28.03 -0.2,-42.03 4.51,-0.26 9.05,-0.43 13.62,-0.64 -0.13,-40.46 -0.15,-80.94 0,-121.4 -4.47,-0.07 -8.95,-0.15 -13.39,-0.18 0.12,-14.2 -0.33,-28.43 0.3,-42.61zm5.38 36.81l0 0c2.51,0.05 5.07,0.12 7.61,0.2 0.02,-7.79 0.02,-15.6 -0.05,-23.39 16.71,-0.28 33.43,-0.08 50.15,-0.13 0,-1.75 0,-5.22 0,-6.97 -19.21,0.02 -38.41,-0.05 -57.61,0.05 -0.1,10.07 -0.08,20.14 -0.1,30.24zm107.86 -30.19l0 0c-14.51,32.26 -29,64.56 -43.76,96.69 3.42,0.13 6.87,0.26 10.32,0.41 14,-29.96 27.2,-60.27 41.07,-90.3 12.02,0.1 24.05,0.05 36.05,0.07 0,-1.75 0,-5.25 0,-6.97 -14.56,0.07 -29.12,-0.13 -43.68,0.1zm-94.52 36.04l0 0c0,42.49 0,85.01 0,127.5 -4.41,-0.03 -8.8,-0.08 -13.16,-0.11 -0.23,10.38 -0.16,20.75 -0.16,31.13 1.91,0 5.71,0.02 7.59,0.02 -0.03,-8.06 0,-16.13 0.12,-24.17 4.39,0.02 8.81,0.05 13.22,0.1 0,-44.82 0,-89.64 0,-134.47 -1.9,0 -5.71,0 -7.61,0zm93.3 60.25l0 0c11.77,-0.03 23.56,-0.03 35.36,0 0.05,-1.73 0.18,-5.15 0.23,-6.85 -10.89,-0.2 -21.77,-0.13 -32.65,-0.13 -0.99,2.31 -1.98,4.65 -2.94,6.98zm-7.05 24.73l0 0c0,25.16 0,50.3 0,75.47 1.9,0 5.7,0 7.6,0 0,-25.17 0,-50.31 0,-75.47 -1.9,0 -5.7,0 -7.6,0zm48.5 47.13l0 0c0.15,1.55 0.45,4.67 0.61,6.22 2.79,0.25 5.57,0.5 8.39,0.78 0.1,-1.77 0.31,-5.35 0.38,-7.13 -3.14,0.03 -6.26,0.06 -9.38,0.13zm42.89 -162.44c8.78,-9.97 22.75,-12.13 35.34,-12.15 30.43,-0.08 60.88,0.1 91.34,-0.08 0.15,20.32 0.05,40.64 0.07,60.96 -16.28,0 -32.57,0 -48.83,0 -0.02,-6.12 0,-12.23 0.03,-18.32 -10.78,-0.13 -21.59,-0.1 -32.37,-0.08 0,12.89 0,25.78 0,38.69 16.11,0.2 32.24,-0.43 48.35,0.33 12.02,0.58 25.11,4.51 32.37,14.81 7.23,10.1 6.44,23.24 6.82,35.08 -0.3,19.33 0.74,38.74 -0.94,58.04 -0.68,10.32 -5.15,21.31 -14.56,26.56 -8.47,5.63 -19.1,5.86 -28.89,5.1 -31.71,-2.72 -63.41,-5.43 -95.12,-8.15 -0.08,-23.79 0,-47.56 -0.03,-71.35 17.25,1.72 34.75,1.9 51.85,4.44 0.46,9.44 0.05,18.9 0.13,28.33 10.8,1.12 21.61,2.36 32.49,2.82 -0.28,-18.47 -0.07,-36.96 -0.13,-55.43 -17.45,-0.28 -34.9,0.59 -52.3,-0.4 -15.75,-0.53 -30.49,-12.51 -33.48,-28.06 -2.9,-14.23 -1.35,-28.84 -1.78,-43.25 0.03,-13.01 -0.15,-27.92 9.64,-37.89zm5.05 2.58l0 0c-8.58,9.54 -8.83,23.19 -8.96,35.31 0.33,15.17 -1.19,30.62 2.57,45.49 1.57,6.51 6.31,11.43 11.28,15.62 -8.82,-16.46 -5.68,-35.49 -6.26,-53.37 0.02,-11.74 -0.18,-24.88 7.53,-34.57 7.08,-8.43 18.9,-9.9 29.25,-9.95 26.68,0.2 53.4,-0.23 80.08,0.26 0.18,-1.78 0.56,-5.36 0.74,-7.13 -29.45,-0.13 -58.88,0.02 -88.33,-0.1 -9.76,0 -20.5,1.47 -27.9,8.44zm78.53 27.7l0 0c0.05,4.09 0.1,8.2 0.23,12.31 1.7,-0.08 5.1,-0.23 6.8,-0.31 0,-3.96 0,-7.91 0.05,-11.84 -1.78,-0.03 -5.3,-0.11 -7.08,-0.16zm-37.29 44.42l0 0c-0.02,1.75 -0.02,5.25 -0.05,7 25.34,1.34 52.18,-3.85 76.23,6.32 -4.31,-4.9 -9.39,-9.49 -16.01,-10.78 -19.78,-4.19 -40.13,-1.91 -60.17,-2.54zm37.44 34.75l0 0c-0.22,20.78 -0.05,41.55 -0.07,62.33 -12.69,-1.37 -25.39,-2.34 -38.08,-3.61 0,1.63 0,4.93 0,6.57 14.92,1.32 29.83,2.59 44.72,4.32 0.69,-23.14 0.08,-46.25 0.33,-69.36 -1.72,-0.07 -5.17,-0.17 -6.9,-0.25zm-84.42 26.1l0 0c-0.02,20.12 -0.07,40.23 0.03,60.35 1.9,-0.08 5.73,-0.28 7.66,-0.36 -0.23,-17.5 -0.07,-34.98 -0.1,-52.48 11.03,0.58 22.04,1.6 33.08,2.31 -0.13,-1.6 -0.38,-4.77 -0.51,-6.34 -13.32,-1.73 -26.81,-2.01 -40.16,-3.48zm201.67 -147.5c17.53,-0.46 35.1,-0.18 52.63,-0.15 13.32,0.5 28.59,1.21 38.2,11.79 9.44,10.3 10.48,25.09 10.63,38.36 -0.08,50.7 0.03,101.41 -0.05,152.09 -0.51,13.27 -1.47,29.22 -13.19,37.77 -14.64,9.39 -32.62,3.38 -48.47,1.4 -19.43,-3.94 -40.24,-4.06 -58.02,-13.68 -13.82,-7.25 -21.69,-22.8 -21.69,-38.12 -0.12,-48.17 0.06,-96.37 -0.07,-144.54 0.05,-12.48 2.76,-26.05 11.9,-35.18 7.38,-7.31 18.16,-9.16 28.13,-9.74zm-27.73 18.11l0 0c-6.64,11.03 -6.54,24.48 -6.57,36.93 0.1,43.91 -0.05,87.8 0.08,131.71 0.05,12.68 3.73,26.63 15.24,33.63 -8.57,-12.96 -8.6,-28.89 -8.34,-43.83 0.15,-40.18 -0.23,-80.36 0.17,-120.52 0.66,-13.09 1.02,-29.24 13.37,-37.16 13.9,-8.17 30.75,-5.22 46.12,-5.76 18.82,0.76 38.68,-2.84 56.44,5.25 -5.86,-9.66 -18.14,-11.89 -28.54,-12.22 -20.32,0 -40.61,-0.05 -60.93,0.02 -9.94,0.28 -21.46,2.79 -27.04,11.95zm42.84 24.28l0 0c0.13,50.6 0.16,101.18 0,151.79 10.35,1.72 20.75,3.42 31.18,4.89 -0.18,-52.3 0.2,-104.58 -0.18,-156.89 -10.35,0.13 -20.67,0.05 -31,0.21zm36.86 -0.16l0 0c-0.07,54.59 0.13,109.18 -0.07,163.74 -12.23,-2.1 -24.46,-4.06 -36.71,-5.93 0,1.52 -0.02,4.54 -0.02,6.06 14.66,2.38 29.37,4.56 43.98,7.23 1.02,-56.95 0.05,-113.95 0.48,-170.92 -1.9,-0.05 -5.73,-0.13 -7.66,-0.18zm71.15 -42.49c20.83,0.13 41.68,-0.02 62.51,0.11 19.6,49 38.83,98.14 59,146.92 0.33,-48.98 -0.05,-97.99 0.18,-147 20.62,0 41.24,0.13 61.86,-0.07 0.49,14.17 0.13,28.38 0.23,42.58 -4.46,-0.02 -8.9,0 -13.32,0 -0.05,69.53 0.08,139.06 -0.07,208.62 4.46,1.29 8.93,2.58 13.39,3.9 -0.05,14.51 0.13,29.02 -0.1,43.56 -19.56,-5.28 -39.32,-9.9 -58.93,-15 -3.85,-0.33 -4.33,-4.74 -5.73,-7.43 -18.64,-46.8 -36.78,-93.85 -56.41,-140.22 0.12,44.34 0.02,88.68 0.02,133.04 -20.92,-4.21 -41.8,-8.6 -62.7,-12.96 -0.13,-14.33 -0.03,-28.64 -0.08,-42.97 4.42,0.79 8.88,1.62 13.34,2.46 0,-57.66 0,-115.31 0,-173 -4.46,0 -8.9,-0.02 -13.31,0 0.02,-14.18 -0.13,-28.35 0.12,-42.54zm5.58 6.4l0 0c-0.02,10.17 -0.05,20.34 0.08,30.51 1.73,-0.02 5.18,-0.07 6.9,-0.1 -0.03,-7.81 -0.03,-15.62 0,-23.44 16.31,0 32.62,-0.07 48.93,0.05 -0.81,-2.35 -1.6,-4.69 -2.38,-7.02 -17.84,0 -35.69,0 -53.53,0zm121.76 0l0 0c-0.02,50.07 0.03,100.12 -0.02,150.19 -0.15,8.35 4.46,15.68 7.43,23.24 0.68,-55.56 -0.33,-111.13 0.51,-166.66 14.25,0.38 28.53,0.13 42.81,0.2 0,-1.75 0,-5.22 0,-6.97 -16.91,0 -33.81,0 -50.73,0zm-108.49 36.27l0 0c0.15,59.97 0,119.93 0.08,179.9 -4.49,-0.89 -8.91,-1.75 -13.35,-2.64 0,10.43 0.06,20.85 -0.1,31.3 2.34,0.48 4.7,0.99 7.05,1.5 0.03,-8.47 0,-16.95 0.03,-25.39 4.39,0.81 8.83,1.65 13.27,2.51 0.12,-62.45 0.02,-124.9 0.05,-187.36 -1.75,0.05 -5.28,0.13 -7.03,0.18zm43.71 65.22l0 0c0.1,5.2 -0.43,10.7 1.77,15.62 20.09,50.18 40.13,100.38 59.99,150.63 1.09,3.14 3.45,5.05 7.03,5.65 -22.58,-57.42 -44.85,-115.06 -68.79,-171.9zm108.28 150.57l0 0c-2.76,3.83 3.71,7.81 6.93,5.76 3.04,-3.83 -3.58,-8.93 -6.93,-5.76zm-688 47.89l0 0c0.51,4.39 -1.22,10.25 4.01,12.31 0.05,8.72 0,17.42 -0.08,26.15 -6.75,0.05 -3.75,7.28 -4.59,11.44 7.25,0.23 14.53,0.23 21.81,0.1 -0.02,-6.11 -0.05,-12.2 -0.02,-18.29 2.1,0 6.29,0.03 8.39,0.03 -0.27,6.06 -0.61,12.15 -0.91,18.23 7.26,0.11 14.49,0.41 21.74,0.79 -0.05,-3.8 -0.08,-7.58 -0.1,-11.36 -1.09,-0.03 -3.25,-0.13 -4.31,-0.18 -0.03,-5.99 -0.16,-11.97 -0.46,-17.96 -2.31,0.1 -6.92,0.28 -9.21,0.36 2.18,-3.35 4.39,-6.63 6.6,-9.95 1.39,-0.1 4.18,-0.33 5.6,-0.43 -0.1,-3.6 -0.15,-7.15 -0.23,-10.73 -5.37,0.08 -10.78,0.15 -16.15,0.28 -3.28,6.34 -6.85,12.58 -10.96,18.44 -0.08,-6.42 -0.03,-12.81 0,-19.23 -7.03,0 -14.08,-0.02 -21.13,0zm-79.14 2.67l0 0c0.1,8.57 0.45,17.12 0.43,25.69 -4.39,-6.54 -8.53,-13.26 -12.91,-19.78 -4.27,-9.21 -16.04,-3.28 -23.8,-4.11 1.12,4.03 -0.91,10.27 4.47,11.94 0.2,8.6 1.16,17.23 0.63,25.85l-3.58 1.7c-0.05,3.43 -0.07,6.88 -0.1,10.35 6.52,-0.33 13.04,-0.56 19.56,-0.91 -0.35,-8.55 -0.58,-17.12 -1.19,-25.65 6.01,8.15 10.73,17.28 17.6,24.76 6.37,0.13 12.71,-0.48 19.08,-0.58 0.12,-3.63 0.28,-7.21 0.45,-10.78 -1.16,0.02 -3.5,0.02 -4.66,0.02 0.27,-8.7 -0.71,-17.37 -0.46,-26.05 3.98,-3.5 3.73,-8.55 3.8,-13.34 -6.44,0.25 -12.88,0.61 -19.32,0.89zm150.16 -0.71l0 0c0.61,4.51 -1.44,10.73 3.99,12.88 -0.79,8.45 -0.18,16.95 -1.17,25.37 -0.99,0.56 -2.94,1.65 -3.93,2.18 0,3.14 0.02,6.31 0.07,9.51 6.24,0.43 12.51,0.74 18.77,0.94 0.36,-8.35 0.82,-16.67 1.12,-25.01 4.77,8.72 10,17.2 14.92,25.82 6.57,0.31 13.16,0.66 19.76,0.97 0.15,-2.21 0.43,-6.6 0.58,-8.78 -7.86,-7.99 -2.11,-20.45 -3.07,-30.41l3.65 -0.46c0.13,-3.5 0.26,-7 0.41,-10.48 -6.39,-0.18 -12.76,-0.43 -19.15,-0.56 -0.2,8.25 -0.18,16.49 -0.54,24.76 -5.88,-7.96 -9.58,-17.3 -15.47,-25.24 -6.54,-1.34 -13.29,-1.01 -19.94,-1.49zm-253.13 6.54l0 0c-0.15,3.48 -0.27,6.95 -0.4,10.48 1.04,0.3 3.07,0.94 4.08,1.24 0.64,8.37 1.88,16.92 0.79,25.26 -2.61,3.89 -3.2,8.4 -3.17,13.02 14.86,-0.61 29.68,-1.98 44.54,-2.82 -0.33,-5.71 -0.53,-11.44 -0.66,-17.12 -5.22,0.2 -10.42,0.48 -15.62,0.81 0.15,1.57 0.48,4.69 0.63,6.27 -2.77,0.22 -5.48,0.53 -8.22,0.78 -0.1,-3.24 -0.18,-6.49 -0.25,-9.71 4.03,-0.31 8.09,-0.59 12.15,-0.81 -0.18,-2.46 -0.56,-7.39 -0.74,-9.82 -3.98,0.23 -7.94,0.46 -11.92,0.71 -0.28,-2.94 -0.53,-5.86 -0.76,-8.75 4.59,-0.23 10.42,-1.4 8.85,5.45 4.67,-0.3 9.36,-0.58 14.03,-0.81 -0.33,-5.63 -0.53,-11.26 -0.66,-16.87 -14.23,0.79 -28.44,2.08 -42.67,2.69zm331.62 -2.28l0 0c-0.26,2.33 -0.79,7.02 -1.07,9.36 0.91,0.66 2.77,2 3.68,2.66 0.4,8.52 0,17.17 -1.24,25.62 -0.82,0.56 -2.44,1.67 -3.25,2.21 -0.38,3.35 -0.74,6.69 -1.04,10.07 8.57,0.38 17.12,0.94 25.7,1.65 0.1,-5.03 -0.54,-10.05 -3.61,-14.16 -0.07,-7.78 -0.05,-15.7 1.47,-23.36 3.96,-3.09 4.06,-7.89 4.11,-12.45 -8.24,-0.69 -16.48,-1.25 -24.75,-1.6zm46.11 24.1l0 0c0.36,8.75 -3.68,18.72 1.25,26.68 11.87,6.19 26.22,3.5 39.11,5.81 0.46,-10.17 1.22,-20.34 1.8,-30.52 -7.13,-0.58 -14.26,-1.14 -21.38,-1.62 0,3.75 0.02,7.53 0.05,11.31 1.17,-0.02 3.52,-0.07 4.72,-0.1 -0.16,1.93 -0.41,5.76 -0.56,7.69 -2.21,0.18 -6.62,0.53 -8.83,0.71 0.56,-9.59 1.29,-19.15 1.62,-28.72 1.96,0.23 5.86,0.71 7.82,0.97 1.47,7.46 11.03,3.63 16.36,5.05 0.28,-4.95 0.53,-9.87 0.86,-14.79 -11.79,-0.54 -23.57,-3.07 -35.33,-2.11 -8.78,2.13 -6.4,12.91 -7.49,19.64zm-446.67 -15.25l0 0c-1.55,4.13 -0.79,10.07 3.98,11.67 0.48,8.09 1.52,16.16 1.45,24.25 -4.37,3.47 -3.05,8.73 -2.77,13.49 11.95,-1.34 24.02,-1.67 35.92,-3.45 5.15,-0.35 9.87,-4.76 9.13,-10.17 -0.23,-10.98 -0.53,-22.07 -2.38,-32.9 -1.37,-6.47 -9.36,-6.92 -14.66,-6.19 -10.2,1.25 -20.65,0.99 -30.67,3.3zm514.98 0.23l0 0c-0.4,5.15 0.23,10.27 3.22,14.63 -0.76,8.1 -1.52,16.19 -2,24.31 -1.04,0.07 -3.12,0.2 -4.16,0.27 -0.23,2.64 -0.68,7.89 -0.89,10.53 6.95,0.71 13.9,1.45 20.85,2.23 0.54,-6.31 0.76,-12.68 1.81,-18.92 1.92,-0.05 5.78,-0.18 7.71,-0.23 -0.59,6.65 -1.17,13.32 -1.73,19.99 7.1,0.69 14.21,1.42 21.31,2.18 -0.03,-1.8 -0.05,-5.4 -0.08,-7.2 -4.99,-9.72 -1.29,-20.6 -0.91,-30.87 1.09,-0.69 3.3,-2.01 4.41,-2.67 0.18,-3.01 0.38,-6.03 0.61,-9.05 -7.02,-0.79 -14.05,-1.52 -21.08,-2.13 -0.53,6.31 -1.04,12.63 -1.57,18.97 -2.64,-0.35 -5.25,-0.71 -7.86,-1.01 0.61,-6.32 1.11,-12.63 1.52,-18.95 -7.05,-0.74 -14.11,-1.47 -21.16,-2.08zm-578.73 5.78l0 0c0.08,3.48 0.21,7 0.33,10.5 0.94,0.33 2.79,0.94 3.73,1.27 1.47,8.4 1.8,16.97 2.39,25.5 -4.7,2.81 -2.77,8.31 -2.9,12.78 14.59,-1.47 29.18,-3.2 43.76,-4.72 -0.63,-6.49 -1.19,-12.96 -1.72,-19.43 -5.36,0.43 -10.68,0.89 -16.03,1.37 0.22,2.99 0.45,6.04 0.71,9.06 -1.63,0.12 -4.85,0.35 -6.45,0.48 -0.76,-8.65 -1.98,-17.25 -2.33,-25.9 0.86,-0.81 2.56,-2.44 3.42,-3.25 -0.25,-3.32 -0.55,-6.64 -0.86,-9.92 -8.01,0.71 -16.03,1.55 -24.05,2.26zm649.66 1.78l0 0c-0.76,6.29 -1.37,12.6 -1.8,18.95 3.98,0.48 7.99,0.94 11.99,1.44 0.18,-1.98 0.51,-5.91 0.69,-7.86 1.22,0.18 3.68,0.51 4.89,0.68 -0.1,8.7 -0.98,17.48 -2.51,26.08 -1.11,0.71 -3.32,2.11 -4.41,2.82 0.36,2.99 -1.45,6.82 0.61,9.36 7.86,1.57 15.9,2.02 23.84,3.14 -0.05,-2.21 -0.15,-6.62 -0.22,-8.83 -4.98,-9.66 0.22,-20.75 0.32,-30.97 5.64,-0.2 4.65,5.63 5.61,9.51 3.68,0.33 7.38,0.66 11.09,1.04 0.58,-6.26 1.21,-12.5 1.82,-18.74 -17.32,-2.13 -34.62,-4.34 -51.92,-6.62zm-698.36 4.39l0 0c-6.57,0.63 -16.23,2.25 -15.85,10.98 0.96,11.62 1.39,23.54 4.21,34.9 5.15,7.41 15.32,3.43 22.78,3.3 6.62,-1.04 17.78,-1.5 17.96,-10.5 -0.41,-11.64 -1.53,-23.39 -3.89,-34.78 -4.61,-9.23 -17.14,-3.98 -25.21,-3.9zm-77.14 11.61l0 0c-9.92,4.14 -4.13,16.8 -4.06,24.84 1.93,8.32 -0.68,22.98 11.42,23.56 11.39,-0.63 22.62,-3.02 33.86,-4.82 -1.44,-9.97 -2.76,-19.96 -3.95,-29.95 -6.65,1.01 -13.4,1.57 -19.94,3.17 -0.74,3.19 -0.76,6.52 -0.08,9.91 6.17,-1.24 5.89,4.34 6.5,8.65 -2.95,0.46 -5.86,0.94 -8.78,1.45 -1.04,-9.26 -2.26,-18.47 -3.58,-27.67 2.28,-0.56 4.59,-1.1 6.88,-1.6 3.6,6.67 11.77,1.72 17.5,1.75 -0.53,-5 -1.09,-9.97 -1.65,-14.94 -11.34,2.03 -22.98,2.58 -34.12,5.65zm846.83 3.96l0 0c-0.61,5.63 -2.97,12.25 1.01,17.2 6.09,4.82 14.49,4.26 21.77,5.76 -0.36,3.12 -0.71,6.24 -1.04,9.38 -4.01,-1.01 -10.05,-0.53 -8.48,-6.42 -5.17,-0.73 -10.3,-1.47 -15.44,-2.23 -0.69,5.2 -1.35,10.4 -1.98,15.63 11.54,1.37 22.95,4.36 34.6,4.46 10.32,-1.8 8.85,-15.27 9.23,-23.05 -3.32,-9.26 -15.9,-7.41 -23.74,-9.37 0.17,-2.58 0.35,-5.14 0.53,-7.68 2.46,-0.08 4.95,-0.13 7.46,-0.15 0.66,1.39 1.95,4.16 2.58,5.55 4.49,0.43 8.98,0.92 13.47,1.42 0.59,-5 1.17,-9.99 1.75,-14.96 -10.6,-1.09 -21.02,-3.66 -31.68,-4.14 -5.2,-0.86 -9.89,3.5 -10.04,8.6z"/>
  </g>
 </g>
</svg>
