<?xml version="1.0" encoding="UTF-8"?>
<!DOCTYPE svg PUBLIC "-//W3C//DTD SVG 1.1//EN" "http://www.w3.org/Graphics/SVG/1.1/DTD/svg11.dtd">
<!-- Creator: CorelDRAW -->
<svg xmlns="http://www.w3.org/2000/svg" xml:space="preserve" width="2000px" height="1600px" version="1.1" style="shape-rendering:geometricPrecision; text-rendering:geometricPrecision; image-rendering:optimizeQuality; fill-rule:evenodd; clip-rule:evenodd"
viewBox="0 0 2000 1600"
 xmlns:xlink="http://www.w3.org/1999/xlink">
 <defs>
  <style type="text/css">
   <![CDATA[
    .fil0 {fill:#F26D42;fill-rule:nonzero}
   ]]>
  </style>
 </defs>
 <g id="Capa_x0020_1">
  <metadata id="CorelCorpID_0Corel-Layer"/>
  <path id="Clemson_x0020_Tigers.cdr" class="fil0" d="M1669.26 767.88c-0.05,0.11 1.21,4.83 1.68,6.72 -1.83,0.37 -2.67,3.1 -3.35,3.36 -4.36,1.47 -10.19,1.1 -13.45,1.69 -1.25,15.64 -5.77,22.78 -5.04,35.28 -6.72,-12.55 -11.44,-11.55 -21.85,-3.36 -1.61,-2 -2.83,-7.19 -5.03,-8.4 -5.41,-3.05 -29.41,-1.47 -38.64,-3.36 -0.43,1.78 -3.16,2.62 -3.36,3.36 -2.16,6.14 0,16.9 0,23.52 -0.27,0.11 -3.37,1.68 -3.37,1.68 -1.21,-2.52 -3.15,-3.36 -5.04,-5.04 4.36,-14.44 0.48,-33.6 -16.8,-21.84 -2.16,1.41 -1.52,6.66 -3.37,8.4 -1.67,1.51 -6.61,2.57 -8.4,3.36 1.21,4.68 -0.47,7.83 1.68,11.76 3.26,5.93 17.8,5.04 20.16,11.76 1.01,2.83 -1.04,5.51 0,8.41 -0.57,0 -4.61,-0.38 -5.02,0 -5.26,-4.78 -7.15,-7.83 -10.09,-15.13 -5.67,-0.78 -15.02,0.32 -21.85,-1.68 -0.58,-0.2 -4.04,-4.88 -5.04,-5.04 -6.35,-1.05 -8.55,3.94 -15.12,1.68 -0.73,-0.26 -1.62,-3.05 -3.35,-3.36 8.8,-5.04 8.08,-4.2 6.71,-16.8l-5.04 -1.68c-1.42,1.99 -3.89,1.62 -5.04,3.36 -0.99,1.41 -0.48,7.4 -1.68,8.4 -3.99,3.15 -9.92,-0.69 -13.44,5.04 -1.48,2.31 -4.41,15.91 -5.05,18.48 -32.49,-9.55 -20.42,15.02 -40.32,15.12 0,0 -4.2,-1.57 -5.04,-1.68l0 -3.35c2.31,-0.8 5.98,0 8.4,0 -0.78,-0.54 1.42,-2.95 1.68,-3.36 -1.68,-1.37 -2.57,-0.9 -3.36,-3.37 -6.78,-1.26 -16.96,-4.25 -21.84,-3.36 -3.15,0.53 -7.46,6.83 -10.08,8.4 -6.31,3.62 -13.08,3.37 -20.17,6.72 -1.26,0.53 -3.42,4.67 -5.04,5.05 -5.67,1.04 -7.04,-3.32 -11.77,-1.68 -0.57,0.15 -2.93,4.41 -3.35,5.04 -6.04,7.66 -4.62,11.34 0,20.15 -3.88,0.96 -7.61,1.85 -13.44,3.37 0.78,-1.79 -0.68,-4.88 0,-6.72 0.16,-0.58 4.41,-2.95 5.04,-3.36 -1.05,-2.89 1,-5.56 0,-8.4 -0.37,-1 -4.31,-3.42 -5.04,-5.04 -3.42,1.42 -7.2,1.1 -10.08,1.68 -0.79,6.72 -2.63,18.42 -3.37,25.2 -5.2,0 -4.77,-0.69 -10.08,0 0.84,2.36 -0.89,5.99 0,8.4 0.89,2.63 9.09,5.21 11.77,6.72 -0.06,0.27 -0.68,9.4 -1.69,6.73 -1.05,1.73 0.69,3.09 0,5.03 -0.36,0.9 -4.14,3.47 -5.04,5.05l-3.36 0c-2.52,-5.36 -3.62,-9.3 -6.71,-13.45 -7.57,-10.02 -6.26,-4.09 -18.49,-8.4 -0.53,-0.21 -2.89,-4.88 -3.37,-5.05 -2.88,-1.04 -5.56,1.01 -8.4,0 -0.89,1.8 -4.67,3.79 -5.04,5.05 -1.62,4.84 0.37,9.77 -1.68,13.45 -3.35,5.83 -11.4,3.52 -16.79,6.72 -6.57,3.78 -9.98,18.53 -11.76,26.88 -13.4,-6.3 -5.2,-6.3 -18.49,0 0.58,2.89 -0.84,3.82 -1.68,6.73 6.98,4.97 7.14,5.46 15.12,6.71 -0.58,0.21 -0.37,6.13 -1.68,6.71 -1.99,0.85 -6.2,0 -8.4,0 -0.94,1.91 -4.67,4.95 -5.04,6.73 -1.57,6.78 2.99,13.75 3.37,18.48 0.2,3.37 -1.85,5 -1.69,6.73l-3.36 0c-3.52,-1.21 -6.61,-10.77 -10.08,-11.77 -5.41,-1.57 -5.93,1.84 -10.08,1.69 -4.31,14.49 -5.47,13.33 5.03,21.84 -3.41,3.04 0.74,21.94 1.69,28.57 -2.52,-2.47 -5.83,-4.27 -8.4,-6.73 3.47,0 -9.19,-1.41 -5.05,0 -1.94,1.63 -4.82,0 -6.71,1.68l0 3.37c-5.25,15.12 4.72,16.95 10.08,30.23 -0.57,0.53 0.26,4.32 0,5.05 -0.84,2.05 -8.93,4.4 -10.08,6.72 -0.84,1.52 0.25,4.98 0,6.72 -0.33,1.58 -4.94,7.88 -5.05,8.41 -0.84,3.19 0.74,6.82 0,10.07 3.04,2.62 9.5,6.78 11.76,10.09 1.84,2.72 1.16,6.19 3.37,8.4 2.36,2.36 6.35,2.25 8.39,5.04 5,6.82 9.3,24.25 11.77,33.6 2.47,0.57 5.93,0.16 8.41,1.69 -0.75,0.62 -1.22,4.3 -1.69,5.03 -1.57,2.22 -7.19,2.89 -8.41,5.05 -3.04,5.19 0.59,18.31 0,26.88 3.11,1.26 0.8,0.1 1.69,3.36 6.77,0.22 10.45,1.15 18.48,0 -0.73,1.84 0.48,4.78 0,6.71 -1.47,5.31 -11.29,9.2 -5.04,18.5 0.89,1.36 6.25,1.79 6.72,3.35 2.37,8.04 -5.67,12.45 1.69,16.81 1.99,1.15 9.28,2.89 11.75,3.36 -0.68,5.98 -3.46,13.92 0,20.16 0.58,1.05 4.73,2.25 5.04,3.36 1.05,3.94 -1.58,9.66 0,13.44 0.37,0.95 2.48,0.84 3.37,1.69 4.51,3.98 8.87,3.35 13.43,6.71 1.64,1.21 0.48,3.1 1.69,5.04 6.56,10.66 15.5,4.67 23.52,0 -0.95,11.71 -1.36,16.07 -3.35,26.89 1.19,0.31 10.08,2.46 8.39,1.68 4.62,-3.05 9.98,-1.99 11.76,-8.41 0.43,-1.78 -0.88,-5.19 0,-6.71 0.85,-1.57 6.1,-0.63 6.72,-1.69 0.63,1.37 -0.36,3.63 0,5.05 0.27,1.05 4.89,4.51 5.05,5.05 0.57,2.66 -2.26,9.7 -1.68,10.07 -1.05,0.31 -3.15,2.84 -3.37,3.37 0.32,0.26 0,4.56 0,5.03 8.3,3.63 10.56,4.78 23.53,3.37 0,0.99 -0.68,7.97 0,8.39 -1.37,2 -4.78,3.37 -6.72,5.04 0.53,1.52 0,5.04 0,6.73 2.42,0.93 2.2,2.77 3.36,5.04 9.19,-1.74 9.77,-1.57 15.12,-5.04 1.58,-1.05 7.29,-3.52 8.4,-5.05 2.94,-4.3 0.69,-9.24 5.04,-11.75 2.1,-1.26 5.93,0.62 8.4,0l3.36 -3.36c8.77,-2.05 5.57,0.67 11.77,1.67 -0.9,2.74 0,7.14 0,10.09 -4.62,1.67 -9.55,3.41 -13.44,5.04 0.31,2.78 1.67,11.76 1.67,11.76 2.63,0.37 5.31,2.62 10.09,1.68 2.3,-0.47 6.14,-5.36 8.4,-6.73 10.45,-6.61 16.48,-2.62 28.56,-6.71 0.68,-0.26 1.52,-3 3.36,-3.37 -0.73,-3.73 1.52,-8.45 0,-11.76 -0.52,0 -1.11,0 -1.68,0 -3.05,0 -6.14,-3.83 -8.4,-5.04 0,-3.1 0.68,-7.08 0,-10.07 1.52,-1.32 2.42,-5.05 5.04,-5.05 0.58,0 1.11,0 1.68,0 3.15,2.99 7.14,10.5 11.76,11.76 1.9,0.47 4.83,-0.74 6.72,0 -1.99,6.15 -1.36,8.51 -3.36,15.12 6.04,2.63 16.12,8.25 25.21,3.37 8.14,-4.47 2.41,-10.98 1.68,-15.13 -0.8,-4.36 1.89,-6.25 1.68,-8.4 11.19,-0.69 20.68,-2.41 31.92,-6.72 0.53,-0.27 1.21,-3.26 1.68,-3.35l3.36 0c2.47,-4.11 -0.2,-9.67 1.68,-15.14 1.21,-3.67 6.83,-5.51 8.4,-8.4 1.74,-3.41 0.22,-5.15 1.68,-8.4 7.25,0.26 22.64,1 30.25,-3.36 3.42,-2 5.2,-7.77 8.41,-10.08 1.46,-1.16 3.24,0.63 5.03,0 10.93,-4.25 3.52,-15.18 0,-20.16 5.83,-1.58 16.7,-3.2 18.49,-8.4 0.89,-2.73 -1.32,-7.72 0,-10.08 0.58,0 1.1,0 1.67,0 6.73,-3.41 11.51,-10.14 16.81,-15.13 1.73,0.79 4.83,-0.68 6.71,0 4.11,1.42 5,10.08 15.13,6.72 1.21,-0.42 3.21,-4.19 5.04,-5.04 -1.57,-2.57 -0.1,-6.19 -1.67,-8.4 -0.79,-1.05 -9.3,-4.67 -10.09,-6.72 -0.73,-1.84 1.05,-3.41 0,-5.04 15.8,-4.15 18.79,-3.41 16.8,-21.85 5.67,-3.56 11.19,-4.51 16.8,-8.4 1.74,-1.25 1.37,-3.73 3.36,-5.04 -1.2,-7.88 -3.25,-18.32 3.37,-21.84 12.29,-6.57 16.12,3.89 21.84,5.04 7.03,1.36 7.88,-2.63 11.76,-3.36 -0.42,-4.04 2.05,-2.73 1.68,-6.72 -0.16,-1.58 -3.73,-5.36 -3.36,-8.4 0.06,-0.79 4.88,-4.73 5.05,-5.04 0.73,-2 -0.96,-3.2 0,-5.05 -2.69,-1.25 -7.2,-3.46 -10.1,-5.03 4.9,-10.61 4.27,-14.24 0,-25.21 5.47,3 10.83,5.94 16.82,8.4 -0.43,0.06 8.45,0.17 10.08,0 1.26,-2.89 6.4,-18.79 8.39,-20.16 4.31,-3.09 10.56,-0.63 15.13,-3.35 3.56,-2.22 1.42,-9.52 0,-8.41 0.73,-2.73 -0.89,-5.83 0,-8.4 0.21,-0.73 2.99,-1.63 3.36,-3.36 13.24,0.99 15.22,0 23.52,-3.37 1.32,-12.07 1.42,-17.11 -6.72,-23.52 -0.84,-0.62 -4.72,-2.42 -5.04,-3.35 -1.26,-3.68 0.58,-7.94 0,-11.77 2.67,-0.78 2.73,1.37 3.36,-1.68 2.78,1.21 5.57,-1.26 8.4,0 2.15,0.94 1.42,7.08 3.37,8.4 9.86,6.72 22.41,2.1 25.19,-6.72 2.01,-6.51 -0.89,-6.35 -1.67,-11.76l-3.36 0 1.68 -13.45c-5.99,0.42 -6.93,0.27 -10.09,0 -1.05,-2.88 1,-5.56 0,-8.39 -0.41,-1.11 -4.4,-2.37 -5.04,-3.36 -1.79,-2.88 -0.21,-5.21 -1.67,-8.41 1.83,-1 3.04,-4.56 5.03,-5.04 1.1,-0.31 3.94,0.74 5.04,0 3.1,-2.27 4.89,-10.55 8.41,-11.76 3.77,-1.42 11.02,0.16 15.12,0 2.62,-9.08 5.67,-16.33 8.4,-23.52 -1.26,-0.84 -1.79,-5.84 -3.35,-6.72 -3.27,-1.89 -7.57,-1.74 -10.09,-3.36 -9.83,-6.3 11.03,-11.24 15.12,-15.13 1.58,-1.58 0,-5.14 1.69,-6.72 -1.85,-0.42 -22.85,-4.62 -23.53,-5.04 -0.89,-0.58 -5.73,-13.13 -6.72,-15.12 8.4,-2.73 9.45,-4.52 15.12,-8.4 -2.47,-2.2 -2.32,-6.35 -5.04,-8.4 -2.36,-1.79 -3.84,-0.84 -6.72,-1.68 0.05,-0.32 -1.27,-6.15 -1.68,-8.41 5.25,-2.47 9.03,-4.19 13.44,-6.72 -0.89,-2.41 0.84,-6.04 0,-8.4 -0.42,-1.1 -4.41,-2.36 -5.04,-3.36 -2.26,-3.63 -3.67,-10.08 -5.05,-13.44 -0.89,2.78 -1.67,-5.04 -1.67,-5.04 7.19,-4.2 1.94,-14.07 -6.73,-13.44l-3.35 3.36c-3.21,1.57 -5.57,2.1 -8.4,3.36 -0.06,0.25 -0.22,10.92 0,10.08 0.99,2.09 4.25,3.41 5.03,5.04 1.68,3.57 0.63,6.93 1.68,10.08 -3.73,-3.25 -6.67,-5.04 -10.07,-8.4 -2.9,0.99 -5.57,-1.06 -8.41,0 -2.09,0.68 -4.67,7.66 -6.72,8.4 -2.89,1 -5.57,-1.05 -8.4,0 -0.21,-0.36 -1.68,-3.37 -1.68,-3.37 -0.84,2.58 -1.68,-6.4 -1.68,-6.71 0.37,-0.32 4.87,-2.99 5.04,-3.36 1.21,-4.25 -2.04,-6.41 -1.68,-8.4l-3.36 0c-2.26,0.73 -4.42,8.5 -6.72,10.08 -1.16,0.73 -3.88,-0.32 -5.04,0 -1.16,0.26 -5.52,4.62 -6.72,5.04 -10.08,3.21 -19.27,3.35 -31.93,3.35 -2.99,6.26 -2.78,6.05 -5.05,15.13 -0.25,0 -5.03,-0.1 -5.03,0 -0.36,-4.04 -1.68,-12.02 -1.68,-18.48 3.78,-1.31 5.2,-0.79 10.08,-1.68 -0.58,-7.57 -0.58,-16.59 -3.37,-25.2 7.94,1.47 8.72,2.52 16.82,0l1.68 -3.36c2.88,-1.16 8.66,0 11.76,0 -0.32,-1.58 2.31,-3.31 1.67,-6.73 -1.31,-7.03 -11.02,-13.44 -15.11,-18.48 -1.79,2.47 0.04,4.2 -1.69,6.73 -1.31,1.84 -3.25,0.25 -5.03,1.67 -2,1.47 -3.47,6.35 -5.05,8.41 -0.32,-0.48 -4.57,-1.22 -5.05,-1.68 -1.46,-1.43 -1.03,-4.52 -1.67,-6.73 -1.79,-0.37 -2.68,-3.15 -3.36,-3.36 -6.25,-2.15 -9.66,2.21 -13.44,3.36l-1.69 -1.67c0.59,-10.14 -0.57,-11.41 -1.68,-18.49 -1.3,0 -5.61,0.68 -6.71,0 -1.37,2.15 -5.83,3.94 -6.73,6.72zm-1119.05 -552.8c-2.42,2.36 0,8.5 -1.68,11.76 -1.57,2.94 -10.45,7.24 -16.8,5.04 0,0 -3.15,-8.98 -8.4,-10.08 -4.88,-1.05 -11.18,1.57 -13.44,1.68l-1.69 13.44 -8.39 10.08 5.03 1.67c3.26,5 3.68,6.99 6.73,13.45 -1.79,-0.84 -4.89,0.63 -6.73,0 -5.77,-1.99 -12.02,-19.01 -18.47,-21.84 -8.2,-3.68 -22.32,-3.27 -31.93,-5.05 -1.74,2.37 -4.31,3.42 -6.73,5.05 0.06,0 0,4.78 0,5.04 2.11,0.52 2.68,4.2 0,3.35 -0.36,-0.09 -1.41,-2.83 -1.67,-3.35 -4.68,0 -10.51,0.16 -15.13,0 -1.99,11.03 -6.72,16.07 -11.76,23.53 -2.05,-1.58 -4.72,-0.16 -6.72,-1.69 -0.68,-0.52 -3.2,-6.24 -3.36,-6.72 11.29,-3.15 -18.96,0.64 -6.72,1.68 -2.73,0.79 -4.67,0.06 -6.72,1.68l-10.08 11.77c-2.63,4.66 -1.26,13.65 -6.73,16.8 -2.51,1.41 -9.76,1.31 -11.76,1.67 -8.24,21.63 -7.08,7.3 -20.16,13.44 -2.15,0.96 -3.15,6.83 -5.04,8.41 -1.73,1.31 -4.89,0.68 -6.72,1.68l-1.68 3.36c-7.35,4.73 -14.28,3.1 -21.84,3.37 -1.01,2.35 -1.63,7.23 -3.37,10.08 -2.89,4.51 -8.92,3.72 -13.44,6.71 -5.77,3.73 -19.47,25.52 -23.52,26.89 -0.53,0.15 -7.09,-1.89 -10.08,-1.68 -6.2,0.37 -16.75,3.68 -21.85,5.04 0,8.82 0.74,14.86 1.69,21.85 -3.9,-1.01 0.57,1.88 -3.37,1.67l-3.36 -3.36c-5.67,-1.52 -12.12,3.94 -13.44,6.72 -2.78,5.83 -0.42,11.03 0,16.8 2.88,0 7.3,-0.89 10.08,0 -1.52,19.22 0.53,19.49 -16.8,18.48 -0.48,1.11 -4.15,4.26 -5.04,5.05 1.94,6.62 1.47,9.66 3.36,16.81 -0.74,-0.12 -7.25,1.25 -10.08,1.67 0,0 0.74,-8.71 -16.8,3.36 2.46,18.54 -6.15,24.94 -3.36,45.37 -4.94,2.83 -10.61,7.14 -15.13,10.08 0.58,2.94 -0.63,5.41 0,8.4 0.84,4.2 6.09,9.77 6.72,15.12 0.63,5.83 -0.05,10.83 -1.67,15.12 -0.06,0.11 -3.37,1.69 -3.37,1.69 -1.89,10.39 2.31,22.79 3.37,31.92 2.04,0.69 4.3,-0.1 5.04,1.68 0.73,1.79 -0.95,4.94 0,6.72 -1.21,1.42 -5.73,3.36 -6.73,5.04 -5.46,8.83 -0.26,16.76 -1.68,26.89 0,0 -2.99,1.47 -3.36,1.68l0 3.36c-0.47,2.62 -2.1,8.24 0,13.44 0.42,1.05 4.1,2.42 5.04,3.36l0 3.36c17.38,1.22 17.54,1.37 26.88,-10.08 1.27,0.42 4.84,1.79 5.05,1.68 -0.74,2.37 -3.15,5.57 -3.36,6.72 -0.53,2.48 1.68,10.08 1.68,10.08 0.73,0.53 4.72,2.42 5.04,3.37 1.26,3.88 -0.37,9.29 0,13.43 -15.39,-7.14 -25.41,-5.66 -18.48,13.45 0.84,2.36 -0.16,3.83 1.68,5.04 3.04,1.94 7.71,-0.11 11.76,1.68 1.05,0.48 3.94,6.51 5.04,6.72 10.82,2 15.17,-8.97 18.48,-15.12 1.9,0.95 4.62,3.26 6.72,3.36 -5.83,11.66 -3.51,9.93 0,20.16 -0.36,0.16 0,4.62 0,5.04 -0.89,-2.46 -1.83,4.36 -1.68,5.05 2.16,9.97 15.96,9.03 25.21,8.39 -0.53,0.84 0.31,4.05 0,5.04 -1.79,4.52 -12.82,9.36 -16.81,11.77 0.99,2.83 -1.04,5.52 0,8.4 0.58,1.68 9.82,9.61 11.76,10.08 6.94,1.68 19.27,-2.73 23.53,-5.04 1.57,-0.9 4.36,-6.35 6.72,-6.72 5.36,-0.89 7.25,2.1 11.76,3.36 -0.1,0 0,4.78 0,5.04 -20.95,2.31 -26.46,7.5 -15.12,23.53 8.98,-2.32 11.14,-1.11 20.16,-3.36 0.68,5.5 2.21,16.38 6.73,18.48 3.04,1.36 8.29,-0.48 11.76,0 17.85,2.41 18.27,10.13 30.24,-6.72 8.61,0.94 13.92,2.41 20.16,0l3.36 -3.36c5.62,-0.8 11.4,3.04 15.13,3.36 4.77,0.31 6.46,-1.68 10.08,-1.68 1.05,-4.26 1.89,-7.94 3.36,-13.45 -2.68,-2.15 -5.41,-3.19 -8.4,-5.04l0 -3.36c5.57,-2.62 11.86,-6.77 16.8,-8.4 5.77,-1.94 14.75,-2.73 20.16,0l3.36 3.36c8.66,1.26 12.97,-4.15 18.48,-5.04 3.79,-0.69 9.93,1.47 13.45,0 5.14,-2.25 4.83,-12.71 8.4,-16.8 3.73,-4.41 12.18,-6.46 16.81,-10.09 -1.58,-4.09 5.03,0 5.03,0 2.37,15.28 -0.21,12.71 15.12,15.13 2.52,-4.78 6.67,-14.97 13.45,-15.13 2.94,-0.1 0.94,2.32 5.04,1.68 0.84,2.36 -0.89,5.99 0,8.41 0.32,0.89 4.2,3.31 5.04,5.04 1.84,-0.74 4.78,0.47 6.72,0 5.25,-1.47 8.08,-13.65 10.08,-18.49 18.8,-0.78 14.91,0.95 21.84,-11.76 7.51,1.01 11.4,0.47 18.49,0 0.37,-1.84 3.1,-2.67 3.36,-3.36 1.26,-3.67 -1.26,-8.08 0,-11.76 1,-2.99 8.09,-5.82 10.08,-8.4 2.15,-2.89 2.47,-7.83 5.04,-10.08 4.94,-4.46 12.66,-4.67 15.13,-11.76 1.25,-3.73 -0.74,-7.88 0,-11.77 0.31,-1.99 4.83,-8.08 5.03,-10.08 1.27,-12.81 -6.14,-13.96 -13.44,-18.48 -2.2,2.94 -4.46,5.51 -6.72,8.4 4.2,0.79 -5.04,3.36 -5.04,3.36 1.57,-9.08 -1.31,-8.82 8.4,-15.12 3.89,-2.57 6.41,-2.31 10.08,-5.04 1.11,-0.89 2.05,-4.46 3.36,-5.04 5.73,-2.78 12.71,-0.21 18.49,-3.36 2.67,-1.52 1.26,-6.78 3.35,-8.41 -2.62,-4.83 -0.62,-5.56 -5.04,-8.4 -2.52,-1.62 -5.19,-1.99 -8.4,-3.36 1.79,-1.2 2.99,-5.93 5.04,-6.72 4.84,-1.94 9.72,0.48 13.45,-1.68 3.3,-1.99 1.1,-5.25 3.36,-8.4 1.42,-2.1 7.09,-3.09 8.4,-5.04 1.52,-2.42 7.66,-20.53 6.72,-25.2 -0.58,-2.68 -5.83,-4.84 -6.72,-6.73 -1.84,-3.93 -0.37,-6.61 -1.68,-11.76 2.2,-0.1 2.47,-3.15 3.36,-3.36 3.57,-0.95 4.83,2.89 6.72,3.36 10.18,2.31 12.34,-3.67 16.8,-6.72 -0.84,-7.19 -1.94,-16.07 -1.68,-21.84 -7.98,-4.04 -11.28,-1.52 -11.76,-13.45 -0.52,-11.55 5.72,-10.81 6.73,-15.12 0.78,-3.51 -1.64,-9.39 -1.68,-10.08 -1.27,-14.81 4.09,-16.33 0,-30.24 2.25,-0.84 6.03,0 8.39,0 5.04,-10.77 4.41,-6.35 1.68,-18.49 -2.25,-0.68 -5.3,-0.41 -6.72,-1.68 -3.72,-3.46 -7.08,-9.6 -10.08,-13.43 7.25,-5.78 12.39,-11.51 20.16,-16.8 -0.89,-2.94 0.84,-5.52 0,-8.41 -0.31,-1 -4.67,-4.99 -5.04,-6.73 -1.57,-7.29 -0.73,-11.97 -1.68,-18.47 1.89,0.05 9.14,1.25 13.44,1.67 0,0 2,-7.76 1.68,-10.07 -0.15,-0.85 -8.02,-21.48 -8.4,-21.85 -1.67,-1.57 -6.66,-2.26 -8.39,-3.36 2.46,-7.78 8.18,-21.74 -1.69,-25.2 -2.89,-1.05 -5.56,0.99 -8.4,0 -1.21,3.15 -2.05,6.03 -3.36,8.4 -8.4,14.64 -1.47,0.94 -8.4,3.36 0,-3.05 0.73,-7.2 0,-10.09 0.52,-0.31 3.25,-1.36 3.36,-1.67 0.73,-2.47 1.68,-2.1 3.36,-3.36 -1.36,-3.68 -2.89,-7.52 -3.36,-10.08 -2.99,1.41 -13.55,5.82 -16.8,5.04 -0.37,-0.11 -4.2,-4.84 -5.04,-5.04 -1.94,-0.53 -4.88,0.68 -6.73,0 -1.31,1.25 -5.25,7.87 -6.72,8.4 -1.83,0.57 -5.03,-0.95 -6.72,0 5.88,0 -3.31,-21.74 -3.36,-21.85 8.61,-3.21 8.98,-4.2 15.13,-8.4 -0.79,-2.94 0,-7.09 0,-10.08 -7.35,-1.42 -8.83,-2.42 -18.49,-1.68 -2.15,-4.41 -1.63,-3.88 -5.04,-6.73 -5.14,3.16 -5.82,5.25 -13.44,8.41 -1.95,17.06 -0.89,16.85 13.44,16.8 -3.46,6.98 -2.84,9.61 -5.04,18.49 -4.21,-5.57 -10.29,-11.88 -16.8,-15.13 -0.53,0 -1.11,0 -1.68,0 -2.89,-5.83 -0.79,-14.02 -1.68,-20.16 3.57,-0.69 3.15,0 5.04,-1.68 2.47,-2.31 8.19,-4.05 10.08,-6.73 0.79,-1.15 1.36,-7.03 0,-5.03 -0.53,-0.27 -2.41,-6.25 -3.36,-6.72 -7.98,-4.15 -20.11,1.62 -26.89,0 -4.78,-1.21 -7.24,-11.92 -11.76,-13.44l-3.35 0c-0.95,1.56 -3.89,0.46 -5.05,1.68zm413.34 468.79c0.06,0.89 0,21.84 0,21.84 -0.84,1.26 -4.25,2.04 -5.04,3.36 -0.73,1.11 -0.79,7.62 -1.67,8.4 -2.52,2.05 -4.21,0.89 -8.41,1.68 2.11,1.1 -3.99,2 -5.04,1.68 -0.78,-0.26 -1.62,-2.83 -3.36,-3.36 1.16,-8.82 3.36,-18.64 -5.04,-21.84 -3.36,-1.32 -3.88,2.37 -8.4,1.68 -1.42,-0.26 -5.35,-4.77 -6.72,-5.04 -13.28,-2.88 -19.01,5.98 -25.21,10.08 -1.68,-1.1 -3.25,0.68 -5.04,0 -2.57,-0.99 -4.35,-7.3 -6.72,-8.4 -5.93,-2.83 -20.79,-1.63 -26.88,1.68 -8.04,4.31 -3.78,22.31 -8.4,30.24 -0.74,1.22 -11.61,9.98 -13.45,11.76 -1.94,-1.83 -8.24,-9.55 -10.07,-10.08 -17.55,-5.04 -28.31,25 -36.97,-6.72 -0.95,-0.1 -6.46,-2.57 -10.09,-1.68l-1.67 3.36c-5.56,3.58 -10.19,10.87 -1.68,15.12 1.41,0.68 -2.36,1.85 -1.68,3.36 -3.68,0.95 -8.09,4.05 -11.76,3.37 -4.31,-0.9 -3.79,-8.3 -13.45,-6.73 -2.36,0.38 -14.07,11.5 -15.12,11.77 -3.72,0.78 -11.55,-1.11 -16.8,-1.68l-1.68 5.04c-13.29,3.47 1.1,-6.83 3.36,-8.4 -0.47,-2.57 -1.79,-7.82 -1.68,-8.41 -6.78,-1.04 -8.77,-0.73 -15.13,-1.67 -0.46,2.2 -1.99,2.26 -3.35,3.35 1.73,6.83 1.67,9.73 3.35,15.13 -4.25,1.94 -9.92,1.05 -11.76,5.04 -1.62,3.31 -1.41,12.71 -1.68,15.12 -3.41,-1.05 -3.35,2.68 -6.71,1.68 -2.21,-0.68 -3.47,-7.45 -6.73,-8.4 -8.77,-2.62 -16.7,-0.52 -25.2,-1.68 -1.36,16.91 -9.19,27.83 -16.81,38.65 -0.79,-0.59 -4.24,0 -5.04,0 -3.51,-7.46 -3.04,-5.99 -5.03,-16.81 -2.85,-0.79 -2.63,1.26 -3.37,-1.67 -1.73,0.88 -4.93,-0.64 -6.72,0 -0.79,0.2 -1.63,2.73 -3.36,3.36 0,0.04 0.16,7.87 1.68,5.04 -0.42,1.62 -1.68,6.72 -1.68,6.72 -3.88,0.57 -8.14,-1.26 -11.76,0 -2.42,0.79 -4.36,7.35 -6.72,8.4 -12.29,5.36 -23,-1.74 -31.93,-5.04 -3.57,4.83 -6.09,5.77 -8.4,13.44 0.06,-1.31 0.63,-11.29 0,-13.44 -0.31,-1 -3.1,-1.26 -3.36,-3.36 -2.41,0.84 -6.04,-0.9 -8.4,0 -1.31,0.42 -4.41,3.72 -6.72,5.04 -1.63,-1.05 -3.36,-5.83 -5.04,-6.72 -2.41,-1.26 -19.85,-4.52 -23.53,-3.36 -0.31,0.05 -1.36,3.04 -1.67,3.36 -9.83,8.61 -4.73,6.56 -3.36,16.8l1.67 6.72c0.06,-0.05 7.88,-0.21 5.05,-1.68 1.94,0 4.72,0.1 6.72,0 0,0.52 -0.27,6.61 0,6.72 -3.99,-0.79 -2.79,2.41 -6.72,1.68 -1.37,-0.26 -5.36,-6.45 -6.72,-6.72 -5.21,-1.1 -23.21,4.57 -26.89,6.72 -1.68,0.95 -0.47,3.83 -1.68,5.05 -2.05,1.93 -5.78,1.67 -8.41,3.35 -1.09,0.63 -2.3,4.61 -3.35,5.04 -1,0.37 -4.15,-0.52 -5.04,0 -1.21,-3.1 -2.52,0.06 -3.37,-1.69 -0.68,-1.36 0,-5.24 0,-6.7 -2.93,-0.69 -0.94,-0.63 -1.67,-3.37 -2.94,0 -7.35,0.83 -10.09,0 -3.72,5.2 -7.87,12.23 -13.44,15.13 -8.14,4.14 -27.3,5.09 -31.93,11.76 -1.78,2.46 0.06,4.19 -1.67,6.72 -2.94,-1.05 -1.31,1.88 -1.69,3.36 -4.3,-1.31 0,5.04 0,5.04 4.42,1.32 5.47,-1.79 10.09,-1.68 0,0.2 -0.05,4.99 0,5.04 -4.15,1.2 -3.79,0.52 -8.4,1.68 2.52,1.74 -4.73,1.57 -5.04,1.68l-1.68 -8.4c-1.16,-0.68 -7.93,0.9 -8.41,0 -1.42,-2.79 0,-10.24 0,-13.44 -18.01,-4 -12.23,-2.9 -20.16,11.76 -0.31,0.52 -5.04,4.88 -5.04,5.03 -1.36,5.99 2.47,11.29 1.68,15.13 -0.42,1.79 -4.46,3.36 -5.04,5.03 -2.05,-0.88 -6.14,0 -8.4,0 0.26,-4.72 0.74,-6.66 1.67,-11.76 -1.46,-1.15 -2.98,-0.99 -3.35,-3.35 -3.21,0.16 -11.76,1.68 -11.76,1.68 -0.11,0.1 -4.78,1.36 -5.04,1.67 -2.37,2.27 -1.06,9.41 -3.36,11.76 -3.36,3.32 -9.98,2.01 -13.45,5.05 -1.15,0.95 0,4.31 -1.68,5.04 -2.36,0.9 -6.09,-0.94 -8.4,0 1.73,-0.84 -3.36,-3.36 -3.36,-3.36 0.32,-0.52 3.36,-5.04 3.36,-5.04 5.99,-1.83 11.87,-0.89 15.12,-5.04 0.32,-0.42 3.37,-5.04 3.37,-5.04 0.58,-2.52 -1.69,-10.08 -1.69,-10.08 -15.91,0 -25.09,1.89 -33.6,13.44 -1.41,1.83 -1.41,5.83 -3.36,6.72 -5.15,2.26 -11.03,-0.73 -15.12,1.68 -2.16,1.21 -8.51,21.21 -6.73,26.88 0.37,1.16 4.21,3.26 5.05,5.05 3.04,0 7.03,-0.74 10.08,0 -0.21,0.31 -2.05,3.25 -1.68,3.36 -12.87,2.25 -13.29,5.09 -18.48,15.13 -16.75,0 -19.38,1.35 -23.53,13.44l0 3.36c-3.41,2.73 -9.87,0.83 -13.45,3.35 -8.23,5.73 -1.67,29.24 -1.67,43.69 7.3,2 17.69,5.41 20.16,11.77 0.68,1.78 -1.1,3.35 0,5.03 -3.94,2.73 -26.15,22.47 -26.88,25.2 -1.58,5.36 1.21,8.89 1.68,13.44 2.2,-0.1 5.56,2.52 10.08,1.69 3.57,-0.73 4.41,-5.2 6.72,-6.73 0.05,0 7.46,2.63 5.04,3.37 1.05,0.79 4.46,2.2 5.04,3.36 1.89,3.78 0.37,6.61 1.68,11.77 -2.31,0.41 -2.47,3.2 -3.36,5.03 -1.84,-0.89 -3.83,-4.66 -5.04,-5.03 -3.57,-1.22 -8.09,0.52 -11.76,0 -1.78,5.45 -7.56,15.48 -6.72,21.84 0.1,1.04 4.72,4.29 5.03,5.04 2.53,5.66 -0.46,5.77 0,11.75 -2.14,-1.09 -1.36,2.58 -5.03,1.69 -0.42,-0.1 -1.89,-3 -3.36,-3.37 6.66,-2.51 -9.4,-2.51 -5.05,-1.68l-1.67 6.73c6.72,4.09 18.95,7.03 23.52,13.44 2.52,3.57 1.73,9.03 5.04,11.76 5.26,4.35 11.76,1.78 13.44,10.08 1.89,9.61 -4.78,12.39 -3.36,20.17 0.74,4.24 8.4,6.66 10.09,10.08 1.25,2.68 3.2,12.07 3.36,13.44 0.68,7.56 -1.95,26.36 1.68,35.28 0.57,0 1.1,0 1.67,0 5.04,2.52 8.72,11.82 13.45,13.45l3.36 0c0.84,0.74 0.52,4.41 1.68,5.03 3.73,1.89 7.87,-0.47 11.76,1.69 3.1,1.73 16.7,20.9 10.08,26.88 8.35,6.56 25.26,10.87 23.53,26.89 -0.06,0 -4.42,6.93 -5.05,8.4 2.1,-1.1 1.32,2.57 5.05,1.68 1.84,-0.47 2.3,-4.88 3.36,-6.73 1.31,0 5.56,0.69 6.71,0 3.52,3.41 17.18,13.65 5.05,16.81 -1.21,-1.47 -3.36,-6.14 -5.05,-6.71 -1.89,-0.7 -4.98,0.78 -6.71,0 -0.85,1.62 -3.73,3.87 -5.04,5.03 0,0 0,6.14 1.68,3.37 1.15,3.82 0.73,2.77 1.68,6.71 3.35,-1.58 1.68,11.76 1.68,11.76 10.13,-3.3 13.75,-4.2 25.2,-3.36 0.26,-0.58 1.36,-3.31 1.68,-3.36 1.52,-0.42 8.25,1.26 6.72,1.69 2.52,4.29 5.46,7.97 8.4,11.76 -7.72,2.3 -16.69,2.57 -18.49,10.07 -0.26,0.84 0.43,4.25 0,5.04 -1.04,1.69 -6.08,3.1 -6.71,5.04 -0.9,2.36 0.84,5.99 0,8.41 3.04,-1.47 5.62,-0.16 8.4,-1.68 3.1,-1.79 5.51,-7.83 8.4,-10.08 5.67,-4.62 11.23,-7.15 16.8,-11.76 3.89,5.66 8.51,13.6 13.44,18.48 2.05,2.05 8.98,4.1 10.09,6.73 1.94,4.87 -2.05,6.23 -1.69,10.07l3.36 5.04c2.48,12.29 0.69,9.24 5.05,18.49 1.83,-0.74 4.78,0.47 6.72,0 4.62,-1.27 9.71,-8.77 13.44,-11.77 12.66,11.45 23.32,20.64 43.68,10.08 -1.09,9.98 -2.2,19.84 6.73,23.53 2.68,1.09 5.14,-0.48 6.72,1.67 1.15,1.58 4.26,13.25 5.04,15.13 19.06,-2.84 24.1,-0.52 36.97,6.72 2.57,-1.62 9.45,-9.14 13.44,-8.4 0,0 -1.31,8.14 -1.68,10.07 1.21,0.8 9.4,5.52 10.08,6.73 1.36,2.63 -0.68,7.14 0,10.08 0.63,2.89 8.03,8.2 8.4,10.08 0.69,3.89 -2.46,6.25 -3.36,10.09 4.62,-1.05 11.66,-4.2 16.8,-3.36 4.73,0.74 8.3,7.92 11.76,10.08 2.68,1.68 5.41,-0.06 8.41,1.68 4.56,2.63 13.02,20.26 15.12,26.88 6.35,-2.1 18.01,-5.04 25.2,-5.04 2.1,-0.05 5.72,3.36 10.08,1.68 0,-0.52 0,-1.1 0,-1.68 2.74,-1.41 3,-5.35 5.05,-6.72 2.73,-1.89 5.19,0 8.4,-1.68 5.04,16.65 -1.58,10.61 15.12,15.12 0.37,-0.57 2.68,-4.83 3.36,-5.04 1.89,-0.78 3.2,0.95 5.04,0 1.42,1.16 3.42,5.83 5.04,6.72 4.68,2.52 18.22,2.74 23.52,3.37 0.58,3.77 -1.31,8.14 0,11.76 2.58,7.14 33.77,12.91 43.69,15.11 0.74,2.95 -0.78,5.42 0,8.41 0.06,0.26 14.65,14.91 15.12,15.12 14.76,6.67 15.23,-4.72 21.85,-6.72 13.44,-4.15 18.38,3.84 23.52,6.72 2.74,1.53 5.3,0.21 8.4,1.68 0.95,-2.47 2.78,-2.25 5.04,-3.36 -1.31,-9.39 -0.84,-14.54 -1.68,-20.16 2.68,0.68 4.05,-0.89 6.73,-1.69 1.46,2.58 5.61,12.4 8.39,13.45 9.51,3.56 22.01,-3.15 28.57,-3.36 11.29,-0.48 12.7,3.72 18.48,8.4 15.75,-6.93 17.07,-0.37 35.28,-3.36 1.69,-0.31 9.09,-4.94 10.09,-5.04 5.82,-0.95 11.5,2.31 15.12,1.67 1.57,-0.3 4.94,-4.24 6.72,-5.03 -0.78,-2.99 0.74,-5.47 0,-8.4 -0.15,-0.63 -16.8,-24.47 5.04,-18.49 0.74,0.16 3.73,4.78 5.04,5.05 3.42,0.62 5.15,-2.01 6.73,-1.68 -1.79,-1.37 1.36,-7.25 1.67,-8.41 -1.88,-1 -0.73,-2.94 -1.67,-3.36 -3,-1.46 -5.57,-0.99 -8.41,-1.68 0.21,-3.41 -1.83,-5.04 -1.67,-6.72 0.41,-6.03 10.6,-9.13 13.43,-13.44 2.1,-3.36 1.16,-8.2 3.36,-11.76 2.52,-4.31 22.32,-12.92 30.25,-11.76 0.79,0.09 4.68,4.88 5.04,5.04 1.74,0.58 5.09,-0.94 6.72,0 2.26,1.32 4.26,7.4 6.72,8.4 1.26,0.47 3.73,-0.84 5.05,0 1.46,-19.01 0.68,-14.6 15.11,-15.12 -0.2,4.46 1.06,10.76 0,15.12 -0.09,0.15 -4.77,3.09 -5.03,3.37 3.04,11.33 -0.69,8.02 6.72,15.11 -1.78,0.53 -2.63,3.1 -3.36,3.36 -2.63,0.84 -5.72,-0.78 -8.4,0 2.68,0.99 -6.46,1.63 -6.72,1.68 -0.43,-1.21 -0.75,-3.62 -1.68,-5.04 -8.36,-12.39 -6.25,-11.76 -26.89,-11.76 -1.16,3.26 -1.16,8.78 -3.36,11.76 -1.89,2.41 -7.77,2.94 -10.08,5.04 -2.53,2.21 -1.58,1.64 -3.36,5.04 0.05,0 0,4.78 0,5.05 1.15,0 5.72,-0.75 6.72,0 -0.11,0.57 1.21,5.82 1.68,8.4 -8.3,0 0.63,13.17 1.68,15.12 -5.51,4.31 -10.08,8.77 -15.13,13.44 0.9,2.94 2.1,3.62 1.69,6.72 17.48,10.24 20.95,8.4 30.24,-8.4 1.1,1.36 5.57,1.78 6.72,3.35 1.47,2.01 0.31,4.57 1.68,6.73 6.77,10.98 14.97,5.67 23.53,1.67 -1.42,-12.69 -0.26,-14.95 1.68,-23.51 1.62,0.94 4.93,-0.79 6.72,0 2.52,1.05 4.78,9.14 8.4,10.08 12.65,3.15 14.43,-6.41 20.16,-10.08 2.94,-1.95 5.36,-0.21 8.4,-1.68 2.93,-1.53 5.78,-6.46 8.41,-8.41 1.36,0.63 3.62,-0.36 5.03,0 2.68,0.63 4.73,5.78 6.73,6.73 5.67,2.63 8.88,0.31 15.12,0 0.26,-1.16 3.26,-4.73 3.36,-5.04 2.31,-9.08 -5.2,-13.55 1.68,-18.49 1.73,0.79 4.83,-0.68 6.72,0 2.63,0.89 3.1,6.99 5.04,8.4 8.98,6.57 16.34,0 23.52,-3.36 -0.2,-4.93 0,-10.24 0,-15.12 -3.83,-1.57 -13.8,-4.57 -15.12,-8.4 -0.68,-1.89 0.79,-4.98 0,-6.73 4.36,1.21 3.73,-2.78 8.4,0 5.57,3.26 2.26,10.94 13.45,10.09 6.57,-0.53 12.81,-7.87 15.11,-13.44 0,0 4.15,-2.26 1.68,-3.36 -2.77,-1.32 -6.03,-6.62 -5.03,-11.76 0.11,-0.79 4.57,-2.79 5.03,-3.36 3.95,-5.26 3.05,-9.36 5.05,-16.81 -1.48,-1.15 -2.99,-1 -3.36,-3.37 -0.57,0 -4.62,0.32 -5.04,0l0 -5.03c23,10.66 25.51,1.26 47.05,-5.04 0.47,-2.99 0.15,-9.56 1.68,-13.44 0.68,-1.95 6.03,-4.3 6.71,-6.72 0.9,-3.36 -0.68,-6.67 0,-10.09 -1.52,-1.2 -2.83,-1.1 -3.36,-3.35 -2.25,0 -6.45,0.84 -8.4,0 -1.15,-0.53 -2.68,-6.36 -3.35,-6.73 1.57,-0.05 3.93,-2.57 5.03,-3.36 9.3,6.25 5.67,5.47 18.48,5.04 -0.41,-4.04 2.06,-2.73 1.68,-6.71 -0.2,-1.74 -4.92,-6.05 -5.03,-6.73 -1.15,-5.93 2.67,-7.45 3.35,-10.08 0.75,-3.26 -0.88,-6.93 0,-10.08 0.96,-3.62 6.26,-6.98 8.41,-10.08 -0.73,-1.21 0.26,-3.84 0,-5.04 -0.94,-3.83 -8.61,-6.51 -11.76,-8.4 4.1,-14.03 9.24,-18.55 11.76,-35.29 -1.42,-0.32 -4.46,-3.26 -5.04,-3.35 -10.08,-2.27 -15.01,7.92 -20.16,11.75 -0.95,0.63 -2.79,4.15 -3.37,5.05 -0.73,-3.42 -1.88,-11.41 -3.35,-16.8 -0.42,-1.38 -4.84,-5.37 -5.05,-6.73 -1.62,-9.98 8.2,-11.34 10.08,-18.49 0,-0.52 0,-1.1 0,-1.68 -0.31,1.26 -2.09,-4.93 -1.68,-6.71 0.58,-2.74 13.76,-25.84 6.73,-30.26 -9.98,-6.3 -16.07,3.63 -21.84,5.05 -1.01,0.21 -4.21,-0.42 -5.05,0 -0.42,-1.83 -3.15,-2.67 -3.36,-3.36 -1.84,-5.3 0,-14.54 0,-20.16 0.89,3.05 1.68,-1.68 1.68,-1.68 -5.77,-12.66 -4.56,-9.45 -18.49,-8.4 -1.51,5.82 -5.03,27.35 -10.08,30.24 -4.03,2.2 -9.55,-0.05 -13.44,1.68 -0.78,0.32 -4.72,4.94 -5.04,5.04 -3.67,0.78 -4.94,-2.1 -6.72,-1.68 1.95,0 -1.68,-5.04 -1.68,-5.04 -0.47,-6.08 6.2,-16.54 6.72,-20.16 0.84,-6.73 -2.51,-12.35 -3.36,-16.81l1.69 -5.03c3.14,0.68 6.93,-1.05 10.07,0 7.88,2.62 5.15,17.63 18.49,11.76 13.23,-5.94 5.3,-20.28 1.67,-28.57 -8.82,0.68 -12.6,0.53 -20.16,1.68 3.32,-11.39 2.21,-10.19 0,-20.17 -1.57,-0.2 -5.57,-2.15 -8.4,-3.35 0,0 -11.18,10.86 -8.4,11.76 7.24,2.21 3.31,21.42 0,26.89 -2.47,3.93 -10.61,6.51 -15.12,8.39 1.26,-21.47 -0.63,-16.91 13.44,-30.24 -2.05,-6.2 -1.52,-7.77 -3.36,-13.45 0.83,-0.67 4.58,-2.41 5.04,-3.35 1.48,-3.25 -1.42,-4.94 1.68,-6.72 0,0 -3.1,-8.77 -3.36,-10.08 1.68,1.04 4.99,0.57 6.72,1.67 1.05,0.63 2.32,4.68 3.36,5.04 1.84,0.59 8.09,-1.26 6.72,-1.67 0.32,-1.01 4.67,-2.42 5.05,-3.37 1.73,-5.09 -1.79,-13.44 0,-18.47 1.26,-3.74 10.4,-2.16 8.39,-13.45 -0.68,-3.79 -7.5,-7.67 -10.07,-10.09 5.03,-10.92 5.03,-6.56 1.68,-16.8 -2.47,-7.56 -4.68,-15.7 -11.77,-18.48 -18.37,-7.24 -20.8,3.15 -18.48,18.48 -1.2,0.9 -8.03,3.84 -8.41,5.05l0 3.36 -3.35 0c-1.26,-4.52 -0.32,-7.72 -3.36,-10.08l-1.68 -1.69c0.78,-0.78 -0.48,-3.93 0,-5.03 0.58,0 1.1,0 1.68,0 6.46,-3.26 9.08,-9.61 13.44,-15.13 -16.54,-2.99 -16.54,-10.39 -21.84,-28.56 3.99,-1.89 12.55,-8.25 16.8,-8.41 8.93,-0.41 6.83,4.68 10.08,6.72 3.05,1.9 5.09,-0.31 8.4,1.69 2.11,-1.43 4.36,-3.94 6.72,-5.04 -1.26,-4.93 0.48,-8.3 -1.67,-11.77 -0.27,-0.36 -6.73,-3.35 -6.73,-3.35 -1.58,-6.3 4.67,-6.15 3.36,-13.44 -0.68,-3.78 -6.56,-5.78 -8.4,-8.41 -1.52,-2.15 -0.42,-4.67 -1.68,-6.72 -2.94,-4.72 -10.24,-7.34 -15.12,-10.08 0.73,-3.26 -0.94,-6.93 0,-10.08 0.52,-1.84 6.41,-5.94 6.72,-8.41 0.95,-9.34 -8.88,-14.33 -15.12,-16.8 -3.42,-1.35 4.62,-3.72 6.72,-3.37l3.36 3.37c14.91,3.99 12.17,-10.44 11.76,-18.48 -2.15,-0.37 -2.41,-3.04 -3.36,-3.35 -8.2,-2.84 -18.84,6.45 -23.52,8.39l-3.37 -5.04c0.31,-0.99 4.68,-2.42 5.05,-3.35 0.94,-2.84 0,-7.1 0,-10.09 2.57,1.11 0.94,-2.73 5.04,-1.68 0.68,0.16 2.46,4.46 3.36,5.04 8.56,5.3 12.08,1.1 18.48,-3.36 -6.87,-17.07 -7.04,-23.79 -26.88,-13.45 0.26,-0.2 0,-4.72 0,-5.03 6.66,-2.94 9.98,-2.42 13.44,-8.4 0.42,-0.8 2.42,-1.27 3.36,-1.69 -0.79,-1.83 0.63,-4.88 0,-6.73 -1.15,-3.29 -7.61,-6.45 -8.4,-10.07 -2.16,-9.72 1.46,-16.96 0,-26.89 1.63,0.95 3.31,-2.83 6.71,0 3.58,3.01 0.49,16.91 0,23.53 3.21,-0.47 6.09,2.15 11.77,0 0.53,-0.26 1.21,-3.25 1.68,-3.36 0.11,-1.52 4.78,-4.36 3.36,-10.08 -0.1,-0.42 -3.57,-3.84 -3.36,-5.04 0.32,-2.47 7.46,-4.15 6.72,-13.44 -0.47,-5.52 -6.14,-3.89 -3.36,-11.76 0.1,-0.48 4.46,-4.2 5.04,-5.06 0,0 -0.36,-4.35 -1.68,-1.67 -1.04,-0.58 -1.84,-6.14 -3.36,-6.73 -3.41,-1.25 -9.76,0 -13.44,0l0 -3.35c0.58,0 1.11,0 1.68,0 0.26,-1.2 0.79,-7.67 1.68,-8.4 7.19,-6.4 14.97,0.73 23.53,-1.69 0.94,-0.3 3.41,-4.3 5.03,-5.03 0,-1.53 -0.67,-5.36 0,-6.72 -5.57,-6.88 -10.39,-10.61 -18.48,-15.13 0,-2.09 1,-8.39 0,-10.08 -1.99,-3.31 -5.3,-1.05 -8.4,-3.36 -3.83,-2.83 -5.52,-11.92 -6.72,-16.8 -1.84,-0.42 -2.68,-3.15 -3.36,-3.36 -20.94,-7.25 -13.13,17.06 -10.08,25.21 -2.94,0.99 -3.1,0.1 -5.04,1.68 -6.52,5.14 -5.68,4.46 -15.12,1.67 1.25,-2.05 -3.52,-2.31 -1.68,-3.35 9.44,-5.73 5.56,-16.5 5.03,-30.25l5.05 -1.68c8.45,-14.91 1.57,-13.97 -13.44,-13.45 1.15,16.86 3.56,12.08 -10.08,15.13 -8.77,-12.77 -12.14,-15.13 -28.57,-15.13 -0.62,1.43 -2.01,6.47 -3.36,8.41 0.63,1 4.78,4.36 5.04,5.04 -0.9,0.63 0,7.14 0,8.4 -4.67,0.89 -6.63,0.11 -10.09,1.68 -2.46,-9.51 -4.3,-24 -8.39,-31.92 4.93,-3.94 8.13,-6.47 11.76,-11.77 -1.42,-2.31 -1.16,-6.09 -1.68,-8.4 -1.16,-0.21 -8.61,-1.15 -6.72,0 -5.1,2.73 -5.42,0.42 -8.4,5.04 -0.74,1.05 -3.26,8.99 -3.36,10.09 -1.94,-0.47 -6.61,-1.74 -6.73,-1.69 -1,-1.36 -1.99,-4.15 -3.36,-5.04 -1.83,1.21 -2.73,-2.89 -3.36,-3.36 12.5,-7.04 12.87,-4.83 10.08,-18.48 -2.14,-0.37 -2.41,-3.05 -3.36,-3.36 -2.1,-0.73 -7.87,1.37 -6.72,1.68l-3.36 0c-2.47,0.84 -2.25,7.41 -5.04,8.4 -1.83,0.58 -5.04,-0.94 -6.72,0 -2.1,-7.82 -5.09,-19.28 -11.76,-21.84 -1.84,-0.74 -3.41,1.04 -5.04,0 -0.84,1.36 -5.2,2.56 -6.73,3.36zm-668.74 628.41c0.27,0.95 4.73,2.37 5.04,3.37 0.9,3.04 -0.05,4.2 -1.68,5.04 0,0 2.84,8.09 3.36,10.08 -2.47,-1.73 -3.73,-0.79 -6.72,-1.68 -0.42,-2.21 -3.15,-3.78 -3.36,-5.03 -0.89,-4.79 2.83,-8.84 3.36,-11.78zm-15.12 0c2.41,0.69 9.24,9.46 0,6.73 -2.31,-0.68 -4.67,-8.08 0,-6.73zm850.21 -10.08c6.41,0.95 9.71,0.68 16.81,1.69 10.97,27.04 -7.04,15.7 -18.49,6.72 0.42,-2.57 1.73,-7.83 1.68,-8.41zm43.68 -10.08c0,0.06 4.79,0 5.05,0 0.62,6.2 0.78,8.04 1.68,13.44 -9.66,0.38 -14.18,1.31 -20.16,3.36 0,0 -3.36,3.32 -3.36,3.36 5.67,-7.34 10.19,-13.91 16.79,-20.16zm-28.56 -38.64c0.74,2.89 0,7.03 0,10.08 16.59,4.2 10.51,8.51 15.13,-8.41 -1.52,-1.2 -2.83,-1.09 -3.36,-3.35 -2.79,-0.84 -4.52,-0.32 -6.73,-1.68 -0.37,0.95 -4.03,2.57 -5.04,3.36zm16.81 -131.06c0.52,0.73 0,4.2 0,5.04 1.79,0.83 5.09,4.67 6.72,5.03 17.96,4.04 10.66,-12.91 8.4,-18.47 -1.48,0 -5.46,0.62 -6.72,0 -2.1,2.68 -6.35,5.61 -8.4,8.4zm-36.97 -139.47c2.84,6.1 2.73,15.87 15.12,11.77 1.21,-0.42 3.21,-4.21 5.04,-5.05 0,-2.41 -0.78,-6.25 0,-8.39 -1.57,-1.21 -5.51,-6.25 -6.72,-6.73 -1.84,-0.73 -3.41,1.05 -5.04,0 -2.31,2.78 -6.04,5.46 -8.4,8.4zm-92.42 -107.53c7.93,-3.68 21.23,5.2 21.84,8.4 0.32,1.89 -2.77,4.3 -1.67,8.4 0.37,1.58 3.88,0.95 3.36,5.04 0,0 -4.62,5.72 -5.04,6.72 -1.79,-0.84 -4.88,0.64 -6.72,0 -1.21,-0.42 -2.47,-4.25 -3.36,-5.04l-3.36 0c-1.79,-3.36 -6.2,-9.03 -6.72,-11.76 -0.53,-2.36 1.51,-9.18 1.67,-8.4l0 -3.36zm63.85 -55.45l3.37 0c3.84,1.31 4.36,10.19 8.4,11.75 1.78,0.7 3.36,-1.1 5.04,0 -2.21,1.74 -1.78,5.52 -5.04,6.73 -11.5,4.04 -13.02,-5.72 -16.8,-13.44 1.04,-0.89 4.56,-3.73 5.03,-5.04zm18.49 -21.84c0,0.05 4.78,0 5.04,0 0.89,6.19 0.74,9.97 1.68,16.8 -1.1,0 -5.93,-0.74 -6.72,0 -1.73,-1.36 -0.58,-3.05 -3.36,-3.36 -0.68,-3.36 -0.26,-6.3 -1.68,-10.08 2.04,-1.05 4.2,-1.16 5.04,-3.36zm-63.85 -794.77c-1.68,4.67 1.1,8.4 1.68,11.76 -1.84,0.37 -2.68,3.1 -3.36,3.36 -6.08,2.06 -13.86,-1.57 -20.16,0 -3.37,0.8 -8.14,7.67 -11.76,8.4 -7.78,1.53 -11.93,-3.57 -18.49,1.68 -3.15,2.42 -9.97,23.8 -11.76,28.57 -1.84,-0.99 -3.15,0.73 -5.04,0 -1.89,-0.74 -4.37,-5.78 -6.72,-6.72 -15.39,-6.25 -14.81,6.41 -21.85,11.76 -2.57,1.89 -6.98,1.89 -10.08,3.36 0,0 -1.26,-4.99 -1.68,-6.72 2,-1.83 7.62,-3.89 8.4,-6.72 0.48,-1.89 -0.78,-4.99 0,-6.72 -1.47,-1.16 -2.99,-1 -3.35,-3.36 -3.1,0 -7.09,0.68 -10.09,0 -1.68,2.31 -6.09,5.67 -6.72,8.4 -0.32,1.15 0.73,3.89 0,5.04 -1.26,1.78 -7.83,3.15 -8.4,5.04 -2.52,7.62 1.68,13.39 3.36,18.48l-3.36 0c-2.47,0.79 -7.4,9.61 -6.72,13.45 0.21,1.36 4.51,4.03 5.04,5.04 0.58,1.15 0.78,5.93 1.68,6.72 1.37,1.2 3.89,0.15 5.04,1.68 -2.99,6.35 -2.73,9.13 -5.04,16.8 -0.9,-0.58 -4.15,0 -5.04,0 -4.41,-9.35 -5.51,-5.88 -3.36,-20.16 -1.68,-0.79 -5.26,-4.68 -6.73,-5.04 -5.04,-1.37 -11.91,1.41 -16.8,0 -1.68,-0.53 -2.62,-6.09 -5.04,-6.73 -1.83,-0.52 -8.08,1.32 -6.72,1.69 -2.04,3.57 -4.52,7.03 -6.72,11.76 -0.26,0.52 -3.2,1.2 -3.36,1.68 -1.1,2.73 0.32,8.13 -1.68,10.08 -3.1,2.83 -8.51,0.73 -11.76,3.36 -2.41,1.83 -6.98,26.2 -3.36,28.57 5.19,3.35 8.24,0.16 11.76,-1.68 2.62,-1.43 1.21,-3.26 1.68,-6.73 1.1,0.37 5.04,1.68 5.04,1.68 -0.94,5.05 -1.31,6.04 -1.68,11.77 -1.84,0.36 -2.67,3.09 -3.36,3.36 -5.09,1.73 -13.24,-1.32 -18.49,0l-1.67 3.36c-2.73,1.73 -5.15,0.1 -8.41,1.68 1.85,-8.98 2.74,-14.18 5.05,-21.85 -3.16,-1.31 -0.84,-0.16 -1.69,-3.35 -8.08,-0.64 -15.17,-3.26 -20.16,3.35 -6.56,8.57 -4.14,17.23 0,25.21 -3.36,4.04 -9.19,8.76 -10.08,15.12 -0.31,2 1,6.61 0,8.4 -0.36,0.52 -7.61,1.47 -8.4,1.68 -0.52,3.26 -0.42,7.46 -1.68,11.76 0.32,0.05 6.04,1.11 6.72,1.68 1.84,1.52 1.63,7.04 3.36,8.41 -3.67,-0.12 -22.47,1.62 -26.88,5.04 -4.21,3.15 2.21,20.25 0,26.88 -1.21,3.51 -6.57,7.09 -8.4,10.08 -7.62,12.18 -13.18,21.37 -21.85,31.93 -1.47,1.73 -5.88,3.36 -6.72,6.72 -5.25,20.63 5.04,13.18 10.09,15.11 1.15,0.43 6.56,5.42 8.39,6.73 -3.09,6.56 -10.71,16.96 -5.03,26.88 0.99,1.79 5.67,2.78 6.71,5.05 1.11,2.46 -2.36,1.2 -1.68,5.04 1.63,9.86 12.66,10.07 21.85,10.07 -1,0.38 -6.41,4.95 -6.72,5.05 -16.23,4.78 -13.81,-2.31 -20.16,13.45 -7.51,-9.93 -13.13,-12.3 -28.57,-15.14 -1.26,2.63 -3.1,3.26 -5.04,5.04 3.04,7.62 3.15,11.3 6.72,18.5 -2.68,1.77 -8.09,4.14 -10.08,6.71 -1.89,2.31 -1.32,6.46 -3.36,8.4 -1.73,1.58 -4.68,0.37 -6.72,1.68 -2.15,1.32 -5.1,6.31 -6.72,8.41 0.68,1.15 0,5.3 0,6.71 8.5,2.16 9.5,3.1 20.16,1.68 -0.95,1.84 0.74,3.05 0,5.05l-3.36 1.68c-3.62,5.51 -1.89,8.82 -3.36,16.8 1.05,0.58 6.09,2.47 6.72,3.36 4.73,6.51 7.19,12.03 11.76,18.48 -3.31,2.21 -12.29,6.09 -13.44,10.08 -0.89,2.89 0.84,5.47 0,8.41 4.41,1.15 12.18,2.67 16.8,5.03 1,0.48 3.52,4.62 5.04,5.04 2.95,0.74 5.41,-0.78 8.4,0 -0.99,3.84 -1.89,7.56 -3.36,13.45 -4.2,0.16 -4.72,-3.26 -10.08,-1.68 -1,0.26 -3.46,4.26 -5.04,5.04 6.41,11.92 -0.78,8.67 16.8,10.08 1.63,4.47 3.47,9.61 5.04,13.44 0.58,0 1.11,0 1.69,0 1.31,7.09 -2.26,9.56 -1.69,16.81 0.42,6.04 5.73,18.16 6.72,23.52 0.69,3.88 -1.31,8.04 0,11.76 0.22,0.69 2.94,1.53 3.36,3.36 13.92,-4.93 4.21,2.9 13.45,-8.4 1.84,0.9 3.05,-0.78 5.04,0 0.47,0.16 3.94,4.78 5.04,5.04 7.24,1.63 8.29,-3.1 15.12,0 7.4,3.36 -0.78,8.35 -1.68,11.76 -0.52,1.89 0.68,4.83 0,6.73 12.39,8.87 16.96,14.02 35.28,13.44 0.95,-2.32 1.69,-6.2 3.37,-8.4 1.26,-1.79 5.46,-1.9 6.72,-3.36l0 18.48c0.42,2.05 9.76,13.44 11.76,16.8 4.51,-0.36 8.82,0 13.44,0 0.53,-1.1 2.36,-6.51 3.36,-6.72 15.12,-3.41 19.16,13.02 26.88,15.12 4.79,1.26 7.52,-0.94 11.77,-1.68 1.63,2 2.47,7.52 5.04,8.4 1.78,0.58 4.99,-0.94 6.72,0 0.31,-1.78 3.1,-2.67 3.36,-3.36 0.95,-2.88 -0.84,-5.51 0,-8.4 -1.52,-0.31 -9.03,-0.52 -11.76,-1.68 -2.94,-1.31 -4.2,-9.24 -6.72,-10.08l-3.36 0c-0.89,-1.84 0.89,-4.99 0,-6.72 1.15,-1.84 4.04,-4.67 5.04,-6.72 2.2,1.99 6.88,2.31 8.4,5.04 0.84,1.57 -0.53,4.94 0,6.72 0.69,2.58 5.25,4.62 6.72,6.72 3.21,-0.63 6.83,0.74 10.08,0 5.78,-1.36 7.2,-8.08 15.12,-8.4 9.09,-0.42 17.65,8.34 30.25,5.04 8.56,-2.31 6.45,-13.34 11.76,-16.8 5.88,-3.94 14.12,-1 21.85,-3.36 1.84,-0.64 4.72,-4.15 6.71,-5.04 0,-1.48 -0.67,-5.46 0,-6.73 0.9,-1.83 3.89,-1.14 5.05,-3.36 7.87,2.53 17.85,8.04 26.88,3.36 2.15,-1.14 3.26,-7.08 5.04,-8.4 1.68,-1.36 4.83,-0.73 6.73,-1.68 1.62,-0.89 5.03,-5.88 6.71,-6.72 3.94,-2.1 7.93,-1.89 11.76,-3.36 0,0 2.15,-7.87 1.69,-10.08 -0.63,-2.57 -6.25,-4.83 -6.72,-6.72 -1.31,-4.94 2.14,-4.25 1.68,-8.4 2.37,-1.73 3.4,-4.31 5.04,-6.72 6.56,0.89 14.01,2.93 20.16,0 3.68,-1.84 2.57,-5.57 5.04,-8.41 3.3,-3.93 10.97,-7.19 15.12,-10.08 -0.73,-5.46 -2.41,-10.97 -1.68,-15.12 0.63,-3.78 6.72,-7.34 8.4,-10.08 2.15,-3.62 1.58,-6.25 3.36,-10.08 -0.57,-0.42 -4.83,-2.73 -5.04,-3.37 -0.78,-1.93 0.95,-3.24 0,-5.04 13.39,-9.49 15.91,-14.59 0,-23.52 9.98,-5.19 18.64,-10.5 28.56,-15.11 -0.78,-2.21 0,-6.04 0,-8.4 -1.99,-0.96 -4.87,-4.48 -6.71,-5.05 -6.73,-2.1 -10.88,0.21 -15.12,-3.36 -1.79,-1.52 -1.01,-5.57 -1.69,-8.4 -3.72,1.31 -2.57,-4.68 -3.36,-6.73 0.26,0 9.41,0.63 6.72,1.68 10.82,-1.25 29.67,-2.56 20.16,-16.8 -0.89,-1.31 -6.29,-2.04 -6.71,-3.35 -1.05,-3.31 2.98,-8.09 1.67,-13.44 -1.1,-4.26 -7.34,-5.1 -8.4,-6.73 -3.46,-5.26 -4.98,-6.78 1.68,-10.08 -0.84,-11.5 -1.41,-11.03 5.05,-16.8 0.36,-0.37 4.51,0 5.04,0 0.26,-1.89 0.15,-9.61 1.67,-11.76l10.08 -5.04c-2.3,-7.04 -5.03,-13.82 -3.35,-18.49 0.42,-1.36 4.78,-5.46 5.04,-6.72 0.63,-3.88 -2.31,-2.47 -1.69,-5.05 -1.93,0.43 -6.56,1.69 -6.72,1.69 -4.19,14.12 -2.62,19 -11.75,6.72 -4.47,0.53 -3.94,2.15 -6.72,3.36 0,0 -0.26,-10.56 0,-13.44 13.44,-3.1 8.4,-0.79 15.11,-10.08 1.47,1.05 3.26,-0.68 5.05,0 1.73,0.68 2.1,5.82 3.35,6.72 7.78,5.51 18.24,1.73 25.21,0 -0.79,-3.26 0.9,-6.93 0,-10.08 -0.58,-1.95 -6.13,-5.88 -6.72,-8.4 -0.48,-1.89 -0.95,-9.24 1.68,-8.4l0 -3.37c-0.37,-1.05 -4.83,-4.51 -5.04,-5.04 -0.42,-1 0.43,-4.15 0,-5.04 12.44,-5.46 14.08,-6.4 20.17,-18.48l3.36 -3.36c0.52,-3.68 -2.94,-6.46 -1.69,-11.76 0.63,-2.94 6.2,-6.57 6.72,-10.08 0.48,-3.74 -2.83,-7.82 -1.68,-13.44 0.68,-3.37 7.62,-9.04 8.4,-11.78 1,-3.66 -0.62,-8.03 0,-11.75 -11.02,-6.46 -10.5,-3.73 -11.75,-20.16 2.73,-1.74 0.99,-1.48 1.67,-5.04l3.36 0c0.16,3.36 -0.31,8.45 0,13.44 0.32,-0.06 9.35,-0.31 6.72,-1.68 0.64,-2 3.36,-8.61 5.05,-10.08 0.2,-0.27 0.05,-4.73 0,-5.04 -0.69,-2.73 -4.99,-6.04 -6.72,-8.41 1.36,-2.2 3.83,-4.72 5.03,-6.71 1.16,-2.06 4.68,-7.04 5.05,-8.41 1.78,-7.98 -3.25,-14.65 -3.36,-18.48 -0.27,-6.72 4.09,-10.19 3.36,-18.48l-3.36 -5.04c-3.84,-18.59 -0.85,-15.71 -18.49,-20.17 -0.78,3.36 -2.57,9.61 -3.36,13.44 -3.25,0.84 -2.1,-1.47 -3.36,1.68 -5.87,-0.26 -13.33,-1.41 -16.8,-1.68 0.74,-12.86 -0.11,-17.49 -3.36,-28.56 -4.88,-1.1 -13.18,-5.73 -20.16,-3.36 -1.27,0.37 -3.25,4.14 -5.04,5.04 0,3.88 0.57,7.82 0,11.76l-3.36 0c-1.69,-3.52 0,-5.36 -1.69,-8.4 -2.36,-4.15 -10.82,-7.77 -11.76,-13.44 -1.63,-9.51 4.62,-9.77 3.36,-18.49 -0.36,-2.36 -14.7,-21.42 -16.8,-21.84 -9.3,-1.99 -10.66,4.3 -15.12,6.72 -5.47,2.84 -11.81,4.35 -16.8,6.72 2.73,11.03 9.19,31.56 -11.76,26.89 -7.4,-1.68 -5.36,-6.78 -8.41,-13.45 -0.52,-1.1 -4.83,-2.26 -5.03,-3.36 -1.54,-7.72 4.09,-14.44 0,-21.84 -2.42,-4.3 -8.46,-3 -13.45,-5.04 -0.37,0.94 -4.72,2.36 -5.04,3.36zm463.75 452c5.57,0.2 3.89,2.25 6.72,3.35 0.68,-1.94 2.05,3.68 1.68,5.04l-3.36 1.68c-6.45,9.87 -5.67,5.25 -15.11,6.73 -1.74,-2.84 -3.15,-6.04 -5.05,-8.41 -3.26,1 -1.42,-3.41 -1.67,-5.04 4.88,-0.57 16.64,-3.41 16.79,-3.35zm77.3 -218.44c-1.9,2.89 -0.79,4.52 -1.69,8.4 -7.67,-2.05 -10.87,-1.36 -18.48,-3.36 -10.24,22 -6.56,15.8 -31.93,16.8l-8.4 3.36c-1.31,0.26 -2.98,-1.47 -1.68,-1.68 -2.36,-1.04 -6.09,1 -8.4,0 -2.15,-0.94 -2.52,-11.61 -11.76,-8.41 -0.21,0.06 -4.04,6.42 0,5.05 0,0 1.32,8.24 1.68,10.08 -7.72,5.47 -6.51,3.52 -11.76,11.77 -4.99,-1.47 -6.77,-1.16 -10.08,-3.36 -6.36,-4.25 -2.99,-7.94 -1.68,-6.72 0.57,-3.74 4.93,-3.58 3.36,-10.09 -0.42,-1.57 -5.83,-3.67 -6.72,-5.04 -1.42,-2.1 -0.89,-4.05 -1.69,-6.72 -0.57,0.11 -5.92,-1.27 -8.4,-1.68 -0.68,8.35 -1.36,16.95 0,26.88 -4.09,0.43 -14.59,-0.16 -20.15,1.69 -2.42,0.72 -7.67,8.08 -10.09,10.08 -2.1,-0.95 -6.25,0 -8.4,0 -0.79,-2.73 -1.1,-5.73 -1.68,-10.08 -4.72,-1.22 -11.56,-5.73 -20.16,-3.37 -1.06,0.26 -4.52,4.83 -5.05,5.05l-3.36 0c-12.18,11.86 6.67,14.54 13.44,18.47 2.11,1.21 4.63,5.41 6.73,6.73 -2.79,1.88 -4.62,3.1 -6.73,5.04 -7.35,-5.2 -15.53,-11.34 -28.56,-6.72 -2.84,0.94 -5.56,5.93 -8.4,6.72 -3.21,0.84 -6.88,-0.64 -10.08,0 -1.73,-6.67 -5.41,-19.9 -13.44,-20.16 -2.62,-0.11 -4.94,2.62 -8.4,3.36 -0.43,1.78 -3.16,2.62 -3.36,3.36 -1.57,4.46 -1.36,11.81 -1.68,15.11 -12.29,3.16 -20.64,6.73 -35.29,8.41 -2.47,6.62 -4.09,11.08 -6.72,16.8l-3.37 0 0 -3.35c-2.82,-8.09 -11.02,-4.58 -16.79,-3.37 -2.16,12.82 -5.46,15.44 -10.08,25.21 -14.33,-4.78 -11.13,-4.51 -21.85,0 0,3.05 0.68,7.03 0,10.07l5.04 1.68c-0.06,0 0,4.79 0,5.05 -8.51,-1.26 -13.23,-0.26 -20.17,0 -0.63,3.77 -4.66,3.31 -3.35,10.08 0.06,0.36 5.31,6.56 5.04,6.73 -4.78,1.99 -7.14,13.43 -8.41,18.47 -13.91,3.52 -20.43,3.1 -30.23,10.09 0.57,3.77 -1.31,8.13 0,11.76 1.15,3.14 9.55,5.61 11.76,8.39 2.62,3.32 3.2,11.24 6.72,13.45 3.83,2.42 7.51,-0.53 10.08,0 0.36,0.05 1.78,3.1 3.36,3.36 -0.05,0.11 -3,9.98 -1.69,10.08 -11.18,-1.26 -14.48,-1.1 -25.19,1.68 0.73,-7.87 2.67,-19.22 -5.04,-21.84 -1.9,-0.68 -5,0.79 -6.73,0 -0.42,1.78 -3.15,2.62 -3.35,3.37 -2.69,7.76 3.61,10.91 1.67,18.47 -1.1,4.05 -24,22.89 -28.56,28.56 1.99,1.9 0.78,3.16 1.67,6.73 4.05,1.05 10.88,4.19 15.13,5.04 -19.33,4.78 -28.82,11.65 -20.17,30.24 -5.82,4.15 -20.26,19.75 -18.48,30.25 0.37,2.31 6.14,5.04 6.73,6.72 0.63,1.84 -0.85,4.93 0,6.72 -3.68,2.1 -22.69,16.17 -23.53,18.48 -1.16,3 0.68,6.89 0,10.08 0.74,0.16 5.46,0.95 6.72,1.69 1.26,0.73 0.69,4.4 1.68,5.04 -2.67,4.51 -10.5,10.5 -11.76,15.12 -1.94,6.99 3.16,19.64 -3.37,21.84 -3.77,1.21 5.05,10.08 5.05,10.08 0,0.58 0,1.11 0,1.68 1.16,0.58 4.36,5.83 5.04,6.72 1.73,2.42 2.89,3.15 5.04,5.05 -3.57,5.19 -12.19,13.96 -8.4,25.2 0.37,1.21 4.15,3.21 5.04,5.04 4.68,-0.79 8.35,-1.58 11.76,-1.68 0,5.62 0,11.13 0,16.8 0.37,-3.67 0.1,17.6 1.69,20.16 1.04,1.74 8.08,1.95 10.07,3.36 1.16,0.85 1.79,5.73 3.37,6.73 3.83,2.36 11.49,3.83 15.12,5.04 0,4.36 -1.52,12.71 0,16.8 1.79,4.94 9.82,4.52 15.12,6.72 1.68,-2.47 4.79,-4.26 6.72,-6.72 1.53,-2.05 2.21,-4.73 3.36,-6.72 1.37,4.05 4.98,15.86 8.41,18.48 5.88,4.57 12.07,2.73 20.16,1.69 -0.73,1.15 0.27,3.77 0,5.04 -0.48,1.78 -6.99,6.97 -8.41,8.4 1.53,2.15 2.42,6.24 3.37,8.4 5.51,0 10.29,-0.74 16.79,0 2.63,0.26 6.73,4.83 13.45,3.36 1.47,-0.37 5.25,-6.25 6.72,-6.72 1.84,-0.69 4.88,0.73 6.73,0 9.6,13.59 3.36,14.34 23.52,18.48 5.62,-8.04 10.71,-25.15 26.88,-21.84 0.95,0.15 4.93,6.3 6.72,6.72 6.25,1.31 9.72,-3.63 16.81,-1.68 1.62,0.42 3.51,5.77 5.03,6.72 2.69,1.63 5.41,-0.06 8.41,1.68 1.68,0.93 1.94,5.72 3.35,6.71 2.89,2.06 23.69,10.25 30.25,8.41 2.89,-0.89 4.68,-7.51 8.41,-8.41 8.97,-2.25 13.13,3.84 21.84,1.69 5.92,-1.52 9.7,-13.13 11.76,-18.48 23,3.09 15.38,0.52 28.57,-8.4 2.67,-1.89 5.92,-1.52 8.4,-3.36 1.46,-1.16 3.3,-6.2 5.03,-6.72 6.83,-2.26 14.81,1.72 21.85,0 2.93,-0.79 5.99,-5.21 8.41,-6.73 -0.54,-2.78 -1.8,-7.56 -1.68,-8.4 -4,-1.84 -8.31,-4.99 -11.77,-6.72 5.62,0.42 13.39,2.21 16.8,1.68 5.94,-0.94 20.84,-12.44 21.84,-18.48 0.84,-5.47 -7.71,-12.13 0,-15.12 4.1,-1.64 10.67,0.67 15.13,0 3.94,-0.63 11.55,-5.41 15.12,-6.73 -0.79,-2.2 0,-6.04 0,-8.4 -11.45,-5.4 -13.66,-5.83 -25.21,1.68l-1.68 3.36c-5.93,1 -4.78,-3.1 -8.39,-3.36 0.41,-2.57 1.73,-7.81 1.67,-8.4 13.28,1.26 19.74,1.26 26.89,-6.72 12.71,-14.28 5.51,-18.38 -10.09,-23.52 0.89,-1.9 -0.79,-3.11 0,-5.04 0.69,-1.9 6.05,-4.89 6.72,-6.72 0.64,-1.89 -0.78,-4.94 0,-6.73l3.37 0c0.32,0.16 0,6.1 0,6.73 2.2,1.1 3.93,1.1 5.03,3.35 8.99,-2.98 24.16,-8.97 25.21,-18.48 1.47,-14.38 -16.01,-14.02 -25.21,-13.44 3.95,-9.61 5.16,-14.81 3.37,-26.89 3.98,-1.47 5.83,-0.78 10.07,-1.67 0.38,-1.84 3.11,-2.68 3.37,-3.37 3.05,-8.93 -0.43,-8.5 5.04,-15.12 2.09,-2.63 5.78,-4.46 8.4,-6.72 -0.42,1.47 -3.25,5.83 -3.36,6.72 -0.84,5.57 3.15,6.99 1.69,11.76 -0.59,1.69 -7.04,5.46 -8.41,6.73 0.74,2.15 0,5.99 0,8.4 8.24,1.57 7.41,7.56 16.81,-1.68 2.98,-3.05 1.67,-5.57 3.36,-10.09 1.57,1.01 4.92,-0.73 6.71,0 1.31,0.53 2.84,7.04 3.37,8.41 6.66,-3.2 15.32,-4 18.47,-10.08 0.74,-1.52 5.16,-23.89 5.05,-25.21 -0.26,-2.78 -4.57,-5.36 -3.36,-11.76 0,0 7.61,-13.28 8.4,-15.12 -5.83,-1.58 -7.19,-3.73 -13.44,-5.04 0.89,-0.58 -0.95,-4.52 0,-5.05 2.46,-1.47 5.83,-1.09 8.4,-1.68 -0.11,-1.89 -1.11,-10.13 0,-13.44 0.42,-1.41 5.45,-4.04 6.72,-5.04 -3.94,-8.35 -4.93,-13.18 -8.4,-21.84 3.62,-1.73 6.78,-1.16 10.08,-3.37 1.32,-0.93 3.47,-6.14 5.04,-6.72 5.3,-2.14 10.34,-0.1 15.12,-1.67 3.1,-1.1 5.2,-5.1 10.09,-5.05 10.34,0.11 12.49,10.72 15.12,18.48 1.51,-0.88 5.62,-3.4 6.72,-3.35 -0.68,-9.03 0.47,-12.66 1.68,-20.17 0.32,-2 -1.58,-4.3 -1.68,-3.36 0,-0.25 0,-5.03 0,-5.03 5.78,-4.57 10.97,-8.93 16.8,-13.44 -0.62,-3.26 0.83,-6.95 0,-10.09l-3.36 -3.35c0,0 -1.52,-3.05 -1.68,-3.37 -5.46,0.79 -11.6,3.31 -16.8,1.68 -0.84,-0.26 -3.68,-4.42 -5.04,-5.04 3.94,-6.4 4.98,-8.67 10.08,-13.45 -2.26,-8.82 -8.14,-33.71 -6.72,-41.99 1.04,-6.57 11.44,-11.57 13.44,-16.82 4.83,-13.28 -4.14,-43.73 -11.76,-47.04 -7.99,-3.47 -17.28,2 -25.2,-1.68 -2.52,-1.21 -1.69,-6.09 -3.36,-8.4 -3.47,-4.78 -10.51,-3.2 -15.13,-6.72 -5.35,-4.04 -11.08,-24.68 -16.81,-26.89 -1.78,-0.68 -3.55,1.06 -5.03,0 -3.05,16.75 -2.46,16.07 -18.48,20.17 -1.21,-2.21 -1.64,-5.94 -3.36,-8.4 -1.32,-1.84 -7.88,-3.32 -8.41,-5.04 -1.93,-6.3 3.63,-9.62 1.68,-16.81 -0.73,-2.53 -6.56,-5.09 -8.4,-6.72 0,0 1.52,-3.15 1.69,-3.37 4.08,0.33 9.5,-1.3 13.44,0 3.36,1.11 5.82,8.98 10.08,10.09 21.32,5.41 16.85,-10.29 8.4,-16.8 -5.66,-4.41 -10.61,-6.2 -16.81,-10.09l-3.35 1.69zm-233.56 667.06c3.36,2.05 22.1,13.08 23.52,15.13 0.06,0.1 -1.26,3.78 -1.68,5.03 7.19,7.09 15.28,12.13 26.89,15.13 -0.48,3.25 -0.85,17.06 -3.37,18.47 -8.82,4.79 -5.56,-8.13 -8.4,-15.11 -4.78,-11.77 -10.76,-4.99 -20.16,-6.72 -0.84,-0.16 -3.36,-3.1 -5.04,-3.36 -1.74,-13.19 -6.62,-19.17 -11.76,-28.57zm305.81 -65.53l3.36 0c1.78,16.17 16.95,58.39 -13.45,42.01 -7.14,-3.88 -9.19,-9.98 -13.44,-16.8 5.3,-2.21 11.02,-4.78 16.81,-6.72 0.52,-3.21 0.26,-9.29 1.68,-13.44 0.37,-1.27 4.14,-3.26 5.04,-5.05z"/>
 </g>
</svg>
