<?xml version="1.0" encoding="UTF-8"?>
<!DOCTYPE svg PUBLIC "-//W3C//DTD SVG 1.1//EN" "http://www.w3.org/Graphics/SVG/1.1/DTD/svg11.dtd">
<!-- Creator: CorelDRAW -->
<svg xmlns="http://www.w3.org/2000/svg" xml:space="preserve" width="2000px" height="1600px" version="1.1" style="shape-rendering:geometricPrecision; text-rendering:geometricPrecision; image-rendering:optimizeQuality; fill-rule:evenodd; clip-rule:evenodd"
viewBox="0 0 2000 1600"
 xmlns:xlink="http://www.w3.org/1999/xlink">
 <defs>
  <style type="text/css">
   <![CDATA[
    .fil0 {fill:black;fill-rule:nonzero}
    .fil3 {fill:#006F78;fill-rule:nonzero}
    .fil2 {fill:#916C4E;fill-rule:nonzero}
    .fil1 {fill:#FEFEFE;fill-rule:nonzero}
   ]]>
  </style>
 </defs>
 <g id="Capa_x0020_1">
  <metadata id="CorelCorpID_0Corel-Layer"/>
  <g id="Coastal_x0020_Carolina_x0020_Chanticleers.cdr">
   <path class="fil0" d="M1247.58 0l37.73 0c65.15,2.79 131.73,17.49 186.5,54.36 47.17,31.04 82.6,78.53 101.04,131.72 23.87,68.75 22.88,144.69 3.44,214.38 -9.91,35.22 -24.85,69.18 -45.29,99.58 -2.07,-0.86 -4.09,-1.71 -6.12,-2.56 6.3,-26.23 4.22,-54.58 -6.42,-79.42 -8.92,-21.06 -27.02,-38.47 -49.33,-44.5 -24.11,-6.63 -51.63,-5.33 -73.1,8.41 -23.42,15.24 -36.04,42.42 -40.73,69.19 31.64,9.96 61.19,26.12 87.43,46.35 19.5,15.29 38.22,31.91 53.69,51.38 8.96,11.71 17.32,24.76 19.52,39.64 1.33,9.69 0.23,19.56 -2.15,29 24.51,24.11 47.18,50.28 66.01,79.09 17.01,26.46 31.27,55.68 34.95,87.27 5.38,45.55 2.49,92.24 -9.62,136.5 32.43,38.72 61.32,80.73 82.88,126.47 12.25,26.49 21.99,54.53 24.94,83.72 1.67,14.36 2.58,28.82 3.49,43.25l0 36.93c-1.85,35.87 -7.29,72 -20.94,105.44 -12.2,28.85 -29.62,57.93 -57.71,73.65 3.77,-16.8 5.76,-34.42 2.31,-51.43 -2.04,-9.67 -6.17,-18.7 -10.47,-27.52 -3.56,38.22 -8.32,76.91 -21.94,113.03 -9.97,26.1 -29.17,47.27 -49.01,66.4 -18.88,17.41 -39.74,33.33 -63.59,43.27 -17.05,7.43 -35.99,4.89 -54.03,6.01 -15.89,19.59 -33.51,38.65 -55.75,51.09 -13.83,7.93 -30.38,9.35 -45.92,7.04 -17.02,-2.38 -33.46,-8.07 -48.89,-15.52 -18.4,8.47 -37.76,15.49 -57.99,17.78l-11.81 0c-13.33,-2.58 -24.58,-10.66 -35.45,-18.31 -22,-15.73 -41.65,-34.54 -64.19,-49.51 -9.96,-6.99 -22.47,-8 -33.18,-13.41 -38.04,-16.67 -65.77,-51.44 -80.03,-89.79 -2.88,-27.56 -4.82,-55.72 -0.23,-83.18 4.27,-17.8 11.22,-35.33 22.24,-50.06 3.86,-5.48 9.47,-9.34 15.77,-11.45 -0.75,-11.93 3.48,-23.45 10.56,-32.93 -34.17,5.99 -70.95,-2.04 -98.62,-23.22 -14.18,-11.07 -24.57,-26.5 -30.41,-43.44 -5.35,39.35 -24.27,76.62 -53.46,103.64 1.4,-6.21 3.45,-12.44 2.93,-18.88 -0.92,-14.67 -3.55,-29.19 -6.88,-43.5 -15.47,-65.05 -48.59,-125.85 -95.11,-173.91 -41.96,-43.64 -94.67,-76.1 -151.11,-97.51 -32.71,-12.35 -66.67,-22.15 -101.57,-25.69 -51,-5.56 -102.79,-0.05 -152.37,12.56 -29.55,7.84 -58.81,17.44 -86.03,31.48 4.86,-23.73 12.91,-46.72 22.23,-69.03 38.2,-90.54 110.11,-165.71 197.44,-210.29 -13.11,1.24 -26.28,2.79 -38.9,6.61 -12.25,3.73 -24.02,8.76 -35.81,13.7 10.37,-26.55 25.07,-51.19 40.75,-74.91 36.53,-54.1 82.9,-101.89 137.4,-137.97 54,-36.2 116.09,-59.68 180.22,-69.94 -10.1,-10.69 -24.3,-18.83 -39.43,-17.67 -16.7,1.6 -31.31,10.97 -44.13,21.15 -7.13,-17.54 -5.74,-37.85 2.53,-54.73 9.95,-20.52 28.1,-35.79 47.66,-46.78 20.94,-11.39 46.12,-11.54 68.82,-5.95 -7.1,-20.63 -20.84,-40.5 -41.87,-48.56 -22.58,-8.69 -49,-14.4 -71.91,-3.69 -1.6,-1.41 -3.18,-2.81 -4.76,-4.2 22.56,-39.45 64.12,-66.19 108.58,-73.78 43.13,-7.48 89.35,-6.75 129.87,11.42 30.95,-72.52 87.24,-134.44 157.51,-170.56 45.64,-23.54 96.69,-35.29 147.82,-37.71z"/>
   <path class="fil1" d="M1264.67 624.09c-7.93,-14.86 -14.72,-30.31 -21.17,-45.87 20.58,16.09 40.62,32.98 62.4,47.45 15.96,9.26 32.63,17.25 48.76,26.24 -5.26,9.16 -13.62,17 -24.16,19.38 -17.05,3.96 -35.4,-3.45 -46.93,-16.18 -8.4,-8.92 -13.68,-20.11 -18.9,-31.02zm-91.77 129.1c-7.86,-7.04 -0.82,-18.52 6.81,-22.33 8.44,-2.49 17.26,0.25 25.49,2.33 31.93,9.6 60.62,27.04 90.7,41.01 18.88,9.57 38.03,18.62 56.66,28.63 -21.71,-1.35 -43.27,-4.95 -65.03,-5.1 -3.11,2.5 -6.01,5.22 -8.94,7.92 13.23,4.55 26.91,7.6 40.23,11.84 -22.42,4.18 -45.25,6.35 -68.04,6.24 -19.69,-0.24 -40,-1.81 -58.22,-9.9 -17.9,-8.9 -28.6,-27.45 -35.18,-45.6 22.74,13.32 48.3,20.46 72.71,29.94 -0.71,-4.71 -1.28,-9.4 -2.08,-14.08 -19.41,-8.14 -38.99,-17.09 -55.11,-30.9z"/>
   <path class="fil2" d="M1126.18 892.41c42.2,-7.04 85.53,-7 127.89,-1.26 -10.29,14.43 -21.05,28.5 -31.38,42.91 -7.69,10.9 -16.46,21.37 -20.96,34.14 -11.57,30.49 -17.6,62.7 -23.52,94.65 -3.12,16.03 -4.33,32.53 -9.76,48.03 -11.12,32.61 -35.8,60.34 -66.98,75.02 -17.12,8.31 -36.86,9.11 -55.42,6.51 -27.78,-3.64 -54.52,-17.23 -72.39,-39.04 -17.78,-21.81 -27.57,-49.81 -28.3,-77.87 -0.53,-28.07 8.44,-55.76 23.18,-79.46 16.39,-26.58 39.08,-48.8 64.16,-67.17 27.43,-19.89 60.38,-30.65 93.48,-36.46zm147.75 34.17c14.61,-13.39 30.81,-24.98 47.38,-35.81 -16.8,23.76 -27.34,52.36 -27.13,81.66 0.27,29.14 4.05,58.42 0.41,87.48 -2.21,16.32 -7.54,33.41 -20.3,44.59 -14.8,12.5 -34.1,19.09 -53.36,19.55 14.69,-23.92 17.41,-53.1 15.49,-80.55 -2.35,-26.86 4.34,-53.61 14.08,-78.45 5.78,-13.87 11.96,-28.29 23.43,-38.47zm-99.86 -848.29c37.58,-10.54 76.82,-14.95 115.81,-14.22 41.58,1.07 83.66,10.05 120.01,30.86 42.81,24.09 74.92,64.5 93.11,109.75 13.99,34.98 22.09,72.76 20.42,110.54 -25.44,-22.67 -58.06,-36.27 -91.5,-41.57 -35.32,-5.65 -71.63,-1.69 -105.87,8.11 -28.56,8.23 -55.43,23.06 -76.62,44.05 -24.07,23.38 -41.19,53.6 -49.65,86.01 -31.65,-11.84 -65.3,-16.94 -98.67,-21.24 -72.19,-8.68 -146.99,-9.53 -217.17,11.77 11.8,-29.18 16.23,-63.74 2.02,-92.89 -13.76,-28.64 -43.43,-46.21 -73.65,-52.68 22.3,-6.08 45.44,-8.58 68.5,-8.64 19.59,0.41 39.52,1.8 58.15,8.3 26.88,9.27 50.61,26.23 69.92,46.92 -2.6,-54.54 13.8,-110.81 48.91,-153.12 29.62,-35.89 71.87,-59.48 116.28,-71.95zm211.97 629.66c26.36,-18.05 49.92,-39.81 72.33,-62.46 39.93,24.59 76.64,58.4 94.65,102.6 10.65,28.99 14.17,60.25 13.66,91 0.05,21.28 -2.49,42.56 -6.99,63.35 -22.51,-25.76 -45.55,-53.39 -77.67,-67.33 -81.9,-38.66 -165.26,-74.17 -248.25,-110.38 -11.93,-4.73 -23.32,-11.49 -36.28,-12.91 -13.44,-1.79 -28.56,-1.19 -39.6,7.63 -12.24,9.76 -15.64,26.49 -15.75,41.39 0.32,26.02 10.87,53.54 32.77,68.85 14.66,10.47 33.46,11.04 50.79,11.18 41.24,-1.05 82.11,-7.68 122.58,-15.3 5.99,-0.95 12.09,-3.52 18.18,-1.82 11.77,2.88 23.59,5.55 35.33,8.54 -40.45,13.84 -82.06,24.71 -124.5,30.31 -29.6,3.48 -60.66,5.12 -89.14,-5.28 -25.14,-8.66 -48.34,-25.6 -60.57,-49.62 -12.71,-24.32 -13.05,-54.47 -1.58,-79.31 5.71,-12.32 15.61,-22.72 27.89,-28.59 16.64,-8.19 35.84,-9.03 53.96,-6.89 22.76,2.75 44.2,11.52 64.6,21.58 17.76,8.55 35.84,20.09 56.43,18.31 21.09,-2.13 39.84,-13.35 57.16,-24.85zm43.07 -19.06l0 0c-8.32,9.97 -13.95,21.94 -18.08,34.17 8.13,-2.94 11.88,-11.7 19.77,-14.93 8.69,-4.47 18.53,-5.25 28.04,-6.49 7.07,-0.95 14.47,-5.87 14.93,-13.59 0.94,-5.22 -4.02,-8.97 -8.57,-9.97 -12.69,-2.75 -27.62,0.34 -36.09,10.81zm-288.67 321.16l0 0c-10.24,7.16 -21.91,11.89 -33.64,16 4,17.61 6.28,36.21 2.17,54.04 -5.12,19.18 -16.44,37.01 -32.71,48.62 -13.99,9.76 -32.59,14.81 -49.05,8.55 -21.53,-7.94 -37.62,-25.58 -50.79,-43.71 0.46,19.39 5.56,39.55 18.56,54.43 12,13.87 30.24,19.84 47.5,23.95 20.02,4.64 41.26,-0.34 58.24,-11.57 12.93,-8.54 26.03,-17.98 34.22,-31.45 9.41,-15.17 15.45,-32.14 20.61,-49.14 8.85,-30.17 14.72,-61.19 18.45,-92.39 -11.54,7.04 -22.54,14.88 -33.56,22.67z"/>
   <path class="fil3" d="M1364.35 915.61c4.48,-13 9.7,-27.32 21.46,-35.45 29.28,0.07 58.77,4.8 86.43,14.6 24.96,8.97 49.37,24.12 62.38,48.01 2.17,4.73 7.99,5.09 12.15,7.28 29.03,12.78 51.52,36.72 69.05,62.61 22.18,33.62 38.06,71.27 48.19,110.19 -11.04,-9.92 -22.06,-20.15 -35.07,-27.45 -10.19,-4.98 -21.46,-7.13 -32.49,-9.35 7.81,11.3 14.81,23.16 20.77,35.55 7.96,16.91 15.7,34.4 17.01,53.3 2.31,29.15 0.32,58.67 -4.96,87.41 -9.86,-24.89 -22.1,-52.46 -47.62,-64.69 6.17,38.47 2.47,77.67 -2.51,116.05 -4.25,27.99 -8.07,56.62 -20.25,82.49 -17.49,39.17 -52.46,71.63 -94.84,81.14 -10.31,2.83 -19.45,-4.36 -26.24,-11.22 -9.5,-9.05 -11.68,-22.68 -13.21,-35.09 -2.42,-29.3 1.6,-58.7 7.93,-87.29 -9.44,5.51 -19.01,10.76 -28.34,16.41 -2.63,17.47 -5.48,34.93 -7.04,52.55 -0.68,7.15 -0.36,14.61 -3.29,21.35 -3.73,8.94 -10.08,16.52 -17.21,22.97 1.33,3.64 2.83,7.23 4.27,10.88 6.08,-2.88 12.17,-5.76 18.26,-8.64 -4.43,13.71 -6.9,28.18 -13.39,41.17 -6.47,12.22 -15.84,24.09 -29.02,29.35 -13.4,3.92 -26.08,-4.23 -36.87,-11.2 -7.46,-4.25 -10.68,-12.58 -13.85,-20.07 -6.31,-15.62 -11,-31.84 -15.5,-48.05 -4.55,-20.96 -1.76,-42.52 -1.37,-63.72 -10.13,-12.94 -22.29,-24.37 -33.24,-36.67 -11.49,31.59 -8.48,66.26 -2.74,98.75 2.95,19.03 10.24,36.95 17.44,54.69 -18.38,3.22 -35.82,-6.54 -49.12,-18.35 -18.68,-17.07 -29.37,-40.92 -36.25,-64.85 -8.64,-31.29 -9.26,-65.16 0.62,-96.23 -6.24,-8.63 -12.67,-17.11 -19.12,-25.58 -6.9,10.87 -11.72,22.96 -15.33,35.28 -5.65,22.32 -4.6,45.51 -4.92,68.32 -7.33,-22.98 -13.23,-46.63 -15.59,-70.68 -1.82,-22.9 7.3,-44.71 16.85,-65 -12.94,8.59 -24.55,19.58 -31.74,33.53 3.22,-18.82 7.38,-37.56 13.48,-55.7 4.18,-12.42 9.99,-24.58 19,-34.27 10.6,-11.72 24.95,-19.73 40.16,-23.7 13.43,-3.23 27.38,1.69 38.14,9.76 -3.9,19.01 -7.57,38.05 -11.49,57.05 16.04,-13.96 34.4,-26.27 55.33,-31.2 11.41,-2.29 24.28,-2.61 34.54,3.68 8.05,4.91 12.34,14.12 13.76,23.16 2.22,13.64 -0.14,27.49 -3.34,40.77 17.31,-13.32 37.39,-24.53 59.52,-26.53 23.23,-2.09 45.24,10.97 59.87,28.2 17.39,20.77 24.79,47.93 27.6,74.4 1.97,18.9 1.49,37.97 -0.66,56.84 11.46,-5.32 22.84,-10.83 34.27,-16.23 2.74,-37.41 -2.02,-75.61 -15.64,-110.65 -7.91,-20.11 -18.49,-39.74 -34.77,-54.3 -17.3,-15.73 -38.21,-27.39 -60.43,-34.5 8.85,7.07 17.28,15.36 20.35,26.66 -12.58,-4.9 -26.22,-7.13 -39.53,-4.02 5.06,4.4 10.18,8.72 15.41,12.93 -6.9,-1.23 -13.97,-2.6 -20.94,-1.19 -5.74,0.85 -10.58,4.28 -15.34,7.32 1.75,-17.94 -7.76,-34.45 -19.17,-47.46 -12.14,-14.37 -28.83,-24.04 -46.19,-30.74 4.38,5.06 7.88,10.95 8.48,17.76 -6.64,-0.16 -13.38,-1.1 -19.96,0.11 -7.18,2.63 -12.76,8.21 -18.31,13.29 3.7,-9.15 1.22,-20.32 -6.12,-26.9 -5.63,-5.47 -13.03,-8.49 -20.23,-11.25 31.79,3.36 65.28,-5.72 89.97,-26.33 12.73,-10.61 23.21,-24 30.51,-38.88 9.18,-19.78 8.89,-42.02 9.44,-63.34 -0.21,-39.8 -0.9,-80.52 10.6,-119.04zm-297.87 493.4c-6.54,-17.93 2.4,-36.88 12.96,-51.28 10.24,23.39 20.04,47.2 33.83,68.78 8.7,14.11 25.69,20.85 41.78,20.76 -0.05,8.22 2.49,16.2 6.44,23.33 7.18,12.87 16.42,24.96 28.85,33.17 22.15,15.08 47.55,24.48 72.92,32.62 -9.47,7.47 -21.35,13.57 -33.76,11.54 -11.75,-2.36 -22.68,-8.14 -31.89,-15.73 -6.93,-5.62 -11,-13.76 -17.01,-20.22 -11.9,-13.17 -25.62,-24.85 -41.18,-33.47 -9.01,-5.07 -19.36,-7.29 -28.03,-13 -20.73,-13.06 -36.39,-33.65 -44.91,-56.5zm-136.04 -949.38c62.37,-14.24 126.64,-21.35 190.6,-18.01 62.79,3.39 125.87,18.11 180.89,49.28 32.16,18.45 62.1,42.04 83.77,72.44 1.8,-9.35 3.34,-19.02 1.6,-28.5 -1.21,-7.57 -4.55,-14.54 -7.75,-21.42 25.62,12.02 49.86,29.28 65.26,53.46 6.65,11.45 11.91,24.16 12.96,37.48 0.77,8.12 -3.79,16.23 -10.95,20 -4.34,1.93 -9.12,2.47 -13.73,3.36 3.9,-18.39 -0.8,-37.18 -7.25,-54.39 -5.51,6.32 -11.66,12.38 -19.82,15.06 1.87,6.93 5.05,15.49 -0.09,21.82 -5,5.01 -11.96,7.64 -18.63,9.6 -7.08,0.46 -13.73,-2.87 -20.04,-5.64 -32.05,-15.64 -59.43,-38.83 -88.05,-59.75 -33.19,-24.41 -66.31,-49 -101.01,-71.24 -20.91,-13.85 -46.49,-22.47 -71.74,-18.88 -23.53,3.59 -43.84,19.03 -57.74,37.82 -18.72,26.29 -17.78,61.79 -6.88,91.04 10.01,-24.57 24.04,-48.82 46.29,-64.2 14.47,-10.17 32.73,-14.61 50.26,-12.44 20.73,2.45 39.97,12.09 56.43,24.6 4.32,3.4 9.26,6.74 11.06,12.23 10.49,27.01 21.4,53.87 33.76,80.07 6.06,12.38 11.96,25.12 21.42,35.35 10.33,12.1 23.32,23.07 39.32,26.34 15.54,3.18 32.8,3.5 47.01,-4.51 14.29,-7.97 25.08,-21.12 32.51,-35.51 11.4,0.66 22.81,-0.96 33.48,-5.03 -18.19,19.38 -38.4,37.39 -61.83,50.17 -15.01,8.25 -33.3,9.51 -49.32,3.54 -19.78,-5.37 -37.28,-16.34 -56.27,-23.72 -31.35,-12.88 -67.67,-15.53 -99.87,-4.16 -44.09,15.54 -70.79,66.23 -61.92,111.58 5.19,26.13 19.02,50.17 37.44,69.24 -25.35,-3.78 -50.74,4.11 -73.8,14.06 -27.78,12.68 -53.65,29.68 -76.6,49.84 -44.96,40.87 -72.18,98.57 -82.63,157.86 -6.72,-33.46 -15.66,-66.74 -30.06,-97.79 -11.58,-25.28 -30.55,-46.1 -49.28,-66.26 -20.29,-20.5 -42.78,-39.88 -69.66,-51.08 4.48,13.34 10.47,26.17 13.8,39.9 3.41,13.56 5.78,27.37 8.03,41.19 -31.46,-28.86 -66.31,-54.56 -105.13,-72.62 -27.12,-12.88 -56.84,-18.9 -86.31,-23.51 -37.48,-5.06 -76.56,-6.01 -113,5.43 4.89,-21.59 16.99,-40.68 30.47,-57.91 28.32,-35.39 64.84,-63.23 102.93,-87.3 43.56,-27.47 91.43,-49.89 142.74,-57.53 8.5,-1.37 17.1,-1.71 25.71,-1.89 -22.7,-16.26 -51.4,-21.81 -78.88,-21.45 -38.95,0.95 -76.43,14.25 -110.94,31.57 15.38,-17.34 32.98,-32.53 50.71,-47.38 90.06,-73.67 197.35,-126.11 310.73,-152.21zm15.06 163.18l0 0c-40.92,14.01 -80.46,32.34 -116.87,55.75 -39.23,25.39 -74.97,56.96 -101.96,95.32 -11.94,17.21 -22.84,35.53 -29.26,55.58 26.44,-23.01 54.08,-44.68 83.49,-63.77 26.36,-16.96 54.04,-32.39 83.89,-42.35 36.61,-11.43 74.58,-18.97 112.96,-20.33 -17.08,14.64 -27.23,35.87 -31.3,57.74 -5.78,29.63 -2.01,62.18 14.84,87.75 4.85,-23.91 19.04,-48.36 43.29,-56.48 16,-5.1 34.83,-9.82 50.38,-0.87 -8.43,-23.33 -4.41,-49.26 5.07,-71.61 7.89,-18.05 18.61,-35.36 34.02,-47.91 23.74,-19.47 54.33,-28.77 84.57,-31.15 -29.45,-17.49 -62.95,-27.59 -96.78,-32.2 -45.76,-6.16 -92.82,-0.65 -136.34,14.53zm515.9 309.85l0 0c13.42,10.01 27.54,20 36.71,34.35 6.01,9.72 12.16,20.28 11.89,32.12 -10.88,-12.41 -23.79,-23.64 -39.52,-29.32 -24.62,-8.69 -51.04,-11.55 -77.05,-10.59 17.58,7.2 35.02,15.15 50.67,26.06 12.8,9.05 25.9,20.39 29.31,36.46 -13.47,-6.7 -28.14,-10.89 -43.02,-12.92 -18.84,-1.42 -37.77,0.89 -56.32,4.21 38.33,13.03 73.69,35.79 99.4,67.29 18.33,22.1 30.56,48.5 39.96,75.43 18.22,53.5 23.15,110.92 18.21,167.04 13.03,-26.59 23.41,-54.63 29.26,-83.7 7.27,-35.18 0.34,-71.11 -6.51,-105.76 6.87,2.42 13.57,5.59 19.2,10.3 15.31,12.1 23.03,30.68 30.69,48.07 -1.85,-30.31 -8.71,-60.34 -20.39,-88.36 -10.05,-24.64 -26.03,-46.29 -43.1,-66.49 24.27,1.05 46.62,12.56 65.25,27.52 -13.71,-32.62 -36.77,-60.62 -62.85,-84.19 -23.71,-20.96 -51.2,-38.67 -81.79,-47.52z"/>
  </g>
 </g>
</svg>
