<?xml version="1.0" encoding="UTF-8"?>
<!DOCTYPE svg PUBLIC "-//W3C//DTD SVG 1.1//EN" "http://www.w3.org/Graphics/SVG/1.1/DTD/svg11.dtd">
<!-- Creator: CorelDRAW -->
<svg xmlns="http://www.w3.org/2000/svg" xml:space="preserve" width="2000px" height="1600px" version="1.1" style="shape-rendering:geometricPrecision; text-rendering:geometricPrecision; image-rendering:optimizeQuality; fill-rule:evenodd; clip-rule:evenodd"
viewBox="0 0 2000 1600"
 xmlns:xlink="http://www.w3.org/1999/xlink">
 <defs>
  <style type="text/css">
   <![CDATA[
    .fil1 {fill:#8A0A04}
    .fil0 {fill:#DAC792}
    .fil2 {fill:#FEFEFE;fill-rule:nonzero}
   ]]>
  </style>
 </defs>
 <g id="Capa_x0020_1">
  <metadata id="CorelCorpID_0Corel-Layer"/>
  <g id="College_x0020_of_x0020_Charleston_x0020_Cougars.cdr">
   <path class="fil0" d="M900.02 1175.15l189.41 0 0 -155.89 414.56 0 0 314.28 -306.23 266.46 -405.55 0 -312.78 -265.92 0 -387.11 420.59 0 0 228.18zm-420.59 -523.08l0 -388.76 313.04 -263.2 296.96 0.11 0 -0.22 414.56 0.21 0 581.11 -414.56 0.29 0 -158.78 -189.41 0 0 229.24 -420.59 0z"/>
   <path class="fil1" d="M860.61 1214.57l268.24 0 0 -155.9 335.73 0 0 256.91 -281.57 245.01 -376.31 0 -287.85 -244.73 0 -368.89 -212.99 0 0 -294.9 212.99 0 0 -370.41 287.98 -242.13 296.3 0.11 25.72 20.51 0 -20.72 335.73 0.17 0 502.33 -335.73 0.23 0 -158.74 -268.24 0 0 268.65 833.53 0 0 294.9 -833.53 0 0 267.6zm-442.51 -490.57c9.39,-1.43 19.04,-0.3 28.53,-0.48 3.29,2.49 6.63,4.95 9.99,7.44 0.02,-1.75 0.1,-5.19 0.15,-6.9 11.19,-0.03 22.38,-0.03 33.57,0 0.02,13.93 -0.03,27.86 0.07,41.8 -11.26,0.13 -22.5,0.13 -33.77,0 0.08,-3.39 0.16,-6.78 0.23,-10.16 -9.62,-0.05 -19.22,-0.16 -28.81,0.2 0.48,29.87 0.15,59.74 0.18,89.59 9.72,0.1 19.47,0.1 29.2,0.05 -0.03,-3.72 -0.08,-7.44 -0.13,-11.16 11.01,-0.21 22.02,-0.11 33,-0.11 0.05,8.39 0.05,16.81 0,25.23 -7.18,5.85 -14.55,11.47 -21.86,17.14 -16.45,-0.08 -32.88,0.33 -49.3,-0.13 -8.72,-3.9 -15.68,-11.16 -23.5,-16.65 0.3,-39.03 0.12,-78.07 0.07,-117.07 7.44,-6.31 14.45,-13.14 22.38,-18.79zm604.97 0.13c32.79,-0.18 65.56,-0.07 98.36,-0.05 0,14.55 0.02,29.08 -0.03,43.63 -10.78,0.05 -21.55,0 -32.31,0.07 0,-4.05 0.03,-8.08 0.08,-12.08 -7.85,-0.05 -15.68,-0.05 -23.5,0 0.05,10.13 0.02,20.24 0,30.38 13.49,0.15 26.99,0.08 40.46,0.08 0.16,10.11 0.05,20.22 0.23,30.33 -13.54,0.15 -27.09,0 -40.64,0.13 -0.03,9.42 -0.03,18.83 -0.05,28.28 7.82,0.07 15.67,0.1 23.5,0.02 -0.05,-3.85 -0.08,-7.67 -0.08,-11.49 10.78,0.12 21.56,0.05 32.36,0.12 -0.02,14.35 -0.02,28.72 -0.02,43.06 -32.75,0.18 -65.49,-0.05 -98.23,0.13 -0.11,-10.62 -0.16,-21.25 0.07,-31.84 2.18,0.02 6.57,0.1 8.75,0.15 0.11,-29.72 -0.23,-59.46 0.18,-89.17 -3.02,-0.08 -6.03,-0.16 -9.03,-0.21 -0.08,-10.52 0,-21.04 -0.1,-31.54zm531.19 -0.1c16.68,0 33.36,0.05 50.06,-0.05 0.06,10.57 0.03,21.12 0.03,31.69 -1.9,0.03 -5.72,0.08 -7.62,0.1 0.05,40.11 0.08,80.25 -0.03,120.36 -10.95,-0.11 -21.94,-0.16 -32.89,0.05 -11.22,-23.71 -21.97,-47.66 -32.44,-71.7 -1.18,13.24 -0.31,26.56 -0.67,39.85 3.16,0 6.34,0.03 9.55,0.05 0.05,10.55 0.05,21.1 0.02,31.67 -16.63,0.03 -33.25,-0.05 -49.88,0.08 -0.1,-10.58 -0.08,-21.15 -0.03,-31.72 1.85,-0.05 5.55,-0.16 7.39,-0.21 -0.02,-29.48 -0.05,-58.94 0,-88.43 -1.9,-0.02 -5.72,-0.1 -7.62,-0.12 0,-10.6 -0.23,-21.2 0.23,-31.8 14.04,0.49 28.08,-0.15 42.11,0.44 9.63,22.73 19.79,45.21 30.18,67.59 -0.31,-12.06 -0.15,-24.15 -0.21,-36.23 -2.07,0 -6.18,0 -8.23,0.02 0,-10.57 -0.03,-21.09 0.05,-31.64zm-156.38 -0.36c18.58,-0.54 37.21,-0.33 55.79,-0.13 9,5.08 15.86,13.4 23.81,19.97 0.03,37.34 -0.05,74.65 0.03,111.98 -7.98,6.88 -14.58,15.74 -23.74,21.05 -18.71,0.48 -37.44,-0.13 -56.15,0.23 -7.65,-6.42 -14.47,-13.68 -21.5,-20.74 0.02,-37.56 0.07,-75.13 -0.03,-112.7 7.42,-6.39 13.96,-13.81 21.79,-19.66zm11.85 33.26l0 0c0,28.87 -0.05,57.76 0.03,86.63 10.98,-0.9 21.99,-0.49 33,-0.49 -0.21,-28.76 0.44,-57.55 -0.31,-86.32 -10.9,0.44 -21.81,0.31 -32.72,0.18zm-157.15 -32.9c36.39,0.18 72.78,-0.31 109.14,0.23 -0.18,14.5 -0.02,29.03 -0.1,43.55 -10.75,-0.13 -21.51,-0.05 -32.26,-0.1 0,-4.03 -0.02,-8.04 0,-12.04l-5.16 0c0.13,29.72 0.11,59.43 0,89.15 1.9,0.05 5.68,0.1 7.55,0.13 0.15,10.39 0.13,20.78 0.08,31.18 -16.89,-0.21 -33.78,0.05 -50.63,-0.18 0,-10.29 -0.03,-20.61 0,-30.9 3.23,0 6.49,0 9.75,0.03 0.02,-29.49 0.28,-58.97 -0.11,-88.43 -7.64,-5.78 -4.85,7.13 -5.46,11.06 -10.73,0.05 -21.45,0 -32.18,0.1 0.31,-14.63 -1,-29.2 -0.62,-43.78zm-85.37 -0.26c8.41,-0.82 16.91,-0.48 25.35,-0.23 4.82,1.47 8.7,5.03 13.11,7.42 0,-1.72 0.03,-5.16 0.06,-6.88 11.18,-0.05 22.37,-0.05 33.59,0 0.07,13.83 -0.21,27.69 0.23,41.55 -11.22,0.59 -22.43,0.18 -33.62,0.41 -0.18,-3.26 -0.28,-6.52 -0.44,-9.75 -8.52,0.33 -17.06,-0.16 -25.55,-0.67 -0.41,10.06 -0.26,20.15 -0.29,30.26 13.01,-0.03 26.02,-0.06 39.03,0 6.34,4.87 13.48,8.64 19.61,13.8 0.82,18.99 0.38,38.08 0.23,57.1 -4.52,7.8 -13.19,12.6 -19.3,19.27 -14.16,0.03 -28.33,-0.05 -42.49,0.08 -12.99,1.87 -21.53,-10.06 -31.9,-15.66 0.18,-8.88 0.16,-17.76 0.03,-26.61 10.95,-0.31 21.94,-0.08 32.92,-0.33 0.03,3.98 0.08,7.95 0.1,11.96 9.27,0.1 18.53,0.05 27.79,0.2 0.06,-9.85 -0.02,-19.68 0.16,-29.51 -14.24,-0.2 -28.46,-0.13 -42.7,-0.05 -5.93,-4.77 -11.88,-9.52 -17.99,-14.04 -0.41,-19.68 -0.05,-39.39 -0.21,-59.07 7.52,-6.29 14.09,-13.78 22.28,-19.25zm-259.77 0.16c16.81,0.23 33.61,0.1 50.42,0.07 0.05,10.58 0.05,21.12 0,31.7 -2.05,0 -6.13,-0.03 -8.18,-0.03 0.1,29.79 0.02,59.59 0.05,89.38 6.75,-0.08 13.5,-0.1 20.27,-0.15 -0.03,-3.78 -0.03,-7.55 -0.03,-11.32 10.42,0.13 20.87,0.15 31.31,0 2.72,14.19 1.26,28.66 1.64,42.98 -31.87,0.26 -63.74,0.05 -95.61,0.13 -0.05,-10.6 -0.1,-21.17 0.1,-31.77 2.9,0 5.83,0.03 8.75,0.05 -0.1,-29.79 0.05,-59.61 -0.08,-89.4 -2.18,0.05 -6.56,0.13 -8.77,0.15 -0.05,-10.6 -0.16,-21.19 0.13,-31.79zm-130.67 0.1c13.21,0 26.43,0.05 39.65,-0.05 0.1,3.39 0.18,6.77 0.28,10.19 4.31,-3.54 8.67,-6.98 13.16,-10.27 11.24,1.85 26.28,-4.69 33.67,6.8 5.36,5.85 10.47,11.94 15.78,17.81 -0.13,14.73 0.31,29.49 -0.13,44.22 -4.51,7.8 -12.31,13.16 -18.4,19.76 2.83,11.26 8.01,21.71 12.09,32.53 4.06,-0.05 8.11,-0.1 12.19,-0.12 0.1,10.44 0.21,20.91 -0.13,31.35 -11.44,-0.66 -22.99,0.65 -34.38,-0.97 -7.29,-20.22 -16.25,-39.83 -24.66,-59.61 -2.24,0.25 -4.44,0.49 -6.68,0.77 0.13,9.44 0.11,18.88 0.03,28.33 3.13,0.1 6.26,0.2 9.39,0.33 0.05,10.27 0.03,20.53 0.1,30.82 -16.91,0.28 -33.82,0.05 -50.73,0.16 0,-10.32 -0.02,-20.64 0.05,-30.93 3,-0.23 6.01,-0.43 9.01,-0.64 -0.33,-29.59 -0.1,-59.17 -0.13,-88.76 -3.41,-0.05 -6.82,-0.1 -10.21,-0.13 0.02,-10.55 0,-21.07 0.05,-31.59zm42.31 32.87l0 0c-0.05,9.68 -0.05,19.38 0,29.05 9.11,-0.13 18.22,-0.07 27.36,-0.18 -0.1,-9.57 -0.1,-19.12 -0.03,-28.66 -9.11,-0.1 -18.22,-0.05 -27.33,-0.21zm-141.41 -33.56c15.16,0.05 30.35,0.18 45.52,-0.08 8.9,40.47 17.14,81.09 25.71,121.64 2.93,0.05 5.88,0.1 8.83,0.18 0,10.31 0.02,20.65 -0.03,31 -16.68,-0.03 -33.36,-0.08 -50.04,0.05 -0.1,-10.45 -0.2,-20.89 0.13,-31.31 1.67,0.05 5,0.18 6.67,0.26 -0.46,-2.83 -0.92,-5.62 -1.36,-8.4 -8.26,0.13 -16.52,0.16 -24.76,0.03 -1,2.57 -2,5.16 -3.03,7.75 2.75,0.23 5.47,0.44 8.21,0.69 0.11,10.32 0.11,20.63 0,30.98 -16.62,-0.18 -33.25,0.02 -49.88,-0.13 0.07,-10.4 0,-20.76 0.18,-31.13 2.02,0.05 6.08,0.15 8.11,0.21 8.82,-40.52 16.78,-81.25 25.74,-121.74zm20.78 56.22l0 0c-1.49,8.93 -3.98,17.63 -6.18,26.41 5.44,0.02 10.88,0.05 16.34,0.02 -2.13,-8.82 -4.59,-17.58 -6.18,-26.5 -1,0.02 -2.98,0.05 -3.98,0.07zm-189.66 -55.43c16.88,-0.23 33.77,0.03 50.65,-0.15 0.05,10.57 0,21.12 0.05,31.72 -2.02,0 -6.05,0 -8.08,0 0.05,10.24 -0.2,20.5 0.31,30.74 10.16,-0.41 20.35,-0.31 30.51,-0.18 0,-10.21 0,-20.43 0,-30.61 -2.08,0 -6.24,0.05 -8.31,0.07 -0.06,-10.57 -0.08,-21.14 0.02,-31.72 16.71,0.08 33.41,0 50.12,0.06 0,10.49 -0.03,20.99 0.05,31.51 -2.08,0.02 -6.29,0.13 -8.37,0.18 0.16,29.71 0.11,59.46 0,89.17 2.06,0 6.14,0 8.19,0.03 0.21,10.34 0.13,20.71 0.13,31.07 -16.71,0.06 -33.41,0 -50.12,0.06 -0.08,-10.4 -0.1,-20.79 0.05,-31.18 2.75,0.05 5.49,0.1 8.24,0.18 0,-9.52 0.03,-19.04 -0.08,-28.57 -10.21,0.08 -20.42,0.08 -30.64,-0.02 -0.15,9.52 -0.12,19.07 -0.07,28.61 1.97,-0.08 5.95,-0.18 7.93,-0.26 0.15,10.47 0.25,20.97 -0.13,31.44 -16.84,-0.57 -33.67,0.1 -50.5,-0.41 0.2,-10.34 -0.39,-20.68 0.53,-30.97 2.24,0 6.7,0.02 8.93,0.02 -0.05,-29.66 -0.12,-59.3 0.03,-88.97 -3.21,-0.25 -6.42,-0.54 -9.62,-0.84 0.28,-10.32 0.2,-20.66 0.18,-30.98z"/>
   <path class="fil2" d="M821.19 1253.98l0 -307.01 -262.92 0 0 350.66 262.92 223.54 347.07 0 256.9 -223.54 0 -199.54 -256.9 0 0 155.89 -347.07 0zm-403.09 -529.98c9.39,-1.43 19.04,-0.3 28.53,-0.48 3.29,2.49 6.63,4.95 9.99,7.44 0.02,-1.75 0.1,-5.19 0.15,-6.9 11.19,-0.03 22.38,-0.03 33.57,0 0.02,13.93 -0.03,27.86 0.07,41.8 -11.26,0.13 -22.5,0.13 -33.77,0 0.08,-3.39 0.16,-6.78 0.23,-10.16 -9.62,-0.05 -19.22,-0.16 -28.81,0.2 0.48,29.87 0.15,59.74 0.18,89.59 9.72,0.1 19.47,0.1 29.2,0.05 -0.03,-3.72 -0.08,-7.44 -0.13,-11.16 11.01,-0.21 22.02,-0.11 33,-0.11 0.05,8.39 0.05,16.81 0,25.23 -7.18,5.85 -14.55,11.47 -21.86,17.14 -16.45,-0.08 -32.88,0.33 -49.3,-0.13 -8.72,-3.9 -15.68,-11.16 -23.5,-16.65 0.3,-39.03 0.12,-78.07 0.07,-117.07 7.44,-6.31 14.45,-13.14 22.38,-18.79zm604.97 0.13c32.79,-0.18 65.56,-0.07 98.36,-0.05 0,14.55 0.02,29.08 -0.03,43.63 -10.78,0.05 -21.55,0 -32.31,0.07 0,-4.05 0.03,-8.08 0.08,-12.08 -7.85,-0.05 -15.68,-0.05 -23.5,0 0.05,10.13 0.02,20.24 0,30.38 13.49,0.15 26.99,0.08 40.46,0.08 0.16,10.11 0.05,20.22 0.23,30.33 -13.54,0.15 -27.09,0 -40.64,0.13 -0.03,9.42 -0.03,18.83 -0.05,28.28 7.82,0.07 15.67,0.1 23.5,0.02 -0.05,-3.85 -0.08,-7.67 -0.08,-11.49 10.78,0.12 21.56,0.05 32.36,0.12 -0.02,14.35 -0.02,28.72 -0.02,43.06 -32.75,0.18 -65.49,-0.05 -98.23,0.13 -0.11,-10.62 -0.16,-21.25 0.07,-31.84 2.18,0.02 6.57,0.1 8.75,0.15 0.11,-29.72 -0.23,-59.46 0.18,-89.17 -3.02,-0.08 -6.03,-0.16 -9.03,-0.21 -0.08,-10.52 0,-21.04 -0.1,-31.54zm531.19 -0.1c16.68,0 33.36,0.05 50.06,-0.05 0.06,10.57 0.03,21.12 0.03,31.69 -1.9,0.03 -5.72,0.08 -7.62,0.1 0.05,40.11 0.08,80.25 -0.03,120.36 -10.95,-0.11 -21.94,-0.16 -32.89,0.05 -11.22,-23.71 -21.97,-47.66 -32.44,-71.7 -1.18,13.24 -0.31,26.56 -0.67,39.85 3.16,0 6.34,0.03 9.55,0.05 0.05,10.55 0.05,21.1 0.02,31.67 -16.63,0.03 -33.25,-0.05 -49.88,0.08 -0.1,-10.58 -0.08,-21.15 -0.03,-31.72 1.85,-0.05 5.55,-0.16 7.39,-0.21 -0.02,-29.48 -0.05,-58.94 0,-88.43 -1.9,-0.02 -5.72,-0.1 -7.62,-0.12 0,-10.6 -0.23,-21.2 0.23,-31.8 14.04,0.49 28.08,-0.15 42.11,0.44 9.63,22.73 19.79,45.21 30.18,67.59 -0.31,-12.06 -0.15,-24.15 -0.21,-36.23 -2.07,0 -6.18,0 -8.23,0.02 0,-10.57 -0.03,-21.09 0.05,-31.64zm-156.38 -0.36c18.58,-0.54 37.21,-0.33 55.79,-0.13 9,5.08 15.86,13.4 23.81,19.97 0.03,37.34 -0.05,74.65 0.03,111.98 -7.98,6.88 -14.58,15.74 -23.74,21.05 -18.71,0.48 -37.44,-0.13 -56.15,0.23 -7.65,-6.42 -14.47,-13.68 -21.5,-20.74 0.02,-37.56 0.07,-75.13 -0.03,-112.7 7.42,-6.39 13.96,-13.81 21.79,-19.66zm11.85 33.26l0 0c0,28.87 -0.05,57.76 0.03,86.63 10.98,-0.9 21.99,-0.49 33,-0.49 -0.21,-28.76 0.44,-57.55 -0.31,-86.32 -10.9,0.44 -21.81,0.31 -32.72,0.18zm-157.15 -32.9c36.39,0.18 72.78,-0.31 109.14,0.23 -0.18,14.5 -0.02,29.03 -0.1,43.55 -10.75,-0.13 -21.51,-0.05 -32.26,-0.1 0,-4.03 -0.02,-8.04 0,-12.04l-5.16 0c0.13,29.72 0.11,59.43 0,89.15 1.9,0.05 5.68,0.1 7.55,0.13 0.15,10.39 0.13,20.78 0.08,31.18 -16.89,-0.21 -33.78,0.05 -50.63,-0.18 0,-10.29 -0.03,-20.61 0,-30.9 3.23,0 6.49,0 9.75,0.03 0.02,-29.49 0.28,-58.97 -0.11,-88.43 -7.64,-5.78 -4.85,7.13 -5.46,11.06 -10.73,0.05 -21.45,0 -32.18,0.1 0.31,-14.63 -1,-29.2 -0.62,-43.78zm-85.37 -0.26c8.41,-0.82 16.91,-0.48 25.35,-0.23 4.82,1.47 8.7,5.03 13.11,7.42 0,-1.72 0.03,-5.16 0.06,-6.88 11.18,-0.05 22.37,-0.05 33.59,0 0.07,13.83 -0.21,27.69 0.23,41.55 -11.22,0.59 -22.43,0.18 -33.62,0.41 -0.18,-3.26 -0.28,-6.52 -0.44,-9.75 -8.52,0.33 -17.06,-0.16 -25.55,-0.67 -0.41,10.06 -0.26,20.15 -0.29,30.26 13.01,-0.03 26.02,-0.06 39.03,0 6.34,4.87 13.48,8.64 19.61,13.8 0.82,18.99 0.38,38.08 0.23,57.1 -4.52,7.8 -13.19,12.6 -19.3,19.27 -14.16,0.03 -28.33,-0.05 -42.49,0.08 -12.99,1.87 -21.53,-10.06 -31.9,-15.66 0.18,-8.88 0.16,-17.76 0.03,-26.61 10.95,-0.31 21.94,-0.08 32.92,-0.33 0.03,3.98 0.08,7.95 0.1,11.96 9.27,0.1 18.53,0.05 27.79,0.2 0.06,-9.85 -0.02,-19.68 0.16,-29.51 -14.24,-0.2 -28.46,-0.13 -42.7,-0.05 -5.93,-4.77 -11.88,-9.52 -17.99,-14.04 -0.41,-19.68 -0.05,-39.39 -0.21,-59.07 7.52,-6.29 14.09,-13.78 22.28,-19.25zm-259.77 0.16c16.81,0.23 33.61,0.1 50.42,0.07 0.05,10.58 0.05,21.12 0,31.7 -2.05,0 -6.13,-0.03 -8.18,-0.03 0.1,29.79 0.02,59.59 0.05,89.38 6.75,-0.08 13.5,-0.1 20.27,-0.15 -0.03,-3.78 -0.03,-7.55 -0.03,-11.32 10.42,0.13 20.87,0.15 31.31,0 2.72,14.19 1.26,28.66 1.64,42.98 -31.87,0.26 -63.74,0.05 -95.61,0.13 -0.05,-10.6 -0.1,-21.17 0.1,-31.77 2.9,0 5.83,0.03 8.75,0.05 -0.1,-29.79 0.05,-59.61 -0.08,-89.4 -2.18,0.05 -6.56,0.13 -8.77,0.15 -0.05,-10.6 -0.16,-21.19 0.13,-31.79zm-130.67 0.1c13.21,0 26.43,0.05 39.65,-0.05 0.1,3.39 0.18,6.77 0.28,10.19 4.31,-3.54 8.67,-6.98 13.16,-10.27 11.24,1.85 26.28,-4.69 33.67,6.8 5.36,5.85 10.47,11.94 15.78,17.81 -0.13,14.73 0.31,29.49 -0.13,44.22 -4.51,7.8 -12.31,13.16 -18.4,19.76 2.83,11.26 8.01,21.71 12.09,32.53 4.06,-0.05 8.11,-0.1 12.19,-0.12 0.1,10.44 0.21,20.91 -0.13,31.35 -11.44,-0.66 -22.99,0.65 -34.38,-0.97 -7.29,-20.22 -16.25,-39.83 -24.66,-59.61 -2.24,0.25 -4.44,0.49 -6.68,0.77 0.13,9.44 0.11,18.88 0.03,28.33 3.13,0.1 6.26,0.2 9.39,0.33 0.05,10.27 0.03,20.53 0.1,30.82 -16.91,0.28 -33.82,0.05 -50.73,0.16 0,-10.32 -0.02,-20.64 0.05,-30.93 3,-0.23 6.01,-0.43 9.01,-0.64 -0.33,-29.59 -0.1,-59.17 -0.13,-88.76 -3.41,-0.05 -6.82,-0.1 -10.21,-0.13 0.02,-10.55 0,-21.07 0.05,-31.59zm42.31 32.87l0 0c-0.05,9.68 -0.05,19.38 0,29.05 9.11,-0.13 18.22,-0.07 27.36,-0.18 -0.1,-9.57 -0.1,-19.12 -0.03,-28.66 -9.11,-0.1 -18.22,-0.05 -27.33,-0.21zm-141.41 -33.56c15.16,0.05 30.35,0.18 45.52,-0.08 8.9,40.47 17.14,81.09 25.71,121.64 2.93,0.05 5.88,0.1 8.83,0.18 0,10.31 0.02,20.65 -0.03,31 -16.68,-0.03 -33.36,-0.08 -50.04,0.05 -0.1,-10.45 -0.2,-20.89 0.13,-31.31 1.67,0.05 5,0.18 6.67,0.26 -0.46,-2.83 -0.92,-5.62 -1.36,-8.4 -8.26,0.13 -16.52,0.16 -24.76,0.03 -1,2.57 -2,5.16 -3.03,7.75 2.75,0.23 5.47,0.44 8.21,0.69 0.11,10.32 0.11,20.63 0,30.98 -16.62,-0.18 -33.25,0.02 -49.88,-0.13 0.07,-10.4 0,-20.76 0.18,-31.13 2.02,0.05 6.08,0.15 8.11,0.21 8.82,-40.52 16.78,-81.25 25.74,-121.74zm20.78 56.22l0 0c-1.49,8.93 -3.98,17.63 -6.18,26.41 5.44,0.02 10.88,0.05 16.34,0.02 -2.13,-8.82 -4.59,-17.58 -6.18,-26.5 -1,0.02 -2.98,0.05 -3.98,0.07zm-189.66 -55.43c16.88,-0.23 33.77,0.03 50.65,-0.15 0.05,10.57 0,21.12 0.05,31.72 -2.02,0 -6.05,0 -8.08,0 0.05,10.24 -0.2,20.5 0.31,30.74 10.16,-0.41 20.35,-0.31 30.51,-0.18 0,-10.21 0,-20.43 0,-30.61 -2.08,0 -6.24,0.05 -8.31,0.07 -0.06,-10.57 -0.08,-21.14 0.02,-31.72 16.71,0.08 33.41,0 50.12,0.06 0,10.49 -0.03,20.99 0.05,31.51 -2.08,0.02 -6.29,0.13 -8.37,0.18 0.16,29.71 0.11,59.46 0,89.17 2.06,0 6.14,0 8.19,0.03 0.21,10.34 0.13,20.71 0.13,31.07 -16.71,0.06 -33.41,0 -50.12,0.06 -0.08,-10.4 -0.1,-20.79 0.05,-31.18 2.75,0.05 5.49,0.1 8.24,0.18 0,-9.52 0.03,-19.04 -0.08,-28.57 -10.21,0.08 -20.42,0.08 -30.64,-0.02 -0.15,9.52 -0.12,19.07 -0.07,28.61 1.97,-0.08 5.95,-0.18 7.93,-0.26 0.15,10.47 0.25,20.97 -0.13,31.44 -16.84,-0.57 -33.67,0.1 -50.5,-0.41 0.2,-10.34 -0.39,-20.68 0.53,-30.97 2.24,0 6.7,0.02 8.93,0.02 -0.05,-29.66 -0.12,-59.3 0.03,-88.97 -3.21,-0.25 -6.42,-0.54 -9.62,-0.84 0.28,-10.32 0.2,-20.66 0.18,-30.98zm312.4 -72.06l0 -308.07 347.07 0 0 158.72 256.9 -0.18 0 -423.54 -256.9 -0.13 0 63.13 -78.93 -62.95 -268.14 -0.1 -262.92 221.07 0 352.05 262.92 0z"/>
  </g>
 </g>
</svg>
