<?xml version="1.0" encoding="UTF-8"?>
<!DOCTYPE svg PUBLIC "-//W3C//DTD SVG 1.1//EN" "http://www.w3.org/Graphics/SVG/1.1/DTD/svg11.dtd">
<!-- Creator: CorelDRAW -->
<svg xmlns="http://www.w3.org/2000/svg" xml:space="preserve" width="2000px" height="1600px" version="1.1" style="shape-rendering:geometricPrecision; text-rendering:geometricPrecision; image-rendering:optimizeQuality; fill-rule:evenodd; clip-rule:evenodd"
viewBox="0 0 2000 1600"
 xmlns:xlink="http://www.w3.org/1999/xlink">
 <defs>
  <style type="text/css">
   <![CDATA[
    .fil0 {fill:#044A85;fill-rule:nonzero}
    .fil2 {fill:#80BDEA;fill-rule:nonzero}
    .fil1 {fill:#FBFDFB;fill-rule:nonzero}
   ]]>
  </style>
 </defs>
 <g id="Capa_x0020_1">
  <metadata id="CorelCorpID_0Corel-Layer"/>
  <g id="Columbia_x0020_Lions.cdr">
   <path class="fil0" d="M865.06 394.59c50.31,-13.77 107.91,-5.69 149.23,27.31 41.37,-32.15 98.31,-39.2 147.77,-24.1 -13.68,3.57 -26.21,11.17 -34.02,23.22 48.91,-12.14 103.45,-6.36 146.53,20.58 -14.68,4.18 -29.52,8.11 -43.35,14.71 10.75,4.78 21.86,8.72 33.24,11.78 15.1,-13.02 35.83,-15.89 55.05,-13.26 39.66,2.06 72.98,26.06 106.73,44.4 20.89,11.63 43.22,20.22 64.71,30.66 -17.82,27.55 -39.53,54 -69.31,69.14 25.58,17.55 44.07,43.4 58.11,70.7 13.14,25.76 24.55,52.7 31.3,80.88 -21.49,-9.9 -43.49,-21.76 -67.95,-20.46 38.2,30.87 61.87,76.15 74.43,122.95 15.47,56.51 18.25,115.96 12.62,174.1 -9.9,-24.91 -32.99,-41.01 -56.12,-52.54 11.38,106.39 -15.46,218.56 -81.78,303.59 -16.89,21.58 -35.39,42.35 -57.6,58.66 0.42,-35.69 -4.72,-71.53 -14.38,-105.82 -1.75,28.82 -6.11,57.81 -18.37,84.24 -23.73,53.09 -65.71,95.8 -111.96,129.97 -15.83,11.11 -31.57,22.79 -49.43,30.48 6.51,-8.02 14.31,-15.13 19.13,-24.43 8.05,-15.37 11.77,-32.63 14.1,-49.7 -13.71,15.08 -22.97,33.45 -35.44,49.52 -18.59,24.67 -42.41,44.98 -67.95,62.14 -10.14,6.93 -20.01,15.5 -24.13,27.46 -6.87,19.04 -3.18,39.62 -1.66,59.23 -39.9,-12.17 -76.58,-33.48 -109.94,-58.23 -37.8,-28.7 -70.37,-64.75 -93.16,-106.49 -8.63,-15.47 -13.29,-32.66 -20.77,-48.61 0.73,25.55 2.7,51.03 2.82,76.61 -18.74,-13.77 -37.14,-28.06 -54.61,-43.4 -15.95,-13.87 -25.64,-32.97 -38.23,-49.59 -15.49,-20.3 -23.09,-45.13 -30.17,-69.31 -7.57,-26.03 -11.26,-52.91 -14.87,-79.67 -9.68,36.93 -4.08,76.19 6.12,112.45 -26.58,-19.64 -48.16,-45.19 -67.53,-71.73 -59.48,-83.36 -82.66,-189.45 -72.46,-290.58 -22.85,11.71 -46.49,27.57 -55.39,52.94 -6.45,-52.12 -3.3,-105.34 7.71,-156.61 11.36,-53.09 35.81,-105.12 78.04,-140.57 -24.55,-1.57 -46.62,10.54 -67.9,20.95 11.54,-39.56 27.03,-78.49 50.7,-112.45 10.84,-15.68 24.64,-29.09 39.99,-40.31 -29.48,-13.5 -50.49,-39.72 -67.98,-66.14 -3.18,-3.76 3.48,-5.03 5.66,-6.39 17.46,-7.53 34.83,-15.28 51.76,-24.03 29.29,-15.5 57.17,-34.84 89.44,-43.89 26.18,-5.15 56.84,-8.6 78.73,10.17 10.65,-3.57 21.21,-7.39 31.72,-11.38 -13.02,-8.11 -28.36,-10.44 -42.47,-15.83 43.13,-26.27 96.68,-31.72 145.44,-20.73 -6.9,-12.02 -19.49,-18.35 -32.15,-22.59zm-639.57 -24c5.12,-1.62 10.22,-3.32 15.33,-4.96 0.49,-13.72 0.4,-27.45 0.69,-41.17l0.05 -2.68 2.54 -0.86c17.36,-5.88 34.49,-12.44 52.3,-16.89l4.64 -1.15 0.1 4.77c0.06,2.82 0.12,5.64 0.17,8.46 3.15,-0.91 6.31,-1.78 9.49,-2.57l4.63 -1.16 0.11 4.78c0.7,31.53 0.7,63.06 1.39,94.59l0.07 2.95 -2.84 0.81c-35.88,10.24 -71.97,19.82 -107.55,31.11 -12.6,4 -27.57,6.2 -38.52,-3.02 -1.51,-1.28 -2.83,-2.66 -3.96,-4.12 -3.72,-0.99 -7.25,-2.7 -10.44,-5.39 -11,-9.26 -11.27,-23.97 -11.64,-37.16l-0.01 -0.13c0.16,-44.4 -0.13,-88.81 0.12,-133.21 0.18,-31.56 19.97,-61.35 48.35,-74.63 34.28,-16.97 68.53,-34.2 104.22,-48.08l5.18 -2.01 0.02 5.55c0.02,3.2 0.06,6.39 0.12,9.58 3.01,-1.22 6.04,-2.43 9.08,-3.61l5.18 -2.02 0.02 5.56c0.12,27.41 2.21,54.81 0.51,82.22l-0.16 2.58 -2.46 0.81c-17.55,5.8 -34.44,13.4 -51.93,19.39l-4.85 1.66 -0.2 -5.13c-0.12,-3.09 -0.21,-6.19 -0.28,-9.29 -3.01,1.12 -6.03,2.21 -9.06,3.25l-4.86 1.66 -0.2 -5.13c-0.11,-2.95 -0.19,-5.9 -0.27,-8.85 -5.17,2.15 -10.16,4.67 -14.67,7.88 -1.18,30.53 -0.02,61.09 -0.44,91.54 0.1,11.35 -0.2,22.72 0.03,34.07zm413.32 -250.73c-0.84,28.76 -0.47,57.53 0.41,86.36 0.21,22.67 -0.05,45.34 0.12,68.01 4.45,-0.54 8.89,-1.23 13.31,-1.97 0.45,-17.08 -0.01,-34.17 0.45,-51.25l0.08 -3.17 3.13 -0.5c19.1,-3.05 38.24,-5.99 57.55,-7.33l4.09 -0.29 -0.01 4.11c-0.02,4.14 -0.03,8.28 -0.03,12.42 3.43,-0.33 6.86,-0.62 10.3,-0.86l4.1 -0.28 -0.02 4.1c-0.15,38.59 0.31,77.17 -0.15,115.75l-0.04 3.44 -3.43 0.32c-57.48,5.26 -114.69,13.09 -171.71,21.97l-4.13 0.65 -0.27 -4.17c-0.29,-4.43 -0.53,-8.86 -0.73,-13.29 -3.08,0.48 -6.15,0.95 -9.23,1.43l-4.12 0.64 -0.28 -4.17c-1.25,-19.28 -1.7,-38.64 -0.72,-57.95l0.15 -2.98 2.93 -0.57c5.07,-0.98 10.12,-2.01 15.19,-3 -0.06,-50.05 -1,-100.09 -1.04,-150.14l-0.34 0.05 -4.1 0.53 -0.2 -4.14c-0.2,-4.34 -0.38,-8.69 -0.53,-13.03 -3.17,0.42 -6.35,0.84 -9.52,1.25l-4.11 0.53 -0.19 -4.14c-0.88,-18.97 -1.4,-38 -0.52,-56.98l0.14 -2.87 2.79 -0.67c33.24,-7.92 66.37,-16.38 100.07,-22.18l4.32 -0.74 0.14 4.39c0.14,4.48 0.28,8.96 0.38,13.44 3.16,-0.59 6.34,-1.16 9.51,-1.7l4.32 -0.75 0.14 4.39c0.64,20 1.07,40.04 -0.46,60.01l-0.24 3.11 -3.1 0.39c-4.8,0.59 -9.6,1.23 -14.4,1.83zm1107.81 149.78c-1.8,11.36 -4.08,22.69 -5.66,34.1 3.37,1.12 6.75,2.23 10.14,3.3 -1.2,-12.51 -2.81,-24.96 -4.48,-37.4zm98.08 141.01c3.28,1.12 6.56,2.26 9.85,3.38l2.39 0.81 0.18 2.52c1.14,15.31 1.02,30.68 0.22,46l-0.25 4.85 -4.65 -1.39c-24.29,-7.22 -48.72,-14.06 -72.62,-22.55l-1.69 -0.6 -0.62 -1.68c-1.89,-5.16 -3.06,-10.42 -3.86,-15.73 -2.32,-0.79 -4.64,-1.6 -6.95,-2.42l-1.69 -0.6 -0.62 -1.68c-5.38,-14.7 -4.98,-30.19 -6.45,-45.36 -8.13,-2.91 -16.53,-5.16 -24.93,-7.17 -2.25,18.56 -4.49,37.12 -6.57,55.69l-0.45 4.03 -3.99 -0.69c-24.61,-4.24 -48.36,-12.17 -72.85,-16.93l-2.87 -0.56 -0.21 -2.92c-0.36,-4.99 -0.58,-9.99 -0.7,-14.99 -3.11,-0.7 -6.22,-1.35 -9.34,-1.96l-2.87 -0.56 -0.21 -2.92c-1.28,-17.76 -0.83,-35.57 -0.4,-53.36l0.1 -4.31 4.27 0.62c4.62,0.67 9.24,1.3 13.88,1.85 11.11,-64.73 23.7,-129.19 35.35,-193.83l0.76 -4.18 4.08 1.2c20.08,5.9 38.47,15.86 57.65,24l0.09 0.03 0.08 0.05c14.38,6.97 29.33,12.71 42.99,21.09l1.1 0.68 0.46 1.21c1.77,4.61 2.89,9.31 3.72,14.06 2.65,1.42 5.27,2.9 7.84,4.48l1.1 0.68 0.46 1.21c4.83,12.55 4.82,25.83 7.33,38.84l0.02 0.09c8.45,50.34 15.73,100.88 24.99,151.07l2.61 0.9 2.39 0.81 0.18 2.52c0.34,4.57 0.57,9.14 0.7,13.72zm-243.35 -231.11c-0.05,46.84 -1.66,93.69 -1.17,140.53l1.48 0.36 2.87 0.69 0.06 2.95c0.1,4.88 0.16,9.77 0.21,14.65 3.42,0.81 6.85,1.64 10.27,2.46l2.87 0.69 0.06 2.95c0.36,18.14 0.3,36.28 0.12,54.42l-0.04 4.62 -4.54 -0.92c-32.98,-6.71 -65.87,-13.96 -99.14,-19.16l-3.1 -0.48 -0.12 -3.14c-0.21,-5.18 -0.34,-10.36 -0.43,-15.55 -3.25,-0.54 -6.5,-1.07 -9.76,-1.58l-3.1 -0.49 -0.12 -3.13c-0.76,-19.03 -0.58,-38.07 -0.22,-57.1l0.09 -4.36 4.3 0.66c4.73,0.71 9.45,1.47 14.18,2.23 2.31,-17.36 0.78,-35.1 1.08,-52.55 0.53,-31.24 0.47,-62.48 0.7,-93.71l-1.44 -0.36 -2.73 -0.68 -0.16 -2.81c-0.27,-4.93 -0.46,-9.85 -0.57,-14.78l-9.95 -2.49 -2.73 -0.67 -0.16 -2.82c-1.06,-18.94 -0.73,-37.92 -0.25,-56.88l0.13 -4.81 4.65 1.21c33.64,8.78 66.53,20.09 99.43,31.26l2.49 0.85 0.1 2.63c0.16,4.56 0.26,9.13 0.31,13.7l10.51 3.57 2.49 0.85 0.1 2.63c0.63,17.69 0.27,35.4 0.33,53.09l0.02 4.53 -4.46 -0.75c-4.88,-0.81 -9.77,-1.59 -14.66,-2.31zm-306.26 -66.69l-0.15 -20.33 -9.05 0.74 -0.51 -70.81 3.67 0.46c39.09,4.86 77.69,12.86 116.15,21.21l0.1 0.02c15.51,3.8 31.68,5.28 44.8,15.4 11.05,8.53 18.22,20.47 22.21,33.54 9.9,14.65 13.73,33.31 13.08,50.91 -0.72,19.01 2.3,38.02 -3.6,56.58l-0.05 0.15c-2.81,7.69 -8.4,11.54 -14.94,13.84 1.78,2.48 3.3,5.21 4.46,8.3 0.14,0.37 0.27,0.75 0.41,1.13 2.15,4.22 4.95,10.16 8.78,18.46 6.45,17.18 3.23,34.86 3.54,52.64l0 0.14c-0.41,20.24 1.7,41.59 -10.17,59.29 -8.2,12.75 -24.22,18.26 -38.83,15.56 -46.6,-6.88 -93.36,-12.84 -140.26,-17.28l-3.33 -0.31 -0.13 -3.34c-0.2,-5.14 -0.33,-10.29 -0.42,-15.43l-5.32 -0.51 -3.33 -0.31 -0.13 -3.35c-0.76,-19.97 -0.67,-39.97 -0.15,-59.96l0.1 -3.68 3.68 -0.04c5.05,-0.05 10.1,-0.09 15.15,-0.16 1.35,-32.68 -0.31,-65.41 0.9,-98.1 0.68,-18.44 0.59,-36.9 0.54,-55.35l-7.2 0.59zm86.69 11.16c-0.01,11.12 -0.12,22.24 -0.05,33.36 7.82,1.4 15.63,2.79 23.45,4.12 -0.08,-11.09 0.07,-22.19 0.23,-33.29 -7.86,-1.5 -15.73,-2.95 -23.63,-4.19zm-0.78 110.78c0.09,14.06 -0.3,28.13 -0.44,42.19 7.78,1.27 15.58,2.46 23.4,3.5 0.44,-14 0.46,-28 0.34,-42 -7.72,-1.52 -15.49,-2.75 -23.3,-3.69zm-130.34 -200.51c3.7,0.55 7.4,1.12 11.09,1.73l3.19 0.52 0.01 3.24c0.03,20.11 0.12,40.22 -0.06,60.34l-0.04 4.21 -4.19 -0.45c-4.76,-0.52 -9.51,-1.02 -14.27,-1.52 -1.93,52.72 -0.31,105.5 -1.33,158.23l3.03 0.27 0.2 3.27c0.31,4.9 0.52,9.8 0.65,14.69 3.4,0.32 6.8,0.64 10.2,0.94l3.26 0.3 0.21 3.27c1.28,20.36 0.86,40.78 0.4,61.16l-0.09 3.93 -3.92 -0.2c-26.31,-1.36 -52.57,-3.45 -78.85,-5.24l-3.67 -0.25 0.11 -3.67c0.14,-4.84 0.27,-9.67 0.38,-14.5 -3.72,-0.26 -7.43,-0.52 -11.14,-0.77l-3.67 -0.25 0.11 -3.68c1.05,-35 1.05,-70.01 0.83,-105.03 -13.45,29.87 -26,59.88 -40.47,89.42l-14.31 -19.2 -3.4 -7.14c-13.34,-28.04 -24.61,-57 -37.3,-85.25l-0.25 -0.54c-0.01,4.97 0.06,9.93 0.08,14.89 0.14,42.45 -0.09,84.91 0.09,127.36l0.01 3.69 -3.68 0.14c-25.21,0.97 -50.44,0.64 -75.66,0.28l-3.68 -0.05 -0.09 -3.68c-0.11,-5.11 -0.19,-10.22 -0.25,-15.32 -3.43,-0.04 -6.87,-0.1 -10.3,-0.15l-3.68 -0.05 -0.08 -3.68c-0.46,-20.69 -0.46,-41.38 0.03,-62.07l0.08 -3.6 3.6 -0.13c4.86,-0.17 9.71,-0.32 14.57,-0.43 0.85,-53.48 0.49,-106.97 0.34,-160.46l-0.35 -0.01 -3.61 -0.07 -0.13 -3.6c-0.19,-5.1 -0.34,-10.21 -0.44,-15.31 -3.38,-0.08 -6.76,-0.14 -10.14,-0.21l-3.61 -0.07 -0.13 -3.61c-0.76,-20.74 -0.91,-41.52 0.09,-62.25l0.18 -3.64 3.64 0.01c25.34,0.03 50.7,-0.67 75.98,1.43l2.23 0.19 0.93 2.03c2.54,5.56 5.04,11.12 7.53,16.69 1.21,0.09 2.42,0.19 3.63,0.29l2.23 0.18 0.93 2.04c16.29,35.68 31.43,71.87 47.07,107.83 18.48,-39.75 34.58,-80.58 53.37,-120.21l1.11 -2.34 2.58 0.17c25.31,1.61 50.56,4.31 75.59,8.43l3.2 0.52 0 3.24 0.03 13.7zm-501.72 68.3l-1.84 0.04 -3.85 0.1 -0.06 -3.85c-0.07,-4.24 -0.21,-8.48 -0.37,-12.72l-8.3 0.21 -3.84 0.09 -0.07 -3.84c-0.33,-20.23 -2.27,-40.46 -0.1,-60.65l0.33 -3.08 3.08 -0.31c26.98,-2.73 53.74,-7.4 80.85,-8.85l3.58 -0.2 0.42 3.56c0.52,4.46 0.87,8.92 1.09,13.38 2.49,-0.18 4.99,-0.34 7.49,-0.48l3.57 -0.19 0.42 3.56c1.99,16.83 1.4,33.74 1.3,50.65 -0.34,58.15 0.54,116.3 0.79,174.45 5.55,-0.23 11.09,-0.56 16.64,-0.91 1.01,-81.31 -0.14,-162.63 -0.26,-243.94l-0.01 -3.61 3.61 -0.21c27.4,-1.58 54.76,-4.12 82.22,-4.06l3.73 0.01 0.08 3.73c0.09,4.19 0.16,8.39 0.22,12.58 2.85,-0.04 5.7,-0.06 8.55,-0.06l3.73 0.01 0.08 3.73c0.42,20.61 0.52,41.23 -0.03,61.84l-0.1 3.63 -3.62 0.09c-4.88,0.12 -9.76,0.22 -14.64,0.31 1.18,58.99 0.01,118 0.59,176.99 0.21,20.96 -2.49,43.68 -17.24,59.8 -8.13,9.49 -20.56,13.39 -32.68,14.03 -23.22,1.23 -46.45,2.12 -69.63,3.84 -12.26,0.91 -25.54,-0.62 -34.46,-9.97 -4.46,-4.23 -7.77,-8.98 -10.25,-14.08 -0.81,-0.68 -1.58,-1.41 -2.33,-2.19 -18.52,-17.54 -17.37,-44.17 -17.98,-67.59l0 -0.16c0.8,-48.56 -0.71,-97.12 -0.71,-145.68zm-315.33 65.53c-4.95,1.55 -9.9,3.15 -14.82,4.81 -0.42,47.49 0.29,94.98 0.98,142.47 4.98,-1.2 9.96,-2.41 14.94,-3.63 0.01,-47.88 -1.02,-95.76 -1.1,-143.65zm61.45 -73.59c11.32,5.56 18.75,18.52 20.46,30.69 3.92,27.98 0.95,56.15 2.18,84.24 1.38,31.26 0.03,62.56 1.27,93.82 0.92,23.06 -2.41,48.31 -19.47,65.31 -15.59,16.14 -37.89,15.49 -58.01,20.63l-0.16 0.04 -0.17 0.03c-19.6,3.2 -38.28,10.49 -58.42,10.34l-0.09 0 -0.09 -0.01c-10.85,-0.58 -19.43,-6.93 -24.89,-15.56 -11.84,-5.79 -19.23,-19.24 -20.26,-32.49 -2.67,-34.3 -0.78,-68.69 -1.74,-103.04 -0.68,-24.36 -0.95,-48.73 -0.51,-73.09 0.49,-27.46 15.48,-55.63 41.22,-67.08l0.08 -0.03c19.17,-7.99 39.08,-13.89 58.79,-20.61 10.28,-3.27 20.31,-7.2 31.11,-8.45 5.09,-0.58 10.07,0.25 14.7,2.45 5.72,2.73 10.47,7.34 14,12.81zm630.86 888.43c3.08,-1.42 6.17,-2.84 9.29,-4.27 -0.15,5.33 -0.3,10.63 -0.48,15.96 -7.33,0.72 -7.45,-6.51 -8.81,-11.69zm-236.13 -4.15c2.61,1.21 5.21,2.46 7.81,3.7 0.15,3.51 0.31,7.02 0.49,10.56 -2.06,0.18 -6.18,0.55 -8.23,0.73 0,-5 -0.04,-9.99 -0.07,-14.99zm258.04 -18.43c-0.63,-4.93 5.51,-6.02 8.6,-8.11 -0.03,5.33 -0.12,10.65 -0.27,16.01 -3.61,-1.45 -8.87,-2.97 -8.33,-7.9zm-279.56 -8.05c6.33,1.88 8.6,7.17 9.2,13.26 -2.27,0.45 -6.77,1.33 -9.04,1.78 -0.1,-5.02 -0.16,-10.02 -0.16,-15.04zm302.51 -10.78c-0.49,-6.9 1.39,-12.95 8.41,-15.28 0.12,5.08 0.21,10.23 0.3,15.37 -2.18,-0.03 -6.54,-0.09 -8.71,-0.09zm-325.87 -14.43c2.84,0.9 5.66,1.84 8.5,2.78 -0.12,4.03 -0.27,8.08 -0.42,12.14 -2,-0.18 -5.93,-0.52 -7.9,-0.7 -0.03,-4.75 -0.09,-9.5 -0.18,-14.22zm128.43 -224.72c21,-24.88 61.74,-23.3 85.99,-3.84 -5.24,2.09 -10.35,4.75 -15.92,5.84 -12.75,-2.42 -25.58,-8.81 -38.75,-4.66 -10.23,3.15 -20.76,6.81 -31.32,2.66zm110.51 -97.97c45.58,-16.08 88.74,-38.11 133.2,-56.82 -10.1,34.23 -42.34,56.18 -75.09,65.87 -6.05,2.63 -14.41,2.72 -17.89,9.17 -8.69,13.89 -14.01,29.69 -23.76,42.95 -6.69,9.17 -13.77,18.07 -22,25.91 1.27,-29.03 2.42,-58.18 5.54,-87.08zm-270.42 -56.82c30.21,12.02 58.99,27.3 89.23,39.32 14.19,6.3 29,11.26 43.07,17.83 2.69,3.93 1.88,9.11 2.57,13.62 1.18,24.33 3.06,48.64 4.12,72.98 -13.2,-13.26 -25.36,-27.91 -33.39,-44.95 -4.87,-9.17 -8.47,-19.31 -15.28,-27.3 -16.19,-7 -33.9,-10.72 -48.85,-20.53 -19.32,-11.35 -34.69,-29.51 -41.47,-50.97zm130.91 -94.68c3.3,11.87 4.93,24.16 3.69,36.45 -13.92,-6.91 -26.85,-15.93 -41.56,-21.13 -18.79,-6.78 -39.83,-10.48 -59.17,-3.7 13.01,7.45 25.36,16.71 32.66,30.21 -30.33,7.3 -61.42,12.17 -90.69,23.28 -9.47,3.84 -16.95,11.14 -24.33,17.98 -32.12,30.78 -57.79,68.28 -75.46,109.09 5.36,-0.22 10.74,-0.49 16.13,-0.7 7.18,29.97 0.27,60.84 -5.11,90.53 5.93,-1.24 11.83,-2.57 17.76,-3.78 -10.14,15.98 -21.94,30.81 -32.93,46.19 -11.5,15.22 -17.31,34.05 -19.88,52.76 -4.39,42.31 11.83,83.63 34.44,118.62 19.25,-6.3 38.26,-13.35 57.78,-18.89 -22.55,-9.08 -46.06,-21.1 -57.39,-43.89 -11.59,-20.34 -0.93,-44.13 10.84,-61.72 11.29,-15.52 23.25,-33.14 42.62,-38.92 23.43,-8.17 46.01,-18.77 69.89,-25.7 -11.56,14.26 -24.73,27.58 -32.6,44.4 -12.29,23.07 -14.98,52.19 -2.6,75.77 11.41,21.91 30.32,39.89 52.72,50.27 -0.06,2.45 -0.15,7.36 -0.21,9.81 -19.16,-0.36 -38.32,-2.79 -57.48,-0.88 -26.45,2.54 -52.85,7.81 -77.58,17.71 5.51,7.14 9.3,16.68 17.23,21.37 12.65,-4 24.51,-10.17 37.26,-13.96 32.66,-11.17 67.62,-15.01 101.97,-11.92 1.24,4.69 4.9,14.04 -3.27,13.68 -44.4,-4.84 -89.29,3.63 -130.73,19.52 6,9.27 13.02,17.77 20.04,26.24 42.47,-20.43 89.2,-36.59 137,-31.66 -0.1,5.45 -0.34,10.93 -0.73,16.38 31.96,8.02 67.26,9.2 98.1,-3.78 2.81,-11.45 6.11,-22.86 6.81,-34.66 -6.15,-6.15 -15.98,-7.02 -23.88,-10.23 -22.58,-7.78 -49.01,-12.38 -64.35,-32.54 -7.54,-8.05 -16.83,-15.83 -17.86,-27.64 -6.21,-44.61 10.56,-87.83 20.4,-130.66 2.69,-15.29 -8.99,-27.46 -14.92,-40.35 -2.15,-10.14 -0.7,-21.49 -7,-30.33 -4.32,-6.96 -11.92,-10.56 -18.82,-14.35 5.72,11.87 11.5,26.43 3.93,38.93 -11.8,17.22 -39.16,18.34 -55.06,6.35 -9.53,-6.84 -9.5,-19.37 -9.44,-29.87 -19.89,-6.33 -45.58,-4.78 -58.99,-23.4 26.18,-10.17 54.24,-15.53 82.36,-15.25 28.27,-0.55 60.05,0.81 82.39,20.49 19.58,16.22 21.91,43.98 39.65,61.68 -13.47,49.04 -23.1,99.07 -30.96,149.29 25.91,-0.91 49.54,10.29 73.49,18.4 42.52,9.99 83.48,-10.05 124.1,-19.49 -7.15,-49.91 -17.95,-99.34 -29.06,-148.38 17.31,-20.97 22.73,-50.88 46.58,-66.37 28.24,-19.23 64.11,-15.5 96.53,-15.53 20.1,-0.28 39.41,5.93 57.93,13.1 -1.12,4.42 -0.15,10.51 -5.29,12.53 -15.14,8.06 -32.88,8.27 -49.61,8.63 -0.28,-2.39 -0.82,-7.17 -1.09,-9.56 -2.21,0.93 -4.39,1.9 -6.6,2.84 5.02,11.59 8.99,26.64 -0.31,37.26 -14.62,15.98 -44.73,15.68 -58.11,-1.69 -8.66,-12.26 -2.06,-27.21 2.45,-39.65 -7.08,4.02 -14.56,8.35 -18.7,15.64 -5.6,8.78 -4.52,19.65 -6.78,29.42 -5.7,13.14 -17.56,25.64 -14.72,40.99 9.3,39.53 22.68,79.18 20.44,120.31 -0.16,14.9 -8.39,27.79 -16.86,39.38 -7.63,10.17 -19.83,15.23 -31.3,19.77 -19.34,7.11 -39.26,12.53 -58.78,19.16 2.27,11.83 4.6,23.64 7.23,35.41 18.53,7.93 38.93,9.57 58.87,9.75 17.56,0.06 35.63,-0.42 52.07,-7.42 -7.39,-1.3 -14.78,-2.36 -22.13,-3.72 1.24,-3.84 2.48,-7.69 3.75,-11.5 50.7,-3.45 100.28,13.41 144.14,37.65 6.72,-9.35 13.29,-18.82 19.13,-28.75 -45.31,-18.07 -94.5,-27.88 -143.29,-22.16 0.82,-4.63 -2.3,-12.95 4.81,-13.47 49.58,-6.39 98.8,8.87 143.47,29.21 5.09,-7.75 9.93,-15.65 14.08,-23.91 -27.52,-10.38 -56.51,-17.01 -85.87,-19.13 -17.98,-1.45 -35.96,0.94 -53.97,0.79 0.3,-3.73 0.64,-7.42 1,-11.14 10.47,-2.24 21.4,-5 29.18,-12.93 21.52,-17.95 39.07,-44.07 37.26,-73.19 -1.55,-33.78 -23.4,-61.74 -46.43,-84.6 25.69,9.17 50.97,19.5 76.54,28.97 16.26,5.45 26.1,20.52 36.24,33.36 12.95,17.58 24.51,41.01 15.37,62.86 -11.68,26.28 -38.86,40.08 -64.95,48.19 20.76,4.3 40.71,11.74 60.2,19.98 21.13,-38.02 40.92,-81.36 32.54,-125.89 -3.79,-18.25 -7.72,-37.8 -20.43,-52.21 -10.14,-12.08 -20.59,-23.91 -30.21,-36.41 5.54,1.09 11.08,2.21 16.65,3.32 -7.12,-27.57 -15.2,-56.11 -10.51,-84.81 1,-11.5 14.68,-5.84 22.22,-6.96 -19.67,-46.19 -49.52,-88.78 -88.35,-120.74 -32.36,-15.71 -68.59,-21.67 -103.7,-28.45 6.17,-14.38 19.73,-22.67 31.66,-31.72 -35.87,-10.69 -70.35,8.74 -100.7,25.61 -0.52,-12.35 1.3,-24.58 4.29,-36.51 -15.55,0.73 -29.96,8.69 -40.1,20.25 -3.03,4.15 -2.73,9.69 -3.51,14.53 -3.54,39.44 -7.63,78.85 -10.32,118.38 -7.12,-0.42 -14.17,-1 -21.22,-1.76 -2.52,-37.29 -6.3,-74.49 -9.75,-111.72 -1,-5.66 -0.42,-12.19 -4.6,-16.67 -12.38,-13.66 -28.6,-25.37 -47.64,-26.34zm-258.77 52.49c-26.39,7.2 -45.1,30.11 -71.98,36.56 10.93,12.47 27.28,17.83 42.78,22.01 11.71,2.39 23.94,5.44 35.89,3.45 17.83,-14.77 34.51,-31.15 50.98,-47.46 4.35,-3.42 -2.34,-6.6 -4.82,-8.18 -15.95,-8.77 -35.26,-9.47 -52.85,-6.38zm596.2 13.22c12.56,15.02 28.06,27.15 41.71,41.11 5.75,4.93 11.11,13.07 19.83,11.47 24.66,-1.85 50.63,-8.02 69.28,-25.3 -18.52,-5.94 -34.35,-17.23 -50.4,-27.79 -23.82,-15.74 -56.69,-14.89 -80.42,0.51zm-467.62 180.8c6.24,19.43 38.6,20.55 45.98,1.45 3.82,-7.96 -1.42,-15.77 -5.14,-22.61 -1.34,6.3 -0.4,13.59 -4.51,18.98 -5.18,7.29 -17.29,8.08 -23.37,1.57 -5.99,-5.26 -4.39,-13.98 -5.72,-21.03 -4.88,6.11 -9.63,13.37 -7.24,21.64zm359.35 0.24c5.9,19.07 36.96,20.13 45.1,2.3 3.96,-7.29 0.27,-15.2 -3.57,-21.58 -1.67,5.42 -2.18,11.32 -5.06,16.28 -5.35,8.3 -18.88,8.81 -24.97,1.09 -4.78,-5.33 -3.54,-13.04 -4.36,-19.61 -5.11,5.81 -10.44,13.44 -7.14,21.52zm-418.43 318.63c7.6,11.75 16.68,22.49 23.12,34.96 18.04,33.97 27.22,71.62 36.57,108.67 8.9,36.96 17.1,75.31 37.83,107.81 18.17,28.43 48.59,47.28 81.09,54.85 53.91,13.83 109.82,5.9 164.48,2.84 21.19,-1.42 42.71,-7.08 60.02,-19.79 18.01,-12.89 30.18,-32.33 38.14,-52.7 11.29,-29.75 19.28,-60.62 26.46,-91.59 12.1,-48.91 24.94,-99.82 57.36,-139.81 -26.34,-13.1 -54.76,-23.43 -84.06,-26.88 -5.6,4.94 -7.75,12.75 -13.47,17.62 -5.93,4.05 -13.04,5.69 -19.79,7.81 15.52,26.27 22.42,60.56 7.65,88.68 -8.65,15.29 -16.46,31.54 -18.07,49.28 -2.99,29.63 2.97,60.48 -7.26,89.14 -3,9.32 -10.14,17.25 -19.68,20.01 -20.79,6.78 -42.46,0 -63.14,-3.6 -29.51,-4.63 -60.26,-5.88 -89.32,2.15 -16.16,4.17 -32.9,9.02 -49.76,6.53 -16.13,-2.27 -29,-16.55 -31.15,-32.41 -3.87,-28.03 10.3,-56 2.34,-83.79 -5.24,-21.76 -20.95,-38.95 -27.28,-60.23 -7.08,-25.09 -0.57,-51.97 12.59,-73.89 -5.62,-2.17 -11.31,-4.2 -16.67,-6.96 -9.57,-4.66 -13.9,-15.04 -19.86,-23.18 -30.45,3.51 -60.14,12.17 -88.14,24.48zm193.32 19.56c5.91,17.19 11.6,34.5 18.98,51.12 7.99,-15.16 14.38,-31.08 22.58,-46.16 9.69,15.62 17.13,32.48 26.4,48.34 9.56,-16.62 17.31,-34.2 27.27,-50.61 9.2,15.41 14.47,32.96 24.3,47.98 8.21,-16.01 14.11,-33.12 21.43,-49.52 -24.45,-4.81 -54.33,1.94 -73.37,-17.83 -17.67,17.34 -44.76,15.01 -67.59,16.68zm145.05 0.45c7.72,32.6 19.83,64.41 20.88,98.31 12.08,-21.49 22.04,-45.31 21.16,-70.4 -0.24,-11.35 -0.48,-25.49 -10.89,-32.54 -10.48,0.94 -20.77,3.21 -31.15,4.63zm-189.87 15.83c-2.12,28.88 5.35,58.06 21,82.45 0.91,-18.22 3.66,-36.32 8.57,-53.9 3.63,-15.05 10.11,-29.43 11.44,-44.98 -9.35,-0.88 -18.64,-2.61 -28.03,-2.94 -7.87,3.12 -12.5,11.11 -12.98,19.37zm-11.05 39.9c5.48,18.64 18.95,34.11 21.82,53.66 1.85,13.2 5.15,26.4 13.14,37.35 6.72,-16.22 10.77,-34.81 23.85,-47.37 1,9.14 0.48,18.56 2.91,27.52 7.75,12.68 18.34,23.36 28.18,34.44 1.6,-4.29 3.17,-8.56 4.78,-12.83 10.38,10.62 19.31,22.55 29.48,33.38 5.93,-5.75 10.62,-13.49 18.74,-16.43 -5.6,7.84 -12.08,14.98 -18.59,22.03 -9.81,-10.77 -18.55,-22.49 -28.94,-32.72 -4.32,14.9 -9.32,29.61 -13.89,44.44 29.48,-3.33 59.15,-3.85 88.78,-2.85 -4.51,-14.5 -10.51,-28.45 -16.01,-42.55 -2.91,2.63 -5.85,5.26 -8.63,8.02 2.57,-4.63 5.08,-9.3 7.81,-13.84 2.51,2.7 5.02,5.39 7.57,8.12 10.32,-9.02 22.12,-16.74 30.51,-27.73 2.51,-9.5 2.27,-19.46 3.69,-29.15 13.44,15.77 18.58,36.38 26.09,55.24 13.44,-11.89 11.74,-30.69 16.16,-46.55 4.24,-18.13 11.99,-35.2 16.77,-53.18 -3.66,0.24 -7.32,0.54 -10.95,0.9 -5.48,18.13 -12.02,36.39 -23.83,51.46 -1.15,-12.2 -2.08,-24.46 -4.11,-36.56 -19.53,-5.42 -41.77,-6.87 -59.72,4.14 -11.75,5.94 -19.52,17.8 -31.72,22.73 -9.72,-1.08 -17.04,-8.86 -25.43,-13.34 -17.55,-11.63 -38.89,-16.5 -59.81,-14.83 -2.45,12.56 -3.36,25.3 -4.36,38.01 -11.56,-14.89 -18.34,-32.81 -24,-50.64 -3.42,-0.33 -6.87,-0.6 -10.29,-0.87zm42.98 150.73c11.17,-0.3 22.16,-2.21 33.02,-4.66 -6.66,-31.81 -20.13,-62.47 -19.58,-95.56 -18.04,29.67 -28.76,67.05 -13.44,100.22zm154.58 -98.79c-1.6,23.33 -6.45,46.28 -13.41,68.55 -1.12,-0.45 -3.3,-1.33 -4.39,-1.75 1.3,4.27 4.3,16.16 -3.66,9.99 1.21,4.17 2.21,8.41 3.18,12.71 11.95,1.24 23.82,3.69 35.87,3.93 10.83,-31.75 -1.49,-65.8 -17.59,-93.43z"/>
   <path class="fil1" d="M814.15 699.43c-2.39,-8.27 2.36,-15.53 7.24,-21.64 1.33,7.05 -0.27,15.77 5.72,21.03 6.08,6.51 18.19,5.72 23.37,-1.57 4.11,-5.39 3.17,-12.68 4.51,-18.98 3.72,6.84 8.96,14.65 5.14,22.61 -7.38,19.1 -39.74,17.98 -45.98,-1.45zm173.74 493.64c10.39,10.23 19.13,21.95 28.94,32.72 6.51,-7.05 12.99,-14.19 18.59,-22.03 0.66,-0.91 2.02,-2.73 2.72,-3.63 2.78,-2.76 5.72,-5.39 8.63,-8.02 5.5,14.1 11.5,28.05 16.01,42.55 -29.63,-1 -59.3,-0.48 -88.78,2.85 4.57,-14.83 9.57,-29.54 13.89,-44.44zm102.19 -47.09c16.1,27.63 28.42,61.68 17.59,93.43 -12.05,-0.24 -23.92,-2.69 -35.87,-3.93 -0.97,-4.3 -1.97,-8.54 -3.18,-12.71 7.96,6.17 4.96,-5.72 3.66,-9.99 1.09,0.42 3.27,1.3 4.39,1.75 6.96,-22.27 11.81,-45.22 13.41,-68.55zm-154.58 98.79c-15.32,-33.17 -4.6,-70.55 13.44,-100.22 -0.55,33.09 12.92,63.75 19.58,95.56 -10.86,2.45 -21.85,4.36 -33.02,4.66zm-31.93 -190.63c0.48,-8.26 5.11,-16.25 12.98,-19.37 9.39,0.33 18.68,2.06 28.03,2.94 -1.33,15.55 -7.81,29.93 -11.44,44.98 -4.91,17.58 -7.66,35.68 -8.57,53.9 -15.65,-24.39 -23.12,-53.57 -21,-82.45zm189.87 -15.83c10.38,-1.42 20.67,-3.69 31.15,-4.63 10.41,7.05 10.65,21.19 10.89,32.54 0.88,25.09 -9.08,48.91 -21.16,70.4 -1.05,-33.9 -13.16,-65.71 -20.88,-98.31zm-145.05 -0.45c22.83,-1.67 49.92,0.66 67.59,-16.68 19.04,19.77 48.92,13.02 73.37,17.83 -7.32,16.4 -13.22,33.51 -21.43,49.52 -9.83,-15.02 -15.1,-32.57 -24.3,-47.98 -9.96,16.41 -17.71,33.99 -27.27,50.61 -9.27,-15.86 -16.71,-32.72 -26.4,-48.34 -8.2,15.08 -14.59,31 -22.58,46.16 -7.38,-16.62 -13.07,-33.93 -18.98,-51.12zm225.11 -338.19c-3.3,-8.08 2.03,-15.71 7.14,-21.52 0.82,6.57 -0.42,14.28 4.36,19.61 6.09,7.72 19.62,7.21 24.97,-1.09 2.88,-4.96 3.39,-10.86 5.06,-16.28 3.84,6.38 7.53,14.29 3.57,21.58 -8.14,17.83 -39.2,16.77 -45.1,-2.3z"/>
   <path class="fil2" d="M944.34 452.92c19.04,0.97 35.26,12.68 47.64,26.34 4.18,4.48 3.6,11.01 4.6,16.67 3.45,37.23 7.23,74.43 9.75,111.72 7.05,0.76 14.1,1.34 21.22,1.76 2.69,-39.53 6.78,-78.94 10.32,-118.38 0.78,-4.84 0.48,-10.38 3.51,-14.53 10.14,-11.56 24.55,-19.52 40.1,-20.25 -2.99,11.93 -4.81,24.16 -4.29,36.51 30.35,-16.87 64.83,-36.3 100.7,-25.61 -11.93,9.05 -25.49,17.34 -31.66,31.72 35.11,6.78 71.34,12.74 103.7,28.45 38.83,31.96 68.68,74.55 88.35,120.74 -7.54,1.12 -21.22,-4.54 -22.22,6.96 -4.69,28.7 3.39,57.24 10.51,84.81 -5.57,-1.11 -11.11,-2.23 -16.65,-3.32 9.62,12.5 20.07,24.33 30.21,36.41 12.71,14.41 16.64,33.96 20.43,52.21 8.38,44.53 -11.41,87.87 -32.54,125.89 -19.49,-8.24 -39.44,-15.68 -60.2,-19.98 26.09,-8.11 53.27,-21.91 64.95,-48.19 9.14,-21.85 -2.42,-45.28 -15.37,-62.86 -10.14,-12.84 -19.98,-27.91 -36.24,-33.36 -25.57,-9.47 -50.85,-19.8 -76.54,-28.97 23.03,22.86 44.88,50.82 46.43,84.6 1.81,29.12 -15.74,55.24 -37.26,73.19 -7.78,7.93 -18.71,10.69 -29.18,12.93 -0.36,3.72 -0.7,7.41 -1,11.14 18.01,0.15 35.99,-2.24 53.97,-0.79 29.36,2.12 58.35,8.75 85.87,19.13 -4.15,8.26 -8.99,16.16 -14.08,23.91 -44.67,-20.34 -93.89,-35.6 -143.47,-29.21 -7.11,0.52 -3.99,8.84 -4.81,13.47 48.79,-5.72 97.98,4.09 143.29,22.16 -5.84,9.93 -12.41,19.4 -19.13,28.75 -43.86,-24.24 -93.44,-41.1 -144.14,-37.65 -1.27,3.81 -2.51,7.66 -3.75,11.5 7.35,1.36 14.74,2.42 22.13,3.72 -16.44,7 -34.51,7.48 -52.07,7.42 -19.94,-0.18 -40.34,-1.82 -58.87,-9.75 -2.63,-11.77 -4.96,-23.58 -7.23,-35.41 19.52,-6.63 39.44,-12.05 58.78,-19.16 11.47,-4.54 23.67,-9.6 31.3,-19.77 8.47,-11.59 16.7,-24.48 16.86,-39.38 2.24,-41.13 -11.14,-80.78 -20.44,-120.31 -2.84,-15.35 9.02,-27.85 14.72,-40.99 2.26,-9.77 1.18,-20.64 6.78,-29.42 4.14,-7.29 11.62,-11.62 18.7,-15.64 -4.51,12.44 -11.11,27.39 -2.45,39.65 13.38,17.37 43.49,17.67 58.11,1.69 9.3,-10.62 5.33,-25.67 0.31,-37.26 2.21,-0.94 4.39,-1.91 6.6,-2.84 0.27,2.39 0.81,7.17 1.09,9.56 16.73,-0.36 34.47,-0.57 49.61,-8.63 5.14,-2.02 4.17,-8.11 5.29,-12.53 -18.52,-7.17 -37.83,-13.38 -57.93,-13.1 -32.42,0.03 -68.29,-3.7 -96.53,15.53 -23.85,15.49 -29.27,45.4 -46.58,66.37 11.11,49.04 21.91,98.47 29.06,148.38 -40.62,9.44 -81.58,29.48 -124.1,19.49 -23.95,-8.11 -47.58,-19.31 -73.49,-18.4 7.86,-50.22 17.49,-100.25 30.96,-149.29 -17.74,-17.7 -20.07,-45.46 -39.65,-61.68 -22.34,-19.68 -54.12,-21.04 -82.39,-20.49 -28.12,-0.28 -56.18,5.08 -82.36,15.25 13.41,18.62 39.1,17.07 58.99,23.4 -0.06,10.5 -0.09,23.03 9.44,29.87 15.9,11.99 43.26,10.87 55.06,-6.35 7.57,-12.5 1.79,-27.06 -3.93,-38.93 6.9,3.79 14.5,7.39 18.82,14.35 6.3,8.84 4.85,20.19 7,30.33 5.93,12.89 17.61,25.06 14.92,40.35 -9.84,42.83 -26.61,86.05 -20.4,130.66 1.03,11.81 10.32,19.59 17.86,27.64 15.34,20.16 41.77,24.76 64.35,32.54 7.9,3.21 17.73,4.08 23.88,10.23 -0.7,11.8 -4,23.21 -6.81,34.66 -30.84,12.98 -66.14,11.8 -98.1,3.78 0.39,-5.45 0.63,-10.93 0.73,-16.38 -47.8,-4.93 -94.53,11.23 -137,31.66 -7.02,-8.47 -14.04,-16.97 -20.04,-26.24 41.44,-15.89 86.33,-24.36 130.73,-19.52 8.17,0.36 4.51,-8.99 3.27,-13.68 -34.35,-3.09 -69.31,0.75 -101.97,11.92 -12.75,3.79 -24.61,9.96 -37.26,13.96 -7.93,-4.69 -11.72,-14.23 -17.23,-21.37 24.73,-9.9 51.13,-15.17 77.58,-17.71 19.16,-1.91 38.32,0.52 57.48,0.88 0.06,-2.45 0.15,-7.36 0.21,-9.81 -22.4,-10.38 -41.31,-28.36 -52.72,-50.27 -12.38,-23.58 -9.69,-52.7 2.6,-75.77 7.87,-16.82 21.04,-30.14 32.6,-44.4 -23.88,6.93 -46.46,17.53 -69.89,25.7 -19.37,5.78 -31.33,23.4 -42.62,38.92 -11.77,17.59 -22.43,41.38 -10.84,61.72 11.33,22.79 34.84,34.81 57.39,43.89 -19.52,5.54 -38.53,12.59 -57.78,18.89 -22.61,-34.99 -38.83,-76.31 -34.44,-118.62 2.57,-18.71 8.38,-37.54 19.88,-52.76 10.99,-15.38 22.79,-30.21 32.93,-46.19 -5.93,1.21 -11.83,2.54 -17.76,3.78 5.38,-29.69 12.29,-60.56 5.11,-90.53 -5.39,0.21 -10.77,0.48 -16.13,0.7 17.67,-40.81 43.34,-78.31 75.46,-109.09 7.38,-6.84 14.86,-14.14 24.33,-17.98 29.27,-11.11 60.36,-15.98 90.69,-23.28 -7.3,-13.5 -19.65,-22.76 -32.66,-30.21 19.34,-6.78 40.38,-3.08 59.17,3.7 14.71,5.2 27.64,14.22 41.56,21.13 1.24,-12.29 -0.39,-24.58 -3.69,-36.45zm-752.32 -259.88c34.17,-16.92 68.34,-34.12 103.91,-47.95 0.12,27.33 2.21,54.67 0.51,81.97 -17.58,5.81 -34.47,13.41 -51.97,19.4 -0.36,-9.53 -0.45,-19.07 -0.66,-28.6 -12.5,4.21 -25.61,8.17 -36.23,16.28 -1.31,31.15 -0.1,62.39 -0.52,93.56 0.15,17.5 -0.63,35.05 1,52.52 12.29,-3.09 24.25,-7.3 36.29,-11.11 0.61,-14.62 0.49,-29.27 0.79,-43.92 17.25,-5.84 34.29,-12.38 52,-16.8 0.7,31.51 0.7,63.05 1.39,94.59 -35.93,10.26 -72.07,19.79 -107.66,31.15 -11.23,3.51 -25.13,5.96 -34.9,-2.3 -9.93,-8.33 -9.96,-22.5 -10.29,-34.36 0.15,-44.4 -0.09,-88.81 0.12,-133.21 0.21,-30.09 19.1,-58.54 46.22,-71.22zm1311.53 -119.2c33.53,8.75 66.34,20.04 99.16,31.18 0.63,17.64 0.27,35.29 0.33,52.97 -6.36,-1.06 -12.74,-2.06 -19.1,-2.97 0.06,55.24 -2.21,110.45 -0.82,165.63 5.81,1.33 11.66,2.75 17.47,4.15 0.36,18.1 0.3,36.2 0.12,54.3 -33.06,-6.72 -66.02,-13.99 -99.31,-19.19 -0.76,-18.95 -0.58,-37.93 -0.22,-56.88 6,0.91 11.96,1.88 17.95,2.85 3.15,-18.83 1.25,-37.93 1.7,-56.88 0.51,-38.04 0.42,-76.09 0.91,-114.14 -6,-1.45 -11.99,-2.97 -17.95,-4.45 -1.06,-18.82 -0.73,-37.71 -0.24,-56.57zm-964.72 -11.8c33.15,-7.9 66.2,-16.35 99.83,-22.13 0.63,19.86 1.06,39.77 -0.46,59.6 -5.87,0.73 -11.74,1.51 -17.64,2.24 -0.97,29.9 -0.61,59.84 0.3,89.77 0.27,29.45 -0.24,58.91 0.42,88.36 11.72,0 23.37,-1.73 34.9,-3.73 0.61,-18.13 0.06,-36.26 0.55,-54.39 18.98,-3.02 38.02,-5.96 57.21,-7.29 -0.16,38.59 0.3,77.15 -0.16,115.71 -57.57,5.27 -114.83,13.11 -171.95,22.01 -1.24,-19.13 -1.7,-38.35 -0.73,-57.51 6.09,-1.18 12.17,-2.42 18.28,-3.6 -0.02,-58.3 -1.3,-116.6 -0.99,-174.89 -6.36,0.78 -12.69,1.66 -19.04,2.48 -0.88,-18.89 -1.4,-37.78 -0.52,-56.63zm314.61 -51.79c27.3,-1.58 54.61,-4.12 82,-4.06 0.42,20.55 0.51,41.11 -0.03,61.66 -6.15,0.15 -12.29,0.27 -18.43,0.39 1.3,60.24 0.18,120.5 0.66,180.76 0.3,19.95 -2.21,41.9 -16.28,57.24 -7.42,8.69 -18.95,12.26 -30.03,12.74 -23.25,1.34 -46.49,2.24 -69.71,3.85 -11.08,0.94 -23.43,-0.37 -31.48,-8.87 -17.55,-16.56 -16.28,-42.83 -16.86,-64.99 0.91,-55.42 -1.18,-110.78 -0.6,-166.2 -6.15,0.09 -12.29,0.27 -18.43,0.42 -0.34,-20.06 -2.27,-40.16 -0.13,-60.17 26.91,-2.72 53.64,-7.39 80.67,-8.84 1.97,16.68 1.27,33.45 1.27,50.19 -0.48,64.98 0.76,129.94 0.85,194.92 12.26,0 24.52,-0.72 36.74,-1.51 1.09,-82.51 -0.09,-165.02 -0.21,-247.53zm120.62 -5.69c25.25,0.03 50.49,-0.67 75.67,1.42 21.31,46.67 40.65,94.22 61.72,140.99 21.34,-44.07 38.98,-89.87 59.96,-134.12 25.18,1.6 50.34,4.3 75.22,8.39 0.03,20.09 0.12,40.19 -0.06,60.29 -6.12,-0.67 -12.23,-1.3 -18.35,-1.94 -2.45,61.2 0.1,122.5 -2.05,183.73 6.02,0.58 12.07,1.15 18.13,1.7 1.27,20.25 0.85,40.56 0.39,60.83 -26.3,-1.36 -52.54,-3.45 -78.79,-5.23 1.67,-55.45 0.7,-111 0.4,-166.48 -8.84,8.17 -11.54,20.43 -16.77,30.88 -14.02,30.54 -26.58,61.74 -41.35,91.89 -13.32,-28 -24.58,-56.93 -37.29,-85.23 -6.84,-14.53 -11.2,-30.33 -20.61,-43.5 -1.61,13.35 -1.21,26.85 -1.15,40.29 0.12,42.46 -0.09,84.9 0.09,127.37 -25.16,0.96 -50.31,0.63 -75.46,0.27 -0.46,-20.61 -0.46,-41.26 0.03,-61.9 6.05,-0.21 12.11,-0.39 18.19,-0.51 1.06,-62.27 0.42,-124.56 0.36,-186.82 -6.14,-0.15 -12.25,-0.27 -18.37,-0.39 -0.76,-20.65 -0.91,-41.32 0.09,-61.93zm314.34 22.79c38.95,4.84 77.46,12.83 115.81,21.16 14.74,3.6 30.93,5.14 43.37,14.71 18.61,14.4 25.4,38.98 24.61,61.68 -0.76,18.47 2.27,37.69 -3.42,55.58 -4.75,13.01 -20.34,13.31 -31.75,15.68 11.26,8.08 25.27,14.89 30.48,28.69 6.14,16.44 2.99,34.26 3.29,51.37 -0.39,19.25 1.73,40.46 -9.56,57.29 -7.38,11.47 -21.85,16.32 -34.99,13.87 -46.7,-6.91 -93.53,-12.87 -140.54,-17.32 -0.75,-19.91 -0.66,-39.83 -0.15,-59.72 6.24,-0.06 12.5,-0.12 18.77,-0.21 1.63,-33.9 -0.09,-67.83 1.06,-101.73 1.09,-26.55 0.36,-53.12 0.57,-79.67 -5.66,0.03 -11.35,0 -16.98,0.7 -1.39,0.79 -4.17,2.36 -5.57,3.15l0.61 -2.09c5.87,-20.52 1.12,-42.2 4.39,-63.14zm80.18 73.28l0 0c0.03,19.67 -0.33,39.35 0.36,59.02 13.29,2.36 26.58,4.78 39.93,7.02 -0.28,-19.58 0.3,-39.16 0.39,-58.75 -13.53,-2.6 -27.06,-5.29 -40.68,-7.29zm-0.82 110.93l0 0c0.3,22.58 -0.79,45.19 -0.36,67.77 13.29,2.27 26.63,4.45 40.04,6.12 0.85,-22.34 0.55,-44.71 0.25,-67.05 -13.14,-3.12 -26.49,-5.38 -39.93,-6.84zm-901.15 -127.85c17.04,-1.94 29.09,14.77 31.24,30.02 3.87,27.76 1.09,55.94 2.15,83.88 1.54,31.23 -0.12,62.53 1.27,93.8 0.73,21.88 -2.12,46.28 -18.4,62.5 -14.62,15.14 -37.14,14.71 -56.21,19.59 -19.28,3.15 -38.11,10.44 -57.78,10.29 -16.32,-0.88 -26.79,-16.77 -27.85,-31.87 -2.79,-34.24 -1,-68.59 -1.73,-102.86 -0.9,-24.3 -0.9,-48.64 -0.51,-72.91 0.51,-25.97 14.59,-52.82 38.96,-63.66 19.09,-7.96 38.95,-13.83 58.47,-20.49 9.99,-3.18 19.92,-7.05 30.39,-8.29zm-65.5 74.46l0 0c-0.54,55.27 0.49,110.57 1.24,165.84 12.02,-2.76 24.01,-5.66 35.99,-8.6 0.06,-56.18 -1.36,-112.35 -1.06,-168.53 -12.13,3.45 -24.21,7.2 -36.17,11.29zm1288.62 -18.65c19.88,5.85 38.2,15.77 57.23,23.85 14.23,6.9 29.15,12.63 42.65,20.92 4.66,12.14 4.69,25.49 7.14,38.2 9.54,56.78 17.59,113.9 28.67,170.41 4.87,1.6 9.72,3.3 14.59,4.96 1.12,15.14 1,30.36 0.21,45.53 -24.21,-7.21 -48.64,-14.05 -72.43,-22.49 -7.27,-19.86 -3.69,-42.5 -9.48,-62.96 -13.28,-6.3 -27.63,-10.08 -41.89,-13.38 -2.42,19.98 -4.84,39.96 -7.08,59.96 -24.58,-4.23 -48.31,-12.17 -72.77,-16.92 -1.27,-17.64 -0.81,-35.32 -0.39,-53 5.84,0.85 11.72,1.64 17.59,2.27 11.26,-65.92 24.09,-131.54 35.96,-197.35zm48.58 60.12l0 0c-4.06,15.8 -5.66,32.08 -8.54,48.12 -2.78,18.1 -6.9,36.08 -7.69,54.45 11.05,3.58 22.01,7.45 33.15,10.81 -2.48,-29.09 -7.42,-57.9 -10.69,-86.9 -1.27,-8.99 -1.15,-18.61 -6.23,-26.48zm-845.79 894.4c3.42,0.27 6.87,0.54 10.29,0.87 5.66,17.83 12.44,35.75 24,50.64 1,-12.71 1.91,-25.45 4.36,-38.01 20.92,-1.67 42.26,3.2 59.81,14.83 8.39,4.48 15.71,12.26 25.43,13.34 12.2,-4.93 19.97,-16.79 31.72,-22.73 17.95,-11.01 40.19,-9.56 59.72,-4.14 2.03,12.1 2.96,24.36 4.11,36.56 11.81,-15.07 18.35,-33.33 23.83,-51.46 3.63,-0.36 7.29,-0.66 10.95,-0.9 -4.78,17.98 -12.53,35.05 -16.77,53.18 -4.42,15.86 -2.72,34.66 -16.16,46.55 -7.51,-18.86 -12.65,-39.47 -26.09,-55.24 -1.42,9.69 -1.18,19.65 -3.69,29.15 -8.39,10.99 -20.19,18.71 -30.51,27.73 -2.55,-2.73 -5.06,-5.42 -7.57,-8.12 -2.73,4.54 -5.24,9.21 -7.81,13.84 -0.7,0.9 -2.06,2.72 -2.72,3.63 -8.12,2.94 -12.81,10.68 -18.74,16.43 -10.17,-10.83 -19.1,-22.76 -29.48,-33.38 -1.61,4.27 -3.18,8.54 -4.78,12.83 -9.84,-11.08 -20.43,-21.76 -28.18,-34.44 -2.43,-8.96 -1.91,-18.38 -2.91,-27.52 -13.08,12.56 -17.13,31.15 -23.85,47.37 -7.99,-10.95 -11.29,-24.15 -13.14,-37.35 -2.87,-19.55 -16.34,-35.02 -21.82,-53.66zm-137.45 -75.74c28,-12.31 57.69,-20.97 88.14,-24.48 5.96,8.14 10.29,18.52 19.86,23.18 5.36,2.76 11.05,4.79 16.67,6.96 -13.16,21.92 -19.67,48.8 -12.59,73.89 6.33,21.28 22.04,38.47 27.28,60.23 7.96,27.79 -6.21,55.76 -2.34,83.79 2.15,15.86 15.02,30.14 31.15,32.41 16.86,2.49 33.6,-2.36 49.76,-6.53 29.06,-8.03 59.81,-6.78 89.32,-2.15 20.68,3.6 42.35,10.38 63.14,3.6 9.54,-2.76 16.68,-10.69 19.68,-20.01 10.23,-28.66 4.27,-59.51 7.26,-89.14 1.61,-17.74 9.42,-33.99 18.07,-49.28 14.77,-28.12 7.87,-62.41 -7.65,-88.68 6.75,-2.12 13.86,-3.76 19.79,-7.81 5.72,-4.87 7.87,-12.68 13.47,-17.62 29.3,3.45 57.72,13.78 84.06,26.88 -32.42,39.99 -45.26,90.9 -57.36,139.81 -7.18,30.97 -15.17,61.84 -26.46,91.59 -7.96,20.37 -20.13,39.81 -38.14,52.7 -17.31,12.71 -38.83,18.37 -60.02,19.79 -54.66,3.06 -110.57,10.99 -164.48,-2.84 -32.5,-7.57 -62.92,-26.42 -81.09,-54.85 -20.73,-32.5 -28.93,-70.85 -37.83,-107.81 -9.35,-37.05 -18.53,-74.7 -36.57,-108.67 -6.44,-12.47 -15.52,-23.21 -23.12,-34.96zm526.7 -499.67c23.73,-15.4 56.6,-16.25 80.42,-0.51 16.05,10.56 31.88,21.85 50.4,27.79 -18.65,17.28 -44.62,23.45 -69.28,25.3 -8.72,1.6 -14.08,-6.54 -19.83,-11.47 -13.65,-13.96 -29.15,-26.09 -41.71,-41.11zm-596.2 -13.22c17.59,-3.09 36.9,-2.39 52.85,6.38 2.48,1.58 9.17,4.76 4.82,8.18 -16.47,16.31 -33.15,32.69 -50.98,47.46 -11.95,1.99 -24.18,-1.06 -35.89,-3.45 -15.5,-4.18 -31.85,-9.54 -42.78,-22.01 26.88,-6.45 45.59,-29.36 71.98,-36.56zm127.86 42.19l0 0c6.78,21.46 22.15,39.62 41.47,50.97 14.95,9.81 32.66,13.53 48.85,20.53 6.81,7.99 10.41,18.13 15.28,27.3 8.03,17.04 20.19,31.69 33.39,44.95 -1.06,-24.34 -2.94,-48.65 -4.12,-72.98 -0.69,-4.51 0.12,-9.69 -2.57,-13.62 -14.07,-6.57 -28.88,-11.53 -43.07,-17.83 -30.24,-12.02 -59.02,-27.3 -89.23,-39.32zm270.42 56.82l0 0c-3.12,28.9 -4.27,58.05 -5.54,87.08 8.23,-7.84 15.31,-16.74 22,-25.91 9.75,-13.26 15.07,-29.06 23.76,-42.95 3.48,-6.45 11.84,-6.54 17.89,-9.17 32.75,-9.69 64.99,-31.64 75.09,-65.87 -44.46,18.71 -87.62,40.74 -133.2,56.82zm-110.51 97.97l0 0c10.56,4.15 21.09,0.49 31.32,-2.66 13.17,-4.15 26,2.24 38.75,4.66 5.57,-1.09 10.68,-3.75 15.92,-5.84 -24.25,-19.46 -64.99,-21.04 -85.99,3.84zm-128.43 224.72l0 0c0.09,4.72 0.15,9.47 0.18,14.22 1.97,0.18 5.9,0.52 7.9,0.7 0.15,-4.06 0.3,-8.11 0.42,-12.14 -2.84,-0.94 -5.66,-1.88 -8.5,-2.78zm325.87 14.43l0 0c2.17,0 6.53,0.06 8.71,0.09 -0.09,-5.14 -0.18,-10.29 -0.3,-15.37 -7.02,2.33 -8.9,8.38 -8.41,15.28zm-302.51 10.78l0 0c0,5.02 0.06,10.02 0.16,15.04 2.27,-0.45 6.77,-1.33 9.04,-1.78 -0.6,-6.09 -2.87,-11.38 -9.2,-13.26zm279.56 8.05l0 0c-0.54,4.93 4.72,6.45 8.33,7.9 0.15,-5.36 0.24,-10.68 0.27,-16.01 -3.09,2.09 -9.23,3.18 -8.6,8.11zm-258.04 18.43l0 0c0.03,5 0.07,9.99 0.07,14.99 2.05,-0.18 6.17,-0.55 8.23,-0.73 -0.18,-3.54 -0.34,-7.05 -0.49,-10.56 -2.6,-1.24 -5.2,-2.49 -7.81,-3.7zm236.13 4.15l0 0c1.36,5.18 1.48,12.41 8.81,11.69 0.18,-5.33 0.33,-10.63 0.48,-15.96 -3.12,1.43 -6.21,2.85 -9.29,4.27z"/>
  </g>
 </g>
</svg>
