<?xml version="1.0" encoding="UTF-8"?>
<!DOCTYPE svg PUBLIC "-//W3C//DTD SVG 1.1//EN" "http://www.w3.org/Graphics/SVG/1.1/DTD/svg11.dtd">
<!-- Creator: CorelDRAW -->
<svg xmlns="http://www.w3.org/2000/svg" xml:space="preserve" width="2000px" height="1600px" version="1.1" style="shape-rendering:geometricPrecision; text-rendering:geometricPrecision; image-rendering:optimizeQuality; fill-rule:evenodd; clip-rule:evenodd"
viewBox="0 0 2000 1600"
 xmlns:xlink="http://www.w3.org/1999/xlink">
 <defs>
  <style type="text/css">
   <![CDATA[
    .fil1 {fill:#001F61;fill-rule:nonzero}
    .fil2 {fill:#FCC403;fill-rule:nonzero}
    .fil0 {fill:#FDFDFD;fill-rule:nonzero}
   ]]>
  </style>
 </defs>
 <g id="Capa_x0020_1">
  <metadata id="CorelCorpID_0Corel-Layer"/>
  <g id="Coppin_x0020_State_x0020_Eagles.cdr">
   <path class="fil0" d="M320.35 400.73c5.98,-0.03 11.96,0.03 17.94,0.19 0.39,4.28 0.74,8.59 1.06,12.86 -6.65,-3.85 -13.05,-8.2 -19,-13.05zm962 695.02c15.33,1.64 30.76,3.15 45.81,6.82 5.34,9.61 3.66,20.28 0.1,30.19 -14.83,-12.96 -30.06,-25.37 -45.91,-37.01zm400.13 -567.1c8.04,-11.92 19.29,-21.12 28.52,-32.08 -0.03,7.01 -0.03,14.02 0,21.03 -9.29,4.21 -18.58,8.55 -28.52,11.05z"/>
   <path class="fil1" d="M1415.45 649.12c26.87,-14.5 48.61,-43.63 81.69,-42.57 6.91,-0.03 18.65,-0.61 18.68,9.17 -0.07,14.02 -17.2,18.48 -26.56,25.94 0.32,6.56 1.9,13.41 -0.38,19.78 -9.33,5.75 -20.64,6.2 -31.25,7.29 -0.2,5.18 -0.32,10.36 -0.61,15.53 -10.2,2.9 -20.64,4.63 -31.12,6.01 1.35,5.5 2.44,11.03 3.4,16.63 -10.58,4.69 -21.92,7.13 -33.43,7.74 2.28,5.28 4.69,10.55 6.2,16.14 -13.6,12.29 -33.66,9.46 -50.57,11.29 -0.55,6.43 2.99,15.4 -3.54,19.61 -10.32,6.3 -22.57,8.1 -34.08,11.12 -2.76,5.85 -5.53,11.67 -8.42,17.43 -17.78,5.01 -36.52,4.02 -54.46,0.32 -6.72,-0.39 -10.84,-6.2 -15.02,-10.71 36.78,-38.22 83.82,-63.81 128.19,-91.85 16.97,-13.15 31.89,-29.06 51.28,-38.87zm-493.09 455.73c1.8,0.13 5.4,0.42 7.2,0.55 3.28,10.7 8.43,20.64 14.34,30.12 -17.55,3.18 -22.18,-17.33 -21.54,-30.67zm40.74 -3.18c1.99,0 6.01,0.06 8,0.09 0.61,6.72 1.35,13.51 3.89,19.84 6.94,1.12 12.02,-4.98 17.84,-7.78 1.71,6.56 3.31,13.21 5.66,19.64 5.53,2.19 9.07,-5.66 13.57,-7.84 3.82,11.09 9.23,21.44 15.4,31.38 -3.44,-0.1 -6.85,-0.2 -10.26,-0.29 -5.94,-11.13 -18.71,-13.34 -28.03,-20.42 -7.11,-5.34 -18.33,-3.89 -23.28,-12.18 -5.14,-6.5 -3.63,-14.89 -2.79,-22.44zm-72.05 -9.07c1.76,-0.03 5.33,-0.13 7.1,-0.19 -0.06,11.12 -0.22,22.21 0.42,33.34 -1.9,-0.23 -5.72,-0.71 -7.65,-0.94 -3.31,-10.54 -2.48,-21.6 0.13,-32.21zm279.32 -16.59c11.96,-0.42 23.88,0.96 35.46,4.12 0.38,1.83 1.19,5.46 1.57,7.26 -12.44,-0.42 -24.85,-1.83 -37.03,-4.21 0,-1.8 0,-5.37 0,-7.17zm-10.03 -22.86c12.47,-0.09 24.88,1.96 36.45,6.69 0.07,1.99 0.16,6.01 0.23,8 -11.93,-1.54 -23.44,-5.04 -35.04,-8.07 -0.42,-1.63 -1.23,-4.98 -1.64,-6.62zm28.83 -58.48c9.39,2.22 17.91,6.78 26.14,11.7 0.23,1.77 0.64,5.28 0.87,7.01 -9.97,0.16 -18.1,-5.53 -25.95,-10.9 -0.25,-1.96 -0.8,-5.85 -1.06,-7.81zm15.92 -15.75c12.02,3.7 23.11,9.8 33.37,17.07 0.13,2.02 0.39,6.08 0.55,8.1 -13.09,-4.05 -24.66,-11.48 -36.82,-17.52 0.97,-2.54 1.93,-5.11 2.9,-7.65zm-567.68 -313.79c3.86,-5.88 11.51,-15.08 19,-9.45 -3.92,5.47 -7.78,10.93 -11.12,16.75 13.15,8.62 29.1,9.39 44.17,11.77 -0.06,1.86 -0.19,5.56 -0.25,7.42 -12.64,3.96 -30,2.29 -37.62,15.18 17.88,7.88 37.59,6.88 56.65,6.88 0.03,1.74 0.07,5.14 0.07,6.85 -10.74,3.89 -22.48,5.91 -31.86,12.79 -0.52,2.74 -0.94,5.47 -1.19,8.23 11.44,6.11 23.62,10.68 36.23,13.73 0.06,1.71 0.19,5.11 0.22,6.82 -12.92,2.99 -28.48,2.18 -37.23,14.01 10.93,14.89 31.61,9.84 47.52,10.71 -0.19,1.77 -0.55,5.27 -0.71,7.01 -7.39,2.28 -15.04,4.02 -21.99,7.52 -3.24,3.06 -2.79,10.07 1.74,11.99 9.77,6.69 22.34,5.18 33.6,6.05 -0.36,1.48 -1,4.44 -1.32,5.91 -6.88,4.22 -13.28,9.17 -19.07,14.76 1.48,3.54 2.96,7.07 4.41,10.64 15.24,2.64 30.6,-0.06 45.91,-0.06 -4.66,11.7 -20.55,10.35 -27.72,19.96 -0.48,3.28 -0.8,6.63 -0.96,9.97 9.64,3.38 19.87,2.93 29.9,2.09 -2.99,6.56 -5.88,13.21 -7.46,20.29 10.77,1.09 21.54,0.29 32.28,-0.68 -3.34,8.42 -7.4,17.01 -5.76,26.33 8.59,0.16 17.04,-1.16 25.44,-2.96 1.09,9.33 -4.63,23.7 6.91,28.23 11.76,7.08 24.69,-3.28 36.97,1.39 -9.29,11.63 -25.98,11.38 -38.93,7.58 -10.42,-3.6 -15.31,-13.79 -18.07,-23.69 -5.79,-1.51 -11.74,-2.73 -17.11,-5.44 -6.33,-3.76 -5.85,-12.15 -8,-18.35 -6.21,-1.9 -12.64,-3.35 -18.33,-6.53 -4.47,-3.89 -5.2,-10.13 -7.36,-15.3 -6.46,-2.93 -14.11,-4.57 -18.74,-10.36 -1.96,-7 -0.39,-14.3 -0.03,-21.41 -7.5,-3.02 -17.08,-4.76 -20.77,-12.92 -5.05,-7.07 1.64,-14.69 4.21,-21.38 -7.62,-3.15 -15.69,-6.01 -21.67,-11.93 -2.32,-6.53 -1.13,-13.53 -0.84,-20.25 -7.78,-3.25 -17.42,-5.21 -21.76,-13.25 -4.09,-12.18 8.93,-19.16 16.91,-25.43 -7.17,-5.92 -19.84,-10.61 -18.2,-21.86 0.84,-4.92 4.76,-8.46 7.46,-12.41 -9.74,-2.38 -20.06,-4.21 -28.39,-10.1 -5.27,-9.55 3.99,-17.13 9.87,-23.34 -8.1,-5.59 -21.54,-11.51 -17.01,-23.76zm943.42 -59.64c14.72,-1.35 30.12,-4.53 44.56,0.45 2.02,12.61 -9.33,18.97 -16.11,27.43 -2.19,7.55 -4.18,15.24 -7.27,22.54 2.25,4.5 4.6,9 6.01,13.88 -6.84,15.66 -24.53,20.13 -39.31,24.63 3.47,2.7 6.94,5.47 10.41,8.23 -1.38,3.18 -2.73,6.34 -4.08,9.52 -13.95,3.12 -28.04,5.69 -42.21,7.3 5.81,2.21 12.12,3.92 16.71,8.36 2.64,4.98 -4.46,8.13 -8.07,9.64 -11.7,3.28 -24.01,3.83 -36.1,4.66 0.03,5.05 0.71,10.29 -0.97,15.18 -14.56,6.43 -30.99,5.91 -46.55,7.17 -1.77,4.3 -3.34,8.71 -5.88,12.6 -14.05,2.28 -28.32,0.58 -42.47,0.58 -3.38,6.2 -6.08,13.79 -13.09,16.78 -13.63,7.23 -29.45,4.41 -44.24,5.11 -1.7,8.23 -5.4,16.91 -14.14,19.58 -21.38,9.07 -45.14,6.5 -67.74,6.5 -0.07,-1.77 -0.19,-5.31 -0.26,-7.08 23.25,-4.88 50.8,3.89 70.67,-12.41 1.15,-6.17 0.9,-12.47 1.28,-18.71 18.49,1.9 38.52,7.33 55.56,-3.28 -2.44,-5.72 -5.56,-11.09 -8.65,-16.46 17.94,-1.48 35.85,1.83 53.85,0.84 -6.27,-4.09 -12.63,-8.04 -18.71,-12.35 9.45,-6.75 20.9,-1.89 31.41,-1.7 12.28,0.54 25.27,1.54 36.59,-4.21 -15.31,-8.39 -34.76,-3.44 -49.22,-12.93 9.32,-6.81 21.18,-3.47 31.86,-4.11 18.29,-0.58 37.07,1.35 54.97,-3.35 -21.67,-6.39 -44.36,-6.65 -66.55,-10.06 0.03,-1.74 0.07,-5.24 0.07,-7.01 33.92,-1.51 68.19,-1.06 101.69,-7.2 -25.76,-7.65 -53.11,-5.69 -79.61,-8.29 0,-1.68 0.07,-5.05 0.07,-6.72 16.65,-3.61 33.66,-2.29 50.47,-0.81 20.68,-1.73 42.92,-4.37 59.93,-17.33 0.07,-2.06 0.23,-6.23 0.29,-8.32 -33.53,3.28 -66.45,20.38 -100.56,10.44 -0.16,-1.92 -0.49,-5.81 -0.65,-7.78 14.73,1.26 29.77,3.06 44.43,-0.12 13.57,-2.87 27.04,-6.34 40.77,-8.65 7.88,-1.55 12.64,-9 16.3,-15.5 -25.53,-0.54 -52.24,13.38 -76.84,1.77 7.91,-7.59 19.32,-4.44 29.16,-5.18 24.92,-0.06 51.28,-6.46 68,-26.3 -21.38,-0.09 -43.24,0.29 -63.79,6.92 -4.18,1.6 -8.61,1.44 -12.5,-0.77 9.74,-12.29 26.42,-11.58 40.51,-13.48zm-1575.81 -302.5c45.33,-51.44 89.7,-103.71 135.48,-154.77 151.78,0.2 303.6,-0.54 455.41,0.36 0.42,100.88 0.09,201.8 0.16,302.69 0.26,6.24 -0.77,12.67 1,18.78 9.93,9.51 20.54,18.74 32.6,25.52 0.29,-58.77 0.06,-117.57 0.09,-176.37 0.48,-4.5 -0.83,-9.84 2.19,-13.67 44.27,-50.83 88.64,-101.56 132.97,-152.36 2.83,-3.73 7.2,-5.62 11.9,-5.01 149.4,0.06 298.8,0 448.2,0.03 0.61,113.23 0.16,226.5 0.29,339.73 -75.17,-0.22 -150.37,0.87 -225.5,-0.51 -0.03,-28.91 0.77,-57.81 -0.35,-86.65 -48.61,0.04 -97.23,-0.06 -145.84,0.04 -0.74,90.91 -0.38,181.9 -0.16,272.82 74.27,0.32 148.54,0.23 222.8,0.03 4.25,0.36 9.55,-0.87 12.7,2.86 40.83,40.54 79.48,83.21 120.37,123.72 5.4,5.46 11.58,10.54 15.24,17.45 0.8,47.65 -0.29,95.36 0.45,143.01 21.06,12.73 43.72,22.6 64.59,35.62 18.42,12.89 34.31,30.77 41.12,52.5 1.7,5.44 5.08,10.07 9,14.18 1.42,-29.19 0.07,-58.45 0.58,-87.67 -0.42,-24.44 0.9,-48.94 -0.8,-73.34 -5.98,0 -11.93,0.03 -17.88,0.2 -3.89,5.78 -7.07,12.4 -12.86,16.58 -8.32,4.18 -17.97,3 -26.87,4.41 -9.33,4.98 -14.41,17.1 -26.27,16.85 0.55,-1.42 1.61,-4.25 2.12,-5.66 3.21,-5.21 6.98,-10.07 10.67,-14.95 -3.69,-2.12 -7.39,-4.21 -11.02,-6.3 0.03,-2.25 0.09,-6.75 0.16,-9.01 14.24,7.85 31.18,12.9 47.13,6.95 2.92,-3.96 4.18,-8.81 5.75,-13.37 -8.93,-3.57 -17.78,-7.56 -25.52,-13.35 18.03,-4.95 33.47,10.61 51.41,8.49 6.23,-0.8 10.06,-6.49 14.49,-10.38 -10.86,-5.41 -23.3,-8.97 -31.15,-18.81 22.02,-2.51 39.03,18.13 61.34,14.27 10.07,0.74 16.59,-7.01 16.56,-16.56 -15.72,-5.23 -32.54,-8.48 -46.17,-18.42 11.83,-5.69 23.63,2.54 34.98,5.53 16.95,5.95 40.64,7.33 50.13,-11.31 -14.25,-4.18 -28.88,-7.27 -42.67,-12.8 -4.56,-1.41 -7.14,-5.59 -10.06,-8.97 19.9,0.06 37.87,10.09 57.42,12.64 18.1,2.31 40.67,4.85 53.21,-11.55 -12.99,-6.78 -26.59,-12.37 -40.38,-17.26 -0.29,-2.16 -0.9,-6.46 -1.23,-8.62 18.62,2.41 34.08,13.8 51.7,19.13 14.4,1.48 29.64,1.83 43.66,-2.47 6.21,-1.58 8.59,-7.85 10.8,-13.12 -15.88,-2.86 -32.18,-4.95 -46.9,-12.03 4.92,-3.24 10.7,-4.69 16.49,-2.86 19.87,3.73 39.8,7.11 59.64,10.87 13.4,2.54 26.46,-2.12 38,-8.62 -28.58,-8.61 -59.29,-9.45 -86.71,-21.73 2.38,-1.03 7.14,-3.12 9.52,-4.15 39.09,6.59 78.12,22.03 118.28,14.7 10.25,-3.19 18.19,-10.81 26.49,-17.24 -35.95,-4.34 -72.37,-4.08 -107.96,-10.96 -0.19,-1.74 -0.58,-5.21 -0.74,-6.94 28.07,0.54 55.88,5.24 83.94,6.62 18.78,0.42 37.46,5.72 56.27,3.15 15.14,-4.05 29.16,-12.38 39.57,-24.21 -20.57,-2.25 -41.34,-0.32 -61.92,-2.31 -25.3,-2.83 -50.89,-0.55 -76.03,-4.96 -0.13,-1.8 -0.36,-5.4 -0.45,-7.17 48.93,1.03 97.83,5.95 146.79,3.57 10.55,-2.47 18.91,-10.12 28.43,-14.98 12.6,-7.62 28.09,-11.38 37.16,-23.82 -23.15,1.09 -44.91,10.19 -67.8,12.99 -23.47,4.66 -47.49,3.28 -71.15,5.98 -17.94,1.28 -35.53,5.24 -53.34,7.52 0,-1.87 0.07,-5.59 0.1,-7.46 39.73,-12.12 81.88,-7.81 122.49,-14.72 22.12,-3.99 44.01,-9.17 65.81,-14.73 18.33,-3.95 32.5,-19.06 39.22,-36.04 -15.98,2.44 -29.32,11.9 -43.59,18.68 -20.35,9.84 -41.48,18.49 -63.5,23.79 -5.53,2.35 -10.64,-1.09 -15.56,-3.12 27.39,-11.67 57.03,-17.87 83.17,-32.73 26.56,-11.22 45.27,-38.9 44.24,-67.9 -17.01,8.91 -30.93,22.32 -46.26,33.66 -19.36,15.28 -40.38,28.23 -60.48,42.48 -16.23,10.38 -34.11,20.67 -54.01,20.35 4.37,-8.4 13.92,-10.65 21.96,-14.05 23.57,-8.88 42.5,-26.05 63.69,-39.13 27.13,-19.71 53.59,-40.45 79.28,-61.99 12.57,-10.09 19.07,-25.62 18.29,-41.63 -45.71,34.5 -88.89,73.05 -139.66,100.21 -22.28,11.61 -42.72,26.56 -65.58,37.01 -5.82,3.24 -12.57,2.6 -18.87,2.02 13.5,-12.7 31.57,-18.23 46.97,-28.03 29,-18.23 60.38,-32.76 87.48,-53.98 27.42,-20.74 54.97,-41.41 81.15,-63.76 9.99,-7.84 14.14,-20.12 18.06,-31.7 -19.32,1.13 -36.33,11.03 -53.3,19.29 -15.85,8.4 -32.44,15.82 -46.46,27.2 -24.82,20.55 -51.31,39.03 -78.06,56.97 -17.36,12.09 -39.12,15.08 -56.74,26.69 -6.85,4.34 -14.02,8.26 -21.74,10.83 2.7,-5.56 5.02,-11.8 10.42,-15.37 19.06,-14.01 43.59,-17 63.17,-30.09 21.19,-13.95 41.8,-28.87 62.02,-44.17 15.14,-11.19 29.29,-24.56 37.46,-41.83 -20.29,5.4 -37.91,17.23 -56.94,25.69 -29.45,13.31 -58.22,28.29 -88.67,39.25 -31.15,10.61 -57.04,32.06 -87.26,44.69 -4.79,1.61 -9.93,1.51 -14.88,1.96 2.47,-2.92 4.66,-6.2 7.84,-8.39 29.42,-17.3 63.5,-28.93 86.45,-55.33 16.82,-17.75 34.31,-35.56 45.3,-57.68 -18.26,9.17 -35.04,20.97 -53.3,30.1 -22.63,11.38 -45.2,22.95 -66.26,37.07 -24.05,16.49 -50.16,29.54 -76.04,42.79 -10.25,6.2 -23.37,1.38 -33.18,8.36 -31.34,20.48 -60.76,45.01 -96.25,58.12 -46.01,18.97 -92.82,36.11 -141.11,48.36 -27.23,6.2 -49.9,23.05 -73.91,36.3 -1.13,-2.8 -2.19,-5.6 -3.22,-8.4 19.58,-11.12 37.88,-25.07 59.38,-32.37 34.6,-10 69.7,-18.71 103.27,-31.99 1.06,-7.11 1.54,-14.28 1.45,-21.48 -0.39,-76.87 0.38,-153.77 -0.36,-230.67 -22.73,-0.42 -45.49,0.54 -68.19,-0.65 -1.03,-61.15 -0.13,-122.3 -0.45,-183.44 0.32,-22.67 -0.74,-45.37 0.74,-68.04 110.98,-0.54 222.03,-0.7 333.01,0.1 0.32,83.59 0.13,167.21 0.07,250.84 -13.7,1.67 -27.52,1.06 -41.25,1.12 -0.52,47.04 -0.58,94.11 -0.03,141.14 21.7,-9.81 40.02,-25.37 60.98,-36.52 28.65,-16.11 60.09,-28.17 85.84,-48.87 0.58,-18.55 -0.03,-37.13 0.29,-55.72 -15.2,-0.12 -30.41,0.29 -45.62,-0.54 -0.03,-83.82 -0.16,-167.67 0.1,-251.48 111.4,-0.9 222.86,-0.32 334.3,-0.29 0.16,84.01 0.38,168.05 -0.1,252.06 -21.32,0.45 -42.63,0 -63.95,0.29 0.26,293.4 -0.06,586.8 0.16,880.23 2.29,13.76 -11.28,21.54 -18.26,31.45 -38.96,44.56 -77.86,89.15 -116.64,133.84 -3.31,4.5 -8.97,5.88 -14.27,5.62 -98.7,0.07 -197.4,-0.16 -296.1,0.1 -6.47,-0.23 -14.41,1.41 -18.81,-4.63 -39.93,-46.94 -79.16,-94.52 -119.38,-141.23 -7.42,7 -12.86,15.62 -17.39,24.69 -1.57,-0.16 -4.66,-0.52 -6.2,-0.71 -0.58,-10.39 -0.71,-20.8 -2.13,-31.09 -10.83,6.46 -18.06,16.97 -26.46,26.07 -6.2,-5.69 -3.18,-14.24 -3.89,-21.57 -0.61,-16.46 -12.08,-29.87 -23.56,-40.54 -9.1,0.29 -18.17,0.1 -27.23,-0.19 -4.18,5.98 -9.26,11.89 -10.29,19.38 -1.25,9.36 0.87,18.75 1,28.13 -7.17,-1.47 -13.06,-5.78 -18.65,-10.22 -41.83,49.32 -84.14,98.22 -125.77,147.7 -3.86,4.27 -10.42,3.79 -15.66,4.15 -132.97,-0.13 -265.94,0 -398.88,-0.07 -15.86,-0.16 -31.74,0.74 -47.49,-1.06 -0.1,-68.48 -0.13,-136.96 0,-205.44 0.03,-6.11 -0.64,-12.12 -1.42,-18.13 -10.57,2.92 -21.66,4.5 -32.18,0.45 -1.09,21.31 1.29,42.89 -1.16,64.07 -42.11,50.99 -85.93,100.54 -128.24,151.37 -4.05,5.66 -10.32,9.61 -17.56,8.77 -100.85,-0.06 -201.74,0.1 -302.62,-0.09 -8.04,0.48 -12.45,-7.08 -17.43,-12 -41.41,-48.45 -83.72,-96.16 -125.48,-144.35 -3.34,-2.83 -3.54,-7.23 -3.54,-11.25 -0.09,-318.35 0.07,-636.67 -0.09,-955.02 0.64,-8.74 -2.51,-19.42 4.88,-26.11zm441.74 23.67l0 0c-4.5,5.75 -2.73,13.56 -1.89,20.22 5.66,31.73 25.78,58 44.07,83.59 13.93,20.32 35.18,33.5 52.15,50.93 16.78,16.84 36.91,29.61 56.3,43.14 19.67,14.66 39.32,29.39 59.09,43.92 23.4,17.04 42.76,38.77 62.56,59.7 26.78,29.19 52.89,59.19 74.82,92.27 17.36,26.14 29.83,55.07 42.05,83.85 10.8,26.14 21.73,52.31 28.97,79.7 3.85,15.82 6.46,32.28 14.66,46.58 6.2,11.84 17.74,20.29 30.54,23.79 6.46,2.71 15.98,2.42 18.39,10.52 -21.16,2.47 -42.25,-8.42 -54.53,-25.4 -7.1,-10.35 -11.02,-22.51 -13.98,-34.63 -9.84,-47.39 -30.13,-91.72 -50,-135.61 -21.79,-49.09 -57.58,-89.89 -92.85,-129.69 -12.89,-13.79 -26.26,-27.17 -39.48,-40.67 -18.26,-18.61 -40.28,-32.82 -60.92,-48.54 -12.8,-10.55 -26.2,-21.48 -42.44,-26.14 -4.76,-1.19 -8.49,3.15 -12.6,4.69 1.57,13.86 12.34,23.47 23.15,30.9 5.11,4.18 14.79,8.39 10.19,16.55 -12.77,-5.66 -25.4,-13.14 -39.93,-11.89 3.44,19.71 25.56,26.84 40.67,36.04 0.16,1.99 0.45,6.01 0.58,8.04 -15.66,-4.63 -30.74,-12.77 -47.62,-11.26 1.29,4.28 2.29,9.1 6.34,11.74 13.76,11.03 31.53,15.21 45.65,25.72 -1.74,0.9 -5.21,2.67 -6.95,3.57 -15.78,-4.41 -31.34,-11.61 -48.22,-9.04 1.41,4.31 1.96,9.42 6.17,12.09 14.08,12.28 33.28,14.24 50.38,19.84 0.16,2.02 0.52,6.04 0.71,8.04 -14.95,-0.33 -29.19,-8.62 -44.24,-5.02 1,4.05 0.1,8.97 2.93,12.38 12.73,13.98 30.6,21.89 48.8,25.91 0.35,1.35 1,4.05 1.35,5.4 -17.65,5.08 -36.07,-5.98 -53.92,0.65 12.96,18.77 38.49,12.79 56.2,22.18 -13.79,8.74 -32.63,0.09 -44.59,13.12 15.66,21.28 45.59,15.81 68.38,20.57 0.1,1.74 0.23,5.21 0.29,6.91 -15.49,1.32 -32.05,0.39 -46.16,7.91 17.29,13.99 42.53,6.95 59.73,19.42 -14.66,4.53 -30.25,3.38 -44.95,7.59 9.23,16.01 30.48,16.4 46.62,20 0.2,1.86 0.55,5.65 0.74,7.55 -9.64,1.42 -19.74,1.55 -28.61,5.98 -0.97,3.02 -1.77,6.11 -2.38,9.26 13.79,10 30.99,9.04 47.16,8.52 -0.22,1.61 -0.67,4.86 -0.9,6.5 -5.59,2.08 -11.15,4.17 -16.68,6.33 0.16,1.61 0.42,4.85 0.57,6.46 12.29,4.21 24.86,0.87 37.46,1.06 -3.09,12.77 -20.29,10.9 -26.94,21.25 14.15,2.9 28.58,3.31 42.89,5.02 -5.79,7.1 -13.19,12.63 -19.04,19.64 0.23,1.19 0.71,3.6 0.94,4.82 11.99,1.52 24.08,-0.38 36.1,0.42 -1.61,5.63 -3.25,11.25 -4.66,16.95 10.22,5.11 21.48,3.73 32.41,2.41 0.25,7.36 0.38,14.75 0.74,22.12 13.47,1.93 26.91,-0.52 40.38,-0.94 -1.9,3.32 -3.25,7.5 -7.59,8.14 -10.32,3.57 -21.83,3.69 -32.44,1.41 -8.52,-2.28 -10.9,-11.41 -13.12,-18.77 -7.59,-1.77 -15.94,-1.67 -22.79,-5.73 -4.73,-4.37 -6.88,-10.77 -11.29,-15.4 -11.25,-0.67 -25.11,0.46 -30.76,-11.76 2.44,-5.66 4.85,-11.29 7.33,-16.91 -10.29,-0.61 -20.52,-2.51 -29.97,-6.75 0.29,-5.05 0.61,-10.1 1,-15.15 -7.72,-5.56 -13.54,-13.24 -14.73,-22.89 -10.41,-3.63 -24.17,-6.69 -26.97,-19.19 1.77,-6.62 5.98,-12.09 9.77,-17.65 -8.23,-4.47 -17.94,-7.91 -23.08,-16.27 -2.86,-6.72 2.83,-12.25 6.53,-17.14 -8.14,-2.79 -16.85,-5.17 -23.18,-11.35 -2.13,-6.78 2.92,-12.18 6.62,-17.16 -10.9,-3.93 -24.18,-8.17 -28.33,-20.29 -1.47,-7.33 5.25,-11.99 9.33,-17.01 -10.48,-5.4 -22.92,-12.63 -20.39,-26.49 6.11,-2.51 12.26,-4.89 18.49,-7.17 -7.07,-8.36 -17.42,-15.08 -20.12,-26.23 0.83,-5.44 2.47,-10.65 3.82,-15.95 -5.56,-5.82 -14.43,-10.58 -15.05,-19.42 -1.28,-6.91 5.28,-11.22 8.14,-16.72 -1.22,-7.84 -5.76,-14.72 -8.17,-22.21 5.76,-3.25 11.71,-6.17 17.88,-8.62 -3.57,-6.56 -6.88,-13.21 -10,-19.96 0.71,-2.03 2.06,-6.14 2.76,-8.2 4.6,-1.93 9.23,-3.76 13.86,-5.56 -3.79,-8.39 -9.42,-17.01 -7.23,-26.66 2.02,-5.43 6.85,-9.16 10.48,-13.53 -13.73,-11.86 -28.94,-21.67 -45.53,-28.94 -39.96,-23.21 -79.12,-48.32 -113.94,-78.86 -23.69,-20.58 -46.97,-43.11 -60.47,-71.92 -2.83,7.97 -6.66,16.07 -5.5,24.79 1.83,19.1 7.01,37.65 12.41,56 2.38,10.52 13.25,14.92 20.8,21.22 36.3,28.1 72.37,56.62 110.5,82.27 6.75,4.38 13.22,9.13 19.36,14.37 -1.29,0.87 -3.86,2.64 -5.15,3.54 -9.29,-2.47 -17.07,-8.45 -24.95,-13.73 -30.12,-20.99 -59.57,-42.98 -88.25,-65.9 -14.69,-11.32 -29.06,-23.34 -45.65,-31.9 -23.66,-12.6 -42.31,-32.31 -60.83,-51.31 -12.38,-12.83 -20.57,-28.77 -30.51,-43.4 -6.43,26.04 5.63,51.02 15.66,74.3 6.94,18.58 25.33,28.39 39.51,40.76 54.85,45.82 110.76,91.44 174.25,124.87 4.51,1.9 7.46,5.63 8.65,10.36 -7.75,-0.49 -15.01,-3.15 -21.63,-6.98 -48.49,-25.72 -91.86,-59.77 -134.55,-93.88 -27.36,-21.89 -53.31,-45.59 -82.44,-65.13 -10.7,-7.43 -19.51,-17.08 -28.64,-26.24 -1.67,11.35 -3.5,23.41 0.61,34.47 12.54,31.95 41.12,53.37 65.59,76 56.35,48.74 124.32,81.4 192.64,109.82 0.16,1.71 0.51,5.08 0.67,6.76 -14.3,-0.2 -26.58,-8.07 -39.35,-13.41 -59.38,-25.88 -117.02,-57.65 -165.63,-100.92 -9.84,-8.33 -19.04,-17.39 -29.33,-25.17 -3.47,15.65 -2.89,33.43 7.85,46.26 8.49,17.1 25.3,26.65 40.64,36.72 51.47,33.11 107.6,58.32 164.8,79.82 12.73,5.21 27.36,7.05 37.81,16.82 -11.45,4.56 -22.77,-1.87 -33.47,-5.37 -56.17,-20.35 -110.89,-45.01 -162.17,-75.71 -12.63,-7.37 -23.98,-16.91 -37.48,-22.77 -3.96,23.09 17.87,36.59 30.67,52.09 13.31,16.84 34.88,21.86 53.46,30.35 12.28,5.37 19.94,18.39 33.54,21.15 43.08,11.45 86.32,22.76 130.36,30 0.07,1.67 0.23,5.05 0.29,6.75 -13.66,0.29 -27.2,-1.67 -40.41,-5.02 -30.41,-6.39 -60.31,-14.75 -90.34,-22.53 -8.3,-2.29 -16.94,-2.16 -25.43,-2.16 -15.34,0.55 -29.55,-6.17 -44.27,-9.35 2.31,10.03 11.7,15.08 19.67,20.15 9.58,5.73 19.26,11.8 30.29,14.18 43.4,7.65 86.84,15.44 130.66,20.51 10.74,0.74 21.92,-0.09 31.89,4.76 -1.77,1.29 -5.34,3.86 -7.14,5.15 -29.58,0.29 -58.7,-6.08 -87.99,-9.65 -22.35,-2.79 -44.14,-9.29 -66.65,-10.61 1.58,12.57 14.47,17.59 23.57,24.08 8.1,5.92 18.42,5.4 27.94,5.69 30.89,-0.03 60.89,8.33 91.27,12.9 11.7,1.8 23.69,2.92 34.72,7.58 -6.43,8.81 -17.3,3.93 -26.1,2.96 -37.65,-5.27 -74.85,-16.75 -113.24,-14.02 9.2,8.97 18.65,18.01 30.03,24.15 35.56,5.18 71.92,5.75 107.9,4.11 -0.1,1.8 -0.32,5.4 -0.42,7.21 -34.02,5.2 -68.1,-0.52 -102.24,0.06 10.58,12.15 25.24,20 39.9,26.11 25.82,2.21 50.25,-11.84 76.2,-9.55 4.56,0.41 6.65,3.21 6.33,8.32 -24.72,-0.48 -48.35,6.75 -72.37,11.19 0.03,1.58 0.1,4.76 0.13,6.34 7.68,7.39 14.88,16.58 25.91,18.93 20.03,6.34 41.15,7.07 61.95,5.47 -0.16,1.83 -0.48,5.56 -0.64,7.42 -22.15,6.66 -44.56,-0.61 -66.52,-3.98 0.36,11.41 9.36,19.32 18.04,25.43 20.38,4.05 41.28,4.31 61.98,3.57 -0.06,1.8 -0.22,5.43 -0.32,7.26 -20.51,6.3 -41.28,-1.54 -62.01,-0.61 -2.9,13.76 8.13,24.4 20.28,28.29 17.62,8.43 37.07,1.13 55.49,1.71 4.34,0.38 6.43,2.96 6.27,7.75 -12.83,1.44 -25.97,0.83 -38.29,5.3 4.92,6.43 10.71,13.18 19.13,14.79 15.27,1.03 30.83,-2.6 45.85,1.61 -9.1,9.26 -23.73,5.46 -35.4,8.26 0.22,3.38 0.45,6.75 0.64,10.16 24.15,9.45 47.75,-6.59 72.18,-4.66 -0.29,1.77 -0.9,5.3 -1.19,7.04 -15.59,2.47 -30.99,5.91 -46.17,10.38 -2.09,15.72 16.21,21.03 28.52,21.83 16.97,-2.99 33.4,-8.87 50.67,-10.22 -0.16,1.9 -0.42,5.72 -0.58,7.65 -13.63,3.73 -27.71,5.88 -40.93,11.12 11.7,7.3 25.82,8.17 39.23,7.43 10.77,-1.96 20.06,-8.23 29.7,-13.05 8.75,10.87 -10.13,14.79 -16.88,19.45 3.25,3.73 5.98,8.23 10.36,10.77 11.6,-1.32 21.02,-10.22 32.95,-10.96 -0.03,3.02 -0.07,6.04 -0.1,9.09 -7.01,2.29 -13.85,5.05 -20.64,7.88 2.32,7.36 5.95,15.59 12.93,19.42 13.85,-2.31 26.43,-14.53 41.02,-9.16 -4.73,4.02 -9.71,7.97 -15.62,10.06 -17.33,6.56 -34.24,14.31 -52.15,19.1 -39.39,10.8 -78.96,20.89 -118.96,29.22 -25.36,5.66 -51.53,9.78 -75.32,20.67 -5.47,3.06 -15.89,9.84 -9.88,16.72 8.36,8.78 21.77,15.21 33.99,11.35 28.77,-7.68 57.48,-15.78 86.13,-24.01 17.26,-4.76 34.01,-11.58 51.76,-14.47 -0.1,1.93 -0.35,5.79 -0.48,7.71 -46.4,16.75 -94.69,27.23 -141.66,42.02 -0.09,6.15 -0.8,12.38 0.42,18.46 8.88,12.05 26.43,9.8 39.61,12.92 23.76,-9.32 46.55,-21.12 70.54,-30.09 18.32,-6.65 35.75,-16.17 54.81,-20.61 1.55,1.13 4.63,3.35 6.18,4.47 -6.14,3.67 -12.51,7.01 -19.2,9.55 -32.82,12.67 -65.45,25.85 -97.35,40.67 -1.51,8.04 -7.1,18.23 0.16,25.01 11.29,7.65 25.82,1.45 38.07,-0.26 28.26,-21.15 57.29,-41.73 88.15,-59.15 4.06,-2.89 9.01,-1.83 13.38,-0.35 -10.61,11.79 -25.72,17.65 -38.52,26.58 -17.81,12.06 -36.91,22.77 -52.4,37.88 -5.31,5.14 0.51,11.92 5.33,14.78 11.64,10.07 31.8,8.72 41.61,-3.28 19,-20.67 40.54,-38.77 61.12,-57.83 7.42,-6.46 13.4,-16.11 24.04,-17.17 -1.06,3.86 -1.15,8.33 -4.34,11.22 -16.17,17.04 -34.59,31.7 -51.6,47.87 -7.65,7.01 -15.98,13.66 -21.12,22.89 16.17,8.55 36.33,7.88 51.89,-1.54 17.71,-21.7 34.01,-44.91 45.91,-70.38 5.59,-11.89 16.2,-20.22 22.83,-31.44 2.66,-7.14 -0.42,-14.89 -1.87,-21.99 -5.05,-0.48 -10.16,-0.52 -15.04,-1.77 -6.11,-2.57 -8.49,-9.19 -11.96,-14.27 -7.01,-1.35 -14.63,-1.61 -20.9,-5.28 -9.42,-10.48 -10.55,-28.77 0.26,-38.83 6.23,6.52 2.41,15.07 2.18,22.89 0.74,4.92 4.7,8.48 7.17,12.63 7.59,-5.01 14.08,-11.41 21.35,-16.81 1.09,10.19 -2.06,21.47 3.7,30.73 6.78,2.19 14.24,-0.41 21.31,-0.29 1.19,10.93 3.89,21.8 9.39,31.41 6.85,-3.76 13.28,-8.19 19.8,-12.44 5.44,10.58 12.64,20.71 24.05,25.37 3.12,-5.76 3.76,-14.92 11.9,-15.59 0.16,13.82 0.09,27.71 -0.42,41.53 -1.74,21.13 -17.04,38.62 -17.14,59.93 7.17,-0.54 15.76,1.8 22.03,-2.25 12.12,-21.67 21.05,-45.43 24.62,-70.09 3.32,0.55 7.33,0.39 8.72,4.25 6.81,11.6 15.52,23.63 29.48,26.88 5.27,-6.79 10.58,-13.57 15.75,-20.42 2.25,-0.16 6.82,-0.52 9.07,-0.68 -1.42,11.52 -13.38,17.66 -16.33,28.33 0.29,9.58 11.15,15.08 19.8,15.3 3.38,-9.93 7.36,-19.67 11.16,-29.45 3.18,-0.35 6.33,-0.67 9.51,-0.96 -3.41,16.46 -14.72,31.41 -10.9,48.93 6.79,-0.83 14.76,-0.77 19.87,-6.11 3.41,-5.05 4.57,-11.22 6.63,-16.88 1.7,-0.16 5.11,-0.51 6.84,-0.67 0.61,10.09 -6.07,23.98 3.99,30.96 9.13,7.39 21.54,3.54 32.28,5.24 1.03,-6.17 1.8,-12.35 2.41,-18.55 -4.6,-1.45 -9.13,-3.02 -13.7,-4.5 -0.19,-1.61 -0.64,-4.83 -0.86,-6.4 6.62,0.13 13.21,0.42 19.83,0.58 7.88,-8.2 16.46,-17.49 28.17,-19.55 8.42,-0.58 18.42,-1.7 25.11,4.66 4.11,10.81 2.66,22.93 5.33,34.11 3.28,4.31 7.46,7.82 11.45,11.48 1.41,-11.48 2.86,-24.27 11.86,-32.53 5.08,-6.82 15.85,-7.21 22.31,-2.25 9.91,7.26 21.09,12.34 32.02,17.84 2.35,-13.15 -5.3,-23.57 -12.18,-33.76 26.62,0.07 55.65,6.4 73.49,27.78 0.84,-8.14 4.89,-17.56 -0.48,-24.92 -14.34,-21.28 -42.08,-29.99 -66.74,-27.07 -30.03,4.76 -62.02,1.06 -89.06,-13.37 -15.01,-7.75 -26.07,-20.87 -38.71,-31.73 -25.55,-22.12 -41.79,-52.31 -64.26,-77.13 -9.55,-13.44 -23.15,-23.05 -37.91,-30 -0.22,-1.96 -0.64,-5.85 -0.83,-7.81 9.8,0.87 18.61,5.56 26.1,11.8 31.67,26.68 50.44,64.84 80.15,93.36 2.06,0 6.11,0 8.14,0 -3.41,-7.49 -4.34,-15.37 0.41,-22.53 -7.55,-2.71 -15.08,-5.37 -22.5,-8.33 4.21,-5.05 8.58,-9.97 12.89,-14.92 -5.24,-1.41 -10.48,-2.8 -15.75,-4.12 1.64,-10.31 12.15,-14.43 19.48,-20.22 -10.06,-2.12 -20.29,-4.11 -29.39,-9.1 6.4,-6.55 14.5,-10.86 22.7,-14.69 -6.04,-1.96 -12.09,-3.95 -18.03,-6.14 0.06,-1.61 0.19,-4.79 0.22,-6.4 7.91,-3.4 15.82,-6.84 23.79,-10.12 -5.82,-3.35 -11.73,-6.56 -17.65,-9.71 -0.19,-1.93 -0.58,-5.73 -0.74,-7.66 8.2,-2.98 16.56,-5.56 24.95,-8.13 -3.92,-5.05 -7.94,-10.03 -11.8,-15.11 4.5,-2.25 9.55,-3.73 13.38,-7.2 -1.26,-1.61 -3.76,-4.86 -5.05,-6.5 3.63,-1.51 7.33,-2.83 11.12,-3.85 -1.54,-3.64 -2.95,-7.3 -4.27,-11 6.36,-0.84 12.86,-1.99 19.29,-0.9 8.39,3.57 8,14.21 9.22,21.83 -8.97,4.57 -17.55,10.16 -27.52,12.35 5.02,4.43 9.07,9.8 11.77,15.98 -7.52,2.28 -15.08,4.56 -22.44,7.36 6.24,3.86 13.08,7.3 17.23,13.69 -6.56,3.8 -13.28,7.37 -20.12,10.64 5.11,2.29 10.12,4.73 15.07,7.37 -0.28,1.44 -0.9,4.31 -1.18,5.75 -4.51,3.06 -8.97,6.14 -13.38,9.29 7.33,2.35 14.69,4.66 21.86,7.49 -4.5,7.85 -12.18,12.8 -19.19,18.17 5.37,1.99 10.77,4.08 16.14,6.17 -4.08,5.37 -8.43,10.58 -12.76,15.72 5.88,2.06 11.79,4.15 17.68,6.37 -1.29,4.53 -2.64,9.1 -3.92,13.7 7.23,1.67 14.78,2.7 21.95,-0.04 22.61,-7.29 46.62,-6.01 70.03,-5.37 37.97,1.77 73.81,15.28 109.5,27.14 -12.38,-13.83 -30.29,-21.06 -42.05,-35.46 19.35,-7.69 40.73,-1.29 60.54,1.35 19.67,2.99 21.66,27 15.3,42.15 6.17,-5.6 12.89,-11.13 16.01,-19.1 7.62,-14.37 0.23,-32.89 -12.7,-41.44 -17.71,-1.32 -35.56,-0.65 -53.27,0.29 -11.48,1.67 -14.05,-12.38 -19.32,-19.61 -11.84,2.09 -23.86,3.27 -35.88,2.34 -0.29,-1.54 -0.87,-4.69 -1.16,-6.27 17.62,-2.66 35.33,-6.56 53.27,-5.91 11.45,0.25 17.72,11.44 24.4,19.16 5.5,0.13 11,0.19 16.53,0.29 -4.76,-13.05 -8.75,-26.94 -18.07,-37.62 -12.54,-15.82 -29.74,-27.04 -47.68,-35.81 -20.51,-9.84 -39.35,-22.77 -59.32,-33.6 -14.14,-7.78 -31.37,-7.65 -44.94,-16.78 -37.55,-26.88 -82.66,-43.34 -128.67,-47.39 -20.96,-2.41 -41.98,-6.78 -63.17,-5.76 -11.7,3.35 -23.08,8.85 -35.69,7.08 9.29,15.01 19.29,30.03 33.09,41.31 8.19,6.75 18.26,10.42 27.74,14.92 -3.99,8.52 -14.63,4.21 -20.74,0.8 -28.71,-15.14 -43.56,-45.46 -60.79,-71.4 -17.36,-25.63 -21.03,-57.17 -32.73,-85.3 -11.32,-26.3 -21.89,-53.56 -40.45,-75.81 -23.27,-27.61 -41.02,-59.32 -63.49,-87.51 -28.33,-35.27 -66.97,-59.7 -100.89,-88.96 -42.76,-32.05 -82.27,-68.16 -124.55,-100.85 -12.51,-9.65 -25.11,-19.55 -34.37,-32.54 -17.58,-23.37 -35.81,-46.36 -51.85,-70.86 -3.54,-4.31 -6.37,-10.93 -12.74,-11.12zm-126.41 74.07l0 0c5.95,4.85 12.35,9.2 19,13.05 -0.32,-4.27 -0.67,-8.58 -1.06,-12.86 -5.98,-0.16 -11.96,-0.22 -17.94,-0.19zm-96.48 53.02l0 0c-1.38,43.08 -0.13,86.22 -0.58,129.34 0,199.36 0.06,398.72 -0.03,598.08 0.03,6.02 0.38,12.03 1.06,18.04 48.9,0.39 97.83,0.19 146.73,0.13 0.55,-29 -0.16,-58 0.35,-87 47.07,-0.61 94.14,0.48 141.18,-0.51 15.3,-4.86 30.02,-11.84 45.97,-14.79 59.16,-13.09 118.57,-25.63 176.54,-43.5 -7.88,-16.27 -24.6,-25.08 -36.94,-37.46 -11.45,-3.02 -23.7,-1.12 -35.08,-4.59 -7.33,-2.74 -12.41,-9.01 -19.1,-12.74 -8.58,-3.08 -18.1,-4.08 -25.65,-9.54 -6.4,-5.47 -8.36,-14.05 -10.71,-21.74 -5.85,-1.28 -11.77,-2.38 -17.33,-4.63 -5.82,-5.43 -5.37,-15.53 -12.76,-19.48 -7.97,-4.89 -16.43,-9.74 -20.61,-18.55 -4.47,-9.55 -16.62,-9.29 -24.85,-13.99 -13.05,-4.75 -22.67,-17.84 -20.51,-32.05 1.6,-12.19 -13.25,-16.69 -16.21,-27.2 -1.6,-5.14 -2.22,-10.48 -3.76,-15.62 -5.91,-7.72 -14.02,-13.57 -19.19,-21.87 -8.88,-16.68 -30.67,-17.97 -42.54,-31.54 -5.98,-7.04 -10.41,-15.39 -17.55,-21.38 -8.13,-6.84 -17.07,-12.95 -23.57,-21.5 -7.45,-9.94 -18.55,-15.79 -28.48,-22.8 -9.94,-6.62 -9.87,-21.34 -20.51,-27.26 -11.19,-7.14 -23.57,-12.64 -33.54,-21.57 -7.52,-7.62 -15.88,-16.95 -13.31,-28.58 20.87,-2.74 37.91,14.65 58.84,12.47 -4.28,-8.1 -13.09,-11.48 -21,-14.89 -16.46,-6.88 -34.94,-12.54 -46.42,-27.13 -8.87,-11.45 -20.29,-20.74 -28.42,-32.79 -7.17,-9.42 -4.18,-21.87 -5.53,-32.77 -0.68,-15.04 -16.01,-23.82 -18.1,-38.41 -2.38,-12.7 -0.16,-25.56 -0.16,-38.33 0.58,-6.01 -4.89,-9.71 -8.23,-13.85zm1458.61 74.9l0 0c9.94,-2.5 19.23,-6.84 28.52,-11.05 -0.03,-7.01 -0.03,-14.02 0,-21.03 -9.23,10.96 -20.48,20.16 -28.52,32.08zm-4.56 247.66l0 0c-10.48,6.78 -24.08,1.51 -34.85,7.46 -11.77,6.01 -23.37,12.86 -36.49,15.43 -12.41,1.93 -24.69,-1.71 -36.94,-2.99 -3.38,7.84 -7.14,15.88 -6.11,24.69 0.55,126.13 -0.68,252.28 0.61,378.41 48.16,-0.07 96.39,0.58 144.55,-0.26l2.05 -1.9c0.1,-147.05 0.68,-294.14 -0.29,-441.19 -12.57,3.82 -21.73,13.53 -32.53,20.35zm-396.99 280.19l0 0c2.8,5.43 7.17,8.93 13.6,8.35 -1.77,-6.14 -8.39,-6.97 -13.6,-8.35zm1.42 39.25l0 0c15.85,11.64 31.08,24.05 45.91,37.01 3.56,-9.91 5.24,-20.58 -0.1,-30.19 -15.05,-3.67 -30.48,-5.18 -45.81,-6.82zm-56.98 17.78l0 0c-0.12,16.81 0.1,33.63 -0.22,50.48 15.59,2.57 31.22,7.16 43.63,17.39 14.4,10.09 20.57,29.16 37.29,36.26 11.09,4.6 22.41,8.75 33.98,12 0.55,-27.49 0.13,-54.95 0.26,-82.4 -5.85,0.32 -12.15,2.28 -17.58,-0.74 -30.8,-14.99 -63.02,-29.13 -97.36,-32.99zm-394.77 31.54l0 0c-11.6,11.45 -20.57,25.3 -27.42,40.06 -9.71,20.19 -24.43,37.23 -36.49,55.94 13.34,-0.13 27.36,0.55 39.9,-4.95 7.55,-3.89 11.76,-11.7 16.59,-18.33 14.72,-22.66 31.73,-44.07 43.01,-68.8 -3.21,-2.99 -6.23,-6.14 -9.71,-8.71 -8.74,0.9 -17.36,2.83 -25.88,4.79zm41.32 15.21l0 0c-14.08,25.27 -32.02,48.09 -47.13,72.72 0.89,1.13 2.63,3.34 3.53,4.47 14.76,0.9 29.42,-6.59 39.74,-16.72 8.9,-19.58 18.55,-40.15 17.36,-62.21 -4.6,-1.42 -11.12,-4.69 -13.5,1.74zm57.22 23.24l0 0c-1.31,5.21 -2.5,10.45 -3.53,15.75 7.1,0.1 14.24,0.1 21.41,-0.28 -5.37,-5.82 -11.09,-11.35 -17.88,-15.47zm293.21 26.62l0 0c1.22,12.8 1.06,25.75 -1.7,38.36 -3.47,13.95 1.41,27.84 3.21,41.63 1.64,-13.31 5.95,-28.36 18.39,-35.43 6.98,-1.64 14.25,-0.83 21.38,-1.22 -0.25,-9.58 1.58,-19.87 -3.12,-28.71 -9.58,-10.51 -24.65,-13.09 -38.16,-14.63zm50.54 41.41l0 0c18.1,11.03 27.17,30.38 36.85,48.29 4.27,-3.54 8.71,-6.91 12.63,-10.87 1.35,-13.27 -10.86,-22.31 -15.33,-33.82 7.74,0.32 15.46,2.48 21.05,8.17 13.38,10.22 3.7,28.58 8.49,42.44 10.68,-7.17 24.34,-14.22 25.18,-28.78 -14.22,-12.18 -31.19,-20.06 -47.78,-28.39 1.54,-1.19 4.66,-3.57 6.24,-4.76 16.88,3.44 32.24,11.84 47.16,20.2 -0.35,-3.38 -0.71,-6.72 -0.99,-10.07 -5.08,-3.66 -10.16,-7.39 -16.02,-9.61 -21.34,-7.72 -42.5,-15.98 -63.11,-25.43 -4.91,10.83 -9.58,21.76 -14.37,32.63zm209.52 -634.35l0 0c-11.38,3.63 -20.99,11.15 -30.22,18.48 20.42,5.66 41.96,-2.92 55.14,-18.87 -8.29,-0.48 -16.75,-1.35 -24.92,0.39zm-33.79 31.73l0 0c-10.41,1.12 -23.43,-3.22 -29.12,8.42 20.06,2.32 40.57,2.8 60.5,-0.64 -0.03,-2.25 -0.12,-6.72 -0.16,-8.94 -10.29,-4.08 -20.83,0.26 -31.22,1.16zm-57.77 30.96l0 0c16.43,1.32 33.02,1.8 49.45,0.19 -4.18,-12.28 -19.9,-10.51 -30.32,-12.5 -8.94,-1.9 -13.95,6.81 -19.13,12.31zm-32.54 25.66l0 0c20.77,2.44 41.83,1.25 62.15,-3.83 -9.64,-6.94 -21.38,-10.19 -32.95,-11.86 -12.19,-1.97 -21.38,7.94 -29.2,15.69zm-73.91 45.17l0 0c7.4,5.14 14.47,11.31 23.15,14.21 11.8,-1.39 23.08,-5.57 34.24,-9.52 0,-1.77 0.03,-5.3 0.06,-7.07 -6.52,-3.28 -13.02,-6.59 -19.54,-9.84 -0.29,-1.51 -0.9,-4.53 -1.19,-6.04 23.24,-1.93 48.93,5.56 70.18,-6.6 -15.62,-5.72 -31.89,-10.03 -48.38,-12.21 -20.93,9.64 -39.68,23.82 -58.52,37.07zm-14.53 7.23l0 0c-9.29,5.24 -16.14,13.73 -23.47,21.32 17.46,5.49 36.59,7.74 54.43,2.54 -1.32,-4.47 -1,-10.16 -5.66,-12.67 -7.55,-5.08 -15.78,-11.35 -25.3,-11.19z"/>
   <path class="fil2" d="M1666.25 494.58c18.26,-9.13 35.04,-20.93 53.3,-30.1 -10.99,22.12 -28.48,39.93 -45.3,57.68 -22.95,26.4 -57.03,38.03 -86.45,55.33 -3.18,2.19 -5.37,5.47 -7.84,8.39 4.95,-0.45 10.09,-0.35 14.88,-1.96 30.22,-12.63 56.11,-34.08 87.26,-44.69 30.45,-10.96 59.22,-25.94 88.67,-39.25 19.03,-8.46 36.65,-20.29 56.94,-25.69 -8.17,17.27 -22.32,30.64 -37.46,41.83 -20.22,15.3 -40.83,30.22 -62.02,44.17 -19.58,13.09 -44.11,16.08 -63.17,30.09 -5.4,3.57 -7.72,9.81 -10.42,15.37 7.72,-2.57 14.89,-6.49 21.74,-10.83 17.62,-11.61 39.38,-14.6 56.74,-26.69 26.75,-17.94 53.24,-36.42 78.06,-56.97 14.02,-11.38 30.61,-18.8 46.46,-27.2 16.97,-8.26 33.98,-18.16 53.3,-19.29 -3.92,11.58 -8.07,23.86 -18.06,31.7 -26.18,22.35 -53.73,43.02 -81.15,63.76 -27.1,21.22 -58.48,35.75 -87.48,53.98 -15.4,9.8 -33.47,15.33 -46.97,28.03 6.3,0.58 13.05,1.22 18.87,-2.02 22.86,-10.45 43.3,-25.4 65.58,-37.01 50.77,-27.16 93.95,-65.71 139.66,-100.21 0.78,16.01 -5.72,31.54 -18.29,41.63 -25.69,21.54 -52.15,42.28 -79.28,61.99 -21.19,13.08 -40.12,30.25 -63.69,39.13 -8.04,3.4 -17.59,5.65 -21.96,14.05 19.9,0.32 37.78,-9.97 54.01,-20.35 20.1,-14.25 41.12,-27.2 60.48,-42.48 15.33,-11.34 29.25,-24.75 46.26,-33.66 1.03,29 -17.68,56.68 -44.24,67.9 -26.14,14.86 -55.78,21.06 -83.17,32.73 4.92,2.03 10.03,5.47 15.56,3.12 22.02,-5.3 43.15,-13.95 63.5,-23.79 14.27,-6.78 27.61,-16.24 43.59,-18.68 -6.72,16.98 -20.89,32.09 -39.22,36.04 -21.8,5.56 -43.69,10.74 -65.81,14.73 -40.61,6.91 -82.76,2.6 -122.49,14.72 -0.03,1.87 -0.1,5.59 -0.1,7.46 17.81,-2.28 35.4,-6.24 53.34,-7.52 23.66,-2.7 47.68,-1.32 71.15,-5.98 22.89,-2.8 44.65,-11.9 67.8,-12.99 -9.07,12.44 -24.56,16.2 -37.16,23.82 -9.52,4.86 -17.88,12.51 -28.43,14.98 -48.96,2.38 -97.86,-2.54 -146.79,-3.57 0.09,1.77 0.32,5.37 0.45,7.17 25.14,4.41 50.73,2.13 76.03,4.96 20.58,1.99 41.35,0.06 61.92,2.31 -10.41,11.83 -24.43,20.16 -39.57,24.21 -18.81,2.57 -37.49,-2.73 -56.27,-3.15 -28.06,-1.38 -55.87,-6.08 -83.94,-6.62 0.16,1.73 0.55,5.2 0.74,6.94 35.59,6.88 72.01,6.62 107.96,10.96 -8.3,6.43 -16.24,14.05 -26.49,17.24 -40.16,7.33 -79.19,-8.11 -118.28,-14.7 -2.38,1.03 -7.14,3.12 -9.52,4.15 27.42,12.28 58.13,13.12 86.71,21.73 -11.54,6.5 -24.6,11.16 -38,8.62 -19.84,-3.76 -39.77,-7.14 -59.64,-10.87 -5.79,-1.83 -11.57,-0.38 -16.49,2.86 14.72,7.08 31.02,9.17 46.9,12.03 -2.21,5.27 -4.59,11.54 -10.8,13.12 -14.02,4.3 -29.26,3.95 -43.66,2.47 -17.62,-5.33 -33.08,-16.72 -51.7,-19.13 0.33,2.16 0.94,6.46 1.23,8.62 13.79,4.89 27.39,10.48 40.38,17.26 -12.54,16.4 -35.11,13.86 -53.21,11.55 -19.55,-2.55 -37.52,-12.58 -57.42,-12.64 2.92,3.38 5.5,7.56 10.06,8.97 13.79,5.53 28.42,8.62 42.67,12.8 -9.49,18.64 -33.18,17.26 -50.13,11.31 -11.35,-2.99 -23.15,-11.22 -34.98,-5.53 13.63,9.94 30.45,13.19 46.17,18.42 0.03,9.55 -6.49,17.3 -16.56,16.56 -22.31,3.86 -39.32,-16.78 -61.34,-14.27 7.85,9.84 20.29,13.4 31.15,18.81 -4.43,3.89 -8.26,9.58 -14.49,10.38 -17.94,2.12 -33.38,-13.44 -51.41,-8.49 7.74,5.79 16.59,9.78 25.52,13.35 -1.57,4.56 -2.83,9.41 -5.75,13.37 -15.95,5.95 -32.89,0.9 -47.13,-6.95 -0.49,-29.93 0.67,-59.83 0.45,-89.73 0.22,-8.52 -3.54,-16.3 -7.01,-23.82 17.94,3.7 36.68,4.69 54.46,-0.32 2.89,-5.76 5.66,-11.58 8.42,-17.43 11.51,-3.02 23.76,-4.82 34.08,-11.12 6.53,-4.21 2.99,-13.18 3.54,-19.61 16.91,-1.83 36.97,1 50.57,-11.29 -1.51,-5.59 -3.92,-10.86 -6.2,-16.14 11.51,-0.61 22.85,-3.05 33.43,-7.74 -0.96,-5.6 -2.05,-11.13 -3.4,-16.63 10.48,-1.38 20.92,-3.11 31.12,-6.01 0.29,-5.17 0.41,-10.35 0.61,-15.53 10.61,-1.09 21.92,-1.54 31.25,-7.29 2.28,-6.37 0.7,-13.22 0.38,-19.78 9.36,-7.46 26.49,-11.92 26.56,-25.94 -0.03,-9.78 -11.77,-9.2 -18.68,-9.17 -33.08,-1.06 -54.82,28.07 -81.69,42.57 -19.39,9.81 -34.31,25.72 -51.28,38.87 -44.37,28.04 -91.41,53.63 -128.19,91.85 -19.9,-16.94 -37.29,-36.55 -56.48,-54.26 24.01,-13.25 46.68,-30.1 73.91,-36.3 48.29,-12.25 95.1,-29.39 141.11,-48.36 35.49,-13.11 64.91,-37.64 96.25,-58.12 9.81,-6.98 22.93,-2.16 33.18,-8.36 25.88,-13.25 51.99,-26.3 76.04,-42.79 21.06,-14.12 43.63,-25.69 66.26,-37.07zm-393.36 756.97c4.79,-10.87 9.46,-21.8 14.37,-32.63 20.61,9.45 41.77,17.71 63.11,25.43 5.86,2.22 10.94,5.95 16.02,9.61 0.28,3.35 0.64,6.69 0.99,10.07 -14.92,-8.36 -30.28,-16.76 -47.16,-20.2 -1.58,1.19 -4.7,3.57 -6.24,4.76 16.59,8.33 33.56,16.21 47.78,28.39 -0.84,14.56 -14.5,21.61 -25.18,28.78 -4.79,-13.86 4.89,-32.22 -8.49,-42.44 -5.59,-5.69 -13.31,-7.85 -21.05,-8.17 4.47,11.51 16.68,20.55 15.33,33.82 -3.92,3.96 -8.36,7.33 -12.63,10.87 -9.68,-17.91 -18.75,-37.26 -36.85,-48.29zm-50.54 -41.41c13.51,1.54 28.58,4.12 38.16,14.63 4.7,8.84 2.87,19.13 3.12,28.71 -7.13,0.39 -14.4,-0.42 -21.38,1.22 -12.44,7.07 -16.75,22.12 -18.39,35.43 -1.8,-13.79 -6.68,-27.68 -3.21,-41.63 2.76,-12.61 2.92,-25.56 1.7,-38.36zm-350.43 -49.86c2.38,-6.43 8.9,-3.16 13.5,-1.74 1.19,22.06 -8.46,42.63 -17.36,62.21 -10.32,10.13 -24.98,17.62 -39.74,16.72 -0.9,-1.13 -2.64,-3.34 -3.53,-4.47 15.11,-24.63 33.05,-47.45 47.13,-72.72zm-41.32 -15.21c8.52,-1.96 17.14,-3.89 25.88,-4.79 3.48,2.57 6.5,5.72 9.71,8.71 -11.28,24.73 -28.29,46.14 -43.01,68.8 -4.83,6.63 -9.04,14.44 -16.59,18.33 -12.54,5.5 -26.56,4.82 -39.9,4.95 12.06,-18.71 26.78,-35.75 36.49,-55.94 6.85,-14.76 15.82,-28.61 27.42,-40.06zm450.33 -88.57c5.21,1.38 11.83,2.21 13.6,8.35 -6.43,0.58 -10.8,-2.92 -13.6,-8.35zm-23.53 -143.39c3.63,2.09 7.33,4.18 11.02,6.3 -3.69,4.88 -7.46,9.74 -10.67,14.95 -0.23,-7.07 -0.32,-14.18 -0.35,-21.25zm12.47 -155.16c9.52,-0.16 17.75,6.11 25.3,11.19 4.66,2.51 4.34,8.2 5.66,12.67 -17.84,5.2 -36.97,2.95 -54.43,-2.54 7.33,-7.59 14.18,-16.08 23.47,-21.32zm14.53 -7.23c18.84,-13.25 37.59,-27.43 58.52,-37.07 16.49,2.18 32.76,6.49 48.38,12.21 -21.25,12.16 -46.94,4.67 -70.18,6.6 0.29,1.51 0.9,4.53 1.19,6.04 6.52,3.25 13.02,6.56 19.54,9.84 -0.03,1.77 -0.06,5.3 -0.06,7.07 -11.16,3.95 -22.44,8.13 -34.24,9.52 -8.68,-2.9 -15.75,-9.07 -23.15,-14.21zm73.91 -45.17c7.82,-7.75 17.01,-17.66 29.2,-15.69 11.57,1.67 23.31,4.92 32.95,11.86 -20.32,5.08 -41.38,6.27 -62.15,3.83zm32.54 -25.66c5.18,-5.5 10.19,-14.21 19.13,-12.31 10.42,1.99 26.14,0.22 30.32,12.5 -16.43,1.61 -33.02,1.13 -49.45,-0.19zm57.77 -30.96c10.39,-0.9 20.93,-5.24 31.22,-1.16 0.04,2.22 0.13,6.69 0.16,8.94 -19.93,3.44 -40.44,2.96 -60.5,0.64 5.69,-11.64 18.71,-7.3 29.12,-8.42zm33.79 -31.73c8.17,-1.74 16.63,-0.87 24.92,-0.39 -13.18,15.95 -34.72,24.53 -55.14,18.87 9.23,-7.33 18.84,-14.85 30.22,-18.48zm-1035.65 -290.54c6.37,0.19 9.2,6.81 12.74,11.12 16.04,24.5 34.27,47.49 51.85,70.86 9.26,12.99 21.86,22.89 34.37,32.54 42.28,32.69 81.79,68.8 124.55,100.85 33.92,29.26 72.56,53.69 100.89,88.96 22.47,28.19 40.22,59.9 63.49,87.51 18.56,22.25 29.13,49.51 40.45,75.81 11.7,28.13 15.37,59.67 32.73,85.3 17.23,25.94 32.08,56.26 60.79,71.4 6.11,3.41 16.75,7.72 20.74,-0.8 -9.48,-4.5 -19.55,-8.17 -27.74,-14.92 -13.8,-11.28 -23.8,-26.3 -33.09,-41.31 12.61,1.77 23.99,-3.73 35.69,-7.08 21.19,-1.02 42.21,3.35 63.17,5.76 46.01,4.05 91.12,20.51 128.67,47.39 13.57,9.13 30.8,9 44.94,16.78 19.97,10.83 38.81,23.76 59.32,33.6 17.94,8.77 35.14,19.99 47.68,35.81 9.32,10.68 13.31,24.57 18.07,37.62 -5.53,-0.1 -11.03,-0.16 -16.53,-0.29 -6.68,-7.72 -12.95,-18.91 -24.4,-19.16 -17.94,-0.65 -35.65,3.25 -53.27,5.91 0.29,1.58 0.87,4.73 1.16,6.27 12.02,0.93 24.04,-0.25 35.88,-2.34 5.27,7.23 7.84,21.28 19.32,19.61 17.71,-0.94 35.56,-1.61 53.27,-0.29 12.93,8.55 20.32,27.07 12.7,41.44 -3.12,7.97 -9.84,13.5 -16.01,19.1 6.36,-15.15 4.37,-39.16 -15.3,-42.15 -19.81,-2.64 -41.19,-9.04 -60.54,-1.35 11.76,14.4 29.67,21.63 42.05,35.46 -35.69,-11.86 -71.53,-25.37 -109.5,-27.14 -23.41,-0.64 -47.42,-1.92 -70.03,5.37 -7.17,2.74 -14.72,1.71 -21.95,0.04 1.28,-4.6 2.63,-9.17 3.92,-13.7 -5.89,-2.22 -11.8,-4.31 -17.68,-6.37 4.33,-5.14 8.68,-10.35 12.76,-15.72 -5.37,-2.09 -10.77,-4.18 -16.14,-6.17 7.01,-5.37 14.69,-10.32 19.19,-18.17 -7.17,-2.83 -14.53,-5.14 -21.86,-7.49 4.41,-3.15 8.87,-6.23 13.38,-9.29 0.28,-1.44 0.9,-4.31 1.18,-5.75 -4.95,-2.64 -9.96,-5.08 -15.07,-7.37 6.84,-3.27 13.56,-6.84 20.12,-10.64 -4.15,-6.39 -10.99,-9.83 -17.23,-13.69 7.36,-2.8 14.92,-5.08 22.44,-7.36 -2.7,-6.18 -6.75,-11.55 -11.77,-15.98 9.97,-2.19 18.55,-7.78 27.52,-12.35 -1.22,-7.62 -0.83,-18.26 -9.22,-21.83 -6.43,-1.09 -12.93,0.06 -19.29,0.9 1.32,3.7 2.73,7.36 4.27,11 -3.79,1.02 -7.49,2.34 -11.12,3.85 1.29,1.64 3.79,4.89 5.05,6.5 -3.83,3.47 -8.88,4.95 -13.38,7.2 3.86,5.08 7.88,10.06 11.8,15.11 -8.39,2.57 -16.75,5.15 -24.95,8.13 0.16,1.93 0.55,5.73 0.74,7.66 5.92,3.15 11.83,6.36 17.65,9.71 -7.97,3.28 -15.88,6.72 -23.79,10.12 -0.03,1.61 -0.16,4.79 -0.22,6.4 5.94,2.19 11.99,4.18 18.03,6.14 -8.2,3.83 -16.3,8.14 -22.7,14.69 9.1,4.99 19.33,6.98 29.39,9.1 -7.33,5.79 -17.84,9.91 -19.48,20.22 5.27,1.32 10.51,2.71 15.75,4.12 -4.31,4.95 -8.68,9.87 -12.89,14.92 7.42,2.96 14.95,5.62 22.5,8.33 -4.75,7.16 -3.82,15.04 -0.41,22.53 -2.03,0 -6.08,0 -8.14,0 -29.71,-28.52 -48.48,-66.68 -80.15,-93.36 -7.49,-6.24 -16.3,-10.93 -26.1,-11.8 0.19,1.96 0.61,5.85 0.83,7.81 14.76,6.95 28.36,16.56 37.91,30 22.47,24.82 38.71,55.01 64.26,77.13 12.64,10.86 23.7,23.98 38.71,31.73 27.04,14.43 59.03,18.13 89.06,13.37 24.66,-2.92 52.4,5.79 66.74,27.07 5.37,7.36 1.32,16.78 0.48,24.92 -17.84,-21.38 -46.87,-27.71 -73.49,-27.78 6.88,10.19 14.53,20.61 12.18,33.76 -10.93,-5.5 -22.11,-10.58 -32.02,-17.84 -6.46,-4.96 -17.23,-4.57 -22.31,2.25 -9,8.26 -10.45,21.05 -11.86,32.53 -3.99,-3.66 -8.17,-7.17 -11.45,-11.48 -2.67,-11.18 -1.22,-23.3 -5.33,-34.11 -6.69,-6.36 -16.69,-5.24 -25.11,-4.66 -11.71,2.06 -20.29,11.35 -28.17,19.55 -6.62,-0.16 -13.21,-0.45 -19.83,-0.58 0.22,1.57 0.67,4.79 0.86,6.4 4.57,1.48 9.1,3.05 13.7,4.5 -0.61,6.2 -1.38,12.38 -2.41,18.55 -10.74,-1.7 -23.15,2.15 -32.28,-5.24 -10.06,-6.98 -3.38,-20.87 -3.99,-30.96 -1.73,0.16 -5.14,0.51 -6.84,0.67 -2.06,5.66 -3.22,11.83 -6.63,16.88 -5.11,5.34 -13.08,5.28 -19.87,6.11 -3.82,-17.52 7.49,-32.47 10.9,-48.93 -3.18,0.29 -6.33,0.61 -9.51,0.96 -3.8,9.78 -7.78,19.52 -11.16,29.45 -8.65,-0.22 -19.51,-5.72 -19.8,-15.3 2.95,-10.67 14.91,-16.81 16.33,-28.33 -2.25,0.16 -6.82,0.52 -9.07,0.68 -5.17,6.85 -10.48,13.63 -15.75,20.42 -13.96,-3.25 -22.67,-15.28 -29.48,-26.88 -1.39,-3.86 -5.4,-3.7 -8.72,-4.25 -3.57,24.66 -12.5,48.42 -24.62,70.09 -6.27,4.05 -14.86,1.71 -22.03,2.25 0.1,-21.31 15.4,-38.8 17.14,-59.93 0.51,-13.82 0.58,-27.71 0.42,-41.53 -8.14,0.67 -8.78,9.83 -11.9,15.59 -11.41,-4.66 -18.61,-14.79 -24.05,-25.37 -6.52,4.25 -12.95,8.68 -19.8,12.44 -5.5,-9.61 -8.2,-20.48 -9.39,-31.41 -7.07,-0.12 -14.53,2.48 -21.31,0.29 -5.76,-9.26 -2.61,-20.54 -3.7,-30.73 -7.27,5.4 -13.76,11.8 -21.35,16.81 -2.47,-4.15 -6.43,-7.71 -7.17,-12.63 0.23,-7.82 4.05,-16.37 -2.18,-22.89 -10.81,10.06 -9.68,28.35 -0.26,38.83 6.27,3.67 13.89,3.93 20.9,5.28 3.47,5.08 5.85,11.7 11.96,14.27 4.88,1.25 9.99,1.29 15.04,1.77 1.45,7.1 4.53,14.85 1.87,21.99 -6.63,11.22 -17.24,19.55 -22.83,31.44 -11.9,25.47 -28.2,48.68 -45.91,70.38 -15.56,9.42 -35.72,10.09 -51.89,1.54 5.14,-9.23 13.47,-15.88 21.12,-22.89 17.01,-16.17 35.43,-30.83 51.6,-47.87 3.19,-2.89 3.28,-7.36 4.34,-11.22 -10.64,1.06 -16.62,10.71 -24.04,17.17 -20.58,19.06 -42.12,37.16 -61.12,57.83 -9.81,12 -29.97,13.35 -41.61,3.28 -4.82,-2.86 -10.64,-9.64 -5.33,-14.78 15.49,-15.11 34.59,-25.82 52.4,-37.88 12.8,-8.93 27.91,-14.79 38.52,-26.58 -4.37,-1.48 -9.32,-2.54 -13.38,0.35 -30.86,17.42 -59.89,38 -88.15,59.15 -12.25,1.71 -26.78,7.91 -38.07,0.26 -7.26,-6.78 -1.67,-16.97 -0.16,-25.01 31.9,-14.82 64.53,-28 97.35,-40.67 6.69,-2.54 13.06,-5.88 19.2,-9.55 -1.55,-1.12 -4.63,-3.34 -6.18,-4.47 -19.06,4.44 -36.49,13.96 -54.81,20.61 -23.99,8.97 -46.78,20.77 -70.54,30.09 -13.18,-3.12 -30.73,-0.87 -39.61,-12.92 -1.22,-6.08 -0.51,-12.31 -0.42,-18.46 46.97,-14.79 95.26,-25.27 141.66,-42.02 0.13,-1.92 0.38,-5.78 0.48,-7.71 -17.75,2.89 -34.5,9.71 -51.76,14.47 -28.65,8.23 -57.36,16.33 -86.13,24.01 -12.22,3.86 -25.63,-2.57 -33.99,-11.35 -6.01,-6.88 4.41,-13.66 9.88,-16.72 23.79,-10.89 49.96,-15.01 75.32,-20.67 40,-8.33 79.57,-18.42 118.96,-29.22 17.91,-4.79 34.82,-12.54 52.15,-19.1 5.91,-2.09 10.89,-6.04 15.62,-10.06 -14.59,-5.37 -27.17,6.85 -41.02,9.16 -6.98,-3.83 -10.61,-12.06 -12.93,-19.42 6.79,-2.83 13.63,-5.59 20.64,-7.88 0.03,-3.05 0.07,-6.07 0.1,-9.09 -11.93,0.74 -21.35,9.64 -32.95,10.96 -4.38,-2.54 -7.11,-7.04 -10.36,-10.77 6.75,-4.66 25.63,-8.58 16.88,-19.45 -9.64,4.82 -18.93,11.09 -29.7,13.05 -13.41,0.74 -27.53,-0.13 -39.23,-7.43 13.22,-5.24 27.3,-7.39 40.93,-11.12 0.16,-1.93 0.42,-5.75 0.58,-7.65 -17.27,1.35 -33.7,7.23 -50.67,10.22 -12.31,-0.8 -30.61,-6.11 -28.52,-21.83 15.18,-4.47 30.58,-7.91 46.17,-10.38 0.29,-1.74 0.9,-5.27 1.19,-7.04 -24.43,-1.93 -48.03,14.11 -72.18,4.66 -0.19,-3.41 -0.42,-6.78 -0.64,-10.16 11.67,-2.8 26.3,1 35.4,-8.26 -15.02,-4.21 -30.58,-0.58 -45.85,-1.61 -8.42,-1.61 -14.21,-8.36 -19.13,-14.79 12.32,-4.47 25.46,-3.86 38.29,-5.3 0.16,-4.79 -1.93,-7.37 -6.27,-7.75 -18.42,-0.58 -37.87,6.72 -55.49,-1.71 -12.15,-3.89 -23.18,-14.53 -20.28,-28.29 20.73,-0.93 41.5,6.91 62.01,0.61 0.1,-1.83 0.26,-5.46 0.32,-7.26 -20.7,0.74 -41.6,0.48 -61.98,-3.57 -8.68,-6.11 -17.68,-14.02 -18.04,-25.43 21.96,3.37 44.37,10.64 66.52,3.98 0.16,-1.86 0.48,-5.59 0.64,-7.42 -20.8,1.6 -41.92,0.87 -61.95,-5.47 -11.03,-2.35 -18.23,-11.54 -25.91,-18.93 -0.03,-1.58 -0.1,-4.76 -0.13,-6.34 24.02,-4.44 47.65,-11.67 72.37,-11.19 0.32,-5.11 -1.77,-7.91 -6.33,-8.32 -25.95,-2.29 -50.38,11.76 -76.2,9.55 -14.66,-6.11 -29.32,-13.96 -39.9,-26.11 34.14,-0.58 68.22,5.14 102.24,-0.06 0.1,-1.81 0.32,-5.41 0.42,-7.21 -35.98,1.64 -72.34,1.07 -107.9,-4.11 -11.38,-6.14 -20.83,-15.18 -30.03,-24.15 38.39,-2.73 75.59,8.75 113.24,14.02 8.8,0.97 19.67,5.85 26.1,-2.96 -11.03,-4.66 -23.02,-5.78 -34.72,-7.58 -30.38,-4.57 -60.38,-12.93 -91.27,-12.9 -9.52,-0.29 -19.84,0.23 -27.94,-5.69 -9.1,-6.49 -21.99,-11.51 -23.57,-24.08 22.51,1.32 44.3,7.82 66.65,10.61 29.29,3.57 58.41,9.94 87.99,9.65 1.8,-1.29 5.37,-3.86 7.14,-5.15 -9.97,-4.85 -21.15,-4.02 -31.89,-4.76 -43.82,-5.07 -87.26,-12.86 -130.66,-20.51 -11.03,-2.38 -20.71,-8.45 -30.29,-14.18 -7.97,-5.07 -17.36,-10.12 -19.67,-20.15 14.72,3.18 28.93,9.9 44.27,9.35 8.49,0 17.13,-0.13 25.43,2.16 30.03,7.78 59.93,16.14 90.34,22.53 13.21,3.35 26.75,5.31 40.41,5.02 -0.06,-1.7 -0.22,-5.08 -0.29,-6.75 -44.04,-7.24 -87.28,-18.55 -130.36,-30 -13.6,-2.76 -21.26,-15.78 -33.54,-21.15 -18.58,-8.49 -40.15,-13.51 -53.46,-30.35 -12.8,-15.5 -34.63,-29 -30.67,-52.09 13.5,5.86 24.85,15.4 37.48,22.77 51.28,30.7 106,55.36 162.17,75.71 10.7,3.5 22.02,9.93 33.47,5.37 -10.45,-9.77 -25.08,-11.61 -37.81,-16.82 -57.2,-21.5 -113.33,-46.71 -164.8,-79.82 -15.34,-10.07 -32.15,-19.62 -40.64,-36.72 -10.74,-12.83 -11.32,-30.61 -7.85,-46.26 10.29,7.78 19.49,16.84 29.33,25.17 48.61,43.27 106.25,75.04 165.63,100.92 12.77,5.34 25.05,13.21 39.35,13.41 -0.16,-1.68 -0.51,-5.05 -0.67,-6.76 -68.32,-28.42 -136.29,-61.08 -192.64,-109.82 -24.47,-22.63 -53.05,-44.05 -65.59,-76 -4.11,-11.06 -2.28,-23.12 -0.61,-34.47 9.13,9.16 17.94,18.81 28.64,26.24 29.13,19.54 55.08,43.24 82.44,65.13 42.69,34.11 86.06,68.16 134.55,93.88 6.62,3.83 13.88,6.49 21.63,6.98 -1.19,-4.73 -4.14,-8.46 -8.65,-10.36 -63.49,-33.43 -119.4,-79.05 -174.25,-124.87 -14.18,-12.37 -32.57,-22.18 -39.51,-40.76 -10.03,-23.28 -22.09,-48.26 -15.66,-74.3 9.94,14.63 18.13,30.57 30.51,43.4 18.52,19 37.17,38.71 60.83,51.31 16.59,8.56 30.96,20.58 45.65,31.9 28.68,22.92 58.13,44.91 88.25,65.9 7.88,5.28 15.66,11.26 24.95,13.73 1.29,-0.9 3.86,-2.67 5.15,-3.54 -6.14,-5.24 -12.61,-9.99 -19.36,-14.37 -38.13,-25.65 -74.2,-54.17 -110.5,-82.27 -7.55,-6.3 -18.42,-10.7 -20.8,-21.22 -5.4,-18.35 -10.58,-36.9 -12.41,-56 -1.16,-8.72 2.67,-16.82 5.5,-24.79 13.5,28.81 36.78,51.34 60.47,71.92 34.82,30.54 73.98,55.65 113.94,78.86 16.59,7.27 31.8,17.08 45.53,28.94 -3.63,4.37 -8.46,8.1 -10.48,13.53 -2.19,9.65 3.44,18.27 7.23,26.66 -4.63,1.8 -9.26,3.63 -13.86,5.56 -0.7,2.06 -2.05,6.17 -2.76,8.2 3.12,6.75 6.43,13.4 10,19.96 -6.17,2.45 -12.12,5.37 -17.88,8.62 2.41,7.49 6.95,14.37 8.17,22.21 -2.86,5.5 -9.42,9.81 -8.14,16.72 0.62,8.84 9.49,13.6 15.05,19.42 -1.35,5.3 -2.99,10.51 -3.82,15.95 2.7,11.15 13.05,17.87 20.12,26.23 -6.23,2.28 -12.38,4.66 -18.49,7.17 -2.53,13.86 9.91,21.09 20.39,26.49 -4.08,5.02 -10.8,9.68 -9.33,17.01 4.15,12.12 17.43,16.36 28.33,20.29 -3.7,4.98 -8.75,10.38 -6.62,17.16 6.33,6.18 15.04,8.56 23.18,11.35 -3.7,4.89 -9.39,10.42 -6.53,17.14 5.14,8.36 14.85,11.8 23.08,16.27 -3.79,5.56 -8,11.03 -9.77,17.65 2.8,12.5 16.56,15.56 26.97,19.19 1.19,9.65 7.01,17.33 14.73,22.89 -0.39,5.05 -0.71,10.1 -1,15.15 9.45,4.24 19.68,6.14 29.97,6.75 -2.48,5.62 -4.89,11.25 -7.33,16.91 5.65,12.22 19.51,11.09 30.76,11.76 4.41,4.63 6.56,11.03 11.29,15.4 6.85,4.06 15.2,3.96 22.79,5.73 2.22,7.36 4.6,16.49 13.12,18.77 10.61,2.28 22.12,2.16 32.44,-1.41 4.34,-0.64 5.69,-4.82 7.59,-8.14 -13.47,0.42 -26.91,2.87 -40.38,0.94 -0.36,-7.37 -0.49,-14.76 -0.74,-22.12 -10.93,1.32 -22.19,2.7 -32.41,-2.41 1.41,-5.7 3.05,-11.32 4.66,-16.95 -12.02,-0.8 -24.11,1.1 -36.1,-0.42 -0.23,-1.22 -0.71,-3.63 -0.94,-4.82 5.85,-7.01 13.25,-12.54 19.04,-19.64 -14.31,-1.71 -28.74,-2.12 -42.89,-5.02 6.65,-10.35 23.85,-8.48 26.94,-21.25 -12.6,-0.19 -25.17,3.15 -37.46,-1.06 -0.15,-1.61 -0.41,-4.85 -0.57,-6.46 5.53,-2.16 11.09,-4.25 16.68,-6.33 0.23,-1.64 0.68,-4.89 0.9,-6.5 -16.17,0.52 -33.37,1.48 -47.16,-8.52 0.61,-3.15 1.41,-6.24 2.38,-9.26 8.87,-4.43 18.97,-4.56 28.61,-5.98 -0.19,-1.9 -0.54,-5.69 -0.74,-7.55 -16.14,-3.6 -37.39,-3.99 -46.62,-20 14.7,-4.21 30.29,-3.06 44.95,-7.59 -17.2,-12.47 -42.44,-5.43 -59.73,-19.42 14.11,-7.52 30.67,-6.59 46.16,-7.91 -0.06,-1.7 -0.19,-5.17 -0.29,-6.91 -22.79,-4.76 -52.72,0.71 -68.38,-20.57 11.96,-13.03 30.8,-4.38 44.59,-13.12 -17.71,-9.39 -43.24,-3.41 -56.2,-22.18 17.85,-6.63 36.27,4.43 53.92,-0.65 -0.35,-1.35 -1,-4.05 -1.35,-5.4 -18.2,-4.02 -36.07,-11.93 -48.8,-25.91 -2.83,-3.41 -1.93,-8.33 -2.93,-12.38 15.05,-3.6 29.29,4.69 44.24,5.02 -0.19,-2 -0.55,-6.02 -0.71,-8.04 -17.1,-5.6 -36.3,-7.56 -50.38,-19.84 -4.21,-2.67 -4.76,-7.78 -6.17,-12.09 16.88,-2.57 32.44,4.63 48.22,9.04 1.74,-0.9 5.21,-2.67 6.95,-3.57 -14.12,-10.51 -31.89,-14.69 -45.65,-25.72 -4.05,-2.64 -5.05,-7.46 -6.34,-11.74 16.88,-1.51 31.96,6.63 47.62,11.26 -0.13,-2.03 -0.42,-6.05 -0.58,-8.04 -15.11,-9.2 -37.23,-16.33 -40.67,-36.04 14.53,-1.25 27.16,6.23 39.93,11.89 4.6,-8.16 -5.08,-12.37 -10.19,-16.55 -10.81,-7.43 -21.58,-17.04 -23.15,-30.9 4.11,-1.54 7.84,-5.88 12.6,-4.69 16.24,4.66 29.64,15.59 42.44,26.14 20.64,15.72 42.66,29.93 60.92,48.54 13.22,13.5 26.59,26.88 39.48,40.67 35.27,39.8 71.06,80.6 92.85,129.69 19.87,43.89 40.16,88.22 50,135.61 2.96,12.12 6.88,24.28 13.98,34.63 12.28,16.98 33.37,27.87 54.53,25.4 -2.41,-8.1 -11.93,-7.81 -18.39,-10.52 -12.8,-3.5 -24.34,-11.95 -30.54,-23.79 -8.2,-14.3 -10.81,-30.76 -14.66,-46.58 -7.24,-27.39 -18.17,-53.56 -28.97,-79.7 -12.22,-28.78 -24.69,-57.71 -42.05,-83.85 -21.93,-33.08 -48.04,-63.08 -74.82,-92.27 -19.8,-20.93 -39.16,-42.66 -62.56,-59.7 -19.77,-14.53 -39.42,-29.26 -59.09,-43.92 -19.39,-13.53 -39.52,-26.3 -56.3,-43.14 -16.97,-17.43 -38.22,-30.61 -52.15,-50.93 -18.29,-25.59 -38.41,-51.86 -44.07,-83.59 -0.84,-6.66 -2.61,-14.47 1.89,-20.22zm190.65 338.47l0 0c-4.53,12.25 8.91,18.17 17.01,23.76 -5.88,6.21 -15.14,13.79 -9.87,23.34 8.33,5.89 18.65,7.72 28.39,10.1 -2.7,3.95 -6.62,7.49 -7.46,12.41 -1.64,11.25 11.03,15.94 18.2,21.86 -7.98,6.27 -21,13.25 -16.91,25.43 4.34,8.04 13.98,10 21.76,13.25 -0.29,6.72 -1.48,13.72 0.84,20.25 5.98,5.92 14.05,8.78 21.67,11.93 -2.57,6.69 -9.26,14.31 -4.21,21.38 3.69,8.16 13.27,9.9 20.77,12.92 -0.36,7.11 -1.93,14.41 0.03,21.41 4.63,5.79 12.28,7.43 18.74,10.36 2.16,5.17 2.89,11.41 7.36,15.3 5.69,3.18 12.12,4.63 18.33,6.53 2.15,6.2 1.67,14.59 8,18.35 5.37,2.71 11.32,3.93 17.11,5.44 2.76,9.9 7.65,20.09 18.07,23.69 12.95,3.8 29.64,4.05 38.93,-7.58 -12.28,-4.67 -25.21,5.69 -36.97,-1.39 -11.54,-4.53 -5.82,-18.9 -6.91,-28.23 -8.4,1.8 -16.85,3.12 -25.44,2.96 -1.64,-9.32 2.42,-17.91 5.76,-26.33 -10.74,0.97 -21.51,1.77 -32.28,0.68 1.58,-7.08 4.47,-13.73 7.46,-20.29 -10.03,0.84 -20.26,1.29 -29.9,-2.09 0.16,-3.34 0.48,-6.69 0.96,-9.97 7.17,-9.61 23.06,-8.26 27.72,-19.96 -15.31,0 -30.67,2.7 -45.91,0.06 -1.45,-3.57 -2.93,-7.1 -4.41,-10.64 5.79,-5.59 12.19,-10.54 19.07,-14.76 0.32,-1.47 0.96,-4.43 1.32,-5.91 -11.26,-0.87 -23.83,0.64 -33.6,-6.05 -4.53,-1.92 -4.98,-8.93 -1.74,-11.99 6.95,-3.5 14.6,-5.24 21.99,-7.52 0.16,-1.74 0.52,-5.24 0.71,-7.01 -15.91,-0.87 -36.59,4.18 -47.52,-10.71 8.75,-11.83 24.31,-11.02 37.23,-14.01 -0.03,-1.71 -0.16,-5.11 -0.22,-6.82 -12.61,-3.05 -24.79,-7.62 -36.23,-13.73 0.25,-2.76 0.67,-5.49 1.19,-8.23 9.38,-6.88 21.12,-8.9 31.86,-12.79 0,-1.71 -0.04,-5.11 -0.07,-6.85 -19.06,0 -38.77,1 -56.65,-6.88 7.62,-12.89 24.98,-11.22 37.62,-15.18 0.06,-1.86 0.19,-5.56 0.25,-7.42 -15.07,-2.38 -31.02,-3.15 -44.17,-11.77 3.34,-5.82 7.2,-11.28 11.12,-16.75 -7.49,-5.63 -15.14,3.57 -19,9.45zm567.68 313.79l0 0c-0.97,2.54 -1.93,5.11 -2.9,7.65 12.16,6.04 23.73,13.47 36.82,17.52 -0.16,-2.02 -0.42,-6.08 -0.55,-8.1 -10.26,-7.27 -21.35,-13.37 -33.37,-17.07zm-15.92 15.75l0 0c0.26,1.96 0.81,5.85 1.06,7.81 7.85,5.37 15.98,11.06 25.95,10.9 -0.23,-1.73 -0.64,-5.24 -0.87,-7.01 -8.23,-4.92 -16.75,-9.48 -26.14,-11.7zm-28.83 58.48l0 0c0.41,1.64 1.22,4.99 1.64,6.62 11.6,3.03 23.11,6.53 35.04,8.07 -0.07,-1.99 -0.16,-6.01 -0.23,-8 -11.57,-4.73 -23.98,-6.78 -36.45,-6.69zm10.03 22.86l0 0c0,1.8 0,5.37 0,7.17 12.18,2.38 24.59,3.79 37.03,4.21 -0.38,-1.8 -1.19,-5.43 -1.57,-7.26 -11.58,-3.16 -23.5,-4.54 -35.46,-4.12zm-279.32 16.59l0 0c-2.61,10.61 -3.44,21.67 -0.13,32.21 1.93,0.23 5.75,0.71 7.65,0.94 -0.64,-11.13 -0.48,-22.22 -0.42,-33.34 -1.77,0.06 -5.34,0.16 -7.1,0.19zm72.05 9.07l0 0c-0.84,7.55 -2.35,15.94 2.79,22.44 4.95,8.29 16.17,6.84 23.28,12.18 9.32,7.08 22.09,9.29 28.03,20.42 3.41,0.09 6.82,0.19 10.26,0.29 -6.17,-9.94 -11.58,-20.29 -15.4,-31.38 -4.5,2.18 -8.04,10.03 -13.57,7.84 -2.35,-6.43 -3.95,-13.08 -5.66,-19.64 -5.82,2.8 -10.9,8.9 -17.84,7.78 -2.54,-6.33 -3.28,-13.12 -3.89,-19.84 -1.99,-0.03 -6.01,-0.09 -8,-0.09zm-40.74 3.18l0 0c-0.64,13.34 3.99,33.85 21.54,30.67 -5.91,-9.48 -11.06,-19.42 -14.34,-30.12 -1.8,-0.13 -5.4,-0.42 -7.2,-0.55zm658.47 -499.36l0 0c-14.09,1.9 -30.77,1.19 -40.51,13.48 3.89,2.21 8.32,2.37 12.5,0.77 20.55,-6.63 42.41,-7.01 63.79,-6.92 -16.72,19.84 -43.08,26.24 -68,26.3 -9.84,0.74 -21.25,-2.41 -29.16,5.18 24.6,11.61 51.31,-2.31 76.84,-1.77 -3.66,6.5 -8.42,13.95 -16.3,15.5 -13.73,2.31 -27.2,5.78 -40.77,8.65 -14.66,3.18 -29.7,1.38 -44.43,0.12 0.16,1.97 0.49,5.86 0.65,7.78 34.11,9.94 67.03,-7.16 100.56,-10.44 -0.06,2.09 -0.22,6.26 -0.29,8.32 -17.01,12.96 -39.25,15.6 -59.93,17.33 -16.81,-1.48 -33.82,-2.8 -50.47,0.81 0,1.67 -0.07,5.04 -0.07,6.72 26.5,2.6 53.85,0.64 79.61,8.29 -33.5,6.14 -67.77,5.69 -101.69,7.2 0,1.77 -0.04,5.27 -0.07,7.01 22.19,3.41 44.88,3.67 66.55,10.06 -17.9,4.7 -36.68,2.77 -54.97,3.35 -10.68,0.64 -22.54,-2.7 -31.86,4.11 14.46,9.49 33.91,4.54 49.22,12.93 -11.32,5.75 -24.31,4.75 -36.59,4.21 -10.51,-0.19 -21.96,-5.05 -31.41,1.7 6.08,4.31 12.44,8.26 18.71,12.35 -18,0.99 -35.91,-2.32 -53.85,-0.84 3.09,5.37 6.21,10.74 8.65,16.46 -17.04,10.61 -37.07,5.18 -55.56,3.28 -0.38,6.24 -0.13,12.54 -1.28,18.71 -19.87,16.3 -47.42,7.53 -70.67,12.41 0.07,1.77 0.19,5.31 0.26,7.08 22.6,0 46.36,2.57 67.74,-6.5 8.74,-2.67 12.44,-11.35 14.14,-19.58 14.79,-0.7 30.61,2.12 44.24,-5.11 7.01,-2.99 9.71,-10.58 13.09,-16.78 14.15,0 28.42,1.7 42.47,-0.58 2.54,-3.89 4.11,-8.3 5.88,-12.6 15.56,-1.26 31.99,-0.74 46.55,-7.17 1.68,-4.89 1,-10.13 0.97,-15.18 12.09,-0.83 24.4,-1.38 36.1,-4.66 3.61,-1.51 10.71,-4.66 8.07,-9.64 -4.59,-4.44 -10.9,-6.15 -16.71,-8.36 14.17,-1.61 28.26,-4.18 42.21,-7.3 1.35,-3.18 2.7,-6.34 4.08,-9.52 -3.47,-2.76 -6.94,-5.53 -10.41,-8.23 14.78,-4.5 32.47,-8.97 39.31,-24.63 -1.41,-4.88 -3.76,-9.38 -6.01,-13.88 3.09,-7.3 5.08,-14.99 7.27,-22.54 6.78,-8.46 18.13,-14.82 16.11,-27.43 -14.44,-4.98 -29.84,-1.8 -44.56,-0.45z"/>
  </g>
 </g>
</svg>
