<?xml version="1.0" encoding="UTF-8"?>
<!DOCTYPE svg PUBLIC "-//W3C//DTD SVG 1.1//EN" "http://www.w3.org/Graphics/SVG/1.1/DTD/svg11.dtd">
<!-- Creator: CorelDRAW -->
<svg xmlns="http://www.w3.org/2000/svg" xml:space="preserve" width="2000px" height="1600px" version="1.1" style="shape-rendering:geometricPrecision; text-rendering:geometricPrecision; image-rendering:optimizeQuality; fill-rule:evenodd; clip-rule:evenodd"
viewBox="0 0 2000 1600"
 xmlns:xlink="http://www.w3.org/1999/xlink">
 <defs>
  <style type="text/css">
   <![CDATA[
    .fil0 {fill:black;fill-rule:nonzero}
    .fil4 {fill:#6A533A;fill-rule:nonzero}
    .fil3 {fill:#8A663C;fill-rule:nonzero}
    .fil2 {fill:#DF1A1D;fill-rule:nonzero}
    .fil1 {fill:#FEFEFE;fill-rule:nonzero}
   ]]>
  </style>
 </defs>
 <g id="Capa_x0020_1">
  <metadata id="CorelCorpID_0Corel-Layer"/>
  <g id="Cornell_x0020_Big_x0020_Red.cdr">
   <path class="fil0" d="M676.18 5.59c3.12,-2.89 6.63,-6.15 11.3,-5.51 217.84,-0.02 435.7,0.05 653.57,-0.02 3.79,-0.26 7.61,0.61 10.22,3.58 70.5,66.2 140.96,132.48 211.48,198.67 5.21,5.13 11.33,9.51 15.38,15.66 1.44,17.43 0.13,35.04 0.56,52.51 0.03,75.86 -0.02,151.7 0.03,227.53 -0.97,1.08 -2.9,3.25 -3.87,4.33 -35.93,0.15 -71.89,-0.03 -107.82,0.08 -9.97,14.32 -24.19,25.06 -40.08,32.03 12.51,20.38 19.38,44.95 13.74,68.69 60.25,28.57 115.04,68.22 161.89,115.6 60.94,61.46 108.87,134.99 145.41,213.23 6.72,15.79 12.23,32.09 18.43,48.1l0 6.18c-10.15,-2.56 -20.07,-5.87 -30.01,-9.07 10.4,50.15 19.81,100.74 22.73,151.95 2.72,55.81 -9.86,113.02 -39.54,160.68 -23.12,35.86 -55.03,65.1 -88.91,90.57 -45.74,33.99 -96.08,61.31 -147.64,85.4 -40.93,18.65 -83.42,34.24 -127.24,44.56 -6.33,1.39 -12.2,4.16 -17.89,7.13 -38.34,19.4 -76.73,39.21 -117.63,52.77 -52.9,16.96 -107.77,31.01 -163.72,29.67 -40.8,-0.87 -82.8,-11.79 -114.81,-38.05 -17.5,-1.77 -34.67,-7.72 -48.82,-18.28 -4.1,-2.05 -5.23,-5.97 -4.28,-10.22 13.94,1.56 27.75,4.38 41.8,5.05 -7.13,-9.2 -19.17,-12.28 -27.47,-20.25 -6.82,-4.64 -11.28,-13.56 -20.23,-14.33 -20.52,-3.56 -40.31,-11.4 -57.25,-23.57 0.39,-1.57 1.21,-4.69 1.62,-6.26 13.78,1.72 27.55,3.69 41.36,5.39 -0.9,-4.29 -1.74,-8.54 -2.64,-12.79 -64.58,0.07 -129.17,0.1 -193.72,0.02 -6.67,0.39 -10.61,-6.02 -15.25,-9.76 -71.02,-70.84 -142.7,-141.03 -213.89,-211.72 -5.72,-6.51 -16.17,-11.48 -15.66,-21.32 0.02,-37.57 0.02,-75.14 0,-112.68 -38.01,-19.17 -75.07,-42.57 -102.28,-75.89 -10.05,-11.81 -17.02,-25.76 -25.63,-38.54 -13.79,-21.1 -27.63,-42.16 -41.47,-63.25 -21.32,-31.14 -16.81,-71.97 -3.71,-105.44 -6.74,1.75 -13.82,4.97 -20.66,1.77 4.31,-31.26 17.27,-60.74 34.5,-86.96 19.73,-29.88 44.59,-56.04 71.37,-79.67 34.39,-30.6 71.66,-58.05 111.59,-80.96 0.02,-120.17 0.05,-240.37 0,-360.54 0.12,-3.59 -0.21,-7.86 3.17,-10.15 73.91,-68.71 148.06,-137.21 221.97,-205.92z"/>
   <path class="fil1" d="M489.53 232.86c69.35,-64.76 139.21,-128.93 208.58,-193.67 211.62,-0.02 423.2,-0.02 634.81,0 69.15,64.58 138.83,128.6 208,193.13 -0.08,75.94 0,151.85 -0.03,227.79 -24.11,0 -48.23,0 -72.35,0 0.49,-4.28 1.01,-8.56 1.54,-12.84 19.53,0.02 39.09,0.02 58.64,0.02 0.03,-69.32 -0.05,-138.62 0.05,-207.94 -66.68,-62.66 -133.6,-125.09 -200.13,-187.91 -208.71,-0.2 -417.43,-0.13 -626.14,-0.02 -66.64,62.25 -133.5,124.24 -200.13,186.46 -0.16,177.17 0.05,354.36 -0.1,531.53l0 0.28c-4.26,0.9 -8.46,1.82 -12.69,2.8 -0.15,-179.89 -0.03,-359.75 -0.05,-539.63zm-23.07 885.73c4.26,0.49 8.51,1 12.79,1.52l0 1.38c0,27.16 0,54.33 -0.02,81.5 69.96,69.01 140.1,137.82 209.68,207.22 39.73,0.24 79.45,-0.15 119.17,0.16 8.44,2.79 15.59,8.89 23.33,13.3 -49.39,0.13 -98.75,0.02 -148.13,0.05 -54.54,-55.1 -110.1,-109.12 -164.72,-164.15 -17.06,-17.48 -35.13,-33.9 -52.12,-51.46 0.02,-29.83 0,-59.69 0.02,-89.52zm641.17 -276.24c2.4,-4.56 4.94,-9.95 10.45,-11.28 2.46,11.71 3.87,23.63 7.1,35.19 3.28,-0.85 6.46,-1.95 9.56,-3.28 5.36,0.05 9.2,3.38 12.4,7.35 5.23,-6.51 13.43,-2.02 17.33,3.46 4.92,-4.02 11.48,-2.56 15.04,2.44 3.9,-0.36 7.82,-0.51 11.76,-0.1 0.62,1.94 1.88,5.81 2.49,7.76 9.71,-8.2 15.87,-19.68 25.07,-28.39 1.64,3.15 1.97,6.43 0.97,9.86 -2.87,13.56 -9.3,26.68 -19.35,36.34 -4.92,3.21 -11.12,-0.05 -11.76,-5.81 -4.74,3.35 -9.72,1.82 -12.69,-2.93 -5.79,2.98 -14.12,1.67 -15.48,-5.69 -3.02,1.8 -6.15,3.39 -9.28,4.95 -2.69,-2.59 -5.33,-5.2 -7.94,-7.84 -5.79,4.23 -15.38,4.74 -19.25,-2.28 -5.87,5.38 -16.3,4.89 -20.04,-2.72 -2.77,-12.25 -1.72,-25.6 3.62,-37.03zm-274.69 -14.1c4.72,4.64 9.41,9.33 14.07,14.05 -0.02,97.69 0,195.41 0,293.11 111.28,0 222.53,0.02 333.81,0 0,-41.01 0,-82.01 0,-123.02 73.14,0 146.28,0 219.43,0 1.87,4.26 3.76,8.51 5.71,12.76 -70.14,0.11 -140.26,0.03 -210.38,0.03 -0.08,41 0,82.01 -0.05,123.01 -120.86,0.03 -241.72,0.03 -362.59,0 -0.05,-104.2 0,-208.43 -0.02,-312.63 0,-1.82 0,-5.49 0.02,-7.31zm309.46 -98.13c31.35,6.15 63.97,15.71 95.93,8.41 7.46,5.77 15.55,10.79 22.68,17.02 5.84,7.79 0.59,18.04 -5.43,24.01 -5.33,5.53 -9.26,12.84 -16.43,16.2 0.25,-10.84 3.61,-21.33 3.87,-32.19 -3.18,2 -5.67,5.53 -9.51,6.12 -4.87,-0.84 -6.84,-5.48 -9.1,-9.2 -4.89,5.41 -16.96,7.23 -16.66,-2.89 -3.64,-0.29 -7.02,1 -10.25,2.41 -3.74,-1.26 -8.15,-2.23 -7.79,-7.41 -5.3,1.33 -11.35,4.79 -16.4,0.92 -1.87,-3.64 -3.31,-7.43 -4.95,-11.15 -6.45,6.74 -11.89,14.33 -17.4,21.84 -3.33,0.36 -6.64,0.72 -9.94,1.07 -1.67,-11.71 -1.18,-23.6 1.38,-35.16zm77.91 -100.43c9.64,-8.61 24.19,-4.28 34.57,0.74 15.51,8.28 32.6,15.22 50.54,13.76 5.97,-1.07 10.2,3.82 11.3,9.2 -21.65,-2.94 -45.9,-0.18 -64.14,-14.5 -8.97,-7.64 -21.27,-7.49 -32.27,-9.2zm90.6 -54.13c4.92,10.35 9.58,-4.69 15.96,-5.05 -0.46,4.05 -0.94,8.13 -1.43,12.17 -3.1,2.21 -6,6.41 -10.33,5.31 -5.64,-0.21 -7.92,-6.25 -11.35,-9.66 2.35,-0.95 4.74,-1.87 7.15,-2.77zm-221.15 -55.87c3.31,2.26 6.61,4.54 9.9,6.84 -3.08,4.36 -2.21,9.46 0.74,13.59 4.2,-0.23 7.92,-1.87 10.79,-5.03 2.92,2.54 5.87,5.08 8.81,7.64 -5.66,8.3 -17.89,9.79 -26.47,5.77 -8.51,-6.69 -8.38,-19.81 -3.77,-28.81zm-198.72 -254.54c101.49,0.44 203,0.05 304.52,0.18 -0.03,28.09 0.02,56.15 -0.03,84.24 -4.95,-2.94 -9.84,-5.92 -14.74,-8.87 0.08,-21.06 0.03,-42.13 0.03,-63.19 -89.14,0 -178.27,0.02 -267.4,-0.03 -6.77,-5.25 -14.43,-9.17 -22.38,-12.33z"/>
   <path class="fil2" d="M702.5 51.42c208.71,-0.11 417.43,-0.18 626.14,0.02 66.53,62.82 133.45,125.25 200.13,187.91 -0.1,69.32 -0.02,138.62 -0.05,207.94 -19.55,0 -39.11,0 -58.64,-0.02 1.05,-24.5 -5.71,-49.98 -22.47,-68.41 -15.3,-16.55 -35.96,-28.26 -57.95,-33 -28.01,-5.46 -55.51,7.25 -77.37,23.73 -6.71,4.87 -11.71,11.56 -16.22,18.4 -20.71,-17.99 -48.57,-25.37 -75.58,-25.19 -10.28,0.87 -16.91,-8.43 -24.96,-13.23 0.05,-28.09 0,-56.15 0.03,-84.24 -101.52,-0.13 -203.03,0.26 -304.52,-0.18 -23.14,-6.2 -48.69,-7.97 -70.99,2.34 -30.52,13.68 -50.23,42.97 -63.63,72.5 -10.94,24.42 -12.28,52.77 -3.2,78.01 8.35,22.47 19.34,45.9 40.05,59.53 -26.22,29.32 -44.03,66.25 -49.08,105.36 -4.53,31.52 -1.15,63.66 6.03,94.52 5.15,-1.87 10.32,-3.69 15.5,-5.54 -0.92,18.33 -0.74,36.7 -2.05,55 -1.61,17.63 4.02,34.93 11.1,50.84 10.89,26.63 31.49,48.03 55,64.08 0.79,-1.57 2.35,-4.67 3.15,-6.23 0.02,104.2 -0.03,208.43 0.02,312.63 120.87,0.03 241.73,0.03 362.59,0 0.05,-41 -0.03,-82.01 0.05,-123.01 70.12,0 140.24,0.08 210.38,-0.03 14.33,35.11 23.94,74.35 14.87,112.05 -6.92,30.09 -26.99,55.77 -51.88,73.4 -14.94,10.84 -31.36,19.48 -48.38,26.55 -0.05,-5 -0.1,-9.97 -0.13,-14.94 -29.65,16.48 -61.84,28.62 -95.16,35.06 -75.16,-12.43 -151.07,-26.35 -227.62,-22.53 -29.2,2.05 -60.05,5.82 -84.81,22.71 -11.51,7.86 -19.76,19.88 -23.14,33.39 -15.38,-0.59 -29.7,-6.51 -43.7,-12.35 -2.38,5.07 -1.23,10.76 2.23,15.07 9.02,11.91 24.07,16.42 37.83,20.24 -13.12,10.33 -21.22,25.81 -23.96,42.16 -17.1,-0.28 -34.44,-2.95 -49.59,-11.22 -0.87,7.4 6.17,12.63 10.63,17.63 9.84,9.27 22.38,14.96 35.06,19.32 -3.84,8.92 -6.66,18.32 -7.17,28.09 -13.64,-1.49 -27.3,-2.79 -40.93,-4.18 -0.51,1.21 -1.51,3.59 -2.03,4.77 -39.72,-0.31 -79.44,0.08 -119.17,-0.16 -69.58,-69.4 -139.72,-138.21 -209.68,-207.22 0.02,-27.17 0.02,-54.34 0.02,-81.5 41.26,7.51 86.06,11.63 125.45,-5.87 22.91,-9.92 40.11,-29.68 50,-52.28 19.12,-1.41 40.54,-3.51 55.2,-17.17 0.26,-0.98 0.77,-2.95 1.03,-3.92 -17.12,-1.03 -34.32,-1.26 -51.46,-1.67 11.84,-10.25 22.14,-23.37 24.09,-39.41 18.01,-1.06 37.62,-4.72 50.41,-18.61 -1.05,-0.64 -3.15,-1.92 -4.2,-2.59 -15.97,-1.33 -32.07,-1.08 -48.08,-1.59 7.66,-10.84 13.66,-23.06 14.55,-36.49 17.84,-1.74 39.06,-4.82 49.72,-21.04 -16.55,1.82 -33.31,1.69 -49.84,-0.44 -2.47,-6.2 -5.85,-12.2 -6.87,-18.83 2.18,-8.1 4.66,-16.15 5.43,-24.56 20.12,-7.56 44.77,-16.27 52.49,-38.46 -7.08,0.94 -13.1,5.07 -19.87,6.99 -13.45,3.92 -27.44,5.84 -41.38,6.85 -3.69,-5.18 -7.36,-10.33 -10.97,-15.54 1.43,-6.02 2.84,-12.04 4.28,-18.06 15.99,-8.08 32.65,-16.94 43.31,-31.86 -0.23,-1.23 -0.75,-3.66 -0.98,-4.87 -14.91,8.72 -31.67,14.05 -48.92,15.28 -4.74,-22.1 -24.88,-36.83 -46.39,-40.19 -41.62,-7.15 -83.52,3.26 -123.98,12.25 0.15,-177.17 -0.06,-354.36 0.1,-531.53 66.63,-62.22 133.49,-124.21 200.13,-186.46z"/>
   <path class="fil3" d="M1566.24 808.06c6.71,3.59 13.25,7.61 19.27,12.35 35.32,27.01 66.56,60.36 87.27,99.98 21.91,43.33 39.28,89.28 48.77,137 10.22,52.41 9.53,108.03 -9.03,158.54 -16.3,46.44 -47.2,86.44 -83.72,118.89 -44.26,38.54 -96.03,68.01 -150.23,90.16 9.66,-10.28 22.78,-15.97 33.75,-24.61 14.76,-11.5 30.42,-22.73 40.85,-38.59 14.04,-20.97 27.98,-42.03 42.64,-62.59 4.26,-5.89 7.08,-12.76 8.05,-19.96 5.59,-38.9 3.72,-78.63 -2.97,-117.27 -5.74,19.45 -9.36,39.54 -17.1,58.38 -16.09,40.05 -39.03,77.75 -68.94,109.02 5.46,-15.38 13.2,-30.04 16.46,-46.16 3.05,-12.89 3.07,-26.22 1.56,-39.31 -13.33,22.83 -25.4,46.39 -38.34,69.42 -9.97,17.59 -18.09,37.19 -34.24,50.21 -7.28,6.2 -15.94,10.35 -24.63,14.15 3.03,-11.2 6.46,-22.32 8.46,-33.76 -16.53,20.02 -28.04,43.83 -45.77,62.87 -17.22,17.02 -39.11,29.34 -62.43,35.8 0.38,-21.14 3.64,-42.08 4.41,-63.2 -10.33,14.43 -18.92,30.14 -31.06,43.24 -30.14,33.14 -70.45,55.66 -112.69,69.55 -44.62,15.28 -91.67,21.97 -138.55,25.43 -13.86,1.17 -28.37,-1.59 -40.05,-9.41 -6.67,-4.36 -9.51,-12.74 -9.28,-20.4 0.95,-5.66 5.18,-9.99 8.2,-14.66 -18.96,-1.33 -38.9,-7.51 -51.61,-22.37 -7.23,-9.54 -1.36,-21.56 2.79,-31.06 -11.89,-5.59 -27.83,-11.66 -29.65,-26.61 -0.95,-13.32 12.86,-19.6 22.06,-25.98 -7.91,-7.56 -15.07,-18.4 -11.14,-29.76 4.79,-13.17 19.63,-16.94 31.75,-20.11 -5.02,-9.79 -11.64,-21.92 -4.69,-32.5 6.53,-8.76 17.73,-12.23 25.5,-19.76 55.18,-2.36 110.66,1.49 165.15,10.38 19.96,3 39.18,9.3 58.25,15.48 24.4,-7.15 48.44,-15.56 72.76,-23.02 -1,4.16 -1.95,8.39 -2.92,12.56 48.07,-10.53 97.59,-28.65 131.08,-66.35 26.84,-29.85 37.78,-71.09 35.75,-110.58 -2.69,-54.33 -21.83,-106.28 -44.95,-154.98 4.26,-5.48 8.41,-11.04 12.71,-16.47 22.63,20.09 34.35,49.79 39.06,79.11 3.36,18.22 1.49,36.83 2.85,55.25 21.45,-34.18 18.7,-77.01 10.61,-114.91 33.21,41.59 45.85,97.13 40.03,149.51 -1.67,21.27 -8.59,41.54 -12.48,62.38 35.13,-33.75 57.38,-82.39 55.07,-131.55 -0.77,-30.68 -11.79,-59.66 -23.94,-87.39 24.04,18.68 39.45,45.72 53.28,72.27 2.11,-26.34 -0.81,-53.15 -8.91,-78.32 -10.66,-31.19 -29.71,-59.51 -55.05,-80.62 -11.23,-9.97 -24.37,-17.33 -36.11,-26.58 24.01,5.12 46.05,16.71 66.94,29.24 31.03,18.45 56.28,44.67 79.83,71.63 -5.56,-21.04 -14.79,-40.95 -25.24,-59.97 -13,-23.86 -31.3,-44.03 -49.44,-63.99zm-1199.62 -120.48c27.5,-24.04 57.15,-45.54 87.67,-65.53 0,6.41 -0.03,12.84 -0.18,19.27 -28.83,30.7 -54.69,64.23 -77.81,99.44 24.66,-21.86 50.57,-42.29 77.94,-60.66 0,5.07 0.02,10.15 0,15.22 -17.3,19.17 -32.99,39.83 -46.29,61.97 -7.66,12.84 -16.22,25.29 -21.29,39.47 23.45,-18.3 43.67,-40.42 67.58,-58.21 0.02,4.46 0.02,8.92 0.05,13.41 -10.92,9.89 -23.68,18.35 -30.96,31.55 10.76,-5.38 20.81,-12.02 30.91,-18.53 0.02,6.07 0.02,12.15 0.05,18.22 -24.01,13.15 -46.31,29.16 -67.53,46.44 31.88,-10.89 63.76,-21.97 96.31,-30.73 33.34,-9 67.32,-16.97 102,-17.84 15.61,0.18 32.57,1.36 45.44,11.28 -21.91,-5.28 -44.44,-9 -66.99,-5.59 12.25,6.51 28.24,11.25 32.54,26.22 4.49,11.45 -5.48,20.91 -11.61,29.37 11.33,6.15 26.12,12.94 26.58,27.91 2.41,11.66 -7.97,19.35 -15.22,26.52 10.22,6.13 22.22,13.87 22.27,27.3 1.87,16.45 -14.33,25.52 -26.96,31.52 5.35,7.69 11.02,16.58 8.22,26.4 -3.17,15.3 -18.65,22.47 -31.67,27.88 3.41,10.81 12.04,25.01 1.97,34.75 -14.76,10.33 -33.19,15.02 -51.13,14.51 -31.37,0.05 -62.07,-8.92 -90.31,-22.12 -10.07,-4.41 -19.81,-9.61 -28.5,-16.4 10,-2.23 19.99,-4.62 29.73,-7.87 -23.91,-3.92 -47.28,-12.76 -65.79,-28.78 -14.22,-11.1 -24.32,-26.19 -35.72,-39.93 2.33,10.07 4.82,20.17 5.25,30.55 -5.15,-7.3 -8.79,-15.61 -14.5,-22.55 -9.38,-11.05 -19.58,-21.4 -28.66,-32.7 -8.81,-15.41 -9.79,-34.04 -8.25,-51.36 4.15,-33.65 21.89,-63.61 40.98,-90.93 -12.3,2.84 -24.45,6.33 -36.75,9.25 19.27,-38.37 48.77,-70.4 80.63,-98.72zm420.5 -343.03c18.91,-36.67 64.92,-57.13 104.69,-45.21 33.91,8.74 60.59,38.96 64.74,73.78 32.14,-21.98 72.58,-25.42 110.43,-24.44 -1.64,-2.82 -3.28,-5.64 -4.9,-8.44 46.9,-1.64 96.11,7.51 134.35,36.14 24.6,17.78 42.77,42.8 57.07,69.27 0.36,-17.91 -7.53,-34.52 -17.48,-48.95 41.42,3.1 77.71,28.37 105,58.26 15.25,17.96 29.88,37.23 37.7,59.73 6.71,16.46 13.25,32.96 20.04,49.39 3.33,7.61 4.66,15.97 4.56,24.27 0.74,25.47 -14.63,48.64 -12.12,74.32 2.43,17.38 0.74,36.08 -8.53,51.33 -17.35,34.75 -43.62,64.41 -58.51,100.52 -1.75,-3.23 -3.49,-6.46 -5.21,-9.67 -7.76,12.02 -15.78,23.97 -21.34,37.22 -7.49,17.83 -17.71,34.44 -29.12,50.02 -13.99,18.35 -31.32,35.04 -53.02,43.75 1.77,-7.51 3.53,-15.02 5.2,-22.53 -7.15,12.3 -16.15,23.53 -26.81,32.99 -8.12,7.02 -19.5,7.89 -29.78,8.25 -29.98,-0.28 -59.68,-9.13 -85.57,-24.14 -8.76,-4.75 -11.61,-15.15 -12.94,-24.27 -2.77,-20.3 -3.08,-42.21 -14.45,-60.02 -0.47,20.65 -0.62,41.77 -7.1,61.63 -5.62,-12.63 -10.69,-25.76 -18.97,-36.93 -10.43,-14.02 -27.88,-19.63 -40.44,-31.27 -15.81,-13.73 -25.37,-32.75 -34.44,-51.25 -2.41,9.12 -5.18,18.12 -8.49,26.93 -29.19,-43.15 -42.54,-95.77 -43.46,-147.51 -1.21,-44.31 7.17,-89.14 26.55,-129.12 6.3,-13.5 14.25,-26.14 21.37,-39.21 -7.74,-0.53 -15.5,-1.1 -23.22,-1.79 12.1,-16.07 32.94,-20.17 51.77,-22.22 -3.1,10.64 -5.33,21.55 -5.66,32.68 7.07,-2.82 14.22,-5.46 21.48,-7.79 -7.85,15.42 -16.05,33.11 -9.08,50.51 9.25,22.47 29.65,38.49 50.34,50.1 -15.41,-20.14 -32.4,-42.29 -31.09,-69.14 0,-24.68 16.53,-44.19 31.19,-62.28 -11.71,0.26 -23.17,2.69 -34.42,5.82 3.2,-10.13 6.87,-20.09 10.48,-30.06 -35.11,-3.16 -72.24,5.02 -99.67,28.03 -17.63,14.89 -33.23,33.52 -41.33,55.36 5.12,-1.33 10.25,-2.72 15.37,-4.07 -7.43,19.96 -14.78,40.05 -18.47,61.12 -8,42.54 -4.9,86.54 5.15,128.45 3.92,17.22 12.2,33 16.6,50.07 -13.35,-7.87 -21.7,-21.37 -29.55,-34.26 -20.65,-34.68 -26.8,-76.53 -22.24,-116.28 1.33,-12.99 4.05,-25.8 5.61,-38.77 -8.92,4.76 -17.73,9.71 -26.75,14.3 -6.51,-32.73 0.92,-66.81 15.42,-96.41 3.93,-7.62 7.39,-15.46 11.02,-23.22 4.85,-4.85 9.77,-9.64 13.74,-15.23 -8.46,3.36 -16.53,7.61 -24.22,12.46 -22.37,-11 -40.08,-30.99 -46.54,-55.23 -5.3,-21.99 -5.69,-46.51 5.05,-66.99zm32.16 -18.4l0 0c5.77,2.28 11.59,4.43 17.41,6.64 -6.9,4.84 -14.15,9.45 -19.48,16.09 -12.43,14.35 -12.25,34.44 -10.36,52.23 1.03,17.63 9.79,35.34 25.79,43.85 12.84,-12.35 28.39,-21.27 44.44,-28.81 -4.11,6.54 -7.56,13.43 -10.31,20.66 23.22,-15.58 45.01,-33.26 69.05,-47.59 -1.7,0.02 -5.08,0.05 -6.77,0.08 3.07,-27.76 -17.66,-51.03 -39.88,-64.41 -21.58,-12.25 -48.1,-8.25 -69.89,1.26zm331.5 88.67l0 0c4.13,4.31 8.54,8.3 12.94,12.33 12.82,11.68 21.07,27.24 29.32,42.26 3.54,6.23 6.18,12.91 7.77,19.91 -17.12,-15.43 -25.63,-38.34 -44.18,-52.38 -18.38,-15.25 -43.8,-19.48 -66.89,-15.38 -14.23,2.67 -29.83,4.54 -41.14,14.46 24.32,-1.77 50.82,-6.8 73.63,4.4 26.45,17.48 40.75,46.98 58.64,72.1 18.66,25.88 45.52,50.1 79.11,51.17 -0.2,2.36 -0.41,4.75 -0.58,7.13 4.45,-0.28 9.3,0.46 13.35,-1.95 23.19,-12.04 33.77,-38.36 55.53,-52.18 6.44,-4.56 14.38,-1.48 21.43,-0.59 -2.03,-6.81 -6.08,-14.32 -13.84,-15.48 -14.61,-2.17 -26.55,8 -38.78,14.12 4.59,-13.78 9.92,-27.57 10.48,-42.31 -11.37,15.61 -21.11,34.11 -39.21,42.93 -8.81,4.15 -21.88,6.51 -28.11,-3.05 -11.07,-15.4 -16.71,-33.98 -27.37,-49.69 -13.22,-23.17 -34.96,-43.39 -62.1,-47.8zm-97.25 74.76l0 0c4.66,3.35 9.4,6.58 14.14,9.86 -8.53,0.83 -17.07,1.72 -25.55,2.93 11.23,2.53 22.48,5.15 33.27,9.33 -10.61,13.68 -7.36,35.54 6.86,45.49 15.41,10.4 39.73,5.84 47.24,-12.25 4.69,6.07 9.63,11.96 14.99,17.47 -3.77,-22.88 -13.17,-46.59 -32.55,-60.63 -16.68,-12.23 -38.39,-14.43 -58.4,-12.2zm249.28 70.86l0 0c-10.48,8.41 -20.53,17.4 -31.96,24.55 9.61,1.77 16.97,8.28 19.17,17.89 -6.51,0.59 -13.02,1.03 -19.53,1.44 12.99,4.28 26.01,12.12 29.37,26.42 -25.78,1.77 -46,-19.43 -71.68,-17.63 -21.81,-0.52 -42.54,19.37 -40.18,41.62 2.99,7.09 9.35,12.48 15.47,16.99 9.85,3.87 20.15,-2.49 27.02,-9.28 3.38,-2.69 6.02,-7.15 10.66,-7.69 5.82,1.1 14.3,3.38 14.37,10.74 -1.71,14.2 -15.04,22.53 -27.7,26.19 7.79,7.2 15.84,14.1 23.71,21.25 9.48,-3.03 18.83,-6.44 28.24,-9.64 -9.18,-9.69 -6.56,-24.47 1.13,-34.19 4.2,-5.3 13.25,-4.28 16.86,1.23 1.64,8.72 -4.72,16.71 -2.95,25.53 7.02,0.08 14.02,-0.8 20.92,-2.23 4.38,17.07 -5.13,33.44 -13.82,47.44 -7.89,12.3 -19.37,23.5 -20.3,38.95 17.76,-18.07 40.8,-33.16 49.57,-58.02 6.15,-16.25 2.84,-34.06 -3.72,-49.59 2.36,-7.72 4.97,-16.2 1.85,-24.09 -1.98,-6.64 -9.43,-10.36 -10.05,-17.45 -1.38,-9.62 -2.33,-19.28 -3.79,-28.89 8.74,-1.41 19.71,-0.79 25.06,-9.38 6.03,-6.53 3.8,-15.68 2.98,-23.58 4.56,-0.05 9.12,-0.2 13.71,0.16 0.36,12.2 0.87,24.91 -3.98,36.39 -4.4,11.87 -12.73,21.53 -20.01,31.63 17.48,0.12 33.6,-11.79 38.34,-28.66 5.2,-13.73 -2.79,-27.65 -11.12,-38.18l0.84 -1.49c-3.66,-2.23 -7.3,-4.46 -10.92,-6.74 2.57,-0.46 7.67,-1.36 10.23,-1.82 -17.5,-9.87 -40.77,-11.76 -57.79,0.13zm-123.5 9.53l0 0c0.77,1.21 2.33,3.57 3.1,4.77 16.68,-0.74 34.44,-6.3 50.33,1.41 7.48,2.69 14.23,9.51 22.76,7.1 -9.3,-7.71 -19.27,-14.63 -29.5,-21.04 -15.32,-8.59 -33.65,-1.97 -46.69,7.76zm-100.52 36.04l0 0c3.13,1.2 6.26,2.3 9.49,3.33 -12.95,3.56 -25.99,6.82 -38.96,10.33 1.9,1.87 6.02,2.28 6.36,5.4 -10.33,6.8 -21.33,12.92 -29.6,22.35 -18.53,18.86 -26.68,45.9 -25.94,71.94 6,-2.51 11.94,-5.15 17.86,-7.89 -1.84,10.07 -3.58,20.24 -3.25,30.52 0.28,25.94 12.17,50.64 28.81,70.07 -1.21,-11.51 -0.9,-23.09 -1.85,-34.6 2,-19.43 4.61,-39.01 11.38,-57.46 7.61,-22.63 20.83,-42.93 36.62,-60.69 -7.46,2.72 -14.94,5.44 -22.47,7.95 15.58,-21.86 40.1,-34.29 58.33,-53.49 7.5,-7.58 15.14,-16.43 15.47,-27.68 -20.83,6.41 -41.64,12.84 -62.25,19.92zm128.58 -12.36l0 0c6.79,2 13.86,-0.38 20.78,0.82 8.36,1.11 16.25,5.9 24.89,3.95 -6.18,-6.25 -13.38,-12.35 -22.4,-13.58 -8.71,-1.46 -17.3,2.71 -23.27,8.81zm-140.08 141.11l0 0c-12.05,11.25 -11.69,29.27 -7.85,44.06 3.98,-8.43 7.57,-17.43 15,-23.53 8.48,28.96 11.94,59.23 11.58,89.37 0.13,18.65 -1.1,37.72 3.41,56.02 5.02,13.02 19.68,17.91 32.01,21.35 -6.23,-5.28 -12.2,-11.15 -14.99,-19.02 24.06,14.15 53,18.32 80.52,16.79 15.84,-1.13 32.09,-10.49 36.8,-26.37 7.36,-24.1 14.56,-48.26 21.66,-72.43 7.1,-22.35 22.42,-40.54 34.65,-60.15 -10.92,-13.12 -28.04,-21.71 -33.06,-38.98 -21.61,0.85 -43.21,1.95 -64.84,2.56 -19.68,-1.43 -39.01,-6.92 -58.9,-5.84 -19.37,0.69 -40.97,2.51 -55.99,16.17zm586.55 236.96l0 0c2.43,17.5 7.43,34.52 9.66,52.1 10.07,63.63 7.76,130.17 -13.66,191.34 -3,8.2 -6.61,16.22 -8.87,24.7 5.61,-6.15 9.12,-13.78 12.76,-21.16 24.45,-47.39 36.96,-100.54 38.27,-153.75 0.53,-14.25 -6.67,-27.06 -11.2,-40.13 -7.56,-18.32 -15.28,-36.98 -26.96,-53.1z"/>
   <path class="fil4" d="M1354.76 381.79c23.5,-8.64 53.07,-4.67 70.01,14.91 19.02,17.51 24.43,46.62 15.3,70.4 -6.69,18.74 -23.22,31.88 -41.31,38.86 -3.82,-7.49 -7.13,-15.23 -10.33,-22.99 13.69,-8.62 28.58,-19.12 32.5,-35.83 2.59,-8.1 -1.1,-16.12 -2.87,-23.94 2.05,-0.18 6.15,-0.54 8.2,-0.72 -12.71,-12.48 -27.88,-26.14 -46.87,-25.75 -16.43,1.02 -27.96,14.12 -37.96,25.75 -6.18,-4.17 -12.3,-8.45 -18.3,-12.86 7.66,-11.94 17.99,-22.91 31.63,-27.83zm229.03 838.55c7.74,-18.84 11.36,-38.93 17.1,-58.38 6.69,38.64 8.56,78.37 2.97,117.27 -0.97,7.2 -3.79,14.07 -8.05,19.96 -14.66,20.56 -28.6,41.62 -42.64,62.59 -10.43,15.86 -26.09,27.09 -40.85,38.59 -10.97,8.64 -24.09,14.33 -33.75,24.61 -8.87,5.69 -19.56,7.81 -29.01,12.4 -38.24,17.4 -78.61,29.6 -119.28,39.75 -31.5,13.99 -61.63,31.06 -92.95,45.49 -46.34,19.63 -94.85,35.57 -145.18,40.44 -39.06,3.49 -79.4,0.21 -115.84,-15.09 5.89,-5.72 12.22,-10.92 18.12,-16.59 -10.28,-1.2 -20.61,-1.89 -30.91,-2.92 2.15,-7.58 6.51,-14.22 10.99,-20.6 -18.37,0.74 -36.95,-4.8 -50.92,-16.97 6.59,-3.59 13.2,-7.15 19.71,-10.84 -10.82,-2.54 -21.73,-4.64 -32.57,-7.02 -1.13,-8.46 -0.36,-17.07 5.38,-23.78 -8.64,-5.51 -17.4,-10.77 -25.86,-16.48 7.48,-3.08 14.97,-6.1 22.3,-9.49 -10.03,-4.27 -20.48,-7.32 -30.68,-11.07 2.74,-11.32 13.27,-17.58 22.63,-22.98 -3.64,-3.36 -6.61,-7.31 -8.87,-11.69 7.64,-3.2 15.3,-6.31 22.96,-9.46 -8.84,-4.02 -17.94,-7.48 -26.93,-11.09 3.59,-14.38 16.73,-23.02 30.21,-26.91 -1.97,-4.9 -3.82,-9.82 -5.53,-14.77 10.76,-2.84 21.58,-5.4 32.39,-8.12 -9.22,-4.2 -18.81,-7.48 -28.21,-11.25 2.76,-14.53 17.55,-20.73 30.24,-24.32 16.68,-4.26 33.93,-6.33 51.15,-6.64 -7.77,7.53 -18.97,11 -25.5,19.76 -6.95,10.58 -0.33,22.71 4.69,32.5 -12.12,3.17 -26.96,6.94 -31.75,20.11 -3.93,11.36 3.23,22.2 11.14,29.76 -9.2,6.38 -23.01,12.66 -22.06,25.98 1.82,14.95 17.76,21.02 29.65,26.61 -4.15,9.5 -10.02,21.52 -2.79,31.06 12.71,14.86 32.65,21.04 51.61,22.37 -3.02,4.67 -7.25,9 -8.2,14.66 -0.23,7.66 2.61,16.04 9.28,20.4 11.68,7.82 26.19,10.58 40.05,9.41 46.88,-3.46 93.93,-10.15 138.55,-25.43 42.24,-13.89 82.55,-36.41 112.69,-69.55 12.14,-13.1 20.73,-28.81 31.06,-43.24 -0.77,21.12 -4.03,42.06 -4.41,63.2 23.32,-6.46 45.21,-18.78 62.43,-35.8 17.73,-19.04 29.24,-42.85 45.77,-62.87 -2,11.44 -5.43,22.56 -8.46,33.76 8.69,-3.8 17.35,-7.95 24.63,-14.15 16.15,-13.02 24.27,-32.62 34.24,-50.21 12.94,-23.03 25.01,-46.59 38.34,-69.42 1.51,13.09 1.49,26.42 -1.56,39.31 -3.26,16.12 -11,30.78 -16.46,46.16 29.91,-31.27 52.85,-68.97 68.94,-109.02zm70.05 -248.62c11.68,16.12 19.4,34.78 26.96,53.1 4.53,13.07 11.73,25.88 11.2,40.13 -1.31,53.21 -13.82,106.36 -38.27,153.75 -3.64,7.38 -7.15,15.01 -12.76,21.16 2.26,-8.48 5.87,-16.5 8.87,-24.7 21.42,-61.17 23.73,-127.71 13.66,-191.34 -2.23,-17.58 -7.23,-34.6 -9.66,-52.1zm-1090.32 -184.96c22.55,-3.41 45.08,0.31 66.99,5.59 6.23,4.1 8.05,11.97 10.89,18.42 -7.48,4.26 -15.38,7.77 -22.76,12.25 0.08,0.49 0.23,1.47 0.31,1.95 7.41,1.98 15.02,3.13 22.53,4.77 -4.08,5.97 -8.15,11.92 -12.28,17.86 10.38,3.23 20.5,8.43 26.55,17.87 -8.89,4.79 -18.27,8.63 -27.39,12.99 10.09,2.72 20.22,5.3 30.19,8.46 -3.9,7.61 -9.49,14.17 -16.46,19.14 9.18,4.95 17.53,11.71 21.94,21.42 -7.13,3.98 -14.63,7.16 -22.07,10.49 6.82,3.12 13.61,6.3 20.33,9.66 -5.56,10.43 -14.43,19.17 -26.09,22.32 5.84,4.79 10.81,10.71 11.68,18.53 -7.53,3.54 -15.35,6.48 -22.75,10.35 6.27,2.31 12.63,4.38 19.01,6.41 -5.66,12.46 -18.6,18.91 -31.03,22.76 3.76,5.79 6.84,12.04 7.76,18.96 -7.28,3.33 -14.71,6.31 -22.09,9.38 4.74,2.95 9.84,5.33 15.09,7.28 -15.55,20.71 -43.13,26.27 -67.55,27.45 -45.44,0.97 -92.29,-6.72 -132.04,-29.73 -34.88,-19.99 -62.73,-51.28 -81.11,-86.75 -0.43,-10.38 -2.92,-20.48 -5.25,-30.55 11.4,13.74 21.5,28.83 35.72,39.93 18.51,16.02 41.88,24.86 65.79,28.78 -9.74,3.25 -19.73,5.64 -29.73,7.87 8.69,6.79 18.43,11.99 28.5,16.4 28.24,13.2 58.94,22.17 90.31,22.12 17.94,0.51 36.37,-4.18 51.13,-14.51 10.07,-9.74 1.44,-23.94 -1.97,-34.75 13.02,-5.41 28.5,-12.58 31.67,-27.88 2.8,-9.82 -2.87,-18.71 -8.22,-26.4 12.63,-6 28.83,-15.07 26.96,-31.52 -0.05,-13.43 -12.05,-21.17 -22.27,-27.3 7.25,-7.17 17.63,-14.86 15.22,-26.52 -0.46,-14.97 -15.25,-21.76 -26.58,-27.91 6.13,-8.46 16.1,-17.92 11.61,-29.37 -4.3,-14.97 -20.29,-19.71 -32.54,-26.22zm-140.19 -3.25c7.28,-13.2 20.04,-21.66 30.96,-31.55 -0.03,4.33 -0.05,8.69 -0.05,13.02 -10.1,6.51 -20.15,13.15 -30.91,18.53zm-15.38 -26.22c13.3,-22.14 28.99,-42.8 46.29,-61.97 0.02,14.4 0.05,28.81 0,43.23 -23.91,17.79 -44.13,39.91 -67.58,58.21 5.07,-14.18 13.63,-26.63 21.29,-39.47zm1035.58 -115.33c32.14,12.1 60.36,32.73 86.5,54.64 34.03,29.09 64.14,62.43 92.13,97.29 31.68,42.15 63.2,85.11 85.16,133.31 -11.58,-1.59 -22.78,-8.74 -34.54,-6.81 -20.71,-39.62 -51.95,-72.97 -87.27,-99.98 -6.02,-4.74 -12.56,-8.76 -19.27,-12.35 18.14,19.96 36.44,40.13 49.44,63.99 10.45,19.02 19.68,38.93 25.24,59.97 -23.55,-26.96 -48.8,-53.18 -79.83,-71.63 -20.89,-12.53 -42.93,-24.12 -66.94,-29.24 11.74,9.25 24.88,16.61 36.11,26.58 25.34,21.11 44.39,49.43 55.05,80.62 8.1,25.17 11.02,51.98 8.91,78.32 -13.83,-26.55 -29.24,-53.59 -53.28,-72.27 12.15,27.73 23.17,56.71 23.94,87.39 2.31,49.16 -19.94,97.8 -55.07,131.55 3.89,-20.84 10.81,-41.11 12.48,-62.38 5.82,-52.38 -6.82,-107.92 -40.03,-149.51 8.09,37.9 10.84,80.73 -10.61,114.91 -1.36,-18.42 0.51,-37.03 -2.85,-55.25 -4.71,-29.32 -16.43,-59.02 -39.06,-79.11 -4.3,5.43 -8.45,10.99 -12.71,16.47 -15.25,17.84 -36.39,29.53 -57.81,38.39 6.07,-13.01 12.19,-26.08 15.45,-40.13 -23.3,26.63 -58.05,38.65 -91.42,46.9 4.21,-12.04 8.92,-23.88 13.1,-35.93 -36.03,27.42 -78.93,46.85 -124.37,50.77 -49.26,5.23 -98.44,-7.02 -143.78,-25.5 18.69,15.99 40.57,27.75 63,37.62 19.22,8.72 40.03,12.92 59.84,19.94 0.02,0.79 0.1,2.36 0.13,3.15 -23.71,9.36 -49.9,8.51 -74.94,8.05 20.5,15.15 45.49,22.71 70.58,25.7 0.05,7.97 0.05,15.97 0,23.97 -89.03,0.07 -178.06,0.05 -267.09,0 -0.16,-71.74 0.17,-143.47 -0.16,-215.18 4.46,5.16 10.12,9.02 16.45,11.59 1.08,-5.95 2.05,-11.92 3.08,-17.89 14.74,11.4 30.86,22.06 49.62,25.19 18.4,2.69 36.87,7.28 52.94,16.99 14.64,8.43 26.07,21.4 34.37,35.99 0,-5.57 0,-11.13 0,-16.66 24.22,20.7 52.56,37.9 84.34,43.46 23.91,4.44 48.8,1 71.35,-7.74 37.96,-15.96 74.89,-37.88 100.26,-71.09 9.04,-11.58 16.22,-24.53 22.19,-37.93 3.9,6.18 7.92,12.28 12.2,18.22 7.3,-28.57 17.79,-56.61 34.19,-81.27 12.12,-17.83 24.01,-35.8 35.98,-53.74 10.43,-16.5 18.2,-34.59 24.06,-53.17 38.37,19.78 74.43,43.95 107.46,71.78 -24.55,-37.21 -55.35,-70.09 -89.69,-98.44 24.96,10.89 48.02,25.55 70.19,41.26 -18.91,-25.96 -40.62,-49.92 -65.02,-70.81zm-355.25 -32.62c4.97,0.69 9.94,1.38 14.94,2.13 -13.95,12.89 -30.45,22.68 -43.98,36 -14.66,16.79 -29.93,35.01 -32.98,57.92 5.25,-3.33 10.48,-6.69 15.71,-10.1 -8.72,26.43 -12.28,56.16 -0.26,82.17 0.95,11.51 0.64,23.09 1.85,34.6 -16.64,-19.43 -28.53,-44.13 -28.81,-70.07 -0.33,-10.28 1.41,-20.45 3.25,-30.52 -5.92,2.74 -11.86,5.38 -17.86,7.89 -0.74,-26.04 7.41,-53.08 25.94,-71.94 8.27,-9.43 19.27,-15.55 29.6,-22.35 -0.34,-3.12 -4.46,-3.53 -6.36,-5.4 12.97,-3.51 26.01,-6.77 38.96,-10.33zm268.94 -40.16c0.82,0.28 2.43,0.87 3.23,1.18 8.33,10.53 16.32,24.45 11.12,38.18 -4.74,16.87 -20.86,28.78 -38.34,28.66 7.28,-10.1 15.61,-19.76 20.01,-31.63 4.85,-11.48 4.34,-24.19 3.98,-36.39zm-448.96 -95.93c27.43,-23.01 64.56,-31.19 99.67,-28.03 -3.61,9.97 -7.28,19.93 -10.48,30.06 11.25,-3.13 22.71,-5.56 34.42,-5.82 -14.66,18.09 -31.19,37.6 -31.19,62.28 -1.31,26.85 15.68,49 31.09,69.14 -20.69,-11.61 -41.09,-27.63 -50.34,-50.1 -6.97,-17.4 1.23,-35.09 9.08,-50.51 -7.26,2.33 -14.41,4.97 -21.48,7.79 0.33,-11.13 2.56,-22.04 5.66,-32.68 -18.83,2.05 -39.67,6.15 -51.77,22.22 7.72,0.69 15.48,1.26 23.22,1.79 -7.12,13.07 -15.07,25.71 -21.37,39.21 -19.38,39.98 -27.76,84.81 -26.55,129.12 0.92,51.74 14.27,104.36 43.46,147.51 3.31,-8.81 6.08,-17.81 8.49,-26.93 9.07,18.5 18.63,37.52 34.44,51.25 12.56,11.64 30.01,17.25 40.44,31.27 8.28,11.17 13.35,24.3 18.97,36.93 -0.13,1.21 -0.41,3.64 -0.54,4.87 -9.48,-12.17 -21.63,-22.65 -37.09,-26.11 -36.52,-8.36 -76.01,-20.71 -98.89,-52.59 -3.98,6.81 -7.46,13.89 -11.64,20.55 -7.07,-4.77 -10.74,-13.33 -16.97,-19.17 -9.94,-12.51 -25.19,-19.68 -33.75,-33.32 -6.79,-9.76 -11.04,-20.88 -15.86,-31.62 -6.72,4.38 -8.46,13.81 -12.92,20.3 -16.09,-13.92 -21.6,-35.6 -23.27,-56 -3.07,-38.34 7.1,-76.94 0.46,-115.12 -7.71,-0.13 -12.86,8.07 -18.99,12.07 -9.58,-42.36 7.23,-85.29 30.6,-120.12 10.38,-14.66 20.48,-29.93 33.93,-41.95 -3.63,7.76 -7.09,15.6 -11.02,23.22 -14.5,29.6 -21.93,63.68 -15.42,96.41 9.02,-4.59 17.83,-9.54 26.75,-14.3 -1.56,12.97 -4.28,25.78 -5.61,38.77 -4.56,39.75 1.59,81.6 22.24,116.28 7.85,12.89 16.2,26.39 29.55,34.26 -4.4,-17.07 -12.68,-32.85 -16.6,-50.07 -10.05,-41.91 -13.15,-85.91 -5.15,-128.45 3.69,-21.07 11.04,-41.16 18.47,-61.12 -5.12,1.35 -10.25,2.74 -15.37,4.07 8.1,-21.84 23.7,-40.47 41.33,-55.36zm242.52 -58.43c27.14,4.41 48.88,24.63 62.1,47.8 10.66,15.71 16.3,34.29 27.37,49.69 6.23,9.56 19.3,7.2 28.11,3.05 18.1,-8.82 27.84,-27.32 39.21,-42.93 -0.56,14.74 -5.89,28.53 -10.48,42.31 12.23,-6.12 24.17,-16.29 38.78,-14.12 7.76,1.16 11.81,8.67 13.84,15.48 -7.05,-0.89 -14.99,-3.97 -21.43,0.59 -21.76,13.82 -32.34,40.14 -55.53,52.18 -4.05,2.41 -8.9,1.67 -13.35,1.95 0.17,-2.38 0.38,-4.77 0.58,-7.13 -33.59,-1.07 -60.45,-25.29 -79.11,-51.17 -17.89,-25.12 -32.19,-54.62 -58.64,-72.1 -22.81,-11.2 -49.31,-6.17 -73.63,-4.4 11.31,-9.92 26.91,-11.79 41.14,-14.46 23.09,-4.1 48.51,0.13 66.89,15.38 18.55,14.04 27.06,36.95 44.18,52.38 -1.59,-7 -4.23,-13.68 -7.77,-19.91 -8.25,-15.02 -16.5,-30.58 -29.32,-42.26 -4.4,-4.03 -8.81,-8.02 -12.94,-12.33z"/>
  </g>
 </g>
</svg>
