<?xml version="1.0" encoding="UTF-8"?>
<!DOCTYPE svg PUBLIC "-//W3C//DTD SVG 1.1//EN" "http://www.w3.org/Graphics/SVG/1.1/DTD/svg11.dtd">
<!-- Creator: CorelDRAW -->
<svg xmlns="http://www.w3.org/2000/svg" xml:space="preserve" width="2000px" height="1600px" version="1.1" style="shape-rendering:geometricPrecision; text-rendering:geometricPrecision; image-rendering:optimizeQuality; fill-rule:evenodd; clip-rule:evenodd"
viewBox="0 0 2000 1600"
 xmlns:xlink="http://www.w3.org/1999/xlink">
 <defs>
  <style type="text/css">
   <![CDATA[
    .fil0 {fill:#2C396C;fill-rule:nonzero}
    .fil1 {fill:#FBFDFB;fill-rule:nonzero}
   ]]>
  </style>
 </defs>
 <g id="Capa_x0020_1">
  <metadata id="CorelCorpID_0Corel-Layer"/>
  <g id="CSU_x0020_Buccaneers.cdr">
   <path class="fil0" d="M390.24 0l268.84 0c54.12,44.36 108.03,88.93 161.91,133.61 -0.09,66.24 -0.15,132.51 0.03,198.78 16.62,-12.96 32.83,-26.45 49.4,-39.43 3.94,-3.86 9.58,-3.5 14.66,-3.59 79.4,0.3 158.77,-0.15 238.15,0.21 11.76,9.82 23.85,19.26 35.7,28.96 0.12,-106.18 -0.18,-212.36 0.15,-318.54l587.76 0c0.48,235.64 0.03,471.28 0.24,706.96 -40.84,40.98 -81.91,81.73 -122.66,122.8 86.51,1.85 178.6,-12.15 248.72,-66.57l0 1.47c-69.35,87.4 -152,163.82 -242.9,228.36 -149.58,106.03 -317.04,183.7 -487.19,250.41 56.17,24.48 112.71,48.21 169.34,71.74 -0.57,22.41 -1.19,45.52 -9.28,66.74 -2.12,4.51 -5.29,12.6 -11.76,9.91 -95.53,-28.62 -190.42,-59.49 -284.48,-92.59 -5.97,-2.78 -12.3,-0.69 -18.06,1.37 -93.88,33.43 -188.93,63.34 -284.12,92.75 -4.06,-4.66 -8.03,-9.62 -9.64,-15.68 -6.3,-20.27 -7.2,-41.67 -7.8,-62.71 56.84,-22.99 113.23,-47.11 169.44,-71.56 -169.38,-66.47 -336.15,-143.64 -485.17,-248.98 -91.55,-64.9 -175.13,-141.58 -244.65,-229.79l0 -1.46c13.1,10.71 27.76,19.31 42.68,27.19 65.76,33.88 141.32,40.92 214.18,39.46 -46.95,-35.34 -94.12,-70.36 -141.13,-105.58 -0.18,-196.6 -0.03,-393.2 -0.09,-589.79 49.07,-45.02 98.48,-89.64 147.73,-134.45zm994.09 1307.76c13.34,-3.04 26.93,1.44 39.79,4.66 45.58,14.15 88.81,35.55 135.61,45.79 26.75,6.99 54.42,10.87 80.18,21.13 11.2,4.57 23.47,13.5 23.17,26.9 1.16,19.02 -14,34.69 -31.38,39.79 -33.97,10.78 -70.47,5.7 -104.59,-1.61 -43.44,-10.81 -86.48,-26.96 -122.6,-53.82 -17.61,-14.03 -36.15,-32.27 -36.69,-56.3 -0.83,-11.07 4.33,-24.45 16.51,-26.54zm-799.08 2.03c12.57,-2.68 27.41,-6.09 38.81,1.88 8.95,8.51 9.31,22.6 6.36,33.85 -6.42,21.74 -24.24,37.56 -42.15,50.21 -32.78,22.36 -70.39,36.81 -108.57,46.99 -33.7,8 -69.28,13.46 -103.55,5.7 -16.06,-3.73 -33.22,-13.07 -37.76,-30.12 -4.39,-11.52 -0.78,-25.91 9.88,-32.66 16.89,-10.86 37.1,-14.44 56.33,-19.13 30.56,-7.05 61.34,-13.73 90.74,-24.9 30,-10.53 59.08,-23.85 89.91,-31.82zm717.8 -118.68c9.97,-7.38 24.12,-6.69 35.37,-2.87 13.43,4.66 19.22,19.13 20.09,32.3 2.69,35.37 -10.36,69.64 -10.03,104.92 0.06,20.12 11.94,37.53 24,52.69 29.64,35.2 68.03,62.75 110.12,81.11 37.34,15.94 80.03,24.71 119.85,13.1 33.64,-9.43 60.99,-34.66 78.06,-64.57 12.9,2.33 27.4,7.02 33.7,19.65 9.94,20.56 -7.1,47.96 -29.67,49.28 -6.87,0.03 -12.84,-3.85 -18.84,-6.57 -4.23,30.63 -18.65,59.91 -41.52,80.93 -34.45,32.47 -82.3,46.8 -128.77,48.92l-14.36 0c-36.99,-1.7 -74.27,-10.57 -106,-30.12 -36.57,-21.79 -63.76,-59.28 -70.6,-101.58 -6.45,-43.37 0.39,-88.03 15.58,-128.93 8.42,-24.44 20.75,-48.05 23.02,-74.17 1.82,-20.24 -5.38,-40.12 -15.7,-57.23 -8.45,-0.21 -18.3,1.85 -25.35,-4.03 -4.36,-3.01 -3.4,-10.3 1.05,-12.83zm-645.56 -1.17c9.79,-5.13 21.68,-5.31 32.27,-2.83 5.46,1.79 11.17,6.03 11.17,12.35 -4.87,11.08 -18.96,8.36 -28.63,8.63 -7.97,14.12 -14.87,29.31 -15.52,45.79 -1.68,27.94 11.46,53.58 20.68,79.17 14.87,38.21 22.87,79.49 19.76,120.56 -2.56,35.23 -17.97,69.53 -43.61,93.97 -35.52,34.69 -85.64,50.21 -134.36,52.42l-14.44 0c-41.08,-1.91 -82.87,-12.83 -116.06,-37.91 -29.82,-21.58 -50.24,-55.7 -54.51,-92.33 -5.88,2.99 -11.76,7.08 -18.66,6.96 -22.92,-0.87 -39.85,-28.81 -29.91,-49.49 6.48,-11.65 19.85,-17.47 32.54,-19.2 3.55,3.73 6.39,8.09 9.34,12.3 15.52,23.34 38.69,41.88 65.41,50.72 31.07,10.41 65.13,7.58 96.14,-1.59 50.72,-15.67 96.99,-45.52 132.66,-84.74 14.99,-17.52 30.39,-38.15 29.76,-62.36 -0.89,-34.15 -12.62,-67.4 -10.24,-101.7 0.84,-11.76 5.14,-24.87 16.21,-30.72zm-248.89 -1148.12l0 0zm0 0c-41.38,38.78 -83.85,76.39 -125.05,115.34 0.12,182.36 0,364.72 0.06,547.08 45.46,33.7 90.9,67.43 136.27,101.22 3.34,2.36 6.75,5.41 11.23,4.87 72.05,0.18 144.14,-0.12 216.2,0.12 42.03,-34 83.97,-68.15 125.8,-102.42 0.06,-76.06 -0.03,-152.09 0.02,-228.15 -67.4,-0.06 -134.8,0 -202.2,-0.03 0,65.41 0,130.81 0,196.21 -25.11,0.06 -50.21,0 -75.35,0.03 -0.21,-162.66 0.03,-325.28 -0.12,-487.94 25.17,-0.39 50.3,-0.15 75.47,-0.12 0.03,50.21 -0.09,100.45 0.06,150.69 70.08,0.03 140.17,0.03 210.26,-0.03 0.15,-62.06 0,-124.12 0.09,-186.18 -42.59,-35.29 -85.25,-70.42 -127.67,-105.91 -2.98,-2.3 -6,-5.47 -10.18,-4.78 -78.3,-0.12 -156.59,-0.09 -234.89,0zm793.64 3.02l0 0zm0 0c0.21,102.71 -0.33,205.46 0.27,308.18 27.4,20.62 54.03,42.23 81.22,63.13 2.24,2.3 6.48,4.18 5.82,8.09 0.03,61.07 0.09,122.15 -0.09,183.19 -29.07,0 -58.14,-0.06 -87.19,0.03 0,18.96 -0.09,37.94 0.06,56.9 31.7,28.18 63.34,56.45 94.78,84.89 -0.03,5.86 -0.06,11.71 -0.09,17.59 14.74,13.25 29.28,26.74 44.12,39.88 3.28,3.22 8.32,1.73 12.44,2.24 78.6,-0.18 157.2,-0.06 235.8,-0.06 38.38,-39.32 79.28,-76.12 116.8,-116.18 1.23,-45.82 0.15,-91.7 0.51,-137.53 0,-170.14 0,-340.26 0,-510.41 -70.63,-0.03 -141.26,-0.12 -211.91,0.06 -0.06,201.73 0.21,403.46 -0.12,605.19 -24.6,-0.06 -49.17,0.03 -73.73,-0.06 -0.09,-201.73 -0.06,-403.46 0,-605.19 -72.9,-0.03 -145.79,-0.12 -218.69,0.06zm-325.88 289.85l0 0zm0 0c-38.12,30.95 -76.21,62 -114.45,92.8 0.48,4.33 -0.98,9.32 1.11,13.26 16.26,0.74 32.56,-0.06 48.86,0.3 0.21,91.94 0,183.88 0.09,275.82 -1.01,4.5 3.08,7.04 6.03,9.43 25.73,19.91 51.26,40.12 76.87,60.21 48.71,0.03 97.43,-0.18 146.18,0.12 0.03,53.43 0.09,106.86 -0.09,160.33 -22.09,0.03 -44.18,0 -66.27,0.03 -0.18,-28.63 -0.09,-57.26 -0.12,-85.85 -73.35,0.06 -146.69,0.02 -220,0 0.12,43.07 -0.54,86.2 0.3,129.28 45.13,39.37 91.28,77.73 137.13,116.36 72.27,-0.24 144.54,-0.12 216.84,-0.03 6.53,-0.3 14.3,1.49 19.07,-4.27 42.57,-37.19 85.61,-73.88 128.12,-111.2 -0.18,-78.5 -0.03,-157.04 -0.06,-235.55 -48.86,-41.28 -97.7,-82.6 -146.75,-123.67 -49.04,0.12 -98.11,0 -147.19,0.03 -0.21,-49.73 -0.06,-99.46 -0.12,-149.19 25.88,-0.24 51.76,-0.15 77.67,0 0.03,28.29 -0.06,56.62 0.03,84.95 70.36,0.03 140.75,0.06 211.11,-0.03 0.09,-40.84 -0.12,-81.7 0.12,-122.54 -47.82,-37.79 -94.99,-76.35 -142.45,-114.56 -73.43,-0.27 -146.87,0.03 -220.33,-0.15 -4.48,-0.6 -8.48,1.1 -11.7,4.12zm-337.38 45.76l0 0zm0 0c-0.23,19.94 -0.11,39.85 -0.08,59.79 61.16,-0.06 122.29,-0.03 183.43,0 0.06,-9.08 0.06,-18.12 -0.03,-27.13 13.31,-10.96 26.63,-21.86 40.12,-32.54 -74.48,-0.09 -148.96,0.15 -223.44,-0.12zm599.38 224.03l0 0zm0 0c9.4,8.12 19.04,16 28.6,23.97 0.12,-8 0.18,-15.97 0.23,-23.97 -9.61,-0.06 -19.22,-0.06 -28.83,0zm-481.91 248.39l0 0zm0 0c-71.02,0.24 -142,0.18 -213.02,0.03 110.03,80.98 226.33,153.22 346.24,218.62 -25.28,-20.41 -49.64,-41.97 -74.68,-62.71 -0.21,-62.9 -0.09,-125.76 -0.06,-188.66 52.29,-0.3 104.62,0.06 156.92,-0.18 -29.37,-23.79 -59.34,-46.81 -89.04,-70.18 -41.88,34.66 -84.48,68.39 -126.36,103.08zm639.07 -32.66l0 0zm0 0c0.09,63.64 -0.06,127.25 0.06,190.87 -12.95,11.88 -26.83,22.71 -39.49,34.95 104.45,-58.69 205.34,-123.7 302.21,-194.21 -75.4,0.96 -150.84,0.03 -226.21,0.48 -12.39,-10.48 -24.36,-21.4 -36.57,-32.09zm259.83 73.76l0 0zm0 0c-16.9,18.21 -36.78,33.32 -56.78,47.91 -56.06,39.88 -115.58,74.51 -175.49,108.21 -45.47,24.96 -91.14,49.7 -138.09,71.79 0.06,6.24 0.12,12.48 0.18,18.75 52.62,-17.94 102.56,-42.81 152.21,-67.67 95.49,-50.09 189.76,-105.35 269.43,-178.72 -17.14,-0.48 -34.3,-0.15 -51.46,-0.27zm-1162.45 0.09l0 0zm0 0c19.13,18.24 39.7,34.96 60.8,50.9 82.24,61.4 172.39,111.43 264.87,155.61 31.34,14.48 62.71,29.1 95.55,39.91 0.03,-6.39 0.03,-12.75 0.06,-19.11 -82.15,-38.98 -161.55,-83.58 -239.22,-130.77 -45.68,-29.11 -92.57,-57.79 -130.75,-96.66 -17.11,0.15 -34.21,-0.03 -51.31,0.12zm542.18 252.72l0 0zm0 0c21.37,10.3 42.65,20.77 64.09,30.89 22.47,-9.01 43.64,-20.89 65.73,-30.77 -43.29,0.06 -86.57,0.27 -129.82,-0.12z"/>
   <path class="fil1" d="M408.6 41.82c78.3,-0.09 156.59,-0.12 234.89,0 4.18,-0.69 7.2,2.48 10.18,4.78 42.42,35.49 85.08,70.62 127.67,105.91 -0.09,62.06 0.06,124.12 -0.09,186.18 -70.09,0.06 -140.18,0.06 -210.26,0.03 -0.15,-50.24 -0.03,-100.48 -0.06,-150.69 -25.17,-0.03 -50.3,-0.27 -75.47,0.12 0.15,162.66 -0.09,325.28 0.12,487.94 25.14,-0.03 50.24,0.03 75.35,-0.03 0,-65.4 0,-130.8 0,-196.21 67.4,0.03 134.8,-0.03 202.2,0.03 -0.05,76.06 0.04,152.09 -0.02,228.15 -41.83,34.27 -83.77,68.42 -125.8,102.42 -72.06,-0.24 -144.15,0.06 -216.2,-0.12 -4.48,0.54 -7.89,-2.51 -11.23,-4.87 -45.37,-33.79 -90.81,-67.52 -136.27,-101.22 -0.06,-182.36 0.06,-364.72 -0.06,-547.08 41.2,-38.95 83.67,-76.56 125.05,-115.34zm467.76 292.87c3.22,-3.02 7.22,-4.72 11.7,-4.12 73.46,0.18 146.9,-0.12 220.33,0.15 47.46,38.21 94.63,76.77 142.45,114.56 -0.24,40.84 -0.03,81.7 -0.12,122.54 -70.36,0.09 -140.75,0.06 -211.11,0.03 -0.09,-28.33 0,-56.66 -0.03,-84.95 -25.91,-0.15 -51.79,-0.24 -77.67,0 0.06,49.73 -0.09,99.46 0.12,149.19 49.08,-0.03 98.15,0.09 147.19,-0.03 49.05,41.07 97.89,82.39 146.75,123.67 0.03,78.51 -0.12,157.05 0.06,235.55 -42.51,37.32 -85.55,74.01 -128.12,111.2 -4.77,5.76 -12.54,3.97 -19.07,4.27 -72.3,-0.09 -144.57,-0.21 -216.84,0.03 -45.85,-38.63 -92,-76.99 -137.13,-116.36 -0.84,-43.08 -0.18,-86.21 -0.3,-129.28 73.31,0.02 146.65,0.06 220,0 0.03,28.59 -0.06,57.22 0.12,85.85 22.09,-0.03 44.18,0 66.27,-0.03 0.18,-53.47 0.12,-106.9 0.09,-160.33 -48.75,-0.3 -97.47,-0.09 -146.18,-0.12 -25.61,-20.09 -51.14,-40.3 -76.87,-60.21 -2.95,-2.39 -7.04,-4.93 -6.03,-9.43 -0.09,-91.94 0.12,-183.88 -0.09,-275.82 -16.3,-0.36 -32.6,0.44 -48.86,-0.3 -2.09,-3.94 -0.63,-8.93 -1.11,-13.26 38.24,-30.8 76.33,-61.85 114.45,-92.8zm325.88 -289.85c72.9,-0.18 145.79,-0.09 218.69,-0.06 -0.06,201.73 -0.09,403.46 0,605.19 24.56,0.09 49.13,0 73.73,0.06 0.33,-201.73 0.06,-403.46 0.12,-605.19 70.65,-0.18 141.28,-0.09 211.91,-0.06 0,170.15 0,340.27 0,510.41 -0.36,45.83 0.72,91.71 -0.51,137.53 -37.52,40.06 -78.42,76.86 -116.8,116.18 -78.6,0 -157.2,-0.12 -235.8,0.06 -4.12,-0.51 -9.16,0.98 -12.44,-2.24 -14.84,-13.14 -29.38,-26.63 -44.12,-39.88 0.03,-5.88 0.06,-11.73 0.09,-17.59 -31.44,-28.44 -63.08,-56.71 -94.78,-84.89 -0.15,-18.96 -0.06,-37.94 -0.06,-56.9 29.05,-0.09 58.12,-0.03 87.19,-0.03 0.18,-61.04 0.12,-122.12 0.09,-183.19 0.66,-3.91 -3.58,-5.79 -5.82,-8.09 -27.19,-20.9 -53.82,-42.51 -81.22,-63.13 -0.6,-102.72 -0.06,-205.47 -0.27,-308.18z"/>
  </g>
 </g>
</svg>
