<?xml version="1.0" encoding="UTF-8"?>
<!DOCTYPE svg PUBLIC "-//W3C//DTD SVG 1.1//EN" "http://www.w3.org/Graphics/SVG/1.1/DTD/svg11.dtd">
<!-- Creator: CorelDRAW -->
<svg xmlns="http://www.w3.org/2000/svg" xml:space="preserve" width="2000px" height="1600px" version="1.1" style="shape-rendering:geometricPrecision; text-rendering:geometricPrecision; image-rendering:optimizeQuality; fill-rule:evenodd; clip-rule:evenodd"
viewBox="0 0 2000 1600"
 xmlns:xlink="http://www.w3.org/1999/xlink">
 <defs>
  <style type="text/css">
   <![CDATA[
    .fil0 {fill:black;fill-rule:nonzero}
    .fil2 {fill:#009DDC;fill-rule:nonzero}
    .fil3 {fill:#69CEF6;fill-rule:nonzero}
    .fil4 {fill:#891B04;fill-rule:nonzero}
    .fil5 {fill:#EC1B2D;fill-rule:nonzero}
    .fil1 {fill:#FEFEFE;fill-rule:nonzero}
   ]]>
  </style>
 </defs>
 <g id="Capa_x0020_1">
  <metadata id="CorelCorpID_0Corel-Layer"/>
  <g id="Delaware_x0020_State_x0020_Hornets.cdr">
   <path class="fil0" d="M1919.26 39.81c-46.76,4.03 -92.23,17 -136.29,32.76 -70.55,25.44 -137.62,59.49 -202.78,96.45 -75.73,34.67 -145.61,80.88 -211.51,131.56 -56.91,44.1 -110.89,91.94 -162.13,142.44 -18.59,16.77 -37.17,33.48 -55.64,50.36 -44.89,-24.53 -99.21,-28.49 -148.1,-14.6 -21.44,-14.08 -47.05,-20.72 -72.55,-21.32 -10.26,-41.22 -35.1,-78.39 -69.3,-103.6 -11.41,-8.1 -23.53,-18.25 -38.54,-16.57 -17.24,0.46 -32.18,21.54 -22.85,37.29 5.27,10.12 16.42,14.29 25.32,20.48 23.53,16.52 42.23,39.64 53.98,65.85 -25.68,5.61 -49.85,16.93 -71.48,31.78 -30.22,-34.49 -71.3,-60.43 -116.98,-67.77 -9.67,-2.23 -20.41,-0.39 -29.16,-5.78 -68.16,-38.37 -138.44,-73.02 -210.7,-102.98 -62.95,-25.92 -127.48,-48.34 -193.72,-64.31 -53.47,-12.57 -108.27,-21.82 -163.4,-20.03 -24.51,1.42 -50.14,4.08 -71.87,16.48 -11.13,6.11 -19.64,16.95 -21.56,29.69l0 14.86c2.66,14.18 9.18,27.27 17.39,39.02 14.17,20.43 32.13,37.92 50.93,54.1 41.66,35.59 87.84,65.42 134.97,93.19 50.67,29.55 102.9,56.36 156.11,81.01 5.64,2.49 11.08,5.66 17.12,7.15 8.71,1.58 17.39,-1.11 26.05,-1.85 73.26,-8.35 147.41,1.2 218.58,19.04 51.34,13.21 101.7,30.26 150.89,50 4.6,7.82 7.53,16.62 11.51,24.8 2.76,3.35 -2.3,4.79 -4.1,6.64 -8.83,5.63 -15.64,13.74 -21.15,22.52 -30.75,8.58 -55.9,29.33 -85.04,41.63 -19.16,7.82 -36.91,21.17 -45.99,40.19 -5.54,10.1 -6.26,21.65 -7.51,32.83 -13.67,16.26 -17.63,40.6 -6.62,59.38 -12.68,6.11 -24.2,15.58 -30.33,28.49 -5.47,11.34 -7.01,25.46 -0.58,36.73 6.64,11.35 18.92,18.85 31.7,21.15 11.49,-9.73 24.46,-24.19 41.25,-18.68 -4.7,15.81 -24.41,16.17 -37.48,20.72 35.73,5.45 76.88,6.79 107.07,-16.35 10.29,0.19 20.43,-3.09 28.64,-9.33 17.17,-12.9 29.13,-31.37 38.58,-50.38 4.87,-9.84 11.92,-18.33 19.07,-26.55 8.96,2.52 18.27,3.69 27.57,3.12 -0.4,0.84 -1.22,2.49 -1.63,3.33 -25.56,2.59 -46.38,27.46 -43.38,53.07 1.9,12.06 13.36,18.73 23.38,23.57 -3.74,-4.53 -9.64,-9.78 -7.07,-16.35 5.23,-19.38 27.55,-29.04 46.16,-28.2 9.31,0.19 14.22,9.06 14.68,17.41 -1.01,0.16 -3.07,0.48 -4.08,0.64 -5.78,8.64 -12.52,16.48 -19.95,23.75 14.24,-3.91 28.68,-11.37 36.19,-24.66 2.18,-3.4 3.23,-7.84 6.88,-10.02l-3.29 6.23c10.75,-2.61 16.74,-12.54 20.72,-21.96 6.17,-13.67 5.73,-29.6 14.42,-42.23 10.81,10.74 22.87,20.36 36.52,27.24 3.38,1.7 7.29,1.46 10.96,2.13 -35.95,24.82 -68.28,56.31 -88.64,95.35 -27.21,51.06 -34.1,109.45 -42.23,165.85 -6.81,48.56 -14.89,97.15 -29.42,144.08 -14.77,48.61 -36.09,95.13 -62.59,138.46 -4.1,6.26 -7.12,14.3 -14.92,16.79 -113.59,52.52 -234.72,86.84 -356.86,112.98 -36.95,8.03 -74.34,13.93 -111.39,21.31l11.06 0c8.42,-2.27 17.15,-2.25 25.78,-2.85 38.39,-2.69 76.76,-5.95 115.06,-9.74 112.06,-11.48 224.17,-26.11 333.64,-53.26 1.08,-0.14 3.22,-0.4 4.3,-0.55 127.86,-0.6 256.95,-35.83 363.23,-107.96 77.25,-52.11 140.39,-124.01 184.99,-205.64 15.25,-26.57 27.12,-54.94 36.09,-84.19 1.59,-7.92 9.95,-10.82 15.3,-15.78 25.4,-20.94 44.89,-51.87 45.18,-85.57 22.28,-29.25 22.52,-70.59 6.96,-102.95 -9.83,-18.84 -14.49,-39.76 -19.69,-60.19 -3.02,-13.81 -5.73,-29.83 -18.59,-38.13 -13.52,-8.94 -30,-2.97 -44.46,-0.14 -7.05,-9.5 -3.69,-22.25 -9.83,-32.11 -3.96,-7.91 -11.73,-12.81 -19.83,-15.64 -6.21,-1.82 -10.1,-7.22 -14.53,-11.51 5.94,-6.64 11.96,-13.62 14.86,-22.23 3.91,-10.65 2.88,-23.35 -4.05,-32.52 -9.9,-13.11 -24.89,-24.74 -42.32,-22.03 3.62,-30.56 0.5,-63.75 -17.39,-89.67 69.66,-41.65 141.42,-80.21 216.76,-110.67 67.99,-26.79 139.81,-50.07 213.74,-47.51 33.98,-20.79 66.65,-43.78 99.14,-66.88 67.82,-49.38 134.48,-101.58 190.5,-164.41 21.92,-26.02 44.87,-54.08 51.01,-88.51l0 -14.68c-1.75,-7.87 -4.91,-15.85 -11.25,-21.15 -11.05,-9.64 -26.11,-12.11 -40.16,-13.91l-29.33 0zm-1151.25 750.38c3.12,-10.81 5.16,-22.13 11.08,-31.87 8.01,2.69 16.4,4.03 24.84,4.18 -8.63,12.78 -22.35,21.05 -35.92,27.69z"/>
   <path class="fil1" d="M1834.44 71.01c39.18,-10.7 80,-19.98 120.86,-15.35 -12.01,3.43 -24.7,3.72 -36.74,7.12 -26.26,5.49 -51.29,15.25 -76.33,24.58 -45.87,12.28 -89.97,30.48 -133.31,49.72 -15.99,-1.06 -31.94,0.84 -47.46,4.53 4.94,-3.93 10.84,-6.29 16.53,-8.97 50.43,-24.53 102.47,-46.19 156.45,-61.63zm-1275.11 1438.03c69.09,-21.32 137.65,-45.01 203.31,-75.44 6.83,-3.74 13.31,1.85 18.27,6.07 -46.4,20.76 -94.08,38.92 -142.97,52.92 -23.5,7.12 -47.7,11.39 -71.58,16.79 -1.68,0.5 -5.04,1.48 -6.72,1.99 -0.07,-0.58 -0.24,-1.75 -0.31,-2.33zm361.1 -573.88l-0.07 0.26c-6.23,17.22 -14.22,33.91 -18.01,51.97 -10.09,36.52 -12.04,74.7 -11.61,112.42 -3.64,71.68 -16.35,143.02 -38.41,211.34 -13.82,40.7 -30.55,81.35 -57.82,115.04 -7.22,-7.58 -16.64,-13.29 -27.34,-13.72 2.28,-6.59 6.07,-12.47 9.26,-18.61 26.86,-51.41 47.81,-105.99 61.08,-162.49 13.76,-55.95 18.15,-113.57 28.34,-170.17 8.06,-45.44 24.7,-90.31 54.58,-126.04zm-54.07 -220.17c7.07,7.24 16.49,11.51 26.18,14.03 2.69,7.24 5.52,14.43 8.28,21.68 -13.67,-6.31 -25.64,-15.73 -36.17,-26.41 0.43,-2.32 1.27,-6.97 1.71,-9.3zm-4.2 -49.04c5.06,1.87 10.31,3.14 15.68,3.88 2.81,16.36 6.74,32.47 11.22,48.42 -7.69,-0.84 -15.27,-2.52 -22.51,-5.27 1.75,-15.78 -0.03,-31.78 -4.39,-47.03zm-70.75 -69.54c4.8,8.99 11.64,16.54 18.83,23.66 -5.71,33.05 5.25,67.82 25.85,93.84 -34.15,-27.72 -50.65,-74.27 -44.68,-117.5zm-191.91 -32.19c20.62,-2.88 41.32,-6.35 62.16,-7.05 13.81,3.31 27.55,7.22 40.95,11.99 -23.09,0.65 -46.11,2.74 -69.13,3.91 -11.27,-3.21 -22.76,-5.54 -33.98,-8.85zm409.73 0.96c6,-7.65 15.16,-11.99 24.44,-14.15 1.17,38.04 -11.87,76.24 -36.14,105.52 9.98,-29.35 13.77,-60.48 11.7,-91.37zm113.65 0.31c28.42,-11.65 58.3,-19.88 88.73,-24.12 -9.45,7.53 -19.35,14.53 -29.28,21.37 -29.09,6.64 -57.87,14.6 -86.14,24.05 7.96,-8.11 15.8,-17.12 26.69,-21.3zm-364.73 -28.92c6.24,-4.46 14.06,-5.15 21.42,-6.04 2.78,3.21 5.59,6.4 8.39,9.59 -9.97,3.36 -26.45,4.15 -27.62,17.48 -0.96,21.08 10.21,40.44 21.12,57.7 0.82,1.63 2.47,4.89 3.29,6.52 -15.18,-15.78 -28.99,-33.71 -36.69,-54.43 -4.46,-11.01 -0.12,-24.68 10.09,-30.82zm-120.52 3.36c33.71,-5.56 67.93,-8.13 102.08,-7.94 -2.66,3.84 -5.18,7.8 -7.41,11.9 -19.3,1.56 -38.75,1.94 -57.84,5.37 -12.35,-2.59 -24.77,-5.54 -36.83,-9.33zm-395.02 -55.28c24.27,-10.31 50.05,-16.52 75.69,-22.3 8.82,5.54 17.84,10.84 26.81,16.14 -27.1,4.25 -54.03,9.86 -80.29,17.89 -7.43,-3.86 -14.77,-7.89 -22.21,-11.73zm1063.94 -19.4c13.81,-2.06 27.6,-5.18 41.63,-4.94 -12.57,5.16 -24.01,12.64 -36.24,18.47 -47.72,7.1 -94.84,18.51 -140.31,34.65 -10.41,3.53 -20.33,8.42 -31.05,10.98 6.14,-5.39 11.12,-12.61 19.01,-15.66 47.1,-20.07 96.53,-34.72 146.96,-43.5zm-932.19 17.87c73.05,-27.43 153.87,-31.68 230.2,-16.91 9.49,13.89 28.05,14.44 42.97,11.27 17.43,2.11 34.48,9.19 47.94,20.72 -94.85,-32.18 -200.82,-36.16 -295.52,-1.39 -8.61,-4.43 -17.22,-8.85 -25.59,-13.69zm241.54 -30.55c4.03,-1.83 7.94,-4.1 12.33,-5.01 39.18,-4.92 80.21,1.91 114.31,22.3 49.09,28.92 82.78,78.39 103.12,130.64 -1.56,-0.5 -4.7,-1.53 -6.26,-2.06 -14,-30.45 -31.2,-60.09 -55.68,-83.4 -35.52,-35.33 -86.29,-54.75 -136.33,-51.61 -8.54,0.19 -17.37,3.84 -25.66,0.34 -4.61,-1.75 -5.28,-7.01 -5.83,-11.2zm789.5 -7.48c11.27,-1.61 22.78,-1.28 34.15,-1.85 -11.87,5.83 -24.18,10.86 -36.43,15.83 -12.23,1.17 -24.51,2.18 -36.72,3.5 12.33,-7.15 25.66,-12.52 39,-17.48zm-1139.19 -30.77c64.99,-19.35 135.25,-21.56 201.06,-4.87 8.13,3.02 14.6,9.23 21.58,14.24 -66.4,-16.21 -137.17,-13.9 -202.66,5.42 -6.77,-4.79 -13.48,-9.64 -19.98,-14.79zm-170.86 -25.13c36.62,-10.89 74.48,-17.68 112.64,-19.96 3.88,6.24 8.46,11.99 13.33,17.49 -37.15,1.22 -74.05,6.45 -110.29,14.65 -5.25,-4.03 -10.53,-8.04 -15.68,-12.18zm412.95 -25.71c3.23,0.74 6.42,1.7 9.52,2.95 41.87,16.81 82.97,35.66 122.92,56.64 -5.27,0.82 -10.57,1.49 -15.85,2.25 -24.67,-12.66 -49.97,-24.14 -75.59,-34.79 -13.81,-8.78 -27.53,-17.77 -41,-27.05zm-292.78 -1.1c39.64,-3.03 80.33,0.57 117.41,15.63 6.97,2.9 14,5.85 20.12,10.39 -4.18,0.4 -8.37,0.64 -12.57,0.93 1.39,-0.46 4.2,-1.32 5.59,-1.77 -4.68,-2.26 -9.45,-4.32 -14.51,-5.47 -29.67,-7.53 -60.72,-10.48 -91.18,-6.84 7.15,11.32 16.55,20.94 26.07,30.27 -1.92,0.72 -5.75,2.13 -7.67,2.85 -16,-13.52 -33.14,-27.31 -43.26,-45.99zm595.75 -1.42c1.56,-2.95 3.74,-5.54 5.76,-8.22 3.28,1.22 6.69,2.27 9.85,3.9 36.5,21.63 65.33,56.57 77.65,97.39 14.87,49.16 11.01,102.61 -4.36,151.18l-2.02 -4.22c7.92,-33.58 12.86,-68.61 6.6,-102.91 -7.99,-50.88 -39.76,-97.62 -84.7,-122.97 -4.94,-2.85 -10.41,-7.79 -8.78,-14.15zm488.54 57.46c86.74,-55.66 190.69,-88.27 294.29,-79.98 -7.07,6.41 -14.41,12.5 -21.63,18.73 -101.77,-5.08 -203.24,25.57 -289.64,78.52 5.11,-6.24 10.55,-12.36 16.98,-17.27zm-1087.84 -91.73c46.9,-5.18 94.5,3.86 138.61,19.81 32.08,11.92 62.95,27.22 91.79,45.66 -11,-4.05 -20.74,-10.7 -31.36,-15.59 -56.53,-28.42 -120.12,-45.56 -183.72,-40.02 -3.72,5.42 -4.46,11.92 -4.56,18.32 -3.88,0.48 -7.77,0.94 -11.65,1.44 -4.05,-9.07 -7.31,-22.11 0.89,-29.62zm209.85 -6.23c8.32,2.47 16.36,5.9 24.34,9.28 -8.61,-1.37 -17.6,-3.36 -24.34,-9.28zm-396.83 -2.26c57.38,-5.15 116.74,1.78 169.42,25.97 4.87,1.49 4.51,7.37 6.21,11.27 -8.44,0.68 -16.9,1.52 -25.3,2.76l-0.98 -0.38c-42.73,-15.78 -89.02,-21.73 -134.41,-19.95 -5.45,-6.19 -10.41,-12.78 -14.94,-19.67zm202.08 -1.27c18.11,-5.06 36.96,-6.74 55.71,-6.52 62.78,1.61 124.25,17.34 183.55,37.14 10.34,2.83 18.49,10.15 27.24,15.98l-0.91 -0.32c-62.97,-21.36 -128.2,-38.36 -194.99,-40.14 -23.26,-4.8 -47.02,-5.51 -70.6,-6.14zm1422.35 -16.76c44.73,-3.36 90.27,-2.45 134.32,6.38 -6.52,4.82 -13.07,9.61 -19.71,14.27 -45.49,-5.3 -91.58,-4.15 -137.03,1.17 7.25,-7.48 14.73,-14.79 22.42,-21.82zm-1629.68 -31.7c71.82,-6.96 143.86,9.44 210.09,36.5 -8.56,3.23 -16.95,7.09 -24,13.06 -60.6,-24.55 -126,-39.83 -191.66,-37.26 1.23,-4.37 3.19,-8.47 5.57,-12.3zm1346.66 46.47c23.6,-18.06 47.03,-36.55 72.16,-52.44 -12.28,13.3 -24.75,26.57 -37.96,38.94 -63.21,46.21 -122.49,97.65 -179.16,151.65 -12.54,12.62 -25.95,24.37 -37.82,37.63 -4.84,3 -10.5,4.27 -15.78,6.21 61.82,-65.18 128.04,-126.31 198.56,-181.99zm-1325.87 -57.94c13.57,-6.28 28.8,-7.53 43.47,-9.09 32.09,-2.01 64.32,-0.14 96.12,4.37 64.03,9.16 126.59,26.45 187.63,47.58 10.57,3.12 19.23,10.24 27.96,16.69 -28.13,-7.36 -56.89,-12.02 -85.69,-15.49 -41.1,-12.04 -82.92,-21.8 -125.22,-28.47 -9.74,-1.39 -19.52,-2.56 -29.14,-4.7 -0.34,0.07 -1.03,0.24 -1.39,0.31l-0.62 0.15c-36.82,-9.36 -75.14,-14.15 -113.12,-11.35zm1449.9 36.17c59.98,-31.35 127.89,-47.46 195.57,-46.5 -4.97,5.8 -9.72,11.77 -15.23,17.05 -2.9,-0.72 -5.83,-1.18 -8.75,-1.34 -64.39,1.48 -127.68,18.17 -186.29,44.36 4.17,-5.23 8.42,-10.77 14.7,-13.57zm236.19 -87.63c62.23,-15.68 127.43,-22.06 191.27,-14.27 -4.89,4.58 -9.3,9.62 -14.41,13.93 -64.17,-3.38 -128.78,4.39 -190.48,22.26 4.67,-7.22 9.3,-14.46 13.62,-21.92zm-103.79 18.49c31.25,-19.62 66.62,-32.35 102.97,-38.35 -7.89,19.52 -20.33,36.7 -33.26,53.12 -3.02,0 -6.04,0 -9.01,0 7.6,-11.05 14.96,-22.37 19.97,-34.87 -37.43,5.88 -73.83,19.72 -105.37,40.82 -0.86,0.36 -2.59,1.08 -3.48,1.46 8.11,-8.87 18.2,-15.61 28.18,-22.18zm-121.29 55.23c60.02,-61.01 134.34,-112.88 220.04,-128.2 8.95,6.18 8.78,17.98 6.77,27.53 -3.99,0.6 -7.97,1.2 -11.9,1.8 -1.92,-6.02 -3.98,-17.34 -12.71,-14.63 -65.61,12.61 -124.89,47.48 -175.25,90.43 -6.71,5.92 -14.2,11.13 -19.33,18.58 -1.94,2.35 -4.89,3.41 -7.62,4.49zm101.84 -108.73c32.5,-12.54 66.48,-24.53 101.78,-23.57 -26.24,6.13 -51.51,15.63 -75.93,26.9 -37.55,10.15 -72.85,27.22 -107.29,44.99 -22.9,11.58 -44.34,25.76 -66.78,38.11 5.56,-6.96 11.53,-13.87 19.18,-18.66 41.18,-25.83 83.91,-49.52 129.04,-67.77zm286.21 -40.86c28.95,-9.57 59.04,-15.5 89.4,-18.01 -3.69,7.48 -8.08,14.62 -12.54,21.67 -45.49,6.77 -90.48,19.72 -131.08,41.59 -12.78,1.41 -25.68,1.89 -38.46,3.55 27,-22.55 59.59,-37.49 92.68,-48.8zm-151.24 28.41c69.9,-48.29 149.71,-85.66 235.08,-93.93 6.67,-1.68 9.95,6.19 11.49,11.27 -91.01,13.57 -175.9,55.45 -249.07,110.24 2.5,-8.94 4.44,-18.32 2.5,-27.58z"/>
   <path class="fil2" d="M1735.85 185.66c73.17,-54.79 158.06,-96.67 249.07,-110.24l0.33 -0.05c1.97,8.97 0.36,18.04 -2.18,26.67 -74.32,3.79 -149.54,29.11 -204.7,80.31 -15.13,2.38 -30.14,5.37 -44.99,9.07 0.63,-1.44 1.87,-4.32 2.47,-5.76zm-1097.91 1306.93c48.89,-14 96.57,-32.16 142.97,-52.92 4.41,11.15 -1.22,26.66 -13.67,29.52 -16.09,2.73 -31.68,7.69 -47.57,11.34 -43.65,10.53 -87.7,19.3 -131.97,26.62 -7.08,1.05 -14.15,3.04 -21.34,2.23 23.88,-5.4 48.08,-9.67 71.58,-16.79zm671.34 -501.8c2.69,-0.67 5.83,-1.89 8.35,0.08 8.03,4.74 10.84,14.1 13.21,22.54 2.71,-3.14 5.35,-6.33 7.87,-9.64 1.94,8.03 3.23,16.18 4.12,24.41 3.93,-3.57 6.48,-8.25 9.02,-12.83 1.72,20.02 -6.74,40.07 -18.2,56.14 1.91,-8.83 3.74,-17.72 3.47,-26.79 -2.92,1.44 -5.82,2.9 -8.73,4.41 1.51,-10.07 2.24,-20.35 -0.09,-30.36 -3.33,2.76 -6.45,5.74 -9.62,8.66 -1.75,-7.5 -0.86,-22.25 -11.68,-21.82 -18.97,-1.34 -35.66,9.02 -50.07,20.05 12.78,-17.22 31.87,-29.04 52.35,-34.85zm-47.58 22.33c14.73,-36.02 56.72,-57.34 94.54,-48.68 12.2,3.38 23.19,12.47 26.54,24.99 3.26,13.35 2.04,28.03 -4.46,40.28 -8.94,19.28 -24.53,34.78 -42.4,45.98 10.29,-11.68 19.43,-25.02 21.99,-40.7 2.31,-11.49 1.28,-23.36 -1.24,-34.7 -3.17,4.51 -5.47,9.59 -8.97,13.86 -0.6,-10.02 -1.97,-20.24 -7.24,-28.99 -2.91,4.48 -5.88,8.94 -8.71,13.5 -2.28,-6.76 -5.08,-14.05 -11.34,-18.08 -23.62,-0.39 -44.2,15.13 -58.71,32.54zm-30.24 -102.93c9.04,2.93 14.99,11.11 19.93,18.76 0.63,-2.23 1.9,-6.72 2.52,-8.95 7.05,10.63 7.79,24.34 6.79,36.74 -2.31,-4.65 -4.82,-9.21 -7.85,-13.4 -0.59,1.91 -1.79,5.7 -2.39,7.6 -3.96,-7.75 -7.25,-16.12 -14.22,-21.75 -0.58,2.92 -1.13,5.85 -1.64,8.8 -7.31,-8.01 -16.49,-17.82 -28.56,-15.28 -16.54,1.66 -27.36,15.09 -38.13,26.07 8.33,-19.11 26.21,-32.45 46.17,-37.48 5.94,3.88 11.24,8.63 16.04,13.88 0.89,-4.96 1.32,-9.97 1.34,-14.99zm-558.8 9.55c2.3,-6 4.92,-11.85 7.87,-17.53 5.08,2.25 13.47,3.69 13.81,10.6 -2.33,5.8 -7.6,9.54 -12.85,12.49 -2.93,-1.89 -5.88,-3.74 -8.83,-5.56zm-53.62 2.59c6.09,-22.16 33.21,-24.53 52.3,-22.88 -3.55,6.48 -7,13.02 -11.36,18.99 -13.43,-3.59 -29.43,-5.73 -40.94,3.89zm546.5 17.67c2.61,-35.99 43.65,-62.08 77.41,-49.83 17.58,5.8 28.25,23.6 29.83,41.39 3.24,17.22 -3.67,34.39 -13.33,48.35 10.21,-23.86 11.61,-54.56 -6.62,-74.99 -1.46,3.4 -2.73,6.9 -4.32,10.29 -3.86,-8.66 -11.89,-14.32 -20.57,-17.44 -0.41,4.22 -0.75,8.44 -1.13,12.69 -4.44,-2.28 -8.34,-6.02 -13.36,-6.86 -21.27,2.23 -38.08,18.32 -47.91,36.4zm-566.21 -47.26c8.7,-11.87 23.26,-22.04 38.54,-19.57 17.72,6.33 37.48,10.41 55.68,3.38 -0.65,-1.63 -1.99,-4.87 -2.64,-6.5 12.64,3.31 27.92,7.84 33.07,21.32 4.65,15.25 -1.7,33.19 -14.75,42.37 -13.71,10.22 -31.48,12.4 -48.13,12.5 11.9,-8.4 26.21,-14.06 35.3,-25.93 1.15,0.94 3.46,2.79 4.61,3.72 3.07,-8.46 3.76,-18.97 -3.07,-25.85 -9.47,-8.99 -23.38,-9.83 -35.73,-9.95 0.07,-1.27 0.21,-3.84 0.26,-5.13 -10.96,2.01 -22.52,4.62 -30.91,12.51 -0.86,-2.28 -1.7,-4.51 -2.54,-6.76 -9.26,6.67 -14.89,16.88 -17.63,27.79 -5.47,-7.05 -8.8,-15.32 -11.92,-23.57l-0.14 -0.33zm444.75 -1.92c2.13,-8.49 5.3,-16.84 10.19,-24.13 1.68,6.17 3.48,12.3 5.59,18.35 3.19,-4.17 6.33,-8.37 9.44,-12.59 5.04,22.85 2.81,46.9 -3.26,69.35 0.6,-15.23 -1.31,-30.34 -4.55,-45.18 -2.76,3.05 -5.59,6.02 -8.64,8.75 -1.63,-5.58 -4.79,-10.4 -8.77,-14.55zm-34.54 15.08c4.35,-21.32 21.3,-37.55 40.51,-46.33 -6.98,8.39 -9.88,18.99 -11.99,29.47 -11.42,1.8 -20.43,9.12 -28.52,16.86zm21.87 -57.41c10.27,-7.5 23.19,-10.29 35.69,-10.77 14.7,-0.45 28.22,10.56 32.01,24.54 8.54,31.75 -3.76,70.24 -33.57,86.37 21.75,-26.37 26.98,-65.65 9.86,-95.75 -3.94,5.13 -8.09,10.07 -12.4,14.84 -1.7,-6.28 -3.41,-12.54 -5.06,-18.8 -22.9,1.27 -41.1,19.12 -47.7,40.29 0.84,-15.71 8.2,-31.44 21.17,-40.72zm-351.75 -18.99c19.29,-3.07 40.51,3.95 51.35,20.84 -7.7,-3.24 -15.13,-7.51 -23.53,-8.52 -10.81,-1.67 -21.7,1.13 -31.44,5.76 1.63,-5.95 2.76,-11.99 3.62,-18.08zm-26.57 6.45c3.31,-5.49 10.08,-7.58 15.69,-9.95 -0.65,9.85 -2.52,19.64 -6.89,28.58 -6.4,-3.62 -10.09,-11.41 -8.8,-18.63zm663.89 -28.27c12.92,-0.15 25.08,-6.65 38.08,-5.11 8.25,1.29 13.5,9.16 15.64,16.66 6.71,26.91 12.06,54.58 24.72,79.48 12.81,28.25 13.79,64.43 -6.26,89.64 -2.61,-9 -6.5,-17.94 -13.64,-24.27 -9.67,-9.47 -24.01,-12.83 -37.15,-11.18l-0.29 -0.33c-8.44,-9.16 -14.77,-19.98 -19.28,-31.54 10.41,-26.76 1.82,-55.49 -2.56,-82.54 -1.73,-10.19 -2.59,-20.84 0.74,-30.81zm-678.95 2.03c15.47,-10.09 34.32,-16.26 52.86,-13.09 13.09,2.11 26.86,7.82 34.1,19.54 6.09,9.41 9.14,20.51 10.24,31.59 -4.17,-8.44 -8.59,-17.56 -17.2,-22.26 -11.27,-7.36 -25.42,-7.17 -38.22,-5.13 0.17,-3.21 0.33,-6.4 0.5,-9.59 -10.96,1.85 -23.36,4.84 -29.33,15.25 -1.94,-1.56 -3.91,-3.14 -5.85,-4.67 -3.62,8.05 -5.44,17.53 -1.1,25.73 7.43,14.29 22.88,21.43 37.1,27.21 -7.82,1.2 -15.88,1.04 -23.67,-0.12 -10.55,-7.84 -20.79,-17.81 -23.72,-31.12 -2.97,-11.3 0.96,-22.64 4.29,-33.34zm148.61 -11.94c9.88,-7.79 23.24,-14.44 35.85,-9.28 9.07,3.5 11.49,15.44 6.77,23.36 -7.51,13.45 -21.54,21.48 -30.6,33.81 -12.35,12.66 -18.44,29.43 -27.87,44.05 -10.12,14.7 -22.92,31.63 -42.23,33.15 4.65,-10.58 8.97,-22.59 4.94,-34.08 -6.64,-20.96 -33.09,-30.29 -52.8,-23.29 -2.21,-1.72 -4.42,-3.47 -6.62,-5.22 7.05,-8.21 18.89,-7.39 28.7,-7.56 14.89,-0.07 28.54,7.92 37.8,19.23 2.73,-15.75 3.95,-32.35 -1.13,-47.74 6.64,-5.06 13.02,-10.5 19.81,-15.37 8.97,-4.03 19.42,-4.85 27.38,-11.06zm22.9 -17.27c7.44,-12.23 22.91,-20.14 37.08,-15.99 6.69,1.99 13.62,2.93 20.62,2.59 9.33,6.31 19.36,11.49 29.79,15.76 5.39,5.89 7.1,14.24 8.27,21.96 -15.83,5.64 -32.16,11.85 -44.39,23.79 -12.25,11.42 -30.96,14.13 -46.18,7.41 3.88,-6.55 9.49,-11.56 15.94,-15.47 8.03,-7.86 15.09,-20.45 10.03,-31.7 -6,-10.98 -20.41,-12.64 -31.16,-8.35zm466.46 -22.99c13.38,-3.5 29.47,6.18 30.09,20.67 0.99,24.03 -5.71,48.18 -1.63,72.13 4.65,21.92 5.54,45.04 -0.29,66.81 -3.81,14.35 -12.87,27.97 -26.93,33.84 1.32,-19.42 0.31,-40.6 -11.53,-56.95 -6.62,-9.48 -17.75,-14.25 -28.83,-15.97 4.99,-7.56 9.6,-15.59 11.18,-24.63 4.55,-24.18 -3.58,-48.47 -1.2,-72.76 7.31,-10.19 17.48,-18.44 29.14,-23.14zm-502.26 -51.75c8.44,2.44 16.72,7.89 17.8,17.38 3.78,11.87 -10.99,14.7 -16.48,22.19 -16.88,17.19 -13.48,44.29 -28.68,62.44 -2.61,3.65 -6.81,5.4 -11.06,6.33 -6.21,-12.3 -17.48,-20.91 -29.68,-26.71 6.33,-0.82 12.73,-1.11 19.06,-0.05 10.72,-17.77 10.91,-40.05 23.55,-56.83 6.4,-10.29 17.43,-16.02 25.49,-24.75zm417.92 -5.16c6.83,-2.23 12.87,-6.21 18.51,-10.57 -8.28,16.88 -12.04,35.61 -20.7,52.35 -2.87,5.85 -7.43,10.59 -12.73,14.34 -4.87,-8.18 -14.92,-10.32 -23.72,-8.4 -18.82,1.47 -33,17.46 -52.28,16.98 -16.49,1.01 -29.95,-17.34 -24.72,-32.71 11.32,-18.82 35.9,-21.82 55.87,-22.95 20.27,0.87 40.58,-2.52 59.77,-9.04zm-391.52 -11.2c10.94,19.74 25.26,37.22 39.5,54.61 -17.63,6.76 -37.72,9.56 -55.75,2.73 8.53,-7.22 18.68,-14.41 21.72,-25.8 1.8,-8.59 -4.89,-15.54 -11.94,-19.09 2.16,-4.15 4.32,-8.3 6.47,-12.45zm452.81 -19.47c4.89,-0.79 9.71,1.99 13.62,4.77 7.96,5.78 15.42,13.43 17.56,23.38 2.42,14.42 -6.17,29.84 -19.67,35.42 -6.91,3.02 -13.93,6.79 -17.67,13.67 -11.56,18.71 -19.91,39.36 -25.57,60.58 -9.9,24.03 -24.82,46.45 -44.7,63.36 -18.46,15.89 -43.69,25.17 -68.08,20.45 1.1,-12.71 -1.15,-25.28 -4.48,-37.41 1.48,-9.76 0.09,-19.54 0.07,-29.3 2.11,-9.88 12.35,-14.9 21.41,-16.79 32.16,-6.74 63.53,-25.97 78.37,-56.14 9.55,-22.18 15.11,-46.5 29.69,-66.21 4.94,-6.91 12.21,-11.58 19.45,-15.78zm-86.76 -64.03c11.32,-8.1 23.35,-15.11 35.18,-22.44 3.57,5.27 6.93,10.69 9.61,16.49 -3.88,3.24 -7.12,7.56 -11.77,9.74 -11.01,-1.3 -21.97,-2.97 -33.02,-3.79zm-532.71 -32.83c23.02,-1.17 46.04,-3.26 69.13,-3.91 9.91,2.38 19.6,5.78 29.19,9.23 3.43,0.72 4.08,4.56 5.59,7.18 3.9,9.04 9.71,17.09 15.32,25.15 -39.4,-13.6 -78.85,-27.24 -119.23,-37.65zm422.04 13.72c26.62,-20.53 41.36,-54.49 41.53,-87.72 11.25,3.91 22.21,8.65 32.78,14.12 -17.74,21.06 -44.22,36.36 -52.37,64.22 -4.7,12.3 0.12,25.73 8.94,34.8 -14.07,2.92 -27.79,7.36 -41.12,12.68 3.67,-12.63 7.14,-25.32 10.24,-38.1zm-710.41 -108.3c41.99,24.08 85.32,45.8 129.64,65.25 33.21,-8.08 67.89,-7.1 101.63,-3.24 16.74,2.12 33.5,4.39 49.83,8.73 -18.63,2.07 -37.05,5.76 -55.51,8.85 -62.91,-11.12 -128.25,-19.09 -191.4,-5.1 -38.6,-17.92 -77.02,-36.36 -114.48,-56.6 26.26,-8.03 53.19,-13.64 80.29,-17.89zm270.79 -25.92c1.77,-7.13 7.82,-12.28 14.87,-13.86 44.34,-6.57 91.24,3.64 127.98,29.64 42.86,30.07 73.22,75.54 91.39,124.12 2.07,3.81 -1.91,6.52 -4.05,9.11l-0.43 -1.08c-20.34,-52.25 -54.03,-101.72 -103.12,-130.64 -34.1,-20.39 -75.13,-27.22 -114.31,-22.3 -4.39,0.91 -8.3,3.18 -12.33,5.01zm827.48 -20.19c17.96,-5.95 37,-10.7 56.02,-10.36 -7.5,2.35 -15.04,4.67 -22.37,7.55 -10.58,4.77 -22.45,2.52 -33.65,2.81zm-1332.35 -31.01c36.24,-8.2 73.14,-13.43 110.29,-14.65 23.88,26.71 53.84,46.85 82.93,67.31 -25.35,5.78 -50.27,13.43 -74.37,23.14 -41.08,-22.88 -80.89,-48.06 -118.85,-75.8zm706 -48.63c5.73,-1.16 11.96,-1.85 17.41,0.91 38.34,21.75 68.25,58.41 80.4,100.96 13.99,48.2 10.05,100.38 -4.77,147.88 -0.62,4.42 -7.24,6.17 -9.9,2.72 15.37,-48.57 19.23,-102.02 4.36,-151.18 -12.32,-40.82 -41.15,-75.76 -77.65,-97.39 -3.16,-1.63 -6.57,-2.68 -9.85,-3.9zm-777.1 -14.87c45.39,-1.78 91.68,4.17 134.41,19.95 -30.43,5.56 -60.6,12.69 -89.88,22.76 -15.71,-13.29 -31.32,-26.89 -44.53,-42.71zm1587.07 -15.88c45.45,-5.32 91.54,-6.47 137.03,-1.17 -33.96,25.25 -69.07,48.99 -104.58,72.04 -4.87,3.45 -11.15,0.98 -16.62,1.46 -44.27,0.65 -87.89,10.38 -130.02,23.33 27.93,-22.97 56.95,-44.79 83.98,-68.94 9.93,-9.38 21.39,-17.39 29.81,-28.18l0.4 1.46zm-1612.83 -41.22c65.66,-2.57 131.06,12.71 191.66,37.26 -4.25,4.68 -7.32,10.17 -8.59,16.41 -53.62,-25.37 -114.63,-33.02 -173.26,-25.97 -4.22,1.96 -5.61,-2.47 -6.67,-5.35 -3.02,-7.08 -3.02,-14.82 -3.14,-22.35zm140.1 -12.57c0.36,-0.07 1.05,-0.24 1.39,-0.31 9.62,2.14 19.4,3.31 29.14,4.7 42.3,6.67 84.12,16.43 125.22,28.47 -19.42,-1.03 -38.94,-2.02 -58.29,0.26 -3.41,0.67 -6.48,-1.27 -9.52,-2.37 -25.28,-11.35 -51.42,-20.77 -78.13,-28.09 -2.95,-1.27 -8.68,0.82 -9.81,-2.66zm1558.73 -40.74c61.7,-17.87 126.31,-25.64 190.48,-22.26 -33.55,33.17 -70.22,63.03 -107.48,91.92 -44.3,-8.61 -89.64,-11.19 -134.68,-8.87 17.96,-19.45 36.09,-38.87 51.25,-60.67l0.43 -0.12zm122.37 -52.54c40.6,-21.87 85.59,-34.82 131.08,-41.59 -11.65,16.89 -24.7,32.81 -38.92,47.61 -30.48,-4.92 -61.37,-5.81 -92.16,-6.02zm-126.45 -37.84c43.34,-19.24 87.44,-37.44 133.31,-49.72 -37.75,17.46 -74.22,37.72 -108.39,61.51 -6.48,-7.07 -15.64,-10.43 -24.92,-11.79z"/>
   <path class="fil3" d="M1703.74 165.76c8.73,-2.71 10.79,8.61 12.71,14.63l0.1 0.28c-50.34,8.73 -99.86,31.06 -134.65,69.23 -22.19,4.8 -43.58,12.76 -64.15,22.21 -2.76,1.27 -5.62,2.16 -8.59,2.66 5.13,-7.45 12.62,-12.66 19.33,-18.58 50.36,-42.95 109.64,-77.82 175.25,-90.43zm-399.71 767.26c6.59,-1.53 11.01,-6.76 14.77,-11.99 4.51,11.56 10.84,22.38 19.28,31.54 -8.29,0.91 -16.35,2.95 -24.31,5.3 -3.82,2.25 -5.28,-1.92 -6.62,-4.49 -3.29,-6.23 -3.79,-13.47 -3.12,-20.36zm-708.9 -11.27c-4.75,-9.4 -0.98,-20.41 4.34,-28.68 3.12,8.25 6.45,16.52 11.92,23.57 -1.46,8.11 1.82,15.5 7.29,21.32 -9.02,-3.09 -19.33,-6.88 -23.55,-16.21zm36.53 -58.22c-15.69,-14.37 -12.38,-43.65 6.37,-53.82 -3.33,10.7 -7.26,22.04 -4.29,33.34 2.93,13.31 13.17,23.28 23.72,31.12 -9.14,-1.89 -18.52,-4.58 -25.8,-10.64zm600.38 -30c-0.41,-18.54 3.91,-37.63 14.82,-52.88 -2.38,24.29 5.75,48.58 1.2,72.76 -1.58,9.04 -6.19,17.07 -11.18,24.63 -11.27,-0.6 -22.49,1.24 -33.23,4.5 4.82,-5.9 10.4,-11.1 16.06,-16.18 9.14,-8.13 12.69,-20.94 12.33,-32.83zm-493.29 -121.99c10.65,-5.64 23.03,-8.73 34.99,-5.78 -8.06,8.73 -19.09,14.46 -25.49,24.75 -12.64,16.78 -12.83,39.06 -23.55,56.83 -6.33,-1.06 -12.73,-0.77 -19.06,0.05 -23.82,-6.4 -48.16,1.2 -69.36,12.18 -1.03,-12.61 3.6,-25.18 11.99,-34.53 9.31,-10.72 22.26,-17.2 35.11,-22.64 19.4,-8.56 36.6,-21.15 55.37,-30.86zm53.72 -35.97c2.54,4.62 5.08,9.23 7.67,13.83 -2.15,4.15 -4.31,8.3 -6.47,12.45 -7.48,-2.3 -15.28,-3.43 -23.09,-3.38 5.18,-9.4 12.83,-17.2 21.89,-22.9zm431.18 7.38c7.48,-8.15 18.44,-12.16 29.3,-13.02 -7.24,4.2 -14.51,8.87 -19.45,15.78 -14.58,19.71 -20.14,44.03 -29.69,66.21 -14.84,30.17 -46.21,49.4 -78.37,56.14 -9.06,1.89 -19.3,6.91 -21.41,16.79 0.02,9.76 1.41,19.54 -0.07,29.3 -5.85,-8.2 -14.41,-13.67 -23.58,-17.43 2.52,-17.61 13.07,-33.74 28.47,-42.69 14.51,-9.3 32.59,-9.21 47.62,-17.36 22.33,-10.03 39.26,-29.62 48.47,-52.02 6.21,-13.88 8.3,-30 18.71,-41.7zm-127.46 -96.16c28.27,-9.45 57.05,-17.41 86.14,-24.05 -17.15,12.97 -34.22,26.21 -51.92,38.39 -11.01,1.44 -23.05,3.36 -33.57,-1.2 -5.59,-2.49 -2.96,-9.18 -0.65,-13.14zm-421.73 -37.53c19.09,-3.43 38.54,-3.81 57.84,-5.37 -2.3,7.55 -2.52,15.44 -1.63,23.26 -18.46,-6.79 -37.58,-11.63 -56.21,-17.89zm497.17 -35.83c45.47,-16.14 92.59,-27.55 140.31,-34.65 -26.74,15.39 -52.92,31.75 -78.89,48.32 -36.98,7.15 -74.66,14.1 -109.04,30.09 -12.19,5.04 -20.65,15.57 -31.54,22.57 5.49,-9.28 11.08,-18.56 17.36,-27.31 8.88,-10.36 19.93,-18.52 29.88,-27.8l0.87 -0.24c10.72,-2.56 20.64,-7.45 31.05,-10.98zm-490.79 -34.63c34.72,4.53 67.77,21.13 92.49,45.88 -8.87,-0.67 -17.77,-0.7 -26.59,-1.42 -22.23,-14.39 -43.81,-29.83 -65.9,-44.46zm-280.89 18.01c94.7,-34.77 200.67,-30.79 295.52,1.39 12.42,7.75 24.58,16.07 36.3,24.87 -38.8,0.48 -77.43,5.13 -115.49,12.5 -46.52,-7.32 -94.67,-13.43 -141.24,-2.79 -25.33,-11.34 -50.48,-23.11 -75.09,-35.97zm966.45 -34.24c12.21,-1.32 24.49,-2.33 36.72,-3.5 -41.25,19.04 -81.97,39.23 -121.49,61.6 -3.16,2.02 -6.93,2.45 -10.55,2.81 30.55,-22.09 61.87,-43.48 95.32,-60.91zm-1080.21 -33.46c65.49,-19.32 136.26,-21.63 202.66,-5.42 11.65,8.01 22.83,16.82 33.55,26.07 -53.74,-0.84 -107.6,8.78 -157.68,28.3 -26.85,-15.18 -53.35,-31.06 -78.53,-48.95zm263.11 -38.58c25.62,10.65 50.92,22.13 75.59,34.79 -4.34,2.36 -8.63,4.8 -12.85,7.34 -20.84,-14.15 -42.11,-27.7 -62.74,-42.13zm-308.92 -15.28c30.46,-3.64 61.51,-0.69 91.18,6.84 5.06,1.15 9.83,3.21 14.51,5.47 -1.39,0.45 -4.2,1.31 -5.59,1.77 -25.01,3.26 -49.9,8.2 -73.84,16.38l-0.19 -0.19c-9.52,-9.33 -18.92,-18.95 -26.07,-30.27zm1042.45 60.44c86.4,-52.95 187.87,-83.6 289.64,-78.52 -22.01,18.39 -44.39,36.33 -67.31,53.6 -40.82,1.68 -80,15.37 -117.41,30.81 -8.54,3.1 -16.33,8.93 -25.69,9.09 -37.41,2.47 -74.41,9.14 -110.81,17.99 10.53,-10.98 20.5,-22.57 31.58,-32.97zm-1060.1 -80.82c0.1,-6.4 0.84,-12.9 4.56,-18.32 63.6,-5.54 127.19,11.6 183.72,40.02 10.62,4.89 20.36,11.54 31.36,15.59 2.28,1.53 9.64,2.83 7.13,6.55 -3.27,-1.83 -6.91,-2.74 -10.55,-3.39 -23.6,-4.38 -47.63,-7.31 -71.66,-6.3 -41.8,-29.07 -94.46,-38.66 -144.56,-34.15zm74.94 -31.8c66.79,1.78 132.02,18.78 194.99,40.14 4.61,2.11 8.75,5.09 12.98,7.87 33.66,22.47 67.36,44.92 101.03,67.36 -3.41,5.78 -4.54,12.38 -4.85,19 -22.23,-4.11 -44.75,-6.46 -67.29,-7.7 -69.09,-57.53 -147.82,-107.77 -236.86,-126.67zm923.77 130.02c56.67,-54 115.95,-105.44 179.16,-151.65 -21.97,24.29 -45.39,47.24 -67.84,71.13 -31.85,33.02 -63.24,66.52 -94.99,99.64 -18.08,5.97 -36.11,12.35 -54.15,18.51 11.87,-13.26 25.28,-25.01 37.82,-37.63zm254.29 -146.35c58.61,-26.19 121.9,-42.88 186.29,-44.36 2.92,0.16 5.85,0.62 8.75,1.34 -21.82,22.04 -43.74,44.03 -66.76,64.87 -53.94,-5.02 -108.54,0.67 -160.7,14.91 10.55,-12.42 19.83,-26.35 32.42,-36.76zm122.4 -61.99c31.54,-21.1 67.94,-34.94 105.37,-40.82 -5.01,12.5 -12.37,23.82 -19.97,34.87 -28.59,-1.92 -57.22,1.39 -85.4,5.95zm-76.19 -25.9c34.44,-17.77 69.74,-34.84 107.29,-44.99 -76.33,40.1 -139.61,100.96 -192.97,167.94 -2.93,3.33 -5.3,7.87 -9.9,9.04 -33.77,10.72 -66.58,24.58 -97.41,41.97 -3.17,1.7 -6.46,3.16 -9.77,4.48 31.25,-32.66 62.69,-65.13 94.03,-97.72 14.2,-13.98 27.22,-29.23 41.95,-42.61 22.44,-12.35 43.88,-26.53 66.78,-38.11z"/>
   <path class="fil4" d="M817.27 505.33c19.13,-16.36 42.66,-27.34 67.43,-31.73 4.87,16.93 9.81,34.63 7.91,52.37 -3.02,-6.86 -5.06,-14.07 -6.11,-21.48 -10.74,-0.05 -20.7,4.07 -30.38,8.17 1.24,24.25 6.23,48.11 7.17,72.38 -5.62,-9.5 -8.85,-20.12 -14.08,-29.81 -8.49,-17.94 -20.79,-33.6 -31.94,-49.9zm-16.22 951.87c26.55,-2.81 53.03,-6.36 79.19,-11.75 -0.89,6.42 -2.95,12.61 -5.3,18.65 -28.1,5.16 -56.5,9.02 -85.06,10.55 4.15,-5.54 7.96,-11.31 11.17,-17.45zm100.63 -16.5c38.37,-8.73 75.32,-22.42 111.44,-37.87 -1.49,7.08 -2.02,14.61 -5.3,21.15 -34.32,15.28 -70.41,27.01 -107.22,34.58 0.29,-5.97 0.65,-11.92 1.08,-17.86zm261.22 -144.46c5.85,-5.76 10.65,-12.59 17.36,-17.41 1.23,9.61 4.15,19.61 2.52,29.23 -38.97,38.83 -84.31,71.17 -133.09,96.57 -0.22,-7.22 0.29,-14.41 0.91,-21.58 41.25,-23.5 79.28,-52.69 112.3,-86.81zm125.57 -210.79c4.22,4.46 8.58,8.94 11.46,14.46 -3.43,6.61 -11.61,9.4 -17.22,14.1 8.13,-1.06 15.61,-4.54 23.38,-6.91 1.82,2.66 3.65,5.3 5.49,7.96 -13.28,37.8 -34.24,72.42 -56.3,105.69 -12.21,17.41 -24.39,35.06 -39.14,50.43 -1.94,-10.05 -4.7,-19.93 -6.62,-29.96 33.72,-47.69 60.86,-100.16 78.95,-155.77zm14.07 -65.54c4.68,4.46 4.75,11.63 3.6,17.55 -2.21,-2.49 -4.32,-4.99 -6.45,-7.51 0.93,-3.35 1.87,-6.71 2.85,-10.04zm-195.97 -105.76c1.03,-3.72 2.04,-7.41 3.12,-11.1 5.49,0.33 11.15,-0.29 16.55,1.08 7.6,5.1 14.67,11.17 20.38,18.41 -13.33,-2.85 -26.55,-6.4 -40.05,-8.39zm-88.1 -5.8c3.38,-7.32 12.11,-11.71 19.97,-11.13 3.1,2.71 4.68,6.62 6.79,10.05 -8.92,0.38 -17.84,0.79 -26.76,1.08zm-53.03 -18.01c8.76,-8.23 21.16,-9.64 32.09,-13.34 -1.82,11.87 -0.46,23.84 0.72,35.71 -30.14,7.03 -59.45,21.94 -78.75,46.74 -6.84,8.59 -11.32,18.68 -17.15,27.94 3.79,-18.06 11.78,-34.75 18.01,-51.97 13,-16.86 28.85,-31.39 45.08,-45.08zm252.11 -54.27c1.64,9.54 -3.83,18.46 -11.27,24 -6.26,4.42 -9.78,12.33 -17.29,14.87 1.3,-3 3.24,-5.61 5.54,-7.91 8.95,-9.31 16.79,-19.67 23.02,-30.96zm44.71 -91.13c8.44,-0.19 -3.53,10.99 -6,5.35 0.96,-2.81 2.97,-4.61 6,-5.35zm-326.94 21.78c24.54,-16.89 46.14,-37.58 65.04,-60.55 4.56,24.24 25.64,40.88 48.54,46.9 -2.42,17.36 -0.65,36.64 10.98,50.6 10.58,-3.38 20.58,-8.54 31.46,-10.86 -10.28,8.58 -19.32,18.94 -23.83,31.8 -16.6,0.72 -33.96,4.26 -46.93,15.32 -6.41,4.75 -10.63,11.58 -15.74,17.55 -26.61,-2.13 -53.81,-14.07 -69.97,-35.99 -5.42,-7.94 -10.72,-16.64 -11.63,-26.38 1.94,-10.05 5.54,-20.46 12.08,-28.39zm140.36 -271.13c6.58,16.71 0.41,35.16 -9.16,49.38 -4.41,6.16 -8.17,13.26 -14.77,17.43 12.52,-20.34 21.51,-42.93 23.93,-66.81zm-142.49 -21.58c21.06,3.04 40.98,11 60.02,20.24 -4.22,5.06 -10.09,8.27 -15.32,12.18 -11.42,-7.65 -25.97,-8.99 -39.28,-7.48 -3.48,3.26 -1.27,9.4 -1.89,13.88 -0.6,-13 -1.32,-25.99 -3.53,-38.82z"/>
   <path class="fil5" d="M1013.41 501.66c15.39,-6.77 32.13,-12.19 49.16,-10.89 4.79,0.14 8.92,2.8 13.11,4.82 -2.42,23.88 -11.41,46.47 -23.93,66.81 -2.4,3.6 -5.49,6.67 -8.42,9.86 2.47,-15.57 6.41,-31.11 5.45,-46.98 -39.02,11.2 -73.29,34.94 -103,62.04 -8.42,7.45 -15.49,16.33 -24.15,23.5 5.16,-15.54 8.92,-31.54 11.51,-47.72 24.03,-23.7 50.58,-45.19 80.27,-61.44zm93.16 412.49c13.5,1.99 26.72,5.54 40.05,8.39 4.12,1.9 7,5.69 10.36,8.68 -1.3,6.12 -2.3,12.31 -3,18.52 -21.75,-3.53 -43.72,-5.54 -65.75,-5.42 7.31,-9.26 14.53,-18.85 18.34,-30.17zm-89.4 -5.76l1.3 -0.04c8.92,-0.29 17.84,-0.7 26.76,-1.08 5.42,12.4 7.24,26.5 3.64,39.66 -33.23,1.8 -65.68,11.13 -96.74,22.66 30.44,-5.75 61.35,-11.1 92.45,-9.73 -2.78,8.2 -7.84,15.3 -12.3,22.66 11.97,-4.75 22.8,-11.77 33.45,-18.9 3.84,-3.26 8.92,-1.03 13.36,-0.74 23.93,4.05 48.51,8.06 70.29,19.38 -8.28,42.42 -20.44,83.98 -34.73,124.74 -46.45,-29.83 -103.93,-36.76 -157.86,-30.59 -18.47,2.37 -37.22,4.62 -54.97,10.47 69.59,-8.94 145.76,1.9 202.14,46.43 -21.54,54.73 -51.63,106 -87.89,152.3 -20.84,-22.97 -47.12,-40.88 -76.45,-51.17 5.68,5.59 12.42,9.93 18.46,15.13 17.51,14.89 32.26,33.17 42.4,53.84 -31.7,35.97 -69.14,67.05 -110.86,90.76 -8.8,-16.57 -22.57,-30.04 -38.21,-40.16 12.26,13.28 23.17,28.25 28.16,45.87 -25.49,13.65 -52.42,24.58 -80.12,32.9 -1.66,-2.2 -3.31,-4.41 -4.94,-6.59 27.27,-33.69 44,-74.34 57.82,-115.04 22.06,-68.32 34.77,-139.66 38.41,-211.34 -0.43,-37.72 1.52,-75.9 11.61,-112.42 5.83,-9.26 10.31,-19.35 17.15,-27.94 19.3,-24.8 48.61,-39.71 78.75,-46.74 1.53,11.18 3.26,22.3 5.18,33.41 2.35,-13.24 6.09,-26.5 13.74,-37.73zm-92.28 -268.39c-4.17,17.08 -7.02,37.75 5.11,52.33 10.98,11.82 28.8,10.84 43.38,8.2 -17.22,26.69 -40.79,49.23 -68.15,65.35 -22.33,-5.61 -40.31,-21.35 -55.66,-37.8 7.84,-10.98 8.1,-25.13 5.85,-37.93 -1.97,-13.41 -6.4,-26.24 -11.03,-38.9 5.63,5.23 11.13,10.69 17.77,14.7 4.36,15.25 6.14,31.25 4.39,47.03l-0.19 2.01c-0.44,2.33 -1.28,6.98 -1.71,9.3 10.53,10.68 22.5,20.1 36.17,26.41 -2.76,-7.25 -5.59,-14.44 -8.28,-21.68 12.9,3.07 25.59,-3.7 35.11,-11.9 -1.73,-3.74 -3.45,-7.45 -5.16,-11.17 -10.45,5.51 -20.79,14.36 -33.43,12.3 -4.48,-15.95 -8.41,-32.06 -11.22,-48.42 19.81,-0.91 35.13,-15.37 47.05,-29.83zm106.52 16.24c56.74,-24.39 120.84,-33.6 181.78,-21.95 2.16,11.73 4.39,23.55 3.84,35.54 -11.83,5.04 -21.06,14.58 -33.1,19.14 -14.98,5.83 -31.15,8.23 -47.17,8.03 -25.25,0.89 -52.75,5.88 -71.27,24.51 -8.85,8.47 -13.16,20.12 -16.59,31.56 -22.9,-6.02 -43.98,-22.66 -48.54,-46.9 11.27,-16.02 22.71,-32.09 31.05,-49.93zm-175.29 -143.58c9.68,-4.1 19.64,-8.22 30.38,-8.17 1.05,7.41 3.09,14.62 6.11,21.48 2.71,24.46 -2.68,48.97 -8.17,72.71 -0.6,9.93 6.98,20.34 17.14,21.83 5.33,1.17 10.34,-2.02 15.33,-3.41 -10.36,14.2 -27.1,31.03 -46.31,24.96 -29.35,-12.37 -53.07,-35.18 -72.57,-59.88 -5.51,-6.47 -9.3,-14.29 -15.44,-20.24 -4.51,17.56 -3,35.59 -1.13,53.36 -10.91,-17.26 -22.08,-36.62 -21.12,-57.7 1.17,-13.33 17.65,-14.12 27.62,-17.48 15.09,18.4 27.41,38.99 36.79,60.87 4,12.2 21.39,18.1 31.68,9.95 8.03,-6 10.17,-16.79 6.86,-25.9 -0.94,-24.27 -5.93,-48.13 -7.17,-72.38zm82.49 -13.71c13.31,-1.51 27.86,-0.17 39.28,7.48 -15.32,10.29 -28.3,23.48 -42.11,35.59 0.48,-9.72 1.25,-19.45 0.94,-29.19 0.62,-4.48 -1.59,-10.62 1.89,-13.88z"/>
  </g>
 </g>
</svg>
