<?xml version="1.0" encoding="UTF-8"?>
<!DOCTYPE svg PUBLIC "-//W3C//DTD SVG 1.1//EN" "http://www.w3.org/Graphics/SVG/1.1/DTD/svg11.dtd">
<!-- Creator: CorelDRAW -->
<svg xmlns="http://www.w3.org/2000/svg" xml:space="preserve" width="2000px" height="1600px" version="1.1" style="shape-rendering:geometricPrecision; text-rendering:geometricPrecision; image-rendering:optimizeQuality; fill-rule:evenodd; clip-rule:evenodd"
viewBox="0 0 2000 1600"
 xmlns:xlink="http://www.w3.org/1999/xlink">
 <defs>
  <style type="text/css">
   <![CDATA[
    .fil0 {fill:#005495;fill-rule:nonzero}
    .fil2 {fill:#BDC0C2;fill-rule:nonzero}
    .fil1 {fill:#FEFEFE;fill-rule:nonzero}
   ]]>
  </style>
 </defs>
 <g id="Capa_x0020_1">
  <metadata id="CorelCorpID_0Corel-Layer"/>
  <g id="Drake_x0020_Bulldogs.cdr">
   <path class="fil0" d="M541.69 165.25l14.18 0c19.78,2.49 36.99,13.32 52.53,25.1 15.86,0.3 31.89,1.05 47.27,5.45 13.63,-12.39 28.99,-24.74 47.76,-27.6 13.02,-2.27 26.57,3.62 34.41,14.1 13.38,17.25 17.76,39.33 21.57,60.31 14.56,9.11 27.6,20.89 37.11,35.28 28.48,9.59 55.07,26.53 73.04,50.91 12.79,17.36 20.43,38.25 22.66,59.66 -0.21,4.69 4.39,6.84 7.28,9.6 31.2,26.25 45.23,71.04 33.99,110.31 -1.76,4.25 -0.71,8.67 0.51,12.88 3.49,13.55 0,28.55 -8.77,39.4 -5.92,7.66 -14.1,13.15 -22.45,17.86 -1.52,13.64 -5.24,27.12 -12.01,39.13 -8.25,15.61 -21.04,28.17 -34.72,39.07 40.31,11.13 78.31,32.12 107.4,62.4 34.5,34.94 55.03,82.29 60.27,130.87 105.4,-0.02 210.8,0.02 316.21,-0.02 19.4,0 38.78,3.64 56.79,10.92 5.11,-15.17 10.79,-30.15 16.24,-45.19 0.44,-2.5 2.52,-3.79 4.88,-4.21 93.05,-25.98 186.03,-52.21 279.08,-78.24 -15.38,38.88 -30.74,77.78 -46.09,116.68 46.95,0.12 93.91,0.02 140.86,0.06 27.96,0.51 56.32,-2.02 83.86,4.1 31.83,6.59 61.76,22.97 83.64,47.1 22.91,24.89 36.9,57.54 39.99,91.16 4.8,50.39 -11.71,101.29 -40.83,142.19 -34.12,47.99 -84.76,84.66 -141.92,99.64 -35.4,9.61 -72.43,6.79 -108.68,6.52 -176.63,0.06 -353.26,0 -529.89,0.02 -17.82,-0.28 -35.93,1.36 -53.41,-3.03 -12.6,-2.76 -24.76,-7.36 -36.12,-13.4 -2.29,5.34 -4.34,10.79 -6.19,16.32 -91.66,0.26 -183.34,0.06 -275,0.09 6.78,-18.09 13.99,-36.04 20.56,-54.2 -61.2,35.49 -131.47,56.99 -202.57,55.65 -83.61,0 -167.21,0 -250.83,0 19.42,-49.88 39.48,-99.51 58.75,-149.45 -15.92,16.37 -30.4,34.1 -44.68,51.9 -14.64,19.35 -30.69,38.98 -52.89,49.96 -13.44,6.99 -29.47,9.26 -44.11,4.95 -16.33,6.48 -35.11,5.19 -50.64,-2.89 -6.29,25.75 -14.18,52.6 -32.8,72.37 -10.3,11.09 -24.82,19.1 -40.24,18.83 -7.66,-0.63 -14.39,3.43 -21.52,5.43 -20.07,6.2 -44.92,4.69 -59.66,-11.97 -15.17,-1.96 -31.01,-5.62 -42.9,-15.87 -7.38,-6.29 -11.78,-15.44 -13,-24.97 -9.4,-6.66 -17.95,-15.14 -21.92,-26.17 -7.17,-18.76 -2.57,-42.22 12.98,-55.45 14.16,-12.16 21.01,-30.63 24.46,-48.49 -3.32,-7.83 -8.75,-14.67 -11.48,-22.83 -9.36,-22.7 -8.14,-50.4 6.79,-70.47 -22.21,-64.13 -38.09,-130.86 -41.44,-198.85l0 -42.12c2.88,-46.17 11.11,-93.38 34.37,-133.98 0.22,-0.63 0.66,-1.88 0.89,-2.51 16.66,-98.26 60.73,-192.95 130.43,-264.79 62.71,-65.01 146.51,-107.69 234.57,-125.96 2.99,-0.65 6.04,-1.17 8.92,-2.29 13.69,-10.45 21.08,-27.09 35.09,-37.21 14.05,-10.82 31.93,-15.36 49.44,-15.61 12.05,-14.62 28.69,-26.42 47.98,-28.45zm607.1 1146.18l0 0c-12.71,35.09 -25.64,70.1 -38.18,105.25 12.35,0.07 23.68,-6.79 31.6,-15.88 12.79,-14.81 20,-33.43 25.47,-51.98 2.32,-9.07 4.63,-19.36 0.42,-28.21 -3.59,-7.09 -12.09,-8.88 -19.31,-9.18zm-830.18 49.93l0 0c-6.75,18.89 -13.71,37.7 -20.53,56.57 7.61,0.14 15.94,0.77 22.51,-3.81 9.97,-6.67 14.47,-18.54 18.11,-29.45 1.77,-6.13 3.87,-13.83 -0.73,-19.23 -4.84,-5.51 -12.86,-4.06 -19.36,-4.08zm5.91 -16.18l0 0c5.18,-0.53 10.61,-0.57 15.44,-2.82 9.26,-3.79 14.86,-14.33 14.41,-24.05 -2.56,-7.02 -11.29,-6.45 -17.39,-6.81 -4.34,11.15 -8.27,22.47 -12.46,33.68zm-34.22 -49.55c25.22,-0.23 50.46,-0.1 75.67,-0.1 9.48,0.48 20.45,1.68 27.05,9.34 6.1,8.58 1.71,19.82 -2.94,28.02 -6.88,12.06 -21.02,16.92 -34.04,18.71 7.44,1.43 15.29,3.84 20.28,9.93 5.93,6.9 5.89,16.89 3.53,25.24 -4.12,13.93 -12.5,27.09 -24.86,35.05 -11.85,7.91 -26.36,10.85 -40.4,10.94 -24.84,-0.04 -49.67,-0.02 -74.49,-0.02 1.98,-5.43 3.91,-10.9 6.1,-16.25 2.9,-0.02 5.79,-0.06 8.69,-0.1 12.2,-35.01 25.31,-69.72 37.85,-104.62 -2.7,-0.06 -5.43,-0.12 -8.14,-0.15 1.93,-5.34 3.85,-10.66 5.7,-15.99zm1076.82 15.87l0 0c-7.73,3.3 -12.4,10.92 -16.14,18.09 -9.11,19.08 -15.19,40.03 -14.81,61.3 0.61,9.51 2.31,21.27 11.7,26.13 7.13,2.34 15.61,0.53 21.18,-4.58 6.99,-6.32 11.05,-15.09 14.5,-23.71 6.62,-16.2 10.77,-33.6 10.64,-51.15 -0.61,-8.33 -1.51,-17.67 -7.7,-23.93 -4.92,-5.29 -13.21,-4.55 -19.37,-2.15zm12.05 -18.3c17.02,-2.45 36.37,-1.37 49.98,10.39 12,10.54 15.05,27.93 12.38,43.06 -7.49,42.43 -41.89,79.61 -84.66,87.62 -11.34,0.7 -22.74,0.36 -34.1,0.23 -14.1,-2.08 -27.01,-12.13 -31.47,-25.83 -5.72,-16.98 -1.41,-35.53 5.7,-51.41 14.51,-33.16 45.84,-59.31 82.17,-64.06zm228.76 1.26c14.07,-2.59 29.75,-4.63 42.6,3.2 8.25,4.1 14.08,11.31 19.14,18.8 -11.21,5.96 -22.53,11.74 -33.8,17.57 -2.09,-8.86 -5.75,-19.78 -15.88,-21.98 -12.29,-1.73 -24.16,5.32 -31.88,14.45 -11,13 -17.79,29.09 -22.25,45.37 -2.86,11.74 -4.21,26.28 4.96,35.69 7.03,6.81 18.34,9.84 27.6,8.28 6.06,-16.24 12.1,-32.52 17.69,-48.93 -7.87,0.04 -15.73,0.29 -23.58,-0.15 1.94,-5.19 3.87,-10.37 5.43,-15.69 21.29,-0.55 42.62,-0.34 63.93,-0.09 -9.8,27.16 -19.86,54.22 -29.24,81.54 -22.61,0.51 -45.23,0.09 -67.85,0.22 -15.54,0 -32.44,-6.63 -40.03,-20.98 -8.73,-16.13 -5.6,-35.83 1.07,-52.11 13.78,-34.02 46.56,-58.15 82.09,-65.19zm204.86 3.41c14.43,-5.66 30.99,-8.12 45.87,-2.64 10.55,3.75 19.37,11.51 24.97,21.15 -10,5.43 -20.14,10.64 -30.34,15.69 -3.56,-6.98 -7.15,-14.94 -14.58,-18.51 -10.08,-4.34 -22.05,-0.15 -29.83,6.86 -4.23,3.78 -2.08,10.43 2.52,12.85 14.73,8.96 34.06,10.69 45.57,24.66 8.75,10.68 5.81,25.96 0.27,37.44 -9.69,18.33 -28.42,30.05 -47.64,36.42 -12.44,4.57 -25.88,2.38 -38.82,2.78 -15.33,-1.6 -28.4,-11.2 -39.51,-21.29 8.8,-8.65 18.28,-16.6 26.81,-25.52 9.67,12.45 23.45,22.3 39.38,24.34 8.33,1.01 18.02,1.68 25.07,-3.75 3.07,-3 6.46,-7.95 3.9,-12.26 -4.11,-5.89 -11.3,-8.21 -17.57,-11.03 -11.51,-5.02 -24.13,-9.36 -32.67,-19.07 -5.89,-6.65 -7.34,-16.27 -4.9,-24.68 5.49,-20.28 22.42,-35.77 41.5,-43.44zm-1324.93 13.97c1.32,-5.62 3.51,-10.96 5.51,-16.35 17.75,0.1 35.47,-0.11 53.22,0.12 -12.95,35.26 -25.75,70.58 -38.6,105.87 -1.52,5.07 -4.06,11.08 -1.16,16.11 4.63,4.54 11.99,3.53 17.8,2.46 9.22,-2.06 13.74,-11.38 16.85,-19.39 12.79,-35.01 25.56,-70.04 38.23,-105.09 17.75,-0.1 35.49,-0.1 53.24,0 -1.98,5.16 -3.53,10.5 -5.82,15.55 -2.82,1.32 -6.29,0.34 -9.34,0.63 -10,27.83 -20.18,55.6 -30.34,83.37 -8.14,19.21 -27.75,30.65 -46.85,36.69 -11.91,4.48 -24.81,2.32 -37.22,2.84 -11.23,0.76 -22.51,-3.85 -30.59,-11.53 -7.3,-6.98 -9.99,-18.05 -6.62,-27.6 9.95,-28.02 20.51,-55.83 30.44,-83.87 -2.91,0.06 -5.85,0.12 -8.75,0.19zm234.65 -16.31c21.62,0 43.23,-0.08 64.82,0.04 -1.96,5.45 -3.88,10.92 -6.13,16.27 -3.89,-0.11 -7.78,-0.17 -11.65,-0.2 -12.92,34.89 -25.46,69.93 -38.23,104.86 9.7,-0.05 19.42,0.27 29.12,-0.07 11.95,-1.18 20.39,-11.32 24.59,-21.83 4.61,0 9.22,0 13.86,0.02 -5.23,12.68 -11.06,25.12 -16.09,37.88 -36.73,0.57 -73.46,0.09 -110.19,0.24 1.98,-5.18 3.53,-10.54 5.83,-15.57 2.88,-2 8.7,1.49 9.76,-2.99 12.37,-34.18 24.9,-68.29 37.21,-102.51 -2.9,0.04 -5.8,0.1 -8.67,0.19 1.79,-5.5 3.81,-10.92 5.77,-16.33zm189.08 0.32c21.71,-0.78 43.47,-0.13 65.22,-0.34 -1.98,5.45 -3.96,10.92 -6.08,16.33 -3.91,-0.11 -7.79,-0.17 -11.66,-0.24 -12.98,34.92 -25.68,69.95 -38.22,105.04 10.71,-0.59 21.56,0.78 32.21,-0.75 10.41,-2.55 17.52,-11.72 21.31,-21.27 4.67,-0.02 9.34,-0.02 14.03,0 -5.62,12.66 -10.92,25.45 -16.53,38.12 -36.63,-0.03 -73.26,0.08 -109.9,-0.05 2.06,-5.28 4.01,-10.6 5.68,-16 2.94,-0.07 5.87,-0.09 8.85,-0.05 13.13,-34.88 25.69,-69.99 38.33,-105.04 -2.92,0.04 -5.82,0.09 -8.71,0.15 1.88,-5.28 3.81,-10.54 5.47,-15.9zm184.33 16.01c1.22,-5.66 3.49,-10.99 5.54,-16.35 21.03,0.06 42.07,-0.11 63.09,0.06 14.57,0.68 30.48,4.95 39.78,16.98 8.6,10.81 8.65,25.66 6.1,38.6 -6.08,26.3 -21.27,51.13 -44.14,66 -16.78,10.89 -36.98,16.07 -56.9,15.61 -19.61,-0.05 -39.24,0 -58.85,-0.02 1.84,-5.49 3.81,-10.92 6,-16.25 3.43,0.01 6.86,-0.02 10.31,-0.08 12.18,-35.05 25.41,-69.76 37.78,-104.76 -2.92,0.06 -5.83,0.14 -8.71,0.21z"/>
   <path class="fil1" d="M568.7 747.07c53.92,-36.8 116.7,-62.23 182.21,-66.86 48.01,-3.7 97.76,3.68 140.49,26.67 32.14,17.25 59.6,43.55 76.91,75.78 16.79,30.63 23.9,65.89 23.29,100.66 111.03,0.05 222.05,0.02 333.1,0.02 20.62,-0.16 42.23,0.32 61.06,9.77 10.58,5.17 19.69,13.14 26.06,23.05 10.04,-24.89 18.56,-50.44 27.73,-75.69 66.96,-19.06 134.01,-37.74 201.05,-56.49 -19.75,51.08 -40.22,101.87 -60.08,152.89 24.95,-17.19 48.93,-35.81 73.92,-52.89 60.95,-0.42 121.94,-0.02 182.92,-0.19 34.5,-0.24 69.81,12.32 93.96,37.46 23.29,23.67 34.77,57.37 33.82,90.28 -0.9,49.05 -24.46,95.69 -58.42,130.26 -39.25,40.26 -94.35,67.02 -151.25,65.57 -201.44,-0.02 -402.89,0.02 -604.35,-0.02 -30.35,-0.73 -62.29,-14.54 -77.58,-41.91 -5.26,13.99 -10.41,28.01 -15.78,41.95 -67.28,-0.16 -134.58,0.19 -201.87,-0.18 16.38,-42.73 32.77,-85.46 49.16,-128.19l-0.69 -0.33c-18.01,24.65 -42.14,43.99 -66.8,61.62 -62.8,44.07 -139.03,70.13 -216.11,68.49 -65.94,0.02 -131.91,-0.06 -197.88,0.05 14.43,-37.24 29.39,-74.25 43.8,-111.5 11.44,-0.09 22.87,-0.11 34.29,0.02 25.14,-68.73 50.09,-137.54 74.77,-206.42 -2.21,-2.97 -5.79,-4.54 -8.71,-6.69 -29.18,-19.84 -58.32,-39.68 -87.46,-59.58 25.82,-29.66 56.02,-55.39 88.44,-77.6zm635.75 334.8c15.82,-15.79 39.74,-19.47 61.18,-18.15 -1.85,7.64 -5.13,14.85 -7.61,22.3 -3.98,10.16 -6.32,21.42 -13.91,29.72 -9.32,11.24 -25.48,16.04 -39.51,12.25 -7.68,-2.02 -13.36,-9.32 -13.36,-17.29 0.13,-10.92 5.62,-21.21 13.21,-28.83zm-940.73 -42.76c10.4,-14.04 27.96,-19.3 43.81,-24.56 -0.78,22.96 -2.21,46.73 5.61,68.76 3.96,11.31 12.67,22.1 25.06,24.25 15.5,3.01 30.08,-4.48 43.94,-10.31 -11.48,15.93 -23.54,31.48 -36.83,45.97 -5.96,6.27 -11.45,13.36 -19.36,17.33 -10.96,6.19 -24.34,6.1 -35.99,1.98 -15.4,7.74 -37.68,7.43 -47.9,-8.41 -9.68,0.33 -20.3,-1.16 -27.48,-8.29 -4.96,-4.57 -6.94,-11.32 -7.07,-17.9 -8.08,-3.94 -13.97,-11.95 -14.53,-21.02 -1.2,-12.56 4.58,-24.3 10.94,-34.71 10.49,6.25 22.02,-1.24 30.98,-6.86 10.78,-7.32 20.73,-15.95 28.82,-26.23zm-66.7 -36.46c3.91,-8.77 5.76,-18.3 10.07,-26.89 5.58,18.66 8.75,37.93 10.44,57.31 -16.18,0.14 -31.43,8.71 -40.88,21.67 -11.99,15.67 -20.76,36.41 -15.04,56.23 1.37,6.18 5.34,11.17 8.33,16.58 -0.53,13.63 3.45,28.12 13.84,37.51 6.99,6.81 16.48,9.76 25.65,12.33 -6.02,24.5 -13.19,50.88 -32.48,68.49 -0.11,-7.78 4.5,-18.85 -3.33,-24.23 -4.77,6.14 -6.9,13.94 -12.33,19.63 -9.72,12.68 -26.19,18.46 -41.84,16.53 5.87,-9.99 12.35,-20.41 13.34,-32.23 -1.05,-4.58 -5.49,-1.28 -7.3,0.89 -9.19,9.93 -22.03,17.69 -35.96,17.16 -8.03,-0.08 -15.31,-3.87 -22.04,-7.87 10.69,-7.4 23.83,-14.7 27.96,-27.79 -2.74,-4.31 -7.24,-0.31 -10.58,0.87 -9.98,4.22 -22.26,7.32 -32.38,1.89 -7.7,-4.31 -10.1,-13.55 -11.07,-21.69 26.74,-22.85 42.01,-58.13 41.47,-93.18 -10.96,-10.47 -19.38,-24.88 -18.89,-40.43 0.38,-13.11 7.8,-24.68 16.64,-33.83 4.96,15.55 15.23,30.93 31.45,36.14 17.23,5.07 36.14,0.32 51.03,-9.08 15.97,-11.13 26.64,-28.24 33.9,-46.01zm1612.87 -43.28c7.05,-6.06 15.59,-12.53 25.43,-11.65 8.8,1.13 12.86,10.43 14.37,18.15 3.03,18.6 -0.31,37.54 -4.75,55.65 -25.37,-0.04 -50.72,0.06 -76.07,-0.06 10.26,-22.62 22.7,-44.96 41.02,-62.09zm-907.72 -482.02c6.96,6.7 8.56,16.7 9.05,25.91 -4.42,-1.87 -8.84,-3.72 -13.36,-5.3 1.89,-6.77 3.34,-13.65 4.31,-20.61zm-109.31 -3.29c-0.89,-2.77 -2.95,-5.24 -2.78,-8.26 9.21,6.79 19.25,14.55 21.04,26.75 -5.16,0.89 -10.27,2.03 -15.34,3.37 0.17,-7.38 -0.02,-14.96 -2.92,-21.86zm-122.08 -55.14c-13.09,-7.11 -17.51,-24.46 -11.68,-37.72 4.94,2.07 9.72,4.51 14.39,7.16 -3.76,8.85 2.76,20.15 12.52,20.44 5.32,0.8 9.78,-2.54 13.32,-6.05 3.72,2.14 7.36,4.37 10.98,6.67 -8.1,12.91 -26.49,17.67 -39.53,9.5zm-101.78 -193.35c9.25,-4.8 20.17,-3.33 29.89,-1.03 6.65,2.12 13.68,0.19 20.51,0.71 22.49,0.47 46.6,7.41 61.52,25.25 -13.7,4.67 -26.55,14.16 -31.49,28.23 21.22,-8.63 44.66,-13.7 67.5,-9.32 21.65,3.72 41.2,16.45 54.45,33.83 1.79,2 3.15,5.03 6.27,5.15 25.68,5.28 50.59,18.96 65.44,41.03 5.71,7.78 5.39,20.93 -3.55,26.17 -10.56,5.93 -24.36,0.04 -29.81,-10.18 -12.12,-21.08 -35.97,-33.5 -59.91,-34.48 8.77,7.95 18.93,16.45 21.12,28.75 1.59,11.05 -7.43,20.45 -17.29,23.79 -17.99,6.49 -37.56,0.87 -54.47,-6.26 -23.46,-11.07 -47.82,-22.24 -74.1,-23.73 -15.67,-0.91 -31.91,4.77 -42.03,17.1 15.91,-0.1 31.79,2.55 46.94,7.41 -2.06,9.04 -2.74,18.44 -0.76,27.55 -41.32,-7.34 -86.86,11.38 -108.51,47.87 -5.14,7.9 -6.82,17.27 -10.2,25.93 -3.31,3.29 -7.89,4.95 -11.76,7.53 -21,13.01 -36.88,36.21 -36.63,61.5 -0.59,11.61 2.97,22.8 7.59,33.28 -1.38,9.42 -0.63,18.97 2.13,28.08 -27.62,11.32 -53.71,29.18 -69.57,54.97 -8.61,13.82 -13.24,29.85 -14.41,46.01 24.04,-37.89 62.75,-65.36 105.62,-77.94 20.64,12.22 45.07,16.91 68.86,16.15 37.55,0.53 75.95,-8.31 107.38,-29.43 20.26,-12.91 36.12,-31.17 52.53,-48.42 20.47,-20.12 42.53,-39.74 69.31,-50.96 25.5,-10.94 53.86,-13.36 81.29,-11.15 10.08,1.54 22.81,3.1 28.22,13.07 4.33,10.85 -7.87,22.26 -18.58,20.3 -18.32,-3.18 -36.63,-10.73 -55.52,-7.22 -10.2,1.37 -19.15,6.95 -26.93,13.4 -1.24,1.44 -2.38,2.97 -3.51,4.51 9.53,5.19 19.8,12.53 21.67,24.04 1.49,12.75 -7.79,23.69 -17.8,30.27 -26.53,16.5 -60.8,16.43 -89.28,5.05 -15.86,22.15 -39.05,39.01 -65.43,46.16 -21.44,6.23 -44.07,6.61 -66.14,4.29 -30.8,-2 -62.46,-2.12 -92.29,6.9 -17.71,5.35 -34.75,15.38 -44.98,31.16 -4.61,7.65 -8.18,16.2 -8.65,25.2 0.57,-0.44 1.67,-1.35 2.23,-1.81 41.05,-20.19 88.72,-25.31 133.65,-17.94 -1.61,0.9 -3.22,1.8 -4.88,2.58 -40.01,10.59 -78.93,27.12 -112.65,51.34 -28.57,20.7 -53.2,50.02 -59.69,85.56 -5.34,25.7 -0.35,52.12 8.08,76.57 -1.51,0.15 -4.5,0.48 -6.01,0.65 -17.76,-1.24 -30.68,-15.71 -47.8,-19.16 -12.33,-2.7 -25.03,-0.4 -36.92,3.17 -34.96,9.26 -72.98,-7.13 -95,-34.73 39,1.7 72.76,-24.46 111.77,-23.27 -10.29,-4.44 -21.48,-6.2 -32.53,-7.46 -7.8,-0.07 -8.58,-8.97 -9.84,-14.86 -3.94,-25.49 10.12,-49.08 24.51,-68.85 14.34,-19.71 14.15,-45.36 13.37,-68.65 -0.52,-26.1 -8.18,-51.69 -6.24,-77.9 1.45,-26.91 13.61,-53.71 35.09,-70.43 7.45,-6.19 16.22,-10.41 24.86,-14.69 -0.9,-0.61 -2.69,-1.85 -3.59,-2.48 -26,-26.06 -40.8,-62.58 -41.83,-99.25 -1.11,-35.91 10.06,-71.26 27.37,-102.43 4.72,15.37 18.26,26.53 33.31,31.11 22.19,7.01 46.24,4.44 68.41,-1.35 33.09,-8.96 64.61,-28.06 83.54,-57.2 10.67,-16.41 16.75,-35.72 17.86,-55.24 -0.4,-1.26 -1.2,-3.77 -1.6,-5.03 3.11,-3.11 5.83,-6.83 9.89,-8.77zm102.09 498.63l0 0c-55.87,19.79 -106.64,53.1 -148.18,95.23 13.35,9.53 27.03,18.56 40.56,27.82 31.15,-32.36 69.34,-58.43 111.81,-73.45 35.49,-12.32 75.46,-16.68 111.33,-3.43 25.6,9.2 47.17,28.97 58.21,53.9 14.35,31.49 13.25,67.87 4.1,100.65 -10.33,37.27 -30.12,71.52 -55.18,100.79 -40.45,46.99 -95.24,83.74 -156.81,95.23 38.24,-107.67 78.07,-214.79 116.12,-322.5 -44.01,-4.04 -88.42,9.68 -125.86,32.29 -36.1,97.55 -70.6,195.75 -106.58,293.35 -11.51,-0.24 -23.03,-0.07 -34.54,-0.11 -7.36,18.68 -14.75,37.34 -22.03,56.05 51.8,0.42 103.63,0.06 155.45,0.18 133.88,3.49 264.37,-79.92 320.25,-201.11 16.37,-35.68 26.61,-74.98 24.15,-114.45 -1.91,-36.08 -15.5,-71.75 -39.59,-98.85 -25.41,-28.99 -61.37,-47.4 -98.86,-55.08 -51.39,-10.58 -105.22,-3.87 -154.35,13.49zm110.72 92.83l0 0c-30.35,83.46 -60.75,166.92 -90.79,250.5 44.41,-25.84 81.6,-64.52 104.53,-110.58 13.48,-28.12 22.51,-59.99 17.13,-91.28 -3.2,-19.5 -13.97,-37.99 -30.87,-48.64zm678.08 45.51l0 0c-4.5,12.41 -8.98,24.84 -13.44,37.26 9.74,-2.04 19.14,-5.41 28.71,-8.08 -34.73,95.84 -69.5,191.65 -104.28,287.45 37.38,0.21 74.77,-0.06 112.15,0.13 4.76,-12.65 9.36,-25.41 13.89,-38.16 -6.44,-0.02 -12.88,0 -19.3,-0.11 8.63,-22.72 15.89,-46.01 25.31,-68.41 13.76,35.72 28.64,71.02 42.75,106.6 32.86,-0.19 65.74,0.46 98.58,-0.32 4.04,-12.73 9.05,-25.14 13.34,-37.78 -8.63,-0.02 -17.25,0.02 -25.85,-0.02 -17.23,-38.92 -34.28,-77.89 -51.71,-116.72 34.24,-24.87 68.74,-49.37 103.01,-74.16 5.71,-4.63 13.6,-1.93 20.37,-2.38 4.99,-12.49 9.43,-25.18 14.14,-37.78 -16.62,-0.1 -33.2,0 -49.8,-0.06 -47.75,34.33 -95.45,68.73 -143.14,103.15 22.01,-63.31 45.93,-125.98 68.33,-189.17 -44.39,12.7 -88.69,25.75 -133.06,38.56zm-331.32 46.83l0 0c-22.19,7.76 -38.24,25.98 -53.5,42.96 4.53,-14.18 9.96,-28.05 15.07,-42.02 -31.18,-0.6 -62.38,-0.23 -93.56,-0.2l-1.07 0.71c-4.86,12.22 -9.51,24.53 -13.92,36.94 6.03,-0.1 12.09,-0.12 18.13,-0.12 -23.71,64.68 -47.02,129.54 -71.09,194.07 -6.16,-0.21 -12.32,-0.21 -18.45,0.06 -4.23,12.62 -9.3,24.93 -13.75,37.47 47.54,0 95.1,-0.02 142.63,0.02 4.77,-12.54 9.36,-25.14 14.11,-37.66 -10.22,-0.02 -20.42,0 -30.61,-0.02 13.55,-38.2 27.69,-76.2 41.41,-114.34 7.23,-19.92 26.44,-34.58 47.44,-36.84 14.93,-1.97 29.89,3.52 41.82,12.29 9.95,-27.01 19.88,-54 29.68,-81.04 -14.49,-12.85 -35.7,-18.91 -54.34,-12.28zm114.38 17.84l0 0c1.98,-5.74 4,-11.45 6.04,-17.17 -11.07,-0.06 -22.15,0.02 -33.22,-0.04 -10.41,28.74 -20.99,57.45 -31.22,86.27 11.59,-0.1 23.16,0.19 34.74,-0.17 7.17,-12.7 17.04,-24.67 30.58,-30.83 10.65,-4.66 23.54,-6.19 34.36,-1.2 5.87,2.56 9.26,8.79 9.67,15 0.83,13.65 -6.68,25.66 -10.96,38.14 -23.6,0.04 -47.18,0.04 -70.76,0 -25.56,-1.04 -50.49,9.21 -70.44,24.69 -21.79,16.73 -38.86,40.63 -44.41,67.79 -3.2,16.34 -1.41,34.46 8.4,48.34 9.99,14.92 27.96,22.93 45.58,23.58 28.7,1.24 56.91,-9.3 80.24,-25.54 -2.84,7.77 -6,15.44 -8.96,23.17 40.26,-0.02 80.53,0.06 120.8,-0.03 4.67,-12.72 9.48,-25.37 14.13,-38.09 -8.64,-0.02 -17.27,0.02 -25.91,-0.02 19.14,-53.4 38.58,-106.71 57.87,-160.06 5.55,-16.97 6.44,-37.63 -5.13,-52.36 -8.61,-11.8 -22.89,-17.86 -36.93,-20.13 -35.7,-6.02 -72.36,3.01 -104.47,18.66zm539.82 -10.02l0 0c-38.48,14.9 -71.21,43.09 -93.51,77.63 -15.23,23.92 -26.15,51.27 -27.89,79.78 -1.86,27.66 7.93,56.14 27.74,75.75 18.24,19.94 45.02,31.43 72.01,31.33 34.09,1.11 67.26,-12.02 94.71,-31.6 18.54,-13.55 36.04,-29.29 48.85,-48.51 -17.84,-0.03 -35.67,0.04 -53.47,-0.03 -15.82,17.7 -36.8,33.45 -61.43,34.38 -14.31,0.86 -30.49,-4.82 -36.86,-18.6 -7.59,-16.81 -3.41,-35.78 0.8,-52.91 56.8,-0.12 113.6,0.26 170.38,-0.19 13.44,-31.85 18.03,-69.84 2.32,-101.75 -14.18,-27.23 -40.38,-49.17 -71.15,-54.26 -24.39,-3.91 -49.55,0.36 -72.5,8.98z"/>
   <path class="fil2" d="M201.67 389.81c39.86,-38.63 86.81,-71.19 139.68,-89.08 -7.13,7.52 -15.38,13.91 -22.07,21.88 -36.43,39.79 -60.48,93.2 -57.39,147.83 10.06,-29.13 22.03,-58.31 41.13,-82.76 -2.35,19.9 -1.76,40.35 4.38,59.58 10.18,32.8 34.86,60.04 64.65,76.47 0.9,0.63 2.69,1.87 3.59,2.48 -8.64,4.28 -17.41,8.5 -24.86,14.69 -21.48,16.72 -33.64,43.52 -35.09,70.43 -1.94,26.21 5.72,51.8 6.24,77.9 0.78,23.29 0.97,48.94 -13.37,68.65 -14.39,19.77 -28.45,43.36 -24.51,68.85 1.26,5.89 2.04,14.79 9.84,14.86 -15.94,-1.35 -31.97,-0.8 -47.77,1.47 -18.07,2.69 -36.97,-1.89 -51.92,-12.29 -16.24,-10.96 -28.03,-27.66 -34.44,-46.05 -2.55,21.94 3.68,45.11 18.17,61.96 4.3,5.47 9.93,9.65 15.15,14.18 -5.26,4.65 -12.12,8.45 -14.83,15.25 1.45,35.05 17.14,67.19 28.84,99.65 -4.31,8.59 -6.16,18.12 -10.07,26.89 -7.26,17.77 -17.93,34.88 -33.9,46.01 -14.89,9.4 -33.8,14.15 -51.03,9.08 -16.22,-5.21 -26.49,-20.59 -31.45,-36.14 -25.63,-71.08 -42.69,-145.85 -44.41,-221.6 -0.44,-43.49 5.02,-87.65 21.67,-128.12 5.99,12.7 9.93,27.01 20.25,37.19 -6.05,-49.46 0.55,-99.93 15.76,-147.22 21.19,-65.03 59.52,-123.82 107.76,-172.04zm298.54 488.23c12.7,7.66 24.29,17 36.73,25.04 -9.79,27.32 -19.31,54.78 -29.73,81.83 -18.78,13.42 -36.56,28.26 -54.3,43.05 -21.71,18.21 -42.53,37.59 -61.3,58.86 -3.18,3.43 -5.81,7.47 -9.47,10.43 -13.86,5.83 -28.44,13.32 -43.94,10.31 -12.39,-2.15 -21.1,-12.94 -25.06,-24.25 -7.82,-22.03 -6.39,-45.8 -5.61,-68.76l0 -0.33c14.6,-3.73 27.74,-12.56 36.83,-24.57 8.06,-10.37 13.59,-22.39 19.17,-34.19 39.93,-0.69 80.38,-14.77 109.69,-42.41 10.64,-10.23 20.17,-21.86 26.99,-35.01zm-48.22 -117.78c33.72,-24.22 72.64,-40.75 112.65,-51.34 -50.46,33.31 -96.56,74.08 -132.32,123.05 17.23,11.57 34.35,23.31 51.46,35.03 -16.41,24.65 -40.33,45.31 -69.09,53.75 -6.63,1.45 -13.49,3.7 -20.32,2.29 1.51,-0.17 4.5,-0.5 6.01,-0.65 -8.43,-24.45 -13.42,-50.87 -8.08,-76.57 6.49,-35.54 31.12,-64.86 59.69,-85.56zm344.55 -207.24c1.13,-1.54 2.27,-3.07 3.51,-4.51l-1.34 3.45c21.41,-4.43 44.45,-0.31 62.96,11.38 2,1.54 5.66,2.53 5.13,5.79 -0.21,22.49 -13.8,42.9 -31.3,56.13 -16.75,13.67 -38.35,20.47 -59.83,20.78 -20.79,0.02 -41.8,-4.23 -60.48,-13.54 -22.03,27.87 -56.4,45.29 -91.89,46.78 -39.89,1.37 -80.01,-7.8 -119.69,-0.59 -27.47,5.07 -53.28,21.53 -67.74,45.59 -0.56,0.46 -1.66,1.37 -2.23,1.81 0.47,-9 4.04,-17.55 8.65,-25.2 10.23,-15.78 27.27,-25.81 44.98,-31.16 29.83,-9.02 61.49,-8.9 92.29,-6.9 22.07,2.32 44.7,1.94 66.14,-4.29 26.38,-7.15 49.57,-24.01 65.43,-46.16 28.48,11.38 62.75,11.45 89.28,-5.05 10.01,-6.58 19.29,-17.52 17.8,-30.27 -1.87,-11.51 -12.14,-18.85 -21.67,-24.04zm-104.66 -96.19c27.16,-33.32 67.32,-56.54 110.36,-60.67 19.42,-1.74 40.18,-0.38 57.68,8.98 -18.84,-0.5 -38.43,-0.04 -55.77,8.23 16.92,17.46 41.76,24.8 65.28,27.68 7.81,-1.64 14.65,-6.68 20.54,-11.96 6.96,10.22 13.92,21.52 13.96,34.29 -6.03,-3.54 -11.97,-7.28 -18.66,-9.45 1.88,11.99 3.92,24.64 -0.18,36.46 -19.13,-4.38 -39.15,-6.76 -58.62,-3.52 -3.49,-11.75 -10.64,-22.51 -20.99,-29.22 -9.15,-6.25 -19.98,-9.32 -30.78,-11.08 4.93,17.33 8.8,36.2 2.46,53.71 -18.85,7.59 -34.96,20.46 -50.06,33.76 -16.67,14.54 -30.38,32.13 -47.65,46.03 -22.01,18.24 -48.29,33.39 -77.32,35.72 -19.58,2.23 -39.76,-7.93 -49.94,-24.7 -12.9,-20.36 -9.21,-45.98 -2.71,-67.86 -14.62,7.42 -24.47,22.34 -27.06,38.37 -3.49,18.64 1.58,37.47 7.51,55.07 -23.98,-2.12 -47.31,-14.24 -60.21,-35.02 -4.62,-10.48 -8.18,-21.67 -7.59,-33.28 -0.25,-25.29 15.63,-48.49 36.63,-61.5 3.87,-2.58 8.45,-4.24 11.76,-7.53 3.38,-8.66 5.06,-18.03 10.2,-25.93 21.65,-36.49 67.19,-55.21 108.51,-47.87 0.36,1.5 1.05,4.48 1.39,5.96 -20.7,0.96 -42.25,7.3 -57.1,22.44 -10.94,11.26 -16.53,26.55 -18.41,41.91 11.01,-14.56 25.65,-26.89 43.3,-32.4 21.69,-7.47 45.34,-4.2 66.67,2.91 -6.36,12.16 -11.64,25.14 -12.48,39.02 -1.35,17.1 2.65,34.65 11.32,49.46 -0.88,-28.32 10.56,-56.04 27.96,-78.01zm-8.88 -244.94c6.33,-5.82 13.46,-11.94 22.38,-12.87 5.62,-0.32 10.65,3.43 13.34,8.16 5.13,8.63 6.46,18.83 7.51,28.64 -7.89,-1.61 -15.94,-2.36 -23.98,-2.68 -5.58,-7.17 -12.33,-13.23 -18.91,-19.42 -0.09,-0.46 -0.26,-1.38 -0.34,-1.83zm-164.34 7.01c8.83,-5.74 13.48,-17.55 24.57,-19.57 11.69,-1.68 22.76,4 32.75,9.39 7.93,4.79 16.33,9.19 22.91,15.82 -9.72,-2.3 -20.64,-3.77 -29.89,1.03 -4.06,1.94 -6.78,5.66 -9.89,8.77 -0.84,0.57 -2.54,1.71 -3.39,2.27 -14.68,29.27 -36.33,56.15 -65.34,72.12 -17.02,9.34 -36.5,13.7 -55.87,13.3 -10.69,-0.17 -22.26,0.88 -31.98,-4.46 -6.29,-3.54 -3.47,-11.87 0.34,-16.2 13.23,-16.67 30.82,-29.12 45.98,-43.87 7.83,-7.44 11.55,-18.91 21.51,-24.04 15.16,-7.89 34.31,-3.75 48.3,-14.56zm-405.6 464.23l0 0c4.43,24.79 18.3,46.79 35.34,64.9 -1.73,-7.19 -4.97,-13.9 -7.01,-20.99 -11.76,-38.1 -14.91,-78.3 -14.2,-117.98 -13.1,22 -18.83,48.74 -14.13,74.07z"/>
  </g>
 </g>
</svg>
