<?xml version="1.0" encoding="UTF-8"?>
<!DOCTYPE svg PUBLIC "-//W3C//DTD SVG 1.1//EN" "http://www.w3.org/Graphics/SVG/1.1/DTD/svg11.dtd">
<!-- Creator: CorelDRAW -->
<svg xmlns="http://www.w3.org/2000/svg" xml:space="preserve" width="2000px" height="1600px" version="1.1" style="shape-rendering:geometricPrecision; text-rendering:geometricPrecision; image-rendering:optimizeQuality; fill-rule:evenodd; clip-rule:evenodd"
viewBox="0 0 2000 1600"
 xmlns:xlink="http://www.w3.org/1999/xlink">
 <defs>
  <style type="text/css">
   <![CDATA[
    .fil0 {fill:#B8BBBD}
    .fil1 {fill:#850038;fill-rule:nonzero}
    .fil2 {fill:#FEFEFE;fill-rule:nonzero}
   ]]>
  </style>
 </defs>
 <g id="Capa_x0020_1">
  <metadata id="CorelCorpID_0Corel-Layer"/>
  <g id="Eastern_x0020_Kentucky_x0020_Colonels.cdr">
   <path class="fil0" d="M213.55 999.24c-11.4,-18.6 -20.39,-39.61 -26.73,-60.35 -6.2,-20.28 -10.54,-42.54 -10.59,-64 -28.52,5.51 -58.52,3.45 -85.9,-6.3l-15.04 -5.35 15.16 -5.01c5.96,-1.97 12.25,-3.69 18.43,-5.69 -28.8,-1.5 -57.27,-7.78 -84.86,-16.13l-24.02 -7.26 24.86 -3.41c17.43,-2.39 34.73,-5.9 51.69,-10.61 -8.44,-0.62 -16.83,-1.71 -25.14,-3.34l-18.37 -3.6 17.41 -6.87c19.76,-7.8 40.66,-14.36 59.14,-25.08 -19.67,-9.24 -37.78,-22.44 -48.56,-41.72 -11.07,-19.84 -10.5,-45 0.6,-64.7 13.35,-23.68 36.64,-39.88 61.34,-50.05 43.98,-18.1 92.61,-20.73 139.53,-17.16 16.1,1.23 32.12,3.37 48.04,6.06 11.64,-20.11 23.06,-40.4 37.37,-58.78 9.75,-12.53 20.9,-24.31 35.61,-30.95 21.25,-9.59 43.96,-15.17 66.68,-20.05l0.11 -0.02c20.84,-4.04 41.95,-7.63 63.26,-7.04 30.71,0.84 73.22,28.68 93.48,50.9 8.4,9.21 15.89,19.69 17.56,32.37 2.18,16.64 -1.72,32.38 -3.03,48.64 38.17,-5.59 83.07,-7.22 119.4,5.27 22.72,7.82 46.44,23.38 50.19,49.07 2.04,13.96 -2.61,27.46 -10.52,38.84 -10.07,14.49 -25.25,25.74 -40.62,34.03 -41.57,22.43 -88.98,30.32 -135.69,33.06 4.08,20.15 -7.62,39.34 -20.02,55.04 6.15,11.81 14.81,24.98 28.81,26.9l10.38 1.43 -7.1 7.71c-12.45,13.52 -31.62,15.89 -48.9,12.74 -8.09,11.5 -17.75,23.86 -19.31,37.99l-0.02 0.15c-3.51,25.38 -13.65,50.43 -31.76,68.92 -8.49,8.67 -18.75,15.36 -29.69,20.53l-4.55 2.15 -2.53 -4.36c-2.69,-4.64 -5.17,-9.64 -8.05,-14.32 -5.71,14.7 -14.63,28.05 -25.37,39.61l-0.68 0.74c5.27,8.57 9.45,17.81 12.29,27.56l0.69 2.34 -1.28 2.07c-4.56,7.37 -9.35,14.62 -15.01,21.2l-2.69 3.14 -3.76 -1.74c-2.88,-1.33 -4.86,-3.66 -5.84,-6.63 -3.45,-7.73 -7.42,-15.21 -11.83,-22.42 -19.58,14.63 -40.63,27.79 -64.13,35.06l-9.98 3.08 3.13 -9.96c4.37,-13.91 7.46,-28.18 9.95,-42.53 -27.88,27.12 -64.55,46.28 -100.88,57.13l-2.33 0.7 -2.09 -1.27c-15.76,-9.62 -30.9,-20.19 -46.26,-30.43l-12.86 -8.57 15.39 -1.44c38.6,-3.61 97.06,-10.22 128.32,-39.91 -30.93,13.49 -64.89,19.4 -98.51,21.4 -21.48,1.28 -43.3,1.28 -64.39,-3.49l-1.9 -0.43 -1.2 -1.53c-10.56,-13.47 -19.7,-27.94 -29.56,-41.91l-7.12 -10.08 12.26 1.49c22.54,2.74 45.01,5.42 67.59,7.17zm762.99 -214.68c-10,13.19 -20.97,25.59 -31.23,38.57l-2.7 3.42 -3.94 -1.87c-25.47,-12.07 -54.95,-12.64 -82.22,-7.46 -17.33,3.29 -34.61,8.92 -49.17,19.1 -24.19,16.9 -44.84,38.76 -60.97,63.42 -13.98,21.36 -24.27,46.74 -22.44,72.69 0.82,11.77 5.75,25.33 17.18,30.6l0.12 0.06c21.9,10.76 47.2,12.71 71.04,14.25 55.11,2.16 110.26,2.12 165.4,2.85 53.92,0.7 107.84,1.48 161.77,1.71l4.93 0.02 0.99 9.82 -4.84 1c-14.1,2.92 -28.61,4.78 -42.93,6.31 -18.01,1.93 -36.11,3.26 -54.19,4.34 -42.38,2.52 -84.93,3.64 -127.38,4.35 -38.97,0.66 -77.94,0.89 -116.92,1.04 -31.15,0.12 -62.33,0.11 -93.48,0.55 -23.7,0.33 -48.28,-2.93 -69.09,-15.01 -35.17,-20.42 -31.73,-59.31 -18.36,-92.24 21.66,-53.33 60.31,-100.67 111.6,-127.82 52.65,-27.87 112.81,-35.34 171.52,-37.84 23.64,-1 47.3,-0.65 70.94,-0.65l11.03 0 -6.66 8.79zm-140.4 168.04c-0.58,1.26 -2.77,5.53 -1.86,6.66l0.21 0.26 0.18 0.28c1.49,2.38 7.29,1.95 9.65,1.89 5.11,-0.14 9.79,-3.58 11.81,-8.21l0.05 -0.1 0.04 -0.09c10.36,-21.38 20.72,-42.75 31.09,-64.12 1.04,-2.14 2.88,-6.75 0.94,-8.95 -2.66,-3.01 -9.59,-1.67 -12.78,-0.41 -3.78,1.48 -6.45,5.11 -8.17,8.66 -10.32,21.4 -20.68,42.8 -31.16,64.13zm375.12 -62.33c-10.23,21.9 -21.18,43.45 -31.56,65.28l-0.14 0.3 -0.17 0.28c-0.38,0.59 -1.01,1.75 -0.72,2.5 0.35,0.9 1.72,1.69 2.54,2.06 2.03,0.92 4.47,1.26 6.68,1.19 5.07,-0.15 10.04,-2.36 12.37,-7.09 10.71,-21.73 20.96,-43.7 31.82,-65.36 1.27,-2.51 2.86,-6.93 0.59,-9.39 -2.15,-2.33 -6.41,-2.11 -9.17,-1.28 -5.64,1.68 -9.81,6.31 -12.24,11.51zm-296.01 74.73c-3.77,8.86 -11.75,14.99 -20.6,18.09 -12.36,4.58 -25.4,5.55 -38.42,6.6l-0.13 0.01c-24.39,1.39 -48.95,1.93 -73.24,-1.18l-0.16 -0.02 -0.16 -0.03c-7.12,-1.34 -14.13,-2.36 -19.24,-8.15l-1.08 -1.23 -0.24 -1.61c-0.6,-4.18 0.82,-7.51 2.45,-11.21l0.04 -0.1 0.05 -0.09c15.16,-31.1 30.34,-62.19 45.32,-93.38 6.57,-13.7 21.5,-16.86 34.98,-19.57l0.15 -0.03 0.15 -0.02c26.25,-3.74 52.87,-3.74 79.3,-2.41l0.09 0.01 0.09 0c12.62,1.07 25.27,1.52 36.23,8.77l3.93 2.6 -1.98 4.28c-15.36,33.12 -31.82,65.71 -47.53,98.67zm886.16 -159.75c-3.75,0.01 -7.5,0 -11.25,-0.02 -1.6,2.39 -3.17,4.8 -4.74,7.21 3.98,0.05 7.96,0.11 11.94,0.14l2.34 -4.04 1.71 -3.29zm21.66 4.65l-3.7 6.14c-1.74,2.9 -3.45,5.76 -5.77,8.25 -4.29,4.59 -9.55,6.63 -15.74,7.09 -5.41,0.4 -10.9,0.58 -16.32,0.63 -4.55,0.04 -9.2,0 -13.74,-0.36 -3.48,-0.28 -8.46,-0.72 -10.89,-3.51 -3.24,-3.72 -0.64,-9.22 1.24,-12.93 2.22,-4.37 5.01,-8.7 7.92,-12.65 4.13,-5.6 11.84,-15.06 19.31,-15.57 10.33,-0.7 20.66,-0.15 31,-0.32l0.39 -0.01 0.38 0.05c1.2,0.15 2.52,0.14 3.75,0.23 3.66,0.28 7.75,1.09 9.45,4.84 0.99,2.2 0.67,4.59 -0.52,6.64l-6.68 11.48 -0.08 0zm59.47 15.63l1.63 -2.55c2.65,-4.14 5.34,-8.25 8.03,-12.37 -1.81,-3.09 -3.62,-6.19 -5.42,-9.3 -7.27,2.91 -14.6,5.68 -21.85,8.63 4.48,3.91 8.94,7.87 13.38,11.83l4.23 3.76zm-21.91 -33.21c1.41,-0.58 2.81,-1.16 4.22,-1.75 3,-1.55 6.18,-2.59 9.5,-3.22 9.8,-1.86 19.16,0.07 28.85,-0.65l3.57 -0.26 1.67 3.16c1.18,2.22 2.35,4.43 3.52,6.65 5.54,-2.9 10.88,-6.2 16.68,-8.67l0.5 -0.21 0.54 -0.11c5.66,-1.17 11.01,-0.44 16.69,-0.36l20.61 0.3 -18.04 9.97c-11.31,6.25 -23,11.8 -34.21,18.24 -3.67,3.57 -6.23,9.25 -9.07,13.48l-1.59 2.37 -2.86 0.06c-4.14,0.07 -8.28,0.09 -12.43,0.09l-10.01 0 0.06 -0.09 -4.15 0.02c-6.31,0.02 -12.57,0.43 -18.88,-0.2l-1.32 -0.13 -1.11 -0.73c-4.26,-2.75 -7.64,-6.25 -11.19,-9.64 -1.74,2.66 -3.45,5.33 -5.11,8.04l-1.56 2.55 -2.99 0.07c-4.18,0.09 -8.36,0.13 -12.54,0.19l-10.2 0.14 5.51 -8.58c7.21,-11.23 14.81,-22.21 21.8,-33.58l1.54 -2.51 2.95 -0.1c4.22,-0.13 8.44,-0.17 12.66,-0.17l9.97 0 -3.58 5.63zm57.79 106.41c11.17,5.15 23.47,7.28 34.61,12.83l0.13 0.07 0.12 0.06c9.35,5.27 10.13,17.58 4.91,26.01 -5.9,10.71 -10.76,21.94 -17.24,32.34l-0.24 0.4 -0.32 0.35c-11.8,13.22 -29.58,16.92 -46.33,19.35l-0.11 0.02 -0.12 0.01c-26.13,2.66 -52.55,0.6 -78.27,-4.41l-6.68 -1.3 2.7 -6.25c3.86,-8.93 8.61,-17.41 13.08,-26.03l2.33 -4.48 4.65 1.95c13.47,5.65 28.79,5.55 43.11,4.33 5.55,-0.88 14.52,-1.92 17.24,-7.57l0.1 -0.22 0.13 -0.2c0.8,-1.35 1.59,-2.72 2.26,-4.14 0.58,-1.26 1.44,-3.4 1.19,-4.82 -0.1,-0.57 -0.41,-0.97 -0.83,-1.34 -1.81,-1.16 -3.72,-2.15 -5.69,-3.02 -10.43,-4.61 -22,-6.02 -32.52,-10.86l-0.07 -0.04 -0.07 -0.03c-5.92,-2.93 -8.85,-9.9 -7.81,-16.26 1.23,-9.87 6.61,-17.48 11.65,-25.73 4.18,-6.83 7.31,-13.57 14.42,-17.71 29.11,-17.99 85.31,-14.05 118.21,-9.05l7.04 1.07 -2.84 6.53c-3.19,7.34 -6.36,14.7 -9.68,21.98l-2.09 4.59 -4.75 -1.7c-17.42,-6.25 -36.96,-5.54 -54.89,-1.95l-0.22 0.04 -0.22 0.03c-4.94,0.57 -7.4,7.75 -8.98,11.67l-0.11 0.28 -0.15 0.27c-0.46,0.86 1.64,2.53 2.35,2.93zm-905.16 55.86c17.65,-0.34 35.34,-0.06 52.95,-1.36 8.75,-1.17 17.18,-4.62 25.38,-7.75l14.17 -5.41 -7.44 13.21c-6.18,10.97 -12.02,22.13 -18.57,32.88l-1.54 2.54 -2.97 0.09c-45.89,1.4 -91.8,0.14 -137.69,0.1l-8.79 -0.01 3.87 -7.88c19.09,-38.89 38.74,-77.5 58,-116.3 1.13,-2.29 1.25,-5.64 1.49,-8.14l0.47 -5.02 5.04 0.06c18.07,0.19 36.14,0.78 54.21,0.78l8.33 0 -3.29 7.64c-13.73,31.89 -28.97,63.1 -43.62,94.57zm412.4 -39.85c5.66,-11.84 11.27,-23.7 16.88,-35.56 3.61,-7.62 8.15,-15.46 9.8,-23.81l0.85 -4.34 4.42 -0.08c18.17,-0.32 36.35,-0.08 54.51,0.44l8.46 0.24 -3.68 7.62c-20.4,42.26 -41.66,84.1 -62.08,126.35l-0.66 1.37 -3.63 2.38 -70.06 -0.06 -23.35 -79.06c-11.61,24.65 -22.94,49.43 -34.61,74.04l-1.48 3.15 -3.48 -0.02c-12.03,-0.03 -24.05,0.58 -36.06,1.01l-9.32 0.34 4.24 -8.31c18.88,-36.99 36.3,-74.71 54.78,-111.9l0.05 -0.09 0.05 -0.1c1.99,-3.63 3.04,-7.68 3.31,-11.8l0.35 -5.27 5.28 0.15c20.56,0.59 41.14,0.44 61.7,1.49l3.77 0.19 1.16 3.59c6.27,19.34 12.39,38.74 18.8,58.04zm175.63 -33.37c-3.37,7.02 -6.82,13.99 -10.21,21 11.26,0.24 22.52,0.45 33.79,0.32l9.35 -0.1 -4.49 8.21c-3.87,7.08 -7.82,14.13 -11.82,21.14l-1.59 2.8 -3.22 -0.03c-12.47,-0.12 -24.95,0.07 -37.42,-0.11 -3.53,7.11 -6.96,14.27 -10.32,21.46 14.49,-0.4 28.99,0.23 43.48,-0.31 11.56,-0.42 22.95,-3.29 34.16,-5.94l12.6 -2.97 -6.64 11.11c-5.87,9.83 -12.29,19.32 -18.52,28.92l-1.62 2.49 -2.97 0.01c-44.92,0.03 -89.85,-0.25 -134.76,0.13l-10.39 0.09 5.79 -8.62c4.04,-6.02 7.18,-12.62 10.21,-19.18l0.05 -0.11c15.59,-31.93 31.04,-63.93 46.65,-95.84 1.54,-3.15 2.02,-7.13 2.63,-10.56l0.8 -4.55 4.62 0.03c45.27,0.27 90.54,-0.06 135.8,0.15l8.4 0.04 -3.42 7.67c-4.27,9.61 -8.61,19.19 -13.07,28.71l-2.48 5.29 -5.12 -2.82c-21.12,-11.63 -46.9,-8.8 -70.27,-8.43zm126.86 73.25c17.29,-0.39 34.6,-0.14 51.87,-1.25 9.08,-1.04 17.84,-4.54 26.31,-7.79l13.85 -5.32 -7.07 13.04c-6.06,11.19 -12.36,22.25 -18.63,33.32l-1.58 2.79 -3.21 -0.01c-45.8,-0.13 -91.61,0.14 -137.41,-0.66l-8.66 -0.16 3.85 -7.76c16.95,-34.15 34.08,-68.22 51.06,-102.24 3.14,-6.62 8.4,-14.27 8.56,-21.79l0.12 -5.53 5.53 0.17c18.05,0.57 36.11,0.85 54.17,0.95l8.37 0.04 -3.39 7.65c-14.06,31.76 -29.16,63.03 -43.74,94.55zm-573.59 -81.62c5.85,-13.28 20.08,-16.73 32.93,-19.46l0.13 -0.03 0.14 -0.02c26.08,-4.17 52.62,-4.07 78.94,-2.95l0.1 0 0.11 0.01c13.46,1.09 26.98,1.14 38.71,8.92l3.91 2.59 -1.96 4.27c-15.32,33.37 -31.99,66.1 -47.7,99.15 -5.78,12.94 -19.39,18.42 -32.42,21 -7.29,1.45 -14.96,2.21 -22.36,2.82 -9.32,0.75 -18.7,1.19 -28.05,1.39 -9.44,0.2 -18.94,0.17 -28.38,-0.25 -7.46,-0.32 -15.36,-0.84 -22.7,-2.22l-0.1 -0.01 -0.1 -0.03c-6.58,-1.49 -12.92,-2.24 -17.54,-7.87l-0.98 -1.19 -0.21 -1.53c-0.65,-4.59 0.88,-8.64 2.86,-12.68 14.99,-30.59 29.74,-61.3 44.67,-91.91zm417.27 -60.19c1.66,-2.52 3.31,-5.04 4.97,-7.57l-2.16 0.01c-3.69,0.02 -7.37,0.01 -11.06,0l-1.43 2.25c-1.12,1.78 -2.24,3.56 -3.36,5.33 1.36,0 2.73,0 4.09,0l8.95 -0.02zm-62.39 7.11c4.48,-6.81 8.97,-13.62 13.44,-20.44 -8.04,3.96 -16.45,7.1 -24.79,10.39 3.77,3.36 7.56,6.71 11.35,10.05zm13.06 11.48l0.23 0.2 -14.73 -0.13c-6.32,-0.06 -12.64,-0.06 -18.96,-0.06l-2.22 0 -1.59 -1.54c-3.23,-3.13 -6.53,-6.19 -9.87,-9.2 -1.76,2.7 -3.5,5.42 -5.22,8.14l-1.59 2.5 -2.96 0.04c-4.12,0.06 -8.23,0.06 -12.34,0.1l-10.16 0.1 5.51 -8.55c7.34,-11.38 14.73,-22.74 22.35,-33.95l1.64 -2.41 2.92 0.01c4.02,0.02 8.05,0.04 12.07,0.06l10.17 0.05 -3.61 5.43c3.74,-1.55 7.5,-3.08 11.31,-4.47l0.26 -0.09 0.27 -0.07c6.46,-1.63 13.11,-1.3 19.7,-1.13l7.45 0.19 1.15 0.01c15.14,0.12 30.27,0.02 45.4,0.06l9.25 0.02 0 0 2.93 -0.02c2.66,-0.02 5.32,-0.02 7.98,-0.04l2.33 -0.02 1.63 1.68c4.98,5.12 9.85,10.35 14.7,15.6 3.17,-4.78 6.28,-9.6 9.32,-14.46l1.53 -2.45 2.89 -0.12c3.83,-0.15 7.66,-0.11 11.48,-0.17l10.12 -0.15 -0.08 0.13 0.48 0c17,0 33.99,0 50.99,0l7.41 0 0.04 -0.07 2.96 0.03c4.06,0.04 8.11,0.06 12.16,0.1l10.22 0.09 -5.74 8.46c-3.93,5.8 -7.76,11.68 -11.61,17.54 4.14,0 8.28,0.01 12.41,0.03 5.25,-7.91 10.38,-15.9 15.67,-23.78l1.64 -2.43 2.93 0.01c4.03,0.02 8.05,0.02 12.08,0.02l10.08 0 -5.49 8.46c-5.77,8.9 -11.51,17.82 -17.32,26.55 -3.52,5.54 -9.49,9.41 -16.14,9.61 -10.11,0.31 -20.22,-0.01 -30.34,0.16l-0.18 0 -0.18 -0.01c-0.87,-0.04 -1.76,-0.02 -2.64,-0.04 -3.82,-0.07 -7.26,-0.76 -10.08,-3.56l-1.31 -1.3 -0.26 -1.83c-0.73,-5.29 1.85,-8.32 4.22,-12.5l0.11 -0.18 0.11 -0.17c1.48,-2.2 2.95,-4.41 4.41,-6.63l-0.22 0c-5.46,0 -10.91,0 -16.37,-0.01 -5.29,7.88 -10.38,15.89 -15.67,23.77l-1.64 2.44 -2.93 -0.02c-4,-0.02 -8,-0.02 -11.99,0l-10.05 0.05 5.4 -8.47c3.8,-5.96 7.75,-11.84 11.61,-17.76 -3.06,0 -6.12,0 -9.18,0l-7.43 0c-5.15,7.92 -10.38,15.77 -15.54,23.68l-1.63 2.48 -2.96 0c-2.78,0 -5.56,-0.02 -8.33,-0.02l-2.47 0 -1.63 -1.84c-4.62,-5.2 -9.36,-10.29 -14.01,-15.46 -3.2,4.95 -6.24,10 -9.92,14.64l-0.97 1.21 -1.45 0.54c-0.44,0.16 -0.89,0.3 -1.35,0.41 -2.46,0.65 -4.9,0.68 -7.42,0.59 -1.35,-0.04 -2.77,-0.13 -4.12,-0.03l-11.17 0.86 0.73 -1.1 -1.21 0.03c-11.99,0.27 -23.98,0.22 -35.97,0.16zm-228.46 -26.04l-2.27 -0.03c-3.74,-0.05 -7.47,-0.07 -11.2,-0.08l-1.19 2.03c-1.08,1.87 -2.18,3.72 -3.28,5.58 1.38,0 2.77,0.01 4.15,0.02l8.78 0.08c1.67,-2.53 3.34,-5.06 5.01,-7.6zm11.96 -18.58l0 0 3.02 -0.02c13.29,-0.05 26.58,-0.24 39.87,0.03 1.34,0.02 2.75,0.27 4.03,0.69 4.73,1.54 7.79,5.81 5.84,10.76 -1.83,5.26 -5.06,9.47 -8.34,13.88 -2.53,3.41 -5.72,5.17 -9.24,6.14 1.21,1.31 2.41,2.61 3.61,3.91 7.3,-10.97 14.36,-22.1 21.7,-33.05l1.63 -2.43 2.92 0c2.71,0 5.42,-0.02 8.12,-0.02l2.41 0 1.63 1.78c4.76,5.18 9.58,10.31 14.43,15.41 3.16,-4.82 6.38,-9.61 9.39,-14.53l1.59 -2.61 3.05 -0.01c3.77,-0.02 7.54,-0.02 11.31,-0.02l10.03 0 -5.42 8.44c-7.25,11.29 -14.71,22.44 -21.97,33.71l-1.59 2.47 -2.94 0.04c-2.72,0.04 -5.44,0.06 -8.16,0.12l-2.41 0.05 -1.66 -1.74c-4.91,-5.12 -9.56,-10.49 -14.4,-15.69 -3.25,5.03 -6.5,10.06 -9.89,15l-1.65 2.41 -2.92 -0.03c-2.21,-0.02 -4.42,-0.04 -6.63,-0.05l0.02 0.02 -12.61 -0.05c-5.74,-0.02 -11.46,0.3 -17.2,-0.17l-1.98 -0.16 -1.42 -1.39c-3.1,-3.06 -5.35,-6.53 -7.73,-10.04 -0.86,-0.02 -1.72,-0.03 -2.59,-0.04 -2.05,3.16 -4.14,6.3 -6.25,9.44l-1.64 2.45 -2.96 -0.03c-3.97,-0.04 -7.94,-0.04 -11.91,-0.07l-8.49 -0.09 -0.04 0.07 -3.02 0.02c-15.36,0.09 -30.72,0 -46.07,0.05l-10.05 0.04 5.41 -8.47c3.8,-5.94 7.68,-11.84 11.56,-17.73l-0.01 0c-5.52,-0.01 -11.03,0 -16.54,-0.04 -5.26,7.86 -10.43,15.78 -15.56,23.72l-1.63 2.51 -3 -0.01c-4.05,-0.02 -8.1,-0.04 -12.15,-0.04l-10.18 0 5.61 -8.49c3.88,-5.88 7.74,-11.77 11.6,-17.67 -3.06,0 -6.12,0 -9.18,-0.01l-7.42 -0.03c-1.04,0.76 -2.22,1.3 -3.49,1.66 0.34,2.49 -0.25,5.23 -1.77,7.55 -4.51,8.06 -9.74,16.43 -20.07,16.84 -10.8,0.42 -21.6,0.08 -32.41,0.17 -1.4,0.07 -2.87,-0.02 -4.25,-0.27 -3.06,-0.53 -5.69,-1.99 -7.23,-4.08l0.33 4.33 -5.91 0c-4.26,0 -8.52,0.02 -12.78,0.04l-4.96 0.02 -0.51 -4.94c-0.08,-0.74 -0.15,-1.48 -0.23,-2.23 -6.03,-0.04 -12.09,-0.27 -18.09,0.13 -2.95,1.7 -5.61,4.19 -8.67,5.89l-0.77 0.43 -0.87 0.17c-4.77,0.9 -9.27,0.41 -14.05,0.49l-17.11 0.3 0.4 -0.3c-11.38,0.04 -22.77,0.06 -34.16,-0.09l-10.04 -0.14 5.55 -8.37c7.45,-11.22 14.7,-22.58 22.25,-33.73l1.64 -2.42 2.91 0.01c15.1,0.04 30.2,0 45.29,0.04l10.17 0.02 -5.61 8.48c-1.67,2.52 -3.31,5.07 -4.97,7.6l-1.6 2.46 -2.94 0.02c-3.71,0.03 -7.43,0 -11.15,-0.04l-1.36 2.2c-1.13,1.8 -2.28,3.6 -3.42,5.39 1.37,0.01 2.73,0.01 4.09,0.01l8.62 0c10.6,-7.63 21.29,-15.13 31.86,-22.81 1.47,-1.25 3.17,-2.16 5.03,-2.71 4.47,-1.34 7.87,-0.35 12.2,-0.54l5.39 -0.24 0.32 5.39c0.53,9 1.61,17.95 2.46,26.92 0.58,-2.51 1.88,-4.71 4,-6.31 1.31,-0.98 2.64,-1.6 3.99,-1.98l1.6 -3.15c4.57,-8.99 9.11,-18.97 20.5,-20.38l0.17 -0.03 0.18 -0.01c10.99,-0.65 21.99,-0.32 32.99,-0.24 5.17,-0.38 9.97,3.02 10.9,7.57 1.11,-1.72 2.24,-3.44 3.36,-5.16l1.63 -2.49 2.97 0.01c16.97,0.04 33.94,-0.06 50.91,0.04l7.28 0.04 0.06 -0.09 2.99 0.01c15.16,0.04 30.32,-0.06 45.48,0.04l8.97 0.05z"/>
   <path class="fil1" d="M451.35 504.25c20.43,-3.96 41.17,-7.57 62.07,-6.95 29.41,0.76 70.67,28.5 89.58,49.12 7.52,8.35 14.67,17.94 16.17,29.39 2.4,18.21 -2.93,36.2 -3.44,54.37 174.28,-28.13 214.91,65.39 121.69,115.95 -42.93,22.92 -92.2,30.46 -140.28,32.78 8.51,21.7 -6.08,43.22 -19.3,59.47 7.17,14.38 17.1,30.6 34.54,33 -11.92,12.96 -31.14,14.08 -47.31,10.35 -9.13,13.41 -20.47,26.75 -22.31,43.49 -3.35,24.2 -12.94,48.22 -30.25,65.84 -8.01,8.24 -17.77,14.51 -28.12,19.4 -4.62,-7.97 -8.46,-16.47 -14.65,-23.42 -4.87,17.98 -14.91,34.15 -27.52,47.73 -3.35,-4.58 -6.81,-9.07 -10.35,-13.52 9.43,-12.96 18.11,-26.79 22.96,-42.18 -10.08,-3.59 -19.82,-8.2 -28.38,-14.7 -11.09,7.72 -22.51,14.97 -33.62,22.67 -2.22,-4.07 -4.14,-8.61 -8.04,-11.39 -5.81,-4.11 -13.02,-5.14 -19.83,-6.35 -20.12,-20.91 -45.35,-35.81 -70.56,-49.71 -2.79,-1.49 -5.55,-3.24 -7.09,-6.11 -11.22,-17.84 -20.81,-36.94 -26.08,-57.41 -5.69,-18.72 1.94,-37.76 5.11,-56.22 -6.54,-1.27 -13.14,-3.67 -16.57,-9.83 -9.45,16.32 -18.85,32.66 -28.28,48.98 -5.12,8.15 -1.81,18.27 1.82,26.29 11.02,22.3 29.02,40.12 47.39,56.47 -2.99,4.48 -5.97,8.98 -8.92,13.5 -23.48,-23.47 -43.85,-49.95 -60.89,-78.41 -7.43,48.43 14.84,100.67 41.12,140.87l1.77 2.74c-7.89,-0.1 -15.77,-0.63 -23.64,-1.01 -22.68,-35.58 -40.15,-88.7 -38.3,-131.38 -29.52,7.04 -61.08,5.54 -89.67,-4.64 14.09,-4.66 29.16,-7.78 41.56,-16.34 -36.69,1.92 -73.16,-5.35 -108.13,-15.92 28.88,-3.96 57.4,-10.96 84.64,-21.33 -19.31,1.1 -38.75,0.3 -57.78,-3.42 23.38,-9.23 47.92,-16.67 68.81,-31.09 -22.01,-8.81 -43.73,-22.14 -55.45,-43.49 -10.31,-18.11 -9.67,-41.35 0.59,-59.33 12.63,-22.64 35.17,-37.89 58.65,-47.67 43.18,-17.66 90.99,-20.26 137.02,-16.76 17.2,1.31 34.3,3.67 51.29,6.64 12.18,-20.97 24.01,-42.25 38.87,-61.47 9.2,-11.7 19.67,-23.15 33.53,-29.31 20.84,-9.5 43.26,-14.9 65.58,-19.69zm754.95 383.7c-10.39,21.8 -21.18,43.43 -31.55,65.25 -9.05,14.35 22.04,21.22 30.42,4.02 10.77,-21.67 21.14,-43.59 31.81,-65.33 11.08,-21.62 -19.77,-27.73 -30.68,-3.94zm-332.84 -13.24c-5.12,2.05 -8.81,6.49 -11.09,11.38 -10.39,21.38 -20.7,42.82 -31.18,64.16 -1.71,3.83 -4.28,8.62 -1.16,12.46 3.02,4.82 9.45,4.61 14.44,4.46 7.23,-0.18 13.81,-4.91 16.68,-11.5 10.35,-21.36 20.78,-42.7 31.09,-64.1 8.03,-16.41 -5.97,-21.85 -18.78,-16.86zm-27.56 -16.21c25.87,-3.69 52.18,-3.67 78.24,-2.36 11.45,0.97 23.74,1.32 33.67,7.88 -15.37,33.14 -31.84,65.76 -47.56,98.73 -3.14,7.48 -10,12.58 -17.5,15.2 -11.81,4.38 -24.5,5.27 -36.96,6.28 -24.05,1.37 -48.28,1.92 -72.23,-1.14 -5.65,-1.07 -12.14,-1.85 -16.15,-6.39 -0.42,-2.92 0.89,-5.63 2.03,-8.22 15.16,-31.11 30.23,-62.27 45.33,-93.41 5.48,-11.74 19.67,-14.27 31.13,-16.57zm470.54 -59.14c-1.46,2.36 -2.91,4.74 -4.34,7.09 7.01,-0.11 14.03,0.18 21.03,-0.07 4.18,0.44 5.63,-4.17 7.83,-6.76 -8.18,-0.49 -16.36,-0.32 -24.52,-0.26zm-7.4 -7.12c13.24,-0.05 26.5,-0.24 39.74,0.02 2.04,0.04 6.07,1.14 4.85,4.06 -1.6,4.66 -4.71,8.61 -7.61,12.53 -3.72,5 -10.5,4.97 -16.11,5.4 3.69,3.83 7.27,7.76 10.88,11.66 -5.59,-0.01 -11.2,0.31 -16.78,-0.15 -3.44,-3.38 -5.88,-7.63 -8.65,-11.54 -2.84,-0.08 -5.67,-0.12 -8.47,-0.14 -2.57,4 -5.19,7.95 -7.84,11.89 -3.97,-0.04 -7.95,-0.04 -11.9,-0.07 7.22,-11.27 14.78,-22.32 21.89,-33.66zm-233.87 18.89c4.75,0.04 9.53,0.06 14.3,0.08 -0.17,-3.5 -0.3,-6.98 -0.38,-10.46 -4.66,3.44 -9.3,6.9 -13.92,10.38zm10.86 -16.79c3.88,-3.47 9.34,-1.87 14.06,-2.08 0.66,11.25 2.19,22.43 3.04,33.67 -4.28,0 -8.54,0.02 -12.8,0.04 -0.25,-2.39 -0.5,-4.77 -0.72,-7.17 -8.2,0.17 -16.44,-0.4 -24.62,0.25 -3.5,1.77 -6.34,4.58 -9.76,6.48 -4.32,0.82 -8.77,0.33 -13.13,0.4 14.5,-10.73 29.34,-21 43.93,-31.59zm-184.57 -12.44c23.55,-1.05 47.14,-0.65 70.71,-0.65 -9.96,13.14 -20.92,25.53 -31.16,38.48 -26.55,-12.59 -57.14,-13.24 -85.58,-7.89 -18.1,3.5 -36.11,9.28 -51.29,19.99 -24.81,17.24 -45.85,39.7 -62.42,64.91 -14.61,22.45 -25.16,48.89 -23.32,76.07 1.05,13.85 6.98,29.03 20.36,35.2 22.65,11.13 48.43,13.2 73.24,14.8 55.16,2.17 110.35,1.73 165.54,2.85 53.95,0.31 107.88,1.49 161.81,1.71 -90.14,18.65 -330.35,14.84 -433.87,16.48 -22.67,0.13 -46.34,-2.66 -66.26,-14.27 -32.56,-18.87 -28.13,-55.11 -16.03,-85.43 21.34,-52.01 58.78,-98.7 109.08,-125.05 51.76,-27.67 111.38,-34.79 169.19,-37.2zm112.17 10.25c15.1,0.04 30.19,0 45.29,0.04 -1.67,2.53 -3.33,5.09 -4.98,7.62 -10.96,0.1 -21.92,-0.38 -32.84,0.18 -0.95,1.1 -2.89,3.29 -3.84,4.37 6.5,0.23 13.03,0.15 19.56,0.19 -1.6,2.57 -3.24,5.1 -4.85,7.67 -6.57,-0.12 -13.15,-0.15 -19.71,0.11 -1.24,2.02 -2.44,4.02 -3.66,6.01 11.17,-0.05 22.36,-0.01 33.54,-0.01 -1.62,2.51 -3.21,5.04 -4.81,7.57 -15.31,0.03 -30.61,0.15 -45.92,-0.06 7.43,-11.21 14.66,-22.54 22.22,-33.69zm108.87 17.75c3.56,-7 7.38,-16.32 16.28,-17.43 10.94,-0.65 21.94,-0.3 32.89,-0.23 2.99,-0.32 6.74,2.15 4.8,5.48 -1.18,6.07 -9.69,4.55 -13.74,2.28 -7.84,-0.41 -15.67,-0.17 -23.51,-0.26 -0.76,1.6 -1.52,3.21 -2.25,4.81 9.67,0.27 19.43,-0.72 29.05,0.53 3.75,0.08 3.62,4.11 1.98,6.47 -3.44,6.17 -7.63,13.89 -15.62,14.23 -10.78,0.4 -21.59,0.08 -32.36,0.17 -2.98,0.17 -8.9,-0.7 -6.81,-5.04 0.86,-6.87 8.6,-5.27 13.55,-5.61l-0.88 3.2c8.91,-0.29 17.81,-0.17 26.73,-0.16 1.22,-1.9 2.46,-3.8 3.69,-5.72 -8.92,-0.1 -17.82,0.17 -26.73,-0.04 -2.72,0.28 -4.96,-1.29 -7.07,-2.68zm67.8 -17.73c16.97,0.04 33.92,-0.06 50.88,0.04 -1.59,2.53 -3.19,5.06 -4.79,7.59 -6.49,-0.02 -12.97,0 -19.46,-0.08 -5.84,8.69 -11.57,17.46 -17.25,26.25 -4.08,-0.02 -8.15,-0.04 -12.18,-0.04 5.73,-8.67 11.42,-17.38 17.12,-26.08 -6.43,-0.09 -12.84,-0.07 -19.25,-0.09 1.62,-2.53 3.27,-5.06 4.93,-7.59zm61.23 0c15.15,0.04 30.31,-0.06 45.47,0.04 -1.73,2.54 -3.42,5.11 -5.16,7.64 -11.01,-0.15 -22.01,-0.04 -33,-0.09 -0.8,1.2 -2.38,3.59 -3.18,4.77 6.32,-0.02 12.65,-0.02 18.99,0 -1.5,2.59 -3.03,5.14 -4.55,7.71 -6.37,-0.1 -12.74,-0.08 -19.12,-0.19 -1.48,2.07 -2.95,4.14 -4.39,6.24 11.2,0.09 22.41,-0.02 33.61,0.07 -1.6,2.51 -3.14,5.02 -4.7,7.54 -15.35,0.09 -30.7,0 -46.05,0.05 7.25,-11.33 14.78,-22.48 22.08,-33.78zm119.51 0c2.68,0 5.38,-0.02 8.12,-0.02 6.36,6.92 12.81,13.73 19.31,20.52 4.32,-6.86 8.98,-13.54 13.22,-20.48 3.75,-0.02 7.52,-0.02 11.28,-0.02 -7.24,11.28 -14.7,22.43 -21.97,33.71 -2.76,0.03 -5.48,0.05 -8.2,0.11 -6.5,-6.79 -12.55,-14 -19.17,-20.68 -4.53,6.91 -8.93,13.89 -13.59,20.68 -3.72,-0.04 -7.45,-0.06 -11.16,-0.08 7.47,-11.2 14.66,-22.56 22.16,-33.74zm82.16 33.8c7.33,-11.35 14.69,-22.67 22.28,-33.84 4.01,0.02 8.04,0.04 12.08,0.06 -2.57,3.86 -5.14,7.7 -7.67,11.58 9.27,-3.35 18.19,-7.53 27.43,-10.9 5.81,-1.46 12.3,-1.11 18.22,-0.96 -11.78,6.56 -25.26,10.95 -37.66,16.2 6.7,5.99 13.41,11.95 20.17,17.88 -6.36,-0.06 -12.69,-0.06 -19.01,-0.06 -4.81,-4.66 -9.78,-9.18 -14.8,-13.58 -2.95,4.49 -5.86,9 -8.73,13.53 -4.13,0.05 -8.22,0.05 -12.31,0.09zm58.9 -0.11c7.38,-11.24 14.8,-22.47 22.14,-33.75 15.14,0.12 30.29,0.02 45.43,0.06 -1.69,2.53 -3.39,5.08 -5.06,7.61 -11.19,0.05 -22.39,-0.16 -33.58,0.15 -0.83,1.56 -1.67,3.12 -2.47,4.66 6.32,-0.08 12.63,-0.1 18.97,-0.02 -1.62,2.55 -3.22,5.1 -4.84,7.65 -6.39,-0.1 -12.8,-0.08 -19.17,-0.12 -1.45,2.08 -2.85,4.15 -4.24,6.23 11.2,0 22.41,0 33.61,-0.02 -1.54,2.49 -3.04,4.96 -4.54,7.45 -15.41,0.34 -30.84,0.17 -46.25,0.1zm79.8 -33.69c2.65,-0.02 5.29,-0.02 7.97,-0.04 6.57,6.75 12.94,13.68 19.31,20.6 4.55,-6.71 8.98,-13.5 13.28,-20.37 3.79,-0.15 7.52,-0.11 11.35,-0.17 -7.19,11.37 -14.66,22.46 -22.02,33.74 -2.8,0 -5.58,-0.02 -8.33,-0.02 -6.19,-6.96 -12.6,-13.73 -18.7,-20.75 -4.72,6.6 -8.58,13.81 -13.63,20.17 -3.55,1.29 -7.7,0.38 -11.43,0.66 7.44,-11.24 14.82,-22.54 22.2,-33.82zm57.45 7.61c1.6,-2.55 3.26,-5.08 4.89,-7.61 16.99,0 33.98,0 50.99,0 -1.7,2.53 -3.39,5.08 -5.06,7.61 -6.43,0 -12.86,0 -19.28,-0.02 -5.87,8.65 -11.47,17.5 -17.31,26.19 -4.03,-0.02 -8.04,-0.02 -12.04,0 5.59,-8.77 11.49,-17.35 17.01,-26.17 -6.41,0 -12.8,0 -19.2,0zm66.24 -7.65c4.04,0.04 8.09,0.06 12.16,0.1 -5.86,8.63 -11.47,17.42 -17.25,26.1 8.5,0 17,-0.02 25.51,0.03 5.82,-8.71 11.45,-17.52 17.29,-26.21 4.01,0.02 8.05,0.02 12.1,0.02 -5.77,8.88 -11.49,17.78 -17.35,26.59 -2.55,4.02 -6.87,6.95 -11.68,7.08 -10.1,0.32 -20.19,-0.02 -30.27,0.15 -3.12,-0.15 -6.72,0.38 -9.13,-2.01 -0.48,-3.43 1.98,-6.26 3.56,-9.04 5.1,-7.57 10,-15.24 15.06,-22.81zm70.16 0.32c10.22,-0.68 20.47,-0.13 30.72,-0.3 2.93,0.36 10.76,-0.16 8.62,3.52l-5.12 8.8c-4.11,0.05 -7.9,-0.01 -11.99,0.04 0.86,-1.63 2.2,-3.15 3.13,-4.75 -7.97,0.02 -15.9,0.04 -23.86,-0.02 -4.05,5.95 -7.91,12.06 -11.85,18.09 7.97,0.02 17.13,0.23 25.11,0.23l2.89 -4.98c4.03,0.02 7.19,0.08 11.28,0.13 -3.81,6.32 -6.99,11.94 -17.23,12.7 -10.24,0.77 -34.08,1.32 -36.41,-1.36 -2.33,-2.69 15.6,-31.47 24.71,-32.1zm56.01 -0.11c4.12,-0.13 8.29,-0.17 12.48,-0.17 -2.5,3.92 -5.03,7.82 -7.54,11.72 6.83,-2.74 13.66,-5.5 20.47,-8.36 11.25,-5.91 24.29,-2.47 36.43,-3.36 2,3.76 4,7.55 5.98,11.35 7.24,-3.29 13.88,-7.78 21.21,-10.9 5.06,-1.04 10.33,-0.32 15.5,-0.24 -11.53,6.37 -23.46,12.02 -34.85,18.6 -4.49,4.09 -6.98,9.87 -10.33,14.86 -4.13,0.07 -8.24,0.09 -12.33,0.09 3.26,-5.08 6.57,-10.1 9.86,-15.16 -3.18,-5.44 -6.36,-10.88 -9.51,-16.32 -11.46,4.72 -23.14,8.9 -34.47,13.87 6.75,5.74 13.39,11.64 20.01,17.54 -6.11,0.02 -12.25,0.44 -18.32,-0.17 -5.67,-3.68 -10.01,-9.08 -15.22,-13.36 -2.99,4.45 -5.94,8.92 -8.73,13.49 -4.19,0.09 -8.35,0.13 -12.5,0.19 7.23,-11.26 14.86,-22.28 21.86,-33.67zm35.88 74.36c27.84,-17.21 83.75,-12.97 114.5,-8.29 -3.18,7.3 -6.34,14.63 -9.65,21.89 -18.39,-6.6 -38.88,-5.95 -57.81,-2.17 -7.76,0.9 -10.88,8.76 -13.43,15.07 -2.23,4.13 1.1,8.6 4.76,10.45 11.16,5.17 23.55,7.32 34.58,12.82 6.58,3.71 6.53,12.67 2.87,18.45 -5.88,10.65 -10.73,21.9 -17.16,32.23 -10.76,12.06 -27.73,15.35 -43.03,17.57 -25.58,2.61 -51.48,0.57 -76.66,-4.33 3.8,-8.79 8.5,-17.18 12.92,-25.69 14.43,6.05 30.55,6.04 45.88,4.72 7.86,-1.25 17.65,-2.62 21.52,-10.63 3.1,-5.21 7.2,-12.69 1.16,-17.52 -11.78,-7.69 -26.52,-8.62 -39.17,-14.44 -3.81,-1.88 -5.52,-6.53 -4.82,-10.56 1.07,-8.86 6.41,-16.25 10.9,-23.66 3.56,-5.75 6.55,-12.37 12.64,-15.91zm-880.07 -9.62c18.09,0.19 36.18,0.78 54.27,0.78 -14.85,34.5 -31.52,68.29 -47.27,102.44 20.74,-0.73 41.53,-0.08 62.21,-1.62 9.28,-1.22 18.05,-4.76 26.76,-8.08 -6.14,10.91 -11.96,22.02 -18.47,32.72 -45.75,1.38 -91.69,0.13 -137.52,0.09 19.08,-38.86 38.73,-77.46 57.98,-116.27 1.56,-3.12 1.72,-6.66 2.04,-10.06zm342.5 -0.18c20.53,0.59 41.07,0.44 61.58,1.49 7.66,23.64 15.1,47.37 23.11,70.88 7.65,-15.89 15.11,-31.86 22.74,-47.75 3.76,-8.2 8.44,-16.11 10.21,-25.09 18.09,-0.32 36.18,-0.08 54.26,0.44 -20.4,42.25 -41.67,84.1 -62.08,126.35l-0.99 0.65 -64.34 -0.06 -26.25 -88.88c-13.79,28.9 -27.03,58.06 -40.75,87 -12.09,-0.04 -24.19,0.57 -36.27,1.01 18.89,-37.01 36.31,-74.75 54.8,-111.96 2.38,-4.33 3.66,-9.15 3.98,-14.08zm208.25 11.34c1.79,-3.76 2.38,-7.93 3.1,-12 45.26,0.27 90.53,-0.06 135.81,0.15 -4.26,9.57 -8.58,19.12 -13.03,28.61 -23.46,-12.91 -50.79,-9.17 -76.38,-9.07 -5.04,10.61 -10.33,21.11 -15.35,31.73 14.15,0.3 28.28,0.67 42.46,0.51 -3.86,7.06 -7.8,14.08 -11.78,21.06 -13.62,-0.13 -27.22,0.12 -40.82,-0.17 -5.46,10.86 -10.66,21.86 -15.75,32.87 17.46,-1.12 34.98,-0.05 52.46,-0.7 11.97,-0.44 23.61,-3.35 35.22,-6.09 -5.85,9.78 -12.22,19.2 -18.42,28.75 -44.93,0.03 -89.87,-0.25 -134.8,0.13 4.2,-6.26 7.48,-13.09 10.63,-19.94 15.58,-31.92 30.99,-63.94 46.65,-95.84zm164.25 -11.34c18.09,0.58 36.2,0.86 54.31,0.96 -15.24,34.41 -31.71,68.29 -47.41,102.49 20.34,-0.78 40.71,-0.21 61.03,-1.52 9.67,-1.08 18.78,-4.68 27.8,-8.14 -6.05,11.17 -12.33,22.18 -18.59,33.23 -45.79,-0.13 -91.56,0.14 -137.33,-0.66 16.95,-34.15 34.07,-68.22 51.1,-102.33 3.67,-7.74 8.9,-15.12 9.09,-24.03zm-523.95 2c25.69,-4.11 51.9,-3.99 77.85,-2.89 12.23,0.99 25.49,0.97 36.12,8.03 -15.31,33.35 -31.98,66.07 -47.73,99.21 -4.96,11.12 -17.36,15.63 -28.47,17.86 -22.5,4.43 -77.09,5.92 -99.42,1.73 -5.04,-1.14 -11.02,-1.75 -14.52,-6.01 -0.47,-3.39 0.95,-6.55 2.36,-9.51 15.05,-30.61 29.77,-61.37 44.73,-92.02 4.9,-11.28 18.24,-14.1 29.08,-16.4zm-819.89 178.61c3.98,-4.62 7.36,-9.74 11.81,-13.92 -1.54,14.25 -4.33,28.32 -6.16,42.55 11.74,-4.73 22.73,-11.14 32.68,-19 2.87,4.2 5.63,8.5 8.28,12.86 -19.2,14.38 -39.9,27.45 -62.97,34.58 4.89,-15.56 8.2,-31.52 10.86,-47.59 0.29,-3.88 3.2,-6.64 5.5,-9.48zm-89.13 -119.67c28.52,16.05 58.29,31.46 81.12,55.43 5.92,3.9 14.19,2.34 20.09,6.68 5.27,3.08 6.01,9.61 6.87,15.05 30.26,14.32 55.43,40.84 64.9,73.33 -4.39,7.12 -9.03,14.16 -14.49,20.51 -1.52,-0.7 -2.51,-1.9 -3.01,-3.6 -12.48,-28.13 -31.73,-53 -53.97,-74.11 -26.43,45.74 -77,76.38 -126.46,91.16 -15.7,-9.57 -30.78,-20.11 -46.08,-30.31 47.71,-4.46 121.7,-13.3 146.54,-61.04 -35.5,20.96 -76.88,29.05 -117.57,31.62 -20.94,1.1 -42.32,1.27 -62.85,-3.37 -10.46,-13.36 -19.59,-27.8 -29.39,-41.68 49.8,6.06 153.76,19.61 200.32,-4.82 -22.68,-23.83 -53.69,-37.13 -84.79,-46.05 6.1,-9.7 12.29,-19.37 18.77,-28.8zm72.4 -176.43c-9.61,16.74 -7.96,37.06 -6.19,55.55 -22.27,-7.09 -46.34,-21.27 -51.61,-45.9 -10.8,-1.03 -13.26,10.99 -14.99,19.02 -3.92,-1.31 -8.73,-2.57 -10.12,-7.06 -2.77,-6.56 2.51,-12.55 5.69,-17.8 -6.11,0.11 -13.11,1.18 -16.61,6.85 -7.53,12.06 0.59,30.32 14.92,32.14 6.64,1.89 12.51,-2.3 17.77,-5.7 -5.43,17.29 -9.61,35.12 -10.91,53.24 -1.65,17.11 8.34,32.4 18.17,45.45 25.86,32.13 65.96,49.79 106.02,55.95 -7.04,-23.38 -6.91,-48.99 0.84,-72.18 5.34,5.12 11.45,9.38 18.22,12.39 3.08,-6.18 6.26,-12.31 9.72,-18.28 -16.07,-0.67 -32.6,-2.99 -46.79,-11.06 -9.86,-5.32 -17.66,-14.47 -20.04,-25.54 17.12,2.24 34.61,2.77 51.67,-0.19 14.92,-2.74 29.72,-6.13 44.63,-8.77 12.59,-6.22 26.61,-7.77 40.37,-9.4 -1.73,3.4 -4.68,6.68 -4.24,10.77 2.77,5.3 9.39,5.66 14.57,6.84 8.1,0.96 16.19,3.71 24.41,2.74 6.43,-1.97 6.01,-9.91 6.03,-15.29 -0.67,-13.47 -0.75,-27.26 3.97,-40.1 -6.83,-4.59 -14.95,-6.2 -23.07,-5.82 0.47,1.08 1.44,3.23 1.94,4.31 -11.46,2.86 -23.04,5.12 -34.82,6.03 0.84,-2.94 1.73,-5.89 2.57,-8.84 -5.15,4.75 -11.37,9.26 -18.81,7.87 -7.59,0.14 -14.54,-3.51 -19.96,-8.57 -5.95,-5.62 -11.26,-12.2 -18.7,-15.91 -6.73,-3.54 -14.48,-3.71 -21.86,-4.6 7.29,-3.85 14.88,-7.04 22.47,-10.2 -12.12,-4.17 -24.62,-7.21 -36.98,-10.56 -17.48,2.63 -38.11,6.39 -48.28,22.62z"/>
   <path class="fil2" d="M398.1 540.3c31.68,-8.51 63.63,-16.44 96.2,-20.64 41.91,-4.38 84.13,21.32 100.96,59.63 1.96,9.36 0.02,19.07 -0.32,28.52 -2.89,33.14 -6.17,66.32 -11.15,99.19 -21.4,4.6 -45.2,5.99 -65.54,-3.43 -33.93,-20.27 -68.99,-38.8 -105.31,-54.52 -24.22,-10.4 -48.99,-20.03 -74.86,-25.37 13.13,-23.06 24.85,-47.14 41.15,-68.2 5.14,-6.2 10.54,-13.32 18.87,-15.18zm-16.89 479.41c10.8,6.73 18.13,17.58 25.85,27.43 -9.95,7.86 -20.94,14.27 -32.68,19 1.83,-14.23 4.62,-28.3 6.16,-42.55 0.19,-1.31 0.42,-2.61 0.67,-3.88zm11.62 -32.67c11.11,-7.7 22.53,-14.95 33.62,-22.67 8.56,6.5 18.3,11.11 28.38,14.7 -4.85,15.39 -13.53,29.22 -22.96,42.18 -11.38,-12.73 -25.51,-22.37 -39.84,-31.43 0.19,-0.7 0.59,-2.09 0.8,-2.78zm37.71 -99.87c5.21,-11.22 9.93,-22.98 18.34,-32.26 -0.33,9.4 -2.27,22.84 8.38,27.49 17.16,5.84 35.96,-2.86 53.16,3.65 -10.7,2.15 -21.82,2.89 -31.81,7.72 10.78,0.12 24.31,0.5 30.63,10.83 5.08,10.36 0.4,22.12 -3.77,31.97 -1.37,1.98 -1.54,5.86 -4.55,5.9 -5.7,-11.68 -14.55,-21.67 -25.66,-28.49 4.53,8.54 9.36,17.08 11.4,26.61 3.17,12.54 1.82,25.59 -0.19,38.18 -15.77,-24.71 -50.34,-25.49 -67.16,-49.04 -10.46,-14.58 -9.62,-33.68 -6.83,-50.55 5.43,3.9 11.63,6.35 18.06,7.99zm-207.53 77.37c-16.32,-33.1 -27.83,-70.48 -22.12,-107.69 17.04,28.46 37.41,54.94 60.89,78.41 -3.25,4.91 -6.45,9.84 -9.53,14.84 29.62,8.69 60.59,18.95 82.96,41.24 -29.24,9.99 -60.72,10.03 -91.27,9.21 -0.48,-0.7 -1.45,-2.13 -1.93,-2.83 -7.04,-10.64 -13.29,-21.78 -19,-33.18zm244.72 -111.31c23.74,-2.79 48.22,-0.8 70.8,7.27 -1.52,3.31 -3.08,6.6 -4.64,9.91 -12.57,-0.51 -25.2,-0.51 -37.72,1.03 -9.57,0.55 -20.11,1.84 -28.88,-2.82 -5.73,-3.74 -1.88,-10.76 0.44,-15.39zm-15.15 -31.71c10.58,-1.84 21.39,-1.29 32.08,-1.24 7.99,0.48 16.23,0.65 23.76,3.68 -5.53,0.64 -26.9,0.84 -28.88,6.29 10.61,-4.55 38.41,3.1 48.09,9.38 -9.93,-0.57 -19.53,-3.77 -29.52,-3.75 -29.2,-1.06 -58.27,8.68 -87.38,2.76 -9.83,-2.3 -20.3,-4.77 -28.06,-11.66 23.46,3.6 46.84,-1.83 69.91,-5.46zm6.09 -74.32c6.05,-1.32 11.23,2.89 16.46,5.19 -0.76,0.95 -2.28,2.85 -3.05,3.8 3.83,1.68 7.65,3.39 11.4,5.24 -4.19,0.72 -8.43,0.83 -12.63,1.16 1.21,1.61 3.67,4.85 4.89,6.46 -7.59,0.14 -14.54,-3.52 -19.96,-8.58 0.29,-4.45 -1.33,-10.17 2.89,-13.27zm-21.74 -10.77c14.61,-4.62 31.58,-9.89 45.96,-1.77 10.94,6.77 20.05,16.06 30.72,23.23 -15.82,-3.77 -29.9,-12.06 -44.84,-18.09 -10.14,-4 -21.17,-3.54 -31.84,-3.37zm-176.46 -30.11c41.03,-15.78 87.07,-15.49 129.17,-4.23 -15.72,3.48 -32.17,2.47 -47.79,6.76 -7.13,1.84 -14.8,4.05 -19.6,10.06 14.16,-3.05 28.67,-8.05 43.26,-4.66 -9.85,1.92 -20.2,5.76 -25.87,14.65 -9.47,14.19 -7.76,32.3 -4.77,48.26 -15.49,-3.9 -23.71,-19.24 -32.1,-31.45 -6.18,-10.59 -18.98,-16.49 -31.06,-14.53 -20.17,2.7 -37.67,14.38 -53.44,26.52 9.13,-3.18 18.47,-5.73 27.66,-8.72 -2.93,9.82 -2.87,20.07 -2.34,30.2 -10.06,20.94 -24.44,39.91 -41.6,55.58 -15.32,13.76 -34.99,24.05 -56.03,23.63 21.06,-8.11 39.86,-21.94 53.99,-39.51 -32.58,13.62 -68.96,12.88 -103.54,10.65 16.83,-3.75 33.71,-7.86 49.52,-14.95 11.49,-5.18 22.82,-11.63 31.04,-21.42 -22.14,6.98 -46.53,10.95 -69.24,4.56 27.03,-8.6 55.13,-18.26 75.69,-38.75 22.16,-22.01 47.5,-41.7 77.05,-52.65zm351.82 -55.31c19.25,-4.43 39.09,-4.85 58.74,-5.36 22.41,0.32 45.34,1.81 66.51,9.7 11.05,4.32 23.15,11.95 25.22,24.6 1.83,12.84 -6.31,24.33 -14.93,32.93 -19.27,18.24 -44.48,28.99 -70.04,34.96 -44.73,10.22 -94.68,3.83 -132.37,-23.45 17.71,2.45 36.83,3.21 53.3,-4.85 4,-2.53 9.63,-5.6 9.4,-11.04 0.51,-19.21 2.34,-38.37 4.17,-57.49zm-484.99 -5.48c35.18,-17.29 75.39,-19.11 113.9,-18.39 77.25,-1.01 153.36,23.8 218.44,64.7 36.74,23.66 74.65,45.75 114.64,63.48 -50.78,-11.4 -98.77,-32.23 -146.54,-52.39 -46.19,-18.57 -97.46,-27.76 -146.86,-18.32 -50.05,9.04 -95.88,37 -128.41,75.9 -19.61,-3.42 -40.31,-8.29 -55.47,-22.07 -11.51,-10.25 -16.3,-26.78 -13.03,-41.75 4.45,-23.13 22.67,-41.24 43.33,-51.16zm319.96 -93.91l0 0c-1.92,15.52 -9.93,30.8 -23.95,38.56 -17.26,10.33 -38.03,8.9 -57.32,8.96 18.36,7.07 39.04,8.12 58.02,2.96 11.34,-3.29 23.23,-9.64 27.87,-21.15 3.86,-9.89 0.08,-20.47 -4.62,-29.33z"/>
  </g>
 </g>
</svg>
