<?xml version="1.0" encoding="UTF-8"?>
<!DOCTYPE svg PUBLIC "-//W3C//DTD SVG 1.1//EN" "http://www.w3.org/Graphics/SVG/1.1/DTD/svg11.dtd">
<!-- Creator: CorelDRAW -->
<svg xmlns="http://www.w3.org/2000/svg" xml:space="preserve" width="2000px" height="1600px" version="1.1" style="shape-rendering:geometricPrecision; text-rendering:geometricPrecision; image-rendering:optimizeQuality; fill-rule:evenodd; clip-rule:evenodd"
viewBox="0 0 2000 1600"
 xmlns:xlink="http://www.w3.org/1999/xlink">
 <defs>
  <style type="text/css">
   <![CDATA[
    .fil1 {fill:black;fill-rule:nonzero}
    .fil2 {fill:#C4122F;fill-rule:nonzero}
    .fil0 {fill:#FEFEFE;fill-rule:nonzero}
   ]]>
  </style>
 </defs>
 <g id="Capa_x0020_1">
  <metadata id="CorelCorpID_0Corel-Layer"/>
  <g id="Eastern_x0020_Washington_x0020_Eagles.cdr">
   <path class="fil0" d="M398.65 1099.7c15.34,-7.81 32.81,-10.28 49.87,-9.78 -12.51,11.58 -24.92,23.28 -37.46,34.83 -3.69,3.59 -8.6,5.26 -13.27,7.08 -14.36,5.44 -28.56,11.2 -42.92,16.58 7.91,-20.9 23.56,-38.97 43.78,-48.71z"/>
   <path class="fil1" d="M494.75 1041.01c77.35,-18.55 159.52,-10.13 233.78,17.09 96.25,35.18 181.03,96.53 253.68,168.01 10.44,10.87 20.95,21.71 30.83,33.11 -43.7,28.44 -98.9,38.37 -149.84,27.33 -10.89,-44.54 -24.24,-89.86 -51.1,-127.67 -13.12,-17.87 -31.47,-35.39 -54.8,-36.63 -20.68,1.04 -37.39,15.47 -50.91,29.88 -24.04,26.39 -41.58,57.86 -57.25,89.73 -19.21,-1.67 -38.6,-1.39 -57.73,-3.79 -20.83,-28.77 -54.78,-46.31 -89.63,-50.71 -48.05,-6.49 -96.51,5.89 -140.74,24.04 2.14,23.2 6.11,46.21 8.54,69.38 -47.75,-24.18 -73.66,-78.81 -72.14,-130.98 2.17,-4.19 6.75,-6.54 10.09,-9.78 54.04,-46.18 117.53,-82.91 187.22,-99.01zm-153.93 422.9c18.95,-12.84 42.94,-16.4 65.31,-13.17 33.16,4.48 64,19.19 92.31,36.48 8.27,4.75 15.47,11.35 24.16,15.39 18.33,6.88 33.6,19.46 49.72,30.21 -0.58,18.85 -3.92,39.76 -18.9,52.83 -8.32,9.42 -21.31,11.27 -33.02,13.24 -0.75,-0.88 -2.29,-2.65 -3.05,-3.54 8.99,-5.13 20.6,-11.15 21.23,-22.9 -1.11,-11.93 -11.1,-20.22 -19.87,-27.15 -9.81,-8.08 -22.9,-11.62 -31.04,-21.73 -14.66,-15.78 -33.44,-31.75 -56.26,-31.09 -18.25,0.32 -32.33,14.4 -41.28,29.06 -17.42,-2.83 -39.25,-4.09 -51.77,10.85 -12.96,18.32 -5.05,41.98 1.57,61.19 -12.86,-3.01 -25.73,-9.48 -32.38,-21.43 -8.69,-15.85 -10.29,-35.21 -6.47,-52.68 7.74,-21.63 20.45,-42.41 39.74,-55.56zm329.17 -184.11c34.33,-3.54 68.6,5.26 101.31,14.94 -3.12,41.2 28.82,69.43 62.76,86.44 -5.89,18.81 -14.79,37.79 -30.48,50.38 -13.88,11.42 -34.58,14.05 -50.78,6.22 8.92,-7.59 18.15,-14.92 26.16,-23.48 2.02,-15.37 -10.57,-27.94 -21.61,-36.86 -18.83,-13.57 -40.83,-22.52 -63.22,-28.26 -12.84,0.53 -26.51,6.5 -33.26,17.95 -13.1,22.77 2.28,56.48 12.46,77.24 -19.21,-7.73 -38.65,-18.22 -50.53,-35.76 -10.57,-16.05 -8.57,-37.51 0.91,-53.56 5.33,-10.62 14.05,-18.88 21.33,-27.98 0.21,-18.61 10.16,-36.35 24.95,-47.27zm-191.01 161.21c48.35,-51 84.93,-112.15 113.31,-176.17 16.08,1.99 32.18,4.01 48.28,6.04 -23.18,37.04 -71.81,122.3 -36.78,164.42 9.23,11.37 23.31,16.89 37.08,20.5 -22.11,15.04 -44.18,30.15 -66.32,45.17 -24.77,-28.39 -56.02,-57.48 -95.57,-59.96zm258.6 -288.28c23.66,-7.55 49.26,5.11 62.71,24.9 24.27,34.48 31.88,77.3 37.21,118.27 -49.72,-38.24 -116.17,-49.49 -177.16,-39.35 15.84,-26.49 32.05,-52.86 50.9,-77.35 7.79,-9.66 15.52,-20.02 26.34,-26.47zm821.99 -331.45c19.35,33.64 75.03,32.63 108.26,29.83 -1.21,15.77 -13.7,28.49 -28.61,32.48 -27.22,7.79 -56.09,1.85 -82.78,-5.36 1.62,-18.96 2.35,-37.96 3.13,-56.95zm9.3 -101.28c59.78,32.99 131.64,33.9 197.59,23.73 -23.41,17.67 -47.44,34.81 -68.37,55.44 -6.4,7.3 -18,15.09 -14.31,26.18 -21.84,-0.84 -119.46,-0.88 -118.12,-36.82 1.17,-22.85 1.72,-45.7 3.21,-68.53zm182.07 -99.87c35.06,-12.99 67.13,-33.74 92.69,-61.09 -0.05,28.87 -14.94,55.31 -33.19,76.74 -21.96,25.73 -49.82,45.67 -78.73,62.86 -9.81,6.52 -21.87,7.23 -33.04,9.66 -32.51,6.19 -93.13,10.21 -121.43,-12.01 1.9,-16.76 2.05,-33.64 3.41,-50.42 57.61,1.39 116.17,-5.16 170.29,-25.74zm92.56 -193.74c3.49,-5.61 5.72,-12.18 10.85,-16.61l0 3.47c-2.94,3.13 -5.31,6.74 -6.83,10.76 -9,21.84 -18.27,43.68 -24.34,66.56 -3.54,14.13 -7.79,29.72 -0.88,43.55 -11.45,26.08 -37.03,42.06 -61.88,53.71 -53.54,23.99 -112.66,30.76 -170.59,34.91 -0.56,-20.12 -0.15,-40.27 -0.23,-60.41 86.68,-13.89 206.57,-55.5 253.9,-135.94zm-1277.7 -92.11c11.25,-17.99 26.79,-34.96 47.9,-40.82 -6.07,3.94 -12.81,7.66 -15.92,14.58 -9.48,18.76 -10.75,40.3 -12.19,60.87 -0.28,21.03 -0.53,42.09 1.37,63.04 -18.15,-3.64 -36.12,-7.99 -54.22,-11.75 6.82,-29.98 16.94,-59.61 33.06,-85.92zm-68.5 -40.64c18.08,-27.38 43.3,-49.85 72.24,-65.24 -31.35,45.77 -79.01,129.73 -48.02,185.73 -19.11,-0.81 -38.2,-2.3 -57.31,-2.78 -1.18,-41.35 10.5,-83.03 33.09,-117.71zm1324.52 -151.69c16.4,11.83 25.47,32.43 23.66,52.53 -2.08,26.94 -17.9,50.2 -34.66,70.44 19.44,31.29 32.35,69.34 24.34,106.32 -4.75,22.52 -19.71,40.99 -36.93,55.53 -47.39,60.23 -119.66,101.58 -196.65,106.59 0.08,-30.08 -0.12,-60.16 0.1,-90.24 36.81,-17.92 70.65,-41.58 101.39,-68.52 68.83,-60.86 114.61,-139.77 118.75,-232.65zm-1423.93 77.48c20.14,-44.26 57.48,-80.59 103.05,-98 -17.57,27.86 -59.06,93.23 -51.36,128.15 7.23,2.98 14.38,6.07 21.46,9.35 -12.31,29.93 -22.75,60.72 -30,92.26 -3.85,17.67 -6.8,36.12 -3.14,54.07 -20.98,-1.06 -41.96,-2.3 -62.96,-2.81 -7.71,-61.42 -3.11,-126.18 22.95,-183.02zm1212.01 -166.22c31.24,-2.1 63.97,-0.58 92.86,12.61 15.85,7.36 29.96,20.4 34.89,37.59 6.24,19.81 1.89,40.99 -4.33,60.23 19.9,17.57 29.98,45.32 26.06,71.56 -3.97,28.79 -20.37,54.14 -39.45,75.32 -7.13,7.31 -8.42,18.02 -14.18,26.24 -19.47,33.69 -57.18,53.36 -95.22,56.67 -0.3,-23 0.08,-45.98 -0.2,-68.96 32.3,-30.18 57.22,-70.09 63.42,-114.4 4.98,-35.18 -3.9,-71.3 -21.56,-101.84 -11.3,-20.32 -26.42,-38.16 -42.29,-55.02zm-1441.12 88.69c26.09,-46.89 70.6,-80.48 117.92,-104.01 -15.07,27.05 -30.71,55.79 -56.82,73.73 -7.28,37.49 -10.59,75.75 -12.59,113.9 -0.78,39.2 -1.16,79.34 10.67,117.18 3.99,13.27 10.86,25.5 19.89,36.02 -20.2,-1.7 -40.47,-1.97 -60.67,-3.46 -23.12,-38.07 -38.09,-81.37 -41.52,-125.88l0 -30.79c2.57,-26.74 9.9,-53.18 23.12,-76.69zm232.12 -141.9l1.79 0c-21.26,37.08 -39.71,76.49 -48.98,118.42 -4.86,23.15 -6.25,50.1 9.8,69.41 -12.48,32.13 -22.57,65.24 -28.81,99.16 -6.22,36.2 -9.61,75.85 8.14,109.5 -23.08,-1.42 -46.18,-2.13 -69.29,-3.21 -12,-52.58 -16.83,-106.97 -12.76,-160.81 7.55,-99.71 48.34,-186.7 140.11,-232.47zm-2.25 1099.7c-20.22,9.74 -35.87,27.81 -43.78,48.71 14.36,-5.38 28.56,-11.14 42.92,-16.58 4.67,-1.82 9.58,-3.49 13.27,-7.08 12.54,-11.55 24.95,-23.25 37.46,-34.83 -17.06,-0.5 -34.53,1.97 -49.87,9.78z"/>
   <path class="fil2" d="M1419.21 502.65c53.82,-36.93 102.14,-81.01 149.99,-125.17 -17.82,131.66 -35.28,263.41 -47.24,395.75 -3.77,44.64 -7.61,89.38 -6.93,134.22 0.13,10.24 1.29,20.48 3.59,30.49 -25.88,17.59 -50.04,37.88 -70.37,61.74 -9.4,10.77 -16.07,23.74 -26.56,33.62 -20.35,20.43 -41.83,42.39 -70.27,50.73 -25.7,-64.43 -86.75,-123.06 -142.13,-163.31 6.42,53.21 13.78,106.39 25.71,158.69 4.42,17.99 8.69,36.5 18.7,52.35 -40.97,29.9 -82.96,58.66 -127.59,82.85 -22.22,11.33 -44.87,23.43 -69.87,27.12 -33.24,-38.01 -70.52,-72.44 -109.75,-104.21 -47.27,-37.21 -98.96,-71.76 -158.03,-86.55 57.58,-54.06 115.57,-107.75 173.37,-161.59 16.29,49.33 46.14,125.21 84.68,161.44 10.51,9.96 24.54,16.94 39.36,15.29 0.07,-18.7 -3.67,-37.18 -7.08,-55.48 -12.97,-62.89 -36,-123.6 -66.96,-179.82 57.67,-100.58 154.61,-222.34 256.56,-280.29 2.52,51.88 8.91,200.54 28.43,247.18 2.56,5.69 5.18,12.46 11.5,14.96 8.77,0.28 11.86,-9.6 13.12,-16.63 19.54,-85.03 22.6,-173.93 8.87,-260.09 8.29,3.81 17.67,2.78 26.14,0 22.72,-7.21 43.07,-20.12 62.76,-33.29zm-909.04 1096.11c1.26,-3.16 3.66,-4.29 7.18,-3.41 0.76,0.89 2.3,2.66 3.05,3.54l-0.53 1.11 -8.34 0 -1.36 -1.24zm674.63 -393.35c31.52,25.05 69.05,40.85 105.96,56.17 76.96,30.38 156.91,52.42 237.24,71.81 -36.8,29.37 -76.64,54.72 -116.73,79.31 -113.71,68.3 -235.8,123.23 -363.5,159.6 -32.3,-93.84 -98.08,-196.23 -184.62,-247.13 37.97,-6.67 76.54,-10.64 114.1,-19.79 14.49,-3.74 29.93,-6.62 41.89,-16.28 29.59,42.38 96.79,126.85 151.4,137.68 13.7,2.45 30.11,-0.12 39.38,-11.32 -0.65,-11.22 -7.28,-20.75 -13.09,-29.95 -31.85,-45.3 -71.53,-84.4 -110.91,-123.05 35.74,-12.87 73.78,-27.07 98.88,-57.05zm-1018.97 -800.86c136.44,15.5 272.81,31.87 409.22,47.6 43.68,55.68 87.33,111.39 131.24,166.9 -39.37,-13.19 -136.52,-49.65 -175.52,-24.57 -12.56,7.78 -17.34,27.04 -7.48,38.77 11.83,13.78 30.43,18.4 47.42,22.27 49.61,9.63 100.47,7.79 150.64,5.38 23.18,50 47.75,99.37 71.23,149.24 -21.31,-3.5 -157.68,-25.03 -165.21,11.62 -1.84,11.07 5.31,21.24 13.35,28.06 35.75,29.96 123.87,25.87 166.62,22.22 8.19,30.16 25.56,91.27 24.47,122.31 -96.71,-0.48 -193.44,-1.72 -290.15,-2.88 -32.3,-88.87 -72.9,-174.66 -119.3,-257.01 -69.01,-121.43 -152.14,-236.39 -256.53,-329.91z"/>
  </g>
 </g>
</svg>
