<?xml version="1.0" encoding="UTF-8"?>
<!DOCTYPE svg PUBLIC "-//W3C//DTD SVG 1.1//EN" "http://www.w3.org/Graphics/SVG/1.1/DTD/svg11.dtd">
<!-- Creator: CorelDRAW -->
<svg xmlns="http://www.w3.org/2000/svg" xml:space="preserve" width="2000px" height="1600px" version="1.1" style="shape-rendering:geometricPrecision; text-rendering:geometricPrecision; image-rendering:optimizeQuality; fill-rule:evenodd; clip-rule:evenodd"
viewBox="0 0 2000 1600"
 xmlns:xlink="http://www.w3.org/1999/xlink">
 <defs>
  <style type="text/css">
   <![CDATA[
    .fil3 {fill:#131213;fill-rule:nonzero}
    .fil0 {fill:#6C0922;fill-rule:nonzero}
    .fil2 {fill:#B79B56;fill-rule:nonzero}
    .fil1 {fill:#FEFEFE;fill-rule:nonzero}
   ]]>
  </style>
 </defs>
 <g id="Capa_x0020_1">
  <metadata id="CorelCorpID_0Corel-Layer"/>
  <g id="Elon_x0020_Phoenix.cdr">
   <path class="fil0" d="M1657.18 22.35l47.54 0c39,2.44 79.01,7.6 114.21,25.64 -72.48,12.02 -144.19,28.78 -214.4,50.41 -44.1,13.62 -87.57,29.44 -129.61,48.55 -49.64,24.1 -98.43,49.93 -146.33,77.26 -5.98,0.71 -11.39,3.34 -16.55,6.25 -64.41,33.38 -127.01,70.35 -186.88,111.36 -32.96,22.64 -65.04,46.62 -95.2,72.92 -23.84,21.4 -47.23,43.95 -64.79,70.97 -9.1,14.58 -17.13,31.12 -15.9,48.78 0.7,14.96 10.77,29.18 25.2,33.78 18.33,5.97 38.16,2.64 56.45,-1.87 37.03,-9.93 71.69,-26.98 105.09,-45.53 7.8,-4.95 17.03,-8.09 23.07,-15.39 33.48,-16.03 65.41,-35.04 97.81,-53.06 11.99,-4.47 22.21,-12.48 33.21,-18.84 13.04,-6.98 26.53,-13.13 39.39,-20.47 -19.17,0.04 -38.41,-0.3 -57.42,-2.77 -6.42,-0.68 -12.69,-2.39 -18.63,-4.85 80.16,-19.8 156.21,-52.4 232.41,-83.54 23.39,-8.83 47.18,-19.34 72.63,-19.26 7.13,-0.48 14.53,3.91 21.35,0.45 31.37,-13.18 62.48,-27.55 95.65,-35.71 32.28,-8.43 66,-11.18 99.2,-7.8 16.92,1.8 34.37,3.81 49.77,11.57 -35.81,3.91 -71.46,11.92 -104.31,26.94 -34.36,14.46 -68.06,30.97 -98.45,52.74 -23.27,16.66 -46.53,34.35 -63.76,57.49 20.69,-4.14 41.23,-9.19 62.18,-11.92 36.4,-3.42 73.03,-0.23 109.3,3.4 -41.53,12.81 -83.66,23.72 -124.72,37.97 -31.67,12.19 -63.23,24.78 -93.81,39.55 -33.72,16.36 -66.25,35.09 -98.67,53.87 -57.92,34.17 -115.28,69.54 -168.88,110.22 -24.69,13.32 -47.68,29.56 -70.05,46.38 -25.65,19.89 -51.04,41.19 -69.29,68.35 -8.89,13.45 -15.92,29.88 -12.42,46.28 3.34,15.59 16.99,26.98 31.79,31.37 21.5,6.6 44.51,5.05 66.54,2.24 41.81,-5.89 82.3,-18.56 122.03,-32.56 89.16,-32.49 174.76,-74.12 257.27,-120.84 3.29,-1.74 5.93,-4.38 8.5,-7.04 27.46,-13.37 54.27,-28.09 80.95,-42.99 26.52,-15.29 53.58,-29.77 78.88,-47.1 46.13,-30.77 89.44,-65.6 130.99,-102.29 42.4,-37.55 82.79,-77.33 121.28,-118.89 -3.65,34.45 -17.62,66.86 -34.21,96.92 -25.24,45 -57.42,85.72 -91.97,123.88 -42.51,46.81 -89.27,89.65 -138.4,129.42 -9.53,7.43 -18.63,15.51 -28.78,22.12 -7.12,2.72 -11.98,8.74 -17.73,13.38 -4.68,3.86 -9.84,7.11 -14.5,11.01 -52.2,37.89 -107.31,71.84 -165.17,100.43 13.09,0.4 26.17,-0.09 39.26,0.27 20.64,0.61 41.3,0.51 61.93,0.06 133.27,-0.41 266.51,-0.08 399.77,-0.18l0 0.67c-4.2,4.42 -7.41,9.59 -10.97,14.49 -24.78,34.54 -49.56,69.09 -74.4,103.6 -3,3.56 -1.9,8.43 -2.11,12.69 0.52,47.77 -0.67,95.54 -0.42,143.31 0.19,42.73 -0.38,85.49 0.27,128.2 15.67,27.69 33.13,54.5 49.45,81.86 -9.48,0.19 -19.03,-0.49 -28.41,0.96 -122.73,17.16 -245.26,36.07 -366.96,59.5 -62.25,12.34 -124.55,25.17 -185.35,43.55 -101.35,32.24 -199.99,73.93 -292.17,127.15 -97.6,-40.38 -196.82,-76.82 -296.75,-111 -33.1,-11.05 -66.12,-22.42 -99.75,-31.8 -48.34,-13.55 -97.32,-24.77 -146.48,-34.91 -93.75,-19.13 -188.24,-34.49 -283,-47.6 -24.25,-2.89 -48.38,-8.05 -72.94,-6.75 32.24,-42.11 64.92,-83.88 97.38,-125.83 0.02,-5.46 0.02,-10.92 0,-16.37 -0.02,-74.96 0.08,-149.91 -0.04,-224.87 -19.55,-23.39 -38.9,-46.91 -58.37,-70.36 -12.83,-15.49 -25.67,-30.97 -38.49,-46.45 33.81,0 67.61,-0.19 101.41,0.1 26.01,0.76 52.05,0.13 78.08,0.34 27.99,-0.19 56,0.36 84,-0.29 17.58,-0.38 35.16,-0.19 52.74,-0.11 94.09,0.44 188.2,0.04 282.29,0.21 5.63,0.11 11.29,0.21 16.96,0.29 29.32,-37.63 65.97,-68.7 103.71,-97.53 6.17,-5.03 13.31,-8.93 18.49,-15.1 16.4,-12.88 34.32,-23.73 51.6,-35.41 29.94,-20.08 61.1,-38.25 91.7,-57.25 -50.66,24.5 -101.7,48.46 -154.11,69.04 -9.61,2.03 -18.5,6.29 -27.77,9.37 -37.85,13.2 -76.53,24.88 -116.37,30.17 -25.83,3.08 -53.29,4.32 -77.71,-6.12 -17.01,-7.12 -29.7,-23.14 -32.81,-41.29 -4.4,-24.59 2.98,-49.38 12.06,-72.06 18.25,-43.24 44.94,-82.3 73.18,-119.56 57.02,-74.01 122.08,-141.51 190.63,-204.88 16.45,-14.9 32.73,-30.06 50.06,-43.93 31.95,-21.3 64.42,-41.9 97.66,-61.13 -0.24,-0.82 -0.78,-2.48 -1.05,-3.32 33.02,-20.62 66.04,-41.35 100.9,-58.8 73.54,-37.34 151.03,-66.67 230.23,-89.52 78.5,-22.43 159.16,-38.49 240.81,-42.59z"/>
   <path class="fil1" d="M1206.16 906.65c66.33,-9.58 137.83,8.56 187.84,54.15 31.96,28.89 52.85,69.42 58.18,112.15 4,34.6 2.24,70.54 -9.97,103.43 -11.85,32.64 -33.61,61.41 -61.19,82.42 -83.23,63.66 -210.86,60.85 -290.16,-8.13 -41.5,-35.56 -64.83,-90.42 -63,-144.9 -1.53,-41.12 10.15,-82.87 34.36,-116.29 33.38,-46.51 87.86,-75.02 143.94,-82.83zm251.95 3.49c57.13,-0.51 114.26,-0.04 171.4,-0.23 34.76,45.1 69.21,90.46 103.87,135.65 22.55,29.11 44.37,58.78 67.38,87.52 0.11,-54.31 -0.04,-108.59 0.07,-162.88 0.21,-2.62 -0.36,-5.12 -2.23,-6.97 -13.01,-15.62 -25.84,-31.4 -38.87,-46.97 -1.51,-1.95 -2.83,-4.02 -3.93,-6.18 49.77,-0.22 99.59,-0.3 149.37,0.04 -13.61,18.4 -29.07,35.43 -43.28,53.37 -1.65,1.89 -2.28,4.11 -1.9,6.67 0.14,109.51 -0.07,219.02 0.1,328.53 -20.03,0.04 -40.09,0.4 -60.12,-0.19 -78.03,-102.9 -157.1,-205.03 -235.41,-307.74 -0.57,81.65 0,163.34 -0.29,244.99 0.14,3.19 -0.53,6.97 2.07,9.42 12.99,15.61 25.79,31.38 38.84,46.93 1.65,2.01 2.91,4.28 4.21,6.55 -50.41,0.23 -100.8,0.2 -151.21,0.02 0.92,-1.91 2.01,-3.72 3.25,-5.44 13.78,-16.76 27.8,-33.33 41.31,-50.3 1.03,-27.19 0.14,-54.49 0.44,-81.74 -0.02,-65.07 0.04,-130.13 -0.02,-195.19 -10.93,-13.23 -21.8,-26.47 -32.73,-39.67 -4.18,-5.35 -9.13,-10.13 -12.32,-16.19zm-775.88 0.48c52.64,-0.48 105.3,-0.08 157.95,-0.21 10.91,0.15 21.84,-0.36 32.73,0.34 -14.43,18.96 -30.19,36.9 -45.19,55.44 -0.02,92.39 -0.04,184.79 0,277.18 38.58,-0.02 77.18,0.02 115.76,-0.02 11.06,-9.86 21,-20.92 31.95,-30.91 8.08,-7.34 14.69,-16.45 24.09,-22.21 0.33,36.35 0.14,72.69 0.1,109.04 -105.8,-0.12 -211.61,0.24 -317.39,-0.2 13.99,-19.29 30.11,-37.01 45.07,-55.58 0.14,-92.43 0.12,-184.86 0,-277.28 -14.94,-18.6 -31.07,-36.31 -45.07,-55.59zm-383.53 -0.5c109.48,-0.59 218.97,0.23 328.44,-0.4 0.93,26.45 0.13,52.95 0.4,79.44 -0.15,8.31 0.5,16.66 -0.59,24.95 -15.54,-15.44 -29.83,-32.12 -44.72,-48.19 -46.03,-0.21 -92.08,-0.08 -138.11,-0.06 -0.04,35.49 -0.02,70.97 -0.02,106.46 24.32,0.05 48.65,0.05 72.95,0 12.44,-9.04 24.98,-17.97 37.32,-27.1 2.33,-1.8 4.95,-3.19 7.72,-4.2 -0.11,39.93 0.21,79.87 -0.17,119.8 -12.13,-7.45 -23.12,-16.62 -34.78,-24.8 -4.37,-2.67 -8.04,-7.77 -13.66,-7.3 -23.12,-0.02 -46.24,0 -69.36,0.02 -0.04,31.17 0,62.33 -0.04,93.5 0.1,5.29 0.53,11.24 4.41,15.29 3.79,4.28 9.77,5.5 15.23,5.39 38.93,-0.06 77.85,0.01 116.77,-0.04 11.79,-12.1 24.29,-23.47 36.1,-35.56 6.57,-5.77 12.19,-12.6 19.22,-17.83 0.73,36.42 0.14,72.86 0.31,109.28 -112.47,-0.04 -224.96,0.15 -337.44,-0.08 2.87,-5.37 7.15,-9.72 10.97,-14.39 10.36,-12.61 20.7,-25.26 31.21,-37.75 1.72,-1.97 3.36,-4.23 2.94,-7 0.02,-91.14 -0.12,-182.27 0.06,-273.42 -14.66,-18.99 -31.21,-36.54 -45.16,-56.01zm1200.34 -48.59c57.86,-28.59 112.97,-62.54 165.17,-100.43 -1.7,1.95 -3.34,3.91 -5.22,5.67 -39.07,33.14 -79.98,63.98 -120.69,95.03 -13.09,-0.36 -26.17,0.13 -39.26,-0.27zm-38.11 -492.5c34.11,-12.52 66.56,-28.97 98.91,-45.36 -9.48,11.37 -18.69,23.16 -29.1,33.65 -21.25,11.46 -46.21,12.4 -69.81,11.71zm-593.27 -24.73c56,-38.98 114.45,-74.61 175.22,-105.68 -6.97,5.31 -14.71,9.49 -21.94,14.44 -13.91,9.94 -29.37,17.52 -42.8,28.17 -70.64,47.84 -138.77,99.57 -202.36,156.53 -78.15,70.57 -151.18,148.46 -205.95,238.9 -33.48,56.25 -60.82,118.76 -63.11,185.1 -17.58,-0.08 -35.16,-0.27 -52.74,0.11 11.04,-55.28 34.66,-107.23 62.92,-155.73 31.4,-53.6 69.04,-103.36 110.16,-149.85 71.18,-80.12 152.83,-150.63 240.6,-211.99zm357.23 617.24l0 0c-24.27,3.88 -45.98,18.92 -59.72,39.06 -20.86,29.91 -27.55,67.44 -26.98,103.3 -0.51,25.74 2.83,51.88 12.16,76 8,20.5 20.67,39.8 38.9,52.54 26.69,19.09 64.15,21.31 93.1,6.06 21.97,-11.33 37.75,-31.99 47.23,-54.44 14.18,-33.63 15.84,-71.1 12.82,-107.04 -3.3,-34.06 -14.84,-69.21 -40.41,-93.08 -20.29,-19.13 -49.76,-27.38 -77.1,-22.4z"/>
   <path class="fil2" d="M1224.89 961.54c27.34,-4.98 56.81,3.27 77.1,22.4 25.57,23.87 37.11,59.02 40.41,93.08 3.02,35.94 1.36,73.41 -12.82,107.04 -9.48,22.45 -25.26,43.11 -47.23,54.44 -28.95,15.25 -66.41,13.03 -93.1,-6.06 -18.23,-12.74 -30.9,-32.04 -38.9,-52.54 -9.33,-24.12 -12.67,-50.26 -12.16,-76 -0.57,-35.86 6.12,-73.39 26.98,-103.3 13.74,-20.14 35.45,-35.18 59.72,-39.06zm-528.64 382.4c6.48,-1.2 13.07,-0.69 19.63,-0.71 239.54,-0.01 479.06,-0.01 718.61,0 6.51,0.02 13.09,-0.49 19.55,0.79 -30.85,3.02 -61.48,7.95 -92.07,12.86 -42.48,7.35 -85.03,15.34 -126.13,28.6 -51.04,17.56 -99.81,41.6 -145.53,70.21 -62.85,-30.21 -127.44,-57.63 -194.89,-75.79 -65.5,-16.35 -132.23,-27.55 -199.17,-35.96zm-595.05 -363.67c44.2,-21.02 87.02,-44.98 127.78,-72.1 19.47,23.45 38.82,46.97 58.37,70.36 0.12,74.96 0.02,149.91 0.04,224.87 -7.8,-6.73 -17.6,-11.12 -27.97,-11.52 -24.77,-1.47 -48.18,8.37 -70.67,17.42 -25.45,9.58 -51.78,16.63 -78.21,22.9 -36.53,8.36 -73.36,15.95 -110.54,20.82 54.55,-29.02 108.9,-59.35 157.24,-98.14 20.22,-16.6 40.84,-33.09 57.44,-53.46 14.14,-17.3 28.59,-35.28 35.3,-56.93 3.84,-11.96 4.54,-25.6 -1.48,-36.97 -6.78,-13.24 -21.19,-20.96 -35.5,-22.97 -10.49,-1.49 -20.65,2.29 -30.92,3.69 -40.2,6.38 -80.84,10.62 -121.56,10.97 13.39,-6.63 27.26,-12.31 40.68,-18.94zm687.81 -118.3c41.88,-42.63 90.57,-77.81 139.16,-112.34 -5.18,6.17 -12.32,10.07 -18.49,15.1 -37.74,28.83 -74.39,59.9 -103.71,97.53 -5.67,-0.08 -11.33,-0.18 -16.96,-0.29zm889.7 -111.88c5.75,-4.64 10.61,-10.66 17.73,-13.38 -9.24,15.35 -20.15,29.57 -32.36,42.67 -23.47,25.7 -45.25,53.03 -63.85,82.48 -20.63,0.45 -41.29,0.55 -61.93,-0.06 40.71,-31.05 81.62,-61.89 120.69,-95.03 1.88,-1.76 3.52,-3.72 5.22,-5.67 4.66,-3.9 9.82,-7.15 14.5,-11.01zm-522.98 -18.5c15.04,-24.38 34.44,-46.26 56.97,-63.97 -15.71,19.15 -29.26,40.91 -34.63,65.35 -2.5,10.83 -1.47,23.66 7.11,31.62 12.08,10.93 29.26,12.69 44.83,13.44 28.91,0.4 57.57,-4.68 85.76,-10.74 47.98,-10.59 94.91,-25.4 141.34,-41.39 23.47,-7.78 46.24,-17.47 69.73,-25.11 -16.55,8.91 -33.84,16.34 -50.96,24.04 -64.88,28.3 -131.34,53.81 -200.37,69.94 -31.9,6.87 -64.82,12.97 -97.48,8.5 -14.06,-2.14 -30.3,-8.85 -34.39,-23.87 -3.88,-16.81 3.95,-33.51 12.09,-47.81zm54.96 -318.23c14.2,-2.86 28.51,-5.2 42.75,-7.87 5.94,2.46 12.21,4.17 18.63,4.85 19.01,2.47 38.25,2.81 57.42,2.77 -12.86,7.34 -26.35,13.49 -39.39,20.47 -22.41,-2.7 -45.13,-5.31 -66.38,-13.3 -4.66,-1.66 -8.98,-4.13 -13.03,-6.92zm-15.11 -106.37c30.11,-20.6 60.51,-40.86 92.23,-58.9 -60.67,44.41 -120.96,89.85 -174.96,142.38 -20.9,20.75 -41.42,42.38 -57.01,67.53 -7.46,12.73 -14.78,26.96 -13,42.17 1.03,10.09 8.81,18.42 18.31,21.44 21.65,7.42 44.69,2.07 66.38,-2.35 -23.03,11.01 -48.06,18.1 -73.45,20.64 -15.33,0.92 -32.91,0.74 -44.95,-10.17 -9.95,-9.69 -9.28,-25.18 -4.68,-37.3 8.85,-23.96 25.86,-43.74 42.73,-62.46 44.22,-46.89 95.75,-86.12 148.4,-122.98zm-132.1 -86.68c7.16,-2.64 14.85,-3.73 21.76,-7.05 0.27,0.84 0.81,2.5 1.05,3.32 -33.24,19.23 -65.71,39.83 -97.66,61.13 -17.33,13.87 -33.61,29.03 -50.06,43.93 -68.55,63.37 -133.61,130.87 -190.63,204.88 -28.24,37.26 -54.93,76.32 -73.18,119.56 -9.08,22.68 -16.46,47.47 -12.06,72.06 3.11,18.15 15.8,34.17 32.81,41.29 24.42,10.44 51.88,9.2 77.71,6.12 39.84,-5.29 78.52,-16.97 116.37,-30.17 9.27,-3.08 18.16,-7.34 27.77,-9.37 -40.09,16.11 -80.78,30.88 -122.3,42.86 -34.55,9.63 -69.84,18.16 -105.88,18.9 -16.79,-0.13 -34.7,-1.78 -49.11,-11.2 -13.07,-8.48 -18.95,-24.53 -19.28,-39.59 -1.16,-23.52 6.65,-46.28 15.63,-67.68 18.1,-41.43 43.51,-79.17 70.38,-115.34 54.48,-72 116.89,-137.77 183.63,-198.46 20.18,-18.14 75.19,-58.36 87.71,-74.27 13.43,-10.65 28.89,-18.23 42.8,-28.17 7.23,-4.95 14.97,-9.13 21.94,-14.44 -60.77,31.07 -119.22,66.7 -175.22,105.68 -87.77,61.36 -169.42,131.87 -240.6,211.99 -41.12,46.49 -78.76,96.25 -110.16,149.85 -28.26,48.5 -51.88,100.45 -62.92,155.73 -28,0.65 -56.01,0.1 -84,0.29 -26.03,-0.21 -52.07,0.42 -78.08,-0.34 33.29,-29.31 66.04,-60.25 89.81,-98.07 8.24,-13.55 16.18,-28.07 17.81,-44.1 0.65,-6.19 -1.93,-13.51 -8.41,-15.4 -8.77,-2.68 -18.17,-0.78 -26.87,1.36 -37.93,10.39 -72.07,30.57 -106.62,48.72 151.2,-172.24 342.25,-308.52 552.44,-399.34 -9.57,1.72 -18.86,4.74 -28.37,6.72 -35.11,7.76 -70.89,12.48 -105.58,22.11 -33.63,9.08 -66.07,22.4 -96.55,39.27 -29.87,16.18 -57.27,36.38 -84.42,56.67 5.63,-9.26 12.78,-17.48 19.81,-25.7 81.54,-92.37 198.29,-149.96 319.42,-168.06 60.88,-8.9 121.8,-21.32 178.87,-44.84 16.86,-6.71 33.14,-14.77 50.24,-20.85zm148.24 670.99c73.76,-8.48 152.66,16.01 203.89,70.86 35.81,37.66 54.42,90.13 52.7,141.86 1.51,45.84 -12.5,92.42 -40.87,128.67 -36.5,47.16 -93.31,75.98 -151.84,83.98 -69.71,9.69 -144.19,-10.3 -196.93,-57.61 -27.65,-24.71 -48.27,-57.4 -57.96,-93.25 -7.6,-26.84 -8.82,-55.11 -6.95,-82.81 2.79,-39.52 17.23,-78.31 42.15,-109.23 37.78,-47.37 96.21,-75.55 155.81,-82.47zm-5.56 15.35l0 0c-56.08,7.81 -110.56,36.32 -143.94,82.83 -24.21,33.42 -35.89,75.17 -34.36,116.29 -1.83,54.48 21.5,109.34 63,144.9 79.3,68.98 206.93,71.79 290.16,8.13 27.58,-21.01 49.34,-49.78 61.19,-82.42 12.21,-32.89 13.97,-68.83 9.97,-103.43 -5.33,-42.73 -26.22,-83.26 -58.18,-112.15 -50.01,-45.59 -121.51,-63.73 -187.84,-54.15zm-939.18 -10.86c10.74,-1.14 21.54,-0.53 32.3,-0.67 114.19,0.06 228.38,-0.07 342.55,0.08 -0.02,52.24 0.19,104.5 -0.09,156.77 -22.59,-23.26 -43.74,-47.95 -66.14,-71.36 -38.88,-0.86 -77.94,-0.61 -116.86,-0.11 0.4,25.83 0,51.69 0.21,77.52 16.24,0 32.5,-0.02 48.76,0.04 5.73,0.63 9.63,-4.34 14.06,-7.11 18.35,-13.07 36.31,-26.73 55,-39.36 0.21,59.56 0.23,119.14 -0.02,178.7 -22.11,-15.17 -42.92,-32.29 -65.24,-47.06 -17.52,-0.44 -35.06,-0.12 -52.58,-0.12 0.11,28.38 -0.35,56.74 0.23,85.09 30.78,0.84 61.6,0.15 92.39,0.36 7.64,-0.28 15.36,0.69 22.94,-0.47 25.61,-24.63 50.76,-49.8 76.28,-74.56 0.48,53.12 -0.09,106.28 0.29,159.4 19.55,-22.76 38.07,-46.4 57.35,-69.38 1.72,-2.37 4.41,-4.67 4.14,-7.88 0.04,-87.26 0.04,-174.53 0,-261.8 -0.97,-6.15 -6.95,-10.09 -10.33,-15.04 -17.43,-21.08 -35.07,-41.98 -52.32,-63.19 85.07,0 170.16,-0.19 255.21,0.09 -20.89,25.46 -42.14,50.62 -63.06,76.04 0.15,85.81 -0.38,171.63 0.27,257.44 31.55,-0.28 63.09,-0.22 94.66,-0.03 26.06,-24.35 51.08,-49.88 76.93,-74.45 0.21,53.1 0.04,106.22 0.1,159.33 -107.7,0.03 -215.37,0 -323.07,0.01 -139.38,-1.01 -278.79,-0.2 -418.17,-0.53 -1.39,-0.13 -4.16,-0.44 -5.56,-0.57 20.31,-25.28 41.77,-49.82 61.57,-75.39 0.52,-87.21 -0.02,-174.46 0.25,-261.67 0.23,-2.98 -0.16,-5.98 -2.43,-8.1 -19.95,-23.94 -39.57,-48.15 -59.62,-72.02zm31.72 14.33l0 0c13.95,19.47 30.5,37.02 45.16,56.01 -0.18,91.15 -0.04,182.28 -0.06,273.42 0.42,2.77 -1.22,5.03 -2.94,7 -10.51,12.49 -20.85,25.14 -31.21,37.75 -3.82,4.67 -8.1,9.02 -10.97,14.39 112.48,0.23 224.97,0.04 337.44,0.08 -0.17,-36.42 0.42,-72.86 -0.31,-109.28 -7.03,5.23 -12.65,12.06 -19.22,17.83 -11.81,12.09 -24.31,23.46 -36.1,35.56 -38.92,0.05 -77.84,-0.02 -116.77,0.04 -5.46,0.11 -11.44,-1.11 -15.23,-5.39 -3.88,-4.05 -4.31,-10 -4.41,-15.29 0.04,-31.17 0,-62.33 0.04,-93.5 23.12,-0.02 46.24,-0.04 69.36,-0.02 5.62,-0.47 9.29,4.63 13.66,7.3 11.66,8.18 22.65,17.35 34.78,24.8 0.38,-39.93 0.06,-79.87 0.17,-119.8 -2.77,1.01 -5.39,2.4 -7.72,4.2 -12.34,9.13 -24.88,18.06 -37.32,27.1 -24.3,0.05 -48.63,0.05 -72.95,0 0,-35.49 -0.02,-70.97 0.02,-106.46 46.03,-0.02 92.08,-0.15 138.11,0.06 14.89,16.07 29.18,32.75 44.72,48.19 1.09,-8.29 0.44,-16.64 0.59,-24.95 -0.27,-26.49 0.53,-52.99 -0.4,-79.44 -109.47,0.63 -218.96,-0.19 -328.44,0.4zm383.53 0.5l0 0c14,19.28 30.13,36.99 45.07,55.59 0.12,92.42 0.14,184.85 0,277.28 -14.96,18.57 -31.08,36.29 -45.07,55.58 105.78,0.44 211.59,0.08 317.39,0.2 0.04,-36.35 0.23,-72.69 -0.1,-109.04 -9.4,5.76 -16.01,14.87 -24.09,22.21 -10.95,9.99 -20.89,21.05 -31.95,30.91 -38.58,0.04 -77.18,0 -115.76,0.02 -0.04,-92.39 -0.02,-184.79 0,-277.18 15,-18.54 30.76,-36.48 45.19,-55.44 -10.89,-0.7 -21.82,-0.19 -32.73,-0.34 -52.65,0.13 -105.31,-0.27 -157.95,0.21zm743.95 -14.92c33.89,-1.28 67.89,-0.23 101.82,-0.58 36.27,0.08 72.54,-0.13 108.81,0.12 49.56,64.93 99.09,129.92 148.97,194.62 0.51,-37.38 0,-74.77 0.26,-112.17 -0.07,-3.27 0.4,-7.01 -2.21,-9.5 -19.8,-24.11 -39.63,-48.21 -59.28,-72.46 28.74,-1.37 57.58,-0.22 86.35,-0.61 42.12,0.37 84.27,-0.74 126.37,0.58 -19.11,23.02 -38.22,46.03 -57.48,68.92 -2.08,2.85 -5.75,5.26 -5.39,9.21 -0.09,110.87 -0.04,221.75 -0.04,332.62 -0.11,2.39 -0.23,4.82 -0.36,7.26 -25.53,-0.25 -51.06,-0.09 -76.59,-0.07 -2.52,0.32 -4.89,-0.58 -6.13,-2.85 -57.4,-75.08 -114.96,-150.06 -172.44,-225.1 -13.18,-16.91 -25.77,-34.3 -39.34,-50.9 -0.88,67.6 -0.09,135.23 -0.38,202.85 20.94,25.4 41.96,50.75 63.17,75.96 -62.94,-0.02 -125.87,-0.02 -188.79,0 -8.94,0.09 -17.89,-0.17 -26.81,-0.48 7.36,-11.2 16.89,-20.83 25.17,-31.34 12.09,-14.81 24.55,-29.31 36.53,-44.2 -0.02,-87.88 0,-175.76 0,-263.65 0.37,-2.74 -1.7,-4.78 -3.11,-6.79 -19.7,-23.81 -39.69,-47.41 -59.1,-71.44zm31.93 14.44l0 0c3.19,6.06 8.14,10.84 12.32,16.19 10.93,13.2 21.8,26.44 32.73,39.67 0.06,65.06 0,130.12 0.02,195.19 -0.3,27.25 0.59,54.55 -0.44,81.74 -13.51,16.97 -27.53,33.54 -41.31,50.3 -1.24,1.72 -2.33,3.53 -3.25,5.44 50.41,0.18 100.8,0.21 151.21,-0.02 -1.3,-2.27 -2.56,-4.54 -4.21,-6.55 -13.05,-15.55 -25.85,-31.32 -38.84,-46.93 -2.6,-2.45 -1.93,-6.23 -2.07,-9.42 0.29,-81.65 -0.28,-163.34 0.29,-244.99 78.31,102.71 157.38,204.84 235.41,307.74 20.03,0.59 40.09,0.23 60.12,0.19 -0.17,-109.51 0.04,-219.02 -0.1,-328.53 -0.38,-2.56 0.25,-4.78 1.9,-6.67 14.21,-17.94 29.67,-34.97 43.28,-53.37 -49.78,-0.34 -99.6,-0.26 -149.37,-0.04 1.1,2.16 2.42,4.23 3.93,6.18 13.03,15.57 25.86,31.35 38.87,46.97 1.87,1.85 2.44,4.35 2.23,6.97 -0.11,54.29 0.04,108.57 -0.07,162.88 -23.01,-28.74 -44.83,-58.41 -67.38,-87.52 -34.66,-45.19 -69.11,-90.55 -103.87,-135.65 -57.14,0.19 -114.27,-0.28 -171.4,0.23zm-233.6 66.35l0 0c-22.63,4.68 -41.37,20.96 -52.51,40.76 -16.99,29.5 -20.43,64.6 -19.28,98.02 1.1,31.8 8.38,65.05 28.94,90.19 14.37,17.75 36.73,29.05 59.72,28.44 22.81,0.23 44.88,-11.14 58.95,-28.91 18.68,-22.95 26.18,-52.88 28.18,-81.88 0.82,-23.03 0.92,-46.4 -4.58,-68.93 -5.83,-24.72 -17.75,-49.34 -38.56,-64.81 -17.11,-13.02 -39.98,-17.39 -60.86,-12.88z"/>
   <path class="fil3" d="M1312.04 230.46c5.16,-2.91 10.57,-5.54 16.55,-6.25 -13.59,7.99 -27.02,16.2 -40.78,23.88 -31.72,18.04 -62.12,38.3 -92.23,58.9 -52.65,36.86 -104.18,76.09 -148.4,122.98 -16.87,18.72 -33.88,38.5 -42.73,62.46 -4.6,12.12 -5.27,27.61 4.68,37.3 12.04,10.91 29.62,11.09 44.95,10.17 25.39,-2.54 50.42,-9.63 73.45,-20.64 10.53,-4.57 21.13,-8.96 31.55,-13.78 -6.04,7.3 -15.27,10.44 -23.07,15.39 -33.4,18.55 -68.06,35.6 -105.09,45.53 -18.29,4.51 -38.12,7.84 -56.45,1.87 -14.43,-4.6 -24.5,-18.82 -25.2,-33.78 -1.23,-17.66 6.8,-34.2 15.9,-48.78 17.56,-27.02 40.95,-49.57 64.79,-70.97 30.16,-26.3 62.24,-50.28 95.2,-72.92 59.87,-41.01 122.47,-77.98 186.88,-111.36zm-839.41 1114.46c7.79,-1.38 15.72,-0.77 23.6,-0.84 66.67,-0.08 133.35,0.15 200.02,-0.14 66.94,8.41 133.67,19.61 199.17,35.96 67.45,18.16 132.04,45.58 194.89,75.79 45.72,-28.61 94.49,-52.65 145.53,-70.21 41.1,-13.26 83.65,-21.25 126.13,-28.6 30.59,-4.91 61.22,-9.84 92.07,-12.86 65.46,0.13 130.93,0.02 196.39,0.04 3.21,-0.08 6.48,0.32 9.54,1.49 -63.2,6.78 -126.18,15.61 -188.74,26.73 -56.94,10.51 -114,22.07 -168.59,41.73 -73.51,26.96 -144.88,59.83 -213.33,97.82 -1.77,0.93 -3.55,0.9 -5.31,-0.12 -62.06,-27.91 -125.33,-53.14 -189.34,-76.2 -40.46,-14.16 -81.1,-28.05 -122.81,-38.12 -87.73,-21.31 -177.02,-35.51 -266.45,-47.43 -10.86,-2.1 -22.24,-1.78 -32.77,-5.04zm700.65 -657.08c22.37,-16.82 45.36,-33.06 70.05,-46.38 -10.21,8.73 -20.33,17.56 -30.63,26.16 -22.53,17.71 -41.93,39.59 -56.97,63.97 -8.14,14.3 -15.97,31 -12.09,47.81 4.09,15.02 20.33,21.73 34.39,23.87 32.66,4.47 65.58,-1.63 97.48,-8.5 69.03,-16.13 135.49,-41.64 200.37,-69.94 17.12,-7.7 34.41,-15.13 50.96,-24.04 17.02,-8.22 33.86,-16.87 50.86,-25.15 -2.57,2.66 -5.21,5.3 -8.5,7.04 -82.51,46.72 -168.11,88.35 -257.27,120.84 -39.73,14 -80.22,26.67 -122.03,32.56 -22.03,2.81 -45.04,4.36 -66.54,-2.24 -14.8,-4.39 -28.45,-15.78 -31.79,-31.37 -3.5,-16.4 3.53,-32.83 12.42,-46.28 18.25,-27.16 43.64,-48.46 69.29,-68.35zm-5.76 -267.92c14.37,-2.3 28.72,-4.69 43.17,-6.56 4.05,2.79 8.37,5.26 13.03,6.92 21.25,7.99 43.97,10.6 66.38,13.3 -11,6.36 -21.22,14.37 -33.21,18.84 -18.8,-3.15 -37.52,-7.24 -55.39,-13.95 -12.08,-4.64 -24.13,-10.01 -33.98,-18.55zm293.41 -50.89c23.6,0.69 48.56,-0.25 69.81,-11.71 -7.15,8.02 -12.6,19.47 -23.95,22.05 -18.74,5.83 -38.67,5.79 -58.09,4.74 -8.63,-1.09 -17.5,-0.79 -25.89,-3.38 13,-2.95 25.45,-7.74 38.12,-11.7zm-685.15 68.73c63.59,-56.96 131.72,-108.69 202.36,-156.53 -12.52,15.91 -67.53,56.13 -87.71,74.27 -66.74,60.69 -129.15,126.46 -183.63,198.46 -26.87,36.17 -52.28,73.91 -70.38,115.34 -8.98,21.4 -16.79,44.16 -15.63,67.68 0.33,15.06 6.21,31.11 19.28,39.59 14.41,9.42 32.32,11.07 49.11,11.2 36.04,-0.74 71.33,-9.27 105.88,-18.9 41.52,-11.98 82.21,-26.75 122.3,-42.86 52.41,-20.58 103.45,-44.54 154.11,-69.04 -30.6,19 -61.76,37.17 -91.7,57.25 -17.28,11.68 -35.2,22.53 -51.6,35.41 -48.59,34.53 -97.28,69.71 -139.16,112.34 -94.09,-0.17 -188.2,0.23 -282.29,-0.21 2.29,-66.34 29.63,-128.85 63.11,-185.1 54.77,-90.44 127.8,-168.33 205.95,-238.9z"/>
  </g>
 </g>
</svg>
