<?xml version="1.0" encoding="UTF-8"?>
<!DOCTYPE svg PUBLIC "-//W3C//DTD SVG 1.1//EN" "http://www.w3.org/Graphics/SVG/1.1/DTD/svg11.dtd">
<!-- Creator: CorelDRAW -->
<svg xmlns="http://www.w3.org/2000/svg" xml:space="preserve" width="2000px" height="1600px" version="1.1" style="shape-rendering:geometricPrecision; text-rendering:geometricPrecision; image-rendering:optimizeQuality; fill-rule:evenodd; clip-rule:evenodd"
viewBox="0 0 2000 1600"
 xmlns:xlink="http://www.w3.org/1999/xlink">
 <defs>
  <style type="text/css">
   <![CDATA[
    .fil0 {fill:#FFC422}
    .fil1 {fill:#002C61;fill-rule:nonzero}
   ]]>
  </style>
 </defs>
 <g id="Capa_x0020_1">
  <metadata id="CorelCorpID_0Corel-Layer"/>
  <g id="ETSU_x0020_Buccaneers.cdr">
   <path class="fil0" d="M900.17 640.38c146.3,0 292.6,0 438.9,0.01l78.2 0 -23.08 74.72c-3.77,12.21 -8.13,24.25 -11.78,36.49l-7.89 26.48 -25.58 10.45c-55.19,22.56 -107.16,54.35 -150.16,95.86 -14.96,14.44 -29,30.16 -40.52,47.52l-17.09 25.73 -30.88 0.06c-70.03,0.12 -140.07,0.19 -210.11,0.21 0.02,93.91 0,187.81 0.01,281.71 120.81,0.07 241.63,0.31 362.44,0 53.65,-0.13 107.51,-16.09 152.1,-46.05 52.69,-35.4 92.04,-88.51 119.93,-144.88l15.88 -32.08 35.79 -0.02c47.3,-0.04 94.6,-0.06 141.9,0.01l80.16 0.13 -25.57 75.97c-50.07,148.78 -100.33,297.5 -150.38,446.28l-20.53 61.02 -58.41 -27.06c-58.38,-27.05 -123.39,-38.62 -187.49,-38.53 -344.03,0.44 -688.05,0.05 -1032.08,-0.04l-39.89 -0.01 -14.08 -37.32c-15.76,-41.78 -31.35,-83.61 -47.13,-125.38l-26.71 -70.72 75.27 -7.1c27.67,-2.62 54.52,-12.79 78.01,-27.44 17.82,-11.11 49.86,-37.24 49.69,-60.86 -0.49,-69.32 0.3,-138.65 -0.47,-207.97 -0.15,-13.23 -0.02,-26.46 -0.01,-39.7 -43.01,0.01 -86.03,0.02 -129.04,0.06l-87.96 0.07 34.98 -80.71c24.42,-56.34 48.9,-112.66 73.48,-168.93l15.13 -34.62 37.77 0.02c18.58,0.01 37.16,0.01 55.74,0.01l0.11 -33.38 0.39 0c-0.38,-81.38 -0.01,-162.76 -0.17,-244.13 -0.52,-8.77 -5.17,-17.5 -10.84,-24 -27.73,-31.77 -86.71,-49.51 -126.41,-58.96l-63.38 -15.09 22.64 -61.09c16.06,-43.33 32.24,-86.61 48.36,-129.92l13.99 -37.56 40.09 0c319.26,0.06 638.52,0.16 957.77,0.02 40.97,-0.02 81.94,0.35 122.91,-0.26 33.91,-0.51 73.33,-5.07 101.81,-25.07l63.12 -44.33 24.7 73.07c50.3,148.82 100.38,297.72 150.65,446.55l25.49 75.47 -79.65 0.69c-47.52,0.41 -95.03,0.09 -142.55,0.16l-36.09 0.05 -15.84 -32.43c-41.14,-84.24 -87.18,-178.89 -189.03,-196.94 -26.42,-4.68 -55.92,-2.73 -82.77,-3.05 -38.45,0.33 -76.89,-0.51 -115.33,-0.44 -72.83,0.12 -145.67,0.05 -218.5,0.02 -0.01,92.41 0.03,184.82 -0.01,277.23z"/>
   <path class="fil1" d="M1415.03 127.09c46.51,-0.7 95.22,-8.23 134.11,-35.54 50.31,148.81 100.38,297.7 150.65,446.53 -47.37,0.41 -94.75,0.09 -142.14,0.16 -50.92,-104.26 -106.38,-206.67 -230.8,-228.43 -30.59,-5.71 -61.79,-3.53 -92.72,-3.93 -38.54,0.33 -77.04,-0.68 -115.56,-0.45 -92.02,0 -184.05,0 -276.06,0.02 -0.06,112.02 0.01,224.07 -0.04,336.11 -125.18,0.04 -250.37,-0.14 -375.56,0.09 -0.39,-82.23 -0.02,-164.49 -0.18,-246.72 -0.78,-22.4 -10.34,-43.91 -25.07,-60.62 -37.21,-42.8 -103.15,-64.43 -156.51,-77.14 16.05,-43.29 32.22,-86.56 48.33,-129.83 319.27,0.05 638.54,0 957.81,0.02 41.24,-0.18 82.52,0.35 123.74,-0.27zm-948.72 829.66c125.4,-0.05 250.78,-0.01 376.18,-0.01 0.02,113.52 -0.02,227.04 0.02,340.56 140.09,0 280.18,-0.02 420.27,0.02 65,-0.55 130.19,-19.25 184.13,-55.86 61.4,-40.89 107.04,-101.65 139.46,-167.18 47.27,-0.03 94.51,-0.05 141.77,0.02 -50.08,148.78 -100.33,297.49 -150.38,446.29 -66.03,-30.59 -139.26,-44.43 -211.82,-43.88 -344.01,-0.02 -687.99,0.05 -1031.99,-0.03 -15.76,-41.78 -31.36,-83.63 -47.14,-125.4 36.61,-3.46 71.96,-16.56 103.12,-35.92 37.13,-23.23 77.4,-63.07 76.86,-110.23 -0.29,-69.4 0.44,-138.83 -0.48,-208.2 0,-13.39 0,-26.79 0,-40.18zm0.02 -258.67c290.9,0 581.82,-0.01 872.74,0 -3.83,12.4 -8.25,24.61 -11.95,37.04 -62.01,25.34 -120.01,61.26 -168.41,107.76 -17.88,17.48 -34.67,36.25 -48.52,57.12 -276.89,0.5 -553.78,0.02 -830.66,0.23 24.39,-56.29 48.86,-112.56 73.42,-168.78 37.78,0.02 75.57,0.02 113.36,0 0,-11.13 -0.02,-22.24 0.02,-33.37z"/>
  </g>
 </g>
</svg>
