<?xml version="1.0" encoding="UTF-8"?>
<!DOCTYPE svg PUBLIC "-//W3C//DTD SVG 1.1//EN" "http://www.w3.org/Graphics/SVG/1.1/DTD/svg11.dtd">
<!-- Creator: CorelDRAW -->
<svg xmlns="http://www.w3.org/2000/svg" xml:space="preserve" width="2000px" height="1600px" version="1.1" style="shape-rendering:geometricPrecision; text-rendering:geometricPrecision; image-rendering:optimizeQuality; fill-rule:evenodd; clip-rule:evenodd"
viewBox="0 0 2000 1600"
 xmlns:xlink="http://www.w3.org/1999/xlink">
 <defs>
  <style type="text/css">
   <![CDATA[
    .fil1 {fill:black}
    .fil0 {fill:#97A2AC}
    .fil2 {fill:#B62147;fill-rule:nonzero}
    .fil3 {fill:#FEFEFE;fill-rule:nonzero}
   ]]>
  </style>
 </defs>
 <g id="Capa_x0020_1">
  <metadata id="CorelCorpID_0Corel-Layer"/>
  <g id="Fairfield_x0020_Stags.cdr">
   <path class="fil0" d="M49.91 1276.28l-45.12 -39.87 -4.79 20.99 45.12 39.87 4.79 -20.99zm250.88 -3.9l-13.32 -35.97 -2.73 20.99 12.48 30.61 3.57 -15.63zm920.87 -1010c5.58,-1.85 11.18,-3.64 16.8,-5.36 37.51,-11.42 76.48,-19.38 115.87,-18.15 27.49,0.85 55.21,6.6 79.5,19.87l36.19 19.78 -41.13 3.02c-45.11,3.31 -89.8,12.4 -132.77,26.47 -35.47,11.61 -71.42,27.42 -98.2,54.14 -2.06,2.2 -8.14,8.38 -8.05,10.04l0.04 0.69 -0.04 0.69c-1.82,31.35 3.97,62.65 13.3,92.57 26.25,-21.67 56.73,-38.51 90.8,-43.52 10.6,-1.56 21.34,-2.05 32.04,-1.82 39.47,0.85 80.01,12.13 119.24,7.47l0.21 -0.03 0.22 -0.02c18.81,-1.54 37.06,-7.45 54.61,-14.09l41.46 -15.71 -27.65 34.66c-20.34,25.5 -48.07,45.84 -80.15,53.38 -7.53,1.77 -15.18,2.89 -22.88,3.55 -13.96,1.21 -27.96,0.89 -41.95,0.53 -22.06,-0.58 -44.98,-1.4 -66.4,4.9 -29.16,8.58 -52.62,29.97 -70.57,53.98 10.97,16.87 22.61,33.35 35.32,48.95 20.05,-29.71 50.49,-52.14 84.47,-63.47 32.47,-10.83 68.07,-11.02 101.05,-2.26l47.4 12.58 -47.79 11.01c-32.46,7.48 -68.29,15.97 -93.3,39.51 -16.21,15.26 -23.92,37.53 -24.68,59.47 10.51,7.95 21.23,16.78 33.19,21.88 32.13,13.67 68.54,15.07 102.97,16.22 20.56,-0.24 41.1,-1.35 61.67,-1.28l46.47 0.16 -40.6 22.62c-21.43,11.93 -43.14,23.4 -67.64,27.35 -45.73,8.35 -93.09,4.3 -137.37,-9.47 6.67,10.07 13,20.34 18.49,31.19 1.91,3.59 3.03,7.44 3.46,11.48 0.54,5.11 -0.08,9.94 -0.79,14.98 -0.33,2.41 -0.77,5.17 -0.69,7.65 1.93,9.66 8.83,20.08 12.39,29.44 10.95,28.76 18.53,59 31.46,86.97 7.88,17.06 18.73,32.1 25.23,49.98 4.44,12.19 4.44,26.49 -4.61,36.64 -6.3,7.08 -13.53,13 -20.43,19.45l-0.09 0.09 -0.1 0.08c-19.32,17.3 -41.23,34.77 -68.87,31.72 -6.79,-0.75 -13.21,-2.8 -19.28,-5.93 -15.07,-7.76 -24.63,-19.95 -37.09,-30.68 -24.19,-20.83 -50.23,-43.34 -80.68,-54.61 -6.68,25.84 -15.36,51.15 -28.52,74.5 -28.12,49.87 -73.91,87.51 -124.65,112.84l-32.48 16.22 12.47 -25.08c-8.19,5.29 -16.64,10.19 -25.51,14.46l-18.19 8.76c-17.25,20.72 -33.42,42.34 -49.36,64.06l-25.6 34.9 3.69 -43.13c2.04,-23.9 3.15,-48.14 0.08,-72.01l-0.03 -0.25c-2.41,-22.33 -8.85,-44.05 -16.78,-65.02 -51.52,-10.47 -103.46,-18.78 -154.91,-29.63l-64.75 -13.64 65.37 -10.26c39.51,-6.2 79.11,-11.74 118.64,-17.73 -18.69,-23.67 -40.6,-44.76 -64.69,-62.91l-29.86 -22.48 15.35 0.25c-77.99,-9.03 -156,-17.93 -233.96,-27.2 -30.71,-3.66 -61.54,-6.47 -92.11,-11.29l-10.73 -1.69 0.95 -21.7 10.84 -0.75c63.08,-4.32 126.21,-7.94 189.29,-12.25 -30.85,-14.01 -62.08,-27.24 -92.91,-41.3l-0.22 -0.1 -0.21 -0.11c-2.86,-1.44 -5.65,-3.02 -8.4,-4.67l-43.58 -26.14 50.69 3.59c75.95,5.38 153.26,9.52 228.67,-3.75 23.85,-4.2 47.58,-10.04 70.47,-18.14 -56.23,-8.54 -112.52,-16.78 -168.71,-25.57l-10.66 -1.66 0.77 -21.57 10.75 -0.89c100.3,-8.36 200.77,-14.41 301.13,-21.96 1.11,-0.69 2.9,-2.32 4.05,-3.28 11.73,-10.37 24.01,-20.13 35.54,-30.72 8.27,-7.58 17.17,-14.49 26.97,-19.83 -21.12,-32.51 -30.18,-71.52 -32.01,-110.06 -0.96,-20.23 -0.68,-40.49 0.34,-60.71l1.42 -28.27 11.1 11.65c0.66,-9.04 1.79,-18.04 3.62,-26.95l4.73 -23.05 16.07 17.19c7.07,7.57 13.25,15.98 20.46,23.39 20.97,21.56 45.52,39.18 70.87,55.4 -5.11,-13.55 -9.67,-27.3 -13.11,-41.43 -0.5,-1.86 -0.94,-4.46 -1.5,-6.02 -10.62,-10.45 -20.04,-22.16 -27.94,-34.78 -17.76,-28.35 -27.92,-61.6 -26.18,-95.2 2.02,-39.18 23.12,-75.86 53.53,-100.08l42.97 -34.24 -24.52 49.17c-8.52,17.08 -13.52,35.66 -15.42,54.6 11.41,-33.43 29.84,-64.46 54.04,-90.32 30.93,-33.05 70.66,-59.09 115.23,-68.94l0.21 -0.05 0.2 -0.04c52.8,-9.76 107.5,-3.84 158.7,11.31l54.36 16.08 -56.18 7.62c-14.1,1.91 -27.98,0.36 -42,1.45l-0.24 0.02 -0.25 0.01c-43.28,1.63 -88.56,8.88 -125.66,32.64 -26.18,16.77 -46.42,41.07 -61.79,67.98zm648.16 1032.59l-4.83 21.18 38.87 0 4.83 -21.18 -38.87 0zm-478.83 0l-4.84 21.18 118.71 0 -31.21 -21.18 -82.66 0zm-366.93 21.18l85.28 0 38.51 21.45 4.17 -18.3 -51.26 -24.33 -71.93 0 -4.77 21.18zm-12.95 56.39l-4.62 20.26 85.88 0 4.67 -20.47 -85.93 0.21zm-216.34 10.04l-39.58 0 -4.58 18.64 39.57 0 4.59 -18.64zm-19.59 -87.61l-4.83 21.18 39.57 0 4.83 -21.18 -39.57 0zm-368.55 77.49l-39.72 0.09 -4.63 20.25 39.78 0 4.57 -20.34zm-22.02 -77.51l-4.84 21.2 39.94 0 4.81 -21.25 -39.91 0.05zm-168.35 21.21l38.31 21.51 3.83 -18.37 -51.26 -24.33 -71.92 0 -4.78 21.19 85.82 0zm-12.87 56.17l-85.9 0.21 -4.62 20.26 85.91 0 4.61 -20.47zm353.59 -100.11l-12.32 -35.83 -2.33 21.01 11.29 29.54 3.36 -14.72zm133.52 0.94l-18.26 -36.75 -4.79 20.99 19.23 32.5 3.82 -16.74zm238.85 -36.64l-4.76 20.88 15.82 32.5 3.94 -17.24 -15 -36.14zm258.47 35.79l-12.9 -35.9 -2.4 20.99 11.29 32.5 4.01 -17.59zm118.8 0.06l-13.23 -35.96 -3.1 20.99 12.68 31.01 3.65 -16.04zm380.43 -35.96l-43.56 41.99 -4.79 20.99 43.56 -41.99 4.79 -20.99zm-131.79 35.89l-12.81 -35.89 -4.79 20.99 13.59 32.5 4.01 -17.6zm209.82 -14.9l16.4 32.61 3.94 -17.3 -15.33 -36.3 -5.01 20.99zm207.74 150.19c-10.96,47.78 -85.08,52.33 -123.41,52.33l-106.69 0 -4.47 19.58 106.69 0 41.99 0c44.68,0 76.23,-29.51 85.89,-71.91zm-460.36 52.33l-4.47 19.58 218.32 0 4.47 -19.58 -218.32 0zm-248.62 0l-4.46 19.58 218.12 0 4.47 -19.58 -218.13 0zm-118.81 0l-4.47 19.58 89.2 0 4.47 -19.58 -89.2 0zm-243.43 0l-4.47 19.58 89.58 0 4.47 -19.58 -89.58 0zm-124.47 0l-4.47 19.58 87.13 0 4.47 -19.58 -87.13 0zm-129.23 0l-4.47 19.58 89.66 0 4.46 -19.58 -89.65 0zm-133.74 0l-4.47 19.58 89.02 0 4.47 -19.58 -89.02 0zm-124.2 -13.36l-7.51 32.94 89.36 0 7.56 -33.13 -3.1 13.55 -89.31 0 3 -13.36zm-131.95 13.36l-4.47 19.58 88.97 0 4.47 -19.58 -88.97 0zm-160.45 0l-89.58 0 -4.47 19.58 19.79 0 69.79 0 4.47 -19.58z"/>
   <path class="fil1" d="M1785.42 1272.71l-15.48 -36.65 134.33 0.35c28.59,0.07 83.74,5.34 94.19,38.45 1.89,5.99 1.99,12.26 0.59,18.37l-26.23 114.36c-10.96,47.78 -85.08,52.33 -123.41,52.33l-106.69 0 42.7 -187.21zm-488.49 -1135.48c50.92,-9.42 103.67,-3.6 153.04,11 -13.7,1.86 -27.57,0.31 -41.32,1.38 -45.58,1.72 -92.8,9.37 -131.75,34.55 -36.7,23.28 -62.26,60.35 -79.56,99.57 50.2,-18.2 102.62,-34.36 156.61,-32.71 25.54,0.83 51.46,6.05 74.05,18.39 -46.08,3.38 -91.68,12.94 -135.67,27.04 -37.35,12.54 -74.88,28.98 -103.14,57.23 -4.81,5.63 -11.91,10.99 -11.46,19.18 -2.26,39.08 6.6,77.91 19.75,114.51 27.31,-25.68 60.45,-47.39 98.26,-52.73 50.47,-7.64 100.4,11.7 150.94,5.7 20.01,-1.65 39.24,-7.77 57.92,-14.85 -18.61,23.33 -43.98,42.34 -73.43,49.13 -43.34,10.32 -88.9,-3.76 -131.88,9.15 -34.69,9.94 -61.73,36.31 -81.84,65.26 15.61,24.54 32.5,48.39 51.77,70.22 17.68,-34.48 49.97,-60.64 86.56,-72.81 30.22,-10.11 63.4,-10.2 94.09,-2.05 -34.95,8.05 -72.1,16.96 -98.9,42.5 -20.37,18.87 -29.11,47.18 -28.54,74.41 13.17,9.51 25.4,20.68 40.62,26.97 33.79,14.58 71.33,15.99 107.6,17.2 20.58,-0.24 41.15,-1.36 61.75,-1.28 -20.06,11.17 -40.83,22.32 -63.78,25.99 -56.32,10.32 -115.22,0.91 -167.14,-22.56 13.66,20.27 28.48,39.95 39.53,61.87 5.12,9.46 -0.02,19.99 0.67,29.95 2.05,11.6 9.05,21.42 13.13,32.31 11.12,29.04 18.65,59.47 31.78,87.75 7.65,16.68 18.51,31.74 24.85,49.03 2.81,7.84 3.67,17.73 -2.26,24.4 -6.03,6.75 -13.06,12.49 -19.66,18.66 -16.39,14.68 -35.88,31.21 -59.42,28.68 -21.28,-2.43 -34.6,-20.87 -49.77,-33.73 -28.9,-25.09 -59.52,-51.04 -97.33,-60.88 -6.82,29.05 -15.39,58.02 -30.4,84.01 -26.66,47.92 -71,83.73 -119.49,107.93 6.46,-12.98 14.01,-25.4 20.49,-38.38 -21.04,15.92 -41.96,32.4 -65.86,43.91 0.7,-5.26 1.41,-10.51 2.05,-15.75 -26.92,28.93 -50.77,60.5 -74.12,92.33 2.12,-24.81 3.22,-49.82 0.03,-74.6 -2.77,-25.64 -10.51,-50.39 -19.92,-74.29 -53.61,-11.1 -107.77,-19.66 -161.35,-30.95 45.7,-7.17 91.56,-13.46 137.26,-20.59 0.12,-0.33 0.33,-1.02 0.45,-1.35 -21.61,-30.79 -48.32,-57.81 -78.34,-80.42 14.37,0.24 28.76,0.41 43.13,1.58 -12.54,-8.2 -26.31,-14.16 -39.46,-21.21 -3.17,-1.79 -6.62,-3.05 -10.24,-3.36 -82.58,-9.58 -165.17,-19.23 -247.77,-28.8 -30.52,-3.89 -61.26,-6.44 -91.66,-11.23 78.51,-5.38 157.11,-9.67 235.57,-15.55 -44.25,-21.95 -90.04,-40.7 -134.98,-61.19 -2.59,-1.31 -5.12,-2.74 -7.62,-4.24 77.05,5.46 155.13,9.29 231.64,-3.91 38.71,-7.07 77.19,-17.89 112.43,-35.64 -70.26,-10.94 -140.67,-21.06 -210.91,-32.05 100.34,-8.36 200.88,-14.41 301.28,-21.96 4.43,-0.12 7.53,-3.65 10.8,-6.15 11.81,-10.46 24.2,-20.3 35.85,-31 10.92,-10.01 23.16,-18.94 37.34,-23.75 -26.02,-32.67 -36.55,-74.63 -38.46,-115.68 -0.97,-19.82 -0.66,-39.69 0.34,-59.52 3.79,3.98 7.69,7.84 11.74,11.58 -0.16,-17.84 0.58,-35.78 4.17,-53.32 7.13,7.63 13.32,16.11 20.64,23.57 30.4,31.33 67.8,54.37 104.85,76.83 -10.27,-24.25 -20.39,-48.72 -26.61,-74.41 -1.17,-3.45 -1.31,-7.48 -3.55,-10.45 -32.47,-31.36 -54.23,-76.06 -51.7,-121.85 1.69,-35.72 21.3,-69.17 48.96,-91.21 -17.23,34.55 -21.25,74.75 -14.53,112.53 1.45,8.65 4.52,16.92 8.86,24.54 0.57,-58.61 24.06,-116.29 64.04,-159.06 29.26,-31.21 66.84,-56.06 108.98,-65.37zm-196.17 1157.74l-71.93 0 -6.56 29.12 85.26 0 -10.49 48.24 -85.93 0.21 -19.93 87.38 -89.59 0 42.76 -187.26 -15 -36.14 241.68 -0.12 -19.01 82.9 -51.26 -24.33zm542.73 -16.57l-28.2 123.72 71.76 0 63.41 -29.27 -19.65 87.07 -218.34 0 42.79 -187.62 -12.81 -35.89 144.6 0 -43.56 41.99zm-169.84 16.57l-82.66 0 -6.65 29.12 85.41 0 -10.36 48.32 -85.98 0.14 -6.8 29.57 66.31 0 68.53 -27.88 -19.47 85.68 -218.14 0 42.78 -187.55 -13.23 -35.96 239.78 0 -19.35 85.83 -40.17 -27.27zm-285.83 -22.66l-12.9 -35.9 110.29 0 -50.98 223.51 -89.21 0 42.8 -187.61zm-630.84 -0.09l-12.32 -35.83 109.47 0.14 -50.95 223.39 -89.02 0 42.82 -187.7zm-349.84 22.75l-71.92 0 -6.57 29.12 85.26 0 -10.49 48.24 -85.93 0.21 -19.93 87.38 -89.58 0 41.93 -183.64 -45.12 -39.87 272.63 0 -19.02 82.89 -51.26 -24.33zm199.49 77.49l-39.72 0.09 -19.93 87.37 -88.97 0 42.78 -187.54 -13.32 -35.97 130.19 0c21.35,0 45.68,2.35 65.54,10.69 14.77,6.21 29.36,17.09 31.76,34.06 0.57,4.06 0.37,8.16 -0.55,12.16l-38.14 166.6 -89.31 0 19.67 -87.46zm439.43 -20.3c9.5,8.95 18.99,17.89 28.49,26.83l0.15 0.14 0.14 0.15c4.6,4.6 5.32,10.93 3.95,16.93l-14.53 63.71 -87.13 0 17.64 -77.34 -39.58 0 -17.64 77.34 -89.65 0 42.6 -186.76 -18.26 -36.75 136.14 0c22.18,0 48.04,2.61 68.63,11.41 14.43,6.17 31.38,18.61 27.27,36.65l-8.95 39.24c-1.71,7.47 -8.98,15.42 -16.27,17.78l-33 10.67zm1023.76 -57.19l-24.41 107.03 38.86 0 24.42 -107.03 -38.87 0zm-1485.21 -0.02l-6.65 29.14 39.95 0 6.61 -29.19 -39.91 0.05zm390.57 0.02l-6.64 29.12 39.57 0 6.64 -29.12 -39.57 0z"/>
   <path class="fil2" d="M1790.33 1249.62l113.9 0.3c48.8,0.09 87.49,14.07 81.65,40.29l-26.23 114.36c-5.52,24.22 -37.75,41.84 -110.24,41.84l-89.75 0 39.9 -174.94 -9.23 -21.85zm-730.35 -776.35c7.01,7.6 13.68,15.55 21.78,22.06 18.23,15.56 39.98,26.06 59.11,40.41 18.21,13.36 34.91,29.49 45.89,49.44 14.75,26.23 19.85,56.49 22.78,86.06 8.29,-7.27 19.82,-13.35 30.81,-10.82 15.48,19.7 29.85,40.34 44.34,60.8 10.89,16.32 22.54,32.29 31.33,49.87 6.15,11.01 -0.53,24.09 4.29,35.36 7.12,17.6 16.29,35.07 18.51,54.13 -0.29,19.51 1.91,38.95 3.98,58.33 -8.44,0.33 -17.78,1.12 -23.9,7.67 -17.27,16.94 -15.46,48.32 3,63.8 -25.75,-1.43 -43.41,-21.89 -62.52,-36.47 -18.6,-14.06 -38.95,-25.78 -60.3,-35.12 -11.17,-4.84 -23.37,-7.34 -33.74,-13.92 -34.88,-23.23 -59.16,-65.31 -53.42,-107.93 2.08,-21.42 13.35,-40.27 25.9,-57.18 -23.23,6.46 -40.36,27.04 -45.46,50.2 -5.62,18.11 -2.43,37.36 -6.29,55.68 -9.93,31.07 -23.35,61.07 -39.95,89.13 -13.99,23.38 -31.24,45.39 -54.3,60.38 6.77,2.57 13.6,5.05 20.39,7.6 -19.56,15.06 -44.41,21.58 -63.09,37.93 -9.36,7.98 -16.51,18.13 -23.39,28.23 -2.15,-5.57 -4.22,-11.17 -6.15,-16.79 -26.73,-4.65 -53.8,-7.1 -80.56,-11.54 23.21,-4.4 46.92,-6.12 70.31,-9.57 -12.79,-26.12 -31.18,-48.82 -49.29,-71.34 16.94,0.6 33.74,2.96 50.37,6.24 -23.85,-21.25 -48.01,-42.36 -74.41,-60.44 -6.13,-4.39 -13.03,-7.79 -20.64,-8.46 -49.89,-7.48 -100.3,-10.72 -150.27,-17.66 37.32,-4.59 75.01,-5.57 112.53,-7.86 -18.13,-10.6 -37.78,-18.42 -56.84,-27.18 -18.37,-8.58 -37.91,-14.37 -56.23,-23.07 3.45,-0.14 6.93,-0.19 10.38,-0.14 48.94,2.22 98.36,-1.5 145.91,-13.6 52.3,-13.51 102.22,-36.6 146.42,-67.65 -32.91,-4.69 -66.03,-7.6 -98.93,-12.24l0.21 -1.05c39.48,-0.19 78.94,-2.88 118.42,-3.79 7.55,0.64 12.63,-5.79 18.2,-9.77 24.9,-20.04 49.92,-42.86 82.11,-49.77 8.14,-2.34 15.32,3.55 22.25,6.81 19.94,10.53 40.74,23.19 64.14,21.97 -9.03,-4.81 -18.9,-7.77 -27.9,-12.56 -32.21,-16.22 -58.49,-43.26 -74.98,-75.21 -14.7,-27.36 -23.09,-57.69 -27.81,-88.28 5.82,3.65 11.46,7.58 16.97,11.7 -0.72,-18.11 -1.57,-36.29 0.04,-54.39zm24.04 56.06l0 0c1.67,26.71 4.6,55.51 21.47,77.43 -0.59,-11.05 -1.64,-22.49 2.65,-33 15.17,12.53 28.06,27.64 39.83,43.37 14.51,19.13 22.54,42.12 36.55,61.56 -3.28,-30.26 -9.93,-60.92 -24.8,-87.75 -16.65,-29.5 -49.75,-42.17 -75.7,-61.61zm129.95 171.76l0 0c1,4.95 2.29,9.86 3.15,14.87 5.1,25.32 -4.96,51.51 2.28,76.57 11.27,28.86 46.16,40.08 74.82,36.84 13.75,26.23 26.23,53.32 42.91,77.86 -8.67,-30.28 -18.99,-60.33 -33.31,-88.47 -3.93,-8.17 -0.69,-17.51 -1.48,-26.18 0.1,-27.61 -13.34,-54.28 -34.26,-71.98 8.86,15.01 16.94,30.95 19.37,48.44 -4.6,-6.53 -9.03,-13.72 -16.39,-17.46 -7.05,-4.58 -15.99,-4.13 -23.35,-7.63 -7.74,-9.96 -14.22,-21.08 -24.11,-29.16 -2.34,-5.15 -5.94,-9.53 -9.63,-13.7zm-294.18 175.88l0 0c39.79,7.89 79.3,17.13 119.04,25.16 8.05,-12.03 16.29,-23.94 24.54,-35.83 -47.84,3.48 -95.88,5.57 -143.58,10.67zm29.79 373.04l204.49 -0.09 -11.46 49.96 -38.81 -18.42 -85.77 0 -12.65 56.14 85.39 0 -4.62 21.25 -85.82 0.21 -19.93 87.35 -61.87 0 39.94 -174.94 -8.89 -21.46zm612.04 -0.09l91.95 0 -22.36 21.55 -32.85 144.16 91.65 0 41.25 -19.04 -11.25 49.82 -190.61 0 39.91 -174.94 -7.69 -21.55zm-248.87 0l203.53 0 -11.27 50.01 -27.21 -18.47 -97.59 0 -12.8 56.14 85.63 0 -4.57 21.32 -85.82 0.14 -13.01 56.57 85.92 0 46.98 -19.11 -11.34 49.89 -190.42 0 39.9 -174.94 -7.93 -21.55zm-118.63 0l74.15 0 -44.81 196.49 -61.5 0 39.91 -174.94 -7.75 -21.55zm-630.52 0l73.6 0.09 -44.8 196.4 -61.3 0 39.9 -174.94 -7.4 -21.55zm-523.12 0l219.98 0 -11.46 49.96 -38.82 -18.42 -85.77 0 -12.65 56.14 85.39 0 -4.62 21.25 -85.82 0.21 -19.92 87.35 -61.87 0 39.94 -174.94 -24.38 -21.55zm266.39 0l110.79 0c58.11,0.09 88.42,18.59 83.58,40.38l-35.74 156.11 -61.66 0 19.68 -87.49 -67.39 0.14 -19.93 87.35 -61.25 0 39.9 -174.94 -7.98 -21.55zm66.96 31.54l-12.81 56.14 67.67 0 12.75 -56.23 -67.61 0.09zm320.2 -31.54l114.35 0c55.22,0.07 86.05,17 82.73,31.54l-8.95 39.25c-0.66,2.88 -4.59,7.07 -7.26,7.93l-54.72 17.7c15.03,14.16 30.07,28.32 45.11,42.49 1.04,1.04 0.51,3.6 0.33,4.38l-12.13 53.2 -59.43 0 17.64 -77.34 -67.28 0 -17.64 77.34 -61.95 0 39.91 -174.94 -10.71 -21.55zm70.37 31.54l-12.8 56.14 67.28 0 12.81 -56.14 -67.29 0zm1094.64 0l-30.57 134.05 66.58 0 30.57 -134.05 -66.58 0z"/>
   <path class="fil3" d="M1213.97 701.09c3.69,4.17 7.29,8.55 9.63,13.7 11.55,25.35 3.74,55.7 18.51,79.98 9.08,15.13 27.85,19.75 44.36,20.11 2.6,4.81 5.2,9.63 7.75,14.49 -28.66,3.24 -63.55,-7.98 -74.82,-36.84 -7.24,-25.06 2.82,-51.25 -2.28,-76.57 -0.86,-5.01 -2.15,-9.92 -3.15,-14.87zm84.47 296.34c16.22,7.8 34.07,10.27 51.6,13.44 -8.55,5.2 -19.35,8.96 -29.19,5.46 -8.98,-4.17 -16.1,-11.44 -22.41,-18.9zm-195.26 -126.46c8.87,27.71 32.1,46.84 54.66,63.47 -6.43,37.29 -18.85,75 -43.79,104.17 -9.27,10.77 -20.68,19.7 -33.5,25.89 5.43,-12.98 9.43,-26.56 12.08,-40.38 -10.77,13.77 -20.45,28.57 -33.34,40.55 -14.93,13.92 -33.07,23.64 -51.01,33 3.41,-10.39 7.25,-20.66 10.08,-31.24 -17.42,7.8 -30.66,22.12 -42.91,36.29 -12.39,14.27 -22.8,30.05 -34.26,45.03 -0.74,-27.68 7.79,-56.08 26.09,-77.19 17.7,-21.14 42.17,-34.62 65.02,-49.32 13.51,-8.68 27.28,-18.73 33.83,-33.98 -9.39,0.86 -18.82,1.48 -28.16,2.6 19.01,-14.51 31.43,-35.5 42.36,-56.37 9.75,-19.95 18.52,-40.65 22.85,-62.52zm239.62 47.94c-2.07,-19.38 -4.27,-38.82 -3.98,-58.33 10.39,28.88 21.4,57.63 34.98,85.18 -6.01,-1.1 -13.2,-0.46 -15.47,6.29 -4,11.93 1.41,24.32 5.03,35.64 1.5,-5.34 2.81,-10.72 4.19,-16.08 4.53,0.95 10.08,5.41 9.11,10.29 -5.94,5.36 -11.13,14.11 -20.28,13.08 -11.63,0.43 -23.49,-0.62 -34.48,-4.6 -18.46,-15.48 -20.27,-46.86 -3,-63.8 6.12,-6.55 15.46,-7.34 23.9,-7.67zm-93.64 -162.16c2.86,0.57 5.72,1.16 8.6,1.74 -0.38,2.02 -1.12,6.05 -1.5,8.05 6.98,4.31 14.15,8.72 18.66,15.82 -6.46,-2.84 -12.99,-5.55 -19.73,-7.6 0.5,12.46 9.46,22.04 20.23,27.14 -9.2,0.35 -19.09,-3.82 -23.33,-12.35 -5.36,-10.05 -4.48,-21.92 -2.93,-32.8z"/>
  </g>
 </g>
</svg>
