<?xml version="1.0" encoding="UTF-8"?>
<!DOCTYPE svg PUBLIC "-//W3C//DTD SVG 1.1//EN" "http://www.w3.org/Graphics/SVG/1.1/DTD/svg11.dtd">
<!-- Creator: CorelDRAW -->
<svg xmlns="http://www.w3.org/2000/svg" xml:space="preserve" width="2000px" height="1600px" version="1.1" style="shape-rendering:geometricPrecision; text-rendering:geometricPrecision; image-rendering:optimizeQuality; fill-rule:evenodd; clip-rule:evenodd"
viewBox="0 0 2000 1600"
 xmlns:xlink="http://www.w3.org/1999/xlink">
 <defs>
  <style type="text/css">
   <![CDATA[
    .fil1 {fill:#005A9C}
    .fil2 {fill:#A80532}
    .fil0 {fill:#FEFEFE}
   ]]>
  </style>
 </defs>
 <g id="Capa_x0020_1">
  <metadata id="CorelCorpID_0Corel-Layer"/>
  <g id="Fairleigh_x0020_Dickinson_x0020_Knights.cdr">
   <path class="fil0" d="M1356.24 198.4c0,0 -10.24,-40.32 -34.56,-67.84 -23.68,-27.52 -40.32,-42.24 -75.52,-51.84 -35.2,-8.96 -64.64,-18.56 -64.64,-18.56 0,0 -33.28,-40.32 -51.2,-49.92 -14.72,10.88 -35.2,53.12 -44.16,81.28 -8.96,-18.56 -1.92,-49.92 3.84,-60.8 -18.56,-1.92 -99.84,16.64 -137.6,36.48 -32.64,17.28 -57.6,55.68 -53.76,85.12 3.84,29.44 20.48,58.88 35.2,64.64 -5.76,8.96 -20.48,44.16 -20.48,44.16l-112.64 42.24 -48 -27.52 -90.24 87.04 40.32 55.04c0,0 -12.8,22.4 -7.68,38.4 5.76,16.64 25.6,27.52 35.2,35.2 8.96,7.04 12.8,30.72 23.04,39.68 18.56,15.36 48.64,17.92 67.2,8.32 18.56,-8.96 44.16,-21.76 44.16,-21.76l94.08 1.92 3.84 20.48c0,0 -75.52,40.32 -113.92,81.28 -39.04,40.32 -126.08,132.48 -168.32,307.84 -22.4,12.8 -27.52,35.2 -27.52,60.8 0,16.64 7.68,30.72 14.72,40.32 8.96,12.8 -26.24,37.76 -43.52,48 -19.84,11.53 -35.2,40.96 -35.2,75.52 0,20.49 8.32,51.21 30.72,64l759.04 0c0,0 35.84,-29.44 33.92,-69.76 -1.28,-25.6 -9.6,-46.08 -29.44,-66.56 -19.84,-19.84 -48,-37.12 -40.32,-53.76 10.88,-5.76 17.92,-34.56 17.92,-49.92 0,-25.6 -22.4,-48 -40.32,-53.12 20.48,-5.76 88.32,-60.16 106.88,-122.24 -10.88,3.84 -20.48,7.04 -40.32,3.84 -17.92,-3.2 -37.76,-6.4 -44.16,-12.8 35.84,-6.4 60.16,-18.56 84.48,-53.12 21.12,-26.88 34.56,-60.8 39.04,-92.16 -15.36,5.12 -22.4,6.4 -40.32,4.48 -19.2,-2.56 -35.84,-3.84 -46.08,-16.64 35.84,-0.64 50.56,-12.16 66.56,-35.84 15.36,-23.04 17.28,-64.64 20.48,-89.6 -40.32,0.64 -69.76,-4.48 -88.32,-29.44 20.48,0 32,-17.92 44.8,-43.52 10.88,-21.12 16,-52.48 10.88,-76.8 -8.96,3.2 -16,5.76 -23.04,5.76 -7.04,0 -36.48,-0.64 -44.8,-9.6 12.8,0 24.96,-1.92 33.28,-2.56 7.68,-1.92 13.44,-7.04 17.28,-13.44 -14.72,-10.88 -36.48,-35.2 -47.36,-77.44 -10.88,-42.24 -24.96,-56.32 -35.84,-65.28l22.4 0z"/>
   <g>
    <path class="fil1" d="M1433.04 747.52c21.12,-26.88 35.84,-62.08 40.32,-96l2.56 -17.92 -14.08 4.48c-14.72,5.12 -19.84,5.76 -36.48,4.48l-5.76 -0.64c-4.48,-0.64 -7.68,-1.28 -11.52,-1.92 20.48,-5.76 32.64,-17.92 44.16,-35.84 14.72,-22.4 17.92,-57.6 20.48,-83.84l1.92 -19.84 -10.24 0c-34.56,0.64 -55.68,-3.84 -70.4,-15.36 16,-7.68 26.24,-25.6 35.84,-44.16 12.42,-24 18.76,-56.7 11.53,-83.2l-1.93 -10.24 -10.23 3.84c-7.04,2.56 -12.16,3.84 -17.28,4.48 4.48,-3.2 8.32,-7.04 10.88,-12.16l3.84 -7.04 -6.4 -5.12c-9.61,-7.04 -32.64,-28.16 -44.16,-72.32 -6.4,-24.96 -14.08,-40.96 -22.4,-52.48l14.72 1.28 -3.2 -12.16c-0.64,-1.92 -11.53,-42.88 -36.48,-71.68 -25.6,-30.08 -43.52,-44.8 -80,-54.4 0,0 -49.92,-14.08 -61.44,-17.92 -7.68,-8.96 -35.2,-40.96 -52.48,-49.92l-5.13 -1.92 -4.48 3.2c-10.24,7.68 -21.76,26.88 -31.36,47.36 1.28,-6.4 3.2,-12.16 5.12,-15.36l5.76 -12.16 -13.44 -1.28c-21.12,-1.92 -104.96,17.28 -143.36,37.76 -18.11,9.73 -33.53,24.45 -44.41,41.86 -8.84,14.08 -18.12,35.13 -13.83,52.22 3.2,27.52 16.64,54.4 32,66.56 -5.12,10.88 -12.16,26.24 -15.36,33.92 -6.4,2.56 -97.28,36.48 -104.32,39.68 -6.4,-3.84 -49.92,-28.8 -49.92,-28.8l-101.76 96.64c0,0 36.48,49.92 42.24,57.6 -6.08,12.16 -9.53,27.71 -5.12,40.96 5.12,16 20.48,26.88 31.36,34.56l6.4 4.48c2.56,1.92 5.76,9.6 8.32,15.36 3.85,8.96 7.68,18.56 14.72,24.32 20.48,16.64 54.4,21.12 76.8,9.6 0,0 33.92,-16.64 42.25,-21.12 3.84,0 71.67,1.28 83.83,1.92 0.64,3.2 0.64,3.84 1.28,6.4 -18.56,10.24 -77.44,44.16 -110.72,79.36 -37.76,39.68 -126.08,132.48 -169.6,308.48 -16.7,11.27 -25.34,29.57 -27.77,49.22 -2.95,23.1 2.05,43.39 14.97,62.78 0,4.48 -14.08,19.2 -40.32,35.2 -27.07,16.13 -39.17,51.07 -39.68,81.09 -0.45,27.33 10.31,60.03 35.2,74.43l1.92 1.28 764.8 0 2.56 -1.92c21.38,-21.37 37.12,-45.44 37.12,-76.8 -1.28,-28.8 -10.88,-51.2 -32,-72.32l-16.64 -15.36c-10.24,-8.96 -22.4,-19.84 -22.4,-26.24 13.32,-11.52 17.79,-33.85 19.01,-50.56 1.67,-22.78 -11.07,-44.48 -29.25,-57.6 30.72,-19.2 80,-66.56 95.36,-119.68l5.13 -17.28 -17.28 6.4c-8.96,3.2 -17.29,6.4 -35.85,3.2 -3.84,-0.64 -8.95,-1.28 -14.72,-2.56 21.76,-8.32 41.6,-21.76 60.8,-49.28zm-93.44 36.48l-17.28 3.2 12.8 12.8c8.13,8.13 21.76,10.31 32.51,12.42 14.6,2.81 28.74,4.92 43.65,3.58 -23.68,53.76 -80,96.64 -94.08,100.48l-30.72 8.32 30.72 8.96c16.07,5.12 30.08,21.06 33.22,37.51 1.85,9.79 -0.06,20.35 -2.75,29.82 -1.48,5.25 -3.84,16.26 -9.35,19.08l-3.2 1.28 -1.28 3.2c-8.32,20.73 13.19,37.44 26.88,49.28l16 14.72c17.92,17.92 25.6,36.47 26.89,60.16 0,23.1 -11.2,44.73 -28.16,60.16l-752.65 -0.01c-19.01,-12.22 -25.92,-39.42 -24.83,-60.73 1.22,-22.47 10.24,-49.8 30.59,-62.15 13.44,-8.32 45.44,-28.8 49.28,-47.36 0,-5.57 0.51,-9.02 -2.56,-14.08 -11.52,-16.89 -14.84,-34.56 -11.33,-54.59 2.44,-13.82 9.03,-26.05 21.57,-33.09l3.2 -1.92 0.64 -3.84c41.6,-174.72 128.64,-265.6 165.76,-304 37.12,-39.04 111.36,-78.72 112,-79.36l5.76 -3.2 -6.4 -34.56 -103.68 -1.92 -46.08 23.04c-14.72,7.04 -40.32,6.4 -56.96,-7.04 -3.84,-3.2 -7.04,-10.24 -9.6,-17.28 -3.84,-8.96 -7.68,-17.28 -14.08,-22.4l-7.04 -5.12c-8.96,-6.4 -21.12,-14.72 -24.96,-25.6 -3.26,-9.79 2.18,-22.91 7.04,-31.36l3.2 -5.12 -3.84 -5.12c0,0 -28.16,-38.4 -35.84,-48.64 9.6,-8.96 71.04,-68.48 79.36,-76.16 8.95,5.12 45.43,26.24 45.43,26.24l120.33 -44.8 1.27 -3.84c3.85,-9.6 15.37,-35.84 19.85,-42.88l5.75 -9.6 -10.23 -3.84c-9.6,-3.84 -25.6,-27.52 -28.8,-56.96 0,-32.13 21.63,-61.06 49.28,-76.16 30.72,-16.64 91.52,-31.36 120.32,-35.2 -5.12,16.7 -6.72,38.97 1.28,55.04l9.6 19.84 7.04 -20.48c8.32,-25.6 24.96,-58.88 36.48,-72.32 14.08,10.24 35.2,34.56 43.52,44.16l1.92 1.92 67.2 19.2c32,8.32 47.36,21.12 71.04,48.64 14.72,16.64 23.68,38.4 28.16,51.84 -5.76,-0.64 -39.68,-3.2 -39.68,-3.2l22.4 18.56c10.24,8.96 22.4,21.76 32.64,60.8 10.88,40.96 30.72,64.64 43.52,76.16 -1.92,1.92 -3.84,2.55 -6.4,3.2 -1.28,0 -4.48,0.64 -4.48,0.64l-45.44 3.84 11.52 14.08c12.16,13.44 47.36,13.44 51.84,12.8 5.12,0 9.6,-1.28 15.36,-2.56 0,10.81 0.51,20.8 -1.54,31.55 -1.85,9.86 -4.86,19.58 -9.34,28.61 -12.16,24.32 -22.4,38.4 -37.12,38.4l-17.92 0 10.88 14.72c20.48,27.52 52.48,33.28 85.76,33.28 -2.56,23.68 -5.76,56.32 -17.92,74.88 -14.08,21.12 -25.59,30.72 -58.88,32l-18.56 0.64 11.52 14.72c11.53,14.72 28.17,16.64 46.08,19.2l5.76 0.64c12.8,1.28 21.12,1.28 29.44,-0.64 -5.76,26.24 -17.28,52.48 -33.92,73.6 -24.32,34.56 -46.72,44.16 -79.36,49.92zm-87.04 -396.8c-22.4,-44.16 -27.52,-79.36 -29.44,-112.64 -1.28,-33.28 -7.04,-79.36 -7.04,-79.36l-29.44 49.92c7.68,-42.24 3.84,-158.72 -56.96,-199.04 -18.56,16.64 -25.6,97.92 -16.64,136.32 -5.76,-13.44 -17.92,-29.44 -30.72,-37.12 -34.56,-22.4 -41.6,-56.32 -19.2,-84.48 -14.72,-2.56 -65.92,12.16 -100.48,34.56 -64,39.68 -33.28,101.12 -5.76,108.16 27.52,7.68 50.56,3.85 50.56,3.85l56.32 -10.89 5.76 16.64 -123.52 25.6 -20.48 40.32 -129.28 49.92 -42.24 -21.76 -63.36 64.64 49.92 44.16 72.32 -15.36 14.72 37.12 -62.72 18.56 -14.72 -14.72 39.68 -17.92c0,0 -39.04,1.92 -49.92,5.76 -10.88,3.84 -19.84,18.56 -10.88,31.36 8.96,12.8 25.6,20.48 25.6,33.28 0,12.8 25.6,31.36 46.08,29.44 20.48,-1.92 39.04,-18.56 51.84,-29.44 9.6,1.28 127.36,7.04 127.36,7.04l7.04 48c0,0 -46.08,31.36 -73.6,49.92 -27.52,18.56 -123.52,131.2 -147.2,184.32 -23.68,53.12 -49.28,108.8 -55.04,136.32l302.08 0c0,0 -46.08,-33.28 -38.4,-90.24 7.04,-56.96 27.52,-103.04 51.2,-130.56 0,40.32 35.84,84.48 76.16,86.4 40.32,1.92 75.52,-30.72 107.52,-80 29.44,-45.44 54.4,-101.76 61.44,-159.36 7.04,-57.6 3.84,-114.56 -18.56,-158.72zm-305.28 -106.88l69.12 -19.84c0,0 14.72,-3.84 -6.4,25.6 -21.12,29.44 -52.48,16 -62.72,-5.76zm19.84 434.56l129.28 -232.96c0,0.64 -39.04,11.52 -64.64,9.6 37.12,-10.88 96,-29.44 97.92,-62.72 12.8,33.28 -162.56,286.08 -162.56,286.08zm39.04 307.2l307.84 0c0,0 16.64,-14.72 16.64,-37.12 0,-22.4 -16.64,-37.12 -16.64,-37.12l-307.84 0 -307.84 0c0,0 -16.64,14.72 -16.64,37.12 0,21.76 16.64,37.12 16.64,37.12l307.84 0zm0 165.76l360.96 0c0,0 16.64,-14.72 16.64,-37.12 0,-22.4 -16.64,-37.12 -16.64,-37.12l-360.96 0 -372.48 0c0,0 -16.64,14.72 -16.64,37.12 0,22.4 16.64,37.12 16.64,37.12l372.48 0 0 0zm4.48 -94.08l352.64 0c-45.44,-25.6 -48,-49.28 -48,-49.28l-304.64 0 -312.32 0c0,0 -3.84,29.44 -51.2,49.28l363.52 0zm182.4 -992.64c47.36,-3.84 110.72,24.32 122.88,76.16 -26.88,-9.6 -37.12,-22.4 -66.56,-12.16 17.28,5.12 63.36,8.96 83.84,83.2 19.84,73.6 51.2,86.4 51.2,86.4 0,0 -42.24,12.8 -65.92,-0.64 -19.2,-10.88 -39.04,-33.28 -39.04,-33.28 0,0 -3.84,12.8 18.56,37.76 39.04,42.24 97.28,46.08 113.92,46.08 -5.76,22.4 -7.04,62.72 -38.4,69.76 -31.36,7.04 -45.44,-9.6 -55.04,-17.28 14.72,44.8 58.88,96 124.8,92.8 -5.12,46.72 -33.28,85.12 -62.72,83.2 -29.44,-2.56 -39.04,-14.72 -56.96,-35.2 0,27.52 22.4,103.04 110.72,94.08 -15.36,37.12 -71.68,154.24 -179.84,62.72 9.6,37.12 54.4,92.16 129.92,90.24 -21.76,29.44 -78.08,88.96 -142.08,88.96l-204.16 0c0,0 -81.28,-46.72 -17.28,-169.6 19.84,71.04 72.32,66.56 108.8,62.08 37.12,-5.12 62.72,-40.32 87.04,-72.32 24.32,-32 56.96,-87.68 64,-136.96 7.04,-49.28 24.32,-83.84 14.72,-152.32 -9.6,-68.48 -44.8,-115.2 -48.64,-147.2 -4.48,-34.56 -1.92,-72.32 -14.72,-112 -12.16,-37.76 -25.6,-66.56 -39.04,-84.48l0 0zm385.73 1255.36c-8.64,-41.41 -26.88,-80.38 -54.85,-112.32 0,-6.78 3.91,-14.91 5.63,-21.44 1.99,-7.36 3.91,-14.78 5.76,-22.21 3.84,-15.29 7.75,-30.65 11.65,-45.95 0,-5.38 2.75,-10.69 4.22,-15.81 1.92,-6.84 3.59,-13.82 5.38,-20.67 -3.71,-6.72 -6.01,-16.89 -11.52,-22.4 -9.22,-18.49 -20.03,-35.97 -30.72,-53.76 0,0 -7.04,19.84 -11.52,30.72 -12.03,-9.98 -26.63,-16.13 -42.43,-14.97 -16.71,1.21 -32.9,8.77 -45.76,19.32 -23.94,19.72 -36.74,50.05 -41.16,80.13l-9.6 -2.56 -1.91 0c0,-19.9 2.37,-39.29 5.76,-58.88 0,0 -20.48,-5.76 -21.76,-5.76 -10.82,-5.38 -22.98,-7.68 -34.56,-10.88 -4.48,17.99 -8.77,36.29 -18.76,52.16 -4.09,6.53 -8.89,12.99 -15.04,17.67 -7.42,5.63 -16.32,6.72 -25.08,8.89 -17.67,-26.43 -50.18,-32.25 -78.08,-19.2l0 -16.64c3.2,-1.28 10.23,-4.48 10.23,-4.48l0 -69.76c-28.35,11.97 -56.76,23.94 -85.12,35.84 -3.96,0 -10.11,4.1 -13.69,5.44 -5.89,2.24 -11.78,4.48 -17.67,6.72l0 3.84c-23.17,-2.75 -45.89,1.54 -54.4,26.24 -36.99,-4.6 -74.69,7.17 -93.44,41.6l0 -37.12c4.8,-16.89 0.83,-37.05 -13.69,-47.93 -13.44,-10.05 -32.77,-11.65 -48.13,-5.57 -28.16,11.14 -46.47,47.55 -28.42,74.62 -8.32,3.84 -16,6.4 -16,6.4l0 8.32c-14.98,-32.96 -56.58,-41.21 -85.76,-21.76l0 -23.68c-20.8,11.27 -41.73,22.34 -62.72,33.28 -0.64,0 -14.72,8.32 -16,8.96 -0.64,0.64 -28.16,14.08 -28.16,14.08 3.13,29.83 1.28,60.29 1.28,90.24 0,0 5.76,-5.12 10.24,-8.96l0 84.48c-0.65,0.64 -1.28,0.64 -1.28,0.64 -3.2,-8.96 -6.4,-17.92 -6.4,-17.92 0,0.64 -14.72,-41.6 -14.72,-41.6 0,-5.18 -3.52,-10.36 -5.19,-15.1 -2.62,-7.49 -5.05,-15.1 -7.55,-22.59 -4.8,-14.4 -9.28,-28.93 -13.44,-43.59 5.83,-10.49 10.82,-21.44 16.64,-32 0,-4.22 3.84,-8.38 5.89,-11.77 3.13,-5.18 5.5,-10.69 8.83,-15.75l21.77 0 0 -79.36c-30.33,0 -60.61,1.28 -90.88,1.28l0 -0.64c-44.35,1.28 -88.77,1.86 -133.12,3.2l0 94.08 13.44 0 0 312.96c-2.56,5.12 -9.53,9.92 -13.44,14.08l0 111.36c33.54,-32.83 66.37,-65.98 103.04,-95.36 8.96,-8.96 20.67,-15.93 30.72,-23.68l0 -4.48c0,0.64 0.64,2.56 0.64,2.56 24.07,-15.42 47.87,-31.36 73.03,-44.99 11.9,-6.47 24.06,-12.55 36.22,-18.5 6.46,-3.13 12.93,-6.33 19.45,-9.34 3.97,-1.86 10.31,-6.53 14.72,-6.53 53.38,-22.85 110.15,-39.42 167.04,-50.56 6.28,0 12.48,-1.79 18.63,-2.69 5.76,-0.83 11.64,-1.21 17.21,-3.07 1.28,0 36.48,-3.84 36.48,-3.84l0 -7.68c1.28,1.28 3.2,3.84 5.12,5.12 -3.45,17.28 1.86,35.78 14.98,47.81 14.4,13.18 35.33,16.7 54.21,16.83 36.92,0.32 80.64,-15.87 83.77,-58.24 23.87,3.65 48.19,6.27 71.68,12.16l0 0.64c0,0 33.28,7.68 34.56,7.68 1.28,0.64 34.56,10.24 35.84,10.24 1.28,0.64 46.72,17.92 46.72,17.92l0 -14.08c8.07,16.9 23.04,29.5 40,36.99 19.91,8.77 41.28,5.63 59.84,-4.99 15.94,36.16 29.13,74.69 51.91,107.39 9.86,14.08 22.21,27.2 38.08,34.31 16.7,7.48 36.29,7.8 53.31,1.21 31.36,-12.09 50.95,-43.58 59.39,-74.81 10.37,-38.72 6.73,-82.63 -1.34,-121.54zm-753.09 -67.52l-3.2 0 0 -67.2c1.28,-0.64 1.92,-1.28 3.2,-1.92l0 69.12zm95.36 -13.44l0 -16.64c3.2,4.48 6.4,8.96 10.24,12.8 -3.2,1.28 -7.04,2.56 -10.24,3.84zm157.44 4.48l-10.88 0 0 12.8c-3.2,-3.2 -6.4,-5.76 -10.88,-8.32 8.32,-5.12 16,-12.16 21.76,-20.48l0 16zm304 58.88l-2.56 -6.4c0,0 -11.52,5.76 -17.92,8.96 0,-35.84 0,-71.68 0,-107.52 3.84,0.64 11.53,2.56 16.01,3.2 5.12,21.12 12.8,40.32 21.76,58.24 -4.93,14.78 -11.85,28.93 -17.29,43.52z"/>
   </g>
   <g>
    <path class="fil0" d="M1512.4 1247.36c1.28,-3.84 9.6,-37.12 9.6,-37.12l7.04 -28.16 7.68 -30.08 1.92 -7.68 6.4 -25.6 -1.92 -3.2 -3.84 -8.32c-0.64,-0.64 -4.48,-8.32 -4.48,-8.32l-3.84 -7.68 0 -0.64 -15.36 -25.6 -7.68 20.48c0,0 -1.92,5.12 -1.92,5.76 -10.88,-12.8 -24.32,-24.32 -39.68,-24.32 -40.96,0 -85.12,36.48 -85.12,116.48 0,43.52 12.8,80 28.8,111.36 -3.2,7.68 -13.44,33.92 -13.44,33.92l-1.28 3.2 -7.68 19.2c0,0 -4.48,9.6 -5.12,11.52 0,0.65 -1.92,3.21 -3.84,5.76 -0.64,-1.28 -0.64,-2.55 -0.64,-2.55l-5.12 -17.92 -11.52 5.76c-2.56,1.27 -3.85,0.64 -4.48,0.64 -0.65,-0.64 -5.76,-3.2 -5.76,-13.44l0 -119.68c1.28,0.64 3.2,0.64 3.2,0.64l17.28 3.84 1.92 -21.76c0,0 0.64,-7.68 0.64,-8.32l0 -0.64 1.28 -8.96 0 1.92 3.2 -17.92 -17.28 -4.48 -7.04 -0.65c0,0 -1.92,-0.64 -3.2,-0.64l0 -8.96c0,-12.8 1.28,-32.64 2.56,-42.24l1.92 -9.6c0,0 -12.16,-3.2 -13.44,-3.2 -0.64,-0.64 -8.96,-3.84 -8.96,-3.84l-15.36 -3.84 -2.56 10.24c-8.32,30.72 -27.52,56.96 -45.44,61.44l-7.68 1.92 0 39.68 11.53 1.92c0,0 1.27,0 2.55,0.64l0 115.84c0,42.88 13.44,67.84 42.88,81.28 24.32,12.16 46.08,0 60.16,-10.24l1.28 -0.64 14.72 33.28c16.64,40.32 33.92,81.92 56.32,101.76 17.28,17.28 41.6,23.04 64,13.44 28.16,-11.52 58.24,-47.36 58.24,-113.28 1.28,-96.64 -29.44,-147.84 -61.44,-182.4l0 0zm-23.68 204.8c-23.68,-21.12 -46.08,-84.48 -61.44,-129.28 7.68,11.52 15.36,23.04 22.4,33.28 21.76,31.36 40.32,58.24 40.32,84.48 -0.64,5.76 -0.64,8.96 -1.28,11.52l0 0zm-676.48 -248.32c0,-22.4 -5.76,-39.04 -17.28,-49.92 -8.96,-8.32 -21.76,-12.16 -36.48,-10.88 -16,1.28 -28.16,10.24 -39.04,21.76l0 -27.52 -15.36 8.32 -16 8.32 -16 8.32 -16.64 8.96 -16 7.68 -5.76 2.56 0.64 6.4 0 55.68c0,0 5.12,-4.48 10.24,-8.96l0 124.16 -0.64 0 0 -10.24c0,0 -16,8.96 -17.28,9.6 -4.48,-11.52 -10.88,-29.44 -10.88,-29.44l-14.72 -41.6 -14.72 -44.16c0,0 -9.6,-30.72 -12.8,-41.6 2.56,-5.12 8.32,-16.64 8.32,-16.64l10.24 -19.2 10.24 -19.2c0,0 4.48,-7.68 7.68,-12.8 0.64,0 0.64,0 1.28,0l16 0 0 -58.24 -10.24 0 -16.64 0c-0.64,0 -16.64,0.64 -16.64,0.64l-16 0c-0.64,0 -26.88,1.28 -26.88,1.28l0 64.64c0,0 2.56,-0.64 4.48,-1.28 -1.28,3.2 -3.84,7.04 -3.84,7.04 0,0.64 -13.44,28.16 -13.44,28.16 0,0 -3.2,7.68 -7.04,15.36l0 -49.28c0.64,0 1.28,0 1.92,0l14.08 0 0 -65.28 -56.96 1.28 -23.04 0 -33.28 0.64 0 73.6 13.44 0 0 328.32c-0.64,0.64 -3.2,3.2 -3.2,3.2l-3.2 2.56 -0.64 0.64 -6.4 6.4 0 82.56 40.32 -39.68c-0.64,0 22.4,-20.48 22.4,-20.48 -0.64,0 23.04,-18.56 23.04,-18.56l23.04 -17.28 3.84 -3.2 0 -67.84c0,0 -14.72,8.96 -15.36,8.96l0 -66.56c0.64,1.92 1.28,3.84 1.28,3.84l6.4 24.32c0,0.64 10.88,36.48 10.88,36.48l14.72 48.64 29.44 -19.2 18.56 -11.52c0,0 17.28,-10.24 17.92,-10.24 0,0 8.96,-4.48 15.36,-8.32l32.64 -16.01 18.56 -8.32 18.56 -7.68 25.6 -9.6c3.84,-1.28 28.16,-9.6 28.16,-9.6l37.12 -10.88 26.88 -6.4 0 -43.52c0,0 -7.04,1.28 -10.24,1.92l0 -101.12 -0.64 0.01zm670.08 14.08c-21.12,-19.2 -35.84,-32.64 -35.84,-52.48 0,-7.04 2.56,-11.52 4.48,-13.44 12.16,5.12 28.8,45.44 39.04,72.32 -2.56,-1.92 -5.12,-4.48 -7.68,-6.4zm-224.64 108.8c-0.64,-1.28 -0.64,-1.28 -1.28,-1.28l0 -115.2c0,-31.36 -12.8,-65.92 -49.28,-69.12 -17.92,-1.28 -30.72,5.12 -43.52,14.72l0 -42.24 0.64 0 10.24 -4.48 0 -46.72 -14.72 5.76 -56.32 23.68 -18.56 7.04 -6.4 2.56 0 8.32 -21.76 -2.56 -0.64 0c-19.84,0 -30.08,7.04 -34.56,25.6l-0.64 3.2c-6.4,-1.28 -14.08,-2.56 -24.96,-2.56 -36.48,0 -76.16,25.6 -76.16,82.56 0,28.8 14.72,48.64 33.28,59.52 -10.24,3.84 -20.48,7.68 -30.72,10.88l-4.48 1.28c-1.92,0.64 -5.12,1.28 -7.04,1.28l0 -158.72 -1.28 0.64c1.92,-4.48 3.2,-9.6 3.2,-16 0,-9.6 -3.84,-32 -35.84,-32 -19.2,0 -41.6,18.56 -41.6,41.6 0,13.44 5.12,21.12 8.96,24.96 1.92,1.92 3.84,2.56 5.76,3.84 -10.88,4.48 -23.68,10.24 -23.68,10.24l0 44.8c0,0 5.76,-3.2 10.24,-5.12l0 96.64 -10.88 0 0 45.44 30.72 -6.4 17.92 -3.2 18.56 -3.2c-0.64,0 17.92,-1.92 17.92,-1.92l9.6 -0.64 0 -24.32 1.92 1.92 5.12 5.12 4.48 5.12c0,0.65 9.6,10.24 9.6,10.24l5.76 -1.28c1.92,-0.64 3.84,-0.64 5.12,-0.64 -3.84,5.76 -7.04,12.8 -7.04,20.48 0,20.48 10.88,44.16 62.72,44.16 32.65,0 71.05,-14.08 71.05,-53.12 0,-17.92 -8.96,-39.67 -45.44,-52.48 25.6,-10.24 49.92,-28.8 49.92,-71.68 0,-21.76 -7.04,-35.84 -14.08,-45.44 1.28,-5.75 2.56,-11.52 2.56,-11.52l1.92 -8.96 1.28 -8.32 1.92 -8.96c0,0 1.92,-8.96 2.56,-14.72l0 32c0,0 6.4,-3.2 10.88,-5.12l0 149.12 -10.89 0 0 40.96 27.52 3.84 18.56 3.2 18.56 3.84c0,0 23.04,4.48 26.88,5.12l0 0.65 26.88 5.75 17.92 5.13 18.56 5.12 18.56 7.04 14.08 5.12 0 -46.09 -9.6 -4.48zm-250.24 -80.64c-13.44,0 -19.2,-37.12 -19.2,-50.56 -0.64,-12.16 2.56,-16.64 8.96,-16.64 13.44,0 19.2,37.12 19.2,50.56 0,12.16 -2.56,16.64 -8.96,16.64zm174.08 59.52c-1.28,0 -3.84,-0.64 -6.4,-1.28l0 -0.64c0,0 -10.88,-1.92 -11.52,-1.92l0 -90.88c3.2,-4.48 6.4,-7.04 8.96,-6.4 5.12,0.64 8.96,1.28 8.96,17.92l0 83.2zm-454.4 23.04c-3.2,0.64 -6.4,1.28 -8.32,1.92l0 -101.76c5.12,-7.04 10.24,-12.8 15.36,-14.08 0,0 1.28,0 1.92,0.64 0.64,0.64 1.28,1.92 1.28,4.48l0 103.68 -1.28 0.64c0,0 -8.32,3.84 -8.96,4.48z"/>
   </g>
   <path class="fil2" d="M621.52 1373.44c-21.89,-56.51 -41.15,-113.53 -58.88,-171.52 12.99,-25.98 26.56,-51.58 40.96,-76.8 4.29,0 8.45,-0.64 12.8,-0.64 0,-12.8 0,-25.6 0,-38.4 -21.57,0 -43.13,0.45 -64.64,1.28 0,13.89 0,27.71 0,41.6 3.84,-1.34 9.35,-1.28 13.44,-1.28 -20.03,36.42 -37.44,74.05 -54.4,112 0,-36.03 0,-72.13 0,-108.16 4.99,-0.83 10.3,-1.28 15.36,-1.28 0,-14.72 0,-29.44 0,-44.16 -30.72,0.83 -61.44,1.09 -92.16,1.92 0,17.73 0,35.39 0,53.12 4.42,0.32 9.09,-1.21 13.44,-1.92 0,90.11 0,180.23 0,270.34 0,25.09 0,50.17 0,75.26 -4.55,3.78 -9.09,8.19 -12.8,12.8 0,17.92 0,35.84 0,53.76 29.31,-28.48 60.54,-54.08 91.52,-80.64 0,-14.72 0,-29.44 0,-44.16 -5.25,3.52 -10.11,7.42 -15.36,10.88 0,-39.87 0,-79.81 0,-119.68 1.79,-6.21 4.48,-11.97 7.04,-17.92 13.95,49.15 27.13,98.37 42.24,147.2 23.87,-15.29 47.8,-29.82 72.96,-42.88 0,-12.35 0,-24.76 0,-37.12 -3.77,2.24 -7.62,4.48 -11.52,6.4zm897.28 -284.16l-1.92 5.76 -1.92 7.04 -1.92 6.4 -1.92 6.4c-12.8,-21.12 -28.8,-37.76 -44.16,-37.76 -37.12,0 -74.88,35.2 -74.88,105.6 0,125.44 107.52,186.88 107.52,257.28 0,25.6 -7.68,29.44 -16,21.12 -27.52,-21.76 -52.48,-94.72 -69.76,-145.92 -1.92,6.4 -5.12,13.44 -7.68,19.2l-7.68 18.56 -5.76 12.81 -6.4 10.23c23.04,48 44.8,118.4 73.6,144 37.76,39.04 104.96,2.56 104.96,-92.16 0,-194.56 -128.64,-197.76 -128.64,-263.68 0,-14.08 8.32,-24.96 14.08,-24.32 21.12,3.2 40.32,56.32 55.04,94.72l7.68 -28.16 7.04 -27.52 7.68 -30.08c2.56,-8.96 5.76,-19.2 7.68,-28.8l-3.84 -8.32 -4.48 -7.68 -3.84 -8.32 -4.48 -6.4zm-151.68 273.92c-8.96,5.12 -18.3,0.32 -22.59,-8.19 -3.07,-6.15 -3.01,-12.93 -3.01,-19.65 0,-10.11 0,-20.16 0,-30.27 0,-21.32 0,-42.69 0,-64 0,-10.94 0,-21.89 0,-32.77 7.17,0.89 14.08,2.94 21.12,4.48 0.77,-11.84 2.05,-23.49 3.84,-35.2 -8.32,-2.31 -17.02,-3.52 -25.6,-4.48 0,-20.93 -1.34,-42.82 3.2,-63.36 -6.08,-1.73 -11.9,-4.03 -17.92,-5.76 -8.96,33.28 -30.08,62.72 -53.12,69.12 0,7.49 0,14.91 0,22.4 5,1.02 9.99,0.96 14.72,2.56 0,31.61 0,63.23 0,94.84 0,10.18 0,20.36 0,30.6 0,21.05 3.07,44.48 18.95,59.84 7.68,7.42 18.49,13.57 29.05,15.29 14.27,2.31 27.65,-4.54 39.04,-12.47 -2.56,-7.62 -4.8,-15.36 -7.68,-22.98zm-120.96 -30.08c0,-25.28 0,-50.56 0,-75.84 0,-13.5 0,-27.01 0,-40.51 0,-18.75 -1.47,-39.75 -15.1,-54.08 -9.73,-10.18 -24.26,-13.25 -37.76,-10.43 -16.19,3.39 -28.61,15.29 -39.87,26.62 0,-23.87 0,-47.8 0,-71.68 3.32,-1.66 7.04,-2.68 10.24,-4.48 0,-7.87 0,-15.8 0,-23.68 -24.71,10.24 -49.28,20.61 -74.25,30.08 0,7.04 0,14.08 0,21.12l10.24 -3.84 0 176 -10.24 -1.28c0,0 0,14.08 0,21.12 25.35,3.52 50.31,8.45 75.53,12.8 0,-7.23 0,-14.53 0,-21.76 -3.85,-0.77 -7.68,-1.6 -11.53,-2.56 0,-34.56 0,-69.12 0,-103.68 5.06,-7.55 12.16,-14.98 22.02,-13.18 6.79,1.21 12.16,4.99 14.72,11.45 4.16,10.56 2.37,24.32 2.37,35.46 0,17.02 0,77.63 0,77.63l-10.88 -2.56c0,0 0,14.53 0,21.76 25.47,6.15 50.24,13.38 74.88,22.4 0,-7.87 0,-23.68 0,-23.68l-10.37 -3.2zm-199.55 -30.72c-15.55,-9.4 -34.18,-12.99 -51.97,-15.36l0 -0.64c14.92,-4.35 30.21,-7.87 44.16,-14.97 12.23,-6.21 22.59,-15.36 28.29,-28.04 7.04,-15.68 7.55,-35.45 2.63,-51.77 -3.65,-11.97 -10.76,-21.25 -19.33,-30.02 -1.79,-1.79 -4.61,-3.97 -5.12,-6.66 -0.83,-4.41 2.56,-8.51 6.85,-7.74 3.84,0.7 6.33,3.71 8.44,6.72 1.86,-8.7 3.27,-17.54 5.13,-26.24l0.64 -8.96c-9.28,-1.09 -21.51,-3.52 -29.12,3.58 -6.4,5.96 -7.68,17.61 -9.28,25.86 -16.2,-2.5 -31.49,-6.53 -47.94,-2.75 -29.89,6.91 -47.68,33.02 -49.73,62.78 -2.3,32.77 16.9,61.06 50.31,66.05l0 0.64c-18.56,7.68 -37.12,16 -56.32,21.12 6.72,6.72 13.5,13.38 19.84,20.48 12.16,-3.2 23.04,-1.92 39.68,0l0 0.64c-26.05,2.76 -38.79,37.76 -16.64,54.02 14.84,10.88 37.82,10.75 55.36,8.26 17.08,-2.44 36.29,-9.67 43.13,-27.01 7.81,-19.72 -1.73,-39.49 -19.01,-49.99zm-69.25 -114.56c0.64,-16 5.12,-22.4 16,-22.4 21.76,0 30.72,51.2 30.72,69.76 0,16 -4.48,23.04 -15.36,23.04 -21.76,0 -31.36,-51.2 -31.36,-70.4zm31.36 176.64c-8.32,0 -12.16,-9.6 -12.16,-17.92 0,-7.68 1.28,-16.64 5.76,-23.04 10.24,7.04 17.92,12.8 17.92,28.16 0,8.32 -3.84,12.8 -11.52,12.8zm-163.84 -240c0,15.36 8.32,22.4 19.84,21.76 14.72,-0.64 37.12,-8.96 37.12,-31.36 0,-17.92 -12.8,-21.76 -25.6,-21.76 -12.16,0 -31.36,14.08 -31.36,31.36zm55.04 176.64c0,-52.03 0,-104.13 0,-156.16 -21.63,7.81 -42.94,16.32 -64,25.6 0,7.04 0,14.08 0,21.12 3.52,-1.85 7.04,-2.88 10.88,-3.84 0,40.32 0,80.64 0,120.96 -3.71,-0.32 -7.17,1.66 -10.88,1.28 0,7.49 0,14.91 0,22.4 24.26,-5.18 48.9,-8.96 73.6,-11.52 0,-7.04 0,-14.08 0,-21.12 -3.01,0.64 -6.78,0 -9.6,1.28zm-96.64 17.92c0,-25.47 0,-50.94 0,-76.41 0,-12.48 0.06,-25.03 0,-37.51 -0.06,-16.06 -2.56,-35.65 -17.15,-45.38 -11.27,-7.48 -27.27,-6.97 -39.04,-1.15 -15.17,7.55 -26.05,22.21 -36.61,34.95 0,-12.35 0,-24.77 0,-37.12 -21.38,11.13 -42.62,23.48 -64.64,33.28 0,10.43 0,20.92 0,31.36 1.34,-1.54 7.04,-3.72 7.04,-5.76l2.56 -1.28c0,38.78 0,77.57 0,116.35 0,12.42 0,24.83 0,37.25 -3.33,0.64 -6.92,2.49 -9.6,4.48 0,8.96 0,17.92 0,26.88 24.45,-11.84 49.47,-22.15 74.24,-33.28 0,-7.87 0,-15.81 0,-23.68 -3.59,0.7 -7.74,2.05 -10.88,3.84 0,-30.02 0,-60.03 0,-90.05 0,-9.47 0,-18.94 0,-28.35 5.82,-7.94 13.18,-18.75 23.68,-20.48 8.57,-1.41 14.53,5.31 15.3,13.37 0.89,9.61 0.06,19.65 0.06,29.32 0,18.11 0,36.22 0,54.33 0,9.67 0,19.33 0,29.06 -3.33,0.64 -7.3,2.18 -10.24,3.84 0,7.68 0,15.36 0,23.04 24.77,-7.68 49.79,-14.46 74.88,-21.12 0,-7.23 0,-14.53 0,-21.76 -3.14,1.21 -6.4,0.83 -9.6,1.98z"/>
  </g>
 </g>
</svg>
