<?xml version="1.0" encoding="UTF-8"?>
<!DOCTYPE svg PUBLIC "-//W3C//DTD SVG 1.1//EN" "http://www.w3.org/Graphics/SVG/1.1/DTD/svg11.dtd">
<!-- Creator: CorelDRAW -->
<svg xmlns="http://www.w3.org/2000/svg" xml:space="preserve" width="2000px" height="1600px" version="1.1" style="shape-rendering:geometricPrecision; text-rendering:geometricPrecision; image-rendering:optimizeQuality; fill-rule:evenodd; clip-rule:evenodd"
viewBox="0 0 2000 1600"
 xmlns:xlink="http://www.w3.org/1999/xlink">
 <defs>
  <style type="text/css">
   <![CDATA[
    .fil0 {fill:black;fill-rule:nonzero}
    .fil2 {fill:#D21145;fill-rule:nonzero}
    .fil3 {fill:#FEFEFE;fill-rule:nonzero}
    .fil1 {fill:#FFC422;fill-rule:nonzero}
   ]]>
  </style>
 </defs>
 <g id="Capa_x0020_1">
  <metadata id="CorelCorpID_0Corel-Layer"/>
  <g id="Ferris_x0020_State_x0020_Bulldogs_x0020_.cdr">
   <path class="fil0" d="M965.61 0l7.93 0c10.46,1.4 19.73,7.52 25.42,16.36 19.66,28.47 35.2,59.51 52.12,89.65 32.15,-9.42 69.41,-12.69 98.75,6.58 12.54,-3.1 25.17,-6.27 38.07,-7.72 11.15,-1.22 21.87,3.46 32.97,3.38 18.21,-9.5 32.15,-25.7 42.31,-43.3 11.76,-18.85 24.36,-37.98 42.16,-51.67 17.05,-13.69 41.18,-6.37 58.27,3.43 22.48,-3.25 47.22,-5.25 67.79,6.33 19.1,11.91 33.8,29.69 45.72,48.53 11.1,17.94 25.67,33.3 40.15,48.52 15.9,17.62 38.38,27.02 56.06,42.56 0.25,2.77 0.48,5.57 0.68,8.36l0 3.35c-0.23,6.99 -3.66,18.19 -12.54,16.56 -20.09,-4.6 -40.08,-9.75 -60.12,-14.7 -12.02,-3.28 -24.66,-5.64 -35.21,-12.65 -30.53,-19.61 -58.95,-45.16 -95.47,-52.73 -11.84,-2.18 -23.32,4.62 -30,14.05 -20.49,25.88 -19.63,61.54 -38.4,88.41 14.89,14.53 31.29,28.44 51.08,35.71 5.56,2.23 11.61,1.14 17.37,0.68 16.59,-1.93 34.34,-1.77 49.53,6.02 11.94,6.05 23.42,13.21 33.27,22.33 10.62,9.3 14.15,25.14 9.73,38.38 -4.42,17.24 -18.77,29.36 -24.87,45.84 -9.06,20.25 -8.61,43.03 -6.22,64.59 2.21,12.29 4.7,25.35 12.27,35.61 11.94,9.04 26.16,15.54 35.63,27.63 24.79,31.65 41.91,71.07 40.87,111.81 -0.1,10.57 -1.98,21.59 -8.31,30.33 -4.69,6.7 -12.52,9.95 -19.53,13.56 5.34,14.83 -0.89,30.35 2.75,45.39 8.15,46.68 14.98,93.72 27.22,139.59 4.9,34.34 10.24,69.62 4.42,104.16 6.55,11.3 13.56,22.32 20.37,33.47 2.14,3.13 2.49,6.94 3.08,10.59 -17,3.43 -34.37,4.42 -51.44,7.52 -25.93,36.42 -48.89,75.92 -83.38,105.18 -5.28,4.09 -12.07,5.08 -18.34,6.81 -10.64,13.43 -21.61,26.61 -32.64,39.77 6.35,25.7 13.34,51.28 19.43,77.03 2.44,5.41 -4.24,7.88 -8.53,6.15 -20.24,-5.56 -39.55,-14.15 -58.98,-22.07 -33.45,24.33 -67.02,49.12 -104.46,67.1 3.63,16.06 3.5,32.67 1.73,48.95 35.4,7.08 69.31,26.72 88.92,57.65 20.87,33.27 24.33,75.11 16.43,112.95 -7.67,38.5 -30.25,74.72 -64.01,95.47 -19.55,11.94 -42.36,19.05 -65.4,18.44 -43.05,0.94 -88.44,-9.45 -121.91,-37.79 -26.47,-22.2 -41.4,-55.72 -45.19,-89.63 -5.02,-36.6 -0.25,-76.38 21.62,-107.11 19.35,-27.68 50.49,-44.8 82.7,-53.11 -2.11,-4.65 -4.19,-9.29 -6.25,-13.94 -67,24.69 -139.95,24.69 -210.23,19.76 -8.84,11.73 -15.87,24.84 -25.39,36.04 -3.94,3.2 -5.77,-3.2 -7.29,-5.61 -6.68,-14.46 -13.19,-28.98 -20.25,-43.26 -79.88,-18.36 -153.33,-60.07 -214.46,-114.11 -17.63,4.29 -35.03,9.52 -52.48,14.45 -7.39,1.83 -15.44,5.89 -22.81,1.8 8.11,-24.2 15.29,-48.69 23.67,-72.79 -46.52,-65.61 -87.44,-136.85 -108.47,-214.98 -19.25,-2.61 -38.48,-5.38 -57.53,-9.22l0 -3.73c15.04,-15.57 31.82,-29.26 47.5,-44.14 -9.91,-45.54 -12.12,-92.43 -11.33,-138.91 1.39,-40.13 4.65,-80.31 12.65,-119.7 -8.74,-8.46 -20.15,-14.45 -26.39,-25.25 11.35,-3.89 23.11,-6.45 34.36,-10.67 11.43,-30.27 24.74,-59.81 38.86,-88.92 24.33,-48.97 51.08,-97.71 88.36,-138.17 -4.98,-16.13 -12.24,-31.59 -15.95,-48.05 1.04,-0.38 3.1,-1.09 4.14,-1.45 15.19,2.82 29.87,7.87 44.68,12.24 19.89,-16.2 39.39,-33.12 61.64,-46.09 13.77,-49.41 27.48,-98.81 40.69,-148.36 3.28,-13.11 5.59,-26.95 13.87,-38.05 15.01,-21.56 36.57,-40.74 62.96,-46.07 15.8,-1.47 34.19,-1.85 46.58,9.78 31.62,-13.39 62.79,-29.21 97,-34.9z"/>
   <path class="fil1" d="M904.02 40.92c20.55,-10.75 41.98,-22.89 65.88,-22.48 10.49,3.05 17.73,12.57 23.07,21.64 12.47,23.14 26.97,45.16 42.23,66.52 14.71,21.56 36.12,37.28 57.07,52.32 -10.46,-14.53 -23.51,-27.07 -32.78,-42.49 5.86,-7.16 15.9,-5.84 24.12,-5.51 16.69,1.6 34.06,1.19 49.84,7.69 13.41,7.27 20.26,21.82 31.69,31.37 6.96,5.08 14.25,10.01 22.51,12.73 -10.87,-12.17 -19.99,-25.63 -26.16,-40.77 13.94,-1.73 28.26,-3.63 42.13,-0.38 9.91,2.16 18.26,8.23 26.19,14.25 10.74,8.63 21.54,17.65 29.08,29.36 12.47,19.43 25.25,38.76 40.08,56.51 13.89,17.14 32.76,29.49 52.3,39.34 -10.7,14.41 -21.52,28.78 -30.33,44.43 15.36,-13.52 29.82,-28.48 47.9,-38.46 9.58,-5.61 21.06,-2.82 31.34,-1.27 19.69,4.5 40.24,15.37 48.34,34.9 5.2,11.12 -1.2,22.63 -6.2,32.46 -13.69,25.65 -24.54,54.07 -23.49,83.56 1.95,16.51 2.16,33.68 8.99,49.15 -19.36,-2.41 -35.26,-15.39 -54.31,-18.98 16.62,-5.28 26.75,-21.15 30.59,-37.41 4.31,-12.92 -0.23,-26.31 -2.39,-39.19 14.53,-12.6 24.36,-30.43 24.63,-49.93 -8.33,19.91 -22.17,40.13 -44.14,46.05 -15.82,3.3 -32.1,8.5 -43.81,20.21 -7.16,7.5 -15.9,13.19 -24.66,18.62 -6.94,4.55 -16.21,3.56 -23.32,0.03 -25.42,-12.14 -51.13,-23.65 -77.31,-33.96 -11.2,-4.4 -21.16,-11.28 -32.13,-16.11 -13.21,-4.69 -27.05,-7.69 -41.05,-8.66 -14.75,-1.34 -28.57,6.07 -43.33,5.19 -9.95,0.33 -19.66,-2.32 -28.47,-6.79 5.23,6.12 10.44,13.11 18.49,15.57 21.59,6.58 44.32,-0.53 66.22,3.61 6.9,1.32 13.3,4.45 19.78,7.14 -1.42,12.09 -6.37,23.44 -7.26,35.66 -2.77,16.99 6.55,32.3 13.13,47.21 -19.2,4.35 -38.79,8.59 -56.59,17.2 34.03,-2.9 68.2,-7.21 102.41,-4.57 -41.48,24.68 -83.49,48.76 -126.67,70.4 -42.95,17.5 -87.95,29.62 -133.14,39.8 -3.63,0.84 -7.31,1.37 -11.02,1.63 -0.2,1.39 -0.3,2.84 -0.38,4.26l0.63 -3.07c37.21,-2.77 74.6,-8.02 110.13,-19.76 23.24,-8.89 46.64,-17.68 68.61,-29.44 -30.03,36.27 -61.49,71.3 -91.41,107.64 24.28,-24.07 48.43,-48.31 72.99,-72.1 13.11,-12.4 25.35,-25.99 40.94,-35.38 25.28,-16.16 49.35,-34.62 76.4,-47.73 36.88,-12.6 74.4,-27.78 114.07,-26.46 15.16,-0.05 30.02,3.35 44.75,6.7 -34.44,1.86 -69.72,0.92 -103.02,11.28 -12.42,3.33 -21.03,13.26 -30.6,21.08 -29.31,25.63 -59.26,50.8 -84.86,80.23 -14.86,16.21 -34.13,27.05 -52.6,38.51 27.51,-10.64 52.45,-27.56 73.05,-48.61 27.73,-29.44 58.62,-56.54 94.08,-76.25 24.28,-10.03 50.84,-14.53 77.08,-13.69 26.16,0.63 53.13,-1.52 78.38,6.81 8.89,2.94 18.67,6.57 23.39,15.34 13.77,22.47 26.8,45.79 34.72,71.04 2.82,13.76 4.4,28.21 1.81,42.16 -2.95,16.84 -20.2,28.57 -36.81,27.78 -15.14,0.31 -28.65,-7.74 -40.66,-16.07 -6.7,-4.83 -13.87,-10.42 -16.61,-18.47 -2.18,-15.59 -2.11,-33.12 8.41,-45.92 11.32,-13.21 26.84,-22.73 36.16,-37.72 4.45,-7.46 -1.01,-16.15 -6.73,-21.13 -19.98,-16.28 -47.44,-18.39 -72.1,-15.14 -21.82,3.97 -44.3,-1.57 -66.02,3.23 -20.16,4.95 -30.88,31.16 -20.72,48.92 12.19,12.14 31.01,10.34 46.5,14.5 18.8,5.69 38.13,12.19 53.42,25.02 17.32,13.69 18.74,40.97 6.81,58.57 -9.27,13 -24.49,20.27 -39.65,23.85 -34.09,9.12 -68.5,-3.56 -102.26,-8.23 -63.57,-13.84 -135.14,17.96 -164.2,76.86 19.91,-17.38 39.22,-37.7 65.15,-45.7 -21.44,38.03 -44.58,75.08 -67.08,112.47 -19.53,30.35 -39.7,60.27 -59.28,90.6 -15.55,21.94 -24.56,47.82 -30.84,73.75 6.68,-8.4 9.25,-19.53 17.07,-27.02 7.47,24.69 9.75,50.47 12.78,75.97 4.82,24.2 30.4,38.55 53.69,38.68 23.6,1.7 46.96,-3.68 69.01,-11.73 29.16,-10.7 59.15,-19.21 87.6,-31.8 36.98,-16.08 64.64,-47.88 102.33,-62.69 15.34,-5.99 32.43,-8.07 48.49,-3.66 7.62,1.33 14.88,6.46 22.83,4.27 -0.66,-4.82 -1.88,-9.5 -3.91,-13.89 13.77,-4.37 28.65,-11.43 43.18,-6.05 7.69,2.29 16.48,6.18 18.97,14.61 4.17,10.49 -2.01,21.23 -8.13,29.51 -6.98,8.94 -14.4,17.78 -23.34,24.87 -12.6,7.41 -27.68,9.22 -42.03,7.46 -26.04,-2.16 -52.76,0.54 -76.91,10.9 -6.35,3.25 -11.33,8.53 -16.51,13.33 12.88,-5.76 25.88,-11.65 39.82,-14.27 15.75,-2.57 31.73,-0.94 47.53,0.05 -0.59,2.77 -0.72,5.77 -2.29,8.2 -14.86,24.21 -30.58,47.96 -43.94,73.05 -9.35,12.85 -23.67,22.33 -39.27,25.58 -15.01,1.06 -30.2,0.25 -45.05,-2.11 4.54,-11.33 8.79,-23.19 16.81,-32.56 9.37,-9.27 21.34,-15.32 31.34,-23.8 -22.17,3.4 -39.64,18.47 -57.04,31.39 -15.93,14.43 -28.25,32.39 -43.44,47.5 -19.25,12.34 -41.29,19.53 -62.73,27.05 -35.84,11.89 -79.85,10.69 -109.72,-14.71 -31.45,-28.01 -54.86,-63.6 -85.55,-92.32 -30.6,-29.97 -63.16,-61.24 -104.89,-74.52 33.57,23.75 64.79,52.6 84.57,89.12 -34.51,24.11 -74.39,42.57 -116.9,44.96 -22.15,1.27 -43.77,-5.11 -63.96,-13.56 -23.09,-9.38 -48.26,-15.47 -68.27,-30.94 -21.51,-21.82 -33.93,-51.41 -38.96,-81.33 -3.02,-19.63 -9.81,-38.55 -18.92,-56.15 -3.71,-7.27 -8.34,-14.13 -11.13,-21.85 -6.63,-24.94 -5.82,-50.97 -5.51,-76.55 1.17,-53.82 14.25,-106.55 31.67,-157.22 12.78,-36.62 28.63,-72.54 51.18,-104.26 31.29,-44.12 69.69,-82.52 108.45,-120.03 -19.86,15.59 -39.31,31.69 -58.24,48.43 -23.39,20.8 -46.88,42.16 -64.41,68.38 5.95,-35.26 12.07,-70.94 26.34,-103.96 10.67,-23.85 27.56,-45.46 50.09,-59.08 3.81,-2.44 8.4,-4.7 13,-2.92 10.85,3.2 21.46,9.17 33.15,7.7 8.02,-1.15 17.47,-2.11 22.96,-8.89 8.91,-10.85 15.67,-23.32 24.61,-34.09 16.91,-13.79 37.16,-23.67 52.14,-39.75 19.64,-28.57 36.7,-59.02 51,-90.65 9.2,-24.89 18.14,-50.74 35.48,-71.34 6.38,-8.41 18.19,-7.49 27.43,-5.67 15.22,3.13 17.02,21.62 23.19,33.2 5.11,-14.83 -1.37,-31.16 -11.37,-42.36 -7.29,-8.82 -22.05,-7.6 -27.1,-18.77 -4.07,-10.59 -3.59,-22.3 -4.09,-33.48 -7.32,12.98 -15.5,26.06 -27.38,35.36 -13.92,9.72 -29.92,15.77 -45.29,22.7 9.07,-0.86 18.08,-2.36 27.2,-3.07 11,20.37 4.57,44.78 -2.79,65.25 -12.14,29.94 -25.5,59.66 -43.81,86.38 -9.1,13.74 -22.89,23.16 -35.61,33.17 -16.39,11.86 -33.84,23.57 -54.05,27.33 6.7,3.68 14.68,2.79 22.04,3.48 -9.98,13.64 -22.52,31.06 -41.6,29.34 -13.1,0.58 -28.9,-2.09 -36.06,-14.43 -13.52,-23.04 -24.67,-47.45 -34.04,-72.41 -5.89,-13.59 -1.9,-28.4 -1.14,-42.52 13.05,-55.45 27.28,-110.74 45.49,-164.76 6.73,-21.11 18.08,-41.91 36.72,-54.66 16.66,-11.56 39.24,-8.28 56.19,0.94 -11.23,20.01 -23.55,40.31 -27.77,63.17 10.75,-14 19.64,-29.42 31.35,-42.7 5.74,-6.55 14.09,-9.78 21.43,-14.12 8.82,-4.57 16.03,-11.58 24.92,-16zm294.09 1312.88c6.6,-7.74 9.32,-17.88 13.95,-26.79 39.64,8.38 76.95,34.34 92.19,72.84 15.75,36.55 10.39,79.09 -7.44,113.86 -12.65,24.01 -30.55,47.5 -56.26,58.19 -26.79,8.28 -55.72,12.7 -83.46,6.78 -16.2,-3.32 -30.32,-12.01 -44.72,-19.65 1.82,-1.1 3.73,-2.06 5.71,-2.87 28.73,-2.14 57.45,-4.35 86.28,-5.21 -0.28,-6.83 -0.53,-13.64 -0.81,-20.42 -8.84,0.38 -17.76,0.99 -26.55,-0.48 -0.99,-21.82 -1.77,-43.61 -2.71,-65.41 11.4,-0.05 22.96,-1.75 34.29,0.23 5.81,6.3 3.58,16.61 6.45,24.49 7.74,-0.31 15.49,-0.59 23.26,-0.82 -0.46,-24.15 -2.34,-48.23 -2.92,-72.36 -8.05,0.16 -16.13,0.31 -24.18,0.44 -0.66,7.89 2.52,17.27 -2.36,24.12 -11.18,4.42 -23.65,1.63 -35.33,3 -0.63,-19.4 -1.75,-38.78 -1.9,-58.19 17.37,-0.48 34.74,-0.61 52.11,-0.61 5.59,0.16 12.73,-0.05 16.21,5.18 3.83,9.12 4.14,19.18 5.41,28.88 8.73,-0.2 17.45,-0.35 26.18,-0.56 -0.96,-18.49 -1.9,-36.95 -2.05,-55.47 -54,0.21 -108,1.2 -162,1.4 0.11,6.91 0.23,13.82 0.36,20.75 7.21,-0.02 14.48,-0.53 21.69,0.48 4.32,-0.23 4.95,5.06 5.31,8.23 1.8,43.33 2.64,86.71 4.09,130.07 0.05,3.45 0.38,8.97 -4.4,9.37 -7.21,1.73 -14.65,1.68 -21.99,2.16 -0.05,7.14 1.98,15.04 -2.87,21.11 -16.46,-13.46 -31.01,-29.97 -38.38,-50.19 -12.85,-34.31 -12.27,-74.37 4.72,-107.18 16.54,-37.14 54.15,-64.9 94.89,-67.9 -2.08,7.09 -5.2,15.62 -0.5,22.38 6.55,8.41 20.92,8.31 27.73,0.15zm-118.66 -7.11c26.26,-22.68 62.12,-30.37 96.01,-30.2 -1.91,4.4 -4.91,8.31 -10.16,8.21 -35.44,6.93 -69.72,25.75 -90.63,55.77 -18.49,26.77 -24.1,60.5 -21.81,92.48 1.9,29.41 16.48,57.25 38.22,76.93 7.06,7.29 16.15,12.17 23.27,19.41 -33.5,-14.15 -63.4,-40.82 -74.96,-76.02 -6.27,-17.81 -5.81,-36.93 -5,-55.52 1.8,-34.7 16.64,-69.95 45.06,-91.06zm49.47 -114.8c1.15,-14.04 13.34,-28.35 28.22,-27.28 6.86,0.71 10.47,7.14 13.24,12.68 -5.82,-2.04 -11.61,-5.67 -18.01,-4.5 -5.49,2.21 -10.77,5.92 -13.21,11.51 -2.46,5.76 0.36,11.81 1.45,17.52 -4.9,-1.35 -12.19,-3.5 -11.69,-9.93zm-264.78 -28.55c25.15,-8.3 53.72,-4.01 76.33,9.43 14.32,8.78 28.29,23.77 24.86,42 -0.53,9.91 -11.3,12.88 -19.38,14.18 3.25,-6.38 6.22,-12.88 9.1,-19.41 -2.8,-7.62 -5.01,-16.46 -12.27,-21.11 -18.26,-11.96 -40.54,-17.85 -62.33,-16.07 -19.41,0.91 -37.03,16.03 -40.16,35.35 -1.98,-4.39 -6.12,-8.38 -5.71,-13.41 4.17,-14.22 15.42,-26.26 29.56,-30.96zm403.82 -18.49c-10.64,-14.48 -6.55,-34.72 3.05,-48.66 2.36,0.43 7.11,1.27 9.47,1.7 -7.14,11.61 -9.32,26.39 -4.52,39.29 3.07,7.16 10.74,9.47 16.35,14 -8.5,2.03 -18.87,1.47 -24.35,-6.33zm-365.06 -83.71c12.02,-5.97 23.14,-14.53 36.3,-17.65 18.31,-1.86 30.58,13.76 41.88,25.57 -15.39,0.03 -30.86,0.71 -46.23,-0.61 -10.71,-2.03 -21.51,-3.98 -31.95,-7.31zm-298.76 -26.21c5.08,-5.59 13.28,-3.61 19.91,-3.1 13.69,2.18 29.56,2.94 39.37,14.12 6.93,7.11 16.07,11.2 24.66,15.9 12.29,11.78 24.1,26.21 25.75,43.84 1.25,11.88 1.53,25.55 -5.81,35.63 -9.68,6.07 -21.69,1.63 -32.03,-0.3 8.43,-5.03 16.86,-12.25 18.03,-22.66 5.31,-40.23 -35.2,-78.05 -74.87,-71.42 -12.93,2.74 -15.65,16.51 -20.5,26.62 -0.66,-12.8 -4.34,-28.25 5.49,-38.63zm-99.26 -241.52c8.66,-6.55 11.6,-19.51 22.88,-22.66 14.66,-2.38 27.41,9.45 33.35,21.8 14.1,28.39 18.34,62.07 10.31,92.83 -3.38,9.17 -5.84,20.21 -14.25,26.11 -15.9,4.62 -30.6,-8.16 -33.93,-23.14 10.87,0.36 24.49,6.35 33.32,-2.74 13.72,-14.51 10.75,-36.22 7.4,-54.15 -3.03,-19.64 -15.32,-40.59 -36.32,-44.4 -10.65,-2.77 -16.69,8.41 -25.38,11.78l0.41 -1.34c0.56,-1.04 1.65,-3.08 2.21,-4.09zm927.48 -140.25c4.58,-6.53 9.07,-13.11 13.74,-19.59 2.11,10.47 -0.99,26.62 11.31,31.42 13.03,3.84 23.06,-7.9 29.03,-17.85 3.48,16.43 4.75,33.22 7.41,49.8 4.78,35.03 12.45,69.6 20.17,104.09 3.05,24.79 4.19,49.88 2.84,74.82 -4.16,30.2 -22.6,55.55 -38.65,80.52 -16.43,24.76 -33.2,49.42 -52.45,72.1 -5.23,5.77 -10.21,12.04 -16.76,16.39 -8.54,5.3 -18.85,2.05 -28.22,2.97 -10.16,0.94 -20.29,2.49 -30.23,4.85 10.83,-19.61 22.13,-38.94 34.52,-57.58 6.5,-9.35 12.6,-19.33 21.82,-26.29 9.45,2.67 20.27,4.22 29.06,-1.29 10.31,-5.01 13.81,-16.84 22.42,-23.72 9.27,-8.34 17.71,-17.66 25.2,-27.64 9.57,-13.41 5.51,-33.3 -6.83,-43.56 -5.16,-4.85 -12.04,-7.03 -18.37,-9.83 2.47,-34.87 -7.21,-71.9 -30.78,-98.39 -8.79,-9.4 -19.3,-17.7 -31.44,-22.28 -3.97,-1.93 -8.21,-0.2 -11.74,1.73 2.67,12.9 3.43,26.09 6.3,38.94 1.35,7.69 3.58,15.34 3.45,23.19 -9.9,13.03 -15.29,28.8 -17.95,44.82 -6.56,-2.84 -14.76,-7.39 -21.59,-2.71 -6.94,5.03 -12.22,11.91 -18.34,17.85 -3.71,-32.79 7.42,-64.36 17.2,-95.06 5.25,-15.19 9.98,-30.94 19.43,-44.2 15.39,-22.12 33.09,-42.52 51.02,-62.58 12.95,21.23 16.18,46.35 24.71,69.36 8.01,27.99 11.64,56.95 16.74,85.55 0.71,-17.22 -1.04,-34.39 -2.31,-51.54 -1.34,-18.21 -7.29,-35.58 -11.99,-53.11 -5.92,-20.49 -11.86,-40.99 -18.72,-61.18zm-858.09 -158.41c5.23,-2.62 12.9,-0.34 14.98,5.43 17.02,39.5 6.5,87.73 -22.91,118.54 -6.22,6.45 -13.94,16.56 -24.1,12.62 -9.17,-5.38 -10.01,-17.14 -11.99,-26.54 5,2.92 9.63,6.47 14.94,8.86 5.13,0.79 9.14,-3.38 12.92,-6.17 19.1,-16.61 25.25,-43.86 23.42,-68.2 -2.13,-12.62 -2.87,-29.92 -17.5,-34.59 3.3,-3.4 6.28,-7.26 10.24,-9.95zm142.48 -187.07c2.52,5.06 5.08,10.06 7.73,15.07 -12.48,27.98 -37.39,50.61 -67.51,57.75 -8.16,1.55 -16.89,4.17 -25.07,1.6 -9.12,-6.12 -3.51,-18.74 -0.74,-26.95 2.97,6.1 4.9,15.04 13.36,15.14 11.86,0.15 22.78,-5.79 32.82,-11.53 19.07,-11.23 32.84,-30.1 39.41,-51.08zm590.83 -324.62c13.66,-10.08 33.07,-11.35 48.41,-4.37 -8.33,9.48 -18.39,17.63 -24.08,29.21 14.94,-7.72 29.34,-18.06 46.51,-20.01 24.79,-3.63 51.53,4.37 69.39,22.17 19.38,18.9 34.77,41.3 52.24,61.85 17.65,20.98 41.96,34.49 62.84,51.76 6.09,4.52 8.23,15.85 1.04,20.24 -19.89,-3.86 -37.57,-14.88 -54.48,-25.55 -17.93,-11.25 -30.94,-28.19 -46.4,-42.31 -12.04,-11.03 -23.95,-22.3 -37.57,-31.4 8.26,-1.34 16.61,-2.03 24.92,-3.04 -36.02,-9.88 -77.52,-12.17 -110.18,8.81 8.61,-1.35 19.86,-7.82 26.06,1.4 -2.14,3.86 -5.29,6.93 -9.17,8.99 -19.79,11.66 -38.28,28.34 -45.36,50.85 -4.75,16 -7.78,33.65 -19.54,46.32 -3.78,-6.73 -7.46,-13.53 -11.43,-20.16 2.44,-6.56 5.49,-12.85 9.22,-18.75 -5.2,2.21 -10.28,4.68 -15.03,7.75 -12.9,-17.53 -25.81,-35.33 -43.36,-48.59 15.6,-9.85 28.52,-23.52 38.02,-39.32 11.54,-19.27 21.34,-40.25 37.95,-55.85zm-223.92 278.4l0 0c-10.74,3.73 -21.15,-1.98 -30.91,-5.84 10.06,14.14 30.05,15.51 45.24,9.98 22.17,-8.49 45.39,-20.65 69.82,-14.99 24.69,5.64 50.87,15.17 66.32,36.45 19.76,22.83 40.15,45.18 61.36,66.67 -18.41,-27.58 -34.36,-56.87 -55.12,-82.8 -6.32,-8.25 -15.26,-13.74 -23.95,-19.12 -21,-13.16 -47.11,-19.81 -71.54,-13.72 -21.59,4.42 -40.06,17.7 -61.22,23.37zm157.58 -11.74l0 0c9.62,9.83 20.67,18.65 27.56,30.79 5.05,9.04 12.06,16.71 18.99,24.33 -0.28,-8.31 -0.73,-16.64 -1.39,-24.94 -9.27,-4.5 -15.9,-12.57 -24.21,-18.42 -6.5,-4.75 -13.74,-8.3 -20.95,-11.76zm97.61 38.79l0 0c-6.63,13.28 -17.28,24.2 -23.12,37.87 -2.26,9.65 -2.92,19.6 -4.62,29.36 7.01,-13.34 15.01,-26.11 23.29,-38.68 5.33,-8.28 11.25,-16.64 12.9,-26.55 2.03,-12.31 4.5,-24.63 9.17,-36.24 -5.18,11.76 -11.88,22.76 -17.62,34.24zm131.13 227.57l0 0c-3.33,1.27 -3.2,4.93 -3.68,7.82 1.62,0.92 4.85,2.77 6.47,3.71 2.03,-2.08 4.07,-4.16 6.12,-6.25 -2,-2.61 -4.9,-8.05 -8.91,-5.28zm-204.84 16.38l0 0c-2.87,1.73 -4.37,5.18 -2.54,8.26 2.06,5.13 11.56,4.29 12.24,-1.5 1.68,-5.21 -5.59,-9.81 -9.7,-6.76zm43.41 7.8l0 0c0,2.62 0.02,5.26 0,7.9 3.27,1.12 7.08,2.87 10.15,0.23 0.59,-2.77 0.89,-5.57 0.89,-8.41 -3.65,-0.99 -7.46,-0.99 -11.04,0.28zm174.28 8.53l0 0c3.18,5.21 9.07,1.55 11.66,-2.15 -2.18,-2.62 -4.42,-5.16 -6.76,-7.6 -2.43,2.44 -8.56,5.92 -4.9,9.75zm-24.41 2.9l0 0c2.24,2.56 4.17,7.21 8.46,6.35 3.48,-0.28 4.73,-4.19 6.96,-6.28 -2.16,-2.28 -2.84,-7.18 -6.68,-7.13 -4.83,-1.45 -6.68,4.01 -8.74,7.06zm-173.12 12.8l0 0c-0.32,4.14 4.53,4.67 7.14,6.55 2.75,-2.36 5.61,-5.05 4.45,-9.09 -2.52,-5.46 -12.04,-3.76 -11.59,2.54zm-27.53 -0.74l0 0c-8.35,3.23 -3.76,17.1 4.98,14.23 9.25,-3.1 4.12,-17.83 -4.98,-14.23zm60.38 20.37l0 0c3.02,3.18 6.75,-0.58 9.8,-1.65 -0.43,-3.45 -1.19,-9.17 -5.82,-8.94 -5.81,-1.45 -9.8,8.03 -3.98,10.59zm-41.66 12.96l0 0c2.52,2.26 6.71,6.19 9.86,2.33 4.95,-2.94 0.53,-10.11 -4.3,-9.14 -3.6,-0.05 -3.81,4.6 -5.56,6.81zm-201.41 44.72l0 0c-8.08,12.22 -8.74,27.33 -12.9,41 -3.05,7.03 -9.6,11.63 -13.64,18.03 8.05,-3.48 15.72,-8.46 20.8,-15.75 7.57,-10.49 7.52,-23.92 10.57,-35.99 4.13,-12.14 15.13,-19.91 22.52,-29.94 -10.13,6.09 -20.19,13.08 -27.35,22.65zm-163.14 126.72l0 0c-29.18,32.03 -61.84,62 -82.42,100.7 20.78,-21.08 39.86,-43.91 61.67,-63.98 -1.8,16.29 -9.01,31.19 -12.24,47.14 6.5,-15.18 13.89,-29.97 21.23,-44.72 15.83,-32.54 40.39,-59.51 60.35,-89.38 8.79,-14 16.97,-28.4 24.49,-43.1 -22.79,32.3 -46.23,64.23 -73.08,93.34zm57.3 97.6l0 0c-6.25,9.58 -11.53,20.05 -20.37,27.61 -2.97,-7.06 -2.82,-14.8 -3.4,-22.3 -4.22,13.31 -5.64,27.28 -8.56,40.9 -2.82,14.19 2.08,28.14 5,41.85 1.32,-7.13 1.63,-17.37 7.95,-21.36 6.35,10.85 15.27,19.64 24.46,28.02 11.03,14.48 17.6,31.72 25.1,48.15 -5.59,-26.61 -17.1,-51.68 -31.35,-74.69 -7.23,-9.81 -9.95,-22.33 -9.98,-34.32 8.05,-24.08 24.46,-44.04 36.93,-65.86 -8.68,10.59 -18.54,20.3 -25.78,32z"/>
   <path class="fil2" d="M657.35 307.55c13.1,-13.03 28.39,-23.67 43.61,-34.06 -3.74,14.96 -3.58,30.48 1.85,45.01 -15.06,-4.01 -30.25,-7.52 -45.46,-10.95zm455.73 1062.33c50.16,-0.38 100.3,-0.46 150.46,-0.71 1.01,14.66 1.52,29.36 1.8,44.07 -4.9,0.05 -9.78,0.1 -14.68,0.2 -1.88,-11.76 -0.63,-29.79 -15.39,-33.15 -23.16,-1.85 -46.53,-0.38 -69.77,-0.5 1.27,23.29 1.12,46.63 1.98,69.94 13.56,-0.5 27.35,0.18 40.74,-2.28 10.69,-3.02 8.79,-16.23 9.22,-24.84 4.22,-0.05 8.46,-0.08 12.7,-0.1 0.48,20.01 0.96,40.03 2.11,60.04 -4.19,0.13 -8.36,0.31 -12.52,0.48 -2.19,-8 0.2,-20.8 -9.91,-23.67 -13.74,-3 -27.91,-0.48 -41.81,-0.43 1.65,24.38 0.54,49.09 3.99,73.3 6.25,7.14 17.27,3.23 25.6,4.11 0.08,3.08 0.18,6.18 0.31,9.33 -26.44,0 -52.75,2.36 -79.07,4.54 -0.12,-2.23 -0.4,-6.65 -0.56,-8.89 9.73,-1.37 27.97,-0.15 26.82,-14.65 -2.18,-44.86 -2.33,-89.79 -4.39,-134.67 -0.13,-4.16 -1.4,-8.96 -5.64,-10.74 -6.81,-2.62 -14.32,-1.5 -21.46,-1.85 -0.18,-3.18 -0.36,-6.38 -0.53,-9.53zm-291.45 -239.91c20.54,-4.53 40.28,-11.89 59.61,-20.07 15.41,5.28 30.35,14.27 47.14,15.82 22.65,1.81 45.74,1.76 67.79,8.05 6.83,1.66 10.49,8.34 14.98,13.16 21.46,26.92 55.62,44.63 90.45,42.65 26.05,-0.97 51.25,-9.17 74.69,-20.15 20.25,-8.78 40.49,-17.57 60.71,-26.38 -2.9,11.4 -7.37,25.72 2.08,35.35 9.37,9.19 19.18,20.04 32.79,22.25 9.78,1.6 18.39,-4.5 27.3,-7.37 -26.56,24.36 -56.25,47.12 -90.82,58.68 -6.66,-13.87 -17.86,-24.97 -30.76,-33.07 -3,-9.81 -8.36,-21.54 -19.99,-22.71 -14.22,-0.84 -29.64,7.31 -34.57,21.21 -2.77,8.05 -5.13,18.03 1.07,25.17 5.21,7.44 15.14,7.13 23.11,5.79 9.15,4.57 17.55,10.77 23.34,19.33 -42.34,22.58 -89.96,33.57 -137.51,37.69 -37.36,2.21 -74.95,2.59 -112.23,-1.12 6.83,-8.18 12.65,-17.27 20.16,-24.81 12.53,-4.63 27.89,-8.26 33.99,-21.62 5.41,-13.89 9.19,-30.55 3.07,-44.73 -28.57,-40.71 -87.65,-56.25 -132.4,-34.11 -12.22,6.43 -24.56,16.18 -27.79,30.28 0,9.25 1.32,18.57 4.24,27.38 2.64,9.27 12.65,13.36 16.87,21.69 4.95,9.55 9.19,19.48 13.74,29.26 -46.38,-14.76 -92.76,-31.11 -135.33,-54.96 -22.09,-13.08 -42.77,-28.37 -62.68,-44.55 4.7,-2.06 9.45,-3.94 14.3,-5.59 14.73,10.69 36.93,12.95 51.61,0.96 7.14,-6.17 14.45,-12.8 18.64,-21.38 2.49,-14.66 4.12,-31.27 -4.49,-44.35 25.67,15.67 57.88,20.17 86.89,12.25zm523.59 -25.28c9.32,-5.3 20.29,-8.66 30.94,-5.43 -2.57,7.85 -7.37,14.58 -13.24,20.29 -3.48,-7.52 -10.23,-11.96 -17.7,-14.86zm-847.45 -180.91c5.74,1.06 11.48,2.11 17.24,3.1 4.07,7.69 6.99,16.23 12.78,22.88 8.99,7.44 20.82,12.6 32.69,10.92 9.72,-1.34 19.5,-2.51 29.05,-4.77 8.23,-4.37 9.32,-14.48 12.93,-22.13 9.22,14.86 14.83,31.7 17.93,48.85 3.63,20.09 5.33,40.84 13.51,59.84 -16.84,4.09 -34.06,14.98 -40.05,31.97 -2.92,12.96 -1.78,26.44 -0.53,39.55 -20.98,-31.37 -44.38,-61.52 -60.58,-95.75 -13.23,-30.84 -29.08,-61.09 -34.97,-94.46zm529.18 -20.27c8.81,-14.25 23.49,-28.19 41.55,-26.49 10.69,-0.76 21.24,3.48 28.14,11.73 12.2,11.74 17.83,27.94 26.93,41.81 -0.26,-17.2 -12.75,-30.84 -17.73,-46.79 10.18,-2.15 21.94,-6.02 31.52,0.03 8.05,6.71 9.83,18.03 10.51,27.91 1.4,18.26 -3.68,36.4 -12.04,52.5 -6.27,-3.27 -13.86,-11.3 -21.26,-6.55 -8.5,9.93 -12.26,22.76 -17.11,34.67 -9.1,-8 -20.37,-14.22 -32.92,-12.47 0,-9.68 -2.01,-19.81 -8.64,-27.23 -6.27,-6.68 -15.9,-7.75 -24.38,-9.6 -1.83,-13.16 -1.95,-26.49 -4.57,-39.52zm-473.03 -462.99c18.67,-30.1 40.26,-58.27 60.3,-87.45 4.83,12.52 10.18,24.84 14.86,37.41 -4.78,10.41 -9.58,22.53 -5.26,33.93 5.44,8.56 12.98,17.25 22.81,20.53 37.56,-1.05 74.21,-24.23 91.54,-57.58 1.77,2.59 3.58,5.2 5.35,7.79 -15.95,14.05 -31.87,28.27 -46.35,43.87 -24.51,36.11 -41.98,78.05 -44.32,122.04 -0.46,20.16 -4.77,40.28 -13.49,58.52 -29.48,62.91 -45.03,131.66 -51.86,200.57 -7.72,-8.91 -14.02,-19.91 -24.59,-25.73 -13.25,-1.72 -27.15,1.65 -39.31,6.99 -9.33,7.74 -14.68,19.07 -20.27,29.59l2.36 1.29 -0.81 1.12c-0.56,1.01 -1.65,3.05 -2.21,4.09 -3.51,8.08 -12.5,11.68 -18.7,17.47 -3.88,-14.55 -5.36,-29.54 -7.56,-44.34 -4.2,-44.91 -5.34,-90.17 -1.76,-135.18 0.97,-21.38 3.56,-42.74 8.21,-63.64 14.53,9.75 29.18,19.42 43.35,29.71 1.5,10.82 0.56,23.5 8.89,31.9 9.78,8.43 23.22,11.2 35.84,11.69 8.86,-0.59 15.09,-7.83 20.62,-13.97 27.46,-32.84 40.16,-79.78 26.34,-121.13 -2.92,-7.44 -4.8,-18.34 -14.3,-19.79 -9.24,-1.67 -18.49,-4.9 -27.94,-4.42 -15.03,3 -15.77,23.88 -30.55,26.7 -16.71,5.21 -33.68,9.6 -50.85,13.1 19.86,-41.7 38.05,-84.24 59.66,-125.08z"/>
   <path class="fil3" d="M874.15 1223.38c17.14,-3 35.81,-2.54 51.13,6.73 6.93,4.42 15.69,8.79 18.13,17.3 0.28,10.51 -5.99,19.76 -11.17,28.47 -14.94,23.37 -29.49,47.04 -45.11,69.95 -0.94,-0.13 -2.8,-0.33 -3.73,-0.43 -11.31,-30.51 -23.17,-60.81 -34.88,-91.16 -4.67,-16.13 11.69,-28.01 25.63,-30.86zm255.74 73.99c4.19,-1.42 8.38,-2.87 12.6,-4.29 2.36,5.56 4.72,11.12 7.21,16.63 -4.37,0.66 -8.74,1.37 -13.08,2.14 -2.36,-4.81 -4.6,-9.61 -6.73,-14.48zm25.02 -9.98c6.68,-2.85 13.31,-5.87 20.32,-7.8 1.19,9.22 2.33,18.59 0.4,27.81 -4.92,-0.05 -9.83,-0.1 -14.73,-0.23 -2.69,-6.37 -4.37,-13.1 -5.99,-19.78zm-3.28 -61.93c1.7,-4.54 7.54,-3.48 11.38,-3.37 16.05,3.02 28.57,15.97 34.69,30.68 11.38,27.5 9.56,59.25 -0.48,86.86 -2.44,8.69 -11.99,13.28 -20.27,9.6 0.08,-8.86 4.78,-16.74 6.28,-25.35 4.49,-19.76 6.58,-42.21 -3.86,-60.52 -5.87,-10.87 -15.85,-18.52 -25.53,-25.76 -4.06,-2.48 -4.52,-8.3 -2.21,-12.14zm-320.12 -22.52c13.89,-16.46 35.25,-26.14 56.69,-26.72 32.3,-1.48 64.05,15.44 83,41.24 8.76,10.47 3.05,24.69 0.25,36.4 -0.3,-8.46 1.1,-17.86 -3.83,-25.3 -11.89,-20.11 -33.6,-33.07 -56.21,-37.38 -21.28,-4.7 -45.18,-2.29 -63.14,10.82 -7.98,5.28 -13.28,13.36 -18.54,21.13 -1.04,-6.63 -3.35,-14.61 1.78,-20.19zm414.55 -63.15c5.85,-1.82 11.61,-3.93 17.33,-6.14 -4.17,7.85 -8.99,15.64 -10.16,24.63 -1.65,8.26 0.76,16.46 2.41,24.51 -5.56,-4.97 -11.68,-9.9 -14.55,-17.01 -1.45,-8.94 2.71,-17.53 4.97,-25.99zm-545.43 -35.05c6.6,2.72 13.64,4.37 20.04,7.52 6.57,5.89 10.13,14.48 12.44,22.86 4.04,14 -2.51,29.01 -12.85,38.5 0.94,-9.26 2.31,-18.59 1.24,-27.91 -0.83,-16 -12.39,-28.29 -20.87,-40.97zm-89.31 -40.61c6.33,-7.95 16.82,-12.98 26.95,-11.78 7.42,5.2 11.46,13.81 16.97,20.82 -13.29,-7.84 -28.93,-8.45 -43.92,-9.04zm450.78 -74.29c10.74,-6.32 24.59,-1.42 31.52,8.2 2.26,11.05 1.17,22.51 1.09,33.73 -14.8,2.29 -31.21,0.41 -43.68,-8.4 -3.35,-3 -8.77,-6.96 -6.4,-12.12 4.42,-8.1 10.13,-15.75 17.47,-21.41zm48.49 -5.87c2.16,-7.39 5.99,-14.14 10.92,-20.01 12.95,6.88 26.97,15.59 32.18,30.12 3.38,7.77 4.27,16.26 5.41,24.56 -13.64,6.12 -28.55,7.8 -42.9,11.41 -5.36,-14.51 -11.28,-30.79 -5.61,-46.08zm-78.81 -33.98c7.26,1.45 16.4,1.35 21.15,8.05 4.35,7.87 7.34,19.48 -1.06,25.83 -3.74,3.43 -11,13.21 -15.37,5.99 -3.48,-12.92 -3.23,-26.64 -4.72,-39.87zm476.17 23.93c4.6,-9.15 8.89,-18.47 14.4,-27.08 6.28,9.07 15.11,16.18 20.37,25.93 -11.58,0.76 -23.19,0.94 -34.77,1.15zm-249.54 -38.84c16.53,-4.14 33.3,-0.58 49.25,4.19 -15.09,10.9 -31.57,19.86 -47.25,29.97 -0.12,-11.4 0.21,-22.91 -2,-34.16zm96.26 -36.32c4.77,-4.04 12.65,-6.1 17.45,-0.91 4.57,5.89 4.93,13.56 4.32,20.67 -13.19,2.59 -26.04,6.35 -38.84,10.34 3.94,-10.8 8.13,-22.35 17.07,-30.1zm-161.1 -72.67c6.83,-9.24 12.97,-20.82 24.68,-24.45 6.3,-1.25 13.13,4.26 12.35,10.89 0.25,22.48 -9.33,43.71 -10.04,66.11 -0.25,14.23 -0.91,28.63 2.57,42.57 0.58,-6.83 1.37,-13.64 2.49,-20.37 7.59,8.87 12.34,19.81 17.4,30.25 5.02,14.71 5.33,30.61 4.98,46.02 -18.6,11.79 -38.54,21.57 -59.51,28.33 -6.48,-3.56 -13.62,-6.86 -17.71,-13.34 -19.33,-27.56 -20.22,-63.88 -11.66,-95.42 7.67,-25.15 19.94,-48.74 34.45,-70.59zm-660.65 -23.21c10.18,-0.99 21.84,-7.75 31.16,-1.19 7.98,10.46 15.44,21.56 21.51,33.22 0,29.08 -1.47,59.4 10.5,86.66 5.46,9.85 -4.3,19.05 -9.4,26.77 -5.26,0.48 -10.49,1.01 -15.75,1.52 14.3,-27.2 13.13,-59.61 7.85,-89.07 -4.32,-25.25 -20.45,-50.11 -45.87,-57.91zm858.32 -16.03c11.56,5.62 22.43,13.52 29.59,24.36 10.62,15.01 20.35,31.39 23.83,49.65 2.43,14.2 0.25,28.63 -2.65,42.57 -16.99,2.01 -32.61,9.63 -46.65,19.08 -3.46,-1.25 -6.94,-2.39 -10.42,-3.53 0.54,-11.31 -2.79,-22.78 0.56,-33.83 2.09,-8.87 5.95,-17.17 11.23,-24.54 0.63,4.45 1.27,8.89 1.93,13.36 2.64,-9.27 4.04,-19.1 2.06,-28.62 -4.68,-19.2 -8.05,-38.76 -9.48,-58.5zm-82.19 -110.43c8.54,-1.7 17.38,-2.44 25.81,0.33 -2.29,7.72 -4.52,15.47 -6.76,23.21 -11.15,-2.26 -14.81,-14.55 -19.05,-23.54zm-46.45 -3.81c10.16,0.74 20.32,1.5 30.5,1.96 -8.99,6.8 -6.14,19.5 -13.26,27.15 -10.08,-6.33 -16.76,-17.12 -17.24,-29.11zm-66.37 7.9c-0.89,-7.16 5.72,-12.78 12.17,-14.22 10.84,-3.46 22.09,0.43 32.63,3.12 -1.09,8.1 -5,15.7 -4.57,24 0.13,12.17 4.14,25.1 -2.38,36.4 -8.06,-0.76 -16.97,-2.34 -21.8,-9.63 -8,-11.73 -16,-25.04 -16.05,-39.67zm257.72 -21.61c1.09,-6.28 8.03,-6.69 12.98,-8.06 6.15,-1.82 12.75,-1.8 18.54,1.22 3.53,17.42 -3.6,36.3 -18,46.74 -3.99,3.45 -11.36,2.18 -12.32,-3.51 -3.94,-11.66 -2.85,-24.43 -1.2,-36.39zm-30.55 -12.73c8.02,-0.97 16.1,0.46 23.72,3.02 -2.01,8.99 -7.06,17.45 -14.86,22.56 -10.72,-4.17 -9.65,-16.21 -8.86,-25.58zm-828.41 -111.73c3.63,1.52 8.89,0.86 11.41,4.29 9.34,18.77 13.48,40.41 9.17,61.14 -4.12,28.98 -18.98,55.62 -39.02,76.6 -6.07,3.1 -13.23,0.58 -19.63,-0.13 13.82,-8.79 26.01,-20.62 32.61,-35.86 14.83,-32.74 21.34,-72.44 5.46,-106.04zm706.62 -16.28c1.27,-8.41 6.43,-18.14 16,-18.62 20.63,-2.77 43.64,2.26 59.23,16.49 -4.06,6.7 -12.67,3.07 -19.02,4.54 -13.69,1.07 -24.03,12.8 -37.97,12.42 -8.49,0.18 -17.32,-5.99 -18.24,-14.83zm33.53 -114.19c2.94,-2.8 5.86,-5.62 8.81,-8.38 -0.23,6.75 0.71,14.17 -3.76,19.88 -4.75,-2.11 -4.72,-7.13 -5.05,-11.5zm-123.8 -7.19c3.03,0.86 6.02,1.75 9.05,2.67 0.61,24.78 -8.49,14.77 -9.05,-2.67zm-33.55 -20.09c9.07,3.89 17.12,9.63 25.63,14.58 -2.79,14.09 -0.86,29.13 5.38,42.06 3.86,8.05 14,10.72 22.15,9.45 13.16,-3.99 16.94,-19.05 17.37,-31.22 12.58,1.09 25.68,1.3 37.49,6.4 10.67,5.59 14.18,20.12 7.01,29.9 -9.14,3.22 -19.05,3.25 -28.62,3.68 -23.47,0.18 -46.96,0.56 -70.41,-0.41 -21.89,-17.6 -22.88,-49.3 -16,-74.44zm189.2 3.33c9.88,-2.49 19.81,-4.96 29.87,-6.76 3.15,21.03 1.77,46.18 -16.16,60.58 -13,11.93 -31.69,9.32 -47.9,9.42 -6.58,0.28 -10.39,-6.17 -12.37,-11.53 -3.05,-7.47 2.01,-14.63 5.95,-20.6 1.57,5.99 2.51,12.6 7.08,17.22 4.85,6.96 15.9,5.99 21.26,0.15 13.18,-12.19 14.63,-31.72 12.27,-48.48zm-638.07 -9.68c2.23,3.45 4.5,6.91 6.73,10.39 -19.76,31.36 -53.74,52.55 -90.14,58.47 -3.68,-3.13 -7.39,-6.25 -11.1,-9.35 39.37,0.13 77.26,-24.46 94.51,-59.51zm-130.8 -71.73c6.24,0.21 12.34,1.68 18.23,3.71 30.48,8.84 61.04,17.45 91.46,26.52 1.6,3.91 3.15,7.85 4.7,11.78 -5.41,20.8 -18.03,40.03 -36.37,51.56 -10.13,6.23 -21.74,12.09 -33.98,10.09 -15.98,-33.94 -29.21,-69.16 -44.04,-103.66zm23.29 30.84l0 0c4.65,13.08 10.26,25.83 15.74,38.58 2.52,5.28 4.78,11.28 9.81,14.7 8.48,2.29 16.05,-2.33 21.92,-7.92 -4.47,-1.45 -10.19,-0.69 -13.59,-4.5 -12.52,-12.57 -22,-27.73 -33.88,-40.86zm-166.59 252.26c32.74,-9.07 65.58,-17.78 98.32,-26.95 3.35,-1.02 6.78,-1.65 10.26,-1.96 5.28,0.69 5.69,6.94 7.54,10.82 7.14,24.31 3.71,52.2 -11.35,72.9 -3.61,4.67 -7.24,10.01 -13.29,11.63 -27.81,-19.91 -56.15,-39.11 -83.94,-59.08 -2.95,-1.98 -5.23,-4.72 -7.54,-7.36zm35 16.3l0 0c11.27,8.99 24.35,15.39 36.44,23.17 5.46,2.84 10.44,7.67 16.94,7.59 5.49,-3.43 7.37,-10.11 10.72,-15.29 -6.14,0.81 -12.49,1.3 -18.54,-0.56 -15.34,-4.49 -30.55,-9.45 -45.56,-14.91zm24.84 239.79c8.84,-9.32 23.52,-2.33 30.09,6.35 12.91,16.87 16.49,39.52 13.44,60.2 -1.68,6.6 -3.89,14.32 -9.88,18.26 -19.76,1.24 -39.16,-3.96 -58.72,-5.74 -16.99,-3.63 -34.62,-4.45 -51.28,-9.42l-2.26 -2.29c25.73,-22.98 52.24,-45.08 78.61,-67.36zm4.85 59.31l0 0c-17.98,2.21 -36.07,3.68 -54.18,4.75 24.33,2.59 48.62,6.17 73.1,6.73 6.1,-7.57 6.2,-17.4 5.61,-26.59 -6.12,7.77 -14.63,13.61 -24.53,15.11zm93.67 203.85c1.32,-4.6 6.27,-6.4 10.59,-6.63 31.85,-2.54 62.38,24.76 64.94,56.31 1.48,9.57 -5.15,18.69 -14.04,21.74 -28.98,9.37 -57.91,18.8 -86.79,28.42 -3.3,1.15 -6.7,1.63 -10.23,1.47 12.34,-33.6 23.69,-67.56 35.53,-101.31zm36.09 51.84l0 0c-14.35,11.17 -30.78,19.25 -45.85,29.41 22.3,-8.15 46.1,-13.99 66.19,-26.92 0.59,-8.76 -4.39,-16.56 -7.74,-24.28 -3.2,7.72 -5.77,16.35 -12.6,21.79zm685.23 -36.17c4.5,-6.63 15.93,-4.04 17.55,3.66 7.75,26.82 14.35,53.95 21.49,80.92 1.14,3.81 1.68,7.72 1.6,11.73 -25.58,-8.61 -50.59,-18.72 -75.81,-28.24 -6.3,-2.41 -14,-5.23 -15.83,-12.52 -3.17,-11.81 -0.56,-24.82 6.2,-34.93 17.04,-0.66 32.81,-8.73 44.8,-20.62zm-40.97 44.07l0 0c-0.1,5.69 5.24,9.19 9.81,11.33 17.17,7.69 34.82,14.22 52.24,21.28 -14.5,-11.43 -31.36,-19.61 -45.74,-31.24 -4.7,-5.54 -5.92,-12.98 -8.43,-19.56 -3.18,5.74 -7.8,11.28 -7.88,18.19zm-388.29 81.68l0 0c4.24,8.53 8.15,17.98 5.99,27.71 -3.58,14.88 -10.64,28.57 -15.64,42.97 -2.44,1.91 -6.28,7.14 -3.03,9.35 10.16,-21.28 23.6,-41.17 32.72,-63.06 1.29,-10.82 -12.42,-13.39 -20.04,-16.97z"/>
  </g>
 </g>
</svg>
