<?xml version="1.0" encoding="UTF-8"?>
<!DOCTYPE svg PUBLIC "-//W3C//DTD SVG 1.1//EN" "http://www.w3.org/Graphics/SVG/1.1/DTD/svg11.dtd">
<!-- Creator: CorelDRAW -->
<svg xmlns="http://www.w3.org/2000/svg" xml:space="preserve" width="2000px" height="1600px" version="1.1" style="shape-rendering:geometricPrecision; text-rendering:geometricPrecision; image-rendering:optimizeQuality; fill-rule:evenodd; clip-rule:evenodd"
viewBox="0 0 2000 1600"
 xmlns:xlink="http://www.w3.org/1999/xlink">
 <defs>
  <style type="text/css">
   <![CDATA[
    .fil0 {fill:#002C61;fill-rule:nonzero}
    .fil1 {fill:#C5950A;fill-rule:nonzero}
    .fil4 {fill:#D2AB4B;fill-rule:nonzero}
    .fil5 {fill:#E1C481;fill-rule:nonzero}
    .fil3 {fill:#F3E7C7;fill-rule:nonzero}
    .fil2 {fill:#FEFEFE;fill-rule:nonzero}
   ]]>
  </style>
 </defs>
 <g id="Capa_x0020_1">
  <metadata id="CorelCorpID_0Corel-Layer"/>
  <g id="FIU_x0020_Panthers.cdr">
   <path class="fil0" d="M877.15 18.05c70.26,0 140.5,-0.02 210.77,0 0,39.2 0,78.42 0,117.61 -12.62,0 -25.22,0.03 -37.82,0 -0.05,99.57 0,199.11 -0.03,298.67 12.63,0.02 25.25,0 37.87,0.07 -0.02,14.72 -0.04,29.44 0.05,44.16 6.08,4.17 12.18,8.33 17.98,12.92 12.88,11.6 25.78,23.2 38.47,35.01 27.07,-6.85 55.22,-6.43 82.91,-5.2 9.65,0.47 19.27,1.52 28.88,2.63 -23.19,-24.05 -46.11,-48.39 -69.31,-72.45 -0.04,-105.27 -0.02,-210.54 -0.02,-315.81 -12.6,0 -25.18,0 -37.78,0.03 -0.14,-39.22 -0.14,-78.44 0,-117.69 64.82,0.1 129.61,0 194.4,0.05 0,39.2 0,78.42 0,117.61 -7.36,0 -14.72,0 -22.08,-0.02 -0.09,95.95 -0.04,191.91 -0.02,287.88 3.47,3.59 6.92,7.2 10.37,10.83 28.64,-0.28 57.27,0.96 85.91,0.63 3.82,-3.98 7.62,-7.99 11.41,-11.97 0,-95.79 0,-191.56 0,-287.35 -8.71,0 -17.42,0 -26.13,0.03 -0.14,-39.22 -0.09,-78.44 -0.02,-117.66 65.93,0.02 131.89,0.04 197.82,-0.03 0.19,39.22 0.12,78.47 0.02,117.69 -12.57,-0.03 -25.17,-0.03 -37.77,-0.03 0,105.27 0.02,210.54 -0.02,315.81 -31.47,32.86 -62.91,65.75 -94.3,98.68 -42.97,0.07 -85.94,0.26 -128.89,-0.12 7.03,5.52 14.07,11.18 19.68,18.24 17.09,21.89 14.16,51.35 10.83,77.13 -5.92,37.29 -10.64,75.02 -22.17,111.1 -9.88,31.81 -22.85,62.67 -38.73,91.94 22.75,10.9 41.5,29.65 53.24,51.92 4,9.15 14.32,12.41 20.73,19.51 11.99,12.44 21.47,28.95 20.79,46.7 -0.25,14.3 -4.37,29.02 -13.48,40.24 -5.96,7.64 -15.93,10.04 -22.83,16.54 -5.93,5.31 -12.15,10.74 -19.91,13.11 -4.47,1.61 -9.73,-0.6 -11.78,-4.84 -0.61,-4.27 0.91,-8.39 1.74,-12.49 -19.75,-0.04 -36.98,-10.24 -54,-18.91 -13.28,-6.63 -28.02,-9.27 -41.88,-14.39 -6.33,-2.24 -12.76,-5.03 -19.61,-4.61 -11.02,0.63 -22.36,3.19 -33.16,-0.35 -14.44,-4.22 -29.95,-11.32 -45.05,-5.94 -18.23,7.43 -30.32,23.76 -44.22,36.91 -8.43,8.85 -18.71,15.63 -29.49,21.24 -6.24,30.7 -16.86,60.63 -18.82,92.09 -1.56,20.12 -8.17,40.83 -23.24,54.94 -19.33,19.1 -47.6,25.18 -73.94,25.16 -24.34,-0.38 -49.84,-1.22 -72.04,-12.42 -2.93,13.32 -6.03,26.6 -8.94,39.92 21.84,32.4 43.15,65.35 59.99,100.68 25.16,4.12 49.24,15.91 66.94,34.42 4.68,4.71 8.4,10.32 13.41,14.72 4.24,1.47 8.8,1.28 13.23,1.89 20.12,1.65 39.8,11.6 52.01,27.88 13.69,18.3 16.48,43.67 8.8,65 -3.12,9.52 -11.09,16.7 -13.04,26.69 -3.99,12.27 -6.1,27.15 -17.91,34.63 -3.22,-5.08 -5.62,-10.57 -7.5,-16.26 -22.78,19.89 -52.4,34.5 -83.4,30.65 -25.85,-3.79 -52.75,-9.57 -78.44,-1.72 -18.82,6.26 -36.31,16 -53.2,26.32 -19.12,11.53 -41.52,17.3 -63.83,16.6 -29.72,-0.88 -60.23,-4.91 -87.2,-18.09 -2,7.89 -3.73,15.86 -5.52,23.82l-9.15 0c-9.62,-11.01 -16.79,-24.06 -21.22,-37.96 -1.91,-6.57 -5.59,-12.34 -9.01,-18.14 -8.83,-15.16 -11.25,-33.87 -6.73,-50.8 8.54,-29.88 36.73,-52.21 67.4,-55.59 4.12,-12.3 10.87,-23.48 19.19,-33.4 -45.28,-68.68 -85.57,-140.58 -121.64,-214.47 -11.3,-22.66 -19.54,-46.98 -22.48,-72.18 -3.31,-29.99 -2.86,-60.25 -2.7,-90.36 2.24,-80.51 10.15,-161.31 30.09,-239.49 11.2,-43.39 26.74,-86.38 52.77,-123.23 -2.84,-16.2 -5.56,-34.18 2.54,-49.37 4.57,-8.48 10.46,-18 20.71,-19.98 8.59,-2.42 16.16,3.4 22.87,7.87 20.17,-23.24 41.92,-45.16 65.16,-65.28 28.97,-24.55 63.51,-41.2 93.44,-64.49 6.24,-4.4 12.67,-8.57 19.12,-12.67 0.07,-8.71 0.07,-17.42 0.09,-26.13 12.6,0.02 25.2,0.02 37.8,0 0,-99.56 0.1,-199.13 -0.04,-298.69 -12.97,0.05 -25.97,0.02 -38.94,0.02 -0.03,-39.19 0,-78.41 0,-117.61zm-477.44 0c138.39,0 276.75,0 415.14,0 0,51.05 0,102.08 0,153.13 -44.09,-0.05 -88.15,0.14 -132.24,-0.09 0.11,-11.81 0.09,-23.64 0,-35.45 -36.29,0.14 -72.57,-0.14 -108.88,0.14 0.21,33.75 -0.07,67.49 0.14,101.24 41.87,-0.14 83.75,0.02 125.6,-0.09 0.16,36.91 0.16,73.8 0,110.72 -41.87,-0.12 -83.75,0.02 -125.62,-0.07 -0.17,29.06 0.09,58.13 -0.12,87.19 12.25,0.24 24.5,0.17 36.75,0.17 0,38.42 0,76.85 0,115.28 -70.26,0 -140.51,0 -210.77,0 0,-38.43 -0.02,-76.86 0,-115.28 13.2,-0.03 26.39,0 39.59,0 0,-99.75 0,-199.53 0,-299.28 -13.2,0 -26.39,0 -39.59,0 0,-39.19 0,-78.41 0,-117.61z"/>
   <path class="fil1" d="M634 758.17c8.46,-25.87 19.03,-51.35 34.54,-73.87 3.73,8.73 5.99,18.09 10.92,26.29 7.97,13.51 19.89,23.99 32.03,33.66 -15.05,40.78 -31.3,82.58 -31.12,126.74 -0.88,36.49 16.63,71.57 42.55,96.56 16.63,17.14 37.97,28.53 55.5,44.57 16.56,14.44 35.12,28.42 44.25,49.05 5.01,9.88 8.95,20.29 11.16,31.14 4.87,22.31 11.34,44.41 21.91,64.74 -0.3,-0.3 -0.9,-0.93 -1.21,-1.25 -4.91,10.04 -7.47,20.98 -10.97,31.55 -5,-3.35 -10.06,-6.68 -15.18,-9.85 -1.65,12.51 -1.49,25.65 3.75,37.36 8.17,18.1 18,35.49 24.64,54.27 8.45,23.77 13.25,48.67 21.24,72.59l-0.37 1.37c-20.45,8.74 -39.08,21.71 -53.45,38.78 -25.55,-7.61 -52.92,-4.24 -77.19,6.06 -8.29,-21.94 -14.92,-45.33 -12.01,-69.01 -3.19,3.17 -6.71,6.4 -7.78,10.99 -4.52,16.07 -2.49,32.98 -3.57,49.42 -3.67,-4.24 -7.03,-8.76 -9.68,-13.69 -15.42,-28.07 -30.93,-56.08 -46.44,-84.12 -21.8,-36.01 -38.66,-74.67 -54.5,-113.59 -6.87,-16.51 -9.36,-34.35 -11.67,-51.96 -4.47,-37.19 -6.19,-74.66 -6.61,-112.09 -0.24,-35.54 4.44,-70.82 9.2,-105.97 6.75,-47.18 15.44,-94.28 30.06,-139.74zm-252.34 -758.17l452.4 0 0.02 189.76 -171.22 0.03 0.02 -35.5 -70.5 0.1 0.1 64 125.71 -0.05 0 148.47 -125.71 -0.6 -0.07 50.05 36.12 0.04 0 151.97 -246.87 0 0 -152.57 39.06 -0.05 -0.05 -261.36 -39.01 0 0 -154.29zm749.35 0l232.59 0 -0.3 154.29 -23.29 0.05 0.07 262.01 70.4 -0.05 0 -262.01 -26.15 0.03 -0.05 -154.32 234.06 0 0 154.29 -36.68 0 0.02 304.59 -103.73 109.34 -118.45 0.05 -19.68 -18.24 128.89 0.12 94.3 -98.68 0.02 -315.81 37.77 0.03 -0.02 -117.69 -197.82 0.03 0.02 117.66 26.13 -0.03 0 287.35 -11.41 11.97 -85.91 -0.63 -10.37 -10.83 0.02 -287.88 22.08 0.02 0 -117.61 -194.4 -0.05 0 117.69 37.78 -0.03 0.02 315.81 69.31 72.45 -28.88 -2.63 -59.08 -62.3 0 -304.7 -37.26 0 0 -154.29zm-271.91 0l247.45 0 0 154.29 -37.85 0 0 262.6 37.27 0 0 74.59 -17.98 -12.92 -0.05 -44.16 -37.87 -0.07 0.03 -298.67 37.82 0 0 -117.61 -210.77 0 0 117.61 38.94 -0.02 0.04 298.69 -37.8 0 -0.09 26.13 -19.12 12.67 -0.02 -56.24 38.43 0 0.04 -262.53 -38.47 -0.07 0 -154.29zm-459.39 18.05l0 0 0 117.61 39.59 0 0 299.28 -39.59 0 0 115.28 210.77 0 0 -115.28 -36.75 -0.17 0.12 -87.19 125.62 0.07 0 -110.72 -125.6 0.09 -0.14 -101.24 108.88 -0.14 0 35.45 132.24 0.09 0 -153.13 -415.14 0zm504.99 472.31c29.93,-14.04 65.72,-19.07 96.93,-6.14 34.1,14.06 64.16,36.07 92.81,58.92 -17.61,5.26 -35.56,9.36 -52.87,15.6 21.45,0 42.58,-4.19 63.79,-6.73 26.58,-1.07 53.17,-2.51 79.77,-1.16 36.84,1.61 74.34,4.84 109.23,17.65 11.85,4.85 24.97,10.06 32.07,21.45 7.59,12.04 6.96,27.06 4.7,40.59 -8.85,55.13 -21.1,110.19 -43.1,161.71 -9,20.16 -18.82,40.45 -33.92,56.87 -21.47,-8.13 -46.02,-2.49 -64.16,10.83 -1.07,-19.75 -4.33,-39.34 -10.18,-58.25 -5.31,-20.42 -10.27,-40.99 -17.25,-60.93 10.52,-7.87 20.86,-16.13 29.62,-25.94 7.01,-7.61 9.01,-18.19 14.98,-26.46 10.64,-15.25 18.91,-33.32 17.98,-52.33 -1.26,-12.23 -5.15,-24.69 -12.86,-34.42 -5.54,-6.78 -15.81,-5.8 -21.75,-0.09 -10.62,9.27 -22.99,19.21 -38.11,17.3 -31.58,-3.49 -61.46,-16.19 -89.06,-31.44 -55.87,-28.16 -122.24,-35.59 -182.66,-18.75 -14.27,4.08 -28.78,7.76 -42.34,13.95 -25.66,12.37 -51.84,23.83 -78.92,32.72 -14.51,3.47 -30.19,8.13 -44.79,2.54 7.57,-11.76 16.49,-22.87 26.67,-32.46 24.87,-16.14 49.21,-33.12 74.5,-48.56 29.02,-16.63 58.76,-32 88.92,-46.47zm299.2 83.13l0 0c9.69,3.23 20.87,5.03 27.76,13.36 10.97,12.23 7.71,30.72 16.96,43.83 4.94,6.18 13.62,3.17 20.35,3.27 5.99,-0.31 15.09,-1.24 17.24,6.14 3.14,14.7 0.72,29.88 0.09,44.74 -0.79,19.17 -5.59,38.2 -3.42,57.44 5.68,-5.57 9.5,-12.7 12.15,-20.13 9.79,-26.2 13.07,-54.17 17.75,-81.56 1.56,-10.55 3.98,-21.89 -0.53,-32.07 -3.57,-8.38 -11.63,-13.43 -19.34,-17.51 -19.79,-10.13 -41.17,-17.54 -63.34,-19.84 -8.6,-0.82 -17.73,-1.8 -25.67,2.33zm-568.83 278.38l0 0c-11.87,48.95 -20.75,99.12 -19.95,149.66 -0.24,35.79 1.28,71.59 4.61,107.22 2,24.13 9.31,47.4 17.7,69.97 14.18,37.75 31.25,74.48 51.3,109.48 5.99,9.6 11.04,20.66 21.17,26.67 -1,-13.49 -7.54,-25.51 -12.83,-37.66 -11.97,-26.69 -24.45,-53.62 -29.95,-82.54 -2.82,-14.88 -2.1,-32 8.64,-43.74 14.44,-16.14 35.84,-26.13 57.53,-26.67 6.28,-0.53 13.25,-0.39 18.56,-4.35 -0.21,-10.69 -13.11,-16.72 -12.9,-27.58 1.04,-13.02 9.99,-23.38 14.6,-35.19 3.63,-9.87 -1.35,-20.75 -8.32,-27.85 -13.81,-14.14 -28.71,-27.16 -42.55,-41.29 -14.71,-14.86 -30.85,-29.3 -39.75,-48.68 -10.3,-20.36 -11.06,-43.6 -12.2,-65.91 -1.05,-10.22 -1.03,-21.24 -6.18,-30.42 -5,-5.68 -8.1,5.1 -9.48,8.88z"/>
   <path class="fil2" d="M805.74 790.31c4.96,3.38 9.92,6.76 15,9.99 -0.26,10.16 4.73,21.45 15.28,24.27 8.31,3.26 16.74,-1.21 22.98,-6.54 3.75,1.39 7.53,2.79 11.32,4.21 -4.16,5.69 -9.17,11.21 -16.09,13.46 -17.68,6.64 -39.17,-3.7 -46,-21.07 -3.4,-7.66 -2.77,-16.19 -2.49,-24.32zm-144.88 737.77c1.25,-11.55 5.35,-25.03 16.72,-30.32 9.2,-3.12 13.27,10.55 6.17,15.35 -12.97,13.09 -14.58,32.07 -17.58,49.21 -6.48,-10.08 -5.99,-22.75 -5.31,-34.24zm368.16 -81.79c0.33,-10.06 14.02,-14.02 20.49,-6.73 14.05,15.35 13.77,38.15 12,57.62 -5.71,-9.6 -8.67,-21.06 -17.07,-28.86 -6.34,-6.26 -14.54,-12.48 -15.42,-22.03zm-257.72 -13.07c6.42,-5.03 16.86,0.4 17.14,8.41 -4.38,7.69 -10.3,14.6 -13.02,23.18 -4.66,11.29 -5.1,23.61 -6.2,35.61 -10.29,-12.02 -11.13,-28.79 -8.85,-43.72 1.63,-8.5 4.64,-17.28 10.93,-23.48zm136.94 -47.27c6.66,-4.94 15.56,0.69 17.19,7.96 6.1,20.64 3.54,43.27 -3.4,63.37 -3.68,-13.79 -5.43,-28.97 -15.14,-40.15 -7.24,-8.73 -9.9,-24.55 1.35,-31.18zm-5.89 -295.29c4.96,9.5 10.41,19.4 20.26,24.68 1.33,-0.37 3.98,-1.07 5.33,-1.44 12.23,2.47 24.83,2.05 37.17,0.47 0.86,0.93 2.56,2.81 3.4,3.75 8.15,-5.41 13.42,-13.65 19.17,-21.29 0.81,0.16 2.49,0.53 3.31,0.7 0.7,11.94 0.93,25.8 -7.5,35.33 -6.06,3.05 -13.63,1.46 -18.47,-3.15 -12.74,7.22 -28.18,3.59 -41.29,-0.7 -6.62,9.53 -20.08,3.92 -23.06,-5.77 -3.26,-10.41 -4.84,-23.04 1.68,-32.58zm47.53 -82.17c7.64,-4.05 15.68,0.4 23.2,2.38 15.21,4.84 31.35,5.38 46.79,9.08 2.72,5.4 -0.14,11.41 -2.01,16.63 -4.4,9.52 -8.47,20 -17.35,26.29 -0.18,-14.07 -1.3,-28.41 -7.8,-41.15 -2.72,3.82 -5.38,7.73 -8.06,11.6 -24.54,0.72 -49.07,2.3 -73.59,3.16 -3.22,-2.11 -6.43,-4.21 -9.64,-6.26 -7.74,13.76 -12.49,29.02 -13.3,44.86 -17.38,-6.64 -19.73,-28.6 -19.03,-44.72 27.74,-3.89 54.85,-11.27 80.79,-21.87zm410.32 -30.53c3.14,-0.1 7.64,-1.7 8.24,2.84 3.99,12.99 -2.39,27.57 -12.48,36.05 1.63,-6.64 4.75,-12.92 5.33,-19.79 0,-6.41 -1.88,-12.7 -1.09,-19.1zm-65.33 -50.54c4.12,-2.75 9.81,-0.3 11.16,4.33 4.17,14.65 -0.3,31.23 -10.86,42.15 1.26,-10.2 3.78,-20.54 1.66,-30.81 -0.68,-5.21 -3.5,-10.38 -1.96,-15.67zm-85.98 -16.07c2.53,-4.47 8.45,-5.52 11.43,-0.91 0.05,5.78 -3.24,10.69 -5.33,15.88 -4.75,10.21 -7.27,21.24 -11.25,31.72 -4.96,-15.2 -3.87,-33.16 5.15,-46.69zm-145.22 -112.82c4.31,-2.7 8.62,-5.38 12.95,-8.03 1.94,12.67 0.89,27.71 -10.15,36.14 -15.28,14.12 -42.13,10.28 -52.8,-7.61 3.75,-1.31 7.52,-2.52 11.3,-3.75 5.82,7.34 15.6,12.92 24.96,8.83 10.76,-3.08 15.54,-15.23 13.74,-25.58z"/>
   <path class="fil3" d="M855.07 498.84c31.63,-24.43 71.19,-38.61 111.25,-38.82 18.92,0.35 37.59,4.54 55.32,11.04 37.63,12.78 69.38,38.08 97.98,65 -8.41,2.33 -16.77,4.75 -25.18,7.08 -28.65,-22.85 -58.71,-44.86 -92.81,-58.92 -31.21,-12.93 -67,-7.9 -96.93,6.14 -30.16,14.47 -59.9,29.84 -88.92,46.47 -25.29,15.44 -49.63,32.42 -74.5,48.56 8.31,-10.27 18.44,-18.8 27.92,-27.9 25.6,-23.76 57.55,-38.69 85.87,-58.65zm-0.54 656.96c0.31,0.32 0.91,0.95 1.21,1.25 3.94,6.11 7.81,12.26 12.28,18.01 -4.12,12.74 -8.36,25.45 -12.72,38.1 -5.66,-7.48 -10.94,-15.25 -17.44,-22.06 0.81,7.29 1.74,14.93 6.08,21.13 24.19,39.47 45.06,80.93 62.09,123.99 -9.13,1.47 -18.01,4.15 -27,6.15l-1.02 -0.65c-7.99,-23.92 -12.79,-48.82 -21.24,-72.59 -6.64,-18.78 -16.47,-36.17 -24.64,-54.27 -5.24,-11.71 -5.4,-24.85 -3.75,-37.36 5.12,3.17 10.18,6.5 15.18,9.85 3.5,-10.57 6.06,-21.51 10.97,-31.55zm104.39 -229.29c11.04,-16.02 31.53,-19.75 49.63,-21.01 3.42,-0.04 8.83,-0.81 9.85,3.61 2.61,7.43 -1.49,16.42 -8.55,19.82 -9.71,5.94 -22.89,-0.28 -31.79,7.55 -6.17,4.21 -5.73,12.58 -9.62,18.26 -6.47,4.49 -16.3,4.38 -22.24,-1.05 -6.01,-5.24 -7.03,-14.25 -13.27,-19.19 -11.7,-6.03 -26.48,-5.61 -36.75,-14.49 -4.69,-3.42 1.28,-8.87 5.1,-9.71 13.04,-2.49 26.34,1.19 38.98,4.33 7.5,1.56 13.3,6.76 18.66,11.88zm160.91 -232.41c7.77,11.97 15.81,23.94 20.82,37.41 10.5,27.13 21.24,54.52 25.55,83.44 2.81,18.5 3.75,37.29 3.07,55.97 -0.44,11.32 -5.05,21.98 -11.02,31.44 -10.57,16.44 -22.07,32.63 -37.21,45.23 -2.45,-9.99 -5.06,-19.91 -7.69,-29.84 15.72,-11.27 34.73,-22.52 40.29,-42.36 4.82,-25.5 0.05,-51.63 -4.75,-76.79 -5.54,-25.94 -9.92,-52.63 -21.94,-76.57 -4.44,-8.64 -7.05,-18.17 -7.12,-27.93zm-14.47 -142.09c18.66,-3.58 37.5,-6.01 56.32,-8.52 33.42,-4.78 67.24,-0.61 100.42,4.05 25.62,4.47 52.26,9.99 73.41,26.11 12.42,9.48 16.77,26.15 16,41.13 -6.43,56.82 -14.79,114.19 -36.03,167.64 -8.62,19.96 -15.88,40.62 -26.78,59.5 -4.8,8.67 -14.39,12.18 -23.13,15.47 -3.77,-2.85 -7.61,-5.57 -11.46,-8.27 15.1,-16.42 24.92,-36.71 33.92,-56.87 22,-51.52 34.25,-106.58 43.1,-161.71 2.26,-13.53 2.89,-28.55 -4.7,-40.59 -7.1,-11.39 -20.22,-16.6 -32.07,-21.45 -34.89,-12.81 -72.39,-16.04 -109.23,-17.65 -26.6,-1.35 -53.19,0.09 -79.77,1.16z"/>
   <path class="fil4" d="M854.49 596.29c56.82,-22.64 122.01,-23.55 179.44,-2.43 21.13,8.69 41.3,19.75 60.39,32.28 11.67,6.83 12.58,24.55 27.44,27.16 -1.24,-5.43 -2.61,-10.81 -3.7,-16.23 13.95,-4.29 27.55,4.7 41.66,2.47 11.93,-0.77 22.24,-7.25 32.33,-13.02 -8.25,13.85 -17.49,27.22 -27.93,39.54 -5.66,6.94 -14.88,9.92 -20.14,17.19 -3.85,8.13 -2.64,17.51 -3.26,26.22 -5.29,-8.29 -11.09,-17.11 -21.13,-20.05 0.07,1.17 0.19,3.52 0.24,4.68 0.07,9.76 2.68,19.29 7.12,27.93 12.02,23.94 16.4,50.63 21.94,76.57 4.8,25.16 9.57,51.29 4.75,76.79 -5.56,19.84 -24.57,31.09 -40.29,42.36 -5.56,-12.78 -9.69,-30.57 -25.71,-33.6 -19.49,-2.94 -38.57,-8.13 -57.25,-14.42 -3.84,-1.7 -8.99,-3.45 -9.87,-8.17 -0.89,-6.08 1.07,-13.49 6.52,-16.89 7.69,-0.33 15.28,2 22.99,1.12 12.22,-1.4 23.82,-8.22 30.93,-18.31 8.4,-12.78 6.05,-29.43 13.76,-42.57 4.12,-5.92 11.99,-8.99 13.88,-16.44 2.24,-10.41 13.72,-16.52 11.83,-28.16 -16.02,7.36 -27.53,21.24 -42.39,30.39 -20.84,13.79 -44.11,23.18 -66.6,33.87 -13.35,6.05 -25.86,16.72 -27.81,32.11 3.91,-2.12 7.78,-4.33 11.64,-6.5 1.07,7.34 1.17,14.75 0.96,22.15 -0.4,12.98 6.1,24.55 10.87,36.17 -5.38,3.75 -11.22,7.01 -17.7,8.29 -23.64,5.29 -48.04,3.22 -71.89,0.98 -7.99,-1.14 -16.56,-1.37 -23.52,-5.89 0.49,-9.6 4.65,-18.45 6.75,-27.72 3.07,-11.2 3.12,-22.89 3.77,-34.39 3.22,1.25 6.48,2.6 9.71,3.88 0.73,-3.28 1.45,-6.54 2.15,-9.8 -16.31,-10.15 -35.24,-14.65 -52.5,-22.87 -22.87,-10.9 -45.88,-22.64 -64.7,-39.9 -7.22,-6.98 -14.65,-14.69 -17.39,-24.64 -6.55,-27.18 -2.57,-56.47 9.99,-81.35 12.9,-26.38 35.98,-47.07 62.72,-58.8zm58.22 465.21c8.57,-0.1 17.14,-0.07 25.74,-0.05 2.88,5.99 5.93,11.92 9.41,17.61 2.95,-5.71 5.42,-11.62 7.52,-17.7 8.01,0.25 16.04,0.7 24.03,1.42 -1.33,9.52 -1.05,19.59 -5,28.53 -5.8,7.08 -16.14,6.61 -24.46,6.87 -8.64,-0.56 -18.68,0.3 -25.52,-6.03 -8.65,-7.69 -10.04,-19.89 -11.72,-30.65zm-139.41 -301.44c10.57,3.93 16.28,16 17.44,26.74 2.36,19.79 7.36,41.54 23.81,54.54 11.78,9.74 27.78,10.64 42.38,9.48 5.66,-0.98 12.48,2.89 12.79,8.94 -4.06,5.52 -10.99,7.64 -17.31,9.36 -17.21,4.57 -34.88,-0.09 -51.68,-4.12 -11.55,-3.09 -24.73,-8.17 -29.32,-20.31 -8.5,-17.16 -2.23,-36.42 0.54,-54.17 2.05,-10.22 -1.77,-20.45 -0.38,-30.67l1.73 0.21zm-81.24 -130.66c8.88,3.8 17.28,9.18 26.97,10.67 8.78,1.75 17.73,0.42 26.39,-1.12 15.05,-2.72 30.09,-5.35 45.14,-8.01 -17.21,18.42 -31,39.73 -42.39,62.16 6.24,0.61 16.86,0.47 13.72,9.92 -11.88,44.74 -23.08,89.76 -31.1,135.39 -1.91,11.29 -3.02,23.91 3.45,34.05 8.48,12.99 20.38,23.19 30.49,34.84 4.66,4.61 2.82,11.69 2.51,17.51 -1.93,12.55 -4.63,27.44 -16.88,34.07 -23.11,-18.67 -42.53,-43.9 -47.7,-73.76 -7.03,-36.65 5.66,-72.94 16.65,-107.45 8.43,-24.97 22.22,-49.38 19.82,-76.67 0.07,-11.9 -8.17,-21.24 -16.04,-29.21 -12.21,-12.6 -22.53,-27.06 -31.03,-42.39zm1.56 57.9c-17.35,-14.62 -23.56,-41.2 -12.94,-61.58 4.09,15.31 8.12,30.89 15.88,44.84 4.24,7.78 10.22,14.41 14.74,22.03 -6.15,-0.56 -12.85,-0.93 -17.68,-5.29zm507.56 -66.4c10.34,19.19 3.91,44.44 -12.44,58.11 -4.54,3.96 -10.76,4.31 -16.44,4.87 4.7,-7.66 10.66,-14.53 14.74,-22.59 6.73,-12.67 10.39,-26.62 14.14,-40.39zm-329.58 -4.93l0 0c-28.22,16.76 -51.58,42.2 -64.79,72.36 -4.19,10.22 -8.8,21.05 -6.8,32.37 12.25,-5.01 23.31,-12.46 35.54,-17.54 15.68,-6.54 32.1,-12.15 49.17,-13.27 5.84,-0.7 11.31,1.53 16.46,4.03 -3.16,3.09 -6.43,6.19 -10.36,8.36 -14.53,8.24 -29.25,16.84 -41.06,28.83 -5.43,5.33 -5.29,14.18 -1.24,20.26 6.34,10.62 19.06,13.86 29.47,18.96 16.74,7.94 34.14,14.91 49.46,25.46 10.16,6.73 15.96,17.63 21.97,27.83 3.51,-59.72 -12.77,-118.59 -9.69,-178.31 0.65,-8.29 1.81,-17.3 7.5,-23.8 5.91,-6.22 14.39,-8.76 21.21,-13.7 3.26,-1.67 4.15,-8.15 -0.72,-8.01 -32.49,-7.82 -67.54,-0.6 -96.12,16.17z"/>
   <path class="fil5" d="M850.85 1382.03c21.06,-21.94 52.08,-35.05 82.63,-31.83 21.29,2 41.23,13.39 54.57,29.99 6.41,7.67 11.11,16.56 15.77,25.37 14.28,-4.96 30.65,-7.11 44.44,0.44 23.96,11.71 34.35,41.76 27.11,66.7 -2.17,-17.82 -10.86,-36.91 -28.53,-43.88 -13.82,-4.77 -28.14,5.15 -33.54,17.66 -7.06,14.09 0,31.72 12.39,40.33 6.43,5.38 15.09,8.53 19.56,15.96 -15.86,6.57 -35.28,8.1 -50.35,-1.31 -10.25,-6.03 -16.72,-16.28 -22.89,-26.08 -12.07,11.67 -29.12,15.88 -45.4,16.84 -18.77,1.07 -38,-4.73 -52.51,-16.84 -7.36,-5.99 -12.56,-14.11 -19.64,-20.4 -1.58,8.57 -1.28,17.63 -5.12,25.66 -10.16,22.48 -31.33,38.97 -54.85,45.6 -16.04,4.8 -33.09,3.82 -49.44,1.38 -5.2,10.55 -9.9,22.22 -20.05,29.04 -11.79,9.01 -27.56,9.83 -41.55,6.57 3.77,-13.23 13.95,-22.55 22.22,-32.96 10.64,-13.04 4.35,-33.84 -9.6,-41.78 -9.08,-5.75 -21.96,-5.03 -30,2.26 -10.66,10.67 -16.42,25.11 -19.23,39.71 -4.27,-12.72 -4.69,-26.99 0.79,-39.38 7.92,-17.82 24.92,-30.77 43.64,-35.4 7.46,-1.98 15.23,-1.75 22.76,-3.24 4.23,-2.91 4.12,-8.69 5.63,-13.11 4.78,-22.52 23.13,-40.9 45.04,-47.26 19.45,-5.52 40.67,-3.17 59.02,5.08 3.87,1.35 7.64,3.84 11.88,3.68 5.61,-5.85 9.57,-13.02 15.25,-18.8zm176.31 -333.85c4.05,-8.43 4.89,-17.87 6.01,-27.02 3.93,2 8.45,3.33 11.52,6.68 -2.44,22.76 -10.62,44.44 -13.99,67.05 -3.87,19.13 -3.24,39.5 -11.39,57.55 -7.36,15.77 -24.88,22.85 -41.16,24.95 -20.19,2.35 -40.8,2.58 -60.9,-0.79 -13.23,-2.05 -25.55,-9.83 -32.28,-21.5 -5.38,-9.57 -4.84,-20.96 -4.75,-31.56 6.64,9.08 14.02,18.82 25.46,21.89 23.61,6.55 48.95,8.3 73.06,3.38 10.15,-1.93 20.31,-7.71 24.1,-17.82 6.69,-16.72 6.8,-35.07 9.81,-52.61 1.74,-11.36 10.41,-19.77 14.51,-30.2zm-210.45 -140.14c18.28,-7.5 38.64,-1.86 56.11,5.17 9.41,3.47 12.73,13.77 19.77,20.03 12.22,11.34 30.16,13.51 42.08,25.29 5.66,5.5 12.7,9.18 19.19,13.56 0.86,8.08 0.17,18.96 -8.4,22.75 -18.4,8.99 -37.94,15.89 -58.02,19.99 -18.82,3.35 -40.45,3.91 -56.41,-8.27 -15.74,-11.27 -21.63,-30.98 -25.22,-49.07 10.78,-0.56 21.8,-0.73 32.33,2.12 6.24,1.28 12.48,4.19 18.98,2.84 2.68,-3.45 -1.05,-7.13 -3.96,-8.53 -15.74,-6.15 -32.98,-4.66 -49.47,-3.96 -3.26,-6.43 -3.63,-13.74 -4.19,-20.77 14.79,-1.4 29,2.79 43.3,5.4 5.21,1.82 6.05,-5.61 1.97,-7.26 -12.94,-7.18 -28.55,-5.78 -42.87,-6.5 4.1,-5.13 8.5,-10.41 14.81,-12.79zm221.11 -5.17c2.1,-4.54 7.48,-5.82 12.02,-6.1 12.27,-0.89 24.9,0.93 36.26,5.73 6.57,2.86 7.39,10.64 8.85,16.74 -11.62,0.77 -24.2,-1.98 -35.03,3.34 -3.09,1.11 -5.1,7.77 -0.46,7.91 12.09,0.47 24.1,-3.47 36.33,-2.47 -0.3,6.64 -1.07,13.23 -2.14,19.8 -12.35,-0.21 -25.04,-1.89 -37.06,1.65 -3.88,1.1 -9.68,4.97 -6,9.39 13.23,0.05 26.1,-4.47 39.45,-3.42 -3.94,14.51 -7.01,31.2 -19.45,41.08 -19.77,13.09 -44.81,11.57 -67.17,7.73 -11.29,-2.3 -23.26,-3.26 -33.65,-8.64 -6.64,-3.66 -3.96,-12.6 -2.49,-18.47 1.67,-7.15 8.24,-10.9 13.93,-14.58 8.36,-5.24 14.11,-13.65 22.45,-18.91 7.96,-5.12 17.32,-8.8 23.03,-16.74 5.73,-6.97 7.64,-15.96 11.13,-24.04zm162.03 -33.67c13.27,-6.25 28.55,-13.23 43.34,-7.99 9.15,2.93 14.28,11.62 18.45,19.65 10.73,-5.56 22.77,-10.99 35.17,-8.52 29.81,6.99 53.45,37.59 48.46,68.61 3.21,-4.68 6.17,-9.53 8.83,-14.56 12.9,9.51 26.87,20.96 29.43,37.8 1.57,7.27 -2.3,13.81 -5.98,19.71 -3.03,-5.59 -5.22,-14.33 -12.97,-14.61 -9.67,0.21 -15.07,9.76 -16.42,18.26 -8.5,-6.17 -14.09,-16.18 -12.35,-26.87 -8.36,3.14 -17.37,3.28 -26.17,2.63 4.05,-11.97 9.13,-25.83 2.86,-37.92 -4.89,-10.41 -20.66,-13.69 -28.16,-4.26 -7.35,7.99 -2.14,19.19 -0.39,28.3 -12.25,-5.5 -22.94,-14.37 -28.39,-26.85 -7.69,6.07 -16.63,10.31 -26.62,10.68 1.68,-6.96 4.45,-14.55 1.35,-21.56 -3.24,-9.67 -17.42,-14.04 -24.8,-6.43 -3.68,4.4 -5.76,9.81 -8.76,14.65 -4.71,-2.75 -8.9,-6.2 -12.55,-10.18 3,-10.92 4.82,-22.1 7.05,-33.16 0.24,-4.57 5.43,-5.41 8.62,-7.38zm-311.45 521.99l0 0c-4.08,12.95 -1.33,27.55 6.03,38.82 3.84,6.15 11.15,9.53 13.88,16.44 3.77,9.13 5.1,19.03 7.87,28.49 10.39,-5.85 16.07,-16.7 22.36,-26.32 8.66,-14.6 17.61,-31.07 14.35,-48.65 -1.61,-14.16 -11.37,-28.53 -26.25,-30.72 -16,-3.59 -32.79,6.85 -38.24,21.94zm-137.37 51.77l0 0c-14.2,31.02 4.36,69.85 34.43,83.38 -0.82,-16.61 -1.12,-34.57 9.15,-48.68 4.82,-8.8 17.3,-12.72 17.21,-24.03 3.35,-20.83 -18.93,-39.71 -39.01,-34.57 -11.53,2.54 -17.05,14.28 -21.78,23.9z"/>
  </g>
 </g>
</svg>
