<?xml version="1.0" encoding="UTF-8"?>
<!DOCTYPE svg PUBLIC "-//W3C//DTD SVG 1.1//EN" "http://www.w3.org/Graphics/SVG/1.1/DTD/svg11.dtd">
<!-- Creator: CorelDRAW -->
<svg xmlns="http://www.w3.org/2000/svg" xml:space="preserve" width="2000px" height="1600px" version="1.1" style="shape-rendering:geometricPrecision; text-rendering:geometricPrecision; image-rendering:optimizeQuality; fill-rule:evenodd; clip-rule:evenodd"
viewBox="0 0 2000 1600"
 xmlns:xlink="http://www.w3.org/1999/xlink">
 <defs>
  <style type="text/css">
   <![CDATA[
    .fil1 {fill:#11537E;fill-rule:nonzero}
    .fil2 {fill:#BA2E4B;fill-rule:nonzero}
    .fil0 {fill:#D1D4D7;fill-rule:nonzero}
    .fil3 {fill:#FEFEFE;fill-rule:nonzero}
   ]]>
  </style>
 </defs>
 <g id="Capa_x0020_1">
  <metadata id="CorelCorpID_0Corel-Layer"/>
  <g id="Florida_x0020_Atlantic_x0020_Owls.cdr">
   <path class="fil0" d="M108.19 50l16.62 0c33.62,16.12 70.36,23.95 106.26,33.14 31.36,7.19 62.67,15.74 95,16.91 87.26,5 174.69,4.74 262.05,4.71 72.19,0.24 144.38,-1.05 216.6,-1.76 8.54,-0.14 17.33,0.67 25.71,-1.57 11.62,-6.45 16.16,-24.62 31.52,-23.55 68.26,0.21 136.53,-1.09 204.79,-1.21 9.02,0.12 18.33,-1.55 27.19,0.66 10.33,8.17 15.71,21.05 26.19,29.08 4.12,1.42 8.6,1.42 12.93,1.68 153.12,2.98 306.33,5.53 459.43,0.05 45.19,-2.09 90.62,-3.88 135.33,-11.35 43.81,-8.58 87.45,-18.43 130.14,-31.55 13.55,-3.95 26.36,-9.83 39.36,-15.24l16.57 0c12.93,5.45 21.86,19.02 19.72,33.26 -3.5,25.48 -16.24,48.64 -31.05,69.29 2.71,8.05 6.02,16.62 3.78,25.21 -2.97,12.07 -10.5,22.31 -17.88,32.05 -13.4,17.64 -30.71,31.81 -49.52,43.33 -0.64,8.6 -0.41,17.96 -5.67,25.31 -20.43,29.34 -50.04,52.31 -84.12,63.53 -1.97,10.62 -3.5,21.73 -9.31,31.09 -6.92,11.55 -18.69,18.76 -29.09,26.76 3.45,9.67 5.74,19.96 11.19,28.79 11.19,3.4 23.14,3.07 34.69,4.76 13.1,23.67 25.64,47.62 38.91,71.19 38.09,5.36 76.09,11.22 114.11,17.1 14,2.07 30.38,5.04 38.29,18.23 8.31,13.51 0.33,30.86 -11.81,39.03 -30.74,20.78 -63.55,38.38 -93.86,59.76 38.74,35.95 79.53,69.64 119.05,104.72 13.88,12.92 31.48,23.49 38.69,41.92l0 17.1c-5.38,7.26 -11.45,15.14 -20.81,17.17 -15.64,3.47 -31.31,-2 -46.69,-4.31 -37.14,-6.26 -74.21,-13.24 -111.55,-18.22 24.5,22.69 48.36,46.48 67.07,74.34 26.2,37.92 43.81,82.47 46.43,128.76 3.5,49.97 -10.62,100.24 -36.57,142.81 -33.66,55.35 -83.45,99.04 -137.05,134.55 -73.4,48.19 -155.07,82.47 -238.47,109.11 -126.76,39.96 -258.74,62.12 -391.19,71.17 -10.17,1.19 -22.57,-1.17 -30.15,7.36 -29.92,30.62 -63.23,57.62 -96.21,84.83l-3.64 0c-31.79,-26.38 -64,-52.5 -92.55,-82.48 -4,-4.49 -9.24,-8.07 -15.52,-7.81 -99.81,-5.14 -199.27,-18.02 -296.89,-39.54 -86.16,-19.29 -171.11,-45.22 -251.66,-81.62 -68.03,-31.02 -133.79,-69.36 -188.22,-121.17 -39.88,-37.78 -73.26,-84.14 -88.62,-137.4 -16.14,-54.95 -10.76,-115.6 13.96,-167.17 19.24,-41.71 49.4,-77.21 82.78,-108.33 -40.64,6.35 -81.05,14.04 -121.43,21.69 -10.02,1.9 -21.04,1.97 -30.12,-3.31 -5.97,-3.48 -9.73,-9.55 -12.9,-15.48l0 -16.24c7.14,-16.71 22.69,-27.04 35.69,-38.83 42.93,-37.98 86.33,-75.43 128.98,-113.71 -28.86,-18.36 -58.03,-36.22 -87.1,-54.24 -7.59,-4.86 -15.26,-10.48 -19.55,-18.65 -5,-9 -4.52,-21.07 2.31,-29.02 7.53,-9.24 19.74,-12.24 30.93,-14.12 45.67,-7.16 91.36,-14.31 137.14,-20.59 17.77,-29.98 33.72,-61 51.58,-90.93 9.57,-1.22 19.14,-2.57 28.64,-4.22 0.4,-1.74 1.21,-5.26 1.62,-7 -10.34,-8 -21.86,-15.19 -29,-26.42 -6.03,-9.27 -7.48,-20.43 -9.29,-31.1 -34.31,-11.95 -64.76,-34.76 -84.97,-65 -5.6,-7.98 -4.65,-17.98 -3.48,-27.07 -17.02,-8.34 -32.74,-19.41 -45.21,-33.74 -10.72,-12.36 -21.7,-26.02 -24.34,-42.64 -1.71,-8.98 7.69,-18.57 0.93,-26.6 -13.45,-19 -24.17,-40.52 -27.59,-63.76 -2,-14.43 6.92,-29.07 20.9,-33.5z"/>
   <path class="fil1" d="M113.12 75.02c14.38,4.19 27.86,10.93 42.33,14.84 45,13.47 90.76,24.64 136.95,33.21 65.72,7.07 131.98,6.34 197.98,7.74 117.43,0.69 234.83,-0.4 352.24,-2.26 7.29,-8.19 14.74,-16.22 22.07,-24.38 72.17,-0.27 144.36,-1.17 216.53,-1.46 9.59,9.29 17.21,20.46 25.99,30.53 110.24,3.33 220.53,4.45 330.84,4.28 85.81,-1.28 171.83,-1.66 257.36,-9.97 47.47,-4.81 93.85,-16.84 140.02,-28.53 15.17,-4.16 30.29,-8.5 45.12,-13.76 9.21,-3.17 17.81,-8.28 27.52,-9.9 -5.05,42.85 -35.62,79.45 -73.05,99.16 14.93,1.81 30.03,1.36 44.93,-0.62 -19.02,39.12 -59.09,66.1 -101.81,72.51 9.79,8.4 22.19,12.45 34.84,13.99 -19.93,33.03 -55.67,56.77 -94.22,60.89 4.93,15.38 5.62,34.5 -7.76,45.92 -9.69,-4.78 -24.38,-7.04 -30.57,4.15 -3.86,8.14 -1.55,17.62 1.26,25.74 6.33,17.16 12.43,34.45 18.72,51.64 12.28,1.74 24.71,2.52 36.88,5.07 3.04,3.26 4.78,7.52 6.95,11.38 11.95,23.12 24.4,45.98 36.31,69.12 44.95,6.64 89.98,13.02 134.78,20.57 -42.38,26.67 -85.16,52.69 -127.42,79.55 59.04,51.43 118.28,102.67 177,154.45 -58.91,-10.69 -117.98,-20.38 -177.15,-29.57 -40.59,-5.98 -81.09,-12.83 -121.85,-17.45 67.3,39.14 131.71,86.93 177.19,151.07 24.81,35.52 44.16,77.19 43.9,121.31 0.76,42.31 -14.36,83.67 -37.62,118.57 -39.21,58.98 -97.43,102.29 -158.14,137.19 -80.6,45.57 -168.53,76.88 -257.95,100.1 -114.15,29.26 -231.55,44.95 -349.19,50.21 -25.38,27 -52.48,52.41 -81.1,75.93 -26.5,-22.29 -51.55,-46.33 -74.93,-71.88 -2.19,-2.91 -5.66,-3.74 -9.12,-3.62 -101.55,-4.05 -202.88,-15.88 -302.26,-37.29 -85.21,-18.47 -169.19,-43.88 -248.67,-79.95 -47.57,-21.76 -93.62,-47.38 -135.33,-79.09 -43.57,-33.19 -83.17,-73.79 -106.79,-123.81 -20.23,-42.17 -25.64,-91.81 -12.14,-136.84 12.81,-43.21 39.19,-81.05 69.88,-113.52 39.65,-41.57 87.26,-74.6 136.98,-102.93 -95.6,13.86 -190.88,30.12 -285.79,48.12 60.91,-53.88 122.12,-107.43 183.19,-161.14 -42.4,-26.53 -84.97,-52.72 -127.31,-79.31 49.65,-8.34 99.46,-15.69 149.31,-22.62 17.58,-31.41 35.19,-62.81 52.72,-94.24 1.55,-2.19 2.57,-5.5 5.71,-5.74 9.98,-2 20.17,-2.83 30.19,-4.5 4.12,-12.88 9.24,-25.43 12.86,-38.45 2.12,-8.31 1.74,-19.64 -7.02,-24 -7.88,-4.83 -16.86,-1.02 -24.65,1.86 -13.12,-11.67 -12.76,-30.6 -7.64,-46.05 -35.83,-3.45 -68.26,-24.55 -89.52,-53.03 -1.79,-2.45 -3.24,-5.11 -4.55,-7.81 12.57,-1.52 24.81,-5.73 34.64,-13.88 -42.62,-6.64 -82.81,-33.43 -101.78,-72.62 15.04,2.08 30.28,2.29 45.38,0.7 -34.19,-17.48 -61.48,-48.81 -71.43,-86.17 -1.07,-4.41 -1.5,-8.91 -1.81,-13.41zm796.12 232.12c20.09,-34.21 40.17,-68.43 60.28,-102.62 18.53,34.12 36.72,68.43 55.12,102.62 -38.47,0 -76.93,0.03 -115.4,0zm-693.84 -165.97l0 0c4.39,8.88 12.79,14.5 20.24,20.54 33.81,26.08 74.38,41.89 115.84,50.81 -0.08,0.48 -0.19,1.46 -0.24,1.93l-2.98 -1.57c-28.9,0.34 -57.78,-1.36 -86.45,-5.14 6,8.97 15.24,14.93 24.26,20.48 27.84,16.66 59.29,25.95 90.84,32.61 -19.22,7.81 -40.2,7.84 -60.53,9.58 7.43,6.71 17.02,10.04 26.36,13.07 18.36,5.81 37.78,7.85 56.95,6.73 -1.24,5.46 -2.45,10.89 -3.57,16.36 -9.86,-0.12 -19.69,-0.12 -29.53,0.64 9.48,21.96 19.15,43.84 28.34,65.91 -10.1,26.07 -19.98,52.21 -29.81,78.38 -13.53,2.36 -27.1,4.29 -40.64,6.52 -10.91,23.31 -22.41,46.34 -33.67,69.48 92.43,-12.52 185.38,-20.79 277.9,-32.36 7.67,-21.45 15.48,-42.85 23.24,-64.26 -23.45,2 -46.93,3.43 -70.38,5.38 6.88,-18.83 13.86,-37.62 20.62,-56.5 43.72,-2.33 87.5,-3.59 131.21,-6.07 17.24,-24.05 34.84,-47.86 52.05,-71.95 -52.16,1.43 -104.33,3.83 -156.5,5.52 5.98,-22.09 12.17,-44.12 18.17,-66.19 32.57,0 65.14,-0.05 97.69,0.05 -2.48,9.29 -4.83,18.59 -7.12,27.93 40.88,0 81.74,0 122.62,0 4.64,-30.17 9.62,-60.29 14.24,-90.48 -122.34,-0.05 -244.67,0.07 -366.98,-0.05 -78.47,-2.16 -157.98,-10.3 -232.17,-37.35zm1558.86 11.92l0 0c-55.19,15.1 -112.52,20.7 -169.57,22.48 -69.74,0.05 -139.47,0.07 -209.19,-0.02 6.88,22.14 14.19,44.14 21.48,66.14 8.71,-0.05 17.45,-0.05 26.19,0.02 20.74,59.6 41.74,119.1 62.38,178.72 -33.72,-3.55 -67.53,-6.41 -101.19,-10.33 -17.24,-55.88 -32.84,-112.34 -49.43,-168.43 8.98,0 17.98,0.02 26.98,-0.1 -6.72,-22 -13.55,-43.97 -20.27,-65.97 -65.97,0.02 -131.95,0 -197.92,0 5.49,22.02 10.95,44.02 16.52,66.02 11.12,0.07 22.26,0.02 33.38,0.07 14.19,59.38 29.14,118.57 43.24,177.95 3.43,12.96 13.19,23.03 24.12,30.19 32.21,20.69 68.57,35.86 106.83,40.05 61.02,7.36 122.38,11.62 183.45,18.45 22.19,2.27 44.72,4.74 66.91,1.27 11.04,-1.84 23.28,-6 29,-16.43 5.16,-10.36 2.31,-22.46 -1.48,-32.76 -8.38,-22.53 -19.31,-43.98 -29.17,-65.86 -9.04,-20.36 -17.85,-40.81 -27.19,-61.03 -2.19,-4.64 -3.5,-10.47 -0.14,-14.9 4.48,-5.69 12.83,-5.52 19.33,-4.48 8,1.69 12.22,9.34 16.91,15.26 1.95,-6.11 4.38,-12.85 1.74,-19.16 -3.5,-8.55 -11.1,-14.36 -18.22,-19.79 18.27,0.6 36.72,-1.21 54.17,-6.74 9.62,-3.11 19.67,-6.33 27.24,-13.4 -20.43,-1.52 -41.41,-1.79 -60.74,-9.45 31.52,-6.69 63.05,-15.86 90.83,-32.6 9,-5.74 18.43,-11.52 24.55,-20.55 -30.43,3.98 -61.09,5.96 -91.79,4.74 42.7,-7.88 84.1,-24.76 118.58,-51.4 7.23,-5.76 14.88,-11.46 19.64,-19.6 -12.64,3.1 -24.57,8.43 -37.17,11.64zm-887.12 -7.21l0 0c-58.69,92.38 -117.47,184.72 -176.16,277.07 -12.86,1.1 -25.72,2.34 -38.55,3.67 -6.55,21.24 -13.74,42.26 -20.5,63.43 57.52,-5.98 115.24,-10.03 172.97,-13.29 16.65,-29.5 33.29,-59.05 49.79,-88.64 58.95,-0.02 117.93,-0.05 176.91,0 15.16,28.81 30.47,57.55 45.73,86.31 56.27,3.76 112.79,2.38 168.98,7.88 -7.48,-21.67 -15.33,-43.21 -22.88,-64.86 -13.52,-1.19 -27.07,-2.02 -40.6,-3.09 -50.59,-89.55 -101.4,-178.95 -151.97,-268.5 -54.57,0 -109.15,-0.07 -163.72,0.02zm-368.14 385.21l0 0c-110.67,11.48 -221.1,25.43 -330.93,43.12 30.31,18.79 60.64,37.58 90.88,56.53 -40.47,32.48 -81.47,64.31 -121.78,97 67.83,-12.14 135.97,-22.38 204.19,-32.1 -11.86,-32.76 -15.43,-69.81 -4.5,-103.31 36.71,35.03 82.52,58.5 128.26,79.5 6.33,2.6 12.67,6.67 19.83,5.86 197.41,-21.98 396.24,-35.69 594.93,-29.55 126.69,3.77 253.17,13.62 379.14,27.41 8.48,0.74 16.93,2.67 25.48,2.07 10.83,-3.21 20.81,-8.83 31.17,-13.36 39.93,-19.33 79.74,-40.9 111.9,-71.93 11.29,33.48 7.17,70.48 -4.36,103.34 68.55,9.57 137.01,20.04 205.2,31.97 -40.2,-32.74 -81.17,-64.52 -121.62,-96.93 30.21,-18.83 60.54,-37.45 90.64,-56.47 -131.26,-21.1 -263.36,-36.91 -395.71,-49.29 -131.51,-12.12 -263.48,-19.93 -395.55,-21.26 -169.41,-0.81 -338.69,10.19 -507.17,27.4zm-132.88 125.79l0 0c-0.07,25.55 13.81,48.43 30.17,67.05 28.78,32.05 65.97,55.05 103.88,74.76 35.83,18.17 73.19,33.19 111.14,46.29 64.64,21.83 127.79,48.4 187.55,81.43 57.9,32.62 114.83,69.83 158.31,120.81 0.83,-32.86 -11.79,-64.67 -30.76,-91.03 -26.43,-36.95 -62.29,-65.88 -99.72,-91.07 -55.43,-36.62 -115.76,-65.38 -177.83,-88.83 -28.22,-10.81 -57.5,-18.36 -86,-28.34 -68.41,-23.59 -135.36,-52.52 -196.74,-91.07zm977.57 109.5l0 0c-70.67,23.88 -139.02,55.41 -201.76,95.88 -36.21,23.76 -70.64,51.19 -97.64,85.31 -22.31,28.22 -38.46,63.17 -37.05,99.81 29.5,-35.62 66.69,-63.86 105.12,-89.17 70.5,-45.69 147.45,-80.73 226.62,-108.45 43.33,-14.62 86.19,-31.05 126.9,-51.97 34.43,-18 68.07,-38.77 95.45,-66.65 19.43,-20.04 36.91,-45.26 36.98,-74.28 -78.67,49.28 -166,82.95 -254.62,109.52zm-1071.55 154.19l0 0c-18.57,32.6 -28.21,70.6 -25.04,108.14 3.38,44.7 24.69,86.27 53.3,120.08 32.19,38.26 72.91,68.47 115.89,93.54 44.95,26.12 92.97,46.67 142.14,63.48 97.76,33.14 200.12,51.43 302.88,59.6 -20.6,-29.05 -38.71,-60.05 -51.62,-93.31 -26.14,8.76 -52.12,17.97 -78.26,26.71 10.12,-19.81 20.64,-39.4 30.83,-59.17 -55.93,11.77 -113.93,11.79 -170.31,3.07 -52.76,-8.26 -104.45,-23.9 -152.43,-47.45 -44.23,-22.02 -86.35,-50.88 -116.66,-90.47 -22.24,-29.17 -36.46,-66.19 -31.76,-103.24 17.61,7.88 35.19,15.88 52.85,23.69 -4.81,-18.36 -7.9,-37.26 -7.47,-56.29 -0.46,-47.81 17.97,-94.33 46.62,-132.14 -6.74,-4.95 -13.39,-10 -19.91,-15.19 -36.09,26.9 -68.79,59.52 -91.05,98.95zm1307.15 -82.19l0 0c16.02,21.45 28.85,45.41 36.64,71.05 11.69,37.45 11.83,78.05 1.48,115.81 17.71,-7.79 35.26,-15.91 52.95,-23.72 2.05,19.48 -0.38,39.36 -7,57.79 -10.03,28.43 -28.76,52.95 -50.19,73.81 -35.6,33.6 -78.72,58.36 -123.91,76.64 -91.19,36.43 -193.05,49.74 -289.74,29.98 10.15,19.76 20.41,39.45 30.55,59.19 -23,-7.86 -45.97,-15.9 -69,-23.69 -13.07,31.66 -31.19,60.95 -51.14,88.69 87.31,-8.02 174.14,-23.45 258,-49.33 74.83,-23.34 148.07,-54.5 212.31,-99.93 37.14,-26.55 71.47,-58.29 95.69,-97.29 19.17,-30.78 31.4,-66.57 30.93,-103.07 0.35,-40.57 -14.62,-80.07 -37.57,-113.07 -20.15,-28.72 -45.19,-53.98 -73.19,-75 -6.08,3.36 -11.29,8.02 -16.81,12.14zm-1121.5 101.91l0 0c-10.22,32.71 -7.1,69.26 8.28,99.9 20.03,40.95 57.45,71.22 98.6,89.5 55.47,24.69 119,29.93 178.19,17 40.78,-9.12 80.33,-27.07 111.31,-55.52 -15.53,-7.26 -30.81,-14.98 -46.07,-22.72 -30.08,33.26 -74.53,50.67 -118.67,53.67 -46.95,3.26 -96.31,-8.81 -133.05,-39.12 -24.64,-20.12 -42.43,-50.5 -41.93,-82.95 -0.19,-26 11.5,-50.69 28.57,-69.81 -21.21,-11.12 -42,-23 -63.43,-33.72 -9.26,13.48 -17.09,28.05 -21.8,43.77zm963.4 -10.03l0 0c17.69,19.57 29.5,45.31 28.55,72.05 -0.14,34 -20.45,64.88 -46.98,84.81 -38.81,29.12 -89.52,39.57 -137.21,34.14 -40.91,-4.59 -81.43,-21.9 -109.29,-52.81 -15.4,7.69 -30.85,15.29 -46.16,23.17 61.38,54.02 149.09,71.57 228.31,56.98 48.61,-9.08 96.09,-30.77 130.5,-66.93 23.85,-24.48 40.47,-56.77 43.14,-91.1 3.02,-33.45 -8.1,-67 -27.41,-94.12 -21.4,10.81 -42.23,22.67 -63.45,33.81zm-784.76 86.24l0 0c-0.83,15.24 9.4,28.86 22.07,36.29 28.41,16.88 70.38,12.5 90.71,-15.03 -32.66,-17.14 -65.54,-33.88 -98.16,-51.12 -7.93,7.98 -15.07,18.07 -14.62,29.86zm578.5 21.29l0 0c19.21,25.66 57.09,31.21 85.19,18.02 13.76,-6.36 26.02,-18.78 27.71,-34.45 1.96,-13.38 -5.35,-25.84 -14.71,-34.74 -32.57,17.36 -65.5,34.05 -98.19,51.17zm-226.98 167.09l0 0c-0.83,61.19 -1.71,122.38 -2.74,183.57 -30.3,-44.19 -56.71,-92.76 -66.33,-146 -8.12,-44.02 2.83,-89.85 25.5,-127.97 -28.93,30.31 -50.78,69.09 -54.36,111.4 -3.33,34.14 5.77,68.22 20.27,98.88 18.57,39.69 45,75.15 74,107.76 38.47,-42.19 74.59,-88.99 91.95,-144.16 12.95,-39.91 8.67,-84.53 -10,-121.93 -17.26,-36.38 -45.62,-65.91 -75.72,-92 -2.12,43.4 -1.35,86.98 -2.57,130.45z"/>
   <path class="fil2" d="M1363.69 766.38c88.62,-26.57 175.95,-60.24 254.62,-109.52 -0.07,29.02 -17.55,54.24 -36.98,74.28 -27.38,27.88 -61.02,48.65 -95.45,66.65 -40.71,20.92 -83.57,37.35 -126.9,51.97 -79.17,27.72 -156.12,62.76 -226.62,108.45 -38.43,25.31 -75.62,53.55 -105.12,89.17 -1.41,-36.64 14.74,-71.59 37.05,-99.81 27,-34.12 61.43,-61.55 97.64,-85.31 62.74,-40.47 131.09,-72 201.76,-95.88zm-977.57 -109.5c61.38,38.55 128.33,67.48 196.74,91.07 28.5,9.98 57.78,17.53 86,28.34 62.07,23.45 122.4,52.21 177.83,88.83 37.43,25.19 73.29,54.12 99.72,91.07 18.97,26.36 31.59,58.17 30.76,91.03 -43.48,-50.98 -100.41,-88.19 -158.31,-120.81 -59.76,-33.03 -122.91,-59.6 -187.55,-81.43 -37.95,-13.1 -75.31,-28.12 -111.14,-46.29 -37.91,-19.71 -75.1,-42.71 -103.88,-74.76 -16.36,-18.62 -30.24,-41.5 -30.17,-67.05zm132.88 -125.79c168.48,-17.21 337.76,-28.21 507.17,-27.4 132.07,1.33 264.04,9.14 395.55,21.26 132.35,12.38 264.45,28.19 395.71,49.29 -30.1,19.02 -60.43,37.64 -90.64,56.47 40.45,32.41 81.42,64.19 121.62,96.93 -68.19,-11.93 -136.65,-22.4 -205.2,-31.97 11.53,-32.86 15.65,-69.86 4.36,-103.34 -32.16,31.03 -71.97,52.6 -111.9,71.93 -10.36,4.53 -20.34,10.15 -31.17,13.36 -8.55,0.6 -17,-1.33 -25.48,-2.07 -125.97,-13.79 -252.45,-23.64 -379.14,-27.41 -198.69,-6.14 -397.52,7.57 -594.93,29.55 -7.16,0.81 -13.5,-3.26 -19.83,-5.86 -45.74,-21 -91.55,-44.47 -128.26,-79.5 -10.93,33.5 -7.36,70.55 4.5,103.31 -68.22,9.72 -136.36,19.96 -204.19,32.1 40.31,-32.69 81.31,-64.52 121.78,-97 -30.24,-18.95 -60.57,-37.74 -90.88,-56.53 109.83,-17.69 220.26,-31.64 330.93,-43.12z"/>
   <path class="fil3" d="M625.17 554.41c10.71,-1 21.5,-2.55 32.31,-1.81 5.92,0.26 10.59,5.73 11,11.47 1.28,14.31 0.28,28.74 0.62,43.1 -0.03,8 -0.43,18.16 -8.55,22.4 -10.81,4.48 -22.96,3.6 -34.41,4.88 -7.5,0.96 -17.59,-2 -18.14,-10.9 -0.52,-17.93 -0.41,-35.93 -0.05,-53.86 0.15,-9.14 8.72,-15.07 17.22,-15.28zm609.76 483.38c32.69,-17.12 65.62,-33.81 98.19,-51.17 9.36,8.9 16.67,21.36 14.71,34.74 -1.69,15.67 -13.95,28.09 -27.71,34.45 -28.1,13.19 -65.98,7.64 -85.19,-18.02zm-578.5 -21.29c-0.45,-11.79 6.69,-21.88 14.62,-29.86 32.62,17.24 65.5,33.98 98.16,51.12 -20.33,27.53 -62.3,31.91 -90.71,15.03 -12.67,-7.43 -22.9,-21.05 -22.07,-36.29zm942.86 -178.12c5.52,-4.12 10.73,-8.78 16.81,-12.14 28,21.02 53.04,46.28 73.19,75 22.95,33 37.92,72.5 37.57,113.07 0.47,36.5 -11.76,72.29 -30.93,103.07 -24.22,39 -58.55,70.74 -95.69,97.29 -64.24,45.43 -137.48,76.59 -212.31,99.93 -83.86,25.88 -170.69,41.31 -258,49.33 19.95,-27.74 38.07,-57.03 51.14,-88.69 23.03,7.79 46,15.83 69,23.69 -10.14,-19.74 -20.4,-39.43 -30.55,-59.19 96.69,19.76 198.55,6.45 289.74,-29.98 45.19,-18.28 88.31,-43.04 123.91,-76.64 21.43,-20.86 40.16,-45.38 50.19,-73.81 6.62,-18.43 9.05,-38.31 7,-57.79 -17.69,7.81 -35.24,15.93 -52.95,23.72 10.35,-37.76 10.21,-78.36 -1.48,-115.81 -7.79,-25.64 -20.62,-49.6 -36.64,-71.05zm-1307.15 82.19c22.26,-39.43 54.96,-72.05 91.05,-98.95 6.52,5.19 13.17,10.24 19.91,15.19 -28.65,37.81 -47.08,84.33 -46.62,132.14 -0.43,19.03 2.66,37.93 7.47,56.29 -17.66,-7.81 -35.24,-15.81 -52.85,-23.69 -4.7,37.05 9.52,74.07 31.76,103.24 30.31,39.59 72.43,68.45 116.66,90.47 47.98,23.55 99.67,39.19 152.43,47.45 56.38,8.72 114.38,8.7 170.31,-3.07 -10.19,19.77 -20.71,39.36 -30.83,59.17 26.14,-8.74 52.12,-17.95 78.26,-26.71 12.91,33.26 31.02,64.26 51.62,93.31 -102.76,-8.17 -205.12,-26.46 -302.88,-59.6 -49.17,-16.81 -97.19,-37.36 -142.14,-63.48 -42.98,-25.07 -83.7,-55.28 -115.89,-93.54 -28.61,-33.81 -49.92,-75.38 -53.3,-120.08 -3.17,-37.54 6.47,-75.54 25.04,-108.14zm1192.03 -339.81c-0.31,-7.26 5.69,-13.88 13.12,-13.47 14.88,0.28 29.54,3.31 44.33,4.71 0.05,8.81 0.05,17.62 0.02,26.43 -6.95,-0.86 -13.85,-1.74 -20.76,-2.64 -0.07,-3.03 -0.09,-6.05 -0.12,-9.08 -4.16,-0.5 -8.31,-1 -12.43,-1.49 0,15.23 -0.02,30.47 0,45.73 4.15,0.5 8.31,1.03 12.48,1.55 0,-4.21 -0.02,-8.45 0.02,-12.64 7.31,0.83 14.65,1.69 21.98,2.55 0.05,10.02 0.05,20.02 0.05,30.04 -14.64,-2.04 -29.41,-3.09 -43.95,-5.71 -8.12,-1.17 -14.74,-8.17 -14.7,-16.5 -0.54,-16.48 -0.47,-33 -0.04,-49.48zm-44.36 -20.28c12.14,1.04 24.26,2.38 36.38,3.74 -0.02,5.68 -0.02,11.38 0,17.07 -1.48,-0.1 -4.45,-0.34 -5.95,-0.46 0.02,14.98 -0.07,29.96 0.05,44.93 9.97,0.46 4.54,12.31 5.97,18.62 -12.14,-1.19 -24.26,-2.5 -36.38,-3.81 0,-5.67 0,-11.33 0,-17 1.48,0.07 4.45,0.22 5.95,0.29 -0.02,-14.96 0.05,-29.91 -0.04,-44.86 -9.86,-0.57 -4.6,-12.29 -5.98,-18.52zm-971.33 10.47c21.4,-2.78 42.83,-5.24 64.26,-7.93 0,8.65 0,17.29 0,25.93 -7.17,0.86 -14.31,1.74 -21.45,2.62 0.02,-2.14 0.04,-6.48 0.07,-8.64 -4.17,0.48 -8.34,0.97 -12.48,1.48 -0.07,4.76 -0.09,9.54 -0.12,14.33 5.95,-0.76 11.93,-1.5 17.91,-2.26 0,5.04 0,10.12 0,15.16 -5.96,0.69 -11.91,1.46 -17.84,2.22 -0.02,5.4 -0.04,10.78 -0.12,16.16 1.36,-0.09 4.08,-0.28 5.41,-0.4 0.02,5.71 0.05,11.45 0.12,17.17 -11.95,1.47 -23.91,2.88 -35.84,4.43 1.22,-6.41 -3.61,-17.08 5.41,-19 0,-14.96 0,-29.93 0,-44.89 -1.33,0.24 -4,0.76 -5.36,1 0,-5.78 0,-11.59 0.03,-17.38zm69.71 -8.12c11.88,-1.14 23.72,-2.5 35.62,-3.52 0,5.67 0,11.33 0,17 -1.5,0.19 -4.52,0.6 -6.02,0.81 0.14,15.21 0.02,30.43 0.09,45.64 3.36,-0.31 6.71,-0.59 10.1,-0.88 0,-4.71 0,-9.43 0.02,-14.14 7.72,-0.88 15.43,-1.69 23.14,-2.55 0.07,10.45 0.05,20.91 0.03,31.38 -21.03,2.05 -42.03,4.53 -63.07,6.5 0,-5.74 0,-11.47 0,-17.21 1.33,-0.1 4.02,-0.31 5.35,-0.41 0,-15.21 0,-30.43 0,-45.64 -1.35,0 -4.04,0.02 -5.4,0.02 0.02,-5.66 0.07,-11.33 0.14,-17zm821.98 -10.04c25.19,2.23 50.35,4.4 75.54,6.62 0,10.02 0,20.02 -0.02,30.02 -5.98,-0.5 -11.93,-1 -17.88,-1.53 0.02,-4.21 0.05,-8.42 0.1,-12.64 -2.6,-0.36 -5.19,-0.71 -7.74,-1.05 -0.12,15.24 0,30.48 -0.1,45.74 1.36,0.22 4.03,0.69 5.36,0.91 0.02,5.64 0.05,11.31 0.14,16.95 -11.93,-0.88 -23.85,-2.07 -35.78,-2.98 -0.03,-5.64 -0.05,-11.28 -0.05,-16.9 1.5,-0.05 4.48,-0.1 5.98,-0.12 0,-15.21 0,-30.45 0,-45.67 -2.84,-0.19 -5.65,-0.38 -8.43,-0.54 0.04,4.23 0.09,8.5 0.16,12.78 -5.78,-0.52 -11.54,-1.02 -17.28,-1.55 -0.07,-10 -0.07,-20.02 0,-30.04zm-84.57 -6.89c9.52,0.84 19.04,1.7 28.59,2.46 7.93,15.02 16.05,29.95 23.86,45.02 -0.12,-14.31 -0.07,-28.62 -0.05,-42.93 9.12,0.84 18.26,1.64 27.38,2.55 -0.02,5.69 -0.05,11.38 -0.02,17.09 -1.48,-0.14 -4.45,-0.45 -5.93,-0.59 -0.07,15.24 0,30.45 -0.05,45.69 1.48,0.22 4.45,0.67 5.95,0.88 0,5.67 0.03,11.34 0.08,17 -9.58,-0.76 -19.12,-1.64 -28.65,-2.4 -8.12,-14.74 -16.5,-29.34 -23.93,-44.41 0.34,14.12 -0.19,28.26 0.5,42.38 -9.26,-0.9 -18.5,-1.69 -27.73,-2.57 0,-5.78 0,-11.57 0.02,-17.36 1.33,0.22 4,0.6 5.33,0.81 0,-15.16 0,-30.33 0,-45.5 -1.33,-0.35 -4.02,-1.04 -5.35,-1.4 0,-5.57 -0.03,-11.14 0,-16.72zm-519.05 -1.76c11.88,-0.83 23.76,-1.33 35.66,-2.02 0.03,5.74 0.05,11.48 0.12,17.21 -1.35,0.08 -4.09,0.27 -5.45,0.36 0.05,15.19 0,30.38 0.03,45.57 1.35,0.05 4.04,0.17 5.4,0.22 -0.05,5.66 -0.07,11.33 -0.05,17 -11.93,0.45 -23.81,1.12 -35.71,1.85 0,-5.35 0,-10.66 0.02,-16 1.26,-0.59 3.76,-1.78 5.03,-2.38 0.85,-14.97 0.02,-30 0.3,-45 -1.33,0.12 -3.99,0.34 -5.33,0.46 -0.02,-5.77 -0.02,-11.53 -0.02,-17.27zm372.02 -6.19c11.91,0.46 23.83,1.1 35.74,1.91 -0.02,5.74 -0.02,11.47 -0.02,17.24 -1.48,-0.2 -4.46,-0.58 -5.93,-0.77 -0.07,15.29 0,30.6 -0.05,45.89 3.31,0.33 6.69,0.71 10.05,1.04 0.05,-4.76 0.07,-9.55 0.12,-14.31 7.71,0.36 15.45,0.76 23.19,1.1 0,10.45 -0.03,20.93 0.02,31.4 -20.97,-1.12 -41.95,-2.43 -62.93,-3.16 -0.14,-5.67 -0.21,-11.34 -0.26,-17 1.36,-0.05 4.1,-0.17 5.45,-0.22 -0.04,-15.21 -0.02,-30.4 -0.02,-45.62 -1.33,-0.04 -4.02,-0.14 -5.36,-0.19 -0.02,-5.76 0,-11.52 0,-17.31zm-80.95 -2.35c25.21,1 50.4,1.92 75.62,2.61 -0.05,10.1 -0.02,20.22 -0.05,30.31 -5.76,-0.35 -11.5,-0.64 -17.24,-0.83 0,-4.31 -0.02,-8.62 0,-12.93 -2.09,0 -6.26,0 -8.33,0 0,15.26 0,30.5 0,45.76 1.5,0.05 4.48,0.12 5.98,0.17 -0.03,5.74 -0.05,11.5 -0.05,17.26 -11.95,-0.62 -23.91,-0.85 -35.86,-1.54 1.38,-6.03 -3.67,-17.17 5.55,-17.96 -0.03,-14.95 -0.07,-29.88 0.02,-44.81 -2.09,-0.02 -6.28,-0.09 -8.38,-0.12 -0.02,4.19 0,8.39 0,12.58 -5.67,-0.03 -11.31,-0.08 -16.95,-0.17 -0.45,-10.12 -0.34,-20.22 -0.31,-30.33zm726.64 -382.51c12.6,-3.21 24.53,-8.54 37.17,-11.64 -4.76,8.14 -12.41,13.84 -19.64,19.6 -34.48,26.64 -75.88,43.52 -118.58,51.4 30.7,1.22 61.36,-0.76 91.79,-4.74 -6.12,9.03 -15.55,14.81 -24.55,20.55 -27.78,16.74 -59.31,25.91 -90.83,32.6 19.33,7.66 40.31,7.93 60.74,9.45 -7.57,7.07 -17.62,10.29 -27.24,13.4 -17.45,5.53 -35.9,7.34 -54.17,6.74 7.12,5.43 14.72,11.24 18.22,19.79 2.64,6.31 0.21,13.05 -1.74,19.16 -4.69,-5.92 -8.91,-13.57 -16.91,-15.26 -6.5,-1.04 -14.85,-1.21 -19.33,4.48 -3.36,4.43 -2.05,10.26 0.14,14.9 9.34,20.22 18.15,40.67 27.19,61.03 9.86,21.88 20.79,43.33 29.17,65.86 3.79,10.3 6.64,22.4 1.48,32.76 -5.72,10.43 -17.96,14.59 -29,16.43 -22.19,3.47 -44.72,1 -66.91,-1.27 -61.07,-6.83 -122.43,-11.09 -183.45,-18.45 -38.26,-4.19 -74.62,-19.36 -106.83,-40.05 -10.93,-7.16 -20.69,-17.23 -24.12,-30.19 -14.1,-59.38 -29.05,-118.57 -43.24,-177.95 -11.12,-0.05 -22.26,0 -33.38,-0.07 -5.57,-22 -11.03,-44 -16.52,-66.02 65.97,0 131.95,0.02 197.92,0 6.72,22 13.55,43.97 20.27,65.97 -9,0.12 -18,0.1 -26.98,0.1 16.59,56.09 32.19,112.55 49.43,168.43 33.66,3.92 67.47,6.78 101.19,10.33 -20.64,-59.62 -41.64,-119.12 -62.38,-178.72 -8.74,-0.07 -17.48,-0.07 -26.19,-0.02 -7.29,-22 -14.6,-44 -21.48,-66.14 69.72,0.09 139.45,0.07 209.19,0.02 57.05,-1.78 114.38,-7.38 169.57,-22.48zm-1558.86 -11.92c74.19,27.05 153.7,35.19 232.17,37.35 122.31,0.12 244.64,0 366.98,0.05 -4.62,30.19 -9.6,60.31 -14.24,90.48 -40.88,0 -81.74,0 -122.62,0 2.29,-9.34 4.64,-18.64 7.12,-27.93 -32.55,-0.1 -65.12,-0.05 -97.69,-0.05 -6,22.07 -12.19,44.1 -18.17,66.19 52.17,-1.69 104.34,-4.09 156.5,-5.52 -17.21,24.09 -34.81,47.9 -52.05,71.95 -43.71,2.48 -87.49,3.74 -131.21,6.07 -6.76,18.88 -13.74,37.67 -20.62,56.5 23.45,-1.95 46.93,-3.38 70.38,-5.38 -7.76,21.41 -15.57,42.81 -23.24,64.26 -92.52,11.57 -185.47,19.84 -277.9,32.36 11.26,-23.14 22.76,-46.17 33.67,-69.48 13.54,-2.23 27.11,-4.16 40.64,-6.52 9.83,-26.17 19.71,-52.31 29.81,-78.38 -9.19,-22.07 -18.86,-43.95 -28.34,-65.91 9.84,-0.76 19.67,-0.76 29.53,-0.64 1.12,-5.47 2.33,-10.9 3.57,-16.36 -19.17,1.12 -38.59,-0.92 -56.95,-6.73 -9.34,-3.03 -18.93,-6.36 -26.36,-13.07 20.33,-1.74 41.31,-1.77 60.53,-9.58 -31.55,-6.66 -63,-15.95 -90.84,-32.61 -9.02,-5.55 -18.26,-11.51 -24.26,-20.48 28.67,3.78 57.55,5.48 86.45,5.14l2.98 1.57c0.05,-0.47 0.16,-1.45 0.24,-1.93 -41.46,-8.92 -82.03,-24.73 -115.84,-50.81 -7.45,-6.04 -15.85,-11.66 -20.24,-20.54zm671.74 4.71c54.57,-0.09 109.15,-0.02 163.72,-0.02 50.57,89.55 101.38,178.95 151.97,268.5 13.53,1.07 27.08,1.9 40.6,3.09 7.55,21.65 15.4,43.19 22.88,64.86 -56.19,-5.5 -112.71,-4.12 -168.98,-7.88 -15.26,-28.76 -30.57,-57.5 -45.73,-86.31 -58.98,-0.05 -117.96,-0.02 -176.91,0 -16.5,29.59 -33.14,59.14 -49.79,88.64 -57.73,3.26 -115.45,7.31 -172.97,13.29 6.76,-21.17 13.95,-42.19 20.5,-63.43 12.83,-1.33 25.69,-2.57 38.55,-3.67 58.69,-92.35 117.47,-184.69 176.16,-277.07zm22.1 161.26l0 0c38.47,0.03 76.93,0 115.4,0 -18.4,-34.19 -36.59,-68.5 -55.12,-102.62 -20.11,34.19 -40.19,68.41 -60.28,102.62zm-19.83 230.41c12.83,-0.69 25.71,-1.14 38.57,-1.31 4.28,20.86 8.21,41.76 12.38,62.66 1.55,-0.11 4.62,-0.35 6.14,-0.47 -0.07,5.69 -0.07,11.38 -0.07,17.07 -9.24,0.55 -18.48,0.69 -27.69,1.24 -0.98,-6.38 -1.98,-12.74 -2.93,-19.12 -4.76,0 -9.52,0 -14.26,0 -1,6.52 -2,13.05 -3,19.57 -9.24,0.5 -18.48,0.67 -27.69,1.12 -0.03,-5.69 -0.03,-11.36 -0.05,-17.02 1.57,-0.05 4.67,-0.12 6.24,-0.15 4.57,-21.12 8.09,-42.42 12.36,-63.59zm14.02 45.81l0 0c2.57,-0.03 7.67,-0.05 10.21,-0.07 -1.52,-10.48 -3.35,-20.93 -5.14,-31.39 -1.48,10.53 -3.26,20.98 -5.07,31.46zm94.31 -47.53c12.88,-0.54 25.74,-0.9 38.62,-0.71 4.5,20.71 7.55,41.76 12.69,62.31 1.43,0.38 4.28,1.17 5.71,1.57 0,5.48 0,10.98 0,16.48 -9.19,0 -18.38,-0.03 -27.55,0.02 -1.04,-6.36 -2.04,-12.74 -3.09,-19.09 -4.76,0.02 -9.5,0.02 -14.24,0.04 -1,6.36 -1.97,12.72 -2.97,19.07 -9.24,-0.07 -18.5,-0.07 -27.74,-0.04 0,-5.55 0,-11.1 0,-16.65 1.64,0 4.95,-0.04 6.59,-0.04 3.91,-21 7.98,-41.98 11.98,-62.96zm14.09 45.98l0 0c3.41,-0.14 6.86,-0.26 10.29,-0.38 -1.69,-9.93 -3.29,-19.86 -5.05,-29.76 -1.97,10 -3.52,20.07 -5.24,30.14zm-211.26 -40.6c17.29,-0.42 34.53,-2.16 51.81,-2.38 6.57,-0.16 13.33,4.31 14.22,11.1 1.5,11.9 0.28,23.98 0.69,35.95 -0.27,8.14 1.07,16.79 -2.22,24.48 -2.5,5.76 -8.9,8.05 -14.74,8.43 -16.54,1.31 -33.16,1.78 -49.73,2.78 0,-5.78 0,-11.57 0,-17.36 1.35,-0.02 4.02,-0.09 5.38,-0.14 -0.05,-15.21 -0.03,-30.43 -0.03,-45.66 -1.33,-0.03 -4.02,-0.1 -5.38,-0.15 0.03,-5.69 0.03,-11.35 0,-17.05zm29.79 15.74l0 0c0,15.27 0,30.55 0,45.81 4.14,-0.21 8.31,-0.38 12.5,-0.52 0,-15.29 0.02,-30.55 -0.03,-45.83 -4.16,0.14 -8.33,0.33 -12.47,0.54zm384.45 -14.76c12.86,0.88 25.71,1.83 38.6,2.62 4.28,21.33 8.3,42.74 12.38,64.12 1.54,0 4.66,0.02 6.21,0.02 0,5.81 0,11.62 0.02,17.43 -9.26,-0.57 -18.49,-1.24 -27.71,-1.95 -1.09,-6.34 -1.76,-12.76 -3.31,-19 -4.57,-1.1 -9.29,-1.24 -13.93,-1.64 -1.09,6.4 -2.14,12.83 -3.14,19.26 -9.17,-0.67 -18.36,-1.36 -27.52,-1.83 0,-5.41 0.02,-10.79 0.07,-16.17 1.57,-0.48 4.66,-1.43 6.24,-1.91 4.78,-20.14 7.95,-40.66 12.09,-60.95zm14.05 47.43l0 0c3.43,0.24 6.88,0.45 10.35,0.69 -1.71,-10.24 -3.33,-20.5 -5.02,-30.74 -1.93,9.98 -3.59,20.03 -5.33,30.05zm-552.07 -39.74c16.5,-1.12 32.97,-2.52 49.47,-3.43 6.53,-0.5 14.81,1.55 16.95,8.6 2,10.62 2.6,25.09 -9.09,30.33 2.76,1.86 5.93,3.33 8.07,6 1.88,5.43 1.12,11.33 1.41,16.98 1.45,-0.19 4.33,-0.6 5.78,-0.79 0,5.76 0.03,11.55 0.05,17.34 -8.48,0.61 -17,1.95 -25.48,0.97 -4.4,-0.67 -3.95,-5.59 -4.26,-8.93 -0.28,-7.43 -0.02,-14.85 -0.02,-22.28 -4.17,0.31 -8.34,0.62 -12.48,0.9 -0.07,10.76 -0.05,21.53 -0.05,32.31 -10.12,0.81 -20.24,1.55 -30.35,2.07 1.14,-6.33 -3.72,-16.97 5.26,-18.73 0.21,-14.81 0.02,-29.6 0.12,-44.41 -1.36,-0.07 -4.07,-0.24 -5.46,-0.33 0.05,-5.53 0.08,-11.07 0.08,-16.6zm30.35 15.07l0 0c0,5.03 0,10.05 0.03,15.1 4.14,-0.29 8.31,-0.57 12.47,-0.88 0,-5.05 0,-10.07 0,-15.1 -4.19,0.26 -8.35,0.57 -12.5,0.88zm-75 6l0 0c0,15.26 0,30.55 0,45.84 4.15,-0.36 8.29,-0.72 12.46,-1.05 0.09,-15.29 0.04,-30.55 0.04,-45.81 -4.16,0.33 -8.33,0.67 -12.5,1.02z"/>
  </g>
 </g>
</svg>
