<?xml version="1.0" encoding="UTF-8"?>
<!DOCTYPE svg PUBLIC "-//W3C//DTD SVG 1.1//EN" "http://www.w3.org/Graphics/SVG/1.1/DTD/svg11.dtd">
<!-- Creator: CorelDRAW -->
<svg xmlns="http://www.w3.org/2000/svg" xml:space="preserve" width="2000px" height="1600px" version="1.1" style="shape-rendering:geometricPrecision; text-rendering:geometricPrecision; image-rendering:optimizeQuality; fill-rule:evenodd; clip-rule:evenodd"
viewBox="0 0 2000 1600"
 xmlns:xlink="http://www.w3.org/1999/xlink">
 <defs>
  <style type="text/css">
   <![CDATA[
    .fil0 {fill:black;fill-rule:nonzero}
    .fil3 {fill:#00783E;fill-rule:nonzero}
    .fil2 {fill:#E98310;fill-rule:nonzero}
    .fil1 {fill:#FEFEFE;fill-rule:nonzero}
   ]]>
  </style>
 </defs>
 <g id="Capa_x0020_1">
  <metadata id="CorelCorpID_0Corel-Layer"/>
  <g id="Florida_x0020_A_x0026_M_x0020_Rattlers.cdr">
   <path class="fil0" d="M1196.52 48.37c142.66,0 239.45,36.18 263.12,34.96 109.27,-5.63 233.32,29.97 276.25,18.65 74.33,-19.58 178.64,-23.79 216.56,56.21 17.24,36.51 25.57,76.45 42.06,113.28 5.63,43.28 -57.64,36.41 -53.38,80.29 1.51,24.5 14.61,46.86 14.79,71.57 -0.64,28.47 -9.81,56.02 -10.16,84.53 0.35,79.95 11.06,114.63 -40.58,210.31 -17.12,31.72 -40.15,73.96 -75.36,84.14 16.22,-70.13 25.88,-268.83 8.25,-306.86 -3.36,-7.48 -10.33,-12.46 -17.94,-15 -39.73,36.08 -29.47,274.81 -184.23,345.67 -5.34,2.44 -11.39,1.41 -17.03,1.32 31.04,-113.85 72.29,-220.66 65.54,-339.61 -0.6,-10.54 -28.2,-16.61 -25.46,-72.24 -145.22,59.05 -312.25,123.08 -410.96,250.73 47.22,94.25 242.4,236.02 274.18,235.41 35.47,-0.68 162.53,-41.25 257.32,-34.83 64.16,4.35 151.46,27.14 220.51,-9.87 0,22.74 -88.94,38.55 -111.88,39.46 -51.45,2.71 -102.97,-0.11 -154.34,-2.68 44.76,36.29 207.79,61.06 247.56,225.29 -104.49,-137.44 -223.65,-230.6 -405.59,-190.95 -10.21,2.22 -53.79,-17.03 -39.74,11.94 11.87,24.49 106.49,97.51 113.88,179.69 1.5,16.69 47.21,50.61 15.53,127.06 -27.44,66.23 -112.59,100.81 -176.61,85.44 -119.59,-28.73 -252.15,-95.96 -349.82,-167.41 -21.33,-15.61 -47.71,-32.35 -63.1,-47.28 -66.81,-65.34 -148.73,-111.64 -224.94,-164.71 -74.02,75.83 -93.06,146.76 -80.28,247.72 14.88,117.63 92.91,147.95 88.85,228.19 -5.37,105.98 -172.67,112.51 -250.93,112.08 -55.13,-0.3 -83.45,-16.74 -148.9,1.97 -76.86,21.97 -72.76,-4.4 -112.21,-2.37 -26.56,0.75 -51.91,13.43 -78.78,9.85 -42.13,-5.32 9.77,-20.93 -119.79,-25.29 -126.07,-4.24 -120.85,-20.46 -139.04,-135.76 -46.56,-295.01 77.02,-549.25 257.49,-775.96 86.95,-109.44 181.3,-213.77 255.19,-332.93 100.15,-166.95 304.99,-186.05 479.6,-162.06 56.4,-49.46 121.92,-60.73 194.37,-69.95z"/>
   <path class="fil1" d="M1305.37 200.98c5.88,-6.1 15.13,-3.51 22.33,-1.67 0.66,60.34 -10.14,58.65 -10.47,69.46 -0.73,22.92 5.55,50.82 -4.23,66.02 -31.92,-9.55 -20.31,-83.34 -16.38,-106.62 1.73,-9.3 2.68,-19.51 8.75,-27.19zm620.1 279.71c6.4,109.88 4.73,208.16 -74.81,294.99 9.17,-79.49 21.58,-206.23 5.2,-284.75 38.28,0 45.89,-10.2 69.61,-10.24zm-225.56 -0.11c34.88,-8.88 70.61,-9.1 102.3,9.19 -18.17,26.24 -15.04,32.14 -18.21,44.01 -11.92,53.41 -23.66,107.34 -45.39,157.79 -21.58,49.55 -53.06,92.07 -103.61,114.62 45.37,-98.67 71.28,-216.63 64.91,-325.61z"/>
   <path class="fil2" d="M919.8 615.11c32.75,-24.31 48.4,-5.66 30.76,6.63 -34.83,24.27 -140.54,40.04 -106.06,136.92 22.1,62.09 132.84,123.71 191.49,167.17 44.03,32.62 4.34,34.71 183.43,143.79 14.52,8.88 29.34,18.77 38.22,33.73 26.21,8.27 50.08,22.31 73.11,37.01 69.7,44.68 146.53,118.1 235.62,113.56 39.39,-1.96 54.45,-34.01 82.64,-40.11 -31.11,99.73 -165.64,95.44 -245.03,68.01 -99.18,-34.27 -251.4,-149.89 -338.6,-206.87 -10.12,-6.61 -39.68,-38.62 -58.4,-42.53 -25.71,-43.05 -269.04,-157.4 -326.62,-200.81 10.55,-9.81 28.66,-14.13 40.51,-4.17 10.9,-17.47 4.11,-36.97 30.26,-35.73 -3.64,-15.53 -22.64,-9.83 -20.81,-29.83 15.7,-3.61 30.4,4.59 45.86,5.34 -3.94,-32.48 -115.9,-59.56 -42.64,-71.07 9.96,-1.44 23.25,-0.39 27.35,10.6 1.23,0.06 3.69,0.17 4.92,0.22 9.89,11.91 18.04,25.46 30.17,35.33 -1.55,-12.9 -1.7,-29.37 -14.75,-36.43 1.14,-16.32 -24.69,-18.5 -16.24,-34.22 31.23,7.39 78.99,7.11 81.39,-35.05 1.06,-0.02 3.19,-0.08 4.24,-0.12 8.34,-19.5 49.74,-4.07 69.18,-21.37zm-646.23 874.32c5.37,-12.72 23.12,-14.85 25.73,-29.41 13.03,9.75 9.73,20.24 29.96,35.58 -1.47,9.05 -14.08,5.79 -16.47,14.19 -21.15,1.87 -27,-5.67 -39.22,-20.36zm-165.72 -476.29c13.53,16.34 14.87,39.51 29.56,55.14 -10.68,22.43 -27.45,68.21 -59.45,65.16 10.67,-39.93 16.46,-81.12 29.89,-120.3zm334.29 -70.6c9.28,-6.05 20.29,-12.32 22.59,-24.21 21.3,24.85 55.76,20.65 84.54,29.11 -19.92,43.15 -45.24,66.6 -45.12,117.38 0.06,26.98 18.28,10.13 -18.14,37.15 -18.93,14.04 -0.98,44.51 -2.79,61.94 -0.98,9.37 -49.08,25.09 -37.91,58.74 6.16,18.53 22.56,22.77 2.23,39.58 -4.71,3.71 -4.52,10.07 -4.21,15.47 -8.21,7.46 -7.93,25.41 0.51,32.48 -1.16,18.67 26.13,18.17 17.3,39.02 -23.91,56.5 -6.88,35.17 17.77,75.01 -24.48,32.31 23.7,66.21 -45.69,82.62 -14.59,3.39 -30.23,3.05 -44.33,-2.35 2.15,-17.52 23.97,-23.01 25.69,-40.64 -22.86,-8.26 -38.14,44.66 -71.75,9.96 -21.55,-22.24 -13.03,-61.69 1.3,-85.13 -15.22,0.92 -54.76,66.24 -70.19,-18.66 -1.33,-7.24 3.27,-17.87 -5.41,-21.75 -17.81,27.25 -12.65,76.95 19.78,91.82 -3.64,13.1 -15.15,21.11 -25.01,29.37 -34.05,-3.37 -37.88,-37.42 -34.76,-65.4 -36.03,1.21 -6.42,71.43 -45.44,78.54 -16.36,3.05 -33.3,-7.9 -39.96,-22.68 45.36,-60.84 100.27,-113.59 155.32,-165.52 10.57,34.49 22.83,62.94 64.66,55.33 -20.53,48.51 46.2,119.41 81.83,64.59 -71.19,13.03 -62.75,-73.85 -40.51,-116.08 -25.78,4.18 -25.25,44.91 -57.97,24.8 -29.23,-17.96 -9.2,-45.03 2.46,-68.93 37.61,14.92 43.63,59.64 85.93,18.92 -10.4,-18.29 -31.69,4.51 -44.5,-8.51 -35.7,-36.29 37.78,-60.88 54.86,-76.36 -10.38,-12.46 -29.33,1.31 -40.8,-8.98 5.73,-47.78 -55.61,-70.56 -25.46,-120.91 10.63,12.13 17.57,22.6 34.45,25.27 -25.02,47.8 33.36,70.61 53.78,51.25 -20.13,-16.12 -63.04,-3.52 -22.57,-66.96 18.37,1.04 33.49,27.79 45.8,5.57 -12.65,-2 -16.99,-7.25 -25.82,-15.99 7.37,-41.68 38.24,-55.25 55.56,-85.44 -19.58,-4.83 -75.51,52.34 -90.03,-4.66 -2.81,-9.91 3.9,-19.67 12.01,-24.76zm112.8 -15.42c13.32,-23.57 40.3,-32.74 60.17,-49.37 -2.36,26.93 -36.29,45.57 -60.17,49.37zm105.28 -39.98c34.71,-26.38 98.3,20.19 132.15,36.26 10.89,5.32 22.87,8.11 33.05,14.84 -6.15,17.23 -15.77,26.86 -34.11,29.28 -13.92,-20.39 -41.67,-28.96 -66.58,-25.26 14.59,26.17 69.25,16.27 71.12,50.38 -26.77,29.1 -77.82,-12.56 -111.13,-10.25 10.25,25.32 43.62,28.26 64.57,40.89 21.64,12.94 8.49,32.92 -8.09,33.6 -29.2,1.2 -57.8,-17.46 -81.62,-4.43 8.29,25.25 121.31,19.76 86.57,46.94 -32.14,25.16 -73.96,9.53 -111.48,13.35 10.38,38.1 90.14,5.21 103.98,35.2 17.27,37.42 -71.59,23.8 -83.03,24.88 -25.13,-25.29 -72.29,20.99 -6.82,25.79 21.11,1.55 95.42,-15.02 94.5,22.46 -0.94,38.48 -112.09,10.23 -134.25,27.52 7.49,34.55 121.55,6.14 151.58,21.41 -6.41,58.64 -85.2,20.66 -106.24,54.08 33.68,39.03 97.72,-14.85 141.13,-0.06 -2.84,56.23 -80.13,49.32 -115.97,70.36 44.52,32.43 92.65,-25.94 141.18,-19.89 39.97,59.68 -18.04,114.29 -75.13,124.82 -189.01,34.88 -271.03,-39.04 -214.52,-54.84 33.93,-9.39 79.32,-1.52 99.6,-25.16 -38.22,-6.68 -131.53,9.37 -136.25,-49.56 22.86,-26.58 63.41,8.22 91.13,-5.31 -14.34,-40.27 -105.13,-8.23 -111.24,-74.86 4.56,-2.34 8.88,-5.37 10.81,-10.33 22.89,-2.58 54.63,-6.19 75.14,-16.36 9.08,-3.97 6.12,-20.29 -4.3,-19.82 -15.04,-16.34 -49.02,8.86 -68.29,-24.5 -21.38,-37.02 63.02,-16.88 92.84,-39.96 -7.55,-37.77 -76.02,13.07 -75.71,-55.52 43.16,-36.85 57.84,9.97 90.32,-8.86 0.17,-37.17 -45.96,-23.12 -59.7,-46.15 -18.27,-30.63 78.96,-18.56 79.83,-36.25 1.1,-22.44 -66.56,-16.95 -53.67,-38.1 18.39,-30.2 72.57,13.89 84.2,-26.51 -8.15,-5.8 -74.07,-16.16 -24.46,-31.65 27.57,-7.92 56.79,-6.08 84.55,-13.05 -13.51,-24.03 -43.02,-6.89 -45.66,-35.38zm-131.59 -47.4c13.97,-13.92 26.18,-31.25 45.75,-37.68 5.5,25.16 17.24,48.32 30.33,70.3 -11.64,7.78 -26.21,3.68 -39.26,4.49 -5.04,-13.44 -16.21,-13.86 -15.92,-30.31 -32.5,8.14 -1.77,38.29 5.02,55.32 -51.9,17.69 -74.11,26.93 -59.86,-44.5 12.94,-1.85 24.68,-8.56 33.94,-17.62zm358.22 -68.23c23.19,-18.15 107.33,96.64 179.43,110.98 -7.88,46.91 72.69,36.72 76.02,85.19 15.03,-4.83 25.81,9.43 39.94,10.51 23.06,48.01 84.37,58.62 110.56,105.01 19.98,4.6 38.89,13.77 59.59,15.18 -1.14,34.55 29.37,34.33 56.15,43.4 39.94,13.53 79.08,79.58 148.53,58.85 25.38,-7.37 45.84,-26.26 71.85,-31.96 -49.32,189.79 -474.05,-176.9 -544.24,-221.57 -28.74,-18.29 -49.93,-45.96 -73.08,-70.31 -26.46,-27.82 -124.94,-59.54 -124.75,-105.28zm-673.15 -5.79c5.3,-11.78 13.61,-22.61 24.98,-29.02 40.41,23.24 26.3,100.76 -20.9,105.35 -1.45,15.02 19.45,27.17 31.32,17.63 5.22,-5.77 10.11,-14.01 19.27,-12.59 4.31,26.44 17.36,104.46 -25.33,105.41 -1.73,17.2 23.88,28.43 35.44,15.77 6.14,-7.41 9.17,-18.6 19.85,-20.84 11.14,31.19 20.41,90.51 -15.31,110.77 16.88,23.29 29.67,-8.46 45.51,-15.27 13.22,32.78 15.32,81.1 -15.3,105.45 16.27,16.74 30.61,-17.28 40.51,-25.15 43.21,12.91 35.87,104.84 -17.33,99.44 -5.81,-0.27 -10.86,-5.42 -16.74,-3.47 -0.96,7.83 8.36,11.12 13.62,14.92 -14.22,22.53 -44.12,26.48 -50.35,55.05 -2.48,0.33 -4.96,0.74 -7.42,1.18 -3.15,-5.63 1.85,-16.56 -7.1,-17.41 -12.71,16.45 -18.46,57.26 -45.78,56.25 -9.45,-0.13 -16.25,-7.7 -24.67,-10.89 10.11,37.01 -5.45,61.07 -44.98,60.88 -2,30.9 -22.66,55.02 -54.7,55.23 0.56,-22.38 -21.58,-48.15 -2.48,-58.68 14.63,-8.55 17,-28.13 31.21,-37.1 9.95,-6.8 23.49,-1.65 33.18,-9.2 14.87,-11.07 15.71,-31.88 27.79,-45.2 18.62,-2.8 36.34,-11.03 50.34,-23.66 28.24,-25.09 42.81,-61.57 70.62,-87.03 -25.9,-41.73 -20.8,-99.3 -50.03,-136 3.16,-11.65 4.38,-23.93 9.74,-34.88 -32.68,-30.01 -46.77,-72.69 -35.09,-115.5 -36.64,-24.8 -35.77,-85.35 -19.87,-121.44zm85.01 -34.15c45.6,23.78 16.37,76.29 -19.94,49.68 -2.84,-20.73 4.2,-36.69 19.94,-49.68zm30.07 -29.3c15.09,-2.3 30.37,0.28 45.55,-0.48 11.38,16.69 9.58,39.48 23.8,54.76 -36.69,17.23 -43.23,72.77 6.05,86.07 0,4.1 -0.26,8.24 -1.42,12.22 -30.37,13.66 -19.68,80.49 10.79,92.86 -5.79,14.56 -11.09,61.75 9.73,70.2 11.83,0.09 23.69,-0.02 35.55,0.07 -11.88,24.41 -18.41,40.83 -49.82,39.96 -12.21,-16.65 -0.08,-27.69 0.41,-45.84 -22.87,4.66 -21.28,38.42 -45.51,40.73 -25.4,-38.06 9.99,-118.23 0.37,-118.24 -12.64,-0.02 -14,27.36 -30.15,28.29 -14.99,-28.98 31.85,-29.81 40.59,-56.03 -17.4,-9.82 -31.4,16.43 -50.53,15.74 -26.09,-35.44 1.56,-88.36 45.66,-80.53 -4.56,-15.27 -26.82,-10.33 -31.29,-25.47 -12.45,6.47 -53.55,72.1 -49.66,0.58 42.7,-8.44 56.55,-49.82 95.81,-60.65 -17.51,-9.79 -47.66,-2.55 -56.06,-24.83 -15.41,-2.52 -12.96,-25.86 0.13,-29.41zm-19.61 -66.26c7.52,2.04 9.03,13.67 18.46,11.08 -17.9,26.99 -9.44,66.98 -49.21,74.2 -26.36,-32.59 15.01,-59.24 30.75,-85.28zm687.32 -30.37c5.88,-15.4 23.03,-18.42 25.47,0 -8.49,0.15 -16.98,0.17 -25.47,0zm-537.63 -17.53c23.49,-12.78 23.44,23.38 44.87,28.54 2.47,9.27 10.24,9.21 10.75,19.83 -16.28,-1.12 -81.06,-24.2 -55.62,-48.37zm-93.9 1.65c19.74,-32.48 37.42,3.11 58.72,0.13 -23.84,34.21 23.49,67.38 54.37,59.61 9.14,-2.11 16.3,-8.42 24.59,-12.39 4.45,16.18 -20.66,17.97 1.82,37.48 20.01,17.35 -11.83,31.38 4.49,52.05 14.59,-0.27 12.12,12.98 25.69,15.94 -4.25,23 -4.52,37.19 14.71,54.55 -10.02,26.45 -40.48,32.4 -65.73,29.24 -2.13,-5.62 -3.27,-12.44 -9.15,-15.42 1.2,-36.46 31.24,-43.97 45.34,-61.06 -1.65,-1.23 -3.25,-2.52 -4.8,-3.88 -21.05,14.76 -73.68,15.95 -63.26,-21.68 6.14,-20.78 26.89,-32.91 33.21,-53.58 -42.29,13.29 -79.4,89.08 -21.36,106.25 -13.9,24.33 -14.43,70.04 20.5,75.53 -19.25,68.39 -106.09,95.09 -59.46,-20.73 -12.51,-13.89 -29.61,-11.07 -30.55,-31.66 0.37,-20.53 10.07,-40.18 25.47,-53.59 -2.99,-15.81 -19.72,-25.17 -20.45,-41.76 -1.36,-17.55 23.93,-22.09 15.97,-39.23 -20.81,16.98 -44.11,28.71 -71.26,20.66 -2.67,-40.84 89.92,-43.38 69.44,-60.08 -7.85,-6.4 -20.3,7.23 -24.83,-5.24 -14.58,-1.95 -34.42,-13.86 -23.47,-31.14zm467.78 -5.48c15.4,-2.55 29.22,-10.29 42.68,-17.77 -14.24,29.83 -40.38,70.19 -79.35,59.48 0,-8.58 0.07,-17.15 -0.06,-25.71 -15.53,1.72 -25.38,21.89 -17.2,35.1 7.49,11.6 24.47,0.27 42.02,10.48 -8.79,31.19 -44.79,0.1 -65.35,5.83 -29.75,8.28 -87.34,58.26 -41.77,81.92 5.47,2.79 10.97,5.57 16.15,8.89 -4.87,7.94 -22.01,16.92 -19.56,25.94 3.28,12 24.5,15.1 9.36,28.76 -22.05,19.91 -54.97,-2.31 -69.44,-20.66 -15.31,18.99 -46.5,12.92 -60.29,-4.87 3.33,-6.58 7.04,-12.96 10.29,-19.55 24.21,9.71 56.8,23.37 80.73,4.35 -25.37,-9.55 -77.57,-0.25 -76.22,-40.27 -68.53,29.16 -51.66,-11.51 -49.5,-29.33 34.57,11.35 108.1,32.89 130.65,-10.81 -31.23,0.78 -67.42,13.38 -95.89,-4.84 18.42,-71.47 96.77,21.12 107.3,-7.33 4.26,-9.34 -22.48,-14.37 -32.18,-27.28 7.71,-12.91 9.53,-16.12 25.18,-15.53 5.22,-8.8 17.83,-12.18 25.73,-4.72 3.57,-10.15 -8.55,-12.37 -11.1,-20.26 28.96,1.05 72.69,10.58 90.98,-19.46 10.88,6.82 24.1,10.09 36.84,7.64zm270.19 -15.53c8.34,-6.3 19.21,-7.79 29.39,-7.51 2.8,23.87 -24.15,20.53 -40.09,24.04 2.02,-6.33 5.13,-12.61 10.7,-16.53zm-208.86 5.68c13,-8.06 28.62,-9.79 43.23,-13.29 18.32,24.14 -41.18,66.89 -55.73,44.93 -2.37,-11.75 2.01,-25.15 12.5,-31.64zm-388.96 -2.79c10.64,-8.03 25.95,-6.32 35.71,-15.99 15.34,7.38 13.46,14.6 40.36,15.03 54.21,0.87 57.42,-15.77 103.65,25.41 -21.24,17.35 -98.43,57.11 -85.08,-3.75 2.19,-9.99 -25.73,-1.74 -25.17,9.17 1.33,10.38 8.22,18.95 10.41,29.13 -15.87,0.42 -35.64,15.17 -25.75,31.78 -17.03,15.36 -43.08,-15.36 -24.58,-31.69 8.95,-7.9 23.93,-11.52 25.46,-25.42 -15.61,-1.14 -31.56,4.87 -46.83,-0.22 -13.27,-3.97 -18.64,-24.04 -8.18,-33.45zm686.26 -30.97c14.56,-1.41 21.35,-16.82 36.4,-10.11 -0.78,25.41 -26.89,17.67 -42.79,27.88 -10.66,6.85 -13.67,11.8 -27.66,12.52 1.47,-15.23 19.36,-28.61 34.05,-30.29zm-701.46 -50.27c25.02,-4.76 36.54,14.69 59.31,15.53 -5.07,13.25 -10.95,26.21 -15.02,39.83 -20.1,1.03 -31.78,-8.06 -49.62,-15.48 -1.93,-13.54 1.32,-27.02 5.33,-39.88zm803.49 -4.52c26.1,23.58 -20.7,43.77 -40.69,44.75 4.28,-25.5 30.01,-24.9 40.69,-44.75zm73.27 -26.75c3.45,-2.53 7.77,-3.1 11.89,-3.82 18.5,35.74 -36.56,32.68 -51.34,49.83 -8.1,-14.35 17.02,-19.79 24.67,-27.75 5.2,-5.87 8.11,-13.75 14.78,-18.26zm46.04 -5.38c9.54,-12.67 28.73,-13.4 36.39,-28.09 22.53,21.05 -25.89,36.23 -40.86,39.54 1.16,-3.9 1.92,-8.12 4.47,-11.45zm138.04 -86.35c36.06,-18.67 -34.86,98.67 -82.46,41.5 8.44,-8.6 22.69,0.79 30.92,-8 20.31,-5.58 34.22,-22.6 51.54,-33.5zm28.54 -11.89c14.13,3.26 27.32,-9.05 40.04,-0.78 -4.07,18.22 -18.05,25.37 -34.58,30.04 -1.12,-8.11 -13.78,-9.36 -10.95,-18.83 4.72,-1.41 4.7,-6.48 5.49,-10.43zm-525.93 -62.9c65.9,-16.04 64.97,62.63 18.87,77.23 -3.78,-29.32 -14.45,-50.1 -45.29,-55.47 4.14,-11.38 14.86,-19.17 26.42,-21.76zm364.39 24.41c16.91,-24.67 26.91,-53.23 35.62,-81.63 18.65,180.21 -298.78,188.69 -280.85,10.16 27.91,67.55 68.23,119.76 145.7,119.42 40.97,-0.18 75,-12.2 99.53,-47.95zm370.44 -188.35c13.16,-4.94 27.09,1.51 36.85,10.41 0.1,39.94 -20.27,55.6 -50.62,75.25 55.57,39.43 59.55,-83.49 98.61,-75.03 30.57,6.61 40.94,38.12 32.4,64.97 -19.18,-1.4 -16.49,-23.66 -35.42,-25.64 -10.12,40.13 1.57,85.87 -35.45,116.35 17.82,12.41 40.53,1.17 56.13,-9.87 -12.66,-30.11 9.98,-55.7 30.33,-75.8 22.22,2.54 15.62,29.91 32.53,36.39 39.67,15.95 -15.68,65.01 -23.52,3.09 -0.63,-5.61 -6.05,-8.84 -11.05,-10.02 -19.3,34.23 -7.91,9.47 5.86,39.02 1.79,3.64 1.01,7.76 0.68,11.64 -78.9,31.19 -163.38,42.64 -245.89,60.14 4.1,-11.78 21.19,-14.54 20.59,-28.75 32.36,18.12 61.37,-22.6 84.93,-0.84 15.3,-7.39 33.11,-14.21 40.79,-30.68 -11.78,-11.25 -29.3,8.55 -40.38,-4.52 -8.29,-15.13 3.71,-30.81 4.54,-46.21 -31.22,-4.02 -19.11,63.47 -45.7,70.78 -13.84,2.48 -29.79,0.39 -39.97,-10.16 -35.12,10.69 -31.18,57.52 -79.59,50.62 19.91,-31.11 41.64,-75.39 19.33,-111 -8.64,27.85 -7.67,76.49 -38.72,91.15 -40.34,19.04 -27.48,-15.9 -41.67,-35.83 -23.77,36.94 -28.57,92.57 -84.51,90.71 3.77,-14.1 6.78,-25.36 -5.3,-35.66 -20.95,36.24 -38.07,74.39 -75.65,96.02 -16.7,-15.73 20.43,-34.26 -5,-45.67 -29.81,15.8 -39.2,75.98 -80.78,70.08 -6.27,-8.66 -4.21,-19.91 -4.6,-29.89 -37.56,17.45 -32.36,71.56 -81.81,70.99 -14.18,-0.17 -1.44,-27.54 -3.16,-35.82 -45,7.4 -27.95,73.62 -87.03,71.2 -11.59,-0.47 -2.84,-29.26 -3.53,-36.15 -36.47,22.01 -42.93,76.05 -100.25,75.67 -7.02,-11.3 -11.65,-16.55 -10.42,-30.26 -21.94,0 -16.24,30.97 -35.21,35.72 -7.17,15.5 -18.57,4.97 -30.02,-0.55 -2.23,-23.29 1.87,-31.46 14.87,-49.41 28.34,6.3 45.16,-3.22 71.09,-11.45 52.57,-15.79 107.09,-28.21 155.12,-55.8 5.42,-2.28 7.35,-8.83 12.94,-10.78 16.49,-5.72 35.31,1.24 52.69,-6.35 17.48,-7.06 27.67,-24.6 44.61,-32.52 10.99,-5.42 23.68,-5.61 35.59,-3.84 49.16,-29.34 96.94,-65.32 125.88,-115.83 15.26,-26.05 24.78,-55.16 29.71,-84.87 18.84,3.33 26.66,-10.57 39.99,-20.36 68.02,15.91 2.93,107.28 -18.89,88.21 -3.57,-3.13 -6.84,-6.69 -11.23,-8.64 -6.45,22.31 -20.9,40.88 -30.94,61.55 65.28,-49.06 178.41,-89.73 156.88,-191.01 10.46,-5.82 30.99,-26.47 42.31,-9.96 30.8,44.92 -22.59,48.83 -28.34,70.2 60.49,13.63 37.18,-105.89 95.69,-70.66 -1.16,50.85 -18.55,32.89 -22.68,50.88 -1.95,8.45 9.82,2.84 12.07,0.77 18.08,18.59 -1.38,112.16 -56.04,64.02 -3.81,-3.47 -8.9,-4.8 -13.8,-5.77 -2.4,53.74 83.98,51.47 85.8,3.79 -0.39,-19.71 8.8,-38.59 5.36,-58.42 -17.5,-10.77 -15.67,-8.18 -5.4,-20.01 6.52,-19.03 18.49,-38.6 38.4,-45.59zm-196.23 -9.57c11.48,-1.16 23.73,1.6 32.18,9.87 -4.17,4.46 -4.87,10.6 -7.57,15.8 -8.36,13.02 -30.53,6.54 -33.16,24.34 70.39,-6.63 28.47,58.36 10.9,60.03 -10.92,-28.84 -26.83,-50.48 -60.34,-50.69 2.76,-34.06 21.48,-55.83 57.99,-59.35zm-219.01 -11.34c1.82,-0.35 99.83,-24.61 81.74,-3.81 -14.09,16.21 -119.43,32.97 -126.84,5.42 15.03,1.23 30.23,1.25 45.1,-1.61zm-317.19 -1.92c18.33,-10.57 40.99,-13.71 61.21,-6.89 -3.6,30.07 -40.72,55.09 -65.64,29.61 -12.25,8.01 0.68,17.45 5.96,26.01 85.87,-1.58 69.37,-90.16 123.88,-41.08 18.5,16.65 19.84,38.92 -6.19,44.89 -39.3,9 -105.46,-3.57 -128.72,51.48 29.41,0.17 80.56,-53.59 137.36,-34.13 56.5,19.36 92.74,-28.29 144.78,-21.42 51.01,6.74 99.8,36.38 149.23,50.09 -42.35,11.04 -104.29,-21.7 -161.58,-24.01 -48.38,-1.94 -65.42,22.85 -69.4,23.59 -60.96,4.65 -147.31,-32 -194.34,25.21 -40.16,48.87 -111.39,108.21 -160.94,147.77 -54.17,43.32 -110.53,68.5 -180.73,63.13 -0.02,-3.23 -0.02,-6.45 0,-9.67 16.02,-9.17 25.32,-25.66 35.14,-40.62 -12.02,-0.07 -24.04,-0.02 -36.06,0.02 -11.45,1.27 -18.07,-11.96 -29.71,-10.4 -2.97,-9.78 9.93,-11.25 11.01,-19.67 -16.06,0.44 -20.61,10.71 -21.5,25.03 11.76,12.82 29.59,16.22 45.62,20.72 -6.23,8.79 -32.06,20.7 -25.24,35.25 16.2,15.64 37.35,26.93 60.22,27.54 99.76,2.91 199.63,-144.89 257.51,-138.06 60.14,7.1 51.88,80.56 -1.18,84.4 -1.04,-13.14 33.78,-44.52 6.34,-53.34 -12.66,-3.89 -26.28,1.2 -36.83,8.33 2.53,18.2 22.96,30.43 -5.22,40.88 -15.3,5.62 -35.07,5 -45.24,19.81 18.98,20.11 42.1,-12.89 61.03,-0.36 -11,34.29 -68.63,50.4 -95.86,24.85 -13.64,22.12 6.4,62.5 -50.56,60.39 -7.81,-0.16 -15.2,-3.95 -19.8,-10.27 -3.93,0.32 -65.12,46.4 -64.73,-14.82 -16.47,24.94 -99.92,51.66 -64.61,-20.38 -94.22,64.17 81.67,68.41 114.75,61.46 -7.27,22 -34.01,11.79 -50.07,12.6 -20.34,1.02 -9.02,24.89 -44.94,12.2 -9.91,0.39 -16.8,-8.03 -20.95,-16.01 -10.65,1.25 -23.32,18.72 -32.9,7.63 -3.59,-4.14 -18.59,-4.86 -6.02,-12.7 -2.58,-8.77 -12.75,-3.55 -20.53,-4.38 -0.13,-1.32 -0.38,-3.95 -0.51,-5.25 -16.62,-6.73 -23.84,-16.54 -25.09,-34.43 16.21,-10 38.18,-10.02 50.91,-25.46 -0.33,-0.81 -1.01,-2.42 -1.34,-3.23 -19.1,-7.74 -45.42,6.6 -49.74,-22 20.15,-20.4 72.01,5.49 81.3,-25.88 -2.14,-0.97 -94.57,6.1 -57.35,-28.09 11.4,-10.22 25.59,-16.6 37.46,-26.23 -8.8,-12.82 -78.2,-15.53 -42.82,-41.57 7.88,-5.94 18.38,-9.45 22.66,-19.12 -19.62,-10.61 -50.42,2.53 -64.74,-15.55 2.47,-4.47 4.07,-9.34 4.45,-14.46 -41.31,9.41 -9.15,35.17 18.77,35.51 -8.57,11.8 -8.44,27.09 -14.48,40.03 -12.85,2.57 -24.8,-4.12 -35.04,-10.99 -4.57,-10.59 7.8,-15.85 10.74,-24.49 -29.79,0.4 -37.82,38.24 -10.28,44.28 34.73,7.63 82.02,-11.97 31.73,33.35 -10.39,9.35 11.73,22.77 13.14,32.68 -48.23,22.69 -0.23,54.57 -0.02,59.84 -11.3,7.36 -19.21,29.11 -11.3,40.7 4.35,6.38 55.8,29.57 27.99,38.15 -28.47,8.79 -56.89,-13.74 -57,-42.62 1.36,0.04 4.06,0.09 5.42,0.13 5.33,-8.47 6.49,-19.61 14.98,-25.92 -24.48,-18.71 -60.47,-5.13 -40.23,-55.16 -22.19,2.83 -22.01,24 -30.48,40.53 -22.81,-0.13 -32.56,-20.43 -30.32,-41.1 -11.3,6.63 -20.5,20.85 -10.52,32.02 -1.26,7.11 6.53,8.27 10.28,12.35 -2.64,26.76 -34.12,73.54 15.27,82.62 0.02,1.01 0.04,3.02 0.06,4.03 -16.91,1.64 -7.89,18.94 -31.71,2.48 -25.13,-17.36 -18.42,-19.01 -12.72,-47.27 -24.96,-1.88 -53.37,0.18 -75.63,12.68 127.32,-166.26 201.09,-385.43 442.12,-400.03 90.81,-5.51 115.4,6.94 200.42,21.21 4.39,-21.19 20.77,-37.96 39.07,-48.42zm-260.89 47.72c6.31,3.2 12.74,7.06 20.13,6.14 9.46,7.43 39.48,10.96 41.8,-6.03 -28.11,1.15 -57.99,-19.29 -61.93,-0.11zm111.65 0.22c-1.92,5.02 -6.18,8.16 -10.85,10.4 2.38,14.87 10.06,20.22 24.76,20.31 0.07,1.13 0.24,3.35 0.31,4.47 16.17,4.33 44.29,3.3 58.29,-6.43 -10.4,-14.97 -21.03,15.41 -72.51,-28.75zm-178.99 10.48c-1.33,5 0.73,9.94 2.06,14.7 6.45,3.05 12.99,6.91 20.45,5.9 0.08,1.23 0.21,3.68 0.28,4.89 10.22,1.78 42.88,3.73 48.16,-8.88 -9.1,-2.83 -18.68,-1.54 -28,-2.28 -4.87,-1.34 -37.39,-25.17 -42.95,-14.33zm106.05 24.63c-18.18,19.14 31.75,29.67 41.28,30.36 7.56,0.55 45.3,-6.33 48.6,-14 -19.72,-3 -39.68,-0.96 -59.49,-0.81 -12.25,-0.8 -14.86,-32.76 -30.39,-15.55zm-162.65 6.26c-31.11,20.81 48.99,46.34 65.33,19.19 -32.06,-0.85 -53.39,12.45 -45.48,-25.44 -6.74,1.49 -13.89,2.49 -19.85,6.25zm105.18 15.28c-3.31,3.64 -5.9,8.27 -11.09,9.46 -1.83,35.12 57.62,22.76 75.25,19.21 16.1,47.71 79.52,24.98 115.8,25.22 20.06,0.13 31.5,-6.7 46.23,-20.37 -20.74,-1.36 -37.41,20.51 -56.67,4.82 2.63,-5.04 7.59,-8 11.8,-11.54 -13.64,-13.75 -67.63,35.33 -107.43,-13.66 -17.06,0.98 -71.38,20.88 -64.26,-14.92 -3.24,0.16 -7.23,-1.02 -9.63,1.78zm-159.38 24.17c-11.3,7.78 -11.82,28.58 21.25,30.14 14.23,0.54 28.45,-0.26 42.7,0.13 2.36,-21.7 -38.43,-4.33 -49.74,-16.03 4.15,-6.1 9.87,-11.82 9.78,-19.77 -8.15,0.68 -16.97,0.82 -23.99,5.53zm123.11 14.11c-41.32,9.69 -22.3,65.1 55.18,46.54 1.53,34.35 43.64,27.55 66.7,38.64 23.38,11.39 41.51,14.28 63.99,-5.09 7.14,-6.18 13.25,-15.15 11.12,-25.07 -2.71,10.99 -15.17,12.57 -21.47,20.55 -17.18,0 -43.34,14.57 -49.43,-9.36 11.38,-13.36 34.76,-12.09 40.81,-30.57 -31.33,1.02 -67.51,35.84 -96.06,10.26 8.8,-11.23 21.77,-7.38 20.57,-25.44 -30.48,1.19 -52.03,15.29 -86.28,10.09 -12.06,-18.17 10.17,-22.95 11.08,-40.45 -7,-0.28 -13.6,3.21 -16.21,9.9zm-44.48 31.36c-0.33,1.09 -0.97,3.24 -1.3,4.32 -55.35,12.59 -22.97,80.69 35.38,61.19 -1.87,40.01 51.45,21.06 56.11,54.81 23.22,-5.2 33.86,18.35 65.22,-12.33 5.05,-4.91 7.88,-12.1 5.68,-19.01 -3.11,8.99 -14.32,7.65 -16.56,15.77 -18.18,3.91 -44.62,10.13 -49.21,-14.43 18.31,-6.82 37.07,-8.23 40.72,-31.02 -26.29,5.17 -38.98,20.85 -74.85,20.53 -2.34,-9.24 -11.82,-9.06 -11.03,-19.82 14.68,-2.73 20.16,-4.95 20.64,-20.51 -33.31,0.06 -89.5,21.78 -73.24,-15.73 3.27,-8.04 10.49,-15.2 9.48,-24.41 -2.35,0.22 -4.7,0.42 -7.04,0.64zm-181.74 84.72c-28.08,33.54 25.68,68.49 56.79,50.29 -6.83,-3.14 -62.04,-19.16 -42.81,-36.16 10.31,-9.1 26.76,-1.18 27.39,-19.5 -14.41,-3.73 -27.17,6.01 -41.37,5.37zm311.62 426.35c3.81,13.56 30.67,50.72 15.82,65.03 -12.79,5.11 -28.63,9.52 -41.08,1.05 3.39,28.72 103.34,56.99 57.64,-36.07 -6.63,-13.52 -18.08,-24.87 -32.38,-30.01zm-79.72 10.14c-1.14,8.5 -0.11,17.17 -0.46,25.74 19.01,12.94 22.56,17.49 46.39,15.29 -1.75,-8.22 -43.14,-27.81 -17.44,-32.68 15.82,-3 32.79,10.42 42.37,-7.89 -20.37,-5.78 -52.93,-17.68 -70.86,-0.46zm145.63 44.94c7.92,17.38 22.17,34.53 19.79,55.14 -0.73,2.79 -28.24,19 -45.41,5.63 2.7,32.12 50.4,27.45 71.3,20.6 -0.69,-25.37 -10.32,-81.81 -45.68,-81.37zm74.83 50.38c-1.55,31.68 43.34,73.13 -24.95,65.81 1.71,23.38 67.29,27.03 60.35,-8.2 -3.84,-22.7 -15.13,-45.46 -35.4,-57.61zm60.21 55.2c2.24,16.54 14.83,29.91 15.22,46.82 -4.34,14.33 -24.26,17.95 -35.24,8.97 -1.02,26.6 40.91,22.78 56.1,15.51 -0.8,-28.89 -5.12,-59.97 -36.08,-71.3zm75.34 55.14c-2.3,16.67 12.79,29.7 10.04,46.28 -8.71,10.7 -27.72,-3.16 -35.5,9.63 15.26,12.87 37.52,19.56 56.38,10.67 1.19,-25.5 -9.6,-51.8 -30.92,-66.58zm81.28 72.11c5.1,40.83 1.75,15.31 -21.47,39.19 12.13,7.97 29.28,7.75 41.67,0.4 0.17,-14.75 -5.1,-35.44 -20.2,-39.59zm54.55 28.41c-4.01,26.5 35.01,47.16 -20.29,45.64 0.87,21.81 31.7,14.75 46.08,15.57 6.19,-23.19 -6.67,-48.08 -25.79,-61.21zm64.57 56.49c1.13,29.71 21.11,24.89 -24.61,28.91 -0.3,22.26 33.17,17.87 46.04,11.19 0.02,-16.87 -8.16,-31.94 -15.66,-46.52 -2.31,1.67 -6.41,2.72 -5.77,6.42zm55.71 23.73c4.61,1.76 30.97,47.29 -5.4,46.26 3.72,4.58 8.49,4.77 11.19,10.18 8.64,1.16 17.63,-0.11 25.06,-4.87 -0.13,-14.27 -6.81,-60.82 -30.85,-51.57zm65.09 86.66c17.75,1.79 43.3,-10.57 31.19,-31.23 -13.67,6.58 -22.19,19.63 -31.19,31.23zm91.22 -16.4c-0.69,19.17 -15.53,18.89 -26.14,31.18 12.34,3.05 24.1,-2.34 35.9,-4.97 -0.46,-11.77 5.85,-25.87 -9.76,-26.21z"/>
   <path class="fil3" d="M1771.66 358.39c51.89,-14.78 105.43,-22.31 158.2,-33.18 -14.68,47.25 50.32,113.91 -27.31,144 -26.14,10.12 -99.09,12.67 -94.2,-25.57 1.82,-11.31 3.71,-22.81 1.89,-34.26 -17.77,7.35 -8.66,51.03 -25.01,50.4 -10.76,-3.16 -21.93,-5.22 -33.16,-4.12 -87.71,6.34 -64.64,18.48 -72.29,-52.57 -1.37,-12.7 76.57,-40.28 91.88,-44.7zm-352.92 579.29c107.92,-19.5 152.39,70.31 189.69,149.88 -40.27,-14.75 -47.33,-67.57 -93.85,-75.05 12.42,-39.77 -19.35,-38.37 -51.91,-60.53 -3.18,16.89 28.65,30.15 40.66,35.94 -9.78,63.17 66.43,33.21 60.8,93.76 -29.14,-9.69 -22.69,5.38 -45.05,11.23 -40.27,-50.58 -81.9,-89.52 -100.34,-155.23zm-202.52 -355.31c28.9,-18.6 62.08,-29.7 95.68,-36.1 -76.83,80.57 -175.24,86.96 -13.94,227.92 38.55,33.69 107.75,85.35 139.75,117.86 -35.22,6.37 -86.14,-6.5 -119.73,-20.31 -42.67,75.57 22.8,160.4 85.91,196.7 -5.26,-43.29 -76.64,-73.16 -44.79,-102.47 6.17,-5.07 11.21,-11.32 15.1,-18.27 47.71,20.46 48.24,69.5 78.31,105.87 19.08,23.1 41.06,27.09 46.18,65.05 18.95,-0.97 26.8,-22.96 45.13,-25.31 3.01,22.72 -0.83,47.09 -15.4,65.38 30.8,18.98 75.74,-25.07 56.09,-29 -25.25,-5.06 -19.14,6.5 -20.16,-35.62 25.97,13.44 29.31,0.45 49.59,3.8 -23,184.57 -139.09,46.76 -224.85,15.03 2.87,-9.46 -6.36,-15.84 -6.12,-24.9 -27.26,-4.25 -34.01,-19.22 -69.26,-20.59 1.48,-34.37 -49.77,-39.73 -80.8,-54.83 -1.52,-38.48 -35.83,-45.11 -65.34,-55.14 -0.74,-15.08 2.14,-18.41 -3.8,-23.06 -42.28,-33.11 -206.77,-124.58 -236.15,-186.71 -3.09,-10.74 -2.34,-23.55 -10.79,-32.06 41.9,-108.56 306.87,25.4 365.2,95.8 -5.5,0.29 -12.54,-0.99 -15.24,5.2 37.33,27.58 60.28,21.39 101.59,60.47 -13.26,-41.06 -122.87,-123.47 -154.1,-146.23 -57.74,-42.07 -60.73,-107.25 1.94,-148.48zm693.99 -208.1c7.42,53.08 -12.81,57.38 -40.58,76.3 51.55,7.47 66.75,-52.41 40.58,-76.3z"/>
  </g>
 </g>
</svg>
