<?xml version="1.0" encoding="UTF-8"?>
<!DOCTYPE svg PUBLIC "-//W3C//DTD SVG 1.1//EN" "http://www.w3.org/Graphics/SVG/1.1/DTD/svg11.dtd">
<!-- Creator: CorelDRAW -->
<svg xmlns="http://www.w3.org/2000/svg" xml:space="preserve" width="2000px" height="1600px" version="1.1" style="shape-rendering:geometricPrecision; text-rendering:geometricPrecision; image-rendering:optimizeQuality; fill-rule:evenodd; clip-rule:evenodd"
viewBox="0 0 2000 1600"
 xmlns:xlink="http://www.w3.org/1999/xlink">
 <defs>
  <style type="text/css">
   <![CDATA[
    .fil0 {fill:#005693}
    .fil2 {fill:#EC164F;fill-rule:nonzero}
    .fil1 {fill:#FEFEFE;fill-rule:nonzero}
   ]]>
  </style>
 </defs>
 <g id="Capa_x0020_1">
  <metadata id="CorelCorpID_0Corel-Layer"/>
  <g id="Fresno_x0020_State_x0020_Bulldogs.cdr">
   <path class="fil0" d="M847.87 289.23c14.57,-0.54 29.17,0.64 43.57,3.01 10.92,1.8 21.69,4.39 32.31,7.52 18.95,5.6 37.25,12.93 55.53,20.39 28.12,11.46 57.95,24.18 88.48,27.14l1.01 0.1 1.01 0.16c2.32,0.37 5.1,0.34 7.45,0.38 11.24,0.2 20.96,0.87 31.49,5.12 37.11,13.91 71.07,35.27 101.08,61.03 9.04,7.76 17.75,15.91 26.11,24.41 1.56,-0.57 3.19,-1.04 4.89,-1.4 45.83,-9.59 81.36,5.4 125.4,10.64 1.29,0.16 2.47,0.36 3.64,0.64 -10.37,-16.81 -16.12,-34.9 -8.45,-55.19 8.18,-21.63 30.44,-32.87 52.73,-31.42 17.79,1.15 33.68,2.67 49.54,11.45 21.44,10.94 39.99,27.42 51.02,49.05 17.83,35 12.84,78.62 -10.64,109.75 7.94,8.79 15.27,18.16 21.89,28.11 2.92,3.9 5.27,8.16 7.13,12.68 2.27,5.54 3.52,10.94 4.85,16.73 0.25,1.1 0.56,2.66 0.97,3.75 0.4,0.72 0.72,1.38 1.07,2.15 7,15.47 29.94,26.6 44.09,34.04 28.72,15.1 55.49,31.48 71.53,60.85 0.32,0.59 0.58,1.11 0.88,1.73 5.81,12.34 14.23,22.78 19.88,35.85 3.48,7.78 6.54,15.74 9.3,23.8 7.62,22.25 12.77,46.24 19.86,69.13 34.82,-9.09 68.79,5.78 95.21,28.15 1.51,1.27 2.7,2.47 3.97,3.99 24.26,29.04 38.93,62.89 61.13,92.66 8.35,11.19 18.01,21.86 29.46,29.96 15.66,10.35 24.97,24.52 34.23,40.41 0.2,0.34 0.36,0.64 0.55,0.99 5.17,9.62 9.39,19.68 12.95,30 5.5,16 9.29,32.41 13.05,48.88 4.68,20.49 9.48,42.51 19.33,61.25 0.23,0.43 0.42,0.8 0.62,1.25 3.11,6.58 9.48,13.91 13.66,20.01 2.59,3.78 4.15,7.46 5.06,11.95 6.59,32.43 9.43,65.47 -6.09,96.01 -8.36,17.4 -24.01,28.17 -41.83,34.49 -5.62,1.99 -11.39,3.5 -17.23,4.64 -16.72,3.26 -38.59,2.45 -53.86,7.71 -0.09,0.03 -0.18,0.06 -0.26,0.09 -0.76,0.35 -1.59,0.85 -2.31,1.26 -8.96,5.1 -16.7,8.71 -27.17,9.48 -17.9,1.64 -34.45,1.71 -49.21,-7.59 -3.14,0.54 -6.36,0.63 -9.55,0.23 -0.32,0.24 -0.64,0.47 -0.94,0.68 -8.22,5.81 -17.66,7.47 -27.38,4.83 -8.46,-2.3 -15.08,-7.31 -19.39,-14.63 -0.35,0.38 -0.7,0.76 -1.05,1.14 -8.12,8.81 -19.46,12.34 -31.14,9.71 -9.54,-2.15 -18.55,-6.1 -26.04,-11.74 -6.53,2.37 -13.08,4.67 -19.63,6.95 -10.07,3.51 -20.24,2.17 -29.06,-3.82 -3.09,-2.1 -5.72,-4.57 -7.84,-7.35 -3.61,0.45 -7.03,0.31 -10.76,0.01 -9.74,7.23 -21.89,8.51 -32.99,3.42 -11.34,-5.2 -18.36,-15.56 -18.98,-28.02 -0.45,-9.01 0.74,-17.97 3.75,-26.14 -7,-20.6 -2.6,-42.4 7.93,-61.2 0.15,-0.29 0.29,-0.53 0.46,-0.8 0.74,-1.24 1.4,-2.84 2.03,-4.15 5.15,-10.75 11.3,-19.44 21.65,-25.6 36,-23.68 68.85,-48.83 110.04,-62.1 -9.7,-25.35 -23.51,-49.52 -43.56,-67.67 -12.7,7.94 -27.1,12.77 -42.87,12.56 -1.26,-0.01 -2.34,-0.09 -3.59,-0.24 -39.86,-4.95 -77.7,-22.08 -108.2,-48.03 -1.62,26 -5.84,51.84 -12.95,76.91 -22.97,80.96 -71.06,149.47 -121.02,215.9 -0.34,0.45 -0.63,0.81 -0.98,1.24 -9.97,12 -16.2,24.79 -27.56,36.46 -14.67,15.9 -36.54,32.32 -47.45,50.41 -3.29,5.46 -4.59,12.1 -4.63,18.41 -0.06,7.42 -2.24,13.77 -6.76,19.65 -24.96,32.45 -63.12,53.1 -103.46,58.63 -17.41,2.68 -34.52,1.91 -51.86,0.17 -8.87,2.44 -17.61,5.72 -26.19,8.9 -23.34,8.65 -45.25,16.41 -70.45,16.96 -17.14,0.74 -34.13,-2.81 -49.89,-9.48 -3.05,1.47 -6.21,2.96 -9.55,4.63 -15.71,7.88 -34.85,1.88 -43.26,-13.55 -1.71,-3.14 -3.01,-6.33 -3.91,-9.52 -9.41,0.32 -17.78,-3 -24.21,-9.57 -1.11,0.36 -2.24,0.7 -3.39,1.06 -0.78,0.24 -1.75,0.51 -2.61,0.82 -7.26,6.14 -16.19,8.64 -25.78,7.18 -10.37,-1.57 -18.63,-7.34 -23.69,-16.54 -4.67,-8.49 -6.5,-18.13 -5.09,-27.74 0.08,-0.59 0.18,-1.17 0.28,-1.73 -0.85,0.18 -1.74,0.34 -2.69,0.48 -10.5,1.54 -20.21,-1.66 -27.74,-9.15 -7.53,-7.49 -10.78,-17.18 -9.29,-27.7 2.23,-15.78 10.18,-30.64 22,-39.96 0.34,-13.22 4.62,-25.09 11.14,-36.06 -1.29,0.38 -2.65,0.78 -4.1,1.24 -10.7,6.17 -23.51,5.84 -34.03,-1.05 -3.69,0.59 -7.58,0.88 -11.66,1.02 -0.82,0.03 -1.63,0.02 -2.44,-0.01 -1.34,0.4 -2.73,0.72 -4.19,0.96 -5.13,0.85 -12.47,0.71 -16.88,1.84 -7.95,2.03 -15.92,1.11 -22.75,-2.34 -0.78,0.06 -1.58,0.09 -2.37,0.1 -2.21,0.04 -4.1,-0.12 -6.27,-0.51 -3.05,-0.54 -5.86,-1.35 -8.42,-2.38 -6.1,1.2 -10.72,0.73 -17.59,1.46 -10.57,1.82 -20.49,-1.26 -28.21,-8.75 -7.77,-7.55 -11.13,-17.47 -9.54,-28.19 0.93,-6.3 3.09,-12.58 6.12,-18.18 1.61,-3 3.49,-5.78 5.59,-8.31 -3.81,-19.35 3.42,-37.81 15.18,-53.47 18.5,-24.65 48.42,-36.32 78.51,-37 2.8,-0.06 5.53,0.21 8.13,0.8 0.86,-1.03 1.79,-2.01 2.8,-2.96 22.12,-20.85 51.71,-30 81.53,-31.81 5.08,-0.43 10.07,-0.58 15.02,-0.53 1.44,-1.65 3.07,-3.19 4.88,-4.6 0.96,-0.74 2.64,-2 3.68,-3.05 0.05,-0.24 0.08,-0.51 0.1,-0.69 0.45,-3.75 -0.37,-9.11 -0.83,-12.86 -0.59,-4.8 -1.08,-9.44 -1.35,-13.97 -86.85,30.74 -180.7,40.35 -272.3,31.94 -59.99,-5.5 -119.48,-18.67 -175.36,-41.39l-4.04 -1.64c-12.36,12.25 -29.6,19.01 -47.27,16.7 -0.55,-0.05 -1.1,-0.11 -1.64,-0.17 -4.48,4.76 -9.04,9.28 -13.82,13.35 21.45,19.72 37.88,44.67 44.98,73.29 0.45,0.48 0.91,0.95 1.32,1.39 2.05,2.23 3.75,4.63 5.09,7.16 1.98,0.34 3.96,0.72 5.94,1.17 7.6,1.47 14.88,4.01 21.84,7.43 10.3,5.05 19.16,11.66 28.17,18.65 5.9,4.58 16.5,13.54 24.34,14.47 0.36,0.04 0.69,0.08 1.04,0.14 0.09,-0.02 0.19,-0.03 0.27,-0.05 2.94,-0.48 6.56,-1.9 9.39,-2.87 8.93,-3.04 17.26,-5.36 26.72,-5.68 26.2,-1.57 51.24,7.8 72.96,21.86 12.3,7.57 16.04,15.39 24.24,26.33 0.15,0.2 0.28,0.38 0.43,0.59 9.95,13.91 17.62,28.89 20.2,45.84 13.7,9.31 23.32,24.35 23.97,42.28 0.4,10.99 -4.19,20.62 -12.97,27.24 -8.4,6.32 -18.38,8.2 -28.38,5.37 -1.9,0.17 -4.63,0.88 -6.28,1.23 -4.58,0.98 -9.01,1.81 -13.54,2.23 1.75,5.12 2.75,10.57 2.86,16.27 0.21,11.59 -5.14,21.66 -14.87,27.97 -9.03,5.86 -19.48,6.95 -29.34,3.14 -1.64,0.11 -3.65,0.47 -5.06,0.66 -1.13,0.16 -2.24,0.3 -3.35,0.43 -2.42,3.2 -5.35,6.2 -8.66,9.17 -5.82,5.78 -12.9,8.96 -20.87,9.39 -0.04,0.38 -0.08,0.76 -0.13,1.14 -1.34,10.48 -6.99,18.93 -16.16,24.18 -8.49,4.85 -17.81,5.72 -26.85,2.53 -4.35,0.19 -10.09,1.52 -14.87,1.94 -8.26,0.77 -16.3,-0.85 -23.39,-4.24 -21.76,8.68 -45.89,11.07 -68.99,6.93 -22.48,-4.03 -43.26,-13.4 -62.26,-25.71 -30.92,4 -61.78,4.91 -92.08,-4.91 -27.48,-8.91 -51.11,-28.32 -64.38,-54.06 -10.71,-20.78 -14.68,-41.69 -21.87,-63.03 -48.5,-32.97 -86.47,-80.54 -108.77,-134.73 -19.03,-46.22 -27.01,-95.97 -28.34,-145.73 -9.45,-18.21 -17.77,-34.01 -17.42,-56.11 -0.78,-17.36 6.35,-28.68 15.43,-42.71 9.59,-14.8 24.22,-25.68 42.26,-27.17 2.84,-0.24 5.28,-0.13 8.09,0.34 0.05,0.01 0.1,0.01 0.15,0.02 4.14,-8.98 8.68,-17.8 13.87,-26.42 12.79,-21.21 29.27,-40.25 49.64,-54.48 5.83,-4.47 12.19,-7.02 18.85,-8.08 1.42,-13.24 7.87,-26.19 17.53,-36.11l0.68 -0.7 0.71 -0.65c3.21,-2.93 12.37,-9.41 16.09,-13.18 5.05,-65.86 18.93,-131.54 47.37,-191.38 -0.74,-1.44 -1.39,-2.96 -1.95,-4.55 -3.54,-10.18 -2.13,-20.48 4.01,-29.33 14.29,-20.59 31.62,-38.59 50.46,-54.94 -0.15,-0.86 -0.26,-1.75 -0.35,-2.66 -2.41,-26.54 0.8,-52.28 2.96,-78.66 0.18,-2.21 0.58,-4.35 1.17,-6.4 -19.21,-16.74 -34.78,-37.68 -46.54,-60.33 -4.72,-9.1 -5.02,-18.89 -0.86,-28.26 4.16,-9.37 11.62,-15.71 21.54,-18.32 7.1,-1.86 12.7,-3.81 18.72,-4.96 -6.21,-4.78 -11.39,-11.25 -15.61,-18.61 -7.36,-12.83 -5.35,-28.45 4.91,-38.96 0.81,-3.88 -0.81,-13.78 -1.33,-16.92 -0.06,-0.37 -0.11,-0.7 -0.16,-1.07 -2.63,-20.16 -6.04,-35.86 3.91,-55.42 0.31,-0.61 0.59,-1.13 0.94,-1.73 10.51,-17.87 27.67,-24.43 46.75,-26.38 14.35,-17.36 35.01,-28.81 58.39,-24.15 24.89,3.9 40.07,22.54 50.01,44.4 1.41,3.1 5.25,12.15 8.96,17.76 1.01,-0.53 1.95,-1.05 2.65,-1.42 6.85,-3.59 13.39,-6.9 20.88,-9.03 0.71,-0.21 1.32,-0.36 2.03,-0.51 15.82,-3.43 31.82,-5.69 47.69,-8.7 3.78,-3.19 6.89,-5.85 11.9,-8.33 6.28,-3.24 12.92,-5.57 19.81,-7.15 9.72,-2.22 19.29,-2.76 29.2,-3.23 5.39,-0.26 13.88,-0.43 19.34,-2.43 0.58,-0.98 1.06,-2.62 1.24,-3.48 0.05,-0.23 0.09,-0.42 0.14,-0.65 0.18,-0.77 0.27,-1.56 0.34,-2.34 0.28,-3.5 0.04,-7.28 -0.13,-10.79 -0.67,-13.81 -0.83,-25.84 3.67,-39.19 6.02,-17.86 21.14,-30.88 39.2,-35.62 3.32,-0.87 6.27,-1.18 9.7,-1.03 6.58,0.29 12.98,1.54 19.19,3.61 0.62,-0.23 1.26,-0.44 1.9,-0.63 18.91,-5.75 33.46,-11.29 53.24,-3.64 12.41,4.24 18.73,12.48 24.32,23.82 0.36,0.64 0.67,1.24 1,1.94 6.43,13.51 19.26,24.41 31.28,32.88 5.23,3.68 8.8,8.13 11.28,14.02 6.38,15.17 5.98,32.67 -1.19,46.75 8.59,-3.47 17.41,-6.64 26.3,-9.78 10.48,-3.71 21.17,-2.13 30.14,4.44 8.97,6.56 13.7,16.28 13.33,27.39 -0.69,21.06 -2.38,42.14 -7.24,62.22zm261.85 656.85c-20.56,30.43 -45.64,57.33 -73.81,80.62 1.64,1.07 3.3,2.22 5.09,3.43 2.2,0.13 4.52,0.08 6.64,0.07 11.73,-0.07 21.95,0.31 33.16,4.39 0.33,0.12 0.61,0.23 0.94,0.36 21.72,8.66 37.12,30.38 32.81,54.06 -6.17,53.31 -28.26,103.06 -60.56,145.3 15.56,-4.84 31.81,-7.77 48.08,-9.22 3.53,-0.31 7.07,-0.56 10.6,-0.76 0.39,-4.14 1.36,-8.27 2.95,-12.29 18.52,-54.29 20.48,-114.38 34.86,-170.27 6.1,-23.67 14.62,-46.78 26.5,-68.08 -10.3,-1.51 -20.41,-4.37 -30.02,-8.53 -3.95,-1.6 -8.07,-2.93 -12.07,-4.47 -9.5,-3.68 -18.1,-8.32 -25.17,-14.61zm-378.91 -708.46c-2.51,0.37 -5.05,0.65 -7.58,0.82 1,1.26 2.02,2.52 3.04,3.77 1.48,-1.58 2.99,-3.11 4.54,-4.59zm-374.42 103.94c0.61,-3.03 1.22,-6.17 1.74,-9.34 -3.82,2.72 -7.79,5.19 -11.92,7.35 3.42,0.46 6.81,1.11 10.18,1.99zm149.07 276c1.29,-3.55 2.84,-7.09 4.67,-10.62 2.82,-5.45 6.88,-9.8 11.72,-12.82 -6.53,-1.97 -12.39,-6.05 -16.75,-11.96 -3.35,-4.55 -6.67,-8.88 -9.84,-13.22 0.16,3.5 0.55,6.98 1.09,10.44 1.46,9.45 3.97,18.83 6.44,28.07 0.91,3.4 1.8,6.77 2.67,10.11z"/>
   <path class="fil1" d="M674.89 120.4c10.4,-3.16 21.8,-8.64 32.67,-4.15 4.11,1.22 5.04,5.8 6.95,9.07 9.05,19.02 25.01,33.6 41.95,45.53 3.52,8.38 2.71,20.85 -6.29,25.52 -21.71,14.15 -53.69,13.23 -72.73,-5.09 -10.61,-8.26 -21.44,-16.39 -30.19,-26.7 -3.72,7.56 -4.49,17.29 0.72,24.37 21.96,29.97 41,62.23 66.61,89.36 11.35,11.19 14.08,27.59 16.11,42.71 -9.97,2.06 -20.24,3.5 -29.4,8.28 -5.71,-21.25 -21.21,-38.85 -40.23,-49.46 3.86,-4.89 6.81,-10.4 8.87,-16.29 -16.48,-7.02 -33.72,3.81 -45.11,15.23 -18.28,20.31 -18.44,49.01 -24.1,74.24 -5.32,11.6 -20.65,8.69 -30.08,4.42 -8.46,-5.71 -5.59,-17.22 -8.73,-25.61 -1.2,-5.32 -7.45,-2.68 -11.08,-2.89 1.63,9.91 3.66,20.65 -0.99,30.1 -6.16,12.17 -22.09,16.81 -34.5,12.39 -14.69,-12.52 -21.73,-32.08 -37.53,-43.53 -10.96,-8.14 -25.29,-5.82 -38,-5.3 -7.33,0.05 -14.06,3.21 -19.81,7.54 2.8,5.8 7.06,10.99 13.86,11.91 -10.32,7.72 -16.45,20.11 -16.66,32.97 -1.33,11.64 4.22,22.25 8.31,32.74 -10.74,2.55 -19.88,9.97 -31.03,10.92 -7.36,0.02 -10.72,-7.85 -11.46,-14.06 -5.42,-32.89 12.54,-64.42 8.59,-97.32 -0.81,-7.92 -3.83,-15.34 -7.22,-22.45 7.2,-18.1 2.55,-38.52 -7.33,-54.65 -5.6,14.58 -0.54,31.97 -10.2,45.08 -13.36,20.99 -34.07,41.59 -60.58,41.77 -6.86,0.86 -10.79,-5.62 -13.7,-10.69 12.18,-11.69 9.95,-29.88 7.47,-44.95 -1.56,-11.94 -5.15,-25.05 0.63,-36.4 5.37,-9.14 16.94,-10.29 26.47,-10.81 -1.74,9.48 -6.84,18.93 -3.72,28.7 8,-10.13 9.72,-23.83 16.99,-34.52 6.7,-10.33 18.11,-21.37 31.54,-18.3 13.43,1.76 20.96,14.58 26.04,25.77 6.43,14.12 13.22,30.19 27.75,37.66 15.8,5.46 29.02,-8.4 43.37,-12.48 16.99,-3.68 34.28,-6 51.36,-9.41 6.7,-0.9 10.18,-7.6 16,-10.36 21.05,-11.08 46.44,-3.02 67.96,-12.56 10.43,-4.7 16.68,-15.44 18.91,-26.29 3.68,-16.18 -2.43,-33.2 2.98,-49.13 2.46,-7.42 9.16,-12.54 16.56,-14.48 18.53,0.81 31.3,16.09 47.59,22.81 -4.89,-7.31 -10.44,-14.12 -15.59,-21.21zm287.38 1363.69c-5.05,-9.27 3.48,-18.43 11.69,-21.77 6.03,-1.63 10.97,2.46 13.34,7.67 -7.2,6.52 -16.48,9.81 -25.03,14.1zm-481.71 -30.05c14.99,-4.36 34.64,8.28 32.52,24.88 -9.27,-3.97 -18.93,-0.2 -28.43,0.3 -6.52,0.68 -14.17,-4.83 -13.04,-11.92 0.43,-5.59 4.69,-10.04 8.95,-13.26zm407.3 -21.17c6.7,-8.57 20.12,-5.44 24.95,3.5 -5.17,15.12 -24.16,11.39 -34.18,21.05 -5.24,-9.52 4.28,-17.37 9.23,-24.55zm-334.07 -20.26c13.87,-15.1 40.97,0.95 41.31,19.16 -11.64,-5.47 -24.01,1.48 -35.94,-0.77 -7.2,-2.71 -7.31,-12.23 -5.37,-18.39zm284.02 -0.75c1.44,-10.2 8.66,-24.07 20.94,-21.37 1.26,0.14 3.79,0.39 5.05,0.5 1.29,4.67 4.79,10.22 1.54,14.78 -4.02,1.9 -8.62,1.4 -12.91,1.85 -5.21,-0.04 -9.55,3.5 -14.62,4.24zm-225.78 -41.7c0,-6.4 6.86,-9.36 12.2,-10.51 13.11,-3.09 28.68,6.07 29.2,20.35 -12,-3.92 -23.65,2.84 -35.58,2.57 -6.25,-0.43 -6.86,-7.67 -5.82,-12.41zm145.22 -66.49c3.9,-5.87 7.72,-15.51 16.32,-14.58 5.82,0.45 7.8,8.82 3.31,12.16 -6.52,1.08 -13.2,0.77 -19.63,2.42zm61.13 0.49c1.49,-6.86 4.47,-14.35 11.69,-16.83 3.88,-2.15 6.72,2.8 9.65,4.49 -2.59,9.72 -14.41,7.49 -21.34,12.34zm-115.92 -4.71c1.07,-7.16 7.27,-17.94 15.84,-14.04 3.86,1.13 9.26,5.39 7.23,9.86 -6.46,5.08 -15.48,2.82 -23.07,4.18zm1076.25 -18.12c7.87,-2.78 16.06,3.65 18.21,11.14 2.05,4.9 -3.19,8.37 -5.76,11.78 -8.62,-5.48 -16.88,1.6 -23.71,6.43 -5.01,-11.08 1.42,-23.58 11.26,-29.35zm-127.81 21.46c-0.5,-11.72 7.99,-22.41 18.66,-26.34 8.85,-2.52 14.96,5.87 17.49,13.14 -11.94,4.71 -24.03,8.98 -36.15,13.2zm-46.75 -29.52c5.05,-2.32 11.82,-5.55 16.72,-1.24 3.31,3.34 4.69,8.03 6.77,12.18 -3.77,9.44 -14.27,4.77 -21.78,4.9 -4.96,-0.45 -7.83,4.4 -11.28,7.09 -0.43,-8.56 1.65,-18.26 9.57,-22.93zm-880.97 -38.99c12.32,-16.47 33.21,-23.51 53.16,-23.96 -11.26,9.29 -22.25,19.83 -27.39,33.86 -6.05,14.27 -5.58,30.6 -0.14,44.95 2.71,6.23 -3.29,11.2 -9.09,11.29 -7.43,-1.34 -1.02,-10.99 -5.64,-14.74 -7.2,-6.5 -16.61,-11.8 -19.63,-21.66 -3.1,-10.65 2.43,-21.41 8.73,-29.74zm240.56 -170.36c14.62,-6.55 29.76,-16.63 46.51,-13.07 7.17,1.13 12.41,6.39 18.29,10.13 13.39,4 27.9,-0.54 41.12,4.27 7.24,2.89 14.69,10.17 12.63,18.68 -8.77,79.88 -58.35,150.96 -123.04,196.61 -9.61,3.38 -20.24,3.38 -29.83,7.17 -25.39,8.62 -52.91,19.66 -79.77,10.74 -3.2,-7.08 -8.05,-13.2 -15.21,-16.58 -6.94,2.21 -13.96,4.22 -20.98,6.29 -6,-21.84 -0.23,-46.73 15.71,-63 9.07,-9.99 22.18,-15.03 35.38,-16.42 -12.66,-7.38 -25.84,1.91 -38.23,5.14 -20.8,11.42 -29.58,36.53 -29.11,59.17 0.91,7.62 5.51,14.8 4.22,22.65 -2.88,4.81 -8.89,4.02 -13.65,4.17 -3.16,-5.84 -3.99,-13.65 -9.9,-17.53 -5.78,-1.08 -11.69,-0.54 -17.54,-0.61 -6.72,-20.49 3.45,-41.47 16.59,-56.86 11.37,-11.44 30.82,-8.6 41,-21.8 -3.03,-1.28 -6.03,-2.55 -9.03,-3.79 16.47,-15.52 39.45,-21.73 61.54,-23.01 19.15,-1.7 38.22,1.57 57.22,3.38 -1.04,-10.06 -12.43,-11.37 -19.7,-15.28 5.44,-4.22 10.9,-8.95 13.52,-15.52 9.13,-21.12 -6.68,-45.24 4.85,-65.78 8.08,-13.31 25.13,-12.29 37.41,-19.15zm-814.81 -158c3.95,-3.32 9.57,-2.39 14.2,-1.26 11.37,3.74 19.38,13.24 26.53,22.36 7.13,9.59 15.3,18.36 22.41,27.98 42.49,54.2 97.95,96.21 154.59,134.55 -10.02,10.79 -21.8,23.42 -37.77,23.02 -33.69,-1.67 -62.64,-23.52 -96.45,-24.6 -0.72,0.99 -2.16,2.96 -2.88,3.95 35.47,10.83 71.23,22.7 102.64,42.89 27.01,17.15 49.49,43.33 56.71,75.05 0.85,5.62 4.82,9.73 8.53,13.75 -23.13,12.14 -50.91,17.69 -68.85,37.97 -3.45,4.47 -9.79,10.31 -4.13,15.75 25.14,-27.41 64.24,-44.07 101.36,-35.56 29.79,5.48 46.67,37.39 77.15,41 15.1,2.48 27.98,-7.94 42.76,-8.26 19.41,-1.31 38.11,6.48 54.09,16.88 7.04,4.24 10.72,11.89 15.5,18.28 7.24,10.13 13.43,21.39 14.78,33.98 -9.32,7.29 -19.02,14.73 -30.89,17.13 -10.4,-20.36 -25,-40.42 -47.14,-48.77 -25,-10.42 -52.8,-0.99 -78.21,-9.31 -2.32,2.73 -5.82,5.12 -5.84,9.11 7.63,6.39 18.34,7.02 27.82,8.08 20.06,1.62 42.65,-2.03 59.82,10.85 13.09,11.74 27.1,24.28 32.47,41.63 3,8.35 2.12,17.38 1.26,26.04 -10.69,0.25 -21.95,-0.4 -31.93,4.07 -7.1,3 -11.03,10.31 -12.41,17.55 0.05,7 4.04,13.18 5.1,20.02 0.23,4.4 -4.01,6.59 -6.65,9.29 -4.13,-5.21 -6.62,-11.51 -7.11,-18.12 -1.17,-12.29 -2.71,-24.61 -6.3,-36.46 -6.38,-19.18 -21.39,-35.04 -39.64,-43.48 -25.84,-10.9 -56.59,-4.34 -80.74,-20.33 -3.56,2.75 -10.92,8.86 -4.31,12.56 18.44,10.61 40.53,8.92 60.81,12.62 13.54,2.19 28.03,7.67 35.47,19.97 6.75,9.61 6.01,21.91 9.82,32.67 4.15,13.04 6.61,27.76 -0.25,40.39 -8.89,-1.26 -17.46,-5.68 -26.56,-4.65 -12.7,3.95 -24.64,15.08 -24.89,29.13 -17.98,9.28 -38.96,12.35 -58.87,8.65 -22.02,-3.82 -42.12,-14.6 -60,-27.69 -29.69,4.54 -60.96,7.67 -90.03,-1.85 -19.31,-6.16 -36.26,-19.81 -45.44,-37.98 -10.72,-20.44 -14.38,-43.52 -22.25,-65.03 -0.86,-4.17 -4.72,-6.18 -7.88,-8.41 -44.36,-29.43 -79.31,-72.53 -99.35,-121.79 -18.64,-44.7 -25.41,-93.39 -26.04,-141.52 -7.74,-15.23 -17.87,-30.58 -17.24,-48.45 -0.72,-9.41 5.4,-16.99 10.18,-24.43 3.99,-6.12 9.9,-11.76 17.55,-12.39 5.51,0.92 9.28,6.41 8.94,11.87 0.74,7.22 -2.32,16.81 5.39,21.21 9.91,-25.39 18.8,-51.4 33.04,-74.8 10.47,-17.58 24.19,-33.47 41.13,-45.11zm591.92 -21.26c41.02,-10.71 86.76,14.13 101.81,53.41 10.69,26.22 8.28,57.54 -6.93,81.51 -19.83,33.1 -62.95,49.46 -99.8,38.11 -30.76,-8.55 -55.56,-34.84 -62.35,-66.03 -8.89,-36.32 7.76,-77.26 40.01,-96.41 8.1,-5.83 18.03,-7.41 27.26,-10.59zm12.32 40.19l0 0c2.34,6.57 4.69,13.13 6.97,19.72 3.88,-1.35 7.76,-2.71 11.66,-4.01 -1.19,19.47 -2.32,38.94 -3.09,58.42 -13.06,-14.4 -25.67,-29.2 -38.15,-44.12 3.49,-1.24 6.99,-2.46 10.51,-3.7 -2.3,-6.54 -4.53,-13.09 -6.99,-19.56 -16.63,5.84 -33.29,11.66 -49.94,17.46 2.15,6.52 4.45,12.98 6.66,19.5 2.98,-1.02 5.91,-2.05 8.89,-3.05 23.17,26.2 46.14,52.58 69.09,78.96 9.1,-3.1 18.12,-6.35 27.24,-9.35 2.86,-35.26 4.06,-70.62 7.06,-105.87 2.48,-0.86 4.96,-1.71 7.47,-2.57 -2.35,-6.52 -4.6,-13.07 -6.91,-19.59 -16.83,5.94 -33.75,11.58 -50.47,17.76zm-40.71 -77.35c5.69,-4.69 13.79,-7.2 20.78,-3.93 14.24,6.28 13.25,28.71 1.58,36.99 -8.39,4.31 -16.74,-2.42 -22.07,-8.44 6.55,0.47 12.87,3.81 19.34,3.49 5.64,-3.99 5.46,-12.63 3.93,-18.7 -3.79,-9.73 -16.29,-4.38 -23.56,-9.41zm-109.44 5.55c10.47,-12.86 28.55,-14.31 40.48,-25.38 5.96,6.63 5.42,15.95 3.05,23.96 -3.66,12.41 -2.19,27.26 -12.73,36.64 -15.41,-6.43 -21,-23.08 -30.8,-35.22zm157.64 -71.58c7.27,-16.85 26.04,-24.59 41.59,-32.38 11.73,9.26 13.47,25.07 14.01,38.97 0.04,9.3 2.59,18.82 -0.41,27.94 -20.67,-6.63 -42.42,-16.18 -55.19,-34.53zm-252.16 -113.45c8.37,5.78 8.15,16.79 11.24,25.54 -6.34,4.25 -13.5,7.2 -21.21,7.56 2.27,-11.3 4.46,-22.83 9.97,-33.1zm94.12 -14.82c7.53,9.61 20.66,17.62 20.17,31.22 -4.87,7.59 -14.67,7.63 -22.61,8.85 -12.84,-11.3 0.65,-27.03 2.44,-40.07zm552.74 140.42c37.46,-67.56 100.48,-118.38 170.41,-149.52 32.06,8.69 61.1,27.98 81,54.65 23.74,31.3 36.54,69.28 45.09,107.19 7.17,31.45 11.12,63.47 15.61,95.38 9.37,-2.31 20.24,-2.51 28.28,3.61 8.84,6.88 9.68,19.36 9.22,29.71 -1.78,20.45 -16.56,35.86 -27.19,52.24 0.23,32.22 -3.61,64.54 -12.47,95.58 -21.67,76.59 -68.49,142.41 -115.72,205.21 -9.29,11.19 -15.84,24.43 -26.13,34.84 -17.12,18.72 -38.54,33.96 -51.71,56.02 -6.46,10.5 -9.23,22.79 -9.32,35.03 -19.77,25.7 -50.37,41.92 -82.3,46.23 -16.44,2.57 -33.12,1.22 -49.52,-0.61 -32.09,7.52 -61.72,25.7 -95.34,26.31 -12.73,0.61 -25.36,-2.23 -36.98,-7.29 3.47,-16.76 -14.45,-27.8 -29.09,-28.14 -5.19,-19.96 0.61,-41.81 13.74,-57.47 10.88,-12.57 25.46,-21.77 41.41,-26.44 20.44,-6.52 42.33,-5.55 63.36,-2.85 -11.94,-11.96 -29.4,-17.28 -46.05,-15.02 -35.59,4.31 -67.92,27.21 -85.3,58.33 -5.64,13.85 -1.17,30.07 -8.3,43.43 -3.88,7.02 -12.41,7.25 -19.43,7.54 -7.33,-9 -5.75,-21.91 -12.82,-30.94 -6.5,-7.87 -18.57,-1.33 -25.52,-8.35 -4.31,-3.49 -2.5,-9.41 -2.28,-14.1 2.37,-25.59 19.82,-47.99 42.09,-59.91 31.56,-17.01 68.55,-16.94 103.46,-18.07 -2.17,-7.07 -8.76,-12.35 -16.32,-11.76 -37.07,-0.59 -76.76,4.69 -107.14,27.71 -12.41,9.21 -22.36,21.46 -29.47,35.13 -1.82,2.35 -2.45,6.48 -5.84,7.09 -7.4,2.84 -15.59,-4.18 -14.51,-11.89 -1.53,-15.55 8.15,-28.75 17.76,-39.83 10.31,-13.9 26.38,-21.98 42.29,-27.78 30.01,-10.51 62.25,-10.85 93.68,-11.44 24.37,-23.1 58.15,-33.03 90.94,-35.85 28.52,-2.62 57.18,-0.81 85.72,0.36 -8.57,-13.07 -25.41,-12.5 -38.33,-18.16 -6.37,-2.51 -8.9,-10.14 -6.19,-16.23 19.39,-56.21 21.19,-116.34 35.93,-173.66 7.53,-29.2 19.06,-57.83 37.45,-81.95 11.56,-15.48 26.09,-28.41 41.23,-40.26 20.92,-16.24 45.17,-27.53 65.95,-43.95 -40.68,9.39 -69.61,43.57 -109.34,55.3 -18.96,5.53 -39.67,3.95 -57.75,-3.95 -12.5,-5.12 -29.11,-8.34 -34.48,-22.49 -1.53,-41.48 10.45,-82.77 30.22,-118.98zm-519.42 -120.3c-3.65,-10.85 0.93,-22.54 1.38,-33.69 4.65,5.98 10.7,11.15 14.19,17.9 -2.77,7.17 -9.7,11.35 -15.57,15.79zm61.22 -27.14c22.93,-13.09 53.41,-15.46 75.64,0.27 4.38,7.22 5.75,17.33 0.92,24.68 -12.09,11.58 -29.56,14.29 -45.58,15.73 -17.51,1.78 -36.35,1.36 -52.01,10.59 -30.46,22.79 -54.67,53.43 -87.86,72.63 -18.12,10.56 -40.08,14.92 -60.66,10.27 -13.06,-5.71 -23.22,-16.23 -34.97,-24.03 4.28,23.91 23.26,46.21 48.01,49.86 23,3.14 45.58,-6.92 63.52,-20.67 24.17,-18.7 41.3,-44.45 60.45,-67.87 6.86,-10.54 21.21,-9.79 32.25,-11.53 28.02,-1.15 59.89,3.57 83.15,-15.93 9.18,10.49 6.38,25.2 11.53,37.37 -31.07,29.8 -68.35,55.71 -111.29,64.01 3.57,-8.1 10.74,-14.6 12,-23.62 0.39,-3.46 -1.12,-4.99 -4.51,-4.61 -23.46,24.4 -49.48,47.55 -80.91,61.09 -22.82,9.04 -49.33,14.96 -72.82,4.94 -37.23,-13.9 -64.42,-54.54 -58.44,-94.55 15.03,-7.02 28.56,-17.22 44.65,-21.82 24.19,-7.81 49.89,-7.22 74.96,-8.39 6.52,-0.48 13.56,0.18 19.39,-3.39 29.33,-15.57 53.2,-39.53 82.58,-55.03zm-161.52 40.59c-3.4,-21.41 -6.97,-44.7 3.46,-64.83 5.62,21.51 19.65,40.21 21.48,62.8 -7.83,3.61 -16.63,3.75 -24.94,2.03zm127.22 -68.41c9.14,2.95 13.25,12.02 15.55,20.62 -4.96,3.86 -9.7,7.99 -14.49,12.05 -1.15,-10.85 -2.77,-21.8 -1.06,-32.67zm58.65 -25.39c8.12,5.33 14.58,12.97 17.89,22.16 -3.13,0.86 -7.65,4.83 -10.22,0.9 -3.43,-7.38 -3.7,-15.86 -7.67,-23.06zm-39.6 -30.89c22.2,7.81 30.8,31.97 37.97,52.24 -3.7,11.8 -17.3,12.32 -27.46,14.42 -2.34,-22.37 -2.64,-45.31 -10.51,-66.66zm-422.32 52.24c16.7,-24.06 38.31,-44.21 61.22,-62.26 6.52,4.18 12.43,9.5 16.15,16.36 8.53,15.39 9.21,33.37 11.22,50.43 -28.89,10 -60.16,4.06 -88.59,-4.53zm221.11 -106.94c6.02,1.13 13.11,1.54 16.7,7.34 -1.13,6.22 -2.03,12.5 -3.12,18.73 -7.96,-6.46 -12,-16.18 -13.58,-26.07zm30.17 2.42c7.22,-4.83 16.49,-4.04 24.14,-0.7 -1.22,17.91 -2.84,35.79 -3.65,53.7 -8.62,-11.69 -18.42,-23.01 -23.47,-36.82 -1.92,-5.31 -2.37,-12.73 2.98,-16.18zm445.33 100.5c31.5,-49.19 72.39,-93.12 122.66,-123.41 23.88,25.23 48.65,49.62 72.53,74.87 -14.49,5.49 -28.57,11.94 -42.27,19.12 16.16,15.05 32.5,29.89 48.72,44.85 -5.08,4.09 -10.15,8.13 -15.25,12.19 10.08,9.05 20.4,17.87 30.48,26.92 -27.8,23.6 -51.87,51.38 -73,81.05 -8.61,-7.74 -17.3,-15.43 -25.83,-23.26 3.52,-4.99 7.02,-9.98 10.56,-14.94 -23.49,-22.81 -47.73,-44.84 -71.6,-67.22 -3.61,5.08 -7.13,10.24 -10.56,15.46 -15.57,-15.12 -30.35,-31.05 -46.44,-45.63zm16.25 -0.29l0 0c9.3,9.09 18.19,18.66 27.82,27.41 2.91,-4.6 5.98,-9.11 9.1,-13.6 27.03,27.12 55.17,53.14 83.76,78.59 -3.21,4.4 -6.39,8.82 -9.55,13.22 6.3,5.46 12.46,11.04 18.84,16.41 16.18,-23.2 34.86,-44.68 55.96,-63.54 -6.54,-5.19 -12.34,-11.33 -19.29,-15.94 -5.33,4 -9.73,9.03 -14.35,13.75 -9.1,-7.61 -17.62,-15.84 -26.65,-23.47 3.27,-3.36 6.63,-6.66 10.06,-9.86 4.49,3.95 8.92,7.96 13.34,12 7.13,-6.32 14.33,-12.57 21.86,-18.41 -16.74,-15.3 -33.59,-30.46 -49.62,-46.51 -7.58,5.83 -14.8,12.1 -21.77,18.64 4.78,4.45 9.43,9.07 14.03,13.74 -3.29,3.28 -6.58,6.55 -9.86,9.84 -11.95,-11.91 -24.34,-23.4 -36.1,-35.54 12,-12.5 24.75,-24.32 38.77,-34.54 7.6,7.62 15.14,15.27 22.86,22.76 9.52,-7.01 19.6,-13.22 29.87,-19.09 -17.19,-17.15 -34.41,-34.29 -51.15,-51.87 -44.55,25.09 -80.6,63.18 -107.93,106.01zm-422.82 -109.55c3.82,-9.1 14.15,-11.24 22.03,-15.46 -0.86,10.63 -1.72,21.26 -2.71,31.86 -9.41,-0.95 -13.25,-10.56 -19.32,-16.4zm68.29 -18.91c6.09,-1.02 12.16,-2.12 18.23,-3.32 -0.18,8.33 -2.35,16.43 -6.19,23.78 -5.01,-6.18 -8.98,-13.11 -12.04,-20.46zm-34.08 -2.51c1.38,-1.8 2.82,-3.54 4.36,-5.21 5.8,1.94 11.66,3.56 17.6,5.05 -1.45,7.56 -2.96,15.14 -5.8,22.32 -7.47,-5.26 -15.96,-12.21 -16.16,-22.16zm663.65 -10.02c38.67,-8.1 76.74,6.57 114.85,11.11 54.14,17.93 105.27,50.72 137.02,98.94 6.85,8.57 5.61,20.4 10.87,29.81 11.06,24.44 35.99,37.57 58.62,49.46 22.16,11.67 45.65,24.84 58.09,47.61 5.7,12.12 14.23,22.7 19.51,35.07 18.26,40.64 22.75,85.99 41.91,126.31 11.84,3.59 16.04,-10.26 24.68,-14.75 24.21,-6.68 48.54,6.02 66.59,21.3 23.45,28.07 38.09,62.09 60.02,91.25 10.45,14.26 22.75,27.28 37.28,37.46 11.01,7.13 17.92,18.75 24.37,29.83 23.47,43.73 22.13,95.99 45.2,139.87 4.21,8.94 10.69,16.43 16.24,24.53 4.99,24.55 8.55,51.95 -3.38,75.1 -4.4,9.45 -14.08,14.78 -23.47,18.16 -22.83,8.03 -47.93,4.38 -70.81,12.25 -7.53,2.42 -13.58,8.65 -21.75,9.16 -10.97,1.02 -24.17,2.78 -32.83,-5.57 -5.3,-4.47 -3.59,-12.23 -7.04,-17.71 -3.52,-5.78 -8.58,-10.77 -14.69,-13.65 -8.89,-1.63 -17.42,5.28 -26.15,2.32 -8.67,-6.36 -7.61,-18.93 -7.4,-28.48 4.87,-43.97 55.78,-75 97.36,-60.76 1.18,-0.72 3.5,-2.17 4.65,-2.91 -17.4,-8.51 -37.98,-15.59 -57.09,-8.49 -19.83,7.56 -31.61,26.74 -40.52,44.91 -14.72,28.56 -22.91,61.28 -45.16,85.4 -9.11,-2.05 -19.49,-7.33 -20.71,-17.69 -0.81,-9.2 -9.18,-14.66 -16.61,-18.57 -6.68,-3.59 -14.08,2.44 -21.05,0.27 -6.75,-4.08 -6.79,-13.02 -7.65,-19.94 -1.87,-20.99 11.06,-40.17 27.57,-51.9 24.49,-17.22 55.74,-25.03 85.43,-20.67 2.03,-2.08 4.09,-4.13 6.16,-6.18 -30.57,-6.01 -63.88,-3.7 -91.54,11.5 -18.93,10.23 -33.8,28.39 -38.56,49.51 -0.86,12.89 -0.32,25.88 -0.14,38.79 -8.12,-14.29 -26.47,-14.08 -39.94,-8.42 -5.14,-12.23 -1.49,-25.74 4.72,-36.82 3.86,-6.46 5.82,-14.83 12.84,-18.73 35.51,-23.31 70.13,-50.28 111.85,-61.42 22.2,-5.53 44.23,4.17 66.5,3.47 8.91,-0.25 18.3,-5.59 26.83,-0.67 7.92,3.45 17.42,11.39 25.61,4.17 -6.84,-10.24 -17.08,-19.09 -29.79,-20.26 -11.1,-1.79 -20.49,6.5 -31.43,6.11 -12.73,0.57 -25.09,-2.89 -37.28,-5.91 -11.39,-39.96 -30.03,-79.22 -61.33,-107.43 5.8,-22.93 17.11,-44.59 18.35,-68.53 0.34,-10.67 -0.86,-22 -6.5,-31.27 -2.78,0.36 -3.66,3.11 -4.72,5.25 -10.94,23.18 -10.44,50.73 -25.25,72.23 -11.21,13.93 -27.16,26.92 -45.96,26.67 -41.45,-5.14 -80.44,-26.1 -108.24,-57.24 6.18,-21.73 12.72,-45.54 4.74,-67.67 -6.84,-11.85 -18.33,-20.72 -31.08,-25.39 -11.57,-46.21 -23.49,-92.58 -42.35,-136.45 -16.63,-39.08 -39.28,-75.95 -68.94,-106.55 -6.02,-4.85 -4.03,-13.47 -6.76,-20.01 -7.04,-22.45 -26.97,-36.94 -45.25,-50.03 -16.78,-12.02 -34.72,-24.12 -44.97,-42.62 -10.15,-18.57 -25.54,-34.41 -31.52,-55.13zm-596.29 12.55c0.09,-11.03 12.7,-13.2 21.19,-14.69 9.99,21.59 3.56,47.5 -8.98,66.59 3.09,-18.75 -10.97,-33.89 -12.21,-51.9zm30.78 -16.18c-0.21,-5.12 4.01,-8.48 8.46,-9.95 1.96,9.59 2.01,19.74 -1.49,29 -3.59,-5.78 -5.94,-12.33 -6.97,-19.05zm-363.61 -3.27c10.38,0.59 21.73,-0.61 29.29,-8.58 -8.31,32.7 -0.79,66.43 -3.59,99.58 -7.58,-9.14 -22.41,-7.94 -28.68,-17.96 -2.21,-24.26 0.99,-48.78 2.98,-73.04zm225.15 -39.04c14.76,-1.44 19.88,15.08 31.32,20.81 4.06,8.1 3.14,18.57 -3.39,25.16 -15.99,17.87 -39.26,31.7 -63.99,29.33 -10.09,-0.2 -20.26,-6.07 -24.07,-15.64 -3.32,-7.65 -0.34,-16 1.96,-23.49 3.47,-10.22 10.74,-20.3 21.66,-23.13 12.91,-0.45 26.9,9.08 38.72,-0.09 -0.86,-4.31 -1.53,-8.62 -2.21,-12.95zm-37.48 20.87l0 0c-3.45,1.43 -5.57,4.7 -8.06,7.31 2.31,1.79 4.16,4.38 6.98,5.37 4.35,-1.03 5.14,-6.04 6.97,-9.4 -1.94,-1.09 -3.63,-2.82 -5.89,-3.28zm39.04 12.39l0 0c1.91,0.07 5.73,0.23 7.62,0.29 3.09,-3.02 4.9,-6.81 5.4,-11.1 -7.47,-5.05 -15.96,2.94 -13.02,10.81zm-25.95 3.23l0 0c-2.91,3.36 -4.49,9.34 -0.59,12.59 4.97,0.27 12.07,-2.57 10.74,-8.69 0.36,-5.3 -6.84,-8.08 -10.15,-3.9zm16.81 21.37l0 0c3.09,1.6 6.16,3.22 9.25,4.87 4.65,-3.14 6.99,-8.26 5.57,-13.83 -3.22,-0.2 -6.45,-0.16 -9.66,0.18 -2.97,1.99 -3.72,5.73 -5.16,8.78zm-36.65 -2.98l0 0c-7.31,2.48 -9.72,15.05 -0.7,16.88 5.82,-0.45 12.8,-2.8 14.51,-9.12 0.02,-6.54 -8.53,-9.45 -13.81,-7.76zm-66.88 -30.26c11.74,-19.74 33.1,-33.6 56.19,-34.79 -4.83,6.07 -12.84,8.03 -18.21,13.49 -13.16,13.02 -20.24,30.62 -31.98,44.74 -5.03,6.07 -12.99,9.91 -15.54,17.81 -5.85,14.91 0.99,31.27 -4.13,46.26 -0.91,3.54 -3.25,6.99 -2.08,10.78 17.2,-19.45 14.85,-48.29 30.15,-68.8 3.59,-4.92 8.3,-8.82 12.99,-12.63 -0.51,-10.57 3.52,-21.28 12.01,-27.83 6.57,-6.16 15.88,-6.97 24.37,-7.94 -12.57,7.9 -23.45,19.29 -27.66,33.82 -8.06,26.54 -2.83,54.52 -3.91,81.69 -0.2,8.37 -1.98,16.63 -1.98,25 1.3,36.1 20.19,69.52 18.09,105.99 0,14.21 -5.66,27.59 -13.13,39.42 -12.05,31.18 -5.44,67.83 13.56,94.86 1.02,2.19 3.57,4.13 3.16,6.77 -25.09,4.13 -51.43,-3.95 -70.74,-20.29 -25.75,-21.61 -43.93,-52.89 -47,-86.65 -4.81,-48.89 13.06,-97.2 38.16,-138.41 -0.8,-4.92 -1.86,-9.88 -5.67,-13.4 -11.53,12.7 -11.67,31.39 -22.81,44.29 -20.78,-29.38 -21.28,-68.3 -14.24,-102.35 5.17,-21.57 12.52,-44.07 28.84,-59.91 9.05,-8.82 19.94,-15.46 31.2,-21.05 6.61,0.11 13.2,-0.32 19.82,-0.43 -3.61,9.7 -8.99,18.95 -9.46,29.56zm22.27 48.27l0 0c-13.74,23.19 -17.69,51.01 -16.04,77.62 2.64,40.07 15.61,78.36 23.85,117.42 9.36,-50.18 -13.09,-98.78 -12.73,-148.76 0.27,-16.48 3.68,-32.7 9.12,-48.2 -1.04,0.47 -3.14,1.42 -4.2,1.92zm389.58 -70.77c0.11,-6.02 -1.2,-18.05 7.9,-17.17 27.96,5.3 57.33,4.56 83.96,15.73 -16.38,27.6 -43.57,47.29 -71.98,61.17 -18.82,-13.63 -17.26,-39.17 -19.88,-59.73zm-221.81 -18.41c11.31,-4.2 23.15,0.83 33.85,4.6 15.95,4.9 23.33,27.22 13.45,40.62 -19.59,20.8 -54.11,25.47 -78.3,10 -3.41,-2.58 -8.4,-5.17 -8.15,-10.09 -0.38,-16.43 9.52,-30.51 13.63,-45.92 4.47,3.99 6.25,9.93 9.54,14.8 5.8,-4.17 8.85,-11.73 15.98,-14.01zm11.94 7.9l0 0c-4.18,4.2 1.01,10.15 6.11,9.39 4.54,1.12 6.21,-4.09 6.66,-7.54 -4.06,-1.51 -8.42,-3.54 -12.77,-1.85zm-5.91 16.18l0 0c-1.65,5.14 0.24,13.96 7.46,11.41 4.88,0.23 5.62,-4.64 6.75,-8.28 -4.49,-2.01 -9.18,-3.92 -14.21,-3.13zm-28.37 1.37l0 0c-1.17,2.76 -2.32,5.53 -3.43,8.33 5.01,1.8 12.71,4.6 15.39,-2.08 -0.59,-6.07 -7.54,-5.35 -11.96,-6.25zm52.17 11.38l0 0c-4.42,2.25 -5.32,8.59 -2.23,12.38 5.68,4.74 16.31,-1.42 14.48,-8.77 -1.89,-4.72 -8.12,-5.26 -12.25,-3.61zm-40.28 17.19l0 0c0.18,9.23 15.26,7.6 16.48,-0.23 0.11,-4.31 -4.41,-6.13 -7.16,-8.48 -4.31,1.22 -9.57,3.25 -9.32,8.71zm779.9 -56.1c3.05,-7.87 12.28,-10.96 20.11,-10.4 12.34,0.75 25.32,1.45 36.3,7.7 15.44,7.76 29.45,19.4 37.3,35.06 12.37,24.01 8.28,54.63 -8.01,75.82 -19.9,-6.84 -39.26,-15.48 -57.13,-26.65 -6.52,-3.84 -7.49,-13.22 -4.72,-19.7 3.89,-8.82 11.22,-15.48 16.34,-23.56 -10,-0.85 -22.32,2.17 -30.3,-5.46 -6.59,-9.29 -14.29,-20.98 -9.89,-32.81zm-852.74 5.01c12.91,-18.3 38.05,-20.51 58.22,-15.77 -20.58,0.36 -38.67,10.95 -58.22,15.77zm-246.45 -36.84c22.21,0.83 46.28,-6.89 66.84,4.91 4.81,24.94 -2.57,53.53 -23.49,69.26 -29.36,-14.56 -51.7,-40.6 -66.61,-69.35 7.65,-2 15.19,-5.41 23.26,-4.82zm325.77 -0.5c0.95,-1.08 2.82,-3.27 3.77,-4.36 12.36,-0.72 24.68,0.68 37.03,1.47 -14.76,2.84 -29.16,8.3 -40.1,18.91 -13.65,-14.04 -34.98,-17.17 -53.5,-13.61 -23.67,5.26 -44.14,22.14 -54.47,44 -6.55,-1.76 -13.27,-2.86 -20.04,-2.23 0.13,-0.97 0.41,-2.96 0.54,-3.93 22.63,-19.02 49.19,-34.45 78.68,-39.37 15.87,-2.96 32.11,-2.71 48.09,-0.88zm-173.55 31.02c-18.18,-15.25 -15.99,-49.48 6.21,-59.9 9.79,-2.01 18.35,5.07 26.13,10.01 5.53,6.23 8.87,14.13 14.17,20.61 -8.01,-3.93 -16.38,0.83 -23.31,4.85 -6.97,7.67 2.55,19.74 -4.44,27.12 -6.1,1.67 -13.29,0.5 -18.76,-2.69zm244.61 -51.83c23.78,-19.42 61.73,-20.89 85.45,-0.6 24.95,18.75 39.58,48.04 46.48,77.91 3.79,16.04 6.16,32.43 7.18,48.9 -6.68,-8.67 -7.74,-22 -19.12,-26.42 -2.57,21.68 16.99,35.56 30.04,49.61 8.26,10.63 20.94,16.34 29.49,26.68 21.91,24.88 29.6,58.89 30.21,91.29 -0.13,11.17 1,22.61 -2.28,33.49 -7.96,30.1 -30.39,57.29 -60.47,67.04 -12.05,3.95 -28.81,1.58 -34.75,-10.95 -10.02,-34.63 -17.8,-71.23 -39.67,-100.82 -30.32,-42.66 -28.16,-99.03 -55.55,-143.12 -12.03,-22.43 -21.87,-47.32 -41.75,-64.18 -8.21,-7.35 -18.93,-10.87 -29.6,-12.72 16.18,-2.73 34.88,-9.57 49.64,1.15 1.45,6.59 4.58,13.54 11.33,16.11 8.6,3.11 18.52,2.19 26.35,7.54 6.07,3.25 7.45,10.62 11.47,15.72 5.14,7.32 11.35,16.25 21.34,16.25 4.67,0.11 8.17,3.48 11.94,5.78 2.91,-4.2 1.22,-9.1 -3.2,-11.31 -16.93,-10.92 -25.28,-30.87 -42.38,-41.52 -5.53,-3.67 -12.34,-4.31 -18.77,-3.74 -9.26,-13.65 -23.81,-23.15 -40.3,-25.12 15.72,-4.71 33.5,-6.22 48.37,1.97 -1.03,-10.54 -12.11,-16.72 -21.45,-18.94zm11.19 82.18l0 0c9.05,11.87 17.94,24.01 23.8,37.82 20.24,43.8 21.1,96.56 53.8,134.29 -0.79,-2.55 -1.65,-5.06 -2.55,-7.54 -15.87,-38.95 -16.36,-82.61 -35.07,-120.56 -8.73,-18.17 -22.97,-33.31 -39.98,-44.01zm99.3 -93.48c6.46,-2.1 12.48,-5.53 16.43,-11.19 3.23,1.4 6.95,2.57 8.33,6.2 11.21,19.27 22.56,38.48 33.8,57.75 -11.08,2.48 -19.11,10.65 -27.94,17.08 -8.59,-24.01 -24.09,-45.02 -30.62,-69.84zm-173.45 -28.54c2.05,-11.87 10.63,-22.79 22.45,-26 12.8,2.15 22.93,11.71 28.95,22.77 6.79,11.15 4.22,25.18 0.3,36.87 -2.65,8.3 -12.46,9.05 -19.14,12.59 4.63,-10.72 -1.4,-21.64 -10.38,-27.69 -10.49,-0.38 -20.85,4.9 -25.34,14.63 0.68,3.56 1.33,7.13 1.96,10.71 -1.01,0.23 -3.02,0.66 -4.04,0.88 3.07,-14.75 2.44,-29.96 5.24,-44.76zm113.16 -33.29c17.42,-29.92 51.99,-41.63 82.77,-52.5 -1.15,34.93 -4.83,72.86 -27.82,100.95 -5.58,1.42 -11.56,-1.63 -16.77,-3.66 -18.03,-9.2 -29.47,-27.16 -38.18,-44.79zm-113.14 -59.05l0 0c-18.95,17.74 -23.87,44.61 -28.59,68.96 -1.83,12.63 -5.64,24.93 -6.74,37.66 7.26,-32.99 19.78,-66.81 44.99,-90.42 10.72,-8.98 24.75,-1.44 36.13,2.03 -7.36,-10.17 -14.13,-23.4 -27.26,-26.69 -7.47,-2.3 -13.32,4.2 -18.53,8.46zm-212.24 54.02l0 0c-11.64,16.68 -13.04,38.11 -10.76,57.72 2.7,-9.97 4.37,-20.19 7.1,-30.17 3.16,-10.87 15.42,-19.67 26.79,-15.52 22.61,5.48 40.01,22.47 54.31,39.94 6.16,7.11 10.02,15.93 16.52,22.74 -0.77,-3.81 -1.94,-7.53 -3.54,-11.08 -9.21,-20.6 -18.37,-41.9 -34.17,-58.44 -10.94,-11.21 -26.69,-18.1 -42.49,-16.63 -5.95,1.58 -10.11,6.77 -13.76,11.44zm109.3 60.99l0 0c10.86,-7.13 22.36,-14.1 35.45,-15.95 6.75,-1.44 13.68,0.47 20.38,-1.08 -4.45,-11.74 -17.51,-16.59 -29.2,-15.14 -14.26,4.19 -25.97,16.92 -26.63,32.17z"/>
   <path class="fil2" d="M601.83 534.75c10.8,-3.67 22.58,-6.63 33.69,-2.23 14.96,23.58 17.1,52.76 32.49,76.09 -3.23,-0.61 -6.46,-1.22 -9.68,-1.79 -3.59,10.02 -7.94,20.11 -6.86,31.03 -5.87,-5.59 -12.03,-12.34 -20.96,-11.53 -5.89,11.89 -5.33,25.3 -6.12,38.2 -7.49,-8.77 -13.76,-21.05 -26.76,-21.89 -9,12.28 -9.79,27.99 -16.25,41.41 -15.09,-10.15 -19.18,-30.03 -19.99,-47.05 0.07,-22.4 1.63,-47.47 -13.83,-65.75 1.1,-13.13 12.25,-22.88 23.8,-27.39 7.83,-0.48 17.99,-4.54 23.74,2.95 7.99,7.7 11.19,18.6 17.17,27.69 4.07,-14.37 -3.49,-27.75 -10.44,-39.74zm71.3 299.71c23.33,-5.22 45.54,-14.17 67.6,-23.15 -3.83,7.69 -7.69,15.41 -11.48,23.15 -9.14,0.11 -17.76,3.81 -23.78,10.74 -10.84,-3.43 -21.6,-7.07 -32.34,-10.74zm162.85 -511.57c16.68,-2.14 33.6,-1.1 50.16,1.54 61.96,10.29 115.49,49.21 178.46,55.33 10.68,1.71 22,-0.59 32.23,3.68 33.68,12.54 64.49,32.04 91.72,55.39 43.55,37.41 78.82,84.44 102.31,136.83 11.17,3.86 23.08,7.02 32.09,15.28 10.44,8.35 17.05,20.4 21.63,32.76 -42.26,4.7 -82.24,22.91 -115.75,48.7 -30.8,23.31 -56.75,52.51 -78.75,84.12 -10.54,14.33 -17.44,30.82 -25.61,46.53 -15.46,30.66 -27.37,63.56 -30.28,97.97 -13.72,1.85 -23.65,-9.09 -34.03,-16.02 -7.36,-5.39 -17.38,-10.02 -26.24,-5.28 -1.16,5.28 1.87,10.95 5.66,14.56 10.81,8.46 25.97,6.97 37.19,14.73 4.85,2.82 7.08,8.21 9.86,12.84 -43.33,67.31 -110.91,116.39 -184.36,146.44 -88.85,36.22 -186.76,47.77 -282.03,39.2 -56.75,-5.37 -113.16,-17.62 -166.05,-39.13 -1.43,-10.06 4.28,-18.66 7.01,-27.89 1.88,-6.32 -4.4,-11.42 -9.99,-12.5 -17.06,7.74 -22.12,27.37 -32.59,41.29 -5.3,7.9 -14.71,13.52 -24.43,11.94 -7.47,-0.47 -13.32,-5.53 -19.25,-9.48 -73.34,-50.63 -141.86,-110.81 -191.17,-185.73 -6.83,-8.55 -1.19,-20.87 5.49,-27.73 10.01,-9.14 24.77,-16.4 26.37,-31.45 4.76,-66.09 18.71,-132.43 48.81,-191.87 18.23,8.19 38.25,10.58 57.4,15.66 3.95,18.77 17.81,33.04 24.37,50.7 4.11,9.91 -0.38,20.54 1.74,30.71 6.25,36.97 23.2,73.29 51.92,98.07 27.13,24.78 70,27.12 101.48,9.41 10.04,8.26 21.52,15.05 34.41,17.62 13.92,4.11 28.32,6.16 42.82,6.28 16.95,20.64 36.06,41.02 61.52,50.88 13.49,-14.38 19.42,-33.65 21.91,-52.8 14.01,2.89 28.04,5.64 41.99,8.8 3.56,6.18 8.64,11.26 14.73,14.98 -21.05,9.45 -40.03,25.2 -49.77,46.46 -10.92,22.7 -10.61,49.64 -1.86,73 11.02,30.96 38.43,55.01 70.05,63.36 27.75,7.72 58.78,3.63 83.12,-11.94 16.63,-10.63 29.02,-27.41 34.91,-46.19 8.46,-26.17 5.78,-55.08 -4.51,-80.31 -8.87,-21.7 -26.38,-40.09 -48.47,-48.44 -17.42,-7 -36.78,-7.54 -55.1,-4.54 4.01,-8.89 4.8,-18.79 2.64,-28.29 6.92,-11.06 14.37,-21.8 21.57,-32.68 17.71,12.07 36.53,24.89 58.58,26.47 12.54,-28.56 7.74,-60.65 2.09,-90.28 30.31,-3.95 55.83,-25.05 71.38,-50.52 16,-28.32 18.14,-62.26 14.78,-93.98 -2.1,-19.41 -6.68,-38.48 -12.71,-57 -1.35,-4.02 -2.21,-8.24 -2.19,-12.48 -0.11,-17.19 -1.1,-34.34 -1.15,-51.51 15.73,-8.9 27.49,-22.7 37.87,-37.17 5.62,-8.44 15.66,-15.5 15.21,-26.63 0.29,-3.54 -3.07,-5.52 -5.67,-7.03 -21.52,-11.49 -45.76,-16.09 -69.47,-20.58 -14.56,-24.1 -27.31,-49.37 -44.05,-72.08zm104.83 288.76l0 0c21.08,21.12 42.61,41.75 63.59,62.98 3.52,-5.44 7.2,-10.76 11.19,-15.84 17.45,17.13 35.68,33.42 53.37,50.25 -3.57,5.22 -7.18,10.38 -10.76,15.55 14.68,12.93 29.08,26.24 43.84,39.13 24.66,-37.1 54.49,-70.95 89.22,-98.93 -9.79,-8.98 -19.99,-17.48 -29.85,-26.42 4.98,-3.95 9.97,-7.9 14.96,-11.82 -15.19,-14.26 -30.58,-28.32 -45.99,-42.33 11.8,-5.51 23.38,-12.12 36.33,-14.56 4.06,-6.57 -3.18,-11.91 -6.88,-16.61 -26.13,-27.34 -52.96,-53.99 -78.82,-81.59 -58.53,32.74 -105.24,83.49 -140.2,140.19z"/>
  </g>
 </g>
</svg>
