<?xml version="1.0" encoding="UTF-8"?>
<!DOCTYPE svg PUBLIC "-//W3C//DTD SVG 1.1//EN" "http://www.w3.org/Graphics/SVG/1.1/DTD/svg11.dtd">
<!-- Creator: CorelDRAW -->
<svg xmlns="http://www.w3.org/2000/svg" xml:space="preserve" width="2000px" height="1600px" version="1.1" style="shape-rendering:geometricPrecision; text-rendering:geometricPrecision; image-rendering:optimizeQuality; fill-rule:evenodd; clip-rule:evenodd"
viewBox="0 0 2000 1600"
 xmlns:xlink="http://www.w3.org/1999/xlink">
 <defs>
  <style type="text/css">
   <![CDATA[
    .fil1 {fill:#FEFEFE}
    .fil0 {fill:#5A2C84;fill-rule:nonzero}
   ]]>
  </style>
 </defs>
 <g id="Capa_x0020_1">
  <metadata id="CorelCorpID_0Corel-Layer"/>
  <g id="Furman_x0020_Paladins.cdr">
   <path class="fil0" d="M998.17 0l0.44 0c19.07,94.85 48.04,188.14 91.28,274.87 55.94,114.29 136.87,216.27 235.82,296.28 106.88,87.05 232.57,148.69 363.24,191.07 41.99,13.61 84.54,25.44 127.51,35.48l0 0.64c-132.28,34.59 -262.13,82.36 -379.67,152.97 -106.29,63.48 -201.58,146.6 -274.14,247.27 -76.83,105.72 -127.43,229.02 -154.99,356.4 -3.38,14.94 -5.98,30.03 -9.12,45.02l-0.33 0c-26.11,-132.31 -73.22,-261.59 -147.4,-374.73 -68.46,-105.31 -160.26,-194.81 -265.71,-262.82 -122.15,-79.16 -260.34,-130.87 -401.56,-164.02l0 -0.44c64.84,-17.13 129.1,-36.79 191.62,-61.13 110.46,-42.82 216.37,-99.55 308.22,-174.85 84.37,-68.81 155.69,-153.69 208,-249.21 53.47,-97.05 87.74,-203.87 106.79,-312.8zm-101.25 419.07c-53.96,81.12 -120.74,153.66 -197.04,214.26 -87.32,69.83 -186.55,123.74 -290.33,164.77 71.19,25.71 139.72,58.99 203.23,100.22 57.24,37.03 110.26,80.51 158.08,129.1 98.14,99.95 173.02,221 227.79,349.51 1.7,-4 3.36,-8.02 4.97,-12.05 51.9,-128.8 129.59,-247.73 230.22,-343.75 101.76,-97.97 225.21,-171.76 356.44,-222.96 -61.62,-22.43 -121.47,-49.9 -177.84,-83.47 -62.6,-37.09 -120.97,-81.34 -173.32,-131.86 -105.01,-100.75 -184.32,-226.03 -240.62,-359.68 -26.99,68.55 -60.62,134.6 -101.58,195.91zm101.43 -86.42c33.81,65.45 72.31,128.66 117.73,186.76 78.52,101.61 177.39,187.74 290.12,249.5 18.72,10.46 38.02,19.84 57.25,29.32 -120.1,61.22 -231.9,141.18 -321.24,242.7 -58.08,65.63 -106.28,139.89 -143.11,219.38 -31.1,-60.34 -66.37,-118.68 -107.39,-172.84 -42.81,-56.98 -91.68,-109.46 -146.01,-155.59 -63.23,-53.84 -133.92,-98.78 -209.1,-133.96 77.15,-40.07 150.84,-87.32 217.02,-143.84 66.63,-56.63 125.68,-122.29 174.04,-195.18 26.83,-40.14 50.25,-82.51 70.69,-126.25zm-154.69 290.44c0.03,21.12 -0.11,42.22 0.07,63.32 7.11,0.84 14.7,1.57 20.65,5.98 5.85,4.37 10.4,11.36 9.94,18.91 -0.07,64.02 -0.02,128.05 -0.02,192.07 0.04,8.32 -1.66,16.95 -6.73,23.74 -5.7,7.93 -14.66,12.7 -23.84,15.43 0,15.27 -0.84,30.52 -0.51,45.8 52.72,0 105.43,0 158.15,-0.01 0,-15 -0.02,-30.01 0,-45.02 -8.85,-1.74 -18.1,-3.92 -25.07,-10.02 -8.25,-6.79 -11.61,-17.8 -11.52,-28.16 -0.03,-19.79 0.09,-39.56 -0.03,-59.34 13.27,-0.09 26.56,-0.17 39.86,-0.04 6.95,-0.16 13.62,3.35 17.63,9 6.89,9.54 8.08,21.69 9.03,33.06 14.35,0.84 28.76,0.22 43.13,0.42 1.29,-45.95 0.15,-91.96 0.63,-137.95 -14.78,-0.2 -29.55,-0.11 -44.33,-0.05 -1.59,9.49 -3.86,19.16 -9.21,27.33 -4.19,6.24 -10.94,11.52 -18.78,11.43 -12.6,0.2 -25.2,-0.11 -37.8,0.11 -0.26,-34.3 -0.04,-68.62 -0.11,-102.93 29.71,-0.02 59.43,0.02 89.14,-0.02 8.12,0.11 16.64,-0.95 24.27,2.62 23.49,10.17 40.19,34.45 41.42,60.03 15.1,0.02 30.2,-0.05 45.31,0.04 0.2,-41.9 -0.02,-83.79 0.13,-125.68 -107.14,-0.15 -214.28,-0.02 -321.41,-0.07z"/>
   <path class="fil1" d="M874.32 711.3c-0.07,64.02 -0.02,128.05 -0.02,192.07 0.04,8.32 -1.66,16.95 -6.73,23.74 -5.7,7.93 -14.66,12.7 -23.84,15.43 0,15.27 -0.84,30.52 -0.51,45.8 52.72,0 105.43,0 158.15,-0.01 0,-15 -0.02,-30.01 0,-45.02 -8.85,-1.74 -18.1,-3.92 -25.07,-10.02 -8.25,-6.79 -11.61,-17.8 -11.52,-28.16 -0.03,-19.79 0.09,-39.56 -0.03,-59.34 13.27,-0.09 26.56,-0.17 39.86,-0.04 6.95,-0.16 13.62,3.35 17.63,9 6.89,9.54 8.08,21.69 9.03,33.06 14.35,0.84 28.76,0.22 43.13,0.42 1.29,-45.95 0.15,-91.96 0.63,-137.95 -14.78,-0.2 -29.55,-0.11 -44.33,-0.05 -1.59,9.49 -3.86,19.16 -9.21,27.33 -4.19,6.24 -10.94,11.52 -18.78,11.43 -12.6,0.2 -25.2,-0.11 -37.8,0.11 -0.26,-34.3 -0.04,-68.62 -0.11,-102.93 29.71,-0.02 59.43,0.02 89.14,-0.02 8.12,0.11 16.64,-0.95 24.27,2.62 23.49,10.17 40.19,34.45 41.42,60.03 15.1,0.02 30.2,-0.05 45.31,0.04 0.2,-41.9 -0.02,-83.79 0.13,-125.68 -107.14,-0.15 -214.28,-0.02 -321.41,-0.07 0.03,21.12 -0.11,42.22 0.07,63.32 7.11,0.84 14.7,1.57 20.65,5.98 5.85,4.37 10.4,11.36 9.94,18.91zm-174.44 -77.97c-87.32,69.83 -186.55,123.74 -290.33,164.77 71.19,25.71 139.72,58.99 203.23,100.22 57.24,37.03 110.26,80.51 158.08,129.1 98.14,99.95 173.02,221 227.79,349.51 1.7,-4 3.36,-8.02 4.97,-12.05 51.9,-128.8 129.59,-247.73 230.22,-343.75 101.76,-97.97 225.21,-171.76 356.44,-222.96 -61.62,-22.43 -121.47,-49.9 -177.84,-83.47 -62.6,-37.09 -120.97,-81.34 -173.32,-131.86 -105.01,-100.75 -184.32,-226.03 -240.62,-359.68 -26.99,68.55 -60.62,134.6 -101.58,195.91 -53.96,81.12 -120.74,153.66 -197.04,214.26zm-163.28 164.59c77.15,-40.07 150.84,-87.32 217.02,-143.84 66.63,-56.63 125.68,-122.29 174.04,-195.18 26.83,-40.14 50.25,-82.51 70.69,-126.25 33.81,65.45 72.31,128.66 117.73,186.76 78.52,101.61 177.39,187.74 290.12,249.5 18.72,10.46 38.02,19.84 57.25,29.32 -120.1,61.22 -231.9,141.18 -321.24,242.7 -58.08,65.63 -106.28,139.89 -143.11,219.38 -31.1,-60.34 -66.37,-118.68 -107.39,-172.84 -42.81,-56.98 -91.68,-109.46 -146.01,-155.59 -63.23,-53.84 -133.92,-98.78 -209.1,-133.96z"/>
  </g>
 </g>
</svg>
