<?xml version="1.0" encoding="UTF-8"?>
<!DOCTYPE svg PUBLIC "-//W3C//DTD SVG 1.1//EN" "http://www.w3.org/Graphics/SVG/1.1/DTD/svg11.dtd">
<!-- Creator: CorelDRAW -->
<svg xmlns="http://www.w3.org/2000/svg" xml:space="preserve" width="2000px" height="1600px" version="1.1" style="shape-rendering:geometricPrecision; text-rendering:geometricPrecision; image-rendering:optimizeQuality; fill-rule:evenodd; clip-rule:evenodd"
viewBox="0 0 2000 1600"
 xmlns:xlink="http://www.w3.org/1999/xlink">
 <defs>
  <style type="text/css">
   <![CDATA[
    .fil1 {fill:#001F5B;fill-rule:nonzero}
    .fil3 {fill:#8D7349;fill-rule:nonzero}
    .fil0 {fill:#A3A9AC;fill-rule:nonzero}
    .fil2 {fill:#FEFEFE;fill-rule:nonzero}
   ]]>
  </style>
 </defs>
 <g id="Capa_x0020_1">
  <metadata id="CorelCorpID_0Corel-Layer"/>
  <g id="Georgia_x0020_Southern_x0020_Eagles.cdr">
   <path class="fil0" d="M10.74 211.52l961.87 0c40.9,1.05 81.83,0.18 122.74,0.46 31.7,0.31 63.45,-0.86 95.13,1.09 84.42,4.13 168.89,11.12 252.17,25.98 42.72,7.77 85.22,17.67 126.13,32.44 29.68,10.87 58.78,24.26 84.17,43.31 21.07,15.85 39.55,36.31 49.03,61.22 6.17,15.33 8.27,32.02 7.49,48.48 41.96,2.22 84.07,6.47 124.74,17.46 30.59,8.31 60.36,20.92 85.98,39.81 24.92,18.29 45.41,42.25 60.73,69.03 11.9,20.46 17.08,44.02 19.08,67.39l0 36.14c-5.87,53.27 -21.33,104.93 -40.61,154.76 -20.74,53.98 -45.29,106.38 -69.62,158.82 -4.42,9.88 -7.39,20.36 -11.77,30.28 -36.7,87.05 -73.48,174.06 -110.21,261.11 -10.46,24.21 -22.95,48.11 -41.26,67.37 -14.11,14.93 -32.4,25.96 -52.4,30.87 -26.07,6.5 -53.18,5.3 -79.82,5.41 -406.98,0 -813.95,0 -1220.94,0 -19.79,-0.4 -40.09,1.83 -59.29,-4.3 -21.53,-6.12 -40.33,-21.47 -49.78,-41.85 -10.57,-22.23 -10.19,-49.1 0.25,-71.29 22.75,-46.92 45.98,-93.62 68.5,-140.65 -61.68,31.41 -119.13,70.84 -172.52,114.8 -59.64,49.92 -114.87,105.69 -160.53,168.82l0 -11.98c2.7,-8.8 3.31,-18.04 4.82,-27.07 9.71,-60.25 24.61,-119.6 43.56,-177.58 37.43,-113.32 91.77,-221.81 166.19,-315.45 4.04,-4.97 8.17,-9.87 11.77,-15.18 -29.29,11.33 -57.63,25.03 -86.84,36.63 15.99,-52.52 37.66,-103.18 62.12,-152.25 30.74,-60.67 67.26,-118.72 111.85,-170.21 39.18,-45.16 85.08,-85.24 138.05,-113.43 8.39,-4.68 17.3,-8.28 25.66,-12.97 -14.21,-9.92 -28.95,-19.05 -43.77,-28.04 -77.83,-46.42 -160.23,-84.68 -243.56,-120.09 -59.01,-24.84 -118.67,-48.23 -179.11,-69.34z"/>
   <path class="fil1" d="M200.97 245.6c4.8,3.81 10.95,5.09 16.46,7.56 67.31,27.51 132.97,59.18 196.04,95.41 45.98,26.76 91.06,55.58 131.98,89.72 -45.64,14.28 -88.16,37.6 -125.64,67.18 -55.26,43.31 -100.63,97.92 -139.28,156.23 -31.6,48.66 -59.64,99.86 -81.14,153.81 37.73,-15.95 75.37,-32.16 113.47,-47.22 19.54,-7.53 38.97,-15.55 59.06,-21.56 -3.69,3.63 -8.3,6.09 -12.49,9.06 -31.18,21.58 -59.45,47.2 -84.8,75.34 -42.33,46.85 -77.22,100 -107.07,155.5 -30.05,56.31 -55.26,115.16 -76.11,175.47 -11.26,32.57 -21.58,65.5 -29.64,99.03 33.68,-39.07 71.73,-74.27 112.4,-105.95 72.65,-56.53 153.66,-102.47 239.83,-134.89 -39.2,80.7 -78.8,161.22 -118.02,241.92 -7.26,15.6 -5.22,35.62 6.65,48.44 10.09,11.08 25.58,15.31 40.13,15.66 427.31,-0.02 854.65,-0.02 1281.96,0 19.2,-0.44 39.3,-1.3 56.75,-10.25 15.18,-7.66 26.61,-20.92 35.48,-35.14 13.45,-21.57 22.1,-45.6 32.17,-68.82 32.42,-76.82 64.9,-153.64 97.28,-230.48 6,-15.33 12.49,-31.33 11.49,-48.11 -1.57,-19.13 -17.51,-33.76 -34.8,-39.81 -21.38,-8.19 -44.56,-5.58 -66.9,-5.98 -159.89,-0.08 -319.75,0.15 -479.64,-0.12 41.94,-38.82 96.71,-61.35 152.23,-72.46 36.25,-7.6 73.45,-5.88 110.23,-7.39 74.34,-0.99 148.72,-3.33 223.07,-0.76 27.1,1.58 56.13,4.25 78.95,20.44 21.66,15.9 28.82,43.64 31.92,68.97 16.14,-27.22 30.61,-55.45 43.98,-84.15 20.63,-45.09 37.91,-92.4 43.94,-141.89 4.22,-35.69 1.61,-73.33 -14.45,-106 -12.19,-25.16 -32.27,-45.9 -55.77,-60.8 -28.84,-18.34 -61.89,-28.95 -95.2,-35.75 -42.1,-8.36 -85.17,-10.93 -128.02,-10.57 8.89,-21.58 11.88,-46.65 3.2,-68.78 -9.53,-24.53 -30.15,-42.8 -51.91,-56.59 -38.4,-23.58 -81.92,-37.11 -125.41,-47.85 -84.72,-20.21 -171.69,-28.93 -258.45,-34.72 -33.85,-1.91 -67.7,-4.37 -101.6,-3.97 -236.84,0 -473.66,0 -710.48,0 -73.96,0.18 -147.93,-0.36 -221.85,0.27zm367.92 90.08c3.13,0.21 6.27,0.24 9.4,0.68 108.85,21.64 217.69,43.39 326.42,65.64 25.69,4.91 51.12,11.37 76.95,15.45 122.72,28.95 244.87,60.97 364.36,101.41 2.09,23.54 13.47,46.44 32.34,60.95 18.71,14.91 44.5,20.36 67.62,14.21 13.37,-3.35 25.49,-10.59 35.7,-19.77 10,5.29 19.83,10.91 29.43,16.91 -8.82,10.14 -21.47,15.72 -32.94,22.21 -25.01,12.23 -50.23,26.1 -78.36,29.26 -29.69,3.22 -59.58,1.14 -89.37,1.3 -38.86,-1.11 -77.73,-0.92 -116.61,-1.07 50.88,22.3 102.28,45.58 145.9,80.61 10.5,8.76 20.82,18.05 28.54,29.45 -61.3,9.25 -120.92,35.01 -166.19,77.92 -14.16,13.35 -27.03,28.23 -37.13,44.91 -161.69,0.14 -323.39,0.02 -485.08,0.06 -46.12,-0.3 -92.29,4.17 -137.3,14.21 -63.01,13.91 -123.69,37.64 -180.23,68.65 -45.22,24.97 -88.13,54.28 -126.97,88.38 -1.18,0.72 -3.56,2.17 -4.74,2.91 3.71,-6.93 9.31,-12.49 14.34,-18.45 72.5,-84.23 165.87,-149.53 268.25,-192.29 103.54,-43.58 215.28,-65.87 327.22,-71.92 57.67,-2.9 115.69,-2.12 173.08,4.8 5.76,0.78 10.08,-4.02 14.9,-6.38 47.71,-27.24 102.09,-42.92 157.05,-44.6 -3.6,-2.26 -7.37,-4.26 -11.32,-5.82 -71.54,-29.45 -147.01,-49.32 -223.65,-59.7 -70.75,-9.6 -142.8,-10.17 -213.55,-0.32 -16.11,-3.76 -32.66,-4.99 -49.08,-6.54 -76.59,-5.69 -154.17,0.65 -228.71,19.2 -18.65,4.31 -36.55,11.2 -54.91,16.46 20.68,-23.16 46.93,-40.67 74.02,-55.52 57.64,-30.8 121.08,-48.86 184.7,-62.46 117.11,-24.13 236.9,-32.23 356.23,-34.27 54.63,-0.93 109.24,0.67 163.83,2.56 -100.25,-29.2 -203.22,-50.58 -307.64,-56.48 -55.98,-30.34 -112.95,-58.9 -170.68,-85.77 -39.32,-18.15 -79.07,-35.43 -119.74,-50.33 -5.43,-2 -11.12,-3.39 -16.08,-6.45z"/>
   <path class="fil2" d="M736.95 655.28c70.75,-9.85 142.8,-9.28 213.55,0.32 76.64,10.38 152.11,30.25 223.65,59.7 3.95,1.56 7.72,3.56 11.32,5.82 -54.96,1.68 -109.34,17.36 -157.05,44.6 -4.82,2.36 -9.14,7.16 -14.9,6.38 -57.39,-6.92 -115.41,-7.7 -173.08,-4.8 -111.94,6.05 -223.68,28.34 -327.22,71.92 -102.38,42.76 -195.75,108.06 -268.25,192.29 -5.03,5.96 -10.63,11.52 -14.34,18.45 -2.52,3.81 -6.17,6.65 -9.47,9.74 50.04,-99.77 116.17,-192.92 202.17,-264.9 54.16,-45.43 115.98,-81.81 182.37,-106.25 42.39,-15.75 86.55,-26.49 131.25,-33.27zm-219.62 307.92c11.17,-19.48 35.09,-26 56,-27.75 41.98,-0.27 83.98,-0.06 125.98,-0.1 -5.96,10.99 -11.23,22.35 -17.25,33.32 -18.27,0.02 -36.56,-0.02 -54.84,0 1.85,-3.81 3.69,-7.6 5.58,-11.39 -17.08,0.07 -34.17,-0.36 -51.24,0.23 -14.99,30.3 -31.14,60.02 -46.09,90.34 -3.43,6.02 -3.07,15.33 4.19,18.27 10.03,3.86 21.12,1.35 31.62,2.11 5.84,-10.67 11.39,-21.5 16.74,-32.44 -5.93,0.1 -11.85,0.1 -17.75,-0.28 4.02,-7.13 7.65,-14.42 11.22,-21.77 25.42,-0.71 50.87,-0.12 76.32,-0.31 -12.72,25.68 -26.32,50.9 -39.11,76.53 -41.16,0.29 -82.32,0.1 -123.48,0.1 -9.94,-0.52 -21.3,-0.36 -29.26,-7.3 -6.34,-7.06 -2.11,-17.44 1.37,-24.87 16.08,-31.87 31.76,-64 50,-94.69zm1065.85 163.68c13.35,-0.54 26.69,0.34 40.06,0.4 4.51,28.82 8.34,57.77 13.14,86.55 12.74,-28.8 25.26,-57.71 37.94,-86.57 14.94,-0.02 29.87,-0.04 44.81,0.02 -13.34,31.48 -26.84,62.91 -40.25,94.38 -8.14,19.5 -16.15,41.14 -34.84,53.08 -10.15,7.07 -22.95,6.63 -34.74,6.25 -3.36,-28.28 -7.07,-56.53 -10.42,-84.82 -0.29,-2.03 -0.88,-3.98 -1.49,-5.92 -14.11,30.34 -28.57,60.55 -42.87,90.82 -15.7,-0.06 -31.4,0 -47.07,-0.04 25.33,-51.33 50.46,-102.78 75.73,-154.15zm-168.8 -2.29c32.02,-0.47 64.06,-0.04 96.1,-0.23 8.76,0.12 18.57,0.61 25.67,6.38 4.84,4.35 1.37,11.28 -1.08,15.95 -6.84,12.17 -12.8,24.89 -20.21,36.7 -14.13,6.71 -29.16,11.45 -43.18,18.4 7.75,6.25 15.79,12.15 23.81,18.06 -10.42,20.59 -21.34,40.95 -32.29,61.28 -15.9,-0.18 -31.81,-0.02 -47.69,-0.1 8.4,-16.19 16.97,-32.29 25.44,-48.46 -7.96,-6.8 -15.6,-13.96 -23.77,-20.51 -12.32,22.99 -24.25,46.19 -36.74,69.1 -16.38,-0.23 -32.76,-0.13 -49.13,-0.05 27.07,-52.48 55.78,-104.16 83.07,-156.52zm11.35 71.74l0 0c14.84,-5.74 29.4,-12.25 44.25,-17.97 3.54,-6.63 7.77,-12.97 10.27,-20.09 1.56,-4.71 -1.6,-9.66 -6.21,-10.88 -6.93,-1.62 -14.11,-0.93 -21.16,-1.25 -9.43,16.51 -18.15,33.42 -27.15,50.19zm-170.13 -35.85c11.14,-19.72 31.56,-35.56 54.91,-36.02 23.42,-0.08 46.82,-0.23 70.23,0.09 -4.03,7.19 -7.86,14.5 -11.81,21.76 -13.14,0.15 -26.3,-0.44 -39.41,0.3 -10.28,0.4 -19.84,6.36 -24.99,15.22 -4.61,8.08 -8.91,16.31 -13.2,24.57 16.04,-0.19 32.08,-0.15 48.1,-0.04 -3.87,7.28 -7.83,14.5 -11.66,21.81 -16.15,0.14 -32.32,-0.21 -48.46,0.17 -8.68,16.54 -17.63,32.92 -26.45,49.36 13.52,0.11 27.05,-0.14 40.57,0.09 3.83,0.29 8.44,0.42 11.05,3.72 1.52,7.04 -3.64,13.02 -5.83,19.33 -35.74,0.44 -71.49,0.13 -107.22,0.17 21.29,-40.23 42.78,-80.36 64.17,-120.53zm-153.58 -35.98c16.29,-0.25 32.57,-0.08 48.88,-0.1 -10.77,21.35 -22.61,42.13 -33.76,63.28 11.62,-0.04 23.26,0.28 34.9,-0.19 10.8,-21.2 22.57,-41.91 33.6,-62.99 16.32,-0.25 32.67,-0.04 48.99,-0.12 -27.73,52.34 -55.7,104.57 -83.7,156.76 -16.26,-0.24 -32.51,0 -48.78,-0.13 11.83,-22.76 23.98,-45.33 35.87,-68.06 -11.52,0.48 -23.37,-0.97 -34.67,0.67 -12.43,22.31 -23.58,45.35 -36.15,67.58 -16.19,-0.42 -32.36,0.06 -48.53,-0.25 27.64,-52.22 55.83,-104.15 83.35,-156.45zm-172.34 23.18c9.18,-13.93 25.01,-23.07 41.79,-23.22 27.25,-0.17 54.49,-0.02 81.75,-0.08 6.11,0.21 13.31,0.14 17.98,4.78 3.6,5.74 0.08,12.44 -1.24,18.35 -14.66,0.47 -29.35,0.07 -44,0.21 -23.35,44.4 -46.93,88.66 -70.07,133.16 -16.63,0.32 -33.28,0.17 -49.91,0.09 19.94,-37.71 39.79,-75.45 59.68,-113.18 3.22,-6.72 7.69,-12.91 9.77,-20.13 -15.26,0.09 -30.5,0.06 -45.75,0.02zm-140.77 -23.32c16.54,0.06 33.07,0.02 49.6,0.02 -20.59,38.29 -41.73,76.27 -62.57,114.42 -3.04,5.54 -7.81,14.17 -1.56,19.26 7.32,4.53 16.54,1.85 24.67,2.46 24.72,-45.4 49.85,-90.54 74.4,-136.02 16.59,-0.14 33.22,-0.33 49.81,0.11 -22.12,40.36 -44.23,80.74 -66.38,121.11 -3.89,7.12 -7.41,14.87 -14,19.96 -12.02,9.6 -27.81,13.43 -42.97,13.5 -22.79,-0.13 -45.59,0.08 -68.37,-0.11 -6.55,-0.67 -14.83,-0.75 -19.08,-6.61 -2.1,-5.91 1.71,-11.58 4.36,-16.57 24.11,-43.81 48.08,-87.68 72.09,-131.53zm-142.85 0.27c21.46,-0.59 42.95,-0.06 64.44,-0.27 9.5,0.12 19.79,0.38 28.09,5.6 4.31,2.46 3.07,8.08 1.03,11.66 -20.65,37.75 -41.35,75.49 -62.02,113.22 -9.31,16.51 -29.33,23.01 -47.2,24.23 -24.15,0.17 -48.31,0.06 -72.44,0.04 -6.76,-0.5 -14.74,-0.79 -19.6,-6.16 -2.06,-4.66 0.15,-9.75 2.42,-13.88 18.71,-34.02 37.32,-68.1 56,-102.12 3.18,-5.62 5.73,-11.81 10.55,-16.26 10.42,-9.83 24.52,-15.24 38.73,-16.06zm7.81 18.48l0 0c-17.6,33.14 -36.1,65.82 -53.85,98.89 -3.45,5.6 -3.16,14.52 3.7,17.32 6.66,2.36 13.96,0.87 20.89,1.27 17.83,-32.15 35.37,-64.47 53.07,-96.7 3.06,-5.36 4.87,-13.53 -0.73,-17.91 -6.63,-4.85 -15.44,-2.63 -23.08,-2.87zm-182.97 -18.59c34.28,-0.31 68.57,-0.02 102.83,-0.14 -5.79,11.18 -11.58,22.36 -17.71,33.37 -15.81,-0.07 -31.62,-0.05 -47.43,0 2.32,-4.8 4.8,-9.52 7.39,-14.17 -12.21,-0.21 -24.42,-0.36 -36.61,0.08 -4.46,9.43 -10.72,18.02 -14,27.96 -1.9,4.91 0.82,10.55 5.56,12.59 16.27,6.52 34.92,1.66 51.05,8.46 8.17,3.16 8.97,13.5 5.16,20.36 -7.94,15.45 -16.15,30.78 -24.47,46.06 -9.49,14.26 -27.93,18.09 -43.85,19.85 -24,0.51 -48.02,0 -72.02,0.24 -7.18,-0.05 -15.07,-0.23 -21.12,-4.59 -4.33,-3.03 -4.08,-9.27 -1.83,-13.5 4.44,-8.61 9.43,-16.95 13.81,-25.58 15.05,0.21 30.34,-1.39 45.24,1.02 5.88,1.68 1.58,7.55 0.57,11.24 -2.12,4.48 -0.27,10.35 4.78,11.68 7.27,1.96 14.95,0.91 22.4,1.05 5.41,-10.56 11.88,-20.59 16.7,-31.43 2.57,-5.51 -0.74,-12.12 -6.42,-13.85 -9.23,-2.88 -19.12,-1.98 -28.66,-2.72 -9.74,-0.42 -21.18,-1.11 -27.79,-9.3 -6.18,-7.48 -1.7,-17.64 1.73,-25.29 7.26,-13.03 14.06,-26.4 22.65,-38.61 10.43,-11.7 27.27,-13.79 42.04,-14.78zm1201.39 -189.19c26.05,0 52.13,-0.01 78.21,0 9.92,0.31 20.17,0.94 29.44,4.82 5.3,2.29 10.46,6.52 11.32,12.56 1.39,9.79 -3.28,18.91 -7.24,27.54 -16.27,36.59 -32.38,73.26 -48.71,109.83 -19.88,0 -39.75,0.05 -59.63,-0.02 4.38,-10.06 9.2,-19.91 13.48,-30 -16.57,-0.02 -33.12,0.19 -49.67,-0.12 -7.01,9.85 -13.01,20.39 -19.98,30.23 -20.56,-0.3 -41.11,0.21 -61.64,-0.26 38.11,-51.55 76.23,-103.09 114.42,-154.58zm33.71 27.85l0 0c-15.87,24.92 -31.45,50.02 -47.18,75.01 13.89,-0.07 27.77,0.15 41.66,-0.13 8.09,-18.48 16.84,-36.67 25.23,-55.01 1.82,-4.69 4.25,-10.17 1.64,-15.01 -2.4,-4.88 -8.32,-6.25 -13.25,-6.7 -2.71,-0.08 -6.63,-1.3 -8.1,1.84zm-162.86 -27.86c20.23,0.07 40.48,-0.08 60.73,0.07 -27.45,51.54 -54.88,103.07 -82.29,154.61 -20.25,0.12 -40.51,0.23 -60.76,-0.06 27.45,-51.52 54.8,-103.12 82.32,-154.62zm-206.91 12.45c12.11,-9.43 27.89,-12.21 42.88,-12.44 41.46,-0.01 82.93,0 124.41,0 -5.27,11.15 -11.54,21.78 -16.47,33.07 -18.52,0.59 -37.05,0.15 -55.56,0.23 1.86,-3.79 3.73,-7.58 5.6,-11.37 -16.94,-0.08 -33.89,0.02 -50.82,-0.06 -13.66,26.57 -27.34,53.13 -41.01,79.7 -3.2,6.42 -7.6,12.8 -7.62,20.24 0.3,5.89 5.69,9.83 11.18,10.48 9.09,1.12 18.27,0.5 27.41,0.4 5.05,-10.91 10.88,-21.43 16.27,-32.17 -5.89,-0.06 -11.76,-0.06 -17.62,-0.02 3.58,-7.64 7.48,-15.12 11.56,-22.5 25.24,0.25 50.49,-0.01 75.75,0.14 -12.93,25.62 -26.17,51.1 -39.37,76.61 -41.24,0 -82.46,0.11 -123.68,-0.06 -10.21,-0.65 -22.59,-0.25 -29.96,-8.61 -4.55,-7.14 -0.89,-16.04 2.32,-22.95 12.12,-23.41 24.37,-46.76 36.54,-70.15 7.71,-14.48 14.67,-30.42 28.19,-40.54zm-202.57 -12.23c40.51,-0.49 81.03,-0.05 121.54,-0.22 10.06,0.34 20.84,1.18 29.58,6.68 4.86,2.69 4.65,9.24 2.08,13.49 -7.94,14.85 -16.1,29.62 -24.21,44.4 -17.35,6.02 -34.67,12.17 -52.02,18.17 10.47,6.65 21.49,12.4 32.21,18.67 -9.24,17.63 -18.69,35.18 -28.04,52.76l-1.18 0.66c-19.94,-0.15 -39.89,0.02 -59.81,-0.09 7.31,-13.92 14.82,-27.75 22.04,-41.72 -9.96,-6.38 -19.75,-13.03 -29.72,-19.37 -11.1,20.4 -21.39,41.3 -33.08,61.35 -20.74,-0.55 -41.51,-0.03 -62.25,-0.28 27.51,-51.54 55.58,-102.82 82.86,-154.5zm47.77 27.6l0 0c-8.31,16.42 -17.66,32.29 -25.83,48.77 16.21,-5.68 32.53,-11.13 48.61,-17.15 4.13,-5.58 7.14,-12 10.02,-18.32 2.29,-5.16 -1.41,-11.16 -6.72,-12.25 -8.58,-1.79 -17.41,-1.29 -26.08,-1.05zm-224.27 -26.55c21.81,-3.14 43.93,-1.18 65.89,-1.73 18.05,0.53 37.08,-2.04 54.25,5.03 4.76,1.46 8.66,6.64 5.41,11.45 -19.91,37.73 -40.06,75.33 -60.06,113.02 -5.51,11.2 -17.11,17.68 -28.63,21.13 -20.23,6.42 -41.72,4.21 -62.59,4.61 -17.2,-0.27 -34.46,0.59 -51.64,-0.57 -6.74,-0.84 -14.82,-1.64 -19.26,-7.45 -3.58,-6 -0.34,-13.14 2.58,-18.73 18.85,-35.18 37.48,-70.49 56.38,-105.65 8.34,-12.4 23.5,-18.33 37.67,-21.11zm-26 112.54l0 0c-3.58,5.73 -6,14.79 0.78,19.23 7.93,4.8 17.74,1.87 26.5,2.8 17.29,-31.79 34.06,-63.86 51.12,-95.77 2.88,-5.2 4.92,-12.47 0.15,-17.24 -7.27,-7.06 -18.3,-3.21 -27.31,-4.44 -17.75,31.42 -34,63.7 -51.24,95.42zm-193.73 -88.9c14.15,-16.1 35.58,-24.46 56.78,-24.84 31.33,-0.13 62.65,-0.04 93.96,-0.04 -3.77,7.32 -7.75,14.52 -11.52,21.83 -17.22,0.21 -34.46,-0.15 -51.7,0.16 -11.46,0.19 -23.73,4.49 -30.11,14.59 -4.86,8.03 -8.97,16.51 -13.3,24.83 21.32,0.08 42.65,-0.17 63.97,0.14 -4,7.31 -7.97,14.64 -11.68,22.13 -21.41,0.25 -42.82,0.1 -64.23,0.08 -9.01,16.19 -17.28,32.8 -26.32,48.97 19.52,0.34 39.06,-0.08 58.59,0.19 4.45,-0.02 9.31,1.96 11.18,6.28 1.54,5.78 -3.16,10.58 -5.3,15.53 -47.16,0 -94.3,0.05 -141.46,-0.02 18.17,-34.17 36.34,-68.34 54.53,-102.48 5.18,-9.31 9.24,-19.47 16.61,-27.35zm998.77 -376.93c29.6,3.42 60.1,11.52 83.32,31.08 15.2,12.65 25.18,31.24 26.8,51.01 4.51,-12.38 3.05,-26.23 -0.34,-38.7 -6.35,-21.83 -24.5,-38.19 -44.71,-47.36 -31.43,-14.3 -66.65,-17.44 -100.8,-17.31 3.45,4.42 7.07,9.32 7.16,15.18 0.23,7.37 -4.93,13.68 -10.65,17.73 -12.15,8.48 -26.76,12.18 -40.89,15.85 16.61,1.96 33.81,1.55 49.98,-3.14 12.97,-3.33 24.74,-11.81 30.13,-24.34zm-360.35 -80.29c13.12,2.61 26.13,5.7 39.24,8.29 0.99,6.24 -1.17,13.9 -7.66,16.26 -4.57,2.17 -9.01,-0.7 -12.42,-3.52 4.02,13.26 15.43,24.86 29.92,25.14 16.35,1.2 30.63,-12.06 33.93,-27.54 6.21,1.39 12.42,2.91 18.63,4.34 -4.27,14.52 -14.21,27.62 -28.02,34.21 -17.32,8.97 -39.87,6.44 -54.71,-6.27 -14.82,-12.11 -21.41,-32.17 -18.91,-50.91zm-697.43 -12.07c64.69,-13.36 131.14,-15.93 196.97,-12.71 104.42,5.9 207.39,27.28 307.64,56.48 -54.59,-1.89 -109.2,-3.49 -163.83,-2.56 -119.33,2.04 -239.12,10.14 -356.23,34.27 -63.62,13.6 -127.06,31.66 -184.7,62.46 -27.09,14.85 -53.34,32.36 -74.02,55.52l-2.27 2.1c14.67,-42.1 44.29,-77.41 77.92,-105.91 56.58,-47.14 126.92,-75.06 198.52,-89.65zm-106.91 -162.14c189.67,-6.47 379.52,-10.28 569.21,-3.37 100.31,4.29 201.13,10.36 299.51,31.56 36.44,8.21 73.43,17.22 106.32,35.49 15.49,8.89 31.98,22.45 32.42,41.86 -0.4,18.35 -13.01,33.17 -24.66,46.12 -82.54,-23.07 -167.17,-38.1 -252.42,-46.54 -106.4,-10.66 -213.37,-14.38 -320.23,-16.47 -25.83,-4.08 -51.26,-10.54 -76.95,-15.45 -108.73,-22.25 -217.57,-44 -326.42,-65.64 -3.13,-0.44 -6.27,-0.47 -9.4,-0.68 -6.97,-1.74 -13.82,-3.95 -20.85,-5.43 7.75,-1.39 15.64,-1.03 23.47,-1.45z"/>
   <path class="fil3" d="M1572.68 581.07c13.87,-23.87 34.69,-42.65 55.62,-60.25 44.34,2.48 88.63,5.83 132.97,8.44 36.02,1.87 74.34,9.01 102.48,33.2 22.03,18.55 32.95,47.37 34.15,75.66 1.94,44.57 -11.92,88.19 -30.42,128.22 -4.7,-4.28 -7.5,-10.13 -11.83,-14.74 -17.26,-19.6 -40.65,-32.78 -64.87,-41.85 -26.25,-9.5 -53.87,-15.81 -81.83,-16.66 -47.24,-2.08 -94.65,-2.67 -141.85,0.49 -28.29,2.4 -57.14,5.01 -83.83,15.33 5.09,7.66 10.48,15.13 15.6,22.77 83.85,-10.97 170.17,-7.05 251.75,15.96 4.78,1.73 10.35,2.15 14.44,5.45 -43.71,-3.2 -87.58,-2.33 -131.37,-2.52 -60.34,0.35 -120.67,1.3 -180.99,2.33 -15.62,-17.34 -28.59,-36.96 -40.27,-57.09 24.63,-17.33 53.95,-26.09 82.61,-34.19 35.72,-9.87 72.34,-15.73 108.73,-22.29 -13.22,-3.06 -27.74,-7.96 -35.24,-20.13 -6.95,-12.11 -2.25,-26.86 4.15,-38.13zm-656.69 575.61c-17.06,31.13 -34.12,62.26 -51.19,93.38 -4.64,8.47 -8.51,16.54 -16.32,22.71 -13.69,10.8 -31.35,15.48 -48.59,15.45 -22.81,-0.03 -45.61,0.08 -68.42,-0.11l-0.42 -0.01 -0.42 -0.04c-9.68,-0.98 -19.17,-1.57 -25.49,-10.3l-0.77 -1.05 -0.43 -1.23c-3.22,-9.08 0.74,-16.25 4.95,-23.94 24.04,-43.83 48.08,-87.67 72.1,-131.52l2.58 -4.71 5.38 0.02c16.52,0.05 33.04,0.01 49.56,0.01l15.13 0 -7.16 13.32c-20.6,38.31 -41.75,76.32 -62.61,114.48 -0.73,1.34 -3.14,5.68 -3.48,7.84 0.3,0.11 0.59,0.2 0.9,0.28 2.54,0.65 5.76,0.48 8.37,0.36 1.35,-0.07 2.7,-0.14 4.04,-0.19 23.88,-43.77 48.11,-87.35 71.79,-131.23l2.54 -4.7 5.35 -0.04c16.7,-0.14 33.41,-0.33 50.12,0.12l14.8 0.39 -7.12 12.98c-1.24,2.28 -2.49,4.56 -3.74,6.84 11.08,-12.47 27.1,-20.25 43.96,-20.37 27.27,-0.2 54.53,-0.02 81.8,-0.08l0.16 0 0.17 0.01c8.86,0.3 17.3,0.69 24.05,7.41l0.73 0.73 0.55 0.87c1.56,2.48 2.5,5.23 2.82,8.15 0.72,6.44 -1.38,10.6 -2.74,16.29 5.04,-9.49 10.07,-19 15.08,-28.51l2.5 -4.75 5.36 -0.08c16.34,-0.25 32.67,-0.08 49.01,-0.1l14.69 -0.01 -6.61 13.12c-8.55,16.95 -17.77,33.53 -26.78,50.23 4.75,0.03 9.5,0.03 14.24,-0.08 10.13,-19.58 20.98,-38.78 31.2,-58.31l2.49 -4.77 5.38 -0.08c16.36,-0.25 32.73,-0.04 49.09,-0.12l15.09 -0.07 -7.06 13.34c-27.74,52.36 -55.71,104.6 -83.72,156.81l-2.6 4.85 -5.5 -0.09c-16.24,-0.25 -32.48,0 -48.72,-0.13l-14.75 -0.12 6.8 -13.09c9.55,-18.37 19.32,-36.64 28.98,-54.95 -4.74,-0.11 -9.48,-0.16 -14.11,0.2 -11.56,21.05 -22.11,42.65 -33.93,63.56l-2.68 4.73 -5.42 -0.14c-16.16,-0.42 -32.32,0.06 -48.47,-0.25l-14.69 -0.28 6.87 -12.98c21.26,-40.19 42.86,-80.2 64.22,-120.34l-4.64 0.15c-12.94,0.42 -25.88,0.16 -38.83,0.19 -22.51,42.77 -45.22,85.44 -67.53,128.32l-2.47 4.76 -5.37 0.1c-16.7,0.33 -33.41,0.18 -50.12,0.1l-14.93 -0.07 6.98 -13.19c19.91,-37.65 39.74,-75.35 59.59,-113.03 1.11,-2.28 2.44,-4.61 3.77,-6.97 -10.57,0.02 -21.13,-0.01 -31.7,-0.03l-13.66 -0.04zm-297.66 -190.39c-10.37,-0.06 -20.73,-0.14 -31.09,0.1 -14.3,28.62 -29.52,56.76 -43.67,85.46l-0.12 0.24 -0.13 0.23c-0.52,0.92 -1.64,4.88 -0.36,5.38 1.38,0.55 2.82,0.91 4.28,1.15 5.85,0.98 12.39,0.35 18.71,0.24 2.56,-4.76 5.06,-9.55 7.51,-14.37 -1.26,-0.05 -2.52,-0.11 -3.77,-0.19l-14.37 -0.93 7.07 -12.54c3.93,-6.94 7.49,-14.09 10.96,-21.27l2.4 -4.94 5.49 -0.15c25.49,-0.71 51,-0.12 76.5,-0.31l14.69 -0.11 -6.52 13.16c-12.73,25.68 -26.33,50.91 -39.12,76.56l-2.47 4.96 -5.55 0.04c-41.18,0.29 -82.37,0.1 -123.55,0.1l-0.23 0 -0.24 -0.01c-12.46,-0.65 -24.7,-0.78 -34.72,-9.51l-0.42 -0.37 -0.37 -0.41c-9.32,-10.38 -5.31,-23.62 -0.09,-34.75l0.06 -0.12 0.05 -0.11c16.17,-32.04 32.12,-64.21 50.28,-95.19 12.97,-22.14 38.92,-30.17 63.04,-32.19l0.35 -0.03 0.35 0c42.01,-0.27 84.02,-0.06 126.03,-0.09l15.2 -0.02 -7.25 13.36c-5.97,11.01 -11.25,22.37 -17.28,33.36l-2.57 4.68 -5.34 0.01c-18.28,0.02 -36.56,-0.02 -54.84,0l-14.45 0.01 5.55 -11.43zm1022.2 215.67c8.51,-19.44 16.98,-38.91 25.52,-58.34l2.37 -5.39 5.89 -0.01c14.95,-0.02 29.9,-0.04 44.85,0.02l13.59 0.05 -5.3 12.51c-13.34,31.49 -26.93,62.88 -40.25,94.38 -9.11,21.56 -17.53,43.83 -38.15,57.09 -12.09,8.33 -26.01,8.21 -40.05,7.76l-7.77 -0.26 -0.91 -7.71c-2.4,-20.27 -4.99,-40.51 -7.49,-60.76 -10.01,21.23 -20.11,42.41 -30.14,63.63l-2.46 5.2 -5.75 -0.02c-15.68,-0.06 -31.37,0 -47.05,-0.04l-14.5 -0.04 6.41 -13c25.34,-51.34 50.46,-102.78 75.73,-154.14l2.38 -4.83 5.37 -0.21c13.5,-0.54 26.96,0.33 40.46,0.39l7.7 0.03 1.19 7.61c2.92,18.67 5.56,37.39 8.36,56.08zm-210.9 52.74c-3.24,-2.85 -6.46,-5.72 -9.72,-8.55 -10.5,19.78 -20.81,39.67 -31.54,59.34l-2.61 4.79 -5.45 -0.08c-16.32,-0.23 -32.63,-0.13 -48.95,-0.05l-14.91 0.06 6.83 -13.25c27.08,-52.5 55.78,-104.16 83.09,-156.55l2.49 -4.78 5.39 -0.08c32.05,-0.47 64.11,-0.03 96.17,-0.22l0.18 0c11.09,0.14 22.27,1.1 31.25,8.4l0.17 0.14 0.17 0.15c8.62,7.74 5.48,18.13 0.88,26.88l-0.06 0.11 -0.06 0.11c-6.92,12.31 -12.92,25.09 -20.44,37.08l-1.4 2.23 -2.38 1.13c-9.66,4.58 -19.74,8.24 -29.61,12.32 3.89,2.92 7.81,5.81 11.73,8.69l6.16 4.54 -3.46 6.82c-10.46,20.67 -21.4,41.09 -32.39,61.48l-2.59 4.81 -5.47 -0.06c-15.88,-0.17 -31.76,-0.01 -47.64,-0.09l-14.79 -0.07 6.81 -13.13c7.31,-14.09 14.76,-28.12 22.15,-42.17zm-123.3 -57.45c11.06,-0.05 22.11,0 33.16,0.07l14.92 0.11 -7 13.18c-3.86,7.26 -7.82,14.47 -11.63,21.75l-2.51 4.81 -5.42 0.04c-14.34,0.12 -28.69,-0.14 -43.03,0.07 -5.55,10.5 -11.2,20.95 -16.84,31.4 8.53,-0.02 17.07,-0.07 25.6,0.07l0.26 0.01 0.26 0.02c6.77,0.5 12.91,1.36 17.46,7.12l1.31 1.64 0.44 2.06c0.59,2.73 0.63,5.51 0.16,8.27 -0.64,3.82 -2.15,7.2 -3.85,10.64 -0.85,1.7 -1.81,3.5 -2.43,5.3l-2.09 5.99 -6.34 0.08c-35.77,0.44 -71.55,0.13 -107.32,0.17l-15.03 0.02 7.03 -13.29c21.3,-40.23 42.79,-80.37 64.18,-120.55l0.06 -0.1 0.05 -0.1c12.74,-22.54 36.04,-40.31 62.68,-40.61 23.49,-0.27 46.97,-0.23 70.46,0.1l15.21 0.21 -7.46 13.25c-4.02,7.16 -7.83,14.43 -11.74,21.64l-2.54 4.66 -5.3 0.06c-12.99,0.15 -26.03,-0.44 -39,0.3l-0.16 0c-7.17,0.28 -13.95,4.51 -17.51,10.7 -2.08,3.6 -4.08,7.24 -6.04,10.91zm-563.07 -55.03c8.77,5.16 8.69,15.72 4.28,23.75 -20.7,37.73 -41.21,75.57 -62.03,113.24 -10.78,19.5 -33.42,27.44 -54.49,28.88l-0.28 0.01 -0.28 0.01c-24.17,0.17 -48.34,0.05 -72.51,0.03l-0.32 0 -0.33 -0.02c-9.51,-0.7 -18.77,-1.51 -25.64,-9.1l-0.98 -1.09 -0.59 -1.33c-3.33,-7.56 -0.99,-15.04 2.77,-21.89 18.7,-34.02 37.25,-68.13 56.01,-102.12 3.72,-6.75 6.52,-13.1 12.28,-18.5 12,-11.24 28.05,-17.54 44.39,-18.48l0.13 -0.01 0.14 -0.01c21.53,-0.59 43.06,-0.05 64.6,-0.26l0.19 0c11.4,0.13 22.68,0.69 32.66,6.89zm-268.8 53.67c1.99,0.78 4.04,1.35 6.13,1.79 5.08,1.05 10.38,1.32 15.55,1.58 10.1,0.53 19.78,1.07 29.24,5.03 13.3,5.25 16.09,21.4 9.74,32.99 -7.96,15.49 -16.18,30.84 -24.52,46.13l-0.19 0.35 -0.22 0.33c-11.21,16.87 -31.48,21.75 -50.38,23.83l-0.4 0.04 -0.4 0.01c-24.04,0.52 -48.08,0 -72.12,0.25l-0.16 0c-9.32,-0.07 -18.4,-0.65 -26.3,-6.26 -8.07,-5.75 -8.92,-16.74 -4.6,-25.05 4.46,-8.57 9.4,-16.88 13.77,-25.5l2.55 -5.02 5.63 0.08c15.63,0.22 31,-1.38 46.56,1.14l0.52 0.09 0.51 0.14c4.01,1.14 7.3,3.72 8.8,7.7 1.54,4.08 0.66,8.03 -0.9,11.91 -0.33,0.82 -0.85,1.87 -1.09,2.71l-0.2 0.76 -0.05 0.11c4.04,0.8 8.77,0.65 13.23,0.51 4.73,-8.67 9.93,-17.14 13.93,-26.14l0.07 -0.16c0.21,-0.45 -0.45,-1.25 -0.9,-1.38 -8.01,-2.48 -18.1,-1.7 -26.53,-2.34 -12.68,-0.55 -25.64,-2.04 -34.26,-12.61 -8.83,-10.83 -4.55,-23.45 0.49,-34.7l0.16 -0.36 0.19 -0.34c7.43,-13.33 14.36,-26.91 23.15,-39.41l0.31 -0.43 0.34 -0.39c12.32,-13.8 30.72,-16.61 48.18,-17.78l0.26 -0.02 0.26 0c34.3,-0.31 68.6,-0.02 102.89,-0.14l14.92 -0.05 -6.86 13.25c-5.84,11.26 -11.67,22.53 -17.84,33.61l-2.6 4.67 -5.35 -0.03c-15.78,-0.07 -31.56,-0.05 -47.35,0l-14.47 0.06 6.3 -13.03c0.23,-0.47 0.45,-0.93 0.68,-1.39 -5.38,-0.03 -10.77,-0.01 -16.15,0.11 -3.91,7.2 -8.54,14.38 -11.02,21.91l-0.08 0.22 -0.08 0.22c-0.07,0.3 0.36,0.84 0.66,1zm1200.79 -106.77c-10.36,0.03 -20.73,0.07 -31.09,-0.06 -5.88,8.68 -11.21,17.76 -17.28,26.34l-2.75 3.88 -4.76 -0.07c-20.57,-0.3 -41.14,0.21 -61.71,-0.27l-17.42 -0.4 10.36 -14.01c38.12,-51.54 76.23,-103.09 114.43,-154.58l2.71 -3.65 4.55 0c26.07,0 52.14,-0.02 78.21,0l0.14 0 0.13 0c11.18,0.34 22.26,1.11 32.7,5.53 8.32,3.53 15.42,10.31 16.74,19.61 1.71,12.05 -3.2,21.91 -7.94,32.5 -16.35,36.55 -32.38,73.25 -48.7,109.82l-2.39 5.36 -5.87 0c-19.89,0 -39.78,0.05 -59.67,-0.02l-13.74 -0.06 5.49 -12.59c2.53,-5.82 5.22,-11.56 7.86,-17.33zm-63.4 -129.48c-27.44,51.53 -54.88,103.06 -82.29,154.6l-2.53 4.77 -5.4 0.03c-20.31,0.11 -40.63,0.23 -60.94,-0.06l-14.81 -0.21 6.96 -13.08c27.46,-51.53 54.81,-103.13 82.33,-154.63l2.57 -4.8 5.44 0.02c20.25,0.07 40.5,-0.08 60.76,0.07l14.92 0.12 -7.01 13.17zm-189.27 26.63c-10.27,-0.01 -20.54,0.02 -30.81,-0.01 -12.82,24.92 -25.7,49.8 -38.47,74.75 -2.22,4.35 -6.41,10.79 -6.62,15.81 0.24,1.01 2.44,1.73 3.23,1.83 6.76,0.82 13.7,0.62 20.55,0.44 2.34,-4.78 4.78,-9.51 7.24,-14.24 -0.92,0.01 -1.84,0.01 -2.76,0.02l-14.33 0.09 6.08 -12.97c3.67,-7.81 7.66,-15.47 11.84,-23.03l2.61 -4.72 5.39 0.06c25.24,0.24 50.48,-0.02 75.72,0.13l14.59 0.09 -6.58 13.02c-12.95,25.66 -26.2,51.17 -39.41,76.69l-2.53 4.89 -5.5 0c-41.24,0 -82.48,0.11 -123.71,-0.06l-0.27 0 -0.27 -0.02c-13.2,-0.84 -26.57,-0.77 -36.17,-11.65l-0.46 -0.53 -0.38 -0.59c-6.54,-10.26 -2.94,-21.56 1.75,-31.63l0.08 -0.17 0.09 -0.17c12.12,-23.43 24.29,-46.84 36.56,-70.2 8.42,-16.04 15.75,-32.29 30.71,-43.51 13.74,-10.67 31.25,-14.22 48.32,-14.29 41.48,-0.19 82.97,0 124.45,0l14.29 0 -6.12 12.9c-5.23,11.05 -11.47,21.62 -16.36,32.82l-2.28 5.23 -5.71 0.19c-18.6,0.59 -37.21,0.15 -55.82,0.23l-14.59 0.06 5.65 -11.46zm-133.17 -32.04c9.16,5.27 10.36,17.14 5.32,25.7 -7.93,14.84 -16.06,29.56 -24.16,44.31l-1.67 3.05 -3.29 1.14c-11.21,3.89 -22.41,7.83 -33.61,11.76 5.14,2.89 10.31,5.76 15.4,8.73l7.45 4.36 -4 7.64c-9.25,17.66 -18.71,35.21 -28.07,52.81l-1.24 2.33 -5.58 3.15 -2.41 -0.02c-19.93,-0.15 -39.86,0.02 -59.79,-0.09l-14.86 -0.09 6.91 -13.15c6.03,-11.49 12.2,-22.91 18.22,-34.4 -4.86,-3.18 -9.71,-6.4 -14.58,-9.58 -9.43,17.72 -18.48,35.65 -28.59,53l-2.7 4.62 -5.35 -0.14c-20.7,-0.55 -41.41,-0.04 -62.12,-0.28l-14.86 -0.18 7 -13.12c27.5,-51.54 55.56,-102.79 82.83,-154.46l2.51 -4.75 5.38 -0.06c40.53,-0.5 81.07,-0.06 121.61,-0.23l0.18 0 0.17 0c11.8,0.4 23.63,1.57 33.9,7.95zm-209.01 -2.84c10.14,3.4 16.17,14.9 10.11,24.53 -19.83,37.58 -39.9,75.03 -59.82,112.56 -6.69,13.5 -20.06,21.31 -33.99,25.64 -21.49,6.68 -43.02,4.59 -65.1,5.01l-0.15 0.01 -0.16 -0.01c-17.38,-0.27 -34.74,0.59 -52.11,-0.59l-0.25 -0.01 -0.25 -0.04c-9.59,-1.19 -19.02,-2.66 -25.33,-10.93l-0.31 -0.41 -0.27 -0.44c-5.48,-9.19 -2.26,-18.95 2.36,-27.61 18.81,-35.22 37.49,-70.51 56.39,-105.68l0.22 -0.4 0.25 -0.37c9.79,-14.55 26.79,-21.66 43.43,-24.93l0.23 -0.04 0.22 -0.03c22.31,-3.22 44.56,-1.26 66.95,-1.83l0.25 0 0.24 0c19.58,0.58 38.3,-2.04 57.09,5.57zm-277.88 45.3c-2.18,3.61 -4.2,7.31 -6.16,11.05 16.42,-0.02 32.85,-0.12 49.27,0.12l15 0.21 -7.19 13.16c-3.95,7.22 -7.86,14.45 -11.51,21.82l-2.46 4.95 -5.54 0.07c-19.66,0.23 -39.33,0.12 -58.99,0.08 -5.62,10.28 -10.99,20.69 -16.52,31.03 14.52,0.03 29.01,-0.15 43.41,0.05 8.12,-0.04 16.18,4.02 19.52,11.74l0.26 0.61 0.17 0.64c0.68,2.55 0.79,5.17 0.34,7.77 -0.59,3.53 -2.08,6.55 -3.85,9.62 -0.74,1.29 -1.63,2.68 -2.22,4.04l-2.35 5.47 -5.95 0c-47.16,0 -94.32,0.05 -141.48,-0.02l-15.01 -0.03 7.05 -13.26c18.16,-34.16 36.33,-68.33 54.53,-102.48l0.08 -0.14c5.66,-10.17 9.74,-20.35 17.81,-29.03 15.85,-17.96 39.65,-27.57 63.39,-27.81 31.35,-0.3 62.7,-0.03 94.05,-0.03l14.83 0 -6.8 13.18c-3.77,7.31 -7.75,14.51 -11.52,21.82l-2.49 4.83 -5.43 0.07c-17.22,0.21 -34.44,-0.14 -51.65,0.15 -8.27,0.14 -17.9,2.97 -22.59,10.32zm642.9 201.87c4.16,-7.81 8.36,-15.6 12.69,-23.31 4.5,-0.01 9.16,-0.06 13.33,0.82 -1.9,5.17 -5,10.17 -7.78,15.05 -6.11,2.4 -12.17,4.92 -18.24,7.44zm-786.04 -26.59c3.74,-0.18 7.79,-0.34 10.3,0.39 0.63,0.18 1.22,0.43 1.76,0.79 0.66,1.32 -0.97,5.13 -1.61,6.24l-0.08 0.15c-16.84,30.68 -33.54,61.44 -50.49,92.06 -4.29,0.14 -8.98,0.32 -12.18,-0.69 -0.57,-0.95 0.11,-3.31 0.64,-4.17l0.14 -0.23 0.12 -0.23c16.94,-31.55 34.54,-62.73 51.4,-94.31zm1015.79 -122.81c12.33,-19.66 24.61,-39.35 37.06,-58.93 0.38,0.05 0.77,0.09 1.14,0.11 1.1,0.12 5.4,0.72 5.87,1.69l0.08 0.15 0.08 0.15c0.49,0.91 -1.42,5.7 -2.01,7.18 -7.58,16.55 -15.43,32.98 -22.84,49.6 -6.46,0.08 -12.92,0.06 -19.38,0.05zm-500.99 -33.26c4.31,-7.95 8.69,-15.87 12.86,-23.89 6.23,-0.18 12.63,-0.21 18.63,1.03 0.03,0.02 0.08,0.06 0.12,0.12 -2.15,4.78 -4.45,9.71 -7.37,14.11 -8.04,2.98 -16.13,5.82 -24.24,8.63zm-221.02 66.04c-1.54,0.02 -3.09,0.08 -4.64,0.14 -2.91,0.11 -6.39,0.29 -9.24,-0.39 -0.88,-0.21 -1.71,-0.51 -2.49,-0.96 -0.01,-0.01 -0.03,-0.02 -0.04,-0.04 -0.61,-1.5 1.32,-5.56 2.08,-6.78l0.14 -0.23 0.13 -0.24c16.33,-30.04 31.76,-60.58 48.45,-90.43 1.68,-0.02 3.37,-0.1 5.07,-0.17 2.57,-0.1 6.28,-0.29 8.74,0.54 0.78,0.27 1.43,0.64 2.02,1.22 0.02,0.02 0.05,0.05 0.07,0.08 0.61,1.21 -1.29,5.38 -1.85,6.43 -16.24,30.23 -32.09,60.66 -48.44,90.83zm687.22 -498.97l0 0c-10.8,2.69 -21.3,10.59 -23.99,21.79 -1.14,4.86 2.88,9.93 7.83,10.1 9.17,0.84 17.91,-4.27 23.98,-10.82 3.76,-4.21 7.28,-9.87 5.72,-15.75 -1.81,-5.41 -8.67,-6.57 -13.54,-5.32zm60.09 -0.95l0 0c3.45,4.42 7.07,9.32 7.16,15.18 0.23,7.37 -4.93,13.68 -10.65,17.73 -12.15,8.48 -26.76,12.18 -40.89,15.85 16.61,1.96 33.81,1.55 49.98,-3.14 12.97,-3.33 24.74,-11.81 30.13,-24.34 29.6,3.42 60.1,11.52 83.32,31.08 15.2,12.65 25.18,31.24 26.8,51.01 4.51,-12.38 3.05,-26.23 -0.34,-38.7 -6.35,-21.83 -24.5,-38.19 -44.71,-47.36 -31.43,-14.3 -66.65,-17.44 -100.8,-17.31zm-1183.14 401.18c-18.24,30.69 -33.92,62.82 -50,94.69 -3.48,7.43 -7.71,17.81 -1.37,24.87 7.96,6.94 19.32,6.78 29.26,7.3 41.16,0 82.32,0.19 123.48,-0.1 12.79,-25.63 26.39,-50.85 39.11,-76.53 -25.45,0.19 -50.9,-0.4 -76.32,0.31 -3.57,7.35 -7.2,14.64 -11.22,21.77 5.9,0.38 11.82,0.38 17.75,0.28 -5.35,10.94 -10.9,21.77 -16.74,32.44 -10.5,-0.76 -21.59,1.75 -31.62,-2.11 -7.26,-2.94 -7.62,-12.25 -4.19,-18.27 14.95,-30.32 31.1,-60.04 46.09,-90.34 17.07,-0.59 34.16,-0.16 51.24,-0.23 -1.89,3.79 -3.73,7.58 -5.58,11.39 18.28,-0.02 36.57,0.02 54.84,0 6.02,-10.97 11.29,-22.33 17.25,-33.32 -42,0.04 -84,-0.17 -125.98,0.1 -20.91,1.75 -44.83,8.27 -56,27.75zm1065.85 163.68c-25.27,51.37 -50.4,102.82 -75.73,154.15 15.67,0.04 31.37,-0.02 47.07,0.04 14.3,-30.27 28.76,-60.48 42.87,-90.82 0.61,1.94 1.2,3.89 1.49,5.92 3.35,28.29 7.06,56.54 10.42,84.82 11.79,0.38 24.59,0.82 34.74,-6.25 18.69,-11.94 26.7,-33.58 34.84,-53.08 13.41,-31.47 26.91,-62.9 40.25,-94.38 -14.94,-0.06 -29.87,-0.04 -44.81,-0.02 -12.68,28.86 -25.2,57.77 -37.94,86.57 -4.8,-28.78 -8.63,-57.73 -13.14,-86.55 -13.37,-0.06 -26.71,-0.94 -40.06,-0.4zm-168.8 -2.29c-27.29,52.36 -56,104.04 -83.07,156.52 16.37,-0.08 32.75,-0.18 49.13,0.05 12.49,-22.91 24.42,-46.11 36.74,-69.1 8.17,6.55 15.81,13.71 23.77,20.51 -8.47,16.17 -17.04,32.27 -25.44,48.46 15.88,0.08 31.79,-0.08 47.69,0.1 10.95,-20.33 21.87,-40.69 32.29,-61.28 -8.02,-5.91 -16.06,-11.81 -23.81,-18.06 14.02,-6.95 29.05,-11.69 43.18,-18.4 7.41,-11.81 13.37,-24.53 20.21,-36.7 2.45,-4.67 5.92,-11.6 1.08,-15.95 -7.1,-5.77 -16.91,-6.26 -25.67,-6.38 -32.04,0.19 -64.08,-0.24 -96.1,0.23zm11.35 71.74l0 0c14.84,-5.74 29.4,-12.25 44.25,-17.97 3.54,-6.63 7.77,-12.97 10.27,-20.09 1.56,-4.71 -1.6,-9.66 -6.21,-10.88 -6.93,-1.62 -14.11,-0.93 -21.16,-1.25 -9.43,16.51 -18.15,33.42 -27.15,50.19zm-170.13 -35.85c-21.39,40.17 -42.88,80.3 -64.17,120.53 35.73,-0.04 71.48,0.27 107.22,-0.17 2.19,-6.31 7.35,-12.29 5.83,-19.33 -2.61,-3.3 -7.22,-3.43 -11.05,-3.72 -13.52,-0.23 -27.05,0.02 -40.57,-0.09 8.82,-16.44 17.77,-32.82 26.45,-49.36 16.14,-0.38 32.31,-0.03 48.46,-0.17 3.83,-7.31 7.79,-14.53 11.66,-21.81 -16.02,-0.11 -32.06,-0.15 -48.1,0.04 4.29,-8.26 8.59,-16.49 13.2,-24.57 5.15,-8.86 14.71,-14.82 24.99,-15.22 13.11,-0.74 26.27,-0.15 39.41,-0.3 3.95,-7.26 7.78,-14.57 11.81,-21.76 -23.41,-0.32 -46.81,-0.17 -70.23,-0.09 -23.35,0.46 -43.77,16.3 -54.91,36.02zm-153.58 -35.98c-27.52,52.3 -55.71,104.23 -83.35,156.45 16.17,0.31 32.34,-0.17 48.53,0.25 12.57,-22.23 23.72,-45.27 36.15,-67.58 11.3,-1.64 23.15,-0.19 34.67,-0.67 -11.89,22.73 -24.04,45.3 -35.87,68.06 16.27,0.13 32.52,-0.11 48.78,0.13 28,-52.19 55.97,-104.42 83.7,-156.76 -16.32,0.08 -32.67,-0.13 -48.99,0.12 -11.03,21.08 -22.8,41.79 -33.6,62.99 -11.64,0.47 -23.28,0.15 -34.9,0.19 11.15,-21.15 22.99,-41.93 33.76,-63.28 -16.31,0.02 -32.59,-0.15 -48.88,0.1zm-172.34 23.18c15.25,0.04 30.49,0.07 45.75,-0.02 -2.08,7.22 -6.55,13.41 -9.77,20.13 -19.89,37.73 -39.74,75.47 -59.68,113.18 16.63,0.08 33.28,0.23 49.91,-0.09 23.14,-44.5 46.72,-88.76 70.07,-133.16 14.65,-0.14 29.34,0.26 44,-0.21 1.32,-5.91 4.84,-12.61 1.24,-18.35 -4.67,-4.64 -11.87,-4.57 -17.98,-4.78 -27.26,0.06 -54.5,-0.09 -81.75,0.08 -16.78,0.15 -32.61,9.29 -41.79,23.22zm-140.77 -23.32c-24.01,43.85 -47.98,87.72 -72.09,131.53 -2.65,4.99 -6.46,10.66 -4.36,16.57 4.25,5.86 12.53,5.94 19.08,6.61 22.78,0.19 45.58,-0.02 68.37,0.11 15.16,-0.07 30.95,-3.9 42.97,-13.5 6.59,-5.09 10.11,-12.84 14,-19.96 22.15,-40.37 44.26,-80.75 66.38,-121.11 -16.59,-0.44 -33.22,-0.25 -49.81,-0.11 -24.55,45.48 -49.68,90.62 -74.4,136.02 -8.13,-0.61 -17.35,2.07 -24.67,-2.46 -6.25,-5.09 -1.48,-13.72 1.56,-19.26 20.84,-38.15 41.98,-76.13 62.57,-114.42 -16.53,0 -33.06,0.04 -49.6,-0.02zm-142.85 0.27c-14.21,0.82 -28.31,6.23 -38.73,16.06 -4.82,4.45 -7.37,10.64 -10.55,16.26 -18.68,34.02 -37.29,68.1 -56,102.12 -2.27,4.13 -4.48,9.22 -2.42,13.88 4.86,5.37 12.84,5.66 19.6,6.16 24.13,0.02 48.29,0.13 72.44,-0.04 17.87,-1.22 37.89,-7.72 47.2,-24.23 20.67,-37.73 41.37,-75.47 62.02,-113.22 2.04,-3.58 3.28,-9.2 -1.03,-11.66 -8.3,-5.22 -18.59,-5.48 -28.09,-5.6 -21.49,0.21 -42.98,-0.32 -64.44,0.27zm7.81 18.48l0 0c-17.6,33.14 -36.1,65.82 -53.85,98.89 -3.45,5.6 -3.16,14.52 3.7,17.32 6.66,2.36 13.96,0.87 20.89,1.27 17.83,-32.15 35.37,-64.47 53.07,-96.7 3.06,-5.36 4.87,-13.53 -0.73,-17.91 -6.63,-4.85 -15.44,-2.63 -23.08,-2.87zm-182.97 -18.59c-14.77,0.99 -31.61,3.08 -42.04,14.78 -8.59,12.21 -15.39,25.58 -22.65,38.61 -3.43,7.65 -7.91,17.81 -1.73,25.29 6.61,8.19 18.05,8.88 27.79,9.3 9.54,0.74 19.43,-0.16 28.66,2.72 5.68,1.73 8.99,8.34 6.42,13.85 -4.82,10.84 -11.29,20.87 -16.7,31.43 -7.45,-0.14 -15.13,0.91 -22.4,-1.05 -5.05,-1.33 -6.9,-7.2 -4.78,-11.68 1.01,-3.69 5.31,-9.56 -0.57,-11.24 -14.9,-2.41 -30.19,-0.81 -45.24,-1.02 -4.38,8.63 -9.37,16.97 -13.81,25.58 -2.25,4.23 -2.5,10.47 1.83,13.5 6.05,4.36 13.94,4.54 21.12,4.59 24,-0.24 48.02,0.27 72.02,-0.24 15.92,-1.76 34.36,-5.59 43.85,-19.85 8.32,-15.28 16.53,-30.61 24.47,-46.06 3.81,-6.86 3.01,-17.2 -5.16,-20.36 -16.13,-6.8 -34.78,-1.94 -51.05,-8.46 -4.74,-2.04 -7.46,-7.68 -5.56,-12.59 3.28,-9.94 9.54,-18.53 14,-27.96 12.19,-0.44 24.4,-0.29 36.61,-0.08 -2.59,4.65 -5.07,9.37 -7.39,14.17 15.81,-0.05 31.62,-0.07 47.43,0 6.13,-11.01 11.92,-22.19 17.71,-33.37 -34.26,0.12 -68.55,-0.17 -102.83,0.14zm1201.39 -189.19c-38.19,51.49 -76.31,103.03 -114.42,154.58 20.53,0.47 41.08,-0.04 61.64,0.26 6.97,-9.84 12.97,-20.38 19.98,-30.23 16.55,0.31 33.1,0.1 49.67,0.12 -4.28,10.09 -9.1,19.94 -13.48,30 19.88,0.07 39.75,0.02 59.63,0.02 16.33,-36.57 32.44,-73.24 48.71,-109.83 3.96,-8.63 8.63,-17.75 7.24,-27.54 -0.86,-6.04 -6.02,-10.27 -11.32,-12.56 -9.27,-3.88 -19.52,-4.51 -29.44,-4.82 -26.08,-0.01 -52.16,0 -78.21,0zm33.71 27.85l0 0c-15.87,24.92 -31.45,50.02 -47.18,75.01 13.89,-0.07 27.77,0.15 41.66,-0.13 8.09,-18.48 16.84,-36.67 25.23,-55.01 1.82,-4.69 4.25,-10.17 1.64,-15.01 -2.4,-4.88 -8.32,-6.25 -13.25,-6.7 -2.71,-0.08 -6.63,-1.3 -8.1,1.84zm-162.86 -27.86c-27.52,51.5 -54.87,103.1 -82.32,154.62 20.25,0.29 40.51,0.18 60.76,0.06 27.41,-51.54 54.84,-103.07 82.29,-154.61 -20.25,-0.15 -40.5,0 -60.73,-0.07zm-206.91 12.45c-13.52,10.12 -20.48,26.06 -28.19,40.54 -12.17,23.39 -24.42,46.74 -36.54,70.15 -3.21,6.91 -6.87,15.81 -2.32,22.95 7.37,8.36 19.75,7.96 29.96,8.61 41.22,0.17 82.44,0.06 123.68,0.06 13.2,-25.51 26.44,-50.99 39.37,-76.61 -25.26,-0.15 -50.51,0.11 -75.75,-0.14 -4.08,7.38 -7.98,14.86 -11.56,22.5 5.86,-0.04 11.73,-0.04 17.62,0.02 -5.39,10.74 -11.22,21.26 -16.27,32.17 -9.14,0.1 -18.32,0.72 -27.41,-0.4 -5.49,-0.65 -10.88,-4.59 -11.18,-10.48 0.02,-7.44 4.42,-13.82 7.62,-20.24 13.67,-26.57 27.35,-53.13 41.01,-79.7 16.93,0.08 33.88,-0.02 50.82,0.06 -1.87,3.79 -3.74,7.58 -5.6,11.37 18.51,-0.08 37.04,0.36 55.56,-0.23 4.93,-11.29 11.2,-21.92 16.47,-33.07 -41.48,0 -82.95,-0.01 -124.41,0 -14.99,0.23 -30.77,3.01 -42.88,12.44zm-202.57 -12.23c-27.28,51.68 -55.35,102.96 -82.86,154.5 20.74,0.25 41.51,-0.27 62.25,0.28 11.69,-20.05 21.98,-40.95 33.08,-61.35 9.97,6.34 19.76,12.99 29.72,19.37 -7.22,13.97 -14.73,27.8 -22.04,41.72 19.92,0.11 39.87,-0.06 59.81,0.09l1.18 -0.66c9.35,-17.58 18.8,-35.13 28.04,-52.76 -10.72,-6.27 -21.74,-12.02 -32.21,-18.67 17.35,-6 34.67,-12.15 52.02,-18.17 8.11,-14.78 16.27,-29.55 24.21,-44.4 2.57,-4.25 2.78,-10.8 -2.08,-13.49 -8.74,-5.5 -19.52,-6.34 -29.58,-6.68 -40.51,0.17 -81.03,-0.27 -121.54,0.22zm47.77 27.6l0 0c-8.31,16.42 -17.66,32.29 -25.83,48.77 16.21,-5.68 32.53,-11.13 48.61,-17.15 4.13,-5.58 7.14,-12 10.02,-18.32 2.29,-5.16 -1.41,-11.16 -6.72,-12.25 -8.58,-1.79 -17.41,-1.29 -26.08,-1.05zm-224.27 -26.55c-14.17,2.78 -29.33,8.71 -37.67,21.11 -18.9,35.16 -37.53,70.47 -56.38,105.65 -2.92,5.59 -6.16,12.73 -2.58,18.73 4.44,5.81 12.52,6.61 19.26,7.45 17.18,1.16 34.44,0.3 51.64,0.57 20.87,-0.4 42.36,1.81 62.59,-4.61 11.52,-3.45 23.12,-9.93 28.63,-21.13 20,-37.69 40.15,-75.29 60.06,-113.02 3.25,-4.81 -0.65,-9.99 -5.41,-11.45 -17.17,-7.07 -36.2,-4.5 -54.25,-5.03 -21.96,0.55 -44.08,-1.41 -65.89,1.73zm-26 112.54l0 0c-3.58,5.73 -6,14.79 0.78,19.23 7.93,4.8 17.74,1.87 26.5,2.8 17.29,-31.79 34.06,-63.86 51.12,-95.77 2.88,-5.2 4.92,-12.47 0.15,-17.24 -7.27,-7.06 -18.3,-3.21 -27.31,-4.44 -17.75,31.42 -34,63.7 -51.24,95.42zm-193.73 -88.9c-7.37,7.88 -11.43,18.04 -16.61,27.35 -18.19,34.14 -36.36,68.31 -54.53,102.48 47.16,0.07 94.3,0.02 141.46,0.02 2.14,-4.95 6.84,-9.75 5.3,-15.53 -1.87,-4.32 -6.73,-6.3 -11.18,-6.28 -19.53,-0.27 -39.07,0.15 -58.59,-0.19 9.04,-16.17 17.31,-32.78 26.32,-48.97 21.41,0.02 42.82,0.17 64.23,-0.08 3.71,-7.49 7.68,-14.82 11.68,-22.13 -21.32,-0.31 -42.65,-0.06 -63.97,-0.14 4.33,-8.32 8.44,-16.8 13.3,-24.83 6.38,-10.1 18.65,-14.4 30.11,-14.59 17.24,-0.31 34.48,0.05 51.7,-0.16 3.77,-7.31 7.75,-14.51 11.52,-21.83 -31.31,0 -62.63,-0.09 -93.96,0.04 -21.2,0.38 -42.63,8.74 -56.78,24.84z"/>
  </g>
 </g>
</svg>
