<?xml version="1.0" encoding="UTF-8"?>
<!DOCTYPE svg PUBLIC "-//W3C//DTD SVG 1.1//EN" "http://www.w3.org/Graphics/SVG/1.1/DTD/svg11.dtd">
<!-- Creator: CorelDRAW -->
<svg xmlns="http://www.w3.org/2000/svg" xml:space="preserve" width="2000px" height="1600px" version="1.1" style="shape-rendering:geometricPrecision; text-rendering:geometricPrecision; image-rendering:optimizeQuality; fill-rule:evenodd; clip-rule:evenodd"
viewBox="0 0 2000 1600"
 xmlns:xlink="http://www.w3.org/1999/xlink">
 <defs>
  <style type="text/css">
   <![CDATA[
    .fil0 {fill:#F9AC2A}
    .fil4 {fill:#045E3B;fill-rule:nonzero}
    .fil3 {fill:#2C221C;fill-rule:nonzero}
    .fil2 {fill:#F9AC2A;fill-rule:nonzero}
    .fil1 {fill:#FBFDFB;fill-rule:nonzero}
   ]]>
  </style>
 </defs>
 <g id="Capa_x0020_1">
  <metadata id="CorelCorpID_0Corel-Layer"/>
  <g id="George_x0020_Mason_x0020_Patriots.cdr">
   <path class="fil0" d="M1706.72 0c9.91,89.54 20.7,178.96 30.88,268.45 -0.73,8.03 7.91,9.76 13.72,11.95 54.04,17.13 107.78,35.26 161.74,52.66 15.06,4.65 29.69,10.99 45.29,13.75l0 1.5c-66.45,34.45 -132.56,69.6 -198.97,104.13 8.34,87.35 16.9,174.65 25.54,261.96 54.36,5.15 108.78,8.99 163.14,14.1 -0.62,260.73 0.23,521.5 -0.5,782.24 -56.55,-30.12 -112.32,-61.85 -170.89,-87.97 -35.04,-16.28 -70.76,-30.88 -106.63,-45.13 -20.13,16.48 -40.49,32.69 -60.19,49.74 20.82,57.43 41.98,114.74 62.18,172.35 -60.88,-20.97 -121.03,-44.21 -183.1,-61.61 -207.23,-60.15 -425.4,-83.12 -640.54,-65.1 -151.22,12.02 -300.41,45.78 -443.14,96.91 -29.39,9.79 -57.85,22.39 -87.93,30.07 19.82,-57.38 41.07,-114.31 61.85,-171.35 -19.82,-17.09 -40.3,-33.42 -60.5,-50.01 -95.83,37.07 -187.94,83.08 -277.02,134.13l0 -784.85c66.64,-4.57 133.17,-10.64 199.7,-16.67 82.43,-100.02 178.3,-188.82 283.93,-263.84 -19.67,-16.29 -40.06,-31.69 -59.84,-47.82 91.22,-69.33 188.44,-131.33 292.8,-179.04 269.26,-126.06 576.86,-164.78 869.82,-116.8 25.96,-34.46 51.04,-69.56 77.35,-103.75l1.31 0z"/>
   <path class="fil1" d="M469.47 1344.15c30.11,-6.69 59.77,-15.21 89.92,-21.7 14.4,-3.42 31.5,0.69 40.29,13.29 8.57,12.67 9.61,31.61 -1.46,43.21 -7.72,9.06 -19.51,12.79 -30.73,15.44 -16.97,3.88 -33.83,8.22 -50.74,12.41 2.73,10.98 5.46,21.97 8.26,32.91 -10.18,2.42 -20.39,4.73 -30.57,7.07 -7.95,-34.3 -16.9,-68.33 -24.97,-102.63zm924.78 -10.45c9.95,-12.33 27.23,-13.25 41.83,-12.29 29.46,2.76 58.84,13.75 80.55,34.41 -6.42,5.31 -12.79,10.61 -19.21,15.87 -20.13,-14.29 -43.83,-25.55 -68.99,-25.2 -5.53,0.42 -8.45,3.38 -8.79,8.87 26.54,15.94 62.72,15.56 83.5,40.8 12.18,18.2 -6.07,40.83 -25.5,42.21 -39.95,4.38 -80.86,-12.52 -108.78,-40.99 6.64,-5.22 13.37,-10.37 20.09,-15.44 19.93,18.94 46.74,30.35 74.21,31.69 5.49,1.08 8.79,-3.8 12.29,-6.99 -23.85,-16.48 -55.93,-16.01 -77.9,-35.64 -11.25,-8.8 -12.71,-26.66 -3.3,-37.3zm-138.55 -44.1c42.91,7.23 85.85,14.37 128.79,21.74 -1.46,8.03 -2.8,16.1 -4.15,24.16 -16.4,-2.57 -32.72,-5.41 -49.12,-8.02 -4.46,26.58 -8.76,53.2 -13.33,79.74 -10.22,-1.65 -20.44,-3.34 -30.58,-5.03 4.19,-26.78 9.18,-53.39 12.99,-80.21 -16.37,-2.3 -32.65,-5.14 -48.9,-7.91 1.46,-8.14 2.84,-16.32 4.3,-24.47zm-527.34 1.16c43.36,-4.54 86.69,-9.11 130.1,-13.29 0.69,8.14 1.46,16.28 2.34,24.46 -16.52,1.69 -33.03,2.96 -49.44,5.42 2.85,26.73 5.38,53.47 8.38,80.16 -10.37,1.16 -20.74,2.04 -31.11,2.81 -2.39,-26.7 -5.73,-53.32 -7.88,-80.01 -16.59,1.34 -33.15,3.34 -49.74,4.76 -0.81,-8.14 -1.73,-16.21 -2.65,-24.31zm313.12 -16.67c10.3,0.19 20.59,0.8 30.93,1.34 -1.04,35.18 -1.58,70.45 -3.46,105.63 -10.26,-0.84 -20.51,-1.27 -30.77,-1.38 1.38,-35.19 2.46,-70.41 3.3,-105.59zm645.65 -1204.18c8.49,71.29 16.71,142.62 24.85,213.98 1.46,4.38 -0.5,12.3 5.38,13.87 56.46,18.94 113.46,36.38 169.74,55.93 -51.17,29.65 -104.79,54.92 -156.6,83.42 8.26,86.93 17.36,173.81 25.19,260.78 -58.5,-60.04 -115.84,-121.19 -173.81,-181.76 -110.93,51.81 -220.93,105.63 -332.17,156.67 27.42,-40.17 56,-79.62 84.19,-119.26 -84.23,-15.71 -169.92,-21.44 -255.47,-22.86 28.24,30.66 57.35,60.5 85.28,91.42 -27.16,-0.08 -54.32,0.46 -81.43,-0.81 -148.39,0.23 -296.73,23.4 -437.89,69.14 -17.01,5.77 -34.37,10.68 -50.62,18.4 126.87,-8.64 253.97,-15.78 381.15,-15.67 316.35,-2.69 631.01,34.99 945.9,60.04 0,117.73 -0.04,235.42 0.04,353.15 -1.84,119.42 -0.46,238.87 -0.96,358.29 -82.08,-45.09 -167.09,-84.85 -254.63,-118.19 -29.34,23.66 -58.26,47.86 -87.53,71.64 16.4,45.67 32.99,91.3 49.55,136.93 -285.05,-106.13 -596.79,-141.35 -897.82,-95.64 -125.49,18.59 -248.21,52.97 -367.09,96.91 15.13,-46.17 33.15,-91.34 48.9,-137.32 -29.19,-23.31 -58,-47.21 -86.73,-71.1 -88.5,32.27 -173.77,73.1 -256.01,118.92 0.19,-237.76 -0.16,-475.56 0.19,-713.36 62.3,-4.96 124.64,-10.07 186.87,-16.33 89.34,-111.46 196.32,-208.61 314.66,-288.42 -19.28,-16.83 -40.1,-31.85 -59.69,-48.32 157.41,-118.16 339.09,-203.89 530.57,-249.44 162.86,-38.88 332.4,-49.17 498.84,-31.31 33.53,3.84 66.95,8.49 100.37,13.18 15.9,-20.75 31.22,-41.87 46.78,-62.88zm-125.18 191.59l0 0c-83.93,-28.23 -168.36,-54.89 -252.36,-82.85 55.27,65.68 112.16,130.06 168.09,195.24 -62.38,88.19 -125.03,176.23 -187.26,264.54 22.67,-8.88 44.06,-20.59 66.19,-30.62 75.97,-36.03 152.03,-71.9 227.93,-108.16 51.81,53.12 102.09,107.74 154.1,160.67 -7.26,-77.32 -15.83,-154.53 -22.16,-231.89 45.55,-23.54 91.64,-46.28 135.97,-71.94 -50.36,-16.9 -100.94,-33.19 -151.45,-49.66 -7.84,-66.92 -15.21,-133.87 -23.43,-200.7 -38.88,51.55 -76.9,103.71 -115.62,155.37zm-1028.99 139.7l0 0c20.4,15.67 40.22,32.04 60.62,47.71 -120.58,79.01 -229.47,176.07 -320.5,287.92 17.67,-1.46 35.26,-3.41 52.93,-4.37 122.41,-112.55 263.76,-204.43 417.02,-269.07 -21.58,-20.09 -42.86,-40.56 -64.22,-60.88 212.14,-102.64 449.83,-150.69 685.17,-141.24 -30.84,-36.14 -62.26,-71.79 -93.07,-107.97 95.72,30.69 191.1,62.45 286.74,93.45 25.27,-33.61 50.09,-67.53 75.17,-101.25 -82.97,-12.41 -166.7,-21.32 -250.71,-20.7 -302.72,-0.96 -605.47,96.41 -849.15,276.4zm319.66 33.69l0 0c23.16,25.46 50.16,47.28 71.63,74.24 -186.1,36.61 -365.17,109.86 -522.38,216.14 39.91,-3.11 79.74,-6.87 119.65,-9.75 8.22,-0.77 16.71,-0.81 24.47,-4.04 185.52,-74.44 386.75,-110.12 586.57,-102.51 -27.43,-30.58 -56.05,-60.08 -84.12,-90.04 29.34,-2.88 58.76,-0.61 88.15,-0.15 69.52,2.61 138.89,10.06 207.3,22.7 30.85,-43.68 61.92,-87.2 92.73,-130.95 -193.71,-31.34 -393.6,-23.04 -584,24.36zm-511.52 295.61l0 0c15.17,-1.39 30.65,-1.16 45.6,-4.65 9.48,-5.76 17.32,-13.75 25.96,-20.59 101.29,-82.39 214.72,-149.99 336.02,-198.47 11.71,-4.61 23.62,-8.72 34.91,-14.25 -162.67,45.67 -313.2,129.79 -442.49,237.96zm453.21 -19.86l0 0c-21.43,0.15 -42.91,0.54 -64.26,2.65 -216.56,10.95 -432.24,34.11 -648.22,52.62 0.42,225.97 -0.04,451.94 0.23,677.87 170.81,-93.29 355.99,-160.4 547.12,-197.43 270.41,-52.85 552.23,-46.32 819.92,18.98 159.25,38.83 313.43,98.45 457.4,176.8 0.07,-225.62 -0.16,-451.25 0.11,-676.91 -276.94,-22.66 -553.5,-54.81 -831.63,-58.42 -93.57,0.69 -187.25,-2.39 -280.67,3.84zm-456.86 630.66l0 0c30.16,24.17 59.58,49.17 89.77,73.29 -13.56,40.07 -28.81,79.55 -42.79,119.46 83.47,-30.27 169.08,-54.62 256.05,-72.56 319.84,-65.53 656.82,-38.41 963.99,71.02 -14.1,-39.67 -28.65,-79.2 -42.9,-118.84 29.92,-24.27 59.72,-48.74 89.38,-73.36 -201.43,-74.33 -415.61,-113.55 -630.25,-116.54 -232.34,-3.07 -465.23,37.06 -683.25,117.53zm561.88 -553.57c2.76,-25.01 29.61,-38.99 52.46,-40.52 48.79,-0.31 97.61,-0.16 146.43,-0.08 23.35,0.27 49.43,14.82 52.7,39.75 1.88,26.35 0.26,52.86 0.8,79.25 -35.18,0 -70.4,0.03 -105.59,0 -0.04,-10.22 -0.04,-20.44 -0.08,-30.66 -13.48,-0.15 -26.92,-0.11 -40.37,0.12 0.04,9.68 0.08,19.36 0.08,29.08 42.45,43.09 83.7,87.42 125.8,130.9 10.87,11.14 20.93,25 20.09,41.41 -0.08,28.42 0.61,56.84 -0.35,85.27 -2.69,31.38 -34.53,53.66 -64.84,52.28 -44.9,-1.73 -89.88,-1.46 -134.78,-3.19 -22.51,-0.92 -48.13,-14.44 -52.2,-38.41 -1,-26.16 -0.04,-52.36 -0.35,-78.55 35.23,-0.12 70.45,0.07 105.67,-0.08 0.04,9.87 0.04,19.78 0.04,29.73 13.1,0.04 26.23,0.04 39.33,0 0,-9.03 0,-18.09 -0.04,-27.12 -40.67,-42.64 -81.31,-85.31 -122.07,-127.87 -11.21,-11.29 -24.42,-24.47 -23,-41.79 0.27,-33.19 -0.31,-66.37 0.27,-99.52zm13.21 7.03l0 0c0.11,30.8 -0.19,61.65 0.15,92.45 -0.77,10.57 6.42,18.98 13.14,26.16 40.98,42.25 81.2,85.23 122.07,127.56 17.01,13.87 7.6,37.91 9.14,56.77 -21.85,-0.3 -43.71,-0.19 -65.57,-0.3 -0.07,-9.88 -0.11,-19.78 -0.19,-29.66 -26.23,-0.07 -52.47,-0.27 -78.7,0.16 0.57,21.74 -1.35,43.63 1.03,65.33 5.5,17.29 25.51,24.47 42.18,24.74 44.75,1.5 89.53,1.88 134.32,2.19 23.36,1.19 48.63,-17.98 47.21,-42.75 0,-28.12 0.15,-56.23 -0.08,-84.35 0.08,-11.26 -8.03,-19.97 -15.09,-27.73 -40.41,-41.6 -79.9,-84.16 -120.65,-125.45 -2.96,-3.77 -8.11,-6.57 -8.76,-11.64 -1.19,-15.4 -0.11,-30.88 -0.42,-46.29 22.39,0 44.82,-0.04 67.22,0 0,10.26 0,20.51 0.03,30.73 25.86,0 51.74,0 77.63,0 -0.65,-22.97 1.77,-46.17 -1.03,-69.02 -6.11,-16.83 -25.66,-23.43 -42.18,-23.2 -46.13,-0.08 -92.3,-0.27 -138.43,0.07 -19.13,0.23 -44.37,11.83 -43.02,34.23zm-289.89 -35.11c46.06,-2.96 92.15,-5.72 138.28,-8.03 36.49,141.32 71.94,282.9 108.13,424.29 -37.15,2.38 -74.21,5.72 -111.12,10.6 -7.65,-28.73 -11.87,-58.35 -20.32,-86.85 -30.46,-0.61 -60.96,0.04 -91.46,-0.23 -9.26,36.45 -18.51,72.91 -27.96,109.28 -37.84,7.45 -75.36,16.17 -112.7,25.66 34.72,-143.7 70.6,-287.16 105.67,-430.82 3.53,-14.71 6.99,-29.42 11.48,-43.9zm10.68 13.64l0 0c-3.96,9.29 -5.34,19.43 -7.87,29.23 -33.88,137.7 -67.84,275.4 -101.48,413.18 27.57,-6.3 55.08,-13.1 82.89,-18.47 10.14,-36.92 18.82,-74.25 28.88,-111.24 37.8,0.27 75.59,-0.04 113.39,0.15 6.57,28.43 12.98,56.85 18.94,85.35 27.84,-3.3 55.81,-5.68 83.73,-8.14 -33.49,-132.33 -67.6,-264.5 -100.67,-396.94 -39.3,1.46 -78.67,3.34 -117.81,6.88zm627.98 -17.71c10.71,-2.69 21.85,-1.77 32.72,-0.85 56.81,4.5 113.78,7.42 170.51,12.53 21.51,2.8 49.43,14.09 50.05,39.44 0.23,125.45 0.08,250.94 0.11,376.35 -0.76,30.65 -36.75,46.63 -63.64,42.25 -53.32,-11.4 -106.86,-22.12 -160.67,-31.11 -22.36,-3.57 -47.56,-7.26 -63.15,-25.43 -7.26,-7.49 -7.76,-18.24 -7.41,-28 0.3,-113.89 -0.12,-227.81 0.19,-341.7 -0.58,-23.12 20.62,-39.02 41.29,-43.48zm-0.62 14.21l0 0c-15.01,3.73 -28.8,16.25 -27.27,32.84 -0.27,111.43 0,222.82 -0.23,334.25 0.27,8.18 -1,17.9 5.49,24.28 10.07,11.06 25.47,14.29 39.49,17.21 58.08,9.41 115.81,20.89 173.39,33.03 20.62,3.92 50.93,-7.11 49.74,-31.96 0.08,-121.72 -0.12,-243.48 0.08,-365.21 -0.35,-6.22 0.23,-13.4 -4.54,-18.2 -11.94,-14.18 -32.11,-15.14 -49.12,-16.87 -52.63,-3.8 -105.25,-7.22 -157.83,-11.17 -9.76,-0.73 -19.75,-0.93 -29.2,1.8zm-897.73 11.14c36.26,-3.61 72.59,-6.64 108.89,-9.6 -0.04,157.37 0.04,314.73 -0.04,472.14 -34.45,9.64 -68.6,20.28 -102.55,31.61 -0.92,-46.51 0.88,-93.1 -0.96,-139.62 -18.94,52.2 -34.96,105.48 -51.97,158.33 -13.26,5.15 -26.55,10.14 -39.72,15.52 -17.06,-54.89 -32.73,-110.2 -50.59,-164.82 -2.15,61.99 -0.23,124.1 -1,186.14 -34.95,14.98 -69.56,30.96 -103.51,48.16 -0.31,-192.2 -0.04,-384.41 -0.12,-576.62 37.14,-3.07 74.25,-6.8 111.43,-9.49 20.32,68.18 40.87,136.32 62.15,204.19 23.39,-71.75 45.48,-143.92 67.99,-215.94zm10.52 12.56l0 0c-26.5,83.47 -51.93,167.28 -79.05,250.59 -23.12,-79.16 -48.17,-157.71 -71.44,-236.8 -29.54,1.84 -59,4.65 -88.46,7.57 0.46,180.6 0.04,361.25 0.27,541.9 25.39,-11.41 50.35,-23.78 75.9,-34.88 -0.16,-83.39 0.15,-166.74 -0.08,-250.13 0.04,-7.8 0.54,-15.56 1.19,-23.32 23.55,81.13 49.21,161.64 73.29,242.61 6.57,-2.31 13.06,-4.61 19.63,-6.92 26.27,-78.74 50.51,-158.21 77.62,-236.69 0.43,69.64 -0.11,139.28 0.35,208.92 25.2,-8.22 50.74,-15.44 75.94,-23.74 -0.85,-148.88 0.5,-297.8 -0.66,-446.68 -28.15,2.62 -56.34,5.11 -84.5,7.57zm1212.28 -16.75c36.88,3.88 73.91,6.69 110.86,10.14 23.54,72.48 45.63,145.47 70.17,217.6 1.12,-70.44 -0.15,-140.93 0.62,-211.41 33.22,3.26 66.49,5.76 99.71,8.95 -0.07,191.78 0.12,383.57 -0.11,575.39 -34.57,-17.55 -69.87,-33.69 -105.44,-49.09 -24.74,-79.55 -50.55,-158.75 -75.09,-238.3 -1.92,69.18 -0.31,138.43 -0.85,207.69 -33.07,-12.14 -66.18,-24.12 -99.87,-34.46 0,-162.17 0,-324.34 0,-486.51zm13.33 15.29l0 0c0.39,153.8 -0.19,307.59 0.27,461.39 24.43,7.84 48.63,16.4 72.87,24.78 -0.16,-92 0.07,-183.99 -0.08,-275.99 35.15,104.75 66.07,211.03 101.25,315.74 26.27,13.33 53.85,24.12 80.05,37.76 0.77,-180.34 -0.04,-360.68 0.42,-541.02 -24.31,-2.69 -48.7,-4.68 -73.09,-6.37 -0.7,94.37 0.88,188.79 -0.81,283.16 -31.65,-97.1 -62.26,-194.51 -93.57,-291.73 -29.11,-2.73 -58.19,-5.57 -87.31,-7.72zm-287.92 39.45c37.1,3.15 74.24,5.91 111.35,9.1 -0.04,100.33 0.15,200.62 -0.12,300.95 -37.02,-6.53 -73.86,-13.98 -110.85,-20.66 -0.92,-96.45 -0.27,-192.94 -0.38,-289.39zm14.29 278.25l0 0c27.77,5.64 55.77,10.21 83.61,15.55 0,-90.76 0,-181.53 0,-272.29 -27.88,-1.92 -55.69,-4.46 -83.54,-6.69 -0.07,87.81 0.08,175.62 -0.07,263.43zm-631.67 -261.24c14.98,58.23 27.12,117.23 39.79,176.04 -27.61,-0.5 -55.19,0.65 -82.77,-0.69 14.4,-58.42 28.69,-116.88 42.98,-175.35zm-0.5 58.89l0 0c-8.14,34.65 -16.78,69.18 -25.27,103.75 16.4,-0.08 32.76,0.11 49.12,-0.35 -8.41,-34.38 -14.75,-69.22 -23.85,-103.4zm185.56 368.93c30.66,-1.15 61.34,-1.88 92,-2.53 20.16,-1.35 41.48,14.67 39.87,36.1 1.3,14.25 -8.76,25.55 -20.28,32.27 9.48,11.68 18.36,23.81 27.5,35.76 -11.87,0.19 -23.7,0.96 -35.53,1.23 -8.34,-11.06 -16.9,-21.93 -25.28,-32.92 -15.09,-0.04 -30.19,0 -45.24,1.15 0.8,11.1 0.84,22.24 0.61,33.38 -10.14,0.12 -20.28,0.66 -30.42,1.23 -1.35,-35.22 -1.58,-70.44 -3.23,-105.67zm31.54 23.86l0 0c0.3,7.41 0.73,14.82 1.34,22.24 18.59,-0.43 37.18,-0.77 55.77,-1.54 8.95,0.54 10.84,-8.8 13.87,-15.06 -4.11,-2.95 -7.83,-7.83 -13.41,-7.45 -19.2,0.39 -38.4,0.73 -57.57,1.81zm227.54 -18.59c33.23,-8.65 74.33,-2.04 96.3,26.5 16.25,21.66 9.87,56.66 -14.06,70.06 -32.76,19.78 -79.16,15.9 -107.97,-9.33 -17.52,-14.06 -20.97,-40.41 -11.14,-59.89 7.3,-14.17 22.05,-22.81 36.87,-27.34zm11.72 23.39l0 0c-16.13,3.95 -28.2,22.66 -20.44,38.56 9.65,20.67 36.72,24.74 56.93,20.74 18.63,-2.8 32.07,-24.96 21.82,-42.02 -11.72,-19.09 -38.26,-22.31 -58.31,-17.28zm-498.61 -0.54c11.14,-3.42 22.85,-4.34 34.3,-6.07 24.77,31.65 50.16,62.8 75.17,94.26 -10.68,1.77 -21.36,3.54 -32,5.38 -5.22,-6.41 -10.37,-12.87 -15.52,-19.32 -20.85,3.15 -41.56,7.22 -62.41,10.41 -2.77,7.68 -5.53,15.44 -8.15,23.24 -10.56,2.07 -21.2,3.8 -31.88,5.3 13.56,-37.72 25.85,-75.94 40.49,-113.2zm21.24 23.58l0 0c-4.3,11.34 -8.22,22.82 -11.99,34.38 11.26,-1.96 22.59,-3.38 33.77,-5.8 -5.99,-10.45 -14.41,-19.16 -21.78,-28.58zm-166.74 32.92l0 0c1.8,7.19 3.57,14.41 5.38,21.67 20.97,-5.38 42.59,-8.95 62.8,-16.98 1.57,-7.76 1.92,-19.82 -9.6,-18.48 -19.75,3.5 -39.03,9.3 -58.58,13.79z"/>
   <path class="fil2" d="M1260.69 769.79c9.45,-2.73 19.44,-2.53 29.2,-1.8 52.58,3.95 105.2,7.37 157.83,11.17 17.01,1.73 37.18,2.69 49.12,16.87 4.77,4.8 4.19,11.98 4.54,18.2 -0.2,121.73 0,243.49 -0.08,365.21 1.19,24.85 -29.12,35.88 -49.74,31.96 -57.58,-12.14 -115.31,-23.62 -173.39,-33.03 -14.02,-2.92 -29.42,-6.15 -39.49,-17.21 -6.49,-6.38 -5.22,-16.1 -5.49,-24.28 0.23,-111.43 -0.04,-222.82 0.23,-334.25 -1.53,-16.59 12.26,-29.11 27.27,-32.84zm338.4 22.24c29.12,2.15 58.2,4.99 87.31,7.72 31.31,97.22 61.92,194.63 93.57,291.73 1.69,-94.37 0.11,-188.79 0.81,-283.16 24.39,1.69 48.78,3.68 73.09,6.37 -0.46,180.34 0.35,360.68 -0.42,541.02 -26.2,-13.64 -53.78,-24.43 -80.05,-37.76 -35.18,-104.71 -66.1,-210.99 -101.25,-315.74 0.15,92 -0.08,183.99 0.08,275.99 -24.24,-8.38 -48.44,-16.94 -72.87,-24.78 -0.46,-153.8 0.12,-307.59 -0.27,-461.39zm-1225.61 1.46c28.16,-2.46 56.35,-4.95 84.5,-7.57 1.16,148.88 -0.19,297.8 0.66,446.68 -25.2,8.3 -50.74,15.52 -75.94,23.74 -0.46,-69.64 0.08,-139.28 -0.35,-208.92 -27.11,78.48 -51.35,157.95 -77.62,236.69 -6.57,2.31 -13.06,4.61 -19.63,6.92 -24.08,-80.97 -49.74,-161.48 -73.29,-242.61 -0.65,7.76 -1.15,15.52 -1.19,23.32 0.23,83.39 -0.08,166.74 0.08,250.13 -25.55,11.1 -50.51,23.47 -75.9,34.88 -0.23,-180.65 0.19,-361.3 -0.27,-541.9 29.46,-2.92 58.92,-5.73 88.46,-7.57 23.27,79.09 48.32,157.64 71.44,236.8 27.12,-83.31 52.55,-167.12 79.05,-250.59zm539.06 1.27c-1.35,-22.4 23.89,-34 43.02,-34.23 46.13,-0.34 92.3,-0.15 138.43,-0.07 16.52,-0.23 36.07,6.37 42.18,23.2 2.8,22.85 0.38,46.05 1.03,69.02 -25.89,0 -51.77,0 -77.63,0 -0.03,-10.22 -0.03,-20.47 -0.03,-30.73 -22.4,-0.04 -44.83,0 -67.22,0 0.31,15.41 -0.77,30.89 0.42,46.29 0.65,5.07 5.8,7.87 8.76,11.64 40.75,41.29 80.24,83.85 120.65,125.45 7.06,7.76 15.17,16.47 15.09,27.73 0.23,28.12 0.08,56.23 0.08,84.35 1.42,24.77 -23.85,43.94 -47.21,42.75 -44.79,-0.31 -89.57,-0.69 -134.32,-2.19 -16.67,-0.27 -36.68,-7.45 -42.18,-24.74 -2.38,-21.7 -0.46,-43.59 -1.03,-65.33 26.23,-0.43 52.47,-0.23 78.7,-0.16 0.08,9.88 0.12,19.78 0.19,29.66 21.86,0.11 43.72,0 65.57,0.3 -1.54,-18.86 7.87,-42.9 -9.14,-56.77 -40.87,-42.33 -81.09,-85.31 -122.07,-127.56 -6.72,-7.18 -13.91,-15.59 -13.14,-26.16 -0.34,-30.8 -0.04,-61.65 -0.15,-92.45zm-571.44 -64.26c129.29,-108.17 279.82,-192.29 442.49,-237.96 -11.29,5.53 -23.2,9.64 -34.91,14.25 -121.3,48.48 -234.73,116.08 -336.02,198.47 -8.64,6.84 -16.48,14.83 -25.96,20.59 -14.95,3.49 -30.43,3.26 -45.6,4.65zm292.23 42.79c39.14,-3.54 78.51,-5.42 117.81,-6.88 33.07,132.44 67.18,264.61 100.67,396.94 -27.92,2.46 -55.89,4.84 -83.73,8.14 -5.96,-28.5 -12.37,-56.92 -18.94,-85.35 -37.8,-0.19 -75.59,0.12 -113.39,-0.15 -10.06,36.99 -18.74,74.32 -28.88,111.24 -27.81,5.37 -55.32,12.17 -82.89,18.47 33.64,-137.78 67.6,-275.48 101.48,-413.18 2.53,-9.8 3.91,-19.94 7.87,-29.23zm60.46 75.2c-14.29,58.47 -28.58,116.93 -42.98,175.35 27.58,1.34 55.16,0.19 82.77,0.69 -12.67,-58.81 -24.81,-117.81 -39.79,-176.04zm617.38 -17.01c0.11,96.45 -0.54,192.94 0.38,289.39 36.99,6.68 73.83,14.13 110.85,20.66 0.27,-100.33 0.08,-200.62 0.12,-300.95 -37.11,-3.19 -74.25,-5.95 -111.35,-9.1z"/>
   <path class="fil3" d="M337.45 1341.3c218.02,-80.47 450.91,-120.6 683.25,-117.53 214.64,2.99 428.82,42.21 630.25,116.54 -29.66,24.62 -59.46,49.09 -89.38,73.36 14.25,39.64 28.8,79.17 42.9,118.84 -307.17,-109.43 -644.15,-136.55 -963.99,-71.02 -86.97,17.94 -172.58,42.29 -256.05,72.56 13.98,-39.91 29.23,-79.39 42.79,-119.46 -30.19,-24.12 -59.61,-49.12 -89.77,-73.29zm168.09 19.63c19.55,-4.49 38.83,-10.29 58.58,-13.79 11.52,-1.34 11.17,10.72 9.6,18.48 -20.21,8.03 -41.83,11.6 -62.8,16.98 -1.81,-7.26 -3.58,-14.48 -5.38,-21.67zm166.74 -32.92c7.37,9.42 15.79,18.13 21.78,28.58 -11.18,2.42 -22.51,3.84 -33.77,5.8 3.77,-11.56 7.69,-23.04 11.99,-34.38zm477.37 -23.04c20.05,-5.03 46.59,-1.81 58.31,17.28 10.25,17.06 -3.19,39.22 -21.82,42.02 -20.21,4 -47.28,-0.07 -56.93,-20.74 -7.76,-15.9 4.31,-34.61 20.44,-38.56zm-239.26 -4.8c19.17,-1.08 38.37,-1.42 57.57,-1.81 5.58,-0.38 9.3,4.5 13.41,7.45 -3.03,6.26 -4.92,15.6 -13.87,15.06 -18.59,0.77 -37.18,1.11 -55.77,1.54 -0.61,-7.42 -1.04,-14.83 -1.34,-22.24zm651.56 -1038.67c38.72,-51.66 76.74,-103.82 115.62,-155.37 8.22,66.83 15.59,133.78 23.43,200.7 50.51,16.47 101.09,32.76 151.45,49.66 -44.33,25.66 -90.42,48.4 -135.97,71.94 6.33,77.36 14.9,154.57 22.16,231.89 -52.01,-52.93 -102.29,-107.55 -154.1,-160.67 -75.9,36.26 -151.96,72.13 -227.93,108.16 -22.13,10.03 -43.52,21.74 -66.19,30.62 62.23,-88.31 124.88,-176.35 187.26,-264.54 -55.93,-65.18 -112.82,-129.56 -168.09,-195.24 84,27.96 168.43,54.62 252.36,82.85zm7.41 19.74l0 0c-68.52,-21.54 -136.36,-45.32 -205.11,-66.18 77.09,48.59 156.45,93.69 233.96,141.66 -32.46,5.69 -65.18,9.83 -97.72,15.1 -52.5,74.71 -106.28,148.61 -157.79,224.01 86.31,-77.94 170.74,-158.02 256.89,-236.19 23.59,-68.56 44.87,-138.01 66.53,-207.23 -34.07,41.45 -64.34,86.01 -96.76,128.83zm39.22 72.33l0 0c-8.03,2.58 6.03,7.49 7.53,4.61 64.53,-0.38 129.21,3.73 193.7,1.61 -41.44,-12.4 -82.08,-27.61 -123.64,-39.56 -26.66,8.76 -51.85,22.05 -77.59,33.34zm-5.42 11.87l0 0c30.54,63.99 58.97,128.98 88.69,193.36 8.53,17.55 15.22,36.07 25.24,52.85 -6.45,-64.37 -11.56,-129.02 -19.36,-193.2 -28.77,-20.9 -61.26,-36.65 -89.11,-58.85 -1.84,1.92 -3.69,3.84 -5.46,5.84zm-561.68 908.65l0 0c-0.84,35.18 -1.92,70.4 -3.3,105.59 10.26,0.11 20.51,0.54 30.77,1.38 1.88,-35.18 2.42,-70.45 3.46,-105.63 -10.34,-0.54 -20.63,-1.15 -30.93,-1.34zm-162.63 2.22l0 0c1.65,35.23 1.88,70.45 3.23,105.67 10.14,-0.57 20.28,-1.11 30.42,-1.23 0.23,-11.14 0.19,-22.28 -0.61,-33.38 15.05,-1.15 30.15,-1.19 45.24,-1.15 8.38,10.99 16.94,21.86 25.28,32.92 11.83,-0.27 23.66,-1.04 35.53,-1.23 -9.14,-11.95 -18.02,-24.08 -27.5,-35.76 11.52,-6.72 21.58,-18.02 20.28,-32.27 1.61,-21.43 -19.71,-37.45 -39.87,-36.1 -30.66,0.65 -61.34,1.38 -92,2.53zm-150.49 14.45l0 0c0.92,8.1 1.84,16.17 2.65,24.31 16.59,-1.42 33.15,-3.42 49.74,-4.76 2.15,26.69 5.49,53.31 7.88,80.01 10.37,-0.77 20.74,-1.65 31.11,-2.81 -3,-26.69 -5.53,-53.43 -8.38,-80.16 16.41,-2.46 32.92,-3.73 49.44,-5.42 -0.88,-8.18 -1.65,-16.32 -2.34,-24.46 -43.41,4.18 -86.74,8.75 -130.1,13.29zm409.57 -9.18l0 0c-14.82,4.53 -29.57,13.17 -36.87,27.34 -9.83,19.48 -6.38,45.83 11.14,59.89 28.81,25.23 75.21,29.11 107.97,9.33 23.93,-13.4 30.31,-48.4 14.06,-70.06 -21.97,-28.54 -63.07,-35.15 -96.3,-26.5zm117.77 8.02l0 0c-1.46,8.15 -2.84,16.33 -4.3,24.47 16.25,2.77 32.53,5.61 48.9,7.91 -3.81,26.82 -8.8,53.43 -12.99,80.21 10.14,1.69 20.36,3.38 30.58,5.03 4.57,-26.54 8.87,-53.16 13.33,-79.74 16.4,2.61 32.72,5.45 49.12,8.02 1.35,-8.06 2.69,-16.13 4.15,-24.16 -42.94,-7.37 -85.88,-14.51 -128.79,-21.74zm-604.66 14.83l0 0c-14.64,37.26 -26.93,75.48 -40.49,113.2 10.68,-1.5 21.32,-3.23 31.88,-5.3 2.62,-7.8 5.38,-15.56 8.15,-23.24 20.85,-3.19 41.56,-7.26 62.41,-10.41 5.15,6.45 10.3,12.91 15.52,19.32 10.64,-1.84 21.32,-3.61 32,-5.38 -25.01,-31.46 -50.4,-62.61 -75.17,-94.26 -11.45,1.73 -23.16,2.65 -34.3,6.07zm-181.57 39.72l0 0c8.07,34.3 17.02,68.33 24.97,102.63 10.18,-2.34 20.39,-4.65 30.57,-7.07 -2.8,-10.94 -5.53,-21.93 -8.26,-32.91 16.91,-4.19 33.77,-8.53 50.74,-12.41 11.22,-2.65 23.01,-6.38 30.73,-15.44 11.07,-11.6 10.03,-30.54 1.46,-43.21 -8.79,-12.6 -25.89,-16.71 -40.29,-13.29 -30.15,6.49 -59.81,15.01 -89.92,21.7zm924.78 -10.45l0 0c-9.41,10.64 -7.95,28.5 3.3,37.3 21.97,19.63 54.05,19.16 77.9,35.64 -3.5,3.19 -6.8,8.07 -12.29,6.99 -27.47,-1.34 -54.28,-12.75 -74.21,-31.69 -6.72,5.07 -13.45,10.22 -20.09,15.44 27.92,28.47 68.83,45.37 108.78,40.99 19.43,-1.38 37.68,-24.01 25.5,-42.21 -20.78,-25.24 -56.96,-24.86 -83.5,-40.8 0.34,-5.49 3.26,-8.45 8.79,-8.87 25.16,-0.35 48.86,10.91 68.99,25.2 6.42,-5.26 12.79,-10.56 19.21,-15.87 -21.71,-20.66 -51.09,-31.65 -80.55,-34.41 -14.6,-0.96 -31.88,-0.04 -41.83,12.29z"/>
   <path class="fil4" d="M794.31 710.64c93.42,-6.23 187.1,-3.15 280.67,-3.84 278.13,3.61 554.69,35.76 831.63,58.42 -0.27,225.66 -0.04,451.29 -0.11,676.91 -143.97,-78.35 -298.15,-137.97 -457.4,-176.8 -267.69,-65.3 -549.51,-71.83 -819.92,-18.98 -191.13,37.03 -376.31,104.14 -547.12,197.43 -0.27,-225.93 0.19,-451.9 -0.23,-677.87 215.98,-18.51 431.66,-41.67 648.22,-52.62 21.35,-2.11 42.83,-2.5 64.26,-2.65zm-101.02 196.74c9.1,34.18 15.44,69.02 23.85,103.4 -16.36,0.46 -32.72,0.27 -49.12,0.35 8.49,-34.57 17.13,-69.1 25.27,-103.75zm632.17 202.35c0.15,-87.81 0,-175.62 0.07,-263.43 27.85,2.23 55.66,4.77 83.54,6.69 0,90.76 0,181.53 0,272.29 -27.84,-5.34 -55.84,-9.91 -83.61,-15.55zm-472.84 -674.84c190.4,-47.4 390.29,-55.7 584,-24.36 -30.81,43.75 -61.88,87.27 -92.73,130.95 -68.41,-12.64 -137.78,-20.09 -207.3,-22.7 -29.39,-0.46 -58.81,-2.73 -88.15,0.15 28.07,29.96 56.69,59.46 84.12,90.04 -199.82,-7.61 -401.05,28.07 -586.57,102.51 -7.76,3.23 -16.25,3.27 -24.47,4.04 -39.91,2.88 -79.74,6.64 -119.65,9.75 157.21,-106.28 336.28,-179.53 522.38,-216.14 -21.47,-26.96 -48.47,-48.78 -71.63,-74.24zm-319.66 -33.69c243.68,-179.99 546.43,-277.36 849.15,-276.4 84.01,-0.62 167.74,8.29 250.71,20.7 -25.08,33.72 -49.9,67.64 -75.17,101.25 -95.64,-31 -191.02,-62.76 -286.74,-93.45 30.81,36.18 62.23,71.83 93.07,107.97 -235.34,-9.45 -473.03,38.6 -685.17,141.24 21.36,20.32 42.64,40.79 64.22,60.88 -153.26,64.64 -294.61,156.52 -417.02,269.07 -17.67,0.96 -35.26,2.91 -52.93,4.37 91.03,-111.85 199.92,-208.91 320.5,-287.92 -20.4,-15.67 -40.22,-32.04 -60.62,-47.71zm366.37 386.53l0 0c-0.58,33.15 0,66.33 -0.27,99.52 -1.42,17.32 11.79,30.5 23,41.79 40.76,42.56 81.4,85.23 122.07,127.87 0.04,9.03 0.04,18.09 0.04,27.12 -13.1,0.04 -26.23,0.04 -39.33,0 0,-9.95 0,-19.86 -0.04,-29.73 -35.22,0.15 -70.44,-0.04 -105.67,0.08 0.31,26.19 -0.65,52.39 0.35,78.55 4.07,23.97 29.69,37.49 52.2,38.41 44.9,1.73 89.88,1.46 134.78,3.19 30.31,1.38 62.15,-20.9 64.84,-52.28 0.96,-28.43 0.27,-56.85 0.35,-85.27 0.84,-16.41 -9.22,-30.27 -20.09,-41.41 -42.1,-43.48 -83.35,-87.81 -125.8,-130.9 0,-9.72 -0.04,-19.4 -0.08,-29.08 13.45,-0.23 26.89,-0.27 40.37,-0.12 0.04,10.22 0.04,20.44 0.08,30.66 35.19,0.03 70.41,0 105.59,0 -0.54,-26.39 1.08,-52.9 -0.8,-79.25 -3.27,-24.93 -29.35,-39.48 -52.7,-39.75 -48.82,-0.08 -97.64,-0.23 -146.43,0.08 -22.85,1.53 -49.7,15.51 -52.46,40.52zm-276.68 -28.08l0 0c-4.49,14.48 -7.95,29.19 -11.48,43.9 -35.07,143.66 -70.95,287.12 -105.67,430.82 37.34,-9.49 74.86,-18.21 112.7,-25.66 9.45,-36.37 18.7,-72.83 27.96,-109.28 30.5,0.27 61,-0.38 91.46,0.23 8.45,28.5 12.67,58.12 20.32,86.85 36.91,-4.88 73.97,-8.22 111.12,-10.6 -36.19,-141.39 -71.64,-282.97 -108.13,-424.29 -46.13,2.31 -92.22,5.07 -138.28,8.03zm638.66 -4.07l0 0c-20.67,4.46 -41.87,20.36 -41.29,43.48 -0.31,113.89 0.11,227.81 -0.19,341.7 -0.35,9.76 0.15,20.51 7.41,28 15.59,18.17 40.79,21.86 63.15,25.43 53.81,8.99 107.35,19.71 160.67,31.11 26.89,4.38 62.88,-11.6 63.64,-42.25 -0.03,-125.41 0.12,-250.9 -0.11,-376.35 -0.62,-25.35 -28.54,-36.64 -50.05,-39.44 -56.73,-5.11 -113.7,-8.03 -170.51,-12.53 -10.87,-0.92 -22.01,-1.84 -32.72,0.85zm-898.35 25.35l0 0c-22.51,72.02 -44.6,144.19 -67.99,215.94 -21.28,-67.87 -41.83,-136.01 -62.15,-204.19 -37.18,2.69 -74.29,6.42 -111.43,9.49 0.08,192.21 -0.19,384.42 0.12,576.62 33.95,-17.2 68.56,-33.18 103.51,-48.16 0.77,-62.04 -1.15,-124.15 1,-186.14 17.86,54.62 33.53,109.93 50.59,164.82 13.17,-5.38 26.46,-10.37 39.72,-15.52 17.01,-52.85 33.03,-106.13 51.97,-158.33 1.84,46.52 0.04,93.11 0.96,139.62 33.95,-11.33 68.1,-21.97 102.55,-31.61 0.08,-157.41 0,-314.77 0.04,-472.14 -36.3,2.96 -72.63,5.99 -108.89,9.6zm1222.8 -4.19l0 0c0,162.17 0,324.34 0,486.51 33.69,10.34 66.8,22.32 99.87,34.46 0.54,-69.26 -1.07,-138.51 0.85,-207.69 24.54,79.55 50.35,158.75 75.09,238.3 35.57,15.4 70.87,31.54 105.44,49.09 0.23,-191.82 0.04,-383.61 0.11,-575.39 -33.22,-3.19 -66.49,-5.69 -99.71,-8.95 -0.77,70.48 0.5,140.97 -0.62,211.41 -24.54,-72.13 -46.63,-145.12 -70.17,-217.6 -36.95,-3.45 -73.98,-6.26 -110.86,-10.14z"/>
  </g>
 </g>
</svg>
