<?xml version="1.0" encoding="UTF-8"?>
<!DOCTYPE svg PUBLIC "-//W3C//DTD SVG 1.1//EN" "http://www.w3.org/Graphics/SVG/1.1/DTD/svg11.dtd">
<!-- Creator: CorelDRAW -->
<svg xmlns="http://www.w3.org/2000/svg" xml:space="preserve" width="2000px" height="1600px" version="1.1" style="shape-rendering:geometricPrecision; text-rendering:geometricPrecision; image-rendering:optimizeQuality; fill-rule:evenodd; clip-rule:evenodd"
viewBox="0 0 2000 1600"
 xmlns:xlink="http://www.w3.org/1999/xlink">
 <defs>
  <style type="text/css">
   <![CDATA[
    .fil0 {fill:#15468E;fill-rule:nonzero}
    .fil2 {fill:#D11F2E;fill-rule:nonzero}
    .fil1 {fill:#FEFEFE;fill-rule:nonzero}
   ]]>
  </style>
 </defs>
 <g id="Capa_x0020_1">
  <metadata id="CorelCorpID_0Corel-Layer"/>
  <g id="Georgia_x0020_State_x0020_Panthers.cdr">
   <path class="fil0" d="M947.95 1256.18c2.56,-8.64 8.25,-18.12 18.38,-18.25 22.98,-0.73 46.01,-0.06 69,-0.34 7.32,0.06 15.68,-0.59 21.57,4.63 4.39,4.07 6.36,9.98 8.4,15.44 27.19,81.79 54.58,163.5 81.69,245.28 -28.64,-0.15 -57.25,0.11 -85.89,-0.11 -6.26,-18.8 -11.15,-38.08 -16.96,-57.05 -26.86,0 -53.73,-0.13 -80.58,0.07 -5.32,19.03 -10.87,38.01 -16.21,57.04 -27.24,0.03 -54.46,0.02 -81.69,0.02 27.43,-82.25 54.77,-164.52 82.29,-246.73zm25.33 -1256.18l53.78 0c53.94,2.12 108.11,10.24 158.7,29.7 38.26,14.06 73.6,34.73 111.31,50.11 27.41,11.17 56.27,18.66 85.65,22.38 45.08,6.09 90.65,3.71 135.99,4.2 -7.17,28.52 -19.76,55.69 -36.78,79.66 -17.86,25.09 -41.92,46.03 -70.28,58.37 -10.2,21.28 -25.14,40.18 -43.18,55.33 -1.44,47.68 -0.12,96.13 -11.86,142.73 -6.62,27.93 -18.58,54.21 -31.74,79.57 -18.29,33.9 -43.63,63.89 -73.87,87.73 -10.65,8.44 -22.2,15.89 -31.57,25.84 -6.17,6.48 -8.87,15.23 -11.67,23.5 -6.64,21.02 -11,42.72 -18.19,63.58 -9.18,27.74 -22.73,54.78 -43.82,75.41 -24.51,24.78 -57.87,39.04 -91.69,45.65 -39.31,7.49 -80.3,6.86 -119.21,-2.65 -31.95,-7.9 -62.76,-23.49 -84.96,-48.21 -19.57,-21.48 -32.06,-48.39 -40.63,-75.89 -6.15,-19.29 -10.37,-39.16 -16.46,-58.46 -3.01,-9.07 -6.39,-18.57 -13.6,-25.22 -9.97,-9.42 -21.43,-17.02 -32.02,-25.65 -26.59,-21.16 -49.06,-47.42 -66.29,-76.69 -9.1,-15.2 -16.15,-31.48 -23.36,-47.61 -12.08,-28.99 -18.91,-60 -21.78,-91.22 -2.38,-30.68 -3.08,-61.47 -3.27,-92.25 -16.87,-14.23 -31.29,-31.57 -41.25,-51.34 -2.7,-6.69 -10.87,-7.38 -16.23,-11.13 -48.46,-27.3 -79.14,-78.39 -93.1,-131.01 58.21,-0.47 117.36,2.95 174.35,-11.3 36.07,-8.33 69.54,-24.59 102.62,-40.77 32.35,-15.93 65.82,-30.04 100.9,-38.82 37.06,-9.69 75.32,-13.79 113.51,-15.54zm389.2 1238.49c71.97,0.16 143.95,0 215.92,0.09 -0.02,20.59 0.02,41.18 0,61.77 -44.92,0 -89.81,-0.02 -134.71,0.02 -0.02,13.3 -0.02,26.61 0,39.92 17.91,0.03 35.83,0 53.74,0.01 7.77,19.05 15.67,38.03 23.25,57.15 -25.66,0 -51.35,-0.02 -77.01,0 0,14.55 0,29.1 0,43.65 44.92,0.03 89.83,-0.02 134.73,0.03 -0.02,20.6 0.03,41.19 -0.02,61.79 -72.01,-0.01 -144,-0.01 -215.99,0 0.04,-88.15 -0.15,-176.29 0.09,-264.43zm-273.56 0.09c83.7,-0.09 167.38,0.06 251.06,-0.07 0.2,20.77 0.03,41.53 0.09,62.3 -25.25,0.02 -50.49,-0.01 -75.73,0.02 -0.01,67.37 0.08,134.73 -0.05,202.09 -27.06,-0.01 -54.12,-0.07 -81.15,0.04 -0.21,-67.36 -0.08,-134.73 -0.08,-202.09 -24.44,-0.13 -48.85,-0.02 -73.29,-0.06 -7.27,-20.62 -14.05,-41.44 -20.85,-62.23zm-419.66 -0.04c84.9,0.04 169.83,0 254.75,0.02 -6.87,20.81 -14.32,41.44 -21.29,62.22 -24.89,0.11 -49.75,-0.04 -74.63,0.07 0.04,67.35 0.04,134.71 0,202.07 -27.25,-0.01 -54.49,-0.01 -81.73,0 -0.04,-67.36 -0.02,-134.72 0,-202.07 -25.72,-0.07 -51.42,-0.02 -77.14,-0.04 0.02,-20.75 -0.04,-41.51 0.04,-62.27zm-226.08 16.76c9.7,-12.95 26.92,-16.31 42.18,-16.66 34.64,-0.17 69.28,-0.04 103.94,-0.06 12.15,0.41 24.71,0.65 36.16,5.3 11.06,4.57 18.58,15.09 22.13,26.23 5.5,17.58 5.65,36.21 6.13,54.45 -24.93,-0.2 -49.87,0.13 -74.81,-0.16 -0.49,-6.8 -0.35,-13.79 -2.45,-20.31 -1.38,-4.73 -6.99,-5.49 -11.17,-5.56 -11.19,-0.13 -22.4,0.02 -33.58,-0.04 -8.01,0.36 -16.21,-0.93 -24.09,0.93 -5.03,4.42 -3.49,12.19 -3.84,18.19 0,5.32 0.52,13.68 7.32,14.42 33.41,5.17 67.23,7.59 100.74,12.29 11.8,1.76 23.76,6.41 31.44,15.94 10.65,12.88 12.82,30.31 13.81,46.42 1.07,23.19 0.29,47.61 -9.93,68.93 -5.63,12.13 -16.42,22.09 -29.75,24.77 -17.17,3.73 -34.9,2.15 -52.33,2.53 -30.88,-0.28 -61.77,0.65 -92.62,-0.66 -14.82,-0.59 -31.44,-5.55 -38.87,-19.54 -11.15,-21.3 -9.31,-46.2 -10.65,-69.45 24.96,-0.04 49.93,-0.04 74.89,0 0.78,8.14 0.35,16.6 2.97,24.47 1.56,5.17 7.96,4.87 12.32,5.23 17.34,0.03 34.7,0.03 52.04,0 4.83,-0.43 12.28,0.11 13.45,-6.1 2.01,-8.08 2.21,-16.91 -0.19,-24.92 -1.82,-5.44 -8.45,-5.39 -13.1,-6.45 -30.34,-3.79 -60.78,-6.97 -91.15,-10.74 -12.78,-1.69 -25.94,-6.65 -34.11,-17.08 -10.6,-13.21 -12.62,-30.79 -13.61,-47.1 -0.93,-25.7 0.26,-54.12 16.73,-75.27zm1017.68 -329.86c27.09,0 54.21,-0.02 81.32,0.01 -0.02,87.96 -0.02,175.89 0,263.85 -27.11,0.03 -54.21,0.02 -81.32,0.02 0,-87.96 0,-175.93 0,-263.88zm-238.74 12.15c13.75,-11.02 32.34,-12.01 49.23,-12.17 32.24,0.13 64.5,-0.17 96.76,0.15 17.38,0.76 37.56,2.6 49.17,17.33 16.71,20.45 17.42,48.45 18.57,73.59 -26,0 -52,0.02 -78.01,-0.01 -0.75,-9.89 -0.41,-22.44 -10.08,-28.27 -6.59,-2.34 -13.84,-1.65 -20.72,-1.93 -13.58,0.35 -27.3,-0.86 -40.77,1.17 -4.85,0.76 -6.63,5.91 -7.73,10.01 -3.7,14.7 -3.7,29.98 -4.38,45.03 -0.06,23.62 -0.65,47.46 3.34,70.84 1.19,5.09 2.03,11.52 7.04,14.33 4.72,1.56 9.8,1.24 14.72,1.28 13.62,-0.07 27.26,0 40.92,0 4.59,-0.19 10.31,-0.07 13.18,-4.4 6.09,-8.16 6.35,-18.83 6.78,-28.58 -9.01,-0.04 -18.03,-0.02 -27.02,0 -7.53,-18.27 -14.85,-36.61 -22.47,-54.81 42.48,-0.07 84.96,-0.01 127.44,-0.03 -0.16,28.04 1.08,56.32 -3.69,84.08 -3.2,19.02 -10.33,38.47 -25.44,51.26 -12.47,10.11 -29.2,12.34 -44.73,12.86 -33.47,-0.02 -66.92,0.03 -100.39,-0.04 -17.02,-0.41 -35.88,-3.74 -47.4,-17.51 -19.2,-22.24 -22.67,-53.01 -25.09,-81.17 -1.62,-33.89 -2.03,-68.29 4.61,-101.74 3.94,-18.88 10.91,-38.52 26.16,-51.27zm-288.57 -12.14c57.44,-0.05 114.9,0 172.34,-0.01 11.63,0.24 23.54,0.81 34.54,4.96 14.14,5.48 23.96,19.1 27.32,33.6 3.55,15.33 3.47,31.22 3.07,46.86 -0.82,15.35 -3.15,31.87 -13.42,44.01 -7.94,9.29 -20.02,13.04 -31.48,15.78 11.71,2.93 24.47,6.44 32.31,16.31 8.24,10.46 9.72,24.29 10.19,37.15 0.63,21.76 2.06,43.5 4.05,65.19 -27.67,0.03 -55.34,0 -83.01,0.02 -3.16,-20.97 -3.9,-42.19 -4.74,-63.34 -0.65,-8.4 -0.95,-18.76 -9.01,-23.71 -7.08,-3.99 -15.67,-2.95 -23.47,-3.03 -8.05,-19.14 -15.8,-38.43 -23.62,-57.66 14.59,-0.24 29.21,0.43 43.78,-0.31 7.43,0.16 11.45,-7.35 12.06,-13.83 1.28,-11.36 2.1,-23.47 -2.04,-34.34 -2.23,-6.43 -9.69,-7.18 -15.5,-7.25 -17.36,-0.07 -34.7,0 -52.05,-0.02 0,67.83 0,135.66 0,203.49 -27.12,0 -54.21,0.01 -81.32,-0.02 0.02,-87.96 0.02,-175.89 0,-263.85zm-506.86 0.02c72.18,-0.07 144.34,-0.02 216.52,-0.03 0,20.44 0,40.88 0,61.32 -44.92,0 -89.82,0 -134.73,0 0,13.47 -0.02,26.95 0.02,40.42 17.84,-0.04 35.68,0.04 53.52,-0.04 7.88,18.85 15.46,37.82 23.22,56.72 -25.6,0.03 -51.19,-0.06 -76.78,0.03 0.04,14.7 0,29.4 0.02,44.1 44.91,0 89.81,0 134.73,0 0,20.44 0,40.89 0,61.33 -72.18,-0.02 -144.36,0.05 -216.52,-0.04 0.04,-87.94 0.02,-175.87 0,-263.81zm-244.68 19.98c11.56,-15.72 32.13,-19.64 50.47,-19.94 32.21,-0.18 64.43,0 96.63,-0.09 12.64,0.26 25.54,0.74 37.62,4.87 10.77,3.55 19.23,12.13 24.6,21.92 10.44,19.65 11.22,42.54 12.25,64.28 -25.98,0.02 -51.98,-0.01 -77.98,0 -0.56,-6.63 -0.78,-13.41 -3.05,-19.73 -1.89,-5 -6.31,-9.57 -11.94,-9.76 -15.43,-1.28 -30.96,-0.63 -46.44,-0.56 -5.63,0.51 -13.85,-0.42 -16.21,6.23 -5.59,14.59 -5.07,30.59 -6.02,45.97 -0.18,25.02 -0.89,50.25 3.25,75.01 1.34,5.66 2.55,13.99 9.78,14.69 16.59,1.38 33.34,0.14 50.01,0.64 5.59,-0.28 12.93,0.63 16.42,-4.84 5.76,-8.15 5.8,-18.63 6.51,-28.18 -9.07,-0.04 -18.16,0.01 -27.23,-0.1 -7.34,-18.28 -14.92,-36.46 -22.28,-54.74 42.46,-0.02 84.93,0 127.41,0 -0.1,25.27 0.76,50.67 -2.51,75.8 -2.62,19.86 -7.92,40.77 -22.47,55.43 -11.99,13.27 -30.87,16.33 -47.87,16.93 -34.12,0.04 -68.25,0.11 -102.37,-0.04 -17.86,-0.28 -37.52,-4.81 -48.69,-19.99 -19.57,-25.72 -21.48,-59.62 -23.71,-90.63l0 -42.48c2.28,-31.04 4.1,-65.03 23.82,-90.69zm1477.86 -20.37c14.73,-1.99 29.65,-0.67 44.48,-1.04 13.53,0.37 27.23,-0.96 40.68,1.14 9.01,1.3 13.25,10.33 15.87,18.02 27.04,80.82 53.87,161.71 80.91,242.53l0 3.59c-28.36,0 -56.71,0 -85.07,0 -5.58,-18.88 -11,-37.8 -16.58,-56.68 -26.87,0 -53.72,-0.02 -80.59,0.02 -5.41,18.88 -10.8,37.78 -16.21,56.66 -27.2,0 -54.41,0 -81.63,0 27.39,-82.05 54.69,-164.15 82.1,-246.19 2.69,-7.66 6.87,-17.01 16.04,-18.05zm38.2 73.24l0 0c-7.49,25.7 -14.96,51.42 -22.52,77.1 16.2,0.15 32.39,0.04 48.59,0.06 -7.48,-25.69 -14.99,-51.37 -22.5,-77.05 -0.89,-0.04 -2.67,-0.07 -3.57,-0.11zm-979.45 -71.36c13.8,-2.17 27.79,-1.39 41.71,-1.52 24.76,0.01 49.51,-0.06 74.26,0.03 16.34,0.54 34.44,2.62 46.63,14.7 15.83,15.58 21.74,38.08 25.16,59.34 3.99,26.87 4.27,54.13 3.29,81.21 -1.15,21.92 -3.31,44.13 -10.65,64.96 -4.72,13.18 -12.3,25.91 -24.01,33.97 -11.32,7.53 -25.31,9.11 -38.54,9.65 -27.89,0.05 -55.79,0 -83.66,0.02 -16.24,0.03 -33.06,0.76 -48.5,-5.15 -10.65,-3.98 -18.94,-12.53 -24.89,-21.99 -9.85,-16.2 -13.62,-35.19 -16.18,-53.74 -3.46,-29.95 -3.66,-60.26 -1.23,-90.33 2.51,-24.62 6.17,-50.82 21.39,-71.19 8.23,-11.39 21.35,-18.4 35.22,-19.96zm42.12 60.45l0 0c-3.71,0.39 -8.34,0.6 -10.48,4.18 -2.56,4.67 -3.18,10.09 -3.9,15.3 -1.56,13.71 -2.06,27.52 -1.88,41.31 0.15,22.3 -0.87,44.82 2.98,66.89 0.76,5.08 3.12,11.45 9.18,11.81 12.93,1.41 26.01,0.24 39.02,0.63 7.27,-0.24 14.89,0.93 21.85,-1.71 4.78,-2.98 5.17,-9.31 6.25,-14.29 3.31,-24.14 2.36,-48.56 2.47,-72.85 -0.6,-13.56 -0.61,-27.28 -3.51,-40.58 -1.01,-3.89 -2.46,-8.83 -6.97,-9.72 -6.64,-1.62 -13.53,-1.06 -20.27,-1.15 -11.58,0.13 -23.18,-0.26 -34.74,0.18zm241.42 324.57l0 0c-7.85,25.63 -15.08,51.44 -22.66,77.12 16.24,-0.11 32.5,0.1 48.76,-0.09 -7.63,-25.64 -14.86,-51.42 -22.63,-77.01 -0.87,0 -2.6,0 -3.47,-0.02z"/>
   <path class="fil1" d="M825.38 66.92c28.39,-11.99 58.46,-19.83 88.93,-24.29 12.71,19.44 24.59,39.45 34.94,60.25 1.91,3.17 1.52,6.95 1.56,10.5 -1,31.49 -1.58,63.03 -3.25,94.51 -6.88,6.45 -13.92,12.73 -21.13,18.81 -12.21,-11.62 -24.59,-23.2 -34.71,-36.74 -1.62,-2.33 -3.85,-4.78 -3.07,-7.86 2.12,-23.05 5.24,-46.07 11.09,-68.48 -14.6,8.62 -30.68,17.61 -38.72,33.3 -7.55,15.4 -10.06,32.57 -13.94,49.11 -18.49,6.32 -36.11,14.94 -53.28,24.18 -5.87,-1.36 -11.71,-2.79 -17.56,-4.18 1.49,10 4.05,19.86 8.33,29.04 -37.13,50.33 -63.09,108.92 -75.38,170.24 -5.11,0.02 -10.2,0.02 -15.29,-0.03 5.2,29.12 15.31,57.55 31.02,82.69 12.61,20.26 28.65,38.26 46.68,53.85 17.32,15.6 37.31,28.14 53.25,45.25 12.38,13.12 18.49,30.54 23.49,47.52 9.83,34.64 15.67,71.28 34.75,102.47 12.34,20.35 36.26,31.05 59.41,32.44 25.29,2.29 50.35,-7.69 69.37,-24 -3.79,17.02 -10.81,34.39 -24.69,45.69 -13.27,11.13 -32.54,13.23 -48.52,7.25 -26.91,-8.07 -50.68,-25.91 -65.62,-49.73 -21.35,-33.06 -28.13,-72.46 -38.82,-109.66 -4.57,-14.64 -9.31,-30.03 -19.99,-41.51 -12.59,-13.57 -27.56,-24.53 -41.61,-36.44 -26.13,-21.56 -50.47,-46.02 -67.53,-75.51 -25.67,-43.18 -34.2,-94.6 -31.84,-144.26 0.93,-13.92 0.51,-28.5 6.95,-41.29 16.04,-35.57 39.81,-66.97 63.89,-97.43 8.09,-11.26 20.59,-17.9 30.8,-26.97 12.37,-10.68 23.56,-22.82 32.78,-36.36 -24.72,14.31 -52.76,21.39 -80.67,26.33 6.54,-11.17 11.82,-23.02 15.7,-35.36 -44.3,18.21 -91.78,32.78 -140.25,28.91 13.49,8.36 28.62,13.77 44.08,17.12 4.7,21.52 18.16,39.93 33.93,54.82 -5.14,7.41 -10.05,14.99 -14.55,22.84 -19.34,-14.59 -34.65,-35.5 -40.19,-59.3 -30.42,-8.14 -57.4,-28.29 -73.5,-55.4 38.06,-0.22 76.36,-3.05 113.42,-12.21 31.1,-7.51 60.8,-20.01 89.01,-34.97 23.36,-12.14 46.33,-25.13 70.73,-35.14zm97.69 578.12c1.41,-5.58 2.43,-11.65 6.48,-16.04 2.06,6.26 2.06,13.01 4.07,19.31 3.07,11.43 8.96,21.98 16.91,30.73 4.89,-4.62 9.46,-9.62 14.65,-13.91 6.2,5.61 12.28,11.37 17.48,17.93 5.52,-6.38 11.38,-12.53 17.86,-17.93 5.97,6.78 11.89,13.58 17.5,20.66 5.67,-7.08 11.55,-14.01 17.64,-20.74 4.93,4.46 9.81,8.98 14.22,13.98 13.12,-13.14 18.86,-31.62 20.7,-49.68 3.64,1.95 4.4,6.3 5.61,9.89 6.5,24.38 4.83,52.25 -9.96,73.42 -7.45,-5.28 -16.02,-9.68 -25.42,-9.36 -15.3,-0.53 -29.05,9.14 -44.43,7.41 -12.62,-1.39 -24.31,-8.1 -37.24,-7.41 -9.05,-0.04 -17.53,3.97 -24.52,9.47 -13.84,-19.42 -16.11,-44.86 -11.55,-67.73zm161.89 -104.35c18.53,0.71 37.06,1.9 55.55,3.44 -4.97,30.96 -16.62,62.4 -40.07,84.14 -1.8,2.03 -4.27,3 -6.89,3.31 0.15,-30.38 1.93,-61.79 -8.59,-90.89zm-224.59 3.4c18.41,-1.52 36.87,-2.64 55.34,-3.42 -8.61,24.42 -9.11,50.7 -8.51,76.31 0.29,4.96 0.65,9.96 -0.24,14.86 -4.61,-0.83 -7.68,-4.59 -10.84,-7.67 -20.66,-21.63 -31.39,-50.92 -35.75,-80.08zm68.57 -4.2c47.61,-1.82 95.25,-1.95 142.87,0.06 -2.92,14.94 -8.31,29.69 -17.94,41.64 -4.72,-7.73 -9.38,-15.51 -13.93,-23.34 -6.49,7.62 -12.62,15.52 -18.96,23.25 -6.97,-8.71 -13.94,-17.41 -20.55,-26.41 -6.79,8.83 -13.55,17.68 -20.65,26.26 -6.35,-7.65 -12.6,-15.42 -18.8,-23.19 -4.69,7.81 -9.37,15.63 -14.09,23.42 -9.72,-11.94 -15,-26.76 -17.95,-41.69zm177.19 -68.16c44.62,-4.64 89.79,-3.77 134.26,2.14 -4.27,10.68 -9.77,21.02 -17.36,29.73 -37.31,-15.79 -76.95,-25.55 -116.9,-31.87zm23.26 -26.52c37.67,-8.17 76.1,-12.63 114.64,-13.64 2.55,10.41 2.18,21.3 -0.26,31.69 -37.37,-10.11 -75.87,-14.98 -114.38,-18.05zm-75.02 -30.29c3.27,-1.61 8.4,-1.91 10.32,1.9 1.89,5 0.8,10.96 -2.51,15.14 -5.32,7.12 -10.59,14.29 -16.52,20.91 -3.48,4.07 -11.95,3.01 -12.17,-3.07 -0.73,-14.23 8.82,-27.96 20.88,-34.88zm89.69 2.38c24.08,-10.37 49.8,-16.69 75.63,-20.92 6.97,6.97 13.66,14.29 19.07,22.56 -31.43,-3.74 -63.17,-3.89 -94.7,-1.64zm-30.63 -43.5c5.93,-14.61 15.07,-28.66 29.38,-36.2 12.66,7.92 25.11,16.18 36.96,25.27 -22.69,-3.38 -45.58,1.84 -66.34,10.93zm113.88 -111.45c9.16,1.12 17.97,5.86 27,8.4 -0.02,0.3 -0.04,0.92 -0.06,1.23 -29.73,12.92 -56.92,32.35 -77.02,57.94 -10.47,-5.79 -21.62,-10.33 -33.14,-13.58 7.86,-0.58 15.76,-0.65 23.62,-0.09 14.14,-23.25 35.94,-40.98 59.6,-53.9zm-285.31 5.56c5.39,-5.22 13.55,-6.37 20.76,-6.76 16.37,0.18 29.25,12.32 37.67,25.27 6.54,-9.81 14.99,-19.21 26.4,-23.21 10.8,-3.94 23.23,-1.84 32.65,4.52 -14.62,4.05 -28.87,12.61 -36.2,26.33 11.01,-0.54 24.03,-1.99 33.05,5.65 -11.04,3.86 -22.21,9.12 -29.59,18.54 11.58,-1.09 23.36,-0.39 34.7,2.31 4.99,1.35 10.94,2.64 13.52,7.69 8.55,14.05 12.16,30.38 15.93,46.2 -12.01,-0.93 -23.8,2.06 -35.31,5.05 -18.79,5.13 -37.09,11.82 -55.26,18.77 -24.98,-9.51 -50.25,-19.06 -76.71,-23.45 -7.14,-0.85 -16.92,-2.17 -21.3,5.02 -1,3.83 0.95,7.73 2.15,11.3 5.06,11.55 12.03,22.15 19.13,32.53 1.78,2.16 4.03,6.01 7.43,4.48 6.84,-1.87 0.98,-14.32 9.48,-14.29 10.46,1.17 17.82,10.43 22.74,19.01 3.07,6.12 6.06,13.59 2.99,20.28 -3.97,4.68 -12.61,-2.86 -15.16,4.18 0.78,3.75 4.03,6.13 6.41,8.88 6.47,7.18 13.79,13.46 21,19.85 -25.61,-0.99 -50.19,-10 -72.64,-21.89 4.18,12.24 10.55,23.67 18.58,33.84 -5.01,1.26 -10.22,0.94 -15.33,1.24 -42.87,2.03 -85.67,5.36 -128.44,8.9 29.52,-16.67 61.82,-29.19 95.55,-33.78 -20.22,-5.35 -41.16,-7.54 -62.03,-8.33 -18.81,-0.57 -37.58,1.34 -56.36,2.1 29.92,-14.08 63.03,-20.75 95.98,-21.89 -30.37,-12.76 -63.5,-16.59 -95.98,-20.1 26.18,-7.49 53.55,-12.34 80.87,-10.32 -17.8,-9.34 -37.22,-15.16 -56.6,-20.23 27.02,-26.04 68.77,-36.5 104.25,-22.86 -6.19,-13.92 -14.91,-27.5 -28.84,-34.71 10.89,-7.01 23.11,-14.2 36.55,-13.2 8.18,0.43 14.4,6.52 18.69,12.97 15.13,-15.9 38.77,-21.07 59.97,-18.8 -7.43,-9.48 -18.36,-15.19 -29.34,-19.53 10.14,-6.42 22.47,-6.53 34.02,-5.49 -4.92,-15.14 -20.99,-22.63 -35.38,-26.07zm211.35 -20.74c12.04,0.75 23.99,2.6 35.73,5.34 -16.29,10.24 -31.09,23.1 -41.98,39.08 -14.9,-2.46 -30.03,-2.12 -45.08,-2.27 -5.87,0.07 -10.46,-6.8 -6.99,-11.97 6.08,-11.82 14.03,-24.92 27.71,-28.67 5.67,10.46 5.69,22.69 5.02,34.25 3.85,0.61 6.56,-2.53 9.07,-4.85 8.32,-8.5 13.21,-19.65 16.52,-30.91zm-341.22 5.21c11.52,-2.83 23.32,-4.28 35.14,-5.3 4.2,13.57 10.42,28.02 22.87,35.88 0.69,-0.27 2.08,-0.83 2.77,-1.09 -0.71,-11.24 -0.22,-22.84 4.81,-33.15 13.94,3.62 22.04,17.13 28.21,29.1 3.05,5.52 -2.23,12.06 -8.12,11.57 -14.83,-0.13 -29.68,0.02 -44.37,2.09 -10.52,-16.13 -25.74,-28.21 -41.31,-39.1zm274.23 -209.75c35.97,5.09 71.22,15.46 104.1,30.96 36.22,16.89 70.19,38.54 107.89,52.18 47.89,18.03 99.5,23.29 150.36,23.47 -18.1,15.39 -43,18.19 -65.88,18.51 -42.91,-0.58 -85.2,-11.39 -124.79,-27.54 3.5,11.69 8.72,22.76 14.48,33.49 -38.63,-12.19 -76.6,-27.56 -111.13,-48.93 -2.24,15.14 0.26,32.68 12.55,43.11 11.15,8.64 23.36,15.85 35.79,22.48 6.06,13.74 12.39,27.4 17.3,41.59 -35.31,-21.5 -73.4,-39.75 -114.29,-47.38 -10.59,15.92 -24.73,29.01 -38.61,41.98 -7.25,-6.08 -14.31,-12.38 -21.17,-18.88 -1.3,-33.36 -2.34,-66.72 -3.14,-100.07 0.11,-2.49 1.64,-4.59 2.6,-6.81 10.24,-19.97 21.67,-39.35 33.94,-58.16z"/>
   <path class="fil2" d="M423.48 1544.72c384.35,0 768.69,0 1153.04,0 0.04,18.41 0,36.85 0.02,55.28l-1153.08 0c0,-18.43 -0.02,-36.87 0.02,-55.28z"/>
  </g>
 </g>
</svg>
