<?xml version="1.0" encoding="UTF-8"?>
<!DOCTYPE svg PUBLIC "-//W3C//DTD SVG 1.1//EN" "http://www.w3.org/Graphics/SVG/1.1/DTD/svg11.dtd">
<!-- Creator: CorelDRAW -->
<svg xmlns="http://www.w3.org/2000/svg" xml:space="preserve" width="2000px" height="1600px" version="1.1" style="shape-rendering:geometricPrecision; text-rendering:geometricPrecision; image-rendering:optimizeQuality; fill-rule:evenodd; clip-rule:evenodd"
viewBox="0 0 2000 1600"
 xmlns:xlink="http://www.w3.org/1999/xlink">
 <defs>
  <style type="text/css">
   <![CDATA[
    .fil0 {fill:black}
    .fil1 {fill:#D11F2F;fill-rule:nonzero}
    .fil2 {fill:#FEFEFE;fill-rule:nonzero}
   ]]>
  </style>
 </defs>
 <g id="Capa_x0020_1">
  <metadata id="CorelCorpID_0Corel-Layer"/>
  <g id="Hartford_x0020_Hawks.cdr">
   <path class="fil0" d="M626.41 0l422.33 0c16.64,2.88 32.35,13.05 39.41,28.73 6.88,12.94 5.8,28.34 1.87,41.99 -36.39,155.13 -73.19,310.15 -109.57,465.28 71.38,0.07 142.76,0.05 214.14,0 3.34,-0.21 6.72,0.41 9.4,2.63 9.99,6.9 19.5,14.47 29.58,21.26 10.67,-48.21 22.58,-96.12 33.92,-144.16 29.6,-126.56 59.52,-253.06 89.39,-379.55 5.3,-19.45 23.15,-33.57 42.88,-36.18l421.37 0c18.17,2.77 34.91,14.72 41.37,32.25 7.34,16.14 1.65,33.9 -2.47,50.06 -112.98,479.15 -225.85,958.31 -338.9,1437.44 -4.23,15.82 -6.42,32.18 -11.77,47.7 -6.51,17.88 -24.05,29.65 -42.4,32.55l-420.62 0c-14.19,-3.43 -28.16,-10.56 -36.2,-23.2 -8.71,-12.87 -10.45,-29.46 -6.15,-44.23 34.01,-142.88 67.22,-285.94 101.28,-428.82 3.13,-12.85 6.03,-25.74 8.77,-38.67l0.99 -1.81c5.21,-26.4 12.48,-52.34 17.92,-78.7 -85.65,-0.2 -171.27,0.03 -256.92,-0.11 -24.34,97.37 -46.26,195.36 -70.12,292.84 -12.89,55.46 -25.99,110.86 -39.36,166.18 -9.69,39.86 -18.31,79.97 -28.46,119.72 -5.32,20.12 -24.18,34.11 -44.32,36.8l-419.24 0c-19.62,-3.38 -38.2,-17 -43.37,-36.84 -6.49,-17.6 2.56,-35.11 4.94,-52.51l0.92 -1.99c35.17,-151.06 70.46,-302.08 105.82,-453.09 13.83,-57.65 26.11,-115.66 40.97,-173.03 2.17,-6.45 4.04,-13.01 5.78,-19.59 -18.2,-1.58 -36.39,-2.49 -54.63,-3.29 1.19,-0.87 3.54,-2.61 4.73,-3.48 17.08,-0.91 34.26,-0.04 51.29,-2.03 5.53,-21.62 10.43,-43.41 15.57,-65.1 1.28,-5.78 2.76,-11.49 4.32,-17.21 -23.73,-2.44 -47.59,-1.83 -71.32,-4.32 -22.47,-0.82 -45.18,-0.41 -67.42,-3.98 4.77,-1.94 9.82,-3.13 15.01,-2.94 42.26,0.18 84.39,-3.05 126.65,-2.59 6.04,-23.54 11.46,-47.22 16.9,-70.9 1.78,-7.5 3.47,-15.02 4.84,-22.58 -15.91,-1.4 -31.93,-0.12 -47.84,-1.49 -19.52,-2.24 -39.25,-0.78 -58.81,-2.26 -19.22,-2.22 -38.63,-0.19 -57.85,-2.49 -16.73,-1.95 -33.65,-0.14 -50.38,-2.04 -18.19,-2.22 -36.57,-0.41 -54.79,-2.33 -10.56,-1.51 -21.28,-1.05 -31.91,-1.21l0 -4.21c35,-0.25 70.06,0.12 105.01,-2.19 34.31,-0.3 68.64,-0.05 102.9,-2.1 32.94,-0.32 65.9,0.04 98.84,-1.15 10.88,-44.36 21.53,-88.8 31.72,-133.35 37.31,-156.89 73.76,-313.98 111.25,-470.83 4.07,-20.62 22.4,-35.73 42.74,-38.88z"/>
   <path class="fil1" d="M642.32 62.56c128.41,0.14 256.85,-0.05 385.26,0.09 -37.33,157.58 -74.2,315.25 -111.61,472.8 -37.17,16.96 -75.11,32.28 -111.87,50.1 51.61,-2.17 103.29,-0.34 154.95,-1.5 67.89,0.27 135.8,-0.57 203.68,-0.48 9.65,-0.73 16.71,6.69 24.16,11.56 77.26,53.88 154.9,107.18 232.12,161.12 3.2,17.81 7.22,35.48 10.4,53.31 -8.74,4.32 -17.03,9.43 -24.9,15.17 -4.86,-14.05 -9.94,-28.04 -14.74,-42.1 -2.12,-5.69 -4.09,-12.18 -9.94,-15.06 -69.21,-40.9 -138.49,-81.72 -207.68,-122.68 1.9,48.48 13.9,100.85 50.81,135.04 -25.33,-9.09 -50.22,-19.33 -75.41,-28.73 -0.02,15.04 1.56,30.15 5.76,44.64 8.69,31.16 31.41,57.03 59.71,72.16 -33.17,0.16 -66.33,-0.98 -99.52,-0.55 38.21,23.09 76.55,45.95 114.83,68.85 -22.63,1.92 -45.3,-0.44 -67.95,0.71 -147.66,0.25 -295.36,-1.4 -443.04,-0.3 30.31,17 61.62,32.18 92.48,48.23 -30.79,131.75 -61.97,263.4 -92.94,395.11 -11.7,52.34 -25.28,104.25 -36.57,156.68 -128.5,0.26 -257.01,0.09 -385.53,0.09 49.6,-216.16 98.9,-432.41 148.71,-648.5 -19.89,-1.94 -39.8,-3.82 -59.68,-5.78 2.17,-6.45 4.04,-13.01 5.78,-19.59 48.23,2.38 96.41,5.67 144.64,7.91 75.31,3.47 150.65,6.56 225.94,10.72 26.63,1.83 53.3,2.67 79.98,3.5 56.52,-0.94 113.12,-3.11 169.32,-9.58 17.97,-2.45 36.39,-3.2 53.54,-9.65 -56.35,-9.12 -113.24,-14.33 -170.13,-18.51 -27.43,-1.1 -54.86,-2.84 -82.31,-2.38 -35.79,0.44 -71.54,1.99 -107.34,2.29 -29.76,-0.32 -59.42,2.12 -89.16,1.83 -52.89,-0.03 -105.69,2.76 -158.58,2.9 4.7,-19.86 9,-39.84 13.82,-59.71 -20.93,-1 -41.83,-2.58 -62.76,-3.22 1.28,-5.78 2.76,-11.49 4.32,-17.21 63.02,3.84 126.17,4.91 189.21,8.39 69.44,1.67 138.79,5.83 208.2,8.89 99.39,2.38 198.68,-5.19 297.61,-14.15 -66.59,-11.77 -133.97,-18.53 -201.44,-22.19 -72.55,-4.89 -145.31,-2.04 -217.9,-0.12 -69.12,0.64 -138.2,2.31 -207.32,3.25 4.51,-22.04 9.95,-43.89 13.99,-66.01 -20.89,-0.21 -41.73,-1.24 -62.53,-2.79 1.78,-7.5 3.47,-15.02 4.84,-22.58 18.31,2.17 36.76,1.23 55.11,2.21 32.73,2.24 65.55,1.49 98.29,3.41 34.05,0.75 68.06,2.58 102.12,3.82 85.03,4.77 170.29,4.68 255.34,0.23 57.69,-3.23 115.47,-5.56 172.94,-11.66 -21.28,-3.96 -42.91,-5.79 -64.35,-8.83 -78.95,-8.38 -158.24,-13.73 -237.6,-15.38 -48.77,-2.28 -97.55,0.87 -146.33,0.99 -54.06,1.62 -108.14,1.71 -162.22,2.53 1.42,-7.47 2.88,-14.95 4.62,-22.33 24.44,-105.9 48.48,-211.88 73.01,-317.76 17.76,-79.93 37.44,-159.41 55.86,-239.2zm767.38 835.54c2.91,-20.75 12.92,-43.22 33.28,-51.95 12.78,25.01 25.6,49.99 38.4,74.99 -20.34,35.16 -40.45,70.45 -60.68,105.67 -13.6,-29.92 -29.08,-61.53 -57.4,-80.16 -15.29,-10.53 -34.53,-10.31 -52.29,-9.89 -8.55,0.77 -15.3,-5.19 -22.27,-9.08 -10.53,-6.79 -22.12,-12.04 -31.56,-20.41 47.04,1.07 94.15,0.91 141.19,1.92 13.32,7.45 23.56,19.47 36.41,27.82 -7.89,-13.26 -16.48,-26.08 -25.08,-38.91zm5.28 -835.49c128.39,0.02 256.76,-0.07 385.15,0.04 -115.59,491.43 -231.66,982.75 -347.41,1474.13 -128.39,0.16 -256.78,0.04 -385.17,0.04 23.57,-100.36 47.27,-200.7 70.95,-301.05 19.8,-83.13 38.77,-166.56 59.16,-249.51 7.79,-2.51 16.36,-1.05 24.48,-1.44 34.24,1.38 68.48,0.26 102.72,-0.16 5.73,0 12,0.58 16.43,4.71 15.7,13.33 24.44,32.64 32.96,50.93 15.41,33.74 22.1,70.4 31.43,106.06 4.53,-5.08 8,-10.95 11.15,-16.94 38.7,-67.84 77.81,-135.48 116.44,-203.36 2.67,-3.52 0.07,-7.52 -1.49,-10.86 -16.82,-32.62 -33.39,-65.35 -50.14,-97.99 -2.43,-4.64 -4.71,-9.46 -5.49,-14.7 -3.54,-20.77 -8.25,-41.32 -11.82,-62.08 -1.51,-5.59 -1.3,-12.79 -6.86,-16.18 -56.34,-41.21 -112.43,-82.79 -168.86,-123.86 41.5,-179.38 84.43,-358.47 126.37,-537.78z"/>
   <path class="fil2" d="M1300.47 802.26c15.77,12.39 31.54,24.8 47.08,37.47 -15.29,2.79 -33.46,6.42 -47.13,-3.09 -10.37,-9.21 -4.71,-23.82 0.05,-34.38z"/>
  </g>
 </g>
</svg>
