<?xml version="1.0" encoding="UTF-8"?>
<!DOCTYPE svg PUBLIC "-//W3C//DTD SVG 1.1//EN" "http://www.w3.org/Graphics/SVG/1.1/DTD/svg11.dtd">
<!-- Creator: CorelDRAW -->
<svg xmlns="http://www.w3.org/2000/svg" xml:space="preserve" width="2000px" height="1600px" version="1.1" style="shape-rendering:geometricPrecision; text-rendering:geometricPrecision; image-rendering:optimizeQuality; fill-rule:evenodd; clip-rule:evenodd"
viewBox="0 0 2000 1600"
 xmlns:xlink="http://www.w3.org/1999/xlink">
 <defs>
  <style type="text/css">
   <![CDATA[
    .fil1 {fill:black}
    .fil0 {fill:#C2C5CA}
    .fil2 {fill:#FEFEFE}
    .fil3 {fill:#017543;fill-rule:nonzero}
   ]]>
  </style>
 </defs>
 <g id="Capa_x0020_1">
  <metadata id="CorelCorpID_0Corel-Layer"/>
  <g id="Hawaii_x0020_Warriors.cdr">
   <path class="fil0" d="M322.81 1148.45c-0.09,-214.38 -0.16,-428.75 0.04,-643.13 -31.29,-32.49 -62.99,-64.58 -93.48,-97.85l-152.2 -166.1 221.35 -41.95c137.84,-26.11 275.58,-52.7 413.4,-78.85l211.2 -40.07 0 433.76c49.77,-2.85 99.67,-3.19 149.42,-0.64l0 -438.75 210.22 39.39c137.71,25.67 275.17,52.64 412.82,78.63l223.38 42.18 -154.75 166.52c-30.52,32.85 -61.6,65.17 -92.85,97.32 -0.09,214.26 0.1,428.53 -0.06,642.79 32.02,36.65 64.08,73.26 96.17,109.85l232.53 265.16 -347.76 -58.72c-138.16,-23.33 -276.07,-48.17 -414.12,-72.15l-104.15 -18.08 0.15 -105.72c0.13,-92.6 0.02,-185.2 0.05,-277.81 -56.37,-6.26 -113.43,-7.26 -169.99,-5.3 -34.56,1.2 -69.06,3.84 -103.44,7.55 -0.12,94.39 0.41,188.79 -0.14,283.17l-0.61 105.14 -103.63 17.8c-137.84,23.66 -275.56,48.05 -413.3,72.25l-343.06 60.29 225.81 -265.21c31.93,-37.5 64.45,-74.51 97,-111.47z"/>
   <path class="fil1" d="M798.15 931.01c-0.51,112.76 0.37,225.52 -0.29,338.28l-0.3 52.57 -51.81 8.89c-137.92,23.68 -275.72,48.08 -413.55,72.3l-171.52 30.14 112.9 -132.59c36.83,-43.26 74.44,-85.84 111.98,-128.48 -0.1,-230.65 -0.19,-461.31 0.06,-691.97 -36.57,-38.44 -74.13,-75.94 -109.99,-115.07l-76.09 -83.04 110.66 -20.97c137.84,-26.12 275.59,-52.71 413.42,-78.86l140.49 -26.74 0 426.39c44.25,-4.46 88.7,-6.96 133.13,-7.2 44.42,0.24 88.87,2.74 133.12,7.2l0 -426.39 140.49 26.74c137.83,26.15 275.58,52.74 413.42,78.86l110.66 20.97 -76.09 83.04c-35.86,39.13 -73.42,76.63 -109.99,115.07 0.25,230.66 0.16,461.32 0.06,691.97 37.54,42.64 75.15,85.22 111.98,128.48l112.9 132.59 -171.52 -30.14c-137.82,-24.22 -275.63,-48.62 -413.55,-72.3l-51.81 -8.89 -0.3 -52.57c-0.66,-112.76 0.22,-225.52 -0.29,-338.28 -54.35,-7.52 -109.02,-12.88 -163.86,-14.78 -11.72,-0.41 -23.47,-0.69 -35.22,-0.83 -11.76,0.14 -23.51,0.42 -35.23,0.83 -54.84,1.9 -109.51,7.26 -163.86,14.78z"/>
   <path class="fil2" d="M769.01 910.29c-0.81,121.75 0.27,243.51 -0.44,365.26l-0.15 26.28 -25.91 4.45c-137.96,23.69 -275.8,48.09 -413.67,72.32l-85.76 15.07 56.45 -66.29c39.28,-46.14 79.45,-91.5 119.48,-136.98 -0.11,-238.76 -0.2,-477.52 0.06,-716.28 -39.14,-41.52 -79.68,-81.7 -118.24,-123.78l-38.05 -41.53 55.34 -10.48c137.84,-26.12 275.59,-52.71 413.42,-78.86l37.21 -7.06 0 37.88c0,127.58 0.06,255.17 -0.01,382.75 152.42,-25.51 309.68,-29.63 461.47,0.75 0.54,-129.95 -0.22,-259.9 0.27,-389.85l0.14 -37.61 36.97 6.89c137.64,25.65 275.03,52.61 412.6,78.59l55.84 10.54 -38.68 41.63c-38.69,41.64 -78.29,82.42 -118.01,123.07 -0.12,237.02 0.12,474.03 -0.1,711.05 0.04,1.75 -0.04,3.49 -0.1,5.2 39.82,45.63 79.71,91.2 119.65,136.74l58.13 66.28 -86.94 -14.67c-138.02,-23.31 -275.77,-48.13 -413.68,-72.08l-26.04 -4.52 0.04 -26.43c0.17,-119.45 -0.07,-238.89 0.13,-358.34 -87.72,-18.07 -178.11,-22.05 -267.44,-18.95 -64.97,2.25 -129.7,9.25 -193.98,18.96z"/>
   <path class="fil3" d="M1262.54 248.17c137.62,25.65 274.98,52.6 412.52,78.58 -41.4,44.55 -83.86,88.13 -126.38,131.64 -0.15,241.4 0.11,482.8 -0.11,724.23 0.4,7.36 -2.07,16.12 4.34,21.66 40.94,46.92 81.94,93.75 122.99,140.56 -137.95,-23.3 -275.67,-48.11 -413.54,-72.05 0.18,-127.84 -0.11,-255.71 0.18,-383.55 -97.99,-23.29 -199.56,-28.62 -299.94,-25.14 -75.13,2.61 -149.9,11.41 -224.05,23.44 -1.2,130.62 0.11,261.32 -0.65,391.95 -137.98,23.69 -275.89,48.1 -413.79,72.34 41.73,-49.01 84.47,-97.16 126.96,-145.48 -0.11,-246.83 -0.22,-493.67 0.07,-740.5 -41.66,-44.67 -85.23,-87.56 -126.49,-132.58 137.83,-26.12 275.59,-52.71 413.43,-78.87 0,140.08 0.07,280.16 -0.04,420.25 172.4,-32.9 352.5,-39.09 524.03,2.24 0.9,-142.9 -0.08,-285.81 0.47,-428.72zm-753.47 887.36l105.15 -105.15 -105.15 -105.15 0 210.3zm0 -420.59l0 210.29 105.15 -105.14 -105.15 -105.15zm0 0l105.15 -105.15 -105.15 -105.15 0 210.3zm988.82 0l0 -210.3 -105.15 105.15 105.15 105.15zm0 0l-105.15 105.15c35.05,35.05 70.1,70.1 105.15,105.14l0 -210.29zm0 420.59l0 -210.3 -105.15 105.15 105.15 105.15z"/>
  </g>
 </g>
</svg>
