<?xml version="1.0" encoding="UTF-8"?>
<!DOCTYPE svg PUBLIC "-//W3C//DTD SVG 1.1//EN" "http://www.w3.org/Graphics/SVG/1.1/DTD/svg11.dtd">
<!-- Creator: CorelDRAW -->
<svg xmlns="http://www.w3.org/2000/svg" xml:space="preserve" width="2000px" height="1600px" version="1.1" style="shape-rendering:geometricPrecision; text-rendering:geometricPrecision; image-rendering:optimizeQuality; fill-rule:evenodd; clip-rule:evenodd"
viewBox="0 0 2000 1600"
 xmlns:xlink="http://www.w3.org/1999/xlink">
 <defs>
  <style type="text/css">
   <![CDATA[
    .fil0 {fill:#332A85;fill-rule:nonzero}
    .fil1 {fill:#FEFEFE;fill-rule:nonzero}
   ]]>
  </style>
 </defs>
 <g id="Capa_x0020_1">
  <metadata id="CorelCorpID_0Corel-Layer"/>
  <g id="High_x0020_Point_x0020_Panthers.cdr">
   <path class="fil0" d="M174.75 284.73c291.62,-26.25 583.3,-51.99 874.93,-77.98 -13.95,73.26 -28.72,146.36 -42.65,219.61 53.91,-4.65 107.79,-9.59 161.71,-14.31 39.61,-3.32 79.75,-3.08 118.96,3.99 32.86,5.92 65.31,17.17 92.68,36.66 28.23,19.78 49.89,48.6 61.54,81.01 9.78,25.89 11.92,53.71 12.84,81.12 0.75,0.2 2.26,0.63 3.01,0.84 180.75,-12.74 361.48,-25.84 542.23,-38.61 -14.42,84.6 -28.94,169.19 -43.67,253.75 -8.07,0.34 -16.13,0.98 -24.15,1.69 -12.94,75.89 -26.04,151.77 -39.04,227.64 -4.21,23.53 -7.47,47.28 -13.58,70.44 -13.04,51.22 -36.18,100.42 -70.89,140.56 -28.25,33.16 -63.83,59.79 -102.97,78.73 -57.75,28.27 -122.2,40.05 -186.05,42.82 -57.66,2.78 -117.44,-4.4 -169.24,-31.32 -29.73,-15.46 -55.85,-37.86 -75.26,-65.22 -20.16,-27.93 -32.75,-60.86 -38.35,-94.73 -6.12,-36.74 -4.68,-74.42 1.15,-111.1 9.76,-58 20.08,-115.91 29.63,-173.93 -27.05,10.89 -53.97,22.46 -82.52,28.91 -28.53,7.19 -57.91,9.67 -87.13,12.16 -15.27,76.88 -30.06,153.84 -45.19,230.75 -96.58,8.91 -193.19,17.27 -289.8,25.98 -92.89,8.15 -185.74,16.81 -278.64,24.68 51.43,-46.48 103.92,-91.8 155.72,-137.87 38.52,-34.19 77.49,-67.89 115.69,-102.46 -251.94,21.92 -503.79,45.13 -755.71,67.11 79.84,-71.1 160.27,-141.56 240.42,-212.36 4.04,-4.08 10.39,-7.1 11.07,-13.45 24.13,-124.24 48.5,-248.45 72.71,-372.7 1.08,-6.18 2.98,-12.29 3.03,-18.6 -45.45,-49.18 -91.46,-97.89 -137.11,-146.9 -5.17,-5.6 -10.59,-10.96 -15.37,-16.91z"/>
   <path class="fil1" d="M1025.12 618.38c48.09,-4.49 96.2,-8.65 144.3,-12.92 18.11,-0.75 38.33,-1.28 53.59,10.13 13.38,10.21 15.87,28.7 14.28,44.4 -2.75,27.71 -11.2,57.24 -33.2,75.9 -20.57,17.25 -48.03,22.5 -74.02,25.18 -45.02,3.95 -90.02,8.26 -135.07,11.85 9.98,-51.53 20.14,-103.02 30.12,-154.54zm-312.71 -325.58c89.44,-8.11 178.89,-16 268.35,-23.9 -8.75,46.03 -17.85,92.02 -26.9,137.99 -7.48,0.6 -14.95,1.28 -22.43,1.97 -5.56,27.15 -10.82,54.37 -15.94,81.61 90.92,-7.72 181.74,-16.53 272.7,-23.87 44.87,-2.38 91.46,-0.71 133.5,16.73 29.39,11.95 54.65,35.11 66.15,65.01 16.02,40.86 11.31,86.19 2.36,128.12 73.53,-5.21 147.03,-10.7 220.58,-15.6 -7.65,46.77 -16.06,93.42 -23.91,140.18 -7.57,0.7 -15.17,1.09 -22.72,1.93 -17.09,101.6 -34.89,203.07 -52.12,304.64 -0.77,7.25 -2.9,16.04 2.62,22.01 3.3,4.63 9.44,3.34 14.33,3.34 16.7,-1.41 33.86,-1.65 49.84,-7.25 10.37,-3.6 19.05,-11.28 24.07,-21.02 7.94,-15.34 10.94,-32.58 13.99,-49.42 14.8,-86.46 29.79,-172.9 44.48,-259.38 -7.46,0.53 -14.88,1.11 -22.31,1.37 7.79,-46.8 16.01,-93.52 24,-140.28 79.2,-5.66 158.39,-11.32 237.6,-16.96 10.79,-0.65 21.57,-1.95 32.41,-1.89 -8.09,46.63 -16.01,93.32 -24.11,139.96 -8.07,0.74 -16.17,1.19 -24.22,1.9 -17.76,102.83 -35.32,205.7 -53.02,308.55 -8.97,51.33 -28.1,101.86 -61.28,142.55 -33.66,41.87 -81.49,70.72 -132.51,86.4 -38.87,12.18 -79.54,17.65 -120.16,19.32 -36.59,1.57 -73.83,-0.49 -109.01,-11.3 -32.3,-9.91 -62.5,-28.42 -83.47,-55.23 -22.42,-27.86 -33.49,-63.39 -35.97,-98.73 -1.44,-23.85 -0.33,-47.86 3.53,-71.45 15.94,-93.82 32.16,-187.59 48.22,-281.39 -11.02,1.01 -22.01,2.08 -32.97,3.32 -5.14,0.24 -8.47,4.62 -12.24,7.51 -48.97,41.16 -111.56,64.54 -175.03,69.84 -29.34,2.7 -58.7,5.11 -88.03,7.89 -6.24,31 -12.13,62.08 -18.23,93.15 6.1,-0.51 12.21,-1.17 18.32,-1.75 -8.75,46.03 -17.91,92.01 -26.88,138 -119.25,10.23 -238.42,21.41 -357.66,31.62 44.36,-40.24 89.85,-79.28 134.49,-119.2 1.97,-1.9 3.92,-4.05 4.24,-6.88 6.82,-35.07 13.69,-70.12 20.49,-105.19 -75.07,6.97 -150.08,14.67 -225.15,21.56 8.86,-45.95 17.91,-91.87 26.87,-137.79 7.53,-0.81 15.06,-1.5 22.61,-2.14 6.63,-33.4 13.02,-66.84 19.63,-100.24 -34.02,2.81 -68.02,5.97 -102.02,9.01 -6.5,33.4 -13.14,66.79 -19.51,100.21 7.48,-0.56 14.95,-1.26 22.43,-1.86 -8.66,45.98 -17.99,91.82 -26.72,137.79 -115.79,10.76 -231.68,20.67 -347.54,30.88 -4.74,0.43 -9.49,0.79 -14.25,0.94 44.77,-40.66 90.69,-80.09 135.8,-120.37 2.02,-1.52 2.36,-4.05 2.87,-6.33 28.42,-145.59 56.82,-291.17 85.31,-436.74 -31.25,-34.13 -63.51,-67.35 -94.47,-101.73 120.65,-11.16 241.39,-21.67 362.09,-32.33 -8.71,46.03 -17.89,91.98 -26.86,137.98 -7.55,0.58 -15.08,1.31 -22.63,1.93 -5.43,28.72 -11.36,57.36 -16.68,86.12 33.97,-2.79 67.9,-5.94 101.84,-8.98 5.72,-28.68 11.34,-57.38 16.79,-86.12 -7.49,0.6 -14.97,1.35 -22.48,1.73 8.93,-45.92 17.87,-91.84 26.92,-137.74zm52.91 57.52l0 0c-0.83,3.5 -1.58,7.02 -2.38,10.52 5.07,0.79 10.99,1.09 14.53,5.42 4.63,5.32 4.54,12.96 3.04,19.44 -12.38,62.33 -24.17,124.78 -36.74,187.05 -77.35,6.57 -154.63,13.86 -231.99,20.42 12.07,-62.52 24.4,-125 36.57,-187.5 2.21,-14.08 13.64,-25.87 27.81,-28.06 0.63,-3.46 1.25,-6.93 1.83,-10.4 -46.05,3.6 -92.04,8.27 -138.07,12.03 7.59,10.23 18.04,21.49 15.36,35.3 -30.35,154.95 -60.47,309.96 -90.86,464.91 -4.57,16.33 -18.57,27.63 -30.37,38.91 46.31,-3.95 92.61,-8.24 138.94,-12.25 0.54,-3.53 1.1,-7.03 1.61,-10.53 -4.72,-0.83 -10.18,-1.07 -13.57,-4.95 -4.96,-4.91 -5.11,-12.57 -3.69,-18.98 13.25,-67.31 26.16,-134.68 39.57,-201.95 77.33,-6.86 154.67,-13.79 232,-20.59 -12.9,67.37 -26.22,134.64 -39.36,201.97 -2.21,13.83 -13.47,25.6 -27.46,27.58 -0.79,3.58 -1.52,7.19 -2.29,10.79 46.13,-4.1 92.25,-8.2 138.38,-12.29 0.65,-3.52 1.34,-7.04 2.09,-10.53 -4.53,-0.82 -9.7,-0.84 -13.26,-4.17 -5.23,-4.45 -5.88,-12.07 -4.66,-18.38 30.44,-156.06 60.92,-312.12 91.4,-468.17 2.4,-13.81 13.88,-24.94 27.63,-27.32 0.64,-3.5 1.28,-6.99 1.9,-10.49 -46,4.05 -91.97,8.24 -137.96,12.22zm375.99 182.49l0 0c-72.29,6.44 -144.59,12.83 -216.87,19.35 -0.67,3.39 -1.31,6.8 -1.96,10.19 4.68,1.01 10.13,1.2 13.6,5 5.25,4.82 5.34,12.69 3.93,19.19 -30.33,155.08 -60.55,310.2 -90.88,465.28 -4.19,16.39 -18.45,27.22 -29.48,39.08 45.95,-3.5 91.81,-8.17 137.75,-11.99 0.67,-3.45 1.37,-6.89 2.04,-10.34 -5.15,-1.03 -11.22,-1.5 -14.69,-5.98 -4.38,-5.47 -3.89,-12.89 -2.58,-19.31 12.72,-64.56 25.12,-129.17 37.93,-193.69 47.53,-4.28 95.06,-8.47 142.59,-12.73 32,-2.11 64.09,-8.26 93.39,-21.65 28.7,-12.82 54.31,-32.6 73.48,-57.55 23.77,-30.73 36.53,-68.8 40.99,-107.11 3.05,-26.64 2.34,-55.85 -12.89,-78.96 -13.41,-20.69 -37.02,-31.87 -60.44,-36.97 -38.1,-8.2 -77.43,-5.47 -115.91,-1.81zm576.03 184.17l0 0c-0.56,3.39 -1.09,6.77 -1.56,10.16 4.82,1.23 10.29,1.83 13.9,5.67 4.78,5.01 5.16,12.56 3.94,19.02 -15.72,91.7 -31.48,183.41 -47.21,275.11 -5.53,29.96 -8.79,60.61 -19.39,89.35 -8.45,23.41 -23.08,45.56 -44.8,58.54 -27.29,16.49 -59.98,20.48 -91.27,21.45 -20.34,0.32 -42.21,-0.52 -59.89,-11.8 -12.44,-7.81 -19.79,-21.69 -22.19,-35.91 -4.25,-24.08 -0.2,-48.56 3.88,-72.37 16.98,-98.96 33.99,-197.89 50.94,-296.85 1.56,-9.41 2.51,-19.58 8.81,-27.24 4.74,-6.58 12.49,-9.8 20.17,-11.5 0.51,-3.51 1.02,-6.99 1.5,-10.48 -46.31,3.08 -92.58,6.62 -138.87,9.8 -0.64,3.39 -1.24,6.8 -1.8,10.21 5.22,1.28 11.14,1.9 15.11,5.96 4.95,4.53 5.96,11.86 4.74,18.19 -18.97,110.52 -37.95,221.05 -56.93,331.56 -3.78,22.8 -5.56,46.13 -2.83,69.15 2.83,25.38 13.25,50.83 33.09,67.63 25.19,21.75 59.52,28.38 91.85,30.33 32.67,1.73 65.51,-0.82 97.81,-5.88 36.07,-6.09 71.98,-17.14 102.57,-37.68 23.1,-15.11 42.57,-35.61 56.86,-59.21 17.48,-28.59 27.63,-61.06 33.39,-93.92 18.96,-110.33 37.86,-220.67 56.84,-331.02 2.06,-14.46 14.61,-25.4 28.75,-27.59 0.57,-3.51 1.15,-6.99 1.75,-10.47 -46.41,3.03 -92.78,6.55 -139.16,9.79zm-639.37 -41.1l0 0c-1.96,9.27 -3.71,18.59 -5.43,27.91 22.89,-1.91 45.79,-4.02 68.68,-6.08 8.75,-0.7 17.4,-2.25 25.89,-4.46 2.16,-7.91 3.82,-15.98 4.42,-24.17 -6.35,-0.24 -12.7,-0.37 -19.01,0.19 -24.85,2.21 -49.69,4.46 -74.55,6.61z"/>
  </g>
 </g>
</svg>
