<?xml version="1.0" encoding="UTF-8"?>
<!DOCTYPE svg PUBLIC "-//W3C//DTD SVG 1.1//EN" "http://www.w3.org/Graphics/SVG/1.1/DTD/svg11.dtd">
<!-- Creator: CorelDRAW -->
<svg xmlns="http://www.w3.org/2000/svg" xml:space="preserve" width="2000px" height="1600px" version="1.1" style="shape-rendering:geometricPrecision; text-rendering:geometricPrecision; image-rendering:optimizeQuality; fill-rule:evenodd; clip-rule:evenodd"
viewBox="0 0 2000 1600"
 xmlns:xlink="http://www.w3.org/1999/xlink">
 <defs>
  <style type="text/css">
   <![CDATA[
    .fil0 {fill:#0A4486}
    .fil2 {fill:#FEFEFE}
    .fil1 {fill:#FFC422;fill-rule:nonzero}
   ]]>
  </style>
 </defs>
 <g id="Capa_x0020_1">
  <metadata id="CorelCorpID_0Corel-Layer"/>
  <g id="Hofstra_x0020_Pride.cdr">
   <path class="fil0" d="M455.08 672.5c0,0 -47.08,-11.26 -199.76,19.11 1.76,-1.07 3.5,-2.16 5.15,-3.34 90.26,-62.22 183.2,-120.99 281.09,-170.54 67.49,-34.09 137.87,-61.96 208.71,-88.16 -12.73,-4.06 -25.8,-7.06 -38.47,-11.33 59.14,-28.09 119.69,-53.38 181.85,-74.07 82.61,-27.65 167.73,-47.71 253.94,-60.34 -10.52,-7.23 -21.36,-14 -31.88,-21.22 17.13,-5 34.46,-9.34 51.92,-13.07 84.68,-17.65 172.11,-24.58 258.36,-15.99 33.81,4.28 69.29,9.38 98.35,28.56 -5.59,-12.31 -12.4,-24.02 -18.13,-36.28 35.4,4.4 68.58,19.41 98.67,38.02 34.05,21.42 65,48.56 87.9,81.84 17.79,25.98 30.42,57.04 28.41,89.02 -1.23,22.24 -10.33,43.35 -23.38,61.19 16.94,13.29 34.81,26.47 46.95,44.54 6.61,13.79 18.77,23.53 30.54,32.76 24.99,19.07 51.93,35.44 79.04,51.31 5.27,2.27 4.04,8.94 4.56,13.62 -0.54,20.71 -8.99,42.86 -26.89,54.6 4.6,7.31 7.48,15.62 8.41,24.22 4.34,38.16 -10.9,77.33 -38,104.17 -21.52,21.36 -49.92,34.21 -79.08,41.34 0.41,-6.22 1.54,-13.03 -1.7,-18.73 -3.65,-7.09 -11.96,-9.83 -19.34,-10.78 -15.84,-1.66 -31.71,1.18 -47.07,4.74 -39.93,9.73 -78.13,25.24 -115.77,41.47 4.68,-9.38 9.27,-18.79 13.68,-28.33 -59.76,29.61 -123.18,51.25 -187.91,67.02 199.08,0.3 398.16,-0.1 597.25,0.18 2.15,153.13 4.87,306.23 6.86,459.36 -640.61,0.04 -1281.21,0.02 -1921.83,0.02 58.89,-136.53 118.01,-272.93 176.82,-409.48 -7.86,-16.68 -15.75,-33.34 -23.65,-50 291.59,-0.02 583.15,0.14 874.74,-0.08 -11.35,-3.87 -22.94,-7.01 -34.15,-11.25 -64.16,-23.12 -122.35,-61.93 -169.47,-111.12 15.81,-8.15 32.61,-14.47 47.85,-23.63 -35.95,-16.56 -72.87,-31.01 -110.29,-43.9 -57.61,-19.39 -117,-35.67 -177.98,-38.79 11.9,-6.22 24,-12.06 35.75,-18.62 -67.67,-16.2 -138.72,-13.68 -206.61,-0.08 -1.89,0.44 -3.65,1.31 -5.44,2.04z"/>
   <path class="fil1" d="M1465.04 193.52c35.77,-0.79 71.24,7.77 104.11,21.47 33.56,14.08 64.67,33.82 92.07,57.72 28.54,25.37 53.71,55.46 69.01,90.71 11.49,26.02 16.56,55.45 10.99,83.56 -3.29,16.88 -10.87,32.63 -20.76,46.59 18.02,9.85 30.4,26.91 41.35,43.75 5.53,8.76 13.53,15.47 21.48,21.89 28.41,22.28 59.28,41.16 90.25,59.61 5.75,27.96 0.77,61.14 -22.01,80.47 8,14.96 8.63,32.59 7.21,49.13 -3.14,35.65 -20.81,69.58 -47.81,93 -31.55,27.75 -72.98,41.35 -113.98,47.02 3.45,-8.27 8.25,-17.67 4.75,-26.71 -3.41,-7.92 -13.34,-9.2 -20.92,-9.36 -20.47,0.75 -40.23,7.01 -59.58,13.25 -26.81,9.39 -53.28,19.92 -78.94,32.1 147.84,-0.12 295.65,0.25 443.47,-0.2 7.22,169 9.99,339.77 14.27,508.97 -666.67,0.04 -1333.33,0.1 -2000,-0.02 64.29,-146.24 129,-292.3 193.32,-438.54 -10.82,-23.39 -21.74,-46.74 -32.44,-70.19 266.44,-0.1 532.88,0.06 799.31,-0.08 -33.89,-19.09 -64.96,-43.06 -92.54,-70.44 -10.62,-10.87 -21.48,-21.71 -30.12,-34.25 11.92,-5.33 23.7,-10.93 35.43,-16.66 -43.03,-22.86 -88.85,-40.31 -135.87,-52.98 -49.53,-13.52 -100.54,-20.81 -151.65,-25.13 12.36,-5.94 24.52,-12.3 37.02,-17.92 -7.72,-2.69 -15.84,-3.91 -23.83,-5.47 -47.38,-8.16 -95.9,-8.21 -143.55,-2.31 1.79,-0.73 3.55,-1.6 5.44,-2.04 67.89,-13.6 138.94,-16.12 206.61,0.08 -11.75,6.56 -23.85,12.4 -35.75,18.62 60.98,3.12 120.37,19.4 177.98,38.79 37.42,12.89 74.34,27.34 110.29,43.9 -15.24,9.16 -32.04,15.48 -47.85,23.63 47.12,49.19 105.31,88 169.47,111.12 11.21,4.24 22.8,7.38 34.15,11.25 -291.59,0.22 -583.15,0.06 -874.74,0.08 7.9,16.66 15.79,33.32 23.65,50 -58.81,136.55 -117.93,272.95 -176.82,409.48 640.62,0 1281.22,0.02 1921.83,-0.02 -1.99,-153.13 -4.71,-306.23 -6.86,-459.36 -199.09,-0.28 -398.17,0.12 -597.25,-0.18 64.73,-15.77 128.15,-37.41 187.91,-67.02 -4.41,9.54 -9,18.95 -13.68,28.33 37.64,-16.23 75.84,-31.74 115.77,-41.47 15.36,-3.56 31.23,-6.4 47.07,-4.74 7.38,0.95 15.69,3.69 19.34,10.78 3.24,5.7 2.11,12.51 1.7,18.73 29.16,-7.13 57.56,-19.98 79.08,-41.34 27.1,-26.84 42.34,-66.01 38,-104.17 -0.93,-8.6 -3.81,-16.91 -8.41,-24.22 17.9,-11.74 26.35,-33.89 26.89,-54.6 -0.52,-4.68 0.71,-11.35 -4.56,-13.62 -27.11,-15.87 -54.05,-32.24 -79.04,-51.31 -11.77,-9.23 -23.93,-18.97 -30.54,-32.76 -12.14,-18.07 -30.01,-31.25 -46.95,-44.54 13.05,-17.84 22.15,-38.95 23.38,-61.19 2.01,-31.98 -10.62,-63.04 -28.41,-89.02 -22.9,-33.28 -53.85,-60.42 -87.9,-81.84 -30.09,-18.61 -63.27,-33.62 -98.67,-38.02 5.73,12.26 12.54,23.97 18.13,36.28 -29.06,-19.18 -64.54,-24.28 -98.35,-28.56 -86.25,-8.59 -173.68,-1.66 -258.36,15.99 -17.46,3.73 -34.79,8.07 -51.92,13.07 10.52,7.22 21.36,13.99 31.88,21.22 -86.21,12.63 -171.33,32.69 -253.94,60.34 -62.16,20.69 -122.71,45.98 -181.85,74.07 12.67,4.27 25.74,7.27 38.47,11.33 -70.84,26.2 -141.22,54.07 -208.71,88.16 -97.89,49.55 -190.83,108.32 -281.09,170.54 -1.65,1.18 -3.39,2.27 -5.15,3.34 3.22,-3.99 7.46,-6.93 11.41,-10.11 62.74,-50.28 128.02,-97.54 197.07,-138.78 73.16,-43.96 150.6,-80.5 230.37,-110.7 -10.86,-3.51 -21.95,-6.24 -32.87,-9.61 38.1,-21.99 78.53,-39.66 118.92,-56.96 60.56,-25.36 122.47,-47.63 185.64,-65.67 42.24,-11.94 85.1,-22.17 128.63,-28.23 -9.32,-8.03 -21.78,-11.84 -32.04,-18.69 34.09,-12.13 69.37,-20.73 104.86,-27.62 51.42,-9.79 103.6,-15.62 155.91,-17.29 54.07,-0.97 109.2,0.35 161.34,16.3 -6.32,-10.36 -13.23,-20.37 -19.52,-30.73z"/>
   <path class="fil2" d="M671.79 679.86c50.89,2.82 100.38,16.62 148.5,32.67 47.6,16.31 94.11,35.67 139.59,57.17 -15.6,7.4 -31.27,14.63 -46.87,22.03 22.11,20.47 48.57,35.61 75.29,49.21 38.75,18.76 80.62,31.96 123.7,35.26 40.49,3.18 82.39,-2.21 118.95,-20.59 7.31,-3.73 14.51,-8.27 19.31,-15.1 -21.26,-15.66 -39.32,-37.88 -43.98,-64.45 -4.6,-25.49 4.99,-51.94 21.99,-70.97 11.8,-13.82 27.68,-23.43 44.36,-30.3 0.55,0 1.63,0 2.17,0 -16.76,12.08 -32.32,29.11 -35.02,50.41 -2.23,16.09 5.17,31.95 16.01,43.49 18.16,18.87 43.76,29.12 69.31,32.99 25.5,4.11 51.24,-0.85 76.15,-6.24 21.76,-4.84 43.35,-10.46 64.75,-16.7 14.33,-4.58 31.71,-3.36 43.25,7.09 7.01,6.43 9.12,16.34 8.65,25.5 31.72,-2.29 63.25,-14.27 86.4,-36.44 13.72,-13.22 25.07,-29.55 30.15,-48.11 2.39,-9.39 3.43,-20.43 -2.69,-28.7 20.36,-7.86 27.64,-31.39 27.21,-51.42 -23.59,-24.05 -52.14,-42.33 -79.97,-60.98 -35.38,-23.55 -71.64,-46.02 -104.47,-73.12 -18.75,-14.45 -41.67,-22.05 -64.21,-28.27 -6.24,-1.91 -12.99,-2.33 -18.92,-4.99 -19.12,-22.61 -47.35,-35.2 -75.64,-41.89 -21.44,-5 -43.55,-6.67 -65.52,-6.1 -11.37,-0.02 -23.23,-0.59 -33.5,-5.98 -2.57,12.67 -0.24,25.9 5.59,37.35 5.94,12.53 15.32,22.88 24.49,33.1 -39.42,-11.94 -80.66,-16.64 -121.64,-19.17 -52.98,-3.08 -106.16,-0.77 -158.93,4.45 -57.82,3.49 -115.4,10.85 -172.33,21.43 -154.41,28.98 -304.77,78.35 -447.59,143.61 -29.06,13.13 -57.31,27.98 -85.86,42.17 -1.65,1.18 -3.39,2.27 -5.15,3.34 152.68,-30.37 199.76,-19.11 199.76,-19.11 1.79,-0.73 3.55,-1.6 5.44,-2.04 6.95,-3.59 14.59,-5.46 22.02,-7.77 57.12,-16.17 117.63,-19.19 176.34,-11.22 16.54,2.71 33.4,4.78 49.31,10.25 -11.99,6.34 -24.38,11.88 -36.4,18.14zm590.79 338.19c-6.3,21.24 -14.27,41.99 -21.2,63.04 -16.03,46.78 -32.18,93.51 -48.11,140.31 29.63,0.02 59.28,0.24 88.91,-0.08 0.65,-1.16 1.93,-3.51 2.59,-4.68 22.09,-66.25 44.18,-132.48 66.62,-198.61 19.76,0.22 39.52,0.04 59.3,0.1 5.47,-16.76 10.84,-33.56 16.25,-50.34 -68.64,0.02 -137.26,-0.03 -205.9,0.02 -5.64,16.78 -11.45,33.5 -17.01,50.3 19.52,-0.02 39.02,0.12 58.55,-0.06zm-265.33 52.43c-0.5,10.94 5.88,20.81 14.41,27.13 18.14,13.38 41.21,18.24 59.16,31.88 8.49,6.41 4.97,18.46 -0.2,25.82 -7.4,9.44 -20.31,10.94 -31.48,11.33 -28.25,0.12 -56.52,0 -84.77,0.04 -6.69,18.48 -13.72,36.83 -20.11,55.41 45.4,-1.52 90.86,-0.08 136.28,-0.77 15.2,-0.57 30.96,-3.51 43.55,-12.53 16.09,-12.01 26.27,-30.01 34.78,-47.78 7.92,-18.63 15.91,-38.33 15.02,-58.92 -0.61,-14.1 -12.55,-23.89 -24.45,-29.26 -14,-6.63 -28.13,-12.95 -42.23,-19.3 -5.72,-2.87 -12.55,-7.46 -12.14,-14.67 0.95,-11.9 12.42,-20.41 23.87,-20.65 22.86,-0.21 45.72,0 68.6,-0.08 5.62,-16.8 11.29,-33.6 17.09,-50.34 -39.32,-0.02 -78.64,0.04 -117.97,-0.03 -14.62,-0.28 -28.66,6.35 -39.6,15.69 -13.44,13.38 -21.99,30.77 -29.15,48.11 -4.86,12.55 -9.54,25.42 -10.66,38.92zm-177.47 -80.77c-29.37,77.44 -58.97,154.82 -88.38,232.26 29.45,-0.02 58.93,-0.04 88.38,0 13.96,-37.21 27.97,-74.4 41.99,-111.59 28.36,-0.08 56.73,0.41 85.1,-0.41 6.36,-16.78 11.98,-33.84 18.4,-50.6 -27.66,-0.63 -55.36,-0.12 -83.05,-0.26 5.11,-13.66 10.01,-27.4 15.2,-41.02 29.33,0.04 58.65,0.1 87.98,-0.02 5.9,-16.8 12.12,-33.46 18.01,-50.26 -63.71,0.02 -127.41,-0.13 -191.11,0.08 2.7,7.21 5.07,14.51 7.48,21.82zm-295.14 56.02c-14.69,26.14 -26.67,53.81 -35.67,82.4 -5.03,17.82 -10.72,36.42 -7.66,55.09 1.98,12.87 10.58,24.26 22.27,29.89 22.15,11.01 47.59,10.56 71.72,11.33 35.11,-1.03 72.88,-3.04 103,-23.21 19.03,-15.32 33.93,-35.26 46.84,-55.85 21.5,-35.59 36.19,-75.43 42.11,-116.61 2.15,-15.1 1.3,-32.33 -9.3,-44.29 -11.72,-13.23 -30.1,-17 -46.84,-19.17 -24.4,-2.57 -49.06,-2.49 -73.42,0.21 -26.86,3 -54.05,11.43 -74.75,29.46 -15.99,14.17 -27.7,32.39 -38.3,50.75zm55.43 78.17c11.37,-29.65 24.46,-58.88 42.07,-85.41 5.84,-8.36 12.45,-17.65 22.96,-20.2 9.08,-2.47 20.45,-2.94 27.69,4.09 6.64,8.05 4.17,19.58 1.52,28.72 -9.77,30.28 -23.35,59.3 -39.46,86.7 -7.78,12.55 -16.68,26.98 -32.27,30.28 -9.84,2.41 -24.28,1.44 -28.43,-9.59 -3.32,-11.83 2.35,-23.51 5.92,-34.59zm-159.03 98.57c35.18,-84.87 70.28,-169.75 105.28,-254.68 -35.22,0 -70.43,-0.02 -105.63,0.02 2.19,7.29 4.44,14.55 6.67,21.84 -9.4,23.11 -19.13,46.09 -28.27,69.29 -16.92,0.31 -33.83,0.14 -50.75,0.1 13.07,-30.39 25.98,-60.84 38.99,-91.25 -35.18,0 -70.36,0 -105.56,0 2.04,7.33 4.19,14.59 6.32,21.9 -33.36,77.73 -66.9,155.41 -100.14,233.21 30.32,0.2 60.64,0 90.94,-0.43 15.6,-36.66 31.31,-73.26 46.69,-110.02 16.94,-0.14 33.87,-0.04 50.81,-0.04 -15.36,36.7 -30.83,73.36 -46.25,110.04 30.3,0 60.6,-0.02 90.9,0.02zm57.17 86.26c7.88,-2.54 12.99,-9.81 16.45,-16.94 3.11,-6.89 6.19,-14.29 5.44,-22.01 -0.98,-5.35 -7.22,-6.47 -11.74,-6.39 -12.73,0.04 -25.47,-0.08 -38.2,0.12 0.4,1 1.16,3.04 1.56,4.06 -8.27,22.86 -20.16,44.5 -27.2,67.75 6.71,0.2 13.44,0.14 20.15,0.12 -0.37,-1.05 -1.14,-3.16 -1.52,-4.2 2.06,-7.29 5.73,-13.98 8.51,-20.99 8.85,-0.24 17.95,1.07 26.55,-1.52zm2.71 -33.52c1.57,6.79 -2.02,13.37 -5.97,18.64 -4.3,5.62 -12.17,4.44 -18.35,4.72 3.19,-8.02 6.67,-15.9 9.98,-23.83 4.78,-0.08 9.56,0 14.34,0.47zm293.52 47.18c-3.3,-5.59 -2.77,-12.81 -4.46,-19.05 15.14,-1.5 25.16,-16.86 25.22,-31.21 -0.17,-5.58 -5.54,-8.66 -10.62,-8.6 -13.58,-0.34 -27.16,0 -40.74,-0.12 1.36,2.52 1.44,5.07 0.26,7.62 -7.78,18.47 -15.58,36.93 -23.46,55.37 -1.14,2.86 -2.6,5.84 -2.03,9.08 6.55,0 13.11,0 19.66,-0.14 -0.37,-1.01 -1.14,-3.02 -1.54,-4.05 2.77,-8.82 7.11,-17.09 10.54,-25.68 0.64,-3.35 4.19,-1.93 6.56,-2.11 1.06,10.28 1.75,20.69 3.87,30.83 5.17,1.88 11.27,1.6 16.58,0.32 2.47,-3.57 3.79,-7.76 5.49,-11.69 -1.33,-0.13 -3.99,-0.43 -5.33,-0.57zm-2.51 -33.52c-5.29,4.31 -12.65,2.92 -18.95,3.24 2.33,-5.84 4.76,-11.63 7.28,-17.37 5.16,0.45 10.94,-1.19 15.7,1.24 1.77,4.52 -0.93,9.58 -4.03,12.89zm528.77 -21.3c-6,15.99 -13.11,31.57 -19.53,47.38 -2.56,6.73 -6.33,13.09 -7.4,20.29 13.92,0.12 27.93,0.83 41.81,-0.39 11.61,-1.27 18.91,-11.57 24.34,-20.85 6.36,-11.82 11.79,-24.71 12.61,-38.25 0.81,-6.58 -4.97,-12.42 -11.48,-12.18 -14,-0.38 -28.02,-0.12 -42.01,-0.08 0.41,1.02 1.24,3.08 1.66,4.08zm-4.98 55.04c6.56,-15.99 13.29,-31.9 19.94,-47.85 5.74,0.43 12.1,-1.28 17.43,1.36 3.02,6.97 -1.86,14.45 -3.93,21.14 -3.12,7.19 -6.18,14.55 -11.01,20.77 -5.71,6.22 -14.93,4.36 -22.43,4.58zm-260.41 -1.7c7.77,-18.97 16.56,-37.54 23.53,-56.81 -6.75,-1.17 -13.6,-0.65 -20.4,-0.59 0.38,1.02 1.15,3.06 1.55,4.08 -6.05,15.79 -13.11,31.19 -19.53,46.85 -2.66,6.91 -6.55,13.44 -7.68,20.88 6.71,0.2 13.45,0.14 20.18,0.12 -3.44,-4.88 0.73,-9.87 2.35,-14.53zm610.27 -57.48c-16.62,0.06 -33.22,-0.26 -49.84,0.18 0.55,1 1.65,3 2.21,3.98 -9.38,22.33 -19.07,44.52 -27.74,67.12 12.42,1.66 24.99,0.3 37.49,0.79 3.41,-0.36 7.72,0.83 10.44,-1.92 2.94,-4.38 4.31,-9.59 6.38,-14.39 -9.54,6.3 -21.46,2.37 -32.12,3.42 3.04,-6.48 5.02,-13.48 8.84,-19.54 8.18,-3.02 17.4,0.45 25.79,-2.06 2.82,-3.21 3.84,-7.56 5.56,-11.41 -8.78,-0.08 -17.57,-0.04 -26.35,-0.04 2.09,-4.93 4.16,-9.87 6.24,-14.8 8.84,-0.3 17.76,0.71 26.55,-0.71 4.06,-1.84 4.58,-7.07 6.55,-10.62zm-32.35 -151.65c21.95,-25.21 33.5,-57.86 39.2,-90.37 1.66,-13.19 3.02,-28.35 -5.51,-39.58 -9.22,-11.77 -25.38,-13.52 -39.26,-14.02 -54.58,0.08 -109.16,-0.25 -163.75,0.16 2.9,7.19 5.79,14.37 8.67,21.58 -24.89,77.12 -49.55,154.31 -74.48,231.4 28.46,0.02 56.93,0.02 85.42,0 9.69,-29.16 18.37,-58.67 28.64,-87.61 13.32,29.23 27.08,58.25 40.45,87.49 29.09,0.08 58.23,0.55 87.31,-0.26 -13.96,-30.04 -29.28,-59.52 -42.3,-89.96 13.54,-2.05 26.68,-8.21 35.61,-18.83zm-61.79 -38.3c-11.88,10.57 -28.8,6.6 -43.23,7.31 6.45,-20.95 13.34,-41.75 19.88,-62.66 10.64,0.46 21.45,-1.04 31.98,0.91 6.41,1.19 10.38,7.7 9.57,14 -1.42,14.88 -7.5,29.81 -18.2,40.44zm345.52 -105.47c-45.33,-0.47 -90.65,-0.12 -135.98,-0.2 2.63,7.19 5.25,14.4 7.96,21.56 -46.88,77.21 -94.1,154.23 -140.87,231.54 26.81,-0.04 53.62,-0.75 80.44,-0.44 10.51,-19.74 21.03,-39.48 31.53,-59.22 23.65,0 47.32,0 70.99,0 -0.81,19.72 -0.89,39.48 -1.05,59.22 30.44,-0.04 60.9,0.08 91.36,-0.06 -1.5,-84.13 -3.59,-168.26 -4.38,-252.4zm-84 57.37c-0.87,29.49 -0.97,58.98 -1.52,88.49 -15.24,0 -30.46,0.02 -45.68,-0.04 15.71,-29.49 31.31,-59.04 47.2,-88.45zm-161.12 -468.17c5.86,12.18 18,20.43 30.85,23.81 8.2,2.41 17.18,-0.51 23.28,-6.28 -0.97,-2.03 -1.94,-4.04 -2.87,-6.06 2.85,-3.79 7.72,-3.89 11.99,-4.77 -17.97,-5.02 -31.82,-18.99 -50.02,-23.42 -19.73,-5.15 -40.28,-6.67 -60.59,-6.71 18.91,6.24 39.19,9.68 56.38,20.22 -2.47,2.29 -5.96,2.48 -9.02,3.21zm-244.64 -0.77c-14.75,-4.62 -29.5,-9.41 -44.7,-12.31 9.38,-1.17 18.8,0.17 28.17,0.63 18.62,1.54 37.41,3.59 55.24,9.41 21.08,6.46 38.08,21.8 59.34,27.88 -4.7,0.65 -10.92,0.15 -13.61,4.93 -0.41,3.1 1.43,5.81 2.57,8.55 -8.15,8.61 -21.42,11.09 -32.43,7.15 -15.18,-4.96 -30.4,-14.26 -37.47,-29.12 3.97,-0.57 8.39,-0.71 11.31,-3.95 -7.95,-7.12 -18.63,-9.65 -28.42,-13.17z"/>
  </g>
 </g>
</svg>
