<?xml version="1.0" encoding="UTF-8"?>
<!DOCTYPE svg PUBLIC "-//W3C//DTD SVG 1.1//EN" "http://www.w3.org/Graphics/SVG/1.1/DTD/svg11.dtd">
<!-- Creator: CorelDRAW -->
<svg xmlns="http://www.w3.org/2000/svg" xml:space="preserve" width="2000px" height="1600px" version="1.1" style="shape-rendering:geometricPrecision; text-rendering:geometricPrecision; image-rendering:optimizeQuality; fill-rule:evenodd; clip-rule:evenodd"
viewBox="0 0 2000 1600"
 xmlns:xlink="http://www.w3.org/1999/xlink">
 <defs>
  <style type="text/css">
   <![CDATA[
    .fil1 {fill:#00529C;fill-rule:nonzero}
    .fil0 {fill:#D5855F;fill-rule:nonzero}
   ]]>
  </style>
 </defs>
 <g id="Capa_x0020_1">
  <metadata id="CorelCorpID_0Corel-Layer"/>
  <g id="Houston_x0020_Baptist_x0020_Huskies.cdr">
   <g>
    <path class="fil0" d="M1448.53 19.88c44.2,-6.72 88.28,-14.42 132.66,-19.88 -22.09,73.95 -46.53,147.18 -69.53,220.86 -16.88,53.57 -50.99,102.53 -98.84,132.73 -49.46,31.19 -108.77,46.73 -167.16,43.64 -21.39,-1.47 -44.8,-5.88 -60.14,-22.16 -13.74,-14.67 -16.16,-36.2 -14.07,-55.39 1.51,-15.5 5.43,-30.71 10.38,-45.45 24.78,-72.68 48.27,-145.78 73.23,-218.36 44.73,-9.24 89.46,-18.77 134.69,-25.48 -21.94,70.05 -45.45,139.57 -68.69,209.17 -2.65,8.64 -5.24,17.57 -4.61,26.7 -0.34,4.92 4.23,9.4 9.13,9.08 15.05,0.51 31.57,-4.72 40.61,-17.45 6.1,-8.58 10.04,-18.46 13.74,-28.26 22.87,-69.92 46.07,-139.72 68.6,-209.75zm-635.92 1055.06l-0.13 -0.55 0 0c-6.24,-26.78 -7.86,-55.07 -1.12,-81.92 2.47,-9.86 6.93,-19.02 10.56,-28.46 -23.67,15.57 -35.47,42.78 -42.84,69.07 -13.03,-7.88 -23.21,-20.37 -27.21,-35.16 -6.68,-24.87 -2.81,-53.55 14.65,-73.3 -14.14,3.26 -26.48,12.01 -34.76,23.83 -8.77,11.6 -12.02,26.01 -18.24,38.92 -5.45,-15.68 -5.27,-32.49 -4.74,-48.87 1.31,-24.56 10.53,-49.61 29.08,-66.38 8.44,-7.86 18.9,-12.89 28.68,-18.79 -21.95,-4.19 -46.09,0.76 -63.33,15.36 -9.04,7.39 -14.98,17.61 -22.04,26.74 -1.31,-25.18 7.77,-51.77 27.52,-68.15 19.2,-16.01 45.18,-19.04 69.29,-18.64 -18.1,-11.44 -38.72,-19.28 -60.2,-20.66 -12.67,-1.16 -25.25,1.29 -37.86,1.8 13.7,-16.94 37.86,-16.3 57.67,-17.1 27.79,1.43 55.94,-6.37 78.54,-22.73 16.99,-11.69 30.99,-27.06 43.55,-43.29 12.05,-15.5 25.07,-30.48 34.18,-48 3.89,-7.06 8.73,-15.61 17.66,-16.57 12.02,-1.52 23.64,4.68 32.26,12.62 8.79,8.27 12.13,20.62 12.18,32.36 0.31,18.75 4.7,39.01 19.12,52.12 -7.7,-32.89 -8.19,-67.2 -2.85,-100.48 2.43,-14.83 7.35,-30.02 18.91,-40.31 9.55,9.67 15.76,22.16 18.21,35.5 6.64,34.75 6.04,70.85 -1.78,105.36 8.15,-7.79 13.85,-17.9 16.19,-28.95 3.58,-12.84 1.56,-26.49 5.16,-39.32 4.39,-15.27 18.95,-25.81 34.07,-28.83 7.82,-1.65 16.5,1.29 20.69,8.32 6.59,10.54 12.11,21.76 19.95,31.47 13.29,17.01 26.05,34.58 41.23,49.98 17.51,17.28 38.95,31.29 63.02,37.23 25.49,6.91 52.77,-0.18 77.91,8.75 6.79,2.12 12.42,6.66 17.05,11.96 -11.06,-0.42 -21.97,-2.78 -33.06,-2.56 -23.14,0.47 -46.27,7.53 -65.04,21.22 21.6,0.07 44.51,1.76 62.94,14.25 23.92,15.52 35.41,45.22 33.72,73.01 -8.78,-12.45 -17.11,-26.03 -30.75,-33.73 -16.79,-10.87 -37.57,-11.83 -56.83,-9.36 18.08,8.67 35.98,19.93 46,37.95 16.33,28.96 18.64,65.24 8.84,96.7 -5.12,-11.38 -8.5,-23.69 -15.92,-33.91 -8.37,-12.14 -20.5,-21.31 -34.09,-26.9 16.3,23.09 20.02,54.71 8.55,80.63 -4.74,10.97 -13.47,19.63 -23.46,25.91 -8,-26.03 -19.15,-53.37 -42.84,-68.91 4.49,11.76 9.88,23.31 12,35.83 4.32,24.82 3.14,50.61 -3.21,75.01 -15.23,-20.73 -36.49,-39.77 -63.41,-41.5 11.46,11.66 23.89,23.15 30.28,38.61 2.8,6.63 5.68,13.96 3.78,21.24 -3.38,-12.09 -7.48,-24.29 -15.11,-34.43 -7.91,-11.33 -19.06,-19.63 -29.33,-28.65 16.63,-1.23 33.31,3.63 46.98,13.07 9.93,6.66 17.82,15.74 25.85,24.49 4.81,-29.03 6.17,-59.92 -4.92,-87.73 -3.27,-8.39 -8.24,-15.94 -12.22,-23.98 30.28,11.27 44.89,43.22 53.97,71.99 15.79,-11.18 24.81,-30.17 24.94,-49.37 0,-14.94 -1.6,-31.06 -10.69,-43.46 -3.76,-4.83 -8.64,-8.59 -12.91,-12.89 13.45,-1.56 25.51,6.68 35.51,14.67 12.76,10.38 19.73,25.52 26.41,40.13 3.72,-24.01 3.56,-49.32 -5.54,-72.17 -6.31,-16.57 -18.33,-30.77 -33.43,-40.03 -8.06,-4.95 -17.16,-7.78 -25.33,-12.43 21.99,-6.66 47.18,-5.85 67.17,6.32 11.02,6.37 19.15,16.39 27.08,26.14 -2.58,-22.22 -11.6,-45.13 -30.71,-58.11 -20.84,-15.05 -47.58,-15.94 -72.27,-15.05 17.59,-16.37 41.39,-25.07 65.08,-27.08 10.67,-0.93 21.33,0.31 32,0.09 -26.43,-14.89 -57.83,-4.54 -85.88,-12.69 -34.25,-8.15 -62.08,-32.22 -83.35,-59.32 -14.07,-18.05 -29.34,-35.47 -39.76,-56 -3.37,-7.05 -10.25,-13.65 -18.71,-11.98 -13.91,2.59 -27.78,11.52 -32.57,25.39 -4.63,11.93 -2.01,25.02 -4.97,37.32 -3.11,15.16 -10.06,32.04 -25.76,37.8 10.73,-34.57 11.13,-71.6 5.1,-107.1 -2.2,-12.84 -6.93,-25.49 -15.9,-35.2 -9.31,9.29 -13.11,22.24 -15.45,34.8 -6.15,35.7 -5.72,72.95 5.14,107.73 -14.83,-5.75 -22.04,-21.27 -25.34,-35.81 -3.36,-12.87 -0.86,-26.6 -5.3,-39.23 -4.74,-13.83 -18.39,-23.02 -32.28,-25.7 -9.2,-1.8 -16.35,5.59 -19.91,13.16 -10.28,20.58 -25.87,37.75 -39.79,55.83 -20.95,26.71 -48.6,49.94 -82.2,58.18 -28.06,8.3 -59.45,-2.05 -85.93,12.69 15.1,0.6 30.44,-1.12 45.29,2.56 18.33,4.34 36.83,11.33 50.83,24.31 -22.82,-0.22 -47.13,0.03 -67.22,12.45 -21.53,12.4 -32.95,37.03 -34.82,61.12 9.15,-12.47 20.22,-24.13 34.87,-29.99 18.68,-8.02 40.12,-7.88 59.54,-2.65 -9.76,5.25 -20.56,8.53 -29.64,14.98 -16.79,11.36 -28.28,29.42 -33.38,48.88 -5.18,19.79 -4.9,40.66 -1.69,60.76 6.66,-15.92 13.47,-32.75 27.46,-43.75 9.15,-7.79 21.17,-12.91 33.37,-11.07 -6.1,7.24 -14,13.41 -17.21,22.67 -10.42,27.99 -6.68,65.08 19.66,83.1 8.89,-28.95 23.85,-60.83 54.2,-72.08 -5.01,9.38 -10.89,18.42 -14.21,28.59 -9.17,26.74 -7.93,55.73 -3.09,83.21 5.65,-7.2 12.23,-13.98 19.55,-19.77l0 0 0 0 0.61 -0.48 0.24 -0.19 0.58 -0.45 0.73 -0.54 0.02 -0.02 0.51 -0.38 0.41 -0.3 0.51 -0.37 0.01 -0.01 0.74 -0.52 0.02 -0.02 0.48 -0.34 0.43 -0.3 0.56 -0.38 0.75 -0.5 0.52 -0.35 0.44 -0.29 0.49 -0.31 0.84 -0.53 0.42 -0.26 0.53 -0.33 0.53 -0.32 0.32 -0.19c0.33,-0.2 0.68,-0.4 1.02,-0.59l0.44 -0.26 0.54 -0.3 0.43 -0.24c0.3,-0.16 0.59,-0.32 0.89,-0.48l0.5 -0.27 0.51 -0.27 0.6 -0.31 0.7 -0.34 0.59 -0.3 0.51 -0.25 0.7 -0.33 0.24 -0.11 0.01 0 0.21 -0.1 0.76 -0.34 0.46 -0.21 0.71 -0.3 0.53 -0.23 0.78 -0.32 0.42 -0.17 0.77 -0.3 0.35 -0.14c0.31,-0.11 0.62,-0.23 0.92,-0.34l0.45 -0.16 0.78 -0.28 0.3 -0.1c0.35,-0.12 0.7,-0.24 1.05,-0.35l0.33 -0.11c0.3,-0.09 0.6,-0.18 0.89,-0.28l0.23 -0.07c0.36,-0.1 0.72,-0.21 1.07,-0.31l0.38 -0.1c0.26,-0.07 0.51,-0.14 0.76,-0.21l0.4 -0.11c0.35,-0.09 0.71,-0.18 1.06,-0.26l0.3 -0.07c0.3,-0.08 0.61,-0.15 0.91,-0.21l0.27 -0.07c0.38,-0.08 0.75,-0.16 1.13,-0.23l0.26 -0.05c0.33,-0.07 0.67,-0.13 1,-0.19l0.2 -0.04c0.39,-0.07 0.78,-0.14 1.17,-0.2l0.23 -0.04c0.35,-0.05 0.69,-0.1 1.04,-0.15l0.19 -0.02c0.39,-0.06 0.78,-0.11 1.18,-0.16l0.24 -0.02c0.33,-0.04 0.66,-0.08 0.99,-0.11l0.29 -0.03c0.39,-0.03 0.79,-0.07 1.18,-0.1l0.15 -0.01c0.36,-0.02 0.72,-0.05 1.08,-0.07l0.24 -0.01c0.4,-0.02 0.8,-0.04 1.2,-0.05l0.22 -0.01c0.34,-0.01 0.69,-0.02 1.04,-0.02l0.27 -0.01c0.4,0 0.8,0 1.21,0l0.14 0.01c0.35,0 0.7,0.01 1.06,0.02l0.35 0.01 -70.43 44.92zm71.68 -44.87c0.4,0.02 0.79,0.05 1.19,0.08l0.28 0.02c0.42,0.03 0.83,0.07 1.24,0.11 -18.17,13.96 -36.14,30.86 -41.77,53.97 -4.25,14.18 -1.36,29.06 3.49,42.66l-0.83 -0.36 -0.03 -0.01 -0.81 -0.37 -0.04 -0.02 -0.79 -0.36 -0.06 -0.03 -0.76 -0.36 -0.03 -0.01 -0.45 -0.22 -0.34 -0.17 -0.11 -0.05 -0.71 -0.36 -0.02 -0.01 -0.59 -0.3 -0.24 -0.12 -0.56 -0.3 -0.25 -0.13 -0.53 -0.28 -0.29 -0.16 -0.59 -0.33 -0.18 -0.1 -0.55 -0.3 -0.31 -0.18 -0.48 -0.27 -0.27 -0.16 -0.53 -0.31 -0.32 -0.19 -0.35 -0.21 -0.46 -0.28 -0.35 -0.22 -0.4 -0.24 -0.41 -0.26 -0.42 -0.26 -0.31 -0.2 -0.44 -0.28 -0.38 -0.26 -0.35 -0.22 -0.49 -0.33 -0.22 -0.15 -0.51 -0.34 -0.29 -0.2 -0.49 -0.34 -0.23 -0.17 -0.49 -0.34 -0.29 -0.21 -0.48 -0.34 -0.24 -0.17 -0.52 -0.39 -0.16 -0.12 -0.6 -0.44 -0.11 -0.09 -0.58 -0.44 -0.21 -0.16 -0.54 -0.42 -0.14 -0.11 -0.56 -0.44 -0.16 -0.13c-8.9,-7.09 -16.69,-15.62 -23.26,-24.9 -11.44,-15.83 -20.13,-34.24 -35.96,-46.4 -13.85,-10.62 -29.88,-18.41 -46.69,-23.02 -1.16,7.03 -2.38,14.11 -4.39,20.99 -33.51,-25.2 -43.64,-69.22 -46.73,-108.85 -4.99,4.11 -9.8,8.46 -14.72,12.64 -16.03,-43.31 -14.41,-93.47 6.84,-134.78 -4.66,0.92 -9.27,1.92 -13.92,2.83 5.9,-38.74 20.75,-77.73 49.19,-105.63 4.49,-3.38 -0.74,-8.68 -1.67,-12.71 5.87,-3.88 12.13,-7.13 18.56,-10.02 -2.93,-7.71 -7.92,-14.27 -13.58,-20.2 7.26,-1.07 14.61,-0.98 21.89,-0.09 -1.58,-10.19 -3.09,-20.39 -4.03,-30.68 5.92,1.54 11.47,4.14 16.77,7.15 3,-7.1 5.99,-14.32 6.88,-22.02 3.89,-33.33 15.63,-65.11 29.19,-95.59 18.97,-43.67 48.69,-82.92 86.39,-112.07 24.85,17.99 43.09,43.56 57.14,70.52 9.97,19.59 18.7,39.97 24.35,61.25 2.36,-5.14 5.15,-10.1 9,-14.27 3.96,5.14 7.62,10.53 10.89,16.14 5.74,-5.83 12,-11.28 19.61,-14.51 -0.08,3.94 -0.2,7.9 -0.33,11.84 8.57,-3.4 17.81,-3 26.36,0.2 -0.29,-4.05 -0.58,-8.1 -0.73,-12.15 7.55,3.43 13.98,8.72 19.77,14.58 3.19,-5.86 6.99,-11.36 11.74,-16.08 2.62,4.23 5.14,8.55 7.68,12.87 16.65,-48.71 39.23,-99.26 82.12,-130.41 37.58,29.48 67.35,68.76 86.34,112.53 13.47,30.4 25.12,62.1 28.99,95.3 0.76,7.75 3.83,14.94 7.11,21.89 5.1,-2.94 10.44,-5.48 15.96,-7.55 -0.09,10.29 -1.76,20.42 -3.36,30.55 7.24,-0.38 14.52,-0.44 21.71,0.74 -5.61,5.99 -10.58,12.6 -14.05,20.06 6.66,2.72 13.07,6.01 19.06,10 -1.25,4.16 -5.84,9.26 -1.2,12.93 28.01,28.17 42.77,66.85 48.85,105.52 -4.59,-0.93 -9.15,-1.96 -13.72,-2.85 20.73,41.57 22.22,91.34 6.75,134.85 -5.08,-4.28 -10.04,-8.64 -15.07,-12.94 -2.1,31.3 -8.89,63.57 -27.35,89.55 -5.32,7.6 -12.18,13.99 -19.75,19.29 -1.53,-7 -2.78,-14.05 -4.34,-21.05 -18.26,5.99 -36.34,14.05 -50.68,27.15 -17.05,15.56 -25.63,37.78 -41.19,54.62 -8.84,9.48 -18.75,18.7 -31.24,23.02 6.68,-7.86 16.37,-12.29 23.49,-19.68 19.95,-18.57 28.92,-46.09 50.17,-63.44 15,-12.31 33.13,-20.22 51.72,-25.43 1.63,6.39 3.07,12.85 4.63,19.26 31.04,-27.21 39.9,-70.49 41.8,-109.93 5.63,4.59 11.13,9.36 16.78,13.9 13.34,-43.78 11.29,-93.19 -11.91,-133.35 5.26,0.66 10.51,1.38 15.79,2.04 -6.77,-38.14 -22.53,-76.44 -52.04,-102.62 1.41,-3.52 2.83,-6.99 4.21,-10.51 -6.08,-2.87 -12.24,-5.54 -18.48,-8.06 2.72,-7.19 6.26,-14.03 10.02,-20.73 -6.06,0.69 -12.07,1.45 -18.1,2.16 1.69,-10.09 3.41,-20.15 4.43,-30.33 -4.66,2.43 -9.2,5.08 -13.74,7.73 -4.39,-8.17 -8.33,-16.79 -9.35,-26.12 -3.85,-33.15 -15.52,-64.79 -29.04,-95.1 -18.54,-42.32 -47.13,-80.42 -83.32,-109.24 -30.75,22.69 -50.41,56.87 -65.44,91.3 -6.57,14.74 -11,30.28 -16.67,45.35 -2.76,-6.19 -5.3,-12.45 -8.31,-18.5 -3.92,5.83 -7.55,11.87 -10.84,18.08 -4.72,-5.92 -9.93,-11.42 -15.88,-16.12 0.11,4.03 0.34,8.04 0.54,12.07 -6.19,-2.07 -12.43,-4.95 -19.09,-4.55 -5.41,0.67 -10.44,2.83 -15.56,4.59 0.31,-4.1 0.65,-8.17 0.89,-12.27 -5.88,4.81 -11.13,10.33 -15.83,16.32 -3.47,-6.23 -7.19,-12.29 -11.29,-18.12 -2.78,6.1 -5.3,12.31 -7.97,18.44 -6.08,-15.39 -10.44,-31.4 -17.28,-46.5 -14.92,-34 -34.6,-67.46 -64.73,-90.11 -28.81,22.78 -52.68,51.64 -70.74,83.55 -15.38,28.74 -27.76,59.18 -36.22,90.66 -5.37,18.75 -4.17,39.39 -14.9,56.4 -4.54,-2.74 -9.08,-5.45 -13.76,-7.97 0.98,10.2 2.72,20.31 4.65,30.39 -6.03,-0.62 -12.09,-1.22 -18.12,-1.67 3.61,6.6 7.01,13.3 9.91,20.25 -6.19,2.53 -12.32,5.2 -18.37,8.1 1.33,3.45 2.71,6.92 4.1,10.38 -29.44,26.25 -45.52,64.41 -52.06,102.64 5.07,-0.55 10.17,-1.15 15.27,-1.67 -4.99,10.98 -10.53,21.76 -13.74,33.42 -9.37,32.51 -7.37,67.49 2.41,99.67 5.56,-4.68 11.06,-9.42 16.72,-13.99 1.98,39.44 10.58,82.97 41.84,110.11 1.47,-6.5 2.91,-12.98 4.58,-19.44 19.11,5.55 37.81,13.85 53.11,26.77 14.55,12.42 23.14,29.68 34.14,45.04l0.12 0.18 0.07 0.09 0.06 0.09 0.13 0.18 0.13 0.18 0.13 0.17 0.13 0.18 0.06 0.09 0.07 0.09 0.13 0.18 0.13 0.18 0.13 0.18 0.13 0.17 0.06 0.08 0.08 0.1 0.13 0.18 0.13 0.18 0.26 0.35 0.05 0.07 0.09 0.11 0.4 0.53 0.13 0.17 0.05 0.06 0.08 0.12 0.41 0.52 0.13 0.18 0.04 0.05 0.1 0.12 0.54 0.7 0.04 0.04 0.01 0.02 0.63 0.78 0.01 0.02 0.03 0.04 0.03 0.03 0.64 0.79 0.02 0.03 0.63 0.75 0.06 0.07 0.01 0.02 0.13 0.15 0.54 0.64 0.03 0.03 0.01 0.02 0.13 0.15 0.55 0.63 0.03 0.04 0.01 0 0.14 0.16 0.58 0.66c7.64,9 16.99,16.39 27.21,22.25 -2.42,-14.99 -3.25,-30.8 2.88,-45.07 6.1,-16.7 19.17,-29.14 31.57,-41.28 -13.27,1.09 -26.1,5.86 -36.76,13.83 -10.64,7.48 -18.66,17.86 -27.12,27.56l71.68 -44.87zm23.95 196.95c5.41,-1.85 12.38,-4.27 17.19,0.29 5.57,5.57 3.65,14.18 1.74,20.93 -9.11,28.95 -18.02,57.98 -26.74,87.06 -3.43,11.6 -7.75,23.02 -9.56,35.07 3.95,1.36 7.91,2.65 11.89,3.94 -12.31,6.73 -25.05,12.67 -37.49,19.13 -5.17,2.47 -10.4,5.34 -16.21,5.77 -4.21,-0.61 -8,-2.7 -11.85,-4.32 -10.57,10.73 -19.59,23.66 -32.97,31.17 -10.31,4.9 -25.19,5.16 -32.82,-4.57 -6.39,-8.79 -4.32,-20.44 -2.12,-30.28 9.91,-37.25 23.51,-73.48 32.95,-110.82 -3.78,-1.49 -7.59,-2.91 -11.4,-4.32 15.08,-7.21 30.33,-14.02 45.78,-20.32 5.79,-2.43 14.37,-4.19 18.35,2.18 2.9,6.28 0.54,13.29 -1.25,19.55 -8.37,25.27 -15.78,50.87 -23.6,76.33 -3.23,10.71 -7.06,21.33 -8.33,32.53 8.49,-7.2 20.04,-13.01 22.56,-24.83 11.04,-37.92 24.11,-75.26 33.89,-113.54 -4.45,-1.6 -9,-3.02 -13.56,-4.29 14.43,-5.79 28.99,-11.25 43.55,-16.66zm4.01 2.07l0 0c-12.02,3.79 -23.56,9.02 -35.65,12.72 3.9,4.78 4.79,10.86 2.58,16.65 -10.06,34.11 -20.86,68.02 -31.17,102.09 -1.6,4.74 -2.58,10.22 -6.66,13.63 -6.83,6.23 -13.71,12.51 -21.57,17.48 -1,-5.41 -1.25,-11 0.49,-16.26 10.51,-35.36 21.44,-70.6 32.28,-105.87 2.54,-5.72 -0.4,-14.79 -7.99,-12.54 -15.3,3.68 -29.41,11.2 -43.75,17.59 6.74,4.45 3.72,12.27 1.8,18.53 -9.35,29.39 -18.35,58.91 -27.36,88.42 -3.32,11.2 -6.68,23.42 -3.14,34.95 6.12,12.47 23.78,11.92 33.84,4.77 12.74,-10 22.33,-23.27 33.09,-35.27 1.36,2.89 2.56,5.92 4.32,8.66 4.9,1.49 10.24,0.94 14.78,-1.42 11.14,-5.41 22.16,-11.05 33.13,-16.79 -2.11,-5.21 -3.76,-10.89 -1.73,-16.39 11.11,-37.01 22.4,-73.97 33.95,-110.82 1.52,-5.79 3.59,-12.27 0.92,-18.01 -2.25,-4.81 -8.13,-3.23 -12.16,-2.12zm65.04 -21.77c21.55,-6.82 43.48,-12.54 65.57,-17.39 -5.41,18.79 -11.47,37.4 -16.92,56.2 -1.14,-4.7 -2.27,-9.38 -3.52,-14.01 -12.89,1.51 -25.34,5.43 -37.63,9.44 7.06,13.03 14.21,26.05 21.2,39.14 12.29,20.85 0.02,48.99 -20.11,59.92 -14.51,7.31 -29.77,13.12 -44.53,19.93 -7.46,2.96 -16.65,7.53 -24.18,2.43 -6.48,-4.54 -3.7,-13.27 -1.8,-19.48 5.07,-14.77 8.55,-30.06 14.51,-44.51 0.56,5.43 1.1,10.88 1.81,16.34 12.38,-0.6 23.29,-6.86 34.47,-11.51 -8,-18.68 -25.86,-33.91 -24.88,-55.65 0.65,-20.1 18.11,-34.93 36.01,-40.85zm7.77 0.91l0 0c-13.58,3.85 -27.34,10.64 -35.09,22.95 -7.73,11.41 -6.86,26.93 -0.11,38.59 6.9,12 15.27,23.18 20.79,35.98 -10.17,4.03 -20.06,8.84 -30.57,11.94 -4.45,1.71 -8.86,-0.58 -13.02,-1.91 -3.3,12.42 -8.24,24.44 -10.49,37.13 -1.25,6.55 6.83,10.51 12.38,8.64 10.44,-2.87 19.99,-8.17 29.99,-12.26 12.74,-6.08 27.3,-9.96 37.05,-20.82 10.67,-11.98 15.66,-30.8 7.6,-45.45 -7.75,-14.52 -15.84,-28.86 -23.45,-43.42 11.29,-3.23 22.42,-7.06 33.91,-9.59 4.39,-1.25 8.8,0.2 13.05,1.38 3.63,-12.39 7.44,-24.7 11.11,-37.03 -17.9,3.87 -35.56,8.81 -53.15,13.87zm307.61 -28.52c4.43,-4.12 12.04,-6.44 17.19,-2.16 2.11,6.28 -1.43,12.71 -2.59,18.88 -7.05,0.29 -14.11,0.55 -21.15,0.67 2.05,-5.82 2.83,-12.34 6.55,-17.39zm4.83 0.35l0 0c-5.06,2.3 -4.86,8.75 -6.57,13.25 4.74,-0.02 9.49,-0.09 14.25,-0.27 0.87,-4.72 1.78,-9.42 2.56,-14.11 -3.43,0.24 -6.92,0.17 -10.24,1.13zm63.5 5.77c0.02,-10.93 7.51,-21.82 18.3,-24.63 6.37,-1.91 13.05,-0.4 19.49,0.56 11.93,2.11 23.91,4.19 35.56,7.64 -3.48,11.55 -6.97,23.15 -11.4,34.4 -1.03,-4.23 -2.05,-8.49 -3.05,-12.69 -8.22,-2.36 -16.61,-3.9 -25.05,-5.13 6.65,13.1 15.6,25.08 20.7,38.97 3.92,10.22 -0.93,24.72 -12.38,27.32 -12.51,1.23 -25.11,-0.07 -37.65,0.18 -6.74,-0.29 -14.89,0.76 -19.97,-4.72 -2.36,-10.93 4.23,-21.11 7.26,-31.24 1.93,3.36 3.85,6.77 5.81,10.18 6.66,0.66 13.36,0.93 20.06,1.09 -6.92,-13.39 -18.68,-25.88 -17.68,-41.93zm3.68 7.88l0 0c3.69,13.63 13.33,24.56 19.39,37.14 -10.69,-0.98 -23.74,2.85 -31.82,-6.17 -2.32,6.95 -4.36,14.03 -5.03,21.36 9.19,4.56 19.62,2.87 29.5,3.2 8.02,0 16.08,1.14 24.12,0.2 10.55,-1.29 15.36,-14.65 11.6,-23.69 -5.88,-15.23 -15.97,-28.34 -22.96,-43.06 12.14,1.69 24.92,2.61 35.76,8.93 1.78,-6.82 3.83,-13.58 5.23,-20.49 -14.92,-2.56 -29.68,-6.65 -44.82,-7.59 -15.01,-0.33 -24.71,16.61 -20.97,30.17zm-158.96 -32.64c11.95,-3.52 24.56,-3.47 36.89,-4.36 -7.17,23.17 -14.43,46.31 -21.46,69.53 -3.41,11.27 -7.59,22.4 -9.29,34.11 4.61,2.16 9.26,4.3 13.83,6.57 -13.78,2.7 -27.34,6.35 -40.97,9.71 -4.94,0.96 -11.24,2.56 -15.12,-1.76 -5.74,-5.68 -3.05,-14.54 -1.31,-21.37 7.19,-23.18 14.34,-46.41 21.6,-69.59 1.24,-4.34 2.69,-8.77 2.6,-13.33 -2.16,-3.77 -6.19,-5.84 -9.42,-8.53 7.73,-0.54 15.59,-1.87 23.27,-0.07 -3.7,0.69 -7.37,1.41 -11.04,2.07 1.51,12.49 -3.54,24.25 -7.06,35.94 -5.15,16.37 -10.04,32.82 -15.32,49.14 -1.78,6.08 -3.99,12.32 -3.43,18.77 0.2,4.32 4.7,7.53 8.91,6.57 11.44,-1.83 22.49,-5.7 33.89,-7.9 -2.14,-5.53 -3.83,-11.54 -1.63,-17.35 8.75,-29.61 18.68,-58.89 26.92,-88.69 -9.77,0.38 -19.55,1.19 -29.35,1.19l-2.51 -0.65zm56.33 -0.78c7.91,-6.12 18.44,-5.3 27.83,-5.41 16.99,0.29 34.07,0.36 50.97,2.36 6.08,0.51 9.33,7.24 8.22,12.78 -2.18,14.21 -7.89,27.57 -11.65,41.39 -17.83,1.72 -35.87,0.45 -53.55,3.77 -1.05,4.2 -2.11,8.41 -3.09,12.64 18.12,-0.06 38.09,1.45 53.92,-9.06 -3.4,11 -5.94,22.31 -10.17,33.04 -2.81,2.23 -6.68,2.03 -10.02,2.61 -19.44,1.56 -38.76,4.3 -58,7.39 -6.39,0.96 -14.34,2.25 -19.09,-3.32 -5.7,-7.01 -4.92,-16.92 -2.65,-25.09 4.77,-16.61 10.34,-32.98 15.12,-49.59 2.74,-8.35 4.79,-17.92 12.16,-23.51zm-6.32 15.81l0 0c-5.81,18.7 -11.34,37.52 -17.28,56.2 -2.21,7.61 -3.88,16.97 1.25,23.78 3.96,5.19 11.06,3.09 16.56,2.51 21.82,-4.07 44,-5.72 66,-8.68 2.14,-7.53 4.45,-15.01 6.5,-22.53 -16.61,2.8 -33.67,4.94 -50.5,3.16 -0.38,-6.57 1.34,-12.91 3.79,-18.93 17.21,-2.18 34.64,-1.64 51.85,-3.69 3.5,-4.72 4.28,-10.85 6.26,-16.28 2.43,-9.02 6.7,-18.1 5.34,-27.63 -3.71,-5.66 -11.84,-3.96 -17.63,-4.79 -17.88,0.11 -35.78,-1.89 -53.6,-0.33 -9.52,0.42 -16.16,8.61 -18.54,17.21zm-453.94 -26.52c5.76,-2.2 14.07,-5.32 18.26,1.27 2.93,7.19 0.33,15.1 -1.59,22.22 -27.52,89.71 -55.08,179.42 -82.85,269.07 -1.27,4.4 -2.2,8.88 -3.03,13.4 7.71,-0.2 15.35,-1.18 22.98,-2.29 -20.35,12.87 -40.5,26.05 -60.09,40.05 -5.68,3.63 -12.18,8.86 -19.33,6.21 -5.54,-3.91 -3.67,-11.48 -2.58,-17.05 12.33,-41.68 26.2,-82.94 37.78,-124.83 -18.35,10.89 -35.71,23.41 -52.28,36.86 -4.05,2.93 -6.59,7.3 -7.9,12.09 -12.07,38.25 -24.47,76.39 -36.5,114.67 -1.71,5.54 -2.36,11.33 -2.69,17.12 7.43,1.87 14.72,-0.78 21.82,-2.69 -17.55,15.4 -36.07,29.63 -53.97,44.59 -5.39,4.66 -12.52,8.62 -19.84,6.37 -6.75,-1.89 -8.58,-9.71 -8.95,-15.78 -0.2,-13.52 6.25,-25.79 9.97,-38.48 29.5,-91.87 58.27,-183.99 86.59,-276.23 2.65,-9.36 6.53,-19.11 3.9,-28.95 -8.62,-0.18 -17.21,0.62 -25.83,0.87 17.01,-9.42 34.85,-17.28 51.97,-26.5 8.55,-3.98 18.3,-10.31 27.95,-6.1 7.45,3.94 6.52,13.58 4.43,20.42 -11.83,40.14 -24.9,79.96 -36.68,120.12 13.32,-6.68 25.85,-14.85 39.17,-21.53 4.81,-2.62 9.91,-4.85 14.23,-8.26 3.32,-5.48 4.47,-11.93 6.46,-17.92 9.84,-33.04 20.64,-65.8 30.1,-98.93 0.47,-4.03 3.34,-10.24 -1.78,-12.36 -8.55,-2.47 -17.59,-0.64 -26.34,-0.64 22.04,-9.33 44.4,-17.93 66.62,-26.79zm4 2l0 0c-17.52,6.37 -34.57,14.03 -52.3,19.91 4.12,1.27 8.46,2.18 12.2,4.47 3.83,5.26 1.16,11.94 -0.13,17.62 -10.55,35.29 -21.71,70.38 -32.35,105.65 -1.52,4.72 -2.72,10.42 -8.04,12.22 -19.44,9.51 -37.61,21.4 -57,30.98 12.04,-42.69 26.34,-84.75 38.63,-127.37 1.18,-5.27 3.16,-12.55 -2.05,-16.34 -5.19,-3.87 -11.76,-0.53 -16.92,1.63 -15.43,7.39 -30.8,14.85 -46.14,22.44 4.59,1.54 11.03,0.94 13.59,5.88 1.73,8.39 -1.41,16.79 -3.54,24.83 -29.04,94.58 -58.54,189.01 -88.67,283.27 -3.45,11.26 -9.17,22.26 -8.39,34.37 -0.02,4.64 0.91,10.56 5.94,12.36 6.26,1.74 12.27,-1.6 16.93,-5.5 14.2,-11.66 28.76,-22.86 42.88,-34.6 -3.3,-1.13 -6.79,-1.78 -9.8,-3.58 -4.12,-5.24 -1.09,-11.94 0.36,-17.55 12.58,-39.97 25.32,-79.89 38.18,-119.77 1.83,-7.1 8.47,-10.95 13.77,-15.3 17.1,-13.02 34.4,-26.11 53.61,-35.89 -9.35,35.27 -20.97,69.9 -31.37,104.87 -3.27,12.1 -9.29,23.72 -9.69,36.43 1.94,4.3 7.08,5.55 10.74,2.54 18.65,-11.93 36.04,-25.94 55.62,-36.47 -4.3,-0.18 -8.58,-0.51 -12.83,-1.02 1.49,-12.65 6.39,-24.52 9.91,-36.66 25.67,-83.47 51.39,-166.9 76.89,-250.42 1.67,-5.66 3.16,-11.69 1.84,-17.57 -2.36,-4.74 -8.01,-2.58 -11.87,-1.43zm411.33 -49.85c9.15,-3.14 20.3,-2.2 27.63,4.54 6.23,5.68 7.79,15.37 4.48,23 -7.11,18.4 -36.45,24.18 -47.94,7.04 -8.24,-13.2 2,-30.57 15.83,-34.58zm2.31 2.58l0 0c-12.53,3.28 -23.51,19.02 -14.91,31 12.78,17.19 44.57,5.03 43.19,-16.12 -1.27,-13.07 -16.99,-19.04 -28.28,-14.88zm-148.89 -18.3c16.7,-1.67 33.44,-3.01 50.21,-3.81 4.56,0.07 10.51,-0.67 13.14,4.05 2.05,4.64 0.82,9.78 -0.29,14.48 -11.02,36.76 -23.2,73.23 -33.33,110.28 12.06,-10.22 24.87,-20.22 33.95,-33.31 -4.56,-2.38 -9.19,-4.58 -13.8,-6.79 15.05,-1.51 29.81,-5.08 44.88,-6.21 3.92,-0.65 8.71,1.53 8.82,5.99 1.03,7.1 -3.89,13.07 -8.77,17.57 -15.28,14.07 -29.9,28.83 -45.05,43.01 7.09,13.3 15.26,25.94 23.23,38.7 3.72,6.62 11.55,8.29 18.01,11.03 -14.83,4.16 -29.48,9.08 -44.46,12.55 -5.93,1.61 -11.85,-1.76 -15.32,-6.43 -6.44,-8.22 -10.42,-18.1 -17.28,-26.08 -3.81,12.38 -8.11,24.65 -10.73,37.34 3.49,2.01 7.01,3.97 10.51,5.99 -13.56,5.59 -27.5,10.14 -41.24,15.28 -4.9,1.53 -11.45,4.05 -15.59,-0.42 -4.85,-6.44 -2.29,-15.26 -0.69,-22.43 18.1,-60.87 37.19,-121.46 56.02,-182.13 1.83,-7.22 4.97,-14.72 3.05,-22.23 -4.76,-2.87 -10.15,-4.36 -15.27,-6.43zm15.81 1.69l0 0c5.34,7.97 2.67,17.59 0.09,26.03 -18.42,60.79 -37.34,121.42 -56.05,182.12 -2.42,7.03 -2.53,14.51 -1.06,21.75 15.71,0.87 29.65,-8.26 44.26,-12.78 -1.2,-4.5 -3.36,-9.2 -1.67,-13.85 3.81,-12.87 8.06,-25.61 11.82,-38.48 6.68,9.6 12,20.02 18.44,29.77 3.05,4.59 7.62,9.76 13.81,8.11 11.4,-2.16 22.15,-6.79 33.51,-9.2 -14.37,-14.29 -22.67,-33.26 -33.47,-50.14 16.23,-15.94 32.75,-31.6 49.21,-47.29 4.63,-4.06 6.48,-10.11 5.21,-16.08 -12.11,0.4 -24.03,2.76 -35.92,4.88 0.74,2.91 1.45,5.83 2.14,8.77 -13.47,14.49 -28.3,27.72 -43.15,40.79 11.4,-41.59 25.16,-82.54 37.38,-123.91 0.63,-4.07 2.67,-9.86 -1.96,-12.31 -14.18,-1.34 -28.41,1.15 -42.59,1.82zm-139.83 -47.96c7.97,-3.47 15,-8.8 23.09,-11.96 7.34,-0.73 14.54,1.9 21.91,1.58 7.34,0.27 14.56,-2.4 21.88,-1.46 7.95,3.27 14.97,8.41 22.76,12.04 -1.49,6.39 -2.43,13.76 -7.84,18.19 -4.18,2.5 -9.28,1.72 -13.91,2.03 0.75,2.72 1.49,5.43 2.22,8.19 -4.9,-2.38 -9.68,-4.96 -14.47,-7.48 -0.31,4.77 -0.56,9.55 -0.87,14.34 -3.47,-4.12 -6.66,-8.42 -9.91,-12.67 -3.38,4.37 -6.7,8.77 -10.28,13 -0.32,-4.89 -0.51,-9.79 -0.74,-14.67 -4.96,2.61 -9.89,5.35 -14.92,7.86 1.07,-2.89 2.19,-5.77 3.34,-8.62 -4.76,-0.2 -9.82,0.36 -14.27,-1.62 -5.57,-4.61 -6.86,-12.05 -7.99,-18.75zm3.18 2.25l0 0c1.78,4.9 2.81,10.6 7.08,14.05 5.88,2.14 12.11,-0.36 17.95,-1.51 -0.14,1.24 -0.38,3.71 -0.51,4.96 3,-1.09 5.99,-2.2 9.01,-3.25 0.32,3.18 0.61,6.39 0.89,9.6 2.7,-4.15 5.26,-8.35 8.09,-12.41 1.58,4.1 3.16,8.24 4.83,12.34 0.93,-3.38 1.85,-6.79 2.8,-10.15 3.14,1.64 6.28,3.34 9.45,5.01 -0.47,-2.07 -0.96,-4.14 -1.43,-6.19 6.86,1.44 16.97,5.76 21.31,-2.27 1.45,-3.34 5.32,-8.8 0.76,-11.29 -5.93,-3.88 -11.96,-8.04 -18.8,-10.09 -10.73,0.87 -21.55,2.6 -32.28,0.65 -11.14,-3.19 -19.71,6.52 -29.15,10.55zm-164.12 -145.98c8.99,-10.15 22.84,-16.99 36.56,-13.4 21.46,5.32 36.94,22.98 49.54,40.1 19.13,25.29 27.03,57.25 47.58,81.63 8.09,9.44 18.71,19.1 31.96,18.88 10.97,-1.51 21.33,-7.77 28.21,-16.39 5.61,-9.57 4.69,-21.6 3.31,-32.17 -5.36,-15.95 -26.05,-22.27 -27.87,-40.08 5.65,-2.74 11.42,-5.23 17.21,-7.68 -1.09,-2.74 -0.89,-6.33 -3.41,-8.22 -10.78,-0.49 -19.88,6.59 -30.32,7.93 -4.99,-0.65 -3.5,-6.53 -3.3,-10.02 1.27,-8.38 4.21,-18.17 12.94,-21.45 13.98,-5.81 29.05,-0.08 43.53,-0.95 14.38,0.73 29.32,-4.72 43.19,1.07 10.62,4.34 13.32,17.43 12.87,27.72 0.49,3.09 -3.69,4.12 -5.96,3.18 -9.22,-2.05 -17.64,-7.77 -27.33,-7.5 -2.76,1.76 -2.51,5.56 -3.69,8.3 5.86,2.41 11.69,4.92 17.37,7.75 -2.32,19.02 -26.94,25.07 -28.9,44.16 -0.65,10.75 -1.38,23.82 7.43,31.7 7.88,7.22 18.19,13.81 29.35,12.43 12.98,-2.59 22.95,-12.47 30.64,-22.67 17.16,-22.11 24.85,-49.74 41.12,-72.41 12.63,-18.17 27.99,-36.74 49.83,-43.66 14.34,-4.52 29.73,1.13 39.79,11.75 -11.57,-0.55 -24.24,-1.76 -34.2,5.44 4.43,5.72 12.63,7.54 15.99,14.29 3.61,6.3 2.25,13.74 0.58,20.4 -5.9,-6.88 -11.22,-16.39 -21.18,-17.59 -8.9,-1.65 -17.32,2.36 -24.96,6.48 9.93,4.87 19.69,11.28 24.07,21.93 -12.69,-4.61 -27.25,-12.67 -40.48,-5.12 -17.25,8.81 -23.84,28.32 -30.19,45.26 -8.33,21.27 -17.9,42.11 -29.68,61.7 -3.67,5.82 -7.66,11.87 -13.72,15.46 -5.12,2.87 -11.2,2.07 -16.81,2.18 0.14,5.12 0.8,10.2 1.67,15.25 -6.48,-1.96 -12.84,-4.27 -19.1,-6.84 -1.36,4.95 -2.36,10 -3.1,15.08 -4.85,-4.34 -9.82,-8.55 -14.87,-12.65 -4.7,3.99 -9.46,7.93 -14.3,11.74 -1.09,-4.75 -2.22,-9.47 -3.58,-14.12 -6.17,2.49 -12.4,4.81 -18.75,6.77 0.58,-5.06 1.07,-10.11 1.34,-15.17 -9.96,1.27 -20.44,-1.73 -25.9,-10.73 -16.03,-24.09 -27.61,-50.92 -37.89,-77.91 -5.64,-14.85 -13.59,-30.79 -29.11,-37.23 -12.55,-5.45 -25.36,2.14 -37.29,5.64 3.67,-10.67 13.8,-16.08 22.98,-21.31 -7.8,-4.65 -16.9,-8.37 -26.1,-6.1 -9.64,2.02 -14.43,11.46 -20.33,18.32 -0.13,-6.94 -1.4,-14.47 2.01,-20.9 3.47,-6.42 10.22,-9.87 15.89,-13.99 -9.91,-7.77 -22.82,-7.08 -34.64,-6.28zm9.59 -4.94l0 0c11.14,1.56 23.72,3.07 30.58,13.2 -5.26,2.81 -11.07,4.92 -15.41,9.18 -3.59,3.76 -4.63,9.04 -6.24,13.8 6.17,-4.87 12.09,-11.29 20.4,-12 11.82,-1.47 22.82,4.34 32.24,10.82 -7.75,3.36 -15.9,6.35 -22.04,12.38 10.08,-1.31 20.86,-4.94 30.64,-0.33 9.41,3.98 15.63,12.44 22.39,19.7 -5.76,-15.23 -15.07,-28.85 -25.11,-41.57 -10.51,-12.62 -22.85,-24.98 -38.86,-30.06 -9.77,-3.14 -20.08,-0.31 -28.59,4.88zm366.48 -4.59l0 0c-16.7,3.5 -29.34,16.21 -40.21,28.57 -13.49,16.61 -25.34,35 -32.4,55.29 6.44,-11.16 12.34,-23.65 24.16,-30.13 10.47,-7.33 23.51,-3.45 35.05,-1.71 -6.46,-5.77 -14.5,-9.11 -22.31,-12.49 9.64,-6.24 20.59,-12.7 32.6,-10.63 8.41,0.87 14.29,7.4 20.44,12.47 -1.16,-5.12 -1.74,-11.02 -5.95,-14.71 -4.94,-4.04 -10.98,-6.4 -16.45,-9.58 7.48,-8.62 18.72,-10.93 29.48,-12.58 -7.44,-3.92 -15.99,-6.52 -24.41,-4.5zm-211.19 11.16l0 0c-10.96,3.43 -11.69,16.59 -12.87,26.12 11.11,-2.28 21.64,-10.05 33.33,-7.33 4.54,2.81 2.85,8.66 3.47,13.11 -5.7,2.32 -11.4,4.61 -16.92,7.29 5.03,10.86 14.94,17.83 22.69,26.56 8.73,9.35 7.1,23.29 5.9,35 -1.65,12.36 -12.87,20.18 -23.36,25.01 -10.35,4.9 -22.95,3.03 -31.97,-3.77 -17.86,-12.55 -27.1,-32.97 -38.01,-51.1 7.53,24.83 18.88,48.37 31.13,71.19 4.52,7.75 8.91,16.12 16.41,21.44 5.14,3.52 11.65,1.49 17.39,1.29 0.94,4.81 1.76,9.67 2.56,14.52 4.3,-2.14 8.48,-4.45 12.71,-6.7 2.54,3.83 5.04,7.7 7.49,11.62 3.6,-3.05 7.14,-6.14 10.68,-9.26 3.68,3.12 7.4,6.21 11.2,9.19 2.45,-3.92 4.95,-7.81 7.51,-11.66 4.07,2.36 8.17,4.67 12.33,6.88 0.89,-4.92 1.85,-9.82 2.85,-14.7 6.82,0.82 14.9,2.36 20.13,-3.38 10.42,-10.38 16.06,-24.34 23.03,-37.05 7.1,-15.77 15.45,-31.27 19.34,-48.23 -11.89,18.12 -21.84,39.76 -42.35,49.78 -15.29,7.26 -32.75,-1.2 -43.21,-12.82 -8.13,-10 -6.33,-24.05 -5.39,-35.98 4.12,-16.15 22.29,-22.63 28.59,-37.7 -5.57,-2.76 -11.29,-5.14 -17.04,-7.46 0.45,-4.52 -0.64,-10.33 3.83,-13.2 11.72,-2.39 22.16,5.18 33.29,7.35 -1.38,-8.93 -1.71,-20.8 -11.18,-25.21 -12.8,-5.59 -26.92,-0.78 -40.3,-1.27 -14.4,1.05 -29.19,-4.05 -43.26,0.47zm-62.73 60.18l0 0 -1 1.54c0.65,0.51 1.92,1.54 2.56,2.05 0.05,-0.82 0.14,-2.49 0.2,-3.32l-1.76 -0.27zm1.56 3.59l0 0 -0.91 1.56c0.67,0.51 1.98,1.53 2.63,2.05 0.02,-0.85 0.04,-2.5 0.06,-3.34l-1.78 -0.27zm1.72 3.61l0 0c-0.02,0.82 -0.05,2.49 -0.07,3.31l1.78 0.2 0.94 -1.55c-0.67,-0.49 -1.98,-1.47 -2.65,-1.96zm195.43 7.17l0 0 1.04 1.49 1.83 -0.16c-0.07,-0.78 -0.2,-2.38 -0.27,-3.18 -0.67,0.46 -1.96,1.38 -2.6,1.85zm-0.47 -248.61c7.17,-5.23 16.94,-10.13 25.58,-5.23 8.75,4.83 17.57,12.51 18.73,23.07 -7.01,-2.36 -13.63,-5.83 -20.77,-7.79 -1.76,3.31 0.48,6.79 1.22,10.08 5.57,15.23 -0.11,35.72 -15.81,42.37 -13.85,4.92 -30.01,1.9 -41.52,-7.14 -9.02,5.1 -19.73,8.93 -30.06,5.65 -8.4,-3.25 -11.85,-12.36 -15.61,-19.77 7.46,-2.87 14.69,-6.32 21.42,-10.69 -2.21,8.22 -4.63,17.24 0.26,25.03 6.46,-0.82 12.85,-2.96 17.48,-7.75 16.15,-13.36 21.73,-35.63 39.08,-47.83zm-18.95 27.97l0 0c-5.85,10.38 -14.14,19.01 -22.71,27.19 3.18,-1.41 6.32,-2.96 9.42,-4.57 9.35,10 24.14,13.09 37.16,9.96 12.11,-3.21 18.77,-16.19 18.75,-28.02 0.44,-7.99 -3.47,-15.18 -5.5,-22.69 6.32,-3.62 13.29,-0.66 19.86,0.41 -5.5,-7.2 -13.16,-15.59 -23.18,-14.1 -15.63,4.54 -25.92,18.42 -33.8,31.82zm-55.26 14.47l0 0c2.78,4.84 5.25,10.07 9.55,13.81 5.86,4.3 13.58,2.18 20.2,1.38 -5.31,-1.05 -12.47,1.69 -16.28,-3.14 -2.79,-4.59 -1.96,-10.24 -2.43,-15.34 -3.7,1.09 -7.35,2.2 -11.04,3.29zm29.39 13.36l0 0 0.36 1.83c0.77,-0.18 2.35,-0.54 3.13,-0.71l-0.33 -1.76c-0.78,0.15 -2.36,0.46 -3.16,0.64zm-189.06 -38.07c1.82,-12.74 13.65,-23.07 25.98,-25.27 13.32,1.13 24.12,11.13 31.86,21.33 9.07,13 16.19,28.05 29.62,37.34 4.01,3 10.02,5.52 14.54,2 4.18,-6.83 0.53,-15.1 -0.54,-22.33 6.51,4.05 13.39,7.39 20.69,9.77 -2.85,7.84 -6.73,16.35 -14.74,20.06 -10.31,3.86 -21.33,-0.11 -30.35,-5.32 -11.47,8.86 -27.25,11.78 -41.06,7.31 -10.78,-3.79 -17.01,-14.92 -18.37,-25.77 -1.65,-9.28 2.36,-18.1 4.21,-27.01 -7.55,1.85 -14.63,5.1 -21.84,7.89zm5.54 -7.33l0 0c6.15,-1.27 12.29,-2.56 18.55,-3.14 1.13,4.37 0.58,8.8 -1.25,12.92 -4.01,9.75 -2.6,21.31 2.9,30.19 11.55,16.72 38.12,13.56 51.01,0.02 4.3,2.81 8.7,5.52 13.31,7.84 -9.59,-8.48 -19.35,-17.1 -25.71,-28.43 -8.42,-14.52 -19.29,-30.02 -36.59,-34.12 -9.71,-0.26 -16.23,8.29 -22.22,14.72zm101.27 27.26l0 0c0.55,6.56 0,13.2 -2.87,19.21 -4.66,0.33 -9.29,0.74 -13.88,1.36 5.48,0.42 11.29,1.31 16.59,-0.71 5.59,-2.94 8.2,-9.15 11.49,-14.19 -3.81,-1.87 -7.61,-3.69 -11.33,-5.67zm168.57 -320.32c19.87,4.11 34.32,20.44 43.98,37.31 14.85,27.19 29.19,54.73 41.48,83.21 2.45,5.01 2.96,10.67 0.94,15.94 -5.06,10.82 7.23,18.86 8.57,29.15 -3.16,9.57 -11.16,16.21 -17.99,23.16 8.24,-0.54 16.1,-3.05 23.96,-5.32 -4.52,11.57 -13.54,20.5 -23.98,26.89 6.83,3.9 14.29,6.37 21.84,8.44 -11.22,10.29 -28.44,12.16 -42.24,6.37 -15.47,-6.19 -32.17,-13.74 -40.79,-28.86 4.36,0.36 8.75,0.85 13.14,1.32 -3.55,-6.57 -8.26,-12.87 -9.49,-20.35 2.23,-7.46 8.15,-14.57 16.23,-15.7 6.19,-0.47 11.89,2.6 17.7,4.27 -2.67,-5.25 -5.1,-10.84 -9.53,-14.89 -4.94,-4.5 -11.55,-6.37 -17.68,-8.67 2.08,-9.46 9.74,-15.54 18.62,-18.36 -6.9,-4.3 -15.05,-4.1 -22.8,-2.99 2.25,-8.55 6.39,-16.36 11.24,-23.71 -10.91,1.16 -18.37,9.17 -24.02,17.83 -6.06,-7.1 -8.57,-16.09 -10.42,-25.05 -2.99,6.22 -6.59,12.92 -5.12,20.07 1.84,11.02 5.7,22.11 3.6,33.42 -1.71,8.79 -9.24,15.63 -17.83,17.5 -10.93,2.36 -22.22,1 -33.07,-1.18 -2.51,-26.63 -1.49,-54.78 10.31,-79.27 4.97,-10.71 13.61,-19.06 22.8,-26.21 -2.87,-7.88 -5.1,-16.05 -5.03,-24.49 8.04,2.74 15.59,6.75 22.71,11.38 -0.44,-13.78 -0.2,-27.7 2.87,-41.21zm2.59 3.38l0 0c-3.37,15.39 -2.94,31.17 -2.27,46.8 -6.33,-6.97 -14.01,-12.69 -22.94,-15.85 1.45,7.37 3.7,14.54 6.08,21.64 -8.84,5.84 -16.94,13.09 -21.98,22.56 -13.24,23.76 -14.38,52.03 -12.33,78.57 10.2,1.81 20.95,3.68 31.04,0.32 7.35,-2.19 13.16,-8.8 14.29,-16.39 2.12,-14.05 -6.48,-27.5 -3.32,-41.51 1.52,-7.7 7.24,-13.42 12.67,-18.68 -0.49,9.53 -0.89,19.62 4.41,28.06 5.3,-4.88 10.13,-10.98 17.35,-13.01 5.41,-1.73 11.06,-0.15 16.48,0.81 -7.02,4.94 -12.7,11.49 -15.9,19.5 9.77,0.42 20.21,2.45 26.29,10.94 -8.97,0.68 -18.14,3.33 -22.46,11.97 7.81,4.1 16.45,7.93 21.33,15.72 3.72,5.26 4.36,11.8 5.14,18.02 -6.08,-3.14 -11.84,-7.51 -18.77,-8.4 -7.3,0.29 -12.74,6.55 -14.87,13.07 2.02,8.84 7.9,16.12 12.65,23.65 -4.04,0.11 -8.07,0.18 -12.07,0.33 11.15,11.16 25.76,18.26 40.74,22.63 9.09,2.85 18.48,0 27.12,-2.99 -7.3,-3.56 -15.07,-6.79 -20.55,-13.07 10.11,-2.96 18.06,-10.02 23.78,-18.68 -9.35,1.98 -18.99,3.12 -28.39,0.8 8.37,-5.61 17.86,-10.55 22.98,-19.66 6.84,-9.97 -8.33,-18.57 -7.01,-28.83 0.75,-6.17 3.83,-12.63 0.91,-18.68 -12.4,-29.02 -27.03,-57.05 -42.19,-84.7 -8.51,-15.39 -21.47,-28.73 -38.21,-34.94zm-321.93 39.34c9.91,-18.95 24.92,-38.5 47.21,-42.57 3.34,13.63 3.6,27.72 3.11,41.68 7.2,-4.61 14.61,-8.86 22.56,-12.04 -0.51,8.39 -2.52,16.58 -5.21,24.56 14.41,10.15 24.58,25.51 28.95,42.55 5.85,20.39 5.72,41.88 4.16,62.85 -11.33,2.3 -23.25,3.81 -34.6,0.85 -8.06,-2.16 -14.88,-8.8 -16.41,-17.12 -2.32,-11.96 2.38,-23.6 3.72,-35.36 0.75,-7.33 -3.48,-13.72 -6.53,-19.97 -0.09,9.66 -2.18,19.59 -9.39,26.56 -5.55,-8.28 -12.61,-16.68 -23.45,-16.92 4.76,7.17 8.68,14.87 10.89,23.24 -7.66,-1.2 -15.74,-1.49 -22.56,2.83 8.46,3.21 16.32,8.89 18.53,18.15 -6.06,2.38 -12.49,4.47 -17.53,8.75 -4.67,3.92 -6.97,9.73 -9.57,15.05 7.7,-2.49 16.74,-7.17 24.31,-1.71 5.35,4 11.85,11.29 8.04,18.3 -2.16,5.28 -5.19,10.17 -7.9,15.21 4.23,-0.56 8.46,-1.18 12.69,-1.7 -5.77,15.57 -21.93,23.12 -36.58,28.17 -15.19,5.5 -33.07,4.72 -46.52,-4.76 7.62,-2.52 15.28,-5.08 22.29,-9.02 -10.46,-6.37 -19.75,-15.14 -24.16,-26.83 7.91,2.47 15.9,4.96 24.25,5.25 -7.24,-6.59 -14.96,-13.45 -18.3,-22.98 1.58,-8.08 7.7,-14.45 9.97,-22.31 -0.49,-6.7 -4.92,-13.42 -1.51,-20.01 11.42,-27.7 25.52,-54.22 39.54,-80.7zm4.03 -0.58l0 0c-14.18,26.41 -28.1,53.04 -39.9,80.61 -4.96,8.46 4.45,17.83 -0.73,26.07 -2.59,7.02 -11.18,14.68 -5.23,22.09 4.98,9.22 14.71,13.81 23.11,19.3 -9.27,1.9 -18.73,1.32 -28.01,0.05 5.3,8.64 13.51,14.85 23.18,17.81 -5.77,5.81 -13.1,9.55 -20.38,13.07 23.89,8 52.08,-0.93 68.43,-19.68 -4.3,-0.16 -8.58,-0.25 -12.85,-0.33 4.43,-7.69 10.66,-14.77 12.53,-23.63 -2.13,-6.39 -7.66,-12.63 -14.76,-13.03 -7.17,0.78 -13.11,5.39 -19.55,8.29 1.4,-6.82 2.7,-13.96 6.97,-19.62 4.92,-6.95 13.14,-10.09 20.4,-13.94 -3.14,-3.58 -5.79,-8.3 -10.67,-9.75 -4.21,-1.18 -8.57,-1.47 -12.87,-2.16 6.9,-7.84 16.88,-11.04 27.12,-11.07 -3.2,-8.03 -8.84,-14.6 -15.96,-19.41 5.54,-1.09 11.4,-2.7 16.99,-0.85 7.03,2.16 11.77,8.15 17.01,12.94 4.96,-8.51 4.67,-18.44 4.61,-27.92 5.38,5.3 10.73,11.24 12.38,18.88 3.05,13.29 -4.68,25.98 -3.7,39.28 0.62,7.23 5.01,14.22 11.8,17.14 10.78,4.77 22.94,3.03 34.09,0.69 1.54,-20.35 1.02,-41.19 -5.03,-60.85 -4.54,-16.39 -14.72,-31.15 -29.3,-40.13 2.24,-7.08 4.32,-14.2 6.03,-21.44 -8.37,3.92 -15.92,9.26 -23.31,14.74 1.56,-15.25 1.87,-30.79 -1.78,-45.8 -18.46,6.3 -31.84,21.82 -40.62,38.65zm72.05 547.01l0.04 0 0.04 0 -0.08 0zm58.3 -723.73c22.75,-4.66 45.2,-15.52 68.91,-11.63 9.69,1.3 18.68,8.49 20.35,18.4 2.9,16.25 -6.1,31.86 -17.43,42.79 -15.97,15.1 -37.16,23.09 -57.98,28.9 -14.76,3.57 -29.28,8.11 -44.07,11.54 9.02,-30.33 20.09,-60.03 30.22,-90zm7.79 8.1l0 0c-7.77,22.56 -15.81,45.03 -23.24,67.69 25.16,-6.32 51.45,-11.93 72.98,-27.25 11.45,-8.33 21.45,-20.67 22.65,-35.23 0.87,-7.95 -5.83,-14.51 -13.43,-15.36 -20.3,-3.03 -39.43,6.26 -58.96,10.15zm41.19 -146.17c18.35,-3.95 36.52,-11.72 55.63,-9.18 9.3,0.91 17.96,8.4 18.48,18.06 1.84,17.86 -9.89,33.84 -23.74,43.78 -22.98,15.87 -50.99,20.86 -77.55,27.6 8.66,-26.87 17.81,-53.61 27.18,-80.26zm7.82 8.12l0 0c-6.9,19.22 -13.65,38.5 -19.57,58.05 19.62,-4.45 39.61,-9.97 56.29,-21.64 10.68,-7.66 20.24,-19.49 20.06,-33.22 0.13,-6.06 -5.55,-10.45 -11.13,-10.98 -15.7,-1.83 -30.58,4.65 -45.65,7.79zm-280.82 21.64c41.5,-14.24 82.83,-29.25 124.96,-41.54 -13.65,45.53 -30.2,90.2 -44.36,135.6 -26.96,80.71 -53.35,161.6 -80.49,242.23 -45.2,15.97 -90.16,32.6 -134.69,50.32 13.3,-43.71 26.68,-87.37 40.64,-130.86 -21.33,7.91 -42.24,16.93 -63.1,25.95 -4.01,1.22 -5.37,5.32 -6.55,8.88 -13.4,41.15 -25.94,82.58 -38.68,123.96 -40.83,16.87 -81.87,33.35 -121.97,51.96 -4.28,1.96 -8.62,3.72 -13.03,5.35 36.1,-126.1 77.29,-250.67 117.08,-375.65 1.02,-8.22 9.69,-10.05 15.96,-13.1 41.11,-17.92 81.88,-36.96 124.21,-51.86 -11.96,41.42 -27.26,81.81 -39.39,123.18 17.14,-6.41 33.93,-13.69 51.14,-19.93 5.28,-2.09 10.82,-3.72 15.68,-6.77 3.43,-5.3 4.7,-11.66 6.79,-17.54 11.24,-34.03 22.64,-67.98 33.91,-101.98 1.22,-5.43 7.61,-6.17 11.89,-8.2zm-2.32 11.34l0 0c-13.4,39.97 -26.94,79.93 -40.1,119.99 -1.22,5.5 -7.48,6.35 -11.8,8.37 -27.28,9.91 -53.91,21.45 -80.98,31.82 11.93,-41.61 27.34,-82.16 39.45,-123.71 -35.27,13.2 -69.47,29.08 -104,44.09 -3.38,1.71 -7.3,2.8 -9.95,5.61 -2.28,4.14 -3.34,8.77 -4.81,13.23 -36.3,114.24 -73.95,228.07 -107.19,343.25 35.13,-14.98 70.14,-30.28 105.61,-44.38 4.63,-1.18 7.26,-5.05 8.1,-9.55 11.74,-39.81 24.29,-79.38 37.14,-118.85 2.12,-8.27 12.25,-8.87 18.66,-12.47 24.56,-10.22 48.99,-20.93 74.21,-29.46 -14.14,43.24 -28.1,86.55 -40.83,130.23 33.78,-12.6 67.37,-25.69 101.51,-37.34 4.41,-1.71 10.31,-2.76 11.35,-8.26 37.01,-112.69 74.48,-225.24 112.07,-337.78 1.31,-4.07 2.47,-8.21 3.56,-12.38 -37.74,11.27 -74.79,24.72 -112,37.59zm343.73 -113.07c22.04,-4.67 44.77,-9.22 67.33,-5.97 15.21,2.16 30.75,11.05 36.34,26.03 6.17,17.13 3.89,36.16 -1.47,53.17 -7.62,21.58 -18.3,42.67 -34.8,58.85 -8.8,9.2 -19.4,16.33 -29.6,23.83 13.5,5.74 28.3,14.41 31.44,30.04 3.61,21.35 -3.25,43.1 -13.09,61.92 -20.24,40.21 -55.24,71.54 -94.7,92.38 -30.28,16.52 -64.12,24.32 -96.72,34.76 -1.6,-2.94 -3.18,-5.88 -4.74,-8.84 30.52,-10.07 62.34,-16.9 91.06,-31.82 45.56,-22.4 85.62,-59.72 103.74,-107.9 4.39,-14.01 9.36,-30.08 2.56,-44.13 -7.45,-13.23 -23.67,-16.17 -36.71,-21.13 1.49,-4.17 2.47,-9.04 6.81,-11.23 11.53,-7.5 23.34,-14.89 32.98,-24.87 14.07,-13.76 23.22,-31.55 30.43,-49.63 6.06,-15.52 8.71,-32.98 4.52,-49.32 -3.58,-12.65 -16.32,-20.28 -28.67,-22.24 -20.82,-3.21 -41.84,0.89 -62.19,5.21 -49.17,11.42 -97.89,24.8 -146.45,38.5 -4.56,0.82 -7.9,3.98 -8.99,8.48 -30.8,91.54 -61.39,183.14 -91.23,274.99 -3.89,7.1 -10.15,12.58 -15.99,18.05 19.35,-62.76 40.8,-124.91 61.37,-187.3 13.4,-40.06 26.54,-80.2 40.3,-120.15 51.82,-15.16 103.94,-29.23 156.47,-41.68zm395.82 -67.4l0 0c-21.2,67.42 -43.66,134.4 -65.68,201.55 -4.48,13.63 -9.98,27.46 -19.93,38.12 -10.78,11.56 -26.99,16.57 -42.44,16.77 -7.68,0.05 -16.54,-3.05 -19.33,-10.91 -4.01,-11.13 -0.8,-23.18 2.25,-34.13 21.75,-65.71 44.15,-131.24 64.62,-197.35 -37.94,5.63 -75.53,13.54 -113,21.76 -19.29,58.56 -38.86,117.05 -58.45,175.5 -8.42,25.38 -18.75,50.47 -22.27,77.15 -1.65,14.87 -1.71,31.11 6.37,44.26 7.3,11.9 20.24,19 33.51,22.11 25.18,6.11 51.41,4.41 76.93,1.59 54.75,-8.8 109.04,-31.29 147.89,-71.86 26.7,-27.63 45.74,-62.16 57.03,-98.75 21.46,-67.64 43.08,-135.22 64.39,-202.89 -37.41,4.9 -74.68,10.91 -111.89,17.08z"/>
   </g>
   <path class="fil1" d="M812.61 1074.94c8.46,-9.7 16.48,-20.08 27.12,-27.56 10.66,-7.97 23.49,-12.74 36.76,-13.83 -12.4,12.14 -25.47,24.58 -31.57,41.28 -6.13,14.27 -5.3,30.08 -2.88,45.07 -10.22,-5.86 -19.57,-13.25 -27.21,-22.25l-0.58 -0.66 -0.14 -0.16 -0.01 0 -0.03 -0.04 -0.55 -0.63 -0.13 -0.15 -0.01 -0.02 -0.03 -0.03 -0.54 -0.64 -0.13 -0.15 -0.01 -0.02 -0.06 -0.07 -0.63 -0.75 -0.02 -0.03 -0.64 -0.79 -0.03 -0.03 -0.03 -0.04 -0.01 -0.02 -0.63 -0.78 -0.01 -0.02 -0.04 -0.04 -0.54 -0.7 -0.1 -0.12 -0.04 -0.05 -0.13 -0.18 -0.41 -0.52 -0.08 -0.12 -0.05 -0.06 -0.13 -0.17 -0.4 -0.53 -0.09 -0.11 -0.05 -0.07 -0.26 -0.35 -0.13 -0.18 -0.13 -0.18 -0.08 -0.1 -0.06 -0.08 -0.13 -0.17 -0.13 -0.18 -0.13 -0.18 -0.13 -0.18 -0.07 -0.09 -0.06 -0.09 -0.13 -0.18 -0.13 -0.17 -0.13 -0.18 -0.13 -0.18 -0.06 -0.09 -0.07 -0.09 -0.12 -0.18 -0.39 -0.54c-10.81,-15.23 -19.37,-32.22 -33.75,-44.5 -15.3,-12.92 -34,-21.22 -53.11,-26.77 -1.67,6.46 -3.11,12.94 -4.58,19.44 -31.26,-27.14 -39.86,-70.67 -41.84,-110.11 -5.66,4.57 -11.16,9.31 -16.72,13.99 -9.78,-32.18 -11.78,-67.16 -2.41,-99.67 3.21,-11.66 8.75,-22.44 13.74,-33.42 -5.1,0.52 -10.2,1.12 -15.27,1.67 6.54,-38.23 22.62,-76.39 52.06,-102.64 -1.39,-3.46 -2.77,-6.93 -4.1,-10.38 6.05,-2.9 12.18,-5.57 18.37,-8.1 -2.9,-6.95 -6.3,-13.65 -9.91,-20.25 6.03,0.45 12.09,1.05 18.12,1.67 -1.93,-10.08 -3.67,-20.19 -4.65,-30.39 4.68,2.52 9.22,5.23 13.76,7.97 10.73,-17.01 9.53,-37.65 14.9,-56.4 8.46,-31.48 20.84,-61.92 36.22,-90.66 18.06,-31.91 41.93,-60.77 70.74,-83.55 30.13,22.65 49.81,56.11 64.73,90.11 6.84,15.1 11.2,31.11 17.28,46.5 2.67,-6.13 5.19,-12.34 7.97,-18.44 4.1,5.83 7.82,11.89 11.29,18.12 4.7,-5.99 9.95,-11.51 15.83,-16.32 -0.24,4.1 -0.58,8.17 -0.89,12.27 5.12,-1.76 10.15,-3.92 15.56,-4.59 6.66,-0.4 12.9,2.48 19.09,4.55 -0.2,-4.03 -0.43,-8.04 -0.54,-12.07 5.95,4.7 11.16,10.2 15.88,16.12 3.29,-6.21 6.92,-12.25 10.84,-18.08 3.01,6.05 5.55,12.31 8.31,18.5 5.67,-15.07 10.1,-30.61 16.67,-45.35 15.03,-34.43 34.69,-68.61 65.44,-91.3 36.19,28.82 64.78,66.92 83.32,109.24 13.52,30.31 25.19,61.95 29.04,95.1 1.02,9.33 4.96,17.95 9.35,26.12 4.54,-2.65 9.08,-5.3 13.74,-7.73 -1.02,10.18 -2.74,20.24 -4.43,30.33 6.03,-0.71 12.04,-1.47 18.1,-2.16 -3.76,6.7 -7.3,13.54 -10.02,20.73 6.24,2.52 12.4,5.19 18.48,8.06 -1.38,3.52 -2.8,6.99 -4.21,10.51 29.51,26.18 45.27,64.48 52.04,102.62 -5.28,-0.66 -10.53,-1.38 -15.79,-2.04 23.2,40.16 25.25,89.57 11.91,133.35 -5.65,-4.54 -11.15,-9.31 -16.78,-13.9 -1.9,39.44 -10.76,82.72 -41.8,109.93 -1.56,-6.41 -3,-12.87 -4.63,-19.26 -18.59,5.21 -36.72,13.12 -51.72,25.43 -21.25,17.35 -30.22,44.87 -50.17,63.44 -7.12,7.39 -16.81,11.82 -23.49,19.68 -4.76,13.85 -8.48,28.05 -13.11,41.95 -1.7,0.22 -5.06,0.67 -6.75,0.87 7.04,-24.56 15.36,-48.77 22.15,-73.39 1.9,-7.28 -0.98,-14.61 -3.78,-21.24 -6.39,-15.46 -18.82,-26.95 -30.28,-38.61 26.92,1.73 48.18,20.77 63.41,41.5 6.35,-24.4 7.53,-50.19 3.21,-75.01 -2.12,-12.52 -7.51,-24.07 -12,-35.83 23.69,15.54 34.84,42.88 42.84,68.91 9.99,-6.28 18.72,-14.94 23.46,-25.91 11.47,-25.92 7.75,-57.54 -8.55,-80.63 13.59,5.59 25.72,14.76 34.09,26.9 7.42,10.22 10.8,22.53 15.92,33.91 9.8,-31.46 7.49,-67.74 -8.84,-96.7 -10.02,-18.02 -27.92,-29.28 -46,-37.95 19.26,-2.47 40.04,-1.51 56.83,9.36 13.64,7.7 21.97,21.28 30.75,33.73 1.69,-27.79 -9.8,-57.49 -33.72,-73.01 -18.43,-12.49 -41.34,-14.18 -62.94,-14.25 18.77,-13.69 41.9,-20.75 65.04,-21.22 11.09,-0.22 22,2.14 33.06,2.56 -4.63,-5.3 -10.26,-9.84 -17.05,-11.96 -25.14,-8.93 -52.42,-1.84 -77.91,-8.75 -24.07,-5.94 -45.51,-19.95 -63.02,-37.23 -15.18,-15.4 -27.94,-32.97 -41.23,-49.98 -7.84,-9.71 -13.36,-20.93 -19.95,-31.47 -4.19,-7.03 -12.87,-9.97 -20.69,-8.32 -15.12,3.02 -29.68,13.56 -34.07,28.83 -3.6,12.83 -1.58,26.48 -5.16,39.32 -2.34,11.05 -8.04,21.16 -16.19,28.95 7.82,-34.51 8.42,-70.61 1.78,-105.36 -2.45,-13.34 -8.66,-25.83 -18.21,-35.5 -11.56,10.29 -16.48,25.48 -18.91,40.31 -5.34,33.28 -4.85,67.59 2.85,100.48 -14.42,-13.11 -18.81,-33.37 -19.12,-52.12 -0.05,-11.74 -3.39,-24.09 -12.18,-32.36 -8.62,-7.94 -20.24,-14.14 -32.26,-12.62 -8.93,0.96 -13.77,9.51 -17.66,16.57 -9.11,17.52 -22.13,32.5 -34.18,48 -12.56,16.23 -26.56,31.6 -43.55,43.29 -22.6,16.36 -50.75,24.16 -78.54,22.73 -19.81,0.8 -43.97,0.16 -57.67,17.1 12.61,-0.51 25.19,-2.96 37.86,-1.8 21.48,1.38 42.1,9.22 60.2,20.66 -24.11,-0.4 -50.09,2.63 -69.29,18.64 -19.75,16.38 -28.83,42.97 -27.52,68.15 7.06,-9.13 13,-19.35 22.04,-26.74 17.24,-14.6 41.38,-19.55 63.33,-15.36 -9.78,5.9 -20.24,10.93 -28.68,18.79 -18.55,16.77 -27.77,41.82 -29.08,66.38 -0.53,16.38 -0.71,33.19 4.74,48.87 6.22,-12.91 9.47,-27.32 18.24,-38.92 8.28,-11.82 20.62,-20.57 34.76,-23.83 -17.46,19.75 -21.33,48.43 -14.65,73.3 4,14.79 14.18,27.28 27.21,35.16 7.37,-26.29 19.17,-53.5 42.84,-69.07 -3.63,9.44 -8.09,18.6 -10.56,28.46 -6.79,27.03 -5.1,55.53 1.25,82.47zm643.11 -1046.04c37.21,-6.17 74.48,-12.18 111.89,-17.08 -21.31,67.67 -42.93,135.25 -64.39,202.89 -11.29,36.59 -30.33,71.12 -57.03,98.75 -38.85,40.57 -93.14,63.06 -147.89,71.86 -25.52,2.82 -51.75,4.52 -76.93,-1.59 -13.27,-3.11 -26.21,-10.21 -33.51,-22.11 -8.08,-13.15 -8.02,-29.39 -6.37,-44.26 3.52,-26.68 13.85,-51.77 22.27,-77.15 19.59,-58.45 39.16,-116.94 58.45,-175.5 37.47,-8.22 75.06,-16.13 113,-21.76 -20.47,66.11 -42.87,131.64 -64.62,197.35 -3.05,10.95 -6.26,23 -2.25,34.13 2.79,7.86 11.65,10.96 19.33,10.91 15.45,-0.2 31.66,-5.21 42.44,-16.77 9.95,-10.66 15.45,-24.49 19.93,-38.12 22.02,-67.15 44.48,-134.13 65.68,-201.55zm132.95 -1.78c11.18,-1.2 22.31,-3.01 33.51,-4.07 -1.35,8.75 -4.25,17.16 -6.9,25.58 -22.2,71.7 -45.8,142.9 -68.56,214.42 -19.97,60.54 -65.86,110.6 -121.88,140.15 -51.53,27.01 -110.02,42.41 -168.4,39.18 -19.77,-1.18 -40.21,-5.34 -56.6,-17.07 -12.65,-8.89 -21.04,-23.03 -24.16,-38.06 8.42,5.88 16.63,12.32 26.39,15.9 26.43,10.31 55.53,9.84 83.38,7.95 21.56,-1.22 42.66,-6.23 63.28,-12.38 36.94,-11.2 72.12,-29.26 101.2,-54.86 34.32,-30.04 59.12,-70.03 73.77,-113 21.84,-67.85 43.04,-135.92 64.97,-203.74zm-191.33 28.88c6.48,-1.02 12.92,-2.23 19.37,-3.39 -20.75,66.16 -42.53,131.98 -64.84,197.59 -3.09,8.35 -13.51,8.78 -20.84,10.69 1.29,-7.92 3.43,-15.67 6.1,-23.22 20.44,-60.43 40.1,-121.13 60.21,-181.67zm-332.92 49.41c20.35,-4.32 41.37,-8.42 62.19,-5.21 12.35,1.96 25.09,9.59 28.67,22.24 4.19,16.34 1.54,33.8 -4.52,49.32 -7.21,18.08 -16.36,35.87 -30.43,49.63 -9.64,9.98 -21.45,17.37 -32.98,24.87 -4.34,2.19 -5.32,7.06 -6.81,11.23 13.04,4.96 29.26,7.9 36.71,21.13 6.8,14.05 1.83,30.12 -2.56,44.13 -18.12,48.18 -58.18,85.5 -103.74,107.9 -28.72,14.92 -60.54,21.75 -91.06,31.82 -15.59,-26.97 -36.19,-51.37 -62.46,-68.45 -14.65,9.38 -26.59,22.09 -39.68,33.36 29.84,-91.85 60.43,-183.45 91.23,-274.99 1.09,-4.5 4.43,-7.66 8.99,-8.48 48.56,-13.7 97.28,-27.08 146.45,-38.5zm-72.93 62.86l0 0c-9.37,26.65 -18.52,53.39 -27.18,80.26 26.56,-6.74 54.57,-11.73 77.55,-27.6 13.85,-9.94 25.58,-25.92 23.74,-43.78 -0.52,-9.66 -9.18,-17.15 -18.48,-18.06 -19.11,-2.54 -37.28,5.23 -55.63,9.18zm-48.98 138.07l0 0c-10.13,29.97 -21.2,59.67 -30.22,90 14.79,-3.43 29.31,-7.97 44.07,-11.54 20.82,-5.81 42.01,-13.8 57.98,-28.9 11.33,-10.93 20.33,-26.54 17.43,-42.79 -1.67,-9.91 -10.66,-17.1 -20.35,-18.4 -23.71,-3.89 -46.16,6.97 -68.91,11.63zm239.43 -160.45c8.24,22.6 5.21,47.6 -3.19,69.69 -7.95,21.53 -20.13,41.68 -36.87,57.54 -3.72,-8.82 -9.62,-16.46 -16.83,-22.69 31.44,-25.79 51.81,-64.35 56.89,-104.54zm-465.77 63.48c37.21,-12.87 74.26,-26.32 112,-37.59 -1.09,4.17 -2.25,8.31 -3.56,12.38 -37.59,112.54 -75.06,225.09 -112.07,337.78 -1.04,5.5 -6.94,6.55 -11.35,8.26 -34.14,11.65 -67.73,24.74 -101.51,37.34 12.73,-43.68 26.69,-86.99 40.83,-130.23 -25.22,8.53 -49.65,19.24 -74.21,29.46 -6.41,3.6 -16.54,4.2 -18.66,12.47 -12.85,39.47 -25.4,79.04 -37.14,118.85 -0.84,4.5 -3.47,8.37 -8.1,9.55 -35.47,14.1 -70.48,29.4 -105.61,44.38 33.24,-115.18 70.89,-229.01 107.19,-343.25 1.47,-4.46 2.53,-9.09 4.81,-13.23 2.65,-2.81 6.57,-3.9 9.95,-5.61 34.53,-15.01 68.73,-30.89 104,-44.09 -12.11,41.55 -27.52,82.1 -39.45,123.71 27.07,-10.37 53.7,-21.91 80.98,-31.82 4.32,-2.02 10.58,-2.87 11.8,-8.37 13.16,-40.06 26.7,-80.02 40.1,-119.99zm133.91 -25.14c6.28,-2.47 12.72,-4.61 19.24,-6.46 -38.34,113.27 -75.84,226.83 -112.91,340.52 -6.37,20.22 -14.21,39.97 -20.22,60.3 -45.6,16.12 -91.05,32.77 -135.62,51.54 -6.86,2.85 -13.72,5.72 -20.73,8.17 4.1,-13.71 8.66,-27.32 12.82,-41.01 45.16,-18.77 91.27,-35.16 137.39,-51.37 40.45,-120.41 80.02,-241.14 120.03,-361.69zm160.05 4.72c10.33,-2.76 20.66,-6.14 31.46,-6.28 -5.87,17.03 -23.55,24.98 -39.32,30.44 2.43,-8.13 5.23,-16.12 7.86,-24.16zm-365.01 69.27c5.86,-3.94 12.85,-5.72 19.44,-8.13 -6.23,21.2 -13.54,42.04 -20.24,63.06 -1.58,10.42 -14.2,10.42 -21.95,14.07 7.52,-23.02 14.76,-46.15 22.75,-69zm499.34 47.12c5.15,9.88 6.75,21.3 5.21,32.3 -2.54,19.69 -9.46,38.84 -19.75,55.76 -17.76,6.57 -30.83,21.15 -43.28,34.82 -11.18,12.32 -18.77,27.26 -28.37,40.62 -31.97,22.22 -69.63,34.06 -106.76,44.28 -3.41,0.05 -6.26,-2.45 -8.91,-4.25 -4.34,-7.73 -7.13,-16.23 -11,-24.18 23.94,-8.06 48.61,-13.96 71.94,-23.67 54,-22.24 102.74,-61.68 128.01,-115.16 6.75,-12.65 9.82,-26.67 12.91,-40.52zm-183.22 21.73c15.36,-4.01 30.66,-10.16 46.84,-8.86 -1.49,13.58 -12.82,23.24 -24,29.59 -10.69,6.01 -22.33,10.15 -34.18,13.31 3.47,-11.44 7.62,-22.69 11.34,-34.04zm-153.11 156.57l0 0c-14.02,26.48 -28.12,53 -39.54,80.7 -3.41,6.59 1.02,13.31 1.51,20.01 -2.27,7.86 -8.39,14.23 -9.97,22.31 3.34,9.53 11.06,16.39 18.3,22.98 -8.35,-0.29 -16.34,-2.78 -24.25,-5.25 4.41,11.69 13.7,20.46 24.16,26.83 -7.01,3.94 -14.67,6.5 -22.29,9.02 13.45,9.48 31.33,10.26 46.52,4.76 14.65,-5.05 30.81,-12.6 36.58,-28.17 -4.23,0.52 -8.46,1.14 -12.69,1.7 2.71,-5.04 5.74,-9.93 7.9,-15.21 3.81,-7.01 -2.69,-14.3 -8.04,-18.3 -7.57,-5.46 -16.61,-0.78 -24.31,1.71 2.6,-5.32 4.9,-11.13 9.57,-15.05 5.04,-4.28 11.47,-6.37 17.53,-8.75 -2.21,-9.26 -10.07,-14.94 -18.53,-18.15 6.82,-4.32 14.9,-4.03 22.56,-2.83 -2.21,-8.37 -6.13,-16.07 -10.89,-23.24 10.84,0.24 17.9,8.64 23.45,16.92 7.21,-6.97 9.3,-16.9 9.39,-26.56 3.05,6.25 7.28,12.64 6.53,19.97 -1.34,11.76 -6.04,23.4 -3.72,35.36 1.53,8.32 8.35,14.96 16.41,17.12 11.35,2.96 23.27,1.45 34.6,-0.85 1.56,-20.97 1.69,-42.46 -4.16,-62.85 -4.37,-17.04 -14.54,-32.4 -28.95,-42.55 2.69,-7.98 4.7,-16.17 5.21,-24.56 -7.95,3.18 -15.36,7.43 -22.56,12.04 0.49,-13.96 0.23,-28.05 -3.11,-41.68 -22.29,4.07 -37.3,23.62 -47.21,42.57zm319.34 -42.72l0 0c-3.07,13.51 -3.31,27.43 -2.87,41.21 -7.12,-4.63 -14.67,-8.64 -22.71,-11.38 -0.07,8.44 2.16,16.61 5.03,24.49 -9.19,7.15 -17.83,15.5 -22.8,26.21 -11.8,24.49 -12.82,52.64 -10.31,79.27 10.85,2.18 22.14,3.54 33.07,1.18 8.59,-1.87 16.12,-8.71 17.83,-17.5 2.1,-11.31 -1.76,-22.4 -3.6,-33.42 -1.47,-7.15 2.13,-13.85 5.12,-20.07 1.85,8.96 4.36,17.95 10.42,25.05 5.65,-8.66 13.11,-16.67 24.02,-17.83 -4.85,7.35 -8.99,15.16 -11.24,23.71 7.75,-1.11 15.9,-1.31 22.8,2.99 -8.88,2.82 -16.54,8.9 -18.62,18.36 6.13,2.3 12.74,4.17 17.68,8.67 4.43,4.05 6.86,9.64 9.53,14.89 -5.81,-1.67 -11.51,-4.74 -17.7,-4.27 -8.08,1.13 -14,8.24 -16.23,15.7 1.23,7.48 5.94,13.78 9.49,20.35 -4.39,-0.47 -8.78,-0.96 -13.14,-1.32 8.62,15.12 25.32,22.67 40.79,28.86 13.8,5.79 31.02,3.92 42.24,-6.37 -7.55,-2.07 -15.01,-4.54 -21.84,-8.44 10.44,-6.39 19.46,-15.32 23.98,-26.89 -7.86,2.27 -15.72,4.78 -23.96,5.32 6.83,-6.95 14.83,-13.59 17.99,-23.16 -1.34,-10.29 -13.63,-18.33 -8.57,-29.15 2.02,-5.27 1.51,-10.93 -0.94,-15.94 -12.29,-28.48 -26.63,-56.02 -41.48,-83.21 -9.66,-16.87 -24.11,-33.2 -43.98,-37.31zm-556.27 50.61c9.62,-4.61 19.57,-8.55 29.57,-12.27 -3.79,13.73 -8.2,27.3 -12.36,40.95 -0.96,6.25 -8.08,6.96 -12.74,9.41 -14.4,42.35 -27.38,85.19 -41.14,127.77 -53.06,20.53 -104.41,45.15 -156.71,67.42 4.16,-14.05 7.28,-28.52 12.58,-42.2 44.42,-21.08 90.15,-39.39 135.58,-58.22 2.98,-0.89 3.16,-4.59 4.25,-6.97 11.76,-39.86 24.16,-79.49 36.87,-119.04 1.14,-2.33 1.38,-5.76 4.1,-6.85zm286.43 242.45c5.99,-6.43 12.51,-14.98 22.22,-14.72 17.3,4.1 28.17,19.6 36.59,34.12 6.36,11.33 16.12,19.95 25.71,28.43 4.59,-0.62 9.22,-1.03 13.88,-1.36 2.87,-6.01 3.42,-12.65 2.87,-19.21 3.72,1.98 7.52,3.8 11.33,5.67 -3.29,5.04 -5.9,11.25 -11.49,14.19 -5.3,2.02 -11.11,1.13 -16.59,0.71 -4.61,-2.32 -9.01,-5.03 -13.31,-7.84 -12.89,13.54 -39.46,16.7 -51.01,-0.02 -5.5,-8.88 -6.91,-20.44 -2.9,-30.19 1.83,-4.12 2.38,-8.55 1.25,-12.92 -6.26,0.58 -12.4,1.87 -18.55,3.14zm29.5 4.54l0 0c-11.33,10.38 -7.79,31.4 6.55,37.19 9.66,4.94 20.35,0.13 28.39,-5.66 -5.28,-8.84 -10.49,-17.83 -17.77,-25.2 -1.8,2.82 -4.94,5.39 -4.67,9.08 -1.3,7.44 8.48,6.15 13.07,7.68 -2.83,3.17 -5.64,7.46 -10.45,7.33 -7.99,0.8 -14.47,-7.5 -13.78,-15.07 -0.31,-6.71 4.99,-11.49 8.46,-16.59 -3.36,-0.25 -7.59,-2.52 -9.8,1.24zm179.89 13.03c7.88,-13.4 18.17,-27.28 33.8,-31.82 10.02,-1.49 17.68,6.9 23.18,14.1 -6.57,-1.07 -13.54,-4.03 -19.86,-0.41 2.03,7.51 5.94,14.7 5.5,22.69 0.02,11.83 -6.64,24.81 -18.75,28.02 -13.02,3.13 -27.81,0.04 -37.16,-9.96 -3.1,1.61 -6.24,3.16 -9.42,4.57l0.33 1.76c-0.78,0.17 -2.36,0.53 -3.13,0.71 -6.62,0.8 -14.34,2.92 -20.2,-1.38 -4.3,-3.74 -6.77,-8.97 -9.55,-13.81 3.69,-1.09 7.34,-2.2 11.04,-3.29 0.47,5.1 -0.36,10.75 2.43,15.34 3.81,4.83 10.97,2.09 16.28,3.14l-0.36 -1.83c0.8,-0.18 2.38,-0.49 3.16,-0.64 8.57,-8.18 16.86,-16.81 22.71,-27.19zm19.66 -14.25l0 0c3.1,5.9 8.02,11.55 7.37,18.66 0.47,8.01 -7.61,14.41 -15.25,13.38 -4.88,-0.76 -7.24,-5.48 -9.88,-9.02 4.34,-0.38 8.72,-0.71 13.07,-1.2 0.02,-4.23 1.17,-12.87 -5.42,-11.91 -6.79,6.41 -10.97,14.94 -15.83,22.8 5.86,4.03 12.45,7.95 19.86,7.32 11.94,-0.22 21.89,-11.62 21.02,-23.44 -0.06,-6.73 -4.32,-12.16 -8.17,-17.24 -1.69,0.16 -5.08,0.49 -6.77,0.65zm-291.51 153.77c8.51,-5.19 18.82,-8.02 28.59,-4.88 16.01,5.08 28.35,17.44 38.86,30.06 10.04,12.72 19.35,26.34 25.11,41.57l1.76 0.27c-0.06,0.83 -0.15,2.5 -0.2,3.32l1.78 0.27c-0.02,0.84 -0.04,2.49 -0.06,3.34 0.67,0.49 1.98,1.47 2.65,1.96l-0.94 1.55c10.91,18.13 20.15,38.55 38.01,51.1 9.02,6.8 21.62,8.67 31.97,3.77 10.49,-4.83 21.71,-12.65 23.36,-25.01 1.2,-11.71 2.83,-25.65 -5.9,-35 -7.75,-8.73 -17.66,-15.7 -22.69,-26.56 5.52,-2.68 11.22,-4.97 16.92,-7.29 -0.62,-4.45 1.07,-10.3 -3.47,-13.11 -11.69,-2.72 -22.22,5.05 -33.33,7.33 1.18,-9.53 1.91,-22.69 12.87,-26.12 14.07,-4.52 28.86,0.58 43.26,-0.47 13.38,0.49 27.5,-4.32 40.3,1.27 9.47,4.41 9.8,16.28 11.18,25.21 -11.13,-2.17 -21.57,-9.74 -33.29,-7.35 -4.47,2.87 -3.38,8.68 -3.83,13.2 5.75,2.32 11.47,4.7 17.04,7.46 -6.3,15.07 -24.47,21.55 -28.59,37.7 -0.94,11.93 -2.74,25.98 5.39,35.98 10.46,11.62 27.92,20.08 43.21,12.82 20.51,-10.02 30.46,-31.66 42.35,-49.78l-1.04 -1.49c0.64,-0.47 1.93,-1.39 2.6,-1.85 7.06,-20.29 18.91,-38.68 32.4,-55.29 10.87,-12.36 23.51,-25.07 40.21,-28.57 8.42,-2.02 16.97,0.58 24.41,4.5 -10.76,1.65 -22,3.96 -29.48,12.58 5.47,3.18 11.51,5.54 16.45,9.58 4.21,3.69 4.79,9.59 5.95,14.71 -6.15,-5.07 -12.03,-11.6 -20.44,-12.47 -12.01,-2.07 -22.96,4.39 -32.6,10.63 7.81,3.38 15.85,6.72 22.31,12.49 -11.54,-1.74 -24.58,-5.62 -35.05,1.71 -11.82,6.48 -17.72,18.97 -24.16,30.13 0.07,0.8 0.2,2.4 0.27,3.18l-1.83 0.16c-3.89,16.96 -12.24,32.46 -19.34,48.23 -6.97,12.71 -12.61,26.67 -23.03,37.05 -5.23,5.74 -13.31,4.2 -20.13,3.38 -1,4.88 -1.96,9.78 -2.85,14.7 -4.16,-2.21 -8.26,-4.52 -12.33,-6.88 -2.56,3.85 -5.06,7.74 -7.51,11.66 -3.8,-2.98 -7.52,-6.07 -11.2,-9.19 -3.54,3.12 -7.08,6.21 -10.68,9.26 -2.45,-3.92 -4.95,-7.79 -7.49,-11.62 -4.23,2.25 -8.41,4.56 -12.71,6.7 -0.8,-4.85 -1.62,-9.71 -2.56,-14.52 -5.74,0.2 -12.25,2.23 -17.39,-1.29 -7.5,-5.32 -11.89,-13.69 -16.41,-21.44 -12.25,-22.82 -23.6,-46.36 -31.13,-71.19l-1.78 -0.2c0.02,-0.82 0.05,-2.49 0.07,-3.31 -0.65,-0.52 -1.96,-1.54 -2.63,-2.05l0.91 -1.56c-0.64,-0.51 -1.91,-1.54 -2.56,-2.05l1 -1.54c-6.76,-7.26 -12.98,-15.72 -22.39,-19.7 -9.78,-4.61 -20.56,-0.98 -30.64,0.33 6.14,-6.03 14.29,-9.02 22.04,-12.38 -9.42,-6.48 -20.42,-12.29 -32.24,-10.82 -8.31,0.71 -14.23,7.13 -20.4,12 1.61,-4.76 2.65,-10.04 6.24,-13.8 4.34,-4.26 10.15,-6.37 15.41,-9.18 -6.86,-10.13 -19.44,-11.64 -30.58,-13.2zm151.35 148.67l0 0c1.13,6.7 2.42,14.14 7.99,18.75 4.45,1.98 9.51,1.42 14.27,1.62 -1.15,2.85 -2.27,5.73 -3.34,8.62 5.03,-2.51 9.96,-5.25 14.92,-7.86 0.23,4.88 0.42,9.78 0.74,14.67 3.58,-4.23 6.9,-8.63 10.28,-13 3.25,4.25 6.44,8.55 9.91,12.67 0.31,-4.79 0.56,-9.57 0.87,-14.34 4.79,2.52 9.57,5.1 14.47,7.48 -0.73,-2.76 -1.47,-5.47 -2.22,-8.19 4.63,-0.31 9.73,0.47 13.91,-2.03 5.41,-4.43 6.35,-11.8 7.84,-18.19 -7.79,-3.63 -14.81,-8.77 -22.76,-12.04 -7.32,-0.94 -14.54,1.73 -21.88,1.46 -7.37,0.32 -14.57,-2.31 -21.91,-1.58 -8.09,3.16 -15.12,8.49 -23.09,11.96zm139.83 47.96c14.18,-0.67 28.41,-3.16 42.59,-1.82 4.63,2.45 2.59,8.24 1.96,12.31 -12.22,41.37 -25.98,82.32 -37.38,123.91 14.85,-13.07 29.68,-26.3 43.15,-40.79 -0.69,-2.94 -1.4,-5.86 -2.14,-8.77 11.89,-2.12 23.81,-4.48 35.92,-4.88 1.27,5.97 -0.58,12.02 -5.21,16.08 -16.46,15.69 -32.98,31.35 -49.21,47.29 10.8,16.88 19.1,35.85 33.47,50.14 -11.36,2.41 -22.11,7.04 -33.51,9.2 -6.19,1.65 -10.76,-3.52 -13.81,-8.11 -6.44,-9.75 -11.76,-20.17 -18.44,-29.77 -3.76,12.87 -8.01,25.61 -11.82,38.48 -1.69,4.65 0.47,9.35 1.67,13.85 -14.61,4.52 -28.55,13.65 -44.26,12.78 -1.47,-7.24 -1.36,-14.72 1.06,-21.75 18.71,-60.7 37.63,-121.33 56.05,-182.12 2.58,-8.44 5.25,-18.06 -0.09,-26.03zm-16.34 4.39c4.09,0.69 8.19,1.51 12.26,2.4 -0.09,1.63 -0.26,4.86 -0.35,6.48 -3.99,-0.75 -7.97,-1.51 -11.94,-2.31 0,-1.63 0,-4.92 0.03,-6.57zm173.63 6.55c6.21,3.83 13.16,7.83 15.78,15.11 6.59,15.08 -4.07,33.07 -18.9,38.03 -11.71,1.96 -25.38,4.01 -34.67,-5.29 5.28,0.26 9.71,4.23 15.14,3.85 17.26,1.11 35.29,-13.21 34.09,-31.33 0.07,-8.44 -6.3,-14.5 -11.44,-20.37zm-24.21 5.67c11.29,-4.16 27.01,1.81 28.28,14.88 1.38,21.15 -30.41,33.31 -43.19,16.12 -8.6,-11.98 2.38,-27.72 14.91,-31zm-413.64 47.27c3.86,-1.15 9.51,-3.31 11.87,1.43 1.32,5.88 -0.17,11.91 -1.84,17.57 -25.5,83.52 -51.22,166.95 -76.89,250.42 -3.52,12.14 -8.42,24.01 -9.91,36.66 4.25,0.51 8.53,0.84 12.83,1.02 -19.58,10.53 -36.97,24.54 -55.62,36.47 -3.66,3.01 -8.8,1.76 -10.74,-2.54 0.4,-12.71 6.42,-24.33 9.69,-36.43 10.4,-34.97 22.02,-69.6 31.37,-104.87 -19.21,9.78 -36.51,22.87 -53.61,35.89 -5.3,4.35 -11.94,8.2 -13.77,15.3 -12.86,39.88 -25.6,79.8 -38.18,119.77 -1.45,5.61 -4.48,12.31 -0.36,17.55 3.01,1.8 6.5,2.45 9.8,3.58 -14.12,11.74 -28.68,22.94 -42.88,34.6 -4.66,3.9 -10.67,7.24 -16.93,5.5 -5.03,-1.8 -5.96,-7.72 -5.94,-12.36 -0.78,-12.11 4.94,-23.11 8.39,-34.37 30.13,-94.26 59.63,-188.69 88.67,-283.27 2.13,-8.04 5.27,-16.44 3.54,-24.83 -2.56,-4.94 -9,-4.34 -13.59,-5.88 15.34,-7.59 30.71,-15.05 46.14,-22.44 5.16,-2.16 11.73,-5.5 16.92,-1.63 5.21,3.79 3.23,11.07 2.05,16.34 -12.29,42.62 -26.59,84.68 -38.63,127.37 19.39,-9.58 37.56,-21.47 57,-30.98 5.32,-1.8 6.52,-7.5 8.04,-12.22 10.64,-35.27 21.8,-70.36 32.35,-105.65 1.29,-5.68 3.96,-12.36 0.13,-17.62 -3.74,-2.29 -8.08,-3.2 -12.2,-4.47 17.73,-5.88 34.78,-13.54 52.3,-19.91zm19.67 13.25c0.8,-2.54 1.78,-4.99 2.94,-7.35 4.45,12.25 -1.52,24.43 -4.77,36.14 -7.48,24.29 -14.81,48.65 -22.47,72.92 -1.78,0.58 -5.36,1.76 -7.14,2.36 10.15,-34.8 21.5,-69.22 31.44,-104.07zm430.27 11.27c2.38,-8.6 9.02,-16.79 18.54,-17.21 17.82,-1.56 35.72,0.44 53.6,0.33 5.79,0.83 13.92,-0.87 17.63,4.79 1.36,9.53 -2.91,18.61 -5.34,27.63 -1.98,5.43 -2.76,11.56 -6.26,16.28 -17.21,2.05 -34.64,1.51 -51.85,3.69 -2.45,6.02 -4.17,12.36 -3.79,18.93 16.83,1.78 33.89,-0.36 50.5,-3.16 -2.05,7.52 -4.36,15 -6.5,22.53 -22,2.96 -44.18,4.61 -66,8.68 -5.5,0.58 -12.6,2.68 -16.56,-2.51 -5.13,-6.81 -3.46,-16.17 -1.25,-23.78 5.94,-18.68 11.47,-37.5 17.28,-56.2zm36.94 3.61l0 0c-3.72,5.05 -4.5,11.57 -6.55,17.39 7.04,-0.12 14.1,-0.38 21.15,-0.67 1.16,-6.17 4.7,-12.6 2.59,-18.88 -5.15,-4.28 -12.76,-1.96 -17.19,2.16zm-86.33 -17.73l1.89 -0.26c9.8,0 19.58,-0.81 29.35,-1.19 -8.24,29.8 -18.17,59.08 -26.92,88.69 -2.2,5.81 -0.51,11.82 1.63,17.35 -11.4,2.2 -22.45,6.07 -33.89,7.9 -4.21,0.96 -8.71,-2.25 -8.91,-6.57 -0.56,-6.45 1.65,-12.69 3.43,-18.77 5.28,-16.32 10.17,-32.77 15.32,-49.14 3.52,-11.69 8.57,-23.45 7.06,-35.94 3.67,-0.66 7.34,-1.38 11.04,-2.07zm39.52 -0.13c1.29,0.51 3.9,1.56 5.19,2.07 -9.19,31.86 -19.53,63.41 -28.45,95.37 -1.52,-0.18 -4.52,-0.54 -6.02,-0.72 8.73,-32.53 19.51,-64.48 29.28,-96.72zm118.82 31.86c-3.74,-13.56 5.96,-30.5 20.97,-30.17 15.14,0.94 29.9,5.03 44.82,7.59 -1.4,6.91 -3.45,13.67 -5.23,20.49 -10.84,-6.32 -23.62,-7.24 -35.76,-8.93 6.99,14.72 17.08,27.83 22.96,43.06 3.76,9.04 -1.05,22.4 -11.6,23.69 -8.04,0.94 -16.1,-0.2 -24.12,-0.2 -9.88,-0.33 -20.31,1.36 -29.5,-3.2 0.67,-7.33 2.71,-14.41 5.03,-21.36 8.08,9.02 21.13,5.19 31.82,6.17 -6.06,-12.58 -15.7,-23.51 -19.39,-37.14zm-19.91 9.35c4.39,-11.71 5.97,-24.42 11.4,-35.73 3.12,10.75 -0.49,21.77 -3.61,32.08 -7.26,21.93 -13.51,44.2 -20.68,66.18 -25.25,2.45 -50.46,5.32 -75.46,9.62 -7.75,1.67 -15.08,-2.61 -19.44,-8.76 5.99,0.4 12.04,1.45 18.03,0.27 21.85,-3.81 43.89,-6.43 66,-8.41 2.29,-0.72 6.32,0.11 7.15,-2.88 6.3,-17.21 10.31,-35.16 16.61,-52.37zm-161.03 -32.55c2.98,-2.38 6.19,2.85 3.56,5.03 -2.91,2.25 -6.14,-2.91 -3.56,-5.03zm-3.36 1.54c3.98,8.23 2.45,18.28 -4.41,24.51 -15.25,14.47 -30.08,29.44 -45.71,43.51 -1.43,-2.56 -2.85,-5.1 -4.26,-7.62 14.66,-14.71 29.84,-28.88 44.85,-43.21 4.99,-4.57 6.95,-11.18 9.53,-17.19zm257.28 3.14c3.9,-2.68 6.17,2.11 4.72,5.38 -3.31,11.2 -6.9,22.38 -10.82,33.38 -1.33,5.39 -9.82,1.65 -7.37,-3.05 6.62,-11.07 8.8,-23.89 13.47,-35.71zm-328.47 22.22c1.52,-7.33 3.86,-14.45 6.26,-21.51 3.72,0.84 7.48,1.6 11.18,2.58 1.2,2.81 -2.07,3.68 -3.68,5.19 -5.23,3.87 -8.75,9.57 -13.76,13.74zm-370.82 -15.9c7.15,-1.29 14.43,-1.47 21.65,-0.89 -0.14,1.78 -0.41,5.36 -0.56,7.17 -7.33,0.67 -14.67,1.27 -22.02,1.16 0.24,-1.85 0.71,-5.57 0.93,-7.44zm560.78 2.4c3.36,-1.8 4.6,3.54 1.49,4.57 -3.3,1.82 -4.77,-3.72 -1.49,-4.57zm104.27 8.33c4.43,0.71 8.84,1.56 13.25,2.41 0.2,1.8 0.58,5.43 0.78,7.23 -6.62,-0.02 -11.67,-3.49 -14.03,-9.64zm-418.36 15.99c17.59,-5.06 35.25,-10 53.15,-13.87 -3.67,12.33 -7.48,24.64 -11.11,37.03 -4.25,-1.18 -8.66,-2.63 -13.05,-1.38 -11.49,2.53 -22.62,6.36 -33.91,9.59 7.61,14.56 15.7,28.9 23.45,43.42 8.06,14.65 3.07,33.47 -7.6,45.45 -9.75,10.86 -24.31,14.74 -37.05,20.82 -10,4.09 -19.55,9.39 -29.99,12.26 -5.55,1.87 -13.63,-2.09 -12.38,-8.64 2.25,-12.69 7.19,-24.71 10.49,-37.13 4.16,1.33 8.57,3.62 13.02,1.91 10.51,-3.1 20.4,-7.91 30.57,-11.94 -5.52,-12.8 -13.89,-23.98 -20.79,-35.98 -6.75,-11.66 -7.62,-27.18 0.11,-38.59 7.75,-12.31 21.51,-19.1 35.09,-22.95zm61.65 -13.87c1.25,0.84 3.77,2.56 5.02,3.4 -5.59,20.89 -12.59,41.37 -18.64,62.13 -1.52,-0.23 -4.54,-0.69 -6.06,-0.94 -2.54,-4.99 2.41,-9.15 3.63,-13.76 5.88,-16.77 10.15,-34.07 16.05,-50.83zm-329.56 10.48c4.77,9.04 2.23,19.26 -0.89,28.35 -8.68,28.41 -17.39,56.82 -26.21,85.19 -0.82,4.52 -5.4,6.08 -8.83,8.22 11.08,-40.84 26.07,-80.59 35.93,-121.76zm571 13.99c13.02,-0.92 26.07,-2.43 39.16,-1.61 -12.38,7.66 -27.9,4.77 -41.77,6.48 0.65,-1.22 1.96,-3.65 2.61,-4.87zm-375.9 10.26c4.03,-1.11 9.91,-2.69 12.16,2.12 2.67,5.74 0.6,12.22 -0.92,18.01 -11.55,36.85 -22.84,73.81 -33.95,110.82 -2.03,5.5 -0.38,11.18 1.73,16.39 -10.97,5.74 -21.99,11.38 -33.13,16.79 -4.54,2.36 -9.88,2.91 -14.78,1.42 -1.76,-2.74 -2.96,-5.77 -4.32,-8.66 -10.76,12 -20.35,25.27 -33.09,35.27 -10.06,7.15 -27.72,7.7 -33.84,-4.77 -3.54,-11.53 -0.18,-23.75 3.14,-34.95 9.01,-29.51 18.01,-59.03 27.36,-88.42 1.92,-6.26 4.94,-14.08 -1.8,-18.53 14.34,-6.39 28.45,-13.91 43.75,-17.59 7.59,-2.25 10.53,6.82 7.99,12.54 -10.84,35.27 -21.77,70.51 -32.28,105.87 -1.74,5.26 -1.49,10.85 -0.49,16.26 7.86,-4.97 14.74,-11.25 21.57,-17.48 4.08,-3.41 5.06,-8.89 6.66,-13.63 10.31,-34.07 21.11,-67.98 31.17,-102.09 2.21,-5.79 1.32,-11.87 -2.58,-16.65 12.09,-3.7 23.63,-8.93 35.65,-12.72zm510.23 -1.91c4.81,12.16 3.87,28.79 -8.69,35.85 -10.93,4.83 -23.31,1.51 -34.86,1.91 -11.43,-0.4 -26.39,2.78 -33.11,-9.22 16.99,1.36 34.04,1.38 51.05,1.94 7.64,0.27 15.54,-3.05 19.84,-9.53 4.3,-6.12 4.34,-13.89 5.77,-20.95zm-796.75 7.5c7.15,-2.45 14.69,-3.18 22.18,-3.54 0,2.61 0,5.21 -0.03,7.84 -7.01,1.22 -14.09,2.18 -21.22,2.56 -0.22,-1.72 -0.69,-5.14 -0.93,-6.86zm309.19 0.91c3.27,7.93 2.04,16.93 -0.07,25.01 -11.31,35.8 -22.2,71.78 -32.95,107.77 -1.54,-0.07 -4.61,-0.25 -6.15,-0.34 11.85,-44.48 27.52,-87.9 39.17,-132.44zm56.51 8.62c9.31,-2.85 18.7,-5.59 28.32,-7.28 0.09,2.87 0.18,5.74 0.27,8.64 -8.08,2.14 -16.1,4.43 -24.14,6.7 -1.49,-2.69 -2.98,-5.39 -4.45,-8.06zm-125.09 5.63c2.45,-0.24 4.94,-0.13 7.41,-0.04 -1.67,3.07 -1.8,9.06 -6.79,7.35 -1.07,-2.32 -1.98,-4.92 -0.62,-7.31zm-4.32 13.23c2.62,5.66 3.87,12 1.87,18.08 -5.86,21.06 -12.74,41.86 -19.02,62.81 -3.87,11.03 -4.76,24.52 -15.92,31.04 9.87,-37.65 23.29,-74.28 33.07,-111.93zm306.36 19.06c22.71,1.54 43.53,-10.8 66.13,-11.16 0.26,2.9 2.09,8.06 -2.67,8.22 -15.75,3.39 -31.33,7.55 -47.03,11.09 -6.9,1.62 -12.51,-3.14 -16.43,-8.15zm-89.8 14.81c2.16,-8.66 4.63,-17.28 8.04,-25.56 7.03,8.19 -0.2,17.96 -2.03,26.72 -1.49,-0.29 -4.5,-0.87 -6.01,-1.16zm-288.8 -15.37c2.61,0.45 5.22,0.94 7.82,1.47 -3.38,7.48 -6.37,15.17 -8.53,23.09 -14.94,48.14 -29.46,96.44 -44.66,144.49 -1.7,0.11 -5.08,0.38 -6.77,0.49 17.48,-56.49 35.02,-112.96 52.14,-169.54zm326.36 16.7c18.33,-3.05 35.4,-11.73 54.02,-13.42 0.49,2.38 0.98,4.76 1.45,7.19 -13.14,4.32 -26.52,7.84 -39.75,11.82 -5.68,1.47 -11.64,3.85 -17.5,1.96 -6.32,-1.8 -10.22,-7.41 -14.32,-12.09 5.12,2.16 10.29,5.39 16.1,4.54zm-100.58 -8.06c10.49,22.96 -1.84,51.64 -23.66,62.93 -13.63,6.79 -27.84,12.33 -41.71,18.63 -7.32,3.05 -14.96,7.2 -23.18,5.95 -5.45,-0.49 -8.79,-5.17 -12.27,-8.8 16.44,4.26 30.95,-5.96 45.54,-11.69 15.14,-7.1 32.64,-11.84 43.35,-25.62 9.6,-11.45 12.63,-26.79 11.93,-41.4zm-81.09 14.34c3.25,-2.58 6.75,3.12 3.85,5.5 -3.14,2.32 -6.94,-3.25 -3.85,-5.5zm91.94 22.33c22.26,-0.69 41.5,-13.93 62.92,-18.28 3.45,-0.86 7.17,2.79 5.24,6.1 -4.19,3.32 -9.69,4.24 -14.55,6.17 -12.75,4.1 -25,9.76 -37.94,13.18 -6.48,2.03 -11.64,-2.85 -15.67,-7.17zm-364.08 70.88c13.3,-10.33 26.39,-21.15 41.2,-29.3 -1.81,4.96 -1.74,11.6 -6.62,14.83 -11.8,8.79 -24.4,16.85 -34.91,27.2 -14.14,40.55 -26.03,81.95 -39.77,122.62 -1.4,0.72 -4.23,2.16 -5.65,2.88 0.4,-6.01 1.91,-11.83 3.76,-17.53 11.07,-34.95 22.27,-69.87 33.42,-104.8 1.87,-5.75 3.1,-12.41 8.57,-15.9zm237.27 -16.48c3.61,-1.8 7.62,-2.29 11.56,-2.89 0.49,1.49 1.49,4.45 1.98,5.92 -16.17,9.02 -32.93,16.94 -49.52,25.16 -6.79,3.63 -14.43,1.65 -21.22,-0.82 -8.62,9.82 -17.28,19.84 -27.85,27.61 -13.07,8.7 -33.74,8.15 -42.8,-6.08 10.49,3.58 22.22,5.81 32.71,0.84 13.69,-6.61 23.09,-19.14 33.29,-29.99 6.48,2.16 13.71,3.88 20.24,0.8 14.14,-6.28 27.63,-13.94 41.61,-20.55zm-147.15 79.6c3.69,-2.58 8.19,-2.09 12.4,-1.47 -1.05,3.32 -2.41,6.71 -5.79,8.26 -19.19,11.72 -37.72,24.47 -56.2,37.26 -5.66,3.6 -11.42,8.32 -18.48,8.14 -4.79,-0.35 -7.62,-4.67 -10.65,-7.79 6.24,-0.55 13.01,-0.35 18.26,-4.34 20.22,-13.25 39.66,-27.7 60.46,-40.06zm-120.38 82.61c3.83,-3.16 8.78,-4.12 13.52,-4.92 -1.09,3.87 -2.23,7.99 -5.77,10.42 -13,10.71 -26.23,21.13 -39.19,31.91 -8.46,6.77 -16.45,14.4 -26.34,19.1l-7.77 0c-5.19,-1.82 -9.28,-5.54 -13.11,-9.33 8.26,0.76 17.66,2.39 24.62,-3.38 18.4,-14.12 35.81,-29.48 54.04,-43.8z"/>
  </g>
 </g>
</svg>
