<?xml version="1.0" encoding="UTF-8"?>
<!DOCTYPE svg PUBLIC "-//W3C//DTD SVG 1.1//EN" "http://www.w3.org/Graphics/SVG/1.1/DTD/svg11.dtd">
<!-- Creator: CorelDRAW -->
<svg xmlns="http://www.w3.org/2000/svg" xml:space="preserve" width="2000px" height="1600px" version="1.1" style="shape-rendering:geometricPrecision; text-rendering:geometricPrecision; image-rendering:optimizeQuality; fill-rule:evenodd; clip-rule:evenodd"
viewBox="0 0 2000 1600"
 xmlns:xlink="http://www.w3.org/1999/xlink">
 <defs>
  <style type="text/css">
   <![CDATA[
    .fil2 {fill:#00253C;fill-rule:nonzero}
    .fil3 {fill:#6B818D;fill-rule:nonzero}
    .fil1 {fill:#D21F2E;fill-rule:nonzero}
    .fil0 {fill:#FEFEFE;fill-rule:nonzero}
   ]]>
  </style>
 </defs>
 <g id="Capa_x0020_1">
  <metadata id="CorelCorpID_0Corel-Layer"/>
  <g id="Howard_x0020_Bison.cdr">
   <path class="fil0" d="M698.21 781.05c1.83,-2.07 5.2,-3.09 5.78,0.55 -7.95,15.29 -15,31.68 -15.42,49.19 -1.16,22.87 9.27,45.96 27.26,60.14 18.99,15.12 43.31,22.23 67.25,23.88 -14.96,6.53 -28.56,17.37 -36.73,31.63 0.15,4.55 5.8,3.2 8.79,4.2 6.32,0.93 15.22,4.2 15.24,11.82 -1.74,7.69 -5.55,14.84 -6.44,22.78 -1.94,9.66 0.72,19.46 4.58,28.31 -15.72,-1.19 -30.21,-8.24 -43.7,-15.95 -24.69,-14.7 -46.72,-34.47 -62.37,-58.73 -14.64,-22.58 -22.35,-50.61 -16.87,-77.38 6.27,-32.49 28.2,-59.31 52.63,-80.44zm490.09 291.64c5.69,-5.34 12.96,-8.4 20.19,-10.96 4.94,3.21 5.33,9.6 6.52,14.84 1.9,9.52 -0.88,20.12 -8.24,26.69 -9.34,8.64 -21.9,12.3 -33.23,17.57 -2.67,-17.02 1.51,-36.32 14.76,-48.14zm-400.81 -5.96c0.51,-2.25 2.42,-3.56 4,-5 10.87,3.46 21.32,9.6 27.51,19.47 7.37,11.61 9.67,26.24 7.37,39.71 -12.61,-6.23 -27.52,-9.88 -36.55,-21.44 -7.23,-9.34 -6.16,-22.22 -2.33,-32.74zm508.57 -285.03c0.28,-3.76 4.06,-2.78 5.76,-0.65 23.29,20.22 44.26,45.38 51.66,76 6.23,24.62 1.26,51.05 -10.82,73.11 -14.47,26.5 -36.94,48.02 -62.21,64.23 -14.95,9.19 -31.16,17.63 -48.91,19.18 2.49,-6.24 4.83,-12.68 5.11,-19.46 0.56,-10.49 -3.55,-20.32 -6.73,-30.09 -1.6,-4.72 2.39,-8.78 6.31,-10.66 4.74,-2.81 10.37,-2.72 15.63,-3.9 2.1,-0.95 2.07,-3.69 0.72,-5.25 -8.8,-12.89 -21.24,-23.36 -35.69,-29.35 24.38,-1.77 49.21,-9.04 68.34,-24.78 17.86,-14.63 27.85,-38.16 26.1,-61.19 -0.8,-16.81 -7.66,-32.47 -15.27,-47.19z"/>
   <path class="fil1" d="M1369.06 0l63.47 0c7.94,6.76 15.66,13.77 23.39,20.79 -0.81,25.77 0.34,51.62 -0.54,77.35 -7.06,7.5 -15.4,13.7 -22.85,20.78 -21.16,0 -42.31,-0.07 -63.46,0.03 -0.03,-39.64 0,-79.29 -0.01,-118.95zm-517.7 0l28.37 0 -1.53 0.05c7.59,25.31 14.17,50.92 22.24,76.07 5.58,-25.38 10.87,-50.81 16.75,-76.12l24.68 0c5.65,25.52 11.01,51.09 16.7,76.59 7.34,-25.52 14.63,-51.07 21.99,-76.59l26.68 0c-11.88,39.76 -24.68,79.28 -36.92,118.94 -8.24,-0.04 -16.46,-0.04 -24.68,-0.02 -5.49,-22.81 -10.5,-45.77 -16.33,-68.51 -5.2,22.86 -10.64,45.7 -16.04,68.53 -8.23,-0.04 -16.47,-0.02 -24.71,-0.07 -12.4,-39.63 -24.62,-79.3 -37.2,-118.87zm-307 0l23.92 0c0,15.91 0,31.84 0,47.75 12.87,0 25.75,0.04 38.62,-0.01 -0.05,-15.92 -0.01,-31.83 -0.01,-47.74l23.9 0c-0.02,39.64 0.02,79.3 -0.02,118.94 -7.96,-0.04 -15.93,-0.04 -23.88,0 -0.02,-15.74 0.01,-31.48 -0.02,-47.21 -12.86,-0.02 -25.72,0 -38.57,0 -0.04,15.73 -0.02,31.47 0,47.21 -8.06,-0.04 -16.12,-0.02 -24.17,-0.07 0.48,-39.61 0.11,-79.25 0.23,-118.87zm180.2 0l42.48 0c7.96,6.71 15.63,13.75 23.33,20.78 -0.07,25.83 -0.02,51.69 -0.04,77.52 -7.87,6.69 -15.05,14.26 -23.39,20.3 -14.14,0.44 -28.45,0.76 -42.56,-0.15 -8.18,-5.94 -15.1,-13.46 -22.97,-19.78 -0.14,-26.12 -0.04,-52.23 -0.07,-78.33 7.85,-6.66 15.31,-13.75 23.22,-20.34zm0.77 31.82l0 0c0.05,18.5 -0.02,36.97 0.04,55.45 3.19,2.69 6.34,5.39 9.59,8.01 7.25,-0.18 14.5,-0.12 21.74,-0.11 3.11,-2.58 6.22,-5.16 9.36,-7.69 0.21,-18.54 0.07,-37.11 0.07,-55.66 -3.04,-2.65 -6.08,-5.32 -9.13,-7.95 -7.55,0.02 -15.12,-0.04 -22.68,0.1 -2.96,2.66 -5.97,5.26 -8.99,7.85zm360.62 -31.82l23.94 0 -1.59 0.05c14.96,39.59 29.68,79.28 44.66,118.87 -8.48,-0.02 -16.97,0 -25.43,-0.03 -3.39,-9.1 -6.92,-18.17 -10.15,-27.32 -13.49,-0.7 -27.02,-0.54 -40.52,-0.14 -3.39,9.19 -6.87,18.34 -10.31,27.51 -8.47,-0.04 -16.92,-0.02 -25.36,-0.05 15,-39.61 29.57,-79.37 44.76,-118.89zm11.12 37.08l0 0c-3.88,10.01 -7.41,20.16 -11.18,30.2 7.42,-0.01 14.87,0 22.32,-0.03 -3.76,-10.05 -7.29,-20.16 -11.14,-30.17zm112.6 -37.08l59.57 0c6.84,7.57 13.32,15.47 20.06,23.13 -0.23,8.5 0.81,17.12 -0.47,25.54 -4.92,7.18 -11.26,13.22 -16.78,19.91 8.33,16.78 16.53,33.59 24.87,50.34 -8.83,0 -17.66,0 -26.48,-0.03 -7.48,-15.62 -15.35,-31.06 -22.85,-46.67 -4.57,-0.16 -9.15,-0.44 -13.7,-0.49 -0.09,15.73 -0.04,31.47 -0.04,47.21 -8.02,-0.05 -16.05,-0.04 -24.06,0 -0.28,-39.64 -0.05,-79.3 -0.12,-118.94zm24.15 23.89l0 0c0.03,8.02 0.02,16.05 0.02,24.07 7.92,0 15.84,-0.01 23.76,0 2.67,-3.21 5.65,-6.23 7.76,-9.85 1.67,-6.14 -4.56,-9.89 -7.66,-14.24 -7.95,0.02 -15.92,0 -23.88,0.02zm159.14 0.15l0 0c0.42,23.66 -0.05,47.34 0.24,70.99 9.38,-0.22 18.8,0.36 28.18,-0.21 3.93,-1.67 6.83,-5.09 10.25,-7.58 0.14,-18.5 0.13,-36.99 0.02,-55.49 -3.13,-2.58 -6.2,-5.23 -9.29,-7.86 -9.8,0.03 -19.6,-0.14 -29.4,0.15z"/>
   <path class="fil2" d="M981.42 584.57c6.94,-2.65 13.59,-7.8 21.46,-6.36 6.01,1.22 11.21,4.76 16.92,6.85 31.63,12.67 65.36,18.88 99,23.36 30.45,4.59 60.85,17.04 82.19,39.84 14.25,15.12 22.89,36.54 18.6,57.39 16.64,-11.2 35.59,-19.88 55.66,-22.08 0.42,0.55 1.25,1.62 1.67,2.17 1.4,9.87 1.6,20.19 6.06,29.36 4.21,9.43 12.64,15.81 20.27,22.38 7.58,6.35 14.36,13.71 19.88,21.97 3.55,5.23 6.25,11.24 11.36,15.21 36.29,31.33 58.91,79.93 53.76,128.23 -2.95,29.06 -16.14,56.32 -34.28,78.94 -20.41,25.47 -46.33,46.02 -73.91,63.25 15.63,6.58 30.91,14.12 45.37,23 9.99,6.29 19.95,13.09 27.41,22.38 -9.36,5.58 -19.26,10.31 -28.08,16.77 -7.55,6.04 -15.54,12.42 -25.41,13.95 -8.96,1.89 -17.9,-1.3 -25.45,-5.97 9.1,13.78 16.95,29.01 18.62,45.7 2.31,20.3 -4.24,40.55 -14.23,58.01 -9.45,16.09 -16.47,33.93 -17.95,52.65 -0.51,5.83 0.33,11.72 -0.21,17.56 -1.58,5.26 -7.71,6.38 -11.93,8.79 -14.82,6.72 -27.73,17.86 -35.39,32.36 -2.02,-3.42 -3.75,-7.06 -4.28,-11.03 -3.39,-17.52 -0.04,-35.47 5.06,-52.33 -13.77,12.69 -26.98,30.57 -23.15,50.39 2.16,12.75 12.29,21.46 21.11,29.92 0.09,19.78 -0.3,41.22 -11.77,58.26 -11.33,17.23 -29.93,27.45 -47.79,36.62 -13.68,7.52 -26.83,16.1 -38.62,26.38 -5.07,4.41 -9.24,9.82 -14.82,13.65 -1.3,-20.5 5.65,-40.29 12.8,-59.16 -14.45,18.44 -28.77,40.19 -27.12,64.69 0.46,14.4 -4.32,28.84 -13.26,40.13 -15.94,20.51 -40.76,31.54 -57.16,51.57 -5.27,6.04 -7.91,13.68 -11.67,20.63l-4.6 0c-3.28,-7.09 -6.13,-14.54 -11.27,-20.55 -15.62,-19.16 -38.94,-29.98 -54.91,-48.81 -10.36,-11.71 -16.14,-27.34 -15.59,-42.99 1.63,-24.48 -12.67,-46.23 -27.12,-64.67 7.15,18.87 14.07,38.64 12.84,59.12 -9.57,-7.59 -17.46,-17.19 -27.82,-23.89 -22.94,-17.82 -53.52,-25.55 -71.32,-49.7 -13.19,-16.95 -13.86,-39.38 -14.04,-59.91 0.21,-3.04 3.6,-4.46 5.43,-6.57 10.27,-8.5 17.93,-21.48 16.39,-35.19 -1.76,-16.02 -12.3,-29.28 -23.7,-39.91 3.8,12.9 6.82,26.21 6.36,39.73 -0.33,8.12 -1.09,16.64 -5.6,23.62 -7.85,-14.92 -21.31,-26.18 -36.6,-32.94 -4.85,-2.23 -12.03,-4.8 -10.91,-11.52 1.7,-22.71 -5.43,-45.21 -16.74,-64.69 -9.71,-16.58 -16.67,-35.46 -15.86,-54.92 0.53,-18.6 8.91,-35.81 19.04,-51.02 -5.71,3.27 -11.82,6.39 -18.54,6.46 -10.67,0.53 -20.55,-4.76 -28.51,-11.45 -9.7,-8.01 -21.16,-13.36 -31.93,-19.72 7.5,-9.29 17.46,-16.11 27.45,-22.41 14.47,-8.87 29.72,-16.42 45.35,-22.99 -37.74,-23.7 -73.4,-53.89 -93.88,-94.21 -14.71,-28.65 -18.93,-62.51 -11.24,-93.82 7.77,-31.81 25.86,-60.95 50.62,-82.32 7.5,-6.29 10.64,-16.06 17.26,-23.13 8.84,-11.72 22.28,-18.9 30.97,-30.7 7.6,-10.47 7.82,-23.84 9.59,-36.11 2.33,-1.95 5.44,-0.76 8.11,-0.44 17.55,3.7 34.25,11.13 49,21.28 -4.32,-21.25 4.75,-43.03 19.43,-58.22 21.34,-22.25 51.32,-34.47 81.42,-38.99 34.04,-4.55 68.25,-10.83 100.2,-23.85zm-283.21 196.48l0 0c-24.43,21.13 -46.36,47.95 -52.63,80.44 -5.48,26.77 2.23,54.8 16.87,77.38 15.65,24.26 37.68,44.03 62.37,58.73 13.49,7.71 27.98,14.76 43.7,15.95 -3.86,-8.85 -6.52,-18.65 -4.58,-28.31 0.89,-7.94 4.7,-15.09 6.44,-22.78 -0.02,-7.62 -8.92,-10.89 -15.24,-11.82 -2.99,-1 -8.64,0.35 -8.79,-4.2 8.17,-14.26 21.77,-25.1 36.73,-31.63 -23.94,-1.65 -48.26,-8.76 -67.25,-23.88 -17.99,-14.18 -28.42,-37.27 -27.26,-60.14 0.42,-17.51 7.47,-33.9 15.42,-49.19 -0.58,-3.64 -3.95,-2.62 -5.78,-0.55zm597.85 0.65l0 0c7.61,14.72 14.47,30.38 15.27,47.19 1.75,23.03 -8.24,46.56 -26.1,61.19 -19.13,15.74 -43.96,23.01 -68.34,24.78 14.45,5.99 26.89,16.46 35.69,29.35 1.35,1.56 1.38,4.3 -0.72,5.25 -5.26,1.18 -10.89,1.09 -15.63,3.9 -3.92,1.88 -7.91,5.94 -6.31,10.66 3.18,9.77 7.29,19.6 6.73,30.09 -0.28,6.78 -2.62,13.22 -5.11,19.46 17.75,-1.55 33.96,-9.99 48.91,-19.18 25.27,-16.21 47.74,-37.73 62.21,-64.23 12.08,-22.06 17.05,-48.49 10.82,-73.11 -7.4,-30.62 -28.37,-55.78 -51.66,-76 -1.7,-2.13 -5.48,-3.11 -5.76,0.65zm-460.77 114.97l0 0c-0.66,15.72 -2.74,31.56 -8.13,46.42 -4.02,11.87 -12.27,22.25 -13.52,35.05 -3.09,20.29 7.55,41.19 24.82,51.87 14.15,8.71 21.84,24.25 27.29,39.37 0.31,4.01 6.06,4.4 7.16,0.62 10.21,-18 17.92,-37.71 20.76,-58.29 0.5,-4.97 1.83,-10.4 -1.05,-14.91 -6.04,2.58 -13.12,1.49 -16.79,-4.31 -11.13,-15.75 -13.91,-35.77 -14.96,-54.6 -1.08,-15.37 -8.47,-30.1 -19.59,-40.66 -1.58,-1.93 -3.98,-0.81 -5.99,-0.56zm303.83 41.41l0 0c-1.07,18.79 -3.85,38.8 -15.04,54.5 -3.68,5.74 -10.73,6.78 -16.73,4.23 -1.25,2.43 -2.2,5.04 -1.71,7.85 1.62,22.73 9.94,44.46 20.78,64.3 1.09,1.46 2.04,4.24 4.39,3.67 3.13,0.13 3.27,-3.67 4.46,-5.72 5.11,-14.3 12.95,-28.61 26.21,-36.87 17.3,-10.68 28.01,-31.63 24.88,-51.97 -1.35,-13.29 -10.15,-23.97 -14.05,-36.44 -4.97,-14.28 -6.9,-29.4 -7.58,-44.45 -1.01,-0.46 -2.99,-1.37 -3.99,-1.83 -12.24,10.82 -20.55,26.33 -21.62,42.73zm-351.63 128.65l0 0c-3.83,10.52 -4.9,23.4 2.33,32.74 9.03,11.56 23.94,15.21 36.55,21.44 2.3,-13.47 0,-28.1 -7.37,-39.71 -6.19,-9.87 -16.64,-16.01 -27.51,-19.47 -1.58,1.44 -3.49,2.75 -4,5zm145.47 2.74l0 0c1.64,21.17 4.55,42.22 6.43,63.37 0.77,2.9 -1.98,4.74 -3.44,6.76 -1.9,-2.16 -3.85,-4.28 -5.22,-6.81 -9.2,-17.18 -18.4,-34.36 -27.31,-51.67 -1.23,-2.25 -2.4,-4.59 -4.18,-6.43 -3.18,-2.67 -8.43,-0.74 -9.47,3.18 -2.21,6.44 -3.33,13.2 -5.65,19.63 -1.32,4.59 -3.88,9.17 -2.9,14.09 4.8,29.8 11.38,59.31 19.07,88.5 4.08,15.72 13.42,30.63 27.42,39.24 16.98,7.86 34.97,13.52 51.65,22.07 9.93,4.83 21.52,5.73 32.21,3.2 6.89,-1.67 12.95,-5.48 19.39,-8.26 13.27,-5.56 26.72,-10.67 39.93,-16.38 15.24,-8.43 25.02,-24.56 29.17,-41.14 7.59,-29.36 14.4,-58.97 18.9,-88.97 -0.53,-8.22 -4.92,-15.7 -6.4,-23.8 -1.54,-4.92 -1.65,-12.38 -8.01,-13.56 -3.53,-0.05 -5.65,2.95 -7.04,5.78 -8.97,17.35 -18.14,34.6 -27.36,51.81 -1.76,3.29 -3.85,6.38 -6.04,9.38 -1.88,-1.79 -5.04,-3.34 -4.13,-6.5 2,-20.62 4.5,-41.18 6.46,-61.8 1.14,-4.87 -3.95,-10.45 -8.88,-8.01 -6.41,3.81 -12,8.85 -17.99,13.26 -8.06,6.18 -15.21,14.05 -25.13,17.32 -13.79,5.3 -30,2.21 -41.43,-6.98 -9.89,-8.23 -19.87,-16.44 -30.48,-23.71 -4.3,-3.37 -10.2,1.64 -9.57,6.43zm255.34 3.22l0 0c-13.25,11.82 -17.43,31.12 -14.76,48.14 11.33,-5.27 23.89,-8.93 33.23,-17.57 7.36,-6.57 10.14,-17.17 8.24,-26.69 -1.19,-5.24 -1.58,-11.63 -6.52,-14.84 -7.23,2.56 -14.5,5.62 -20.19,10.96zm-425.37 52.23l0 0c-0.52,6.59 2.64,12.77 6.73,17.74 7.34,9.15 19.04,13.91 25.48,23.87 4.01,8.13 -0.14,17.1 -2.07,25.2 6.55,-2.88 10.19,-9.47 14.33,-14.93 8.75,-13.3 16.55,-27.63 20.24,-43.2 -10.91,3.75 -22.2,9.41 -34.04,6.48 -11.57,-1.92 -21.08,-8.98 -30.67,-15.16zm443.33 15.19l0 0c-11.84,2.95 -22.97,-2.95 -33.95,-6.37 3.99,15.84 11.86,30.47 20.9,43.96 3.99,5.12 7.43,11.39 13.72,13.99 -1.9,-7.76 -5.6,-16.01 -2.63,-24.01 3.23,-6.49 9.57,-10.55 15.07,-14.98 8.93,-6.64 18.08,-15.79 17.89,-27.76 -9.82,6 -19.3,13.31 -31,15.17zm-311.27 153.78l0 0c-6.71,7.75 -12.77,17.85 -10.41,28.53 2.98,13.36 7.95,26.36 14.85,38.2 3.06,5.53 8.79,8.64 13.84,12.06 1.48,-1.4 2.97,-2.75 4.5,-4.09 -4.32,-10.13 -7.67,-20.86 -7.62,-31.98 0.98,-9.05 -11.05,-11.16 -12.79,-19.09 8.59,-0.3 16.56,3.7 24.64,6.09 21.1,7.9 43.67,15.46 59.54,32.25 6.85,9.6 11.98,20.63 14.18,32.28 2.86,0 5.7,0 8.57,0.02 2.16,-11.67 7.32,-22.71 14.19,-32.32 14.72,-15.68 35.63,-22.9 55.13,-30.68 9.66,-3.15 19.2,-7.49 29.51,-7.84 -2.59,7.8 -13.88,10.28 -13.27,19.25 0.14,11.14 -3.1,21.96 -7.55,32.05 1.69,1.41 3.51,4.62 6.15,2.94 12.36,-5.83 17,-19.62 21.74,-31.39 3.25,-9.82 8.06,-20.46 4.3,-30.82 -3.44,-8.71 -9.32,-16.56 -16.79,-22.2 -4.07,-3.21 -9.48,-2.74 -14.22,-1.76 -23.31,4.45 -46.63,8.64 -69.94,13.04 -8.45,1.63 -17.17,2.12 -25.67,0.59 -25.03,-4.56 -49.95,-9.6 -74.98,-14.14 -7.4,-1.72 -13.47,3.87 -17.9,9.01zm72.84 121.73l0 0c-0.57,5.55 -5.63,14.09 1.38,17.27 12.91,0.56 25.63,-4.43 38.55,-2.21 7.96,0.61 16.09,3.23 24.01,1.75 5.66,-3.97 0.63,-11.47 0.2,-16.77 -10.91,-1.67 -21.82,-3.74 -32.85,-4.43 -10.48,0.93 -20.9,2.74 -31.29,4.39zm168.55 -1248.45c28.52,-1.43 57.13,-0.14 85.67,1 22.89,1.54 47.28,1.82 67.62,13.87 14.54,8.29 23.68,24.26 25.01,40.77 1.56,19.37 0.63,38.83 1.04,58.25 0.15,51.46 -0.06,102.92 -0.21,154.4 0.24,24.04 -1.18,48.07 -0.14,72.11 -0.29,11.74 -1.11,25.15 -10.28,33.69 -10.41,9.66 -25.64,10.22 -39.04,10.56 -28.93,-1.08 -57.54,-5.94 -86.22,-9.56 -22.97,-3.11 -46.49,-4.16 -68.64,-11.59 -9.57,-3.34 -19.28,-8.32 -24.81,-17.19 -4.94,-8.01 -5.73,-17.67 -5.98,-26.86 -0.36,-89.59 0.36,-179.2 -0.01,-268.78 0.03,-12.4 3.33,-25.56 12.5,-34.41 11.38,-11.36 28.02,-15 43.49,-16.26zm26.75 64.37l0 0c0.45,73.81 -0.44,147.63 -0.23,221.47 0.17,7.78 -0.21,15.59 0.65,23.34 23.2,1.98 46.28,5.27 69.44,7.43 0,-48.83 -0.21,-97.67 0.27,-146.5 -0.02,-34.7 0.61,-69.42 -0.37,-104.11 -0.48,-0.44 -1.39,-1.32 -1.86,-1.76 -19.9,-1.28 -39.85,-1.91 -59.79,-2.67 -2.65,0.42 -8.83,-1.77 -8.11,2.8zm-826.54 -156.46c2.21,-2.58 4.51,0.28 6.69,1.28 -15.93,27.02 -13.89,63.97 6.5,88.12 15.16,18.09 39.59,26.45 62.77,24.92 52.76,-3 105.48,-6.39 158.24,-9.4 13.88,-0.47 27.98,-0.5 41.58,2.69 7.57,1.88 15.35,5.04 20.3,11.33 8.92,11.01 11.34,25.71 11.31,39.52 -0.35,20.48 0.16,40.97 0.02,61.47 0.17,13.26 -0.02,27.12 -5.75,39.37 -5.25,11.47 -16.96,17.6 -26.87,24.45 7.64,1.64 15.7,3.67 21.48,9.29 7.97,7.87 11.33,19.45 11.12,30.46 -0.56,39.29 0.63,78.58 -0.09,117.86 -0.53,16.58 -6.92,32.65 -16.81,45.84 -5.85,7.85 -14.33,13.19 -22.99,17.46 -18.3,9.01 -38.34,13.39 -57.66,19.58 -42.89,13.44 -85.44,27.89 -127.86,42.7 -2.37,0.69 -4.95,2.02 -7.2,0.28 -0.79,-5.6 -0.37,-11.27 -0.42,-16.91 0.04,-50.57 -0.03,-101.13 0.02,-151.69 -18.85,-5.13 -40.63,-13.39 -48.56,-32.87 2.42,-3.65 6.27,-5.95 9.66,-8.6 13.43,-9.87 27.2,-19.46 38.95,-31.39 -0.02,-47.05 0.42,-94.12 -0.39,-141.15 -32.28,0.46 -66.12,-8.31 -90.53,-30.28 -16.55,-14.54 -26.72,-35.53 -28.77,-57.38l0 -15.1c2.19,-32.11 18.72,-63.35 45.26,-81.85zm153.5 177.57l0 0c-0.79,38.14 -0.68,76.31 -0.89,114.47 22.91,-12.08 46.01,-23.85 68.95,-35.88 3,-1.49 5.49,-4.34 5.58,-7.81 0.51,-23.56 -0.28,-47.13 -0.3,-70.66 0.37,-3.72 -3.19,-7.11 -6.9,-6.24 -22.18,1.69 -44.31,3.97 -66.44,6.12zm0.05 194.37l0 0c0.06,34.05 -0.03,68.12 0.11,102.2 20.79,-7.78 41.71,-15.18 62.58,-22.69 5.93,-1.92 11.31,-7.15 11.08,-13.76 0.26,-30.42 -0.12,-60.85 -0.11,-91.27 0.95,-4.96 -4.42,-9.5 -8.85,-6.2 -21.67,10.41 -43.12,21.32 -64.81,31.72zm1166.78 -369.78c1.1,-0.7 3.28,-2.12 4.37,-2.82 27.75,18.8 45.56,50.89 47.38,84.32l0 15.68c-1.98,21.41 -10.41,42.66 -26.25,57.59 -23.57,22.52 -57.35,31.33 -89.28,30.89 -0.14,41.19 -0.08,82.39 -0.1,123.59 0.05,2.76 -0.12,5.94 2.32,7.84 15.21,15.86 30.33,31.89 47.07,46.19 3.82,2.09 0.84,6.25 -0.58,8.96 -10.3,17.07 -30.02,25.18 -48.72,29.06 0.14,55.06 0.05,110.14 0.03,165.2 -2.63,0.2 -5.34,0.37 -7.78,-0.75 -19.71,-7.82 -39.57,-15.25 -59.61,-22.17 -3.92,-1.49 -8.2,-2.35 -11.68,-4.76 -1.47,-8.59 -0.49,-17.37 -0.74,-26.03 -0.43,-55.39 0.11,-110.77 0.14,-166.14 -26.45,-28.28 -51.44,-57.89 -74.99,-88.63 0,84.43 0.11,168.85 -0.05,253.28 1.05,6.92 -6.4,4.74 -10.37,3.39 -23.05,-7.06 -46.71,-12.12 -69.88,-18.72 -1.98,-30.61 -0.75,-61.38 -1.11,-92.07 0,-98.32 1.92,-196.63 0.6,-294.95 0.19,-3.02 -0.65,-6.43 1.25,-9.08 25.99,0.66 51.92,3.6 77.87,5.3 25.14,38.27 49.55,77.1 76.67,114.04 0,-36.52 0.12,-73.01 -0.07,-109.51 3.16,-0.35 6.34,-0.82 9.55,-0.53 23.89,1.83 47.72,4.11 71.59,6.13 14.56,1.16 29.84,-1.47 42.04,-9.85 19.08,-12.78 28.51,-35.88 30.35,-58.1 1.88,-16.42 -2.42,-32.86 -10.02,-47.35zm-678.84 89.84c13.42,-0.55 27.21,-1.55 40.27,2.25 8.51,2.46 15.3,9.27 18.34,17.51 5.55,14.31 3.97,29.92 4.2,44.92 -0.2,10.54 0.42,21.1 -0.28,31.62 -1.6,1.67 -4.18,1.35 -6.24,1.88 -23.36,2.68 -46.54,6.76 -69.53,11.68 -2.16,0.21 -5.16,1.33 -6.41,-1.18 -0.6,-15.97 0.07,-31.97 -0.32,-47.95 -23.44,2.58 -47.03,4.2 -70.32,8.12 0.14,28.87 0.04,57.76 0.05,86.64 34.6,-11.1 70.05,-19.48 105.86,-25.52 9.9,-1.57 19.91,-3.66 30.01,-2.89 5.15,0.37 10.68,2.09 13.89,6.42 3.27,4.44 3.59,10.18 3.82,15.49 0.01,53.28 0.35,106.57 0.17,159.86 -0.23,12.08 -2.02,24.85 -9.47,34.77 -6.85,9.33 -17.75,14.56 -28.64,17.6 -19.22,5.3 -39.27,5.76 -59,7.6 -30.91,2.02 -61.84,4.34 -92.82,4.27 -14.73,-0.03 -31.19,-4.71 -39.11,-18.16 -10.68,-17.9 -7.2,-39.57 -7.73,-59.4 25.93,-13.98 52.74,-26.5 80.69,-35.93 1.44,2.11 2.54,4.44 2.17,7.09 -0.19,15.11 0.29,30.2 0.16,45.3 23.4,-3.6 46.86,-6.8 70.26,-10.5 -0.13,-32.41 -0.04,-64.81 -0.06,-97.23 -51.53,13.03 -103.36,27.1 -150.85,51.51 -2.12,-1.6 -3.33,-3.88 -2.82,-6.59 0.07,-63.86 0,-127.73 0.05,-191.61 0.24,-12.77 1.74,-26.66 10.31,-36.76 8.01,-9.13 20.49,-11.96 31.98,-13.8 18.42,-2.53 37.08,-2.8 55.62,-4.06 25.24,-1.09 50.48,-2.39 75.75,-2.95zm-296.76 7.23c25.89,-1.65 51.88,-2 77.82,-3.1 0.79,2.6 1.6,5.23 1.41,7.99 -0.13,122.45 0.05,244.9 -0.09,367.33 0.4,3.11 -3.38,3.83 -5.64,4.06 -23.38,3.58 -46.65,7.81 -69.83,12.43 -2.55,0.69 -7.08,1.2 -6.76,-2.76 -0.28,-126.47 0,-252.96 -0.14,-379.43 0.19,-2.3 -0.57,-6.99 3.23,-6.52z"/>
   <path class="fil3" d="M835.29 896.67c2.01,-0.25 4.41,-1.37 5.99,0.56 11.12,10.56 18.51,25.29 19.59,40.66 1.05,18.83 3.83,38.85 14.96,54.6 3.67,5.8 10.75,6.89 16.79,4.31 2.88,4.51 1.55,9.94 1.05,14.91 -2.84,20.58 -10.55,40.29 -20.76,58.29 -1.1,3.78 -6.85,3.39 -7.16,-0.62 -5.45,-15.12 -13.14,-30.66 -27.29,-39.37 -17.27,-10.68 -27.91,-31.58 -24.82,-51.87 1.25,-12.8 9.5,-23.18 13.52,-35.05 5.39,-14.86 7.47,-30.7 8.13,-46.42zm132.54 518.95c10.39,-1.65 20.81,-3.46 31.29,-4.39 11.03,0.69 21.94,2.76 32.85,4.43 0.43,5.3 5.46,12.8 -0.2,16.77 -7.92,1.48 -16.05,-1.14 -24.01,-1.75 -12.92,-2.22 -25.64,2.77 -38.55,2.21 -7.01,-3.18 -1.95,-11.72 -1.38,-17.27zm-72.84 -121.73c4.43,-5.14 10.5,-10.73 17.9,-9.01 25.03,4.54 49.95,9.58 74.98,14.14 8.5,1.53 17.22,1.04 25.67,-0.59 23.31,-4.4 46.63,-8.59 69.94,-13.04 4.74,-0.98 10.15,-1.45 14.22,1.76 7.47,5.64 13.35,13.49 16.79,22.2 3.76,10.36 -1.05,21 -4.3,30.82 -4.74,11.77 -9.38,25.56 -21.74,31.39 -2.64,1.68 -4.46,-1.53 -6.15,-2.94 4.45,-10.09 7.69,-20.91 7.55,-32.05 -0.61,-8.97 10.68,-11.45 13.27,-19.25 -10.31,0.35 -19.85,4.69 -29.51,7.84 -19.5,7.78 -40.41,15 -55.13,30.68 -6.87,9.61 -12.03,20.65 -14.19,32.32 -2.87,-0.02 -5.71,-0.02 -8.57,-0.02 -2.2,-11.65 -7.33,-22.68 -14.18,-32.28 -15.87,-16.79 -38.44,-24.35 -59.54,-32.25 -8.08,-2.39 -16.05,-6.39 -24.64,-6.09 1.74,7.93 13.77,10.04 12.79,19.09 -0.05,11.12 3.3,21.85 7.62,31.98 -1.53,1.34 -3.02,2.69 -4.5,4.09 -5.05,-3.42 -10.78,-6.53 -13.84,-12.06 -6.9,-11.84 -11.87,-24.84 -14.85,-38.2 -2.36,-10.68 3.7,-20.78 10.41,-28.53zm311.27 -153.78c11.7,-1.86 21.18,-9.17 31,-15.17 0.19,11.97 -8.96,21.12 -17.89,27.76 -5.5,4.43 -11.84,8.49 -15.07,14.98 -2.97,8 0.73,16.25 2.63,24.01 -6.29,-2.6 -9.73,-8.87 -13.72,-13.99 -9.04,-13.49 -16.91,-28.12 -20.9,-43.96 10.98,3.42 22.11,9.32 33.95,6.37zm-443.33 -15.19c9.59,6.18 19.1,13.24 30.67,15.16 11.84,2.93 23.13,-2.73 34.04,-6.48 -3.69,15.57 -11.49,29.9 -20.24,43.2 -4.14,5.46 -7.78,12.05 -14.33,14.93 1.93,-8.1 6.08,-17.07 2.07,-25.2 -6.44,-9.96 -18.14,-14.72 -25.48,-23.87 -4.09,-4.97 -7.25,-11.15 -6.73,-17.74zm170.03 -55.45c-0.63,-4.79 5.27,-9.8 9.57,-6.43 10.61,7.27 20.59,15.48 30.48,23.71 11.43,9.19 27.64,12.28 41.43,6.98 9.92,-3.27 17.07,-11.14 25.13,-17.32 5.99,-4.41 11.58,-9.45 17.99,-13.26 4.93,-2.44 10.02,3.14 8.88,8.01 -1.96,20.62 -4.46,41.18 -6.46,61.8 -0.91,3.16 2.25,4.71 4.13,6.5 2.19,-3 4.28,-6.09 6.04,-9.38 9.22,-17.21 18.39,-34.46 27.36,-51.81 1.39,-2.83 3.51,-5.83 7.04,-5.78 6.36,1.18 6.47,8.64 8.01,13.56 1.48,8.1 5.87,15.58 6.4,23.8 -4.5,30 -11.31,59.61 -18.9,88.97 -4.15,16.58 -13.93,32.71 -29.17,41.14 -13.21,5.71 -26.66,10.82 -39.93,16.38 -6.44,2.78 -12.5,6.59 -19.39,8.26 -10.69,2.53 -22.28,1.63 -32.21,-3.2 -16.68,-8.55 -34.67,-14.21 -51.65,-22.07 -14,-8.61 -23.34,-23.52 -27.42,-39.24 -7.69,-29.19 -14.27,-58.7 -19.07,-88.5 -0.98,-4.92 1.58,-9.5 2.9,-14.09 2.32,-6.43 3.44,-13.19 5.65,-19.63 1.04,-3.92 6.29,-5.85 9.47,-3.18 1.78,1.84 2.95,4.18 4.18,6.43 8.91,17.31 18.11,34.49 27.31,51.67 1.37,2.53 3.32,4.65 5.22,6.81 1.46,-2.02 4.21,-3.86 3.44,-6.76 -1.88,-21.15 -4.79,-42.2 -6.43,-63.37zm206.16 -131.39c1.07,-16.4 9.38,-31.91 21.62,-42.73 1,0.46 2.98,1.37 3.99,1.83 0.68,15.05 2.61,30.17 7.58,44.45 3.9,12.47 12.7,23.15 14.05,36.44 3.13,20.34 -7.58,41.29 -24.88,51.97 -13.26,8.26 -21.1,22.57 -26.21,36.87 -1.19,2.05 -1.33,5.85 -4.46,5.72 -2.35,0.57 -3.3,-2.21 -4.39,-3.67 -10.84,-19.84 -19.16,-41.57 -20.78,-64.3 -0.49,-2.81 0.46,-5.42 1.71,-7.85 6,2.55 13.05,1.51 16.73,-4.23 11.19,-15.7 13.97,-35.71 15.04,-54.5z"/>
  </g>
 </g>
</svg>
