<?xml version="1.0" encoding="UTF-8"?>
<!DOCTYPE svg PUBLIC "-//W3C//DTD SVG 1.1//EN" "http://www.w3.org/Graphics/SVG/1.1/DTD/svg11.dtd">
<!-- Creator: CorelDRAW -->
<svg xmlns="http://www.w3.org/2000/svg" xml:space="preserve" width="2000px" height="1600px" version="1.1" style="shape-rendering:geometricPrecision; text-rendering:geometricPrecision; image-rendering:optimizeQuality; fill-rule:evenodd; clip-rule:evenodd"
viewBox="0 0 2000 1600"
 xmlns:xlink="http://www.w3.org/1999/xlink">
 <defs>
  <style type="text/css">
   <![CDATA[
    .fil0 {fill:black;fill-rule:nonzero}
    .fil2 {fill:#E41837;fill-rule:nonzero}
    .fil1 {fill:#FEFEFE;fill-rule:nonzero}
    .fil3 {fill:#FFE715;fill-rule:nonzero}
   ]]>
  </style>
 </defs>
 <g id="Capa_x0020_1">
  <metadata id="CorelCorpID_0Corel-Layer"/>
  <g id="Illinois_x0020_State_x0020_Redbirds.cdr">
   <path class="fil0" d="M1085.69 207.06l0.85 0c8.37,5.76 16.55,11.82 24.79,17.78 1.44,-4.55 2.89,-9.12 4.38,-13.66 23.9,21.82 52.1,38.18 80.67,53.06 68.4,35.9 140.02,65.24 212.87,90.75 85.51,30.19 172.14,57.74 254.95,95.01 59.77,27.16 120.79,54.82 170.42,98.76 29.75,26.39 55.25,59.58 65.03,98.73 6.1,22.67 5.05,46.38 3.74,69.57 4.17,-2.13 8.37,-4.24 12.57,-6.38 -0.39,15.65 -1.51,32.22 -11.32,45.2 19.13,22.5 40.2,43.48 56.85,68.01 22.44,32.28 35.96,70.56 38.51,109.82l0 43.58c-1.57,29.98 -5.96,60.74 -20.73,87.35 -8.98,17.31 -22.52,31.49 -35.86,45.42 0.07,-14.76 -4.65,-29.52 -15.07,-40.21 -3.47,-3.08 -7.14,-8.61 -12.42,-6.77 -29.73,7.52 -59.54,14.87 -89.81,19.86 -48.24,8.98 -97.54,5.53 -146.13,2.01 -1.12,16.23 -0.41,32.65 -3.29,48.74 -5.08,30.47 -15.78,59.68 -28.14,87.86 -27.85,62.01 -64.7,119.92 -109.11,171.39 -19.05,-54.14 -37.93,-108.39 -60.37,-161.22 -219.05,0 -438.1,0 -657.15,0 -72.21,0.37 -144.38,-0.56 -216.56,-0.48 -31.2,-0.66 -63.29,3.83 -91.43,17.97 -9.83,4.72 -19.19,10.37 -28.44,16.15 1.88,-15.32 3.17,-31.47 11.53,-44.9 3.12,-5.04 4.68,-10.79 6.33,-16.42 -15.59,6.58 -30.97,13.64 -46.58,20.2 0.48,-17.97 6.73,-35.59 18.01,-49.62 -47.8,0.12 -95.59,-0.02 -143.39,0.06 17.33,-80.42 34.55,-160.87 53.19,-241 7.06,-25.3 14.88,-50.87 28.82,-73.35 -137.79,0.06 -275.61,0 -413.4,0.02l0 -2.01c24.95,-100.62 49.48,-201.34 74.37,-301.98 1.47,-5.72 3.35,-11.7 1.61,-17.6 -1.8,-6.44 -2.25,-14.33 -8.22,-18.51 -14.43,-11.84 -28.92,-23.63 -43.23,-35.61 82.16,-0.04 164.31,-0.02 246.48,-0.02 -4.94,20 -9.89,39.96 -14.72,59.98 26.09,-0.21 52.2,0.43 78.27,-0.5 232.83,-0.02 465.65,0 698.48,0 -3.08,-7.79 -6.13,-15.61 -9.02,-23.48 11.51,1 22.94,2.88 34.49,3.4 -17.48,-22.84 -35.24,-48.87 -34.91,-78.84 12.2,4.49 24.64,8.28 37.33,11.17 -13.91,-28.71 -21.39,-59.95 -28.24,-90.95 13.11,6.19 26.19,12.41 39.34,18.55 -14.47,-31.09 -22.65,-65.4 -21.74,-99.77 13.44,6.75 26.96,13.36 40.33,20.27 -9.88,-31.45 -8.18,-65.03 -4.93,-97.39z"/>
   <path class="fil1" d="M1068.3 1139.4c5.94,-0.06 11.89,-0.06 17.83,-0.02 -5.86,19.98 -11.87,39.94 -17.66,59.94 -5.96,0 -11.91,0 -17.85,0 5.92,-19.98 11.88,-39.92 17.68,-59.92zm-321.63 -0.04c12.73,0 25.46,0 38.18,0 -1.37,4.49 -2.7,9 -4.04,13.52 -6.81,0.02 -13.59,0.02 -20.4,0.02 -0.95,3.21 -1.9,6.44 -2.83,9.67 6.42,0 12.85,0 19.27,0 -1.28,4.51 -2.58,9 -3.87,13.5 -6.52,0.04 -13.04,0.02 -19.54,0.12 -0.89,3.17 -1.76,6.38 -2.63,9.58 6.73,0.01 13.48,0.01 20.25,0.01 -1.31,4.49 -2.61,9 -3.9,13.53 -12.73,0.03 -25.46,0 -38.2,0.01 5.84,-20.02 11.79,-39.98 17.71,-59.96zm625.59 6.56c11.05,-10.31 28.38,-9.94 41.12,-3.11 -3.48,4.15 -7.02,8.26 -10.58,12.34 -5.97,-4.76 -17.25,-5.86 -19.96,2.94 6.1,4.58 14.57,4.25 20.31,9.42 5.73,6.96 1.11,16.94 -3.87,22.99 -12.01,13.12 -33.81,13.81 -48.14,4.05 3.64,-4.49 7.47,-8.8 11.28,-13.16 5.22,4.24 12.36,8.34 19.13,4.9 2.59,-1.24 6.92,-5.42 3.36,-7.95 -6.17,-4.59 -16.32,-3.21 -20.44,-10.56 -2.36,-7.93 2.05,-16.46 7.79,-21.86zm-972.38 -67.66c4.03,5.07 7.04,10.81 10.35,16.36 -7.48,13.85 -15.22,27.57 -23,41.28 3.95,-19.26 8.32,-38.45 12.65,-57.64zm1212.81 1.8c11.01,-2.52 22.18,-4.43 32.94,-7.99 -0.17,23.21 -0.52,46.58 -5.3,69.38 -12.94,66 -47.74,125.36 -88.38,178.07 -8.76,-25.36 -17.56,-50.72 -26.96,-75.86 15.09,-13.02 28.86,-27.78 39.4,-44.76 6.02,-9.4 10.1,-19.81 14.86,-29.87 11.64,-29.44 26.67,-57.81 33.44,-88.97zm-1094.12 -45.61c6.71,7.27 13,15.74 14.12,25.88 2.13,16.87 -9.01,32.88 -22.83,41.47 -18.52,9.03 -40.13,1.95 -57.37,-6.87 16.85,2.85 36.1,3.04 50.14,-8.14 15.28,-12.32 19.67,-33.77 15.94,-52.34zm429.13 58.12c-2.98,-55.63 -6.38,-111.23 -8.78,-166.88 8.76,51.25 17.1,102.59 25.74,153.87 -5.63,4.37 -11.27,8.7 -16.96,13.01zm-218.2 -198.58c8.66,-2.56 17.31,-5.19 25.99,-7.74 -25.95,69.21 -51.45,138.59 -77.91,207.58 16.79,-66.73 34.7,-133.21 51.92,-199.84zm384.31 -0.04c8.7,-2.5 17.33,-5.19 26.02,-7.7 -26.12,69.21 -51.49,138.68 -78.05,207.7 16.87,-66.77 34.68,-133.35 52.03,-200zm174.62 -35.5c13.43,-0.03 26.85,-0.09 40.26,0.02 -28.19,77.93 -56.95,155.67 -84.86,233.7 0.58,-5.79 1.97,-11.45 3.54,-17.04 17.25,-66.54 34.16,-133.18 51.51,-199.69 -3.46,-5.69 -6.95,-11.34 -10.45,-16.99zm-222.2 -1.99c6.98,0.45 13.98,0.56 21,0.66 -10.48,13.98 -21,27.93 -31.89,41.56 3.36,-14.13 7.25,-28.16 10.89,-42.22zm-144.08 1.01c12.49,-0.04 25.01,0.02 37.5,-0.06 -51.06,77.7 -102.82,154.93 -153.6,232.82 -0.5,-0.13 -1.52,-0.38 -2.03,-0.5 3.78,-2.77 5.3,-7.37 7.64,-11.24 38.17,-67.54 76.14,-135.2 114.37,-202.69 4.94,-5.99 -2.2,-12.41 -3.88,-18.33zm-240.16 -1.05c6.97,0.51 13.95,0.6 20.93,0.6 -10.33,14.24 -21.18,28.09 -31.97,41.96 3.48,-14.24 7.37,-28.38 11.04,-42.56zm-180.91 2.38c21.14,-1.91 42.44,-2.28 63.66,-1.39 12.13,0.52 24.37,0.17 36.34,2.44 -16.73,-0.2 -33.42,1.43 -50,3.48 -20.36,2.82 -40.98,6.34 -59.8,14.97 -13.14,6.01 -22.92,17.21 -31.34,28.63 -19.11,26.9 -26.98,60.73 -25.43,93.44 -11.22,-23.5 -7.86,-50.45 -0.62,-74.57 6.19,-20.6 15.39,-41.43 31.99,-55.76 9.57,-8.59 23.02,-9.69 35.2,-11.24zm1069.33 -0.54c5.1,-13.46 19.78,-19.25 32.88,-21.66 10.54,-0.99 21.66,-0.47 31.45,3.9 -13.95,6.13 -28.12,11.73 -42.11,17.74 1.65,1.06 3.41,2.01 5.22,2.84 15.96,-1.12 28.44,-14.72 44.68,-14.29 9.37,2.03 16.72,8.88 23.66,15.07 -12.57,3.67 -25.43,6.28 -37.83,10.44 2.76,2.58 6.57,3.23 10.11,1.82 10.66,-2.78 21.14,-6.17 31.7,-9.26 6.27,6.42 12.52,12.96 19.83,18.26 -5.86,3.22 -12.07,5.91 -17.29,10.15 6.81,2.53 12.36,-4.18 18.49,-6.21 10.64,9.92 21.84,19.46 30.97,30.85 -49.5,-22.65 -103.21,-34.83 -151.76,-59.65zm-258.86 -85.13c3.85,4.84 7.62,9.73 11.25,14.74 -8,12.83 -15.37,26.04 -23.55,38.77 3.9,-17.88 8.18,-35.67 12.3,-53.51zm-778.49 3.95c8.24,-5.07 14.35,-12.71 21.47,-19.11 -7.33,13.66 -16.02,26.52 -23.91,39.85 -23.85,-3.24 -47.89,-5.29 -71.57,-9.54 12.63,1.06 25.32,0.19 37.93,-0.91 12.4,-1.53 25.44,-3.19 36.08,-10.29zm-164.07 -18.94c-6.17,14.34 -13.3,28.22 -20.07,42.29 -25.21,-3.93 -50.45,-7.64 -75.63,-11.72 20.85,0.61 42.34,2.12 62.51,-4.26 13.93,-4.53 23.06,-16.52 33.19,-26.31zm1046.56 -17.06c5.01,5.25 9.89,11.15 11.18,18.51 3,13.93 -6.17,27.34 -16.96,35.21 -15.63,9.79 -35.53,5.3 -51.43,-1.49 14.87,2.28 31.99,2.49 44.1,-7.89 12.69,-10.72 15.82,-28.63 13.11,-44.34zm-618.68 -43.44c16.77,37.54 32.99,75.32 49.55,112.96 -5.24,3.1 -10.5,6.17 -15.78,9.21 -11.2,-40.74 -23.06,-81.32 -33.77,-122.17zm926.86 -25.32c7.37,3.52 13.76,8.69 20.7,12.92 7.31,4.78 15.45,8.51 21.57,14.92 3.56,3.79 6.77,7.91 10.29,11.76 -8.28,6.96 -15.86,14.77 -22.07,23.65 7.75,4.74 15.43,9.65 22.61,15.28 2.17,1.68 4.27,3.43 6.42,5.19 -2.96,0.17 -5.88,0.29 -8.78,0.36 -8.86,0.02 -17.68,-0.56 -26.5,-0.58 -2.03,16.1 3.62,32.57 14.99,44.1 9.11,11.82 25.49,13.7 39.21,10.87 4.95,-0.5 9.92,0.08 14.89,0.35 -7.99,11.01 -18.01,22.27 -31.89,25.26 -5.54,1.57 -10.02,-2.9 -14.53,-5.3 -5.92,-12.12 -15.3,-22.03 -23.48,-32.61 -13.76,-13.38 -30.62,-26.88 -33.99,-46.92 -5.01,-26.7 -1.08,-54.74 10.56,-79.25zm-602.63 -39.05c5.01,40.41 1.55,81.93 -8.88,121.28 -5.04,16.67 -10.03,34.44 -22.32,47.4 -8.8,8.75 -21.37,13.97 -33.81,12.87 -9.96,-1.14 -17.48,-8.55 -23.4,-16.04 9.63,5.28 21.55,8.24 31.84,2.98 20.15,-8.61 28.95,-30.5 34.89,-50.06 11.05,-38.64 17.14,-78.55 21.68,-118.43zm617.26 -8.98c6.81,-2.49 13.63,1.48 19.38,4.86 15.12,9.83 24.48,25.82 37.87,37.58 14.45,15.94 26.11,34.33 41.78,49.21 11.37,11.89 25.49,21.68 41.8,25.18 -7.06,6.71 -16.98,8.71 -26.31,9.96 -19.07,-2.18 -33.05,-17.17 -45.06,-30.83 -18.11,-21.85 -39.56,-40.65 -61.9,-58.06 -10.19,-6.79 -20.77,-16.31 -33.91,-14.94 -9.15,0.58 -18.31,0.91 -27.44,1.32 -10.72,0.27 -20.53,5.01 -30.55,8.24 8.05,-9.05 19.04,-14.88 30.35,-18.82 17.56,-6.15 36.11,-8.65 53.99,-13.7zm-501.07 -38.58c13.47,-0.04 26.95,-0.04 40.43,0 -27.91,75.3 -55.03,150.93 -83.37,226.05 17.39,-69.83 35.81,-139.42 53.33,-209.23 -3.5,-5.59 -6.98,-11.2 -10.39,-16.82zm-329.9 -0.04c8.24,0.02 16.48,0 24.74,0.06 -19.27,46.17 -38.45,92.36 -57.74,138.51 10.25,-46.35 22.03,-92.38 33,-138.57zm-160.16 0.08c13.43,-0.12 26.85,-0.06 40.28,-0.04 -28.26,77.81 -56.43,155.64 -84.88,233.36 9.19,-39.71 20.08,-79.03 29.92,-118.59 8.42,-32.51 16.5,-65.1 25.09,-97.58 -3.46,-5.72 -7,-11.41 -10.41,-17.15zm-123.09 -0.04c13.48,-0.02 26.94,-0.04 40.42,0 -27.87,75.2 -55,150.69 -83.23,225.76 17.24,-69.77 35.71,-139.25 53.2,-208.95 -3.54,-5.56 -6.99,-11.17 -10.39,-16.81zm-183.83 0c13.42,-0.02 26.83,-0.06 40.25,0.04 -26.63,71.2 -53.58,142.26 -80.33,213.42 -2.15,5.9 -4.25,11.82 -6.98,17.5 19.01,-71.39 38.34,-142.72 57.45,-214.08 -3.56,-5.57 -7.02,-11.2 -10.39,-16.88zm-186.02 0.05c13.33,-0.15 26.64,-0.05 39.97,-0.05 -29,76.5 -57.8,153.05 -86.79,229.53 0.62,-3.42 1.35,-6.81 2.28,-10.15 19.3,-68.67 38.35,-137.39 57.66,-206.06 -4.37,-4.41 -8.78,-8.82 -13.12,-13.27zm1121.98 7.3c11.43,-6.33 24.85,-7.31 37.62,-8.18 24.04,-0.57 48.28,-0.06 72.05,3.98 -23.35,0.39 -46.81,2.36 -69.6,7.56 -12.57,3.27 -26.05,6.95 -35.14,16.83 -24.74,24.87 -36.42,60.15 -37.64,94.72 -5.11,-11.28 -7.87,-23.97 -5.73,-36.31 2.52,-15.18 6.75,-30.11 12.79,-44.29 5.69,-13.15 13.37,-26.31 25.65,-34.31zm-367.91 16.81c23.15,-24.22 58.43,-29.27 90.32,-30.6 28.46,-2.67 56.81,5.88 81.63,19.38 -23.69,-5.01 -47.79,-8.65 -72.05,-8.63 -16.13,0.39 -32.65,1.91 -47.52,8.59 -14.98,6.73 -30.33,13.83 -42.07,25.63 -12.27,11.95 -19.81,27.62 -26.89,42.98 -11.9,26.88 -23.46,54.33 -28.3,83.52 -3.09,18.66 -3.77,38.33 2.67,56.42 -12.65,-10.29 -16.81,-27.35 -16.98,-42.96 -0.85,-25.65 7.31,-50.31 15.07,-74.37 9.9,-28.82 21.06,-58.9 44.12,-79.96zm-898.28 -92.38c15.49,0.07 30.98,-0.08 46.5,0.09 -34.38,100.78 -68.11,201.76 -102.65,302.46 11.6,-51.57 25.03,-102.75 37.29,-154.18 10.13,-41.26 20.19,-82.51 30.33,-123.77 -3.74,-8.24 -7.76,-16.34 -11.47,-24.6zm527.35 622.12c10.02,-0.3 20.06,-0.58 30.06,0.06 6.46,0.31 14.35,3.87 14.68,11.24 0.81,11.84 -8.71,22.05 -19.91,24.47 4.39,8.01 8.88,15.96 13.31,23.94 -7.39,0 -14.76,0 -22.13,0 -3.09,-7.5 -6.22,-14.99 -9.16,-22.53 -2.06,7.54 -4.41,14.99 -6.54,22.53 -5.94,0 -11.9,0 -17.84,0 5.86,-19.9 11.92,-39.74 17.53,-59.71zm9.98 26.83c6.42,0.04 14.72,-1.82 15.76,-9.42 -0.46,-5.57 -7.39,-4.85 -11.41,-5.32 -1.43,4.92 -2.92,9.83 -4.35,14.74zm196.79 -26.96c10.98,0.15 22.14,-1.07 33.03,0.95 10.27,1.97 18.55,11.74 17.8,22.38 -0.89,14.56 -12.09,26.48 -24.82,32.41 -13.59,6.73 -29.15,3.23 -43.69,4.12 5.92,-19.94 11.89,-39.88 17.68,-59.86zm13.81 13.31c-3.1,11.08 -6.5,22.09 -9.65,33.17 8.39,0.35 17.66,-1.74 23.03,-8.74 3.89,-5.13 6.87,-12.83 3.19,-18.79 -3.61,-5.47 -10.81,-5.28 -16.57,-5.64zm101.58 -13.43c9.71,0.2 19.44,-0.44 29.13,0.37 4.8,0.27 10.47,2.44 11.65,7.66 1.16,8.01 -3.45,15.75 -10.08,19.98 3.99,1.32 8.49,3.85 8.32,8.7 0.83,12.21 -10.16,21.59 -21.55,22.85 -11.7,0.95 -23.46,0.17 -35.18,0.37 5.92,-19.99 11.85,-39.95 17.71,-59.93zm10.82 24.06c5.84,-0.34 12.14,-2.22 13.48,-8.78 -2.88,-2.38 -6.58,-2.74 -10.1,-3.09 -1.18,3.94 -2.32,7.89 -3.38,11.87zm-3.37 11.07c-1.29,4.29 -2.57,8.61 -3.81,12.94 6.64,0.12 17.6,-0.25 17.54,-9.38 -3.25,-4.14 -9.18,-2.88 -13.73,-3.56zm179.11 -35.09c10.7,0.19 21.47,-0.69 32.13,0.58 5.69,0.62 12.3,4.43 12.3,10.85 1.14,11.96 -8.65,22.19 -19.84,24.61 4.6,7.87 8.87,15.92 13.34,23.87 -7.37,0.01 -14.72,0.01 -22.05,0.01 -3.05,-7.31 -5.98,-14.68 -9.21,-21.91 -2.24,7.27 -4.45,14.58 -6.48,21.91 -5.97,0 -11.91,0 -17.87,0 5.92,-19.96 11.88,-39.92 17.68,-59.92zm9.87 26.95c5.82,-0.12 13.94,-1.01 15.33,-7.99 1.69,-6.43 -6.8,-6.54 -11.04,-6.66 -1.41,4.9 -2.86,9.77 -4.29,14.65zm99.22 -26.99c11.3,0.47 22.85,-1.2 33.97,1.36 8.99,2.2 16.54,10.31 16.73,19.8 0.44,15.07 -10.91,28.01 -23.91,34.2 -13.69,7.41 -29.69,3.73 -44.53,4.6 5.9,-20 11.78,-40 17.74,-59.96zm13.83 13.33c-3.31,11.06 -6.54,22.15 -9.82,33.23 5.49,-0.12 11.31,-0.17 16.2,-3.04 7.78,-4.06 13.33,-13.56 11.2,-22.3 -2.49,-7.21 -11.23,-7.5 -17.58,-7.89z"/>
   <path class="fil2" d="M1135.59 301.26c-10.08,-18.88 -16.09,-40.45 -13.17,-61.94 22.34,25.25 48.78,47.29 79.34,61.88 104.39,48.61 212.84,87.74 321.45,125.71 70.43,25.32 142.46,48.27 207.27,86.42 32.29,18.86 63.45,40.11 90.64,65.9 20.06,19.32 38.49,41.62 47.6,68.33 6.06,17.51 4.86,36.35 3.89,54.53 -0.23,6.94 -2.2,13.75 -6.26,19.44 -23.8,-24.72 -42.31,-53.87 -65.25,-79.34 -13.25,-14.47 -27.62,-28.55 -44.72,-38.38 -19.96,-1.04 -40.02,-0.04 -59.71,3.39 -106.65,-46.81 -212.7,-95.19 -319.2,-142.42 11.76,14.95 26.67,26.94 39.71,40.69 12.74,14.07 27.21,26.41 40.93,39.52 -99.83,0.21 -199.66,-0.06 -299.48,0.12 -7.9,0.35 -14.65,-4.37 -21.9,-6.7 -14.91,-5.12 -30.23,-10.94 -41.84,-21.99 -10.36,-10.08 -10.58,-25.66 -11.39,-39.15 32.01,12.4 65.61,20.1 99.05,27.53 -29.44,-14.12 -56.86,-32.87 -79.86,-56.1 -11.92,-12.8 -24.74,-28.51 -22.3,-47.21 36.57,15.96 72.9,32.55 109.9,47.52 -25.51,-19.63 -52.4,-38.37 -72.65,-63.73 -13.77,-17.2 -23.04,-39.17 -20.33,-61.53 35.84,23 72.46,44.8 109.4,66 -26.15,-27.33 -53.48,-54.58 -71.12,-88.49zm130.08 544.95c70.6,0.29 141.2,-0.02 211.8,0.15 -6.41,26.19 -13.16,52.31 -19.62,78.5 -4.48,-12.25 -8.76,-28.01 -22.82,-32.25 -20.89,-4.58 -42.42,-0.98 -63.58,-1.87 -4.82,17.35 -9.03,34.85 -13.48,52.3 27.19,0.02 54.39,-0.02 81.59,0.02 -4.03,15.93 -7.95,31.89 -12,47.83 -27.19,0.02 -54.37,0.02 -81.54,0 -5.59,22.21 -11.05,44.47 -16.43,66.73 19.04,-0.56 38.26,1.51 57.14,-1.58 20.29,-3.52 36.75,-17.84 47.78,-34.63 -6.58,27.28 -13.66,54.45 -20.49,81.67 -63.57,0.02 -127.13,0.04 -190.71,0 17.33,-70.25 34.68,-140.49 52.01,-210.74 2.59,-11.22 5.53,-23.66 0.46,-34.62 -1.95,-4.89 -6.15,-8.28 -10.11,-11.51zm22.76 12.24l0 0c3.5,5.65 6.99,11.3 10.45,16.99 -17.35,66.51 -34.26,133.15 -51.51,199.69 -1.57,5.59 -2.96,11.25 -3.54,17.04 27.91,-78.03 56.67,-155.77 84.86,-233.7 -13.41,-0.11 -26.83,-0.05 -40.26,-0.02zm-248.08 65.54c6.07,-25.79 12.78,-51.44 19.15,-77.16 68.68,-0.02 137.37,-0.04 206.07,0 -6.48,25.51 -12.84,51.06 -19.52,76.54 -3.57,-9.4 -7.05,-20.04 -16.2,-25.5 -10.16,-6.05 -22.38,-3.85 -33.56,-3.54 -12.32,47.53 -24.47,95.11 -36.71,142.67 -3.37,14.72 -8.69,29.13 -9.68,44.3 -0.67,8.57 3.37,16.71 10.06,21.91 -37.02,-0.29 -74.06,-0.04 -111.1,-0.11 17.41,-69.66 34.78,-139.29 52.24,-208.9 -11.91,-0.2 -24.47,-0.33 -35.34,5.26 -10.88,5.22 -18.6,14.87 -25.41,24.53zm25.88 -67.53l0 0c-3.64,14.06 -7.53,28.09 -10.89,42.22 10.89,-13.63 21.41,-27.58 31.89,-41.56 -7.02,-0.1 -14.02,-0.21 -21,-0.66zm47.58 37.49l0 0c-17.35,66.65 -35.16,133.23 -52.03,200 26.56,-69.02 51.93,-138.49 78.05,-207.7 -8.69,2.51 -17.32,5.2 -26.02,7.7zm-212.47 -47.26c41.06,0.25 82.12,0.1 123.21,0.08 3.61,85.44 7.09,170.87 10.34,256.31 -33.71,0.04 -67.4,-0.02 -101.12,0.02 -0.02,-16.6 -1.1,-33.2 -1,-49.79 -23.8,0.04 -47.59,-0.18 -71.36,0.09 -5.67,9.68 -11.35,20.3 -10.79,31.82 0.44,8.09 7.1,13.56 13.13,17.97 -26.69,-0.25 -53.38,-0.02 -80.06,-0.11 39.66,-71.26 79.25,-142.56 118.92,-213.81 3.95,-7.78 8.2,-15.75 9.23,-24.53 0.69,-7.68 -4.93,-13.69 -10.5,-18.05zm20.81 10.78l0 0c1.68,5.92 8.82,12.34 3.88,18.33 -38.23,67.49 -76.2,135.15 -114.37,202.69 -2.34,3.87 -3.86,8.47 -7.64,11.24 0.51,0.12 1.53,0.37 2.03,0.5 50.78,-77.89 102.54,-155.12 153.6,-232.82 -12.49,0.08 -25.01,0.02 -37.5,0.06zm25.55 235.1l0 0c5.69,-4.31 11.33,-8.64 16.96,-13.01 -8.64,-51.28 -16.98,-102.62 -25.74,-153.87 2.4,55.65 5.8,111.25 8.78,166.88zm-60.93 -85.43l0 0c14.89,0.4 29.83,0.27 44.74,0.08 -0.89,-25.54 -1.34,-51.07 -2.21,-76.6 -14.16,25.51 -28.14,51.12 -42.53,76.52zm-211.12 -160.2c68.74,-0.29 137.48,-0.07 206.25,-0.11 -6.46,25.9 -13.41,51.68 -19.52,77.66 -3.25,-10.1 -7,-21.67 -16.96,-27.04 -10.06,-5.55 -21.88,-3.35 -32.79,-3.17 -14.85,57.33 -29.57,114.7 -44.25,172.06 -3.25,12.54 -4.12,28.81 8.08,36.93 -37.08,-0.44 -74.18,-0.02 -111.28,-0.21 17.32,-69.64 34.84,-139.21 52.15,-208.84 -13.98,-0.43 -29.15,0.04 -40.95,8.57 -8.39,5.37 -14.23,13.59 -19.9,21.58 6.19,-25.86 12.98,-51.56 19.17,-77.43zm6.34 9.48l0 0c-3.67,14.18 -7.56,28.32 -11.04,42.56 10.79,-13.87 21.64,-27.72 31.97,-41.96 -6.98,0 -13.96,-0.09 -20.93,-0.6zm47.51 37.57l0 0c-17.22,66.63 -35.13,133.11 -51.92,199.84 26.46,-68.99 51.96,-138.37 77.91,-207.58 -8.68,2.55 -17.33,5.18 -25.99,7.74zm-272.13 -30.37c13.85,-12.48 33.13,-16.42 51.26,-16.81 52.07,0.02 104.16,0 156.22,0 -7.95,32.73 -15.64,65.51 -23.71,98.2 -3.36,-13.83 -9.26,-28.24 -21.68,-36.29 -16,-10.52 -36.35,-10.73 -54.76,-8.86 -10.79,0.88 -20,8.67 -23.48,18.81 -3.87,10.48 -8.67,23.26 -2.13,33.69 5.96,8.47 17.12,10.14 26.65,11.47 14.28,2.19 29.64,-1.37 43,5.46 12.67,5.66 20.56,18.66 22.88,31.99 4.07,21.43 -2.68,42.71 -8.45,63.11 -6.59,22.59 -13.48,46.93 -31.49,63.31 -13.87,13.06 -33.5,17.27 -51.99,17.43 -54.53,0.09 -109.03,0.02 -163.56,0.04 7.95,-34.82 15.84,-69.66 23.68,-104.49 2.78,13.09 5.8,27.35 15.97,36.92 10.87,10.1 26.58,11.47 40.72,11.45 12.59,-0.46 26.3,0 37.25,-7.25 11.47,-7.95 15.96,-22.36 17.72,-35.57 1.04,-7.27 -1.53,-16.02 -9.11,-18.61 -19.17,-6.9 -40.7,0.45 -59.58,-7.99 -12.9,-5.26 -21.5,-17.83 -24.13,-31.22 -5.01,-23.3 1.37,-47.02 9.01,-68.99 6.73,-19.92 13.56,-41.33 29.71,-55.8zm43.71 -4.82l0 0c-12.18,1.55 -25.63,2.65 -35.2,11.24 -16.6,14.33 -25.8,35.16 -31.99,55.76 -7.24,24.12 -10.6,51.07 0.62,74.57 -1.55,-32.71 6.32,-66.54 25.43,-93.44 8.42,-11.42 18.2,-22.62 31.34,-28.63 18.82,-8.63 39.44,-12.15 59.8,-14.97 16.58,-2.05 33.27,-3.68 50,-3.48 -11.97,-2.27 -24.21,-1.92 -36.34,-2.44 -21.22,-0.89 -42.52,-0.52 -63.66,1.39zm17.49 175.65l0 0c3.73,18.57 -0.66,40.02 -15.94,52.34 -14.04,11.18 -33.29,10.99 -50.14,8.14 17.24,8.82 38.85,15.9 57.37,6.87 13.82,-8.59 24.96,-24.6 22.83,-41.47 -1.12,-10.14 -7.41,-18.61 -14.12,-25.88zm-118.69 43.81l0 0c-4.33,19.19 -8.7,38.38 -12.65,57.64 7.78,-13.71 15.52,-27.43 23,-41.28 -3.31,-5.55 -6.32,-11.29 -10.35,-16.36zm1348.09 -322.44c8.82,0.02 17.64,0.6 26.5,0.58 -3.13,10.12 -4.01,21.18 -1.3,31.49 4.28,12.73 17.74,17.97 29,22.9 -13.72,2.83 -30.1,0.95 -39.21,-10.87 -11.37,-11.53 -17.02,-28 -14.99,-44.1zm28.32 -43.9c6.25,5.33 12.12,11.06 18.24,16.55 -7.45,6.11 -13.49,13.74 -17.7,22.38 -7.18,-5.63 -14.86,-10.54 -22.61,-15.28 6.21,-8.88 13.79,-16.69 22.07,-23.65zm-415.07 -126.35c15.2,-10.83 34.7,-11.91 52.75,-11.49 40.65,0.04 81.31,-0.04 121.99,0.04 -6.67,28.32 -13.74,56.54 -20.27,84.88 -3.06,-13 -9.23,-26.31 -21.38,-33.12 -14.12,-7.56 -31.06,-7.93 -46.57,-5.61 -8.78,1.14 -15.44,8.22 -18.3,16.27 -3.04,8.2 -6.36,17.6 -2.92,26.17 3.98,8.2 13.71,10.66 22.01,11.84 13.25,2.34 27.64,-1.26 40.02,5.32 12.57,6.11 19.07,20.3 19.61,33.77 1.51,19.57 -5.57,38.24 -10.71,56.79 -5.65,18.41 -13.06,38.14 -29.58,49.55 -15.66,10.95 -35.63,11.14 -53.98,10.87 -42.07,-0.02 -84.14,0.02 -126.21,-0.02 6.67,-30.11 13.73,-60.13 20.31,-90.25 2.53,11.8 5.22,24.95 15.01,33.06 10.17,8.47 24.14,8.97 36.75,8.84 11.2,-0.41 23.87,-0.76 32.49,-9 7.43,-7.58 10.7,-18.33 11.84,-28.66 0.93,-6.62 -2.61,-14.16 -9.5,-15.77 -16.61,-4.77 -35,0.99 -50.98,-6.83 -11.55,-5.18 -18.38,-17.31 -20.04,-29.45 -3.27,-19.95 2.73,-39.75 9.09,-58.44 6.03,-17.85 12.82,-37.1 28.57,-48.76zm15.05 7.49l0 0c-12.28,8 -19.96,21.16 -25.65,34.31 -6.04,14.18 -10.27,29.11 -12.79,44.29 -2.14,12.34 0.62,25.03 5.73,36.31 1.22,-34.57 12.9,-69.85 37.64,-94.72 9.09,-9.88 22.57,-13.56 35.14,-16.83 22.79,-5.2 46.25,-7.17 69.6,-7.56 -23.77,-4.04 -48.01,-4.55 -72.05,-3.98 -12.77,0.87 -26.19,1.85 -37.62,8.18zm39.28 148.02l0 0c2.71,15.71 -0.42,33.62 -13.11,44.34 -12.11,10.38 -29.23,10.17 -44.1,7.89 15.9,6.79 35.8,11.28 51.43,1.49 10.79,-7.87 19.96,-21.28 16.96,-35.21 -1.29,-7.36 -6.17,-13.26 -11.18,-18.51zm-104 32.05l0 0c-4.12,17.84 -8.4,35.63 -12.3,53.51 8.18,-12.73 15.55,-25.94 23.55,-38.77 -3.63,-5.01 -7.4,-9.9 -11.25,-14.74zm-102.4 -199.11c40.81,0.14 81.62,0.02 122.44,0.06 -21.42,85.59 -42.73,171.2 -64.24,256.75 -31.62,0.02 -63.23,0.04 -94.85,0 18.37,-70.75 36.73,-141.51 54.97,-212.3 4.87,-17.02 -3.5,-35.42 -18.32,-44.51zm28.14 11.69l0 0c3.41,5.62 6.89,11.23 10.39,16.82 -17.52,69.81 -35.94,139.4 -53.33,209.23 28.34,-75.12 55.46,-150.75 83.37,-226.05 -13.48,-0.04 -26.96,-0.04 -40.43,0zm-516.28 -11.67c38.93,0.1 77.89,0.04 116.82,0.02 9.64,36.97 19.19,73.93 28.86,110.89 9.37,-36.9 18.49,-73.88 27.76,-110.81 22.55,-0.12 45.12,-0.02 67.7,-0.06 -21.2,85.63 -42.67,171.2 -64.08,256.77 -26.58,0 -53.16,0 -79.73,0 -11.18,-43.31 -22.46,-86.57 -33.74,-129.84 -6.13,24.29 -12.49,48.53 -18.6,72.84 -3.18,12.4 -7.78,25.59 -3.85,38.38 1.91,7.19 6.63,13.07 11.33,18.66 -29.69,-0.11 -59.36,0.02 -89.03,-0.08 16.19,-65.97 32.73,-131.87 49.09,-197.81 3.09,-11.45 6.58,-23.6 3.58,-35.44 -2.25,-9.57 -9.11,-17.06 -16.11,-23.52zm26.22 11.71l0 0c3.41,5.74 6.95,11.43 10.41,17.15 -8.59,32.48 -16.67,65.07 -25.09,97.58 -9.84,39.56 -20.73,78.88 -29.92,118.59 28.45,-77.72 56.62,-155.55 84.88,-233.36 -13.43,-0.02 -26.85,-0.08 -40.28,0.04zm160.16 -0.08l0 0c-10.97,46.19 -22.75,92.22 -33,138.57 19.29,-46.15 38.47,-92.34 57.74,-138.51 -8.26,-0.06 -16.5,-0.04 -24.74,-0.06zm-110.52 111.97l0 0c10.71,40.85 22.57,81.43 33.77,122.17 5.28,-3.04 10.54,-6.11 15.78,-9.21 -16.56,-37.64 -32.78,-75.42 -49.55,-112.96zm-196.15 -123.62c38.7,0.16 77.4,-0.02 116.11,0.1 -21.34,85.59 -42.75,171.16 -64.18,256.73 -31.57,0 -63.13,0.02 -94.72,-0.02 16.09,-65.47 32.63,-130.83 48.94,-196.26 3,-12.79 7.85,-25.92 4.81,-39.17 -1.43,-8.07 -5.86,-15.13 -10.96,-21.38zm23.42 11.69l0 0c3.4,5.64 6.85,11.25 10.39,16.81 -17.49,69.7 -35.96,139.18 -53.2,208.95 28.23,-75.07 55.36,-150.56 83.23,-225.76 -13.48,-0.04 -26.94,-0.02 -40.42,0zm-207.78 -11.55c38.4,-0.16 76.81,-0.04 115.21,-0.06 -17.24,67.68 -34.24,135.4 -51.32,203.12 7.55,-0.12 15.09,0.09 22.65,-0.04 9.21,0.07 17.62,-4.45 25.07,-9.44 18.08,-12.5 32.71,-29.62 43.38,-48.78 -9.07,37.37 -18.49,74.64 -27.98,111.89 -56.95,-0.04 -113.87,0.08 -170.82,-0.06 18.4,-73.13 37.1,-146.2 55.69,-219.3 1.49,-7.22 3.04,-15.18 -0.41,-22.07 -3.01,-5.65 -7.54,-10.27 -11.47,-15.26zm23.95 11.55l0 0c3.37,5.68 6.83,11.31 10.39,16.88 -19.11,71.36 -38.44,142.69 -57.45,214.08 2.73,-5.68 4.83,-11.6 6.98,-17.5 26.75,-71.16 53.7,-142.22 80.33,-213.42 -13.42,-0.1 -26.83,-0.06 -40.25,-0.04zm92.75 191.37l0 0c-10.64,7.1 -23.68,8.76 -36.08,10.29 -12.61,1.1 -25.3,1.97 -37.93,0.91 23.68,4.25 47.72,6.3 71.57,9.54 7.89,-13.33 16.58,-26.19 23.91,-39.85 -7.12,6.4 -13.23,14.04 -21.47,19.11zm-301.92 -202.92c38.4,-0.16 76.79,-0.04 115.17,-0.06 -17.05,67.64 -34.14,135.28 -51.24,202.92 13.4,-0.27 27.99,2.57 40.11,-4.72 21.9,-12.22 38.92,-31.91 51.11,-53.6 -9.25,37.41 -18.59,74.78 -28.03,112.15 -56.96,-0.02 -113.95,0.04 -170.91,-0.04 18.41,-73.13 37.1,-146.21 55.69,-219.3 1.62,-7.29 2.99,-15.36 -0.49,-22.36 -3.01,-5.53 -7.52,-10.08 -11.41,-14.99zm23.15 11.6l0 0c4.34,4.45 8.75,8.86 13.12,13.27 -19.31,68.67 -38.36,137.39 -57.66,206.06 -0.93,3.34 -1.66,6.73 -2.28,10.15 28.99,-76.48 57.79,-153.03 86.79,-229.53 -13.33,0 -26.64,-0.1 -39.97,0.05zm114.7 172.38l0 0c-10.13,9.79 -19.26,21.78 -33.19,26.31 -20.17,6.38 -41.66,4.87 -62.51,4.26 25.18,4.08 50.42,7.79 75.63,11.72 6.77,-14.07 13.9,-27.95 20.07,-42.29zm701.63 -189.82c9.34,-0.97 18.76,-1.28 28.16,-0.85 21.74,0.85 43.85,2.59 64.47,10.07 11.49,4.1 22.24,11.03 29.42,21.03 6.58,9.28 9.48,20.73 9.9,31.97 1.2,26.29 -5.45,52.03 -11.89,77.3 -7.99,29.47 -18.13,59.43 -37.74,83.4 -15.88,19.88 -38.8,33.44 -63.27,39.81 -27.31,7.23 -55.98,7.81 -83.98,5.3 -19.34,-2.07 -39.52,-6.66 -54.8,-19.39 -12.61,-10.61 -18.51,-27.17 -19.38,-43.28 -1.53,-26.14 4.54,-51.96 11.18,-77.04 9.65,-34.92 24.39,-70.1 51.37,-95.25 20.66,-19.59 48.44,-30.5 76.56,-33.07zm-62.26 41.55l0 0c-23.06,21.06 -34.22,51.14 -44.12,79.96 -7.76,24.06 -15.92,48.72 -15.07,74.37 0.17,15.61 4.33,32.67 16.98,42.96 -6.44,-18.09 -5.76,-37.76 -2.67,-56.42 4.84,-29.19 16.4,-56.64 28.3,-83.52 7.08,-15.36 14.62,-31.03 26.89,-42.98 11.74,-11.8 27.09,-18.9 42.07,-25.63 14.87,-6.68 31.39,-8.2 47.52,-8.59 24.26,-0.02 48.36,3.62 72.05,8.63 -24.82,-13.5 -53.17,-22.05 -81.63,-19.38 -31.89,1.33 -67.17,6.38 -90.32,30.6zm73.83 4.73l0 0c-6.72,2.04 -12.34,6.62 -16.66,12.03 -12.4,16.04 -17.42,36.21 -22.18,55.56 -5.65,25.91 -14.41,51.39 -15.79,78.08 -0.17,9.19 -0.64,19.44 5.11,27.24 4.91,6.49 14.31,6.28 21.16,3.36 10.12,-4.12 16.48,-13.71 21.41,-22.98 8.11,-16.52 12.44,-34.54 16.42,-52.4 5.19,-23.65 12.96,-46.94 14.32,-71.25 0.21,-8.73 0.52,-18.4 -4.76,-25.85 -4.22,-6.05 -12.75,-5.99 -19.03,-3.79zm38.91 18.67l0 0c-4.54,39.88 -10.63,79.79 -21.68,118.43 -5.94,19.56 -14.74,41.45 -34.89,50.06 -10.29,5.26 -22.21,2.3 -31.84,-2.98 5.92,7.49 13.44,14.9 23.4,16.04 12.44,1.1 25.01,-4.12 33.81,-12.87 12.29,-12.96 17.28,-30.73 22.32,-47.4 10.43,-39.35 13.89,-80.87 8.88,-121.28zm-1038.72 -126.83c50.44,-0.11 100.87,-0.04 151.31,-0.04 -27.07,108.15 -54.12,216.31 -81.12,324.45 -39.88,0.02 -79.78,-0.04 -119.67,0.04 21.41,-87.37 43.08,-174.66 64.62,-261.97 3.1,-13.21 8.65,-26.93 4.68,-40.56 -2.86,-9.98 -11.35,-16.72 -19.82,-21.92zm27.7 11.05l0 0c3.71,8.26 7.73,16.36 11.47,24.6 -10.14,41.26 -20.2,82.51 -30.33,123.77 -12.26,51.43 -25.69,102.61 -37.29,154.18 34.54,-100.7 68.27,-201.68 102.65,-302.46 -15.52,-0.17 -31.01,-0.02 -46.5,-0.09zm1040.11 -229.95l0 0c9.87,18.17 23.76,33.7 37.16,49.27 7.18,8.94 18.11,13.31 27.78,18.86 45.39,22.65 96.13,34.06 146.71,35.63 -44.41,-14.45 -89.63,-28.34 -130.06,-52.31 -27.97,-15.91 -54.18,-34.66 -81.59,-51.45zm-19.44 78.86l0 0c11.61,19.27 25.85,37.28 43.82,50.97 24.19,18.9 54.85,26.13 84.56,30.85 22.75,2.15 45.74,1.37 68.43,-1.18 -22.57,-7.21 -46.11,-10.56 -68.89,-16.94 -46.35,-12.94 -86.7,-39.89 -127.92,-63.7z"/>
   <path class="fil3" d="M1587.08 765.61c27.31,-5.26 56.05,-6.63 83.04,1.14 22.72,6.42 43.79,20.21 56.92,40.1 5.32,7.41 8.32,16.07 12.4,24.16 7.64,9.73 16.6,19.11 27.87,24.6 12.61,5.8 27.47,2.34 38.42,-5.45 11.04,-7.99 22.72,-15.87 30.6,-27.24 12.32,-17.52 19.67,-37.89 26.03,-58.16 0.19,-0.14 0.56,-0.39 0.75,-0.52 20.06,15.68 36.81,35.05 54.01,53.73 46.54,46.79 69.5,116.62 57.54,181.78 -4.21,21.12 -11.82,41.43 -20.89,60.91 -14.1,-19.25 -28.49,-40.79 -51.6,-49.9 -49.65,-24.11 -94.45,-56.81 -138.13,-90.26 -27.29,-20.94 -53.87,-42.8 -81.04,-63.9 -13.08,-9.87 -26,-20.16 -40.74,-27.47 7.66,-1.7 15.25,-3.85 23,-5.05 11.16,-1.87 22.5,-0.71 33.73,-0.44 -24.25,-13.77 -52.39,-19.77 -80.13,-19.77 -23.46,0.64 -48.92,6.23 -65.57,23.98 -16.02,17.06 -18.16,42.92 -11.86,64.59 1.12,0.15 3.41,0.46 4.55,0.62 -0.85,-10.37 -1.43,-21.2 3.11,-30.87 68.71,30.48 137.06,61.82 205.3,93.32 46.77,21.86 93.6,43.66 139.29,67.74 5.08,2.71 10.07,5.61 14.97,8.7 -18.57,6.99 -38.05,11.13 -57.31,15.59 -19.23,3.91 -38.59,8.69 -58.34,8.19 -36.31,-0.06 -73.17,0.11 -108.61,-8.84 -37.06,-9.73 -72.07,-27.22 -102.05,-51.07 -23.73,-18.97 -44.62,-42.3 -57.56,-69.98 -10.49,-21.85 -15.15,-46.86 -11.18,-70.93 3.27,-21.7 13.23,-41.97 26.61,-59.22 11.07,-15.59 28.21,-26.25 46.87,-30.08zm254.62 66.21l0 0c-3.34,5.69 -8.7,13.79 -2.63,19.57 4.28,6.58 13.39,4.88 19.15,1.4 7.7,-5.67 10.68,-15.28 13.64,-23.93 -5.28,5.05 -9.81,11.88 -17.14,14.04 -3.27,1.03 -5.96,-2.47 -5.67,-5.43 0.85,-7.24 7.08,-11.86 11.24,-17.28 -8.26,-1.68 -14.35,5.63 -18.59,11.63zm87.49 30.35l0 0c3.85,22.99 12.9,44.81 15.96,67.99 1.68,11.62 1.19,23.42 1.08,35.12 -0.83,15.53 -1.86,31.32 -7,46.13 4.66,6.68 9.34,13.33 14.08,19.96 4.23,-13.28 7.06,-27 9.15,-40.75 2.96,-45.05 -11.01,-89.69 -33.27,-128.45z"/>
  </g>
 </g>
</svg>
