<?xml version="1.0" encoding="UTF-8"?>
<!DOCTYPE svg PUBLIC "-//W3C//DTD SVG 1.1//EN" "http://www.w3.org/Graphics/SVG/1.1/DTD/svg11.dtd">
<!-- Creator: CorelDRAW -->
<svg xmlns="http://www.w3.org/2000/svg" xml:space="preserve" width="2000px" height="1600px" version="1.1" style="shape-rendering:geometricPrecision; text-rendering:geometricPrecision; image-rendering:optimizeQuality; fill-rule:evenodd; clip-rule:evenodd"
viewBox="0 0 2000 1600"
 xmlns:xlink="http://www.w3.org/1999/xlink">
 <defs>
  <style type="text/css">
   <![CDATA[
    .fil0 {fill:#702C3C;fill-rule:nonzero}
    .fil2 {fill:#F5A81C;fill-rule:nonzero}
    .fil1 {fill:#FEFEFE;fill-rule:nonzero}
   ]]>
  </style>
 </defs>
 <g id="Capa_x0020_1">
  <metadata id="CorelCorpID_0Corel-Layer"/>
  <g id="Iona_x0020_Gaels.cdr">
   <path class="fil0" d="M268.32 22.34c480.17,0.02 960.35,0 1440.55,0 -0.15,58.53 0.07,117.06 -0.12,175.59 56.98,-0.04 113.94,-0.02 170.93,0 -46.23,47.26 -92.15,94.77 -138.27,142.15 30.58,85.48 61.27,170.93 91.8,256.42 1.17,3.3 2.62,6.61 5.23,9.09 53.82,53.98 108.05,107.59 161.56,161.89 -112.45,-0.22 -224.89,0.09 -337.34,-0.17 -28.1,93.27 -67.81,182.92 -117.47,266.7 -91.94,155.25 -215.26,290.61 -355.02,404.15 -63.6,51.4 -130.53,98.89 -201.58,139.5 -71.52,-40.75 -138.79,-88.67 -202.77,-140.4 -140.16,-114.07 -263.77,-250.12 -355.64,-406.18 -48.87,-82.92 -87.94,-171.59 -115.73,-263.77 -104.76,0.14 -209.55,0.19 -314.31,-0.02 50.9,-51.42 101.91,-102.72 152.47,-154.47 -0.14,-86.7 -0.12,-173.41 -0.02,-260.11 -50.8,-51.63 -101.62,-103.26 -152.59,-154.75 89.46,-0.07 178.93,-0.05 268.39,-0.03 -0.12,-58.53 0.05,-117.06 -0.07,-175.59z"/>
   <path class="fil1" d="M953.9 1022.9c23.39,-5.88 48.21,-5.76 71.62,-0.05 0.14,14.28 -0.14,28.58 0.19,42.88 27.55,10.25 49.51,32.88 60.2,60.15 14.13,-0.12 28.26,0.07 42.4,-0.17 6.13,23.48 5.85,48.35 0.07,71.88 -14.21,-0.02 -28.44,0.05 -42.62,-0.1 -10.73,27.3 -32.93,49.47 -60.29,60.04 0.17,14.15 0.03,28.31 0.14,42.47 -23.43,6.33 -48.3,6.11 -71.76,0.11 0.05,-14.18 -0.04,-28.36 0.08,-42.54 -27.18,-10.78 -49.5,-32.69 -60.06,-60.03 -14.2,0.07 -28.41,0.03 -42.59,0.05 -6.11,-23.41 -6.07,-48.3 -0.17,-71.76 14.21,-0.03 28.39,0 42.59,0 10.52,-27.44 32.79,-49.66 60.15,-60.32 0.05,-14.2 -0.02,-28.41 0.05,-42.61zm356.47 -214.43c23.01,-10.82 51.75,-5.71 71.79,9.28 -5.24,7.38 -10.52,14.73 -15.63,22.18 -11.16,-7.05 -24.51,-13.38 -37.98,-10.35 -5.78,1.28 -7.71,9.9 -2.02,12.58 14.99,7.43 33.38,6.57 47.06,17.14 15.61,10.77 14.8,35.54 2,48.2 -10.28,10.21 -25.6,13.02 -39.59,12.37 -18.23,-0.14 -35.98,-7.04 -50.09,-18.41 6,-6.86 11.78,-13.9 17.63,-20.87 12.76,9.3 29.13,16.37 45.07,12.21 5.61,-1.77 7.23,-9.88 1.43,-12.52 -16.42,-7.97 -37.17,-6.88 -50.9,-20.34 -14.22,-15.23 -7.68,-43.16 11.23,-51.47zm-173.28 -3.76c10.37,0.07 20.79,0.05 31.19,0.05 -0.24,28.65 0,57.27 -0.14,85.92 18.39,-0.1 36.78,0.05 55.17,-0.1 -0.02,9.12 0,18.25 0,27.37 -28.74,-0.19 -57.48,-0.15 -86.22,-0.03 0.04,-37.73 0.07,-75.47 0,-113.21zm-179.45 0.1c30.45,-0.15 60.91,0.05 91.36,-0.1 -0.04,8.9 -0.04,17.78 0,26.67 -20.15,-0.04 -40.33,-0.11 -60.48,0.05 0.02,5.71 0.07,11.45 0.17,17.18 18.1,0.12 36.21,0 54.34,0.07 -0.09,8.21 -0.09,16.44 0.02,24.68 -18.13,0.09 -36.28,-0.07 -54.41,0.09 -0.07,5.95 -0.07,11.9 0,17.85 20.27,0.09 40.57,0.07 60.84,0 -0.02,8.87 -0.05,17.75 0.05,26.62 -30.65,-0.19 -61.27,0.03 -91.89,-0.12 0.02,-37.66 0.02,-75.33 0,-112.99zm-336.85 2.4c23.39,-9.33 51.33,-4.52 70.69,11.54 -6.16,7.52 -12.54,14.85 -18.56,22.46 -11.01,-9.9 -28.29,-14.73 -41.73,-6.87 -16.46,9.75 -19.63,34.59 -7.33,48.87 10.14,11.8 28.94,13.39 41.81,5.26 -0.14,-4.64 -0.22,-9.26 -0.26,-13.88 -7.5,-0.02 -14.97,-0.02 -22.42,0.03 0.07,-7.57 0.07,-15.13 0.03,-22.7 17.32,0.05 34.66,0.12 52.01,-0.05 0,17.06 -0.07,34.15 0.05,51.23 -13.88,10.78 -31.15,17.7 -48.92,16.96 -22.58,1.07 -46,-11.13 -55.89,-31.86 -5.95,-11.32 -6.38,-24.53 -5.02,-36.97 2.78,-19.66 17.13,-36.86 35.54,-44.02zm-182.99 -30.05c4.16,0 8.33,0.05 12.49,0.07 38.26,112.33 96.27,217.38 167.39,312.17 102.19,136.05 229.94,251.97 371.08,346.55 147.02,-98.15 279.05,-220.06 383.24,-363.18 65.43,-90.39 119.25,-189.66 154.94,-295.52 4.24,-0.04 8.45,-0.09 12.73,-0.11 -29.29,86.06 -69.43,168.29 -118.66,244.66 -110.92,171.89 -262.27,315.55 -432.23,428.33 -144.95,-96 -275.84,-214.45 -380.48,-353.61 -72.73,-96.87 -131.72,-204.44 -170.5,-319.36zm1126.04 -316.64c7.83,21.65 15.23,43.47 22.3,65.38 -15.06,-0.02 -30.12,-0.05 -45.16,0.03 7.66,-21.8 14.92,-43.74 22.86,-65.41zm-1178.08 -310.65c401.97,0.22 803.96,0.14 1205.95,0.02 -0.07,19.3 -0.15,38.57 0.04,57.87 -4.04,0 -8.09,0 -12.08,0 0.19,-15.54 0.12,-31.07 0.07,-46.61 -394.09,0 -788.18,0.05 -1182.25,-0.03 -0.24,15.57 -0.09,31.1 -0.07,46.64 -3.9,0 -7.8,0.02 -11.71,0.02 0.08,-19.29 0.03,-38.61 0.05,-57.91zm242.84 92.27c54.17,-7.11 110.61,3.88 157.94,31.31 50.2,28.75 90.15,75.14 110.59,129.32 22.29,57.96 21.96,124.25 -0.88,182 -21.22,54.63 -62.39,101.07 -113.71,129.27 -42.66,23.55 -92.37,34.38 -140.93,30.31 -67.74,-4.64 -132.6,-38.83 -175.47,-91.37 -37.05,-44.71 -58.11,-102.62 -57.34,-160.77 -0.53,-55.25 18.62,-110.26 52.46,-153.85 40.26,-52.37 101.67,-88.13 167.34,-96.22zm6.73 18.8l0 0c-72.69,7.76 -140.17,52.08 -176.16,115.71 -25.11,43.16 -35.41,94.6 -29.25,144.11 5.95,51.56 30.27,100.7 67.17,137.1 36.52,36.59 85.63,60.44 137.05,66.15 52.04,6.42 106.1,-6 150.45,-33.89 49.15,-30.57 86.08,-80.11 101.21,-135.98 12.76,-46.15 10.74,-96.29 -5.82,-141.23 -18.35,-50.87 -55.23,-94.7 -102.01,-121.78 -42.66,-25.15 -93.46,-35.47 -142.64,-30.19zm-551.51 -18.04c131.22,0.15 262.45,0.26 393.67,-0.07 -35.36,35.07 -70.67,70.17 -105.58,105.69 0.34,96.1 0.05,192.21 0.15,288.31 35.14,35.38 70.33,70.69 105.74,105.81 -131.37,-0.19 -262.76,-0.24 -394.12,0.02 34.86,-35.05 69.55,-70.31 104.05,-105.71 -0.1,-96.39 0,-192.75 -0.05,-289.12 -34.88,-34.71 -68.95,-70.24 -103.86,-104.93zm46.85 19.49l0 0c24.68,24.67 49.09,49.61 73.72,74.33 2.52,1.93 3.06,4.95 2.87,7.95 -0.11,100.29 -0.04,200.55 -0.02,300.84 -25.58,25.65 -50.92,51.51 -76.52,77.11 99.74,-0.07 199.46,-0.14 299.2,0.05 -25.74,-25.96 -51.89,-51.49 -77.33,-77.73 0.1,-101.67 0.03,-203.34 0.05,-304.98 25.96,-25.72 51.56,-51.8 77.64,-77.4 -99.89,-0.27 -199.75,0.07 -299.61,-0.17zm716.85 -19.49c316.5,0.1 633.02,0.29 949.55,-0.09 -32.36,32.55 -63.96,65.83 -96.03,98.64 34.9,95.56 68.64,191.59 103.21,287.26 0.93,2.74 2.86,4.9 4.88,6.95 35.83,35.55 71.29,71.48 107.19,106.98 -226.94,-0.24 -453.88,-0.15 -680.82,-0.05 -51.18,-71.14 -101.46,-142.93 -152.57,-214.14 0.22,36.26 0.03,72.52 0.12,108.8 35.48,34.86 70.29,70.43 105.72,105.34 -113.81,-0.1 -227.61,-0.19 -341.42,0.05 35.27,-34.93 70.31,-70.1 105.34,-105.29 -0.17,-96.53 -0.05,-193.06 -0.05,-289.59 -35.02,-34.98 -69.76,-70.24 -105.12,-104.86zm47.28 19.51l0 0c26.05,25.77 51.84,51.78 77.75,77.69 0,101.62 -0.11,203.24 0.08,304.86 -25.75,26.03 -51.59,51.97 -77.69,77.62 82.02,0.07 164.01,-0.24 246.02,0.14 -25.83,-25.72 -51.58,-51.56 -77.54,-77.16 0,-59.6 -0.02,-119.21 0,-178.81 60.63,85.4 121.06,170.96 182.12,256.04 21.89,-0.47 43.78,-0.17 65.67,-0.17 -0.05,-105.3 0,-210.61 -0.03,-315.92 0.43,-22.25 -0.85,-44.66 0.57,-66.82 25.44,-26.05 51.33,-51.77 77.31,-77.32 -81.88,-0.17 -163.75,-0.15 -245.6,-0.03 26.13,25.39 51.54,51.51 77.47,77.09 -0.04,37.55 -0.02,75.07 0.03,112.59 -45.42,-63.17 -90.7,-126.46 -135.98,-189.75 -63.41,-0.02 -126.8,0.05 -190.18,-0.05zm540.08 0.1l0 0c28.1,24.58 55.59,49.87 83.57,74.61 -36.38,100.96 -72.15,202.18 -108.31,303.2 -2.5,6.45 -6.73,11.97 -10.47,17.73 -14.04,21.51 -28,43.07 -42.16,64.5 170.38,0.1 340.77,-0.16 511.15,0.15 -25.62,-25.63 -51.18,-51.28 -76.88,-76.81 -5.02,-4.61 -6.3,-11.56 -8.58,-17.65 -34.77,-97.41 -69.89,-194.7 -104.5,-292.16 24.07,-24.41 47.72,-49.25 71.95,-73.52 -105.27,-0.19 -210.5,-0.1 -315.77,-0.05zm-104.28 85.94l0 0c0.35,126.37 -0.15,252.73 0.26,379.08 19.01,-28.65 37.5,-57.65 56.49,-86.33 5.33,-7.61 7.47,-16.75 10.7,-25.33 32.55,-90.99 64.81,-182.07 97.48,-273.03 -28.14,-25.01 -56.13,-50.19 -84.06,-75.41 -26.93,27.03 -54.06,53.87 -80.87,81.02zm-688.06 31.31c22.41,-3.35 45.92,-0.69 66.48,9.07 32.19,14.82 56.84,45.25 63.88,80.06 8.24,36.57 -3.54,76.86 -30.02,103.34 -17.4,18.15 -41.05,30.26 -65.98,33.52 -31.81,4.81 -65.34,-5.14 -89.68,-26.08 -27.29,-22.86 -42.9,-59 -40.09,-94.6 2.35,-51.61 44.42,-97.62 95.41,-105.31zm-16.32 20.51l0 0c0.21,8.83 0.24,17.66 0.17,26.48 -13.12,7.26 -23.77,18.18 -31.2,31.15 -8.9,0.33 -18.03,-1.05 -26.79,0.67 -8.09,22.1 -7.57,46.54 -0.02,68.71 8.97,0.03 17.94,0 26.91,0.05 7.23,13.06 18.1,23.82 31.12,31.17 0,8.94 0,17.89 -0.02,26.84 22.34,7.73 46.8,7.64 69.19,0.09 -0.08,-8.9 -0.08,-17.8 -0.08,-26.67 13.07,-7.54 24.13,-18.25 31.48,-31.45 9,-0.03 17.97,0 26.94,-0.08 7.49,-22.46 7.54,-46.94 -0.1,-69.38 -8.97,0 -17.94,0.03 -26.91,-0.04 -7.3,-13.26 -18.53,-23.82 -31.45,-31.53 0.09,-8.9 0.12,-17.8 -0.05,-26.7 -22.49,-7.04 -46.99,-7.85 -69.19,0.69zm871.6 248.52c3.85,-12.89 8.14,-25.69 13.16,-38.18 34.69,0.35 69.38,0.07 104.09,0.14 4.69,12.44 8.66,25.17 13.18,37.69 -21.96,21.65 -43.56,43.66 -65.5,65.33 -21.51,-21.79 -43.16,-43.44 -64.93,-64.98zm26.41 -18.01l0 0c-1.36,4.09 -2.79,8.16 -4.17,12.23 14.33,14.3 28.72,28.51 42.86,43 14.32,-14.35 28.64,-28.7 43.02,-43 -1.62,-4.11 -3.15,-8.25 -4.67,-12.37 -25.67,0.1 -51.37,-0.17 -77.04,0.14zm-762.53 287.17c16.27,-37.81 32.12,-75.79 48.13,-113.69 10.19,0.17 20.39,0.05 30.58,0.17 16.06,37.78 31.78,75.73 48.08,113.44 -11.2,-0.02 -22.41,-0.11 -33.59,0.12 -2.84,-6.75 -5.62,-13.49 -8.45,-20.22 -14.54,0.09 -29.05,0.07 -43.57,0.02 -2.66,6.74 -5.37,13.47 -8.2,20.16 -11.02,-0.17 -22.01,-0.17 -32.98,0zm63.1 -76.69l0 0c-4.4,10.75 -8.33,21.68 -13.02,32.33 8.66,0 17.32,0 26.01,0 -4.59,-10.68 -8.52,-21.62 -12.99,-32.33zm98.07 293.63l0 0c9.33,3.93 20.37,4.72 29.15,-1.04 13.44,-7.59 17.99,-25.68 11.11,-39.24 -18.15,7.45 -32.62,22.3 -40.26,40.28zm96.99 -7.66l0 0c8.59,11.02 24.5,13.59 36.83,7.66 -7.52,-18.1 -22.18,-32.59 -40.12,-40.35 -5.06,10.49 -4.4,23.63 3.29,32.69zm-97.03 61.29l0 0c8.02,17.73 22.31,32.22 40.16,40.07 5.21,-10.8 4.45,-24.36 -3.83,-33.4 -8.59,-10.64 -24.48,-13.11 -36.33,-6.67zm101.38 2.91l0 0c-11.14,8.61 -13.97,24.84 -7.49,37.19 17.67,-8.05 32.05,-22.39 40.11,-40.07 -10.3,-5.4 -23.63,-4.76 -32.62,2.88z"/>
   <path class="fil2" d="M1519.59 535.37c15.18,-42.68 29.55,-85.65 44.87,-128.27 14.47,42.83 29.17,85.56 43.93,128.3 -29.6,-0.05 -59.2,0.02 -88.8,-0.03zm-1149.34 236.1c14.08,0 28.17,-0.04 42.26,0.05 37.45,115.04 95.31,222.92 166.57,320.5 111.07,151.44 252.36,279.81 410.01,381.38 144.05,-92.65 273.98,-208 380.34,-342.41 84.84,-107.66 153.61,-228.87 196.13,-359.47 14.11,-0.09 28.19,-0.05 42.28,-0.05 -54.01,172.65 -151.83,329.42 -273.17,462.71 -101.25,110.81 -217.74,207.84 -345.58,286.52 -80.14,-49.1 -155.49,-105.9 -225.82,-168.19 -126.61,-112.64 -236.94,-245.17 -315.79,-395.61 -31.17,-59.37 -57.05,-121.47 -77.23,-185.43zm310.07 -265.24c5.43,-6.24 14.23,-5.91 21.44,-3.57 -5.02,10.92 -13.73,19.7 -24.79,24.53 -1.67,-7.07 -2.64,-15.59 3.35,-20.96zm-59.22 -3.64c6.9,-1.96 15.18,-2.76 20.68,2.83 6.47,5.3 6.61,14.58 3.66,21.84 -10.68,-5.28 -19.37,-13.82 -24.34,-24.67zm58.89 -35.27c-5.61,-5.42 -4.52,-13.63 -3.24,-20.55 11.28,4.54 20.16,13.53 24.89,24.69 -7.37,2.22 -16.25,2.17 -21.65,-4.14zm-58.7 4.31c4.64,-11.21 13.49,-20.92 25.3,-24.58 0.97,7.14 1.73,15.78 -4.43,20.96 -5.42,5.71 -13.8,5.43 -20.87,3.62zm-299.72 -392.28c445.03,0.09 890.06,-0.26 1335.09,0.16 -0.26,40.88 -0.07,81.78 -0.09,122.66 -13.42,-0.07 -26.82,-0.05 -40.21,-0.02 0,-27.6 0.16,-55.21 -0.08,-82.81 -418.21,0.24 -836.45,0 -1254.67,0.12 0.14,27.56 0,55.13 0.1,82.69 -13.4,-0.03 -26.77,-0.03 -40.17,0 0.1,-40.93 0.1,-81.88 0.03,-122.8zm314.09 175.9c49.18,-5.28 99.98,5.05 142.64,30.2 46.78,27.07 83.66,70.9 102.01,121.77 16.56,44.95 18.58,95.08 5.83,141.24 -15.14,55.87 -52.06,105.4 -101.22,135.98 -44.35,27.88 -98.41,40.3 -150.45,33.88 -51.41,-5.71 -100.52,-29.55 -137.05,-66.15 -36.9,-36.4 -61.22,-85.53 -67.17,-137.09 -6.16,-49.52 4.15,-100.96 29.25,-144.12 36,-63.62 103.48,-107.95 176.16,-115.71zm1.86 15.42l0 0c-74.16,7.38 -142.05,56.42 -173.12,123.99 -18.96,40.23 -24.89,86.34 -17.18,130.12 8.02,46.71 32.12,90.4 67.1,122.37 38.78,35.98 91.15,56.87 144.04,57.27 41.55,0.77 83.16,-10.82 118.35,-32.92 37.86,-23.58 68.12,-59.13 85.32,-100.29 21.66,-51.07 22.54,-110.6 2.5,-162.32 -19.46,-51.13 -59.1,-94.25 -108.42,-117.9 -36.55,-17.89 -78.21,-24.79 -118.59,-20.32zm-506.51 -13.97c99.86,0.24 199.72,-0.09 299.6,0.17 -26.08,25.6 -51.68,51.68 -77.64,77.4 -0.02,101.65 0.05,203.32 -0.04,304.98 25.43,26.25 51.58,51.78 77.32,77.74 -99.74,-0.19 -199.45,-0.12 -299.2,-0.05 25.61,-25.6 50.95,-51.47 76.52,-77.12 -0.02,-100.28 -0.09,-200.55 0.03,-300.84 0.19,-3 -0.36,-6.02 -2.88,-7.95 -24.63,-24.72 -49.04,-49.65 -73.71,-74.33zm37.02 15.3l0 0c18.2,18.73 36.76,37.15 55.06,55.8 0.09,106.05 0.02,212.09 0.02,318.14 -18.42,18.54 -36.79,37.14 -55.13,55.75 75.14,-0.03 150.3,-0.14 225.44,0.05 -18.65,-18.61 -37.4,-37.15 -55.86,-55.94 0.28,-105.98 0.12,-211.93 0.09,-317.88 18.56,-18.68 37.29,-37.22 55.82,-55.92 -75.16,0.12 -150.3,0.1 -225.44,0zm727.1 -15.27c63.39,0.09 126.77,0.02 190.18,0.05 45.28,63.29 90.56,126.58 135.98,189.75 -0.05,-37.52 -0.07,-75.05 -0.02,-112.59 -25.94,-25.58 -51.35,-51.71 -77.48,-77.09 81.86,-0.12 163.73,-0.15 245.6,0.02 -25.98,25.56 -51.87,51.28 -77.3,77.33 -1.43,22.15 -0.15,44.56 -0.58,66.81 0.03,105.31 -0.02,210.62 0.03,315.93 -21.89,0 -43.78,-0.31 -65.67,0.17 -61.05,-85.09 -121.49,-170.65 -182.12,-256.05 -0.02,59.61 0,119.21 0,178.81 25.96,25.6 51.71,51.44 77.55,77.16 -82.02,-0.38 -164.01,-0.07 -246.03,-0.14 26.11,-25.65 51.94,-51.58 77.69,-77.61 -0.19,-101.62 -0.07,-203.25 -0.07,-304.87 -25.91,-25.91 -51.71,-51.91 -77.76,-77.68zm37.38 15.27l0 0c18.49,18.7 37.26,37.15 55.7,55.89 -0.17,105.22 0.02,210.41 -0.09,315.6 0.02,3.47 -3.45,5.52 -5.36,7.99 -16.99,16.52 -33.24,33.77 -50.23,50.26 57.2,-0.17 114.43,-0.1 171.63,-0.03 -18.66,-18.65 -37.36,-37.26 -55.94,-55.98 -0.07,-77.76 0.09,-155.49 -0.1,-233.25 68.38,96.43 136.96,192.73 205.39,289.14 14.3,0.07 28.62,0.04 42.92,0 -0.02,-124.63 0.1,-249.29 -0.05,-373.92 18.39,-18.7 37.1,-37.11 55.58,-55.75 -56.93,0.2 -113.9,0.15 -170.83,0.03 18.48,18.68 37.14,37.17 55.7,55.77 -0.15,55.49 0.47,111 -0.31,166.46 -53.39,-73.88 -106.12,-148.26 -159.44,-222.16 -48.18,0 -96.39,0.1 -144.57,-0.05zm502.71 -15.18c105.26,-0.04 210.5,-0.14 315.76,0.05 -24.22,24.27 -47.87,49.11 -71.95,73.52 34.62,97.46 69.74,194.75 104.5,292.16 2.28,6.09 3.57,13.04 8.59,17.66 25.69,25.53 51.25,51.18 76.87,76.8 -170.38,-0.31 -340.77,-0.05 -511.15,-0.14 14.16,-21.44 28.12,-43 42.16,-64.51 3.74,-5.75 7.97,-11.27 10.47,-17.72 36.17,-101.03 71.93,-202.25 108.31,-303.2 -27.98,-24.75 -55.46,-50.04 -83.56,-74.62zm40.49 15.13l0 0c20.09,18.61 40.79,36.5 60.96,54.99 -35.4,98.72 -70.45,197.56 -105.76,296.3 -3.52,9.3 -5.8,19.25 -11.42,27.6 -11.14,16.92 -22.08,33.95 -33.26,50.82 49.63,0.03 99.29,-0.11 148.94,0.1 -18.37,-18.32 -36.78,-36.59 -55.01,-55.06 6.66,-18.98 13.11,-38.04 19.68,-57.06 42.23,0.17 84.47,0.1 126.7,0.05 6.57,19.13 13.54,38.14 19.44,57.51 -18.54,17.94 -36.45,36.5 -54.89,54.51 80.25,-0.12 160.51,-0.09 240.76,-0.02 -17.39,-17.2 -34.62,-34.62 -52.01,-51.85 -6.9,-6.11 -8.14,-15.7 -11.42,-23.84 -35.81,-99.69 -71.31,-199.51 -107.31,-299.15 17.66,-18.35 35.62,-36.43 53.25,-54.82 -79.54,0.02 -159.11,0.14 -238.65,-0.08zm22.44 371.16l0 0c21.77,21.53 43.42,43.18 64.93,64.98 21.94,-21.68 43.54,-43.69 65.51,-65.34 -4.53,-12.51 -8.5,-25.24 -13.19,-37.69 -34.71,-0.07 -69.4,0.22 -104.09,-0.14 -5.02,12.49 -9.31,25.29 -13.16,38.19zm-862.39 -283.43c31.03,-6.28 64.38,-0.83 91.56,15.49 31.02,18.2 53.93,49.8 61.07,85.09 6.12,29.31 1.98,60.76 -12.2,87.2 -15.92,30.24 -44.21,53.77 -77,63.58 -35.14,10.89 -74.92,5.8 -106.04,-13.85 -32.15,-19.68 -54.9,-54.04 -60.04,-91.42 -4.28,-28.53 1.34,-58.46 15.85,-83.42 18.2,-32 50.63,-55.53 86.8,-62.67zm7.11 14.4l0 0c-50.99,7.68 -93.05,53.7 -95.41,105.31 -2.81,35.59 12.8,71.73 40.09,94.6 24.34,20.94 57.87,30.88 89.68,26.08 24.94,-3.26 48.59,-15.37 65.98,-33.53 26.48,-26.48 38.26,-66.76 30.03,-103.33 -7.05,-34.81 -31.7,-65.24 -63.89,-80.07 -20.56,-9.75 -44.06,-12.42 -66.48,-9.06zm-16.32 20.51c22.2,-8.55 46.71,-7.74 69.19,-0.69 0.17,8.9 0.14,17.79 0.05,26.69 12.92,7.71 24.15,18.28 31.45,31.53 8.97,0.07 17.95,0.05 26.91,0.05 7.64,22.43 7.59,46.92 0.1,69.38 -8.97,0.07 -17.94,0.05 -26.93,0.07 -7.36,13.2 -18.42,23.91 -31.48,31.45 0,8.88 0,17.78 0.07,26.68 -22.39,7.54 -46.85,7.64 -69.19,-0.1 0.02,-8.94 0.02,-17.89 0.02,-26.84 -13.01,-7.35 -23.89,-18.1 -31.12,-31.17 -8.97,-0.04 -17.94,-0.02 -26.91,-0.04 -7.54,-22.18 -8.07,-46.61 0.02,-68.72 8.76,-1.71 17.9,-0.33 26.79,-0.67 7.43,-12.96 18.09,-23.88 31.2,-31.14 0.07,-8.83 0.04,-17.66 -0.17,-26.48zm13.21 9.32l0 0c0.02,8.47 0.04,16.95 0.02,25.42 -16.35,6.59 -29.34,19.84 -36.02,36.09 -8.45,0.02 -16.92,0 -25.37,-0.02 -3.26,14.2 -3.8,29.24 0.46,43.32 8.3,-0.21 16.63,-0.28 24.95,-0.31 6.64,16.18 19.59,29.46 35.88,36.03 0.15,8.47 0.12,16.96 0.1,25.46 14.25,3.54 29.17,3.45 43.42,0.02 0.05,-8.47 0.05,-16.94 0,-25.41 16.23,-6.71 29.29,-19.77 35.86,-36.07 8.45,0.05 16.92,0.07 25.39,0.07 3.49,-14.18 3.52,-28.98 -0.03,-43.11 -8.51,0.09 -17.01,0.09 -25.53,-0.15 -6.42,-16.06 -19.34,-29.29 -35.5,-35.62 -0.16,-8.66 -0.16,-17.34 -0.33,-26 -14.28,-2.81 -29.1,-3.17 -43.3,0.28zm924.42 50.92l0 0c-7.95,21.68 -15.21,43.62 -22.87,65.41 15.04,-0.07 30.1,-0.05 45.16,-0.02 -7.07,-21.92 -14.47,-43.74 -22.29,-65.39z"/>
  </g>
 </g>
</svg>
