<?xml version="1.0" encoding="UTF-8"?>
<!DOCTYPE svg PUBLIC "-//W3C//DTD SVG 1.1//EN" "http://www.w3.org/Graphics/SVG/1.1/DTD/svg11.dtd">
<!-- Creator: CorelDRAW -->
<svg xmlns="http://www.w3.org/2000/svg" xml:space="preserve" width="2000px" height="1600px" version="1.1" style="shape-rendering:geometricPrecision; text-rendering:geometricPrecision; image-rendering:optimizeQuality; fill-rule:evenodd; clip-rule:evenodd"
viewBox="0 0 2000 1600"
 xmlns:xlink="http://www.w3.org/1999/xlink">
 <defs>
  <style type="text/css">
   <![CDATA[
    .fil0 {fill:#004D42;fill-rule:nonzero}
    .fil1 {fill:#C7B784;fill-rule:nonzero}
   ]]>
  </style>
 </defs>
 <g id="Capa_x0020_1">
  <metadata id="CorelCorpID_0Corel-Layer"/>
  <g id="Jacksonville_x0020_Dolphins.cdr">
   <path class="fil0" d="M927.66 1131.64c47.22,-16.63 100.24,-16.88 147.44,-0.07 1.23,12.07 -0.06,24.32 0.03,36.46 0.09,80.3 -0.11,160.63 0.11,240.93 -46.6,20.28 -100.45,17.41 -147.6,0.56 -0.45,-92.62 0.09,-185.26 0.02,-277.88zm-191.04 -9.34c48.15,-14.63 100.91,-10.65 147.44,7.87 0.14,22.74 -0.04,45.49 0.09,68.25 -18.61,-0.2 -37.19,-1.26 -55.76,-2.11 -0.18,-9.47 0.4,-18.96 -0.22,-28.41 -0.95,-2.51 -2.49,-5.52 -5.49,-5.74 -7.43,-1.24 -14.96,-1.64 -22.48,-1.69 -4.24,-0.71 -8.18,3.54 -7.69,7.67 -0.18,20.52 0.16,41.07 -0.18,61.58 27.17,2.47 54.52,3.14 81.75,4.58 5.6,0.47 10.49,5.52 9.98,11.28 0.07,54.15 0.09,108.34 0,162.49 -15.69,4.8 -31.63,9.32 -48.13,10.07 -34.06,1.63 -68.45,-4.84 -99.69,-18.47 0.16,-28.79 0.2,-57.6 -0.05,-86.42 18.7,1.16 37.38,2.49 56.03,4 -0.11,14.68 -0.24,29.37 0,44.05 -0.22,3.69 2.13,7.69 5.96,8.4 7.36,1.27 14.85,1.4 22.32,1.58 4.05,0.51 8.05,-3.49 7.51,-7.58 0.05,-27.57 0.09,-55.14 -0.06,-82.68 -27.08,-1.07 -54.16,-2.72 -81.17,-5.07 -5.32,-0.2 -10.14,-5.14 -10.01,-10.48 -0.22,-47.71 0.09,-95.44 -0.15,-143.17zm477.66 -8.14c18.54,-1.11 37.02,-2.67 55.56,-3.8 0.02,100.16 0.04,200.29 -0.03,300.43 -16.4,0.66 -32.72,2.84 -49.13,3.2 -12.87,-42.05 -26.92,-83.71 -39.99,-125.68 -1.23,-4.25 -2.89,-8.38 -4.92,-12.27 -0.66,46.99 0.16,94.04 -0.4,141.06 -18.52,0.51 -36.99,1.35 -55.47,2.38 -0.13,-85.35 0,-170.7 -0.06,-256.03 0.42,-15.89 -5.32,-31.48 -15.14,-43.86 22.56,-2.05 45.37,-0.76 67.87,-3.45 9.98,27.28 18.25,55.16 27.68,82.66 4.62,13.14 7.83,26.81 13.83,39.44 0.44,-41.35 0.04,-82.73 0.2,-124.08zm192.84 -17.74c18.3,-1.96 36.53,-4.58 54.76,-7.05 -10.41,97.34 -20.5,194.69 -30.9,292.02 0.13,7.14 -5.72,13.65 -12.85,14.17 -26.62,3.26 -53.27,6.33 -79.97,8.91 -10.03,-99.2 -21.32,-198.31 -32,-297.49 24.04,-1.67 47.94,-4.71 71.93,-7.05 -6.72,12.61 -10.43,26.97 -9.34,41.31 4.56,55.03 9.49,110.03 14.05,165.08 1.29,11.84 1.98,23.74 2.36,35.66 1.4,-7.54 2.64,-15.12 3.06,-22.77 6.23,-74.28 12.85,-148.51 18.9,-222.79zm-865.57 -6.07c23.57,2.25 46.98,5.96 70.52,8.43 0,32.68 0.02,65.36 0,98.04 0.07,6.54 -0.53,13.18 0.94,19.63 3.75,-2.53 6.91,-5.91 7.91,-10.47 10.94,-34.17 22.37,-68.16 33.13,-102.38 19.58,1.69 39.19,3.27 58.74,5.36 -15.63,41.77 -30.53,83.81 -45.98,125.66 -2.22,5.49 -3.54,11.53 -1.58,17.34 13.67,52.33 27.75,104.56 41.37,156.89 -19.38,-2.11 -38.86,-3.45 -58.2,-5.85 -9.65,-42.04 -19.54,-84.01 -29.3,-126.01 -0.62,-4.02 -3.76,-6.85 -6.41,-9.6 -1.42,43.79 -0.22,87.68 -0.6,131.52 -18.58,-1.4 -37.01,-4.4 -55.49,-6.6 0.07,-85.13 0,-170.28 0.03,-255.43 0.31,-16.67 -5.36,-33.06 -15.08,-46.53zm952.63 -5.58c24.12,-3.4 48.2,-7.31 72.21,-11.36 -9.02,13.45 -15.34,29.21 -15.11,45.62 0.17,85.73 -0.16,171.46 0.17,257.18 -19.01,3.4 -38.1,6.27 -57.22,8.99 0.04,-100.16 0.13,-200.29 -0.05,-300.43zm-1122.46 -10.89c47.91,-9.61 98.29,0.46 140.97,23.45 -0.11,25.7 0.18,51.38 -0.11,77.08 0.34,5.31 -4.73,9.87 -10.02,8.67 -15.25,-1.66 -30.44,-4.13 -45.45,-7.18 0.18,-14.56 0.34,-29.17 0,-43.73 -0.02,-6.71 -7.55,-8.58 -12.89,-9.2 -5.12,-0.36 -10.81,-2.65 -15.61,-0.03 -1.91,2.76 -1.55,6.21 -1.64,9.41 0.13,60.83 -0.03,121.67 0.06,182.5 -0.91,7.41 6.98,10.56 13.05,10.78 5.45,0.38 14.97,4.67 16.9,-3.02 0.69,-21.43 0.07,-42.88 0.27,-64.32 14.63,2.74 29.39,4.78 44.11,6.96 6.11,0.67 11.47,6.14 11.25,12.43 0.26,31.86 -0.07,63.72 0.15,95.6 -47.69,12.07 -98.73,1.13 -140.84,-23.06 -0.31,-92.1 0.07,-184.21 -0.2,-276.34zm1222.57 -5.05c24.08,-4.82 48.29,-8.87 72.33,-13.89 -11.96,17.4 -16.72,38.77 -14.65,59.67 0,37.79 -1.23,75.65 0.15,113.43 -1.04,22.27 -0.31,44.57 -0.44,66.85 0.04,3.78 -0.63,8.05 2.02,11.23 3.2,2.57 7.47,0.62 11.14,0.33 14.32,-3.18 28.74,-5.76 43.02,-9.09 -0.11,12.47 0.11,24.94 -0.05,37.41 0.2,6.81 -4.89,13.39 -11.62,14.59 -33.84,7.09 -67.77,13.67 -101.83,19.67 0.05,-100.06 0.18,-200.13 -0.07,-300.2zm145.54 -29.39c23.96,-5.27 47.89,-10.87 71.7,-16.83 -7.96,12.89 -14.54,27.43 -14.63,42.86 0,65.34 0.06,130.68 -0.02,196 0.11,5.14 -1.2,11.1 3.4,14.77 17.52,-3.32 34.44,-9.39 52.04,-12.12 0.34,11.69 -1.11,23.39 -0.24,35.1 0.95,7.41 -4.14,15.01 -11.47,16.68 -33.46,8.67 -67.19,16.34 -100.83,24.25 0.03,-100.24 -0.04,-200.49 0.05,-300.71zm-1667.36 -47.13c23.77,6.11 47.31,13.14 71.15,19.05 0.11,96.4 -0.09,192.82 0.08,289.22 -13.89,0.47 -27.85,0.96 -41.72,-0.18 -34.82,-4.33 -67.95,-18.12 -97.16,-37.3 -2,-1.54 -5.47,-2.78 -4.71,-5.98 -0.03,-41.56 -0.09,-83.13 0.04,-124.68 22.95,6.71 45.78,13.98 68.9,20.12 -8.96,10.42 -14.83,23.74 -14.41,37.68 0.27,14.81 -0.44,29.68 0.38,44.49 2.36,7.2 10.87,7.6 16.94,9.78 3.45,0.91 6.85,2.07 10.41,2.53 3.77,-0.37 5.18,-4.69 4.82,-7.93 0.05,-66.72 -0.02,-133.44 0.05,-200.18 -0.09,-16.63 -6.16,-32.59 -14.77,-46.62zm1794.79 16.2c44.22,-11.8 88.33,-24.07 132,-37.84 0.11,16.46 -0.12,32.91 0.11,49.38 -17.77,6.14 -36.02,10.79 -53.94,16.45 -4.02,1.07 -7.6,4.74 -7.45,9.08 -0.22,22.67 -0.02,45.35 -0.08,68.03 14.82,-4.05 29.41,-8.96 44.33,-12.72 -0.03,12 0.15,24.01 -0.03,36.02 0.2,6.04 -4.2,11.62 -9.84,13.45 -11.39,3.8 -23.08,6.67 -34.51,10.33 0.16,23.95 -0.07,47.89 0.09,71.84 -0.58,3.73 3.76,7.11 7.29,5.35 18.32,-5.18 36.55,-10.67 54.74,-16.31 -0.09,12.56 0.18,25.14 -0.09,37.7 0.22,7.27 -5.27,13.96 -12.3,15.56 -35.28,10.85 -70.83,20.88 -106.49,30.46 0.16,-82.86 0.02,-165.69 0.09,-248.55 0.04,-9.5 0.53,-19.28 -2.67,-28.39 -2.42,-7.32 -7.04,-13.52 -11.25,-19.84zm-857.54 -831.59c66.23,0 132.46,0.11 198.69,-0.07 0.02,171.74 0.02,343.46 -0.02,515.21 -1.05,10.34 8.73,19.72 18.96,18.81 19.25,0.02 38.51,0.11 57.74,-0.02 10.05,0.51 18.94,-8.7 18.36,-18.7 0.02,-171.75 0.02,-343.49 0,-515.23 79.59,-0.03 159.21,0.15 238.82,-0.09 -28.7,34.35 -38.68,80.34 -40.17,124.12 0.13,151.13 -0.29,302.29 0.22,453.43 -19.59,24.74 -48.24,39.84 -76.97,51.51 -43.31,17.05 -89.46,26.14 -135.82,29.41 -43.17,2.09 -87.84,0.94 -128.61,-14.98 -15.87,-6.65 -32.84,-16.41 -39.15,-33.37 -6.23,-19.26 6.89,-37.98 20.9,-49.96 8.4,-5.45 17.21,-10.27 26.37,-14.29 -14.5,-6.56 -30.55,-8.43 -46.29,-9.1 -38.71,-0.82 -76.97,8.65 -112.85,22.59 -0.38,-186.42 -0.07,-372.86 -0.18,-559.27zm-317.77 -0.09c79.57,0.24 159.14,0.06 238.73,0.09 0.09,196.44 -0.26,392.91 0.18,589.35 -27.37,5.16 -53.58,14.76 -79.95,23.37 -73.45,23.1 -151.04,34.92 -228.06,29.32 -59.55,-4.36 -118.89,-19.58 -171.16,-48.93 0.62,-79.66 -0.02,-159.32 0.33,-238.98 76.33,0.25 152.65,0.05 228.97,0.11 -24.88,27 -35.59,63.79 -40.99,99.32 -2.92,21.12 -3.67,42.46 -3.07,63.76 0.38,9.49 9.54,17.38 18.99,16.63 19.23,0.04 38.46,0.09 57.66,-0.02 10.14,0.6 19.08,-8.79 18.46,-18.81 -0.05,-128.24 0.11,-256.47 -0.07,-384.71 -2.33,-45.6 -10.69,-93.93 -40.02,-130.5zm-507.05 856.52c50.27,-6.69 101.56,7.31 145.09,32.3 -0.02,96.36 0.11,192.73 -0.07,289.11 -18.54,-3.8 -37.13,-7.36 -55.51,-11.81 0.4,-38.15 -0.02,-76.3 0.22,-114.43 -11.31,-2.2 -22.41,-6.02 -33.9,-6.84 -0.69,37.52 -0.07,75.9 -0.29,113.76 -18.63,-4 -37.11,-8.65 -55.63,-13.14 0.25,-96.31 0.09,-192.64 0.09,-288.95zm55.78 55.04l0 0c-0.51,26.46 -0.2,52.98 -0.13,79.48 11.36,2.3 22.57,5.34 34.04,7.03 -0.18,-25.95 0.29,-51.93 -0.23,-77.88 -1.42,-8.76 -11.78,-8.71 -18.52,-10.6 -4.78,-0.58 -13.11,-4.85 -15.16,1.97zm747.67 81.13l0 0c-3.69,1.65 -4.82,5.94 -4.53,9.67 0.02,62.18 -0.07,124.37 0.02,186.57 -0.33,4.18 3.56,8.12 7.8,7.67 6.63,0.34 13.3,0.4 19.95,-0.06 4.87,0 7.85,-5.27 7.22,-9.7 -0.15,-62.27 0.56,-124.56 0.25,-186.86 0.31,-4.13 -3.56,-8.27 -7.76,-7.85 -7.63,0.03 -15.43,-0.75 -22.95,0.56z"/>
   <path class="fil1" d="M1097.4 789.28c6.54,-23.03 25.22,-40.42 45.27,-52.29 -14.01,11.98 -27.13,30.7 -20.9,49.96 6.31,16.96 23.28,26.72 39.15,33.37 40.77,15.92 85.44,17.07 128.61,14.98 46.36,-3.27 92.51,-12.36 135.82,-29.41 28.73,-11.67 57.38,-26.77 76.97,-51.51 1.69,21.45 0.27,43.04 0.78,64.54 -23.12,27.65 -57.27,42.84 -90.82,53.73 -65.45,19.7 -135.73,23.44 -202.85,10.52 -33.01,-7.07 -66.69,-17.97 -92.4,-40.73 -14.85,-12.94 -24.56,-33.31 -19.63,-53.16zm-787.53 184.13c3.38,-0.36 6.78,-0.67 10.18,-0.76 418.75,0.03 837.51,0 1256.28,0 24.61,0.31 49.27,-0.62 73.88,0.49 -211.56,47.67 -428.64,68.3 -645.29,69.95 -233.22,1.48 -467.26,-18.52 -695.05,-69.68zm541.04 -183.77c26.37,-8.61 52.58,-18.21 79.95,-23.37 -76.92,48.11 -159.03,91.09 -248.51,109.89 -22.61,4.54 -45.53,8.23 -68.65,8.68 -11.08,1.06 -22.24,1.42 -33.31,0.09 -43.62,-1.25 -86.93,-12.03 -126.26,-30.91 -4.24,-1.71 -2.95,-7.07 -3.26,-10.6 0.64,-24.46 -0.92,-49 0.82,-73.39 52.27,29.35 111.61,44.57 171.16,48.93 77.02,5.6 154.61,-6.22 228.06,-29.32z"/>
  </g>
 </g>
</svg>
