<?xml version="1.0" encoding="UTF-8"?>
<!DOCTYPE svg PUBLIC "-//W3C//DTD SVG 1.1//EN" "http://www.w3.org/Graphics/SVG/1.1/DTD/svg11.dtd">
<!-- Creator: CorelDRAW -->
<svg xmlns="http://www.w3.org/2000/svg" xml:space="preserve" width="2000px" height="1600px" version="1.1" style="shape-rendering:geometricPrecision; text-rendering:geometricPrecision; image-rendering:optimizeQuality; fill-rule:evenodd; clip-rule:evenodd"
viewBox="0 0 2000 1600"
 xmlns:xlink="http://www.w3.org/1999/xlink">
 <defs>
  <style type="text/css">
   <![CDATA[
    .fil0 {fill:#1F3366}
    .fil1 {fill:#FEFEFE;fill-rule:nonzero}
   ]]>
  </style>
 </defs>
 <g id="Capa_x0020_1">
  <metadata id="CorelCorpID_0Corel-Layer"/>
  <g id="Jackson_x0020_State_x0020_Tigers.cdr">
   <path class="fil0" d="M1132.84 185.73l867.16 0 0 598.76 -867.16 0 0 -598.76zm0 637.12l867.16 0 0 591.42 -867.16 0 0 -591.42zm-32.99 -637.12l-1099.85 0 0 1228.54 1099.85 0 0 -1228.54z"/>
   <path class="fil1" d="M1301.51 861.03c25.3,-0.04 50.55,-1.34 75.86,-1.03 60.44,-1.49 120.89,0.21 181.33,1.01 1.61,10.93 2.31,22.16 0.06,33.06 -19.79,4.3 -40.23,-2.51 -59.83,2.68 -8.84,2.09 -13.28,10.97 -14.83,19.18 -4.97,24.55 -1.95,49.7 -1.66,74.52 -0.04,46.12 -0.04,92.26 0,138.4 -0.68,32.93 -1.59,66.02 2.05,98.82 3.08,25.67 10.26,52.43 28.52,71.65 22.48,22.23 54.54,31.83 85.46,33.65 33.86,1.57 70.09,-6.68 95.45,-30.36 22.34,-21.55 35.33,-51.79 37.93,-82.53 3.83,-45.54 0.64,-91.21 1.35,-136.81 -0.35,-35.87 2.87,-71.77 -0.29,-107.59 -2.24,-23.39 -7.04,-48.96 -24.93,-65.73 -13.27,-12.76 -32.3,-15.91 -49.99,-16.44 -1.88,-10.72 -1.75,-21.68 0,-32.39 65.24,-2.15 130.51,-2.03 195.76,-0.06 2.09,11.25 2.07,22.87 0.05,34.14 -17.77,-1.98 -37.58,0.89 -50.95,13.74 -14.72,13.77 -19.6,34.37 -22.37,53.58 -4.53,36.67 -1.22,73.68 -1.8,110.49 0.87,37.93 0.72,75.91 1.51,113.84 -1.04,22.06 0.35,44.34 -3.58,66.2 -4.8,28.32 -18.1,55.04 -37.77,75.95 -29.93,31.79 -71.97,49.64 -114.47,56.79 -41.35,6.64 -84.04,4.53 -124.68,-5.46 -34.5,-8.73 -68.33,-24.92 -92.08,-52.08 -21.03,-23.51 -32.16,-54.58 -34.85,-85.73 -3.2,-40.55 -2.03,-81.28 -0.99,-121.88 1.34,-59.98 -0.5,-120 1.57,-179.96 -1.1,-13.71 0.72,-31.43 -11.37,-40.84 -19.14,-9.37 -41.31,-1.76 -61.58,-5.88 -1.34,-10.84 -3.68,-22.65 1.12,-32.93zm-881.61 -578.26c-0.29,-4.36 4.51,-6.18 7.15,-8.77 19.73,0.38 39.44,-0.04 59.18,0.21 13.03,0.72 26.1,0.6 39.13,-0.04 103.39,-0.06 206.8,0.02 310.19,-0.04 32.35,1.07 64.74,0.18 97.05,1.73 2.02,21.68 1.98,43.5 0.06,65.2 -2.65,0.9 -5.24,2 -7.96,2.5 -28.09,3.8 -56.92,-0.21 -84.68,6.39 -15.18,3.51 -26.41,16.9 -29.74,31.79 -7.76,32.03 -2.52,65.17 -2.09,97.68 -0.04,95.8 -0.02,191.6 -0.02,287.41 -0.41,75.2 0.81,150.36 2.09,225.5 0.25,42.89 -0.6,86.37 -11.36,128.15 -11.12,44.07 -32.55,85.73 -63.37,119.27 -44.03,48.32 -105.09,77.85 -167.81,93.36 -48.51,11.98 -98.87,16.49 -148.71,13.28 -38.6,-2.62 -77.25,-9.08 -113.49,-23 -32.72,-12.51 -63.56,-29.82 -91.56,-50.88 -35.68,-27.21 -66.66,-61.77 -85.34,-102.89 -21.11,-46.6 -24.71,-100.42 -12.24,-149.85 9.64,-37.87 30.67,-73.5 62.17,-97.16 32.08,-25.9 74.6,-36.28 115.29,-33.24 45.46,2.07 87.42,30.67 109.61,69.8 9.37,18.6 13.18,39.51 14.69,60.13 1.2,25.54 -0.37,52.76 -14.02,75.16 -14.61,23.25 -34.81,42.48 -56.57,58.96 -32.62,24.45 -74.69,37.96 -115.39,30.47 7.76,31.66 34.83,53.98 63.12,67.47 45.18,21.01 96.78,30.46 146.15,21.36 33.15,-6.04 65.54,-21.12 88.48,-46.29 31.25,-32.84 46.97,-77.74 51.23,-122.27 4.22,-47.47 4.18,-95.2 3.12,-142.82 0.04,-59.97 0,-119.95 0.02,-179.95 0.08,-17.21 -0.31,-34.44 0.52,-51.65 -0.15,-95.84 0.45,-191.68 -0.71,-287.51 -0.72,-22.31 -0.18,-45.13 -6.57,-66.76 -2.38,-8.71 -7.78,-16.71 -15.85,-21.07 -16.04,-8.8 -34.97,-9.42 -52.86,-9.44 -29.27,-0.43 -58.57,4.02 -87.82,0.98 -2.38,-20.98 -0.72,-42.11 -1.09,-63.17zm1082.15 -55.28c67.15,-15.91 139.42,3.62 193.85,44.78 12.08,-13.39 20.17,-29.87 33.04,-42.59 8.15,-0.02 16.38,-0.37 24.48,0.99 2.98,59.46 0.83,119.05 1.51,178.58 -10.73,2.08 -21.75,1.82 -32.49,0.18 -11.79,-36.9 -29.7,-72.41 -55.99,-101.14 -22.68,-24.98 -53.19,-43.64 -86.88,-48.64 -28.71,-3.99 -59.65,-1.28 -84.8,14.15 -19.49,11.37 -35.47,30.03 -40.39,52.36 -5.28,23.04 0.72,49.6 18.96,65.51 21.12,18.84 49.27,26.53 76.13,33.15 44.88,10.13 90.68,17.41 133.94,33.65 28.34,10.34 55.72,26.14 74.05,50.67 18.82,23.6 27.44,54.05 26.97,83.99 0.93,38.02 -9.39,78.02 -35.74,106.46 -24.88,27.26 -58.57,45.35 -93.76,55.57 -39.95,11.46 -82.97,12.91 -123.37,2.71 -33.65,-8.77 -63.37,-27.82 -91.02,-48.29 -16.44,10.26 -21.3,31.02 -36.59,42.44 -8.6,6.39 -19.96,6.41 -30.05,4.48 -2.3,-63.47 -2.3,-127.05 0,-190.54 9.72,-2.34 19.73,-0.56 29.6,-1.29 13.42,35.23 26.49,71.46 49.84,101.56 20.75,26.84 50.71,45.97 83.37,54.78 26.08,7.14 53.55,8.05 80.33,5.24 28.69,-3.31 57.29,-16.49 75.08,-39.8 12.78,-16.29 16.94,-38.16 13.63,-58.36 -2.75,-17.77 -9.85,-35.7 -23.29,-48.07 -12.78,-10.88 -28.79,-17 -44.61,-21.94 -35.72,-10.78 -72.91,-15.41 -108.85,-25.38 -39.15,-10.38 -79.73,-23.23 -110.05,-51.4 -22.67,-20.62 -35.29,-50.52 -37.92,-80.76 -2.83,-33.34 0.54,-68.65 17.85,-98.02 21.78,-38.09 60.56,-65.37 103.17,-75.03z"/>
  </g>
 </g>
</svg>
