<?xml version="1.0" encoding="UTF-8"?>
<!DOCTYPE svg PUBLIC "-//W3C//DTD SVG 1.1//EN" "http://www.w3.org/Graphics/SVG/1.1/DTD/svg11.dtd">
<!-- Creator: CorelDRAW -->
<svg xmlns="http://www.w3.org/2000/svg" xml:space="preserve" width="2000px" height="1600px" version="1.1" style="shape-rendering:geometricPrecision; text-rendering:geometricPrecision; image-rendering:optimizeQuality; fill-rule:evenodd; clip-rule:evenodd"
viewBox="0 0 2000 1600"
 xmlns:xlink="http://www.w3.org/1999/xlink">
 <defs>
  <style type="text/css">
   <![CDATA[
    .fil0 {fill:#00319F;fill-rule:nonzero}
    .fil1 {fill:#FEFEFE;fill-rule:nonzero}
   ]]>
  </style>
 </defs>
 <g id="Capa_x0020_1">
  <metadata id="CorelCorpID_0Corel-Layer"/>
  <g id="Kentucky_x0020_Wildcats.cdr">
   <path class="fil0" d="M21.73 0l640.41 0c0,94.98 0.02,189.93 -0.02,284.91 -35.43,0 -70.89,0.02 -106.35,0 -0.04,82.87 -0.04,165.73 0,248.59 142.02,-0.02 284.03,0 426.05,0 0.02,-82.86 0.02,-165.72 0,-248.59 -35.62,0 -71.25,0.02 -106.87,0 -0.04,-94.98 -0.02,-189.93 -0.02,-284.91l640.92 0c0,94.98 0.02,189.93 -0.02,284.91 -35.45,0.02 -70.91,-0.02 -106.37,0.02 0,82.85 0,165.71 0.02,248.57 189.59,0.03 379.17,-0.02 568.76,0.03 0.04,94.95 0.02,189.91 0.02,284.86 -59.3,0.09 -118.59,-0.08 -177.88,0.09 -79.82,80.06 -159.88,159.85 -239.74,239.85 85.75,85.77 171.5,171.56 257.29,257.27 53.44,0 106.89,-0.02 160.33,0.02 0.02,94.8 0,189.59 0,284.38l-676.22 0c0,-76.81 0,-153.62 0,-230.44 -41.53,-41.52 -83.03,-83.07 -124.6,-124.55 -65.02,0.02 -130.05,-0.02 -195.07,0.02 -0.02,23.51 -0.02,47.04 0,70.57 35.62,0.02 71.26,-0.04 106.9,0.02 -0.02,94.8 0,189.59 -0.02,284.38l-640.92 0c-0.02,-94.79 0.02,-189.56 -0.02,-284.36 35.64,-0.12 71.29,0.02 106.93,-0.06 0,-106.37 -0.02,-212.77 0,-319.14 -82.95,-0.06 -165.87,0 -248.82,-0.02 -59.44,-59.42 -118.87,-118.85 -178.29,-178.29 -0.02,-177.74 0.04,-355.48 -0.02,-533.24 -35.46,0.04 -70.92,0.02 -106.38,0.02l0 -284.91z"/>
   <path class="fil1" d="M57.56 35.83c189.59,-0.02 379.17,-0.02 568.76,0 0.02,70.91 0,141.83 0.02,212.74 -35.54,-0.08 -71.08,0.25 -106.62,-0.18 -0.7,106.94 -0.08,213.93 -0.29,320.9 166.24,0.04 332.48,0.02 498.72,0.02 -0.1,-106.95 0.23,-213.89 -0.16,-320.82 -35.58,0.23 -71.16,0.06 -106.72,0.08 -0.02,-70.91 -0.02,-141.83 0,-212.74 189.63,0.12 379.29,-0.31 568.92,0.2 -0.31,70.81 -0.12,141.65 -0.1,212.46 -35.64,0.23 -71.29,0.02 -106.95,0.1 0.02,106.91 -0.08,213.84 0.06,320.74 189.75,-0.04 379.5,-0.02 569.25,0 0,70.92 -0.02,141.83 0,212.73 -53.4,0.16 -106.78,-0.19 -160.18,0.18 -91.79,92.11 -183.8,184 -275.83,275.89 97.64,98.17 195.75,195.91 293.65,293.83 47.47,0.02 94.96,-0.2 142.42,0.1 -0.16,70.88 -0.02,141.75 -0.06,212.65 -201.35,0 -402.7,-0.02 -604.05,0 -0.1,-71.04 0.04,-142.1 -0.08,-213.14 -47.55,-47.38 -94.94,-94.93 -142.45,-142.36 -83.11,0 -166.22,0 -249.33,0 0,47.57 -0.02,95.16 0.02,142.73 35.46,-0.02 70.92,-0.02 106.38,0 0,70.92 0.02,141.85 -0.02,212.77 -189.59,0 -379.17,-0.02 -568.76,0 -0.04,-70.92 -0.02,-141.85 0,-212.77 35.62,-0.02 71.24,-0.02 106.86,-0.02 -0.06,-130.62 0.21,-261.26 -0.12,-391.9 -88.84,0.19 -177.68,0 -266.54,0.1 -53.36,-53.25 -106.68,-106.57 -159.94,-159.96 0.07,-183.83 0,-367.69 0.05,-551.52 -35.65,-0.13 -71.29,0.02 -106.93,-0.09 0.02,-70.89 -0.02,-141.81 0.02,-212.72zm35.27 35.27l0 0c-0.02,47.57 0,95.12 0,142.69 35.46,0.08 70.94,-0.04 106.4,0.06 0.08,189.77 -0.21,379.54 0.16,569.33 47.55,47.21 94.84,94.69 142.18,142.08 83.15,0.14 166.3,0.04 249.47,0.06 -0.06,-47.77 0.15,-95.53 -0.1,-143.28 -35.44,0.1 -70.85,0.04 -106.29,0.04 -0.02,-189.4 0.06,-378.79 -0.04,-568.19 35.48,-0.2 70.96,0.04 106.46,-0.12 -0.05,-47.55 0,-95.1 -0.03,-142.67 -166.07,0 -332.13,-0.02 -498.21,0zm853.71 0l0 0c0.11,47.61 -0.2,95.22 0.17,142.81 35.39,-0.22 70.81,-0.04 106.23,-0.08 0,189.42 0,378.83 0,568.25 -35.46,0.02 -70.92,0.02 -106.38,0 -0.04,47.75 -0.02,95.49 0,143.24 80.41,0.04 160.84,-0.06 241.27,0.04 3.01,-0.43 7,1.11 9.23,-1.72 45.69,-45.64 91.29,-91.37 137.04,-136.98 1.8,-1.98 4.61,-3.89 3.77,-7.04 0,-188.62 -0.1,-377.23 0.06,-565.85 35.6,0.1 71.2,0.02 106.82,0.04 0,-47.57 0.05,-95.14 -0.02,-142.71 -166.05,0 -332.13,-0.02 -498.19,0zm-427.09 533.5l0 0c-0.08,47.53 0.04,95.08 -0.06,142.63 35.62,0.21 71.27,0.04 106.91,0.06 0.08,213.3 0.02,426.63 0.02,639.92 -35.62,0.02 -71.27,-0.02 -106.91,0.02 0.02,47.58 0,95.12 0.02,142.7 166.24,0.02 332.46,-0.03 498.7,0.02 0.05,-47.57 0.02,-95.17 0.02,-142.74 -35.64,-0.02 -71.26,0.02 -106.88,-0.02 -0.02,-71.08 -0.02,-142.18 0,-213.25 100.48,-0.05 200.96,0.02 301.46,-0.02 71.14,71.03 142.22,142.15 213.3,213.27 -17.63,0.04 -35.25,0 -52.89,0.02 -0.08,47.53 0.11,95.04 -0.08,142.57 178.05,0.25 356.13,0.27 534.2,0 -0.22,-47.53 -0.04,-95.04 -0.1,-142.57 -41.35,0 -82.68,-0.02 -124.01,0 -109.77,-109.66 -219.44,-219.43 -329.19,-329.12 101.65,-101.69 203.36,-203.3 304.96,-305 2.52,-2.03 4.34,-6.02 8.06,-5.75 46.72,-0.02 93.41,-0.05 140.1,0 0.18,-47.57 0.04,-95.14 0.08,-142.74 -178.01,-0.02 -356.01,-0.02 -534.02,0 0.02,47.57 -0.06,95.17 0.04,142.74 17.6,-0.05 35.2,0.02 52.81,-0.05 -70.93,71.04 -141.83,142.1 -212.99,212.9 -100.56,-0.23 -201.15,-0.03 -301.73,-0.11 -0.02,-70.91 -0.04,-141.85 0,-212.76 35.62,0 71.24,0.02 106.88,0 -0.06,-47.6 0.13,-95.19 -0.1,-142.78 -166.2,0.13 -332.4,0.02 -498.6,0.06z"/>
  </g>
 </g>
</svg>
