<?xml version="1.0" encoding="UTF-8"?>
<!DOCTYPE svg PUBLIC "-//W3C//DTD SVG 1.1//EN" "http://www.w3.org/Graphics/SVG/1.1/DTD/svg11.dtd">
<!-- Creator: CorelDRAW -->
<svg xmlns="http://www.w3.org/2000/svg" xml:space="preserve" width="2000px" height="1600px" version="1.1" style="shape-rendering:geometricPrecision; text-rendering:geometricPrecision; image-rendering:optimizeQuality; fill-rule:evenodd; clip-rule:evenodd"
viewBox="0 0 2000 1600"
 xmlns:xlink="http://www.w3.org/1999/xlink">
 <defs>
  <style type="text/css">
   <![CDATA[
    .fil1 {fill:#003D7D;fill-rule:nonzero}
    .fil3 {fill:#795200;fill-rule:nonzero}
    .fil2 {fill:#EFB310;fill-rule:nonzero}
    .fil0 {fill:#FEFEFE;fill-rule:nonzero}
   ]]>
  </style>
 </defs>
 <g id="Capa_x0020_1">
  <metadata id="CorelCorpID_0Corel-Layer"/>
  <g id="Kent_x0020_State_x0020_Golden_x0020_Flashes.cdr">
   <path class="fil0" d="M420.62 1244.25c14.14,-0.09 28.27,-0.07 42.42,-0.09 4.58,-0.28 8.76,1.78 12.9,3.42 26.17,10.54 52.89,19.55 79.66,28.37 -19.51,0.28 -39.06,0.42 -58.57,0.02 -8.88,-2.2 -17.17,-6.38 -25.79,-9.44 -16.99,-7.09 -34.34,-13.59 -50.62,-22.28zm-234.51 -314.58c12.04,2.44 24.13,4.68 36.13,7.42 0.9,4.62 2.31,9.09 3.73,13.59 -11.35,-1.94 -22.52,-4.96 -33.96,-6.52l-0.88 -1.78c-1.94,-4.13 -3.46,-8.43 -5.02,-12.71zm-87.04 -20.57c1.38,0.16 4.12,0.5 5.48,0.66 51.24,77.96 116.61,146.71 192.35,201.21 9.28,10.27 19.41,19.73 28.69,29.98 -28.67,-17.39 -55.3,-38.02 -80.62,-59.97 -56.56,-49.84 -106.5,-107.53 -145.9,-171.88zm-49.63 -3.88c4.55,0.82 9.09,1.72 13.63,2.68 39.3,68.83 90.8,130.46 150.33,182.7 58.39,51.37 124.52,93.53 194.45,127.38 -1.64,6.11 -3.34,12.21 -5,18.33 -61.61,-29.95 -120.04,-66.63 -172.86,-110.31 -73.74,-60.89 -136.45,-135.74 -180.55,-220.78zm1391.13 -36.34c10.93,-16.59 30.49,-25.07 49.66,-27.45 32.92,-4.44 65.79,4.98 96.03,17.27 49.62,20.51 95.78,50.7 132.12,90.42 -38.66,15.29 -80.44,22.69 -121.98,21.59 -37.05,-1.52 -74.45,-8.87 -107.77,-25.53 -24.95,-12.63 -48.02,-34.06 -52.9,-62.75 -2.84,14.8 -2.08,30.49 4.48,44.24 -11.38,-12.49 -19.15,-28.58 -19.81,-45.64 48.84,-4.29 97.05,7.76 144.95,15.56 -14.69,-7.78 -30.88,-12.16 -46.74,-16.88 -25.26,-7.47 -51.63,-12.03 -78.04,-10.83zm394.46 -18.79c17.25,-2.22 36.16,-7.42 47.11,-21.97 3.32,2.24 6.66,4.4 10.04,6.6 29.45,42.88 51.32,91.33 63.25,142.05 9.1,40.12 11.63,82.7 0.94,122.74 4.18,-52.05 -7.28,-103.99 -24.35,-152.91 -10,-27.9 -21.67,-55.31 -36.5,-81 -4.9,-8.1 -9.74,-16.49 -17.05,-22.69 -13.62,6.08 -28.61,8.26 -43.44,7.18zm-503.91 -23.57l3.36 2.2c-0.4,10.47 -0.46,21.01 1.42,31.36 1.9,-8.39 3.84,-16.83 4.7,-25.4 0.36,-0.3 1.1,-0.9 1.45,-1.18 -3.47,24.4 0.79,49.21 9.08,72.26 0.88,0.1 2.66,0.32 3.56,0.42 7.68,20.61 21.71,37.89 36.6,53.74 -19.89,-16.16 -36.84,-37.07 -46.04,-61.15 -1.64,15.19 3.48,29.96 8.86,43.94 -7.88,-9.24 -14.53,-19.62 -19.13,-30.87 -5.66,-27.95 -9.98,-57.05 -3.86,-85.32zm-1251.98 -36.3c12.08,38.5 29.71,74.92 48.82,110.36l-4.52 -1.13c-18.03,-34.91 -35.08,-70.87 -44.3,-109.23zm1107.29 -45.56c1.12,-1.18 2.28,-2.34 3.44,-3.48 20.67,14.35 41.08,29.31 59.03,47.02 -20.11,-15.48 -40.86,-30.19 -62.47,-43.54zm454.71 -26.13c13.51,-5.2 31.38,0.26 37.8,13.71 3.26,5.44 6.48,10.9 9.81,16.3 -3.11,0.83 -6.09,1.99 -8.75,3.79 3.5,4.2 6.8,8.58 9.73,13.2 -5.37,-0.64 -10.75,-1.34 -16.09,-1.96 0.44,5.36 1.24,10.95 4.68,15.31 7.64,10.44 22.33,13.67 34.32,10.04 4.68,4.77 9.48,9.43 14.4,13.99 -6.76,6.14 -15.02,10.79 -24.45,10.38 16.51,10.93 31.88,23.52 46.78,36.56 17.99,15.71 33.58,33.86 50.09,51.07l-2.66 -6.77c17.32,20.41 33.21,42.12 47.9,64.51 -17.59,-19.19 -35.04,-38.5 -53.31,-57.02 -36.67,-35.6 -79.13,-64.45 -122.37,-91.39 4.4,0.88 8.82,1.74 13.26,2.62 -11.84,-9.54 -23.91,-18.8 -36.69,-27.03 -10.27,-6 -16.63,-17.35 -18.29,-28.93 -1.62,-11.77 2.9,-23.13 7.8,-33.58 1.94,-1.66 3.92,-3.32 6.04,-4.8zm-1609.43 -19.01c1.31,66.81 23.64,131.06 52.41,190.69 -3.8,-0.74 -7.6,-1.46 -11.37,-2.2 -26.15,-59.09 -45.2,-123.24 -41.04,-188.49zm1487.62 -67.85c17.91,-19.65 44.7,-30.73 71.25,-29.73 26.03,0.58 53.64,7.66 72.51,26.59 -21.99,-16.09 -49.78,-22.33 -76.69,-21.45 -26.47,1.38 -52.49,13.83 -69.15,34.63 -7.23,9.09 -10.23,20.73 -11.25,32.12 -1.68,-15.01 3,-30.96 13.33,-42.16zm-1110.58 -50.28c47.06,-19.91 97.71,-30.52 148.53,-34.8 -0.76,4.26 -1.56,8.52 -2.4,12.77 -54.57,6.5 -109.47,17.12 -159.74,40.07 4.67,-5.9 9.07,-12.02 13.61,-18.04zm-147.11 56.08c42.64,-53.72 101.17,-96.22 167.96,-113.71 -4.78,8.06 -10.34,15.63 -15.21,23.63 -0.36,0.56 -1.06,1.7 -1.42,2.26 -59.21,16.13 -113.45,51.23 -150.75,100.19 -18.99,24.79 -33.87,52.94 -42.2,83.1 -13.52,47.72 -14.88,98.16 -9.36,147.19 -0.42,-0.16 -1.28,-0.5 -1.7,-0.68 1.68,-6.03 -0.76,-12.29 -1.1,-18.39 -5.65,-51.01 -3.34,-103.75 13.06,-152.71 8.59,-26.1 24.01,-49.31 40.72,-70.88zm1104.08 -221.62c41.86,-0.48 83.75,-0.4 125.59,-0.04 -10.98,59.55 -21.67,119.14 -32.69,178.68 -42.82,-0.06 -85.64,0.08 -128.46,-0.08 -59.77,53.05 -119.18,106.53 -178.84,159.7 40.01,97.3 79.63,194.77 119.37,292.17 37.06,0.04 74.12,-0.06 111.19,0.04 -16.22,60.65 -32.53,121.28 -48.92,181.87 -303.82,-0.04 -607.62,0.04 -911.42,-0.04 16.52,-60.57 32.55,-121.3 49.08,-181.87 13.25,0 26.51,0.02 39.76,0 33.97,-149.75 68.01,-299.46 102.18,-449.15 -16.08,-0.3 -32.15,-0.06 -48.2,-0.14 10.75,-59.66 21.73,-119.27 32.58,-178.88 34.69,-0.3 69.39,0.52 104.07,-0.56 48.6,0.06 97.2,-0.02 145.82,0.04 43.96,-1.06 87.98,-0.28 131.96,-0.52 33.34,0.34 66.62,-0.84 99.97,-0.5 43.96,-0.22 87.92,0.52 131.88,-0.5 51.69,-0.12 103.41,0.3 155.08,-0.22zm-772.7 162.74l0 0c18.13,-0.2 36.25,-0.07 54.38,-0.07 -39.3,163.12 -78.86,326.16 -118.39,489.23 -13.59,0.02 -27.2,0.06 -40.8,-0.04 -13.27,47.39 -25.87,94.99 -38.88,142.45 119.63,0.1 239.25,0.02 358.87,0.04 11.58,-47.86 23.61,-95.6 35.31,-143.41 -20.83,-0.08 -41.66,0.06 -62.49,-0.08 2.48,-9.46 4.21,-19.13 7.13,-28.45 40.46,-35.06 81.21,-69.89 122.11,-104.47 17.97,44.26 36.64,88.24 54.71,132.46 -26.57,-0.2 -53.11,0.8 -79.66,0.58 -11.8,47.75 -23.47,95.55 -35.45,143.25 153.11,0.3 306.24,0.02 459.37,0.14 13.01,-48.28 25.89,-96.61 38.98,-144.87 -32.38,-0.38 -64.79,0.14 -97.15,0.2 -43.1,-106.01 -87.16,-211.66 -130.1,-317.73 69.43,-56.16 138.23,-113.11 207.6,-169.35 35.95,0.09 71.91,-0.04 107.87,0.06 8.44,-46.63 16.75,-93.31 25.17,-139.97 -151.49,0.04 -302.96,-0.1 -454.45,0.06 -11.43,46.66 -23.11,93.24 -34.46,139.91 7.03,-0.01 14.07,-0.12 21.13,0.06 -39.24,34.57 -79.43,68.11 -119.03,102.28 7.44,-34.25 16.39,-68.17 24.41,-102.3 13.93,-0.14 27.89,-0.08 41.86,-0.04 11.96,-46.55 23.15,-93.31 34.73,-139.97 -119.19,-0.02 -238.39,0.04 -357.58,-0.04 -8.59,46.66 -16.91,93.36 -25.19,140.07zm657.56 -282c20.05,0.86 40.12,1.04 60.17,1.91 9.78,4.96 19.57,9.94 29.67,14.2 2.68,4.28 5.19,8.65 7.41,13.21 -7.81,-4.12 -15.67,-8.19 -23.51,-12.27 4.8,8.49 10.2,16.65 15.22,25.01 -29.65,-14.04 -59.54,-27.61 -88.96,-42.06zm77.56 -23.17c71.03,31.8 140.58,67.49 205.59,110.44 24.66,16.48 48.41,34.39 70.84,53.82 -4.45,-12.55 -7.87,-25.43 -11.93,-38.08 32.88,27.49 65.31,55.53 97.43,83.94 29.13,26.11 59.06,51.65 84.3,81.7 38.79,45.52 67.27,99.15 86.34,155.67 0.6,-10 -1.72,-19.87 -2.27,-29.81 20.03,20.95 39.26,43.24 52.41,69.27 8.28,17.03 14.13,36.5 10.1,55.47 -1.84,8.26 -5.04,16.52 -10.32,23.15l-2.84 0.28 0.36 -1.32c6.38,-19.97 0.82,-41.34 -6.51,-60.23 -8.38,-21.11 -22.81,-41.98 -45.14,-49.7 0.12,12.42 -0.74,24.79 -0.62,37.19 -8.04,-28.39 -14.4,-57.52 -27.55,-84.12 -18.21,-38.39 -42.44,-73.71 -69.87,-106.05 -12.53,-14.32 -25.13,-28.73 -39.7,-41 3.34,7.11 6.02,14.57 6.9,22.43 -21.39,-24.69 -45.94,-46.38 -70.35,-67.99 -16.25,-14.16 -32.61,-28.17 -49.34,-41.72 3.24,10.79 6.86,21.47 10.44,32.16 -23.43,-31.64 -54.86,-56.05 -86.64,-78.74 -61.57,-43.14 -127.5,-79.67 -194.27,-114.09 -2.34,-4.28 -4.92,-8.44 -7.36,-12.67zm-354.39 -72.79c50.03,1.12 99.23,12.01 147.15,25.79 37.26,11.01 74.1,23.61 110.05,38.34 -69.93,-22.29 -141.68,-39.08 -214.3,-49.72 13.27,10.36 23.35,24.01 34.32,36.65 -5.64,-0.86 -11.27,-1.66 -16.89,-2.6 3.34,3.06 6.63,6.15 9.81,9.35 -122.76,-15.77 -247.54,-21.07 -370.66,-5.95 -52.22,6.49 -104.01,16.75 -154.45,31.82 -11.76,3.24 -23.11,7.82 -34.91,10.9 41.39,-18.69 85.19,-31.75 129.42,-41.76 132.22,-29.07 269.72,-22.41 402.28,0.96 -13.12,-18.54 -25.63,-37.71 -41.82,-53.78z"/>
   <path class="fil1" d="M1219.09 1285.91c16.84,-0.56 33.69,-0.06 50.52,-0.28 7.84,52.25 15.17,104.59 22.93,156.86 -14.32,0.08 -28.63,0.36 -42.92,-0.16 0.08,-9.41 -0.58,-18.83 -1.02,-28.22 -22.09,-0.04 -44.18,0.08 -66.27,-0.06 -5.32,9.39 -9.8,19.23 -15.07,28.64 -13.54,-0.22 -27.05,-0.04 -40.58,-0.12 30.66,-52.31 61.95,-104.25 92.41,-156.66zm90.7 -0.22c91.18,0.02 182.34,-0.14 273.51,0.08 -1.78,8.23 -3.58,16.49 -5.31,24.74 -28.53,0.42 -57.06,-0.12 -85.58,0.24 -3.8,11.92 -5.54,24.79 -8.6,37.07 26.37,0.76 52.79,0.08 79.18,0.34 -2.22,7.49 -2.68,16.07 -6.17,22.87 -26.21,0.22 -52.44,0.08 -78.65,0.06 -2.92,13.95 -5.64,27.96 -8.33,41.98 29.62,0.08 59.25,0.02 88.89,0.04 -1.79,9.87 -4.07,19.67 -6.27,29.48 -43.02,0 -86.04,0.02 -129.06,-0.02 8.99,-42.32 18.33,-84.58 27.44,-126.88 -18.69,-0.1 -37.38,-0.02 -56.05,-0.04 -8.94,42.28 -17.89,84.58 -26.69,126.9 -13.83,0.1 -27.68,0.02 -41.5,0.04 9.04,-42.26 17.83,-84.6 26.77,-126.88 -16.87,-0.08 -33.74,-0.14 -50.62,0.04 2.26,-10.05 4.76,-20.03 7.04,-30.06zm-276.51 0.06c47.38,-0.08 94.78,-0.24 142.15,0.07 -2.58,9.92 -4.6,19.96 -7.29,29.85 -16.94,0.06 -33.85,-0.24 -50.76,0.14 -8.66,42.3 -17.73,84.5 -26.59,126.76 -13.79,0.04 -27.56,0.02 -41.34,0.02 8.84,-42.32 17.79,-84.62 26.71,-126.92 -16.91,-0.06 -33.81,0.02 -50.7,-0.04 2.88,-9.81 3.94,-20.59 7.82,-29.88zm-694.28 0.52c19.91,-1.44 40.28,-0.2 60.35,-0.58 -1.54,2.73 -4.13,4.59 -6.45,6.63 -19.41,16.65 -38.79,33.35 -58.16,50.04 12.02,33.34 23.99,66.73 36.17,100.01 -18.01,0.38 -36.05,0.28 -54.04,0.1l-0.76 -0.58c-6.65,-23.55 -12.95,-47.2 -19.37,-70.8 -12.31,9.47 -24.47,19.17 -36.64,28.84 -2.82,1.88 -2.16,5.76 -3.16,8.62 -2.62,11.25 -4.22,23.03 -7.6,33.94 -14.65,0.26 -29.34,0.02 -44,0.1 12.1,-52.29 24.13,-104.61 36.23,-156.9 14.69,-0.04 29.38,-0.02 44.08,-0.02 -5.28,22.24 -11.16,44.38 -16.14,66.69 23.07,-22.12 46.34,-44.06 69.49,-66.09zm577.27 7.79c16.84,-10.27 37.17,-12.15 56.46,-12.23 13.47,0.62 28.16,1.02 39.5,9.33 7.54,5.84 8.17,16.06 10.97,24.47 -13.89,-0.08 -27.78,0.26 -41.66,-0.18 -3.24,-10.13 -15.27,-12.99 -24.69,-12.37 -10.51,-0.58 -22.01,6.37 -23.4,17.41 -1.3,6.9 3.99,12.91 10.09,15.27 19.25,8.46 41.78,8.2 59.53,20.33 8.18,5.16 13.26,14.7 12.8,24.39 -0.44,16.79 -8.1,33.29 -20.63,44.5 -14.68,13.55 -34.89,19.21 -54.4,20.71 -17.79,1.48 -37,-0.82 -51.83,-11.51 -11.5,-7.94 -18.4,-22.13 -17.08,-36.09 14.52,0.04 29.05,0.02 43.58,0 1.06,7.4 3.02,16.3 10.6,19.69 11.41,5.44 25.45,4.06 36.7,-1.2 13.04,-6.07 14.28,-26.42 2.62,-34.5 -18.93,-13.13 -44.52,-11.03 -63.11,-24.91 -5.96,-4.36 -9.48,-11.39 -9.78,-18.71 -0.11,-17.51 8.68,-35.12 23.73,-44.4zm-322.83 -15.91c14.36,6.12 29.19,11.03 43.46,17.29 -13.13,-2.16 -26.04,-5.36 -39.08,-7.98 -1.48,-3.09 -2.98,-6.19 -4.38,-9.31zm1032.8 -504.59c-9.39,-15.61 -8.11,-40.42 8.86,-50.23 -4.9,10.45 -9.42,21.81 -7.8,33.58 1.66,11.58 8.02,22.93 18.29,28.93 12.78,8.23 24.85,17.49 36.69,27.03 -4.44,-0.88 -8.86,-1.74 -13.26,-2.62 -46.6,-21.95 -91.91,-49.74 -143.59,-57.9 -27.41,-3.79 -55.67,-5.63 -82.84,0.72 -29.51,6.64 -57.69,20.97 -78.75,42.92 -9.75,10.72 -18.67,23.09 -21.79,37.51 -0.35,0.28 -1.09,0.88 -1.45,1.18 -0.86,8.57 -2.8,17.01 -4.7,25.4 -1.88,-10.35 -1.82,-20.89 -1.42,-31.36 2.04,-13.16 5.14,-26.45 12.51,-37.72 16.44,-26.23 44.54,-42.88 73.45,-52.14 28.23,-9.46 58.59,-10.24 87.88,-6.26 41.66,5.12 81.72,19.95 117.92,40.96zm-80.06 -107.11c9.72,-7.93 21.51,-13.65 34.1,-14.83 15.72,-2.16 31.17,2.9 44.9,10.14 -2.32,-3.4 -4.65,-6.82 -6.89,-10.26 19.77,4.1 36.18,18.51 45.42,36.08 8.35,16.54 15.13,33.87 24.12,50.08 9.5,16.59 20.53,32.43 33.83,46.22 18.61,20.01 44.1,34 71.47,36.68 13.63,1.94 28,2.36 41.12,-2.52 10.67,-3.51 18.89,-11.47 25.96,-19.89 -0.06,9.58 -2.82,18.83 -7.35,27.21 6.47,-5.42 13.07,-11.28 16.51,-19.15 3.66,-10.44 1.58,-21.75 -1.6,-32.03 8.52,8.18 16.53,17.84 19.29,29.59 2.04,8.38 -0.7,17.07 -4.92,24.35 -10.95,14.55 -29.86,19.75 -47.11,21.97 -17.96,1.18 -36.51,-0.34 -53.28,-7.26 8.52,-0.64 17.09,-0.98 25.53,-2.44 -19.23,-1.68 -37.66,-8.37 -54.22,-18.13 -8.11,-2.08 -16.85,-0.26 -25.18,-1 26.1,21.03 50.39,44.8 68.92,72.89l2.66 6.77c-16.51,-17.21 -32.1,-35.36 -50.09,-51.07 -14.9,-13.04 -30.27,-25.63 -46.78,-36.56 9.43,0.41 17.69,-4.24 24.45,-10.38 -4.92,-4.56 -9.72,-9.22 -14.4,-13.99 -11.99,3.63 -26.68,0.4 -34.32,-10.04 -3.44,-4.36 -4.24,-9.95 -4.68,-15.31 5.34,0.62 10.72,1.32 16.09,1.96 -2.93,-4.62 -6.23,-9 -9.73,-13.2 2.66,-1.8 5.64,-2.96 8.75,-3.79 -3.33,-5.4 -6.55,-10.86 -9.81,-16.3 -6.42,-13.45 -24.29,-18.91 -37.8,-13.71 -4.3,-19.93 -20.09,-37.82 -40.49,-41.9 -11.45,-2.7 -23.48,-1 -34.08,3.94 4.12,-6.14 9.64,-11.06 15.47,-15.5 -11.93,-2.3 -24.05,-0.82 -35.86,1.38zm103.75 -73.26c24.83,3.66 45.84,18.83 65.07,33.98 26.21,24.11 45.78,54.24 63.17,85.02 5.3,10.88 11.4,22.57 22.51,28.45 -6.24,-0.36 -11.63,-3.82 -16.69,-7.16 -13.63,-9.15 -22.71,-23.25 -31.63,-36.7 -20.39,-31.73 -42.54,-63.45 -72.9,-86.46 -8.92,-7.26 -19.69,-11.47 -29.53,-17.13zm-1042.67 -26.85c7.11,-38.58 13.75,-77.26 20.95,-115.83 110.63,0.02 221.27,0.14 331.9,-0.06 -8.65,38.83 -18.99,77.29 -28.22,115.99 -14.12,0.26 -28.21,-0.24 -42.3,0.28 -11.7,49.3 -23.77,98.49 -35.71,147.73 57.58,-49.25 115.31,-98.33 172.62,-147.89 -12.85,-0.24 -25.71,0.2 -38.54,-0.24 9.52,-38.58 19.05,-77.16 28.59,-115.75 143.55,-0.02 287.1,-0.04 430.68,0 -6.96,38.67 -13.94,77.33 -20.85,115.99 -34.03,-0.18 -68.05,0.08 -102.08,-0.14 -72.72,59.29 -145.47,118.57 -217.91,178.2 45.65,111.01 91.19,222.07 136.79,333.1 29.75,-0.16 59.49,-0.9 89.26,-0.3 -10.79,40.26 -21.61,80.51 -32.44,120.77 -144.94,0 -289.87,0.12 -434.78,-0.06 9.93,-39.77 19.59,-79.61 29.52,-119.35 29.39,-0.18 58.78,-0.82 88.18,-0.5 -22.57,-54.87 -45.4,-109.65 -68.15,-164.46 -45.71,39.26 -91.71,78.24 -137.29,117.66 -4.54,15.58 -7.66,31.57 -11.78,47.28 20.79,0 41.6,0 62.41,0 -9.73,39.84 -19.57,79.69 -29.48,119.49 -111.19,-0.1 -222.4,0 -333.59,-0.04 10.76,-39.55 21.19,-79.17 32.41,-118.57 13.69,0.2 27.39,0.18 41.06,0.02 41.32,-170.96 82.72,-341.9 124.16,-512.82 -18.45,-0.88 -36.94,0.08 -55.41,-0.5zm-509.19 -174.22c13.4,-17.37 26.61,-34.9 40.87,-51.59 -33.77,45.61 -62.36,94.99 -86.46,146.33 -21.61,46.2 -39.75,94.25 -50.48,144.19 -1.34,-12.59 -1.6,-25.31 -2,-37.94 14.65,-74.17 52.68,-141.4 98.07,-200.99zm764.15 -246.7c32.32,1.24 64.73,2.29 96.89,6.03 56.66,7.16 112.37,20.09 167.55,34.57 54.47,14.87 109.02,30.96 160.02,55.63 -12.65,-18.61 -25.97,-36.76 -39.6,-54.69 23.41,8.17 45.76,19.09 68.35,29.28 41.38,19.41 82.08,40.26 122.08,62.41 32.09,17.94 63.89,36.47 93.96,57.62 10.13,7.07 19.85,14.75 28.94,23.13 -5.05,-17 -10.07,-34.03 -15.65,-50.86 26.43,25.03 53.36,49.56 81.06,73.21 32.53,28.08 65.87,55.25 97.48,84.4 28.19,25.86 54.15,54.17 77.26,84.66 27.19,36.34 50.26,77.3 58.05,122.5 27.05,18.89 52,41.36 70.91,68.55 13.1,19.03 24.81,41.26 22.75,65.09 -1.02,13.85 -10.25,25.89 -22.19,32.48 0.36,7.74 1.22,15.48 2.3,23.17 34.5,46.94 59.57,101.96 66.15,160.21 3.18,31.12 1.42,62.97 -7.36,93.09 -6.85,23.45 -16.49,46.54 -31.86,65.77 -17.61,22.37 -41.52,39.3 -67.71,50.2 -32.47,13.67 -67.95,18.75 -102.99,18.81 -24.89,-0.68 -49.94,-3.22 -73.89,-10.33 -1.86,-0.58 -3.6,-1.42 -5.18,-2.48 28.89,-14.64 55.9,-34.95 74.05,-62.11 12.99,-18.93 14.71,-42.98 12.77,-65.21 -3.97,-37.43 -18.63,-72.89 -37.08,-105.37 -36.08,16.93 -73.92,30.56 -113.11,38.22 -44.62,8.77 -90.89,9.43 -135.65,1.28 -33.31,-6.12 -66.25,-16.47 -95.16,-34.41 -25.31,-15.73 -47.3,-37.86 -59.77,-65.17 -18.37,8.4 -39.4,6.2 -58.81,3.58 -12.9,-2.04 -25.63,-5.06 -38.05,-9.05 12.04,-3.16 26.39,-1.54 36.15,-10.66 5.23,-6.2 2.04,-14.73 -0.9,-21.21 -8.32,-16.79 -20.99,-30.92 -33.37,-44.8 -21.63,-24.97 -48.37,-44.66 -73.96,-65.29 31.56,77.53 63.33,154.99 94.85,232.53 40.45,0.2 80.91,-0.02 121.37,0.1 -19.11,71.35 -38.2,142.72 -57.64,213.98 -274.79,-0.14 -549.58,-0.18 -824.37,0.03 21.59,12.19 44.68,21.54 67.21,31.82 -10.82,-0.06 -21.65,0.26 -32.47,-0.18 -26.77,-8.82 -53.49,-17.83 -79.66,-28.37 -4.14,-1.64 -8.32,-3.7 -12.9,-3.42 -14.15,0.02 -28.28,0 -42.42,0.09 -3.87,-0.03 -7.75,0.08 -11.63,0.21 -2.7,-0.06 -5.38,-0.21 -8.06,-0.32 0.14,-0.6 0.42,-1.77 0.54,-2.35 0.44,-1.84 0.9,-3.68 1.38,-5.48 1.66,-6.12 3.36,-12.22 5,-18.33 -69.93,-33.85 -136.06,-76.01 -194.45,-127.38 -59.53,-52.24 -111.03,-113.87 -150.33,-182.7 -4.66,-8.06 -9.15,-16.21 -13.33,-24.51 7.67,1.54 15.33,3.08 23.01,4.62 3.77,0.74 7.57,1.46 11.37,2.2 -28.77,-59.63 -51.1,-123.88 -52.41,-190.69 -0.34,-78.03 26.12,-154.03 65.9,-220.42 19.13,-32.26 41.35,-62.61 64.67,-91.94 9.78,-12.01 19.06,-24.44 29.25,-36.08 2.46,27.19 4.68,54.38 6.9,81.58 61.07,-69.01 136.93,-124.12 219.48,-164.68 153.02,-75.01 328.02,-100.85 496.86,-82.12 -16.71,-14.48 -34.66,-27.49 -52.55,-40.44zm111.53 55.21l0 0c16.19,16.07 28.7,35.24 41.82,53.78 -132.56,-23.37 -270.06,-30.03 -402.28,-0.96 -44.23,10.01 -88.03,23.07 -129.42,41.76 -15.93,5.65 -31.26,12.85 -46.25,20.69 -99.26,51.11 -184.44,126.46 -254.68,212.66 -4.16,-20.31 -7.6,-40.76 -11.28,-61.17 -14.65,18.45 -27.27,38.46 -39.4,58.65 -18.87,32.44 -36.32,66.05 -47.9,101.87 -15.89,52.28 -20.71,109.35 -5.22,162.31 9.22,38.36 26.27,74.32 44.3,109.23 1.84,5.31 4.8,10.11 7.4,15.07 -8.8,-1.4 -17.41,-3.84 -26.29,-4.76 -1.36,-0.16 -4.1,-0.5 -5.48,-0.66 39.4,64.35 89.34,122.04 145.9,171.88 25.32,21.95 51.95,42.58 80.62,59.97 -9.28,-10.25 -19.41,-19.71 -28.69,-29.98 -3.24,-5.86 -8.61,-10.08 -12.81,-15.22 -39.12,-43.74 -73.17,-92.99 -93.8,-148.25 -0.7,-1.8 -0.42,-3.52 0.84,-5.12l0.88 1.78c11.44,1.56 22.61,4.58 33.96,6.52 -1.42,-4.5 -2.83,-8.97 -3.73,-13.59 -3.56,-18.91 -9.26,-37.55 -11.08,-56.76l-0.5 -0.2c-5.52,-49.03 -4.16,-99.47 9.36,-147.19 8.33,-30.16 23.21,-58.31 42.2,-83.1 37.3,-48.96 91.54,-84.06 150.75,-100.19 0.36,-0.56 1.06,-1.7 1.42,-2.26l-1.74 2.82c7.63,-2.02 15.29,-4.04 23.07,-5.46 -8.7,12.43 -19.01,23.75 -26.97,36.64 -4.54,6.02 -8.94,12.14 -13.61,18.04 50.27,-22.95 105.17,-33.57 159.74,-40.07 0.84,-4.25 1.64,-8.51 2.4,-12.77 8.74,-48.16 17.65,-96.28 26.29,-144.45 41.12,-0.38 82.26,0.5 123.36,-0.58 45.62,-0.18 91.32,0.48 136.88,-0.32 78.48,-0.32 157.04,0.22 235.55,-0.82 -58.55,-17.31 -119.29,-26.29 -179.88,-32.97 -70.61,-7.15 -141.97,-11.21 -212.72,-3.82 -36.36,4.78 -72.51,11.68 -108.01,20.93 1.5,-0.83 3.04,-1.57 4.64,-2.17 42.94,-12.66 87.14,-20.55 131.58,-25.53 90.95,-9.76 183.21,-8.36 273.69,5.4 44.66,7.09 89.1,17.17 131.34,33.6 4.24,1.46 8.23,3.98 12.73,4.66 32.95,0.3 65.91,-0.06 98.86,-0.6 7.55,0.34 15.21,0.48 22.77,-0.44 14.09,1.32 28.48,0.4 42.7,0.4 21.19,0.5 42.5,0.02 63.75,0.22 37.72,-1.3 75.5,0.18 113.22,-0.86 12.1,0.82 24.35,0.18 36.53,0.24 -1.18,7.35 -2.68,14.67 -3.84,22.03 -11.72,62.95 -22.97,125.98 -34.6,188.95 -45.6,0.46 -91.26,-0.86 -136.84,0.72 -20.23,18.39 -40.76,36.48 -61.11,54.77 -2.54,2.26 -5.08,4.52 -7.62,6.78 -20.47,18.37 -41.02,36.64 -61.49,55.02 -5.08,4.45 -10.04,9.05 -15.19,13.43 -1.16,1.14 -2.32,2.3 -3.44,3.48 21.61,13.35 42.36,28.06 62.47,43.54 26.45,24.21 54.21,47.78 74.6,77.58 2.44,15.57 3.92,31.95 11.48,46.06 4.6,11.25 11.25,21.63 19.13,30.87 -5.38,-13.98 -10.5,-28.75 -8.86,-43.94 9.2,24.08 26.15,44.99 46.04,61.15 35.21,31.84 81.26,49.07 127.52,57.21 77.43,14.49 158.57,2.04 229.92,-30.65 -6.3,-9.75 -13.28,-19.05 -20.79,-27.88 -22.13,11.33 -45.28,20.95 -69.59,26.46 -42.64,10.1 -87.66,8.72 -129.92,-2.53 -26.41,-6.92 -53.34,-16.74 -73.15,-36.25 -6.09,-5.69 -9.95,-13.15 -15.07,-19.61 -6.56,-13.75 -7.32,-29.44 -4.48,-44.24 4.88,28.69 27.95,50.12 52.9,62.75 33.32,16.66 70.72,24.01 107.77,25.53 41.54,1.1 83.32,-6.3 121.98,-21.59 -36.34,-39.72 -82.5,-69.91 -132.12,-90.42 -30.24,-12.29 -63.11,-21.71 -96.03,-17.27 -19.17,2.38 -38.73,10.86 -49.66,27.45 26.41,-1.2 52.78,3.36 78.04,10.83 15.86,4.72 32.05,9.1 46.74,16.88 -47.9,-7.8 -96.11,-19.85 -144.95,-15.56 -1.1,0.12 -3.32,0.34 -4.42,0.46 -0.92,-19.75 10.32,-38.08 25.39,-50.05 19.43,-15.34 44.98,-20.41 69.25,-19.97 38.6,1.22 75.36,15.17 109.81,31.64 58.17,28.63 110.94,69.63 149.59,121.98 20.53,27.59 35.88,58.8 46.87,91.32 8.84,29.11 12.22,60.51 5.84,90.48 -6.02,29.21 -27.61,52.26 -51.25,68.97 -12.6,8.65 -26.01,16.93 -41.01,20.59 9.3,1.54 18.78,1.98 28.19,1.58 33.87,-1.58 68.27,-6.06 99.61,-19.69 29.13,-12.38 55.7,-32.05 73.63,-58.36 12.12,-18.15 21.03,-38.88 24.47,-60.47 10.69,-40.04 8.16,-82.62 -0.94,-122.74 -11.93,-50.72 -33.8,-99.17 -63.25,-142.05 -0.64,-1.58 -1.9,-4.72 -2.54,-6.3 6.14,3.18 11.66,7.93 18.51,9.53l-0.36 1.32 2.84 -0.28c5.28,-6.63 8.48,-14.89 10.32,-23.15 4.03,-18.97 -1.82,-38.44 -10.1,-55.47 -13.15,-26.03 -32.38,-48.32 -52.41,-69.27 0.55,9.94 2.87,19.81 2.27,29.81 -19.07,-56.52 -47.55,-110.15 -86.34,-155.67 -25.24,-30.05 -55.17,-55.59 -84.3,-81.7 -32.12,-28.41 -64.55,-56.45 -97.43,-83.94 4.06,12.65 7.48,25.53 11.93,38.08 -22.43,-19.43 -46.18,-37.34 -70.84,-53.82 -65.01,-42.95 -134.56,-78.64 -205.59,-110.44 2.44,4.23 5.02,8.39 7.36,12.67 6.05,11.75 13.89,22.47 20.33,34 -5.16,-2.45 -10.02,-5.51 -15.41,-7.39 -10.1,-4.26 -19.89,-9.24 -29.67,-14.2 -5.34,-3.47 -11.39,-5.55 -17.11,-8.29 -20.65,-9.06 -41.2,-18.49 -62.69,-25.45 -35.95,-14.73 -72.79,-27.33 -110.05,-38.34 -47.92,-13.78 -97.12,-24.67 -147.15,-25.79zm391.97 215.22l0 0c-51.67,0.52 -103.39,0.1 -155.08,0.22 -43.96,1.02 -87.92,0.28 -131.88,0.5 -33.35,-0.34 -66.63,0.84 -99.97,0.5 -43.98,0.24 -88,-0.54 -131.96,0.52 -48.62,-0.06 -97.22,0.02 -145.82,-0.04 -34.68,1.08 -69.38,0.26 -104.07,0.56 -10.85,59.61 -21.83,119.22 -32.58,178.88 16.05,0.08 32.12,-0.16 48.2,0.14 -34.17,149.69 -68.21,299.4 -102.18,449.15 -13.25,0.02 -26.51,0 -39.76,0 -16.53,60.57 -32.56,121.3 -49.08,181.87 303.8,0.08 607.6,0 911.42,0.04 16.39,-60.59 32.7,-121.22 48.92,-181.87 -37.07,-0.1 -74.13,0 -111.19,-0.04 -39.74,-97.4 -79.36,-194.87 -119.37,-292.17 59.66,-53.17 119.07,-106.65 178.84,-159.7 42.82,0.16 85.64,0.02 128.46,0.08 11.02,-59.54 21.71,-119.13 32.69,-178.68 -41.84,-0.36 -83.73,-0.44 -125.59,0.04zm-958.91 218.88l0 0c-37.64,14.87 -74.2,33.76 -105.01,60.31 10.83,-16.45 22.59,-32.27 33.34,-48.74 4.02,-5.05 6.88,-10.93 10.98,-15.93 -0.12,-0.56 -0.36,-1.68 -0.46,-2.22 -1.6,4.2 -6.52,5.02 -9.8,7.5 -13.13,8.69 -25.6,18.87 -35.44,31.24 -19.77,22.33 -32.19,50.28 -41.6,78.35 -8.1,23.63 -9.5,48.79 -10.18,73.56 0.82,53.64 8.44,107.73 27.61,158.05 -12.13,-2.44 -24.25,-5.12 -36.42,-7.46 36.18,80.07 94.85,148.65 164.32,201.87 4.56,3.2 8.54,7.39 13.8,9.49 13.25,-50.21 26.94,-100.33 40.4,-150.51 13.11,-0.02 26.22,0.24 39.34,-0.14 31.54,-139.01 63.09,-278.01 94.87,-416.96 -15.79,-0.38 -31.56,-0.04 -47.35,-0.18 0.82,-4.82 1.7,-9.64 2.55,-14.45 -48.17,6.51 -95.65,18.51 -140.95,36.22zm249.18 650.94c62.24,-0.02 124.47,0.02 186.7,-0.02 -2.28,10.01 -4.82,19.99 -7.1,30.02 -16.83,-0.12 -33.64,0.12 -50.46,-0.12 -9.49,42.18 -18.01,84.62 -26.92,126.94 -13.82,0.22 -27.63,0.04 -41.44,0.1 8.83,-42.32 17.81,-84.62 26.68,-126.94 -18.11,-0.02 -36.22,0 -54.33,0 -9.22,42.32 -18.27,84.7 -27.61,127 -13.71,-0.08 -27.41,-0.16 -41.08,0.04 -16.43,-34.02 -31.96,-68.49 -48.32,-102.53 -7.35,34.08 -14.27,68.29 -21.43,102.43 -58.57,0.02 -117.16,0 -175.73,0 11.29,-52.31 22.6,-104.61 34.04,-156.88 59.17,0 118.34,-0.22 177.52,0.11 15.95,34.13 31.58,68.47 48.41,102.16 7.5,-34.01 13.9,-68.25 21.07,-102.31zm-212.56 25.06l0 0c-2.55,12.5 -5.51,24.89 -7.99,37.41 26.29,-0.08 52.55,0.14 78.84,-0.12 -1.04,7.83 -3.38,15.41 -5.12,23.09 -26.41,0.04 -52.81,0 -79.22,0.02 -2.92,13.93 -5.66,27.9 -8.62,41.84 32.15,0.4 64.31,-0.12 96.46,0.26 7.93,-34.09 14.99,-68.37 22.43,-102.58 -32.27,0.06 -64.51,-0.12 -96.78,0.08zm752.77 77.39l0 0c16.12,0.06 32.23,-0.16 48.34,0.12 -1.86,-26.89 -4.36,-53.74 -6.26,-80.63 -15.01,26.27 -27.82,53.8 -42.08,80.51z"/>
   <path class="fil2" d="M443.43 1310.73c32.27,-0.2 64.51,-0.02 96.78,-0.08 -7.44,34.21 -14.5,68.49 -22.43,102.58 -32.15,-0.38 -64.31,0.14 -96.46,-0.26 2.96,-13.94 5.7,-27.91 8.62,-41.84 26.41,-0.02 52.81,0.02 79.22,-0.02 1.74,-7.68 4.08,-15.26 5.12,-23.09 -26.29,0.26 -52.55,0.04 -78.84,0.12 2.48,-12.52 5.44,-24.91 7.99,-37.41zm-371.68 -242.28c3.89,2.67 6.47,6.77 9.73,10.15 21.89,23.61 46.74,44.28 72.35,63.71 37.06,28.01 76.62,52.62 117.84,74.01 17.16,9.23 35.07,16.99 52.26,26.13 -32.19,-3.08 -61.65,-18 -89.86,-32.83 -46.58,-26.19 -91.1,-56.81 -129.2,-94.46 -12.81,-14.05 -27.35,-28.08 -33.12,-46.71zm1370.84 -315.38c27.17,-6.35 55.43,-4.51 82.84,-0.72 51.68,8.16 96.99,35.95 143.59,57.9 43.24,26.94 85.7,55.79 122.37,91.39 18.27,18.52 35.72,37.83 53.31,57.02 -14.69,-22.39 -30.58,-44.1 -47.9,-64.51 -18.53,-28.09 -42.82,-51.86 -68.92,-72.89 8.33,0.74 17.07,-1.08 25.18,1 16.56,9.76 34.99,16.45 54.22,18.13 -8.44,1.46 -17.01,1.8 -25.53,2.44 16.77,6.92 35.32,8.44 53.28,7.26 14.83,1.08 29.82,-1.1 43.44,-7.18 7.31,6.2 12.15,14.59 17.05,22.69 14.83,25.69 26.5,53.1 36.5,81 17.07,48.92 28.53,100.86 24.35,152.91 -3.44,21.59 -12.35,42.32 -24.47,60.47 -17.93,26.31 -44.5,45.98 -73.63,58.36 -31.34,13.63 -65.74,18.11 -99.61,19.69 -9.41,0.4 -18.89,-0.04 -28.19,-1.58 15,-3.66 28.41,-11.94 41.01,-20.59 23.64,-16.71 45.23,-39.76 51.25,-68.97 6.38,-29.97 3,-61.37 -5.84,-90.48 -10.99,-32.52 -26.34,-63.73 -46.87,-91.32 -38.65,-52.35 -91.42,-93.35 -149.59,-121.98 -34.45,-16.47 -71.21,-30.42 -109.81,-31.64 -24.27,-0.44 -49.82,4.63 -69.25,19.97 -15.07,11.97 -26.31,30.3 -25.39,50.05 1.1,-0.12 3.32,-0.34 4.42,-0.46 0.66,17.06 8.43,33.15 19.81,45.64 5.12,6.46 8.98,13.92 15.07,19.61 19.81,19.51 46.74,29.33 73.15,36.25 42.26,11.25 87.28,12.63 129.92,2.53 24.31,-5.51 47.46,-15.13 69.59,-26.46 7.51,8.83 14.49,18.13 20.79,27.88 -71.35,32.69 -152.49,45.14 -229.92,30.65 -46.26,-8.14 -92.31,-25.37 -127.52,-57.21 -14.89,-15.85 -28.92,-33.13 -36.6,-53.74 -0.9,-0.1 -2.68,-0.32 -3.56,-0.42 -8.29,-23.05 -12.55,-47.86 -9.08,-72.26 3.12,-14.42 12.04,-26.79 21.79,-37.51 21.06,-21.95 49.24,-36.28 78.75,-42.92zm-252.72 -11.89c5.15,-4.38 10.11,-8.98 15.19,-13.43 47.58,27.24 94.04,58.51 129.42,100.97l-3.36 -2.2c-6.12,28.27 -1.8,57.37 3.86,85.32 -7.56,-14.11 -9.04,-30.49 -11.48,-46.06 -20.39,-29.8 -48.15,-53.37 -74.6,-77.58 -17.95,-17.71 -38.36,-32.67 -59.03,-47.02zm76.68 -68.45c2.54,-2.26 5.08,-4.52 7.62,-6.78 41.24,23.33 81.22,49 118.8,77.91 -7.12,1.76 -14.23,3.46 -21.41,4.8 -32.84,-28.13 -68.39,-52.98 -105.01,-75.93zm-920.89 -44.58c0.1,0.54 0.34,1.66 0.46,2.22 -4.1,5 -6.96,10.88 -10.98,15.93 -11.99,6.1 -23.45,13.22 -34.72,20.59 9.84,-12.37 22.31,-22.55 35.44,-31.24 3.28,-2.48 8.2,-3.3 9.8,-7.5zm1171.59 13.56c16.66,-20.8 42.68,-33.25 69.15,-34.63 26.91,-0.88 54.7,5.36 76.69,21.45 9.69,8.46 17.81,18.75 23.62,30.25 -5.59,-3.6 -9.31,-9.4 -14.77,-13.18 -20.41,-15.27 -46.42,-21.25 -71.55,-21.59 -23.22,0.54 -47.35,6.42 -65.7,21.31 -15.04,13.44 -25.25,33.47 -23.23,53.98 -4.1,-7.84 -5.1,-16.77 -5.46,-25.47 1.02,-11.39 4.02,-23.03 11.25,-32.12zm147 -52.64c12.63,0.88 24.06,7.26 34.98,13.25 39.02,22.95 66.31,60.78 87.92,99.68 7.15,12.81 13.43,27.88 27.45,34.64 -15.02,-2.8 -26.19,-13.97 -36.43,-24.45 -17.39,-30.78 -36.96,-60.91 -63.17,-85.02 -13.29,-16.83 -31.98,-28.45 -50.75,-38.1zm-1503.88 -222.26c1.19,6.72 1.57,13.54 1.91,20.35 -23.32,29.33 -45.54,59.68 -64.67,91.94 -39.78,66.39 -66.24,142.39 -65.9,220.42 -4.16,65.25 14.89,129.4 41.04,188.49 -7.68,-1.54 -15.34,-3.08 -23.01,-4.62 4.18,8.3 8.67,16.45 13.33,24.51 -4.54,-0.96 -9.08,-1.86 -13.63,-2.68 44.1,85.04 106.81,159.89 180.55,220.78 52.82,43.68 111.25,80.36 172.86,110.31 -0.48,1.8 -0.94,3.64 -1.38,5.48 -69.37,-31.49 -135.31,-70.97 -194.29,-119.29 -75.52,-61.53 -139.39,-137.77 -184.47,-224.27 11.47,2.15 22.87,4.63 34.34,6.75 -30.06,-62.35 -53.95,-129.92 -52.79,-200 0.8,-73.57 25.97,-145.08 62.67,-208.19 26.63,-46.4 60.17,-88.28 93.44,-129.98zm1175.13 -80.72c66.77,34.42 132.7,70.95 194.27,114.09 31.78,22.69 63.21,47.1 86.64,78.74 -3.58,-10.69 -7.2,-21.37 -10.44,-32.16 16.73,13.55 33.09,27.56 49.34,41.72 24.41,21.61 48.96,43.3 70.35,67.99 -0.88,-7.86 -3.56,-15.32 -6.9,-22.43 14.57,12.27 27.17,26.68 39.7,41 27.43,32.34 51.66,67.66 69.87,106.05 13.15,26.6 19.51,55.73 27.55,84.12 -0.12,-12.4 0.74,-24.77 0.62,-37.19 22.33,7.72 36.76,28.59 45.14,49.7 7.33,18.89 12.89,40.26 6.51,60.23 -6.85,-1.6 -12.37,-6.35 -18.51,-9.53 0.64,1.58 1.9,4.72 2.54,6.3 -3.38,-2.2 -6.72,-4.36 -10.04,-6.6 4.22,-7.28 6.96,-15.97 4.92,-24.35 -2.76,-11.75 -10.77,-21.41 -19.29,-29.59 3.18,10.28 5.26,21.59 1.6,32.03 -3.44,7.87 -10.04,13.73 -16.51,19.15 4.53,-8.38 7.29,-17.63 7.35,-27.21 -7.07,8.42 -15.29,16.38 -25.96,19.89 -13.12,4.88 -27.49,4.46 -41.12,2.52 -8.58,-4.02 -18.26,-9.45 -19.2,-19.99 11.76,3.92 24.59,9.22 37.01,4.68 13.05,-5.78 18.47,-20.91 19.15,-34.24 1.6,-28.97 -7.02,-57.44 -18.13,-83.87 -19.13,-42.92 -46.76,-81.78 -78.89,-115.92 1.72,8.51 3.48,17.05 3.86,25.75 -22.31,-28.85 -46.48,-56.28 -72.58,-81.75 -11.88,-11.11 -23.41,-22.74 -36.73,-32.16 2.44,11.97 5.72,23.73 8.76,35.56 -20.47,-20.17 -42.22,-39.02 -64.25,-57.45 2.14,9.47 6.1,18.43 8.51,27.85 -20.37,-26.73 -46.65,-48.2 -73.92,-67.51 1.16,-7.36 2.66,-14.68 3.84,-22.03 -12.18,-0.06 -24.43,0.58 -36.53,-0.24 -40.66,-26.79 -83.24,-50.48 -126.2,-73.33 -2.22,-4.56 -4.73,-8.93 -7.41,-13.21 5.39,1.88 10.25,4.94 15.41,7.39 -6.44,-11.53 -14.28,-22.25 -20.33,-34zm-662.27 -33.6c123.12,-15.12 247.9,-9.82 370.66,5.95 8.52,8.82 16.32,18.28 24.05,27.77 -95.13,-12.83 -191.31,-19.69 -287.3,-16.01 107.31,3.02 212.98,25.77 315.91,55.07 49.9,14.5 99.21,31.07 147.37,50.64 17.87,7.6 36.18,14.41 53.14,23.97 -14.22,0 -28.61,0.92 -42.7,-0.4 -35.57,-16.73 -72.89,-29.53 -110.33,-41.38 -79.85,-25.09 -162.63,-39.2 -245.51,-49.78 -4.58,-0.56 -9.17,-0.58 -13.73,-0.38 118.84,15.15 237.41,42.02 346.8,91.98 -32.95,0.54 -65.91,0.9 -98.86,0.6 -4.5,-0.68 -8.49,-3.2 -12.73,-4.66 -42.24,-16.43 -86.68,-26.51 -131.34,-33.6 -90.48,-13.76 -182.74,-15.16 -273.69,-5.4 -44.44,4.98 -88.64,12.87 -131.58,25.53 -1.6,0.6 -3.14,1.34 -4.64,2.17 35.5,-9.25 71.65,-16.15 108.01,-20.93 70.75,-7.39 142.11,-3.33 212.72,3.82 -18.65,11.12 -37.3,22.23 -55.67,33.79 -45.56,0.8 -91.26,0.14 -136.88,0.32 -41.1,1.08 -82.24,0.2 -123.36,0.58 -8.64,48.17 -17.55,96.29 -26.29,144.45 -50.82,4.28 -101.47,14.89 -148.53,34.8 7.96,-12.89 18.27,-24.21 26.97,-36.64 -7.78,1.42 -15.44,3.44 -23.07,5.46l1.74 -2.82c4.87,-8 10.43,-15.57 15.21,-23.63 -66.79,17.49 -125.32,59.99 -167.96,113.71 -16.71,21.57 -32.13,44.78 -40.72,70.88 -16.4,48.96 -18.71,101.7 -13.06,152.71 0.34,6.1 2.78,12.36 1.1,18.39 0.42,0.18 1.28,0.52 1.7,0.68l0.5 0.2c1.82,19.21 7.52,37.85 11.08,56.76 -12,-2.74 -24.09,-4.98 -36.13,-7.42 1.56,4.28 3.08,8.58 5.02,12.71 -1.26,1.6 -1.54,3.32 -0.84,5.12 20.63,55.26 54.68,104.51 93.8,148.25 4.2,5.14 9.57,9.36 12.81,15.22 -75.74,-54.5 -141.11,-123.25 -192.35,-201.21 8.88,0.92 17.49,3.36 26.29,4.76 -2.6,-4.96 -5.56,-9.76 -7.4,-15.07l4.52 1.13c-19.11,-35.44 -36.74,-71.86 -48.82,-110.36 -15.49,-52.96 -10.67,-110.03 5.22,-162.31 11.58,-35.82 29.03,-69.43 47.9,-101.87 12.13,-20.19 24.75,-40.2 39.4,-58.65 3.68,20.41 7.12,40.86 11.28,61.17 70.24,-86.2 155.42,-161.55 254.68,-212.66 14.99,-7.84 30.32,-15.04 46.25,-20.69 11.8,-3.08 23.15,-7.66 34.91,-10.9 50.44,-15.07 102.23,-25.33 154.45,-31.82zm343.42 -37.45c72.62,10.64 144.37,27.43 214.3,49.72 21.49,6.96 42.04,16.39 62.69,25.45 5.72,2.74 11.77,4.82 17.11,8.29 -20.05,-0.87 -40.12,-1.05 -60.17,-1.91 29.42,14.45 59.31,28.02 88.96,42.06 1.2,2.06 2.38,4.13 3.59,6.19 -4.37,-2.22 -8.79,-4.38 -13.25,-6.37 5.7,11.31 12.75,21.89 18.87,32.96 -33.64,-15.83 -67.53,-31.22 -100.85,-47.74 17.97,0.44 35.96,1.46 53.93,1.28 -29.68,-14.43 -60.21,-27.3 -91.95,-36.5 -52.08,-15.81 -105.27,-27.77 -158.91,-36.78 -10.97,-12.64 -21.05,-26.29 -34.32,-36.65zm-565.9 7.52c134.5,-48.8 279.79,-61.29 421.84,-52.22 3.8,0.8 9.62,-1.21 10.5,4.62 -32.03,-2.24 -64.21,-2.12 -96.3,-1.24 -94.05,2.88 -188.19,16.6 -277.83,45.72 -117.76,37.62 -227.77,103.77 -309.61,197.17 -0.74,-10.58 -1.76,-21.11 -2.64,-31.64 -0.96,-3 1.9,-4.9 3.58,-6.8 70.36,-69.95 157.38,-121.99 250.46,-155.61zm142.27 356.03c8.28,-46.71 16.6,-93.41 25.19,-140.07 119.19,0.08 238.39,0.02 357.58,0.04 -11.58,46.66 -22.77,93.42 -34.73,139.97 -13.97,-0.04 -27.93,-0.1 -41.86,0.04 -8.02,34.13 -16.97,68.05 -24.41,102.3 39.6,-34.17 79.79,-67.71 119.03,-102.28 -7.06,-0.18 -14.1,-0.07 -21.13,-0.06 11.35,-46.67 23.03,-93.25 34.46,-139.91 151.49,-0.16 302.96,-0.02 454.45,-0.06 -8.42,46.66 -16.73,93.34 -25.17,139.97 -35.96,-0.1 -71.92,0.03 -107.87,-0.06 -69.37,56.24 -138.17,113.19 -207.6,169.35 42.94,106.07 87,211.72 130.1,317.73 32.36,-0.06 64.77,-0.58 97.15,-0.2 -13.09,48.26 -25.97,96.59 -38.98,144.87 -153.13,-0.12 -306.26,0.16 -459.37,-0.14 11.98,-47.7 23.65,-95.5 35.45,-143.25 26.55,0.22 53.09,-0.78 79.66,-0.58 -18.07,-44.22 -36.74,-88.2 -54.71,-132.46 -40.9,34.58 -81.65,69.41 -122.11,104.47 -2.92,9.32 -4.65,18.99 -7.13,28.45 20.83,0.14 41.66,0 62.49,0.08 -11.7,47.81 -23.73,95.55 -35.31,143.41 -119.62,-0.02 -239.24,0.06 -358.87,-0.04 13.01,-47.46 25.61,-95.06 38.88,-142.45 13.6,0.1 27.21,0.06 40.8,0.04 39.53,-163.07 79.09,-326.11 118.39,-489.23 -18.13,0 -36.25,-0.13 -54.38,0.07zm14.24 -12.25l0 0c18.47,0.58 36.96,-0.38 55.41,0.5 -41.44,170.92 -82.84,341.86 -124.16,512.82 -13.67,0.16 -27.37,0.18 -41.06,-0.02 -11.22,39.4 -21.65,79.02 -32.41,118.57 111.19,0.04 222.4,-0.06 333.59,0.04 9.91,-39.8 19.75,-79.65 29.48,-119.49 -20.81,0 -41.62,0 -62.41,0 4.12,-15.71 7.24,-31.7 11.78,-47.28 45.58,-39.42 91.58,-78.4 137.29,-117.66 22.75,54.81 45.58,109.59 68.15,164.46 -29.4,-0.32 -58.79,0.32 -88.18,0.5 -9.93,39.74 -19.59,79.58 -29.52,119.35 144.91,0.18 289.84,0.06 434.78,0.06 10.83,-40.26 21.65,-80.51 32.44,-120.77 -29.77,-0.6 -59.51,0.14 -89.26,0.3 -45.6,-111.03 -91.14,-222.09 -136.79,-333.1 72.44,-59.63 145.19,-118.91 217.91,-178.2 34.03,0.22 68.05,-0.04 102.08,0.14 6.91,-38.66 13.89,-77.32 20.85,-115.99 -143.58,-0.04 -287.13,-0.02 -430.68,0 -9.54,38.59 -19.07,77.17 -28.59,115.75 12.83,0.44 25.69,0 38.54,0.24 -57.31,49.56 -115.04,98.64 -172.62,147.89 11.94,-49.24 24.01,-98.43 35.71,-147.73 14.09,-0.52 28.18,-0.02 42.3,-0.28 9.23,-38.7 19.57,-77.16 28.22,-115.99 -110.63,0.2 -221.27,0.08 -331.9,0.06 -7.2,38.57 -13.84,77.25 -20.95,115.83zm-198.27 678.12c3.88,-0.13 7.76,-0.24 11.63,-0.21 16.28,8.69 33.63,15.19 50.62,22.28 8.62,3.06 16.91,7.24 25.79,9.44 19.51,0.4 39.06,0.26 58.57,-0.02 10.82,0.44 21.65,0.12 32.47,0.18 1.14,0.04 3.39,0.12 4.53,0.16l0.84 1.86c1.4,3.12 2.9,6.22 4.38,9.31 9.94,21.37 20.15,42.62 30.09,64.02 0.98,1.91 1.68,4.37 3.94,5.23 5.33,-26.88 10.63,-53.79 16.41,-80.58 68.87,0.14 137.73,-0.08 206.58,0.1 -3.94,16.29 -7.71,32.62 -11.67,48.9 -16.85,0.04 -33.69,0 -50.52,0.02 -8.93,42.3 -17.81,84.6 -26.77,126.88 -20.33,0.2 -40.64,-0.06 -60.97,0.14 8.8,-42.36 18.01,-84.64 26.59,-127.02 -11.49,0 -22.99,0 -34.48,-0.02 -9.5,42.28 -18.36,84.68 -27.73,126.98 -18.47,-0.08 -36.94,0.1 -55.42,-0.1 -12.81,-26.99 -24.82,-54.46 -38.38,-81.06 -5.92,26.96 -11.21,54.07 -17.01,81.08 -83.2,0.16 -166.4,0.02 -249.6,0.06 -5.98,-21.41 -11.64,-42.92 -17.66,-64.33 -8.09,6.18 -16.03,12.59 -24,18.91 -3.34,15.13 -6.34,30.35 -9.76,45.46 -21.39,-0.1 -42.78,0.04 -64.15,-0.08 13.47,-58.62 27.15,-117.21 40.56,-175.84 21.33,-0.08 42.64,-0.06 63.97,0 -3.38,15.45 -8.11,30.61 -10.83,46.2 15.89,-15.55 32.38,-30.49 48.17,-46.14 50.12,-0.3 100.26,0.1 150.39,-0.2 -25.38,-10.78 -52.05,-18.85 -76.58,-31.61zm-69.99 41.81l0 0c-23.15,22.03 -46.42,43.97 -69.49,66.09 4.98,-22.31 10.86,-44.45 16.14,-66.69 -14.7,0 -29.39,-0.02 -44.08,0.02 -12.1,52.29 -24.13,104.61 -36.23,156.9 14.66,-0.08 29.35,0.16 44,-0.1 3.38,-10.91 4.98,-22.69 7.6,-33.94 1,-2.86 0.34,-6.74 3.16,-8.62 12.17,-9.67 24.33,-19.37 36.64,-28.84 6.42,23.6 12.72,47.25 19.37,70.8l0.76 0.58c17.99,0.18 36.03,0.28 54.04,-0.1 -12.18,-33.28 -24.15,-66.67 -36.17,-100.01 19.37,-16.69 38.75,-33.39 58.16,-50.04 2.32,-2.04 4.91,-3.9 6.45,-6.63 -20.07,0.38 -40.44,-0.86 -60.35,0.58zm316.99 -0.6l0 0c-7.17,34.06 -13.57,68.3 -21.07,102.31 -16.83,-33.69 -32.46,-68.03 -48.41,-102.16 -59.18,-0.33 -118.35,-0.11 -177.52,-0.11 -11.44,52.27 -22.75,104.57 -34.04,156.88 58.57,0 117.16,0.02 175.73,0 7.16,-34.14 14.08,-68.35 21.43,-102.43 16.36,34.04 31.89,68.51 48.32,102.53 13.67,-0.2 27.37,-0.12 41.08,-0.04 9.34,-42.3 18.39,-84.68 27.61,-127 18.11,0 36.22,-0.02 54.33,0 -8.87,42.32 -17.85,84.62 -26.68,126.94 13.81,-0.06 27.62,0.12 41.44,-0.1 8.91,-42.32 17.43,-84.76 26.92,-126.94 16.82,0.24 33.63,0 50.46,0.12 2.28,-10.03 4.82,-20.01 7.1,-30.02 -62.23,0.04 -124.46,0 -186.7,0.02zm-309.99 60.21l0 0c8.46,22.17 16.33,44.58 24.31,66.93 2.22,-1.12 1.9,-3.98 2.6,-5.96 7.23,-34.61 15.17,-69.07 22.29,-103.71 -16.36,14.31 -33.21,28.04 -49.2,42.74zm560 -56.32c11.71,-9.07 26.27,-13.63 40.74,-15.77 17.75,-2.18 35.98,-2.28 53.53,1.54 8.4,1.68 15.96,6 22.19,11.82 0.8,-3.68 1.66,-7.34 2.54,-10.98 54.18,0.02 108.35,-0.06 162.53,0.04 -3.88,16.21 -7.78,32.42 -11.48,48.68 -16.91,0.62 -33.82,0.04 -50.73,0.32 -8.92,42.3 -17.76,84.62 -26.75,126.92 -20.33,-0.16 -40.66,0.2 -60.97,-0.2 9.01,-42.24 17.79,-84.54 26.76,-126.78 -30.8,-0.02 -61.59,0.02 -92.39,-0.02 -0.32,-3.62 1.38,-8.94 -3.18,-10.52 -8.66,-3.96 -23.93,-3.4 -26.17,8.1 1.88,3.66 6.16,4.9 9.74,6.29 18.59,5.86 38.9,7.7 55.53,18.64 9.9,6.31 16.95,17.25 17.39,29.12 0.88,19.17 -6.79,38.45 -20.11,52.2 -14.53,14.99 -34.94,22.63 -55.25,25.63l-34.53 0c-18.29,-2.68 -36.64,-11.78 -46.37,-28.07 -7,-11.25 -7.94,-25.11 -5.36,-37.86 20.35,-0.1 40.7,-0.02 61.05,-0.04 0.06,6.37 0.24,13.09 3.52,18.79 6.04,5.46 15.21,4.7 22.65,3.22 5.34,-1.34 12.37,-3.66 12.85,-10.16 1.52,-6.31 -3.66,-11.37 -8.95,-13.65 -18.12,-8.18 -39.17,-8.96 -55.98,-20.19 -9.51,-5.94 -15.59,-16.75 -15.79,-27.95 -0.2,-18.63 7.98,-37.74 22.99,-49.12zm10.27 4.5l0 0c-15.05,9.28 -23.84,26.89 -23.73,44.4 0.3,7.32 3.82,14.35 9.78,18.71 18.59,13.88 44.18,11.78 63.11,24.91 11.66,8.08 10.42,28.43 -2.62,34.5 -11.25,5.26 -25.29,6.64 -36.7,1.2 -7.58,-3.39 -9.54,-12.29 -10.6,-19.69 -14.53,0.02 -29.06,0.04 -43.58,0 -1.32,13.96 5.58,28.15 17.08,36.09 14.83,10.69 34.04,12.99 51.83,11.51 19.51,-1.5 39.72,-7.16 54.4,-20.71 12.53,-11.21 20.19,-27.71 20.63,-44.5 0.46,-9.69 -4.62,-19.23 -12.8,-24.39 -17.75,-12.13 -40.28,-11.87 -59.53,-20.33 -6.1,-2.36 -11.39,-8.37 -10.09,-15.27 1.39,-11.04 12.89,-17.99 23.4,-17.41 9.42,-0.62 21.45,2.24 24.69,12.37 13.88,0.44 27.77,0.1 41.66,0.18 -2.8,-8.41 -3.43,-18.63 -10.97,-24.47 -11.34,-8.31 -26.03,-8.71 -39.5,-9.33 -19.29,0.08 -39.62,1.96 -56.46,12.23zm117.01 -8.31l0 0c-3.88,9.29 -4.94,20.07 -7.82,29.88 16.89,0.06 33.79,-0.02 50.7,0.04 -8.92,42.3 -17.87,84.6 -26.71,126.92 13.78,0 27.55,0.02 41.34,-0.02 8.86,-42.26 17.93,-84.46 26.59,-126.76 16.91,-0.38 33.82,-0.08 50.76,-0.14 2.69,-9.89 4.71,-19.93 7.29,-29.85 -47.37,-0.31 -94.77,-0.15 -142.15,-0.07zm76.6 166.32c34.67,-58.75 69.13,-117.65 104.35,-176.04 20.99,0.36 42.01,-0.02 63.02,0.18l0.74 0.7c8.79,58.29 16.87,116.7 25.64,175 -20.91,0.46 -41.84,-0.02 -62.75,0.24 -0.62,-9.52 -0.98,-19.03 -1.28,-28.55 -17.09,-0.06 -34.18,0.12 -51.25,-0.1 -5.18,9.34 -9.98,18.89 -14.7,28.47 -21.25,0.26 -42.52,0.08 -63.77,0.1zm109.21 -166.16l0 0c-30.46,52.41 -61.75,104.35 -92.41,156.66 13.53,0.08 27.04,-0.1 40.58,0.12 5.27,-9.41 9.75,-19.25 15.07,-28.64 22.09,0.14 44.18,0.02 66.27,0.06 0.44,9.39 1.1,18.81 1.02,28.22 14.29,0.52 28.6,0.24 42.92,0.16 -7.76,-52.27 -15.09,-104.61 -22.93,-156.86 -16.83,0.22 -33.68,-0.28 -50.52,0.28zm71.51 39.22c3.9,-16.32 7.66,-32.65 11.69,-48.92 97.64,-0.08 195.27,-0.06 292.91,-0.02 -3.2,14.65 -6.34,29.31 -9.52,43.96 -28.6,-0.04 -57.19,0.1 -85.78,-0.08 -1.64,6.14 -2.98,12.35 -4.24,18.57 26.49,0 53,-0.02 79.49,0.02 -3.4,13.99 -6.44,28.11 -10.12,42.04 -26.35,-0.2 -52.69,0 -79.04,-0.1 -1.62,7.62 -2.98,15.33 -4.5,22.99 29.67,-0.02 59.33,0.12 89.02,-0.08 -2.8,16.33 -6.96,32.41 -10.24,48.64 -49.61,-0.22 -99.23,0.14 -148.85,-0.18 9.1,-42.28 18.69,-84.46 27.31,-126.84 -12.03,0.04 -24.05,0.02 -36.04,0 -9.18,42.26 -17.89,84.62 -26.83,126.92 -20.31,0.06 -40.6,0.08 -60.91,0 8.73,-42.3 17.69,-84.54 26.67,-126.78 -17.02,-0.3 -34.03,-0.02 -51.02,-0.14zm19.19 -39.44l0 0c-2.28,10.03 -4.78,20.01 -7.04,30.06 16.88,-0.18 33.75,-0.12 50.62,-0.04 -8.94,42.28 -17.73,84.62 -26.77,126.88 13.82,-0.02 27.67,0.06 41.5,-0.04 8.8,-42.32 17.75,-84.62 26.69,-126.9 18.67,0.02 37.36,-0.06 56.05,0.04 -9.11,42.3 -18.45,84.56 -27.44,126.88 43.02,0.04 86.04,0.02 129.06,0.02 2.2,-9.81 4.48,-19.61 6.27,-29.48 -29.64,-0.02 -59.27,0.04 -88.89,-0.04 2.69,-14.02 5.41,-28.03 8.33,-41.98 26.21,0.02 52.44,0.16 78.65,-0.06 3.49,-6.8 3.95,-15.38 6.17,-22.87 -26.39,-0.26 -52.81,0.42 -79.18,-0.34 3.06,-12.28 4.8,-25.15 8.6,-37.07 28.52,-0.36 57.05,0.18 85.58,-0.24 1.73,-8.25 3.53,-16.51 5.31,-24.74 -91.17,-0.22 -182.33,-0.06 -273.51,-0.08zm-113.59 102.43c14.26,-26.71 27.07,-54.24 42.08,-80.51 1.9,26.89 4.4,53.74 6.26,80.63 -16.11,-0.28 -32.22,-0.06 -48.34,-0.12zm15.78 -9.52l0 0c7.43,0.04 14.85,0.02 22.31,0.02 -0.88,-12.11 -2.08,-24.19 -2.74,-36.28 -7.88,11.15 -12.74,24.37 -19.57,36.26zm-760.65 -58.45l0 0c-1.46,6.14 -2.8,12.29 -4.02,18.49 25.73,-0.12 51.46,0.22 77.19,-0.18 1.3,-6.12 2.57,-12.21 3.83,-18.33 -25.66,0.06 -51.33,0.02 -77,0.02zm-13.69 60.59l0 0c-1.44,7.64 -2.94,15.25 -4.6,22.85 25.67,0.12 51.31,-0.2 76.98,0.16 2.08,-7.64 3.58,-15.39 5.22,-23.13 -25.87,0.06 -51.74,-0.16 -77.6,0.12z"/>
   <path class="fil3" d="M1506.72 421.51c27.27,19.31 53.55,40.78 73.92,67.51 -2.41,-9.42 -6.37,-18.38 -8.51,-27.85 22.03,18.43 43.78,37.28 64.25,57.45 -3.04,-11.83 -6.32,-23.59 -8.76,-35.56 13.32,9.42 24.85,21.05 36.73,32.16 26.1,25.47 50.27,52.9 72.58,81.75 -0.38,-8.7 -2.14,-17.24 -3.86,-25.75 32.13,34.14 59.76,73 78.89,115.92 11.11,26.43 19.73,54.9 18.13,83.87 -0.68,13.33 -6.1,28.46 -19.15,34.24 -12.42,4.54 -25.25,-0.76 -37.01,-4.68 0.94,10.54 10.62,15.97 19.2,19.99 -27.37,-2.68 -52.86,-16.67 -71.47,-36.68 -13.3,-13.79 -24.33,-29.63 -33.83,-46.22 -8.99,-16.21 -15.77,-33.54 -24.12,-50.08 -9.24,-17.57 -25.65,-31.98 -45.42,-36.08 2.24,3.44 4.57,6.86 6.89,10.26 -13.73,-7.24 -29.18,-12.3 -44.9,-10.14 -12.59,1.18 -24.38,6.9 -34.1,14.83 11.81,-2.2 23.93,-3.68 35.86,-1.38 -5.83,4.44 -11.35,9.36 -15.47,15.5 10.6,-4.94 22.63,-6.64 34.08,-3.94 20.4,4.08 36.19,21.97 40.49,41.9 -2.12,1.48 -4.1,3.14 -6.04,4.8 -16.97,9.81 -18.25,34.62 -8.86,50.23 -36.2,-21.01 -76.26,-35.84 -117.92,-40.96 -29.29,-3.98 -59.65,-3.2 -87.88,6.26 -28.91,9.26 -57.01,25.91 -73.45,52.14 -7.37,11.27 -10.47,24.56 -12.51,37.72 -35.38,-42.46 -81.84,-73.73 -129.42,-100.97 20.47,-18.38 41.02,-36.65 61.49,-55.02 36.62,22.95 72.17,47.8 105.01,75.93 7.18,-1.34 14.29,-3.04 21.41,-4.8 -37.58,-28.91 -77.56,-54.58 -118.8,-77.91 20.35,-18.29 40.88,-36.38 61.11,-54.77 45.58,-1.58 91.24,-0.26 136.84,-0.72 11.63,-62.97 22.88,-126 34.6,-188.95zm-607.24 -54.06c60.59,6.68 121.33,15.66 179.88,32.97 -78.51,1.04 -157.07,0.5 -235.55,0.82 18.37,-11.56 37.02,-22.67 55.67,-33.79zm-14.69 -59.51c4.56,-0.2 9.15,-0.18 13.73,0.38 82.88,10.58 165.66,24.69 245.51,49.78 37.44,11.85 74.76,24.65 110.33,41.38 -7.56,0.92 -15.22,0.78 -22.77,0.44 -109.39,-49.96 -227.96,-76.83 -346.8,-91.98zm149.29 -58.85c5.62,0.94 11.25,1.74 16.89,2.6 53.64,9.01 106.83,20.97 158.91,36.78 31.74,9.2 62.27,22.07 91.95,36.5 -17.97,0.18 -35.96,-0.84 -53.93,-1.28 33.32,16.52 67.21,31.91 100.85,47.74 -6.12,-11.07 -13.17,-21.65 -18.87,-32.96 4.46,1.99 8.88,4.15 13.25,6.37 -1.21,-2.06 -2.39,-4.13 -3.59,-6.19 -5.02,-8.36 -10.42,-16.52 -15.22,-25.01 7.84,4.08 15.7,8.15 23.51,12.27 42.96,22.85 85.54,46.54 126.2,73.33 -37.72,1.04 -75.5,-0.44 -113.22,0.86 -21.25,-0.2 -42.56,0.28 -63.75,-0.22 -16.96,-9.56 -35.27,-16.37 -53.14,-23.97 -48.16,-19.57 -97.47,-36.14 -147.37,-50.64 -102.93,-29.3 -208.6,-52.05 -315.91,-55.07 95.99,-3.68 192.17,3.18 287.3,16.01 -7.73,-9.49 -15.53,-18.95 -24.05,-27.77 -3.18,-3.2 -6.47,-6.29 -9.81,-9.35zm630.17 339.98l0 0c18.77,9.65 37.46,21.27 50.75,38.1 -19.23,-15.15 -40.24,-30.32 -65.07,-33.98 9.84,5.66 20.61,9.87 29.53,17.13 30.36,23.01 52.51,54.73 72.9,86.46 8.92,13.45 18,27.55 31.63,36.7 5.06,3.34 10.45,6.8 16.69,7.16 -11.11,-5.88 -17.21,-17.57 -22.51,-28.45 10.24,10.48 21.41,21.65 36.43,24.45 -14.02,-6.76 -20.3,-21.83 -27.45,-34.64 -21.61,-38.9 -48.9,-76.73 -87.92,-99.68 -10.92,-5.99 -22.35,-12.37 -34.98,-13.25zm-144.92 42.6l0 0c-10.33,11.2 -15.01,27.15 -13.33,42.16 0.36,8.7 1.36,17.63 5.46,25.47 -2.02,-20.51 8.19,-40.54 23.23,-53.98 18.35,-14.89 42.48,-20.77 65.7,-21.31 25.13,0.34 51.14,6.32 71.55,21.59 5.46,3.78 9.18,9.58 14.77,13.18 -5.81,-11.5 -13.93,-21.79 -23.62,-30.25 -18.87,-18.93 -46.48,-26.01 -72.51,-26.59 -26.55,-1 -53.34,10.08 -71.25,29.73z"/>
  </g>
 </g>
</svg>
