<?xml version="1.0" encoding="UTF-8"?>
<!DOCTYPE svg PUBLIC "-//W3C//DTD SVG 1.1//EN" "http://www.w3.org/Graphics/SVG/1.1/DTD/svg11.dtd">
<!-- Creator: CorelDRAW -->
<svg xmlns="http://www.w3.org/2000/svg" xml:space="preserve" width="2000px" height="1600px" version="1.1" style="shape-rendering:geometricPrecision; text-rendering:geometricPrecision; image-rendering:optimizeQuality; fill-rule:evenodd; clip-rule:evenodd"
viewBox="0 0 2000 1600"
 xmlns:xlink="http://www.w3.org/1999/xlink">
 <defs>
  <style type="text/css">
   <![CDATA[
    .fil1 {fill:#044674;fill-rule:nonzero}
    .fil0 {fill:#FBCE06;fill-rule:nonzero}
    .fil2 {fill:#FBFDFB;fill-rule:nonzero}
   ]]>
  </style>
 </defs>
 <g id="Capa_x0020_1">
  <metadata id="CorelCorpID_0Corel-Layer"/>
  <g id="La_x0020_Salle_x0020_Explorers.cdr">
   <path class="fil0" d="M1475.74 77.55l52.09 0c34.16,1.79 69.1,11.19 96.24,32.85 11.45,10.06 27.03,11.92 40.71,17.48 53.45,20.67 100.49,59.23 128.69,109.38 23.05,40.82 30.29,91.63 14.09,136.18 -8.2,23.08 -23.45,42.91 -40.94,59.77 29.56,50.12 45.36,109.49 37.02,167.65 -9.07,73.53 -52.49,137.94 -105.42,187.69 89.91,22.43 179.82,45.14 268.05,73.6 3.3,69.47 6.08,139 9.11,208.5 -20.77,-6.51 -41.59,-12.87 -62.26,-19.68 0.22,6.95 0.52,13.87 0.81,20.82 26.01,8.67 52.42,16.09 78.32,25.13 -3.48,57.61 -7.25,115.37 -3.37,173.06 2.53,36.69 5.27,73.45 10.35,109.92 4.06,32.52 -8.04,67.93 -34.82,87.83 -29.67,23.08 -70.82,24.14 -105.53,13.42 -173.06,-62.18 -355.52,-94.26 -538.17,-111.75 -81.9,-12.91 -165.15,-13.75 -247.75,-18.91 -0.95,-1.76 -2.82,-5.27 -3.77,-7.02 -55.12,18.36 -118.52,16.53 -169.95,-11.93 -2.89,6.84 -5.85,13.65 -8.67,20.52 -114.93,5.49 -229.76,15.07 -343.45,32.96 -169.4,25.86 -336.53,66.61 -499.09,120.75 -15.47,5.31 -31.61,8.96 -46.2,16.68l-1.83 0 0 -137.9c10.39,-1.43 20.37,-4.5 30.25,-7.87 -0.07,-11.85 -0.07,-23.7 -0.11,-35.52 -9.4,2.6 -18.8,5.23 -28.2,7.83 -0.18,-59.4 0.07,-118.81 -0.15,-178.22 14.6,-4.5 29.23,-8.78 43.93,-12.91 0.19,-54.06 -0.14,-108.13 0.15,-162.19 -14.67,4.82 -29.23,9.98 -43.79,15.14 -0.25,-47.41 -0.54,-94.85 0.15,-142.26 99.97,-27.07 198.48,-59.26 298.38,-86.55 -17.12,-19.31 -35.08,-38.08 -49.45,-59.59 -24.29,-35.29 -41.96,-75.61 -47.96,-118.22 -21.8,1.43 -43.49,3.95 -65.26,5.92 -8.74,-36.06 -20.34,-71.44 -27.51,-107.87 -11.04,-58.49 15.59,-114.16 27.8,-170.17 57.33,5.31 114.54,11.49 171.89,16.35 61.24,-56.77 135.64,-97.52 212.64,-128.76 103.05,-41.37 212.38,-65.73 322.6,-77.84 132.49,-14.23 266.92,-10.61 398.35,11.41 14.82,3.55 23.93,-11.81 35.85,-17.67 59.44,-34.89 127.88,-52.2 196.18,-58.01z"/>
   <path class="fil1" d="M1378.88 109.41c55.49,-15.87 114.09,-21.73 171.52,-14.89 26.01,4.61 52.34,14.34 71.7,32.96 2.59,2.45 5.7,4.06 9.29,4.76 61.52,15.65 117.56,55.63 149.02,111.27 19.1,33.65 26.67,74.48 17.27,112.34 -7.28,29.55 -25.97,55.56 -50.04,73.85 34.56,53.08 51.76,118.56 39.61,181.44 -13.57,74.29 -62.62,136.3 -118.84,184.14 94.92,24.69 190.5,47.34 283.89,77.55 2.85,59.22 5.31,118.48 7.79,177.71 -20.63,-6.11 -40.97,-12.99 -61.63,-18.88 -0.26,16.79 0.98,33.58 1.09,50.41 24,7.83 48.03,15.43 72.1,22.9 8.27,0.47 4.46,9.98 4.98,15.07 -7.03,86.47 -3.59,173.53 8.12,259.46 3.91,27.98 -5.75,58.71 -28.64,76.23 -26.38,21 -63.51,20.92 -94.38,11.19 -162.52,-58.6 -333.65,-90.17 -505.06,-108.46 -21.65,-2.67 -43.71,-2.89 -64.82,-8.81 -68.66,-5.71 -137.54,-9.88 -206.42,-12.91 0.08,-5.34 0.18,-10.65 0.29,-15.95 -39.28,19.9 -84.9,23.66 -127.91,16.9 -23.67,-3.88 -46.06,-13.76 -65.48,-27.73 -3.84,9.55 -7.87,19.06 -11.93,28.57 -279.61,10.86 -557.58,61.42 -823.3,149.06 -14.48,4.54 -28.79,9.55 -43.27,13.97 -0.48,-34.71 -0.04,-69.42 -0.3,-104.14 10.21,-3.77 20.52,-7.2 30.95,-10.24 0.4,-21.77 0.11,-43.49 0.22,-65.26 -9.36,2.67 -18.77,5.34 -28.39,7.02 0.33,-49.23 -0.29,-98.47 0.3,-147.67 14.3,-4.31 28.71,-8.15 42.76,-13.28 2.01,-64.3 0.51,-128.68 0.77,-192.99 -14.6,4.94 -29.05,10.35 -43.64,15.4 -0.3,-36.87 0.03,-73.75 -0.19,-110.62 42.11,-13.35 85.13,-23.63 127.16,-37.16 61.74,-19.17 124.15,-35.85 186.08,-54.33 -58.35,-51.72 -107.4,-120.56 -113.91,-200.41 -22.17,2.04 -44.37,4.27 -66.54,6.54 -9.92,-44 -28.86,-87.06 -26.48,-132.97 3.07,-38.73 18.1,-75.09 25.93,-112.92 54.28,2.64 108.31,10.17 162.56,14.01 5.05,1.25 8.19,-3.65 11.67,-6.25 56.59,-52.02 124.85,-89.55 195.26,-119.36 151.77,-62.74 316.89,-87.76 480.44,-89.18 83.26,0.32 166.62,6.29 248.67,20.7 7.17,2.63 12.91,-2.52 18.44,-6.25 33.76,-24.95 73.23,-41.01 113.29,-52.79z"/>
   <path class="fil0" d="M1054.23 765.4c55.23,2.45 110.43,5.26 165.67,7.35 -0.07,5.34 -0.11,10.68 -0.15,16.02 -11.67,0.51 -24.98,-1.97 -34.82,5.93 -9.66,7.83 -10.46,21.43 -11.08,32.88 -1.39,32.92 -0.33,65.88 -0.63,98.84 0.48,34.2 -1.53,68.59 2.2,102.68 1.61,17.34 14.01,32.96 31.16,37.09 24.66,6.18 51.33,8.09 76.02,1.17 22.71,-6.65 35.19,-29.33 41,-50.73 1.14,-11.78 14.38,-4.47 21.84,-5.02 -0.77,30.15 -2.41,60.25 -3.29,90.43 -71.59,-8.19 -143.43,-14.96 -215.42,-18.69 -37.9,0.25 -75.79,-0.4 -113.69,-1.83 -37.93,-2.56 -75.9,0.69 -113.84,2.27 -0.07,-5.27 -0.14,-10.54 -0.18,-15.81 14.3,-2.74 37.64,-1.97 40.2,-20.77 -0.91,-21.73 -12.87,-41.08 -19.09,-61.53 -36.51,-0.48 -72.98,2.12 -109.41,4.17 -7.35,20.78 -19.94,41.56 -16.54,64.42 5.12,16.53 25.5,15.25 39.4,16.53 0.26,5.31 0.33,10.61 0.55,15.95 -38.96,-0.11 -77.73,3.26 -116.36,8.01 0.11,-5.05 0.25,-10.09 0.36,-15.11 25.83,-3.8 42.55,-26.15 52.35,-48.54 35.3,-84.57 68.84,-169.98 105.24,-254.12 13.57,6.22 30.25,8.49 41.48,18.33 25.79,61.05 50.3,122.69 75.5,184 9.59,22.97 17.71,46.78 30.62,68.18 8.27,14.16 25.9,18 40.97,19.53 10.64,-0.51 23.48,-2.81 29.41,-12.84 6.25,-11.04 6,-24.29 6.51,-36.61 0.04,-62.26 0.07,-124.52 -0.04,-186.74 -0.76,-13.61 -0.22,-29.27 -10.31,-39.76 -9.15,-9 -22.97,-9.3 -35.01,-9.77 -0.22,-5.31 -0.44,-10.61 -0.62,-15.91zm-331.34 -569.08c139.52,-31.05 284.15,-37.45 426.19,-22.79 10.24,0.96 20.45,2.49 30.51,4.58 -10.43,1.9 -20.85,3.62 -31.09,6.33 -15.4,4.97 -31.54,0.62 -47.23,0.21 -160.73,-10.02 -324.39,5.53 -477.69,56.19 -91.16,31.42 -181.37,75.5 -247.69,147.24 -5.67,-0.37 -11.34,-0.74 -17.01,-0.99 -1.39,-2.56 -2.74,-5.16 -3.98,-7.76 30.43,-30.43 64.3,-57.46 101.21,-79.67 81.83,-50.11 173.57,-81.97 266.78,-103.34zm969.4 261c5.05,-1.83 10.17,-3.47 15.33,-5.08 23.45,46.56 32.01,101.21 18.62,152.06 -17.34,68.73 -65.81,124.77 -120.61,167.53 -4.2,2.78 -8.34,8.12 -14.04,5.86 -23.3,-4.69 -46.28,-10.94 -69.8,-14.67 62.85,-33.84 125.4,-75.83 161.47,-139.3 29.22,-50.04 32.08,-113.43 9.03,-166.4zm-1412.31 124.48c13.57,-1.72 27.18,-3.03 40.86,-3.95 12.66,47.19 43.46,87.46 80.11,118.85 9.04,8.27 20.52,14.45 26.27,25.71 7.53,13.14 17.81,24.29 27.83,35.56 -17.3,4.13 -34.53,8.67 -51.87,12.55 -59.62,-47.26 -112.41,-111.13 -123.2,-188.72zm416.94 195.89c6.62,-0.63 13.24,-1.25 19.86,-1.83 0.62,28.35 1.87,56.66 2.63,85.01 -6.4,0.77 -12.84,1.46 -19.24,2.16 -6.62,-23.16 -20.55,-46.13 -43.67,-55.64 -26.38,-10.79 -61.38,-4.65 -77.92,19.94 -12.87,18.83 -6.73,48.39 14.89,57.86 38.81,17.75 84.94,20.89 118.19,49.97 33.1,29.56 32.92,83.73 9.04,118.96 -22.06,32.56 -60.76,50.22 -98.84,55.13 -29.19,4.53 -60.07,-2.38 -83.63,-20.45 -2.37,9.22 -4.79,18.4 -7.24,27.62 -6.44,0.98 -12.87,2.08 -19.35,3.07 -0.58,-30.36 -0.25,-60.72 -0.36,-91.08 -2.6,-11.34 11.3,-8.53 17.99,-10.91 8.49,25.24 20.56,52.75 45.76,65.19 29.49,13.68 69.03,7.13 89.7,-18.87 17.15,-20.97 13.53,-57.14 -10.65,-71.3 -30.25,-18.77 -67.96,-18.62 -98.76,-36.36 -16.28,-8.74 -30.36,-23.01 -35.52,-41.08 -10.24,-34.09 -0.04,-73.53 25.35,-98.44 21.03,-21.29 50.55,-32.66 80.04,-35.08 22.67,-2.48 46.49,2.09 65.11,15.73 2.16,-6.54 4.39,-13.09 6.62,-19.6zm659.46 8.37c54.54,8.75 109.23,16.36 163.95,23.93 0.18,5.3 0.37,10.64 0.55,15.94 -11.41,-1.17 -24.07,-3.62 -34.53,2.53 -10.94,8.12 -10.68,23.26 -11.34,35.55 -0.08,58.53 0.03,117.02 -0.04,175.51 0.51,17.53 1.61,37.21 14.38,50.59 13.97,14.56 34.89,18.08 53.92,21.04 19.82,2.67 42.61,3.95 59.15,-9.44 12.47,-11.12 18.65,-27.54 22.53,-43.42 6.69,0.99 13.35,1.98 20.08,3.07 -0.66,30.07 -2.82,60.1 -2.67,90.17 -94.49,-19.27 -189.04,-40.09 -285.43,-47.44 -0.33,-5.31 -0.66,-10.61 -0.95,-15.88 11.41,0.37 24.36,2.97 34.49,-3.87 10.61,-7.65 10.57,-22.21 11.49,-33.91 0.14,-64.57 -0.04,-129.13 0.07,-193.66 -0.51,-14.23 -0.07,-30.69 -10.68,-41.63 -8.78,-9.8 -22.75,-11.04 -34.9,-13.38 -0.03,-5.23 -0.07,-10.47 -0.07,-15.7zm299.95 51.32c84.8,22.28 170.28,42.15 253.94,68.48 0.88,28.1 2.45,56.19 3.55,84.28 -6.26,-1.97 -12.44,-3.95 -18.66,-5.89 -4.68,-26.63 -16.68,-53.59 -40.27,-68.51 -24.07,-15.33 -52.86,-23.81 -81.35,-24.4 -0.85,39.62 -0.41,79.27 -0.15,118.92 16.2,3 33.91,9.33 49.78,1.57 12.59,-6.95 14.2,-22.64 16.35,-35.4 5.6,1.57 11.24,3.18 16.83,4.79 -1.17,41.55 -1.53,83.14 0,124.7 -5.7,-1.58 -11.41,-3.15 -17.12,-4.72 -4.17,-16.79 -7.31,-35.23 -19.71,-48.18 -12.11,-12.8 -29.67,-17.81 -46.2,-21.98 -0.33,27.29 -0.22,54.58 -0.15,81.86 0.29,16.57 3.95,34.79 16.83,46.39 15.91,13.86 37.2,18.84 57.32,23.23 14.99,2.52 32.52,3.98 45.25,-6.11 13.06,-10.54 17.52,-27.55 21.83,-43.02 5.93,1.72 11.93,3.33 17.89,5.16 -1.42,30.54 -2.71,61.12 -0.07,91.67 -80.51,-25.79 -161.14,-51.91 -244.1,-68.66 -10.83,-2.16 -21.65,-4.21 -32.26,-7.14 0.14,-3.69 0.47,-11.12 0.62,-14.81 12.25,1.75 28.09,6.14 37.49,-4.65 6.88,-9.47 6.26,-21.95 6.95,-33.1 0.19,-62.22 0.04,-124.45 0.08,-186.67 -0.44,-15.25 -0.15,-32.19 -9.81,-44.92 -8.55,-10.53 -22.35,-13.68 -34.75,-17.27 -0.07,-5.19 -0.11,-10.42 -0.11,-15.62zm-1278.13 -16.2c5.3,-1.35 10.61,-2.67 15.91,-4.02 27.58,60.72 52.86,122.47 80.26,183.3 4.57,11.74 13.9,20.7 26.92,21.76 -0.22,4.1 -0.4,8.2 -0.62,12.29 -36.84,3.95 -73.05,11.6 -109.08,19.87 -0.04,-2.75 -0.11,-8.31 -0.15,-11.05 11.3,-3.92 28.28,-7.02 29.37,-21.73 -1.57,-14.92 -9.51,-28.17 -14.41,-42.14 -26.63,5.01 -53.26,10.39 -79.56,17.01 -4.65,15.36 -12.69,30.4 -12.03,46.79 2.3,14.04 19.02,10.9 29.22,10.39 -1.86,33.57 -1.53,67.27 -4.42,100.81 -94.64,20.01 -188.79,43.38 -280.06,75.61 -0.07,-4.98 -0.14,-9.95 -0.22,-14.89 12.99,-5.19 27.29,-10.02 35.78,-21.91 9.22,-12.8 8.01,-29.34 9.03,-44.3 0.44,-57.28 0.04,-114.53 0.19,-171.81 -0.99,-15.44 1.38,-32.38 -6.22,-46.46 -9.44,-11.63 -26.3,-5.27 -38.56,-2.63 0,-5.09 0.04,-10.17 0.07,-15.22 53.74,-15.33 107.11,-31.79 160.81,-47.26 -0.22,5.23 -0.48,10.5 -0.73,15.76 -12.26,3.77 -25.64,7.69 -34.09,18 -9.37,11.6 -10.17,27.25 -10.14,41.52 0.41,60.98 -0.29,121.96 0.26,182.93 0.77,12.81 2.38,28.94 14.89,35.89 16.42,7.46 34.71,1.03 51.1,-3.07 20.7,-5.97 41.59,-14.85 56.11,-31.35 13.98,-15.84 20.41,-36.4 26.27,-56.26 -21.7,2.3 -42.33,9.62 -63.43,14.7 0,-2.48 0.03,-7.53 0.03,-10.06 19.65,-7.6 32.12,-25.86 39.11,-44.99 25.82,-69.24 52.42,-138.27 78.39,-207.48zm-10.9 67.34l0 0c-11.42,29.74 -22.87,59.52 -33.25,89.7 21.58,-4.98 43.31,-9.48 65.04,-13.76 -9.51,-25.71 -19.47,-51.43 -31.79,-75.94zm498.32 -37.05l0 0c-15.76,38.22 -31.13,76.63 -46.63,115.01 30.8,0.25 61.41,-3.63 92.18,-3.77 -11.23,-28.09 -21.91,-56.41 -33.18,-84.47 -3.7,-9.1 -6.22,-18.91 -12.37,-26.77z"/>
   <path class="fil2" d="M1558.01 1161.23c39.69,5.01 79.63,9.95 118.41,20.15 23.88,6.88 49.38,17.01 63.54,38.7 8.99,15.44 12.47,36.22 3.07,52.24 -7.28,12 -21.88,15.77 -34.83,17.74 19.79,23.19 31.06,52.24 51.03,75.24 9.22,11.16 22.79,16.94 35.96,22.03 -0.07,4.75 -0.11,9.51 -0.11,14.3 -29.23,-8.82 -62.62,-11.63 -85.41,-34.13 -21.11,-22.53 -33.62,-51.36 -52.13,-75.87 -3.8,-6.62 -12.33,-6.11 -18.69,-8.23 0.51,17.12 -1.76,34.5 1.57,51.4 3.51,12.98 18.55,15.22 29.45,18.84 0,3.58 0,10.75 0,14.3 -36.91,-8.05 -73.89,-16.02 -111.09,-22.57 -0.3,-5.01 -0.52,-9.99 -0.66,-14.96 7.94,0.62 16.68,3.8 24.32,-0.11 7.39,-5.38 5.6,-15.69 6.07,-23.63 -0.62,-36.58 0.92,-73.23 -0.69,-109.74 -1.35,-14.85 -17.81,-17.82 -29.23,-21.73 -0.14,-3.48 -0.44,-10.5 -0.58,-13.97zm253.13 83.4c5.96,-11.96 19.86,-17.52 32.66,-17.38 21.4,0.3 41.38,9.37 60,19.13 7.86,4.47 17.3,2.93 25.82,5.42 1.17,18.36 2.93,36.69 4.79,54.98 -3.62,-1.1 -10.86,-3.26 -14.48,-4.35 -7.02,-23.67 -23.96,-45.77 -48.03,-53.6 -8.42,-2.85 -21.11,-3.47 -24.69,6.7 -2.27,9.77 5.52,18.07 11.63,24.73 23.96,23.52 53.11,42.47 71.7,71.07 11.37,17.49 16.86,41.08 7.71,60.65 -6.25,13.53 -22.09,18.62 -35.99,18.84 -23.81,-0.11 -45.69,-10.68 -66.5,-21.14 -7.46,-4.83 -16.32,-0.81 -24.36,-3.37 -2.27,-20.74 -5.46,-41.33 -7.65,-62.08 5.67,2.6 15.07,2.13 16.24,10.1 7.79,24.91 26.38,48.51 52.79,54.62 8.37,2.52 19.64,-0.04 23.48,-8.67 5.2,-10.17 -0.47,-21.59 -6.66,-29.85 -21.69,-27.07 -54.17,-43.68 -73.19,-73.13 -9.92,-15.29 -14.31,-35.95 -5.27,-52.67zm-1748.95 12.62c53.95,-17.74 108.67,-33.22 163.51,-47.96 0.76,14.71 1.57,29.41 2.52,44.08 -4.61,1.46 -9.25,2.93 -13.86,4.39 -2.38,-8.45 -3.88,-24.95 -16.68,-21.18 -20.49,4.83 -40.64,10.9 -60.69,17.27 0.44,20.81 0.18,41.62 0.22,62.44 16.83,-5.45 34.53,-8.56 50.7,-15.88 9.88,-3.95 10.28,-15.58 12.18,-24.47 4.65,-1.02 9.37,-1.94 14.05,-2.71 -0.15,20.53 -0.22,41.05 0.07,61.6 -4.64,1.32 -9.25,2.67 -13.9,4.03 -1.9,-6.33 -1.79,-16.72 -10.79,-16.68 -17.92,2.01 -34.86,8.92 -52.2,13.61 -0.04,20.11 -0.51,40.27 0.44,60.39 12.98,-0.33 25.13,-5.23 37.57,-8.45 12.47,-3.66 26.44,-6.33 35.62,-16.39 7.14,-7.39 9.41,-17.74 12.51,-27.18 4.72,-1.39 9.41,-2.78 14.13,-4.2 -0.99,17.04 -2.68,34.05 -3.74,51.13 -59.51,15.62 -118.63,32.89 -177.22,51.73 0.03,-4.87 0.1,-9.73 0.18,-14.6 12.36,-4.64 28.71,-10.42 29.74,-25.93 2.81,-33.07 0.44,-66.39 1.31,-99.57 -0.62,-10.39 1.18,-22.13 -4.75,-31.28 -7.72,-5.16 -16.53,0.22 -24.58,1.61 1.35,-5.05 -3.33,-14.23 3.66,-15.8zm330.79 -86.51c27.76,-5.75 55.63,-11.12 83.62,-15.73 -0.19,4.83 -0.37,9.66 -0.55,14.48 -17.08,2.75 -30.03,15 -40.97,27.51 -15.47,17.78 -31.35,35.23 -46.24,53.52 19.28,19.86 37.79,40.53 57.32,60.13 9.66,10.32 23.89,14.31 37.68,12.7 -0.04,3.51 -0.11,10.46 -0.15,13.97 -37.86,6.77 -75.61,14.12 -113.36,21.51 0,-4.72 0.04,-9.44 0.04,-14.12 7.02,-3.26 19.42,-2.49 19.75,-12.73 -9.91,-15.51 -24.21,-27.69 -36.91,-40.86 -14.77,18.99 -31.78,36.4 -45.02,56.55 -4.5,12.08 13.02,7.14 19.24,6.44 -0.04,4.79 -0.08,9.62 -0.11,14.45 -27,5.71 -53.56,13.35 -80.59,18.77 0,-4.58 0,-9.15 -0.04,-13.72 12.29,-4.79 23.63,-11.96 32.38,-21.95 21.51,-23.56 40.89,-48.94 62.33,-72.57 -16.83,-19.61 -35.23,-37.86 -54.1,-55.42 -9.92,-9.62 -24.29,-9 -36.8,-6.11 0,-3.62 0,-10.86 0,-14.49 38.88,-9.91 78.02,-18.98 117.31,-27.18 -0.07,3.63 -0.15,10.87 -0.22,14.49 -7.46,3.29 -19.86,3.22 -21.36,13.35 8.67,12.18 19.93,22.24 29.59,33.58 12.51,-14.67 26.92,-28.35 36.18,-45.36 3.4,-10.82 -12.37,-7.31 -18.22,-6.91 -0.29,-4.79 -0.55,-9.55 -0.8,-14.3zm293.77 -44.67c36.51,-4.28 73.2,-6.84 109.89,-9.65 -0.08,4.79 -0.15,9.62 -0.22,14.41 -9.59,1.97 -22.76,1.46 -27.59,11.92 -3.69,10.25 -2.15,21.4 -2.48,32.08 0.55,33 -0.88,66.07 0.65,99.03 1.29,9.8 12.44,8.01 19.58,7.93 13.27,-1.24 27.1,-0.29 39.94,-4.39 14.49,-7.17 23.01,-21.76 32.3,-34.34 5.3,-0.48 10.57,-0.96 15.88,-1.43 -7.9,18.58 -15.26,37.35 -23.56,55.78 -54.83,2.12 -109.56,6.73 -164.17,12.18 -0.04,-3.54 -0.15,-10.6 -0.22,-14.15 10.94,-2.16 26.15,-4.61 27.62,-18.4 1.75,-37.57 0.14,-75.32 0.76,-112.96 -0.62,-7.21 1.07,-17.08 -6.47,-21.14 -6.62,-3.92 -14.6,-2.56 -21.84,-3 -0.03,-3.48 -0.07,-10.39 -0.07,-13.87zm563.37 -656.39c40.89,-10.09 83.25,-12.76 125.24,-13.64 62.48,-1.1 125.47,9.44 183.38,33.14 -105.97,41.19 -209.6,88.56 -309.65,142.63 -54.1,30.8 -110.25,61.6 -151.77,109.08 28.24,-43.17 66.54,-78.83 107.87,-109.34 17.16,-13.75 37.32,-23.16 54.58,-36.65 -3.29,-0.48 -9.84,-1.43 -13.09,-1.9 13.42,-39.62 9.25,-82.64 3.44,-123.32zm74.66 -304.59c69.35,-31.32 147.56,-45.62 223.24,-34.83 -36.54,7.76 -74.66,19.46 -100.41,48.18 55.6,-23.05 118.81,-26.89 176.86,-10.9 48.07,13.97 91.56,45.17 118.12,87.9 16.57,26.37 24.29,59.07 17.37,89.84 -6.4,27.98 -26.92,51.14 -51.61,64.93 -40.86,22.57 -93.53,22.42 -134.14,-0.66 -38.88,-20.52 -62.26,-67.93 -50.15,-110.95 5.01,-17.7 16.68,-32.37 29.45,-45.18 -21.73,11.89 -38.34,31.35 -51.87,51.77 -34.68,-25.21 -76.2,-41.92 -119.25,-43.9 31.53,15.25 62.26,33.62 87.02,58.67 13.02,13.68 25.94,32.3 20.49,52.13 -7.54,23.45 -25.1,41.63 -41.16,59.63 -60.98,-3.3 -122.5,-0.15 -182.38,12.32 -19.83,4.5 -39.88,8.71 -58.64,16.87 11.3,36.94 23.08,74.84 21.73,113.94 -0.77,13.9 -3.7,30.51 -17.12,37.83 -77.7,47.44 -144.93,113.06 -190.66,192.08 -49.63,-26.01 -102.57,-44.74 -155.02,-64.17 -47.23,-18.76 -97.08,-29.48 -146.58,-40.16 -4.06,-13.75 -8.85,-27.47 -17.59,-38.99 -1.28,54.72 -43.46,106.59 -98.62,113.54 -14.74,-3.58 -22.53,-18.44 -29.27,-30.76 -8.99,8.85 -17.26,18.43 -25.35,28.13 -35.29,-9.84 -68.4,-30.47 -89.07,-61.2 -15.65,-22.9 -23.12,-52.38 -15.73,-79.6 7.65,-28.5 24.37,-53.81 43.86,-75.57 11.82,37.34 53.3,50.04 87.36,58.6 21.91,-33.11 65.62,-36.33 101.58,-33.51 -38.34,-18.95 -82.09,-3.8 -117.06,15.36 -25.24,-12.73 -40.6,-39.9 -50.81,-65.47 -3.98,-8.89 7.32,-14.31 11.16,-20.74 -64.78,4.42 -129.64,7.86 -194.46,11.23 -11.41,-24.4 -14.92,-51.55 -13.24,-78.25 -13.57,31.9 -13.61,68 -4.02,100.96 -44.63,3.92 -89.19,8.93 -133.81,12.73 -7.54,-28.82 -18.77,-57.43 -17.82,-87.72 0,-29.04 10.65,-56.48 18.15,-84.17 47.22,4.43 94.37,9.44 141.67,13.46 1.24,7.21 3.04,14.34 6.07,21.07 59.7,3.48 119.36,7.43 179.02,11.2 9.51,-28.28 26.09,-53.45 43.2,-77.66 54.8,23.41 113.69,36.18 172.92,41.59 14.15,29.85 17.85,64.23 11.78,96.57 -2.57,6.91 -3.04,19.17 -13.03,18.95 -39.1,3.8 -78.28,7.09 -117.42,10.57 -12.91,0 -20.23,12.4 -26.55,21.84 7.39,-3.66 15.29,-6.07 23.59,-6.04 32.89,-1.64 65.66,-4.97 98.55,-6.03 10.24,11.45 6.73,28.31 0.95,41 10.71,-6.98 19.09,-16.64 28.2,-25.42 58.13,-5.41 116.47,-9.22 174.67,-14.38 0.07,10.65 0.07,21.26 0.11,31.9 20.81,12.73 39.65,28.35 55.93,46.57 5.89,-9.04 10.35,-20.12 20.59,-25.13 13.35,-7.57 29.45,0.14 43.31,-5.23 16.39,-11.16 28.83,-27.47 38.52,-44.59 -12.98,11.08 -27.14,21.14 -43.46,26.7 -11.88,-5.49 -23.95,-12.47 -37.42,-12.44 -16.16,1.54 -30.39,11.2 -40.53,23.49 -5.78,-4.5 -11.88,-8.64 -16.97,-13.94 -0.36,-5.52 3.29,-10.21 5.34,-15.07 13.9,-26.23 23.81,-54.51 29.08,-83.73 -1.97,-1.58 -5.96,-4.68 -7.94,-6.22 0.48,-4.28 0.92,-8.6 1.36,-12.88 -49.46,-17.23 -102.28,-20.85 -153.38,-31.02 -15.36,-3.73 -34.42,-2.37 -44.48,-16.9 12.33,1.06 24.69,3.37 37.05,1.47 68.15,-7.8 135.31,-26.23 198.12,-53.52 10.5,-22.75 12.47,-48.25 14.78,-72.87 68.73,-16.79 132.27,-54.5 204.04,-58.63 -34.31,27.14 -67.86,55.41 -104.58,79.3 77.07,-38.26 149.79,-84.65 226.36,-123.89zm51.39 12.4l0 0c-49.53,14.48 -98.11,32.99 -143.47,57.72 -30.18,16.06 -60.68,31.57 -91.45,46.49 46.5,-15.84 93.98,-29.15 142.41,-37.75 75.13,-12.91 153.52,8.96 215.78,51.65 18.84,-25.93 43.97,-54.58 78.87,-54.21 -16.53,14.74 -36.1,27.91 -44.23,49.6 -14.08,29.38 -4.94,66.91 20.42,87.06 35.73,29.08 91.41,26.49 126.31,-2.74 19.86,-15.95 30.61,-42.14 27.25,-67.49 -4.87,-40.93 -35.05,-74.26 -69.17,-94.85 -42.4,-26.08 -94.67,-28.57 -142.78,-21.73 -27.87,4.46 -56.29,10.39 -80.87,24.98 9.29,-21.32 24.72,-39.03 41.52,-54.79 -27.4,2.08 -54.29,8.37 -80.59,16.06zm-302.04 223.97l0 0c-36.65,19.02 -71.44,44.08 -112.89,51.51 3.84,8.3 13.47,10.13 21,13.64 5.27,5.27 11.56,10.17 19.5,9.7 17.59,-0.22 34.09,-9.37 47.3,-20.45 -8.67,0.66 -17.31,1.61 -26.01,1.42 17.41,-13.31 38.19,-22.31 54.79,-37.12 14.75,-15.15 37.24,-11.09 56.34,-12.99 -13.46,-3.22 -26.63,-7.43 -40.06,-10.61 -7.09,-2.3 -13.75,2.23 -19.97,4.9zm-561.5 31.35l0 0c30.25,18.48 15.36,61.31 37.79,84.76 -4.98,-16.9 -6.84,-34.53 -6.08,-52.09 2.82,-18.44 -12.43,-32.45 -18.69,-48.62 -4.61,5.09 -8.81,10.54 -13.02,15.95zm-342.35 36.47l0 0c0.62,3.37 1.9,10.1 2.52,13.46 12.37,5.35 26.12,1.06 39.07,1.36 21.18,-2.09 42.98,-0.08 63.76,-5.16 -29.7,-2.89 -59.63,-2.05 -89.4,-3.81 -5.67,-0.73 -10.65,-3.95 -15.95,-5.85zm153.74 3.08l0 0c2.6,11.92 5.56,23.74 9.3,35.33 62.18,-1.35 124.29,-5.82 186.44,-8.85 2.75,-6 4.17,-12.44 4.9,-18.99 -11.3,2.64 -22.9,3.26 -34.45,2.93 -52.39,-0.51 -104.84,1.21 -157.15,-2.3 -3,-2.75 -6,-5.45 -9.04,-8.12zm-49.2 22.35l0 0c-29.3,2.78 -58.85,4.68 -88.3,4.24 -6.18,0.47 -10.57,-4.1 -15.07,-7.54 1.94,17.53 4.31,35.12 10.06,51.91 37.68,-4.17 75.46,-7.06 113.21,-10.57 -4.09,-16.1 -6.87,-32.92 -3.4,-49.42 -4.21,5.41 -8.85,11.56 -16.5,11.38zm795.94 168.88l0 0c-14.88,0.7 -29.74,-1.06 -44.33,-3.76 -5.3,12.1 -14.74,21.39 -25.64,28.53 -4.87,-1.35 -9.7,-2.71 -14.53,-4.03 -2.04,-16.53 3.55,-32.48 7.28,-48.32 -5.19,0.44 -10.35,0.92 -15.51,1.39 2.02,16.72 -8.34,31.31 -10.49,47.48 -0.33,8.34 7.82,12.7 12.62,18.26 13.02,12.36 18.94,29.77 25.13,46.16 47.26,-23.26 84.24,-70.52 88.12,-124 -6.08,13.57 -12.66,27.1 -22.65,38.29zm-239.26 -212.23c4.97,-2.78 5.7,-9.81 8.7,-14.34 6.44,1.5 12.91,2.93 19.46,4.17 6.33,18.65 5.89,38.96 0.92,57.9 -7.03,1.18 -14.01,2.64 -20.93,4.32 -3.03,-4.61 -6.07,-9.25 -9.11,-13.9 -29.3,1.28 -58.49,4.1 -87.82,5.09 2.96,-16.1 2.12,-32.52 0.62,-48.73 29.37,1.94 58.78,3.73 88.16,5.49zm-73.64 22.9l0 0c-0.48,2.56 -1.46,7.72 -1.94,10.28 25.13,-0.74 50.26,-1.76 75.32,-3.37 1.28,-2.49 3.88,-7.5 5.16,-9.99 -25.86,4.1 -52.38,3.11 -78.54,3.08zm87.79 3.47l0 0c-0.33,4.54 -0.55,9.07 -0.62,13.65 3.04,1.61 6.11,-0.52 9.15,-0.92 0.51,-5.3 1.06,-10.61 1.68,-15.87 -3.4,1.02 -6.84,2.08 -10.21,3.14zm125.58 630.27c37.06,-6.18 79.42,-3.69 109.19,21.77 38.67,32.81 42.14,97.45 8.16,134.79 -21.66,24 -54.94,32.93 -86.29,33.73 -31.17,0.92 -65.37,-4.61 -88.82,-26.92 -30,-27.29 -35.3,-75.17 -17.52,-110.62 14.26,-28.9 44.15,-47.3 75.28,-52.75zm13.39 12.99l0 0c-23.56,3.99 -39.54,25.97 -43.09,48.54 -3.84,25.97 -1.25,53.52 10.39,77.29 9.51,19.1 28.13,35.56 50.29,36.11 16.76,1.35 34.39,-6.44 43.39,-20.82 11.15,-16.9 13.28,-37.93 12.1,-57.65 -1.57,-23.22 -7.75,-47.33 -23.26,-65.29 -11.96,-14.08 -31.49,-22.1 -49.82,-18.18zm143.72 -8.01c23.7,-1.58 47.48,-1.69 71.22,-0.48 28.31,0.88 57.47,1.5 84.28,11.71 16.43,6.18 32.01,18.87 36.03,36.69 3.18,14.08 2.49,30.8 -8.01,41.81 -8.05,9.36 -20.08,13.42 -31.42,17.26 19.42,18.7 30.07,44.23 48.39,63.8 13.87,15.4 36.51,19.2 56.16,17.26 11.3,-1.28 11.88,-14.52 12.25,-23.33 0.33,-30.58 -0.04,-61.17 0.18,-91.78 -0.36,-10.35 0.37,-21.8 -5.7,-30.8 -6.48,-6.37 -16.06,-6.88 -24.4,-8.85 -0.04,-3.59 -0.08,-10.76 -0.08,-14.38 57.18,7.13 114.24,15.36 170.9,25.79 1.03,14.99 1.65,29.99 2.75,45.03 -4.83,-0.81 -9.62,-1.61 -14.41,-2.42 -2.35,-10.53 -3.77,-25.09 -16.54,-27.98 -20.52,-4.76 -41.59,-6.73 -62.37,-10.24 0.33,21.03 -0.14,42.1 0.37,63.17 17.34,1.76 34.35,6.51 51.8,6.69 10.09,0.04 11.23,-11.08 12.1,-18.58 4.79,0.59 9.59,1.25 14.38,1.98 0.11,20.74 0.15,41.52 -0.04,62.26 -4.61,-0.59 -9.18,-1.17 -13.75,-1.76 -1.72,-8.01 -2.53,-18.32 -11.52,-21.54 -17.09,-5.93 -35.45,-6.85 -53.19,-9.95 1.32,20.22 -2.93,41.37 2.41,60.98 10.39,5.92 23.05,5.12 34.46,7.79 12.15,1.39 25.13,6.36 36.95,1.02 9.07,-4.17 11.26,-14.63 14.59,-23.01 4.83,0.99 9.62,2.12 14.42,3.37 -1.69,16.06 -2.82,32.19 -4.32,48.28 -61.49,-10.94 -123.24,-20.48 -185.24,-27.69 -26.85,-0.18 -56.77,-0.29 -78.69,-18.14 -21.39,-19.32 -34.09,-45.91 -52.6,-67.67 -4.24,-6.88 -12.95,-5.13 -19.71,-6.44 0.47,16.9 -1.58,34.09 1.53,50.81 3.48,13.35 19.57,13.31 30.47,15.32 -0.07,4.72 -0.14,9.44 -0.18,14.16 -37.68,-3 -75.35,-5.34 -113.1,-6.77 -0.19,-4.68 -0.3,-9.36 -0.41,-14.01 9.84,-1.28 24.51,1.03 28.98,-10.46 3.91,-14.85 1.82,-30.47 2.3,-45.65 -0.88,-27.95 1.87,-56.19 -1.65,-83.95 -2.12,-13.98 -18.54,-13.94 -29.3,-15.59 -0.14,-4.6 -0.22,-9.18 -0.29,-13.71zm81.61 14.23l0 0c-0.15,26.92 0.07,53.81 -0.04,80.73 17.34,1.13 38.63,2.12 51,-12.4 8.85,-13.46 8.88,-32.41 1.5,-46.53 -10.43,-18.33 -33.44,-21.11 -52.46,-21.8zm-716.16 24.87c30.36,-7.28 60.98,-13.31 91.71,-18.69 20.41,-3.18 42.14,-4.57 61.82,2.96 12.07,4.54 22.71,13.98 26.77,26.49 8.27,24.98 -3.66,54.02 -25.57,67.92 -22.68,15.55 -51.25,17.31 -77.87,17.45 0.69,16.5 -1.72,33.29 1.46,49.57 5.7,11.85 21.47,6.95 31.93,7.09 -0.03,4.91 -0.62,9.77 -1.72,14.53 -36.14,5.23 -72.39,9.95 -108.35,16.53 -0.03,-4.86 -0.11,-9.73 -0.11,-14.56 11.67,-2.01 25.24,-7.93 25.43,-21.8 2.23,-34.13 0.47,-68.44 1.02,-102.68 -0.88,-9.58 1.24,-20.81 -5.45,-28.71 -6.55,-3.48 -13.97,-2.02 -21,-1.58 0,-4.86 -0.03,-9.69 -0.07,-14.52zm76.82 -0.07l0 0c0.18,26.99 -0.19,53.99 0.22,80.99 9.91,-0.74 20.34,-1.14 29.22,-6.15 24.15,-12.91 30.07,-48.87 14.12,-70.2 -11.15,-12.58 -29.41,-9.07 -43.56,-4.64zm1068.17 35.85l0 0c0.14,26.96 -0.41,53.92 0.32,80.87 15.95,2.05 35.56,7.87 48.88,-4.49 11.08,-14.53 9.36,-36.07 0.14,-51.11 -10.86,-16.46 -31.02,-22.13 -49.34,-25.27z"/>
  </g>
 </g>
</svg>
