<?xml version="1.0" encoding="UTF-8"?>
<!DOCTYPE svg PUBLIC "-//W3C//DTD SVG 1.1//EN" "http://www.w3.org/Graphics/SVG/1.1/DTD/svg11.dtd">
<!-- Creator: CorelDRAW -->
<svg xmlns="http://www.w3.org/2000/svg" xml:space="preserve" width="2000px" height="1600px" version="1.1" style="shape-rendering:geometricPrecision; text-rendering:geometricPrecision; image-rendering:optimizeQuality; fill-rule:evenodd; clip-rule:evenodd"
viewBox="0 0 2000 1600"
 xmlns:xlink="http://www.w3.org/1999/xlink">
 <defs>
  <style type="text/css">
   <![CDATA[
    .fil1 {fill:#050707;fill-rule:nonzero}
    .fil5 {fill:#90172B;fill-rule:nonzero}
    .fil3 {fill:#AD8679;fill-rule:nonzero}
    .fil2 {fill:#C7BEAC;fill-rule:nonzero}
    .fil4 {fill:#D6D0C2;fill-rule:nonzero}
    .fil0 {fill:#FEFEFE;fill-rule:nonzero}
   ]]>
  </style>
 </defs>
 <g id="Capa_x0020_1">
  <metadata id="CorelCorpID_0Corel-Layer"/>
  <g id="Lafayette_x0020_Leopards.cdr">
   <path class="fil0" d="M378.3 387.04c154.71,0.05 309.43,-0.05 464.12,0.02 -24.03,91.66 -48.79,183.16 -73.41,274.67 -22.94,-0.07 -45.87,0.2 -68.79,-0.17 -37.68,137.73 -74.02,275.82 -111.23,413.68 -15.21,57.48 -31.01,114.79 -45.98,172.29 52.25,-0.17 104.5,0.3 156.74,-0.22 8.47,-31.68 17.02,-63.33 25.93,-94.86 95.16,0.24 190.34,-0.35 285.51,0.29 -33.29,123.14 -66.28,246.32 -99.54,369.46 -279.16,0.07 -558.34,0.05 -837.53,0.02 24.55,-91.55 48.84,-183.18 73.66,-274.66 23.08,-0.08 46.15,-0.03 69.21,0 52.39,-195.24 104.64,-390.5 156.94,-585.76 -23.04,-0.17 -46.08,0 -69.12,-0.07 24.28,-91.63 48.92,-183.16 73.49,-274.69zm805.21 716.99c9.75,5.28 20.42,8.49 31.31,10.46 -12.5,2.89 -25.54,5.14 -38.03,0.8 1.63,-2.5 3.19,-5.04 4.64,-7.63 0.52,-0.92 1.56,-2.74 2.08,-3.63zm164.32 -89.71c5.21,-6.69 1.97,-17.43 9.78,-22.02 8.61,3.82 8.27,13.83 9.03,21.75 -31.45,11.75 -66.07,11.9 -98.98,7.41 1.48,-8.6 3.28,-19.43 11.38,-24.27 5.55,4.98 4.99,13.18 8.44,19.43 3.83,-5.85 1.34,-14.74 7.29,-19.36 8.93,-0.67 10.56,10.79 13.13,17.01 2.05,-6.05 3.21,-12.37 5.9,-18.17 10.2,-1.43 10.79,11.09 14.84,17.53 2.87,-6.15 1.14,-17.31 9.53,-18.79 6.79,3.88 6.74,13.01 9.66,19.48zm-99.41 -54.66c9.46,20.69 10.2,46.34 -1.33,66.42 -3.83,6.46 -8.79,14.46 -17.61,12.86 -14.64,1.85 -30.39,-7.21 -32.66,-22.49 23.06,-12.23 41.58,-32.75 51.6,-56.79zm157.95 -7.73c5.71,11.48 9.93,24.44 7.63,37.38 -1.78,12.84 -9.16,24.34 -18.91,32.67 -4.13,-8.33 -9.34,-16.05 -15.61,-22.89 15.09,-11.24 21.56,-29.88 26.89,-47.16zm71.51 -107.51c9.38,-6 21.48,-0.54 30.27,4.37 -5.36,20.52 -14.81,40.49 -30.25,55.33 -8.89,-7.67 -7.97,-20.46 -7.23,-31.06 1.41,-9.73 3.13,-19.65 7.21,-28.64zm-448.52 -7.18c7.5,-2.74 15.01,-5.59 22.54,-8.35 2.89,7.23 6.35,14.25 10.57,20.81 0.1,1.88 0.3,5.63 0.4,7.51l2.93 -0.62c-0.14,2.03 -0.44,6.08 -0.61,8.1l3.01 -1.23c-0.08,2.39 0.66,4.57 2.24,6.49 3.09,9.66 6.28,19.31 10.47,28.54 -2.14,3.29 -4.71,6.87 -3.87,11.04 0.71,6.35 6.79,10.13 11.95,12.87l0.71 0.39 0.1 0.57c1.34,18.89 16.18,37.11 7.51,56.05 2.94,1.48 5.93,2.91 8.91,4.42 4.27,14.96 8.1,30.2 15.26,44.12 -0.37,5.43 4.77,9.21 2.89,14.64l3.98 -0.76c-0.57,1.41 -1.73,4.22 -2.3,5.63l4.15 -1.34 -1.16 3.19c0.84,0.32 2.57,0.96 3.43,1.28l-1.21 3.73c1.01,0.17 3.04,0.5 4.05,0.67l-1.8 4.64 3.36 -0.94c-0.43,4.03 4.29,5.19 6.24,7.93 4.13,10.79 14.03,17.58 22.22,25.11 -4.29,6.17 -6.86,13.28 -7.65,20.77 -8.45,-6.4 -18.42,-10.82 -25.53,-18.87 -16.12,-17.11 -23.26,-39.88 -33.56,-60.47 10.77,-5.11 14.6,-19.41 7.48,-29.06 -4.51,-6.39 -13.03,-4.2 -19.45,-3.01 -10.25,-31.14 -20.22,-62.4 -28.52,-94.13 -7.11,-24.17 -17.24,-47.35 -28.74,-69.72zm233.92 -19.66c15.83,4.84 32.84,4.2 48.97,1.06 -13.19,17.95 -25.98,39.48 -22.05,62.67 -16.59,-16.91 -25.06,-40.4 -26.92,-63.73zm-270.37 -19.8c13.34,-3.04 26.42,-9.98 40.1,-9.78 5.19,7.33 1.49,17.09 3.02,25.46 -6.01,2.64 -12.15,4.94 -18.3,7.18l1.51 -3.82 -4.05 0.24c0.42,-1.21 1.28,-3.63 1.72,-4.84 -4.64,1.04 -6.54,-0.74 -5.7,-5.31 -1.09,-0.14 -3.23,-0.46 -4.3,-0.61 -3.72,-4.25 -8.61,-6.97 -14,-8.52zm352.42 17.06c38.5,-4.96 76.08,-16.1 111.46,-31.95 20.45,-1.63 41.14,3.88 58.69,14.27 4.35,8.91 2.89,19.29 1.63,28.74 -11.97,-5.53 -24.89,-8.91 -38.07,-9.48 -21.75,-1.9 -42.4,6.72 -63.88,7.98 -18.94,1.45 -38.29,1.92 -56.91,-2.28 -4.74,-1.4 -10.3,-2.66 -12.92,-7.28zm-88.17 -247.7l0.64 -0.99c1.09,0.69 3.31,2.12 4.42,2.84 31.44,4.91 62.47,15.85 88.6,34.32 1.95,25.46 16.42,50.3 38.96,62.84 3.9,2.32 8.34,4.76 9.11,9.75 5.88,19.71 14.1,38.94 26.1,55.73 4.62,6.79 11.95,10.74 18.99,14.59 -5.26,4.03 -11.02,7.41 -17.31,9.48 -33.78,11.86 -69.04,18.99 -104.45,23.76 -31.5,5.13 -63.4,3.08 -95.16,3.5 -22.89,0.2 -45.13,-6.27 -66.81,-12.91 13.36,-0.12 26.42,3.23 39.8,2.81 54.32,1.91 109.38,-7.35 159.36,-29.08 3.95,-1.48 7.26,-4.15 10.2,-7.14 -19.63,-1.73 -39.41,0.69 -58.94,-2.07 -18.77,-1.78 -37.51,-4.15 -55.8,-8.74 -9.66,-2.52 -19.78,-4.45 -28.15,-10.2 41.03,9.83 85.65,7.68 124.02,-10.84 -0.47,-1.31 -1.43,-3.97 -1.92,-5.31 -9.41,-0.81 -18.62,-2.89 -27.66,-5.43 -31.53,-8.35 -63.55,-18.32 -90.2,-37.75 -2.93,-1.88 -4.91,-4.77 -6.59,-7.71 13.24,3.19 26,8.37 39.61,10 24.59,2.2 50.39,1.78 73.06,-9.18 0.27,-0.79 0.81,-2.37 1.08,-3.16 -23.25,-13.41 -45.7,-28.25 -67.55,-43.85 -9.06,-6.33 -16.79,-14.37 -26.05,-20.4 4.59,-4.59 9.46,-9.09 12.64,-14.86zm303.33 -118.65c3.14,-1.5 6.42,-2.66 9.78,-3.75 0.3,4.42 0.84,8.84 0.62,13.28 -1.83,5.64 -6.32,9.68 -11.06,12.87 0.94,-7.33 5.8,-15.63 0.66,-22.4zm-454.84 0.2c0.94,-9.68 4.65,-18.76 9.86,-26.91 7.9,4.17 15.72,8.57 23.58,12.89 -5.71,7.65 -9.73,16.59 -10.52,26.17 -0.2,14.02 3.06,27.63 6.17,41.19 -16.67,-12.1 -29.65,-32.25 -29.09,-53.34zm-709.5 -37.28l0 0c-19.75,75.5 -40.3,150.81 -60.37,226.25 23.06,0.02 46.1,0 69.16,0 -56.35,211.3 -113.26,422.46 -169.61,633.77 -23.13,0.42 -46.29,0 -69.43,0.2 -20.17,75.68 -40.67,151.28 -60.74,226.99 262.69,0.39 525.38,-0.03 788.07,0.2 29.12,-107.36 57.86,-214.84 86.92,-322.23 -78.87,-0.1 -157.73,-0.02 -236.59,-0.05 -8.6,31.68 -17.34,63.31 -25.81,95.02 -68.69,0.12 -137.38,-0.05 -206.07,0.07 56.72,-211.31 113.28,-422.67 170.02,-633.97 23.02,0.02 46.03,-0.03 69.07,0.02 20.41,-75.48 40.51,-151.06 60.84,-226.57 -138.5,0.2 -276.99,-0.39 -415.46,0.3z"/>
   <path class="fil1" d="M1087.36 20.99l15.7 0c27.95,3.48 54.23,14.94 78.79,28.27 76.45,42.49 138.55,107.33 186.67,179.68 40.37,8.05 79.97,22.96 113.14,47.75 20.09,-3.48 40.59,-6.47 61.03,-4.66 34.13,18.02 58.55,51.58 68.64,88.49 14.89,55.14 6.84,113.9 -10.29,167.55 31.9,39.76 57.53,86.28 64.62,137.34 101.95,-10.32 206.14,-1.41 304.37,28.12 10.09,3.11 20.12,6.5 29.97,10.35l0 0.96c-53.06,-14.02 -107.97,-19.78 -162.71,-21.95 -56.67,-2.17 -113.49,-0.02 -169.93,5.38 0.2,11.83 -0.69,23.66 -2.2,35.38 96.45,13.81 190.59,44.94 275.48,92.92 13.68,8.17 27.86,15.78 40.22,25.93 -84.66,-44.99 -178.12,-70.45 -271.87,-88.28 -16.25,-3.01 -32.54,-5.77 -48.89,-8.1 -3.75,12.74 -8.47,25.19 -14.22,37.17 89.73,36.44 172.71,89.6 243.16,156.09 13.58,13.76 28.1,26.84 39.58,42.5 -64.59,-59.93 -140.92,-105.58 -219.51,-144.62 -24.54,-11.95 -49.31,-23.46 -74.59,-33.78 -6.17,9.51 -12.79,18.72 -19.95,27.48 69.01,64.75 126.49,141.88 168.32,226.79 9.56,20.35 19.14,40.77 25.8,62.28 -36.29,-73.21 -85.75,-139.07 -140.07,-199.81 -22.4,-24.91 -45.53,-49.23 -69.85,-72.29 -23.21,22.89 -50.2,42.49 -80.52,54.76 -4.89,1.93 -8.87,5.41 -13.09,8.4 -18.37,13.16 -39.45,22.91 -61.83,26.62 5.19,-9.68 10.05,-19.54 13.76,-29.86 -13.78,-5.78 -26.72,-13.5 -37.76,-23.63 9.29,28.15 15.19,57.41 18.03,86.84 18.81,32.32 31.9,69.04 31.23,106.84 0.62,44.6 -19.08,87.9 -49.8,119.71 -42.59,44.49 -100.44,70.91 -158.79,87.9 9.04,-14.35 18.15,-28.64 26,-43.66 -45.97,10.79 -92.57,21.14 -140,21.63 17.28,-11.5 34.5,-23.53 48.62,-38.89 -19.95,-1.23 -40.1,-2.54 -59.36,-8.32 -21.31,-6.07 -41.16,-16.34 -59.41,-28.79 -7.28,7.68 -15.9,14.55 -21.16,23.83 -33.33,122.47 -65.83,245.23 -99.21,367.7l-955.48 0 0 -1.58c34.72,-128.86 69.06,-257.82 103.75,-386.69 23.06,-0.02 46.15,0 69.21,0 42.18,-157.18 84.2,-314.39 126.37,-471.58 -23.08,-0.02 -46.19,0 -69.31,-0.02 34.77,-129.63 69.56,-259.24 104.23,-388.92 28.79,0 57.55,0.08 86.34,-0.02 -7.6,-38.96 -8.07,-80.25 4.4,-118.27 5.13,-14.2 11.68,-29.19 24.29,-38.28 6.72,-5.11 16.67,-3.65 21.66,3.12 21.45,24.66 47.26,46.14 77.73,58.59 48.98,19.78 103.13,20.54 152.42,39.48 56.37,-40.79 121.45,-67.8 187.7,-87.95 65.8,-19.26 134.2,-32.02 202.99,-30.1 3.63,-33.8 -4.03,-67.65 -14.77,-99.51 -2.64,-8.51 -8.07,-17.13 -5.5,-26.34 2.29,-6.59 9.7,-8.67 15.85,-9.95zm-175.21 1208.57c10.62,-8.32 21.16,-16.69 31.95,-24.79 -23.19,87.95 -46.99,175.77 -70.32,263.68 -243.53,0.09 -487.09,0.19 -730.62,-0.05l1.73 -2.72c9.53,-7.43 18.99,-14.96 28.47,-22.47 227.16,0 454.34,-0.02 681.5,0.03 19.39,-71.17 38.18,-142.47 57.29,-213.68zm245.53 -117.06c5.51,1.72 11.06,3.4 16.59,5.11 -3.21,2.19 -6.39,5.75 -10.69,4.49 -3.04,-2.47 -4.32,-6.22 -5.9,-9.6zm8.3 -21.51c1.18,-1.14 3.53,-3.38 4.71,-4.52 5.14,3.48 8.5,8.84 10.3,14.72 -5.34,-2.89 -10.32,-6.35 -15.01,-10.2zm-360.18 -150.47c5.07,-6.84 19.43,-6.35 19.53,3.93 -1.75,14.27 -15.68,28.27 -30.12,27.6 3.85,-10.39 3.88,-22.34 10.59,-31.53zm212.42 -39.31c10.69,-4.81 26.72,1.38 29.44,13.16 -5.09,9.33 -14.87,16.86 -25.54,18.45 -8.74,-0.57 -17.16,-7.07 -19.16,-15.76 0.72,-8.1 8.3,-13.21 15.26,-15.85zm-265.36 -25.38c7.21,0.25 15.17,-1.16 21.31,3.63 1.09,1.06 2.18,2.17 3.24,3.33 3.82,7.93 5.13,18.59 -1.16,25.63 -7.19,2.64 -15.26,-1.23 -20.5,-6.2 -7.11,-6.91 -3.97,-17.75 -2.89,-26.39zm53.04 -51.16c2.82,-2.32 6.84,-1.26 8.52,1.9 4.69,7.18 7.63,15.53 9.16,23.95 -2.81,8.52 -13.21,10.91 -21.01,12.52 -9.34,1.28 -13.58,-9.88 -12.5,-17.48 0.18,-9.58 9.04,-15.58 15.83,-20.89zm-74.44 -37.31c3.36,-5.48 10.49,-7.88 16.56,-6 5.41,2.29 5.29,9.18 3.54,13.88 -3.91,10.59 -12.87,19.35 -23.63,22.79 -1.21,-0.37 -3.58,-1.14 -4.77,-1.51 0.89,-10.1 2.62,-20.57 8.3,-29.16zm114.12 14.05c0.05,-12.45 10.22,-26.45 23.53,-26.05 9.09,0.3 12.57,10.37 12.12,18.05 -3.82,9.06 -13.01,14.05 -20.86,19.21 -7.28,2.29 -15.09,-3.61 -14.79,-11.21zm-73.14 -70.67c4.5,-8.29 18.4,-14.81 24.92,-5.46 0.99,12.55 -9.06,22.7 -18.35,29.68 -2.24,0.84 -6.69,2.5 -8.94,3.31 -4.49,-0.44 -5.55,-5.28 -4.79,-9.01 0.87,-6.64 3.91,-12.74 7.16,-18.52zm-321.65 572.79c64,-239.26 128.3,-478.42 192.12,-717.73 5.98,8.7 12.42,17.06 18.55,25.66 -62.65,234.79 -125.71,469.48 -188.5,704.24 -10.32,8.23 -20.86,16.18 -31.26,24.33 2,-12.42 6.03,-24.35 9.09,-36.5zm-78.84 -693.04c10.99,-8.32 22.03,-16.59 32.82,-25.18 21.45,-0.2 42.93,-0.3 64.42,0.07 -9.81,9.29 -20.94,16.92 -31.26,25.58 -21.98,-0.02 -44.03,0.84 -65.98,-0.47zm564.69 -55.35c5.34,0.93 10.67,1.45 16.08,1.7 -1.83,1.33 -3.63,2.67 -5.44,4 -5.3,-0.77 -10.64,-1.21 -15.97,-1.36 1.78,-1.45 3.55,-2.91 5.33,-4.34zm-28.27 -1.76c8.17,-0.98 16.32,1.24 24.52,0.94 -1.8,1.31 -3.61,2.62 -5.41,3.93 -6.49,-1.14 -14.54,1.33 -19.11,-4.87zm-0.49 -29.63c1.33,-9.16 8.74,-16.74 17.95,-17.97 7.6,-1.8 14.1,3.28 20.19,6.96 -0.12,1.66 -0.34,4.94 -0.46,6.59 -4.25,7.46 -10.82,14.52 -19.66,16.03 -7.75,1.5 -16.76,-3.38 -18.02,-11.61zm564.89 -50.07c10.52,-4.02 17.7,7.09 19.65,15.88 -8.2,-2.47 -13.26,-10.57 -19.65,-15.88zm-729.09 -10.25c10.42,-8.15 20.86,-16.27 31.26,-24.47 -0.5,6.6 -2.62,12.87 -4.32,19.24 -12.67,48.1 -25.56,96.12 -38.18,144.25 -0.71,2.59 -1.77,5.03 -3.21,7.33 -5.7,-8.45 -12.32,-16.25 -18.39,-24.4 10.49,-40.76 22.1,-81.26 32.84,-121.95zm488.39 -49.31c11.12,-7.4 27.78,-5.3 35.24,6.3 5.55,8.54 7.73,23.53 -2.74,29.33 -10.59,-0.76 -16.72,-10.32 -23.09,-17.55 -4.44,-5.26 -7.87,-11.34 -9.41,-18.08zm-306.42 -20.44c5.86,-6 14.1,-12.32 23.02,-9.43 7.5,4.98 4.44,14.44 0.69,20.89 -7.16,10.61 -16.35,20.79 -28.4,25.75 -5.21,2.89 -9.38,-2.64 -9.23,-7.43 -0.37,-11.43 6.37,-21.73 13.92,-29.78zm395.02 -17.46c6.05,-5.43 14.37,-2.15 19.38,2.94l0.25 0.27c-4.69,11.83 -11.93,22.35 -20.72,31.46 -8.49,-9.24 -8.25,-26.1 1.09,-34.67zm-143.66 0.45c0.82,-5.39 7.81,-5.9 11.95,-4.47 8.25,3.01 15.56,8.07 23.46,11.85 0.44,0.62 1.36,1.85 1.83,2.47 5.97,10 6.37,25.23 -6,30.47 -7.06,-4.64 -14.2,-9.14 -20.77,-14.42 -5.83,-7.24 -11.75,-16.2 -10.47,-25.9zm255.24 -18.3c10.71,2.08 21.95,8.03 26.84,18.22 3.75,7.29 -5.29,15.29 -12.32,12.13 -12.92,-3.24 -17.41,-18.62 -14.52,-30.35zm64.1 15.7c-7.02,-4.17 -5.88,-16.42 2.37,-18.44 7.82,-0.84 15.68,2.02 21.9,6.67 -1.61,4.42 -0.59,10.74 -5.09,13.48 -6.27,1.38 -13.43,1.43 -19.18,-1.71zm-371.14 -1.11c-5.93,-8.69 -9.46,-21.5 -1.8,-30.27 2.29,0.84 4.62,1.71 6.94,2.55 9.45,6.98 18.17,15.4 23.38,26.09 -2.25,4.67 -4.64,9.29 -7.21,13.78 -8.67,-0.74 -15.7,-5.85 -21.31,-12.15zm129.85 -32.76c4.72,-3.85 9.98,1.95 13.81,4.54 8.71,8.4 17.87,18.45 19.43,30.89 -0.55,0.69 -1.66,2.08 -2.22,2.77 -8.89,2.02 -17.86,4.12 -26.97,4.96 -6.59,0.32 -14.62,-2.5 -16.37,-9.58 -1.41,-12.17 3.04,-25.46 12.32,-33.58zm-211.11 10.25c7.53,-10.15 20.89,-12.77 32.77,-13.36 5.6,-0.15 12.79,0.52 14.98,6.74 3.12,4.47 1.56,10.74 -3.45,13.01 -13.01,4.02 -27.16,6.72 -40.64,3.75 -4.92,-1.03 -5.86,-6.27 -3.66,-10.14zm295.09 -0.82c-7.26,-3.46 -16.3,-12.12 -9.38,-20.2 5.53,6.18 10.04,13.26 12.46,21.26l-3.08 -1.06zm189.85 -23.48c9.21,7.31 16.3,16.74 23.11,26.25l0.12 3.82c-13.77,-1.9 -23.26,-16.89 -23.23,-30.07zm-345.16 -7.9c8.07,-5.11 16.47,2.74 21.18,8.89 4.84,6.64 8.57,15.43 6.05,23.7 -4.47,6.86 -14.29,3.66 -20.98,2.96 -0.94,-0.37 -2.82,-1.13 -3.76,-1.53 -5.97,-4.27 -11.95,-8.54 -17.87,-12.89 4.14,-7.63 8.56,-15.53 15.38,-21.13zm-188.3 -22.52c3.53,-1.38 7.98,-2.32 11.16,0.44 4.2,3.76 2.84,9.98 1.68,14.82 -1.85,7.8 -9.55,11.78 -15.06,16.81 -4.02,2.77 -10.02,7.46 -14.54,3.04 -5.53,-5.16 -7.26,-14.32 -3.14,-20.86 4.54,-7.09 12.17,-11.39 19.9,-14.25zm124.1 -14.22c12.77,-1.81 26.4,0.56 37.73,6.79 0.2,0.91 0.59,2.69 0.79,3.6 -7.48,6.57 -17.53,8.99 -25.61,14.69 -6.61,4.99 -15.67,5.14 -23.25,2.6 -4.7,-1.73 -8.7,-6.57 -7.14,-11.81 0.86,-8.81 9.31,-14.54 17.48,-15.87zm-79.65 6.61c9.18,-6.84 21.01,-9.16 32.27,-9.11 4.05,10.05 1.93,22.6 -6.54,29.71 -0.87,0.39 -2.62,1.18 -3.49,1.58 -9.53,1.7 -21.06,-0.57 -26.91,-8.92 -3.78,-4.79 0.84,-10.27 4.67,-13.26zm-174.13 -18.32c8.55,-5.53 21.46,-8.54 28.87,0.37 -2.99,16.87 -19.29,28.25 -35.09,31.93 -6,2.02 -13.88,-2.74 -12.69,-9.61 1.65,-10.27 10.52,-17.55 18.91,-22.69zm249.34 -212.07l0 0c12.84,32.59 20.32,67.63 19.23,102.76 14.57,0.65 29.04,2.8 43.53,4.4 -3.63,-16.07 -10.37,-31.31 -19.21,-45.21 20.13,12.99 35.68,31.63 51.34,49.28 22.51,4.25 45.8,5.41 67.31,13.95 -24.08,-33.6 -54.33,-62.66 -87.31,-87.48 -22.67,-16.42 -47.16,-31.87 -74.89,-37.7zm-109.88 134.62l0 0c-10.32,1.3 -20.62,2.81 -30.86,4.54l-0.32 0.64c-18.28,2.08 -36.05,7.11 -53.93,11.26 -7.16,2.07 -14.35,4.15 -21.53,6.12l-0.32 1.07c-17.14,3.67 -33.36,10.66 -49.83,16.59 -9.33,3.55 -18.52,7.43 -27.68,11.38l-0.05 0.42c-16.91,6.86 -33.21,15.16 -49.65,23.09 -13.04,7.16 -26.47,13.58 -39.14,21.38 7.88,3.93 15.56,8.2 23.21,12.54 8.17,4.69 16.03,9.9 23.75,15.29 3.61,-16.72 21.46,-21.85 36.13,-24.37 6.02,-1.16 13.48,-0.05 16.81,5.75 2.67,5.63 -2.22,10.89 -4.34,15.73 5.92,0.27 11.95,0.17 17.77,1.58 -13.77,4 -27.28,9.04 -40.17,15.28 16.4,0.5 32.82,0.03 49.26,0.27 3.11,-0.22 6.74,0.65 9.41,-1.55 19.06,-13.01 40.79,-21.8 63.16,-27.24 -3.36,-2.89 -7.36,-6.98 -5.43,-11.85 3.08,-9.18 11.8,-14.89 20.17,-18.84 6.27,-2.59 13.65,-5.23 20.25,-2.1 4.76,2.25 9.87,8.18 5.75,13.36 -5.7,8.59 -13.75,15.9 -23.78,18.96 -6.49,1.04 -11.45,5.81 -16.99,8.99 -8.88,6.45 -18.98,11.78 -26.07,20.3 5.31,0.1 10.62,0.07 15.95,0.15 -2.42,4.91 -3.33,10.34 -4.86,15.53 8.79,-5.85 18.54,-10.74 29.18,-11.95 4.15,-0.27 10,2.34 9.21,7.4 -1.6,8.38 -8.79,14.23 -15.46,18.77 -8.02,5.68 -18.93,10.47 -27.58,3.16 -5.58,21.41 -11.45,42.77 -17.08,64.17 3.55,-0.17 8.99,-0.24 8.52,4.89 0.96,7.16 -1.78,14.08 -3.83,20.79l-0.64 -0.02c-3.11,5.65 -9.75,6.37 -14.92,9.18 2.8,5.24 9.21,5.98 14.45,7.26 9.38,2.15 19.01,1.11 28.49,-0.05 -3.33,-5.26 -5.31,-12.56 1.29,-16.27 1.03,-0.17 3.08,-0.52 4.12,-0.69 8.79,0.62 16.99,3.9 24.96,7.41 9.11,-4.74 18.25,-9.56 26.35,-15.95 -2.2,-5.19 -0.96,-10.84 2.29,-15.21 8.8,-12.05 21.86,-20.35 35.51,-25.95 1.36,-3.04 2.72,-6.1 4.03,-9.14 -19.98,-2.91 -41.09,-5.7 -60.55,1.38 6.18,-6.76 14.5,-10.76 21.98,-15.8 -3.61,-1.6 -6.77,-3.85 -9.8,-6.27 0.86,-2.47 1.75,-4.91 2.64,-7.36 12,-9.46 24.52,-20.05 40.1,-22.44 3.77,-0.18 4.96,4 6.89,6.39 -0.52,7.16 -3.78,13.61 -7.61,19.53 14.81,-1.65 29.9,-1.82 44.59,1.02 34.1,5.9 63.98,24.22 93.95,40.41 45.46,24.87 90.05,51.34 135.21,76.72 4.03,-3.21 8.25,-6.15 12.57,-8.94 -7.8,-3.73 -15.01,-8.81 -18.57,-16.96 0.55,-8.84 5.73,-21.53 16.67,-19.38 11.04,3.5 18.94,13.82 21.88,24.76 25.82,-11.73 56.27,-18.69 83.5,-7.28 -0.84,-2.47 -2.49,-7.46 -3.31,-9.93 3.04,-1.85 6.25,-3.41 9.66,-4.59 4,1.51 7.95,3.23 12.12,4.35 5.21,4.41 11.8,6.86 16.72,11.75 1.04,5.9 1.83,11.93 0.2,17.78 8.14,5.68 15.5,12.32 23.18,18.59 -1.41,-5.48 -1.43,-11.19 1.93,-16.03 2.89,2.92 5.55,6.03 8.29,9.12 6.5,-0.05 12.99,0.37 19.44,1.33 -0.23,3.46 -0.35,6.94 -0.35,10.42 -1.78,2.54 -3.11,5.33 -4.52,8.1 23.95,8.66 45.56,28.37 49.88,54.37 -22,-14.67 -49.88,-20.92 -75.68,-13.98 8.52,-7.18 17.95,-12.99 27.75,-18.27 -12.07,-6.22 -25.53,-9.06 -39.03,-9.41 -22.08,-24.74 -50.62,-47.6 -84.77,-50.84 -29.75,-3.06 -58.17,13.19 -76.12,36.03 -45.86,-2.54 -91.91,8.07 -133.88,26.1 -0.35,9.63 -2.25,22.54 -12.59,26.37 -9.04,1.87 -18.52,0.62 -26.77,-3.46 -8.67,6.96 -16.67,14.74 -23.73,23.31 8.5,-0.52 17.56,-0.79 25.21,3.55 3.93,3.88 0.18,8.57 -1.01,12.75 4.81,2 9.68,3.92 14.64,5.68 15.61,-22.5 36.32,-41.41 60.37,-54.57 7.93,-6.92 15.85,-14.13 25.58,-18.47 25.48,-13.09 56.37,-10.13 81.78,1.63 13.21,-19.76 33.46,-38.87 58.82,-38.15 19.9,1.18 41.28,7.6 54.59,23.26 -19.53,17.23 -37.21,39.73 -40.2,66.39 -29.11,-18.86 -60.86,-35.28 -95.48,-40.59 -20.79,-3.36 -43.48,-0.99 -61.21,11.11 1.36,2.89 2.72,5.76 4.1,8.64 11.38,-9.4 28.15,-15.8 41.95,-7.6 -0.4,4.02 -2.25,7.6 -3.98,11.21l-0.64 0.99c-8.74,-2.03 -17.83,-2.25 -26.74,-1.95 3.51,5.8 7.09,11.97 12.82,15.92 -2.52,1.95 -5.07,3.9 -7.61,5.85 21.56,26.87 52.22,45.88 85.53,54.35 -26.34,2.37 -53.33,-2.25 -77.46,-13.06 -1.45,9.7 -11.6,14.1 -18.98,18.86 -3.16,-1.85 -6.6,-3.06 -10.18,-3.58 2.2,2.08 4.77,3.63 7.68,4.62 -3.55,2 -7.13,3.97 -10.79,5.78 25.68,25.95 61.09,38.44 95.58,47.75 -28.17,4.89 -57.63,0.49 -83.9,-10.47 -20.64,-8.3 -37.85,-22.74 -53.7,-37.97 -1.93,16.27 3.23,32.49 12.1,46.02 1.8,-3.65 1.95,-9.09 6.22,-10.86 6.86,-0.52 13.78,1.4 20.25,3.6 9.43,3.56 14.66,13.01 18.07,21.95 -4.72,-1.09 -9.33,-2.42 -14.02,-3.48 4.34,2.91 9.06,5.53 14.34,6.3 1.06,5.3 -2.67,9.03 -6.49,11.95 33.11,13.06 68.96,17.6 104.37,17.3 -13.14,3.26 -26.74,3.98 -40.15,5.51 -46,3.8 -94.05,4.45 -137.7,-12.66 -6.13,18.41 -3.46,38.91 5.48,55.95 72.12,7.28 145.63,8.69 217.21,-4.25 40.89,-8.35 84.71,-21.63 112.2,-55.11 -32.42,-14.22 -53.36,-47.83 -56.28,-82.55 -15.53,-5.87 -31.58,-15.23 -38.07,-31.35 -6,-14.77 0.2,-31.51 10.17,-42.97 15.09,-17.6 39.8,-24.61 62.35,-21.77 23.21,2.29 44.52,12.71 64.34,24.37 22.67,-6.25 47.16,-10.97 70.23,-3.83 -11.36,-21.01 -28.62,-37.66 -44.05,-55.58l-1.12 -0.35c-21.7,-25.31 -47.48,-47.16 -74.69,-66.39 -8.76,1.38 -19.08,-2.74 -19.16,-12.87 -11.01,-6.84 -22.22,-13.4 -34,-18.79 -2.19,3.14 -4.47,6.23 -6.79,9.26 -6.47,-2.17 -15.28,-4.42 -17.9,-11.38 1.93,-2.57 3.98,-5.06 6.03,-7.55 -0.72,-16.94 3.01,-34.23 12.19,-48.62 0.5,11.75 1.61,23.7 5.66,34.84 25.31,4.17 46.24,20.64 65.46,36.59 2.86,-7.14 6.32,-14.03 10.14,-20.72 -12.27,-3.58 -24.39,-13.68 -24.24,-27.4 -0.23,-3.51 4.47,-4.92 7.08,-3.61 10.37,3.95 20.4,9.61 27.81,18.03 14.29,-13.04 36.29,-18.92 54.41,-11.12 -16.88,5.16 -31.45,15.98 -42.74,29.41 8.4,-4.1 20.97,-0.91 19.93,10.27 5.06,-1.82 10.15,-3.63 15.19,-5.58 1.5,-10.19 9.9,-21.13 21.38,-16.37 0.62,2.6 1.21,5.21 1.85,7.83 2.3,-12.15 3.61,-24.57 1.98,-36.89 -0.84,-8.64 -2.1,-17.28 -4.7,-25.6 -3.7,-8.45 -6.96,-17.88 -13.06,-24.74 -0.44,-0.47 -1.36,-1.41 -1.8,-1.88l0.91 -0.25c-7.73,-8 -16,-16.07 -26.39,-20.42 -5.7,-0.34 -11.36,0.55 -16.99,0.92 -0.1,1.68 -0.32,5.03 -0.42,6.71 0.4,8.96 -1.13,18.72 -7.41,25.58 -5.75,-8.84 -10.93,-18.02 -16.74,-26.81 -8.61,2.84 -17.06,6.22 -25.06,10.49 9.04,4.99 16.1,13.21 19.75,22.86 -13.4,5.86 -29.87,0.7 -38.84,-10.59 -6.09,5.41 -11.9,11.11 -17.03,17.46 -0.55,-14.22 4.91,-27.93 13.53,-39.06 4.34,-4.57 8.91,-8.94 13.04,-13.73 -2.72,-2.25 -5.44,-4.49 -8.18,-6.64 -8.39,-6.1 -17.7,-10.74 -27.23,-14.77 -9.58,-3.92 -19.51,-7.01 -29.63,-9.13 6.71,7.35 12.12,15.8 16.22,24.81 0.32,3.31 0.67,6.64 1.04,9.95 4.15,1.61 8.19,3.56 11.78,6.3 -1.14,4.37 -2.25,8.76 -3.56,13.08 -8.12,0.79 -19.68,2.97 -24.4,-5.65 -3.48,-6.49 1.59,-14.35 8.6,-15.16 -10.74,-9.48 -21.51,-18.94 -32.47,-28.12 -5.36,-0.08 -10.89,0.37 -16.03,-1.41 -5.87,-2.69 -7.87,-10 -5.06,-15.63 -3.28,-2.52 -6.62,-4.99 -9.97,-7.38 -7.76,1.68 -17.36,4.02 -24.05,-1.63 -4.2,-3.98 -3.14,-10.13 -1.56,-15.07 -5.65,-3.77 -11.65,-6.96 -17.6,-10.17 -2.5,7.75 -9.09,12.82 -14.45,18.52 32.3,10.69 63.51,27.04 87.06,51.97 15.51,15.81 27.63,36.47 28.57,59.02 0.2,21.45 -11.03,41.46 -26.2,56.02 6.1,1.76 11.16,5.44 14.15,11.14 -4.61,8.05 -13.8,11.53 -20.71,17.21 8.07,-0.5 16.19,-0.45 24.24,0.54 -0.61,5.73 -2.42,12.87 -9.77,12.13 -14.03,-2.2 -24.28,-14.52 -29.12,-27.17 -21.8,9.98 -46,13.41 -69.8,12.4 16.17,-4.94 31.93,-11.53 45.95,-21.09 9.41,-7.01 18.13,-14.91 25.09,-24.39 6.02,-9.53 10.37,-20.12 11.7,-31.38 2.15,-13.04 -2.27,-26.03 -9.68,-36.65 -8.93,-11.38 -20.61,-20.24 -32.76,-27.92 -17.85,-10.94 -37.09,-19.24 -56.47,-26.99 -21.8,-7.8 -43.8,-15.41 -66.52,-19.95 20.37,10.2 37.16,25.95 52.05,42.96 9.95,14.05 19.38,29.01 23.28,46 -2.14,-1.83 -3.95,-4.17 -6.46,-5.5 -17.46,-16.62 -37.56,-30.52 -58.01,-43.21 -12.22,-0.42 -25.28,0.42 -36.19,-6.18 -6.23,-3.21 -13.58,-10.49 -7.98,-17.68 -10.02,-5.38 -20.79,-9.7 -31.97,-11.82 -1.73,6.64 -5.36,13.03 -12.92,13.87 -10.37,0.18 -20.89,0.87 -31.01,-2.05 -4.89,-2.59 -8.52,-6.64 -10.54,-11.8 -22.13,5.66 -44.4,13.24 -63.09,26.64 -0.94,0.55 -2.79,1.61 -3.7,2.13 5.92,-9.16 13.28,-17.24 20.57,-25.34 -11.26,3.91 -23.46,6.82 -35.39,4.57 -3.63,-0.59 -7.95,-3.36 -7.01,-7.63 2,-10.1 10.84,-16.91 18.44,-23.01 8.4,-5.8 19.24,-13.04 29.68,-8.03 8.3,3.41 11.09,13.61 8.67,21.68 15.04,-11.45 32.52,-20 51.21,-23.38 27.14,-5.06 55.58,0.37 80.12,12.59 23.63,-2.27 47.51,-1.65 70.97,2.23 6,-10.55 17.03,-16.99 28.47,-20.2 -3.51,-1.36 -6.77,-4.25 -10.6,-4.2 -11.31,-5.26 -23.55,-8.1 -35.58,-11.09l-1.16 0.5c-14.79,-4.79 -30.47,-6.52 -45.85,-8.47 -15.53,-1.9 -31.18,-2.52 -46.76,-3.46l-0.94 0.45c-15.68,-0.5 -31.36,-1.56 -47.04,-0.74 -9.85,0.74 -19.75,-0.28 -29.58,0.86 -17.68,-0.02 -35.28,1.95 -52.89,3.56zm-549.56 15.92l0 0c-13.77,39.8 -5.7,83.85 9.21,122.2 9.31,0.77 18.65,0.25 27.98,0.37 -8.15,-15.38 -14.67,-31.73 -18.25,-48.81 11.71,15.33 24.96,29.6 41.06,40.41 5.54,3.34 10.6,9.17 17.63,8.47 14,-0.12 28,0 42.03,-0.12 -12.15,-5.48 -24.57,-10.91 -34.87,-19.58 9.68,-0.42 20.05,-0.07 28.94,-4.52 -38.17,-15.75 -68.05,-45.85 -94.89,-76.32 -6.69,-7.01 -11.72,-15.5 -18.84,-22.1zm178.79 82.35l0 0c20.6,6.37 42.57,14.17 57.31,30.49 -11.11,-1.04 -22.27,-0.86 -33.38,-0.57 7.8,3.44 15.78,6.37 23.53,9.96 15.51,0.81 31.09,0.22 46.64,0.24 -14.66,-11.97 -30.66,-22.29 -47.77,-30.39 -14.42,-6.57 -30.28,-11.86 -46.33,-9.73zm-360.74 395.11l0 0c23.07,0.17 46.1,-0.07 69.16,0.12 -48.29,179.43 -95.92,359.04 -144.56,538.37 -23.02,-0.27 -46.03,-0.1 -69.04,-0.1 -28.72,107.34 -57.41,214.7 -86.27,321.98 295.63,0.37 591.31,0.07 886.94,0.15 37.21,-139.11 74.89,-278.1 112.17,-417.19 -111.68,0 -223.36,-0.12 -335.01,0.05 -8.45,31.71 -17.31,63.29 -25.78,94.97 -35.85,0.02 -71.68,0.07 -107.53,-0.03 47.75,-178.59 95.75,-357.11 143.5,-535.7 0.42,-0.62 1.21,-1.83 1.61,-2.45 22.79,-0.32 45.6,-0.02 68.39,-0.12 27.17,-101.48 54.4,-202.94 81.56,-304.45 1.38,-5.95 3.93,-11.72 4.12,-17.9 -170.96,0.4 -341.92,0.08 -512.89,0.15 -29.08,107.31 -57.72,214.72 -86.37,322.15zm813.66 -247.83l0 0 -0.57 -0.34c-7.21,26.37 0.45,57.23 21.21,75.5 8.84,7.14 22.15,13.61 32.99,7.06 17.65,-8.83 36.52,-14.91 55.41,-20.49 14.24,-3.6 28.69,-6.49 43.26,-8.54 -11.41,-6.18 -22.2,-13.76 -34.33,-18.42 -5.35,12.44 -19.23,20.12 -32.64,17.7 -10.52,-1.41 -18.62,-9.23 -23.63,-18.12 -4,-9.95 -2.62,-21.36 3.83,-29.95 -4.67,-2.45 -9.28,-4.99 -13.8,-7.63 -7.86,-4.32 -15.68,-8.72 -23.58,-12.89 -3.93,-2.08 -7.9,-4.08 -11.93,-5.98 -7.43,5.58 -13.48,13.11 -16.22,22.1zm-71.38 9.93l0 0c-3.04,24.44 -1.54,52.69 16.42,71.48 14.39,15.31 36.37,20.25 56.69,18.3 -2.13,-3.14 -5.46,-5.09 -8.35,-7.39 -30.66,-23.03 -50.69,-59.18 -54.96,-97.21 -4.74,3.68 -9.78,8.35 -9.8,14.82zm554.29 -3.09l0 0c-3.36,1.09 -6.64,2.25 -9.78,3.75 -1.08,0.15 -3.28,0.42 -4.37,0.55 0.03,4.12 1.41,9.16 -2.34,12.17 -5.53,7.43 -18.22,3.93 -19.68,-5.11 -2.47,1.9 -5.46,2.79 -8.39,3.48 12.22,3.28 20.32,13.68 30.49,20.49 16.27,1.56 28.37,-19.9 20.47,-33.7 -0.84,-3.33 -4.15,-1.75 -6.4,-1.63zm-397.6 28.47l0 0c8.02,3.56 17.68,-4.91 15.08,-13.38 -3.7,3.73 -6.54,8.96 -12.19,9.92 1.18,-3.9 5.16,-7.35 4.47,-11.73 -2.52,-3.15 -6.84,-4.19 -10.13,-6.36 -7.73,5.08 -6.99,19.4 2.77,21.55zm368.07 -18.34l0 0c1.04,2.27 2.17,4.78 5.01,5.2 3.63,-0.74 4.67,-4.41 4.75,-7.65 -3.39,0.37 -6.65,1.19 -9.76,2.45zm-664.71 41.35l0 0c-2.92,5.61 -6.55,10.84 -9.02,16.67 -2.64,12.72 -6.59,25.11 -9.75,37.7 17.23,-0.34 34.44,0.97 51.65,1.86 -2.02,0.83 -6.07,2.51 -8.12,3.35 5.75,-5.21 8.52,1.85 6.17,5.24 -16.76,-3.16 -33.7,-5.43 -50.66,-7.04 -2.37,9.31 -4.94,18.57 -7.34,27.88 3.73,-2.25 7.71,-6.35 12.47,-4.22 9.73,2.93 12.47,14.49 12.74,23.43 0.18,6.84 -2.12,16.15 -10.05,17.55 -9.53,1.88 -17.43,-6.76 -20.86,-14.81 -5.83,20.44 -11.28,40.96 -16.72,61.5l6.18 -1.23c-1.76,1.14 -5.26,3.38 -7.02,4.52 -3.95,12.91 -6.47,26.25 -10.69,39.06 5.34,-7.04 11.85,-13.09 19.09,-18.15 6.54,-4.2 14.12,-9.6 22.3,-7.38 2.07,9.33 0.04,19.33 -4.87,27.48 -4,6.4 -12.29,6.87 -19.06,6.89 -6.27,-1.16 -12.67,-2.47 -17.78,-6.54 -0.91,2.79 -1.8,5.6 -2.66,8.42 -22.94,-0.15 -45.88,0.32 -68.79,-0.25 -11.21,40.64 -21.78,81.46 -32.92,122.15 -0.81,3.4 -2.1,6.84 -1.6,10.44 3.45,37.01 19.82,72.77 46.07,99.19 -26,-6.52 -46.81,-25.39 -60.94,-47.53 -2.86,10.49 -5.9,20.96 -8.47,31.55 2.5,4.15 4.92,8.37 6.47,13.01 1.58,10.23 -5.55,17.93 -13.23,23.39 7.65,1.73 15.23,3.72 22.76,5.87 2.89,-5.9 6.27,-11.53 10.18,-16.84 3.7,-0.12 5.45,3.61 8.09,5.48 2.7,5.54 4.87,11.31 1.96,17.29 10.17,3.01 19.92,7.41 30.34,9.48 -0.1,-5.43 -0.22,-10.91 1.33,-16.17 8.35,0.29 17.63,-0.25 23.78,6.57 3.29,6.46 3.9,13.7 3.43,20.86 13.39,4.59 26.13,10.86 39.36,15.85 8.82,-2.89 15.9,-9.87 25.38,-11.26 4.77,-0.37 10.5,1.09 11.04,6.74l-0.84 -0.86c-4.54,5.88 -15.06,6.84 -16.47,14.52 9.31,4.32 18.35,9.23 27.61,13.73 1.78,-5.49 4.37,-10.67 8.37,-14.89 7.23,-3.11 16.91,-0.6 16.94,8.64 -2.08,5.7 -5.07,10.99 -7.98,16.3 13.33,5.5 23.66,18.09 38.52,19.38 5.93,-20.27 36.37,-18.67 44.69,-0.99 9.58,-2.49 19.01,-5.58 27.8,-10.17 -2.91,-3.53 -6.22,-7.04 -7.18,-11.66 -0.07,-6.27 4.99,-10.47 9.21,-14.29 -8.89,-7.06 -17.66,-14.3 -26.79,-21.04 -7.43,4.57 -16.47,4.49 -23.78,-0.22l-1.01 -1.58 -2 -0.82c-1.36,-3.06 -2.72,-6.15 -4.1,-9.18 0.76,-2.08 2.3,-6.2 3.06,-8.27 -10.94,-7.71 -22.37,-14.65 -33.83,-21.49 0.33,5.96 1.04,11.88 2.15,17.76 0.27,3.63 -0.07,7.08 -1.06,10.42 -5.83,0.71 -11.13,-2.72 -16.07,-5.34 -10.18,-6.17 -20.79,-16.49 -18.6,-29.58 1.26,-2.96 2.5,-5.9 3.73,-8.84 -13.85,-5.68 -27.85,-11.85 -42.89,-13.38 -1.45,-0.05 -4.37,-0.2 -5.82,-0.27l2.22 -3.85 2.39 3.13c0.33,-3.87 -0.32,-10.91 5.68,-10.02 7.9,-6.99 16.4,-13.28 24.57,-19.95 -2.02,-0.35 -6.05,-1.06 -8.07,-1.43 6.47,-8.47 10.54,-18.89 18.66,-26 6.23,-5.91 17.95,-2.84 19.88,5.7 11.41,-8.1 23.36,-15.31 35.14,-22.79 -5.34,-1.11 -10,-3.93 -15.02,-5.88 1.88,-6.81 7.71,-11.21 12.99,-15.38 8.59,-6.27 18.32,-12.67 29.46,-11.85 1.97,5.75 0.64,11.78 -0.35,17.6 10.37,-5.65 20.82,-11.21 31.58,-16.09 -2.74,-1.68 -4.86,-3.91 -6.42,-6.67 4.94,-10.22 13.98,-17.85 24.27,-22.32 1.07,0.15 3.21,0.47 4.3,0.61 -0.84,4.57 1.06,6.35 5.7,5.31 -0.44,1.21 -1.3,3.63 -1.72,4.84l4.05 -0.24 -1.51 3.82c6.15,-2.24 12.29,-4.54 18.3,-7.18 2.66,-1.78 5.55,-3.02 8.66,-3.68 -2.59,-3.36 -3.58,-7.73 -6.64,-10.69 1.9,-7.36 7.23,-13.73 14.69,-15.83 -3.95,-5.97 -7.13,-12.44 -11.8,-17.93 -52.03,12 -104.27,28.4 -148.72,58.84 -25.33,17.66 -48.96,42.18 -54.59,73.61 -0.52,0.44 -1.53,1.33 -2.02,1.78 0.12,-6.15 0.39,-12.28 0.44,-18.4 3.06,-10.32 5.26,-21.04 10.62,-30.52 15.38,-28.99 42.59,-49.65 71.16,-64.64 37.6,-19.7 78.81,-31.63 120.34,-39.73 -0.17,-1.87 -0.54,-5.63 -0.71,-7.5 -26.47,1.33 -52.89,4.02 -79.11,7.77 -11.14,1.76 -22.74,2.13 -33.21,6.67 -5.26,2.3 -11.04,-0.05 -16.47,1.19 -37.76,6.76 -74.97,16.39 -111.26,28.81 34.91,-17.18 71.97,-29.65 109.31,-40.39 2.69,-12.77 15.33,-24.84 28.98,-21.95 5.93,1.03 8.99,6.56 10.28,11.92 13.82,-2.52 27.5,-5.75 41.43,-7.83 -1.8,-3.55 -4.92,-7.31 -3.48,-11.55 4.05,-14.03 22.76,-24.13 35.72,-15.14 5.61,6.57 3.81,15.24 -0.64,21.88 5.83,-0.52 11.66,-1.09 17.48,-1.75 0.08,-1.24 0.2,-3.71 0.28,-4.94 -7.83,-4.92 -10.57,-13.95 -13.07,-22.3 -1.2,-9.55 -1.23,-20.47 6.62,-27.36 -32.32,-2.17 -64.71,-3.8 -97.13,-3.28 -4.28,8.1 -9.73,17.13 -19.51,18.99 -7.51,1.85 -18.45,4.86 -23.65,-2.92 -2.38,-5.87 3.28,-10.66 6.14,-15.16 -4.51,0.2 -9.01,0.55 -13.48,1.26 -0.74,-1.16 -2.22,-3.5 -2.99,-4.66 0.4,1.18 1.14,3.58 1.53,4.76 -16.79,0.22 -33.43,2.62 -50.07,4.62l1.78 -3.31c16.29,-4.44 32.99,-7.11 49.58,-10.2 2.42,2.13 5.18,4.03 8.64,3.58 14.49,-1.08 28.96,-2.89 43.53,-2.86l1.41 -2.77c-13.29,0.69 -26.52,2.18 -39.68,3.98 -4.32,0.57 -9.65,1.46 -12.94,-2.2 11.01,-1.36 22,-2.91 33.01,-4.35 14.03,-3.35 28.6,-2 42.89,-3.65 -4.27,-5.95 -0.89,-13.93 6.1,-15.38 14.37,-3.24 30.25,2.71 40.2,13.36 7.23,0.14 14.47,0.37 21.7,0.96 -8.34,-10.67 -12.12,-25.14 -9.18,-38.42 1.83,-7.73 8.79,-12.84 16.44,-13.98 -26.54,-8.17 -53.36,-15.48 -80.39,-21.82 2.07,10.07 2.66,21.01 -1.56,30.61 -1.46,3.56 -5.21,6.82 -9.28,5.73 -11.73,-2.49 -20,-11.95 -28.08,-20.05 2.5,-7.85 5.95,-15.4 10.57,-22.24 -5.63,-1.26 -11.38,-2.15 -17.08,-2.89 2.91,-1.44 5.75,-4.13 9.3,-2.87 25.31,3.09 50.33,8.42 75.07,14.62 56.07,14.59 111.01,33.68 163.97,57.16 0.35,-3.36 4.82,-8.99 -0.64,-10.27 -63.16,-26.2 -129.26,-45.71 -196.69,-57.11 -3.95,1.11 -7.66,-2.1 -5.21,-5.63 8.22,1.41 16.49,2.69 24.76,3.9 -4.15,-5.53 -7.82,-12.25 -6.34,-19.43 2.29,-12.65 5.78,-25.02 8.86,-37.46l0.45 -0.17c2.91,-10.08 6.64,-19.95 12.1,-28.92 -34.5,22 -78.45,36.1 -118.42,20.89zm136.12 30.82l0 0c1.75,10.84 6.02,21.06 7.97,31.9 -0.47,3.41 -1.38,6.76 -2.66,9.97 10.07,2.18 20.07,4.65 30.1,7.12l-0.35 0.27c7.04,0.89 13.88,5.13 20.86,4.69 5.51,-8.57 11.46,-16.82 18.13,-24.52 -26.67,-2.72 -54.64,-9.75 -74.05,-29.43zm181.85 58.89l0 0c-4.91,16.64 -2.89,34.84 5.04,50.22 6.37,-10.42 17.36,-19.09 30.39,-16.15 -14.49,-8.22 -25.45,-21.01 -35.43,-34.07zm219.85 27.4l0 0c6.6,-0.61 8.92,-7.95 14.4,-10.79 3.75,-3.6 9.48,-1.97 13.63,-4.74 23.53,1.14 46.27,7.91 69.18,12.89l-0.69 -2.05c-15.73,-7.7 -31.58,-15.31 -48.42,-20.27 -4.15,-0.79 -8.86,-0.1 -12.44,-2.62 -1.93,0 -5.73,-0.02 -7.66,-0.02 -13.18,3.58 -29.31,11.21 -28,27.6zm118.62 -2.91l0 0c-1.06,0.79 -3.21,2.37 -4.27,3.16 3.33,0.94 6.76,1.16 10.27,0.64 11.28,-3.87 24.12,-1.7 35.61,1.04 6.98,1.68 11.23,8.49 10.22,15.58 6.07,-2.79 7.7,-9.38 7.43,-15.48 -7.63,-7.43 -18.02,-11.75 -28.74,-10.37 -10.69,-1.31 -20.22,4.1 -30.52,5.43zm-458.12 6.44l0 0c-1.76,9.78 -3.88,19.54 -4.23,29.51 13.49,1.51 26.99,2.47 40.42,4.37 2.37,-9.85 5.98,-19.33 10.18,-28.52 -7.81,-3.4 -15.71,-6.66 -23.9,-8.94 -7.71,0.05 -14.79,5.46 -22.47,3.58zm546.91 11.96l0 0c-3.58,11.08 -9.51,21.92 -19.38,28.56 -4.57,3.71 -11.19,5.21 -13.81,10.92 -5.7,10.52 -9.77,22.17 -18.12,31.06 -15.43,16.86 -35.06,29.06 -54.39,40.91 0.56,10.79 -1.58,21.63 -6.82,31.14 13.76,4.2 27.01,13.85 30.47,28.52 5.09,21.06 -2.44,42.66 -11.65,61.45 10.27,-4.44 19.77,-10.51 28.42,-17.65 31.01,-25.73 54.94,-60.12 67.5,-98.47 12.13,-37.58 12.1,-79.51 -2.22,-116.44zm-684.22 22.91l0 0 -1.26 2.54c58.74,-1.41 117.5,2.99 175.63,11.61 10.99,1.38 21.83,3.97 32.96,4.47 -0.02,-2.03 -0.07,-6.08 -0.07,-8.1 -68.4,-11.46 -138.1,-14.57 -207.26,-10.52zm715.6 22.2l0 0c-0.02,2.91 0,5.85 0,8.79 88.45,-10.2 178.4,-12.6 266.5,1.92 -39.09,-8.99 -79.16,-12.74 -119.14,-15.06 -49.13,-1.85 -98.47,-1.38 -147.36,4.35zm-558.27 -3.76l0 0c0.89,11.19 -1.88,29.86 -17.23,27.51 1.65,5.9 3.7,11.73 6.52,17.21 7.85,-0.69 15.72,-0.52 23.6,-0.57 -1.78,-14.05 -1.93,-28.27 -0.67,-42.37 -4.05,-0.81 -8.15,-1.41 -12.22,-1.78zm-116.52 62.23l0 0c-34.86,6.02 -69.95,12.66 -103.4,24.39 83.53,-21.63 170.19,-28.57 256.27,-27.88 -0.1,-2.79 -0.18,-5.55 -0.25,-8.32 -51.11,-1.01 -102.17,3.86 -152.62,11.81zm672.03 -2.57l0 0c-0.42,1.92 -1.29,5.73 -1.71,7.63 88.23,11.23 176.2,30.47 258.1,65.92 -20.94,-11.23 -43.21,-19.75 -65.43,-28.05 -56.35,-20.24 -114.67,-35.06 -173.85,-44.19 -5.65,-0.97 -11.41,-1.29 -17.11,-1.31zm-555.61 6.02l0 0c8.1,13.83 17.29,27.31 28.99,38.35 -4.44,-12.87 -9.06,-25.66 -12.05,-38.94 -5.65,0.27 -11.31,0.47 -16.94,0.59zm-32.81 23.46l0 0c5.75,12.59 12.17,24.89 18.1,37.43 6.54,-2.1 13.08,-4.25 19.63,-6.37 -1.26,-2.47 -3.31,-4.32 -5.54,-5.8 -11.21,-7.8 -21.67,-16.59 -32.19,-25.26zm283.87 55.53l0 0c2.62,4.62 8.18,5.88 12.92,7.28 18.62,4.2 37.97,3.73 56.91,2.28 21.48,-1.26 42.13,-9.88 63.88,-7.98 13.18,0.57 26.1,3.95 38.07,9.48 1.26,-9.45 2.72,-19.83 -1.63,-28.74 -17.55,-10.39 -38.24,-15.9 -58.69,-14.27 -35.38,15.85 -72.96,26.99 -111.46,31.95zm-434.02 68.25l0 0c-2.35,1.36 -4.42,3.04 -6.2,5.11 73.85,-42.89 154.69,-72.54 236.99,-94.54 -1.19,-2.79 -2.35,-5.56 -3.48,-8.33 -79.68,22.13 -156.67,54.7 -227.31,97.76zm721.78 -88.1l0 0c55.83,22.99 110.59,48.91 162.12,80.44 21.61,12.67 41.56,27.95 62.22,41.93 -23.08,-20.54 -48.86,-37.75 -74.71,-54.57 -45.9,-29.14 -94.27,-54.3 -144.42,-75.26 -1.76,2.47 -3.51,4.96 -5.21,7.46zm-544.65 21.33l0 0c17.98,41.73 35.19,83.98 46.92,127.95 7.28,27.81 15.01,55.76 27.6,81.71 8.28,16.84 19.07,33.53 35.41,43.45 17.53,11.02 40.15,9.53 58.74,2.03 20.47,-8.47 42.03,-14.52 64.08,-16.99 22.05,-2.72 44.32,-0.59 66.47,-1.63 10.22,-0.77 21.16,-3.16 28.86,-10.42 4.05,-3.6 4.3,-11.8 -1.68,-13.51 -9.83,-3.7 -18.81,3.81 -28.1,5.88 -10.22,3.09 -20.84,1.31 -31.08,-0.34 -30.65,7.6 -62.55,9.35 -93.88,5.77 -4.99,7.29 -11.7,13.61 -19.98,16.89 -17.6,1.48 -37.4,0.67 -51.21,-11.83 -10.32,-10.66 -14.02,-26.07 -14.98,-40.46 3.23,-1.34 6.47,-2.7 9.72,-4.08 -16.14,-21.75 -31.38,-44.52 -41.28,-69.87 -15.73,-38.1 -20.52,-81.58 -8.77,-121.46 -3.33,-1.53 -6.69,-3.06 -10.02,-4.57 -12.35,3.53 -24.62,7.38 -36.82,11.48zm65.34 -0.99l0 0c-16.59,58.67 5.38,121.51 42.34,167.73 2.6,5.04 7.83,0.32 11.29,-0.98 23.53,-12.45 36.32,-37.73 42.67,-62.55 14.09,16.89 19.01,39.06 24.56,59.85 37.9,2.82 76.52,-6.12 110.69,-22.44 1.91,-16.62 0.57,-33.68 -4.88,-49.53 -9.19,-27.41 -28.87,-50.35 -52.18,-66.96 -23.01,18.49 -30.12,49.75 -32.94,77.77 -34.69,-19.82 -53.18,-60.19 -54.79,-99.08 -9.11,0.24 -18.24,0.47 -27.33,0.81 -6.22,0.08 -5.48,8.22 -7.18,12.52 -6.08,39.24 5.11,78.4 14.96,116.07 -11.8,-9.4 -20.1,-22.59 -25.58,-36.49 -11.19,-29.04 -11.34,-60.99 -7.58,-91.48 -11.48,-0.82 -23.11,-1.41 -34.05,-5.24zm109.5 2.25l0 0c1.86,23.33 10.33,46.82 26.92,63.73 -3.93,-23.19 8.86,-44.72 22.05,-62.67 -16.13,3.14 -33.14,3.78 -48.97,-1.06zm-211.38 11.31l0 0c-7.53,2.76 -15.04,5.61 -22.54,8.35 -27.8,10.39 -55.14,21.99 -81.98,34.66 3.58,2.35 7.21,4.72 10.82,7.04 7.26,-2.4 17.41,-3.85 22.37,3.43 4.25,4.52 0.52,10.32 -0.62,15.29 22.74,20.81 41.36,45.8 58.47,71.33 2.17,-8.94 4.47,-22.2 15.93,-23.11 6.19,-1.53 12.56,4.76 10.24,11.01 -1.9,10.57 -10.49,17.93 -19.11,23.41 7.88,12.15 15.24,24.61 21.9,37.48 4.05,-7.06 10.92,-11.61 17.68,-15.78 6.25,9.19 7.98,20.62 13.19,30.42 -6.89,2.32 -14.15,2.94 -21.38,2.94 5.08,10.86 10.64,21.51 15.4,32.54 -4.64,10.82 -9.8,21.61 -17.68,30.5 27.11,30 66.77,46.66 106.79,48.91 -9.95,13.85 -24.32,24.22 -40.76,28.91 2.15,1.71 4.57,2.94 7.23,3.81 33.04,12.04 69.29,13.45 103.68,7.11 -5.55,12.86 -13.65,25.03 -25.97,32.27 44.19,-5.26 89.13,-17.19 125.9,-43.19 -1.46,13.02 -4.3,25.98 -10.25,37.76 49.85,-24.25 87.65,-73.51 93.78,-129.16 -11.93,2.37 -24.91,3.92 -36.08,-2.2 5.16,14.29 3.02,31.16 -7.9,42.22 0.35,-15.19 -10.29,-27.46 -22.96,-34.37 7.11,12.64 4.81,27.48 0.89,40.72 -14.82,-5.49 -22.79,-20.2 -26.84,-34.57 -2.96,19.01 -16.05,34.34 -30.49,46.15 5.85,-13.34 6.59,-28.5 2.02,-42.35 -8.64,19.09 -28.77,28.99 -47.65,35.19 5.65,-10.3 11.21,-21.16 11.45,-33.19 -11.58,12.07 -27.33,18.52 -42.57,24.64 6.25,-9.26 9.26,-20.37 8.33,-31.5 -34.52,4.71 -68.23,-14.74 -87.83,-42.35 0.17,5.14 0.2,10.32 0.1,15.48 -4.25,0.15 -8.32,-1.03 -12.35,-2.07 -1.95,-2.74 -6.67,-3.9 -6.24,-7.93l-3.36 0.94 1.8 -4.64c-1.01,-0.17 -3.04,-0.5 -4.05,-0.67l1.21 -3.73c-0.86,-0.32 -2.59,-0.96 -3.43,-1.28l1.16 -3.19 -4.15 1.34c0.57,-1.41 1.73,-4.22 2.3,-5.63l-3.98 0.76c1.88,-5.43 -3.26,-9.21 -2.89,-14.64 4.08,-5.58 8.96,-10.64 15.51,-13.21 -5.24,-13.97 -8.94,-28.49 -14.25,-42.42 -4.49,2.99 -9.38,5.36 -14.47,7.16 -1.45,-0.49 -4.37,-1.53 -5.85,-2.02 0.15,-11.19 6.42,-21.04 13.95,-28.84 -2.84,-9.56 -5.75,-19.06 -8.32,-28.69 -5.65,2.84 -11.88,4.91 -18.25,3.43l-0.1 -0.57 -0.71 -0.39c-2.2,-8.23 -5.56,-16.1 -7.34,-24.42 5.04,-3.63 10.84,-6.03 16.92,-7.31 -2.62,-8.05 -5.29,-16.08 -8.1,-24.05 -6,3.97 -13.06,6.27 -20.03,3.33 -1.58,-1.92 -2.32,-4.1 -2.24,-6.49l-3.01 1.23c0.17,-2.02 0.47,-6.07 0.61,-8.1l-2.93 0.62c-0.1,-1.88 -0.3,-5.63 -0.4,-7.51 3.01,-7.18 8.69,-16.24 17.48,-9.97 -2.52,-6.03 -5.06,-12.03 -7.78,-17.93 -6.84,2.18 -13.58,4.57 -20.27,7.09zm548.27 10.99l0 0c48.92,46.07 94.84,95.63 134.15,150.24 12.25,16.28 22.3,34.13 33.71,50.89 -20.65,-40.27 -47.24,-77.21 -75.07,-112.79 -26.61,-32.99 -54.59,-65.11 -85.82,-93.8 -2.37,1.78 -4.65,3.63 -6.97,5.46zm-122.29 4.54l0 0c-4.08,8.99 -5.8,18.91 -7.21,28.64 -0.74,10.6 -1.66,23.39 7.23,31.06 15.44,-14.84 24.89,-34.81 30.25,-55.33 -8.79,-4.91 -20.89,-10.37 -30.27,-4.37zm-622.77 78.22l0 0c-7.08,4.79 -14.96,8.92 -20.32,15.78 20.15,-3.53 40.94,-2.54 60.77,2.44 41.38,10.13 77.95,33.21 111.92,58.15 -8.29,-29.31 -19.95,-57.63 -34.34,-84.47 -3.04,3.86 -5.44,8.79 -10.32,10.65 -3.39,0.93 -6.57,-1.53 -8.25,-4.2 -7.43,-11.19 -7.63,-26.47 -0.92,-38.05 -2.44,-3.68 -5.13,-7.14 -7.92,-10.49 -30.99,15.25 -61.7,31.23 -90.62,50.19zm44.32 -32.12l0 0c1.36,1.48 1.36,1.48 0,0zm506.94 61.41l0 0c-5.33,17.28 -11.8,35.92 -26.89,47.16 6.27,6.84 11.48,14.56 15.61,22.89 9.75,-8.33 17.13,-19.83 18.91,-32.67 2.3,-12.94 -1.92,-25.9 -7.63,-37.38zm-157.95 7.73l0 0c-10.02,24.04 -28.54,44.56 -51.6,56.79 2.27,15.28 18.02,24.34 32.66,22.49 8.82,1.6 13.78,-6.4 17.61,-12.86 11.53,-20.08 10.79,-45.73 1.33,-66.42zm99.41 54.66l0 0c-2.92,-6.47 -2.87,-15.6 -9.66,-19.48 -8.39,1.48 -6.66,12.64 -9.53,18.79 -4.05,-6.44 -4.64,-18.96 -14.84,-17.53 -2.69,5.8 -3.85,12.12 -5.9,18.17 -2.57,-6.22 -4.2,-17.68 -13.13,-17.01 -5.95,4.62 -3.46,13.51 -7.29,19.36 -3.45,-6.25 -2.89,-14.45 -8.44,-19.43 -8.1,4.84 -9.9,15.67 -11.38,24.27 32.91,4.49 67.53,4.34 98.98,-7.41 -0.76,-7.92 -0.42,-17.93 -9.03,-21.75 -7.81,4.59 -4.57,15.33 -9.78,22.02z"/>
   <path class="fil2" d="M945.56 519.33c12.66,-3.63 24.02,-10.47 36.34,-14.91 -3.08,12.44 -6.57,24.81 -8.86,37.46 -1.48,7.18 2.19,13.9 6.34,19.43 -8.27,-1.21 -16.54,-2.49 -24.76,-3.9 -2.45,3.53 1.26,6.74 5.21,5.63 67.43,11.4 133.53,30.91 196.69,57.11 5.46,1.28 0.99,6.91 0.64,10.27 -52.96,-23.48 -107.9,-42.57 -163.97,-57.16 -24.74,-6.2 -49.76,-11.53 -75.07,-14.62 -3.55,-1.26 -6.39,1.43 -9.3,2.87 5.7,0.74 11.45,1.63 17.08,2.89 -4.62,6.84 -8.07,14.39 -10.57,22.24 8.08,8.1 16.35,17.56 28.08,20.05 4.07,1.09 7.82,-2.17 9.28,-5.73 4.22,-9.6 3.63,-20.54 1.56,-30.61 27.03,6.34 53.85,13.65 80.39,21.82 -7.65,1.14 -14.61,6.25 -16.44,13.98 -2.94,13.28 0.84,27.75 9.18,38.42 -7.23,-0.59 -14.47,-0.82 -21.7,-0.96 -9.95,-10.65 -25.83,-16.6 -40.2,-13.36 -6.99,1.45 -10.37,9.43 -6.1,15.38 -14.29,1.65 -28.86,0.3 -42.89,3.65 -11.01,1.44 -22,2.99 -33.01,4.35 3.29,3.66 8.62,2.77 12.94,2.2 13.16,-1.8 26.39,-3.29 39.68,-3.98l-1.41 2.77c-14.57,-0.03 -29.04,1.78 -43.53,2.86 -3.46,0.45 -6.22,-1.45 -8.64,-3.58 -16.59,3.09 -33.29,5.76 -49.58,10.2l-1.78 3.31c16.64,-2 33.28,-4.4 50.07,-4.62 -0.39,-1.18 -1.13,-3.58 -1.53,-4.76 0.77,1.16 2.25,3.5 2.99,4.66 4.47,-0.71 8.97,-1.06 13.48,-1.26 -2.86,4.5 -8.52,9.29 -6.14,15.16 5.2,7.78 16.14,4.77 23.65,2.92 9.78,-1.86 15.23,-10.89 19.51,-18.99 32.42,-0.52 64.81,1.11 97.13,3.28 -7.85,6.89 -7.82,17.81 -6.62,27.36 -1.01,1.78 -3.03,5.33 -4.05,7.11 -12.96,-8.99 -31.67,1.11 -35.72,15.14 -1.44,4.24 1.68,8 3.48,11.55 -13.93,2.08 -27.61,5.31 -41.43,7.83 -1.29,-5.36 -4.35,-10.89 -10.28,-11.92 -13.65,-2.89 -26.29,9.18 -28.98,21.95 -37.34,10.74 -74.4,23.21 -109.31,40.39 36.29,-12.42 73.5,-22.05 111.26,-28.81 5.43,-1.24 11.21,1.11 16.47,-1.19 10.47,-4.54 22.07,-4.91 33.21,-6.67 1.65,0.3 4.93,0.92 6.56,1.21 -22.37,10.5 -45.65,19.63 -66.17,33.71 -5.73,4.12 -11.55,8.15 -17.51,11.95 0.45,-7.68 -3.03,-17.75 -12.12,-18.05 -13.31,-0.4 -23.48,13.6 -23.53,26.05 -0.3,7.6 7.51,13.5 14.79,11.21 -3.73,10.1 -11.83,17.7 -15.9,27.63 -5.38,12.91 -10.22,26.69 -8.42,40.91 -0.05,6.12 -0.32,12.25 -0.44,18.4 0.49,-0.45 1.5,-1.34 2.02,-1.78 11.28,-6.42 18.35,-18.05 29.88,-24.17 14.19,-9.14 31.11,-13.04 47.87,-12.6 5.02,1.95 9.68,4.77 15.02,5.88 -11.78,7.48 -23.73,14.69 -35.14,22.79 -1.93,-8.54 -13.65,-11.61 -19.88,-5.7 -8.12,7.11 -12.19,17.53 -18.66,26 2.02,0.37 6.05,1.08 8.07,1.43 -8.17,6.67 -16.67,12.96 -24.57,19.95 -6,-0.89 -5.35,6.15 -5.68,10.02l-2.39 -3.13 -2.22 3.85c1.45,0.07 4.37,0.22 5.82,0.27 11.83,9.29 25.93,15.19 39.16,22.22 -2.19,13.09 8.42,23.41 18.6,29.58 4.94,2.62 10.24,6.05 16.07,5.34 0.99,-3.34 1.33,-6.79 1.06,-10.42 11.76,5.78 20.52,16.32 32.72,21.18l2 0.82 1.01 1.58c9.11,12.42 23.98,19.21 33.9,31.01 -0.22,0.89 -0.61,2.67 -0.81,3.56 -17.19,8.56 -37.26,7.97 -55.88,6.12 -11.26,-4.64 -20.86,-12.47 -31.7,-18 -0.03,-9.24 -9.71,-11.75 -16.94,-8.64 -6.27,-4.1 -13.41,-7.04 -18.67,-12.5 -0.54,-5.65 -6.27,-7.11 -11.04,-6.74 -10.02,0.47 -18.59,-5.5 -27.6,-8.96 -13.26,-6.17 -27.36,-10.3 -40.57,-16.49 -6.15,-6.82 -15.43,-6.28 -23.78,-6.57 -9.92,-6.55 -21.9,-9.48 -33.63,-10.6 -2.64,-1.87 -4.39,-5.6 -8.09,-5.48 -5.73,-0.61 -11.39,-1.63 -16.89,-3.28 -0.94,-3.09 -1.81,-6.12 -2.82,-9.14 -1.55,-4.64 -3.97,-8.86 -6.47,-13.01 2.57,-10.59 5.61,-21.06 8.47,-31.55 14.13,22.14 34.94,41.01 60.94,47.53 -26.25,-26.42 -42.62,-62.18 -46.07,-99.19 -0.5,-3.6 0.79,-7.04 1.6,-10.44 11.14,-40.69 21.71,-81.51 32.92,-122.15 1.03,0.59 3.11,1.83 4.14,2.44 -1.38,6.4 -4.05,12.42 -6.19,18.6 10.42,-2.45 20.19,-11.09 31.25,-8.45 -3.25,5.78 -6.29,11.88 -7.16,18.52 -0.76,3.73 0.3,8.57 4.79,9.01 2.25,-0.81 6.7,-2.47 8.94,-3.31 0.92,9.24 -4.19,17.51 -5.95,26.32 -5.85,20.15 -4.32,41.36 -3.8,62.08 0.37,12.2 6.67,23.83 4.91,36.1 -6.14,-4.79 -14.1,-3.38 -21.31,-3.63 -1.08,8.64 -4.22,19.48 2.89,26.39 5.24,4.97 13.31,8.84 20.5,6.2 6.29,-7.04 4.98,-17.7 1.16,-25.63 -3.41,-36.71 1.63,-74.84 18,-108.1 8.71,-21.53 23.28,-39.78 37.06,-58.17 6.77,-0.02 15.06,-0.49 19.06,-6.89 4.91,-8.15 6.94,-18.15 4.87,-27.48 -8.18,-2.22 -15.76,3.18 -22.3,7.38 -7.24,5.06 -13.75,11.11 -19.09,18.15 4.22,-12.81 6.74,-26.15 10.69,-39.06 1.76,-1.14 5.26,-3.38 7.02,-4.52l-6.18 1.23c5.44,-20.54 10.89,-41.06 16.72,-61.5 3.43,8.05 11.33,16.69 20.86,14.81 7.93,-1.4 10.23,-10.71 10.05,-17.55 -0.27,-8.94 -3.01,-20.5 -12.74,-23.43 -4.76,-2.13 -8.74,1.97 -12.47,4.22 2.4,-9.31 4.97,-18.57 7.34,-27.88 16.96,1.61 33.9,3.88 50.66,7.04 2.35,-3.39 -0.42,-10.45 -6.17,-5.24 2.05,-0.84 6.1,-2.52 8.12,-3.35 -17.21,-0.89 -34.42,-2.2 -51.65,-1.86 3.16,-12.59 7.11,-24.98 9.75,-37.7 13.43,4.3 27.24,7.26 40.87,10.86 1.26,8.23 10.27,13.11 18.02,11.61 8.84,-1.51 15.41,-8.57 19.66,-16.03zm-90.45 403.31c28.92,-18.96 59.63,-34.94 90.62,-50.19 2.79,3.35 5.48,6.81 7.92,10.49 -6.71,11.58 -6.51,26.86 0.92,38.05 1.68,2.67 4.86,5.13 8.25,4.2 4.88,-1.86 7.28,-6.79 10.32,-10.65 14.39,26.84 26.05,55.16 34.34,84.47 -33.97,-24.94 -70.54,-48.02 -111.92,-58.15 -19.83,-4.98 -40.62,-5.97 -60.77,-2.44 5.36,-6.86 13.24,-10.99 20.32,-15.78zm745.06 -82.76c2.32,-1.83 4.6,-3.68 6.97,-5.46 31.23,28.69 59.21,60.81 85.82,93.8 27.83,35.58 54.42,72.52 75.07,112.79 -11.41,-16.76 -21.46,-34.61 -33.71,-50.89 -39.31,-54.61 -85.23,-104.17 -134.15,-150.24zm32.92 -44.89c1.7,-2.5 3.45,-4.99 5.21,-7.46 50.15,20.96 98.52,46.12 144.42,75.26 25.85,16.82 51.63,34.03 74.71,54.57 -20.66,-13.98 -40.61,-29.26 -62.22,-41.93 -51.53,-31.53 -106.29,-57.45 -162.12,-80.44zm-721.78 88.1c70.64,-43.06 147.63,-75.63 227.31,-97.76 1.13,2.77 2.29,5.54 3.48,8.33 -82.3,22 -163.14,51.65 -236.99,94.54 1.78,-2.07 3.85,-3.75 6.2,-5.11zm738.57 -153.26c5.7,0.02 11.46,0.34 17.11,1.31 59.18,9.13 117.5,23.95 173.85,44.19 22.22,8.3 44.49,16.82 65.43,28.05 -81.9,-35.45 -169.87,-54.69 -258.1,-65.92 0.42,-1.9 1.29,-5.71 1.71,-7.63zm-672.03 2.57c50.45,-7.95 101.51,-12.82 152.62,-11.81 0.07,2.77 0.15,5.53 0.25,8.32 -86.08,-0.69 -172.74,6.25 -256.27,27.88 33.45,-11.73 68.54,-18.37 103.4,-24.39zm674.79 -58.47c48.89,-5.73 98.23,-6.2 147.36,-4.35 39.98,2.32 80.05,6.07 119.14,15.06 -88.1,-14.52 -178.05,-12.12 -266.5,-1.92 0,-2.94 -0.02,-5.88 0,-8.79zm-715.6 -22.2c69.16,-4.05 138.86,-0.94 207.26,10.52 0,2.02 0.05,6.07 0.07,8.1 -11.13,-0.5 -21.97,-3.09 -32.96,-4.47 -58.13,-8.62 -116.89,-13.02 -175.63,-11.61l1.26 -2.54zm83.08 -92.79c10.23,6.67 22.77,7.18 33.49,12.25 -1.51,1.21 -4.55,3.63 -6.05,4.84 -10.03,-2.47 -20.03,-4.94 -30.1,-7.12 1.28,-3.21 2.19,-6.56 2.66,-9.97zm185.21 -86.27c12.13,4.66 22.92,12.24 34.33,18.42 -14.57,2.05 -29.02,4.94 -43.26,8.54 -6.94,-5.23 -15.09,-8.35 -23.71,-9.26 13.41,2.42 27.29,-5.26 32.64,-17.7zm234.08 -10.89c8.52,6.29 17.23,12.39 24.79,19.85l0.52 0.49c-3.36,4.84 -3.34,10.55 -1.93,16.03 -7.68,-6.27 -15.04,-12.91 -23.18,-18.59 1.63,-5.85 0.84,-11.88 -0.2,-17.78zm-300.32 -27.11c4.52,2.64 9.13,5.18 13.8,7.63 -6.45,8.59 -7.83,20 -3.83,29.95 -7.18,-3.14 -14.1,-6.87 -20.49,-11.41 0.79,-9.58 4.81,-18.52 10.52,-26.17zm281.92 -11.29c11.78,5.39 22.99,11.95 34,18.79 0.08,10.13 10.4,14.25 19.16,12.87 27.21,19.23 52.99,41.08 74.69,66.39 -9.13,-2.07 -16.37,-8.42 -24.98,-11.7 -9.9,-3.9 -20.37,-5.93 -30.69,-8.32 0.07,-3.98 -0.18,-7.95 -0.77,-11.85 -1.95,-8.79 -9.13,-19.9 -19.65,-15.88 -0.4,0.27 -1.19,0.84 -1.58,1.14 -8.37,-9.78 -19.41,-16.6 -29.93,-23.78 -9.19,-6.05 -18.15,-12.69 -28.64,-16.27 0.39,-0.55 1.21,-1.61 1.6,-2.13 2.32,-3.03 4.6,-6.12 6.79,-9.26zm-333.65 14.52c2.74,-8.99 8.79,-16.52 16.22,-22.1 4.03,1.9 8,3.9 11.93,5.98 -5.21,8.15 -8.92,17.23 -9.86,26.91 -6.14,-3.53 -12.27,-7.11 -18.29,-10.79zm42.99 -92.66c23.18,4.22 41.5,21.97 64.61,26.96 7.31,1.28 13.78,5.28 17.46,11.85 -7.9,-3.78 -15.21,-8.84 -23.46,-11.85 -4.14,-1.43 -11.13,-0.92 -11.95,4.47 -1.28,9.7 4.64,18.66 10.47,25.9 -3.16,0.12 -6.44,0.32 -9.23,-1.41 -10.67,-5.21 -20.94,-11.13 -31.73,-16.05 2.57,-4.49 4.96,-9.11 7.21,-13.78 -5.21,-10.69 -13.93,-19.11 -23.38,-26.09zm-495.91 -54.62c16.05,-2.13 31.91,3.16 46.33,9.73 17.11,8.1 33.11,18.42 47.77,30.39 -15.55,-0.02 -31.13,0.57 -46.64,-0.24 -7.75,-3.59 -15.73,-6.52 -23.53,-9.96 11.11,-0.29 22.27,-0.47 33.38,0.57 -14.74,-16.32 -36.71,-24.12 -57.31,-30.49zm-178.79 -82.35c7.12,6.6 12.15,15.09 18.84,22.1 26.84,30.47 56.72,60.57 94.89,76.32 -8.89,4.45 -19.26,4.1 -28.94,4.52 10.3,8.67 22.72,14.1 34.87,19.58 -14.03,0.12 -28.03,0 -42.03,0.12 -7.03,0.7 -12.09,-5.13 -17.63,-8.47 -16.1,-10.81 -29.35,-25.08 -41.06,-40.41 3.58,17.08 10.1,33.43 18.25,48.81 -9.33,-0.12 -18.67,0.4 -27.98,-0.37 -14.91,-38.35 -22.98,-82.4 -9.21,-122.2zm659.44 -150.54c27.73,5.83 52.22,21.28 74.89,37.7 32.98,24.82 63.23,53.88 87.31,87.48 -21.51,-8.54 -44.8,-9.7 -67.31,-13.95 -15.66,-17.65 -31.21,-36.29 -51.34,-49.28 8.84,13.9 15.58,29.14 19.21,45.21 -14.49,-1.6 -28.96,-3.75 -43.53,-4.4 1.09,-35.13 -6.39,-70.17 -19.23,-102.76zm-11.9 144.81c2.49,-0.39 5.03,-0.47 7.55,-0.29 4.15,1.16 8.35,2.59 12.74,2.54 20.74,0.22 41.56,-1.23 62.25,1.01 3.53,0.52 7.01,-0.42 10.44,-1.21 6,-0.44 12.05,-0.39 18.08,-0.52 -0.3,1.07 -0.89,3.17 -1.19,4.2 17.39,-0.29 34.62,5.29 51.95,2.47 3.83,-0.05 7.09,2.84 10.6,4.2 -11.44,3.21 -22.47,9.65 -28.47,20.2 -23.46,-3.88 -47.34,-4.5 -70.97,-2.23 -24.54,-12.22 -52.98,-17.65 -80.12,-12.59 -18.69,3.38 -36.17,11.93 -51.21,23.38 2.42,-8.07 -0.37,-18.27 -8.67,-21.68 -10.44,-5.01 -21.28,2.23 -29.68,8.03 -7.6,6.1 -16.44,12.91 -18.44,23.01 -0.94,4.27 3.38,7.04 7.01,7.63 11.93,2.25 24.13,-0.66 35.39,-4.57 -7.29,8.1 -14.65,16.18 -20.57,25.34 0.91,-0.52 2.76,-1.58 3.7,-2.13 15.33,-3.03 30.27,-7.75 45.7,-10.34 9.26,-1.8 18.82,-1.83 27.93,-4.5 10.12,2.92 20.64,2.23 31.01,2.05 5.61,0.97 10.99,2.89 16.22,5.11 26.52,11.86 52.57,24.8 79.02,36.87 17.13,7.95 33.63,17.63 51.83,23.04 2.51,1.33 4.32,3.67 6.46,5.5 -3.9,-16.99 -13.33,-31.95 -23.28,-46 10.35,-0.25 19.73,7.56 29.93,5.26 0.74,0.17 2.22,0.54 2.96,0.74l-3.41 1.11c8.64,5.11 18.35,7.98 27.09,12.94 9.13,4.82 16.76,11.95 25.46,17.48l-0.84 0.84c-6.92,8.08 2.12,16.74 9.38,20.2 1.83,1.11 3.68,2.17 5.6,3.19 -2.94,8.49 -2.02,17.75 -4.59,26.34 -5.01,-5.09 -13.33,-8.37 -19.38,-2.94 -9.34,8.57 -9.58,25.43 -1.09,34.67 1.38,1.14 4.12,3.38 5.48,4.49 -14.02,9.56 -29.78,16.15 -45.95,21.09 23.8,1.01 48,-2.42 69.8,-12.4 4.84,12.65 15.09,24.97 29.12,27.17 7.35,0.74 9.16,-6.4 9.77,-12.13 7.76,1.51 15.36,3.76 22.77,6.57 -3.41,1.18 -6.62,2.74 -9.66,4.59 0.82,2.47 2.47,7.46 3.31,9.93 -27.23,-11.41 -57.68,-4.45 -83.5,7.28 -2.94,-10.94 -10.84,-21.26 -21.88,-24.76 -10.94,-2.15 -16.12,10.54 -16.67,19.38 -6.14,-3.7 -12.27,-7.51 -17.6,-12.35 10.47,-5.8 8.29,-20.79 2.74,-29.33 -7.46,-11.6 -24.12,-13.7 -35.24,-6.3 1.54,6.74 4.97,12.82 9.41,18.08 -1.01,0.47 -3.01,1.38 -4.02,1.85 -9.98,-5.23 -19.53,-11.31 -29.21,-17.06 12.37,-5.24 11.97,-20.47 6,-30.47 8.32,3.43 15.95,8.39 24.59,11.11 -12.72,-18.05 -32.79,-29.04 -48.86,-43.83 6.69,0.7 16.51,3.9 20.98,-2.96 2.52,-8.27 -1.21,-17.06 -6.05,-23.7 -4.71,-6.15 -13.11,-14 -21.18,-8.89 -6.82,5.6 -11.24,13.5 -15.38,21.13 5.92,4.35 11.9,8.62 17.87,12.89 -13.08,-0.74 -18.1,-14.37 -28.84,-19.55 -18.96,-10.84 -39.13,-20.25 -60.76,-24.2 -10.25,-1.98 -20.72,-0.15 -31.01,0.2 8.47,-7.11 10.59,-19.66 6.54,-29.71 -11.26,-0.05 -23.09,2.27 -32.27,9.11 -3.83,2.99 -8.45,8.47 -4.67,13.26 5.85,8.35 17.38,10.62 26.91,8.92 -1.95,2.34 -3.75,4.81 -5.55,7.26 10.22,3.55 21.09,4.93 31.28,8.61 12.5,4.37 24.77,9.41 37.02,14.4 -0.35,0.54 -1.09,1.58 -1.46,2.12 -7.66,8.77 -4.13,21.58 1.8,30.27 -13.51,0.08 -25.18,-8.81 -38.3,-11.5 0.35,-1.16 0.99,-3.46 1.34,-4.62 5.01,-2.27 6.57,-8.54 3.45,-13.01 -2.19,-6.22 -9.38,-6.89 -14.98,-6.74 -11.88,0.59 -25.24,3.21 -32.77,13.36 -7.31,0.17 -14.64,0.12 -21.92,-0.13 -1.93,-2.39 -3.12,-6.57 -6.89,-6.39 -15.58,2.39 -28.1,12.98 -40.1,22.44 -9.21,5.33 -17.9,11.46 -26.37,17.88 -8.92,-2.89 -17.16,3.43 -23.02,9.43 -7.55,8.05 -14.29,18.35 -13.92,29.78 -0.15,4.79 4.02,10.32 9.23,7.43 12.05,-4.96 21.24,-15.14 28.4,-25.75 13.53,0.89 28.94,-3.56 40.62,5.38 -16.74,19.11 -38.05,34.76 -62.35,42.74 -1.04,0.17 -3.09,0.52 -4.12,0.69 -9.53,0.79 -19.14,0.35 -28.67,-0.1 2.05,-6.71 4.79,-13.63 3.83,-20.79 0.47,-5.13 -4.97,-5.06 -8.52,-4.89 5.63,-21.4 11.5,-42.76 17.08,-64.17 8.65,7.31 19.56,2.52 27.58,-3.16 6.67,-4.54 13.86,-10.39 15.46,-18.77 0.79,-5.06 -5.06,-7.67 -9.21,-7.4 -10.64,1.21 -20.39,6.1 -29.18,11.95 1.53,-5.19 2.44,-10.62 4.86,-15.53 8.74,-10.08 18.07,-19.63 27.11,-29.44 10.03,-3.06 18.08,-10.37 23.78,-18.96 4.12,-5.18 -0.99,-11.11 -5.75,-13.36 -6.6,-3.13 -13.98,-0.49 -20.25,2.1 -8.37,3.95 -17.09,9.66 -20.17,18.84 -1.93,4.87 2.07,8.96 5.43,11.85 -22.37,5.44 -44.1,14.23 -63.16,27.24 -2.67,2.2 -6.3,1.33 -9.41,1.55 -16.44,-0.24 -32.86,0.23 -49.26,-0.27 12.89,-6.24 26.4,-11.28 40.17,-15.28 -5.82,-1.41 -11.85,-1.31 -17.77,-1.58 2.12,-4.84 7.01,-10.1 4.34,-15.73 -3.33,-5.8 -10.79,-6.91 -16.81,-5.75 -14.67,2.52 -32.52,7.65 -36.13,24.37 -7.72,-5.39 -15.58,-10.6 -23.75,-15.29 13.06,-7.92 26.59,-15.01 39.85,-22.61l-2.56 -1.19c3.67,-1.85 7.38,-3.68 11.06,-5.58 3.77,1.11 7.43,-0.44 10.84,-1.97 14.86,-6.77 29.9,-13.29 45.4,-18.5 4.45,-1.38 8.45,-3.85 12.37,-6.34 2.7,-1.14 5.44,-2.18 8.2,-3.12 10.52,0.65 20,-4.81 30.05,-6.96 6.77,-2.25 15.09,-2.32 19.8,-8.47 7.04,-1.16 14.18,-2.22 20.92,-4.71 4.59,2.07 9.55,0.96 14.25,-0.05 32.12,-7.26 64.93,-10.57 97.62,-14.18 13.44,-1.68 27.54,0.45 40.28,-5.16zm-237.44 67.26l0 0c-8.39,5.14 -17.26,12.42 -18.91,22.69 -1.19,6.87 6.69,11.63 12.69,9.61 15.8,-3.68 32.1,-15.06 35.09,-31.93 -7.41,-8.91 -20.32,-5.9 -28.87,-0.37zm253.78 11.71l0 0c-8.17,1.33 -16.62,7.06 -17.48,15.87 -1.56,5.24 2.44,10.08 7.14,11.81 7.58,2.54 16.64,2.39 23.25,-2.6 8.08,-5.7 18.13,-8.12 25.61,-14.69 -0.2,-0.91 -0.59,-2.69 -0.79,-3.6 -11.33,-6.23 -24.96,-8.6 -37.73,-6.79zm-124.1 14.22l0 0c-7.73,2.86 -15.36,7.16 -19.9,14.25 -4.12,6.54 -2.39,15.7 3.14,20.86 4.52,4.42 10.52,-0.27 14.54,-3.04 5.51,-5.03 13.21,-9.01 15.06,-16.81 1.16,-4.84 2.52,-11.06 -1.68,-14.82 -3.18,-2.76 -7.63,-1.82 -11.16,-0.44zm259.63 44.47l0 0c-9.28,8.12 -13.73,21.41 -12.32,33.58 1.75,7.08 9.78,9.9 16.37,9.58 9.11,-0.84 18.08,-2.94 26.97,-4.96 0.56,-0.69 1.67,-2.08 2.22,-2.77 -1.56,-12.44 -10.72,-22.49 -19.43,-30.89 -3.83,-2.59 -9.09,-8.39 -13.81,-4.54zm40.08 -115.51c5.95,3.21 11.95,6.4 17.6,10.17 -1.58,4.94 -2.64,11.09 1.56,15.07 6.69,5.65 16.29,3.31 24.05,1.63 3.35,2.39 6.69,4.86 9.97,7.38 -2.81,5.63 -0.81,12.94 5.06,15.63 5.14,1.78 10.67,1.33 16.03,1.41 10.96,9.18 21.73,18.64 32.47,28.12 -7.01,0.81 -12.08,8.67 -8.6,15.16 4.72,8.62 16.28,6.44 24.4,5.65 1.31,-4.32 2.42,-8.71 3.56,-13.08 -3.59,-2.74 -7.63,-4.69 -11.78,-6.3 -0.37,-3.31 -0.72,-6.64 -1.04,-9.95 12.64,5.09 24.64,11.6 35.78,19.46 -8.62,11.13 -14.08,24.84 -13.53,39.06 5.13,-6.35 10.94,-12.05 17.03,-17.46 8.97,11.29 25.44,16.45 38.84,10.59 -3.65,-9.65 -10.71,-17.87 -19.75,-22.86 8,-4.27 16.45,-7.65 25.06,-10.49 5.81,8.79 10.99,17.97 16.74,26.81 6.28,-6.86 7.81,-16.62 7.41,-25.58 4.17,3.43 8.45,6.74 12.77,10.03l0.12 1.01c-0.03,13.18 9.46,28.17 23.23,30.07l-0.12 -3.82c0.54,0.76 1.63,2.29 2.2,3.06 8.99,17.03 16.2,35.13 20.42,53.97 -11.48,-4.76 -19.88,6.18 -21.38,16.37 -5.04,1.95 -10.13,3.76 -15.19,5.58 1.04,-11.18 -11.53,-14.37 -19.93,-10.27 11.29,-13.43 25.86,-24.25 42.74,-29.41 -18.12,-7.8 -40.12,-1.92 -54.41,11.12 -7.41,-8.42 -17.44,-14.08 -27.81,-18.03 -2.61,-1.31 -7.31,0.1 -7.08,3.61 -0.15,13.72 11.97,23.82 24.24,27.4 -3.82,6.69 -7.28,13.58 -10.14,20.72 -19.22,-15.95 -40.15,-32.42 -65.46,-36.59 -4.05,-11.14 -5.16,-23.09 -5.66,-34.84 -9.18,14.39 -12.91,31.68 -12.19,48.62 -2.05,2.49 -4.1,4.98 -6.03,7.55 -0.37,0.52 -1.09,1.55 -1.45,2.07 -3.39,-0.61 -6.77,-1.18 -10.08,-1.85l-0.52 -0.12c-2.99,-5.7 -8.05,-9.38 -14.15,-11.14 15.17,-14.56 26.4,-34.57 26.2,-56.02 -0.94,-22.55 -13.06,-43.21 -28.57,-59.02 -23.55,-24.93 -54.76,-41.28 -87.06,-51.97 5.36,-5.7 11.95,-10.77 14.45,-18.52zm201.21 149.38l0 0c5.75,3.14 12.91,3.09 19.18,1.71 4.5,-2.74 3.48,-9.06 5.09,-13.48 -6.22,-4.65 -14.08,-7.51 -21.9,-6.67 -8.25,2.02 -9.39,14.27 -2.37,18.44zm-64.1 -15.7l0 0c-2.89,11.73 1.6,27.11 14.52,30.35 7.03,3.16 16.07,-4.84 12.32,-12.13 -4.89,-10.19 -16.13,-16.14 -26.84,-18.22zm-523.88 195.01l0 0c4.57,6.2 12.62,3.73 19.11,4.87 1.8,-1.31 3.61,-2.62 5.41,-3.93 -8.2,0.3 -16.35,-1.92 -24.52,-0.94zm28.27 1.76l0 0c-1.78,1.43 -3.55,2.89 -5.33,4.34 5.33,0.15 10.67,0.59 15.97,1.36 1.81,-1.33 3.61,-2.67 5.44,-4 -5.41,-0.25 -10.74,-0.77 -16.08,-1.7zm-205.18 232.22l0 0c-5.68,8.59 -7.41,19.06 -8.3,29.16 1.19,0.37 3.56,1.14 4.77,1.51 10.76,-3.44 19.72,-12.2 23.63,-22.79 1.75,-4.7 1.87,-11.59 -3.54,-13.88 -6.07,-1.88 -13.2,0.52 -16.56,6zm74.44 37.31l0 0c-6.79,5.31 -15.65,11.31 -15.83,20.89 -1.08,7.6 3.16,18.76 12.5,17.48 7.8,-1.61 18.2,-4 21.01,-12.52 -1.53,-8.42 -4.47,-16.77 -9.16,-23.95 -1.68,-3.16 -5.7,-4.22 -8.52,-1.9zm-0.1 115.85l0 0c-6.71,9.19 -6.74,21.14 -10.59,31.53 14.44,0.67 28.37,-13.33 30.12,-27.6 -0.1,-10.28 -14.46,-10.77 -19.53,-3.93z"/>
   <path class="fil3" d="M273.7 685.73c28.65,-107.43 57.29,-214.84 86.37,-322.15 170.97,-0.07 341.93,0.25 512.89,-0.15 -0.19,6.18 -2.74,11.95 -4.12,17.9 -27.16,101.51 -54.39,202.97 -81.56,304.45 -22.79,0.1 -45.6,-0.2 -68.39,0.12 -0.4,0.62 -1.19,1.83 -1.61,2.45 -47.75,178.59 -95.75,357.11 -143.5,535.7 35.85,0.1 71.68,0.05 107.53,0.03 8.47,-31.68 17.33,-63.26 25.78,-94.97 111.65,-0.17 223.33,-0.05 335.01,-0.05 -37.28,139.09 -74.96,278.08 -112.17,417.19 -295.63,-0.08 -591.31,0.22 -886.94,-0.15 28.86,-107.28 57.55,-214.64 86.27,-321.98 23.01,0 46.02,-0.17 69.04,0.1 48.64,-179.33 96.27,-358.94 144.56,-538.37 -23.06,-0.19 -46.09,0.05 -69.16,-0.12zm490.4 518.42c6.86,-1.65 13.97,-0.86 20.96,-0.96 50.3,-0.03 100.6,0.05 150.87,-0.05 2.84,-0.1 5.58,0.44 8.17,1.63 -10.79,8.1 -21.33,16.47 -31.95,24.79 -42.45,-0.2 -84.87,-0.15 -127.31,-0.03 -9.78,37.36 -20.2,74.57 -29.8,111.98 -104.57,0.24 -209.14,0.05 -313.68,0.1l0.34 -1.58c10.4,-8.15 20.94,-16.1 31.26,-24.33 87.02,0.15 174.05,-0.27 261.06,0.23 10.7,-37.06 20.3,-74.47 30.08,-111.78zm401.23 -112.42l0.65 -0.74c4.69,3.85 9.67,7.31 15.01,10.2 0.12,1.63 0.34,4.86 0.44,6.47 -1.45,2.59 -3.01,5.13 -4.64,7.63 -0.62,0.59 -1.88,1.75 -2.52,2.32 -5.53,-1.71 -11.08,-3.39 -16.59,-5.11 0.79,-7.49 3.36,-14.6 7.65,-20.77zm-218.96 -79.06c7.31,4.71 16.35,4.79 23.78,0.22 9.13,6.74 17.9,13.98 26.79,21.04 -4.22,3.82 -9.28,8.02 -9.21,14.29 0.96,4.62 4.27,8.13 7.18,11.66 -8.79,4.59 -18.22,7.68 -27.8,10.17 -8.32,-17.68 -38.76,-19.28 -44.69,0.99 -14.86,-1.29 -25.19,-13.88 -38.52,-19.38 2.91,-5.31 5.9,-10.6 7.98,-16.3 10.84,5.53 20.44,13.36 31.7,18 18.62,1.85 38.69,2.44 55.88,-6.12 0.2,-0.89 0.59,-2.67 0.81,-3.56 -9.92,-11.8 -24.79,-18.59 -33.9,-31.01zm-90.94 0.69l0.84 0.86c5.26,5.46 12.4,8.4 18.67,12.5 -4,4.22 -6.59,9.4 -8.37,14.89 -9.26,-4.5 -18.3,-9.41 -27.61,-13.73 1.41,-7.68 11.93,-8.64 16.47,-14.52zm229.63 -11.36c0.4,-0.22 1.16,-0.69 1.56,-0.91 6.42,-1.19 14.94,-3.38 19.45,3.01 7.12,9.65 3.29,23.95 -7.48,29.06l-0.34 -0.74c-5.21,-9.8 -6.94,-21.23 -13.19,-30.42zm-308 -19.97c13.21,6.19 27.31,10.32 40.57,16.49 9.01,3.46 17.58,9.43 27.6,8.96 -9.48,1.39 -16.56,8.37 -25.38,11.26 -13.23,-4.99 -25.97,-11.26 -39.36,-15.85 0.47,-7.16 -0.14,-14.4 -3.43,-20.86zm131.43 -10.7c11.46,6.84 22.89,13.78 33.83,21.49 -0.76,2.07 -2.3,6.19 -3.06,8.27 1.38,3.03 2.74,6.12 4.1,9.18 -12.2,-4.86 -20.96,-15.4 -32.72,-21.18 -1.11,-5.88 -1.82,-11.8 -2.15,-17.76zm-188.84 -6.47c11.73,1.12 23.71,4.05 33.63,10.6 -1.55,5.26 -1.43,10.74 -1.33,16.17 -10.42,-2.07 -20.17,-6.47 -30.34,-9.48 2.91,-5.98 0.74,-11.75 -1.96,-17.29zm-27.8 -17.9c1.01,3.02 1.88,6.05 2.82,9.14 5.5,1.65 11.16,2.67 16.89,3.28 -3.91,5.31 -7.29,10.94 -10.18,16.84 -7.53,-2.15 -15.11,-4.14 -22.76,-5.87 7.68,-5.46 14.81,-13.16 13.23,-23.39zm143.9 -4.59c15.04,1.53 29.04,7.7 42.89,13.38 -1.23,2.94 -2.47,5.88 -3.73,8.84 -13.23,-7.03 -27.33,-12.93 -39.16,-22.22zm245.16 -43.88l0.74 -0.51c1.78,8.32 5.14,16.19 7.34,24.42 -5.16,-2.74 -11.24,-6.52 -11.95,-12.87 -0.84,-4.17 1.73,-7.75 3.87,-11.04zm-122.56 -151.95c26.22,-3.75 52.64,-6.44 79.11,-7.77 0.17,1.87 0.54,5.63 0.71,7.5 -41.53,8.1 -82.74,20.03 -120.34,39.73 -28.57,14.99 -55.78,35.65 -71.16,64.64 -5.36,9.48 -7.56,20.2 -10.62,30.52 -1.8,-14.22 3.04,-28 8.42,-40.91 4.07,-9.93 12.17,-17.53 15.9,-27.63 7.85,-5.16 17.04,-10.15 20.86,-19.21 5.96,-3.8 11.78,-7.83 17.51,-11.95 20.52,-14.08 43.8,-23.21 66.17,-33.71 -1.63,-0.29 -4.91,-0.91 -6.56,-1.21zm135.92 -10.69c5.63,-0.12 11.29,-0.32 16.94,-0.59 2.99,13.28 7.61,26.07 12.05,38.94 -11.7,-11.04 -20.89,-24.52 -28.99,-38.35zm-279.58 -25.87c5.11,4.07 11.51,5.38 17.78,6.54 -13.78,18.39 -28.35,36.64 -37.06,58.17 -16.37,33.26 -21.41,71.39 -18,108.1 -1.06,-1.16 -2.15,-2.27 -3.24,-3.33 1.76,-12.27 -4.54,-23.9 -4.91,-36.1 -0.52,-20.72 -2.05,-41.93 3.8,-62.08 1.76,-8.81 6.87,-17.08 5.95,-26.32 9.29,-6.98 19.34,-17.13 18.35,-29.68 -6.52,-9.35 -20.42,-2.83 -24.92,5.46 -11.06,-2.64 -20.83,6 -31.25,8.45 2.14,-6.18 4.81,-12.2 6.19,-18.6 -1.03,-0.61 -3.11,-1.85 -4.14,-2.44 22.91,0.57 45.85,0.1 68.79,0.25 0.86,-2.82 1.75,-5.63 2.66,-8.42zm204.96 -11.71c1.02,-1.78 3.04,-5.33 4.05,-7.11 2.5,8.35 5.24,17.38 13.07,22.3 -0.08,1.23 -0.2,3.7 -0.28,4.94 -5.82,0.66 -11.65,1.23 -17.48,1.75 4.45,-6.64 6.25,-15.31 0.64,-21.88zm74.72 -28.1c4.07,0.37 8.17,0.97 12.22,1.78 -1.26,14.1 -1.11,28.32 0.67,42.37 -7.88,0.05 -15.75,-0.12 -23.6,0.57 -2.82,-5.48 -4.87,-11.31 -6.52,-17.21 15.35,2.35 18.12,-16.32 17.23,-27.51zm-20.02 -53.31c7.68,1.88 14.76,-3.53 22.47,-3.58 8.19,2.28 16.09,5.54 23.9,8.94 -4.2,9.19 -7.81,18.67 -10.18,28.52 -13.43,-1.9 -26.93,-2.86 -40.42,-4.37 0.35,-9.97 2.47,-19.73 4.23,-29.51zm458.12 -6.44c10.3,-1.33 19.83,-6.74 30.52,-5.43 10.72,-1.38 21.11,2.94 28.74,10.37 0.27,6.1 -1.36,12.69 -7.43,15.48 1.01,-7.09 -3.24,-13.9 -10.22,-15.58 -11.49,-2.74 -24.33,-4.91 -35.61,-1.04 -3.51,0.52 -6.94,0.3 -10.27,-0.64 1.06,-0.79 3.21,-2.37 4.27,-3.16zm-118.62 2.91c-1.31,-16.39 14.82,-24.02 28,-27.6 1.93,0 5.73,0.02 7.66,0.02 3.58,2.52 8.29,1.83 12.44,2.62 16.84,4.96 32.69,12.57 48.42,20.27l0.69 2.05c-22.91,-4.98 -45.65,-11.75 -69.18,-12.89 -4.15,2.77 -9.88,1.14 -13.63,4.74 -5.48,2.84 -7.8,10.18 -14.4,10.79zm-770.94 -27.53c22.62,-1.01 45.29,-0.17 67.93,-0.42 6.07,8.15 12.69,15.95 18.39,24.4l0.4 1.88c-22.72,-0.15 -45.46,0.22 -68.17,-0.2 -6.13,-8.6 -12.57,-16.96 -18.55,-25.66zm-173.72 -0.42c0.49,0.03 1.48,0.05 1.99,0.05 -66.17,246.22 -132.32,492.45 -198.02,738.79 -22.72,0.18 -45.46,0.35 -68.2,-0.39 -10.42,39.83 -21.43,79.5 -31.6,119.38 -9.48,7.51 -18.94,15.04 -28.47,22.47 -1.09,0.69 -3.29,2.05 -4.4,2.72 14.52,-56.97 30.79,-113.49 45.56,-170.4 22.69,-0.34 45.41,0.1 68.1,-0.22 60.91,-229.01 122.61,-457.85 183.78,-686.82 10.32,-8.66 21.45,-16.29 31.26,-25.58zm761.23 -20.19c8.91,-0.3 18,-0.08 26.74,1.95 -3.18,5.77 -8.05,10.27 -12.64,14.86l-1.28 -0.89c-5.73,-3.95 -9.31,-10.12 -12.82,-15.92zm-218.27 -38.15c19.41,19.68 47.38,26.71 74.05,29.43 -6.67,7.7 -12.62,15.95 -18.13,24.52 -6.98,0.44 -13.82,-3.8 -20.86,-4.69l0.35 -0.27c1.5,-1.21 4.54,-3.63 6.05,-4.84 -10.72,-5.07 -23.26,-5.58 -33.49,-12.25 -1.95,-10.84 -6.22,-21.06 -7.97,-31.9zm143.58 8.05c41.97,-18.03 88.02,-28.64 133.88,-26.1 3.18,7.63 6.39,15.26 9.6,22.89 -25.41,-11.76 -56.3,-14.72 -81.78,-1.63 -9.73,4.34 -17.65,11.55 -25.58,18.47 -24.05,13.16 -44.76,32.07 -60.37,54.57 -4.96,-1.76 -9.83,-3.68 -14.64,-5.68 1.19,-4.18 4.94,-8.87 1.01,-12.75 -7.65,-4.34 -16.71,-4.07 -25.21,-3.55 7.06,-8.57 15.06,-16.35 23.73,-23.31 8.25,4.08 17.73,5.33 26.77,3.46 10.34,-3.83 12.24,-16.74 12.59,-26.37zm-279.7 -38.87c39.97,15.21 83.92,1.11 118.42,-20.89 -5.46,8.97 -9.19,18.84 -12.1,28.92l-0.45 0.17c-12.32,4.44 -23.68,11.28 -36.34,14.91 0.12,-1.65 0.34,-4.93 0.46,-6.59 -6.09,-3.68 -12.59,-8.76 -20.19,-6.96 -9.21,1.23 -16.62,8.81 -17.95,17.97 -13.63,-3.6 -27.44,-6.56 -40.87,-10.86 2.47,-5.83 6.1,-11.06 9.02,-16.67zm595.16 -21.4c0.39,-0.3 1.18,-0.87 1.58,-1.14 6.39,5.31 11.45,13.41 19.65,15.88 0.59,3.9 0.84,7.87 0.77,11.85l-1.09 1.58c0,-3.48 0.12,-6.96 0.35,-10.42 -6.45,-0.96 -12.94,-1.38 -19.44,-1.33 -2.74,-3.09 -5.4,-6.2 -8.29,-9.12l-0.52 -0.49c2.3,-2.3 4.62,-4.57 6.99,-6.81zm-576.99 -20.99l0.64 0.02c9.53,0.45 19.14,0.89 28.67,0.1 -6.6,3.71 -4.62,11.01 -1.29,16.27 -9.48,1.16 -19.11,2.2 -28.49,0.05 -5.24,-1.28 -11.65,-2.02 -14.45,-7.26 5.17,-2.81 11.81,-3.53 14.92,-9.18zm-477.46 -16.45c120.2,-0.49 240.4,0.18 360.59,-0.34 -0.59,0.49 -1.8,1.43 -2.39,1.92 -10.4,8.2 -20.84,16.32 -31.26,24.47 -102.2,0.15 -204.4,-0.02 -306.57,0.08 -10.84,40.59 -21.88,81.13 -32.34,121.8 -10.79,8.59 -21.83,16.86 -32.82,25.18l-1.55 1.14c14.91,-58.22 31.03,-116.15 46.34,-174.25zm599.24 10.45c0.02,-6.47 5.06,-11.14 9.8,-14.82 4.27,38.03 24.3,74.18 54.96,97.21 2.89,2.3 6.22,4.25 8.35,7.39 -20.32,1.95 -42.3,-2.99 -56.69,-18.3 -17.96,-18.79 -19.46,-47.04 -16.42,-71.48zm378.89 -24.5c0.36,-0.52 1.08,-1.55 1.45,-2.07 2.62,6.96 11.43,9.21 17.9,11.38 -0.39,0.52 -1.21,1.58 -1.6,2.13 -4.05,0.91 -8.45,3.23 -12.42,0.84 -4.59,-2.18 -4.59,-7.98 -5.33,-12.28zm-10.6 -1.97l0.52 0.12c1.83,5.7 2.49,11.68 3.01,17.63 -8.05,-0.99 -16.17,-1.04 -24.24,-0.54 6.91,-5.68 16.1,-9.16 20.71,-17.21zm-64.69 -10.47c8.79,-9.11 16.03,-19.63 20.72,-31.46 3.28,3.85 6.49,7.76 9.85,11.56 -6.96,9.48 -15.68,17.38 -25.09,24.39 -1.36,-1.11 -4.1,-3.35 -5.48,-4.49zm-370.91 -26.64c8.47,-6.42 17.16,-12.55 26.37,-17.88 -0.89,2.45 -1.78,4.89 -2.64,7.36 3.03,2.42 6.19,4.67 9.8,6.27 -7.48,5.04 -15.8,9.04 -21.98,15.8 19.46,-7.08 40.57,-4.29 60.55,-1.38 -1.31,3.04 -2.67,6.1 -4.03,9.14 -13.65,5.6 -26.71,13.9 -35.51,25.95 -3.25,4.37 -4.49,10.02 -2.29,15.21 -8.1,6.39 -17.24,11.21 -26.35,15.95 -7.97,-3.51 -16.17,-6.79 -24.96,-7.41 24.3,-7.98 45.61,-23.63 62.35,-42.74 -11.68,-8.94 -27.09,-4.49 -40.62,-5.38 3.75,-6.45 6.81,-15.91 -0.69,-20.89zm625.08 -29.48c2.6,8.32 3.86,16.96 4.7,25.6 -4.92,-4.39 -9.86,-9.16 -11.41,-15.83 2.07,-1.85 4.12,-3.72 6.2,-5.63 0.12,-1.03 0.37,-3.11 0.51,-4.14zm-551.72 -4.45c7.28,0.25 14.61,0.3 21.92,0.13 -2.2,3.87 -1.26,9.11 3.66,10.14 13.48,2.97 27.63,0.27 40.64,-3.75 -0.35,1.16 -0.99,3.46 -1.34,4.62 13.12,2.69 24.79,11.58 38.3,11.5 5.61,6.3 12.64,11.41 21.31,12.15 10.79,4.92 21.06,10.84 31.73,16.05 2.79,1.73 6.07,1.53 9.23,1.41 6.57,5.28 13.71,9.78 20.77,14.42 9.68,5.75 19.23,11.83 29.21,17.06 1.01,-0.47 3.01,-1.38 4.02,-1.85 6.37,7.23 12.5,16.79 23.09,17.55 5.33,4.84 11.46,8.65 17.6,12.35 3.56,8.15 10.77,13.23 18.57,16.96 -4.32,2.79 -8.54,5.73 -12.57,8.94 -45.16,-25.38 -89.75,-51.85 -135.21,-76.72 -29.97,-16.19 -59.85,-34.51 -93.95,-40.41 -14.69,-2.84 -29.78,-2.67 -44.59,-1.02 3.83,-5.92 7.09,-12.37 7.61,-19.53zm330.14 -27.36c7.41,10.62 11.83,23.61 9.68,36.65 -5.8,-2.08 -11.6,-4.23 -17.21,-6.79 -1.92,-1.02 -3.77,-2.08 -5.6,-3.19l3.08 1.06c-2.42,-8 -6.93,-15.08 -12.46,-21.26l0.84 -0.84c5.9,-5.4 13.95,-3.5 21.11,-2.94l0.56 -2.69zm176.6 2.18c8.19,-9.26 20.74,-3.73 28.22,3.48 0.47,-0.13 1.41,-0.37 1.9,-0.47 0.44,0.47 1.36,1.41 1.8,1.88 0.37,4.76 1.09,9.5 1.26,14.29 -1.58,4.32 -5.01,7.56 -7.75,11.14 -0.57,-0.77 -1.66,-2.3 -2.2,-3.06 -6.81,-9.51 -13.9,-18.94 -23.11,-26.25l-0.12 -1.01zm-601.91 -14.5c5.54,-3.18 10.5,-7.95 16.99,-8.99 -9.04,9.81 -18.37,19.36 -27.11,29.44 -5.33,-0.08 -10.64,-0.05 -15.95,-0.15 7.09,-8.52 17.19,-13.85 26.07,-20.3zm494.97 -30.74c9.53,4.03 18.84,8.67 27.23,14.77 -7.43,2.64 -16.52,3.77 -23.6,-0.25 -5.01,-3.18 -3.9,-9.53 -3.63,-14.52zm-158.89 -11.85c19.38,7.75 38.62,16.05 56.47,26.99 -11.51,7.5 -25.51,4.62 -38.05,2.02 -0.74,-0.2 -2.22,-0.57 -2.96,-0.74 -10.15,-4.74 -23.46,-16.25 -15.46,-28.27zm-131.8 -15.38c11.18,2.12 21.95,6.44 31.97,11.82 -5.6,7.19 1.75,14.47 7.98,17.68 10.91,6.6 23.97,5.76 36.19,6.18 20.45,12.69 40.55,26.59 58.01,43.21 -18.2,-5.41 -34.7,-15.09 -51.83,-23.04 -26.45,-12.07 -52.5,-25.01 -79.02,-36.87 -5.23,-2.22 -10.61,-4.14 -16.22,-5.11 7.56,-0.84 11.19,-7.23 12.92,-13.87zm-117.56 26.66c18.69,-13.4 40.96,-20.98 63.09,-26.64 2.02,5.16 5.65,9.21 10.54,11.8 -9.11,2.67 -18.67,2.7 -27.93,4.5 -15.43,2.59 -30.37,7.31 -45.7,10.34zm-242.54 -11.87c16.44,-7.93 32.74,-16.23 49.65,-23.09 0.67,12.1 -7.7,21.48 -17.23,27.63 -3.68,1.9 -7.39,3.73 -11.06,5.58 -4.52,-0.64 -11.19,2.15 -13.71,-3.06 -1.41,-2.52 -2.71,-5.09 -3.92,-7.68 -0.94,0.15 -2.79,0.47 -3.73,0.62zm77.38 -34.89c16.47,-5.93 32.69,-12.92 49.83,-16.59 -2.35,10.69 -8.92,20 -17.98,26.09 -2.76,0.94 -5.5,1.98 -8.2,3.12 -5.92,0.34 -12.39,1.43 -17.82,-1.61 -4.4,-1.83 -4.5,-7.16 -5.83,-11.01zm71.68 -23.78c17.88,-4.15 35.65,-9.18 53.93,-11.26 -4.37,10.67 -12.79,19.21 -22.99,24.4 -6.74,2.49 -13.88,3.55 -20.92,4.71 -9.68,-0.57 -9.85,-10.54 -10.02,-17.85zm262.32 -17.11c15.38,1.95 31.06,3.68 45.85,8.47 -4.39,2.17 -9.13,3.6 -14.02,3.92 -6.03,0.13 -12.08,0.08 -18.08,0.52 -1.48,-0.81 -4.47,-2.39 -5.97,-3.18 -0.57,-2.77 -1.11,-5.51 -1.66,-8.25 -1.53,-0.37 -4.59,-1.11 -6.12,-1.48zm-94.74 -3.75c15.68,-0.82 31.36,0.24 47.04,0.74 -8.27,4 -16.69,7.9 -23.98,13.58 -2.52,-0.18 -5.06,-0.1 -7.55,0.29 -6.18,-3.7 -12.35,-7.85 -15.51,-14.61zm-82.47 4.42c17.61,-1.61 35.21,-3.58 52.89,-3.56 0.49,9.56 -8.94,13.41 -16.42,16.07 -11.28,3.91 -24.1,5.76 -35.68,2.57 -6.94,-2.84 -3.33,-10.37 -0.79,-15.08zm-626.91 194.69l0 0c-24.57,91.53 -49.21,183.06 -73.49,274.69 23.04,0.07 46.08,-0.1 69.12,0.07 -52.3,195.26 -104.55,390.52 -156.94,585.76 -23.06,-0.03 -46.13,-0.08 -69.21,0 -24.82,91.48 -49.11,183.11 -73.66,274.66 279.19,0.03 558.37,0.05 837.53,-0.02 33.26,-123.14 66.25,-246.32 99.54,-369.46 -95.17,-0.64 -190.35,-0.05 -285.51,-0.29 -8.91,31.53 -17.46,63.18 -25.93,94.86 -52.24,0.52 -104.49,0.05 -156.74,0.22 14.97,-57.5 30.77,-114.81 45.98,-172.29 37.21,-137.86 73.55,-275.95 111.23,-413.68 22.92,0.37 45.85,0.1 68.79,0.17 24.62,-91.51 49.38,-183.01 73.41,-274.67 -154.69,-0.07 -309.41,0.03 -464.12,-0.02z"/>
   <path class="fil4" d="M1076.87 1035.36c7.23,0 14.49,-0.62 21.38,-2.94l0.34 0.74c10.3,20.59 17.44,43.36 33.56,60.47 7.11,8.05 17.08,12.47 25.53,18.87 1.58,3.38 2.86,7.13 5.9,9.6 4.3,1.26 7.48,-2.3 10.69,-4.49 0.64,-0.57 1.9,-1.73 2.52,-2.32 12.49,4.34 25.53,2.09 38.03,-0.8 -10.89,-1.97 -21.56,-5.18 -31.31,-10.46 -0.52,0.89 -1.56,2.71 -2.08,3.63 -0.1,-1.61 -0.32,-4.84 -0.44,-6.47 -1.8,-5.88 -5.16,-11.24 -10.3,-14.72 -1.18,1.14 -3.53,3.38 -4.71,4.52l-0.65 0.74c-8.19,-7.53 -18.09,-14.32 -22.22,-25.11 4.03,1.04 8.1,2.22 12.35,2.07 0.1,-5.16 0.07,-10.34 -0.1,-15.48 19.6,27.61 53.31,47.06 87.83,42.35 0.93,11.13 -2.08,22.24 -8.33,31.5 15.24,-6.12 30.99,-12.57 42.57,-24.64 -0.24,12.03 -5.8,22.89 -11.45,33.19 18.88,-6.2 39.01,-16.1 47.65,-35.19 4.57,13.85 3.83,29.01 -2.02,42.35 14.44,-11.81 27.53,-27.14 30.49,-46.15 4.05,14.37 12.02,29.08 26.84,34.57 3.92,-13.24 6.22,-28.08 -0.89,-40.72 12.67,6.91 23.31,19.18 22.96,34.37 10.92,-11.06 13.06,-27.93 7.9,-42.22 11.17,6.12 24.15,4.57 36.08,2.2 -6.13,55.65 -43.93,104.91 -93.78,129.16 5.95,-11.78 8.79,-24.74 10.25,-37.76 -36.77,26 -81.71,37.93 -125.9,43.19 12.32,-7.24 20.42,-19.41 25.97,-32.27 -34.39,6.34 -70.64,4.93 -103.68,-7.11 -2.66,-0.87 -5.08,-2.1 -7.23,-3.81 16.44,-4.69 30.81,-15.06 40.76,-28.91 -40.02,-2.25 -79.68,-18.91 -106.79,-48.91 7.88,-8.89 13.04,-19.68 17.68,-30.5 -4.76,-11.03 -10.32,-21.68 -15.4,-32.54zm-131.14 -162.91c26.84,-12.67 55.83,-24.82 83.63,-35.21 11.5,22.37 21.63,45.55 28.74,69.72 8.3,31.73 18.27,62.99 28.52,94.13 -0.4,0.22 -1.16,0.69 -1.56,0.91 -6.76,4.17 -13.63,8.72 -17.68,15.78 -6.66,-12.87 -14.02,-25.33 -21.9,-37.48 8.62,-5.48 17.21,-12.84 19.11,-23.41 2.32,-6.25 -4.05,-12.54 -10.24,-11.01 -11.46,0.91 -13.76,14.17 -15.93,23.11 -17.11,-25.53 -35.73,-50.52 -58.47,-71.33 1.14,-4.97 4.87,-10.77 0.62,-15.29 -4.96,-7.28 -19.66,-1.83 -26.92,0.57 -1.04,-1.57 -6.69,-9.69 -7.92,-10.49zm144.07 50.91c6.37,1.48 12.6,-0.59 18.25,-3.43 2.57,9.63 5.48,19.13 8.32,28.69 -7.53,7.8 -13.8,17.65 -13.95,28.84 1.48,0.49 4.4,1.53 5.85,2.02 5.09,-1.8 9.98,-4.17 14.47,-7.16 5.31,13.93 9.01,28.45 14.25,42.42 -6.55,2.57 -11.43,7.63 -15.51,13.21 -7.16,-13.92 -10.99,-29.16 -15.26,-44.12 -2.98,-1.51 -5.97,-2.94 -8.91,-4.42 8.67,-18.94 -6.17,-37.16 -7.51,-56.05zm-19.36 -53.41c6.97,2.94 14.03,0.64 20.03,-3.33 2.81,7.97 5.48,16 8.1,24.05 -6.08,1.28 -11.88,3.68 -16.92,7.31l-0.74 0.51c-4.19,-9.23 -7.38,-18.88 -10.47,-28.54zm-18.54 -41.06c6.69,-2.52 13.43,-4.91 20.27,-7.09 2.72,5.9 5.26,11.9 7.78,17.93 -8.79,-6.27 -14.47,2.79 -17.48,9.97 -4.22,-6.56 -7.68,-13.58 -10.57,-20.81zm-159.68 -4.72c44.45,-30.44 96.69,-46.84 148.72,-58.84 4.67,5.49 7.85,11.96 11.8,17.93 -7.46,2.1 -12.79,8.47 -14.69,15.83 3.06,2.96 4.05,7.33 6.64,10.69 -3.11,0.66 -6,1.9 -8.66,3.68 -1.53,-8.37 2.17,-18.13 -3.02,-25.46 -13.68,-0.2 -26.76,6.74 -40.1,9.78 5.39,1.55 10.28,4.27 14,8.52 -10.29,4.47 -19.33,12.1 -24.27,22.32 1.56,2.76 3.68,4.99 6.42,6.67 -10.76,4.88 -21.21,10.44 -31.58,16.09 0.99,-5.82 2.32,-11.85 0.35,-17.6 -11.14,-0.82 -20.87,5.58 -29.46,11.85 -5.28,4.17 -11.11,8.57 -12.99,15.38 -16.76,-0.44 -33.68,3.46 -47.87,12.6 -11.53,6.12 -18.6,17.75 -29.88,24.17 5.63,-31.43 29.26,-55.95 54.59,-73.61zm729.04 -195.35c14.32,36.93 14.35,78.86 2.22,116.44 -12.56,38.35 -36.49,72.74 -67.5,98.47 -8.65,7.14 -18.15,13.21 -28.42,17.65 9.21,-18.79 16.74,-40.39 11.65,-61.45 -3.46,-14.67 -16.71,-24.32 -30.47,-28.52 5.24,-9.51 7.38,-20.35 6.82,-31.14 19.33,-11.85 38.96,-24.05 54.39,-40.91 8.35,-8.89 12.42,-20.54 18.12,-31.06 2.62,-5.71 9.24,-7.21 13.81,-10.92 9.87,-6.64 15.8,-17.48 19.38,-28.56zm-427.26 -42.89c9.98,13.06 20.94,25.85 35.43,34.07 -13.03,-2.94 -24.02,5.73 -30.39,16.15 -7.93,-15.38 -9.95,-33.58 -5.04,-50.22zm95.61 -76.94c17.95,-22.84 46.37,-39.09 76.12,-36.03 34.15,3.24 62.69,26.1 84.77,50.84 13.5,0.35 26.96,3.19 39.03,9.41 -9.8,5.28 -19.23,11.09 -27.75,18.27 25.8,-6.94 53.68,-0.69 75.68,13.98 -4.32,-26 -25.93,-45.71 -49.88,-54.37 1.41,-2.77 2.74,-5.56 4.52,-8.1l1.09 -1.58c10.32,2.39 20.79,4.42 30.69,8.32 8.61,3.28 15.85,9.63 24.98,11.7l1.12 0.35c15.43,17.92 32.69,34.57 44.05,55.58 -23.07,-7.14 -47.56,-2.42 -70.23,3.83 -19.82,-11.66 -41.13,-22.08 -64.34,-24.37 -22.55,-2.84 -47.26,4.17 -62.35,21.77 -9.97,11.46 -16.17,28.2 -10.17,42.97 6.49,16.12 22.54,25.48 38.07,31.35 2.92,34.72 23.86,68.33 56.28,82.55 -27.49,33.48 -71.31,46.76 -112.2,55.11 -71.58,12.94 -145.09,11.53 -217.21,4.25 -8.94,-17.04 -11.61,-37.54 -5.48,-55.95 43.65,17.11 91.7,16.46 137.7,12.66 13.41,-1.53 27.01,-2.25 40.15,-5.51 -35.41,0.3 -71.26,-4.24 -104.37,-17.3 3.82,-2.92 7.55,-6.65 6.49,-11.95 -5.28,-0.77 -10,-3.39 -14.34,-6.3 4.69,1.06 9.3,2.39 14.02,3.48 -3.41,-8.94 -8.64,-18.39 -18.07,-21.95 -6.47,-2.2 -13.39,-4.12 -20.25,-3.6 -4.27,1.77 -4.42,7.21 -6.22,10.86 -8.87,-13.53 -14.03,-29.75 -12.1,-46.02 15.85,15.23 33.06,29.67 53.7,37.97 26.27,10.96 55.73,15.36 83.9,10.47 -34.49,-9.31 -69.9,-21.8 -95.58,-47.75 3.66,-1.81 7.24,-3.78 10.79,-5.78 -2.91,-0.99 -5.48,-2.54 -7.68,-4.62 3.58,0.52 7.02,1.73 10.18,3.58 7.38,-4.76 17.53,-9.16 18.98,-18.86 24.13,10.81 51.12,15.43 77.46,13.06 -33.31,-8.47 -63.97,-27.48 -85.53,-54.35 2.54,-1.95 5.09,-3.9 7.61,-5.85l1.28 0.89c9.26,6.03 16.99,14.07 26.05,20.4 21.85,15.6 44.3,30.44 67.55,43.85 -0.27,0.79 -0.81,2.37 -1.08,3.16 -22.67,10.96 -48.47,11.38 -73.06,9.18 -13.61,-1.63 -26.37,-6.81 -39.61,-10 1.68,2.94 3.66,5.83 6.59,7.71 26.65,19.43 58.67,29.4 90.2,37.75 9.04,2.54 18.25,4.62 27.66,5.43 0.49,1.34 1.45,4 1.92,5.31 -38.37,18.52 -82.99,20.67 -124.02,10.84 8.37,5.75 18.49,7.68 28.15,10.2 18.29,4.59 37.03,6.96 55.8,8.74 19.53,2.76 39.31,0.34 58.94,2.07 -2.94,2.99 -6.25,5.66 -10.2,7.14 -49.98,21.73 -105.04,30.99 -159.36,29.08 -13.38,0.42 -26.44,-2.93 -39.8,-2.81 21.68,6.64 43.92,13.11 66.81,12.91 31.76,-0.42 63.66,1.63 95.16,-3.5 35.41,-4.77 70.67,-11.9 104.45,-23.76 6.29,-2.07 12.05,-5.45 17.31,-9.48 -7.04,-3.85 -14.37,-7.8 -18.99,-14.59 -12,-16.79 -20.22,-36.02 -26.1,-55.73 -0.77,-4.99 -5.21,-7.43 -9.11,-9.75 -22.54,-12.54 -37.01,-37.38 -38.96,-62.84 -26.13,-18.47 -57.16,-29.41 -88.6,-34.32 -1.11,-0.72 -3.33,-2.15 -4.42,-2.84 1.73,-3.61 3.58,-7.19 3.98,-11.21 -13.8,-8.2 -30.57,-1.8 -41.95,7.6 -1.38,-2.88 -2.74,-5.75 -4.1,-8.64 17.73,-12.1 40.42,-14.47 61.21,-11.11 34.62,5.31 66.37,21.73 95.48,40.59 2.99,-26.66 20.67,-49.16 40.2,-66.39 -13.31,-15.66 -34.69,-22.08 -54.59,-23.26 -25.36,-0.72 -45.61,18.39 -58.82,38.15 -3.21,-7.63 -6.42,-15.26 -9.6,-22.89zm280.66 -64.25c2.25,-0.12 5.56,-1.7 6.4,1.63 7.9,13.8 -4.2,35.26 -20.47,33.7 -10.17,-6.81 -18.27,-17.21 -30.49,-20.49 2.93,-0.69 5.92,-1.58 8.39,-3.48 1.46,9.04 14.15,12.54 19.68,5.11 3.75,-3.01 2.37,-8.05 2.34,-12.17 1.09,-0.13 3.29,-0.4 4.37,-0.55 5.14,6.77 0.28,15.07 -0.66,22.4 4.74,-3.19 9.23,-7.23 11.06,-12.87 0.22,-4.44 -0.32,-8.86 -0.62,-13.28zm-483.48 -7.18l0.57 0.34c6.02,3.68 12.15,7.26 18.29,10.79 -0.56,21.09 12.42,41.24 29.09,53.34 -3.11,-13.56 -6.37,-27.17 -6.17,-41.19 6.39,4.54 13.31,8.27 20.49,11.41 5.01,8.89 13.11,16.71 23.63,18.12 8.62,0.91 16.77,4.03 23.71,9.26 -18.89,5.58 -37.76,11.66 -55.41,20.49 -10.84,6.55 -24.15,0.08 -32.99,-7.06 -20.76,-18.27 -28.42,-49.13 -21.21,-75.5zm298 -16.08c3.31,0.67 6.69,1.24 10.08,1.85 0.74,4.3 0.74,10.1 5.33,12.28 3.97,2.39 8.37,0.07 12.42,-0.84 10.49,3.58 19.45,10.22 28.64,16.27 10.52,7.18 21.56,14 29.93,23.78 -2.37,2.24 -4.69,4.51 -6.99,6.81 -7.56,-7.46 -16.27,-13.56 -24.79,-19.85 -4.92,-4.89 -11.51,-7.34 -16.72,-11.75 -4.17,-1.12 -8.12,-2.84 -12.12,-4.35 -7.41,-2.81 -15.01,-5.06 -22.77,-6.57 -0.52,-5.95 -1.18,-11.93 -3.01,-17.63zm-44.74 -42.32c2.57,-8.59 1.65,-17.85 4.59,-26.34 5.61,2.56 11.41,4.71 17.21,6.79 -1.33,11.26 -5.68,21.85 -11.7,31.38 -3.36,-3.8 -6.57,-7.71 -9.85,-11.56l-0.25 -0.27zm220.64 -49.13c6.1,6.86 9.36,16.29 13.06,24.74 -0.14,1.03 -0.39,3.11 -0.51,4.14 -2.08,1.91 -4.13,3.78 -6.2,5.63 1.55,6.67 6.49,11.44 11.41,15.83 1.63,12.32 0.32,24.74 -1.98,36.89 -0.64,-2.62 -1.23,-5.23 -1.85,-7.83 -4.22,-18.84 -11.43,-36.94 -20.42,-53.97 2.74,-3.58 6.17,-6.82 7.75,-11.14 -0.17,-4.79 -0.89,-9.53 -1.26,-14.29zm-44.27 -21.63c5.63,-0.37 11.29,-1.26 16.99,-0.92 10.39,4.35 18.66,12.42 26.39,20.42l-0.91 0.25c-0.49,0.1 -1.43,0.34 -1.9,0.47 -7.48,-7.21 -20.03,-12.74 -28.22,-3.48 -4.32,-3.29 -8.6,-6.6 -12.77,-10.03 0.1,-1.68 0.32,-5.03 0.42,-6.71zm-450.81 0.32c10.29,-0.35 20.76,-2.18 31.01,-0.2 21.63,3.95 41.8,13.36 60.76,24.2 10.74,5.18 15.76,18.81 28.84,19.55 0.94,0.4 2.82,1.16 3.76,1.53 16.07,14.79 36.14,25.78 48.86,43.83 -8.64,-2.72 -16.27,-7.68 -24.59,-11.11 -0.47,-0.62 -1.39,-1.85 -1.83,-2.47 -3.68,-6.57 -10.15,-10.57 -17.46,-11.85 -23.11,-4.99 -41.43,-22.74 -64.61,-26.96 -2.32,-0.84 -4.65,-1.71 -6.94,-2.55 0.37,-0.54 1.11,-1.58 1.46,-2.12 -12.25,-4.99 -24.52,-10.03 -37.02,-14.4 -10.19,-3.68 -21.06,-5.06 -31.28,-8.61 1.8,-2.45 3.6,-4.92 5.55,-7.26 0.87,-0.4 2.62,-1.19 3.49,-1.58zm215.75 -11.66c12.54,2.6 26.54,5.48 38.05,-2.02 12.15,7.68 23.83,16.54 32.76,27.92l-0.56 2.69c-7.16,-0.56 -15.21,-2.46 -21.11,2.94 -8.7,-5.53 -16.33,-12.66 -25.46,-17.48 -8.74,-4.96 -18.45,-7.83 -27.09,-12.94l3.41 -1.11zm110.84 -26.29c10.12,2.12 20.05,5.21 29.63,9.13 -0.27,4.99 -1.38,11.34 3.63,14.52 7.08,4.02 16.17,2.89 23.6,0.25 2.74,2.15 5.46,4.39 8.18,6.64 -4.13,4.79 -8.7,9.16 -13.04,13.73 -11.14,-7.86 -23.14,-14.37 -35.78,-19.46 -4.1,-9.01 -9.51,-17.46 -16.22,-24.81zm-660.3 18.07c12.67,-7.8 26.1,-14.22 39.14,-21.38 0.94,-0.15 2.79,-0.47 3.73,-0.62 1.21,2.59 2.51,5.16 3.92,7.68 2.52,5.21 9.19,2.42 13.71,3.06l2.56 1.19c-13.26,7.6 -26.79,14.69 -39.85,22.61 -7.65,-4.34 -15.33,-8.61 -23.21,-12.54zm464.52 -40.74c22.72,4.54 44.72,12.15 66.52,19.95 -8,12.02 5.31,23.53 15.46,28.27 -10.2,2.3 -19.58,-5.51 -29.93,-5.26 -14.89,-17.01 -31.68,-32.76 -52.05,-42.96zm-375.68 -4.15c9.16,-3.95 18.35,-7.83 27.68,-11.38 1.33,3.85 1.43,9.18 5.83,11.01 5.43,3.04 11.9,1.95 17.82,1.61 -3.92,2.49 -7.92,4.96 -12.37,6.34 -15.5,5.21 -30.54,11.73 -45.4,18.5 -3.41,1.53 -7.07,3.08 -10.84,1.97 9.53,-6.15 17.9,-15.53 17.23,-27.63l0.05 -0.42zm77.83 -29.04c7.18,-1.97 14.37,-4.05 21.53,-6.12 0.17,7.31 0.34,17.28 10.02,17.85 -4.71,6.15 -13.03,6.22 -19.8,8.47 -10.05,2.15 -19.53,7.61 -30.05,6.96 9.06,-6.09 15.63,-15.4 17.98,-26.09l0.32 -1.07zm315.68 -10.84c4.89,-0.32 9.63,-1.75 14.02,-3.92l1.16 -0.5c12.03,2.99 24.27,5.83 35.58,11.09 -17.33,2.82 -34.56,-2.76 -51.95,-2.47 0.3,-1.03 0.89,-3.13 1.19,-4.2zm-79.53 -15.4l0.94 -0.45c15.58,0.94 31.23,1.56 46.76,3.46 1.53,0.37 4.59,1.11 6.12,1.48 0.55,2.74 1.09,5.48 1.66,8.25 1.5,0.79 4.49,2.37 5.97,3.18 -3.43,0.79 -6.91,1.73 -10.44,1.21 -20.69,-2.24 -41.51,-0.79 -62.25,-1.01 -4.39,0.05 -8.59,-1.38 -12.74,-2.54 7.29,-5.68 15.71,-9.58 23.98,-13.58zm-76.62 0.12c9.83,-1.14 19.73,-0.12 29.58,-0.86 3.16,6.76 9.33,10.91 15.51,14.61 -12.74,5.61 -26.84,3.48 -40.28,5.16 -32.69,3.61 -65.5,6.92 -97.62,14.18 -4.7,1.01 -9.66,2.12 -14.25,0.05 10.2,-5.19 18.62,-13.73 22.99,-24.4l0.32 -0.64c10.24,-1.73 20.54,-3.24 30.86,-4.54 -2.54,4.71 -6.15,12.24 0.79,15.08 11.58,3.19 24.4,1.34 35.68,-2.57 7.48,-2.66 16.91,-6.51 16.42,-16.07z"/>
   <path class="fil5" d="M396.15 411.41c138.47,-0.69 276.96,-0.1 415.46,-0.3 -20.33,75.51 -40.43,151.09 -60.84,226.57 -23.04,-0.05 -46.05,0 -69.07,-0.02 -56.74,211.3 -113.3,422.66 -170.02,633.97 68.69,-0.12 137.38,0.05 206.07,-0.07 8.47,-31.71 17.21,-63.34 25.81,-95.02 78.86,0.03 157.72,-0.05 236.59,0.05 -29.06,107.39 -57.8,214.87 -86.92,322.23 -262.69,-0.23 -525.38,0.19 -788.07,-0.2 20.07,-75.71 40.57,-151.31 60.74,-226.99 23.14,-0.2 46.3,0.22 69.43,-0.2 56.35,-211.31 113.26,-422.47 169.61,-633.77 -23.06,0 -46.1,0.02 -69.16,0 20.07,-75.44 40.62,-150.75 60.37,-226.25zm503.28 479.11c1.36,1.48 1.36,1.48 0,0zm254.35 -75.19c10.94,3.83 22.57,4.42 34.05,5.24 -3.76,30.49 -3.61,62.44 7.58,91.48 5.48,13.9 13.78,27.09 25.58,36.49 -9.85,-37.67 -21.04,-76.83 -14.96,-116.07 1.7,-4.3 0.96,-12.44 7.18,-12.52 9.09,-0.34 18.22,-0.57 27.33,-0.81 1.61,38.89 20.1,79.26 54.79,99.08 2.82,-28.02 9.93,-59.28 32.94,-77.77 23.31,16.61 42.99,39.55 52.18,66.96 5.45,15.85 6.79,32.91 4.88,49.53 -34.17,16.32 -72.79,25.26 -110.69,22.44 -5.55,-20.79 -10.47,-42.96 -24.56,-59.85 -6.35,24.82 -19.14,50.1 -42.67,62.55 -3.46,1.3 -8.69,6.02 -11.29,0.98 -36.96,-46.22 -58.93,-109.06 -42.34,-167.73zm-65.34 0.99c12.2,-4.1 24.47,-7.95 36.82,-11.48 3.33,1.51 6.69,3.04 10.02,4.57 -11.75,39.88 -6.96,83.36 8.77,121.46 9.9,25.35 25.14,48.12 41.28,69.87 -3.25,1.38 -6.49,2.74 -9.72,4.08 0.96,14.39 4.66,29.8 14.98,40.46 13.81,12.5 33.61,13.31 51.21,11.83 8.28,-3.28 14.99,-9.6 19.98,-16.89 31.33,3.58 63.23,1.83 93.88,-5.77 10.24,1.65 20.86,3.43 31.08,0.34 9.29,-2.07 18.27,-9.58 28.1,-5.88 5.98,1.71 5.73,9.91 1.68,13.51 -7.7,7.26 -18.64,9.65 -28.86,10.42 -22.15,1.04 -44.42,-1.09 -66.47,1.63 -22.05,2.47 -43.61,8.52 -64.08,16.99 -18.59,7.5 -41.21,8.99 -58.74,-2.03 -16.34,-9.92 -27.13,-26.61 -35.41,-43.45 -12.59,-25.95 -20.32,-53.9 -27.6,-81.71 -11.73,-43.97 -28.94,-86.22 -46.92,-127.95zm-26.98 -57.01c10.52,8.67 20.98,17.46 32.19,25.26 2.23,1.48 4.28,3.33 5.54,5.8 -6.55,2.12 -13.09,4.27 -19.63,6.37 -5.93,-12.54 -12.35,-24.84 -18.1,-37.43zm-624.35 -295.8c102.17,-0.1 204.37,0.07 306.57,-0.08 -10.74,40.69 -22.35,81.19 -32.84,121.95 -22.64,0.25 -45.31,-0.59 -67.93,0.42 -63.82,239.31 -128.12,478.47 -192.12,717.73 -3.06,12.15 -7.09,24.08 -9.09,36.5l-0.34 1.58c104.54,-0.05 209.11,0.14 313.68,-0.1 9.6,-37.41 20.02,-74.62 29.8,-111.98 42.44,-0.12 84.86,-0.17 127.31,0.03 -19.11,71.21 -37.9,142.51 -57.29,213.68 -227.16,-0.05 -454.34,-0.03 -681.5,-0.03 10.17,-39.88 21.18,-79.55 31.6,-119.38 22.74,0.74 45.48,0.57 68.2,0.39 65.7,-246.34 131.85,-492.57 198.02,-738.79 -0.51,0 -1.5,-0.02 -1.99,-0.05 -21.49,-0.37 -42.97,-0.27 -64.42,-0.07 10.46,-40.67 21.5,-81.21 32.34,-121.8zm1103.63 -8.64c3.11,-1.26 6.37,-2.08 9.76,-2.45 -0.08,3.24 -1.12,6.91 -4.75,7.65 -2.84,-0.42 -3.97,-2.93 -5.01,-5.2zm-368.07 18.34c-9.76,-2.15 -10.5,-16.47 -2.77,-21.55 3.29,2.17 7.61,3.21 10.13,6.36 0.69,4.38 -3.29,7.83 -4.47,11.73 5.65,-0.96 8.49,-6.19 12.19,-9.92 2.6,8.47 -7.06,16.94 -15.08,13.38zm-755.93 -35.83l0 0c-15.31,58.1 -31.43,116.03 -46.34,174.25l1.55 -1.14c21.95,1.31 44,0.45 65.98,0.47 -61.17,228.97 -122.87,457.81 -183.78,686.82 -22.69,0.32 -45.41,-0.12 -68.1,0.22 -14.77,56.91 -31.04,113.43 -45.56,170.4 1.11,-0.67 3.31,-2.03 4.4,-2.72l-1.73 2.72c243.53,0.24 487.09,0.14 730.62,0.05 23.33,-87.91 47.13,-175.73 70.32,-263.68 -2.59,-1.19 -5.33,-1.73 -8.17,-1.63 -50.27,0.1 -100.57,0.02 -150.87,0.05 -6.99,0.1 -14.1,-0.69 -20.96,0.96 -9.78,37.31 -19.38,74.72 -30.08,111.78 -87.01,-0.5 -174.04,-0.08 -261.06,-0.23 62.79,-234.76 125.85,-469.45 188.5,-704.24 22.71,0.42 45.45,0.05 68.17,0.2l-0.4 -1.88c1.44,-2.3 2.5,-4.74 3.21,-7.33 12.62,-48.13 25.51,-96.15 38.18,-144.25 1.7,-6.37 3.82,-12.64 4.32,-19.24 0.59,-0.49 1.8,-1.43 2.39,-1.92 -120.19,0.52 -240.39,-0.15 -360.59,0.34z"/>
  </g>
 </g>
</svg>
