<?xml version="1.0" encoding="UTF-8"?>
<!DOCTYPE svg PUBLIC "-//W3C//DTD SVG 1.1//EN" "http://www.w3.org/Graphics/SVG/1.1/DTD/svg11.dtd">
<!-- Creator: CorelDRAW -->
<svg xmlns="http://www.w3.org/2000/svg" xml:space="preserve" width="2000px" height="1600px" version="1.1" style="shape-rendering:geometricPrecision; text-rendering:geometricPrecision; image-rendering:optimizeQuality; fill-rule:evenodd; clip-rule:evenodd"
viewBox="0 0 2000 1600"
 xmlns:xlink="http://www.w3.org/1999/xlink">
 <defs>
  <style type="text/css">
   <![CDATA[
    .fil1 {fill:#FFC424}
    .fil0 {fill:#3E4095;fill-rule:nonzero}
   ]]>
  </style>
 </defs>
 <g id="Capa_x0020_1">
  <metadata id="CorelCorpID_0Corel-Layer"/>
  <g id="Lake_x0020_Superior_x0020_State_x0020_Lakers.cdr">
   <path class="fil0" d="M1035.06 83.59c25.13,-5.8 53.3,6.62 65.3,29.58 9.06,16.15 9.58,36.61 1.72,53.35 -5.62,11.95 -15.35,21.93 -27.14,27.91 -18.32,9.29 -41.46,8.32 -58.85,-2.66 -19.28,-11.72 -30.57,-35.04 -27.52,-57.43 2.61,-24.58 22.31,-45.93 46.49,-50.75zm450.73 82.12c3.29,-1.44 7.8,-1.05 9.41,2.64 10,17.27 24.86,30.8 39.56,43.99 3.95,3.92 8.97,7.22 11.4,12.39 -0.11,6.17 -4.26,12.15 -10,14.38 -5.41,2.03 -9.74,-2.83 -14.2,-5 -14.95,-8.35 -32.61,-15.99 -49.97,-11.29 -13.53,4.33 -24.79,14.01 -33.62,24.86 -8.05,10.51 -13.14,25.41 -7.27,38.1 4.54,9.56 14.36,18.28 25.64,16.6 12.34,-1.77 23.89,-6.83 35.11,-12.02 23.32,-10.91 47.2,-21.35 72.66,-26.03 21.07,-3.6 44.1,-0.13 61.44,12.96 14.29,10.73 26.54,25.67 30.05,43.58 3.5,17.42 0.52,35.77 -7.46,51.57 -15.48,31.43 -42.33,56.44 -73.16,72.57 -4.59,2.68 -10.27,3.62 -14.1,7.43 -1.11,4.82 4.6,8.72 2.49,13.53 -2.52,4.5 -6.37,8.71 -11.51,10.02 -5.67,0.94 -8.6,-5.14 -11.86,-8.65 -11.83,-17.08 -29.54,-28.45 -45.25,-41.55 -3.55,-3.3 -8.9,-5.89 -9.67,-11.12 0.32,-5.97 4.63,-11.61 10.2,-13.74 4.25,-1.75 8.12,1.47 11.76,3.26 15.05,8.53 32.23,15.32 49.85,13.23 17.61,-2.37 32.63,-13.35 44.81,-25.73 8.37,-8.33 14.19,-19.94 13.46,-31.97 -2.2,-19.48 -21.65,-37.66 -41.95,-33.19 -22.8,2.82 -43.39,13.6 -64.46,21.97 -18.75,7.46 -38.12,16.83 -58.88,14.4 -21.51,-2.08 -39.59,-16.76 -51.37,-34.1 -13.4,-20.27 -12.5,-47.01 -2.99,-68.67 9.7,-21.74 25.33,-40.93 44.71,-54.76 10.91,-7.94 24.15,-11.03 36.85,-14.73 3.53,-4.74 -4.1,-10.09 -1.68,-15.18 1.93,-4.33 5.7,-7.8 10,-9.75zm-456.63 -164.3c32.76,-4.42 67.06,2.9 94.96,20.67 27.13,16.95 48.25,43.34 58.59,73.64 10.74,31.42 10.07,66.71 -2.27,97.58 -13.09,33.35 -39.47,61.06 -71.9,76.21 0.03,24.73 0.02,49.47 0.02,74.2 41.61,0.05 83.21,-0.09 124.8,0.05 3.04,-0.55 4.1,2.74 3.73,5.11 0.11,23.51 -0.11,47.04 0.11,70.57 6.36,-8.26 10.72,-17.87 17.25,-25.97 4.06,-5.45 12.68,-7.1 17.69,-2.01 6.6,6.37 12.59,13.35 18.99,19.93 -4.31,-18.97 -6.11,-39.98 2.89,-57.93 7.5,-14.73 19.1,-27.66 33.48,-35.92 16.03,-9.08 37.13,-4.82 50.07,7.71 11.46,9.72 12.98,28.8 3.16,40.16 -6.23,7.52 -15.09,15.08 -25.61,13.22 -8.15,-0.43 -13.38,-7.22 -19.77,-11.26 -4.52,-3.04 -9.2,1.24 -12.28,4.32 -8.73,8.51 -8.67,21.85 -6.99,33.07 2.43,12.64 6.9,25.46 15.46,35.32 25.89,26.21 52.43,51.78 78.39,77.91 8.46,7.36 16.31,17.97 28.51,18.43 15.82,-1.44 27.43,-13.67 39.65,-22.5 8.9,-5.91 21.4,4.29 18.51,14.25 -2.66,5.11 -7.5,8.57 -11.49,12.57 -18,17.54 -39.18,31.56 -56.01,50.34 -14.63,15.09 -26.35,32.95 -42.22,46.85 -9.49,5.87 -22.04,-7.2 -16.51,-16.63 6.12,-9.33 14.72,-17.88 16.51,-29.33 1.14,-9.36 -5.67,-16.92 -11.56,-23.26 -26.08,-26.6 -52.82,-52.56 -79.22,-78.84 -9.58,-8.79 -18.74,-18.19 -29.52,-25.57 -5.71,-3.56 -12.36,-7.43 -19.37,-5.85 -10.48,2.98 -17.76,11.69 -26.65,17.4 -10.41,3.38 -21.82,-10.29 -15.01,-19.69 -32.33,0.34 -64.65,0.06 -96.99,0.15 0.01,25.92 -0.02,51.84 0.01,77.77 16.03,-17.66 37.03,-31.3 60.66,-35.86 37.31,-7.92 76.58,8.41 101.96,35.79 4.54,4.75 5.05,12.98 -0.32,17.34 -37.19,37.32 -74.85,74.17 -112.05,111.49 17.45,17.75 38.07,33.94 62.77,39.74 15.62,3.83 32.52,1.33 46.49,-6.53 15.3,-8.22 27.43,-20.99 38.46,-34.15 7.38,-9.04 14.75,-18.65 17.86,-30.11 1.42,-4.73 1.61,-9.73 3.06,-14.45 4.3,-8.92 19.42,-8.24 22.7,1.12 4.86,24.84 -0.16,51.6 -14.7,72.47 -15.67,22.98 -36.15,43.03 -60.23,57.09 -24.91,14.3 -55.2,19.44 -83.23,12.56 -33.1,-7.96 -61.35,-29.6 -83.46,-54.84 0.03,24.66 0.03,49.34 0,74.01 28.08,7.27 56.15,19.54 85.78,15.97 9.06,-0.71 15.71,-7.39 23.07,-11.9 8.47,-3.29 19.13,6.05 16.77,15.06 -1.03,3.28 -3.99,5.39 -6.36,7.69 -13.18,11.49 -26.28,23.16 -37.7,36.44 -5.67,6.31 -11.17,12.87 -17.71,18.3 -5.25,3.65 -11.51,0 -16.15,-2.91 -14.58,-9.68 -30.82,-16.68 -47.68,-21.26 -0.04,17.89 0.1,35.8 -0.08,53.69 9.05,-2.09 19.86,4.81 17.74,14.93 -3.9,7.54 -11.49,12.45 -17.59,18.18 -0.11,70.8 -0.11,141.62 0,212.42 10.19,75.61 53.78,145.4 115.64,189.64 17.98,11.29 40.71,8.14 59.59,0.85 22.89,-8.03 42.38,-22.91 60.96,-38.09 29.26,-24.47 55.09,-52.75 79.28,-82.18 12.39,-15.59 26.22,-30.57 33.79,-49.28 1.25,-3.6 1.26,-7.75 -0.49,-11.17 -9.47,-8.09 -22.36,-10.82 -34.54,-10.74 -21.48,0.24 -42.5,6.72 -64.03,5.62 -3.42,-0.43 -7.94,-0.04 -9.84,-3.57 -1.56,-3.76 -0.51,-7.94 -0.48,-11.84 62.89,-20.52 120.91,-55.15 169.83,-99.58 42.57,-38.78 78.62,-85.81 99.88,-139.62 0.99,-3.03 4.5,-3.95 6.77,-1.47 2.11,4.27 0.94,9.13 0.98,13.69 -2.84,101.12 8.49,203.34 39.64,299.84 1.69,4.04 -3.99,6.47 -6.36,3.35 -15.14,-14.67 -27.31,-33.5 -47.02,-42.59 -15.15,-7.33 -35.11,-1.9 -44.53,12.02 -8.65,12.16 -11.49,27.2 -18.79,40.07 -4.54,7.64 -6.99,16.23 -10.52,24.33 -21.65,51.38 -54.27,97.73 -93.21,137.47 -37.77,38.83 -81.53,71.62 -128.51,98.45 -48.96,27.71 -101.67,49.04 -156.53,61.67 -12.66,3.08 -25.91,4.23 -37.79,9.94 -27.73,12.59 -52.68,32.08 -70.55,56.83 -2.91,-0.01 -5.8,-0.01 -8.69,-0.01 -16.1,-20.04 -37.27,-35.61 -60.16,-47.08 -12.13,-5.84 -25.06,-10.61 -38.58,-11.56 -64.88,-5.29 -126.16,-32.95 -178.43,-70.79 -41.6,-30.14 -78.21,-66.93 -109.37,-107.72 -15.12,15.13 -28.72,31.67 -43.03,47.54 -2.98,3.07 -5.57,7.18 -10.04,8.16 -9.86,1.88 -19.5,-9.56 -15.26,-18.87 7.37,-12.25 18.77,-22.45 22.66,-36.58 2.55,-11.17 -6.03,-20.34 -12.75,-28.07 -21.65,-23.24 -45.09,-44.72 -67.33,-67.39 -19.94,-20.31 -40.62,-39.88 -60.57,-60.18 -2.5,1.72 -4.96,4.8 -8.31,3.1 -2.86,-3.03 0.23,-7.22 0.72,-10.6 -12.71,-13 -25.87,-25.54 -38.83,-38.27 -10.44,-9.06 -21.75,-19.79 -36.43,-20.11 -14.47,0.09 -26.05,10 -36.65,18.66 -5.29,4.31 -12.17,0.46 -16.65,-3.14 0.07,-5.53 0.05,-11.07 0.05,-16.6 22.82,-22.93 48.97,-42.34 70.82,-66.28 16.45,-17.27 31.45,-35.92 48.83,-52.27 11.12,-6.99 25.39,12.02 15.64,20.9 -6.88,8.11 -13.83,16.6 -17.22,26.81 -2.69,8.21 -0.34,17.12 4.31,24.12 7.41,11.12 17.09,20.46 26.53,29.82 16.2,-76.74 21.06,-155.64 17.28,-233.89 -1.01,-5.04 6.99,-6.65 7.7,-1.54 20.21,53.4 54.79,100.46 95.78,139.83 44.95,42.73 97.91,77.48 156.04,99.42 5.95,2.41 12.28,3.88 18.05,6.79 1.31,5.62 1.33,12.32 -4.37,15.55 11.49,14.15 23.02,28.35 36.34,40.85 4.32,3.57 6.2,10.14 3.28,15.16 -3.66,6.1 -9.4,10.57 -14.24,15.69 -16.42,15.5 -32.08,31.78 -48.14,47.65 19.98,19.27 40.81,37.98 64.24,53.02 16.58,10.26 36.75,18.44 56.4,12.83 27.15,-9.34 51.12,-27.13 68.64,-49.82 26.4,-33.89 40.41,-76.18 44.52,-118.63 0.96,-10.64 3.56,-21.15 3.44,-31.88 -0.04,-28.56 -0.11,-57.15 0.02,-85.71 -13.87,15.96 -36.74,21.01 -56.69,15.16 -1.56,15.64 -5.55,31.12 -12.55,45.25 -7.41,14.26 -18.04,26.63 -29.77,37.52 -12.54,11.4 -28.71,20.18 -46.07,19.7 -20.41,0.53 -38.74,-11.49 -52.09,-25.99 -12.1,-13.04 -19.05,-30.79 -18.35,-48.61 0.65,-22.5 10.26,-43.65 22.25,-62.32 12.22,-18.87 27.06,-35.93 42.93,-51.8 -9.83,-10.53 -19.93,-20.85 -31,-30.05 -10.78,-8.67 -23.63,-16.63 -37.94,-16.19 -14.35,0.82 -25.84,10.89 -34.21,21.74 -6.5,8.65 -12.05,19.56 -9.82,30.69 1.72,7.48 8.63,12.43 15.94,13.67 10.07,1.9 18.07,11.21 17.77,21.58 1.66,15.13 -9.45,29.01 -23.12,34.1 -10.94,3.65 -23.04,-1.21 -30.82,-9.13 -12.52,-11.62 -17.31,-29.47 -16.46,-46.1 1.74,-24.99 13.37,-48.48 29.3,-67.47 17.83,-20.2 40.37,-38.04 67.3,-43.57 14.19,-3.21 29.28,-1.33 42.45,4.68 14.05,6.19 26,16.12 36.86,26.81 23.16,22.91 46.02,46.17 69.23,69.05 9.38,8.33 17.3,18.83 28.88,24.29 6.72,3.02 12.66,-3.12 16.23,-8.12 4.32,-5.98 3.03,-15.02 9.64,-19.42 0.14,-27.27 -0.02,-54.56 0.07,-81.83 -46.13,-46.01 -92.57,-91.7 -138.62,-137.79 -9.15,-8.53 -17.91,-17.48 -27.82,-25.1 -6.76,-4.99 -15.46,-9.58 -24.01,-6.67 -10.6,3.76 -18.93,11.68 -27.85,18.24 -9.1,8.11 -25.98,-6.66 -17.82,-16.45 18.68,-21.65 38.9,-42.45 52.99,-67.59 2.66,-4.37 4.97,-9.9 10.2,-11.67 5.28,-1.3 10.87,0.96 14.54,4.8 52.59,52.67 105.71,104.82 158.37,157.41 -0.01,-28.05 0,-56.09 0.02,-84.14 0.11,-4.68 -1.31,-9.36 -4.08,-13.14 -7.48,-1.19 -12.14,7.11 -18.53,9.7 -7.6,1.61 -15.78,-4.47 -16.04,-12.29 -0.73,-5.37 4.27,-8.76 7.6,-12.09 9.65,-9.31 21.37,-16.1 31.09,-25.32 -0.13,-74.72 0,-149.42 -0.07,-224.14 -41.83,0.01 -83.66,-0.04 -125.49,0.03 -2.14,-0.09 -4.59,0.09 -6.11,-1.74 -0.82,-3.79 -0.46,-7.73 -0.52,-11.58 0.07,-26.61 0,-53.21 0.04,-79.82 0.03,-6.51 -0.5,-13.12 0.9,-19.52 43.73,0.08 87.47,0.01 131.19,0.03 0.02,-24.61 -0.05,-49.22 0.04,-73.81 -28.19,-13.14 -52.2,-35.38 -66.51,-63.07 -15.46,-28.91 -19.77,-63.36 -12.91,-95.33 6.81,-32.15 25.64,-61.35 51.58,-81.44 19.91,-15.43 43.98,-25.48 68.98,-28.65zm-70.18 39.61l0 0c-23.83,20.6 -39.99,49.86 -44.51,81.05 -4.34,28.08 0.96,57.45 14.49,82.41 13.58,25.09 35.32,45.72 61.19,57.77 1.89,1.3 5.58,1.9 5.25,4.9 0.39,27.45 -0.15,54.91 0.26,82.36 -2.34,0.83 -4.68,1.83 -7.21,1.74 -41.67,0.01 -83.36,-0.02 -125.03,0.01 0.02,32.51 -0.01,65.01 0,97.51 42.31,0.02 84.62,-0.02 126.92,0 2.91,-0.41 6.01,1.28 5.13,4.63 0.16,73.11 -0.06,146.21 0.1,219.32 10.23,-11.37 18.37,-24.7 29.95,-34.81 9.03,-4.54 20.94,6.31 17.25,15.76 -3.65,6.19 -8.9,11.37 -11.98,17.95 -5.87,10.89 -6.17,23.55 -6.46,35.6 -1.13,31.46 -2.27,62.95 -5.74,94.26 21.79,-20.35 53.07,-30.16 82.45,-23.63 -0.22,-27.24 0.3,-54.49 -0.23,-81.71 -10.53,-16.68 -19.4,-34.79 -22.82,-54.38 -6.53,-34.22 1.91,-71.14 23.05,-98.89 -0.02,-29.77 -0.06,-59.54 0,-89.31 -0.46,-2.66 1.27,-5.39 4.24,-4.72 35.81,-0.23 71.66,0.05 107.5,-0.12 5.57,-6.55 11.2,-13.02 16.81,-19.53 -0.04,-25.99 0,-51.97 -0.02,-77.94 -40.21,0.01 -80.43,-0.02 -120.64,0.01 -3.16,-0.1 -8.26,0.27 -7.82,-4.27 -0.13,-27.29 -0.21,-54.61 0.03,-81.9 6.78,-4.66 14.74,-7.39 21.42,-12.27 26.16,-17.38 46.1,-44.01 54.86,-74.21 8.14,-27.82 6.83,-58.33 -3.84,-85.3 -9.77,-25.16 -27.49,-47.13 -49.86,-62.22 -27.43,-18.76 -61.99,-26.83 -94.88,-22.01 -25.75,3.57 -50.32,14.81 -69.86,31.94zm155.84 556.5l0 0c3.27,17.39 14.32,32.04 25.51,45.27 9.82,-9.68 19.52,-19.49 29.29,-29.22 14.84,-15.36 31.23,-29.28 45.02,-45.61 -12.38,-17.34 -32.32,-30.66 -54.22,-30.02 -28.81,1.07 -50.89,31.85 -45.6,59.58zm-98.56 248.12l0 0c12.54,12.44 24.83,25.16 37.7,37.27 7.64,7 14.95,15.25 25.06,18.6 7.74,2.68 15.26,-1.58 22,-4.95 0,-20.46 -0.02,-40.94 0,-61.4 -28,-6.23 -60.73,-7.81 -84.76,10.48zm505.64 187.58l0 0c-42.98,38.65 -92.75,69.95 -146.67,90.91 -6.93,2.85 -14.4,4.52 -20.78,8.56 13.41,2.31 26.95,-0.55 40.27,-2.22 19.04,-2.71 39.57,-5.35 57.57,3.25 5.59,2.94 12.7,6.26 13.57,13.33 2.71,13.73 -7.2,25.18 -13.48,36.35 -36.47,46.95 -75.57,92.99 -124.14,127.92 -18.03,13.37 -38.67,23.61 -60.72,28.15 -16.5,3.41 -34.62,1.56 -48.85,-7.94 -63.25,-45.69 -107.74,-117.54 -117.65,-195.19 -0.02,-68.9 0,-137.81 0,-206.71 -19.5,14.61 -35.57,33.1 -50.82,51.97 -6.2,6.86 -12.07,14.11 -19.09,20.16 -8.16,5.43 -19.61,-3.51 -18.27,-12.68 0.59,-4.55 4.17,-7.8 6.71,-11.34 5.28,-7.06 10.72,-14.9 11.24,-23.98 -0.02,-7.39 -5.04,-13.37 -9.9,-18.37 -8.42,-8.49 -16.95,-16.9 -25.37,-25.39 0.02,24.81 -0.04,49.6 0.02,74.38 3.05,1.76 7.48,2.7 8.47,6.62 2.89,16.35 -0.62,33.28 -8.19,47.91 -0.78,33.67 0.02,67.41 -0.37,101.12 -0.57,9.4 -2.5,18.67 -3.41,28.05 -3.1,32.04 -11.75,63.71 -26.84,92.22 -15.46,29.61 -38.65,55.8 -68.28,71.78 -11.81,6.1 -24.24,12.48 -37.89,12.2 -25.91,0.3 -48.62,-14.72 -68.34,-29.95 -15.92,-12.3 -31.12,-25.55 -45.18,-39.95 -27.78,27.65 -55.76,55.09 -83.35,82.91 32.75,43.27 71.95,81.83 116.54,112.85 49.05,33.88 105.81,58.67 165.68,63.58 13.39,0.99 26.35,5.14 38.52,10.68 24.55,11.4 46.97,27.85 64.45,48.62 12.32,-16.74 28.08,-30.7 45.27,-42.29 14.29,-9.35 29.78,-17.49 46.63,-20.94 56.86,-10.73 111.67,-31.3 162.5,-58.8 50.66,-27.47 97.6,-62.06 137.95,-103.23 39.08,-40.22 72.11,-86.91 93.25,-139.02 2.8,-6.61 4.72,-13.6 8.42,-19.79 8.62,-14.48 11.28,-32.11 22.36,-45.19 11.63,-14.15 32.66,-19.19 49.58,-12.34 16.43,6.54 28.69,19.96 40.02,33.03 -5.71,-18.62 -10.55,-37.49 -14.7,-56.51 -15.62,-72.84 -22.29,-147.67 -20.23,-222.12 -22.77,48.67 -56.71,91.53 -96.5,127.4zm-1013.1 -123.25l0 0c1.83,73.63 -3.46,147.73 -19.34,219.78 9.02,9.61 18.56,18.72 27.83,28.08 15.78,-4.15 33.89,0.54 44.76,12.95 11.75,13.56 14.57,32.02 23.6,47.15 3.33,5.21 3.95,12 8.76,16.25 15.05,14.58 29.11,30.31 45.74,43.18 9.13,6.95 20.73,12.91 32.5,9.82 20.79,-5.21 36.6,-20.71 51.21,-35.49 -15.48,-17.06 -30.04,-34.92 -44.31,-53 -6.9,-8.32 -12.14,-17.86 -16.91,-27.51 -3.64,-8.29 -3.99,-20.9 5.28,-25.6 19.08,-12.77 43.26,-9.88 64.75,-6.72 2.2,-3.95 4.83,-7.62 7.86,-10.97 -39.97,-16.92 -77.26,-39.92 -111.05,-67.08 -50.41,-40.75 -93.73,-91.57 -120.68,-150.84zm347.51 86.01l0 0c-12.8,15.59 -25.1,32.27 -31.29,51.71 -4.1,12.9 -4.26,27.91 3.33,39.59 7.02,10.3 17.84,18.95 30.52,20.59 9.09,1.31 17.34,-4.06 23.65,-10.06 12,-11.97 19.79,-28 22.45,-44.7 0.87,-3.97 0.74,-8.65 -2.59,-11.47 -15.23,-15.34 -30.55,-30.61 -46.07,-45.66zm-92.48 141.02l0 0c-0.48,2.87 5.28,7 7.11,3.6 -0.84,-2.77 -4.56,-3.74 -7.11,-3.6zm-85.52 11.61l0 0c-4.41,2.27 -10.82,4.72 -10.43,10.77 0.15,10.05 7.36,18.1 11.81,26.65 15.62,20.83 32.38,40.81 49.63,60.3 6.9,-8.08 14.51,-15.89 18.96,-25.66 4.94,-10.85 9.73,-22.69 7.41,-34.86 -2.91,-14.7 -11.74,-27.25 -20.64,-38.94 -18.69,-2.55 -38.87,-6.36 -56.74,1.74zm-154.21 15.36l0 0c16.94,17.59 34.56,34.52 51.64,51.99 -6.44,-13.18 -9.63,-28.18 -19.21,-39.62 -7.76,-9.39 -20.53,-13.36 -32.43,-12.37zm511.17 -1072.58l0 0c-13.84,3.39 -26.13,12.7 -33,25.22 -9.46,16.29 -8.51,37.85 2.2,53.35 12.47,19.24 38.32,28.21 59.99,20.52 24.88,-7.79 41.08,-36.19 33.97,-61.51 -6.26,-26.96 -36.44,-45.04 -63.16,-37.58z"/>
   <path class="fil1" d="M740.53 1127.89c-39.97,-16.92 -77.26,-39.92 -111.05,-67.08 -50.41,-40.75 -93.73,-91.57 -120.68,-150.84 1.83,73.63 -3.46,147.73 -19.34,219.78 9.02,9.61 18.56,18.72 27.83,28.08 15.78,-4.15 33.89,0.54 44.76,12.95 11.75,13.56 14.57,32.02 23.6,47.15 3.33,5.21 3.95,12 8.76,16.25 15.05,14.58 29.11,30.31 45.74,43.18 9.13,6.95 20.73,12.91 32.5,9.82 20.79,-5.21 36.6,-20.71 51.21,-35.49 -15.48,-17.06 -30.04,-34.92 -44.31,-53 -6.9,-8.32 -12.14,-17.86 -16.91,-27.51 -3.64,-8.29 -3.99,-20.9 5.28,-25.6 19.08,-12.77 43.26,-9.88 64.75,-6.72 2.06,-3.7 4.5,-7.16 7.29,-10.33 0.19,-0.22 0.38,-0.43 0.57,-0.64zm360.49 -231.33c0,-20.46 -0.02,-40.94 0,-61.4 -28,-6.23 -60.73,-7.81 -84.76,10.48 12.54,12.44 24.83,25.16 37.7,37.27 7.64,7 14.95,15.25 25.06,18.6 7.74,2.68 15.26,-1.58 22,-4.95zm76.4 -717.95c8.14,-27.82 6.83,-58.33 -3.84,-85.3 -9.77,-25.16 -27.49,-47.13 -49.86,-62.22 -27.43,-18.76 -61.99,-26.83 -94.88,-22.01 -25.75,3.57 -50.32,14.81 -69.86,31.94 -23.83,20.6 -39.99,49.86 -44.51,81.05 -4.34,28.08 0.96,57.45 14.49,82.41 13.58,25.09 35.32,45.72 61.19,57.77 1.89,1.3 5.58,1.9 5.25,4.9 0.39,27.45 -0.15,54.91 0.26,82.36 -2.34,0.83 -4.68,1.83 -7.21,1.74 -41.67,0.01 -83.36,-0.02 -125.03,0.01 0.02,32.51 -0.01,65.01 0,97.51 42.31,0.02 84.62,-0.02 126.92,0 2.91,-0.41 6.01,1.28 5.13,4.63 0.16,73.11 -0.06,146.21 0.1,219.32 10.23,-11.37 18.37,-24.7 29.95,-34.81 9.03,-4.54 20.94,6.31 17.25,15.76 -3.65,6.19 -8.9,11.37 -11.98,17.95 -5.87,10.89 -6.17,23.55 -6.46,35.6 -1.13,31.46 -2.27,62.95 -5.74,94.26 21.79,-20.35 53.07,-30.16 82.45,-23.63 -0.22,-27.24 0.3,-54.49 -0.23,-81.71 -10.53,-16.68 -19.4,-34.79 -22.82,-54.38 -6.53,-34.22 1.91,-71.14 23.05,-98.89 -0.02,-29.77 -0.06,-59.54 0,-89.31 -0.46,-2.66 1.27,-5.39 4.24,-4.72 35.81,-0.23 71.66,0.05 107.5,-0.12 5.57,-6.55 11.2,-13.02 16.81,-19.53 -0.04,-25.99 0,-51.97 -0.02,-77.94 -40.21,0.01 -80.43,-0.02 -120.64,0.01 -3.16,-0.1 -8.26,0.27 -7.82,-4.27 -0.13,-27.29 -0.21,-54.61 0.03,-81.9 6.78,-4.66 14.74,-7.39 21.42,-12.27 26.16,-17.38 46.1,-44.01 54.86,-74.21zm-142.36 -95.02c25.13,-5.8 53.3,6.62 65.3,29.58 9.06,16.15 9.58,36.61 1.72,53.35 -5.62,11.95 -15.35,21.93 -27.14,27.91 -18.32,9.29 -41.46,8.32 -58.85,-2.66 -19.28,-11.72 -30.57,-35.04 -27.52,-57.43 2.61,-24.58 22.31,-45.93 46.49,-50.75zm603.57 1044.35c-15.62,-72.84 -22.29,-147.67 -20.23,-222.12 -22.77,48.67 -56.71,91.53 -96.5,127.4 -42.98,38.65 -92.75,69.95 -146.67,90.91 -6.93,2.85 -14.4,4.52 -20.78,8.56 13.41,2.31 26.95,-0.55 40.27,-2.22 19.04,-2.71 39.57,-5.35 57.57,3.25 5.59,2.94 12.7,6.26 13.57,13.33 2.71,13.73 -7.2,25.18 -13.48,36.35 -36.47,46.95 -75.57,92.99 -124.14,127.92 -18.03,13.37 -38.67,23.61 -60.72,28.15 -16.5,3.41 -34.62,1.56 -48.85,-7.94 -63.25,-45.69 -107.74,-117.54 -117.65,-195.19 -0.02,-68.9 0,-137.81 0,-206.71 -19.5,14.61 -35.57,33.1 -50.82,51.97 -6.2,6.86 -12.07,14.11 -19.09,20.16 -8.16,5.43 -19.61,-3.51 -18.27,-12.68 0.59,-4.55 4.17,-7.8 6.71,-11.34 5.28,-7.06 10.72,-14.9 11.24,-23.98 -0.02,-7.39 -5.04,-13.37 -9.9,-18.37 -8.42,-8.49 -16.95,-16.9 -25.37,-25.39 0.02,24.81 -0.04,49.6 0.02,74.38 3.05,1.76 7.48,2.7 8.47,6.62 2.89,16.35 -0.62,33.28 -8.19,47.91 -0.78,33.67 0.02,67.41 -0.37,101.12 -0.57,9.4 -2.5,18.67 -3.41,28.05 -3.1,32.04 -11.75,63.71 -26.84,92.22 -15.46,29.61 -38.65,55.8 -68.28,71.78 -11.81,6.1 -24.24,12.48 -37.89,12.2 -25.91,0.3 -48.62,-14.72 -68.34,-29.95 -15.92,-12.3 -31.12,-25.55 -45.18,-39.95 -27.78,27.65 -55.76,55.09 -83.35,82.91 32.75,43.27 71.95,81.83 116.54,112.85 49.05,33.88 105.81,58.67 165.68,63.58 13.39,0.99 26.35,5.14 38.52,10.68 24.55,11.4 46.97,27.85 64.45,48.62 12.32,-16.74 28.08,-30.7 45.27,-42.29 14.29,-9.35 29.78,-17.49 46.63,-20.94 56.86,-10.73 111.67,-31.3 162.5,-58.8 50.66,-27.47 97.6,-62.06 137.95,-103.23 39.08,-40.22 72.11,-86.91 93.25,-139.02 2.8,-6.61 4.72,-13.6 8.42,-19.79 8.62,-14.48 11.28,-32.11 22.36,-45.19 11.63,-14.15 32.66,-19.19 49.58,-12.34 16.43,6.54 28.69,19.96 40.02,33.03 -5.71,-18.62 -10.55,-37.49 -14.7,-56.51z"/>
  </g>
 </g>
</svg>
