<?xml version="1.0" encoding="UTF-8"?>
<!DOCTYPE svg PUBLIC "-//W3C//DTD SVG 1.1//EN" "http://www.w3.org/Graphics/SVG/1.1/DTD/svg11.dtd">
<!-- Creator: CorelDRAW -->
<svg xmlns="http://www.w3.org/2000/svg" xml:space="preserve" width="2000px" height="1600px" version="1.1" style="shape-rendering:geometricPrecision; text-rendering:geometricPrecision; image-rendering:optimizeQuality; fill-rule:evenodd; clip-rule:evenodd"
viewBox="0 0 2000 1600"
 xmlns:xlink="http://www.w3.org/1999/xlink">
 <defs>
  <style type="text/css">
   <![CDATA[
    .fil0 {fill:#041E41;fill-rule:nonzero}
    .fil3 {fill:#AC152C;fill-rule:nonzero}
    .fil2 {fill:#BCBABA;fill-rule:nonzero}
    .fil1 {fill:#FEFEFE;fill-rule:nonzero}
   ]]>
  </style>
 </defs>
 <g id="Capa_x0020_1">
  <metadata id="CorelCorpID_0Corel-Layer"/>
  <g id="Liberty_x0020_Flames.cdr">
   <path class="fil0" d="M150.47 318.69c160.89,0 321.79,0 482.69,0 -43.1,202.97 -86.39,405.89 -129.5,608.88 73.22,0 146.41,-0.02 219.63,0 3.83,-21.38 11.35,-43.36 5.44,-65.1 -4.41,-18 -19.16,-31.46 -35.51,-38.96 -30.7,-14.8 -65.41,-14.2 -98.55,-17.53 10.13,-45.46 20.4,-90.91 30.58,-136.35 162.47,0.02 324.92,-0.04 487.37,0.02 -33.55,154.84 -67.01,309.71 -100.58,464.56 -6.51,30.91 -14.97,61.92 -13.83,93.79 0.76,18.15 4.67,37.29 16.89,51.39 12.64,14.99 32.28,21.81 51.22,24.22 21.1,2.37 43.36,1.89 62.93,-7.27 20.86,-9.12 35.54,-28.15 45.27,-48.15 11.22,-23.66 17.74,-49.2 23.57,-74.64 19.37,-90.61 38.73,-181.25 58.08,-271.87 3.4,-16.95 3.98,-35.66 -4.45,-51.29 -9.51,-16.61 -27.1,-26.61 -44.8,-32.45 -27.22,-9.4 -56.32,-8.99 -84.64,-11.96 10.23,-45.44 20.32,-90.9 30.6,-136.32 158.39,-0.07 316.78,-0.03 475.18,-0.01 -40.04,184.57 -80.04,369.16 -120.04,553.73 -11.29,53.18 -27.05,105.67 -50.65,154.75 -23.69,49.2 -55.91,94.84 -97.52,130.53 -38.82,33.53 -85.62,57.17 -134.91,70.95 -52.43,15.12 -107.22,19.61 -161.56,20.39l-1.55 0c-61.03,-0.73 -121.87,-10.37 -180.33,-27.74 -65.33,-19.96 -124.73,-61.12 -163.01,-118.07 -35.44,-52.39 -50.04,-116.81 -48.4,-179.5 0.21,-20.31 2.77,-40.52 5.2,-60.65 -187.4,-0.02 -374.8,-0.02 -562.21,-0.02l0 -1.7c47.14,-220.86 94.06,-441.76 141.05,-662.64 3.57,-18.76 3.68,-40.26 -8.5,-56.13 -14.47,-19.06 -38.51,-27.33 -61.11,-31.94 -21.49,-2.6 -43.06,-4.47 -64.6,-6.67 10.21,-45.43 20.4,-90.83 30.55,-136.25zm414.43 535.59c32.31,-0.43 65.4,-4.41 96.95,4.84 7.42,2.38 15.22,4.88 21.07,10.26 3.79,3.37 3.19,8.81 3.36,13.37 -42.49,-0.08 -84.97,-0.02 -127.46,-0.04 2.06,-9.48 3.97,-18.97 6.08,-28.43zm554.11 -3.61c27.89,3.07 57.23,1.42 83.33,13.33 4.28,2.43 10.13,4.88 11.01,10.36 1.64,9.04 -0.94,18.11 -2.73,26.93 -18.73,87.38 -37.35,174.79 -56.06,262.19 -3.91,17.72 -8.5,35.34 -14.71,52.43 -4.78,12.71 -10.9,25.42 -20.95,34.84 -10.32,8.58 -24.53,9.96 -37.42,9.38 -10.28,-0.71 -21.55,-1.16 -30.11,-7.62 -5.31,-3.99 -7.24,-10.71 -7.86,-16.99 -1.7,-17.41 0.23,-34.94 3.61,-52.02 23.91,-110.96 48.08,-221.85 71.89,-332.83zm-84.71 -850.67l64.36 0c49.84,1.79 99.58,6.26 149,12.99 69.14,9.76 137.97,27.33 200.17,59.72 31.52,16.32 61.14,36.45 87.31,60.47 26.24,24.22 46.79,54.6 59.31,88.03 40.45,7.07 80.75,16.83 118.32,33.74 21.01,9.39 40.82,21.59 57.9,37.05 49.35,42.24 90.15,96.95 106.99,160.41 5.24,19.24 8.04,39.07 9.26,58.95l0 27.37c-2.68,50.62 -17.59,99.91 -39.27,145.51 -10.58,-34.18 -27.41,-67.51 -53.95,-92.09 -12.58,-11.38 -27.01,-20.47 -41.66,-28.9 -7.09,8.21 -15.42,15.22 -24.17,21.57 -55.98,40.73 -127.29,60.6 -196.22,52.26 -36.71,-5 -73.57,-11.08 -108.53,-23.75 -30.95,-10.43 -61.12,-23.12 -90.11,-38.19 -20.8,16.82 -42.52,32.52 -64.8,47.35 -2.17,1.53 -4.7,2.48 -7.37,2.3 -215.7,-0.02 -431.42,0 -647.12,-0.02 5.96,-28.53 12.15,-57.03 18.13,-85.56 39.5,8.06 78.94,16.98 117.18,29.86 16.71,5.85 33.51,11.44 50,17.94 24.82,9.05 51.92,16.21 78.35,10.47 17.14,-3.57 32.26,-15.57 39.03,-31.82 9.98,-23.81 7.24,-52.01 -4.63,-74.65 -6.12,-12.21 -17.84,-19.91 -28.85,-27.25 -30,-18.99 -65.6,-26.4 -100.57,-28.97 -30,-2.17 -60.23,-2.42 -90.23,-0.14 -12.92,0.21 -25.7,2.1 -38.58,2.86 11.48,-54.59 23.24,-109.12 34.73,-163.71 -171.94,0.07 -343.89,0.01 -515.83,0.03 69.29,-26.82 137.03,-57.42 204.32,-88.86 71.04,-33.62 142.82,-65.94 216.61,-93.18 85.12,-31.6 172.7,-57.14 262.17,-73.04 59.01,-10.69 118.82,-16.66 178.75,-18.75z"/>
   <path class="fil1" d="M1483.61 286.56c3.79,-3.83 6.62,-8.73 10.93,-12 6.79,-1.05 13.8,-0.76 20.68,-0.62 15.34,2.83 31.01,3.18 46.35,6.1 54.15,9.06 108.47,28.3 149.93,65.4 24.33,21.85 43.21,50.09 52.89,81.4 2.38,8.49 4.56,19.09 -1.85,26.39 -6.91,7.13 -17.77,7.11 -27.01,6.88 -26.07,-1.74 -51.57,-7.98 -77.19,-12.69 -10.12,-1.68 -20.13,-5.03 -30.47,-3.89l-0.84 0.04c-13.46,-3.59 -27.35,-5.31 -41.01,-7.92 -77.31,-11.09 -156.67,4.29 -227.59,35.83 -22.41,9.88 -44.15,21.31 -65.07,34.03 -18.33,11 -35.73,23.67 -55.12,32.79 -29.7,14.09 -60.17,28.13 -93.02,32.73 -18.19,2.52 -38.72,0.91 -53.16,-11.59 -14.08,-12.17 -19.05,-31.35 -20.77,-49.16 -1.55,-14.86 1.76,-31.16 12.84,-41.85 12.51,-11.83 29.68,-16.58 46,-20.52 20.92,-4.55 42.08,-7.91 63.2,-11.22 71.96,-5.85 140.9,-33.64 200.52,-73.68 32.64,-22 63.2,-47.33 89.76,-76.45zm-1370.53 927.46c187.41,0 374.81,0 562.21,0.02 -2.43,20.13 -4.99,40.34 -5.2,60.65 -1.64,62.69 12.96,127.11 48.4,179.5 38.28,56.95 97.68,98.11 163.01,118.07 58.46,17.37 119.3,27.01 180.33,27.74l-948.75 0 0 -385.98zm1386.08 -479.44c16.08,0 32.17,-0.02 48.24,0.02 -33.38,154.63 -66.95,309.23 -100.43,463.85 -12.28,59.91 -29.53,119.53 -59.4,173.23 -25.46,45.93 -61.2,87.14 -106.8,113.93 -52.1,31.25 -113.12,43.77 -173.12,47.76 -22.9,1.19 -45.89,2.35 -68.79,0.63 60.86,-2.37 122.86,-12 177.65,-39.92 43.57,-21.85 80.05,-56.36 106.93,-96.81 35.96,-53.83 56.82,-116.17 70.9,-178.91 34.97,-161.26 69.9,-322.51 104.82,-483.78zm-515.35 0c16.1,0 32.19,-0.02 48.28,0 -27.9,128.88 -55.77,257.76 -83.64,386.64 -8.52,38.78 -18.19,78.26 -14.52,118.29 2.69,33.84 15.79,67.86 41.02,91.26 23.7,22.86 56.17,33.74 88.25,37.92 -35.54,4.08 -72.77,0.17 -105.16,-15.66 -29.63,-14.52 -53.25,-40.99 -63.55,-72.41 -14.96,-42.36 -10.12,-88.56 -0.41,-131.52 30.01,-138.15 59.77,-276.35 89.73,-414.52zm439.28 -228.95c46.85,-8.56 95.02,-10.47 142.33,-4.64 27.95,3.14 55.27,9.96 82.23,17.8 -0.49,17.96 -12.47,33.36 -27.56,42.11 -24.09,14.15 -52.91,16.46 -80.26,15.83 -57.47,-10.62 -111.06,-35.38 -167.06,-51.35 15.59,-9.1 32.37,-16.8 50.32,-19.75zm-918.42 -121.99c16.08,0 32.17,0.02 48.25,0 -43.18,203.05 -86.42,406.1 -129.59,609.16 -16.12,0.4 -32.23,0.12 -48.34,0.14 43.29,-203.09 86.37,-406.21 129.68,-609.3zm807.76 -152.01c-3.66,-13.16 0.09,-30.15 13.25,-36.55 7.76,6.23 16.34,11.28 25.01,16.1 -6.35,8.39 -8.67,19.77 -5.16,29.83 4.27,14.49 17.63,24.9 32.38,27.01 -8.13,5.01 -18.26,6.54 -27.18,2.63 -17.1,-7.21 -33.14,-20.59 -38.3,-39.02zm-522.52 -136.7c93.79,-23.86 190.91,-35.19 287.68,-32.31 40.04,0.46 79.91,4.5 119.77,7.73 28.57,2.94 56.9,7.76 85.05,13.37 31.59,14.32 63.59,30.02 88.08,55.21 17.51,17.65 29.29,42.14 27.01,67.44 -30.43,-14.03 -57.5,-34.28 -87.93,-48.28 -43.98,-20.88 -92.19,-31.06 -140.3,-36.59 -41.42,-4.66 -83.53,-7.46 -124.9,-0.86 -47.49,7.32 -93.3,27 -130.33,57.77 17.17,-6.37 35.1,-10.26 52.39,-16.24 3.42,0.32 6.88,0.54 10.34,0.13 41.49,-6.02 84.91,-4.21 124.45,10.62 26.67,10.33 52.24,27.25 66.63,52.63 10.71,18.39 13.48,42.06 4.43,61.68 -6.11,13.56 -17.36,24.1 -30.02,31.56 -20.28,11.9 -43.55,17.75 -66.73,20.48 -46.65,-4.19 -91.77,-21.46 -130.13,-48.15 -5.55,-3.76 -10.75,-8 -16.35,-11.68 23.38,29.72 55.85,51.31 90.33,66.19 55.76,23.75 118.25,27.55 177.76,19.21 23.53,-3.57 47.25,-7.68 69.38,-16.77 28.3,-11.06 52.96,-29.27 77.37,-46.99 20.54,4.19 41.64,5.91 62.5,2.94 -16.95,22.97 -41.4,38.88 -66.05,52.52 -39.5,21.14 -82.38,35.54 -126.08,45.01 -40.86,8.23 -82.39,12.64 -123.81,16.88 -44.69,3.79 -89.78,7.36 -134.56,2.8 -32.38,-3.12 -63.95,-17.44 -86.32,-41.23 -13.08,-13.96 -22.73,-31.66 -24.88,-50.84 -1.66,-15.23 1.91,-30.8 9.44,-44.08 5.48,-10.33 15.29,-17.32 24.56,-23.98 27.98,-17.38 61.31,-25.27 94.1,-24.5 52.65,1.81 103.36,21.72 147.08,50.33 -16.88,-33.23 -47.5,-58.2 -81.98,-71.53 -41.76,-16.33 -87.68,-18.26 -131.87,-13.9 -52.96,5.34 -104.58,19.62 -154.67,37.21 41.9,-52.11 98.03,-93.36 161.98,-113.89 -57.93,0.81 -115.52,8.84 -172.51,18.9 -54.75,9.87 -109.03,22.32 -162.63,37.14 65.64,-39.25 137.77,-66.84 211.72,-85.93zm778.26 207.35l0 0c-10.54,2.41 -20.45,10.11 -22.69,21.1 -0.96,5.78 -2.47,12.32 0.35,17.82 4.88,2.35 10.49,0.15 15.27,-1.55 14,-5.82 26.92,-13.91 39.44,-22.4 3.85,-2.67 8.02,-5.83 9.11,-10.69 -0.56,-5.18 -6.83,-5.63 -10.84,-6.32 -10.23,-0.63 -20.66,-0.58 -30.64,2.04z"/>
   <path class="fil2" d="M1282.41 83.72c41.35,7.31 81.12,21.4 120.39,35.94 21.24,8.79 42,20.41 57.44,37.76 10.45,11.63 16.64,28.56 11.22,43.87 -3.03,9.81 -12.09,16.9 -22.17,18.22 -18.3,3.16 -35.53,-5.21 -51.81,-12.31l0.02 -0.83c2.28,-25.3 -9.5,-49.79 -27.01,-67.44 -24.49,-25.19 -56.49,-40.89 -88.08,-55.21zm365.24 435.07c25.7,7.21 50.5,17.4 74.74,28.54 -27.64,19.81 -61.34,29.74 -94.91,33.04 -29.57,4.43 -59.89,3.35 -88.96,-3.64l1.31 0c27.35,0.63 56.17,-1.68 80.26,-15.83 15.09,-8.75 27.07,-24.15 27.56,-42.11zm-955.52 -84.14c30,-2.28 60.23,-2.03 90.23,0.14 34.97,2.57 70.57,9.98 100.57,28.97 11.01,7.34 22.73,15.04 28.85,27.25 11.87,22.64 14.61,50.84 4.63,74.65 -6.77,16.25 -21.89,28.25 -39.03,31.82 -26.43,5.74 -53.53,-1.42 -78.35,-10.47 -16.49,-6.5 -33.29,-12.09 -50,-17.94 10.75,-2.28 21.98,-1.97 32.48,-5.46 13.35,-4.08 26.02,-12.3 32.9,-24.75 9.44,-16.8 10.82,-38.9 0.45,-55.61 -8.54,-14.03 -23.16,-22.95 -37.89,-29.34 -24.41,-10.25 -50.84,-14.53 -77.04,-16.71 -2.77,-0.32 -5.37,-1.16 -7.8,-2.55zm823.09 -160.71c5.44,-1.38 11.1,-1.08 16.69,-1.34 26.65,-0.92 53.55,0.69 79.55,6.95 21.66,5.65 43.77,10.06 64.52,18.68 36.12,14.27 67.5,39.04 91.95,69.02 17.4,21.57 33.1,44.92 43.42,70.77 13.87,39.51 20.6,81.42 20.5,123.27 -18.28,-24.62 -42.61,-44.04 -68.3,-60.47 -41.64,-26.54 -88.54,-43.46 -135.68,-57.29 10.34,-1.14 20.35,2.21 30.47,3.89 25.62,4.71 51.12,10.95 77.19,12.69 9.24,0.23 20.1,0.25 27.01,-6.88 6.41,-7.3 4.23,-17.9 1.85,-26.39 -9.68,-31.31 -28.56,-59.55 -52.89,-81.4 -41.46,-37.1 -95.78,-56.34 -149.93,-65.4 -15.34,-2.92 -31.01,-3.27 -46.35,-6.1zm-548.79 -111.77c30.62,-10.51 63.38,-14.62 95.68,-13.82 41.26,1.24 82.79,13.78 115.57,39.35 20.49,15.91 38.96,36.43 46.26,61.85 5.57,18.73 2.85,40.19 -9.27,55.83 -14.28,18.99 -37.44,28.7 -60.11,33.29 -26.02,4.86 -52.95,4.83 -79.03,0.6 23.18,-2.73 46.45,-8.58 66.73,-20.48 12.66,-7.46 23.91,-18 30.02,-31.56 9.05,-19.62 6.28,-43.29 -4.43,-61.68 -14.39,-25.38 -39.96,-42.3 -66.63,-52.63 -39.54,-14.83 -82.96,-16.64 -124.45,-10.62 -3.46,0.41 -6.92,0.19 -10.34,-0.13z"/>
   <path class="fil3" d="M202.56 383.64c100.71,0.02 201.4,-0.01 302.11,0 -43.31,203.09 -86.39,406.21 -129.68,609.3 16.11,-0.02 32.22,0.26 48.34,-0.14 117.72,-0.65 235.44,-0.09 353.16,-0.28 5.1,-25.58 10.31,-51.14 15.47,-76.71 6.3,-29.29 5.46,-60.93 -7.08,-88.52 -9.38,-21.42 -25.68,-39.35 -45.24,-51.98 -19.83,-13.12 -42.59,-21.18 -65.75,-26.08 1.12,-4.87 2.26,-9.77 3.42,-14.63 102.17,-0.04 204.34,-0.02 306.5,-0.02 -29.96,138.17 -59.72,276.37 -89.73,414.52 -233.69,-0.09 -467.37,0 -701.05,-0.05 39.85,-187.5 79.79,-374.97 119.66,-562.47 3.94,-18.99 8.9,-38.02 8.39,-57.57 0.75,-31.78 -11.29,-63.89 -33.83,-86.47 -23.46,-23.96 -55.55,-37.55 -87.96,-44.28 1.01,-4.89 2.11,-9.77 3.27,-14.62zm1002.3 350.94c98.09,0.02 196.19,-0.02 294.3,0 -34.92,161.27 -69.85,322.52 -104.82,483.78 -14.08,62.74 -34.94,125.08 -70.9,178.91 -26.88,40.45 -63.36,74.96 -106.93,96.81 -54.79,27.92 -116.79,37.55 -177.65,39.92 -40.56,-1.4 -80.78,-8.69 -120.06,-18.71 -56.52,-13.57 -109.85,-45.38 -143.57,-93.38 -15.44,-22.15 -27.79,-47.22 -31.72,-74.11 -2.41,-16.55 0.64,-35.8 14.9,-46.36 21.24,-15.87 48.24,-22.6 74.39,-23.78 20.56,0.7 41.22,0.6 61.69,2.96 10.3,31.42 33.92,57.89 63.55,72.41 32.39,15.83 69.62,19.74 105.16,15.66 28.71,2.49 58.41,0.99 85.42,-10 26.11,-9.9 48.67,-27.98 65.16,-50.43 24.71,-32.73 36.33,-72.88 45.81,-112.16 18.07,-83.37 35.66,-166.81 53.57,-250.19 4.17,-21.1 10.34,-42.04 10.26,-63.74 0.58,-29.76 -8.82,-60.13 -28.52,-82.75 -23.52,-27.61 -58.3,-42.88 -93.2,-50.11 0.95,-4.94 1.96,-9.85 3.16,-14.73z"/>
  </g>
 </g>
</svg>
