<?xml version="1.0" encoding="UTF-8"?>
<!DOCTYPE svg PUBLIC "-//W3C//DTD SVG 1.1//EN" "http://www.w3.org/Graphics/SVG/1.1/DTD/svg11.dtd">
<!-- Creator: CorelDRAW -->
<svg xmlns="http://www.w3.org/2000/svg" xml:space="preserve" width="2000px" height="1600px" version="1.1" style="shape-rendering:geometricPrecision; text-rendering:geometricPrecision; image-rendering:optimizeQuality; fill-rule:evenodd; clip-rule:evenodd"
viewBox="0 0 2000 1600"
 xmlns:xlink="http://www.w3.org/1999/xlink">
 <defs>
  <style type="text/css">
   <![CDATA[
    .fil2 {fill:black;fill-rule:nonzero}
    .fil0 {fill:#A9ACAB;fill-rule:nonzero}
    .fil3 {fill:#FCD900;fill-rule:nonzero}
    .fil1 {fill:#FEFEFE;fill-rule:nonzero}
   ]]>
  </style>
 </defs>
 <g id="Capa_x0020_1">
  <metadata id="CorelCorpID_0Corel-Layer"/>
  <g id="LIU_x0020_Brooklyn_x0020_Blackbirds.cdr">
   <path class="fil0" d="M1619.07 1252.8l-1522.07 0c-4.84,0 -9.37,-2.36 -12.13,-6.33 -2.77,-3.96 -3.41,-9.03 -1.72,-13.55l147.64 -396.64c4.59,-12.3 12.68,-21.35 22.32,-29.6l-131.92 -6.46c-6.63,-0.33 -12.23,-5.03 -13.69,-11.5 -0.77,-3.4 -0.29,-6.84 1.19,-9.8l-1.59 0.32c-3.31,0.65 -6.76,0.17 -9.76,-1.4l-52.4 -27.39c-5.23,-2.74 -8.32,-8.3 -7.88,-14.18 0.45,-5.87 4.35,-10.91 9.93,-12.83l102.83 -35.31 -85.15 6.25c-4.18,0.31 -8.25,-1.16 -11.27,-4.02l-48.8 -46.26c-4.29,-4.06 -5.73,-10.28 -3.68,-15.81 2.06,-5.53 7.22,-9.31 13.12,-9.61l45.32 -2.26 22.18 -13.56 -37.16 -12.69c-1.62,-0.55 -3.12,-1.37 -4.45,-2.44l-29.13 -23.25c-4.69,-3.74 -6.64,-9.93 -4.94,-15.67 1.69,-5.75 6.7,-9.9 12.66,-10.51l84.51 -8.64c9.27,-4.47 24.97,-9.04 41.21,-13.06l-7.35 -6.48c-27.8,-4.74 -60.02,-43.46 -73.16,-60.71l-7.76 -10.22c-3.78,-4.97 -4.01,-11.77 -0.58,-16.99 3.43,-5.22 9.76,-7.72 15.86,-6.24l91.24 22.2 39.44 -0.89 -62.53 -62.38c-4.14,-4.13 -5.45,-10.31 -3.33,-15.76 2.12,-5.45 7.26,-9.13 13.11,-9.4l55.43 -2.51c3.19,-0.15 6.35,0.74 8.99,2.54l91.33 62.04 120.45 26.7 328.63 45.43c0.96,0.13 1.91,0.37 2.83,0.69 67.71,23.64 176.86,89.35 213.27,111.81 22.89,-13.19 60.17,-19.87 111.06,-19.87 19.07,0 35.45,0.99 43.87,1.61 105.4,-58.4 301.25,-103.43 303.25,-103.88l0.68 -0.16c1.29,-0.28 2.6,-0.4 3.9,-0.33l0.62 0.03c13.03,0.6 26.81,0.9 40.99,0.9 65.91,0 121.93,-6.46 124.28,-6.73 0.29,-0.03 0.58,-0.06 0.87,-0.07l0.54 -0.03c0.28,-0.02 0.57,-0.03 0.85,-0.03l104.86 0c6.74,0 12.63,4.55 14.31,11.06 1.69,6.52 -1.26,13.34 -7.16,16.59l-55.43 30.56c14.74,3.7 29.87,6.23 37.13,7.21 4.67,0.53 9.85,0.81 15.13,0.81 91.07,-0.01 197.1,-82.94 198.16,-83.78l28.9 -22.86c5.84,-4.63 14.23,-4.18 19.55,1.04 5.31,5.22 5.9,13.58 1.36,19.49l-22.42 29.16c-5.33,6.94 -10.38,13.35 -15.13,19.27 14.02,-7.31 27.56,-14.75 37.98,-20.72l19.3 -11.05c6.08,-3.48 13.79,-2.21 18.44,3.04 4.64,5.26 4.94,13.04 0.72,18.64l-13.4 17.72c-20.88,27.64 -46.75,49.75 -69.81,66.13 10.23,-3.15 16.52,-6.7 16.63,-6.76l28.26 -16.65c6.36,-3.75 14.49,-2.23 19.09,3.53 4.58,5.76 4.21,14.02 -0.89,19.35l-22.73 23.76c-10.81,11.3 -22.17,20.53 -33.24,28.04l66.06 6.59c6.82,0.68 12.27,5.94 13.18,12.72 0.91,6.77 -2.96,13.27 -9.36,15.72l-99.56 38.08 41.37 24.5c5.53,3.28 8.3,9.75 6.85,16 -1.45,6.25 -6.78,10.85 -13.19,11.38l-97.05 7.93c6,5.62 12.01,10.92 16.4,14.61l9.54 8.02c4.75,3.99 6.5,10.52 4.37,16.33 -2.13,5.82 -7.68,9.69 -13.88,9.69l-95.09 0c9.75,9.3 20.85,18.89 28.57,29.97 2.76,3.97 3.41,9.03 1.73,13.56l-147.64 396.62c-2.15,5.77 -7.68,9.61 -13.86,9.61l0 0.02z"/>
   <path class="fil1" d="M1857.15 691.7l128.06 -48.98 -115.26 -11.5c19.28,-7.26 47.89,-21.52 73.22,-47.98l22.72 -23.77 -28.35 16.71c-0.22,0.14 -23.35,13.54 -55.22,13.55 -8.41,0 -16.72,-0.93 -24.81,-2.79 22.95,-11.64 76.75,-42.45 114,-91.76l13.4 -17.72 -19.3 11.04c-21.64,12.38 -75.72,41.71 -101.71,49.79 11.11,-11.13 31.12,-32.83 59.77,-70.11l22.42 -29.16 -28.88 22.84c-1.08,0.87 -111.03,86.99 -207.36,87 -5.87,0 -11.65,-0.33 -17.09,-0.95 -0.53,-0.07 -48.37,-6.56 -71.04,-18.89l84.15 -46.4 -104.86 0 -0.54 0.03c-0.58,0.07 -58.35,6.84 -125.84,6.84 -14.48,0 -28.56,-0.31 -41.85,-0.93l-0.61 -0.03 -0.6 0.14c-2.01,0.45 -200.38,45.94 -303.22,104.56 -5.27,-0.45 -24.16,-1.92 -47.2,-1.92 -38.1,0 -87.47,4.01 -110.74,22.69 -20.51,-12.81 -145.44,-89.96 -218.02,-115.31l-0.43 -0.15 -329.21 -45.5 -123.82 -27.46 -93.66 -63.62 -55.44 2.51 86.97 86.76 -75.94 1.73 -93.13 -22.67 7.75 10.2c4.36,5.72 43.58,56.3 67.51,55.36l30.65 26.98 0 2.17c-13.23,2.82 -53.98,11.88 -66.31,19.04l-87.31 8.94 29.13 23.25 66.88 22.83 -52.18 31.91 -49.09 2.45 48.8 46.26 134.9 -9.9 7.87 6.74 -24.23 16.12 -130.32 44.75 52.41 27.4 90.28 -18.02 -72.56 38.73 136.6 6.69 23.82 8.92 -29.89 25.56 1501.19 0 -40.22 -38.38 131.91 0 -9.55 -8.03c-8.67,-7.29 -29.78,-26.08 -38.79,-38.07l127.76 -10.44 -67.61 -40.05 0.02 0zm-1642.82 367.41c-1.52,0 -2.37,0.51 -2.55,1.51 -0.11,0.61 0.99,2.52 3.3,5.73 2.31,3.22 3.26,6.04 2.84,8.46 -0.11,0.6 -0.2,1.11 -0.27,1.51l-50.62 126.74c-0.03,0.2 -0.08,0.51 -0.15,0.91 -0.32,1.81 0.62,2.72 2.81,2.72l108.5 0c7.94,0 15.7,-2.62 23.3,-7.85 7.59,-5.23 12.8,-11.56 15.63,-19.02l10.79 -26.85c0.66,-1.81 1.14,-3.62 1.46,-5.43 0.7,-4.02 -1.15,-8.85 -5.57,-14.49 10.83,-6.84 17.5,-13.58 20.02,-20.22l10.79 -26.86c0.66,-1.81 1.15,-3.62 1.47,-5.43 1.09,-6.23 -0.17,-11.36 -3.77,-15.39 -3.6,-4.02 -8.7,-6.04 -15.29,-6.04l-122.69 0 0 0zm381.89 0l-63.48 0.61c-2.19,0 -3.47,1 -3.82,3.02 -0.24,1.41 -0.26,3.61 -0.03,6.63 0.23,3.02 0.23,5.24 -0.02,6.64 -0.35,2.02 -1.19,3.93 -2.52,5.74 -51.93,66.62 -77.16,99.11 -86.78,111.66l-56.89 0c-2.2,0 -3.13,-1.01 -2.77,-3.03 0.03,-0.19 0.09,-0.49 0.16,-0.9l50.55 -126.4c0.08,-0.41 0.12,-0.7 0.16,-0.9 0.36,-2.01 -0.48,-3.02 -2.51,-3.02l-62.62 0c-1.52,0 -2.37,0.5 -2.55,1.51 -0.1,0.6 1.04,2.51 3.44,5.72 2.39,3.22 3.37,6.04 2.95,8.46 -0.1,0.6 -0.28,1.11 -0.51,1.51l-50.62 126.75c-0.04,0.2 -0.09,0.5 -0.16,0.9 -0.32,1.81 0.62,2.71 2.81,2.71l104.96 0c1.6,0 3.19,-0.4 4.77,-1.11 0.16,0.73 0.88,1.11 2.21,1.11l20.01 0c2.7,0 4.95,-1.21 6.73,-3.62l15.35 -19.61c1.95,-2.42 4.27,-3.63 6.97,-3.63l44.88 0c2.53,0 3.84,1.21 3.93,3.63l0.81 19.91c0.12,2.22 1.44,3.33 3.98,3.33l62.62 0c2.19,0 3.45,-0.91 3.77,-2.72l0.11 -0.61 -1.71 -140.63c-0.09,-2.42 -1.48,-3.62 -4.18,-3.62l0 -0.04zm204.12 0c-1.52,0 -2.37,0.51 -2.54,1.51 -0.11,0.61 1.03,2.52 3.42,5.73 2.39,3.22 3.38,6.04 2.96,8.46 -0.11,0.6 -0.28,1.11 -0.52,1.51l-50.62 126.74c-0.03,0.2 -0.08,0.51 -0.15,0.91 -0.32,1.81 0.61,2.72 2.82,2.72l48.41 0c2.54,0 4.35,-1.21 5.45,-3.63l23.61 -59.44c0.96,-2.62 2.8,-3.93 5.51,-3.93l20.28 0c2.03,0 2.86,1.01 2.5,3.02 -0.84,4.83 -4.89,15.14 -12.14,30.93 -7.25,15.79 -11.25,25.91 -12.03,30.33 -0.32,1.81 0.62,2.72 2.82,2.72l48.67 0c2.54,0 5.05,-0.91 7.57,-2.72 8.84,-6.04 13.31,-9.35 13.42,-9.96 0.14,-0.8 -1.52,-1.51 -4.96,-2.11 -3.44,-0.6 -4.99,-1.92 -4.64,-3.93 0.08,-0.4 0.15,-0.79 0.22,-1.2l13.53 -33.8c0.65,-1.81 1.14,-3.62 1.45,-5.43 1.94,-11.06 -2.26,-17.91 -12.62,-20.53l59.44 -64.27c0.04,-0.06 0.06,-0.1 0.1,-0.15 0.55,0.95 1.37,2.19 2.5,3.76 2.31,3.22 3.26,6.04 2.84,8.46 -0.11,0.6 -0.2,1.1 -0.27,1.5l-50.62 126.75c-0.04,0.2 -0.08,0.51 -0.15,0.91 -0.32,1.81 0.62,2.72 2.82,2.72l108.49 0c7.94,0 15.7,-2.62 23.3,-7.85 7.59,-5.23 12.8,-11.57 15.63,-19.02l10.79 -26.85c0.66,-1.81 1.14,-3.62 1.46,-5.43 0.7,-4.03 -1.15,-8.86 -5.57,-14.49 10.83,-6.84 17.5,-13.58 20.02,-20.22l10.8 -26.86c0.65,-1.81 1.14,-3.62 1.46,-5.43 1.09,-6.24 -0.16,-11.36 -3.77,-15.39 -3.6,-4.02 -8.7,-6.04 -15.29,-6.04l-122.7 0c-0.58,0 -1.02,0.1 -1.41,0.25 -0.33,-0.15 -0.75,-0.25 -1.32,-0.25l-46.65 0c-2.53,0 -4.92,1.11 -7.17,3.32l-57.06 60.4c-2.12,2.42 -4.35,3.62 -6.72,3.62 -2.03,0 -2.86,-1 -2.51,-3.02 0.07,-0.4 0.12,-0.7 0.16,-0.9l23.85 -59.46c0.08,-0.4 0.12,-0.69 0.16,-0.89 0.36,-2.02 -0.48,-3.03 -2.51,-3.03l-62.61 0 0.09 -0.04zm381.44 0c-0.97,0 -1.63,0.23 -2.06,0.65 -0.43,-0.41 -1.07,-0.64 -1.98,-0.64l-62.61 0c-1.52,0 -2.37,0.5 -2.55,1.5 -0.11,0.61 0.99,2.52 3.31,5.73 2.31,3.22 3.25,6.05 2.83,8.46 -0.11,0.6 -0.2,1.11 -0.27,1.51l-50.61 126.75c-0.04,0.2 -0.1,0.5 -0.16,0.9 -0.33,1.81 0.61,2.72 2.81,2.72l48.42 0c2.54,0 4.35,-1.21 5.45,-3.62l55.74 -140.03c0.02,-0.13 0.03,-0.18 0.05,-0.28 0.55,0.93 1.31,2.1 2.4,3.6 2.3,3.22 3.24,6.03 2.82,8.45 -0.1,0.6 -0.19,1.11 -0.26,1.5l-50.62 126.75c-0.03,0.2 -0.09,0.51 -0.16,0.91 -0.32,1.81 0.62,2.72 2.83,2.72l48.46 0c2.54,0 4.35,-1.2 5.45,-3.61l12.87 -32.91c1.1,-2.41 2.83,-3.62 5.2,-3.62 2.2,0 3.51,1.11 3.97,3.31l4 33.5c0.29,2.22 1.79,3.33 4.49,3.33l48.39 0c2.03,0 3.17,-0.8 3.46,-2.42 0.07,-0.4 -1.11,-6.69 -3.54,-18.86 -2.43,-12.17 -3.64,-18.76 -3.63,-19.77 7,-1.41 13.89,-4.58 20.67,-9.51 6.78,-4.93 11.38,-10.41 13.79,-16.44l21.34 -53.72c0.65,-1.81 1.13,-3.62 1.45,-5.43 1.1,-6.23 -0.16,-11.36 -3.76,-15.39 -3.61,-4.02 -8.7,-6.04 -15.29,-6.04l-122.7 0 0 0zm150.07 0c-1.52,0 -2.37,0.51 -2.54,1.51 -0.11,0.61 0.98,2.52 3.3,5.73 2.3,3.22 3.25,6.05 2.82,8.46 -0.1,0.6 -0.2,1.11 -0.26,1.51l-50.62 126.75c-0.03,0.2 -0.08,0.5 -0.16,0.9 -0.32,1.81 0.62,2.72 2.82,2.72l108.75 0c7.78,0 15.46,-2.61 23.06,-7.85 7.59,-5.23 12.8,-11.56 15.62,-19.02l37.5 -93.84c0.66,-1.81 1.14,-3.63 1.46,-5.44 1.09,-6.23 -0.16,-11.36 -3.76,-15.39 -3.61,-4.02 -8.7,-6.04 -15.3,-6.04l-122.69 0 0 0zm186.99 0c-7.94,0 -15.67,2.67 -23.19,8 -7.54,5.34 -12.77,11.62 -15.74,18.87l-15.96 40.43c-0.83,1.82 -1.39,3.63 -1.71,5.43 -1.09,6.25 0.17,11.32 3.79,15.24 3.62,3.93 8.72,5.89 15.32,5.89l52.47 0c2.03,0 2.87,1.01 2.51,3.01 -0.03,0.2 -4.44,11.38 -13.22,33.51 -0.96,2.62 -2.8,3.92 -5.51,3.92l-62.36 0c-2.7,0 -9.23,3.52 -19.59,10.56 -0.99,0.8 -1.52,1.41 -1.59,1.81 -0.11,0.6 0.44,0.91 1.62,0.91l108.75 0c7.94,0 15.67,-2.62 23.18,-7.85 7.5,-5.23 12.76,-11.57 15.75,-19.01l15.91 -40.14c0.83,-1.81 1.41,-3.72 1.77,-5.73 1.09,-6.24 -0.17,-11.32 -3.79,-15.25 -3.63,-3.92 -8.73,-5.88 -15.32,-5.88l-52.48 0c-2.03,0 -2.86,-1 -2.51,-3.02 0.04,-0.2 4.44,-11.36 13.23,-33.5 0.92,-2.41 2.74,-3.61 5.45,-3.61l62.36 0c2.7,0 9.25,-3.63 19.65,-10.87 0.95,-0.6 1.48,-1.21 1.58,-1.81 0.11,-0.61 -0.43,-0.91 -1.61,-0.91l-108.76 0 0 0zm-831.95 0.01c-7.96,0 -15.69,2.67 -23.21,7.99 -7.53,5.34 -12.77,11.62 -15.73,18.87l-37.24 93.85c-0.86,2.01 -1.44,3.92 -1.77,5.73 -1.09,6.25 0.17,11.32 3.79,15.24 3.62,3.92 8.74,5.89 15.33,5.89l84.41 0c7.94,0 15.67,-2.62 23.18,-7.86 7.5,-5.22 12.76,-11.55 15.75,-19 9.85,-24.34 14.8,-36.72 14.87,-37.12 0.36,-2.01 -0.56,-3.02 -2.76,-3.02l-48.42 0c-2.71,0 -4.54,1.31 -5.51,3.92l-18.43 45.88c-0.97,2.62 -2.8,3.92 -5.5,3.92l-20.03 0c-2.2,0 -3.12,-1 -2.76,-3.01 0.06,-0.2 0.12,-0.5 0.19,-0.9l45.22 -113.16c0.93,-2.43 2.75,-3.64 5.44,-3.64l20.24 0c2.02,0 2.87,0.9 2.55,2.72 -0.59,3.42 -3.71,11.27 -9.32,23.53 -5.62,12.28 -8.78,20.42 -9.48,24.45 -0.35,2.01 0.57,3.01 2.76,3.01l48.42 0c2.54,0 4.37,-1.3 5.5,-3.92l14.52 -36.51c0.66,-1.81 1.15,-3.62 1.47,-5.43 1.09,-6.24 -0.18,-11.37 -3.78,-15.4 -3.6,-4.02 -8.7,-6.03 -15.29,-6.03l-84.41 0 0 0zm-407.41 13.58l20.19 0c2.18,0 3.11,0.9 2.8,2.72 -0.08,0.4 -6.31,16.08 -18.71,47.05 -1.13,2.63 -2.96,3.94 -5.48,3.94l-20.19 0c-2.19,0 -3.11,-1 -2.76,-3 0.04,-0.2 6.27,-15.88 18.71,-47.06 0.93,-2.44 2.74,-3.65 5.44,-3.65l0 0zm749.71 0l20.2 0c2.19,0 3.11,0.9 2.8,2.72 -0.08,0.4 -6.31,16.08 -18.7,47.05 -1.14,2.63 -2.98,3.94 -5.49,3.94l-20.2 0c-2.18,0 -3.1,-1 -2.75,-3 0.03,-0.2 6.27,-15.88 18.7,-47.06 0.94,-2.44 2.75,-3.65 5.44,-3.65l0 0zm217.69 0l20.23 0c2.2,0 3.14,0.9 2.82,2.72 -0.07,0.4 -0.21,0.7 -0.42,0.9l-29.03 73.04c-0.93,2.41 -2.73,3.61 -5.43,3.61l-20.19 0c-2.19,0 -3.12,-0.89 -2.81,-2.68 0.2,-0.4 0.33,-0.72 0.37,-0.92l29.03 -73.03c0.93,-2.43 2.73,-3.64 5.43,-3.64l0 0zm150.07 0l20.22 0c2.2,0 3.14,0.9 2.82,2.72 -0.07,0.4 -0.21,0.7 -0.41,0.9l-44.95 113.17c-1.13,2.62 -2.96,3.92 -5.5,3.92l-20.27 0c-2.21,0 -3.13,-1 -2.77,-3 0.07,-0.2 0.15,-0.5 0.22,-0.9l45.2 -113.17c0.93,-2.43 2.75,-3.64 5.45,-3.64l-0.01 0zm-867.5 40.43c0.5,0 0.75,0.51 0.74,1.51l0.3 48.89c-0.35,2.02 -1.54,3.03 -3.57,3.03l-34.73 0c-1.52,0 -2.17,-0.62 -1.96,-1.82 0.07,-0.41 0.35,-1.01 0.83,-1.81l36.35 -48.29c0.68,-1 1.36,-1.51 2.04,-1.51l0 0zm-276.69 26.56l20.18 0c2.02,0 2.86,1 2.5,3.01 -0.03,0.21 -6.14,15.8 -18.33,46.78 -1.13,2.62 -2.97,3.93 -5.49,3.93l-20.18 0c-2.19,0 -3.11,-0.99 -2.76,-2.98 0.03,-0.2 6.23,-15.79 18.59,-46.77 0.97,-2.65 2.8,-3.97 5.49,-3.97l0 0zm749.72 0l20.18 0c2.02,0 2.84,1 2.49,3.01 -0.04,0.21 -6.15,15.8 -18.34,46.78 -1.13,2.62 -2.95,3.93 -5.47,3.93l-20.19 0c-2.19,0 -3.11,-0.99 -2.76,-2.98 0.04,-0.2 6.23,-15.79 18.6,-46.77 0.96,-2.65 2.79,-3.97 5.49,-3.97l0 0zm422.63 -257.07c-1.36,0 -2.08,0.37 -2.17,1.09 -0.06,0.18 1.11,2.1 3.47,5.77 2.33,3.68 3.78,6.32 4.3,7.94l14.3 54c0.3,1.06 0.69,1.97 1.21,2.68 -0.16,1.07 -0.48,2.23 -0.94,3.49l-19.53 53.73c-0.16,0.18 -0.28,0.37 -0.3,0.54 -0.24,1.79 0.6,2.7 2.57,2.7l42.72 0c2.26,0 3.86,-1.17 4.8,-3.49l19.18 -53.48c0.77,-2.33 2.05,-4.47 3.83,-6.45l58.13 -65.15c0.52,0.85 1.32,1.98 2.4,3.4 2.19,2.87 3.13,5.37 2.83,7.52 -0.09,0.53 -0.12,0.98 -0.19,1.34l-41.11 112.84c-0.03,0.19 -0.06,0.44 -0.11,0.8 -0.24,1.62 0.65,2.42 2.6,2.42l18.22 0c2.28,0 3.89,-1.06 4.78,-3.22l29.49 -83.02c0.44,-1.07 0.82,-1.61 1.13,-1.61 0.44,0.19 0.68,0.55 0.77,1.08l17.3 83.82c0.33,1.99 1.7,2.95 4.14,2.95l43.47 0c2.43,0 4.04,-1.06 4.78,-3.22l45.27 -124.66c0.2,-0.36 0.32,-0.62 0.34,-0.81 0.22,-1.78 -0.61,-2.68 -2.61,-2.68l-18.19 0c-2.44,0 -4.04,1.16 -4.82,3.49l-29.71 83.01c-0.29,1.08 -0.66,1.61 -1.12,1.61 -0.41,-0.34 -0.67,-0.81 -0.74,-1.32l-17.08 -83.85c-0.48,-1.96 -1.96,-2.94 -4.36,-2.94l-56 0c-0.24,0 -0.43,0.04 -0.63,0.06 0,0 -0.01,0 -0.01,0 -0.3,-0.22 -0.79,-0.34 -1.47,-0.34l-18.05 0c-2.26,0 -4.28,0.99 -6.07,2.96l-37.24 41.65c-0.71,0.89 -1.37,1.35 -1.98,1.35 -0.61,0 -0.99,-0.46 -1.17,-1.35l-6.54 -41.65c-0.36,-1.97 -1.72,-2.96 -4.12,-2.96l-55.77 0 0 -0.04zm-1164.53 0.28c-1.44,0 -2.21,0.45 -2.34,1.35 -0.06,0.53 1.15,2.23 3.61,5.11 2.47,2.87 3.57,5.37 3.31,7.51 -0.05,0.54 -0.19,0.99 -0.41,1.34l-40.43 112.84c-0.03,0.19 -0.06,0.44 -0.11,0.81 -0.19,1.61 0.76,2.42 2.84,2.42l93.29 0c2.4,0 4.73,-0.81 7.01,-2.42l10.47 -6.98c1.05,-0.72 1.6,-1.25 1.65,-1.62 0.06,-0.54 -0.56,-0.81 -1.84,-0.81l-52.86 0c-2.08,0 -3.01,-0.89 -2.81,-2.69 0.03,-0.16 0.06,-0.45 0.11,-0.78l40.41 -112.59c0.04,-0.36 0.07,-0.61 0.1,-0.81 0.21,-1.78 -0.64,-2.68 -2.57,-2.68l-59.43 0 0 0zm126.17 0c-1.5,0 -2.28,0.45 -2.41,1.35 -0.06,0.53 1.13,2.23 3.59,5.11 2.46,2.87 3.56,5.37 3.3,7.51 -0.07,0.54 -0.13,0.99 -0.17,1.34l-41.67 112.84c-0.03,0.19 -0.07,0.44 -0.11,0.81 -0.2,1.61 0.77,2.42 2.92,2.42l41.42 0c2.47,0 4.16,-1.07 5.11,-3.23l45.85 -124.66c0.05,-0.36 0.09,-0.61 0.11,-0.8 0.22,-1.79 -0.66,-2.69 -2.64,-2.69l-55.3 0 0 0zm578.52 0c-7.11,0 -13.95,2.37 -20.55,7.12 -6.59,4.74 -11.13,10.35 -13.59,16.79l-30.92 83.55c-0.71,1.8 -1.2,3.5 -1.44,5.11 -0.82,5.56 0.45,10.07 3.78,13.57 3.34,3.49 7.95,5.24 13.85,5.24l75.49 0c7.11,0 13.95,-2.33 20.52,-6.99 6.59,-4.65 11.12,-10.3 13.63,-16.93l31.14 -83.55c0.53,-1.62 0.94,-3.22 1.17,-4.84 0.82,-5.55 -0.43,-10.11 -3.76,-13.7 -3.33,-3.57 -7.93,-5.37 -13.81,-5.37l-75.51 0 0 0zm133.31 0c-7.11,0 -13.96,2.37 -20.55,7.12 -6.59,4.74 -11.13,10.35 -13.59,16.79l-30.91 83.55c-0.72,1.8 -1.21,3.5 -1.45,5.11 -0.82,5.56 0.46,10.07 3.79,13.57 3.34,3.49 7.95,5.24 13.84,5.24l75.49 0c7.12,0 13.95,-2.33 20.52,-6.99 6.6,-4.65 11.12,-10.3 13.63,-16.93l31.14 -83.55c0.53,-1.62 0.93,-3.22 1.17,-4.84 0.82,-5.55 -0.43,-10.11 -3.76,-13.7 -3.33,-3.57 -7.93,-5.37 -13.82,-5.37l-75.5 0 0 0zm253.94 0c-1.33,0 -2.07,0.45 -2.2,1.35 -0.09,0.53 0.99,2.23 3.17,5.11 2.2,2.87 3.14,5.37 2.82,7.51 -0.08,0.54 -0.2,0.99 -0.42,1.34l-41.66 112.84c-0.02,0.19 -0.06,0.44 -0.12,0.81 -0.22,1.61 0.62,2.42 2.56,2.42l86.9 0c2.23,0 4.43,-0.81 6.61,-2.42l10 -6.98c1,-0.72 1.52,-1.25 1.57,-1.62 0.09,-0.54 -0.48,-0.81 -1.68,-0.81l-49.21 0c-1.95,0 -2.8,-0.89 -2.55,-2.69 0.04,-0.16 0.08,-0.45 0.14,-0.78l41.61 -112.59c0.06,-0.36 0.1,-0.61 0.14,-0.81 0.25,-1.78 -0.52,-2.68 -2.32,-2.68l-55.35 0 -0.01 0zm-691.43 0.01c-1.36,0 -2.11,0.44 -2.24,1.33 -0.09,0.54 0.95,2.24 3.1,5.11 2.15,2.87 3.08,5.38 2.75,7.53 -0.08,0.53 -0.15,0.98 -0.2,1.33l-42.37 112.84c-0.03,0.19 -0.08,0.44 -0.12,0.81 -0.23,1.61 0.61,2.41 2.6,2.41l97.46 0c7.13,0 14.05,-2.32 20.75,-6.98 6.69,-4.65 11.22,-10.29 13.59,-16.93l9.03 -23.92c0.55,-1.59 0.92,-3.2 1.17,-4.83 0.54,-3.56 -1.25,-7.87 -5.35,-12.89 9.56,-6.08 15.39,-12.08 17.48,-18l9.05 -23.91c0.54,-1.61 0.93,-3.23 1.18,-4.84 0.83,-5.55 -0.43,-10.11 -3.77,-13.7 -3.34,-3.57 -7.95,-5.36 -13.88,-5.36l-110.23 0 0 0zm139.88 0c-1.35,0 -2.09,0.45 -2.22,1.34 -0.08,0.54 0.94,2.22 3.09,5.1 2.11,2.87 3.03,5.38 2.71,7.52 -0.08,0.54 -0.15,0.99 -0.2,1.34l-41.82 112.85c-0.03,0.18 -0.06,0.44 -0.13,0.81 -0.23,1.61 0.63,2.41 2.6,2.41l43.04 0c2.24,0 3.83,-1.06 4.75,-3.21l10.6 -29.29c0.91,-2.15 2.41,-3.23 4.51,-3.23 1.96,0 3.15,0.99 3.62,2.95l4.4 29.83c0.32,1.98 1.65,2.95 4.07,2.95l42.96 0c1.8,0 2.81,-0.7 3.02,-2.14 0.06,-0.36 -1.16,-5.96 -3.62,-16.79 -2.47,-10.84 -3.71,-16.7 -3.71,-17.61 6.18,-1.24 12.21,-4.07 18.12,-8.45 5.89,-4.39 9.83,-9.29 11.82,-14.65l17.6 -47.82c0.52,-1.62 0.92,-3.23 1.14,-4.85 0.82,-5.55 -0.41,-10.1 -3.7,-13.69 -3.32,-3.57 -7.9,-5.37 -13.75,-5.37l-108.98 0 0.08 0zm398.66 0c-1.38,0 -2.11,0.44 -2.22,1.33 -0.08,0.54 1.09,2.24 3.45,5.11 2.34,2.87 3.4,5.38 3.15,7.53 -0.07,0.53 -0.18,0.98 -0.38,1.33l-38.66 112.84c-0.03,0.19 -0.04,0.44 -0.1,0.81 -0.19,1.61 0.7,2.41 2.7,2.41l43.95 0c2.3,0 3.87,-1.05 4.74,-3.22l18.02 -52.92c0.72,-2.32 2.3,-3.49 4.77,-3.49l18.41 0c1.84,0 2.64,0.89 2.45,2.67 -0.5,4.3 -3.58,13.49 -9.25,27.55 -5.67,14.06 -8.75,23.06 -9.2,27 -0.19,1.61 0.73,2.41 2.72,2.41l44.18 0c2.3,0 4.52,-0.8 6.72,-2.41 7.65,-5.37 11.53,-8.32 11.6,-8.87 0.07,-0.7 -1.48,-1.33 -4.62,-1.87 -3.16,-0.54 -4.65,-1.71 -4.43,-3.49 0.04,-0.36 0.07,-0.72 0.11,-1.08l10.34 -30.11c0.48,-1.59 0.84,-3.2 1.03,-4.83 1.11,-9.83 -3.1,-15.93 -12.63,-18.26l50.25 -57.24c0.54,-0.71 0.83,-1.33 0.89,-1.87 0.11,-0.89 -0.52,-1.33 -1.91,-1.33l-42.31 0c-2.31,0 -4.43,0.98 -6.34,2.94l-48.23 53.74c-1.8,2.14 -3.75,3.22 -5.9,3.22 -1.84,0 -2.63,-0.89 -2.45,-2.69 0.02,-0.36 0.08,-0.61 0.09,-0.8l18.25 -52.93c0.04,-0.36 0.07,-0.62 0.09,-0.81 0.2,-1.78 -0.63,-2.67 -2.46,-2.67l-56.82 0 0 0zm-742.94 0.12c-1.35,0 -2.08,0.38 -2.19,1.08 -0.09,0.53 0.9,2.24 3.01,5.1 2.09,2.86 2.96,5.38 2.63,7.52 -0.09,0.55 -0.17,0.98 -0.23,1.34l-35.26 92.44c-0.71,1.62 -1.2,3.21 -1.46,4.83 -0.88,5.54 0.31,10.08 3.57,13.56 3.29,3.5 7.85,5.25 13.7,5.25l74.98 0c7.04,0 13.88,-2.32 20.47,-6.98 6.6,-4.66 11.18,-10.22 13.71,-16.66l39.86 -104.25c0.06,-0.36 0.1,-0.63 0.14,-0.81 0.24,-1.61 -0.53,-2.42 -2.33,-2.42l-43.06 0c-2.41,0 -4,1.08 -4.79,3.21l-43.22 112.58c-0.82,2.34 -2.44,3.51 -4.84,3.51l-17.75 0c-1.95,0 -2.78,-0.9 -2.49,-2.68 0.04,-0.19 0.08,-0.46 0.13,-0.82l43.22 -112.57c0.06,-0.36 0.1,-0.63 0.14,-0.81 0.25,-1.61 -0.61,-2.42 -2.55,-2.42l-55.39 0 0 0zm263.27 11.96l18.13 0c1.97,0 2.83,0.8 2.59,2.41 -0.05,0.36 -5.27,14.33 -15.65,41.91 -0.94,2.33 -2.58,3.5 -4.84,3.5l-18.13 0c-1.96,0 -2.81,-0.88 -2.55,-2.68 0.04,-0.16 5.24,-14.13 15.65,-41.89 0.77,-2.15 2.38,-3.25 4.8,-3.25l0 0zm269.64 0l18.1 0c1.8,0 2.59,0.8 2.34,2.41 -0.04,0.37 -0.07,0.64 -0.09,0.81l-37.56 100.77c-0.81,2.31 -2.41,3.47 -4.82,3.47l-17.91 0c-1.98,0 -2.82,-0.88 -2.55,-2.65 0.06,-0.18 0.11,-0.46 0.16,-0.81l37.54 -100.76c0.77,-2.15 2.37,-3.24 4.79,-3.24l0 0zm133.31 0l18.1 0c1.8,0 2.59,0.8 2.35,2.41 -0.04,0.37 -0.09,0.64 -0.1,0.81l-37.55 100.77c-0.82,2.31 -2.42,3.47 -4.83,3.47l-17.91 0c-1.98,0 -2.82,-0.88 -2.55,-2.65 0.06,-0.18 0.1,-0.46 0.16,-0.81l37.55 -100.76c0.77,-2.15 2.36,-3.24 4.78,-3.24l0 0zm-263.77 0l17.95 0c1.96,0 2.82,0.8 2.58,2.41 -0.05,0.36 -0.17,0.64 -0.34,0.81l-23.94 65.02c-0.76,2.15 -2.33,3.22 -4.73,3.22l-17.94 0c-1.94,0 -2.81,-0.78 -2.57,-2.36 0.17,-0.37 0.28,-0.65 0.31,-0.83l23.93 -65.03c0.77,-2.15 2.35,-3.24 4.75,-3.24l0 0zm-161.54 59.65l18.14 0c1.8,0 2.57,0.89 2.31,2.67 -0.01,0.19 -5.13,14.07 -15.32,41.68 -0.95,2.3 -2.56,3.46 -4.84,3.46l-18.14 0c-1.97,0 -2.8,-0.88 -2.52,-2.65 0.02,-0.17 5.2,-14.05 15.55,-41.64 0.8,-2.35 2.41,-3.52 4.82,-3.52l0 0z"/>
   <path class="fil2" d="M97 1238.05l1522.07 0 147.64 -396.64 -1522.07 0 -147.64 396.64 0 0zm1749.75 -604.54c0,0 51.53,-9.89 93.15,-53.38 0,0 -43.6,25.7 -95.13,7.9 0,0 75.83,-32.95 123.13,-95.55 0,0 -101.33,57.99 -117.18,52.05 0,0 23.78,-19.76 69.36,-79.08 0,0 -124.85,98.86 -227.89,87 0,0 -59.45,-7.92 -79.27,-23.73l75.31 -41.52 -87.2 0c0,0 -83.22,9.89 -168.43,5.93 0,0 -200.14,45.47 -303.2,104.79 0,0 -122.85,-11.86 -158.52,21.75 0,0 -140.7,-88.97 -219.97,-116.65l-328.94 -45.47 -124.85 -27.69 -93.13 -63.26 -43.61 1.98 87.2 86.98 -87.2 1.99 -81.24 -19.78c0,0 43.59,57.34 65.39,53.39l33.69 29.65 0 7.91c0,0 -57.47,11.86 -69.36,19.77l-77.28 7.91 19.81 15.82 75.31 25.7 -61.44 37.56 -39.63 1.98 39.63 37.57 134.76 -9.89 13.87 11.86 -29.72 19.78 -120.89 41.51 41.62 21.75 118.9 -23.72 -85.21 45.47 120.88 5.93 31.71 11.87 -27.75 23.72c0,0 11.6,1.14 28.32,3.36l1455.28 0 -44.95 -42.9 130.79 0c0,0 -37.65,-31.63 -43.6,-45.48l120.89 -9.88 -63.42 -37.57 118.9 -45.47 -118.9 -11.86 0.01 0zm-1632.36 418.22c-6.27,0 -9.21,4.11 -9.82,7.62 -0.6,3.39 0.92,6.22 4.56,11.28 1.41,1.97 1.54,2.91 1.56,2.91l-50.46 126.79 -0.58 2.37c-0.52,2.98 0.18,5.8 1.97,7.92 1.32,1.57 3.81,3.43 8.13,3.43l108.5 0c9.44,0 18.69,-3.08 27.5,-9.15 2.09,-1.44 4.03,-2.97 5.82,-4.58l-0.01 0.01 -0.58 2.37c-0.52,2.98 0.19,5.79 1.98,7.92 1.32,1.57 3.8,3.43 8.12,3.43l104.95 0c1.29,0 2.56,-0.18 3.82,-0.45 0.93,0.26 1.95,0.45 3.16,0.45l20.02 0c5.03,0 9.54,-2.35 12.55,-6.45l15.29 -19.54c0.7,-0.87 1.03,-0.87 1.21,-0.87l41.56 0 0.68 16.56c0.33,6.16 4.89,10.3 11.36,10.3l62.61 0c5.04,0 8.98,-2.63 10.53,-6.85 4.91,4.53 11.38,6.85 19.3,6.85l84.41 0c9.46,0 18.68,-3.09 27.4,-9.17 2.42,-1.69 4.62,-3.49 6.65,-5.39l-0.34 0.84 -0.57 2.37c-0.52,2.98 0.18,5.79 1.97,7.92 1.32,1.57 3.79,3.43 8.12,3.43l48.42 0c5.44,0 9.88,-2.89 12.33,-8.27l23.31 -58.72 12.78 0c-1.56,4.41 -4.48,11.65 -9.92,23.5 -10.1,22.01 -12.03,28.88 -12.6,32.14 -0.52,2.98 0.18,5.79 1.97,7.92 1.32,1.56 3.8,3.43 8.13,3.43l48.67 0c4.11,0 8.12,-1.39 11.75,-4.01 3.68,-2.51 6.49,-4.46 8.68,-6.04 -0.14,2.49 0.54,4.81 2.07,6.62 1.32,1.56 3.8,3.43 8.13,3.43l108.49 0c9.44,0 18.69,-3.08 27.5,-9.15 1.97,-1.36 3.8,-2.81 5.5,-4.31l-0.51 2.11c-0.53,2.98 0.17,5.79 1.98,7.92 1.31,1.56 3.79,3.43 8.11,3.43l48.42 0c3.83,0 7.14,-1.46 9.63,-4.18 0.17,0.25 0.29,0.52 0.48,0.75 1.32,1.56 3.81,3.43 8.14,3.43l48.47 0c5.43,0 9.87,-2.88 12.33,-8.3l9.2 -23.5 2.63 22.04c0.75,5.93 5.39,9.76 11.81,9.76l48.38 0c3.72,0 6.8,-1.49 8.74,-3.99 0.13,0.18 0.22,0.39 0.37,0.56 1.32,1.56 3.8,3.43 8.13,3.43l108.74 0c9.27,0 18.44,-3.08 27.25,-9.15 1.86,-1.28 3.58,-2.65 5.2,-4.06 -0.75,1.02 -1.36,2.21 -1.62,3.66 -0.42,2.34 0.21,4.72 1.73,6.53 1.16,1.37 3.34,3.02 7.16,3.02l108.75 0c9.46,0 18.68,-3.08 27.4,-9.17 8.68,-6.04 14.87,-13.55 18.41,-22.35l15.75 -39.79c1.09,-2.37 1.87,-4.9 2.33,-7.52 1.87,-10.69 -2.03,-17.59 -5.65,-21.51 -5.06,-5.48 -12.03,-8.26 -20.74,-8.26l-45.36 0c2.01,-5.09 5.25,-13.26 10.05,-25.39l61.35 0c3.94,0 9.31,-2.04 23.6,-12 3.46,-2.19 4.59,-4.9 4.92,-6.78 0.4,-2.35 -0.23,-4.72 -1.74,-6.52 -1.16,-1.38 -3.35,-3.02 -7.15,-3.02l-108.75 0c-9.47,0 -18.72,3.14 -27.49,9.36 -4.12,2.92 -7.66,6.15 -10.63,9.65 -1.05,-4.67 -3.26,-8.14 -5.39,-10.52 -5.05,-5.63 -12.05,-8.5 -20.8,-8.5l-122.7 0c-5.25,0 -8.14,2.9 -9.31,5.91 -4.74,-3.9 -10.79,-5.91 -18.06,-5.91l-122.69 0c-0.83,0 -1.59,0.08 -2.31,0.22 -0.56,-0.09 -1.08,-0.21 -1.73,-0.21l-62.62 0c-5.62,0 -8.55,3.31 -9.54,6.53 -4.85,-4.34 -11.17,-6.54 -18.84,-6.54l-122.7 0c-0.57,0 -1.07,0.07 -1.58,0.13 -0.39,-0.04 -0.73,-0.12 -1.16,-0.12l-46.64 0c-3.12,0 -7.79,0.94 -12.55,5.64l-46.24 48.99 16.3 -40.6 0.57 -2.37c0.75,-4.27 -0.93,-7.02 -1.99,-8.29 -1.06,-1.26 -3.49,-3.37 -7.8,-3.37l-62.61 0c-5.94,0 -8.87,3.67 -9.69,7.04 -4.91,-4.66 -11.4,-7.05 -19.35,-7.05l-84.42 0c-9.47,0 -18.71,3.15 -27.48,9.37 -8.66,6.14 -14.81,13.57 -18.32,22.16l-32.06 80.79 -1.23 -101.57c-0.22,-6.43 -4.88,-10.75 -11.64,-10.75l-63.41 0.61c-5.78,0 -10.14,3.58 -11.11,9.12 -0.36,2.06 -0.39,4.76 -0.11,8.47 0.27,3.51 0.09,4.67 0.06,4.81 -0.15,0.88 -0.54,1.75 -1.07,2.47 -48.4,62.1 -72.54,93.05 -84.65,108.82l-46.47 0 48.1 -120.26 0.57 -2.37c0.75,-4.27 -0.93,-7.02 -2,-8.29 -1.06,-1.26 -3.48,-3.37 -7.79,-3.37l-62.62 0c-5.75,0 -8.68,3.45 -9.6,6.74 -4.87,-4.47 -11.25,-6.74 -19.04,-6.74l-122.69 0 0.01 -0.01zm744.59 25.41l-44.21 111.06c-1.28,-1.15 -3.1,-2.18 -5.77,-2.93l11.93 -29.81c0.8,-2.21 1.4,-4.44 1.79,-6.65 1.84,-10.51 -0.93,-18.87 -7.71,-24.11l43.97 -47.56 0 0zm-678.42 2.92l12.22 0c-2.48,6.26 -7.1,17.83 -15.57,38.97l-12.18 0c2.47,-6.21 7.07,-17.76 15.53,-38.97l0 0zm434.2 0l12.54 0c-1.28,3.31 -3.38,8.31 -6.81,15.82 -7.9,17.26 -9.52,23.23 -10.05,26.24 -0.73,4.21 0.94,6.96 2.01,8.22 0.56,0.66 1.31,1.37 2.32,1.97 -5.6,0.13 -10.1,3.38 -12.02,8.55l-18.14 45.17 -12.19 0 42.34 -105.97 0 0zm315.51 0l12.22 0c-2.54,6.41 -7.23,18.15 -15.57,38.97l-12.18 0c3.6,-9.06 10.11,-25.4 15.53,-38.97l0 0zm217.68 0l12.16 0 -26.04 65.52 -12.16 0 26.04 -65.52zm150.06 0l0 0 -42.32 105.97 12.38 0 42.11 -105.97 -12.17 0zm-1058.68 50.67l-3.49 8.76c-0.48,-1.45 -1.06,-2.92 -1.86,-4.42 1.96,-1.44 3.72,-2.89 5.35,-4.34l0 0zm749.21 0.42l-3.12 7.85c-0.46,-1.29 -1,-2.6 -1.71,-3.93 1.77,-1.31 3.32,-2.61 4.83,-3.92zm-565.56 1.71l0.16 26.31 -19.96 0 19.8 -26.31zm250.07 0.29l-1.19 2.98c-0.08,-0.12 -0.18,-0.28 -0.26,-0.37 -0.56,-0.67 -1.32,-1.38 -2.33,-1.98 1.32,-0.04 2.59,-0.25 3.78,-0.63l0 0zm683.35 12.26c1.17,2.78 2.72,5.02 4.25,6.67 5.06,5.48 12.04,8.25 20.75,8.25l45.36 0c-2.13,5.39 -5.52,13.96 -10.17,25.7l-61.29 0c-3.77,0 -9.25,2.03 -23.46,11.65 4.36,-4.52 7.62,-9.59 9.72,-15.12l14.84 -37.15 0 0zm-1202.49 1.65l11.98 0c-4.12,10.51 -11.91,30.31 -15.33,38.97l-12.16 0c2.43,-6.13 7,-17.6 15.51,-38.97zm749.72 0l11.96 0c-2.37,6.07 -6.86,17.5 -15.32,38.97l-12.16 0c2.43,-6.13 7,-17.6 15.52,-38.97l0 0zm290.02 13.26l-14.17 35.57c-0.56,-3 -0.95,-5.24 -2.29,-11.92 -1.22,-6.1 -2.02,-10.22 -2.53,-12.99 5.66,-1.96 11.25,-4.94 16.69,-8.88 0.79,-0.58 1.55,-1.18 2.3,-1.78l0 0zm-1079.32 -101.21l0 0 122.69 0c6.59,0 11.69,2.02 15.29,6.04 3.6,4.03 4.86,9.16 3.77,15.39 -0.32,1.81 -0.81,3.62 -1.47,5.43l-10.79 26.86c-2.52,6.64 -9.19,13.38 -20.02,20.22 4.42,5.64 6.27,10.47 5.57,14.49 -0.32,1.81 -0.8,3.62 -1.46,5.43l-10.79 26.85c-2.83,7.46 -8.04,13.79 -15.63,19.02 -7.6,5.23 -15.36,7.85 -23.3,7.85l-108.5 0c-2.19,0 -3.13,-0.91 -2.81,-2.72 0.07,-0.4 0.12,-0.71 0.15,-0.91l50.62 -126.74c0.07,-0.4 0.16,-0.91 0.27,-1.51 0.42,-2.42 -0.53,-5.24 -2.84,-8.46 -2.31,-3.21 -3.41,-5.12 -3.3,-5.73 0.18,-1 1.03,-1.51 2.55,-1.51zm381.89 0l0 0.04c2.7,0 4.09,1.2 4.18,3.62l1.71 140.63 -0.11 0.61c-0.32,1.81 -1.58,2.72 -3.77,2.72l-62.62 0c-2.54,0 -3.86,-1.11 -3.98,-3.33l-0.81 -19.91c-0.09,-2.42 -1.4,-3.63 -3.93,-3.63l-44.88 0c-2.7,0 -5.02,1.21 -6.97,3.63l-15.35 19.61c-1.78,2.41 -4.03,3.62 -6.73,3.62l-20.01 0c-1.33,0 -2.05,-0.38 -2.21,-1.11 -1.58,0.71 -3.17,1.11 -4.77,1.11l-104.96 0c-2.19,0 -3.13,-0.9 -2.81,-2.71 0.07,-0.4 0.12,-0.7 0.16,-0.9l50.62 -126.75c0.23,-0.4 0.41,-0.91 0.51,-1.51 0.42,-2.42 -0.56,-5.24 -2.95,-8.46 -2.4,-3.21 -3.54,-5.12 -3.44,-5.72 0.18,-1.01 1.03,-1.51 2.55,-1.51l62.62 0c2.03,0 2.87,1.01 2.51,3.02 -0.04,0.2 -0.08,0.49 -0.16,0.9l-50.55 126.4c-0.07,0.41 -0.13,0.71 -0.16,0.9 -0.36,2.02 0.57,3.03 2.77,3.03l56.89 0c9.62,-12.55 34.85,-45.04 86.78,-111.66 1.33,-1.81 2.17,-3.72 2.52,-5.74 0.25,-1.4 0.25,-3.62 0.02,-6.64 -0.23,-3.02 -0.21,-5.22 0.03,-6.63 0.35,-2.02 1.63,-3.02 3.82,-3.02l63.48 -0.61zm204.12 0l-0.09 0.04 62.61 0c2.03,0 2.87,1.01 2.51,3.03 -0.04,0.2 -0.08,0.49 -0.16,0.89l-23.85 59.46c-0.04,0.2 -0.09,0.5 -0.16,0.9 -0.35,2.02 0.48,3.02 2.51,3.02 2.37,0 4.6,-1.2 6.72,-3.62l57.06 -60.4c2.25,-2.21 4.64,-3.32 7.17,-3.32l46.65 0c0.57,0 0.99,0.1 1.32,0.25 0.39,-0.15 0.83,-0.25 1.41,-0.25l122.7 0c6.59,0 11.69,2.02 15.29,6.04 3.61,4.03 4.86,9.15 3.77,15.39 -0.32,1.81 -0.81,3.62 -1.46,5.43l-10.8 26.86c-2.52,6.64 -9.19,13.38 -20.02,20.22 4.42,5.63 6.27,10.46 5.57,14.49 -0.32,1.81 -0.8,3.62 -1.46,5.43l-10.79 26.85c-2.83,7.45 -8.04,13.79 -15.63,19.02 -7.6,5.23 -15.36,7.85 -23.3,7.85l-108.49 0c-2.2,0 -3.14,-0.91 -2.82,-2.72 0.07,-0.4 0.11,-0.71 0.15,-0.91l50.62 -126.75c0.07,-0.4 0.16,-0.9 0.27,-1.5 0.42,-2.42 -0.53,-5.24 -2.84,-8.46 -1.13,-1.57 -1.95,-2.81 -2.5,-3.76 -0.04,0.05 -0.06,0.09 -0.1,0.15l-59.44 64.27c10.36,2.62 14.56,9.47 12.62,20.53 -0.31,1.81 -0.8,3.62 -1.45,5.43l-13.53 33.8c-0.07,0.41 -0.14,0.8 -0.22,1.2 -0.35,2.01 1.2,3.33 4.64,3.93 3.44,0.6 5.1,1.31 4.96,2.11 -0.11,0.61 -4.58,3.92 -13.42,9.96 -2.52,1.81 -5.03,2.72 -7.57,2.72l-48.67 0c-2.2,0 -3.14,-0.91 -2.82,-2.72 0.78,-4.42 4.78,-14.54 12.03,-30.33 7.25,-15.79 11.3,-26.1 12.14,-30.93 0.36,-2.01 -0.47,-3.02 -2.5,-3.02l-20.28 0c-2.71,0 -4.55,1.31 -5.51,3.93l-23.61 59.44c-1.1,2.42 -2.91,3.63 -5.45,3.63l-48.41 0c-2.21,0 -3.14,-0.91 -2.82,-2.72 0.07,-0.4 0.12,-0.71 0.15,-0.91l50.62 -126.74c0.24,-0.4 0.41,-0.91 0.52,-1.51 0.42,-2.42 -0.57,-5.24 -2.96,-8.46 -2.39,-3.21 -3.53,-5.12 -3.42,-5.73 0.17,-1 1.02,-1.51 2.54,-1.51zm381.44 0l0 0 122.7 0c6.59,0 11.68,2.02 15.29,6.04 3.6,4.03 4.86,9.16 3.76,15.39 -0.32,1.81 -0.8,3.62 -1.45,5.43l-21.34 53.72c-2.41,6.03 -7.01,11.51 -13.79,16.44 -6.78,4.93 -13.67,8.1 -20.67,9.51 -0.01,1.01 1.2,7.6 3.63,19.77 2.43,12.17 3.61,18.46 3.54,18.86 -0.29,1.62 -1.43,2.42 -3.46,2.42l-48.39 0c-2.7,0 -4.2,-1.11 -4.49,-3.33l-4 -33.5c-0.46,-2.2 -1.77,-3.31 -3.97,-3.31 -2.37,0 -4.1,1.21 -5.2,3.62l-12.87 32.91c-1.1,2.41 -2.91,3.61 -5.45,3.61l-48.46 0c-2.21,0 -3.15,-0.91 -2.83,-2.72 0.07,-0.4 0.13,-0.71 0.16,-0.91l50.62 -126.75c0.07,-0.39 0.16,-0.9 0.26,-1.5 0.42,-2.42 -0.52,-5.23 -2.82,-8.45 -1.09,-1.5 -1.85,-2.67 -2.4,-3.6 -0.02,0.1 -0.03,0.15 -0.05,0.28l-55.74 140.03c-1.1,2.41 -2.91,3.62 -5.45,3.62l-48.42 0c-2.2,0 -3.14,-0.91 -2.81,-2.72 0.06,-0.4 0.12,-0.7 0.16,-0.9l50.61 -126.75c0.07,-0.4 0.16,-0.91 0.27,-1.51 0.42,-2.41 -0.52,-5.24 -2.83,-8.46 -2.32,-3.21 -3.42,-5.12 -3.31,-5.73 0.18,-1 1.03,-1.5 2.55,-1.5l62.61 0c0.91,0 1.55,0.23 1.98,0.64 0.43,-0.42 1.09,-0.65 2.06,-0.65zm150.07 0l0 0 122.69 0c6.6,0 11.69,2.02 15.3,6.04 3.6,4.03 4.85,9.16 3.76,15.39 -0.32,1.81 -0.8,3.63 -1.46,5.44l-37.5 93.84c-2.82,7.46 -8.03,13.79 -15.62,19.02 -7.6,5.24 -15.28,7.85 -23.06,7.85l-108.75 0c-2.2,0 -3.14,-0.91 -2.82,-2.72 0.08,-0.4 0.13,-0.7 0.16,-0.9l50.62 -126.75c0.06,-0.4 0.16,-0.91 0.26,-1.51 0.43,-2.41 -0.52,-5.24 -2.82,-8.46 -2.32,-3.21 -3.41,-5.12 -3.3,-5.73 0.17,-1 1.02,-1.51 2.54,-1.51zm186.99 0l0 0 108.76 0c1.18,0 1.72,0.3 1.61,0.91 -0.1,0.6 -0.63,1.21 -1.58,1.81 -10.4,7.24 -16.95,10.87 -19.65,10.87l-62.36 0c-2.71,0 -4.53,1.2 -5.45,3.61 -8.79,22.14 -13.19,33.3 -13.23,33.5 -0.35,2.02 0.48,3.02 2.51,3.02l52.48 0c6.59,0 11.69,1.96 15.32,5.88 3.62,3.93 4.88,9.01 3.79,15.25 -0.36,2.01 -0.94,3.92 -1.77,5.73l-15.91 40.14c-2.99,7.44 -8.25,13.78 -15.75,19.01 -7.51,5.23 -15.24,7.85 -23.18,7.85l-108.75 0c-1.18,0 -1.73,-0.31 -1.62,-0.91 0.07,-0.4 0.6,-1.01 1.59,-1.81 10.36,-7.04 16.89,-10.56 19.59,-10.56l62.36 0c2.71,0 4.55,-1.3 5.51,-3.92 8.78,-22.13 13.19,-33.31 13.22,-33.51 0.36,-2 -0.48,-3.01 -2.51,-3.01l-52.47 0c-6.6,0 -11.7,-1.96 -15.32,-5.89 -3.62,-3.92 -4.88,-8.99 -3.79,-15.24 0.32,-1.8 0.88,-3.61 1.71,-5.43l15.96 -40.43c2.97,-7.25 8.2,-13.53 15.74,-18.87 7.52,-5.33 15.25,-8 23.19,-8zm-831.95 0.01l0 0 84.41 0c6.59,0 11.69,2.01 15.29,6.03 3.6,4.03 4.87,9.16 3.78,15.4 -0.32,1.81 -0.81,3.62 -1.47,5.43l-14.52 36.51c-1.13,2.62 -2.96,3.92 -5.5,3.92l-48.42 0c-2.19,0 -3.11,-1 -2.76,-3.01 0.7,-4.03 3.86,-12.17 9.48,-24.45 5.61,-12.26 8.73,-20.11 9.32,-23.53 0.32,-1.82 -0.53,-2.72 -2.55,-2.72l-20.24 0c-2.69,0 -4.51,1.21 -5.44,3.64l-45.22 113.16c-0.07,0.4 -0.13,0.7 -0.19,0.9 -0.36,2.01 0.56,3.01 2.76,3.01l20.03 0c2.7,0 4.53,-1.3 5.5,-3.92l18.43 -45.88c0.97,-2.61 2.8,-3.92 5.51,-3.92l48.42 0c2.2,0 3.12,1.01 2.76,3.02 -0.07,0.4 -5.02,12.78 -14.87,37.12 -2.99,7.45 -8.25,13.78 -15.75,19 -7.51,5.24 -15.24,7.86 -23.18,7.86l-84.41 0c-6.59,0 -11.71,-1.97 -15.33,-5.89 -3.62,-3.92 -4.88,-8.99 -3.79,-15.24 0.33,-1.81 0.91,-3.72 1.77,-5.73l37.24 -93.85c2.96,-7.25 8.2,-13.53 15.73,-18.87 7.52,-5.32 15.25,-7.99 23.21,-7.99zm-407.41 13.58l0 0c-2.7,0 -4.51,1.21 -5.44,3.65 -12.44,31.18 -18.67,46.86 -18.71,47.06 -0.35,2 0.57,3 2.76,3l20.19 0c2.52,0 4.35,-1.31 5.48,-3.94 12.4,-30.97 18.63,-46.65 18.71,-47.05 0.31,-1.82 -0.62,-2.72 -2.8,-2.72l-20.19 0zm749.71 0l0 0c-2.69,0 -4.5,1.21 -5.44,3.65 -12.43,31.18 -18.67,46.86 -18.7,47.06 -0.35,2 0.57,3 2.75,3l20.2 0c2.51,0 4.35,-1.31 5.49,-3.94 12.39,-30.97 18.62,-46.65 18.7,-47.05 0.31,-1.82 -0.61,-2.72 -2.8,-2.72l-20.2 0zm217.69 0l0 0c-2.7,0 -4.5,1.21 -5.43,3.64l-29.03 73.03c-0.04,0.2 -0.17,0.52 -0.37,0.92 -0.31,1.79 0.62,2.68 2.81,2.68l20.19 0c2.7,0 4.5,-1.2 5.43,-3.61l29.03 -73.04c0.21,-0.2 0.35,-0.5 0.42,-0.9 0.32,-1.82 -0.62,-2.72 -2.82,-2.72l-20.23 0zm150.07 0l20.22 0c2.2,0 3.14,0.9 2.82,2.72 -0.07,0.4 -0.21,0.7 -0.41,0.9l-44.95 113.17c-1.13,2.62 -2.96,3.92 -5.5,3.92l-20.27 0c-2.21,0 -3.13,-1 -2.77,-3 0.07,-0.2 0.15,-0.5 0.22,-0.9l45.2 -113.17c0.93,-2.43 2.75,-3.64 5.45,-3.64l-0.01 0zm-867.5 40.43l0 0c-0.68,0 -1.36,0.51 -2.04,1.51l-36.35 48.29c-0.48,0.8 -0.76,1.4 -0.83,1.81 -0.21,1.2 0.44,1.82 1.96,1.82l34.73 0c2.03,0 3.22,-1.01 3.57,-3.03l-0.3 -48.89c0.01,-1 -0.24,-1.51 -0.74,-1.51zm-276.69 26.56l0 0c-2.69,0 -4.52,1.32 -5.49,3.97 -12.36,30.98 -18.56,46.57 -18.59,46.77 -0.35,1.99 0.57,2.98 2.76,2.98l20.18 0c2.52,0 4.36,-1.31 5.49,-3.93 12.19,-30.98 18.3,-46.57 18.33,-46.78 0.36,-2.01 -0.48,-3.01 -2.5,-3.01l-20.18 0zm749.72 0l0 0c-2.7,0 -4.53,1.32 -5.49,3.97 -12.37,30.98 -18.56,46.57 -18.6,46.77 -0.35,1.99 0.57,2.98 2.76,2.98l20.19 0c2.52,0 4.34,-1.31 5.47,-3.93 12.19,-30.98 18.3,-46.57 18.34,-46.78 0.35,-2.01 -0.47,-3.01 -2.49,-3.01l-20.18 0zm-304.88 -185.05c-2.41,0 -4.02,1.17 -4.82,3.52 -10.35,27.59 -15.53,41.47 -15.55,41.64 -0.28,1.77 0.55,2.65 2.52,2.65l18.14 0c2.28,0 3.89,-1.16 4.84,-3.46 10.19,-27.61 15.31,-41.49 15.32,-41.68 0.26,-1.78 -0.51,-2.67 -2.31,-2.67l-18.14 0zm231.51 177.95l8.54 -21.39 -12.5 13.52c1.71,2.37 3.03,5.01 3.96,7.87zm552.32 35.19c-10.77,0 -18.09,-3.66 -22.91,-7.6l-7.62 19.06c1.61,-0.37 3.04,-0.5 4.43,-0.5l56.26 0c1.69,-4.26 3.12,-7.88 4.34,-10.96l-34.5 0zm-347.44 -265.53l-34.61 92.9 -9.54 0 34.62 -92.9 9.53 0zm-15.86 -4.02l-37.55 100.76c-0.06,0.35 -0.1,0.63 -0.16,0.81 -0.27,1.77 0.57,2.65 2.55,2.65l17.91 0c2.41,0 4.01,-1.16 4.83,-3.47l37.55 -100.77c0.01,-0.17 0.06,-0.44 0.1,-0.81 0.24,-1.61 -0.55,-2.41 -2.35,-2.41l-18.1 0c-2.42,0 -4.01,1.09 -4.78,3.24zm-117.45 4.02l-34.61 92.9 -9.54 0 34.61 -92.9 9.54 0zm-15.87 -4.02l-37.54 100.76c-0.05,0.35 -0.1,0.63 -0.16,0.81 -0.27,1.77 0.57,2.65 2.55,2.65l17.91 0c2.41,0 4.01,-1.16 4.82,-3.47l37.56 -100.77c0.02,-0.17 0.05,-0.44 0.09,-0.81 0.25,-1.61 -0.54,-2.41 -2.34,-2.41l-18.1 0c-2.42,0 -4.02,1.09 -4.79,3.24zm-114.71 4.02l-20.94 56.89 -9.36 0 20.93 -56.89 9.37 0zm-15.71 -4.02l-23.93 65.03c-0.03,0.18 -0.14,0.46 -0.31,0.83 -0.24,1.58 0.63,2.36 2.57,2.36l17.94 0c2.4,0 3.97,-1.07 4.73,-3.22l23.94 -65.02c0.17,-0.17 0.29,-0.45 0.34,-0.81 0.24,-1.61 -0.62,-2.41 -2.58,-2.41l-17.95 0c-2.4,0 -3.98,1.09 -4.75,3.24zm563.56 12.52l-28.04 75.9 28.04 0 11.63 -32.01 -11.63 -43.89zm-98.12 29.99c0.82,1.2 1.48,2.51 2.12,3.82l3.98 -10.77 -6.1 6.95zm-1095.51 70.31l40.43 -112.84c0.22,-0.35 0.36,-0.8 0.41,-1.34 0.26,-2.14 -0.84,-4.64 -3.31,-7.51 -2.46,-2.88 -3.67,-4.58 -3.61,-5.11 0.13,-0.9 0.9,-1.35 2.34,-1.35l59.43 0c1.93,0 2.78,0.9 2.57,2.68 -0.03,0.2 -0.06,0.45 -0.1,0.81l-40.41 112.59c-0.05,0.33 -0.08,0.62 -0.11,0.78 -0.2,1.8 0.73,2.69 2.81,2.69l52.86 0c1.28,0 1.9,0.27 1.84,0.81 -0.05,0.37 -0.6,0.9 -1.65,1.62l-10.47 6.98c-2.28,1.61 -4.61,2.42 -7.01,2.42l-93.29 0c-2.08,0 -3.03,-0.81 -2.84,-2.42 0.05,-0.37 0.08,-0.62 0.11,-0.81zm433.13 -115.24l-42.17 112.67 -0.42 1.68c-0.03,0.25 -0.08,0.56 -0.07,0.61 -0.43,2.84 0.29,5.51 2.04,7.53 1.27,1.48 3.66,3.25 7.76,3.25l97.47 0c8.62,0 17,-2.8 24.92,-8.3 4.45,-3.09 8.03,-6.64 10.9,-10.54l-2.14 5.8 -0.51 2.3c-0.4,2.83 0.33,5.49 2.08,7.5 1.28,1.47 3.67,3.24 7.74,3.24l43.05 0c5.2,0 9.38,-2.79 11.62,-8.04l6.53 -18.1 2.52 17.04c0.88,5.53 5.3,9.1 11.27,9.1l42.97 0c5.42,0 9.53,-3.39 10.22,-8.28 0.21,-1.31 0.28,-1.76 -1.29,-8.88 1.09,4.33 3.26,7.5 5.31,9.65 4.75,4.98 11.19,7.51 19.13,7.51l75.5 0c8.61,0 16.93,-2.82 24.73,-8.34 3.42,-2.42 6.34,-5.15 8.86,-8.08 1.14,3.94 3.15,6.89 5.09,8.91 4.75,4.98 11.19,7.51 19.13,7.51l75.49 0c8.62,0 16.95,-2.82 24.75,-8.34 3.74,-2.64 6.93,-5.61 9.58,-8.86l-1.48 4.32 -0.38 1.8 7.25 0.82 -7.32 -0.28c-0.32,2.79 0.46,5.41 2.21,7.35 1.28,1.45 3.69,3.19 7.77,3.19l43.94 0c5.33,0 9.52,-2.85 11.65,-8.18l17.52 -51.46 10.63 0c-1.19,3.91 -3.41,10.17 -7.45,20.2 -7.89,19.55 -9.3,25.73 -9.65,28.88 -0.34,2.78 0.44,5.41 2.19,7.37 1.29,1.45 3.69,3.19 7.76,3.19l44.18 0c3.86,0 7.57,-1.29 10.92,-3.74 3.15,-2.22 5.62,-3.96 7.54,-5.39 0.02,2.21 0.74,4.27 2.15,5.89 1.27,1.47 3.64,3.24 7.7,3.24l86.9 0c3.81,0 7.49,-1.3 10.8,-3.74l4.11 -2.87c0.36,1.35 1,2.6 1.9,3.65 1.29,1.48 3.66,3.22 7.67,3.22l42.73 0c5.27,0 9.48,-2.92 11.66,-8.31l19.26 -53.65c0.43,-1.36 1.19,-2.61 2.34,-3.88l48.86 -54.84 -39.12 107.41 -0.29 1.07c-0.06,0.3 -0.13,0.7 -0.18,1.19 -0.41,2.82 0.31,5.49 2.05,7.49 1.29,1.48 3.68,3.25 7.77,3.25l18.22 0c5.22,0 9.53,-2.9 11.66,-8.08l22.01 -61.96 12.59 61.01c0.92,5.49 5.37,9.03 11.34,9.03l43.48 0c5.57,0 9.95,-3.06 11.64,-8.03l45.11 -124.22c0.33,-0.67 0.75,-1.68 0.89,-2.94 0.33,-2.89 -0.45,-5.56 -2.2,-7.55 -1.28,-1.46 -3.66,-3.21 -7.66,-3.21l-18.2 0c-5.58,0 -9.96,3.17 -11.69,8.33l-22.12 61.8 -12.56 -61.65c-1.31,-5.23 -5.7,-8.48 -11.46,-8.48l-55.57 0c-0.75,-0.17 -1.6,-0.26 -2.53,-0.26l-18.05 0c-3.03,0 -7.49,0.92 -11.52,5.38l-29.65 33.17 -4.66 -29.58c-0.96,-5.46 -5.39,-8.97 -11.3,-8.97l-55.76 0c-4.6,0 -7.48,2.3 -8.73,5.09 -0.36,-0.67 -0.74,-1.25 -1.07,-1.63 -1.03,-1.2 -3.37,-3.19 -7.45,-3.19l-55.35 0c-1.29,0 -2.44,0.21 -3.46,0.56 -0.98,-0.32 -2.04,-0.56 -3.37,-0.56l-42.3 0c-2.99,0 -7.41,0.89 -11.78,5.36l-37.72 42.03 11.82 -34.25 0.45 -2.35c0.32,-2.94 -0.47,-5.66 -2.28,-7.67 -1.02,-1.17 -3.39,-3.12 -7.45,-3.12l-56.82 0c-4.77,0 -7.68,2.56 -8.87,5.52 -4.45,-3.6 -9.99,-5.52 -16.66,-5.52l-75.5 0c-8.64,0 -16.99,2.85 -24.83,8.5 -3.41,2.44 -6.28,5.16 -8.78,8.06 -0.95,-3.3 -2.63,-6.28 -5.03,-8.86 -4.76,-5.11 -11.2,-7.7 -19.17,-7.7l-75.51 0c-8.64,0 -16.98,2.85 -24.83,8.5 -2.66,1.91 -4.94,4.02 -7.05,6.2 -0.98,-2.55 -2.42,-4.9 -4.33,-6.99 -4.75,-5.12 -11.17,-7.71 -19.11,-7.71l-108.98 0c-5.74,0 -8.88,3.79 -9.44,7.57 -0.06,0.46 0.01,0.89 0.03,1.34 -0.33,-0.41 -0.64,-0.84 -1,-1.23 -4.77,-5.1 -11.24,-7.68 -19.23,-7.68l-110.23 0c-5.79,0 -8.94,3.82 -9.46,7.51 -0.56,3.56 1.32,6.37 4.47,10.6 1,1.32 1.3,2.15 1.36,2.1zm-35.32 115.24l42.37 -112.84c0.05,-0.35 0.12,-0.8 0.2,-1.33 0.33,-2.15 -0.6,-4.66 -2.75,-7.53 -2.15,-2.87 -3.19,-4.57 -3.1,-5.11 0.13,-0.89 0.88,-1.33 2.24,-1.33l110.23 0c5.93,0 10.54,1.79 13.88,5.36 3.34,3.59 4.6,8.15 3.77,13.7 -0.25,1.61 -0.64,3.23 -1.18,4.84l-9.05 23.91c-2.09,5.92 -7.92,11.92 -17.48,18 4.1,5.02 5.89,9.33 5.35,12.89 -0.25,1.63 -0.62,3.24 -1.17,4.83l-9.03 23.92c-2.37,6.64 -6.9,12.28 -13.59,16.93 -6.7,4.66 -13.62,6.98 -20.75,6.98l-97.46 0c-1.99,0 -2.83,-0.8 -2.6,-2.41 0.04,-0.37 0.09,-0.62 0.12,-0.81zm140.4 0.01l41.82 -112.85c0.05,-0.35 0.12,-0.8 0.2,-1.34 0.32,-2.14 -0.6,-4.65 -2.71,-7.52 -2.15,-2.88 -3.17,-4.56 -3.09,-5.1 0.13,-0.88 0.84,-1.33 2.14,-1.34 0.03,0 0.05,0 0.08,0l108.9 0c5.85,0 10.43,1.8 13.75,5.37 3.29,3.59 4.52,8.14 3.7,13.69 -0.22,1.62 -0.62,3.23 -1.14,4.85l-17.6 47.82c-1.99,5.36 -5.93,10.26 -11.82,14.65 -5.91,4.38 -11.94,7.21 -18.12,8.45 0,0.91 1.24,6.77 3.71,17.61 2.46,10.83 3.68,16.43 3.62,16.79 -0.21,1.44 -1.22,2.14 -3.02,2.14l-42.96 0c-2.42,0 -3.75,-0.97 -4.07,-2.95l-4.4 -29.83c-0.47,-1.96 -1.66,-2.95 -3.62,-2.95 -2.1,0 -3.6,1.08 -4.51,3.23l-10.6 29.29c-0.92,2.15 -2.51,3.21 -4.75,3.21l-43.04 0c-1.97,0 -2.83,-0.8 -2.6,-2.41 0.07,-0.37 0.1,-0.63 0.13,-0.81zm137.68 -20.7l30.92 -83.55c2.46,-6.44 7,-12.05 13.59,-16.79 6.6,-4.75 13.44,-7.12 20.55,-7.12l75.51 0c5.88,0 10.48,1.8 13.81,5.37 3.33,3.59 4.58,8.15 3.76,13.7 -0.23,1.62 -0.64,3.22 -1.17,4.84l-31.14 83.55c-2.51,6.63 -7.04,12.28 -13.63,16.93 -6.57,4.66 -13.41,6.99 -20.52,6.99l-75.49 0c-5.9,0 -10.51,-1.75 -13.85,-5.24 -3.33,-3.5 -4.6,-8.01 -3.78,-13.57 0.24,-1.61 0.73,-3.31 1.44,-5.11zm133.32 0l30.91 -83.55c2.46,-6.44 7,-12.05 13.59,-16.79 6.59,-4.75 13.44,-7.12 20.55,-7.12l75.5 0c5.89,0 10.49,1.8 13.82,5.37 3.33,3.59 4.58,8.15 3.76,13.7 -0.24,1.62 -0.64,3.22 -1.17,4.84l-31.14 83.55c-2.51,6.63 -7.03,12.28 -13.63,16.93 -6.57,4.66 -13.4,6.99 -20.52,6.99l-75.49 0c-5.89,0 -10.5,-1.75 -13.84,-5.24 -3.33,-3.5 -4.61,-8.01 -3.79,-13.57 0.24,-1.61 0.73,-3.31 1.45,-5.11zm131.44 20.69l38.66 -112.84c0.2,-0.35 0.31,-0.8 0.38,-1.33 0.25,-2.15 -0.81,-4.66 -3.15,-7.53 -2.36,-2.87 -3.53,-4.57 -3.45,-5.11 0.11,-0.89 0.84,-1.33 2.22,-1.33l56.82 0c1.83,0 2.66,0.89 2.46,2.67 -0.02,0.19 -0.05,0.45 -0.09,0.81l-18.25 52.93c-0.01,0.19 -0.07,0.44 -0.09,0.8 -0.18,1.8 0.61,2.69 2.45,2.69 2.15,0 4.1,-1.08 5.9,-3.22l48.23 -53.74c1.91,-1.96 4.03,-2.94 6.34,-2.94l42.31 0c1.39,0 2.02,0.44 1.91,1.33 -0.06,0.54 -0.35,1.16 -0.89,1.87l-50.25 57.24c9.53,2.33 13.74,8.43 12.63,18.26 -0.19,1.63 -0.55,3.24 -1.03,4.83l-10.34 30.11c-0.04,0.36 -0.07,0.72 -0.11,1.08 -0.22,1.78 1.27,2.95 4.43,3.49 3.14,0.54 4.69,1.17 4.62,1.87 -0.07,0.55 -3.95,3.5 -11.6,8.87 -2.2,1.61 -4.42,2.41 -6.72,2.41l-44.18 0c-1.99,0 -2.91,-0.8 -2.72,-2.41 0.45,-3.94 3.53,-12.94 9.2,-27 5.67,-14.06 8.75,-23.25 9.25,-27.55 0.19,-1.78 -0.61,-2.67 -2.45,-2.67l-18.41 0c-2.47,0 -4.05,1.17 -4.77,3.49l-18.02 52.92c-0.87,2.17 -2.44,3.22 -4.74,3.22l-43.95 0c-2,0 -2.89,-0.8 -2.7,-2.41 0.06,-0.37 0.07,-0.62 0.1,-0.81zm187.56 -128.15l0 0zm3.78 13.97c0.32,-2.14 -0.62,-4.64 -2.82,-7.51 -2.18,-2.88 -3.26,-4.58 -3.17,-5.11 0.13,-0.9 0.87,-1.35 2.21,-1.35l55.35 0c1.8,0 2.57,0.9 2.32,2.68 -0.04,0.2 -0.08,0.45 -0.14,0.81l-41.61 112.59c-0.06,0.33 -0.1,0.62 -0.14,0.78 -0.25,1.8 0.6,2.69 2.55,2.69l49.21 0c1.2,0 1.77,0.27 1.68,0.81 -0.05,0.37 -0.57,0.9 -1.57,1.62l-10 6.98c-2.18,1.61 -4.38,2.42 -6.61,2.42l-86.9 0c-1.94,0 -2.78,-0.81 -2.56,-2.42 0.06,-0.37 0.1,-0.62 0.12,-0.81l41.66 -112.84c0.22,-0.35 0.34,-0.8 0.42,-1.34zm66.63 -13.16c0.09,-0.72 0.81,-1.09 2.17,-1.09l0 0.04 55.77 0c2.4,0 3.76,0.99 4.12,2.96l6.54 41.65c0.18,0.89 0.56,1.35 1.17,1.35 0.61,0 1.27,-0.46 1.98,-1.35l37.24 -41.65c1.79,-1.97 3.81,-2.96 6.07,-2.96l18.05 0c0.68,0 1.17,0.12 1.47,0.34 0,0 0.01,0 0.01,0 0.2,-0.02 0.39,-0.06 0.63,-0.06l56 0c2.4,0 3.88,0.98 4.36,2.94l17.08 83.85c0.07,0.51 0.33,0.98 0.74,1.32 0.46,0 0.83,-0.53 1.12,-1.61l29.71 -83.01c0.78,-2.33 2.38,-3.49 4.82,-3.49l18.19 0c2,0 2.83,0.9 2.61,2.68 -0.02,0.19 -0.14,0.45 -0.34,0.81l-45.27 124.66c-0.74,2.16 -2.35,3.22 -4.78,3.22l-43.47 0c-2.44,0 -3.81,-0.96 -4.14,-2.95l-17.3 -83.82c-0.09,-0.53 -0.33,-0.89 -0.77,-1.08 -0.31,0 -0.69,0.54 -1.13,1.61l-29.49 83.02c-0.89,2.16 -2.5,3.22 -4.78,3.22l-18.22 0c-1.95,0 -2.84,-0.8 -2.6,-2.42 0.05,-0.36 0.08,-0.61 0.11,-0.8l41.11 -112.84c0.07,-0.36 0.1,-0.81 0.19,-1.34 0.3,-2.15 -0.64,-4.65 -2.83,-7.52 -1.08,-1.42 -1.88,-2.55 -2.4,-3.4l-58.13 65.15c-1.78,1.98 -3.06,4.12 -3.83,6.45l-19.18 53.48c-0.94,2.32 -2.54,3.49 -4.8,3.49l-42.72 0c-1.97,0 -2.81,-0.91 -2.57,-2.7 0.02,-0.17 0.14,-0.36 0.3,-0.54l19.53 -53.73c0.46,-1.26 0.78,-2.42 0.94,-3.49 -0.52,-0.71 -0.91,-1.62 -1.21,-2.68l-14.3 -54c-0.52,-1.62 -1.97,-4.26 -4.3,-7.94 -2.36,-3.67 -3.53,-5.59 -3.47,-5.77zm-114.58 57.18l40.26 -45.85c0.21,0.35 0.33,0.61 0.4,0.75l-37.46 101.49c-1.29,-1.15 -3.07,-2.07 -5.39,-2.73l8.95 -26.06c0.6,-2.04 1.04,-4.08 1.27,-6.07 1.06,-9.34 -1.8,-16.79 -8.03,-21.53zm108.55 -52.01l0.16 -0.7c0.75,1.35 1.79,2.98 3.2,5.18 2.77,4.36 3.4,5.89 3.4,5.89l14.34 54.1c0.16,0.54 0.32,1.05 0.5,1.55 -0.02,0.06 -0.04,0.11 -0.07,0.18l-14.77 40.66c-1.07,-0.37 -2.26,-0.59 -3.59,-0.59l-42.44 0 39.27 -106.27zm-620.41 9.28c-0.04,-1.57 -0.23,-3.09 -0.56,-4.55 0.01,0.01 0.03,0.01 0.03,0.02 1.11,1.52 1.36,2.27 1.38,2.23l-0.85 2.3zm90.68 84.7c3.36,-1.24 6.66,-2.91 9.92,-4.94l-3.61 9.73c-0.94,2.36 -1.55,4.55 -1.88,6.75 -0.5,3.43 -0.35,6.4 0.19,9.01 -0.55,-2.46 -1.26,-5.6 -2.19,-9.71 -1.12,-4.91 -1.9,-8.38 -2.43,-10.84zm-113.17 -23.63c-0.18,-2.79 -1.02,-5.65 -2.61,-8.65 3.59,-2.74 6.51,-5.47 8.84,-8.25l-6.23 16.9zm-321.09 -63.6c0,0 0,0 0,-0.01l0 0.01zm-108.12 102.37c-1.68,-1.89 -4.1,-2.85 -7.17,-2.85l-46.44 0 38.16 -106.33 0.48 -2.41c0.35,-2.92 -0.44,-5.64 -2.24,-7.65 -1.28,-1.44 -3.64,-3.17 -7.58,-3.17l-59.43 0c-5.89,0 -9.05,3.84 -9.59,7.83 -0.4,3.68 1.74,6.48 5.32,10.66 0.83,0.96 1.25,1.63 1.45,2.01l-40.32 112.48 -0.47 2.4c-0.34,2.78 0.44,5.39 2.19,7.34 1.3,1.47 3.73,3.22 7.9,3.22l93.28 0c3.92,0 7.71,-1.26 11.08,-3.64l10.55 -7.04c0.03,-0.01 0.06,-0.05 0.09,-0.07l-0.03 0.13c-0.35,2.78 0.42,5.39 2.15,7.37 1.32,1.48 3.77,3.25 8.02,3.25l41.41 0c5.39,0 9.69,-2.77 11.97,-8l44.81 -121.81c0.4,0.58 0.74,1.11 1.22,1.76 1.02,1.39 1.27,2.18 1.31,2.15l-34.97 91.95c-0.97,2.23 -1.62,4.39 -1.97,6.59 -1.56,9.79 2.1,16.11 5.45,19.7 4.71,5 11.1,7.54 19.02,7.54l74.99 0c8.57,0 16.87,-2.8 24.69,-8.32 7.75,-5.48 13.24,-12.19 16.31,-20.02l39.86 -104.23 0.53 -2.33c0.44,-2.87 -0.28,-5.57 -2.02,-7.6 -1.27,-1.45 -3.59,-3.2 -7.52,-3.2l-43.06 0c-5.44,0 -9.79,2.99 -11.6,7.9l-42.78 111.41 -9.3 0 40.76 -106.18 0.53 -2.31c0.44,-2.85 -0.27,-5.53 -2.01,-7.56 -1.28,-1.48 -3.67,-3.26 -7.75,-3.26l-55.39 0c-3.36,0 -5.68,1.21 -7.22,2.86 -1.33,-1.41 -3.63,-2.98 -7.43,-2.98l-55.3 0c-5.93,0 -9.11,3.83 -9.66,7.83 -0.4,3.68 1.74,6.48 5.3,10.63 1.05,1.23 1.42,1.98 1.55,2.29l-37.99 102.93 -1.14 -1.27zm43.13 -108.64c-2.46,-2.88 -3.65,-4.58 -3.59,-5.11 0.13,-0.9 0.91,-1.35 2.41,-1.35l55.3 0c1.98,0 2.86,0.9 2.64,2.69 -0.02,0.19 -0.06,0.44 -0.11,0.8l-45.85 124.66c-0.95,2.16 -2.64,3.23 -5.11,3.23l-41.42 0c-2.15,0 -3.12,-0.81 -2.92,-2.42 0.04,-0.37 0.08,-0.62 0.11,-0.81l41.67 -112.84c0.04,-0.35 0.1,-0.8 0.17,-1.34 0.26,-2.14 -0.84,-4.64 -3.3,-7.51zm66.57 -5.25c0.11,-0.7 0.84,-1.08 2.19,-1.08l55.39 0c1.94,0 2.8,0.81 2.55,2.42 -0.04,0.18 -0.08,0.45 -0.14,0.81l-43.22 112.57c-0.05,0.36 -0.09,0.63 -0.13,0.82 -0.29,1.78 0.54,2.68 2.49,2.68l17.75 0c2.4,0 4.02,-1.17 4.84,-3.51l43.22 -112.58c0.79,-2.13 2.38,-3.21 4.79,-3.21l43.06 0c1.8,0 2.57,0.81 2.33,2.42 -0.04,0.18 -0.08,0.45 -0.14,0.81l-39.86 104.25c-2.53,6.44 -7.11,12 -13.71,16.66 -6.59,4.66 -13.43,6.98 -20.47,6.98l-74.98 0c-5.85,0 -10.41,-1.75 -13.7,-5.25 -3.26,-3.48 -4.45,-8.02 -3.57,-13.56 0.26,-1.62 0.75,-3.21 1.46,-4.83l35.26 -92.44c0.06,-0.36 0.14,-0.79 0.23,-1.34 0.33,-2.14 -0.54,-4.66 -2.63,-7.52 -2.11,-2.86 -3.1,-4.57 -3.01,-5.1zm247.56 58.7l18.13 0c2.26,0 3.9,-1.17 4.84,-3.5 10.38,-27.58 15.6,-41.55 15.65,-41.91 0.24,-1.61 -0.62,-2.41 -2.59,-2.41l-18.13 0c-2.42,0 -4.03,1.1 -4.8,3.25 -10.41,27.76 -15.61,41.73 -15.65,41.89 -0.26,1.8 0.59,2.68 2.55,2.68zm29.12 -40.56c-3.51,9.4 -9.62,25.66 -12.48,33.26l-9.65 0c2.34,-6.27 6.35,-17 12.45,-33.26l9.68 0zm-22.5 59.65c-2.58,7 -6.95,18.85 -12.26,33.25l-9.64 0c2.1,-5.64 5.84,-15.66 12.44,-33.25l9.46 0zm716.43 -95.08l-0.01 -0.01 55.77 0c10.09,0 18.01,6.43 19.69,16.01l1.89 11.98 17.67 -19.76c4.83,-5.33 11.16,-8.23 17.87,-8.23l18.05 0c1.14,0 2.18,0.12 3.19,0.28l54.92 0c9.72,0 17.46,5.86 19.72,14.92l0.16 0.67 6.4 31.45 11.84 -33.07c2.82,-8.49 10.42,-13.97 19.71,-13.97l18.2 0c5.6,0 10.61,2.16 14.07,6.09 3.34,3.81 4.84,8.79 4.25,14.06 -0.22,2.16 -0.84,3.92 -1.47,5.28l-44.99 123.88c-2.82,8.29 -10.39,13.63 -19.65,13.63l-43.47 0c-10.06,0 -17.91,-6.31 -19.67,-15.74l-6.46 -31.21 -12.06 33.96c-3.32,8.02 -10.76,12.99 -19.42,12.99l-18.21 0c-7.69,0 -12.2,-3.86 -14.2,-6.17 -3.39,-3.91 -4.84,-8.98 -4.07,-14.28 0.08,-0.62 0.18,-1.21 0.27,-1.65l0.64 -2.3 23.92 -65.65 -19.29 21.62c-0.34,0.39 -0.55,0.7 -0.61,0.88l-19.56 54.47c-3.35,8.25 -10.8,13.37 -19.46,13.37l-42.73 0c-4.38,0 -8.36,-1.37 -11.55,-3.82 -3.96,2.25 -8.41,3.53 -12.93,3.53l-86.89 0c-6.46,0 -10.64,-2.73 -13,-4.97 -4.59,3.22 -9.79,4.97 -15.31,4.97l-44.18 0c-7.62,0 -12.12,-3.78 -14.13,-6.03 -0.66,-0.73 -1.24,-1.51 -1.75,-2.33 -3.86,5.26 -9.93,8.36 -16.77,8.36l-43.94 0c-7.62,0 -12.12,-3.76 -14.12,-6.02 -0.57,-0.61 -0.99,-1.31 -1.44,-1.99 -8.45,5.3 -17.45,8.01 -26.82,8.01l-75.49 0c-12.91,0 -20.89,-5.5 -25.31,-10.13 -0.34,-0.37 -0.69,-0.8 -1.06,-1.21 -0.61,0.48 -1.15,1.01 -1.8,1.46 -9.25,6.56 -19.23,9.88 -29.65,9.88l-75.49 0c-8.67,0 -15.08,-2.5 -19.71,-5.53 -3.4,3.42 -8.19,5.53 -13.66,5.53l-42.97 0c-6.66,0 -12.33,-2.76 -15.92,-7.38 -3.88,4.71 -9.55,7.38 -16.03,7.38l-43.04 0c-7.68,0 -12.18,-3.86 -14.18,-6.15 -0.56,-0.66 -1,-1.38 -1.45,-2.1 -8.67,5.46 -17.86,8.25 -27.37,8.25l-97.46 0c-7.72,0 -12.23,-3.87 -14.23,-6.18 -3.3,-3.83 -4.73,-8.76 -4.06,-13.94 0.05,-0.42 0.09,-0.77 0.14,-1.06l0.23 -1.95 0.63 -1.42 40.71 -108.4c-2.9,-3.99 -5.81,-8.87 -4.81,-15.27 1.22,-8.59 8.59,-14.72 17.88,-14.72l110.23 0c7.41,0 13.14,1.86 17.57,4.31 3.18,-2.71 7.37,-4.31 12.07,-4.31l108.97 0c12.87,0 20.8,5.59 25.24,10.33 0.1,-0.06 0.18,-0.14 0.26,-0.21 9.33,-6.72 19.36,-10.12 29.83,-10.12l75.51 0c12.99,0 20.98,5.67 25.4,10.42 0.3,0.32 0.62,0.71 0.91,1.07 0.58,-0.45 1.06,-0.94 1.66,-1.37 9.35,-6.72 19.37,-10.12 29.84,-10.12l75.49 0c6.12,0 11.09,1.29 15.15,3.11 2.94,-1.93 6.49,-3.11 10.39,-3.11l56.82 0c5.47,0 10.37,2.13 13.82,5.98 3.38,3.78 4.93,8.76 4.39,14.07l11.06 -12.32c6.24,-6.38 13.06,-7.73 17.68,-7.73l42.31 0c1.22,0 2.32,0.14 3.36,0.32 1.12,-0.2 2.27,-0.32 3.47,-0.32l55.35 0c2.97,0 5.75,0.68 8.24,1.87 2.49,-1.32 5.47,-2.14 9.01,-2.14zm-1210.69 177.62l-0.01 0 122.69 0c7.18,0 12.82,1.67 17.23,3.96 3.04,-2.49 7.01,-3.96 11.41,-3.96l62.62 0c5.41,0 10.19,2.13 13.45,6 3.27,3.88 4.55,8.96 3.62,14.3l-0.42 2.4 -44.62 111.59 32.05 0c12.92,-16.9 36.07,-46.63 81.93,-105.46 0,-0.44 -0.02,-1.32 -0.13,-2.7 -0.33,-4.42 -0.27,-7.59 0.2,-10.31 1.59,-9.1 8.98,-15.22 18.39,-15.22l63.33 -0.6c10.76,0 18.74,7.51 19.1,17.85l0.78 64.34 18.26 -46.02c4.07,-9.97 11.09,-18.49 20.91,-25.45 10.05,-7.12 20.72,-10.72 31.76,-10.72l84.41 0c7.33,0 13.04,1.74 17.49,4.1 3.06,-2.57 7.08,-4.1 11.55,-4.1l62.62 0c5.41,0 10.19,2.13 13.45,6 3.26,3.88 4.55,8.96 3.62,14.3l-0.42 2.41 -2.37 5.9 19.87 -21.04c6.36,-6.26 13.06,-7.57 17.56,-7.57l46.64 0c0.55,0 1.05,0.06 1.57,0.09 0.39,-0.02 0.77,-0.09 1.17,-0.09l122.69 0c7.1,0 12.69,1.63 17.09,3.88 3.02,-2.45 6.96,-3.88 11.3,-3.88l62.62 0c0.79,0 1.55,0.05 2.31,0.14 0.57,-0.05 1.14,-0.14 1.73,-0.14l122.7 0c6.78,0 12.2,1.47 16.5,3.56 2.97,-2.24 6.72,-3.56 10.86,-3.56l122.7 0c13.62,0 21.83,5.95 26.3,10.94 0.75,0.84 1.5,1.81 2.24,2.86 1.29,-1.06 2.61,-2.09 4,-3.08 10.04,-7.12 20.74,-10.72 31.77,-10.72l108.75 0c7,0 11.03,3.53 12.8,5.65 2.93,3.47 4.15,8.04 3.37,12.54 -0.58,3.28 -2.41,7.91 -7.9,11.51 -16.15,11.23 -22.27,13.37 -27.89,13.37l-56.33 0c-1.61,4.04 -3.02,7.58 -4.23,10.64l34.51 0c13.52,0 21.7,5.79 26.18,10.64 4.74,5.13 9.88,14.12 7.48,27.78 -0.54,3.09 -1.45,6.09 -2.7,8.92l-15.78 39.83c-4.1,10.18 -11.17,18.8 -21.04,25.67 -10,6.98 -20.65,10.51 -31.64,10.51l-108.75 0c-7.02,0 -11.04,-3.55 -12.83,-5.66 -0.37,-0.44 -0.63,-0.95 -0.94,-1.42 -8.4,4.67 -17.1,7.08 -25.95,7.08l-108.75 0c-3.56,0 -6.39,-0.86 -8.61,-2 -2.55,1.27 -5.45,2 -8.62,2l-48.38 0c-8.23,0 -14.82,-4.22 -17.72,-10.93 -3.68,6.87 -10.41,10.93 -18.26,10.93l-48.46 0c-3.76,0 -6.71,-0.94 -8.97,-2.17 -2.8,1.39 -5.93,2.17 -9.28,2.17l-48.42 0c-7.55,0 -11.87,-3.8 -13.78,-6.06 -0.47,-0.56 -0.88,-1.15 -1.27,-1.76 -8.82,5.18 -18.06,7.82 -27.53,7.82l-108.49 0c-7.48,0 -11.78,-3.72 -13.72,-5.99 -0.38,0.26 -0.59,0.42 -0.99,0.69 -4.76,3.44 -10.22,5.3 -15.92,5.3l-48.67 0c-7.55,0 -11.88,-3.8 -13.79,-6.06 -1.56,-1.86 -2.66,-3.98 -3.28,-6.26l-0.03 0.07c-3.5,7.67 -10.57,12.25 -18.9,12.25l-48.42 0c-7.55,0 -11.87,-3.8 -13.78,-6.06 -0.55,-0.66 -1.03,-1.36 -1.46,-2.08 -8.93,5.4 -18.32,8.14 -27.99,8.14l-84.41 0c-7.44,0 -13.21,-1.77 -17.68,-4.15 -3.22,2.63 -7.43,4.15 -12.15,4.15l-62.62 0c-10.32,0 -18.21,-7.27 -18.74,-17.28l-0.39 -9.58 -31.39 0 -13.75 17.57c-4.31,5.87 -10.93,9.29 -18.37,9.29l-20.02 0c-1.18,0 -2.26,-0.13 -3.28,-0.3 -1.22,0.18 -2.45,0.3 -3.7,0.3l-104.95 0c-7.55,0 -11.87,-3.8 -13.79,-6.06 -0.49,-0.6 -0.92,-1.22 -1.33,-1.86 -8.88,5.25 -18.18,7.92 -27.71,7.92l-108.5 0c-7.55,0 -11.88,-3.8 -13.79,-6.07 -3.22,-3.82 -4.5,-8.77 -3.59,-13.93l0.43 -2.43 49.82 -124.76c-3.03,-4.25 -6.5,-9.51 -5.34,-16.15 1.42,-8.08 8.45,-13.72 17.11,-13.72zm46.16 -177.35l-0.01 0 59.43 0c5.55,0 10.51,2.14 13.97,6.02 3.43,3.85 4.96,8.93 4.32,14.31l-0.34 2.64 -34.66 96.59 34.34 0c1.37,0 2.6,0.15 3.76,0.35l32.97 -89.25c-3.22,-3.9 -6.47,-8.71 -5.75,-15.26 1.27,-9.24 8.71,-15.4 18.13,-15.4l55.3 0c2.65,0 5.15,0.52 7.44,1.45 2.11,-0.84 4.51,-1.32 7.21,-1.32l55.39 0c7.71,0 12.21,3.9 14.21,6.22 0.48,0.56 0.92,1.16 1.32,1.76 3.81,-5 9.78,-7.98 16.62,-7.98l43.06 0c5.59,0 10.55,2.18 13.97,6.15 3.39,3.94 4.81,9.06 4,14.42l-0.42 2.53 -0.59 1.55 -39.85 104.23c-3.71,9.47 -10.21,17.47 -19.35,23.93 -9.28,6.56 -19.25,9.88 -29.61,9.88l-74.99 0c-12.92,0 -20.84,-5.57 -25.23,-10.24 -0.66,-0.7 -1.33,-1.5 -1.99,-2.36l0 0.03c-3.48,7.95 -10.81,12.7 -19.62,12.7l-41.41 0c-7.82,0 -12.39,-3.86 -14.41,-6.15 0,0 -0.01,-0.01 -0.01,-0.01l-1.63 1.08c-4.67,3.29 -10.09,5.08 -15.81,5.08l-93.28 0c-7.72,0 -12.26,-3.81 -14.27,-6.08 -3.39,-3.8 -4.91,-8.78 -4.28,-14l0.43 -2.89 39.22 -109.46c-3.2,-3.89 -6.35,-8.66 -5.63,-15.12 1.24,-9.22 8.64,-15.4 18.05,-15.4zm-27.1 -455.07l0.07 0 110.71 64.71 63.66 14.51c44.17,13.39 116.29,19.53 116.29,19.53l221.98 27.88c12.29,2.79 174.45,95.95 174.45,95.95l-24.05 -2.79c-30.19,-7.25 -105.67,-59.69 -105.67,-59.69l-63.74 -20.08 -220.29 -31.24c-144.25,-18.97 -157.67,-32.91 -157.67,-32.91l-60.39 13.39c-69.89,10.6 -112.38,-27.33 -112.38,-27.33 84.99,14.5 106.79,-3.91 106.79,-3.91 -26.28,-16.18 -49.76,-58.02 -49.76,-58.02zm1396.29 91.96l0 0 -45.57 24.71 12.88 15.82 67.37 24.71c0,0 -127.81,-32.61 -147.63,-24.71 0,0 -23.77,-21.75 -133.75,-9.88l-181.32 54.37c0,0 168.44,-66.24 191.22,-67.22 0,0 76.3,-9.89 190.24,-1.98l46.56 -15.82zm217.98 29.66l0 -0.01 -7.93 11.87 20.82 4.94 -40.64 11.86 -71.33 34.6 -80.26 5.94 -25.75 -12.85 87.18 -7.91 117.91 -48.44zm-1615.01 6.91l0 0 -32.7 19.78 -59.45 3.95 -67.38 -5.93 117.91 -16.8 41.62 -1zm65.39 9.89l0 0 85.21 0 276.44 50.41 68.36 24.72 75.31 9.89 54.5 20.75 31.7 81.07 -44.59 86.99 -3.02 2.4 -28.22 0 15.39 -13.27 35.67 -73.15 -24.77 -64.26 -49.55 -4.94 -88.18 46.46c0,0 -120.88,41.52 -150.6,37.56l-78.28 0.99 90.17 -33.61 108 -17.79 97.1 -50.43 -68.37 -4.93c0,0 -12.88,-11.86 -40.63,-12.85l-167.44 1.98 -82.24 26.69 -135.74 19.77 88.19 -36.58 187.25 -41.52 -120.87 -8.9 -37.65 -16.8 -136.73 -7.91 43.59 -22.74zm1146.45 22.26l-0.01 0c25.53,0.16 51.51,2.55 76.22,8.39l101.07 34.6 106.02 24.71 -78.28 -3.95 -139.7 -43.51 -58.46 -2.95 22.79 16.8c0,0 26.75,-0.01 90.17,26.69l66.37 16.81 11.9 14.82c0,0 -64.41,-18.78 -108,-20.75l-86.21 -31.64 -20.8 -5.93 -159.52 -6.93c0,0 85.27,-27.74 176.44,-27.16zm-1290.13 27.17l0 0 -39.63 34.6 -45.58 24.71 -20.8 -13.84 25.76 0 49.54 -31.63 30.71 -13.84zm984.86 0l0.01 0c0,0 53.5,12.85 102.05,16.8 0,0 86.21,2.97 116.92,69.7l-23.79 9.39c0,0 10.9,-13.84 -2.97,-27.68 0,0 -12.87,-21.74 -34.68,-27.68l-13.87 -6.91c0,0 -16.85,-8.91 -28.73,-7.92 0,0 1.98,-4.94 -67.38,-6.92l-51.52 -8.89 -84.21 16.8 -23.79 -4.94c0,0 -76.29,19.77 -50.53,74.14l-23.77 27.68 3.95 -46.46 -20.8 -22.74 82.24 -40.53c0,0 112.95,-6.92 120.87,-13.84zm719.33 4.94l0.01 0 -27.75 7.91 -91.16 10.88 54.51 -14.83 13.86 -2.97 50.53 -0.99zm-61.44 43.49l0 0 84.23 6.92 -47.55 39.55 14.85 17.8 -36.65 -10.89c0,0 33.69,-31.63 29.72,-31.63l-53.51 -8.89 -36.66 -7.91 45.57 -4.95zm-513.85 8.01l0.01 0c3.39,0.04 6.33,0.54 8.84,1.28 -1.96,0.63 -3.01,2.94 -2.36,5.24 0.68,2.34 2.87,3.77 4.88,3.19 2.02,-0.58 3.11,-2.94 2.44,-5.28 -0.16,-0.55 -0.42,-1.05 -0.73,-1.49 5.59,2.76 7.99,6.45 7.99,6.45l-21.79 5.93 -10.9 -13.84c4.37,-1.09 8.23,-1.52 11.62,-1.48zm-1052.61 29.56l0.01 0 -61.44 41.53 -45.57 13.83 -17.84 -4.94 35.67 -9.89 46.57 -19.77 42.6 -20.76zm1046.31 23.72l0 0 19.81 0.99 13.88 14.83 -3.96 7.91 -23.79 -0.99 -14.85 4.94 -26.75 4.95 -17.84 21.75 -1 -22.75 -28.73 12.86 -22.79 38.55 -25.75 -15.82c0,0 -51.53,45.48 -62.43,41.52l-10.33 8.34 -23.24 0c-11.84,-16.17 -36.87,-41.1 -73.44,-30.09 0,0 26.76,-35.58 -7.93,-67.21 0,0 30.72,12.85 75.31,-13.84 0,0 -59.45,39.54 -36.65,60.3 0,0 13.86,26.69 73.31,-20.76 0,0 -35.67,28.66 -27.74,41.52 0,0 0,40.53 31.71,9.88l2.97 -7.9 18.82 -9.89c0,0 56.49,-51.4 74.31,-53.38 0,0 -27.74,42.5 14.86,4.94l48.56 -16.8 -4.97 7.9 5.95 2.97 12.88 -4.94 13.88 0 8.91 -5.93 12.88 -0.99 0 -7.91 -15.85 -4.95zm-1016.59 32.63l-0.01 0.01 -4.95 17.79 30.71 5.93 17.84 6.92c0,0 10.9,40.52 30.71,43.49l29.51 10.31 -8 0 -68.08 -13.27 8.92 -10.89 -5.95 -24.71 -51.52 -6.91 -50.53 1.97 71.35 -30.64z"/>
   <path class="fil3" d="M1336.21 708.51c0,0 8.76,-12.12 23.31,-18.14 0,0 40.73,14 42.09,89.2 0,0 -22.41,-31.28 -60.29,-41.25l-17.83 -0.5 -8.17 -9.13 -1.21 -27.23c0,0 17.25,2.96 22.1,7.05z"/>
  </g>
 </g>
</svg>
