<?xml version="1.0" encoding="UTF-8"?>
<!DOCTYPE svg PUBLIC "-//W3C//DTD SVG 1.1//EN" "http://www.w3.org/Graphics/SVG/1.1/DTD/svg11.dtd">
<!-- Creator: CorelDRAW -->
<svg xmlns="http://www.w3.org/2000/svg" xml:space="preserve" width="2000px" height="1600px" version="1.1" style="shape-rendering:geometricPrecision; text-rendering:geometricPrecision; image-rendering:optimizeQuality; fill-rule:evenodd; clip-rule:evenodd"
viewBox="0 0 2000 1600"
 xmlns:xlink="http://www.w3.org/1999/xlink">
 <defs>
  <style type="text/css">
   <![CDATA[
    .fil1 {fill:#27377C;fill-rule:nonzero}
    .fil0 {fill:#E41B23;fill-rule:nonzero}
   ]]>
  </style>
 </defs>
 <g id="Capa_x0020_1">
  <metadata id="CorelCorpID_0Corel-Layer"/>
  <g id="Louisiana_x0020_Monroe_x0020_Warhawks.cdr">
   <path class="fil0" d="M418.73 231.45l918.25 0c0,66.06 0,132.13 0,198.19 -44.37,0 -88.73,0 -133.08,0 0,-16.31 0,-32.62 0,-48.93 -83.82,-0.04 -167.63,0 -251.45,-0.02 0.06,161.59 -0.04,323.21 0.06,484.82 25.82,-0.05 51.63,-0.03 77.45,-0.01 -0.04,44.83 -0.02,89.65 0,134.48 -104.41,0.02 -208.82,0 -313.23,0 0.06,-44.85 -0.13,-89.71 0.1,-134.56 25.7,0.27 51.42,-0.25 77.14,0.27 0.57,-161.66 0.02,-323.31 0.27,-484.95 -83.82,-0.13 -167.64,-0.02 -251.46,-0.05 -0.06,16.33 0.13,32.68 -0.1,49.01 -41.33,-0.14 -82.64,0 -123.95,-0.06 0,-66.06 0,-132.13 0,-198.19zm1301.8 230.04c31.54,0 63.06,-0.02 94.6,0.01 -0.03,39.28 0,78.58 -0.02,117.86 30.42,-0.02 60.84,0.03 91.28,-0.02 -0.04,-39.3 -0.02,-78.58 -0.02,-117.85 31.2,0 62.41,0 93.63,0l0 68.93c-7.97,-0.06 -15.93,-0.08 -23.88,0.13 0.27,55.55 0.04,111.12 0.12,166.7 7.91,-0.02 15.83,-0.02 23.76,-0.02l0 68.91c-31.22,0 -62.41,0 -93.63,0 -0.02,-39.29 0,-78.57 0,-117.87 -30.42,-0.02 -60.82,0.02 -91.22,-0.02 -0.07,39.3 -0.02,78.6 -0.02,117.89 -31.54,0 -63.08,0 -94.6,0 0,-22.96 0,-45.95 0,-68.91 8.08,0 16.16,0 24.26,-0.02 -0.04,-55.61 -0.02,-111.2 -0.02,-166.81 -8.08,0 -16.16,0 -24.24,0 0,-22.96 0,-45.93 0,-68.91zm-248.04 31.95c15.04,-10.28 29.09,-22.26 44.53,-31.82 62.28,-0.33 124.58,-0.04 186.88,-0.13 0,34.22 0,68.44 0,102.66 -21.56,-0.02 -43.12,0.03 -64.66,-0.02 -0.08,-11.3 0.25,-22.57 -0.19,-33.84 -27.21,0.24 -54.39,0.05 -81.6,0.09 -5.11,3.71 -10.28,7.32 -15.24,11.2 0.36,48.35 -0.25,96.69 0.3,145.04 5.06,3.33 9.92,6.94 14.77,10.57 27.32,0.07 54.64,0.02 81.98,0.04 0,-11.26 -0.02,-22.49 0,-33.75 21.52,-0.04 43.04,0.08 64.56,-0.06 0.19,34.24 0.02,68.48 0.08,102.7 -60.38,0.08 -120.78,-0.05 -181.16,0.08 -2.95,-0.17 -6.22,0.59 -8.63,-1.48 -14.01,-9.95 -27.82,-20.19 -41.73,-30.25 0.15,-80.34 -0.06,-160.68 0.11,-241.03zm-269.07 -31.95c84.13,0.01 168.27,-0.04 252.4,0.03 -0.02,34.19 -0.06,68.39 0.02,102.57 -21.41,0.11 -42.8,0.04 -64.2,0.06 -0.02,-11.26 0.03,-22.51 -0.04,-33.77 -31.14,0 -62.28,0.13 -93.42,-0.07 -0.4,16.35 -0.08,32.7 -0.18,49.05 31.37,0 62.74,0 94.11,0 0,22.96 0.02,45.95 -0.02,68.91 -31.35,0 -62.72,0.02 -94.07,-0.02 -0.03,16.49 -0.02,32.97 0,49.43 31.2,0.02 62.42,0.02 93.62,0.02 0.02,-11.42 -0.06,-22.85 0.05,-34.26 21.37,0.08 42.74,0 64.11,0.04 0.08,34.16 -0.13,68.33 0.09,102.51 -84.14,0.36 -168.3,0.04 -252.47,0.15 0.04,-22.83 -0.07,-45.66 0.08,-68.5 8.19,0.08 16.41,0.06 24.64,0.06 -0.02,-55.78 0.03,-111.54 -0.04,-167.32 -8.23,0.04 -16.45,0.02 -24.68,0.02 0,-22.96 0,-45.95 0,-68.91z"/>
   <path class="fil1" d="M579.39 412.51c61.1,0 122.23,0.12 183.33,-0.06 0.28,140.4 0.04,280.8 0.11,421.2 -25.99,0.02 -51.99,-0.11 -77.98,0.06 0.07,66.03 0.04,132.05 0.02,198.08 125.62,0.1 251.27,0 376.92,0.06 -0.02,-66.09 0.02,-132.15 -0.02,-198.22 -25.91,0.1 -51.85,-0.17 -77.76,0.14 -0.3,-140.44 -0.25,-280.92 -0.02,-421.35 61.01,0.24 122.04,0.09 183.06,0.07 14.32,37.42 21.24,77.44 22.53,117.4 0.71,43.51 -3.95,87.18 -14.79,129.37 -9.09,36.9 -23.4,72.17 -37.32,107.43 -1.39,10.17 -0.23,20.57 -0.57,30.84 112.32,-0.04 224.64,-0.02 336.96,-0.02 0.1,39.43 -0.19,78.86 0.13,118.27 1.77,7.51 4.74,14.94 4.17,22.83 -0.14,9.85 -4.72,19.19 -12.02,25.71 8,19.77 8.61,42.68 -0.38,62.26 -11.22,0.02 -23.88,-1.46 -33.04,6.52 -20.65,17.42 -22.81,51.29 -7.34,72.78 6.81,9.64 19.15,16.4 31.08,13.15 12.53,-3.19 21.24,-14.35 25.31,-26.12 4.18,-12.05 14.6,-23.25 28.02,-23.84 12.4,-0.59 24.83,0.21 37.25,-0.28 3.26,-8.6 5.68,-18.18 11.8,-25.57 11.37,0.13 22.76,-0.19 34.15,0.19 7.71,15.87 9.16,33.82 9.24,51.21 -0.59,25.44 -3.75,50.82 -9.21,75.67 -17.81,12.13 -41.67,14.28 -56.29,31.18 40.8,37.35 85.89,69.94 133.4,98.25 -13.15,23.15 -33.13,42.32 -56.63,54.85 -18.19,9.48 -38.65,15.6 -59.35,13.61 -16.49,-18.22 -35.56,-34 -55.25,-48.6 -21.66,-15.51 -44.64,-29.48 -69.39,-39.41 -27.86,4.87 -54.81,16.13 -77.8,32.65 -0.02,12.14 0.06,24.29 -0.06,36.44 -11.92,0.1 -23.84,0.06 -35.76,0.04 -22.9,-22.62 -49.37,-42.22 -79.63,-53.77 -21.66,-8.3 -45.12,-12.73 -68.33,-10.28 -0.25,-16.22 -4.51,-32.28 -11.64,-46.79 -8.4,1.73 -16.86,3.1 -25.28,4.6 -22.63,-28.4 -49.74,-53.84 -81.87,-71.14 -3.78,5.97 -6.93,12.26 -10.6,18.29 8.8,9.13 17.62,18.58 23.36,29.98 2.28,3.54 0.74,7.74 0.44,11.6 -2.04,15.48 -6.96,30.38 -12.74,44.83 -36.33,-13.1 -71.73,-28.71 -106.61,-45.27 -33.62,-16.31 -66.92,-33.44 -98.5,-53.51 -26.22,-16.32 -51.58,-33.96 -76.94,-51.56 -14.74,-1.24 -29.3,3.66 -43.1,8.34 -43.1,16.22 -81.18,42.97 -117.4,70.9 -11.02,-11.14 -18.61,-25.02 -24.88,-39.24 19.88,-34.66 37.66,-71.45 44.98,-111.01 -14.93,-15.99 -27.06,-34.85 -33.23,-55.95 18.3,-39.28 31.76,-81.12 36.8,-124.28 3.39,-31.92 1.77,-65.4 -11.56,-95.06 -5.85,-13.84 -15.7,-25.36 -23.19,-38.25 -12.24,-20.59 -22.76,-42.98 -25.34,-67.05 -0.97,-12.11 -0.33,-25.08 5.99,-35.78 0.95,-2.07 2.83,-3.92 2.71,-6.33 0.1,-73.35 -0.01,-146.71 0.06,-220.06zm-259.05 48.96c46.12,0 92.23,0.05 138.35,-0.02 23.63,78.51 46.9,157.13 70.28,235.72 8.25,0.09 16.49,0.04 24.74,0.06 0,22.96 0,45.93 0,68.91 -32.32,0 -64.66,0 -96.98,0 0.06,-21.06 -0.04,-42.15 0.06,-63.21 0.19,-7.89 -3.04,-15.23 -4.79,-22.78 -26.92,-0.05 -53.83,-0.05 -80.74,0 -2,8.16 -6.45,15.92 -5.8,24.57 0.09,20.47 0.02,40.95 0.03,61.42 -32.33,-0.04 -64.67,0.1 -97.01,-0.07 0.09,-22.93 0.06,-45.88 0.02,-68.81 8.23,-0.05 16.46,-0.09 24.69,0.04 17.67,-55.51 34.74,-111.21 52.34,-166.75 -8.38,-0.26 -16.79,-0.11 -25.17,-0.15 -0.04,-22.96 -0.02,-45.95 -0.02,-68.93zm72.32 148.3l0 0c12.95,-0.03 25.91,0.1 38.86,-0.07 -6.37,-20.88 -12.24,-41.92 -18.74,-62.76 -7.38,20.72 -13.33,41.92 -20.12,62.83zm-392.66 -148.28c39.6,0 79.22,0 118.82,0 0,22.96 0,45.95 0,68.93 -8.31,-0.04 -16.63,-0.15 -24.92,0.23 0.49,55.66 0.05,111.37 0.21,167.05 31.21,0 62.43,0 93.63,0 0,-11.41 -0.02,-22.81 0,-34.24 21.35,-0.04 42.7,0.17 64.03,-0.09 0.3,34.26 0.06,68.51 0.11,102.77 -83.95,0 -167.93,0 -251.88,0l0 -68.91c8.08,0 16.16,0 24.24,-0.02 -0.02,-55.61 0.02,-111.2 0,-166.81 -8.08,0 -16.16,0 -24.24,0l0 -68.91z"/>
  </g>
 </g>
</svg>
