<?xml version="1.0" encoding="UTF-8"?>
<!DOCTYPE svg PUBLIC "-//W3C//DTD SVG 1.1//EN" "http://www.w3.org/Graphics/SVG/1.1/DTD/svg11.dtd">
<!-- Creator: CorelDRAW -->
<svg xmlns="http://www.w3.org/2000/svg" xml:space="preserve" width="2000px" height="1600px" version="1.1" style="shape-rendering:geometricPrecision; text-rendering:geometricPrecision; image-rendering:optimizeQuality; fill-rule:evenodd; clip-rule:evenodd"
viewBox="0 0 2000 1600"
 xmlns:xlink="http://www.w3.org/1999/xlink">
 <defs>
  <style type="text/css">
   <![CDATA[
    .fil0 {fill:black;fill-rule:nonzero}
    .fil2 {fill:#D20E45;fill-rule:nonzero}
    .fil3 {fill:#FDB811;fill-rule:nonzero}
    .fil1 {fill:#FEFEFE;fill-rule:nonzero}
   ]]>
  </style>
 </defs>
 <g id="Capa_x0020_1">
  <metadata id="CorelCorpID_0Corel-Layer"/>
  <g id="Louisiana_x0020_Ragin_x0020_Cajuns.cdr">
   <path class="fil0" d="M596.63 2.58c0.36,-4.63 5.76,-2.05 7.31,0.18 50.78,48.03 102.07,95.65 156.89,139.12 76.48,61.38 156.48,119.08 243.05,165.49 116.17,62.12 241.96,102.69 362.95,153.91 32.67,14.33 65.8,28.83 94.17,50.85 35.84,27.04 64.91,64.16 78.21,107.35 7.61,24.31 11.44,50.09 8.82,75.53l1.41 1.85c39.9,15.13 75.43,41.01 103.01,73.5 27.49,32.23 49.26,70.05 59.42,111.39 16.62,64 16.15,132.17 -0.05,196.2 -13.66,56.36 -42.32,109.4 -84.17,149.82 -6.49,-19.25 -12.2,-38.72 -18.63,-57.96 -29.99,26.5 -62.2,50.96 -98.24,68.66 -47.08,24.44 -100.35,34.16 -152.85,37.07 -25.76,2.6 -51.71,0.69 -77.36,-2.06 -22.66,-5.51 -46.05,4.24 -63.77,18.03 -25.16,20.48 -35.42,53.25 -39.38,84.33 -4.87,43.94 0.64,88.26 9.2,131.4 5.72,31.46 14.69,62.18 23.83,92.76 -24.31,-11.55 -47.36,-25.9 -71.18,-38.53 -214.34,-118.36 -428.65,-236.72 -642.96,-355.11 -49.24,-27.57 -93.08,-67.19 -118.95,-117.92 -26.86,-51.06 -34.45,-111.05 -25.88,-167.77 1.39,-10.52 4.68,-20.71 5.58,-31.31 -27.04,-1.62 -54.2,-1.08 -81.21,0.52 29.32,-67.69 64.57,-132.98 107.14,-193.27 -16.72,-3.81 -33.16,-8.8 -49.83,-12.71 56.95,-69.77 121.73,-133.51 193.99,-187.43 -23.33,-81.55 -19.91,-168.32 -5.4,-251.12 10.34,11.44 20.22,23.28 29.38,35.68 -0.55,-94.28 10.39,-190.31 45.5,-278.45z"/>
   <path class="fil1" d="M1082.78 681.15c10.98,-20.53 28.91,-36.61 49.46,-47.18 11.63,8.59 21.59,19.16 33.16,27.83 -14.69,7.38 -28.24,18.21 -35.63,33.21 -13.89,26.14 -9.08,61.05 12.09,81.93 22.1,23.57 60.89,27.91 87.96,10.5 12.06,-7.49 21.27,-18.88 27.44,-31.56 7.23,7.76 13.77,16.12 20.94,23.97 -11.52,24.59 -32.41,44.76 -57.62,54.95 -27.81,11.88 -60.66,11.01 -87.87,-2.11 -30.87,-14.1 -54.18,-43.5 -60.97,-76.74 -5.63,-25.18 -1.42,-52.3 11.04,-74.8zm261.46 408.58c17.62,-6.18 35.83,-10.39 53.92,-15.02 0.46,16.61 -1.26,33.13 -3.14,49.59 -20.32,-5.06 -39.2,-16.87 -50.78,-34.57zm193.27 -21.92c14.84,0.98 29.37,5.61 42.73,12.04 -17.99,9.52 -35.73,19.55 -54.69,27.04 5.4,-12.53 10.29,-25.47 11.96,-39.08zm-118.41 2.99c13.68,-2.65 27.47,-4.99 41.41,-5.56 -1.13,21.09 -5.04,41.9 -9.39,62.54 -16.02,1.39 -32.43,1.95 -48.2,-1.7 8.15,-17.44 14.71,-35.97 16.18,-55.28zm61.25 -7.28c13.43,0.1 26.91,-0.24 40.31,0.95 -1.96,16.26 -5.1,32.33 -9.73,48.03 -15.76,6.48 -32.46,10.34 -49.13,13.71 9.52,-19.79 14.82,-41.16 18.55,-62.69zm58.39 -57.86c18.19,13.64 34.34,29.94 47.13,48.8 -14.56,-5.32 -29.4,-9.93 -44.76,-12.17 0.87,-12.32 -1.65,-24.41 -2.37,-36.63zm-181.02 2.57c6.56,-8 14.89,-14.27 23.61,-19.78 7.62,18.91 13.97,38.43 16.83,58.68 -20.68,3.88 -40.85,9.93 -61.25,15 2.44,-19.27 7.71,-39 20.81,-53.9zm115.22 -29.68c12.86,2.03 25.39,5.84 37.33,11.08 5.86,16.21 9.72,33.24 10.44,50.48 -12.68,-2.29 -25.62,-2.09 -38.48,-2.04 -1.21,-20.04 -2.73,-40.41 -9.29,-59.52zm-69.82 1.33c14.02,-2.77 28.25,-4.57 42.55,-4.37 8.28,20.32 14.77,42.04 14.41,64.18 -13.87,-0.12 -27.48,2.22 -41.19,3.73 -2.57,-21.73 -8.33,-42.98 -15.77,-63.54zm-195.63 -237.69c-9.83,-10.62 -9.03,-28.25 0.77,-38.61 13.04,13.35 25.88,26.93 38.71,40.46 -10.82,11.01 -29.58,9.52 -39.48,-1.85z"/>
   <path class="fil2" d="M627.5 110.37c1.31,0.54 3.94,1.65 5.25,2.19 80.75,72.23 166.28,139.4 257.37,198.18 57.94,37.5 119.37,69.43 182.6,97.06 82.65,36.86 168.16,66.78 251.79,101.3 36.53,16.05 74.83,30.35 105.85,56.18 36.48,29.28 61.46,75.43 57.7,122.97 -40.02,-3.04 -81.62,2.7 -116.91,22.74 -9.65,4.99 -18.01,11.98 -27.22,17.69 14.41,-18.83 26.96,-40.36 28.58,-64.54 1.65,-22.58 -8.18,-45.61 -25.57,-60.14 3.42,15.87 6.17,35.03 -5.43,48.31 -12.73,14.25 -34.08,14.33 -51.6,12.14 -23.44,-2.29 -43.66,-15.97 -59.99,-32.13 -24.05,-24.03 -45.04,-51.35 -72.13,-72.23 -22.85,-17.88 -50.17,-28.82 -77.61,-37.46 -32.91,-9.26 -66.42,-17.49 -100.59,-20.17 46.54,22.61 91.4,52.97 119.96,97.09 -42.32,11.24 -82.5,34.21 -109.49,69.25 -28.06,34.88 -40.67,81.75 -32.79,125.95 8.07,48.36 40.15,90.67 81.52,116.04 12.42,8.31 26.54,13.3 39.74,20.06 -29.56,12.3 -61.84,14.8 -93.46,16.13 -10.06,-0.61 -20.09,-1.69 -30.17,-2.05 31.69,33.69 72.13,58.08 114.34,76.32 -30.81,22.12 -70.25,28.99 -107.52,27.94 -9.45,0.18 -18.84,-0.65 -28.04,-2.58 24.74,37.23 67.34,58.71 110.04,68.07 11.14,3.09 22.8,2.88 34.06,5.3 -38.43,29.1 -89.83,33.31 -136.13,27.04 31.9,46.59 89.68,67.34 144.11,70.25 -9.13,8.03 -20.45,13.51 -27.99,23.36 -23.69,27.06 -27.73,65.01 -25.75,99.55 1.26,33.68 9.96,66.6 20.99,98.32 -188.74,-106.6 -377.04,-213.97 -565.68,-320.76 -3.83,-2.13 -7.67,-4.4 -10.58,-7.69 -33.26,-37.32 -53.04,-85.64 -58.75,-135.08 -6.2,-48.46 -0.08,-97.96 13.68,-144.67 -21.17,-1.75 -42.47,-0.9 -63.69,-1.01 29.46,-53.48 66.37,-102.56 107.12,-147.94 4.68,-5.35 10.13,-10.13 13.58,-16.49 -15.28,-6.38 -31.41,-10.19 -47.02,-15.56 33.05,-36.09 71.31,-67.09 110.66,-96.03 34.58,26.08 72.8,51.42 116.64,57.31 -51.76,-53.61 -91.53,-122.68 -97.03,-198.13 23.38,28.56 59.88,44.38 96.21,46.85 -36.64,-54.36 -53.43,-119.91 -57.29,-184.76 -1.88,-49.21 1.57,-98.75 12.99,-146.76 1.44,-5.76 2.62,-11.57 3.65,-17.41z"/>
   <path class="fil3" d="M1374.44 775.3c26.81,-22.07 61.94,-32.9 96.49,-31.59 39.08,-0.57 77.64,14.02 107.71,38.74 41.32,33.75 68.43,82.27 82.86,133.1 17,60.22 16.8,127.31 -10.75,184.47 -15.08,-38.61 -37.89,-74.55 -68.76,-102.41 -32.08,-29.79 -72.78,-50.01 -115.74,-58.14 -38.05,-7.9 -80.26,-6.43 -114.24,14.23 -38.77,23.35 -60.43,69.3 -59.76,113.85 -0.46,23.83 10.63,47.13 27.96,63.21 23.64,22.64 57.01,30.87 88.85,32.23 57.06,0.8 112.19,-18.52 162.94,-43.16 -22.5,23.35 -49.31,42.55 -77.45,58.57 -29.25,16.9 -61.95,27.19 -95.29,32.13 -40.33,6.25 -81.72,7.74 -122.14,1.39 -37.35,-6.46 -75.03,-21.56 -100.42,-50.7 -25.65,-28.89 -35.32,-68.69 -34.71,-106.58 -0.9,-39.67 12.35,-80.29 39.9,-109.33 27.37,-28.96 65.11,-45.97 103.49,-54.64 7.54,-1.98 15.64,-1.49 22.87,-4.55 10.91,-42.09 32.03,-82.99 66.19,-110.82z"/>
  </g>
 </g>
</svg>
