<?xml version="1.0" encoding="UTF-8"?>
<!DOCTYPE svg PUBLIC "-//W3C//DTD SVG 1.1//EN" "http://www.w3.org/Graphics/SVG/1.1/DTD/svg11.dtd">
<!-- Creator: CorelDRAW -->
<svg xmlns="http://www.w3.org/2000/svg" xml:space="preserve" width="2000px" height="1600px" version="1.1" style="shape-rendering:geometricPrecision; text-rendering:geometricPrecision; image-rendering:optimizeQuality; fill-rule:evenodd; clip-rule:evenodd"
viewBox="0 0 2000 1600"
 xmlns:xlink="http://www.w3.org/1999/xlink">
 <defs>
  <style type="text/css">
   <![CDATA[
    .fil2 {fill:black;fill-rule:nonzero}
    .fil3 {fill:#6E002A;fill-rule:nonzero}
    .fil1 {fill:#B08445;fill-rule:nonzero}
    .fil0 {fill:#FEFEFE;fill-rule:nonzero}
   ]]>
  </style>
 </defs>
 <g id="Capa_x0020_1">
  <metadata id="CorelCorpID_0Corel-Layer"/>
  <g id="Louisville_x0020_Cardinals.cdr">
   <path class="fil0" d="M1008.92 196.28c87.13,-8.32 175.3,-9.4 262.23,1.8 34.73,5.08 70.17,11.07 101.73,27.19 -37.4,14.57 -78.46,12.98 -117.87,12.16 -86.69,-5.17 -173.83,-5.19 -260.27,3.7 -83.58,8.51 -166.52,25.12 -246.1,52.27 -57.79,19.47 -113.71,44.5 -167,74.18 -57.47,31.75 -111.61,69.08 -164.71,107.58 -44.98,31.8 -82.4,73.03 -115.37,116.87 -49.36,66.09 -89.03,138.86 -123.77,213.53 3.37,-32.03 9.45,-63.8 19.03,-94.58 16.23,-52.89 42.05,-102.64 74.55,-147.33 41.09,-56.56 92.37,-105.12 148.37,-146.69 100.99,-74.52 216.36,-127.69 335.44,-166.18 82.56,-26.21 167.37,-46.41 253.74,-54.5zm311.53 764.76c56.27,0.02 112.55,-0.02 168.83,0.02 7.93,0.31 16.21,0.54 23.58,3.79 6.45,2.86 8.96,10.14 9.56,16.7 4.56,45.57 9.15,91.14 13.66,136.71 28.43,-38.46 56.9,-76.91 85.38,-115.35 -2.99,-13.96 -5.93,-27.92 -8.79,-41.89 57.26,0.04 114.51,0.04 171.77,0 9.03,0.16 18.41,0.37 26.85,3.98 5.73,2.45 8.89,8.63 9.22,14.64 0.38,8.42 -0.65,16.82 -0.94,25.24 -4.06,80.23 -8.81,160.45 -12.46,240.68 8.68,15.58 19.09,30.3 28.4,45.61 -50.84,-0.02 -101.67,0.03 -152.52,-0.04 -8.33,-0.54 -17.41,-0.47 -24.59,-5.34 -7.22,-5.16 -7.27,-15.08 -6.53,-23.03 7.18,-55.49 14.61,-110.96 21.71,-166.47 -42.48,64.78 -84.28,130.02 -126.64,194.88 -44.26,0 -88.5,-0.02 -132.75,0 -4.86,-59.67 -9.94,-119.34 -14.88,-179.01 -24.84,46.1 -48.86,92.63 -73.52,138.81 3.9,13.42 8.04,26.76 12,40.18 -40.38,0.03 -80.77,0 -121.15,0.02 -12.89,-0.25 -25.97,0.9 -38.66,-1.89 -4.64,-1 -10,-3.77 -10.28,-9.14 1.2,-7.84 5.92,-14.44 9.88,-21.1 51.02,-84.78 101.99,-169.6 153.03,-254.37 1.45,-1.78 0.26,-4.07 -0.03,-5.99 -3.46,-12.52 -6.69,-25.12 -10.13,-37.64zm-440.26 0c51,0 102.02,0.02 153.05,0 9.9,-0.11 20.03,-0.05 29.58,2.92 4.67,1.43 9.58,4.15 11.25,9.06 0.91,4.42 -0.1,8.94 -1.53,13.14 -26.57,72.38 -52.95,144.85 -79.51,217.23 25.97,-0.01 51.94,0.02 77.93,-0.01 40.39,-31.08 80.75,-62.15 121.21,-93.14 -18.88,50.78 -37.77,101.56 -56.58,152.35 -3.25,8.94 -7.21,18.93 -16.36,23.3 -10.43,4.87 -22.26,4.66 -33.51,5.24 -80.96,0.07 -161.92,0 -242.86,0.04 -10.51,0.03 -21.17,0.12 -31.47,-2.21 -5.21,-1.22 -10.94,-3.52 -13.3,-8.69 -1.81,-5.51 0.06,-11.34 1.94,-16.53 32.3,-87.07 64.45,-174.18 96.82,-261.22 -5.36,-13.9 -11.14,-27.65 -16.66,-41.48zm-505.97 0c54.36,0.02 108.73,-0.04 163.09,0.02 9.36,0.56 19.6,1.01 27.42,6.77 5.73,4.51 3.95,12.54 1.8,18.47 -19.93,53.39 -39.79,106.81 -59.74,160.2 -4.03,11.41 -8.94,22.54 -11.85,34.29 -1.72,6.71 -0.28,14.9 5.92,18.83 10.69,6.93 24.07,6.92 36.34,6.87 14.5,0.03 30.08,-1.31 42.28,-9.93 9.38,-6.76 14.86,-17.41 18.69,-28.05 20.57,-55.42 41.18,-110.83 61.64,-166.28 -5.54,-13.73 -11.15,-27.43 -16.63,-41.17 51.42,-0.06 102.86,0.01 154.3,-0.04 9.47,-0.12 19.09,0.18 28.26,2.78 5.12,1.54 10.85,4.73 11.64,10.58 0.7,8 -3.08,15.41 -5.7,22.76 -24.59,65.92 -49.18,131.86 -73.8,197.8 -7.21,18.39 -15.03,37.26 -28.85,51.79 -9.57,10.24 -21.83,17.48 -34.59,23.04 -30.63,13.66 -64.03,19.58 -97.22,22.99 -42.01,4.08 -84.29,4.24 -126.46,3.14 -35.48,-1.52 -71.35,-4.21 -105.5,-14.55 -17.36,-5.64 -35.35,-13.7 -46.08,-29.19 -6.08,-9.05 -8.14,-20.45 -6.3,-31.12 2.21,-12.69 6.07,-25.03 10.65,-37.05 22.5,-60.56 44.89,-121.15 67.42,-181.69 -5.66,-13.73 -11.14,-27.52 -16.73,-41.26zm657.71 -591.63c24.27,-1.06 48.61,-0.23 72.9,-0.54 3.29,0.14 7.23,-0.75 9.7,2.1 10.77,9.66 21.67,19.18 32.5,28.78 9.92,-9.19 19.86,-18.36 29.77,-27.56 1.92,-1.63 3.75,-4.04 6.6,-3.69 12.07,-0.12 24.14,0 36.21,-0.01 -31.27,26.09 -62.76,51.89 -94.1,77.88 -31.23,-25.62 -62.34,-51.35 -93.58,-76.96z"/>
   <path class="fil1" d="M846.09 79.39c88.3,-16.04 177.85,-25.21 267.58,-27.46 70.66,-1.47 141.69,1.01 211.58,12.23 36.4,6.04 72.7,14.69 106.3,30.23 29,13.28 55.95,31.43 77.85,54.71 17.3,17.97 30.71,39.35 40.82,62.08 67.5,7.11 134.66,17.78 200.79,33.06 49.03,11.09 97.57,30.24 135.87,63.58 32.95,28.21 56.02,68.19 61.93,111.36 7.33,50.39 -6.5,101.79 -30.71,145.88 -21.99,39.74 -50.01,76.3 -83.88,106.62 -29.29,26.53 -62.84,47.82 -97.43,66.71 -22.36,12.19 -44.7,24.4 -66.95,36.76 -12.84,-25.48 -25.59,-51.02 -38.29,-76.57 -59.16,16.96 -118.58,33.19 -176.96,52.75 -65.11,21.67 -129.31,46.34 -191.44,75.56 -54.95,25.91 -108.38,55.35 -158.16,90.25 3.49,2.76 7.04,5.49 10.18,8.67 19.53,21.85 40.11,42.74 59.79,64.43 10.48,11.76 14.78,27.18 18.38,42.15 22.48,-19.3 44.91,-38.69 67.4,-57.95 -6.67,-24.84 -13.31,-49.68 -19.93,-74.54 172.42,-0.01 344.84,0 517.26,0 17.57,0.18 35.4,-1.13 52.66,3.11 21.64,4.54 41.29,16.39 56.47,32.32 16.37,17.39 33.76,33.81 49.8,51.51 7.54,13.17 13.43,27.39 17.85,41.94 2.18,7.31 3.69,14.95 3.21,22.63 -4.21,78.62 -8.42,157.22 -12.63,235.83 -0.45,4.76 3.45,8.28 5.56,12.19 24.24,37.08 46.62,75.33 69.01,113.57 -368.08,0 -736.15,0 -1104.21,0 15.04,45.94 36.01,89.94 62.16,130.58 -27.95,6.1 -56.82,5.12 -85.22,4.16 -68.65,-3.44 -136.71,-14.45 -203.77,-29.24 -130.72,-29.49 -258.25,-74.95 -376.14,-138.99 -59.59,-32.71 -116.71,-71.38 -163.84,-120.78 -42.18,-43.69 -75.11,-96.28 -95.8,-153.4 -27.97,-76.21 -35.04,-158.37 -32.79,-239 1.68,-68.14 10.69,-136.45 31,-201.67 19.08,-61.7 48.56,-120.07 86.34,-172.42 38.31,-53.36 84.67,-100.52 134.94,-142.64 50.11,-41.85 104.12,-78.88 159.98,-112.62 29.74,-17.85 59.82,-35.23 91.04,-50.41 108.06,-52.35 224.52,-85.64 342.4,-107.18zm577.11 255.86c75.83,0.97 151.93,5.67 226.52,19.98 32.83,6.58 65.64,14.91 96.15,28.98 19.6,9.24 38.97,21.2 51.3,39.49 8.02,11.91 10.97,26.72 9.31,40.89 -2.42,22.5 -12.47,43.37 -24.22,62.41 -13.66,21.92 -30.38,41.78 -48.37,60.26 -8.31,-20.79 -26.81,-35.19 -45.68,-46.01 -28.08,-15.68 -59.49,-24.31 -90.93,-30.3 -41.41,-7.6 -83.6,-10.19 -125.66,-10.34 -83.58,0.03 -167.37,5.85 -249.72,20.56 -37.44,6.62 -74.43,15.72 -110.6,27.38 59.94,-31.07 119.73,-62.58 177.7,-97.24 11.55,-6.96 23.08,-14.02 34.15,-21.76 6.41,-5.1 15.01,-4.96 22.66,-6.72 36.91,-7.13 74.56,-7.9 111.98,-9.26 70.5,-2.18 141.19,-0.93 211.39,6.01 27.98,2.84 55.87,6.67 83.4,12.45 -21.12,-17.45 -47.16,-27.51 -72.87,-36.09 -71.67,-23.05 -147.42,-27.51 -222.11,-31.1 -18.9,-0.93 -37.8,-1.96 -56.72,-2.61 7.48,-8.96 15.37,-17.59 22.32,-26.98zm-521.18 -220.86c-111.11,17.03 -221.18,44.19 -325.22,87.23 -60.47,24.6 -117.41,56.95 -172.33,92.05 -47.56,30.55 -93.41,63.92 -135.7,101.51 -52.42,46.35 -99.39,99.44 -135.44,159.57 -30.51,50.5 -52.7,105.91 -66.44,163.27 -15.16,63.3 -20.6,128.63 -20.09,193.62 -0.17,43.69 6.29,87.44 19.32,129.15 18.3,58.67 50.27,112.6 90.72,158.69 39.86,45.26 86.87,84.04 137.87,116.1 -17.9,-18.83 -36.24,-39.56 -41.19,-65.95 -7.11,-34.93 6.55,-69.26 18.54,-101.45 12.15,-32.7 24.28,-65.41 36.41,-98.11 5.51,-15.76 12.21,-31.16 17,-47.11 -8.09,-21.56 -17.26,-42.74 -25.75,-64.17 -5.15,-12.83 -10.44,-25.58 -15.47,-38.45 15.93,-0.02 31.86,0.04 47.79,-0.02 38.62,0.06 77.24,-0.01 115.87,0.04 35.86,-0.05 71.74,0.03 107.62,-0.04 47.65,0.04 95.32,0.06 142.98,-0.01 112.74,0.1 225.47,-0.04 338.2,0.07 4.33,-0.32 9.36,1.15 13.03,-1.93 74.8,-55.16 158.06,-97.78 243.53,-133.76 64.68,-27.14 130.95,-50.41 197.97,-71.02 54.25,-16.26 108.73,-31.69 163.24,-47.07 11.27,22.81 22.73,45.53 34.12,68.31 32.73,-17.92 65.99,-35.41 95.53,-58.43 35.33,-26.97 64.94,-61.04 87.85,-99.07 21.93,-35.48 37.21,-76.72 34.92,-118.95 -1.38,-28.11 -11.79,-55.63 -29.41,-77.57 -20.61,-25.89 -49.42,-44 -79.72,-56.49 -27.74,-11.6 -57.24,-17.92 -86.55,-24.14 -64.26,-13.21 -129.36,-22.27 -194.74,-27.58 -3.84,-22.53 -14.59,-43.42 -28.46,-61.41 -17.64,-22.8 -41.25,-40.44 -66.88,-53.33 -26.84,-13.59 -56.07,-21.77 -85.5,-27.51 -63.88,-12.25 -129.13,-15.16 -194.04,-15.25 -80.17,0.78 -160.29,7.2 -239.58,19.21zm-577.27 813.44c10.13,24.96 20.16,49.98 30.36,74.9 -19.86,53.75 -39.82,107.44 -59.75,161.17 -8.56,23.32 -18.03,47.56 -16.04,72.89 1.33,19.79 11.51,38.38 26.62,51.06 20.4,21.04 40.16,42.7 60.4,63.89 6.19,5.64 13.82,9.38 21.26,13.1 29.14,13.61 61.29,18.88 93.05,22.29 42.6,4.16 85.48,4.24 128.24,2.88 41.71,-1.71 83.81,-5.31 124.02,-17.22 25.83,-7.97 51.63,-18.66 71.82,-37.1 10.6,12.21 20.44,25.08 31.13,37.22 5.29,0.96 9.48,4.63 14.44,6.5 14.87,5.8 31.08,5.75 46.78,6.1 79.16,-0.06 158.32,0.05 237.48,-0.06 23.02,-0.52 48.65,-0.5 67.35,-16.03 17.66,17.36 44.3,16.31 67.24,15.63 60.55,0.32 121.09,-0.66 181.65,-0.44 47.16,-0.9 94.36,0.14 141.54,-0.89 41.32,0.18 82.65,-0.01 123.98,-0.42 30.29,-0.15 60.57,0.39 90.86,-0.45 48.4,0.33 96.79,-0.38 145.17,-0.44 -18.22,-28.31 -37.17,-56.17 -55.11,-84.64 3.78,-83.3 9.02,-166.6 13.16,-249.9 -1.98,-15.88 -9.02,-30.85 -16.49,-44.81 -15.92,-17.31 -32.86,-33.66 -49.05,-50.69 -15.76,-16.01 -38.11,-24.54 -60.45,-24.52 -70.82,0.05 -141.65,-0.1 -212.46,0.07 2.57,17.24 5.16,34.48 7.69,51.72 -12.12,-11.53 -24.25,-23.06 -36.37,-34.58 -7.11,-6.97 -16.84,-10.33 -26.27,-12.84 -13.12,-3.16 -26.65,-4.6 -40.14,-4.39 -66.58,0.13 -133.15,-0.14 -199.73,0.13 6.22,23.23 12.35,46.48 18.62,69.69 -8.13,13.71 -16.42,27.34 -24.63,41.01 -6.13,-5.12 -12.18,-10.3 -18.27,-15.42 -36.84,27.37 -73.28,55.28 -110.01,82.81 5.69,-16 11.69,-31.91 17.47,-47.88 4.54,-12.7 5.59,-27.32 -0.23,-39.79 -3.67,-8.38 -10.58,-14.58 -16.65,-21.19 -16.29,-17.48 -32.83,-34.75 -48.9,-52.45 -13.23,-13.2 -32.84,-16.47 -50.78,-16.89 -149.89,0 -299.79,0.02 -449.67,-0.02 3.74,11.37 8.09,22.5 11.89,33.86 -8.08,-7.64 -16.31,-15.11 -25.06,-21.96 -11.46,-9.87 -27.37,-11.04 -41.8,-11.84 -71.46,-0.09 -142.92,0 -214.36,-0.06zm385.68 478.74c-39.71,8.04 -80.28,10.64 -120.7,11.37 -29.4,1.14 -58.8,-0.51 -88.18,-1.24 109.35,39.6 222.95,67.67 338.29,82.74 -12.75,-33.8 -17.1,-70.07 -19.32,-105.9 -6.65,-6.83 -13.45,-13.5 -20.16,-20.26 -27.65,16.45 -58.53,26.83 -89.93,33.29z"/>
   <path class="fil2" d="M902.02 114.39c79.29,-12.01 159.41,-18.43 239.58,-19.21 64.91,0.09 130.16,3 194.04,15.25 29.43,5.74 58.66,13.92 85.5,27.51 25.63,12.89 49.24,30.53 66.88,53.33 13.87,17.99 24.62,38.88 28.46,61.41 65.38,5.31 130.48,14.37 194.74,27.58 29.31,6.22 58.81,12.54 86.55,24.14 30.3,12.49 59.11,30.6 79.72,56.49 17.62,21.94 28.03,49.46 29.41,77.57 2.29,42.23 -12.99,83.47 -34.92,118.95 -22.91,38.03 -52.52,72.1 -87.85,99.07 -29.54,23.02 -62.8,40.51 -95.53,58.43 -11.39,-22.78 -22.85,-45.5 -34.12,-68.31 -54.51,15.38 -108.99,30.81 -163.24,47.07 -67.02,20.61 -133.29,43.88 -197.97,71.02 -85.47,35.98 -168.73,78.6 -243.53,133.76 -3.67,3.08 -8.7,1.61 -13.03,1.93 -112.73,-0.11 -225.46,0.03 -338.2,-0.07 87.86,-83.78 193.71,-147.83 307,-190.94 75.5,-28.57 154.45,-48.5 234.8,-56.84 -39.44,-10.09 -79.2,-19.26 -119.51,-25.03 -31.88,-4.8 -64.16,-5.38 -96.3,-6.63 -43.06,-1.35 -86.23,-1.36 -129.18,2.34 -19.01,1.66 -37.93,4.51 -56.35,9.43 74.65,-47.89 150,-94.71 224.62,-142.65 -27.84,1.18 -56.12,-7.44 -77.92,-24.96 -12.26,-9.3 -20.78,-22.48 -32.99,-31.83 -25.78,-21.52 -59.2,-31.58 -92.21,-34.39 -46.76,-3.86 -93.49,2.6 -139.84,8.03 -23.41,2.57 -46.31,8.42 -68.81,15.18 -30.76,9.31 -60.85,20.74 -90.51,33.1 14.97,-18.79 34.57,-33.22 54.58,-46.2 44.02,-27.74 92.84,-46.91 142.48,-61.92 74.12,-22.32 150.88,-34.18 227.62,-43.09 44.66,-4.93 89.6,-8.59 134.58,-7.25 32.59,0.81 64.92,5.92 96.54,13.77 37.69,9.45 77.59,12.92 115.81,4.48 19.37,-4.48 38.93,-12.47 52.61,-27.4 9.59,-10.41 13.92,-25.75 9.48,-39.42 -3.25,-10.64 -12.42,-18.15 -22.13,-22.82 -31.56,-16.12 -67,-22.11 -101.73,-27.19 -86.93,-11.2 -175.1,-10.12 -262.23,-1.8 -86.37,8.09 -171.18,28.29 -253.74,54.5 -119.08,38.49 -234.45,91.66 -335.44,166.18 -56,41.57 -107.28,90.13 -148.37,146.69 -32.5,44.69 -58.32,94.44 -74.55,147.33 -9.58,30.78 -15.66,62.55 -19.03,94.58 -5.44,48.16 -2.24,97.07 5.9,144.75 15.2,-24.73 30.86,-49.41 50.57,-70.86 34.07,-37.83 75.89,-68.02 120.12,-92.91 69.71,-38.86 145.64,-65.59 222.98,-84.55 19.37,-4.46 38.73,-9.23 58.45,-11.88 -58.48,24.29 -114.08,55.26 -166.25,91.07 -50.03,34.48 -96.74,74.04 -137.52,119.14 -15.93,0.06 -31.86,0 -47.79,0.02 5.03,12.87 10.32,25.62 15.47,38.45 -32.15,41.36 -60.7,87.26 -73.27,138.58 11.81,25.48 28.24,48.77 45.61,70.81 -11.99,32.19 -25.65,66.52 -18.54,101.45 4.95,26.39 23.29,47.12 41.19,65.95 -51,-32.06 -98.01,-70.84 -137.87,-116.1 -40.45,-46.09 -72.42,-100.02 -90.72,-158.69 -13.03,-41.71 -19.49,-85.46 -19.32,-129.15 -0.51,-64.99 4.93,-130.32 20.09,-193.62 13.74,-57.36 35.93,-112.77 66.44,-163.27 36.05,-60.13 83.02,-113.22 135.44,-159.57 42.29,-37.59 88.14,-70.96 135.7,-101.51 54.92,-35.1 111.86,-67.45 172.33,-92.05 104.04,-43.04 214.11,-70.2 325.22,-87.23zm-191.59 1292.18c31.4,-6.46 62.28,-16.84 89.93,-33.29 6.71,6.76 13.51,13.43 20.16,20.26 2.22,35.83 6.57,72.1 19.32,105.9 -115.34,-15.07 -228.94,-43.14 -338.29,-82.74 29.38,0.73 58.78,2.38 88.18,1.24 40.42,-0.73 80.99,-3.33 120.7,-11.37zm-385.68 -478.74c71.44,0.06 142.9,-0.03 214.36,0.06 14.43,0.8 30.34,1.97 41.8,11.84 8.75,6.85 16.98,14.32 25.06,21.96 -3.8,-11.36 -8.15,-22.49 -11.89,-33.86 149.88,0.04 299.78,0.02 449.67,0.02 17.94,0.42 37.55,3.69 50.78,16.89 16.07,17.7 32.61,34.97 48.9,52.45 6.07,6.61 12.98,12.81 16.65,21.19 5.82,12.47 4.77,27.09 0.23,39.79 -5.78,15.97 -11.78,31.88 -17.47,47.88 36.73,-27.53 73.17,-55.44 110.01,-82.81 6.09,5.12 12.14,10.3 18.27,15.42 8.21,-13.67 16.5,-27.3 24.63,-41.01 -6.27,-23.21 -12.4,-46.46 -18.62,-69.69 66.58,-0.27 133.15,0 199.73,-0.13 13.49,-0.21 27.02,1.23 40.14,4.39 9.43,2.51 19.16,5.87 26.27,12.84 12.12,11.52 24.25,23.05 36.37,34.58 -2.53,-17.24 -5.12,-34.48 -7.69,-51.72 70.81,-0.17 141.64,-0.02 212.46,-0.07 22.34,-0.02 44.69,8.51 60.45,24.52 16.19,17.03 33.13,33.38 49.05,50.69 7.47,13.96 14.51,28.93 16.49,44.81 -4.14,83.3 -9.38,166.6 -13.16,249.9 17.94,28.47 36.89,56.33 55.11,84.64 -48.38,0.06 -96.77,0.77 -145.17,0.44 -30.29,0.84 -60.57,0.3 -90.86,0.45 -41.33,0.41 -82.66,0.6 -123.98,0.42 -47.18,1.03 -94.38,-0.01 -141.54,0.89 -60.56,-0.22 -121.1,0.76 -181.65,0.44 -22.94,0.68 -49.58,1.73 -67.24,-15.63 -18.7,15.53 -44.33,15.51 -67.35,16.03 -79.16,0.11 -158.32,0 -237.48,0.06 -15.7,-0.35 -31.91,-0.3 -46.78,-6.1 -4.96,-1.87 -9.15,-5.54 -14.44,-6.5 -10.69,-12.14 -20.53,-25.01 -31.13,-37.22 -20.19,18.44 -45.99,29.13 -71.82,37.1 -40.21,11.91 -82.31,15.51 -124.02,17.22 -42.76,1.36 -85.64,1.28 -128.24,-2.88 -31.76,-3.41 -63.91,-8.68 -93.05,-22.29 -7.44,-3.72 -15.07,-7.46 -21.26,-13.1 -20.24,-21.19 -40,-42.85 -60.4,-63.89 -15.11,-12.68 -25.29,-31.27 -26.62,-51.06 -1.99,-25.33 7.48,-49.57 16.04,-72.89 19.93,-53.73 39.89,-107.42 59.75,-161.17 -10.2,-24.92 -20.23,-49.94 -30.36,-74.9zm49.47 33.21c5.59,13.74 11.07,27.53 16.73,41.26 -22.53,60.54 -44.92,121.13 -67.42,181.69 -4.58,12.02 -8.44,24.36 -10.65,37.05 -1.84,10.67 0.22,22.07 6.3,31.12 10.73,15.49 28.72,23.55 46.08,29.19 34.15,10.34 70.02,13.03 105.5,14.55 42.17,1.1 84.45,0.94 126.46,-3.14 33.19,-3.41 66.59,-9.33 97.22,-22.99 12.76,-5.56 25.02,-12.8 34.59,-23.04 13.82,-14.53 21.64,-33.4 28.85,-51.79 24.62,-65.94 49.21,-131.88 73.8,-197.8 2.62,-7.35 6.4,-14.76 5.7,-22.76 -0.79,-5.85 -6.52,-9.04 -11.64,-10.58 -9.17,-2.6 -18.79,-2.9 -28.26,-2.78 -51.44,0.05 -102.88,-0.02 -154.3,0.04 5.48,13.74 11.09,27.44 16.63,41.17 -20.46,55.45 -41.07,110.86 -61.64,166.28 -3.83,10.64 -9.31,21.29 -18.69,28.05 -12.2,8.62 -27.78,9.96 -42.28,9.93 -12.27,0.05 -25.65,0.06 -36.34,-6.87 -6.2,-3.93 -7.64,-12.12 -5.92,-18.83 2.91,-11.75 7.82,-22.88 11.85,-34.29 19.95,-53.39 39.81,-106.81 59.74,-160.2 2.15,-5.93 3.93,-13.96 -1.8,-18.47 -7.82,-5.76 -18.06,-6.21 -27.42,-6.77 -54.36,-0.06 -108.73,0 -163.09,-0.02zm505.97 0c5.52,13.83 11.3,27.58 16.66,41.48 -32.37,87.04 -64.52,174.15 -96.82,261.22 -1.88,5.19 -3.75,11.02 -1.94,16.53 2.36,5.17 8.09,7.47 13.3,8.69 10.3,2.33 20.96,2.24 31.47,2.21 80.94,-0.04 161.9,0.03 242.86,-0.04 11.25,-0.58 23.08,-0.37 33.51,-5.24 9.15,-4.37 13.11,-14.36 16.36,-23.3 18.81,-50.79 37.7,-101.57 56.58,-152.35 -40.46,30.99 -80.82,62.06 -121.21,93.14 -25.99,0.03 -51.96,0 -77.93,0.01 26.56,-72.38 52.94,-144.85 79.51,-217.23 1.43,-4.2 2.44,-8.72 1.53,-13.14 -1.67,-4.91 -6.58,-7.63 -11.25,-9.06 -9.55,-2.97 -19.68,-3.03 -29.58,-2.92 -51.03,0.02 -102.05,0 -153.05,0zm440.26 0c3.44,12.52 6.67,25.12 10.13,37.64 0.29,1.92 1.48,4.21 0.03,5.99 -51.04,84.77 -102.01,169.59 -153.03,254.37 -3.96,6.66 -8.68,13.26 -9.88,21.1 0.28,5.37 5.64,8.14 10.28,9.14 12.69,2.79 25.77,1.64 38.66,1.89 40.38,-0.02 80.77,0.01 121.15,-0.02 -3.96,-13.42 -8.1,-26.76 -12,-40.18 24.66,-46.18 48.68,-92.71 73.52,-138.81 4.94,59.67 10.02,119.34 14.88,179.01 44.25,-0.02 88.49,0 132.75,0 42.36,-64.86 84.16,-130.1 126.64,-194.88 -7.1,55.51 -14.53,110.98 -21.71,166.47 -0.74,7.95 -0.69,17.87 6.53,23.03 7.18,4.87 16.26,4.8 24.59,5.34 50.85,0.07 101.68,0.02 152.52,0.04 -9.31,-15.31 -19.72,-30.03 -28.4,-45.61 3.65,-80.23 8.4,-160.45 12.46,-240.68 0.29,-8.42 1.32,-16.82 0.94,-25.24 -0.33,-6.01 -3.49,-12.19 -9.22,-14.64 -8.44,-3.61 -17.82,-3.82 -26.85,-3.98 -57.26,0.04 -114.51,0.04 -171.77,0 2.86,13.97 5.8,27.93 8.79,41.89 -28.48,38.44 -56.95,76.89 -85.38,115.35 -4.51,-45.57 -9.1,-91.14 -13.66,-136.71 -0.6,-6.56 -3.11,-13.84 -9.56,-16.7 -7.37,-3.25 -15.65,-3.48 -23.58,-3.79 -56.28,-0.04 -112.56,0 -168.83,-0.02zm-611.89 -215.23c29.39,-10.11 59.26,-19.28 89.94,-24.61 -89.94,46.02 -172.63,106.53 -242.97,179.12 -35.88,0.07 -71.76,-0.01 -107.62,0.04 75.3,-68.39 164.77,-120.82 260.65,-154.55zm714.64 -410.56c-6.95,9.39 -14.84,18.02 -22.32,26.98 18.92,0.65 37.82,1.68 56.72,2.61 74.69,3.59 150.44,8.05 222.11,31.1 25.71,8.58 51.75,18.64 72.87,36.09 -27.53,-5.78 -55.42,-9.61 -83.4,-12.45 -70.2,-6.94 -140.89,-8.19 -211.39,-6.01 -37.42,1.36 -75.07,2.13 -111.98,9.26 -7.65,1.76 -16.25,1.62 -22.66,6.72 -11.07,7.74 -22.6,14.8 -34.15,21.76 -57.97,34.66 -117.76,66.17 -177.7,97.24 36.17,-11.66 73.16,-20.76 110.6,-27.38 82.35,-14.71 166.14,-20.53 249.72,-20.56 42.06,0.15 84.25,2.74 125.66,10.34 31.44,5.99 62.85,14.62 90.93,30.3 18.87,10.82 37.37,25.22 45.68,46.01 17.99,-18.48 34.71,-38.34 48.37,-60.26 11.75,-19.04 21.8,-39.91 24.22,-62.41 1.66,-14.17 -1.29,-28.98 -9.31,-40.89 -12.33,-18.29 -31.7,-30.25 -51.3,-39.49 -30.51,-14.07 -63.32,-22.4 -96.15,-28.98 -74.59,-14.31 -150.69,-19.01 -226.52,-19.98zm-391.27 34.16c31.24,25.61 62.35,51.34 93.58,76.96 31.34,-25.99 62.83,-51.79 94.1,-77.88 -12.07,0.01 -24.14,-0.11 -36.21,0.01 -2.85,-0.35 -4.68,2.06 -6.6,3.69 -9.91,9.2 -19.85,18.37 -29.77,27.56 -10.83,-9.6 -21.73,-19.12 -32.5,-28.78 -2.47,-2.85 -6.41,-1.96 -9.7,-2.1 -24.29,0.31 -48.63,-0.52 -72.9,0.54z"/>
   <path class="fil3" d="M1372.88 225.27c9.71,4.67 18.88,12.18 22.13,22.82 4.44,13.67 0.11,29.01 -9.48,39.42 -13.68,14.93 -33.24,22.92 -52.61,27.4 -38.22,8.44 -78.12,4.97 -115.81,-4.48 -31.62,-7.85 -63.95,-12.96 -96.54,-13.77 -44.98,-1.34 -89.92,2.32 -134.58,7.25 -76.74,8.91 -153.5,20.77 -227.62,43.09 -49.64,15.01 -98.46,34.18 -142.48,61.92 -20.01,12.98 -39.61,27.41 -54.58,46.2 29.66,-12.36 59.75,-23.79 90.51,-33.1 22.5,-6.76 45.4,-12.61 68.81,-15.18 46.35,-5.43 93.08,-11.89 139.84,-8.03 33.01,2.81 66.43,12.87 92.21,34.39 12.21,9.35 20.73,22.53 32.99,31.83 21.8,17.52 50.08,26.14 77.92,24.96 -74.62,47.94 -149.97,94.76 -224.62,142.65 18.42,-4.92 37.34,-7.77 56.35,-9.43 42.95,-3.7 86.12,-3.69 129.18,-2.34 32.14,1.25 64.42,1.83 96.3,6.63 40.31,5.77 80.07,14.94 119.51,25.03 -80.35,8.34 -159.3,28.27 -234.8,56.84 -113.29,43.11 -219.14,107.16 -307,190.94 -47.66,0.07 -95.33,0.05 -142.98,0.01 70.34,-72.59 153.03,-133.1 242.97,-179.12 -30.68,5.33 -60.55,14.5 -89.94,24.61 -95.88,33.73 -185.35,86.16 -260.65,154.55 -38.63,-0.05 -77.25,0.02 -115.87,-0.04 40.78,-45.1 87.49,-84.66 137.52,-119.14 52.17,-35.81 107.77,-66.78 166.25,-91.07 -19.72,2.65 -39.08,7.42 -58.45,11.88 -77.34,18.96 -153.27,45.69 -222.98,84.55 -44.23,24.89 -86.05,55.08 -120.12,92.91 -19.71,21.45 -35.37,46.13 -50.57,70.86 -8.14,-47.68 -11.34,-96.59 -5.9,-144.75 34.74,-74.67 74.41,-147.44 123.77,-213.53 32.97,-43.84 70.39,-85.07 115.37,-116.87 53.1,-38.5 107.24,-75.83 164.71,-107.58 53.29,-29.68 109.21,-54.71 167,-74.18 79.58,-27.15 162.52,-43.76 246.1,-52.27 86.44,-8.89 173.58,-8.87 260.27,-3.7 39.41,0.82 80.47,2.41 117.87,-12.16zm-1146.43 852.1c12.57,-51.32 41.12,-97.22 73.27,-138.58 8.49,21.43 17.66,42.61 25.75,64.17 -4.79,15.95 -11.49,31.35 -17,47.11 -12.13,32.7 -24.26,65.41 -36.41,98.11 -17.37,-22.04 -33.8,-45.33 -45.61,-70.81z"/>
  </g>
 </g>
</svg>
