<?xml version="1.0" encoding="UTF-8"?>
<!DOCTYPE svg PUBLIC "-//W3C//DTD SVG 1.1//EN" "http://www.w3.org/Graphics/SVG/1.1/DTD/svg11.dtd">
<!-- Creator: CorelDRAW -->
<svg xmlns="http://www.w3.org/2000/svg" xml:space="preserve" width="2000px" height="1600px" version="1.1" style="shape-rendering:geometricPrecision; text-rendering:geometricPrecision; image-rendering:optimizeQuality; fill-rule:evenodd; clip-rule:evenodd"
viewBox="0 0 2000 1600"
 xmlns:xlink="http://www.w3.org/1999/xlink">
 <defs>
  <style type="text/css">
   <![CDATA[
    .fil0 {fill:black;fill-rule:nonzero}
    .fil2 {fill:#106448;fill-rule:nonzero}
    .fil1 {fill:#C8C7C7;fill-rule:nonzero}
   ]]>
  </style>
 </defs>
 <g id="Capa_x0020_1">
  <metadata id="CorelCorpID_0Corel-Layer"/>
  <g id="Loyola_x0020_Maryland_x0020_Greyhounds.cdr">
   <path class="fil0" d="M271.94 1599.98l287.74 -1167.12 -143.62 0 106.52 -432.81 936.62 -0.04 -283.71 1148.98 552.55 -0.02 -111.42 451.03 -1344.68 -0.02z"/>
   <path class="fil1" d="M527.91 354.34c21.69,-87.54 42.95,-175.19 64.83,-262.69 252.29,0.13 504.59,0.02 756.88,0.06 -93.6,379.44 -187.41,758.82 -281.16,1138.23 182.47,0.07 364.94,-0.04 547.41,0.05 -23.06,93.53 -46.23,187.04 -69.18,280.59 -387.13,0.06 -774.28,-0.05 -1161.42,0.06 94.84,-385.46 190.07,-770.82 284.94,-1156.28 -47.43,0 -94.87,0.05 -142.3,-0.02z"/>
   <path class="fil2" d="M648.58 162.91c202.73,0 405.48,0 608.2,0l-0.28 1.15 0.88 0c-93.43,379.06 -187.22,758.03 -280.76,1137.06 182.15,0.11 364.31,-0.06 546.49,0.07l-0.29 1.15 0.89 0c-11.27,45.46 -22.44,90.93 -33.68,136.39 -337.57,-0.04 -675.13,-0.02 -1012.7,0l0.28 -1.15 -0.88 0c94.89,-385.04 189.75,-770.07 284.73,-1155.07 -47.15,-0.06 -94.33,0.05 -141.5,-0.06l0.29 -1.14 -0.89 -0.01c9.77,-39.46 19.4,-78.95 29.22,-118.39z"/>
  </g>
 </g>
</svg>
