<?xml version="1.0" encoding="UTF-8"?>
<!DOCTYPE svg PUBLIC "-//W3C//DTD SVG 1.1//EN" "http://www.w3.org/Graphics/SVG/1.1/DTD/svg11.dtd">
<!-- Creator: CorelDRAW -->
<svg xmlns="http://www.w3.org/2000/svg" xml:space="preserve" width="2000px" height="1600px" version="1.1" style="shape-rendering:geometricPrecision; text-rendering:geometricPrecision; image-rendering:optimizeQuality; fill-rule:evenodd; clip-rule:evenodd"
viewBox="0 0 2000 1600"
 xmlns:xlink="http://www.w3.org/1999/xlink">
 <defs>
  <style type="text/css">
   <![CDATA[
    .fil0 {fill:#00345B;fill-rule:nonzero}
    .fil2 {fill:#900028;fill-rule:nonzero}
    .fil1 {fill:#B3B5B8;fill-rule:nonzero}
   ]]>
  </style>
 </defs>
 <g id="Capa_x0020_1">
  <metadata id="CorelCorpID_0Corel-Layer"/>
  <g id="Loyola_x0020_Marymount_x0020_Lions.cdr">
   <path class="fil0" d="M1066.35 215.13l6.25 0c41.92,2.9 83.9,5.34 125.58,10.78 30.54,3.67 60.9,8.76 91.27,13.69 18.8,37.26 36.16,75.27 50.78,114.39 24.37,-24.92 51.81,-46.87 81.43,-65.26 23.87,-15.03 49.76,-26.45 74.81,-39.32 54.27,65.28 105.72,133.02 152.33,204.03 54.48,-26.97 112.86,-46.25 172.73,-56.77 76.77,69.38 142.55,153.75 178.47,251.57 -27.57,5.38 -53.23,24.11 -63.75,50.6 -4.55,11.06 -5.57,23.18 -5.34,35.03 0.09,73.24 0.01,146.5 0.03,219.74 0.29,25.28 -0.64,50.56 0.67,75.82 1.49,29.11 8.61,58.4 24.14,83.34 10.28,17.04 23.8,31.85 38.19,45.5 -33.97,57.13 -75.08,109.66 -118.29,160 -13.33,15.42 -26.89,30.64 -40.88,45.45 -55.08,-58.11 -120.14,-105.49 -186.95,-149.14 0.06,-21.18 0.02,-42.37 0.02,-63.56 -69.17,0.74 -138.48,-4.59 -206.59,-16.85 -8.99,-2.68 -15.81,-9.91 -22.59,-16.06 -33.25,-33.71 -63.85,-69.91 -93.39,-106.88 -7.61,9.62 -15.39,19.24 -24.9,27.08 -7.84,6.5 -15.81,12.86 -23.74,19.24 -70.78,-15.77 -143.23,-21.79 -215.24,-29.18 -10.06,-10.89 -20.89,-21.13 -29.67,-33.12 -13.2,-17.66 -24.16,-36.86 -34.39,-56.35 -8.69,12.27 -17.27,24.64 -25.96,36.93 -8.84,-11.78 -17.52,-23.69 -26.21,-35.58 -16.3,34.63 -37.43,67.29 -63.51,95.37 -46.84,5.86 -93.44,13.98 -139.27,25.42 -25.46,6.17 -50.59,13.57 -75.83,20.62 -8.22,-6.33 -16.44,-12.67 -24.62,-19.07 -0.04,8.92 -0.02,17.83 -0.02,26.75 -67.14,25.43 -133.46,53.46 -196.26,88.38 -68.51,37.68 -132.91,82.59 -192.94,132.64 -27.26,22.74 -53.11,47.26 -75.91,74.51 -33.99,-13.25 -64.36,-34.33 -91.61,-58.36 -31.89,-28.36 -60.54,-60.42 -85.19,-95.26l0 -0.84c45.35,-40.35 76.42,-96.55 85.63,-156.61 2.12,-12.78 1.38,-25.75 1.47,-38.63 0,-103.56 -0.02,-207.12 0.02,-310.67 -0.17,-17.39 -5.62,-34.69 -15.51,-48.99 -14.35,-20.55 -37.19,-34.58 -61.84,-38.78 22.46,-33.63 46.92,-65.86 71.8,-97.73 23.16,-30.75 49.18,-59.17 75.71,-87 14.73,-14.83 29.37,-29.81 45.25,-43.4 54.25,6.02 106.72,24.93 153.38,53.02 25.56,15.69 49.95,34.19 68.49,58.01 -10.07,16.57 -20.96,32.65 -30.3,49.63 -18.76,37.29 -27.11,79.46 -26.28,121.06 0,42.28 0,84.54 0,126.83 37,-54.14 78.34,-105.21 121.83,-154.25 22.08,9.5 44.84,17.51 66.26,28.5 26.55,13.23 51.35,29.84 74.15,48.79 0.04,-51.96 0,-103.93 0.02,-155.89 -0.27,-20.98 -3.3,-42.68 -14.13,-61.05 -11.95,-20.6 -31.56,-34.9 -48.36,-51.26 20.24,-73.28 47.76,-144.51 82.12,-212.32 33.84,-7.69 67.68,-15.42 101.86,-21.4 39.95,-7.21 80.25,-12.29 120.52,-17.31 31.81,72.64 64.1,145.07 97.27,217.08 33.42,-73.81 65.42,-148.26 96.99,-222.91zm30.09 48.36l0 0c-40.58,95.67 -82.12,190.93 -126.49,284.91 -44.03,-91.42 -85.53,-184.06 -126.7,-276.78 -52.68,6.6 -105.09,15.62 -156.82,27.59 -5.49,1.06 -7.29,7.12 -9.66,11.39 -22.34,47.46 -41.37,96.54 -56.22,146.87 9.64,8.82 18.96,18.12 26.68,28.72 19.53,25.89 28.56,58.51 29.26,90.65 -0.02,92.76 -0.04,185.55 0.02,278.31 -0.1,11.48 -3.41,22.65 -7.54,33.27 -9.77,24.31 -25.43,45.73 -42.49,65.42 11.91,27.16 26.26,55.2 50.77,73.05 57.31,-16.77 115.8,-29.5 174.98,-37.62 5.15,0.17 7.89,-4.49 10.73,-7.99 11.8,-15.72 21.86,-32.7 31.19,-49.97 4.47,-8.77 9.98,-17.74 9.22,-28.01 -22.11,-17.53 -41.86,-43.21 -40.9,-72.78 0.08,-36.78 -0.02,-73.57 0.06,-110.36 34.2,57.75 67.58,116.24 107.63,170.25 41.16,-55.71 72.01,-117.99 106.95,-177.6 0.64,39.92 0.28,79.87 0.2,119.79 -3.16,27.89 -22.89,50.5 -43.32,68.22 7.59,16.38 16.53,32.12 25.98,47.51 7.06,10.97 14.33,22.08 23.91,31.04 10.34,1.89 21.08,1.53 31.55,2.76 49.82,4.07 99.32,11.51 148.21,21.89 19.98,-15.58 33.36,-37.89 44.48,-60.27 2.04,-5.34 6.4,-12.71 1.42,-17.63 -19.01,-20.62 -36.4,-44.16 -43.57,-71.69 -3.43,-12.14 -2.41,-24.8 -2.5,-37.24 -0.02,-82.66 0,-165.31 -0.02,-247.97 0.19,-21.35 3.09,-42.88 10.28,-63.07 8.98,-26.3 26.28,-48.68 45.79,-68.07 -15.79,-53.7 -36.74,-105.83 -61.2,-156.14 -53.53,-9.34 -107.65,-15.11 -161.88,-18.45zm259.7 141.39l0 0c-4.75,6.21 -12.44,14.09 -8.2,22.44 27.61,41.04 39.65,90.95 40.5,139.97 0,95.93 0.02,191.86 0,287.79 -0.41,21.98 -4.48,45.55 -19.48,62.58 -9.11,10.77 -22.19,16.66 -34.56,22.76 35.83,49.55 75.42,96.3 117.42,140.71 2.69,2.95 5.95,5.71 10.15,6.06 77.75,12.63 156.99,17.47 235.63,11.43 -0.04,29.75 -0.07,59.5 0.02,89.26 11.7,7.69 23.27,15.59 35.3,22.82 15.64,9.62 31.9,18.27 46.94,28.88 21.28,14.9 40.35,32.68 59.34,50.33 9.15,-10.64 18.18,-21.38 26.78,-32.48 22.78,-29.4 45.38,-59.42 61.69,-93.01 -10.89,-16.75 -22.04,-33.49 -30.64,-51.6 -9.49,-19.37 -12.25,-41.16 -12.48,-62.5 -0.02,-109.24 0,-218.48 0,-327.72 0.51,-24.77 6.72,-50.33 22,-70.27 7.56,-10.03 17.9,-17.42 28.71,-23.59 -9.58,-21.44 -21.47,-41.79 -34.4,-61.35 -27.84,-41.72 -60.09,-80.36 -94.66,-116.63 -28.82,4.15 -56.87,12.9 -83.22,25.19 -25.13,11.83 -49.22,26.34 -70.12,44.72 30.07,45.51 45.04,100.23 44.72,154.59 -0.03,75.54 -0.02,151.07 0,226.59 -38.02,18.4 -81.19,23.89 -123.02,20.81 -0.15,-105.19 -0.08,-210.4 -0.04,-315.58 1.59,-28.92 8.75,-58.8 26.76,-82.07 6.51,-8.9 15.83,-15.03 24.8,-21.19 -36.96,-58.68 -78.03,-114.69 -120.54,-169.41 -7.69,-8.75 -13.67,-19.68 -24.39,-25.11 -47.55,22.99 -90.25,55.88 -125.01,95.58zm-1179.11 98.89l0 0c-35.24,37.52 -68.53,77.54 -93.66,122.62 5.12,4.9 11.8,7.99 16.68,13.26 23.96,23.48 33.24,57.98 34.37,90.66 0.06,111.66 -0.02,223.32 0.04,334.99 -0.08,26.71 -6.72,53.05 -17.04,77.59 -13.77,32.31 -32.21,62.32 -51.35,91.67 10.28,13.99 22,26.93 34.65,38.8 19.86,18.12 41.22,36.66 67.73,43.91 67.35,-60.86 139.65,-116.55 217.74,-162.96 65.33,-39.08 134.5,-71.52 205.5,-98.84 0.08,-24.52 0,-49.03 0.04,-73.53 0.17,-24.67 -1.08,-49.51 2.94,-73.96 5.04,-35.05 18.73,-68.77 39.93,-97.16 -34.89,-41.5 -81.44,-72.65 -131.92,-92.02 -46.2,55.04 -91.53,111.47 -127.1,174.15 7.37,4.1 15.44,7.7 20.87,14.42 9.87,11.84 14.35,27.08 16.95,42.02 -31.15,13.67 -61.79,28.5 -91.95,44.24 -0.02,-107.99 -0.08,-216 0.02,-324.01 2.4,-50.44 16.23,-101.11 44.04,-143.61 -36.56,-38.91 -88.58,-60.59 -140.94,-67.31 -17.08,13.67 -32.13,29.61 -47.54,45.07zm1145.67 -18.49l0 0c-4.64,1.95 -7.8,6.14 -10.66,10.1 -9.03,13.27 -10.87,29.84 -11.63,45.48 0.02,99.71 -0.11,199.43 0.06,299.14 1.8,13.43 8.46,26.11 17.1,36.4 3.88,3.99 10.11,10.77 15.69,5.56 8.47,-7.76 14.38,-19.08 14.94,-30.63 0,-102.24 0,-204.49 0,-306.72 -0.43,-13.01 -4.29,-25.56 -7.8,-38 -2.31,-7.2 -4.18,-15.08 -9.73,-20.55 -1.99,-2.48 -5.42,-1.59 -7.97,-0.78zm302.55 70.48l0 0c-10.62,11.87 -13.54,28.42 -14.73,43.78 -0.1,89.21 -0.06,178.43 -0.04,267.63 16,-1.45 32.21,-3.42 47.36,-9.08 0.13,-55.24 -0.25,-110.46 -0.51,-165.69 -0.46,-17 1.25,-34.18 -1.76,-51.03 -3.11,-18.56 -8.07,-36.79 -14.3,-54.54 -4.05,-10.92 -8.07,-22.28 -16.02,-31.07z"/>
   <path class="fil1" d="M177.03 503.77c15.41,-15.46 30.46,-31.4 47.54,-45.07 52.36,6.72 104.38,28.4 140.94,67.31 -27.81,42.5 -41.64,93.17 -44.04,143.61 -0.1,108.01 -0.04,216.02 -0.02,324.01 30.16,-15.74 60.8,-30.57 91.95,-44.24 -2.6,-14.94 -7.08,-30.18 -16.95,-42.02 -5.43,-6.72 -13.5,-10.32 -20.87,-14.42 35.57,-62.68 80.9,-119.11 127.1,-174.15 50.48,19.37 97.03,50.52 131.92,92.02 -21.2,28.39 -34.89,62.11 -39.93,97.16 -4.02,24.45 -2.77,49.29 -2.94,73.96 -0.04,24.5 0.04,49.01 -0.04,73.53 -71,27.32 -140.17,59.76 -205.5,98.84 -78.09,46.41 -150.39,102.1 -217.74,162.96 -26.51,-7.25 -47.87,-25.79 -67.73,-43.91 -12.65,-11.87 -24.37,-24.81 -34.65,-38.8 19.14,-29.35 37.58,-59.36 51.35,-91.67 10.32,-24.54 16.96,-50.88 17.04,-77.59 -0.06,-111.67 0.02,-223.33 -0.04,-334.99 -1.13,-32.68 -10.41,-67.18 -34.37,-90.66 -4.88,-5.27 -11.56,-8.36 -16.68,-13.26 25.13,-45.08 58.42,-85.1 93.66,-122.62zm919.41 -240.28c54.23,3.34 108.35,9.11 161.88,18.45 24.46,50.31 45.41,102.44 61.2,156.14 -19.51,19.39 -36.81,41.77 -45.79,68.07 -7.19,20.19 -10.09,41.72 -10.28,63.07 0.02,82.66 0,165.31 0.02,247.97 0.09,12.44 -0.93,25.1 2.5,37.24 7.17,27.53 24.56,51.07 43.57,71.69 4.98,4.92 0.62,12.29 -1.42,17.63 -11.12,22.38 -24.5,44.69 -44.48,60.27 -48.89,-10.38 -98.39,-17.82 -148.21,-21.89 -10.47,-1.23 -21.21,-0.87 -31.55,-2.76 -9.58,-8.96 -16.85,-20.07 -23.91,-31.04 -9.45,-15.39 -18.39,-31.13 -25.98,-47.51 20.43,-17.72 40.16,-40.33 43.32,-68.22 0.08,-39.92 0.44,-79.87 -0.2,-119.79 -34.94,59.61 -65.79,121.89 -106.95,177.6 -40.05,-54.01 -73.43,-112.5 -107.63,-170.25 -0.08,36.79 0.02,73.58 -0.06,110.36 -0.96,29.57 18.79,55.25 40.9,72.78 0.76,10.27 -4.75,19.24 -9.22,28.01 -9.33,17.27 -19.39,34.25 -31.19,49.97 -2.84,3.5 -5.58,8.16 -10.73,7.99 -59.18,8.12 -117.67,20.85 -174.98,37.62 -24.51,-17.85 -38.86,-45.89 -50.77,-73.05 17.06,-19.69 32.72,-41.11 42.49,-65.42 4.13,-10.62 7.44,-21.79 7.54,-33.27 -0.06,-92.76 -0.04,-185.55 -0.02,-278.31 -0.7,-32.14 -9.73,-64.76 -29.26,-90.65 -7.72,-10.6 -17.04,-19.9 -26.68,-28.72 14.85,-50.33 33.88,-99.41 56.22,-146.87 2.37,-4.27 4.17,-10.33 9.66,-11.39 51.73,-11.97 104.14,-20.99 156.82,-27.59 41.17,92.72 82.67,185.36 126.7,276.78 44.37,-93.98 85.91,-189.24 126.49,-284.91zm15.32 25.15l0 0c-45.11,106.09 -91.71,211.58 -141.58,315.52 -49.63,-101.02 -95.8,-203.67 -141.72,-306.39 -43.24,6 -86.34,13.35 -128.87,23.19 -4.05,2.82 -4.77,8.77 -7.22,12.94 -17.04,37.83 -32.09,76.57 -44.63,116.13 11.5,12.59 22.61,25.73 30.66,40.86 16.4,29.52 22.86,63.75 22.23,97.29 -0.08,89.66 0.08,179.32 -0.08,268.98 -2.36,37.81 -23.1,71.4 -46.01,100.41 7.5,15.42 16.31,30.39 28.12,42.93 53.02,-14.98 107.01,-26.62 161.6,-34.16 12.89,-16.72 22.72,-35.54 32.43,-54.23 -19.67,-19.85 -37.02,-45.09 -37.87,-73.93 0.06,-69.39 -0.04,-138.79 0.06,-208.19 26.47,47.07 53.34,93.92 81.19,140.2 16.21,26.37 32.02,53.05 49.92,78.35 29.22,-44.5 54.02,-91.63 80.51,-137.75 15.95,-28.31 33.5,-55.67 50.86,-83.13 0.48,66.97 0.08,133.97 0.21,200.94 -0.51,30.09 -18.03,56.62 -38.04,77.79 9.39,17.44 19.22,34.86 31.83,50.24 54.23,3.54 108.2,10.79 161.46,21.58 11.91,-12.57 21,-27.53 28.65,-43 -22.63,-26.51 -43.15,-57.75 -45.61,-93.47 -0.16,-90.83 0.01,-181.68 -0.08,-272.52 -0.38,-21.79 2.63,-43.66 9.11,-64.47 8.44,-27.44 24.2,-52.15 43.68,-73.05 -13.8,-43.8 -30.86,-86.54 -50.37,-128.1 -43.23,-7.03 -86.78,-11.93 -130.44,-14.96zm244.38 116.24c34.76,-39.7 77.46,-72.59 125.01,-95.58 10.72,5.43 16.7,16.36 24.39,25.11 42.51,54.72 83.58,110.73 120.54,169.41 -8.97,6.16 -18.29,12.29 -24.8,21.19 -18.01,23.27 -25.17,53.15 -26.76,82.07 -0.04,105.18 -0.11,210.39 0.04,315.58 41.83,3.08 85,-2.41 123.02,-20.81 -0.02,-75.52 -0.03,-151.05 0,-226.59 0.32,-54.36 -14.65,-109.08 -44.72,-154.59 20.9,-18.38 44.99,-32.89 70.12,-44.72 26.35,-12.29 54.4,-21.04 83.22,-25.19 34.57,36.27 66.82,74.91 94.66,116.63 12.93,19.56 24.82,39.91 34.4,61.35 -10.81,6.17 -21.15,13.56 -28.71,23.59 -15.28,19.94 -21.49,45.5 -22,70.27 0,109.24 -0.02,218.48 0,327.72 0.23,21.34 2.99,43.13 12.48,62.5 8.6,18.11 19.75,34.85 30.64,51.6 -16.31,33.59 -38.91,63.61 -61.69,93.01 -8.6,11.1 -17.63,21.84 -26.78,32.48 -18.99,-17.65 -38.06,-35.43 -59.34,-50.33 -15.04,-10.61 -31.3,-19.26 -46.94,-28.88 -12.03,-7.23 -23.6,-15.13 -35.3,-22.82 -0.09,-29.76 -0.06,-59.51 -0.02,-89.26 -78.64,6.04 -157.88,1.2 -235.63,-11.43 -4.2,-0.35 -7.46,-3.11 -10.15,-6.06 -42,-44.41 -81.59,-91.16 -117.42,-140.71 12.37,-6.1 25.45,-11.99 34.56,-22.76 15,-17.03 19.07,-40.6 19.48,-62.58 0.02,-95.93 0,-191.86 0,-287.79 -0.85,-49.02 -12.89,-98.93 -40.5,-139.97 -4.24,-8.35 3.45,-16.23 8.2,-22.44zm16.93 17.27l0 0c20.52,34.28 32.77,73.17 37.26,112.78 2.99,23.31 1.37,46.87 1.78,70.29 -0.36,81.42 0.57,162.83 0.49,244.25 -0.11,23.9 -3.39,48.63 -15.47,69.64 -6.47,11.78 -16.21,21.4 -26.92,29.33 29.74,39.33 62.01,76.69 95.7,112.67 5.87,5.45 14.86,3.94 22.21,5.78 77.24,10.71 156.01,14.5 233.57,4.88 0.02,34.43 0.06,68.85 -0.02,103.28 17.8,12.08 36.51,22.72 54.93,33.78 21.85,13.1 41.49,29.46 60.33,46.5 22.8,-28.5 45.07,-57.64 63.04,-89.49 -14.83,-23.65 -30.42,-47.9 -35.64,-75.8 -5.66,-29.99 -3.47,-60.65 -3.92,-90.96 0,-80.78 0,-161.56 0,-242.34 0.19,-22.23 -1.21,-44.72 3.52,-66.63 5.15,-26.91 19.07,-52.43 40.62,-69.66 -17.22,-32.61 -38.82,-62.66 -61.73,-91.46 -14.6,-17.99 -29.39,-35.9 -45.62,-52.45 -40.63,8.5 -79.7,25.29 -113.14,49.97 24.85,43.97 36.79,94.56 37.63,144.89 0.11,81.67 -0.14,163.34 0.11,245.01 -20.9,12.02 -43.87,20.24 -67.43,25.16 -34.16,6.87 -69.81,8.33 -104.11,1.44 0.21,-111.34 -0.03,-222.68 0.14,-334.02 1.66,-40.22 13.33,-82.69 43.45,-111.08 -35.86,-55.27 -75.66,-107.83 -116.11,-159.79 -39.76,21.07 -75.3,49.97 -104.67,84.03zm-1159.5 78.34l0 0c-37.26,35.73 -72.2,74.59 -98.65,119.1 23.46,20.21 35.13,50.62 40.43,80.42 4.41,23.08 3.05,46.66 3.23,70.03 0,93.95 -0.01,187.93 0,281.91 0.5,20.31 -1.13,40.75 -6.05,60.51 -10.76,43.46 -33.22,82.85 -57.06,120.36 19.2,22.49 41.47,43.08 67.64,57.18 64.04,-56.77 132.32,-108.95 205.71,-153.09 63.42,-38.31 130.39,-70.52 199.24,-97.78 0.02,-34.81 -0.05,-69.61 0.04,-104.41 1.61,-42.7 13.28,-85.53 36.4,-121.72 -26.86,-27.8 -59.63,-49.5 -94.78,-65.38 -36.37,43.87 -71.63,88.92 -101.78,137.39 21.65,20.13 30.09,50.88 30.47,79.63 -48.26,20.43 -95.17,43.89 -141.09,69.11 -0.07,-113.82 -0.02,-227.62 -0.03,-341.43 -1.14,-56.08 10.98,-112.96 37.96,-162.39 -27.26,-22.34 -60.33,-37.19 -94.79,-44.21 -3.03,-0.36 -6.13,-1.67 -9.16,-0.89 -6.44,4.6 -11.89,10.38 -17.73,15.66z"/>
   <path class="fil2" d="M1111.76 288.64c43.66,3.03 87.21,7.93 130.44,14.96 19.51,41.56 36.57,84.3 50.37,128.1 -19.48,20.9 -35.24,45.61 -43.68,73.05 -6.48,20.81 -9.49,42.68 -9.11,64.47 0.09,90.84 -0.08,181.69 0.08,272.52 2.46,35.72 22.98,66.96 45.61,93.47 -7.65,15.47 -16.74,30.43 -28.65,43 -53.26,-10.79 -107.23,-18.04 -161.46,-21.58 -12.61,-15.38 -22.44,-32.8 -31.83,-50.24 20.01,-21.17 37.53,-47.7 38.04,-77.79 -0.13,-66.97 0.27,-133.97 -0.21,-200.94 -17.36,27.46 -34.91,54.82 -50.86,83.13 -26.49,46.12 -51.29,93.25 -80.51,137.75 -17.9,-25.3 -33.71,-51.98 -49.92,-78.35 -27.85,-46.28 -54.72,-93.13 -81.19,-140.2 -0.1,69.4 0,138.8 -0.06,208.19 0.85,28.84 18.2,54.08 37.87,73.93 -9.71,18.69 -19.54,37.51 -32.43,54.23 -54.59,7.54 -108.58,19.18 -161.6,34.16 -11.81,-12.54 -20.62,-27.51 -28.12,-42.93 22.91,-29.01 43.65,-62.6 46.01,-100.41 0.16,-89.66 0,-179.32 0.08,-268.98 0.63,-33.54 -5.83,-67.77 -22.23,-97.29 -8.05,-15.13 -19.16,-28.27 -30.66,-40.86 12.54,-39.56 27.59,-78.3 44.63,-116.13 2.45,-4.17 3.17,-10.12 7.22,-12.94 42.53,-9.84 85.63,-17.19 128.87,-23.19 45.92,102.72 92.09,205.37 141.72,306.39 49.87,-103.94 96.47,-209.43 141.58,-315.52zm-898.19 211.85c5.84,-5.28 11.29,-11.06 17.73,-15.66 3.03,-0.78 6.13,0.53 9.16,0.89 34.46,7.02 67.53,21.87 94.79,44.21 -26.98,49.43 -39.1,106.31 -37.96,162.39 0.01,113.81 -0.04,227.61 0.03,341.43 45.92,-25.22 92.83,-48.68 141.09,-69.11 -0.38,-28.75 -8.82,-59.5 -30.47,-79.63 30.15,-48.47 65.41,-93.52 101.78,-137.39 35.15,15.88 67.92,37.58 94.78,65.38 -23.12,36.19 -34.79,79.02 -36.4,121.72 -0.09,34.8 -0.02,69.6 -0.04,104.41 -68.85,27.26 -135.82,59.47 -199.24,97.78 -73.39,44.14 -141.67,96.32 -205.71,153.09 -26.17,-14.1 -48.44,-34.69 -67.64,-57.18 23.84,-37.51 46.3,-76.9 57.06,-120.36 4.92,-19.76 6.55,-40.2 6.05,-60.51 -0.01,-93.98 0,-187.96 0,-281.91 -0.18,-23.37 1.18,-46.95 -3.23,-70.03 -5.3,-29.8 -16.97,-60.21 -40.43,-80.42 26.45,-44.51 61.39,-83.37 98.65,-119.1zm1159.5 -78.34c29.37,-34.06 64.91,-62.96 104.67,-84.03 40.45,51.96 80.25,104.52 116.11,159.79 -30.12,28.39 -41.79,70.86 -43.45,111.08 -0.17,111.34 0.07,222.68 -0.14,334.02 34.3,6.89 69.95,5.43 104.11,-1.44 23.56,-4.92 46.53,-13.14 67.43,-25.16 -0.25,-81.67 0,-163.34 -0.11,-245.01 -0.84,-50.33 -12.78,-100.92 -37.63,-144.89 33.44,-24.68 72.51,-41.47 113.14,-49.97 16.23,16.55 31.02,34.46 45.62,52.45 22.91,28.8 44.51,58.85 61.73,91.46 -21.55,17.23 -35.47,42.75 -40.62,69.66 -4.73,21.91 -3.33,44.4 -3.52,66.63 0,80.78 0,161.56 0,242.34 0.45,30.31 -1.74,60.97 3.92,90.96 5.22,27.9 20.81,52.15 35.64,75.8 -17.97,31.85 -40.24,60.99 -63.04,89.49 -18.84,-17.04 -38.48,-33.4 -60.33,-46.5 -18.42,-11.06 -37.13,-21.7 -54.93,-33.78 0.08,-34.43 0.04,-68.85 0.02,-103.28 -77.56,9.62 -156.33,5.83 -233.57,-4.88 -7.35,-1.84 -16.34,-0.33 -22.21,-5.78 -33.69,-35.98 -65.96,-73.34 -95.7,-112.67 10.71,-7.93 20.45,-17.55 26.92,-29.33 12.08,-21.01 15.36,-45.74 15.47,-69.64 0.08,-81.42 -0.85,-162.83 -0.49,-244.25 -0.41,-23.42 1.21,-46.98 -1.78,-70.29 -4.49,-39.61 -16.74,-78.5 -37.26,-112.78z"/>
  </g>
 </g>
</svg>
