<?xml version="1.0" encoding="UTF-8"?>
<!DOCTYPE svg PUBLIC "-//W3C//DTD SVG 1.1//EN" "http://www.w3.org/Graphics/SVG/1.1/DTD/svg11.dtd">
<!-- Creator: CorelDRAW -->
<svg xmlns="http://www.w3.org/2000/svg" xml:space="preserve" width="2000px" height="1600px" version="1.1" style="shape-rendering:geometricPrecision; text-rendering:geometricPrecision; image-rendering:optimizeQuality; fill-rule:evenodd; clip-rule:evenodd"
viewBox="0 0 2000 1600"
 xmlns:xlink="http://www.w3.org/1999/xlink">
 <defs>
  <style type="text/css">
   <![CDATA[
    .fil0 {fill:#5F5F61}
    .fil2 {fill:#251A06;fill-rule:nonzero}
    .fil3 {fill:#3497D2;fill-rule:nonzero}
    .fil5 {fill:#A9213B;fill-rule:nonzero}
    .fil4 {fill:#ACAEB1;fill-rule:nonzero}
    .fil1 {fill:#FBFDFB;fill-rule:nonzero}
   ]]>
  </style>
 </defs>
 <g id="Capa_x0020_1">
  <metadata id="CorelCorpID_0Corel-Layer"/>
  <g id="Maine_x0020_Black_x0020_Bears.cdr">
   <path class="fil0" d="M1123.17 1554.52c-8.61,6.29 -16.91,10.72 -28.14,9.99 -2.48,-0.16 -4.58,-0.65 -6.88,-1.6 -4.81,-1.99 -8.82,-4.52 -12.88,-7.03 -0.47,0.36 -0.89,0.69 -1.22,0.93 -7.77,5.82 -15.01,10.25 -24.96,11.3 -1.36,0.15 -2.53,0.17 -3.89,0.07 -4.59,-0.34 -9.01,-1.47 -13.24,-3.26 -5.06,-2.15 -9.32,-5.05 -13.74,-8.25 -0.4,-0.29 -0.99,-0.73 -1.64,-1.21 -0.48,0.34 -0.95,0.68 -1.39,0.98 -4.7,3.28 -9.23,6.17 -14.62,8.21 -0.68,0.25 -1.28,0.45 -1.98,0.64 -5.56,1.51 -11.4,1.4 -16.87,-0.42 -5.74,-1.9 -10.03,-5.13 -13.81,-9.18 -1.9,1.56 -3.75,3.14 -5.56,4.59 -5.65,4.56 -12.54,5.96 -19.53,4 -6.98,-1.97 -12.12,-6.77 -14.57,-13.6 -16.59,-46.35 -33.84,-92.45 -50.89,-138.63l-16.09 -15.85c-5.74,-3.28 -10.85,-7.42 -15.41,-12.26 -11.23,-11.89 -16.21,-25.12 -25.56,-37.47 -0.07,-0.1 -0.13,-0.19 -0.2,-0.28 -1.89,-1.47 -11.3,-4.73 -13.43,-5.65 -6.31,-2.72 -10.6,-7.69 -12.38,-14.33 -2.03,-7.57 -3.16,-15.29 -4.57,-22.99 -1.08,-5.86 -2.69,-15.13 -7.04,-20.38 -0.45,0.19 -0.89,0.37 -1.26,0.52 -5.35,2.15 -10.41,3.9 -16.24,4.37 -7.52,0.6 -14.27,-2.38 -18.9,-8.33 -9.41,-12.11 -16.37,-25.43 -23.5,-38.93 -12.78,-24.23 -14.38,-48.41 -20.9,-74.17 -0.2,-0.6 -0.42,-1.3 -0.67,-2.03 -2.34,1.08 -4.82,2.33 -6.65,3.01 -6.07,2.24 -12.17,1.81 -17.87,-1.27 -5.69,-3.07 -9.39,-7.94 -10.85,-14.24 -6.16,-26.76 -19.88,-52.28 -29.35,-78.05 -1.19,-3.22 -2.2,-6.49 -3.08,-9.79 -4.02,-15.12 -4.81,-34.98 -10.94,-49.05 -2.96,-1.6 -8.73,-3.52 -11.38,-4.83 -7.85,-3.89 -12.42,-11.56 -12.08,-20.32 0.29,-7.63 1.33,-15.15 2.44,-22.7 1.09,-7.41 2.44,-15.52 2.34,-23.23 -2.97,-1.38 -7.57,-2.91 -9.6,-3.77 -9.2,-3.9 -14.44,-13.18 -13.04,-23.07 4.17,-29.37 11.81,-63.99 1.78,-92.77 -1.01,-2.8 -4.19,-12.31 -6.02,-14.15 -0.09,-0.04 -0.17,-0.09 -0.27,-0.14 -23.73,-12.42 -48.84,-21.98 -72.6,-34.44 -11.84,-6.21 -29.2,-19.55 -42.39,-20.85 -0.83,-0.08 -1.53,-0.19 -2.35,-0.37 -2.52,-0.53 -5.33,-0.73 -7.9,-1.07 -14.16,-1.85 -26.3,-6.84 -33.57,-19.78 -3.47,-5.47 -6.2,-11.25 -8.98,-17.09 -2.36,-4.94 -6.5,-15.18 -12.47,-16.76 -8.16,-2.16 -14.01,-8.34 -15.72,-16.61 -1.07,-5.17 -1.74,-10.42 -2.11,-15.69 -0.61,-8.79 -0.38,-17.56 -0.06,-26.35 0.49,-13.11 1.49,-28.21 -2.63,-40.88 -0.06,-0.22 -0.13,-0.41 -0.18,-0.61 -0.58,-0.87 -1.6,-1.96 -2.22,-2.66 -5.45,-6.15 -10.07,-11.36 -12.63,-19.47 -2.53,-8 -1.97,-16.2 1.2,-23.88 12.4,-35.56 22.89,-70.52 50.24,-98.01 14.64,-14.72 25.86,-31.15 42.25,-44.55 19.28,-15.78 40.23,-17.42 63.37,-22.09 4.76,-0.95 9.53,-2.69 14.09,-4.33 15.1,-5.42 28.75,-9.9 45.09,-7.62 5.11,0.71 9.28,2.87 12.82,6.62 10.44,11.09 24.71,18.94 38.18,25.75 20.65,9.09 49.21,6.97 71.52,8.42 0.21,0.01 0.39,0.03 0.6,0.05 6.65,0.61 13.43,-0.96 18.84,-4.96 0.19,-0.14 0.35,-0.25 0.54,-0.38 19.13,-13.28 40.2,-21.93 59.94,-33.85 0.5,-0.3 0.93,-0.53 1.25,-0.67 0.05,-0.04 0.1,-0.09 0.14,-0.14 1.5,-1.52 3.2,-4.79 4.23,-6.66 7.48,-13.52 15.03,-24.2 30.94,-28.49 0.83,-0.23 1.56,-0.38 2.42,-0.51 35.8,-5.4 71.6,-10.92 107.68,-14.11 9.18,-0.81 18.49,-3.22 27.43,-5.4 20.36,-4.97 39.52,-8.99 59.49,-4.99 19.93,-0.67 39.23,2.36 59.01,3.93 0.17,0.01 0.31,0.03 0.49,0.04 53.77,5.49 107.63,10.21 161.36,16.13 7.36,0.8 13.33,4.85 16.81,11.39 1.91,3.58 4.67,6.46 8.36,8.2 0.2,0.09 0.36,0.17 0.55,0.27 4.26,2.17 8.38,4.59 12.41,7.17 12.88,8.28 26.08,19.92 40.05,26.08 6.13,2.26 11.17,5.69 15.62,9.93 10.89,-0.55 21.76,-0.42 32.64,1.11 0.38,0.05 0.71,0.1 1.09,0.18 9.4,1.8 22.81,-3.37 31.71,-6.31 1.07,-0.36 2.11,-0.85 3.09,-1.38 2.78,-1.5 5.45,-3.44 8.02,-5.26 7.44,-5.26 14.33,-9.9 23.08,-12.8 1.57,-0.52 2.96,-0.82 4.61,-0.99 16.89,-1.74 33.34,1.57 49.66,0.16 0.56,-0.05 1.04,-0.07 1.6,-0.08 22.59,-0.28 44.43,-3.81 67.18,-1.79 1.51,0.13 2.78,0.37 4.23,0.8 33.52,9.89 65.43,27.85 86.98,55.93 11.43,14.89 17.89,31.23 26.64,47.55 6.19,11.54 10.58,23.64 10.71,36.9 0.36,35.93 1,71.19 -13.35,104.96 -16.85,39.67 -25.92,79.59 -58.02,111.17 -0.12,0.12 -0.24,0.23 -0.37,0.35 -24.38,22.89 -53.22,37.76 -81.3,55.31 -0.23,0.14 -0.42,0.25 -0.65,0.38 -17.14,9.91 -32.99,22.01 -48.52,34.32 3.73,27.36 7.54,54.7 10.59,82.15 1.12,10.02 -4.53,19.22 -13.97,22.76 -1.94,0.72 -6.51,2.18 -9.46,3.53 0.48,14.45 3.86,29.28 4.6,43.84 0.48,9.49 -4.91,17.85 -13.75,21.33 -2.2,0.86 -3.84,1.96 -5.12,3.95 -3.49,5.42 -4.08,16.18 -4.34,22.45 -0.4,9.52 -0.24,19.1 -1.44,28.57 -1.13,8.99 -7.3,16.01 -16.07,18.3 -6.14,1.6 -10.14,7.09 -11.84,12.96 -0.18,0.6 -0.35,1.11 -0.58,1.7 -6.15,16.06 -8.09,34.18 -10.32,51.15 -1.12,8.52 -6.7,15.21 -14.88,17.85 -2.08,0.68 -8.85,2.54 -11.61,4 -5.01,16.3 -6.19,34.59 -9.47,51.35 -1.74,8.89 -8.36,15.47 -17.26,17.17 -1.39,0.27 -2.8,0.4 -4.18,0.53 -11.29,15.84 -18.31,35.9 -25.61,53.64 -2.33,5.67 -6.41,9.7 -12.12,11.95 -5.41,2.14 -10.85,2.11 -16.16,-0.07 -6.17,12.49 -7.15,29.66 -8.11,41.83 -0.51,6.47 -3.48,11.85 -8.69,15.73 -5.21,3.88 -11.21,5.19 -17.56,3.82 -2.53,-0.55 -5.18,-1.57 -7.71,-2.45 -1.8,2.21 -3.48,4.51 -5.08,6.87 -12.62,18.7 -20.28,39.78 -33.09,58.79 -3.25,19.67 -13.61,33.01 -22.2,51.09 -0.25,0.54 -0.49,0.99 -0.79,1.51 -14.02,24.39 -21.19,53.34 -32.3,79.25 -2.52,5.87 -6.93,9.95 -12.98,12.01 -6.04,2.06 -12.03,1.51 -17.61,-1.61 -1.48,-0.83 -2.98,-1.7 -4.5,-2.55z"/>
   <path class="fil1" d="M815.97 131.95c9.63,36.04 18.1,72.39 26.96,108.63 -23.85,0.15 -47.74,0.15 -71.59,0.04 14.11,-36.54 29.91,-72.4 44.63,-108.67zm248.73 1303.08c2.38,-8.66 8.94,-15.29 14.08,-22.39 3.41,4.3 6.86,8.63 10.27,13l1.08 1.46c4.52,14.45 0.3,29.64 -4.72,43.36 -7.13,0.08 -14.27,0.12 -21.4,0.16 0.16,-11.85 -0.84,-23.78 0.69,-35.59zm-27.14 -17.83c0.3,-0.65 0.92,-1.95 1.22,-2.6l1.19 -2.65c4.76,8.97 11.47,17.26 14,27.23 1.07,10.42 0.38,20.93 0.46,31.4 -9.59,-0.04 -19.17,0 -28.76,0 -0.04,-9.28 -0.46,-18.52 0.23,-27.76 2.45,-9.09 8.09,-16.95 11.66,-25.62zm-48.39 9.13c3.41,-4.37 6.9,-8.74 10.39,-13.07 4.22,5.29 8.43,10.62 12.54,16.02 6.94,12.58 3.1,27.57 3.99,41.3 -8.13,-0.04 -16.22,-0.04 -24.31,0 -1.04,-14.65 -9.13,-29.98 -2.61,-44.25zm-35.43 -103.72c9.12,46.09 15.91,92.64 23.96,138.92 -8.66,6.1 -19.97,4.87 -29.9,3.3 -13.12,-7.17 -12.16,-24.5 -12.35,-37.35 -1.15,-35.73 3.34,-72.08 18.29,-104.87zm170.63 -0.07c12.53,26.72 18.13,56.25 18.51,85.69 0.39,16.38 2.96,34.2 -4.75,49.35 -6.86,12.46 -23.08,7.02 -34.55,8.47 -1.68,-5.29 -2.33,-10.77 -0.92,-16.18 7.25,-42.44 14.15,-84.96 21.71,-127.33zm-238.84 -282.21c-3.61,-27.99 29.56,-52.87 54.94,-39.6 -0.38,13.95 1.35,28.33 -3.22,41.79 -3.41,11.54 -8.97,23.16 -7.24,35.5 2.45,20.48 5.75,40.88 8.28,61.39 -27.61,-25.92 -54.03,-59.12 -52.76,-99.08zm245.89 -39.07c6.06,-8.86 18.33,-6.59 27.07,-3.68 19.25,5.94 31.4,26.53 28.14,46.32 -1.15,36.5 -24.69,66.49 -49.57,91.02 -0.88,0.12 -2.61,0.39 -3.49,0.5 3.22,-18.98 5.71,-38.07 8.36,-57.13 1.99,-11.85 -3.03,-23.12 -6.41,-34.2 -4.52,-13.73 -5.25,-28.49 -4.1,-42.83zm-178.75 -8.86c9.62,-4.67 20.2,-5.67 30.75,-5.25 -1.19,16.3 4.33,34.66 -5.91,48.96 -4.29,6.64 -8.86,13.12 -13.15,19.75 -7.52,-20.4 -13.84,-41.45 -11.69,-63.46zm137.26 -8.32c10.59,-1.68 20.98,0.81 30.68,5.07 -1.04,15.83 2.99,32.78 -4.1,47.66 -2.42,5.44 -5.03,10.77 -7.48,16.21 -6.9,-10.23 -16.18,-19.74 -18.75,-32.17 -1.04,-12.23 -0.35,-24.54 -0.35,-36.77zm-39.41 -1.38l0.15 -0.15c9.97,-4.52 26.46,-1.46 27.57,11.5 3.03,17.83 -10.24,31.87 -17.25,46.86 -8.79,-17.18 -28.76,-40.45 -10.47,-58.21zm-51.34 4.15c9.77,-7.67 27.79,-5.83 31.01,7.89 3.07,17.8 -9.93,32.25 -17.33,47.13 -5.13,-7.02 -11.23,-13.46 -15.22,-21.25 -2.72,-10.04 -1.42,-20.62 -1.95,-30.9l1.61 -1.34 1.88 -1.53zm-35.78 -246.28c24.85,-7.25 48.74,-20.78 75.42,-18.83 22.17,-1.07 41.8,10.2 60.89,19.83 -2.95,4.6 -5.87,9.2 -8.78,13.8 -36.46,0.19 -72.97,0.27 -109.47,0.04 -8.82,0.23 -12.61,-9.59 -18.06,-14.84zm331.55 -73.62c6.67,-2.72 13.42,-5.33 20.09,-8.01 -4.1,26.34 -14.53,56.05 -40.68,67.75 -17.48,8.28 -37.38,2.84 -52.37,-7.98 -5.07,-4.25 -10.09,-8.55 -15.15,-12.76 4.26,-2.61 8.55,-5.22 12.92,-7.67 6.25,5.29 12.04,11.69 19.86,14.64 11.55,3.65 23.66,0.43 34.97,-2.64 -3.76,-4.26 -7.44,-8.51 -11.12,-12.77 7.52,3.11 15.03,6.25 22.59,9.36 6.29,-12.39 7.9,-26.27 8.89,-39.92zm-549.64 -8.24c5.75,2.03 11.62,3.95 17.41,5.94 1.07,0.88 3.14,2.61 4.21,3.49 0.96,11.39 -0.95,25.31 9.2,33.32 12.54,10.08 29.68,7.82 44.45,5.56 -3.46,-4.33 -6.98,-8.67 -10.47,-12.96 6.9,2.22 13.65,5.37 20.86,6.56 4.02,-2.46 7.55,-5.6 11.27,-8.44 5.14,2.65 10.04,5.64 15.03,8.55 -3.03,3.37 -6.1,6.75 -9.13,10.12 -22.58,17.14 -57.4,20.13 -80.44,2.5 -16.45,-13.19 -18.14,-35.55 -22.39,-54.64zm561.53 -264.3c2.07,-0.69 6.25,-2.11 8.36,-2.8 0.88,2.45 2.68,7.4 3.6,9.86 -4.87,-1 -8.86,-3.34 -11.96,-7.06zm-591.75 -28.87c6.06,-27.15 17.49,-52.92 27.5,-78.84 42.56,0.23 85.12,-0.03 127.72,0.16 5.06,18.4 10.12,36.84 15.1,55.33 -4.75,0.19 -9.51,0.34 -14.26,0.42 -0.38,-0.38 -1.11,-1.23 -1.5,-1.65 -3.91,-12.85 -7.05,-25.88 -10.62,-38.84 -35.66,0 -71.35,-0.04 -107.01,0.04 -5.87,16.6 -11.35,33.32 -17.95,49.65 -3.41,9.09 -7.32,19.94 -1.65,28.99 6.22,10.08 19.79,8.93 29.99,10.5 -7.36,4.6 -14.73,9.21 -22.05,13.88 -14.8,-7.63 -29.1,-21.24 -25.27,-39.64zm-328.25 123.81c34.86,-110.28 72.12,-219.79 107.51,-329.87 9.7,0 19.41,-0.04 29.14,-0.11 -2.26,78.1 -5.98,156.17 -8.74,234.24 -3.26,1.14 -6.55,2.26 -9.81,3.33 -1.46,-0.19 -4.3,-0.61 -5.75,-0.81 3.22,-74.69 7.43,-149.46 8.16,-224.22 -7.01,15.41 -11.5,31.74 -16.75,47.77 -27.42,82.9 -54.18,165.99 -81.79,248.81 -7.4,6.82 -15.34,13.19 -21.97,20.86zm881.62 -359.01c7.44,0.19 14.91,0.42 22.35,0.65 41.03,84.51 82.55,168.75 124.04,253.03 -4.6,2.03 -9.13,4.25 -13.61,6.52 -39.69,-80.29 -78.53,-161.04 -118.67,-241.14 -2.88,63 -4.83,126.03 -7.52,189.03 -0.42,12.12 -1.72,24.38 0.69,36.39 -5.48,-3.95 -10.7,-8.29 -15.56,-12.93 1.03,-77.22 5.21,-154.4 8.28,-231.55zm326.6 -83.28c129.94,0.04 259.93,0 389.87,0.04 -1.84,54.64 -2.45,109.31 -4.68,163.95 -20.05,-0.03 -40.1,0.5 -60.08,-0.84 0.81,-27.38 5.14,-60.35 -15.53,-81.94 -28.87,-22.93 -68.36,-14.11 -102.41,-16.06 -20.48,-2.38 -44.98,9.01 -47.59,31.36 -2.76,31.63 -2.56,63.5 -4.44,95.21 16.45,-1 37.8,4.9 49.34,-10.63 14.57,-19.32 14,-44.97 15.3,-68.02 18.68,0.04 37.31,0.08 55.98,-0.07 -3.06,74.15 -6.82,148.27 -9.58,222.42 -20.29,0.27 -40.57,0.12 -60.85,0.16 -1.27,-22.74 0.57,-48.01 -12.85,-67.68 -9.05,-13.11 -26.45,-9.54 -40.03,-10.16 -2.03,48.24 -2.72,96.59 -5.44,144.78 7.55,10.59 20.17,17.76 33.32,17.34 20.2,0 40.49,0.57 60.66,-0.62 20.82,-1.68 44.4,-7.32 56.28,-26.26 17.18,-27.07 21.9,-59.74 25.35,-91.03 21.16,0.08 42.33,0 63.49,0.04 -2.45,61.35 -4.63,122.73 -6.71,184.12 -98.65,-0.07 -197.31,-0.07 -296,0 0.15,-5.14 0.19,-10.27 0.19,-15.41 93.75,0.04 187.46,0 281.21,0.04 1.95,-51.15 4.06,-102.26 5.44,-153.41 -11.31,-0.16 -22.58,-0.23 -33.86,-0.27 -6.02,33.86 -11.84,71.39 -37.5,96.62 -23.84,21.13 -57.89,21.13 -87.92,21.51 -20.51,-0.53 -43.55,2.99 -61.27,-9.77 -8.78,-6.18 -18.67,-14.65 -17.87,-26.5 3.61,-52.03 3.99,-104.29 5.95,-156.44 20.51,0.88 44.86,-4.37 61.54,10.85 18.06,17.1 18.75,43.83 20.86,66.95 10.5,-0.04 21.05,-0.11 31.59,-0.19 2.49,-63.84 5.79,-127.65 8.25,-191.52 -8.56,-0.12 -17.03,-0.2 -25.54,-0.27 -2.76,25.03 -5.91,54.25 -27.57,70.66 -19.59,13.27 -44.79,6.52 -66.91,7.86 1.23,-36.38 2.07,-72.81 4.3,-109.12 1.38,-23.5 21.31,-43.56 44.47,-46.32 22.59,-1.57 45.29,-0.19 67.95,-0.65 24.23,-0.5 50.49,5.41 67.52,23.81 16.79,20.67 16.75,48.93 17.37,74.19 9.7,-0.07 19.4,-0.11 29.14,-0.19 1.34,-44.74 2.84,-89.49 3.41,-134.27 -119.63,-0.08 -239.26,-0.27 -358.89,0.07 0,10.32 0.04,20.59 0.08,30.91 13.34,3.14 28.8,4.98 37.84,16.56 13.58,15.68 11.08,37.84 10.85,57.05 -3.06,86.66 -6.94,173.28 -9.77,259.89 -4.6,-4.25 -9.4,-8.32 -14.19,-12.27 2.11,-88.95 7.02,-177.87 9.51,-266.83 -0.15,-10.96 -1.84,-23.46 -10.58,-31.13 -11.35,-7.82 -25.89,-7.09 -38.96,-9.36 -0.08,-19.7 -0.08,-39.45 -0.04,-59.16zm-433.31 -0.92c60.27,0 120.55,0 180.82,-0.04 35.24,74.96 71.44,149.46 106.25,224.58 1.84,-45.13 3.26,-90.3 4.53,-135.43 -0.23,-10.35 1.19,-23.24 -8.17,-30.29 -9.7,-6.83 -22.2,-6.52 -33.4,-8.7 0.19,-16.38 0.12,-32.79 0.12,-49.16 54.87,0.19 109.74,-0.54 164.57,0.38 3.52,20.25 2.83,40.91 0.69,61.24 -10.78,0.76 -22.67,0.53 -31.48,7.82 -10.78,7.51 -15.23,20.86 -15.23,33.51 -2.79,74.62 -5.25,149.23 -8.28,223.85 -3.6,0.03 -10.89,0.15 -14.49,0.23 1.8,-73.31 5.33,-146.55 7.55,-219.82 0.08,-15.15 2.95,-31.21 13.77,-42.6 8.43,-10.47 21.85,-14.15 34.2,-17.99 0.23,-10.69 0.38,-21.43 0.61,-32.13 -45.55,-0.65 -91.14,-0.46 -136.69,-0.11 0.08,6.98 0.19,13.96 0.35,20.93 17.86,3.49 38.19,13.19 39.99,33.75 1.88,34.47 -1.15,69.09 -1.84,103.6 -0.89,17.98 -0.04,36.08 -2.27,53.98 -0.69,10.82 -11.11,16.61 -18.06,23.36 -37.53,-78.53 -74.57,-157.29 -112.15,-235.77 -52.37,-0.12 -104.79,-0.27 -157.17,0.07 0.16,7.25 0.35,14.53 0.58,21.78 11.73,4.79 24.69,9.51 32.05,20.63 8.59,11 10.24,25.42 9.82,38.96 -2.22,66.25 -3.76,132.55 -7.25,198.76 -5.02,-0.95 -10.04,-1.76 -15.1,-2.49 3.83,-62.8 5.02,-125.72 7.09,-188.61 0.11,-12.96 1.88,-27.64 -7.02,-38.38 -7.63,-11.23 -21.81,-13.42 -34.35,-13.92 -0.04,-17.33 0,-34.66 -0.04,-51.99zm-192.9 50c-1.84,-16.53 -0.39,-33.36 -0.65,-50 58.16,0 116.29,-0.04 174.45,0 -1.11,16.6 -1.15,33.24 -0.76,49.85 -12.92,2.11 -27.53,2.87 -37.42,12.57 -7.29,6.79 -6.83,17.45 -7.52,26.54 -1.96,58.58 -4.68,117.13 -6.56,175.72 -0.42,6.25 -0.99,12.5 -1.45,18.75 -3.57,-0.3 -10.7,-0.92 -14.23,-1.23 2.99,-69.28 4.45,-138.68 8.48,-207.89 1.6,-22.2 23.69,-33.17 42.82,-37.61 0.46,-7.1 0.92,-14.19 1.38,-21.29 -47.77,-0.65 -95.59,-0.19 -143.4,-0.3 -0.34,6.4 -0.65,12.77 -0.92,19.17 12.62,3.64 27.11,6.67 34.86,18.4 6.59,8.06 6.71,18.87 6.55,28.72 -2.41,66.22 -4.83,132.4 -7.44,198.58 -4.98,-0.04 -9.97,0.04 -14.91,0.15 2.34,-66.21 5.21,-132.39 7.32,-198.61 -0.11,-7.63 0.73,-16.57 -5.4,-22.32 -8.98,-9.85 -23.36,-7.4 -35.2,-9.2zm-936.37 -48.93c79.44,-0.22 158.89,-0.26 238.33,0 24.24,101.38 49.31,202.57 73.93,303.87 30.06,-92.14 60.01,-184.35 89.95,-276.53 3.03,-9.08 5.18,-18.56 9.74,-27.07 78.03,-0.99 156.17,-0.07 234.24,-0.42 0.04,19.13 0.04,38.23 0,57.36 -18.18,3.26 -38.5,6.83 -51.23,21.55 -7.9,8.71 -7.51,21.13 -8.13,32.09 -2.57,77.19 -6.48,154.33 -8.43,231.56 20.13,-13.73 27.95,-37.62 37.15,-58.9 38.31,-95.05 79.64,-188.84 116.53,-284.46 36.77,-0.27 73.58,-0.04 110.38,-0.16 8.86,22.55 15.8,45.75 23.01,68.87 22.12,72.66 45.02,145.09 69.48,217.02 -4.99,1.19 -9.97,2.41 -14.96,3.6 -30.32,-90.91 -58.01,-182.66 -87.3,-273.92 -30.22,-0.81 -60.43,-0.46 -90.61,-0.27 -35.39,91.79 -75.3,181.71 -111.92,273.04 -10.62,25.77 -21.24,54.64 -47.39,68.6 -6.52,-4.11 -12.92,-8.32 -19.56,-12.2 2.34,-77.45 5.99,-154.82 8.63,-232.28 0.65,-14.11 0.92,-29.6 10.51,-40.99 11.69,-15.22 30.82,-21.08 48.5,-26.11 0,-10.01 0,-20.01 0.04,-29.98 -69.44,-0.62 -138.84,0.07 -208.28,-0.39 -35.51,107.17 -70.13,214.69 -104.87,322.08 -4.25,0.12 -8.47,0.2 -12.73,0.31 -27.03,-107.28 -52.03,-215.06 -79.17,-322.27 -69.79,0.57 -139.65,-0.96 -209.36,0.69 -1.53,9.78 -1.3,19.71 -1.42,29.6 19.75,4.87 42.1,14.88 47.7,36.43 3.34,25.23 0.54,50.84 1.38,76.22 1.38,74.43 -5.44,148.62 -9.39,222.89 -0.61,12.96 -2.76,26.65 -11.31,36.92 -10.05,13.88 -26.57,20.33 -42.18,25.73 -0.11,9.66 -0.15,19.33 -0.23,28.99 60.93,0.04 121.82,-0.04 182.74,0.04 0.12,-9.67 0.16,-19.33 0.12,-28.95 -14.19,-2.88 -29.99,-5.26 -40.11,-16.68 -15.37,-14.99 -14.57,-38.04 -14.22,-57.86 3.49,-86.92 6.71,-173.88 10.5,-260.81 10.09,0 20.13,0 30.22,0 29.71,121.43 59.12,242.94 89.14,364.3 27.88,-0.04 55.75,0 83.63,-0.04 2.65,-5.94 5.25,-11.85 7.78,-17.83 -2.87,11.54 -8.82,21.89 -14.18,32.4 -29.76,-0.23 -59.47,-0.08 -89.23,-0.12 -28.49,-115.98 -56.82,-231.97 -85.08,-348 -1.53,-6.17 -3.49,-12.23 -5.6,-18.25 -1.46,5.99 -2.72,12.04 -3.1,18.25 -3,74.16 -5.83,148.31 -8.98,222.47 -0.5,16.91 -2.79,35.47 6.14,50.69 9.74,15.91 30.33,14.49 46.2,18.9 1.92,18.21 3.72,37.16 -1.15,55.1 -70.24,1.92 -140.68,0.42 -211,0.69 1.23,-18.56 1.15,-37.19 0.46,-55.79 22.12,-3.07 49.85,-13.07 53.26,-38.53 6.33,-88.11 12.12,-176.42 11.35,-264.84 -0.62,-15.1 2.11,-30.86 -2.84,-45.43 -8.4,-17.45 -29.45,-21.71 -47.05,-21.48 0.08,-19.89 0.08,-39.79 -0.03,-59.7zm760.72 179.22l0 0c10.39,-0.08 20.74,-0.12 31.13,-0.08 -3.91,-15.45 -7.59,-30.98 -11.77,-46.35 -6.86,15.29 -13.11,30.86 -19.36,46.43z"/>
   <path class="fil2" d="M987.9 670.75c20.06,-7.83 41.91,-4.57 62.89,-5.18 15.75,-0.88 30.17,6.1 44.67,11.16 4.67,7.02 9.39,13.99 14.07,21.01 -13.58,-3.07 -27.15,-6.21 -40.57,-9.74 15.3,10.01 32.25,18.06 44.52,32.06 -23.78,3.06 -44.52,-16.49 -67.95,-9.67 14.53,5.68 30.25,8.13 44.4,14.8 10.32,4.87 17.26,17.07 29.64,16.68 25.77,0.65 51.57,-0.61 77.38,0.42 -6.9,13.12 -14.76,29.8 -31.67,31.14 -18.18,-0.42 -37.69,-9.2 -54.83,0.8 -19.52,9.24 -20.59,34.17 -18.79,52.88 -16.6,14.84 -34.01,28.76 -49.73,44.55 0,14.23 0,28.45 0.04,42.68 27.07,-0.12 55.06,0.65 80.29,11.66 39.8,16.94 69.4,49.76 99.34,79.75 -2.22,-17.64 0.5,-37.81 -10.73,-52.88 -9.97,-10.66 -22.74,-18.32 -31.98,-29.75 14.57,6.86 28.18,15.45 42.56,22.7 -9.63,-18.64 -25.35,-32.59 -40.22,-46.86 16.98,1.27 31.63,9.93 45.28,19.37 -12.38,-23.43 -34.78,-37.96 -56.71,-51.34 17.91,0.46 34.86,6.36 51.57,12.23 -14.91,-15.19 -34.35,-24.12 -53.22,-33.21 19.17,-8.66 39.8,-3.64 58.32,4.03 20.9,10.77 41.87,30.17 40.84,55.63 0.04,43.68 0.07,87.35 -0.35,131.02 15.65,0.54 31.29,0.38 46.97,0.23 -8.51,13.34 -23.31,19.21 -36.23,27.07 -17.83,11.73 -18.02,35.2 -23.85,53.6 -10.09,32.02 -20.28,64.04 -28.49,96.63 -9.43,37.69 -25.38,73.62 -31.13,112.19 -4.11,31.21 -42.6,44.06 -43.79,76.38 8.47,-9.13 16.33,-18.79 23.81,-28.76 -1.42,12.62 -3.03,25.19 -5.22,37.69 8.13,-11.15 16.07,-22.47 24.31,-33.55l0.35 7.94c-0.31,6.86 -0.65,13.73 -1.04,20.63 -1.45,18.44 -13.22,33.62 -20.93,49.84 -14.73,25.62 -21.86,54.53 -33.44,81.52 -4.86,-2.72 -9.62,-5.56 -14.76,-7.71 -10.27,0.81 -16.52,13.12 -27.07,12.43 -6.86,-2.84 -12.69,-7.56 -19.28,-10.89 -11.89,0.07 -18.79,13.34 -30.37,14.57 -11.97,-0.88 -19.06,-13.27 -30.64,-14.92 -8.82,2 -14.95,9.59 -23.27,12.73 -11.85,3.22 -14.69,-21.55 -26.5,-14.22 -6.4,3.68 -11.96,8.66 -17.67,13.26 -17.33,-48.42 -35.39,-96.58 -53.19,-144.86 -2.56,-7.24 -4.56,-14.68 -6.25,-22.16 10.09,6.79 17.22,16.64 24.51,26.15 5.13,-19.67 -11.2,-32.82 -23.51,-44.9 -17.02,-15.87 -15.72,-40.76 -22.51,-61.38 -18.17,-56.91 -33.01,-114.84 -50.84,-171.86 -5.02,-14.99 -4.48,-31.63 -11.92,-45.78 -10.78,-19.71 -39.38,-18.71 -48.66,-39.84 15.34,-0.11 30.71,0.46 46.01,-0.8 -0.38,-42.79 0.08,-85.55 -0.3,-128.3 0.38,-7.36 -0.73,-15.64 4.21,-21.81 14.42,-19.87 29.18,-40.46 50.04,-54.11l-3.03 6.14 -2.49 2.91c7.71,-2.03 15.41,-5.1 23.54,-5.02 7.55,1.49 13.61,6.71 20.21,10.43 -19.94,9.09 -39.61,19.36 -55.33,34.97 17.14,-8.71 35.47,-15.91 55.14,-14.84 -22.17,13.3 -45.02,27.61 -57.48,51.22 13.92,-9.47 28.49,-18.94 45.9,-20.01 -15.38,15.61 -31.25,31.02 -42.6,49.96 14.91,-8.13 28.99,-17.71 44.21,-25.27 -9.32,16.03 -28.8,22.51 -37.43,38.92 -5.56,13.96 -4.14,29.49 -5.56,44.21 30.37,-29.87 59.93,-63.23 100.19,-79.83 24.93,-10.74 52.53,-11.62 79.26,-11.08 -0.42,-14.65 1.76,-29.68 -1.69,-44.06 -12.42,-18.55 -32.32,-30.48 -46.01,-48.08 4.14,-17.9 0.81,-40.22 -16.87,-49.65 -15.68,-10.7 -34.24,-2.07 -51.11,-0.73 -17.91,-0.65 -26.88,-18.14 -34.55,-31.75 25.92,-0.65 51.84,0.42 77.76,-0.54 -14.49,-14.3 -29.87,-27.6 -44.55,-41.67 28.03,-9.78 56.09,-19.37 84.08,-29.18zm-19.48 456.97c20.1,4.71 39.69,11.15 59.47,16.94 6.79,2.11 14.08,3.15 21.05,1.15 21.94,-5.75 43.52,-12.76 65.46,-18.55 -10.51,11.38 -23.01,20.51 -35.89,28.91 -6.68,3.41 -7.98,11.27 -8.59,18.02 -2.8,41.87 -9.59,84.39 -27.72,122.62 -13.92,-11.01 -15.92,-29.33 -18.29,-45.67 -3.07,-24.42 -10.66,-48.16 -11.66,-72.89 -1.11,-7.55 -0.23,-17.52 -7.59,-22.2 -12.65,-8.7 -25.61,-17.1 -36.24,-28.33zm401.07 -512.72c16.34,-2.46 32.78,-3.68 49.27,-4.45 -4.64,3.45 -9.2,6.9 -13.84,10.31 -30.64,10.97 -59.7,25.81 -89.88,38.08 -6.67,2.68 -13.42,5.29 -20.09,8.01 -24.96,10.7 -50.38,20.25 -75.19,31.33 -4.37,2.45 -8.66,5.06 -12.92,7.67 5.06,4.21 10.08,8.51 15.15,12.76 -12.08,-3.37 -23.82,-7.86 -34.93,-13.68 9.51,-11.12 21.31,-19.87 33.47,-27.92 17.33,-11.73 29.37,-30.14 48.27,-39.72 17.76,-9.01 38.19,-7.59 57.36,-10.97 14.84,-2.07 28.99,-7.32 43.33,-11.42zm-179.71 -165.42c19.94,15.3 28.56,39.65 44.82,58.06 14.57,16.64 37.65,20.01 55.33,32.13 15.72,10.73 32.13,20.47 49.5,28.33 -21.24,5.6 -42.87,9.59 -64.53,13.19 -12.81,2.07 -26.27,0.5 -38.61,4.99 -14.3,6.44 -22.01,20.89 -33.02,31.28 -9.96,9.51 -20.12,18.87 -28.79,29.64 -5.41,-3.33 -10.81,-6.63 -16.26,-9.85 13,-13.92 22.78,-30.41 35.47,-44.55 9.55,-9.67 6.9,-24.16 5.56,-36.24 -2.11,-12.69 1.07,-25.34 0.5,-38 -2.38,-17.56 -12.81,-32.63 -16.99,-49.65 1.42,-6.71 4.53,-12.96 7.02,-19.33zm-437.76 -147.42c35.66,-0.08 71.35,-0.04 107.01,-0.04 3.57,12.96 6.71,25.99 10.62,38.84 -4.83,1.61 -9.66,3.18 -14.49,4.72 -2.65,-9.78 -5.18,-19.56 -7.82,-29.3 -28.26,0.04 -56.52,0 -84.78,0 -4.37,13.84 -9.32,27.49 -14.61,40.99 -1.57,5.29 -5.33,11.43 -1.22,16.56 12.69,2.92 25.84,2.8 38.8,3.45 -7.82,4.49 -15.41,9.32 -23.12,13.92 -10.2,-1.57 -23.77,-0.42 -29.99,-10.5 -5.67,-9.05 -1.76,-19.9 1.65,-28.99 6.6,-16.33 12.08,-33.05 17.95,-49.65zm41.18 -75.73c6.25,-15.57 12.5,-31.14 19.36,-46.43 4.18,15.37 7.86,30.9 11.77,46.35 -10.39,-0.04 -20.74,0 -31.13,0.08zm-302.6 -6.75c5.25,-16.03 9.74,-32.36 16.75,-47.77 -0.73,74.76 -4.94,149.53 -8.16,224.22 1.45,0.2 4.29,0.62 5.75,0.81 -0.54,0.84 -1.61,2.45 -2.15,3.3 -6.94,1.23 -13.84,2.49 -20.67,4.21 1.27,-43.63 4.72,-87.23 4.41,-130.9 -18.33,55.33 -35.89,110.89 -54.67,166.03 -6.41,10.58 -13.62,20.78 -23.05,28.91 27.61,-82.82 54.37,-165.91 81.79,-248.81zm791.97 -70.28c40.14,80.1 78.98,160.85 118.67,241.14 -4.37,2.22 -8.71,4.44 -13.04,6.55 -30.75,-62.92 -61.46,-125.84 -92.67,-188.49 -1.69,53.83 -4.95,107.63 -5.45,161.5 12.08,6.44 25.88,6.98 39.27,7.32 1.76,9.67 2.87,19.44 3.56,29.26 -4.75,-1.73 -9.43,-3.45 -14.11,-5.21 -0.92,-2.46 -2.72,-7.41 -3.6,-9.86 -13.69,-4.22 -27.65,-8.44 -39.46,-16.79 -2.41,-12.01 -1.11,-24.27 -0.69,-36.39 2.69,-63 4.64,-126.03 7.52,-189.03zm-329.75 -117.64l399.42 0c28.91,58.63 56.32,118.02 84.5,177.03 -0.42,-30.63 4.22,-61.54 0.5,-91.94 -12.54,-5.14 -26.38,-5.03 -39.61,-6.94 -0.03,-26.04 0,-52.07 -0.03,-78.15l602.4 0c-1.11,64.53 -3.37,129.03 -4.79,193.56 -30.48,-0.04 -61.01,0.34 -91.49,-0.31 2.03,-25.5 6.29,-52.38 -3.14,-76.99 -4.03,-10.81 -15.95,-15.49 -26.23,-18.21 -21.28,-3.95 -43.02,-1.58 -64.49,-2.31 -11.01,0.54 -23.7,-2.07 -32.9,5.49 -5.48,4.1 -7.94,10.89 -8.13,17.52 -1.23,24.96 -1.92,49.96 -3.18,74.96 8.7,-1.23 19.82,-0.84 24.35,-10.12 11.65,-21.05 8.78,-46.28 9.28,-69.48 29.1,-0.04 58.24,0 87.34,0 -3.95,83.66 -7.78,167.33 -11,251.03 -30.26,0.04 -60.47,0 -90.72,0 -0.42,-23.08 2.26,-47.47 -6.94,-69.28 -2.19,-6.71 -10.12,-6.71 -15.61,-8.98 -2.64,39.96 -1.95,80.1 -4.91,120.05 -1.53,11.32 13.19,13.46 21.51,13 27.19,-1.03 55.3,3.26 81.64,-5.29 11.88,-3.49 20.13,-13.61 25,-24.54 12.46,-27.3 16.25,-57.51 17.67,-87.19 31.17,0.04 62.35,0 93.52,0 -3.03,71.24 -5.37,142.52 -7.94,213.8 -103.64,-0.08 -207.24,-0.04 -310.88,-0.04 0.15,-5.1 0.34,-10.2 0.5,-15.26 98.69,-0.07 197.35,-0.07 296,0 2.08,-61.39 4.26,-122.77 6.71,-184.12 -21.16,-0.04 -42.33,0.04 -63.49,-0.04 -3.45,31.29 -8.17,63.96 -25.35,91.03 -11.88,18.94 -35.46,24.58 -56.28,26.26 -20.17,1.19 -40.46,0.62 -60.66,0.62 -13.15,0.42 -25.77,-6.75 -33.32,-17.34 2.72,-48.19 3.41,-96.54 5.44,-144.78 13.58,0.62 30.98,-2.95 40.03,10.16 13.42,19.67 11.58,44.94 12.85,67.68 20.28,-0.04 40.56,0.11 60.85,-0.16 2.76,-74.15 6.52,-148.27 9.58,-222.42 -18.67,0.15 -37.3,0.11 -55.98,0.07 -1.3,23.05 -0.73,48.7 -15.3,68.02 -11.54,15.53 -32.89,9.63 -49.34,10.63 1.88,-31.71 1.68,-63.58 4.44,-95.21 2.61,-22.35 27.11,-33.74 47.59,-31.36 34.05,1.95 73.54,-6.87 102.41,16.06 20.67,21.59 16.34,54.56 15.53,81.94 19.98,1.34 40.03,0.81 60.08,0.84 2.23,-54.64 2.84,-109.31 4.68,-163.95 -129.94,-0.04 -259.93,0 -389.87,-0.04 -0.04,19.71 -0.04,39.46 0.04,59.16 13.07,2.27 27.61,1.54 38.96,9.36 8.74,7.67 10.43,20.17 10.58,31.13 -2.49,88.96 -7.4,177.88 -9.51,266.83 -4.95,-2.76 -10.12,-5.14 -15.22,-7.44 3.3,-85.23 6.75,-170.43 9.74,-255.67 -0.31,-8.12 1.03,-18.63 -6.64,-23.96 -18.71,-6.75 -39.14,-4.49 -58.58,-2.99 -12.81,1.34 -17.99,15.45 -17.6,26.69 -2.8,74.53 -6.21,149.03 -8.59,223.57 -5.37,0 -10.74,0.08 -16.07,0.16 3.03,-74.62 5.49,-149.23 8.28,-223.85 0,-12.65 4.45,-26 15.23,-33.51 8.81,-7.29 20.7,-7.06 31.48,-7.82 2.14,-20.33 2.83,-40.99 -0.69,-61.24 -54.83,-0.92 -109.7,-0.19 -164.57,-0.38 0,16.37 0.07,32.78 -0.12,49.16 11.2,2.18 23.7,1.87 33.4,8.7 9.36,7.05 7.94,19.94 8.17,30.29 -1.27,45.13 -2.69,90.3 -4.53,135.43 -34.81,-75.12 -71.01,-149.62 -106.25,-224.58 -60.27,0.04 -120.55,0.04 -180.82,0.04 0.04,17.33 0,34.66 0.04,51.99 12.54,0.5 26.72,2.69 34.35,13.92 8.9,10.74 7.13,25.42 7.02,38.38 -2.07,62.89 -3.26,125.81 -7.09,188.61 -2.99,-0.38 -8.97,-1.19 -11.97,-1.57 -0.61,-5.22 -1.15,-10.43 -1.61,-15.68 3.34,-58.32 4.26,-116.72 6.29,-175.11 -0.04,-10.39 1.46,-23.51 -8.74,-29.95 -9.17,-5.02 -20.32,-3.11 -30.33,-4.45 -12.42,-0.34 -27.65,-1.42 -36.77,8.59 -1.77,5.91 -1.92,12.08 -2.11,18.18 -1.92,64.64 -5.48,129.25 -6.82,193.93 -3.11,-0.49 -9.28,-1.45 -12.39,-1.95 -0.5,-6.75 -1,-13.5 -1.23,-20.21 1.88,-58.59 4.6,-117.14 6.56,-175.72 0.69,-9.09 0.23,-19.75 7.52,-26.54 9.89,-9.7 24.5,-10.46 37.42,-12.57 -0.39,-16.61 -0.35,-33.25 0.76,-49.85 -58.16,-0.04 -116.29,0 -174.45,0 0.26,16.64 -1.19,33.47 0.65,50 11.84,1.8 26.22,-0.65 35.2,9.2 6.13,5.75 5.29,14.69 5.4,22.32 -2.11,66.22 -4.98,132.4 -7.32,198.61 -3.57,0.12 -10.66,0.35 -14.23,0.46 -0.38,-6.63 -0.8,-13.22 -0.92,-19.86 2,-63.49 5.6,-126.99 6.48,-190.49 -11.42,-8.74 -27.3,-3.87 -40.64,-5.13 0,-26.5 0.04,-52.99 0,-79.49zm-937.48 0l264.52 0c22.09,88.08 43.25,176.42 64.8,264.64 29.07,-88.11 57.17,-176.56 86.39,-264.64l261 0c0,28.65 0.04,57.33 0,85.97 -18.29,2.83 -38.61,3.33 -53.41,15.87 -7.1,6.25 -5.6,16.53 -6.44,24.96 -2.19,62.65 -4.99,125.27 -7.14,187.92 42.91,-104.98 88.23,-208.93 129.14,-314.72l130.45 0c8.78,18.41 14.45,38.08 20.89,57.4 24.62,79.95 49.54,159.82 76.31,239.07 -4.8,1.38 -9.63,2.53 -14.42,3.76 -24.46,-71.93 -47.36,-144.36 -69.48,-217.02 -7.21,-23.12 -14.15,-46.32 -23.01,-68.87 -36.8,0.12 -73.61,-0.11 -110.38,0.16 -36.89,95.62 -78.22,189.41 -116.53,284.46 -9.2,21.28 -17.02,45.17 -37.15,58.9 1.95,-77.23 5.86,-154.37 8.43,-231.56 0.62,-10.96 0.23,-23.38 8.13,-32.09 12.73,-14.72 33.05,-18.29 51.23,-21.55 0.04,-19.13 0.04,-38.23 0,-57.36 -78.07,0.35 -156.21,-0.57 -234.24,0.42 -4.56,8.51 -6.71,17.99 -9.74,27.07 -29.94,92.18 -59.89,184.39 -89.95,276.53 -24.62,-101.3 -49.69,-202.49 -73.93,-303.87 -79.44,-0.26 -158.89,-0.22 -238.33,0 0.11,19.91 0.11,39.81 0.03,59.7 17.6,-0.23 38.65,4.03 47.05,21.48 4.95,14.57 2.22,30.33 2.84,45.43 0.77,88.42 -5.02,176.73 -11.35,264.84 -3.41,25.46 -31.14,35.46 -53.26,38.53 0.69,18.6 0.77,37.23 -0.46,55.79 70.32,-0.27 140.76,1.23 211,-0.69 4.87,-17.94 3.07,-36.89 1.15,-55.1 -15.87,-4.41 -36.46,-2.99 -46.2,-18.9 -8.93,-15.22 -6.64,-33.78 -6.14,-50.69 3.15,-74.16 5.98,-148.31 8.98,-222.47 0.38,-6.21 1.64,-12.26 3.1,-18.25 2.11,6.02 4.07,12.08 5.6,18.25 28.26,116.03 56.59,232.02 85.08,348 29.76,0.04 59.47,-0.11 89.23,0.12 -2.15,4.94 -4.14,10.01 -5.83,15.14 -32.48,0.04 -64.92,0 -97.39,0.04 -22.59,-96.01 -47.66,-191.4 -69.36,-287.57 -3.07,48.85 -4.11,97.81 -6.45,146.74 0.46,14.99 -3.91,32.9 6.18,45.51 11.38,7.59 26.3,5.6 38.65,10.78 11.23,12.92 9.47,31.29 9.54,47.16 0.27,13.19 -3.72,25.8 -9.62,37.42 -78.3,-0.69 -156.63,1.19 -234.85,-1l0 -13.45c4.41,-21.32 4.52,-43.37 0,-64.69l0 -5.41c19.29,-3.14 48.66,-3.79 54.02,-27.49 7.25,-100.11 14.15,-200.72 10.17,-301.1 -9.36,-17.03 -32.48,-12.96 -48.85,-13.61 0.04,-29.99 0.04,-59.97 0,-89.96zm912.75 317.75c29.87,-2.42 59.93,-19.21 89.76,-8.17 52.8,24.7 108.51,42.41 161.73,66.07 -54.6,13.42 -109.7,24.84 -164.61,37.07 37.35,9.97 74.77,20.21 111.08,33.63 -36.62,14.07 -73.31,27.99 -109.89,42.18 42.75,-0.96 85.51,-2.88 128.26,-1.73 -45.78,19.25 -96.36,24.04 -141.53,45.1 44.94,17.67 90.65,33.24 135.16,51.95 -6.59,9.51 -13.15,19.06 -19.74,28.56 -68.41,-34 -150.27,-18.94 -215.45,15.3 -16.07,-15.22 -34.39,-27.64 -51.53,-41.52 -10.89,-8.63 -18.79,-20.4 -29.8,-28.84 -22.2,-4.94 -45.13,-2.1 -67.52,-0.03 -18.94,0.57 -38.3,3.03 -57.01,-0.77 -10.74,-6.63 -16.91,-18.83 -28.19,-24.88 -7.13,-5.3 -18.71,-7.98 -20.13,-18.18 3.68,-12.12 9.7,-23.35 14.15,-35.2 6.06,-17.87 29.18,-13.3 43.87,-16.18 -3.8,-7.36 -6.02,-16.03 -12.58,-21.47 -15.64,-1.92 -34.97,-1.42 -44.86,13 -13.15,18.75 -16.99,41.98 -24.69,63.19 21.08,19.93 39.72,42.37 61.42,61.69 1.8,0.38 5.45,1.07 7.25,1.46 19.32,4.48 38.07,11.5 57.93,13.68 15.42,2.57 32.17,0.62 46.24,8.59 31.1,16.22 53,44.52 80.76,65.26 -10.59,6.37 -21.36,12.66 -33.29,16.15l3.26 -4.57c3.03,-3.37 6.1,-6.75 9.13,-10.12 -4.99,-2.91 -9.89,-5.9 -15.03,-8.55 -26.23,-10.01 -52.95,-18.56 -79.52,-27.53 -5.79,-1.99 -11.66,-3.91 -17.41,-5.94 -20.82,-7.59 -40.88,-17.22 -60.16,-28.11 -7.78,10.12 -13.31,21.59 -18.37,33.25 -4.37,10.35 -12.54,18.51 -17.02,28.79 -3.45,43.14 21.35,92.37 65.99,102.72 0.3,-7.97 4.14,-17.41 -1.96,-24.16 -11.69,-11.77 -31.59,-13.15 -40.38,-28.29 -7.24,-14.38 -7.32,-31.48 -4.94,-47.01 5.67,-12.38 12.73,-24.12 18.29,-36.54 14.19,-0.96 27.53,8.28 40.22,13.96 3.57,25.92 7.36,52.22 10.39,78.44 7.17,8.71 19.4,6.91 29.37,7.83 17.26,0.23 32.82,9.58 50.08,9.93 14.49,-0.85 27.18,-11.97 42.14,-8.97 9.43,2.41 13.15,12.5 18.29,19.67 -22.55,17.59 -45.82,35.08 -62.08,59.08 -12.96,19.83 -34.93,36.96 -33.82,62.92 -0.15,41.41 0.23,82.82 -0.19,124.23 -16.76,0.58 -33.48,2.42 -49.96,5.49 8.28,28.75 48.85,26.53 57.05,55.09 8.17,39.73 24.27,77.19 34.13,116.45 13.45,49.08 21.74,99.92 42.25,146.82 4.1,9.05 7.55,18.44 9.66,28.22 -18.52,-9.13 -24.96,-29.72 -36.65,-45.17 -5.26,-7.36 -14.53,-9.39 -22.36,-12.77 -5.21,-19.44 -4.22,-44.55 -22.12,-57.51 -9.62,-8.09 -19.67,2.18 -29.72,2.99 -8.55,-11.01 -14.87,-23.54 -21.43,-35.74 -11.39,-21.82 -13.23,-46.62 -19.25,-70.09 -2.3,-6.78 -4.79,-15.03 -12.08,-17.98 -8.12,-4.18 -16.18,1.88 -23.65,4.64 -6.48,-28.15 -20.36,-53.68 -30.14,-80.67 -7.52,-20.06 -6.17,-42.53 -15.38,-61.97 -3.68,-8.32 -13.42,-10.04 -20.78,-13.69 0.69,-17.98 6.29,-35.77 4.41,-53.79 -2.34,-10.51 -13.96,-13.15 -22.47,-16.76 4.83,-34.04 12.5,-69.55 0.73,-103.14 -3.6,-9.62 -6.67,-21.28 -16.68,-26.23 -23.73,-12.42 -48.85,-21.97 -72.58,-34.43 -16.34,-8.55 -31.37,-21.35 -50.35,-23.23 -9.43,-2 -21.97,-0.65 -27.26,-10.7 -10.2,-15.64 -13.88,-38.27 -34.58,-43.75 -5.83,-28.18 3.6,-57.48 -5.41,-85.24 -2.95,-11.92 -20.47,-18.02 -14.22,-32.05 11.12,-31.82 20.89,-65.91 45.36,-90.53 13.91,-13.95 25.26,-30.52 40.6,-43.06 15.18,-12.42 35.43,-13.8 53.91,-17.6 17.45,-3.45 33.47,-14.3 51.88,-11.73 12.5,13.27 28.56,22.35 44.67,30.48 24.88,11.2 52.87,8.75 79.44,10.47 12.01,1.11 24.05,-1.92 33.78,-9.13 18.56,-12.88 39.54,-21.47 58.78,-33.08 14.46,-7.29 14.34,-29.11 30.99,-33.59 35.35,-5.33 70.74,-10.59 106.36,-13.96zm-422.23 88l0 0c-22.09,2.8 -26.42,28.22 -37.39,43.48 -16.18,22.2 -31.06,45.4 -48.77,66.41 -2.99,4.02 -6.4,8.32 -6.4,13.61 -2.88,28.56 9.74,55.83 7.97,84.28 -0.76,10.16 0.65,22.27 9.74,28.6 10.2,5.56 21.78,8.24 31.75,14.38 35.2,20.7 72.97,36.46 108.59,56.4 8.35,4.22 16.18,11.62 26.3,9.97 -20.25,-24.62 -44.98,-45.13 -65.26,-69.75 20.97,7.79 39.34,23.78 62.19,25.54 -21.01,-26.99 -47.08,-49.58 -69.32,-75.53 21.13,2.45 41.95,11.61 63.49,5.44 -47.89,-27.18 -98.15,-49.92 -146.85,-75.61 19.21,-31.56 41.64,-61.24 57.71,-94.56 13.11,-19.47 39.72,-17.02 60.23,-15.98 20.82,-0.96 40.19,8.35 60.89,8.39 -8.09,-12.38 -17.25,-28.45 -34.12,-28.52 -26.92,-1.96 -53.99,0.65 -80.75,3.45zm894.15 -21.28c12.66,-4.18 21.59,-15.26 34.2,-19.44 16.38,-1.69 32.86,1.61 49.31,0.19 21.63,-0.27 43.37,-3.8 64.99,-1.88 28.99,8.55 57.29,23.89 75.88,48.31 10.51,13.5 16.72,29.64 24.74,44.59 4.44,8.29 8.12,17.26 8.12,26.84 0.43,32.29 1.35,65.92 -11.61,96.25 -15.15,35.81 -24.66,76.03 -53.26,104.17 -23.01,21.59 -51.38,36.12 -77.95,52.72 -21.7,12.54 -41.3,28.22 -60.85,43.83 -0.5,-6.86 -1.46,-13.76 -0.23,-20.55 3.33,-6.6 9.12,-11.39 14.34,-16.41 18.17,-16.34 34.51,-34.59 51.07,-52.53 -22.05,2.22 -44.06,4.44 -66.1,6.48 16.41,-11.51 33.24,-22.47 48.77,-35.2 -19.44,-0.69 -38.92,-0.42 -58.4,-0.5 11.31,-22.58 22.97,-44.98 33.71,-67.87 -15.03,4.57 -29.83,9.74 -44.94,14 8.85,-19.59 18.63,-38.77 26.95,-58.59 -14.76,2.68 -29.48,5.41 -44.32,7.44 6.33,-15.07 16.41,-29.37 16.76,-46.24 -0.73,-16.87 -11.51,-30.75 -15.73,-46.7 -3.64,-10.47 -4.94,-23.85 -15.95,-29.53 -18.02,-10.81 -37.23,-19.44 -56.17,-28.49 -8.43,-4.29 -18.75,-6.21 -24.77,-14.11 12.88,-1.07 25.92,-1.57 38.8,0.23 14.57,2.8 28.95,-2.49 42.64,-7.01zm168.48 37.8l0 0c-27.99,19.9 -58.4,36.24 -86.92,55.37 -19.29,12.84 -33.09,32.71 -39.27,54.98 17.87,-9.66 34.78,-20.97 52.53,-30.86 0.08,11.46 -0.23,22.89 0.81,34.31 14.57,-11.08 24.19,-27.1 38.11,-38.95 -2.07,15.03 -6.9,29.45 -11.85,43.71 15.84,-11.35 31.68,-22.78 47.89,-33.63 -9.01,17.79 -18.82,35.16 -27.64,53.07 11.77,-7.48 23.43,-15.15 35.39,-22.43 -18.6,31.78 -38.46,62.84 -56.63,94.9 15.03,-9.09 30.29,-18.02 47.12,-23.55 -11.89,31.1 -25.34,61.62 -36.77,92.91 20.17,-9.7 31.82,-29.18 45.05,-46.2 12.5,-16.64 33.44,-25.81 42.41,-45.29 9.51,-17.98 8.93,-38.68 10.81,-58.36 1.8,-23.46 13.61,-45.28 12.46,-69.13 -0.84,-19.51 -14.61,-34.74 -20.89,-52.57 -4.41,-10.27 -8.94,-24.53 -22.36,-25.19 -12.84,-1.22 -20.89,10.24 -30.25,16.91zm-605.09 286.54l0 0c5.45,5.25 9.24,15.07 18.06,14.84 36.5,0.23 73.01,0.15 109.47,-0.04 2.91,-4.6 5.83,-9.2 8.78,-13.8 -19.09,-9.63 -38.72,-20.9 -60.89,-19.83 -26.68,-1.95 -50.57,11.58 -75.42,18.83zm9.66 240.83l0 0c7.94,2.72 16.03,4.98 24.24,6.98l-1.61 1.34c0.53,10.28 -0.77,20.86 1.95,30.9 3.99,7.79 10.09,14.23 15.22,21.25 7.4,-14.88 20.4,-29.33 17.33,-47.13 -3.22,-13.72 -21.24,-15.56 -31.01,-7.89 5.17,-5.1 13.15,-11.05 20.59,-6.87 9.5,4.68 21.28,11.54 30.75,2.72 -18.29,17.76 1.68,41.03 10.47,58.21 7.01,-14.99 20.28,-29.03 17.25,-46.86 -1.11,-12.96 -17.6,-16.02 -27.57,-11.5l4.37 -4.03c14,-2.56 28.03,14 39.69,0.58 -20.82,-5.52 -41.22,-15.38 -63.23,-13.96 -20.51,0.92 -39.15,10.28 -58.44,16.26zm116.87 2.68l0 0c0,12.23 -0.69,24.54 0.35,36.77 2.57,12.43 11.85,21.94 18.75,32.17 2.45,-5.44 5.06,-10.77 7.48,-16.21 7.09,-14.88 3.06,-31.83 4.1,-47.66 -9.7,-4.26 -20.09,-6.75 -30.68,-5.07zm-137.26 8.32l0 0c-2.15,22.01 4.17,43.06 11.69,63.46 4.29,-6.63 8.86,-13.11 13.15,-19.75 10.24,-14.3 4.72,-32.66 5.91,-48.96 -10.55,-0.42 -21.13,0.58 -30.75,5.25zm178.75 8.86l0 0c-1.15,14.34 -0.42,29.1 4.1,42.83 3.38,11.08 8.4,22.35 6.41,34.2 -2.65,19.06 -5.14,38.15 -8.36,57.13 0.88,-0.11 2.61,-0.38 3.49,-0.5 24.88,-24.53 48.42,-54.52 49.57,-91.02 3.26,-19.79 -8.89,-40.38 -28.14,-46.32 -8.74,-2.91 -21.01,-5.18 -27.07,3.68zm-245.89 39.07l0 0c-1.27,39.96 25.15,73.16 52.76,99.08 -2.53,-20.51 -5.83,-40.91 -8.28,-61.39 -1.73,-12.34 3.83,-23.96 7.24,-35.5 4.57,-13.46 2.84,-27.84 3.22,-41.79 -25.38,-13.27 -58.55,11.61 -54.94,39.6zm151.64 -22.27l0 0c-4.71,12.07 -6.02,26.18 -14.57,36.42 -4.94,6.25 -15.06,4.68 -18.48,-2.3 -4.02,-8.21 -7.36,-16.76 -11.96,-24.69 -7.78,16.29 -15.84,32.51 -26.07,47.47 -13.31,-8.59 -12.85,-25.65 -17.64,-39.07 -5.87,13.53 -11.04,27.72 -11.16,42.67 -0.46,27.61 11.27,53.8 9.89,81.52 -14.38,-13.04 -27.49,-27.42 -39.15,-42.87 -10.46,-13.46 -16.79,-29.95 -29.79,-41.41 -2.76,7.44 -5.4,14.92 -8.09,22.39 -5.4,-9.28 -10.73,-18.56 -16.52,-27.57 -3.19,30.52 11,59.32 17.63,88.5 7.21,23.73 2.76,50.11 14.46,72.62 13.19,26.53 27.38,52.72 36.69,80.98 5.56,14.53 7.25,30.44 14.69,44.29 5.48,-13.85 5.9,-33.44 20.59,-41.07 10.58,17.6 9.24,38.77 13.27,58.28 3.94,20.13 8.09,40.26 11.08,60.58 1.8,-2.1 5.36,-6.36 7.13,-8.47 -6.52,14.27 1.57,29.6 2.61,44.25 8.09,-0.04 16.18,-0.04 24.31,0 -0.89,-13.73 2.95,-28.72 -3.99,-41.3 3.41,4.41 6.9,8.75 10.35,13.15 3.22,-9.39 7.4,-18.63 15.11,-25.23 -3.57,8.67 -9.21,16.53 -11.66,25.62 -0.69,9.24 -0.27,18.48 -0.23,27.76 9.59,0 19.17,-0.04 28.76,0 -0.08,-10.47 0.61,-20.98 -0.46,-31.4 -2.53,-9.97 -9.24,-18.26 -14,-27.23l-1.19 2.65c0.35,-1.8 1.04,-5.37 1.38,-7.13 6.71,10.31 14.04,20.24 19.9,31.13 4.91,-10.97 11.2,-21.24 18.95,-30.44 3.37,5.79 6.63,11.65 10.04,17.48 -3.41,-4.37 -6.86,-8.7 -10.27,-13 -5.14,7.1 -11.7,13.73 -14.08,22.39 -1.53,11.81 -0.53,23.74 -0.69,35.59 7.13,-0.04 14.27,-0.08 21.4,-0.16 5.02,-13.72 9.24,-28.91 4.72,-43.36 2.33,1.19 7.05,3.49 9.43,4.64 1.46,-32.79 13.19,-63.84 16.33,-96.36 0.12,-7.67 4.22,-14.07 8.4,-20.09 7.32,7.82 11.73,17.56 16.79,26.84 0.81,0.11 2.46,0.31 3.3,0.38 37.35,-91.56 73.73,-185.77 81.79,-285.15 -7.02,9.7 -12.54,20.4 -19.52,30.17 -2.95,-7.28 -5.79,-14.57 -8.63,-21.89 -18.4,34.43 -39.87,68.17 -70.51,93.06 -3.22,-40.3 20.86,-83.59 -1.92,-121.4 -4.79,11.35 -1.38,34.51 -19.28,33.67 -7.1,-16.07 -15.69,-31.33 -23.81,-46.86 -5.6,12 -8.17,38.42 -27.34,30.87 -8.13,-11.08 -10.47,-25.34 -17.99,-36.92zm87.2 304.48l0 0c-7.56,42.37 -14.46,84.89 -21.71,127.33 -1.41,5.41 -0.76,10.89 0.92,16.18 11.47,-1.45 27.69,3.99 34.55,-8.47 7.71,-15.15 5.14,-32.97 4.75,-49.35 -0.38,-29.44 -5.98,-58.97 -18.51,-85.69zm-170.63 0.07l0 0c-14.95,32.79 -19.44,69.14 -18.29,104.87 0.19,12.85 -0.77,30.18 12.35,37.35 9.93,1.57 21.24,2.8 29.9,-3.3 -8.05,-46.28 -14.84,-92.83 -23.96,-138.92z"/>
   <path class="fil3" d="M662.64 334.44c36.62,-91.33 76.53,-181.25 111.92,-273.04 30.18,-0.19 60.39,-0.54 90.61,0.27 29.29,91.26 56.98,183.01 87.3,273.92 -21.81,6.21 -44.59,5.75 -67.06,6.6 -4.98,-18.49 -10.04,-36.93 -15.1,-55.33 -42.6,-0.19 -85.16,0.07 -127.72,-0.16 -10.01,25.92 -21.44,51.69 -27.5,78.84 -3.83,18.4 10.47,32.01 25.27,39.64 -12.04,7.13 -23.58,17.91 -38.57,16.95 -29.64,0.19 -61.58,-1 -86.54,-19.09 26.15,-13.96 36.77,-42.83 47.39,-68.6zm557.12 363.84c24.81,-11.08 50.23,-20.63 75.19,-31.33 -0.99,13.65 -2.6,27.53 -8.89,39.92 -7.56,-3.11 -15.07,-6.25 -22.59,-9.36 3.68,4.26 7.36,8.51 11.12,12.77 -11.31,3.07 -23.42,6.29 -34.97,2.64 -7.82,-2.95 -13.61,-9.35 -19.86,-14.64zm-457.04 -33.63c26.57,8.97 53.29,17.52 79.52,27.53 -3.72,2.84 -7.25,5.98 -11.27,8.44 -7.21,-1.19 -13.96,-4.34 -20.86,-6.56 3.49,4.29 7.01,8.63 10.47,12.96 -14.77,2.26 -31.91,4.52 -44.45,-5.56 -10.15,-8.01 -8.24,-21.93 -9.2,-33.32 -1.07,-0.88 -3.14,-2.61 -4.21,-3.49zm847.6 -603.25c119.63,-0.34 239.26,-0.15 358.89,-0.07 -0.57,44.78 -2.07,89.53 -3.41,134.27 -9.74,0.08 -19.44,0.12 -29.14,0.19 -0.62,-25.26 -0.58,-53.52 -17.37,-74.19 -17.03,-18.4 -43.29,-24.31 -67.52,-23.81 -22.66,0.46 -45.36,-0.92 -67.95,0.65 -23.16,2.76 -43.09,22.82 -44.47,46.32 -2.23,36.31 -3.07,72.74 -4.3,109.12 22.12,-1.34 47.32,5.41 66.91,-7.86 21.66,-16.41 24.81,-45.63 27.57,-70.66 8.51,0.07 16.98,0.15 25.54,0.27 -2.46,63.87 -5.76,127.68 -8.25,191.52 -10.54,0.08 -21.09,0.15 -31.59,0.19 -2.11,-23.12 -2.8,-49.85 -20.86,-66.95 -16.68,-15.22 -41.03,-9.97 -61.54,-10.85 -1.96,52.15 -2.34,104.41 -5.95,156.44 -0.8,11.85 9.09,20.32 17.87,26.5 17.72,12.76 40.76,9.24 61.27,9.77 30.03,-0.38 64.08,-0.38 87.92,-21.51 25.66,-25.23 31.48,-62.76 37.5,-96.62 11.28,0.04 22.55,0.11 33.86,0.27 -1.38,51.15 -3.49,102.26 -5.44,153.41 -93.75,-0.04 -187.46,0 -281.21,-0.04 -0.19,-14.23 -4.87,-27.84 -11.39,-40.34 -8.55,-16.22 -13.46,-33.93 -17.94,-51.61 2.83,-86.61 6.71,-173.23 9.77,-259.89 0.23,-19.21 2.73,-41.37 -10.85,-57.05 -9.04,-11.58 -24.5,-13.42 -37.84,-16.56 -0.04,-10.32 -0.08,-20.59 -0.08,-30.91zm-434.35 0c52.38,-0.34 104.8,-0.19 157.17,-0.07 37.58,78.48 74.62,157.24 112.15,235.77 6.95,-6.75 17.37,-12.54 18.06,-23.36 2.23,-17.9 1.38,-36 2.27,-53.98 0.69,-34.51 3.72,-69.13 1.84,-103.6 -1.8,-20.56 -22.13,-30.26 -39.99,-33.75 -0.16,-6.97 -0.27,-13.95 -0.35,-20.93 45.55,-0.35 91.14,-0.54 136.69,0.11 -0.23,10.7 -0.38,21.44 -0.61,32.13 -12.35,3.84 -25.77,7.52 -34.2,17.99 -10.82,11.39 -13.69,27.45 -13.77,42.6 -2.22,73.27 -5.75,146.51 -7.55,219.82 -30.98,2.26 -62.88,0.73 -92.83,9.89 -41.49,-84.28 -83.01,-168.52 -124.04,-253.03 -7.44,-0.23 -14.91,-0.46 -22.35,-0.65 -3.07,77.15 -7.25,154.33 -8.28,231.55 -1.58,-4.67 -2.92,-9.39 -4.3,-14.07 -15.11,-0.27 -30.02,-2.87 -44.71,-6.29 3.49,-66.21 5.03,-132.51 7.25,-198.76 0.42,-13.54 -1.23,-27.96 -9.82,-38.96 -7.36,-11.12 -20.32,-15.84 -32.05,-20.63 -0.23,-7.25 -0.42,-14.53 -0.58,-21.78zm-192.9 19.02c0.27,-6.4 0.58,-12.77 0.92,-19.17 47.81,0.11 95.63,-0.35 143.4,0.3 -0.46,7.1 -0.92,14.19 -1.38,21.29 -19.13,4.44 -41.22,15.41 -42.82,37.61 -4.03,69.21 -5.49,138.61 -8.48,207.89 -19.21,-1.41 -38.46,-1.87 -57.67,-2.22 2.61,-66.18 5.03,-132.36 7.44,-198.58 0.16,-9.85 0.04,-20.66 -6.55,-28.72 -7.75,-11.73 -22.24,-14.76 -34.86,-18.4zm-935.53 11.08c0.12,-9.89 -0.11,-19.82 1.42,-29.6 69.71,-1.65 139.57,-0.12 209.36,-0.69 27.14,107.21 52.14,214.99 79.17,322.27 4.26,-0.11 8.48,-0.19 12.73,-0.31 34.74,-107.39 69.36,-214.91 104.87,-322.08 69.44,0.46 138.84,-0.23 208.28,0.39 -0.04,9.97 -0.04,19.97 -0.04,29.98 -17.68,5.03 -36.81,10.89 -48.5,26.11 -9.59,11.39 -9.86,26.88 -10.51,40.99 -2.64,77.46 -6.29,154.83 -8.63,232.28 -25.38,-14.72 -55.67,-8.66 -80.94,2.77 2.76,-78.07 6.48,-156.14 8.74,-234.24 -9.73,0.07 -19.44,0.11 -29.14,0.11 -35.39,110.08 -72.65,219.59 -107.51,329.87 -1.19,3.79 -2.3,7.67 -3.53,11.5 -2.53,5.98 -5.13,11.89 -7.78,17.83 -27.88,0.04 -55.75,0 -83.63,0.04 -30.02,-121.36 -59.43,-242.87 -89.14,-364.3 -10.09,0 -20.13,0 -30.22,0 -3.79,86.93 -7.01,173.89 -10.5,260.81 -0.35,19.82 -1.15,42.87 14.22,57.86 10.12,11.42 25.92,13.8 40.11,16.68 0.04,9.62 0,19.28 -0.12,28.95 -60.92,-0.08 -121.81,0 -182.74,-0.04 0.08,-9.66 0.12,-19.33 0.23,-28.99 15.61,-5.4 32.13,-11.85 42.18,-25.73 8.55,-10.27 10.7,-23.96 11.31,-36.92 3.95,-74.27 10.77,-148.46 9.39,-222.89 -0.84,-25.38 1.96,-50.99 -1.38,-76.22 -5.6,-21.55 -27.95,-31.56 -47.7,-36.43zm768.43 40.45l0 0c-14.72,36.27 -30.52,72.13 -44.63,108.67 23.85,0.11 47.74,0.11 71.59,-0.04 -8.86,-36.24 -17.33,-72.59 -26.96,-108.63z"/>
   <path class="fil4" d="M1013.67 339.2c18.98,-0.66 37.84,2.37 56.71,3.87 53.72,5.48 107.51,10.2 161.19,16.1 4.1,7.71 10.32,13.88 18.25,17.64 19.18,9.74 34.47,25.57 54.3,34.09 6.25,2.14 10.58,7.01 14.45,12.11 6.02,7.9 16.34,9.82 24.77,14.11 18.94,9.05 38.15,17.68 56.17,28.49 11.01,5.68 12.31,19.06 15.95,29.53 4.22,15.95 15,29.83 15.73,46.7 -0.35,16.87 -10.43,31.17 -16.76,46.24 14.84,-2.03 29.56,-4.76 44.32,-7.44 -8.32,19.82 -18.1,39 -26.95,58.59 15.11,-4.26 29.91,-9.43 44.94,-14 -10.74,22.89 -22.4,45.29 -33.71,67.87 19.48,0.08 38.96,-0.19 58.4,0.5 -15.53,12.73 -32.36,23.69 -48.77,35.2 22.04,-2.04 44.05,-4.26 66.1,-6.48 -16.56,17.94 -32.9,36.19 -51.07,52.53 -5.22,5.02 -11.01,9.81 -14.34,16.41 -1.23,6.79 -0.27,13.69 0.23,20.55 4.21,31.25 8.7,62.5 12.19,93.86 -9.51,3.57 -22.74,6.98 -23.62,19.25 -0.19,16.6 3.83,32.98 4.68,49.58 -28.95,11.39 -21.4,47.93 -24.5,72.47 -13.65,3.56 -23.35,14.61 -27.23,27.91 -6.86,17.91 -9.08,37.15 -11.57,56.1 -9.51,3.06 -21.71,5.67 -25.16,16.52 -5.86,17.91 -6.98,36.93 -10.58,55.33 -5.02,0.96 -11.39,0.08 -14.61,4.98 -14.45,18.37 -22.39,40.84 -31.21,62.27 -4.87,-2.22 -9.74,-4.44 -14.57,-6.67 -19.21,16.34 -21.55,43.48 -23.39,66.95 -7.82,-1.69 -17.41,-8.25 -24.04,-0.73 -21.09,22.09 -29.33,52.8 -47.32,77.11 0.39,-6.9 0.73,-13.77 1.04,-20.63 12.08,-51.88 26.88,-103.03 40.83,-154.41 12.73,-45.36 24.7,-90.99 40.57,-135.35 3.61,-13.38 15.42,-21.12 26.23,-28.41 13.95,-9.16 24.88,-22.05 34.28,-35.74 -15.95,-4.52 -32.52,-6.25 -49.08,-5.9 -0.23,-37.5 -0.19,-75.04 0.07,-112.54 0.12,-11.42 -1.11,-23.19 -6.75,-33.35 -21.43,-39.42 -53.44,-72.47 -90.79,-97.13 6.21,-8.59 10.81,-20.55 22.09,-23.46 14.8,-0.39 27.87,9.58 42.67,9.31 16.87,-2.1 32.82,-9.2 50,-9.7 9.09,-1.53 22.89,0.54 26.92,-10.2 5.9,-24.57 5.67,-50.15 10.31,-74.92 6.75,-15.1 25.54,-15.53 39.72,-16.41 14.57,23.39 19.1,53.49 7.06,78.95 -7.09,18.6 -22.62,31.4 -36.39,44.9 -9.39,5.52 1.15,19.52 9.59,13.69 25.69,-15.11 48.08,-39.46 54.33,-69.4 4.1,-19.25 5.83,-40.65 -3.57,-58.67 -6.21,-11.88 -14.72,-22.35 -22.66,-33.09 5.22,-4.48 10.43,-9.05 15.8,-13.42 4.64,-3.41 9.2,-6.86 13.84,-10.31 -16.49,0.77 -32.93,1.99 -49.27,4.45 -35.85,4.06 -72.74,-2.88 -107.93,6.51 -40.46,12.96 -61.43,53.03 -91.34,80.1 -24.92,-8.28 -49.61,-17.29 -74.76,-24.88 -14.5,-5.06 -28.92,-12.04 -44.67,-11.16 -20.98,0.61 -42.83,-2.65 -62.89,5.18 -27.99,9.81 -56.05,19.4 -84.08,29.18 -33.94,-29.87 -68.06,-59.44 -102.07,-89.19 -36.16,0.35 -72.35,-0.88 -108.51,1 -1.8,-0.39 -5.45,-1.08 -7.25,-1.46 -21.7,-19.32 -40.34,-41.76 -61.42,-61.69 7.7,-21.21 11.54,-44.44 24.69,-63.19 9.89,-14.42 29.22,-14.92 44.86,-13 6.56,5.44 8.78,14.11 12.58,21.47 -14.69,2.88 -37.81,-1.69 -43.87,16.18 -4.45,11.85 -10.47,23.08 -14.15,35.2 1.42,10.2 13,12.88 20.13,18.18 11.28,6.05 17.45,18.25 28.19,24.88 18.71,3.8 38.07,1.34 57.01,0.77 22.51,-0.08 45.02,-0.92 67.52,0.03 11.01,8.44 18.91,20.21 29.8,28.84 17.14,13.88 35.46,26.3 51.53,41.52 65.18,-34.24 147.04,-49.3 215.45,-15.3 6.59,-9.5 13.15,-19.05 19.74,-28.56 -44.51,-18.71 -90.22,-34.28 -135.16,-51.95 45.17,-21.06 95.75,-25.85 141.53,-45.1 -42.75,-1.15 -85.51,0.77 -128.26,1.73 36.58,-14.19 73.27,-28.11 109.89,-42.18 -36.31,-13.42 -73.73,-23.66 -111.08,-33.63 54.91,-12.23 110.01,-23.65 164.61,-37.07 -53.22,-23.66 -108.93,-41.37 -161.73,-66.07l-4.18 -2.14zm-160.39 500.64c22.93,-21.13 42.18,-51.23 74.69,-57.67 25.31,-2.22 31.29,27.26 45.17,42.1 13.69,17.6 33.59,29.53 46.01,48.08 3.45,14.38 1.27,29.41 1.69,44.06 -26.73,-0.54 -54.33,0.34 -79.26,11.08 -40.26,16.6 -69.82,49.96 -100.19,79.83 1.42,-14.72 0,-30.25 5.56,-44.21 8.63,-16.41 28.11,-22.89 37.43,-38.92 -15.22,7.56 -29.3,17.14 -44.21,25.27 11.35,-18.94 27.22,-34.35 42.6,-49.96 -17.41,1.07 -31.98,10.54 -45.9,20.01 12.46,-23.61 35.31,-37.92 57.48,-51.22 -19.67,-1.07 -38,6.13 -55.14,14.84 15.72,-15.61 35.39,-25.88 55.33,-34.97 -6.6,-3.72 -12.66,-8.94 -20.21,-10.43 -8.13,-0.08 -15.83,2.99 -23.54,5.02l2.49 -2.91zm262.96 -52.15c7.17,-9.05 20.32,-8.7 29.94,-4.18 23.74,10.58 43.75,27.76 63.11,44.75 7.17,6.02 12.47,13.76 17.18,21.78 -18.52,-7.67 -39.15,-12.69 -58.32,-4.03 18.87,9.09 38.31,18.02 53.22,33.21 -16.71,-5.87 -33.66,-11.77 -51.57,-12.23 21.93,13.38 44.33,27.91 56.71,51.34 -13.65,-9.44 -28.3,-18.1 -45.28,-19.37 14.87,14.27 30.59,28.22 40.22,46.86 -14.38,-7.25 -27.99,-15.84 -42.56,-22.7 9.24,11.43 22.01,19.09 31.98,29.75 11.23,15.07 8.51,35.24 10.73,52.88 -29.94,-29.99 -59.54,-62.81 -99.34,-79.75 -25.23,-11.01 -53.22,-11.78 -80.29,-11.66 -0.04,-14.23 -0.04,-28.45 -0.04,-42.68 15.72,-15.79 33.13,-29.71 49.73,-44.55 11.92,-10.62 15.14,-27.03 24.58,-39.42zm452.25 -333.66c9.36,-6.67 17.41,-18.13 30.25,-16.91 13.42,0.66 17.95,14.92 22.36,25.19 6.28,17.83 20.05,33.06 20.89,52.57 1.15,23.85 -10.66,45.67 -12.46,69.13 -1.88,19.68 -1.3,40.38 -10.81,58.36 -8.97,19.48 -29.91,28.65 -42.41,45.29 -13.23,17.02 -24.88,36.5 -45.05,46.2 11.43,-31.29 24.88,-61.81 36.77,-92.91 -16.83,5.53 -32.09,14.46 -47.12,23.55 18.17,-32.06 38.03,-63.12 56.63,-94.9 -11.96,7.28 -23.62,14.95 -35.39,22.43 8.82,-17.91 18.63,-35.28 27.64,-53.07 -16.21,10.85 -32.05,22.28 -47.89,33.63 4.95,-14.26 9.78,-28.68 11.85,-43.71 -13.92,11.85 -23.54,27.87 -38.11,38.95 -1.04,-11.42 -0.73,-22.85 -0.81,-34.31 -17.75,9.89 -34.66,21.2 -52.53,30.86 6.18,-22.27 19.98,-42.14 39.27,-54.98 28.52,-19.13 58.93,-35.47 86.92,-55.37zm-1062.63 -16.52c26.76,-2.8 53.83,-5.41 80.75,-3.45 16.87,0.07 26.03,16.14 34.12,28.52 -20.7,-0.04 -40.07,-9.35 -60.89,-8.39 -20.51,-1.04 -47.12,-3.49 -60.23,15.98 -16.07,33.32 -38.5,63 -57.71,94.56 48.7,25.69 98.96,48.43 146.85,75.61 -21.54,6.17 -42.36,-2.99 -63.49,-5.44 22.24,25.95 48.31,48.54 69.32,75.53 -22.85,-1.76 -41.22,-17.75 -62.19,-25.54 20.28,24.62 45.01,45.13 65.26,69.75 -10.12,1.65 -17.95,-5.75 -26.3,-9.97 -35.62,-19.94 -73.39,-35.7 -108.59,-56.4 -9.97,-6.14 -21.55,-8.82 -31.75,-14.38 -9.09,-6.33 -10.5,-18.44 -9.74,-28.6 1.77,-28.45 -10.85,-55.72 -7.97,-84.28 0,-5.29 3.41,-9.59 6.4,-13.61 17.71,-21.01 32.59,-44.21 48.77,-66.41 10.97,-15.26 15.3,-40.68 37.39,-43.48zm683.92 12.07l0 0c-2.49,6.37 -5.6,12.62 -7.02,19.33 4.18,17.02 14.61,32.09 16.99,49.65 0.57,12.66 -2.61,25.31 -0.5,38 1.34,12.08 3.99,26.57 -5.56,36.24 -12.69,14.14 -22.47,30.63 -35.47,44.55 5.45,3.22 10.85,6.52 16.26,9.85 8.67,-10.77 18.83,-20.13 28.79,-29.64 11.01,-10.39 18.72,-24.84 33.02,-31.28 12.34,-4.49 25.8,-2.92 38.61,-4.99 21.66,-3.6 43.29,-7.59 64.53,-13.19 -17.37,-7.86 -33.78,-17.6 -49.5,-28.33 -17.68,-12.12 -40.76,-15.49 -55.33,-32.13 -16.26,-18.41 -24.88,-42.76 -44.82,-58.06z"/>
   <path class="fil5" d="M1037.17 1018.06c7.52,11.58 9.86,25.84 17.99,36.92 19.17,7.55 21.74,-18.87 27.34,-30.87 8.12,15.53 16.71,30.79 23.81,46.86 17.9,0.84 14.49,-22.32 19.28,-33.67 22.78,37.81 -1.3,81.1 1.92,121.4 30.64,-24.89 52.11,-58.63 70.51,-93.06 2.84,7.32 5.68,14.61 8.63,21.89 6.98,-9.77 12.5,-20.47 19.52,-30.17 -8.06,99.38 -44.44,193.59 -81.79,285.15 -0.84,-0.07 -2.49,-0.27 -3.3,-0.38 -5.06,-9.28 -9.47,-19.02 -16.79,-26.84 -4.18,6.02 -8.28,12.42 -8.4,20.09 -3.14,32.52 -14.87,63.57 -16.33,96.36 -2.38,-1.15 -7.1,-3.45 -9.43,-4.64l-1.08 -1.46c-3.41,-5.83 -6.67,-11.69 -10.04,-17.48 -7.75,9.2 -14.04,19.47 -18.95,30.44 -5.86,-10.89 -13.19,-20.82 -19.9,-31.13 -0.34,1.76 -1.03,5.33 -1.38,7.13 -0.3,0.65 -0.92,1.95 -1.22,2.6 -7.71,6.6 -11.89,15.84 -15.11,25.23 -3.45,-4.4 -6.94,-8.74 -10.35,-13.15 -4.11,-5.4 -8.32,-10.73 -12.54,-16.02 -3.49,4.33 -6.98,8.7 -10.39,13.07 -1.77,2.11 -5.33,6.37 -7.13,8.47 -2.99,-20.32 -7.14,-40.45 -11.08,-60.58 -4.03,-19.51 -2.69,-40.68 -13.27,-58.28 -14.69,7.63 -15.11,27.22 -20.59,41.07 -7.44,-13.85 -9.13,-29.76 -14.69,-44.29 -9.31,-28.26 -23.5,-54.45 -36.69,-80.98 -11.7,-22.51 -7.25,-48.89 -14.46,-72.62 -6.63,-29.18 -20.82,-57.98 -17.63,-88.5 5.79,9.01 11.12,18.29 16.52,27.57 2.69,-7.47 5.33,-14.95 8.09,-22.39 13,11.46 19.33,27.95 29.79,41.41 11.66,15.45 24.77,29.83 39.15,42.87 1.38,-27.72 -10.35,-53.91 -9.89,-81.52 0.12,-14.95 5.29,-29.14 11.16,-42.67 4.79,13.42 4.33,30.48 17.64,39.07 10.23,-14.96 18.29,-31.18 26.07,-47.47 4.6,7.93 7.94,16.48 11.96,24.69 3.42,6.98 13.54,8.55 18.48,2.3 8.55,-10.24 9.86,-24.35 14.57,-36.42zm-64.11 -36.66c19.29,-5.98 37.93,-15.34 58.44,-16.26 22.01,-1.42 42.41,8.44 63.23,13.96 -11.66,13.42 -25.69,-3.14 -39.69,-0.58l-4.37 4.03 -0.15 0.15c-9.47,8.82 -21.25,1.96 -30.75,-2.72 -7.44,-4.18 -15.42,1.77 -20.59,6.87l-1.88 1.53c-8.21,-2 -16.3,-4.26 -24.24,-6.98zm-4.64 146.32l0 0c10.63,11.23 23.59,19.63 36.24,28.33 7.36,4.68 6.48,14.65 7.59,22.2 1,24.73 8.59,48.47 11.66,72.89 2.37,16.34 4.37,34.66 18.29,45.67 18.13,-38.23 24.92,-80.75 27.72,-122.62 0.61,-6.75 1.91,-14.61 8.59,-18.02 12.88,-8.4 25.38,-17.53 35.89,-28.91 -21.94,5.79 -43.52,12.8 -65.46,18.55 -6.97,2 -14.26,0.96 -21.05,-1.15 -19.78,-5.79 -39.37,-12.23 -59.47,-16.94z"/>
  </g>
 </g>
</svg>
