<?xml version="1.0" encoding="UTF-8"?>
<!DOCTYPE svg PUBLIC "-//W3C//DTD SVG 1.1//EN" "http://www.w3.org/Graphics/SVG/1.1/DTD/svg11.dtd">
<!-- Creator: CorelDRAW -->
<svg xmlns="http://www.w3.org/2000/svg" xml:space="preserve" width="2000px" height="1600px" version="1.1" style="shape-rendering:geometricPrecision; text-rendering:geometricPrecision; image-rendering:optimizeQuality; fill-rule:evenodd; clip-rule:evenodd"
viewBox="0 0 2000 1600"
 xmlns:xlink="http://www.w3.org/1999/xlink">
 <defs>
  <style type="text/css">
   <![CDATA[
    .fil0 {fill:#006F3B;fill-rule:nonzero}
    .fil1 {fill:#FEFEFE;fill-rule:nonzero}
   ]]>
  </style>
 </defs>
 <g id="Capa_x0020_1">
  <metadata id="CorelCorpID_0Corel-Layer"/>
  <g id="Manhattan_x0020_Jaspers.cdr">
   <path class="fil0" d="M111.47 537.61c27.5,-19.07 58.57,-32.94 90.93,-41.32 -14,17.54 -25.95,38.43 -26.44,61.43 -0.55,14.25 5.31,28.19 14.84,38.66 15.15,16.57 36.46,25.67 57.45,32.34 41.38,12.5 84.8,16.06 127.79,17.79 72.76,2.12 145.53,-2.62 217.92,-9.83 37.86,-3.99 75.76,-7.96 113.38,-14.02 195.26,-30.97 390.23,-63.72 585.29,-96.04 91.31,-15.72 183.55,-27.42 276.27,-29.87 78.72,-1.56 158.82,2.28 234.61,25.39 37.51,11.78 74.34,28.86 103.4,55.86 21.62,19.97 38.56,46.08 43.75,75.39 2.46,17.55 0.86,35.32 1.79,52.97 0.88,72.63 2.14,145.26 2.89,217.9 1.22,21.88 0.13,44.41 -7.98,65.05 -10.87,29.01 -32.55,52.73 -57.38,70.62 -27.91,19.89 -59.75,33.99 -92.83,42.75 15.33,-19.34 28.71,-43.16 26.24,-68.66 -2.15,-22.17 -19.19,-39.41 -37.9,-49.65 -28.93,-15.8 -61.84,-22.27 -94.19,-26.75 -60.21,-7.57 -121.14,-6.78 -181.64,-3.6 -89.36,5.09 -178.46,14.94 -266.7,29.88 -192.02,30.92 -383.84,63.08 -575.72,94.92 -105,16.35 -211.4,27.22 -317.74,22.37 -51.54,-2.62 -103.25,-9.08 -152.69,-24.28 -40.17,-12.5 -79.6,-31.23 -109.62,-61.34 -20.83,-21.35 -37.11,-48.93 -39.27,-79.18 -1.61,-79.47 -1.99,-158.98 -3.68,-238.43l0 -53.18c1.24,-12.33 3.82,-24.59 8.34,-36.15 11.14,-29.37 33.53,-53.15 58.89,-71.02zm137.35 606.6c96.61,16.57 195.36,13.78 292.6,4.76 0.06,64.67 0,129.34 0.02,194.03 40.55,0 81.08,0 121.63,0 0,85.66 0,171.34 0,257l-535.88 0c0,-85.66 -0.02,-171.34 0,-257 40.55,-0.02 81.08,0 121.61,0 0.02,-66.26 0.02,-132.52 0.02,-198.79zm588.35 -39.23c112.43,-18.67 224.84,-37.35 337.31,-55.61 -27.95,75.19 -56.06,150.31 -84.09,225.46 -62.54,-0.04 -125.09,0 -187.63,-0.02 -21.84,-56.61 -43.8,-113.18 -65.59,-169.83zm613.68 -93.11c60.24,-4.91 120.74,-8.02 181.15,-5.4 37.74,1.96 76.03,5.26 111.98,17.67 0,106.28 -0.02,212.58 0.02,318.86 40.35,-0.02 80.72,0 121.08,0 0.04,85.66 0.02,171.34 0.02,257l-536.38 0c0,-85.66 -0.02,-171.34 0,-257 40.71,0 81.42,-0.02 122.11,0 0.04,-110.37 0.02,-220.76 0.02,-331.13zm-186.4 -1011.87l600.65 0c0,83.81 0.02,167.59 0,251.4 -40.36,0.02 -80.75,0 -121.12,0 0,67.34 0,134.68 0,202.01 -96.93,-15.45 -195.74,-12.21 -293.11,-2.87 -0.1,-47.3 0.11,-94.59 -0.1,-141.88 -18.28,49.47 -36.84,98.83 -55.24,148.26 -59.93,7.43 -119.35,18.24 -178.92,28.01 -50.11,8.16 -100.17,16.73 -150.29,24.83 65.98,-169.95 131.91,-339.91 198.13,-509.76zm-1137.26 0l603.07 0c69.8,176.88 139.34,353.87 208.74,530.89 -68.1,11.03 -136.17,22.33 -204.28,33.18 -33.61,5.32 -67.19,10.93 -101.09,14.15 -30.7,-79.47 -61.39,-158.96 -92.13,-238.41 -0.18,82.6 0.08,165.21 -0.14,247.81 -70.05,5.15 -140.56,8.88 -210.65,2.16 -27.81,-3.01 -55.96,-7.04 -81.93,-17.89 0.08,-106.83 0.02,-213.66 0.02,-320.47 -40.53,-0.04 -81.08,0.02 -121.61,-0.04 0,-83.79 0,-167.59 0,-251.38z"/>
   <path class="fil1" d="M1359.92 601.28c38.37,-3.23 76.79,-7.59 115.36,-7.39 21.97,0.55 44.89,7.29 60.68,23.23 23.25,22.45 28.46,61.76 10.06,88.75 -11.56,17.71 -32.1,27.79 -52.62,30.6 7.8,1.67 12.64,8.39 16.79,14.61 14.05,21.2 27.85,42.53 41.63,63.9 6.62,10.18 12.56,21.17 22.05,29.05 6.25,5.52 13.78,9.28 21.41,12.54 -23.41,-3.01 -47.02,-3.91 -70.57,-4.72 -18.39,-28.91 -36.75,-57.81 -55.52,-86.47 -4.9,-7.17 -10.23,-14.62 -18.17,-18.63 -6.33,-3.36 -13.72,-2.4 -20.58,-2.16 1.44,25.32 -0.23,50.71 0.91,76.03 0.92,12.66 5.52,28.28 19.26,32.19 -27.01,1.42 -54.05,3.29 -80.86,6.94 12.75,-7.66 15.19,-23.98 15.13,-37.58 -0.96,-48.73 -0.67,-97.51 -0.69,-146.26 -0.19,-16.16 0.67,-32.49 -1.67,-48.53 -1.9,-12.09 -10.22,-23.39 -22.6,-26.1zm69.11 20.97l0 0c0.92,32.51 0.31,65.04 0.35,97.55 23.73,-2.22 50.46,2.07 70.88,-12.99 24.53,-18.2 21.76,-60.38 -3.81,-76.44 -19.78,-13.82 -44.92,-8.98 -67.42,-8.12z"/>
   <path class="fil1" d="M1641.02 617.81c18.14,-17.04 44.15,-22.04 68.28,-21.72 25.36,1.2 50.99,7.68 72.77,21.05 1.18,17.81 -0.83,35.65 0.71,53.44 -13.07,-21.11 -34.07,-38.09 -58.85,-42.71 -15.86,-2.71 -33.71,-2.49 -47.39,7.06 -9.77,6.66 -14.37,19.44 -11.68,30.88 2.2,11.38 10.69,20.22 19.83,26.73 17.91,12.91 38.96,20.32 58.13,31.04 19.46,10.94 38.52,24.31 50.59,43.53 13.33,21.21 14.47,48.75 5.78,71.89 -6.51,17.2 -22.92,28.77 -40.49,32.63 -24.85,5.52 -50.89,3.79 -75.66,-1.48 -20.12,-4.62 -40.53,-10.26 -58.08,-21.48 -1.2,-22.29 -0.26,-44.62 -0.57,-66.93 9.98,21.42 25.16,41.77 47.21,51.75 17.36,7.63 37.29,10.32 55.94,6.27 12.33,-2.77 25.01,-9.84 29.76,-22.19 4.74,-13.56 -0.51,-29.01 -10.51,-38.8 -13.8,-13.7 -31.9,-21.6 -48.91,-30.41 -22.44,-11.67 -46.33,-23.29 -62.11,-43.79 -19.64,-24.94 -17.65,-64.55 5.25,-86.76z"/>
   <path class="fil1" d="M1128.74 640.71c58.68,-12.58 117.59,-24.34 177.08,-32.57 0.24,18.67 -0.62,37.36 0.61,56 -3.2,-6.67 -6.7,-13.74 -13.15,-17.85 -10,-6.47 -22.62,-6 -33.94,-4.4 -20.58,3.2 -41.02,7.29 -61.45,11.3 1.28,28.83 -0.51,57.65 0.57,86.5 17.67,-3.34 35.38,-6.56 53.11,-9.63 11.92,-2.2 24.55,-6.31 32.12,-16.45 -0.49,16.34 -0.35,32.71 -0.08,49.06 -7.17,-7.68 -18.43,-6.92 -27.97,-6.09 -18.32,2.61 -36.42,6.64 -54.62,9.93 -0.12,30.21 0.02,60.4 -0.08,90.59 21.8,-4.13 43.62,-8.16 65.53,-11.83 15.16,-2.75 31.16,-7.04 42.34,-18.36 6.88,-6.66 11.36,-15.2 15.9,-23.51 1.18,20.19 -0.57,40.43 -0.17,60.66 -62.84,8.53 -125.33,19.97 -187.19,33.85 12.58,-9.3 15.2,-26.25 15.33,-40.87 -1.14,-56.98 -0.21,-114 -0.66,-170.99 -0.5,-12.52 0.29,-26.57 -8.1,-36.91 -3.6,-4.95 -9.54,-6.94 -15.18,-8.43z"/>
   <path class="fil1" d="M980.83 663.43c18.6,-4.68 37.66,-10.24 57.04,-7.8 19.76,1.78 39.55,11.87 49.58,29.5 9.65,16.16 9.65,36.25 4.71,53.97 -7.54,27.8 -27.97,50.76 -52.46,65.22 -24.39,14.43 -52.74,20.88 -80.86,22.23 1.14,22.49 -0.28,45.06 0.72,67.58 0.83,13.07 6.63,28.46 20.82,31.81 -27.28,6.52 -54.47,13.3 -81.65,20.14 12.17,-11.12 15.41,-28.4 15.29,-44.16 -1.24,-56.38 -0.18,-112.79 -0.67,-169.18 -0.59,-12.72 0.53,-26.58 -6.92,-37.67 -3.38,-5.6 -9.71,-7.99 -15.7,-9.59 30.17,-6.82 60.09,-14.64 90.1,-22.05zm-23.13 33.06l0 0c0.43,33.28 -0.75,66.63 0.63,99.91 15.03,-0.55 30.09,-2.67 44.4,-7.37 19.12,-6.45 35.83,-21.13 42.73,-40.31 5.07,-14.35 5.72,-31 -1.45,-44.76 -5.8,-11.28 -18.3,-17.91 -30.71,-18.42 -19.22,-1.26 -37.19,6.82 -55.6,10.95z"/>
   <path class="fil1" d="M698.73 721.57c18.93,-14.15 42.57,-20.28 65.77,-22.54 21.48,-1.97 43.77,-2.42 64.49,4.44 1.14,17.73 0.1,35.52 0.57,53.27 -8.37,-11.33 -19.91,-20.45 -33.36,-24.93 -20.46,-6.78 -43.55,-3.52 -62.31,6.71 -13.28,7.21 -24.31,21.11 -23.21,36.91 0.06,10.95 7.98,19.95 17.18,24.88 15,8.12 32.02,11.01 48.39,15.14 22.29,5.78 45.07,14.94 60.44,32.82 12.64,14.59 16.91,34.72 15.24,53.61 -1.18,17.14 -7.86,34.26 -20.29,46.42 -16.86,17.63 -41.37,24.73 -64.76,28.49 -31.98,4.73 -64.34,0.13 -95.94,-5.29 -0.56,-22.1 -0.04,-44.25 -0.28,-66.36 8.69,16.71 22.45,31.86 40.94,37.5 16.89,5.01 35.15,4.33 52.21,0.49 16.98,-4.81 33.55,-15.9 40.08,-32.9 5.11,-12.95 0.92,-29.09 -10.54,-37.25 -15.49,-11.2 -34.79,-14.41 -52.79,-19.5 -22.1,-5.58 -44.98,-14.21 -59.84,-32.37 -11.49,-13.54 -14.21,-32.41 -11.67,-49.53 2.51,-19.8 13.56,-38.27 29.68,-50.01z"/>
   <path class="fil1" d="M276.52 718.51c30.33,2.94 60.56,6.8 90.87,9.84 -11.62,8.75 -21.35,21.92 -21.09,37.07 0.86,46.1 1.53,92.19 2.28,138.3 1.2,27.95 -9.01,57.91 -31.92,75.19 -20.09,15.09 -46.98,16.88 -70.92,12.24 -15.24,-2.24 -29.57,-8.59 -42.11,-17.41 -0.27,-18.85 0.04,-37.68 -0.17,-56.53 6.74,13.56 15.66,27.3 30.15,33.45 17.08,7.61 39.27,9.87 54.9,-2.18 14.31,-11.6 17.94,-31.29 18.32,-48.75 0.06,-36.64 -0.93,-73.27 -1.65,-109.89 -0.89,-13.31 0.86,-27.07 -3.66,-39.92 -4.23,-13.04 -13.17,-24.44 -25,-31.41z"/>
   <path class="fil1" d="M488.72 731.3c12.07,0.16 24.14,-0.1 36.21,-0.59 29.74,70.35 59.11,140.86 89.91,210.79 7.47,16.42 17.47,33.42 34.4,41.5 -28.09,2.24 -56.16,5.13 -84.25,7.41 8.43,-3.07 15.8,-12.13 12.64,-21.41 -5.29,-16.88 -12.8,-32.94 -19.28,-49.34 -37.04,0.63 -74.09,1.73 -111.14,2.68 -2.77,0.25 -2.91,3.83 -4.25,5.7 -6.74,16.51 -16.39,32.67 -16.88,50.91 -0.2,8.74 7.37,14.21 14.86,16.55 -29.48,0.08 -58.97,-0.69 -88.43,0.61 22.13,-14.39 35.36,-38.43 45.78,-61.94 30.9,-67.28 60.48,-135.17 90.43,-202.87zm-32.43 165.96l0 0c30.53,-0.61 61.05,-1.77 91.58,-2.09 -14.86,-35.63 -29.86,-71.17 -44.44,-106.91 -15.9,36.25 -31.2,72.77 -47.14,109z"/>
  </g>
 </g>
</svg>
