<?xml version="1.0" encoding="UTF-8"?>
<!DOCTYPE svg PUBLIC "-//W3C//DTD SVG 1.1//EN" "http://www.w3.org/Graphics/SVG/1.1/DTD/svg11.dtd">
<!-- Creator: CorelDRAW -->
<svg xmlns="http://www.w3.org/2000/svg" xml:space="preserve" width="2000px" height="1600px" version="1.1" style="shape-rendering:geometricPrecision; text-rendering:geometricPrecision; image-rendering:optimizeQuality; fill-rule:evenodd; clip-rule:evenodd"
viewBox="0 0 2000 1600"
 xmlns:xlink="http://www.w3.org/1999/xlink">
 <defs>
  <style type="text/css">
   <![CDATA[
    .fil2 {fill:#003571;fill-rule:nonzero}
    .fil1 {fill:#F8C730;fill-rule:nonzero}
    .fil0 {fill:#FEFEFE;fill-rule:nonzero}
   ]]>
  </style>
 </defs>
 <g id="Capa_x0020_1">
  <metadata id="CorelCorpID_0Corel-Layer"/>
  <g id="Marquette_x0020_Golden_x0020_Eagles.cdr">
   <path class="fil0" d="M442.81 172.81c94.69,0.79 189.41,0.29 284.14,0.43l-0.58 1.16c-4.36,8.62 -8.7,17.28 -12.99,25.95 47.62,49.5 95.03,99.18 142.68,148.63 -0.02,-12.68 0.19,-25.36 -0.24,-38.02 40.72,-46.11 82.28,-91.46 123.44,-137.16 99.44,0.5 198.93,-0.94 298.33,1.24 -0.89,0.36 -2.69,1.13 -3.6,1.49 -17.07,8.12 -34.8,15.27 -51.22,24.59 -7.21,11.98 -16.27,23.58 -20.85,36.77 -0.19,136.11 -0.22,272.25 0.02,408.36 -53.54,-2.2 -107.11,-5.61 -160.73,-5.63 -0.43,-94.12 0.75,-188.24 0.65,-282.37 9.61,-26.6 19.56,-53.11 28.86,-79.83 -70.83,75.97 -140.81,152.74 -211.57,228.79 -0.24,16.4 -0.02,32.79 -0.12,49.21l0 1.65c-61.67,-66.22 -123.05,-132.71 -184.62,-199.03 -9.71,-25.71 -19.03,-51.58 -28.4,-77.44 -0.58,126.17 -0.15,252.31 -0.22,378.46 -52.82,6.9 -105.72,13.75 -158.21,23.03 0.1,-145.22 -0.31,-290.44 0.21,-435.64 10.29,-3.86 20.43,-8.1 30.56,-12.32 -6.11,-10.4 -12.22,-20.83 -18.48,-31.13 -1.63,-3.12 -4.72,-4.85 -7.71,-6.38 -16.42,-8.34 -33.39,-15.58 -49.35,-24.81zm39.95 817.96c54.05,-10.55 108.31,-20.3 163.06,-26.44 1.05,12.68 -3.65,27.18 4.74,38.18 5.66,9.06 11.1,18.29 16.56,27.49 -56.32,0.48 -112.69,-0.45 -169,0.46 -19.1,9.82 -37.19,21.76 -55.94,32.35l-1.53 0.92c13.54,-24.62 28.09,-48.64 42.11,-72.96zm286.18 -39.5c54.14,-4.17 108.38,-7.03 162.67,-7.79 -0.19,84.39 0.09,168.76 -0.15,253.15 -0.4,12.13 8.37,21.74 12.73,32.47 4.56,7.98 6.47,18.22 14.74,23.44 11.1,8.1 22.05,16.42 33.05,24.67 5.04,-8.06 9.88,-16.25 14.74,-24.43 84.75,0.6 169.48,-0.09 254.23,0.34 9.97,-8.17 20.25,-16.08 29.65,-24.9 5.27,-9.66 11.53,-19.13 15.36,-29.41 0.22,-80.18 0.07,-160.35 0.07,-240.5 52.16,5.85 104.36,12.47 155.92,22.44 -0.24,95.15 0.02,190.33 -0.12,285.48 -0.39,4.89 2.68,8.92 5.1,12.87 4.48,6.93 8.89,13.93 13.42,20.85 -30.03,28.48 -60.85,56.13 -91.03,84.46 -2.63,2.81 -6.16,4.56 -10.09,4.06 -168.4,-0.2 -336.82,0.14 -505.22,-0.17 -31.42,-29.31 -63.34,-58.12 -94.53,-87.68 -13.2,1.61 -26.34,3.84 -39.45,6.04l-1.32 0.22c8.83,-14.65 18.48,-28.79 27.18,-43.48 0.79,-103.66 -0.12,-207.39 0.46,-311.05 0.65,-0.27 1.94,-0.82 2.59,-1.08zm272.3 -8.06c53.57,0.2 107.21,2.02 160.61,6.26 0.21,15.24 -0.65,30.53 0.28,45.73 5.76,12.82 14.53,24.09 20.95,36.6 -55.1,0.19 -110.2,0.05 -165.31,0.07 -3.73,-0.24 -7.16,1.32 -10.33,3.12 -16.96,9.46 -33.91,19.03 -51,28.28 14.05,-25.57 30.27,-49.97 44.49,-75.45 0.74,-14.84 0.04,-29.75 0.31,-44.61zm236.8 -362.39c83.17,-0.17 166.31,-0.24 249.46,0.02l-1.87 1.08c-15.41,9.11 -31.71,16.8 -46.74,26.53 -5.34,8.7 -8.46,18.56 -13.16,27.62 -6.59,11.79 -3.14,25.67 -3.78,38.49 -40.8,-5.42 -81.5,-11.58 -122.46,-15.68l-0.24 -0.76c-5.39,-18.17 -10.37,-36.46 -15.96,-54.55 -15,-7.75 -30.7,-14.15 -45.25,-22.75zm-546.44 0.07c87.45,-0.29 174.94,-0.38 262.4,0.05l-1.61 0.93c-11.74,7 -24.06,12.97 -35.95,19.73 -3.84,1.8 -5.11,6.11 -6.95,9.56 -4.39,9.73 -9.04,19.34 -13.38,29.1 -4.07,0.84 -8.22,1.05 -12.34,0.98 -42.76,0.58 -85.44,3.38 -128.13,5.3 -4.46,-9.95 -8.75,-19.99 -13.45,-29.82 -1.51,-3.86 -5.13,-6.06 -8.41,-8.24 -13.45,-8.56 -26.68,-17.47 -40.05,-26.17 -0.55,-0.36 -1.61,-1.06 -2.13,-1.42z"/>
   <path class="fil1" d="M638.96 1170.69c12.63,-5.65 27.78,7.94 23.32,21.07 -2.87,12.37 -20.42,17.35 -29.05,7.84 -9.42,-8.08 -5.87,-24.9 5.73,-28.91zm1.41 8.37c3,0.55 7.46,-0.46 8.8,3.23 -0.67,4.2 -5.92,2.3 -8.8,3.26 -0.02,-2.18 -0.02,-4.33 0,-6.49zm821.58 -198.31c10.04,2.39 20.27,3.88 30.41,5.85 0.27,92.34 -0.29,184.74 0.27,277.11 8.26,14.67 18.07,28.5 26.79,42.95 -40.91,37.92 -81.95,75.72 -122.91,113.56 -178.08,-0.19 -356.16,0.15 -534.24,-0.17 -40.51,-38.06 -81.88,-75.18 -122.24,-113.39 13.11,-2.2 26.25,-4.43 39.45,-6.04 31.19,29.56 63.11,58.37 94.53,87.68 168.4,0.31 336.82,-0.03 505.22,0.17 3.93,0.5 7.46,-1.25 10.09,-4.06 30.18,-28.33 61,-55.98 91.03,-84.46 -4.53,-6.92 -8.94,-13.92 -13.42,-20.85 -2.42,-3.95 -5.49,-7.98 -5.1,-12.87 0.14,-95.15 -0.12,-190.33 0.12,-285.48zm-816.13 -16.42c9.2,-0.62 18.33,-2.04 27.51,-3.04 0.48,7.45 -1.2,15.29 0.82,22.55 14.62,26.48 29.69,52.73 44.43,79.17 -92.13,-0.05 -184.26,0.31 -276.4,-0.2 18.75,-10.59 36.84,-22.53 55.94,-32.35 56.31,-0.91 112.68,0.02 169,-0.46 -5.46,-9.2 -10.9,-18.43 -16.56,-27.49 -8.39,-11 -3.69,-25.5 -4.74,-38.18zm556.03 -14.86c10.13,1.39 20.37,1.51 30.53,2.59 0.07,11.26 -0.26,22.53 0.07,33.79 0.05,3.26 2.38,5.92 3.74,8.77 12.94,22.78 25.72,45.64 38.57,68.43 -92.78,0.12 -185.56,-0.26 -278.32,0.22 17.09,-9.25 34.04,-18.82 51,-28.28 3.17,-1.8 6.6,-3.36 10.33,-3.12 55.11,-0.02 110.21,0.12 165.31,-0.07 -6.42,-12.51 -15.19,-23.78 -20.95,-36.6 -0.93,-15.2 -0.07,-30.49 -0.28,-45.73zm-270.24 -5.99c10.16,0.65 20.35,0.21 30.51,0.36 0.48,83.55 -0.7,167.13 -0.43,250.65 4.53,11.75 10.83,22.89 16.61,34.11 8.87,8.7 19.03,16.03 28.42,24.18 -4.86,8.18 -9.7,16.37 -14.74,24.43 -11,-8.25 -21.95,-16.57 -33.05,-24.67 -8.27,-5.22 -10.18,-15.46 -14.74,-23.44 -4.36,-10.73 -13.13,-20.34 -12.73,-32.47 0.24,-84.39 -0.04,-168.76 0.15,-253.15zm-442.28 -136.88c0.41,-0.1 1.22,-0.27 1.63,-0.36 9.87,11.96 19.46,24.21 29.22,36.26 -15.1,3.04 -30.23,5.99 -45.35,8.8 5.03,-14.84 9.3,-29.94 14.5,-44.7zm150.32 -27.09c21.31,-2.37 42.52,-5.89 63.93,-7.33 5.85,5.61 4.7,14.48 5.63,21.86 1.08,5.97 -5.92,7.5 -10.33,8 -18.53,2.28 -37.08,4.61 -55.63,6.79 -1.2,-9.78 -2.32,-19.56 -3.6,-29.32zm190.14 -17.61c27.47,-1.49 54.99,-2.59 82.43,-4.48 1.63,22.72 2.39,45.49 3.81,68.23 -7.43,0.31 -14.86,0.67 -22.27,1.37 -5.8,-10.04 -11.02,-20.4 -16.77,-30.44 -6.24,2.9 -12.47,5.8 -18.7,8.65 3.88,7.57 7.67,15.17 11.46,22.79 -12.11,0.75 -24.23,1.2 -36.34,2.04 -1.12,-22.72 -2.23,-45.44 -3.62,-68.16zm649.1 -153.45c15.03,-9.73 31.33,-17.42 46.74,-26.53 -9.92,22.39 -20.16,44.65 -30.37,66.92 -5.18,9.23 -2.04,20.18 -2.85,30.22 -10.16,-1.58 -20.25,-3.57 -30.46,-4.5 0.64,-12.82 -2.81,-26.7 3.78,-38.49 4.7,-9.06 7.82,-18.92 13.16,-27.62zm-522.45 -6.85c11.89,-6.76 24.21,-12.73 35.95,-19.73 -7.69,19.54 -16.39,38.62 -24.3,58.05 -10.67,0.29 -21.33,-0.19 -31.98,0.34 4.34,-9.76 8.99,-19.37 13.38,-29.1 1.84,-3.45 3.11,-7.76 6.95,-9.56zm-222.71 -19.29c13.37,8.7 26.6,17.61 40.05,26.17 3.28,2.18 6.9,4.38 8.41,8.24 4.7,9.83 8.99,19.87 13.45,29.82 -10.69,0.12 -21.33,1.39 -32,1.89 -9.9,-22.07 -20.28,-43.93 -29.91,-66.12zm543.97 -1.71l0.34 0.22c14.55,8.6 30.25,15 45.25,22.75 5.59,18.09 10.57,36.38 15.96,54.55 -10.81,-1.2 -21.61,-2.45 -32.47,-3.31 -9.81,-24.69 -18.7,-49.76 -29.08,-74.21zm-631.69 -299c9.37,25.86 18.69,51.73 28.4,77.44 0.6,99.18 -1.1,198.34 -0.43,297.52 -9.4,1.27 -18.87,1.82 -28.19,3.5 0.07,-126.15 -0.36,-252.29 0.22,-378.46zm213.14 225.61c70.76,-76.05 140.74,-152.82 211.57,-228.79 -9.3,26.72 -19.25,53.23 -28.86,79.83 -61,66.01 -121.95,132.04 -182.83,198.17 0.1,-16.42 -0.12,-32.81 0.12,-49.21zm363.62 -306.09c16.42,-9.32 34.15,-16.47 51.22,-24.59 -12.32,24.47 -28.35,46.98 -41.37,71.06 -0.6,133.48 -0.1,266.98 -0.26,400.46 -10.16,-0.36 -20.28,-1.46 -30.42,-1.8 -0.24,-136.11 -0.21,-272.25 -0.02,-408.36 4.58,-13.19 13.64,-24.79 20.85,-36.77zm-509.39 -0.77c4.29,-8.67 8.63,-17.33 12.99,-25.95 43.14,45.51 86.21,91.12 129.45,136.56 0.43,12.66 0.22,25.34 0.24,38.02 -47.65,-49.45 -95.06,-99.13 -142.68,-148.63zm-270.57 -27.54c15.96,9.23 32.93,16.47 49.35,24.81 2.99,1.53 6.08,3.26 7.71,6.38 6.26,10.3 12.37,20.73 18.48,31.13 -10.13,4.22 -20.27,8.46 -30.56,12.32 -14.85,-24.95 -29.16,-50.28 -44.98,-74.64zm-218.76 -115.23c115,0.02 230,0.02 345,0 70.2,1.24 140.42,0.36 210.63,0.62 25.04,25.74 49.25,52.3 74.34,77.97 23.56,-25.7 46.5,-51.94 70.23,-77.49 55.77,0.65 111.5,-0.96 167.27,-0.48 59.15,0.45 118.26,-0.72 177.39,-0.6 75.95,0.5 151.86,-1.03 227.81,-0.53 -46.23,77.35 -92.59,154.62 -138.87,231.94 -2.2,3.36 -1.29,7.57 -1.53,11.34 0.07,53.23 0.19,106.44 -0.05,159.65 119.58,0.6 239.15,0.07 358.75,0.26 -30.7,69.7 -61.57,139.33 -92.2,209.07 96.37,20.81 192.1,45.88 284.52,80.51 31.11,12.2 61.62,25.91 92.66,38.4 -51.31,130.62 -103.54,260.91 -155.31,391.35 -36.5,-29.13 -72.93,-58.32 -109.39,-87.49 -5.06,-3.9 -9.66,-8.72 -15.87,-10.73 -33.46,-12.16 -67.63,-22.25 -101.88,-31.86 -0.96,58.39 -0.53,116.89 -0.24,175.3 20.54,34.23 42.66,67.57 63.8,101.48 -78.04,72.31 -156.34,144.36 -234.46,216.63 -211.15,0.16 -422.31,0.14 -633.49,0 -77.87,-72.44 -156.42,-144.15 -234.17,-216.7 20.54,-32.79 41.37,-65.38 62.01,-98.12 -20.16,-0.77 -37.42,-18.17 -37.42,-38.45 -126.45,-0.43 -252.91,0.03 -379.34,-0.21 22.37,-37.23 44.56,-74.5 66.83,-111.77 -6.6,2.45 -13.76,4.1 -19.27,8.73 -38.78,31.11 -77.61,62.22 -116.51,93.19 -51.63,-130.39 -103.59,-260.63 -155.29,-390.97 20.21,-8.89 40.7,-17.14 61.02,-25.81 45.92,-19.9 93.67,-35.19 141.58,-49.54 53.3,-15.73 107.23,-29.22 161.5,-41.13 0.09,-123.94 -0.08,-247.85 0.09,-371.77 -0.26,-3.79 0.58,-8 -1.63,-11.36 -46.16,-77.15 -92.39,-154.26 -138.51,-231.43zm67.81 38.44l0 0c36.12,60.45 72.36,120.85 108.52,181.27 3.29,4.63 1.8,10.52 2.14,15.79 -0.12,135.11 0,270.24 -0.08,405.35 -94.09,19.44 -187.42,43.43 -278.05,75.55 -27.51,9.54 -54,21.69 -80.94,32.67 41.88,106.2 84.49,212.11 126.27,318.34 28.83,-22.87 57.5,-45.9 86.21,-68.93 2.71,-2.26 5.97,-3.65 9.23,-4.85 35.01,-12.84 70.7,-23.75 106.68,-33.48 -26.41,44.56 -53.35,88.78 -79.72,133.36 129.67,0.14 259.33,-0.03 389,0.07 -0.02,26.39 -0.1,52.78 0.05,79.17 -0.29,3.23 0.57,6.92 -1.37,9.82 -16.99,27.11 -34.42,53.98 -51.27,81.21 66.64,61.45 133.17,123.02 199.8,184.48 201.04,0.07 402.06,-0.05 603.08,0.07 66.8,-61.45 133.48,-123.03 200.01,-184.75 -16.82,-26.5 -33.53,-53.11 -50.43,-79.57 -2.01,-2.56 -2.61,-5.75 -2.34,-8.92 0.19,-75.83 -0.15,-151.66 0.16,-227.5 52.21,12.61 104.07,26.99 154.55,45.49 4,1.44 8.08,3.05 11.41,5.83 28.42,22.81 56.9,45.61 85.42,68.33 42.33,-105.96 84.29,-212.07 126.5,-318.08 -27.92,-11.65 -55.6,-24.01 -84.22,-33.89 -95.73,-33.63 -194.38,-58.31 -293.8,-78.23 0.45,-8.2 -1.58,-16.99 2.32,-24.59 25.17,-56.71 50.1,-113.54 75.22,-170.25 -112.73,0.05 -225.42,0.03 -338.14,0.03 -0.08,-71.33 0.04,-142.63 -0.08,-213.96 -0.33,-3.12 0.34,-5.97 2.04,-8.56 36.22,-60.45 72.5,-120.85 108.55,-181.39 -61.24,0.1 -122.47,0.05 -183.71,0.02 -36.74,1.25 -73.51,0.36 -110.25,0.63 -64.45,-0.46 -128.88,1.12 -193.31,0.5 -29.16,31.83 -57.73,64.19 -86.93,95.99 -30.2,-32.38 -60.73,-64.47 -91.31,-96.47 -87.08,-0.33 -174.13,0.63 -261.18,-0.62 -70.01,0.05 -140.02,-0.1 -210.03,0.07zm344.9 1070.07l0 0c-17.67,5.83 -18.68,33.89 -1.71,41.2 14.24,8.03 33.77,-4.02 32.91,-20.35 0.72,-15.53 -17.16,-27.34 -31.2,-20.85zm-216.24 -416.58c172.61,-34.78 348.49,-52.59 524.49,-55.83 232.72,-3.86 466.34,17.24 693.53,68.58 84.27,19.46 168.06,42.23 248.76,73.58 -26.77,67.2 -53.44,134.46 -80.14,201.69 -13.67,-10.28 -26.25,-22.15 -40.51,-31.54 -43.24,-17.26 -88.06,-30.28 -132.97,-42.4 -214.16,-55.75 -436.39,-75.6 -657.25,-73.7 -194.43,0.86 -389.48,19.94 -578.71,65.76 -55.36,13.76 -110.47,29.22 -163.65,50.02 -14.55,9.4 -27.27,21.43 -41.06,31.93 -26.77,-67.3 -53.59,-134.58 -80.19,-201.93 99.63,-38.18 203.34,-64.64 307.7,-86.16zm587.88 -12.52l0 0c-1.34,26.11 -1.82,52.25 -2.95,78.36 -0.26,7.74 -0.98,16.15 3,23.15 4.39,6.88 13.28,7.74 20.66,8.22 20.78,0.93 41.58,1.39 62.36,2.25 8.42,0.05 17.14,1.13 25.31,-1.34 8.58,-2.78 11.05,-12.49 11.32,-20.49 1.2,-28.6 1.89,-57.19 3.14,-85.78 -8.58,-0.75 -17.21,-0.65 -25.79,-1.23 -1.32,29.36 -2.04,58.75 -3.24,88.13 -23.77,-0.86 -47.53,-1.46 -71.28,-2.58 1.06,-29.36 2.42,-58.73 2.88,-88.09 -8.49,0.05 -16.95,-0.6 -25.41,-0.6zm-178.37 4.92l0 0c-7.33,0.5 -15.77,0.96 -21.16,6.66 -4.84,5.06 -4.39,12.58 -4.41,19.08 0.55,18.41 1.92,36.77 2.71,55.17 0.43,7 0.57,14.5 4.26,20.74 4.56,7.02 13.76,7.66 21.33,7.42 15.8,-0.64 31.59,-1.65 47.39,-2.34 4.31,9.01 8.96,17.88 13.3,26.91 8.63,-0.02 17.23,-0.55 25.86,-0.93 -4.24,-9.42 -9.78,-18.15 -14.69,-27.23 10.33,-1.13 21.81,0.34 30.87,-5.75 6.14,-5.04 6.47,-13.88 6.18,-21.21 -1.12,-19.18 -2.1,-38.35 -3.04,-57.55 -0.67,-7.05 -0.89,-15.12 -6.18,-20.49 -6.26,-5.49 -15.2,-4.85 -22.94,-4.65 -26.48,1.46 -52.97,2.8 -79.48,4.17zm374.17 0.45l0 0c-3.74,36.24 -7.89,72.48 -11.29,108.75 37.34,3.66 74.61,7.81 111.93,11.62 0.76,-6.97 1.51,-13.93 2.11,-20.92 -28.72,-3 -57.43,-6.04 -86.17,-9.04 0.82,-8.75 1.77,-17.5 2.66,-26.22 16.61,1.92 33.27,3.62 49.93,5.27 0.55,-6.35 1.17,-12.68 1.63,-19.03 -16.49,-1.77 -33.01,-3.35 -49.47,-5.3 0.69,-7.78 1.53,-15.53 2.35,-23.29 28.37,3.02 56.78,5.8 85.13,9.08 0.89,-6.37 1.56,-12.75 2.25,-19.15 -37,-3.98 -74.06,-7.74 -111.06,-11.77zm-592.16 20.98l0 0c4.37,36.09 8.82,72.19 13.31,108.28 8.43,-0.91 16.87,-1.99 25.33,-2.92 -1.73,-13.64 -3.47,-27.25 -5.06,-40.92 7.84,-0.55 15.63,-2.44 23.52,-2.27 16.25,11.29 32.02,23.34 48.08,34.94 12.36,-1.65 24.78,-2.95 37.17,-4.62 -18.31,-11.58 -36.58,-23.18 -54.89,-34.71 10.26,-1.46 22.08,-0.72 30.49,-7.76 6.33,-5.4 5.32,-14.43 4.41,-21.79 -1.51,-9.78 -1.68,-19.82 -4.48,-29.34 -3.12,-8.82 -13.52,-11.84 -22,-10.57 -31.98,3.69 -63.9,7.86 -95.88,11.68zm747.56 -5.28l0 0c-1.22,6.59 -2.25,13.18 -3.16,19.8 16.35,2.56 32.69,5.2 49.06,7.74 -4.41,29.36 -9.25,58.67 -13.85,88.01 8.51,1.51 17.06,2.73 25.57,4.22 4.72,-29.36 9.25,-58.75 14.02,-88.11 16.49,2.5 32.93,5.32 49.45,7.77 1.05,-6.64 2.23,-13.28 2.64,-19.99 -41.3,-6.16 -82.5,-12.99 -123.73,-19.44zm-885.44 27.13l0 0c-13.19,39.6 -26.73,79.1 -39.62,118.81 8.51,-1.58 17.01,-3.19 25.5,-4.98 2.54,-8.56 5.25,-17.04 7.72,-25.6 22.38,-4.34 44.75,-8.82 67.16,-12.99 5.72,6.93 11.52,13.78 17.23,20.73 9.63,-1.87 19.27,-3.67 28.88,-5.61 -27.54,-31.68 -54.93,-63.51 -82.43,-95.25 -8.14,1.66 -16.32,3.14 -24.44,4.89zm1037.45 -1.91l0 0c-1.13,6.44 -2.5,12.82 -3.98,19.19 16.15,4.05 32.57,7.03 48.82,10.69 -6.21,29.08 -12.41,58.15 -18.55,87.25 8.48,1.68 16.92,3.59 25.41,5.25 6.11,-29.03 12.36,-58.03 18.45,-87.06 16.25,3.34 32.55,6.67 48.73,10.43 1.72,-6.54 3.09,-13.18 4.43,-19.8 -41.15,-8.43 -82.14,-17.71 -123.31,-25.95zm-1167.65 29.86l0 0c-10.52,25.26 -20.82,50.62 -31.23,75.93 -21.81,-16.66 -43.88,-32.93 -65.55,-49.76 -7.02,1.47 -13.9,3.36 -20.8,5.23 9.49,35.16 18.76,70.37 28.33,105.53 6.8,-1.82 13.61,-3.64 20.39,-5.47 -6.8,-24.4 -12.75,-49.06 -20.01,-73.34 16.39,14.69 34.42,27.42 51.48,41.32 4.51,3.21 8.82,9.16 15.08,6.26 8.94,-24.62 20.52,-48.25 28.33,-73.25 5.1,24.91 12.68,49.26 19.15,73.85 7.72,-2.11 15.43,-4.2 23.18,-6.23 -9.69,-35.14 -18.58,-70.52 -28.57,-105.56 -6.57,1.87 -13.18,3.67 -19.78,5.49zm1335.28 8.68l0 0c-9.83,35.04 -20.09,69.94 -30.01,104.95 36.19,10.16 72.26,20.83 108.48,30.99 1.94,-6.76 3.88,-13.52 5.78,-20.3 -27.86,-7.96 -55.71,-15.89 -83.53,-23.97 2.54,-8.34 4.79,-16.8 7.45,-25.11 15.99,4.62 31.93,9.42 48.01,13.75 1.68,-6.18 3.43,-12.36 5.22,-18.5 -16.08,-4.51 -32.14,-9.13 -48.17,-13.76 2.2,-7.48 4.43,-14.98 6.59,-22.48 27.49,7.84 54.96,15.8 82.47,23.61 1.73,-6.21 3.45,-12.37 5.2,-18.55 -35.87,-10.07 -71.59,-20.69 -107.49,-30.63zm-1044.26 353.24l0 0c-0.05,8 -0.05,16.01 0,24.01 1.32,0 3.98,0 5.32,0 0.05,-3.47 0.12,-6.93 0.22,-10.35 4.67,1.58 6.83,5.85 8.63,10.06 1.79,0.1 5.39,0.24 7.21,0.34 -1.99,-3.38 -3.98,-6.71 -6.01,-10.02 2.63,-2.32 5.36,-5.08 4.41,-8.94 -2.98,-8.15 -13.33,-4.12 -19.78,-5.1z"/>
   <path class="fil2" d="M634.98 1175.06c6.45,0.98 16.8,-3.05 19.78,5.1 0.95,3.86 -1.78,6.62 -4.41,8.94 2.03,3.31 4.02,6.64 6.01,10.02 -1.82,-0.1 -5.42,-0.24 -7.21,-0.34 -1.8,-4.21 -3.96,-8.48 -8.63,-10.06 -0.1,3.42 -0.17,6.88 -0.22,10.35 -1.34,0 -4,0 -5.32,0 -0.05,-8 -0.05,-16.01 0,-24.01zm1044.26 -353.24c35.9,9.94 71.62,20.56 107.49,30.63 -1.75,6.18 -3.47,12.34 -5.2,18.55 -27.51,-7.81 -54.98,-15.77 -82.47,-23.61 -2.16,7.5 -4.39,15 -6.59,22.48 16.03,4.63 32.09,9.25 48.17,13.76 -1.79,6.14 -3.54,12.32 -5.22,18.5 -16.08,-4.33 -32.02,-9.13 -48.01,-13.75 -2.66,8.31 -4.91,16.77 -7.45,25.11 27.82,8.08 55.67,16.01 83.53,23.97 -1.9,6.78 -3.84,13.54 -5.78,20.3 -36.22,-10.16 -72.29,-20.83 -108.48,-30.99 9.92,-35.01 20.18,-69.91 30.01,-104.95zm-1335.28 -8.68c6.6,-1.82 13.21,-3.62 19.78,-5.49 9.99,35.04 18.88,70.42 28.57,105.56 -7.75,2.03 -15.46,4.12 -23.18,6.23 -6.47,-24.59 -14.05,-48.94 -19.15,-73.85 -7.81,25 -19.39,48.63 -28.33,73.25 -6.26,2.9 -10.57,-3.05 -15.08,-6.26 -17.06,-13.9 -35.09,-26.63 -51.48,-41.32 7.26,24.28 13.21,48.94 20.01,73.34 -6.78,1.83 -13.59,3.65 -20.39,5.47 -9.57,-35.16 -18.84,-70.37 -28.33,-105.53 6.9,-1.87 13.78,-3.76 20.8,-5.23 21.67,16.83 43.74,33.1 65.55,49.76 10.41,-25.31 20.71,-50.67 31.23,-75.93zm1167.65 -29.86c41.17,8.24 82.16,17.52 123.31,25.95 -1.34,6.62 -2.71,13.26 -4.43,19.8 -16.18,-3.76 -32.48,-7.09 -48.73,-10.43 -6.09,29.03 -12.34,58.03 -18.45,87.06 -8.49,-1.66 -16.93,-3.57 -25.41,-5.25 6.14,-29.1 12.34,-58.17 18.55,-87.25 -16.25,-3.66 -32.67,-6.64 -48.82,-10.69 1.48,-6.37 2.85,-12.75 3.98,-19.19zm-152.01 -25.22c41.23,6.45 82.43,13.28 123.73,19.44 -0.41,6.71 -1.59,13.35 -2.64,19.99 -16.52,-2.45 -32.96,-5.27 -49.45,-7.77 -4.77,29.36 -9.3,58.75 -14.02,88.11 -8.51,-1.49 -17.06,-2.71 -25.57,-4.22 4.6,-29.34 9.44,-58.65 13.85,-88.01 -16.37,-2.54 -32.71,-5.18 -49.06,-7.74 0.91,-6.62 1.94,-13.21 3.16,-19.8zm-155.4 -15.7c37,4.03 74.06,7.79 111.06,11.77 -0.69,6.4 -1.36,12.78 -2.25,19.15 -28.35,-3.28 -56.76,-6.06 -85.13,-9.08 -0.82,7.76 -1.66,15.51 -2.35,23.29 16.46,1.95 32.98,3.53 49.47,5.3 -0.46,6.35 -1.08,12.68 -1.63,19.03 -16.66,-1.65 -33.32,-3.35 -49.93,-5.27 -0.89,8.72 -1.84,17.47 -2.66,26.22 28.74,3 57.45,6.04 86.17,9.04 -0.6,6.99 -1.35,13.95 -2.11,20.92 -37.32,-3.81 -74.59,-7.96 -111.93,-11.62 3.4,-36.27 7.55,-72.51 11.29,-108.75zm-195.8 -5.37c8.46,0 16.92,0.65 25.41,0.6 -0.46,29.36 -1.82,58.73 -2.88,88.09 23.75,1.12 47.51,1.72 71.28,2.58 1.2,-29.38 1.92,-58.77 3.24,-88.13 8.58,0.58 17.21,0.48 25.79,1.23 -1.25,28.59 -1.94,57.18 -3.14,85.78 -0.27,8 -2.74,17.71 -11.32,20.49 -8.17,2.47 -16.89,1.39 -25.31,1.34 -20.78,-0.86 -41.58,-1.32 -62.36,-2.25 -7.38,-0.48 -16.27,-1.34 -20.66,-8.22 -3.98,-7 -3.26,-15.41 -3,-23.15 1.13,-26.11 1.61,-52.25 2.95,-78.36zm-716.54 -640.97c70.01,-0.17 140.02,-0.02 210.03,-0.07 87.05,1.25 174.1,0.29 261.18,0.62 30.58,32 61.11,64.09 91.31,96.47 29.2,-31.8 57.77,-64.16 86.93,-95.99 64.43,0.62 128.86,-0.96 193.31,-0.5 36.74,-0.27 73.51,0.62 110.25,-0.63 61.24,0.03 122.47,0.08 183.71,-0.02 -36.05,60.54 -72.33,120.94 -108.55,181.39 -1.7,2.59 -2.37,5.44 -2.04,8.56 0.12,71.33 0,142.63 0.08,213.96 112.72,0 225.41,0.02 338.14,-0.03 -25.12,56.71 -50.05,113.54 -75.22,170.25 -3.9,7.6 -1.87,16.39 -2.32,24.59 99.42,19.92 198.07,44.6 293.8,78.23 28.62,9.88 56.3,22.24 84.22,33.89 -42.21,106.01 -84.17,212.12 -126.5,318.08 -28.52,-22.72 -57,-45.52 -85.42,-68.33 -3.33,-2.78 -7.41,-4.39 -11.41,-5.83 -50.48,-18.5 -102.34,-32.88 -154.55,-45.49 -0.31,75.84 0.03,151.67 -0.16,227.5 -0.27,3.17 0.33,6.36 2.34,8.92 16.9,26.46 33.61,53.07 50.43,79.57 -66.53,61.72 -133.21,123.3 -200.01,184.75 -201.02,-0.12 -402.04,0 -603.08,-0.07 -66.63,-61.46 -133.16,-123.03 -199.8,-184.48 16.85,-27.23 34.28,-54.1 51.27,-81.21 1.94,-2.9 1.08,-6.59 1.37,-9.82 -0.15,-26.39 -0.07,-52.78 -0.05,-79.17 -129.67,-0.1 -259.33,0.07 -389,-0.07 26.37,-44.58 53.31,-88.8 79.72,-133.36 -35.98,9.73 -71.67,20.64 -106.68,33.48 -3.26,1.2 -6.52,2.59 -9.23,4.85 -28.71,23.03 -57.38,46.06 -86.21,68.93 -41.78,-106.23 -84.39,-212.14 -126.27,-318.34 26.94,-10.98 53.43,-23.13 80.94,-32.67 90.63,-32.12 183.96,-56.11 278.05,-75.55 0.08,-135.11 -0.04,-270.24 0.08,-405.35 -0.34,-5.27 1.15,-11.16 -2.14,-15.79 -36.16,-60.42 -72.4,-120.82 -108.52,-181.27zm150.95 76.79l0 0c15.82,24.36 30.13,49.69 44.98,74.64 -0.52,145.2 -0.11,290.42 -0.21,435.64 52.49,-9.28 105.39,-16.13 158.21,-23.03 9.32,-1.68 18.79,-2.23 28.19,-3.5 -0.67,-99.18 1.03,-198.34 0.43,-297.52 61.57,66.32 122.95,132.81 184.62,199.03l0 -1.65c60.88,-66.13 121.83,-132.16 182.83,-198.17 0.1,94.13 -1.08,188.25 -0.65,282.37 53.62,0.02 107.19,3.43 160.73,5.63 10.14,0.34 20.26,1.44 30.42,1.8 0.16,-133.48 -0.34,-266.98 0.26,-400.46 13.02,-24.08 29.05,-46.59 41.37,-71.06 0.91,-0.36 2.71,-1.13 3.6,-1.49 -99.4,-2.18 -198.89,-0.74 -298.33,-1.24 -41.16,45.7 -82.72,91.05 -123.44,137.16 -43.24,-45.44 -86.31,-91.05 -129.45,-136.56l0.58 -1.16c-94.73,-0.14 -189.45,0.36 -284.14,-0.43zm288.79 408.08l0 0c0.52,0.36 1.58,1.06 2.13,1.42 9.63,22.19 20.01,44.05 29.91,66.12 10.67,-0.5 21.31,-1.77 32,-1.89 42.69,-1.92 85.37,-4.72 128.13,-5.3 4.12,0.07 8.27,-0.14 12.34,-0.98 10.65,-0.53 21.31,-0.05 31.98,-0.34 7.91,-19.43 16.61,-38.51 24.3,-58.05l1.61 -0.93c-87.46,-0.43 -174.95,-0.34 -262.4,-0.05zm546.1 -0.29l0 0c10.38,24.45 19.27,49.52 29.08,74.21 10.86,0.86 21.66,2.11 32.47,3.31l0.24 0.76c40.96,4.1 81.66,10.26 122.46,15.68 10.21,0.93 20.3,2.92 30.46,4.5 0.81,-10.04 -2.33,-20.99 2.85,-30.22 10.21,-22.27 20.45,-44.53 30.37,-66.92l1.87 -1.08c-83.15,-0.26 -166.29,-0.19 -249.46,-0.02l-0.34 -0.22zm-857.18 168.91l0 0c-104.36,21.52 -208.07,47.98 -307.7,86.16 26.6,67.35 53.42,134.63 80.19,201.93 13.79,-10.5 26.51,-22.53 41.06,-31.93 53.18,-20.8 108.29,-36.26 163.65,-50.02 189.23,-45.82 384.28,-64.9 578.71,-65.76 220.86,-1.9 443.09,17.95 657.25,73.7 44.91,12.12 89.73,25.14 132.97,42.4 14.26,9.39 26.84,21.26 40.51,31.54 26.7,-67.23 53.37,-134.49 80.14,-201.69 -80.7,-31.35 -164.49,-54.12 -248.76,-73.58 -227.19,-51.34 -460.81,-72.44 -693.53,-68.58 -176,3.24 -351.88,21.05 -524.49,55.83zm620.72 193.7l0 0c-0.27,14.86 0.43,29.77 -0.31,44.61 -14.22,25.48 -30.44,49.88 -44.49,75.45 92.76,-0.48 185.54,-0.1 278.32,-0.22 -12.85,-22.79 -25.63,-45.65 -38.57,-68.43 -1.36,-2.85 -3.69,-5.51 -3.74,-8.77 -0.33,-11.26 0,-22.53 -0.07,-33.79 -10.16,-1.08 -20.4,-1.2 -30.53,-2.59 -53.4,-4.24 -107.04,-6.06 -160.61,-6.26zm-272.3 8.06l0 0c-0.65,0.26 -1.94,0.81 -2.59,1.08 -0.58,103.66 0.33,207.39 -0.46,311.05 -8.7,14.69 -18.35,28.83 -27.18,43.48l1.32 -0.22c40.36,38.21 81.73,75.33 122.24,113.39 178.08,0.32 356.16,-0.02 534.24,0.17 40.96,-37.84 82,-75.64 122.91,-113.56 -8.72,-14.45 -18.53,-28.28 -26.79,-42.95 -0.56,-92.37 0,-184.77 -0.27,-277.11 -10.14,-1.97 -20.37,-3.46 -30.41,-5.85 -51.56,-9.97 -103.76,-16.59 -155.92,-22.44 0,80.15 0.15,160.32 -0.07,240.5 -3.83,10.28 -10.09,19.75 -15.36,29.41 -9.4,8.82 -19.68,16.73 -29.65,24.9 -84.75,-0.43 -169.48,0.26 -254.23,-0.34 -9.39,-8.15 -19.55,-15.48 -28.42,-24.18 -5.78,-11.22 -12.08,-22.36 -16.61,-34.11 -0.27,-83.52 0.91,-167.1 0.43,-250.65 -10.16,-0.15 -20.35,0.29 -30.51,-0.36 -54.29,0.76 -108.53,3.62 -162.67,7.79zm-123.12 13.06l0 0c-54.75,6.14 -109.01,15.89 -163.06,26.44 -14.02,24.32 -28.57,48.34 -42.11,72.96l1.53 -0.92c92.14,0.51 184.27,0.15 276.4,0.2 -14.74,-26.44 -29.81,-52.69 -44.43,-79.17 -2.02,-7.26 -0.34,-15.1 -0.82,-22.55 -9.18,1 -18.31,2.42 -27.51,3.04zm184.21 -222.42c26.51,-1.37 53,-2.71 79.48,-4.17 7.74,-0.2 16.68,-0.84 22.94,4.65 5.29,5.37 5.51,13.44 6.18,20.49 0.94,19.2 1.92,38.37 3.04,57.55 0.29,7.33 -0.04,16.17 -6.18,21.21 -9.06,6.09 -20.54,4.62 -30.87,5.75 4.91,9.08 10.45,17.81 14.69,27.23 -8.63,0.38 -17.23,0.91 -25.86,0.93 -4.34,-9.03 -8.99,-17.9 -13.3,-26.91 -15.8,0.69 -31.59,1.7 -47.39,2.34 -7.57,0.24 -16.77,-0.4 -21.33,-7.42 -3.69,-6.24 -3.83,-13.74 -4.26,-20.74 -0.79,-18.4 -2.16,-36.76 -2.71,-55.17 0.02,-6.5 -0.43,-14.02 4.41,-19.08 5.39,-5.7 13.83,-6.16 21.16,-6.66zm-0.24 19.99l0 0c1.39,22.72 2.5,45.44 3.62,68.16 12.11,-0.84 24.23,-1.29 36.34,-2.04 -3.79,-7.62 -7.58,-15.22 -11.46,-22.79 6.23,-2.85 12.46,-5.75 18.7,-8.65 5.75,10.04 10.97,20.4 16.77,30.44 7.41,-0.7 14.84,-1.06 22.27,-1.37 -1.42,-22.74 -2.18,-45.51 -3.81,-68.23 -27.44,1.89 -54.96,2.99 -82.43,4.48zm-217.75 1.44c31.98,-3.82 63.9,-7.99 95.88,-11.68 8.48,-1.27 18.88,1.75 22,10.57 2.8,9.52 2.97,19.56 4.48,29.34 0.91,7.36 1.92,16.39 -4.41,21.79 -8.41,7.04 -20.23,6.3 -30.49,7.76 18.31,11.53 36.58,23.13 54.89,34.71 -12.39,1.67 -24.81,2.97 -37.17,4.62 -16.06,-11.6 -31.83,-23.65 -48.08,-34.94 -7.89,-0.17 -15.68,1.72 -23.52,2.27 1.59,13.67 3.33,27.28 5.06,40.92 -8.46,0.93 -16.9,2.01 -25.33,2.92 -4.49,-36.09 -8.94,-72.19 -13.31,-108.28zm27.61 16.17l0 0c1.28,9.76 2.4,19.54 3.6,29.32 18.55,-2.18 37.1,-4.51 55.63,-6.79 4.41,-0.5 11.41,-2.03 10.33,-8 -0.93,-7.38 0.22,-16.25 -5.63,-21.86 -21.41,1.44 -42.62,4.96 -63.93,7.33zm-165.49 5.68c8.12,-1.75 16.3,-3.23 24.44,-4.89 27.5,31.74 54.89,63.57 82.43,95.25 -9.61,1.94 -19.25,3.74 -28.88,5.61 -5.71,-6.95 -11.51,-13.8 -17.23,-20.73 -22.41,4.17 -44.78,8.65 -67.16,12.99 -2.47,8.56 -5.18,17.04 -7.72,25.6 -8.49,1.79 -16.99,3.4 -25.5,4.98 12.89,-39.71 26.43,-79.21 39.62,-118.81zm15.17 21.41l0 0c-5.2,14.76 -9.47,29.86 -14.5,44.7 15.12,-2.81 30.25,-5.76 45.35,-8.8 -9.76,-12.05 -19.35,-24.3 -29.22,-36.26 -0.41,0.09 -1.22,0.26 -1.63,0.36zm147.43 359.49c14.04,-6.49 31.92,5.32 31.2,20.85 0.86,16.33 -18.67,28.38 -32.91,20.35 -16.97,-7.31 -15.96,-35.37 1.71,-41.2zm2.2 4.6l0 0c-11.6,4.01 -15.15,20.83 -5.73,28.91 8.63,9.51 26.18,4.53 29.05,-7.84 4.46,-13.13 -10.69,-26.72 -23.32,-21.07zm1.41 8.37l0 0c-0.02,2.16 -0.02,4.31 0,6.49 2.88,-0.96 8.13,0.94 8.8,-3.26 -1.34,-3.69 -5.8,-2.68 -8.8,-3.23z"/>
  </g>
 </g>
</svg>
