<?xml version="1.0" encoding="UTF-8"?>
<!DOCTYPE svg PUBLIC "-//W3C//DTD SVG 1.1//EN" "http://www.w3.org/Graphics/SVG/1.1/DTD/svg11.dtd">
<!-- Creator: CorelDRAW -->
<svg xmlns="http://www.w3.org/2000/svg" xml:space="preserve" width="2000px" height="1600px" version="1.1" style="shape-rendering:geometricPrecision; text-rendering:geometricPrecision; image-rendering:optimizeQuality; fill-rule:evenodd; clip-rule:evenodd"
viewBox="0 0 2000 1600"
 xmlns:xlink="http://www.w3.org/1999/xlink">
 <defs>
  <style type="text/css">
   <![CDATA[
    .fil1 {fill:black;fill-rule:nonzero}
    .fil3 {fill:#E41837;fill-rule:nonzero}
    .fil0 {fill:#FEFEFE;fill-rule:nonzero}
    .fil2 {fill:#FFD41D;fill-rule:nonzero}
   ]]>
  </style>
 </defs>
 <g id="Capa_x0020_1">
  <metadata id="CorelCorpID_0Corel-Layer"/>
  <g id="Maryland_x0020_Terrapins.cdr">
   <path class="fil0" d="M761.63 1492.39c18.92,-0.02 37.83,0.01 56.73,-0.02 -1.67,4.63 -3.18,9.31 -4.56,14.05 -14.77,1.27 -30.33,4.23 -42.09,13.84 -5.08,3.77 -6.09,10.43 -9.94,15.16 -0.26,-14.35 -0.1,-28.69 -0.14,-43.03zm274.11 74.31c30.49,-0.01 60.96,0.03 91.43,-0.03 1.3,3.4 2.6,6.79 3.93,10.18 -31.78,-0.01 -63.57,0 -95.36,0 0,-3.39 -0.02,-6.78 0,-10.15zm195.47 -20.61c3.89,-3.53 3.29,-10.48 8.71,-12.36 0.18,14.37 0.03,28.75 0.06,43.12 -19.41,0.02 -38.82,-0.04 -58.23,0.04 1.87,-4.78 3.48,-9.64 4.89,-14.54 15.74,-1.59 32.96,-4.57 44.57,-16.26zm-467.46 -11.53c78.61,0.14 157.23,0.03 235.84,0.06 0,14.07 0,28.15 0,42.23 -11.92,0 -23.82,0 -35.75,0 0,-3.39 0,-6.78 0.02,-10.15 -30.18,-0.06 -60.36,0.1 -90.54,-0.08 -1.34,3.4 -2.65,6.82 -4,10.23 -16.88,0 -33.77,0 -50.66,0 -1.82,-4.77 -3.43,-9.63 -4.91,-14.52 -12.6,-1.22 -25.53,-3.44 -36.58,-9.99 -6.89,-3.65 -11.89,-10.1 -13.42,-17.78zm236.25 -42.17c11.91,0 23.83,0 35.75,0 -0.03,3.23 -0.03,6.48 -0.03,9.74 30.51,0.02 61,-0.03 91.5,0.04 1.2,-3.28 2.41,-6.53 3.64,-9.78 17.09,0.01 34.16,0 51.25,0.01 1.66,4.62 3.18,9.28 4.56,14.01 12.88,1.12 26.07,3.55 37.28,10.36 6.65,3.74 11.39,10.2 12.69,17.75 -78.86,0.25 -157.73,-0.01 -236.59,0.13 -0.1,-14.1 -0.03,-28.18 -0.05,-42.26zm-130.34 0c31.4,0.01 62.8,0 94.2,0 -0.02,3.23 -0.02,6.48 0,9.74 -30.21,0 -60.43,0 -90.66,0 -1.17,-3.26 -2.35,-6.51 -3.54,-9.74z"/>
   <path class="fil1" d="M289.94 0l420.76 0c95.6,220.44 190.86,441.03 286.26,661.56 95.44,-220.54 190.8,-441.12 286.43,-661.56l419.12 0c-34.91,93.13 -69.12,186.53 -103.9,279.7 -2.99,7.65 -1.22,16.05 -1.65,24.04 0.03,275.12 -0.07,550.24 0.05,825.36 2.14,10.05 8.51,18.74 12.34,28.26 36.95,77.01 73.96,154.01 110.8,231.07 -150.99,0.01 -301.96,0 -452.94,0.01 -0.02,-175.69 0.03,-351.36 -0.02,-527.04 -60.28,136.3 -120.91,272.46 -181.16,408.79 -59.21,0.16 -118.42,0.02 -177.63,0.07 -60.47,-136.19 -120.87,-272.41 -181.32,-408.58 0.06,175.59 0.04,351.19 0,526.78 -148.94,-0.06 -297.88,0 -446.84,-0.03 28.67,-62.95 57.33,-125.87 86.03,-188.8 9.99,-22.55 20.91,-44.72 30.38,-67.45 0.73,-31.4 0.09,-62.88 0.3,-94.29 0.09,-250.64 -0.17,-501.31 0.13,-751.94 -1.73,-6.36 -4.53,-12.36 -6.74,-18.56 -33.47,-89.12 -66.84,-178.29 -100.4,-267.39zm-21.72 1469.63c487.85,0.02 975.71,0.02 1463.56,0.02l0 1.31c-12.41,21.13 -25.33,41.96 -37.82,63.04 12.59,21.38 25.28,42.71 37.82,64.12l0 1.88 -1463.56 0 0 -0.78c12.51,-21.91 25.64,-43.47 38.42,-65.22 -12.9,-21.26 -25.63,-42.59 -38.42,-63.91l0 -0.46zm95.48 22.32l0 0c-0.11,28.3 -0.01,56.59 -0.05,84.9 22.6,0.02 45.19,-0.03 67.81,0.02 0.01,-14.28 0.05,-28.54 -0.04,-42.82 -18.14,-11.64 -36.24,-23.4 -54.36,-35.08 -4.28,-2.67 -8.22,-6.19 -13.36,-7.02zm81.19 0.44l0 0c-0.02,13.5 -0.03,26.99 0,40.49 18.06,11.99 35.98,24.21 54.08,36.14 4.49,2.85 8.52,6.58 13.67,8.27 0.1,-28.29 0.03,-56.61 0.03,-84.9 -22.59,0 -45.19,0 -67.78,0zm137.42 0.05l0 0c3.95,2.71 7.96,5.34 12.02,7.92 -0.01,-2.66 -0.01,-5.34 -0.01,-7.97 -4.02,-0.02 -8.01,-0.02 -12.01,0.05zm106.22 -0.04l0 0c-0.05,23.59 0.08,47.18 -0.05,70.76 6.72,4.68 13.6,9.13 20.4,13.71 17.58,-0.05 35.17,0 52.76,-0.02 19.01,0 38.01,-0.01 57.02,0 16.89,0 33.78,0 50.66,0 31.51,-0.01 63.03,0 94.52,0 11.93,0 23.83,0 35.75,0 12.04,-0.01 24.09,-0.01 36.15,0 31.79,0 63.58,-0.01 95.36,0 16.88,0 33.77,-0.06 50.65,0.04 19.41,-0.08 38.82,-0.02 58.23,-0.04 -0.03,-14.37 0.12,-28.75 -0.06,-43.12 0.18,-13.78 0.03,-27.55 0.06,-41.33 -19.29,-0.03 -38.59,-0.01 -57.87,0 -17.09,-0.01 -34.16,0 -51.25,-0.01 -31.71,0 -63.42,0 -95.11,0 -11.92,0 -23.84,0 -35.75,0 -12.05,0 -24.09,0 -36.14,0 -31.4,0 -62.8,0.01 -94.2,0 -17.1,0 -34.19,0.01 -51.3,-0.02 -18.9,0.03 -37.81,0 -56.73,0.02 -24.37,0 -48.74,0 -73.1,0.01zm632.69 84.45l0 0c22.61,0 45.21,0 67.82,0 0,-14.29 0,-28.58 0,-42.88 -18.55,-11.94 -37.07,-23.94 -55.59,-35.91 -3.73,-2.59 -7.57,-5.06 -11.92,-6.4 -0.72,28.37 -0.12,56.8 -0.31,85.19zm81.2 -84.41l0 0c0.07,13.43 -0.03,26.9 0.05,40.35 22.58,14.84 44.62,30.53 67.56,44.8 0.52,-28.4 0.08,-56.79 0.23,-85.2 -22.62,0.01 -45.23,-0.05 -67.84,0.05zm137.41 0l0 0c3.96,2.64 7.99,5.24 12.02,7.84 0,-2.65 0.01,-5.28 0.03,-7.89 -4.03,0 -8.06,-0.02 -12.05,0.05zm106.26 -0.04l0 0c0.02,23.65 -0.03,47.31 0.04,70.97 6.72,4.21 13.07,9.02 19.89,13.06 8.18,1.03 16.52,0.13 24.78,0.39 -9.85,-14.32 -19.72,-28.62 -29.42,-43.03 9.73,-13.77 19.41,-27.56 29.06,-41.39 -14.78,-0.01 -29.57,-0.01 -44.35,0zm-1038.78 26.72l0 0c0.03,19.25 -0.08,38.5 0.07,57.75 22.59,-0.1 45.19,0.08 67.76,-0.08 -0.01,-4.34 -0.01,-8.63 0.04,-12.93 -22.55,-15.01 -45.18,-29.94 -67.87,-44.74zm957.56 57.73l0 0c22.62,0 45.21,0 67.82,0 -0.01,-4.36 -0.01,-8.73 0.03,-13.09 -22.56,-14.96 -45.2,-29.82 -67.81,-44.73 -0.08,19.26 -0.02,38.54 -0.04,57.82zm-1228.23 -1544.74l0 0c30.44,81.01 60.75,162.1 91.27,243.09 2.34,5.46 1.4,11.48 1.55,17.24 -0.02,280.99 -0.03,561.99 0,842.99 -0.16,7.44 -5.12,13.63 -7.65,20.42 -30.39,66.7 -60.75,133.41 -91.19,200.09 121.34,-0.05 242.69,0.07 364.03,-0.06 -0.1,-215.72 0.02,-431.45 -0.06,-647.18 78.37,176.3 156.49,352.74 234.82,529.07 45.11,0.05 90.2,-0.08 135.31,0.06 78.44,-176 156.23,-352.31 234.52,-528.37 0.13,215.5 -0.01,430.99 0.08,646.5 123.13,-0.04 246.27,-0.04 369.42,0 -34.59,-72.16 -69.38,-144.21 -103.74,-216.45 -1.26,-21.85 -0.17,-43.92 -0.53,-65.85 0,-260.94 0.01,-521.89 -0.02,-782.83 0.16,-5.04 -0.71,-10.3 1.12,-15.14 30.15,-81.19 60.2,-162.41 90.33,-243.59 -117.08,-0.02 -234.16,-0.05 -351.27,0.01 -102.54,237.02 -205.1,474.04 -307.78,711.01 -102.32,-237.1 -204.95,-474.06 -307.51,-711.05 -117.57,0.06 -235.13,-0.04 -352.7,0.04z"/>
   <path class="fil2" d="M336.64 32.11c117.57,-0.08 235.13,0.02 352.7,-0.04 102.56,236.99 205.19,473.95 307.51,711.05 102.68,-236.97 205.24,-473.99 307.78,-711.01 117.11,-0.06 234.19,-0.03 351.27,-0.01 -30.13,81.18 -60.18,162.4 -90.33,243.59 -1.83,4.84 -0.96,10.1 -1.12,15.14 0.03,260.94 0.02,521.89 0.02,782.83 0.36,21.93 -0.73,44 0.53,65.85 34.36,72.24 69.15,144.29 103.74,216.45 -123.15,-0.04 -246.29,-0.04 -369.42,0 -0.09,-215.51 0.05,-431 -0.08,-646.5 -78.29,176.06 -156.08,352.37 -234.52,528.37 -45.11,-0.14 -90.2,-0.01 -135.31,-0.06 -78.33,-176.33 -156.45,-352.77 -234.82,-529.07 0.08,215.73 -0.04,431.46 0.06,647.18 -121.34,0.13 -242.69,0.01 -364.03,0.06 30.44,-66.68 60.8,-133.39 91.19,-200.09 2.53,-6.79 7.49,-12.98 7.65,-20.42 -0.03,-281 -0.02,-562 0,-842.99 -0.15,-5.76 0.79,-11.78 -1.55,-17.24 -30.52,-80.99 -60.83,-162.08 -91.27,-243.09zm1228.23 1544.74c0.02,-19.28 -0.04,-38.56 0.04,-57.82 22.61,14.91 45.25,29.77 67.81,44.73 -0.04,4.36 -0.04,8.73 -0.03,13.09 -22.61,0 -45.2,0 -67.82,0zm-957.56 -57.73c22.69,14.8 45.32,29.73 67.87,44.74 -0.05,4.3 -0.05,8.59 -0.04,12.93 -22.57,0.16 -45.17,-0.02 -67.76,0.08 -0.15,-19.25 -0.04,-38.5 -0.07,-57.75zm1038.78 -26.72c14.78,-0.01 29.57,-0.01 44.35,0 -9.65,13.83 -19.33,27.62 -29.06,41.39 9.7,14.41 19.57,28.71 29.42,43.03 -8.26,-0.26 -16.6,0.64 -24.78,-0.39 -6.82,-4.04 -13.17,-8.85 -19.89,-13.06 -0.07,-23.66 -0.02,-47.32 -0.04,-70.97zm-106.26 0.04c3.99,-0.07 8.02,-0.05 12.05,-0.05 -0.02,2.61 -0.03,5.24 -0.03,7.89 -4.03,-2.6 -8.06,-5.2 -12.02,-7.84zm-137.41 0c22.61,-0.1 45.22,-0.04 67.84,-0.05 -0.15,28.41 0.29,56.8 -0.23,85.2 -22.94,-14.27 -44.98,-29.96 -67.56,-44.8 -0.08,-13.45 0.02,-26.92 -0.05,-40.35zm-81.2 84.41c0.19,-28.39 -0.41,-56.82 0.31,-85.19 4.35,1.34 8.19,3.81 11.92,6.4 18.52,11.97 37.04,23.97 55.59,35.91 0,14.3 0,28.59 0,42.88 -22.61,0 -45.21,0 -67.82,0zm-632.69 -84.45c24.36,-0.01 48.73,-0.01 73.1,-0.01 0.04,14.34 -0.12,28.68 0.14,43.03 -0.29,13.8 -0.1,27.61 -0.13,41.43 -17.59,0.02 -35.18,-0.03 -52.76,0.02 -6.8,-4.58 -13.68,-9.03 -20.4,-13.71 0.13,-23.58 0,-47.17 0.05,-70.76zm-106.22 0.04c4,-0.07 7.99,-0.07 12.01,-0.05 0,2.63 0,5.31 0.01,7.97 -4.06,-2.58 -8.07,-5.21 -12.02,-7.92zm-137.42 -0.05c22.59,0 45.19,0 67.78,0 0,28.29 0.07,56.61 -0.03,84.9 -5.15,-1.69 -9.18,-5.42 -13.67,-8.27 -18.1,-11.93 -36.02,-24.15 -54.08,-36.14 -0.03,-13.5 -0.02,-26.99 0,-40.49zm-81.19 -0.44c5.14,0.83 9.08,4.35 13.36,7.02 18.12,11.68 36.22,23.44 54.36,35.08 0.09,14.28 0.05,28.54 0.04,42.82 -22.62,-0.05 -45.21,0 -67.81,-0.02 0.04,-28.31 -0.06,-56.6 0.05,-84.9zm6.97 -1436.27l0 0c27.08,72.3 54.19,144.59 81.38,216.84 0.56,1.66 0.86,3.36 0.93,5.1 0.06,284.85 -0.03,569.72 0.03,854.56 -0.19,4.84 0.77,9.98 -1.15,14.59 -28.18,61.86 -56.46,123.7 -84.57,185.6 101.25,0.05 202.51,0.02 303.76,0 0.08,-244.84 -0.08,-489.7 0.08,-734.55 91.18,205.35 182.45,410.69 273.33,616.17 35.03,0.52 70.06,0.08 105.08,0.22 88.81,-200.05 177.48,-400.14 266.26,-600.22 1.98,-4.75 3.97,-9.53 6.77,-13.9 0.13,2.47 0.23,4.94 0.27,7.42 -0.01,241.6 0.04,483.17 -0.03,724.75 102.81,0.31 205.61,0.05 308.42,0.13 -29.47,-61.66 -59.06,-123.28 -88.67,-184.87 -2.7,-5.3 -1.42,-11.4 -1.64,-17.07 0,-284.22 0,-568.45 0,-852.67 0.13,-5.67 2.92,-10.75 4.72,-16.01 25.52,-68.58 50.71,-137.29 76.44,-205.81 -8.38,-0.62 -16.78,-0.24 -25.16,-0.33 -92.29,0.05 -184.59,-0.08 -276.89,0.07 -107.48,248.9 -215.39,497.62 -322.99,746.48 -25.58,-58.22 -50.55,-116.75 -75.9,-175.06 -82.39,-190.51 -164.79,-381 -247.21,-571.47 -101.09,0 -202.17,-0.06 -303.26,0.03z"/>
   <path class="fil3" d="M370.67 55.68c101.09,-0.09 202.17,-0.03 303.26,-0.03 82.42,190.47 164.82,380.96 247.21,571.47 25.35,58.31 50.32,116.84 75.9,175.06 107.6,-248.86 215.51,-497.58 322.99,-746.48 92.3,-0.15 184.6,-0.02 276.89,-0.07 8.38,0.09 16.78,-0.29 25.16,0.33 -25.73,68.52 -50.92,137.23 -76.44,205.81 -1.8,5.26 -4.59,10.34 -4.72,16.01 0,284.22 0,568.45 0,852.67 0.22,5.67 -1.06,11.77 1.64,17.07 29.61,61.59 59.2,123.21 88.67,184.87 -102.81,-0.08 -205.61,0.18 -308.42,-0.13 0.07,-241.58 0.02,-483.15 0.03,-724.75 -0.04,-2.48 -0.14,-4.95 -0.27,-7.42 -2.8,4.37 -4.79,9.15 -6.77,13.9 -88.78,200.08 -177.45,400.17 -266.26,600.22 -35.02,-0.14 -70.05,0.3 -105.08,-0.22 -90.88,-205.48 -182.15,-410.82 -273.33,-616.17 -0.16,244.85 0,489.71 -0.08,734.55 -101.25,0.02 -202.51,0.05 -303.76,0 28.11,-61.9 56.39,-123.74 84.57,-185.6 1.92,-4.61 0.96,-9.75 1.15,-14.59 -0.06,-284.84 0.03,-569.71 -0.03,-854.56 -0.07,-1.74 -0.37,-3.44 -0.93,-5.1 -27.19,-72.25 -54.3,-144.54 -81.38,-216.84zm498.65 1521.17c1.35,-3.41 2.66,-6.83 4,-10.23 30.18,0.18 60.36,0.02 90.54,0.08 -0.02,3.37 -0.02,6.76 -0.02,10.15 -31.49,0 -63.01,-0.01 -94.52,0zm166.43 -84.46c31.69,0 63.4,0 95.11,0 -1.23,3.25 -2.44,6.5 -3.64,9.78 -30.5,-0.07 -60.99,-0.02 -91.5,-0.04 0,-3.26 0,-6.51 0.03,-9.74zm-217.39 -0.02c17.11,0.03 34.2,0.02 51.3,0.02 1.19,3.23 2.37,6.48 3.54,9.74 30.23,0 60.45,0 90.66,0 -0.02,-3.26 -0.02,-6.51 0,-9.74 12.05,0 24.09,0 36.14,0 0.02,14.08 -0.05,28.16 0.05,42.26 78.86,-0.14 157.73,0.12 236.59,-0.13 -1.3,-7.55 -6.04,-14.01 -12.69,-17.75 -11.21,-6.81 -24.4,-9.24 -37.28,-10.36 -1.38,-4.73 -2.9,-9.39 -4.56,-14.01 19.28,-0.01 38.58,-0.03 57.87,0 -0.03,13.78 0.12,27.55 -0.06,41.33 -5.42,1.88 -4.82,8.83 -8.71,12.36 -11.61,11.69 -28.83,14.67 -44.57,16.26 -1.41,4.9 -3.02,9.76 -4.89,14.54 -16.88,-0.1 -33.77,-0.04 -50.65,-0.04 -1.33,-3.39 -2.63,-6.78 -3.93,-10.18 -30.47,0.06 -60.94,0.02 -91.43,0.03 -0.02,3.37 0,6.76 0,10.15 -12.06,-0.01 -24.11,-0.01 -36.15,0 0,-14.08 0,-28.16 0,-42.23 -78.61,-0.03 -157.23,0.08 -235.84,-0.06 1.53,7.68 6.53,14.13 13.42,17.78 11.05,6.55 23.98,8.77 36.58,9.99 1.48,4.89 3.09,9.75 4.91,14.52 -19.01,-0.01 -38.01,0 -57.02,0 0.03,-13.82 -0.16,-27.63 0.13,-41.43 3.85,-4.73 4.86,-11.39 9.94,-15.16 11.76,-9.61 27.32,-12.57 42.09,-13.84 1.38,-4.74 2.89,-9.42 4.56,-14.05z"/>
  </g>
 </g>
</svg>
