<?xml version="1.0" encoding="UTF-8"?>
<!DOCTYPE svg PUBLIC "-//W3C//DTD SVG 1.1//EN" "http://www.w3.org/Graphics/SVG/1.1/DTD/svg11.dtd">
<!-- Creator: CorelDRAW -->
<svg xmlns="http://www.w3.org/2000/svg" xml:space="preserve" width="2000px" height="1600px" version="1.1" style="shape-rendering:geometricPrecision; text-rendering:geometricPrecision; image-rendering:optimizeQuality; fill-rule:evenodd; clip-rule:evenodd"
viewBox="0 0 2000 1600"
 xmlns:xlink="http://www.w3.org/1999/xlink">
 <defs>
  <style type="text/css">
   <![CDATA[
    .fil1 {fill:#012E64;fill-rule:nonzero}
    .fil2 {fill:#016856;fill-rule:nonzero}
    .fil0 {fill:#FEFEFE;fill-rule:nonzero}
   ]]>
  </style>
 </defs>
 <g id="Capa_x0020_1">
  <metadata id="CorelCorpID_0Corel-Layer"/>
  <g id="McNeese_x0020_State_x0020_Cowboys.cdr">
   <path class="fil0" d="M1483.62 619.14c18.92,-2.06 38.03,-2.08 56.97,-4.05 -2.06,19.64 -7.5,38.78 -11.02,58.2 -19.28,0.76 -38.48,2.82 -57.76,3.3 4.06,-19.12 7.95,-38.28 11.81,-57.45zm-682.31 134.79c8.78,-22.17 18.46,-43.99 27.98,-65.86 1.2,21.39 1.66,42.83 1.98,64.28 -10,0.36 -19.96,1.34 -29.96,1.58zm33.87 -419.34c26.66,-2.02 53.45,-3.07 80.15,-5.18 -2.65,21.72 -8.37,42.97 -12.44,64.46 -4.56,0.33 -9.1,0.85 -13.6,1.53 -0.06,0.9 -0.19,2.73 -0.25,3.63 22.49,-0.35 44.88,-2.71 67.35,-3.66 44.22,-2.69 88.45,-5.32 132.68,-8.02 2.07,0.16 4.64,-0.57 6.38,0.99 6.85,5.45 13.23,11.48 20.19,16.82 9.71,-7.03 19.23,-14.37 29.29,-20.89 20.72,-1.94 41.59,-2.7 62.39,-3.96 6.79,3.45 11.92,9.48 18.12,13.89 1.27,-4.97 2.36,-9.98 3.42,-15 51.77,-3.82 103.66,-6.25 155.48,-9.73 94.74,-5.54 189.46,-11.48 284.2,-17.05 11.8,-0.66 23.73,-2.16 35.5,-1.2 7.43,5.1 13.69,11.72 21.01,16.99 8.21,-5.64 16.28,-11.51 24.35,-17.37 2.73,-1.97 5.72,-4.1 9.28,-3.99 18.92,-0.62 37.77,-2.56 56.69,-3.22 6.65,3.26 11.5,9.58 17.81,13.62 1.04,-5.07 2.15,-10.12 3.49,-15.12 44.84,-2.48 89.66,-5.28 134.47,-8.09 -4.23,21.05 -8.36,42.13 -12.97,63.1 -10.77,0.85 -21.53,1.61 -32.33,1.84 -2.45,0.45 -6.78,-0.31 -7.24,3.05 -3.75,17.1 -6.96,34.35 -10.61,51.48 2.86,-0.07 5.74,-0.16 8.64,-0.21 -3.36,17.1 -6.8,34.2 -10.44,51.26 -24.47,1.56 -48.96,2.98 -73.45,4.4 2.65,-17.21 6.84,-34.15 10.04,-51.27 2.91,-0.25 5.81,-0.46 8.75,-0.63 3.85,-17.91 7.58,-35.84 10.99,-53.83 -17.62,0.33 -35.2,1.88 -52.76,3.19 6.59,5.78 13.22,11.55 20.12,16.95 -3.35,20.28 -8.1,40.32 -11.95,60.52 -0.87,3.11 -0.82,7.13 -4.06,8.86 -9.17,6.11 -17.68,13.29 -27.24,18.79 -16.09,1.51 -32.41,1.95 -48.58,3.34 -4.14,0.19 -8.32,0.92 -12.43,0.3 -6.09,-4.06 -11.38,-9.2 -17.18,-13.67 -1.22,5.05 -2.27,10.12 -3.14,15.24 -15.48,0.82 -30.95,1.72 -46.41,2.95 -2.22,0.05 -4.75,0.71 -6.52,-1.03 -1.39,-4.04 -2.08,-8.26 -3.22,-12.36 -1.42,4.58 -2.57,9.22 -3.57,13.91 -24.41,1.69 -48.87,2.89 -73.26,4.66 0.55,-6.02 2.02,-11.88 3.03,-17.81 -8.59,5.41 -16.68,11.57 -24.98,17.4 -3.02,2.52 -7.15,1.95 -10.79,2.33 -18.12,0.79 -36.22,2.39 -54.36,3.1 -2.38,0.39 -4.06,-1.71 -5.83,-2.87 -6.66,-5.75 -13.54,-11.26 -20.3,-16.88 -1.98,7.12 -3.29,14.41 -4.82,21.64 -46.42,2.72 -92.83,6.12 -139.28,8.1 3.2,-17.1 7.14,-34.04 10.26,-51.14 2.95,-0.14 5.91,-0.25 8.89,-0.39 4.34,-21.92 9.06,-43.76 13.34,-65.69 -3.75,0.33 -7.67,-0.06 -11.25,1.23 -11.22,17.84 -21.89,36.05 -32.96,54 -2.52,3.65 -3.22,8.09 -4.18,12.32 2.87,-0.02 5.73,-0.05 8.64,-0.03 -3.37,16.96 -7.02,33.85 -10.33,50.82 -8.18,1.33 -16.45,1.25 -24.68,1.68 -16.41,1.1 -32.8,2.26 -49.2,3.02 3.17,-17.04 6.95,-33.95 10.29,-50.94 2.97,-0.49 5.97,-0.94 8.99,-1.35 1.25,-6.77 3.31,-13.73 1.61,-20.63 -3.1,-14.39 -5.84,-28.84 -9.13,-43.19 -2.08,0.11 -4.14,0.21 -6.17,0.3 -0.82,3.82 -1.75,7.61 -2.56,11.43 -18.63,1.35 -37.3,2.18 -55.93,3.35 0.68,-3.79 1.34,-7.58 1.86,-11.38 -2.38,0.01 -4.75,0.04 -7.12,0.06 -4.48,22.04 -9.63,44.01 -13.15,66.22 2.32,-0.38 4.67,-0.79 7.04,-1.17 0.87,-3.79 1.77,-7.56 2.73,-11.32 18.64,-1.1 37.25,-2.16 55.89,-3.19 -3.35,14.62 -5.18,29.7 -9.57,44.02 -9.79,6.83 -19.35,14.09 -29.55,20.23 -12.47,1.5 -25.07,1.9 -37.62,2.48 -8.59,0.54 -17.29,1.82 -25.87,1.01 -5.67,-3.98 -10.62,-8.87 -16.01,-13.21 -1.56,4.92 -2.64,9.98 -3.54,15.06 -17.55,1.14 -35.1,2.05 -52.65,3.08 -1.13,-4.44 -2.2,-8.91 -3.7,-13.25 -1.17,4.53 -2.05,9.13 -3.06,13.69 -52.42,3.35 -104.85,6.32 -157.27,9.52 -5.48,-0.14 -10.63,1.55 -15.82,2.88 -31.04,2.19 -62.12,3.79 -93.16,5.73 2.95,-18.87 7.89,-37.41 10.96,-56.26 -6.19,7.69 -11.75,15.87 -17.51,23.89 -3.6,-9.35 -6.6,-18.92 -9.98,-28.35 -4.65,20.8 -8.66,41.72 -12.95,62.58 -32.62,1.58 -65.18,4.37 -97.83,5.53 4.46,-21.38 8.76,-42.79 13.12,-64.19 4.65,-0.41 9.31,-0.76 13.97,-1.12 7.23,-36.84 15.11,-73.55 22.42,-110.39 -4.4,0.13 -8.82,0.22 -13.23,0.35 4.42,-21.27 8.84,-42.54 13.01,-63.85 12.27,-1.61 24.68,-1.35 37,-2.5 13.77,-0.68 27.5,-2.04 41.29,-2.29 6.77,19.09 12.99,38.39 20.1,57.37 15.12,-20.29 29.41,-41.23 44.76,-61.32zm14.32 10.98l0 0c-3.49,0.5 -7.95,-0.24 -10.02,3.35 -17.58,24.23 -35.09,48.53 -52.68,72.77 -2.07,-4.39 -3.74,-8.95 -5.26,-13.55 -6.38,-18.98 -13.34,-37.75 -19.48,-56.81 -19.88,0.19 -39.67,2.51 -59.51,3.25 -3.13,13.11 -6.05,26.31 -8.06,39.64 4.14,-0.04 8.28,-0.18 12.43,-0.29 -0.65,6.16 -1.99,12.19 -3.3,18.22 -7.59,37.06 -15.19,74.12 -22.69,111.2 -0.73,1.91 -0.49,4.7 -2.59,5.76 -4.06,0.54 -8.16,0.41 -12.24,0.49 -2.84,13.31 -5.65,26.64 -8.11,40.01 24.08,-0.93 48.06,-3.19 72.14,-4.01 3.13,-13.33 6.22,-26.73 8.07,-40.3 -3.99,0.16 -7.96,0.52 -11.92,0.87 4.93,-26.34 10.33,-52.59 16.14,-78.74 2.68,5.18 4.51,10.74 6.36,16.25 6.02,17.59 12.1,35.16 18.36,52.66 18.68,-24.4 35.97,-49.82 54.43,-74.37 -4.81,26.59 -10.48,53.05 -16.14,79.5 -4.2,0.16 -8.38,0.39 -12.56,0.63 -2.31,13.32 -5.41,26.51 -7.98,39.79 24.22,-1.07 48.4,-2.86 72.59,-4.23 2.63,-13.22 5.52,-26.39 8.1,-39.62 -4.46,0.05 -8.88,0.24 -13.31,0.47 8.96,-45.17 18.06,-90.33 27.74,-135.35 4.25,-0.09 8.53,-0.28 12.79,-0.45 2.86,-13.22 5.38,-26.52 8.11,-39.78 -17.17,0.19 -34.24,2.09 -51.41,2.64zm1059.03 4.4l0 0c-20.72,1.69 -41.5,2.13 -62.18,4.12 -2.48,12.72 -5.64,25.32 -7.47,38.14 10.22,-0.32 20.4,-1.53 30.63,-1.77 0.75,-3.73 1.55,-7.45 2.26,-11.2 2.7,-0.39 5.42,-0.75 8.16,-1.04 -5.6,30.07 -12.17,59.96 -18.15,89.94 -2.94,0.41 -5.88,0.81 -8.78,1.23 -1.99,8.72 -3.74,17.47 -5.53,26.23 16.23,-0.35 32.39,-1.83 48.6,-2.42 2.02,-8.79 3.6,-17.7 5.62,-26.49 -2.89,-0.14 -5.78,-0.25 -8.62,-0.38 5.83,-29.95 12.26,-59.8 18.19,-89.72 2.62,-0.14 5.28,-0.27 7.94,-0.39 -0.44,3.74 -1.05,7.46 -1.7,11.18 10.28,-0.3 20.51,-1.38 30.81,-1.65 2.33,-12.74 5.3,-25.36 7.57,-38.11 -15.82,0.19 -31.56,1.76 -47.35,2.33zm-149.47 9.4l0 0c-5.63,2.95 -10.43,7.23 -15.74,10.7 -3.2,2.48 -7.74,4.47 -8.1,9.05 -3.57,17.16 -7.06,34.34 -10.45,51.54 3.91,3.24 7.8,6.49 11.68,9.79 2.31,1.75 4.5,4.45 7.77,3.85 12.95,-0.63 25.88,-1.78 38.88,-1.88 -1.8,10.54 -4.22,20.96 -6.27,31.44 -10.2,0.33 -20.37,1.42 -30.57,1.3 0.66,-3.59 1.39,-7.14 2.1,-10.71 -10.23,0.24 -20.48,0.49 -30.67,1.44 -1.99,7.73 -3.45,15.6 -4.86,23.48 5.84,4.32 10.8,9.99 17.26,13.42 8.95,0.5 17.86,-1.12 26.81,-1.39 8.64,-0.63 17.4,-0.52 25.97,-2.01 6.9,-3.87 12.98,-9 19.54,-13.42 3.63,-1.94 3.9,-6.35 4.72,-9.93 3.08,-15.87 6.55,-31.66 9.55,-47.53 -5.72,-4.56 -10.58,-10.58 -17.16,-13.78 -13.65,0.14 -27.24,1.95 -40.9,1.7 1.3,-10.59 4.15,-20.9 6.11,-31.37 10.03,-0.36 20.04,-1.22 30.07,-1.38 -0.46,3.87 -0.94,7.73 -1.27,11.61 9.98,-1.45 20.09,-1.36 30.16,-1.91 1.98,-7.86 3.68,-15.81 5.01,-23.83 -5.67,-4.31 -10.77,-9.31 -16.52,-13.5 -17.72,0.52 -35.43,2.09 -53.12,3.32zm-142.47 8.24l0 0c-2.21,8.7 -3.82,17.53 -5.27,26.39 2.67,0.08 5.35,0.15 8.07,0.22 -5.44,30.01 -12.16,59.81 -18.12,89.75 -3.04,0.47 -6.06,0.94 -9.06,1.45 -1.67,8.59 -3.46,17.16 -4.99,25.77 16.22,0.01 32.36,-1.71 48.54,-2.4 1.74,-8.86 3.6,-17.7 5.38,-26.56 -2.92,-0.08 -5.79,-0.13 -8.66,-0.17 2.19,-10.49 4.15,-21 6.6,-31.43 2.87,-0.08 5.76,-0.15 8.68,-0.25 4.91,18.93 9.29,38.01 14.29,56.92 10.96,-0.85 21.95,-1.5 32.94,-1.94 2.03,-8.86 3.71,-17.79 5.54,-26.68 -3.98,0.06 -7.93,0.15 -11.87,0.23 -2.47,-8.87 -4.73,-17.79 -6.79,-26.74 -0.13,-1.74 -1.24,-4.27 0.58,-5.48 6.55,-5.7 13.9,-10.39 20.8,-15.65 2.63,-1.66 2.27,-5.18 3.15,-7.82 2.89,-15.58 6.78,-30.98 9.19,-46.64 -4.86,-4.26 -9.61,-8.7 -14.85,-12.51 -3.43,-2.48 -7.85,-0.56 -11.69,-0.64 -24.17,1.04 -48.28,3.06 -72.46,4.18zm-63.4 4.04l0 0c-1.87,8.88 -3.88,17.72 -5.33,26.66 2.84,0.01 5.7,-0.02 8.59,0 -6.03,29.84 -12.21,59.65 -18.21,89.49 -11.32,0.95 -22.66,1.87 -33.99,2.37 5.71,-30.03 12.09,-59.94 18.19,-89.91 2.98,-0.45 5.96,-0.94 8.98,-1.4 1.71,-8.65 3.44,-17.28 5.23,-25.91 -16.16,0.12 -32.23,1.78 -48.37,2.32 -2.07,8.89 -3.79,17.84 -5.71,26.76 2.89,-0.03 5.78,-0.08 8.71,-0.09 -6.72,33.93 -13.81,67.78 -20.64,101.7 5.23,4.82 10.6,9.52 16.46,13.56 12.58,0.64 25.12,-1.62 37.72,-1.72 6.49,-0.52 13.28,0.19 19.53,-1.86 6.59,-4.44 13.12,-8.97 19.58,-13.6 1.98,-1.2 3.13,-3.15 3.49,-5.44 6.89,-32.86 13.39,-65.83 20.32,-98.69 2.88,-0.19 5.77,-0.35 8.69,-0.52 1.78,-8.94 3.91,-17.81 5.34,-26.83 -16.21,0.92 -32.39,2.01 -48.58,3.11zm-128.51 7.83l0 0c-1.55,8.75 -3.39,17.45 -5.18,26.15 2.89,0.16 5.8,0.3 8.73,0.43 -2.46,10.26 -4.21,20.68 -6.5,30.98 -11.35,1.59 -22.88,0.79 -34.22,2.4 1.6,-10.19 3.82,-20.26 6,-30.32 2.37,-2.22 6.19,-1.75 9.21,-2.7 1.8,-8.56 3.66,-17.1 5.08,-25.74 -16.07,0.07 -32.07,1.69 -48.13,2.39 -2.21,8.79 -4.26,17.67 -5.35,26.68 2.62,0.02 5.24,0.03 7.9,0.08 -5.39,30.08 -11.94,59.97 -18.21,89.89 -2.87,0.21 -5.73,0.4 -8.57,0.62 -1.91,8.87 -3.74,17.75 -5.32,26.69 9.01,-0.37 18.01,-0.87 27.01,-1.58 7.23,-0.57 14.56,-0.11 21.7,-1.72 1.61,-8.63 3.44,-17.22 5.29,-25.81 -2.92,-0.03 -5.85,-0.07 -8.73,-0.11 2.02,-10.48 4.02,-20.98 6.45,-31.4 11.28,-1 22.58,-1.75 33.92,-1.77 -1.18,10.42 -4.25,20.51 -5.86,30.87 -3.05,0.44 -6.06,0.82 -9.09,1.18 -1.74,8.86 -3.65,17.67 -5.17,26.58 16.17,-1.05 32.36,-1.88 48.53,-3.16 1.87,-8.73 4.09,-17.42 4.97,-26.32 -2.7,-0.05 -5.39,-0.1 -8.04,-0.14 4.96,-27.46 11.23,-54.65 16.49,-82.05 0.72,-2.65 0.72,-5.78 2.65,-7.92 2.59,-0.34 5.2,-0.38 7.83,-0.53 1.96,-8.85 3.68,-17.76 5.56,-26.63 -16.34,0.58 -32.65,1.65 -48.95,2.96zm-127.04 7.16l0 0c-1.82,8.29 -4.35,16.51 -4.8,25.02 0.85,1.39 1.83,2.72 2.9,3.98 -4.58,8.12 -8.92,16.41 -14.18,24.11 -1.64,-7.89 -3.33,-15.78 -4.5,-23.76 1.74,-1.12 3.98,-1.66 5.31,-3.36 2.18,-8.23 3.57,-16.65 5.07,-25.01 -16.24,1.15 -32.53,1.46 -48.72,3.14 -1.37,8.89 -3.68,17.59 -5.29,26.45 3.98,0 7.96,-0.02 11.96,0.08 3.23,16.58 6.74,33.11 10.24,49.62 1.11,5.45 2.8,11.07 1.49,16.66 -1.44,7.11 -3.05,14.18 -4.31,21.32 -2.95,0.46 -5.89,0.87 -8.83,1.26 -2.02,8.8 -3.6,17.69 -5.45,26.51 16.24,-0.69 32.42,-2.15 48.65,-2.97 1.94,-8.82 3.71,-17.7 5.43,-26.57 -2.66,-0.03 -5.32,-0.05 -7.95,-0.08 2.05,-11.18 2.52,-23.31 9.19,-32.95 12.01,-19.44 23.54,-39.16 35.7,-58.52 3.2,-0.5 7.01,0.38 9.8,-1.53 2.25,-8.5 3.67,-17.2 5.39,-25.82 -15.73,0.52 -31.38,2.26 -47.1,2.42zm-147.77 9.3l0 0c-6.04,3.04 -11.03,7.77 -16.75,11.35 -2.83,2.21 -6.95,3.89 -7.23,7.97 -6.9,33.19 -13.55,66.43 -20.42,99.64 -0.64,3.8 -2.16,7.67 -1.47,11.57 4.96,4.57 10.09,9.11 15.67,12.92 12.39,0.52 24.76,-1.6 37.17,-1.72 6.04,-0.41 12.28,0.16 18.16,-1.66 6.06,-3.19 11.36,-7.63 17.03,-11.43 2.34,-1.9 5.67,-3.32 6.37,-6.57 1.77,-6.92 3.15,-13.93 4.18,-21 -9.81,0.93 -19.67,0.85 -29.48,1.62 -3.14,2.71 -2.4,8.06 -3.68,11.88 -10.89,-0.08 -21.66,1.5 -32.53,1.77 5.75,-30.11 12.16,-60.1 18.32,-90.13 10.74,-1.22 21.54,-1.49 32.34,-1.72 -0.6,3.71 -1.25,7.4 -1.77,11.11 10.07,-0.47 20.15,-1.32 30.24,-1.42 2.38,-7.7 3.68,-15.68 5.22,-23.57 -4.08,-3.38 -8.19,-6.73 -12.23,-10.14 -2.31,-1.74 -4.6,-4.25 -7.76,-3.66 -17.13,1.17 -34.29,1.8 -51.38,3.19zm624.7 0.88l0 0c-0.46,2.28 -0.9,4.53 -1.33,6.81 1.77,-0.03 3.56,-0.07 5.36,-0.08 0.6,-2.29 1.21,-4.58 1.84,-6.87 -1.97,0.05 -3.93,0.1 -5.87,0.14zm-734.34 5.53l0 0c-11.12,1.26 -22.38,0.8 -33.46,2.51 -1.64,8.67 -3.43,17.32 -5.32,25.96 2.87,0.17 5.78,0.33 8.68,0.49 -6.01,29.73 -12.34,59.4 -18.09,89.18 -3.08,0.53 -6.14,1.02 -9.19,1.48 -1.72,8.84 -3.57,17.67 -5.29,26.51 16.25,-1.39 32.57,-1.53 48.82,-3.11 1.6,-8.82 3.55,-17.59 5.2,-26.4 -2.89,-0.03 -5.75,-0.01 -8.61,-0.06 1.58,-8.42 3.57,-16.74 5.13,-25.15 0.54,-2.17 0.52,-4.82 2.47,-6.32 2.63,-0.27 5.3,-0.28 7.99,-0.33 4.15,19.04 9.33,37.88 13.98,56.81 10.13,-0.54 20.22,-1.58 30.37,-1.74 2.75,0.48 3.19,-3.03 3.74,-4.91 1.53,-7.26 3.05,-14.56 4.04,-21.93 -3.88,0.1 -7.75,0.21 -11.62,0.32 -2.48,-10.41 -5.63,-20.66 -7.5,-31.19 7.68,-6.47 16.55,-11.53 23.8,-18.5 3.01,-10.33 4.21,-21.13 6.71,-31.6 1.01,-7.12 3.93,-14.1 3.61,-21.35 -3.41,-3.57 -7.45,-6.39 -11.14,-9.64 -2.09,-1.68 -4.22,-3.9 -7.12,-3.56 -15.76,0.33 -31.46,2.01 -47.2,2.53zm-144.68 9.06l0 0 -0.78 0.76c-1.94,8.48 -3.77,17.04 -4.62,25.72 2.6,0.05 5.22,0.1 7.86,0.16 -5.31,27.79 -11.37,55.45 -16.8,83.23 -0.62,2.22 -0.71,4.77 -2.26,6.6 -2.59,0.31 -5.19,0.38 -7.77,0.5 -2.27,8.8 -3.72,17.78 -5.54,26.67 12.13,-0.23 24.21,-1.47 36.32,-2.03 20.3,-1.6 40.69,-1.98 60.96,-3.91 2.7,-12.7 5.53,-25.4 7.71,-38.21 -10.25,0.3 -20.42,1.77 -30.67,1.65 -1.42,3.86 -0.75,9.31 -4.2,11.92 -8.16,0.9 -16.4,0.63 -24.6,1.1 1.71,-10.51 4.14,-20.9 6.32,-31.32 13.89,-0.78 27.79,-1.65 41.7,-2.44 2.16,-8.85 3.96,-17.79 5.37,-26.81 -13.79,0.4 -27.52,1.83 -41.31,2.06 1.6,-10.66 3.76,-21.26 6.55,-31.66 8.69,-0.18 17.34,-0.9 26.03,-0.97 -0.82,3.79 -1.6,7.6 -2.1,11.45 10.24,-0.95 20.54,-1.42 30.8,-2.21 2.8,-12.71 5.28,-25.47 7.83,-38.23 -32.29,1.77 -64.56,3.59 -96.8,5.97zm702.08 -3.5l0 0c-4.04,21.77 -9.7,43.29 -12.71,65.22 2.1,-0.15 4.24,-0.28 6.38,-0.42 4.1,-22.06 9.22,-43.93 13.21,-66.02 -2.32,0.4 -4.61,0.81 -6.88,1.22zm-65.04 3.52l0 0c-4.42,21.99 -9.25,43.93 -13.37,66 3.01,-0.46 6.04,-0.95 9.09,-1.39 4.2,-21.7 8.68,-43.36 13.25,-64.99 -3,0.11 -5.99,0.23 -8.97,0.38zm-63.43 4.26l0 0c-4.36,21.74 -8.82,43.45 -13.34,65.17 1.69,-0.04 5.07,-0.07 6.76,-0.1 3.46,-13.78 5.73,-27.85 8.82,-41.73 1.44,-8.13 3.79,-16.12 4.47,-24.38 -2.26,0.33 -4.48,0.68 -6.71,1.04zm-65.4 3.46l0 0c-0.46,2.3 -0.92,4.59 -1.31,6.9 3.08,-0.13 6.2,-0.25 9.33,-0.4 0.33,-2.35 0.7,-4.68 1.07,-7.04 -3.04,0.19 -6.07,0.38 -9.09,0.54zm290.74 33.73l0 0c1.14,4.59 2.3,9.17 3.69,13.69 2.34,-0.37 4.71,-0.71 7.09,-1.06 0.59,-3.78 1.38,-7.49 2.18,-11.21 8.13,-0.59 16.28,-0.89 24.41,-1.57 -5.57,-5.27 -11.68,-9.9 -17.49,-14.89 -6.7,4.93 -13.39,9.86 -19.88,15.04zm-815.79 -2.01l0 0c-4.78,18.03 -7.53,36.57 -11.65,54.79 1.25,-0.17 3.74,-0.52 4.99,-0.69 3.76,-18.11 7.53,-36.23 10.99,-54.4 -1.07,0.08 -3.24,0.22 -4.33,0.3zm883.83 4.72l0 0c-0.26,2.4 -0.49,4.8 -0.67,7.2 1.76,-0.31 3.54,-0.65 5.34,-0.96 0.13,-2.26 0.27,-4.52 0.44,-6.76 -1.73,0.17 -3.44,0.35 -5.11,0.52zm-783.48 0.55l0 0c-2.56,14.17 -6.14,28.14 -8.4,42.37 4.44,-0.13 8.9,-0.29 13.36,-0.43 2.9,-14.19 6.01,-28.34 8.6,-42.6 -4.53,0.16 -9.05,0.4 -13.56,0.66zm412.57 21.59l0 0c-0.33,2.24 -0.66,4.5 -0.96,6.74 3.03,-0.05 6.08,-0.11 9.14,-0.19 0.4,-2.27 0.81,-4.55 1.23,-6.82 -3.14,0.06 -6.28,0.16 -9.41,0.27zm-306.65 11.73l0 0c1.12,4.52 2.27,9.03 3.47,13.53 2.35,-0.08 4.72,-0.17 7.11,-0.25 1.61,-8.15 3.49,-16.23 4.86,-24.41 -5.29,3.52 -10.36,7.33 -15.44,11.13zm-339.28 2.76l0 0c-2.01,6.76 -3.19,13.69 -4.33,20.63 3.78,-0.15 7.55,-0.29 11.33,-0.48 -2.12,-6.79 -4.52,-13.48 -7,-20.15zm41.48 18.04l0 0c2.8,-0.13 5.61,-0.3 8.43,-0.46 0.98,-4.88 2.12,-9.71 2.89,-14.64 -4.29,4.61 -7.85,9.85 -11.32,15.1zm139.43 -2.66l0 0c-1.09,1.55 -1.14,3.08 -0.13,4.6 3.02,1.09 3.38,-7.08 0.13,-4.6zm724.23 -115.31c10.45,-0.9 20.92,-1.69 31.44,-1.82 -2.01,10.49 -4.2,20.93 -6.3,31.38 -10.38,0.55 -20.72,1.56 -31.09,1.96 1.02,-10.66 4.23,-20.96 5.95,-31.52zm10.17 11.16l0 0c-0.51,2.34 -1,4.68 -1.45,7.03 2.22,-0.14 4.48,-0.28 6.74,-0.44 0.11,-2.23 0.25,-4.44 0.41,-6.66 -1.93,0.03 -3.82,0.04 -5.7,0.07zm-619.66 25.46c10.49,-0.44 20.94,-1.55 31.44,-1.77 -2.13,10.51 -3.89,21.13 -6.46,31.56 -10.37,0.48 -20.7,1.61 -31.09,1.66 1.47,-10.59 4.1,-20.97 6.11,-31.45zm9.68 11.9l0 0c-0.3,2.26 -0.57,4.52 -0.82,6.76 2.02,-0.09 4.06,-0.2 6.13,-0.3 0.48,-2.4 0.97,-4.8 1.46,-7.2 -2.27,0.24 -4.53,0.47 -6.77,0.74zm-464.02 45.04c17.32,-0.38 34.57,-2.44 51.89,-2.59 -0.65,5.73 -2.01,11.33 -3.13,16.99 -5.7,26.57 -10.66,53.3 -16.45,79.86 -7.98,0.19 -15.93,0.66 -23.84,1.63 -11.5,55.78 -22.88,111.6 -34.27,167.4 -3.49,17.95 -7.74,35.78 -10.64,53.84 12.54,0 24.99,-1.84 37.53,-1.95 2.56,-10.38 4.75,-20.86 6.44,-31.41 7.9,-1.25 15.9,-1.44 23.89,-1.67 28.49,-1.76 56.94,-3.97 85.47,-5.02 -2.84,18.09 -7.35,35.87 -10.62,53.87 3.82,-0.08 7.64,-0.22 11.45,-0.66 31.24,-72.07 61.88,-144.4 93.2,-216.43 32.91,-1.22 65.74,-4.12 98.64,-5.47 1.9,56.14 2.97,112.28 4.85,168.42 0.25,13.89 0.79,27.77 0.87,41.67 6.24,-0.27 12.42,-0.97 18.66,-1.28 -4.54,24.65 -9.98,49.12 -14.95,73.69 -37.88,1.47 -75.68,4.55 -113.53,6.49 4.74,-23.05 9.49,-46.12 14.08,-69.21 -1.38,-0.01 -4.18,-0.03 -5.57,-0.04 -4.86,23.19 -9.38,46.43 -14.27,69.61 -34.47,2.2 -68.94,4.11 -103.4,6.33 -5.77,1 -11.52,2.15 -17.4,2.23 -89.49,5.26 -178.97,10.8 -268.47,16.19 3.58,-22.65 9.16,-44.93 13.36,-67.46 2.02,-9.96 3.91,-19.96 6.39,-29.81 7.9,-0.27 15.78,-0.57 23.62,-1.39 15.04,-73.85 30.41,-147.63 45.13,-221.53 -7.89,0.23 -15.74,0.91 -23.6,1.45 6.39,-32.42 13.1,-64.77 19.7,-97.14 34.98,-2.57 70.01,-3.98 104.97,-6.61zm-61.66 16.04l0 0c-11.13,1.4 -22.42,0.5 -33.5,2.37 -4.14,23.98 -10.41,47.6 -13.84,71.7 7.74,0.05 15.48,-0.59 23.22,-0.84 -16.77,82.05 -33.75,164.06 -50.22,246.15 -8.06,0.63 -16.16,0.85 -24.22,1.69 -4.7,24.02 -9.88,47.95 -14.49,71.99 9.34,-0.46 18.74,-0.38 28.06,-1.46 75.83,-4.32 151.63,-9.39 227.47,-13.53 7.07,-34.66 14.33,-69.28 21.2,-103.98 -8.29,-0.17 -16.55,0.64 -24.79,1.41 -19.74,0.6 -39.43,2.43 -59.15,3.38 -2.51,10.48 -4.29,21.13 -6.8,31.61 -21.02,0.96 -41.97,3.14 -63.02,3.44 16.45,-81.96 33.55,-163.79 50.07,-245.75 7.94,-1.72 16.81,0.63 24.2,-2.75 5.14,-23.65 9.7,-47.45 14.67,-71.15 -32.97,1.52 -65.89,3.85 -98.86,5.72zm280.38 109.99l0 0c-30.77,72.14 -61.91,144.13 -92.86,216.21 -4.83,0.41 -10.15,-0.66 -14.62,1.28 -3.68,15.82 -6.76,31.8 -9.87,47.76 29.4,-0.96 58.73,-3.75 88.13,-4.89 3.27,-16.18 7.47,-32.24 9.39,-48.66 -5.11,0.14 -10.22,0.25 -15.32,0.28 3.12,-6.84 6.05,-13.77 8.99,-20.68 17.76,-0.27 35.42,-2.77 53.2,-2.55 0.11,6.57 0.04,13.17 0.22,19.75 -5.21,0.48 -10.39,1.08 -15.6,1.43 -2.89,16.09 -7.05,31.96 -9.37,48.14 29.33,-1.5 58.65,-3.08 87.92,-5.27 3.49,-15.97 6.77,-31.96 9.84,-47.99 -5.04,0.05 -10.07,0.13 -15.1,0.36 -1.47,-47.6 -2.32,-95.24 -4.12,-142.85 -0.36,-22.39 -0.82,-44.76 -1.77,-67.1 -26.38,1.1 -52.72,3.04 -79.06,4.78zm871.37 -64.75c34.03,-2.39 68.1,-4.24 102.13,-6.32 2.27,-0.4 3.98,1.52 5.73,2.67 11.95,9.91 23.73,20.04 35.76,29.87 -3.42,19.76 -7.91,39.29 -11.7,58.96 -27.16,1.31 -54.27,3.38 -81.43,4.72 1.39,-6.87 2.97,-13.72 4,-20.67 -10.28,-0.07 -20.5,0.83 -30.73,1.57 -2.35,11.08 -4.44,22.21 -6.85,33.28 21.9,-1.06 43.82,-3.39 65.75,-3.39 13.67,10.01 26.19,21.76 39.35,32.53 -7.27,35.87 -14.61,71.71 -21.97,107.56 -0.6,2.19 -0.6,4.99 -2.92,6.15 -12.71,8.83 -25.26,17.89 -37.82,26.94 -3.88,2.68 -7.61,6.4 -12.69,6.19 -31.04,1.79 -62.1,3.57 -93.14,5.62 -3.34,-0.14 -7.36,1.2 -9.89,-1.61 -12.43,-10.25 -24.87,-20.48 -37.3,-30.71 3.48,-19.74 7.84,-39.32 11.89,-58.94 27.04,-1.35 54.05,-3.41 81.09,-4.77 -1.01,7.02 -2.75,13.92 -3.98,20.92 10.32,-0.43 20.68,-0.82 30.98,-1.94 2.05,-11.02 4.81,-21.92 6.38,-33.03 -20.58,1.21 -41.15,2.51 -61.74,3.53 -3.93,0.67 -6.65,-2.56 -9.4,-4.72 -10.21,-8.79 -20.79,-17.15 -31.04,-25.89 -3.29,-2.07 -1.47,-6.3 -1.12,-9.37 7.63,-34.75 13.72,-69.88 21.79,-104.51 9.47,-8.02 20.23,-14.5 30.16,-21.98 6.33,-4.04 11.92,-9.44 18.71,-12.66zm15.25 11l0 0c-5.16,0.38 -10.91,-0.19 -15.25,3.16 -11.37,8.1 -22.63,16.33 -34.09,24.25 -1.69,1.38 -4.08,2.45 -4.49,4.82 -6.8,32.78 -13.34,65.64 -20.11,98.45 10.4,8.37 20.05,17.84 31.15,25.25 25.19,-1.27 50.35,-2.89 75.54,-4.49 -3.81,19.46 -7.91,38.83 -11.81,58.25 -18.59,0.47 -37.11,2.07 -55.66,3.17 0.65,-6.99 2.4,-13.81 3.69,-20.71 -18.77,0.05 -37.43,1.99 -56.16,3 -2.83,14.11 -5.7,28.21 -8.5,42.33 10.22,8.31 20.12,17.13 30.76,24.85 31.16,-1.01 62.23,-4.01 93.37,-5.19 6.27,-1.11 10.83,-6.24 16.04,-9.54 9.21,-7.13 19.47,-12.96 28.14,-20.71 4.56,-17.72 7.29,-35.89 11.43,-53.74 2.76,-15.64 7.04,-31.06 8.91,-46.84 -8.85,-7.13 -17.37,-14.63 -26.15,-21.83 -1.72,-1.1 -3.24,-3.08 -5.43,-2.98 -24.95,1.58 -49.92,3.39 -74.9,4.45 4.39,-19.12 7.74,-38.48 12.15,-57.6 18.58,-1.37 37.18,-2.86 55.85,-3 -1.33,6.92 -3,13.77 -3.84,20.76 18.66,-1.53 37.39,-2.37 56.09,-3.71 2.22,-14.1 6.45,-27.91 7.89,-42.09 -6.87,-7.42 -15.44,-13.01 -22.9,-19.82 -3.03,-2.15 -5.65,-6.14 -9.83,-5.37 -27.29,1.74 -54.57,3.4 -81.89,4.88zm-281.2 4.9c53.76,-3.24 107.51,-6.49 161.28,-9.76 4.51,-0.87 7.47,3.41 10.75,5.76 9.89,8.54 20.02,16.8 29.97,25.28 2.7,1.91 1.07,5.48 0.93,8.16 -7.07,33.76 -13.53,67.66 -20.94,101.33 -13.31,10.94 -27.64,20.7 -41.3,31.25 2.81,11.76 5.82,23.49 8.74,35.24 0.53,1.8 0.94,5.1 3.71,4.2 8.26,-0.96 16.6,-1.2 24.94,-1.28 -4.65,24.32 -10.03,48.51 -14.77,72.82 -26.6,1.72 -53.21,3.32 -79.83,4.8 -5.02,-20.41 -9.93,-40.86 -15.41,-61.15 -4.63,20.87 -8.58,41.87 -12.96,62.8 -37.84,2.62 -75.69,4.75 -113.53,6.8 4.84,-24.43 9.5,-48.92 15.14,-73.17 5.23,-0.11 10.45,-0.35 15.68,-0.79 9.58,-46.64 19.09,-93.3 28.64,-139.96 -5.3,0.19 -10.61,0.52 -15.9,0.73 4.83,-24.38 9.84,-48.72 14.86,-73.06zm9.99 11.51l0 0c-3.09,16.17 -6.66,32.26 -9.69,48.44 5.23,-0.16 10.48,-0.43 15.73,-0.55 -10.58,52.32 -21.37,104.62 -32.01,156.95 -0.76,2.51 -0.74,5.6 -2.87,7.44 -4.95,0.53 -9.9,0.69 -14.83,1.31 -3.21,16.04 -6.41,32.07 -9.81,48.06 29.53,-1.29 59.01,-3.49 88.54,-5.04 3.17,-16.23 6.77,-32.38 9.71,-48.66 -5.18,0.33 -10.34,0.55 -15.52,0.5 3.45,-19.29 7.73,-38.44 11.67,-57.66 5.44,-0.13 10.89,-0.24 16.35,-0.25 8.53,34.37 17.1,68.73 25.68,103.09 19.96,-0.85 39.87,-3.02 59.86,-3.35 3.98,-16.1 7.01,-32.43 10.12,-48.71 -7.14,-0.05 -14.24,0.41 -21.3,1.44 -5.26,-19.03 -10.17,-38.18 -14.65,-57.41 13.69,-10.39 27.56,-20.52 41.3,-30.86 3.38,-1.94 3.71,-6 4.47,-9.41 5.62,-29.72 12.52,-59.2 17.89,-88.94 -9.82,-8.58 -19.58,-17.32 -29.94,-25.17 -50.24,2.4 -100.45,6.03 -150.7,8.78zm49.44 171.1l0 0c-2.27,8.1 -3.71,16.4 -5.37,24.64 3.92,-0.15 7.83,-0.36 11.77,-0.61 -1.99,-8.05 -3.71,-16.19 -6.4,-24.03zm-263.18 -170.36c67.39,-4.03 134.8,-8.05 202.19,-12.25 -6.4,31.5 -12.46,63.09 -19.46,94.47 -27.01,1.69 -54.03,3.2 -81.05,4.85 1.3,-6.95 2.8,-13.87 4.11,-20.82 -7.83,0.35 -15.73,0.08 -23.47,1.46 -2.14,10.88 -4.68,21.68 -6.5,32.62 25.34,-0.7 50.61,-3.13 75.93,-4.11 -4.34,24.51 -9.75,48.81 -14.7,73.2 -25.44,1.66 -50.89,3.07 -76.33,4.58 -2.38,11.07 -4.84,22.14 -6.86,33.3 7.86,-0.37 15.75,-0.56 23.6,-1.61 1.14,-6.99 2.69,-13.89 4.12,-20.82 27.08,-1.65 54.15,-3.52 81.24,-4.79 -6.08,31.53 -12.8,62.92 -19.1,94.41 -67.38,3.54 -134.71,8.13 -202.07,11.94 4.42,-24.49 9.67,-48.84 14.91,-73.17 5.21,-0.24 10.4,-0.65 15.61,-0.93 9.98,-46.55 19.16,-93.29 28.79,-139.92 -5.32,0.22 -10.63,0.52 -15.92,0.78 4.76,-24.45 9.9,-48.81 14.96,-73.19zm153.22 3.02l0 0c-47.68,2.66 -95.35,5.92 -143.05,8.38 -3.54,16.14 -6.86,32.34 -9.87,48.58 5.11,-0.14 10.26,-0.31 15.39,-0.28 -2.56,16.15 -6.54,32.02 -9.54,48.1 -8.05,38.6 -15.64,77.3 -23.71,115.9 -5.32,0.55 -10.66,0.86 -16,1.11 -3.3,16.14 -6.68,32.26 -9.85,48.43 39,-1.84 77.96,-4.69 116.96,-6.91 19.97,-1.25 39.99,-2.12 59.95,-3.84 5.26,-23.05 9.51,-46.34 14.32,-69.49 -18.65,0.85 -37.23,2.57 -55.88,3.33 -1.86,7.11 -3.19,14.34 -4.8,21.49 -16.12,0.22 -32.15,2.04 -48.27,2.37 3.6,-19.14 7.88,-38.15 11.5,-57.29 4.31,-0.49 8.62,-1.12 12.96,-1.28 21.25,-0.77 42.44,-2.89 63.71,-3.56 3.36,-16.25 6.7,-32.52 9.92,-48.79 -25.49,1.26 -50.99,3 -76.47,4.51 3.98,-19.33 7.88,-38.68 11.9,-58 16.17,-0.91 32.31,-2.19 48.52,-2.41 -1.43,6.85 -3.07,13.67 -3.82,20.65 18.56,-0.88 37.03,-2.78 55.62,-3.14 4.83,-23.15 10.02,-46.25 13.95,-69.57 -11.14,0.35 -22.32,0.54 -33.44,1.71zm-275.09 4.48c40.06,-2.59 80.15,-5.05 120.22,-7.28 -4.65,24.4 -10.04,48.63 -14.68,73.03 -6.88,0.72 -13.82,0.77 -20.69,1.55 -5.38,3.86 -9.8,8.92 -14.74,13.34 -17.17,16.23 -34.31,32.49 -51.48,48.74 10.36,26.15 21.46,52 32.15,78 8.78,-0.01 17.48,-1.53 26.29,-1.34 -5.45,24.18 -10.44,48.48 -14.98,72.84 -40.11,2.81 -80.28,4.93 -120.4,7.44 4.02,-24.22 10.17,-48.05 14.21,-72.26 1.74,-0.66 3.49,-1.31 5.24,-1.94 -2.56,-6.76 -5.27,-13.45 -8.21,-20.05 -5.34,4.78 -10.72,9.53 -15.71,14.67 -2.18,1.91 -2.12,5 -2.75,7.59 5.28,-0.22 10.57,-0.52 15.85,-0.77 -4.86,24.39 -9.88,48.77 -14.88,73.15 -18.37,1.03 -36.7,2.48 -55.06,3.19 -19.41,1.19 -38.81,3 -58.25,3.16 4.85,-23.92 9.79,-47.86 14.57,-71.78 4.66,-2.51 10.74,-0.98 16,-1.6 10.15,-46.62 19.26,-93.5 28.86,-140.26 -5.19,0.27 -10.39,0.6 -15.57,0.7 4.38,-24.45 9.78,-48.71 14.69,-73.06 37.77,-2.24 75.52,-4.57 113.29,-6.86 -4.55,22.95 -9.48,45.81 -13.88,68.77 2.9,-3.19 7.26,-5.7 7.85,-10.34 4.13,-19.52 7.86,-39.13 12.06,-58.63zm9.96 11.61l0 0c-3.12,15.83 -6.58,31.61 -9.63,47.44 1.87,0.59 3.76,1.17 5.65,1.77 -21.49,20.88 -43.61,41.09 -65.24,61.8 4.23,-19.91 7.99,-39.93 12.44,-59.81 5.28,-0.25 10.55,-0.57 15.83,-0.82 2.93,-15.51 6.77,-30.87 9.04,-46.5 0.74,-0.19 1.49,-0.38 2.24,-0.57 -2.54,-0.9 -5.19,-1.67 -7.91,-1.31 -27.23,2.04 -54.55,2.89 -81.77,5.23 -3.13,16.1 -6.68,32.1 -9.78,48.2 5.15,-0.12 10.3,-0.36 15.45,-0.49 -3.65,22.43 -9.02,44.55 -13.27,66.87 -6.68,32.53 -13.26,65.07 -19.97,97.58 -5.35,0.27 -10.69,0.51 -16.03,0.72 -3.03,16.21 -6.71,32.29 -9.73,48.5 29.33,-1.12 58.6,-3.63 87.91,-4.89 3.68,-16.09 6.74,-32.31 10.04,-48.48 -5.18,0.05 -10.36,0.21 -15.54,0.22 1.2,-7.56 2.58,-15.11 4.39,-22.56 0.57,-3.11 3.18,-5.12 5.28,-7.23 9.2,-8.69 18.69,-17.09 27.55,-26.13 4.9,9.11 8.3,18.91 12.35,28.4 3.12,8.23 7.29,16.08 9.3,24.7 -4.04,0.19 -8.09,0.34 -12.11,0.52 -3.41,15.96 -6.38,32.02 -10.03,47.92 31.75,-0.73 63.43,-3.44 95.13,-5.3 3.57,-15.9 6.79,-31.87 9.92,-47.85 -6.21,0.06 -12.39,0.32 -18.57,0.52 -12.35,-29.48 -24.39,-59.08 -36.82,-88.53 -0.43,-1.9 -2.8,-4.53 -0.62,-6.13 9.86,-9.74 19.85,-19.36 30.15,-28.64 14.27,-13.69 28.42,-27.51 43.15,-40.69 5.32,-2.04 11.15,-1.42 16.74,-1.79 2.52,-16.27 7.28,-32.19 9.06,-48.58 -31.53,2.1 -63.1,3.58 -94.6,5.91zm-46.99 62.89l0 0c-0.8,4.01 -1.53,8.05 -2.19,12.09 4.77,-3.95 9.43,-8.05 13.34,-12.88 -3.74,0.19 -7.44,0.47 -11.15,0.79zm445.25 -26.82l0 0c-2.17,11.11 -4.68,22.16 -6.7,33.29 10.77,-0.62 21.54,-1.45 32.34,-2.1 2.6,-10.91 4.58,-21.95 6.87,-32.92 -10.85,0.35 -21.71,0.61 -32.51,1.73z"/>
   <path class="fil1" d="M905.04 306.46c13.47,-0.87 26.92,-2.42 40.43,-2.59 -3.79,23.67 -8.54,47.16 -12.41,70.81 39.53,-2.82 79.05,-5.93 118.57,-8.93 16.64,-1.04 33.28,-3 49.93,-3.33 5.59,4.09 10.59,8.92 16.04,13.21 7.1,-4.77 12.55,-12.24 20.51,-15.54 185.18,-10.95 370.4,-21.91 555.6,-32.84 6.35,-0.3 12.68,-1.23 19.04,-0.88 5.39,3.68 9.62,8.76 14.5,13.07 6.17,-4.72 12.08,-9.77 18.15,-14.6 1.57,-1.2 3.2,-2.64 5.33,-2.64 83.08,-4.28 166.17,-8.73 249.27,-13.07 -7.21,37.56 -14.87,75.03 -22.34,112.53 -12.95,0.36 -25.9,0.08 -38.84,0.21 -0.49,2.27 -0.95,4.54 -1.39,6.82 3.31,0.09 6.64,0.15 10.01,0.25 -6.65,32.67 -13.24,65.35 -20.29,97.93 -38.91,2.4 -77.86,4.28 -116.79,6.47 12.32,10.74 24.86,21.27 37.71,31.39 -6.11,30.03 -12.74,59.97 -19.29,89.91 -6.76,-0.03 -13.54,-0.08 -20.28,0.2 5.54,5.72 11.45,11.09 17.53,16.25 -9.02,44.01 -18.4,87.94 -27.41,131.94 -0.18,2.42 -2.13,3.95 -3.97,5.21 -18.68,12.79 -37.18,25.87 -55.69,38.89 -2.43,1.82 -5.43,2.51 -8.37,2.66 -37.56,1.8 -75.08,5.08 -112.62,6.79 -7.62,-4.61 -13.49,-11.53 -20.77,-16.63 -1.06,6.22 -2.08,12.44 -3.33,18.62 -189.04,12.06 -378.15,23.27 -567.22,35.16 -219.51,13.29 -438.99,27.25 -658.5,40.36 9.96,-48.19 19.55,-96.45 29.72,-144.59 8.35,-0.73 16.75,-0.52 25.12,-0.85 11.35,-58.66 23.71,-117.1 34.72,-175.82 -7.99,0.16 -15.95,0.93 -23.94,1.09 9.59,-48.24 20.53,-96.21 30.76,-144.31 64.88,-4.2 129.82,-7.62 194.69,-12.12 1.7,-7.88 3.52,-15.76 4.67,-23.75 -4.53,-0.1 -9.04,-0.11 -13.56,-0.24 6.85,-37.82 14.7,-75.47 21.92,-113.23 30.08,-0.96 60.06,-3.52 90.14,-4.37 -4.26,-0.41 -8.56,-0.73 -12.82,-1.14 12.65,1.34 25.33,0.21 37.97,-0.31 4.06,10.43 7.25,21.2 11.81,31.43 8.53,-11.22 16.52,-22.84 25.11,-34.02 26.87,-1.68 53.7,-3.82 80.58,-5.4zm565.54 439.18c2.69,7.84 4.41,15.98 6.4,24.03 -3.94,0.25 -7.85,0.46 -11.77,0.61 1.66,-8.24 3.1,-16.54 5.37,-24.64zm-422.08 -88.36c3.71,-0.32 7.41,-0.6 11.15,-0.79 -3.91,4.83 -8.57,8.93 -13.34,12.88 0.66,-4.04 1.39,-8.08 2.19,-12.09zm445.25 -26.82c10.8,-1.12 21.66,-1.38 32.51,-1.73 -2.29,10.97 -4.27,22.01 -6.87,32.92 -10.8,0.65 -21.57,1.48 -32.34,2.1 2.02,-11.13 4.53,-22.18 6.7,-33.29zm-706.57 -120.2c3.47,-5.25 7.03,-10.49 11.32,-15.1 -0.77,4.93 -1.91,9.76 -2.89,14.64 -2.82,0.16 -5.63,0.33 -8.43,0.46zm-41.48 -18.04c2.48,6.67 4.88,13.36 7,20.15 -3.78,0.19 -7.55,0.33 -11.33,0.48 1.14,-6.94 2.32,-13.87 4.33,-20.63zm339.28 -2.76c5.08,-3.8 10.15,-7.61 15.44,-11.13 -1.37,8.18 -3.25,16.26 -4.86,24.41 -2.39,0.08 -4.76,0.17 -7.11,0.25 -1.2,-4.5 -2.35,-9.01 -3.47,-13.53zm306.65 -11.73c3.13,-0.11 6.27,-0.21 9.41,-0.27 -0.42,2.27 -0.83,4.55 -1.23,6.82 -3.06,0.08 -6.11,0.14 -9.14,0.19 0.3,-2.24 0.63,-4.5 0.96,-6.74zm-412.57 -21.59c4.51,-0.26 9.03,-0.5 13.56,-0.66 -2.59,14.26 -5.7,28.41 -8.6,42.6 -4.46,0.14 -8.92,0.3 -13.36,0.43 2.26,-14.23 5.84,-28.2 8.4,-42.37zm783.48 -0.55c1.67,-0.17 3.38,-0.35 5.11,-0.52 -0.17,2.24 -0.31,4.5 -0.44,6.76 -1.8,0.31 -3.58,0.65 -5.34,0.96 0.18,-2.4 0.41,-4.8 0.67,-7.2zm-883.83 -4.72c1.09,-0.08 3.26,-0.22 4.33,-0.3 -3.46,18.17 -7.23,36.29 -10.99,54.4 -1.25,0.17 -3.74,0.52 -4.99,0.69 4.12,-18.22 6.87,-36.76 11.65,-54.79zm172.32 -10.06c2.24,-0.27 4.5,-0.5 6.77,-0.74 -0.49,2.4 -0.98,4.8 -1.46,7.2 -2.07,0.1 -4.11,0.21 -6.13,0.3 0.25,-2.24 0.52,-4.5 0.82,-6.76zm643.47 12.07c6.49,-5.18 13.18,-10.11 19.88,-15.04 5.81,4.99 11.92,9.62 17.49,14.89 -8.13,0.68 -16.28,0.98 -24.41,1.57 -0.8,3.72 -1.59,7.43 -2.18,11.21 -2.38,0.35 -4.75,0.69 -7.09,1.06 -1.39,-4.52 -2.55,-9.1 -3.69,-13.69zm-290.74 -33.73c3.02,-0.16 6.05,-0.35 9.09,-0.54 -0.37,2.36 -0.74,4.69 -1.07,7.04 -3.13,0.15 -6.25,0.27 -9.33,0.4 0.39,-2.31 0.85,-4.6 1.31,-6.9zm65.4 -3.46c2.23,-0.36 4.45,-0.71 6.71,-1.04 -0.68,8.26 -3.03,16.25 -4.47,24.38 -3.09,13.88 -5.36,27.95 -8.82,41.73 -1.69,0.03 -5.07,0.06 -6.76,0.1 4.52,-21.72 8.98,-43.43 13.34,-65.17zm63.43 -4.26c2.98,-0.15 5.97,-0.27 8.97,-0.38 -4.57,21.63 -9.05,43.29 -13.25,64.99 -3.05,0.44 -6.08,0.93 -9.09,1.39 4.12,-22.07 8.95,-44.01 13.37,-66zm65.04 -3.52c2.27,-0.41 4.56,-0.82 6.88,-1.22 -3.99,22.09 -9.11,43.96 -13.21,66.02 -2.14,0.14 -4.28,0.27 -6.38,0.42 3.01,-21.93 8.67,-43.45 12.71,-65.22zm63.38 -4.46c1.88,-0.03 3.77,-0.04 5.7,-0.07 -0.16,2.22 -0.3,4.43 -0.41,6.66 -2.26,0.16 -4.52,0.3 -6.74,0.44 0.45,-2.35 0.94,-4.69 1.45,-7.03zm113.56 -6.63c1.94,-0.04 3.9,-0.09 5.87,-0.14 -0.63,2.29 -1.24,4.58 -1.84,6.87 -1.8,0.01 -3.59,0.05 -5.36,0.08 0.43,-2.28 0.87,-4.53 1.33,-6.81zm-939.39 -62.23l0 0c-15.35,20.09 -29.64,41.03 -44.76,61.32 -7.11,-18.98 -13.33,-38.28 -20.1,-57.37 -13.79,0.25 -27.52,1.61 -41.29,2.29 -12.32,1.15 -24.73,0.89 -37,2.5 -4.17,21.31 -8.59,42.58 -13.01,63.85 4.41,-0.13 8.83,-0.22 13.23,-0.35 -7.31,36.84 -15.19,73.55 -22.42,110.39 -4.66,0.36 -9.32,0.71 -13.97,1.12 -4.36,21.4 -8.66,42.81 -13.12,64.19 32.65,-1.16 65.21,-3.95 97.83,-5.53 4.29,-20.86 8.3,-41.78 12.95,-62.58 3.38,9.43 6.38,19 9.98,28.35 5.76,-8.02 11.32,-16.2 17.51,-23.89 -3.07,18.85 -8.01,37.39 -10.96,56.26 31.04,-1.94 62.12,-3.54 93.16,-5.73 5.19,-1.33 10.34,-3.02 15.82,-2.88 52.42,-3.2 104.85,-6.17 157.27,-9.52 1.01,-4.56 1.89,-9.16 3.06,-13.69 1.5,4.34 2.57,8.81 3.7,13.25 17.55,-1.03 35.1,-1.94 52.65,-3.08 0.9,-5.08 1.98,-10.14 3.54,-15.06 5.39,4.34 10.34,9.23 16.01,13.21 8.58,0.81 17.28,-0.47 25.87,-1.01 12.55,-0.58 25.15,-0.98 37.62,-2.48 10.2,-6.14 19.76,-13.4 29.55,-20.23 4.39,-14.32 6.22,-29.4 9.57,-44.02 -18.64,1.03 -37.25,2.09 -55.89,3.19 -0.96,3.76 -1.86,7.53 -2.73,11.32 -2.37,0.38 -4.72,0.79 -7.04,1.17 3.52,-22.21 8.67,-44.18 13.15,-66.22 2.37,-0.02 4.74,-0.05 7.12,-0.06 -0.52,3.8 -1.18,7.59 -1.86,11.38 18.63,-1.17 37.3,-2 55.93,-3.35 0.81,-3.82 1.74,-7.61 2.56,-11.43 2.03,-0.09 4.09,-0.19 6.17,-0.3 3.29,14.35 6.03,28.8 9.13,43.19 1.7,6.9 -0.36,13.86 -1.61,20.63 -3.02,0.41 -6.02,0.86 -8.99,1.35 -3.34,16.99 -7.12,33.9 -10.29,50.94 16.4,-0.76 32.79,-1.92 49.2,-3.02 8.23,-0.43 16.5,-0.35 24.68,-1.68 3.31,-16.97 6.96,-33.86 10.33,-50.82 -2.91,-0.02 -5.77,0.01 -8.64,0.03 0.96,-4.23 1.66,-8.67 4.18,-12.32 11.07,-17.95 21.74,-36.16 32.96,-54 3.58,-1.29 7.5,-0.9 11.25,-1.23 -4.28,21.93 -9,43.77 -13.34,65.69 -2.98,0.14 -5.94,0.25 -8.89,0.39 -3.12,17.1 -7.06,34.04 -10.26,51.14 46.45,-1.98 92.86,-5.38 139.28,-8.1 1.53,-7.23 2.84,-14.52 4.82,-21.64 6.76,5.62 13.64,11.13 20.3,16.88 1.77,1.16 3.45,3.26 5.83,2.87 18.14,-0.71 36.24,-2.31 54.36,-3.1 3.64,-0.38 7.77,0.19 10.79,-2.33 8.3,-5.83 16.39,-11.99 24.98,-17.4 -1.01,5.93 -2.48,11.79 -3.03,17.81 24.39,-1.77 48.85,-2.97 73.26,-4.66 1,-4.69 2.15,-9.33 3.57,-13.91 1.14,4.1 1.83,8.32 3.22,12.36 1.77,1.74 4.3,1.08 6.52,1.03 15.46,-1.23 30.93,-2.13 46.41,-2.95 0.87,-5.12 1.92,-10.19 3.14,-15.24 5.8,4.47 11.09,9.61 17.18,13.67 4.11,0.62 8.29,-0.11 12.43,-0.3 16.17,-1.39 32.49,-1.83 48.58,-3.34 9.56,-5.5 18.07,-12.68 27.24,-18.79 3.24,-1.73 3.19,-5.75 4.06,-8.86 3.85,-20.2 8.6,-40.24 11.95,-60.52 -6.9,-5.4 -13.53,-11.17 -20.12,-16.95 17.56,-1.31 35.14,-2.86 52.76,-3.19 -3.41,17.99 -7.14,35.92 -10.99,53.83 -2.94,0.17 -5.84,0.38 -8.75,0.63 -3.2,17.12 -7.39,34.06 -10.04,51.27 24.49,-1.42 48.98,-2.84 73.45,-4.4 3.64,-17.06 7.08,-34.16 10.44,-51.26 -2.9,0.05 -5.78,0.14 -8.64,0.21 3.65,-17.13 6.86,-34.38 10.61,-51.48 0.46,-3.36 4.79,-2.6 7.24,-3.05 10.8,-0.23 21.56,-0.99 32.33,-1.84 4.61,-20.97 8.74,-42.05 12.97,-63.1 -44.81,2.81 -89.63,5.61 -134.47,8.09 -1.34,5 -2.45,10.05 -3.49,15.12 -6.31,-4.04 -11.16,-10.36 -17.81,-13.62 -18.92,0.66 -37.77,2.6 -56.69,3.22 -3.56,-0.11 -6.55,2.02 -9.28,3.99 -8.07,5.86 -16.14,11.73 -24.35,17.37 -7.32,-5.27 -13.58,-11.89 -21.01,-16.99 -11.77,-0.96 -23.7,0.54 -35.5,1.2 -94.74,5.57 -189.46,11.51 -284.2,17.05 -51.82,3.48 -103.71,5.91 -155.48,9.73 -1.06,5.02 -2.15,10.03 -3.42,15 -6.2,-4.41 -11.33,-10.44 -18.12,-13.89 -20.8,1.26 -41.67,2.02 -62.39,3.96 -10.06,6.52 -19.58,13.86 -29.29,20.89 -6.96,-5.34 -13.34,-11.37 -20.19,-16.82 -1.74,-1.56 -4.31,-0.83 -6.38,-0.99 -44.23,2.7 -88.46,5.33 -132.68,8.02 -22.47,0.95 -44.86,3.31 -67.35,3.66 0.06,-0.9 0.19,-2.73 0.25,-3.63 4.5,-0.68 9.04,-1.2 13.6,-1.53 4.07,-21.49 9.79,-42.74 12.44,-64.46 -26.7,2.11 -53.49,3.16 -80.15,5.18zm-248.17 151.26l0 0c-34.96,2.63 -69.99,4.04 -104.97,6.61 -6.6,32.37 -13.31,64.72 -19.7,97.14 7.86,-0.54 15.71,-1.22 23.6,-1.45 -14.72,73.9 -30.09,147.68 -45.13,221.53 -7.84,0.82 -15.72,1.12 -23.62,1.39 -2.48,9.85 -4.37,19.85 -6.39,29.81 -4.2,22.53 -9.78,44.81 -13.36,67.46 89.5,-5.39 178.98,-10.93 268.47,-16.19 5.88,-0.08 11.63,-1.23 17.4,-2.23 34.46,-2.22 68.93,-4.13 103.4,-6.33 4.89,-23.18 9.41,-46.42 14.27,-69.61 1.39,0.01 4.19,0.03 5.57,0.04 -4.59,23.09 -9.34,46.16 -14.08,69.21 37.85,-1.94 75.65,-5.02 113.53,-6.49 4.97,-24.57 10.41,-49.04 14.95,-73.69 -6.24,0.31 -12.42,1.01 -18.66,1.28 -0.08,-13.9 -0.62,-27.78 -0.87,-41.67 -1.88,-56.14 -2.95,-112.28 -4.85,-168.42 -32.9,1.35 -65.73,4.25 -98.64,5.47 -31.32,72.03 -61.96,144.36 -93.2,216.43 -3.81,0.44 -7.63,0.58 -11.45,0.66 3.27,-18 7.78,-35.78 10.62,-53.87 -28.53,1.05 -56.98,3.26 -85.47,5.02 -7.99,0.23 -15.99,0.42 -23.89,1.67 -1.69,10.55 -3.88,21.03 -6.44,31.41 -12.54,0.11 -24.99,1.95 -37.53,1.95 2.9,-18.06 7.15,-35.89 10.64,-53.84 11.39,-55.8 22.77,-111.62 34.27,-167.4 7.91,-0.97 15.86,-1.44 23.84,-1.63 5.79,-26.56 10.75,-53.29 16.45,-79.86 1.12,-5.66 2.48,-11.26 3.13,-16.99 -17.32,0.15 -34.57,2.21 -51.89,2.59zm1090.09 61.28l0 0c-6.79,3.22 -12.38,8.62 -18.71,12.66 -9.93,7.48 -20.69,13.96 -30.16,21.98 -8.07,34.63 -14.16,69.76 -21.79,104.51 -0.35,3.07 -2.17,7.3 1.12,9.37 10.25,8.74 20.83,17.1 31.04,25.89 2.75,2.16 5.47,5.39 9.4,4.72 20.59,-1.02 41.16,-2.32 61.74,-3.53 -1.57,11.11 -4.33,22.01 -6.38,33.03 -10.3,1.12 -20.66,1.51 -30.98,1.94 1.23,-7 2.97,-13.9 3.98,-20.92 -27.04,1.36 -54.05,3.42 -81.09,4.77 -4.05,19.62 -8.41,39.2 -11.89,58.94 12.43,10.23 24.87,20.46 37.3,30.71 2.53,2.81 6.55,1.47 9.89,1.61 31.04,-2.05 62.1,-3.83 93.14,-5.62 5.08,0.21 8.81,-3.51 12.69,-6.19 12.56,-9.05 25.11,-18.11 37.82,-26.94 2.32,-1.16 2.32,-3.96 2.92,-6.15 7.36,-35.85 14.7,-71.69 21.97,-107.56 -13.16,-10.77 -25.68,-22.52 -39.35,-32.53 -21.93,0 -43.85,2.33 -65.75,3.39 2.41,-11.07 4.5,-22.2 6.85,-33.28 10.23,-0.74 20.45,-1.64 30.73,-1.57 -1.03,6.95 -2.61,13.8 -4,20.67 27.16,-1.34 54.27,-3.41 81.43,-4.72 3.79,-19.67 8.28,-39.2 11.7,-58.96 -12.03,-9.83 -23.81,-19.96 -35.76,-29.87 -1.75,-1.15 -3.46,-3.07 -5.73,-2.67 -34.03,2.08 -68.1,3.93 -102.13,6.32zm-265.95 15.9l0 0c-5.02,24.34 -10.03,48.68 -14.86,73.06 5.29,-0.21 10.6,-0.54 15.9,-0.73 -9.55,46.66 -19.06,93.32 -28.64,139.96 -5.23,0.44 -10.45,0.68 -15.68,0.79 -5.64,24.25 -10.3,48.74 -15.14,73.17 37.84,-2.05 75.69,-4.18 113.53,-6.8 4.38,-20.93 8.33,-41.93 12.96,-62.8 5.48,20.29 10.39,40.74 15.41,61.15 26.62,-1.48 53.23,-3.08 79.83,-4.8 4.74,-24.31 10.12,-48.5 14.77,-72.82 -8.34,0.08 -16.68,0.32 -24.94,1.28 -2.77,0.9 -3.18,-2.4 -3.71,-4.2 -2.92,-11.75 -5.93,-23.48 -8.74,-35.24 13.66,-10.55 27.99,-20.31 41.3,-31.25 7.41,-33.67 13.87,-67.57 20.94,-101.33 0.14,-2.68 1.77,-6.25 -0.93,-8.16 -9.95,-8.48 -20.08,-16.74 -29.97,-25.28 -3.28,-2.35 -6.24,-6.63 -10.75,-5.76 -53.77,3.27 -107.52,6.52 -161.28,9.76zm-203.75 12.25l0 0c-5.06,24.38 -10.2,48.74 -14.96,73.19 5.29,-0.26 10.6,-0.56 15.92,-0.78 -9.63,46.63 -18.81,93.37 -28.79,139.92 -5.21,0.28 -10.4,0.69 -15.61,0.93 -5.24,24.33 -10.49,48.68 -14.91,73.17 67.36,-3.81 134.69,-8.4 202.07,-11.94 6.3,-31.49 13.02,-62.88 19.1,-94.41 -27.09,1.27 -54.16,3.14 -81.24,4.79 -1.43,6.93 -2.98,13.83 -4.12,20.82 -7.85,1.05 -15.74,1.24 -23.6,1.61 2.02,-11.16 4.48,-22.23 6.86,-33.3 25.44,-1.51 50.89,-2.92 76.33,-4.58 4.95,-24.39 10.36,-48.69 14.7,-73.2 -25.32,0.98 -50.59,3.41 -75.93,4.11 1.82,-10.94 4.36,-21.74 6.5,-32.62 7.74,-1.38 15.64,-1.11 23.47,-1.46 -1.31,6.95 -2.81,13.87 -4.11,20.82 27.02,-1.65 54.04,-3.16 81.05,-4.85 7,-31.38 13.06,-62.97 19.46,-94.47 -67.39,4.2 -134.8,8.22 -202.19,12.25zm-121.87 7.5l0 0c-4.2,19.5 -7.93,39.11 -12.06,58.63 -0.59,4.64 -4.95,7.15 -7.85,10.34 4.4,-22.96 9.33,-45.82 13.88,-68.77 -37.77,2.29 -75.52,4.62 -113.29,6.86 -4.91,24.35 -10.31,48.61 -14.69,73.06 5.18,-0.1 10.38,-0.43 15.57,-0.7 -9.6,46.76 -18.71,93.64 -28.86,140.26 -5.26,0.62 -11.34,-0.91 -16,1.6 -4.78,23.92 -9.72,47.86 -14.57,71.78 19.44,-0.16 38.84,-1.97 58.25,-3.16 18.36,-0.71 36.69,-2.16 55.06,-3.19 5,-24.38 10.02,-48.76 14.88,-73.15 -5.28,0.25 -10.57,0.55 -15.85,0.77 0.63,-2.59 0.57,-5.68 2.75,-7.59 4.99,-5.14 10.37,-9.89 15.71,-14.67 2.94,6.6 5.65,13.29 8.21,20.05 -1.75,0.63 -3.5,1.28 -5.24,1.94 -4.04,24.21 -10.19,48.04 -14.21,72.26 40.12,-2.51 80.29,-4.63 120.4,-7.44 4.54,-24.36 9.53,-48.66 14.98,-72.84 -8.81,-0.19 -17.51,1.33 -26.29,1.34 -10.69,-26 -21.79,-51.85 -32.15,-78 17.17,-16.25 34.31,-32.51 51.48,-48.74 4.94,-4.42 9.36,-9.48 14.74,-13.34 6.87,-0.78 13.81,-0.83 20.69,-1.55 4.64,-24.4 10.03,-48.63 14.68,-73.03 -40.07,2.23 -80.16,4.69 -120.22,7.28z"/>
   <path class="fil2" d="M805.73 611.88c26.34,-1.74 52.68,-3.68 79.06,-4.78 0.95,22.34 1.41,44.71 1.77,67.1 1.8,47.61 2.65,95.25 4.12,142.85 5.03,-0.23 10.06,-0.31 15.1,-0.36 -3.07,16.03 -6.35,32.02 -9.84,47.99 -29.27,2.19 -58.59,3.77 -87.92,5.27 2.32,-16.18 6.48,-32.05 9.37,-48.14 5.21,-0.35 10.39,-0.95 15.6,-1.43 -0.18,-6.58 -0.11,-13.18 -0.22,-19.75 -17.78,-0.22 -35.44,2.28 -53.2,2.55 -2.94,6.91 -5.87,13.84 -8.99,20.68 5.1,-0.03 10.21,-0.14 15.32,-0.28 -1.92,16.42 -6.12,32.48 -9.39,48.66 -29.4,1.14 -58.73,3.93 -88.13,4.89 3.11,-15.96 6.19,-31.94 9.87,-47.76 4.47,-1.94 9.79,-0.87 14.62,-1.28 30.95,-72.08 62.09,-144.07 92.86,-216.21zm-78.25 326.14c371.35,-22.91 742.64,-46.34 1114.01,-69.11 -0.4,14.19 0.19,28.45 -1.06,42.61 -481.47,58.51 -962.95,116.96 -1444.4,175.67 4.52,-21.81 0.45,-46.57 -15.3,-63.08 -10.48,-10.91 -14.93,-26.91 -12,-41.7 1.58,-7.2 0.7,-14.58 -0.61,-21.75 119.73,-8.1 239.58,-14.87 359.36,-22.64zm-584.02 -70.94c18.05,-22.95 53.84,-30.51 78.81,-14.58 13.75,8.86 23.29,23.64 26.03,39.75 3.76,21.2 -1.01,42.74 -6.9,63.09 8.78,-10.03 17.39,-20.72 29.37,-27.13 16.72,-10.09 39.16,-10.2 55.74,0.27 19.03,11.43 29.8,33.48 30.82,55.24 0.43,6.9 -1.95,13.58 -1.67,20.48 -0.19,6.86 1.7,13.64 4.56,19.84 3.24,6.93 9.05,12.1 13.52,18.19 18.55,27.07 15.22,67.68 -9.32,90.04 -13.83,13.8 -34.83,17.87 -53.62,14.63 -37.07,-5.57 -69.21,-26.54 -99.98,-46.64 8.48,24.98 19.89,48.9 32.24,72.18 15.33,28.15 34.08,55.02 59.12,75.39 -12.08,4.93 -24.03,12.1 -30.62,23.77 -4.75,7.32 -6.3,16.04 -7.47,24.53 -29.57,-56.79 -57.99,-114.88 -74.56,-177 -7.97,30.11 -16.91,60.6 -33.93,87.02 -8.56,13.61 -20.11,26.05 -35.18,32.38 -16.58,6.65 -36.65,4.94 -51.3,-5.51 -14.89,-9.66 -24.21,-26.18 -27.74,-43.28 -1.58,-8.07 -0.26,-16.39 -1.91,-24.44 -1.36,-6.43 -3.86,-12.68 -7.79,-17.97 -5.64,-7.44 -13.67,-12.63 -19.12,-20.23 -12.58,-18.34 -16.04,-42.65 -8.87,-63.72 5.24,-15.94 16.92,-29.89 32.35,-36.78 17.73,-8.27 38.01,-6.74 56.8,-3.74 -19.19,-11.42 -38.56,-25.34 -48.29,-46.12 -10.34,-21.08 -6.95,-47.36 6.68,-66.16 12.46,-16.76 32.73,-29.17 54.13,-27.62 14.24,1.03 29.05,-4.64 38.1,-15.88zm952.03 -272.69c31.5,-2.33 63.07,-3.81 94.6,-5.91 -1.78,16.39 -6.54,32.31 -9.06,48.58 -5.59,0.37 -11.42,-0.25 -16.74,1.79 -14.73,13.18 -28.88,27 -43.15,40.69 -10.3,9.28 -20.29,18.9 -30.15,28.64 -2.18,1.6 0.19,4.23 0.62,6.13 12.43,29.45 24.47,59.05 36.82,88.53 6.18,-0.2 12.36,-0.46 18.57,-0.52 -3.13,15.98 -6.35,31.95 -9.92,47.85 -31.7,1.86 -63.38,4.57 -95.13,5.3 3.65,-15.9 6.62,-31.96 10.03,-47.92 4.02,-0.18 8.07,-0.33 12.11,-0.52 -2.01,-8.62 -6.18,-16.47 -9.3,-24.7 -4.05,-9.49 -7.45,-19.29 -12.35,-28.4 -8.86,9.04 -18.35,17.44 -27.55,26.13 -2.1,2.11 -4.71,4.12 -5.28,7.23 -1.81,7.45 -3.19,15 -4.39,22.56 5.18,-0.01 10.36,-0.17 15.54,-0.22 -3.3,16.17 -6.36,32.39 -10.04,48.48 -29.31,1.26 -58.58,3.77 -87.91,4.89 3.02,-16.21 6.7,-32.29 9.73,-48.5 5.34,-0.21 10.68,-0.45 16.03,-0.72 6.71,-32.51 13.29,-65.05 19.97,-97.58 4.25,-22.32 9.62,-44.44 13.27,-66.87 -5.15,0.13 -10.3,0.37 -15.45,0.49 3.1,-16.1 6.65,-32.1 9.78,-48.2 27.22,-2.34 54.54,-3.19 81.77,-5.23 2.72,-0.36 5.37,0.41 7.91,1.31 -0.75,0.19 -1.5,0.38 -2.24,0.57 -2.27,15.63 -6.11,30.99 -9.04,46.5 -5.28,0.25 -10.55,0.57 -15.83,0.82 -4.45,19.88 -8.21,39.9 -12.44,59.81 21.63,-20.71 43.75,-40.92 65.24,-61.8 -1.89,-0.6 -3.78,-1.18 -5.65,-1.77 3.05,-15.83 6.51,-31.61 9.63,-47.44zm265.13 -16.09c11.12,-1.17 22.3,-1.36 33.44,-1.71 -3.93,23.32 -9.12,46.42 -13.95,69.57 -18.59,0.36 -37.06,2.26 -55.62,3.14 0.75,-6.98 2.39,-13.8 3.82,-20.65 -16.21,0.22 -32.35,1.5 -48.52,2.41 -4.02,19.32 -7.92,38.67 -11.9,58 25.48,-1.51 50.98,-3.25 76.47,-4.51 -3.22,16.27 -6.56,32.54 -9.92,48.79 -21.27,0.67 -42.46,2.79 -63.71,3.56 -4.34,0.16 -8.65,0.79 -12.96,1.28 -3.62,19.14 -7.9,38.15 -11.5,57.29 16.12,-0.33 32.15,-2.15 48.27,-2.37 1.61,-7.15 2.94,-14.38 4.8,-21.49 18.65,-0.76 37.23,-2.48 55.88,-3.33 -4.81,23.15 -9.06,46.44 -14.32,69.49 -19.96,1.72 -39.98,2.59 -59.95,3.84 -39,2.22 -77.96,5.07 -116.96,6.91 3.17,-16.17 6.55,-32.29 9.85,-48.43 5.34,-0.25 10.68,-0.56 16,-1.11 8.07,-38.6 15.66,-77.3 23.71,-115.9 3,-16.08 6.98,-31.95 9.54,-48.1 -5.13,-0.03 -10.28,0.14 -15.39,0.28 3.01,-16.24 6.33,-32.44 9.87,-48.58 47.7,-2.46 95.37,-5.72 143.05,-8.38zm331.73 -20.17c27.32,-1.48 54.6,-3.14 81.89,-4.88 4.18,-0.77 6.8,3.22 9.83,5.37 7.46,6.81 16.03,12.4 22.9,19.82 -1.44,14.18 -5.67,27.99 -7.89,42.09 -18.7,1.34 -37.43,2.18 -56.09,3.71 0.84,-6.99 2.51,-13.84 3.84,-20.76 -18.67,0.14 -37.27,1.63 -55.85,3 -4.41,19.12 -7.76,38.48 -12.15,57.6 24.98,-1.06 49.95,-2.87 74.9,-4.45 2.19,-0.1 3.71,1.88 5.43,2.98 8.78,7.2 17.3,14.7 26.15,21.83 -1.87,15.78 -6.15,31.2 -8.91,46.84 -4.14,17.85 -6.87,36.02 -11.43,53.74 -8.67,7.75 -18.93,13.58 -28.14,20.71 -5.21,3.3 -9.77,8.43 -16.04,9.54 -31.14,1.18 -62.21,4.18 -93.37,5.19 -10.64,-7.72 -20.54,-16.54 -30.76,-24.85 2.8,-14.12 5.67,-28.22 8.5,-42.33 18.73,-1.01 37.39,-2.95 56.16,-3 -1.29,6.9 -3.04,13.72 -3.69,20.71 18.55,-1.1 37.07,-2.7 55.66,-3.17 3.9,-19.42 8,-38.79 11.81,-58.25 -25.19,1.6 -50.35,3.22 -75.54,4.49 -11.1,-7.41 -20.75,-16.88 -31.15,-25.25 6.77,-32.81 13.31,-65.67 20.11,-98.45 0.41,-2.37 2.8,-3.44 4.49,-4.82 11.46,-7.92 22.72,-16.15 34.09,-24.25 4.34,-3.35 10.09,-2.78 15.25,-3.16zm-765.74 -50.53c3.25,-2.48 2.89,5.69 -0.13,4.6 -1.01,-1.52 -0.96,-3.05 0.13,-4.6zm-401.26 -5.71c32.97,-1.87 65.89,-4.2 98.86,-5.72 -4.97,23.7 -9.53,47.5 -14.67,71.15 -7.39,3.38 -16.26,1.03 -24.2,2.75 -16.52,81.96 -33.62,163.79 -50.07,245.75 21.05,-0.3 42,-2.48 63.02,-3.44 2.51,-10.48 4.29,-21.13 6.8,-31.61 19.72,-0.95 39.41,-2.78 59.15,-3.38 8.24,-0.77 16.5,-1.58 24.79,-1.41 -6.87,34.7 -14.13,69.32 -21.2,103.98 -75.84,4.14 -151.64,9.21 -227.47,13.53 -9.32,1.08 -18.72,1 -28.06,1.46 4.61,-24.04 9.79,-47.97 14.49,-71.99 8.06,-0.84 16.16,-1.06 24.22,-1.69 16.47,-82.09 33.45,-164.1 50.22,-246.15 -7.74,0.25 -15.48,0.89 -23.22,0.84 3.43,-24.1 9.7,-47.72 13.84,-71.7 11.08,-1.87 22.37,-0.97 33.5,-2.37zm370.2 -90.48c32.24,-2.38 64.51,-4.2 96.8,-5.97 -2.55,12.76 -5.03,25.52 -7.83,38.23 -10.26,0.79 -20.56,1.26 -30.8,2.21 0.5,-3.85 1.28,-7.66 2.1,-11.45 -8.69,0.07 -17.34,0.79 -26.03,0.97 -2.79,10.4 -4.95,21 -6.55,31.66 13.79,-0.23 27.52,-1.66 41.31,-2.06 -1.41,9.02 -3.21,17.96 -5.37,26.81 -13.91,0.79 -27.81,1.66 -41.7,2.44 -2.18,10.42 -4.61,20.81 -6.32,31.32 8.2,-0.47 16.44,-0.2 24.6,-1.1 3.45,-2.61 2.78,-8.06 4.2,-11.92 10.25,0.12 20.42,-1.35 30.67,-1.65 -2.18,12.81 -5.01,25.51 -7.71,38.21 -20.27,1.93 -40.66,2.31 -60.96,3.91 -12.11,0.56 -24.19,1.8 -36.32,2.03 1.82,-8.89 3.27,-17.87 5.54,-26.67 2.58,-0.12 5.18,-0.19 7.77,-0.5 1.55,-1.83 1.64,-4.38 2.26,-6.6 5.43,-27.78 11.49,-55.44 16.8,-83.23 -2.64,-0.06 -5.26,-0.11 -7.86,-0.16 0.85,-8.68 2.68,-17.24 4.62,-25.72l0.78 -0.76zm254.32 -15.47c17.09,-1.39 34.25,-2.02 51.38,-3.19 3.16,-0.59 5.45,1.92 7.76,3.66 4.04,3.41 8.15,6.76 12.23,10.14 -1.54,7.89 -2.84,15.87 -5.22,23.57 -10.09,0.1 -20.17,0.95 -30.24,1.42 0.52,-3.71 1.17,-7.4 1.77,-11.11 -10.8,0.23 -21.6,0.5 -32.34,1.72 -6.16,30.03 -12.57,60.02 -18.32,90.13 10.87,-0.27 21.64,-1.85 32.53,-1.77 1.28,-3.82 0.54,-9.17 3.68,-11.88 9.81,-0.77 19.67,-0.69 29.48,-1.62 -1.03,7.07 -2.41,14.08 -4.18,21 -0.7,3.25 -4.03,4.67 -6.37,6.57 -5.67,3.8 -10.97,8.24 -17.03,11.43 -5.88,1.82 -12.12,1.25 -18.16,1.66 -12.41,0.12 -24.78,2.24 -37.17,1.72 -5.58,-3.81 -10.71,-8.35 -15.67,-12.92 -0.69,-3.9 0.83,-7.77 1.47,-11.57 6.87,-33.21 13.52,-66.45 20.42,-99.64 0.28,-4.08 4.4,-5.76 7.23,-7.97 5.72,-3.58 10.71,-8.31 16.75,-11.35zm147.77 -9.3c15.72,-0.16 31.37,-1.9 47.1,-2.42 -1.72,8.62 -3.14,17.32 -5.39,25.82 -2.79,1.91 -6.6,1.03 -9.8,1.53 -12.16,19.36 -23.69,39.08 -35.7,58.52 -6.67,9.64 -7.14,21.77 -9.19,32.95 2.63,0.03 5.29,0.05 7.95,0.08 -1.72,8.87 -3.49,17.75 -5.43,26.57 -16.23,0.82 -32.41,2.28 -48.65,2.97 1.85,-8.82 3.43,-17.71 5.45,-26.51 2.94,-0.39 5.88,-0.8 8.83,-1.26 1.26,-7.14 2.87,-14.21 4.31,-21.32 1.31,-5.59 -0.38,-11.21 -1.49,-16.66 -3.5,-16.51 -7.01,-33.04 -10.24,-49.62 -4,-0.1 -7.98,-0.08 -11.96,-0.08 1.61,-8.86 3.92,-17.56 5.29,-26.45 16.19,-1.68 32.48,-1.99 48.72,-3.14 -1.5,8.36 -2.89,16.78 -5.07,25.01 -1.33,1.7 -3.57,2.24 -5.31,3.36 1.17,7.98 2.86,15.87 4.5,23.76 5.26,-7.7 9.6,-15.99 14.18,-24.11 -1.07,-1.26 -2.05,-2.59 -2.9,-3.98 0.45,-8.51 2.98,-16.73 4.8,-25.02zm127.04 -7.16c16.3,-1.31 32.61,-2.38 48.95,-2.96 -1.88,8.87 -3.6,17.78 -5.56,26.63 -2.63,0.15 -5.24,0.19 -7.83,0.53 -1.93,2.14 -1.93,5.27 -2.65,7.92 -5.26,27.4 -11.53,54.59 -16.49,82.05 2.65,0.04 5.34,0.09 8.04,0.14 -0.88,8.9 -3.1,17.59 -4.97,26.32 -16.17,1.28 -32.36,2.11 -48.53,3.16 1.52,-8.91 3.43,-17.72 5.17,-26.58 3.03,-0.36 6.04,-0.74 9.09,-1.18 1.61,-10.36 4.68,-20.45 5.86,-30.87 -11.34,0.02 -22.64,0.77 -33.92,1.77 -2.43,10.42 -4.43,20.92 -6.45,31.4 2.88,0.04 5.81,0.08 8.73,0.11 -1.85,8.59 -3.68,17.18 -5.29,25.81 -7.14,1.61 -14.47,1.15 -21.7,1.72 -9,0.71 -18,1.21 -27.01,1.58 1.58,-8.94 3.41,-17.82 5.32,-26.69 2.84,-0.22 5.7,-0.41 8.57,-0.62 6.27,-29.92 12.82,-59.81 18.21,-89.89 -2.66,-0.05 -5.28,-0.06 -7.9,-0.08 1.09,-9.01 3.14,-17.89 5.35,-26.68 16.06,-0.7 32.06,-2.32 48.13,-2.39 -1.42,8.64 -3.28,17.18 -5.08,25.74 -3.02,0.95 -6.84,0.48 -9.21,2.7 -2.18,10.06 -4.4,20.13 -6,30.32 11.34,-1.61 22.87,-0.81 34.22,-2.4 2.29,-10.3 4.04,-20.72 6.5,-30.98 -2.93,-0.13 -5.84,-0.27 -8.73,-0.43 1.79,-8.7 3.63,-17.4 5.18,-26.15zm128.51 -7.83c16.19,-1.1 32.37,-2.19 48.58,-3.11 -1.43,9.02 -3.56,17.89 -5.34,26.83 -2.92,0.17 -5.81,0.33 -8.69,0.52 -6.93,32.86 -13.43,65.83 -20.32,98.69 -0.36,2.29 -1.51,4.24 -3.49,5.44 -6.46,4.63 -12.99,9.16 -19.58,13.6 -6.25,2.05 -13.04,1.34 -19.53,1.86 -12.6,0.1 -25.14,2.36 -37.72,1.72 -5.86,-4.04 -11.23,-8.74 -16.46,-13.56 6.83,-33.92 13.92,-67.77 20.64,-101.7 -2.93,0.01 -5.82,0.06 -8.71,0.09 1.92,-8.92 3.64,-17.87 5.71,-26.76 16.14,-0.54 32.21,-2.2 48.37,-2.32 -1.79,8.63 -3.52,17.26 -5.23,25.91 -3.02,0.46 -6,0.95 -8.98,1.4 -6.1,29.97 -12.48,59.88 -18.19,89.91 11.33,-0.5 22.67,-1.42 33.99,-2.37 6,-29.84 12.18,-59.65 18.21,-89.49 -2.89,-0.02 -5.75,0.01 -8.59,0 1.45,-8.94 3.46,-17.78 5.33,-26.66zm205.87 -12.28c17.69,-1.23 35.4,-2.8 53.12,-3.32 5.75,4.19 10.85,9.19 16.52,13.5 -1.33,8.02 -3.03,15.97 -5.01,23.83 -10.07,0.55 -20.18,0.46 -30.16,1.91 0.33,-3.88 0.81,-7.74 1.27,-11.61 -10.03,0.16 -20.04,1.02 -30.07,1.38 -1.96,10.47 -4.81,20.78 -6.11,31.37 13.66,0.25 27.25,-1.56 40.9,-1.7 6.58,3.2 11.44,9.22 17.16,13.78 -3,15.87 -6.47,31.66 -9.55,47.53 -0.82,3.58 -1.09,7.99 -4.72,9.93 -6.56,4.42 -12.64,9.55 -19.54,13.42 -8.57,1.49 -17.33,1.38 -25.97,2.01 -8.95,0.27 -17.86,1.89 -26.81,1.39 -6.46,-3.43 -11.42,-9.1 -17.26,-13.42 1.41,-7.88 2.87,-15.75 4.86,-23.48 10.19,-0.95 20.44,-1.2 30.67,-1.44 -0.71,3.57 -1.44,7.12 -2.1,10.71 10.2,0.12 20.37,-0.97 30.57,-1.3 2.05,-10.48 4.47,-20.9 6.27,-31.44 -13,0.1 -25.93,1.25 -38.88,1.88 -3.27,0.6 -5.46,-2.1 -7.77,-3.85 -3.88,-3.3 -7.77,-6.55 -11.68,-9.79 3.39,-17.2 6.88,-34.38 10.45,-51.54 0.36,-4.58 4.9,-6.57 8.1,-9.05 5.31,-3.47 10.11,-7.75 15.74,-10.7zm149.47 -9.4c15.79,-0.57 31.53,-2.14 47.35,-2.33 -2.27,12.75 -5.24,25.37 -7.57,38.11 -10.3,0.27 -20.53,1.35 -30.81,1.65 0.65,-3.72 1.26,-7.44 1.7,-11.18 -2.66,0.12 -5.32,0.25 -7.94,0.39 -5.93,29.92 -12.36,59.77 -18.19,89.72 2.84,0.13 5.73,0.24 8.62,0.38 -2.02,8.79 -3.6,17.7 -5.62,26.49 -16.21,0.59 -32.37,2.07 -48.6,2.42 1.79,-8.76 3.54,-17.51 5.53,-26.23 2.9,-0.42 5.84,-0.82 8.78,-1.23 5.98,-29.98 12.55,-59.87 18.15,-89.94 -2.74,0.29 -5.46,0.65 -8.16,1.04 -0.71,3.75 -1.51,7.47 -2.26,11.2 -10.23,0.24 -20.41,1.45 -30.63,1.77 1.83,-12.82 4.99,-25.42 7.47,-38.14 20.68,-1.99 41.46,-2.43 62.18,-4.12zm-1059.03 -4.4c17.17,-0.55 34.24,-2.45 51.41,-2.64 -2.73,13.26 -5.25,26.56 -8.11,39.78 -4.26,0.17 -8.54,0.36 -12.79,0.45 -9.68,45.02 -18.78,90.18 -27.74,135.35 4.43,-0.23 8.85,-0.42 13.31,-0.47 -2.58,13.23 -5.47,26.4 -8.1,39.62 -24.19,1.37 -48.37,3.16 -72.59,4.23 2.57,-13.28 5.67,-26.47 7.98,-39.79 4.18,-0.24 8.36,-0.47 12.56,-0.63 5.66,-26.45 11.33,-52.91 16.14,-79.5 -18.46,24.55 -35.75,49.97 -54.43,74.37 -6.26,-17.5 -12.34,-35.07 -18.36,-52.66 -1.85,-5.51 -3.68,-11.07 -6.36,-16.25 -5.81,26.15 -11.21,52.4 -16.14,78.74 3.96,-0.35 7.93,-0.71 11.92,-0.87 -1.85,13.57 -4.94,26.97 -8.07,40.3 -24.08,0.82 -48.06,3.08 -72.14,4.01 2.46,-13.37 5.27,-26.7 8.11,-40.01 4.08,-0.08 8.18,0.05 12.24,-0.49 2.1,-1.06 1.86,-3.85 2.59,-5.76 7.5,-37.08 15.1,-74.14 22.69,-111.2 1.31,-6.03 2.65,-12.06 3.3,-18.22 -4.15,0.11 -8.29,0.25 -12.43,0.29 2.01,-13.33 4.93,-26.53 8.06,-39.64 19.84,-0.74 39.63,-3.06 59.51,-3.25 6.14,19.06 13.1,37.83 19.48,56.81 1.52,4.6 3.19,9.16 5.26,13.55 17.59,-24.24 35.1,-48.54 52.68,-72.77 2.07,-3.59 6.53,-2.85 10.02,-3.35zm767.09 22.04c24.18,-1.12 48.29,-3.14 72.46,-4.18 3.84,0.08 8.26,-1.84 11.69,0.64 5.24,3.81 9.99,8.25 14.85,12.51 -2.41,15.66 -6.3,31.06 -9.19,46.64 -0.88,2.64 -0.52,6.16 -3.15,7.82 -6.9,5.26 -14.25,9.95 -20.8,15.65 -1.82,1.21 -0.71,3.74 -0.58,5.48 2.06,8.95 4.32,17.87 6.79,26.74 3.94,-0.08 7.89,-0.17 11.87,-0.23 -1.83,8.89 -3.51,17.82 -5.54,26.68 -10.99,0.44 -21.98,1.09 -32.94,1.94 -5,-18.91 -9.38,-37.99 -14.29,-56.92 -2.92,0.1 -5.81,0.17 -8.68,0.25 -2.45,10.43 -4.41,20.94 -6.6,31.43 2.87,0.04 5.74,0.09 8.66,0.17 -1.78,8.86 -3.64,17.7 -5.38,26.56 -16.18,0.69 -32.32,2.41 -48.54,2.4 1.53,-8.61 3.32,-17.18 4.99,-25.77 3,-0.51 6.02,-0.98 9.06,-1.45 5.96,-29.94 12.68,-59.74 18.12,-89.75 -2.72,-0.07 -5.4,-0.14 -8.07,-0.22 1.45,-8.86 3.06,-17.69 5.27,-26.39zm34.25 24.68l0 0c-1.72,10.56 -4.93,20.86 -5.95,31.52 10.37,-0.4 20.71,-1.41 31.09,-1.96 2.1,-10.45 4.29,-20.89 6.3,-31.38 -10.52,0.13 -20.99,0.92 -31.44,1.82zm-610.61 10.06c15.74,-0.52 31.44,-2.2 47.2,-2.53 2.9,-0.34 5.03,1.88 7.12,3.56 3.69,3.25 7.73,6.07 11.14,9.64 0.32,7.25 -2.6,14.23 -3.61,21.35 -2.5,10.47 -3.7,21.27 -6.71,31.6 -7.25,6.97 -16.12,12.03 -23.8,18.5 1.87,10.53 5.02,20.78 7.5,31.19 3.87,-0.11 7.74,-0.22 11.62,-0.32 -0.99,7.37 -2.51,14.67 -4.04,21.93 -0.55,1.88 -0.99,5.39 -3.74,4.91 -10.15,0.16 -20.24,1.2 -30.37,1.74 -4.65,-18.93 -9.83,-37.77 -13.98,-56.81 -2.69,0.05 -5.36,0.06 -7.99,0.33 -1.95,1.5 -1.93,4.15 -2.47,6.32 -1.56,8.41 -3.55,16.73 -5.13,25.15 2.86,0.05 5.72,0.03 8.61,0.06 -1.65,8.81 -3.6,17.58 -5.2,26.4 -16.25,1.58 -32.57,1.72 -48.82,3.11 1.72,-8.84 3.57,-17.67 5.29,-26.51 3.05,-0.46 6.11,-0.95 9.19,-1.48 5.75,-29.78 12.08,-59.45 18.09,-89.18 -2.9,-0.16 -5.81,-0.32 -8.68,-0.49 1.89,-8.64 3.68,-17.29 5.32,-25.96 11.08,-1.71 22.34,-1.25 33.46,-2.51zm1.12 26.56l0 0c-2.01,10.48 -4.64,20.86 -6.11,31.45 10.39,-0.05 20.72,-1.18 31.09,-1.66 2.57,-10.43 4.33,-21.05 6.46,-31.56 -10.5,0.22 -20.95,1.33 -31.44,1.77zm379.79 145.63c50.25,-2.75 100.46,-6.38 150.7,-8.78 10.36,7.85 20.12,16.59 29.94,25.17 -5.37,29.74 -12.27,59.22 -17.89,88.94 -0.76,3.41 -1.09,7.47 -4.47,9.41 -13.74,10.34 -27.61,20.47 -41.3,30.86 4.48,19.23 9.39,38.38 14.65,57.41 7.06,-1.03 14.16,-1.49 21.3,-1.44 -3.11,16.28 -6.14,32.61 -10.12,48.71 -19.99,0.33 -39.9,2.5 -59.86,3.35 -8.58,-34.36 -17.15,-68.72 -25.68,-103.09 -5.46,0.01 -10.91,0.12 -16.35,0.25 -3.94,19.22 -8.22,38.37 -11.67,57.66 5.18,0.05 10.34,-0.17 15.52,-0.5 -2.94,16.28 -6.54,32.43 -9.71,48.66 -29.53,1.55 -59.01,3.75 -88.54,5.04 3.4,-15.99 6.6,-32.02 9.81,-48.06 4.93,-0.62 9.88,-0.78 14.83,-1.31 2.13,-1.84 2.11,-4.93 2.87,-7.44 10.64,-52.33 21.43,-104.63 32.01,-156.95 -5.25,0.12 -10.5,0.39 -15.73,0.55 3.03,-16.18 6.6,-32.27 9.69,-48.44zm62.48 44.6l0 0c-3.86,19.17 -7.75,38.33 -11.81,57.45 19.28,-0.48 38.48,-2.54 57.76,-3.3 3.52,-19.42 8.96,-38.56 11.02,-58.2 -18.94,1.97 -38.05,1.99 -56.97,4.05zm-682.31 134.79l0 0c10,-0.24 19.96,-1.22 29.96,-1.58 -0.32,-21.45 -0.78,-42.89 -1.98,-64.28 -9.52,21.87 -19.2,43.69 -27.98,65.86z"/>
  </g>
 </g>
</svg>
