<?xml version="1.0" encoding="UTF-8"?>
<!DOCTYPE svg PUBLIC "-//W3C//DTD SVG 1.1//EN" "http://www.w3.org/Graphics/SVG/1.1/DTD/svg11.dtd">
<!-- Creator: CorelDRAW -->
<svg xmlns="http://www.w3.org/2000/svg" xml:space="preserve" width="2000px" height="1600px" version="1.1" style="shape-rendering:geometricPrecision; text-rendering:geometricPrecision; image-rendering:optimizeQuality; fill-rule:evenodd; clip-rule:evenodd"
viewBox="0 0 2000 1600"
 xmlns:xlink="http://www.w3.org/1999/xlink">
 <defs>
  <style type="text/css">
   <![CDATA[
    .fil2 {fill:#FEFEFE}
    .fil0 {fill:black;fill-rule:nonzero}
    .fil1 {fill:#FD660D;fill-rule:nonzero}
   ]]>
  </style>
 </defs>
 <g id="Capa_x0020_1">
  <metadata id="CorelCorpID_0Corel-Layer"/>
  <g id="Mercyhurst_x0020_Lakers.cdr">
   <path class="fil0" d="M1331.11 1016.94c-4.7,2.81 -10.02,5.2 -16.89,8.26 -4.81,2.08 -9.61,4.18 -14.36,6.38 -12.34,5.46 -27.57,12.18 -45.29,19.94l-254.08 463.36 -253.83 -462.93c-9.01,-3.35 -16.06,-5.25 -23.43,-5.64l-0.27 -0.08c-16.6,-11.71 -34.66,-21.61 -54.33,-27.09l-0.4 -0.41c0.16,35.23 0.07,70.45 -0.08,105.67 14.04,-0.06 28.09,-0.06 42.12,0.27l73.59 1.73 -0.25 73.6c-0.32,93.01 -0.28,186.01 -0.04,279.01l0.19 75.18 -75.18 0.11c-211.13,0.32 -422.25,0.59 -633.38,-0.12l-75.2 -0.25 0.35 -75.2c0.43,-92.9 0.32,-185.81 0.04,-278.72l-0.22 -74.03 74.02 -1.28c11.91,-0.21 23.81,-0.29 35.72,-0.31 -0.02,-232.82 0.06,-465.64 -0.01,-698.46 -11.55,-0.01 -23.11,-0.03 -34.66,-0.11l-75.19 -0.49 0.58 -75.19c0.59,-77.2 -1.37,-154.39 0.98,-231.59l2.22 -73.18 73.21 0.36c195.12,0.94 390.24,0.12 585.37,0.39l41.28 0.06 22.07 34.88c20.35,32.15 40.43,64.46 60.99,96.46 7.19,10.62 11.23,21.22 14.61,33.64l2.17 8c6.98,-1.67 10.83,-3.64 14.6,-5.76l0.83 -0.24c5,1.58 9.34,0.44 13.05,-3.42 2.72,0.15 8.16,0.47 10.88,0.63 13.09,1.38 26.93,5.04 39.38,-1.15l2.09 -0.9c0.63,-0.36 1.9,-1.03 2.53,-1.38l3.58 -2.17c0.56,-0.32 1.66,-0.99 2.17,-1.3l4.42 -2.61c17.7,-4.81 34.3,3.75 50.94,8.28l1.1 0.4c6.9,7.45 16.28,11.23 25.98,13.4 6.35,7.69 16.2,9.78 25.35,12.15 14.67,-5.92 29.45,-11.75 41.95,-21.73l0.75 -0.27c16.48,-4.5 31.86,-13.92 49.36,-13.88 12.38,2.56 22.43,11.75 35.17,13.36 9.58,0.99 19.16,-1.22 28.66,-2.44 2.49,0 7.41,0 9.9,0 8.11,2.93 16.2,5.99 28.63,8.53l15.49 -26c20.28,-34.04 42.15,-67.08 62.84,-100.87l2.13 -3.49 1.11 -1.44c17.01,-25.71 42.9,-42.03 74.28,-40.74 190.85,-0.23 381.7,0.47 572.54,-0.35l73.32 -0.32 2.08 73.3c2.19,77.67 1.25,155.37 0.5,233.06l-0.73 74.6 -74.61 -0.23c-11.5,-0.04 -23.02,-0.17 -34.54,-0.28 0.23,232.84 0.16,465.67 0.04,698.5 11.85,-0.01 23.69,-0.03 35.53,0.01l74.77 0.24 0.09 74.77c0.12,93.4 0.2,186.8 -0.04,280.21l-0.19 74.91 -74.91 0c-210.56,0 -421.12,0 -631.68,0l-75.1 0 0 -75.11c0,-93.3 0,-186.61 0,-279.92l0 -74.71 74.71 -0.39c12.88,-0.06 25.75,-0.04 38.62,-0.01 -0.05,-35.82 -0.05,-71.64 0.01,-107.46zm0.18 -76.56l0.11 -33.42c-18.43,20.49 -56.29,28.93 -55.74,61.95 15.69,-7.49 28.94,-19.43 45.46,-25.27 3.3,-1.2 6.72,-2.24 10.17,-3.26zm27.56 -61.52l29.42 -7.31c0.43,-0.11 0.92,-0.24 1.45,-0.38 5.36,-15.21 9.29,-31.59 13.81,-47.34 -2.51,3.03 -5.3,5.82 -8.61,8.16 -6.82,5.4 -17.07,5.09 -22.51,12.3 -7.21,8.59 -6.54,20.54 -10.01,30.67 -1.13,1.36 -2.31,2.65 -3.55,3.9zm76.24 -140.92c-2.08,-20.66 1.91,-33.85 8.65,-51.15 0.75,-18.65 -0.39,-29.8 7.42,-50.18 1.92,-6.49 -2.76,-45.04 -3.11,-52.69l-1.09 -24.59 13.67 -20.47c1.2,-1.8 2.45,-3.51 3.72,-5.18 -4.47,-17.43 -20.76,-56.56 -23.68,-67.36l-0.41 -1.54 -0.35 -1.55c-4.64,-20.66 -5.67,-40.34 -0.25,-58.72 -16.09,-30.6 -37.91,-59.2 -71.43,-70.03 -1.18,21.09 -30.79,17.7 -34.61,37.29 -8.64,30.2 24.4,45.9 42.81,62.65 16.88,19.67 38.09,36.35 49.84,59.93 9.34,19.87 2.09,41.95 4.45,62.76 26.26,47.94 15.18,106.37 -6.78,153.68 -8.2,14.32 -6.07,31.47 -7.49,47.31 8.33,-4.67 13.55,-12.33 18.64,-20.16zm61.76 -406.39c0.58,-0.81 1.02,-1.52 1.29,-2.11 4.39,-9.42 9.46,-23.63 8.97,-35.28l-2.01 -0.88 -2.06 -1.05c-0.71,-0.34 -1.7,-0.63 -2.45,-0.86 -13.72,-4.12 -25.4,-5.98 -37.33,-8.86 15.31,10.92 24.26,28.3 31.69,45.38 0.74,1.04 1.33,2.32 1.9,3.66zm-167.79 -26.71c-21.06,3.11 -42.51,3.47 -63.74,0.76l-111.02 -14.22c-12.25,8.8 -24.49,17.58 -36.62,26.54 -0.04,4.49 -0.11,8.99 -0.19,13.52 -4.93,5.05 -14.27,8.16 -13.65,16.68 -0.78,22.27 -4.25,45.14 1.11,67.06l3 2.05c20.3,-3.03 36.66,-22.94 58.54,-18.29 13.17,4.73 26.46,-3.2 39.78,-0.24 25.71,5.44 46.41,22.67 67.58,37.1 2.21,-1.1 6.66,-3.27 8.87,-4.34 -1.93,-11.98 -3.87,-24.09 -3.16,-36.23 1.03,-8.28 11.64,-14.51 7.93,-23.46 -2.68,-10.92 -9.94,-24.75 0.08,-34.1 13.14,-11.77 27.39,-22.2 41.49,-32.83zm-162.89 -38.05l17 -28.53c-1.29,-0.13 -2.59,-0.22 -3.9,-0.26 -23.42,13.49 -50.31,-6.15 -74.6,4.58 -23.34,10.48 -40.21,31.58 -51.21,54.13 -5.8,10.96 -11.24,22.71 -10.49,35.44 10.29,0.63 21.37,-0.79 29.1,-8.36 20.5,-19.28 42.97,-36.47 66.63,-51.72 7.82,-5.17 18.72,-8.21 27.47,-5.28zm-357.04 -27.03l14.8 54.41 -85.3 11.16c-22.01,2.88 -44.37,2.74 -66.31,-0.31 14.44,11.04 29.28,21.64 41.96,34.66 7.97,9.19 1.1,21.69 -0.98,31.82 -3.59,9.11 6.82,15.14 8.16,23.46 1.02,13.52 -2.76,26.88 -1.46,40.45 2.28,-0.12 6.86,-0.32 9.14,-0.44 19.84,-13.87 39.11,-30.39 63.36,-35.76 14.55,-3.9 29.22,4.22 43.69,-0.51 22.47,-3.59 38.4,17.51 59.88,18.57 4.81,-24.84 1.78,-50.23 0.79,-75.26 -7.61,-5.84 -15.89,-12.26 -12.54,-23.15 -19.67,-15.96 -41.35,-29.25 -60.83,-45.41 7.41,-5.13 16.95,-11.04 26.22,-6.82 20.81,7.64 37.33,23.22 55.08,36.03 16.24,11.99 29.96,33.83 53.14,29.25 1.3,-17.07 -8.91,-31.77 -16.36,-46.28 -12.06,-18.96 -28.27,-37.61 -50.43,-44.51 -23.41,-7.61 -48.73,10.17 -70.65,-3.75 -3.84,0.58 -7.62,1.4 -11.36,2.39zm-270.78 42.76c-5.84,1.67 -11.78,3.06 -17.95,4.06 -6.35,1.21 -21.27,4.13 -27.94,7.3 -0.02,3.87 0.59,8.73 0.98,11.32 1.42,9.5 4.94,18.95 10.29,27.12 5.55,-10.57 9.37,-22.08 15.79,-32.18 4.7,-7.38 11.69,-12.68 18.83,-17.62zm22.34 122.54c5.19,16.01 6.01,33.36 1.26,51.49 -3.89,17.23 -9.98,33.23 -16.55,49.61 -1.98,4.92 -7.91,18.84 -9.9,27.9 0.68,0.88 1.35,1.77 1.98,2.66l15.24 21.21 -1.21 26.08c-0.43,9.28 -5.13,42.75 -3.51,51.01 7.4,19.57 6.22,30.97 7.58,49.67 9.4,17.94 11.39,34.21 9.3,51.13 1.93,2.58 3.76,5.23 5.34,8.05 3.59,5.36 6.62,12.11 13.44,14 -1.02,-16.01 1.19,-33.32 -7.41,-47.75 -19.39,-43.48 -30.39,-95.49 -11.43,-140.98 13.96,-21.57 -1.78,-48.3 7.85,-71.16 7.72,-20.74 25.82,-34.34 39.42,-50.94 13.92,-18.93 37.14,-28.19 51.25,-46.92 8.68,-10.49 7.34,-26.49 -0.43,-37.1 -6.59,-8.12 -18.53,-8.99 -25.55,-16.4 -3.31,-3.35 -2.99,-14.15 -9.7,-11.2 -30.94,13.48 -51.31,40.5 -66.97,69.64zm35.93 418.19c4.37,15.91 8.3,32.21 13.36,47.84 0.96,0.29 1.86,0.54 2.61,0.75l30.35 8.51c-2.17,-2.12 -3.95,-4.53 -4.87,-7.6 -3.15,-10.44 -3.35,-22.47 -11.23,-30.87 -7.93,-4.41 -17.83,-5.4 -24.29,-12.26 -2.19,-1.93 -4.13,-4.09 -5.93,-6.37zm70.08 79.49l0.66 36.99c7.5,2.13 15.01,4.26 21.85,8.01 12.81,6.19 23.53,15.93 36.74,21.37 0.95,-26.38 -26.18,-37.93 -43.92,-51.45 -6.56,-3.53 -10.96,-9.2 -15.33,-14.92zm308.81 -471.67c7.18,17.23 19.72,35.17 13.29,54.68 -7.53,31.7 -33.59,54.33 -42.89,85.16 18.05,-3.98 36.07,1.19 52.43,8.68 18.42,-5.64 37.42,-13.68 57.29,-8.56 -10.57,-31.58 -38.4,-54.8 -44.71,-88.19 -5.32,-18.61 8.04,-34.82 13.96,-51.46 -11.67,-18.37 -21.02,-38.4 -25.51,-59.76 -1.46,21.76 -13.01,41.08 -23.86,59.45zm-237.1 54.84c18.53,18.85 32.49,41.4 47.9,62.69 8.95,11.35 19.16,23.1 33.51,27.44 26.58,8.87 56.26,9.89 82.91,0.79 -1.14,-15.03 -6.5,-29.49 -9.14,-44.36 -11.75,7.89 -23.46,16.8 -37.57,19.87 -20.94,5.17 -43.49,-7.84 -52.01,-27.04 -5.28,-12.82 -1.81,-26.85 2.41,-39.43 -22.67,0.08 -45.34,0 -68.01,0.04zm454.81 -0.04c5.37,12.26 9.27,26.38 3.83,39.35 -7.61,17.5 -26.61,29.92 -45.93,27.99 -16.52,-0.95 -30.09,-11.32 -42.86,-20.78 -4.3,14.59 -8.28,29.26 -11.79,44.04 31.11,9.66 67.26,9.78 96.48,-5.91 28.9,-22.79 42.22,-59.1 68.6,-84.41 -22.79,-0.51 -45.58,-0.08 -68.33,-0.28zm-356.09 13.25c-6.98,5.6 -7.45,19.04 1.58,22.91 7.37,5.44 19.87,0.19 21.41,-8.76 4.49,-12.3 -13.8,-23.77 -22.99,-14.15zm308.15 0.47c-5.24,5.13 -6.9,14.9 -0.87,20.23 6.9,8.43 21.49,3.82 24.37,-6 4.61,-12.57 -14.55,-24.87 -23.5,-14.23zm-480.83 23.7c0.55,18.92 -1.38,38.04 -8.32,55.78 -4.73,11.24 -2.92,24.09 5.28,33.2 -9.26,30.99 6.86,61.07 13.33,90.84 3.51,30.27 -0.2,60.99 1.97,91.39 0.71,11.31 5.32,22.27 13.76,30 9.5,8.91 12.02,22.86 22.71,30.83 1.22,-11.44 2.64,-23.1 0.55,-34.5 -3.75,-9.18 -10.41,-17.03 -12.62,-26.89 4.62,-7.84 9.9,-15.37 13.21,-23.93 0.63,-12.5 -0.24,-25.11 2.52,-37.45 4.1,-27.44 -18.05,-48.46 -24.36,-73.57 -3.39,-12.18 3.67,-23.42 5.76,-35.13 -1.86,-7.37 -7.34,-13.09 -11.16,-19.51 6.74,-8.36 9.97,-18.61 13.92,-28.43 4.33,-12.22 20.65,-15.18 30.94,-8.75 20.15,10.6 30.36,31.97 44.2,49 5.01,6.31 11.24,16.76 20.86,13.17 1.57,-11.39 -0.71,-23.54 -10.49,-30.59 -6.15,-15.97 2.33,-37.66 -13.41,-49.64 -17.11,-12.18 -38,-17.19 -57.28,-24.92 -16.95,-2.2 -34.26,-0.35 -51.37,-0.9zm604.83 6.38c-14.99,6.71 -32.25,10.02 -44.52,21.41 -12.93,13.56 -3.07,33.87 -11.27,49.01 -8.48,7.13 -11.36,18.72 -9.19,29.41 6.94,3.86 11.63,-3.35 15.89,-7.37 16.17,-19.09 27.72,-44 50.98,-55.67 10.21,-6.07 25.66,-1.62 29.33,10.17 3.59,9.62 7.14,19.4 13.45,27.68 -3.79,6.54 -8.88,12.45 -11.24,19.75 2.01,9.34 6.46,18.09 7.45,27.64 -3.27,28.07 -29.49,49.08 -26.81,78.45 1.89,13.33 1.89,26.77 2.48,40.18 3.63,8.24 9.7,15.06 13.33,23.26 -0.32,11.79 -11.55,19.51 -13.6,30.79 -0.95,10.37 0.27,20.74 1.38,31.07 5.08,-4.18 9.82,-8.87 12.42,-15.03 5.95,-14.11 22.59,-22.15 23.61,-38.55 1.15,-26.46 2.13,-53.03 0.83,-79.52 -0.91,-37.7 28.51,-72.07 15.81,-110.12 8.08,-8.91 10.01,-21.01 5.52,-32.09 -7.45,-18.14 -8.36,-37.81 -9.03,-57.17 -22.31,2.01 -46.13,-4.26 -66.82,6.7zm-366.98 93.64c-27.36,39.98 0.04,103.65 47.39,112.72 -10.05,-21.61 -35.17,-38.48 -31.42,-64.98 0.87,-9.69 11.16,-12.18 19,-13.68 3.67,-12.97 7.3,-28.34 20.23,-35.28 9.1,-5.6 22.59,-2.96 27.44,6.98 7.61,16.47 5.36,35.24 5.75,52.86 6.15,0.08 12.31,0.2 18.46,0.32 0.67,-16.52 -0.79,-33.75 4.89,-49.6 3.42,-10.64 16.28,-16.83 26.57,-11.79 14.27,6.16 19.32,22.48 22.04,36.47 8.47,1.58 19.12,3.59 20.34,14 3.07,26.37 -21.92,42.89 -31.9,64.66 38.17,-7.18 60.01,-48.1 57.76,-84.53 -3.86,-21.61 -17.15,-42.03 -36.23,-53.15 -23.34,-11.35 -47.7,2.96 -71.16,5.68 -21.33,-0.91 -41.16,-12.77 -62.77,-9.5 -15.81,3.35 -28.03,15.61 -36.39,28.82zm-78.69 127.94c-0.59,9.02 1.06,18.29 -1.11,27.2 -11.27,36.55 -4.65,75.34 -6.11,112.99 4.5,3.43 9.43,6.59 12.97,11.16 5.96,8.83 4.34,20.42 9.62,29.57 9.51,17.54 27.37,29.37 34.58,48.33 4.85,12.58 5.64,28 16.87,37.06 2.69,-18.05 4.82,-36.78 0.36,-54.72 -3.51,-14.47 -5.52,-30.91 -17.27,-41.4 -6.38,-7.37 -18.25,-10.84 -19.51,-21.68 -3.95,-22.39 -1.98,-45.89 -10.65,-67.34 5.95,-14.66 16.95,-26.93 20.86,-42.46 5.56,-21.68 7.68,-44.71 2.32,-66.67 -11.79,12.3 -23.34,30.28 -42.93,27.96zm307.01 -5.21c-0.44,19.59 3.66,39.27 11.47,57.21 4.77,9.85 11.27,18.8 14.9,29.17 -8.51,22.75 -6.54,47.35 -10.41,70.89 -5.91,10.84 -20.14,14.39 -25.66,25.98 -13.37,27.17 -15.97,58.94 -10.25,88.51 14.58,-12.77 11.11,-34.65 22.51,-49.4 7.57,-11.98 18.88,-20.89 27.08,-32.37 8.13,-9.85 4.3,-24.52 12.42,-34.42 3.71,-4.1 8.12,-7.53 12.38,-11.11 -0.51,-27.88 0.4,-55.75 -0.43,-83.63 -2.45,-18.45 -10.13,-36.23 -6.55,-55.19 -18.21,1.02 -32.05,-12.58 -41,-26.85 -6.07,5.28 -5.75,13.88 -6.46,21.21zm-253.67 66.12c2.92,30.91 17.86,60.36 40.81,81.17 0.15,-26.25 -0.52,-52.55 0.35,-78.77 13.45,9.62 24.21,22.36 36.47,33.36 5.84,-18.1 9.54,-39.67 24.88,-52.24 14.59,-2.01 31.62,-5.13 45.02,2.44 12.22,13.8 15.89,32.88 21.13,50.15 11.24,-12.42 23.94,-23.3 36.79,-33.98 -1.07,26.02 0.91,51.96 1.14,77.98 23.81,-20.11 37.89,-50.78 39.9,-81.65 -21.96,-12.69 -45.22,-23.73 -70.3,-28.58 -59.49,-12.38 -125.49,-5.17 -176.19,30.12zm38.09 154.47c3.66,23.97 9.26,47.94 7.41,72.42 24.92,10.25 52.12,12.85 78.81,11.51 26.22,1.9 52.44,-2.36 77.31,-10.72 -1.53,-24.76 2.76,-49.24 8.09,-73.29 -16.56,11.67 -26.34,29.8 -35.72,47.23 -11,-6.54 -15.77,-23.22 -30.44,-25.51 -1.62,13.17 -1.14,26.46 -1.97,39.66 -12.22,0.04 -24.48,0.24 -36.67,-0.78 0.04,-13.25 0.28,-26.74 -3.35,-39.63 -11.31,6.27 -20.03,16.28 -26.06,27.6 -11.63,-16.79 -21.09,-35.56 -37.41,-48.49zm-62.69 70.37c-6.74,24.29 5.2,51.77 29.29,60.8 2.68,12.26 5.05,24.64 8.4,36.78 6.31,16.24 18.69,29.1 26.18,44.75 9.7,4.29 19.4,9.62 30.36,9.58 24.95,1.61 49.95,5.52 74.94,2.44 20.27,-2.44 42.11,0 60.6,-10.33 7.53,-11.9 15.89,-23.38 22.67,-35.72 8.08,-14.39 9.86,-31.06 13.05,-46.95 24.29,-8.91 36.86,-36.71 30.52,-61.31 -16.72,16.6 -29.69,36.82 -47.55,52.55 -4.69,22.63 -8,51.1 -31.23,62.65 -4.73,-1.42 -9.81,-8.08 -14.62,-5.79 -27.96,30.39 -84.37,30.83 -110.67,-1.93 -4.02,2.56 -8,5.12 -11.91,7.84 -24.6,-9.19 -28.07,-39.82 -32.92,-62.29 -17.38,-16.17 -31.02,-35.72 -47.11,-53.07z"/>
   <path class="fil1" d="M949.95 1266.5l101.09 0 -50.55 92.18 -50.54 -92.18zm387.28 -1135.5c2.95,-3.82 5.2,-10.45 11.23,-9.78 191.69,-0.23 383.42,0.48 575.1,-0.35 2.17,76.64 1.23,153.52 0.48,230.2 -36.63,-0.11 -73.33,-1.1 -109.96,0.52 0.36,282.56 0.24,565.16 0.08,847.73 36.78,0.43 73.61,0.08 110.43,0.19 0.12,93.32 0.2,186.6 -0.04,279.92 -210.57,0 -421.1,0 -631.68,0 0,-93.32 0,-186.6 0,-279.92 37.85,-0.19 75.7,0.36 113.55,-0.27 -0.36,-84.92 -0.32,-169.89 -0.04,-254.81 19.36,-4.81 39.19,-14.63 48.38,-33.27 10.68,-25.24 15.73,-52.36 24.52,-78.19 8.24,-24.79 33.47,-40.53 38.12,-66.86 2.53,-12.62 -5.56,-23.54 -7.57,-35.48 -1.06,-10.14 5.72,-18.5 7.97,-27.92 2.13,-13.05 -1.15,-26.77 3.55,-39.38 10.32,-26.62 2.95,-55.4 1.73,-82.76 6.58,-9.85 16.8,-18.57 16.99,-31.3 4.14,-36.71 -17.7,-68.45 -26.89,-102.51 -1.93,-8.59 -4.88,-18.88 1.86,-26.18 17.15,-19.63 39.9,-35.09 51.17,-59.41 13.09,-27.95 20.58,-60.52 12.97,-91.04 -4.85,-21.29 -22.78,-36.46 -42.06,-44.82 -22.83,-11.63 -49.6,-10.17 -72.51,-21.45 -24.01,-10.88 -54.13,-13.72 -77.11,1.18 -33.36,20.5 -73.53,31.07 -112.64,26.06 20.1,-33.75 41.83,-66.55 62.37,-100.1zm-1261.5 219.72c0.59,-76.64 -1.38,-153.37 0.94,-229.89 195.2,0.95 390.44,0.12 585.63,0.39 20.66,32.65 41.04,65.45 61.94,97.94 2.48,3.47 3.55,7.65 4.65,11.71 -33.75,4.41 -68.76,-1.38 -99.23,-16.52 -17.23,-8.56 -33.95,-21.06 -54.25,-19.4 -24.21,-1.3 -44.55,14.15 -67.85,17.62 -26.5,5.05 -55.56,11.63 -73.73,33.24 -17.74,18.57 -18.29,46.6 -14.67,70.49 5.01,33.87 22.36,65.8 48.97,87.53 9.5,9.38 25.63,18.92 20.9,34.69 -7.89,37.14 -33.4,70.81 -28.71,110.31 0,12.82 9.23,22.04 16.17,31.7 -1.22,26.34 -8.32,53.78 0.63,79.44 7.33,17.87 -0.67,38.56 9.62,55.71 12.3,18.57 -10.96,35.88 -3.83,55.04 7.46,23.54 28.98,38.99 38.17,61.54 7.92,26.18 13.52,53.11 23.34,78.66 8.51,18.92 29.06,27.95 47.9,33.23 1.5,84.89 0.75,169.89 0.36,254.77 38.59,1.46 77.23,-0.08 115.83,0.83 -0.32,93.16 -0.28,186.33 -0.04,279.45 -211.01,0.31 -422.01,0.59 -633.02,-0.12 0.43,-93.12 0.32,-186.21 0.04,-279.29 36.51,-0.63 73.02,-0.08 109.53,-0.28 -0.04,-282.91 0.07,-565.79 -0.04,-848.67 -36.43,-0.12 -72.86,0.12 -109.25,-0.12z"/>
   <path class="fil2" d="M872.48 1164.26l14.49 26.42c0.49,6.56 0.49,13.29 2.52,19.49l221.87 0c1.9,-6.17 2.06,-12.86 2.61,-19.39l14.36 -26.18c7.2,-2.2 16.21,-1.1 19.4,-9.12 14.95,-32.68 34.3,-65.32 65.04,-85.31 0.74,-0.63 1.52,-1.14 2.38,-1.51l11.29 -4.89 -225.95 412.06 -145.66 -265.66 -80.5 -146.81c45.77,26.12 65.75,62.4 81.49,97.24 4.96,1.89 11.4,1.86 16.66,3.66zm45.76 83.46l82.25 150 82.26 -150 -164.51 0zm914.64 -877.97c0.32,270.31 0.21,540.63 0.06,810.95 30.57,0.17 61.14,-0.06 91.71,0.04l18.69 0.06 0.03 18.69c0.11,93.33 0.19,186.66 -0.04,279.99l-0.05 18.73 -18.73 0c-210.56,0 -421.12,0 -631.68,0l-18.77 0 0 -18.78c0,-93.3 0,-186.61 0,-279.92l0 -18.67 18.68 -0.1c31.59,-0.17 63.2,0.19 94.79,-0.05 -0.27,-78.78 -0.22,-157.55 0.04,-236.32l0.04 -14.63 14.2 -3.53c13.37,-3.32 29.2,-9.99 35.85,-22.92 10.26,-24.45 15.32,-51.15 23.78,-76.3 1.48,-4.4 3.37,-8.63 5.58,-12.7 4.11,-7.62 9.22,-14.48 14.48,-21.33 6.62,-8.59 15.43,-19.1 17.37,-30.12l0.04 -0.21 0.04 -0.2c0.2,-0.98 0.13,-2 -0.03,-2.98 -0.51,-3.25 -1.96,-6.88 -3.09,-9.97 -1.89,-5.19 -3.63,-10.27 -4.55,-15.74l-0.1 -0.57 -0.06 -0.58c-0.48,-4.53 -0.14,-9.02 0.85,-13.46 1.11,-4.97 2.98,-9.43 4.99,-14.07 0.81,-1.89 1.81,-4.06 2.38,-6.1 0.5,-3.6 0.45,-7.43 0.43,-11.04 -0.07,-11 -0.01,-20.84 4,-31.31 8.4,-21.92 1.55,-52.08 0.51,-75.2l-0.27 -6.15 3.42 -5.12c2.71,-4.05 13.76,-16.6 13.83,-21.16l0.01 -0.91 0.11 -0.91c0.82,-7.33 0.3,-14.59 -1.09,-21.82 -4.78,-24.81 -18.57,-48.82 -25.27,-73.69l-0.11 -0.38 -0.08 -0.39c-3.47,-15.42 -5.57,-29.92 6.18,-42.83 15.03,-17.13 38.56,-34.25 48.14,-54.81 11.14,-23.89 18.3,-52.4 11.78,-78.56l-0.09 -0.38c-3.45,-15.11 -17.68,-25.89 -31.23,-31.77l-0.54 -0.23 -0.52 -0.26c-3.77,-1.92 -7.75,-3.4 -11.79,-4.61 -20.57,-6.18 -40.21,-6.83 -60.18,-16.58 -17.9,-8.04 -41.59,-11.28 -58.91,-0.05l-0.19 0.12 -0.19 0.12c-37,22.74 -81.51,34.24 -124.86,28.69l-28.4 -3.64 14.66 -24.6c20.16,-33.84 41.92,-66.7 62.49,-100.29l0.53 -0.87 0.6 -0.78c0.68,-0.93 1.31,-2.07 1.95,-3.06 5.79,-8.9 14.02,-14.75 24.93,-14.04 191.41,-0.24 382.83,0.47 574.25,-0.36l18.33 -0.07 0.52 18.32c2.18,76.95 1.23,153.95 0.48,230.92l-0.18 18.65 -18.65 -0.06c-30.36,-0.1 -60.75,-0.8 -91.1,-0.1zm-1093.06 -161.07c3.77,5.43 5.47,10.95 7.19,17.26l5.64 20.75 -21.32 2.79c-37.42,4.9 -76.22,-1.53 -110.02,-18.32 -12.43,-6.17 -30.24,-18.65 -44.38,-17.5l-1.26 0.11 -1.27 -0.07c-4.01,-0.22 -7.98,0.28 -11.88,1.16 -7.44,1.68 -14.8,4.69 -21.91,7.42 -9.8,3.75 -19.48,7.2 -29.89,8.8 -21.2,4.04 -47.91,9.44 -62.52,26.82l-0.38 0.45 -0.42 0.43c-13.11,13.73 -12.27,37.31 -9.67,54.75 4.37,29.23 19.28,56.98 42.27,75.75l0.69 0.56 0.63 0.63c2.97,2.93 6.31,5.61 9.39,8.44 12.98,11.9 21.58,26.12 16.53,44.19 -3.16,14.55 -8.59,28.31 -14.12,42.09 -7.68,19.15 -16.66,40.31 -14.15,61.43l0.13 1.1 0 1.11c0,5.65 9.34,16.16 12.64,20.75l3.81 5.3 -0.31 6.52c-1.02,22.07 -7.67,50.93 -0.53,72 1.5,3.77 2.58,7.68 3.31,11.67 1.17,6.46 1.39,12.89 1.51,19.43 0.12,6.3 -0.12,15.54 3.17,21.28 17.03,26.39 -5.1,50.59 -2.19,58.39l0.16 0.44 0.14 0.44c1.06,3.34 2.56,6.51 4.3,9.54 3.58,6.23 8.17,12.04 12.58,17.7 8.1,10.43 15.75,20.56 20.78,32.89l0.33 0.81 0.25 0.83c7.71,25.49 13.19,51.92 22.68,76.81 6.02,12.68 23.18,18.95 35.66,22.45l13.46 3.77 0.24 13.97c1.4,78.94 0.85,157.88 0.45,236.83 32.46,0.54 64.95,-0.43 97.41,0.33l18.4 0.43 -0.07 18.4c-0.31,93.12 -0.27,186.23 -0.04,279.34l0.05 18.8 -18.79 0.02c-211.04,0.32 -422.08,0.59 -633.11,-0.11l-18.8 -0.07 0.09 -18.8c0.43,-93.05 0.31,-186.1 0.04,-279.14l-0.06 -18.51 18.51 -0.32c30.35,-0.53 60.71,-0.24 91.07,-0.24 -0.03,-270.4 0.07,-540.8 -0.03,-811.2 -30.2,-0.02 -60.4,0.11 -90.61,-0.08l-18.79 -0.13 0.14 -18.79c0.59,-76.78 -1.38,-153.56 0.96,-230.32l0.55 -18.29 18.3 0.08c195.19,0.95 390.38,0.12 585.57,0.4l10.32 0.01 5.52 8.72c20.56,32.49 40.85,65.15 61.65,97.5zm1130.65 198.32c0.26,245.4 0.18,490.81 0.05,736.21 18.08,-0.02 36.17,-0.08 54.25,-0.02l56.07 0.18 0.08 56.07c0.12,93.38 0.19,186.76 -0.04,280.14l-0.15 56.18 -56.18 0c-210.56,0 -421.12,0 -631.68,0l-56.32 0 0 -56.33c0,-93.3 0,-186.61 0,-279.92l0 -56.03 56.03 -0.29c19.11,-0.1 38.22,-0.01 57.33,0.03 -0.14,-66.33 -0.07,-132.65 0.15,-198.97l0.03 -10.18c-9.26,4.05 -19.59,6.16 -28.97,9.57 -16.52,5.84 -29.77,17.78 -45.46,25.27 -0.55,-33.11 37.54,-41.51 55.91,-62.13 7.33,-13.37 21.33,-20.38 30.83,-31.82 3.47,-10.13 2.8,-22.08 10.01,-30.67 5.44,-7.21 15.69,-6.9 22.51,-12.3 13.25,-9.38 18.26,-26.02 30.4,-36.39 3.5,-3.04 7.72,-4.38 12.13,-5.13 4.33,-7.12 9.21,-13.75 14.34,-20.41 1.74,-2.26 5.49,-6.83 8.05,-10.6 -2.11,-6.17 -4.27,-11.87 -5.55,-19.48l-0.29 -1.73 -0.18 -1.74c-2.06,-19.55 2.4,-29.51 8.47,-45.44 0,-1.01 -0.02,-2.02 -0.03,-2.91 0,-0.92 -0.01,-1.83 -0.01,-2.73 -4.14,12.59 -9.15,24.86 -15.4,36.52 -11,11.4 -16.13,28.15 -30.4,36.15 1.42,-15.84 -0.71,-32.99 7.49,-47.31 21.96,-47.31 33.04,-105.74 6.78,-153.68 -2.36,-20.81 4.89,-42.89 -4.45,-62.76 -11.75,-23.58 -32.96,-40.26 -49.84,-59.93 -18.41,-16.75 -51.45,-32.45 -42.81,-62.65 3.82,-19.59 33.43,-16.2 34.61,-37.29 43.65,14.11 67.46,58.35 84.61,97.89 0.59,1.77 1.29,3.48 2.1,5.15 -1.28,-19.68 3.07,-37.96 18.28,-54.68 10.52,-11.72 36.26,-33.28 41.94,-45.47 7.23,-15.51 13.65,-36.45 9.37,-53.61l-0.07 -0.29c-0.75,-1.03 -2.13,-2.13 -3.66,-3.15 0.18,8.21 0.88,16.38 1.63,24.55 -5.01,12.22 -11.87,23.61 -17.94,35.36 -6.07,-0.39 -6.62,-8.28 -9.54,-12.34 -8.52,-19.59 -19.04,-39.58 -38.88,-49.75 10.78,-11.45 24.59,-10.29 38.6,-7.77 -18.31,-4.37 -34.37,-6.09 -53.8,-15.42 -5.23,-2.25 -17.75,-5.87 -22.73,-2.65l-0.57 0.37 -0.58 0.36c-27.73,17.05 -58.98,28.66 -91.19,33.32 4.73,3.42 9.48,6.8 14.32,10.04 -17.58,13.68 -35.95,26.42 -52.55,41.28 -10.02,9.35 -2.76,23.18 -0.08,34.1 3.71,8.95 -6.9,15.18 -7.93,23.46 -0.71,12.14 1.23,24.25 3.16,36.23 -2.21,1.07 -6.66,3.24 -8.87,4.34 -21.17,-14.43 -41.87,-31.66 -67.58,-37.1 -13.32,-2.96 -26.61,4.97 -39.78,0.24 -21.88,-4.65 -38.24,15.26 -58.54,18.29l-3 -2.05c-5.36,-21.92 -1.89,-44.79 -1.11,-67.06 -0.62,-8.52 8.72,-11.63 13.65,-16.68 0.08,-4.53 0.15,-9.03 0.19,-13.52 19.48,-14.39 39.27,-28.35 58.91,-42.58 -8.17,-13.88 -26.38,-10.88 -37.89,-3.27 -23.66,15.25 -46.13,32.44 -66.63,51.72 -7.73,7.57 -18.81,8.99 -29.1,8.36 -0.75,-12.73 4.69,-24.48 10.49,-35.44 11,-22.55 27.87,-43.65 51.21,-54.13 24.29,-10.73 51.18,8.91 74.6,-4.58 7.96,0.25 15.58,2.2 23.06,4.79l24.14 -40.52c20.24,-33.98 42.07,-66.95 62.72,-100.68l1.6 -2.61 0.97 -1.26c13.65,-20.74 33.1,-34.09 58.62,-32.82 190.98,-0.23 381.96,0.47 572.94,-0.36l54.99 -0.23 1.56 54.97c2.19,77.43 1.25,154.9 0.49,232.35l-0.54 55.95 -55.96 -0.18c-17.78,-0.06 -35.59,-0.33 -53.39,-0.4zm-482.7 484.02l5.03 -1.25c2.66,-0.66 8.78,-2.51 11.69,-4.49 1.93,-4.9 3.68,-9.93 5.31,-15.03 -7.13,7.13 -14.9,13.64 -22.03,20.77zm91.59 -346.04c1.61,-2.11 3.29,-4.18 4.88,-6.25 -0.09,-2.11 -0.39,-4.22 -0.78,-6.28 -0.87,-4.47 -2.12,-9.07 -3.63,-13.75 -0.06,8.76 -0.22,17.52 -0.47,26.28zm-708.27 -357.1c6.08,8.93 9.32,17.78 12.15,28.21l8.03 29.53c9.5,-3.59 19.16,-6.73 29.22,-8.25 21.92,13.92 47.24,-3.86 70.65,3.75 22.16,6.9 38.37,25.55 50.43,44.51 7.45,14.51 17.66,29.21 16.36,46.28 -23.18,4.58 -36.9,-17.26 -53.14,-29.25 -17.75,-12.81 -34.27,-28.39 -55.08,-36.03 -9.27,-4.22 -18.81,1.69 -26.22,6.82 19.48,16.16 41.16,29.45 60.83,45.41 -3.35,10.89 4.93,17.31 12.54,23.15 0.99,25.03 4.02,50.42 -0.79,75.26 -21.48,-1.06 -37.41,-22.16 -59.88,-18.57 -14.47,4.73 -29.14,-3.39 -43.69,0.51 -24.25,5.37 -43.52,21.89 -63.36,35.76 -2.28,0.12 -6.86,0.32 -9.14,0.44 -1.3,-13.57 2.48,-26.93 1.46,-40.45 -1.34,-8.32 -11.75,-14.35 -8.16,-23.46 2.08,-10.13 8.95,-22.63 0.98,-31.82 -15.93,-16.36 -35.28,-28.9 -52.95,-43.29 4.68,-3.12 9.26,-6.5 13.85,-9.93 -24.48,-3.37 -48.41,-10.66 -70.58,-21.67 -5.75,-2.86 -19.93,-11.59 -26.27,-13.56l-2.14 0.17 -3.66 -0.2c-0.52,0.01 -1.24,0.18 -1.74,0.29 -5.43,1.23 -11.53,3.85 -16.74,5.85 -12.2,4.68 -24.01,8.68 -36.92,10.75 -3.98,0.75 -10.1,1.9 -16.44,3.5 15.93,-3.03 32.26,-7.63 42.8,7.42 -8.79,6.03 -18.14,11.98 -23.97,21.13 -8.4,13.21 -12.34,28.82 -21.53,41.59 -7.45,-12.1 -13.91,-24.76 -20.73,-37.18 2.26,-8.15 2.35,-16.58 2.5,-24.97 -1.14,0.79 -2.1,1.62 -2.83,2.49l-1.14 1.36 -0.84 0.87c-2.25,4.95 -0.79,18.95 -0.08,23.67 2.99,19.98 13.13,39.37 28.88,52.22l2.06 1.69 1.9 1.87c2.59,2.56 5.66,4.99 8.38,7.48 18.94,17.37 30.87,39.03 30.18,63.49 17.59,-39.13 40.05,-81.29 81.39,-99.3 6.71,-2.95 6.39,7.85 9.7,11.2 7.02,7.41 18.96,8.28 25.55,16.4 7.77,10.61 9.11,26.61 0.43,37.1 -14.11,18.73 -37.33,27.99 -51.25,46.92 -13.6,16.6 -31.7,30.2 -39.42,50.94 -9.63,22.86 6.11,49.59 -7.85,71.16 -18.96,45.49 -7.96,97.5 11.43,140.98 8.6,14.43 6.39,31.74 7.41,47.75 -6.82,-1.89 -9.85,-8.64 -13.44,-14 -6.54,-11.67 -17.27,-20.5 -22.51,-32.96 -4.54,-10.34 -8.14,-21.04 -11.25,-31.89 0.09,3.8 0.21,7.52 0.63,11.17 6.65,12.09 9.98,25.65 9.6,39.55 -0.35,13.26 -3.21,20.65 -6.51,30.09 2.25,3.25 4.85,6.45 7.16,9.42 5.44,7 10.51,13.78 15.04,20.92 3.25,0.27 6.4,0.94 9.22,2.75 14.15,8.59 18.85,25.98 30.95,36.7 6.46,6.86 16.36,7.85 24.29,12.26 7.88,8.4 8.08,20.43 11.23,30.87 2.29,7.65 9.98,11.28 15.57,16.17 11.32,7.77 16.01,22.08 28.39,28.74 17.74,13.52 44.87,25.07 43.92,51.45 -13.21,-5.44 -23.93,-15.18 -36.74,-21.37 -12.71,-6.96 -27.72,-8.37 -40.75,-14.46l0.18 9.88c1.18,66.69 0.98,133.4 0.64,200.1 20.19,-0.09 40.38,-0.29 60.55,0.18l55.19 1.3 -0.19 55.2c-0.31,93.04 -0.27,186.08 -0.04,279.12l0.15 56.38 -56.39 0.08c-211.1,0.32 -422.19,0.6 -633.29,-0.11l-56.4 -0.19 0.27 -56.4c0.43,-92.96 0.31,-185.91 0.04,-278.86l-0.17 -55.53 55.52 -0.96c18.05,-0.31 36.11,-0.34 54.16,-0.3 -0.01,-245.34 0.07,-490.68 -0.01,-736.02 -17.77,0.01 -35.54,0.01 -53.31,-0.11l-56.39 -0.36 0.43 -56.39c0.6,-77.07 -1.37,-154.12 0.97,-231.17l1.67 -54.88 54.91 0.26c195.14,0.95 390.29,0.12 585.43,0.4l30.96 0.04 16.56 26.16c20.41,32.25 40.55,64.68 61.19,96.78zm-249.51 327.46c-3,8.28 -5.59,17.24 -5.48,24.35 1.72,2.31 3.66,4.66 5.33,6.88 -0.17,-10.4 0.13,-20.81 0.15,-31.23zm68.31 354.32c1.58,5.27 3.26,10.49 5.1,15.63 3.55,1.95 9.79,3.86 12.53,4.63l7.03 1.97c-7.76,-7.79 -16.8,-14.5 -24.66,-22.23zm488.68 170.18c-1.53,-24.76 2.76,-49.24 8.09,-73.29 -16.56,11.67 -26.34,29.8 -35.72,47.23 -11,-6.54 -15.77,-23.22 -30.44,-25.51 -1.62,13.17 -1.14,26.46 -1.97,39.66 -12.22,0.04 -24.48,0.24 -36.67,-0.78 0.04,-13.25 0.28,-26.74 -3.35,-39.63 -11.31,6.27 -20.03,16.28 -26.06,27.6 -11.63,-16.79 -21.09,-35.56 -37.41,-48.49 3.66,23.97 9.26,47.94 7.41,72.42 24.92,10.25 52.12,12.85 78.81,11.51 26.22,1.9 52.44,-2.36 77.31,-10.72zm-214.35 -249.88c5.56,-21.68 7.68,-44.71 2.32,-66.67 -11.79,12.3 -23.34,30.28 -42.93,27.96 -0.59,9.02 1.06,18.29 -1.11,27.2 -11.27,36.55 -4.65,75.34 -6.11,112.99 4.5,3.43 9.43,6.59 12.97,11.16 5.96,8.83 4.34,20.42 9.62,29.57 9.51,17.54 27.37,29.37 34.58,48.33 4.85,12.58 5.64,28 16.87,37.06 2.69,-18.05 4.82,-36.78 0.36,-54.72 -3.51,-14.47 -5.52,-30.91 -17.27,-41.4 -6.38,-7.37 -18.25,-10.84 -19.51,-21.68 -3.95,-22.39 -1.98,-45.89 -10.65,-67.34 5.95,-14.66 16.95,-26.93 20.86,-42.46zm281.06 -290.37c-5.24,5.13 -6.9,14.9 -0.87,20.23 6.9,8.43 21.49,3.82 24.37,-6 4.61,-12.57 -14.55,-24.87 -23.5,-14.23zm-306.57 22.44c7.37,5.44 19.87,0.19 21.41,-8.76 4.49,-12.3 -13.8,-23.77 -22.99,-14.15 -6.98,5.6 -7.45,19.04 1.58,22.91zm-52.2 76.72c-6.15,-15.97 2.33,-37.66 -13.41,-49.64 -17.11,-12.18 -38,-17.19 -57.28,-24.92 -16.95,-2.2 -34.26,-0.35 -51.37,-0.9 0.55,18.92 -1.38,38.04 -8.32,55.78 -4.73,11.24 -2.92,24.09 5.28,33.2 -9.26,30.99 6.86,61.07 13.33,90.84 3.51,30.27 -0.2,60.99 1.97,91.39 0.71,11.31 5.32,22.27 13.76,30 9.5,8.91 12.02,22.86 22.71,30.83 1.22,-11.44 2.64,-23.1 0.55,-34.5 -3.75,-9.18 -10.41,-17.03 -12.62,-26.89 4.62,-7.84 9.9,-15.37 13.21,-23.93 0.63,-12.5 -0.24,-25.11 2.52,-37.45 4.1,-27.44 -18.05,-48.46 -24.36,-73.57 -3.39,-12.18 3.67,-23.42 5.76,-35.13 -1.86,-7.37 -7.34,-13.09 -11.16,-19.51 6.74,-8.36 9.97,-18.61 13.92,-28.43 4.33,-12.22 20.65,-15.18 30.94,-8.75 20.15,10.6 30.36,31.97 44.2,49 5.01,6.31 11.24,16.76 20.86,13.17 1.57,-11.39 -0.71,-23.54 -10.49,-30.59zm116.22 -21.92c-1.14,-15.03 -6.5,-29.49 -9.14,-44.36 -11.75,7.89 -23.46,16.8 -37.57,19.87 -20.94,5.17 -43.49,-7.84 -52.01,-27.04 -5.28,-12.82 -1.81,-26.85 2.41,-39.43 -22.67,0.08 -45.34,0 -68.01,0.04 18.53,18.85 32.49,41.4 47.9,62.69 8.95,11.35 19.16,23.1 33.51,27.44 26.58,8.87 56.26,9.89 82.91,0.79zm152.9 -5.8c-10.57,-31.58 -38.4,-54.8 -44.71,-88.19 -5.32,-18.61 8.04,-34.82 13.96,-51.46 -11.67,-18.37 -21.02,-38.4 -25.51,-59.76 -1.46,21.76 -13.01,41.08 -23.86,59.45 7.18,17.23 19.72,35.17 13.29,54.68 -7.53,31.7 -33.59,54.33 -42.89,85.16 18.05,-3.98 36.07,1.19 52.43,8.68 18.42,-5.64 37.42,-13.68 57.29,-8.56zm169.13 -19.95c-12.93,13.56 -3.07,33.87 -11.27,49.01 -8.48,7.13 -11.36,18.72 -9.19,29.41 6.94,3.86 11.63,-3.35 15.89,-7.37 16.17,-19.09 27.72,-44 50.98,-55.67 10.21,-6.07 25.66,-1.62 29.33,10.17 3.59,9.62 7.14,19.4 13.45,27.68 -3.79,6.54 -8.88,12.45 -11.24,19.75 2.01,9.34 6.46,18.09 7.45,27.64 -3.27,28.07 -29.49,49.08 -26.81,78.45 1.89,13.33 1.89,26.77 2.48,40.18 3.63,8.24 9.7,15.06 13.33,23.26 -0.32,11.79 -11.55,19.51 -13.6,30.79 -0.95,10.37 0.27,20.74 1.38,31.07 5.08,-4.18 9.82,-8.87 12.42,-15.03 5.95,-14.11 22.59,-22.15 23.61,-38.55 1.15,-26.46 2.13,-53.03 0.83,-79.52 -0.91,-37.7 28.51,-72.07 15.81,-110.12 8.08,-8.91 10.01,-21.01 5.52,-32.09 -7.45,-18.14 -8.36,-37.81 -9.03,-57.17 -22.31,2.01 -46.13,-4.26 -66.82,6.7 -14.99,6.71 -32.25,10.02 -44.52,21.41zm-128.29 25.39c31.11,9.66 67.26,9.78 96.48,-5.91 28.9,-22.79 42.22,-59.1 68.6,-84.41 -22.79,-0.51 -45.58,-0.08 -68.33,-0.28 5.37,12.26 9.27,26.38 3.83,39.35 -7.61,17.5 -26.61,29.92 -45.93,27.99 -16.52,-0.95 -30.09,-11.32 -42.86,-20.78 -4.3,14.59 -8.28,29.26 -11.79,44.04zm-33.82 80.86c8.47,1.58 19.12,3.59 20.34,14 3.07,26.37 -21.92,42.89 -31.9,64.66 38.17,-7.18 60.01,-48.1 57.76,-84.53 -3.86,-21.61 -17.15,-42.03 -36.23,-53.15 -23.34,-11.35 -47.7,2.96 -71.16,5.68 -21.33,-0.91 -41.16,-12.77 -62.77,-9.5 -15.81,3.35 -28.03,15.61 -36.39,28.82 -27.36,39.98 0.04,103.65 47.39,112.72 -10.05,-21.61 -35.17,-38.48 -31.42,-64.98 0.87,-9.69 11.16,-12.18 19,-13.68 3.67,-12.97 7.3,-28.34 20.23,-35.28 9.1,-5.6 22.59,-2.96 27.44,6.98 7.61,16.47 5.36,35.24 5.75,52.86 6.15,0.08 12.31,0.2 18.46,0.32 0.67,-16.52 -0.79,-33.75 4.89,-49.6 3.42,-10.64 16.28,-16.83 26.57,-11.79 14.27,6.16 19.32,22.48 22.04,36.47zm-17.04 190.94c11.24,-12.42 23.94,-23.3 36.79,-33.98 -1.07,26.02 0.91,51.96 1.14,77.98 23.81,-20.11 37.89,-50.78 39.9,-81.65 -21.96,-12.69 -45.22,-23.73 -70.3,-28.58 -59.49,-12.38 -125.49,-5.17 -176.19,30.12 2.92,30.91 17.86,60.36 40.81,81.17 0.15,-26.25 -0.52,-52.55 0.35,-78.77 13.45,9.62 24.21,22.36 36.47,33.36 5.84,-18.1 9.54,-39.67 24.88,-52.24 14.59,-2.01 31.62,-5.13 45.02,2.44 12.22,13.8 15.89,32.88 21.13,50.15zm87.57 120.13c7.57,-11.98 18.88,-20.89 27.08,-32.37 8.13,-9.85 4.3,-24.52 12.42,-34.42 3.71,-4.1 8.12,-7.53 12.38,-11.11 -0.51,-27.88 0.4,-55.75 -0.43,-83.63 -2.45,-18.45 -10.13,-36.23 -6.55,-55.19 -18.21,1.02 -32.05,-12.58 -41,-26.85 -6.07,5.28 -5.75,13.88 -6.46,21.21 -0.44,19.59 3.66,39.27 11.47,57.21 4.77,9.85 11.27,18.8 14.9,29.17 -8.51,22.75 -6.54,47.35 -10.41,70.89 -5.91,10.84 -20.14,14.39 -25.66,25.98 -13.37,27.17 -15.97,58.94 -10.25,88.51 14.58,-12.77 11.11,-34.65 22.51,-49.4zm-32.37 121.19c-4.69,22.63 -8,51.1 -31.23,62.65 -4.73,-1.42 -9.81,-8.08 -14.62,-5.79 -27.96,30.39 -84.37,30.83 -110.67,-1.93 -4.02,2.56 -8,5.12 -11.91,7.84 -24.6,-9.19 -28.07,-39.82 -32.92,-62.29 -17.38,-16.17 -31.02,-35.72 -47.11,-53.07 -6.74,24.29 5.2,51.77 29.29,60.8 2.68,12.26 5.05,24.64 8.4,36.78 6.31,16.24 18.69,29.1 26.18,44.75 9.7,4.29 19.4,9.62 30.36,9.58 24.95,1.61 49.95,5.52 74.94,2.44 20.27,-2.44 42.11,0 60.6,-10.33 7.53,-11.9 15.89,-23.38 22.67,-35.72 8.08,-14.39 9.86,-31.06 13.05,-46.95 24.29,-8.91 36.86,-36.71 30.52,-61.31 -16.72,16.6 -29.69,36.82 -47.55,52.55z"/>
  </g>
 </g>
</svg>
