<?xml version="1.0" encoding="UTF-8"?>
<!DOCTYPE svg PUBLIC "-//W3C//DTD SVG 1.1//EN" "http://www.w3.org/Graphics/SVG/1.1/DTD/svg11.dtd">
<!-- Creator: CorelDRAW -->
<svg xmlns="http://www.w3.org/2000/svg" xml:space="preserve" width="2000px" height="1600px" version="1.1" style="shape-rendering:geometricPrecision; text-rendering:geometricPrecision; image-rendering:optimizeQuality; fill-rule:evenodd; clip-rule:evenodd"
viewBox="0 0 2000 1600"
 xmlns:xlink="http://www.w3.org/1999/xlink">
 <defs>
  <style type="text/css">
   <![CDATA[
    .fil1 {fill:#003768;fill-rule:nonzero}
    .fil3 {fill:#6180A7;fill-rule:nonzero}
    .fil2 {fill:#FCB813;fill-rule:nonzero}
    .fil0 {fill:#FEFEFE;fill-rule:nonzero}
   ]]>
  </style>
 </defs>
 <g id="Capa_x0020_1">
  <metadata id="CorelCorpID_0Corel-Layer"/>
  <g id="Merrimack_x0020_Warriors.cdr">
   <path class="fil0" d="M1066.74 293.29c104.17,-31.62 207.6,-65.61 311.64,-97.62 -47.73,145.85 -95.86,291.57 -142.93,437.64 37.33,-43.41 86.15,-77.57 141.23,-94.09 113.41,-35.99 227.04,-71.36 340.48,-107.35 37.01,-11.35 73.69,-23.76 110.89,-34.44 -22.1,67.61 -43.82,135.34 -66.59,202.73 -102.51,31.19 -204.23,65.11 -306.79,96.16 -20.87,59.54 -39.63,119.86 -59.8,179.66 -24.23,74.25 -49.66,148.14 -72.92,222.69 101.22,-27.83 202.37,-55.89 303.85,-82.86 -19.9,67.29 -43.56,133.44 -64.79,200.31 -130.22,34.53 -259.93,70.92 -390,105.99 -29.81,8.14 -62.49,13.6 -92.47,3.34 -24.63,-7.96 -43.14,-29.81 -49.77,-54.48 -8.48,-32.83 -2.54,-67.26 7.07,-99.17 16.59,-52.14 34.34,-103.93 50.65,-156.16 -88.76,32.58 -176.84,66.99 -265.58,99.6 32.5,-100.14 65.33,-200.18 98.18,-300.2 2.92,-8.25 5.74,-16.53 7.47,-25.11 -49.49,82.34 -100.81,163.54 -150.74,245.61 -24.72,40.24 -49.56,80.41 -74.18,120.71 -3.29,5.85 -9.05,9.71 -15.13,12.26 -51.49,20.44 -102.96,41.01 -154.42,61.55 -3.14,-69.91 -4.95,-139.89 -7.02,-209.85 -1.86,-49.09 -1.96,-98.28 -4.8,-147.32 -16.14,53.24 -34.66,105.72 -51.42,158.77 -28.35,86.59 -56.75,173.16 -85.25,259.68 -67.44,29.61 -135.54,57.69 -203.25,86.61 40.22,-121.74 79.48,-243.83 119.57,-365.6 53.64,-163.14 106.84,-326.42 160.41,-489.56 4.3,-13.97 9.32,-27.69 13.29,-41.75 100.64,-32.21 201.32,-64.23 302.22,-95.55 4.23,-1.28 8.56,-2.2 12.88,-3.11 0.4,23.88 0.67,47.78 1.17,71.66 2.32,30.5 1.35,61.13 2.57,91.69 2.05,23.8 1.33,47.73 2.2,71.61 2.54,33.54 1.38,67.28 4.35,100.83 82.53,-135.84 166.7,-270.65 249.59,-406.29 4.35,-7.52 9.05,-16.17 18.14,-18.59zm11.75 20.76l0 0c-3.89,0.85 -6.78,3.49 -8.53,6.95 -70.53,114.06 -140.41,228.51 -210.88,342.61 -26.95,44.13 -55.11,87.53 -81.53,131.98 -1.16,-17.4 -0.84,-34.83 -1.33,-52.26 -2.16,-29.61 -1.44,-59.35 -2.45,-89.01 -2.23,-28.78 -1.29,-57.7 -2.75,-86.5 -1.5,-12.33 -0.86,-24.77 -1.26,-37.12 -1.06,-39.33 -3.04,-78.59 -3.48,-117.94 -91.39,27.51 -182.01,57.74 -273.37,85.43 -7.37,17.95 -12.51,36.71 -18.54,55.12l-0.94 1.73c-0.82,2.58 -1.66,5.15 -2.52,7.74 -0.33,1.39 -1.02,4.18 -1.36,5.59 -31.84,96.53 -63.48,193.13 -95.17,289.71 -38.79,120.16 -78.88,239.9 -117.62,360.09 -13.08,39.45 -25.68,79.05 -38.88,118.45 45.55,-17.77 90.12,-38.01 135.39,-56.55 5.61,-2.43 13.22,-3.89 13.91,-11.3 32.53,-101.15 66.72,-201.79 98.98,-303.01l0.96 -1.78c0.75,-2.55 1.51,-5.07 2.33,-7.57 23.28,-71.21 46.35,-142.5 70.13,-213.55 4.84,151.46 9.49,302.87 13.27,454.32 38.66,-15.2 77.2,-30.72 115.69,-46.4 5.06,-2.27 10.48,-4.32 14.51,-8.3 109.13,-176.1 216.79,-353.24 326.25,-529.15 -16.12,46.97 -30.76,94.48 -46.45,141.6 -35.43,107.33 -70.5,214.76 -105.58,322.19 76.71,-28.87 153.53,-57.45 230.24,-86.35 2.96,-1.5 7.49,-2 8.28,-5.9 73.34,-222.87 145.92,-446.02 219.31,-668.86 0.3,-1.39 0.89,-4.13 1.19,-5.49l1.21 -1.66c7.76,-26.25 16.68,-52.11 25.19,-78.11 -88.01,27.98 -176.3,55.05 -264.2,83.3zm296.58 249.74l0 0c-68.55,23.14 -125.23,75.5 -157.98,139.52 -20.22,39.63 -31.05,83.01 -45.34,124.93 -36.56,111.02 -72.38,222.31 -108.54,333.44 -9,26.95 -17.13,55.01 -15.5,83.7 0.94,16.57 5.61,34.02 18.17,45.66 12.31,13.15 30.95,17.16 48.3,17.11 32.23,-0.28 62.74,-11.72 93.56,-19.63 65.31,-17.8 130.55,-35.79 195.85,-53.57 46.82,-12.95 93.96,-24.84 140.61,-38.49 14.24,-49.73 32.31,-98.33 47.31,-147.87 -101.62,27.76 -203.24,55.57 -304.99,82.91 9.77,-28.72 18.74,-57.69 28.41,-86.44 36.29,-113.04 73.34,-225.84 110.42,-338.63 2.79,-7.79 3.85,-16.57 8.95,-23.29 5.21,-5.93 13.17,-7.98 20.37,-10.46 81.87,-25.7 163.61,-51.73 245.51,-77.42 14.76,-4.84 29.88,-8.72 44.37,-14.38 15.18,-49.79 32.14,-99.03 48.06,-148.57 -139.3,43.53 -278.49,87.24 -417.54,131.48z"/>
   <path class="fil1" d="M986.16 203.29c188.06,-59.23 376.01,-118.83 564.2,-177.64 -41.83,127.21 -82.84,254.69 -125.6,381.57 25.36,-6.08 49.9,-15.32 74.92,-22.74 103.99,-32.26 207.64,-65.63 311.54,-98.16 62.98,-19.6 125.87,-39.5 188.78,-59.38 -49.73,152.92 -99.89,305.71 -149.72,458.57 -0.89,3.98 -6.04,3.71 -8.98,5.24 -101.03,31.67 -202.23,62.89 -302.76,96.11 -1.95,7.02 -4.18,13.99 -6.23,21.01 -1.14,3.14 -2.27,6.28 -3.41,9.42 -0.3,1.39 -0.89,4.13 -1.19,5.49 -12.8,38.32 -25.34,76.71 -37.67,115.17 41.31,-10.93 82.34,-22.82 123.72,-33.45l1.61 -0.89c60.19,-15.67 120.11,-32.45 180.2,-48.57 -47.19,142.26 -92.72,285.04 -140.03,427.25 -2.97,8.5 -4.97,17.4 -9.03,25.51 -94.55,24.15 -188.48,50.77 -282.69,76.33 -50.87,14.02 -101.87,27.62 -152.69,41.85 -41.97,11.1 -85.9,19.93 -129.33,12.86 -52.73,-7 -102.69,-36.17 -132.84,-80.24 -32.76,-46.65 -39.33,-106.49 -31.65,-161.74 -309.9,115.54 -613.24,247.64 -917.31,377.49 86.84,-267.04 174.5,-533.79 261.8,-800.69 33.89,-105.1 69.42,-209.72 102.86,-315l1.34 -1.73c0.19,-1.46 0.61,-4.35 0.84,-5.81l1.23 -1.5c1.46,-5.05 3.12,-10.04 4.82,-15.01 4.3,-14.34 9.32,-28.48 13.82,-42.76 122.46,-37.7 244.38,-77.15 366.74,-115.22 47.19,-14.54 94.03,-30.26 141.42,-44.13 0.42,37.7 0.49,75.57 3.46,113.17 28.87,-47.71 58.34,-95.07 87.83,-142.38zm388.91 360.5c139.05,-44.24 278.24,-87.95 417.54,-131.48 -15.92,49.54 -32.88,98.78 -48.06,148.57 -14.49,5.66 -29.61,9.54 -44.37,14.38 -81.9,25.69 -163.64,51.72 -245.51,77.42 -7.2,2.48 -15.16,4.53 -20.37,10.46 -5.1,6.72 -6.16,15.5 -8.95,23.29 -37.08,112.79 -74.13,225.59 -110.42,338.63 -9.67,28.75 -18.64,57.72 -28.41,86.44 101.75,-27.34 203.37,-55.15 304.99,-82.91 -15,49.54 -33.07,98.14 -47.31,147.87 -46.65,13.65 -93.79,25.54 -140.61,38.49 -65.3,17.78 -130.54,35.77 -195.85,53.57 -30.82,7.91 -61.33,19.35 -93.56,19.63 -17.35,0.05 -35.99,-3.96 -48.3,-17.11 -12.56,-11.64 -17.23,-29.09 -18.17,-45.66 -1.63,-28.69 6.5,-56.75 15.5,-83.7 36.16,-111.13 71.98,-222.42 108.54,-333.44 14.29,-41.92 25.12,-85.3 45.34,-124.93 32.75,-64.02 89.43,-116.38 157.98,-139.52zm30.13 15.43l0 0c11.15,0.52 21.83,-2.92 32.58,-5.29 84.02,-19.53 168.22,-38.49 251.57,-60.86 9.69,-2.55 19.28,-5.88 29.34,-6.67 -6.97,21.35 -13.99,42.71 -20.91,64.12 8.36,-2.18 16.91,-3.98 24.89,-7.42 3.22,-0.91 3.76,-4.47 4.87,-7.12 9.12,-29.12 19.01,-58.01 28.16,-87.13 -117.12,35.89 -233.77,73.36 -350.5,110.37zm-34.58 141.15l0 0c-47.02,142.48 -92.15,285.58 -139.91,427.82 8.95,-2.18 17.89,-4.38 26.87,-6.5 17.15,-50.75 33.91,-101.63 50.6,-152.55 32.53,-101.47 66.52,-202.47 98.13,-304.22 -16.48,5.64 -30.72,18.47 -35.69,35.45zm-82.71 435.5l0 0c14.31,-0.46 28.38,-3.31 42.52,-5.36 62.91,-9.66 125.4,-21.95 188.41,-30.95 -6.9,21.88 -14.59,43.51 -21.46,65.41 8.7,-2.6 17.85,-3.83 26.23,-7.44 12.6,-30.68 20.98,-62.99 31.69,-94.38 -89.16,24.1 -178.35,48.15 -267.39,72.72zm-209.42 -841.82c87.9,-28.25 176.19,-55.32 264.2,-83.3 -8.51,26 -17.43,51.86 -25.19,78.11l-1.21 1.66c-0.3,1.36 -0.89,4.1 -1.19,5.49 -73.39,222.84 -145.97,445.99 -219.31,668.86 -0.79,3.9 -5.32,4.4 -8.28,5.9 -76.71,28.9 -153.53,57.48 -230.24,86.35 35.08,-107.43 70.15,-214.86 105.58,-322.19 15.69,-47.12 30.33,-94.63 46.45,-141.6 -109.46,175.91 -217.12,353.05 -326.25,529.15 -4.03,3.98 -9.45,6.03 -14.51,8.3 -38.49,15.68 -77.03,31.2 -115.69,46.4 -3.78,-151.45 -8.43,-302.86 -13.27,-454.32 -23.78,71.05 -46.85,142.34 -70.13,213.55 -0.82,2.5 -1.58,5.02 -2.33,7.57l-0.96 1.78c-32.26,101.22 -66.45,201.86 -98.98,303.01 -0.69,7.41 -8.3,8.87 -13.91,11.3 -45.27,18.54 -89.84,38.78 -135.39,56.55 13.2,-39.4 25.8,-79 38.88,-118.45 38.74,-120.19 78.83,-239.93 117.62,-360.09 31.69,-96.58 63.33,-193.18 95.17,-289.71 0.34,-1.41 1.03,-4.2 1.36,-5.59 0.86,-2.59 1.7,-5.16 2.52,-7.74l0.94 -1.73c6.03,-18.41 11.17,-37.17 18.54,-55.12 91.36,-27.69 181.98,-57.92 273.37,-85.43 0.44,39.35 2.42,78.61 3.48,117.94 0.4,12.35 -0.24,24.79 1.26,37.12 1.46,28.8 0.52,57.72 2.75,86.5 1.01,29.66 0.29,59.4 2.45,89.01 0.49,17.43 0.17,34.86 1.33,52.26 26.42,-44.45 54.58,-87.85 81.53,-131.98 70.47,-114.1 140.35,-228.55 210.88,-342.61 1.75,-3.46 4.64,-6.1 8.53,-6.95zm13.02 20.87l0 0c60,-4.58 119,-17.38 177.49,-30.98 -11.32,33.77 -22.23,67.66 -33.32,101.5 -62.3,191.65 -125.63,382.98 -187.92,574.63 9.32,-3.24 18.66,-6.48 27.86,-10.11 12.9,-39.3 25.85,-78.61 38.63,-117.96 64.62,-194.77 127.53,-390.07 191.7,-584.96 -71.49,22.59 -143.1,44.77 -214.44,67.88zm-415.71 130.79l0 0c-53.41,16.41 -106.44,34.23 -160.2,49.59 11.74,-0.35 23.38,-2.01 34.9,-4.31 56.91,-9.56 112.85,-23.97 169.58,-34.43 5.34,132.13 7.71,264.35 11.62,396.5 6.84,-10.63 14.88,-20.66 20.07,-32.28 4.4,-9.69 2.52,-20.5 2.4,-30.75 -3.49,-112.03 -6.85,-224.06 -9.52,-336.09 -0.32,-9.79 0.59,-19.7 -1.66,-29.34 -22.25,7.46 -44.81,13.99 -67.19,21.11zm307.07 99.52l0 0c-117.86,191.01 -235.33,382.26 -351.98,574.01 9.62,-3.04 19.48,-5.64 28.4,-10.43 10.38,-5.54 14.56,-17.26 20.77,-26.53 92.6,-150.41 185.17,-300.83 277.72,-451.27 13.18,-19.41 20.07,-42.08 27.07,-64.2 4.22,-14.93 9.47,-29.57 12.98,-44.67 -5.81,7.17 -10.16,15.28 -14.96,23.09zm-483.44 143.94l0 0c-60.44,186.88 -121.77,373.46 -182.2,560.34 9.81,-4.23 19.62,-8.53 29.34,-12.98 49.88,-154.35 100.65,-308.42 151.4,-462.5 12.71,-32.85 7.52,-68.64 8.33,-102.98 -2.57,5.93 -4.89,11.97 -6.87,18.12zm534.91 -445.69l0 0c-68.18,108.02 -133.37,217.95 -201.86,325.78 -3.12,-86.37 -5.09,-172.77 -8.06,-259.14 -126.84,40.32 -253.99,79.65 -380.78,120.11 -72.65,223.3 -145.97,446.36 -218.96,669.53 -35.63,108.64 -71.44,217.23 -106.2,326.17 98.46,-42.44 197.41,-83.7 295.92,-126.07 25.23,-75.12 48.77,-150.83 74.65,-225.73 0.86,24.84 0.84,49.73 2.74,74.52 0.03,39.16 2.35,78.27 2.8,117.42 72.47,-28.75 144.53,-58.61 217.23,-86.79 12.41,-3.48 17.45,-16.02 23.88,-25.83 18.17,-28.75 35.08,-58.34 53.91,-86.67 -1.23,7.52 -4.15,14.56 -6.7,21.68 -7.81,23.39 -15.42,46.85 -22.93,70.3 89.01,-32.55 177.33,-67.03 266.27,-99.79 -17.97,56.41 -42.93,112.97 -38.96,173.51 1.59,29.69 13.45,59.13 34.27,80.56 23.08,24.3 57.2,36.14 90.32,35.87 41.78,0.91 81.35,-14.09 121.22,-24.35 119.15,-32.75 238.8,-63.98 357.6,-97.89 12.78,-35.27 23.63,-71.29 35.54,-106.89 19.26,-59.94 38.86,-119.76 58.51,-179.58 -101.64,27.76 -203.41,55.07 -305.03,83.03 33.91,-105.21 68.05,-210.36 102.43,-315.42 103.38,-32.53 206.81,-64.96 310.11,-97.74 31.64,-97.05 63.43,-194.08 94.75,-291.25 -69.36,21.71 -138.82,43.19 -208.16,65.02 -103.97,32.8 -207.77,66.12 -311.94,98.33 -19.48,5.78 -37.82,14.63 -56.51,22.52 42.37,-129.21 85.51,-258.2 126.84,-387.73 -134.33,42.08 -268.33,85.21 -402.9,126.52z"/>
   <path class="fil2" d="M1034.34 263.48c134.57,-41.31 268.57,-84.44 402.9,-126.52 -41.33,129.53 -84.47,258.52 -126.84,387.73 18.69,-7.89 37.03,-16.74 56.51,-22.52 104.17,-32.21 207.97,-65.53 311.94,-98.33 69.34,-21.83 138.8,-43.31 208.16,-65.02 -31.32,97.17 -63.11,194.2 -94.75,291.25 -103.3,32.78 -206.73,65.21 -310.11,97.74 -34.38,105.06 -68.52,210.21 -102.43,315.42 101.62,-27.96 203.39,-55.27 305.03,-83.03 -19.65,59.82 -39.25,119.64 -58.51,179.58 -11.91,35.6 -22.76,71.62 -35.54,106.89 -118.8,33.91 -238.45,65.14 -357.6,97.89 -39.87,10.26 -79.44,25.26 -121.22,24.35 -33.12,0.27 -67.24,-11.57 -90.32,-35.87 -20.82,-21.43 -32.68,-50.87 -34.27,-80.56 -3.97,-60.54 20.99,-117.1 38.96,-173.51 -88.94,32.76 -177.26,67.24 -266.27,99.79 7.51,-23.45 15.12,-46.91 22.93,-70.3 2.55,-7.12 5.47,-14.16 6.7,-21.68 -18.83,28.33 -35.74,57.92 -53.91,86.67 -6.43,9.81 -11.47,22.35 -23.88,25.83 -72.7,28.18 -144.76,58.04 -217.23,86.79 -0.45,-39.15 -2.77,-78.26 -2.8,-117.42 -1.9,-24.79 -1.88,-49.68 -2.74,-74.52 -25.88,74.9 -49.42,150.61 -74.65,225.73 -98.51,42.37 -197.46,83.63 -295.92,126.07 34.76,-108.94 70.57,-217.53 106.2,-326.17 72.99,-223.17 146.31,-446.23 218.96,-669.53 126.79,-40.46 253.94,-79.79 380.78,-120.11 2.97,86.37 4.94,172.77 8.06,259.14 68.49,-107.83 133.68,-217.76 201.86,-325.78zm32.4 29.81l0 0c-9.09,2.42 -13.79,11.07 -18.14,18.59 -82.89,135.64 -167.06,270.45 -249.59,406.29 -2.97,-33.55 -1.81,-67.29 -4.35,-100.83 -0.87,-23.88 -0.15,-47.81 -2.2,-71.61 -1.22,-30.56 -0.25,-61.19 -2.57,-91.69 -0.5,-23.88 -0.77,-47.78 -1.17,-71.66 -4.32,0.91 -8.65,1.83 -12.88,3.11 -100.9,31.32 -201.58,63.34 -302.22,95.55 -3.97,14.06 -8.99,27.78 -13.29,41.75 -53.57,163.14 -106.77,326.42 -160.41,489.56 -40.09,121.77 -79.35,243.86 -119.57,365.6 67.71,-28.92 135.81,-57 203.25,-86.61 28.5,-86.52 56.9,-173.09 85.25,-259.68 16.76,-53.05 35.28,-105.53 51.42,-158.77 2.84,49.04 2.94,98.23 4.8,147.32 2.07,69.96 3.88,139.94 7.02,209.85 51.46,-20.54 102.93,-41.11 154.42,-61.55 6.08,-2.55 11.84,-6.41 15.13,-12.26 24.62,-40.3 49.46,-80.47 74.18,-120.71 49.93,-82.07 101.25,-163.27 150.74,-245.61 -1.73,8.58 -4.55,16.86 -7.47,25.11 -32.85,100.02 -65.68,200.06 -98.18,300.2 88.74,-32.61 176.82,-67.02 265.58,-99.6 -16.31,52.23 -34.06,104.02 -50.65,156.16 -9.61,31.91 -15.55,66.34 -7.07,99.17 6.63,24.67 25.14,46.52 49.77,54.48 29.98,10.26 62.66,4.8 92.47,-3.34 130.07,-35.07 259.78,-71.46 390,-105.99 21.23,-66.87 44.89,-133.02 64.79,-200.31 -101.48,26.97 -202.63,55.03 -303.85,82.86 23.26,-74.55 48.69,-148.44 72.92,-222.69 20.17,-59.8 38.93,-120.12 59.8,-179.66 102.56,-31.05 204.28,-64.97 306.79,-96.16 22.77,-67.39 44.49,-135.12 66.59,-202.73 -37.2,10.68 -73.88,23.09 -110.89,34.44 -113.44,35.99 -227.07,71.36 -340.48,107.35 -55.08,16.52 -103.9,50.68 -141.23,94.09 47.07,-146.07 95.2,-291.79 142.93,-437.64 -104.04,32.01 -207.47,66 -311.64,97.62z"/>
   <path class="fil3" d="M1091.51 334.92c71.34,-23.11 142.95,-45.29 214.44,-67.88 -64.17,194.89 -127.08,390.19 -191.7,584.96 -12.78,39.35 -25.73,78.66 -38.63,117.96 -9.2,3.63 -18.54,6.87 -27.86,10.11 62.29,-191.65 125.62,-382.98 187.92,-574.63 11.09,-33.84 22,-67.73 33.32,-101.5 -58.49,13.6 -117.49,26.4 -177.49,30.98zm196.4 820.95c89.04,-24.57 178.23,-48.62 267.39,-72.72 -10.71,31.39 -19.09,63.7 -31.69,94.38 -8.38,3.61 -17.53,4.84 -26.23,7.44 6.87,-21.9 14.56,-43.53 21.46,-65.41 -63.01,9 -125.5,21.29 -188.41,30.95 -14.14,2.05 -28.21,4.9 -42.52,5.36zm-788.48 -446.7c1.98,-6.15 4.3,-12.19 6.87,-18.12 -0.81,34.34 4.38,70.13 -8.33,102.98 -50.75,154.08 -101.52,308.15 -151.4,462.5 -9.72,4.45 -19.53,8.75 -29.34,12.98 60.43,-186.88 121.76,-373.46 182.2,-560.34zm871.19 11.2c4.97,-16.98 19.21,-29.81 35.69,-35.45 -31.61,101.75 -65.6,202.75 -98.13,304.22 -16.69,50.92 -33.45,101.8 -50.6,152.55 -8.98,2.12 -17.92,4.32 -26.87,6.5 47.76,-142.24 92.89,-285.34 139.91,-427.82zm-387.75 -155.14c4.8,-7.81 9.15,-15.92 14.96,-23.09 -3.51,15.1 -8.76,29.74 -12.98,44.67 -7,22.12 -13.89,44.79 -27.07,64.2 -92.55,150.44 -185.12,300.86 -277.72,451.27 -6.21,9.27 -10.39,20.99 -20.77,26.53 -8.92,4.79 -18.78,7.39 -28.4,10.43 116.65,-191.75 234.12,-383 351.98,-574.01zm422.33 13.99c116.73,-37.01 233.38,-74.48 350.5,-110.37 -9.15,29.12 -19.04,58.01 -28.16,87.13 -1.11,2.65 -1.65,6.21 -4.87,7.12 -7.98,3.44 -16.53,5.24 -24.89,7.42 6.92,-21.41 13.94,-42.77 20.91,-64.12 -10.06,0.79 -19.65,4.12 -29.34,6.67 -83.35,22.37 -167.55,41.33 -251.57,60.86 -10.75,2.37 -21.43,5.81 -32.58,5.29zm-729.4 -113.51c22.38,-7.12 44.94,-13.65 67.19,-21.11 2.25,9.64 1.34,19.55 1.66,29.34 2.67,112.03 6.03,224.06 9.52,336.09 0.12,10.25 2,21.06 -2.4,30.75 -5.19,11.62 -13.23,21.65 -20.07,32.28 -3.91,-132.15 -6.28,-264.37 -11.62,-396.5 -56.73,10.46 -112.67,24.87 -169.58,34.43 -11.52,2.3 -23.16,3.96 -34.9,4.31 53.76,-15.36 106.79,-33.18 160.2,-49.59z"/>
  </g>
 </g>
</svg>
