<?xml version="1.0" encoding="UTF-8"?>
<!DOCTYPE svg PUBLIC "-//W3C//DTD SVG 1.1//EN" "http://www.w3.org/Graphics/SVG/1.1/DTD/svg11.dtd">
<!-- Creator: CorelDRAW -->
<svg xmlns="http://www.w3.org/2000/svg" xml:space="preserve" width="2000px" height="1600px" version="1.1" style="shape-rendering:geometricPrecision; text-rendering:geometricPrecision; image-rendering:optimizeQuality; fill-rule:evenodd; clip-rule:evenodd"
viewBox="0 0 2000 1600"
 xmlns:xlink="http://www.w3.org/1999/xlink">
 <defs>
  <style type="text/css">
   <![CDATA[
    .fil3 {fill:#0066A3;fill-rule:nonzero}
    .fil1 {fill:#211E1F;fill-rule:nonzero}
    .fil2 {fill:#D1D4D7;fill-rule:nonzero}
    .fil0 {fill:#FEFEFE;fill-rule:nonzero}
   ]]>
  </style>
 </defs>
 <g id="Capa_x0020_1">
  <metadata id="CorelCorpID_0Corel-Layer"/>
  <g id="Middle_x0020_Tennessee_x0020_Blue_x0020_Raiders.cdr">
   <path class="fil0" d="M1578.6 587.03c27.41,-0.36 54.82,0.79 82.25,0.38 -2.25,7.9 -4.62,15.75 -6.76,23.69 -25.27,-7.71 -50.3,-16.21 -75.49,-24.07zm-1314.81 -260.8c97.08,0.11 194.16,-0.04 291.24,0.08 26.87,72.76 54.13,145.4 80.44,218.37 14.35,-16.06 29.25,-31.61 43.58,-47.68 8.61,-0.21 17.2,-0.1 25.8,-0.11 -29.59,33.49 -59.26,66.91 -89.04,100.24 -28.25,-79.43 -56.7,-158.78 -85.08,-238.18 -80.02,0.04 -160.06,-0.02 -240.08,0.04 -14.29,51.22 -28.98,102.33 -43.39,153.53 18.28,0.02 36.53,-0.01 54.79,0.02 -35.24,123.7 -70.54,247.38 -105.77,371.08 -18.5,0 -36.98,-0.02 -55.47,0 -14.93,51.65 -29.87,103.29 -44.77,154.95 95.83,0.04 191.68,0.04 287.52,0 14.7,-51.64 29.44,-103.28 44.06,-154.94 -19.16,-0.05 -38.33,-0.01 -57.5,-0.01 16.91,-58 33.79,-115.99 50.7,-173.96 13.26,-3.9 26.52,-7.83 39.79,-11.69 14.97,38.33 29.72,76.73 44.74,115.05 27.52,-0.04 55.07,-0.02 82.61,0 37.4,-38.77 74.9,-77.46 112.61,-115.95 10.63,6.32 21.29,12.63 31.92,18.96 -15.83,55.85 -31.77,111.68 -47.62,167.53 -18.39,0.15 -36.78,-0.04 -55.16,0.09 -14.89,51.64 -29.98,103.23 -44.65,154.92 96.15,0.08 192.31,-0.02 288.46,0.04 14.63,-51.96 29.23,-103.92 43.85,-155.89 -17.71,-0.13 -35.4,-0.02 -53.07,-0.07 33.31,-116.36 67,-232.61 100.33,-348.95 12.3,0 24.62,-0.11 36.93,-0.34 0.03,0.74 0.09,2.2 0.13,2.92 -3.85,15.79 -9.12,31.24 -13.59,46.86 53.13,0.34 106.29,0.61 159.43,1.14 12.77,6.37 24.36,14.92 35.96,23.18 20.07,-6.97 40.15,-13.93 60.21,-20.98 3.5,-1.31 7.24,-1.58 10.97,-1.9 -5.55,2.94 -11.71,5.73 -15.07,11.34 -4.24,6.14 -4.59,13.8 -5.97,20.89 -83.2,-0.04 -166.39,0 -249.59,-0.02 -21.9,75.83 -43.91,151.62 -65.73,227.47 48.82,0.4 97.63,1.04 146.47,0.95 6.88,-24.82 13.93,-49.58 20.91,-74.37 24.6,-0.02 49.21,-0.06 73.8,0.04 -35.45,123.65 -70.98,247.31 -106.43,370.99 -18.82,0.1 -37.65,0.02 -56.47,0.04 -15.04,51.47 -29.93,102.98 -44.85,154.48 101.36,0.04 202.74,0.04 304.11,0 14.71,-51.66 29.46,-103.28 44.06,-154.97 -18.58,0 -37.18,0.05 -55.76,-0.02 35.41,-123.21 71.02,-246.35 106.37,-369.56 24.27,-0.13 48.53,-0.05 72.82,-0.05 -6.81,24.17 -13.69,48.32 -20.55,72.47 48.93,0.04 97.87,0.04 146.84,-0.02 15.55,-55.18 31.36,-110.29 46.92,-165.46 4.3,1.71 8.63,3.39 13.01,5.02 -0.08,4.97 -0.35,9.94 -0.65,14.91 6.39,0.89 12.8,1.74 19.2,2.61 -17.08,58.67 -33.78,117.44 -50.8,176.13 -73.63,0.36 -147.24,-0.77 -220.87,-0.47 -21.65,77.08 -43.38,154.12 -65.12,231.17 18.14,0.98 36.32,0.47 54.5,0.56 -20.66,73.16 -41.48,146.28 -62.1,219.45 -39.3,0.35 -78.54,-0.79 -117.82,-0.47 -46.77,-0.21 -93.56,0.49 -140.31,-0.49 -39.56,0.02 -79.12,0.02 -118.67,0 20.61,-72.5 41.12,-145.03 61.74,-217.52 19.15,0.02 38.3,-0.05 57.44,0.04 21.54,-77.19 42.53,-154.56 63.97,-231.79 -44.55,0.04 -89.06,0.7 -133.61,0.57 -18.26,64.47 -36.95,128.83 -55.3,193.27 -120.02,0.11 -240.02,-0.88 -360.04,-0.46 20.23,-74.6 40.45,-149.19 60.68,-223.79 18.71,1.14 37.46,0 56.17,1.1 7.89,-28.46 16.06,-56.85 23.87,-85.33 -26.83,27.47 -52.91,55.68 -79.58,83.3 -41.01,0.13 -82.01,0.02 -123.02,0.06 -11.83,-30.14 -23.39,-60.38 -35.37,-90.45 -8.95,31.21 -17.54,62.52 -26.35,93.77 19.24,-0.17 38.46,-0.23 57.68,-1.07 -20.83,73.81 -41.36,147.72 -62.57,221.41 -93.14,0.09 -186.7,-0.02 -280,0.05 -27.49,-0.94 -55.02,-0.3 -82.53,-0.49 20.67,-72.97 41.18,-145.99 61.82,-218.96 18.22,0.04 36.46,-0.05 54.7,0.04 29.25,-102.82 58.29,-205.72 87.47,-308.57 -17.43,-0.02 -34.83,0.04 -52.25,-0.04 20.66,-72.01 41.27,-144.07 61.95,-216.11zm1113.23 272c17.39,6.22 34.92,12 52.16,18.62 -23.72,-0.19 -47.45,0.05 -71.15,-0.12 6.24,-6.25 12.93,-12.07 18.99,-18.5z"/>
   <path class="fil1" d="M1689.5 454c43.92,9.37 87.7,19.51 131.58,29.16 -7.01,5.76 -14.16,11.35 -21.23,17.01 34.41,8.01 68.7,16.58 103.15,24.47 -13.18,6.43 -26.6,12.32 -39.74,18.82 45.46,22.09 91.43,43.15 136.74,65.56l0 0.34c-73.23,-19.92 -146.67,-39.07 -219.96,-58.81 10.67,-5.74 21.31,-11.58 32,-17.36 -26.96,-11.47 -53.93,-22.88 -80.87,-34.33 8.53,-3.47 17.06,-6.9 25.67,-10.24 -22.36,-11.74 -45.16,-22.6 -67.34,-34.62zm38.88 13.12l0 0c13.61,7.51 28.04,13.46 42.14,19.98 -6.77,3.55 -13.55,7.07 -20.19,10.86 25.58,11.61 51.34,22.83 77.06,34.15 -8.39,4.62 -16.75,9.31 -25.13,13.97 48.45,15.05 97.08,29.63 145.74,43.96 -5.65,-3.83 -11.98,-6.41 -18.1,-9.36 -26.39,-13.24 -53.01,-26.05 -79.4,-39.32 9.08,-5.14 18.33,-9.97 27.42,-15.13 -30.77,-9.27 -61.79,-17.69 -92.63,-26.69 6.46,-3.81 12.99,-7.55 19.54,-11.22 -25.4,-7.36 -50.9,-14.43 -76.45,-21.2zm-243.15 -139.33c4.12,-3.25 8.14,-6.6 12.16,-9.98 22.97,6.88 46.02,13.46 69.11,19.93 1.33,3.81 2.66,7.64 3.93,11.49 26.52,9.91 52.34,21.93 75.96,37.61 4.19,2.75 9.1,-0.17 13.38,-1.23 5.35,4.83 10.16,10.25 14.09,16.32 -3.07,3.07 -7.36,5.74 -8.11,10.37 -1.39,5.13 2.59,9.42 5.47,13.15 -1.21,3.45 -2.42,6.87 -3.69,10.3 -11.11,-2.3 -22.16,-4.86 -33.25,-7.21 -0.31,-4.72 0.74,-11.47 -4.71,-13.66 -12.7,-3.09 -26.88,-4.73 -39.14,0.85 -4.31,1.67 -6.85,5.63 -8.95,9.5 14.69,6.14 29.59,11.73 44.44,17.53 -12.63,14.05 -34.32,14.69 -50.53,6.94 -1.04,-10.48 -8.05,-21.02 -19.09,-22.58 -23.31,-3.28 -43.66,11.94 -66.37,13.71 -19.81,2.5 -39.69,-3.77 -56.47,-14.05 -3.53,-2.03 -7.01,-5.31 -11.37,-3.81 -45.46,6.24 -90.11,17.14 -134.64,27.98 41.92,-19.85 85.9,-34.8 129.92,-49.21 1.23,-26.85 22.84,-47.09 44.49,-60.02 -11.96,12.61 -24.48,26.44 -27.96,44.06 -2.28,10.42 2.04,21.68 10.54,28.07 12.4,9.33 28.57,11.85 43.73,11.51 18.11,-0.21 35.83,-5.57 51.83,-13.86 9.1,0.72 17.92,3.74 26.98,4.97 5.04,-7.68 11.45,-16.25 21.46,-16.91 15.86,-0.25 31.67,-1.61 47.54,-2.35 -23.49,-16.06 -49.55,-28 -76.6,-36.63 -1.22,-3.92 -2.56,-7.79 -4.01,-11.64 -23.43,-6.88 -46.67,-14.39 -70.14,-21.15zm160.33 73.47l0 0c0.05,3.83 0.45,7.64 1.13,11.42 3.55,-0.25 7.07,-0.5 10.66,-0.78 -3.23,-4.3 -7.07,-8.08 -11.79,-10.64zm-1618.7 -167.41l916.44 0c35.18,3.17 66.88,25.65 82.96,56.87 9.53,0 19.09,0.02 28.62,-0.02 -4.04,-3.33 -8.09,-6.65 -12.13,-9.97 25.65,-6.8 51.89,-10.9 78.24,-13.87 -4.65,-4.27 -9.24,-8.59 -13.63,-13.08 33.44,-2.2 66.95,-3.42 100.45,-3.87 -2.22,-2.67 -4.45,-5.33 -6.69,-7.98 77.74,-4.19 156.34,2.69 231.77,22.25 11.22,2.64 21.46,8.55 33.01,9.99 14.65,2.75 29.25,-1.42 43.56,-4.17 19.17,-3.92 39.47,-3.58 58.09,2.77 -9.07,8.51 -18.34,16.8 -27.7,24.99 28.62,13.86 58.1,26.63 83.83,45.63 -4.1,0.76 -8.13,1.51 -12.19,2.25 13.1,7.28 25.55,15.61 38.31,23.45 4.53,0.29 9.06,-0.74 13.6,-1.21 13.8,10.9 27.2,24 32.62,41.19 -3.79,1.41 -8.55,1.44 -11.26,4.76 -1.93,4.7 2.58,8.14 5.04,11.51 -0.72,10.43 -5.51,19.89 -10.92,28.61 -10.56,-1.86 -21.08,-3.81 -31.64,-5.62 -6.12,12.42 -17.84,22.03 -31.58,24.54 -21.74,4.28 -43.77,-3.15 -62.92,-13.12 1,-5.27 2.16,-14.56 -5.52,-14.92 -12.7,1.63 -24.22,7.73 -36.6,10.65 -24.17,5.31 -49.9,2.86 -72.74,-6.58 -7.17,-2.95 -13.65,-9.32 -21.97,-8.05 -8.19,1.13 -16.38,2.37 -24.48,4.03 11.43,1.29 22.92,2.11 34.37,3.23 11.85,15.47 26.05,29.61 34.18,47.56 3.59,10.6 -4.79,19.57 -11.26,26.83 19.03,7.29 38.16,14.31 57.31,21.3 2.52,0.71 4.51,2.39 5.88,4.67 66.4,0.85 132.83,0.74 199.26,1.51 -8.08,28.42 -16.38,56.78 -24.48,85.18 -0.98,2.77 -0.34,5.67 0,8.49 5.08,-1.46 9.97,-3.47 14.73,-5.78 39.28,20.61 78.92,40.51 118.09,61.31 -18.85,4.61 -37.23,11.22 -56.46,14.18 -26.27,5.4 -51.28,19.45 -78.8,16.81 -8.31,-0.45 -15.7,-4.49 -22.22,-9.32 -18.73,64.83 -37.33,129.68 -56.04,194.52 -48.11,0 -96.23,0.02 -144.34,0 -25.44,-0.91 -50.9,-0.3 -76.34,-0.46 -14.65,51.93 -29.29,103.89 -43.91,155.83 18.16,0.65 36.33,0.57 54.49,0.57 -27.68,98.3 -55.66,196.49 -83.41,294.77 -50.13,0.36 -100.23,-0.78 -150.36,-0.47 -42.38,-0.21 -84.79,0.49 -127.16,-0.5 -53.65,0.06 -107.28,-0.02 -160.93,0.04 -5.76,0 -11.53,-0.3 -17.29,-0.59 24.21,-84.93 48.27,-169.91 72.34,-254.88 -49.38,-0.02 -98.77,0 -148.15,0 -96.49,-0.97 -192.99,-0.24 -289.48,-0.47 20.27,-74.88 40.61,-149.75 60.89,-224.63 -15.87,-0.02 -31.73,-0.04 -47.6,0 -21.14,74.71 -42.14,149.46 -63.24,224.17 -103.57,-0.91 -207.17,-0.34 -310.75,-0.47 -43.57,-1.03 -87.17,-0.21 -130.75,-0.55l0 -0.51c27.85,-98.03 55.37,-196.15 83.09,-294.22 18.29,-0.04 36.59,0.08 54.88,-0.06 21.86,-77.57 43.89,-155.09 65.86,-232.64 -17.55,-0.02 -35.13,0.02 -52.7,0 23.18,-80.74 46.41,-161.46 69.65,-242.18 -19.23,-7.47 -38.43,-15 -57.73,-22.26 0.42,-1.19 1.25,-3.58 1.67,-4.78 -6.2,0.31 -12.8,1.6 -18.62,-1.25 -30.88,-13 -62.52,-24.68 -91.73,-41.31 -12.49,-7.82 -28.15,-17.91 -27.51,-34.67zm12.48 10.5l0 0c6.4,8.1 15.41,13.56 24.09,18.9 26.28,15.06 54.58,26.11 82.67,37.27 11.34,5.67 24.31,2.2 36.44,3.19 -1.71,2.54 -3.41,5.06 -5.1,7.58 15.22,6.24 30.63,11.94 45.93,17.95 1.37,-4.43 2.66,-8.9 3.97,-13.36 -9.79,-3.87 -19.61,-7.58 -29.33,-11.56 2.79,-3.45 5.57,-6.9 8.38,-10.32 -7.55,0.04 -15.09,0.1 -22.62,-0.34 -6.39,-0.47 -13.1,0.7 -19.13,-2.06 -29.46,-11.61 -59.2,-22.54 -88.39,-34.81 282.27,-0.46 564.58,-0.06 846.86,-0.19 33.46,1.48 66.18,20.76 82.6,50.12 10.54,18.7 11.77,41.41 6.12,61.82 75.22,-30.97 154.46,-52.72 235.35,-62.21 68.84,-7.95 139.04,-8.57 207.4,3.92 4.04,-2.43 8.04,-4.97 11.92,-7.68 -55.6,-12.55 -112.53,-20.51 -169.57,-20.98 3.92,4.38 7.9,8.72 11.68,13.25 -35.45,-5.05 -71.22,-8.36 -107.04,-8.4 4.65,4.45 9.31,8.87 14.07,13.21 -26.94,0.48 -53.88,1.46 -80.62,4.95 5.42,3.64 10.89,7.19 16.28,10.88 -44.44,2.92 -88.76,8.51 -132.17,18.58 2.48,-1.55 5.14,-2.81 7.92,-3.68 26.9,-8.97 53.94,-17.65 81.58,-24.09 -6.03,-4.89 -12.35,-9.42 -18.28,-14.45 25.71,-4.07 51.64,-7.35 77.73,-7.18 -3.42,-4.65 -10.09,-7.97 -11.26,-13.56 11.14,-0.57 22.35,0.27 33.51,-0.57 22.71,-0.58 45.41,0.8 68.1,1.35 -2.79,-3.15 -5.39,-6.43 -7.78,-9.86 65.09,0.63 130.3,7.4 193.67,22.58 11.62,2.18 22.7,6.48 34.01,9.8 15.3,0.65 29.31,-8.15 44.65,-7.75 -6.43,5.86 -13.79,10.58 -20.63,15.9 16.66,7.07 33.39,14.03 50.03,21.18 4.81,2.1 9.91,3.79 14.27,6.86 -24.45,-7.58 -48.41,-16.83 -73.51,-22.16 -6.54,5 -12.74,10.43 -19.21,15.51 -2.44,2.14 -5.87,0.72 -8.7,0.66 -54.5,-7.62 -109.89,-8.99 -164.66,-3.56 -87.79,8.03 -174.46,31.41 -253.44,70.73 33.53,27.35 67.75,53.95 100.89,81.78 -33.91,-19.41 -69.01,-36.72 -104.53,-53.01 -32.82,-14.78 -65.4,-30.1 -98.45,-44.4 4.21,-13.06 8.31,-26.35 8.88,-40.15 0.91,-15.64 -3.3,-32.68 -15.49,-43.31 -14.73,-13.67 -35.85,-16.29 -55.11,-16.8 -101.37,0.02 -202.71,-0.06 -304.08,0.04 18.98,16.85 40.91,30.04 63.38,41.7 37.46,18.83 77.4,32.33 117.97,42.64 53.27,13.33 107.81,21.31 162.56,24.89 4.7,0.36 9.55,-0.11 14.12,1.27 -27.47,6.26 -55.58,9.29 -83.68,10.9 9.58,3.09 18.83,7.03 28.23,10.58 73.92,29.1 148.53,56.38 222.86,84.4 1.22,-2.41 2.45,-4.84 3.68,-7.24 15.94,10.01 32.04,19.79 47.58,30.38 -19.29,-2.39 -38.48,-5.48 -57.72,-8.32 0.72,-1.72 2.18,-5.19 2.9,-6.92 -6.18,-1.5 -12.13,-4.34 -18.54,-4.55 -35.72,0.36 -71.43,-0.07 -107.13,0.23 -40.85,-0.21 -81.65,0.76 -122.48,0.53 -49.39,-0.04 -98.75,-0.09 -148.12,0.48 -8.6,0.01 -17.19,-0.1 -25.8,0.11 -14.33,16.07 -29.23,31.62 -43.58,47.68 -26.31,-72.97 -53.57,-145.61 -80.44,-218.37 -97.08,-0.12 -194.16,0.03 -291.24,-0.08 -20.68,72.04 -41.29,144.1 -61.95,216.11 17.42,0.08 34.82,0.02 52.25,0.04 -29.18,102.85 -58.22,205.75 -87.47,308.57 -18.24,-0.09 -36.48,0 -54.7,-0.04 -20.64,72.97 -41.15,145.99 -61.82,218.96 27.51,0.19 55.04,-0.45 82.53,0.49 93.3,-0.07 186.86,0.04 280,-0.05 21.21,-73.69 41.74,-147.6 62.57,-221.41 -19.22,0.84 -38.44,0.9 -57.68,1.07 8.81,-31.25 17.4,-62.56 26.35,-93.77 11.98,30.07 23.54,60.31 35.37,90.45 41.01,-0.04 82.01,0.07 123.02,-0.06 26.67,-27.62 52.75,-55.83 79.58,-83.3 -7.81,28.48 -15.98,56.87 -23.87,85.33 -18.71,-1.1 -37.46,0.04 -56.17,-1.1 -20.23,74.6 -40.45,149.19 -60.68,223.79 120.02,-0.42 240.02,0.57 360.04,0.46 18.35,-64.44 37.04,-128.8 55.3,-193.27 44.55,0.13 89.06,-0.53 133.61,-0.57 -21.44,77.23 -42.43,154.6 -63.97,231.79 -19.14,-0.09 -38.29,-0.02 -57.44,-0.04 -20.62,72.49 -41.13,145.02 -61.74,217.52 39.55,0.02 79.11,0.02 118.67,0 46.75,0.98 93.54,0.28 140.31,0.49 39.28,-0.32 78.52,0.82 117.82,0.47 20.62,-73.17 41.44,-146.29 62.1,-219.45 -18.18,-0.09 -36.36,0.42 -54.5,-0.56 21.74,-77.05 43.47,-154.09 65.12,-231.17 73.63,-0.3 147.24,0.83 220.87,0.47 17.02,-58.69 33.72,-117.46 50.8,-176.13 -6.4,-0.87 -12.81,-1.72 -19.2,-2.61 0.3,-4.97 0.57,-9.94 0.65,-14.91 -4.38,-1.63 -8.71,-3.31 -13.01,-5.02 -55.49,-21.46 -111.01,-42.96 -167.37,-61.93 -17.24,-6.62 -34.77,-12.4 -52.16,-18.62 -6.06,6.43 -12.75,12.25 -18.99,18.5 -36.55,34.62 -73.31,69.58 -115.49,97.35 -7.87,5.33 -17.8,5.93 -26.86,4.02 5.44,-33.86 12.23,-67.49 17.95,-101.29 1.38,-7.09 1.73,-14.75 5.97,-20.89 3.36,-5.61 9.52,-8.4 15.07,-11.34 -3.73,0.32 -7.47,0.59 -10.97,1.9 -20.06,7.05 -40.14,14.01 -60.21,20.98 -11.6,-8.26 -23.19,-16.81 -35.96,-23.18 -53.14,-0.53 -106.3,-0.8 -159.43,-1.14 4.47,-15.62 9.74,-31.07 13.59,-46.86l0 0.36c0.45,-0.76 1.34,-2.3 1.8,-3.05 34.12,0.85 67.79,8.79 99.58,20.98 28.91,11.4 57.27,25.29 81.76,44.63 46.7,-16.93 92.38,-36.74 139.93,-51.3 -6.22,12.44 -13.23,24.53 -21.06,36.06 -5.42,-1.03 -10.87,-1.9 -16.27,-2.85 -1.74,4.55 -3.45,9.1 -5.15,13.65 -9.65,-2.44 -21.64,-4.87 -29.8,2.41 -6.89,7.92 -8.27,18.84 -9.29,28.89 -5.01,27.22 -10.45,54.39 -15.32,81.63 5.91,0.46 11.49,-1.5 15.81,-5.55 73.69,-54.18 138.25,-119.51 198.56,-187.98 3.79,-4.84 11.54,-9.94 8.4,-16.99 -8,-14.33 -16.48,-28.48 -26.58,-41.44 -34.3,-2.35 -68.68,-1.99 -103.04,-1.84 18.83,-5.61 38,-10.1 57.05,-14.96 12.55,-2.88 25.12,-6.2 38.01,-7.22 5.57,-0.53 10.9,1.71 15.56,4.55 11.83,7.17 25.63,9.89 39.09,12.19 14.83,2.69 30.2,0.87 44.51,-3.53 11.02,-3.22 21.6,-9.46 33.29,-9.36 10.2,0.13 18.07,10.12 15.05,20.07 15.74,7.13 33.84,11.53 50.89,6.83 11.82,-3.38 20.19,-13.44 25.04,-24.3 10.84,2.78 21.78,5.19 32.76,7.46 4.81,-5.74 7.18,-12.93 8.43,-20.22 -2.75,-3.34 -6.69,-6.75 -6.59,-11.42 1.25,-5.08 6.54,-7.24 10.63,-9.61 -4.99,-10.52 -12.8,-19.85 -22.73,-25.97 -4.09,-1.14 -8.47,1.14 -12.61,1.58 -21.87,-15.8 -47.48,-25.12 -70.57,-38.73 6.59,-1.29 13.23,-2.49 19.86,-3.76 -24.87,-14.97 -51.79,-26.27 -78.25,-38.08 8.79,-7.38 17.91,-14.37 26.54,-21.94 -11.32,-1.12 -22.75,-0.47 -33.99,0.93 -11.62,1.42 -22.68,5.92 -34.39,6.48 -15.28,0.14 -29.04,-7.26 -43.68,-10.44 -68.06,-16.59 -138.37,-22.88 -208.32,-21.54 2.78,3.59 5.76,7.06 8.85,10.41 -33.91,-2.29 -68.02,-0.8 -101.93,1.06 4.02,4.12 7.94,8.34 11.85,12.59 -26.55,1.55 -53.18,3.96 -79.15,9.82 5.19,4.36 10.52,8.59 15.77,12.89 -19.15,5.04 -38.54,9.21 -57.27,15.7 -8.02,-28.87 -29.74,-53.9 -57.86,-64.65 -15.58,-6.27 -32.66,-6.63 -49.23,-6.56 -70.79,0.02 -141.59,0 -212.38,0.02 -65.06,-0.24 -130.14,0.55 -195.2,-0.53 -113.82,-0.02 -227.64,0.02 -341.46,-0.02 -43.07,1.24 -86.16,0.06 -129.25,0.72zm153.1 30.64l0 0c9.47,3.49 19.54,4.79 29.46,6.37 77.38,11.47 155.52,-0.21 233.25,2.01 22.33,1.36 44.7,0.78 67.05,0.68 -2.73,-3.13 -5.63,-6.12 -8.59,-9.04 -107.05,0.04 -214.12,0.07 -321.17,-0.02zm406.92 61.74l0 0c0.81,2.34 1.61,4.67 2.44,7.02 3.62,0.02 7.28,0.03 10.92,0.02 -4.38,-2.51 -8.85,-4.82 -13.36,-7.04zm9.38 25.56l0 0c2.09,5.38 4.13,10.8 6.16,16.23 32.82,-0.14 65.63,-0.08 98.45,-0.04 -11.38,-3.62 -23.11,-6.11 -34.3,-10.32 -7.62,-2.31 -14.99,-6.25 -23.14,-5.97 -15.72,0.12 -31.44,-0.02 -47.17,0.1zm12.7 34.1l0 0c2.03,5.39 4,10.79 6.03,16.17 67.22,-0.15 134.46,0.36 201.67,-0.26 -13.16,-5.97 -26.75,-11.23 -40.48,-15.7 -55.71,-0.55 -111.48,-0.11 -167.22,-0.21zm13.14 34.98l0 0c1.65,4.74 3.35,9.46 5.06,14.2 49.57,14.82 101.84,9.63 152.82,10.61 49.83,-1.08 99.71,-0.17 149.57,-0.66 -20.02,-8.44 -40.49,-15.98 -60.87,-23.45 -28.27,-0.53 -56.59,-0.06 -84.88,-0.21 -53.91,0.29 -107.79,-0.99 -161.7,-0.49zm801.48 104.34l0 0c16.41,6.6 32.95,12.93 49.44,19.34 2.63,7.65 5,15.39 7.22,23.18 52.57,16.78 105.73,31.7 158.2,48.82 4.83,1.74 10.37,2.54 14.24,6.21 5.76,6.71 0.95,17.86 8.45,23.61 8.76,5.34 19.24,1.49 28.38,-0.74 25.31,12.85 50.71,25.59 76.25,38.01 -3.74,1.46 -7.47,2.93 -11.38,3.77 -17.36,3.28 -33.89,9.89 -51.2,13.42 -12.04,2.45 -25.33,4.53 -36.91,-0.76 -8.28,-3.81 -12.23,-12.85 -13.25,-21.44 -12.55,-1.67 -25.1,-3.28 -37.67,-4.8 0.17,-4.56 0.28,-9.13 0.32,-13.7 -79.24,-28.51 -158.46,-57.06 -237.57,-85.99 -2.37,2.31 -4.72,4.64 -7.05,6.97 77.97,29.09 155.98,58.11 234.2,86.51 0.13,4.45 0.19,8.91 0.24,13.38 13.48,1.59 26.94,3.34 40.42,5.01 1.93,5.36 3.68,11.05 7.66,15.33 6.67,7.53 16.98,11 26.9,10.16 18.01,-1.53 35.56,-6.1 53,-10.67 17.33,-4.64 34.75,-9.08 51.8,-14.77 -32.31,-16.57 -64.74,-32.95 -97.2,-49.21 -5.93,2.08 -12.32,5.38 -18.69,3.28 -9.84,-5.37 -1.73,-20.95 -12.06,-25.71 -56.66,-18.23 -113.59,-35.62 -170.37,-53.5 -1.89,-7.41 -3.58,-14.86 -5.42,-22.27 -17.8,-5.93 -35.45,-12.38 -53.08,-18.79 -1.67,1.77 -3.28,3.55 -4.87,5.35zm-20.7 22.03l0 0c14.92,6.39 30.55,10.84 45.66,16.66 3,3.89 3.42,9.27 5.2,13.82 10.6,2.9 21.44,4.85 32.15,7.32 21.65,4.32 43.01,10.29 64.87,13.52 -28.05,-9.01 -56.26,-17.52 -84.26,-26.68 -1.92,-6.08 -3.95,-12.13 -6.05,-18.16 -15.81,-5.69 -31.49,-11.73 -47.3,-17.46 -3.35,3.72 -6.86,7.32 -10.27,10.98zm163.24 29.29l0 0c25.19,7.86 50.22,16.36 75.49,24.07 2.14,-7.94 4.51,-15.79 6.76,-23.69 -27.43,0.41 -54.84,-0.74 -82.25,-0.38zm-637.88 484.72l0 0c18.83,0.04 37.67,0.02 56.51,0.02 14.2,-51.83 28.57,-103.61 42.73,-155.43 -18.23,-0.04 -36.47,0 -54.71,-0.02 -14.84,51.81 -29.7,103.62 -44.53,155.43zm574.71 -703.51c11.13,-3.36 22.28,-6.71 33.5,-9.8 -0.21,1.72 -0.65,5.19 -0.85,6.94 5.08,3.52 10.18,7.03 15.16,10.73 -15.98,-2.32 -31.96,-4.76 -47.81,-7.87zm77.29 56.19c1.76,-2.22 4.29,-3.49 7.19,-3.18 8.24,-0.19 16.43,1.02 24.58,2.1 0.71,3.62 1.35,7.26 2.01,10.92 -11.22,-3.41 -22.46,-6.75 -33.78,-9.84zm-416.28 -1.23c41.49,7.28 80.36,26.22 114.92,49.91 43.07,-4.07 86.37,-7.96 129.7,-7.41 5.86,9.38 12.08,18.56 18.09,27.87 2.73,3.75 2.69,9.32 -0.82,12.6 -60.58,68.02 -124.26,134.26 -198.2,188 4.76,-26.42 9.8,-52.79 14.62,-79.2 0.85,-5.08 2.9,-10.94 8.36,-12.61 8.8,-2.73 17.93,0.38 26.58,2.28 1.95,-4.8 3.73,-9.67 5.46,-14.56 4.89,0.89 9.8,1.78 14.71,2.6 13.06,-20.23 27.69,-39.96 35.77,-62.89 -53.33,14.68 -105.4,33.58 -156.87,53.79 -20.7,-18.16 -43.15,-34.45 -67.77,-46.88 -23.25,-12 -48.02,-20.73 -73.25,-27.42 51.01,5.94 99.24,26.05 144.43,49.67 63.43,-25.69 126.66,-55.13 195.09,-64.44 -1.52,10.41 -3.54,20.75 -4.83,31.19 10.75,-9.42 21.63,-18.75 31.98,-28.61 -2.39,-4.43 -4.76,-8.85 -7.17,-13.25 -47.22,1.27 -94.4,5.9 -140.95,14.05 -17,-27.58 -42.46,-49.01 -70.63,-64.53 -6.14,-3.91 -13.14,-6.2 -19.22,-10.16z"/>
   <path class="fil2" d="M39.34 244.35c43.09,-0.66 86.18,0.52 129.25,-0.72 113.82,0.04 227.64,0 341.46,0.02 65.06,1.08 130.14,0.29 195.2,0.53 70.79,-0.02 141.59,0 212.38,-0.02 16.57,-0.07 33.65,0.29 49.23,6.56 28.12,10.75 49.84,35.78 57.86,64.65 18.73,-6.49 38.12,-10.66 57.27,-15.7 -5.25,-4.3 -10.58,-8.53 -15.77,-12.89 25.97,-5.86 52.6,-8.27 79.15,-9.82 -3.91,-4.25 -7.83,-8.47 -11.85,-12.59 33.91,-1.86 68.02,-3.35 101.93,-1.06 -3.09,-3.35 -6.07,-6.82 -8.85,-10.41 69.95,-1.34 140.26,4.95 208.32,21.54 14.64,3.18 28.4,10.58 43.68,10.44 11.71,-0.56 22.77,-5.06 34.39,-6.48 11.24,-1.4 22.67,-2.05 33.99,-0.93 -8.63,7.57 -17.75,14.56 -26.54,21.94 26.46,11.81 53.38,23.11 78.25,38.08 -6.63,1.27 -13.27,2.47 -19.86,3.76 23.09,13.61 48.7,22.93 70.57,38.73 4.14,-0.44 8.52,-2.72 12.61,-1.58 9.93,6.12 17.74,15.45 22.73,25.97 -4.09,2.37 -9.38,4.53 -10.63,9.61 -0.1,4.67 3.84,8.08 6.59,11.42 -1.25,7.29 -3.62,14.48 -8.43,20.22 -10.98,-2.27 -21.92,-4.68 -32.76,-7.46 -4.85,10.86 -13.22,20.92 -25.04,24.3 -17.05,4.7 -35.15,0.3 -50.89,-6.83 3.02,-9.95 -4.85,-19.94 -15.05,-20.07 -11.69,-0.1 -22.27,6.14 -33.29,9.36 -14.31,4.4 -29.68,6.22 -44.51,3.53 -13.46,-2.3 -27.26,-5.02 -39.09,-12.19 -4.66,-2.84 -9.99,-5.08 -15.56,-4.55 -12.89,1.02 -25.46,4.34 -38.01,7.22 -19.05,4.86 -38.22,9.35 -57.05,14.96 34.36,-0.15 68.74,-0.51 103.04,1.84 10.1,12.96 18.58,27.11 26.58,41.44 3.14,7.05 -4.61,12.15 -8.4,16.99 -60.31,68.47 -124.87,133.8 -198.56,187.98 -4.32,4.05 -9.9,6.01 -15.81,5.55 4.87,-27.24 10.31,-54.41 15.32,-81.63 1.02,-10.05 2.4,-20.97 9.29,-28.89 8.16,-7.28 20.15,-4.85 29.8,-2.41 1.7,-4.55 3.41,-9.1 5.15,-13.65 5.4,0.95 10.85,1.82 16.27,2.85 7.83,-11.53 14.84,-23.62 21.06,-36.06 -47.55,14.56 -93.23,34.37 -139.93,51.3 -24.49,-19.34 -52.85,-33.23 -81.76,-44.63 -31.79,-12.19 -65.46,-20.13 -99.58,-20.98 -0.46,0.75 -1.35,2.29 -1.8,3.05l0 -0.36c-0.04,-0.72 -0.1,-2.18 -0.13,-2.92 -12.31,0.23 -24.63,0.34 -36.93,0.34 3.5,-12.64 7.18,-25.23 10.82,-37.82 35.7,-0.3 71.41,0.13 107.13,-0.23 6.41,0.21 12.36,3.05 18.54,4.55 -0.72,1.73 -2.18,5.2 -2.9,6.92 19.24,2.84 38.43,5.93 57.72,8.32 -15.54,-10.59 -31.64,-20.37 -47.58,-30.38 -1.23,2.4 -2.46,4.83 -3.68,7.24 -74.33,-28.02 -148.94,-55.3 -222.86,-84.4 -9.4,-3.55 -18.65,-7.49 -28.23,-10.58 28.1,-1.61 56.21,-4.64 83.68,-10.9 -4.57,-1.38 -9.42,-0.91 -14.12,-1.27 -54.75,-3.58 -109.29,-11.56 -162.56,-24.89 -40.57,-10.31 -80.51,-23.81 -117.97,-42.64 -22.47,-11.66 -44.4,-24.85 -63.38,-41.7 101.37,-0.1 202.71,-0.02 304.08,-0.04 19.26,0.51 40.38,3.13 55.11,16.8 12.19,10.63 16.4,27.67 15.49,43.31 -0.57,13.8 -4.67,27.09 -8.88,40.15 33.05,14.3 65.63,29.62 98.45,44.4 35.52,16.29 70.62,33.6 104.53,53.01 -33.14,-27.83 -67.36,-54.43 -100.89,-81.78 78.98,-39.32 165.65,-62.7 253.44,-70.73 54.77,-5.43 110.16,-4.06 164.66,3.56 2.83,0.06 6.26,1.48 8.7,-0.66 6.47,-5.08 12.67,-10.51 19.21,-15.51 25.1,5.33 49.06,14.58 73.51,22.16 -4.36,-3.07 -9.46,-4.76 -14.27,-6.86 -16.64,-7.15 -33.37,-14.11 -50.03,-21.18 6.84,-5.32 14.2,-10.04 20.63,-15.9 -15.34,-0.4 -29.35,8.4 -44.65,7.75 -11.31,-3.32 -22.39,-7.62 -34.01,-9.8 -63.37,-15.18 -128.58,-21.95 -193.67,-22.58 2.39,3.43 4.99,6.71 7.78,9.86 -22.69,-0.55 -45.39,-1.93 -68.1,-1.35 -11.16,0.84 -22.37,0 -33.51,0.57 1.17,5.59 7.84,8.91 11.26,13.56 -26.09,-0.17 -52.02,3.11 -77.73,7.18 5.93,5.03 12.25,9.56 18.28,14.45 -27.64,6.44 -54.68,15.12 -81.58,24.09 -2.78,0.87 -5.44,2.13 -7.92,3.68 43.41,-10.07 87.73,-15.66 132.17,-18.58 -5.39,-3.69 -10.86,-7.24 -16.28,-10.88 26.74,-3.49 53.68,-4.47 80.62,-4.95 -4.76,-4.34 -9.42,-8.76 -14.07,-13.21 35.82,0.04 71.59,3.35 107.04,8.4 -3.78,-4.53 -7.76,-8.87 -11.68,-13.25 57.04,0.47 113.97,8.43 169.57,20.98 -3.88,2.71 -7.88,5.25 -11.92,7.68 -68.36,-12.49 -138.56,-11.87 -207.4,-3.92 -80.89,9.49 -160.13,31.24 -235.35,62.21 5.65,-20.41 4.42,-43.12 -6.12,-61.82 -16.42,-29.36 -49.14,-48.64 -82.6,-50.12 -282.28,0.13 -564.59,-0.27 -846.86,0.19 29.19,12.27 58.93,23.2 88.39,34.81 6.03,2.76 12.74,1.59 19.13,2.06 7.53,0.44 15.07,0.38 22.62,0.34 -2.81,3.42 -5.59,6.87 -8.38,10.32 9.72,3.98 19.54,7.69 29.33,11.56 -1.31,4.46 -2.6,8.93 -3.97,13.36 -15.3,-6.01 -30.71,-11.71 -45.93,-17.95 1.69,-2.52 3.39,-5.04 5.1,-7.58 -12.13,-0.99 -25.1,2.48 -36.44,-3.19 -28.09,-11.16 -56.39,-22.21 -82.67,-37.27 -8.68,-5.34 -17.69,-10.8 -24.09,-18.9zm1376.02 313.39c3.41,-3.66 6.92,-7.26 10.27,-10.98 15.81,5.73 31.49,11.77 47.3,17.46 2.1,6.03 4.13,12.08 6.05,18.16 28,9.16 56.21,17.67 84.26,26.68 -21.86,-3.23 -43.22,-9.2 -64.87,-13.52 -10.71,-2.47 -21.55,-4.42 -32.15,-7.32 -1.78,-4.55 -2.2,-9.93 -5.2,-13.82 -15.11,-5.82 -30.74,-10.27 -45.66,-16.66zm20.7 -22.03c1.59,-1.8 3.2,-3.58 4.87,-5.35 17.63,6.41 35.28,12.86 53.08,18.79 1.84,7.41 3.53,14.86 5.42,22.27 56.78,17.88 113.71,35.27 170.37,53.5 10.33,4.76 2.22,20.34 12.06,25.71 6.37,2.1 12.76,-1.2 18.69,-3.28 32.46,16.26 64.89,32.64 97.2,49.21 -17.05,5.69 -34.47,10.13 -51.8,14.77 -17.44,4.57 -34.99,9.14 -53,10.67 -9.92,0.84 -20.23,-2.63 -26.9,-10.16 -3.98,-4.28 -5.73,-9.97 -7.66,-15.33 -13.48,-1.67 -26.94,-3.42 -40.42,-5.01 -0.05,-4.47 -0.11,-8.93 -0.24,-13.38 -78.22,-28.4 -156.23,-57.42 -234.2,-86.51 2.33,-2.33 4.68,-4.66 7.05,-6.97 79.11,28.93 158.33,57.48 237.57,85.99 -0.04,4.57 -0.15,9.14 -0.32,13.7 12.57,1.52 25.12,3.13 37.67,4.8 1.02,8.59 4.97,17.63 13.25,21.44 11.58,5.29 24.87,3.21 36.91,0.76 17.31,-3.53 33.84,-10.14 51.2,-13.42 3.91,-0.84 7.64,-2.31 11.38,-3.77 -25.54,-12.42 -50.94,-25.16 -76.25,-38.01 -9.14,2.23 -19.62,6.08 -28.38,0.74 -7.5,-5.75 -2.69,-16.9 -8.45,-23.61 -3.87,-3.67 -9.41,-4.47 -14.24,-6.21 -52.47,-17.12 -105.63,-32.04 -158.2,-48.82 -2.22,-7.79 -4.59,-15.53 -7.22,-23.18 -16.49,-6.41 -33.03,-12.74 -49.44,-19.34zm292.32 -68.59c25.55,6.77 51.05,13.84 76.45,21.2 -6.55,3.67 -13.08,7.41 -19.54,11.22 30.84,9 61.86,17.42 92.63,26.69 -9.09,5.16 -18.34,9.99 -27.42,15.13 26.39,13.27 53.01,26.08 79.4,39.32 6.12,2.95 12.45,5.53 18.1,9.36 -48.66,-14.33 -97.29,-28.91 -145.74,-43.96 8.38,-4.66 16.74,-9.35 25.13,-13.97 -25.72,-11.32 -51.48,-22.54 -77.06,-34.15 6.64,-3.79 13.42,-7.31 20.19,-10.86 -14.1,-6.52 -28.53,-12.47 -42.14,-19.98zm-1093.8 -35.75c53.91,-0.5 107.79,0.78 161.7,0.49 28.29,0.15 56.61,-0.32 84.88,0.21 20.38,7.47 40.85,15.01 60.87,23.45 -49.86,0.49 -99.74,-0.42 -149.57,0.66 -50.98,-0.98 -103.25,4.21 -152.82,-10.61 -1.71,-4.74 -3.41,-9.46 -5.06,-14.2zm1010.98 -30.11c4.72,2.56 8.56,6.34 11.79,10.64 -3.59,0.28 -7.11,0.53 -10.66,0.78 -0.68,-3.78 -1.08,-7.59 -1.13,-11.42zm-1024.12 -4.87c55.74,0.1 111.51,-0.34 167.22,0.21 13.73,4.47 27.32,9.73 40.48,15.7 -67.21,0.62 -134.45,0.11 -201.67,0.26 -2.03,-5.38 -4,-10.78 -6.03,-16.17zm-12.7 -34.1c15.73,-0.12 31.45,0.02 47.17,-0.1 8.15,-0.28 15.52,3.66 23.14,5.97 11.19,4.21 22.92,6.7 34.3,10.32 -32.82,-0.04 -65.63,-0.1 -98.45,0.04 -2.03,-5.43 -4.07,-10.85 -6.16,-16.23zm-9.38 -25.56c4.51,2.22 8.98,4.53 13.36,7.04 -3.64,0.01 -7.3,0 -10.92,-0.02 -0.83,-2.35 -1.63,-4.68 -2.44,-7.02zm-406.92 -61.74c107.05,0.09 214.12,0.06 321.17,0.02 2.96,2.92 5.86,5.91 8.59,9.04 -22.35,0.1 -44.72,0.68 -67.05,-0.68 -77.73,-2.22 -155.87,9.46 -233.25,-2.01 -9.92,-1.58 -19.99,-2.88 -29.46,-6.37zm1292.79 52.8l0 0c23.47,6.76 46.71,14.27 70.14,21.15 1.45,3.85 2.79,7.72 4.01,11.64 27.05,8.63 53.11,20.57 76.6,36.63 -15.87,0.74 -31.68,2.1 -47.54,2.35 -10.01,0.66 -16.42,9.23 -21.46,16.91 -9.06,-1.23 -17.88,-4.25 -26.98,-4.97 -16,8.29 -33.72,13.65 -51.83,13.86 -15.16,0.34 -31.33,-2.18 -43.73,-11.51 -8.5,-6.39 -12.82,-17.65 -10.54,-28.07 3.48,-17.62 16,-31.45 27.96,-44.06 -21.65,12.93 -43.26,33.17 -44.49,60.02 -44.02,14.41 -88,29.36 -129.92,49.21 44.53,-10.84 89.18,-21.74 134.64,-27.98 4.36,-1.5 7.84,1.78 11.37,3.81 16.78,10.28 36.66,16.55 56.47,14.05 22.71,-1.77 43.06,-16.99 66.37,-13.71 11.04,1.56 18.05,12.1 19.09,22.58 16.21,7.75 37.9,7.11 50.53,-6.94 -14.85,-5.8 -29.75,-11.39 -44.44,-17.53 2.1,-3.87 4.64,-7.83 8.95,-9.5 12.26,-5.58 26.44,-3.94 39.14,-0.85 5.45,2.19 4.4,8.94 4.71,13.66 11.09,2.35 22.14,4.91 33.25,7.21 1.27,-3.43 2.48,-6.85 3.69,-10.3 -2.88,-3.73 -6.86,-8.02 -5.47,-13.15 0.75,-4.63 5.04,-7.3 8.11,-10.37 -3.93,-6.07 -8.74,-11.49 -14.09,-16.32 -4.28,1.06 -9.19,3.98 -13.38,1.23 -23.62,-15.68 -49.44,-27.7 -75.96,-37.61 -1.27,-3.85 -2.6,-7.68 -3.93,-11.49 -23.09,-6.47 -46.14,-13.05 -69.11,-19.93 -4.02,3.38 -8.04,6.73 -12.16,9.98zm30.2 40.45l0 0c15.85,3.11 31.83,5.55 47.81,7.87 -4.98,-3.7 -10.08,-7.21 -15.16,-10.73 0.2,-1.75 0.64,-5.22 0.85,-6.94 -11.22,3.09 -22.37,6.44 -33.5,9.8zm77.29 56.19l0 0c11.32,3.09 22.56,6.43 33.78,9.84 -0.66,-3.66 -1.3,-7.3 -2.01,-10.92 -8.15,-1.08 -16.34,-2.29 -24.58,-2.1 -2.9,-0.31 -5.43,0.96 -7.19,3.18zm-416.28 -1.23l0 0c6.08,3.96 13.08,6.25 19.22,10.16 28.17,15.52 53.63,36.95 70.63,64.53 46.55,-8.15 93.73,-12.78 140.95,-14.05 2.41,4.4 4.78,8.82 7.17,13.25 -10.35,9.86 -21.23,19.19 -31.98,28.61 1.29,-10.44 3.31,-20.78 4.83,-31.19 -68.43,9.31 -131.66,38.75 -195.09,64.44 -45.19,-23.62 -93.42,-43.73 -144.43,-49.67 25.23,6.69 50,15.42 73.25,27.42 24.62,12.43 47.07,28.72 67.77,46.88 51.47,-20.21 103.54,-39.11 156.87,-53.79 -8.08,22.93 -22.71,42.66 -35.77,62.89 -4.91,-0.82 -9.82,-1.71 -14.71,-2.6 -1.73,4.89 -3.51,9.76 -5.46,14.56 -8.65,-1.9 -17.78,-5.01 -26.58,-2.28 -5.46,1.67 -7.51,7.53 -8.36,12.61 -4.82,26.41 -9.86,52.78 -14.62,79.2 73.94,-53.74 137.62,-119.98 198.2,-188 3.51,-3.28 3.55,-8.85 0.82,-12.6 -6.01,-9.31 -12.23,-18.49 -18.09,-27.87 -43.33,-0.55 -86.63,3.34 -129.7,7.41 -34.56,-23.69 -73.43,-42.63 -114.92,-49.91z"/>
   <path class="fil3" d="M290.65 358.99c80.02,-0.06 160.06,0 240.08,-0.04 28.38,79.4 56.83,158.75 85.08,238.18 29.78,-33.33 59.45,-66.75 89.04,-100.24 49.37,-0.57 98.73,-0.52 148.12,-0.48 40.83,0.23 81.63,-0.74 122.48,-0.53 -3.64,12.59 -7.32,25.18 -10.82,37.82 -33.33,116.34 -67.02,232.59 -100.33,348.95 17.67,0.05 35.36,-0.06 53.07,0.07 -14.62,51.97 -29.22,103.93 -43.85,155.89 -96.15,-0.06 -192.31,0.04 -288.46,-0.04 14.67,-51.69 29.76,-103.28 44.65,-154.92 18.38,-0.13 36.77,0.06 55.16,-0.09 15.85,-55.85 31.79,-111.68 47.62,-167.53 -10.63,-6.33 -21.29,-12.64 -31.92,-18.96 -37.71,38.49 -75.21,77.18 -112.61,115.95 -27.54,-0.02 -55.09,-0.04 -82.61,0 -15.02,-38.32 -29.77,-76.72 -44.74,-115.05 -13.27,3.86 -26.53,7.79 -39.79,11.69 -16.91,57.97 -33.79,115.96 -50.7,173.96 19.17,0 38.34,-0.04 57.5,0.01 -14.62,51.66 -29.36,103.3 -44.06,154.94 -95.84,0.04 -191.69,0.04 -287.52,0 14.9,-51.66 29.84,-103.3 44.77,-154.95 18.49,-0.02 36.97,0 55.47,0 35.23,-123.7 70.53,-247.38 105.77,-371.08 -18.26,-0.03 -36.51,0 -54.79,-0.02 14.41,-51.2 29.1,-102.31 43.39,-153.53zm693.39 257.8c83.2,0.02 166.39,-0.02 249.59,0.02 -5.72,33.8 -12.51,67.43 -17.95,101.29 9.06,1.91 18.99,1.31 26.86,-4.02 42.18,-27.77 78.94,-62.73 115.49,-97.35 23.7,0.17 47.43,-0.07 71.15,0.12 56.36,18.97 111.88,40.47 167.37,61.93 -15.56,55.17 -31.37,110.28 -46.92,165.46 -48.97,0.06 -97.91,0.06 -146.84,0.02 6.86,-24.15 13.74,-48.3 20.55,-72.47 -24.29,0 -48.55,-0.08 -72.82,0.05 -35.35,123.21 -70.96,246.35 -106.37,369.56 18.58,0.07 37.18,0.02 55.76,0.02 -14.6,51.69 -29.35,103.31 -44.06,154.97 -101.37,0.04 -202.75,0.04 -304.11,0 14.92,-51.5 29.81,-103.01 44.85,-154.48 18.82,-0.02 37.65,0.06 56.47,-0.04 35.45,-123.68 70.98,-247.34 106.43,-370.99 -24.59,-0.1 -49.2,-0.06 -73.8,-0.04 -6.98,24.79 -14.03,49.55 -20.91,74.37 -48.84,0.09 -97.65,-0.55 -146.47,-0.95 21.82,-75.85 43.83,-151.64 65.73,-227.47z"/>
  </g>
 </g>
</svg>
