<?xml version="1.0" encoding="UTF-8"?>
<!DOCTYPE svg PUBLIC "-//W3C//DTD SVG 1.1//EN" "http://www.w3.org/Graphics/SVG/1.1/DTD/svg11.dtd">
<!-- Creator: CorelDRAW -->
<svg xmlns="http://www.w3.org/2000/svg" xml:space="preserve" width="2000px" height="1600px" version="1.1" style="shape-rendering:geometricPrecision; text-rendering:geometricPrecision; image-rendering:optimizeQuality; fill-rule:evenodd; clip-rule:evenodd"
viewBox="0 0 2000 1600"
 xmlns:xlink="http://www.w3.org/1999/xlink">
 <defs>
  <style type="text/css">
   <![CDATA[
    .fil0 {fill:#840016;fill-rule:nonzero}
    .fil1 {fill:#FDB82E;fill-rule:nonzero}
   ]]>
  </style>
 </defs>
 <g id="Capa_x0020_1">
  <metadata id="CorelCorpID_0Corel-Layer"/>
  <g id="Minnesota_x0020_Golden_x0020_Gophers.cdr">
   <path class="fil0" d="M380.95 212.45c195.22,-0.09 390.44,-0.02 585.67,-0.04 0,103.07 0,206.17 0,309.24 -28.55,-0.04 -57.1,0.11 -85.65,-0.08 29.89,47.35 59.97,94.57 89.92,141.87 9.19,13.88 17.29,28.57 27.21,41.94 38.69,-61.28 77.57,-122.43 116.41,-183.62 -27.04,-0.24 -54.08,-0.04 -81.1,-0.11 -0.06,-103.07 0.03,-206.15 -0.04,-309.2 195.23,-0.09 390.45,-0.02 585.67,-0.04 0,103.07 0,206.17 0,309.24 -29.97,0.02 -59.94,-0.02 -89.89,0.02 117.52,188.48 235.18,376.9 352.75,565.38 39.34,-0.02 78.66,0.04 118,-0.04 0.18,100.18 0.07,200.37 0.07,300.55 -198.31,-0.04 -396.62,0 -594.94,-0.02 -0.02,-100.16 0.03,-200.3 -0.02,-300.47 30.02,-0.06 60.03,-0.02 90.03,-0.02 -58.46,-93.02 -116.91,-186.07 -175.52,-279.01 -17.76,28.03 -35.38,56.09 -53.16,84.09 20.87,0.16 41.73,0.03 62.59,0.07 0.07,106.14 -0.1,212.28 0.09,318.42 -219.33,0.3 -438.65,0.04 -657.98,0.13 0.06,-106.21 -0.11,-212.41 0.08,-318.59 19.34,0.11 38.65,0 57.98,0.04 -19.25,-28.05 -38.49,-56.09 -57.6,-84.22 -58.63,92.95 -117.13,186.02 -175.61,279.09 33.01,-0.04 66.05,-0.04 99.07,0 0.13,100.06 -0.27,200.13 0.21,300.18 -198.39,0.66 -396.79,0.16 -595.19,0.25 0.04,-100.15 0,-200.29 0.02,-300.43 39.3,0.02 78.62,-0.17 117.92,0.09 114.85,-188.37 229.22,-377.05 343.99,-565.49 -26.99,-0.06 -53.97,0 -80.94,-0.02 -0.07,-103.07 0.02,-206.12 -0.04,-309.2z"/>
   <path class="fil1" d="M417.09 248.55c168.03,-0.02 336.07,-0.04 504.08,0 -0.03,78.99 0.13,157.99 -0.07,236.98 -39.03,-0.02 -78.05,-0.02 -117.09,0.02 64.55,106.69 129.13,213.33 193.78,319.95 66.06,-106.66 132.22,-213.26 198.21,-319.97 -39.06,-0.02 -78.12,0 -117.16,-0.02 0.24,-79.06 -0.52,-158.16 0.38,-237.2 167.88,0.55 335.78,0.05 503.68,0.24 0.02,78.99 0.06,157.99 -0.05,237 -42.03,-0.04 -84.05,-0.07 -126.08,0 131.14,212.8 262.41,425.54 393.77,638.22 37.66,-0.2 75.34,0.22 113,-0.22 0.74,75.92 0.13,151.9 0.3,227.84 -174.23,0.02 -348.43,0.05 -522.66,0 0,-75.9 -0.11,-151.78 0.04,-227.67 39.19,0.02 78.36,0 117.53,0 -78.16,-127.88 -156.19,-255.87 -234.74,-383.5 -40.48,65.76 -80.75,131.64 -121.21,197.39 27.07,0.06 54.15,0.02 81.23,0.02 0.09,75.88 0.04,151.79 0.02,227.67 -192.29,0.02 -384.56,0.04 -576.85,0 -0.15,-75.8 0.22,-151.59 -0.2,-227.37 28.53,-0.7 57.1,-0.06 85.63,-0.32 -40.33,-65.93 -80.85,-131.74 -121.2,-197.66 -81.27,127.9 -162.49,255.85 -243.81,383.73 40.59,0.06 81.18,0.13 121.77,-0.02 0.35,75.9 0.09,151.83 0.14,227.73 -171.12,0.02 -342.24,0.02 -513.36,0 -0.02,-75.88 -0.07,-151.78 0.02,-227.67 36.32,-0.04 72.66,0.11 109.01,-0.09 131.1,-212.76 262.48,-425.34 393.6,-638.08 -40.57,-0.09 -81.12,-0.02 -121.69,-0.02 -0.06,-78.99 0,-157.99 -0.02,-236.98zm35.95 36.94l0 0c0.4,54.62 0.04,109.27 0.2,163.91 51.16,0.03 102.33,0.03 153.49,0 -147.98,236.83 -295.47,473.95 -443.8,710.58 -30.04,-0.31 -60.07,-0.09 -90.09,-0.11 -0.07,51.58 0,103.18 -0.05,154.79 146.8,0.3 293.6,-0.16 440.39,0.24 0.51,-54.8 0.2,-109.6 0.16,-164.4 -49.62,0.06 -99.23,0.04 -148.84,0 100.71,-161.03 201.56,-321.99 302.37,-482.95 63.19,100.56 126.15,201.22 189.27,301.82 -37.61,0 -75.2,-0.02 -112.81,0 -0.03,53.29 -0.07,106.58 0.02,159.85 168.01,-0.05 336.02,0 504.01,-0.02 0.11,-53.27 0.04,-106.54 0.04,-159.8 -37.5,-0.05 -74.98,-0.05 -112.47,0 61.42,-99.23 123.09,-198.25 184.63,-297.36 103.89,162.6 207.84,325.14 311.61,487.79 -51.1,0.02 -102.22,0 -153.32,0.02 -0.04,51.62 -0.02,103.25 0,154.87 149.82,-0.11 299.66,0.35 449.47,-0.22 -0.3,-51.54 -0.04,-103.09 -0.13,-154.63 -30.14,-0.09 -60.29,0 -90.44,-0.04 -152.27,-236.83 -304.73,-473.56 -456.94,-710.45 55.66,0.07 111.31,0.02 166.96,0.02 0.02,-54.73 0.05,-109.46 0,-164.22 -143.88,-0.02 -287.74,0.13 -431.63,-0.06 -0.48,54.75 -0.09,109.51 -0.17,164.26 48.12,0.09 96.26,-0.04 144.41,0.07 -87.16,138.32 -174.41,276.6 -261.56,414.92 -85.83,-138.23 -171.47,-276.58 -257.1,-414.92 48.12,-0.13 96.25,0.09 144.37,-0.13 -0.05,-54.69 0,-109.4 -0.03,-164.12 -144.01,0.18 -288.03,-0.37 -432.02,0.29z"/>
  </g>
 </g>
</svg>
