<?xml version="1.0" encoding="UTF-8"?>
<!DOCTYPE svg PUBLIC "-//W3C//DTD SVG 1.1//EN" "http://www.w3.org/Graphics/SVG/1.1/DTD/svg11.dtd">
<!-- Creator: CorelDRAW -->
<svg xmlns="http://www.w3.org/2000/svg" xml:space="preserve" width="2000px" height="1600px" version="1.1" style="shape-rendering:geometricPrecision; text-rendering:geometricPrecision; image-rendering:optimizeQuality; fill-rule:evenodd; clip-rule:evenodd"
viewBox="0 0 2000 1600"
 xmlns:xlink="http://www.w3.org/1999/xlink">
 <defs>
  <style type="text/css">
   <![CDATA[
    .fil0 {fill:black;fill-rule:nonzero}
    .fil2 {fill:#E9AE10;fill-rule:nonzero}
    .fil1 {fill:#FEFEFE;fill-rule:nonzero}
   ]]>
  </style>
 </defs>
 <g id="Capa_x0020_1">
  <metadata id="CorelCorpID_0Corel-Layer"/>
  <g id="Missouri_x0020_Tigers.cdr">
   <path class="fil0" d="M975.53 233.18c198.05,-2.26 398.07,26.1 583.76,96.68 85.35,32.79 167.72,74.82 240.94,129.93 59.63,45.12 113.54,99.44 151,164.59 21.77,37.99 37.63,79.6 44.54,122.89 8.48,51.94 4.11,105.84 -12.2,155.86 -24.59,75.85 -74.09,141.27 -132.35,194.69 -63.92,58.43 -138.62,103.99 -216.86,140.56 -88.62,41.1 -182.25,70.75 -277.62,91.46 -179.81,38.54 -365.79,46.38 -548.46,26.68 -103.24,-11.4 -205.56,-32.15 -304.41,-64.14 -97.88,-31.94 -192.89,-74.68 -277.82,-133.31 -52.81,-36.54 -101.63,-79.51 -141.27,-130.22 -44.38,-56.61 -76.3,-124.58 -83.12,-196.74 -6.96,-66.71 8.33,-134.71 39.54,-193.78 42.76,-81.26 110.92,-146.3 185.78,-198.11 91.79,-63.07 195.09,-107.87 301.35,-140.33 144.81,-43.78 296.1,-64.49 447.2,-66.71z"/>
   <path class="fil1" d="M1071.39 307.07c11.13,-8.71 26.39,-3.4 38.74,-0.47 40.1,12.69 79.2,28.59 119.94,39.25 2.75,0.63 4.8,2.29 6.11,4.98 -41.46,-8.11 -82.71,-17.24 -124.07,-25.81 -12.6,-2.85 -27.22,-3.58 -38.17,4.39 -7.77,5.36 -11.44,14.62 -13.06,23.57 -1.13,-0.02 -3.4,-0.06 -4.53,-0.06 1.93,-15.8 2.8,-34.12 15.04,-45.85zm546.26 283.39c28.3,10.95 57.25,22.57 80.55,42.61 8.62,9.46 11.77,22.46 14.35,34.68 2.93,17.26 5.24,34.65 7.18,52.07 -14.95,10.66 -32.59,16.61 -49.43,23.57 0.53,1 1.62,3 2.15,4 15.22,-0.83 30.48,-2.18 45.43,-5.27 -0.13,15.13 -2.51,30.15 -5.44,44.94 -14.11,3.87 -28.46,6.64 -42.7,9.98 0.62,1.29 1.87,3.88 2.49,5.17 12.49,0.02 24.97,-0.04 37.48,0.05 -1.14,12.04 -4.91,23.74 -10.31,34.52 -1.2,3.6 -5.04,4.55 -8.15,5.84 -10.95,4.16 -22.75,5.27 -34.3,6.53 0.29,0.96 0.84,2.87 1.11,3.85 11.26,1.8 22.7,2.02 34.08,2.73 -6.78,18.01 -20.31,32.85 -35.7,44.09 -14.58,-5.97 -23.71,-20.14 -28.26,-34.65 -5.29,-15.64 -3.38,-32.39 -3.64,-48.58 1.66,-26.71 3.26,-53.74 10.17,-79.69 8.33,-19.97 25.86,-34.32 43.83,-45.43 4.55,-13.5 11.71,-25.99 20.19,-37.41 -0.86,-1.98 -1.71,-3.95 -2.55,-5.91 -2.82,0.91 -5.64,1.96 -8.53,2.54l-1.18 -0.76c-16.66,-26.08 -45.07,-40.85 -68.82,-59.47zm-431.7 -56.16c7,1.69 13.95,3.56 20.82,5.73 0.08,4.2 0.33,8.38 0.7,12.58 8.91,1.26 17.91,2.06 26.82,3.64 -6.15,5.71 -13.57,9.69 -20.48,14.37 3.51,8.18 6.79,18.75 16.55,21.17 17.32,-2.24 32.25,-13.24 44.16,-25.48 8.73,2.56 17.55,4.89 26.26,7.6 -2.6,5.38 -5.67,10.53 -9.56,15.06 22.66,1.62 45.3,-1.18 67.98,-1.15 9.55,0.51 14.44,-9.71 20.2,-15.73 22.81,3.4 47.27,2.47 67.86,14.37 -4.31,4.05 -8.97,7.76 -13.73,11.27 23.42,-1.11 48.17,1.26 68.98,12.86 -5.06,3.8 -10.13,7.62 -15.17,11.42 33.34,-0.45 63.09,17.61 87.06,39.23 -18.68,-2.54 -37.59,-2.45 -56.41,-2.29 0.03,1.07 0.05,3.2 0.05,4.26 13.57,5.51 22.21,18.22 28.06,31.11 12.06,2.31 23.99,5.61 35.34,10.39 19.28,10.35 33.12,30.39 35.65,52.18 2.38,25.69 -1.75,52.85 -16.9,74.29 -18.62,26.5 -45.7,48.58 -77.73,55.96 -40.16,10.04 -83.33,14.17 -123.47,1.82 -29.04,-9.11 -58.25,-19.06 -88.86,-20.81 -35.45,-1.29 -73.04,4.82 -102.5,25.81 -21.1,14.75 -34.41,38.36 -40.59,62.98 -5.5,22.32 -6.93,45.89 -2.75,68.58 22.48,-14.36 50.56,-21.2 76.93,-15.67 10.86,2.85 21.22,7.42 31.3,12.31 -3.15,-9.44 -11.28,-15.88 -18.48,-22.24 30.26,-2.46 58.47,14.09 79.93,34.02 0.66,-28.88 9.48,-59.74 31.85,-79.36 23.2,-22.21 53.39,-35.61 84.17,-43.49 30.59,-7.89 61.96,-11.93 93.17,-16.35 17.84,-2.47 35.59,-6.71 51.96,-14.38 14.11,8.76 29.26,15.95 44.97,21.35 1.93,26.17 -12.33,50.39 -29.97,68.56 -13.22,14.15 -30.13,24.43 -48.14,31.25 13.51,-19.5 27.15,-40.56 28.57,-64.95 -0.67,-7.13 -1.67,-17.29 -9.69,-19.84 -20.79,-6.58 -43.21,-5.18 -64.2,-0.18 -9.71,39.79 -39.56,71.8 -74.71,91.31 7.22,-25.49 14.09,-51.65 12.58,-78.38 -23.93,1.38 -44.92,15.93 -59.74,33.99 -14.55,17.44 -27.32,38.63 -26.35,62.14 0.98,14.59 5.58,30.83 18.55,39.23 -12.19,15.41 -28.23,28.03 -46.69,34.98 -9.95,3.87 -21.68,3.14 -30.75,-2.64 -15.95,-9.62 -25.92,-26.9 -42.98,-34.94 -28.99,-11.91 -63.43,-15.8 -92.37,-1.71 2.42,15.57 7.26,30.7 13.39,45.2 1.29,3.42 3.6,6.29 5.89,9.11 10.57,-6.69 23.55,-9.08 35.83,-6.69 16.55,2.78 31.44,10.96 46.19,18.49 22.9,7.2 47.98,1.57 68.57,-9.8 27.84,-15.48 50.65,-38.36 72.38,-61.29 7.04,13.57 4.93,30.12 -1.13,43.65 -6.91,16.33 -19.44,29.28 -29.84,43.21 23.19,9.35 50.12,3.47 71.05,-8.93 25.81,-14.88 50.11,-32.88 70.55,-54.63 5.55,23.48 -2.98,47.99 -15.97,67.51 -0.74,2.09 -4.65,4.22 -2.42,6.49 11.26,1.11 22.59,1.44 33.85,2.78 -7.75,33.01 -24.95,63.18 -46.23,89.3 -9.35,11.93 -21.01,21.66 -32.99,30.81 1.23,-8.04 1.45,-16.17 1.31,-24.26 -15.12,12.58 -32.05,22.71 -49.02,32.57 -27.26,15.44 -55.5,29.75 -85.71,38.45 4.62,-11.39 8.93,-22.94 12.24,-34.78 -32.92,17.26 -68.22,29.72 -104.19,38.87 5.67,-10.42 10.58,-21.23 15.35,-32.08 -25.34,9.16 -51.64,15.29 -78.06,20.4 6.58,-13.98 12.2,-28.5 15.15,-43.72 -18.44,3.02 -37.1,4.38 -55.69,5.84 -4.84,-19.68 -11.73,-39.76 -25.77,-54.89 -22.72,-23.22 -52.47,-38.08 -82.82,-48.76 -24.3,-9 -50.25,-12.38 -75.97,-14.22 -9.73,-0.93 -19.46,-0.11 -29.17,0.62 41.23,11.09 83.88,20.75 120.61,43.52 -43.19,2.98 -85.66,12.29 -127.05,24.7 -46.94,13.91 -92.7,31.46 -137.73,50.56 -12.42,-0.77 -24.66,-3.22 -36.97,-4.97 -47.47,-7.71 -94.92,-16.4 -141.33,-29.15 11.75,-3.84 23.44,-8.02 35.32,-11.48 25.11,-7.27 48.99,-18 72.96,-28.24 -18.35,-4.84 -36.57,-11.08 -52.9,-20.92 42.46,-8.78 84.86,-21.04 122.32,-43.46 -62.03,-17.57 -122.89,-39.78 -180.81,-68.13 42.72,-6.75 85,-16.22 126.63,-27.97 -98.13,-30.65 -193.52,-69.86 -286.09,-114.47 55.34,14.6 111.88,24.28 168.57,31.92 -13.24,-13.33 -26.33,-27.12 -35.7,-43.54 47.52,28.57 100.14,47.16 152.46,64.78 54.45,18.13 109.81,33.48 165.43,47.56 -25.23,-23.81 -45.38,-52.31 -65.4,-80.48 -30.9,-44.9 -60,-91.11 -86.75,-138.6 29.51,44.78 72,78.88 114.88,110.16 -1.4,-18.28 -3.2,-37.14 1.89,-55.02 4.15,6.77 6.64,14.37 9.84,21.61 25.34,59.05 58.31,115.1 99.94,164.17 26.44,30.83 56.12,59.4 90.53,81.22 -15.75,-53.72 -25.71,-108.92 -36.52,-163.79 7.73,15.79 18.99,29.65 32.67,40.69 -10.37,-28.43 -12.75,-59.04 -13.15,-89.05 21.28,41.4 54.78,76.37 94.57,100.38l-1.55 -0.62c0.48,0.4 1.46,1.18 1.95,1.58 -0.35,-26.59 0.78,-53.65 9.11,-79.17 8.48,-26.46 22.44,-52.01 43.72,-70.34 26.17,-22.39 60.38,-32.99 94.12,-36.74 26.61,-2.73 53.56,-2.04 80.04,1.73 34.06,5.91 68,12.8 101.46,21.53l3.91 -0.29c-11.64,-7.31 -24.66,-11.95 -37.39,-16.93 -53.94,-19.46 -109.92,-32.56 -165.97,-44.29 -5.82,-1.43 -11.91,-1.74 -17.46,-4.05 28.61,-4.99 57.72,-2.42 86.57,-2.31 63.78,3.34 128.69,4.87 190.25,23.64 0.8,-0.73 2.4,-2.22 3.18,-2.96 -42.19,-16.72 -86.31,-28.07 -130.69,-37.23 -66.83,-14.21 -134.71,-22.88 -202.74,-28.79 33.68,-6.66 68.29,-7.68 102.55,-8.91 62.13,-2.53 124.38,-0.2 186.29,5.62 14.86,0.89 29.64,3.45 44.54,3.29 -5.37,-3.4 -11.88,-3.91 -17.86,-5.62 -19.93,-4.62 -39.92,-9.02 -60.02,-12.77 -108.21,-16.24 -217.44,-26.5 -326.89,-28.24 27.5,-9.7 56.58,-13.72 85.39,-17.41 67.89,-7.91 136.29,-9.51 204.55,-9.69 11.04,-9.71 24.31,-16.06 37.57,-22.1 -51.52,-14.8 -105.3,-17.09 -158.37,-21.53 -28.1,-3.15 -56.49,-3.58 -84.33,-8.79 -28.32,-4.96 -56.18,-12.6 -83.04,-22.84 -3.2,-0.89 -5.19,-3.62 -7.35,-5.89 -14.99,-16.37 -30.66,-32.34 -43.3,-50.65 6.11,-0.93 11.75,2.13 17.53,3.64 11.42,3.85 23.55,5.87 34.35,11.47 23.08,11.37 46.38,23.68 72.06,27.94 -4.71,-16.01 -9.22,-33.1 -5.42,-49.76zm-185.74 -72.44c47.34,17.17 97.59,24.81 147.71,27.61 39.03,0.82 77.55,11 112.81,27.59 10.92,5.14 20.85,12.09 31.61,17.6 22.32,12.13 45.63,22.32 68.55,33.23 -10.33,0.6 -20.08,-3.04 -29.77,-5.91 -27.65,-8.24 -54.71,-18.35 -81.48,-29.12 -12.93,-5.07 -25.41,-11.64 -39.23,-14.02 -38.19,-7.02 -77.98,2.93 -115.63,-8.26 -26.32,-7.89 -54.03,-10.62 -79.77,-20.48 -7.42,-7.82 -12.38,-17.78 -14.8,-28.24zm-273.86 -89.59c10.46,-6.38 23.43,-3.29 34.63,-0.67 -9.13,-0.89 -22.35,0.98 -24.5,11.77 0.02,11.2 6.35,21.15 13.21,29.55 13.33,15.91 30.44,28.21 48.57,38.12 37.43,21.66 79.04,34.86 120.85,45.19 9.39,11.7 19.3,23.01 28.79,34.65 -42.88,-8.49 -85.75,-19.06 -125.81,-36.94 -40.83,-18.02 -77.77,-48.23 -97.28,-89.02 -4.06,-10.06 -8.01,-24.48 1.54,-32.65z"/>
   <path class="fil2" d="M493.96 340.21c149.61,-50.91 307.54,-74.95 465.26,-78.93 187.45,-3.84 376.72,20.04 554.35,81.49 91.97,32.23 181.03,74.79 259.8,132.55 57.54,42.59 109.92,93.84 146.67,155.75 21.3,36.03 36.96,75.64 43.98,117.01 9.42,54.73 3.45,111.89 -16.41,163.72 -27.84,73.4 -79.8,135.15 -139.27,185.27 -88.35,73.91 -193.49,125.14 -301.83,162.57 13.42,-17.09 25.23,-35.55 33.5,-55.67 1.22,-2.22 1.58,-5.56 4.46,-6.29 75.69,-29.88 148.86,-67.58 213.51,-117.32 55.67,-42.98 105.57,-95.79 135.87,-159.88 21.26,-44.54 31.32,-94.65 26.83,-143.95 -4.24,-49.58 -22.97,-97.19 -50.09,-138.64 -38.39,-58.8 -91.99,-106.1 -149.86,-145.13 -73.94,-49.25 -155.8,-85.62 -239.99,-113.38 -90.68,-29.77 -184.58,-48.81 -279.17,-60.74 -33.59,-14.57 -66.05,-32.94 -102.04,-41.14 -14.37,-3.31 -30.76,-3.55 -43.23,5.44 -9.41,6.67 -17.46,15.15 -24.25,24.46 -126.36,-2.38 -253.21,8.8 -376.88,35.37 -95.28,20.68 -188.89,50.58 -276.66,93.32 -55.89,27.44 -109.48,60.11 -157.17,100.26 -40.21,33.74 -76.04,73.26 -102.52,118.76 68.4,57.55 139.4,112.11 213.66,161.94 38.14,24.86 76.68,49.54 117.98,68.85 -33.5,-36.28 -63.67,-75.82 -87.88,-118.94 -23.95,-42.77 -43.61,-88.73 -52.23,-137.18 6.09,2.91 8.29,9.91 12.44,14.8 37.04,50.49 84.09,92.63 132.87,131.46 70.2,55.59 146.37,103.12 224.95,145.87 46.87,24.99 93.72,51.18 144.55,67.31 -33.77,-37.95 -65.27,-77.87 -95.46,-118.7 -24.92,-34.19 -48.87,-69.22 -68.82,-106.58 -35.59,-61.09 -66,-125.3 -89.75,-191.92 26.31,18.69 49.88,41.37 77.33,58.41 -0.38,-2.51 -1.04,-4.98 -1.95,-7.34 -18.04,-42.14 -34.81,-84.88 -49.1,-128.44 -8.28,-26.04 -16.17,-52.36 -20.17,-79.44 41.65,-8.27 83.53,-15.91 125.89,-19.51 11.22,67.6 46.25,135.11 106.43,171.19 1.85,48.5 6.4,97.12 17.47,144.44 5.84,22.97 12.81,46.25 26.28,66.05 -4.96,-45.23 3.04,-92.19 25.92,-131.78 6.98,-12.38 15.02,-24.15 24.13,-35.06 5.39,5.11 -0.03,12.47 -0.29,18.57 -13.33,70.54 -17.2,143.69 -4.54,214.62 6,36.48 21.04,70.51 36.06,103.99 15.39,33.03 32.12,65.69 53.69,95.19 9.47,12.68 19.8,25.04 32.81,34.26 -8.46,-30.51 -19.68,-60.27 -26.08,-91.35 -19.7,-85.55 -15.32,-179.08 24.86,-258.23 5.22,54.1 19.91,106.97 39.5,157.55 18.37,47.87 42.87,93.1 69.82,136.64 -39.79,-24.01 -73.29,-58.98 -94.57,-100.38 0.4,30.01 2.78,60.62 13.15,89.05 -13.68,-11.04 -24.94,-24.9 -32.67,-40.69 10.81,54.87 20.77,110.07 36.52,163.79 -34.41,-21.82 -64.09,-50.39 -90.53,-81.22 -41.63,-49.07 -74.6,-105.12 -99.94,-164.17 -3.2,-7.24 -5.69,-14.84 -9.84,-21.61 -5.09,17.88 -3.29,36.74 -1.89,55.02 -42.88,-31.28 -85.37,-65.38 -114.88,-110.16 26.75,47.49 55.85,93.7 86.75,138.6 20.02,28.17 40.17,56.67 65.4,80.48 -55.62,-14.08 -110.98,-29.43 -165.43,-47.56 -52.32,-17.62 -104.94,-36.21 -152.46,-64.78 9.37,16.42 22.46,30.21 35.7,43.54 -56.69,-7.64 -113.23,-17.32 -168.57,-31.92 92.57,44.61 187.96,83.82 286.09,114.47 -41.63,11.75 -83.91,21.22 -126.63,27.97 57.92,28.35 118.78,50.56 180.81,68.13 -37.46,22.42 -79.86,34.68 -122.32,43.46 16.33,9.84 34.55,16.08 52.9,20.92 -23.97,10.24 -47.85,20.97 -72.96,28.24 -11.88,3.46 -23.57,7.64 -35.32,11.48 46.41,12.75 93.86,21.44 141.33,29.15 12.31,1.75 24.55,4.2 36.97,4.97 110.63,14.07 222.55,18.09 333.82,10.73 4.71,-1.68 3.6,4.65 4.77,7.16 18.58,0.42 37.15,-0.89 55.7,-2.25 -4.62,12.95 -9.91,25.95 -16.6,37.88 -76.75,7.15 -154.03,8.62 -231.03,5.31 -110.72,-4.82 -221.1,-20.08 -328.49,-47.54 -89.35,-23.04 -176.83,-54.43 -258.67,-97.23 -68.67,-36.04 -133.69,-80.29 -188.09,-135.85 -49.05,-50.38 -89.46,-111.29 -106.81,-180.12 -16.73,-63.71 -11.53,-132.53 13.04,-193.53 27.5,-69.42 76.6,-128.22 132.8,-176.45 89.35,-76.02 196.4,-128.45 306.72,-166.46zm529.38 21.64c10.99,-1.96 22.19,-2.18 33.34,-2.64 55.32,-0.98 110.3,6.55 165.04,13.79 35.94,4.87 71.86,10.13 107.65,16.17 20.3,3.4 40.94,6.71 59.84,15.29 28.33,11.28 52.23,30.54 77.45,47.18 19.41,13.51 39.38,26.55 56.55,42.92 14.87,12.57 13,34.52 11.13,51.98 -2.48,-0.73 -4.97,-1.46 -7.42,-2.22 -3.91,-8.02 -6.88,-17.86 -15.59,-21.99 -9.86,-4.91 -21.3,-5.53 -32.08,-4.31 -0.09,14.68 12.09,25.26 23.3,32.77 16,11.21 35.55,15.06 54.03,20.26 20.59,5.62 40.77,12.9 61.07,19.41 23.75,18.62 52.16,33.39 68.82,59.47l-0.22 1.58c-9.4,3.26 -17.48,9.15 -24.04,16.61 -3.06,-5.75 -6.35,-11.37 -9.66,-16.97 -18.37,0.09 -36.7,0.71 -55.05,1.29 -3.53,6.07 -8.4,11.17 -14.19,15.08 -2.78,-2.39 -5.82,-4.35 -8.91,-6.28 -23.97,-21.62 -53.72,-39.68 -87.06,-39.23 5.04,-3.8 10.11,-7.62 15.17,-11.42 -20.81,-11.6 -45.56,-13.97 -68.98,-12.86 4.76,-3.51 9.42,-7.22 13.73,-11.27 -20.59,-11.9 -45.05,-10.97 -67.86,-14.37 -6.34,-0.42 -12.67,-1.73 -18.51,-4.2 -22.92,-10.91 -46.23,-21.1 -68.55,-33.23 -10.76,-5.51 -20.69,-12.46 -31.61,-17.6 -35.26,-16.59 -73.78,-26.77 -112.81,-27.59 -50.12,-2.8 -100.37,-10.44 -147.71,-27.61 2.42,10.46 7.38,20.42 14.8,28.24 9.22,10.39 17.88,21.28 26.88,31.87 -27.15,-8.06 -54.27,-17.04 -82.53,-20.23 -13.44,-1.65 -27.15,-1.89 -40.25,-5.51 -41.81,-10.33 -83.42,-23.53 -120.85,-45.19 -18.13,-9.91 -35.24,-22.21 -48.57,-38.12 -6.86,-8.4 -13.19,-18.35 -13.21,-29.55 2.15,-10.79 15.37,-12.66 24.5,-11.77 78.66,19.13 159.79,24.84 240.45,28.41 50.68,1.16 101.99,-0.2 151.73,11.38 -18.86,2.33 -38.08,1.37 -56.78,4.95 1.04,2.22 2.71,3.76 5.02,4.64 55.87,3.29 111.74,9.49 166.7,20.11 -7.31,2.26 -15.06,2.4 -22.57,3.49 1.29,1.35 2.62,2.71 3.95,4.08 49.99,8.87 98.62,23.95 147.49,37.44 9.11,1.91 18.24,7.86 27.61,3.88 -30.77,-21.72 -61.31,-43.94 -93.57,-63.4 -8.71,4.45 -16.86,13.22 -27.3,11.89 -29.83,-13.71 -58.87,-29.28 -89.04,-42.34 -10.46,3.77 -22.08,10.04 -33.23,5.46 -29.15,-10.28 -58.22,-20.79 -87.48,-30.7 -51.38,6.55 -103.01,12.6 -154.86,13.51 -4.64,0.95 -10.93,-2.94 -14.24,1.71 -1.33,-3.22 2.91,-3.56 5.06,-4.2 30.91,-7.75 62.01,-14.68 93.42,-20.06zm-942.78 403.46l0 0c-7.19,53.56 3.16,108.68 26.57,157.15 32.66,67.6 86.73,122.47 146.6,166.66 91.39,66.86 197.02,111.74 305.14,143.73 6.04,2.06 12.04,-1.4 17.93,-2.56 25.68,-7.4 51.98,-13.46 76.53,-24.17 -33.81,-7.91 -67.53,-16.33 -100.61,-26.97 -8.49,-2.95 -17.22,-5.48 -25.06,-9.95 39.39,-3.13 78.66,-7.8 117.78,-13.35 21.13,-3.33 42.43,-6.22 62.98,-12.24 -56.45,-15.79 -112.01,-34.94 -166.74,-56.03 -34.73,-13.97 -69.98,-27.32 -102.5,-46 22.23,0.51 44.43,2.22 66.69,2.86 46.91,1.42 94.21,3.98 140.86,-2.55 -11.46,-4.67 -23.73,-6.91 -35.43,-10.84 -39.12,-12.73 -77.18,-28.46 -115.05,-44.41 -67.18,-28.7 -133.4,-59.69 -198.49,-92.84 -73.49,-38.01 -146.38,-77.9 -213.58,-126.38 -0.91,-0.53 -2.71,-1.57 -3.62,-2.11z"/>
  </g>
 </g>
</svg>
