<?xml version="1.0" encoding="UTF-8"?>
<!DOCTYPE svg PUBLIC "-//W3C//DTD SVG 1.1//EN" "http://www.w3.org/Graphics/SVG/1.1/DTD/svg11.dtd">
<!-- Creator: CorelDRAW -->
<svg xmlns="http://www.w3.org/2000/svg" xml:space="preserve" width="2000px" height="1600px" version="1.1" style="shape-rendering:geometricPrecision; text-rendering:geometricPrecision; image-rendering:optimizeQuality; fill-rule:evenodd; clip-rule:evenodd"
viewBox="0 0 2000 1600"
 xmlns:xlink="http://www.w3.org/1999/xlink">
 <defs>
  <style type="text/css">
   <![CDATA[
    .fil0 {fill:#221F1F;fill-rule:nonzero}
    .fil2 {fill:#762022;fill-rule:nonzero}
    .fil1 {fill:#FEFEFE;fill-rule:nonzero}
   ]]>
  </style>
 </defs>
 <g id="Capa_x0020_1">
  <metadata id="CorelCorpID_0Corel-Layer"/>
  <g id="Missouri_x0020_State_x0020_Bears.cdr">
   <path class="fil0" d="M861.82 0l55.03 0c17.6,1.6 35.35,2.36 52.75,5.66 10.74,4.4 20.04,11.74 30.4,16.99 12.93,-6.02 23.85,-17.39 38.65,-18.46 15.32,-1.88 30.68,-3.17 46.07,-4.19l53.29 0c41.19,2.18 82.21,6.71 123.15,11.76 22.02,2.94 44.69,3.63 65.65,11.68 32.63,12.17 60.16,34.59 84.39,59.1 13.97,-16.05 28.47,-31.87 45.61,-44.62 27.33,-19.2 60.93,-29.36 94.33,-28.4 28.98,0.87 57.24,8 85.28,14.73 38.27,10.54 72.18,32.46 103.59,56.13 37.67,28.78 71.85,61.84 103.55,97.02 3.65,3.58 4.64,8.71 5.84,13.48 12.98,56.97 26.36,114.01 33.65,172.07 3.3,29.43 5.87,60.49 -5.44,88.66 -9.65,23.9 -25.06,44.98 -41.88,64.35 15.95,18.49 34.32,34.7 50.82,52.62 10.34,14.84 22.56,29.06 27.74,46.71l0 11.02c-3.03,7.95 -9.45,13.92 -17.2,17.2 -14.98,6.62 -31.13,10.05 -46.55,15.49 10.26,70.3 17.3,141.05 23.47,211.81 3.32,41.55 7.26,83.07 8,124.75 0.15,10.64 -0.69,22.35 -7.77,30.9 -7.29,8.92 -19.79,11.31 -30.71,10.19 -17.17,-1.68 -32.51,-9.98 -47.82,-17.19 -38.35,88.58 -78.96,176.17 -120.1,263.49 -13.49,27.81 -26.44,55.92 -41.02,83.2 -9.42,17.47 -21.94,34.51 -40.05,43.68 -11.83,5.94 -27.28,8.15 -38.7,0.15 -15.52,-10.54 -28.22,-24.61 -40.56,-38.57 -88.05,31.99 -175.39,66.33 -265.2,93.2 -21.91,16.25 -40.1,37.56 -62.02,53.79 -33.57,0.89 -67.22,-0.1 -100.82,0.48 -28.9,27.31 -58.24,54.18 -87.49,81.12 -28.75,-27.07 -57.71,-54.04 -87.01,-80.48 -33.83,-2.46 -68.19,0.86 -101.97,-1.58 -20.93,-16.91 -39.39,-36.97 -60.75,-53.28 -89.86,-26.89 -177.22,-61.28 -265.35,-93.23 -12.39,13.89 -24.94,28.04 -40.45,38.53 -13.19,9.09 -31.01,5.15 -43.74,-2.82 -21.23,-13.31 -33.04,-36.32 -43.99,-57.98 -53.35,-108.73 -103.64,-218.97 -152.3,-329.88 -19.86,9.88 -42.08,21.86 -64.91,15.87 -14.07,-3.5 -21.34,-18.49 -21.16,-32.08 -0.33,-43.17 4.29,-86.19 7.57,-129.22 6.17,-71.79 13.36,-143.54 23.74,-214.88 -12.57,-4.11 -25.27,-7.74 -37.84,-11.91 -10.66,-3.68 -22.57,-9.45 -25.88,-21.28l0 -10.54c5.51,-18.01 17.81,-32.81 28.7,-47.8 16.41,-17.34 34.16,-33.42 49.86,-51.48 -17.25,-19.86 -33.1,-41.52 -42.59,-66.23 -10.32,-26.8 -7.98,-56.18 -5.03,-84.12 7.16,-58.94 20.75,-116.85 33.93,-174.65 1.14,-4.78 2.08,-9.91 5.71,-13.51 10.47,-11.63 21.28,-22.91 32.13,-34.19 41.19,-40.1 85.31,-78.57 137.06,-104.43 28.27,-14.55 59.89,-20.04 90.8,-26 34.92,-6.46 72.18,-3.94 104.3,12.03 27.69,12.47 48.61,35.23 68.22,57.68 31.03,-31.49 68.77,-60.29 113.8,-66.46 52.96,-6.33 105.91,-13.29 159.22,-16.08z"/>
   <path class="fil1" d="M705.17 67.5c76.65,-8.45 153.7,-21.1 231.01,-14.32 5.59,0.79 11.88,0.2 16.78,3.48 15.7,10.21 31.29,20.57 47.04,30.71 15.67,-10.14 31.19,-20.45 46.83,-30.58 4.06,-2.92 9.27,-2.75 14.02,-3.35 70.32,-6.63 140.67,3.12 210.44,11.35 13.79,1.83 27.89,2.36 41.22,6.63 23.87,7.08 44.65,21.58 63.57,37.35 11.96,9.55 20.97,22.13 32.78,31.85 18.8,-19.15 40.08,-35.65 62.18,-50.79 15.51,-10.31 31.39,-20.95 49.72,-25.42 23.19,-6.1 47.44,-2.64 70.5,2.28 19.15,4.35 38.76,7.8 56.59,16.43 32.73,15.42 61.59,37.79 88.94,61.26 21.18,18.57 41.57,38.05 60.49,58.9 3.08,2.92 3.53,7.29 4.65,11.15 11.38,50.05 22.91,100.16 29.59,151.08 2.64,23.85 6.09,49.14 -3.35,72 -10.39,28.73 -31.37,55.14 -61.21,64.87 27.3,28.82 54.76,57.62 80.33,88 4.52,3.88 3.1,11.32 -2.51,13.35 -13.29,6.1 -27.38,10.26 -40.97,15.6 8.05,67.58 13.03,135.46 17.68,203.35 2.79,44.9 5.76,89.8 7.16,134.78 -0.59,5.87 1.93,13.89 -4.17,17.63 -5.63,2.49 -12.52,1.95 -18.05,-0.59 -10.24,-4.57 -20.02,-10.05 -29.77,-15.54 -37.94,91.56 -83.2,179.86 -128.58,267.89 -22.12,42.03 -44.02,84.21 -67.76,125.33 -3.25,7.8 -14.4,7.7 -19.74,2.23 -10.18,-8.99 -20.11,-18.33 -29.43,-28.21 -100.67,29.23 -199.52,64.61 -301.23,90.23 -6.91,0.99 -11.53,6.45 -16.46,10.82 -14.73,13.44 -29.69,26.62 -44.42,40.08 -36.16,-0.08 -72.3,0.02 -108.44,-0.05 -20.12,21.38 -40.31,42.66 -60.6,63.87 -20.32,-21.15 -40.51,-42.46 -60.57,-63.85 -36.17,0 -72.31,-0.02 -108.47,0 -18.69,-16.22 -36.32,-33.95 -55.72,-49.24 -58.52,-15.42 -116.55,-32.64 -174.22,-51 -44.14,-13.74 -87.98,-28.52 -132.5,-40.89 -8.91,10.21 -19.1,19.18 -29.13,28.24 -5.99,6.15 -17.8,5.08 -20.62,-3.73 -54.05,-96.46 -104.51,-194.95 -152.28,-294.65 -15.21,-31.98 -29.87,-64.23 -43.23,-97.04 -11.05,6.04 -21.89,12.64 -33.72,17.01 -6.17,1.25 -15.6,1.55 -17.86,-5.84 -1.04,-19.43 0.76,-38.88 1.5,-58.29 5.44,-97.67 11.66,-195.35 22.98,-292.54 -12.92,-4.9 -26.1,-9.25 -38.88,-14.55 -3.91,-1.63 -8.99,-5.34 -7.24,-10.21 2.7,-5.29 7.06,-9.48 10.82,-14 23.52,-26.56 47.57,-52.65 72.18,-78.19 -29.38,-9.6 -50.31,-35.33 -60.85,-63.55 -9.63,-22.35 -6.65,-47.26 -4.09,-70.7 6.53,-51.41 18.19,-101.94 29.61,-152.43 1.04,-4.96 2.14,-10.24 6.12,-13.77 26.47,-28.67 55.17,-55.31 85.9,-79.36 29.3,-22.3 61.1,-43.74 97.83,-51.08 29.1,-6.63 59.47,-14.6 89.32,-7.67 18.76,4.04 35.04,14.71 50.82,25.15 22.55,15.39 44.24,32.2 63.44,51.65 9.85,-8.15 17.8,-18.28 27.12,-26.97 24.81,-21.71 53.46,-41.67 86.91,-46.15z"/>
   <path class="fil2" d="M715.81 90.64c74.16,-8.25 148.62,-23.34 223.52,-15.52 7.64,-0.02 12.01,7.27 17.34,11.61 6.86,7.19 15.52,12.83 21.41,20.8 6.48,79.04 11.91,158.2 18.26,237.23 2.42,0 4.88,0.03 7.32,0.03 6.4,-79.09 11.93,-158.28 18.26,-237.36 10.41,-11.13 22.07,-21.44 33.7,-31.34 20.11,-3.79 40.84,-3 61.26,-3.07 49.29,1.29 98.05,9.22 146.94,15.11 17.07,2.31 35.08,2.74 50.44,11.53 39.77,20.26 64.86,58.61 91.1,93.13 13.38,-18.01 25.68,-37.03 41.4,-53.16 18.21,-15.92 38.07,-29.94 58.66,-42.56 16.46,-10.01 36.4,-13.92 55.44,-11.1 20.73,2.79 41.17,7.69 61.31,13.2 36.07,13.06 66.72,37.24 95.75,61.69 20.09,17.73 40.1,35.84 57.57,56.21 11.79,47.21 21.79,95.03 28.91,143.24 2.56,23.26 7.54,48.4 -3.13,70.45 -8.51,19.68 -23.24,39.97 -45.76,43.91 -62.28,-48.51 -124.58,-97.15 -189.49,-142.07 -0.61,-5.62 0.79,-11.2 1.32,-16.76 10.34,4.9 20.44,11.09 32.08,12.26 5.08,-29.64 -4.98,-62.14 -28.27,-81.75 20.5,-4.7 39.75,5.99 57.47,14.78 17.53,11.1 33.65,26.67 40.99,46.43 4.32,12.21 -4.82,23.56 -15.44,28.39 12.07,7.85 24.23,15.57 36.17,23.62 7.46,-15.82 12.64,-32.69 14.14,-50.16 -25.52,-31.26 -54.98,-59.3 -87.03,-83.81 -19.23,-14.45 -39.52,-27.68 -61.46,-37.64 -9.88,13.18 -11.74,30.1 -15.06,45.74 -5.67,33.93 -9.37,68.34 -9.4,102.78 42.64,27.84 82.72,59.48 121.22,92.78 51.66,45.54 102.1,93.03 145.42,146.69 1.83,3.53 8.82,8.94 3.96,12.34 -9.77,4.02 -20.08,6.48 -30.19,9.45 9.14,68.85 15.77,138.03 20.47,207.34 2.41,43.99 6.22,88.23 2.44,132.22 -12.25,-1.58 -22.43,-9.45 -33.68,-13.97 -37.64,97.12 -83.86,190.63 -131.46,283.2 -14.42,27.71 -29.07,55.31 -44.44,82.49 -4.85,8.28 -9.29,16.91 -15.95,23.92 -8.2,-8.15 -15.26,-17.32 -22.65,-26.16 -47.65,18.72 -96.38,34.54 -145.15,50.06 -62.4,19.71 -125.28,37.92 -188.67,54.25 22.35,-53.56 44.32,-107.3 66.87,-160.79 62.3,-15.9 124.65,-31.75 186.79,-48.2 17.91,-23.16 32.01,-49.17 47.14,-74.24 47.34,-82.64 92.09,-166.78 133.82,-252.39 9.75,2.11 19.83,6.3 29.92,3.81 -6.51,-99.91 -39.95,-195.1 -61.67,-292.17 10.62,-1.65 21.41,-1.88 31.95,-4.04 1.07,-2.99 0.46,-5.53 -1.85,-7.64 -24.54,-28.88 -53.31,-53.72 -82.06,-78.2 -38.02,-31.64 -77.54,-61.48 -118.3,-89.52 -39.54,-27.13 -80.13,-52.95 -123.3,-73.98 -36.62,13.71 -71.37,32 -106.84,48.4 -72.03,34.39 -143.57,69.77 -215.29,104.79 -93.34,-45.46 -186.26,-91.73 -280.39,-135.59 -13.69,-6.1 -27.09,-12.93 -41.34,-17.63 -39.47,19.05 -76.7,42.29 -113.02,66.69 -44.57,30.2 -87.72,62.46 -129.09,96.87 -27.86,23.64 -55.59,47.74 -79.7,75.33 -2.38,3.04 -6.22,6.12 -4.24,10.43 10.54,2.24 21.39,2.44 32.03,4.07 -21.06,93.53 -52.6,185.24 -60.95,281.22 0.35,3.91 -2.06,8.94 1.29,12.01 9.5,0.1 18.72,-2.59 27.89,-4.83 38.32,78.99 79.54,156.57 122.72,233.02 18.56,31.64 36.13,64.15 58.18,93.49 62.15,16.63 124.57,32.35 186.92,48.33 22.45,53.51 44.49,107.17 66.67,160.78 -112.74,-29.69 -224.71,-63.01 -333.77,-104.3 -7.26,8.91 -14.53,17.88 -22.58,26.11 -8.99,-9.78 -14.52,-22.02 -21.36,-33.3 -26.31,-47.19 -50.89,-95.31 -74.97,-143.67 -34.13,-69.76 -67.63,-139.99 -95.36,-212.6 -11.23,4.63 -21.54,11.84 -33.58,14.23 -3.12,-21.21 -1.65,-42.7 -1.39,-64 3.7,-92.27 12.06,-184.33 24,-275.89 -11.08,-3.23 -22.35,-5.92 -32.92,-10.64 6.73,-13 17.07,-23.6 26.44,-34.67 47.87,-53.74 100.7,-102.93 156.11,-148.77 29.21,-23.83 59.23,-46.71 90.9,-67.15 -0.43,-37.44 -4.14,-74.9 -11.12,-111.67 -2.9,-12.73 -5.16,-26.24 -13.39,-36.83 -38.8,17.98 -72.86,44.7 -103.97,73.73 -15.57,15.19 -31.01,30.58 -44.5,47.67 1.5,17.45 6.53,34.41 14.2,50.11 11.83,-8.05 23.97,-15.65 35.94,-23.49 -10.62,-5.01 -19.86,-16.39 -15.22,-28.73 7.32,-19.27 22.99,-34.54 40.03,-45.61 17.88,-9.17 37.51,-19.91 58.33,-15.27 -23.49,19.41 -33.26,52.2 -28.24,81.73 11.56,-1.32 21.72,-7.36 32.05,-12.24 0.23,5.61 2.42,11.45 1.02,16.94 -64.84,44.88 -126.96,93.54 -189.26,141.84 -23.16,-4.16 -37.91,-25.34 -46.45,-45.66 -8.02,-16.64 -5.84,-35.61 -4.29,-53.39 5.94,-51.37 17.65,-101.86 28.98,-152.25 0.91,-8.46 8.28,-13.59 13.64,-19.35 32.88,-33.55 68.57,-64.89 108.9,-89.27 16.28,-9.93 34.13,-17.25 52.9,-20.78 28.62,-6.47 60.19,-15.18 88.05,-1.22 23.62,12.45 45.21,28.52 65.68,45.59 16.48,16.23 28.95,35.94 42.74,54.4 24.33,-31.46 46.88,-66.26 81.47,-87.52 11.96,-7.74 25.48,-13.38 39.8,-14.55z"/>
   <path class="fil2" d="M605.18 387.48c14.76,-9.7 29.59,-20.62 47.06,-24.74 14.22,-0.3 28.22,3.41 41.86,7.14 37.38,11.2 73.16,27.1 108.44,43.68 50.92,24.46 100.88,50.87 149.89,78.96 -7.95,16.23 -15.8,32.53 -23.52,48.89 -56.78,-21.33 -113.67,-42.36 -170.51,-63.59 -6.65,-2.19 -13.08,-6.02 -20.19,-6.2 -42.69,4.11 -85.46,7.49 -128.3,9.75 -39.47,56.31 -79.22,112.46 -116.37,170.31 -2.42,3.86 -8.84,13.74 -0.08,13.69 25.4,-30.07 50.31,-60.59 75.4,-90.94 7.98,-10.59 18.75,-18.52 28.65,-27.15 25.93,-21.69 54.96,-41.96 89.02,-47.65 29.36,-3.96 60.97,-2.61 87.82,11.08 -21.82,3.98 -42.36,13.61 -59.35,27.83 -0.05,3.05 -0.08,6.12 -0.11,9.19 16.94,10.57 35.97,18.19 56.01,19.69 -35.33,21.64 -67.66,47.74 -99.89,73.65 -23.98,19.91 -48.03,39.92 -69.44,62.63 -3.42,4.75 -10.92,10.18 -7.59,16.66 5.82,1.72 11.89,2.41 17.86,3.45 2.28,32.74 10.61,64.66 19.04,96.25 10.31,37.67 22.63,74.8 37.79,110.81 26.36,11.02 54.61,16.89 81.22,27.05 17.3,47.52 31.39,96.15 46.91,144.28 19.2,61.18 38.17,122.39 57.73,183.44 7.67,23.62 15.01,47.39 23.92,70.58 27.86,3.55 55.85,6.27 83.81,8.91 4.34,-0.07 7.39,3.33 10.44,5.95 9.02,8.48 18.18,16.86 27.3,25.27 11.63,-10.01 21.94,-21.8 34.44,-30.63 28.98,-3.38 58.13,-5.62 87.08,-9.5 16.94,-46 30.78,-93.03 45.8,-139.66 26.31,-82.97 51.42,-166.3 78.98,-248.84 1.9,-3.68 1.73,-9.5 6.22,-11.05 26.13,-8.83 53.08,-15.34 78.68,-25.8 19.68,-46.3 34.46,-94.53 46.22,-143.39 4.85,-20.98 9.3,-42.13 10.75,-63.67 5.74,-2.62 18.36,0.76 18.92,-7.67 -4.93,-10.67 -14.56,-18.03 -22.43,-26.41 -29.97,-28.6 -62.32,-54.55 -95.03,-79.93 -19.71,-14.85 -39.39,-29.86 -60.6,-42.51 20.14,-1.32 39.49,-8.89 56.23,-19.96 -0.03,-2.11 -0.13,-6.3 -0.18,-8.41 -16.79,-14.68 -37.66,-24.1 -59.5,-28.27 26.94,-13.53 58.51,-15.03 87.95,-10.99 43.75,7.67 78.55,37.81 110.5,66.61 28.19,33.27 55.51,67.28 83.68,100.58 6.8,-4.6 0.61,-11.59 -2.14,-16.56 -36.9,-57.37 -76.31,-113.1 -115.42,-168.97 -43.71,-2.03 -87.29,-6.02 -130.87,-9.75 -62.96,22.65 -125.49,46.63 -188.27,69.81 -7.42,-16.48 -15.82,-32.45 -23.42,-48.86 67.66,-38.47 136.56,-75.2 208.56,-104.94 27.23,-10.72 54.94,-21.48 84.22,-24.73 10.03,-1.55 19.3,3.68 27.96,8 27.45,15.46 52.37,35.09 76.24,55.56 39.55,34.14 76.04,71.98 107.25,113.91 22.99,30.98 42.57,64.96 53.74,102.09 17.91,57.53 17.91,119.22 8.23,178.26 -4.85,19.74 -13.79,38.15 -21.33,56.94 -39.52,91.25 -82.57,180.93 -125.31,270.71 -57.22,18.82 -114.49,37.54 -171.76,56.2 -15.57,5.89 -32.3,9.32 -47.24,16.36 -29.61,72.56 -58.08,145.67 -90.16,217.24 -30.68,-0.05 -61.35,0 -92.06,-0.05 -6.78,-1.17 -11.3,4.57 -16.25,8.05 -16.56,12.52 -33.05,25.14 -49.73,37.54 -19.96,-14.86 -39.57,-30.2 -59.63,-44.9 -32.66,-1.55 -65.65,-0.21 -98.44,-0.64 -31.9,-71.97 -60.83,-145.19 -90.24,-218.18 -72.94,-23.82 -145.87,-47.67 -218.79,-71.6 -38.3,-80 -76.44,-160.1 -112.51,-241.14 -11.93,-27.88 -25.17,-55.39 -33.78,-84.55 -10.94,-63.74 -10.05,-130.89 11.84,-192.35 16.66,-47.42 46.6,-88.76 79.14,-126.53 37.99,-43.38 80.55,-82.97 127.64,-116.29z"/>
   <path class="fil2" d="M812.06 581.54c33.27,-11.96 69.31,-18.39 104.59,-13.11 -32.21,58.09 -64.56,116.09 -96.97,174.05 11.15,34.56 31.62,64.86 51.08,95.16 4.54,-2.39 9.09,-4.7 13.68,-6.93 -15.61,-31.32 -25.21,-65.25 -31.84,-99.51 -1.1,-7.59 6.22,-12.34 10.94,-16.99 34.75,-30.86 76.17,-57.98 123.41,-63.01 44.85,-4.57 87.79,15.6 123.09,41.5 11.53,8.63 22.71,17.83 33.05,27.86 3.65,3.28 5.3,8.25 3.93,13.05 -6.78,33.4 -16.18,66.57 -31.52,97.15 4.68,2.33 9.35,4.64 14.02,7.01 18.92,-30.66 39.75,-60.7 50.77,-95.37 -32.63,-57.85 -64.68,-116.04 -97.12,-173.99 55.35,-7.7 110.94,10.87 158.41,38.3 41.06,25.19 77.71,58.97 102.5,100.52 2.56,34.33 -2.06,68.9 -5.46,103.11 -3.69,31.36 -7.9,62.65 -13.13,93.79 -46.53,13.81 -92.91,28.26 -139.86,40.63 -13.57,131.91 -41.17,262.18 -79.06,389.21 -71.04,0 -142.1,0.02 -213.14,0 -37.89,-127.03 -65.54,-257.27 -79.06,-389.21 -46.95,-12.37 -93.33,-26.77 -139.86,-40.68 -8.86,-57.22 -17.34,-114.7 -19.3,-172.63 0.94,-9.65 -2.77,-20.72 3.56,-29.07 35.96,-55.65 90.89,-98.7 153.29,-120.84zm100.14 181.66l0 0c-2.87,3.15 -7.64,6.68 -5.74,11.58 3.31,15.09 10.49,28.95 18.01,42.29 9.73,-1.53 19.4,-3.3 29.13,-4.83 -6.17,-12.77 -12.88,-25.85 -14.02,-40.25 2.39,-8.28 8,-15.21 11.53,-23.04 -14.12,-0.07 -28.24,5.01 -38.91,14.25zm136.69 -14.25l0 0c3.68,7.37 7.72,14.53 11.96,21.59 -1.37,14.91 -7.92,28.5 -14.42,41.73 9.65,1.47 19.3,3.17 28.92,4.95 8.18,-14.12 15.93,-29.08 18.47,-45.38 -7.98,-15.93 -28.04,-22.51 -44.93,-22.89zm-158.68 218.14l0 0c8.33,34.33 17.78,68.82 33.37,100.65 4.12,-0.64 3.84,-5.44 4.67,-8.44 4.58,-28.72 5.97,-57.77 9.45,-86.63 8.21,11.66 16.1,23.55 23.72,35.58 2.24,-1.24 4.45,-2.71 5.18,-5.33 5.11,-10.84 8.61,-22.47 14.99,-32.71 5.43,10.92 10.36,22.1 16.07,32.89 1.15,0 3.48,-0.03 4.65,-0.05 5.82,-10.82 10.52,-22.22 16.36,-33.04 7.62,12.34 10.26,27.27 19.15,38.88 8.28,-11.99 16,-24.36 24.48,-36.22 3.5,29.74 4.88,59.74 9.83,89.3 0.48,2.64 1.78,4.88 3.88,6.7 15.75,-32.15 25.37,-66.89 33.78,-101.58 -14.91,-8.71 -30.58,-16.08 -46.96,-21.59 -27.48,-9.45 -56.91,-10.24 -85.66,-8.38 -30.88,2.82 -60.4,14.32 -86.96,29.97zm143.39 279.59l0 0c-4.44,-10.08 -8.76,-20.22 -13.44,-30.17 -7.11,8.58 -13.38,17.78 -20.16,26.59 -6.83,-8.79 -13.08,-18.01 -20.14,-26.59 -4.7,9.95 -9.07,20.09 -13.61,30.12 -12.5,-16.53 -24.76,-33.98 -41.81,-46.2 3.23,24.77 9.55,49.02 14.89,73.37 19.65,-5.94 40.02,-9.9 60.59,-10.31 20.63,0.39 41.05,4.37 60.75,10.31 5.31,-24.33 11.79,-48.53 14.89,-73.27 -17.2,12.04 -29.34,29.69 -41.96,46.15z"/>
  </g>
 </g>
</svg>
