<?xml version="1.0" encoding="UTF-8"?>
<!DOCTYPE svg PUBLIC "-//W3C//DTD SVG 1.1//EN" "http://www.w3.org/Graphics/SVG/1.1/DTD/svg11.dtd">
<!-- Creator: CorelDRAW -->
<svg xmlns="http://www.w3.org/2000/svg" xml:space="preserve" width="2000px" height="1600px" version="1.1" style="shape-rendering:geometricPrecision; text-rendering:geometricPrecision; image-rendering:optimizeQuality; fill-rule:evenodd; clip-rule:evenodd"
viewBox="0 0 2000 1600"
 xmlns:xlink="http://www.w3.org/1999/xlink">
 <defs>
  <style type="text/css">
   <![CDATA[
    .fil3 {fill:#005DAB;fill-rule:nonzero}
    .fil0 {fill:#040204;fill-rule:nonzero}
    .fil1 {fill:#FEFEFE;fill-rule:nonzero}
    .fil2 {fill:#FFD41D;fill-rule:nonzero}
   ]]>
  </style>
 </defs>
 <g id="Capa_x0020_1">
  <metadata id="CorelCorpID_0Corel-Layer"/>
  <g id="Morehead_x0020_State_x0020_Eagles.cdr">
   <path class="fil0" d="M507.68 413.33l39.77 0c22.02,1.62 45.18,4.18 64,16.8 -0.02,-4.95 -0.02,-9.9 -0.02,-14.87 23.45,-1.11 46.95,-0.21 70.44,-0.52 23.5,-0.89 47.03,-0.26 70.53,-0.47 23.11,0.19 47.62,2.42 67.16,15.94 -0.09,-5.62 -0.06,-11.26 0.19,-16.88l478.31 0c3.37,1.09 6.91,1.57 10.47,1.49 44.75,-0.32 89.47,0.65 134.23,0.53 0.14,12.19 -0.04,24.37 0.73,36.54 3.94,-11.98 7.79,-24.02 11.42,-36.1 45.19,0.27 90.39,0.65 135.55,1.56 6.17,14.37 9.87,30.16 15.18,45.03 1.56,0 4.7,0 6.27,0 0,-14.93 -0.02,-29.85 0,-44.76 29.67,-0.15 59.33,0.97 89.02,1.03 27.68,1.33 55.89,-1.26 83.05,5.41 19.22,4.63 37.81,16.21 46.69,34.4 7.43,14.93 7.01,32.05 6.97,48.32 -0.04,16.13 0,32.27 -0.02,48.4 6.84,-3.37 13.75,-6.59 20.63,-9.92 -1.96,28.17 -3.09,58.04 -18.1,82.89 22.25,-9.84 43.91,-21.08 64.71,-33.73 36.76,-22 65.87,-54.02 95.14,-84.76l0 6.15 -0.46 -3.03c-13.86,48.55 -35.16,95.22 -63.98,136.76 -16.61,23.66 -36.05,45.55 -58.95,63.34 -17.37,13.81 -37.24,23.94 -56.51,34.78 -20.31,10.97 -40.9,21.67 -62.8,29.12 54.62,9.22 110.23,-5.33 159.56,-28.51 -21.66,23.2 -45.85,44.17 -72.33,61.71 -19.65,13.2 -41.79,22.08 -64.05,29.83 -14.46,4.95 -29.3,8.9 -44.42,11.18 20.27,24.88 40.7,49.62 61.01,74.46 -78.19,-10.84 -156.31,-22.42 -234.44,-33.62 10.74,32.68 21.79,65.31 35.28,96.99 3.77,8.76 7.84,17.5 13.94,24.93 -46.27,-31.92 -98.33,-56.59 -153.81,-67.02 0.04,10.8 0.25,21.6 -0.21,32.38 -0.19,2.05 0.15,4.01 1.03,5.92 6.63,16.25 6.8,35.71 -1.43,51.43 -7.73,14.57 -24.06,22.3 -39.96,23.62 -24.96,2.02 -49.87,-3.24 -73.77,-9.91 -11.97,-4.51 -24.94,-4.26 -37.45,-6.04 -1.35,5.99 -2.5,12.56 -7.24,16.9 -5.96,6.17 -15.96,5.89 -23.07,1.98 -9.69,-4.95 -15.92,-14.48 -20.03,-24.25 -37.83,-4.42 -75.74,-8.09 -113.72,-10.66 4.78,19.24 13.47,37.14 21.94,54.95 -20.89,-6.15 -36.22,-22.59 -51.44,-37.22 -6.04,13.39 -5.51,28.65 -1.45,42.51 3.94,14.98 10.7,28.98 15.2,43.76 -18.15,-6.57 -33.24,-19.3 -46.82,-32.67 -13.79,-14.44 -27.5,-31.2 -29.77,-51.79 -7.74,31.12 0.53,63.08 7.98,93.41 3.98,15.18 8.06,30.32 11.56,45.62l-2.3 0c-0.08,-0.9 -0.23,-2.69 -0.31,-3.58 -2.68,-1.91 -5.26,-3.95 -7.46,-6.37 -14.41,-15.8 -28.01,-32.55 -38.39,-51.33 -12.09,-22.59 -18.59,-47.73 -22.11,-72.99 -6.06,23.81 -12.42,47.87 -23.6,69.87 -13.28,23.37 -30.63,44.11 -48.11,64.4l-0.75 0c7.16,-32.44 18.14,-64.14 21.62,-97.32 1.37,-13.64 0.73,-27.43 -2.04,-40.85 -3.69,24.17 -20.89,43.27 -38.15,59.35 -11.5,10.13 -23.96,19.87 -38.67,24.86 5.47,-18.27 14.54,-35.47 17.45,-54.44 1.58,-10.61 0.46,-21.51 -3.45,-31.51 -15.84,14.04 -30.7,30.99 -51.75,37.09 8.46,-17.91 17.18,-35.89 21.96,-55.22 -36.62,2.48 -73.23,5.47 -109.65,10.11 -4.31,11.09 -11.78,21.89 -23.18,26.4 -6.71,2.88 -15.19,2.02 -20.4,-3.37 -4.69,-4.38 -5.76,-10.97 -7.19,-16.89 -51.71,7.31 -103.18,16.24 -154.3,26.82 0.15,-18.14 -0.57,-36.31 0.5,-54.42 1.88,-1.28 3.77,-2.54 5.65,-3.77 -0.11,-18.8 0.23,-37.62 -0.19,-56.4 -2.02,-0.73 -4.02,-1.41 -6.02,-2.12 0,-2.63 0,-5.26 0,-7.87 -54.07,11.03 -104.99,34.96 -150.15,66.37 7.89,-10.25 12.65,-22.38 17.66,-34.17 11.54,-28.8 21.73,-58.14 31.31,-87.62 -78.17,11.29 -156.34,22.47 -234.49,33.82 20.26,-25.02 40.74,-49.9 61.25,-74.72 -30.7,-4.67 -60.11,-15.71 -88.07,-28.93 -35.13,-18.67 -65.62,-45.05 -93.01,-73.64 35.71,16.1 73.64,29.05 113.1,30.72 14.94,1.15 29.85,-0.28 44.71,-1.52 0.02,-0.72 0.02,-1.45 0.02,-2.15 -8.1,-1.53 -15.51,-5.26 -22.98,-8.54 -25.12,-11.58 -49.27,-25.2 -73.12,-39.18 -33.73,-20.53 -61.22,-49.98 -83.29,-82.45 -27.55,-40.82 -47.83,-86.35 -61.49,-133.58l0 -2.58c5.68,7.41 12.63,13.68 18.86,20.61 20.59,20.75 41.29,41.79 65.79,58 23.84,15.74 49.39,28.73 75.29,40.71 -13.67,-25.36 -18.59,-54.73 -18.23,-83.28 9.24,4.52 18.46,9.05 27.81,13.3 -0.11,-22.65 0.25,-45.3 -0.19,-67.93 -2.63,-0.99 -5.25,-2 -7.86,-3.01 -0.08,-22.13 -0.02,-44.26 -0.04,-66.4 43.1,-0.3 86.17,-1.81 129.27,-1.88 2.96,7.94 5.87,15.9 8.92,23.79 3.68,-7.93 6.4,-16.25 9.77,-24.31 42.27,-0.82 84.53,-0.87 126.8,-1.98 0,6.04 0,12.1 -0.02,18.14 20.38,-15.53 46.59,-19.64 71.51,-21.38z"/>
   <path class="fil1" d="M494.49 435.81c21.45,-2.04 43.05,-1.85 64.5,0.15 13.56,1.6 27.58,3.93 39.37,11.24 8.52,5.39 14.76,14.86 14.52,25.16 -0.04,18.48 -0.02,36.94 -0.02,55.41 0.07,8.46 -2.21,17.3 -8.21,23.55 -9.89,10.99 -24.69,15.41 -38.63,18.62 -22.04,4.56 -44.59,6.19 -67.03,6.77 -15.9,-0.4 -32.95,-0.86 -46.89,-9.45 -9.05,-5.37 -14.08,-15.87 -14.01,-26.23 0.12,-21.03 -0.26,-42.06 0.22,-63.09 0.01,-10.3 4,-20.85 12.15,-27.46 12.34,-10.08 28.65,-12.86 44.03,-14.67zm216.35 574.61c-0.31,-3.03 -1.22,-6.72 1.71,-8.9 5.05,12.56 11.2,26.48 24.78,31.76 -2.05,12.64 -14.66,22.02 -27.43,19.22 7.32,-3.2 15.34,-6.23 19.87,-13.28 -10.89,-5.43 -17.27,-17.11 -18.93,-28.8zm575.6 -9.41c3.31,1.35 1.92,5.45 2.02,8.19 -1.55,11.83 -8.02,23.54 -18.86,29.18 4.71,6.78 12.25,10.65 20.04,12.8 -12.69,3.6 -25.81,-5.94 -27.6,-18.74 13.18,-5.41 19.77,-18.84 24.4,-31.43zm94.72 -57.69c6.19,-7.83 10.63,-16.79 14.23,-26.02 5.22,0.87 10.48,1.67 15.68,2.8 3.48,10.3 4.49,21.21 4.8,32.03 9.62,-5.5 15.56,-15.12 22.87,-23.02 0.61,10.95 0.18,21.94 0.29,32.91 -17.26,-1.08 -34.48,-2.69 -51.75,-3.54 0.11,-5.74 -0.38,-12.21 -6.12,-15.16zm-59.58 -17.3c11.81,-6.7 25.47,-8.32 38.76,-9.47 -1.35,15.28 0.14,33.68 -11.62,45.43 6.59,-1.22 13.09,-3.06 19,-6.3 20.26,10.28 44.87,10.44 63.65,24.23 8.95,6.17 12.73,17.41 13.37,27.84 0.5,9.6 -0.8,20.17 -7.54,27.56 -7.1,7.41 -17.87,9.53 -27.73,9.51 -12.82,0.34 -25.51,-2.08 -37.96,-4.84 -20.5,-4.44 -40.63,-11.16 -58.9,-21.58 -0.27,-10 -0.4,-19.98 -0.76,-29.98 18.28,1.81 36.53,3.98 54.76,6.3 0.4,5.76 -1.31,13.28 4.11,17.19 4.92,3.63 14.4,5.67 17.34,-1.41 2.59,-7.66 -3.83,-15.01 -10.86,-17.11 -17.6,-6.4 -36.68,-8.93 -53.2,-18.17 -5.07,-2.82 -9.24,-6.91 -12.25,-11.83 5.7,-11.69 8.31,-24.55 9.83,-37.37zm-163.03 -7.9c38.94,-0.29 77.83,0.76 116.77,0.51 3.98,11.54 7.37,23.35 9.29,35.43 -14.51,-0.71 -29.03,-1.14 -43.5,-2.23 -0.4,-3.32 0.53,-7.28 -2.23,-9.79 -5.28,-3.09 -11.68,-2.46 -17.53,-3.07 0.02,5.55 0.36,11.09 0.59,16.65 11.72,0.93 23.49,1.09 35.2,2.02 -0.01,6.63 -0.01,13.26 0,19.88 -11.73,-1.02 -23.5,-1.77 -35.25,-2.62 -0.06,6.28 -0.02,12.59 0.51,18.87 5.22,0.31 10.67,1.35 15.77,-0.26 4.8,-2.23 2.84,-8.46 3.34,-12.63 6.38,0.59 12.76,1.14 19.16,1.66 4.51,9.31 16.49,7.94 24.99,6.64 -6.12,11.3 -13.41,23.85 -26.48,27.89 -5.48,2.47 -11.45,0.82 -17.14,0.28 -27.43,-3.16 -54.97,-5.43 -82.5,-7.71 -0.53,-5.75 -0.61,-11.53 -0.45,-17.3 8.24,-1.84 6.07,-11.03 6.05,-17.23 -0.93,-11.72 0.16,-23.51 -0.64,-35.2 -0.31,-3.19 -3.7,-4.1 -5.91,-5.6 -0.04,-5.41 -0.02,-10.8 -0.04,-16.19zm-118.24 0.01c12.28,-0.07 24.55,-0.01 36.83,-0.03 0,5.02 0.02,10.05 -0.07,15.1 -2.9,1.64 -6.65,3.71 -6.12,7.68 0.71,14.57 0.5,29.18 0.38,43.77 5.83,-0.14 12.42,1.27 17.62,-2.14 2.97,-6.41 1.2,-13.8 0.97,-20.62 16.59,0.53 33.2,1.14 49.81,1.48 0.56,14.46 0.14,28.94 0.25,43.39 -42.51,-2.89 -85.12,-4.95 -127.75,-4.85 8.8,-28.1 17.01,-56.46 28.08,-83.78zm-308.63 0.4c26.51,0.38 52.99,-0.34 79.48,-0.43 8.63,22.32 17.03,44.74 26.15,66.85 1.17,3.95 4.9,5.64 8.4,7.07 0.02,5.73 0.02,11.49 -0.11,17.24 -23.66,1.69 -47.35,2.84 -70.91,5.62 0.19,-5.77 0.57,-11.53 0.61,-17.3 3.46,-1.67 7.29,-3.62 6.22,-8.28 -8.99,0.59 -17.96,1.41 -26.91,2.3 -3.7,4.67 2.76,7.22 6.5,7.51 -0.29,5.77 -0.67,11.54 -0.67,17.33 -6.42,0.67 -12.88,2.55 -19.35,1.9 -13.43,-3.84 -21.22,-16.53 -27.39,-28.11 6.93,0.76 14.78,2 21.01,-2.04 3.63,-2.09 3.98,-6.66 3.99,-10.4 -9.04,7.01 -20.72,-2.57 -22.49,-11.75 4.61,-16 10.32,-31.68 15.47,-47.51zm35.5 24.6l0 0c-2.93,9.46 -5.83,18.91 -8.82,28.36 5.85,-0.16 11.7,-0.56 17.51,-1.13 -2.96,-9.06 -5.57,-18.24 -8.69,-27.23zm-128.06 -24.67c12.8,0.25 25.6,0.06 38.4,0.11 -0.03,12.73 2.56,25.26 6.23,37.39 -12.61,0.54 -25.2,1.45 -37.79,2.23 -5.46,-12.46 -6.72,-26.28 -6.84,-39.73zm-84.22 -0.38c6.87,13.31 15.33,26.47 28.09,34.85 1.2,-11.39 1.62,-23.06 6.02,-33.82 5.12,-0.06 10.25,-0.06 15.37,-0.08 3.22,8.76 7.51,17.22 13.43,24.49 -0.3,7.43 -0.19,14.84 -0.21,22.27 11.6,-0.65 23.16,-1.77 34.76,-2.55 0.02,7.58 -0.02,15.16 0.04,22.74 -11.77,1.3 -23.56,2.4 -35.29,4.15 0.05,7.89 0.01,15.78 0.05,23.66 6.19,-1.47 14.13,-1.24 18.14,-7.1 1.77,-4.23 1.27,-8.96 1.54,-13.41 17.06,-2.04 34.13,-4.08 51.24,-5.81 -0.17,13.65 0.47,27.31 -0.4,40.93 -44.44,7.01 -89.03,13.51 -132.86,23.74 -0.1,-8.41 -0.08,-16.8 -0.02,-25.19 2.97,-2.61 6.65,-5.44 6.13,-9.92 0.04,-21.56 0.06,-43.11 -0.02,-64.67 0.46,-4.38 -3.21,-6.95 -5.94,-9.64 -0.51,-8.21 -0.15,-16.43 -0.07,-24.64zm321.23 4.82c15.13,-5.74 31.57,-6.48 47.58,-6.23 11.72,-0.19 23.49,0.25 35.11,2.09 4.61,9.24 8.17,18.97 11.41,28.78 -10.88,0.16 -21.73,0.02 -32.59,0.1 0.42,-3.89 1.14,-9.2 -3.18,-11.16 -5.79,-2.46 -13.36,-1.89 -17.72,3.01 -0.8,14.26 -0.82,28.61 -0.24,42.87 4.64,5.45 13.67,4.59 19.33,1.15 2.82,-3.4 1.45,-8.17 1.85,-12.21 -3.22,0.13 -6.4,0.32 -9.58,0.55 0,-5.7 0,-11.39 0,-17.09 14.85,0.33 29.69,-1.06 44.55,-0.28 4.4,14.04 8.86,28.07 12.8,42.26 -18.02,5.57 -36.97,6.88 -55.7,7.89 -16.63,0.65 -33.64,1.87 -49.94,-2.29 -8.74,-2.42 -18.95,-7.58 -19.6,-17.84 -0.46,-15.11 -0.36,-30.27 0.51,-45.36 0.88,-8.21 8.21,-13.58 15.41,-16.24zm-312.8 -22.54c6.76,-7.22 19.15,-7.69 25.11,0.8 -7.56,9.6 -8.84,22.04 -8.65,33.85 -4.25,-1.81 -3.94,-7.24 -4.53,-11.07 -0.84,-8.13 1.56,-16.07 5.41,-23.14 -4.99,-3.58 -11.76,-1.24 -17.34,-0.44zm847.51 0.17c5.66,-8.87 18.21,-8.13 25.12,-1.21 -5.88,-1.21 -11.94,-1.87 -17.81,-0.18 5.37,9.03 7.66,20.02 4.88,30.31 -0.19,2.44 -1.5,3.92 -3.92,4.44 0.53,-11.6 -0.48,-24.08 -8.27,-33.36zm-138.53 -22.22c11.75,-6.84 30.05,-6.35 37.35,6.61 -7.64,-2.42 -16.23,-7.41 -24.1,-2.86 -2.68,7.88 5.81,13.58 8,20.57 5.7,17.12 7.09,35.64 5.26,53.56 -1.12,10.17 -5.5,22.27 -16.91,24.34 8.74,-6.53 10.93,-17.86 10,-28.17 -2.14,-23.27 -5.81,-49.43 -24.86,-65.39 -4.1,-3.56 2.23,-7.29 5.26,-8.66zm-583.03 7.54c7.52,-12.61 25.29,-13.54 37.16,-6.94 3.26,1.47 9.85,5.42 5.5,9.26 -18.74,15.62 -22.15,41.3 -24.55,64.1 -1.33,10.45 1.26,21.58 9.11,29.01 -8.18,-2.08 -13.17,-9.66 -14.75,-17.53 -4.17,-18.85 -2.07,-38.68 2.94,-57.16 1.84,-8.49 10.24,-14.17 9.98,-23.33 -8.29,-4.9 -17.3,-0.1 -25.39,2.59zm662.82 -16.88c-3.95,-3.67 1.94,-8.11 3.43,-11.62 13.59,3.13 16.22,19.01 18.57,30.56 4.76,22.76 2.03,49.31 -15.53,66.19 8.5,-19.55 10.75,-41.87 6.27,-62.71 -1.77,-8.63 -6.29,-16.46 -12.74,-22.42zm-721.91 1.75c2.27,-5.84 6.93,-11.98 13.83,-11.82 2.13,2.4 3.47,5.41 5.16,8.13 -4.99,6.42 -11.29,12.19 -13.37,20.38 -6.46,21.94 -3.79,45.83 4.27,67.01 -11.89,-11.92 -17.36,-29.14 -16.8,-45.75 0.32,-12.88 2.01,-25.98 6.91,-37.95zm367.35 -57.48c0.38,-18.29 1.85,-36.53 1.36,-54.82 2,9.24 1.67,18.72 2.22,28.1 2.33,52.76 4.77,105.52 6.98,158.26 -1.76,12.29 -4.77,24.48 -8.23,36.4 -3.16,-15.77 -9.72,-31.46 -6.9,-47.77 2.14,-40.04 2.94,-80.13 4.57,-120.17zm102.25 -77.3c1.98,-2.78 5.14,-4.3 7.79,-6.34 0.27,7.89 1.03,18.15 -6.82,22.84 -9.03,4.72 -22.51,4.42 -28.66,-4.78 7.75,0.13 15.54,6.32 23.29,1.81 5.81,-2.14 3.56,-8.84 4.4,-13.53zm-208.27 -6.3c2.6,1.75 5.39,3.31 7.57,5.64 1.86,2.84 0.36,6.36 0.32,9.48 2.04,4.31 6.55,6.48 11.24,6.25 5.94,0.93 10.55,-4.19 16.49,-3.43 -5.46,9.01 -18.24,9.3 -27.01,5.66 -9.2,-3.79 -9.06,-15.28 -8.61,-23.6zm-334.13 -77.35c14.53,-0.08 29.16,2 43.09,6.19 8.61,2.93 18.43,7.04 21.94,16.21 3.09,9.88 -0.8,20.42 -6.88,28.3 -8.38,10.71 -19.71,19.74 -33.06,23.11 9.37,-8.82 19.41,-18.14 23.12,-30.9 3.6,-11.24 -2.57,-23.49 -11.79,-30.04 -10.53,-7.94 -23.77,-10.45 -36.42,-12.87zm420.1 -17.83c8.22,-3.47 16.49,-7.73 22.26,-14.76 12.4,13.22 30.65,18.3 47.68,22.55 13.94,3.73 28.74,3.75 42.19,9.29 10.11,3.85 19.37,9.91 29.98,12.4 6.8,1.7 13.87,0.65 20.59,-0.83 -7.22,8.72 -11.77,19.21 -17.9,28.68 11.1,3.83 21.46,-3.56 31.92,-6.15 -8.06,11.37 -14.72,23.62 -21.47,35.79 22.9,11.35 43.74,26.49 66.88,37.37 -10.23,3.41 -20.91,5.58 -30.69,10.25 11.34,18.84 22.86,39.88 20.04,62.67 -8.65,-3.43 -17.29,-7.7 -26.82,-7.64 2.65,7.46 6.04,15.5 3.93,23.52 -1.36,4.8 -5.58,8.02 -10.06,9.73 -10.44,4.12 -21.83,4.63 -32.55,7.83 -20.84,5.79 -41.2,13.95 -59.53,25.56 -9.25,5.87 -17.62,13.2 -24.02,22.16 2.27,-15.76 9.59,-31.09 22.27,-41.05 18.57,-15.05 42.73,-19.28 64.61,-27.3 9.7,-3.79 20.29,-8.89 24.63,-19 3.83,-10.25 2.65,-24.44 -7.77,-30.39 -17.16,-10.82 -37.93,-15.39 -58.1,-14.72 12.27,-6.38 25.53,-13.24 33.18,-25.22 7.7,-13.75 1.34,-30.72 9.15,-44.51 -19.91,16.15 -46.92,20.28 -66.16,37.56 -2.95,-7.39 -7.27,-14.29 -13.01,-19.83 -11.33,-11.24 -26.4,-17.81 -37.5,-29.31 -5.07,-5.32 -8.5,-11.89 -11.54,-18.5 -2.31,6.4 -5.62,12.48 -10.35,17.41 -11.21,12.57 -27.43,19.1 -38.97,31.29 -5.46,5.36 -9.39,12.04 -12.47,19 -19.66,-17.43 -46.98,-21.89 -67.41,-38.06 8.42,13.88 1.33,31.58 9.86,45.33 7.83,11.74 21.05,18.02 32.9,24.92 0.21,0.26 0.66,0.76 0.87,1.02 -3.04,-0.85 -6.15,-1.82 -9.35,-1.5 -14.23,1.07 -28.26,5.14 -40.95,11.68 -7.14,4 -15.28,9.06 -16.78,17.84 -2.33,7.93 0.04,17.19 6.65,22.37 10.82,8.81 24.78,11.98 37.67,16.59 18.02,6.11 36.78,13.06 50.21,27.16 9.03,9.45 14.08,21.98 16.1,34.74 -24.63,-25.9 -58.19,-42.02 -93.18,-48.17 -9.93,-2.27 -21.3,-2.7 -29.13,-10 -7.01,-8.38 -1.9,-19.72 0.95,-28.72 -9.5,0.19 -18.07,4.42 -26.74,7.75 -2.7,-22.8 8.74,-43.81 20.08,-62.67 -9.56,-4.49 -19.96,-6.65 -29.94,-10.02 22.4,-11.79 43.37,-26.11 66.07,-37.31 -6.44,-12.35 -13.18,-24.61 -21.45,-35.81 10.61,2.21 20.84,9.71 32.02,6.11 -6.13,-9.63 -10.8,-20.24 -18.07,-29.1 23.64,8.26 43.31,-11.28 65.5,-15.05 18.23,-2.67 36.63,-5.81 53.72,-12.95zm405.35 -25.3c5.22,-0.19 11.33,0 15.12,4.19 5.7,6.1 5.68,15.11 6.25,22.92 0.29,23.62 -0.23,47.25 -1.92,70.82 -5.85,0.55 -11.72,0.64 -17.57,0.55 3.07,-2.23 6.96,-3.79 8.94,-7.18 1.45,-4.08 1.33,-8.5 1.54,-12.76 0.15,-21.62 1.81,-43.43 -1.08,-64.92 -0.5,-6.63 -5.59,-11.08 -11.28,-13.62zm-780.95 13.83c6.41,-4.95 9.03,-12.88 12.41,-19.9 -0.2,8.97 0.46,17.94 0.48,26.93 -11.45,1.16 -22.89,2.44 -34.36,3.45 1.9,-1.98 3.83,-3.95 5.79,-5.87 5.56,0.4 11.37,-0.89 15.68,-4.61zm586.66 -24.57c6.57,-1.9 14.86,-0.17 18.5,6.06 3.85,6.68 3.96,14.64 4.36,22.13 0.19,23.05 -0.38,46.11 -1.98,69.1 -5.7,0.44 -11.43,0.58 -17.13,0.67 4.22,-3.14 10.01,-6.23 9.57,-12.36 0.8,-23.64 2.05,-47.39 -0.33,-70.97 -0.38,-7.3 -5.37,-13.94 -12.99,-14.63zm-388.09 1.94c4.11,-3.33 9.75,-2.66 14.7,-2.78 -4.21,1.93 -9.35,3.53 -10.87,8.46 -4.21,11.48 -2.31,24.02 -3.24,35.98 0.68,14.65 -0.12,29.33 1.27,43.94 0.6,5.2 6.21,7.37 9.68,10.38 -5.89,-0.17 -11.73,-0.45 -17.6,-0.72 -0.63,-11.54 -1.26,-23.09 -1.5,-34.65 0.17,-15.98 -1.78,-32.09 0.89,-47.96 0.92,-4.7 2.63,-9.7 6.67,-12.65zm323.5 -12.87c2.31,0.05 4.63,0.11 6.97,0.17 0.79,10.06 -2.28,21.41 3.53,30.4 5.64,5.64 14.36,5.71 21.84,5.75 6.31,-0.8 10.81,4.44 15.62,7.54 -15.96,-0.59 -31.92,-1.73 -47.88,-1.81 -0.42,-14.02 -0.31,-28.03 -0.08,-42.05zm-251.05 0.3c2.27,-0.15 4.54,-0.3 6.81,-0.46 0.64,13.83 0.05,27.7 0.36,41.53 -15.83,0.87 -31.66,1.67 -47.49,2 3.24,-2.42 6.36,-5.22 10.17,-6.74 9.22,-1.13 21.13,0.95 27.49,-7.49 4.63,-8.84 1.85,-19.3 2.66,-28.84zm761.38 -150.17c31.79,0 63.56,0 95.35,0 17.2,0.02 34.72,-0.34 51.5,4.04 12.23,3.14 24.21,10.17 30.18,21.69 6.32,12.1 4.64,26.25 4.87,39.41 -0.4,22.21 0.82,44.5 -0.65,66.67 -1.2,16.95 -17.23,27.83 -32.64,30.76 -19.34,3.35 -38.94,-0.25 -58.18,-2.59 -29.96,-3.85 -60.03,-6.97 -90.03,-10.57 0.11,-8.8 0.09,-17.62 0.02,-26.42 4.53,-1.28 9.35,-4.48 9.04,-9.83 0.02,-24.95 0.27,-49.92 -0.13,-74.87 0.57,-6.02 -4.13,-10.06 -9.33,-11.83 -0.02,-8.82 0,-17.64 0,-26.46zm82.87 35.14l0 0c-0.07,29.98 0.02,59.98 -0.04,89.96 6.33,0.46 12.84,1.68 19.11,-0.07 4.34,-1.32 6.9,-5.87 6.65,-10.29 0.02,-20.91 -0.08,-41.83 0.02,-62.74 0.11,-4.65 -0.46,-10.04 -4.57,-12.97 -6.06,-4.42 -14.1,-3.54 -21.17,-3.89zm-245.9 -35.54c34.78,-0.17 69.56,-0.02 104.34,-0.08 12.1,36.42 23.98,72.92 35.66,109.49 1.64,5.96 5.96,10.67 11.64,13.07 -0.08,8.7 -0.02,17.42 -0.06,26.13 -30.82,-3.03 -61.66,-5.79 -92.46,-8.84 0.17,-8.23 0.23,-16.49 -0.3,-24.72 5.75,-0.67 10.76,-5.36 7.56,-11.26 -11.81,-0.32 -23.58,-1.3 -35.35,-2.06 -2.5,6.57 3.52,10.75 9.16,12.06 -0.04,8.21 -0.04,16.42 -0.02,24.65 -26.97,-2.35 -53.98,-4.12 -80.95,-6.17 0.05,-7.95 -0.21,-15.89 0.23,-23.83 6.05,-2.36 8.55,-8.63 10.34,-14.36 10.25,-31.32 20.42,-62.63 30.21,-94.08zm36.13 74.59l0 0c7.72,0.72 15.49,1.03 23.26,1.09 -4.06,-13.6 -8.06,-27.24 -12.02,-40.88 -4.06,13.18 -7.35,26.57 -11.24,39.79zm-261.2 -75.2c58.55,1.22 117.14,0.21 175.72,0.53 0,14.94 0,29.85 0,44.77 -22.52,-0.37 -45.03,-0.67 -67.53,-1.53 -0.28,-4.51 0.88,-11.01 -4.17,-13.35 -6.68,-3.28 -14.44,-2.59 -21.64,-2.78 -0.02,7.27 -0.02,14.55 0,21.85 15.39,0.62 30.78,0.89 46.19,1.04 -0.17,8.61 0.14,17.2 0.57,25.79 -15.42,-0.72 -30.85,-1.14 -46.28,-1.56 -0.02,8.25 0.02,16.52 -0.04,24.76 7.01,0.65 14.42,1.38 21.12,-1.23 5.95,-3.05 4.25,-10.88 4.71,-16.35 22.51,0.37 45.03,1.53 67.54,2.48 0.13,16.04 -0.42,32.08 0.57,48.1 -58.7,-4.08 -117.5,-6.75 -176.28,-9.22 0.02,-7.34 -0.08,-14.65 0.11,-21.98 3.66,-1.45 7.89,-4.02 7.49,-8.6 -0.06,-20.4 0.23,-40.83 -0.14,-61.23 0.4,-4.96 -4.28,-7.3 -7.9,-9.34 -0.08,-7.39 -0.04,-14.76 -0.04,-22.15zm-211.43 0.06c29.68,0 59.36,0.02 89.03,0 0.02,7.16 0.04,14.34 -0.02,21.52 -2.84,1.58 -6.91,2.94 -7.41,6.65 -0.45,5.83 -0.09,11.69 -0.15,17.54 9.05,0.04 18.1,-0.09 27.14,0.13 -0.11,-5.8 0.25,-11.63 -0.19,-17.42 -0.66,-3.98 -4.74,-5.26 -7.85,-6.8 -0.13,-7.22 -0.09,-14.44 -0.03,-21.66 29.81,0.06 59.64,0.06 89.44,0.02 0.04,7.31 0.06,14.63 0,21.94 -4,1.81 -8.53,4.63 -8,9.75 0.33,19.81 0.54,39.62 0.44,59.43 -0.89,5.51 4.8,7.37 8.04,10.35 0.17,6.99 -0.06,13.96 0.04,20.95 -29.85,-0.76 -59.7,-1.51 -89.51,-2.46 -0.02,-7.03 -0.05,-14.08 0.02,-21.12 2.71,-1.68 6.5,-2.71 7.41,-6.18 0.48,-7.69 0.02,-15.4 0.17,-23.12 -9.04,0 -18.09,0 -27.14,0 0.1,7.16 -0.27,14.34 0.15,21.51 0.08,4.34 4.86,5.73 7.91,7.67 0.06,7.13 0.02,14.25 0.02,21.37 -29.83,-0.85 -59.66,-1.14 -89.51,-1.02 0,-7.13 -0.02,-14.25 0.02,-21.36 3.39,-1.88 8.38,-3.69 7.56,-8.59 0.08,-19.66 0.06,-39.33 0.02,-59.01 0.71,-4.78 -4.15,-6.87 -7.56,-8.74 -0.06,-7.12 -0.04,-14.23 -0.04,-21.35zm-192.86 0c58.58,0.02 117.15,0 175.7,0 0.02,13.48 0.02,26.97 0.02,40.47 -22.48,0 -44.93,0 -67.39,0 -0.57,-3.77 0.21,-8.26 -2.61,-11.31 -6.97,-4.19 -15.54,-3.26 -23.33,-3.49 -0.02,6.99 -0.02,14 0,20.99 15.39,-0.02 30.78,-0.8 46.19,-0.47 0,7.94 0,15.86 0,23.81 -15.57,0 -31.13,0 -46.67,0 0,7.77 0,15.56 0,23.33 7.41,-0.19 15.49,0.97 22.3,-2.63 4.9,-3.31 3.19,-10 4.02,-14.99 22.5,0 44.99,0 67.49,0 0,14.29 0,28.57 0,42.86 -58.74,0.21 -117.47,0.84 -176.19,1.89 0,-7.05 0,-14.12 0,-21.17 3.83,-2.09 8.67,-4.68 8.02,-9.88 0.15,-19.91 0.09,-39.81 0.02,-59.7 0.02,-4.42 -4.56,-6.57 -7.95,-8.19 0.56,-7.16 0.38,-14.36 0.38,-21.52zm-208.09 0.47c36.34,-0.13 72.7,0.29 109.05,-0.24 21.54,0.66 45.12,-0.67 64,11.58 12.09,7.46 14.42,25.5 5.67,36.34 -7.12,8.32 -18.28,11.01 -28.53,13.1 8.82,1.32 18.93,1.97 25.66,8.56 5.71,6.36 2.72,15.5 4.02,23.14 0.95,4.11 5.2,5.58 8.78,6.61 -0.14,7.18 -0.69,14.36 -0.59,21.56 -26.31,0.55 -52.67,1.96 -78.92,2.31 -6.57,-12.48 -2.17,-26.99 -4.8,-40.19 -4.17,-8.31 -15.65,-6.4 -23.37,-6.69 0.04,6.15 -0.28,12.32 0.13,18.48 0.08,4.11 4.48,5.58 7.41,7.39 0.1,7.43 0.04,14.85 0.06,22.28 -29.85,0.95 -59.67,2.57 -89.48,4.36 0.74,-7.71 0.32,-15.48 0.49,-23.22 3.98,-1.75 7.94,-4.8 7.89,-9.6 0.36,-21.42 0.09,-42.89 0.11,-64.34 0.36,-4.65 -4.21,-6.91 -7.62,-8.82 0.06,-7.52 0.04,-15.06 0.04,-22.61zm81.35 25.89l0 0c0.04,8.36 -0.72,16.72 -0.34,25.1 7.24,-0.85 14.95,0.27 21.77,-2.89 7.28,-3.24 8.5,-15.28 1.51,-19.43 -7.01,-3.68 -15.28,-2.95 -22.94,-2.78zm-390.15 -25.49c29.92,0.5 59.83,-0.38 89.73,-0.4 0.02,8.61 0.02,17.22 0.02,25.83 -4.19,2.48 -8.45,6.02 -7.94,11.47 -0.34,24.04 -0.08,48.09 -0.13,72.13 -0.86,5.16 3.84,7.96 7.63,10.17 -0.05,8.48 -0.07,16.98 0.02,25.45 -28.61,2.88 -57.2,5.81 -85.77,9.01 0.04,-9.12 -0.06,-18.25 0.06,-27.37 3.75,-2.52 7.81,-5.71 7.79,-10.72 0.59,-15.09 0.09,-30.21 0.25,-45.32 -11.18,28.55 -21.56,57.41 -31.97,86.23 -7.79,0.93 -15.56,1.89 -23.35,2.82 -11.41,-27.7 -21.62,-55.91 -33.14,-83.54 -0.15,16.21 -0.32,32.43 0.08,48.64 0.03,4.67 4.03,7.53 7.84,9.36 0.1,9.58 0.04,19.16 0.04,28.74 -24.13,3.16 -48.27,6.49 -72.36,10 0.02,-10.19 -0.04,-20.38 0.04,-30.57 3.54,-3.13 7.75,-6.71 7.56,-11.93 0.02,-29.75 0.09,-59.54 -0.04,-89.29 0.08,-4.67 -4.13,-7.43 -7.48,-9.81 -0.18,-10.12 0,-20.21 -0.12,-30.31 30.78,-1.16 61.64,-0.19 92.46,-0.49 7.81,21.26 15.69,42.51 23.67,63.71 8.88,-21.04 16.35,-42.68 25.11,-63.81zm191.9 28.44l0 0c-2.47,1.14 -4.53,3.53 -4.85,6.29 -0.9,21.58 -0.63,43.18 -0.61,64.76 -0.21,6.44 6.87,9.33 12.34,8.76 6.51,0.23 15.43,-2.72 15.43,-10.55 0.48,-21.62 0.57,-43.32 -0.04,-64.92 -3.94,-7.92 -15.29,-7.04 -22.27,-4.34z"/>
   <path class="fil2" d="M952.57 740.86c12.15,-15.72 35.68,-15.68 47.49,-31.89 12.09,16.52 36.45,16.25 48.26,33.03 8.94,14.34 6.69,32.15 11.64,47.79 1.56,4.92 4.97,10.25 10.55,10.9 14.56,1.71 29.3,0.51 43.87,2.21 7.83,0.68 15.49,4.89 19.87,11.44 3.03,5.05 -1.09,11.26 -6.12,12.9 -12.28,4.55 -25.46,6.04 -37.9,10.11 -17.14,5.18 -34.51,14.12 -43.98,29.98 -7.01,12.25 -11.32,25.78 -16.04,39.01 -11.49,33.91 -20.59,68.56 -30.27,103.01 -11.73,-41.54 -23.03,-83.29 -37.86,-123.86 -4.25,-11.81 -9.81,-23.77 -19.89,-31.74 -17.5,-14.7 -40.68,-18.66 -62.23,-23.96 -6.09,-1.52 -14.13,-3.64 -15.24,-10.97 0.75,-7.81 8.82,-12.32 15.43,-14.8 16.48,-3.68 33.6,-1.05 50.21,-3.52 5.37,-0.99 8.38,-6.37 9.94,-11.13 4.88,-15.92 2.52,-34.23 12.27,-48.51zm-378.57 119.06c8.06,-3.88 17.28,-4.24 26.02,-5.21 0,4.91 -0.04,9.8 -0.13,14.72 -9.62,-3.71 -20.54,-1.89 -29.7,2.21 11.12,-0.29 23.77,1.41 31.01,10.89 2.69,2.46 1.03,6.04 0.74,9.07 -0.62,3.83 -0.78,8.02 -3.75,10.95 -5.18,-5.5 -9.77,-12.24 -17.3,-14.72 -8.32,-3.54 -18.11,-1.6 -24.68,4.51 0.06,-12.85 6.8,-25.65 17.79,-32.42zm825.52 -6.79c9.15,1.08 19.03,1.2 27.17,6.03 10.49,7.18 16.78,19.91 16.49,32.61 -5.33,-5.2 -12.99,-7.9 -20.34,-6.13 -9.09,1.5 -15.77,8.36 -20.9,15.5 -1.23,-1.27 -2.45,-2.55 -3.63,-3.83 -0.48,-4.47 -1.15,-8.91 -2.23,-13.27 6.49,-11.83 20.76,-14.31 33.04,-14.11 -9.18,-3.78 -20.01,-6.1 -29.48,-1.99 -0.12,-4.93 -0.13,-9.88 -0.12,-14.81zm-685.31 -14.4c7.87,-5.09 17.58,-3.6 26.42,-3.02 13.77,1 25.87,9.55 34,20.31 6.4,13.07 5.41,28.34 4.3,42.46 -8.03,0.64 -6.26,-9.34 -6.82,-14.5 0.29,-6.23 -4.09,-11.08 -9.37,-13.67 1.41,9.84 -1.1,20.19 -7.54,27.84 -6.09,0.92 -12.3,0.23 -18.44,0.48 3.26,-5.96 8.14,-12.74 5.34,-19.83 -4.73,-8.34 -15.26,-10.13 -23.95,-11.18 -11.96,-1.16 -26.24,0.67 -33.86,11.07 -4.96,6.28 -4.73,14.61 -7.43,21.79 -2.71,-11.64 -0.21,-23.76 4.17,-34.65 4.7,-9.07 13.92,-15.2 23.85,-17.18 15.22,-2.88 30.87,-0.17 45.54,4.19 -1.79,-2.88 -3.11,-6.44 -6.38,-7.98 -9.13,-4.82 -19.72,-5.43 -29.83,-6.13zm510.06 16.58c7.52,-10.87 19.44,-19.4 32.82,-20.95 9.54,-1.46 19.86,-2.23 28.57,2.78 -10.4,0.73 -21.33,1.18 -30.67,6.33 -3.12,1.5 -4.36,4.91 -5.9,7.75 14.93,-4.48 30.93,-7.05 46.4,-3.9 11.58,2.45 22.26,11.08 25.01,22.91 3.1,9.83 4.74,20.82 1.01,30.7 -0.96,-8.89 -1.78,-18.76 -8.5,-25.42 -8.95,-9.38 -23.14,-9.74 -35.16,-8.39 -7.32,1.2 -15.75,3.2 -20.1,9.76 -4.13,7.56 1.75,15.25 5.41,21.71 -5.79,-0.04 -11.56,-0.06 -17.31,0.06 -7.14,-8.08 -11.16,-19.05 -9.11,-29.83 -11.9,4.63 -10.72,19.37 -7.18,29.28 -3.01,-0.02 -6,-0.02 -8.99,0 -1.52,-14.21 -2.02,-29.37 3.7,-42.79zm-603.22 -26.34c13.9,-19.45 42.7,-25.12 63.79,-14.8 8.02,5.26 15.52,11.3 23.35,16.82 -5.9,0.95 -10.67,4.69 -16.09,6.8 -7.6,-10.51 -20.86,-13.71 -32.96,-15.73 12.4,6.74 16.99,22.84 11.85,35.6 -2.57,6.04 -9.07,8.53 -14.57,11.16 2.13,-8.04 -4.08,-16.82 -12.4,-17.3 -11.47,-0.83 -22.48,4.79 -30.38,12.77 -1.39,-6.99 -2.5,-14.76 0.74,-21.41 3.91,-5.98 11.14,-9.32 18.17,-9.43 3.3,-0.4 7.32,0.74 9.77,-2.19 -6.91,-1.96 -14.13,-2.35 -21.27,-2.29zm705.87 -20.51c18.68,-3.35 40.11,2.97 51.44,18.86 -6.53,0.03 -13.12,0.26 -19.46,1.92 -0.21,0.59 -0.63,1.81 -0.84,2.4 7.67,0.15 16.11,-0.23 22.45,4.89 8.5,5.81 7.42,17.78 4.92,26.44 -7.94,-7.22 -18.08,-12.84 -29.12,-12.47 -8.39,0.09 -15.34,8.49 -13.87,16.76 -5.24,-2.88 -11.47,-5.43 -14.02,-11.26 -5.07,-12.51 -0.74,-28.44 11.35,-35.22 -12.21,1.56 -25.39,5.3 -32.78,15.91 -4.8,-3.17 -9.96,-5.76 -15.39,-7.62 11.45,-7.34 21.2,-18.57 35.32,-20.61zm-394.86 -230.8c45.18,-0.04 90.38,-0.1 135.58,0.02 5.07,17.25 10.23,34.45 15.37,51.67 -21.71,-5.56 -44.74,-4.21 -66.06,-11.43 -8.32,-2.64 -15.12,-9.2 -17.06,-17.84 -1.55,9.08 -8.73,15.9 -17.32,18.51 -20.84,7.01 -43.39,5.47 -64.49,11.35 4.7,-17.41 9.41,-34.83 13.98,-52.28zm-285.34 9.6c80.21,-4.71 160.52,-8.63 240.86,-9.66 0.08,19.52 0.02,39.03 0.04,58.53 -20.67,0.33 -41.31,1.57 -61.96,1.93 -0.35,-8.76 1.1,-17.75 -0.86,-26.35 -3.2,-4.28 -9.1,-3.69 -13.79,-4.32 -0.74,23.51 -0.61,47.03 -0.46,70.55 -0.32,5.43 5.7,7.03 9.39,9.18 0.25,7.57 -0.09,15.17 0.12,22.75 -35.6,2.51 -71.2,5.06 -106.73,8.51 0.02,-7.98 0.02,-15.94 -0.03,-23.9 4.4,-2.19 9.84,-5.18 9.54,-10.92 -0.15,-23.9 0.25,-47.81 0.57,-71.71 -5.2,0.93 -12.63,1.01 -14.57,7.06 -1.47,8.63 -0.52,17.45 -0.71,26.18 -20.53,1.69 -41.12,2.99 -61.62,5.22 -0.59,-21.01 -0.53,-42.06 0.21,-63.05zm226.19 0.53l0 0c-0.81,9.54 1.97,20 -2.66,28.84 -6.36,8.44 -18.27,6.36 -27.49,7.49 -3.81,1.52 -6.93,4.32 -10.17,6.74 15.83,-0.33 31.66,-1.13 47.49,-2 -0.31,-13.83 0.28,-27.7 -0.36,-41.53 -2.27,0.16 -4.54,0.31 -6.81,0.46zm-72.45 12.57l0 0c-4.04,2.95 -5.75,7.95 -6.67,12.65 -2.67,15.87 -0.72,31.98 -0.89,47.96 0.24,11.56 0.87,23.11 1.5,34.65 5.87,0.27 11.71,0.55 17.6,0.72 -3.47,-3.01 -9.08,-5.18 -9.68,-10.38 -1.39,-14.61 -0.59,-29.29 -1.27,-43.94 0.93,-11.96 -0.97,-24.5 3.24,-35.98 1.52,-4.93 6.66,-6.53 10.87,-8.46 -4.95,0.12 -10.59,-0.55 -14.7,2.78zm315.73 -22.72c80.36,1.35 160.71,4.76 240.9,10.09 0.8,20.98 0.64,41.98 0.32,62.96 -20.5,-2.29 -41.1,-3.64 -61.66,-5.26 -0.36,-8.82 0.73,-17.73 -0.76,-26.46 -2.28,-5.81 -9.18,-5.94 -14.38,-6.97 -0.13,23.87 0.65,47.73 0.36,71.62 -0.45,5.9 5.22,8.86 9.58,11.33 -0.13,7.91 -0.07,15.83 -0.09,23.76 -35.51,-3.24 -71.05,-6.37 -106.65,-8.35 0.11,-7.67 -0.25,-15.35 0.11,-23.01 3.81,-2.23 9.89,-3.86 9.39,-9.46 -0.09,-23.49 0.44,-46.99 -0.53,-70.46 -4.82,0.95 -12.67,-0.06 -14.17,6.09 -1.22,8.27 -0.15,16.71 -0.61,25.03 -20.59,-1.25 -41.22,-1.54 -61.81,-2.45 0,-19.49 0,-38.98 0,-58.46zm7.77 9.85l0 0c-0.23,14.02 -0.34,28.03 0.08,42.05 15.96,0.08 31.92,1.22 47.88,1.81 -4.81,-3.1 -9.31,-8.34 -15.62,-7.54 -7.48,-0.04 -16.2,-0.11 -21.84,-5.75 -5.81,-8.99 -2.74,-20.34 -3.53,-30.4 -2.34,-0.06 -4.66,-0.12 -6.97,-0.17zm64.59 10.93l0 0c7.62,0.69 12.61,7.33 12.99,14.63 2.38,23.58 1.13,47.33 0.33,70.97 0.44,6.13 -5.35,9.22 -9.57,12.36 5.7,-0.09 11.43,-0.23 17.13,-0.67 1.6,-22.99 2.17,-46.05 1.98,-69.1 -0.4,-7.49 -0.51,-15.45 -4.36,-22.13 -3.64,-6.23 -11.93,-7.96 -18.5,-6.06zm183.83 -9.83c69.79,4.84 139.49,10.92 208.99,18.71 0.33,17.79 -0.45,35.61 0.52,53.39 -26.71,-4.04 -53.51,-7.62 -80.33,-10.82 -0.34,-5.74 0.42,-13.09 -5.33,-16.52 -7.83,-4.38 -17.09,-4.51 -25.75,-5.62 0,8.5 0,16.99 0,25.49 18.4,2.1 36.72,4.69 55.12,6.84 0.23,10.02 0.06,20.02 0.11,30.02 -18.2,-2.78 -36.47,-5.36 -54.72,-7.85 -0.07,9.64 -0.06,19.28 -0.04,28.93 8.65,0.78 17.72,3.89 26.21,0.84 6.52,-3.5 3.64,-12.32 4.29,-18.3 26.86,4.07 53.69,8.36 80.46,13.08 -0.33,19.01 0.4,38.02 0.45,57.03 -69.27,-14.88 -139.22,-26.53 -209.48,-35.7 -0.02,-8.2 -0.04,-16.41 -0.02,-24.62 2.95,-1.51 6.86,-2.33 8.61,-5.45 1.31,-4 0.91,-8.29 0.95,-12.4 -1.1,-20.67 -0.1,-41.37 -0.65,-62.04 -0.17,-5.33 -5.33,-7.85 -9.35,-10.06 -0.08,-8.32 -0.04,-16.64 -0.04,-24.95zm10.46 20.57l0 0c5.69,2.54 10.78,6.99 11.28,13.62 2.89,21.49 1.23,43.3 1.08,64.92 -0.21,4.26 -0.09,8.68 -1.54,12.76 -1.98,3.39 -5.87,4.95 -8.94,7.18 5.85,0.09 11.72,0 17.57,-0.55 1.69,-23.57 2.21,-47.2 1.92,-70.82 -0.57,-7.81 -0.55,-16.82 -6.25,-22.92 -3.79,-4.19 -9.9,-4.38 -15.12,-4.19zm-883.98 -12.59c41.25,-5.56 83.83,-6.59 124.38,4.08 0.19,11.14 0.04,22.3 0.09,33.46 -27.18,2.16 -54.26,5.59 -81.43,7.68 -0.19,-5.14 0.16,-11.92 -5.18,-14.67 -7.96,-2.87 -17.54,-1.63 -24.61,3.03 -4.32,2.75 -5.94,10.23 -1.1,13.28 5.5,3.33 12.28,3.16 18.5,3.83 24.19,1.03 48.6,0.76 72.47,5.39 8.46,2.07 17.81,4.42 23.39,11.67 9.7,11.93 7.85,30.19 -1.01,42.06 -9.85,12.82 -25.05,19.79 -39.79,25.32 -25.69,9.06 -52.68,13.69 -79.56,17.58 -27.03,3.52 -54.84,6.02 -81.71,0.07 0.11,-14.07 -0.04,-28.13 0.09,-42.19 28.31,-4.99 56.69,-9.52 85.12,-13.71 0.82,6.46 -2.26,16.99 5.76,19.83 8.97,2.36 20.23,0.74 26.49,-6.69 4.46,-4.51 2.88,-13.12 -2.8,-15.9 -8.44,-4.29 -18.28,-3.32 -27.45,-3.58 -18.42,0.74 -36.93,0.91 -55.27,-1.15 -11.03,-1.52 -23.43,-4.26 -30.4,-13.79 -6.73,-9.98 -6.29,-23.06 -3.51,-34.3 2.14,-9.05 8.88,-16.12 16.5,-21.01 17.94,-12.46 39.75,-17.28 61.03,-20.29zm103.03 26.42l0 0c-4.31,3.72 -10.12,5.01 -15.68,4.61 -1.96,1.92 -3.89,3.89 -5.79,5.87 11.47,-1.01 22.91,-2.29 34.36,-3.45 -0.02,-8.99 -0.68,-17.96 -0.48,-26.93 -3.38,7.02 -6,14.95 -12.41,19.9zm-44.5 29.3l0 0c12.65,2.42 25.89,4.93 36.42,12.87 9.22,6.55 15.39,18.8 11.79,30.04 -3.71,12.76 -13.75,22.08 -23.12,30.9 13.35,-3.37 24.68,-12.4 33.06,-23.11 6.08,-7.88 9.97,-18.42 6.88,-28.3 -3.51,-9.17 -13.33,-13.28 -21.94,-16.21 -13.93,-4.19 -28.56,-6.27 -43.09,-6.19zm417.11 99.22l0 0c-2.14,2 -4.12,7.75 0.68,7.96 4.17,-2.4 6.48,-6.99 9.83,-10.33 0.8,0.9 2.4,2.67 3.2,3.55 1.56,7.52 1.77,15.27 3.31,22.82 1.15,-10.69 3.74,-22.73 -0.99,-32.73 -6.59,-1.12 -11.92,4.33 -16.03,8.73zm32.53 -7.59l0 0c-2.71,10.27 -0.92,20.98 0.21,31.34 2.91,-8.71 -0.38,-19.51 6.13,-26.73 4.48,2.69 6.5,11.93 12.8,9.45 1.6,-5.46 -4.06,-9.58 -7.79,-12.57 -3.18,-1.92 -8.63,-6.06 -11.35,-1.49zm-9.49 69.32l0 0c-1.63,40.04 -2.43,80.13 -4.57,120.17 -2.82,16.31 3.74,32 6.9,47.77 3.46,-11.92 6.47,-24.11 8.23,-36.4 -2.21,-52.74 -4.65,-105.5 -6.98,-158.26 -0.55,-9.38 -0.22,-18.86 -2.22,-28.1 0.49,18.29 -0.98,36.53 -1.36,54.82zm-127.44 5.39l0 0c20.17,6.27 42.68,3.28 61.77,13.41 8.68,5.29 14.09,14.15 20.53,21.75 -0.95,-10.67 -3.03,-21.18 -4.57,-31.75 -22.53,-2.51 -44.78,-8.5 -67.6,-7.64 -3.54,0.69 -9.2,-0.49 -10.13,4.23zm181.01 4.17l0 0c-1.64,10.8 -3.38,21.58 -5,32.38 6.65,-7.75 11.99,-17.12 21.03,-22.4 19.24,-10.38 42.21,-6.61 62.29,-13.92 -1.94,-2.04 -4.38,-3.49 -7.26,-3.37 -23.98,-1.85 -47.41,4.72 -71.06,7.31z"/>
   <path class="fil3" d="M84.61 633.47c25.45,11.81 50.61,24.82 77.71,32.57 20.37,4.91 41.22,8.42 62.25,7.26 -9.81,-11.64 -15.48,-25.98 -20.51,-40.16 27.24,6.96 55.41,9.7 83.46,9.74 37.64,0.45 75.19,-3.36 112.39,-8.82 -5.15,19.08 -3.49,40.8 8.93,56.82 -1.85,0.23 -5.53,0.7 -7.37,0.93 -0.1,25.96 -0.92,51.9 -0.44,77.87 12.99,3.33 25.98,6.95 39.41,8.17 -9.41,14.89 -20.92,28.51 -34.78,39.43 39.29,-10.5 79.03,-19.49 119.14,-26.21 9.22,-1.43 18.5,-2.9 27.85,-2.38 1.79,12.97 -0.5,26.13 -4.33,38.53 31.28,-28.27 72.78,-42.99 114.35,-46.63 22.26,-2.23 44.68,-0.63 66.91,1.32 11.85,1.46 24.12,2.6 35.07,7.75 3.1,1.77 7.41,4.06 6.84,8.32 -0.96,11.39 -6.14,21.85 -9.97,32.46 -13.69,-6 -29.08,-7.14 -43.81,-5.33 -5.52,-4.8 -11.5,-8.98 -17.41,-13.24 -26.62,-23.26 -74.51,-15.43 -91.21,16.15 -3.01,5.07 -5.53,10.42 -7.83,15.85 -11.28,1.48 -23.37,1.41 -33.53,7.18 -15.56,10.11 -24.95,29.83 -21.12,48.3 -33.9,10.88 -66.23,25.91 -98.25,41.3 9.26,-28.29 18.67,-56.54 27.91,-84.84 -68.65,12.46 -138.04,20.36 -207.22,29.18 14.34,-19.86 29.45,-39.48 40.21,-61.62 -35.24,4.44 -71.3,-3.06 -103.77,-16.72 25.98,-2.44 51.86,-8.17 75.84,-18.67 11.93,-5.41 23.51,-12.02 33.09,-21.03 -9.77,0.92 -19.54,-0.63 -28.8,-3.73 -39.49,-12.78 -74.76,-35.14 -112,-52.97 -31.28,-16.78 -57.77,-41.18 -81.47,-67.35 -2.74,-2.96 -5.24,-6.14 -7.54,-9.43zm1518.25 1.27c63.2,8.52 128.57,13.81 191.14,-1.75 -5.29,14.04 -10.93,28.15 -20.36,40.02 14.46,1.07 28.99,-0.25 43.18,-3.18 34.31,-5.24 65.16,-22.08 96.25,-36.5 -12.86,17.24 -28.78,32.06 -44.88,46.25 -13.52,11.62 -28.11,22.08 -43.86,30.48 -33.28,16.04 -65,35.37 -99.57,48.68 -13.18,4.96 -27.03,9.76 -41.33,8.18 12.23,11.29 27.3,19.04 42.74,24.93 21.34,8 43.83,12.61 66.48,14.74 -32.72,13.3 -68.72,21.32 -104.1,16.69 10.69,22.09 25.91,41.54 40,61.5 -69.12,-8.38 -138.26,-17.08 -206.93,-28.68 9.07,28.23 18.8,56.22 27.87,84.45 -31.64,-15.2 -63.55,-30.05 -96.99,-40.85 3.29,-15.36 -1.3,-31.72 -12.19,-43.01 -10.16,-11.89 -27.01,-13.62 -41.62,-13.83 -6,-12.69 -12.31,-26.27 -24.16,-34.55 -19.08,-12.9 -45.4,-15.51 -66.02,-4.75 -8.99,6.42 -18.17,12.61 -26.55,19.79 -15.56,-1.42 -31.67,-0.45 -46,6.29 -3.67,-10.4 -8.61,-20.59 -9.77,-31.7 -0.34,-3.83 3.16,-6.38 6.17,-7.94 7.64,-3.9 16.23,-5.41 24.63,-6.8 43.53,-5.67 88.9,-6.28 130.86,8.29 22.63,7.64 43.67,19.75 61.64,35.52 -3.95,-12.4 -5.77,-25.5 -4.31,-38.48 17.01,-0.34 33.73,3.53 50.4,6.44 32.57,6 64.71,14.1 96.86,21.94 -11.66,-8.28 -21.3,-19.14 -29.35,-30.89 13.43,2.13 26.74,5.01 40.07,7.71 0.57,-34.05 0,-68.13 -0.34,-102.19 -16.89,-2.72 -33.77,-5.73 -50.72,-8.09 -2.16,-0.36 -4.59,-0.5 -5.87,-2.5 18.95,1.87 37.73,5.47 56.74,6.65 -0.24,-17.62 -0.04,-35.24 -0.11,-52.86z"/>
  </g>
 </g>
</svg>
