<?xml version="1.0" encoding="UTF-8"?>
<!DOCTYPE svg PUBLIC "-//W3C//DTD SVG 1.1//EN" "http://www.w3.org/Graphics/SVG/1.1/DTD/svg11.dtd">
<!-- Creator: CorelDRAW -->
<svg xmlns="http://www.w3.org/2000/svg" xml:space="preserve" width="2000px" height="1600px" version="1.1" style="shape-rendering:geometricPrecision; text-rendering:geometricPrecision; image-rendering:optimizeQuality; fill-rule:evenodd; clip-rule:evenodd"
viewBox="0 0 2000 1600"
 xmlns:xlink="http://www.w3.org/1999/xlink">
 <defs>
  <style type="text/css">
   <![CDATA[
    .fil1 {fill:#005495;fill-rule:nonzero}
    .fil2 {fill:#A29160;fill-rule:nonzero}
    .fil0 {fill:#FEFEFE;fill-rule:nonzero}
   ]]>
  </style>
 </defs>
 <g id="Capa_x0020_1">
  <metadata id="CorelCorpID_0Corel-Layer"/>
  <g id="Mount_x0020_St.cdr">
   <path class="fil0" d="M1138.86 607.3c19.32,-4.21 39.03,-0.02 58.44,1.39 19.36,1.32 40.09,4.62 55.14,17.96 14.13,12.01 19.18,31.27 19.09,49.19 -0.02,74.62 -0.02,149.25 -0.02,223.89 -0.16,13.23 -2.64,27.75 -12.52,37.4 -10.97,10.41 -27.08,12.18 -41.51,11.49 -17.96,-1.12 -35.82,-3.38 -53.74,-4.99 -17.49,-1.85 -36.26,-7.43 -47.52,-21.89 -9.55,-11.81 -11.85,-27.59 -11.65,-42.33 0.13,-68.56 0.04,-137.09 0.06,-205.65 0,-14.84 -1.14,-30.46 5.38,-44.26 5.19,-11.63 16.57,-19.57 28.85,-22.2zm-1138.86 354.53c0.71,-0.36 2.14,-1.08 2.85,-1.44 10.45,10.58 21.42,20.62 32.15,30.95 7.51,-3.4 14.99,-6.91 22.5,-10.29 0.02,41.4 0.02,82.79 0,124.21 -5.56,2.36 -11.08,4.74 -16.66,7.04 -0.22,57.7 -0.16,115.41 -0.04,173.13 8.94,10.71 20.12,19.24 29.32,29.71l-70.12 0 0 -353.31zm1765.46 -274.69c59.08,21.66 116.71,47.07 173.98,73.07 -0.02,30.32 0.04,60.62 -0.04,90.94 -10.06,-19.89 -17.9,-40.87 -28.04,-60.68 -8.49,-6.84 -19.87,-9.41 -29.52,-14.52 0.14,117.33 -0.02,234.67 0.08,352.01 2.16,18.34 11,35.16 14.62,53.24 -29.79,-12.15 -59.19,-25.29 -89.04,-37.28 4.07,-10.79 8.7,-21.4 13.22,-32.01 3.36,-7.14 2.6,-15.17 2.64,-22.8 -0.26,-112.62 0.21,-225.26 -0.22,-337.89 -9.51,-3.75 -18.88,-7.88 -28.67,-10.84 -9.53,19.39 -19.2,38.69 -28.89,57.99 -0.53,-37.08 -0.29,-74.15 -0.12,-111.23zm-1705.42 73.09c57.63,-25.49 115.64,-50.21 174.38,-73.03 0.28,30.6 0.71,61.25 -0.23,91.85 -10.67,-12.16 -19.62,-25.72 -29.19,-38.71 -9.76,3.16 -19.14,7.21 -28.65,10.96 -0.43,115.99 -0.04,232.01 -0.2,348.01 0.12,7.41 -0.62,14.9 0.56,22.26 4.12,9.38 10.59,17.51 15.25,26.63 -29.42,12.44 -58.66,25.37 -88.38,37.03 3.7,-15.31 11.44,-29.54 13.9,-45.12 0.29,-121.33 -0.12,-242.68 0.19,-364.03 -9.45,4.56 -19.57,7.86 -28.59,13.27 -10.91,19.93 -18.26,41.76 -29.04,61.84 -0.04,-30.32 -0.02,-60.64 0,-90.96zm1488.71 -88.04c18.35,5.32 36.73,10.53 54.92,16.37 17.3,43.74 35.24,87.23 52.75,130.89 12.36,29.54 23.34,59.67 36.59,88.81 0.04,-51.64 0.18,-103.27 -0.04,-154.91 -3.12,-14.47 -11.81,-27.12 -16.94,-40.94 18.41,6.35 36.53,13.48 54.99,19.62 -3.7,10.47 -11.23,19.04 -15.02,29.43 -1.2,8.04 -0.39,16.2 -0.53,24.29 0.06,80.79 -0.14,161.58 0.08,242.36 2.51,14.41 10.51,27.24 14.86,41.17 -15.76,-5.11 -31.17,-11.22 -46.79,-16.66 -6.14,-1.28 -7.24,-8.06 -9.34,-12.91 -18.92,-48.84 -38.14,-97.59 -57.16,-146.37 -10.42,-25.84 -19.6,-52.19 -30.94,-77.62 -1.39,53.1 -0.09,106.26 -0.66,159.39 -1.63,18 10.29,32.9 15.07,49.51 -17.92,-4.27 -35.35,-10.32 -53.1,-15.23 4.15,-8.45 8.92,-16.57 13.23,-24.96 3.4,-5.92 2.41,-12.99 2.57,-19.5 -0.25,-84.2 0.12,-168.39 -0.18,-252.56 -2.43,-14.07 -10.67,-26.39 -14.36,-40.18zm-1166.1 22.56c29.64,-8.24 58.94,-17.77 88.77,-25.28 -3.34,8.26 -7.61,16.1 -11.58,24.08 -4.16,7.68 -2.45,16.66 -2.73,25.01 0.04,85.53 0.12,171.07 -0.04,256.59 -0.7,12.36 10.42,20.56 15.65,30.74 -29.64,8.57 -59.16,17.51 -88.95,25.5 3.85,-13.63 15.09,-25.13 13.9,-39.95 -0.32,-37.45 0.21,-74.89 -0.28,-112.32 -19.45,6.05 -38.87,12.2 -58.19,18.59 -0.37,34.62 0.02,69.23 -0.21,103.87 0.27,5.88 -0.89,12.17 1.24,17.79 4.36,7.6 10.23,14.23 14.46,21.93 -29.79,9.59 -59.11,20.57 -88.59,31.03 3.54,-9.16 7.94,-17.92 11.87,-26.9 2.79,-6.08 1.89,-12.94 2.04,-19.42 -0.29,-91.6 0.18,-183.19 -0.25,-274.77 -6.39,-4.5 -12.44,-9.45 -18.38,-14.52 30.27,-11.26 60.88,-21.69 91.46,-32.07 -4.58,11.44 -15.25,21.07 -13.89,34.25 0.35,39.38 -0.22,78.75 0.31,118.11 19.48,-5.84 38.75,-12.44 58.13,-18.59 0.47,-37.91 -0.04,-75.84 0.28,-113.78 -0.04,-3.95 0.11,-7.96 -0.55,-11.87 -4.01,-6.61 -9.69,-11.99 -14.47,-18.02zm932.44 -71.02c31.58,3.89 62.69,10.82 93.96,16.54 -4.76,8.94 -10.26,17.45 -15.43,26.14 -2.16,3.38 -3.16,7.31 -2.99,11.3 0.08,75.4 0.04,150.82 0.02,226.21 -0.04,8.37 1.22,17.21 6.47,24.03 7.52,10.22 20.2,14.84 32.27,16.94 8.33,1.1 18.02,1.94 25.01,-3.77 6.25,-4.92 7.65,-13.39 7.57,-20.89 -0.1,-76.78 0.02,-153.56 -0.06,-230.34 -1.73,-14.48 -10.95,-26.78 -14.78,-40.75 23.66,4.57 46.99,10.74 70.31,16.9 -5.38,8.19 -11.3,15.99 -17.01,23.93 -2.26,2.93 -3.62,6.43 -3.38,10.18 0.03,80.1 0.03,160.2 0,240.3 -0.26,13.54 -1.79,29.24 -12.99,38.46 -11.89,9.37 -28.26,8.09 -42.33,6.07 -18.57,-3.7 -37.09,-7.49 -55.54,-11.62 -18.9,-4.36 -37.85,-14.46 -47.32,-32.07 -9.49,-16.96 -8.23,-37.04 -8.23,-55.77 0,-67.19 0,-134.39 0,-201.58 -0.34,-8.96 1.12,-18.16 -1.04,-26.94 -4.39,-11.28 -10.1,-22.01 -14.51,-33.27zm-805.84 35.39c59.01,-14.98 118.81,-26.9 178.94,-36.3 -0.13,32.19 0.36,64.38 -0.25,96.55 -10.46,-15.41 -19.95,-31.48 -29.52,-47.46 -23.38,3.62 -46.42,8.94 -69.76,12.74 -0.49,34.88 -0.14,69.78 -0.18,104.66 8.51,-2.22 17.79,-2.34 25.76,-6.23 7.94,-13.25 12.44,-28.34 20.91,-41.31 1.42,23.43 0.28,46.97 0.65,70.45 -0.21,15.8 0.51,31.6 -0.53,47.38 -7.82,-11.24 -14.28,-23.34 -21.95,-34.66 -8.37,1.49 -16.68,3.32 -24.98,5.13 0.32,34.88 -0.15,69.74 0.24,104.6 23.42,-4.38 46.85,-8.71 70.19,-13.5 9.48,-19.65 19.22,-39.2 29.09,-58.64 0.73,32.68 0.27,65.38 0.25,98.08 -58.73,8.82 -116.84,21.28 -174.62,34.94 4.13,-10.55 8.75,-20.89 13.07,-31.38 3.54,-8.1 2.12,-17.14 2.34,-25.71 -0.06,-83.5 -0.04,-167.01 -0.02,-250.51 -0.1,-2.68 -0.12,-5.6 -2.08,-7.67 -5.57,-7.29 -11.97,-13.89 -17.55,-21.16zm475.76 -60.78c25.45,-0.18 50.9,0.9 76.36,1.1 -4.12,12.36 -16.17,21.83 -15.42,35.55 0.17,85.56 0.04,171.1 0.06,256.64 0.21,8 -0.75,16.1 0.68,24.02 3.93,7.56 9.81,13.93 13.84,21.46 -27.71,0.1 -55.42,-0.53 -83.11,-1.18 5.54,-9.61 16.04,-17.83 14.78,-29.99 -0.18,-60.41 -0.04,-120.84 -0.08,-181.28 -0.39,-20.72 0.85,-41.51 -0.71,-62.2 -1.72,4.32 -2.98,8.8 -3.95,13.34 -18.33,86.92 -37.71,173.64 -55.82,260.62 -7.2,0.49 -14.39,0.77 -21.6,0.92 -20.87,-91.95 -40.62,-184.19 -62.04,-276 0.04,84.85 -0.06,169.69 0.04,254.54 1.75,9.5 10.63,15.86 15.4,24.02 -17.27,1.1 -34.48,3.1 -51.78,3.42 4.03,-7.39 9.34,-14.01 13.25,-21.48 1.43,-7.25 0.53,-14.72 0.71,-22.07 -0.02,-86.9 -0.06,-173.8 0.03,-260.7 -0.09,-3.1 -0.17,-6.38 -2.06,-8.96 -5.05,-7.94 -11.02,-15.27 -15.96,-23.26 31.58,-2.87 63.24,-5.15 94.92,-6.84 12.7,65.99 25.35,132 37.46,198.12 15.72,-66.42 29.55,-133.31 45,-199.79zm-662.51 52.05c231.89,-115.33 463.64,-230.92 695.56,-346.18 80.81,40.31 161.34,81.2 242.13,121.57 30.44,15.76 61.41,30.46 91.67,46.49 -65.85,-28.75 -131.07,-59.07 -196.67,-88.41 -43.98,-19.87 -87.96,-39.77 -131.94,-59.62 -4.13,-2.91 -8.37,0.86 -12.18,2.44 -24.02,12.57 -48.48,24.36 -72.3,37.31 73.73,32.62 148.19,63.67 222,96.12 -25.1,-5.92 -49.54,-14.31 -74.38,-21.17 -62.45,-18.31 -124.9,-36.63 -187.36,-54.92 -4.03,-1.79 -7.8,0.92 -11.26,2.65 -33.23,18.14 -66.91,35.45 -99.96,53.87 36.78,16.62 73.73,32.83 110.34,49.81 -50.55,-9.73 -100.77,-21.28 -151.24,-31.5 -2.04,-0.33 -3.93,0.02 -5.72,1.08 -106.06,54.16 -212.23,108.18 -318.33,162.28 -8.06,4.39 -17.1,6.29 -25.82,8.94 -23.88,7.02 -47.62,14.51 -71.28,22.29 -4.95,1.61 -9.94,3.24 -15.07,4.11 3.54,-2.99 7.68,-5.11 11.81,-7.16zm855.15 -4.12l0 0c-8.53,0.74 -13.78,9.05 -12.97,17.13 -0.12,72 0.1,144.01 -0.1,216.01 0.16,6.05 -0.53,12.56 2.38,18.12 3.24,5.93 10.06,8.57 16.33,9.92 7.59,1.4 16.31,1.97 22.95,-2.73 4.64,-3.42 5.19,-9.67 5.27,-14.99 0,-71.3 -0.1,-142.61 0.06,-213.91 -0.35,-7.39 1.06,-16.17 -4.46,-22.05 -7.65,-7.37 -19.34,-8.84 -29.46,-7.5z"/>
   <path class="fil1" d="M1017.91 284.86l3.47 0c70.85,37.63 142.44,73.96 213.59,111.07 157.9,81.9 315.88,163.56 473.72,245.56 7.19,-8.17 14.6,-16.17 21.74,-24.37 92.36,30.72 181.73,69.69 269.55,111.51 -0.11,77.46 0.38,154.93 -0.7,232.37 -19.3,-7.88 -37.71,-17.74 -57.05,-25.52 -0.55,14.3 -0.32,28.59 -0.22,42.9 -0.08,40.89 -0.1,81.78 0.02,122.66 5.35,2.34 10.95,4.28 15.96,7.43 2.06,2.45 0.9,6.07 1.34,9.02 -0.24,54.94 0.09,109.85 -0.16,164.79 -56.03,-25.11 -111.74,-51.01 -168.81,-73.71 -14.87,-6.05 -29.87,-11.67 -44.63,-17.94 -0.09,-13.42 0.93,-26.88 -0.23,-40.25 0.14,-4.54 -4.93,-5.32 -8,-7.05 -78.43,-32.17 -159.61,-57.31 -241.85,-77.68 -191.13,-46.99 -389,-66.03 -585.59,-57.54 -210.13,9.23 -418.97,50.84 -615.96,124.76 -13.4,4.96 -26.8,9.97 -40.07,15.25 -0.04,15.55 -0.13,31.09 -0.02,46.64 -47.1,18.96 -94.36,37.63 -140.54,58.81 -24.27,10.48 -47.97,22.37 -72.67,31.86 -0.12,-57.72 -0.18,-115.43 0.04,-173.13 5.58,-2.3 11.1,-4.68 16.66,-7.04 0.02,-41.42 0.02,-82.81 0,-124.21 0.04,-15.19 0.31,-30.36 -0.26,-45.53 -18.39,7.7 -36.37,16.33 -54.39,24.87 -0.71,0.36 -2.14,1.08 -2.85,1.44l0 -233.09c87.23,-42.8 177.35,-79.37 268.48,-112.95 7.9,7.74 16.15,15.15 24.35,22.56 224.4,-109.48 449.03,-218.47 673.47,-327.83 17.21,-8.55 34.82,-16.31 51.61,-25.66zm-695.41 365.53l0 0c-4.13,2.05 -8.27,4.17 -11.81,7.16 5.13,-0.87 10.12,-2.5 15.07,-4.11 23.66,-7.78 47.4,-15.27 71.28,-22.29 8.72,-2.65 17.76,-4.55 25.82,-8.94 106.1,-54.1 212.27,-108.12 318.33,-162.28 1.79,-1.06 3.68,-1.41 5.72,-1.08 50.47,10.22 100.69,21.77 151.24,31.5 -36.61,-16.98 -73.56,-33.19 -110.34,-49.81 33.05,-18.42 66.73,-35.73 99.96,-53.87 3.46,-1.73 7.23,-4.44 11.26,-2.65 62.46,18.29 124.91,36.61 187.36,54.92 24.84,6.86 49.28,15.25 74.38,21.17 -73.81,-32.45 -148.27,-63.5 -222,-96.12 23.82,-12.95 48.28,-24.74 72.3,-37.31 3.81,-1.58 8.05,-5.35 12.18,-2.44 43.98,19.85 87.96,39.75 131.94,59.62 65.6,29.34 130.82,59.66 196.67,88.41 -30.26,-16.03 -61.23,-30.73 -91.67,-46.49 -80.79,-40.37 -161.32,-81.26 -242.13,-121.57 -231.92,115.26 -463.67,230.85 -695.56,346.18zm705.05 -270.13l0 0c62.4,30.9 124.91,61.67 187.44,92.33 21.3,11.06 43.55,20.34 64.22,32.56 -20.77,-3.32 -40.72,-10.36 -61.19,-15.13 -99.91,-26.39 -199.88,-52.59 -299.77,-79.08 -3.81,-1.18 -7.96,-1.45 -11.44,0.79 -19.41,10.41 -39.06,20.38 -58.26,31.18 29.85,15.53 60.33,29.91 90.14,45.54 19.57,10.18 39.73,19.27 58.99,30.04 -73.57,-8.25 -147.09,-16.74 -220.66,-25.09 -6.82,-0.55 -13.72,-2.52 -20.56,-1.48 -7.09,2.48 -13.34,6.8 -20,10.2 -41.7,22.03 -83.33,44.22 -125.03,66.27 -9.35,5.15 -19.16,9.51 -27.9,15.74 14.78,-1.52 29.24,-5.23 43.88,-7.67 210.51,-37.86 426.87,-43.39 639.05,-16.33 94.01,12.31 187.25,30.6 278.95,54.64 32.38,8.29 64,19.23 96.09,28.45 -9.84,-6.31 -20.77,-10.57 -31.05,-16 -175.72,-86.33 -351.52,-172.5 -527.24,-258.86 -7.39,-3.52 -14.49,-7.73 -22.31,-10.18 -12.02,5.77 -22.5,14.4 -33.35,22.08zm-47.87 212.22l0 0c-9.76,45.08 -19.98,90.06 -29.89,135.1 -2.98,12.36 -4.93,25 -8.98,37.09 -2.24,-7.49 -3.75,-15.16 -4.97,-22.86 -9.37,-49.27 -18.71,-98.57 -27.98,-147.86 -18.36,0.08 -36.65,1.93 -54.95,3.01 -18.81,1.63 -37.73,2.36 -56.44,4.91 6.39,9.93 13.68,19.26 20.34,29.01 4.27,5.95 2.54,13.66 2.89,20.48 -0.16,87.58 -0.06,175.13 -0.04,262.68 0.37,5.81 -3.36,10.53 -6.37,15.09 -4.91,6.97 -9.59,14.07 -13.81,21.48 24.94,-1.2 49.78,-3.72 74.69,-5.19 -4.81,-10.65 -14.05,-18.32 -19.55,-28.48 -1.16,-6.34 -0.51,-12.83 -0.59,-19.21 0.14,-59.8 -0.08,-119.6 0.1,-179.4 6.33,22.13 10.32,44.86 15.64,67.23 11.14,49.87 22.42,99.71 33.33,149.64 1,2.58 0.63,6.23 3.3,7.86 9.97,1.24 20.03,-0.25 30.05,-0.55 14.34,-67.05 28.85,-134.06 43.27,-201.09 1.34,-7.39 2.89,-14.76 5.56,-21.8 0.4,4.37 0.71,8.75 0.79,13.15 -0.04,57.05 -0.12,114.1 0.04,171.13 0.08,4.69 -0.41,9.59 -3.34,13.46 -5.52,8.11 -11.5,15.86 -16.37,24.37 35.27,0.86 70.59,2.1 105.88,1.35 -5.01,-8.92 -11.46,-16.86 -17.19,-25.29 -4.29,-5.8 -2.78,-13.38 -3.05,-20.08 0.18,-87.57 0.06,-175.14 0.06,-262.72 -0.43,-7.27 4.07,-13.29 7.62,-19.2 4.5,-6.92 8.51,-14.13 12.05,-21.6 -30.64,-1.81 -61.41,-2.04 -92.09,-1.71zm157.21 8.96l0 0c-10.75,2.34 -20.73,8.37 -27.41,17.16 -7.94,10.49 -10.79,23.95 -10.93,36.88 0.02,75.99 0.04,151.97 0,227.96 -0.02,16.49 4.37,33.82 16.14,45.94 13.91,14.51 34.56,19.34 53.92,21.01 19.08,1.38 38.05,4.6 57.21,4.44 13.95,-0.04 28.69,-4.03 38.51,-14.44 10.3,-10.75 13.19,-26.26 13.27,-40.66 -0.04,-75.3 0,-150.61 -0.02,-225.91 -0.12,-18.89 -6.23,-38.79 -20.87,-51.47 -14.46,-13.15 -34.31,-17.8 -53.28,-19.28 -22.1,-1.57 -44.53,-6.33 -66.54,-1.63zm-490.63 22.07l0 0c-49.66,9.04 -99.22,19.02 -148,31.97 6.94,9.4 15.19,17.75 22.35,26.96 1.9,2.05 2.04,4.88 2.14,7.53 0,86.94 -0.08,173.88 0.04,260.81 0.08,4.94 -1.24,9.77 -3.21,14.27 -5.5,12.97 -11.18,25.88 -16.27,39.01 63.16,-14.68 126.52,-29.07 190.8,-38.01 0.25,-43.92 0.53,-87.84 -0.16,-131.74 -13.34,26.94 -26.27,54.12 -39.26,81.24 -19.91,4.44 -40.01,8.02 -60.1,11.57 -0.02,-30.79 -0.19,-61.58 0.1,-92.36 5.33,-0.84 10.65,-1.79 15.94,-2.81 10.49,16.06 19.24,33.27 30.73,48.66 1.18,-17.35 0.3,-34.73 0.57,-52.1 -0.41,-37.79 0.81,-75.63 -0.63,-113.37 -12.12,20.28 -20.53,42.53 -31.46,63.46 -5.09,0.96 -10.16,2.02 -15.21,3.18 -0.11,-30.56 -0.21,-61.13 0.04,-91.67 17.04,-3.56 34.18,-6.49 51.25,-9.96 3.78,-0.42 9.34,-2.66 11.3,2.12 12.48,19.53 24.13,39.58 36.75,59.03 0.79,-41.8 0.12,-83.64 0.35,-125.47 -16.15,1.73 -32.07,4.91 -48.06,7.68zm658.67 -7.59l0 0c5.15,12.64 10.93,25.02 16.57,37.46 2.1,4.44 3.26,9.27 3.14,14.17 -0.17,78.76 0,157.52 -0.08,236.27 -0.17,17.82 3.62,36.71 15.61,50.52 11.91,14.29 29.83,21.79 47.63,25.73 16.67,3.59 33.39,7.05 50.13,10.51 16.81,2.79 36.5,4.34 50.49,-7.37 12.2,-10.42 14.6,-27.61 14.76,-42.76 0.04,-79.43 0.02,-158.85 0,-238.26 -0.44,-6.44 4.28,-11.28 7.64,-16.21 5.88,-7.7 11.69,-15.48 16.72,-23.78 -30.16,-7.66 -60.19,-16.03 -90.8,-21.65 5.18,15.09 12.63,29.24 18.05,44.21 2.38,13.13 0.44,26.63 1.03,39.9 0.02,65.2 -0.04,130.4 0.04,195.59 -0.18,5.42 -0.4,11.69 -4.72,15.6 -5.5,4.46 -13.13,3.91 -19.71,3.12 -11.2,-1.74 -23.25,-5.73 -29.93,-15.5 -4.87,-6.86 -4.68,-15.66 -4.79,-23.68 0.27,-74.66 -0.22,-149.35 0.23,-224.01 4.44,-14.25 15.21,-25.8 21.66,-39.26 -37.56,-8.45 -75.48,-15.66 -113.67,-20.6zm-932.67 75.39l0 0c4.69,7.09 10.55,13.22 16.07,19.63 4.15,4.18 3.01,10.41 3.26,15.74 -0.41,35.86 0.32,71.69 -0.39,107.55 -15.35,4.31 -30.28,10.02 -45.75,13.95 -0.63,-34.39 0.04,-68.76 -0.35,-103.15 0.06,-6.21 -0.61,-12.91 2.75,-18.47 5.99,-11.08 12.89,-21.65 18.47,-32.93 -16.49,4.93 -32.56,11.2 -48.89,16.64 -22.82,8.37 -46.12,15.45 -68.74,24.43 7.68,7.35 17.15,12.55 24.6,20.06 1.42,7.51 0.51,15.23 0.67,22.84 -0.02,80.08 -0.04,160.16 0,240.25 -0.23,9.52 1.49,19.71 -3.06,28.54 -5.59,12.22 -11.56,24.27 -16.55,36.77 36.71,-13.29 73.36,-26.81 110.5,-38.89 -5.37,-8.22 -11.5,-15.92 -16.92,-24.1 -3.54,-4.79 -2.69,-10.98 -2.85,-16.56 0.47,-33.86 -0.39,-67.74 0.45,-101.58 15.31,-4.62 30.4,-9.98 45.71,-14.58 0.61,32.6 -0.02,65.22 0.35,97.82 -0.06,6.35 0.46,13.03 -2.39,18.93 -5.74,12.59 -12.21,24.86 -17.3,37.75 36.77,-11.34 73.83,-21.66 110.76,-32.39 -4.99,-7.82 -10.3,-15.44 -15.64,-23.01 -2.44,-3.34 -4.19,-7.21 -3.93,-11.42 0.07,-84.85 0.09,-169.69 0,-254.54 0.27,-8.35 -1.4,-17.3 2.69,-25 5.78,-12.03 12.65,-23.56 17.33,-36.08 -37.14,9.96 -73.81,21.48 -110.85,31.8zm1166.27 -28.07l0 0c3.91,12.23 9.14,23.98 14.05,35.83 2.3,5.52 4.62,11.22 4.54,17.31 -0.04,80.81 -0.08,161.63 0,242.44 -0.28,7.9 1.34,16.41 -2.46,23.72 -5.13,10.26 -11.16,20.07 -15.76,30.6 24.06,7.11 48.01,14.74 72.32,21.06 -5.09,-14.42 -11.54,-28.31 -17.29,-42.46 -3.32,-7.84 -2.13,-16.51 -2.28,-24.78 0.51,-39.54 -0.79,-79.12 0.65,-118.64 8.5,18.08 14.71,37.12 22.38,55.52 18.57,47.87 37.51,95.58 55.97,143.49 1.65,4.13 3.28,9.1 8.29,10.06 20.71,7.24 41.09,15.51 62.04,22.11 -4.91,-14.6 -11.38,-28.57 -16.9,-42.92 -1.59,-3.99 -2.52,-8.25 -2.5,-12.57 0.04,-84.86 0.08,-169.75 -0.02,-254.63 -0.47,-6.86 3.38,-12.79 6.7,-18.45 4.31,-7.13 8.34,-14.42 12.31,-21.73 -25.2,-8.89 -50.1,-18.65 -75.45,-27.08 4.17,11.33 9.42,22.22 14.41,33.21 3.4,7.6 8,15.19 7.56,23.85 -0.19,39.48 0,78.94 -0.11,118.4 -27.2,-64.53 -52.36,-129.93 -79.32,-194.57 -23.13,-6.3 -45.82,-14.22 -69.13,-19.77zm-1463.3 83.6l0 0c-6.92,3.26 -14.23,5.86 -20.72,9.98 -1.23,6.14 -0.61,12.5 -0.7,18.75 0.17,34.69 0,69.39 0.09,104.1 10.54,-20.23 18.87,-41.51 28.62,-62.12 3.91,-7.73 6.23,-16.37 11.32,-23.43 5.22,-3.95 11.67,-5.73 17.58,-8.35 0.08,116.77 -0.04,233.54 0.06,350.29 0,4.54 -0.82,9.06 -2.32,13.36 -5.36,15.7 -11.51,31.15 -15.97,47.16 35.96,-15.13 72.16,-29.81 107.73,-45.8 -4.8,-8.63 -10.36,-16.79 -15.37,-25.31 -2.69,-4.13 -2.95,-9.14 -2.95,-13.88 0.3,-118.77 -0.14,-237.54 0.24,-356.28 6.62,-2.71 13.3,-5.3 20.04,-7.7 12.15,17.13 24.45,34.19 37.44,50.68 0.98,-40.11 0.45,-80.26 0.29,-120.37 -55.55,21.95 -110.73,44.83 -165.38,68.92zm1683.63 -68.94l0 0c-0.06,48.29 -0.86,96.63 0.39,144.9 13.62,-24.57 24.69,-50.51 38.62,-74.94 6.6,2.44 13.13,5.11 19.61,7.9 -0.37,108.4 -0.08,216.82 -0.14,325.22 -0.33,9.72 1.52,19.98 -2.57,29.16 -5.13,12.44 -10.87,24.64 -15.21,37.41 22.97,9.02 45.75,18.5 68.44,28.22 12.8,5.25 25.1,11.72 38.25,16.14 -2.99,-13.19 -7.71,-25.9 -11.52,-38.87 -2.61,-8.93 -6.68,-17.69 -6.74,-27.16 0.1,-113.37 -0.04,-226.74 0.08,-340.11 7.27,3.64 17.53,4.72 20.85,13.25 12.38,26.88 23.6,54.33 36.92,80.78 0.16,-41.15 0.4,-82.32 -0.15,-123.47 -61.39,-28.18 -123.41,-55.16 -186.83,-78.43z"/>
   <path class="fil1" d="M1177.73 652.57c7.66,-1.63 16.11,-0.43 22.85,3.62 5.29,3.18 4.56,10.12 4.86,15.43 -0.14,63.84 -0.02,127.67 -0.06,191.5 -0.26,10.75 0.71,21.56 -0.49,32.25 -0.69,5.5 -7.04,6.95 -11.67,6.91 -7.43,-0.17 -16.69,-0.94 -21.03,-7.92 -2.18,-6.79 -1.32,-14.05 -1.48,-21.06 0.12,-69.29 0.04,-138.56 0.04,-207.83 -0.23,-5.11 0.85,-11.95 6.98,-12.9z"/>
   <path class="fil2" d="M1758.86 677.9c63.42,23.27 125.44,50.25 186.83,78.43 0.55,41.15 0.31,82.32 0.15,123.47 -13.32,-26.45 -24.54,-53.9 -36.92,-80.78 -3.32,-8.53 -13.58,-9.61 -20.85,-13.25 -0.12,113.37 0.02,226.74 -0.08,340.11 0.06,9.47 4.13,18.23 6.74,27.16 3.81,12.97 8.53,25.68 11.52,38.87 -13.15,-4.42 -25.45,-10.89 -38.25,-16.14 -22.69,-9.72 -45.47,-19.2 -68.44,-28.22 4.34,-12.77 10.08,-24.97 15.21,-37.41 4.09,-9.18 2.24,-19.44 2.57,-29.16 0.06,-108.4 -0.23,-216.82 0.14,-325.22 -6.48,-2.79 -13.01,-5.46 -19.61,-7.9 -13.93,24.43 -25,50.37 -38.62,74.94 -1.25,-48.27 -0.45,-96.61 -0.39,-144.9zm-848.8 330.21c196.59,-8.49 394.46,10.55 585.59,57.54 82.24,20.37 163.42,45.51 241.85,77.68 3.07,1.73 8.14,2.51 8,7.05 1.16,13.37 0.14,26.83 0.23,40.25 14.76,6.27 29.76,11.89 44.63,17.94 57.07,22.7 112.78,48.6 168.81,73.71 -9.85,10.22 -19.28,20.81 -29.05,31.09 -67.68,-31.6 -135.16,-63.86 -204.86,-90.83 -0.22,-14.68 -0.34,-29.38 0.31,-44.05 -16.66,-7.71 -33.66,-14.57 -50.72,-21.27 -76.78,-29.61 -155.91,-53.02 -236.09,-71.49 -189.5,-43.49 -385.56,-57.99 -579.44,-43.68 -199.07,14.6 -395.66,60.95 -580.45,136.38 0.2,15.6 0.18,31.18 -0.45,46.77 -69.17,27.43 -137.09,57.87 -204.2,89.94l-4.1 0c-9.2,-10.47 -20.38,-19 -29.32,-29.71 24.7,-9.49 48.4,-21.38 72.67,-31.86 46.18,-21.18 93.44,-39.85 140.54,-58.81 -0.11,-15.55 -0.02,-31.09 0.02,-46.64 13.27,-5.28 26.67,-10.29 40.07,-15.25 196.99,-73.92 405.83,-115.53 615.96,-124.76zm1032.17 -72.63c19.34,7.78 37.75,17.64 57.05,25.52 -8.24,10.97 -17.59,21.03 -26.45,31.5 -10.24,-4.79 -20.36,-9.84 -30.82,-14.12 -0.1,-14.31 -0.33,-28.6 0.22,-42.9zm-1939.38 24.91c18.02,-8.54 36,-17.17 54.39,-24.87 0.57,15.17 0.3,30.34 0.26,45.53 -7.51,3.38 -14.99,6.89 -22.5,10.29 -10.73,-10.33 -21.7,-20.37 -32.15,-30.95zm1024.7 -580.13c10.85,-7.68 21.33,-16.31 33.35,-22.08 7.82,2.45 14.92,6.66 22.31,10.18 175.72,86.36 351.52,172.53 527.24,258.86 10.28,5.43 21.21,9.69 31.05,16 -32.09,-9.22 -63.71,-20.16 -96.09,-28.45 -91.7,-24.04 -184.94,-42.33 -278.95,-54.64 -212.18,-27.06 -428.54,-21.53 -639.05,16.33 -14.64,2.44 -29.1,6.15 -43.88,7.67 8.74,-6.23 18.55,-10.59 27.9,-15.74 41.7,-22.05 83.33,-44.24 125.03,-66.27 6.66,-3.4 12.91,-7.72 20,-10.2 6.84,-1.04 13.74,0.93 20.56,1.48 73.57,8.35 147.09,16.84 220.66,25.09 -19.26,-10.77 -39.42,-19.86 -58.99,-30.04 -29.81,-15.63 -60.29,-30.01 -90.14,-45.54 19.2,-10.8 38.85,-20.77 58.26,-31.18 3.48,-2.24 7.63,-1.97 11.44,-0.79 99.89,26.49 199.86,52.69 299.77,79.08 20.47,4.77 40.42,11.81 61.19,15.13 -20.67,-12.22 -42.92,-21.5 -64.22,-32.56 -62.53,-30.66 -125.04,-61.43 -187.44,-92.33zm-47.87 212.22c30.68,-0.33 61.45,-0.1 92.09,1.71 -3.54,7.47 -7.55,14.68 -12.05,21.6 -3.55,5.91 -8.05,11.93 -7.62,19.2 0,87.58 0.12,175.15 -0.06,262.72 0.27,6.7 -1.24,14.28 3.05,20.08 5.73,8.43 12.18,16.37 17.19,25.29 -35.29,0.75 -70.61,-0.49 -105.88,-1.35 4.87,-8.51 10.85,-16.26 16.37,-24.37 2.93,-3.87 3.42,-8.77 3.34,-13.46 -0.16,-57.03 -0.08,-114.08 -0.04,-171.13 -0.08,-4.4 -0.39,-8.78 -0.79,-13.15 -2.67,7.04 -4.22,14.41 -5.56,21.8 -14.42,67.03 -28.93,134.04 -43.27,201.09 -10.02,0.3 -20.08,1.79 -30.05,0.55 -2.67,-1.63 -2.3,-5.28 -3.3,-7.86 -10.91,-49.93 -22.19,-99.77 -33.33,-149.64 -5.32,-22.37 -9.31,-45.1 -15.64,-67.23 -0.18,59.8 0.04,119.6 -0.1,179.4 0.08,6.38 -0.57,12.87 0.59,19.21 5.5,10.16 14.74,17.83 19.55,28.48 -24.91,1.47 -49.75,3.99 -74.69,5.19 4.22,-7.41 8.9,-14.51 13.81,-21.48 3.01,-4.56 6.74,-9.28 6.37,-15.09 -0.02,-87.55 -0.12,-175.1 0.04,-262.68 -0.35,-6.82 1.38,-14.53 -2.89,-20.48 -6.66,-9.75 -13.95,-19.08 -20.34,-29.01 18.71,-2.55 37.63,-3.28 56.44,-4.91 18.3,-1.08 36.59,-2.93 54.95,-3.01 9.27,49.29 18.61,98.59 27.98,147.86 1.22,7.7 2.73,15.37 4.97,22.86 4.05,-12.09 6,-24.73 8.98,-37.09 9.91,-45.04 20.13,-90.02 29.89,-135.1zm5.33 5.86l0 0c-15.45,66.48 -29.28,133.37 -45,199.79 -12.11,-66.12 -24.76,-132.13 -37.46,-198.12 -31.68,1.69 -63.34,3.97 -94.92,6.84 4.94,7.99 10.91,15.32 15.96,23.26 1.89,2.58 1.97,5.86 2.06,8.96 -0.09,86.9 -0.05,173.8 -0.03,260.7 -0.18,7.35 0.72,14.82 -0.71,22.07 -3.91,7.47 -9.22,14.09 -13.25,21.48 17.3,-0.32 34.51,-2.32 51.78,-3.42 -4.77,-8.16 -13.65,-14.52 -15.4,-24.02 -0.1,-84.85 0,-169.69 -0.04,-254.54 21.42,91.81 41.17,184.05 62.04,276 7.21,-0.15 14.4,-0.43 21.6,-0.92 18.11,-86.98 37.49,-173.7 55.82,-260.62 0.97,-4.54 2.23,-9.02 3.95,-13.34 1.56,20.69 0.32,41.48 0.71,62.2 0.04,60.44 -0.1,120.87 0.08,181.28 1.26,12.16 -9.24,20.38 -14.78,29.99 27.69,0.65 55.4,1.28 83.11,1.18 -4.03,-7.53 -9.91,-13.9 -13.84,-21.46 -1.43,-7.92 -0.47,-16.02 -0.68,-24.02 -0.02,-85.54 0.11,-171.08 -0.06,-256.64 -0.75,-13.72 11.3,-23.19 15.42,-35.55 -25.46,-0.2 -50.91,-1.28 -76.36,-1.1zm151.88 3.1c22.01,-4.7 44.44,0.06 66.54,1.63 18.97,1.48 38.82,6.13 53.28,19.28 14.64,12.68 20.75,32.58 20.87,51.47 0.02,75.3 -0.02,150.61 0.02,225.91 -0.08,14.4 -2.97,29.91 -13.27,40.66 -9.82,10.41 -24.56,14.4 -38.51,14.44 -19.16,0.16 -38.13,-3.06 -57.21,-4.44 -19.36,-1.67 -40.01,-6.5 -53.92,-21.01 -11.77,-12.12 -16.16,-29.45 -16.14,-45.94 0.04,-75.99 0.02,-151.97 0,-227.96 0.14,-12.93 2.99,-26.39 10.93,-36.88 6.68,-8.79 16.66,-14.82 27.41,-17.16zm1.97 5.86l0 0c-12.28,2.63 -23.66,10.57 -28.85,22.2 -6.52,13.8 -5.38,29.42 -5.38,44.26 -0.02,68.56 0.07,137.09 -0.06,205.65 -0.2,14.74 2.1,30.52 11.65,42.33 11.26,14.46 30.03,20.04 47.52,21.89 17.92,1.61 35.78,3.87 53.74,4.99 14.43,0.69 30.54,-1.08 41.51,-11.49 9.88,-9.65 12.36,-24.17 12.52,-37.4 0,-74.64 0,-149.27 0.02,-223.89 0.09,-17.92 -4.96,-37.18 -19.09,-49.19 -15.05,-13.34 -35.78,-16.64 -55.14,-17.96 -19.41,-1.41 -39.12,-5.6 -58.44,-1.39zm-492.6 16.21c15.99,-2.77 31.91,-5.95 48.06,-7.68 -0.23,41.83 0.44,83.67 -0.35,125.47 -12.62,-19.45 -24.27,-39.5 -36.75,-59.03 -1.96,-4.78 -7.52,-2.54 -11.3,-2.12 -17.07,3.47 -34.21,6.4 -51.25,9.96 -0.25,30.54 -0.15,61.11 -0.04,91.67 5.05,-1.16 10.12,-2.22 15.21,-3.18 10.93,-20.93 19.34,-43.18 31.46,-63.46 1.44,37.74 0.22,75.58 0.63,113.37 -0.27,17.37 0.61,34.75 -0.57,52.1 -11.49,-15.39 -20.24,-32.6 -30.73,-48.66 -5.29,1.02 -10.61,1.97 -15.94,2.81 -0.29,30.78 -0.12,61.57 -0.1,92.36 20.09,-3.55 40.19,-7.13 60.1,-11.57 12.99,-27.12 25.92,-54.3 39.26,-81.24 0.69,43.9 0.41,87.82 0.16,131.74 -64.28,8.94 -127.64,23.33 -190.8,38.01 5.09,-13.13 10.77,-26.04 16.27,-39.01 1.97,-4.5 3.29,-9.33 3.21,-14.27 -0.12,-86.93 -0.04,-173.87 -0.04,-260.81 -0.1,-2.65 -0.24,-5.48 -2.14,-7.53 -7.16,-9.21 -15.41,-17.56 -22.35,-26.96 48.78,-12.95 98.34,-22.93 148,-31.97zm-137.01 35.61l0 0c5.58,7.27 11.98,13.87 17.55,21.16 1.96,2.07 1.98,4.99 2.08,7.67 -0.02,83.5 -0.04,167.01 0.02,250.51 -0.22,8.57 1.2,17.61 -2.34,25.71 -4.32,10.49 -8.94,20.83 -13.07,31.38 57.78,-13.66 115.89,-26.12 174.62,-34.94 0.02,-32.7 0.48,-65.4 -0.25,-98.08 -9.87,19.44 -19.61,38.99 -29.09,58.64 -23.34,4.79 -46.77,9.12 -70.19,13.5 -0.39,-34.86 0.08,-69.72 -0.24,-104.6 8.3,-1.81 16.61,-3.64 24.98,-5.13 7.67,11.32 14.13,23.42 21.95,34.66 1.04,-15.78 0.32,-31.58 0.53,-47.38 -0.37,-23.48 0.77,-47.02 -0.65,-70.45 -8.47,12.97 -12.97,28.06 -20.91,41.31 -7.97,3.89 -17.25,4.01 -25.76,6.23 0.04,-34.88 -0.31,-69.78 0.18,-104.66 23.34,-3.8 46.38,-9.12 69.76,-12.74 9.57,15.98 19.06,32.05 29.52,47.46 0.61,-32.17 0.12,-64.36 0.25,-96.55 -60.13,9.4 -119.93,21.32 -178.94,36.3zm795.68 -43.2c38.19,4.94 76.11,12.15 113.67,20.6 -6.45,13.46 -17.22,25.01 -21.66,39.26 -0.45,74.66 0.04,149.35 -0.23,224.01 0.11,8.02 -0.08,16.82 4.79,23.68 6.68,9.77 18.73,13.76 29.93,15.5 6.58,0.79 14.21,1.34 19.71,-3.12 4.32,-3.91 4.54,-10.18 4.72,-15.6 -0.08,-65.19 -0.02,-130.39 -0.04,-195.59 -0.59,-13.27 1.35,-26.77 -1.03,-39.9 -5.42,-14.97 -12.87,-29.12 -18.05,-44.21 30.61,5.62 60.64,13.99 90.8,21.65 -5.03,8.3 -10.84,16.08 -16.72,23.78 -3.36,4.93 -8.08,9.77 -7.64,16.21 0.02,79.41 0.04,158.83 0,238.26 -0.16,15.15 -2.56,32.34 -14.76,42.76 -13.99,11.71 -33.68,10.16 -50.49,7.37 -16.74,-3.46 -33.46,-6.92 -50.13,-10.51 -17.8,-3.94 -35.72,-11.44 -47.63,-25.73 -11.99,-13.81 -15.78,-32.7 -15.61,-50.52 0.08,-78.75 -0.09,-157.51 0.08,-236.27 0.12,-4.9 -1.04,-9.73 -3.14,-14.17 -5.64,-12.44 -11.42,-24.82 -16.57,-37.46zm10.16 7.81l0 0c4.41,11.26 10.12,21.99 14.51,33.27 2.16,8.78 0.7,17.98 1.04,26.94 0,67.19 0,134.39 0,201.58 0,18.73 -1.26,38.81 8.23,55.77 9.47,17.61 28.42,27.71 47.32,32.07 18.45,4.13 36.97,7.92 55.54,11.62 14.07,2.02 30.44,3.3 42.33,-6.07 11.2,-9.22 12.73,-24.92 12.99,-38.46 0.03,-80.1 0.03,-160.2 0,-240.3 -0.24,-3.75 1.12,-7.25 3.38,-10.18 5.71,-7.94 11.63,-15.74 17.01,-23.93 -23.32,-6.16 -46.65,-12.33 -70.31,-16.9 3.83,13.97 13.05,26.27 14.78,40.75 0.08,76.78 -0.04,153.56 0.06,230.34 0.08,7.5 -1.32,15.97 -7.57,20.89 -6.99,5.71 -16.68,4.87 -25.01,3.77 -12.07,-2.1 -24.75,-6.72 -32.27,-16.94 -5.25,-6.82 -6.51,-15.66 -6.47,-24.03 0.02,-75.39 0.06,-150.81 -0.02,-226.21 -0.17,-3.99 0.83,-7.92 2.99,-11.3 5.17,-8.69 10.67,-17.2 15.43,-26.14 -31.27,-5.72 -62.38,-12.65 -93.96,-16.54zm-137.44 22.54c10.12,-1.34 21.81,0.13 29.46,7.5 5.52,5.88 4.11,14.66 4.46,22.05 -0.16,71.3 -0.06,142.61 -0.06,213.91 -0.08,5.32 -0.63,11.57 -5.27,14.99 -6.64,4.7 -15.36,4.13 -22.95,2.73 -6.27,-1.35 -13.09,-3.99 -16.33,-9.92 -2.91,-5.56 -2.22,-12.07 -2.38,-18.12 0.2,-72 -0.02,-144.01 0.1,-216.01 -0.81,-8.08 4.44,-16.39 12.97,-17.13zm0.08 6.3l0 0c-6.13,0.95 -7.21,7.79 -6.98,12.9 0,69.27 0.08,138.54 -0.04,207.83 0.16,7.01 -0.7,14.27 1.48,21.06 4.34,6.98 13.6,7.75 21.03,7.92 4.63,0.04 10.98,-1.41 11.67,-6.91 1.2,-10.69 0.23,-21.5 0.49,-32.25 0.04,-63.83 -0.08,-127.66 0.06,-191.5 -0.3,-5.31 0.43,-12.25 -4.86,-15.43 -6.74,-4.05 -15.19,-5.25 -22.85,-3.62zm-805.47 38.74c37.04,-10.32 73.71,-21.84 110.85,-31.8 -4.68,12.52 -11.55,24.05 -17.33,36.08 -4.09,7.7 -2.42,16.65 -2.69,25 0.09,84.85 0.07,169.69 0,254.54 -0.26,4.21 1.49,8.08 3.93,11.42 5.34,7.57 10.65,15.19 15.64,23.01 -36.93,10.73 -73.99,21.05 -110.76,32.39 5.09,-12.89 11.56,-25.16 17.3,-37.75 2.85,-5.9 2.33,-12.58 2.39,-18.93 -0.37,-32.6 0.26,-65.22 -0.35,-97.82 -15.31,4.6 -30.4,9.96 -45.71,14.58 -0.84,33.84 0.02,67.72 -0.45,101.58 0.16,5.58 -0.69,11.77 2.85,16.56 5.42,8.18 11.55,15.88 16.92,24.1 -37.14,12.08 -73.79,25.6 -110.5,38.89 4.99,-12.5 10.96,-24.55 16.55,-36.77 4.55,-8.83 2.83,-19.02 3.06,-28.54 -0.04,-80.09 -0.02,-160.17 0,-240.25 -0.16,-7.61 0.75,-15.33 -0.67,-22.84 -7.45,-7.51 -16.92,-12.71 -24.6,-20.06 22.62,-8.98 45.92,-16.06 68.74,-24.43 16.33,-5.44 32.4,-11.71 48.89,-16.64 -5.58,11.28 -12.48,21.85 -18.47,32.93 -3.36,5.56 -2.69,12.26 -2.75,18.47 0.39,34.39 -0.28,68.76 0.35,103.15 15.47,-3.93 30.4,-9.64 45.75,-13.95 0.71,-35.86 -0.02,-71.69 0.39,-107.55 -0.25,-5.33 0.89,-11.56 -3.26,-15.74 -5.52,-6.41 -11.38,-12.54 -16.07,-19.63zm10.39 3.44l0 0c4.78,6.03 10.46,11.41 14.47,18.02 0.66,3.91 0.51,7.92 0.55,11.87 -0.32,37.94 0.19,75.87 -0.28,113.78 -19.38,6.15 -38.65,12.75 -58.13,18.59 -0.53,-39.36 0.04,-78.73 -0.31,-118.11 -1.36,-13.18 9.31,-22.81 13.89,-34.25 -30.58,10.38 -61.19,20.81 -91.46,32.07 5.94,5.07 11.99,10.02 18.38,14.52 0.43,91.58 -0.04,183.17 0.25,274.77 -0.15,6.48 0.75,13.34 -2.04,19.42 -3.93,8.98 -8.33,17.74 -11.87,26.9 29.48,-10.46 58.8,-21.44 88.59,-31.03 -4.23,-7.7 -10.1,-14.33 -14.46,-21.93 -2.13,-5.62 -0.97,-11.91 -1.24,-17.79 0.23,-34.64 -0.16,-69.25 0.21,-103.87 19.32,-6.39 38.74,-12.54 58.19,-18.59 0.49,37.43 -0.04,74.87 0.28,112.32 1.19,14.82 -10.05,26.32 -13.9,39.95 29.79,-7.99 59.31,-16.93 88.95,-25.5 -5.23,-10.18 -16.35,-18.38 -15.65,-30.74 0.16,-85.52 0.08,-171.06 0.04,-256.59 0.28,-8.35 -1.43,-17.33 2.73,-25.01 3.97,-7.98 8.24,-15.82 11.58,-24.08 -29.83,7.51 -59.13,17.04 -88.77,25.28zm1155.88 -31.51c23.31,5.55 46,13.47 69.13,19.77 26.96,64.64 52.12,130.04 79.32,194.57 0.11,-39.46 -0.08,-78.92 0.11,-118.4 0.44,-8.66 -4.16,-16.25 -7.56,-23.85 -4.99,-10.99 -10.24,-21.88 -14.41,-33.21 25.35,8.43 50.25,18.19 75.45,27.08 -3.97,7.31 -8,14.6 -12.31,21.73 -3.32,5.66 -7.17,11.59 -6.7,18.45 0.1,84.88 0.06,169.77 0.02,254.63 -0.02,4.32 0.91,8.58 2.5,12.57 5.52,14.35 11.99,28.32 16.9,42.92 -20.95,-6.6 -41.33,-14.87 -62.04,-22.11 -5.01,-0.96 -6.64,-5.93 -8.29,-10.06 -18.46,-47.91 -37.4,-95.62 -55.97,-143.49 -7.67,-18.4 -13.88,-37.44 -22.38,-55.52 -1.44,39.52 -0.14,79.1 -0.65,118.64 0.15,8.27 -1.04,16.94 2.28,24.78 5.75,14.15 12.2,28.04 17.29,42.46 -24.31,-6.32 -48.26,-13.95 -72.32,-21.06 4.6,-10.53 10.63,-20.34 15.76,-30.6 3.8,-7.31 2.18,-15.82 2.46,-23.72 -0.08,-80.81 -0.04,-161.63 0,-242.44 0.08,-6.09 -2.24,-11.79 -4.54,-17.31 -4.91,-11.85 -10.14,-23.6 -14.05,-35.83zm10.22 8.95l0 0c3.69,13.79 11.93,26.11 14.36,40.18 0.3,84.17 -0.07,168.36 0.18,252.56 -0.16,6.51 0.83,13.58 -2.57,19.5 -4.31,8.39 -9.08,16.51 -13.23,24.96 17.75,4.91 35.18,10.96 53.1,15.23 -4.78,-16.61 -16.7,-31.51 -15.07,-49.51 0.57,-53.13 -0.73,-106.29 0.66,-159.39 11.34,25.43 20.52,51.78 30.94,77.62 19.02,48.78 38.24,97.53 57.16,146.37 2.1,4.85 3.2,11.63 9.34,12.91 15.62,5.44 31.03,11.55 46.79,16.66 -4.35,-13.93 -12.35,-26.76 -14.86,-41.17 -0.22,-80.78 -0.02,-161.57 -0.08,-242.36 0.14,-8.09 -0.67,-16.25 0.53,-24.29 3.79,-10.39 11.32,-18.96 15.02,-29.43 -18.46,-6.14 -36.58,-13.27 -54.99,-19.62 5.13,13.82 13.82,26.47 16.94,40.94 0.22,51.64 0.08,103.27 0.04,154.91 -13.25,-29.14 -24.23,-59.27 -36.59,-88.81 -17.51,-43.66 -35.45,-87.15 -52.75,-130.89 -18.19,-5.84 -36.57,-11.05 -54.92,-16.37zm-1473.52 74.65c54.65,-24.09 109.83,-46.97 165.38,-68.92 0.16,40.11 0.69,80.26 -0.29,120.37 -12.99,-16.49 -25.29,-33.55 -37.44,-50.68 -6.74,2.4 -13.42,4.99 -20.04,7.7 -0.38,118.74 0.06,237.51 -0.24,356.28 0,4.74 0.26,9.75 2.95,13.88 5.01,8.52 10.57,16.68 15.37,25.31 -35.57,15.99 -71.77,30.67 -107.73,45.8 4.46,-16.01 10.61,-31.46 15.97,-47.16 1.5,-4.3 2.32,-8.82 2.32,-13.36 -0.1,-116.75 0.02,-233.52 -0.06,-350.29 -5.91,2.62 -12.36,4.4 -17.58,8.35 -5.09,7.06 -7.41,15.7 -11.32,23.43 -9.75,20.61 -18.08,41.89 -28.62,62.12 -0.09,-34.71 0.08,-69.41 -0.09,-104.1 0.09,-6.25 -0.53,-12.61 0.7,-18.75 6.49,-4.12 13.8,-6.72 20.72,-9.98zm-15.19 13.39l0 0c-0.02,30.32 -0.04,60.64 0,90.96 10.78,-20.08 18.13,-41.91 29.04,-61.84 9.02,-5.41 19.14,-8.71 28.59,-13.27 -0.31,121.35 0.1,242.7 -0.19,364.03 -2.46,15.58 -10.2,29.81 -13.9,45.12 29.72,-11.66 58.96,-24.59 88.38,-37.03 -4.66,-9.12 -11.13,-17.25 -15.25,-26.63 -1.18,-7.36 -0.44,-14.85 -0.56,-22.26 0.16,-116 -0.23,-232.02 0.2,-348.01 9.51,-3.75 18.89,-7.8 28.65,-10.96 9.57,12.99 18.52,26.55 29.19,38.71 0.94,-30.6 0.51,-61.25 0.23,-91.85 -58.74,22.82 -116.75,47.54 -174.38,73.03zm1705.42 -73.09l0 0c-0.17,37.08 -0.41,74.15 0.12,111.23 9.69,-19.3 19.36,-38.6 28.89,-57.99 9.79,2.96 19.16,7.09 28.67,10.84 0.43,112.63 -0.04,225.27 0.22,337.89 -0.04,7.63 0.72,15.66 -2.64,22.8 -4.52,10.61 -9.15,21.22 -13.22,32.01 29.85,11.99 59.25,25.13 89.04,37.28 -3.62,-18.08 -12.46,-34.9 -14.62,-53.24 -0.1,-117.34 0.06,-234.68 -0.08,-352.01 9.65,5.11 21.03,7.68 29.52,14.52 10.14,19.81 17.98,40.79 28.04,60.68 0.08,-30.32 0.02,-60.62 0.04,-90.94 -57.27,-26 -114.9,-51.41 -173.98,-73.07z"/>
  </g>
 </g>
</svg>
