<?xml version="1.0" encoding="UTF-8"?>
<!DOCTYPE svg PUBLIC "-//W3C//DTD SVG 1.1//EN" "http://www.w3.org/Graphics/SVG/1.1/DTD/svg11.dtd">
<!-- Creator: CorelDRAW -->
<svg xmlns="http://www.w3.org/2000/svg" xml:space="preserve" width="2000px" height="1600px" version="1.1" style="shape-rendering:geometricPrecision; text-rendering:geometricPrecision; image-rendering:optimizeQuality; fill-rule:evenodd; clip-rule:evenodd"
viewBox="0 0 2000 1600"
 xmlns:xlink="http://www.w3.org/1999/xlink">
 <defs>
  <style type="text/css">
   <![CDATA[
    .fil0 {fill:#00685F;fill-rule:nonzero}
    .fil1 {fill:#1A2856;fill-rule:nonzero}
    .fil3 {fill:#FCDC03;fill-rule:nonzero}
    .fil2 {fill:#FEFEFE;fill-rule:nonzero}
   ]]>
  </style>
 </defs>
 <g id="Capa_x0020_1">
  <metadata id="CorelCorpID_0Corel-Layer"/>
  <g id="NC_x0020_Wilmington_x0020_Seahawks.cdr">
   <path class="fil0" d="M896.78 121.29c27.36,-45.98 60.8,-89.37 104.21,-121.29 43.77,31.57 76.93,75.38 104.52,121.22 4.14,-16.77 8.89,-33.38 13.01,-50.15 52.38,33.55 95.17,82.22 120.5,139.12 4.65,10.63 8.91,21.43 11.86,32.66 81.03,0.13 162.06,-0.04 243.08,0.08 -74.5,107.78 -149.6,215.16 -224.3,322.8 -63.45,91.14 -126.77,182.39 -190.29,273.48 78.65,-3.66 157.02,-13.78 234.13,-29.63 101.48,-21.46 201.84,-53.01 292.57,-104.07 23.2,29.69 46.55,59.27 69.9,88.87 -140.92,43.02 -286.68,68.88 -433.25,82.54 -71.14,6.33 -142.52,10.36 -213.96,10.59 -17.73,0.93 -35.55,0.98 -53.29,0.05 -86.55,-0.43 -173.03,-5.73 -259.07,-15 -131.93,-14.6 -263,-39.3 -390,-78.21 23.26,-29.63 46.7,-59.15 69.81,-88.89 71.97,40.68 150.42,68.74 230.24,89.55 77.16,19.95 156.06,32.81 235.38,40.09 20.34,1.44 40.62,3.74 61.01,4.07 -92.45,-132.71 -184.71,-265.54 -277.09,-398.3 -45.78,-66.03 -91.91,-131.8 -137.49,-197.96 81.06,-0.06 162.11,0.07 243.17,-0.06 20.98,-70.99 70.55,-131.87 132.31,-171.83 4.19,16.8 8.85,33.48 13.04,50.27zm-113.67 1233.59c81.69,-6.75 163.7,-9.57 245.65,-8.67 120.13,1.04 240.21,10.34 358.98,28.43 97.39,14.9 193.89,36.03 288.18,64.77 -23.39,29.66 -46.6,59.48 -70.17,88.99 -60.69,-34.93 -126.42,-60.46 -193.42,-80.41 -102.49,-30.14 -208.68,-46.63 -315.2,-53.06 -24.97,-1.37 -49.96,-2.37 -74.98,-2.39 -25.05,-1.28 -50.12,0.39 -75.19,0.54 -80.37,2.62 -160.61,11.19 -239.59,26.42 -108,21.28 -214.84,54.32 -310.93,108.9 -23.48,-29.55 -46.7,-59.31 -70.08,-88.94 148.47,-45.28 302.24,-71.65 456.75,-84.58z"/>
   <path class="fil1" d="M998.35 67.54c1.59,-2.02 3.88,-1.62 5.59,0 47.92,39.55 85.4,90.76 112.29,146.56 8.92,-21.59 15.02,-44.27 22.1,-66.54 16.62,18.22 30.21,39.03 42.76,60.2 15.41,26.47 28.19,54.41 39.18,82.99 46.61,0.35 93.23,-0.22 139.84,0.28 -100.19,163.38 -201.25,326.23 -301.73,489.44 -19.23,30.76 -37.85,61.91 -57.37,92.48 -120.13,-193.96 -240.43,-387.81 -360.28,-581.92 47.11,-0.48 94.25,0.02 141.36,-0.25 16.59,-43.22 37.45,-85.08 64.99,-122.41 5.33,-7.18 10.67,-14.38 16.9,-20.82 6.98,22.28 13.66,44.67 21.7,66.6 5.11,-7.68 8.5,-16.33 13.09,-24.31 25.32,-46.39 58.91,-88.46 99.58,-122.3zm-32.13 869.57c91.89,0.76 183.77,-1.77 275.43,-8.25 0,30.28 -0.09,60.57 0.06,90.85 -0.73,14.33 -8.6,27.74 -19.75,36.52 -21.78,17.01 -50.53,19.88 -77.2,20.95 -0.08,-23.94 -0.02,-47.87 -0.03,-71.82 -13.67,-4.36 -28.23,-3.06 -42.36,-3.17 -13.04,0.61 -26.54,0.55 -38.98,5.07 0.08,75.21 0.03,150.44 0.01,225.65 15.72,5.19 32.64,4.41 48.97,4.64 10.83,0.03 21.87,-0.27 32.34,-3.29 0.08,-23.7 -0.08,-47.38 0.08,-71.07 32.37,0.05 64.74,0.04 97.11,0 0.13,48.67 0.01,97.34 0.05,146.01 -91.83,-4.93 -183.81,-6.71 -275.77,-6.26 0.09,-121.94 0.02,-243.88 0.04,-365.83zm-332.87 -19.14c32.25,3.23 64.51,6.28 96.82,8.89 25.95,50.97 51.99,101.93 79.36,152.15 0.12,-48.98 0.02,-97.99 0.15,-146.97 32.47,1.8 64.96,3.44 97.48,3.82 0.01,97.06 0,194.1 0,291.13 0.4,25.71 -0.74,51.38 -0.57,77.07 -23.87,-0.04 -47.74,1 -71.57,1.77 -17.1,-0.44 -33.4,-11.01 -40.4,-26.68 -21.4,-49.25 -43.18,-98.32 -64.15,-147.76 -0.55,59.33 0.25,118.67 -0.5,177.99 -0.61,2.28 -3.39,1.24 -5.06,1.72 -30.75,1.61 -61.49,3.75 -92.13,6.67 0.28,-51.98 -0.59,-103.97 0.53,-155.93 0,-81.29 -0.05,-162.58 0.04,-243.87zm977.81 -35.2c30.98,-5.16 61.77,-11.48 92.53,-17.73 -0.77,104.44 0.08,208.91 -0.28,313.35 0.08,62.15 -0.24,124.3 0.28,186.45 -132.41,-27.56 -267.05,-43.05 -401.9,-52.18 0.02,-129.53 0.04,-259.07 0,-388.59 31.23,-2.61 62.42,-5.91 93.58,-9.34 -0.01,111.01 0,222.01 -0.01,333.02 16.2,6.05 33.9,6.55 51,6.2 3.59,-0.85 11.44,0.43 10.84,-5.21 0.02,-113.87 0.05,-227.75 -0.01,-341.62 30.76,-4.41 61.58,-8.55 92.24,-13.76 0.05,122 0.09,244.01 -0.02,366.02 8.64,5.19 18.86,6.16 28.62,7.67 10.92,1.18 22.26,2.55 33.01,-0.56 0.24,-127.9 0,-255.8 0.12,-383.72zm-1314.83 -17.82c31.74,6.94 63.7,12.69 95.64,18.67 -0.14,127.99 -0.05,255.99 -0.05,383.99 13.74,3.74 28.17,1.64 42.12,0.3 12.81,-1.83 26.07,-3 37.9,-8.68 0.03,-120.79 0,-241.59 0.01,-362.38 32.09,5.01 64.27,9.38 96.47,13.52 -0.1,137.8 0.05,275.57 -0.08,413.36 -91.26,9.15 -182.23,22.25 -271.99,41.19 -0.05,-166.67 -0.05,-333.32 -0.02,-499.97zm945.02 733.7c0.15,-30.07 -0.02,-60.15 0.08,-90.21 8.17,0.07 16.32,0.03 24.49,0.05 0.05,11.54 -0.35,23.1 0.33,34.64 8.2,-11.12 15,-23.2 22.7,-34.67 9.77,0.05 19.56,-0.02 29.33,0.05 -9.84,14.64 -19.86,29.19 -29.77,43.8 11.03,15.34 21.68,30.94 32.71,46.27 -10.19,0.15 -20.38,0 -30.57,0.1 -8.25,-12.24 -15.88,-24.9 -24.62,-36.79 -0.28,12.24 -0.15,24.5 -0.08,36.76 -8.2,0 -16.4,0 -24.6,0zm-145.99 -90.14c8.25,-0.05 16.51,0 24.78,-0.07 3.31,22.06 5.03,44.36 8.69,66.37 4.49,-22.09 9,-44.21 13.44,-66.32 9.14,-0.02 18.29,0.02 27.44,-0.03 4.41,22.13 7.75,44.49 12.8,66.47 2.89,-22.18 5.89,-44.34 9.05,-66.47 8.28,0.03 16.57,0.01 24.85,0.03 -5.28,30.01 -10.07,60.13 -15.15,90.19 -11.66,-0.07 -23.3,-0.02 -34.95,-0.03 -3.56,-19.85 -7.02,-39.69 -10.69,-59.5 -3.66,19.86 -7.37,39.7 -11.16,59.53 -11.73,-0.05 -23.45,-0.03 -35.16,-0.02 -4.73,-30.04 -9.2,-60.12 -13.94,-90.15zm-106.73 90.09c8.9,-29.98 17.24,-60.13 26.05,-90.14 12.53,0.06 25.06,-0.02 37.6,0.05 8.22,30.08 16.72,60.09 25.24,90.1 -8.84,0.07 -17.67,0 -26.49,0.05 -1.36,-5.07 -2.62,-10.17 -3.89,-15.25 -9.34,-0.05 -18.68,-0.05 -28.01,-0.01 -1.32,5.01 -2.69,10 -3.73,15.1 -8.92,0.26 -17.85,0.15 -26.77,0.1zm44.58 -71.72l0 0c-3.48,12.49 -6.53,25.1 -9.36,37.76 6.23,-0.05 12.46,-0.03 18.69,-0.03 -2.85,-12.63 -5.39,-25.41 -9.33,-37.73zm-259.87 71.72c8.82,-30 17.32,-60.1 25.97,-90.14 12.53,0.05 25.06,0 37.6,0.03 8.42,30.06 16.7,60.16 25.37,90.14 -8.85,0.03 -17.7,-0.02 -26.54,0.07 -1.34,-5.11 -2.57,-10.24 -3.96,-15.32 -9.32,-0.02 -18.64,0 -27.96,-0.02 -1.33,5.08 -2.67,10.16 -3.94,15.27 -8.85,0.02 -17.7,0.05 -26.54,-0.03zm44.7 -72.01l0 0c-3.66,12.55 -6.53,25.32 -9.54,38.05 6.29,-0.05 12.61,-0.05 18.92,-0.02 -3.14,-12.67 -5.74,-25.5 -9.38,-38.03zm-135.24 -18.07c22.71,-0.1 45.45,0 68.16,-0.05 0,6.85 0,13.71 0,20.6 -14.45,-0.05 -28.88,-0.02 -43.31,-0.04 -0.01,5.03 -0.01,10.07 -0.01,15.12 13.98,0.03 27.95,0 41.93,0.01 0,5.92 0.02,11.85 0.02,17.78 -14,-0.05 -27.97,-0.02 -41.95,-0.02 0,5.49 0,11 -0.02,16.52 14.9,0.01 29.78,-0.02 44.66,0.01 -0.03,6.72 -0.03,13.45 0.02,20.2 -23.17,-0.05 -46.35,0.08 -69.52,-0.07 0.07,-30.01 0.02,-60.04 0.02,-90.06zm669.72 0.5c9.95,-2.67 20.36,-1.68 30.54,-1.82 8.7,0.34 18.76,1.77 24.29,9.34 4.29,5.33 3.21,12.48 3.34,18.84 -7.72,-0.05 -15.43,-0.07 -23.13,-0.02 -0.4,-2.24 -0.79,-4.46 -1.17,-6.65 -7,-2.38 -15.37,-3.23 -22.05,0.41 -1.55,4.02 -2.17,10.84 3.32,12.02 11.41,3.11 23.89,1.49 34.91,6.21 6.75,2.73 10.89,9.69 11.21,16.81 0.3,9.23 1.18,19.82 -5.33,27.34 -5.68,7.05 -15.2,9 -23.82,8.4 -12.94,-0.74 -27.39,2.39 -38.93,-5.06 -8,-5.38 -7.8,-15.94 -7.53,-24.49 7.65,-0.03 15.3,-0.03 22.96,0 0.65,3.88 1.87,8.97 6.65,9.44 6.68,0.3 14.62,2.14 20.36,-2.2 0.69,-3.88 1.85,-8.87 -0.9,-12.13 -12.6,-4.98 -27.34,-1.34 -39.47,-7.82 -9.82,-5.64 -9.6,-18.39 -9,-28.26 0.1,-8.65 5.11,-17.77 13.75,-20.36zm-467.21 -0.55c8.17,0 16.32,0.02 24.49,0 -0.04,11.21 0,22.42 -0.04,33.62 10.37,-0.01 20.73,-0.03 31.1,0.02 0,-11.22 0,-22.43 -0.02,-33.64 8.19,0.02 16.37,0 24.57,0 0.07,30.07 0.02,60.13 0.02,90.18 -8.2,0 -16.42,0 -24.62,0 0.1,-11.63 0,-23.25 0.07,-34.86 -10.37,0 -20.75,0 -31.12,-0.02 0.04,11.63 -0.03,23.25 0.07,34.89 -8.19,-0.03 -16.37,-0.01 -24.55,-0.01 0.11,-30.07 0.06,-60.11 0.03,-90.18zm-289.41 0.42c9.94,-2.39 20.26,-1.64 30.4,-1.67 8.66,0.3 18.57,1.84 24.05,9.35 4.32,5.33 3.3,12.45 3.42,18.83 -7.65,-0.07 -15.3,-0.12 -22.93,0.03 -0.99,-2.91 -1,-7.17 -4.68,-7.92 -6.03,-1.02 -12.87,-1.52 -18.47,1.37 -2.02,3.86 -2.39,11.14 3.12,12.39 11.66,2.84 24.26,1.42 35.4,6.39 6.49,2.92 10.3,9.8 10.63,16.76 0.86,10.51 0.64,23.27 -8.65,30.25 -7.96,6.73 -18.97,5.03 -28.59,5.2 -10.71,-0.12 -22.77,1.17 -31.82,-5.72 -7.11,-5.59 -7.03,-15.58 -6.98,-23.78 7.82,-0.05 15.65,-0.05 23.48,0 1.01,2.81 0.44,7.27 3.93,8.48 5.74,2.19 12.17,1.49 18.19,1.07 7.75,-0.51 8.03,-15.35 0.15,-15.8 -12.4,-3.1 -26.53,-0.31 -37.6,-7.66 -8.33,-6.35 -7.46,-17.97 -7.15,-27.28 0.02,-8.77 5.48,-17.7 14.1,-20.29z"/>
   <path class="fil2" d="M933.25 236.4c19.89,-27.61 42.44,-53.43 68.04,-75.91 25.44,23.1 48.64,48.72 68.43,76.83 1.18,1.79 2.79,3.74 1.83,6.05 -12.47,60.21 -21.34,121.22 -25.62,182.56 37.52,-47.41 70.94,-97.97 101.62,-150.03 22.21,41.86 23.15,92.01 12.09,137.27 -6.61,-0.73 -13.31,0.52 -19.21,3.59 -13.17,6.67 -24.05,16.96 -34.2,27.5 -23.7,25.2 -43.61,53.68 -62.52,82.57 -7.28,-35.66 -19.04,-71.7 -42.44,-100.21 -23.63,28.33 -35.36,64.55 -42.52,100.21 -22.88,-34.19 -46.28,-68.76 -77.05,-96.47 -10.94,-9.12 -23.9,-18.97 -39.03,-17.19 -10.92,-45.28 -10.1,-95.43 12.16,-137.29 30.63,52.13 64.17,102.6 101.61,150.09 -4.25,-61.42 -13.19,-122.49 -25.67,-182.77 -0.95,-2.61 1.26,-4.75 2.48,-6.8z"/>
   <path class="fil3" d="M861.64 471.26c9.74,6.25 18.64,13.63 27.38,21.2 -4.19,3 -8.87,6.23 -10.26,11.5 -3.47,9.54 4.36,20.48 14.18,21.53 7.74,1.17 14.5,-4.37 17.98,-10.83 6.09,6.96 12.29,13.82 18.15,20.99 -12.38,10.05 -30.08,13.49 -44.91,7 -20.7,-8.4 -32.57,-32.5 -28.51,-54.15 0.98,-6.05 3.44,-11.71 5.99,-17.24z"/>
   <path class="fil3" d="M1113.26 492.49c8.67,-7.65 17.6,-15.01 27.41,-21.19 5.02,10.05 7.88,21.43 6.14,32.66 -2.28,19.78 -17.73,37.97 -37.71,41.28 -12.74,2.65 -25.92,-1.76 -35.99,-9.63 5.96,-7.06 12.06,-13.99 18.14,-20.92 3,4.62 6.83,9.4 12.61,10.47 11.12,3.04 22.96,-8.67 19.97,-19.82 -1.03,-5.87 -5.94,-9.71 -10.57,-12.85z"/>
   <path class="fil3" d="M1000.89 546.51c18.05,24.76 28.91,53.89 37.85,82.97 4.3,-9.95 8.38,-19.99 12.81,-29.9 9.03,1.76 18.5,4.63 24.87,11.71 3.95,4.01 5.76,9.44 7.36,14.7 -11.96,4.94 -20.03,15.52 -27.12,25.86 -23.99,36.62 -39.7,77.81 -55.77,118.31 -9.67,-27.16 -20.9,-53.76 -33.49,-79.7 -7.41,-14.96 -15.35,-29.76 -25.14,-43.34 -6.28,-8.55 -13.62,-16.89 -23.66,-21.03 1.62,-7.78 5.84,-15.08 12.66,-19.42 5.74,-4.05 12.71,-5.62 19.46,-7.09 4.42,10.04 8.6,20.18 12.94,30.25 8.18,-29.41 20.08,-57.99 37.23,-83.32z"/>
  </g>
 </g>
</svg>
