<?xml version="1.0" encoding="UTF-8"?>
<!DOCTYPE svg PUBLIC "-//W3C//DTD SVG 1.1//EN" "http://www.w3.org/Graphics/SVG/1.1/DTD/svg11.dtd">
<!-- Creator: CorelDRAW -->
<svg xmlns="http://www.w3.org/2000/svg" xml:space="preserve" width="2000px" height="1600px" version="1.1" style="shape-rendering:geometricPrecision; text-rendering:geometricPrecision; image-rendering:optimizeQuality; fill-rule:evenodd; clip-rule:evenodd"
viewBox="0 0 2000 1600"
 xmlns:xlink="http://www.w3.org/1999/xlink">
 <defs>
  <style type="text/css">
   <![CDATA[
    .fil3 {fill:#FEFEFE}
    .fil2 {fill:black;fill-rule:nonzero}
    .fil0 {fill:#90908F;fill-rule:nonzero}
    .fil1 {fill:#E41837;fill-rule:nonzero}
   ]]>
  </style>
 </defs>
 <g id="Capa_x0020_1">
  <metadata id="CorelCorpID_0Corel-Layer"/>
  <g id="Nebraska_x0020_Omaha_x0020_Mavericks.cdr">
   <path class="fil0" d="M1226.79 0l60.2 0c67.52,2.31 135.12,10.47 200.29,28.64 61.94,17.13 121.89,43.15 174.33,80.59 48.03,34.27 89.64,78.36 117.64,130.53 24.25,44.66 37.55,94.93 39.89,145.65l0 29.13c-1.36,29.61 -6.71,58.82 -13.9,87.52 -40.83,177.55 -81.76,355.09 -122.59,532.64 -5.37,22.08 -9.56,44.44 -16.09,66.21 -25.44,84.96 -78.73,159.17 -142.45,219.8 -64.8,61.6 -140.68,110.63 -220.6,150.24 -87.24,42.84 -179.78,74.54 -274.49,96.11 -64.03,14.59 -129.13,24.5 -194.62,29.45 -62.53,4.59 -125.48,5.06 -187.92,-1.03 -67.5,-6.66 -134.58,-20.78 -197.8,-45.7 -55.41,-21.97 -107.96,-52.41 -151.88,-92.97 -39.47,-36.14 -71.81,-80.53 -91.81,-130.32 -14.23,-34.94 -21.99,-72.31 -24.13,-109.92l0 -34.37c1.55,-22.23 4.33,-44.42 9.52,-66.12 44.65,-193.25 89.33,-386.48 133.99,-579.72 3.97,-17.72 8.28,-35.37 14.32,-52.5 25.99,-75.93 74.03,-142.65 130.96,-198.51 44.45,-43.32 94.48,-80.69 147.48,-112.92 104.42,-63.25 219.72,-107.42 338.19,-136.04 88.91,-21.47 180.05,-33.58 271.47,-36.39zm-39.58 16.95l0 0c-93.15,5.55 -185.69,21.3 -275.54,46.46 -124.77,35.18 -245.6,88.19 -350.64,164.79 -49.99,36.68 -96.19,78.97 -134.41,127.93 -38.8,49.63 -69.27,106.57 -83.86,168.12 -41.99,181.68 -84,363.34 -125.96,545.01 -7.02,32.27 -16.45,64.17 -19.4,97.2 -3.78,40.14 -0.9,81.06 10.05,119.94 16.39,59.96 51.22,114.02 96.54,156.23 45.1,42.58 99.9,73.88 157.65,95.85 65.47,24.82 134.88,38.1 204.55,43.55 65.75,5.01 131.91,3.19 197.51,-3.24 106.33,-10.71 211.4,-34.22 312.03,-70.28 84.33,-30.37 165.69,-69.77 239.91,-120.21 68.71,-46.98 131.74,-103.87 178.8,-172.95 29.75,-43.74 52.68,-92.52 64.25,-144.29 45.41,-197.22 90.82,-394.43 136.22,-591.65 9.04,-38.95 11.68,-79.48 6.85,-119.19 -6.85,-57.85 -30.15,-113.44 -65.89,-159.33 -39.77,-51.46 -93.09,-91.4 -151.36,-119.67 -61.14,-29.83 -127.57,-47.68 -194.74,-57.34 -67.05,-9.64 -135.02,-10.83 -202.56,-6.93z"/>
   <path class="fil0" d="M1045.75 372.11c39.84,-2.88 80.16,-2.98 119.73,2.95 28.65,4.66 58.09,13.07 80.47,32.42 17.12,14.45 27.83,35.73 30.32,57.93 2.55,19.87 -0.23,39.99 -4.95,59.32 -43.29,189.49 -86.57,378.98 -129.82,568.47 -5,25.19 -16.7,48.99 -33.6,68.34 -18.09,20.8 -41.78,36.25 -67.25,46.51 -34.2,13.85 -71.17,19.49 -107.87,21 -41.51,1.42 -83.73,0.71 -124.15,-9.82 -24.9,-6.7 -49.75,-18.32 -66.2,-38.82 -15.02,-18.45 -20.64,-42.96 -19.64,-66.38 0.41,-19.38 5.77,-38.13 9.91,-56.94 42.48,-186.23 84.93,-372.44 127.43,-558.67 9.03,-36.15 32.8,-67.83 63.8,-88.16 36.03,-23.94 79.24,-34.23 121.82,-38.15zm4.76 14.78l0 0c-35.71,2.99 -71.69,10.51 -103.54,27.47 -29.02,15.18 -53.66,39.7 -66.24,70.21 -5.62,12.66 -7.76,26.4 -11,39.77 -40.21,176.48 -80.46,352.95 -120.71,529.44 -5.9,27.18 -14.94,54.91 -9.64,83 3.22,20.76 15.86,39.56 33.57,50.8 26.03,16.88 57.48,22.23 87.81,25.16 35.96,2.76 72.26,2.62 108.08,-1.91 36.7,-5.02 73.62,-15.78 103.87,-37.84 25.26,-18.19 44.47,-45.01 52.18,-75.27 43.1,-188.72 86.19,-377.41 129.29,-566.12 3.27,-14.32 6.98,-28.63 7.74,-43.38 1.43,-21.95 -3.59,-45.59 -18.88,-62.13 -18.04,-20 -44.72,-29.07 -70.42,-34.25 -40.18,-7.64 -81.43,-7.55 -122.11,-4.95z"/>
   <path class="fil1" d="M1195.92 79.03c85.88,-4.51 172.92,0.56 256.37,22.32 63.67,16.71 125.65,43.37 177.54,84.41 43.73,34.41 79.58,80.11 97.64,133.1 12.19,34.77 16.21,72.14 13.29,108.78 -2.34,32.13 -11.78,63.1 -18.43,94.47 -37.67,163.88 -75.28,327.76 -112.94,491.66 -4.83,20.73 -9.35,41.54 -14.42,62.22 -13.21,49.51 -38.49,95.23 -69.98,135.41 -33.06,42.21 -73.72,78.41 -119.37,106.5 -3.33,1.85 -6.66,4.8 -10.72,3.86 -3.95,-0.65 -2.28,-5.19 -1.8,-7.69 63.65,-276.52 127.12,-553.08 190.72,-829.62 4.87,-22.73 11.93,-45.34 11.58,-68.83 0.71,-27.76 -6.79,-55.61 -21.02,-79.43 -11.93,-20.11 -28.26,-37.39 -46.8,-51.53 -30.25,-23.21 -65.7,-38.76 -102.04,-49.75 -61.84,-18.45 -126.75,-23.97 -191.04,-24.09 -78.19,1.54 -156.79,8.66 -232.69,28.35 -47.23,12.66 -94,30.66 -133.25,60.45 -34.8,26.02 -61.58,63.47 -71.41,106.1 -52.08,228.05 -104.01,456.15 -156.05,684.22 -3.37,14.78 -7.18,29.54 -8.07,44.73 -2.26,28.28 5.1,57.77 22.74,80.3 17.87,23.48 43.91,39.21 70.84,50.27 31.22,12.6 64.43,19.57 97.75,23.79 50.18,6.18 100.94,6.23 151.33,2.73 3.69,-0.81 9.79,1.33 8.22,6.09 -2.45,3.46 -7.09,3.86 -10.79,5.15 -40.22,10.73 -81.68,15.99 -123.1,19.11 -71.83,4.81 -144.65,3.07 -215.3,-11.74 -34.87,-7.7 -69.57,-18.77 -99.89,-38.01 -21.92,-13.95 -41.11,-33.58 -50.4,-58.2 -8.4,-22.08 -8.13,-46.62 -2.76,-69.36 57.27,-251.11 114.56,-502.21 171.77,-753.34 14.56,-58.92 44.45,-114.26 87.28,-157.43 40.06,-41.18 90.09,-71.53 142.86,-93.59 98.85,-40.87 206.2,-55.68 312.34,-61.41z"/>
   <path class="fil2" d="M1154.62 277.4c40.28,-2.58 80.74,-2.77 121.03,-0.08 45.66,3.26 91.41,10.02 134.94,24.62 27.99,9.68 55.53,22.78 77.27,43.27 16.04,15.01 28.1,34.65 32.25,56.36 3.54,17.76 2.37,36.23 -1.74,53.8 -55.84,244.83 -111.78,489.64 -167.6,734.49 -10.06,50.32 -30.29,98.86 -60.95,140.17 -31.54,43 -73.67,77.49 -120.02,103.48 -47.72,26.82 -99.78,45.13 -152.76,58.33 -70.48,17.24 -142.86,25.55 -215.24,29.14 -76.25,3.91 -153.3,0.1 -228.06,-16.21 -71.6,-15.68 -141.83,-43.08 -200.25,-88.07 -47.6,-36.51 -86.18,-86.36 -103.66,-144.2 -14.83,-47.88 -14.61,-99.65 -2.69,-148.11 45.04,-195.12 90.02,-390.25 135.04,-585.38 8.76,-41.11 26.18,-80.07 48.76,-115.42 37.59,-58.75 89.07,-108.59 149.08,-144.17 2.9,-2.19 9.76,-1.71 8.35,3.31 -64.45,280.06 -129.24,560.05 -193.79,840.1 -3.53,15.86 -8.02,31.59 -9.34,47.85 -3.02,31.04 3.2,63.08 18.78,90.23 15.57,27.55 39.28,49.78 65.89,66.61 32.82,20.91 69.84,34.41 107.45,43.79 77.42,18.62 157.86,20.5 236.97,14.83 68.32,-5.14 136.92,-14.76 201.99,-36.97 37.13,-12.9 73.27,-30.29 103.57,-55.65 32.44,-26.68 56.14,-64.15 64.34,-105.51 52.69,-230.98 105.34,-461.96 158.05,-692.94 5.83,-24.19 7.42,-50.01 0.32,-74.12 -7.37,-26.04 -25.23,-48.18 -47.19,-63.58 -30.62,-21.71 -67.13,-33.2 -103.57,-40.68 -62.84,-12.33 -127.36,-12.69 -191.04,-8.56 -6.88,-0.1 -5.76,-8.95 0.17,-9.55 43.44,-12.57 88.64,-17.88 133.65,-21.18z"/>
   <path class="fil3" d="M653.44 391.46c14.56,-58.92 44.45,-114.26 87.28,-157.43 40.06,-41.18 90.09,-71.53 142.86,-93.59 98.85,-40.87 206.2,-55.68 312.34,-61.41 85.88,-4.51 172.92,0.56 256.37,22.32 63.67,16.71 125.65,43.37 177.54,84.41 43.73,34.41 79.58,80.11 97.64,133.1 12.19,34.77 16.21,72.14 13.29,108.78 -2.34,32.13 -11.78,63.1 -18.43,94.47 -37.67,163.88 -75.28,327.76 -112.94,491.66 -4.83,20.73 -9.35,41.54 -14.42,62.22 -13.21,49.51 -38.49,95.23 -69.98,135.41 -33.06,42.21 -73.72,78.41 -119.37,106.5 -3.33,1.85 -6.66,4.8 -10.72,3.86 -3.95,-0.65 -2.28,-5.19 -1.8,-7.69 63.65,-276.52 127.12,-553.08 190.72,-829.62 4.87,-22.73 11.93,-45.34 11.58,-68.83 0.71,-27.76 -6.79,-55.61 -21.02,-79.43 -11.93,-20.11 -28.26,-37.39 -46.8,-51.53 -30.25,-23.21 -65.7,-38.76 -102.04,-49.75 -61.84,-18.45 -126.75,-23.97 -191.04,-24.09 -78.19,1.54 -156.79,8.66 -232.69,28.35 -47.23,12.66 -94,30.66 -133.25,60.45 -34.8,26.02 -61.58,63.47 -71.41,106.1 -52.08,228.05 -104.01,456.15 -156.05,684.22 -3.37,14.78 -7.18,29.54 -8.07,44.73 -2.26,28.28 5.1,57.77 22.74,80.3 17.87,23.48 43.91,39.21 70.84,50.27 31.22,12.6 64.43,19.57 97.75,23.79 50.18,6.18 100.94,6.23 151.33,2.73 3.69,-0.81 9.79,1.33 8.22,6.09 -2.45,3.46 -7.09,3.86 -10.79,5.15 -40.22,10.73 -81.68,15.99 -123.1,19.11 -71.83,4.81 -144.65,3.07 -215.3,-11.74 -34.87,-7.7 -69.57,-18.77 -99.89,-38.01 -21.92,-13.95 -41.11,-33.58 -50.4,-58.2 -8.4,-22.08 -8.13,-46.62 -2.76,-69.36 57.27,-251.11 114.56,-502.21 171.77,-753.34zm501.18 -114.06c40.28,-2.58 80.74,-2.77 121.03,-0.08 45.66,3.26 91.41,10.02 134.94,24.62 27.99,9.68 55.53,22.78 77.27,43.27 16.04,15.01 28.1,34.65 32.25,56.36 3.54,17.76 2.37,36.23 -1.74,53.8 -55.84,244.83 -111.78,489.64 -167.6,734.49 -10.06,50.32 -30.29,98.86 -60.95,140.17 -31.54,43 -73.67,77.49 -120.02,103.48 -47.72,26.82 -99.78,45.13 -152.76,58.33 -70.48,17.24 -142.86,25.55 -215.24,29.14 -76.25,3.91 -153.3,0.1 -228.06,-16.21 -71.6,-15.68 -141.83,-43.08 -200.25,-88.07 -47.6,-36.51 -86.18,-86.36 -103.66,-144.2 -14.83,-47.88 -14.61,-99.65 -2.69,-148.11 45.04,-195.12 90.02,-390.25 135.04,-585.38 8.76,-41.11 26.18,-80.07 48.76,-115.42 37.59,-58.75 89.07,-108.59 149.08,-144.17 2.9,-2.19 9.76,-1.71 8.35,3.31 -64.45,280.06 -129.24,560.05 -193.79,840.1 -3.53,15.86 -8.02,31.59 -9.34,47.85 -3.02,31.04 3.2,63.08 18.78,90.23 15.57,27.55 39.28,49.78 65.89,66.61 32.82,20.91 69.84,34.41 107.45,43.79 77.42,18.62 157.86,20.5 236.97,14.83 68.32,-5.14 136.92,-14.76 201.99,-36.97 37.13,-12.9 73.27,-30.29 103.57,-55.65 32.44,-26.68 56.14,-64.15 64.34,-105.51 52.69,-230.98 105.34,-461.96 158.05,-692.94 5.83,-24.19 7.42,-50.01 0.32,-74.12 -7.37,-26.04 -25.23,-48.18 -47.19,-63.58 -30.62,-21.71 -67.13,-33.2 -103.57,-40.68 -62.84,-12.33 -127.36,-12.69 -191.04,-8.56 -6.88,-0.1 -5.76,-8.95 0.17,-9.55 43.44,-12.57 88.64,-17.88 133.65,-21.18zm235.15 -253.52c-67.05,-9.64 -135.02,-10.83 -202.56,-6.93 -93.15,5.55 -185.69,21.3 -275.54,46.46 -124.77,35.18 -245.6,88.19 -350.64,164.79 -49.99,36.68 -96.19,78.97 -134.41,127.93 -38.8,49.63 -69.27,106.57 -83.86,168.12 -41.99,181.68 -84,363.34 -125.96,545.01 -7.02,32.27 -16.45,64.17 -19.4,97.2 -3.78,40.14 -0.9,81.06 10.05,119.94 16.39,59.96 51.22,114.02 96.54,156.23 45.1,42.58 99.9,73.88 157.65,95.85 65.47,24.82 134.88,38.1 204.55,43.55 65.75,5.01 131.91,3.19 197.51,-3.24 106.33,-10.71 211.4,-34.22 312.03,-70.28 84.33,-30.37 165.69,-69.77 239.91,-120.21 68.71,-46.98 131.74,-103.87 178.8,-172.95 29.75,-43.74 52.68,-92.52 64.25,-144.29 45.41,-197.22 90.82,-394.43 136.22,-591.65 9.04,-38.95 11.68,-79.48 6.85,-119.19 -6.85,-57.85 -30.15,-113.44 -65.89,-159.33 -39.77,-51.46 -93.09,-91.4 -151.36,-119.67 -61.14,-29.83 -127.57,-47.68 -194.74,-57.34zm-344.02 348.23c39.84,-2.88 80.16,-2.98 119.73,2.95 28.65,4.66 58.09,13.07 80.47,32.42 17.12,14.45 27.83,35.73 30.32,57.93 2.55,19.87 -0.23,39.99 -4.95,59.32 -43.29,189.49 -86.57,378.98 -129.82,568.47 -5,25.19 -16.7,48.99 -33.6,68.34 -18.09,20.8 -41.78,36.25 -67.25,46.51 -34.2,13.85 -71.17,19.49 -107.87,21 -41.51,1.42 -83.73,0.71 -124.15,-9.82 -24.9,-6.7 -49.75,-18.32 -66.2,-38.82 -15.02,-18.45 -20.64,-42.96 -19.64,-66.38 0.41,-19.38 5.77,-38.13 9.91,-56.94 42.48,-186.23 84.93,-372.44 127.43,-558.67 9.03,-36.15 32.8,-67.83 63.8,-88.16 36.03,-23.94 79.24,-34.23 121.82,-38.15z"/>
  </g>
 </g>
</svg>
