<?xml version="1.0" encoding="UTF-8"?>
<!DOCTYPE svg PUBLIC "-//W3C//DTD SVG 1.1//EN" "http://www.w3.org/Graphics/SVG/1.1/DTD/svg11.dtd">
<!-- Creator: CorelDRAW -->
<svg xmlns="http://www.w3.org/2000/svg" xml:space="preserve" width="2000px" height="1600px" version="1.1" style="shape-rendering:geometricPrecision; text-rendering:geometricPrecision; image-rendering:optimizeQuality; fill-rule:evenodd; clip-rule:evenodd"
viewBox="0 0 2000 1600"
 xmlns:xlink="http://www.w3.org/1999/xlink">
 <defs>
  <style type="text/css">
   <![CDATA[
    .fil0 {fill:#002D61;fill-rule:nonzero}
    .fil1 {fill:#FEFEFE;fill-rule:nonzero}
   ]]>
  </style>
 </defs>
 <g id="Capa_x0020_1">
  <metadata id="CorelCorpID_0Corel-Layer"/>
  <g id="Nevada_x0020_Wolf_x0020_Pack.cdr">
   <path class="fil0" d="M958.58 162.92l58.16 0c0.02,16.41 -0.06,32.83 0.04,49.25 -5.77,2.73 -12,5.18 -16.25,10.14 -7.41,8.46 -9.4,19.92 -12.35,30.38 -20,73 -40.18,145.93 -60.04,218.97 -50.22,2.47 -100.39,6.44 -150.25,12.92 -22.06,-73.55 -44.41,-147.01 -66.66,-220.49 -2.24,-6.74 -4.69,-14.17 -10.85,-18.36 -4.71,-2.83 -10.26,-3.54 -15.48,-4.84 0.2,-16.54 0.04,-33.1 0.1,-49.65 49.66,-8.91 99.64,-16.02 149.86,-20.77 -0.02,16.58 -0.08,33.17 0.04,49.77 -7.77,2.82 -17.59,4.66 -21.4,12.96 -3.1,8.46 1.26,17.14 3.28,25.34 14.37,51.78 29.48,103.36 43.16,155.33 0.61,-0.45 1.78,-1.34 2.39,-1.78 13.03,-57.13 28.44,-113.73 42.08,-170.71 0.89,-6.6 2.17,-15.04 -3.66,-19.82 -5.16,-3.75 -11.88,-3.89 -17.92,-5.12 0.21,-16.62 0.06,-33.26 0.08,-49.9 25.19,-1.76 50.43,-2.59 75.67,-3.62z"/>
   <path class="fil0" d="M1094.29 165.26c49.96,2.72 99.84,7.45 149.35,14.68 19.44,68.6 38.93,137.19 57.64,205.97l0.76 1.38c4.22,15.08 7.31,30.61 13.41,45.08 3.48,8.93 11.51,14.7 19.93,18.56 0.11,17.39 0.09,34.8 0,52.21 -48.6,-9.46 -97.55,-17.05 -146.76,-22.47 -0.06,-17.25 0.13,-34.5 -0.1,-51.74 7.29,-0.53 16.91,-0.67 20.61,-8.28 2.09,-8.77 -2.02,-17.43 -4.11,-25.83 -2.89,-0.45 -5.73,-0.89 -8.58,-1.44 -6.18,-0.48 -12.39,-0.79 -18.48,-1.94 -18.81,-1.52 -37.58,-3.54 -56.42,-4.66 -2.03,8.91 -7.51,18.79 -2.75,27.72 4.57,7.12 13.96,8.33 21.66,9.31 0.22,17.41 -0.07,34.83 0.16,52.24 -44.54,-3.58 -89.21,-5.34 -133.89,-5.83 0.12,-17.43 -0.36,-34.85 0.27,-52.24 12.79,-1.34 20.6,-12.78 23.5,-24.31 21.47,-76.08 42.28,-152.33 63.8,-228.41zm67.47 65.06l0 0c-1.58,5.09 -2.85,10.25 -4.31,15.35 -0.4,2.2 -0.77,4.41 -1.11,6.6l-0.98 1.21c-0.4,2.21 -0.78,4.44 -1.17,6.64 -7.49,27.63 -14.05,55.51 -21.46,83.16 19.5,1.3 38.89,3.46 58.32,5.24 -10.1,-39.31 -19.23,-78.88 -29.29,-118.2z"/>
   <path class="fil0" d="M355.12 286.03c96.03,-37.77 195.18,-67.67 296.32,-88.22 -0.16,31.54 0.12,63.08 -0.14,94.6 -31.3,5.73 -62.13,13.79 -93,21.4 -0.4,-7.37 0.14,-15.89 -5.63,-21.48 -6.17,-6.42 -15.91,-5.45 -23.93,-4.41 -19.21,3.23 -37.53,10.2 -56.15,15.7 0,21.22 -0.08,42.41 0.02,63.61 38.04,-12.07 76.48,-22.76 115.2,-32.35 0.17,17.31 -0.2,34.62 0.21,51.92 -3.16,0.95 -6.34,1.8 -9.52,2.65l-1.23 0.63c-22.57,5.14 -44.86,11.5 -67.07,18 -12.61,3.48 -25.02,7.61 -37.57,11.29 -0.16,24.48 0.02,48.95 -0.08,73.42 15.67,-5.1 31.48,-9.67 47.25,-14.43 12.02,-4.17 25.63,-8.64 32.87,-19.94 6.68,-10.3 5.29,-23.07 5.55,-34.78 27.73,-7.2 55.65,-13.7 83.66,-19.73 3.18,-0.65 6.36,-1.2 9.54,-1.74 -0.1,34.49 0.1,68.99 -0.08,103.48 -78.1,16.13 -155.17,37.33 -230.41,63.8 -22.14,7.88 -44.15,16.18 -66.03,24.74 -0.06,-17.35 -0.1,-34.7 0.02,-52.04 5.89,-3.77 11.9,-7.78 15.97,-13.63 4.47,-7.67 4.86,-16.86 4.78,-25.5 -0.06,-49.31 -0.02,-98.61 -0.02,-147.9 -0.08,-5.52 -0.51,-11.29 -3.2,-16.23 -4.35,-5.18 -11.86,-3.1 -17.65,-2.25 0.26,-16.86 -0.31,-33.74 0.32,-50.61z"/>
   <path class="fil0" d="M1369.52 202.47c43.23,9.37 86.11,20.45 128.54,33.04 34.29,10 68.28,22.32 99.01,40.83 19.63,11.98 38.32,26.74 50.83,46.33 15.62,23.95 21.8,52.84 22.87,81.08 -0.08,32.4 0.18,64.79 -0.12,97.18 -1.48,20.47 -4.07,43.18 -18.73,58.83 -12.12,12.35 -30.89,11.66 -46.82,10.36 -44.27,-5.79 -86.41,-21.05 -129.19,-33.13 -35.12,-9.88 -70.48,-18.97 -106.17,-26.58 -0.33,-17.35 -0.14,-34.7 -0.1,-52.03 6.41,-0.65 15.02,0.31 18.8,-6.29 3.06,-6.85 2.71,-14.62 3.16,-21.95 0.06,-45.91 0.02,-91.84 0.02,-137.75 -0.36,-8.62 -0.1,-17.61 -3.42,-25.75 -3.58,-7.53 -11.62,-10.97 -18.7,-14.33 0.14,-16.62 0.1,-33.24 0.02,-49.84zm120.85 92.03l0 0c-0.15,61.45 -0.03,122.91 -0.07,184.37 17.11,4.71 33.79,11.01 51.18,14.75 8.58,1.44 18.84,3.99 26.38,-1.92 8.01,-8.99 6.92,-22 7.73,-33.2 -0.57,-33.72 1.23,-67.51 -1.16,-101.17 -0.74,-13.38 -5.32,-27.51 -16.37,-35.91 -19.54,-15.22 -44.58,-19.78 -67.69,-26.92z"/>
   <path class="fil0" d="M180.47 367.53c40.34,-21.27 81.35,-41.34 123.09,-59.72 0.19,16.83 0.29,33.65 -0.04,50.47 -6.72,4.92 -13.84,10.04 -17.75,17.61 -3.48,7.41 -3.77,15.81 -4.07,23.85 -0.12,75.32 0.08,150.64 -0.1,225.97 -28.36,12.87 -56.46,26.36 -83.99,40.93 -32.33,-39.7 -65.14,-79.01 -97.77,-118.44 -0.39,30.79 -0.04,61.6 -0.2,92.41 0.22,6.11 -0.27,12.93 3.48,18.2 4.69,4.35 11.37,0.28 16.62,-0.93 -0.1,17.26 0.2,34.55 0.1,51.82 -40.99,24.11 -81.2,49.61 -119.84,77.3l0 -52.55c4.96,-4.73 10.43,-9.21 13.7,-15.34 4.66,-8.44 5.11,-18.32 5.35,-27.73 0.02,-49.31 -0.06,-98.65 0.04,-147.96 -0.22,-5.52 0.04,-11.62 -3.14,-16.42 -5.02,-3.48 -11.05,0.13 -15.95,2.01l0 -50.06c32.06,-23.18 65.44,-44.54 99.27,-65.04 33.02,38.74 65.73,77.77 98.18,117 -0.12,-31.62 0.04,-63.22 -0.06,-94.84 -0.33,-5.62 -0.55,-12.22 -4.96,-16.33 -4.6,-4.7 -11.22,-0.65 -16.58,0.12 0.12,-15.57 -0.18,-31.13 0.08,-46.68 -0.77,-3.14 2.53,-4.33 4.54,-5.65z"/>
   <path class="fil0" d="M1726.54 547.69c19.03,-65.95 38.4,-131.8 56.88,-197.89 43.73,20.93 85.57,45.58 127.15,70.48 3.44,2.31 8.12,4.09 8.86,8.73 18.71,83.3 37.01,166.68 55.35,250.06 2.93,13 5.1,26.44 11.33,38.38 3.65,7.23 10,12.61 13.89,19.72l0 49.88c-42.55,-29.34 -85.95,-57.43 -130.75,-83.26 -0.1,-17.31 0.06,-34.62 -0.08,-51.95 5.77,1.6 12.51,6.12 18.18,1.74 2.41,-8.48 -0.34,-17.43 -2.39,-25.73 -0.59,-3.62 -4.09,-5.26 -6.82,-7.02 -22.9,-13.22 -45.91,-26.25 -69.31,-38.56 -2.57,7.77 -5.95,16.15 -3.4,24.39 3.07,9.6 12.2,15.12 20.14,20.39 -0.02,17.44 0.14,34.87 -0.1,52.3 -39.98,-21.8 -80.95,-41.78 -122.57,-60.24 -0.19,-17.31 0.12,-34.62 -0.19,-51.92 4.27,-0.18 8.73,0.34 12.9,-0.93 6.52,-3.89 8.6,-11.85 10.93,-18.57zm92.59 -4.19l0 0c17.86,8.77 34.68,19.48 52.41,28.52 -8.73,-43.29 -17.41,-86.61 -26.32,-129.89 -8.68,33.78 -17.93,67.45 -26.09,101.37z"/>
   <path class="fil0" d="M1117.61 594.09c5.57,-6.23 14.56,-6.66 22.27,-7.65 14.07,7.63 26.88,17.31 40.34,25.95 41.08,26.78 84.01,50.75 128.38,71.64 30.41,14.7 61.77,27.35 92.61,41.07 45.23,21.22 89.05,45.2 132.58,69.72 13.44,8.06 27.95,14.61 40.16,24.63 28.12,23.22 51.5,51.42 74.57,79.5 22.01,24.88 50.91,42.29 79.9,57.85 31.62,16.08 63.99,30.75 97.31,42.88 9.35,4.01 20.1,6.96 26.3,15.71 7.81,10.02 6.84,24.17 1.57,35.12 -4.79,9.79 -10.76,19.43 -19.39,26.31 -12.65,9.19 -27.65,14.98 -43.18,16.74 -7.87,8.12 -14.65,18.2 -25.32,22.82 1.76,-7.41 5.89,-14.5 5.95,-22.19 -6.82,-1.19 -13.72,-1.96 -20.49,-3.34 -8.72,12.47 -18.72,24.05 -29.65,34.64 -2.57,2.57 -5.67,4.47 -8.83,6.23 1.34,-7.06 4.84,-13.42 7.01,-20.2 3.34,-9.39 5.62,-19.11 8.48,-28.64 -5.75,-2.76 -11.05,-7.01 -17.25,-8.39 -7.33,4.8 -14.23,10.69 -23.03,12.6 1.37,-7.64 6.15,-14.84 5.85,-22.57 -3.34,-1.77 -6.85,-3.06 -10.33,-4.4 -7.31,5.39 -14.53,11.99 -23.92,13.14 1.96,-6.58 4.35,-13.06 5.76,-19.78 -5.28,-0.91 -10.48,-1.98 -15.66,-3.13 -5.69,7.97 -12.7,15.74 -22.31,18.76 -4.64,-6.4 -6.95,-14.11 -11.42,-20.55 -5.69,0.65 -11.27,1.85 -16.94,2.57 -20.47,4.64 -39.84,13.85 -56.42,26.72 -7.81,5.94 -13.89,14.54 -15.75,24.26 -1.33,7 1.86,16.17 9.84,17.24 11.52,1.26 23.18,-0.58 34.78,0 9.27,-6.45 17.71,-14.15 24.07,-23.56 1.05,0.4 3.15,1.22 4.19,1.62 2.53,8.66 4.98,17.45 5.04,26.54 4.77,1.54 9.57,2.99 14.35,4.57 10.69,-6.13 19.94,-14.25 28.97,-22.51 1.45,11.64 1.86,23.61 -1.18,35.04 5.45,3.55 10.71,7.41 15.45,11.93 7.12,-5.21 12.29,-12.45 18.78,-18.34 0.04,11.09 -0.83,22.16 -2.16,33.17 7.47,3.75 14.96,8.22 23.44,9.07 8.18,-7.16 12.04,-17.95 20.04,-25.24 0.3,9.35 -0.77,18.64 -1.36,27.98 3.28,0.24 6.58,0.48 9.9,0.77 4.05,-5.83 7.9,-11.83 12.49,-17.23 0.99,6.76 0.29,13.58 -0.06,20.36 2.41,1.12 4.82,2.27 7.25,3.45 0.77,9.29 -7.49,15.26 -14.76,19.12 -13.89,7.33 -29.25,14.76 -45.38,12.57 -14.28,-2.49 -28.53,-5.22 -42.9,-7.02 -10.77,-1.62 -21.54,-3.1 -32.39,-3.91 -94.67,-10.87 -191.05,-10.12 -285.14,5.85 -82.63,13.89 -164.01,41.3 -234.39,87.45 -30.45,20.1 -58.73,43.61 -83.52,70.41 -19.13,20.1 -35.33,42.71 -50.83,65.65 -5.21,-36.34 -23.73,-69.3 -46.42,-97.59 -36.6,-44.6 -83.5,-79.94 -133.65,-108 56.46,-50.36 124.15,-87.03 195.15,-112.43 22.02,-7.63 44.35,-14.45 67.16,-19.27 -15.6,27.77 -20.97,59.94 -22.22,91.4 33.01,-27.05 66.55,-53.69 103.03,-75.98 35.97,-20.89 75.12,-35.77 114.8,-48.01 27.33,-8.06 54.92,-15.63 83.14,-19.84 -16.93,-2.47 -34.13,-0.81 -51.16,-0.81 -51.84,2.92 -103.36,11.84 -153.23,26.34 5.76,-23.14 21.92,-42.58 41.53,-55.59 -61.96,4.45 -123.26,16.07 -183.62,30.46 -2.21,0.45 -4.41,0.89 -6.58,1.36 -111.07,27.86 -219.51,66.03 -323.91,113.1 -5.87,2.14 -11.8,7.87 -18.3,4.61 -33.09,-11.19 -66.96,-19.88 -100.89,-28.03 31.6,-17.23 64.72,-31.48 97.66,-45.93 43.92,-18.71 88.52,-35.88 133.78,-51.04 4.49,-1.58 8.99,-3.14 13.44,-4.79 5.61,-1.66 11.18,-3.47 16.74,-5.31 56.1,-18.26 113.2,-33.38 170.81,-46.07l2.35 -2.23c-37.83,3.28 -75.38,9.54 -112.85,15.61 -44.17,7.29 -88.02,16.34 -131.72,25.99 -8.67,2.11 -17.31,4.21 -26,6.18 -8.17,1.94 -16.31,3.98 -24.47,5.93 -5.91,1.53 -11.82,3.01 -17.71,4.65 -77.96,20.14 -154.92,44.33 -229.98,73.53 -5.57,2.46 -11.58,-0.43 -17.27,-0.98 -87.06,-14.47 -175.12,-21.72 -263.12,-27.71 101.52,-44.19 206.12,-81.07 311.91,-113.64 61.64,-18.89 123.76,-36.2 186.47,-51.2 -15.97,-13.8 -37.59,-16.62 -57.24,-21.9 19.75,-4.09 39.11,-9.9 58.82,-14.19 15.41,-3.64 30.87,-7.11 46.34,-10.43 96.33,-20.4 193.44,-36.88 290.91,-50.8 13.42,-1.83 26.82,-4.16 40.38,-4.7 -11.76,-1.97 -23.68,-0.99 -35.54,-1.2 -175.69,2.03 -351.56,16.6 -524.41,48.67 -10.21,1.96 -20.37,4.03 -30.57,5.99 -3.34,0.75 -6.74,1.36 -10.12,1.96 -3.99,1 -8.02,1.83 -12.01,2.82 -31.37,-21.2 -66.68,-35.75 -102.57,-47.33 -43.6,-13.87 -88.54,-23.34 -133.87,-29.58 88.2,-11.55 176.18,-25.08 263.35,-42.89 28.94,-6.28 58.19,-11.72 86.61,-20.08 -12.91,-10.16 -24.97,-21.32 -37.67,-31.74 51.08,1.54 102.13,-0.83 153,-4.98 63.54,-4.88 126.92,-11.82 190.18,-19.5 -10.55,-10.14 -21.17,-20.22 -31.7,-30.36 95.59,14.21 192.47,15.47 288.89,17.75 13.82,-0.36 27.73,0.75 41.52,-0.85 -3.85,-17.12 -4.96,-34.69 -7.45,-52.04 -0.99,-7.55 -0.97,-16.44 4.61,-22.33z"/>
   <path class="fil1" d="M1528.75 870c4.75,-0.83 8.26,3.2 12.02,5.37 47.87,31.9 95.99,63.46 143.77,95.48 -27.9,-12.85 -56.36,-26.66 -87.45,-29.21 -14.28,-1.21 -30.53,0.99 -40.33,12.57 -2.81,-25.77 -12.37,-50.26 -23.91,-73.3 -1.49,-3.56 -4.77,-6.82 -4.1,-10.91zm53.54 150.77c20.44,-11.34 46.27,-7.65 65.5,4.51 2.92,1.81 4.86,4.7 6.66,7.57 -7.73,0 -15.08,-2.42 -22.57,-3.82 -8.88,-1.09 -17.87,-0.67 -26.76,-0.06 -6.66,1.54 -13.44,2.57 -19.94,4.72 -8.5,2.48 -16.03,7.85 -25.02,8.7 3.26,-10.45 13.22,-16.4 22.13,-21.62zm201.5 -9.51c11.6,-7.21 26.94,-6.68 39.05,-0.87 9.1,3.98 19.25,10.1 21.13,20.74 1.23,9.92 -4.9,18.65 -9.86,26.66 -4.41,6.14 -10.04,14.03 -18.52,13.45 -3.42,0.26 -4.62,-3.45 -6.46,-5.49 7.09,-4.19 15.37,-8.04 19.29,-15.73 2.53,-6.13 -0.58,-12.83 -6.13,-15.97 -1.5,0.83 -4.46,2.49 -5.93,3.32 0.22,3.99 1.33,8 0.81,12.02 -1.32,3.47 -4.82,5.33 -7.39,7.74 -8.52,-6.89 -16.82,-13.97 -25.57,-20.55 -3.86,-2.65 -5.91,-6.94 -7.79,-11.07 1.19,-5.27 2.37,-11.22 7.37,-14.25zm-666.75 -310.47c11.3,-4.88 23.3,0.75 33.77,5.22 42.83,19.4 84.8,40.89 124.62,65.97 3.74,2.13 6.74,5.25 9.37,8.63 -5.12,5.46 -12.92,6.21 -19.86,7.59 -21.46,3.38 -43.3,3.1 -64.94,2.43 10.16,15.08 22.92,28.54 38.3,38.36 -10.59,1.82 -21.13,4.21 -31.94,3.86 3.38,3.89 9.45,7.92 7.73,13.83 -3.64,7.59 -12.11,11.01 -19.6,13.6 -3.13,-1.33 -6.47,-2.34 -9.17,-4.49 -34.55,-37.65 -62.81,-83.3 -71.03,-134.47 -1.37,-6.97 -0.57,-14.21 2.75,-20.53zm454.28 209.57l0 0c3.8,7.09 7.97,14.38 7.43,22.76 8.17,2.57 18.3,3.22 24.17,-4.25 -9.62,-7.61 -20.21,-13.97 -31.6,-18.51z"/>
  </g>
 </g>
</svg>
