<?xml version="1.0" encoding="UTF-8"?>
<!DOCTYPE svg PUBLIC "-//W3C//DTD SVG 1.1//EN" "http://www.w3.org/Graphics/SVG/1.1/DTD/svg11.dtd">
<!-- Creator: CorelDRAW -->
<svg xmlns="http://www.w3.org/2000/svg" xml:space="preserve" width="2000px" height="1600px" version="1.1" style="shape-rendering:geometricPrecision; text-rendering:geometricPrecision; image-rendering:optimizeQuality; fill-rule:evenodd; clip-rule:evenodd"
viewBox="0 0 2000 1600"
 xmlns:xlink="http://www.w3.org/1999/xlink">
 <defs>
  <style type="text/css">
   <![CDATA[
    .fil1 {fill:black;fill-rule:nonzero}
    .fil3 {fill:#A20046;fill-rule:nonzero}
    .fil2 {fill:#ACAEB1;fill-rule:nonzero}
    .fil0 {fill:#FEFEFE;fill-rule:nonzero}
   ]]>
  </style>
 </defs>
 <g id="Capa_x0020_1">
  <metadata id="CorelCorpID_0Corel-Layer"/>
  <g id="New_x0020_Mexico_x0020_State_x0020_Aggies.cdr">
   <path class="fil0" d="M852.5 273.45c12.09,5.99 24.69,10.97 36.62,17.32 -1.14,5.79 -1.85,11.63 -2.54,17.5 15.17,-3.05 30.61,-2.14 45.84,-0.31 -8.02,5.31 -15.44,11.46 -22.07,18.44 6.28,-0.02 12.55,-0.1 18.82,-0.08 4.35,6.1 8.66,12.25 12.93,18.39 19.71,-5.64 40.13,-9.01 59.43,-16.05 14.98,1.35 29.84,4.29 44.95,4.37 5.23,17.45 9.22,35.28 12.83,53.15 0.91,6.28 2.61,15.19 -4.07,19 -10.23,4.35 -21.79,2.11 -32.4,0.43 -6.71,-4.21 -15.57,3.43 -20.98,-2.66 -4.19,-8.61 2.41,-20.32 11.28,-23.04 6.93,-2.41 12.95,3.05 18.31,6.58 -0.94,-6.68 -4.68,-12.27 -10.34,-15.85 0.13,-7.87 1.09,-15.67 1.78,-23.52 -5.13,6.99 -9.35,14.56 -13.11,22.33 -16.53,4.54 -27.6,22.09 -24.4,38.98 -40.23,4.07 -63.14,43.99 -101.44,52.88 -15.39,3.99 -31.44,2.13 -46.86,-0.66 25.4,23.03 61.13,31.11 94.66,28.57 7.72,-2.41 11.86,5.64 17.95,8.53 12.75,6.78 28.24,4.12 40.36,-2.79 20.57,-11.53 43.78,-17.93 67.3,-19.2 -0.73,4.34 0.66,9.47 -1.93,13.31 -7.77,3.6 -16.56,3.88 -24.71,6.19 -15.87,3.89 -29.71,12.93 -44.95,18.47 -10.11,3.65 -21.01,2.97 -31.57,3.12 9.88,3.81 20.19,6.88 30.88,6.81 22.22,0.51 42.47,-10.46 64.43,-12.04 0.31,14.81 0.21,31.42 -10.18,43.2 -8.25,10.18 -21.61,13.76 -34.11,15.06 -16.89,2.39 -34.01,1.55 -50.87,-0.48 -31.49,-8.76 -60.82,-23.88 -88.76,-40.64 -15.75,-9.32 -30.53,-20.19 -44.45,-32.02 -6.6,-4.8 -8.12,-13.23 -10.43,-20.5 -6.05,-20.57 -8.74,-41.93 -13.82,-62.73 -2.23,26.36 -1.75,53.34 4.12,79.21 1.75,9.76 10.41,15.67 17.01,22.2 28.17,24.66 59.84,45.23 93.31,61.92 19.55,9.27 39.82,18.44 61.69,20.04 6.04,5.56 -1.73,11.83 -4.6,17.01 -52.32,-9.14 -103.57,-31.92 -140.7,-70.63 -17.06,-17.93 -30.8,-39.44 -37.64,-63.36 -5.35,-23.95 -4.16,-48.69 -4.57,-73.07 6.33,2.52 14.68,6.63 20.42,0.59 5.69,-7.77 4.01,-19.38 -1.42,-26.9 -0.84,6.1 0.51,13.56 -4.85,17.98 -15.06,-0.15 -25.4,-14.37 -28.72,-27.78 -3.1,-17.98 -14.94,-32.94 -18.26,-50.85 -1.86,-9.14 -1.55,-19.42 3.86,-27.35 3.68,-5.43 12.08,-6.78 17.24,-2.77 7.03,5.11 11.23,13.01 15.01,20.63 5.87,12.64 10.72,25.72 14.98,39 1.15,2.49 1.37,6.07 4.22,7.37 10.51,5.71 21.18,11.17 31.85,16.69 -3.71,-33.63 -1.27,-68.81 12.67,-99.99zm625.25 1217.96c26.26,0 52.52,0.1 78.8,-0.03 -1.12,6.37 -2.36,12.72 -3.53,19.12 -8.56,-0.05 -17.12,-0.05 -25.65,-0.02 0.18,-1.27 0.56,-3.79 0.74,-5.06 -4.24,-0.02 -8.51,-0.02 -12.73,0 -0.96,5.08 -1.98,10.14 -2.99,15.24 8.23,-0.02 16.48,-0.02 24.73,-0.05 -0.84,4.65 -1.65,9.35 -2.54,14 -8.22,-0.03 -16.48,-0.08 -24.68,0.12 -1.25,6.78 -2.49,13.56 -3.61,20.4 6.07,0.43 12.07,-0.28 16.81,-4.5 7.5,-0.46 15.04,-0.05 22.56,-0.18 -1.09,6.1 -2.21,12.22 -3.25,18.34 -26.32,0.1 -52.63,0.25 -78.94,-0.08 0.87,-4.62 1.73,-9.19 2.59,-13.76 2.92,-0.03 5.84,-0.03 8.79,0 2.95,-16.61 6.17,-33.15 9.09,-49.73 -2.18,0.1 -6.53,0.33 -8.71,0.43 0.79,-4.77 1.63,-9.52 2.52,-14.24zm-114.65 -0.03c35.43,0.18 70.89,-0.1 106.34,0.13 -1.27,6.27 -2.46,12.59 -3.58,18.92 -8.41,0.05 -16.81,0.02 -25.19,0.1 0.15,-1.32 0.45,-3.91 0.61,-5.23 -4.07,0.05 -8.08,0.1 -12.09,0.2 -2.77,16.51 -6.12,32.89 -8.89,49.42 2.16,-0.02 6.5,-0.02 8.68,-0.02 -0.89,4.65 -1.72,9.32 -2.64,13.99 -16.3,-0.02 -32.61,0.05 -48.89,-0.05 0.84,-4.57 1.63,-9.17 2.44,-13.74 2.97,-0.13 5.94,-0.2 8.94,-0.28 3.05,-16.53 6.1,-33.07 9.12,-49.6 -5.03,0.79 -12.98,-2.21 -13.67,5.21 -8.3,0.07 -16.58,0.05 -24.86,0 1.25,-6.38 2.41,-12.73 3.68,-19.05zm-64.83 0.08c16,0 32.02,-0.16 48.05,0.1 1.83,21.13 3.7,42.28 5.56,63.41 2.03,0 6.12,-0.05 8.18,-0.05 -0.87,4.63 -1.68,9.27 -2.47,13.95 -12.19,0.05 -24.38,-0.03 -36.54,0.05 -0.18,-4.91 -0.41,-9.81 -0.74,-14.68 -6.45,0 -12.9,0 -19.35,0.38 -1.86,4.72 -3.38,9.65 -5.95,14.09 -11.98,0.51 -23.97,0 -35.96,0.21 0.71,-4.65 1.48,-9.25 2.21,-13.85 2.87,-0.1 5.77,-0.17 8.66,-0.25 9.65,-21.03 18.87,-42.26 28.35,-63.36zm9.01 48.91l0 0c4.14,-0.05 8.28,-0.05 12.42,-0.08 -0.02,-9.62 -0.79,-19.22 -0.84,-28.85 -4.21,9.5 -8.07,19.15 -11.58,28.93zm-131.91 -48.94c35.45,0.08 70.91,-0.18 106.36,0.13 -1.27,6.25 -2.41,12.54 -3.5,18.87 -8.46,0.05 -16.92,0.02 -25.35,0.07 0.2,-1.27 0.61,-3.83 0.81,-5.1 -4.01,-0.03 -8.02,-0.03 -12.01,0 -3.17,16.51 -6.17,33.04 -9.14,49.6 2.18,-0.03 6.55,-0.1 8.73,-0.13 -0.86,4.68 -1.72,9.4 -2.59,14.1 -16.27,-0.28 -32.55,0.15 -48.83,-0.26 0.78,-4.57 1.62,-9.09 2.41,-13.64 2.97,-0.12 5.97,-0.25 8.99,-0.35 2.82,-16.48 6.1,-32.86 8.89,-49.32 -3.81,-0.03 -7.59,0 -11.38,0.08 -0.53,1.16 -1.62,3.52 -2.16,4.72 -8.3,0.69 -16.63,0.18 -24.94,0.18 1.37,-6.3 2.54,-12.65 3.71,-18.95zm-90.08 10.46c4.98,-7.87 15.46,-10.05 24.2,-10.43 19.18,0 38.33,-0.23 57.5,0.17 -1.24,6.2 -2.39,12.42 -3.48,18.67 -10.31,0.31 -20.62,0.05 -30.91,0.33 0,-1.29 0.03,-3.91 0.05,-5.21 -5.58,-0.02 -11.15,-0.07 -16.68,-0.07 -0.77,3.63 -1.53,7.29 -2.24,10.99 14.86,6.66 31.27,10.54 44.57,20.2 -1.32,7.77 -1.67,15.94 -4.64,23.31 -6.38,7.42 -17.05,9.24 -26.37,9.09 -18.21,-0.18 -36.41,0.15 -54.62,-0.23 1.21,-6.07 2.36,-12.14 3.42,-18.21 10.39,-0.02 20.78,-0.02 31.19,-0.02l-0.46 4.42c5.64,0 11.25,0.05 16.92,0.12 0.89,-4.57 1.78,-9.16 2.61,-13.71 -12.85,-5.66 -26.13,-10.26 -38.83,-16.18 -9.75,-4.21 -3.17,-15.72 -2.23,-23.24zm-121.98 -9.52c13.05,-2.01 26.36,-0.48 39.51,-0.99 8.72,-0.03 19.74,0.99 24.56,9.45 -2.89,18.77 -6.68,37.41 -10.13,56.1 -0.61,4.65 -5.44,6.83 -9.17,8.68 -11.2,5.11 -23.74,2.77 -35.61,3.28 -11.78,-0.13 -25.93,1.88 -34.79,-7.75 0.1,-12.92 4.24,-25.54 6.02,-38.32 1.57,-7.34 2.01,-14.96 4.62,-22.02 3.46,-4.85 9.48,-6.93 14.99,-8.43zm15.16 12.93l0 0c-3.43,16.45 -6.17,33.09 -9.35,49.62 5.69,0 11.41,-0.02 17.14,0 3.18,-16.48 6.05,-33.01 9.17,-49.5 -5.66,-0.02 -11.32,-0.07 -16.96,-0.12zm-99.38 -13.64c20.65,-0.51 41.35,-0.25 62.02,-0.05 -1.24,6.25 -2.41,12.54 -3.51,18.82 -10.36,0.07 -20.72,-0.08 -31.06,0.23 0.08,-1.3 0.23,-3.92 0.31,-5.24 -5.61,-0.02 -11.23,-0.07 -16.81,-0.07 -3.1,16.53 -6.2,33.06 -9.12,49.62 5.87,-1.65 16.51,3.76 18.61,-4.47 10.21,-0.05 20.45,-0.02 30.66,0 -1.14,6.12 -2.24,12.27 -3.43,18.42 -20.19,-0.23 -40.41,0.3 -60.6,-0.23 -6.29,-1.04 -14.52,-2.69 -17.16,-9.25 2.46,-17.98 6.45,-35.73 9.47,-53.61 1.06,-9.75 12.52,-12.77 20.62,-14.17zm-75.27 -0.18c16.3,-0.1 32.6,-0.02 48.88,-0.05 -0.84,4.67 -1.72,9.35 -2.56,14.05 -2.19,-0.03 -6.55,-0.06 -8.74,-0.08 -3,16.48 -6.07,32.96 -9.09,49.47 3.12,-0.07 6.25,-0.07 9.4,0.03 -1.38,4.62 -2.42,9.34 -3.46,14.07 -16.23,-0.16 -32.46,-0.1 -48.68,-0.03 0.86,-4.7 1.72,-9.37 2.61,-14.07 2.21,0.03 6.61,0.03 8.82,0.05 2.89,-16.48 6.01,-32.94 9.01,-49.39 -2.92,-0.13 -5.87,-0.28 -8.79,-0.39 0.89,-4.57 1.76,-9.11 2.6,-13.66zm-105.5 -0.13c11.3,0.13 22.6,0.03 33.9,0.13 3.1,9.14 6.37,18.24 9.65,27.33 6.83,-9.07 13.31,-18.36 20.09,-27.46 11.17,0.16 22.35,-0.05 33.52,0.23 -0.88,4.55 -1.75,9.09 -2.56,13.72 -2.95,0 -5.87,0.07 -8.79,0.18 -5.64,7.84 -11.38,15.61 -17.09,23.41 2.64,8.64 5.41,17.25 7.92,25.91 2.95,0.02 5.87,0.05 8.82,0.1 -0.89,4.62 -1.73,9.29 -2.59,13.94 -11.38,0.08 -22.74,0 -34.09,0.08 -2.97,-9.58 -6.02,-19.15 -9.14,-28.68 -7.06,9.3 -13.21,19.25 -20.01,28.73 -11.33,-0.16 -22.63,-0.08 -33.96,-0.08 0.92,-4.6 1.78,-9.19 2.62,-13.76 2.99,-0.16 6.02,-0.28 9.04,-0.36 5.41,-8.76 11.96,-16.81 16.96,-25.8 -2.28,-8.05 -5.56,-15.77 -8.35,-23.65 -2.11,0.03 -6.3,0.05 -8.38,0.08 0.76,-4.73 1.62,-9.37 2.44,-14.05zm-87.17 0.06c26.29,0.1 52.55,-0.11 78.84,0.12 -1.2,6.25 -2.39,12.55 -3.51,18.87 -8.51,0.08 -17.02,0.05 -25.52,0.1 0.15,-1.27 0.48,-3.86 0.63,-5.13 -4.26,0 -8.51,0 -12.77,0.03 -1.02,5.05 -1.93,10.16 -2.95,15.24 8.2,0 16.41,0 24.61,0 -0.76,4.62 -1.62,9.27 -2.41,13.91 -8.26,0.03 -16.48,0.03 -24.74,0.11 -1.19,6.75 -2.44,13.53 -3.76,20.29 5.49,-0.21 12.22,1.7 15.14,-4.37 8.13,-0.15 16.28,-0.13 24.41,-0.08 -1.17,6.1 -2.34,12.27 -3.48,18.42 -26.26,-0.11 -52.52,0.07 -78.78,-0.11 0.88,-4.74 1.82,-9.47 2.76,-14.17 2.09,0.16 6.23,0.49 8.28,0.64 3.66,-16.54 6.25,-33.27 9.42,-49.88 -2.18,0 -6.52,0.02 -8.68,0.02 0.81,-4.67 1.63,-9.37 2.51,-14.01zm-129.55 0.12c12.8,-0.18 25.63,-0.1 38.43,-0.07 6.37,6.32 12.44,12.95 18.62,19.53 8.66,-6.38 17.22,-12.91 25.7,-19.53 12.8,-0.05 25.6,-0.05 38.4,0 -0.87,4.57 -1.65,9.14 -2.44,13.74 -3,0.1 -5.97,0.2 -8.94,0.3 -2.97,16.51 -6.2,32.94 -8.99,49.47 2.16,-0.02 6.45,-0.05 8.61,-0.07 -0.81,4.67 -1.63,9.37 -2.47,14.07 -13.38,-0.18 -26.74,-0.05 -40.12,-0.08 2.72,-15.62 5.81,-31.16 8.43,-46.78 -7.87,5.36 -15.44,11.15 -23.19,16.66 -5.59,-5.77 -11.45,-11.23 -17.39,-16.56 -2.92,15.47 -5.26,31.09 -8.74,46.48 -13.33,0.56 -26.67,-0.03 -40,0.25 0.86,-4.67 1.78,-9.29 2.64,-13.94 2.92,-0.08 5.87,-0.1 8.81,-0.13 2.92,-16.51 6.07,-32.99 9.07,-49.5 -2.16,0.03 -6.45,0.08 -8.58,0.08 0.73,-4.65 1.42,-9.3 2.15,-13.92zm-187.09 -0.15c12.85,0.08 25.67,0.05 38.5,0.03 -0.92,10.76 -1.4,21.58 -1.27,32.43 8.2,-10.11 15.06,-21.18 22.93,-31.52 3.86,10.56 6.73,21.46 10.9,31.92 3.93,-10.87 7.36,-21.86 11.04,-32.78 12.68,-0.03 25.35,-0.08 38.05,0.05 -0.87,4.57 -1.7,9.14 -2.52,13.76 -2.97,0.05 -5.94,0.15 -8.91,0.28 -7.52,21.16 -15.11,42.26 -22.78,63.37 -9.86,-0.05 -19.68,-0.03 -29.54,-0.05 -2.11,-7.8 -3.15,-16.69 -5.76,-23.88 -6.45,6.5 -10.21,16.23 -15.7,23.95 -9.83,-0.1 -19.66,-0.07 -29.51,-0.05 -0.43,-21.15 1.12,-42.28 0.61,-63.44 -2.13,-0.05 -6.42,-0.13 -8.56,-0.18 0.84,-4.65 1.7,-9.27 2.52,-13.89zm-87.12 0.03c26.26,0.1 52.53,-0.11 78.79,0.1 -1.2,6.27 -2.34,12.57 -3.46,18.89 -8.53,0.1 -17.04,0.05 -25.57,0.1 0.15,-1.27 0.48,-3.86 0.63,-5.15 -4.26,0.02 -8.51,0.02 -12.77,0.05 -1.02,5.05 -1.93,10.16 -2.97,15.24 8.22,0 16.43,0 24.63,0 -0.79,4.62 -1.6,9.27 -2.41,13.94 -8.26,0 -16.48,0 -24.74,0.08 -1.19,6.78 -2.44,13.56 -3.76,20.36 5.34,-0.43 12.42,1.83 15.09,-4.47 8.15,-0.12 16.3,-0.07 24.46,-0.07 -1.12,6.14 -2.26,12.29 -3.48,18.44 -26.29,-0.13 -52.55,0.12 -78.84,-0.16 0.94,-4.67 1.86,-9.32 2.82,-13.94 2.11,0.08 6.3,0.23 8.41,0.31 3.45,-16.51 6.27,-33.17 9.3,-49.76 -2.16,0.03 -6.51,0.05 -8.67,0.08 0.84,-4.7 1.68,-9.37 2.54,-14.04zm-106.13 0c12.09,0.07 24.18,-0.13 36.27,0.17 5.05,9.96 10.41,19.76 15.69,29.62 1.98,-9.88 3.76,-19.79 5.46,-29.69 13.44,-0.13 26.85,-0.13 40.28,0 -0.86,4.54 -1.67,9.09 -2.46,13.69 -2.97,0.07 -5.92,0.17 -8.89,0.3 -3.1,16.48 -6.12,32.96 -9.02,49.5 2.14,-0.03 6.46,-0.05 8.61,-0.08 -0.81,4.65 -1.65,9.35 -2.48,14.05 -12.04,-0.21 -24.11,0.1 -36.14,-0.26 -5.16,-9.98 -10.32,-19.96 -15.9,-29.71 -1.83,9.9 -3.71,19.81 -5.41,29.76 -13.44,0.23 -26.85,0.13 -40.28,0.08 0.86,-4.67 1.8,-9.35 2.66,-13.97 2.92,0.03 5.82,0.05 8.74,0.1 2.97,-16.56 6.15,-33.09 9.04,-49.65 -2.18,0.03 -6.5,0.13 -8.66,0.16 0.81,-4.73 1.65,-9.4 2.49,-14.07zm1287.49 -285.03c8.11,-18.92 28.12,-29.52 46.79,-35.66 10.43,12.14 25.6,18.51 40.78,22.25 16.41,4.06 32.89,8.63 49.88,9.24 7.29,-0.35 13.41,3.94 19.91,6.53 14,6.02 29.82,9.4 44.75,4.82 -0.25,3.51 -0.56,6.99 -0.78,10.52 -17.22,0.35 -34.44,-0.43 -51.64,0.15 -7.51,-0.13 -12.31,6.5 -18.1,10.21 -0.84,-0.41 -2.52,-1.19 -3.38,-1.6 0.48,-3.71 1.06,-7.37 1.8,-11.02 6.43,-4.4 12.37,-9.42 18.03,-14.76 -25.62,-0.15 -51.25,0.08 -76.87,-0.12 -4.09,20.18 -8.03,40.43 -10.97,60.79 5.76,-2.23 11.53,-4.52 17.24,-6.93 25.47,14.1 50.62,28.85 75.91,43.3 12.83,7.55 27.07,13.72 36.37,25.88 -4.5,1.76 -8.94,3.56 -13.41,5.36 1.32,6.68 2.13,13.54 0.61,20.29 -3.73,18.67 -6.78,37.46 -10.36,56.16 -2.24,11.88 -13.51,18.76 -23.27,24.2 -11.17,6.02 -23.84,9.07 -36.54,8.51 -42.31,-0.23 -84.65,-0.03 -126.99,-0.15 -11.4,-1.17 -18.97,8.53 -26.79,15.11 4.37,-23.93 9.12,-47.8 13,-71.83 27.86,1.83 55.8,-0.71 83.63,1.32 -4.9,4.8 -10.87,8.82 -14.5,14.76 -1.77,5.03 -2.13,10.41 -2.99,15.7 6.22,-4.22 11.86,-9.48 18.79,-12.58 14.96,-2.43 30.25,0.77 45.26,-1.65 3.25,-15.92 5.61,-32.02 9.19,-47.9 5.66,-3.2 11.3,-6.5 16.94,-9.8 -32.33,-18.03 -64.2,-36.88 -96.46,-55.01 -7.18,-3.99 -13.46,-9.39 -20.59,-13.41 -3.97,1.04 -7.72,2.67 -11.48,4.19 -1.02,-0.84 -3.08,-2.51 -4.09,-3.35 -3.61,-8.33 -0.2,-17.19 1.04,-25.57 3.3,-15.95 5.31,-32.18 9.29,-47.95zm-238.65 -2.39c1.98,-12.19 4.39,-24.31 6.73,-36.42 71.95,0.28 143.87,-0.25 215.82,0.25 -5.84,4.96 -12.49,9.17 -17.11,15.37 -4.45,13.08 -4.19,27.33 -8.46,40.51 -12.9,3.02 -26.26,-0.43 -39.27,1.6 -7.33,2.89 -12.8,9.04 -18.89,13.81 1.09,-5.56 2.13,-11.12 3.3,-16.68 6.45,-4.75 12.6,-9.86 18.46,-15.29 -21.96,-0.28 -43.93,-0.05 -65.9,-0.13 -5.05,28.67 -10.77,57.19 -15.7,85.89 6.48,-4.62 12.78,-9.47 18.8,-14.68 22.73,0.08 45.51,-0.81 68.22,0.51l-1.91 1.14c-5.84,3.81 -12.55,6.89 -16.86,12.58 -3.08,7.87 -3.74,16.45 -5.54,24.68 -22.43,-0.3 -44.88,-0.48 -67.33,0.1 -6.17,34.26 -12.75,68.47 -18.54,102.78 7.72,-5.15 15.93,-10.61 19.1,-19.83 0.46,1.22 1.35,3.68 1.8,4.93 10.49,0.12 20.98,-0.21 31.47,0.1 1.32,-5.97 2.44,-11.96 3.61,-17.93 23.59,0.05 47.19,0.02 70.78,0.02 -0.15,0.94 -0.43,2.82 -0.59,3.76 -7.41,2.9 -16.48,6.68 -18.03,15.54 -2.94,12.5 -4.57,25.28 -7.26,37.82 -58.97,-0.15 -117.94,0.13 -176.92,-0.15 -11.48,-1.25 -19.09,8.61 -26.92,15.21 3.46,-18.11 6.71,-36.27 10.06,-54.37 8.03,-0.05 16.03,-0.05 24.05,0 10.36,-55.98 20.47,-112 30.99,-167.93 1.06,-5 2.18,-9.98 3.3,-14.93 6.14,-4.77 12.11,-9.73 17.88,-14.96 -7.88,-0.2 -15.9,-1.19 -23.67,0.41 -6.22,2.92 -11.36,7.64 -16.97,11.55 0.43,-5.13 0.89,-10.18 1.5,-15.26zm-160.18 18.97c2.8,-18.51 6.66,-36.83 9.83,-55.26 44.73,-0.03 89.42,-0.31 134.12,0.12 -5.81,4.98 -12.47,9.25 -17.06,15.44 -2.82,7.5 -3.33,15.62 -4.78,23.47 -8.05,0.21 -16.1,0.38 -24.13,0.56 -13.28,70.83 -26.08,141.71 -39.16,212.57 7.77,-5.53 17.65,-10.46 19.73,-20.72 -0.35,1.5 -1.04,4.52 -1.39,6.02 7.87,-0.1 15.74,-0.08 23.64,-0.08 -0.23,1.7 -0.66,5.06 -0.89,6.73l-0.33 -0.68c-0.43,-0.97 -1.32,-2.85 -1.75,-3.81 -5.03,4.26 -11,7.79 -14.68,13.38 -2.67,7.64 -3.45,15.77 -4.9,23.72 -31.92,-0.02 -63.85,0 -95.75,-0.13 -10.87,-0.96 -18.05,8.28 -25.65,14.43 2.09,-18.03 6.5,-35.68 9.22,-53.61 8.08,-0.03 16.15,-0.03 24.26,-0.1 11.09,-60.83 22.07,-121.66 33.65,-182.35 6.5,-4.98 12.82,-10.16 19.07,-15.47 -8.1,-0.13 -16.28,-0.97 -24.28,0.41 -7.06,2.81 -12.04,8.99 -17.47,14.06l-1.3 1.3zm-216.66 -40.51c13.23,-8.33 28.5,-14.58 44.4,-14.25 53,0.21 106.03,-0.2 159.06,0.23 -6.71,5.9 -16.56,10.26 -18.26,19.94 -2.75,11.96 -4.4,24.13 -6.63,36.19 -17.78,0.69 -35.53,-0.13 -53.29,0.25 -7.64,-0.15 -12.8,6.48 -19.35,9.35 -0.84,-0.25 -2.51,-0.79 -3.35,-1.04 0.69,-2.69 2.06,-8.08 2.74,-10.77 5.84,-4.39 11.43,-9.12 16.74,-14.15 -24.3,-0.88 -48.64,-0.58 -72.94,-0.17 -11.43,61 -22.32,122.08 -33.8,183.08 -1.96,9.6 -3.58,19.25 -4.63,29.01 6.25,-4.73 12.3,-9.71 18.11,-14.96 14.07,-0.13 28.17,-0.15 42.26,0.05 2.57,-11.15 4.22,-22.45 6.43,-33.65 2.11,-10.64 12.21,-16.13 19.27,-23.24 -7.21,-0.13 -14.7,-1.58 -21.74,0.46 -5.66,2.89 -10.43,7.21 -15.69,10.74l-1.3 -2.13c2.14,-16.61 5.92,-32.94 8.71,-49.45 37.08,0.05 74.16,-0.13 111.24,0.1 -6.73,6.04 -16.76,10.51 -18.64,20.22 -7.21,38.73 -13.94,77.53 -21.51,116.19 -41.37,-0.08 -82.72,-0.08 -124.09,-0.05 -14.17,-0.11 -29.28,1.62 -42.28,-5.26 -7.88,-3.3 -13.39,-9.96 -18.04,-16.81 -4.57,2.48 -9.14,5 -13.68,7.51 -2.49,-10.21 0.81,-20.39 2.48,-30.42 11.54,-62.53 23.01,-125.06 34.49,-187.61 2.11,-13.08 12.85,-22.37 23.29,-29.36zm-257.73 13.97c13.92,-15.82 34.37,-26.06 55.32,-28.09 54.75,-0.1 109.51,-0.18 164.27,0.05 -5.95,5.11 -13.49,9.09 -17.48,16.05 -3.37,13.13 -4.72,26.72 -7.36,40 -17.73,0.87 -35.46,-0.05 -53.16,0.36 -10.05,-0.03 -16.51,9.22 -23.87,14.7 1.14,-5.86 2.23,-11.73 3.43,-17.57 6.35,-3.68 11.81,-8.61 17.06,-13.69 -24.53,-0.66 -49.16,-1.29 -73.67,0.33 -11.53,70.48 -26.49,140.37 -37.69,210.92 6.32,-4.37 12.42,-9.07 18.11,-14.22 14.12,-0.36 28.21,-0.13 42.33,-0.13 2.39,-12.01 4.45,-24.07 6.66,-36.09 3.48,-9.14 12.42,-14.12 19.05,-20.72 -7.22,-0.25 -14.63,-1.35 -21.74,0.3 -7.17,3.41 -12.8,9.17 -18.72,14.3 3.86,-18.21 6.3,-36.7 10.51,-54.8 37.54,-0.26 75.1,-0.41 112.64,0.1l-1.47 1.06c-6.86,5.26 -17.45,8.94 -18.77,18.67 -7.01,38.86 -14.12,77.69 -21.46,116.5 -46.35,-0.1 -92.7,-0.18 -139.05,0.02 -17.55,1.04 -36.5,-6.04 -45.39,-21.99 -4.59,2.36 -9.17,4.77 -13.74,7.19 -0.99,-4.86 -1.7,-9.83 -0.43,-14.68 11.86,-64.31 23.7,-128.64 35.51,-192.97 1.55,-8.94 2.56,-18.67 9.11,-25.6zm1003.99 -44.9c2.59,-5.69 9.6,-9.98 15.75,-7.14 13.28,4.6 24.51,13.79 38.17,17.55 -1.67,6.12 -1.55,14.22 -8.1,17.45 -6.93,3.15 -14.86,2.03 -22.2,1.73 -2.11,-1.12 -4.16,-2.26 -6.17,-3.41 3.73,-2.59 6.91,-5.86 9.85,-9.34 -6.7,0.61 -15.49,6.52 -20.92,0.23 -4.02,-4.58 -8.76,-10.65 -6.38,-17.07zm-1261.76 -51.07c34.51,-0.26 69,-0.16 103.51,-0.06 7.75,22.96 27.51,38.33 45.49,53.21l-0.03 0.86c-0.33,84.4 2.72,168.74 3,253.11 5.44,-4.65 10.34,-10.03 16.53,-13.64 7.88,-1.45 15.93,-0.38 23.85,-0.05 -5,4.55 -10.74,8.46 -14.83,13.92 -3.96,11.83 -4.65,24.46 -7.29,36.65 -29.38,-0.1 -58.79,-0.03 -88.18,-0.13 -9.77,-1.09 -16,7.59 -23.03,12.77 -0.1,-2.41 -0.31,-7.23 -0.41,-9.67 0.36,-18.54 1.32,-37.06 2.21,-55.57 5.77,-4.88 11.38,-9.91 16.84,-15.09 -30.53,-0.43 -61.05,-0.4 -91.58,-0.02 -8,22.52 -15.47,45.28 -23.8,67.71 -28.62,-0.13 -57.27,-0.03 -85.89,-0.13 -10.89,-1.04 -18.44,7.9 -26.62,13.49 3.89,-21.87 7.95,-43.69 11.99,-65.53 9.5,0.15 19,0.05 28.47,0.15 36.75,-97.27 73.32,-194.59 109.77,-291.98zm38.19 125.66l0 0c-12.52,37.99 -26.82,75.43 -38.29,113.75 7.05,-4.29 14.5,-8.28 20.31,-14.25 13.67,0.18 27.3,0.11 40.97,0.06 1.19,-42.11 2.36,-84.22 2.99,-126.3 2.85,-11.1 3.43,-22.58 5.36,-33.83 2.19,-17.02 6.2,-33.8 7.01,-50.97 -12.9,37.13 -25.45,74.38 -38.35,111.54zm1321.58 -151.75c3.76,1.88 7.54,3.89 11.3,5.9 -0.71,8.17 1.42,19.12 -6.8,24.27 -7.8,4.63 -17.43,2.65 -25.99,2.44 -4.16,-1.98 -7.44,-5.31 -10.76,-8.35 13.71,-2.57 28.42,-9.55 32.25,-24.26zm-128.33 -1.19c6.43,-5.56 17.52,-4.19 22.55,2.56 4.24,8.41 6.1,18.24 12.78,25.27 12.87,13.77 27.58,25.99 44.03,35.31 -5.46,2.59 -11.14,4.75 -17.11,5.68 -11.48,-6.34 -24.43,-11.8 -37.74,-8.05 -8.48,-9.47 -16.1,-19.63 -22.3,-30.73 5.08,-0.78 10.34,-1.39 15.01,-3.81 -5.72,-1.87 -12.73,-1.37 -17.4,-5.51 -2.36,-6.42 -4.52,-14.88 0.18,-20.72zm24.23 -29.41c10,-6.65 23.29,0.53 28.11,10.29 6.89,13.48 12.12,28.87 24.48,38.47 5.29,3.91 10.04,8.43 14.58,13.16 -1.85,3.96 -2.44,9.01 -6.14,11.78 -3.89,2.08 -8.31,2.87 -12.47,4.14 -14.43,-12.21 -32.97,-22.75 -38.89,-41.85 2.92,-1.5 5.9,-3 8.82,-4.55 -11.03,0.43 -15.22,-10.41 -24.51,-13.66 -0.71,-6.38 -0.51,-14.45 6.02,-17.78zm256.43 -42.62c43.91,6.61 87.62,14.68 131.35,22.4 0.03,4.73 0.05,9.45 0.03,14.2 -2.11,-3.45 -4.12,-6.98 -6.07,-10.49 -41.73,-8.96 -83.63,-16.94 -125.31,-26.11zm-305.88 -11.75c15.16,-13.39 36.04,-5.72 54.04,-8.01 25.68,-2.74 52.17,2.11 75.31,13.54l-0.36 1.04c-7.03,15.77 -6.63,33.65 -2.31,50.09 -9.35,-0.08 -17.78,4.92 -22.53,12.95 11.23,-4.83 24.38,-7.9 35.53,-1.09 1.02,4.67 2.01,9.37 2.57,14.17 -2.41,9.67 -12.52,14.73 -21.82,14.78 -13.61,-2.47 -20.14,-16.46 -25.27,-27.79 -5.38,-11.73 -7.85,-26.92 -20.34,-33.42 -11.68,-5.43 -23.59,2.06 -33.65,7.57 -12.42,7.21 -25.93,15.9 -41.04,12.27l1.32 3.73c1.9,8.79 12.57,9.52 19.1,13.61 -5.87,4.55 -9.88,11.36 -9.25,18.97 0.89,8.66 -5.76,15.01 -9.75,21.97 -9.17,-17.37 -17.75,-35.37 -21.44,-54.8 -5.25,-21.49 4.37,-44.7 19.89,-59.58zm-418.01 -45.21c6.63,0.91 13.29,1.75 19.97,2.39 -0.13,1.34 -0.39,4.01 -0.49,5.33 -4.19,-1.02 -8.23,-2.59 -12.34,-3.73 -0.84,4.31 -1.6,8.66 -2.41,13 2.99,0.94 5.97,1.96 8.94,3 -3.53,0.5 -7.06,0.96 -10.59,1.34 -1.2,5.08 -2.37,10.16 -3.46,15.24 4.17,-0.28 8.38,-0.79 12.47,-1.83 -0.1,1.45 -0.33,4.4 -0.43,5.87 -6.83,-0.71 -13.64,-1.58 -20.49,-2.01 6.09,-8.48 7.11,-19.15 9.75,-28.95 1.06,-3.28 -0.15,-6.53 -0.92,-9.65zm-38.83 -0.46c0.89,-0.91 2.64,-2.74 3.51,-3.66 9.34,0.18 18.51,2.24 27.83,3.03 -0.33,1.67 -0.96,5.03 -1.29,6.68 -0.97,-0.94 -2.9,-2.82 -3.86,-3.76 -2.47,-0.41 -4.93,-0.79 -7.37,-1.2 -1.96,11.86 -8.15,23.47 -5.99,35.69 -3.1,-0.54 -6.15,-1.09 -9.17,-1.68 5.28,-11 7.21,-23.11 10.21,-34.82 -4.65,-0.13 -9.25,-0.15 -13.87,-0.28zm-18.67 -6.45c3.74,0.18 7.5,0.38 11.26,0.64 -0.64,10.94 -1.6,21.86 -2.8,32.76 0.76,2.03 1.53,4.06 2.31,6.12 -2.64,-0.05 -5.25,-0.08 -7.84,-0.08 0.12,-2.97 0.27,-5.92 0.45,-8.86 -2.49,-0.25 -7.46,-0.74 -9.95,-0.99 -1.1,2.56 -2.19,5.15 -3.25,7.72 -1.6,-0.1 -4.83,-0.31 -6.43,-0.41 7.19,-11.45 11.3,-24.4 16.25,-36.9zm-5.35 26.52l0 0c3.12,0.4 6.24,0.81 9.37,1.24 0.15,-8.56 4.8,-18.08 0.28,-25.93 -3.86,7.95 -6.71,16.36 -9.65,24.69zm-33.78 -31.93c10.11,1.02 20.19,2.19 30.17,4.07 -0.71,1.37 -2.13,4.11 -2.82,5.48 -2.41,-3.68 -6.7,-3.78 -10.59,-4.24 -2.29,10.18 -4.93,20.27 -7.34,30.43 0.81,1.09 2.46,3.25 3.28,4.34 -4.07,-0.23 -8.1,-0.36 -12.14,-0.81 7.54,-10.16 7.79,-23.45 11.22,-35.2 -4.14,-0.23 -8.28,-0.23 -11.73,2.36 0,-1.6 -0.03,-4.83 -0.05,-6.43zm-30.71 10.26c1.68,-4.21 0.74,-10.99 5.62,-13 6.02,-0.41 12.01,0.84 18,1.42 -0.33,1.5 -0.99,4.5 -1.32,5.99 -4.82,-1.98 -9.62,-4.08 -14.75,-5.05 -0.77,3.33 -1.48,6.68 -2.19,10.06 4.29,3.76 8.56,7.62 12.83,11.45 -1.91,5.06 -0.87,13.61 -7.47,15.06 -5.94,-0.2 -11.81,-1.32 -17.65,-2.21 1.32,-1.9 2.67,-3.83 4.04,-5.69 3.94,2.75 8.35,4.45 13.15,4.93 0.87,-3.48 1.76,-6.96 2.67,-10.41 -4.11,-4.4 -8.38,-8.61 -12.93,-12.55zm-547.98 -40.23c14.83,-11.07 34.13,-6.5 50.74,-3.1 17.73,4.45 35.96,1.02 53.81,-0.38 5.79,9.07 18.24,16.36 14.86,28.8 -5.41,11.18 -11.88,22.35 -12.93,35.03 -1.24,16.2 4.07,31.84 7.83,47.39 -0.36,18.92 6.7,38.42 20.57,51.6 3.86,3.76 6.12,8.71 8.05,13.69 -5.59,-0.25 -11.4,-0.33 -16.56,-2.74 -20.85,-9.3 -39.49,-22.93 -60.75,-31.32 2.49,8.08 5.38,16.26 11,22.76 5.92,6.98 11.93,14.07 14.83,22.96 -22.66,-2.82 -41.8,-16.56 -59.1,-30.5 -0.3,11.45 -0.66,23.62 4.98,34 3.38,6.33 5.38,13.21 5.87,20.37 -6.89,0.33 -13.74,0.33 -20.6,0.15 -16.38,-21.61 -17.47,-50.08 -28.22,-74.21 -13.96,-21.43 -28.59,-44.69 -28.44,-71.18 3.76,-23.9 14.52,-48.21 34.06,-63.32zm-55.6 -17.52c19.2,-21.39 49.09,-28.88 76.88,-29.49 2.84,6.1 5.84,12.12 8.96,18.09 -17.52,-1.5 -35.65,3.02 -49.06,14.73 -22.68,20.24 -35.56,50.1 -37.44,80.22 -6.07,-7.08 -12.77,-13.61 -18.79,-20.72 -2.52,-22.2 4.32,-46.07 19.45,-62.83zm701.69 -49.75c6.58,0.78 13.16,1.67 19.73,2.54 3.54,10.69 7.17,21.36 10.54,32.1 9.27,-8.61 17.3,-18.41 26.19,-27.41 6.17,0.87 12.37,1.63 18.59,2.37 -0.33,5.84 -2.72,10.21 -9.14,10.23 -5.34,23.7 -11.46,47.21 -17.3,70.78 1.47,0.61 4.47,1.83 5.94,2.44 -0.76,2.92 -1.49,5.87 -2.23,8.81 -6.12,-0.73 -12.22,-1.5 -18.31,-2.23 5.81,-24.41 12.16,-48.66 17.8,-73.12 -9.45,8.41 -17.32,18.34 -26.67,26.85 -3.58,-10.09 -6.88,-20.25 -10.99,-30.1 -7.37,23.32 -12.14,47.39 -18.11,71.09 -6.17,-0.59 -12.29,-1.3 -18.41,-2.06 0.68,-3.13 1.34,-6.22 2.03,-9.32 1.62,0.1 4.85,0.28 6.45,0.38 5.82,-24.08 11.91,-48.08 17.68,-72.18 -6.89,-0.71 -4.83,-6.4 -3.79,-11.17zm-69.43 -9.22l0.91 0.13c5.41,0.83 10.85,1.52 16.28,2.31 3.05,20.31 4.77,40.83 8.84,61 4.7,-19.3 9.78,-38.53 14.17,-57.91 6.22,0.77 12.44,1.4 18.67,2.21 -0.72,3.08 -1.4,6.12 -2.06,9.22 -1.63,-0.07 -4.85,-0.2 -6.48,-0.25 -5.91,23.8 -11.76,47.64 -17.6,71.47 5.82,1.88 4.65,7.23 4.02,11.96 -5.95,-0.81 -11.86,-1.63 -17.78,-2.47 -2.72,-20.87 -5.39,-41.72 -8.41,-62.55 -5.31,19.84 -9.75,39.88 -15.08,59.71 -6.1,-0.84 -12.17,-1.68 -18.24,-2.46 0.74,-3.1 1.45,-6.2 2.16,-9.3 1.63,0.03 4.9,0.08 6.55,0.1 5.74,-24.02 11.51,-48.05 17.81,-71.92 -1.58,-0.54 -4.7,-1.55 -6.28,-2.06 0.84,-3.07 1.68,-6.14 2.52,-9.19zm283.43 -228.68c7.33,-15.77 19.02,-28.92 30.9,-41.39 32.33,11.76 67.1,22.35 92.4,46.83l0.23 1.4c2.18,14.12 6.35,27.86 8.3,42.03 6.93,46.37 6.1,94.78 -8.66,139.61 -4.49,14.47 -12.52,27.4 -19.66,40.68 15.88,-2.67 30.15,-10.31 43.79,-18.49 0.45,23.42 -2.16,46.96 -8.94,69.44 -18.21,-0.94 -36.75,0.83 -53.34,8.89 7.27,5 14.12,10.61 19.86,17.37 -23.49,7.95 -46.22,21.08 -60.72,41.72 -7.85,10.7 -12.72,23.27 -15.26,36.22 1.57,-1.75 3.1,-3.53 4.59,-5.36 12.6,-8.94 24.79,-18.72 38.91,-25.27 25.53,-12.82 55.04,-14.2 83.02,-11.71 30.33,6.53 60.37,14.71 90.85,20.57 -25.47,4.45 -44.06,25.48 -52.06,49.1 -13.13,31.26 -0.16,65.32 13.91,93.81 -12.82,-1.55 -25.7,-2.46 -38.58,-3.15 -9.01,-34.05 -14.62,-72.5 1.76,-105.27 6.5,-14.12 18.87,-24.33 32.73,-30.8 -19.37,0.99 -37.18,13.08 -44.87,30.93 -14.91,32.43 -11.35,70 -3.53,103.85 -41.3,-3.38 -82.64,-7.16 -123.41,-14.78 -10.69,-1.81 -21.43,-5.69 -28.82,-13.97 -20.14,-21.59 -30.91,-49.6 -46.15,-74.46l-0.99 -1.6c29.72,-37.34 42.44,-84.83 50.67,-130.92 18.97,-33.5 35.17,-71.78 28.24,-111.12 -19.2,40.94 -46.07,78.53 -80.79,107.74 -1.8,-60.02 9.96,-119.24 20.93,-177.93 5.59,-28.63 11.76,-57.63 24.69,-83.97zm-467.05 -106.51c15.31,45.74 48.94,83.56 89.62,108.62 32.79,20.47 69.74,33.86 107.71,40.74 -7.75,19.73 -18.34,38.09 -28.37,56.71 20.83,-3.15 40.82,-10.01 61.46,-14.12 -31.49,40.61 -78.93,63.77 -122.38,89.07 22.65,2.41 45.43,2.36 68.16,1.27 -39.34,30.24 -85.92,48.96 -132.11,65.95 -10.39,3.94 -21.59,5.87 -31.29,11.38 -0.99,0.56 -2.97,1.68 -3.96,2.21 -4.75,0.71 -9.5,1.42 -14.23,2.23 16.51,-31.92 28.73,-66.61 31.6,-102.62 5.94,-61.34 -6.1,-122.44 -17.73,-182.4 -4.85,-25.99 -12.55,-52.45 -8.48,-79.04zm50.44 115.12l0 0c14.52,11.66 32.38,19.26 44.54,33.68 18.34,25.47 19.86,58.11 20.04,88.36 17.52,-29.41 18.44,-69.85 -2.74,-97.65 -16.61,-18.65 -41.55,-26.11 -61.11,-40.97 -13.31,-9.09 -24.1,-21.26 -32.71,-34.82 2.51,20.83 15.39,39.11 31.98,51.4zm15.97 51.79l0 0c6.98,25.65 13.1,52.95 6.3,79.34 -9.86,40.81 -37.39,73.57 -62.27,106.18 23.69,-14.37 43.27,-34.82 59.32,-57.22 12.12,-17.9 23.06,-37.58 25.93,-59.32 2.47,-26.09 -9.37,-52.25 -29.28,-68.98zm-266.57 -170.54c21.69,-3.76 43.74,-5.46 65.73,-5.41 5.18,18.77 2.52,38.37 0.13,57.37 -7.19,60.34 -15.62,120.66 -28.29,180.14 -8.64,39.59 -18.85,79.16 -35.76,116.11 -48.1,-63.61 -71.16,-142.55 -82.01,-220.62 -7.14,23.11 -7.8,47.57 -8.89,71.55 -25.27,21.89 -57.37,36.26 -91.07,37.02 -14.91,-19.12 -34.72,-33.75 -55.87,-45.3 -0.51,9.65 0.91,19.75 -2.42,29.05 -8.5,1.65 -17.24,0.66 -25.8,2.03 -10.03,1.27 -19.3,5.54 -28.52,9.48 -2.21,0.88 -4.44,1.75 -6.68,2.59 30.91,3.63 61.28,12.62 88.38,28.16 5.59,34.31 20.57,66.11 34.16,97.83 -1.75,0.1 -5.28,0.28 -7.03,0.38 -24.06,0.15 -49.05,5.61 -68.17,20.9 -17.85,13.59 -27.53,35.41 -30.17,57.27 -9.37,-11.33 -19.66,-21.92 -28.5,-33.62 -12.26,-34.19 -18.33,-70.45 -19.43,-106.7 0.03,-9.47 -0.4,-18.92 -1.14,-28.31 -11.4,30.19 -15.41,62.57 -15.03,94.73 -7.95,-17.98 -9.55,-37.84 -9.6,-57.27 -5.72,9.77 -9.17,20.67 -11.71,31.67 -22.58,-27.61 -35.61,-63.7 -30.4,-99.53 2.64,-33.17 23.19,-62.63 50.84,-80.23 30.28,-18.29 56.59,-42.24 86.07,-61.67 45.01,-30.5 95.9,-52.06 148.98,-63.79 -7.01,8.78 -9.88,19.81 -12.04,30.63 31.09,-36.83 77.67,-56.46 124.24,-64.46zm400.84 -2.36c27,-14.53 58.97,-18.98 88.99,-12.88 -17.9,-0.05 -35.83,1.5 -53.15,6.27 -11.89,2.57 -23.37,8.59 -35.84,6.61zm-205.2 -189.19l0 0c-7.01,11.82 -1.32,26.17 1.67,38.38 6.73,17.55 12.68,36.34 25.71,50.39 -8.56,-21.59 -18.27,-43.1 -21.41,-66.34 0.05,-4.09 -2.19,-10.56 3.73,-11.38 6.27,1.65 10.61,6.89 15.52,10.82 -5.03,-9.57 -11.76,-26.18 -25.22,-21.87zm20.26 63.17l0 0c-2.36,8.02 8,10.74 13.74,12.04 -1.47,-6.48 -4.34,-13.41 -1.37,-19.92 1.7,-3.81 3.25,-10.43 -2.77,-11.2 -6.5,3.79 -7.62,12.4 -9.6,19.08zm169.68 19.78l0 0c-20.72,18.44 -39.69,39.52 -52.57,64.23 11.38,-6.22 21.1,-15.06 32.79,-20.83 9.34,-3.86 12.67,-14.04 18.41,-21.53 12.65,-18.67 30.25,-32.99 45.23,-49.58 -16.58,5.59 -30.6,16.61 -43.86,27.71z"/>
   <path class="fil1" d="M1050.67 0l7.37 0c12.64,8.58 21.76,21.08 31.08,32.97 17.09,23.08 32.92,47.16 47.37,72 3.4,5.71 5.84,11.93 7.67,18.33 6.83,23.55 13.74,47.09 20.9,70.55 31.59,-11.65 59.48,-30.9 89.14,-46.5 12.37,-6.4 26.39,-11.32 40.51,-9.17 7.75,1.3 12.52,9.07 12.24,16.59 1.65,17.85 -7.69,34.03 -17.12,48.41 -30.42,45.1 -73.7,80.32 -120.63,107.14 -1.8,46.13 -6.1,92.09 -11.28,137.93 9.35,9.58 16.1,22 27.86,28.96 10.04,6.12 22.2,3.78 33.27,3.12 -8.28,6.32 -17.09,11.86 -26.36,16.64 29.03,6.85 57.75,15.03 86.2,23.94 4.95,0.97 7.82,5.11 10.38,9.1 35.03,13.03 71.04,28.8 95.7,58.03 17.8,20.11 29.1,45.64 32.03,72.36 5.28,29.25 3.6,59.07 0.25,88.38 11.66,54.52 15.37,111.01 7.49,166.35 39.8,8.91 79.37,18.94 119.16,27.78 14.61,-2.72 27.18,-16.66 43.13,-13.33 9.85,0.83 18.89,5.1 27.02,10.54 6.93,-1.96 14.12,-3.86 21.38,-2.47 31.22,4.78 62.4,9.83 93.64,14.53 7.04,1.14 14.3,2.03 20.85,5.1 5.69,2.62 10.34,7.62 16.89,8.23 28.57,4.83 57.12,9.91 85.72,14.68 19.48,-14.27 47.95,-8.07 64.18,8.38 11.17,5.82 24.27,11.43 28.34,24.71 2.89,13.31 9.78,26.75 5.94,40.56 -3,12.47 -12.75,23.39 -25.57,26.01 -20.14,6.75 -41.48,6.14 -62.38,7.77 -1.57,-5.79 -3.25,-11.53 -4.82,-17.32 -26.09,-4.37 -52.14,-9.04 -78.18,-13.64 -8.02,-2.44 -15.03,3.41 -22.4,5.49 -6.98,12.11 -16.12,22.73 -24.6,33.75 -8.03,10.21 -21.31,13.46 -33.55,15.01 -7.19,20.06 -25.55,34.36 -46.18,38.5 -7.72,40.53 -14.96,81.14 -22.5,121.7 -26.79,0.05 -53.58,-0.1 -80.38,0.08 21.74,13.71 48.38,24 60.04,48.79 9.93,17.7 4.49,38.27 0.91,56.94 -13.76,74.33 -27.25,148.75 -41.14,223.08l-1522.36 0 0 -1.9c14.63,-79.11 29.18,-158.25 43.65,-237.41 10.98,-0.1 21.95,-0.1 32.94,0.02 36.78,-97.22 73.43,-194.51 109.67,-291.93 39.08,-0.51 78.19,0.02 117.28,-0.28 -3.12,-9.5 -5.16,-19.53 -10.69,-28.02 -4.55,-8.83 -14.17,-12.9 -20.19,-20.52 -18.03,-18.28 -35.84,-36.82 -54,-54.98 -3.65,-2.95 -3.91,-7.75 -4.64,-11.99 -31.6,-39.03 -67.05,-74.87 -97.38,-114.94 -16.45,-21.46 -28.13,-46.89 -31.69,-73.86 -4.22,-35.5 1.57,-73.5 22.02,-103.49 14.35,-21.13 35.25,-36.57 56.53,-50.13 26.52,-18.16 50.95,-39.19 78.05,-56.49 30.32,-19.43 62.68,-35.78 96.56,-47.97 27.37,-9.86 55.84,-16.08 84.01,-23.19 12.7,-2.92 23.82,-10.01 36.16,-13.97 34.24,-12.57 70.68,-17.39 106.95,-19.32 3.23,-2.65 6.58,-5.77 11.15,-5.11 42.41,-0.53 84.82,1.78 127.21,3.91 4.45,-5.33 9.73,-10.06 13.49,-15.9 -0.31,-13.96 -0.71,-27.96 -1.25,-41.93 -5.71,-15.79 -9.32,-32.4 -18.56,-46.73 -46.07,-13.43 -91.03,-35.68 -123.63,-71.69 -16.49,-18.57 -30.33,-41.14 -32.54,-66.36 -1.5,-12.93 4.09,-26.14 14.17,-34.31 18.37,-15.4 44.63,-18.06 67.13,-11.54 31.72,8.84 61.18,24.13 89.98,39.8 9.68,-25.01 19.35,-50.06 29.38,-74.92 3.81,-9.17 11.13,-16.13 17.48,-23.54 27.2,-29.49 55.77,-58.01 87.72,-82.39 11.68,-8.13 24.3,-18.26 39.49,-16.38 18.13,0.36 35.28,6.88 51.45,14.6 11.63,5.9 25.71,7.01 37.82,1.78 10.46,-4.11 17.14,-13.92 27.07,-18.92zm256.61 1540.37c3.51,-9.78 7.37,-19.43 11.58,-28.93 0.05,9.63 0.82,19.23 0.84,28.85 -4.14,0.03 -8.28,0.03 -12.42,0.08zm-328.81 -35.07c5.64,0.05 11.3,0.1 16.96,0.12 -3.12,16.49 -5.99,33.02 -9.17,49.5 -5.73,-0.02 -11.45,0 -17.14,0 3.18,-16.53 5.92,-33.17 9.35,-49.62zm-700.5 -179.69c15.34,-41.82 28.78,-84.36 43.96,-126.24 -0.63,42.08 -1.8,84.19 -2.99,126.3 -13.67,0.05 -27.3,0.12 -40.97,-0.06zm393.12 -247.44c-3.71,-6.19 8.1,-5.41 11.56,-7.79 -0.64,5.96 -5.06,12.31 -11.56,7.79zm-3.05 -28.92c5.77,-4.14 16.54,-0.99 15.52,7.18 0.69,9.42 -12.98,14.94 -19.12,8.05 -3.74,-4.9 -1.45,-12.26 3.6,-15.23zm1251.71 -10.52c7.98,-2.26 7.57,13.26 1.63,14.25 -4.78,-3.25 -3.23,-9.7 -1.63,-14.25zm-7.11 -19.81c6.4,1.48 6.35,9.53 5.16,14.73 -0.31,3 -4.27,6.96 -6.94,3.71 -4.21,-5.1 -3.96,-14.5 1.78,-18.44zm-1373.59 -9.52c5.61,-4.27 15.87,-1.17 15.62,6.65 0.59,9.04 -11.66,15.19 -18.36,9.32 -5.18,-4.29 -2.74,-13.13 2.74,-15.97zm-13.13 -18.82c0.23,-5.79 6.3,-8.18 10.57,-10.69 0.91,6.07 4.82,10.05 10.66,11.68 -2.18,4.62 -5.91,9.09 -11.48,9.17 -5.71,0.91 -11.07,-4.4 -9.75,-10.16zm1086.45 -13.61c7.45,-5.21 16.82,-4.83 25.43,-3.58 28.44,4.49 56.81,9.44 85.33,13.58 -0.03,0.38 -0.03,1.12 -0.03,1.5 -6.95,1.02 -13.89,2.13 -20.82,3.3 0.18,6.99 0.84,13.97 1.85,20.93 6.78,1.37 13.59,2.64 20.4,3.99 -2.72,-8.51 -3.69,-18.67 2.38,-26.01 3.31,-5.18 9.58,-6.45 15.09,-7.9 -11.56,7.24 -15.82,23.52 -6.65,34.44 9.65,5.51 24.78,1.55 30.24,13.84 -8.71,-1.68 -17.29,-4.37 -26.21,-4.7 -5.89,1.78 -1.7,9.12 -0.78,12.85 -6.81,-2.59 -12.12,-7.95 -11.64,-15.62 -6.47,-1.14 -12.92,-2.33 -19.35,-3.53 3.63,13.69 3.3,30.15 -6.91,41.05 -5.18,5.84 -13.48,3.12 -20.11,2.41 -18.49,-3.18 -37.26,-4.88 -55.64,-8.61 -0.28,-2.03 -0.87,-6.05 -1.15,-8.08 21.56,2.77 43,6.68 64.59,9.42 7.06,1.61 9.22,-7.16 11.07,-12.11 3.3,-9.42 -0.08,-19.17 -2.36,-28.37 -2.74,6.56 -7.32,11.99 -12.04,17.2 3.86,-0.84 7.69,-1.73 11.61,-2.49 2.28,8.25 -0.84,18.89 -10.77,19.45 -0.69,-1.45 -2.11,-4.32 -2.82,-5.74 -10.36,-1.5 -21.74,-1.37 -30.78,-7.31 -4.24,-2.82 -4.45,-8.1 -4.4,-12.65 11.92,-0.74 23.7,1.27 35.38,3.28 -0.68,-6.18 -0.56,-12.4 1.63,-18.26 -8.54,-1.88 -17.91,-2.49 -25.12,-7.85 -3.99,-2.57 -2.44,-7.82 -3,-11.68 12.37,-1.68 24.61,1.04 36.68,3.37l0.35 -2.31c-18.79,-2.97 -37.54,-6.3 -56.33,-9.14 -11.99,15.59 -17.29,34.82 -21.31,53.76 -7.92,-18.81 -1.49,-40.27 10.8,-55.59 -4.9,-0.89 -9.78,-1.78 -14.61,-2.84zm-1058.54 15.59c-6.52,-14.78 4.45,-33.4 20.09,-35.94 9.35,-1.6 19.46,1.86 25.37,9.37 -9.88,-3.93 -22.68,-6.83 -31.34,1.17 -9.55,7.5 -9.7,21.72 -3.35,31.34 -0.13,5.01 -1.45,10.54 1.68,14.99 3.45,6.5 10.97,8.84 16.76,12.72 -8.43,-0.18 -18.41,-1.29 -23.37,-9.12 -5.73,-6.95 -2.69,-16.61 -5.84,-24.53zm-34.38 -75.96c4.31,-0.56 9.54,-3.28 13.33,0.2 13.46,10.08 26.08,21.66 35.35,35.81 -16.96,-10.92 -32.76,-23.67 -48.68,-36.01zm310.65 -259.48c19.91,16.73 31.75,42.89 29.28,68.98 -2.87,21.74 -13.81,41.42 -25.93,59.32 -16.05,22.4 -35.63,42.85 -59.32,57.22 24.88,-32.61 52.41,-65.37 62.27,-106.18 6.8,-26.39 0.68,-53.69 -6.3,-79.34zm-15.97 -51.79c-16.59,-12.29 -29.47,-30.57 -31.98,-51.4 8.61,13.56 19.4,25.73 32.71,34.82 19.56,14.86 44.5,22.32 61.11,40.97 21.18,27.8 20.26,68.24 2.74,97.65 -0.18,-30.25 -1.7,-62.89 -20.04,-88.36 -12.16,-14.42 -30.02,-22.02 -44.54,-33.68zm74.99 -314.56c0.99,-3.76 2.24,-7.44 3.43,-11.15 41.12,1.47 79.49,21.1 108.98,49.04 -19.3,7.04 -39.72,10.41 -59.43,16.05 -4.27,-6.14 -8.58,-12.29 -12.93,-18.39 -6.27,-0.02 -12.54,0.06 -18.82,0.08 6.63,-6.98 14.05,-13.13 22.07,-18.44 -15.23,-1.83 -30.67,-2.74 -45.84,0.31 0.69,-5.87 1.4,-11.71 2.54,-17.5zm47.95 -245.54l0 0c5.97,6.48 12.55,13.95 11.86,23.39 -0.43,14.86 -12.37,25.96 -23.69,33.98 -27.33,18.7 -60.3,26.82 -92.7,31.06 34.49,3.56 69.38,-7.11 99.1,-24.22 13.2,-8.31 27.98,-19.15 30.42,-35.69 0.1,-14.17 -13.25,-23.49 -24.99,-28.52zm127.6 37.87l0 0c11.15,17.6 27.81,32.33 47.61,39.26 -21.79,-21.46 -48.38,-44.26 -49.54,-77.36 -9.05,11.38 -5.31,26.87 1.93,38.1zm122.43 141.87l0 0c-47.13,20.95 -97.7,34.26 -148.85,40.58 31.34,1.68 62.68,-3.63 93.18,-10.46 54.43,-13.31 108.45,-39.62 142.99,-85.03 -26.8,21.66 -55.72,40.94 -87.32,54.91zm-571.25 -23.95l0 0c6.86,-3.48 13.49,-8.26 21.49,-8.59 17.17,-1.27 33.39,5.72 48.86,12.22 35.28,16.07 70.83,32.74 108.78,41.4 -12.6,-6.07 -25.5,-11.56 -37.87,-18.09 -32.56,-15.72 -63.8,-35.32 -99.3,-43.88 -15.27,-3.61 -36.29,0.1 -41.96,16.94zm364.07 18.59l0 0c-63.5,0.35 -127.32,0.96 -190.38,-7.44 11.13,5.15 23.32,7.31 35.2,10.05 52.8,10.64 106.77,13.92 160.48,15.67 53.44,0.89 107.33,0.36 159.88,-10.33 -1.58,-7.65 -3.46,-15.19 -5.39,-22.73 -52.52,10.84 -106.36,13 -159.79,14.78zm-226.29 58.66l0 0c9.37,-5.38 18.84,-10.64 29.13,-14.14 1.42,4.39 3.1,8.73 5.08,12.92 3.76,-5.58 8.05,-10.82 13.05,-15.34 1.35,8.23 1.99,17.07 7.09,24.06 4.14,-7.95 8.25,-16.16 15.08,-22.15 0.51,5.46 1.61,10.84 3.1,16.13 4.14,-6.55 9.12,-12.88 16.92,-15.14 -17.73,-3.38 -35.86,-7.19 -53.94,-4.5 -13.47,1.58 -27,7.22 -35.51,18.16zm102.12 -11.12l0 0c-1.07,2.11 -2.16,4.19 -3.25,6.3 -13.94,31.18 -16.38,66.36 -12.67,99.99 -10.67,-5.52 -21.34,-10.98 -31.85,-16.69 -2.85,-1.3 -3.07,-4.88 -4.22,-7.37 -4.26,-13.28 -9.11,-26.36 -14.98,-39 -3.78,-7.62 -7.98,-15.52 -15.01,-20.63 -5.16,-4.01 -13.56,-2.66 -17.24,2.77 -5.41,7.93 -5.72,18.21 -3.86,27.35 3.32,17.91 15.16,32.87 18.26,50.85 3.32,13.41 13.66,27.63 28.72,27.78 5.36,-4.42 4.01,-11.88 4.85,-17.98 5.43,7.52 7.11,19.13 1.42,26.9 -5.74,6.04 -14.09,1.93 -20.42,-0.59 0.41,24.38 -0.78,49.12 4.57,73.07 6.84,23.92 20.58,45.43 37.64,63.36 37.13,38.71 88.38,61.49 140.7,70.63l-0.35 0.51c30.01,2.31 61.53,8.2 90.66,-2.28 1.93,-4.09 3.89,-8.18 5.77,-12.3 -30.48,1.5 -61.21,1.6 -91.48,-2.94 -21.87,-1.6 -42.14,-10.77 -61.69,-20.04 -33.47,-16.69 -65.14,-37.26 -93.31,-61.92 -6.6,-6.53 -15.26,-12.44 -17.01,-22.2 -5.87,-25.87 -6.35,-52.85 -4.12,-79.21 5.08,20.8 7.77,42.16 13.82,62.73 2.31,7.27 3.83,15.7 10.43,20.5 13.92,11.83 28.7,22.7 44.45,32.02 27.94,16.76 57.27,31.88 88.76,40.64 9.73,3.71 20.19,4.54 30.5,5.18 20.35,1.09 40.74,1.83 61.11,0.63 18.26,-1.09 37.08,0.11 54.75,-5.38 8.51,-2.41 10.98,-11.78 13.34,-19.2 5.51,-19.73 8.17,-40.13 10.82,-60.39 -17.43,-4.27 -34.54,-9.58 -51.89,-14.02 -5.13,-1.48 -10.41,-1.07 -15.62,-0.46 -23.52,1.27 -46.73,7.67 -67.3,19.2 -12.12,6.91 -27.61,9.57 -40.36,2.79 -6.09,-2.89 -10.23,-10.94 -17.95,-8.53 -33.53,2.54 -69.26,-5.54 -94.66,-28.57 15.42,2.79 31.47,4.65 46.86,0.66 38.3,-8.89 61.21,-48.81 101.44,-52.88 -3.2,-16.89 7.87,-34.44 24.4,-38.98 3.76,-7.77 7.98,-15.34 13.11,-22.33 -0.69,7.85 -1.65,15.65 -1.78,23.52 5.66,3.58 9.4,9.17 10.34,15.85 -5.36,-3.53 -11.38,-8.99 -18.31,-6.58 -8.87,2.72 -15.47,14.43 -11.28,23.04 5.41,6.09 14.27,-1.55 20.98,2.66 11.98,10.67 29.81,13.54 45.05,9.65 6.17,-1.27 8.48,-7.21 10.26,-12.49 2.74,-0.53 5.49,-1.12 8.2,-1.78 3.97,-7.8 -1.32,-15.9 -4.87,-22.73 -1.93,0.64 -3.89,1.27 -5.82,1.91 -6.3,-19.31 -15.67,-37.44 -25.98,-54.89 13.64,-13.53 30.25,-23.41 47.29,-32.1 -10.87,11.53 -25.19,20.09 -33.09,34.24 6.88,12.54 14.63,24.61 20.87,37.51 16.99,5.69 21.62,27.71 17.35,43.27 11.2,3.2 19.99,11.59 30.76,15.47 4.41,-40.69 7.51,-81.57 9.06,-122.46 -6.75,0.79 -13.46,1.93 -19.91,4.04 5.82,5.13 11.1,10.84 15.26,17.39 -4.31,-0.15 -8.6,-0.13 -12.9,0.08 -4.34,5.41 -6.55,12.19 -9.83,18.28 -14.42,-4.97 -28.77,-10.13 -43.2,-15.06 17.4,-20.57 39.17,-40.35 66.47,-45.61 2.33,-0.35 4.32,-1.4 5.94,-3.17 -14.86,3.78 -29.56,8.27 -44.75,10.64 -81.34,13.18 -164.21,-0.64 -243.25,-20.65zm95.16 165.99l0 0c-14.68,10.77 -28.72,22.5 -44.82,31.22 15.69,-2.54 28.75,-12.37 39.77,-23.27 2.44,2.31 4.88,4.65 7.36,6.94 3.05,-7.19 7.12,-13.87 12.35,-19.69 1.55,4.98 3.15,9.96 4.9,14.89 4.37,-6.68 8.33,-13.72 13.79,-19.61 2.31,5.71 5.1,11.23 8.71,16.25 2.85,-6.37 6.17,-12.49 10.13,-18.23 2.44,5.71 5.24,11.35 9.48,15.97 1.72,-3.98 3.32,-8.05 5.36,-11.91 9.27,1.55 18.56,3.53 28.06,2.36 -11.78,-2.38 -22.43,-7.79 -33.09,-13 -21.69,-0.84 -44.4,4.85 -62,18.08zm126.96 -10.61l0 0c-4.37,3.99 -10.51,4.11 -16.02,5.03 8.02,6.47 4.37,17.24 3.98,26 6.45,-6.73 9.65,-15.54 11.64,-24.45 2.41,3.37 4.82,6.78 7.31,10.13 2.06,-5.16 3.33,-10.57 3.89,-16.1 3.53,2.28 7.03,4.64 10.53,7.03 0.13,-2.18 0.36,-6.52 0.49,-8.71 4.9,0.56 9.8,1.17 14.73,1.78 -7.85,-4.01 -15.98,-8.48 -24.99,-8.59 -4.68,1.1 -7.77,5.24 -11.56,7.88zm-113.5 61.69l0 0c12.47,1.98 23.95,-4.04 35.84,-6.61 17.32,-4.77 35.25,-6.32 53.15,-6.27 -30.02,-6.1 -61.99,-1.65 -88.99,12.88zm-303.21 -8.69l0 0c5.33,15.37 4.22,31.87 3.05,47.82 -4.6,44.73 -11.81,89.15 -17.42,133.72 22.04,12.06 43.53,25.17 65.27,37.74 2.74,1.34 5.66,3.48 8.91,2.54 13.89,-2.85 27.63,-6.48 41.57,-9.15 -2.82,-48.81 -15.46,-96.27 -23.44,-144.38 -3.22,-21.13 -6.83,-42.99 -1.04,-64.02 -25.57,-2.34 -51.25,-3 -76.9,-4.27zm-97.63 11.05l0 0c-46.57,8 -93.15,27.63 -124.24,64.46 2.16,-10.82 5.03,-21.85 12.04,-30.63 -53.08,11.73 -103.97,33.29 -148.98,63.79 -29.48,19.43 -55.79,43.38 -86.07,61.67 -27.65,17.6 -48.2,47.06 -50.84,80.23 -5.21,35.83 7.82,71.92 30.4,99.53 2.54,-11 5.99,-21.9 11.71,-31.67 0.05,19.43 1.65,39.29 9.6,57.27 -0.38,-32.16 3.63,-64.54 15.03,-94.73 0.74,9.39 1.17,18.84 1.14,28.31 1.1,36.25 7.17,72.51 19.43,106.7 8.84,11.7 19.13,22.29 28.5,33.62 2.64,-21.86 12.32,-43.68 30.17,-57.27 19.12,-15.29 44.11,-20.75 68.17,-20.9 15.72,1.52 31.92,2.82 46.29,10.08 -11.27,-1.45 -22.6,-2.36 -33.95,-2.16 -27.79,0.61 -57.68,8.1 -76.88,29.49 -15.13,16.76 -21.97,40.63 -19.45,62.83 6.02,7.11 12.72,13.64 18.79,20.72 1.88,-30.12 14.76,-59.98 37.44,-80.22 13.41,-11.71 31.54,-16.23 49.06,-14.73 19.31,2.23 38.38,8.28 57.98,4.87 -23.49,-19.35 -39.46,-45.76 -52.62,-72.81 -5.46,-9.98 -9.01,-21.05 -15.54,-30.38 -11.66,-10.1 -24.99,-18.1 -38.25,-25.9 -27.1,-15.54 -57.47,-24.53 -88.38,-28.16 2.24,-0.84 4.47,-1.71 6.68,-2.59 22.09,-4.78 45,-4.86 66.87,1.24 0.38,-10.57 -1.6,-20.95 -3.79,-31.24 13.95,9.96 23.12,24.97 29.72,40.48 17.85,8.21 33.9,19.56 50.13,30.51 22.94,-7.62 45.46,-17.76 64.87,-32.41 -2.62,-13.49 -3.23,-27.2 -4.12,-40.86 1.09,-23.98 1.75,-48.44 8.89,-71.55 10.85,78.07 33.91,157.01 82.01,220.62 16.91,-36.95 27.12,-76.52 35.76,-116.11 12.67,-59.48 21.1,-119.8 28.29,-180.14 2.39,-19 5.05,-38.6 -0.13,-57.37 -21.99,-0.05 -44.04,1.65 -65.73,5.41zm200.16 3.63l0 0c-4.07,26.59 3.63,53.05 8.48,79.04 11.63,59.96 23.67,121.06 17.73,182.4 -2.87,36.01 -15.09,70.7 -31.6,102.62 4.73,-0.81 9.48,-1.52 14.23,-2.23 0.99,-0.53 2.97,-1.65 3.96,-2.21l-2.72 2.54c30.2,-3.81 60.09,-10.31 89.22,-19.23 65.57,-20.09 125.28,-60.97 165.18,-117.05 -44.6,26.36 -94.3,43.28 -145.19,52.42 9.98,-5.66 20.95,-9.14 31.39,-13.82 38.27,-16.15 76.19,-34.74 108.09,-61.79 18.69,-15.54 36.77,-33.17 46.55,-55.84 -34.85,10.76 -72.41,8.05 -107.99,2.51 -37.97,-6.88 -74.92,-20.27 -107.71,-40.74 -40.68,-25.06 -74.31,-62.88 -89.62,-108.62zm385.04 28.32l0 0c-3.25,19.35 -6.48,39.16 -14.99,57.04 -4.57,9.95 -14.47,15.52 -24.2,19.4 -10.23,44.88 -26.36,88.81 -52.06,127.24 11.1,4.42 22.25,10.82 34.13,11.99 22.22,-7.83 43.58,-17.96 65.63,-26.29 4.62,-2.26 11.76,-3.15 11.93,-9.57 9.05,-47.19 16.26,-96.97 44.58,-137.25 4.69,-8 12.95,-13.18 17.54,-21.15 -27.35,-7.72 -54.93,-14.73 -82.56,-21.41zm82.01 78.19l0 0c-12.93,26.34 -19.1,55.34 -24.69,83.97 -10.97,58.69 -22.73,117.91 -20.93,177.93 34.72,-29.21 61.59,-66.8 80.79,-107.74 6.93,39.34 -9.27,77.62 -28.24,111.12 -8.23,46.09 -20.95,93.58 -50.67,130.92l0.99 1.6c0.38,24.76 3.86,49.77 11.94,73.27 5.31,13.43 12.32,28.29 26.36,34.46 15.87,7.11 33.45,8.99 50.57,11.07 38.57,3.96 77.38,4.95 116.14,6.17 -2.26,-7.26 -4.5,-14.5 -6.63,-21.76 -7.82,-33.85 -11.38,-71.42 3.53,-103.85 7.69,-17.85 25.5,-29.94 44.87,-30.93 -13.86,6.47 -26.23,16.68 -32.73,30.8 -16.38,32.77 -10.77,71.22 -1.76,105.27 2.62,9.22 5.39,18.47 9.43,27.2 10.08,0.41 20.19,0.74 30.3,1.45 2.08,-4.04 4.11,-8.1 6.09,-12.21 -2.54,-4.37 -4.93,-8.82 -7.24,-13.29 -14.07,-28.49 -27.04,-62.55 -13.91,-93.81 8,-23.62 26.59,-44.65 52.06,-49.1 -30.48,-5.86 -60.52,-14.04 -90.85,-20.57 -27.98,-2.49 -57.49,-1.11 -83.02,11.71 -14.12,6.55 -26.31,16.33 -38.91,25.27 0.59,-12.54 9.43,-22.58 17.43,-31.49 19.96,-20.95 49.47,-28.37 77.38,-30.91 -6.73,-13.64 -19.96,-22.09 -33.93,-26.92 24.81,-5.92 47.85,7.39 67.53,20.78 5,-40.79 4.62,-82.47 -2.59,-122.98 -8.84,7.85 -18.16,15.19 -28.55,20.91 27.43,-47.22 31.95,-105.17 19.36,-157.64 -4.42,-16.74 -13.85,-32.18 -26.59,-43.86l-0.23 -1.4c-25.3,-24.48 -60.07,-35.07 -92.4,-46.83 -11.88,12.47 -23.57,25.62 -30.9,41.39zm-589.59 88.77l0 0c-8.61,49.52 -19.84,98.94 -38.45,145.77 -10.31,24.79 -23.04,49.81 -44.09,67.28 16.02,12.09 32.58,23.49 48.66,35.56 8.84,5.86 11.86,16.66 19.17,23.87 10.8,8.63 20.68,18.74 33.35,24.69 8.33,3.88 14.7,10.71 20.24,17.9 9.47,12.7 26.21,19.25 31.62,35.02 8.53,17.37 3.61,37.13 -3.07,54.2 -4.14,9.22 -13.51,13.99 -22.02,18.41 -0.13,8.97 -0.49,17.93 -0.74,26.9 19.05,0.2 38.12,0.33 57.17,-0.08 17.62,-87.59 40.48,-174.02 61.54,-260.8 -32.28,6.07 -65.02,9.68 -97.83,10.74 17.88,-25.77 34.49,-52.82 44.26,-82.84 11.71,-33.32 14.86,-69.13 12.32,-104.2 -16.94,8.38 -32.81,18.71 -49.7,27.2 -24.15,-13.18 -47.57,-27.86 -72.43,-39.62zm307.07 140.04l0 0 -0.91 -0.13c-33.15,19.55 -69.82,32.4 -107.08,41.57 -4.16,0.23 -5.1,4.5 -6.12,7.77 -24.73,87.19 -50.79,174.05 -78.09,260.5 104.71,-0.25 209.45,0.56 314.16,-0.41 25.04,-67.91 63.08,-130.1 103.57,-189.76 -9.68,-16.48 -16.06,-34.82 -18.6,-53.77 -7.74,-52.37 -0.17,-105.29 7.24,-157.25 -20.87,8.76 -42.21,16.28 -63.13,24.91 -4.12,1.32 -9.27,4.57 -13.03,0.76 -11.99,-8.79 -23.42,-18.28 -35.46,-27 -27.76,37.34 -63.24,68.17 -102.55,92.81zm-514.59 -39.7l0 0c9.63,19.73 19.38,39.97 34.79,55.97 7.11,7.22 14.28,14.51 22.4,20.63 4.02,3.88 9.96,1.82 14.94,2.44 -1.35,-23.22 -1.83,-46.48 -3.74,-69.62 -4.64,-11.78 -10.89,-22.91 -15.26,-34.82 -16.79,10.24 -34.62,18.77 -53.13,25.4zm104.51 62.35l0 0c0.05,8.02 0.38,16.05 0.84,24.05 4.16,-3.17 7.67,-7.14 10.66,-11.4 -3.96,-4.12 -7.77,-8.33 -11.5,-12.65zm-51.91 40.51l0 0c-0.33,8.02 6.57,12.67 10.71,18.61 3.86,4.83 4.27,11.23 5.46,17.04 14.84,11.43 30.2,22.25 44.63,34.19 4.44,2.87 4.19,8.25 4.59,12.95 -10.16,-6.04 -18.71,-14.37 -28.69,-20.65 -17.45,0.41 -29.29,17.81 -27.46,34.34 -4.27,-9.07 -4.85,-20.42 1.04,-28.93 4.09,-6.5 11.63,-9.29 18.11,-12.77 -4.95,-3.28 -9.8,-6.71 -14.63,-10.14 -6.83,12.04 -13.94,25.35 -11.76,39.67 1.53,8.11 1.65,17.55 7.98,23.62 6.3,6.56 12.9,12.93 20.29,18.26 -0.33,-8.05 -8.99,-13.35 -7.75,-21.81 0.13,-11.99 10.49,-19.48 20.09,-24.43 -0.25,-2.77 -0.71,-8.36 -0.96,-11.15 3.78,5.15 7.59,10.33 12.34,14.68 -9.37,2.87 -20.34,7.59 -22.73,18.23 -2.59,7.29 3.28,12.93 7.7,17.83 -0.39,4.17 -1.02,8.36 -0.92,12.57 1.65,9.75 11.71,17.7 21.77,15.24 7.31,-0.69 11.3,-7.29 15.01,-12.75 -0.92,4.72 -0.56,10.29 -4.14,14.04 -8.54,8.16 -23.6,7.5 -31.72,-0.94 -8.51,-8.25 -16.61,-16.93 -25.22,-25.09 6.7,13.59 14.96,26.54 25.62,37.41 13.64,14.38 15.32,35.2 17.91,53.84 5.28,-0.81 14.8,1.55 16.25,-5.51 3.45,-19.93 4.39,-40.33 4.24,-60.54 10.01,0.1 22.07,-0.56 27.66,-10.37 -7.65,-9.16 -17.27,-17.11 -21.38,-28.72 28.34,22.4 55.03,46.83 83.07,69.64 0.2,5.92 0.28,11.86 0.35,17.8 3.51,2.59 7.06,5.16 10.62,7.72 0,-1.7 0,-5.05 0,-6.73 8.15,2.75 19.53,2.09 23.69,-6.65 0.77,-7.04 2.72,-13.72 5.41,-20.22 1.05,-15.92 -11.55,-26.56 -23.16,-35.02 -0.13,2.03 -0.38,6.07 -0.51,8.08 -12.24,-1.98 -22.52,-10.97 -27.73,-22 6.73,4.17 12.8,9.3 19.33,13.82 4.49,-13.23 -10.31,-21.21 -20.57,-25.02 -11.08,-7.97 -21.03,-17.42 -31.88,-25.72 -8.1,-5.13 -8.78,-16.11 -16.45,-21.69 -17.96,-13.36 -36.25,-26.36 -54.35,-39.52 -6.89,-5.38 -15.83,-1.58 -23.42,-0.1 -3.55,-7.04 -4.21,-15.37 -8.79,-21.82 -4.87,-6.02 -13.33,-2.13 -19.65,-1.29zm702.65 5.94l0 0c1.5,5.03 3.05,10.06 4.83,15.03 2.44,-7.44 4.24,-15.03 5.76,-22.68 -3.58,2.49 -7.13,5.03 -10.59,7.65zm-818.23 7.26l0 0c-19.54,15.11 -30.3,39.42 -34.06,63.32 -0.15,26.49 14.48,49.75 28.44,71.18 10.75,24.13 11.84,52.6 28.22,74.21 16.84,17.83 36.09,33.38 56.79,46.46 8.94,5.05 18.64,11.98 29.48,9.32 20.62,-3.86 43.79,-8.61 57.58,-25.93 -16.71,0.5 -33.53,1.29 -50.19,-0.59 -19.3,-2.13 -37.18,-11.93 -50.99,-25.34 12.41,2.71 23.77,8.78 36.11,11.83 20.52,5.84 42.16,5.84 63.29,4.5 6.32,-0.18 9.52,-6.58 13.61,-10.47 -25.42,-1.83 -51.22,-3.63 -75.55,-11.81 -9.98,-3.48 -20.58,-7.34 -27.56,-15.69 28.9,7.44 58.18,13.74 87.95,16.35 -0.81,-3.15 -2.49,-5.76 -6.04,-5.71 -16.49,-2.69 -31.27,-10.92 -45.59,-19.07 -13.94,-8.44 -27.89,-18.54 -35.35,-33.48 27.12,16.36 53.1,36.5 84.46,44.17 -1.75,-10.59 -3.2,-21.54 -8.27,-31.11 -4.63,-7.98 -11.94,-13.87 -17.25,-21.31 -8.05,-10.31 -12.98,-22.63 -20.77,-33.09 -3.76,-15.55 -9.07,-31.19 -7.83,-47.39 1.05,-12.68 7.52,-23.85 12.93,-35.03 3.38,-12.44 -9.07,-19.73 -14.86,-28.8 -17.85,1.4 -36.08,4.83 -53.81,0.38 -16.61,-3.4 -35.91,-7.97 -50.74,3.1zm1203.07 53.36l0 0c6.02,2.92 12.65,5.59 16.74,11.23 4.11,5.15 2.77,13.05 8.2,17.34 8.79,7.14 6.91,19.36 7.31,29.39 -0.68,16.91 7.14,32.45 11.53,48.4 12.6,7.22 26.21,13.26 36.35,24.11 17.45,-2.39 35.1,6.85 52.47,1.22 8.25,-1.81 11.65,-10.27 16.89,-15.95 8.3,-9.25 14.35,-20.17 19.93,-31.22 8.31,1.4 16.31,-1.04 21.51,-7.87 37.54,5.49 74.82,12.95 112.26,19.12 1.27,4.32 2.31,8.74 4.04,12.96 6.14,0.12 12.29,-0.38 18.43,-0.54 -0.33,-2.23 -1.01,-6.73 -1.34,-8.96 7.87,1.11 15.69,3.63 23.72,3.35 6.63,-4.04 9.93,-14.3 5.08,-20.88 -4.93,-5.23 -0.56,-12.97 -4.78,-18.41 -4.06,-6.45 -12.59,-6.17 -19.07,-8.08 -4.24,-11.3 -17.29,-17.16 -28.77,-15.87 -5.69,0.51 -7.57,5.97 -8.89,10.59 -39.67,-7.24 -79.52,-13.53 -119.16,-20.85 -2.82,-4.11 -6.25,-8.33 -11.64,-8.63 -33.93,-5.57 -67.96,-10.7 -101.94,-15.98 -8.43,-1.75 -14.63,5.59 -21.05,9.7 -8.49,-5.46 -13.87,-16 -24.64,-17.42 -4.77,-1.6 -9.22,0.89 -13.18,3.25zm-109.74 34.14l0 0c-15.52,14.88 -25.14,38.09 -19.89,59.58 3.69,19.43 12.27,37.43 21.44,54.8 3.99,-6.96 10.64,-13.31 9.75,-21.97 -0.63,-7.61 3.38,-14.42 9.25,-18.97 4.67,-2.21 11.73,-2.61 12.39,-8.96 -10.74,1.4 -22.04,1.32 -31.49,-4.65l-1.32 -3.73c15.11,3.63 28.62,-5.06 41.04,-12.27 10.06,-5.51 21.97,-13 33.65,-7.57 12.49,6.5 14.96,21.69 20.34,33.42 5.13,11.33 11.66,25.32 25.27,27.79 9.3,-0.05 19.41,-5.11 21.82,-14.78 -0.56,-4.8 -1.55,-9.5 -2.57,-14.17 -11.15,-6.81 -24.3,-3.74 -35.53,1.09 4.75,-8.03 13.18,-13.03 22.53,-12.95 3.5,0.43 7.01,0.86 10.57,1.34 -2.82,-8.56 -5.59,-17.24 -6.28,-26.28 -0.84,-8.38 0.43,-16.97 -1.98,-25.15l0.36 -1.04c-23.14,-11.43 -49.63,-16.28 -75.31,-13.54 -18,2.29 -38.88,-5.38 -54.04,8.01zm-307.07 41.93l0 0c-19.23,33.62 -37.59,67.86 -51.97,103.87 38.94,-0.18 77.9,0.61 116.81,-0.41 -13.16,-4.09 -25.43,-11.37 -34.06,-22.24 -19.1,-22.86 -24.76,-53.01 -30.78,-81.22zm-571.03 14.57l0 0c7.78,1.2 15.72,1.5 23.47,-0.33 -3.12,-3.4 -6.27,-6.93 -10.18,-9.42 -4.73,2.85 -8.99,6.32 -13.29,9.75zm927.55 -2.13l0 0c-6.53,3.33 -6.73,11.4 -6.02,17.78 9.29,3.25 13.48,14.09 24.51,13.66 -2.92,1.55 -5.9,3.05 -8.82,4.55 5.92,19.1 24.46,29.64 38.89,41.85 9.95,8.26 22.98,8.84 35.27,7.19 -8.68,5.2 -18.71,7.06 -28.7,7.52 -16.45,-9.32 -31.16,-21.54 -44.03,-35.31 -6.68,-7.03 -8.54,-16.86 -12.78,-25.27 -5.03,-6.75 -16.12,-8.12 -22.55,-2.56 -4.7,5.84 -2.54,14.3 -0.18,20.72 4.67,4.14 11.68,3.64 17.4,5.51 -4.67,2.42 -9.93,3.03 -15.01,3.81 6.2,11.1 13.82,21.26 22.3,30.73 13.31,-3.75 26.26,1.71 37.74,8.05 8,4.7 16,10.04 25.29,11.76 4.37,-0.99 8.41,-2.94 12.62,-4.52 -2.74,6.94 -8.53,11.66 -15.92,12.7 -13.66,-3.76 -24.89,-12.95 -38.17,-17.55 -6.15,-2.84 -13.16,1.45 -15.75,7.14 -2.38,6.42 2.36,12.49 6.38,17.07 5.43,6.29 14.22,0.38 20.92,-0.23 -2.94,3.48 -6.12,6.75 -9.85,9.34 2.01,1.15 4.06,2.29 6.17,3.41 8.48,5.86 18.19,10.03 28.32,12.03 9.4,2.32 19.66,-3.32 23.04,-12.29 5.05,-11.5 -3.1,-23.39 -1.17,-35.22 0.4,-8.92 7.13,-15.37 13.2,-21.06 -9.57,-4.92 -18.31,-11.32 -25.93,-18.89 -4.54,-4.73 -9.29,-9.25 -14.58,-13.16 -12.36,-9.6 -17.59,-24.99 -24.48,-38.47 -4.82,-9.76 -18.11,-16.94 -28.11,-10.29zm-938.67 17.57l0 0c-0.66,6.15 -0.86,12.4 -0.1,18.57 2.03,-6.1 5.66,-13.31 0.1,-18.57zm26.72 1.07l0 0c0.66,16.64 -7.82,31.8 -19.18,43.35 -8.33,7.95 -9.83,19.94 -15.79,29.39 38.14,0.02 76.29,0.43 114.41,-0.2 -15.92,-13.36 -32.76,-25.55 -49.12,-38.33 -1.09,-4.32 -0.46,-9.78 -4.6,-12.6 -8.4,-7.39 -17.06,-14.52 -25.72,-21.61zm1016.05 11.96l0 0c-3.83,14.71 -18.54,21.69 -32.25,24.26 3.32,3.04 6.6,6.37 10.76,8.35 8,9.63 21.11,16.76 33.81,12.5 8.07,-2.39 19.93,-6.93 18.69,-17.37 -1.68,-10.44 -11.48,-16.64 -19.71,-21.84 -3.76,-2.01 -7.54,-4.02 -11.3,-5.9zm37.18 11.74l0 0c3.1,7.51 7.24,15.95 4.22,24.2 -2.34,9.27 -11.94,13.03 -18.72,18.49 18.18,-0.79 37.36,-13.36 38.48,-32.89 -8.36,-2.34 -16.23,-5.97 -23.98,-9.8zm-1396.95 14.35l0 0c-36.45,97.39 -73.02,194.71 -109.77,291.98 -9.47,-0.1 -18.97,0 -28.47,-0.15 -4.04,21.84 -8.1,43.66 -11.99,65.53l-1.72 1.32c41.8,1.29 83.65,0.12 125.48,0.61 7.95,-22.53 16.03,-45.03 23.52,-67.74 21.26,-0.51 42.52,-0.23 63.77,-0.15 -0.89,18.51 -1.85,37.03 -2.21,55.57 -0.53,3.98 -0.94,8 -1.29,12.04 41.98,0.53 83.96,0.02 125.94,0.28 4.11,-22.58 8.41,-45.13 12.42,-67.74 -9.24,-0.23 -18.49,0 -27.73,-0.13 -2.01,-75.47 -2.01,-151.03 -3.94,-226.51 -4.93,-3.76 -9.91,-7.42 -15.04,-10.9l0.03 -0.86c-17.98,-14.88 -37.74,-30.25 -45.49,-53.21 -34.51,-0.1 -69,-0.2 -103.51,0.06zm1195.05 55.51l0 0c5.13,5.01 10.92,9.53 17.85,11.74 15.8,5.48 32.2,9.14 48.71,11.63 -7.67,-9.63 -15.06,-21.39 -10.21,-34.16 -11.86,-12.5 -22.93,-25.98 -29.66,-42.03 -10.64,16.66 -18.44,34.92 -26.69,52.82zm-937.28 40.46l0 0c-6.55,6.93 -7.56,16.66 -9.11,25.6 -11.81,64.33 -23.65,128.66 -35.51,192.97 -1.27,4.85 -0.56,9.82 0.43,14.68 10.85,20.14 34.44,30.12 56.56,30.01 51.58,0.03 103.16,-0.07 154.75,0.06 9.01,-50.16 19.3,-100.12 27.1,-150.46l1.47 -1.06c-37.54,-0.51 -75.1,-0.36 -112.64,-0.1 -4.21,18.1 -6.65,36.59 -10.51,54.8 7.29,0.28 14.58,0.28 21.89,0.26 -0.13,1.47 -0.36,4.42 -0.48,5.86 -2.21,12.02 -4.27,24.08 -6.66,36.09 -14.12,0 -28.21,-0.23 -42.33,0.13 10.79,-61.11 22.25,-122.08 33.55,-183.09 14.19,-0.15 28.44,0.54 42.64,-0.25 -1.2,5.84 -2.29,11.71 -3.43,17.57 29.97,1.12 59.96,0.21 89.93,0.49 4.32,-24.21 9.02,-48.36 13.21,-72.59l-1.27 0.99c-54.76,-0.23 -109.52,-0.15 -164.27,-0.05 -20.95,2.03 -41.4,12.27 -55.32,28.09zm257.73 -13.97l0 0c-10.44,6.99 -21.18,16.28 -23.29,29.36 -11.48,62.55 -22.95,125.08 -34.49,187.61 -1.67,10.03 -4.97,20.21 -2.48,30.42 11.12,19.69 34.05,29.9 56.05,29.84 51.75,0.06 103.49,-0.12 155.25,0.08 9.57,-50.82 18.89,-101.69 28.06,-152.61l-1.12 0.89c-37.08,-0.23 -74.16,-0.05 -111.24,-0.1 -2.79,16.51 -6.57,32.84 -8.71,49.45l-0.91 -1.48c-0.1,1.86 -0.33,5.51 -0.43,7.34 7.21,-0.07 14.45,-0.1 21.69,-0.12 -0.23,2.1 -0.66,6.32 -0.89,8.43 -2.21,11.2 -3.86,22.5 -6.43,33.65 -14.09,-0.2 -28.19,-0.18 -42.26,-0.05 11.1,-61.03 22.3,-122.06 33.68,-183.04 14.27,0.23 28.54,-0.07 42.84,0.23 -0.68,2.69 -2.05,8.08 -2.74,10.77 0.84,0.25 2.51,0.79 3.35,1.04 -1.42,1.04 -4.21,3.12 -5.61,4.17 4.77,1.49 9.8,1.85 14.81,1.75 25.49,-0.23 50.97,0.02 76.47,-0.13 4.36,-24.2 9.04,-48.35 13.2,-72.58l-1.34 1.06c-53.03,-0.43 -106.06,-0.02 -159.06,-0.23 -15.9,-0.33 -31.17,5.92 -44.4,14.25zm216.66 40.51l0 0 1.3 -1.3c7.54,0.54 15.11,0.59 22.68,1 -11.58,60.69 -22.56,121.52 -33.65,182.35 -8.11,0.07 -16.18,0.07 -24.26,0.1 -2.72,17.93 -7.13,35.58 -9.22,53.61l-0.94 0.84c45.13,0.33 90.26,-0.05 135.39,0.18 2.67,-16.23 6.99,-32.26 8.28,-48.61l0.33 0.68c0.23,-1.67 0.66,-5.03 0.89,-6.73 -7.9,0 -15.77,-0.02 -23.64,0.08 0.35,-1.5 1.04,-4.52 1.39,-6.02 10.72,-58.95 21.82,-117.82 32.39,-176.79 8.05,-0.15 16.15,-0.15 24.22,-0.2 3.18,-18.47 6.91,-36.8 9.99,-55.27l-1.2 0.94c-44.7,-0.43 -89.39,-0.15 -134.12,-0.12 -3.17,18.43 -7.03,36.75 -9.83,55.26zm160.18 -18.97l0 0c-1.42,5.92 -2.59,11.91 -3.71,17.93 8,0.35 16,0.35 24.03,0.23 -0.87,4.97 -1.58,10 -2.36,15.03 -10.52,55.93 -20.63,111.95 -30.99,167.93 -8.02,-0.05 -16.02,-0.05 -24.05,0 -3.35,18.1 -6.6,36.26 -10.06,54.37 72.33,0.51 144.69,-0.05 217.02,0.28 4.01,-22.91 9.09,-45.64 12.11,-68.7 0.16,-0.94 0.44,-2.82 0.59,-3.76 -23.59,0 -47.19,0.03 -70.78,-0.02 -1.17,5.97 -2.29,11.96 -3.61,17.93 -10.49,-0.31 -20.98,0.02 -31.47,-0.1 -0.45,-1.25 -1.34,-3.71 -1.8,-4.93l0.31 -0.56c4.24,-22.55 8.02,-45.23 12.69,-67.71 22.25,0.43 44.5,-0.15 66.75,0.33 3.73,-17.34 7.24,-34.76 9.42,-52.37l1.91 -1.14c-22.71,-1.32 -45.49,-0.43 -68.22,-0.51 2.89,-18.71 6.8,-37.23 9.98,-55.89 11.45,-0.13 22.91,-0.28 34.36,0.1 -1.17,5.56 -2.21,11.12 -3.3,16.68 23.9,0.56 47.85,0.13 71.77,0.26 4.09,-24.21 8.97,-48.28 13.11,-72.46l-1.15 0.91c-71.95,-0.5 -143.87,0.03 -215.82,-0.25 -2.34,12.11 -4.75,24.23 -6.73,36.42zm238.65 2.39l0 0c-3.98,15.77 -5.99,32 -9.29,47.95 -1.24,8.38 -4.65,17.24 -1.04,25.57 4.39,9.04 11.91,16.18 20.62,21.05 29.41,16.92 58.82,33.83 88.31,50.62 2.59,1.42 4.69,3.56 6.75,5.71 -3.58,15.88 -5.94,31.98 -9.19,47.9 -15.14,-1.19 -30.3,-0.1 -45.44,-0.68 0.97,-5.95 1.91,-11.91 2.8,-17.83 -29.16,0.94 -58.42,-0.92 -87.55,0.96 -3.88,24.03 -8.63,47.9 -13,71.83 51.28,0.55 102.58,0.02 153.85,0.25 21.62,0.76 43.03,-7.42 59.71,-20.9 7.34,-6.2 14.07,-14.07 15.39,-23.93 3.91,-22.22 8.33,-44.34 12.12,-66.56 1.47,-6.53 -1.58,-12.67 -4.32,-18.34 -9.3,-12.16 -23.54,-18.33 -36.37,-25.88 -25.29,-14.45 -50.44,-29.2 -75.91,-43.3 1.47,-13.21 4.5,-26.13 6.68,-39.21 15.29,0.1 30.6,-0.25 45.89,0.23 -0.74,3.65 -1.32,7.31 -1.8,11.02l-1.17 -0.56c0,1.78 0,5.31 0.02,7.09 28.88,-0.21 57.81,0.35 86.71,-0.23 3.45,-12.62 4.85,-25.73 7.54,-38.53 -5.69,5.16 -11.91,9.8 -19.15,12.57l-0.05 0.38c-14.93,4.58 -30.75,1.2 -44.75,-4.82 -6.5,-2.59 -12.62,-6.88 -19.91,-6.53 -16.99,-0.61 -33.47,-5.18 -49.88,-9.24 -15.18,-3.74 -30.35,-10.11 -40.78,-22.25 -18.67,6.14 -38.68,16.74 -46.79,35.66zm-1287.49 285.03l0 0c-0.84,4.67 -1.68,9.34 -2.49,14.07 2.16,-0.03 6.48,-0.13 8.66,-0.16 -2.89,16.56 -6.07,33.09 -9.04,49.65 -2.92,-0.05 -5.82,-0.07 -8.74,-0.1 -0.86,4.62 -1.8,9.3 -2.66,13.97 13.43,0.05 26.84,0.15 40.28,-0.08 1.7,-9.95 3.58,-19.86 5.41,-29.76 5.58,9.75 10.74,19.73 15.9,29.71 12.03,0.36 24.1,0.05 36.14,0.26 0.83,-4.7 1.67,-9.4 2.48,-14.05 -2.15,0.03 -6.47,0.05 -8.61,0.08 2.9,-16.54 5.92,-33.02 9.02,-49.5 2.97,-0.13 5.92,-0.23 8.89,-0.3 0.79,-4.6 1.6,-9.15 2.46,-13.69 -13.43,-0.13 -26.84,-0.13 -40.28,0 -1.7,9.9 -3.48,19.81 -5.46,29.69 -5.28,-9.86 -10.64,-19.66 -15.69,-29.62 -12.09,-0.3 -24.18,-0.1 -36.27,-0.17zm106.13 0l0 0c-0.86,4.67 -1.7,9.34 -2.54,14.04 2.16,-0.03 6.51,-0.05 8.67,-0.08 -3.03,16.59 -5.85,33.25 -9.3,49.76 -2.11,-0.08 -6.3,-0.23 -8.41,-0.31 -0.96,4.62 -1.88,9.27 -2.82,13.94 26.29,0.28 52.55,0.03 78.84,0.16 1.22,-6.15 2.36,-12.3 3.48,-18.44 -8.16,0 -16.31,-0.05 -24.46,0.07 -2.67,6.3 -9.75,4.04 -15.09,4.47 1.32,-6.8 2.57,-13.58 3.76,-20.36 8.26,-0.08 16.48,-0.08 24.74,-0.08 0.81,-4.67 1.62,-9.32 2.41,-13.94 -8.2,0 -16.41,0 -24.63,0 1.04,-5.08 1.95,-10.19 2.97,-15.24 4.26,-0.03 8.51,-0.03 12.77,-0.05 -0.15,1.29 -0.48,3.88 -0.63,5.15 8.53,-0.05 17.04,0 25.57,-0.1 1.12,-6.32 2.26,-12.62 3.46,-18.89 -26.26,-0.21 -52.53,0 -78.79,-0.1zm87.12 -0.03l0 0c-0.82,4.62 -1.68,9.24 -2.52,13.89 2.14,0.05 6.43,0.13 8.56,0.18 0.51,21.16 -1.04,42.29 -0.61,63.44 9.85,-0.02 19.68,-0.05 29.51,0.05 5.49,-7.72 9.25,-17.45 15.7,-23.95 2.61,7.19 3.65,16.08 5.76,23.88 9.86,0.02 19.68,0 29.54,0.05 7.67,-21.11 15.26,-42.21 22.78,-63.37 2.97,-0.13 5.94,-0.23 8.91,-0.28 0.82,-4.62 1.65,-9.19 2.52,-13.76 -12.7,-0.13 -25.37,-0.08 -38.05,-0.05 -3.68,10.92 -7.11,21.91 -11.04,32.78 -4.17,-10.46 -7.04,-21.36 -10.9,-31.92 -7.87,10.34 -14.73,21.41 -22.93,31.52 -0.13,-10.85 0.35,-21.67 1.27,-32.43 -12.83,0.02 -25.65,0.05 -38.5,-0.03zm187.09 0.15l0 0c-0.73,4.62 -1.42,9.27 -2.15,13.92 2.13,0 6.42,-0.05 8.58,-0.08 -3,16.51 -6.15,32.99 -9.07,49.5 -2.94,0.03 -5.89,0.05 -8.81,0.13 -0.86,4.65 -1.78,9.27 -2.64,13.94 13.33,-0.28 26.67,0.31 40,-0.25 3.48,-15.39 5.82,-31.01 8.74,-46.48 5.94,5.33 11.8,10.79 17.39,16.56 7.75,-5.51 15.32,-11.3 23.19,-16.66 -2.62,15.62 -5.71,31.16 -8.43,46.78 13.38,0.03 26.74,-0.1 40.12,0.08 0.84,-4.7 1.66,-9.4 2.47,-14.07 -2.16,0.02 -6.45,0.05 -8.61,0.07 2.79,-16.53 6.02,-32.96 8.99,-49.47 2.97,-0.1 5.94,-0.2 8.94,-0.3 0.79,-4.6 1.57,-9.17 2.44,-13.74 -12.8,-0.05 -25.6,-0.05 -38.4,0 -8.48,6.62 -17.04,13.15 -25.7,19.53 -6.18,-6.58 -12.25,-13.21 -18.62,-19.53 -12.8,-0.03 -25.63,-0.11 -38.43,0.07zm129.55 -0.12l0 0c-0.88,4.64 -1.7,9.34 -2.51,14.01 2.16,0 6.5,-0.02 8.68,-0.02 -3.17,16.61 -5.76,33.34 -9.42,49.88 -2.05,-0.15 -6.19,-0.48 -8.28,-0.64 -0.94,4.7 -1.88,9.43 -2.76,14.17 26.26,0.18 52.52,0 78.78,0.11 1.14,-6.15 2.31,-12.32 3.48,-18.42 -8.13,-0.05 -16.28,-0.07 -24.41,0.08 -2.92,6.07 -9.65,4.16 -15.14,4.37 1.32,-6.76 2.57,-13.54 3.76,-20.29 8.26,-0.08 16.48,-0.08 24.74,-0.11 0.79,-4.64 1.65,-9.29 2.41,-13.91 -8.2,0 -16.41,0 -24.61,0 1.02,-5.08 1.93,-10.19 2.95,-15.24 4.26,-0.03 8.51,-0.03 12.77,-0.03 -0.15,1.27 -0.48,3.86 -0.63,5.13 8.5,-0.05 17.01,-0.02 25.52,-0.1 1.12,-6.32 2.31,-12.62 3.51,-18.87 -26.29,-0.23 -52.55,-0.02 -78.84,-0.12zm87.17 -0.06l0 0c-0.82,4.68 -1.68,9.32 -2.44,14.05 2.08,-0.03 6.27,-0.05 8.38,-0.08 2.79,7.88 6.07,15.6 8.35,23.65 -5,8.99 -11.55,17.04 -16.96,25.8 -3.02,0.08 -6.05,0.2 -9.04,0.36 -0.84,4.57 -1.7,9.16 -2.62,13.76 11.33,0 22.63,-0.08 33.96,0.08 6.8,-9.48 12.95,-19.43 20.01,-28.73 3.12,9.53 6.17,19.1 9.14,28.68 11.35,-0.08 22.71,0 34.09,-0.08 0.86,-4.65 1.7,-9.32 2.59,-13.94 -2.95,-0.05 -5.87,-0.08 -8.82,-0.1 -2.51,-8.66 -5.28,-17.27 -7.92,-25.91 5.71,-7.8 11.45,-15.57 17.09,-23.41 2.92,-0.11 5.84,-0.18 8.79,-0.18 0.81,-4.63 1.68,-9.17 2.56,-13.72 -11.17,-0.28 -22.35,-0.07 -33.52,-0.23 -6.78,9.1 -13.26,18.39 -20.09,27.46 -3.28,-9.09 -6.55,-18.19 -9.65,-27.33 -11.3,-0.1 -22.6,0 -33.9,-0.13zm105.5 0.13l0 0c-0.84,4.55 -1.71,9.09 -2.6,13.66 2.92,0.11 5.87,0.26 8.79,0.39 -3,16.45 -6.12,32.91 -9.01,49.39 -2.21,-0.02 -6.61,-0.02 -8.82,-0.05 -0.89,4.7 -1.75,9.37 -2.61,14.07 16.22,-0.07 32.45,-0.13 48.68,0.03 1.04,-4.73 2.08,-9.45 3.46,-14.07 -3.15,-0.1 -6.28,-0.1 -9.4,-0.03 3.02,-16.51 6.09,-32.99 9.09,-49.47 2.19,0.02 6.55,0.05 8.74,0.08 0.84,-4.7 1.72,-9.38 2.56,-14.05 -16.28,0.03 -32.58,-0.05 -48.88,0.05zm75.27 0.18l0 0c-8.1,1.4 -19.56,4.42 -20.62,14.17 -3.02,17.88 -7.01,35.63 -9.47,53.61 2.64,6.56 10.87,8.21 17.16,9.25 20.19,0.53 40.41,0 60.6,0.23 1.19,-6.15 2.29,-12.3 3.43,-18.42 -10.21,-0.02 -20.45,-0.05 -30.66,0 -2.1,8.23 -12.74,2.82 -18.61,4.47 2.92,-16.56 6.02,-33.09 9.12,-49.62 5.58,0 11.2,0.05 16.81,0.07 -0.08,1.32 -0.23,3.94 -0.31,5.24 10.34,-0.31 20.7,-0.16 31.06,-0.23 1.1,-6.28 2.27,-12.57 3.51,-18.82 -20.67,-0.2 -41.37,-0.46 -62.02,0.05zm84.22 0.71l0 0c-5.51,1.5 -11.53,3.58 -14.99,8.43 -2.61,7.06 -3.05,14.68 -4.62,22.02 -1.78,12.78 -5.92,25.4 -6.02,38.32 8.86,9.63 23.01,7.62 34.79,7.75 11.87,-0.51 24.41,1.83 35.61,-3.28 3.73,-1.85 8.56,-4.03 9.17,-8.68 3.45,-18.69 7.24,-37.33 10.13,-56.1 -4.82,-8.46 -15.84,-9.48 -24.56,-9.45 -13.15,0.51 -26.46,-1.02 -39.51,0.99zm121.98 9.52l0 0c-0.94,7.52 -7.52,19.03 2.23,23.24 12.7,5.92 25.98,10.52 38.83,16.18 -0.83,4.55 -1.72,9.14 -2.61,13.71 -5.67,-0.07 -11.28,-0.12 -16.92,-0.12l0.46 -4.42c-10.41,0 -20.8,0 -31.19,0.02 -1.06,6.07 -2.21,12.14 -3.42,18.21 18.21,0.38 36.41,0.05 54.62,0.23 9.32,0.15 19.99,-1.67 26.37,-9.09 2.97,-7.37 3.32,-15.54 4.64,-23.31 -13.3,-9.66 -29.71,-13.54 -44.57,-20.2 0.71,-3.7 1.47,-7.36 2.24,-10.99 5.53,0 11.1,0.05 16.68,0.07 -0.02,1.3 -0.05,3.92 -0.05,5.21 10.29,-0.28 20.6,-0.02 30.91,-0.33 1.09,-6.25 2.24,-12.47 3.48,-18.67 -19.17,-0.4 -38.32,-0.17 -57.5,-0.17 -8.74,0.38 -19.22,2.56 -24.2,10.43zm90.08 -10.46l0 0c-1.17,6.3 -2.34,12.65 -3.71,18.95 8.31,0 16.64,0.51 24.94,-0.18 0.54,-1.2 1.63,-3.56 2.16,-4.72 3.79,-0.08 7.57,-0.11 11.38,-0.08 -2.79,16.46 -6.07,32.84 -8.89,49.32 -3.02,0.1 -6.02,0.23 -8.99,0.35 -0.79,4.55 -1.63,9.07 -2.41,13.64 16.28,0.41 32.56,-0.02 48.83,0.26 0.87,-4.7 1.73,-9.42 2.59,-14.1 -2.18,0.03 -6.55,0.1 -8.73,0.13 2.97,-16.56 5.97,-33.09 9.14,-49.6 3.99,-0.03 8,-0.03 12.01,0 -0.2,1.27 -0.61,3.83 -0.81,5.1 8.43,-0.05 16.89,-0.02 25.35,-0.07 1.09,-6.33 2.23,-12.62 3.5,-18.87 -35.45,-0.31 -70.91,-0.05 -106.36,-0.13zm122.9 0.03l0 0c-9.48,21.1 -18.7,42.33 -28.35,63.36 -2.89,0.08 -5.79,0.15 -8.66,0.25 -0.73,4.6 -1.5,9.2 -2.21,13.85 11.99,-0.21 23.98,0.3 35.96,-0.21 2.57,-4.44 4.09,-9.37 5.95,-14.09 6.45,-0.38 12.9,-0.38 19.35,-0.38 0.33,4.87 0.56,9.77 0.74,14.68 12.16,-0.08 24.35,0 36.54,-0.05 0.79,-4.68 1.6,-9.32 2.47,-13.95 -2.06,0 -6.15,0.05 -8.18,0.05 -1.86,-21.13 -3.73,-42.28 -5.56,-63.41 -16.03,-0.26 -32.05,-0.1 -48.05,-0.1zm64.83 -0.08l0 0c-1.27,6.32 -2.43,12.67 -3.68,19.05 8.28,0.05 16.56,0.07 24.86,0 0.69,-7.42 8.64,-4.42 13.67,-5.21 -3.02,16.53 -6.07,33.07 -9.12,49.6 -3,0.08 -5.97,0.15 -8.94,0.28 -0.81,4.57 -1.6,9.17 -2.44,13.74 16.28,0.1 32.59,0.03 48.89,0.05 0.92,-4.67 1.75,-9.34 2.64,-13.99 -2.18,0 -6.52,0 -8.68,0.02 2.77,-16.53 6.12,-32.91 8.89,-49.42 4.01,-0.1 8.02,-0.15 12.09,-0.2 -0.16,1.32 -0.46,3.91 -0.61,5.23 8.38,-0.08 16.78,-0.05 25.19,-0.1 1.12,-6.33 2.31,-12.65 3.58,-18.92 -35.45,-0.23 -70.91,0.05 -106.34,-0.13zm114.65 0.03l0 0c-0.89,4.72 -1.73,9.47 -2.52,14.24 2.18,-0.1 6.53,-0.33 8.71,-0.43 -2.92,16.58 -6.14,33.12 -9.09,49.73 -2.95,-0.03 -5.87,-0.03 -8.79,0 -0.86,4.57 -1.72,9.14 -2.59,13.76 26.31,0.33 52.62,0.18 78.94,0.08 1.04,-6.12 2.16,-12.24 3.25,-18.34 -7.52,0.13 -15.06,-0.28 -22.56,0.18 -4.74,4.22 -10.74,4.93 -16.81,4.5 1.12,-6.84 2.36,-13.62 3.61,-20.4 8.2,-0.2 16.46,-0.15 24.68,-0.12 0.89,-4.65 1.7,-9.35 2.54,-14 -8.25,0.03 -16.5,0.03 -24.73,0.05 1.01,-5.1 2.03,-10.16 2.99,-15.24 4.22,-0.02 8.49,-0.02 12.73,0 -0.18,1.27 -0.56,3.79 -0.74,5.06 8.53,-0.03 17.09,-0.03 25.65,0.02 1.17,-6.4 2.41,-12.75 3.53,-19.12 -26.28,0.13 -52.54,0.03 -78.8,0.03z"/>
   <path class="fil2" d="M937.07 45.23c11.74,5.03 25.09,14.35 24.99,28.52 -2.44,16.54 -17.22,27.38 -30.42,35.69 -29.72,17.11 -64.61,27.78 -99.1,24.22 32.4,-4.24 65.37,-12.36 92.7,-31.06 11.32,-8.02 23.26,-19.12 23.69,-33.98 0.69,-9.44 -5.89,-16.91 -11.86,-23.39zm136 1375.47c3.68,-5.59 9.65,-9.12 14.68,-13.38 0.43,0.96 1.32,2.84 1.75,3.81 -1.29,16.35 -5.61,32.38 -8.28,48.61 -45.13,-0.23 -90.26,0.15 -135.39,-0.18l0.94 -0.84c7.6,-6.15 14.78,-15.39 25.65,-14.43 31.9,0.13 63.83,0.11 95.75,0.13 1.45,-7.95 2.23,-16.08 4.9,-23.72zm240.99 -14.1c1.55,-8.86 10.62,-12.64 18.03,-15.54 -3.02,23.06 -8.1,45.79 -12.11,68.7 -72.33,-0.33 -144.69,0.23 -217.02,-0.28 7.83,-6.6 15.44,-16.46 26.92,-15.21 58.98,0.28 117.95,0 176.92,0.15 2.69,-12.54 4.32,-25.32 7.26,-37.82zm40.66 -18.97c29.13,-1.88 58.39,-0.02 87.55,-0.96 -0.89,5.92 -1.83,11.88 -2.8,17.83 15.14,0.58 30.3,-0.51 45.44,0.68 -15.01,2.42 -30.3,-0.78 -45.26,1.65 -6.93,3.1 -12.57,8.36 -18.79,12.58 0.86,-5.29 1.22,-10.67 2.99,-15.7 3.63,-5.94 9.6,-9.96 14.5,-14.76 -27.83,-2.03 -55.77,0.51 -83.63,-1.32zm-1110.88 -10.89c30.53,-0.38 61.05,-0.41 91.58,0.02 -5.46,5.18 -11.07,10.21 -16.84,15.09 -21.25,-0.08 -42.51,-0.36 -63.77,0.15 -7.49,22.71 -15.57,45.21 -23.52,67.74 -41.83,-0.49 -83.68,0.68 -125.48,-0.61l1.72 -1.32c8.18,-5.59 15.73,-14.53 26.62,-13.49 28.62,0.1 57.27,0 85.89,0.13 8.33,-22.43 15.8,-45.19 23.8,-67.71zm588.75 -17.22c5.26,-3.53 10.03,-7.85 15.69,-10.74 7.04,-2.04 14.53,-0.59 21.74,-0.46 -7.06,7.11 -17.16,12.6 -19.27,23.24 0.23,-2.11 0.66,-6.33 0.89,-8.43 -7.24,0.02 -14.48,0.05 -21.69,0.12 0.1,-1.83 0.33,-5.48 0.43,-7.34l0.91 1.48 1.3 2.13zm-244.52 3.4c5.92,-5.13 11.55,-10.89 18.72,-14.3 7.11,-1.65 14.52,-0.55 21.74,-0.3 -6.63,6.6 -15.57,11.58 -19.05,20.72 0.12,-1.44 0.35,-4.39 0.48,-5.86 -7.31,0.02 -14.6,0.02 -21.89,-0.26zm976.99 -27.58c4.47,-1.8 8.91,-3.6 13.41,-5.36 2.74,5.67 5.79,11.81 4.32,18.34 -3.79,22.22 -8.21,44.34 -12.12,66.56 -1.32,9.86 -8.05,17.73 -15.39,23.93 -16.68,13.48 -38.09,21.66 -59.71,20.9 -51.27,-0.23 -102.57,0.3 -153.85,-0.25 7.82,-6.58 15.39,-16.28 26.79,-15.11 42.34,0.12 84.68,-0.08 126.99,0.15 12.7,0.56 25.37,-2.49 36.54,-8.51 9.76,-5.44 21.03,-12.32 23.27,-24.2 3.58,-18.7 6.63,-37.49 10.36,-56.16 1.52,-6.75 0.71,-13.61 -0.61,-20.29zm-874.08 -7.39c1.32,-9.73 11.91,-13.41 18.77,-18.67 -7.8,50.34 -18.09,100.3 -27.1,150.46 -51.59,-0.13 -103.17,-0.03 -154.75,-0.06 -22.12,0.11 -45.71,-9.87 -56.56,-30.01 4.57,-2.42 9.15,-4.83 13.74,-7.19 8.89,15.95 27.84,23.03 45.39,21.99 46.35,-0.2 92.7,-0.12 139.05,-0.02 7.34,-38.81 14.45,-77.64 21.46,-116.5zm260.26 -19.91l1.12 -0.89c-9.17,50.92 -18.49,101.79 -28.06,152.61 -51.76,-0.2 -103.5,-0.02 -155.25,-0.08 -22,0.06 -44.93,-10.15 -56.05,-29.84 4.54,-2.51 9.11,-5.03 13.68,-7.51 4.65,6.85 10.16,13.51 18.04,16.81 13,6.88 28.11,5.15 42.28,5.26 41.37,-0.03 82.72,-0.03 124.09,0.05 7.57,-38.66 14.3,-77.46 21.51,-116.19 1.88,-9.71 11.91,-14.18 18.64,-20.22zm346.09 -15.59c4.31,-5.69 11.02,-8.77 16.86,-12.58 -2.18,17.61 -5.69,35.03 -9.42,52.37 -22.25,-0.48 -44.5,0.1 -66.75,-0.33 -4.67,22.48 -8.45,45.16 -12.69,67.71l-0.31 0.56c-3.17,9.22 -11.38,14.68 -19.1,19.83 5.79,-34.31 12.37,-68.52 18.54,-102.78 22.45,-0.58 44.9,-0.4 67.33,-0.1 1.8,-8.23 2.46,-16.81 5.54,-24.68zm81.09 -12.55c1.01,0.84 3.07,2.51 4.09,3.35 3.76,-1.52 7.51,-3.15 11.48,-4.19 7.13,4.02 13.41,9.42 20.59,13.41 32.26,18.13 64.13,36.98 96.46,55.01 -5.64,3.3 -11.28,6.6 -16.94,9.8 -2.06,-2.15 -4.16,-4.29 -6.75,-5.71 -29.49,-16.79 -58.9,-33.7 -88.31,-50.62 -8.71,-4.87 -16.23,-12.01 -20.62,-21.05zm-556.04 -71.87c24.3,-0.41 48.64,-0.71 72.94,0.17 -5.31,5.03 -10.9,9.76 -16.74,14.15 -14.3,-0.3 -28.57,0 -42.84,-0.23 -11.38,60.98 -22.58,122.01 -33.68,183.04 -5.81,5.25 -11.86,10.23 -18.11,14.96 1.05,-9.76 2.67,-19.41 4.63,-29.01 11.48,-61 22.37,-122.08 33.8,-183.08zm-242.31 0.53c24.51,-1.62 49.14,-0.99 73.67,-0.33 -5.25,5.08 -10.71,10.01 -17.06,13.69 -14.2,0.79 -28.45,0.1 -42.64,0.25 -11.3,61.01 -22.76,121.98 -33.55,183.09 -5.69,5.15 -11.79,9.85 -18.11,14.22 11.2,-70.55 26.16,-140.44 37.69,-210.92zm879.85 -1.62c25.62,0.2 51.25,-0.03 76.87,0.12 -5.66,5.34 -11.6,10.36 -18.03,14.76 -15.29,-0.48 -30.6,-0.13 -45.89,-0.23 -2.18,13.08 -5.21,26 -6.68,39.21 -5.71,2.41 -11.48,4.7 -17.24,6.93 2.94,-20.36 6.88,-40.61 10.97,-60.79zm-215.14 0.07c21.97,0.08 43.94,-0.15 65.9,0.13 -5.86,5.43 -12.01,10.54 -18.46,15.29 -11.45,-0.38 -22.91,-0.23 -34.36,-0.1 -3.18,18.66 -7.09,37.18 -9.98,55.89 -6.02,5.21 -12.32,10.06 -18.8,14.68 4.93,-28.7 10.65,-57.22 15.7,-85.89zm-236.09 0.59c8,-1.38 16.18,-0.54 24.28,-0.41 -6.25,5.31 -12.57,10.49 -19.07,15.47 -7.57,-0.41 -15.14,-0.46 -22.68,-1 5.43,-5.07 10.41,-11.25 17.47,-14.06zm137.7 14.32c1.12,-6.02 2.29,-12.01 3.71,-17.93 -0.61,5.08 -1.07,10.13 -1.5,15.26 5.61,-3.91 10.75,-8.63 16.97,-11.55 7.77,-1.6 15.79,-0.61 23.67,-0.41 -5.77,5.23 -11.74,10.19 -17.88,14.96 -1.12,4.95 -2.24,9.93 -3.3,14.93 0.78,-5.03 1.49,-10.06 2.36,-15.03 -8.03,0.12 -16.03,0.12 -24.03,-0.23zm444.52 -8.74c7.24,-2.77 13.46,-7.41 19.15,-12.57 -2.69,12.8 -4.09,25.91 -7.54,38.53 -28.9,0.58 -57.83,0.02 -86.71,0.23 -0.02,-1.78 -0.02,-5.31 -0.02,-7.09l1.17 0.56c0.86,0.41 2.54,1.19 3.38,1.6 5.79,-3.71 10.59,-10.34 18.1,-10.21 17.2,-0.58 34.42,0.2 51.64,-0.15 0.22,-3.53 0.53,-7.01 0.78,-10.52l0.05 -0.38zm-218.26 -45.36l1.15 -0.91c-4.14,24.18 -9.02,48.25 -13.11,72.46 -23.92,-0.13 -47.87,0.3 -71.77,-0.26 6.09,-4.77 11.56,-10.92 18.89,-13.81 13.01,-2.03 26.37,1.42 39.27,-1.6 4.27,-13.18 4.01,-27.43 8.46,-40.51 4.62,-6.2 11.27,-10.41 17.11,-15.37zm-238.78 0l1.2 -0.94c-3.08,18.47 -6.81,36.8 -9.99,55.27 -8.07,0.05 -16.17,0.05 -24.22,0.2 -10.57,58.97 -21.67,117.84 -32.39,176.79 -2.08,10.26 -11.96,15.19 -19.73,20.72 13.08,-70.86 25.88,-141.74 39.16,-212.57 8.03,-0.18 16.08,-0.35 24.13,-0.56 1.45,-7.85 1.96,-15.97 4.78,-23.47 4.59,-6.19 11.25,-10.46 17.06,-15.44zm-157.15 0.61l1.34 -1.06c-4.16,24.23 -8.84,48.38 -13.2,72.58 -25.5,0.15 -50.98,-0.1 -76.47,0.13 -5.01,0.1 -10.04,-0.26 -14.81,-1.75 1.4,-1.05 4.19,-3.13 5.61,-4.17 6.55,-2.87 11.71,-9.5 19.35,-9.35 17.76,-0.38 35.51,0.44 53.29,-0.25 2.23,-12.06 3.88,-24.23 6.63,-36.19 1.7,-9.68 11.55,-14.04 18.26,-19.94zm-241.6 -0.05l1.27 -0.99c-4.19,24.23 -8.89,48.38 -13.21,72.59 -29.97,-0.28 -59.96,0.63 -89.93,-0.49 7.36,-5.48 13.82,-14.73 23.87,-14.7 17.7,-0.41 35.43,0.51 53.16,-0.36 2.64,-13.28 3.99,-26.87 7.36,-40 3.99,-6.96 11.53,-10.94 17.48,-16.05zm-328.39 -13.92c5.13,3.48 10.11,7.14 15.04,10.9 1.93,75.48 1.93,151.04 3.94,226.51 9.24,0.13 18.49,-0.1 27.73,0.13 -4.01,22.61 -8.31,45.16 -12.42,67.74 -41.98,-0.26 -83.96,0.25 -125.94,-0.28 0.35,-4.04 0.76,-8.06 1.29,-12.04 0.1,2.44 0.31,7.26 0.41,9.67 7.03,-5.18 13.26,-13.86 23.03,-12.77 29.39,0.1 58.8,0.03 88.18,0.13 2.64,-12.19 3.33,-24.82 7.29,-36.65 4.09,-5.46 9.83,-9.37 14.83,-13.92 -7.92,-0.33 -15.97,-1.4 -23.85,0.05 -6.19,3.61 -11.09,8.99 -16.53,13.64 -0.28,-84.37 -3.33,-168.71 -3,-253.11zm-110.78 71.65c12.9,-37.16 25.45,-74.41 38.35,-111.54 -0.81,17.17 -4.82,33.95 -7.01,50.97 -1.93,11.25 -2.51,22.73 -5.36,33.83 -15.18,41.88 -28.62,84.42 -43.96,126.24 -5.81,5.97 -13.26,9.96 -20.31,14.25 11.47,-38.32 25.77,-75.76 38.29,-113.75zm1284.65 -120.43c7.62,7.57 16.36,13.97 25.93,18.89 -6.07,5.69 -12.8,12.14 -13.2,21.06 -1.93,11.83 6.22,23.72 1.17,35.22 -3.38,8.97 -13.64,14.61 -23.04,12.29 -10.13,-2 -19.84,-6.17 -28.32,-12.03 7.34,0.3 15.27,1.42 22.2,-1.73 6.55,-3.23 6.43,-11.33 8.1,-17.45 7.39,-1.04 13.18,-5.76 15.92,-12.7 -4.21,1.58 -8.25,3.53 -12.62,4.52 -9.29,-1.72 -17.29,-7.06 -25.29,-11.76 5.97,-0.93 11.65,-3.09 17.11,-5.68 9.99,-0.46 20.02,-2.32 28.7,-7.52 -12.29,1.65 -25.32,1.07 -35.27,-7.19 4.16,-1.27 8.58,-2.06 12.47,-4.14 3.7,-2.77 4.29,-7.82 6.14,-11.78zm-180.32 -6.66c12.88,0.69 25.76,1.6 38.58,3.15 2.31,4.47 4.7,8.92 7.24,13.29 -1.98,4.11 -4.01,8.17 -6.09,12.21 -10.11,-0.71 -20.22,-1.04 -30.3,-1.45 -4.04,-8.73 -6.81,-17.98 -9.43,-27.2zm254.43 -12.92c7.75,3.83 15.62,7.46 23.98,9.8 -1.12,19.53 -20.3,32.1 -38.48,32.89 6.78,-5.46 16.38,-9.22 18.72,-18.49 3.02,-8.25 -1.12,-16.69 -4.22,-24.2zm-25.88 -5.84c8.23,5.2 18.03,11.4 19.71,21.84 1.24,10.44 -10.62,14.98 -18.69,17.37 -12.7,4.26 -25.81,-2.87 -33.81,-12.5 8.56,0.21 18.19,2.19 25.99,-2.44 8.22,-5.15 6.09,-16.1 6.8,-24.27zm-1054.07 -18.93c5.56,5.26 1.93,12.47 -0.1,18.57 -0.76,-6.17 -0.56,-12.42 0.1,-18.57zm890.67 -12.11c9.45,5.97 20.75,6.05 31.49,4.65 -0.66,6.35 -7.72,6.75 -12.39,8.96 -6.53,-4.09 -17.2,-4.82 -19.1,-13.61zm-879.55 -3.33c4.3,-3.43 8.56,-6.9 13.29,-9.75 3.91,2.49 7.06,6.02 10.18,9.42 -7.75,1.83 -15.69,1.53 -23.47,0.33zm-80.35 15.34c-13.87,-13.18 -20.93,-32.68 -20.57,-51.6 7.79,10.46 12.72,22.78 20.77,33.09 5.31,7.44 12.62,13.33 17.25,21.31 5.07,9.57 6.52,20.52 8.27,31.11 -31.36,-7.67 -57.34,-27.81 -84.46,-44.17 7.46,14.94 21.41,25.04 35.35,33.48 14.32,8.15 29.1,16.38 45.59,19.07 3.55,-0.05 5.23,2.56 6.04,5.71 -29.77,-2.61 -59.05,-8.91 -87.95,-16.35 6.98,8.35 17.58,12.21 27.56,15.69 24.33,8.18 50.13,9.98 75.55,11.81 -4.09,3.89 -7.29,10.29 -13.61,10.47 -21.13,1.34 -42.77,1.34 -63.29,-4.5 -12.34,-3.05 -23.7,-9.12 -36.11,-11.83 13.81,13.41 31.69,23.21 50.99,25.34 16.66,1.88 33.48,1.09 50.19,0.59 -13.79,17.32 -36.96,22.07 -57.58,25.93 -10.84,2.66 -20.54,-4.27 -29.48,-9.32 -20.7,-13.08 -39.95,-28.63 -56.79,-46.46 6.86,0.18 13.71,0.18 20.6,-0.15 -0.49,-7.16 -2.49,-14.04 -5.87,-20.37 -5.64,-10.38 -5.28,-22.55 -4.98,-34 17.3,13.94 36.44,27.68 59.1,30.5 -2.9,-8.89 -8.91,-15.98 -14.83,-22.96 -5.62,-6.5 -8.51,-14.68 -11,-22.76 21.26,8.39 39.9,22.02 60.75,31.32 5.16,2.41 10.97,2.49 16.56,2.74 -1.93,-4.98 -4.19,-9.93 -8.05,-13.69zm1085.13 -15.18c-4.32,-16.44 -4.72,-34.32 2.31,-50.09 2.41,8.18 1.14,16.77 1.98,25.15 0.69,9.04 3.46,17.72 6.28,26.28 -3.56,-0.48 -7.07,-0.91 -10.57,-1.34zm-402.67 -51.53c15.24,24.86 26.01,52.87 46.15,74.46 7.39,8.28 18.13,12.16 28.82,13.97 40.77,7.62 82.11,11.4 123.41,14.78 2.13,7.26 4.37,14.5 6.63,21.76 -38.76,-1.22 -77.57,-2.21 -116.14,-6.17 -17.12,-2.08 -34.7,-3.96 -50.57,-11.07 -14.04,-6.17 -21.05,-21.03 -26.36,-34.46 -8.08,-23.5 -11.56,-48.51 -11.94,-73.27zm-378.44 13.63c1.88,-8.58 10.47,-12.8 18.59,-13.13 -7.84,8.56 -11.14,19.71 -9.11,31.19 -5.13,-4.57 -11.61,-10.31 -9.48,-18.06zm764.17 -52.9c3.96,-2.36 8.41,-4.85 13.18,-3.25 10.77,1.42 16.15,11.96 24.64,17.42 6.42,-4.11 12.62,-11.45 21.05,-9.7 33.98,5.28 68.01,10.41 101.94,15.98 5.39,0.3 8.82,4.52 11.64,8.63 39.64,7.32 79.49,13.61 119.16,20.85 1.32,-4.62 3.2,-10.08 8.89,-10.59 11.48,-1.29 24.53,4.57 28.77,15.87 6.48,1.91 15.01,1.63 19.07,8.08 4.22,5.44 -0.15,13.18 4.78,18.41 4.85,6.58 1.55,16.84 -5.08,20.88 -8.03,0.28 -15.85,-2.24 -23.72,-3.35 0.33,2.23 1.01,6.73 1.34,8.96 -6.14,0.16 -12.29,0.66 -18.43,0.54 -1.73,-4.22 -2.77,-8.64 -4.04,-12.96 -37.44,-6.17 -74.72,-13.63 -112.26,-19.12 -5.2,6.83 -13.2,9.27 -21.51,7.87 -5.58,11.05 -11.63,21.97 -19.93,31.22 -5.24,5.68 -8.64,14.14 -16.89,15.95 -17.37,5.63 -35.02,-3.61 -52.47,-1.22 -10.14,-10.85 -23.75,-16.89 -36.35,-24.11 -4.39,-15.95 -12.21,-31.49 -11.53,-48.4 -0.4,-10.03 1.48,-22.25 -7.31,-29.39 -5.43,-4.29 -4.09,-12.19 -8.2,-17.34 -4.09,-5.64 -10.72,-8.31 -16.74,-11.23zm38.65 21.72l0 0c4.83,1.06 9.71,1.95 14.61,2.84 -12.29,15.32 -18.72,36.78 -10.8,55.59 4.02,-18.94 9.32,-38.17 21.31,-53.76 18.79,2.84 37.54,6.17 56.33,9.14l-0.35 2.31c-12.07,-2.33 -24.31,-5.05 -36.68,-3.37 0.56,3.86 -0.99,9.11 3,11.68 7.21,5.36 16.58,5.97 25.12,7.85 -2.19,5.86 -2.31,12.08 -1.63,18.26 -11.68,-2.01 -23.46,-4.02 -35.38,-3.28 -0.05,4.55 0.16,9.83 4.4,12.65 9.04,5.94 20.42,5.81 30.78,7.31 0.71,1.42 2.13,4.29 2.82,5.74 9.93,-0.56 13.05,-11.2 10.77,-19.45 -3.92,0.76 -7.75,1.65 -11.61,2.49 4.72,-5.21 9.3,-10.64 12.04,-17.2 2.28,9.2 5.66,18.95 2.36,28.37 -1.85,4.95 -4.01,13.72 -11.07,12.11 -21.59,-2.74 -43.03,-6.65 -64.59,-9.42 0.28,2.03 0.87,6.05 1.15,8.08 18.38,3.73 37.15,5.43 55.64,8.61 6.63,0.71 14.93,3.43 20.11,-2.41 10.21,-10.9 10.54,-27.36 6.91,-41.05 6.43,1.2 12.88,2.39 19.35,3.53 -0.48,7.67 4.83,13.03 11.64,15.62 -0.92,-3.73 -5.11,-11.07 0.78,-12.85 8.92,0.33 17.5,3.02 26.21,4.7 -5.46,-12.29 -20.59,-8.33 -30.24,-13.84 -9.17,-10.92 -4.91,-27.2 6.65,-34.44 -5.51,1.45 -11.78,2.72 -15.09,7.9 -6.07,7.34 -5.1,17.5 -2.38,26.01 -6.81,-1.35 -13.62,-2.62 -20.4,-3.99 -1.01,-6.96 -1.67,-13.94 -1.85,-20.93 6.93,-1.17 13.87,-2.28 20.82,-3.3 0,-0.38 0,-1.12 0.03,-1.5 -28.52,-4.14 -56.89,-9.09 -85.33,-13.58 -8.61,-1.25 -17.98,-1.63 -25.43,3.58zm157.49 24.17l0 0c41.68,9.17 83.58,17.15 125.31,26.11 1.95,3.51 3.96,7.04 6.07,10.49 0.02,-4.75 0,-9.47 -0.03,-14.2 -43.73,-7.72 -87.44,-15.79 -131.35,-22.4zm142.78 17.78l0 0c-5.74,3.94 -5.99,13.34 -1.78,18.44 2.67,3.25 6.63,-0.71 6.94,-3.71 1.19,-5.2 1.24,-13.25 -5.16,-14.73zm7.11 19.81l0 0c-1.6,4.55 -3.15,11 1.63,14.25 5.94,-0.99 6.35,-16.51 -1.63,-14.25zm-730.87 -144.1c3.46,-2.62 7.01,-5.16 10.59,-7.65 -1.52,7.65 -3.32,15.24 -5.76,22.68 -1.78,-4.97 -3.33,-10 -4.83,-15.03zm-702.65 -5.94c6.32,-0.84 14.78,-4.73 19.65,1.29 4.58,6.45 5.24,14.78 8.79,21.82 7.59,-1.48 16.53,-5.28 23.42,0.1 18.1,13.16 36.39,26.16 54.35,39.52 7.67,5.58 8.35,16.56 16.45,21.69 10.85,8.3 20.8,17.75 31.88,25.72 10.26,3.81 25.06,11.79 20.57,25.02 -6.53,-4.52 -12.6,-9.65 -19.33,-13.82 5.21,11.03 15.49,20.02 27.73,22 0.13,-2.01 0.38,-6.05 0.51,-8.08 11.61,8.46 24.21,19.1 23.16,35.02 -2.69,6.5 -4.64,13.18 -5.41,20.22 -4.16,8.74 -15.54,9.4 -23.69,6.65 0,1.68 0,5.03 0,6.73 -3.56,-2.56 -7.11,-5.13 -10.62,-7.72 -0.07,-5.94 -0.15,-11.88 -0.35,-17.8 -28.04,-22.81 -54.73,-47.24 -83.07,-69.64 4.11,11.61 13.73,19.56 21.38,28.72 -5.59,9.81 -17.65,10.47 -27.66,10.37 0.15,20.21 -0.79,40.61 -4.24,60.54 -1.45,7.06 -10.97,4.7 -16.25,5.51 -2.59,-18.64 -4.27,-39.46 -17.91,-53.84 -10.66,-10.87 -18.92,-23.82 -25.62,-37.41 8.61,8.16 16.71,16.84 25.22,25.09 8.12,8.44 23.18,9.1 31.72,0.94 3.58,-3.75 3.22,-9.32 4.14,-14.04 -3.71,5.46 -7.7,12.06 -15.01,12.75 -10.06,2.46 -20.12,-5.49 -21.77,-15.24 -0.1,-4.21 0.53,-8.4 0.92,-12.57 -4.42,-4.9 -10.29,-10.54 -7.7,-17.83 2.39,-10.64 13.36,-15.36 22.73,-18.23 -4.75,-4.35 -8.56,-9.53 -12.34,-14.68 0.25,2.79 0.71,8.38 0.96,11.15 -9.6,4.95 -19.96,12.44 -20.09,24.43 -1.24,8.46 7.42,13.76 7.75,21.81 -7.39,-5.33 -13.99,-11.7 -20.29,-18.26 -6.33,-6.07 -6.45,-15.51 -7.98,-23.62 -2.18,-14.32 4.93,-27.63 11.76,-39.67 4.83,3.43 9.68,6.86 14.63,10.14 -6.48,3.48 -14.02,6.27 -18.11,12.77 -5.89,8.51 -5.31,19.86 -1.04,28.93 -1.83,-16.53 10.01,-33.93 27.46,-34.34 9.98,6.28 18.53,14.61 28.69,20.65 -0.4,-4.7 -0.15,-10.08 -4.59,-12.95 -14.43,-11.94 -29.79,-22.76 -44.63,-34.19 -1.19,-5.81 -1.6,-12.21 -5.46,-17.04 -4.14,-5.94 -11.04,-10.59 -10.71,-18.61zm33.22 27.91l0 0c15.92,12.34 31.72,25.09 48.68,36.01 -9.27,-14.15 -21.89,-25.73 -35.35,-35.81 -3.79,-3.48 -9.02,-0.76 -13.33,-0.2zm34.38 75.96l0 0c3.15,7.92 0.11,17.58 5.84,24.53 4.96,7.83 14.94,8.94 23.37,9.12 -5.79,-3.88 -13.31,-6.22 -16.76,-12.72 -3.13,-4.45 -1.81,-9.98 -1.68,-14.99 -6.35,-9.62 -6.2,-23.84 3.35,-31.34 8.66,-8 21.46,-5.1 31.34,-1.17 -5.91,-7.51 -16.02,-10.97 -25.37,-9.37 -15.64,2.54 -26.61,21.16 -20.09,35.94zm-27.91 -1.98l0 0c-1.32,5.76 4.04,11.07 9.75,10.16 5.57,-0.08 9.3,-4.55 11.48,-9.17 -5.84,-1.63 -9.75,-5.61 -10.66,-11.68 -4.27,2.51 -10.34,4.9 -10.57,10.69zm13.13 18.82l0 0c-5.48,2.84 -7.92,11.68 -2.74,15.97 6.7,5.87 18.95,-0.28 18.36,-9.32 0.25,-7.82 -10.01,-10.92 -15.62,-6.65zm128.99 39.85l0 0c-5.05,2.97 -7.34,10.33 -3.6,15.23 6.14,6.89 19.81,1.37 19.12,-8.05 1.02,-8.17 -9.75,-11.32 -15.52,-7.18zm3.05 28.92l0 0c6.5,4.52 10.92,-1.83 11.56,-7.79 -3.46,2.38 -15.27,1.6 -11.56,7.79zm-132.95 -229.99c3.73,4.32 7.54,8.53 11.5,12.65 -2.99,4.26 -6.5,8.23 -10.66,11.4 -0.46,-8 -0.79,-16.03 -0.84,-24.05zm-185.68 -99.43c13.26,7.8 26.59,15.8 38.25,25.9 6.53,9.33 10.08,20.4 15.54,30.38 13.16,27.05 29.13,53.46 52.62,72.81 -19.6,3.41 -38.67,-2.64 -57.98,-4.87 -3.12,-5.97 -6.12,-11.99 -8.96,-18.09 11.35,-0.2 22.68,0.71 33.95,2.16 -14.37,-7.26 -30.57,-8.56 -46.29,-10.08 1.75,-0.1 5.28,-0.28 7.03,-0.38 -13.59,-31.72 -28.57,-63.52 -34.16,-97.83zm-24.96 -71.31c21.15,11.55 40.96,26.18 55.87,45.3 33.7,-0.76 65.8,-15.13 91.07,-37.02 0.89,13.66 1.5,27.37 4.12,40.86 -19.41,14.65 -41.93,24.79 -64.87,32.41 -16.23,-10.95 -32.28,-22.3 -50.13,-30.51 -6.6,-15.51 -15.77,-30.52 -29.72,-40.48 2.19,10.29 4.17,20.67 3.79,31.24 -21.87,-6.1 -44.78,-6.02 -66.87,-1.24 9.22,-3.94 18.49,-8.21 28.52,-9.48 8.56,-1.37 17.3,-0.38 25.8,-2.03 3.33,-9.3 1.91,-19.4 2.42,-29.05zm633.52 -37.87c35.58,5.54 73.14,8.25 107.99,-2.51 -9.78,22.67 -27.86,40.3 -46.55,55.84 -31.9,27.05 -69.82,45.64 -108.09,61.79 -10.44,4.68 -21.41,8.16 -31.39,13.82 50.89,-9.14 100.59,-26.06 145.19,-52.42 -39.9,56.08 -99.61,96.96 -165.18,117.05 -29.13,8.92 -59.02,15.42 -89.22,19.23l2.72 -2.54c9.7,-5.51 20.9,-7.44 31.29,-11.38 46.19,-16.99 92.77,-35.71 132.11,-65.95 -22.73,1.09 -45.51,1.14 -68.16,-1.27 43.45,-25.3 90.89,-48.46 122.38,-89.07 -20.64,4.11 -40.63,10.97 -61.46,14.12 10.03,-18.62 20.62,-36.98 28.37,-56.71zm393.25 -36.01c12.74,11.68 22.17,27.12 26.59,43.86 12.59,52.47 8.07,110.42 -19.36,157.64 10.39,-5.72 19.71,-13.06 28.55,-20.91 7.21,40.51 7.59,82.19 2.59,122.98 -19.68,-13.39 -42.72,-26.7 -67.53,-20.78 13.97,4.83 27.2,13.28 33.93,26.92 -27.91,2.54 -57.42,9.96 -77.38,30.91 -8,8.91 -16.84,18.95 -17.43,31.49 -1.49,1.83 -3.02,3.61 -4.59,5.36 2.54,-12.95 7.41,-25.52 15.26,-36.22 14.5,-20.64 37.23,-33.77 60.72,-41.72 -5.74,-6.76 -12.59,-12.37 -19.86,-17.37 16.59,-8.06 35.13,-9.83 53.34,-8.89 6.78,-22.48 9.39,-46.02 8.94,-69.44 -13.64,8.18 -27.91,15.82 -43.79,18.49 7.14,-13.28 15.17,-26.21 19.66,-40.68 14.76,-44.83 15.59,-93.24 8.66,-139.61 -1.95,-14.17 -6.12,-27.91 -8.3,-42.03zm-381.26 -6.68c30.27,4.54 61,4.44 91.48,2.94 -1.88,4.12 -3.84,8.21 -5.77,12.3 -29.13,10.48 -60.65,4.59 -90.66,2.28l0.35 -0.51c2.87,-5.18 10.64,-11.45 4.6,-17.01zm84.34 -121.12c5.21,-0.61 10.49,-1.02 15.62,0.46 17.35,4.44 34.46,9.75 51.89,14.02 -2.65,20.26 -5.31,40.66 -10.82,60.39 -2.36,7.42 -4.83,16.79 -13.34,19.2 -17.67,5.49 -36.49,4.29 -54.75,5.38 -20.37,1.2 -40.76,0.46 -61.11,-0.63 -10.31,-0.64 -20.77,-1.47 -30.5,-5.18 16.86,2.03 33.98,2.87 50.87,0.48 12.5,-1.3 25.86,-4.88 34.11,-15.06 10.39,-11.78 10.49,-28.39 10.18,-43.2 -21.96,1.58 -42.21,12.55 -64.43,12.04 -10.69,0.07 -21,-3 -30.88,-6.81 10.56,-0.15 21.46,0.53 31.57,-3.12 15.24,-5.54 29.08,-14.58 44.95,-18.47 8.15,-2.31 16.94,-2.59 24.71,-6.19 2.59,-3.84 1.2,-8.97 1.93,-13.31zm20.52 -53.23c3.79,-2.64 6.88,-6.78 11.56,-7.88 9.01,0.11 17.14,4.58 24.99,8.59 -4.93,-0.61 -9.83,-1.22 -14.73,-1.78 -0.13,2.19 -0.36,6.53 -0.49,8.71 -3.5,-2.39 -7,-4.75 -10.53,-7.03 -0.56,5.53 -1.83,10.94 -3.89,16.1 -2.49,-3.35 -4.9,-6.76 -7.31,-10.13 -1.99,8.91 -5.19,17.72 -11.64,24.45 0.39,-8.76 4.04,-19.53 -3.98,-26 5.51,-0.92 11.65,-1.04 16.02,-5.03zm-126.96 10.61c17.6,-13.23 40.31,-18.92 62,-18.08 10.66,5.21 21.31,10.62 33.09,13 -9.5,1.17 -18.79,-0.81 -28.06,-2.36 -2.04,3.86 -3.64,7.93 -5.36,11.91 -4.24,-4.62 -7.04,-10.26 -9.48,-15.97 -3.96,5.74 -7.28,11.86 -10.13,18.23 -3.61,-5.02 -6.4,-10.54 -8.71,-16.25 -5.46,5.89 -9.42,12.93 -13.79,19.61 -1.75,-4.93 -3.35,-9.91 -4.9,-14.89 -5.23,5.82 -9.3,12.5 -12.35,19.69 -2.48,-2.29 -4.92,-4.63 -7.36,-6.94 -11.02,10.9 -24.08,20.73 -39.77,23.27 16.1,-8.72 30.14,-20.45 44.82,-31.22zm-1.8 -55.16c13.26,-11.1 27.28,-22.12 43.86,-27.71 -14.98,16.59 -32.58,30.91 -45.23,49.58 -5.74,7.49 -9.07,17.67 -18.41,21.53 -11.69,5.77 -21.41,14.61 -32.79,20.83 12.88,-24.71 31.85,-45.79 52.57,-64.23zm-169.68 -19.78c1.98,-6.68 3.1,-15.29 9.6,-19.08 6.02,0.77 4.47,7.39 2.77,11.2 -2.97,6.51 -0.1,13.44 1.37,19.92 -5.74,-1.3 -16.1,-4.02 -13.74,-12.04zm-20.26 -63.17c13.46,-4.31 20.19,12.3 25.22,21.87 -4.91,-3.93 -9.25,-9.17 -15.52,-10.82 -5.92,0.82 -3.68,7.29 -3.73,11.38 3.14,23.24 12.85,44.75 21.41,66.34 -13.03,-14.05 -18.98,-32.84 -25.71,-50.39 -2.99,-12.21 -8.68,-26.56 -1.67,-38.38zm96.58 -27.88c79.04,20.01 161.91,33.83 243.25,20.65 15.19,-2.37 29.89,-6.86 44.75,-10.64 -1.62,1.77 -3.61,2.82 -5.94,3.17 -27.3,5.26 -49.07,25.04 -66.47,45.61 14.43,4.93 28.78,10.09 43.2,15.06 3.28,-6.09 5.49,-12.87 9.83,-18.28 4.3,-0.21 8.59,-0.23 12.9,-0.08 -4.16,-6.55 -9.44,-12.26 -15.26,-17.39 6.45,-2.11 13.16,-3.25 19.91,-4.04 -1.55,40.89 -4.65,81.77 -9.06,122.46 -10.77,-3.88 -19.56,-12.27 -30.76,-15.47 4.27,-15.56 -0.36,-37.58 -17.35,-43.27 -6.24,-12.9 -13.99,-24.97 -20.87,-37.51 7.9,-14.15 22.22,-22.71 33.09,-34.24 -17.04,8.69 -33.65,18.57 -47.29,32.1 10.31,17.45 19.68,35.58 25.98,54.89 1.93,-0.64 3.89,-1.27 5.82,-1.91 3.55,6.83 8.84,14.93 4.87,22.73 -2.71,0.66 -5.46,1.25 -8.2,1.78 -1.78,5.28 -4.09,11.22 -10.26,12.49 -15.24,3.89 -33.07,1.02 -45.05,-9.65 10.61,1.68 22.17,3.92 32.4,-0.43 6.68,-3.81 4.98,-12.72 4.07,-19 -3.61,-17.87 -7.6,-35.7 -12.83,-53.15 -15.11,-0.08 -29.97,-3.02 -44.95,-4.37 -29.49,-27.94 -67.86,-47.57 -108.98,-49.04 -1.19,3.71 -2.44,7.39 -3.43,11.15 -11.93,-6.35 -24.53,-11.33 -36.62,-17.32 1.09,-2.11 2.18,-4.19 3.25,-6.3zm-102.12 11.12c8.51,-10.94 22.04,-16.58 35.51,-18.16 18.08,-2.69 36.21,1.12 53.94,4.5 -7.8,2.26 -12.78,8.59 -16.92,15.14 -1.49,-5.29 -2.59,-10.67 -3.1,-16.13 -6.83,5.99 -10.94,14.2 -15.08,22.15 -5.1,-6.99 -5.74,-15.83 -7.09,-24.06 -5,4.52 -9.29,9.76 -13.05,15.34 -1.98,-4.19 -3.66,-8.53 -5.08,-12.92 -10.29,3.5 -19.76,8.76 -29.13,14.14zm226.29 -58.66c53.43,-1.78 107.27,-3.94 159.79,-14.78 1.93,7.54 3.81,15.08 5.39,22.73 -52.55,10.69 -106.44,11.22 -159.88,10.33 -53.71,-1.75 -107.68,-5.03 -160.48,-15.67 -11.88,-2.74 -24.07,-4.9 -35.2,-10.05 63.06,8.4 126.88,7.79 190.38,7.44zm-364.07 -18.59c5.67,-16.84 26.69,-20.55 41.96,-16.94 35.5,8.56 66.74,28.16 99.3,43.88 12.37,6.53 25.27,12.02 37.87,18.09 -37.95,-8.66 -73.5,-25.33 -108.78,-41.4 -15.47,-6.5 -31.69,-13.49 -48.86,-12.22 -8,0.33 -14.63,5.11 -21.49,8.59zm571.25 23.95c31.6,-13.97 60.52,-33.25 87.32,-54.91 -34.54,45.41 -88.56,71.72 -142.99,85.03 -30.5,6.83 -61.84,12.14 -93.18,10.46 51.15,-6.32 101.72,-19.63 148.85,-40.58zm-122.43 -141.87c-7.24,-11.23 -10.98,-26.72 -1.93,-38.1 1.16,33.1 27.75,55.9 49.54,77.36 -19.8,-6.93 -36.46,-21.66 -47.61,-39.26z"/>
   <path class="fil3" d="M661.16 475.53c25.65,1.27 51.33,1.93 76.9,4.27 -5.79,21.03 -2.18,42.89 1.04,64.02 7.98,48.11 20.62,95.57 23.44,144.38 -13.94,2.67 -27.68,6.3 -41.57,9.15 -3.25,0.94 -6.17,-1.2 -8.91,-2.54 -21.74,-12.57 -43.23,-25.68 -65.27,-37.74 5.61,-44.57 12.82,-88.99 17.42,-133.72 1.17,-15.95 2.28,-32.45 -3.05,-47.82zm791.65 680.43c8.25,-17.9 16.05,-36.16 26.69,-52.82 6.73,16.05 17.8,29.53 29.66,42.03 -4.85,12.77 2.54,24.53 10.21,34.16 -16.51,-2.49 -32.91,-6.15 -48.71,-11.63 -6.93,-2.21 -12.72,-6.73 -17.85,-11.74zm-851.33 -93.56c8.66,7.09 17.32,14.22 25.72,21.61 4.14,2.82 3.51,8.28 4.6,12.6 16.36,12.78 33.2,24.97 49.12,38.33 -38.12,0.63 -76.27,0.22 -114.41,0.2 5.96,-9.45 7.46,-21.44 15.79,-29.39 11.36,-11.55 19.84,-26.71 19.18,-43.35zm381.64 -98.61c2.94,-8.33 5.79,-16.74 9.65,-24.69 4.52,7.85 -0.13,17.37 -0.28,25.93 -3.13,-0.43 -6.25,-0.84 -9.37,-1.24zm-34.9 -138.26c39.31,-24.64 74.79,-55.47 102.55,-92.81 12.04,8.72 23.47,18.21 35.46,27 3.76,3.81 8.91,0.56 13.03,-0.76 20.92,-8.63 42.26,-16.15 63.13,-24.91 -7.41,51.96 -14.98,104.88 -7.24,157.25 2.54,18.95 8.92,37.29 18.6,53.77 -40.49,59.66 -78.53,121.85 -103.57,189.76 -104.71,0.97 -209.45,0.16 -314.16,0.41 27.3,-86.45 53.36,-173.31 78.09,-260.5 1.02,-3.27 1.96,-7.54 6.12,-7.77 37.26,-9.17 73.93,-22.02 107.08,-41.57 -0.84,3.05 -1.68,6.12 -2.52,9.19 1.58,0.51 4.7,1.52 6.28,2.06 -6.3,23.87 -12.07,47.9 -17.81,71.92 -1.65,-0.02 -4.92,-0.07 -6.55,-0.1 -0.71,3.1 -1.42,6.2 -2.16,9.3 6.07,0.78 12.14,1.62 18.24,2.46 5.33,-19.83 9.77,-39.87 15.08,-59.71 3.02,20.83 5.69,41.68 8.41,62.55 5.92,0.84 11.83,1.66 17.78,2.47 0.63,-4.73 1.8,-10.08 -4.02,-11.96 5.84,-23.83 11.69,-47.67 17.6,-71.47 1.63,0.05 4.85,0.18 6.48,0.25 0.66,-3.1 1.34,-6.14 2.06,-9.22 -6.23,-0.81 -12.45,-1.44 -18.67,-2.21 -4.39,19.38 -9.47,38.61 -14.17,57.91 -4.07,-20.17 -5.79,-40.69 -8.84,-61 -5.43,-0.79 -10.87,-1.48 -16.28,-2.31zm68.52 9.09l0 0c-1.04,4.77 -3.1,10.46 3.79,11.17 -5.77,24.1 -11.86,48.1 -17.68,72.18 -1.6,-0.1 -4.83,-0.28 -6.45,-0.38 -0.69,3.1 -1.35,6.19 -2.03,9.32 6.12,0.76 12.24,1.47 18.41,2.06 5.97,-23.7 10.74,-47.77 18.11,-71.09 4.11,9.85 7.41,20.01 10.99,30.1 9.35,-8.51 17.22,-18.44 26.67,-26.85 -5.64,24.46 -11.99,48.71 -17.8,73.12 6.09,0.73 12.19,1.5 18.31,2.23 0.74,-2.94 1.47,-5.89 2.23,-8.81 -1.47,-0.61 -4.47,-1.83 -5.94,-2.44 5.84,-23.57 11.96,-47.08 17.3,-70.78 6.42,-0.02 8.81,-4.39 9.14,-10.23 -6.22,-0.74 -12.42,-1.5 -18.59,-2.37 -8.89,9 -16.92,18.8 -26.19,27.41 -3.37,-10.74 -7,-21.41 -10.54,-32.1 -6.57,-0.87 -13.15,-1.76 -19.73,-2.54zm-98.11 107.5l0 0c4.55,3.94 8.82,8.15 12.93,12.55 -0.91,3.45 -1.8,6.93 -2.67,10.41 -4.8,-0.48 -9.21,-2.18 -13.15,-4.93 -1.37,1.86 -2.72,3.79 -4.04,5.69 5.84,0.89 11.71,2.01 17.65,2.21 6.6,-1.45 5.56,-10 7.47,-15.06 -4.27,-3.83 -8.54,-7.69 -12.83,-11.45 0.71,-3.38 1.42,-6.73 2.19,-10.06 5.13,0.97 9.93,3.07 14.75,5.05 0.33,-1.49 0.99,-4.49 1.32,-5.99 -5.99,-0.58 -11.98,-1.83 -18,-1.42 -4.88,2.01 -3.94,8.79 -5.62,13zm30.71 -10.26l0 0c0.02,1.6 0.05,4.83 0.05,6.43 3.45,-2.59 7.59,-2.59 11.73,-2.36 -3.43,11.75 -3.68,25.04 -11.22,35.2 4.04,0.45 8.07,0.58 12.14,0.81 -0.82,-1.09 -2.47,-3.25 -3.28,-4.34 2.41,-10.16 5.05,-20.25 7.34,-30.43 3.89,0.46 8.18,0.56 10.59,4.24 0.69,-1.37 2.11,-4.11 2.82,-5.48 -9.98,-1.88 -20.06,-3.05 -30.17,-4.07zm39.13 5.41l0 0c-4.95,12.5 -9.06,25.45 -16.25,36.9 1.6,0.1 4.83,0.31 6.43,0.41 1.06,-2.57 2.15,-5.16 3.25,-7.72 2.49,0.25 7.46,0.74 9.95,0.99 -0.18,2.94 -0.33,5.89 -0.45,8.86 2.59,0 5.2,0.03 7.84,0.08 -0.78,-2.06 -1.55,-4.09 -2.31,-6.12 1.2,-10.9 2.16,-21.82 2.8,-32.76 -3.76,-0.26 -7.52,-0.46 -11.26,-0.64zm18.67 6.45l0 0c4.62,0.13 9.22,0.15 13.87,0.28 -3,11.71 -4.93,23.82 -10.21,34.82 3.02,0.59 6.07,1.14 9.17,1.68 -2.16,-12.22 4.03,-23.83 5.99,-35.69 2.44,0.41 4.9,0.79 7.37,1.2 0.96,0.94 2.89,2.82 3.86,3.76 0.33,-1.65 0.96,-5.01 1.29,-6.68 -9.32,-0.79 -18.49,-2.85 -27.83,-3.03 -0.87,0.92 -2.62,2.75 -3.51,3.66zm38.83 0.46l0 0c0.77,3.12 1.98,6.37 0.92,9.65 -2.64,9.8 -3.66,20.47 -9.75,28.95 6.85,0.43 13.66,1.3 20.49,2.01 0.1,-1.47 0.33,-4.42 0.43,-5.87 -4.09,1.04 -8.3,1.55 -12.47,1.83 1.09,-5.08 2.26,-10.16 3.46,-15.24 3.53,-0.38 7.06,-0.84 10.59,-1.34 -2.97,-1.04 -5.95,-2.06 -8.94,-3 0.81,-4.34 1.57,-8.69 2.41,-13 4.11,1.14 8.15,2.71 12.34,3.73 0.1,-1.32 0.36,-3.99 0.49,-5.33 -6.68,-0.64 -13.34,-1.48 -19.97,-2.39zm-236.42 63.97l0 0c-2.13,7.75 4.35,13.49 9.48,18.06 -2.03,-11.48 1.27,-22.63 9.11,-31.19 -8.12,0.33 -16.71,4.55 -18.59,13.13zm-168.4 -322.66c24.86,11.76 48.28,26.44 72.43,39.62 16.89,-8.49 32.76,-18.82 49.7,-27.2 2.54,35.07 -0.61,70.88 -12.32,104.2 -9.77,30.02 -26.38,57.07 -44.26,82.84 32.81,-1.06 65.55,-4.67 97.83,-10.74 -21.06,86.78 -43.92,173.21 -61.54,260.8 -19.05,0.41 -38.12,0.28 -57.17,0.08 0.25,-8.97 0.61,-17.93 0.74,-26.9 8.51,-4.42 17.88,-9.19 22.02,-18.41 6.68,-17.07 11.6,-36.83 3.07,-54.2 -5.41,-15.77 -22.15,-22.32 -31.62,-35.02 -5.54,-7.19 -11.91,-14.02 -20.24,-17.9 -12.67,-5.95 -22.55,-16.06 -33.35,-24.69 -7.31,-7.21 -10.33,-18.01 -19.17,-23.87 -16.08,-12.07 -32.64,-23.47 -48.66,-35.56 21.05,-17.47 33.78,-42.49 44.09,-67.28 18.61,-46.83 29.84,-96.25 38.45,-145.77zm507.58 -166.96c27.63,6.68 55.21,13.69 82.56,21.41 -4.59,7.97 -12.85,13.15 -17.54,21.15 -28.32,40.28 -35.53,90.06 -44.58,137.25 -0.17,6.42 -7.31,7.31 -11.93,9.57 -22.05,8.33 -43.41,18.46 -65.63,26.29 -11.88,-1.17 -23.03,-7.57 -34.13,-11.99 25.7,-38.43 41.83,-82.36 52.06,-127.24 9.73,-3.88 19.63,-9.45 24.2,-19.4 8.51,-17.88 11.74,-37.69 14.99,-57.04z"/>
  </g>
 </g>
</svg>
