<?xml version="1.0" encoding="UTF-8"?>
<!DOCTYPE svg PUBLIC "-//W3C//DTD SVG 1.1//EN" "http://www.w3.org/Graphics/SVG/1.1/DTD/svg11.dtd">
<!-- Creator: CorelDRAW -->
<svg xmlns="http://www.w3.org/2000/svg" xml:space="preserve" width="2000px" height="1600px" version="1.1" style="shape-rendering:geometricPrecision; text-rendering:geometricPrecision; image-rendering:optimizeQuality; fill-rule:evenodd; clip-rule:evenodd"
viewBox="0 0 2000 1600"
 xmlns:xlink="http://www.w3.org/1999/xlink">
 <defs>
  <style type="text/css">
   <![CDATA[
    .fil1 {fill:#005DA6;fill-rule:nonzero}
    .fil3 {fill:#0A3153;fill-rule:nonzero}
    .fil2 {fill:#A3AAAC;fill-rule:nonzero}
    .fil0 {fill:#FEFEFE;fill-rule:nonzero}
   ]]>
  </style>
 </defs>
 <g id="Capa_x0020_1">
  <metadata id="CorelCorpID_0Corel-Layer"/>
  <g id="New_x0020_Orleans_x0020_Privateers.cdr">
   <path class="fil0" d="M906.33 364.34c0.74,-3.64 5.02,-2.85 7.72,-3.26 16.79,-0.63 33.56,-1.55 50.38,-1.83 11.86,27.79 23.92,55.45 35.83,83.21 -13.44,0.02 -26.87,1.04 -40.34,0.81 -2.57,-5.72 -5.19,-11.42 -7.76,-17.12 -11.8,0.94 -23.69,0.43 -35.44,1.96 -3.26,5.52 -5.47,11.57 -7.99,17.45 -12.42,0.41 -24.81,1.68 -37.23,2.11 11.55,-27.81 23.08,-55.62 34.83,-83.33zm373.83 627.52c43.15,-14.4 90.36,-20.03 135.04,-9.57 26.82,6.31 53.49,20.02 68.73,43.77 12.82,20.1 13.15,46.08 4.32,67.78 -19,-26.77 -47.99,-46.49 -80.43,-52.47 -24.28,-4.58 -49.62,-4.12 -73.67,1.43 -13.18,-21.4 -32.77,-37.89 -53.99,-50.94zm-698.51 -7.87c46.49,-12.72 96.31,-7.25 141.58,7.82 -21.02,13.2 -40.59,29.64 -53.92,50.84 -30.61,-6.44 -63.39,-6.44 -93.08,4.22 -24.61,8.86 -46.06,25.68 -61.02,47.07 -7.76,-20.1 -8.73,-43.69 1.65,-63.05 12.88,-24.71 38.81,-39.41 64.79,-46.9zm578.46 -51.96c1.65,9.17 -2.35,17.92 -6.19,26.01 -8.27,16.72 -22.44,29.85 -38.52,39.01 -24.33,-5.93 -50.51,-17.02 -62.73,-40.36 19.85,7.74 41.53,14.66 63.01,9.77 19.21,-3.79 35.09,-17.58 44.43,-34.43zm-347.9 35.25c-1.12,-17.51 11.45,-32.85 27.46,-38.5 8.29,16.82 22.72,30.99 40.99,36.31 22.67,7.05 46.64,0.41 67.76,-8.53 1.91,9.95 4.99,19.65 9.77,28.61 8.07,-20.92 23.06,-38.94 42.29,-50.46 14.18,32.08 18.81,68.95 9.09,102.97 -2.72,8.55 -4.63,17.89 -10.94,24.66 -18.04,-4.2 -36.95,-9.85 -50.11,-23.64 5.3,-7.71 12.75,-13.53 21.61,-16.66 -17.28,-1.96 -35.88,0.3 -49.72,11.65 -4.86,-5.55 -9.42,-11.32 -13.69,-17.3 -5.63,7.07 -9.77,15.11 -11.94,23.92 -0.4,3.56 -4.7,3.41 -7.22,4.63 -11.63,3.43 -23.24,7.05 -34.86,10.48 -18.83,-26.16 -39.7,-54.66 -40.49,-88.14zm140.16 -241.53c16.74,-0.11 33.48,-0.06 50.23,-0.03 -0.21,23.49 0.07,46.97 -0.16,70.46 -13.28,-12.34 -22.01,-28.83 -27.76,-45.83 -14.96,8.65 -34.42,7.81 -48.62,-2.03 10.99,-4.43 20.05,-12.57 26.31,-22.57zm-34.38 -30.39c1.22,-7.27 9.67,-10.86 16.41,-10.4 22.72,0.02 45.45,0.02 68.2,0.05 -0.08,8.45 -0.08,16.92 -0.03,25.39 -23.64,-0.05 -47.3,0.15 -70.94,-0.05 -7.71,0.23 -15.65,-6.87 -13.64,-14.99zm69.26 -159.26c4.2,-7.79 9.06,-15.42 15.83,-21.25l-0.08 2.27c-1.04,50.84 -0.25,101.73 -0.4,152.57 -18.32,0.02 -36.62,0.05 -54.94,0 -14.33,-17.56 -40.56,-22.57 -60.13,-10.89 4.2,-22.09 20.84,-43.41 44,-46.8 14.63,-2.46 28.11,4.68 40,12.29 -2.83,-30.02 1.63,-61.27 15.72,-88.19zm528.33 -78.42c8.3,-1.71 16.44,-4.31 24.86,-5.42 15.91,4.7 31,11.9 46.49,17.86 12.39,3 12.98,17.71 18.07,27.22 -15.06,-5.36 -29.26,-13.1 -44.63,-17.45 -1.28,0.2 -3.85,0.61 -5.12,0.81 -2.52,8.12 9.82,10.39 15.12,14.07 14.5,5.55 25.42,16.54 35.82,27.64 0.05,9.57 0.08,19.11 0.08,28.68 -8.45,1.52 -16.77,3.92 -25.39,4.3 -19.04,-7.13 -37.61,-15.58 -56.72,-22.55 -4.1,-8.22 -7.89,-16.59 -11.38,-25.06 14.58,4.88 28.71,11.02 43.03,16.59 3.56,1.02 8.4,3.56 11.45,-0.05 3.28,-11.33 -10.13,-15.27 -17.71,-19.49 -13.25,-5.02 -24.27,-14.08 -33.61,-24.56 -1.53,-7.43 -0.49,-15.06 -0.36,-22.59zm-1098.95 12.82c25.45,-11.2 51.56,-20.94 77.92,-29.72 9.23,-0.48 18.01,4.07 27.02,5.88 0.03,9.72 0.05,19.44 0.1,29.18 -9.39,8.32 -17.81,17.87 -27.71,25.5 -13,5.34 -26.49,9.54 -39.62,14.56 -0.15,8.95 -0.28,17.91 -0.15,26.87 -12.57,5.01 -25.01,10.38 -37.46,15.72 -0.17,-29.34 0.03,-58.65 -0.1,-87.99zm37.66 4.61l0 0c-0.13,7.02 -0.15,14.07 -0.05,21.09 9.57,-3.74 21.17,-5.67 27.41,-14.68 2.97,-4.05 3.25,-11.84 -2.55,-13.49 -8.8,-0.41 -16.69,4.33 -24.81,7.08zm924.93 -72.8c25.85,6.15 51.48,13.25 76.95,20.83 7.2,1.94 11.8,8.35 17.3,12.96 4.05,4.07 9.16,7.3 12.26,12.21 0.72,8.37 0.13,16.77 0.31,25.14 -5.62,1.63 -11.25,3.21 -16.87,4.79 6.46,14.02 13.05,27.99 19.85,41.85 -12.9,-4.27 -25.93,-8.11 -38.71,-12.62 -3.41,-0.89 -4.27,-4.6 -5.7,-7.28 -3.81,-8.83 -7.71,-17.6 -11.9,-26.25 -5.12,-1.43 -10.26,-2.85 -15.35,-4.28 -0.1,9.24 -0.1,18.47 0.03,27.71 -12.8,-2.42 -25.19,-6.56 -37.94,-9.26 -0.64,-28.6 -0.18,-57.2 -0.23,-85.8zm38.04 29.36l0 0c-0.05,6.11 0.1,12.24 0.38,18.35 8.22,1.9 16.29,5.98 24.91,5.24 5.22,-0.87 6.19,-7.59 2.96,-11.1 -6.85,-8.39 -18.56,-9.49 -28.25,-12.49zm-869.53 -8.5c26.18,-7.63 52.47,-15.09 79.06,-21.09 9.9,0.05 18.8,6.03 28.24,8.6 0.18,9.23 0.23,18.5 0.21,27.73 -5.86,4.94 -11.66,9.95 -17.54,14.86 6.34,9.14 15.07,16.62 19.9,26.75 -13.58,2.87 -26.99,6.48 -40.48,9.79 -5.57,-6.77 -9.7,-14.86 -16.34,-20.61 -5.21,0.41 -10.1,2.47 -15.04,4.05 0.21,8.37 0.16,16.77 -0.05,25.14 -12.74,3.36 -25.37,7.15 -37.94,11.04 -0.1,-28.75 -0.05,-57.51 -0.02,-86.26zm38.07 9.36l0 0c0.02,6.85 0.1,13.69 0.1,20.54 8.78,-2.52 18.47,-3.74 25.88,-9.52 4.07,-2.82 3.91,-8.04 4.37,-12.41 -1.19,-1.02 -3.61,-3.06 -4.81,-4.1 -8.8,0.33 -17.3,2.65 -25.54,5.49zm99.34 -43.25c13.07,-2.6 26.18,-5.07 39.33,-7.31 0.11,28.2 0.13,56.42 0,84.64 -13.15,2.41 -26.26,4.91 -39.31,7.76 -0.1,-28.37 -0.05,-56.72 -0.02,-85.09zm573.21 73.66c-0.1,-28.19 -0.13,-56.39 0.03,-84.58 26.64,4.25 53.15,9.19 79.51,14.84 3.62,7.2 7.21,14.42 10.72,21.68 -17.2,-3.29 -34.25,-7.18 -51.48,-10.26 -0.05,3.72 -0.08,7.43 -0.08,11.15 10,2.03 20.03,3.99 30,6.31 -0.07,6.41 -0.12,12.82 -0.15,19.26 -9.92,-1.94 -19.85,-3.95 -29.74,-5.9 -0.05,4.47 -0.08,8.95 -0.11,13.43 18.3,3.64 36.54,7.53 54.81,11.3 -3.2,6.46 -7.04,12.54 -11.12,18.47 -27.35,-5.8 -54.81,-11.14 -82.39,-15.7zm-122.83 -98.78c26.88,2.29 54.03,4 80.52,8.96 4.27,6.41 7.22,13.61 10.89,20.38 -17.31,-2.19 -34.61,-4.3 -51.94,-6.31 -0.02,3.56 -0.02,7.12 -0.02,10.69 9.94,1.02 19.92,2.13 29.84,3.56 0,6.51 0,13 0,19.52 -9.95,-1.25 -19.9,-2.45 -29.87,-3.51 0,4.47 0,8.98 0,13.46 18.65,2.21 37.33,4.3 55.88,7.15 -3.79,6.31 -7.61,12.62 -11.45,18.93 -27.89,-3.41 -55.8,-6.9 -83.85,-8.98 -0.05,-27.94 -0.05,-55.88 0,-83.85zm-302.29 3c12.67,-1.11 25.34,-2.31 38.04,-3.05 -15.22,29.16 -29.92,58.58 -44.94,87.87 -12.34,1.52 -24.63,3.18 -36.97,4.63 -14.04,-26.14 -28.35,-52.17 -42.01,-78.5 13.54,-1.91 27.02,-4.18 40.64,-5.47 7,15.29 14.43,30.38 21.91,45.47 7.86,-16.95 15.49,-34 23.33,-50.95zm165.22 11.84c3.82,-6.98 7.89,-13.77 11.98,-20.56 30.31,1.47 60.77,0.73 91,3.74 3.51,6.82 7.17,13.53 10.94,20.23 -12.21,-0.26 -24.43,-1.05 -36.64,-1.58 -0.26,21.07 0.3,42.14 -0.28,63.23 -13.28,-0.15 -26.52,-0.99 -39.8,-0.86 0,-21.15 -0.1,-42.27 0.08,-63.39 -12.39,-1.17 -24.84,-0.84 -37.28,-0.81zm-64.38 0.94l0 0c-3.59,9.69 -7.3,19.34 -10.86,29.03 7.35,-0.3 14.7,-0.58 22.08,-0.89 -3.51,-9.46 -7.1,-18.93 -11.22,-28.14z"/>
   <path class="fil1" d="M906.26 2.5c49.11,-2.62 98.32,-2.97 147.48,-2.01 7.87,12.24 17.94,22.9 29.21,32.04 -3.58,6.51 -5.21,13.87 -5.29,21.24 -0.33,22.96 0.31,45.91 -0.23,68.86 -0.3,15.85 -12.29,29.16 -26.79,34.23 11.58,11.19 16.82,27.04 20.02,42.41 5.98,27.38 15.07,54.56 30.61,78.1 -22.59,-1.25 -45.24,-2.09 -67.86,-2.04 -8.7,-16.08 -15.06,-33.41 -18.75,-51.32 -3.49,-17 -7.03,-34.96 -17.99,-48.96 -3.77,-5.01 -9.34,-8.04 -14.99,-10.46 -0.28,19.98 -0.05,39.93 -0.15,59.88 -0.16,18.04 5.09,36.1 15.54,50.86 -30.5,-0.25 -61.04,0.74 -91.47,2.65 10.66,-14.63 15.04,-32.98 14.91,-50.87 -0.08,-59.41 0,-118.86 -0.03,-178.27 -0.07,-16.46 -5.29,-32.57 -14.22,-46.34zm-57.69 1299.41c-3.66,-50.33 6.7,-104.76 41.38,-143.21 -1.02,32.3 15.57,61.89 35.09,86.42 4.88,-9.87 6.36,-21.3 12.24,-30.59 25.67,-15.77 57.48,-14.96 86.51,-12.69 20,3 43.44,7.12 54.61,26.18 22.95,39.44 22.57,87.71 14.94,131.4 -2.7,10.81 -3.13,22.52 -8.83,32.34 -4.48,-23.03 -10.72,-46.33 -24.2,-65.9 1.17,27.84 -0.41,56.28 -10.66,82.49 -10.06,27.66 -28.33,51.33 -48.07,72.75 -17.46,-19.97 -34.73,-40.81 -44.86,-65.62 -12.24,-27.64 -14.96,-58.3 -13.92,-88.2 -15.73,21.96 -21.76,49.39 -24.71,75.83 -25.39,-50.15 -31.3,-109.19 -19.69,-163.95 -20.89,17.23 -35.3,40.34 -49.83,62.75zm66.72 -226.44c6.62,-2.77 12.37,2.83 18.12,5.24 27.53,13.57 59.16,24.84 90.03,16.64 20.76,-4.02 39.28,-14.7 58.47,-22.8 43.08,12.98 88.98,17.77 133.59,10.46 -6.13,14.28 -18.7,24.99 -32.39,31.84 -22.27,10.66 -47.81,12.34 -72.04,9.56 -17.56,-1.78 -34.25,-8.55 -51.96,-9.21 -19.59,-1.63 -39.13,1.02 -58.4,4.28 -27.43,-4.94 -56,-7.28 -83.36,-0.43 -31.14,8.39 -65.57,10.1 -95.75,-2.75 -15.39,-6.34 -27.91,-18.27 -36.11,-32.62 8.17,-0.08 16.24,1.42 24.38,2.13 35.5,2.27 71.45,-1.7 105.42,-12.34zm-70.08 -242.5c52.4,7.03 105.17,12.35 158.1,11.71 50.13,0.74 100.1,-4.17 149.82,-10.18 -11.96,11.07 -25.37,20.36 -38.14,30.38 34.12,4.48 68.63,5.24 102.78,9.55 -48.66,11.34 -98.43,17.5 -148.23,20.81 -94.14,5.98 -189.16,-0.79 -281.37,-20.87 32.62,-4.63 65.67,-5.42 98.42,-9.13 -13.72,-10.87 -27.51,-21.63 -41.38,-32.27zm413.68 -167.17c57.91,57.88 137.28,91.63 218.35,98.98 -33.03,24.53 -70.23,42.87 -107.67,59.72 -31.14,13.26 -62.77,25.91 -95.65,34.2 29.32,-22.19 60.34,-42.37 87.13,-67.76 -44.73,-31.02 -83.61,-73.26 -102.16,-125.14zm-409.73 -104.33c18.7,-15.42 38.37,-30.28 60.74,-39.95 -38.37,34.96 -63.31,81.09 -90.46,124.63 -37.94,62.67 -95.93,113.97 -165.07,139.34 3.89,8.02 11.12,13.62 17.03,20.08 19.31,19.82 41.65,36.18 63.35,53.18 -12.64,-2.52 -24.75,-7.1 -37.04,-10.86 -45.27,-15.22 -90.16,-32.55 -131.56,-56.62 -14.35,-8.63 -28.68,-17.69 -40.41,-29.77 82.75,0.48 164.99,-35.35 221.15,-96.11 32.52,-36.11 65.17,-72.39 102.27,-103.92zm932.61 -365.3c10.66,-3.59 19.82,-10.25 27.51,-18.37 32.03,14.78 63.76,30.33 94.86,47.05 6.51,15.47 15.83,29.49 25.01,43.43 -4.48,15.4 -3.74,31.45 -3.54,47.36 -18.55,-9.95 -37.12,-19.93 -56.03,-29.21 0.08,-10.87 1.94,-24.94 -8.67,-31.84 -4.86,-2.85 -14.15,-9.29 -16.75,-0.68 -1.5,11.34 -0.3,22.92 -0.63,34.35 -0.49,7.83 3.79,15.72 11.04,18.95 13.39,6.8 26.9,13.36 40.18,20.36 19.51,9.06 30.66,31.04 30.86,51.96 -0.05,28.02 0.03,56.01 -0.05,84 -0.3,9.57 1.84,18.93 4.15,28.17 -10.05,2.79 -18.9,8.49 -26.21,15.87 -30.71,-17.3 -62.42,-32.85 -93.71,-49.03 -9.04,-14.5 -16.72,-30.38 -28.1,-43.54 8.35,-15.57 4.18,-33.99 5.22,-50.86 18.5,8.6 37.2,16.76 55.42,26 0.61,11.25 -2.77,24.12 4.63,33.79 4.89,5.73 12.5,7.87 19.09,11 2.06,-2.8 4.73,-5.63 4.17,-9.44 0.07,-11.96 0.1,-23.92 -0.03,-35.88 0.18,-7.64 -4.4,-15.07 -11.37,-18.22 -13.51,-6.95 -27.25,-13.41 -40.99,-19.8 -19.7,-8.22 -31.05,-30.02 -30.9,-50.76 -0.1,-19.52 0,-39.06 -0.02,-58.58 -0.03,-15.44 0.94,-31.5 -5.14,-46.08zm-1620.21 -4.35c21.91,-10.33 43.8,-20.74 66.11,-30.21 0.16,93.95 -0.02,187.89 0.08,281.84 -12.29,5.06 -25.83,10.36 -39.26,6.87 -12.14,-2.93 -20.64,-13.46 -25.17,-24.58 -10.66,-26.97 -17.33,-55.37 -28.09,-82.32 -0.84,29.93 -0.13,59.85 -0.41,89.78 0.18,16.56 1.53,35.09 13.87,47.55 -26.74,12.57 -52.42,27.26 -78.4,41.33 9.21,-18.04 13.74,-38.3 13.69,-58.5 -0.05,-61.05 -0.02,-122.09 -0.02,-183.11 -0.26,-14.71 -2.4,-30.92 -13.44,-41.7 20.15,-10.95 40.46,-21.58 60.84,-32.09 15.11,38.19 29.21,76.77 44.17,115.01 0,-29.06 0.11,-58.09 -0.02,-87.15 -0.61,-15.04 -2.42,-31.76 -13.95,-42.72zm85.58 -38.65c41.93,-17.87 84.58,-34.03 127.66,-48.94 3.84,22.55 7.53,45.14 11.58,67.66 -6.59,-3.84 -13.64,-7.6 -21.48,-7.86 -16.18,-1.17 -30.64,7.64 -45.6,12.37 0.08,18.04 0,36.05 0.05,54.09 13.95,-5.24 27.92,-10.35 41.99,-15.24 -0.05,18.76 0,37.54 -0.03,56.32 -14.07,4.86 -27.99,10.05 -41.93,15.24 -0.13,21.83 0,43.69 -0.05,65.55 14.22,-6.01 29.8,-9.52 42.31,-18.96 9.83,-6.9 17.82,-16.01 24.89,-25.65 -4.25,25.24 -7.56,50.61 -11.98,75.8 -43.24,14.81 -85.68,31.94 -127.62,50.1 10.23,-18.9 14.43,-40.4 14.43,-61.75 0.18,-55.09 0.05,-110.18 0.05,-165.27 -0.17,-18.48 -0.94,-39.11 -14.27,-53.46zm1343.99 -60.77c21.5,7.28 43.08,14.3 64.4,22.16 15.35,50.92 29.98,102.02 45.37,152.91 0.23,-27.1 0.1,-54.23 0.1,-81.35 -0.12,-20.82 -3.84,-42.06 -14.6,-60.18 22.42,8.6 44.73,17.48 66.82,26.9 -0.03,93.61 -0.03,187.22 0,280.87 -29.57,-11.76 -51.99,-37.31 -62.32,-67.1 -12.26,-36.55 -19.54,-74.59 -31.52,-111.2 -0.74,28.7 -0.11,57.43 -0.36,86.13 -0.33,20.43 4.02,41.22 14.43,58.98 -27.18,-10.33 -54.48,-20.35 -82.17,-29.16 11.68,-12.85 14.33,-30.89 14.33,-47.63 -0.03,-58.55 0,-117.1 0,-175.65 -0.05,-19.42 -4.66,-38.86 -14.48,-55.68zm-154.96 -42.59c34.3,8.04 68.42,16.84 102.24,26.66 8.73,68.73 17.25,137.49 25.98,206.21 3.33,29.85 5.65,61.4 23.92,86.6 -23.85,-7.61 -47.79,-14.91 -71.86,-21.76 -2.01,-19.64 -3.69,-39.29 -5.86,-58.91 -12.11,-3.36 -24.3,-6.38 -36.38,-9.77 -2.95,18.5 -3.67,37.28 -6.24,55.83 -22.11,-5.83 -44.4,-10.94 -66.74,-15.78 9.95,-10.33 14.96,-24.27 16.64,-38.29 8.4,-59.42 16.54,-118.86 24.94,-178.25 2.62,-17.68 2.06,-36.51 -6.64,-52.54zm56.89 57.76l0 0c-5.11,39.62 -9.06,79.39 -13.87,119.03 8.73,2.37 17.46,4.66 26.21,6.95 -3.81,-42.01 -8.75,-83.95 -12.34,-125.98zm-887.49 -66.72c20.96,-4.48 42.06,-8.3 63.15,-12.19 -10.61,14.81 -16.64,32.47 -18.67,50.48 -6.72,60.21 -13.03,120.46 -19.55,180.69 -1.83,17.33 -0.76,36.44 10.13,50.87 -30.66,5.8 -61.12,12.67 -91.4,20.2 -6.9,-66.31 -14.96,-132.57 -21.04,-198.96 -1.58,-0.15 -3.13,-0.12 -4.69,0.03l3.46 1.42c-7.55,69.57 -14.42,139.24 -21.47,208.86 -30.74,9.14 -61.66,17.56 -92.14,27.48 9.52,-16.84 12.34,-36.82 10.15,-55.87 -6.28,-56.95 -12.08,-113.93 -18.32,-170.87 -1.68,-15.7 -6.36,-32.19 -18.57,-43.06 23.02,-6.77 45.54,-15.37 68.93,-20.86 4.71,60.53 10.02,121.04 14.35,181.6 7.99,-63.92 13.36,-128.14 20.76,-192.14 25.93,-6.87 51.86,-13.86 78.1,-19.39 7.15,60.44 13.3,121 21.24,181.33 5.04,-63.21 10.23,-126.41 15.58,-189.62zm641.97 -24.94c45.21,5.93 90.23,13.39 134.96,22.24 3.89,24.68 7.71,49.39 11.83,74.02 -7.4,-7.53 -14.55,-15.62 -24.02,-20.66 -14.42,-8.6 -31.7,-8.96 -47.76,-12.37 -0.05,18.07 -0.02,36.11 -0.02,54.15 18.24,3.26 36.49,6.57 54.68,10.08 0.02,17.73 0.02,35.5 0.02,53.23 -18.14,-3.69 -36.36,-6.89 -54.58,-10.08 -0.28,21.99 -0.07,43.97 -0.1,65.96 12.32,1.83 24.48,4.86 36.92,6.03 12.62,0.76 24.63,-4.43 34.66,-11.73 -3.84,22.75 -7.76,45.47 -11.73,68.17 -44.66,-9.11 -89.67,-16.54 -134.91,-22.24 9.33,-13.21 14.5,-29.24 14.6,-45.42 0.03,-60.21 -0.05,-120.38 0.03,-180.59 0.07,-17.89 -5.52,-35.47 -14.58,-50.79zm-488.89 -0.51c34.02,-4.12 68.14,-7.73 102.37,-9.97 7.94,11.17 17.61,21.07 29.08,28.65 -3.43,7 -5.42,14.66 -5.24,22.49 0,56.82 0,113.64 0,170.49 -0.2,7.56 1.83,14.94 5.27,21.65 -11.63,8.83 -21.2,20.06 -29.27,32.17 -36.64,2.57 -73.23,5.85 -109.69,10.4 -7.84,-10.71 -17.56,-19.99 -28.93,-26.87 4.75,-10.05 5.54,-21.27 5.49,-32.21 -0.02,-50.94 0.03,-101.88 -0.02,-152.83 0.07,-9.74 -1.12,-19.64 -5.4,-28.52 10.66,-9.14 19.44,-20.18 27.15,-31.89 1.68,-3.43 6.06,-2.77 9.19,-3.56zm39.69 47.82l0 0c-7.43,2.95 -12.34,10.81 -12.03,18.77 -0.13,44.97 0.02,89.93 -0.05,134.87 -0.13,5.47 1.32,11.52 5.95,14.93 4.99,4.3 11.96,2.65 17.91,2.09 9.47,-0.79 16.19,-10.38 15.58,-19.52 0,-44.99 -0.05,-90 0.02,-134.99 0.18,-5.01 -0.76,-10.4 -4.63,-13.92 -5.93,-6.18 -15.39,-3.71 -22.75,-2.23zm307.87 -60.31c30.54,1.91 61.07,4.17 91.5,7.28 -9.67,14.37 -15.39,31.47 -15.16,48.88 0.07,57.81 0,115.62 0.02,173.44 13.03,1.06 26.24,4.35 39.29,1.9 8.93,-1.8 16.47,-7.4 22.39,-14.17 -3.89,23.23 -7.76,46.49 -11.62,69.72 -41.96,-5.62 -84.13,-10.02 -126.39,-12.21 11.14,-15.4 15.29,-34.58 15.24,-53.31 0.05,-55.17 0.02,-110.33 0,-165.5 0.1,-19.64 -4.15,-39.59 -15.27,-56.03zm-124.68 49.21l0 0c0.07,23.23 0.02,46.46 0,69.7 8.78,-0.69 17.61,-0.13 26.38,-0.74 6.82,-2.21 11.46,-9.24 11.68,-16.29 0.34,-10.99 0.11,-22.01 0.13,-33 0.33,-8.02 -3.97,-17.3 -12.39,-19.24 -8.55,-1.19 -17.23,-0.35 -25.8,-0.43z"/>
   <path class="fil2" d="M341.62 451.11c192.93,-90.2 406.37,-130.79 618.48,-136.06 152.93,-3.36 306.6,11.81 455.1,48.98 88.63,22.27 175.4,52.45 257.66,92.35 0.41,21.19 0.13,42.39 0.16,63.59 39.31,2.11 78.47,13.35 111.32,35.47 35.39,23.31 62.98,57.02 82.8,94.17 -56.82,-16.51 -119.09,-20.63 -175.75,-1.24 -43.39,15.9 -90.34,21.4 -136.29,17.73 -52.93,-4.27 -107.71,-22.24 -144.35,-62.34 52.01,-0.89 104.09,0.79 156.11,-0.87 -111.51,-43.43 -228.61,-72.31 -347.31,-87.15 23.02,19.82 46.54,39.11 68.55,60.08 29.08,27.84 61.73,52.06 97.45,70.66 57.59,29.77 123.26,46.77 188.28,41.1 1.02,51.78 -16.82,103.1 -46.82,145.01 -21.63,30.77 -50.33,55.68 -81.15,76.87 37.43,6.52 73.9,24.13 98.04,54.1 32.19,38.78 41.66,92.04 35.75,141.07 -7.37,61.76 -38.8,117.76 -77.1,165.68 2.52,-16.23 1.91,-33.56 -5.98,-48.32 -10.28,-20.36 -31.14,-33.54 -53,-38.25 -33.03,-7.38 -67.56,0.31 -97.79,14.23 -32.01,15.16 -60.46,41.37 -71.6,75.7 -6.95,21.07 -7.13,46.36 6.89,64.68 11.94,16.41 31.79,24.53 51.33,27.33 -43.13,39.26 -103.9,55.12 -161.28,50.25 -29,75.63 -85.29,140.54 -156.97,178.53 -5.14,1.96 -10.49,8.07 -16.11,4.38 -75.72,-37.12 -135.55,-104.15 -165.57,-182.8 -57.46,4.65 -118.17,-11.15 -161.46,-50.36 19.57,-2.85 39.62,-10.92 51.56,-27.4 12.31,-16.39 13.84,-38.55 8.67,-57.89 -8.72,-35.45 -36.54,-63.36 -68.24,-79.75 -29.09,-14.76 -62.47,-23.1 -95.09,-18.37 -21.73,3.1 -43.41,13.51 -56.21,31.88 -11.55,16.08 -14.48,37.02 -10.61,56.19 -38.43,-47.67 -69.6,-103.67 -77.18,-165.25 -6.16,-50.97 4.2,-106.8 39.47,-145.8 24.75,-28.35 60.68,-44.66 97.43,-50.41 -31.28,-21.73 -60.49,-47.25 -82.06,-78.91 -28.81,-40.94 -44.87,-90.59 -45.27,-140.66 12.67,-0.56 25.34,0.76 38.01,-0.16 75.81,-4.12 149.14,-33.79 209.14,-79.82 21.76,-16.18 40.79,-35.55 61.02,-53.51 15.78,-14.17 32.11,-27.71 48.5,-41.17 -121.5,14.91 -241.61,43.51 -355.55,88.47 52.8,1.02 105.62,0.1 158.45,0.49 -30,33.28 -73.34,51.4 -116.77,58.95 -54.76,9.32 -112.07,4.71 -164.33,-14.3 -56.54,-19.34 -118.66,-15.11 -175.35,1.38 24.71,-46.7 62.47,-87.94 111.12,-109.95 29.32,-13.52 61.66,-19.7 93.85,-19.62 0.05,-22.98 -0.03,-45.98 0.05,-68.96zm587.21 706.48c15.29,-7.08 32.7,-6.19 49.14,-7.38 27.04,-0.28 54.32,-1.1 81.12,3.07 6.89,1.63 15.85,2.78 18.93,10.18 1.7,9.21 -4.18,18.12 -12.88,21.1 -17.78,-12.93 -40.58,-15.5 -61.93,-16.16 -22.78,0.31 -47.18,3.08 -66.03,17.02 -4.71,-3.2 -10.84,-5.93 -12.57,-11.86 -1.61,-5.44 -2.24,-13.51 4.22,-15.97zm405.32 -114.79c24.05,-5.55 49.39,-6.01 73.67,-1.43 32.44,5.98 61.43,25.7 80.43,52.47l1.48 2.01c-17.97,-8.34 -36.85,-14.96 -56.69,-16.64 -48.43,-5.32 -96.7,9.52 -139.68,30.84 -35.03,17.23 -66.99,39.95 -97.58,64.07 15.09,-35.09 40.56,-64.98 69.75,-89.26 20.68,-17.3 44.42,-30.41 68.62,-42.06zm-757.92 4.07c29.69,-10.66 62.47,-10.66 93.08,-4.22 58.73,26.87 111.88,71.32 138.4,131.3 -48.91,-38.55 -102.68,-73.57 -163.77,-88.83 -42.9,-11.43 -90.18,-9.65 -130.16,10.73l1.43 -1.91c14.96,-21.39 36.41,-38.21 61.02,-47.07zm583.75 -116.41c8.42,5.06 14.37,13.03 19.64,21.17 -13.74,37.15 -42.21,66.36 -71.98,91.42 -1.28,-10.12 -5.6,-19.59 -12.85,-26.79 -4.25,6.11 -8.83,11.98 -13.82,17.51 -13.36,-11.17 -31.35,-13.57 -48.17,-11.89 7.86,4.2 15.55,9.16 20.31,17 -14.05,14.33 -34.05,19.62 -52.85,24.25 -0.41,-0.2 -1.23,-0.58 -1.63,-0.79 6.31,-6.77 8.22,-16.11 10.94,-24.66 9.72,-34.02 5.09,-70.89 -9.09,-102.97 19.78,11.12 34.56,29.61 43.06,50.46 4.22,-9.09 7.91,-18.5 9.13,-28.48 12.22,23.34 38.4,34.43 62.73,40.36 16.08,-9.16 30.25,-22.29 38.52,-39.01 3.84,-8.09 7.84,-16.84 6.19,-26.01l-0.13 -1.57zm-88.71 -2.32c18.5,-3.97 36.77,-8.91 54.87,-14.4 4.04,18.75 -16.77,32.82 -33.72,28.88 -9.03,-1.1 -16.56,-6.82 -21.15,-14.48zm-194.25 -14.5c18.25,5.52 36.64,10.58 55.3,14.53 -9.83,18.24 -38.83,20.15 -51.02,3.48 -4.18,-5.09 -4.1,-11.83 -4.28,-18.01zm125.58 -187.92c16.26,0 32.54,-0.1 48.8,0.05 6.39,9.8 15.17,18.02 26.16,22.34 -13.77,10.38 -33.44,10.72 -48.25,2.32 -5.59,16.97 -14.88,32.49 -26.87,45.75 0.23,-23.49 -0.05,-46.97 0.16,-70.46zm0 -40.71c22.31,-0.03 44.63,-0.05 66.97,-0.05 7.51,-0.67 16.56,4.32 16.41,12.67 0.41,7.35 -7.1,12.67 -13.87,12.72 -23.18,0.25 -46.36,0 -69.54,0.05 -0.05,-8.47 -0.05,-16.94 0.03,-25.39zm0.4 -167.89c25.98,28.85 32.52,70.43 29.32,107.96 12.54,-10.13 29.31,-16.54 45.42,-12.03 20.46,6.03 34.63,25.24 38.62,45.67 -19.56,-11.5 -45.75,-6.56 -60.1,10.92 -17.89,0.15 -35.77,0.05 -53.66,0.05 0.15,-50.84 -0.64,-101.73 0.4,-152.57zm-548.71 -42.01c8.12,-2.75 16.01,-7.49 24.81,-7.08 5.8,1.65 5.52,9.44 2.55,13.49 -6.24,9.01 -17.84,10.94 -27.41,14.68 -0.1,-7.02 -0.08,-14.07 0.05,-21.09zm962.97 -43.44c9.69,3 21.4,4.1 28.25,12.49 3.23,3.51 2.26,10.23 -2.96,11.1 -8.62,0.74 -16.69,-3.34 -24.91,-5.24 -0.28,-6.11 -0.43,-12.24 -0.38,-18.35zm-831.46 0.86c8.24,-2.84 16.74,-5.16 25.54,-5.49 1.2,1.04 3.62,3.08 4.81,4.1 -0.46,4.37 -0.3,9.59 -4.37,12.41 -7.41,5.78 -17.1,7 -25.88,9.52 0,-6.85 -0.08,-13.69 -0.1,-20.54zm348.27 -52.59c4.12,9.21 7.71,18.68 11.22,28.14 -7.38,0.31 -14.73,0.59 -22.08,0.89 3.56,-9.69 7.27,-19.34 10.86,-29.03zm-27.74 -15.6l0 0c-11.75,27.71 -23.28,55.52 -34.83,83.33 12.42,-0.43 24.81,-1.7 37.23,-2.11 2.52,-5.88 4.73,-11.93 7.99,-17.45 11.75,-1.53 23.64,-1.02 35.44,-1.96 2.57,5.7 5.19,11.4 7.76,17.12 13.47,0.23 26.9,-0.79 40.34,-0.81 -11.91,-27.76 -23.97,-55.42 -35.83,-83.21 -16.82,0.28 -33.59,1.2 -50.38,1.83 -2.7,0.41 -6.98,-0.38 -7.72,3.26zm92.12 14.66l0 0c12.44,-0.03 24.89,-0.36 37.28,0.81 -0.18,21.12 -0.08,42.24 -0.08,63.39 13.28,-0.13 26.52,0.71 39.8,0.86 0.58,-21.09 0.02,-42.16 0.28,-63.23 12.21,0.53 24.43,1.32 36.64,1.58 -3.77,-6.7 -7.43,-13.41 -10.94,-20.23 -30.23,-3.01 -60.69,-2.27 -91,-3.74 -4.09,6.79 -8.16,13.58 -11.98,20.56zm-165.22 -11.84l0 0c-7.84,16.95 -15.47,34 -23.33,50.95 -7.48,-15.09 -14.91,-30.18 -21.91,-45.47 -13.62,1.29 -27.1,3.56 -40.64,5.47 13.66,26.33 27.97,52.36 42.01,78.5 12.34,-1.45 24.63,-3.11 36.97,-4.63 15.02,-29.29 29.72,-58.71 44.94,-87.87 -12.7,0.74 -25.37,1.94 -38.04,3.05zm302.29 -3l0 0c-0.05,27.97 -0.05,55.91 0,83.85 28.05,2.08 55.96,5.57 83.85,8.98 3.84,-6.31 7.66,-12.62 11.45,-18.93 -18.55,-2.85 -37.23,-4.94 -55.88,-7.15 0,-4.48 0,-8.99 0,-13.46 9.97,1.06 19.92,2.26 29.87,3.51 0,-6.52 0,-13.01 0,-19.52 -9.92,-1.43 -19.9,-2.54 -29.84,-3.56 0,-3.57 0,-7.13 0.02,-10.69 17.33,2.01 34.63,4.12 51.94,6.31 -3.67,-6.77 -6.62,-13.97 -10.89,-20.38 -26.49,-4.96 -53.64,-6.67 -80.52,-8.96zm122.83 98.78l0 0c27.58,4.56 55.04,9.9 82.39,15.7 4.08,-5.93 7.92,-12.01 11.12,-18.47 -18.27,-3.77 -36.51,-7.66 -54.81,-11.3 0.03,-4.48 0.06,-8.96 0.11,-13.43 9.89,1.95 19.82,3.96 29.74,5.9 0.03,-6.44 0.08,-12.85 0.15,-19.26 -9.97,-2.32 -20,-4.28 -30,-6.31 0,-3.72 0.03,-7.43 0.08,-11.15 17.23,3.08 34.28,6.97 51.48,10.26 -3.51,-7.26 -7.1,-14.48 -10.72,-21.68 -26.36,-5.65 -52.87,-10.59 -79.51,-14.84 -0.16,28.19 -0.13,56.39 -0.03,84.58zm-573.21 -73.66l0 0c-0.03,28.37 -0.08,56.72 0.02,85.09 13.05,-2.85 26.16,-5.35 39.31,-7.76 0.13,-28.22 0.11,-56.44 0,-84.64 -13.15,2.24 -26.26,4.71 -39.33,7.31zm-137.41 33.89l0 0c-0.03,28.75 -0.08,57.51 0.02,86.26 12.57,-3.89 25.2,-7.68 37.94,-11.04 0.21,-8.37 0.26,-16.77 0.05,-25.14 4.94,-1.58 9.83,-3.64 15.04,-4.05 6.64,5.75 10.77,13.84 16.34,20.61 13.49,-3.31 26.9,-6.92 40.48,-9.79 -4.83,-10.13 -13.56,-17.61 -19.9,-26.75 5.88,-4.91 11.68,-9.92 17.54,-14.86 0.02,-9.23 -0.03,-18.5 -0.21,-27.73 -9.44,-2.57 -18.34,-8.55 -28.24,-8.6 -26.59,6 -52.88,13.46 -79.06,21.09zm831.49 -20.86l0 0c0.05,28.6 -0.41,57.2 0.23,85.8 12.75,2.7 25.14,6.84 37.94,9.26 -0.13,-9.24 -0.13,-18.47 -0.03,-27.71 5.09,1.43 10.23,2.85 15.35,4.28 4.19,8.65 8.09,17.42 11.9,26.25 1.43,2.68 2.29,6.39 5.7,7.28 12.78,4.51 25.81,8.35 38.71,12.62 -6.8,-13.86 -13.39,-27.83 -19.85,-41.85 5.62,-1.58 11.25,-3.16 16.87,-4.79 -0.18,-8.37 0.41,-16.77 -0.31,-25.14 -3.1,-4.91 -8.21,-8.14 -12.26,-12.21 -5.5,-4.61 -10.1,-11.02 -17.3,-12.96 -25.47,-7.58 -51.1,-14.68 -76.95,-20.83zm-962.59 68.19l0 0c0.13,29.34 -0.07,58.65 0.1,87.99 12.45,-5.34 24.89,-10.71 37.46,-15.72 -0.13,-8.96 0,-17.92 0.15,-26.87 13.13,-5.02 26.62,-9.22 39.62,-14.56 9.9,-7.63 18.32,-17.18 27.71,-25.5 -0.05,-9.74 -0.07,-19.46 -0.1,-29.18 -9.01,-1.81 -17.79,-6.36 -27.02,-5.88 -26.36,8.78 -52.47,18.52 -77.92,29.72zm1098.95 -12.82l0 0c-0.13,7.53 -1.17,15.16 0.36,22.59 9.34,10.48 20.36,19.54 33.61,24.56 7.58,4.22 20.99,8.16 17.71,19.49 -3.05,3.61 -7.89,1.07 -11.45,0.05 -14.32,-5.57 -28.45,-11.71 -43.03,-16.59 3.49,8.47 7.28,16.84 11.38,25.06 19.11,6.97 37.68,15.42 56.72,22.55 8.62,-0.38 16.94,-2.78 25.39,-4.3 0,-9.57 -0.03,-19.11 -0.08,-28.68 -10.4,-11.1 -21.32,-22.09 -35.82,-27.64 -5.3,-3.68 -17.64,-5.95 -15.12,-14.07 1.27,-0.2 3.84,-0.61 5.12,-0.81 15.37,4.35 29.57,12.09 44.63,17.45 -5.09,-9.51 -5.68,-24.22 -18.07,-27.22 -15.49,-5.96 -30.58,-13.16 -46.49,-17.86 -8.42,1.11 -16.56,3.71 -24.86,5.42zm-647.31 36.43l0 0c-53.72,28.5 -98.12,71 -142.5,111.91 -70.28,67.61 -166.18,109.04 -264.02,110.11 4.58,40.58 24.15,78.04 49.87,109.18 45.24,54.18 107.38,91.51 171.68,118.81 -23.97,-1.88 -48.01,-5.27 -72.11,-3.33 -39.75,2.11 -80.51,13.69 -110.94,40.33 -25.58,21.91 -40.77,54.73 -42.14,88.27 -2.21,45.98 15.6,90.59 40.43,128.5 5.37,-20.59 20.72,-37.71 40.28,-45.93 31.76,-13.54 67.99,-10.1 100.28,-0.23 46.19,14.74 88.4,44.2 115.32,84.84 17.28,26.77 28.07,61.17 17,92.37 -6.18,18.11 -21.3,31.3 -38.09,39.54 39.42,18.63 85.85,22.62 127.33,8.52 10.84,41.1 30.28,80.06 57.79,112.58 23.1,28.04 51.93,50.79 82.87,69.59 68.99,-38.63 122.3,-105.24 141.51,-182.27 41.42,14.28 87.91,10.21 127.3,-8.47 -16.77,-8.3 -32.01,-21.53 -38.06,-39.72 -10.95,-31.25 -0.21,-65.68 17.22,-92.4 29.93,-44.68 77.94,-76.26 130.08,-88.6 30.89,-7.1 65.52,-7.61 93.77,8.65 15.65,8.73 26.74,23.92 31.81,40.97 28.22,-41.88 47.07,-93.69 38.52,-144.66 -6.06,-37.35 -30.81,-70.28 -63.84,-88.29 -46.31,-25.98 -101.68,-27.36 -153.11,-20.61 64.2,-28.15 125.09,-67.54 169.29,-122.7 24.33,-30.97 44,-66.9 50.2,-106.19 -100.99,1.65 -200.46,-41.76 -272.24,-112.06 -42.82,-39.95 -86.69,-79.7 -137.63,-109.14 -82.19,-43.89 -185.4,-41.55 -267.87,0.43z"/>
   <path class="fil3" d="M868.27 494.11c82.47,-41.98 185.68,-44.32 267.87,-0.43 50.94,29.44 94.81,69.19 137.63,109.14 71.78,70.3 171.25,113.71 272.24,112.06 -6.2,39.29 -25.87,75.22 -50.2,106.19 -44.2,55.16 -105.09,94.55 -169.29,122.7 51.43,-6.75 106.8,-5.37 153.11,20.61 33.03,18.01 57.78,50.94 63.84,88.29 8.55,50.97 -10.3,102.78 -38.52,144.66 -5.07,-17.05 -16.16,-32.24 -31.81,-40.97 -28.25,-16.26 -62.88,-15.75 -93.77,-8.65 -52.14,12.34 -100.15,43.92 -130.08,88.6 -17.43,26.72 -28.17,61.15 -17.22,92.4 6.05,18.19 21.29,31.42 38.06,39.72 -39.39,18.68 -85.88,22.75 -127.3,8.47 -19.21,77.03 -72.52,143.64 -141.51,182.27 -30.94,-18.8 -59.77,-41.55 -82.87,-69.59 -27.51,-32.52 -46.95,-71.48 -57.79,-112.58 -41.48,14.1 -87.91,10.11 -127.33,-8.52 16.79,-8.24 31.91,-21.43 38.09,-39.54 11.07,-31.2 0.28,-65.6 -17,-92.37 -26.92,-40.64 -69.13,-70.1 -115.32,-84.84 -32.29,-9.87 -68.52,-13.31 -100.28,0.23 -19.56,8.22 -34.91,25.34 -40.28,45.93 -24.83,-37.91 -42.64,-82.52 -40.43,-128.5 1.37,-33.54 16.56,-66.36 42.14,-88.27 30.43,-26.64 71.19,-38.22 110.94,-40.33 24.1,-1.94 48.14,1.45 72.11,3.33 -64.3,-27.3 -126.44,-64.63 -171.68,-118.81 -25.72,-31.14 -45.29,-68.6 -49.87,-109.18 97.84,-1.07 193.74,-42.5 264.02,-110.11 44.38,-40.91 88.78,-83.41 142.5,-111.91zm118.98 41.99l0 0c-14.09,26.92 -18.55,58.17 -15.72,88.19 -11.89,-7.61 -25.37,-14.75 -40,-12.29 -23.16,3.39 -39.8,24.71 -44,46.8 19.57,-11.68 45.8,-6.67 60.13,10.89 18.32,0.05 36.62,0.02 54.94,0 17.89,0 35.77,0.1 53.66,-0.05 14.35,-17.48 40.54,-22.42 60.1,-10.92 -3.99,-20.43 -18.16,-39.64 -38.62,-45.67 -16.11,-4.51 -32.88,1.9 -45.42,12.03 3.2,-37.53 -3.34,-79.11 -29.32,-107.96l0.08 -2.27c-6.77,5.83 -11.63,13.46 -15.83,21.25zm-138.09 25.37l0 0c-37.1,31.53 -69.75,67.81 -102.27,103.92 -56.16,60.76 -138.4,96.59 -221.15,96.11 11.73,12.08 26.06,21.14 40.41,29.77 41.4,24.07 86.29,41.4 131.56,56.62 12.29,3.76 24.4,8.34 37.04,10.86 -21.7,-17 -44.04,-33.36 -63.35,-53.18 -5.91,-6.46 -13.14,-12.06 -17.03,-20.08 69.14,-25.37 127.13,-76.67 165.07,-139.34 27.15,-43.54 52.09,-89.67 90.46,-124.63 -22.37,9.67 -42.04,24.53 -60.74,39.95zm409.73 104.33l0 0c18.55,51.88 57.43,94.12 102.16,125.14 -26.79,25.39 -57.81,45.57 -87.13,67.76 32.88,-8.29 64.51,-20.94 95.65,-34.2 37.44,-16.85 74.64,-35.19 107.67,-59.72 -81.07,-7.35 -160.44,-41.1 -218.35,-98.98zm-340.9 29.56l0 0c-2.01,8.12 5.93,15.22 13.64,14.99 23.64,0.2 47.3,0 70.94,0.05 23.18,-0.05 46.36,0.2 69.54,-0.05 6.77,-0.05 14.28,-5.37 13.87,-12.72 0.15,-8.35 -8.9,-13.34 -16.41,-12.67 -22.34,0 -44.66,0.02 -66.97,0.05 -22.75,-0.03 -45.48,-0.03 -68.2,-0.05 -6.74,-0.46 -15.19,3.13 -16.41,10.4zm34.38 30.39l0 0c-6.26,10 -15.32,18.14 -26.31,22.57 14.2,9.84 33.66,10.68 48.62,2.03 5.75,17 14.48,33.49 27.76,45.83 11.99,-13.26 21.28,-28.78 26.87,-45.75 14.81,8.4 34.48,8.06 48.25,-2.32 -10.99,-4.32 -19.77,-12.54 -26.16,-22.34 -16.26,-0.15 -32.54,-0.05 -48.8,-0.05 -16.75,-0.03 -33.49,-0.08 -50.23,0.03zm-107.16 107.22l0 0c13.87,10.64 27.66,21.4 41.38,32.27 -32.75,3.71 -65.8,4.5 -98.42,9.13 92.21,20.08 187.23,26.85 281.37,20.87 49.8,-3.31 99.57,-9.47 148.23,-20.81 -34.15,-4.31 -68.66,-5.07 -102.78,-9.55 12.77,-10.02 26.18,-19.31 38.14,-30.38 -49.72,6.01 -99.69,10.92 -149.82,10.18 -52.93,0.64 -105.7,-4.68 -158.1,-11.71zm31.81 80.67l0 0c0.18,6.18 0.1,12.92 4.28,18.01 12.19,16.67 41.19,14.76 51.02,-3.48 -18.66,-3.95 -37.05,-9.01 -55.3,-14.53zm194.25 14.5l0 0c4.59,7.66 12.12,13.38 21.15,14.48 16.95,3.94 37.76,-10.13 33.72,-28.88 -18.1,5.49 -36.37,10.43 -54.87,14.4zm-259.06 39.14l0 0c0.79,33.48 21.66,61.98 40.49,88.14 11.62,-3.43 23.23,-7.05 34.86,-10.48 2.52,-1.22 6.82,-1.07 7.22,-4.63 2.17,-8.81 6.31,-16.85 11.94,-23.92 4.27,5.98 8.83,11.75 13.69,17.3 13.84,-11.35 32.44,-13.61 49.72,-11.65 -8.86,3.13 -16.31,8.95 -21.61,16.66 13.16,13.79 32.07,19.44 50.11,23.64 0.4,0.21 1.22,0.59 1.63,0.79 18.8,-4.63 38.8,-9.92 52.85,-24.25 -4.76,-7.84 -12.45,-12.8 -20.31,-17 16.82,-1.68 34.81,0.72 48.17,11.89 4.99,-5.53 9.57,-11.4 13.82,-17.51 7.25,7.2 11.57,16.67 12.85,26.79 29.77,-25.06 58.24,-54.27 71.98,-91.42 -5.27,-8.14 -11.22,-16.11 -19.64,-21.17l0.13 1.57c-9.34,16.85 -25.22,30.64 -44.43,34.43 -21.48,4.89 -43.16,-2.03 -63.01,-9.77 -1.22,9.98 -4.91,19.39 -9.13,28.48 -8.5,-20.85 -23.28,-39.34 -43.06,-50.46 -19.23,11.52 -34.22,29.54 -42.29,50.46 -4.78,-8.96 -7.86,-18.66 -9.77,-28.61 -21.12,8.94 -45.09,15.58 -67.76,8.53 -18.27,-5.32 -32.7,-19.49 -40.99,-36.31 -16.01,5.65 -28.58,20.99 -27.46,38.5zm-230.56 16.71l0 0c-25.98,7.49 -51.91,22.19 -64.79,46.9 -10.38,19.36 -9.41,42.95 -1.65,63.05l-1.43 1.91c39.98,-20.38 87.26,-22.16 130.16,-10.73 61.09,15.26 114.86,50.28 163.77,88.83 -26.52,-59.98 -79.67,-104.43 -138.4,-131.3 13.33,-21.2 32.9,-37.64 53.92,-50.84 -45.27,-15.07 -95.09,-20.54 -141.58,-7.82zm698.51 7.87l0 0c21.22,13.05 40.81,29.54 53.99,50.94 -24.2,11.65 -47.94,24.76 -68.62,42.06 -29.19,24.28 -54.66,54.17 -69.75,89.26 30.59,-24.12 62.55,-46.84 97.58,-64.07 42.98,-21.32 91.25,-36.16 139.68,-30.84 19.84,1.68 38.72,8.3 56.69,16.64l-1.48 -2.01c8.83,-21.7 8.5,-47.68 -4.32,-67.78 -15.24,-23.75 -41.91,-37.46 -68.73,-43.77 -44.68,-10.46 -91.89,-4.83 -135.04,9.57zm-364.87 83.61l0 0c-33.97,10.64 -69.92,14.61 -105.42,12.34 -8.14,-0.71 -16.21,-2.21 -24.38,-2.13 8.2,14.35 20.72,26.28 36.11,32.62 30.18,12.85 64.61,11.14 95.75,2.75 27.36,-6.85 55.93,-4.51 83.36,0.43 19.27,-3.26 38.81,-5.91 58.4,-4.28 17.71,0.66 34.4,7.43 51.96,9.21 24.23,2.78 49.77,1.1 72.04,-9.56 13.69,-6.85 26.26,-17.56 32.39,-31.84 -44.61,7.31 -90.51,2.52 -133.59,-10.46 -19.19,8.1 -37.71,18.78 -58.47,22.8 -30.87,8.2 -62.5,-3.07 -90.03,-16.64 -5.75,-2.41 -11.5,-8.01 -18.12,-5.24zm13.54 82.12l0 0c-6.46,2.46 -5.83,10.53 -4.22,15.97 1.73,5.93 7.86,8.66 12.57,11.86 18.85,-13.94 43.25,-16.71 66.03,-17.02 21.35,0.66 44.15,3.23 61.93,16.16 8.7,-2.98 14.58,-11.89 12.88,-21.1 -3.08,-7.4 -12.04,-8.55 -18.93,-10.18 -26.8,-4.17 -54.08,-3.35 -81.12,-3.07 -16.44,1.19 -33.85,0.3 -49.14,7.38zm-80.26 144.32l0 0c14.53,-22.41 28.94,-45.52 49.83,-62.75 -11.61,54.76 -5.7,113.8 19.69,163.95 2.95,-26.44 8.98,-53.87 24.71,-75.83 -1.04,29.9 1.68,60.56 13.92,88.2 10.13,24.81 27.4,45.65 44.86,65.62 19.74,-21.42 38.01,-45.09 48.07,-72.75 10.25,-26.21 11.83,-54.65 10.66,-82.49 13.48,19.57 19.72,42.87 24.2,65.9 5.7,-9.82 6.13,-21.53 8.83,-32.34 7.63,-43.69 8.01,-91.96 -14.94,-131.4 -11.17,-19.06 -34.61,-23.18 -54.61,-26.18 -29.03,-2.27 -60.84,-3.08 -86.51,12.69 -5.88,9.29 -7.36,20.72 -12.24,30.59 -19.52,-24.53 -36.11,-54.12 -35.09,-86.42 -34.68,38.45 -45.04,92.88 -41.38,143.21z"/>
  </g>
 </g>
</svg>
