<?xml version="1.0" encoding="UTF-8"?>
<!DOCTYPE svg PUBLIC "-//W3C//DTD SVG 1.1//EN" "http://www.w3.org/Graphics/SVG/1.1/DTD/svg11.dtd">
<!-- Creator: CorelDRAW -->
<svg xmlns="http://www.w3.org/2000/svg" xml:space="preserve" width="2000px" height="1600px" version="1.1" style="shape-rendering:geometricPrecision; text-rendering:geometricPrecision; image-rendering:optimizeQuality; fill-rule:evenodd; clip-rule:evenodd"
viewBox="0 0 2000 1600"
 xmlns:xlink="http://www.w3.org/1999/xlink">
 <defs>
  <style type="text/css">
   <![CDATA[
    .fil2 {fill:#040204;fill-rule:nonzero}
    .fil1 {fill:#352A7A;fill-rule:nonzero}
    .fil3 {fill:#B8B9C0;fill-rule:nonzero}
    .fil0 {fill:#FBFDFB;fill-rule:nonzero}
   ]]>
  </style>
 </defs>
 <g id="Capa_x0020_1">
  <metadata id="CorelCorpID_0Corel-Layer"/>
  <g id="Niagara_x0020_Purple_x0020_Eagles.cdr">
   <path class="fil0" d="M20.38 461.3c130.26,-0.1 260.51,-0.13 390.73,0.04 52.9,77.32 105.63,154.75 158.66,232 -0.64,3.2 -1.93,9.62 -2.58,12.81 -54.39,-78.34 -107.12,-157.81 -161.99,-235.81 -125.16,0.71 -250.31,0.07 -375.47,0.34 0,14.4 0,28.81 0.03,43.21 32.55,0.1 65.13,-0.03 97.71,0.1 -0.14,131.59 0.1,263.2 -0.1,394.81 -32.86,-0.1 -65.74,-0.03 -98.59,-0.07 -0.04,15.06 -0.04,30.07 -0.04,45.12 107.53,0.21 215.06,-0.37 322.55,0.27 0.47,-15.45 0.34,-30.91 0.17,-46.37 -29.7,0.17 -59.35,-0.07 -89.05,0.17 -0.03,-130.63 -0.07,-261.22 0.04,-391.82 76.98,109.67 154.13,219.23 231.22,328.83 -1.8,1.6 -5.4,4.79 -7.2,6.39 -71.48,-101.72 -142.62,-203.71 -214.51,-305.15 -0.41,117.48 -0.07,234.96 -0.17,352.44 29.73,0.14 59.45,-0.17 89.18,0.17 -0.03,21.17 -0.03,42.33 -0.03,63.5 -113.78,0.07 -227.56,0.03 -341.34,0 -0.1,-20.9 -0.03,-41.82 -0.03,-62.75 32.82,-0.04 65.63,-0.04 98.45,0 0.17,-125.43 -0.03,-250.83 0.11,-376.26 -32.59,-0.03 -65.16,0 -97.75,0 0,-20.66 0,-41.31 0,-61.97zm857.43 560.23c4.96,-9.85 14.03,-16.68 22.63,-23.17 -3.91,7.78 -7.31,15.8 -8.9,24.39 -4.69,0.61 -10.57,4.01 -13.73,-1.22zm212.68 -32.99c1.29,-0.71 3.8,-2.17 5.06,-2.89 1.93,6.01 3.84,12.33 7.91,17.33 16.21,20.55 39.72,33.12 61.8,46.31 -30.3,-6.49 -60.13,-15.12 -89.96,-23.41 4.55,-12.61 9.07,-25.38 15.19,-37.34zm-176.12 16.95c3.43,-13.96 14.5,-23.41 26.26,-30.51 -0.37,7.68 -0.82,15.36 -1.19,23.04 -8.53,1.93 -16.85,4.62 -25.07,7.47zm-247.16 18.62c53.81,-26.47 108.95,-50.15 164.64,-72.43 -16.07,11.41 -32.62,22.39 -46.85,36.08 23.37,-11.93 46.85,-28.06 73.85,-28.98 -5.36,6.42 -10.46,13.11 -14.03,20.76 -78.68,21.43 -152.98,55.88 -226.64,90.37 -4.85,1.59 -7.71,5.94 -11.04,9.48 -5.57,-7.17 0.78,-15.56 5.27,-21.41 15.97,-14.54 35.94,-23.68 54.8,-33.87zm-69.51 -62.55c13.38,-12.4 31.36,-18.07 48.38,-23.57 -11.15,13.65 -22.63,27.34 -36.53,38.35 -3.87,3.47 -9.03,4.42 -13.92,5.51 -2.79,-6.7 -4.11,-14.99 2.07,-20.29zm238.09 -61.49c25,-11.18 50.21,-24.05 78,-26.09 1.43,1.19 4.31,3.57 5.74,4.76 -4.99,5.77 -10.67,11.11 -13.79,18.17 -8.19,0.55 -16.78,-1.97 -24.5,1.53 -50.75,21.27 -101.07,43.62 -150.74,67.3 -37.1,18.62 -74.94,36.19 -109.16,59.87 -12.84,9.61 -26.26,20.58 -31.79,36.18 -2.83,6.45 2.75,12.09 6.45,16.71 -38.76,21.47 -77.77,45.87 -104.64,81.88 -5.74,6.56 -7.13,16.17 -13.69,21.91 1.12,-24.09 14.06,-45.73 30.58,-62.58 18.82,-19.33 41.82,-33.9 65.5,-46.54 -5.88,-10.6 -2.55,-23.48 4.72,-32.45 14.1,-18.28 34.55,-30.1 54.46,-41.04 67.37,-33.67 134.47,-67.98 202.86,-99.61zm186.68 -61.19c5.1,1.23 12.67,-1.66 15.66,4.12 -1.59,11.41 -11.79,18.55 -18.89,26.67 3.77,-9.86 8.84,-20.49 3.23,-30.79zm-461.46 -1.08c7.67,-0.85 15.39,-2.07 23.13,-1.94 34.18,1.36 69.85,0.51 101.92,14.24 10.3,4.21 20.9,14.33 17.5,26.53 -6.59,22.46 -28.64,35.57 -49.43,42.94 -25.45,8.84 -52.15,17.47 -72.77,35.44 -7.27,5.67 -9.58,14.84 -7.04,23.54 -54.66,21.58 -97.84,70.9 -109.42,128.86 -5.68,29.09 -7.48,60.04 -0.04,88.95 -25.95,-32.14 -43.55,-72.33 -44.67,-113.88 38.25,-61.94 72.77,-126.15 110.07,-188.69 9.85,-18.89 22.73,-36.15 30.75,-55.99zm302.8 -50.59c-4.11,-7.64 -1.36,-20.11 9.07,-19.43 12.17,-2.52 16.01,17.5 5.64,21.71 -4.92,3.77 -9.95,-0.68 -14.71,-2.28zm160.83 -106.85c-5.87,12.61 -1.39,27.42 -8.56,39.65 -2.37,6.46 -8.22,10.26 -14.47,12.37 -2.04,-7.75 4.76,-13.01 8.12,-18.99 7.14,-10.16 4.59,-24.8 14.91,-33.03zm16.96 -1.69c2.24,-3.1 8.08,-2.25 5.74,2.17 1.19,7.17 -10.6,10.6 -11.38,2.65 1.39,-1.22 4.21,-3.64 5.64,-4.82zm-94.62 4.24c5.61,-10.5 16.65,-14.57 27.79,-15.8 -1.83,3.84 -1.02,10.84 -6.62,11.39 -7.31,0.1 -14.54,1.15 -21.17,4.41zm710.12 -44.71c2.38,-0.17 7.07,-0.47 9.44,-0.64 -0.27,60.44 0.04,120.91 -0.13,181.35 -1.22,23.64 -9.31,49.6 -29.76,63.53 -60.24,34.72 -132.6,35.2 -199.84,28.47 -38.79,-3.63 -80.28,-16.1 -105.86,-47.22 -14,-16.31 -15.08,-38.73 -13.42,-59.15 2.35,-0.68 7.03,-2.01 9.38,-2.69 0.27,12.47 -2.89,25.42 1.36,37.58 5.77,19.13 21.91,33.09 38.97,42.3 25.44,13.99 54.39,19.23 83.06,21.23 57.25,4.35 118.09,3.77 170.38,-23 24.8,-8.6 35.33,-36.66 36.39,-60.88 0.06,-60.27 -0.04,-120.57 0.03,-180.88zm-379.96 -10.9c75.89,-5.51 152.13,-9.07 228.13,-3.84 14.68,1.26 29.49,2.21 43.93,5.43 -45.53,3.81 -91.83,8.53 -134.77,25.04 -13.66,5.91 -29.29,13.76 -33.84,29.15 -2.52,12.4 5.84,23.75 14.2,32 14.03,14.51 31.53,24.84 48.72,35.17 -58.51,8.59 -117.42,19.02 -172.52,41.21 -19.57,8.73 -40.94,18.48 -52.25,37.64 -6.76,11.62 -2.42,26.06 5.67,35.78 20.72,26.02 52.79,38.08 80.62,54.49 -52.18,2.95 -104.74,8.42 -155.09,23.14 -14.34,3.83 -27.28,11.17 -40.5,17.7l-4.85 -0.79c5.5,-13.45 13.86,-25.44 19.73,-38.69 33.3,-3.09 66.63,-5.5 99.95,-7.88 -28.8,-7.51 -57.45,-15.8 -85.44,-25.93 1.43,-5.77 2.82,-11.61 5.67,-16.91 17.16,-31.77 30.31,-65.54 47.47,-97.31 54.08,-12.09 108.91,-20.28 163.85,-27.38 4.45,-0.61 8.87,-1.76 13.25,-2.85 -54.94,-5 -109.94,-13.52 -162.9,-29.15 7.54,-18.45 17.56,-35.74 25.58,-53.95 2.96,-6.9 6.83,-13.86 6.49,-21.61l0.07 -2c12.84,-3.3 25.44,-8.02 38.83,-8.46zm-397.56 -28.3c74.54,-8.84 149.72,-12.13 224.77,-11.04 44.27,3.87 88.43,8.83 132.67,13.01 -21.44,8.39 -45.43,9.95 -68.22,13.32 -30.65,3.97 -61.5,-1.47 -92.17,1.9 -48.08,4.55 -98.94,5.2 -142.08,29.69 -14.31,6.69 -25.69,17.6 -37.71,27.49 -14.48,11.45 -33.43,-0.21 -49.06,7.95 -17.29,5.43 -23.48,23.64 -29.69,38.66 -10.3,8.05 -21.78,14.74 -31.19,24.02 -1.97,0.2 -5.91,0.57 -7.88,0.78 -1.7,3.53 -3.4,7.07 -5.1,10.56 -1.8,0.11 -5.37,0.31 -7.13,0.41 -1.26,8.39 -3.06,16.82 -7.27,24.29 -7.95,15.05 -11.49,32.14 -11.32,49.06 8.83,-31.76 33.23,-58.77 63.8,-71.04 9.79,-4.45 19.81,-9.41 27.08,-17.56 0.41,-5.34 -2.58,-10.23 -2.38,-15.53 6.49,-8.22 17.3,-10.46 26.91,-12.84 21.91,-4.72 44.88,-9.21 63.43,-22.7 -4.25,4.59 -7.71,9.79 -8.19,16.21 16.38,-8.97 35.71,-7.41 53.51,-4.59 8.46,2.08 16.58,-2.03 24.63,-4.11 -1.73,17.98 -15.32,32.14 -31.63,38.39 2.04,12.27 -6.05,22.09 -17.36,25.55 13.93,23.61 2.38,51.17 -13.66,70.29 19.78,-10.02 45.09,-14.88 65.06,-2.88 9.89,5.36 13.08,17.83 9.75,28.09 -5.09,18.55 -17.53,33.98 -29.79,48.41 -30.54,34.11 -65.57,63.94 -101.89,91.73 -10.09,7.51 -17.63,18.69 -18.89,31.4 -66.82,6.31 -133,21.7 -195.38,46.61 -11.31,4.04 -20.42,11.99 -29.42,19.63l-0.82 -5.36c-47.05,12.7 -87.45,41.38 -126.68,69.2 2.78,-4.38 6.35,-8.19 10.19,-11.65 39.34,-36.56 87.95,-61.05 137.25,-81.3 63.67,-25.38 130.09,-43.56 197.39,-56.43 2.17,-7.55 6.56,-14.13 11.62,-20.05 16.51,-19.36 34.04,-38.01 54.05,-53.84 -9.34,2.71 -18.62,7.4 -28.57,4.82 5.4,-14.58 22.01,-19.6 34.04,-27.62 12.64,-6.8 25.82,-19.33 23.27,-35.1 -1.39,-12.57 -13.18,-20.62 -24.83,-22.52 -21.44,-3.3 -42.81,2.85 -62.89,9.85 -40.46,14.78 -78.07,36.29 -114.59,58.91 -1.8,0.55 -5.34,1.6 -7.1,2.14 3.12,-10.46 2.89,-21.64 6.86,-31.83 -0.31,-4.52 -3.33,-8.73 -1.6,-13.39 2.52,-9.14 -2.58,-17.56 -7.84,-24.56 -8.57,-0.24 -13.59,-7.85 -19.95,-12.4 -5.4,-3.84 -7.81,-12.84 -15.79,-11.76 -5,-4.04 -10.1,-7.98 -15.4,-11.58 -6.04,9.04 -14.2,0.03 -17.76,-6.15 -0.78,-8.76 5.74,-15.39 9.54,-22.59 17.06,-31.7 37.37,-61.56 53.14,-93.94 16.07,-24.66 30.06,-50.62 45.46,-75.69l1.76 -2.21c34.18,-10.33 69.71,-15.46 105.05,-20.11zm33.9 116.8l0 0c-17.53,-2.21 -41.58,2.65 -46.17,22.69 -19.5,0.21 -36.35,12.27 -44.98,29.25 -13.99,8.12 -32.2,13.22 -39.34,29.22 -2.61,6.83 -10.12,8.66 -15.86,11.93 0.81,2.38 2.41,7.13 3.19,9.51 -3.67,7.54 -7.03,15.42 -6.05,24.09 14.2,-18.52 31.29,-35.13 52.29,-45.83 -2.01,16.34 6.93,32.61 21.2,40.46 31.66,20.04 75.96,3.6 95.02,-26.43 11.48,-17.94 6.86,-40.77 -2.89,-58.37 20.15,-6.56 34.55,-24.09 42.5,-43.11 -17.59,11.07 -39.2,10.5 -58.91,6.59zm21.64 128.56l0 0c7.68,2.17 16.48,3.32 22.26,9.44 5.54,6.05 6.89,14.98 4.31,22.66 -5.64,20.86 -19.94,37.78 -33.16,54.32 21.48,-17.53 41.79,-36.92 58.78,-58.84 8.15,-10.53 9.68,-32.04 -5.34,-37.27 -16.27,-2.92 -32.34,2.92 -46.85,9.69zm628.42 -382.11c123.18,-0.34 246.37,-0.03 369.56,-0.13 0,20.38 0,40.77 0,61.15 -31.46,0.07 -62.92,-0.14 -94.38,0.14 0.17,98.52 0,197.08 0.1,295.63 -0.61,44.65 -30.4,84.87 -69.74,104.13 -77.23,38.6 -165.12,49.5 -250.46,50.18 -84.46,-3.29 -169.9,-8.39 -251.71,-31.05 10.4,0.24 20.69,-1.09 31.09,-1.32 49.16,10.29 99.17,15.9 149.21,19.67 92.78,8.29 188.21,3.09 276.65,-28.07 30.34,-11.17 61.49,-24.97 82.35,-50.68 18.31,-21.98 26.77,-51.44 23.54,-79.84 -0.74,-96.01 -0.06,-192.09 -0.34,-288.13 31.43,-0.17 62.82,0 94.28,-0.07 0,-14.13 0,-28.3 -0.07,-42.43 -116.87,0.03 -233.74,-0.04 -350.61,0.03 -0.06,14.13 -0.06,28.23 0,42.37 31.16,0.1 62.31,-0.04 93.47,0.06 0,34.18 -0.11,68.39 0.03,102.57 -2.34,-0.24 -7.03,-0.71 -9.38,-0.98 -0.06,-30.72 -0.1,-61.43 0.04,-92.18 -31.22,-0.17 -62.41,0.14 -93.6,-0.13 0.03,-20.32 0.1,-40.6 -0.03,-60.92zm-513.75 -0.13c121.45,0 242.91,0 364.36,0 -0.06,20.38 0,40.77 -0.03,61.15 -29.25,0.24 -58.5,-0.51 -87.72,0.41 0.48,20.99 0.34,41.99 0.1,63.02 -2.24,-0.48 -6.69,-1.36 -8.93,-1.84 -0.55,-23.71 -0.34,-47.42 0,-71.14 29.35,0.24 58.74,0.14 88.09,0.07 -0.03,-14.1 -0.07,-28.16 0.03,-42.23 -115.51,-0.27 -231.02,-0.1 -346.53,-0.1 -0.07,14.3 -0.07,28.57 0,42.84 31.12,1.36 62.31,-0.68 93.4,1.19 0.03,18.35 -0.11,36.66 0.2,55 -3.23,-0.27 -6.42,-0.54 -9.62,-0.85 0.04,-15.25 0.35,-30.5 -0.23,-45.76 -31.05,0.95 -62.07,-0.92 -93.12,-0.61 0,-20.38 0,-40.77 0,-61.15zm-434.09 -0.68c111.61,-0.34 223.21,-0.27 334.78,-0.07 -0.03,19.98 -0.2,39.95 0.14,59.93 -33.43,0.54 -66.9,0.07 -100.33,0.24 -0.27,20.11 -0.1,40.22 -0.1,60.34 -3.16,0.54 -6.32,1.12 -9.48,1.66 0.31,-23.82 -0.24,-47.63 0.37,-71.45 33.3,0.31 66.63,-0.03 99.92,0.17 0.07,-13.86 0.07,-27.72 0.07,-41.58 -105.32,-0.04 -210.64,-0.04 -315.95,0 0,14.4 0,28.81 0.03,43.21 28.26,0.04 56.57,0.07 84.87,0 -0.41,33.64 1.05,67.34 -0.79,100.94 -0.74,1.59 -2.24,4.82 -2.95,6.42 -1.6,-4.25 1.12,-11.72 -6.15,-11.31 1.26,-28.88 0.2,-57.79 0.58,-86.67 -28.34,-0.07 -56.67,0.17 -85.01,-0.14 0.11,-20.55 0.07,-41.14 0,-61.69z"/>
   <path class="fil1" d="M29.73 470.68c125.16,-0.27 250.31,0.37 375.47,-0.34 54.87,78 107.6,157.47 161.99,235.81 -7.44,18.41 -20.08,34.21 -35.06,47.05 -14.27,13.39 -28.54,31.02 -26.94,51.75 0.03,8.25 5.94,14.4 10.46,20.65 -7.37,6.39 -14.67,12.84 -21.98,19.33 -77.09,-109.6 -154.24,-219.16 -231.22,-328.83 -0.11,130.6 -0.07,261.19 -0.04,391.82 29.7,-0.24 59.35,0 89.05,-0.17 0.17,15.46 0.3,30.92 -0.17,46.37 -107.49,-0.64 -215.02,-0.06 -322.55,-0.27 0,-15.05 0,-30.06 0.04,-45.12 32.85,0.04 65.73,-0.03 98.59,0.07 0.2,-131.61 -0.04,-263.22 0.1,-394.81 -32.58,-0.13 -65.16,0 -97.71,-0.1 -0.03,-14.4 -0.03,-28.81 -0.03,-43.21zm986.29 467.82c11.28,-2.28 22.21,-7.31 33.94,-6.7 -6.8,25.62 -22.77,47.4 -33.23,71.52 -13.22,-2.55 -24.19,-11.18 -35.2,-18.45 -8.66,-5.5 -15.35,-18.68 -7.03,-27.28 11.25,-10.77 26.94,-14.88 41.52,-19.09zm77.93 -133.32c12.74,-7.23 26.23,-13.45 40.46,-17.09 -9.64,27.35 -26.26,51.58 -36.96,78.48l-0.54 1.33c-11.28,-7.98 -25.45,-17.09 -26.84,-32.11 -0.92,-14.74 12.71,-23.98 23.88,-30.61zm-201.56 -69c13.45,-5.47 28.3,-0.98 42.33,-0.98 -10.13,5.88 -23.04,4.21 -32.01,12.33 11.05,13.76 23.48,31.22 16.65,49.77 -9.92,23.34 -42.13,29.83 -63.29,18.72 -11.76,-6.39 -11.59,-21.27 -10.13,-32.78 6.93,7 12.71,17.46 23.48,18.65 19.23,1.26 37.13,-18.08 31.53,-37.37 -0.55,-9.34 -10.26,-12.1 -17.47,-14.95 1.09,-5.44 2.93,-11.55 8.91,-13.39zm-282.94 -42.36c15.7,-6.76 29.66,-18.31 47.6,-18.42 0.44,4.28 0.92,8.63 1.39,12.95 -11.04,5.98 -24.19,6.86 -34.89,13.72 -10.8,6.05 -15.86,17.87 -23.13,27.28 -4.66,5.88 -8.26,12.51 -10.47,19.67 11.21,-11.75 21.24,-26.22 37.81,-30.71 -1.83,6.53 -5.5,12.2 -9.64,17.47 -7.48,16.64 -16.89,32.54 -27.25,47.56 -4.04,12.23 -11.86,22.73 -20.38,32.14 -7.55,4.69 -18.11,2.14 -25.72,-1.43 -7.48,-6.76 -4.39,-17.67 -1.19,-25.79 5.3,-14.84 20.28,-22.79 28.16,-36.01 11.89,-19.74 17.7,-44.78 37.71,-58.43zm549.77 -20.05c7.98,-11.07 20.69,-17.97 33.43,-22.15 -6.94,15.46 -14.14,30.89 -22.8,45.46l-0.88 1.49c-7.75,-5.5 -15.09,-15.11 -9.75,-24.8zm413.79 -202.31c116.87,-0.07 233.74,0 350.61,-0.03 0.07,14.13 0.07,28.3 0.07,42.43 -31.46,0.07 -62.85,-0.1 -94.28,0.07 0.28,96.04 -0.4,192.12 0.34,288.13 3.23,28.4 -5.23,57.86 -23.54,79.84 -20.86,25.71 -52.01,39.51 -82.35,50.68 -88.44,31.16 -183.87,36.36 -276.65,28.07 -50.04,-3.77 -100.05,-9.38 -149.21,-19.67 49.73,-4.11 99.74,-4.83 149.65,-4.83 -10.67,-5.37 -22.83,-6.18 -34.14,-9.54 -48.58,-12.3 -97.95,-24.36 -142.9,-47.13 -11.14,-5.98 -22.93,-12.94 -29.01,-24.49 -4.45,-9.34 2.99,-19.09 10.5,-24.09 19.47,-13.66 42.74,-20.31 65.43,-26.36 -1.66,20.42 -0.58,42.84 13.42,59.15 25.58,31.12 67.07,43.59 105.86,47.22 67.24,6.73 139.6,6.25 199.84,-28.47 20.45,-13.93 28.54,-39.89 29.76,-63.53 0.17,-60.44 -0.14,-120.91 0.13,-181.35 46.96,-3.5 94.01,-5.54 141.06,-7.31 -13.42,-3.19 -27.25,-3.63 -40.9,-4.92 -33.4,-2.79 -66.76,-6.08 -100.19,-8.87 -0.14,-34.18 -0.03,-68.39 -0.03,-102.57 -31.16,-0.1 -62.31,0.04 -93.47,-0.06 -0.06,-14.14 -0.06,-28.24 0,-42.37zm-513.85 0c115.51,0 231.02,-0.17 346.53,0.1 -0.1,14.07 -0.06,28.13 -0.03,42.23 -29.35,0.07 -58.74,0.17 -88.09,-0.07 -0.34,23.72 -0.55,47.43 0,71.14 -55.01,-3.97 -109.87,-9.61 -164.81,-14.37 -0.31,-18.34 -0.17,-36.65 -0.2,-55 -31.09,-1.87 -62.28,0.17 -93.4,-1.19 -0.07,-14.27 -0.07,-28.54 0,-42.84zm-434.04 -0.78c105.31,-0.04 210.63,-0.04 315.95,0 0,13.86 0,27.72 -0.07,41.58 -33.29,-0.2 -66.62,0.14 -99.92,-0.17 -0.61,23.82 -0.06,47.63 -0.37,71.45 -21.06,3.94 -42.09,8.36 -62.78,14.03 -23.07,6.46 -47.9,8.12 -69,20.42l0.3 -3.16c1.84,-33.6 0.38,-67.3 0.79,-100.94 -28.3,0.07 -56.61,0.04 -84.87,0 -0.03,-14.4 -0.03,-28.81 -0.03,-43.21z"/>
   <path class="fil2" d="M0 440.85c141.33,0.1 282.66,-0.2 424.02,0.17 9.99,15.19 20.32,30.2 30.65,45.22 42.16,62.27 84.39,124.55 126.82,186.65 4.42,-1.02 8.84,-1.9 13.32,-2.48l-5.64 7.75c25.45,-9.31 49.54,-22.29 72.13,-37.17 7.03,-5.44 15.86,-10.3 19.53,-18.69 0.95,-12.91 0.14,-25.85 0.31,-38.76 -0.04,-13.28 -0.04,-26.6 -0.04,-39.89 -11.75,0 -23.51,0 -35.23,0 -16.85,0 -33.7,0 -50.55,-0.03 0.07,-34.25 0,-68.49 0.03,-102.74 125.77,-0.06 251.54,0 377.28,-0.03 -1.6,34.25 0.61,68.52 -0.13,102.8 -33.37,0 -66.76,0 -100.13,0 -0.06,11.62 -0.06,23.28 -0.03,34.9 18.11,-2.96 36.49,-2.96 54.6,-5.41 11.92,-4.72 23.3,-10.8 35.81,-13.99 -1.4,2.27 -4.22,6.79 -5.61,9.07 13.79,-3.54 27.42,-7.75 41.48,-10.23 -1.7,2.18 -5.06,6.56 -6.76,8.73 20.69,-0.17 41.38,0.38 62.07,0.31 9.48,2.14 18.45,-1.94 27.28,-4.86 11.69,-4.14 24.02,-5.84 36.39,-6.11 -3.77,3.6 -7.58,7.16 -11.32,10.76 5.17,0.31 10.33,0.58 15.53,0.85 0.03,-7.71 0.14,-15.45 0.24,-23.17 -30.92,0.48 -61.83,-1.53 -92.72,0.11 0.11,-34.32 0.04,-68.6 0.07,-102.88 135.62,0 271.25,0 406.9,0 -0.03,14.82 -0.03,29.63 0,44.44 0.04,19.4 -0.06,38.8 0.07,58.2 -29.86,0.51 -59.69,-0.44 -89.52,0.47 0.27,14.37 0.27,28.78 0.27,43.15 14.68,1.26 29.36,2.65 44.07,3.91 81.84,7.34 163.72,14.6 245.59,21.94 -0.1,-10.05 -0.1,-20.11 -0.1,-30.16 -0.03,-13.08 0,-26.13 0,-39.18 -14.2,-0.03 -28.37,-0.03 -42.53,-0.03 -16.99,0 -33.98,0.07 -50.96,-0.03 0.03,-34.25 0.06,-68.46 0,-102.67 137.38,0.03 274.77,-0.24 412.16,0.13 -0.27,14.78 -0.2,29.56 -0.13,44.37 -0.14,19.47 0.34,38.94 -0.34,58.37 -31.53,-0.41 -63.06,0.07 -94.58,-0.27 -0.48,81.3 -0.11,162.6 -0.17,243.89 0.2,29.9 -2.48,60.75 -15.67,88.03 -13.52,28.06 -37.5,49.77 -64.38,64.79 -32.24,17.83 -67.98,28.2 -103.82,35.91 -64.01,13.11 -129.61,16.71 -194.84,15.86 -78.95,-2.03 -159.13,-8.46 -234.14,-34.75 -10.64,-3.16 -20.86,-10.84 -32.45,-8.29 -26.74,4.93 -54.73,9.24 -78.14,24.02 -8.66,5.16 -15.9,16.54 -9.61,26.26 10.7,18.58 30.61,29.05 48.71,39.17 83.04,42.84 173.61,67.68 262.08,96.32 -131.35,-33.81 -263.57,-65.54 -398,-84.56 -55.01,-7.24 -110.76,-13.22 -166.2,-7.54 1.32,1.76 3.94,5.29 5.23,7.03 -12.4,0.03 -23.65,-8.5 -36.18,-4.39 -11.01,3.06 -24.57,1.43 -33.64,9.25 -4.96,1.22 -9.88,2.41 -14.78,3.63 -9.92,-1.12 -26.77,-9 -30.33,5.2 -22.12,-3.94 -43.02,5.09 -63.84,11.01 -13.49,4.21 -27.35,8.73 -38.8,17.36 -5.13,5.84 -0.51,14.37 0.27,21.03 -7,-4.59 -16.41,-10.81 -24.46,-4.66 -9.24,5.3 -9.44,18.18 -17.9,23.82 -2.55,-6.12 -3.37,-12.71 -4.32,-19.16 -30.57,9.03 -61.11,20.31 -87.31,38.96 -15.46,10.81 -30.51,26.74 -30.88,46.68 -0.58,18.28 12.94,31.97 23.27,45.43 -42.87,-8.84 -87.28,-28.57 -110.96,-67.27 -24.87,-47.29 -31.36,-103.28 -21.5,-155.57 6.32,-34.45 20.04,-67.26 38.39,-96.99 13.01,-20.96 28.77,-40.02 45.25,-58.27 -43.04,-62.37 -86.36,-124.54 -129.37,-186.95 -16.17,-22.73 -31.46,-46.07 -48.01,-68.49 0.28,89.31 0.04,178.59 0.11,267.91 29.62,-0.1 59.25,0.75 88.91,0.61 0.64,14.88 0.13,29.8 0.3,44.75 0.07,19.36 -0.1,38.76 0.07,58.16 -110.86,0.41 -221.75,0.03 -332.64,0.2 -16.85,-0.03 -33.7,0 -50.55,-0.03l0 -103.62c32.17,0.17 64.35,-0.31 96.52,0.27 0.71,-98.49 0.1,-196.98 0.3,-295.47 -0.06,-13.35 -0.06,-26.7 0.11,-40.09 -15.39,-0.3 -30.82,-0.17 -46.21,-0.17 -16.92,0 -33.8,0 -50.72,0l0 -102.8zm1898.63 -14.74c0,0.88 1.71,5.11 1.71,10.45 0,1.83 0.7,2.63 3.2,2.63 8.8,0 14.8,-4.47 24.38,-27.98 13.16,-32.44 13.86,-33.8 16.36,-34.67 0.23,-0.08 0.39,-0.72 0.7,-1.04 0.31,-0.4 0.86,-1.2 0.86,-1.51 0,-0.56 -0.47,-0.96 -1.33,-0.96 -0.47,0 -1.71,0.48 -4.98,0.48 -5.15,0 -7.64,-0.48 -9.2,-0.48 -0.39,0 -2.41,1.99 -2.41,2.47 0,0.88 1.01,0.8 2.41,1.04 2.34,0.47 3.35,1.59 3.35,4.38 0,3.27 -7.55,21.04 -8.96,25.59l-0.15 0c-3.19,-9.33 -8.8,-23.68 -8.8,-26.31 0,-2.95 2.33,-3.34 3.81,-3.66 0.39,-0.08 0.63,-0.56 0.94,-1.2 0.15,-0.4 1.01,-0.8 1.01,-1.12 0,-0.55 -0.47,-1.19 -1.56,-1.19 -0.7,0 -4.83,0.48 -8.8,0.48 -4.67,0 -8.49,-0.48 -10.2,-0.48 -1.41,0 -1.02,0.72 -1.95,1.35 -0.63,0.48 -0.86,0.72 -0.86,1.44 0,1.19 3.04,-0.64 6.39,6.93 6.7,15.23 14.18,32.76 14.18,35.95 0,1.68 -4.21,11.4 -11.61,11.4 -2.41,0 -3.97,-1.51 -4.44,-3.19 -0.78,-2.79 -0.86,-3.98 -1.87,-3.98 -0.39,0 -2.18,2.39 -2.18,3.18zm-95.94 -17.85c0,7.49 3.12,11.32 10.44,11.32 4.13,0 6.7,-2.31 11.53,-6.46 1.25,-1.03 1.4,-1.35 1.71,-2.87 0.08,-1.03 0.63,-1.59 0.63,-2.31 0,-0.88 -0.47,-1.11 -0.86,-1.11 -1.25,0 -4.13,5.1 -8.26,5.1 -1.79,0 -4.28,-1.92 -4.28,-5.9l0 -20.57c0,-2.47 0.08,-5.02 0.15,-7.49l7.72 0c1.24,0 1.86,-1.27 2.88,-2.63 1.09,-1.51 2.1,-1.83 2.1,-2.87 0,-0.8 -0.47,-1.04 -0.93,-1.04 -1.02,0 -3.35,2.08 -8.34,2.08 -1.17,0 -2.26,-0.08 -3.43,-0.16 0,-8.37 0.63,-9.97 0.63,-10.6 0,-0.16 -0.55,-0.48 -0.94,-0.48 -0.47,0 -2.41,0.88 -2.65,1.43 -1.71,4.63 -6,9.01 -10.83,10.45 -0.46,0.15 -2.18,2.63 -2.18,3.1 0,0.64 0.24,0.88 2.03,0.88 1.01,0 1.87,-0.08 2.88,-0.16l0 30.29zm-95.62 -2.31c0,6.3 -0.71,8.85 -2.65,9.32 -1.8,0.48 -2.65,2.4 -2.65,2.79 0,0.4 0.23,0.72 0.78,0.72 4.9,0 7.4,-0.48 9.81,-0.48 4.05,0 6.47,0.48 10.13,0.48 0.31,0 2.02,-1.67 2.02,-2.15 0,-1.12 -0.23,-0.8 -3.11,-1.36 -2.42,-0.47 -3.43,-2.55 -3.43,-6.37l0 -25.67c0,-8.53 0.62,-9.32 0.62,-9.8 0,-0.56 -1.01,-1.2 -1.71,-1.2 -1.33,0 -3.51,3.19 -10.28,3.19l-1.95 0c-1.09,0 -2.73,1.91 -2.73,2.47 0,0.8 1.33,0.72 2.57,1.04 1.33,0.32 2.58,1.11 2.58,3.9l0 23.12zm-1.25 -43.68c0,0.72 1.09,1.67 2.72,3.67 1.8,2.23 2.42,3.26 3.82,3.26 1.17,0 2.49,-1.19 3.97,-2.87 1.8,-1.99 2.58,-3.02 2.58,-4.06 0,-1.6 -0.71,-2.31 -2.97,-4.94 -1.4,-1.52 -2.1,-2 -3.58,-2 -0.54,0 -1.63,0.8 -3.97,2.87 -2.26,2 -2.57,2.63 -2.57,4.07zm-112.69 24.79c0,16.9 22.59,9.56 22.59,20.56 0,3.27 -2.49,6.22 -7.48,6.22 -8.49,0 -11.45,-5.18 -12.46,-10.2 -0.23,-1.28 -0.16,-2.23 -1.01,-2.23 -0.55,0 -2.42,1.83 -2.42,2.78 0,0.8 0.47,5.19 0.47,8.21 0,2.87 -0.47,5.27 -0.47,6.14 0,0.8 0.39,1.04 0.94,1.04 1.24,0 2.33,-1.28 5.06,-1.28 3.43,0 4.6,1.28 10.36,1.28 10.91,0 17.61,-7.97 17.61,-15.62 0,-16.58 -22.59,-10.05 -22.59,-20.25 0,-3.03 2.18,-5.74 6.54,-5.74 3.27,0 8.34,1.91 9.82,6.46 0.46,1.43 0.15,3.58 1.01,3.58 0.78,0 0.78,-0.23 1.48,-0.87 0.78,-0.72 1.4,-1.04 1.4,-2.79 0,-0.72 -0.47,-1.6 -0.47,-5.02 0,-2.55 0.47,-5.03 0.47,-6.3 0,-0.56 -0.31,-0.8 -0.78,-0.8 -0.62,0 -1.71,1.28 -3.82,1.28 -1.55,0 -4.2,-1.28 -8.95,-1.28 -10.29,0 -17.3,7.81 -17.3,14.83zm-101.47 22.95c0,5.9 -3.42,5.18 -4.05,6.22 -0.39,0.64 -0.93,1.12 -0.93,1.83 0,0.56 0.15,0.72 0.7,0.72 3.11,0 7.48,-0.48 9.66,-0.48 2.96,0 7.63,0.48 11.45,0.48 0.31,0 2.03,-1.75 2.03,-2.39 0,-1.75 -3.2,-0.24 -5.46,-1.59 -1.95,-1.12 -2.49,-2.63 -2.49,-5.19l0 -18.01c0,-6.3 3.19,-10.76 6.08,-10.76 2.41,0 2.96,3.03 4.36,3.03 1.01,0 1.71,-1.51 3.04,-3.51 1.55,-2.31 2.57,-3.03 2.57,-4.46 0,-1.91 -2.81,-3.67 -5.92,-3.67 -3.98,0 -7.4,5.34 -10.75,8.61 0.07,-4.38 1.09,-6.3 1.09,-7.33 0,-0.24 -1.02,-1.28 -1.64,-1.28 -0.78,0 -3.66,3.35 -8.8,3.35 -0.94,0 -2.11,-0.16 -3.51,-0.16 -0.7,0 -0.93,0.64 -1.48,1.28 -0.31,0.39 -0.93,0.71 -0.93,1.11 0,0.64 0.31,1.12 1.56,1.12 2.18,0 3.42,1.27 3.42,4.86l0 26.22zm-86.2 -16.1c3.43,0 4.83,-1.11 4.83,-3.82 0,-11 -6.7,-17.86 -15.97,-17.86 -11.92,0 -21.11,11.16 -21.11,24.87 0,13.55 7.64,22.48 19.17,22.48 10.59,0 17.91,-10.36 17.91,-10.84 0,-1.52 0.78,-3.11 0.78,-3.51 0,-0.48 -0.39,-0.8 -0.78,-0.8 -2.18,0 -4.51,7.02 -13.79,7.02 -7.55,0 -11.91,-7.33 -11.91,-17.54l20.87 0zm-18.69 -4.78c-1.25,0 -1.87,-0.48 -1.87,-2.07 0,-4.94 3.89,-9.09 7.16,-9.09 4.44,0 6.86,3.99 6.86,8.13 0,2.23 -0.78,3.03 -2.34,3.03l-9.81 0zm-107.7 17.22c-2.11,-5.98 -9.27,-22.96 -9.27,-26.15 0,-4.22 3.58,-3.42 3.81,-4.14 0.39,-1.2 1.41,-1.52 1.41,-2.15 0,-0.72 -0.47,-0.88 -1.02,-0.88 -1.17,0 -3.81,0.48 -10.67,0.48 -5.29,0 -7.71,-0.48 -8.72,-0.48 -0.55,0 -1.02,0.56 -1.64,1.19 -0.54,0.56 -1.32,0.64 -1.32,1.12 0,1.52 1.79,0.56 4.28,2.79 3.2,2.87 11.92,27.98 13.63,31.8 2.5,5.5 2.5,9.65 4.37,9.65 1.71,0 2.25,-1.99 3.58,-3.27 1.48,-1.43 3.89,-2.39 4.21,-3.59 1.32,-5.1 12.38,-36.18 15.34,-36.18 0.55,0 1.25,-0.72 1.56,-1.44 0.23,-0.48 0.86,-0.56 0.86,-1.19 0,-0.56 -0.39,-0.88 -1.02,-0.88 -0.7,0 -3.11,0.48 -8.33,0.48 -2.18,0 -4.36,-0.48 -5.69,-0.48 -0.46,0 -1.17,0.4 -1.56,1.04 -0.54,0.87 -1.16,0.47 -1.32,1.67 -0.08,0.64 1.48,0.32 3.74,0.8 1.01,0.16 2.34,1.83 2.34,3.42 0,5.5 -7.09,21.13 -8.42,26.39l-0.15 0zm-116.66 -0.4c0,6.3 -0.7,8.85 -2.65,9.32 -1.79,0.48 -2.65,2.4 -2.65,2.79 0,0.4 0.24,0.72 0.78,0.72 4.91,0 7.4,-0.48 9.82,-0.48 4.05,0 6.46,0.48 10.12,0.48 0.31,0 2.03,-1.67 2.03,-2.15 0,-1.12 -0.24,-0.8 -3.12,-1.36 -2.41,-0.47 -3.43,-2.55 -3.43,-6.37l0 -25.67c0,-8.53 0.63,-9.32 0.63,-9.8 0,-0.56 -1.02,-1.2 -1.72,-1.2 -1.32,0 -3.5,3.19 -10.28,3.19l-1.95 0c-1.09,0 -2.72,1.91 -2.72,2.47 0,0.8 1.32,0.72 2.57,1.04 1.32,0.32 2.57,1.11 2.57,3.9l0 23.12zm-1.25 -43.68c0,0.72 1.09,1.67 2.73,3.67 1.79,2.23 2.41,3.26 3.82,3.26 1.16,0 2.49,-1.19 3.97,-2.87 1.79,-1.99 2.57,-3.02 2.57,-4.06 0,-1.6 -0.7,-2.31 -2.96,-4.94 -1.4,-1.52 -2.1,-2 -3.58,-2 -0.55,0 -1.64,0.8 -3.98,2.87 -2.26,2 -2.57,2.63 -2.57,4.07zm-109.41 25.74c0,-3.82 4.52,-8.13 8.18,-8.13 3.03,0 5.37,2.4 5.37,7.34l0 20c0,6.86 -2.18,7.97 -2.65,8.05 -0.46,0.09 -1.87,2.55 -1.87,2.87 0,0.56 0.16,0.64 0.94,0.64 2.65,0 7.79,-0.48 9.81,-0.48 2.26,0 4.91,0.48 9.12,0.48 0.31,0 0.78,-0.56 1.25,-1.11 0.38,-0.56 0.85,-0.72 0.85,-1.36 0,-1.27 -3.19,-0.56 -4.36,-1.51 -1.64,-1.28 -2.18,-3.03 -2.18,-8.69l0 -22.88c0,-7.65 -4.05,-11 -11.38,-11 -4.36,0 -8.1,4.31 -13.08,6.7 0,-4.23 0.62,-5.02 0.62,-5.5 0,-0.56 -1.01,-1.2 -1.71,-1.2 -1.33,0 -3.51,3.19 -10.29,3.19l-1.94 0c-0.86,0 -2.73,1.91 -2.73,2.47 0,0.8 1.32,0.72 2.57,1.04 1.33,0.32 2.57,1.11 2.57,3.9l0 24.39c0,6.86 -2.18,7.97 -2.65,8.05 -1.56,0.4 -2.8,2.4 -2.8,2.87 0,0.56 0.15,0.64 0.93,0.64 3.59,0 6.78,-0.48 9.9,-0.48 3.11,0 5.76,0.48 9.97,0.48 0.78,0 0.62,-0.48 1.09,-0.96 0.39,-0.47 1.01,-0.55 1.01,-1.51 0,-1.04 -2.57,-0.08 -4.67,-1.75 -1.33,-1.04 -1.87,-3.51 -1.87,-8.45l0 -18.1zm-131.31 -14.26c0,-6.22 0.55,-7.5 4.83,-9.17 0.39,-0.16 1.87,-2.23 1.87,-2.55 0,-0.48 -0.47,-0.96 -1.71,-0.96 -1.79,0 -4.44,0.48 -13.4,0.48 -5.38,0 -7.32,-0.48 -8.02,-0.48 -1.09,0 -2.65,2.08 -2.65,2.55 0,0.8 0.54,0.8 2.1,0.96 4.13,0.56 5.3,3.51 5.3,9.72l0 27.9c0,10.68 9.97,17.38 20.72,17.38 17.92,0 24.62,-10.04 24.62,-23.28l0 -20.4c0,-8.29 1.71,-10.28 4.59,-11.32 0.7,-0.24 2.03,-2.07 2.03,-2.47 0,-0.88 -0.86,-1.04 -1.48,-1.04 -0.7,0 -2.03,0.48 -6.86,0.48 -7.79,0 -9.11,-0.48 -10.36,-0.48 -0.7,0 -1.01,0.56 -1.64,1.28 -0.62,0.56 -1.09,0.87 -1.09,1.59 0,0.48 0.47,0.48 1.56,0.64 5.53,0.8 7.17,2.71 7.17,11.72l0 18.97c0,11.56 -5.69,16.66 -14.41,16.66 -8.34,0 -13.17,-5.74 -13.17,-14.35l0 -23.83zm-199.42 16.66c-10.13,0.39 -24.77,4.3 -24.77,17.37 0,6.86 5.14,11.8 11.76,11.8 6,0 8.96,-4.54 13.48,-7.65 0.08,3.58 2.8,7.65 6.62,7.65 2.96,0 4.99,-3.19 8.72,-4.94 1.1,-0.48 1.95,-3.11 1.95,-3.43 0,-0.64 -0.31,-0.88 -1.01,-0.88 -0.94,0 -1.4,1.12 -2.57,1.12 -2.42,0 -3.58,-1.44 -3.58,-5.9 0,-8.61 0.46,-15.94 0.46,-21.6 0,-7.25 -5.92,-11.72 -13.71,-11.72 -1.56,0 -4.2,0.4 -6.7,0.8 -2.41,0.4 -4.75,0.8 -5.76,0.8 -2.49,0 -2.57,-1.6 -3.35,-1.6 -0.62,0 -2.1,0.88 -2.1,2.31 0,7.89 -2.03,12.36 -2.03,12.68 0,0.56 0.31,0.95 0.94,0.95 0.77,0 1.4,-0.71 2.33,-1.11 0.78,-0.4 2.81,-9.09 11.69,-9.09 4.13,0 7.63,2.55 7.63,7.18l0 5.26zm0 8.13c0,7.97 -3.74,13.39 -8.25,13.39 -3.98,0 -5.93,-2.47 -5.93,-6.38 0,-7.25 8.11,-10.76 14.18,-11.16l0 4.15zm-125.46 11.47c0,5.9 -3.43,5.18 -4.05,6.22 -0.39,0.64 -0.94,1.12 -0.94,1.83 0,0.56 0.16,0.72 0.71,0.72 3.11,0 7.47,-0.48 9.65,-0.48 2.96,0 7.64,0.48 11.46,0.48 0.31,0 2.02,-1.75 2.02,-2.39 0,-1.75 -3.19,-0.24 -5.45,-1.59 -1.95,-1.12 -2.49,-2.63 -2.49,-5.19l0 -18.01c0,-6.3 3.19,-10.76 6.07,-10.76 2.42,0 2.96,3.03 4.36,3.03 1.02,0 1.72,-1.51 3.04,-3.51 1.56,-2.31 2.57,-3.03 2.57,-4.46 0,-1.91 -2.8,-3.67 -5.92,-3.67 -3.97,0 -7.4,5.34 -10.75,8.61 0.08,-4.38 1.09,-6.3 1.09,-7.33 0,-0.24 -1.01,-1.28 -1.63,-1.28 -0.78,0 -3.66,3.35 -8.81,3.35 -0.93,0 -2.1,-0.16 -3.5,-0.16 -0.7,0 -0.94,0.64 -1.48,1.28 -0.31,0.39 -0.94,0.71 -0.94,1.11 0,0.64 0.32,1.12 1.56,1.12 2.18,0 3.43,1.27 3.43,4.86l0 26.22zm-97.34 -19.6c-10.13,0.39 -24.77,4.3 -24.77,17.37 0,6.86 5.14,11.8 11.76,11.8 6,0 8.96,-4.54 13.48,-7.65 0.08,3.58 2.8,7.65 6.62,7.65 2.96,0 4.98,-3.19 8.72,-4.94 1.1,-0.48 1.95,-3.11 1.95,-3.43 0,-0.64 -0.31,-0.88 -1.01,-0.88 -0.94,0 -1.4,1.12 -2.57,1.12 -2.42,0 -3.59,-1.44 -3.59,-5.9 0,-8.61 0.47,-15.94 0.47,-21.6 0,-7.25 -5.92,-11.72 -13.71,-11.72 -1.56,0 -4.21,0.4 -6.7,0.8 -2.41,0.4 -4.75,0.8 -5.76,0.8 -2.5,0 -2.57,-1.6 -3.35,-1.6 -0.63,0 -2.11,0.88 -2.11,2.31 0,7.89 -2.02,12.36 -2.02,12.68 0,0.56 0.31,0.95 0.93,0.95 0.78,0 1.41,-0.71 2.34,-1.11 0.78,-0.4 2.81,-9.09 11.69,-9.09 4.12,0 7.63,2.55 7.63,7.18l0 5.26zm0 8.13c0,7.97 -3.74,13.39 -8.26,13.39 -3.97,0 -5.92,-2.47 -5.92,-6.38 0,-7.25 8.1,-10.76 14.18,-11.16l0 4.15zm-104.66 -11.16c0,-3.67 -2.18,-7.02 -4.99,-9.25l0.16 -0.16c1.09,1.04 3.89,2.23 5.69,2.23 1.79,0 2.64,-0.87 3.81,-3.19 0.94,-1.75 2.49,-3.18 2.49,-3.66 0,-0.56 -0.38,-1.12 -1.09,-1.12 -0.54,0 -1.32,0.56 -2.57,1.12 -1.24,0.56 -2.96,1.11 -5.53,1.11 -4.75,0 -7.79,-2.23 -14.17,-2.23 -5.46,0 -21.66,6.86 -21.66,17.06 0,7.25 4.28,10.68 9.66,12.59 -2.26,5.98 -7.17,6.86 -7.17,11.16 0,2.55 4.36,7.18 15.74,7.18 11.53,0 13.86,1.11 13.86,5.81 0,3.59 -3.89,6.94 -10.36,6.94 -8.96,0 -14.25,-3.19 -14.25,-6.46 0,-2.79 2.33,-3.42 2.33,-4.06 0,-0.72 -2.02,-1.28 -2.25,-1.28 -0.86,0 -2.58,1.36 -5.46,2.31 -3.89,1.36 -5.22,2 -5.22,4.63 0,4.7 7.95,11.08 19.48,11.08 15.11,0 26.33,-8.13 26.33,-17.54 0,-8.29 -5.77,-11.8 -19.17,-11.8 -9.81,0 -10.43,-0.79 -10.43,-2.94 0,-1.12 0.85,-2.87 1.4,-3.75 1.01,0.16 2.02,0.16 3.04,0.16 8.72,0 20.33,-5.74 20.33,-15.94zm-26.49 0.79c0,-6.21 3.12,-9.24 7.33,-9.24 4.2,0 7.78,3.58 7.78,9.72 0,6.22 -3.11,9.41 -7.32,9.41 -4.2,0 -7.79,-3.75 -7.79,-9.89zm-104.66 2.24c-10.13,0.39 -24.77,4.3 -24.77,17.37 0,6.86 5.14,11.8 11.76,11.8 6,0 8.96,-4.54 13.48,-7.65 0.07,3.58 2.8,7.65 6.62,7.65 2.96,0 4.98,-3.19 8.72,-4.94 1.1,-0.48 1.95,-3.11 1.95,-3.43 0,-0.64 -0.31,-0.88 -1.01,-0.88 -0.94,0 -1.4,1.12 -2.57,1.12 -2.42,0 -3.59,-1.44 -3.59,-5.9 0,-8.61 0.47,-15.94 0.47,-21.6 0,-7.25 -5.92,-11.72 -13.71,-11.72 -1.56,0 -4.21,0.4 -6.7,0.8 -2.41,0.4 -4.75,0.8 -5.76,0.8 -2.5,0 -2.57,-1.6 -3.35,-1.6 -0.63,0 -2.1,0.88 -2.1,2.31 0,7.89 -2.03,12.36 -2.03,12.68 0,0.56 0.31,0.95 0.93,0.95 0.78,0 1.41,-0.71 2.34,-1.11 0.78,-0.4 2.81,-9.09 11.69,-9.09 4.12,0 7.63,2.55 7.63,7.18l0 5.26zm0 8.13c0,7.97 -3.74,13.39 -8.26,13.39 -3.97,0 -5.92,-2.47 -5.92,-6.38 0,-7.25 8.1,-10.76 14.18,-11.16l0 4.15zm-116.97 7.41c0,6.3 -0.7,8.85 -2.65,9.32 -1.79,0.48 -2.65,2.4 -2.65,2.79 0,0.4 0.24,0.72 0.78,0.72 4.91,0 7.4,-0.48 9.82,-0.48 4.05,0 6.46,0.48 10.12,0.48 0.32,0 2.03,-1.67 2.03,-2.15 0,-1.12 -0.23,-0.8 -3.12,-1.36 -2.41,-0.47 -3.42,-2.55 -3.42,-6.37l0 -25.67c0,-8.53 0.62,-9.32 0.62,-9.8 0,-0.56 -1.01,-1.2 -1.72,-1.2 -1.32,0 -3.5,3.19 -10.28,3.19l-1.95 0c-1.09,0 -2.72,1.91 -2.72,2.47 0,0.8 1.32,0.72 2.57,1.04 1.32,0.32 2.57,1.11 2.57,3.9l0 23.12zm-1.25 -43.68c0,0.72 1.09,1.67 2.73,3.67 1.79,2.23 2.42,3.26 3.82,3.26 1.17,0 2.49,-1.19 3.97,-2.87 1.79,-1.99 2.57,-3.02 2.57,-4.06 0,-1.6 -0.7,-2.31 -2.96,-4.94 -1.4,-1.52 -2.1,-2 -3.58,-2 -0.55,0 -1.64,0.8 -3.98,2.87 -2.26,2 -2.57,2.63 -2.57,4.07zm-122.73 13.79l0.15 0 21.66 33.24c5.92,9.08 5.37,10.28 7.17,10.28 1.79,0 2.18,-1.83 4.51,-3.91 3.12,-2.71 4.52,-1.99 4.52,-5.02 0,-2.79 -0.31,-5.34 -0.31,-12.75l0 -16.9c0,-13.55 0.94,-15.06 3.43,-16.42 0.39,-0.16 1.56,-2.15 1.56,-2.71 0,-0.48 -0.39,-0.8 -1.25,-0.8 -0.78,0 -5.69,0.48 -8.49,0.48 -3.9,0 -6.86,-0.48 -7.95,-0.48 -0.85,0 -2.72,2.15 -2.72,2.55 0,0.88 0.46,0.96 1.63,0.96 5.38,0 7.71,2.07 7.71,11l0 28.06 -0.15 0 -21.89 -33.8c-3.27,-5.1 -4.28,-8.77 -6.15,-8.77 -1.17,0 -3.82,0.48 -7.02,0.48 -2.1,0 -5.06,-0.48 -5.84,-0.48 -1.87,0 -3.5,2.08 -3.5,2.71 0,0.72 0.46,0.8 1.16,0.8 4.45,0 5.69,2.47 5.69,11.08l0 29.33c0,7.34 -1.48,10.05 -3.58,10.28 -0.47,0.09 -2.18,2.32 -2.18,2.79 0,0.48 0.39,0.72 1.09,0.72 3.81,0 6.46,-0.48 8.33,-0.48 2.18,0 5.92,0.48 9.27,0.48 0.7,0 2.5,-2.07 2.5,-2.55 0,-0.56 -0.71,-0.96 -2.65,-0.96 -5.38,0 -6.7,-3.02 -6.7,-13.39l0 -25.82zm636.98 312.29c29.63,-21.98 61.33,-44.37 98.8,-49.47 -35.23,21.2 -68.56,48.82 -87.14,86.26 -3.71,7.88 -10.54,13.49 -18.15,17.36 4.05,-10.22 11.93,-20.25 8.57,-31.83 -11.05,1.97 -22.22,3.77 -32.76,7.64 -16.57,4.49 -26.6,18.96 -37.81,30.71 2.21,-7.16 5.81,-13.79 10.47,-19.67 7.27,-9.41 12.33,-21.23 23.13,-27.28 10.7,-6.86 23.85,-7.74 34.89,-13.72zm255.04 27.45c19.71,3.91 41.32,4.48 58.91,-6.59 -7.95,19.02 -22.35,36.55 -42.5,43.11 9.75,17.6 14.37,40.43 2.89,58.37 -19.06,30.03 -63.36,46.47 -95.02,26.43 -14.27,-7.85 -23.21,-24.12 -21.2,-40.46 -21,10.7 -38.09,27.31 -52.29,45.83 -0.98,-8.67 2.38,-16.55 6.05,-24.09 -0.78,-2.38 -2.38,-7.13 -3.19,-9.51 5.74,-3.27 13.25,-5.1 15.86,-11.93 7.14,-16 25.35,-21.1 39.34,-29.22 8.63,-16.98 25.48,-29.04 44.98,-29.25 4.59,-20.04 28.64,-24.9 46.17,-22.69zm21.64 128.56c14.51,-6.77 30.58,-12.61 46.85,-9.69 15.02,5.23 13.49,26.74 5.34,37.27 -16.99,21.92 -37.3,41.31 -58.78,58.84 13.22,-16.54 27.52,-33.46 33.16,-54.32 2.58,-7.68 1.23,-16.61 -4.31,-22.66 -5.78,-6.12 -14.58,-7.27 -22.26,-9.44zm-35.99 327.51c0,3.83 -1.79,6.14 -3.66,6.54 -1.09,0.24 -1.95,2.07 -1.95,2.79 0,0.48 0.31,0.72 1.48,0.72 0.86,0 3.51,-0.48 10.52,-0.48 4.44,0 7.71,0.48 10.36,0.48 1.71,0 1.95,-0.32 2.33,-0.88 0.39,-0.64 0.94,-0.88 0.94,-1.52 0,-0.63 -0.31,-1.11 -1.87,-1.11 -4.21,0 -6.47,-2.39 -6.47,-9.41l0 -13.23c2.11,0.48 4.37,0.64 8.03,0.64 9.42,0 19.86,-8.93 19.86,-18.17 0,-8.85 -5.45,-14.51 -15.89,-14.51 -3.27,0 -6.23,0.24 -9.27,0.48 -3.04,0.24 -6.23,0.47 -9.89,0.47 -3.82,0 -5.84,-0.08 -7.09,-0.23 -1.17,-0.08 -1.48,-0.24 -1.79,-0.24 -0.31,0 -2.5,1.75 -2.5,2.55 0,0.95 1.02,0.79 2.5,0.95 2.33,0.24 4.36,2.39 4.36,8.05l0 36.11zm11.68 -40.81c2.19,-0.48 4.37,-0.64 7.17,-0.64 4.91,0 9.04,3.51 9.04,9.25 0,6.69 -3.2,11 -10.21,11 -2.88,0 -6,-1.28 -6,-3.67l0 -15.94zm79.73 39.62c0,8.37 4.83,12.03 11.69,12.03 4.83,0 6.07,-2.87 13.24,-8.29 0.7,4.23 2.03,8.29 5.92,8.29 3.12,0 3.97,-2.15 9.27,-4.62 0.78,-0.4 1.48,-1.12 1.56,-1.67 0.08,-0.56 0.54,-0.48 0.54,-1.6 0,-0.56 -0.31,-0.88 -0.7,-0.88 -0.78,0 -2.02,0.64 -3.04,0.64 -1.47,0 -3.11,-0.87 -3.11,-5.26l0 -25.82c0,-4.47 0.62,-6.06 0.62,-6.54 0,-0.32 -0.62,-1.59 -1.79,-1.59 -1.09,0 -5.22,2.55 -10.13,2.55 -1.24,0 -2.88,-0.32 -4.28,-0.32 -0.7,0 -2.34,1.83 -2.34,2.47 0,1.11 1.33,0.87 2.73,1.03 2.57,0.4 4.28,1.84 4.28,5.66l0 17.78c0,4.94 -4.98,10.52 -9.19,10.52 -2.34,0 -4.36,-2.55 -4.36,-6.38l0 -25.18c0,-4.47 0.62,-6.06 0.62,-6.54 -0.31,-0.32 -0.93,-1.59 -2.1,-1.59 -1.09,0 -5.22,2.55 -10.13,2.55 -1.24,0 -2.88,-0.32 -4.28,-0.32 -0.7,0 -2.34,1.83 -2.34,2.47 0,1.11 1.32,0.87 2.73,1.03 2.57,0.4 4.59,1.84 4.59,5.66l0 23.92zm93.36 2.47c0,5.9 -3.42,5.18 -4.05,6.21 -0.39,0.64 -0.93,1.12 -0.93,1.84 0,0.56 0.15,0.72 0.7,0.72 3.12,0 7.48,-0.48 9.66,-0.48 2.96,0 7.63,0.48 11.45,0.48 0.31,0 2.03,-1.76 2.03,-2.4 0,-1.75 -3.2,-0.24 -5.46,-1.59 -1.94,-1.12 -2.49,-2.63 -2.49,-5.18l0 -18.01c0,-6.3 3.19,-10.77 6.08,-10.77 2.41,0 2.96,3.03 4.36,3.03 1.01,0 1.71,-1.51 3.04,-3.5 1.55,-2.32 2.57,-3.03 2.57,-4.47 0,-1.91 -2.81,-3.66 -5.92,-3.66 -3.98,0 -7.4,5.34 -10.75,8.6 0.07,-4.38 1.09,-6.29 1.09,-7.33 0,-0.24 -1.02,-1.27 -1.64,-1.27 -0.78,0 -3.66,3.34 -8.8,3.34 -0.94,0 -2.1,-0.16 -3.51,-0.16 -0.7,0 -0.93,0.64 -1.48,1.28 -0.31,0.4 -0.93,0.72 -0.93,1.11 0,0.64 0.31,1.12 1.56,1.12 2.18,0 3.42,1.28 3.42,4.86l0 26.23zm87.06 -20.25c0,-5.26 4.2,-9.88 7.71,-9.88 3.5,0 7.86,4.62 7.86,17.53 0,11.48 -3.11,16.42 -8.72,16.42 -4.36,0 -6.85,-2.23 -6.85,-7.33l0 -16.74zm0 28.14c1.47,1.03 4.9,1.67 7.08,1.67 12.7,0 19.87,-14.03 19.87,-27.34 0,-11.87 -6.55,-20 -15.11,-20 -4.83,0 -5.07,2.39 -11.84,6.53 0,-1.75 0.77,-3.35 0.77,-4.94 0,-0.8 -0.46,-1.59 -1.48,-1.59 -1.48,0 -3.43,3.34 -10.98,3.34 -0.78,0 -1.32,-0.32 -1.87,-0.32 -0.54,0 -2.34,1.84 -2.34,2.63 0,1.04 0.7,0.72 2.81,1.2 1.48,0.32 2.18,0.8 2.18,3.83l0 46.23c0,3.98 -0.78,5.26 -3.43,6.06 -0.7,0.23 -1.71,1.99 -1.71,2.71 0,0.55 0.31,0.79 0.85,0.79 0.78,0 4.91,-0.48 11.69,-0.48 7.63,0 9.04,0.48 9.66,0.48 0.62,0 1.17,-0.4 1.4,-0.95 0.47,-0.88 1.17,-0.72 1.17,-1.52 0,-0.64 -0.39,-0.72 -3.19,-1.03 -3.74,-0.4 -5.53,-2.4 -5.53,-7.02l0 -10.28zm80.27 -10.68c0,6.85 -2.18,7.97 -2.65,8.05 -1.56,0.4 -2.81,2.39 -2.81,2.87 0,0.56 0.16,0.64 0.94,0.64 3.58,0 6.78,-0.48 9.89,-0.48 3.12,0 5.77,0.48 9.97,0.48 0.63,0 2.11,-1.92 2.11,-2.48 0,-1.03 -2.57,-0.08 -4.99,-1.99 -1.01,-0.8 -1.56,-3.59 -1.56,-8.21l0 -38.74c0,-10.6 0.86,-11.87 0.86,-13.07 0,-0.4 -1.25,-1.83 -1.71,-1.83 -1.95,0 -2.34,3.66 -10.52,3.66l-3.51 0c-1.63,0 -3.19,2.24 -3.19,2.79 0,0.4 0.39,0.72 1.01,0.72 5.3,0 6.16,0.88 6.16,9.25l0 38.34zm95.38 -13.31c3.43,0 4.83,-1.12 4.83,-3.83 0,-11 -6.69,-17.85 -15.97,-17.85 -11.92,0 -21.11,11.16 -21.11,24.86 0,13.56 7.64,22.48 19.17,22.48 10.59,0 17.91,-10.36 17.91,-10.84 0,-1.51 0.78,-3.11 0.78,-3.5 0,-0.48 -0.39,-0.8 -0.78,-0.8 -2.18,0 -4.51,7.01 -13.78,7.01 -7.56,0 -11.92,-7.33 -11.92,-17.53l20.87 0zm-18.69 -4.79c-1.25,0 -1.87,-0.48 -1.87,-2.07 0,-4.94 3.89,-9.09 7.17,-9.09 4.44,0 6.85,3.99 6.85,8.13 0,2.24 -0.78,3.03 -2.34,3.03l-9.81 0zm138.43 19.61c0,3.83 -1.8,6.14 -3.67,6.54 -1.09,0.24 -1.94,2.07 -1.94,2.79 0,0.48 0.31,0.72 1.48,0.72 0.85,0 6.85,-0.48 17.91,-0.48 19.48,0 22.05,0.48 23.06,0.48 1.56,0 2.49,-1.6 2.49,-3.03 0,-6.06 1.95,-12.2 1.95,-12.84 0,-0.71 -0.39,-1.03 -0.7,-1.03 -0.78,0 -1.17,0.79 -1.87,0.79 -0.47,0 -1.25,0.48 -1.32,0.88 -1.17,4.86 -3.35,9.01 -12.93,9.01 -9.59,0 -12.78,-1.2 -12.78,-5.02l0 -19.69c2.65,-0.16 5.22,-0.32 8.02,-0.32 6,0 7.72,1.43 8.26,5.58 0.31,2.15 0.24,2.47 1.09,2.47 0.86,0 0.94,-0.88 1.79,-1.59 0.32,-0.32 1.02,-0.56 1.02,-2.32 0,-0.95 -0.47,-2.79 -0.47,-6.61 0,-2.47 0.47,-4.07 0.47,-5.1 0,-0.96 -0.39,-1.12 -0.78,-1.12 -0.86,0 -2.65,2.95 -10.6,2.95 -4.2,0 -6.07,-0.16 -8.8,-0.32l0 -14.03c2.81,-0.08 5.45,-0.16 9.11,-0.16 7.48,0 10.83,0.88 13.48,4.07 1.95,2.31 1.95,5.66 2.81,5.66 0.93,0 2.25,-2.47 2.25,-2.87 0,-2.15 -0.85,-4.62 -1.16,-7.1 -0.71,-5.58 -0.08,-6.77 -1.64,-6.77 -1.09,0 -1.48,0.32 -5.22,0.64 -3.74,0.32 -10.83,0.63 -25.16,0.63 -3.51,0 -5.84,-0.08 -7.48,-0.23 -1.56,-0.08 -2.41,-0.24 -3.04,-0.24 -0.47,0 -2.57,1.99 -2.57,2.87 0,0.39 0.47,0.55 1.25,0.63 3.43,0.32 5.69,1.44 5.69,6.54l0 37.62zm114.39 -18.33c-10.13,0.4 -24.77,4.3 -24.77,17.38 0,6.85 5.14,11.79 11.76,11.79 6,0 8.96,-4.54 13.48,-7.65 0.07,3.59 2.8,7.65 6.62,7.65 2.96,0 4.98,-3.19 8.72,-4.94 1.09,-0.48 1.95,-3.11 1.95,-3.43 0,-0.63 -0.31,-0.87 -1.01,-0.87 -0.94,0 -1.4,1.11 -2.57,1.11 -2.42,0 -3.59,-1.43 -3.59,-5.9 0,-8.61 0.47,-15.94 0.47,-21.6 0,-7.25 -5.92,-11.71 -13.71,-11.71 -1.56,0 -4.21,0.39 -6.7,0.79 -2.41,0.4 -4.75,0.8 -5.76,0.8 -2.5,0 -2.57,-1.59 -3.35,-1.59 -0.63,0 -2.11,0.87 -2.11,2.31 0,7.89 -2.02,12.35 -2.02,12.67 0,0.56 0.31,0.96 0.93,0.96 0.78,0 1.4,-0.72 2.34,-1.12 0.78,-0.4 2.8,-9.09 11.68,-9.09 4.13,0 7.64,2.56 7.64,7.18l0 5.26zm0 8.13c0,7.97 -3.74,13.39 -8.26,13.39 -3.97,0 -5.92,-2.47 -5.92,-6.38 0,-7.25 8.1,-10.76 14.18,-11.16l0 4.15zm102.79 -11.16c0,-3.67 -2.19,-7.01 -4.99,-9.25l0.16 -0.16c1.09,1.04 3.89,2.24 5.68,2.24 1.79,0 2.65,-0.88 3.82,-3.19 0.93,-1.76 2.49,-3.19 2.49,-3.67 0,-0.56 -0.39,-1.11 -1.09,-1.11 -0.54,0 -1.32,0.55 -2.57,1.11 -1.24,0.56 -2.96,1.12 -5.53,1.12 -4.75,0 -7.79,-2.23 -14.18,-2.23 -5.45,0 -21.65,6.85 -21.65,17.05 0,7.26 4.28,10.68 9.65,12.6 -2.25,5.97 -7.16,6.85 -7.16,11.16 0,2.55 4.36,7.17 15.73,7.17 11.53,0 13.87,1.12 13.87,5.82 0,3.58 -3.89,6.93 -10.36,6.93 -8.96,0 -14.26,-3.18 -14.26,-6.45 0,-2.79 2.34,-3.43 2.34,-4.07 0,-0.72 -2.02,-1.27 -2.26,-1.27 -0.85,0 -2.57,1.35 -5.45,2.31 -3.9,1.35 -5.22,1.99 -5.22,4.62 0,4.7 7.95,11.08 19.48,11.08 15.11,0 26.33,-8.13 26.33,-17.54 0,-8.29 -5.77,-11.79 -19.17,-11.79 -9.81,0 -10.44,-0.8 -10.44,-2.95 0,-1.12 0.86,-2.87 1.41,-3.75 1.01,0.16 2.02,0.16 3.03,0.16 8.73,0 20.34,-5.74 20.34,-15.94zm-26.49 0.8c0,-6.22 3.12,-9.25 7.32,-9.25 4.21,0 7.79,3.59 7.79,9.72 0,6.22 -3.11,9.41 -7.32,9.41 -4.21,0 -7.79,-3.75 -7.79,-9.88zm82.06 19.05c0,6.85 -2.18,7.97 -2.64,8.05 -1.56,0.4 -2.81,2.39 -2.81,2.87 0,0.56 0.16,0.64 0.94,0.64 3.58,0 6.77,-0.48 9.89,-0.48 3.11,0 5.76,0.48 9.97,0.48 0.62,0 2.1,-1.92 2.1,-2.48 0,-1.03 -2.57,-0.08 -4.98,-1.99 -1.01,-0.8 -1.56,-3.59 -1.56,-8.21l0 -38.74c0,-10.6 0.86,-11.87 0.86,-13.07 0,-0.4 -1.25,-1.83 -1.72,-1.83 -1.94,0 -2.33,3.66 -10.51,3.66l-3.51 0c-1.64,0 -3.19,2.24 -3.19,2.79 0,0.4 0.39,0.72 1.01,0.72 5.3,0 6.15,0.88 6.15,9.25l0 38.34zm95.39 -13.31c3.43,0 4.83,-1.12 4.83,-3.83 0,-11 -6.7,-17.85 -15.97,-17.85 -11.92,0 -21.11,11.16 -21.11,24.86 0,13.56 7.63,22.48 19.16,22.48 10.6,0 17.92,-10.36 17.92,-10.84 0,-1.51 0.78,-3.11 0.78,-3.5 0,-0.48 -0.39,-0.8 -0.78,-0.8 -2.18,0 -4.52,7.01 -13.79,7.01 -7.55,0 -11.92,-7.33 -11.92,-17.53l20.88 0zm-18.7 -4.79c-1.24,0 -1.86,-0.48 -1.86,-2.07 0,-4.94 3.89,-9.09 7.16,-9.09 4.44,0 6.86,3.99 6.86,8.13 0,2.24 -0.78,3.03 -2.34,3.03l-9.82 0zm73.11 -2.07c0,16.9 22.59,9.57 22.59,20.57 0,3.26 -2.49,6.21 -7.48,6.21 -8.49,0 -11.45,-5.18 -12.46,-10.2 -0.23,-1.27 -0.16,-2.23 -1.01,-2.23 -0.55,0 -2.42,1.83 -2.42,2.79 0,0.8 0.47,5.18 0.47,8.21 0,2.87 -0.47,5.26 -0.47,6.14 0,0.79 0.39,1.03 0.94,1.03 1.24,0 2.33,-1.27 5.06,-1.27 3.43,0 4.6,1.27 10.36,1.27 10.91,0 17.61,-7.97 17.61,-15.62 0,-16.58 -22.59,-10.04 -22.59,-20.25 0,-3.03 2.18,-5.74 6.54,-5.74 3.27,0 8.33,1.92 9.81,6.46 0.47,1.43 0.16,3.59 1.02,3.59 0.78,0 0.78,-0.24 1.48,-0.88 0.78,-0.72 1.4,-1.04 1.4,-2.79 0,-0.72 -0.47,-1.59 -0.47,-5.02 0,-2.55 0.47,-5.02 0.47,-6.3 0,-0.56 -0.31,-0.79 -0.78,-0.79 -0.62,0 -1.71,1.27 -3.82,1.27 -1.55,0 -4.2,-1.27 -8.95,-1.27 -10.29,0 -17.3,7.81 -17.3,14.82zm-996.51 -414.01l0 0c-5.98,1.84 -7.82,7.95 -8.91,13.39 7.21,2.85 16.92,5.61 17.47,14.95 5.6,19.29 -12.3,38.63 -31.53,37.37 -10.77,-1.19 -16.55,-11.65 -23.48,-18.65 -1.46,11.51 -1.63,26.39 10.13,32.78 21.16,11.11 53.37,4.62 63.29,-18.72 6.83,-18.55 -5.6,-36.01 -16.65,-49.77 8.97,-8.12 21.88,-6.45 32.01,-12.33 -14.03,0 -28.88,-4.49 -42.33,0.98zm-28.58 51.03l0 0c4.76,1.6 9.79,6.05 14.71,2.28 10.37,-4.21 6.53,-24.23 -5.64,-21.71 -10.43,-0.68 -13.18,11.79 -9.07,19.43zm-843.43 -325.91l0 0c0,20.66 0,41.31 0,61.97 32.59,0 65.16,-0.03 97.75,0 -0.14,125.43 0.06,250.83 -0.11,376.26 -32.82,-0.04 -65.63,-0.04 -98.45,0 0,20.93 -0.07,41.85 0.03,62.75 113.78,0.03 227.56,0.07 341.34,0 0,-21.17 0,-42.33 0.03,-63.5 -29.73,-0.34 -59.45,-0.03 -89.18,-0.17 0.1,-117.48 -0.24,-234.96 0.17,-352.44 71.89,101.44 143.03,203.43 214.51,305.15 1.8,-1.6 5.4,-4.79 7.2,-6.39 7.31,-6.49 14.61,-12.94 21.98,-19.33 -4.52,-6.25 -10.43,-12.4 -10.46,-20.65 -1.6,-20.73 12.67,-38.36 26.94,-51.75 14.98,-12.84 27.62,-28.64 35.06,-47.05 0.65,-3.19 1.94,-9.61 2.58,-12.81 -53.03,-77.25 -105.76,-154.68 -158.66,-232 -130.22,-0.17 -260.47,-0.14 -390.73,-0.04zm595.32 0.14l0 0c0.07,20.55 0.11,41.14 0,61.69 28.34,0.31 56.67,0.07 85.01,0.14 -0.38,28.88 0.68,57.79 -0.58,86.67 7.27,-0.41 4.55,7.06 6.15,11.31 0.71,-1.6 2.21,-4.83 2.95,-6.42l-0.3 3.16c21.1,-12.3 45.93,-13.96 69,-20.42 20.69,-5.67 41.72,-10.09 62.78,-14.03 3.16,-0.54 6.32,-1.12 9.48,-1.66 0,-20.12 -0.17,-40.23 0.1,-60.34 33.43,-0.17 66.9,0.3 100.33,-0.24 -0.34,-19.98 -0.17,-39.95 -0.14,-59.93 -111.57,-0.2 -223.17,-0.27 -334.78,0.07zm434.09 0.68l0 0c0,20.38 0,40.77 0,61.15 31.05,-0.31 62.07,1.56 93.12,0.61 0.58,15.26 0.27,30.51 0.23,45.76 3.2,0.31 6.39,0.58 9.62,0.85 54.94,4.76 109.8,10.4 164.81,14.37 2.24,0.48 6.69,1.36 8.93,1.84 0.24,-21.03 0.38,-42.03 -0.1,-63.02 29.22,-0.92 58.47,-0.17 87.72,-0.41 0.03,-20.38 -0.03,-40.77 0.03,-61.15 -121.45,0 -242.91,0 -364.36,0zm513.75 0.13l0 0c0.13,20.32 0.06,40.6 0.03,60.92 31.19,0.27 62.38,-0.04 93.6,0.13 -0.14,30.75 -0.1,61.46 -0.04,92.18 2.35,0.27 7.04,0.74 9.38,0.98 33.43,2.79 66.79,6.08 100.19,8.87 13.65,1.29 27.48,1.73 40.9,4.92 -47.05,1.77 -94.1,3.81 -141.06,7.31 -2.37,0.17 -7.06,0.47 -9.44,0.64 -0.07,60.31 0.03,120.61 -0.03,180.88 -1.06,24.22 -11.59,52.28 -36.39,60.88 -52.29,26.77 -113.13,27.35 -170.38,23 -28.67,-2 -57.62,-7.24 -83.06,-21.23 -17.06,-9.21 -33.2,-23.17 -38.97,-42.3 -4.25,-12.16 -1.09,-25.11 -1.36,-37.58 -2.35,0.68 -7.03,2.01 -9.38,2.69 -22.69,6.05 -45.96,12.7 -65.43,26.36 -7.51,5 -14.95,14.75 -10.5,24.09 6.08,11.55 17.87,18.51 29.01,24.49 44.95,22.77 94.32,34.83 142.9,47.13 11.31,3.36 23.47,4.17 34.14,9.54 -49.91,0 -99.92,0.72 -149.65,4.83 -10.4,0.23 -20.69,1.56 -31.09,1.32 81.81,22.66 167.25,27.76 251.71,31.05 85.34,-0.68 173.23,-11.58 250.46,-50.18 39.34,-19.26 69.13,-59.48 69.74,-104.13 -0.1,-98.55 0.07,-197.11 -0.1,-295.63 31.46,-0.28 62.92,-0.07 94.38,-0.14 0,-20.38 0,-40.77 0,-61.15 -123.19,0.1 -246.38,-0.21 -369.56,0.13zm-683.96 136.75l0 0c-35.34,4.65 -70.87,9.78 -105.05,20.11l-1.76 2.21 -1.19 -0.82c-24.77,3.37 -45.16,18.99 -67.71,28 -0.38,-2.18 -1.19,-6.53 -1.57,-8.73 -9.07,8.28 -21.4,14.23 -26.05,26.26 -6.25,3.43 -12.68,6.52 -19.2,9.37 -17.94,0.11 -31.9,11.66 -47.6,18.42 -20.01,13.65 -25.82,38.69 -37.71,58.43 -7.88,13.22 -22.86,21.17 -28.16,36.01 -3.2,8.12 -6.29,19.03 1.19,25.79 7.61,3.57 18.17,6.12 25.72,1.43 9.37,-2.92 19.7,0.4 28.77,-3.5 9.48,3.8 19.74,-0.38 29.59,1.22 11.69,0.58 22.59,5.03 33.94,7.24 0.48,-1.74 1.4,-5.17 1.84,-6.9 3.56,6.18 11.72,15.19 17.76,6.15 5.3,3.6 10.4,7.54 15.4,11.58 7.98,-1.08 10.39,7.92 15.79,11.76 6.36,4.55 11.38,12.16 19.95,12.4 5.26,7 10.36,15.42 7.84,24.56 -1.73,4.66 1.29,8.87 1.6,13.39 -3.97,10.19 -3.74,21.37 -6.86,31.83 1.76,-0.54 5.3,-1.59 7.1,-2.14 36.52,-22.62 74.13,-44.13 114.59,-58.91 20.08,-7 41.45,-13.15 62.89,-9.85 11.65,1.9 23.44,9.95 24.83,22.52 2.55,15.77 -10.63,28.3 -23.27,35.1 -12.03,8.02 -28.64,13.04 -34.04,27.62 9.95,2.58 19.23,-2.11 28.57,-4.82 -20.01,15.83 -37.54,34.48 -54.05,53.84 -5.06,5.92 -9.45,12.5 -11.62,20.05 -67.3,12.87 -133.72,31.05 -197.39,56.43 -49.3,20.25 -97.91,44.74 -137.25,81.3 -3.84,3.46 -7.41,7.27 -10.19,11.65 39.23,-27.82 79.63,-56.5 126.68,-69.2l0.82 5.36c9,-7.64 18.11,-15.59 29.42,-19.63 62.38,-24.91 128.56,-40.3 195.38,-46.61 1.26,-12.71 8.8,-23.89 18.89,-31.4 36.32,-27.79 71.35,-57.62 101.89,-91.73 12.26,-14.43 24.7,-29.86 29.79,-48.41 3.33,-10.26 0.14,-22.73 -9.75,-28.09 -19.97,-12 -45.28,-7.14 -65.06,2.88 16.04,-19.12 27.59,-46.68 13.66,-70.29 11.31,-3.46 19.4,-13.28 17.36,-25.55 16.31,-6.25 29.9,-20.41 31.63,-38.39 -8.05,2.08 -16.17,6.19 -24.63,4.11 -17.8,-2.82 -37.13,-4.38 -53.51,4.59 0.48,-6.42 3.94,-11.62 8.19,-16.21 -18.55,13.49 -41.52,17.98 -63.43,22.7 -9.61,2.38 -20.42,4.62 -26.91,12.84 -0.2,5.3 2.79,10.19 2.38,15.53 -7.27,8.15 -17.29,13.11 -27.08,17.56 -30.57,12.27 -54.97,39.28 -63.8,71.04 -0.17,-16.92 3.37,-34.01 11.32,-49.06 4.21,-7.47 6.01,-15.9 7.27,-24.29 1.76,-0.1 5.33,-0.3 7.13,-0.41 1.7,-3.49 3.4,-7.03 5.1,-10.56 1.97,-0.21 5.91,-0.58 7.88,-0.78 9.41,-9.28 20.89,-15.97 31.19,-24.02 6.21,-15.02 12.4,-33.23 29.69,-38.66 15.63,-8.16 34.58,3.5 49.06,-7.95 12.02,-9.89 23.4,-20.8 37.71,-27.49 43.14,-24.49 94,-25.14 142.08,-29.69 30.67,-3.37 61.52,2.07 92.17,-1.9 22.79,-3.37 46.78,-4.93 68.22,-13.32 -44.24,-4.18 -88.4,-9.14 -132.67,-13.01 -75.05,-1.09 -150.23,2.2 -224.77,11.04zm397.56 28.3l0 0c-13.39,0.44 -25.99,5.16 -38.83,8.46l-0.07 2c-15.56,-0.88 -30.34,9.82 -45.59,13.86 -12.74,4.18 -25.45,11.08 -33.43,22.15 -5.34,9.69 2,19.3 9.75,24.8l0.88 -1.49c11.45,6.73 23.34,13.05 36.32,16.24 52.96,15.63 107.96,24.15 162.9,29.15 -4.38,1.09 -8.8,2.24 -13.25,2.85 -54.94,7.1 -109.77,15.29 -163.85,27.38 -19.61,3.54 -38.33,10.47 -57.56,15.39 -14.23,3.64 -27.72,9.86 -40.46,17.09 -11.17,6.63 -24.8,15.87 -23.88,30.61 1.39,15.02 15.56,24.13 26.84,32.11l0.54 -1.33c13.18,7.92 26.94,14.95 41.38,20.35 27.99,10.13 56.64,18.42 85.44,25.93 -33.32,2.38 -66.65,4.79 -99.95,7.88 -25.03,1.76 -49.73,7.17 -74.36,11.07 -11.73,-0.61 -22.66,4.42 -33.94,6.7 -14.58,4.21 -30.27,8.32 -41.52,19.09 -8.32,8.6 -1.63,21.78 7.03,27.28 11.01,7.27 21.98,15.9 35.2,18.45l-0.14 0.24c19.23,8.35 38.67,16.13 58.71,22.32 29.83,8.29 59.66,16.92 89.96,23.41 -22.08,-13.19 -45.59,-25.76 -61.8,-46.31 -4.07,-5 -5.98,-11.32 -7.91,-17.33 1.09,-10.5 7.34,-18.82 15.39,-25.21l-1.5 -0.23c13.22,-6.53 26.16,-13.87 40.5,-17.7 50.35,-14.72 102.91,-20.19 155.09,-23.14 -27.83,-16.41 -59.9,-28.47 -80.62,-54.49 -8.09,-9.72 -12.43,-24.16 -5.67,-35.78 11.31,-19.16 32.68,-28.91 52.25,-37.64 55.1,-22.19 114.01,-32.62 172.52,-41.21 -17.19,-10.33 -34.69,-20.66 -48.72,-35.17 -8.36,-8.25 -16.72,-19.6 -14.2,-32 4.55,-15.39 20.18,-23.24 33.84,-29.15 42.94,-16.51 89.24,-21.23 134.77,-25.04 -14.44,-3.22 -29.25,-4.17 -43.93,-5.43 -76,-5.23 -152.24,-1.67 -228.13,3.84zm173.77 39.47l0 0c-14.2,4.63 -30.03,8.91 -39.92,20.86 -5.81,8.12 2.35,17.19 8.87,21.85 25.89,17.94 56.84,26.43 86.5,35.91 24.46,7.98 49.94,12.5 74.3,20.59 -63.19,4.62 -126.21,12.16 -188.76,22.62 -15.05,2.82 -30.2,5.24 -45.05,8.97 0.38,16.99 -0.17,35.74 10.64,49.98 9.07,11.14 22.42,17.39 35.33,22.96 55.88,18.86 117.04,18.11 174.42,7 20.59,-5.26 42.33,-11.89 57.45,-27.68 9.51,-9.99 12.57,-24.26 12.06,-37.68 -0.38,-57.62 0.47,-115.24 -0.44,-172.86 -62.11,6.59 -124.92,11.01 -185.4,27.48zm-503.93 16.14l0 0c6.63,-3.26 13.86,-4.31 21.17,-4.41 5.6,-0.55 4.79,-7.55 6.62,-11.39 -11.14,1.23 -22.18,5.3 -27.79,15.8zm94.62 -4.24l0 0c-1.43,1.18 -4.25,3.6 -5.64,4.82 0.78,7.95 12.57,4.52 11.38,-2.65 2.34,-4.42 -3.5,-5.27 -5.74,-2.17zm-16.96 1.69l0 0c-10.32,8.23 -7.77,22.87 -14.91,33.03 -3.36,5.98 -10.16,11.24 -8.12,18.99 6.25,-2.11 12.1,-5.91 14.47,-12.37 7.17,-12.23 2.69,-27.04 8.56,-39.65zm-463.63 157.44l0 0c-11.35,2.31 -23.07,6.22 -31.16,14.91 -27.82,28.13 -53.51,58.71 -73.41,92.99 -23.68,41.24 -40.91,88.53 -36.25,136.78 1.12,41.55 18.72,81.74 44.67,113.88 -7.44,-28.91 -5.64,-59.86 0.04,-88.95 11.58,-57.96 54.76,-107.28 109.42,-128.86 -2.54,-8.7 -0.23,-17.87 7.04,-23.54 20.62,-17.97 47.32,-26.6 72.77,-35.44 20.79,-7.37 42.84,-20.48 49.43,-42.94 3.4,-12.2 -7.2,-22.32 -17.5,-26.53 -32.07,-13.73 -67.74,-12.88 -101.92,-14.24 -7.74,-0.13 -15.46,1.09 -23.13,1.94zm461.46 1.08l0 0c5.61,10.3 0.54,20.93 -3.23,30.79 7.1,-8.12 17.3,-15.26 18.89,-26.67 -2.99,-5.78 -10.56,-2.89 -15.66,-4.12zm-186.68 61.19l0 0c-68.39,31.63 -135.49,65.94 -202.86,99.61 -19.91,10.94 -40.36,22.76 -54.46,41.04 -7.27,8.97 -10.6,21.85 -4.72,32.45 -23.68,12.64 -46.68,27.21 -65.5,46.54 -16.52,16.85 -29.46,38.49 -30.58,62.58 6.56,-5.74 7.95,-15.35 13.69,-21.91 26.87,-36.01 65.88,-60.41 104.64,-81.88 -3.7,-4.62 -9.28,-10.26 -6.45,-16.71 5.53,-15.6 18.95,-26.57 31.79,-36.18 34.22,-23.68 72.06,-41.25 109.16,-59.87 49.67,-23.68 99.99,-46.03 150.74,-67.3 7.72,-3.5 16.31,-0.98 24.5,-1.53 3.12,-7.06 8.8,-12.4 13.79,-18.17 -1.43,-1.19 -4.31,-3.57 -5.74,-4.76 -27.79,2.04 -53,14.91 -78,26.09zm-238.09 61.49l0 0c-6.18,5.3 -4.86,13.59 -2.07,20.29 4.89,-1.09 10.05,-2.04 13.92,-5.51 13.9,-11.01 25.38,-24.7 36.53,-38.35 -17.02,5.5 -35,11.17 -48.38,23.57zm69.51 62.55l0 0c-18.86,10.19 -38.83,19.33 -54.8,33.87 -4.49,5.85 -10.84,14.24 -5.27,21.41 3.33,-3.54 6.19,-7.89 11.04,-9.48 73.66,-34.49 147.96,-68.94 226.64,-90.37 3.57,-7.65 8.67,-14.34 14.03,-20.76 -27,0.92 -50.48,17.05 -73.85,28.98 14.23,-13.69 30.78,-24.67 46.85,-36.08 -55.69,22.28 -110.83,45.96 -164.64,72.43zm247.16 -18.62l0 0c8.22,-2.85 16.54,-5.54 25.07,-7.47 0.37,-7.68 0.82,-15.36 1.19,-23.04 -11.76,7.1 -22.83,16.55 -26.26,30.51zm-36.56 16.04l0 0c3.16,5.23 9.04,1.83 13.73,1.22 1.59,-8.59 4.99,-16.61 8.9,-24.39 -8.6,6.49 -17.67,13.32 -22.63,23.17z"/>
   <path class="fil3" d="M972.63 440.85c1.46,15.02 1.36,30.13 1.26,45.18 14.34,0.11 28.71,0.11 43.04,0.04 0.68,21.5 0.17,42.98 0.11,64.48 0.5,4.72 -0.89,10.26 1.93,14.44 11.65,0.51 23.41,-0.07 34.96,2.04 -20.69,0.07 -41.38,-0.48 -62.07,-0.31 1.7,-2.17 5.06,-6.55 6.76,-8.73 -14.06,2.48 -27.69,6.69 -41.48,10.23 1.39,-2.28 4.21,-6.8 5.61,-9.07 -12.51,3.19 -23.89,9.27 -35.81,13.99 -18.11,2.45 -36.49,2.45 -54.6,5.41 -0.03,-11.62 -0.03,-23.28 0.03,-34.9 33.37,0 66.76,0 100.13,0 0.74,-34.28 -1.47,-68.55 0.13,-102.8zm-589.51 483.55c14.27,-0.21 28.54,-0.1 42.81,0.44 -18.35,29.73 -32.07,62.54 -38.39,96.99 -112.15,-0.37 -224.3,-0.2 -336.48,-0.13 -0.92,-12.95 -0.95,-25.96 -0.51,-38.94 110.89,-0.17 221.78,0.21 332.64,-0.2 -0.17,-19.4 0,-38.8 -0.07,-58.16zm666.84 7.4c24.63,-3.9 49.33,-9.31 74.36,-11.07 -5.87,13.25 -14.23,25.24 -19.73,38.69l4.85 0.79 1.5 0.23c-8.05,6.39 -14.3,14.71 -15.39,25.21 -1.26,0.72 -3.77,2.18 -5.06,2.89 -6.12,11.96 -10.64,24.73 -15.19,37.34 -20.04,-6.19 -39.48,-13.97 -58.71,-22.32l0.14 -0.24c10.46,-24.12 26.43,-45.9 33.23,-71.52zm-520.11 -79.09c8.09,-8.69 19.81,-12.6 31.16,-14.91 -8.02,19.84 -20.9,37.1 -30.75,55.99 -37.3,62.54 -71.82,126.75 -110.07,188.69 -4.66,-48.25 12.57,-95.54 36.25,-136.78 19.9,-34.28 45.59,-64.86 73.41,-92.99zm817 -55.14c14.85,-3.73 30,-6.15 45.05,-8.97 0.21,27.32 -0.85,54.63 0.92,81.91 -12.91,-5.57 -26.26,-11.82 -35.33,-22.96 -10.81,-14.24 -10.26,-32.99 -10.64,-49.98zm-212.44 -9.48c19.23,-4.92 37.95,-11.85 57.56,-15.39 -17.16,31.77 -30.31,65.54 -47.47,97.31 -2.85,5.3 -4.24,11.14 -5.67,16.91 -14.44,-5.4 -28.2,-12.43 -41.38,-20.35 10.7,-26.9 27.32,-51.13 36.96,-78.48zm58.24 -136.47c15.25,-4.04 30.03,-14.74 45.59,-13.86 0.34,7.75 -3.53,14.71 -6.49,21.61 -8.02,18.21 -18.04,35.5 -25.58,53.95 -12.98,-3.19 -24.87,-9.51 -36.32,-16.24 8.66,-14.57 15.86,-30 22.8,-45.46zm-488.78 -3.12c22.55,-9.01 42.94,-24.63 67.71,-28l1.19 0.82c-15.4,25.07 -29.39,51.03 -45.46,75.69 -15.77,32.38 -36.08,62.24 -53.14,93.94 -3.8,7.2 -10.32,13.83 -9.54,22.59 -0.44,1.73 -1.36,5.16 -1.84,6.9 -11.35,-2.21 -22.25,-6.66 -33.94,-7.24 -9.85,-1.6 -20.11,2.58 -29.59,-1.22 -9.07,3.9 -19.4,0.58 -28.77,3.5 8.52,-9.41 16.34,-19.91 20.38,-32.14 10.36,-15.02 19.77,-30.92 27.25,-47.56 4.14,-5.27 7.81,-10.94 9.64,-17.47 10.54,-3.87 21.71,-5.67 32.76,-7.64 3.36,11.58 -4.52,21.61 -8.57,31.83 7.61,-3.87 14.44,-9.48 18.15,-17.36 18.58,-37.44 51.91,-65.06 87.14,-86.26 -37.47,5.1 -69.17,27.49 -98.8,49.47 -0.47,-4.32 -0.95,-8.67 -1.39,-12.95 6.52,-2.85 12.95,-5.94 19.2,-9.37 4.65,-12.03 16.98,-17.98 26.05,-26.26 0.38,2.2 1.19,6.55 1.57,8.73zm-410.07 -37.37c16.55,22.42 31.84,45.76 48.01,68.49 -4.18,7.27 -3.13,15.79 -3.26,23.81 0.54,58.1 -0.34,116.19 0.37,174.29 14.58,0.34 29.15,-0.17 43.72,0.03l0.18 1.9c-29.66,0.14 -59.29,-0.71 -88.91,-0.61 -0.07,-89.32 0.17,-178.6 -0.11,-267.91zm1300.35 -66.66c14.16,0 28.33,0 42.53,0.03 0,13.05 -0.03,26.1 0,39.18 -14.06,-0.31 -28.13,-0.38 -42.2,-0.34 0.04,-12.95 -0.1,-25.93 -0.33,-38.87zm-564.82 0.14c30.89,-1.64 61.8,0.37 92.72,-0.11 -0.1,7.72 -0.21,15.46 -0.24,23.17 -5.2,-0.27 -10.36,-0.54 -15.53,-0.85 3.74,-3.6 7.55,-7.16 11.32,-10.76 -12.37,0.27 -24.7,1.97 -36.39,6.11 -1.9,-4.86 0.38,-12.81 -4.25,-15.87 -15.79,-2.07 -31.9,1.43 -47.63,-1.69zm-383.46 -0.96c11.72,0 23.48,0 35.23,0 0,13.29 0,26.61 0.04,39.89 -11.72,-0.14 -23.41,-0.17 -35.13,-0.07 -0.34,-13.28 -0.38,-26.53 -0.14,-39.82zm-595.15 0c15.39,0 30.82,-0.13 46.21,0.17 -0.17,13.39 -0.17,26.74 -0.11,40.09 -15.25,-0.71 -30.54,-0.71 -45.79,-0.4 -0.99,-13.25 -0.99,-26.57 -0.31,-39.86zm1904.5 -57.38c14.74,-0.27 29.49,-0.27 44.23,-0.2 0.92,32.34 0.48,64.69 0.17,97.03 -31.53,0.47 -63.09,-0.31 -94.65,0.27 -0.17,78.48 -0.14,156.96 -0.1,235.44 0.71,37.27 -1.09,77.12 -21.88,109.46 -25.31,41.41 -71.79,63.22 -116.6,76.85 -58.13,17.43 -118.91,24.05 -179.34,26.19 -60.17,1.87 -120.54,-0.1 -180.2,-8.32 -42.84,-5.91 -85.58,-15.02 -125.74,-31.39 -24.09,-10.2 -47.97,-22.66 -66.28,-41.79 11.59,-2.55 21.81,5.13 32.45,8.29 75.01,26.29 155.19,32.72 234.14,34.75 65.23,0.85 130.83,-2.75 194.84,-15.86 35.84,-7.71 71.58,-18.08 103.82,-35.91 26.88,-15.02 50.86,-36.73 64.38,-64.79 13.19,-27.28 15.87,-58.13 15.67,-88.03 0.06,-81.29 -0.31,-162.59 0.17,-243.89 31.52,0.34 63.05,-0.14 94.58,0.27 0.68,-19.43 0.2,-38.9 0.34,-58.37zm-518.92 -0.1c14.92,-0.14 29.83,-0.14 44.78,-0.03 -0.3,32.44 0.21,64.89 -0.3,97.3 -29.25,0.47 -58.57,-1.26 -87.76,0.75 -0.47,1.93 -1.39,5.77 -1.83,7.71 -14.71,-1.26 -29.39,-2.65 -44.07,-3.91 0,-14.37 0,-28.78 -0.27,-43.15 29.83,-0.91 59.66,0.04 89.52,-0.47 -0.13,-19.4 -0.03,-38.8 -0.07,-58.2zm-981.63 0.07c5.71,0.92 13.69,-2.51 17.6,3.23 41.31,60.13 81.57,121.01 123.42,180.77l-0.88 0.17c-4.48,0.58 -8.9,1.46 -13.32,2.48 -42.43,-62.1 -84.66,-124.38 -126.82,-186.65z"/>
  </g>
 </g>
</svg>
