<?xml version="1.0" encoding="UTF-8"?>
<!DOCTYPE svg PUBLIC "-//W3C//DTD SVG 1.1//EN" "http://www.w3.org/Graphics/SVG/1.1/DTD/svg11.dtd">
<!-- Creator: CorelDRAW -->
<svg xmlns="http://www.w3.org/2000/svg" xml:space="preserve" width="2000px" height="1600px" version="1.1" style="shape-rendering:geometricPrecision; text-rendering:geometricPrecision; image-rendering:optimizeQuality; fill-rule:evenodd; clip-rule:evenodd"
viewBox="0 0 2000 1600"
 xmlns:xlink="http://www.w3.org/1999/xlink">
 <defs>
  <style type="text/css">
   <![CDATA[
    .fil2 {fill:#013D7E;fill-rule:nonzero}
    .fil1 {fill:#020203;fill-rule:nonzero}
    .fil4 {fill:#FCC79B;fill-rule:nonzero}
    .fil3 {fill:#FFCE06;fill-rule:nonzero}
    .fil0 {fill:#FFFFFD;fill-rule:nonzero}
   ]]>
  </style>
 </defs>
 <g id="Capa_x0020_1">
  <metadata id="CorelCorpID_0Corel-Layer"/>
  <g id="Northern_x0020_Arizona_x0020_Lumberjacks.cdr">
   <path class="fil0" d="M1055.54 18.86c42.34,-12.55 87.88,-5.26 128.46,10.14 27.19,11.41 52.91,28.71 69.91,53.2 -42.13,-35.69 -96.64,-58.88 -152.28,-58.38 -35.11,0.17 -66.21,17.43 -99.13,26.94 -20.79,6.99 -36.32,23.32 -51.77,38.14 18.9,-40.75 63.65,-59.94 104.81,-70.04zm-365.31 904.95c21.26,22.43 34.81,51.68 59.48,71 11.7,8.89 27.27,8 41.12,7.08 -17.47,6.6 -36.37,14.89 -55.35,9.17 -18.14,-3.79 -32.28,-16.54 -44.4,-29.76 2.9,-2.69 5.8,-5.34 8.79,-7.99 9.68,9.97 20.08,21.59 35.32,21.29 -19.62,-14.48 -36.96,-33.46 -42.81,-57.74 -0.88,-4.34 -1.51,-8.72 -2.15,-13.05zm84.94 -72.44c9.68,9.3 15.87,21.47 18.27,34.64 3.24,18.48 20.37,33 15.83,52.87 -8.04,-15.41 -19.45,-28.5 -30.6,-41.63 -0.38,-15.37 2.82,-31.28 -3.5,-45.88zm666.55 1.39c7.32,-2.23 13.81,-6.32 20.04,-10.73 14.22,6.69 27.95,15.99 43.98,17.46 11.2,1.69 18.99,-7.41 26.9,-13.63l2.9 -2.4c-1.94,11.78 -10.81,21.38 -20.92,27.1 -16.46,3.54 -31.48,-6.86 -45.16,-14.48l1.22 7.37c-9.77,-3.24 -19.49,-6.65 -28.96,-10.69zm4 -50.76c15.91,3.11 31.57,8.04 47.77,9.55 4.63,-2.23 9.1,-4.88 13.56,-7.49 15.49,8.67 30.89,20.54 49.45,20.24 13.09,-0.04 17.6,-14.26 25.05,-22.39l4.04 -3.79c-3.66,15.11 -12.38,32.41 -28.58,36.75 -18.9,-0.25 -34.94,-12.5 -51.06,-20.88l3.79 9.26c-22.6,-2.31 -44.83,-8.96 -64.02,-21.25zm-582.91 -1.52c6.01,11.32 10.56,23.36 16.29,34.85 6.86,13.64 17.97,25.09 22.34,39.9 2.7,11.24 0.68,22.86 0,34.22 -9.21,-26.85 -23.19,-51.6 -38.21,-75.55 -1.31,-11.07 -0.26,-22.31 -0.42,-33.42zm78.66 -33.84c4.04,8.8 7.16,17.97 10.53,27.06 5.64,16.38 19.19,28.71 23.82,45.59 4.8,12.84 1.72,26.52 0.04,39.61 -6.06,-28.58 -19.87,-54.6 -34.85,-79.39 1.81,-10.86 1.73,-21.93 0.46,-32.87zm661.21 6.36c23.15,-6.07 29.96,-31.45 41.12,-49.59 -3.79,15.83 -7.16,31.91 -14.23,46.68 -14.39,8.92 -31.15,16 -48.36,14.48 -15.07,-2.57 -28.28,-10.69 -40.37,-19.66 0.47,2.11 1.35,6.32 1.82,8.42 -34.73,0.47 -71.73,-1.26 -102.37,-19.19 -3.03,-8.04 1.18,-16.63 2.99,-24.5 0.92,8.59 2.27,19.66 12.79,21.34 27.87,8.46 58.81,18.27 87.38,7.16 18.02,9.55 38.1,21.51 59.23,14.86zm-337.02 -107.84l2.77 0.25c6.15,1.73 12.42,0.55 18.73,0.3 1.48,19.95 2.82,41.16 -4.63,60.06 -8.96,17.51 -26.39,28.29 -43.01,37.63 -1.77,0.93 -5.31,2.86 -7.07,3.83 1.51,-2.02 4.63,-6.06 6.18,-8.08 33.05,-17.17 45.21,-62.13 27.03,-93.99zm-685.83 -35.15c11.11,2.24 22.05,5.69 32.11,11.07 36.58,21.26 69.16,49.04 96.73,81.07 -5.43,0.55 -10.9,1.05 -16.33,1.56 -18.94,-23.49 -42.47,-42.47 -65.75,-61.37 -14.77,-11.95 -32.45,-19.74 -46.76,-32.33zm-202.25 0.34c24.33,-5.3 50.55,-0.76 72.27,11.03 13.51,10.61 27.03,24.54 28.79,42.51 -21.97,-22.77 -52.9,-32.12 -82.58,-40.03 -6.73,-3.58 -12.5,-8.79 -18.48,-13.51zm267.7 -7.49c9.85,-8.21 19.45,-16.71 29.17,-25.09 -0.04,9.09 0.34,18.4 -2.19,27.28 -5.09,10.56 -16.37,15.99 -26.22,21.3 -0.34,-7.83 -0.63,-15.66 -0.76,-23.49zm823.25 -42.72c4.8,-3.92 10.06,-7.28 15.91,-9.47 -1.6,2.06 -4.88,6.18 -6.52,8.25 2.95,0.71 8.84,2.06 11.83,2.73 -14.15,6.99 -30.14,9.22 -43.82,16.97 -2.95,18.43 -0.38,38.59 -11.49,54.88 -1.64,2.02 -4.97,6.15 -6.61,8.17 -5.98,7.82 -12.37,16.54 -12.08,26.85 4.97,8.04 12,14.56 19.03,20.83 -11.28,-2.27 -24.8,-8.37 -26.9,-20.87 7.11,-19.95 20.92,-36.71 28.03,-56.66 2.23,-12.24 -0.12,-24.83 0.76,-37.2 9.51,-7.03 20.75,-10.86 31.86,-14.48zm-750.18 0.63c16.58,-0.42 34.47,-3.75 45.37,-17.55 -9.13,15.7 -29.16,15.86 -44.82,19.61 21.93,40.45 54,78.88 98.24,95.42 -40.28,-3.45 -72.15,-33.34 -97.53,-62.38 -9.55,-9.47 -0.97,-23.57 -1.26,-35.1zm-37.33 4.46c8.37,-17.26 15.82,-34.98 20.83,-53.54 5.05,29 -6.19,57.2 -19.49,82.29 -1.22,-9.51 -2.14,-19.15 -1.34,-28.75zm-250.15 -111.25c6.65,0.93 13.26,1.9 19.87,2.87 -47.57,17.17 -102.24,32.36 -131.58,77.11 -17.72,24.62 -19.07,56.9 -11.07,85.31 -4.42,2.7 -8.8,5.48 -13.21,8.21 -1.73,36.75 3.28,76.1 26.98,105.73 18.18,25.26 49.54,36.12 79.34,39.19 -1.65,4.93 -5.35,9.72 -4.42,15.19 18.94,13.31 41.37,20.67 63.6,26.4 18.18,4.75 37.12,2.27 55.6,4.41 12.75,3.71 23.06,13.18 36.07,16.29 11.15,2.7 22.64,3.62 34.01,4.97 -4.72,4.67 -9.43,9.3 -14.1,13.98 5.26,16.62 11.91,33.58 24.92,45.75 24.16,23.36 58.84,31.61 91.63,31.19 1.93,4.8 3.79,9.64 5.68,14.52 -32.66,4.71 -68.61,2.9 -96.51,-16.54 -23.28,-15.03 -37.76,-39.53 -48.03,-64.57 9.13,-2.86 18.18,-6.86 23.36,-15.41 -19.95,4.59 -39.99,-2.69 -53.92,-17.13 -4.58,9.31 -15.15,5.69 -23.32,5.52 -43.64,-5.73 -90.53,-14.23 -124.42,-44.49 -6.14,-4.17 5.18,-5.9 7.24,-8.76 -24.96,-2.44 -49.79,-10.35 -71.68,-22.68 -22.09,-12.97 -23.57,-40.92 -26.56,-63.6 -4.88,-39.86 4.21,-79.43 4.55,-119.2 2.99,-26.52 11.15,-53.97 29.97,-73.75 30.47,-30.77 72.98,-48.19 116,-50.51zm1071.29 8.59c2.07,-11.07 15.54,-12.12 23.91,-16.5 -18.01,20.79 -16.41,50.38 -17.51,76.19l-3.37 3.7 -3.36 -3.83c-2.61,-19.7 -7.16,-40.32 0.33,-59.56zm384.38 -57.96c7.7,8.17 15.61,16.25 23.61,24.16 -19.28,102.41 -80.56,198.46 -170.72,252.46 0.29,-4.59 0.88,-13.76 1.18,-18.35 24.16,-20.41 49.75,-39.52 69.57,-64.53 34.98,-41.88 56.66,-93.14 71.14,-145.29 4.12,-15.7 9.13,-32.16 5.22,-48.45zm-365.14 10.1c15.36,-4.71 26.35,-17.97 41.84,-22.56 -16.8,34.81 -58.97,41.63 -93.7,41.88 7.33,-6.23 14.31,-12.88 21.55,-19.23 9.98,0.75 20.42,3.11 30.31,-0.09zm119.66 -30.56c3.58,5.18 7.16,10.4 10.1,16 -22.3,63.94 -42.17,129.76 -78.11,187.68 -16.59,25.76 -30.56,53.84 -52.83,75.39 4.84,0.88 9.64,1.81 14.44,2.86 -10.61,1.43 -21.26,-0.42 -31.86,-0.63 34.89,-39.06 60.73,-85.24 83.34,-132.21 22.43,-48.03 42.34,-97.52 54.92,-149.09zm-1101.51 -11.02c6.23,0.04 12.46,0.59 18.69,1.01 -36.96,8.92 -73.45,21.25 -105.57,41.96 -11.07,1.01 -22.26,0.93 -33.37,1.6 36.02,-23.86 78.83,-34.43 120.25,-44.57zm846.11 -17.3c12.71,63.39 6.23,131.78 -23.95,189.53 -17.18,34.77 -40.79,67.73 -74.76,87.72 8.84,-7.54 16.76,-16.25 23.36,-25.84 25.47,-38.31 46.68,-79.89 58.47,-124.51 10.82,-41.37 15.87,-84.18 16.88,-126.9zm-191.6 0.8c3.24,-4.17 6.73,-8.13 10.52,-11.83 -4.12,28.12 -4.54,60.53 -27.02,81.24 0.29,-3.03 0.8,-9.1 1.09,-12.13 13.26,-16.12 12.67,-37.71 15.41,-57.28zm-228.81 -29.97c1.56,1.22 4.76,3.7 6.36,4.97 -2.15,21.42 -4.17,42.84 -6.19,64.31 -14.14,-21.21 -4.21,-46.55 -0.17,-69.28zm-409.24 -36.2c36.07,-21.76 79.93,-22.01 120.59,-18.22 23.74,4.16 46.68,12.29 67.68,24.07 -37.46,-15.95 -80.14,-20.71 -119.96,-11.07 -51.73,6.95 -94.79,44.03 -119.88,88.35 -9.21,0.8 -18.43,1.47 -27.69,2.06 22.73,-31.4 45.96,-64.19 79.26,-85.19zm179.77 -39.65c12.83,-1.05 23.23,-9.26 34.43,-14.82 2.06,7.58 4.25,15.12 5.97,22.82l-1.18 3.03c-15.74,4.29 -31.86,6.86 -47.47,11.45 -6.11,-3.24 -11.87,-7.07 -17.26,-11.37 8,-4.71 15.99,-10.06 25.51,-11.11zm470.36 -23.32c7.83,-1.51 15.66,-3.2 23.44,-4.88 -1.89,14.44 2.02,28.2 6.61,41.71 -4.8,16.54 -10.69,32.79 -17.42,48.66 -8.25,21.13 -35.53,29.13 -37.72,53.45 -2.4,7.71 -6.02,14.95 -9.97,21.98 1.01,-15.07 3.58,-30.02 7.91,-44.49 1.77,-10.15 11.58,-15.2 18.27,-21.85 15.36,-12.25 18.27,-32.87 26.35,-49.71 10.44,-14.64 -7.37,-26.35 -13.56,-38.68 -0.96,-1.51 -2.94,-4.63 -3.91,-6.19zm-249.98 2.49c5.18,-11.96 11.91,-23.28 13.81,-36.54 7.2,3.5 14.65,6.44 22.05,9.47l0.55 2.7c-5.43,11.28 -11.19,22.43 -18.01,33l-1.27 0.84c-1.81,1.13 -5.43,3.41 -7.24,4.59 -2.61,15.4 -3.83,31.56 -0.16,46.93 4.88,12.16 17,19.19 24.37,29.67 1.09,19.7 -4.42,39.1 -8.25,58.3 -1.94,-6.44 -3.83,-12.88 -5.1,-19.49 2.95,-10.52 5.18,-21.22 4.93,-32.16 -11.28,-8.37 -23.15,-19.02 -25.13,-33.8 -3.03,-21 -2.9,-42.43 -0.55,-63.51zm-136.62 -15.37c32.87,-11.74 67.55,-18.22 101.94,-23.73 1.18,1.64 3.58,4.88 4.8,6.48 -5.05,1.09 -10.06,2.19 -15.03,3.24 -0.46,5.51 -0.84,11.03 -1.18,16.54 -26.98,4.97 -54.38,9.43 -79.55,20.92 0.38,2.06 1.18,6.27 1.56,8.33 -4.21,-10.6 -8.84,-21 -12.54,-31.78zm690.49 -42.47c26.69,5.52 56.41,19.32 63.65,48.16 -15.41,-16.55 -34.73,-29.09 -57.46,-32.5 -2.1,-5.18 -4.16,-10.44 -6.19,-15.66zm46.52 -4.46c24.11,-0.33 47.73,8.25 65.66,24.42 -1.01,5.68 -2.07,11.36 -3.08,17.04 -12.37,-10.35 -27.86,-15.15 -43.64,-17.13 -4.59,-9.34 -11.37,-17.26 -18.94,-24.33zm112.59 -21.72c15.19,16.67 25.04,37.38 37.92,55.86 7.41,13.13 19.74,25.34 18.9,41.46 0.59,67.38 -0.21,134.77 0.59,202.16 0,17.51 0.76,35.1 -1.81,52.53 -7.53,-17.18 -10.1,-35.99 -17.26,-53.33 -14.27,-36.62 -31.65,-72.69 -56.9,-103.12 -2.78,-4.34 -7.24,-8.34 -6.95,-13.89 -2.57,-61.45 8.67,-122.78 25.51,-181.67zm-380.5 1.39c25.67,6.02 51.56,16.88 69.45,36.96 -0.3,2.19 -0.8,6.52 -1.06,8.71 -20.24,-16.46 -45.75,-25.67 -71.93,-24.41 1.1,-7.11 2.32,-14.19 3.54,-21.26zm31.36 -16.41c41.58,-12.55 89.52,-11.54 126.65,12.96 41.5,25.21 68.35,75.76 57.87,124.42 -3.45,-28.66 -14.39,-56.86 -34.68,-77.82 -20.37,-22.23 -48.53,-35.53 -77.2,-43.4 -17.38,-4.55 -35.48,-2.78 -53.2,-3.75 -6.65,-3.91 -12.96,-8.25 -19.44,-12.41zm358.27 -27.11c36.41,-21.84 81.7,-24.92 122.61,-15.87 20,108.89 51.86,216.18 99.76,316.23 -62.26,-66.33 -120.72,-136.5 -171.48,-212.05 -18.31,-28.62 -37.55,-56.95 -50.89,-88.31zm48.45 3.24l0 0c-12.84,5.9 -21.55,21.76 -14.15,35.06 14.36,26.14 51.44,36.58 77.66,22.65 8.08,-4.72 13.43,-13.47 14.69,-22.73 -5.76,-33.76 -49.58,-48.28 -78.2,-34.98z"/>
   <path class="fil1" d="M1289.66 915.75c-24.36,-18.24 -61.07,-32.3 -71.27,-58.78 12.75,5.64 25.84,10.73 39.73,12.71 -6.44,-18.06 -26.43,-21.89 -42.85,-26.05 -9.47,-3.33 -19.36,1.22 -26.47,7.4 -0.63,6.95 0.04,13.98 -0.76,20.92 -3.32,5.52 -9.26,8.84 -14.77,11.74 -10.19,-2.02 -16.08,-11.65 -23.07,-18.39 -5.6,1.81 -11.32,3.37 -16.67,5.98 -7.03,10.31 -9.26,25.97 -23.4,29.25 -11.91,-0.76 -15.45,-12.37 -18.81,-21.68 -5.94,0.13 -11.83,0.26 -17.72,0.43 -9.05,12.16 -18.57,23.9 -27.66,35.98 -5.13,6.44 -5.26,16.12 -7.74,23.78 -6.4,12.17 -11.33,25.72 -21.43,35.44 -12.83,5.35 -27.52,3.71 -41.03,2.28 -16.04,-1.9 -28.5,-12.97 -42.73,-19.36 -10.86,-0.93 -21.34,3.66 -31.73,6.1 -4.68,6.73 -9.39,13.43 -14.15,20.08 -23.74,5.59 -45.96,18.26 -71.17,17.88 -28.29,35.74 -83.42,33.47 -119.75,11.75 0.46,77.11 1.22,154.34 -0.29,231.41 -1.01,-71.76 -0.42,-143.53 -0.42,-215.29 1.76,-16.75 -12.21,-27.95 -21.85,-39.48 -23.15,0 -46.55,-2.57 -68.19,-11.32 -23.02,-7.5 -39.77,-25.6 -58.29,-40.16 -21.6,0.72 -43.61,-1.98 -64.65,4.17 -2.02,-1.56 -4.04,-3.03 -6.07,-4.51 23.24,-0.63 46.52,-0.71 69.75,-0.67 -13.09,-17.43 -22.52,-37.42 -26.69,-58.84 -66.33,3.32 -140.54,-7.28 -189.19,-56.78 -32.54,-6.78 -65.79,-28.12 -73.54,-62.42 -10.52,-44.32 -6.14,-90.83 3.92,-134.82 -0.84,-31.06 -0.21,-63.85 16.58,-91.17 15.49,-28.7 44.49,-46.21 74,-57.66 23.95,-32.54 51.39,-69.33 94.57,-75.3 10.02,-47.86 44.24,-87.89 87.39,-109.69 45.12,-23.19 99.71,-33.25 148.91,-17.64 14.14,-13.89 33.08,-21.84 52.95,-22.18 54.17,-39.94 121.56,-57.66 187.81,-63.14 -8.59,-28.32 -7.49,-59.77 2.69,-87.59 6.53,-18.85 24.17,-29.67 35.23,-45.37 22.86,-29.04 58.6,-44.32 94.29,-50.09 35.06,-5.3 71.59,-7.66 106.24,1.56 40.32,13.01 79.46,36.2 103.71,71.81 8.92,18.09 19.06,35.69 25.8,54.8 61.62,-22.86 135.36,-17.51 189.32,21.68 16.38,-0.85 32.62,1.68 47.19,9.42 34.43,-2.48 71.51,-3.87 101.31,16.76 4.8,-20.97 11.83,-41.42 19.53,-61.5 3.11,-7.41 6.14,-15.87 13.85,-19.74 22.43,-14.39 49.5,-16.88 75.25,-20.29 26.61,-2.61 54.01,-3.62 79.85,4.42 15.32,67.35 29.13,135.28 50.85,200.99 17.13,52.48 36.62,104.21 59.93,154.26 2.32,4.59 2.74,9.34 1.23,14.35 -23.32,114.24 -99.09,216.64 -202.42,271.02 4.29,-57.24 -2.06,-115.03 -18.48,-170 -13.76,21.72 -29.97,42.22 -50.04,58.51 6.94,24.87 4.46,50.8 -0.97,75.67 3.49,26.77 3.53,55.27 -7.66,80.4 -6.82,15.36 -22.02,24.91 -37.72,29.29 -14.14,22.18 -28.87,51.48 -58.63,53.5 -9.26,16.37 -21.46,32.24 -40.53,37.16 -10.06,12.21 -26.56,15.96 -36.62,27.24 -17.76,0.46 -35.57,0.38 -53.37,0.04 0.67,-2.48 1.98,-7.49 2.65,-9.97 0.51,-1.73 1.56,-5.22 2.06,-6.99 0.89,-2.91 1.73,-5.81 2.57,-8.71 -9.05,-2.78 -17.89,-6.11 -26.6,-9.69 -4.46,11.83 -8.5,23.83 -12.8,35.7 -4.16,0 -8.33,0.04 -12.46,0.08 3.33,-14.69 8.89,-28.66 14.57,-42.59 -5.43,-5.14 -11.7,-9.77 -14.73,-16.76 -0.09,-10.56 4.37,-20.41 7.66,-30.22 -12.84,-22.94 9.13,-44.32 8.46,-67.34 1.43,-16.38 8.63,-31.49 16.58,-45.59 -7.45,-8.16 -17.42,-18.01 -13.76,-30.18 5.59,-17.97 19.78,-31.94 25.25,-50 1.56,-14.65 -6.27,-30.73 2.53,-44.28 8.25,-9.89 23.44,-8.04 32.07,-17.3 8.88,-8.71 19.11,-15.82 29.88,-22.05 -8.88,-23.11 -10.9,-48.03 -7.66,-72.44 -24.16,1.26 -47.43,-6.19 -68.56,-17.34 -2.32,22.68 -2.27,45.92 -8.92,67.97 -13.26,51.82 -46.35,99.46 -93.19,126.19 1.97,22.9 4.16,46.85 -5.94,68.31 -9.17,24.71 -32.16,41.08 -54.93,52.41 -6.44,2.06 -6.61,9.59 -8.88,14.9 -4.67,15.61 -12.29,30.09 -18.1,45.24 16.42,4.47 33.3,9.05 47.65,18.48 1.6,7.96 0.88,16.12 1.09,24.2 8.59,5.06 18.1,9.22 25.13,16.5 2.23,6.95 -0.04,14.4 -4.7,21.2zm-592.4 -108.49c9.64,2.73 19.2,5.81 28.62,9.22 -9.8,11.61 -23.02,0.54 -28.62,-9.22zm355.21 -6.15c-10.86,-6.77 0.08,-25 11.36,-18.73 7.41,2.15 5.14,11.07 6.52,16.92 -5.59,0.89 -13.42,8.25 -17.88,1.81zm-295.69 -27.61c13.38,-12.46 38.51,-17.42 52.19,-3.2 -17.47,0.25 -34.93,0.34 -52.19,3.2zm88.01 -43.77c13.93,-14.06 36.91,-11.33 51.9,-0.55 -17.3,-0.3 -34.6,0.51 -51.9,0.55zm250.9 -16.97c1.06,1.23 3.16,3.71 4.21,4.93 3.45,23.74 1.43,48.28 -7.78,70.54 -7.12,15.79 -3.46,34.9 -14.74,48.95 1.18,-19.23 -1.51,-39.39 6.49,-57.53 8.16,-21.43 9.21,-44.41 11.82,-66.89zm-63.81 -20.7c0.26,-3.88 1.98,-7.08 5.22,-9.52 3.45,21.98 2.44,46.68 -8.54,66.34 -1.43,-19.03 1.85,-37.93 3.32,-56.82zm38.14 -14.15c14.6,-7.11 20.62,19.83 6.02,21.01 -12.63,3.57 -18.69,-17.3 -6.02,-21.01zm364.42 -24.41c13.38,2.99 29.59,2.52 39.69,13.17 0.17,9.98 -4.88,18.9 -9.09,27.66 0.63,-7.41 1.89,-14.69 2.23,-22.1 -12.04,-6.82 -26.01,-8.5 -39.44,-10.56 1.64,-2.02 4.97,-6.15 6.61,-8.17zm-1038.38 -9.64c29.68,7.91 60.61,17.26 82.58,40.03 5.05,5.94 6.49,13.72 7.92,21.17 -24.12,-11.53 -46.6,-26.09 -70.46,-38.09 -9.98,-4.25 -14.36,-14.69 -20.04,-23.11zm729.9 -0.67c24.49,12.29 51.01,21.34 78.66,22.22 -17.59,15.79 -42.68,7.96 -60.82,-2.48 -8.25,-4.17 -13.47,-11.96 -17.84,-19.74zm-162.22 46.76c36.28,-15.24 70.04,-35.9 100.93,-60.23 -7.15,14.65 -19.61,25.46 -30.18,37.5 -9.72,10.82 -22.01,19.66 -35.94,24.12 -11.49,3.49 -23.32,0 -34.81,-1.39zm113.85 -119.45c8.93,-9.3 24.25,6.99 14.4,15.7 -9.26,12.37 -28.5,-7.54 -14.4,-15.7zm-36.02 -17.6c12.62,6.57 10.52,22.31 10.81,34.18 -1.26,12.25 0.93,27.49 -9.93,36.07 -0.13,-23.44 2.57,-46.89 -0.88,-70.25zm72.14 -3.19c16.83,31.6 14.98,74.71 -6.9,103.58 1.09,-22.35 9,-43.82 8.75,-66.29 0.17,-12.46 -1.35,-24.84 -1.85,-37.29zm-66.63 -112.85c21.72,9.93 46.85,15.11 69.49,5.01 -6.06,11.62 -18.77,17.93 -31.69,15.15 -14.23,-2.69 -34.81,-1.68 -37.8,-20.16zm-468.13 -37c33.04,-2.82 63.09,15.28 89.65,32.79 12.58,7.7 19.28,21.55 18.9,36.11 -10.9,-16.62 -23.7,-35.52 -44.87,-39.1 -23.61,-3.58 -45,-15.4 -63.68,-29.8zm560.6 -64.14c7.79,3.61 14.48,9.09 18.69,16.71 -8.17,-3.16 -14.44,-9.22 -18.69,-16.71zm-121.43 10.06c7.24,-10.06 17.85,-16.97 30.01,-19.53 -8.71,8.29 -19.07,14.68 -30.01,19.53zm538.38 -82.21c20.33,-3.2 38.98,9.77 46.26,28.33 -12.54,-14.52 -33.42,-14.73 -46.26,-28.33zm-413.08 27.87c22.82,-11.45 43.15,-27.49 66.63,-37.76 6.19,12.33 24,24.04 13.56,38.68 -4.55,-5.38 -8.88,-10.94 -13.89,-15.91 -10.9,1.52 -19.7,9.18 -29.21,14.19 10.6,1.43 21.21,2.9 31.73,4.88 -1.09,2.19 -3.36,6.52 -4.46,8.67 -8.54,-3.03 -17.38,-5.01 -26.31,-6.44 -3.03,4.97 -5.8,10.06 -9.47,14.56 -7.95,3.71 -14.73,-1.85 -20.33,-6.82 -7.15,2.07 -14.26,4.17 -21.34,6.32 -5.8,-8.17 -10.35,-17.13 -12.96,-26.81 1.3,-0.8 3.87,-2.4 5.18,-3.2 4.92,6.23 12.08,14.06 20.87,9.64zm-148.66 -53.33c21.21,12.5 39.9,28.7 60.15,42.59 9.09,7.71 19.28,-2.82 27.95,-5.89 -3.12,9.43 -5.27,20.71 -14.57,26.22 -10.56,0.13 -19.36,-6.48 -28.54,-10.69 -2.48,1.6 -7.44,4.84 -9.97,6.44 -10.65,2.61 -15.15,-8.84 -18.9,-16.25 -5.98,1.35 -11.87,2.74 -17.8,4.09 -0.09,-2.32 -0.3,-7.03 -0.38,-9.35 7.41,-0.29 14.86,-0.54 22.31,-0.84 -7.16,-5.26 -14.36,-10.48 -21.55,-15.66 -5.9,5.73 -11.79,11.45 -17.72,17.09 -0.85,-5.47 -1.69,-10.94 -2.45,-16.41l1.27 -0.84c7.66,-5.86 13.84,-13.31 20.2,-20.5zm731.96 -111.04c28.62,-13.3 72.44,1.22 78.2,34.98 -1.26,9.26 -6.61,18.01 -14.69,22.73 -26.22,13.93 -63.3,3.49 -77.66,-22.65 -7.4,-13.3 1.31,-29.16 14.15,-35.06zm12.12 3.24l0 0c-13.64,2.02 -24.37,17.93 -16.58,30.69 12.62,24.83 59.72,35.44 71.84,5.22 2.32,-27.7 -32.07,-41.84 -55.26,-35.91zm-683.3 -111.45l0 0c-41.16,10.1 -85.91,29.29 -104.81,70.04 -13.42,17.34 -17.51,39.52 -14.43,60.94 8.84,-15.11 15.19,-31.94 28.07,-44.32 2.74,-0.04 8.17,-0.21 10.86,-0.25 -9.18,13.93 -19.45,27.91 -22.73,44.66 -2.4,13.17 -3.7,29.46 8.33,38.47 2.78,-29.26 12.67,-65.16 43.53,-76.02 -23.07,23.07 -33.13,56.57 -26.18,88.56 6.31,2.99 12.58,6.1 19.15,8.59 6.82,-3.5 4.29,-11.87 5.64,-18.02 1.93,-24.41 10.77,-51.56 34.64,-62.59 -15.53,24.16 -28.03,52.79 -22.01,82.08 9.17,15.32 31.39,24.12 47.51,17.97 2.74,-25.67 -2.06,-59.93 24.04,-75.59 -11.87,23.74 -10.86,51.56 -7.2,77.11 8.17,13.01 24.92,15.91 39.02,17.42 12.96,1.31 29.13,-5.3 31.48,-19.53 7.79,-21.59 7.03,-44.65 7.62,-67.21 18.1,24.36 9.09,56.23 2.57,83.08 11.66,-0.42 24.62,-2.14 32.49,-11.78 20.42,-20.12 11.12,-51.02 12,-76.36 1.35,-0.29 4.12,-0.96 5.51,-1.3 14.19,23.11 10.11,50.47 5.27,75.64 25.12,-9.52 31.31,-40.49 27.82,-64.28 -2.49,-12.67 -2.74,-27.4 -12.17,-37.16 -12.92,-8.46 -23.32,7.36 -33.08,13.72 -15.79,-1.68 -30.98,2.57 -46.17,5.89 -12.72,-1.98 -24.5,-8.46 -37.59,-8.29 -11.83,-0.76 -25.21,2.15 -34.64,-6.86 -12.21,-10.52 -29.63,-7.41 -42.98,-15.24 -7.66,-4.29 -15.74,-7.7 -24.11,-10.18 -6.91,-6.61 -13.64,-13.43 -20.34,-20.25 16.93,5.43 33.8,11.37 48.87,20.92 12.76,9.09 30.69,1.68 42.89,12.33 14.57,11.58 34.56,1.77 50.81,9.3 19.57,8.76 41.03,1.69 61.2,-0.5 15.06,-10.14 30.51,-20.84 49.16,-22.73 -3.2,5.77 -10.36,10.52 -9.93,17.6 4.04,10.77 15.23,17.34 18.09,28.78 4,15.66 3.03,32.16 5.69,48.07 15.61,-26.47 9.8,-59.89 -4.51,-85.65 5.98,4.29 12,8.5 18.14,12.54 -0.21,-17.3 -9.17,-32.75 -19.15,-46.26 -17,-24.49 -42.72,-41.79 -69.91,-53.2 -40.58,-15.4 -86.12,-22.69 -128.46,-10.14zm622.73 104.97l0 0c13.34,31.36 32.58,59.69 50.89,88.31 50.76,75.55 109.22,145.72 171.48,212.05 -47.9,-100.05 -79.76,-207.34 -99.76,-316.23 -40.91,-9.05 -86.2,-5.97 -122.61,15.87zm-48.23 232l0 0c3.45,7.88 9.47,14.23 14.14,21.39 60.31,89.95 95.75,197.02 96.43,305.66 -0.3,4.59 -0.89,13.76 -1.18,18.35 90.16,-54 151.44,-150.05 170.72,-252.46 -8,-7.91 -15.91,-15.99 -23.61,-24.16 -80.61,-88.43 -159.53,-180.06 -218.75,-284.57 -30.09,67.3 -41.63,142.43 -37.75,215.79zm-310.04 -204.89l0 0c6.48,4.16 12.79,8.5 19.44,12.41 10.82,10.65 23.78,24.33 18.65,40.96 -17.89,-20.08 -43.78,-30.94 -69.45,-36.96 -1.22,7.07 -2.44,14.15 -3.54,21.26l-1.94 -0.09c-1.64,7.24 -6.06,14.9 -2.23,22.19 9.6,23.48 15.07,48.44 24.54,71.93 16.12,30.6 28.67,63.05 36.16,96.81 -3.45,-0.04 -10.35,-0.21 -13.81,-0.3 3.08,61.71 -0.88,124.97 -22.51,183.39 -34.27,84.44 -78.92,164.16 -126.53,241.69 -8.16,12.29 -3.87,27.57 -0.21,40.66 9.81,-5.01 20.54,-9.18 28.37,-17.18 8.75,-11.23 10.61,-26.01 14.65,-39.27 -8.04,4.97 -16,10.11 -24.5,14.19 11.36,-14.86 25.93,-27.28 34.26,-44.37 1.81,0.22 5.43,0.68 7.28,0.89 -1.55,2.02 -4.67,6.06 -6.18,8.08 1.76,-0.97 5.3,-2.9 7.07,-3.83 16.62,-9.34 34.05,-20.12 43.01,-37.63 7.45,-18.9 6.11,-40.11 4.63,-60.06 -6.31,0.25 -12.58,1.43 -18.73,-0.3 7.24,-1.68 12.55,-8.21 18.52,-12.33 33.97,-19.99 57.58,-52.95 74.76,-87.72 30.18,-57.75 36.66,-126.14 23.95,-189.53 -1.1,-6.53 -2.74,-12.92 -4.13,-19.41 10.86,17.94 19.57,37.04 26.22,56.91 16.17,-1.3 31.49,-6.82 47.19,-10.44 -12.88,12.67 -28.03,23.36 -45.71,27.99 1.56,16.04 21.76,14.65 33.21,20.12 19.53,-13.26 39.48,-26.98 53.79,-46.13 26.81,-33.76 33.97,-79.26 28.33,-121.14 -8.21,32.88 -19.58,67.98 -48.15,88.94 11.61,-27.23 26.34,-54.04 28.11,-84.35 10.48,-48.66 -16.37,-99.21 -57.87,-124.42 -37.13,-24.5 -85.07,-25.51 -126.65,-12.96zm236.55 36.74l0 0c7.57,7.07 14.35,14.99 18.94,24.33 0.88,10.06 1.09,20.16 0.25,30.22l-2.06 -1.93c-7.24,-28.84 -36.96,-42.64 -63.65,-48.16 2.03,5.22 4.09,10.48 6.19,15.66 3.87,14.1 7.49,28.33 8.38,42.94 0.21,21.46 11.15,41.2 10.1,62.88 3.07,44.45 -15.7,87.5 -43.61,121.18 -7.24,6.35 -14.22,13 -21.55,19.23 34.73,-0.25 76.9,-7.07 93.7,-41.88l1.51 -0.54c6.06,-12.63 9.39,-26.19 11.7,-39.91 12.46,39.11 -18.6,75.68 -50.38,94.37 -8.37,4.38 -21.84,5.43 -23.91,16.5 -7.49,19.24 -2.94,39.86 -0.33,59.56l3.36 3.83 3.37 -3.7c18.56,1.09 35.32,9.38 52.24,16.24 32.7,-52.36 48.82,-113.1 61.37,-172.95 4.29,-11.45 -9.31,-18.31 -8.97,-29.25 -2.44,-42.35 -1.26,-85.32 5.93,-127.16 1.01,-5.68 2.07,-11.36 3.08,-17.04 -17.93,-16.17 -41.55,-24.75 -65.66,-24.42zm-737.01 46.93l0 0c3.7,10.78 8.33,21.18 12.54,31.78 9.68,25.68 16.37,52.41 26.85,77.74 14.27,-34.89 32.83,-67.97 55.48,-98.15 -0.51,-2.32 -1.56,-6.95 -2.06,-9.26l-2.28 0.42c0.34,-5.51 0.72,-11.03 1.18,-16.54 4.97,-1.05 9.98,-2.15 15.03,-3.24 -1.22,-1.6 -3.62,-4.84 -4.8,-6.48 -34.39,5.51 -69.07,11.99 -101.94,23.73zm136.62 15.37l0 0c-2.35,21.08 -2.48,42.51 0.55,63.51 1.98,14.78 13.85,25.43 25.13,33.8 0.25,10.94 -1.98,21.64 -4.93,32.16 -1.93,-9.26 -3.28,-18.61 -5.3,-27.82 -1.6,-1.27 -4.8,-3.75 -6.36,-4.97 -4.04,22.73 -13.97,48.07 0.17,69.28 3.79,3.87 7.62,7.75 11.49,11.62 2.74,-5.43 5.52,-10.82 8.34,-16.21 1.05,17.51 0,38.26 13.59,51.52 3.24,-10.56 5.05,-21.72 9.94,-31.65 14.22,-18.77 34.93,-31.1 55.39,-41.96 -6.27,-1.52 -12.59,-2.99 -18.9,-4.38 2.15,-5.9 4.67,-11.66 7.91,-17.09 -0.04,2.69 -0.08,8.08 -0.08,10.77 11.91,0.13 20.41,7.92 27.4,16.8 5.56,0.25 11.19,0.46 16.79,0.67 6.7,-9.05 16.8,-12.2 27.74,-9.85 0.51,-2.44 1.56,-7.36 2.06,-9.85 1.05,5.43 2.02,10.82 3.37,16.17 -7.74,0.38 -15.53,0.5 -23.23,0.88 13.97,15.49 33.33,26.52 42.47,46.01 4.42,12.66 3.24,26.39 4.08,39.56 7.91,-13.01 13.55,-27.19 19.19,-41.29l5.68 -3.75c-0.29,3.03 -0.8,9.1 -1.09,12.13 22.48,-20.71 22.9,-53.12 27.02,-81.24 -3.79,3.7 -7.28,7.66 -10.52,11.83 -4.38,3.24 -8.71,6.52 -13.01,9.8 2.19,-24.32 29.47,-32.32 37.72,-53.45 6.73,-15.87 12.62,-32.12 17.42,-48.66 -4.59,-13.51 -8.5,-27.27 -6.61,-41.71 -7.78,1.68 -15.61,3.37 -23.44,4.88l-1.94 -3.15c-10.6,6.27 -22.18,12.37 -34.89,11.65 -9.64,-0.58 -19.28,-2.23 -28.92,-0.88 3.2,8.71 6.53,17.34 9.39,26.18 -14.44,-7.66 -24.75,-23.4 -42.09,-24.62 0.72,6.27 1.43,12.54 2.23,18.81 -19.07,-6.98 -24.67,-31.82 -45.5,-34.55 2.48,10.23 5.89,20.29 10.23,29.92 -14.86,-4.58 -25.17,-16.08 -30.81,-30.13 -16.71,-3.41 -30.18,-16.97 -47.78,-16.12l-3.49 1.01 -0.55 -2.7c-7.4,-3.03 -14.85,-5.97 -22.05,-9.47 -1.9,13.26 -8.63,24.58 -13.81,36.54zm-38.51 -26.23l0 0c3.45,17.98 14.27,33.72 15.78,52.24 -4.37,-7.2 -8.58,-14.48 -13.21,-21.51 0.38,18.06 0,37.17 9.68,53.2 4.71,-4.12 13.38,-6.9 10.9,-14.94 -2.27,-20.41 -2.61,-41.12 -6.4,-61.33 -1.43,-7.87 -10.73,-7.36 -16.75,-7.66zm342.24 27.78l0 0c-11.32,23.79 -21.76,47.9 -27.53,73.7 2.32,2.11 6.91,6.23 9.22,8.34 13.38,-12.67 14.44,-31.78 17.3,-48.83 -3.7,3.67 -11.07,10.99 -14.73,14.65 4.12,-16.83 16.79,-29.21 23.57,-44.78 -1.94,-0.8 -5.89,-2.32 -7.83,-3.08zm-524.11 19.28l0 0c-9.52,1.05 -17.51,6.4 -25.51,11.11 5.39,4.3 11.15,8.13 17.26,11.37 14.85,9.93 28.15,22.14 38.55,36.74 -7.24,-4.63 -14.18,-9.72 -21.8,-13.72 -21,-11.78 -43.94,-19.91 -67.68,-24.07 -40.66,-3.79 -84.52,-3.54 -120.59,18.22 -33.3,21 -56.53,53.79 -79.26,85.19 9.26,-0.59 18.48,-1.26 27.69,-2.06 11.71,-0.42 23.41,-0.84 35.11,-0.46 -41.42,10.14 -84.23,20.71 -120.25,44.57 11.11,-0.67 22.3,-0.59 33.37,-1.6 53.63,2.23 110.16,8.5 156.24,38.43 36.79,26.06 68.65,65.54 71.47,112.17l0.64 -1.47c-0.8,9.6 0.12,19.24 1.34,28.75 13.3,-25.09 24.54,-53.29 19.49,-82.29 1.31,-10.48 -4.25,-20.37 -7.15,-30.22 14.18,10.65 20.91,27.15 22.77,44.41 27.14,-13.94 42.76,-42.01 54.76,-68.87 1.43,23.36 -5.81,48.16 -23.07,64.57 -9.22,9.81 -22.06,14.69 -32.16,23.4 17.26,2.15 33.84,-2.69 48.28,-11.91 -0.38,2.53 -1.18,7.58 -1.56,10.15 -10.9,13.8 -28.79,17.13 -45.37,17.55 0.29,11.53 -8.29,25.63 1.26,35.1 25.38,29.04 57.25,58.93 97.53,62.38 5.26,1.01 10.6,1.68 15.91,2.4 -19.28,8.12 -40.91,5.47 -60.65,0.59 -27.83,-7.62 -55.14,-20.33 -75.01,-41.84 -9.43,9.39 -20.5,16.75 -32.07,23.23 21.29,17.51 45.45,32.67 64.02,53.71 35.39,-12.92 72.69,-20.58 110.32,-23.19 -1.39,-45.96 -8.38,-91.42 -11.03,-137.26 -7.16,-49.92 -11.28,-100.22 -21.43,-149.67 -7.19,-43.82 -18.81,-86.71 -30.18,-129.6l-0.84 2.19c-1.72,-7.7 -3.91,-15.24 -5.97,-22.82 -11.2,5.56 -21.6,13.77 -34.43,14.82zm118.82 121.64l0 0c19.19,-0.46 38.38,0.51 57.37,3.5 -0.34,10.86 -1.43,21.63 -2.49,32.41 11.92,-0.13 23.83,0.33 35.61,2.14 -8.04,-25.17 -1.01,-51.47 2.23,-76.81 0.85,-9.89 4.68,-20.92 -1.05,-29.97 0.3,-4.55 1.14,-9.05 2.02,-13.51 -3.49,1.01 -6.73,2.61 -9.72,4.67 -6.44,-1.64 -15.49,-1.68 -17.38,-9.76 -5.43,-15.32 -2.57,-32.08 -4.8,-47.95 -29.72,39.99 -48.83,87.43 -61.79,135.28zm419.52 -132.67l0 0c-15.66,21.51 -11.54,49.54 -22.61,72.78 -4.25,10.23 -15.95,6.65 -24.2,5.22 -17.84,20.62 -11.07,49.2 -17.3,73.78 -2.94,30.94 -17.21,59.73 -35.82,84.18 -21.04,20.92 -49.5,32.79 -77.02,42.73 -15.87,1.34 -32.37,0.54 -47.86,-3.29 -26.31,-13.09 -51.52,-29.29 -72.69,-49.83 -12.8,-12.12 -19.82,-28.46 -28.16,-43.61 -15.07,-8.54 -33.5,-4.8 -49.71,-2.02 1.26,-12.04 2.44,-24.12 3.62,-36.15 -10.27,-1.22 -20.62,-1.94 -30.98,-1.98 19.79,96.22 14.69,195.55 8.17,292.99 20.66,3.03 41.37,8.8 62.42,5.77 20.54,-0.93 45.42,-0.59 60.1,15.99 14.99,18.94 5.94,44.91 16.71,65.37 4.89,15.74 21.55,22.14 32.08,33.46 14.94,14.9 32.49,35.19 23.86,57.79 7.71,-0.84 15.45,-1.68 23.15,-2.57 20.79,-32.24 49.38,-59.22 65.62,-94.36 32.75,-67.26 62.3,-136.17 88.48,-206.29 22.6,-60.06 25.04,-125.73 17.63,-188.9 -5.05,1.39 -10.06,2.69 -15.07,4.16 1.64,13.26 2.53,26.61 2.7,39.95 -16.29,4.75 -31.32,12.71 -47.14,18.73 7.74,-14.44 22.26,-22.31 36.61,-28.75 -1.85,-12.54 -4.79,-24.96 -5.38,-37.63 1.81,-5.68 9.47,-5.64 14.1,-8.12 20.83,-7.66 43.27,-6.4 65.03,-5.56 -10.95,-36.32 -24.25,-72.65 -46.34,-103.84zm366.94 144.37l0 0c-12.58,51.57 -32.49,101.06 -54.92,149.09 -22.61,46.97 -48.45,93.15 -83.34,132.21 10.6,0.21 21.25,2.06 31.86,0.63 31.99,-41.8 62.08,-85.32 84.81,-132.88 16.5,-34.6 32.66,-69.37 46.72,-105.02 -4.88,-9.43 -9.93,-18.73 -15.03,-28.03 -2.94,-5.6 -6.52,-10.82 -10.1,-16zm-572.43 21.93l0 0c9.76,6.53 20.83,9.05 32.07,4.59 -5.13,-4.96 -9.97,-10.27 -15.45,-14.81 -5.8,2.98 -11.15,6.73 -16.62,10.22zm-35.95 19.87l0 0c-5.47,8.97 -8.63,19.07 -11.99,28.96 7.57,-3.37 15.11,-6.73 22.68,-10.06 6.36,8.42 13.26,16.46 21.13,23.53 8.8,-5.64 16.13,-13.22 22.65,-21.34 5.81,9.89 13.26,18.73 22.31,25.84 4.46,-7.41 8.08,-15.28 10.35,-23.61 5.14,3.91 10.31,7.83 15.49,11.74 -1.09,-19.15 -11.66,-47.94 -35.86,-42.3 -15.11,4.89 -29.51,-2.65 -43.73,-6.9 -8.21,3.66 -18.14,5.81 -23.03,14.14zm-645.33 22.69l0 0c14.73,-0.59 29.67,-0.3 43.52,5.34 -43.02,2.32 -85.53,19.74 -116,50.51 -18.82,19.78 -26.98,47.23 -29.97,73.75 -0.34,39.77 -9.43,79.34 -4.55,119.2 2.99,22.68 4.47,50.63 26.56,63.6 21.89,12.33 46.72,20.24 71.68,22.68 -2.06,2.86 -13.38,4.59 -7.24,8.76 33.89,30.26 80.78,38.76 124.42,44.49 8.17,0.17 18.74,3.79 23.32,-5.52 13.93,14.44 33.97,21.72 53.92,17.13 -5.18,8.55 -14.23,12.55 -23.36,15.41 10.27,25.04 24.75,49.54 48.03,64.57 27.9,19.44 63.85,21.25 96.51,16.54 -1.89,-4.88 -3.75,-9.72 -5.68,-14.52 0.96,-3.41 2.9,-10.27 3.87,-13.72 5.85,24.28 23.19,43.26 42.81,57.74 -15.24,0.3 -25.64,-11.32 -35.32,-21.29 -2.99,2.65 -5.89,5.3 -8.79,7.99 12.12,13.22 26.26,25.97 44.4,29.76 18.98,5.72 37.88,-2.57 55.35,-9.17 13.05,-4.59 19.45,-18.19 14.98,-31.28 -8.37,-25.17 -24.24,-47.1 -39.9,-68.23 0.04,-13.8 2.23,-27.74 -0.42,-41.41 -4.33,-11.66 -15.49,-18.48 -24.07,-26.77 13.72,-0.93 25.04,7.57 33.75,17.17 6.32,14.6 3.12,30.51 3.5,45.88 11.15,13.13 22.56,26.22 30.6,41.63 5.51,12.79 10.69,25.84 12.71,39.73 14.48,-1.98 29.42,-3.54 43.01,-9.13 9.56,-5.01 21.26,-11.87 21.98,-23.91 3.78,-28.75 -8.46,-55.81 -19.66,-81.49 -3.12,-5.98 -4.97,-13.68 -12.12,-15.99 -3.24,-17.68 -3.92,-36.37 -12,-52.79 -5.64,-8.5 -15.4,-12.79 -23.53,-18.47 8.29,-0.34 17.22,-3.79 25.26,0 10.48,3.15 12.75,15.36 17.89,23.65 0.16,11.11 -0.89,22.35 0.42,33.42 15.02,23.95 29,48.7 38.21,75.55 -0.42,9.14 0.47,18.4 2.36,27.36 24.75,1.35 57.03,-9.68 59.73,-38.3 -0.63,-27.4 -10.19,-54.42 -23.28,-78.33 -13.09,-17.68 -8.29,-42.09 -20.45,-60.27 -5.64,-11.41 -18.78,-14.23 -28.92,-20.04 11.24,0.04 23.36,-1.6 33.8,3.45 9.26,4.42 12.5,14.82 16.79,23.32 1.27,10.94 1.35,22.01 -0.46,32.87 14.98,24.79 28.79,50.81 34.85,79.39 -0.55,10.23 0.97,20.49 1.6,30.72 15.66,-2.69 33.72,-6.77 42.47,-21.51 14.1,-31.9 0.55,-67.38 -12.29,-97.39l-7.24 3.24c-2.06,-22.14 3.28,-49.25 -13.72,-66.67 -20.12,-11.07 -44.28,-8.67 -66.42,-8 -31.69,-5.26 -63.52,-13.13 -95.93,-10.19 -26.77,3.16 -54.17,4.97 -79.8,14.02 9.51,2.27 18.02,7.2 25.09,13.93 -33.68,-9.64 -69.12,-5.72 -102.96,0.72 7.49,-6.44 16.38,-10.86 25.68,-14.06 5.43,-0.51 10.9,-1.01 16.33,-1.56 -27.57,-32.03 -60.15,-59.81 -96.73,-81.07l-2.65 -6.48c3.33,0.84 10.02,2.53 13.35,3.37 0.8,-39.86 -18.95,-77.99 -45.63,-106.66 -13.93,-15.74 -32.62,-25.76 -48.36,-39.4 28.28,6.78 54.97,20.71 75.51,41.46 24.83,23.11 36.78,56.53 41.12,89.49 0.13,7.83 0.42,15.66 0.76,23.49 9.85,-5.31 21.13,-10.74 26.22,-21.3 2.53,-8.88 2.15,-18.19 2.19,-27.28 -4.76,-41.5 -26.01,-82.79 -62.34,-104.97 -59.35,-37.21 -131.7,-50.55 -200.9,-43.9 -11.32,0.71 -16.54,12.75 -23.86,19.74zm1303.21 33.88l0 0c-14.27,29.63 -29.25,58.89 -44.61,87.93 1.72,2.27 5.09,6.86 6.77,9.17 19.45,-22.22 37.63,-46.42 46.47,-75 -3.07,-7.33 -5.85,-14.69 -8.63,-22.1zm-206.12 68.15l0 0c-5.85,2.19 -11.11,5.55 -15.91,9.47 -11.11,3.62 -22.35,7.45 -31.86,14.48 -0.88,12.37 1.47,24.96 -0.76,37.2 -7.11,19.95 -20.92,36.71 -28.03,56.66 2.1,12.5 15.62,18.6 26.9,20.87 14.81,1.1 30.6,-1.68 41.92,-12.03 24.71,-20.42 29.88,-55.1 27.44,-85.32 4.17,6.82 7.07,14.31 9.72,21.89 13.94,-19.03 26.52,-39.06 37.89,-59.73 -20.04,-12 -46.81,-17.59 -67.31,-3.49zm89.57 115.24l0 0c12.5,0.34 24.5,4.25 36.58,7.16 -13.97,6.9 -29.59,-2.99 -43.86,3.95 8.97,8.34 18.23,16.59 24.79,27.07 -10.69,-4.97 -19.11,-14.06 -30.64,-17.22 -20.37,-8.29 -42.6,-8.71 -64.06,-11.83 -11.79,19.11 -34.05,23.58 -54.21,28.58 0.16,1.52 0.5,4.51 0.67,6.02 -1.81,7.87 -6.02,16.46 -2.99,24.5 30.64,17.93 67.64,19.66 102.37,19.19 -0.47,-2.1 -1.35,-6.31 -1.82,-8.42 12.09,8.97 25.3,17.09 40.37,19.66 17.21,1.52 33.97,-5.56 48.36,-14.48 7.07,-14.77 10.44,-30.85 14.23,-46.68 3.37,-11.82 4.59,-25.55 -1.43,-36.79 -6.99,-14.47 -16.33,-30.3 -8.67,-46.59 5.64,8.55 9.59,18.06 13.84,27.36 3.33,-21.72 0.72,-44.2 -7.74,-64.48 -18.65,30.01 -39.48,59.14 -65.79,83zm-151.95 35.15l0 0c-7.57,13.13 -12.12,28.24 -13.55,43.27 4.51,18.1 21.51,29.71 37.21,37.67 19.19,12.29 41.42,18.94 64.02,21.25l-3.79 -9.26c16.12,8.38 32.16,20.63 51.06,20.88 16.2,-4.34 24.92,-21.64 28.58,-36.75l-4.04 3.79c-13.14,-3.53 -25.51,-9 -37.84,-14.52 -28.16,-1.68 -56.53,-3.7 -84.06,-10.52 -10.86,-3.96 -23.02,-7.2 -30.89,-16.25 -2.44,-12.75 0.12,-25.63 3.28,-38.01 -2.48,-0.38 -7.49,-1.18 -9.98,-1.55zm-20.66 65.4l0 0c-2.44,10.15 -9.14,20.21 -7.45,30.86 11.95,16.2 30.81,25.42 47.77,35.44 9.47,4.04 19.19,7.45 28.96,10.69l-1.22 -7.37c13.68,7.62 28.7,18.02 45.16,14.48 10.11,-5.72 18.98,-15.32 20.92,-27.1l-2.9 2.4c-6.69,-4.97 -13.68,-10.06 -22.48,-9.26 -41.42,-1.18 -78.75,-22.99 -108.76,-50.14zm-366.95 32.58l0 0c2.65,23.62 11.96,48.2 2.49,71.52 -9.22,25.08 -37.8,35.06 -62.55,34.85 -4.93,8.92 -13.98,14.39 -19.7,22.52 13.97,16.16 38.18,23.86 58.13,14.56 13.47,-18.69 13.97,-43.44 26.6,-62.59 8.88,-14.18 21.59,-26.6 25.63,-43.31 -1.6,-17.39 -19.57,-26.18 -30.6,-37.55zm97.57 41.5l0 0c6.56,-0.79 13.17,-1.68 19.74,-2.65 2.14,-12.71 4.38,-25.46 6.19,-38.22 -12.88,10.4 -22.27,24.63 -25.93,40.87zm260.96 -25.17l0 0c-4.88,27.62 26.22,41 48.82,41.46 15.07,12.25 38.18,24.75 54.51,7.16 -7.03,-5.05 -14.01,-10.14 -20.87,-15.45 -30.18,-2.73 -57.63,-16.58 -82.46,-33.17zm-225.56 20.5l0 0c-1.01,6.65 -1.27,13.39 -0.85,20.08 3.96,-0.17 7.92,-0.34 11.87,-0.55 1.39,-2.52 4.17,-7.62 5.52,-10.18 -1.18,-2.61 -3.54,-7.87 -4.72,-10.48 -3.95,0.38 -7.91,0.75 -11.82,1.13zm-63.35 36.24l0 0c4.12,0.21 8.25,0.47 12.42,0.72 6.18,-8.38 5.3,-17.09 -2.66,-23.78 -9.04,5.13 -13.72,12.75 -9.76,23.06z"/>
   <path class="fil2" d="M1002.5 50.76c32.92,-9.51 64.02,-26.77 99.13,-26.94 55.64,-0.5 110.15,22.69 152.28,58.38 9.98,13.51 18.94,28.96 19.15,46.26 -6.14,-4.04 -12.16,-8.25 -18.14,-12.54 14.31,25.76 20.12,59.18 4.51,85.65 -2.66,-15.91 -1.69,-32.41 -5.69,-48.07 -2.86,-11.44 -14.05,-18.01 -18.09,-28.78 -0.43,-7.08 6.73,-11.83 9.93,-17.6 -18.65,1.89 -34.1,12.59 -49.16,22.73 -20.17,2.19 -41.63,9.26 -61.2,0.5 -16.25,-7.53 -36.24,2.28 -50.81,-9.3 -12.2,-10.65 -30.13,-3.24 -42.89,-12.33 -15.07,-9.55 -31.94,-15.49 -48.87,-20.92 6.7,6.82 13.43,13.64 20.34,20.25 8.37,2.48 16.45,5.89 24.11,10.18 13.35,7.83 30.77,4.72 42.98,15.24 9.43,9.01 22.81,6.1 34.64,6.86 13.09,-0.17 24.87,6.31 37.59,8.29 15.19,-3.32 30.38,-7.57 46.17,-5.89 9.76,-6.36 20.16,-22.18 33.08,-13.72 9.43,9.76 9.68,24.49 12.17,37.16 3.49,23.79 -2.7,54.76 -27.82,64.28 4.84,-25.17 8.92,-52.53 -5.27,-75.64 -1.39,0.34 -4.16,1.01 -5.51,1.3 -0.88,25.34 8.42,56.24 -12,76.36 -7.87,9.64 -20.83,11.36 -32.49,11.78 6.52,-26.85 15.53,-58.72 -2.57,-83.08 -0.59,22.56 0.17,45.62 -7.62,67.21 -2.35,14.23 -18.52,20.84 -31.48,19.53 -14.1,-1.51 -30.85,-4.41 -39.02,-17.42 -3.66,-25.55 -4.67,-53.37 7.2,-77.11 -26.1,15.66 -21.3,49.92 -24.04,75.59 -16.12,6.15 -38.34,-2.65 -47.51,-17.97 -6.02,-29.29 6.48,-57.92 22.01,-82.08 -23.87,11.03 -32.71,38.18 -34.64,62.59 -1.35,6.15 1.18,14.52 -5.64,18.02 -6.57,-2.49 -12.84,-5.6 -19.15,-8.59 -6.95,-31.99 3.11,-65.49 26.18,-88.56 -30.86,10.86 -40.75,46.76 -43.53,76.02 -12.03,-9.01 -10.73,-25.3 -8.33,-38.47 3.28,-16.75 13.55,-30.73 22.73,-44.66 -2.69,0.04 -8.12,0.21 -10.86,0.25 -12.88,12.38 -19.23,29.21 -28.07,44.32 -3.08,-21.42 1.01,-43.6 14.43,-60.94 15.45,-14.82 30.98,-31.15 51.77,-38.14zm-917.57 1438.76l49.85 0 0 81.95 78.05 0 0 26.71 -127.9 0 0 -108.66zm249.74 0l49.85 0 0 64.72c0,6.4 -1.5,12.47 -4.47,18.17 -2.97,5.71 -7.63,10.69 -13.99,14.97 -6.35,4.27 -13,7.26 -19.96,9 -9.7,2.41 -21.35,3.62 -34.93,3.62 -7.85,0 -16.43,-0.38 -25.71,-1.11 -9.29,-0.74 -17.07,-2.2 -23.31,-4.4 -6.24,-2.2 -11.96,-5.31 -17.11,-9.36 -5.18,-4.05 -8.72,-8.22 -10.63,-12.52 -3.09,-6.91 -4.63,-13.03 -4.63,-18.37l0 -64.72 49.85 0 0 66.27c0,5.92 2.45,10.55 7.3,13.86 4.88,3.34 11.65,5.01 20.3,5.01 8.53,0 15.26,-1.65 20.15,-4.93 4.85,-3.27 7.29,-7.92 7.29,-13.94l0 -66.27zm82.34 0l65.82 0 25.08 66.12 25.15 -66.12 65.53 0 0 108.66 -40.83 0 0 -82.84 -31.5 82.84 -37 0 -31.43 -82.84 0 82.84 -40.82 0 0 -108.66zm213.57 0l93.5 0c15.56,0 27.52,2.6 35.87,7.79 8.34,5.18 12.52,11.61 12.52,19.27 0,6.43 -2.97,11.94 -8.95,16.52 -3.95,3.08 -9.78,5.49 -17.41,7.28 11.62,1.88 20.11,5.09 25.6,9.67 5.45,4.57 8.2,10.32 8.2,17.22 0,5.64 -1.96,10.7 -5.83,15.2 -3.91,4.51 -9.25,8.05 -15.97,10.68 -4.22,1.61 -10.53,2.8 -18.99,3.54 -11.24,0.98 -18.69,1.49 -22.37,1.49l-86.17 0 0 -108.66zm50.3 42.64l21.77 0c7.78,0 13.24,-0.91 16.28,-2.7 3.05,-1.82 4.59,-4.43 4.59,-7.85 0,-3.16 -1.54,-5.64 -4.59,-7.41 -3.04,-1.79 -8.38,-2.68 -15.94,-2.68l-22.11 0 0 20.64zm0 42.65l25.46 0c8.61,0 14.66,-1.04 18.19,-3.09 3.54,-2.05 5.3,-4.78 5.3,-8.24 0,-3.22 -1.73,-5.8 -5.22,-7.74 -3.5,-1.95 -9.63,-2.94 -18.39,-2.94l-25.34 0 0 22.01zm124.93 -85.29l133.54 0 0 23.22 -83.46 0 0 17.3 77.37 0 0 22.16 -77.37 0 0 21.39 85.94 0 0 24.59 -136.02 0 0 -108.66zm163.58 108.66l0 -108.66 83.16 0c15.41,0 27.22,0.88 35.34,2.68 8.16,1.77 14.74,5.08 19.74,9.89 5,4.83 7.48,10.72 7.48,17.65 0,6.02 -1.92,11.23 -5.75,15.61 -3.8,4.4 -9.07,7.94 -15.8,10.67 -4.24,1.72 -10.11,3.17 -17.51,4.3 5.94,1.35 10.26,2.66 12.97,4 1.8,0.89 4.47,2.81 7.97,5.72 3.46,2.91 5.79,5.16 6.95,6.75l24.25 31.39 -56.39 0 -26.66 -33.14c-3.38,-4.29 -6.39,-7.08 -9.02,-8.37 -3.61,-1.67 -7.71,-2.5 -12.26,-2.5l-4.39 0 0 44.01 -50.08 0zm50.08 -64.5l21.09 0c2.25,0 6.69,-0.51 13.23,-1.49 3.31,-0.43 6.01,-1.57 8.08,-3.42 2.11,-1.84 3.16,-3.94 3.16,-6.32 0,-3.52 -1.65,-6.22 -4.96,-8.09 -3.31,-1.9 -9.51,-2.84 -18.65,-2.84l-21.95 0 0 22.16zm191.92 -44.16l50.07 0 0 59.01c0,12.39 -1.61,21.83 -4.88,28.3 -3.27,6.45 -9.85,11.94 -19.74,16.44 -9.89,4.48 -22.56,6.73 -37.97,6.73 -16.32,0 -28.95,-1.49 -37.9,-4.45 -8.98,-2.96 -15.9,-7.28 -20.79,-13 -4.88,-5.69 -7.78,-12.75 -8.64,-21.15l47.59 -4.35c0.08,4.76 0.72,8.3 1.88,10.6 1.17,2.33 3.16,4.17 5.98,5.62 1.92,0.93 4.62,1.39 8.16,1.39 5.6,0 9.7,-1.39 12.33,-4.18 2.59,-2.78 3.91,-7.48 3.91,-14.09l0 -66.87zm176.77 90.75l-56.54 0 -8.12 17.91 -50.94 0 60.79 -108.66 54.62 0 60.53 108.66 -52.26 0 -8.08 -17.91zm-10.56 -23.52l-17.64 -39.05 -17.7 39.05 35.34 0zm190.19 -3.04l43.76 8.88c-2.93,8.25 -7.56,15.15 -13.91,20.67 -6.31,5.54 -14.14,9.71 -23.53,12.52 -9.36,2.81 -21.28,4.22 -35.76,4.22 -17.59,0 -31.92,-1.72 -43.08,-5.13 -11.13,-3.44 -20.72,-9.49 -28.8,-18.11 -8.08,-8.63 -12.14,-19.71 -12.14,-33.16 0,-17.96 7.1,-31.77 21.31,-41.44 14.25,-9.63 34.37,-14.46 60.38,-14.46 20.34,0 36.36,2.75 48.01,8.29 11.62,5.54 20.3,14.04 25.94,25.52l-43.98 6.56c-1.54,-3.29 -3.16,-5.7 -4.85,-7.21 -2.83,-2.56 -6.25,-4.53 -10.27,-5.9 -4.06,-1.39 -8.57,-2.07 -13.57,-2.07 -11.35,0 -20.04,3.06 -26.05,9.16 -4.55,4.52 -6.85,11.66 -6.85,21.34 0,12.04 2.71,20.26 8.16,24.74 5.45,4.45 13.09,6.68 22.94,6.68 9.54,0 16.77,-1.8 21.65,-5.41 4.89,-3.6 8.42,-8.83 10.64,-15.69zm68.09 -64.19l49.85 0 0 41.05 52.29 -41.05 66.36 0 -58.95 40.82 61.65 67.84 -61.39 0 -34.06 -44.62 -25.9 18.16 0 26.46 -49.85 0 0 -108.66zm179.1 72.72l47.37 -2c1.01,5.16 3.12,9.1 6.27,11.79 5.16,4.37 12.49,6.57 22.04,6.57 7.1,0 12.59,-1.11 16.43,-3.36 3.87,-2.25 5.79,-4.86 5.79,-7.82 0,-2.81 -1.81,-5.33 -5.45,-7.56 -3.65,-2.23 -12.15,-4.3 -25.5,-6.3 -21.88,-3.29 -37.44,-7.69 -46.76,-13.18 -9.4,-5.46 -14.1,-12.44 -14.1,-20.94 0,-5.57 2.4,-10.83 7.22,-15.78 4.81,-4.99 12.03,-8.88 21.69,-11.72 9.66,-2.83 22.89,-4.24 39.7,-4.24 20.64,0 36.35,2.58 47.18,7.76 10.83,5.16 17.26,13.38 19.33,24.66l-46.92 1.88c-1.24,-4.94 -3.88,-8.53 -7.86,-10.75 -4.02,-2.26 -9.55,-3.37 -16.58,-3.37 -5.79,0 -10.19,0.83 -13.12,2.48 -2.93,1.64 -4.4,3.67 -4.4,6.05 0,1.72 1.2,3.26 3.57,4.65 2.29,1.44 7.86,2.76 16.66,4 21.8,3.16 37.4,6.37 46.8,9.61 9.44,3.24 16.32,7.23 20.6,12.04 4.29,4.78 6.43,10.14 6.43,16.08 0,6.96 -2.86,13.39 -8.57,19.28 -5.75,5.87 -13.72,10.34 -24.02,13.38 -10.27,3.03 -23.2,4.55 -38.84,4.55 -27.44,0 -46.46,-3.57 -57.03,-10.67 -10.56,-7.11 -16.54,-16.14 -17.93,-27.09zm-776.78 -623.2l126.03 0c70.95,163.38 182.91,307.22 260.23,464.52 -119.37,-0.47 -238.78,0.67 -358.15,-0.59 -13.34,-26.65 -29,-51.98 -43.22,-78.12 59.72,0.33 119.45,0.04 179.22,0.12 -52.02,-94.95 -105.99,-188.86 -158.77,-283.39 -4.04,-9.56 -9.97,0.88 -12.37,5.51 -25.05,46.13 -52.11,91.21 -76.77,137.6 -13.98,0.63 -27.95,0.67 -41.97,0.84 -40.36,72.94 -81.87,145.21 -122.44,217.99 -45.42,-0.05 -90.83,0.04 -136.21,-0.09 72.32,-128.63 144.88,-257.17 217.15,-385.84 6.1,-10.99 13.55,-21.51 16.2,-34.01 4.76,-6.65 9.47,-13.35 14.15,-20.08 10.39,-2.44 20.87,-7.03 31.73,-6.1 14.23,6.39 26.69,17.46 42.73,19.36 13.51,1.43 28.2,3.07 41.03,-2.28 10.1,-9.72 15.03,-23.27 21.43,-35.44zm284.26 -1.79c73.29,0.14 146.55,-0.35 219.86,0.11 -0.3,118.99 0.08,237.94 -0.21,356.93 82.07,0.04 164.15,0.08 246.27,0 -0.34,-101.02 0.38,-202.08 -0.38,-303.05 -13.05,-19.53 -31.1,-35.61 -46.42,-53.5 73.32,-1.43 146.68,-0.25 220,-0.63 -0.29,155.44 -0.54,310.88 0.13,466.32 -163.06,-0.04 -326.08,0.42 -489.09,-0.21 -29.55,-54.04 -60.32,-107.37 -90.46,-161.08 -5.17,-10.14 -13.68,-19.74 -13.05,-31.82 0.05,-71.56 0.05,-143.11 0.05,-214.62 1.01,-6.44 -4.34,-10.86 -7.87,-15.32 -11.51,-12.83 -26.97,-29.59 -38.83,-43.13zm-1284.17 0.03c81.15,-0.21 162.3,-0.38 243.45,0.04 5.52,-0.89 8.34,4.84 12,7.78 76.6,82.71 153.55,165 230.07,247.79 -0.17,-67.89 0.12,-135.82 -0.13,-203.76 -13.68,-15.57 -28.2,-30.43 -41.16,-46.59 21.04,-6.15 43.05,-3.45 64.65,-4.17 18.52,14.56 35.27,32.66 58.29,40.16 21.64,8.75 45.04,11.32 68.19,11.32 9.64,11.53 23.61,22.73 21.85,39.48 0,71.76 -0.59,143.53 0.42,215.29 -28.71,53.12 -59.48,105.15 -88.1,158.35 -31.65,1.13 -63.3,0.29 -94.96,0.5 -77.82,-86.28 -156.07,-172.19 -234.02,-258.35 -6.23,-6.99 -12.59,-13.93 -19.66,-20.08 -1.56,92.73 -0.38,185.5 -0.55,278.22 -57.91,0.42 -115.79,0.34 -173.7,0.04 0.5,-135.95 0.08,-271.86 0.21,-407.77 1.13,-6.19 -4.04,-10.35 -7.41,-14.6 -13.22,-14.49 -26.43,-29.01 -39.44,-43.65zm1150.51 -86.25c7.11,-6.18 17,-10.73 26.47,-7.4 16.42,4.16 36.41,7.99 42.85,26.05 -13.89,-1.98 -26.98,-7.07 -39.73,-12.71 10.44,27.1 51.74,40.17 71.27,58.78 -0.29,0.12 -0.59,0.23 -0.89,0.34l-83.72 0c-25.76,-12 -54.81,-12.61 -82.5,-10.8 -15.81,1.01 -27.22,9.69 -39.5,10.8l-14.61 0 -10.29 0c-4.08,-0.25 -8.15,-0.55 -12.21,-0.83 9.09,-12.08 18.61,-23.82 27.66,-35.98 5.89,-0.17 11.78,-0.3 17.72,-0.43 3.36,9.31 6.9,20.92 18.81,21.68 14.14,-3.28 16.37,-18.94 23.4,-29.25 5.35,-2.61 11.07,-4.17 16.67,-5.98 6.99,6.74 12.88,16.37 23.07,18.39 5.51,-2.9 11.45,-6.22 14.77,-11.74 0.8,-6.94 0.13,-13.97 0.76,-20.92z"/>
   <path class="fil3" d="M776.18 278.81l0.84 -2.19c11.37,42.89 22.99,85.78 30.18,129.6 10.15,49.45 14.27,99.75 21.43,149.67 2.65,45.84 9.64,91.3 11.03,137.26 -37.63,2.61 -74.93,10.27 -110.32,23.19 -18.57,-21.04 -42.73,-36.2 -64.02,-53.71 11.57,-6.48 22.64,-13.84 32.07,-23.23 19.87,21.51 47.18,34.22 75.01,41.84 19.74,4.88 41.37,7.53 60.65,-0.59 -5.31,-0.72 -10.65,-1.39 -15.91,-2.4 -44.24,-16.54 -76.31,-54.97 -98.24,-95.42 15.66,-3.75 35.69,-3.91 44.82,-19.61 0.38,-2.57 1.18,-7.62 1.56,-10.15 -14.44,9.22 -31.02,14.06 -48.28,11.91 10.1,-8.71 22.94,-13.59 32.16,-23.4 17.26,-16.41 24.5,-41.21 23.07,-64.57 -12,26.86 -27.62,54.93 -54.76,68.87 -1.86,-17.26 -8.59,-33.76 -22.77,-44.41 2.9,9.85 8.46,19.74 7.15,30.22 -5.01,18.56 -12.46,36.28 -20.83,53.54l-0.64 1.47c-2.82,-46.63 -34.68,-86.11 -71.47,-112.17 -46.08,-29.93 -102.61,-36.2 -156.24,-38.43 32.12,-20.71 68.61,-33.04 105.57,-41.96 -6.23,-0.42 -12.46,-0.97 -18.69,-1.01 -11.7,-0.38 -23.4,0.04 -35.11,0.46 25.09,-44.32 68.15,-81.4 119.88,-88.35 39.82,-9.64 82.5,-4.88 119.96,11.07 7.62,4 14.56,9.09 21.8,13.72 -10.4,-14.6 -23.7,-26.81 -38.55,-36.74 15.61,-4.59 31.73,-7.16 47.47,-11.45l1.18 -3.03zm262.82 826.49c31.23,52.83 60.15,107.04 91,160.16 5.97,9.64 12.67,19.44 13.05,31.27 -83.68,-0.97 -167.4,-0.5 -251.07,-0.29 10.6,-26.65 27.82,-50.05 39.9,-76.06 13.84,-3.96 28.24,-2.4 42.38,-3.66 3.92,-2.66 5.81,-7.28 8.25,-11.16 18.44,-33.63 36.62,-67.43 56.49,-100.26zm375.28 -218.11c5.47,2.31 13.85,4.04 13.17,11.87 -0.5,1.77 -1.55,5.26 -2.06,6.99 -1.31,2.1 -4,6.31 -5.3,8.41 -3.5,0.21 -10.53,0.55 -14.02,0.76 2.23,-9.47 4.97,-18.86 8.21,-28.03zm-310.21 4.92c-3.96,-10.31 0.72,-17.93 9.76,-23.06 7.96,6.69 8.84,15.4 2.66,23.78 -4.17,-0.25 -8.3,-0.51 -12.42,-0.72zm63.35 -36.24c3.91,-0.38 7.87,-0.75 11.82,-1.13 1.18,2.61 3.54,7.87 4.72,10.48 -1.35,2.56 -4.13,7.66 -5.52,10.18 -3.95,0.21 -7.91,0.38 -11.87,0.55 -0.42,-6.69 -0.16,-13.43 0.85,-20.08zm-35.4 4.67c3.66,-16.24 13.05,-30.47 25.93,-40.87 -1.81,12.76 -4.05,25.51 -6.19,38.22 -6.57,0.97 -13.18,1.86 -19.74,2.65zm519.14 -440.39c5.1,9.3 10.15,18.6 15.03,28.03 -14.06,35.65 -30.22,70.42 -46.72,105.02 -22.73,47.56 -52.82,91.08 -84.81,132.88 -4.8,-1.05 -9.6,-1.98 -14.44,-2.86 22.27,-21.55 36.24,-49.63 52.83,-75.39 35.94,-57.92 55.81,-123.74 78.11,-187.68zm-796.56 -27.7c12.96,-47.85 32.07,-95.29 61.79,-135.28 2.23,15.87 -0.63,32.63 4.8,47.95 1.89,8.08 10.94,8.12 17.38,9.76 2.99,-2.06 6.23,-3.66 9.72,-4.67 -0.88,4.46 -1.72,8.96 -2.02,13.51 5.73,9.05 1.9,20.08 1.05,29.97 -3.24,25.34 -10.27,51.64 -2.23,76.81 -11.78,-1.81 -23.69,-2.27 -35.61,-2.14 1.06,-10.78 2.15,-21.55 2.49,-32.41 -18.99,-2.99 -38.18,-3.96 -57.37,-3.5zm55.47 -155.31l2.28 -0.42c0.5,2.31 1.55,6.94 2.06,9.26 -22.65,30.18 -41.21,63.26 -55.48,98.15 -10.48,-25.33 -17.17,-52.06 -26.85,-77.74 -0.38,-2.06 -1.18,-6.27 -1.56,-8.33 25.17,-11.49 52.57,-15.95 79.55,-20.92zm429.37 -73.79c17.72,0.97 35.82,-0.8 53.2,3.75 28.67,7.87 56.83,21.17 77.2,43.4 20.29,20.96 31.23,49.16 34.68,77.82 -1.77,30.31 -16.5,57.12 -28.11,84.35 28.57,-20.96 39.94,-56.06 48.15,-88.94 5.64,41.88 -1.52,87.38 -28.33,121.14 -14.31,19.15 -34.26,32.87 -53.79,46.13 -11.45,-5.47 -31.65,-4.08 -33.21,-20.12 17.68,-4.63 32.83,-15.32 45.71,-27.99 -15.7,3.62 -31.02,9.14 -47.19,10.44 -6.65,-19.87 -15.36,-38.97 -26.22,-56.91 1.39,6.49 3.03,12.88 4.13,19.41 -1.01,42.72 -6.06,85.53 -16.88,126.9 -11.79,44.62 -33,86.2 -58.47,124.51 -6.6,9.59 -14.52,18.3 -23.36,25.84 -5.97,4.12 -11.28,10.65 -18.52,12.33l-2.77 -0.25c18.18,31.86 6.02,76.82 -27.03,93.99 -1.85,-0.21 -5.47,-0.67 -7.28,-0.89 -8.33,17.09 -22.9,29.51 -34.26,44.37 8.5,-4.08 16.46,-9.22 24.5,-14.19 -4.04,13.26 -5.9,28.04 -14.65,39.27 -7.83,8 -18.56,12.17 -28.37,17.18 -3.66,-13.09 -7.95,-28.37 0.21,-40.66 47.61,-77.53 92.26,-157.25 126.53,-241.69 21.63,-58.42 25.59,-121.68 22.51,-183.39 3.46,0.09 10.36,0.26 13.81,0.3 -7.49,-33.76 -20.04,-66.21 -36.16,-96.81 -9.47,-23.49 -14.94,-48.45 -24.54,-71.93 -3.83,-7.29 0.59,-14.95 2.23,-22.19l1.94 0.09c26.18,-1.26 51.69,7.95 71.93,24.41 0.26,-2.19 0.76,-6.52 1.06,-8.71 5.13,-16.63 -7.83,-30.31 -18.65,-40.96zm399.4 -33.04c23.19,-5.93 57.58,8.21 55.26,35.91 -12.12,30.22 -59.22,19.61 -71.84,-5.22 -7.79,-12.76 2.94,-28.67 16.58,-30.69zm-108.8 225.52c-3.88,-73.36 7.66,-148.49 37.75,-215.79 59.22,104.51 138.14,196.14 218.75,284.57 3.91,16.29 -1.1,32.75 -5.22,48.45 -14.48,52.15 -36.16,103.41 -71.14,145.29 -19.82,25.01 -45.41,44.12 -69.57,64.53 -0.68,-108.64 -36.12,-215.71 -96.43,-305.66 -4.67,-7.16 -10.69,-13.51 -14.14,-21.39zm39.1 -189.87l0 0c-16.84,58.89 -28.08,120.22 -25.51,181.67 -0.29,5.55 4.17,9.55 6.95,13.89 25.25,30.43 42.63,66.5 56.9,103.12 7.16,17.34 9.73,36.15 17.26,53.33 2.57,-17.43 1.81,-35.02 1.81,-52.53 -0.8,-67.39 0,-134.78 -0.59,-202.16 0.84,-16.12 -11.49,-28.33 -18.9,-41.46 -12.88,-18.48 -22.73,-39.19 -37.92,-55.86zm-395.02 93.82c22.09,31.19 35.39,67.52 46.34,103.84 -21.76,-0.84 -44.2,-2.1 -65.03,5.56 -4.63,2.48 -12.29,2.44 -14.1,8.12 0.59,12.67 3.53,25.09 5.38,37.63 -14.35,6.44 -28.87,14.31 -36.61,28.75 15.82,-6.02 30.85,-13.98 47.14,-18.73 -0.17,-13.34 -1.06,-26.69 -2.7,-39.95 5.01,-1.47 10.02,-2.77 15.07,-4.16 7.41,63.17 4.97,128.84 -17.63,188.9 -26.18,70.12 -55.73,139.03 -88.48,206.29 -16.24,35.14 -44.83,62.12 -65.62,94.36 -7.7,0.89 -15.44,1.73 -23.15,2.57 8.63,-22.6 -8.92,-42.89 -23.86,-57.79 -10.53,-11.32 -27.19,-17.72 -32.08,-33.46 -10.77,-20.46 -1.72,-46.43 -16.71,-65.37 -14.68,-16.58 -39.56,-16.92 -60.1,-15.99 -21.05,3.03 -41.76,-2.74 -62.42,-5.77 6.52,-97.44 11.62,-196.77 -8.17,-292.99 10.36,0.04 20.71,0.76 30.98,1.98 -1.18,12.03 -2.36,24.11 -3.62,36.15 16.21,-2.78 34.64,-6.52 49.71,2.02 8.34,15.15 15.36,31.49 28.16,43.61 21.17,20.54 46.38,36.74 72.69,49.83 15.49,3.83 31.99,4.63 47.86,3.29 27.52,-9.94 55.98,-21.81 77.02,-42.73 18.61,-24.45 32.88,-53.24 35.82,-84.18 6.23,-24.58 -0.54,-53.16 17.3,-73.78 8.25,1.43 19.95,5.01 24.2,-5.22 11.07,-23.24 6.95,-51.27 22.61,-72.78zm-160.41 289.93l0 0c0.5,12.45 2.02,24.83 1.85,37.29 0.25,22.47 -7.66,43.94 -8.75,66.29 21.88,-28.87 23.73,-71.98 6.9,-103.58zm-72.14 3.19l0 0c3.45,23.36 0.75,46.81 0.88,70.25 10.86,-8.58 8.67,-23.82 9.93,-36.07 -0.29,-11.87 1.81,-27.61 -10.81,-34.18zm36.02 17.6l0 0c-14.1,8.16 5.14,28.07 14.4,15.7 9.85,-8.71 -5.47,-25 -14.4,-15.7zm-113.85 119.45l0 0c11.49,1.39 23.32,4.88 34.81,1.39 13.93,-4.46 26.22,-13.3 35.94,-24.12 10.57,-12.04 23.03,-22.85 30.18,-37.5 -30.89,24.33 -64.65,44.99 -100.93,60.23zm162.22 -46.76l0 0c4.37,7.78 9.59,15.57 17.84,19.74 18.14,10.44 43.23,18.27 60.82,2.48 -27.65,-0.88 -54.17,-9.93 -78.66,-22.22zm-55.94 34.72l0 0c-12.67,3.71 -6.61,24.58 6.02,21.01 14.6,-1.18 8.58,-28.12 -6.02,-21.01zm-38.14 14.15l0 0c-1.47,18.89 -4.75,37.79 -3.32,56.82 10.98,-19.66 11.99,-44.36 8.54,-66.34 -3.24,2.44 -4.96,5.64 -5.22,9.52zm63.81 20.7l0 0c-2.61,22.48 -3.66,45.46 -11.82,66.89 -8,18.14 -5.31,38.3 -6.49,57.53 11.28,-14.05 7.62,-33.16 14.74,-48.95 9.21,-22.26 11.23,-46.8 7.78,-70.54 -1.05,-1.22 -3.15,-3.7 -4.21,-4.93zm-43.22 88.35l0 0c4.46,6.44 12.29,-0.92 17.88,-1.81 -1.38,-5.85 0.89,-14.77 -6.52,-16.92 -11.28,-6.27 -22.22,11.96 -11.36,18.73zm-473.52 -401.25l0 0c18.68,14.4 40.07,26.22 63.68,29.8 21.17,3.58 33.97,22.48 44.87,39.1 0.38,-14.56 -6.32,-28.41 -18.9,-36.11 -26.56,-17.51 -56.61,-35.61 -89.65,-32.79z"/>
   <path class="fil4" d="M917.65 223.75c6.02,0.3 15.32,-0.21 16.75,7.66 3.79,20.21 4.13,40.92 6.4,61.33 2.48,8.04 -6.19,10.82 -10.9,14.94 -9.68,-16.03 -9.3,-35.14 -9.68,-53.2 4.63,7.03 8.84,14.31 13.21,21.51 -1.51,-18.52 -12.33,-34.26 -15.78,-52.24zm598.57 -15.95c22.73,3.41 42.05,15.95 57.46,32.5l2.06 1.93c0.84,-10.06 0.63,-20.16 -0.25,-30.22 15.78,1.98 31.27,6.78 43.64,17.13 -7.19,41.84 -8.37,84.81 -5.93,127.16 -0.34,10.94 13.26,17.8 8.97,29.25 -12.55,59.85 -28.67,120.59 -61.37,172.95 -16.92,-6.86 -33.68,-15.15 -52.24,-16.24 1.1,-25.81 -0.5,-55.4 17.51,-76.19 31.78,-18.69 62.84,-55.26 50.38,-94.37 -2.31,13.72 -5.64,27.28 -11.7,39.91l-1.51 0.54c-15.49,4.59 -26.48,17.85 -41.84,22.56 -9.89,3.2 -20.33,0.84 -30.31,0.09 27.91,-33.68 46.68,-76.73 43.61,-121.18 1.05,-21.68 -9.89,-41.42 -10.1,-62.88 -0.89,-14.61 -4.51,-28.84 -8.38,-42.94zm40.28 55.77l0 0c12.84,13.6 33.72,13.81 46.26,28.33 -7.28,-18.56 -25.93,-31.53 -46.26,-28.33zm-163.52 571.8c24.83,16.59 52.28,30.44 82.46,33.17 6.86,5.31 13.84,10.4 20.87,15.45 -16.33,17.59 -39.44,5.09 -54.51,-7.16 -22.6,-0.46 -53.7,-13.84 -48.82,-41.46zm297.58 -332.85c2.78,7.41 5.56,14.77 8.63,22.1 -8.84,28.58 -27.02,52.78 -46.47,75 -1.68,-2.31 -5.05,-6.9 -6.77,-9.17 15.36,-29.04 30.34,-58.3 44.61,-87.93zm-206.12 68.15c20.5,-14.1 47.27,-8.51 67.31,3.49 -11.37,20.67 -23.95,40.7 -37.89,59.73 -2.65,-7.58 -5.55,-15.07 -9.72,-21.89 2.44,30.22 -2.73,64.9 -27.44,85.32 -11.32,10.35 -27.11,13.13 -41.92,12.03 -7.03,-6.27 -14.06,-12.79 -19.03,-20.83 -0.29,-10.31 6.1,-19.03 12.08,-26.85 13.43,2.06 27.4,3.74 39.44,10.56 -0.34,7.41 -1.6,14.69 -2.23,22.1 4.21,-8.76 9.26,-17.68 9.09,-27.66 -10.1,-10.65 -26.31,-10.18 -39.69,-13.17 11.11,-16.29 8.54,-36.45 11.49,-54.88 13.68,-7.75 29.67,-9.98 43.82,-16.97 -2.99,-0.67 -8.88,-2.02 -11.83,-2.73 1.64,-2.07 4.92,-6.19 6.52,-8.25zm89.57 115.24c26.31,-23.86 47.14,-52.99 65.79,-83 8.46,20.28 11.07,42.76 7.74,64.48 -4.25,-9.3 -8.2,-18.81 -13.84,-27.36 -7.66,16.29 1.68,32.12 8.67,46.59 6.02,11.24 4.8,24.97 1.43,36.79 -11.16,18.14 -17.97,43.52 -41.12,49.59 -21.13,6.65 -41.21,-5.31 -59.23,-14.86 -28.57,11.11 -59.51,1.3 -87.38,-7.16 -10.52,-1.68 -11.87,-12.75 -12.79,-21.34 -0.17,-1.51 -0.51,-4.5 -0.67,-6.02 20.16,-5 42.42,-9.47 54.21,-28.58 21.46,3.12 43.69,3.54 64.06,11.83 11.53,3.16 19.95,12.25 30.64,17.22 -6.56,-10.48 -15.82,-18.73 -24.79,-27.07 14.27,-6.94 29.89,2.95 43.86,-3.95 -12.08,-2.91 -24.08,-6.82 -36.58,-7.16zm-151.95 35.15c2.49,0.37 7.5,1.17 9.98,1.55 -3.16,12.38 -5.72,25.26 -3.28,38.01 7.87,9.05 20.03,12.29 30.89,16.25 27.53,6.82 55.9,8.84 84.06,10.52 12.33,5.52 24.7,10.99 37.84,14.52 -7.45,8.13 -11.96,22.35 -25.05,22.39 -18.56,0.3 -33.96,-11.57 -49.45,-20.24 -4.46,2.61 -8.93,5.26 -13.56,7.49 -16.2,-1.51 -31.86,-6.44 -47.77,-9.55 -15.7,-7.96 -32.7,-19.57 -37.21,-37.67 1.43,-15.03 5.98,-30.14 13.55,-43.27zm-20.66 65.4c30.01,27.15 67.34,48.96 108.76,50.14 8.8,-0.8 15.79,4.29 22.48,9.26 -7.91,6.22 -15.7,15.32 -26.9,13.63 -16.03,-1.47 -29.76,-10.77 -43.98,-17.46 -6.23,4.41 -12.72,8.5 -20.04,10.73 -16.96,-10.02 -35.82,-19.24 -47.77,-35.44 -1.69,-10.65 5.01,-20.71 7.45,-30.86zm-366.95 32.58c11.03,11.37 29,20.16 30.6,37.55 -4.04,16.71 -16.75,29.13 -25.63,43.31 -12.63,19.15 -13.13,43.9 -26.6,62.59 -19.95,9.3 -44.16,1.6 -58.13,-14.56 5.72,-8.13 14.77,-13.6 19.7,-22.52 24.75,0.21 53.33,-9.77 62.55,-34.85 9.47,-23.32 0.16,-47.9 -2.49,-71.52zm-647.1 -350.4c7.32,-6.99 12.54,-19.03 23.86,-19.74 69.2,-6.65 141.55,6.69 200.9,43.9 36.33,22.18 57.58,63.47 62.34,104.97 -9.72,8.38 -19.32,16.88 -29.17,25.09 -4.34,-32.96 -16.29,-66.38 -41.12,-89.49 -20.54,-20.75 -47.23,-34.68 -75.51,-41.46 15.74,13.64 34.43,23.66 48.36,39.4 26.68,28.67 46.43,66.8 45.63,106.66 -3.33,-0.84 -10.02,-2.53 -13.35,-3.37l2.65 6.48c-10.06,-5.38 -21,-8.83 -32.11,-11.07 14.31,12.59 31.99,20.38 46.76,32.33 23.28,18.9 46.81,37.88 65.75,61.37 -9.3,3.2 -18.19,7.62 -25.68,14.06 33.84,-6.44 69.28,-10.36 102.96,-0.72 -7.07,-6.73 -15.58,-11.66 -25.09,-13.93 25.63,-9.05 53.03,-10.86 79.8,-14.02 32.41,-2.94 64.24,4.93 95.93,10.19 22.14,-0.67 46.3,-3.07 66.42,8 17,17.42 11.66,44.53 13.72,66.67l7.24 -3.24c12.84,30.01 26.39,65.49 12.29,97.39 -8.75,14.74 -26.81,18.82 -42.47,21.51 -0.63,-10.23 -2.15,-20.49 -1.6,-30.72 1.68,-13.09 4.76,-26.77 -0.04,-39.61 -4.63,-16.88 -18.18,-29.21 -23.82,-45.59 -3.37,-9.09 -6.49,-18.26 -10.53,-27.06 -4.29,-8.5 -7.53,-18.9 -16.79,-23.32 -10.44,-5.05 -22.56,-3.41 -33.8,-3.45 10.14,5.81 23.28,8.63 28.92,20.04 12.16,18.18 7.36,42.59 20.45,60.27 13.09,23.91 22.65,50.93 23.28,78.33 -2.7,28.62 -34.98,39.65 -59.73,38.3 -1.89,-8.96 -2.78,-18.22 -2.36,-27.36 0.68,-11.36 2.7,-22.98 0,-34.22 -4.37,-14.81 -15.48,-26.26 -22.34,-39.9 -5.73,-11.49 -10.28,-23.53 -16.29,-34.85 -5.14,-8.29 -7.41,-20.5 -17.89,-23.65 -8.04,-3.79 -16.97,-0.34 -25.26,0 8.13,5.68 17.89,9.97 23.53,18.47 8.08,16.42 8.76,35.11 12,52.79 7.15,2.31 9,10.01 12.12,15.99 11.2,25.68 23.44,52.74 19.66,81.49 -0.72,12.04 -12.42,18.9 -21.98,23.91 -13.59,5.59 -28.53,7.15 -43.01,9.13 -2.02,-13.89 -7.2,-26.94 -12.71,-39.73 4.54,-19.87 -12.59,-34.39 -15.83,-52.87 -2.4,-13.17 -8.59,-25.34 -18.27,-34.64 -8.71,-9.6 -20.03,-18.1 -33.75,-17.17 8.58,8.29 19.74,15.11 24.07,26.77 2.65,13.67 0.46,27.61 0.42,41.41 15.66,21.13 31.53,43.06 39.9,68.23 4.47,13.09 -1.93,26.69 -14.98,31.28 -13.85,0.92 -29.42,1.81 -41.12,-7.08 -24.67,-19.32 -38.22,-48.57 -59.48,-71 0.64,4.33 1.27,8.71 2.15,13.05 -0.97,3.45 -2.91,10.31 -3.87,13.72 -32.79,0.42 -67.47,-7.83 -91.63,-31.19 -13.01,-12.17 -19.66,-29.13 -24.92,-45.75 4.67,-4.68 9.38,-9.31 14.1,-13.98 -11.37,-1.35 -22.86,-2.27 -34.01,-4.97 -13.01,-3.11 -23.32,-12.58 -36.07,-16.29 -18.48,-2.14 -37.42,0.34 -55.6,-4.41 -22.23,-5.73 -44.66,-13.09 -63.6,-26.4 -0.93,-5.47 2.77,-10.26 4.42,-15.19 -29.8,-3.07 -61.16,-13.93 -79.34,-39.19 -23.7,-29.63 -28.71,-68.98 -26.98,-105.73 4.41,-2.73 8.79,-5.51 13.21,-8.21 -8,-28.41 -6.65,-60.69 11.07,-85.31 29.34,-44.75 84.01,-59.94 131.58,-77.11 -6.61,-0.97 -13.22,-1.94 -19.87,-2.87 -13.85,-5.64 -28.79,-5.93 -43.52,-5.34zm645.33 -22.69c4.89,-8.33 14.82,-10.48 23.03,-14.14 14.22,4.25 28.62,11.79 43.73,6.9 24.2,-5.64 34.77,23.15 35.86,42.3 -5.18,-3.91 -10.35,-7.83 -15.49,-11.74 -2.27,8.33 -5.89,16.2 -10.35,23.61 -9.05,-7.11 -16.5,-15.95 -22.31,-25.84 -6.52,8.12 -13.85,15.7 -22.65,21.34 -7.87,-7.07 -14.77,-15.11 -21.13,-23.53 -7.57,3.33 -15.11,6.69 -22.68,10.06 3.36,-9.89 6.52,-19.99 11.99,-28.96zm14.4 -9.09l0 0c2.99,18.48 23.57,17.47 37.8,20.16 12.92,2.78 25.63,-3.53 31.69,-15.15 -22.64,10.1 -47.77,4.92 -69.49,-5.01zm-669.5 193.49l0 0c5.98,4.72 11.75,9.93 18.48,13.51 5.68,8.42 10.06,18.86 20.04,23.11 23.86,12 46.34,26.56 70.46,38.09 -1.43,-7.45 -2.87,-15.23 -7.92,-21.17 -1.76,-17.97 -15.28,-31.9 -28.79,-42.51 -21.72,-11.79 -47.94,-16.33 -72.27,-11.03zm467.21 99.38l0 0c17.3,-0.04 34.6,-0.85 51.9,-0.55 -14.99,-10.78 -37.97,-13.51 -51.9,0.55zm-88.01 43.77l0 0c17.26,-2.86 34.72,-2.95 52.19,-3.2 -13.68,-14.22 -38.81,-9.26 -52.19,3.2zm-59.52 33.76l0 0c5.6,9.76 18.82,20.83 28.62,9.22 -9.42,-3.41 -18.98,-6.49 -28.62,-9.22zm371.37 -381.18c5.47,-3.49 10.82,-7.24 16.62,-10.22 5.48,4.54 10.32,9.85 15.45,14.81 -11.24,4.46 -22.31,1.94 -32.07,-4.59zm191.26 -174.55c1.94,0.76 5.89,2.28 7.83,3.08 -6.78,15.57 -19.45,27.95 -23.57,44.78 3.66,-3.66 11.03,-10.98 14.73,-14.65 -2.86,17.05 -3.92,36.16 -17.3,48.83 -2.31,-2.11 -6.9,-6.23 -9.22,-8.34 5.77,-25.8 16.21,-49.91 27.53,-73.7zm-267.32 -25.92l3.49 -1.01c17.6,-0.85 31.07,12.71 47.78,16.12 5.64,14.05 15.95,25.55 30.81,30.13 -4.34,-9.63 -7.75,-19.69 -10.23,-29.92 20.83,2.73 26.43,27.57 45.5,34.55 -0.8,-6.27 -1.51,-12.54 -2.23,-18.81 17.34,1.22 27.65,16.96 42.09,24.62 -2.86,-8.84 -6.19,-17.47 -9.39,-26.18 9.64,-1.35 19.28,0.3 28.92,0.88 12.71,0.72 24.29,-5.38 34.89,-11.65l1.94 3.15c0.97,1.56 2.95,4.68 3.91,6.19 -23.48,10.27 -43.81,26.31 -66.63,37.76 -8.79,4.42 -15.95,-3.41 -20.87,-9.64 -1.31,0.8 -3.88,2.4 -5.18,3.2 2.61,9.68 7.16,18.64 12.96,26.81 7.08,-2.15 14.19,-4.25 21.34,-6.32 5.6,4.97 12.38,10.53 20.33,6.82 3.67,-4.5 6.44,-9.59 9.47,-14.56 8.93,1.43 17.77,3.41 26.31,6.44 1.1,-2.15 3.37,-6.48 4.46,-8.67 -10.52,-1.98 -21.13,-3.45 -31.73,-4.88 9.51,-5.01 18.31,-12.67 29.21,-14.19 5.01,4.97 9.34,10.53 13.89,15.91 -8.08,16.84 -10.99,37.46 -26.35,49.71 -6.69,6.65 -16.5,11.7 -18.27,21.85 -4.33,14.47 -6.9,29.42 -7.91,44.49 3.95,-7.03 7.57,-14.27 9.97,-21.98 4.3,-3.28 8.63,-6.56 13.01,-9.8 -2.74,19.57 -2.15,41.16 -15.41,57.28l-5.68 3.75c-5.64,14.1 -11.28,28.28 -19.19,41.29 -0.84,-13.17 0.34,-26.9 -4.08,-39.56 -9.14,-19.49 -28.5,-30.52 -42.47,-46.01 7.7,-0.38 15.49,-0.5 23.23,-0.88 -1.35,-5.35 -2.32,-10.74 -3.37,-16.17 -0.5,2.49 -1.55,7.41 -2.06,9.85 -10.94,-2.35 -21.04,0.8 -27.74,9.85 -5.6,-0.21 -11.23,-0.42 -16.79,-0.67 -6.99,-8.88 -15.49,-16.67 -27.4,-16.8 0,-2.69 0.04,-8.08 0.08,-10.77 -3.24,5.43 -5.76,11.19 -7.91,17.09 6.31,1.39 12.63,2.86 18.9,4.38 -20.46,10.86 -41.17,23.19 -55.39,41.96 -4.89,9.93 -6.7,21.09 -9.94,31.65 -13.59,-13.26 -12.54,-34.01 -13.59,-51.52 -2.82,5.39 -5.6,10.78 -8.34,16.21 -3.87,-3.87 -7.7,-7.75 -11.49,-11.62 2.02,-21.47 4.04,-42.89 6.19,-64.31 2.02,9.21 3.37,18.56 5.3,27.82 1.27,6.61 3.16,13.05 5.1,19.49 3.83,-19.2 9.34,-38.6 8.25,-58.3 -7.37,-10.48 -19.49,-17.51 -24.37,-29.67 -3.67,-15.37 -2.45,-31.53 0.16,-46.93 1.81,-1.18 5.43,-3.46 7.24,-4.59 0.76,5.47 1.6,10.94 2.45,16.41 5.93,-5.64 11.82,-11.36 17.72,-17.09 7.19,5.18 14.39,10.4 21.55,15.66 -7.45,0.3 -14.9,0.55 -22.31,0.84 0.08,2.32 0.29,7.03 0.38,9.35 5.93,-1.35 11.82,-2.74 17.8,-4.09 3.75,7.41 8.25,18.86 18.9,16.25 2.53,-1.6 7.49,-4.84 9.97,-6.44 9.18,4.21 17.98,10.82 28.54,10.69 9.3,-5.51 11.45,-16.79 14.57,-26.22 -8.67,3.07 -18.86,13.6 -27.95,5.89 -20.25,-13.89 -38.94,-30.09 -60.15,-42.59 -6.36,7.19 -12.54,14.64 -20.2,20.5 6.82,-10.57 12.58,-21.72 18.01,-33zm25.55 120.17l0 0c10.94,-4.85 21.3,-11.24 30.01,-19.53 -12.16,2.56 -22.77,9.47 -30.01,19.53zm121.43 -10.06l0 0c4.25,7.49 10.52,13.55 18.69,16.71 -4.21,-7.62 -10.9,-13.1 -18.69,-16.71z"/>
   <path class="fil1" d="M1205.05 916.09l-122 0c12.28,-1.11 23.69,-9.79 39.5,-10.8 27.69,-1.81 56.74,-1.2 82.5,10.8z"/>
  </g>
 </g>
</svg>
