<?xml version="1.0" encoding="UTF-8"?>
<!DOCTYPE svg PUBLIC "-//W3C//DTD SVG 1.1//EN" "http://www.w3.org/Graphics/SVG/1.1/DTD/svg11.dtd">
<!-- Creator: CorelDRAW -->
<svg xmlns="http://www.w3.org/2000/svg" xml:space="preserve" width="2000px" height="1600px" version="1.1" style="shape-rendering:geometricPrecision; text-rendering:geometricPrecision; image-rendering:optimizeQuality; fill-rule:evenodd; clip-rule:evenodd"
viewBox="0 0 2000 1600"
 xmlns:xlink="http://www.w3.org/1999/xlink">
 <defs>
  <style type="text/css">
   <![CDATA[
    .fil0 {fill:#1D2D52;fill-rule:nonzero}
    .fil1 {fill:#78B0D7;fill-rule:nonzero}
   ]]>
  </style>
 </defs>
 <g id="Capa_x0020_1">
  <metadata id="CorelCorpID_0Corel-Layer"/>
  <g id="North_x0020_Carolina_x0020_Tar_x0020_Heels.cdr">
   <path class="fil0" d="M711.98 1163.85c38.71,-166.89 49.33,-339.95 34.54,-510.52 148.98,167.42 297.62,335.13 446.44,502.69 12.62,14.69 26.33,28.54 38.18,43.85 -95.04,12.11 -191.33,13.88 -286.75,5.84 -78.54,-6.73 -156.62,-20.11 -232.41,-41.86zm-137.86 -1145.58l11.19 0c7.79,1.62 15.19,5.38 20.4,11.5 28.42,32.13 57,64.13 85.39,96.31 116.65,-28.98 236.79,-43.68 356.96,-44.35 144.34,-1.33 289.09,16.92 427.9,56.79 15.93,-33.46 33.1,-66.33 51.85,-98.27 5.75,-9.85 16.58,-16.61 28.06,-16.87 8.8,-0.57 17.03,3.12 25.19,5.91 83.04,28.52 163.5,64.77 239.34,109.06 11.41,6.19 19.02,18.94 18.12,32.02 0.04,8.73 -4.62,16.34 -9.15,23.44 -16.02,26.21 -30.35,53.44 -43.54,81.17 77.29,49.08 148.58,108.58 206.15,180 4.71,5.69 7.21,12.85 8.02,20.14l0 3.86c-0.52,11.17 -7.17,20.6 -15.19,27.87 -61.92,61.79 -123.71,123.73 -185.62,185.54 -10.78,11.48 -29.36,14.3 -42.9,6.15 -9.25,-4.89 -13.46,-14.87 -19.27,-22.96 -14.17,-20.25 -30.42,-39.14 -48.75,-55.73 -15.4,119.73 -15.48,241.5 0.08,361.21 21.34,-20.37 40.86,-42.81 56.46,-67.91 10.46,-17.5 37.21,-21.09 51.9,-6.99 64.5,64.32 128.83,128.84 193.31,193.21 6.02,5.69 9.04,13.75 9.98,21.84l0 3.91c-0.42,9.78 -5.57,18.4 -12,25.48 -56.94,69.15 -126.61,127.05 -202.1,174.92 14.2,30.25 29.97,59.79 47.68,88.14 7.59,11.92 6.52,28.63 -2.35,39.61 -4.27,5.56 -10.61,8.85 -16.54,12.33 -83.82,48.31 -173.13,87.02 -265.36,116.13l-15.85 0c-7.08,-1.96 -13.67,-5.73 -18.42,-11.36 -28.31,-32.04 -56.81,-63.89 -85.1,-95.93 -146.52,36.85 -298.59,49.83 -449.36,42.58 -113.45,-5.56 -226.29,-23.71 -335.52,-54.86 -15.91,33.78 -33.23,66.92 -52.25,99.03 -7.93,13.37 -25.58,19.5 -40.16,14.31 -88.07,-29.31 -173.44,-67.15 -253.5,-114.23 -16.04,-9.19 -21.57,-32.02 -11.54,-47.54 17.56,-28.42 33.41,-57.9 47.64,-88.11 -57.08,-36.37 -110.83,-78.25 -158.19,-126.68 -49.39,-50.34 -92.14,-107.67 -123.06,-171.19 -31.96,-64.25 -50.67,-135.09 -54.02,-206.83l0 -41.63c2.4,-46.19 10.56,-92.13 25.23,-136.02 23.21,-71.15 61.75,-136.73 109.23,-194.35 56.62,-68.67 125.81,-126.3 200.85,-173.86 -12.44,-26.56 -26.21,-52.5 -41.27,-77.68 -5.08,-8.38 -11.73,-16.75 -11.42,-27.11 -0.98,-13.63 7.42,-26.54 19.36,-32.65 85.85,-49.79 177.35,-89.93 272.14,-119.35zm-257.52 150.48l0 0c23.44,37.62 43.78,77.14 61.44,117.75 0.07,0.54 0.21,1.62 0.29,2.15 -79.21,47.39 -152.96,105.22 -212.68,175.93 -48.92,57.77 -88.29,124.34 -110.61,196.88 -22.17,71.21 -26.94,147.71 -13.77,221.12 8.11,45.59 23.23,89.82 43.59,131.36 32.87,66.56 79.14,125.95 132.68,177.12 48.71,46.69 103.54,86.65 161.4,121.23 -18.06,41.19 -38.63,81.29 -62.21,119.6 77.98,45.9 161.25,82.5 246.94,111.4 23.29,-39.54 44.04,-80.58 62.81,-122.44 114.21,35.27 232.9,55.54 352.21,61.77 155.45,7.98 312.41,-6.43 462.95,-46.54 33.34,37.42 66.44,75.06 99.88,112.36 91.42,-29.46 180.15,-67.8 262.96,-116.59 -22.84,-36.94 -42.77,-75.64 -60.4,-115.33 -0.56,-1.75 -2.85,-4.67 0.11,-5.6 82.83,-49.42 159.52,-110.69 220.37,-185.9 2.23,-2.15 -1.27,-3.88 -2.37,-5.44 -62.94,-62.6 -125.4,-125.71 -188.5,-188.16 -28.17,45.29 -67.25,82.85 -110.13,114.16 -28.19,-161.89 -28.29,-328.7 0.06,-490.56 42.78,31.36 81.9,68.88 110.07,114.15 64.18,-63.78 127.93,-127.98 192.04,-191.82 -20.63,-26.46 -43.94,-50.83 -68.4,-73.77 -47.14,-44 -99.56,-82.18 -155,-114.98 17.63,-41.46 38.56,-81.52 62.21,-119.87 -78.06,-45.81 -161.25,-82.67 -247.08,-111.31 -23.42,39.5 -43.9,80.68 -62.98,122.43 -154,-47.93 -316.19,-67.77 -477.23,-63.45 -113.92,3.2 -227.6,18.79 -337.77,48.1 -33.31,-37.48 -66.36,-75.21 -100,-112.38 -91.38,29.55 -180.02,67.96 -262.88,116.63zm572.61 231.94c95.46,-12.02 192.16,-13.92 288.02,-5.8 78.37,6.8 156.31,20.13 231.96,41.84 -38.59,166.9 -49.48,339.98 -34.42,510.56 -162.1,-181.98 -323.63,-364.46 -485.56,-546.6zm69.85 27.33l0 0c125.44,140.69 250.34,281.87 375.56,422.77 -3.41,-130.54 7.15,-261.64 34.09,-389.48 -133.48,-33.6 -272.54,-43.39 -409.65,-33.29zm-631.98 280.62c26.63,-63.06 75.94,-113.7 130.5,-153.64 28.29,161.87 28.3,328.69 0,490.56 -29.43,-21.42 -56.91,-45.71 -80.41,-73.56 -27.98,-32.88 -50.29,-71.21 -61.38,-113.15 -13.37,-49.5 -8.77,-103.16 11.29,-150.21zm82.53 -65.33l0 0c-31.23,34.73 -56.23,76.67 -64.26,123.21 -7.25,39.54 -1.08,80.96 15.44,117.44 16.57,37.23 42.82,69.25 72.11,97.23 15.48,-119.77 15.54,-241.48 0.04,-361.27 -8.54,6.98 -15.81,15.35 -23.33,23.39zm376.91 106.4l0 0c3.42,130.52 -6.96,261.66 -34.13,389.46 41.51,10.91 83.84,18.66 126.32,24.72 93.71,12.9 188.79,15.94 283.1,8.57 -125.08,-140.92 -250.23,-281.79 -375.29,-422.75z"/>
   <path class="fil1" d="M316.6 168.75c82.86,-48.67 171.5,-87.08 262.88,-116.63 33.64,37.17 66.69,74.9 100,112.38 110.17,-29.31 223.85,-44.9 337.77,-48.1 161.04,-4.32 323.23,15.52 477.23,63.45 19.08,-41.75 39.56,-82.93 62.98,-122.43 85.83,28.64 169.02,65.5 247.08,111.31 -23.65,38.35 -44.58,78.41 -62.21,119.87 55.44,32.8 107.86,70.98 155,114.98 24.46,22.94 47.77,47.31 68.4,73.77 -64.11,63.84 -127.86,128.04 -192.04,191.82 -28.17,-45.27 -67.29,-82.79 -110.07,-114.15 -28.35,161.86 -28.25,328.67 -0.06,490.56 42.88,-31.31 81.96,-68.87 110.13,-114.16 63.1,62.45 125.56,125.56 188.5,188.16 1.1,1.56 4.6,3.29 2.37,5.44 -60.85,75.21 -137.54,136.48 -220.37,185.9 -2.96,0.93 -0.67,3.85 -0.11,5.6 17.63,39.69 37.56,78.39 60.4,115.33 -82.81,48.79 -171.54,87.13 -262.96,116.59 -33.44,-37.3 -66.54,-74.94 -99.88,-112.36 -150.54,40.11 -307.5,54.52 -462.95,46.54 -119.31,-6.23 -238,-26.5 -352.21,-61.77 -18.77,41.86 -39.52,82.9 -62.81,122.44 -85.69,-28.9 -168.96,-65.5 -246.94,-111.4 23.58,-38.31 44.15,-78.41 62.21,-119.6 -57.86,-34.58 -112.69,-74.54 -161.4,-121.23 -53.54,-51.17 -99.81,-110.56 -132.68,-177.12 -20.36,-41.54 -35.48,-85.77 -43.59,-131.36 -13.17,-73.41 -8.4,-149.91 13.77,-221.12 22.32,-72.54 61.69,-139.11 110.61,-196.88 59.72,-70.71 133.47,-128.54 212.68,-175.93 -0.08,-0.53 -0.22,-1.61 -0.29,-2.15 -17.66,-40.61 -38,-80.13 -61.44,-117.75zm572.61 231.94l0 0c161.93,182.14 323.46,364.62 485.56,546.6 -15.06,-170.58 -4.17,-343.66 34.42,-510.56 -75.65,-21.71 -153.59,-35.04 -231.96,-41.84 -95.86,-8.12 -192.56,-6.22 -288.02,5.8zm-562.13 307.95l0 0c-20.06,47.05 -24.66,100.71 -11.29,150.21 11.09,41.94 33.4,80.27 61.38,113.15 23.5,27.85 50.98,52.14 80.41,73.56 28.3,-161.87 28.29,-328.69 0,-490.56 -54.56,39.94 -103.87,90.58 -130.5,153.64zm384.9 455.21l0 0c75.79,21.75 153.87,35.13 232.41,41.86 95.42,8.04 191.71,6.27 286.75,-5.84 -11.85,-15.31 -25.56,-29.16 -38.18,-43.85 -148.82,-167.56 -297.46,-335.27 -446.44,-502.69 14.79,170.57 4.17,343.63 -34.54,510.52z"/>
  </g>
 </g>
</svg>
