<?xml version="1.0" encoding="UTF-8"?>
<!DOCTYPE svg PUBLIC "-//W3C//DTD SVG 1.1//EN" "http://www.w3.org/Graphics/SVG/1.1/DTD/svg11.dtd">
<!-- Creator: CorelDRAW -->
<svg xmlns="http://www.w3.org/2000/svg" xml:space="preserve" width="2000px" height="1600px" version="1.1" style="shape-rendering:geometricPrecision; text-rendering:geometricPrecision; image-rendering:optimizeQuality; fill-rule:evenodd; clip-rule:evenodd"
viewBox="0 0 2000 1600"
 xmlns:xlink="http://www.w3.org/1999/xlink">
 <defs>
  <style type="text/css">
   <![CDATA[
    .fil2 {fill:#00853D;fill-rule:nonzero}
    .fil1 {fill:#020202;fill-rule:nonzero}
    .fil0 {fill:#FEFEFE;fill-rule:nonzero}
   ]]>
  </style>
 </defs>
 <g id="Capa_x0020_1">
  <metadata id="CorelCorpID_0Corel-Layer"/>
  <g id="North_x0020_Texas_x0020_Mean_x0020_Green.cdr">
   <path class="fil0" d="M1598.9 731.93c4.91,-14 11.53,-27.31 17,-41.1 6.02,13.36 12.39,26.71 16.14,40.92 -11.05,0.17 -22.11,-0.2 -33.14,0.18zm-767.86 412.76c9.36,7.99 17.94,16.84 26.94,25.24 5.06,4.05 9.58,8.73 14.3,13.18 -6.62,-0.61 -13.07,1.12 -19.3,3.11 -3.53,-15.47 -12.69,-28.92 -21.94,-41.53zm-108.86 -524c84.08,-0.08 168.15,0.02 252.23,-0.05 -13.79,32.13 -27.63,64.23 -41.53,96.3 -11.49,-0.01 -22.98,-0.01 -34.47,0 0.34,-13.52 -0.66,-26.99 -0.55,-40.52 -12.03,0.16 -24.05,0.02 -36.08,0.09 0.09,64.24 0.02,128.47 0.05,192.72 12.21,0.04 24.43,-0.15 36.65,0.11 -7.96,18.5 -15.54,37.16 -23.32,55.73 -38.18,0.13 -76.36,-0.29 -114.51,0.21 -0.27,-0.62 -0.79,-1.87 -1.05,-2.49 0.34,-1.63 0.8,-3.21 1.31,-4.78 36.62,1.61 73.31,-0.4 109.91,1.12 5.92,-14.55 12.01,-29.02 17.72,-43.64 -10.99,-0.07 -21.97,-0.02 -32.94,-0.06 -0.03,-68.49 -0.06,-136.97 0,-205.47 16.36,0.12 32.71,-0.29 49.07,0.07 0.03,13.57 -0.03,27.13 0.06,40.7 8.01,-0.42 16.05,-0.31 24.1,-0.32 11.65,-27.63 23.68,-55.11 35.43,-82.7 -79.54,-0.01 -159.07,-0.04 -238.61,0 -12.54,27.69 -25.46,55.21 -38.07,82.84 12.05,0.37 24.12,0.02 36.18,0.22 8.31,-13.43 15.97,-27.24 24.12,-40.77 15.83,-0.05 31.65,-0.15 47.47,0.04 -0.14,68.47 -0.01,136.94 -0.07,205.42 -5.98,-0.03 -11.97,-0.01 -17.95,-0.06 -5.86,14.18 -11.84,28.31 -17.26,42.66 -0.27,-0.07 -0.79,-0.21 -1.07,-0.28 -0.87,-3.15 -1.72,-6.33 -2.08,-9.55 5.01,-13.07 10.47,-25.96 15.56,-38.99 5.53,-0.04 11.05,-0.02 16.59,-0.01 -0.02,-64.25 -0.03,-128.48 0,-192.72 -12.53,-0.04 -25.06,0.01 -37.59,-0.03 -8.14,13.61 -15.96,27.41 -24.21,40.95 -16.51,-0.2 -33,-0.68 -49.53,-0.56 14.76,-32.08 29.76,-64.06 44.44,-96.18zm-85.14 -374.37c12.36,-0.1 24.74,0.03 37.12,-0.07 8.37,-0.59 16.79,-0.55 25.19,-0.34 12.33,12.62 23.78,26.2 35.84,39.13 39.16,43.25 78.28,86.52 117.53,129.69 0,-37.09 0.09,-74.18 -0.06,-111.28 -12.11,0.13 -24.21,0.04 -36.31,0.04 7.91,-19.11 16.07,-38.12 24.16,-57.17 20.22,-0.08 40.46,-0.03 60.7,-0.03 20.11,-0.92 40.28,-0.3 60.44,-0.45 -8.31,19.15 -16.57,38.34 -24.66,57.58 -7.08,0.2 -14.17,0.02 -21.26,0.13 0.19,82.85 -0.04,165.7 0.11,248.55 -13.19,0.28 -26.38,0.07 -39.56,-0.32 -4.85,-3.76 -8.56,-8.77 -13,-12.98 -37.99,-39.97 -76.51,-79.43 -113.78,-120.06 -10.88,-11.87 -21.63,-23.83 -32.6,-35.61 -0.45,37.28 0.39,74.55 0.24,111.83 11.43,0.58 22.89,0.55 34.36,0.49 -7.8,18.94 -15.76,37.82 -23.63,56.72 -38.11,0.01 -76.22,0.11 -114.33,-0.04 7.87,-18.97 15.4,-38.1 23.09,-57.15 5.66,0.02 11.32,-0.04 16.98,0.05 0.25,-62.42 -0.08,-124.84 0.17,-187.26 -15.59,-0.32 -31.2,0.08 -46.79,-0.19 10.09,-20.39 19.93,-40.9 30.05,-61.26zm4.24 6.16l0 0c-8.18,16.11 -16.11,32.37 -23.87,48.7 14.19,0.11 28.38,-0.12 42.57,0.13 -0.07,66.94 -0.14,133.89 0.04,200.83 -6.3,-0.26 -12.61,-0.1 -18.91,-0.18 -0.9,1.69 -1.77,3.39 -2.64,5.11 -1.58,4.72 -3.56,9.3 -5.47,13.91 -0.8,2.35 -1.73,4.65 -2.8,6.89 -1.66,4.72 -3.32,9.47 -5.73,13.86 -0.27,1.3 -0.51,2.62 -0.76,3.93 33.34,-0.07 66.67,0.11 100,-0.09 5.85,-14.58 12.16,-28.98 17.99,-43.58 -0.96,-0.18 -2.87,-0.54 -3.82,-0.72 -9.07,1.59 -18.33,0.22 -27.47,0.86 0.28,-45.12 0.08,-90.25 0.08,-135.36 20.66,22.2 40.94,44.77 61.49,67.06 35.53,37.43 70.81,75.07 107.03,111.82 10.16,-0.02 20.33,0.11 30.51,-0.1 0.09,-83.03 -0.05,-166.07 0.06,-249.1 7.66,0.16 15.31,-0.16 22.98,0.23 2.75,-4.36 4.16,-9.38 6.29,-14.05 4.05,-10.1 8.65,-19.97 12.76,-30.05 -35.69,-0.08 -71.39,-0.2 -107.07,0.05 -6.33,14.59 -12.44,29.31 -18.68,43.93 11.17,-0.21 22.34,0.14 33.5,-0.21 -0.07,45.24 -0.28,90.49 0.1,135.73 -54.03,-59.98 -108.54,-119.52 -162.41,-179.64 -18.59,0.03 -37.18,0.12 -55.77,0.04zm414.24 55.59c26.11,-7.78 54.15,-9.62 80.91,-4.26 23.17,4.53 45.23,16.06 60.98,33.81 16.24,18.23 25.72,41.73 29.41,65.68 21.82,0.04 43.63,0 65.44,0.01 -0.81,-15.87 -0.23,-31.78 -0.4,-47.67 -10.66,-0.03 -21.32,-0.01 -31.98,0 7.35,-16.61 14.72,-33.21 22.03,-49.84 28.61,0.03 57.21,-0.02 85.82,0.03 22.93,0.92 46.14,10.92 60.59,29.11 9.89,12.24 14.19,28.71 11.3,44.22 -2.93,23.63 -19.19,43.45 -38.73,55.97 17.77,19.4 36.25,38.15 54.62,57 11.63,9.86 27.74,10.49 42.24,11.57 16.96,0.5 34,0.77 50.94,-0.3 0.98,-14.15 0.54,-28.41 0.65,-42.59 -0.01,-35.06 0,-70.12 -0.01,-105.18 -2.8,0 -5.57,0 -8.32,0 -4.95,9.52 -10.12,18.92 -15.05,28.44 -15.82,0.07 -31.66,0 -47.48,0.04 11.92,-26.09 24,-52.11 35.8,-78.25 60.12,-0.08 120.24,-0.18 180.34,0.23 -10.67,26.2 -22.03,52.12 -32.85,78.27 -11.18,0.12 -22.37,0.03 -33.54,0.03 0.02,-9.58 0.02,-19.17 -0.01,-28.75 -6.09,-0.01 -12.18,-0.03 -18.27,-0.01 -0.03,34.13 0,68.27 0,102.41 0.05,15.11 -0.3,30.22 0.51,45.3 10.74,-0.15 21.47,-0.04 32.21,-0.04 -7.45,16.61 -15.21,33.07 -22.73,49.66 -61.31,-0.17 -122.59,0.5 -183.89,0.33 -28.3,-31.33 -56.61,-62.63 -85.26,-93.59 0.36,31.2 1.41,62.4 1.37,93.62 -30.9,0.16 -61.77,-0.4 -92.65,-0.31 6.82,-16.77 14.59,-33.17 21.84,-49.76 3.62,0.03 7.23,0.04 10.87,0.05 -0.59,-15.18 -0.32,-30.37 -0.04,-45.55 -22.79,0.05 -45.56,-0.03 -68.33,0.05 -5.84,24.81 -18.69,48.11 -37.53,65.38 -21.47,20.07 -49.78,32.01 -78.77,35.72 -28.39,3.61 -58.29,1.13 -84.36,-11.35 -19.27,-9.03 -35.77,-23.9 -46.52,-42.28 -14.18,-23.59 -18.73,-51.86 -17.13,-79.05 1.37,-27.86 10.82,-55.87 29.38,-77 17.29,-20.22 41.44,-33.39 66.6,-41.15zm46.32 -1.14l0 0c-9.74,0.59 -19.56,0.91 -29.07,3.19 -27.44,5.64 -54.35,17.58 -74.2,37.75 -18.93,18.9 -29.92,44.95 -32.26,71.43 -2.71,27.61 0.68,56.69 14.7,81.04 9.57,16.85 23.95,30.99 41.28,39.74 25.13,13.32 54.63,16.16 82.54,12.92 29.68,-3.34 58.87,-15.48 80.22,-36.7 17.77,-17.34 29.59,-40.41 34.16,-64.77 26.37,0 52.76,-0.06 79.14,0.01 0.07,19.4 0.1,38.81 -0.01,58.2 -4.42,-0.01 -8.82,-0.03 -13.21,0.04 -5.48,12.28 -10.86,24.61 -16.44,36.85 25.83,0.36 51.67,0.06 77.5,0.14 0.02,-20.81 -0.77,-41.6 -0.58,-62.42 0.42,-11.99 -1.67,-23.86 -1.37,-35.87 1.04,0.02 3.12,0.06 4.16,0.09 30.02,32.79 60.16,65.48 90.04,98.39 59.11,0.23 118.21,0 177.32,0.11 5.92,-12.34 11.42,-24.89 17.15,-37.33 -9.65,0.46 -19.31,0.24 -28.94,-0.05 -0.13,-53.49 0.08,-106.98 -0.12,-160.47 10.21,-0.29 20.42,-0.13 30.63,-0.09 -0.02,9.74 -0.02,19.48 0,29.23 7.73,0.11 15.49,0.37 23.21,-0.07 9.32,-22.04 18.55,-44.12 27.71,-66.21 -55.67,0.01 -111.34,-0.06 -167,0.02 -10.05,21.86 -20.2,43.66 -30.2,65.55 11.37,0.46 22.79,0.33 34.19,0.07 4.86,-9.61 10.42,-18.85 15.1,-28.57 5.93,-0.13 11.88,-0.07 17.83,-0.03 -0.05,53.52 0.08,107.03 -0.07,160.54 -15.42,0.81 -30.87,0.63 -46.3,0.62 -15.42,-0.46 -31.39,-0.29 -45.93,-6.09 -8.59,-3.35 -14.68,-10.51 -20.8,-17.03 -17.11,-17.44 -34.23,-34.91 -50.61,-53.03 6.41,-4.28 12.81,-8.64 18.55,-13.8 13.33,-11.81 22.87,-28.56 23.79,-46.56 1.49,-12.86 -2.83,-26.04 -11.11,-35.9 -13.7,-16.59 -35.41,-25.21 -56.6,-25.81 -26.76,0.03 -53.52,-0.04 -80.28,0.04 -5.7,12.2 -11.04,24.56 -16.17,37.01 9.43,-0.06 18.87,-0.03 28.3,-0.05 -0.14,20.17 0.33,40.33 0.32,60.5 -25.54,-0.09 -51.08,0.15 -76.62,-0.13 -3.44,-29.61 -16.2,-59.37 -39.91,-78.31 -22.26,-18.17 -51.82,-24.72 -80.04,-24.19zm634.6 -1.07c21.79,-0.04 43.58,-0.19 65.36,0.07 0.59,30.73 0.08,61.48 0.27,92.21 27.07,0.04 54.12,-0.21 81.16,-0.35 0.31,-14.16 0.5,-28.33 0.24,-42.51 -8.72,0.11 -17.43,-0.1 -26.14,0.37 7.38,-16.64 15.07,-33.15 22.42,-49.8 33.16,-0.11 66.35,0.01 99.51,-0.06 -7.75,16.57 -15.42,33.17 -22.99,49.81 -3.53,-0.24 -7.06,-0.31 -10.56,-0.31 0,49.31 0.08,98.64 -0.04,147.96 8.51,0.05 17.04,0.05 25.57,0.01 -7.44,16.75 -15.25,33.34 -22.8,50.03 -32.66,-0.01 -65.32,0 -97.96,0 6.27,-15.17 13.51,-29.93 20.01,-45 0.76,-1.44 1.08,-3.28 2.39,-4.39 3.48,-0.87 7.12,-0.62 10.69,-0.57 0,-17.23 -0.04,-34.48 0.03,-51.72 -27.3,0.07 -54.6,-0.05 -81.9,0.07 0.14,33.86 -0.03,67.72 0.08,101.58 -33.35,0.06 -66.68,0.02 -100.03,0.03 8.93,-16.72 18.17,-33.29 27.09,-50 4.31,0 8.63,0.01 12.96,-0.11 -0.08,-49.28 -0.04,-98.56 -0.03,-147.85 -8.88,0 -17.76,-0.02 -26.62,0.02 7.06,-16.52 14.26,-32.96 21.29,-49.49zm4.13 6.19l0 0c-5.14,12.39 -11.14,24.4 -15.67,37.03 7.68,-0.15 15.38,0.45 23.07,0.27 0.07,53.27 -0.04,106.55 0.06,159.84 -5.04,0.02 -10.06,0.05 -15.08,0.01 -6.85,10.49 -11.35,22.44 -18.86,32.52 -0.63,1.69 -1.28,3.38 -1.91,5.06 27.88,-0.2 55.76,0.32 83.64,0.28 0.19,-33.79 -0.36,-67.55 -0.32,-101.33 31.31,-0.08 62.64,-0.11 93.95,0 0.04,21.33 0.15,42.66 -0.01,64 -4.31,0.01 -8.61,0.02 -12.89,0.04 -5.58,12.37 -11.08,24.79 -16.83,37.07 28.3,0.41 56.63,0.21 84.95,0.11 1.26,-2.63 2.7,-5.18 4.11,-7.75 3.46,-10.14 8.6,-19.6 12.76,-29.46 -7.21,0 -14.42,-0.01 -21.62,-0.01 -0.76,-12.13 -0.27,-24.28 -0.4,-36.41 0,-41.43 -0.03,-82.86 0.03,-124.3 4.43,0.18 8.89,0.46 13.34,0.14 4.93,-12.58 11.24,-24.58 16.55,-37.03 -28.56,-0.17 -57.12,0 -85.68,-0.08 -5.48,12.22 -11.14,24.36 -16.26,36.72 0.97,0.31 2.9,0.92 3.87,1.22 5.95,-1.2 12.07,-0.43 18.12,-0.58 -0.19,18.19 0.32,36.39 -0.34,54.57 -31.12,0.01 -62.26,0.19 -93.39,-0.06 0.06,-30.87 0.19,-61.75 -0.07,-92.62 -18.38,0.18 -36.79,-0.5 -55.12,0.75zm-1662.43 29.23c2.48,5.07 6.16,10.1 6.9,15.66 -4.74,19.16 1.45,40.62 16.5,53.59 128.59,118.3 257.27,236.52 385.87,354.81 32.89,29.97 65.31,60.45 98.43,90.16 -9.53,-10.02 -19.88,-19.26 -29.71,-28.99 -79.18,-76.32 -158.34,-152.66 -237.5,-228.99 -5.9,-5.25 -11.38,-11.37 -14.03,-18.92 -2.37,-6.94 -2.35,-14.84 0.85,-21.53 9.12,-20.57 18.25,-41.14 27.42,-61.7 -6.41,-8.06 -12.58,-16.29 -19.2,-24.18 -8.78,-9.48 -6.73,-23.97 -3,-35.21 11.66,-25.79 23.38,-51.55 35.12,-77.3 2.35,5.42 5.01,10.71 6.97,16.28 -0.92,8.55 0.15,17.32 3.89,25.14 4.67,10.83 13.44,18.98 20.93,27.83 94.9,107.23 190.41,213.89 285.1,321.29 38.48,43.1 68.86,94.25 83.61,150.37 10.02,38.4 13.6,79.11 6.13,118.29 37.15,35.35 74.49,70.51 112.88,104.51 15.89,15.1 22.44,39.16 15.78,60.12 11.98,9.4 25.38,19.8 29.17,35.31 2.6,10.24 -5.32,18.57 -12.58,24.42 -14.39,10.97 -33.02,14.08 -50.68,14.44 6.25,-5.52 13.42,-11.71 14.1,-20.64 -0.83,-4.25 -5.18,-6.42 -8.76,-8 -15.23,-6.12 -31.84,-6.93 -47.91,-9.04 -2.02,-2.67 -3.52,-5.7 -5.22,-8.57 -11.25,-2.16 -22.49,-4.43 -33.75,-6.59 -2.46,-0.85 -4.54,0.9 -6.6,1.91 -11.53,6.41 -23.16,12.66 -34.68,19.12 8.57,15.92 17.35,31.73 25.97,47.61 11.6,-3.57 24.39,-6 36.2,-1.91 13.25,4.5 21.57,19.94 17.75,33.47 -3.66,14.29 -14.03,25.91 -25.58,34.59 0.89,-8.09 2.06,-17.16 -2.5,-24.44 -2.47,-3.99 -7.72,-4.13 -11.89,-3.98 -15.12,1.14 -29.28,9.44 -38.5,21.34 -4.62,5.75 -7.17,12.76 -10.63,19.2 -0.26,-0.03 -0.8,-0.1 -1.06,-0.13 -4.35,-6.75 -8.95,-13.65 -10.51,-21.66 -1.94,-7.92 -1.01,-16.49 2.8,-23.72 -43.69,-29.16 -82.55,-65.6 -114.57,-107.24 -2.95,-3.43 -4.88,-8.23 -9.48,-9.76 -14.87,-6.39 -29.71,-12.89 -44.52,-19.39 -1.87,-0.68 -3.88,-2.16 -5.9,-1.14 -29.3,9.22 -58.6,18.51 -87.98,27.47 -17.35,5.29 -35.19,10.6 -53.52,9.79 -9.1,-0.35 -18.18,-3.23 -25.53,-8.66 -7.32,-5.4 -13.51,-12.14 -20.18,-18.27 -39.02,-37.13 -78.08,-74.2 -117.09,-111.33 -13.59,-13.02 -27.45,-25.77 -40.78,-39.05 7.04,0.17 14.16,-0.58 21.13,0.61 16.37,9.03 35.63,9.62 53.87,9.36 72.63,0.04 145.23,-0.07 217.85,0.06 -139.81,-83.7 -279.96,-166.84 -419.76,-250.52 -13.58,-8.07 -27.84,-16.38 -37.09,-29.57 -5.21,-7.17 -7.89,-16.54 -5.85,-25.31 0.79,-4.27 2.85,-8.14 4.68,-12.02 9.15,-19.76 18.44,-39.46 27.63,-59.2 -14.7,-9.87 -29.28,-21.55 -37.04,-37.89 -4.09,-8.69 -5.43,-18.7 -3.56,-28.14 1.44,-8.78 6.12,-16.49 9.85,-24.43 8.1,-16.99 16.66,-33.77 24.48,-50.87 -9.55,-8.56 -17.35,-19.66 -20.12,-32.33 -2.82,-12.22 -0.63,-25.19 4.5,-36.52 16.97,-36.53 34.02,-73.03 50.9,-109.61zm0.28 12.66l0 0c-15.03,34.38 -31.09,68.33 -46.29,102.64 -3.89,10.05 -5.22,21.39 -2.08,31.83 3.37,12.6 12.32,22.82 22.3,30.8 150.53,121.73 300.87,243.68 451.41,365.37 -0.07,4.58 0.04,9.17 0.46,13.73 -1.03,-0.62 -3.07,-1.86 -4.1,-2.49 -144.05,-110.74 -288.2,-221.36 -432.23,-332.13 -12.96,-9.85 -18.29,-26.49 -18.55,-42.24 -9.98,22.12 -21.1,43.73 -31.48,65.67 -5.33,12.09 -4.36,26.61 2.63,37.82 9.6,15.93 25.77,26.14 40.82,36.34 148.2,103.16 296.42,206.34 444.49,309.7 1.74,5.66 2.64,11.57 3.69,17.4 -145.93,-96.82 -291.52,-194.21 -437.7,-290.67 -11.63,-8.22 -14.47,-23.31 -15.63,-36.57 -9.98,23.22 -21.47,45.79 -31.7,68.9 -3.97,9.59 0.04,20.39 6.66,27.74 10.23,11.54 24.11,18.78 37.14,26.68 145.17,86.76 290.57,173.19 435.75,259.97 -79.42,-0.21 -158.83,-0.03 -238.24,-0.1 -10.13,-0.1 -20.32,0.47 -30.38,-0.94 -11.16,-1.39 -22.79,-3.59 -32.09,-10.3 12.86,13.29 27.16,25.17 40.1,38.39 9.75,9.66 22.15,17.83 36.3,18.2 30.9,0.11 61.81,-0.11 92.71,0.1 6.28,1.59 11.9,5.22 18.02,7.38 -26.77,2.47 -53.63,4.2 -80.43,6.46 -6.38,0.28 -12.85,1.08 -19.16,-0.21 -8.05,-1.59 -15.32,-5.6 -22.51,-9.4 6.29,7.45 13.9,13.61 20.55,20.74 9.48,8.51 17.88,18.31 28.53,25.47 7.64,4.81 17.05,6.06 25.88,4.67 37.99,-5.15 75.78,-11.63 113.63,-17.71 5.94,0.58 11.18,4.29 16.48,6.91 -32.35,6.85 -64.63,14.05 -96.95,21.04 -7.77,1.47 -15.49,3.81 -23.48,3.17 -9.48,-0.18 -18.38,-3.76 -26.77,-7.88 11.71,11.42 23.35,22.93 35.1,34.33 6.8,6.75 15.44,11.92 25.07,13.09 14.52,1.71 29.02,-1.54 42.93,-5.38 35.18,-10.14 69.85,-22.06 104.97,-32.24 17.4,7.19 34.51,15.13 51.86,22.46 5.71,1.88 7.76,8.1 11.54,12.24 32.91,42.13 72.6,79.23 117.67,108.07 -7.68,9.77 -7.99,24 -1.45,34.43 9.52,-18.33 28.17,-32.18 48.97,-33.91 6.01,-0.31 13.04,0.13 17.25,5.04 4.39,4.78 4.11,11.64 4.24,17.72 7.33,-8.91 14.32,-19.79 13.37,-31.84 -0.86,-8.43 -7.09,-16.26 -15.49,-18.17 -11.77,-2.87 -23.71,0.66 -34.96,4.07 -1.5,-1.3 -2.2,-3.23 -3.17,-4.86 -9.48,-17.82 -19.71,-35.25 -28.75,-53.28 14.3,-8.39 29.05,-16.15 43.07,-24.92 5.69,-32.67 3.9,-66.56 -3.68,-98.77 -12.3,-51.26 -39.4,-98.23 -74.58,-137.2 -10.84,-12.14 -23.29,-22.65 -35.02,-33.87 -182.27,-170.29 -364.64,-340.46 -546.9,-510.77 -9.94,-8.74 -17.49,-20.39 -20.01,-33.49 -2.4,-9.64 -1.22,-19.56 0.19,-29.23zm237.92 86.74l0 0c-1.77,4.18 -2.39,8.81 -2.23,13.34 0.64,9.01 5.91,16.79 11.63,23.44 10.38,12.03 21.61,23.3 32.48,34.88 85.92,90.52 172.41,180.5 258.45,270.91 -0.83,4.92 -1.33,9.87 -1.82,14.84 -8.39,-7.64 -16.1,-15.97 -24.21,-23.88 -43.76,-43.85 -87.72,-87.51 -131.35,-131.49 -35.51,-35.12 -70.94,-70.37 -106.15,-105.79 -9.85,-10.18 -17.34,-24.31 -14.44,-38.83 -8.67,20.97 -18.39,41.5 -27.36,62.35 -2.39,6.3 -1.56,13.55 1.69,19.39 4.81,8.67 12.59,15.03 19.84,21.57 113.79,106.77 227.73,213.42 341.94,319.75 20.25,19.96 37.36,42.96 51.71,67.47 7.89,13.74 15.4,27.83 20.59,42.84 9.05,22.02 15.48,45.16 18.59,68.79 4.19,32.35 2.89,65.25 -2.16,97.42 12.13,2.25 24.28,4.43 36.38,6.79 4.55,0.29 5.65,5.48 7.96,8.57 15.49,2.38 31.15,4.62 46.07,9.55 6.87,2.13 13.39,8.47 12.47,16.18 -0.3,5.12 -4.26,8.8 -7.29,12.54 12.01,-2.32 23.63,-7 33.82,-13.8 5.67,-3.88 11.48,-9.34 11.44,-16.76 -0.38,-8.92 -6.86,-16.13 -13.59,-21.29 -5.72,-5.13 -11.41,-10.29 -16.9,-15.65 4.65,-12.25 4.75,-26.44 -0.97,-38.37 -5.03,-11.06 -14.81,-18.72 -23.51,-26.77 -34.99,-32.42 -70.14,-64.68 -105.44,-96.78 10.53,-52.06 3.38,-106.91 -16.93,-155.78 -20.02,-49.57 -51.65,-93.56 -87.2,-133.15 -93.19,-105.1 -186.64,-209.99 -279.93,-315 -10.84,-12.13 -18.66,-29.57 -12.88,-45.76 -10.46,22.71 -20.32,45.72 -30.7,68.48zm729.32 -80.28c19.66,-12.94 44.67,-15.85 67.42,-11.09 15.51,3.56 31.09,10.43 41.43,22.95 9.18,10.51 13.72,24.2 16.04,37.77 -14.92,0.1 -29.83,0.01 -44.74,0.05 -5.58,13.87 -11.82,27.47 -17.2,41.39 20.3,0.2 40.61,-0.18 60.92,0.19 -3.97,16.04 -10.89,32.57 -24.23,43 -1.67,2.52 -3.87,4.7 -6.96,5.28 -3.49,4.37 -8.76,6.56 -13.73,8.73 -21.96,8.75 -47.52,5.78 -68.1,-5.3 -17.31,-9.04 -31.53,-24.67 -36.8,-43.7 -5.93,-21.55 -5.71,-44.89 0.88,-66.28 4.18,-13.51 13.12,-25.39 25.07,-32.99zm7.89 2.37l0 0c-12.39,6.62 -22.55,17.81 -26.67,31.38 -6.72,20.57 -6.79,43.19 -1.24,64.02 6.19,22.78 26.38,39.25 48.34,45.89 17.79,5.26 38,5.02 54.53,-4.08 16.23,-8.75 27.66,-24.74 32.92,-42.19 -20.74,0 -41.49,-0.1 -62.22,0.05 7.31,-18.1 15.24,-35.96 22.56,-54.07 13.61,-0.37 27.23,-0.03 40.85,-0.16 -2.35,-8.99 -5.65,-17.88 -11.32,-25.32 -8.52,-11.62 -22.01,-18.4 -35.65,-22.01 -20.54,-5.25 -43.28,-3.69 -62.1,6.49zm293.02 -13.36c12.64,0.26 26.36,2.12 36.41,10.48 8.38,6.8 10.36,19.53 5.8,29.06 -3.63,6.58 -9.94,11.36 -16.74,14.34 -8.53,3.62 -17.65,5.77 -26.88,6.38 0.94,-20.07 0.98,-40.17 1.41,-60.26zm6.05 6.53l0 0c-0.74,15.73 -0.65,31.48 -1.07,47.22 8.78,-1.7 17.6,-4.37 24.88,-9.76 9.38,-5.82 11.63,-20.12 4.16,-28.35 -7.32,-7.28 -18.24,-8.19 -27.97,-9.11zm459.25 268.39c17.63,-6.74 37.13,-7.6 55.6,-4.29 15.95,2.99 29.22,12.86 42.66,21.32 -7.21,15.6 -14.3,31.27 -21.66,46.8 -8.5,-1.33 -17.04,-2.42 -25.49,-3.98 -2.21,-3.37 -1.73,-7.96 -3.76,-11.38 -9.44,-4.47 -20.21,-5.07 -30.48,-4.46 -8.23,0.68 -17.35,4.69 -20.01,13.15 -2.85,9.04 -1.66,20.81 6.8,26.54 10.34,7.13 23.48,6.74 35.45,8.35 19.73,2.5 40.45,10.07 52.37,26.89 14.2,20.23 13.57,47.84 3.4,69.69 -12.14,26.42 -36.33,46.58 -63.92,55.23 -17.56,5.77 -36.45,5.47 -54.43,2.08 -6.91,-1.03 -13.54,-3.88 -20.62,-3.39 -19.4,0.81 -38.84,-0.11 -58.23,0.65 -6.79,0 -13.57,0 -20.34,-0.03 -14.94,-31.95 -30.37,-63.65 -45.13,-95.68 -17.99,-0.28 -35.99,-0.03 -53.99,-0.13 -7.07,15.37 -14.34,30.66 -21.71,45.91 6.24,-0.13 12.49,-0.09 18.77,-0.06 -7.53,16.72 -15.22,33.38 -22.9,50.03 -46.55,0.07 -93.14,-0.37 -139.69,0.22 -18.81,-26.2 -37.74,-52.35 -56.74,-78.42 -19.73,25.58 -38.36,51.98 -57.23,78.2 -28.97,-0.02 -57.95,-0.19 -86.92,0.08 17.72,-13.91 34.83,-28.65 51.11,-44.23 11.38,-10.46 20.17,-23.22 29.75,-35.27 10.64,-13.59 21.18,-27.27 31.88,-40.82 -13.28,-18.21 -26.5,-36.45 -39.77,-54.65 -5.57,-7.4 -10.65,-15.16 -16.81,-22.08 -2.3,-2.55 -5.23,-5.03 -8.87,-4.82 -14.3,-0.49 -28.55,0.82 -42.85,0.39 7.39,-15.33 14.57,-30.76 21.92,-46.11 22.09,-0.02 44.18,-0.02 66.29,-0.02 18.84,26.65 37.6,53.35 56.37,80.06 19.55,-26.33 38.04,-53.42 57.13,-80.07 26.08,0.04 52.16,-0.02 78.23,0.04 -22.19,25.91 -44.52,51.72 -66.7,77.66 -12.4,14.7 -25.12,29.14 -36.99,44.3 19.2,25.62 39.05,50.72 58.63,76.05 15.74,-1.23 31.57,-0.12 47.34,-0.64 6.94,-15.16 13.05,-30.73 19.66,-46.05 -13.71,0.03 -27.42,0.05 -41.13,-0.04 7.12,-15.85 14.27,-31.68 21.49,-47.49 13.78,0.05 27.57,-0.01 41.36,0.02 16.44,-34.5 32.92,-68.97 49.25,-103.52 12.1,-0.01 24.21,-0.07 36.31,0.04 29.57,63.57 59.39,127.01 89,190.56 1.05,2.46 2.5,4.95 5.15,5.96 6.96,3.1 14.73,3.44 22.24,3.73 0.52,-8.08 1.11,-16.16 1.78,-24.23 8.25,0.77 16.57,1.05 24.79,2.1 5.48,6.48 8.85,15.21 16.71,19.35 8.98,4.42 19.28,3.75 29.03,3.82 9.77,0.17 20.3,-2.27 27.48,-9.31 7.72,-8.72 8.31,-23.51 0.84,-32.52 -6.35,-7.41 -16.82,-6.08 -25.5,-7.39 -24.07,-1.3 -46.47,-14.23 -62.22,-32.05 -15.4,-19.75 -16.17,-48.12 -5.46,-70.23 9.89,-21.27 28.89,-37.73 50.76,-45.86zm-34.69 31.54l0 0c-3.96,5.02 -7.14,10.56 -10.54,15.94 -1.26,3.74 -2.59,7.47 -4.13,11.09 -4.8,17.78 -2.63,37.96 8.22,53.15 9.07,10.27 20.43,18.5 32.92,24.11 11.68,5.43 24.73,6.35 37.39,7.24 7.6,0.4 15.09,4.21 19.52,10.48 6.94,10.12 6.81,24.4 0.43,34.76 -5.47,8.56 -15.51,12.9 -25.17,14.6 -12.83,1.57 -26.3,1.65 -38.67,-2.5 -9.47,-3.32 -14.4,-12.53 -20.19,-19.98 -5.08,-1.35 -10.44,-1.04 -15.61,-1.59 -1.01,7.99 -1.25,16.06 -1.86,24.1 -12.35,0.22 -27.12,0.24 -36.31,-9.22 -6.63,-12.12 -11.86,-25 -17.92,-37.43 -23.82,-51.36 -48.15,-102.49 -71.77,-153.93 -9.44,-0.29 -18.88,0.04 -28.31,-0.2 -5.17,9.71 -9.42,19.87 -14.3,29.71 -11.44,24.65 -23.67,48.96 -34.82,73.74 -13.93,0.46 -27.86,0.07 -41.78,0.21 -5.61,11.6 -10.65,23.46 -15.78,35.27 13.7,0.08 27.41,-0.03 41.12,0.07 -5.71,12.85 -11.2,25.8 -16.59,38.79 -2.99,6.49 -4.95,13.55 -8.66,19.64 -18.05,0.22 -36.1,-0.01 -54.15,0.13 -21.26,-27.29 -42.65,-54.5 -63.53,-82.08 29.21,-34.97 58.85,-69.6 88.27,-104.4 3.08,-3.63 6.48,-7.06 8.91,-11.2 -20.25,0 -40.49,-0.39 -60.74,-0.35 -20.12,28.12 -40.06,56.34 -60.3,84.37 -7.51,-9.23 -13.76,-19.39 -20.77,-29 -12.99,-18.44 -25.94,-36.9 -38.92,-55.34 -19.73,-0.14 -39.46,0.4 -59.18,0.26 -5.44,11.04 -10.5,22.26 -15.84,33.34 11.35,0.36 22.69,-0.42 34.04,-0.17 7.59,-0.28 12.06,6.88 16.46,11.95 18.72,25.16 37.07,50.59 55.4,76.04 -9.56,12.5 -19.35,24.83 -29.03,37.25 -11.09,13.77 -21.04,28.54 -33.66,41 -12.37,12.97 -26.25,24.32 -40.26,35.43 21.97,0.12 43.92,0.26 65.88,0.37 20.39,-27.44 40.42,-55.15 61.02,-82.42 20.49,27.71 40.27,55.98 61.01,83.51 1.53,-0.34 3.07,-0.74 4.61,-1.19 42.2,-0.48 84.41,0.13 126.62,0.14 5.76,-12.51 11.39,-25.1 17.36,-37.53 -6.38,-0.08 -12.75,0.03 -19.12,-0.09 8.86,-19.66 18.61,-38.93 27.74,-58.48 20.59,0.17 41.17,-0.15 61.77,0.17 14.76,32 30.25,63.68 45.1,95.63 27.23,-0.06 54.47,-0.57 81.7,-0.17 10.02,2.08 20.05,4.58 30.34,4.93 31.75,3.26 64.03,-11.5 83.96,-36.09 13.1,-15.92 20.79,-36.87 18.54,-57.59 -1.11,-13.31 -7.41,-26.31 -17.9,-34.72 -12.47,-10.09 -28.68,-14.07 -44.35,-15.57 -11.45,-1.04 -23.62,-2.17 -33.32,-8.93 -7.76,-5.16 -11.42,-14.81 -10.75,-23.89 -0.49,-10.7 6.33,-21.21 16.56,-24.64 13.19,-4.65 27.94,-3.1 41.03,1.19 4.13,1.11 7.6,4.44 7.41,8.97 0.68,1.4 1.37,2.81 2.07,4.22 5.42,1.72 11.06,2.45 16.74,2.64 5.19,-12.83 11.89,-25.04 16.86,-37.95 -14.87,-10.83 -32.24,-19.81 -51.16,-18.97 -27.68,-1.98 -55.72,10.04 -73.61,31.18zm-753.68 -35.75c59.69,-0.19 119.37,-0.01 179.05,-0.08 -10.42,20.47 -20.35,41.2 -30.71,61.71 -14.52,-0.04 -29.03,-0.08 -43.55,0.03 -0.14,-5.11 -0.08,-10.2 -0.05,-15.31 -14.07,0.06 -28.12,0 -42.18,0.01 0.02,19.14 0,38.27 0.01,57.4 38.37,-0.03 76.75,0.01 115.1,-0.02 -7.36,16.13 -14.97,32.16 -22.3,48.3 -31.05,0.39 -62.12,-0.03 -93.17,0.22 0.23,15.22 -0.2,30.43 0.4,45.64 38.49,-0.04 76.99,0 115.49,-0.02 -6.85,12.03 -13.76,24 -20.72,35.96 -4.63,7.82 -12.95,13.97 -22.29,13.98 -36.88,-0.25 -73.76,-0.04 -110.63,-0.11 -13.02,-0.12 -26.03,0.33 -39.01,-0.4 3.75,-6.82 7.68,-13.55 11.5,-20.33 3.42,-6.04 7.27,-12.21 7.9,-19.29 0.85,-7.42 0.39,-14.89 0.5,-22.33 0.04,-46.4 -0.08,-92.8 0.06,-139.2 -8.07,-0.16 -16.13,-0.04 -24.19,-0.1 6.08,-15.42 12.57,-30.68 18.79,-46.06zm3.74 6.28l0 0c-4.36,11.17 -8.61,22.39 -13.38,33.41 7.05,0.93 14.17,0.33 21.25,0.54 -0.07,53.95 0.13,107.9 -0.09,161.84 0.54,14.83 -8.99,26.91 -15.69,39.29 43.65,0.22 87.31,0.01 130.96,0.09 3.72,-0.02 7.46,0.2 11.18,-0.22 6.61,-1.16 11.89,-6.1 14.97,-11.86 4.68,-8.53 9.89,-16.76 14.31,-25.43 -36.96,-0.32 -73.92,0.43 -110.88,0.19 -0.02,-19.4 -0.2,-38.83 0.09,-58.25 31.68,0.08 63.36,0.25 95.04,-0.08 5.53,-11.99 10.95,-24.03 16.68,-35.95 -37.24,0.44 -74.48,-0.03 -111.7,0.23 -0.31,-23.29 -0.13,-46.6 -0.11,-69.9 18.19,0 36.38,0.01 54.57,0 0.05,4.99 0.05,10.01 -0.04,15 11.24,0.38 22.49,0.13 33.73,0.16 7.92,-16.48 16.31,-32.72 24.45,-49.08 -55.13,-0.18 -110.23,-0.18 -165.34,0.02zm581.5 98.38l0 0c4.79,0.01 9.58,-0.03 14.38,-0.02 -2.35,-5.51 -4.67,-11.03 -6.96,-16.57 -2.97,5.29 -5,11.04 -7.42,16.59z"/>
   <path class="fil1" d="M1015 606.7c69.69,-0.06 139.37,0.01 209.07,-0.05 -14.27,29.63 -29.35,58.87 -43.76,88.42 -21.79,0.1 -43.56,-0.04 -65.35,0.08 0.25,-5.16 0.15,-10.34 0.22,-15.5 -5.26,-0.11 -10.51,-0.07 -15.75,-0.07 0.04,10.77 0.01,21.54 0.01,32.31 40.73,0.01 81.47,-0.08 122.19,0.04 -11.58,24.5 -22.86,49.14 -34.2,73.77 -29.43,-0.03 -58.86,-0.01 -88.29,-0.01 -0.02,6.31 0,12.64 0.01,18.95 41.9,-0.06 83.79,0.03 125.7,-0.04 -10.95,18.75 -21.58,37.68 -32.49,56.45 -6.62,11.38 -18.91,19.72 -32.23,20.18 -58.14,-0.11 -116.3,0.15 -174.42,-0.34 7.32,-12.63 14.41,-25.39 21.68,-38.05 3.62,-6.53 8.33,-13.03 8.02,-20.88 0.17,-47.43 -0.05,-94.87 0.12,-142.31 -10.76,-0.17 -21.5,-0.06 -32.24,-0.07 10.42,-24.36 21.26,-48.55 31.71,-72.88zm593.74 118.08c2.42,-5.55 4.45,-11.3 7.42,-16.59 2.29,5.54 4.61,11.06 6.96,16.57 -4.8,-0.01 -9.59,0.03 -14.38,0.02zm-980.39 -492.34l77.99 0c35.76,40.69 71.38,81.53 107.55,121.87 8.23,9.18 16.43,18.4 24.97,27.29 0.06,-21.48 0.11,-42.93 -0.29,-64.39 -14.34,-0.05 -28.7,0.02 -43.04,-0.04 12.06,-28.23 23.06,-56.91 36.04,-84.73l150.73 0c-12.17,27.78 -23.93,55.74 -35.78,83.65 -5.6,0.01 -11.16,0 -16.74,0.05 0,83.3 -0.04,166.61 0.02,249.9 -19.26,-0.01 -38.52,0.08 -57.77,-0.03 -2.53,0.18 -3.95,-2.34 -5.62,-3.76 -45.23,-47.68 -91.27,-94.61 -135.44,-143.27 -0.11,20.78 -0.04,41.56 -0.04,62.34 13.7,-0.04 27.41,0.04 41.11,-0.05 -11.3,28.35 -23.14,56.47 -34.58,84.77 -48.24,0.01 -96.49,0.04 -144.74,-0.03 11.31,-28.28 22.74,-56.52 34.12,-84.77 4.24,0.07 8.47,0.07 12.71,0.08 -0.02,-53.34 0.01,-106.67 -0.02,-160.01 -18.23,0.07 -36.47,0.01 -54.72,0.03 14.54,-29.63 29.07,-59.24 43.54,-88.9zm8.69 13.88c-10.12,20.36 -19.96,40.87 -30.05,61.26 15.59,0.27 31.2,-0.13 46.79,0.19 -0.25,62.42 0.08,124.84 -0.17,187.26 -5.66,-0.09 -11.32,-0.03 -16.98,-0.05 -7.69,19.05 -15.22,38.18 -23.09,57.15 38.11,0.15 76.22,0.05 114.33,0.04 7.87,-18.9 15.83,-37.78 23.63,-56.72 -11.47,0.06 -22.93,0.09 -34.36,-0.49 0.15,-37.28 -0.69,-74.55 -0.24,-111.83 10.97,11.78 21.72,23.74 32.6,35.61 37.27,40.63 75.79,80.09 113.78,120.06 4.44,4.21 8.15,9.22 13,12.98 13.18,0.39 26.37,0.6 39.56,0.32 -0.15,-82.85 0.08,-165.7 -0.11,-248.55 7.09,-0.11 14.18,0.07 21.26,-0.13 8.09,-19.24 16.35,-38.43 24.66,-57.58 -20.16,0.15 -40.33,-0.47 -60.44,0.45 -20.24,0 -40.48,-0.05 -60.7,0.03 -8.09,19.05 -16.25,38.06 -24.16,57.17 12.1,0 24.2,0.09 36.31,-0.04 0.15,37.1 0.06,74.19 0.06,111.28 -39.25,-43.17 -78.37,-86.44 -117.53,-129.69 -12.06,-12.93 -23.51,-26.51 -35.84,-39.13 -8.4,-0.21 -16.82,-0.25 -25.19,0.34 -12.38,0.1 -24.76,-0.03 -37.12,0.07zm374.04 66.92c28.86,-17.35 62.64,-26.21 96.28,-25.75 26.92,0.25 54.42,6.46 77.08,21.48 28.07,18.22 45.9,49.04 52.98,81.28 13.7,-0.04 27.4,0.11 41.11,-0.1 -0.24,-7.07 0.51,-14.12 0.19,-21.19 -13.05,0.2 -26.1,-0.54 -39.17,-0.21 11.36,-25.44 22.59,-50.96 34.07,-76.36 29.54,0.1 59.09,0.03 88.65,0.04 22.51,-0.51 45.3,6.66 63.02,20.68 13.03,10.32 23.22,24.73 26.82,41.1 3.87,18.18 0.34,37.6 -8.45,53.88 -5.71,10.87 -13.91,20.28 -23.12,28.32 14.36,14.95 28.54,30.08 43.08,44.86 7.54,7.91 19.25,8.18 29.41,8.98 14.19,0.54 28.4,0.77 42.59,0.01 -0.12,-32.54 0.4,-65.06 0.39,-97.6 -1.18,1.55 -2.02,3.41 -3.45,4.73 -24.9,0.26 -49.8,0.03 -74.69,-0.22 15.82,-34.97 32.08,-69.73 47.95,-104.67 69.66,-0.18 139.32,0.03 208.97,-0.1 -14.69,35 -29.36,70.01 -43.95,105.04 -15.67,-0.12 -31.31,0.24 -46.97,0.28 -0.19,30.73 -0.03,61.47 -0.08,92.2 13.18,-0.02 26.36,0.02 39.55,-0.03 -11.82,25.44 -23.42,50.98 -35.12,76.48 -66.06,0.06 -132.13,-0.22 -198.19,0.25 -21.62,-24.32 -43.04,-48.85 -64.93,-72.94 1.31,24.32 0.54,48.69 0.71,73.02 -42.39,-0.73 -84.79,-0.19 -127.19,-0.3 11.35,-25.43 22.83,-50.8 34.03,-76.3 2.03,-0.11 4.09,-0.18 6.18,-0.25 0.06,-6.26 -0.43,-12.49 -0.36,-18.73 -14.97,0.04 -29.97,0.07 -44.93,-0.02 -7.64,24.08 -21.36,46.32 -40.23,63.21 -23.25,21.18 -53.54,33.89 -84.61,37.82 -27.38,3.42 -55.88,1.5 -81.75,-8.6 -22.11,-8.48 -41.85,-23.29 -55.67,-42.58 -16.18,-22.19 -24.17,-49.64 -25.15,-76.91 -1.2,-28.71 3.82,-58.31 18.26,-83.46 10.98,-19.59 27.59,-35.7 46.69,-47.34zm44.44 -5.17c-25.16,7.76 -49.31,20.93 -66.6,41.15 -18.56,21.13 -28.01,49.14 -29.38,77 -1.6,27.19 2.95,55.46 17.13,79.05 10.75,18.38 27.25,33.25 46.52,42.28 26.07,12.48 55.97,14.96 84.36,11.35 28.99,-3.71 57.3,-15.65 78.77,-35.72 18.84,-17.27 31.69,-40.57 37.53,-65.38 22.77,-0.08 45.54,0 68.33,-0.05 -0.28,15.18 -0.55,30.37 0.04,45.55 -3.64,-0.01 -7.25,-0.02 -10.87,-0.05 -7.25,16.59 -15.02,32.99 -21.84,49.76 30.88,-0.09 61.75,0.47 92.65,0.31 0.04,-31.22 -1.01,-62.42 -1.37,-93.62 28.65,30.96 56.96,62.26 85.26,93.59 61.3,0.17 122.58,-0.5 183.89,-0.33 7.52,-16.59 15.28,-33.05 22.73,-49.66 -10.74,0 -21.47,-0.11 -32.21,0.04 -0.81,-15.08 -0.46,-30.19 -0.51,-45.3 0,-34.14 -0.03,-68.28 0,-102.41 6.09,-0.02 12.18,0 18.27,0.01 0.03,9.58 0.03,19.17 0.01,28.75 11.17,0 22.36,0.09 33.54,-0.03 10.82,-26.15 22.18,-52.07 32.85,-78.27 -60.1,-0.41 -120.22,-0.31 -180.34,-0.23 -11.8,26.14 -23.88,52.16 -35.8,78.25 15.82,-0.04 31.66,0.03 47.48,-0.04 4.93,-9.52 10.1,-18.92 15.05,-28.44 2.75,0 5.52,0 8.32,0 0.01,35.06 0,70.12 0.01,105.18 -0.11,14.18 0.33,28.44 -0.65,42.59 -16.94,1.07 -33.98,0.8 -50.94,0.3 -14.5,-1.08 -30.61,-1.71 -42.24,-11.57 -18.37,-18.85 -36.85,-37.6 -54.62,-57 19.54,-12.52 35.8,-32.34 38.73,-55.97 2.89,-15.51 -1.41,-31.98 -11.3,-44.22 -14.45,-18.19 -37.66,-28.19 -60.59,-29.11 -28.61,-0.05 -57.21,0 -85.82,-0.03 -7.31,16.63 -14.68,33.23 -22.03,49.84 10.66,-0.01 21.32,-0.03 31.98,0 0.17,15.89 -0.41,31.8 0.4,47.67 -21.81,-0.01 -43.62,0.03 -65.44,-0.01 -3.69,-23.95 -13.17,-47.45 -29.41,-65.68 -15.75,-17.75 -37.81,-29.28 -60.98,-33.81 -26.76,-5.36 -54.8,-3.52 -80.91,4.26zm672.55 -15.67c29.14,0.09 58.28,-0.02 87.43,0.06 -0.36,30.75 0.42,61.49 -0.46,92.22 18.44,0.07 36.88,0 55.32,0.03 0.5,-5.36 0.51,-10.77 -0.37,-16.1 -11.13,0.19 -22.28,0.07 -33.41,0.08 11.53,-25.3 23.04,-50.62 34.47,-75.97 42.99,0 85.97,0.06 128.95,-0.02 -11.66,25.27 -23.5,50.48 -34.86,75.9 -2.04,0.07 -4.07,0.11 -6.06,0.15 0,40.39 0.03,80.77 -0.01,121.17 11,0.01 22.01,0 33.01,-0.03 -11.42,25.55 -23.25,50.91 -34.69,76.44 -42.51,0.07 -85.02,0 -127.53,0.03 11.67,-25.47 23.32,-50.96 34.98,-76.46 1.76,0.02 3.54,0.03 5.34,0.04 0.01,-8.32 0,-16.64 0.01,-24.94 -18.36,0.01 -36.72,-0.03 -55.09,0.03 0.03,33.77 -0.07,67.56 0.33,101.34 -45.65,-0.3 -91.28,0.46 -136.93,0.24 14.28,-25.49 28.32,-51.11 42.45,-76.68 2.47,-0.03 4.97,-0.05 7.48,-0.11 -0.1,-40.37 -0.03,-80.75 -0.03,-121.11 -11.11,0.02 -22.23,-0.03 -33.33,0.01 11.08,-25.39 22.15,-50.8 33,-76.32zm8.37 13.46c-7.03,16.53 -14.23,32.97 -21.29,49.49 8.86,-0.04 17.74,-0.02 26.62,-0.02 -0.01,49.29 -0.05,98.57 0.03,147.85 -4.33,0.12 -8.65,0.11 -12.96,0.11 -8.92,16.71 -18.16,33.28 -27.09,50 33.35,-0.01 66.68,0.03 100.03,-0.03 -0.11,-33.86 0.06,-67.72 -0.08,-101.58 27.3,-0.12 54.6,0 81.9,-0.07 -0.07,17.24 -0.03,34.49 -0.03,51.72 -3.57,-0.05 -7.21,-0.3 -10.69,0.57 -1.31,1.11 -1.63,2.95 -2.39,4.39 -6.5,15.07 -13.74,29.83 -20.01,45 32.64,0 65.3,-0.01 97.96,0 7.55,-16.69 15.36,-33.28 22.8,-50.03 -8.53,0.04 -17.06,0.04 -25.57,-0.01 0.12,-49.32 0.04,-98.65 0.04,-147.96 3.5,0 7.03,0.07 10.56,0.31 7.57,-16.64 15.24,-33.24 22.99,-49.81 -33.16,0.07 -66.35,-0.05 -99.51,0.06 -7.35,16.65 -15.04,33.16 -22.42,49.8 8.71,-0.47 17.42,-0.26 26.14,-0.37 0.26,14.18 0.07,28.35 -0.24,42.51 -27.04,0.14 -54.09,0.39 -81.16,0.35 -0.19,-30.73 0.32,-61.48 -0.27,-92.21 -21.78,-0.26 -43.57,-0.11 -65.36,-0.07zm-1657.19 16.02c4.68,11.25 10.04,22.28 14.14,33.76 -4.75,16.39 -1.08,35.38 11.54,47.31 63.65,58.59 127.69,116.76 191.26,175.42 -2.65,-10.18 -0.45,-20.79 4.51,-29.9 7.75,-17.26 15.25,-34.62 23.05,-51.87 -5.71,-7.61 -11.62,-15.04 -17.68,-22.37 -3.75,-4.57 -5.73,-10.38 -6.17,-16.22 -0.68,-9.72 0.77,-19.73 5.09,-28.52 13.94,-30.2 27.38,-60.66 41.63,-90.71 4.83,12.08 9.94,24.07 14.68,36.2 -1.7,6.1 -1.13,12.6 1.07,18.51 4.46,12.73 15.02,21.74 23.39,31.88 90.11,101.65 180.46,203.07 270.62,304.68 19.15,-41.04 37.86,-82.3 56.9,-123.4 93.98,0.07 187.94,-0.05 281.92,0.07 -17.67,41.31 -35.48,82.58 -53.06,123.93 -18.99,0.32 -38,0.05 -56.99,0.14 -1.09,-13.52 -0.39,-27.1 -0.61,-40.63 -3,0.01 -6.01,0 -9,0 -0.22,55.06 0.06,110.12 0.24,165.19 14.33,0.05 28.67,0.02 43,0.01 -11.42,27.92 -22.97,55.8 -34.38,83.72 -40.75,-0.12 -81.49,0.14 -122.23,-0.29 3.16,25.38 3.28,51.22 -1.16,76.46 31.45,29.84 63.02,59.58 95.25,88.59 8.24,7.45 17.22,14.34 23.52,23.63 10.6,14.92 14.04,34.33 10.23,52.15 9.33,7.71 18.41,16.29 23.88,27.27 3.16,6.45 5.39,14.04 3.18,21.15 -2.88,11.08 -12.04,19.09 -21.33,25 -19.97,11.67 -45.33,13.98 -67.05,6 6.03,-4.12 12.33,-7.87 18.06,-12.42 2.84,-2.52 6.6,-5.76 5.47,-10.02 -3.16,-3.01 -7.78,-3.56 -11.84,-4.53 -13.38,-2.49 -26.95,-4.11 -40.52,-5.22 -1.95,-3.1 -3.54,-6.44 -5.89,-9.25 -9.83,-2.14 -19.81,-4.54 -29.79,-5.55 -9.98,4.94 -19.59,10.68 -29.39,16.01 6.37,11.79 12.94,23.47 19.23,35.31 9.83,-2.33 20.18,-3.49 30.16,-1.37 9.21,2.03 17.97,7.43 22.76,15.72 7.72,13 6.77,30.13 -1.01,42.89 -8.21,14.09 -21.9,23.69 -35.55,32 0.93,-8.38 2.73,-16.75 2.5,-25.2 -0.31,-3.48 -0.73,-8.39 -4.74,-9.51 -10.72,-1.48 -21.11,3.78 -29.05,10.59 -11.94,10.12 -16.39,25.74 -23.61,39.08l-0.38 0c-5.23,-8.44 -10.54,-16.82 -15.35,-25.49 -5.02,-10.45 -6.8,-22.7 -3.06,-33.85 -41.42,-28.57 -78.49,-63.47 -109.43,-103.13 -3.17,-3.62 -5.22,-8.7 -10.05,-10.43 -14.66,-6.41 -29.34,-12.77 -43.99,-19.19 -32.03,10.05 -64.02,20.24 -96.17,29.91 -19.36,5.5 -40.13,10.43 -60.15,5.46 -15.36,-3.85 -26.08,-16.18 -37.18,-26.58 -57.79,-54.92 -115.55,-109.89 -173.35,-164.77 14.49,0.06 28.98,-0.14 43.49,0.09 5.15,4.77 12.11,6.58 18.79,8.02 10.38,2.17 21.02,2.25 31.58,2.19 63.7,0 127.39,0 191.08,0 -132.44,-78.81 -264.79,-157.79 -397.09,-236.82 -11.72,-6.82 -23.38,-14.19 -32.62,-24.24 -8.26,-8.65 -14.07,-20.33 -13.25,-32.51 0.48,-7.4 3.47,-14.25 6.71,-20.8 8.11,-17.16 16.05,-34.41 24.16,-51.56 -18.52,-13.03 -36.24,-30.9 -39.22,-54.42l0 -10.98c1.01,-8.62 3.97,-16.88 8.04,-24.53 8.54,-17.38 16.79,-34.92 25.46,-52.24 -8.08,-8.8 -15.06,-19.02 -17.95,-30.77 -4.06,-15.44 -1.19,-32.09 5.91,-46.18 19.38,-40.91 37.71,-82.31 57.79,-122.87zm-1.11 19.4c-16.88,36.58 -33.93,73.08 -50.9,109.61 -5.13,11.33 -7.32,24.3 -4.5,36.52 2.77,12.67 10.57,23.77 20.12,32.33 -7.82,17.1 -16.38,33.88 -24.48,50.87 -3.73,7.94 -8.41,15.65 -9.85,24.43 -1.87,9.44 -0.53,19.45 3.56,28.14 7.76,16.34 22.34,28.02 37.04,37.89 -9.19,19.74 -18.48,39.44 -27.63,59.2 -1.83,3.88 -3.89,7.75 -4.68,12.02 -2.04,8.77 0.64,18.14 5.85,25.31 9.25,13.19 23.51,21.5 37.09,29.57 139.8,83.68 279.95,166.82 419.76,250.52 -72.62,-0.13 -145.22,-0.02 -217.85,-0.06 -18.24,0.26 -37.5,-0.33 -53.87,-9.36 -6.97,-1.19 -14.09,-0.44 -21.13,-0.61 13.33,13.28 27.19,26.03 40.78,39.05 39.01,37.13 78.07,74.2 117.09,111.33 6.67,6.13 12.86,12.87 20.18,18.27 7.35,5.43 16.43,8.31 25.53,8.66 18.33,0.81 36.17,-4.5 53.52,-9.79 29.38,-8.96 58.68,-18.25 87.98,-27.47 2.02,-1.02 4.03,0.46 5.9,1.14 14.81,6.5 29.65,13 44.52,19.39 4.6,1.53 6.53,6.33 9.48,9.76 32.02,41.64 70.88,78.08 114.57,107.24 -3.81,7.23 -4.74,15.8 -2.8,23.72 1.56,8.01 6.16,14.91 10.51,21.66 0.26,0.03 0.8,0.1 1.06,0.13 3.46,-6.44 6.01,-13.45 10.63,-19.2 9.22,-11.9 23.38,-20.2 38.5,-21.34 4.17,-0.15 9.42,-0.01 11.89,3.98 4.56,7.28 3.39,16.35 2.5,24.44 11.55,-8.68 21.92,-20.3 25.58,-34.59 3.82,-13.53 -4.5,-28.97 -17.75,-33.47 -11.81,-4.09 -24.6,-1.66 -36.2,1.91 -8.62,-15.88 -17.4,-31.69 -25.97,-47.61 11.52,-6.46 23.15,-12.71 34.68,-19.12 2.06,-1.01 4.14,-2.76 6.6,-1.91 11.26,2.16 22.5,4.43 33.75,6.59 1.7,2.87 3.2,5.9 5.22,8.57 16.07,2.11 32.68,2.92 47.91,9.04 3.58,1.58 7.93,3.75 8.76,8 -0.68,8.93 -7.85,15.12 -14.1,20.64 17.66,-0.36 36.29,-3.47 50.68,-14.44 7.26,-5.85 15.18,-14.18 12.58,-24.42 -3.79,-15.51 -17.19,-25.91 -29.17,-35.31 6.66,-20.96 0.11,-45.02 -15.78,-60.12 -38.39,-34 -75.73,-69.16 -112.88,-104.51 7.47,-39.18 3.89,-79.89 -6.13,-118.29 -14.75,-56.12 -45.13,-107.27 -83.61,-150.37 -94.69,-107.4 -190.2,-214.06 -285.1,-321.29 -7.49,-8.85 -16.26,-17 -20.93,-27.83 -3.74,-7.82 -4.81,-16.59 -3.89,-25.14 -1.96,-5.57 -4.62,-10.86 -6.97,-16.28 -11.74,25.75 -23.46,51.51 -35.12,77.3 -3.73,11.24 -5.78,25.73 3,35.21 6.62,7.89 12.79,16.12 19.2,24.18 -9.17,20.56 -18.3,41.13 -27.42,61.7 -3.2,6.69 -3.22,14.59 -0.85,21.53 2.65,7.55 8.13,13.67 14.03,18.92 79.16,76.33 158.32,152.67 237.5,228.99 9.83,9.73 20.18,18.97 29.71,28.99 -33.12,-29.71 -65.54,-60.19 -98.43,-90.16 -128.6,-118.29 -257.28,-236.51 -385.87,-354.81 -15.05,-12.97 -21.24,-34.43 -16.5,-53.59 -0.74,-5.56 -4.42,-10.59 -6.9,-15.66zm644.04 279.41c-14.68,32.12 -29.68,64.1 -44.44,96.18 16.53,-0.12 33.02,0.36 49.53,0.56 8.25,-13.54 16.07,-27.34 24.21,-40.95 12.53,0.04 25.06,-0.01 37.59,0.03 -0.03,64.24 -0.02,128.47 0,192.72 -5.54,-0.01 -11.06,-0.03 -16.59,0.01 -5.09,13.03 -10.55,25.92 -15.56,38.99 0.36,3.22 1.21,6.4 2.08,9.55 -1.12,1.56 -1.08,3.85 0.6,5.01 0.26,0.62 0.78,1.87 1.05,2.49 38.15,-0.5 76.33,-0.08 114.51,-0.21 7.78,-18.57 15.36,-37.23 23.32,-55.73 -12.22,-0.26 -24.44,-0.07 -36.65,-0.11 -0.03,-64.25 0.04,-128.48 -0.05,-192.72 12.03,-0.07 24.05,0.07 36.08,-0.09 -0.11,13.53 0.89,27 0.55,40.52 11.49,-0.01 22.98,-0.01 34.47,0 13.9,-32.07 27.74,-64.17 41.53,-96.3 -84.08,0.07 -168.15,-0.03 -252.23,0.05zm13.85 110.01c-26.35,0.22 -52.7,-0.01 -79.05,0.13 4.59,5.33 9.3,10.56 13.89,15.9 35.68,40.49 64.2,87.78 80.1,139.53 4.25,-10.18 8.49,-20.37 12.43,-30.67 3.89,-0.66 7.84,-0.58 11.77,-0.49 0.3,-54.97 -0.53,-109.92 -0.25,-164.89 -5.14,-0.07 -10.26,-0.01 -15.38,-0.09 -8,13.42 -15.86,26.95 -23.51,40.58zm317.52 -367.93c18.82,-10.18 41.56,-11.74 62.1,-6.49 13.64,3.61 27.13,10.39 35.65,22.01 5.67,7.44 8.97,16.33 11.32,25.32 -13.62,0.13 -27.24,-0.21 -40.85,0.16 -7.32,18.11 -15.25,35.97 -22.56,54.07 20.73,-0.15 41.48,-0.05 62.22,-0.05 -5.26,17.45 -16.69,33.44 -32.92,42.19 -16.53,9.1 -36.74,9.34 -54.53,4.08 -21.96,-6.64 -42.15,-23.11 -48.34,-45.89 -5.55,-20.83 -5.48,-43.45 1.24,-64.02 4.12,-13.57 14.28,-24.76 26.67,-31.38zm24.7 5.18c-14.86,2.88 -29.9,10.96 -36.64,25.09 -7.33,16.91 -7.96,36.05 -5.02,54.02 2.12,12.89 8.88,25.14 19.52,32.89 15.74,12.4 37.36,17.52 56.8,12.08 10.87,-3.54 21.31,-10.67 26.7,-20.91 -20.15,0.27 -40.29,-0.28 -60.45,-0.24 11.21,-26.91 22.65,-53.74 33.9,-80.63 9.97,-0.02 19.95,0.01 29.92,-0.02 -3.78,-6.05 -8.81,-11.45 -15.12,-14.89 -14.99,-8.24 -32.89,-10.38 -49.61,-7.39zm274.37 -12.01c9.73,0.92 20.65,1.83 27.97,9.11 7.47,8.23 5.22,22.53 -4.16,28.35 -7.28,5.39 -16.1,8.06 -24.88,9.76 0.42,-15.74 0.33,-31.49 1.07,-47.22zm8.58 11.45c-0.04,7.74 -0.55,15.46 -0.42,23.2 3.62,-0.83 7.37,-1.76 10.35,-4.09 4.58,-3.04 5.66,-10.11 2.23,-14.39 -3.09,-3.44 -7.95,-3.79 -12.16,-4.72zm435.81 248.65c22.41,-11.5 48.71,-13.65 73.27,-9.25 21.51,4.06 38.8,18.29 56.99,29.46 -9.99,21.78 -20.16,43.45 -30.04,65.29 -15.17,-1.89 -30.22,-4.61 -45.35,-6.72 -1.33,-3.89 -2.53,-7.81 -3.5,-11.78 -7.28,-1.92 -15.15,-2.6 -22.48,-0.75 -7.19,1.58 -6.88,13.15 -0.63,15.78 9.27,4.38 19.86,3.44 29.75,5.15 20.74,2.95 41.86,11.01 55.69,27.39 18,21.12 20.89,52.06 12.12,77.75 -12.23,35.86 -43.83,63.73 -80.1,73.69 -19.05,5.33 -39.26,4.61 -58.5,0.83 -5.47,-0.98 -10.81,-2.99 -16.43,-2.62 -28.19,0.24 -56.37,0.21 -84.56,0.67 -2.57,0.95 -3.29,-1.76 -4.09,-3.37 -14.55,-30.96 -29.32,-61.83 -43.9,-92.8 -12.25,-0.01 -24.49,-0.03 -36.72,0.39 -2.69,6.43 -5.74,12.72 -8.75,19 6.06,-0.01 12.14,0 18.21,0 -11.68,25.74 -23.49,51.42 -35.27,77.1 -51.63,-0.09 -103.27,-0.06 -154.9,-0.02 -16.85,-23.17 -33.45,-46.52 -50.36,-69.66 -16.86,22.82 -33.1,46.07 -49.37,69.32 -43.38,0.08 -86.77,-0.09 -130.15,0.08 17.68,-14.45 35.18,-29.11 52.36,-44.15 11.98,-10.81 24.41,-21.25 35.06,-33.43 14.77,-18.8 29.42,-37.69 44.16,-56.51 -16.58,-22.67 -33.07,-45.39 -49.96,-67.83 -20.82,0.09 -41.64,0.03 -62.46,0.05 11.52,-24.33 23.05,-48.63 34.66,-72.9 26.33,-0.25 52.63,0.87 78.98,0.44 3.58,-0.91 4.74,3.03 6.56,5.22 15.34,21.64 30.26,43.61 45.94,64.95 11.06,-14.69 21.79,-29.62 32.7,-44.43 6.48,-8.01 11.13,-17.18 16.03,-26.18 37.93,0.77 75.9,0.41 113.85,0.82 -38.18,44.97 -76.58,89.77 -114.43,135.02 15.21,21.1 31.19,41.65 47.23,62.13 11.04,-0.07 22.08,0.07 33.13,-0.09 2.75,-6.43 5.48,-12.87 8.29,-19.27 -14.02,-0.08 -28.06,-0.01 -42.08,-0.04 11.02,-24.32 22.2,-48.54 33.12,-72.89 13.79,0 27.59,0 41.39,0 16.76,-34.9 33.3,-69.88 49.85,-104.88 17.86,-0.07 35.73,-0.04 53.6,-0.01 30.74,65.86 61.49,131.73 92.38,197.51 0.7,0.18 2.12,0.53 2.81,0.71 1.23,-7.8 1.11,-15.72 2.16,-23.51 14.81,1.58 29.73,2.19 44.53,3.9 5.04,5.6 7.92,13.06 13.66,18.12 5.31,4.17 12.42,4.32 18.87,4.59 8.02,0.02 17.28,0.12 23.62,-5.61 3.07,-4.57 3.75,-14.13 -2.95,-15.63 -13.4,-1.66 -27.27,-1.78 -39.95,-6.99 -15.02,-5.62 -28.61,-14.74 -40.08,-25.91 -18.44,-18.36 -24.18,-46.9 -18.27,-71.77 6.62,-28.96 27.81,-53.48 54.31,-66.36zm14.86 8.29c-21.87,8.13 -40.87,24.59 -50.76,45.86 -10.71,22.11 -9.94,50.48 5.46,70.23 15.75,17.82 38.15,30.75 62.22,32.05 8.68,1.31 19.15,-0.02 25.5,7.39 7.47,9.01 6.88,23.8 -0.84,32.52 -7.18,7.04 -17.71,9.48 -27.48,9.31 -9.75,-0.07 -20.05,0.6 -29.03,-3.82 -7.86,-4.14 -11.23,-12.87 -16.71,-19.35 -8.22,-1.05 -16.54,-1.33 -24.79,-2.1 -0.67,8.07 -1.26,16.15 -1.78,24.23 -7.51,-0.29 -15.28,-0.63 -22.24,-3.73 -2.65,-1.01 -4.1,-3.5 -5.15,-5.96 -29.61,-63.55 -59.43,-126.99 -89,-190.56 -12.1,-0.11 -24.21,-0.05 -36.31,-0.04 -16.33,34.55 -32.81,69.02 -49.25,103.52 -13.79,-0.03 -27.58,0.03 -41.36,-0.02 -7.22,15.81 -14.37,31.64 -21.49,47.49 13.71,0.09 27.42,0.07 41.13,0.04 -6.61,15.32 -12.72,30.89 -19.66,46.05 -15.77,0.52 -31.6,-0.59 -47.34,0.64 -19.58,-25.33 -39.43,-50.43 -58.63,-76.05 11.87,-15.16 24.59,-29.6 36.99,-44.3 22.18,-25.94 44.51,-51.75 66.7,-77.66 -26.07,-0.06 -52.15,0 -78.23,-0.04 -19.09,26.65 -37.58,53.74 -57.13,80.07 -18.77,-26.71 -37.53,-53.41 -56.37,-80.06 -22.11,0 -44.2,0 -66.29,0.02 -7.35,15.35 -14.53,30.78 -21.92,46.11 14.3,0.43 28.55,-0.88 42.85,-0.39 3.64,-0.21 6.57,2.27 8.87,4.82 6.16,6.92 11.24,14.68 16.81,22.08 13.27,18.2 26.49,36.44 39.77,54.65 -10.7,13.55 -21.24,27.23 -31.88,40.82 -9.58,12.05 -18.37,24.81 -29.75,35.27 -16.28,15.58 -33.39,30.32 -51.11,44.23 28.97,-0.27 57.95,-0.1 86.92,-0.08 18.87,-26.22 37.5,-52.62 57.23,-78.2 19,26.07 37.93,52.22 56.74,78.42 46.55,-0.59 93.14,-0.15 139.69,-0.22 7.68,-16.65 15.37,-33.31 22.9,-50.03 -6.28,-0.03 -12.53,-0.07 -18.77,0.06 7.37,-15.25 14.64,-30.54 21.71,-45.91 18,0.1 36,-0.15 53.99,0.13 14.76,32.03 30.19,63.73 45.13,95.68 6.77,0.03 13.55,0.03 20.34,0.03 19.39,-0.76 38.83,0.16 58.23,-0.65 7.08,-0.49 13.71,2.36 20.62,3.39 17.98,3.39 36.87,3.69 54.43,-2.08 27.59,-8.65 51.78,-28.81 63.92,-55.23 10.17,-21.85 10.8,-49.46 -3.4,-69.69 -11.92,-16.82 -32.64,-24.39 -52.37,-26.89 -11.97,-1.61 -25.11,-1.22 -35.45,-8.35 -8.46,-5.73 -9.65,-17.5 -6.8,-26.54 2.66,-8.46 11.78,-12.47 20.01,-13.15 10.27,-0.61 21.04,-0.01 30.48,4.46 2.03,3.42 1.55,8.01 3.76,11.38 8.45,1.56 16.99,2.65 25.49,3.98 7.36,-15.53 14.45,-31.2 21.66,-46.8 -13.44,-8.46 -26.71,-18.33 -42.66,-21.32 -18.47,-3.31 -37.97,-2.45 -55.6,4.29zm-788.37 -4.21c-6.22,15.38 -12.71,30.64 -18.79,46.06 8.06,0.06 16.12,-0.06 24.19,0.1 -0.14,46.4 -0.02,92.8 -0.06,139.2 -0.11,7.44 0.35,14.91 -0.5,22.33 -0.63,7.08 -4.48,13.25 -7.9,19.29 -3.82,6.78 -7.75,13.51 -11.5,20.33 12.98,0.73 25.99,0.28 39.01,0.4 36.87,0.07 73.75,-0.14 110.63,0.11 9.34,-0.01 17.66,-6.16 22.29,-13.98 6.96,-11.96 13.87,-23.93 20.72,-35.96 -38.5,0.02 -77,-0.02 -115.49,0.02 -0.6,-15.21 -0.17,-30.42 -0.4,-45.64 31.05,-0.25 62.12,0.17 93.17,-0.22 7.33,-16.14 14.94,-32.17 22.3,-48.3 -38.35,0.03 -76.73,-0.01 -115.1,0.02 -0.01,-19.13 0.01,-38.26 -0.01,-57.4 14.06,-0.01 28.11,0.05 42.18,-0.01 -0.03,5.11 -0.09,10.2 0.05,15.31 14.52,-0.11 29.03,-0.07 43.55,-0.03 10.36,-20.51 20.29,-41.24 30.71,-61.71 -59.68,0.07 -119.36,-0.11 -179.05,0.08z"/>
   <path class="fil2" d="M1777.18 655.87c17.89,-21.14 45.93,-33.16 73.61,-31.18 18.92,-0.84 36.29,8.14 51.16,18.97 -4.97,12.91 -11.67,25.12 -16.86,37.95 -5.68,-0.19 -11.32,-0.92 -16.74,-2.64 -0.7,-1.41 -1.39,-2.82 -2.07,-4.22 0.19,-4.53 -3.28,-7.86 -7.41,-8.97 -13.09,-4.29 -27.84,-5.84 -41.03,-1.19 -10.23,3.43 -17.05,13.94 -16.56,24.64 -0.67,9.08 2.99,18.73 10.75,23.89 9.7,6.76 21.87,7.89 33.32,8.93 15.67,1.5 31.88,5.48 44.35,15.57 10.49,8.41 16.79,21.41 17.9,34.72 2.25,20.72 -5.44,41.67 -18.54,57.59 -19.93,24.59 -52.21,39.35 -83.96,36.09 -10.29,-0.35 -20.32,-2.85 -30.34,-4.93 -27.23,-0.4 -54.47,0.11 -81.7,0.17 -14.85,-31.95 -30.34,-63.63 -45.1,-95.63 -20.6,-0.32 -41.18,0 -61.77,-0.17 -9.13,19.55 -18.88,38.82 -27.74,58.48 6.37,0.12 12.74,0.01 19.12,0.09 -5.97,12.43 -11.6,25.02 -17.36,37.53 -42.21,-0.01 -84.42,-0.62 -126.62,-0.14 -1.54,0.45 -3.08,0.85 -4.61,1.19 -20.74,-27.53 -40.52,-55.8 -61.01,-83.51 -20.6,27.27 -40.63,54.98 -61.02,82.42 -21.96,-0.11 -43.91,-0.25 -65.88,-0.37 14.01,-11.11 27.89,-22.46 40.26,-35.43 12.62,-12.46 22.57,-27.23 33.66,-41 9.68,-12.42 19.47,-24.75 29.03,-37.25 -18.33,-25.45 -36.68,-50.88 -55.4,-76.04 -4.4,-5.07 -8.87,-12.23 -16.46,-11.95 -11.35,-0.25 -22.69,0.53 -34.04,0.17 5.34,-11.08 10.4,-22.3 15.84,-33.34 19.72,0.14 39.45,-0.4 59.18,-0.26 12.98,18.44 25.93,36.9 38.92,55.34 7.01,9.61 13.26,19.77 20.77,29 20.24,-28.03 40.18,-56.25 60.3,-84.37 20.25,-0.04 40.49,0.35 60.74,0.35 -2.43,4.14 -5.83,7.57 -8.91,11.2 -29.42,34.8 -59.06,69.43 -88.27,104.4 20.88,27.58 42.27,54.79 63.53,82.08 18.05,-0.14 36.1,0.09 54.15,-0.13 3.71,-6.09 5.67,-13.15 8.66,-19.64 5.39,-12.99 10.88,-25.94 16.59,-38.79 -13.71,-0.1 -27.42,0.01 -41.12,-0.07 5.13,-11.81 10.17,-23.67 15.78,-35.27 13.92,-0.14 27.85,0.25 41.78,-0.21 11.15,-24.78 23.38,-49.09 34.82,-73.74 4.88,-9.84 9.13,-20 14.3,-29.71 9.43,0.24 18.87,-0.09 28.31,0.2 23.62,51.44 47.95,102.57 71.77,153.93 6.06,12.43 11.29,25.31 17.92,37.43 9.19,9.46 23.96,9.44 36.31,9.22 0.61,-8.04 0.85,-16.11 1.86,-24.1 5.17,0.55 10.53,0.24 15.61,1.59 5.79,7.45 10.72,16.66 20.19,19.98 12.37,4.15 25.84,4.07 38.67,2.5 9.66,-1.7 19.7,-6.04 25.17,-14.6 6.38,-10.36 6.51,-24.64 -0.43,-34.76 -4.43,-6.27 -11.92,-10.08 -19.52,-10.48 -12.66,-0.89 -25.71,-1.81 -37.39,-7.24 -12.49,-5.61 -23.85,-13.84 -32.92,-24.11 -10.85,-15.19 -13.02,-35.37 -8.22,-53.15 1.54,-3.62 2.87,-7.35 4.13,-11.09 3.4,-5.38 6.58,-10.92 10.54,-15.94zm-1051.53 -28.16c79.54,-0.04 159.07,-0.01 238.61,0 -11.75,27.59 -23.78,55.07 -35.43,82.7 -8.05,0.01 -16.09,-0.1 -24.1,0.32 -0.09,-13.57 -0.03,-27.13 -0.06,-40.7 -16.36,-0.36 -32.71,0.05 -49.07,-0.07 -0.06,68.5 -0.03,136.98 0,205.47 10.97,0.04 21.95,-0.01 32.94,0.06 -5.71,14.62 -11.8,29.09 -17.72,43.64 -36.6,-1.52 -73.29,0.49 -109.91,-1.12 -0.51,1.57 -0.97,3.15 -1.31,4.78 -1.68,-1.16 -1.72,-3.45 -0.6,-5.01 0.28,0.07 0.8,0.21 1.07,0.28 5.42,-14.35 11.4,-28.48 17.26,-42.66 5.98,0.05 11.97,0.03 17.95,0.06 0.06,-68.48 -0.07,-136.95 0.07,-205.42 -15.82,-0.19 -31.64,-0.09 -47.47,-0.04 -8.15,13.53 -15.81,27.34 -24.12,40.77 -12.06,-0.2 -24.13,0.15 -36.18,-0.22 12.61,-27.63 25.53,-55.15 38.07,-82.84zm301.59 -1.31c55.11,-0.2 110.21,-0.2 165.34,-0.02 -8.14,16.36 -16.53,32.6 -24.45,49.08 -11.24,-0.03 -22.49,0.22 -33.73,-0.16 0.09,-4.99 0.09,-10.01 0.04,-15 -18.19,0.01 -36.38,0 -54.57,0 -0.02,23.3 -0.2,46.61 0.11,69.9 37.22,-0.26 74.46,0.21 111.7,-0.23 -5.73,11.92 -11.15,23.96 -16.68,35.95 -31.68,0.33 -63.36,0.16 -95.04,0.08 -0.29,19.42 -0.11,38.85 -0.09,58.25 36.96,0.24 73.92,-0.51 110.88,-0.19 -4.42,8.67 -9.63,16.9 -14.31,25.43 -3.08,5.76 -8.36,10.7 -14.97,11.86 -3.72,0.42 -7.46,0.2 -11.18,0.22 -43.65,-0.08 -87.31,0.13 -130.96,-0.09 6.7,-12.38 16.23,-24.46 15.69,-39.29 0.22,-53.94 0.02,-107.89 0.09,-161.84 -7.08,-0.21 -14.2,0.39 -21.25,-0.54 4.77,-11.02 9.02,-22.24 13.38,-33.41zm-948.82 -272.46c-1.41,9.67 -2.59,19.59 -0.19,29.23 2.52,13.1 10.07,24.75 20.01,33.49 182.26,170.31 364.63,340.48 546.9,510.77 11.73,11.22 24.18,21.73 35.02,33.87 35.18,38.97 62.28,85.94 74.58,137.2 7.58,32.21 9.37,66.1 3.68,98.77 -14.02,8.77 -28.77,16.53 -43.07,24.92 9.04,18.03 19.27,35.46 28.75,53.28 0.97,1.63 1.67,3.56 3.17,4.86 11.25,-3.41 23.19,-6.94 34.96,-4.07 8.4,1.91 14.63,9.74 15.49,18.17 0.95,12.05 -6.04,22.93 -13.37,31.84 -0.13,-6.08 0.15,-12.94 -4.24,-17.72 -4.21,-4.91 -11.24,-5.35 -17.25,-5.04 -20.8,1.73 -39.45,15.58 -48.97,33.91 -6.54,-10.43 -6.23,-24.66 1.45,-34.43 -45.07,-28.84 -84.76,-65.94 -117.67,-108.07 -3.78,-4.14 -5.83,-10.36 -11.54,-12.24 -17.35,-7.33 -34.46,-15.27 -51.86,-22.46 -35.12,10.18 -69.79,22.1 -104.97,32.24 -13.91,3.84 -28.41,7.09 -42.93,5.38 -9.63,-1.17 -18.27,-6.34 -25.07,-13.09 -11.75,-11.4 -23.39,-22.91 -35.1,-34.33 8.39,4.12 17.29,7.7 26.77,7.88 7.99,0.64 15.71,-1.7 23.48,-3.17 32.32,-6.99 64.6,-14.19 96.95,-21.04 -5.3,-2.62 -10.54,-6.33 -16.48,-6.91 -37.85,6.08 -75.64,12.56 -113.63,17.71 -8.83,1.39 -18.24,0.14 -25.88,-4.67 -10.65,-7.16 -19.05,-16.96 -28.53,-25.47 -6.65,-7.13 -14.26,-13.29 -20.55,-20.74 7.19,3.8 14.46,7.81 22.51,9.4 6.31,1.29 12.78,0.49 19.16,0.21 26.8,-2.26 53.66,-3.99 80.43,-6.46 -6.12,-2.16 -11.74,-5.79 -18.02,-7.38 -30.9,-0.21 -61.81,0.01 -92.71,-0.1 -14.15,-0.37 -26.55,-8.54 -36.3,-18.2 -12.94,-13.22 -27.24,-25.1 -40.1,-38.39 9.3,6.71 20.93,8.91 32.09,10.3 10.06,1.41 20.25,0.84 30.38,0.94 79.41,0.07 158.82,-0.11 238.24,0.1 -145.18,-86.78 -290.58,-173.21 -435.75,-259.97 -13.03,-7.9 -26.91,-15.14 -37.14,-26.68 -6.62,-7.35 -10.63,-18.15 -6.66,-27.74 10.23,-23.11 21.72,-45.68 31.7,-68.9 1.16,13.26 4,28.35 15.63,36.57 146.18,96.46 291.77,193.85 437.7,290.67 -1.05,-5.83 -1.95,-11.74 -3.69,-17.4 -148.07,-103.36 -296.29,-206.54 -444.49,-309.7 -15.05,-10.2 -31.22,-20.41 -40.82,-36.34 -6.99,-11.21 -7.96,-25.73 -2.63,-37.82 10.38,-21.94 21.5,-43.55 31.48,-65.67 0.26,15.75 5.59,32.39 18.55,42.24 144.03,110.77 288.18,221.39 432.23,332.13 1.03,0.63 3.07,1.87 4.1,2.49 -0.42,-4.56 -0.53,-9.15 -0.46,-13.73 -150.54,-121.69 -300.88,-243.64 -451.41,-365.37 -9.98,-7.98 -18.93,-18.2 -22.3,-30.8 -3.14,-10.44 -1.81,-21.78 2.08,-31.83 15.2,-34.31 31.26,-68.26 46.29,-102.64zm1662.15 -41.89c18.33,-1.25 36.74,-0.57 55.12,-0.75 0.26,30.87 0.13,61.75 0.07,92.62 31.13,0.25 62.27,0.07 93.39,0.06 0.66,-18.18 0.15,-36.38 0.34,-54.57 -6.05,0.15 -12.17,-0.62 -18.12,0.58 -0.97,-0.3 -2.9,-0.91 -3.87,-1.22 5.12,-12.36 10.78,-24.5 16.26,-36.72 28.56,0.08 57.12,-0.09 85.68,0.08 -5.31,12.45 -11.62,24.45 -16.55,37.03 -4.45,0.32 -8.91,0.04 -13.34,-0.14 -0.06,41.44 -0.03,82.87 -0.03,124.3 0.13,12.13 -0.36,24.28 0.4,36.41 7.2,0 14.41,0.01 21.62,0.01 -4.16,9.86 -9.3,19.32 -12.76,29.46 -1.41,2.57 -2.85,5.12 -4.11,7.75 -28.32,0.1 -56.65,0.3 -84.95,-0.11 5.75,-12.28 11.25,-24.7 16.83,-37.07 4.28,-0.02 8.58,-0.03 12.89,-0.04 0.16,-21.34 0.05,-42.67 0.01,-64 -31.31,-0.11 -62.64,-0.08 -93.95,0 -0.04,33.78 0.51,67.54 0.32,101.33 -27.88,0.04 -55.76,-0.48 -83.64,-0.28 0.63,-1.68 1.28,-3.37 1.91,-5.06 7.51,-10.08 12.01,-22.03 18.86,-32.52 5.02,0.04 10.04,0.01 15.08,-0.01 -0.1,-53.29 0.01,-106.57 -0.06,-159.84 -7.69,0.18 -15.39,-0.42 -23.07,-0.27 4.53,-12.63 10.53,-24.64 15.67,-37.03zm-1099.29 -59.57c18.59,0.08 37.18,-0.01 55.77,-0.04 53.87,60.12 108.38,119.66 162.41,179.64 -0.38,-45.24 -0.17,-90.49 -0.1,-135.73 -11.16,0.35 -22.33,0 -33.5,0.21 6.24,-14.62 12.35,-29.34 18.68,-43.93 35.68,-0.25 71.38,-0.13 107.07,-0.05 -4.11,10.08 -8.71,19.95 -12.76,30.05 -2.13,4.67 -3.54,9.69 -6.29,14.05 -7.67,-0.39 -15.32,-0.07 -22.98,-0.23 -0.11,83.03 0.03,166.07 -0.06,249.1 -10.18,0.21 -20.35,0.08 -30.51,0.1 -36.22,-36.75 -71.5,-74.39 -107.03,-111.82 -20.55,-22.29 -40.83,-44.86 -61.49,-67.06 0,45.11 0.2,90.24 -0.08,135.36 9.14,-0.64 18.4,0.73 27.47,-0.86 0.95,0.18 2.86,0.54 3.82,0.72 -5.83,14.6 -12.14,29 -17.99,43.58 -33.33,0.2 -66.66,0.02 -100,0.09 0.25,-1.31 0.49,-2.63 0.76,-3.93 2.41,-4.39 4.07,-9.14 5.73,-13.86 1.07,-2.24 2,-4.54 2.8,-6.89 1.91,-4.61 3.89,-9.19 5.47,-13.91 0.87,-1.72 1.74,-3.42 2.64,-5.11 6.3,0.08 12.61,-0.08 18.91,0.18 -0.18,-66.94 -0.11,-133.89 -0.04,-200.83 -14.19,-0.25 -28.38,-0.02 -42.57,-0.13 7.76,-16.33 15.69,-32.59 23.87,-48.7zm460.56 54.45c28.22,-0.53 57.78,6.02 80.04,24.19 23.71,18.94 36.47,48.7 39.91,78.31 25.54,0.28 51.08,0.04 76.62,0.13 0.01,-20.17 -0.46,-40.33 -0.32,-60.5 -9.43,0.02 -18.87,-0.01 -28.3,0.05 5.13,-12.45 10.47,-24.81 16.17,-37.01 26.76,-0.08 53.52,-0.01 80.28,-0.04 21.19,0.6 42.9,9.22 56.6,25.81 8.28,9.86 12.6,23.04 11.11,35.9 -0.92,18 -10.46,34.75 -23.79,46.56 -5.74,5.16 -12.14,9.52 -18.55,13.8 16.38,18.12 33.5,35.59 50.61,53.03 6.12,6.52 12.21,13.68 20.8,17.03 14.54,5.8 30.51,5.63 45.93,6.09 15.43,0.01 30.88,0.19 46.3,-0.62 0.15,-53.51 0.02,-107.02 0.07,-160.54 -5.95,-0.04 -11.9,-0.1 -17.83,0.03 -4.68,9.72 -10.24,18.96 -15.1,28.57 -11.4,0.26 -22.82,0.39 -34.19,-0.07 10,-21.89 20.15,-43.69 30.2,-65.55 55.66,-0.08 111.33,-0.01 167,-0.02 -9.16,22.09 -18.39,44.17 -27.71,66.21 -7.72,0.44 -15.48,0.18 -23.21,0.07 -0.02,-9.75 -0.02,-19.49 0,-29.23 -10.21,-0.04 -20.42,-0.2 -30.63,0.09 0.2,53.49 -0.01,106.98 0.12,160.47 9.63,0.29 19.29,0.51 28.94,0.05 -5.73,12.44 -11.23,24.99 -17.15,37.33 -59.11,-0.11 -118.21,0.12 -177.32,-0.11 -29.88,-32.91 -60.02,-65.6 -90.04,-98.39 -1.04,-0.03 -3.12,-0.07 -4.16,-0.09 -0.3,12.01 1.79,23.88 1.37,35.87 -0.19,20.82 0.6,41.61 0.58,62.42 -25.83,-0.08 -51.67,0.22 -77.5,-0.14 5.58,-12.24 10.96,-24.57 16.44,-36.85 4.39,-0.07 8.79,-0.05 13.21,-0.04 0.11,-19.39 0.08,-38.8 0.01,-58.2 -26.38,-0.07 -52.77,-0.01 -79.14,-0.01 -4.57,24.36 -16.39,47.43 -34.16,64.77 -21.35,21.22 -50.54,33.36 -80.22,36.7 -27.91,3.24 -57.41,0.4 -82.54,-12.92 -17.33,-8.75 -31.71,-22.89 -41.28,-39.74 -14.02,-24.35 -17.41,-53.43 -14.7,-81.04 2.34,-26.48 13.33,-52.53 32.26,-71.43 19.85,-20.17 46.76,-32.11 74.2,-37.75 9.51,-2.28 19.33,-2.6 29.07,-3.19zm-56.18 53.47l0 0c-11.95,7.6 -20.89,19.48 -25.07,32.99 -6.59,21.39 -6.81,44.73 -0.88,66.28 5.27,19.03 19.49,34.66 36.8,43.7 20.58,11.08 46.14,14.05 68.1,5.3 4.97,-2.17 10.24,-4.36 13.73,-8.73 3.09,-0.58 5.29,-2.76 6.96,-5.28 13.34,-10.43 20.26,-26.96 24.23,-43 -20.31,-0.37 -40.62,0.01 -60.92,-0.19 5.38,-13.92 11.62,-27.52 17.2,-41.39 14.91,-0.04 29.82,0.05 44.74,-0.05 -2.32,-13.57 -6.86,-27.26 -16.04,-37.77 -10.34,-12.52 -25.92,-19.39 -41.43,-22.95 -22.75,-4.76 -47.76,-1.85 -67.42,11.09zm300.91 -10.99l0 0c-0.43,20.09 -0.47,40.19 -1.41,60.26 9.23,-0.61 18.35,-2.76 26.88,-6.38 6.8,-2.98 13.11,-7.76 16.74,-14.34 4.56,-9.53 2.58,-22.26 -5.8,-29.06 -10.05,-8.36 -23.77,-10.22 -36.41,-10.48zm-1030.23 91.27c10.38,-22.76 20.24,-45.77 30.7,-68.48 -5.78,16.19 2.04,33.63 12.88,45.76 93.29,105.01 186.74,209.9 279.93,315 35.55,39.59 67.18,83.58 87.2,133.15 20.31,48.87 27.46,103.72 16.93,155.78 35.3,32.1 70.45,64.36 105.44,96.78 8.7,8.05 18.48,15.71 23.51,26.77 5.72,11.93 5.62,26.12 0.97,38.37 5.49,5.36 11.18,10.52 16.9,15.65 6.73,5.16 13.21,12.37 13.59,21.29 0.04,7.42 -5.77,12.88 -11.44,16.76 -10.19,6.8 -21.81,11.48 -33.82,13.8 3.03,-3.74 6.99,-7.42 7.29,-12.54 0.92,-7.71 -5.6,-14.05 -12.47,-16.18 -14.92,-4.93 -30.58,-7.17 -46.07,-9.55 -2.31,-3.09 -3.41,-8.28 -7.96,-8.57 -12.1,-2.36 -24.25,-4.54 -36.38,-6.79 5.05,-32.17 6.35,-65.07 2.16,-97.42 -3.11,-23.63 -9.54,-46.77 -18.59,-68.79 -5.19,-15.01 -12.7,-29.1 -20.59,-42.84 -14.35,-24.51 -31.46,-47.51 -51.71,-67.47 -114.21,-106.33 -228.15,-212.98 -341.94,-319.75 -7.25,-6.54 -15.03,-12.9 -19.84,-21.57 -3.25,-5.84 -4.08,-13.09 -1.69,-19.39 8.97,-20.85 18.69,-41.38 27.36,-62.35 -2.9,14.52 4.59,28.65 14.44,38.83 35.21,35.42 70.64,70.67 106.15,105.79 43.63,43.98 87.59,87.64 131.35,131.49 8.11,7.91 15.82,16.24 24.21,23.88 0.49,-4.97 0.99,-9.92 1.82,-14.84 -86.04,-90.41 -172.53,-180.39 -258.45,-270.91 -10.87,-11.58 -22.1,-22.85 -32.48,-34.88 -5.72,-6.65 -10.99,-14.43 -11.63,-23.44 -0.16,-4.53 0.46,-9.16 2.23,-13.34zm514.7 704.01l0 0c9.25,12.61 18.41,26.06 21.94,41.53 6.23,-1.99 12.68,-3.72 19.3,-3.11 -4.72,-4.45 -9.24,-9.13 -14.3,-13.18 -9,-8.4 -17.58,-17.25 -26.94,-25.24zm767.86 -412.76l0 0c11.03,-0.38 22.09,-0.01 33.14,-0.18 -3.75,-14.21 -10.12,-27.56 -16.14,-40.92 -5.47,13.79 -12.09,27.1 -17,41.1z"/>
  </g>
 </g>
</svg>
