<?xml version="1.0" encoding="UTF-8"?>
<!DOCTYPE svg PUBLIC "-//W3C//DTD SVG 1.1//EN" "http://www.w3.org/Graphics/SVG/1.1/DTD/svg11.dtd">
<!-- Creator: CorelDRAW -->
<svg xmlns="http://www.w3.org/2000/svg" xml:space="preserve" width="2000px" height="1600px" version="1.1" style="shape-rendering:geometricPrecision; text-rendering:geometricPrecision; image-rendering:optimizeQuality; fill-rule:evenodd; clip-rule:evenodd"
viewBox="0 0 2000 1600"
 xmlns:xlink="http://www.w3.org/1999/xlink">
 <defs>
  <style type="text/css">
   <![CDATA[
    .fil1 {fill:#002856;fill-rule:nonzero}
    .fil0 {fill:#FEFEFE;fill-rule:nonzero}
    .fil2 {fill:#FFB717;fill-rule:nonzero}
   ]]>
  </style>
 </defs>
 <g id="Capa_x0020_1">
  <metadata id="CorelCorpID_0Corel-Layer"/>
  <g id="Northern_x0020_Colorado_x0020_Bears.cdr">
   <path class="fil0" d="M791.99 573.25c6.62,9.53 15.51,17.15 25.91,22.27 -4.13,5.59 -9.76,11.42 -17.44,10.29 -12.58,0.49 -20.54,-15.41 -14.01,-25.66 1.71,-2.42 3.67,-4.63 5.54,-6.9zm81.55 584.61c1.43,-3.23 5.44,-3.28 6.76,0.07 8.58,20.31 26.42,35.56 45.94,45.02 5.54,2.86 7.96,10.08 14.84,10.61 39.34,10.57 82.01,10.39 120.91,-1.96 4.48,-9.2 15.09,-11.26 22.62,-17.03 13.1,-9.87 25.1,-22.17 30.59,-37.98 1.09,-0.34 3.28,-1.06 4.36,-1.41 13.57,23.33 8.36,57.6 -14.79,73.01 -13.82,9.23 -37.49,6.35 -43.19,-11.16 -6.19,6.3 -10.06,14.3 -12.14,22.82 -33.09,6.85 -67.61,6.8 -100.72,0.04 -2.63,-8.63 -7.13,-16.47 -13.13,-23.19 -2.86,10.62 -13.46,17.1 -24.14,16.41 -11.72,1.08 -22.41,-5.82 -29.51,-14.58 -13.71,-16.66 -16.48,-40.89 -8.4,-60.67zm33.41 -270.42c30.35,-6.34 61.43,1.62 89.97,11.91 26.97,-9.76 55.96,-17.17 84.8,-12.97 19.55,2.91 38.31,13.89 48.32,31.2 -13.13,-12.46 -32.54,-15.94 -49.93,-13.13 -24.49,2.82 -47.17,13.02 -69.94,21.74 -6.35,2.17 -13.23,5.12 -19.83,2.19 -25.89,-8.84 -50.95,-21.46 -78.54,-24.21 -16.57,-2.58 -33.79,1.97 -47.24,11.89 9.86,-14.52 25.08,-25.22 42.39,-28.62zm275.84 -292.24c10.45,-4.75 19.08,-12.48 25.61,-21.88 4.27,4.34 7.36,9.56 8.84,15.49 -1.64,8.51 -7.71,17.47 -17.37,17 -7.73,1.13 -13.18,-4.89 -17.08,-10.61z"/>
   <path class="fil1" d="M1207.87 537.05c12.53,-3.39 26.22,-0.9 38.35,3.37 20.77,7.08 39.39,22.43 47.35,43.24 3.51,8.24 4.2,17.22 5.43,25.98 -7.92,-13.84 -22.8,-21.92 -38.17,-24.46 0,10.11 0,20.89 -5.98,29.56 -11.44,17.68 -35.02,23.4 -54.78,19.6 -7.08,-0.65 -16.06,-2.68 -21.46,3.34 -4.5,4.22 -4.96,10.71 -6.18,16.38 -13.57,-21.36 -33.74,-37.29 -48.99,-57.29 -8.28,-10.39 -11.08,-24.37 -6.23,-36.88 7.96,12.44 20.26,25.96 36.74,22.66 24.46,-4.8 39.78,-26.9 53.92,-45.5zm306.76 11.91c30.85,42.22 41.98,95.48 43.13,146.92 0.14,51.48 -9.9,102.54 -25.94,151.32 -9.39,-9.94 -19.52,-19.47 -32.07,-25.27 8.79,63.85 -14.15,127.84 -48.67,180.8 -3.87,-50.56 -13.47,-101.42 -35.37,-147.48 -10.92,-22.35 -24.53,-43.93 -43.36,-60.45 21.05,0.11 42.58,3.58 61.2,13.87 30.06,-28.82 51.52,-65.86 64.47,-105.29 16.57,-49.55 20.65,-102.55 16.61,-154.42zm-1071.42 125.55c3.65,-44.28 15.35,-89.3 42.11,-125.46 -4.52,49.57 0,100.17 14.52,147.86 12.57,41.95 35.14,80.84 66.11,111.87 18.87,-10.15 40.4,-13.98 61.68,-13.94 -16.2,14.4 -28.87,32.33 -38.84,51.49 -25.24,48.22 -35.97,102.66 -39.8,156.54 -34.64,-53.05 -57.9,-117.39 -48.6,-181.4 -12.3,6.12 -21.97,15.88 -32.42,24.53 -18.53,-54.96 -28.66,-113.41 -24.76,-171.49zm-6.97 -672.18c72.71,-10.01 146.65,13.04 206.73,53.65 54.9,-19.54 113.53,-25.73 171.45,-27.18 34.15,0.85 68.35,3.21 101.88,10.08 -2.93,-5.93 -5.91,-11.86 -8.73,-17.83 32.79,4.13 63.11,18.04 92.74,31.93 29.08,-14.51 59.54,-27.57 92,-31.93 -2.81,6.02 -5.67,12.02 -8.74,17.9 66.25,-13.31 134.8,-12.44 201.33,-1.34 24.48,4.23 48.75,9.95 72.15,18.37 43.82,-29.51 94.38,-49.79 147.18,-54.89 30.82,-2.13 62.25,-0.86 92.04,8 39.6,11.22 76.4,33.42 103.24,64.8 34.47,39.43 51.59,92.07 52.47,144.01 1.55,69.25 -21.69,136.53 -53.42,197.24 15.83,23.91 28.25,49.87 39.95,76.01 -7.66,-1.59 -15.42,-2.56 -23.24,-2.81 40.84,71.99 67.24,152.27 76.31,234.58 -5.52,-3.88 -11.05,-7.66 -16.64,-11.35 13.59,78.01 14.49,158.38 -0.09,236.35 -19.94,110.19 -72.32,213.33 -145.83,297.42 -2.33,-10.06 -5.2,-20.01 -9.33,-29.49 -21.5,33.04 -53.19,57.71 -84.84,80.46 -83.24,57.57 -177.06,97.59 -271.71,132.27 -4.18,-8.59 -9.58,-16.46 -15.49,-23.91 -22.7,33.76 -39.29,72.11 -68.51,101.14 -31.77,31.66 -73.51,50.33 -114.77,66.25 2.77,-13.45 2.72,-28.85 -7.52,-39.32 -10.41,30.32 -37.27,50.3 -62.98,67.26 0.19,-26.56 -21.22,-46.06 -39.96,-61.89 3.55,17.47 -0.69,35.91 -10.92,50.45 -19.54,-25.69 -44.51,-46.98 -72.64,-62.7 -24.11,-14.1 -50.18,-25.4 -71.44,-43.93 -24.09,-20.08 -39.5,-48.37 -50.44,-77.33 -5.38,7.43 -10.57,15.12 -13.59,23.89 -85.4,-31.06 -169.62,-67.01 -246.53,-115.82 -40.43,-26.49 -80.77,-55.89 -108.18,-96.41 -4.34,9.26 -7.11,19.11 -9.16,29.1 -69.69,-79.56 -120.43,-176.27 -142.47,-279.97 -18.04,-83.25 -18.34,-169.9 -3.55,-253.68 -5.61,3.62 -11.12,7.33 -16.57,11.19 8.86,-82.33 35.47,-162.59 76.2,-234.61 -7.82,0.33 -15.6,1.25 -23.24,2.93 11.84,-26.19 24.27,-52.26 40.04,-76.35 -36.21,-68.03 -60.62,-145.58 -51.6,-223.35 5.84,-50.69 28.77,-99.96 66.85,-134.41 32.79,-30.3 75.48,-48.92 119.57,-54.78zm-6.9 91.77l0 0c-38.16,15.19 -70.47,46.08 -84.61,84.96 -12.46,32.77 -10.66,69.53 0.78,102.32 0.07,-24.23 4.27,-49.06 16.96,-70.06 18,-31.7 52.73,-53.95 89.56,-54.11 35.09,-0.99 67.86,16.13 94.07,38.21 -31.42,-5.88 -65.6,-8.33 -95.43,5.24 -16.8,7.5 -28.41,23.17 -33.46,40.54 20.3,-20.23 54.78,-19.4 77.14,-3.06 6.46,4.66 12.23,12.92 8.99,21.16 -3.43,7.22 -10.89,11.14 -16.31,16.7 -32.33,30.9 -58.82,67.4 -81.75,105.66 -8.57,14.93 -17.36,29.93 -22.96,46.29 17.12,-5.42 34.52,-10.59 52.56,-11.77 -42.69,38.58 -70.1,90.62 -93.52,142.38 12.94,-6.51 26.77,-11.01 40.63,-15.05 -9.83,19.62 -17.21,40.31 -23.6,61.24 -22.22,74.44 -27.35,153.8 -15.58,230.55 12.62,78.52 41.65,154.99 87.41,220.25 8.75,-29.47 19.78,-59.35 40.43,-82.73 2.35,28.66 12.6,56.26 27.76,80.56 24.48,39.64 59,71.92 95.87,99.91 34.96,26.01 72.28,48.99 111.73,67.52 -10.96,-11.79 -22.33,-23.24 -32.23,-35.95 -33.83,-41.74 -58.5,-91.91 -65.4,-145.56 -7.4,-53.62 2.61,-109.31 27.32,-157.39 -4.63,42.82 5.96,88.24 34.08,121.56 8.4,-35.59 19.37,-70.64 34.25,-104.05 24.3,-53.49 57.76,-104.67 105.57,-139.93 -15.44,22.29 -22.78,48.85 -28.57,75.02 -12.04,59.05 -15.76,119.62 -13.8,179.78 0.51,20.74 4.8,42.16 17.79,58.91 13.18,17.93 34.45,31.27 57.2,30.69 21.3,0.23 42.44,-4.36 62.54,-11.22 16.31,-5.97 32.35,-13.52 45.69,-24.8 -25.15,-10.64 -51.83,-22.22 -68.79,-44.63 11.98,-5.12 10.94,-22.27 2.38,-30.09 -13.22,-13.43 -33.32,-14.67 -51,-16.04 -4.27,-0.18 -5.91,-5.14 -4.52,-8.63 6.76,-32.76 14.91,-66.82 35.63,-93.89 14.81,-19.47 37.77,-31.01 61.49,-35.37 33.25,-6.21 67.33,-5.75 101.02,-5.06 30.07,1.62 62.05,3.63 88.06,20.49 21.67,13.87 34.77,37.32 43.29,60.95 6.8,19.38 11.9,39.41 14.83,59.76 -12.29,3.74 -25.61,2.1 -37.72,6.76 -12.23,3.67 -25.94,13.2 -25.04,27.51 -0.71,6.18 3.95,10.61 8.68,13.68 -16.85,22.54 -43.78,33.83 -68.84,44.63 11.77,9.62 25.32,16.82 39.48,22.26 24.81,9.58 51.6,15.4 78.3,13.23 24.8,-3.81 45.83,-22.04 56.26,-44.45 10.73,-21.78 9.06,-46.74 10.03,-70.33 -0.25,-51.04 -3.92,-102.24 -14.1,-152.34 -5.81,-26.79 -13.15,-54.16 -29.14,-76.86 36.02,25.82 63.43,61.82 85.45,99.89 25.56,44.79 42.89,93.89 54.45,144.06 28.43,-33.25 38.7,-78.85 34.13,-121.72 35.28,67.95 39.6,151.23 10.27,222.09 -17.65,44.45 -47,83.24 -80.53,116.97 36.94,-17.1 71.81,-38.56 104.81,-62.33 31.61,-23.37 61.68,-49.4 85.81,-80.6 23.7,-30.29 41.98,-66.38 44.63,-105.29 20.54,23.54 31.82,53.37 40.52,82.93 18.16,-25.43 33.48,-52.79 46.13,-81.34 42.13,-93.06 56.97,-198.23 41.42,-299.23 -7.18,-45.21 -19.16,-90.06 -39.3,-131.3 13.94,3.85 27.67,8.54 40.61,15 -23.21,-51.78 -50.88,-103.38 -93.04,-142.3 17.84,1.13 35.08,6.27 51.99,11.72 -5.63,-17.1 -15.02,-32.61 -23.93,-48.14 -23.17,-38.58 -50.21,-75.22 -83.11,-106.1 -4.74,-4.68 -10.97,-8.26 -13.96,-14.39 -2.64,-8.29 2.28,-16.64 9.02,-21.26 22.4,-16.17 57.13,-17.4 77.21,3.33 -4.8,-16.99 -15.76,-32.47 -32.05,-40.04 -30.02,-14.4 -64.91,-12.07 -96.74,-5.81 24.76,-21.37 55.71,-37.66 88.98,-38.38 30.53,-1.13 60.97,12.49 81,35.47 22.03,24.23 31.54,57.73 30.34,90.04 7.2,-23.06 12.07,-47.51 8.54,-71.7 -3.69,-35.92 -22.87,-69.34 -50.61,-92.18 -30.09,-24.88 -69.43,-37.8 -108.36,-36.92 -57.45,-0.05 -111.82,26.9 -154.62,63.8 -69.5,-16.38 -142.26,-25.52 -213.17,-13.06 9.23,-8.82 18.9,-17.1 28.94,-24.97 -49.11,3.56 -101.79,22.66 -129.22,65.97 28.12,-3.55 56.64,-5.37 84.93,-2.83 50.4,2.83 102.64,15.87 141.52,49.68 -61.26,-17.54 -130.12,-15.99 -186.9,15.06 20.72,3.23 42.13,6.74 60.29,17.98 -20.28,2.86 -41.28,6 -58.89,17.21 31.55,1.97 65.44,5.47 91.06,25.94 -38.38,-0.16 -76.52,9.21 -111.06,25.73 -20.38,9.94 -40.22,21.6 -56.97,37.04 -46.25,-39.76 -107.07,-62.61 -168.08,-62.77 25.61,-20.61 59.53,-23.65 91.03,-26.19 -17.88,-10.5 -38.51,-14.35 -58.8,-16.91 17.93,-11.47 39.37,-14.56 59.93,-18.14 -56.49,-30.99 -124.95,-32.28 -185.99,-15.25 39.05,-34.34 92.14,-46.75 142.86,-49.48 27.64,-2.6 55.43,-0.16 82.96,2.73 -27.88,-43.08 -80.24,-62.26 -129.45,-65.79 10.08,7.8 19.77,16.06 28.86,25.01 -70.75,-12.46 -143.48,-3.46 -212.8,13.13 -36.5,-31.54 -80.92,-55.31 -129.08,-62.21 -31.01,-4.06 -63.32,-1.43 -92.44,10.5zm477.61 793.34l0 0c-17.31,3.4 -32.53,14.1 -42.39,28.62 13.45,-9.92 30.67,-14.47 47.24,-11.89 27.59,2.75 52.65,15.37 78.54,24.21 6.6,2.93 13.48,-0.02 19.83,-2.19 22.77,-8.72 45.45,-18.92 69.94,-21.74 17.39,-2.81 36.8,0.67 49.93,13.13 -10.01,-17.31 -28.77,-28.29 -48.32,-31.2 -28.84,-4.2 -57.83,3.21 -84.8,12.97 -28.54,-10.29 -59.62,-18.25 -89.97,-11.91zm-33.41 270.42l0 0c-8.08,19.78 -5.31,44.01 8.4,60.67 7.1,8.76 17.79,15.66 29.51,14.58 10.68,0.69 21.28,-5.79 24.14,-16.41 6,6.72 10.5,14.56 13.13,23.19 33.11,6.76 67.63,6.81 100.72,-0.04 2.08,-8.52 5.95,-16.52 12.14,-22.82 5.7,17.51 29.37,20.39 43.19,11.16 23.15,-15.41 28.36,-49.68 14.79,-73.01 -1.08,0.35 -3.27,1.07 -4.36,1.41 -5.49,15.81 -17.49,28.11 -30.59,37.98 -7.53,5.77 -18.14,7.83 -22.62,17.03 -38.9,12.35 -81.57,12.53 -120.91,1.96 -6.88,-0.53 -9.3,-7.75 -14.84,-10.61 -19.52,-9.46 -37.36,-24.71 -45.94,-45.02 -1.32,-3.35 -5.33,-3.3 -6.76,-0.07zm-67.01 37.64l0 0c20.3,46.22 20.81,99.75 48.41,142.97 10.89,17.81 29.56,28.4 48.13,36.57 10.9,4.18 23.1,3.07 33.81,7.85 7.08,3.14 11.93,9.44 16.96,15.07 9.23,-11.68 5.75,-27.56 -0.23,-39.85 12.18,6.83 25.13,14.33 31.98,27.06 4.45,7.48 3.09,16.46 2.17,24.65 25.91,-11.43 48.23,-32.19 57.71,-59.28 8.56,10.24 8.33,24.13 5.88,36.55 17.89,-2.26 34.92,-9.23 49.8,-19.29 18.99,-12.97 37.15,-28.45 48.2,-49.01 20.4,-36.53 23.56,-79.34 39.09,-117.73 1.41,-3.72 3.14,-7.32 3.86,-11.22 -0.14,-5.28 -5.84,-8.79 -10.62,-6.57 -14.88,4.73 -28.27,14.95 -35.76,28.77 -7.5,12.32 -7.25,27.71 -15.37,39.74 -13.09,20.46 -36.35,31.4 -58.77,38.37 -45.46,12.92 -94.34,13.36 -140.16,2.01 -24.65,-6.49 -50.31,-17.33 -65.28,-39.02 -8.33,-11.54 -8.4,-26.47 -14.95,-38.81 -7.46,-15.05 -21.58,-26.29 -37.52,-31.18 -6.86,-1.68 -10.99,7.08 -7.34,12.35zm-81.73 -637.75c17.46,-15.12 40.98,-24.41 64.26,-21.76 3.35,-0.23 5.03,2.93 6.85,5.17 10.09,14.19 21.72,27.94 37.02,36.69 8.14,4.82 18.27,6.34 27.39,3.64 10.5,-3.53 16.91,-13.22 23.16,-21.73 4.27,11.95 2.45,25.36 -5.28,35.51 -15.18,20.72 -35.98,36.76 -49.98,58.47 -1.48,-6.97 -2.72,-15.85 -10.22,-18.92 -9.44,-3.18 -19.29,0.51 -28.87,0.76 -16.48,-0.23 -34.2,-6.39 -43.5,-20.79 -5.93,-8.72 -6.11,-19.61 -6,-29.74 -15.27,2.63 -29.14,10.82 -38.23,23.49 1.57,-18.99 8.93,-37.98 23.4,-50.79zm67.19 15.5l0 0c-1.87,2.27 -3.83,4.48 -5.54,6.9 -6.53,10.25 1.43,26.15 14.01,25.66 7.68,1.13 13.31,-4.7 17.44,-10.29 -10.4,-5.12 -19.29,-12.74 -25.91,-22.27zm390.8 21.95l0 0c3.9,5.72 9.35,11.74 17.08,10.61 9.66,0.47 15.73,-8.49 17.37,-17 -1.48,-5.93 -4.57,-11.15 -8.84,-15.49 -6.53,9.4 -15.16,17.13 -25.61,21.88z"/>
   <path class="fil2" d="M429.34 94.1c29.12,-11.93 61.43,-14.56 92.44,-10.5 48.16,6.9 92.58,30.67 129.08,62.21 69.32,-16.59 142.05,-25.59 212.8,-13.13 -9.09,-8.95 -18.78,-17.21 -28.86,-25.01 49.21,3.53 101.57,22.71 129.45,65.79 -27.53,-2.89 -55.32,-5.33 -82.96,-2.73 -50.72,2.73 -103.81,15.14 -142.86,49.48 61.04,-17.03 129.5,-15.74 185.99,15.25 -20.56,3.58 -42,6.67 -59.93,18.14 20.29,2.56 40.92,6.41 58.8,16.91 -31.5,2.54 -65.42,5.58 -91.03,26.19 61.01,0.16 121.83,23.01 168.08,62.77 16.75,-15.44 36.59,-27.1 56.97,-37.04 34.54,-16.52 72.68,-25.89 111.06,-25.73 -25.62,-20.47 -59.51,-23.97 -91.06,-25.94 17.61,-11.21 38.61,-14.35 58.89,-17.21 -18.16,-11.24 -39.57,-14.75 -60.29,-17.98 56.78,-31.05 125.64,-32.6 186.9,-15.06 -38.88,-33.81 -91.12,-46.85 -141.52,-49.68 -28.29,-2.54 -56.81,-0.72 -84.93,2.83 27.43,-43.31 80.11,-62.41 129.22,-65.97 -10.04,7.87 -19.71,16.15 -28.94,24.97 70.91,-12.46 143.67,-3.32 213.17,13.06 42.8,-36.9 97.17,-63.85 154.62,-63.8 38.93,-0.88 78.27,12.04 108.36,36.92 27.74,22.84 46.92,56.26 50.61,92.18 3.53,24.19 -1.34,48.64 -8.54,71.7 1.2,-32.31 -8.31,-65.81 -30.34,-90.04 -20.03,-22.98 -50.47,-36.6 -81,-35.47 -33.27,0.72 -64.22,17.01 -88.98,38.38 31.83,-6.26 66.72,-8.59 96.74,5.81 16.29,7.57 27.25,23.05 32.05,40.04 -20.08,-20.73 -54.81,-19.5 -77.21,-3.33 -6.74,4.62 -11.66,12.97 -9.02,21.26 2.99,6.13 9.22,9.71 13.96,14.39 32.9,30.88 59.94,67.52 83.11,106.1 8.91,15.53 18.3,31.04 23.93,48.14 -16.91,-5.45 -34.15,-10.59 -51.99,-11.72 42.16,38.92 69.83,90.52 93.04,142.3 -12.94,-6.46 -26.67,-11.15 -40.61,-15 20.14,41.24 32.12,86.09 39.3,131.3 15.55,101 0.71,206.17 -41.42,299.23 -12.65,28.55 -27.97,55.91 -46.13,81.34 -8.7,-29.56 -19.98,-59.39 -40.52,-82.93 -2.65,38.91 -20.93,75 -44.63,105.29 -24.13,31.2 -54.2,57.23 -85.81,80.6 -33,23.77 -67.87,45.23 -104.81,62.33 33.53,-33.73 62.88,-72.52 80.53,-116.97 29.33,-70.86 25.01,-154.14 -10.27,-222.09 4.57,42.87 -5.7,88.47 -34.13,121.72 -11.56,-50.17 -28.89,-99.27 -54.45,-144.06 -22.02,-38.07 -49.43,-74.07 -85.45,-99.89 15.99,22.7 23.33,50.07 29.14,76.86 10.18,50.1 13.85,101.3 14.1,152.34 -0.97,23.59 0.7,48.55 -10.03,70.33 -10.43,22.41 -31.46,40.64 -56.26,44.45 -26.7,2.17 -53.49,-3.65 -78.3,-13.23 -14.16,-5.44 -27.71,-12.64 -39.48,-22.26 25.06,-10.8 51.99,-22.09 68.84,-44.63 -4.73,-3.07 -9.39,-7.5 -8.68,-13.68 -0.9,-14.31 12.81,-23.84 25.04,-27.51 12.11,-4.66 25.43,-3.02 37.72,-6.76 -2.93,-20.35 -8.03,-40.38 -14.83,-59.76 -8.52,-23.63 -21.62,-47.08 -43.29,-60.95 -26.01,-16.86 -57.99,-18.87 -88.06,-20.49 -33.69,-0.69 -67.77,-1.15 -101.02,5.06 -23.72,4.36 -46.68,15.9 -61.49,35.37 -20.72,27.07 -28.87,61.13 -35.63,93.89 -1.39,3.49 0.25,8.45 4.52,8.63 17.68,1.37 37.78,2.61 51,16.04 8.56,7.82 9.6,24.97 -2.38,30.09 16.96,22.41 43.64,33.99 68.79,44.63 -13.34,11.28 -29.38,18.83 -45.69,24.8 -20.1,6.86 -41.24,11.45 -62.54,11.22 -22.75,0.58 -44.02,-12.76 -57.2,-30.69 -12.99,-16.75 -17.28,-38.17 -17.79,-58.91 -1.96,-60.16 1.76,-120.73 13.8,-179.78 5.79,-26.17 13.13,-52.73 28.57,-75.02 -47.81,35.26 -81.27,86.44 -105.57,139.93 -14.88,33.41 -25.85,68.46 -34.25,104.05 -28.12,-33.32 -38.71,-78.74 -34.08,-121.56 -24.71,48.08 -34.72,103.77 -27.32,157.39 6.9,53.65 31.57,103.82 65.4,145.56 9.9,12.71 21.27,24.16 32.23,35.95 -39.45,-18.53 -76.77,-41.51 -111.73,-67.52 -36.87,-27.99 -71.39,-60.27 -95.87,-99.91 -15.16,-24.3 -25.41,-51.9 -27.76,-80.56 -20.65,23.38 -31.68,53.26 -40.43,82.73 -45.76,-65.26 -74.79,-141.73 -87.41,-220.25 -11.77,-76.75 -6.64,-156.11 15.58,-230.55 6.39,-20.93 13.77,-41.62 23.6,-61.24 -13.86,4.04 -27.69,8.54 -40.63,15.05 23.42,-51.76 50.83,-103.8 93.52,-142.38 -18.04,1.18 -35.44,6.35 -52.56,11.77 5.6,-16.36 14.39,-31.36 22.96,-46.29 22.93,-38.26 49.42,-74.76 81.75,-105.66 5.42,-5.56 12.88,-9.48 16.31,-16.7 3.24,-8.24 -2.53,-16.5 -8.99,-21.16 -22.36,-16.34 -56.84,-17.17 -77.14,3.06 5.05,-17.37 16.66,-33.04 33.46,-40.54 29.83,-13.57 64.01,-11.12 95.43,-5.24 -26.21,-22.08 -58.98,-39.2 -94.07,-38.21 -36.83,0.16 -71.56,22.41 -89.56,54.11 -12.69,21 -16.89,45.83 -16.96,70.06 -11.44,-32.79 -13.24,-69.55 -0.78,-102.32 14.14,-38.88 46.45,-69.77 84.61,-84.96zm377.19 1101.4c-3.65,-5.27 0.48,-14.03 7.34,-12.35 15.94,4.89 30.06,16.13 37.52,31.18 6.55,12.34 6.62,27.27 14.95,38.81 14.97,21.69 40.63,32.53 65.28,39.02 45.82,11.35 94.7,10.91 140.16,-2.01 22.42,-6.97 45.68,-17.91 58.77,-38.37 8.12,-12.03 7.87,-27.42 15.37,-39.74 7.49,-13.82 20.88,-24.04 35.76,-28.77 4.78,-2.22 10.48,1.29 10.62,6.57 -0.72,3.9 -2.45,7.5 -3.86,11.22 -15.53,38.39 -18.69,81.2 -39.09,117.73 -11.05,20.56 -29.21,36.04 -48.2,49.01 -14.88,10.06 -31.91,17.03 -49.8,19.29 2.45,-12.42 2.68,-26.31 -5.88,-36.55 -9.48,27.09 -31.8,47.85 -57.71,59.28 0.92,-8.19 2.28,-17.17 -2.17,-24.65 -6.85,-12.73 -19.8,-20.23 -31.98,-27.06 5.98,12.29 9.46,28.17 0.23,39.85 -5.03,-5.63 -9.88,-11.93 -16.96,-15.07 -10.71,-4.78 -22.91,-3.67 -33.81,-7.85 -18.57,-8.17 -37.24,-18.76 -48.13,-36.57 -27.6,-43.22 -28.11,-96.75 -48.41,-142.97zm-81.73 -637.75l0 0c-14.47,12.81 -21.83,31.8 -23.4,50.79 9.09,-12.67 22.96,-20.86 38.23,-23.49 -0.11,10.13 0.07,21.02 6,29.74 9.3,14.4 27.02,20.56 43.5,20.79 9.58,-0.25 19.43,-3.94 28.87,-0.76 7.5,3.07 8.74,11.95 10.22,18.92 14,-21.71 34.8,-37.75 49.98,-58.47 7.73,-10.15 9.55,-23.56 5.28,-35.51 -6.25,8.51 -12.66,18.2 -23.16,21.73 -9.12,2.7 -19.25,1.18 -27.39,-3.64 -15.3,-8.75 -26.93,-22.5 -37.02,-36.69 -1.82,-2.24 -3.5,-5.4 -6.85,-5.17 -23.28,-2.65 -46.8,6.64 -64.26,21.76zm483.07 -20.7l0 0c-14.14,18.6 -29.46,40.7 -53.92,45.5 -16.48,3.3 -28.78,-10.22 -36.74,-22.66 -4.85,12.51 -2.05,26.49 6.23,36.88 15.25,20 35.42,35.93 48.99,57.29 1.22,-5.67 1.68,-12.16 6.18,-16.38 5.4,-6.02 14.38,-3.99 21.46,-3.34 19.76,3.8 43.34,-1.92 54.78,-19.6 5.98,-8.67 5.98,-19.45 5.98,-29.56 15.37,2.54 30.25,10.62 38.17,24.46 -1.23,-8.76 -1.92,-17.74 -5.43,-25.98 -7.96,-20.81 -26.58,-36.16 -47.35,-43.24 -12.13,-4.27 -25.82,-6.76 -38.35,-3.37zm-764.66 137.46l0 0c-3.9,58.08 6.23,116.53 24.76,171.49 10.45,-8.65 20.12,-18.41 32.42,-24.53 -9.3,64.01 13.96,128.35 48.6,181.4 3.83,-53.88 14.56,-108.32 39.8,-156.54 9.97,-19.16 22.64,-37.09 38.84,-51.49 -21.28,-0.04 -42.81,3.79 -61.68,13.94 -30.97,-31.03 -53.54,-69.92 -66.11,-111.87 -14.52,-47.69 -19.04,-98.29 -14.52,-147.86 -26.76,36.16 -38.46,81.18 -42.11,125.46zm1071.42 -125.55l0 0c4.04,51.87 -0.04,104.87 -16.61,154.42 -12.95,39.43 -34.41,76.47 -64.47,105.29 -18.62,-10.29 -40.15,-13.76 -61.2,-13.87 18.83,16.52 32.44,38.1 43.36,60.45 21.9,46.06 31.5,96.92 35.37,147.48 34.52,-52.96 57.46,-116.95 48.67,-180.8 12.55,5.8 22.68,15.33 32.07,25.27 16.04,-48.78 26.08,-99.84 25.94,-151.32 -1.15,-51.44 -12.28,-104.7 -43.13,-146.92z"/>
  </g>
 </g>
</svg>
