<?xml version="1.0" encoding="UTF-8"?>
<!DOCTYPE svg PUBLIC "-//W3C//DTD SVG 1.1//EN" "http://www.w3.org/Graphics/SVG/1.1/DTD/svg11.dtd">
<!-- Creator: CorelDRAW -->
<svg xmlns="http://www.w3.org/2000/svg" xml:space="preserve" width="2000px" height="1600px" version="1.1" style="shape-rendering:geometricPrecision; text-rendering:geometricPrecision; image-rendering:optimizeQuality; fill-rule:evenodd; clip-rule:evenodd"
viewBox="0 0 2000 1600"
 xmlns:xlink="http://www.w3.org/1999/xlink">
 <defs>
  <style type="text/css">
   <![CDATA[
    .fil2 {fill:#432978;fill-rule:nonzero}
    .fil1 {fill:#FBC000;fill-rule:nonzero}
    .fil0 {fill:#FEFEFE;fill-rule:nonzero}
   ]]>
  </style>
 </defs>
 <g id="Capa_x0020_1">
  <metadata id="CorelCorpID_0Corel-Layer"/>
  <g id="North_x0020_Alabama_x0020_Lions.cdr">
   <path class="fil0" d="M1100.82 287.28c49.4,1.64 98.75,5.03 148.04,8.88 9.95,132.58 18.5,265.28 27.81,397.92 -77.29,-34.57 -161.3,-52.91 -245.76,-56.69 -52.7,-56.98 -105.75,-113.63 -158.31,-170.73 -2.22,60.06 -3.49,120.16 -5.24,180.21 0.25,2.6 -3.21,2.26 -4.83,2.93 -54.72,10.61 -108.37,27.81 -158.19,52.93 9.14,-132.58 18.04,-265.2 26.58,-397.82 48.98,-6.7 98.25,-11.02 147.58,-14.16 76.13,86.74 153.38,172.48 230.44,258.42 -1.93,-28.99 -1.89,-58.11 -3.08,-87.14 -1.59,-58.25 -3.82,-116.5 -5.04,-174.75zm238.79 98.74c9.87,-10.48 24.73,-15.87 39.03,-14.2 121.38,19.57 242.7,46.82 355.4,97.14 23.76,12.31 41.13,33.71 55.35,55.83 13.06,20.92 23.27,43.82 28.33,68.04 27.01,133.46 49.7,267.74 76.77,401.19 -47.69,-27.18 -96.14,-53.63 -147.98,-72.11 -9.74,-58.97 -19.96,-117.84 -30.01,-176.75 -0.14,-2.63 -3.18,-2.94 -4.97,-3.85 -71.43,-26.8 -144.85,-48.32 -219.42,-64.39 6.86,57.1 13.6,114.22 20.24,171.34 -18.89,-4.29 -37.86,-8.14 -56.83,-12.02 -29.44,-42.33 -68.62,-77.19 -111.64,-105.29 -7.46,-95.45 -15.49,-190.83 -23.28,-286.22 -1.44,-20.89 3.55,-43.66 19.01,-58.71zm16.01 37.23l0 0c-6.17,9.08 -5.45,20.59 -4.68,31.01 6.88,88.27 14.79,176.45 22.11,264.69 9.72,6.06 19.47,12.03 29.23,18.05 -7.01,-88.99 -14.82,-177.93 -20.78,-267.03 -0.97,-10.01 -0.21,-20.5 4.63,-29.52 6.94,-13.79 20.65,-22.3 34.28,-28.47 -9.97,-1.19 -19.86,-2.85 -29.83,-3.82 -12.96,-0.51 -27.44,3.86 -34.96,15.09zm117.04 60.78l0 0c-2.47,4.58 -1.23,9.99 -0.92,14.9 3,24.85 4.68,49.85 7.95,74.66 74.16,15.12 147.09,36.07 218.11,62.22 -4.63,-26.11 -8.84,-52.3 -13.4,-78.42 -1.48,-8.96 -6.15,-17.47 -13.38,-23.04 -4.5,-3.52 -10.14,-4.86 -15.38,-6.79 -56.2,-18.85 -113.77,-33.34 -171.69,-45.81 -3.81,-0.78 -8.91,-1.77 -11.29,2.28zm234.82 65.96l0 0c5.51,31.51 11.18,63 16.81,94.49 10.55,3.31 20.91,7.21 31.49,10.54 -5.5,-26.1 -10.35,-52.33 -16.09,-78.39 -2.67,-15.38 -19.07,-22.18 -32.21,-26.64zm36.44 202.47l0 0c7.96,45.38 15.85,90.77 23.81,136.15 10.38,4.13 20.74,8.3 31.16,12.37 -7.91,-45.54 -16.49,-90.93 -24.93,-136.36 -10.06,-3.92 -20,-8.18 -30.04,-12.16zm-1225.4 -351.82c48.04,-12.05 96.98,-20.07 145.86,-27.81 -9.25,116.79 -18.69,233.58 -28,350.36 -0.47,7.6 -1.58,15.14 -3.39,22.52 -37.49,27.1 -70.65,60.39 -96.22,99 -124.52,29.99 -246.96,70.42 -362.01,127.07 -16.22,7.09 -31.76,18.7 -50.3,17.63 -11.88,-0.3 -22.08,-9.51 -25.42,-20.59 -4.84,-15.44 -1.81,-31.82 1.25,-47.28 26.33,-133.05 52.87,-266.06 78.99,-399.14 42.78,-23.65 87.98,-42.59 133.48,-60.3 -20.43,122.81 -41.7,245.46 -62.13,368.26 -0.85,4.3 -0.52,10.42 4.72,11.61 6.5,-1.21 12.36,-4.5 18.46,-6.97 57.8,-24.52 118.21,-42.01 178.15,-60.41 6.21,-2.11 13.16,-3.2 18.19,-7.77 5.33,-4.54 7.59,-11.55 8.35,-18.29 13.46,-115.95 26.49,-231.96 40.02,-347.89zm26.87 29.97l0 0c-11.76,109.1 -23.71,218.17 -35.3,327.29 8.53,-4.13 17.25,-8.2 24.48,-14.47 3.72,-3.21 7.46,-7.23 7.94,-12.35 10.67,-102.61 21,-205.26 31.73,-307.89 -9.66,2.36 -19.26,4.89 -28.85,7.42zm-344.57 113.48l0 0c-22.32,119.34 -44.87,238.64 -66.84,358.05 -1.56,8.63 -1.81,19.71 6.23,25.32 9.37,5.65 21.37,3.95 31.34,0.82 11.96,-5.96 23.6,-12.62 35.3,-19.11 -10.78,0.72 -22.49,1.19 -32.19,-4.44 -6.21,-3.6 -9.6,-11 -8.39,-18.07 2.94,-25.41 7.73,-50.55 12.06,-75.75 16.88,-94.34 35.32,-188.38 53.59,-282.44 -10.34,5.26 -20.76,10.34 -31.1,15.62zm928.1 -227.63l0 0c2.49,87.77 5.26,175.52 7.42,263.29 10.09,9.03 20.12,18.11 30.2,27.13 -2.92,-96.44 -6.5,-192.86 -9.87,-289.27 -9.25,-0.22 -18.48,-1.04 -27.75,-1.15zm-375.17 9.25l0 0c-6.56,106.23 -13.34,212.42 -19.67,318.65 10.09,-3.81 20.2,-7.53 30.22,-11.49 4.89,-95.15 10.42,-190.28 15.62,-285.41 24.75,-1.97 49.49,-3.99 74.22,-6.02 -6.16,-7.65 -12.31,-15.32 -18.58,-22.88 -27.26,2.49 -54.55,4.65 -81.81,7.15z"/>
   <path class="fil1" d="M1036.77 210.91l23.48 0c74.61,1.77 149.14,6.46 223.33,14.43 8.44,1.07 17.32,1.07 25.09,4.96 10.45,5.03 18.01,15.64 19.2,27.19 1.13,10.22 1.42,20.49 2.33,30.73 148.83,20.21 296.81,53.71 435.55,112.19 23.81,11.84 44.98,28.45 64.14,46.76 27.38,27.03 49.18,60.31 59.77,97.49 3.56,12.6 5.8,25.53 8.69,38.3 31.12,145.59 62.37,291.16 93.51,436.77 2.69,13.59 6.39,27.01 8.14,40.8l0 0.7c-0.56,12.05 -6.79,23.93 -17.45,29.99 -39.57,23.43 -79.16,46.79 -118.77,70.18 -10.32,6.29 -23.88,7.07 -34.63,1.42 -59.45,-33.94 -123.42,-59.18 -188.1,-81.24 -33.03,-10.83 -66.27,-21.13 -100,-29.52 -13.01,63.58 -47.2,121.51 -92.13,167.84 -47.36,49.27 -106.12,86.63 -168.67,113.6 -80.39,34.76 -167.63,52.01 -254.95,55.6l-56.38 0c-74.27,-3.24 -148.39,-16.07 -218.36,-41.46 -66.47,-24 -129.61,-58.82 -182.3,-106.2 -52.68,-47.24 -94.51,-108.45 -111.69,-177.66 -61.59,17.12 -122.12,38.27 -180.68,63.95 -22.76,9.91 -44.83,21.37 -67.54,31.38 -19.43,8.31 -42,11.64 -62.25,4.34 -13.83,-4.36 -24.91,-14 -36.17,-22.69 -25.67,-19.75 -51.33,-39.47 -77,-59.22 -19.16,-14.55 -31.28,-37.47 -32.93,-61.46l0 -11.76c1.09,-12.25 3.97,-24.23 6.43,-36.24 30.63,-152.57 61.46,-305.09 92.11,-457.65 2.06,-9.7 2.92,-20.21 9.03,-28.45 4.23,-6.29 11.09,-9.93 17.42,-13.73 82.37,-49.27 171.78,-85.86 263.34,-114.16 84.68,-26.11 171.48,-44.79 258.91,-58.85 1.08,-12.11 1.48,-24.26 3.04,-36.32 2.32,-15.38 16.01,-27.73 31.42,-29 84.06,-10.73 168.49,-19.35 253.2,-22.39 10.81,-0.92 22.16,2.32 29.81,10.22 13.56,13.91 26.59,28.3 40.24,42.13 0.15,-10.91 -2.11,-22.55 2.98,-32.74 5.12,-11.32 16.59,-18.89 28.84,-20.23zm707.15 541.55c10.04,3.98 19.98,8.24 30.04,12.16 8.44,45.43 17.02,90.82 24.93,136.36 -10.42,-4.07 -20.78,-8.24 -31.16,-12.37 -7.96,-45.38 -15.85,-90.77 -23.81,-136.15zm-740.02 -58.94c82.51,0.11 165.51,16.45 240.81,50.61 59.19,27.19 114.61,66.37 152.17,120.33 20.67,29.64 35.21,63.92 39.75,99.9 5.71,43.18 -2.94,87.79 -23.44,126.14 -29.88,56.84 -80.63,100.04 -136.13,130.83 -63.27,34.93 -134.1,55.09 -205.74,63.13 15.3,-9.54 25.9,-25.61 28.86,-43.37 8.12,-46.56 -11.18,-94.45 -43.39,-127.87 -30.97,-31.17 -52.08,-73.22 -53.97,-117.5 -1.75,-25.09 7.25,-49.16 8.53,-74.02 -15.52,-12.55 -31.1,-25.13 -44.81,-39.63 -5.25,-5.83 -10.77,-11.96 -12.95,-19.69 -3.93,-14.9 0.37,-32 11.75,-42.59 5.2,-5.14 13.18,-4.7 19.9,-3.74 13.84,2.67 26.27,9.77 38.54,16.43 8.51,4.48 16.24,10.71 25.72,13.11 -4.5,-9.15 -12.25,-16.01 -19.55,-22.86 -11.84,-10.54 -24.36,-20.82 -38.97,-27.23 -11.33,-5.39 -24.49,-0.68 -33.94,6.35 -12.76,9.74 -17.57,26.58 -17,42.06 -0.51,14.59 5.61,28.28 12.64,40.71 11.97,20.91 28.27,38.89 44.96,56.1 -23.89,52.99 -26.19,115.56 -4.69,169.72 5.22,14.72 14.2,27.83 18.66,42.84 8.9,28.16 10.73,59.05 2.47,87.58 -5.18,18.01 -15.15,34.54 -28.59,47.59 -66.87,-1.36 -133.71,-12.73 -196.61,-35.71 -5.12,-1.56 -8.35,-6.08 -12.05,-9.58 -26.98,-27.99 -49.64,-60.9 -61.93,-98.02 -14.14,-41.34 -13.3,-86.93 -0.59,-128.51 10.05,-31.04 22.42,-61.5 38.74,-89.81 21.63,-37.74 52.11,-70.71 89.35,-93.44 4.57,-2.77 9.48,-5.14 13.36,-8.9 -76.36,24.44 -140.4,81.62 -177.86,152.02 -11.86,22.12 -20.65,45.74 -28.07,69.67 -8.78,28.98 -13.88,59.69 -9.46,89.9 1.6,11.97 4.62,23.7 8.14,35.25 -25.18,-22.11 -46.97,-48.26 -63.08,-77.69 -20.15,-36.78 -30.01,-79.47 -25.96,-121.36 3.84,-44.17 22.79,-86.1 50.09,-120.68 32.54,-41.52 75.87,-73.58 122.53,-97.67 55.84,-26.42 117.74,-39.66 179.48,-39.08 38.93,1.13 78.54,5.2 114.99,19.77 25.26,9.99 48.12,26.38 64.75,47.96 2.26,3.04 4.8,5.86 7.54,8.49 -3.93,-22.1 -16.49,-42.02 -31.82,-58.13 -17.6,-17.95 -40.18,-29.81 -63.13,-39.41zm93.76 48.39l0 0c15.43,20.93 34.01,43.45 33.36,70.98 68.16,31.28 136.69,61.91 203,97 12.31,7.09 25.51,13.17 35.97,22.96 -10.13,0.24 -20.21,-0.74 -30.32,-0.46 5.59,16.47 14.47,32.07 26.8,44.46 -0.74,10.92 -0.57,22.27 -4.81,32.56 -4.23,10.59 -13.48,18.93 -24.19,22.67 -9.23,-0.28 -17.84,-4.58 -26.51,-7.35 -19.61,-6.93 -41.03,-14.58 -61.85,-8.27 -19.55,6.44 -34.39,24.3 -39.22,44.09 -3.07,11.08 -7.92,23.46 -2.63,34.64 17.04,12 37.65,19.73 51.32,36.13 4.46,5.21 7.05,12.67 4.36,19.33 -5.8,11.57 -17.72,19.69 -30.57,21.11 -11.12,1.72 -21.93,-4.05 -29.92,-11.33 -6.71,-5.92 -8.47,-15.01 -12.6,-22.55 -13.32,-23.72 -36.39,-41.4 -62.41,-49.08 -19.18,-6.29 -39.55,-6.17 -59.51,-6.95 10.84,13.11 21.81,26.21 33.88,38.23 18.04,-4.58 39.85,-2.36 52.37,12.83 9.6,9.99 10.36,24.77 18.75,35.46 9.62,13.6 23.96,24.56 40.66,27.37 17.55,2.82 35.17,-4.05 49.33,-14.06 11.18,-7.68 18.87,-19.61 23.12,-32.35 2.06,-5.01 -0.59,-9.91 -3.37,-13.94 7.01,-13.15 9.38,-28.09 11.59,-42.65 -6.7,9.75 -14.18,19.55 -24.68,25.43 -15.25,-9.5 -28.66,-21.95 -43.87,-31.66 -6.94,-4.11 -3.82,-12.68 -2.91,-19.05 2.58,-15.54 13.07,-30.69 29.14,-34.2 26,-5.68 51.43,5.26 75.99,12.37 -4.05,9.33 -11.63,16.26 -17.67,24.23 19.32,-6.04 38.66,-17.82 46.9,-37.12 18.4,-12.54 22.02,-36.19 28.43,-55.87 6.58,-6.86 12.5,-14.77 13.98,-24.46 1.62,-9.35 2.67,-21.72 -5.94,-28.07 -13.96,-10.53 -29.46,-18.77 -44.69,-27.26 -61.79,-33.48 -125.2,-63.84 -188.74,-93.79 -1.84,-1.59 -2.52,-4.09 -3.7,-6.09 -11.32,-22.55 -29.96,-41.23 -52.18,-53.11 -2.16,-0.95 -4.38,-1.69 -6.66,-2.18zm-299.26 20.31l0 0c-49.29,15.56 -97.52,38.68 -134.45,75.58 -32.93,32.41 -58.11,73.67 -68.21,118.99 -8.51,41.01 0.37,84.59 20.13,121.13 -3.25,-29.33 -2.84,-59.15 2.05,-88.26 8.68,-53.44 32.91,-105.24 72.71,-142.55 26.7,-25.98 60.39,-43.08 94.4,-57.41 53.88,-22.32 112.91,-34.86 171.33,-28.88 25.76,2.49 50.96,9.6 74.29,20.78 -4.59,-4.99 -10.69,-8.18 -16.45,-11.59 -21.79,-12.03 -46.24,-18.62 -70.79,-21.95 -48.61,-6.48 -98.31,-0.07 -145.01,14.16zm367.44 113.17l0 0c4,5.06 10.71,8.35 12.43,14.99 2,8.41 11.39,12.99 19.47,12.15 5.12,-0.62 9.06,-4.2 12.99,-7.18 7.85,0.8 15.77,0.74 23.6,1.73 -0.13,-0.33 -0.44,-0.99 -0.58,-1.32 -22.69,-6.61 -45.32,-13.44 -67.91,-20.37zm-358.01 86.91l0 0c-22.16,35.42 -27.91,79.22 -21.54,120.06 4.36,27.24 12.31,54.45 26.72,78.17 0.54,2.98 5.39,2.96 4.5,-0.49 -21.05,-71.55 -9.35,-152.25 32.5,-214.18 13.61,-21.48 31.49,-39.7 49.37,-57.58 -36.81,14.8 -70.42,40.06 -91.55,74.02zm333.22 19.9l0 0c10.3,-4.98 20.26,-10.81 31.22,-14.31 29.23,-10.32 60.88,-10.58 91.41,-7.91 22.16,1.97 43.62,9.06 62.92,20.04 -27.3,-21.85 -62.84,-32.77 -97.68,-31.31 -31.88,1.4 -63.17,13.28 -87.87,33.49zm44.87 17.31l0 0c16.83,-8.88 35.21,-15.09 54.3,-16.39 25.56,-2.38 51.35,3.46 74.33,14.66 -17.9,-13.28 -39.92,-21.09 -62.26,-21.11 -23.92,-0.41 -47.67,8.02 -66.37,22.84zm521.56 -449.52c13.14,4.46 29.54,11.26 32.21,26.64 5.74,26.06 10.59,52.29 16.09,78.39 -10.58,-3.33 -20.94,-7.23 -31.49,-10.54 -5.63,-31.49 -11.3,-62.98 -16.81,-94.49zm-1506.66 -5.9c10.34,-5.28 20.76,-10.36 31.1,-15.62 -18.27,94.06 -36.71,188.1 -53.59,282.44 -4.33,25.2 -9.12,50.34 -12.06,75.75 -1.21,7.07 2.18,14.47 8.39,18.07 9.7,5.63 21.41,5.16 32.19,4.44 -11.7,6.49 -23.34,13.15 -35.3,19.11 -9.97,3.13 -21.97,4.83 -31.34,-0.82 -8.04,-5.61 -7.79,-16.69 -6.23,-25.32 21.97,-119.41 44.52,-238.71 66.84,-358.05zm344.57 -113.48c9.59,-2.53 19.19,-5.06 28.85,-7.42 -10.73,102.63 -21.06,205.28 -31.73,307.89 -0.48,5.12 -4.22,9.14 -7.94,12.35 -7.23,6.27 -15.95,10.34 -24.48,14.47 11.59,-109.12 23.54,-218.19 35.3,-327.29zm810.23 -7.36c7.52,-11.23 22,-15.6 34.96,-15.09 9.97,0.97 19.86,2.63 29.83,3.82 -13.63,6.17 -27.34,14.68 -34.28,28.47 -4.84,9.02 -5.6,19.51 -4.63,29.52 5.96,89.1 13.77,178.04 20.78,267.03 -9.76,-6.02 -19.51,-11.99 -29.23,-18.05 -7.32,-88.24 -15.23,-176.42 -22.11,-264.69 -0.77,-10.42 -1.49,-21.93 4.68,-31.01zm-601.87 -97.54c27.26,-2.5 54.55,-4.66 81.81,-7.15 6.27,7.56 12.42,15.23 18.58,22.88 -24.73,2.03 -49.47,4.05 -74.22,6.02 -5.2,95.13 -10.73,190.26 -15.62,285.41 -10.02,3.96 -20.13,7.68 -30.22,11.49 6.33,-106.23 13.11,-212.42 19.67,-318.65zm375.17 -9.25c9.27,0.11 18.5,0.93 27.75,1.15 3.37,96.41 6.95,192.83 9.87,289.27 -10.08,-9.02 -20.11,-18.1 -30.2,-27.13 -2.16,-87.77 -4.93,-175.52 -7.42,-263.29zm-89.08 -70.03l0 0c1.47,36.53 1.64,73.16 3.9,109.64 -34.66,-36.19 -69.13,-72.58 -103.49,-109.06 -4.4,-0.06 -8.8,-0.08 -13.18,0.14 -80.97,3.27 -161.64,11.72 -242.01,21.87 -1.87,20.33 -3.07,40.72 -5.06,61.03 -91.45,13.38 -182.26,32.05 -270.85,58.62 -95.15,28.62 -188.18,66.27 -273.14,118.22 -32.56,162.38 -65.34,324.7 -98.04,487.04 -2.51,10.86 -3.72,22.33 -1.13,33.3 2.69,11.12 10.03,20.56 19.01,27.42 27.52,21.14 55.02,42.31 82.51,63.46 7.83,6.43 16.52,12.78 26.96,13.75 18.42,2.16 34.8,-8.1 50.98,-15.23 87.89,-43.52 181.3,-74.84 276.12,-99.28 0.86,10.3 2.71,20.49 4.66,30.64 1.48,14.64 7.13,28.39 12.33,42.04 15.03,36.71 37.74,70.01 64.61,99.07 46.23,49.28 104.73,85.76 166.88,111.53 84.55,34.85 176.53,50.18 267.79,49.05 86.36,-1.15 172.97,-17.21 252.73,-50.77 58.46,-24.79 113.67,-59.03 157.92,-104.93 49.09,-49.79 83.85,-116.16 87.09,-186.83 53.14,11.82 105.47,27.3 157,44.81 62.63,21.65 124.26,46.89 182.1,79.39 39.53,-23.83 79.55,-46.87 119.11,-70.69 -34.34,-159.34 -68.34,-318.73 -102.48,-478.11 -3.54,-17.54 -7.32,-35.23 -15.09,-51.47 -19.49,-41.95 -54.39,-75.66 -94.55,-97.88 -144.77,-61.28 -299.88,-94.19 -455.36,-113.74 -1.79,-19.19 -2.77,-38.45 -4.27,-57.67 -84.03,-8.96 -168.49,-15.34 -253.05,-15.36z"/>
   <path class="fil2" d="M1039.84 246.43c84.56,0.02 169.02,6.4 253.05,15.36 1.5,19.22 2.48,38.48 4.27,57.67 155.48,19.55 310.59,52.46 455.36,113.74 40.16,22.22 75.06,55.93 94.55,97.88 7.77,16.24 11.55,33.93 15.09,51.47 34.14,159.38 68.14,318.77 102.48,478.11 -39.56,23.82 -79.58,46.86 -119.11,70.69 -57.84,-32.5 -119.47,-57.74 -182.1,-79.39 -51.53,-17.51 -103.86,-32.99 -157,-44.81 -3.24,70.67 -38,137.04 -87.09,186.83 -44.25,45.9 -99.46,80.14 -157.92,104.93 -79.76,33.56 -166.37,49.62 -252.73,50.77 -91.26,1.13 -183.24,-14.2 -267.79,-49.05 -62.15,-25.77 -120.65,-62.25 -166.88,-111.53 -26.87,-29.06 -49.58,-62.36 -64.61,-99.07 -5.2,-13.65 -10.85,-27.4 -12.33,-42.04 -1.95,-10.15 -3.8,-20.34 -4.66,-30.64 -94.82,24.44 -188.23,55.76 -276.12,99.28 -16.18,7.13 -32.56,17.39 -50.98,15.23 -10.44,-0.97 -19.13,-7.32 -26.96,-13.75 -27.49,-21.15 -54.99,-42.32 -82.51,-63.46 -8.98,-6.86 -16.32,-16.3 -19.01,-27.42 -2.59,-10.97 -1.38,-22.44 1.13,-33.3 32.7,-162.34 65.48,-324.66 98.04,-487.04 84.96,-51.95 177.99,-89.6 273.14,-118.22 88.59,-26.57 179.4,-45.24 270.85,-58.62 1.99,-20.31 3.19,-40.7 5.06,-61.03 80.37,-10.15 161.04,-18.6 242.01,-21.87 4.38,-0.22 8.78,-0.2 13.18,-0.14 34.36,36.48 68.83,72.87 103.49,109.06 -2.26,-36.48 -2.43,-73.11 -3.9,-109.64zm146.08 753.08c18.7,-14.82 42.45,-23.25 66.37,-22.84 22.34,0.02 44.36,7.83 62.26,21.11 -22.98,-11.2 -48.77,-17.04 -74.33,-14.66 -19.09,1.3 -37.47,7.51 -54.3,16.39zm-44.87 -17.31c24.7,-20.21 55.99,-32.09 87.87,-33.49 34.84,-1.46 70.38,9.46 97.68,31.31 -19.3,-10.98 -40.76,-18.07 -62.92,-20.04 -30.53,-2.67 -62.18,-2.41 -91.41,7.91 -10.96,3.5 -20.92,9.33 -31.22,14.31zm-333.22 -19.9c21.13,-33.96 54.74,-59.22 91.55,-74.02 -17.88,17.88 -35.76,36.1 -49.37,57.58 -41.85,61.93 -53.55,142.63 -32.5,214.18 0.89,3.45 -3.96,3.47 -4.5,0.49 -14.41,-23.72 -22.36,-50.93 -26.72,-78.17 -6.37,-40.84 -0.62,-84.64 21.54,-120.06zm358.01 -86.91c22.59,6.93 45.22,13.76 67.91,20.37 0.14,0.33 0.45,0.99 0.58,1.32 -7.83,-0.99 -15.75,-0.93 -23.6,-1.73 -3.93,2.98 -7.87,6.56 -12.99,7.18 -8.08,0.84 -17.47,-3.74 -19.47,-12.15 -1.72,-6.64 -8.43,-9.93 -12.43,-14.99zm-367.44 -113.17c46.7,-14.23 96.4,-20.64 145.01,-14.16 24.55,3.33 49,9.92 70.79,21.95 5.76,3.41 11.86,6.6 16.45,11.59 -23.33,-11.18 -48.53,-18.29 -74.29,-20.78 -58.42,-5.98 -117.45,6.56 -171.33,28.88 -34.01,14.33 -67.7,31.43 -94.4,57.41 -39.8,37.31 -64.03,89.11 -72.71,142.55 -4.89,29.11 -5.3,58.93 -2.05,88.26 -19.76,-36.54 -28.64,-80.12 -20.13,-121.13 10.1,-45.32 35.28,-86.58 68.21,-118.99 36.93,-36.9 85.16,-60.02 134.45,-75.58zm299.26 -20.31c2.28,0.49 4.5,1.23 6.66,2.18 22.22,11.88 40.86,30.56 52.18,53.11 1.18,2 1.86,4.5 3.7,6.09 63.54,29.95 126.95,60.31 188.74,93.79 15.23,8.49 30.73,16.73 44.69,27.26 8.61,6.35 7.56,18.72 5.94,28.07 -1.48,9.69 -7.4,17.6 -13.98,24.46 -6.41,19.68 -10.03,43.33 -28.43,55.87 -8.24,19.3 -27.58,31.08 -46.9,37.12 6.04,-7.97 13.62,-14.9 17.67,-24.23 -24.56,-7.11 -49.99,-18.05 -75.99,-12.37 -16.07,3.51 -26.56,18.66 -29.14,34.2 -0.91,6.37 -4.03,14.94 2.91,19.05 15.21,9.71 28.62,22.16 43.87,31.66 10.5,-5.88 17.98,-15.68 24.68,-25.43 -2.21,14.56 -4.58,29.5 -11.59,42.65 2.78,4.03 5.43,8.93 3.37,13.94 -4.25,12.74 -11.94,24.67 -23.12,32.35 -14.16,10.01 -31.78,16.88 -49.33,14.06 -16.7,-2.81 -31.04,-13.77 -40.66,-27.37 -8.39,-10.69 -9.15,-25.47 -18.75,-35.46 -12.52,-15.19 -34.33,-17.41 -52.37,-12.83 -12.07,-12.02 -23.04,-25.12 -33.88,-38.23 19.96,0.78 40.33,0.66 59.51,6.95 26.02,7.68 49.09,25.36 62.41,49.08 4.13,7.54 5.89,16.63 12.6,22.55 7.99,7.28 18.8,13.05 29.92,11.33 12.85,-1.42 24.77,-9.54 30.57,-21.11 2.69,-6.66 0.1,-14.12 -4.36,-19.33 -13.67,-16.4 -34.28,-24.13 -51.32,-36.13 -5.29,-11.18 -0.44,-23.56 2.63,-34.64 4.83,-19.79 19.67,-37.65 39.22,-44.09 20.82,-6.31 42.24,1.34 61.85,8.27 8.67,2.77 17.28,7.07 26.51,7.35 10.71,-3.74 19.96,-12.08 24.19,-22.67 4.24,-10.29 4.07,-21.64 4.81,-32.56 -12.33,-12.39 -21.21,-27.99 -26.8,-44.46 10.11,-0.28 20.19,0.7 30.32,0.46 -10.46,-9.79 -23.66,-15.87 -35.97,-22.96 -66.31,-35.09 -134.84,-65.72 -203,-97 0.65,-27.53 -17.93,-50.05 -33.36,-70.98zm375 -257.88c2.38,-4.05 7.48,-3.06 11.29,-2.28 57.92,12.47 115.49,26.96 171.69,45.81 5.24,1.93 10.88,3.27 15.38,6.79 7.23,5.57 11.9,14.08 13.38,23.04 4.56,26.12 8.77,52.31 13.4,78.42 -71.02,-26.15 -143.95,-47.1 -218.11,-62.22 -3.27,-24.81 -4.95,-49.81 -7.95,-74.66 -0.31,-4.91 -1.55,-10.32 0.92,-14.9zm-371.84 -196.75l0 0c1.22,58.25 3.45,116.5 5.04,174.75 1.19,29.03 1.15,58.15 3.08,87.14 -77.06,-85.94 -154.31,-171.68 -230.44,-258.42 -49.33,3.14 -98.6,7.46 -147.58,14.16 -8.54,132.62 -17.44,265.24 -26.58,397.82 49.82,-25.12 103.47,-42.32 158.19,-52.93 1.62,-0.67 5.08,-0.33 4.83,-2.93 1.75,-60.05 3.02,-120.15 5.24,-180.21 52.56,57.1 105.61,113.75 158.31,170.73 84.46,3.78 168.47,22.12 245.76,56.69 -9.31,-132.64 -17.86,-265.34 -27.81,-397.92 -49.29,-3.85 -98.64,-7.24 -148.04,-8.88zm-582.3 113.36l0 0c-13.53,115.93 -26.56,231.94 -40.02,347.89 -0.76,6.74 -3.02,13.75 -8.35,18.29 -5.03,4.57 -11.98,5.66 -18.19,7.77 -59.94,18.4 -120.35,35.89 -178.15,60.41 -6.1,2.47 -11.96,5.76 -18.46,6.97 -5.24,-1.19 -5.57,-7.31 -4.72,-11.61 20.43,-122.8 41.7,-245.45 62.13,-368.26 -45.5,17.71 -90.7,36.65 -133.48,60.3 -26.12,133.08 -52.66,266.09 -78.99,399.14 -3.06,15.46 -6.09,31.84 -1.25,47.28 3.34,11.08 13.54,20.29 25.42,20.59 18.54,1.07 34.08,-10.54 50.3,-17.63 115.05,-56.65 237.49,-97.08 362.01,-127.07 25.57,-38.61 58.73,-71.9 96.22,-99 1.81,-7.38 2.92,-14.92 3.39,-22.52 9.31,-116.78 18.75,-233.57 28,-350.36 -48.88,7.74 -97.82,15.76 -145.86,27.81zm821.09 -14.62l0 0c-15.46,15.05 -20.45,37.82 -19.01,58.71 7.79,95.39 15.82,190.77 23.28,286.22 43.02,28.1 82.2,62.96 111.64,105.29 18.97,3.88 37.94,7.73 56.83,12.02 -6.64,-57.12 -13.38,-114.24 -20.24,-171.34 74.57,16.07 147.99,37.59 219.42,64.39 1.79,0.91 4.83,1.22 4.97,3.85 10.05,58.91 20.27,117.78 30.01,176.75 51.84,18.48 100.29,44.93 147.98,72.11 -27.07,-133.45 -49.76,-267.73 -76.77,-401.19 -5.06,-24.22 -15.27,-47.12 -28.33,-68.04 -14.22,-22.12 -31.59,-43.52 -55.35,-55.83 -112.7,-50.32 -234.02,-77.57 -355.4,-97.14 -14.3,-1.67 -29.16,3.72 -39.03,14.2zm-335.71 307.5l0 0c22.95,9.6 45.53,21.46 63.13,39.41 15.33,16.11 27.89,36.03 31.82,58.13 -2.74,-2.63 -5.28,-5.45 -7.54,-8.49 -16.63,-21.58 -39.49,-37.97 -64.75,-47.96 -36.45,-14.57 -76.06,-18.64 -114.99,-19.77 -61.74,-0.58 -123.64,12.66 -179.48,39.08 -46.66,24.09 -89.99,56.15 -122.53,97.67 -27.3,34.58 -46.25,76.51 -50.09,120.68 -4.05,41.89 5.81,84.58 25.96,121.36 16.11,29.43 37.9,55.58 63.08,77.69 -3.52,-11.55 -6.54,-23.28 -8.14,-35.25 -4.42,-30.21 0.68,-60.92 9.46,-89.9 7.42,-23.93 16.21,-47.55 28.07,-69.67 37.46,-70.4 101.5,-127.58 177.86,-152.02 -3.88,3.76 -8.79,6.13 -13.36,8.9 -37.24,22.73 -67.72,55.7 -89.35,93.44 -16.32,28.31 -28.69,58.77 -38.74,89.81 -12.71,41.58 -13.55,87.17 0.59,128.51 12.29,37.12 34.95,70.03 61.93,98.02 3.7,3.5 6.93,8.02 12.05,9.58 62.9,22.98 129.74,34.35 196.61,35.71 13.44,-13.05 23.41,-29.58 28.59,-47.59 8.26,-28.53 6.43,-59.42 -2.47,-87.58 -4.46,-15.01 -13.44,-28.12 -18.66,-42.84 -21.5,-54.16 -19.2,-116.73 4.69,-169.72 -16.69,-17.21 -32.99,-35.19 -44.96,-56.1 -7.03,-12.43 -13.15,-26.12 -12.64,-40.71 -0.57,-15.48 4.24,-32.32 17,-42.06 9.45,-7.03 22.61,-11.74 33.94,-6.35 14.61,6.41 27.13,16.69 38.97,27.23 7.3,6.85 15.05,13.71 19.55,22.86 -9.48,-2.4 -17.21,-8.63 -25.72,-13.11 -12.27,-6.66 -24.7,-13.76 -38.54,-16.43 -6.72,-0.96 -14.7,-1.4 -19.9,3.74 -11.38,10.59 -15.68,27.69 -11.75,42.59 2.18,7.73 7.7,13.86 12.95,19.69 13.71,14.5 29.29,27.08 44.81,39.63 -1.28,24.86 -10.28,48.93 -8.53,74.02 1.89,44.28 23,86.33 53.97,117.5 32.21,33.42 51.51,81.31 43.39,127.87 -2.96,17.76 -13.56,33.83 -28.86,43.37 71.64,-8.04 142.47,-28.2 205.74,-63.13 55.5,-30.79 106.25,-73.99 136.13,-130.83 20.5,-38.35 29.15,-82.96 23.44,-126.14 -4.54,-35.98 -19.08,-70.26 -39.75,-99.9 -37.56,-53.96 -92.98,-93.14 -152.17,-120.33 -75.3,-34.16 -158.3,-50.5 -240.81,-50.61z"/>
  </g>
 </g>
</svg>
