<?xml version="1.0" encoding="UTF-8"?>
<!DOCTYPE svg PUBLIC "-//W3C//DTD SVG 1.1//EN" "http://www.w3.org/Graphics/SVG/1.1/DTD/svg11.dtd">
<!-- Creator: CorelDRAW -->
<svg xmlns="http://www.w3.org/2000/svg" xml:space="preserve" width="2000px" height="1600px" version="1.1" style="shape-rendering:geometricPrecision; text-rendering:geometricPrecision; image-rendering:optimizeQuality; fill-rule:evenodd; clip-rule:evenodd"
viewBox="0 0 2000 1600"
 xmlns:xlink="http://www.w3.org/1999/xlink">
 <defs>
  <style type="text/css">
   <![CDATA[
    .fil1 {fill:#482E91;fill-rule:nonzero}
    .fil0 {fill:#F1682A;fill-rule:nonzero}
    .fil2 {fill:#FEFEFE;fill-rule:nonzero}
   ]]>
  </style>
 </defs>
 <g id="Capa_x0020_1">
  <metadata id="CorelCorpID_0Corel-Layer"/>
  <g id="Northwestern_x0020_State_x0020_Demons.cdr">
   <path class="fil0" d="M5.03 218.54l928.04 0c-34.49,36.6 -68.45,73.75 -101.01,112.09 -13.7,16.32 -27.2,32.82 -39.57,50.17 -8.88,11.45 -9,26.71 -9.82,40.51 -0.52,23.61 -0.11,47.22 -0.21,70.85 57.48,-29.86 122.93,-42.72 187.43,-41.27 48.74,1.17 97.56,10.73 142.15,30.71 21.4,-6.09 40.18,-18.93 58.85,-30.67 19.26,-12.53 37.62,-26.32 56,-40.04 15,97.81 29.93,195.67 44.97,293.48 242.72,0.06 485.43,-0.02 728.14,0.04 -45.74,32 -89.19,68.06 -125.21,110.91 -17.52,21.25 -33.34,44.7 -41.4,71.3 -4.69,14.9 -4.22,30.67 -4.12,46.1 0,55.3 0,110.6 0,165.9 1.37,30.59 -6.91,60.66 -16.86,89.3 -21.56,60.33 -62.83,114.19 -118.17,147.13 -51.98,31.64 -113.22,44.33 -173.46,46.41l-30.65 0c-64.33,-2.26 -130.05,-16.81 -184.02,-53.28 -52.37,-34.62 -90.42,-88.47 -109.99,-147.77 -8.65,-26.79 -15.79,-54.75 -14.13,-83.14 -64.1,34.15 -138.5,44.58 -210.32,39.88 -45.43,-2.94 -90.34,-12.6 -133.11,-28.1 -6.87,-2.28 -13.98,-6 -21.39,-4.09 -18.58,3.94 -34.93,14.24 -50.69,24.37 -19.83,13.21 -38.44,28.11 -56.49,43.67 -16.57,-96.51 -32.97,-193.02 -49.4,-289.53 -220.2,-0.09 -440.39,-0.04 -660.59,-0.04l0 -0.64c56.45,-57.58 113.37,-114.69 169.78,-172.33 -0.02,-37.13 -0.04,-74.26 0,-111.4 0.02,-17.91 -5.68,-35.25 -12.78,-51.53 -16.36,-35.96 -40.92,-67.53 -67.85,-96.17 -12.29,-12.18 -24.78,-24.14 -37.19,-36.18 39.24,-0.14 78.5,-0.04 117.76,-0.06 -1.14,-8.72 3.53,-19.96 -4.39,-26.4 -53.54,-56.6 -106.48,-113.83 -160.3,-170.18z"/>
   <path class="fil1" d="M49.79 237.64c279.65,-0.14 559.28,-0.12 838.93,-0.02 -38.79,42.54 -77.75,85.15 -111.65,131.77 -10.9,13.5 -12.66,31.51 -13.58,48.21 -0.19,36.53 0.02,73.07 -0.09,109.6 48.72,-36 109.3,-52.64 169.19,-56.12 35.96,-2.03 72.46,-0.93 107.63,7.5 21.93,5.15 43.02,13.15 64.05,21.11 7.57,3.1 15.81,0.25 23.03,-2.54 30.77,-13.01 58.15,-32.6 85.32,-51.74 14.35,92.66 28.39,185.36 42.7,278.03 228.88,0.01 457.75,-0.16 686.63,0.09 -27.61,21.82 -53.7,45.68 -76.54,72.49 -18.33,21.44 -34.72,44.94 -45.55,71.1 -5.36,13.43 -9.21,27.65 -9.6,42.19 -0.17,68.76 0.28,137.54 -0.21,206.3 -6.77,63.14 -34.93,124.55 -80.74,168.88 -38.54,37.15 -89,60.27 -141.27,70.16 -46.05,8.82 -93.5,9.47 -140,4.01 -60.64,-7.44 -120.76,-30.85 -165.25,-73.68 -45.29,-43.36 -73.29,-103.32 -81.25,-165.19 -1.29,-18.91 -0.19,-37.9 -0.58,-56.82 -61.7,43.43 -139.16,58.67 -213.54,55.72 -51.6,-1.32 -102.79,-12.25 -150.79,-31.12 -12.08,-5.05 -25.49,-1.58 -37.27,2.6 -27.93,10.55 -52.34,28.25 -75.85,46.28 -15.98,-90.77 -31.1,-181.7 -46.67,-272.55 -210.38,0 -420.76,0 -631.14,0 47.9,-48.68 96.33,-96.85 143.55,-146.2 0.06,-38.95 -0.02,-77.91 0.04,-116.86 0,-21.7 -6.42,-42.87 -15.3,-62.48 -17.99,-39.08 -44.99,-73.29 -74.58,-104.25 29.94,0.08 59.87,-0.02 89.8,0.06 0.12,-16.02 0.06,-32.04 0.02,-48.06 -46.65,-49.31 -92.92,-99.03 -139.44,-148.47z"/>
   <path class="fil2" d="M204 306.38c48.51,-0.12 97.03,0.02 145.56,-0.08 78.93,101.76 157.78,203.57 236.72,305.29 0.14,-76.37 0,-152.74 0.08,-229.11 0.02,-10.01 -2.73,-19.85 -7.1,-28.76 -10.05,-20.1 -27.59,-35.12 -46.01,-47.4 71.45,0.04 142.91,0 214.36,0.02 -12.86,8.41 -24.6,18.87 -32.66,32.06 -15.42,24.68 -19.67,54.44 -20.32,83.02 -0.01,87.17 0.02,174.31 -0.01,261.47 -0.24,19.96 2.49,40.17 9.93,58.81 8.52,22.16 24.72,41.03 44.91,53.44 -51.31,-0.02 -102.61,-0.08 -153.93,0.04 -76.56,-99.02 -152.76,-198.36 -229.15,-297.52 -0.02,75.39 -0.14,150.81 0.04,226.22 3,31.36 27.82,54.91 52.82,71.24 -71.43,0.02 -142.87,-0.02 -214.3,0.02 19.24,-12.47 37.19,-28.54 46.94,-49.69 4.26,-9.2 6.17,-19.32 6.17,-29.41 0,-37.05 0.02,-74.11 0,-111.16 -0.78,-28.1 -8.98,-56.06 -23.63,-80.06 -5.17,-8.35 -11.65,-15.92 -19.43,-21.95 14.36,0.12 28.7,0.04 43.06,0.06 0,-38.85 0.04,-77.68 -0.02,-116.53 -0.02,-17.27 -7.06,-33.85 -17.72,-47.24 -10.12,-12.92 -22.85,-23.51 -36.31,-32.78z"/>
   <path class="fil2" d="M847.43 558.52c46.74,-18.46 98.17,-22.13 147.85,-17.93 33.38,2.67 64.45,15.8 95.51,27.29 24.12,7.14 48.7,-5.24 68.04,-18.92 8.19,53.44 16.43,106.88 24.68,160.33 -22.96,-23.3 -53.09,-37.7 -83.2,-49.43 -42.96,-16.05 -88.39,-26.42 -134.34,-27.68 -23.71,-0.04 -48.96,1.44 -69.74,14.05 -13.75,7.92 -22.06,24.74 -18.71,40.42 2.64,11.05 11.83,18.91 21.13,24.59 16.65,9.72 35.22,15.41 53.68,20.57 33.87,9.38 68.63,15.27 102.15,25.95 37.11,11.12 74.48,23.96 106.71,45.99 22.44,15.33 41.64,36.6 50.6,62.61 8.99,26.44 9.83,56.49 -1.57,82.38 -12.15,28.1 -35.08,50.25 -60.95,65.93 -35.85,21.57 -77.48,31.95 -118.95,34.74 -50.65,3.22 -102.14,-2.38 -150.16,-19.18 -13.58,-4.16 -26.48,-11.52 -41.02,-11.65 -22.48,-0.3 -44.15,8.25 -63.16,19.7 -9.81,-58.06 -19.78,-116.11 -29.35,-174.24 23.85,27.38 55.58,46.46 88.49,60.96 37.27,16.19 76.78,27.12 117,32.84 28.1,3.8 56.84,5.42 84.93,0.7 15.94,-2.91 32.63,-7.81 44.3,-19.63 11.9,-12.14 12.41,-32.78 2.28,-46.13 -9.5,-12.7 -24.23,-19.9 -38.6,-25.7 -33.69,-12.91 -69.42,-19.02 -104.35,-27.57 -42.12,-11.49 -84.91,-23.43 -122.81,-45.79 -26.42,-15.57 -50.2,-38.03 -61.26,-67.2 -9.96,-26.52 -11.59,-57 -0.38,-83.4 16.12,-39.92 51.89,-69.05 91.2,-84.6z"/>
   <path class="fil2" d="M1215.01 792.2c73.44,0.03 146.86,-0.06 220.31,0.03 -13.08,8.43 -25.23,18.76 -33.6,32.01 -19.01,29.67 -21.64,66.24 -20.74,100.56 -0.02,59.84 0.02,119.69 -0.02,179.51 -1.66,23.5 9.73,46.15 25.23,63.14 23.25,25.55 58.77,35.65 92.37,36.45 29.97,0.9 61.32,-3.78 86.96,-20.23 23.44,-14.95 40.72,-40.06 44.67,-67.71 0.15,-82.55 -0.02,-165.13 0.09,-247.69 0.18,-15.35 -6.49,-30.01 -15.76,-41.93 -10.48,-13.89 -24.43,-24.64 -38.87,-34.12 73.39,-0.02 146.77,-0.06 220.16,0.01 -9.66,6.54 -19.21,13.57 -26.56,22.74 -16.08,19.22 -23.43,44.11 -26.23,68.64 -2.14,16.92 -1.48,33.99 -1.56,51.03 0,53.97 0,107.96 0,161.95 1.45,29.21 -7.64,57.91 -20.23,83.94 -17.29,34.77 -45.37,63.96 -79.53,82.44 -49.47,26.94 -107.46,33.03 -162.87,29.6 -44,-2.91 -88.51,-14.29 -125.33,-39.32 -46.59,-31.06 -77.23,-83.82 -83.61,-139.18 -0.33,-60.47 -0.04,-120.96 -0.13,-181.42 -0.3,-23.42 1.68,-47.21 -4.34,-70.13 -6.43,-28.78 -22.47,-57.78 -50.41,-70.32z"/>
  </g>
 </g>
</svg>
