<?xml version="1.0" encoding="UTF-8"?>
<!DOCTYPE svg PUBLIC "-//W3C//DTD SVG 1.1//EN" "http://www.w3.org/Graphics/SVG/1.1/DTD/svg11.dtd">
<!-- Creator: CorelDRAW -->
<svg xmlns="http://www.w3.org/2000/svg" xml:space="preserve" width="2000px" height="1600px" version="1.1" style="shape-rendering:geometricPrecision; text-rendering:geometricPrecision; image-rendering:optimizeQuality; fill-rule:evenodd; clip-rule:evenodd"
viewBox="0 0 2000 1600"
 xmlns:xlink="http://www.w3.org/1999/xlink">
 <defs>
  <style type="text/css">
   <![CDATA[
    .fil2 {fill:black;fill-rule:nonzero}
    .fil0 {fill:#9B8448;fill-rule:nonzero}
    .fil1 {fill:#FEFEFE;fill-rule:nonzero}
   ]]>
  </style>
 </defs>
 <g id="Capa_x0020_1">
  <metadata id="CorelCorpID_0Corel-Layer"/>
  <g id="Oakland_x0020_Golden_x0020_Grizzlies.cdr">
   <path class="fil0" d="M1668.71 22.76l39.46 0c34.96,2.08 69.87,8.07 102.73,20.38 60.36,21.92 112.31,63.92 150.13,115.43 22.26,30.56 35.29,67.28 38.97,104.81l0 47.16c-6.07,60.35 -28.8,117.76 -58.18,170.38 -16.78,29.94 -35.73,58.66 -56.81,85.72 -4.12,4.31 -3.15,10.53 -3.47,15.97 -0.69,67.37 -4.25,134.75 -11.83,201.7 -4.98,43.26 -11.65,86.39 -22.03,128.7 -6.43,25.7 -14.09,51.24 -25.62,75.16 -27.99,59.14 -73.67,108.05 -124.27,148.7 -74.01,59.5 -159.41,102 -242.24,147.54 -31.14,17.92 -63.86,35.09 -88.37,61.99 -37.57,39.41 -75.57,79.59 -101.8,127.72 -16.28,28.01 -37.9,53.37 -65,71.39 -27.3,18.54 -59.77,28.83 -92.57,31.14 -21.8,1.8 -43.58,-1.09 -65.38,-1.56 -60.02,-2.36 -120.08,0.49 -180.11,-0.65 -29.44,-2 -59.08,0.04 -88.35,-4.14 -31.73,-4.15 -63.35,-14.78 -88.59,-34.91 -24.33,-19.02 -41.23,-46.25 -51,-75.3 -11.81,-35.7 -22.79,-72.22 -42.35,-104.66 -17.57,-29.46 -42.22,-53.99 -69.04,-75.04 -21.82,-17.01 -44.26,-33.63 -69.4,-45.4 -19.58,-9.79 -40.61,-16.12 -60.59,-24.99 -56.8,-24.62 -108.67,-60.53 -151.77,-104.96 -54.33,-55.13 -95.08,-122.43 -125.01,-193.51 -31.37,-75 -51.33,-154.48 -62.33,-234.94 -3.29,-24.86 -5.98,-49.83 -7.07,-74.89 18.72,15.98 40.54,28.38 64.22,35.19 3.16,-34.5 5.02,-69.2 11.12,-103.34 -35.55,-37.93 -59.91,-86.83 -65.9,-138.66 -3.68,-28.56 -1.5,-57.61 4.14,-85.76 -20.12,-0.04 -40.26,-0.02 -60.4,0l0 -1.82c8.59,-19.38 16.34,-39.13 24.55,-58.67 8.33,-19.98 19.98,-38.38 32.56,-55.91 27.42,-37.52 61.9,-69.77 100.83,-95.13 64.59,-42.25 141.01,-64.39 217.67,-69.53 71.06,-4.73 144.27,8.34 206.74,43.4 6.85,3.58 13,8.39 19.95,11.77 6.94,-0.97 13.27,-4.41 19.95,-6.39 88.41,-29.68 183.35,-42.02 276.15,-30.59 52.44,6.47 103.94,20.86 151.91,43.09 51.47,-22.06 105.22,-39.23 160.53,-48.41 88.35,-15.09 179.76,-8.07 265.76,16.46 4.86,1.29 10.05,3.48 15.05,1.31 57.37,-18.62 116.62,-32.84 177.06,-35.95z"/>
   <path class="fil1" d="M1667.42 140.21c40.61,-2 82.06,5.52 118.63,23.54 4.73,2.42 9.42,5.01 13.95,7.8 3.68,2.27 7.16,4.86 10.9,7.06l0.42 0.75c3.1,2.28 6.07,4.77 9.16,7.12 27.33,24.29 47.43,56.66 58.1,91.61 10.86,35.12 8.92,74.15 -6.49,107.64 -15.1,32.7 -38.91,61.17 -67.32,83.19 -5.8,-17.81 -12.58,-35.28 -20.63,-52.17 19.8,-11.83 31.57,-33 39.72,-53.89 12.38,-33.05 13.83,-70.6 1.32,-103.83 -10.4,-28.35 -30.36,-52.49 -54.36,-70.51 -29.24,-22.06 -63.5,-36.56 -98.51,-46.63 -1.23,-0.41 -3.66,-1.26 -4.89,-1.68zm-552.84 1001.98c30.27,31.08 41.23,80.89 22.77,120.75 -3.03,7.54 -8.92,14.13 -16.8,16.62 -10.18,3.11 -21.54,1.09 -30.62,-4.23 -8.33,-6.04 -14.74,-14.25 -22.67,-20.75 -11.53,8.34 -22.67,17.27 -34.48,25.2 -16.44,1.3 -24.08,-16.36 -36.81,-23.17 -8.35,-3.72 -13.52,5.96 -18.64,10.72 -9.59,8.81 -21.29,19.81 -35.47,16.64 -15.17,-4.88 -24.17,-19.52 -38.18,-26.51 -9.81,6.41 -19.03,13.69 -28.96,19.86 -15.87,0.54 -31.71,-9.27 -38.18,-23.81 -4.91,-12.51 -7.08,-26.35 -4.53,-39.65 4.65,-25.56 21.4,-46.33 35.63,-67.28 9.97,30.49 17.48,63.62 40.51,87.46 14.38,-14.08 27.46,-30.86 46.94,-38.12 14.31,8.66 26.87,20.04 37.45,32.94 8.11,-14.42 20.91,-25.46 34.21,-34.98 17.13,4.1 26.39,19.94 38.37,31.26 12.53,-20.87 32.01,-36.72 43.17,-58.5 4,-7.53 5.68,-16 6.29,-24.45zm-201.76 -270.17c4.57,-1.96 9.57,-5.54 14.7,-3.42 20.89,6.49 40.79,16.95 56.71,32.11 19.71,-13.71 40.93,-26.33 64.53,-31.83 16.74,6.35 30.61,18.18 45.58,27.69 19.41,-13.96 42.38,-26.13 66.95,-24.94 13.35,5.99 22.85,18.91 26.07,33.03 4.94,21.43 0.32,43.78 -7.54,63.92 -9.83,23.78 -24.73,47.46 -48.15,59.76 -1.52,-27.53 -7.08,-56.42 -24.43,-78.65 -5.36,-7.12 -12.34,-12.8 -19.74,-17.67 -13.99,12.03 -24.45,28.31 -41.45,36.62 -24.59,-11.02 -43.14,-31.16 -60.99,-50.68 -13.82,20.67 -33.07,37.82 -55.66,48.4 -20.71,-7.95 -37.57,-22.78 -56.3,-34.24 -14.72,13.61 -20.74,33.83 -22.91,53.18 -1.96,16.3 -1.15,32.84 1.56,49.02 -32.44,-6.81 -56.58,-32.96 -71.93,-60.99 -9.75,-18.5 -19.31,-39.09 -16,-60.56 1.82,-14.52 14.78,-26.41 29.34,-27.33 27.89,-3.92 53.94,9.43 77.92,21.84 12.09,-13.65 25.68,-26.38 41.74,-35.26zm-74.07 -237.78c64.79,-43.19 148.51,-55.27 223.31,-34.36 23.64,6.5 46.55,15.8 67.95,27.75 12.19,7.2 24.19,15.47 32.72,26.92 4.12,5.54 6.73,12.17 6.67,19.13 -23.74,-21.2 -53.49,-34.24 -83.5,-43.89 -50.37,-15.57 -104.08,-21.45 -156.44,-14.54 -40.02,5.26 -79.57,18.71 -112.27,42.77 -7.06,4.9 -13.25,10.88 -20.08,16.1 10.23,-16.6 25.72,-29.04 41.64,-39.88zm108.91 -118.89c13.07,-7.21 22.88,-19.51 27.43,-33.69 4.59,7.24 8.06,15.53 14.72,21.2 5.96,5.09 14.11,5.54 21.39,7.52 59.54,14.12 120.12,29.28 173.37,60.57 27.91,15.91 52.05,37.51 73.91,60.87 14.68,16.7 26.88,39.55 20.93,62.32 -1.72,2.35 -3.37,4.79 -4.79,7.32 16.12,-1.55 35.86,11.75 33.17,29.46 -3.24,16.99 -10.7,33.9 -24.27,45.12 -11.27,9.69 -25.81,14.64 -40.35,16.75 17.07,8.43 34.02,18.92 45,34.88 6.45,9.3 10.09,20.63 9.02,32.01 -1.86,19.56 -4.11,39.11 -5.97,58.67 17.27,-13.57 34.58,-27.14 51.79,-40.83 7.12,39.13 2.75,79.21 -2.61,118.28 -8.57,57.03 -22.5,113.14 -38.98,168.37 -13.01,40.91 -42.21,74.72 -75.78,100.55 -0.55,0.42 -1.64,1.27 -2.18,1.68 -9.26,24.2 -18.39,48.51 -25.22,73.52 -14.92,11.79 -33.57,17.32 -51.81,21.52 -38.65,8.25 -78.32,10.01 -117.73,10.98 -65.24,1.32 -130.48,-2.04 -195.72,-2.39 8.48,18.25 27.5,27.02 43.54,37.34 6.27,4.32 14.14,4.83 21.46,5.88 27.1,2.83 54.07,-3.13 81.15,-3.64 47.04,1.38 94.1,3.15 141.17,4.43 -11.99,12.92 -28.25,21.07 -44.81,26.39 -86.83,0.59 -173.67,1.19 -260.49,1.74 -18.94,0.77 -39.63,-4.9 -52.11,-19.98 -6.05,-6.94 -8.17,-16.12 -9.91,-24.9 -5.22,-23.27 -17.45,-43.96 -28.94,-64.53 -16.94,-48.37 -36.82,-95.67 -54.6,-143.72 -29.08,-89.9 -37.93,-184.55 -61.17,-275.87 -4.77,-21.09 -2.45,-44.45 9.83,-62.65 13.75,-21.09 36.7,-33.95 59.68,-42.77 13.87,-5.44 28.37,-9.06 42.87,-12.44 -25.32,-7.01 -51.49,-11.08 -76.16,-20.38 -4.61,-1.48 -9.06,-5.02 -9.46,-10.19 -0.95,-10.19 4.04,-19.56 6.24,-29.3 5.89,-22.01 20.87,-42.98 42.47,-51.71 -0.38,-0.02 -1.13,-0.04 -1.5,-0.06 -4.97,-4.55 -8.95,-10.88 -8.02,-17.88 1.69,-13.47 8.55,-26.21 18.98,-34.93 22.67,-19.87 49.12,-34.76 75.52,-48.99 39.53,-20.47 80.62,-38.41 123.57,-50.32 18.43,-5.5 38.59,-5.94 55.37,-16.2zm-132.53 83.36l0 0c-29.55,15.63 -55.76,40.43 -66.41,72.8 4.3,19.44 18.54,34.8 34.7,45.54 12.62,8.33 25.66,16.67 40.4,20.67 28.11,7.85 58.22,6.78 85.62,17.43 15.33,5.74 28.46,18.87 31.07,35.45 -1.04,8.64 -8.56,14.82 -16,18.4 -8.27,3.71 -16.91,7.22 -26.05,7.91 -52.64,4.23 -105.3,10.78 -156.58,23.68 -21.52,10.62 -33.77,35.03 -33.16,58.61 0.9,42.2 22.4,79.84 33,119.87 -22.77,-17.97 -44.11,-38.74 -58.16,-64.38 8.49,60.12 18,120.14 29.91,179.71 8.03,38.2 16.22,76.52 28.59,113.61 5,-17.63 10.72,-35.49 21.38,-50.63 4.69,-6.74 10.88,-12.44 18.18,-16.26 8.21,20.44 9.22,42.63 11.69,64.26 2.3,22.31 8.51,45.61 24.75,61.97 31.85,13.91 67.28,17.29 101.72,17.61 57.57,0.95 115.18,-7.3 172.66,-1.38 15.1,2.59 30.27,-2.46 43.96,-8.43 17.86,-8.11 31.41,-23.98 38.18,-42.2 15.05,-38.83 9.2,-82.11 23.5,-121.13 2.95,2.62 6.05,5.15 8.43,8.35 9.22,12.53 8.15,30.33 20.08,41.23 11.75,-30.78 18.79,-63.11 25.14,-95.37 8.51,-43.88 14.76,-88.13 22.02,-132.21 -15.43,16.48 -32.09,33.34 -53.79,41.15 7.95,-29.46 13.97,-59.58 15.39,-90.11 0.58,-22.04 0.04,-45.36 -10.74,-65.22 -11.18,-19.03 -32.29,-30.13 -53.55,-33.71 -39.94,-6.88 -81.35,1.66 -120.81,-9.06 -16.54,-5.1 -23.05,-22.91 -26.41,-38.24 8.82,-10.29 19.46,-19.09 31.47,-25.38 29.72,-15.53 64.06,-15.83 96.22,-22.63 18.42,-3.52 38.76,-8.37 51.14,-23.64 12.37,-15.65 8.11,-37.47 1.8,-54.72 -21.78,-32.9 -56.04,-55.87 -92.62,-69.52 -50.43,-18.87 -105.18,-22.63 -158.56,-19.66 -47.59,3.42 -95.76,12.94 -138.16,35.63zm576.6 -158.83c13.2,1.48 26.49,4.29 38.42,10.36 6.61,3.4 13.39,6.47 20.06,9.75 -2.24,24.44 -14.05,48.06 -33.79,62.95 -27.18,20.67 -60.77,33.53 -95.03,34.4 -34.62,0.38 -69.1,-12.36 -95.34,-34.93 10.55,-8.67 21.09,-17.35 31.85,-25.76 9.99,18.81 28.93,31.99 49.58,36.44 21.19,4.87 44.33,1.07 62.61,-10.78 13.69,-8.92 24.61,-22.61 28.55,-38.66 3.71,-14.79 0.71,-30.7 -6.91,-43.77zm-830.25 42.09c-3.72,-20.43 -2.29,-43.95 11.62,-60.49 8.84,4.86 17.29,10.36 26.01,15.43 -9.14,15.09 -11.39,34.22 -5.46,50.88 6.35,18.65 21.62,33.39 39.41,41.36 31.53,14.52 71.13,7.74 96.02,-16.51 12.11,6.19 24.89,10.99 37.8,15.17 -12.52,12.58 -29.61,19.11 -46.44,23.56 -36.13,8.68 -75.59,7.64 -109.74,-7.89 -25.06,-11.06 -44.23,-34.46 -49.22,-61.51zm677.77 -206.09c44.37,-32.88 102.53,-38.54 156,-34.46 22.16,12.7 43.21,27.85 60.12,47.12 26.51,29.67 44.02,68.07 45.92,108.03 -1.84,-0.53 -3.68,-1.05 -5.48,-1.58l3.97 1.09c-11.73,-20.44 -25.56,-39.65 -40.73,-57.65 -20.04,-23.06 -42.75,-45.08 -71.1,-57.53 -7.73,-3.67 -16.48,-3.4 -24.82,-3.83 -41.25,-2.02 -82.6,-1.96 -123.88,-1.19zm-536.84 -110.94c65.37,-10.13 131.79,-9.93 197.71,-7.3 15.29,0.61 31.04,-0.36 45.7,4.89 9.61,3.02 17.8,9.02 26.25,14.32l0.14 1.78 2.77 -1.01 -1.35 2.85 3.19 -0.95 -1.01 3.38 2.29 -1.62c-0.34,3.5 1.23,5.24 4.71,5.22 -0.38,0.89 -1.13,2.65 -1.5,3.54l3.28 -0.53c-0.16,1.07 -0.49,3.2 -0.67,4.27l1.86 -0.06c2.49,8.39 6.15,16.4 8.21,24.93 4.7,18.55 4.65,37.94 3.42,56.93 -2.77,33.26 -8.67,66.47 -20.51,97.77 -10.09,26.6 -25.17,51.73 -46.79,70.56 -3.25,2.2 -6.61,4.18 -9.93,6.21 10.54,-22.81 19.94,-46.21 26.63,-70.48 11.98,-43.56 16.79,-90.35 5.55,-134.6 -4.7,-17.39 -11.65,-35 -24.51,-48.01 -8.76,-9.28 -22.05,-10.88 -33.92,-13.18 -37.83,-6.03 -76.13,-7.99 -114.33,-10.07 -31.86,-1.42 -63.73,-2.81 -95.62,-3.04 -2.08,-0.04 -6.23,-0.1 -8.31,-0.14 8.56,-3.23 17.8,-3.96 26.74,-5.66zm569.99 -15.04c10.49,-0.57 21.03,0.4 31.56,0.48 84.01,7.83 169.79,19.39 246.68,56.28 7.03,3.66 13.97,7.52 20.78,11.59 10.32,6.37 20.27,13.44 29.37,21.49 22.2,21.09 41.27,45.26 59.17,70.03 21.82,31.06 41.21,64.27 52.88,100.55 13.91,42.45 18.4,88.65 7.93,132.39 -10.56,46.29 -36.81,87.33 -67.97,122.49l0 1.7 -1.88 -0.54 0.06 2.4 -2.41 -0.08 0.49 1.46c-8.84,9 -18.14,17.65 -28.37,25.09l0.81 -1.19c49.34,-67.16 73.3,-155.07 55.43,-237.41 -7.97,-38.14 -24.35,-74.2 -45.91,-106.53 -34.12,-50.72 -79.39,-93.77 -131.49,-125.68 -68.51,-42.27 -147.3,-66.27 -227.13,-74.52z"/>
   <path class="fil2" d="M1544.14 92.83c48.6,-13.39 98.69,-23.42 149.31,-22.61 42.69,0.16 85.72,9.12 123.88,28.59 25.74,13.01 49.12,30.52 69.3,51.11 19.7,19.87 37.72,42.16 47.95,68.49 16.66,41.13 15.13,87.32 4.83,129.83 -13.65,55.3 -40.3,106.47 -71.46,153.79 -11.33,16.8 -23.08,33.35 -36.02,48.94 -1.72,2.34 -4.27,4.57 -3.98,7.78 -0.23,77.29 -3.87,154.64 -13.01,231.41 -4.24,34.44 -9.62,68.77 -17.39,102.59 -6.59,27.88 -14.21,55.81 -27.2,81.47 -25.82,52.76 -67.6,95.9 -113.4,131.85 -71.35,56 -153.19,96.04 -232.2,139.76 -30.09,17.17 -60.85,34.22 -86.33,58 -36.3,36.38 -71.61,74.19 -101.07,116.44 -12.6,17.51 -21.11,37.61 -34.48,54.58 -16.18,21.29 -38.16,38.42 -63.46,47.36 -20.16,7.26 -41.9,9.12 -63.15,7.5 -70.32,-4.75 -140.81,-1.19 -211.22,-2.2 -39.34,-2.98 -80.45,2.73 -118.02,-12.16 -27.26,-10.27 -47.71,-33.75 -58.08,-60.54 -7.22,-19.5 -12.84,-39.56 -20.22,-59.01 -10.88,-30.07 -24.82,-59.25 -44.11,-84.87 -23.9,-31.82 -54.42,-57.94 -86.45,-81.24 -19.29,-14.5 -40.1,-26.98 -62.16,-36.8 -40.97,-18.61 -83.4,-34.46 -121.8,-58.26 -50.5,-30.32 -92.85,-73.07 -125.42,-121.97 -30.9,-45.78 -54.3,-96.21 -73.57,-147.86 -21.86,-59.11 -38.32,-120.1 -51.71,-181.64 17.27,17.09 38.6,29.57 61.13,38.44 -7.28,-67.26 -3.23,-136.44 16.87,-201.27 -39.94,-32.98 -66.49,-81.92 -71.75,-133.49 -4.71,-44.67 5.52,-89.77 24.1,-130.31 -19.17,2.4 -38.32,5.25 -57.67,5.68 12.92,-28.45 31.91,-53.83 53.3,-76.44 44.9,-47.54 103.97,-80.71 167.04,-97.25 64.73,-17.01 134.26,-20.44 199.01,-1.62 35.75,10.58 70.25,27.46 98,52.66 73.29,-32.44 153.37,-49.58 233.51,-50.31 76.66,-0.47 154.05,16.56 221.59,53.38 38.53,-17.47 77.96,-33.28 118.91,-44.2 78.91,-21.78 162.81,-24.43 243.04,-8.27 26.06,4.75 51.48,12.37 76.92,19.49 18.97,-5.11 37.57,-11.87 56.64,-16.82zm-1127.84 552.29c17.37,15.15 35.41,29.69 55.33,41.4 50.96,31.18 110.65,44.35 169.64,48.92 -2.2,9.74 -7.19,19.11 -6.24,29.3 0.4,5.17 4.85,8.71 9.46,10.19 24.67,9.3 50.84,13.37 76.16,20.38 -14.5,3.38 -29,7 -42.87,12.44 -22.98,8.82 -45.93,21.68 -59.68,42.77 -12.28,18.2 -14.6,41.56 -9.83,62.65 23.24,91.32 32.09,185.97 61.17,275.87 -47.54,-41.84 -102.77,-73.32 -156.34,-106.53 -52.13,-32.47 -104.57,-67.7 -141.61,-117.61 -20.97,-28.15 -35.57,-60.87 -42.94,-95.15 21,6.37 43.18,14.26 65.32,8.68 -24.14,-42.39 -48.73,-85.56 -59.96,-133.49 -6.57,-27.12 -7.94,-55.53 -3.21,-83.07 24.47,49.06 66.06,89.9 116.68,111.42 -14.07,-26.92 -24.1,-55.99 -29.48,-85.88 -2.51,-13.94 -3.3,-28.21 -1.6,-42.29zm398.83 -46.41c42.4,-22.69 90.57,-32.21 138.16,-35.63 53.38,-2.97 108.13,0.79 158.56,19.66 36.58,13.65 70.84,36.62 92.62,69.52 6.31,17.25 10.57,39.07 -1.8,54.72 -12.38,15.27 -32.72,20.12 -51.14,23.64 -32.16,6.8 -66.5,7.1 -96.22,22.63 -12.01,6.29 -22.65,15.09 -31.47,25.38 3.36,15.33 9.87,33.14 26.41,38.24 39.46,10.72 80.87,2.18 120.81,9.06 21.26,3.58 42.37,14.68 53.55,33.71 10.78,19.86 11.32,43.18 10.74,65.22 -1.42,30.53 -7.44,60.65 -15.39,90.11 21.7,-7.81 38.36,-24.67 53.79,-41.15 -7.26,44.08 -13.51,88.33 -22.02,132.21 -6.35,32.26 -13.39,64.59 -25.14,95.37 -11.93,-10.9 -10.86,-28.7 -20.08,-41.23 -2.38,-3.2 -5.48,-5.73 -8.43,-8.35 -14.3,39.02 -8.45,82.3 -23.5,121.13 -6.77,18.22 -20.32,34.09 -38.18,42.2 -13.69,5.97 -28.86,11.02 -43.96,8.43 -57.48,-5.92 -115.09,2.33 -172.66,1.38 -34.44,-0.32 -69.87,-3.7 -101.72,-17.61 -16.24,-16.36 -22.45,-39.66 -24.75,-61.97 -2.47,-21.63 -3.48,-43.82 -11.69,-64.26 -7.3,3.82 -13.49,9.52 -18.18,16.26 -10.66,15.14 -16.38,33 -21.38,50.63 -12.37,-37.09 -20.56,-75.41 -28.59,-113.61 -11.91,-59.57 -21.42,-119.59 -29.91,-179.71 14.05,25.64 35.39,46.41 58.16,64.38 -10.6,-40.03 -32.1,-77.67 -33,-119.87 -0.61,-23.58 11.64,-47.99 33.16,-58.61 51.28,-12.9 103.94,-19.45 156.58,-23.68 9.14,-0.69 17.78,-4.2 26.05,-7.91 7.44,-3.58 14.96,-9.76 16,-18.4 -2.61,-16.58 -15.74,-29.71 -31.07,-35.45 -27.4,-10.65 -57.51,-9.58 -85.62,-17.43 -14.74,-4 -27.78,-12.34 -40.4,-20.67 -16.16,-10.74 -30.4,-26.1 -34.7,-45.54 10.65,-32.37 36.86,-57.17 66.41,-72.8zm23.62 35.53l0 0c-15.92,10.84 -31.41,23.28 -41.64,39.88 6.83,-5.22 13.02,-11.2 20.08,-16.1 32.7,-24.06 72.25,-37.51 112.27,-42.77 52.36,-6.91 106.07,-1.03 156.44,14.54 30.01,9.65 59.76,22.69 83.5,43.89 0.06,-6.96 -2.55,-13.59 -6.67,-19.13 -8.53,-11.45 -20.53,-19.72 -32.72,-26.92 -21.4,-11.95 -44.31,-21.25 -67.95,-27.75 -74.8,-20.91 -158.52,-8.83 -223.31,34.36zm41.33 34.42l0 0c-10.43,3.12 -23.25,7.68 -25.5,19.9 6.35,6.05 13.53,11.26 21.6,14.82 22.55,10.18 47.32,13.53 71.46,17.96 -16.68,-12.62 -20.87,-35.31 -36.96,-48.43 -8.4,-7.1 -20.51,-7.81 -30.6,-4.25zm132.66 48.19l0 0c25.18,-5.14 50.25,-10.74 75.43,-15.91 7.68,-1.4 14.84,-5.3 20.45,-10.66 3.47,-3.28 3.19,-10.15 -1.34,-12.36 -14.76,-8.9 -32.56,-9.28 -49.2,-11.18 -15.09,16.74 -30.36,33.27 -45.34,50.11zm-99.92 155.17l0 0c-16.06,8.88 -29.65,21.61 -41.74,35.26 -23.98,-12.41 -50.03,-25.76 -77.92,-21.84 -14.56,0.92 -27.52,12.81 -29.34,27.33 -3.31,21.47 6.25,42.06 16,60.56 15.35,28.03 39.49,54.18 71.93,60.99 -2.71,-16.18 -3.52,-32.72 -1.56,-49.02 2.17,-19.35 8.19,-39.57 22.91,-53.18 18.73,11.46 35.59,26.29 56.3,34.24 22.59,-10.58 41.84,-27.73 55.66,-48.4 17.85,19.52 36.4,39.66 60.99,50.68 17,-8.31 27.46,-24.59 41.45,-36.62 7.4,4.87 14.38,10.55 19.74,17.67 17.35,22.23 22.91,51.12 24.43,78.65 23.42,-12.3 38.32,-35.98 48.15,-59.76 7.86,-20.14 12.48,-42.49 7.54,-63.92 -3.22,-14.12 -12.72,-27.04 -26.07,-33.03 -24.57,-1.19 -47.54,10.98 -66.95,24.94 -14.97,-9.51 -28.84,-21.34 -45.58,-27.69 -23.6,5.5 -44.82,18.12 -64.53,31.83 -15.92,-15.16 -35.82,-25.62 -56.71,-32.11 -5.13,-2.12 -10.13,1.46 -14.7,3.42zm103.46 145.15l0 0c-10.84,10.36 -13.55,25.93 -21.28,38.33 -1.27,2 -2.97,4.83 -5.84,3.82 -8.11,-0.77 -12.38,-8.64 -14.4,-15.63 -2.99,-8.34 -5.82,-18.89 -14.96,-22.35 -10.72,1.05 -20.99,4.91 -30.5,9.83 -2.81,1.7 -6.51,3.05 -7.28,6.65 -3.29,9.41 -3.62,19.56 -3.62,29.44 0.55,19.86 3.26,39.6 7.12,59.05 33.47,13.55 70.6,8.86 105.4,4.15 11.79,-0.89 19.11,-12.21 22.24,-22.53 6.74,-23.29 4.41,-47.88 6.86,-71.73 -3.72,-6.08 -7.81,-12.03 -12.68,-17.19 -8.74,-6.24 -22.29,-10.15 -31.06,-1.84zm98.3 125.02l0 0c-0.61,8.45 -2.29,16.92 -6.29,24.45 -11.16,21.78 -30.64,37.63 -43.17,58.5 -11.98,-11.32 -21.24,-27.16 -38.37,-31.26 -13.3,9.52 -26.1,20.56 -34.21,34.98 -10.58,-12.9 -23.14,-24.28 -37.45,-32.94 -19.48,7.26 -32.56,24.04 -46.94,38.12 -23.03,-23.84 -30.54,-56.97 -40.51,-87.46 -14.23,20.95 -30.98,41.72 -35.63,67.28 -2.55,13.3 -0.38,27.14 4.53,39.65 6.47,14.54 22.31,24.35 38.18,23.81 9.93,-6.17 19.15,-13.45 28.96,-19.86 14.01,6.99 23.01,21.63 38.18,26.51 14.18,3.17 25.88,-7.83 35.47,-16.64 5.12,-4.76 10.29,-14.44 18.64,-10.72 12.73,6.81 20.37,24.47 36.81,23.17 11.81,-7.93 22.95,-16.86 34.48,-25.2 7.93,6.5 14.34,14.71 22.67,20.75 9.08,5.32 20.44,7.34 30.62,4.23 7.88,-2.49 13.77,-9.08 16.8,-16.62 18.46,-39.86 7.5,-89.67 -22.77,-120.75zm-789.3 -900.91c27.97,-17.43 61.13,-27.24 94.21,-25.6 26.05,0.99 51.67,10.98 71.25,28.23 -26.03,31.4 -57.23,58.32 -81.03,91.59 -11.27,15.95 -20.99,33.69 -23.91,53.24 -3.21,19.03 1.98,38.81 12.02,55.07 5.6,8.47 12.57,15.91 18.76,23.96 20.27,-36.99 42.89,-73.63 74.42,-102.16 18.1,-16.14 40.18,-29.71 64.77,-32.07 14.97,2.64 28.42,10.65 41.9,17.39 54.91,30.69 104.11,70.84 160.55,98.94 25.4,12.68 52.21,23.2 80.38,27.61 21.95,2.4 45.16,0.69 64.96,-9.87 10.78,-5.44 18.46,-15.05 26.55,-23.7 21.62,-18.83 36.7,-43.96 46.79,-70.56 18.35,15.21 24.51,38.97 36.02,58.83 4.47,7.18 9.39,14.92 17.51,18.36 30.1,13.35 59.18,30.74 92.28,35.59 7.66,0.81 15.81,2.87 23.3,0.06 70.35,-29.74 120.89,-92.15 192.03,-120.52 9.6,-4.51 20.42,-2.19 30.51,-1.26 43.38,5.57 85.52,17.9 127.26,30.58 1.8,0.53 3.64,1.05 5.48,1.58 -1.9,-39.96 -19.41,-78.36 -45.92,-108.03 -16.91,-19.27 -37.96,-34.42 -60.12,-47.12 24.55,2.51 48.13,10.78 70.47,20.99 33.61,15.88 64.31,37.56 91.67,62.65 19.09,17.92 37.29,37.27 50.7,59.9 12.01,20.28 13.73,45.62 6.31,67.79 -6.8,21.94 -20.75,40.48 -32.62,59.81 -18.52,28.88 -40.1,57.62 -71,74.12 10.13,-27.79 15.45,-60.14 2.4,-87.89 -18.34,29.69 -43.23,55.11 -71.6,75.33 -32.4,22.99 -70.78,38.63 -110.82,40.06 18.82,15.43 44.3,19.9 68.01,17.98 -31.31,33.91 -72.93,57.09 -117.37,68.86 -0.75,-2.29 -1.42,-4.59 -1.99,-6.88 5.95,-22.77 -6.25,-45.62 -20.93,-62.32 -21.86,-23.36 -46,-44.96 -73.91,-60.87 -53.25,-31.29 -113.83,-46.45 -173.37,-60.57 -7.28,-1.98 -15.43,-2.43 -21.39,-7.52 -6.66,-5.67 -10.13,-13.96 -14.72,-21.2 -4.55,14.18 -14.36,26.48 -27.43,33.69 -16.78,10.26 -36.94,10.7 -55.37,16.2 -42.95,11.91 -84.04,29.85 -123.57,50.32 -26.4,14.23 -52.85,29.12 -75.52,48.99 -10.43,8.72 -17.29,21.46 -18.98,34.93 -0.93,7 3.05,13.33 8.02,17.88 -14.66,2.28 -29.84,1.47 -43.78,-3.81 -24.55,-8.79 -43.33,-27.56 -63.48,-43.29 27.85,7.6 58.16,-2.43 78.37,-22.37 -34.24,-3.78 -68.07,-13.65 -97.78,-31.34 -28.39,-16.38 -51.65,-40.73 -67.82,-69.16 -4.53,9.85 -7.85,20.4 -8.05,31.32 -1.24,26.7 9,52.18 21.09,75.45 -68.41,-44.08 -130.94,-96.99 -186.72,-156.16 -4.97,-5.44 -2.77,-13.57 -3.33,-20.26 0.56,-55.37 26.17,-106.67 56.82,-151.44 -5.92,-4.33 -12.27,-8.4 -19.57,-9.87 -21.32,-4.68 -43.16,-0.61 -64.53,1.53 9.12,-18.24 24.77,-32.27 41.82,-42.99zm236.2 240.69l0 0c4.99,27.05 24.16,50.45 49.22,61.51 34.15,15.53 73.61,16.57 109.74,7.89 16.83,-4.45 33.92,-10.98 46.44,-23.56 -12.91,-4.18 -25.69,-8.98 -37.8,-15.17 -24.89,24.25 -64.49,31.03 -96.02,16.51 -17.79,-7.97 -33.06,-22.71 -39.41,-41.36 -5.93,-16.66 -3.68,-35.79 5.46,-50.88 -8.72,-5.07 -17.17,-10.57 -26.01,-15.43 -13.91,16.54 -15.34,40.06 -11.62,60.49zm781.21 -36.06l0 0c6.81,5.76 14.38,12.36 14.88,21.98 1.66,15.15 -11.97,27.77 -26.17,29.69 -17.35,3.4 -36.44,-8.98 -37.91,-27.16 -6.7,4.57 -13.33,9.26 -19.92,13.99 9.83,27.1 42.97,39.2 69.44,31.21 19.68,-5.22 37.17,-22.75 37.39,-43.89 0.83,-11.72 -4.28,-22.87 -11.75,-31.58 -8.81,1.19 -17.49,3.15 -25.96,5.76zm49.04 -6.03l0 0c7.62,13.07 10.62,28.98 6.91,43.77 -3.94,16.05 -14.86,29.74 -28.55,38.66 -18.28,11.85 -41.42,15.65 -62.61,10.78 -20.65,-4.45 -39.59,-17.63 -49.58,-36.44 -10.76,8.41 -21.3,17.09 -31.85,25.76 26.24,22.57 60.72,35.31 95.34,34.93 34.26,-0.87 67.85,-13.73 95.03,-34.4 19.74,-14.89 31.55,-38.51 33.79,-62.95 -6.67,-3.28 -13.45,-6.35 -20.06,-9.75 -11.93,-6.07 -25.22,-8.88 -38.42,-10.36zm-768.33 59.52l0 0c21.76,24.14 62.77,25.5 86.91,4.12 -7.01,-3.86 -13.99,-7.7 -20.87,-11.77 -16.15,9.99 -40.18,6.88 -50.39,-10.01 -4.65,-6.59 -3.56,-14.64 -3.17,-22.16 -6.25,-4.53 -13.07,-8.17 -19.56,-12.35 -8.94,16.64 -5.91,38.48 7.08,52.17zm1044.02 -359.19l0 0c1.23,0.42 3.66,1.27 4.89,1.68 -45.39,1.33 -90.77,11.6 -131.95,30.76 12.06,13.89 23.48,28.69 31.06,45.6 -6.81,-4.07 -13.75,-7.93 -20.78,-11.59 -21.93,-13.75 -45.89,-24.31 -70.8,-31.35 -13.29,-3.6 -26.33,-8.06 -39.68,-11.34 -32.37,-8.15 -65.6,-12.78 -98.93,-14.2 -12.43,-0.38 -24.95,-1.21 -37.27,0.61 -10.53,-0.08 -21.07,-1.05 -31.56,-0.48 -3.73,-0.11 -7.43,0.34 -11.13,0.52l0.02 2.1c-83.45,8.82 -166.33,37.52 -232.45,90.16 -12.48,9.07 -18.43,24.44 -31.43,32.9 1.23,-18.99 1.28,-38.38 -3.42,-56.93 -2.06,-8.53 -5.72,-16.54 -8.21,-24.93l-1.86 0.06c0.18,-1.07 0.51,-3.2 0.67,-4.27l-3.28 0.53c0.37,-0.89 1.12,-2.65 1.5,-3.54 -3.48,0.02 -5.05,-1.72 -4.71,-5.22l-2.29 1.62 1.01 -3.38 -3.19 0.95 1.35 -2.85 -2.77 1.01 -0.14 -1.78c-8.45,-5.3 -16.64,-11.3 -26.25,-14.32 -14.66,-5.25 -30.41,-4.28 -45.7,-4.89 -65.92,-2.63 -132.34,-2.83 -197.71,7.3 -8.94,1.7 -18.18,2.43 -26.74,5.66 2.08,0.04 6.23,0.1 8.31,0.14 -20.89,5.24 -41.98,9.61 -62.63,15.74 -6.77,1.98 -12.29,6.55 -18.38,9.91 -16.76,10.17 -36.64,17.08 -56.36,12.84 0.49,-6.66 2.11,-13.83 -0.87,-20.16 -2.38,-5.18 -7.38,-8.34 -11.77,-11.67 -26.51,-19.15 -58.18,-30.56 -90.53,-34.62 -35.53,-3.77 -73.11,-0.73 -105.24,16.05 -48.86,23.74 -93.67,58.75 -122.14,105.62 -21.42,35.19 -31.73,77.44 -26.43,118.47 2.89,17.07 10.61,33 20.34,47.2 17.07,24.14 40.95,44.43 69.61,53.04 -12.1,38.79 -20.53,78.67 -25.89,118.93 -6.29,49.5 -7.77,100.24 2.39,149.34 4.57,22.67 12.47,44.63 23.29,65.08 -8.21,-1.82 -16.22,-4.63 -23.44,-8.96 -21.01,-12.15 -38.46,-29.45 -54.55,-47.46 4.16,53.87 17.43,107.26 40.72,156.09 18.41,38.65 43.5,73.96 73.15,104.8 48.19,50.21 107.95,87.48 169.42,119.25 31.91,16.96 65.02,31.73 95.8,50.74 55.99,37.93 105.15,86.12 143.57,141.79 11.49,20.57 23.72,41.26 28.94,64.53 1.74,8.78 3.86,17.96 9.91,24.9 12.48,15.08 33.17,20.75 52.11,19.98 86.82,-0.55 173.66,-1.15 260.49,-1.74 16.56,-5.32 32.82,-13.47 44.81,-26.39 -47.07,-1.28 -94.13,-3.05 -141.17,-4.43 -27.08,0.51 -54.05,6.47 -81.15,3.64 -7.32,-1.05 -15.19,-1.56 -21.46,-5.88 -16.04,-10.32 -35.06,-19.09 -43.54,-37.34 65.24,0.35 130.48,3.71 195.72,2.39 39.41,-0.97 79.08,-2.73 117.73,-10.98 18.24,-4.2 36.89,-9.73 51.81,-21.52 6.83,-25.01 15.96,-49.32 25.22,-73.52 0.54,-0.41 1.63,-1.26 2.18,-1.68 21.3,-7.75 40.95,-19.52 60.02,-31.67 33.55,-22.23 64.31,-48.78 90.78,-79.11 18.34,-21.4 35.31,-44.53 46.35,-70.64 -37.61,27.71 -76.99,52.94 -116.83,77.33 -1.65,1.01 -3.17,2.19 -4.54,3.54 16.48,-55.23 30.41,-111.34 38.98,-168.37 5.36,-39.07 9.73,-79.15 2.61,-118.28 -17.21,13.69 -34.52,27.26 -51.79,40.83 1.86,-19.56 4.11,-39.11 5.97,-58.67 1.07,-11.38 -2.57,-22.71 -9.02,-32.01 -10.98,-15.96 -27.93,-26.45 -45,-34.88 14.54,-2.11 29.08,-7.06 40.35,-16.75 13.57,-11.22 21.03,-28.13 24.27,-45.12 0.18,-1.07 0.54,-3.25 0.72,-4.32 11.33,-1.36 21.48,6.07 32.78,4.55 45.14,-3 89.87,-13.96 130.74,-33.53 56.4,-26.72 106.09,-71.61 129.95,-130.19 17.57,39.84 15.27,84.24 19.52,126.61l-0.81 1.19c10.23,-7.44 19.53,-16.09 28.37,-25.09l-0.49 -1.46 2.41 0.08 -0.06 -2.4 1.88 0.54 0 -1.7c31.16,-35.16 57.41,-76.2 67.97,-122.49 10.47,-43.74 5.98,-89.94 -7.93,-132.39 -11.67,-36.28 -31.06,-69.49 -52.88,-100.55 -17.9,-24.77 -36.97,-48.94 -59.17,-70.03 22.99,-11.69 47.58,-20.74 73.2,-24.4 22.53,-3.24 46.15,-1.64 67.45,6.75 23.39,9.77 43.33,31.02 46.16,56.94 -10.57,-3.45 -21.78,-5.07 -32.84,-3.63 -20.28,2.52 -38.7,12.59 -55.37,23.86 31.37,36.72 62.47,74.36 84.75,117.49 8.05,16.89 14.83,34.36 20.63,52.17 28.41,-22.02 52.22,-50.49 67.32,-83.19 15.41,-33.49 17.35,-72.52 6.49,-107.64 -10.67,-34.95 -30.77,-67.32 -58.1,-91.61 -3.09,-2.35 -6.06,-4.84 -9.16,-7.12l-0.42 -0.75c-3.74,-2.2 -7.22,-4.79 -10.9,-7.06 -4.53,-2.79 -9.22,-5.38 -13.95,-7.8 -36.57,-18.02 -78.02,-25.54 -118.63,-23.54zm-44.06 684.97l0 0c-30.24,26.01 -61.95,50.25 -94.3,73.61 4.77,-16.84 10.74,-33.51 12.15,-51.08 1.36,-15.05 -0.69,-30.31 -5.3,-44.67 -7.7,9.44 -14.76,19.39 -22.91,28.47 -23.82,27.65 -51.55,51.49 -78.93,75.47 21.94,2.69 40.63,-10.39 59.3,-19.61 -5.56,44.59 -25.38,85.5 -41.86,126.79 35.73,-11.42 67.34,-33.87 93.42,-60.48 3.32,33.73 -5.86,67.07 -16.8,98.64 34.03,-27.22 63.96,-59.7 87.97,-96.1 39.21,-59.13 60.87,-128.23 71.75,-197.91 -17.84,25.52 -41.14,46.51 -64.49,66.87z"/>
  </g>
 </g>
</svg>
