<?xml version="1.0" encoding="UTF-8"?>
<!DOCTYPE svg PUBLIC "-//W3C//DTD SVG 1.1//EN" "http://www.w3.org/Graphics/SVG/1.1/DTD/svg11.dtd">
<!-- Creator: CorelDRAW -->
<svg xmlns="http://www.w3.org/2000/svg" xml:space="preserve" width="2000px" height="1600px" version="1.1" style="shape-rendering:geometricPrecision; text-rendering:geometricPrecision; image-rendering:optimizeQuality; fill-rule:evenodd; clip-rule:evenodd"
viewBox="0 0 2000 1600"
 xmlns:xlink="http://www.w3.org/1999/xlink">
 <defs>
  <style type="text/css">
   <![CDATA[
    .fil2 {fill:#050607;fill-rule:nonzero}
    .fil0 {fill:#A8B0B8;fill-rule:nonzero}
    .fil1 {fill:#D11F44;fill-rule:nonzero}
   ]]>
  </style>
 </defs>
 <g id="Capa_x0020_1">
  <metadata id="CorelCorpID_0Corel-Layer"/>
  <g id="Ohio_x0020_State_x0020_Buckeyes.cdr">
   <path class="fil0" d="M770.45 0l470.37 0c2.53,3.08 5.16,6.07 8.02,8.86 49.95,49.65 99.98,99.22 149.67,149.14 45.59,45.97 91.87,91.24 137.51,137.14 0.89,76.92 0.27,153.84 0.48,230.77 94.41,30.26 187.98,64.59 275.47,111.6 0.22,16.5 0.15,33.01 0.04,49.51 -45.82,-25.22 -93.6,-46.63 -142.01,-66.35 -59.37,-23.94 -119.7,-45.62 -181.3,-63.1 -0.59,-34.33 0.54,-68.62 0.32,-102.95 0,-46.57 0,-93.13 0,-139.7 -88.39,-87.72 -177.11,-175.11 -265.59,-262.71 -2.33,-2.33 -4.91,-5 -8.5,-4.35 -116.98,0.07 -233.97,-0.02 -350.95,0.05 -23.34,0.86 -46.69,0.14 -70.03,0.48 -2.36,-0.21 -3.97,1.76 -5.64,3.06 -89.84,88.45 -179.72,176.88 -269.71,265.19 -0.1,80.59 0.04,161.18 -0.07,241.77 -54.21,16.09 -107.88,34 -160.75,54.05 -58,22.12 -115.29,46.55 -169.36,77.17 -0.11,-16.41 -0.05,-32.84 -0.04,-49.25 89.7,-48.36 185.74,-83.64 282.62,-114.62 0.18,-29.08 0.43,-58.16 -0.34,-87.24 0.09,-48.09 -0.09,-96.18 0.09,-144.26 99.95,-98.04 199.8,-196.18 299.7,-294.26zm-371.79 1226.17c37.38,-27.9 77.98,-51.19 119.87,-71.56 0.07,42.33 0.02,84.64 0.04,126.97 43.56,44.1 87.93,87.39 131.69,131.29 20.4,20.74 41.48,40.79 61.92,61.48 25.99,26.06 52.03,52.06 78.35,77.76 140.78,0.97 281.6,0.18 422.41,0.54 3.2,-0.11 7.03,0.28 9.18,-2.69 53.37,-53.94 106.69,-107.95 160.25,-161.68 18.56,-19.63 38.34,-38.05 56.86,-57.72 14.86,-15.02 30,-29.74 44.69,-44.92 2.43,-2.72 5.84,-5.44 5.14,-9.52 -0.02,-40.56 -0.11,-81.11 0.03,-121.67 49.13,23.27 95.02,52.94 138.15,85.91 0.09,18.59 0.09,37.19 0,55.79 -28.47,-23.86 -59.19,-44.96 -91.15,-63.86 -0.05,20.51 -0.39,41.05 0.48,61.56 -0.28,3.33 0.77,7.56 -2.14,10.03 -98.8,98.66 -197.39,197.53 -296.25,296.12l-466.46 0c-100.42,-99.68 -200.75,-199.5 -301.06,-299.29 0.02,-23.7 0.07,-47.38 -0.02,-71.07 -25.79,15.21 -48.47,34.93 -71.95,53.37 -0.07,-18.96 -0.03,-37.91 -0.03,-56.84zm749.9 -165.82c15.86,2.18 31.79,4.12 47.5,7.23 -0.01,30.14 -0.21,60.26 -0.68,90.38 -4.67,6.61 -11.31,11.6 -16.77,17.58 -25.16,26.14 -51.41,51.25 -76.51,77.49 -2.16,1.83 -3.9,5.05 -7.17,4.67 -49.52,0.11 -99.06,-0.89 -148.59,-0.86 -11.79,0.24 -23.57,-0.62 -35.36,-0.55 -32.55,-32.57 -65.91,-64.34 -98.49,-96.9 0.06,-30.99 0,-62.01 0.04,-93.01 15.8,-2.9 31.91,-3.61 47.84,-5.64 0.1,26.37 -0.04,52.73 0.07,79.09 23.53,23.25 47.3,46.25 71.14,69.17 49.09,-0.37 98.2,0.52 147.28,-0.53 22.33,-21.95 44.24,-44.33 66.56,-66.33 1.32,-1.57 3.5,-3.06 3.11,-5.42 0.07,-25.45 -0.04,-50.92 0.03,-76.37zm-252.47 -702.51c5.94,-5.43 10.86,-12.32 17.88,-16.33 59.69,-0.34 119.41,0 179.11,-0.18 4.71,-0.96 7.45,3.42 10.44,6.18 27.95,28.08 56,56.03 84.01,84.04 2.65,2.83 5.92,5.23 7.85,8.67 0.38,19.5 0.04,39.05 0.15,58.57 -16.11,-1.93 -32.15,-4.4 -48.31,-5.89 -0.43,-11.41 0.7,-22.98 -0.52,-34.3 -22.74,-23.56 -46.6,-46.04 -69.62,-69.34 -48.41,0 -96.82,0 -145.21,0 -23.7,23.23 -47.54,46.28 -71.2,69.51 -1.68,11.4 -0.21,23.32 -0.68,34.92 -15.66,1.63 -31.43,2.26 -47.01,4.6 -1.11,-16.88 -0.09,-33.82 -0.52,-50.74 0.3,-3.38 -1.01,-7.69 2.13,-10.11 27.33,-26.36 54.22,-53.19 81.5,-79.6z"/>
   <path class="fil1" d="M808.77 91.28c127.55,0 255.12,0.01 382.68,-0.02 3.63,0.52 8.28,-1.4 11.16,1.52 81.17,81.14 162.35,162.31 243.48,243.49 -0.02,70.05 0.03,140.1 -0.02,210.15 -68.23,-18.96 -137.86,-32.59 -207.93,-42.67 -0.29,-27.53 0.02,-55.05 -0.14,-82.58 -41.08,-40.86 -81.85,-82 -122.99,-122.79 -73.35,0.18 -146.7,-0.07 -220.05,0.13 -41.75,40.84 -83.61,81.59 -125.42,122.38 0.09,27.75 0.02,55.51 0.04,83.29 -70.02,10.5 -139.83,23.25 -208.06,42.34 0,-70.53 0,-141.06 0,-211.59 82.31,-81.35 164.92,-162.35 247.25,-243.65zm429.71 982.39c71.09,13.65 140.98,34.13 207.61,62.47 -0.06,42.3 0.09,84.57 -0.06,126.84 -81.59,81.79 -162.41,164.31 -243.94,246.18 -28.6,0.21 -57.16,-0.81 -85.76,-0.42 -22.1,-1.07 -44.26,0.09 -66.36,-0.75 -80.63,-0.53 -161.27,-1.18 -241.9,-1.88 -82.24,-80.19 -163.63,-161.27 -245.74,-241.57 -0.88,-42.65 -0.09,-85.41 -0.4,-128.09 66.53,-28.62 136.7,-48.09 207.66,-62.1 -0.01,34.18 -0.03,68.38 0,102.58 41.43,40.45 82.38,81.4 123.76,121.88 26.42,2.17 53.19,0.06 79.73,1.36 47.86,0.06 95.7,0.52 143.54,0.93 40.34,-41.97 81.5,-83.17 121.84,-125.12 0.04,-34.11 0,-68.2 0.02,-102.31z"/>
   <path class="fil2" d="M948.69 432.7c36.99,-0.11 73.99,0.02 110.96,-0.07 14.93,14.85 29.82,29.71 44.64,44.67 -0.09,61.47 0,122.97 -0.06,184.46 -22.06,-0.01 -44.13,-0.01 -66.2,-0.01 -0.02,-53.11 0,-106.19 -0.02,-159.29 -22.21,-0.37 -44.42,-0.57 -66.64,-0.45 0,82.78 0,165.55 0,248.33 27.91,0 55.85,0 83.77,-0.02 16.34,15.39 32.47,31 48.66,46.55 -0.26,64.89 0.81,129.75 0.43,194.65 1.27,43.2 -0.32,86.46 0.9,129.66 -15.34,14.73 -29.73,30.43 -44.94,45.26 -37.07,0.42 -74.08,-0.68 -111.13,-0.32 -15.17,-14.94 -30.4,-29.83 -45.58,-44.78 -0.3,-67.88 -0.03,-135.78 -0.12,-203.67 22.22,0 44.43,0 66.66,0 0.02,61.91 -0.03,123.8 0.02,185.7 22.07,-0.03 44.14,0 66.2,-0.01 -0.93,-91.87 0.06,-183.77 -0.93,-275.64 -27.51,0.02 -55.03,0.06 -82.56,0 -16.55,-15.37 -32.61,-31.3 -49.27,-46.55 -0.21,-101.24 -0.18,-202.5 -0.03,-303.73 14.87,-15.12 30.35,-29.65 45.24,-44.74zm-726.44 283.85c29.83,-16.25 60.61,-30.73 91.49,-44.89 15.24,11.35 30.71,22.41 46.01,33.7 -0.25,81.06 0.47,162.11 -0.47,243.15 -0.07,129.54 0.13,259.08 -0.09,388.6 -6.98,18.88 -16.91,36.78 -24.98,55.3 -2.04,3.67 -2.85,8.56 -6.73,10.85 -30.05,18 -60.03,36.15 -89.93,54.44 -16.72,-11.15 -33.47,-22.24 -50.08,-33.57l0 -645.5c8.95,-17.79 18.51,-35.26 27.56,-52.97 1.86,-3.42 3.35,-7.5 7.22,-9.11zm30.1 56.68l0 0c0.02,112.14 -0.02,224.27 0.02,336.39 -0.95,33.42 -0.25,66.86 -0.47,100.31 0,56.06 0,112.13 0,168.2 15.16,-10.45 30.43,-20.76 45.66,-31.09 -0.04,-199.14 0,-398.3 -0.04,-597.44 -15.21,7.59 -30.08,15.82 -45.17,23.63zm1404.83 -115.69c40.07,17.97 80.99,34.09 120.18,53.94 11.89,6.27 24.38,11.78 35.17,19.85l0 72.39c-29.57,-16 -59.45,-31.35 -89.49,-46.44 0,76.28 -0.01,152.54 0.02,228.8 29.71,16.05 59.8,31.6 88.41,49.54l1.06 3.61 0 75.71c-28.81,-16.38 -57.61,-32.85 -86.8,-48.54 0.03,83.76 -0.04,167.52 0.03,251.26 28.78,23.69 58.38,46.4 86.77,70.57l0 82.79c-50.43,-41.6 -101.41,-82.56 -153.45,-122.12 0.3,-69.04 -0.59,-138.05 -0.47,-207.1 0.25,-74.56 -0.78,-149.12 -0.44,-223.68 0.32,-41.79 -0.74,-83.56 -0.45,-125.35 -0.32,-45.06 0.66,-90.16 -0.54,-135.23zm-187.4 1.79c0.29,-22.19 -0.77,-44.35 -0.45,-66.52 56.6,17.21 113.51,33.89 168.13,56.8 0.27,22.93 0.09,45.85 0.09,68.76 -19.15,-7.68 -38.41,-15.07 -57.65,-22.53 -0.09,48.43 -0.01,96.86 -0.03,145.31 -0.92,107.7 -0.25,215.46 -0.45,323.18 -19.42,-12.92 -40.11,-23.8 -60.92,-34.29 0.16,-151.89 0.01,-303.8 0.07,-455.71 -16.27,-4.96 -32.5,-10.06 -48.79,-15zm-968.66 -54.6c20.56,-7.61 41.98,-12.41 63.05,-18.38 0.13,170.07 -0.05,340.13 0.07,510.21 -19.54,8.39 -39.46,15.96 -58.5,25.5 -0.92,-8.27 -0.54,-16.59 -0.6,-24.88 -0.01,-55.5 0.02,-111 -0.01,-166.49 -0.84,-17.28 -0.29,-34.58 -0.42,-51.85 -13.79,4.87 -27.45,10.18 -40.78,16.21 0.12,45.28 0.03,90.56 0.03,135.84 0.99,37.46 0.2,74.95 0.52,112.41 -21.8,13.5 -44.9,24.88 -65.84,39.75 0.04,-181.44 0,-362.88 0.02,-544.32 20.22,-8.29 41.25,-14.28 61.74,-21.82 -0.16,69.73 0.77,139.46 0.47,209.2 13.42,-5.08 26.79,-10.32 40.23,-15.33 0.04,-68.69 0,-137.38 0.02,-206.05zm95.73 -27.32c20.04,-5.08 40.25,-9.62 60.55,-13.67 -0.25,166.98 -0.09,333.94 -0.09,500.92 -20.78,6.12 -41.27,13.18 -61.78,20.1 -0.27,-83.02 0.77,-165.99 0.44,-249.02 -0.34,-32.2 0.72,-64.37 0.45,-96.57 0.09,-53.92 -0.29,-107.85 0.43,-161.76zm694.37 18.76c13.23,-12.3 26.67,-24.34 39.91,-36.6 28.12,5.85 56.34,11.33 84.12,18.7 11.47,20.64 23.34,41.15 34.25,62.07 0.4,153.41 0.02,306.85 0.2,460.26 -19.49,-8.52 -39.71,-15.14 -59.61,-22.6 0.16,-75.85 0.01,-151.7 0.07,-227.55 -12.96,-3.74 -25.93,-7.44 -38.91,-11.13 0.02,75.06 -0.11,150.14 0.05,225.2 -19.86,-5.74 -39.96,-10.52 -60.02,-15.5 -0.04,-150.96 0.05,-301.9 -0.06,-452.85zm60.46 33.04l0 0c0,48.11 0,96.23 0,144.34 12.2,3.15 24.45,6.16 36.69,9.22 0.21,-48.09 -0.5,-96.2 0.44,-144.27 -12.36,-3.13 -24.75,-6.21 -37.13,-9.29zm-626.49 -78.46c28.8,-5.75 58.02,-8.9 87.07,-12.96 13.91,13.83 27.97,27.49 41.93,41.25 -0.28,60.53 -0.71,121.06 -0.48,181.59 -0.93,47.12 -0.29,94.28 -0.45,141.42 -0.86,29.08 -0.32,58.18 -0.45,87.28 -9.64,12.6 -19.14,25.29 -28.81,37.87 -1.47,2.13 -4.51,1.6 -6.68,2.3 -31.69,4.76 -63.32,10.21 -94.42,18 -10.86,-9.74 -21.8,-19.4 -32.54,-29.3 -1,-29.15 -0.16,-58.36 -0.43,-87.55 -0.18,-91.26 0.43,-182.53 -0.44,-273.77 0.01,-19.06 -0.04,-38.12 0,-57.18 -0.2,-2.26 1.7,-3.85 2.81,-5.59 11.02,-14.4 22.12,-28.76 32.89,-43.36zm27.01 62.69l0 0c-1.47,43.04 0.37,86.18 -0.99,129.24 -0.11,41.79 0.4,83.58 -0.43,125.33 -0.37,36.35 0.79,72.75 -0.62,109.06 14.08,-2.54 28.15,-5.24 42.22,-7.87 -0.9,-45.67 0.03,-91.38 -0.88,-137.04 0.32,-44.72 -0.54,-89.43 -0.45,-134.16 0.34,-30.03 -0.68,-60.04 -0.45,-90.07 -12.83,1.72 -25.59,3.7 -38.4,5.51zm365.94 -83.35c53.19,4.25 106.27,10.28 158.85,19.51 -0.05,21.44 -0.07,42.88 0.02,64.32 -16.11,-2.57 -32.2,-5.19 -48.36,-7.39 0.7,32.86 0.38,65.74 0.42,98.6 1.14,34.25 -0.09,68.54 0.71,102.82 0.68,34.36 -0.43,68.76 0.66,103.12 -0.3,41.63 0.34,83.22 0.43,124.83 -22.12,-3.92 -44.42,-6.58 -66.65,-9.84 -0.09,-142.52 0.08,-285.05 -0.09,-427.56 -15.19,-1.65 -30.38,-3.26 -45.58,-4.87 0.2,-21.17 -0.12,-42.36 -0.41,-63.54z"/>
  </g>
 </g>
</svg>
