<?xml version="1.0" encoding="UTF-8"?>
<!DOCTYPE svg PUBLIC "-//W3C//DTD SVG 1.1//EN" "http://www.w3.org/Graphics/SVG/1.1/DTD/svg11.dtd">
<!-- Creator: CorelDRAW -->
<svg xmlns="http://www.w3.org/2000/svg" xml:space="preserve" width="2000px" height="1600px" version="1.1" style="shape-rendering:geometricPrecision; text-rendering:geometricPrecision; image-rendering:optimizeQuality; fill-rule:evenodd; clip-rule:evenodd"
viewBox="0 0 2000 1600"
 xmlns:xlink="http://www.w3.org/1999/xlink">
 <defs>
  <style type="text/css">
   <![CDATA[
    .fil0 {fill:#B10737;fill-rule:nonzero}
   ]]>
  </style>
 </defs>
 <g id="Capa_x0020_1">
  <metadata id="CorelCorpID_0Corel-Layer"/>
  <path id="Oklahoma_x0020_Sooners.cdr" class="fil0" d="M417.09 897.22l-1.12 -654.53 240.11 -242.69 385.19 0 218.25 241.84 0 655.38 -220.29 252.44 -73.52 0 0.07 140.23 47.88 52.99 287.79 0 47.88 -52.99 0.37 -756.25 234.33 0 -1.27 808.02 -233.43 258.34 -383.55 0 -233.43 -258.34 -0.3 -192 -75.97 0 -238.99 -252.44zm313.98 -363.58l234.33 0 0.18 363.58 28.38 0 45.27 -51.55 0 -552.28 -45.27 -50.7 -291.28 0 -46.6 50.7 0 552.28 47.02 51.55 28.55 0 -0.58 -363.58z"/>
 </g>
</svg>
