<?xml version="1.0" encoding="UTF-8"?>
<!DOCTYPE svg PUBLIC "-//W3C//DTD SVG 1.1//EN" "http://www.w3.org/Graphics/SVG/1.1/DTD/svg11.dtd">
<!-- Creator: CorelDRAW -->
<svg xmlns="http://www.w3.org/2000/svg" xml:space="preserve" width="2000px" height="1600px" version="1.1" style="shape-rendering:geometricPrecision; text-rendering:geometricPrecision; image-rendering:optimizeQuality; fill-rule:evenodd; clip-rule:evenodd"
viewBox="0 0 2000 1600"
 xmlns:xlink="http://www.w3.org/1999/xlink">
 <defs>
  <style type="text/css">
   <![CDATA[
    .fil2 {fill:black;fill-rule:nonzero}
    .fil1 {fill:#F47320;fill-rule:nonzero}
    .fil0 {fill:#FEFEFE;fill-rule:nonzero}
   ]]>
  </style>
 </defs>
 <g id="Capa_x0020_1">
  <metadata id="CorelCorpID_0Corel-Layer"/>
  <g id="Oregon_x0020_State_x0020_Beavers.cdr">
   <path class="fil0" d="M1102.22 586.03c14.88,-7.17 34.46,1.93 38.48,17.95 4.59,14.81 -5.4,31.81 -20.57,34.94 -14.31,3.72 -30.39,-5.86 -33.61,-20.34 -3.47,-12.8 3.36,-27.45 15.7,-32.55zm616.32 368.23c10.86,-2.45 21.74,-4.93 32.63,-7.38 -29.22,47.34 -59.49,94.03 -90.73,140.04 -22.79,33.12 -45.9,66.12 -71.53,97.14 -12,13.91 -24.17,28.42 -40.55,37.34 -5.93,4.19 -13.65,1.58 -20.36,2.3 3.89,-7.34 6.81,-15.11 9.33,-23.02 -13.78,18.49 -33.92,31.44 -55.3,39.4 -10.9,0.55 -21.86,0 -32.76,0.24 25.95,-11.67 42.77,-36.36 55.55,-60.77 17.13,-32.16 25.13,-67.93 37.46,-101.98 9.21,-25.76 18.35,-51.56 27.14,-77.49 1.4,-3.51 1.94,-7.85 5.54,-9.9 30.01,-22.08 68.17,-33.7 105.42,-29.63 1.72,12.99 3.68,25.95 5.25,38.98 11.32,-14.83 21.84,-30.26 32.91,-45.27zm-559.45 -334.52c7.28,-4.06 17.52,2.25 16.8,10.65 0.62,8.98 -10.83,14.94 -18.03,9.82 -7.47,-4.46 -6.83,-17.01 1.23,-20.47z"/>
   <path class="fil1" d="M807.26 353.1c93.76,-0.63 187.43,9.61 279.36,27.7 51.75,10.46 103.13,23.18 153.23,39.96 -7.72,-19.19 -17.76,-37.76 -32.38,-52.57 160.3,40.11 315.66,99.53 462.62,175 67.64,35.12 134.06,72.96 196.58,116.64 -32.81,12.95 -69.13,13.16 -103.64,8.38 -17.17,-2.41 -34.18,-6.05 -50.74,-11.2 -1.41,13.34 3.37,26.69 12.28,36.58 21.91,24.95 55.3,36.19 76.89,61.48 8.65,9.84 12.66,23.38 10.46,36.34 -3.48,18.64 -10.59,37.6 -24.87,50.7 -14.76,13.53 -34.23,19.86 -52.79,26.33 -31.19,10.01 -62.41,20.13 -92.38,33.48 -81.29,35.81 -153.58,89.06 -219.89,147.6 -26.16,25.99 -54.1,50.71 -86.2,69.21 -29.08,16.87 -62.08,29.35 -96.17,28.23 -24.95,0 -49.57,-9.1 -69.08,-24.53 -21,-16.63 -35.92,-39.83 -45.78,-64.51 79.62,0.94 161.21,-5.69 235.58,-36.19 41.58,-17.39 81.78,-43.13 106.41,-81.8 -32.93,21.82 -69.93,36.7 -107.68,47.88 -78.16,22.79 -159.56,31.93 -240.61,36.68 -90.29,4.97 -180.83,3.49 -271.03,-2.48 -11.62,-0.61 -23.18,-2.37 -34.84,-2.08 8.3,-1.98 16.83,-1.45 25.29,-1.43 68.38,-1.65 136.79,-4.09 204.95,-10.18 23.12,-2.37 46.44,-4.41 69.02,-10.31 -1.82,-17.93 -0.97,-36.17 2.33,-53.88 42.1,-0.17 84.25,-2.92 125.92,-9.08 43.43,-6.63 86.69,-17.02 126.69,-35.58 29.97,-14.1 58.71,-32.91 79.26,-59.3 -32.12,21.16 -68.55,34.83 -105.52,44.74 -76,20.08 -155.01,25.04 -233.33,26.01 -128.41,-0.09 -256.55,-13.52 -383.18,-34.33 -21.63,-3.87 -43.43,-7.09 -64.82,-12.13 87.19,6.67 174.6,11.14 262.03,12.34 23.4,-0.19 46.79,1.19 70.16,0.11 51.51,-0.47 103.13,-1.46 154.43,-6.56 12.44,-15.37 26.14,-30.52 44.1,-39.51 13.1,-6.95 27.82,-10.02 42.52,-11.16 -78.28,-23.02 -160.52,-34.09 -242.05,-27.89 -36.61,2.37 -72.85,8.27 -109.08,13.75 -3.75,0.51 -7.6,1.36 -11.36,0.41 -49.17,-10.14 -96.17,-32.79 -132.91,-67.28 -20.03,-18.8 -37.67,-40.56 -49.68,-65.38 52.72,30.99 113.27,45.63 173.53,52.72 77.2,8.66 155.45,6.1 232.29,-4.91 -5.77,-30.03 -31,-51.45 -57.33,-64.13 18.63,-4.67 38.18,-0.34 55.9,5.87 15.53,5.65 30.01,13.79 43.85,22.75 28.04,17.31 62.75,20.74 94.77,15.28 19.24,-3.03 37.97,-8.93 55.75,-16.85 -5.27,15.77 -17.89,27.3 -29.66,38.35 27.71,8.38 56.72,12 85.63,12.25 54.97,0.95 109.83,-7.07 163.12,-20.21 -13.32,-4.68 -26.61,-10.67 -37.19,-20.19 38.07,-4.19 76.13,-10.07 112.91,-21.04 18.69,-5.84 37.38,-12.44 54.03,-22.94 1.86,-0.5 4.68,-3.95 1.17,-4.4 -30.1,-10.11 -61.04,-19.3 -92.96,-20.72 -13.61,-0.23 -28.36,0.99 -39.72,9.29 -5.57,3.87 -8.8,10.18 -9.93,16.76 -40.1,4.38 -81.05,-2.92 -118.14,-18.39 3.29,12.04 9.66,22.88 16.72,33.08 -51.78,1.95 -106.17,-9.67 -147.42,-42.45 -15.07,-11.35 -25.7,-27.26 -40.03,-39.41 -23.23,-20.32 -52.86,-34.71 -84.12,-35.22 -27.7,-0.68 -56,11.22 -73.12,33.32 -8.98,10.83 -14.01,24.08 -18.25,37.29 -7.87,-22.06 -6.24,-47.96 6.73,-67.79 12.36,-19.54 33.89,-31.83 56.22,-36.3 30.18,-6.2 61.5,-0.64 90.2,9.5 -16.57,-21.65 -42.88,-33.75 -69.3,-37.99 -40.44,-6.66 -81.64,-0.4 -121.24,8.32 -56.07,12.79 -110.14,32.89 -163.35,54.42 -0.69,25.71 -4.8,51.47 -14.22,75.49 -12.44,-35.85 -31.24,-69.82 -57.71,-97.25 -43.29,-45.67 -103.07,-73.97 -164.83,-83.75 -9.84,55.07 7.54,110.94 32.19,159.77 -17.46,-0.4 -35.11,0.7 -52.47,-0.51 -41.5,-44.11 -85.65,-86.41 -136.44,-119.77 -21.12,-13.39 -43.17,-26.15 -67.49,-32.67 32.36,-16.41 67.6,-26.18 102.9,-33.95 74.52,-20.19 152.29,-24.76 229.16,-24.02 44.72,0.29 89.38,3.24 133.86,7.89 -6.13,-17.12 -14.05,-33.9 -26.11,-47.68zm394.16 841.69c91.77,3.3 186.47,-20.99 260.42,-76.74 -7.03,45.86 -36.13,88.87 -78.62,108.76 -2.82,1.13 -5.97,0.6 -8.91,0.7 -39.35,-1.67 -78.74,-5.46 -117.25,-14.03 -19.05,-4.49 -38.16,-9.69 -55.64,-18.69zm-391.16 -945.5l79.49 0c88.03,2.54 176.07,10.14 262.72,26.33 156.99,28.21 310.98,74.69 455.89,141.54 118.31,54.2 230.48,121.78 333.61,201.13 19.66,15.08 38.79,30.77 58.03,46.34l0 0.36c-42.35,84.66 -87.24,168.04 -133.95,250.35 -54.37,95.09 -110.79,189.25 -175.47,277.74 -31.05,41.59 -63.49,82.88 -103.43,116.38 -16.15,13.06 -33.77,25.39 -54.05,30.83 -57.44,5.78 -115.11,9.04 -172.82,10.42l-58.42 0c-84.21,-1.93 -168.51,-8.93 -251.2,-25.36 -76.31,-15.13 -151.63,-37.6 -221.5,-72.14 -19.91,-9.38 -38.13,-21.91 -58.26,-30.8 -53.35,-27.66 -106.56,-55.58 -159.77,-83.49 30.77,2.41 61.52,5.01 92.26,7.68 -85.68,-43.81 -162.1,-105.01 -225.3,-177.46 -23.83,-25.57 -48.63,-50.24 -72.54,-75.76 29.18,4.29 58.3,9.01 87.49,13.26 -51.35,-38.41 -96.74,-85.27 -131.24,-139.47 -9.4,-15.04 -18.39,-30.43 -25.08,-46.88 -8.09,-20.33 -16.42,-40.55 -24.4,-60.92 21.82,5.94 43.55,12.21 65.35,18.2 22.92,6.3 46.71,8.35 70.33,10.18 -76.8,-87.09 -174.54,-155.37 -282.31,-198.44 -23.76,-9.23 -47.91,-17.78 -72.89,-23.09 -30.92,-7.07 -61.9,-13.94 -92.8,-21.12l0 -2.67 0.02 2.12c93.95,-37.08 187.2,-76.32 283.73,-106.37 170.28,-53.71 347.93,-84.53 526.51,-88.89zm-465.46 105.61c-79.17,22.33 -156.5,50.65 -232.78,81.31 31.83,8.23 62.71,19.87 92.8,33.08 124.36,55.13 234.48,142.9 313.99,253.48 -50.2,0.04 -101.14,-0.49 -150.11,-12.8 21.82,46.85 54.58,87.87 91.17,124.04 45.61,44.34 98.97,80.34 156.15,108.09 -38.79,6.98 -78.65,4.76 -117.52,-0.62 54.92,63.89 120.23,119.07 193.6,160.64 65.36,37.41 137.25,62.89 211.24,76.61 -42.6,8.04 -86.28,10.24 -129.5,7.3 13.35,7.49 27.71,13.02 40.68,21.23 63.02,35.89 132.32,59.45 202.64,76.34 89.76,21.25 181.97,31 274.1,33.16 78.01,1.69 156.13,-1.63 233.76,-9.42 8.38,-1.65 15.72,-6.41 22.98,-10.66 24.78,-16.22 45.39,-37.89 64.93,-59.94 38.58,-44.4 72.3,-92.72 104.76,-141.71 35.58,-54.19 69.19,-109.66 101.67,-165.8 48.43,-83.88 94.73,-169.04 138.54,-255.45 -105.35,-85.74 -221.01,-158.8 -343.81,-216.83 -154.81,-73.86 -320.57,-123.81 -489.6,-152.17 -87.75,-15.05 -176.85,-21.5 -265.82,-22.32 -173.61,-0.75 -347.09,24.5 -513.87,72.44zm1203.58 391.13c17.76,6.24 37.38,6.41 55.56,1.9 -5.72,-2.79 -14.56,-7.11 -12.05,-15 5.61,-11.15 18.42,-15.7 29.04,-20.76 -26.9,3.49 -52.59,15.55 -72.55,33.86zm125.65 55.35c17.46,6.45 36.64,5.75 54.63,2.11 -5.87,-2.75 -14.84,-6.67 -12.32,-14.81 5.42,-10.88 18.01,-15.31 28.44,-20.07 -26.24,3.28 -51.21,15.07 -70.75,32.77zm-117.21 58.26c23.62,6.31 48.53,2.66 71.56,-4.25 -6.41,-2.16 -13.76,-4.19 -17.67,-10.23 -2.9,-4.53 -0.68,-10.22 2.3,-14.09 7.54,-9.97 18.9,-15.81 29.36,-22.2 -32.85,7.45 -63.3,25.48 -85.55,50.77z"/>
   <path class="fil2" d="M344.8 354.9c166.78,-47.94 340.26,-73.19 513.87,-72.44 88.97,0.82 178.07,7.27 265.82,22.32 169.03,28.36 334.79,78.31 489.6,152.17 122.8,58.03 238.46,131.09 343.81,216.83 -43.81,86.41 -90.11,171.57 -138.54,255.45 -32.48,56.14 -66.09,111.61 -101.67,165.8 -32.46,48.99 -66.18,97.31 -104.76,141.71 -19.54,22.05 -40.15,43.72 -64.93,59.94 -7.26,4.25 -14.6,9.01 -22.98,10.66 -77.63,7.79 -155.75,11.11 -233.76,9.42 -92.13,-2.16 -184.34,-11.91 -274.1,-33.16 -70.32,-16.89 -139.62,-40.45 -202.64,-76.34 -12.97,-8.21 -27.33,-13.74 -40.68,-21.23 43.22,2.94 86.9,0.74 129.5,-7.3 -73.99,-13.72 -145.88,-39.2 -211.24,-76.61 -73.37,-41.57 -138.68,-96.75 -193.6,-160.64 38.87,5.38 78.73,7.6 117.52,0.62 -57.18,-27.75 -110.54,-63.75 -156.15,-108.09 -36.59,-36.17 -69.35,-77.19 -91.17,-124.04 48.97,12.31 99.91,12.84 150.11,12.8 -79.51,-110.58 -189.63,-198.35 -313.99,-253.48 -30.09,-13.21 -60.97,-24.85 -92.8,-33.08 76.28,-30.66 153.61,-58.98 232.78,-81.31zm1212.02 504.74c22.25,-25.29 52.7,-43.32 85.55,-50.77 -10.46,6.39 -21.82,12.23 -29.36,22.2 -2.98,3.87 -5.2,9.56 -2.3,14.09 3.91,6.04 11.26,8.07 17.67,10.23 -23.03,6.91 -47.94,10.56 -71.56,4.25zm117.21 -58.26c19.54,-17.7 44.51,-29.49 70.75,-32.77 -10.43,4.76 -23.02,9.19 -28.44,20.07 -2.52,8.14 6.45,12.06 12.32,14.81 -17.99,3.64 -37.17,4.34 -54.63,-2.11zm-125.65 -55.35c19.96,-18.31 45.65,-30.37 72.55,-33.86 -10.62,5.06 -23.43,9.61 -29.04,20.76 -2.51,7.89 6.33,12.21 12.05,15 -18.18,4.51 -37.8,4.34 -55.56,-1.9zm-741.12 -392.93l0 0c12.06,13.78 19.98,30.56 26.11,47.68 -44.48,-4.65 -89.14,-7.6 -133.86,-7.89 -76.87,-0.74 -154.64,3.83 -229.16,24.02 -35.3,7.77 -70.54,17.54 -102.9,33.95 24.32,6.52 46.37,19.28 67.49,32.67 50.79,33.36 94.94,75.66 136.44,119.77 17.36,1.21 35.01,0.11 52.47,0.51 -24.65,-48.83 -42.03,-104.7 -32.19,-159.77 61.76,9.78 121.54,38.08 164.83,83.75 26.47,27.43 45.27,61.4 57.71,97.25 9.42,-24.02 13.53,-49.78 14.22,-75.49 53.21,-21.53 107.28,-41.63 163.35,-54.42 39.6,-8.72 80.8,-14.98 121.24,-8.32 26.42,4.24 52.73,16.34 69.3,37.99 -28.7,-10.14 -60.02,-15.7 -90.2,-9.5 -22.33,4.47 -43.86,16.76 -56.22,36.3 -12.97,19.83 -14.6,45.73 -6.73,67.79 4.24,-13.21 9.27,-26.46 18.25,-37.29 17.12,-22.1 45.42,-34 73.12,-33.32 31.26,0.51 60.89,14.9 84.12,35.22 14.33,12.15 24.96,28.06 40.03,39.41 41.25,32.78 95.64,44.4 147.42,42.45 -7.06,-10.2 -13.43,-21.04 -16.72,-33.08 37.09,15.47 78.04,22.77 118.14,18.39 1.13,-6.58 4.36,-12.89 9.93,-16.76 11.36,-8.3 26.11,-9.52 39.72,-9.29 31.92,1.42 62.86,10.61 92.96,20.72 3.51,0.45 0.69,3.9 -1.17,4.4 -16.65,10.5 -35.34,17.1 -54.03,22.94 -36.78,10.97 -74.84,16.85 -112.91,21.04 10.58,9.52 23.87,15.51 37.19,20.19 -53.29,13.14 -108.15,21.16 -163.12,20.21 -28.91,-0.25 -57.92,-3.87 -85.63,-12.25 11.77,-11.05 24.39,-22.58 29.66,-38.35 -17.78,7.92 -36.51,13.82 -55.75,16.85 -32.02,5.46 -66.73,2.03 -94.77,-15.28 -13.84,-8.96 -28.32,-17.1 -43.85,-22.75 -17.72,-6.21 -37.27,-10.54 -55.9,-5.87 26.33,12.68 51.56,34.1 57.33,64.13 -76.84,11.01 -155.09,13.57 -232.29,4.91 -60.26,-7.09 -120.81,-21.73 -173.53,-52.72 12.01,24.82 29.65,46.58 49.68,65.38 36.74,34.49 83.74,57.14 132.91,67.28 3.76,0.95 7.61,0.1 11.36,-0.41 36.23,-5.48 72.47,-11.38 109.08,-13.75 81.53,-6.2 163.77,4.87 242.05,27.89 -14.7,1.14 -29.42,4.21 -42.52,11.16 -17.96,8.99 -31.66,24.14 -44.1,39.51 -51.3,5.1 -102.92,6.09 -154.43,6.56 -23.37,1.08 -46.76,-0.3 -70.16,-0.11 -87.43,-1.2 -174.84,-5.67 -262.03,-12.34 21.39,5.04 43.19,8.26 64.82,12.13 126.63,20.81 254.77,34.24 383.18,34.33 78.32,-0.97 157.33,-5.93 233.33,-26.01 36.97,-9.91 73.4,-23.58 105.52,-44.74 -20.55,26.39 -49.29,45.2 -79.26,59.3 -40,18.56 -83.26,28.95 -126.69,35.58 -41.67,6.16 -83.82,8.91 -125.92,9.08 -3.3,17.71 -4.15,35.95 -2.33,53.88 -22.58,5.9 -45.9,7.94 -69.02,10.31 -68.16,6.09 -136.57,8.53 -204.95,10.18 -8.46,-0.02 -16.99,-0.55 -25.29,1.43 11.66,-0.29 23.22,1.47 34.84,2.08 90.2,5.97 180.74,7.45 271.03,2.48 81.05,-4.75 162.45,-13.89 240.61,-36.68 37.75,-11.18 74.75,-26.06 107.68,-47.88 -24.63,38.67 -64.83,64.41 -106.41,81.8 -74.37,30.5 -155.96,37.13 -235.58,36.19 9.86,24.68 24.78,47.88 45.78,64.51 19.51,15.43 44.13,24.53 69.08,24.53 34.09,1.12 67.09,-11.36 96.17,-28.23 32.1,-18.5 60.04,-43.22 86.2,-69.21 66.31,-58.54 138.6,-111.79 219.89,-147.6 29.97,-13.35 61.19,-23.47 92.38,-33.48 18.56,-6.47 38.03,-12.8 52.79,-26.33 14.28,-13.1 21.39,-32.06 24.87,-50.7 2.2,-12.96 -1.81,-26.5 -10.46,-36.34 -21.59,-25.29 -54.98,-36.53 -76.89,-61.48 -8.91,-9.89 -13.69,-23.24 -12.28,-36.58 16.56,5.15 33.57,8.79 50.74,11.2 34.51,4.78 70.83,4.57 103.64,-8.38 -62.52,-43.68 -128.94,-81.52 -196.58,-116.64 -146.96,-75.47 -302.32,-134.89 -462.62,-175 14.62,14.81 24.66,33.38 32.38,52.57 -50.1,-16.78 -101.48,-29.5 -153.23,-39.96 -91.93,-18.09 -185.6,-28.33 -279.36,-27.7zm294.96 232.93l0 0c-12.34,5.1 -19.17,19.75 -15.7,32.55 3.22,14.48 19.3,24.06 33.61,20.34 15.17,-3.13 25.16,-20.13 20.57,-34.94 -4.02,-16.02 -23.6,-25.12 -38.48,-17.95zm56.87 33.71l0 0c-8.06,3.46 -8.7,16.01 -1.23,20.47 7.2,5.12 18.65,-0.84 18.03,-9.82 0.72,-8.4 -9.52,-14.71 -16.8,-10.65zm559.45 334.52l0 0c-11.07,15.01 -21.59,30.44 -32.91,45.27 -1.57,-13.03 -3.53,-25.99 -5.25,-38.98 -37.25,-4.07 -75.41,7.55 -105.42,29.63 -3.6,2.05 -4.14,6.39 -5.54,9.9 -8.79,25.93 -17.93,51.73 -27.14,77.49 -12.33,34.05 -20.33,69.82 -37.46,101.98 -12.78,24.41 -29.6,49.1 -55.55,60.77 10.9,-0.24 21.86,0.31 32.76,-0.24 21.38,-7.96 41.52,-20.91 55.3,-39.4 -2.52,7.91 -5.44,15.68 -9.33,23.02 6.71,-0.72 14.43,1.89 20.36,-2.3 16.38,-8.92 28.55,-23.43 40.55,-37.34 25.63,-31.02 48.74,-64.02 71.53,-97.14 31.24,-46.01 61.51,-92.7 90.73,-140.04 -10.89,2.45 -21.77,4.93 -32.63,7.38zm-517.12 240.53l0 0c17.48,9 36.59,14.2 55.64,18.69 38.51,8.57 77.9,12.36 117.25,14.03 2.94,-0.1 6.09,0.43 8.91,-0.7 42.49,-19.89 71.59,-62.9 78.62,-108.76 -73.95,55.75 -168.65,80.04 -260.42,76.74z"/>
  </g>
 </g>
</svg>
