<?xml version="1.0" encoding="UTF-8"?>
<!DOCTYPE svg PUBLIC "-//W3C//DTD SVG 1.1//EN" "http://www.w3.org/Graphics/SVG/1.1/DTD/svg11.dtd">
<!-- Creator: CorelDRAW -->
<svg xmlns="http://www.w3.org/2000/svg" xml:space="preserve" width="2000px" height="1600px" version="1.1" style="shape-rendering:geometricPrecision; text-rendering:geometricPrecision; image-rendering:optimizeQuality; fill-rule:evenodd; clip-rule:evenodd"
viewBox="0 0 2000 1600"
 xmlns:xlink="http://www.w3.org/1999/xlink">
 <defs>
  <style type="text/css">
   <![CDATA[
    .fil1 {fill:#0B223E;fill-rule:nonzero}
    .fil0 {fill:#B6A26A;fill-rule:nonzero}
   ]]>
  </style>
 </defs>
 <g id="Capa_x0020_1">
  <metadata id="CorelCorpID_0Corel-Layer"/>
  <g id="Pittsburgh_x0020_Panthers.cdr">
   <path class="fil0" d="M1442.66 855.06c41.1,-18.1 86.32,-24.76 130.94,-25.48 8.97,-0.26 18.13,-1.21 26.91,1.32 10.1,45.72 5.61,92.74 4.4,139.06 -0.34,10.61 -2.77,21 -4.51,31.45 -7.13,38.56 -16.76,77.69 -37.76,111.28 -13.96,14.38 -32.99,26.64 -53.89,24.83 -19.8,0.22 -37.91,-12.98 -46.33,-30.44 -5.66,-11.74 -9.34,-24.34 -12.31,-37 -9.09,-40.8 -7.83,-82.85 -8.77,-124.38 -0.84,-30.23 1.56,-60.43 1.32,-90.64zm-846.36 -616.38l46.7 0c75.28,3.17 150.29,20.58 217.87,54.26 90.25,48.36 161.82,133.4 187.53,233.21 11.65,43.57 13.39,89.31 8.66,134.03 -4.94,42.61 -20.15,83.49 -41.31,120.63 11.51,-0.96 23.01,0.36 34.54,0.34 19.85,0.05 40.04,1.35 58.84,8.35 0.33,-12.94 0.95,-25.87 2.49,-38.71 0.5,-5.66 5.38,-9.35 8.68,-13.47 15.46,-17.89 36.22,-32.64 60.21,-35.46 8.47,-0.69 17.3,-1.24 25.61,0.91 7.87,4.99 14.6,11.69 22.9,16.16 -3.04,-47.15 -3.82,-94.65 -12.62,-141.21 16.37,-18.98 34.35,-36.78 55.41,-50.55 31.8,-21.28 68.3,-34.81 105.56,-42.88 12.33,-0.63 24.65,1.45 36.8,3.32 25.66,4.25 50.96,18 63.83,41.32 12.18,23.76 12.38,51.46 9.3,77.38 -2.37,17.65 -3.45,35.45 -3.36,53.26 25.27,-6.83 50.81,-12.8 76.69,-16.78 -0.96,-23.3 -2.45,-46.59 -3.52,-69.88 -0.43,-10.67 1.84,-21.17 3,-31.73 34.15,-29.07 73.21,-54.18 117.5,-64.09 19.95,-4.32 40.92,-7.46 61.07,-2.36 26.07,4.75 51.94,18.04 66.3,41.05 12.97,20.02 15.47,44.83 13.4,68.1 -0.93,13.62 -3.57,27.11 -3.4,40.79 0.5,15.06 -1.6,30.02 -2.6,45.01 40.75,24.63 82.04,50.53 112.56,87.79 5.03,6.51 11.58,12.53 13.2,20.97 8.66,37.15 5.82,77.15 -9.37,112.26 -7.28,15.7 -15.46,32.12 -29.71,42.63 -16.89,12.48 -39.14,13.5 -59.21,10.85 -16.54,-3.25 -31.53,-11.47 -46.08,-19.65 -2.62,54 -5.62,108.28 -0.8,162.24 1.62,13.04 1.64,26.83 7.78,38.8 1.2,2.87 4.41,3.89 6.72,5.75 21.02,-16.74 36.92,-38.64 55.44,-57.84 29.17,-23.81 73.93,-25.13 105.18,-4.55 13.13,8.85 23.14,22.23 27.76,37.39 6.42,20.43 4.1,42.22 1.63,63.09 -1.17,11.16 -6.92,21.01 -11.54,31.01 -16.24,32.07 -37.71,61.66 -64.28,85.97 -21.34,19.67 -46.61,35.09 -74.28,44.05 -29.45,12.68 -62.01,17.82 -93.93,14.79 -52.74,-4.67 -102.37,-28.39 -143.51,-60.99 -19.91,17.91 -41.33,34.49 -65.52,46.22 -29.4,14.61 -62.31,22.45 -95.2,21.14 -49.5,-1.38 -98.42,-20.47 -135.29,-53.63 -32.56,32.12 -73.57,57.97 -119.78,63.35l-42.82 0c-49.68,-4.88 -96.9,-26.65 -134.26,-59.51 -27.98,22.27 -61.34,38.37 -96.93,43.44 -18.47,2.43 -37.45,2.88 -55.82,-0.48 -52.09,-13.4 -102.47,-39.54 -137.39,-81.26 -5.86,-7.42 -13.06,-14.42 -15.44,-23.86 -2.78,-10.23 -5.6,-20.41 -8.66,-30.55 -2.62,-7.96 -1.25,-16.42 -0.04,-24.47 2.41,-15.38 8.28,-30.77 19.35,-42.01 10.54,-10.91 25.31,-17.37 40.38,-18.52 16.14,-1.32 32.25,1.71 47.84,5.7 8.09,1.87 16.24,4.47 24.64,4.23 4.9,-0.73 9.17,-3.58 13.94,-4.86 4.75,-1.58 10.22,-1.71 14.17,-5.14 8.35,-6.96 13.2,-16.95 18.37,-26.26 5.46,-10.89 12.71,-21.15 14.79,-33.4 8.5,-40.29 3.25,-81.67 3.21,-122.42 0.04,-8.07 0.04,-16.12 -0.11,-24.17 -77.3,61.36 -173.2,96.69 -270.84,107.47 3.26,74.91 5.96,150.03 0.24,224.9 -2.3,26.83 -13.99,53.05 -33.09,72.13 -34.71,26.18 -79.58,35.63 -122.43,33.84 -41.06,-1.78 -81.7,-13.11 -117.72,-32.93 -18.72,-9.15 -31.39,-27.02 -40.17,-45.35 -14.42,-31.29 -14.16,-66.47 -15.11,-100.19 -3.56,-52.53 -5.25,-105.17 -7.94,-157.74 -6.47,-138.56 -12.11,-277.17 -21.26,-415.6 -0.67,-9.61 0.76,-19.17 1.72,-28.71 -20.97,21.27 -36.46,46.99 -54.68,70.46 -12.8,16.72 -26.96,32.55 -43.35,45.85 -7.72,6.09 -17,9.78 -26.14,13.16 -22.94,7.85 -48.64,10.24 -71.85,2.17 -14.44,-5.57 -29.17,-11.65 -40.47,-22.57 -19.93,-18.46 -29.95,-44.75 -36.28,-70.58l0 -17.96c3.56,-28.56 12.75,-56.36 27.67,-81 20.04,-33.88 47.54,-62.44 75.19,-90.11 60.9,-60.73 136.22,-106.18 217.06,-134.99 88.63,-31.85 182.65,-45.97 276.38,-51.35zm-41.51 40.18l0 0c-100.43,9.09 -201.34,30.21 -291.74,76.24 -46.87,23.77 -90.5,54.17 -128.41,90.61 -27.94,27.93 -56.52,56.13 -76.41,90.63 -11.64,20.11 -19.43,42.66 -21.04,65.91 -0.75,7.18 1.78,14.07 3.95,20.76 4.17,12.38 9.93,24.65 19.48,33.79 7.8,7.95 18.6,11.53 28.6,15.76 20.33,6.14 42.86,1.26 61.14,-8.76 43.31,-34.2 64.8,-87.97 106.31,-123.95 69.88,-58.07 156.94,-93.51 246.44,-106.85 61.96,-4.51 126.2,1.11 183.44,26.7 23.98,10.88 47.3,24.68 64.5,45 29.62,34.05 43.28,78.42 52.72,121.73 12.36,52.79 -1.71,112.32 -40.67,150.91 -12.21,13.53 -28.95,21.46 -45.35,28.62 -29.03,11.72 -59.79,18.5 -90.43,24.32 -15.36,1.53 -30.8,4.49 -46.24,2.27 -3.77,-54.52 -7.74,-109.02 -11.56,-163.52 -2.8,-34.72 -3.78,-69.9 -12.67,-103.76 -2.81,-11.3 -8.39,-21.88 -16.18,-30.51 -17.24,-19.35 -41.81,-30.93 -66.77,-36.52 -28.26,-2.87 -57.17,-3.49 -85.02,2.84 -22.57,4.99 -43.87,16.26 -59.99,32.9 -16.22,17.87 -20.03,43.2 -20.84,66.43 9.35,145.87 15.47,291.89 22.1,437.89 2.24,43.9 3.58,87.86 6.86,131.69 1.41,26.89 -0.24,54.42 7.52,80.53 5.36,16.44 14.45,33.81 30.95,41.29 33.27,17.87 71.03,27.22 108.78,27.35 30.02,-0.26 61.06,-6.83 86.02,-24.21 15.31,-15.02 22.05,-37.01 22.29,-58.09 5.58,-82.61 0.52,-165.37 -2.58,-247.98 8.66,0.71 17.39,1.32 26.07,0.61 36.31,-3.97 72.46,-10.53 107.42,-21.3 67.04,-20.26 129.74,-55.5 180.9,-103.47 39.95,-41.99 77.05,-88.36 98.85,-142.6 12.3,-30.28 18.69,-62.92 18.87,-95.6 2.21,-46.48 -6.64,-93.35 -25.29,-135.96 -29.88,-68.73 -83.91,-125.98 -149,-162.62 -50.29,-25.69 -105.31,-41.74 -161.29,-48.51 -43.72,-5.44 -87.96,-4.93 -131.73,-0.57zm-46.5 190.9l0 0c14.41,6.29 28.76,13.12 41.19,22.86 19.72,14.86 35.27,35.65 42.2,59.49 10.2,36.26 11.82,74.1 14.56,111.45 3.2,43.59 6.11,87.19 9.39,130.76 10.82,-0.87 21.34,-3.71 31.9,-6.03 19.91,-4.58 39.82,-9.7 58.64,-17.83 11.46,-5.12 23.21,-10.73 31.58,-20.41 29.37,-29.47 39.13,-74.56 30.12,-114.51 -8.52,-38.52 -19.69,-78.62 -46.73,-108.63 -14.49,-16.16 -34.1,-26.48 -53.7,-35.12 -49.99,-21.18 -105.47,-25.5 -159.15,-22.03zm1086.97 90.31l0 0c-2.36,10.28 -0.59,20.82 -0.28,31.21 1.73,28.02 3.92,56.13 2.08,84.21 -44,4.23 -87.21,14.34 -129.39,27.33 -7.2,1.88 -14.42,5.27 -21.99,3.42 0.8,-35.52 0.39,-71.22 5.05,-106.53 1.91,-17.22 2.43,-35.44 -4.64,-51.66 -7.57,-14.7 -24.22,-21.69 -39.75,-24.2 -8.41,-1.17 -16.92,-2.88 -25.42,-2.28 -46.8,10.35 -92.58,31.69 -125.09,67.75 8.76,54.72 6.87,110.42 13.98,165.29 0.7,3.47 -0.04,6.91 -1.3,10.13 -24.96,2.77 -49.9,-6.49 -69.72,-21.28 -3.49,-2.3 -6.79,-6.31 -11.47,-5.08 -14.88,1.13 -27.59,10.59 -37.33,21.28 -2.78,2.41 -2.64,6.22 -2.91,9.57 -1.51,22.09 -1.56,44.67 4.45,66.16 3.86,15.79 13.1,30.84 28.07,38.2 27.04,13.77 58.36,8.59 87.48,12.01 3.15,0.59 8.35,0.26 8.85,4.49 5.75,49.88 4.88,100.48 -2.02,150.19 -4.98,34.39 -12.51,68.57 -24.57,101.19 -9.11,17.4 -21.14,36.78 -41.42,42.01 -27.15,4.08 -58.32,-10.54 -67.75,-37.35 -16.21,-61.74 -17.46,-126 -19.87,-189.39 -0.09,-33.94 5.08,-67.99 0.71,-101.83 -0.64,-15.9 -14.74,-27.76 -28.91,-32.36 -21.38,-6.29 -43.98,-3.49 -65.92,-4.9 -16.79,1.46 -33.86,2.58 -50.15,7.18 -13.7,3.77 -26.2,13.79 -30.05,27.85 -13.06,42.74 -9.46,87.99 -8.25,131.99 0.7,34.68 1.56,70.38 -9.71,103.67 -6.03,12.45 -12.65,24.64 -19.28,36.8 -9.48,16.59 -22.88,33.27 -42.29,38 -8.98,1.82 -16.94,7.09 -26.2,7.74 -22.12,2.37 -42.66,-8.5 -64.44,-9.82 -8.35,-0.61 -17.57,-0.31 -24.46,5.09 -9.61,7.44 -12.25,20.45 -12.69,31.95 1.09,7 3.75,13.6 5.44,20.45 1.39,4.57 2.11,9.54 5.02,13.47 26.99,36 67.53,59.66 110.02,72.76 18.32,6.9 38.41,6.18 57.51,3.51 35.24,-5.63 67.54,-24.14 92.87,-48.92 2.8,-2.59 5.29,-6.25 9.52,-6.34 2.97,2 5.29,4.78 7.79,7.35 25.39,25.95 56.75,46.68 91.78,56.89 25.31,7.12 52.24,10.15 78.33,6.01 36.44,-6.25 67.56,-28.67 93.43,-54.04 7.97,-8.64 13.82,-19.39 23.82,-26.07 31.73,44.76 85.99,71.59 140.66,71.46 30.93,0.34 61.44,-9.4 87.77,-25.33 26.09,-15.58 48.48,-36.68 67.99,-59.86 7.34,7.68 11.65,17.96 20.33,24.42 35.37,27.84 77.27,49.29 122.45,54.37 27.84,3.43 56.41,-1.26 81.93,-12.8 34.38,-10.64 63.03,-34.5 85.52,-61.98 16.07,-19.98 29.75,-42.12 39.16,-65.98 2.58,-18.17 6.38,-38.06 -1.9,-55.34 -6.99,-14.62 -24.21,-20.5 -39.43,-20.65 -12.34,0.2 -25.75,3.49 -34.25,13.03 -14.46,15.8 -27.58,32.91 -43.59,47.24 -9.02,7.74 -18.82,17.18 -31.64,16.51 -12.47,-0.85 -24.98,-5.64 -34.48,-13.8 -7.66,-8.87 -10.24,-20.82 -14.47,-31.47 -13.08,-79.57 -3.77,-160.36 -2.62,-240.43 -0.24,-5.64 0.69,-11.21 2.77,-16.44 21.13,5.84 38.93,19.09 57.84,29.63 11.6,6.14 23.73,12.95 37.3,12.67 10.13,0.54 21.76,-2.09 27.57,-11.2 21.36,-31.36 28.48,-72.52 18.67,-109.09 -32.64,-44.06 -82.21,-70.24 -127.95,-98.37 1.21,-19.24 3.19,-38.43 4.14,-57.69 -1.33,-22.38 4.6,-44.4 3.88,-66.77 -0.26,-13.74 -4.53,-28.09 -14.75,-37.76 -13.1,-12.37 -31.57,-16.53 -48.93,-18.39 -45.74,0.62 -87.92,22.94 -122.9,50.92zm-435.96 344.77l0 0c-0.5,12.4 -1.15,24.81 -1.72,37.21 -0.72,16.7 0.76,33.36 1.15,50.06 1.86,46.04 4.88,92.34 15.53,137.32 1.56,12 15.14,18.44 26.16,17.42 8.86,-7.59 14.78,-18.33 18.04,-29.45 20.02,-63.16 27.2,-130.22 22.88,-196.25 -27.98,-0.2 -56.95,-2.84 -82.04,-16.31zm320.17 -23.81l0 0c-1.95,40.09 -1.11,80.2 0.02,120.3 1.11,28.86 3.71,58.23 14.32,85.34 2.08,5.46 5.66,10.97 11.32,13.2 11.43,3.15 23.25,-3.99 29.69,-13.09 19.25,-35.38 26.67,-75.65 32.86,-115.01 0.95,-34.84 3.88,-69.79 0.82,-104.6 -30.06,0.89 -60.31,4.64 -89.03,13.86z"/>
   <path class="fil1" d="M554.79 278.86c43.77,-4.36 88.01,-4.87 131.73,0.57 55.98,6.77 111,22.82 161.29,48.51 65.09,36.64 119.12,93.89 149,162.62 18.65,42.61 27.5,89.48 25.29,135.96 -0.18,32.68 -6.57,65.32 -18.87,95.6 -21.8,54.24 -58.9,100.61 -98.85,142.6 -51.16,47.97 -113.86,83.21 -180.9,103.47 -34.96,10.77 -71.11,17.33 -107.42,21.3 -8.68,0.71 -17.41,0.1 -26.07,-0.61 3.1,82.61 8.16,165.37 2.58,247.98 -0.24,21.08 -6.98,43.07 -22.29,58.09 -24.96,17.38 -56,23.95 -86.02,24.21 -37.75,-0.13 -75.51,-9.48 -108.78,-27.35 -16.5,-7.48 -25.59,-24.85 -30.95,-41.29 -7.76,-26.11 -6.11,-53.64 -7.52,-80.53 -3.28,-43.83 -4.62,-87.79 -6.86,-131.69 -6.63,-146 -12.75,-292.02 -22.1,-437.89 0.81,-23.23 4.62,-48.56 20.84,-66.43 16.12,-16.64 37.42,-27.91 59.99,-32.9 27.85,-6.33 56.76,-5.71 85.02,-2.84 24.96,5.59 49.53,17.17 66.77,36.52 7.79,8.63 13.37,19.21 16.18,30.51 8.89,33.86 9.87,69.04 12.67,103.76 3.82,54.5 7.79,109 11.56,163.52 15.44,2.22 30.88,-0.74 46.24,-2.27 30.64,-5.82 61.4,-12.6 90.43,-24.32 16.4,-7.16 33.14,-15.09 45.35,-28.62 38.96,-38.59 53.03,-98.12 40.67,-150.91 -9.44,-43.31 -23.1,-87.68 -52.72,-121.73 -17.2,-20.32 -40.52,-34.12 -64.5,-45 -57.24,-25.59 -121.48,-31.21 -183.44,-26.7 -89.5,13.34 -176.56,48.78 -246.44,106.85 -41.51,35.98 -63,89.75 -106.31,123.95 -18.28,10.02 -40.81,14.9 -61.14,8.76 -10,-4.23 -20.8,-7.81 -28.6,-15.76 -9.55,-9.14 -15.31,-21.41 -19.48,-33.79 -2.17,-6.69 -4.7,-13.58 -3.95,-20.76 1.61,-23.25 9.4,-45.8 21.04,-65.91 19.89,-34.5 48.47,-62.7 76.41,-90.63 37.91,-36.44 81.54,-66.84 128.41,-90.61 90.4,-46.03 191.31,-67.15 291.74,-76.24zm1040.47 281.21c34.98,-27.98 77.16,-50.3 122.9,-50.92 17.36,1.86 35.83,6.02 48.93,18.39 10.22,9.67 14.49,24.02 14.75,37.76 0.72,22.37 -5.21,44.39 -3.88,66.77 -0.95,19.26 -2.93,38.45 -4.14,57.69 45.74,28.13 95.31,54.31 127.95,98.37 9.81,36.57 2.69,77.73 -18.67,109.09 -5.81,9.11 -17.44,11.74 -27.57,11.2 -13.57,0.28 -25.7,-6.53 -37.3,-12.67 -18.91,-10.54 -36.71,-23.79 -57.84,-29.63 -2.08,5.23 -3.01,10.8 -2.77,16.44 -1.15,80.07 -10.46,160.86 2.62,240.43 4.23,10.65 6.81,22.6 14.47,31.47 9.5,8.16 22.01,12.95 34.48,13.8 12.82,0.67 22.62,-8.77 31.64,-16.51 16.01,-14.33 29.13,-31.44 43.59,-47.24 8.5,-9.54 21.91,-12.83 34.25,-13.03 15.22,0.15 32.44,6.03 39.43,20.65 8.28,17.28 4.48,37.17 1.9,55.34 -9.41,23.86 -23.09,46 -39.16,65.98 -22.49,27.48 -51.14,51.34 -85.52,61.98 -25.52,11.54 -54.09,16.23 -81.93,12.8 -45.18,-5.08 -87.08,-26.53 -122.45,-54.37 -8.68,-6.46 -12.99,-16.74 -20.33,-24.42 -19.51,23.18 -41.9,44.28 -67.99,59.86 -26.33,15.93 -56.84,25.67 -87.77,25.33 -54.67,0.13 -108.93,-26.7 -140.66,-71.46 -10,6.68 -15.85,17.43 -23.82,26.07 -25.87,25.37 -56.99,47.79 -93.43,54.04 -26.09,4.14 -53.02,1.11 -78.33,-6.01 -35.03,-10.21 -66.39,-30.94 -91.78,-56.89 -2.5,-2.57 -4.82,-5.35 -7.79,-7.35 -4.23,0.09 -6.72,3.75 -9.52,6.34 -25.33,24.78 -57.63,43.29 -92.87,48.92 -19.1,2.67 -39.19,3.39 -57.51,-3.51 -42.49,-13.1 -83.03,-36.76 -110.02,-72.76 -2.91,-3.93 -3.63,-8.9 -5.02,-13.47 -1.69,-6.85 -4.35,-13.45 -5.44,-20.45 0.44,-11.5 3.08,-24.51 12.69,-31.95 6.89,-5.4 16.11,-5.7 24.46,-5.09 21.78,1.32 42.32,12.19 64.44,9.82 9.26,-0.65 17.22,-5.92 26.2,-7.74 19.41,-4.73 32.81,-21.41 42.29,-38 6.63,-12.16 13.25,-24.35 19.28,-36.8 11.27,-33.29 10.41,-68.99 9.71,-103.67 -1.21,-44 -4.81,-89.25 8.25,-131.99 3.85,-14.06 16.35,-24.08 30.05,-27.85 16.29,-4.6 33.36,-5.72 50.15,-7.18 21.94,1.41 44.54,-1.39 65.92,4.9 14.17,4.6 28.27,16.46 28.91,32.36 4.37,33.84 -0.8,67.89 -0.71,101.83 2.41,63.39 3.66,127.65 19.87,189.39 9.43,26.81 40.6,41.43 67.75,37.35 20.28,-5.23 32.31,-24.61 41.42,-42.01 12.06,-32.62 19.59,-66.8 24.57,-101.19 6.9,-49.71 7.77,-100.31 2.02,-150.19 -0.5,-4.23 -5.7,-3.9 -8.85,-4.49 -29.12,-3.42 -60.44,1.76 -87.48,-12.01 -14.97,-7.36 -24.21,-22.41 -28.07,-38.2 -6.01,-21.49 -5.96,-44.07 -4.45,-66.16 0.27,-3.35 0.13,-7.16 2.91,-9.57 9.74,-10.69 22.45,-20.15 37.33,-21.28 4.68,-1.23 7.98,2.78 11.47,5.08 19.82,14.79 44.76,24.05 69.72,21.28 1.26,-3.22 2,-6.66 1.3,-10.13 -7.11,-54.87 -5.22,-110.57 -13.98,-165.29 32.51,-36.06 78.29,-57.4 125.09,-67.75 8.5,-0.6 17.01,1.11 25.42,2.28 15.53,2.51 32.18,9.5 39.75,24.2 7.07,16.22 6.55,34.44 4.64,51.66 -4.66,35.31 -4.25,71.01 -5.05,106.53 7.57,1.85 14.79,-1.54 21.99,-3.42 42.18,-12.99 85.39,-23.1 129.39,-27.33 1.84,-28.08 -0.35,-56.19 -2.08,-84.21 -0.31,-10.39 -2.08,-20.93 0.28,-31.21zm-152.6 294.99l0 0c0.24,30.21 -2.16,60.41 -1.32,90.64 0.94,41.53 -0.32,83.58 8.77,124.38 2.97,12.66 6.65,25.26 12.31,37 8.42,17.46 26.53,30.66 46.33,30.44 20.9,1.81 39.93,-10.45 53.89,-24.83 21,-33.59 30.63,-72.72 37.76,-111.28 1.74,-10.45 4.17,-20.84 4.51,-31.45 1.21,-46.32 5.7,-93.34 -4.4,-139.06 -8.78,-2.53 -17.94,-1.58 -26.91,-1.32 -44.62,0.72 -89.84,7.38 -130.94,25.48z"/>
  </g>
 </g>
</svg>
