<?xml version="1.0" encoding="UTF-8"?>
<!DOCTYPE svg PUBLIC "-//W3C//DTD SVG 1.1//EN" "http://www.w3.org/Graphics/SVG/1.1/DTD/svg11.dtd">
<!-- Creator: CorelDRAW -->
<svg xmlns="http://www.w3.org/2000/svg" xml:space="preserve" width="2000px" height="1600px" version="1.1" style="shape-rendering:geometricPrecision; text-rendering:geometricPrecision; image-rendering:optimizeQuality; fill-rule:evenodd; clip-rule:evenodd"
viewBox="0 0 2000 1600"
 xmlns:xlink="http://www.w3.org/1999/xlink">
 <defs>
  <style type="text/css">
   <![CDATA[
    .fil0 {fill:#104635;fill-rule:nonzero}
    .fil1 {fill:#FEFEFE;fill-rule:nonzero}
   ]]>
  </style>
 </defs>
 <g id="Capa_x0020_1">
  <metadata id="CorelCorpID_0Corel-Layer"/>
  <g id="Portland_x0020_State_x0020_Vikings.cdr">
   <path class="fil0" d="M383.73 0l0.95 0c45.24,30.96 91.06,61.08 136.51,91.72 155.91,104.4 311.84,208.8 467.72,313.24 3.69,2.41 7.17,5.17 11.17,7.07 5.01,-2.39 9.31,-5.97 13.94,-9 165.56,-110.79 331.03,-221.69 496.57,-332.49 34.85,-23.61 70.19,-46.52 104.76,-70.54l0.92 0 0 366.8c-24.85,15.85 -49.08,32.66 -73.72,48.82 -1.84,0.91 -2.67,2.39 -2.47,4.43 -0.03,214.79 -0.02,429.58 0,644.37 0.49,51.74 -10.41,103.56 -32.13,150.54 -20.5,45.02 -50.46,85.51 -86.1,119.7 -36.35,36.25 -77.49,67.29 -119.91,96.05 -22.49,15.17 -45.92,28.88 -69.63,42.05 -47.97,27.02 -96.19,53.59 -144.56,79.83 -28.96,16.05 -58.44,31.15 -87.24,47.41l-1.27 0c-17.07,-10.4 -35.16,-19.06 -52.61,-28.83 -54.92,-29.63 -109.64,-59.67 -164.09,-90.16 -26.86,-15.09 -53.9,-29.93 -79.49,-47.12 -45.85,-30.62 -90.21,-64.03 -128.92,-103.45 -43.39,-42.28 -77.38,-94.57 -96.38,-152.21 -12.01,-36.11 -17.61,-74.16 -17.81,-112.18 -0.02,-215.28 0.02,-430.58 0,-645.86 0.79,-3.65 -3.07,-4.86 -5.36,-6.66 -23.68,-15.49 -47.06,-31.44 -70.85,-46.77l0 -366.76zm300 475.83c47.35,31.16 94.2,63.15 141.44,94.49 0.33,16.46 0.13,32.94 0.13,49.41 0.43,3.31 -3.64,4.07 -5.58,5.82 -45.28,30.42 -90.71,60.62 -135.9,91.2 -0.39,-80.29 -0.19,-160.62 -0.09,-240.92zm-223.77 -332.69l0 0c-0.02,59.95 -0.02,119.9 0,179.83 -0.5,2.4 2,3.31 3.5,4.46 22.71,15.1 45.3,30.39 68.08,45.4 0.19,218.45 0.03,436.89 0.08,655.34 0.13,19.84 -0.56,39.71 1.15,59.52 3.05,32.69 11.95,64.87 26.35,94.4 27.34,57 72.45,104.09 124.37,139.47 0.35,-140.59 -0.03,-281.2 0.19,-421.79 92.86,-62.02 185.42,-124.5 278.36,-186.41 0.01,-77.99 0.29,-156.01 -0.14,-233.99 -5.93,-5 -13.03,-8.73 -19.36,-13.31 -159.09,-106.68 -318.25,-213.29 -477.38,-319.95 -1.66,-1.12 -3.41,-2.08 -5.2,-2.97zm1063.31 10.99l0 0c-161.28,107.98 -322.5,216.05 -483.76,324.04 -2.09,1.27 -0.8,4.37 -1.23,6.38 0.15,76.16 -0.13,152.32 0.15,228.48 12.11,8.92 24.98,16.96 37.42,25.48 80.08,53.8 160.39,107.28 240.33,161.28 0.44,56.52 0.1,113.09 0.16,169.64 -1.84,39.28 -23.15,75.37 -51.34,101.83 -21.67,20.34 -47.29,36.5 -74.76,47.79 0.2,-100.45 -0.04,-200.88 0.11,-301.32 -0.38,-2.35 1.03,-5.88 -1.59,-7.26 -48.6,-32.73 -97.37,-65.19 -145.97,-97.9 -1.41,-0.92 -2.93,-1.59 -4.54,-2.01 0.1,200.54 0.16,401.09 -0.04,601.64 6.53,0.84 13.07,-0.46 19.61,-0.67 37.65,-2.89 75.01,-9.58 111.29,-20.01 53.66,-15.47 104.62,-39.97 150.46,-71.84 39.81,-27.63 75.27,-62.02 101.89,-102.67 28.7,-43.69 46.23,-95.2 46.94,-147.66 -0.13,-83.49 0.17,-167 -0.15,-250.48 -12.12,-8.98 -25.04,-16.96 -37.48,-25.54 -83.51,-55.96 -166.97,-111.97 -250.5,-167.91 -1.93,-1.75 -5.88,-2.49 -5.54,-5.7 -0.06,-16.43 -0.23,-32.88 0.1,-49.3 47.36,-31.23 94.07,-63.43 141.53,-94.47 0.03,48.43 0.05,96.85 -0.02,145.28 0.25,2.14 -0.71,5.23 1.77,6.41 49.78,33.42 99.64,66.72 149.35,100.2l0.83 -0.8c0.31,-117.99 -0.14,-235.98 0.21,-353.96 23.91,-15.69 47.51,-31.82 71.43,-47.44 0.31,-60.79 -0.01,-121.59 0.18,-182.38 -5.98,3.05 -11.15,7.38 -16.84,10.87z"/>
   <path class="fil1" d="M459.96 143.14c1.79,0.89 3.54,1.85 5.2,2.97 159.13,106.66 318.29,213.27 477.38,319.95 6.33,4.58 13.43,8.31 19.36,13.31 0.43,77.98 0.15,156 0.14,233.99 -92.94,61.91 -185.5,124.39 -278.36,186.41 -0.22,140.59 0.16,281.2 -0.19,421.79 -51.92,-35.38 -97.03,-82.47 -124.37,-139.47 -14.4,-29.53 -23.3,-61.71 -26.35,-94.4 -1.71,-19.81 -1.02,-39.68 -1.15,-59.52 -0.05,-218.45 0.11,-436.89 -0.08,-655.34 -22.78,-15.01 -45.37,-30.3 -68.08,-45.4 -1.5,-1.15 -4,-2.06 -3.5,-4.46 -0.02,-59.93 -0.02,-119.88 0,-179.83zm1063.31 10.99c5.69,-3.49 10.86,-7.82 16.84,-10.87 -0.19,60.79 0.13,121.59 -0.18,182.38 -23.92,15.62 -47.52,31.75 -71.43,47.44 -0.35,117.98 0.1,235.97 -0.21,353.96l-0.83 0.8c-49.71,-33.48 -99.57,-66.78 -149.35,-100.2 -2.48,-1.18 -1.52,-4.27 -1.77,-6.41 0.07,-48.43 0.05,-96.85 0.02,-145.28 -47.46,31.04 -94.17,63.24 -141.53,94.47 -0.33,16.42 -0.16,32.87 -0.1,49.3 -0.34,3.21 3.61,3.95 5.54,5.7 83.53,55.94 166.99,111.95 250.5,167.91 12.44,8.58 25.36,16.56 37.48,25.54 0.32,83.48 0.02,166.99 0.15,250.48 -0.71,52.46 -18.24,103.97 -46.94,147.66 -26.62,40.65 -62.08,75.04 -101.89,102.67 -45.84,31.87 -96.8,56.37 -150.46,71.84 -36.28,10.43 -73.64,17.12 -111.29,20.01 -6.54,0.21 -13.08,1.51 -19.61,0.67 0.2,-200.55 0.14,-401.1 0.04,-601.64 1.61,0.42 3.13,1.09 4.54,2.01 48.6,32.71 97.37,65.17 145.97,97.9 2.62,1.38 1.21,4.91 1.59,7.26 -0.15,100.44 0.09,200.87 -0.11,301.32 27.47,-11.29 53.09,-27.45 74.76,-47.79 28.19,-26.46 49.5,-62.55 51.34,-101.83 -0.06,-56.55 0.28,-113.12 -0.16,-169.64 -79.94,-54 -160.25,-107.48 -240.33,-161.28 -12.44,-8.52 -25.31,-16.56 -37.42,-25.48 -0.28,-76.16 0,-152.32 -0.15,-228.48 0.43,-2.01 -0.86,-5.11 1.23,-6.38 161.26,-107.99 322.48,-216.06 483.76,-324.04zm-839.54 321.7l0 0c-0.1,80.3 -0.3,160.63 0.09,240.92 45.19,-30.58 90.62,-60.78 135.9,-91.2 1.94,-1.75 6.01,-2.51 5.58,-5.82 0,-16.47 0.2,-32.95 -0.13,-49.41 -47.24,-31.34 -94.09,-63.33 -141.44,-94.49z"/>
  </g>
 </g>
</svg>
