<?xml version="1.0" encoding="UTF-8"?>
<!DOCTYPE svg PUBLIC "-//W3C//DTD SVG 1.1//EN" "http://www.w3.org/Graphics/SVG/1.1/DTD/svg11.dtd">
<!-- Creator: CorelDRAW -->
<svg xmlns="http://www.w3.org/2000/svg" xml:space="preserve" width="2000px" height="1600px" version="1.1" style="shape-rendering:geometricPrecision; text-rendering:geometricPrecision; image-rendering:optimizeQuality; fill-rule:evenodd; clip-rule:evenodd"
viewBox="0 0 2000 1600"
 xmlns:xlink="http://www.w3.org/1999/xlink">
 <defs>
  <style type="text/css">
   <![CDATA[
    .fil1 {fill:#040606;fill-rule:nonzero}
    .fil5 {fill:#302448;fill-rule:nonzero}
    .fil4 {fill:#524661;fill-rule:nonzero}
    .fil2 {fill:#706C79;fill-rule:nonzero}
    .fil3 {fill:#A099A9;fill-rule:nonzero}
    .fil6 {fill:#CEC8D2;fill-rule:nonzero}
    .fil0 {fill:#FEFEFE;fill-rule:nonzero}
    .fil7 {fill:#FFC422;fill-rule:nonzero}
   ]]>
  </style>
 </defs>
 <g id="Capa_x0020_1">
  <metadata id="CorelCorpID_0Corel-Layer"/>
  <g id="Prairie_x0020_View_x0020_A_x0026_M_x0020_Panthers.cdr">
   <path class="fil0" d="M1377.48 402.63c0.68,5.28 0.75,10.68 0.94,16.02l-1.41 0.1c-2.72,0.19 -5.42,0.43 -8.1,0.73 -3.95,0.44 -7.9,0.8 -11.84,0.59 -2.55,-3.87 -5.25,-7.63 -8.12,-11.25 1.29,0.06 2.59,0.09 3.91,0.13 5.91,-0.43 12.01,-0.06 16.76,3.89 1.93,1.47 3.86,2.98 5.8,4.51 1.49,-4.76 2.02,-9.76 2.06,-14.72zm-37.25 475.26c3.81,4.95 6.87,10.44 9.06,16.31 0.36,2.29 -0.41,4.14 -2.38,5.51 -1.34,-0.11 -4.02,-0.32 -5.36,-0.43 -0.7,-7.12 -1.28,-14.23 -1.32,-21.39zm-37.06 0.76c7.01,5.51 10.56,14.66 6.99,23.2l-0.51 2.24c-2.57,-2.09 -5.5,-3.81 -7.44,-6.49 -1.13,-6.29 0.45,-12.69 0.96,-18.95zm-23.56 16.12c0.12,-6.18 2.55,-11.99 6.1,-16.94 2.47,4.04 6.12,7.93 5.81,13.03 0.1,4.72 -0.47,9.5 -2.9,13.65 -3.17,-3.1 -6.53,-6.06 -9.01,-9.74zm39.12 -18.62c4.43,-0.2 7.1,2.97 9.38,6.33l0.25 2.36c0.49,5 1.3,9.99 1.52,15.02l-1.54 2.87c-2.1,-2.47 -6.06,-4.13 -5.7,-7.89 -0.34,-6.13 -0.76,-12.38 -3.61,-17.93l-0.3 -0.76zm35.72 -22.59c1.73,-5.88 2.54,-12.05 5.3,-17.58 1.96,11.78 -0.06,23.79 -2.76,35.28 -1.75,5.87 -3.32,12.14 -7.6,16.77 -1.48,-2.87 -2.89,-5.74 -4.31,-8.61 3.38,-8.53 6.87,-17.03 9.37,-25.86zm-119.67 -1.06c-6.5,-4.14 -5.86,-12.42 -2.44,-18.37 2.15,1.96 4.29,3.98 6.38,6.08l-0.43 1.55c-1.06,3.62 -2.25,7.19 -3.51,10.74zm29.82 -20.41c3.23,17.18 3.84,35.7 -2.6,52.28 -1.44,4.13 -4.53,7.32 -7.72,10.17 -4.29,-2.04 -8.12,-4.85 -10.9,-8.72 10.97,-16.16 17.26,-34.76 21.22,-53.73zm-38.05 -10.82c-0.29,-4.47 4.05,-6.68 7.04,-9.02 0.79,4.38 0.39,8.85 -0.53,13.2l-0.12 -1.21c-0.03,-0.4 -0.09,-1.19 -0.11,-1.59 -2.11,-0.45 -4.23,-0.85 -6.28,-1.38zm568.65 -24.86c30.7,0.13 61.43,-0.24 92.13,0.21 5.26,0.47 10.48,1.58 15.38,3.64 -10.46,1.63 -21.16,1.49 -31.41,4.51 -25.37,4.8 -51.07,7.97 -76.14,14.31 0.08,-7.57 0,-15.12 0.04,-22.67zm-373.87 27.53c3.12,-9.24 5.38,-18.77 9.25,-27.74 84.71,0.46 169.44,0.06 254.16,0.21 -0.11,11.91 0.3,23.84 -0.17,35.74 -0.77,2.32 -1.62,4.64 -2.43,6.96 -13.12,0.1 -25.64,4.72 -38.63,5.99 -42.83,7.64 -85.67,15.37 -128.58,22.56 -21.07,4.51 -42.49,6.95 -63.53,11.68 -16.25,2.18 -32.22,6.14 -48.59,7.52l-0.41 -1.1c5.53,-20.73 12.7,-41.21 18.93,-61.82zm-354.7 -27.55c34.39,-0.13 68.79,0.3 103.18,-0.21 9.01,23.64 15.84,48.09 24.04,72.04 5.96,18.6 12.25,37.08 17.82,55.81 -18.09,-0.13 -35.47,5.44 -53.24,7.95 -20.05,2.64 -39.72,7.36 -59.77,9.87 0.04,-18.16 -0.07,-36.34 0,-54.5 -10.68,-0.28 -21.37,-0.11 -32.03,-0.13 -0.04,-30.27 -0.06,-60.55 0,-90.83zm-237.29 72.29c6.14,-24.09 11.5,-48.39 18.07,-72.36 32.58,0.11 65.17,0.2 97.75,-0.06 15.24,58.79 28.66,118.05 43.42,176.95 -8.91,-4.74 -18.05,2.21 -27.3,2.09 -15.36,3.59 -31.6,3.04 -46.21,9.61 -6.08,-27.88 -12.37,-55.71 -18.31,-83.63 -6.35,26.41 -11.99,52.99 -17.97,79.48 -18.2,-0.93 -35.63,5.02 -53.43,7.61 -8.7,1.26 -17.24,3.66 -26.05,4.02 9.4,-41.38 20.14,-82.44 30.03,-123.71zm-204.07 -72.23c48.02,-0.15 96.05,0.04 144.06,-0.08 0.98,30.25 0.13,60.55 0.45,90.83 -10.49,0.04 -20.99,-0.02 -31.47,0.02 -9.63,39.49 -19.2,79.25 -28.73,118.59l-1.29 0.42c-14.02,-0.72 -27.67,2.71 -41.21,5.79 -10.97,0.87 -21.48,4.31 -32.43,5.12 -3.19,0.26 -6.12,1.66 -8.85,3.23 9.55,-44.43 19.93,-88.68 29.5,-133.1 -10.1,-0.17 -20.22,0.04 -30.32,-0.17 0.25,-30.22 -0.34,-60.45 0.29,-90.65zm-243.84 4.08c-0.85,-3.74 3.33,-4.27 5.95,-4.12 46.23,-0.13 92.45,0.19 138.68,-0.15 0.57,30.3 0.08,60.64 0.25,90.94 -9.69,0.02 -19.37,0 -29.08,0 10.86,49.8 21.98,99.52 32.85,149.31 -0.68,1.03 -2.04,3.11 -2.72,4.15 -23.8,4.12 -47.93,6.66 -71.24,13.35 -0.8,-0.66 -2.38,-2 -3.18,-2.67 -13.55,-54.72 -26.75,-109.55 -40.49,-164.24 -10.27,0.17 -20.54,0.14 -30.81,0.04 -0.34,-28.88 0.51,-57.75 -0.21,-86.61zm-325.03 -2.93c6.35,-1.89 12.99,-1.11 19.5,-1.21 58.51,0.02 116.99,0 175.5,0.02 26.69,0.1 53.35,9.4 73.66,26.87 26.7,22.67 42.52,55.63 50.45,89.23 7.72,34.06 9.15,69.65 3.55,104.14 -25.42,1.85 -50.03,9.49 -75.37,12 -8.74,0.87 -16.86,5.1 -25.75,4.93 15.09,-17.88 21.13,-41.91 20.37,-64.96 -0.09,-21.94 -6.23,-44.91 -21.56,-61.2 -12.25,-13.11 -30.15,-19.83 -47.89,-20.13 -18.35,-0.26 -36.72,0.02 -55.07,-0.11 0.02,53.76 -0.09,107.53 0.02,161.3 -14.9,2.51 -29.55,6.36 -44.52,8.51 -13.17,2.72 -28.01,1.59 -39.32,10.04 0.06,-59.73 0.19,-119.48 -0.08,-179.19 -10.81,-1.61 -22.24,-0.1 -33.28,-0.7 -0.13,-29.85 0.26,-59.69 -0.21,-89.54zm1377.52 -93.18c3.61,-1.21 7.25,-2.38 10.92,-3.46 -3.91,13.31 -10.54,25.98 -19.3,36.72 2.32,-11.19 6.19,-22.01 8.38,-33.26zm-130.86 -5.48c4.42,-1.53 8.85,-3 13.35,-4.4 0.17,1.23 0.52,3.68 0.69,4.91 -1.83,2.36 -3.9,4.51 -5.83,6.78 -2.72,-2.47 -5.46,-4.89 -8.21,-7.29zm136 -0.34c4.06,-5.89 6.74,-13.33 13.14,-17.18 -1.13,7.42 -5.97,14.5 -13.14,17.18zm-97.73 -12.53c6.11,-2.29 12.3,-4.4 18.61,-6.21 -1.55,6.92 -3.23,13.87 -3.13,21.01l-0.06 1.56c-6.15,14.33 -13.63,28.25 -24,40.01 -2.51,-4.99 -0.81,-10.39 0.36,-15.44 3.23,-13.54 5.42,-27.3 8.22,-40.93zm86.53 13.17c5.22,-7.6 7.18,-17.08 13.2,-24.08 6.49,10.06 -4.4,20.36 -13.2,24.08zm-9.68 -0.17c3.78,-8.38 0.72,-20.35 9.53,-25.71 5.55,9.33 -1.96,20.11 -9.53,25.71zm-17.26 -21.27c1.55,-3.17 5.37,-3.89 8.29,-5.25 0.42,3.83 1.93,7.99 0.13,11.69 -2.02,4.98 -6.87,7.79 -11.04,10.76 0.06,-5.82 0.91,-11.65 2.62,-17.2zm-21.61 0.89c3.19,-2.89 7.34,-4.33 11.17,-6.14 1.44,5.81 -0.71,11.5 -2.7,16.9l-0.3 0.39c-3.23,1.27 -6.42,2.59 -9.59,3.91 0.29,-5 -0.47,-10.33 1.42,-15.06zm-306.02 -266.1c4.83,-0.83 9.68,-1.58 14.59,-1.83 2.25,0.27 4.53,0.64 6.78,1.02 7.04,2.14 14.1,4.17 21.12,6.35 -4.45,0.3 -8.91,0.49 -13.34,0.73 -1.51,0.12 -4.55,0.32 -6.06,0.44 -3.08,0.26 -6.16,0.58 -9.2,0.83 -3.85,-1 -7.28,-3 -10.51,-5.21 -0.83,-0.59 -2.53,-1.74 -3.38,-2.33z"/>
   <path class="fil1" d="M903.14 207.48c23.96,-1.25 45.31,-14.82 69.28,-15.99 30.74,-2.19 60.94,5.29 90.68,12.03 47.64,11.21 94.86,24.24 141.75,38.32 26.85,8.46 54.92,14.82 78.91,30.22 46.69,28.93 82.28,71.68 118.26,112.39 -7,-2.42 -14.07,-5.46 -21.6,-5.23 -9.68,0.17 -18.59,5.62 -28.33,4.77 -4.93,-0.49 -8.71,-4.45 -10.31,-8.93 -3.17,-8.55 -2.29,-17.87 -3.1,-26.8 -7.95,9.4 -14.87,20.63 -15.35,33.26 -0.47,12.1 2.06,24.05 3.5,36.04 6.92,-5.78 14.08,-11.37 22.37,-15.07 -3.65,4.5 -8.44,8.82 -8.89,14.96 0.52,4.68 5.04,7.34 9.26,8.19 6.16,0.7 12.43,-0.08 18.54,1.32 2.31,0.62 4.65,1.25 6.99,1.87 2.98,0.74 6,1.32 9.04,1.91 5.85,-10.97 6.67,-24.45 1.12,-35.72 4.94,-1.06 10.02,-1.68 15.1,-1.11 -1.89,4.45 -4.78,9.15 -3.27,14.21 2.7,10.55 6.19,21.5 3.78,32.47 10.74,8.34 21.67,17.27 27.82,29.75 11.97,25.47 42.01,36.27 53.35,62.13 1.87,8.42 9.2,13.52 13.71,20.43 1.61,2.47 3.25,4.96 4.74,7.53 4.79,8.08 8.19,17.01 9.51,26.34 -5.7,-1.57 -11.32,-3.35 -17.01,-4.89 5.03,4.24 10.61,7.74 16.49,10.72 0,1.55 0.01,4.64 0.01,6.19 -0.49,4.44 -2.6,8.5 -4.17,12.61 -7.17,-3.85 -14.78,-6.79 -21.9,-10.7 6.03,-2.53 12.42,-4.04 18.88,-5.08 -4.34,-2.53 -8.55,-5.27 -12.59,-8.21 1.94,-7.14 2.25,-14.82 -1.93,-21.26 -5.17,6.89 -9.77,14.16 -14.97,21.03 -1.71,2.68 -4.72,5.48 -3.07,8.91 3.92,12.78 13.19,22.92 18.7,34.98 -8.15,9.5 -17.93,17.62 -25.06,27.96 -3.88,5.38 -4.37,12.1 -5.48,18.39 -0.32,0.87 -0.98,2.63 -1.3,3.49 -5.1,-1.41 -11.03,-1.75 -14.09,-6.7 -2.32,-3.89 -6.96,-2.02 -10.51,-1.68 -6.06,-3.04 -12.76,-2.98 -18.31,1.11 -2.87,-1.43 -5.38,-4.17 -8.74,-4.13 -3.33,0.79 -6.46,2.1 -9.63,3.27 -6.74,-2.68 -14.39,-1.7 -20.96,0.9 -4.41,3.53 -5.25,10.03 -4.85,15.33 1.91,3.93 5.72,6.4 8.87,9.25 3.4,-2.38 6.67,-5 9.1,-8.42l0.3 -0.39c0.89,-1.14 2.69,-3.4 3.57,-4.54 1.14,4.16 -0.02,9.71 3.7,12.77 6.23,-0.29 11.2,-4.36 15.03,-8.93 -1.91,7.45 3.8,14.19 11.5,13.48 -1.47,20.54 -10.25,39.38 -16.5,58.71 9.14,-4.76 16.69,-11.97 22.95,-20.09l0.95 -1.17c43,0.3 85.99,-0.45 128.99,-0.17 94.98,0.51 189.98,0.17 284.96,0.28 52.04,-0.13 104.09,0.23 156.14,-0.18 1.43,5.72 0.75,11.64 0.87,17.5 0.02,62.16 -0.02,124.35 0.02,186.53 -10.73,0.21 -21.45,0.06 -32.15,0.1 -0.02,56.12 0,112.25 0,168.39 0.54,36.78 -1.4,73.89 -10.6,109.65 -8.89,35.87 -24.12,70.38 -46.38,100 -22.77,30.62 -53.58,55.46 -88.94,70 -45.17,18.73 -96.63,19.95 -143.38,6.42 -32.39,-9.31 -62.05,-27.05 -86.44,-50.24 0.09,20.3 0.05,40.57 0.04,60.87 -214.12,-0.15 -428.22,0.22 -642.32,0 -9.22,-40.21 -17.71,-80.6 -27.09,-120.79 -17.84,0.21 -35.67,-0.02 -53.5,0.12 -8.94,39.75 -17.58,79.59 -26.6,119.31l-1.48 1.26c-119.48,0.28 -238.96,-0.02 -358.42,0.15 -25.07,-100.79 -49.8,-201.69 -74.35,-302.62 -10.04,15.58 -20.08,31.36 -33.39,44.46 -27.24,27.92 -63.85,46.84 -102.68,51.52 -13.9,2.11 -27.96,1.42 -41.95,1.55 0,1.7 0.02,5.11 0.02,6.81 10.74,0.02 21.46,0 32.19,0.02 -0.14,66.08 0.13,132.17 -0.14,198.24 -87.1,-0.07 -174.21,-0.07 -261.31,0 -0.34,-66.07 -0.02,-132.16 -0.15,-198.26 10.8,0.02 21.61,-0.02 32.41,0.04 0.21,-88.97 0.06,-177.95 0.08,-266.92 -11.14,-0.02 -22.26,0.13 -33.4,-0.1 0.08,-62.16 0,-124.35 0.04,-186.53 0.1,-5.84 -0.57,-11.76 0.89,-17.48 82.25,0.43 164.5,0.01 246.76,0.2 4.36,0.02 8.74,-0.02 13.04,-0.83 58.83,-12.38 114.9,-38.75 160.73,-77.81 27.45,-23.11 51.15,-50.48 71.06,-80.29 35.51,-52.47 73.1,-103.53 112.42,-153.22 -36.53,-11.54 -66.66,-36.4 -100.79,-52.99 -11.72,-5.61 -24.56,-8.86 -35.72,-15.63 -2.09,-1.19 -5.28,-4.38 -2.79,-6.71 4.51,-3.85 10.76,-4.43 16.35,-5.68 19.37,-3.04 37.17,-11.67 54.97,-19.42 67.72,-31.21 133.34,-66.74 201.26,-97.49 21.38,-9.44 42.82,-19.01 65.42,-25.13 6.3,-1.42 12.82,-3.45 19.35,-2.34 26.47,4.02 53.31,7.15 80.12,5.21zm-6.53 772.28c10.49,49.99 21.9,99.79 32.35,149.78 -21.91,-0.04 -43.85,-0.02 -65.77,-0.02 10.93,-49.97 21.98,-99.9 33.42,-149.76zm-705.79 -75.7c16.71,0.56 33.68,-1.57 50.18,1.79 17.33,3.62 30.75,17.99 35.87,34.57 6.55,21.08 6.47,44.64 -1.72,65.28 -6.48,16.33 -20.79,30.56 -38.83,32.6 -15.13,1.3 -30.36,0.28 -45.52,0.57 -0.02,-44.93 -0.04,-89.88 0.02,-134.81zm40.91 39.96l0 0c-0.12,18.31 -0.1,36.63 -0.02,54.96 8.74,-8.07 9.81,-21.18 9.17,-32.36 -0.85,-8.12 -1.47,-17.84 -9.15,-22.6zm1249.97 -326.69c0.12,-5.27 0.59,-10.51 1.44,-15.71 6.34,4.84 12.69,9.67 19.12,14.39 -0.54,0.6 -1.64,1.83 -2.19,2.43 -2.62,2.95 -5.36,5.82 -8.04,8.69 -3.43,-3.29 -6.85,-6.59 -10.33,-9.8zm-303.96 6.57c42.48,-8.74 85.03,-17.2 127.45,-26.16 5.12,4.22 10.78,8.25 14.07,14.15 1.85,4.59 -3.93,6.04 -6.78,7.9 -4.63,1.84 -7.42,6 -10.84,9.34 -3.62,2 -7.66,3.47 -11.8,3.68 -37.47,-1.38 -74.92,-3.96 -112.1,-8.91zm-78.47 -225.18c2.92,0.45 5.85,0.91 8.77,1.43 -2.51,3.61 -4.92,7.27 -7.57,10.76 -0.96,0.19 -2.88,0.57 -3.85,0.76 0.87,-4.32 1.76,-8.63 2.65,-12.95zm-334.45 -159.07l0 0c-14.41,7.25 -27.11,17.35 -41.27,25.07 -44.67,25.2 -92.32,44.8 -140.76,61.47 -32.79,10.98 -66,21.01 -99.85,28.22 6.57,0.02 13.12,-0.43 19.64,-1.34 29.73,-3.23 59.44,-6.53 89.06,-10.74 14.71,-2.1 27.79,-9.61 41.01,-15.92 64.66,-33.26 126.18,-72.34 191.37,-104.58 -20.73,1.55 -40.82,8.32 -59.2,17.82zm243.43 44.61l0 0c5.78,3.81 12.78,4.77 19.26,6.89 11.67,3.38 22.82,8.76 32.32,16.4 11.99,9.31 20.92,22.47 34.7,29.46 12.4,6.98 27.35,6.28 39.93,12.85 13.68,6.1 22.29,18.82 33.03,28.64 -8.19,0.77 -14.67,8.31 -23.22,6.06 -25.67,-5.49 -50.04,-20.41 -77.1,-17.03 -13.95,1.47 -22.56,14.88 -36.06,17.48 -15.53,2.99 -31.01,6.91 -45.55,13.26 26.28,-8.03 54.22,-9.94 81.44,-6.44 -1.56,13 -4.06,26.37 -0.64,39.32 1.78,7.95 7.12,14.48 13.33,19.5 14.4,11.54 34.91,9.33 50.5,1.53 11.89,-6.27 19.73,-18.27 23.65,-30.85 5.23,2.8 10.29,6.03 15.81,8.31 20.12,7.97 42.23,6.85 63.39,5.48 6.17,-0.16 10.02,-5.78 12.55,-10.75 2.46,-6.43 -2.7,-11.96 -6.47,-16.53 -13.67,-15.45 -30.09,-28.11 -46.71,-40.18 -5.83,-4.24 -10.38,-10.02 -16.55,-13.82 -24.62,-15.25 -49.43,-30.24 -74.95,-43.96 -16.86,-9.35 -35.59,-14.56 -54.18,-19.22 -12.67,-2.83 -25.43,-6.14 -38.48,-6.4zm134.13 -1.19l0 0c3.7,5.21 8.35,9.61 13.11,13.86 21.82,19.87 44.7,38.6 68.68,55.82 9.96,7 18.52,16.39 23.27,27.71 3.27,6.91 4.55,14.82 9.25,21 3.76,5.06 10.71,4.41 16.26,3.94 3.75,-0.43 8.34,-1.28 10.25,-5 0.64,-7.23 -4.93,-12.99 -8.74,-18.56 -11.33,-13.82 -22.24,-28.26 -36.3,-39.44 -27.91,-22.91 -59.62,-40.51 -91.21,-57.74 -1.13,-0.4 -3.43,-1.19 -4.57,-1.59zm113.43 14.59l0 0c2.34,13.1 9.61,24.6 15.12,36.53 13.19,24.92 26.22,50.43 44.42,72.14 -0.64,-11.42 -0.76,-22.85 -0.93,-34.27 -2.2,-20.44 -18.16,-35.36 -31.88,-49.14 -9.01,-8.32 -17.28,-17.46 -26.73,-25.26zm-637.07 60.02l0 0c-16.28,3.02 -32.93,3.04 -49.18,6.08 2,1.17 4.15,2.03 6.47,2.32 18.3,2.92 36.91,4.49 54.81,9.61 10.59,2.92 21.06,6.96 32.17,7.42 13.96,0.66 27.82,-1.8 41.47,-4.44 11.97,-2.59 24.22,-4.29 35.72,-8.68 9.68,-3.57 13.84,-13.9 21.31,-20.24 3.57,-3.23 8.37,-6.36 8.82,-11.63 0.51,-2.47 -2.13,-4.14 -4.15,-4.66 -9.63,-2.5 -19.6,-0.44 -29.28,0.39 -39.78,5.91 -78.63,16.56 -118.16,23.83zm177.75 8.1l0 0c-6.43,7.32 -13.17,14.38 -20.12,21.21 1.94,-5.47 4.08,-10.93 5.1,-16.66 -12.93,8.43 -25.39,17.8 -39.69,23.91 -17.12,7.48 -36.24,9.73 -54.76,8.2 1.06,-0.98 3.17,-2.95 4.23,-3.93 -7.4,2.12 -14.8,4.7 -22.54,5.14 -6.71,0.67 -12.43,-3.84 -18.96,-4.23 -3.57,-0.25 -7.12,-0.12 -10.66,-0.04 0.17,-0.96 0.49,-2.89 0.66,-3.85 -15.14,0.64 -31.47,-0.83 -45.1,7.15 1.75,1.25 3.6,2.57 5.91,2.46 9.53,0.75 19.23,-0.74 28.67,1.26 6.55,1.29 12.08,5.44 18.56,6.91 16.69,3.42 33.6,-0.11 50.01,-3.36 -4.14,2.19 -8.29,4.32 -12.29,6.72 13.67,-0.64 26.5,-5.74 39.81,-8.13 -2.94,2.94 -5.96,5.83 -8.66,9 15.1,-3.68 28.11,-12.71 41.98,-19.37 -3.28,6.29 -7,12.67 -7,19.99 7.36,-4.36 10.78,-12.51 15.56,-19.2 1.35,9.12 -1.19,19.85 3.94,27.81 3.66,-11.93 4.1,-24.75 9.18,-36.25 2.34,0.61 4.51,1.89 5.13,4.4 3.76,8.71 3.91,18.41 7.06,27.3 0.57,2.19 2.3,3.68 4,5.04 1.91,-12.53 0.91,-25.6 6.46,-37.41 5.72,2.47 11.29,5.4 17.24,7.34 -4.59,-5.65 -10.65,-11.67 -8.46,-19.73 2.02,1.66 4.02,3.34 6.04,5.02 2.45,-0.22 4.95,-0.47 7.44,-0.7 -1.25,-5.09 -2.34,-10.53 0.09,-15.48 2.27,-4.24 -1.02,-9.89 -5.64,-10.51 -8.9,-1.51 -17.54,3.44 -23.19,9.99zm485.46 74.58l0 0c9.72,1.4 19.88,2.18 28.64,7.12 22.82,12.22 36.72,35.13 56.33,51.29 5.21,4.53 12.37,5.38 18.98,6.18 17.69,1.56 35.47,-0.08 53.06,-2.15 -15.08,-5.23 -31.86,-7.48 -44.28,-18.45 -14.33,-10.76 -20.28,-30.64 -37.61,-37.62 -16.18,-5.08 -33.38,-5.33 -50.16,-6.54 -8.31,-0.28 -16.76,-1.66 -24.96,0.17zm-309.13 2.21l0 0c19.29,12.82 32.85,33.34 37.62,55.96 5.82,19.9 -1.28,41.53 7.12,60.9 4.74,9.08 15.56,12.16 25.01,13.33 18.15,1.87 36.48,-0.25 54.66,1.45 25.24,0.76 50.16,5.38 75.38,6.86 47.44,4.75 94.96,-2.1 141.97,-8.07 -30.95,-0.47 -61.91,0.63 -92.83,1.59 -32.32,0.62 -64.62,-0.72 -96.85,-2.98 4.63,-2.08 9.4,-4.16 13.16,-7.69 19.22,-17.57 27.92,-43.21 45.5,-62.11 14.14,-13.55 31.75,-22.56 48.48,-32.45 -13.14,0.53 -26.22,2.63 -38.85,6.19 -21.24,7.27 -36.91,24.64 -57.43,33.34 -18.18,7.99 -29.49,27.81 -49.69,31.61 -18.63,-1.87 -34.72,-12.9 -50.8,-21.64 12.74,-4.1 25.39,-10.99 39.23,-9.15 8.57,0.56 19.78,3.96 25.88,-4.25 8.36,-11.16 19.05,-20.33 31.05,-27.4 -20.52,6.2 -41.68,-0.01 -62.52,0.12 -8.78,-0.51 -17.52,1.62 -26.26,0.77 -7.53,-3.02 -11.69,-10.55 -18.16,-15.03 -15.48,-10.74 -33.83,-16.02 -51.67,-21.35zm-322.86 26.17l0 0c-13.88,11.4 -23.94,28.45 -24.13,46.7 0.1,15.18 -1.47,30.34 -0.03,45.48 0.39,22.92 7.04,45.1 8.53,67.91 1.79,16.08 0.81,32.28 0.89,48.44 6.64,-19.69 12,-39.8 15.93,-60.2 5.87,-26.58 0.85,-54.52 9.61,-80.63 2.55,-9.73 9.38,-17.3 13.91,-26.06 5.04,-9.55 3.27,-20.86 0.61,-30.84 -2.82,-10.71 -1.29,-21.81 0.47,-32.53 -8.59,7.25 -17.09,14.61 -25.79,21.73zm-63.85 37.85l0 0c-2.07,0.96 -3.49,4.15 -2.02,6.15 2.85,0.97 5.08,-5.58 2.02,-6.15zm286.71 56.26l0 0c-4.97,6.6 -10.84,13.78 -10.5,22.54 0.7,8.13 4.72,15.44 8.39,22.56 5.79,11.27 13.23,21.58 21.37,31.24 6.9,8.57 14.95,16.62 18.76,27.19 2.4,7.36 10.1,10.44 16.44,13.61 13.97,6.28 28.45,11.93 40.69,21.39 15.29,11.76 28.18,26.3 40.7,40.89 0.79,-0.64 2.38,-1.95 3.17,-2.61 13.44,0.12 26.86,0.12 40.31,0.02 -3.18,-9.63 -9.39,-17.71 -15.79,-25.39 -9.21,-11.04 -16.33,-23.79 -26.86,-33.68 -10.57,-10.4 -23.73,-17.58 -34.68,-27.52 -10.52,-9.24 -18.43,-20.9 -25.96,-32.59 -8.06,-12.4 -18.14,-23.28 -28.33,-33.9 -5.88,-6.03 -10.12,-13.71 -11.24,-22.11 -2.64,-17.01 -2.09,-34.34 -1.36,-51.48 -11.59,16.69 -22.59,33.81 -35.11,49.84zm-340.68 31.28l0 0c-22.45,21.71 -44.69,43.7 -64.81,67.6 -6.95,7.99 -12.8,17.16 -21.56,23.37 -19.2,14.14 -40.4,25.21 -61.28,36.61 21.31,5.04 44.16,6.1 65.38,0.09 10.29,-3.02 19.84,-8.7 26.94,-16.78 16.65,-18.65 35.94,-34.64 54.76,-51.01 12.07,-10.68 23.92,-22.29 30.93,-37.04 5.23,-10.48 7.55,-22.09 8.74,-33.66 2.34,-22.29 6.06,-44.48 11.85,-66.17 -13.21,27.87 -28.6,55.37 -50.95,76.99zm850.77 -71.44l0 0c0.23,7.86 6.25,13.56 11.54,18.64 9.65,9.11 22.84,12.46 34.57,17.99 4.34,2.19 9.72,3.68 12.06,8.36 -3.49,1.81 -12.05,0.23 -11.18,5.85 6.71,7.33 15.88,11.9 22.62,19.28 8.89,0.28 14.74,-7.46 18.92,-14.29 7.26,-12.48 12.49,-27.57 8.94,-42.05 -1.47,-4.22 -2.85,-9.85 -7.7,-11.27 -29.01,-9.62 -60.09,-7.06 -89.77,-2.51zm-85.65 30.68l0 0c-9.72,3.19 -19.95,0.25 -29.81,-0.57 -38.53,-5.17 -77.51,-0.34 -115.68,5.38 15.82,-0.05 31.62,-1.2 47.44,-1.34 27.58,-0.52 54.99,2.74 82.44,4.76 16.75,3.82 33.38,8.48 49.33,14.97 -10.74,8.23 -24.09,12.39 -37.25,14.67 1.91,1.28 3.91,2.61 5.84,3.93 -42.12,4.17 -84.09,10.85 -125.13,21.33 -7.42,1.62 -14.65,5.1 -22.41,4.36 -17.76,-1.49 -35.26,-5.4 -53.08,-6.23 15.27,3.38 30.6,6.59 45.7,10.57 -9.7,3.23 -19.35,6.63 -28.85,10.44 14.82,-0.17 28.91,-6.08 43.61,-7.49 8.46,0.77 16.73,2.83 25.15,4 27.28,4.64 54.99,6.27 82.65,6.32 2.72,-0.11 5.45,0.27 8.14,0.87 -24.38,10.48 -49.49,20.45 -70.86,36.48 30.55,-11.99 60.85,-24.66 91.34,-36.84 -5.08,9.18 -13.41,16.37 -23.62,19.13 26.53,1.64 55.07,5.59 79.78,-6.72 18.75,-9.12 36.42,-20.73 51.77,-34.89 6.53,-6.4 14.21,-14.65 11.62,-24.66 -3.79,-11.51 -15.02,-18.1 -24.9,-23.93 -17.36,-10.07 -36.26,-21.43 -57.22,-18.9 -11.98,1.72 -24.35,0.62 -36,4.36zm-453.53 75.36l0 0c-3.87,13.75 -7.78,27.57 -9.69,41.74 -1.32,9.73 2.12,19.35 6.78,27.75 9.7,16.73 25.9,29.49 44.48,34.91 7.74,2 14.84,6.95 23.07,6.65 14.46,-0.06 28.92,-0.04 43.4,-0.02 -15.48,-16.31 -35.28,-27.3 -53.11,-40.65 -12.68,-9.04 -18.4,-24.24 -29.73,-34.56 -6.27,-6.35 -13.44,-11.88 -18.61,-19.2 -3.53,-4.93 -4.99,-10.9 -6.59,-16.62zm483.87 54.17l0 0c1.13,23.71 -2.87,47.29 -6.32,70.66 4,-3.38 8.44,-7.12 11.47,-11.12 10.37,-11.76 17.85,-25.68 24,-40.01l0.06 -1.56c3.73,-8.38 9.17,-18.52 5.06,-27.58 -11.05,4.45 -22.7,6.98 -34.27,9.61zm-107.34 51.66l0 0c-8.72,32.82 -13.1,66.7 -14.5,100.57 6.32,-26.11 12.72,-52.25 21.35,-77.74 9.31,-26.43 18.77,-54.07 37.87,-75.25 -7.02,-1.74 -14.03,-3.68 -20.41,-7.15 -11.29,18.38 -18.61,38.87 -24.31,59.57zm51.78 -38.19l0 0c-4.17,7.59 6.08,10.8 10.65,14.58 5.45,-1.89 8.38,-8.14 13.52,-10.97 4.04,3.76 9.04,8.23 15.06,6.25 1.93,-2.27 4,-4.42 5.83,-6.78 3.21,-3.64 4.86,-8.25 6.1,-12.85 -3.28,-2.02 -7.1,-2.21 -10.74,-1.36 -13.74,2.51 -27.68,5.21 -40.42,11.13zm-1232.34 83.24l0 0c-0.02,41.46 0.05,82.89 -0.02,124.35 11.08,0.13 22.16,0.06 33.24,0.06 0.12,115.35 0.04,230.67 0.04,346.02 -10.86,0.02 -21.69,0 -32.53,0.02 0.06,39.7 -0.11,79.42 0.08,119.14 60.73,-0.04 121.46,-0.04 182.21,0 0.19,-39.72 0.02,-79.44 0.08,-119.16 -10.67,-0.07 -21.35,0.19 -32.02,-0.17 0.02,-28.58 0,-57.16 0,-85.73 20.94,-0.11 41.87,0.1 62.79,-0.11 35.47,-0.64 70.08,-16.59 94.35,-42.32 29.15,-30.59 44.69,-72.03 49.48,-113.52 4.48,-34.77 1.27,-70.1 -6.09,-104.23 2.64,0.02 5.3,0.08 7.96,0.12 38.14,155.02 76.1,310.09 114.29,465.1 41.82,0 83.65,-0.07 125.49,0.06 37.74,-155.03 75.02,-310.16 112.61,-465.2 11.65,0 23.31,-0.02 34.98,0.02 0,-41.5 0,-82.97 0,-124.47 -59.37,0.02 -118.73,-0.02 -178.1,0.02 -0.47,41.46 -0.09,82.97 0.02,124.41 8.57,0.02 17.12,0.02 25.69,-0.02 -19.35,86.95 -38.94,173.85 -58.35,260.79 -19.35,-86.88 -38.42,-173.85 -57.64,-260.77 8.31,0 16.62,0.02 24.92,0.02 0.06,-41.42 -0.17,-82.84 0.12,-124.26 -59.49,-0.42 -118.96,-0.08 -178.44,-0.17 0.05,21.05 0.05,42.12 0.02,63.17 -8.99,-12.43 -18.64,-24.56 -30.79,-34.06 -22.53,-18.52 -51.43,-28.96 -80.58,-29.15 -71.26,0.06 -142.53,-0.02 -213.81,0.04zm738.43 226.52l0 0c-19.3,79.29 -39.22,158.45 -58.15,237.81 -11.78,1.21 -23.65,0.29 -35.45,0.57 0.22,41.61 -0.38,83.22 0.3,124.8 41.85,-0.47 83.72,0.25 125.56,-0.34 9.68,-40 17.8,-80.38 27.2,-120.46 38.99,0.06 77.99,0.06 116.99,0 9.14,40.21 17.73,80.56 27.02,120.75 17.8,-0.19 35.62,-0.04 53.44,-0.1 52.31,0.66 104.63,-0.3 156.96,0.02 0.07,-44.8 0.02,-89.58 0.03,-134.36 0.19,-30.62 -0.6,-61.24 0.29,-91.84 22.54,75.38 46.27,150.42 68.89,225.79 25.93,0.92 51.93,0.17 77.91,0.41 0.83,-0.19 2.53,-0.55 3.36,-0.73 22.22,-71.52 43.7,-143.31 65.52,-214.97 0.67,-1.25 1.99,-3.74 2.65,-4.99 1.05,73.57 0.15,147.18 0.98,220.75 47.01,-0.17 94.01,0 141,-0.08 0.1,-41.53 -0.02,-83.04 0.06,-124.56 -10.99,-0.13 -22,-0.01 -32.98,-0.09 -0.06,-113.22 0.05,-226.45 -0.06,-339.68 10.5,-0.21 20.99,-0.06 31.51,-0.11 0.04,74.77 -0.09,149.55 0.06,224.31 0.56,57.77 12.79,117.67 46.93,165.38 16.23,22.76 37.79,41.87 62.82,54.42 32.1,16.31 69.25,21.69 104.84,17.26 43.06,-5.33 82.8,-29.21 109.53,-63.11 28.79,-35.97 44.46,-81.03 50.07,-126.4 3.9,-28.88 2.75,-58.07 2.92,-87.12 0.06,-61.83 -0.07,-123.63 0.08,-185.44 10.62,0 21.25,0.07 31.9,-0.06 -0.04,-41.46 0,-82.89 -0.02,-124.35 -60.71,-0.04 -121.42,-0.02 -182.14,-0.02 -0.02,41.48 0.02,82.95 -0.02,124.43 10.71,0.04 21.41,-0.02 32.14,0.04 0.01,76.93 0.09,153.85 -0.04,230.78 -0.87,27.19 -5.76,56.21 -23.53,77.8 -21.57,27.06 -67.88,29.55 -91.12,3.36 -20.5,-22.24 -25.69,-53.88 -26.66,-83.04 -0.05,-76.31 -0.05,-152.62 0,-228.92 10.89,0 21.81,-0.04 32.72,0.02 0.24,-41.48 0.04,-82.97 0.11,-124.45 -94.73,-0.06 -189.46,0.02 -284.19,-0.04 -38.38,121.75 -76.5,243.59 -114.84,365.35 -0.53,-0.88 -1.57,-2.66 -2.1,-3.52 -39.38,-120.6 -78.42,-241.31 -117.93,-361.85 -44.38,0.12 -88.77,0 -133.15,0.06 0.21,41.42 -0.41,82.88 0.3,124.28 10.59,0.43 21.2,-0.08 31.81,0.22 0,113.33 0,226.66 -0.02,340 -3.3,-0.07 -6.6,-0.11 -9.89,-0.19 -37.34,-154.1 -74.89,-308.15 -112.29,-462.22 -0.38,-0.49 -1.11,-1.49 -1.47,-1.98 -41.32,-0.39 -82.65,0.14 -123.96,-0.24 -19.04,75.44 -37.19,151.12 -55.89,226.65zm444.53 -192.31l0 0c0.24,13.72 -0.76,27.86 3.3,41.15 1.02,3.23 4.45,7.97 8.19,5.1 3.91,-4.97 6.4,-12.14 4.14,-18.31l0.43 -1.55c-2.09,-2.1 -4.23,-4.12 -6.38,-6.08 0.13,-3.3 0.42,-6.61 0.6,-9.89l0.12 1.21c0.92,-4.35 1.32,-8.82 0.53,-13.2 -2.12,-2.59 -7.8,-4.87 -4.89,-8.76 2.92,-4.32 2.7,-11.18 -3.5,-12.33 -3.39,7.08 -2.09,15.09 -2.54,22.66zm11.51 66l0 0c1.12,6.77 2.08,15.01 8.38,19.12 6.95,3.64 15.92,-0.42 19.01,-7.31 4.06,-8.76 6.42,-18.27 7.73,-27.8 0.88,-14.31 -2.08,-28.45 -3.97,-42.56 -9.95,19.73 -16.33,41.61 -31.15,58.55zm101.11 -11.22l0 0c-3.3,3.66 -3.54,8.63 -2.13,13.18 -1.23,1.74 -2.81,2.76 -4.79,3.06l-0.25 -2.36c-2.28,-3.36 -4.95,-6.53 -9.38,-6.33l0.3 0.76c-2.36,2.89 -4.42,5.98 -6.48,9.1 -2.56,-3.83 -5.58,-7.36 -9.62,-9.65 -5.48,3.53 -5.61,11.88 -11.41,14.5 0.31,-5.1 -3.34,-8.99 -5.81,-13.03 -1.23,-1.6 -2.36,-3.62 -4.72,-3.05 -4.79,5.64 -7.44,13.04 -8.31,20.35 1.78,9.06 13.46,11.7 21.2,9.04 5.23,1 10.56,1.7 15.77,-0.08l0.51 -2.24c6.04,0.83 12.1,2.51 18.18,0.88l1.54 -2.87c5.54,1.76 11.71,2.99 17.03,-0.15 1.97,-1.37 2.74,-3.22 2.38,-5.51 15.11,-20.52 15.05,-47.52 10.91,-71.59 -8.81,15.01 -14.32,31.98 -24.92,45.99z"/>
   <path class="fil2" d="M764.82 239.65c18.38,-9.5 38.47,-16.27 59.2,-17.82 -65.19,32.24 -126.71,71.32 -191.37,104.58 -13.22,6.31 -26.3,13.82 -41.01,15.92 -29.62,4.21 -59.33,7.51 -89.06,10.74 -6.52,0.91 -13.07,1.36 -19.64,1.34 33.85,-7.21 67.06,-17.24 99.85,-28.22 48.44,-16.67 96.09,-36.27 140.76,-61.47 14.16,-7.72 26.86,-17.82 41.27,-25.07zm-600.11 933.46c3.36,-0.36 6.13,-2.45 9.08,-3.91 -0.4,32.68 0.53,65.38 -0.13,98.06 -0.53,-8.08 -1.21,-16.16 -1.8,-24.22 -2.24,2.75 -4.89,5.28 -8.6,5.68 -22.81,5.04 -46.03,7.97 -68.99,12.08 -1.39,-3.3 -2.79,-6.59 -4,-9.95 -0.81,-22.71 0.25,-45.49 -0.32,-68.22 2.25,0.9 4.46,2.6 7.04,2.05 22.71,-3.05 44.91,-9.13 67.72,-11.57zm352.97 -39.19c10.63,-2.74 21.67,-3.27 32.28,-5.95l0.36 -0.11c4.19,20.77 9.42,41.31 13.63,62.07 -9.33,4.78 -19.69,6.1 -29.98,7.02 -12.42,3.1 -24.99,5.57 -37.76,6.73 -2.17,-0.08 -4.22,-0.87 -6.28,-1.36 -5.06,-20.81 -10.06,-41.63 -15.16,-62.43 14.61,0.75 28.43,-5.01 42.91,-5.97zm154.78 -20.96c4.4,-0.28 8.4,-2.2 12.26,-4.15 -5.55,22.07 -10.73,44.23 -15.92,66.38l-0.47 0.24c-11.97,7.44 -26.41,6.61 -39.68,9.69 -11.92,1.51 -23.58,4.34 -35.23,7.19 -1.59,-2.3 -3.17,-4.61 -4.76,-6.87 4.21,-20.26 9.46,-40.31 13.42,-60.6 4.76,-2.83 10.41,-2.17 15.69,-2.49 9.25,-0.36 17.97,-3.89 27.13,-5.03 9.25,-1.05 18.29,-3.36 27.56,-4.36zm317.07 -42.89c7.26,-0.17 14.34,-1.87 21.08,-4.53l0.36 -0.13c5.29,23.41 11.54,46.59 16.95,69.98 -8.06,6.17 -18.57,3.21 -27.56,6.72 -9.89,3.38 -20.48,3.06 -30.56,5.61 -9.5,2.3 -19.39,2.13 -28.96,0.38 1.94,1.24 3.89,2.51 5.85,3.79 -15.88,2.93 -31.83,5.33 -47.76,7.82 -22.37,6.04 -45.76,6.85 -68.11,12.85 -6.59,1.06 -13.3,1.33 -19.71,3.12 -8.03,2.13 -16.48,1.45 -24.41,3.89 -9.56,2.98 -19.54,3.77 -29.4,5.09 -1.47,-1.49 -2.94,-2.96 -4.4,-4.43 3.78,-16.75 8.4,-33.32 12.16,-50.07 7.72,-2.79 16.12,-1.66 23.96,-4.06 6.91,-1.94 14.18,-1.73 21.14,-3.38 12.88,-3.39 26.73,-2.62 38.93,-8.53 -2.4,10.71 -4.96,21.37 -6.89,32.17 35.92,0.02 71.87,0.02 107.79,-0.07 -4.68,-22.17 -9.4,-44.33 -14.27,-66.44 9.31,-0.55 18.13,-4.06 27.45,-4.47 9.04,-0.42 17.29,-5.01 26.36,-5.31zm156.88 -19.12c9.68,-0.59 18.89,-4.59 28.69,-3.97 -0.17,26.93 0.4,53.86 -0.19,80.8 -0.83,-1.69 -1.66,-3.36 -2.49,-5 -24.64,4.08 -48.88,10.74 -73.78,12.93 -0.09,-25.26 0.08,-50.5 0.02,-75.76 6.99,-1.92 14.14,-3.13 21.37,-3.77 8.97,-0.83 17.37,-4.59 26.38,-5.23zm34.73 -1.66c22.62,-3.65 45.18,-7.69 67.64,-12.1 7.42,23.16 15.31,46.19 22.64,69.39 -21.05,5.8 -43.1,6.76 -64.28,12.03 -1.85,-1.25 -3.7,-2.44 -5.53,-3.64l-0.63 -0.44c-6.57,-21.76 -13.12,-43.53 -19.84,-65.24zm321.33 -65.51l0.27 -1.15c0,27.47 0.35,54.95 0.18,82.42 -24.03,6.21 -48.74,9.44 -73.17,13.67 -0.79,5.59 -1.58,11.17 -1.92,16.82 -1.08,-21.09 0.41,-42.25 -0.99,-63.32 -4.83,18.26 -10.83,36.17 -15.97,54.33l-0.47 0.02c-13.99,0.49 -27.33,5.31 -41.21,6.74 -10.86,1.21 -22.6,7.02 -33.15,2.23 6.85,-22.62 14.27,-45.06 21.28,-67.64 12.42,1.62 24.05,-3.61 36.3,-4.12 8.4,-0.53 16.06,-4.75 24.48,-5.11 11.29,-0.13 21.83,-4.8 33.17,-4.74 15.84,-4.85 32.4,-6.12 48.63,-9.23 -0.11,-7.08 0.76,-14.11 2.57,-20.92zm149.44 -34.42c-0.43,28.62 0.29,57.26 -0.03,85.9 -6.91,5.85 -15.94,7.82 -24.64,9.25 -16.37,2.32 -32.55,5.91 -48.92,8.23 -3.68,0.76 -7.06,-1.05 -10.32,-2.4 -0.02,-24.95 0.21,-49.91 0.13,-74.89 6.32,0.14 12.71,-0.18 18.86,-1.88 8.44,-2.31 17.31,-2.01 25.71,-4.5 11.93,-3.89 24.79,-3.07 36.66,-7.27 1.04,-4.11 2.01,-8.24 2.55,-12.44zm208.82 -24.6c16.93,-2.13 33.43,-6.88 50.46,-8.45 0,25.48 0.07,50.99 0.04,76.49 -13.1,4.97 -27.15,5.87 -40.78,8.48 -14.52,1.94 -28.7,5.66 -43.23,7.36 -0.13,-26.07 0.05,-52.14 0.04,-78.21 11.17,-1.74 22.23,-4.21 33.47,-5.67zm-640.47 -190.2c5.7,-20.7 13.02,-41.19 24.31,-59.57 6.38,3.47 13.39,5.41 20.41,7.15 -19.1,21.18 -28.56,48.82 -37.87,75.25 -8.63,25.49 -15.03,51.63 -21.35,77.74 1.4,-33.87 5.78,-67.75 14.5,-100.57zm-376.53 -105.83c1.6,5.72 3.06,11.69 6.59,16.62 5.17,7.32 12.34,12.85 18.61,19.2 11.33,10.32 17.05,25.52 29.73,34.56 17.83,13.35 37.63,24.34 53.11,40.65 -14.48,-0.02 -28.94,-0.04 -43.4,0.02 -8.23,0.3 -15.33,-4.65 -23.07,-6.65 -18.58,-5.42 -34.78,-18.18 -44.48,-34.91 -4.66,-8.4 -8.1,-18.02 -6.78,-27.75 1.91,-14.17 5.82,-27.99 9.69,-41.74zm649.26 -46.85c5.69,1.54 11.31,3.32 17.01,4.89 33.53,7.72 67.68,12.64 101.02,21.29 -10.23,1 -20.44,-1.21 -30.66,-1.47 -23.42,-2.74 -47.51,-4.31 -69.53,-13.5 -0.45,1.89 -0.9,3.8 -1.34,5.7 0,-1.55 -0.01,-4.64 -0.01,-6.19 -5.88,-2.98 -11.46,-6.48 -16.49,-10.72zm-20.18 5.3c5.2,-6.87 9.8,-14.14 14.97,-21.03 4.18,6.44 3.87,14.12 1.93,21.26 4.04,2.94 8.25,5.68 12.59,8.21 -6.46,1.04 -12.85,2.55 -18.88,5.08 7.12,3.91 14.73,6.85 21.9,10.7 8.93,5.38 19.84,3.78 29.77,5.19 29.7,2.93 59.51,4.63 89.11,8.25 -32.96,2.55 -66.36,3.1 -99.21,-1.28 16.05,13.73 34.68,23.88 52.99,34.17 10.33,5.44 20.38,11.38 31.06,16.1 -9.16,-1.75 -17.56,-5.98 -26.17,-9.4 -20.5,-8.85 -41.62,-17.4 -59.33,-31.3 -7.44,-5.47 -13.74,-13.51 -23.47,-14.69 0.55,-0.6 1.65,-1.83 2.19,-2.43 -6.43,-4.72 -12.78,-9.55 -19.12,-14.39 -0.85,5.2 -1.32,10.44 -1.44,15.71 3.48,3.21 6.9,6.51 10.33,9.8 12.33,12.02 25,23.69 37.23,35.83 -16.46,-5.95 -31.26,-17.16 -40.82,-31.89 -5.51,-12.06 -14.78,-22.2 -18.7,-34.98 -1.65,-3.43 1.36,-6.23 3.07,-8.91zm-175.55 -33.81c11.65,-3.74 24.02,-2.64 36,-4.36 20.96,-2.53 39.86,8.83 57.22,18.9 9.88,5.83 21.11,12.42 24.9,23.93 2.59,10.01 -5.09,18.26 -11.62,24.66 -15.35,14.16 -33.02,25.77 -51.77,34.89 -24.71,12.31 -53.25,8.36 -79.78,6.72 10.21,-2.76 18.54,-9.95 23.62,-19.13 -30.49,12.18 -60.79,24.85 -91.34,36.84 21.37,-16.03 46.48,-26 70.86,-36.48 -2.69,-0.6 -5.42,-0.98 -8.14,-0.87 -27.66,-0.05 -55.37,-1.68 -82.65,-6.32 -8.42,-1.17 -16.69,-3.23 -25.15,-4 -14.7,1.41 -28.79,7.32 -43.61,7.49 9.5,-3.81 19.15,-7.21 28.85,-10.44 -15.1,-3.98 -30.43,-7.19 -45.7,-10.57 17.82,0.83 35.32,4.74 53.08,6.23 7.76,0.74 14.99,-2.74 22.41,-4.36 41.04,-10.48 83.01,-17.16 125.13,-21.33 -1.93,-1.32 -3.93,-2.65 -5.84,-3.93 13.16,-2.28 26.51,-6.44 37.25,-14.67 -15.95,-6.49 -32.58,-11.15 -49.33,-14.97 -27.45,-2.02 -54.86,-5.28 -82.44,-4.76 -15.82,0.14 -31.62,1.29 -47.44,1.34 38.17,-5.72 77.15,-10.55 115.68,-5.38 9.86,0.82 20.09,3.76 29.81,0.57zm-119.52 70.53l0 0c37.18,4.95 74.63,7.53 112.1,8.91 4.14,-0.21 8.18,-1.68 11.8,-3.68 3.42,-3.34 6.21,-7.5 10.84,-9.34 2.85,-1.86 8.63,-3.31 6.78,-7.9 -3.29,-5.9 -8.95,-9.93 -14.07,-14.15 -42.42,8.96 -84.97,17.42 -127.45,26.16zm318.01 -71c26.15,-5.38 53.01,-7.99 79.72,-8.03 -25.03,5.03 -49.97,10.48 -74.98,15.56 -1.49,-2.57 -3.13,-5.06 -4.74,-7.53zm-112.84 -30.21c29.68,-4.55 60.76,-7.11 89.77,2.51 4.85,1.42 6.23,7.05 7.7,11.27 3.55,14.48 -1.68,29.57 -8.94,42.05 -4.18,6.83 -10.03,14.57 -18.92,14.29 -6.74,-7.38 -15.91,-11.95 -22.62,-19.28 -0.87,-5.62 7.69,-4.04 11.18,-5.85 -2.34,-4.68 -7.72,-6.17 -12.06,-8.36 -11.73,-5.53 -24.92,-8.88 -34.57,-17.99 -5.29,-5.08 -11.31,-10.78 -11.54,-18.64zm-850.77 71.44c22.35,-21.62 37.74,-49.12 50.95,-76.99 -5.79,21.69 -9.51,43.88 -11.85,66.17 -1.19,11.57 -3.51,23.18 -8.74,33.66 -7.01,14.75 -18.86,26.36 -30.93,37.04 -18.82,16.37 -38.11,32.36 -54.76,51.01 -7.1,8.08 -16.65,13.76 -26.94,16.78 -21.22,6.01 -44.07,4.95 -65.38,-0.09 20.88,-11.4 42.08,-22.47 61.28,-36.61 8.76,-6.21 14.61,-15.38 21.56,-23.37 20.12,-23.9 42.36,-45.89 64.81,-67.6zm340.68 -31.28c12.52,-16.03 23.52,-33.15 35.11,-49.84 -0.73,17.14 -1.28,34.47 1.36,51.48 1.12,8.4 5.36,16.08 11.24,22.11 10.19,10.62 20.27,21.5 28.33,33.9 7.53,11.69 15.44,23.35 25.96,32.59 10.95,9.94 24.11,17.12 34.68,27.52 10.53,9.89 17.65,22.64 26.86,33.68 6.4,7.68 12.61,15.76 15.79,25.39 -13.45,0.1 -26.87,0.1 -40.31,-0.02 -0.79,0.66 -2.38,1.97 -3.17,2.61 -12.52,-14.59 -25.41,-29.13 -40.7,-40.89 -12.24,-9.46 -26.72,-15.11 -40.69,-21.39 -6.34,-3.17 -14.04,-6.25 -16.44,-13.61 -3.81,-10.57 -11.86,-18.62 -18.76,-27.19 -8.14,-9.66 -15.58,-19.97 -21.37,-31.24 -3.67,-7.12 -7.69,-14.43 -8.39,-22.56 -0.34,-8.76 5.53,-15.94 10.5,-22.54zm-222.86 -94.11c8.7,-7.12 17.2,-14.48 25.79,-21.73 -1.76,10.72 -3.29,21.82 -0.47,32.53 2.66,9.98 4.43,21.29 -0.61,30.84 -4.53,8.76 -11.36,16.33 -13.91,26.06 -8.76,26.11 -3.74,54.05 -9.61,80.63 -3.93,20.4 -9.29,40.51 -15.93,60.2 -0.08,-16.16 0.9,-32.36 -0.89,-48.44 -1.49,-22.81 -8.14,-44.99 -8.53,-67.91 -1.44,-15.14 0.13,-30.3 0.03,-45.48 0.19,-18.25 10.25,-35.3 24.13,-46.7zm322.86 -26.17c17.84,5.33 36.19,10.61 51.67,21.35 6.47,4.48 10.63,12.01 18.16,15.03 8.74,0.85 17.48,-1.28 26.26,-0.77 20.84,-0.13 42,6.08 62.52,-0.12 -12,7.07 -22.69,16.24 -31.05,27.4 -6.1,8.21 -17.31,4.81 -25.88,4.25 -13.84,-1.84 -26.49,5.05 -39.23,9.15 16.08,8.74 32.17,19.77 50.8,21.64 20.2,-3.8 31.51,-23.62 49.69,-31.61 20.52,-8.7 36.19,-26.07 57.43,-33.34 12.63,-3.56 25.71,-5.66 38.85,-6.19 -16.73,9.89 -34.34,18.9 -48.48,32.45 -17.58,18.9 -26.28,44.54 -45.5,62.11 -3.76,3.53 -8.53,5.61 -13.16,7.69 32.23,2.26 64.53,3.6 96.85,2.98 30.92,-0.96 61.88,-2.06 92.83,-1.59 -47.01,5.97 -94.53,12.82 -141.97,8.07 -25.22,-1.48 -50.14,-6.1 -75.38,-6.86 -18.18,-1.7 -36.51,0.42 -54.66,-1.45 -9.45,-1.17 -20.27,-4.25 -25.01,-13.33 -8.4,-19.37 -1.3,-41 -7.12,-60.9 -4.77,-22.62 -18.33,-43.14 -37.62,-55.96zm309.13 -2.21c8.2,-1.83 16.65,-0.45 24.96,-0.17 16.78,1.21 33.98,1.46 50.16,6.54 17.33,6.98 23.28,26.86 37.61,37.62 12.42,10.97 29.2,13.22 44.28,18.45 -17.59,2.07 -35.37,3.71 -53.06,2.15 -6.61,-0.8 -13.77,-1.65 -18.98,-6.18 -19.61,-16.16 -33.51,-39.07 -56.33,-51.29 -8.76,-4.94 -18.92,-5.72 -28.64,-7.12zm86.96 -20.88c2.68,-0.3 5.38,-0.54 8.1,-0.73 -0.67,3.36 -1.29,6.72 -1.91,10.08 -2.34,-0.62 -4.68,-1.25 -6.99,-1.87 0.25,-2.49 0.51,-4.98 0.8,-7.48zm-572.42 -53.7c5.65,-6.55 14.29,-11.5 23.19,-9.99 4.62,0.62 7.91,6.27 5.64,10.51 -2.43,4.95 -1.34,10.39 -0.09,15.48 -2.49,0.23 -4.99,0.48 -7.44,0.7 -2.02,-1.68 -4.02,-3.36 -6.04,-5.02 -2.19,8.06 3.87,14.08 8.46,19.73 -5.95,-1.94 -11.52,-4.87 -17.24,-7.34 -5.55,11.81 -4.55,24.88 -6.46,37.41 -1.7,-1.36 -3.43,-2.85 -4,-5.04 -3.15,-8.89 -3.3,-18.59 -7.06,-27.3 -0.62,-2.51 -2.79,-3.79 -5.13,-4.4 -5.08,11.5 -5.52,24.32 -9.18,36.25 -5.13,-7.96 -2.59,-18.69 -3.94,-27.81 -4.78,6.69 -8.2,14.84 -15.56,19.2 0,-7.32 3.72,-13.7 7,-19.99 -13.87,6.66 -26.88,15.69 -41.98,19.37 2.7,-3.17 5.72,-6.06 8.66,-9 -13.31,2.39 -26.14,7.49 -39.81,8.13 4,-2.4 8.15,-4.53 12.29,-6.72 -16.41,3.25 -33.32,6.78 -50.01,3.36 -6.48,-1.47 -12.01,-5.62 -18.56,-6.91 -9.44,-2 -19.14,-0.51 -28.67,-1.26 -2.31,0.11 -4.16,-1.21 -5.91,-2.46 13.63,-7.98 29.96,-6.51 45.1,-7.15 -0.17,0.96 -0.49,2.89 -0.66,3.85 3.54,-0.08 7.09,-0.21 10.66,0.04 6.53,0.39 12.25,4.9 18.96,4.23 7.74,-0.44 15.14,-3.02 22.54,-5.14 -1.06,0.98 -3.17,2.95 -4.23,3.93 18.52,1.53 37.64,-0.72 54.76,-8.2 14.3,-6.11 26.76,-15.48 39.69,-23.91 -1.02,5.73 -3.16,11.19 -5.1,16.66 6.95,-6.83 13.69,-13.89 20.12,-21.21zm526.84 15.74c0.48,-12.63 7.4,-23.86 15.35,-33.26 0.81,8.93 -0.07,18.25 3.1,26.8 1.6,4.48 5.38,8.44 10.31,8.93 9.74,0.85 18.65,-4.6 28.33,-4.77 7.53,-0.23 14.6,2.81 21.6,5.23 3.49,1.79 5.45,5.43 7.06,8.85 -2.62,0.09 -5.23,0.15 -7.82,0.19l0.91 0.53 -1.81 -0.11c-5.08,-0.57 -10.16,0.05 -15.1,1.11 -2.76,0.49 -5.54,0.81 -8.27,1.17 0.15,2.13 0.32,4.28 0.49,6.44 -0.04,4.96 -0.57,9.96 -2.06,14.72 -1.94,-1.53 -3.87,-3.04 -5.8,-4.51 0.06,-5.48 -0.09,-10.93 -0.41,-16.41 -5.02,1.1 -9.99,2.44 -14.88,4.01 -0.49,2.83 -0.98,5.66 -1.47,8.51 -1.32,-0.04 -2.62,-0.07 -3.91,-0.13 2.87,3.62 5.57,7.38 8.12,11.25l-2.61 -0.13c-0.01,1.49 -0.03,4.47 -0.03,5.96 -1.23,-0.05 -3.65,-0.2 -4.86,-0.26 -4.22,-0.85 -8.74,-3.51 -9.26,-8.19 0.45,-6.14 5.24,-10.46 8.89,-14.96 -8.29,3.7 -15.45,9.29 -22.37,15.07 -1.44,-11.99 -3.97,-23.94 -3.5,-36.04zm-704.59 -23.84c39.53,-7.27 78.38,-17.92 118.16,-23.83 9.68,-0.83 19.65,-2.89 29.28,-0.39 2.02,0.52 4.66,2.19 4.15,4.66 -0.45,5.27 -5.25,8.4 -8.82,11.63 -7.47,6.34 -11.63,16.67 -21.31,20.24 -11.5,4.39 -23.75,6.09 -35.72,8.68 -13.65,2.64 -27.51,5.1 -41.47,4.44 -11.11,-0.46 -21.58,-4.5 -32.17,-7.42 -17.9,-5.12 -36.51,-6.69 -54.81,-9.61 -2.32,-0.29 -4.47,-1.15 -6.47,-2.32 16.25,-3.04 32.9,-3.06 49.18,-6.08zm637.07 -60.02c9.45,7.8 17.72,16.94 26.73,25.26 13.72,13.78 29.68,28.7 31.88,49.14 0.17,11.42 0.29,22.85 0.93,34.27 -18.2,-21.71 -31.23,-47.22 -44.42,-72.14 -5.51,-11.93 -12.78,-23.43 -15.12,-36.53zm-113.43 -14.59c1.14,0.4 3.44,1.19 4.57,1.59 31.59,17.23 63.3,34.83 91.21,57.74 14.06,11.18 24.97,25.62 36.3,39.44 3.81,5.57 9.38,11.33 8.74,18.56 -1.91,3.72 -6.5,4.57 -10.25,5 -5.55,0.47 -12.5,1.12 -16.26,-3.94 -4.7,-6.18 -5.98,-14.09 -9.25,-21 -4.75,-11.32 -13.31,-20.71 -23.27,-27.71 -23.98,-17.22 -46.86,-35.95 -68.68,-55.82 -4.76,-4.25 -9.41,-8.65 -13.11,-13.86zm-134.13 1.19c13.05,0.26 25.81,3.57 38.48,6.4 18.59,4.66 37.32,9.87 54.18,19.22 25.52,13.72 50.33,28.71 74.95,43.96 6.17,3.8 10.72,9.58 16.55,13.82 16.62,12.07 33.04,24.73 46.71,40.18 3.77,4.57 8.93,10.1 6.47,16.53 -2.53,4.97 -6.38,10.59 -12.55,10.75 -21.16,1.37 -43.27,2.49 -63.39,-5.48 -5.52,-2.28 -10.58,-5.51 -15.81,-8.31 -4.79,-2.68 -9.28,-5.79 -13.72,-8.98 -0.7,6.72 -1.72,13.82 -6.32,19.1 -8.52,11.35 -25.96,13.37 -37.5,5.63 -5.68,-3.81 -6.98,-10.95 -9.12,-16.95 3.04,-0.25 6.12,-0.57 9.2,-0.83 2.64,9.57 13.46,16.33 23.07,12.47 9.3,-3.24 13.23,-13.25 14.87,-22.16 -1.22,-0.55 -3.68,-1.64 -4.9,-2.19 -6.86,-3.15 -13.99,-5.74 -21.38,-7.27 -2.92,-0.52 -5.85,-0.98 -8.77,-1.43 -0.89,4.32 -1.78,8.63 -2.65,12.95l-1.96 0.11c-2.25,-0.38 -4.53,-0.75 -6.78,-1.02 1.12,-4.77 2.17,-9.57 3.16,-14.38 -7.52,-0.4 -10.8,6.51 -13.88,12.1 -2.64,0.43 -5.29,0.85 -7.91,1.28 1.32,0.95 2.68,1.89 4.04,2.83 0.85,0.59 2.55,1.74 3.38,2.33 -1.81,2.54 -3.87,5 -5.08,7.93 0.74,9.72 6,18.36 8.1,27.8 -6.21,-5.02 -11.55,-11.55 -13.33,-19.5 -3.42,-12.95 -0.92,-26.32 0.64,-39.32 -27.22,-3.5 -55.16,-1.59 -81.44,6.44 14.54,-6.35 30.02,-10.27 45.55,-13.26 13.5,-2.6 22.11,-16.01 36.06,-17.48 27.06,-3.38 51.43,11.54 77.1,17.03 8.55,2.25 15.03,-5.29 23.22,-6.06 -10.74,-9.82 -19.35,-22.54 -33.03,-28.64 -12.58,-6.57 -27.53,-5.87 -39.93,-12.85 -13.78,-6.99 -22.71,-20.15 -34.7,-29.46 -9.5,-7.64 -20.65,-13.02 -32.32,-16.4 -6.48,-2.12 -13.48,-3.08 -19.26,-6.89z"/>
   <path class="fil3" d="M1376.99 396.19c2.73,-0.36 5.51,-0.68 8.27,-1.17 5.55,11.27 4.73,24.75 -1.12,35.72 -3.04,-0.59 -6.06,-1.17 -9.04,-1.91 0.62,-3.36 1.24,-6.72 1.91,-10.08l1.41 -0.1c-0.19,-5.34 -0.26,-10.74 -0.94,-16.02 -0.17,-2.16 -0.34,-4.31 -0.49,-6.44zm-891.99 689.4c18.16,-1.98 35.7,-7.57 53.97,-8.83 3.63,17.06 7.99,34 10.99,51.21 -10.61,2.68 -21.65,3.21 -32.28,5.95 -14.48,0.96 -28.3,6.72 -42.91,5.97 -4.42,-16.88 -8.35,-33.87 -12.56,-50.79 7.73,-0.22 15.26,-2 22.79,-3.51zm-191.97 -1.47c22.78,-3.49 45.27,-9.23 68.3,-11.06 -11.46,22.93 -28.43,43.55 -50.48,56.99 -17.73,10.95 -38.46,16.76 -59.26,17.14 -25.94,0.3 -51.88,-0.24 -77.8,0.26 0.02,7.25 -0.04,14.49 0,21.75 -2.95,1.46 -5.72,3.55 -9.08,3.91 -22.81,2.44 -45.01,8.52 -67.72,11.57 -2.58,0.55 -4.79,-1.15 -7.04,-2.05 0.17,-20.88 0.02,-41.78 0.11,-62.66 16.14,-3.68 32.63,-5.8 48.94,-8.57 23.27,-5.14 47.08,-7.44 70.32,-12.74 28,-4.4 55.75,-9.99 83.71,-14.54zm366.33 -35.15c13.95,-2.25 28.02,-4.1 41.76,-7.52 -5.81,22.37 -10.89,44.91 -16.4,67.36 -3.86,1.95 -7.86,3.87 -12.26,4.15 -9.27,1 -18.31,3.31 -27.56,4.36 -9.16,1.14 -17.88,4.67 -27.13,5.03 -5.28,0.32 -10.93,-0.34 -15.69,2.49 5.31,-23.35 10.95,-46.65 15.56,-70.13l0.45 0.18c0.93,0.38 2.76,1.16 3.68,1.53 12.31,-3.77 25.41,-3.19 37.59,-7.45zm173.38 -8.54c11.37,-0.87 22.28,-5.17 33.74,-4.64 -5.69,26.15 -11.56,52.27 -17.39,78.4 -12.2,5.91 -26.05,5.14 -38.93,8.53 -6.96,1.65 -14.23,1.44 -21.14,3.38 -7.84,2.4 -16.24,1.27 -23.96,4.06 6.84,-26.81 13.12,-53.74 19.96,-80.55 15.7,-4.1 31.96,-5.32 47.72,-9.18zm140.8 -14.89c8.83,-1.63 17.14,-5.87 26.35,-5.48 3.55,15.16 7.76,30.19 10.72,45.48 -6.74,2.66 -13.82,4.36 -21.08,4.53 -9.07,0.3 -17.32,4.89 -26.36,5.31 -9.32,0.41 -18.14,3.92 -27.45,4.47 -3.6,-15.86 -7.02,-31.75 -10.4,-47.65 16.27,-0.81 31.98,-5.68 48.22,-6.66zm255.34 -48.63l0.42 -0.12c6.21,20.22 13.18,40.2 19.48,60.4 -22.46,4.41 -45.02,8.45 -67.64,12.1 -1.79,-5.95 -3.53,-11.92 -5.81,-17.69 -0.25,5.11 -0.27,10.25 -0.23,15.38 -9.8,-0.62 -19.01,3.38 -28.69,3.97 -9.01,0.64 -17.41,4.4 -26.38,5.23 -7.23,0.64 -14.38,1.85 -21.37,3.77 -0.05,-19.93 -0.04,-39.85 0.02,-59.76 23.64,-2.38 46.65,-8.54 70.17,-11.69 12.78,-1.7 25.19,-5.38 37.99,-7 7.43,-0.97 14.85,-2.35 22.04,-4.59zm230.36 -46.31c14.2,-3.93 28.81,-6.48 43.57,-6.55 -0.19,19.9 0.64,39.87 -0.34,59.73 -1.81,6.81 -2.68,13.84 -2.57,20.92 -16.23,3.11 -32.79,4.38 -48.63,9.23 -11.34,-0.06 -21.88,4.61 -33.17,4.74 -8.42,0.36 -16.08,4.58 -24.48,5.11 -12.25,0.51 -23.88,5.74 -36.3,4.12 8.98,-29.77 19.08,-59.22 27.61,-89.13l0.51 0.68c0.65,0.87 1.91,2.59 2.55,3.46 11.29,-1.49 22.28,-4.44 33.42,-6.67 12.76,-0.85 25.18,-4 37.83,-5.64zm162.15 -28.6c9.93,-2.8 20.06,-4.99 30.47,-4.27 -0.02,17.2 0.05,34.42 0.05,51.63 -0.54,4.2 -1.51,8.33 -2.55,12.44 -11.87,4.2 -24.73,3.38 -36.66,7.27 -8.4,2.49 -17.27,2.19 -25.71,4.5 -6.15,1.7 -12.54,2.02 -18.86,1.88 -0.11,-21.5 -0.06,-43 0,-64.5 17.61,-3.67 35.46,-6.27 53.26,-8.95zm312.25 -62.66c3.72,0.06 6.87,-2 9.85,-3.94 -0.28,17.25 0.06,34.52 -0.17,51.78 -10.7,0.06 -21.39,0 -32.07,0.02 -0.06,9.7 0.01,19.4 -0.06,29.11 -17.03,1.57 -33.53,6.32 -50.46,8.45 -11.24,1.46 -22.3,3.93 -33.47,5.67 -0.1,-14.33 -0.1,-28.66 0.01,-42.97 -10.7,-0.51 -21.4,-0.19 -32.09,-0.24 -0.04,-7.71 -0.04,-15.41 0.02,-23.09 20.01,-5.57 40.7,-7.65 61.09,-11.22 12.95,-3.7 26.47,-4.43 39.61,-7.24 12.74,-1.23 24.86,-6.05 37.74,-6.33zm-793.52 -426.99c4.44,3.19 8.93,6.3 13.72,8.98 -3.92,12.58 -11.76,24.58 -23.65,30.85 -15.59,7.8 -36.1,10.01 -50.5,-1.53 -2.1,-9.44 -7.36,-18.08 -8.1,-27.8 1.21,-2.93 3.27,-5.39 5.08,-7.93 3.23,2.21 6.66,4.21 10.51,5.21 2.14,6 3.44,13.14 9.12,16.95 11.54,7.74 28.98,5.72 37.5,-5.63 4.6,-5.28 5.62,-12.38 6.32,-19.1zm-62.96 -3.87c3.08,-5.59 6.36,-12.5 13.88,-12.1 -0.99,4.81 -2.04,9.61 -3.16,14.38 -4.91,0.25 -9.76,1 -14.59,1.83 -1.36,-0.94 -2.72,-1.88 -4.04,-2.83 2.62,-0.43 5.27,-0.85 7.91,-1.28z"/>
   <path class="fil4" d="M1354.33 400.44c4.89,-1.57 9.86,-2.91 14.88,-4.01 0.32,5.48 0.47,10.93 0.41,16.41 -4.75,-3.95 -10.85,-4.32 -16.76,-3.89 0.49,-2.85 0.98,-5.68 1.47,-8.51zm-1182.47 842.6c0.59,8.06 1.27,16.14 1.8,24.22 10.76,0.04 21.5,0 32.26,-0.02 -0.23,9.1 0.57,18.22 -0.25,27.3 -2.28,7.64 -1.07,16.31 -4.49,23.48 -9.4,3.72 -19.61,4.48 -29.47,6.46 -19.99,2.98 -39.77,7.19 -59.79,10.25 -16.74,2.32 -33.09,6.76 -49.85,8.93 -0.47,-5.02 -1.04,-10.04 -1.83,-15.03 -1.67,7.78 -2.14,15.73 -2.48,23.66 -0.9,-28.32 0.02,-56.66 -0.2,-84.99 10.76,0.13 21.52,-0.08 32.28,0.17 0.26,-5.54 0.32,-11.09 0.43,-16.62 1.21,3.36 2.61,6.65 4,9.95 22.96,-4.11 46.18,-7.04 68.99,-12.08 3.71,-0.4 6.36,-2.93 8.6,-5.68zm456.79 -57.92c13.27,-3.08 27.71,-2.25 39.68,-9.69 -4.32,18.26 -8.19,36.7 -13.25,54.77 -11.09,7.7 -24.92,8.14 -37.76,10.38 -12.29,2.51 -24.92,3.06 -36.96,6.69 -14.6,2.24 -29.08,5.02 -43.67,7.11 -10.46,3.63 -21.71,3.36 -32.21,6.76 -5.15,-19.54 -9.28,-39.32 -14.55,-58.82 2.06,0.49 4.11,1.28 6.28,1.36 12.77,-1.16 25.34,-3.63 37.76,-6.73 10.29,-0.92 20.65,-2.24 29.98,-7.02 3.81,17.56 7.72,35.1 11.82,52.6 4.36,-19.01 8.78,-38.02 12.89,-57.09 1.59,2.26 3.17,4.57 4.76,6.87 11.65,-2.85 23.31,-5.68 35.23,-7.19zm371.71 -43.01c8.99,-3.51 19.5,-0.55 27.56,-6.72 6.01,25.56 12.54,51.01 18.71,76.55 -2.39,2.63 -4.19,6.8 -8.28,6.84 -15.75,2.43 -31.63,4.25 -47.11,8.08 -8.79,2.11 -18.1,0.71 -26.67,3.94 -2.29,0.68 -4.61,0.97 -6.97,0.91 -44.51,-0.17 -89.05,-0.06 -133.56,-0.11 -0.49,1.7 -0.96,3.41 -1.44,5.15 -0.32,-0.72 -0.98,-2.13 -1.32,-2.85 -1.73,1.7 -3.3,3.62 -5.34,5 -16.07,3 -32.41,4.59 -48.2,8.91 -9.32,1.63 -18.89,1.97 -27.86,5.25 -1.19,-2 -2.38,-3.98 -3.53,-5.96 5.55,-22.28 11.23,-44.54 16.55,-66.87 1.46,1.47 2.93,2.94 4.4,4.43 9.86,-1.32 19.84,-2.11 29.4,-5.09 7.93,-2.44 16.38,-1.76 24.41,-3.89 6.41,-1.79 13.12,-2.06 19.71,-3.12 22.35,-6 45.74,-6.81 68.11,-12.85 15.93,-2.49 31.88,-4.89 47.76,-7.82 -1.96,-1.28 -3.91,-2.55 -5.85,-3.79 9.57,1.75 19.46,1.92 28.96,-0.38 10.08,-2.55 20.67,-2.23 30.56,-5.61zm98.28 -6.4c24.9,-2.19 49.14,-8.85 73.78,-12.93 0.83,1.64 1.66,3.31 2.49,5 0.29,17.71 0.53,35.5 -0.11,53.22 -1,-2.45 -2.06,-4.85 -3.1,-7.23 -10.98,5.33 -23.65,4.8 -35.28,8.1 -12.69,1.06 -24.94,5.59 -37.76,5.08 -0.09,-17.09 0.06,-34.15 -0.02,-51.24zm108.5 -17.1c21.18,-5.27 43.23,-6.23 64.28,-12.03 5.55,17.45 11.4,34.78 17.03,52.18 -1.34,2.91 -2.7,5.82 -4.04,8.73 -14.22,-0.65 -27.53,5.09 -41.55,6.32 -7.42,1.74 -14.92,2.74 -22.51,3.36 -6.38,-20.69 -12.91,-41.36 -18.74,-62.2 1.83,1.2 3.68,2.39 5.53,3.64zm162.05 -25.3c13.88,-1.43 27.22,-6.25 41.21,-6.74 -3.96,14.6 -8.76,28.96 -12.85,43.52l-0.52 0.19c-7.26,2.51 -14.57,5.19 -22.29,5.7 -17.93,1.62 -35.42,8.83 -53.54,7.17 4.65,-15.95 10.06,-31.68 14.84,-47.61 10.55,4.79 22.29,-1.02 33.15,-2.23zm60.56 -14.59c24.43,-4.23 49.14,-7.46 73.17,-13.67 -0.33,15.84 0.12,31.66 -0.03,47.5 -8.86,6 -19.69,7.63 -29.98,9.51 -14.35,1.25 -28.3,6.5 -42.84,4.95 -0.7,1.55 -1.36,3.13 -1.98,4.72 -0.81,-12.05 -0.28,-24.13 -0.26,-36.19 0.34,-5.65 1.13,-11.23 1.92,-16.82zm197.49 -34.21c8.7,-1.43 17.73,-3.4 24.64,-9.25 -0.38,17.24 0.37,34.51 -0.14,51.75 -1.03,5.15 -2.55,10.19 -3.94,15.25 -13.31,4.4 -27.39,4.93 -41.01,7.99 -11.32,1.98 -22.67,3.98 -33.85,6.72 -1.66,-3.12 -3.3,-6.21 -4.75,-9.37 -0.49,-19.06 0.28,-38.17 -0.19,-57.26 3.26,1.35 6.64,3.16 10.32,2.4 16.37,-2.32 32.55,-5.91 48.92,-8.23zm243.21 -43.23c13.63,-2.61 27.68,-3.51 40.78,-8.48 -0.06,24.73 0.05,49.45 0,74.18 -22.02,8.36 -46.08,7.79 -68.61,14.17 -5.02,1.5 -10.25,1.68 -15.42,1.59 -0.11,-24.69 0.09,-49.4 0.02,-74.1 14.53,-1.7 28.71,-5.42 43.23,-7.36zm-762.41 -601.13c7.39,1.53 14.52,4.12 21.38,7.27 -0.74,0.06 -2.2,0.19 -2.93,0.27 -0.38,5.98 2.17,14.15 -4.47,17.59 -7.22,4.91 -14.79,-1.13 -19.58,-6.42 4.43,-0.24 8.89,-0.43 13.34,-0.73 -7.02,-2.18 -14.08,-4.21 -21.12,-6.35l1.96 -0.11c0.97,-0.19 2.89,-0.57 3.85,-0.76 2.65,-3.49 5.06,-7.15 7.57,-10.76z"/>
   <path class="fil5" d="M1126.49 407.69c0.73,-0.08 2.19,-0.21 2.93,-0.27 1.22,0.55 3.68,1.64 4.9,2.19 -1.64,8.91 -5.57,18.92 -14.87,22.16 -9.61,3.86 -20.43,-2.9 -23.07,-12.47 1.51,-0.12 4.55,-0.32 6.06,-0.44 4.79,5.29 12.36,11.33 19.58,6.42 6.64,-3.44 4.09,-11.61 4.47,-17.59zm-925.31 910.33c3.42,-7.17 2.21,-15.84 4.49,-23.48 0.21,19.23 0.23,38.47 0.21,57.71 -49.36,0.04 -98.73,-0.1 -148.12,0.04 0.34,-7.93 0.81,-15.88 2.48,-23.66 0.79,4.99 1.36,10.01 1.83,15.03 16.76,-2.17 33.11,-6.61 49.85,-8.93 20.02,-3.06 39.8,-7.27 59.79,-10.25 9.86,-1.98 20.07,-2.74 29.47,-6.46zm620.1 -84.12c0.34,0.72 1,2.13 1.32,2.85 -8.55,38.47 -16.93,77.01 -25.54,115.48 -31.79,0.06 -63.6,-0.02 -95.39,0.04 -0.38,-30.23 -0.08,-60.45 0.04,-90.68 10.45,0.27 20.91,0.12 31.39,0.12 1.13,-4.87 2.27,-9.73 3.25,-14.61 1.15,1.98 2.34,3.96 3.53,5.96 8.97,-3.28 18.54,-3.62 27.86,-5.25 15.79,-4.32 32.13,-5.91 48.2,-8.91 2.04,-1.38 3.61,-3.3 5.34,-5zm-203.96 6.68c12.84,-2.24 26.67,-2.68 37.76,-10.38 -9.5,40.76 -19.34,81.46 -29.36,122.09 -32.96,-0.1 -65.9,0 -98.85,-0.04 -7.7,-30.32 -14.8,-60.77 -22.39,-91.11 10.5,-3.4 21.75,-3.13 32.21,-6.76 14.59,-2.09 29.07,-4.87 43.67,-7.11 12.04,-3.63 24.67,-4.18 36.96,-6.69zm519.1 -58.71c11.63,-3.3 24.3,-2.77 35.28,-8.1 1.04,2.38 2.1,4.78 3.1,7.23 0.73,57.03 0.17,114.16 0.3,171.23 -60.01,0.06 -120.05,0 -180.06,0.04 -8.44,-38.53 -17.35,-76.97 -25.47,-115.56 0.11,-3.32 -1.7,-5.55 -5,-5.91 8.57,-3.23 17.88,-1.83 26.67,-3.94 15.48,-3.83 31.36,-5.65 47.11,-8.08 4.09,-0.04 5.89,-4.21 8.28,-6.84 3.78,16.64 7.78,33.23 12.29,49.69 13.18,-0.13 26.38,-0.09 39.55,-0.02 0.34,-24.9 0.15,-49.78 0.19,-74.66 12.82,0.51 25.07,-4.02 37.76,-5.08zm238.32 -45.89c7.72,-0.51 15.03,-3.19 22.29,-5.7 -21.86,74.13 -44.74,147.98 -67.13,221.97 -18.57,0.04 -37.15,-0.06 -55.72,0.04 -18.26,-58.26 -35.84,-116.77 -53.83,-175.12 7.59,-0.62 15.09,-1.62 22.51,-3.36 14.02,-1.23 27.33,-6.97 41.55,-6.32 1.34,-2.91 2.7,-5.82 4.04,-8.73 4.58,14.31 8.83,28.79 14.33,42.78 6.06,-19.5 12.38,-38.89 18.42,-58.39 18.12,1.66 35.61,-5.55 53.54,-7.17zm98.17 -13.92c10.29,-1.88 21.12,-3.51 29.98,-9.51 -0.32,45.82 0.26,91.65 -0.04,137.49 -0.1,3.89 0.21,7.76 0.68,11.63 10.66,-0.23 21.33,-0.08 32,-0.13 0,30.24 0.04,60.47 -0.02,90.71 -35.68,0.07 -71.34,-0.11 -107.02,0.09 -0.42,-73.53 -0.8,-147.08 -0.4,-220.61 0.62,-1.59 1.28,-3.17 1.98,-4.72 14.54,1.55 28.49,-3.7 42.84,-4.95zm369.71 -40.91c22.53,-6.38 46.59,-5.81 68.61,-14.17 -0.15,25.75 0.22,51.52 -0.15,77.27 -1.72,48.4 -13.54,97.73 -41.39,138 -19.74,28.58 -48.36,51.65 -81.87,61.73 -52.03,15.71 -112.61,3.78 -152.78,-33.47 -25.49,-23.07 -42.63,-54.09 -52.84,-86.64 -12.03,-37.45 -14.88,-77.15 -14.01,-116.27 1.45,3.16 3.09,6.25 4.75,9.37 11.18,-2.74 22.53,-4.74 33.85,-6.72 13.62,-3.06 27.7,-3.59 41.01,-7.99 1.39,-5.06 2.91,-10.1 3.94,-15.25 0.27,34.41 -2.11,69.9 9.5,102.94 7.34,21.54 21.03,42 41.61,52.78 23.95,12.5 54.35,11.07 77.53,-2.58 21.03,-12.63 34.08,-35.17 40.32,-58.37 9.16,-32.21 5.91,-66 6.5,-99.04 5.17,0.09 10.4,-0.09 15.42,-1.59zm-1610.89 -137.13c7.68,4.76 8.3,14.48 9.15,22.6 0.64,11.18 -0.43,24.29 -9.17,32.36 -0.08,-18.33 -0.1,-36.65 0.02,-54.96zm354.38 -437.43c3.06,0.57 0.83,7.12 -2.02,6.15 -1.47,-2 -0.05,-5.19 2.02,-6.15zm768.35 -86.65l2.61 0.13c3.94,0.21 7.89,-0.15 11.84,-0.59 -0.29,2.5 -0.55,4.99 -0.8,7.48 -6.11,-1.4 -12.38,-0.62 -18.54,-1.32 1.21,0.06 3.63,0.21 4.86,0.26 0,-1.49 0.02,-4.47 0.03,-5.96z"/>
   <path class="fil6" d="M1395.32 672.78c3.17,-1.17 6.3,-2.48 9.63,-3.27 3.36,-0.04 5.87,2.7 8.74,4.13 5.55,-4.09 12.25,-4.15 18.31,-1.11 3.55,-0.34 8.19,-2.21 10.51,1.68 3.06,4.95 8.99,5.29 14.09,6.7 0.32,-0.86 0.98,-2.62 1.3,-3.49 -1.44,7.27 -6.97,12.76 -8.78,19.92 -4.27,15.68 -12.01,30.13 -21.09,43.51 -6.26,8.12 -13.81,15.33 -22.95,20.09 6.25,-19.33 15.03,-38.17 16.5,-58.71 -7.7,0.71 -13.41,-6.03 -11.5,-13.48 -3.83,4.57 -8.8,8.64 -15.03,8.93 -3.72,-3.06 -2.56,-8.61 -3.7,-12.77 -0.88,1.14 -2.68,3.4 -3.57,4.54 1.99,-5.4 4.14,-11.09 2.7,-16.9 -3.83,1.81 -7.98,3.25 -11.17,6.14 -1.89,4.73 -1.13,10.06 -1.42,15.06 3.17,-1.32 6.36,-2.64 9.59,-3.91 -2.43,3.42 -5.7,6.04 -9.1,8.42 -3.15,-2.85 -6.96,-5.32 -8.87,-9.25 -0.4,-5.3 0.44,-11.8 4.85,-15.33 6.57,-2.6 14.22,-3.58 20.96,-0.9zm-865.24 363.73c3.21,13.34 5.83,26.84 8.89,40.25 -18.27,1.26 -35.81,6.85 -53.97,8.83 -7.53,1.51 -15.06,3.29 -22.79,3.51 -2.94,-12.63 -6.36,-25.13 -9.27,-37.76 0.8,0.67 2.38,2.01 3.18,2.67 23.31,-6.69 47.44,-9.23 71.24,-13.35 0.68,-1.04 2.04,-3.12 2.72,-4.15zm-226.39 -7.86c25.34,-2.51 49.95,-10.15 75.37,-12 -2.89,19.59 -9.14,38.58 -17.73,56.41 -23.03,1.83 -45.52,7.57 -68.3,11.06 -27.96,4.55 -55.71,10.14 -83.71,14.54 -23.24,5.3 -47.05,7.6 -70.32,12.74 -16.31,2.77 -32.8,4.89 -48.94,8.57 0.06,-17.65 -0.13,-35.3 -0.09,-52.94 11.31,-8.45 26.15,-7.32 39.32,-10.04 14.97,-2.15 29.62,-6 44.52,-8.51 0.13,2.39 0.28,4.81 0.45,7.23 20.03,-0.19 40.1,0.47 60.13,-0.25 16.88,-0.74 32.38,-9.55 43.55,-21.88 8.89,0.17 17.01,-4.06 25.75,-4.93zm363.39 -16.63c13.54,-3.08 27.19,-6.51 41.21,-5.79l1.48 -0.04c-3.12,11.68 -6.14,23.43 -8.65,35.26 -13.74,3.42 -27.81,5.27 -41.76,7.52 -12.18,4.26 -25.28,3.68 -37.59,7.45 -0.92,-0.37 -2.75,-1.15 -3.68,-1.53 2.48,-11.51 4.59,-23.16 7.71,-34.52 2.73,-1.57 5.66,-2.97 8.85,-3.23 10.95,-0.81 21.46,-4.25 32.43,-5.12zm158.28 -23.65c17.8,-2.59 35.23,-8.54 53.43,-7.61 -3.89,18.39 -8.24,36.68 -12.31,55.03 -11.46,-0.53 -22.37,3.77 -33.74,4.64 -15.76,3.86 -32.02,5.08 -47.72,9.18 4.56,-19.07 9.3,-38.1 13.8,-57.18l0.49 -0.04c8.81,-0.36 17.35,-2.76 26.05,-4.02zm135.92 -13.07c9.25,0.12 18.39,-6.83 27.3,-2.09 3.82,15.61 7.37,31.28 11.31,46.85 -9.21,-0.39 -17.52,3.85 -26.35,5.48 -16.24,0.98 -31.95,5.85 -48.22,6.66 -3.25,-15.8 -7.16,-31.45 -10.25,-47.29 14.61,-6.57 30.85,-6.02 46.21,-9.61zm197.15 -43.32c17.77,-2.51 35.15,-8.08 53.24,-7.95l0.62 -0.02c5.12,17.77 11.52,35.13 16.59,52.9 -7.19,2.24 -14.61,3.62 -22.04,4.59 -12.8,1.62 -25.21,5.3 -37.99,7 -23.52,3.15 -46.53,9.31 -70.17,11.69 0.02,-19.45 -0.13,-38.89 -0.02,-58.34 20.05,-2.51 39.72,-7.23 59.77,-9.87zm122.56 -57.2c2.36,-0.57 3.49,1.45 4.72,3.05 -3.55,4.95 -5.98,10.76 -6.1,16.94 2.48,3.68 5.84,6.64 9.01,9.74 2.43,-4.15 3,-8.93 2.9,-13.65 5.8,-2.62 5.93,-10.97 11.41,-14.5 4.04,2.29 7.06,5.82 9.62,9.65 2.06,-3.12 4.12,-6.21 6.48,-9.1 2.85,5.55 3.27,11.8 3.61,17.93 -0.36,3.76 3.6,5.42 5.7,7.89 -6.08,1.63 -12.14,-0.05 -18.18,-0.88 3.57,-8.54 0.02,-17.69 -6.99,-23.2 -0.51,6.26 -2.09,12.66 -0.96,18.95 1.94,2.68 4.87,4.4 7.44,6.49 -5.21,1.78 -10.54,1.08 -15.77,0.08 -7.74,2.66 -19.42,0.02 -21.2,-9.04 0.87,-7.31 3.52,-14.71 8.31,-20.35zm401.15 -35.67c0.81,-2.32 1.66,-4.64 2.43,-6.96 0.49,18.29 0.06,36.62 0.17,54.92 -11.04,0.39 -22.12,-0.7 -33.09,0.73 0.07,3.31 0.11,6.61 0.21,9.93 -10.41,-0.72 -20.54,1.47 -30.47,4.27 -17.8,2.68 -35.65,5.28 -53.26,8.95 -0.49,-7.8 0.98,-16.01 -0.68,-23.56 -21.48,-0.44 -43,-0.04 -64.49,-0.1 -0.09,12.25 -0.21,24.51 -0.15,36.76 -14.76,0.07 -29.37,2.62 -43.57,6.55 -12.65,1.64 -25.07,4.79 -37.83,5.64 -11.14,2.23 -22.13,5.18 -33.42,6.67 -0.64,-0.87 -1.9,-2.59 -2.55,-3.46 4.89,-17.4 10.35,-34.79 16.05,-51.86l1.32 -0.73c16.37,-1.38 32.34,-5.34 48.59,-7.52 21.04,-4.73 42.46,-7.17 63.53,-11.68 42.91,-7.19 85.75,-14.92 128.58,-22.56 12.99,-1.27 25.51,-5.89 38.63,-5.99zm-346.86 29.49c10.6,-14.01 16.11,-30.98 24.92,-45.99 4.14,24.07 4.2,51.07 -10.91,71.59 -2.19,-5.87 -5.25,-11.36 -9.06,-16.31 0.04,7.16 0.62,14.27 1.32,21.39 1.34,0.11 4.02,0.32 5.36,0.43 -5.32,3.14 -11.49,1.91 -17.03,0.15 -0.22,-5.03 -1.03,-10.02 -1.52,-15.02 1.98,-0.3 3.56,-1.32 4.79,-3.06 -1.41,-4.55 -1.17,-9.52 2.13,-13.18zm19.17 -15.04l0 0c-2.5,8.83 -5.99,17.33 -9.37,25.86 1.42,2.87 2.83,5.74 4.31,8.61 4.28,-4.63 5.85,-10.9 7.6,-16.77 2.7,-11.49 4.72,-23.5 2.76,-35.28 -2.76,5.53 -3.57,11.7 -5.3,17.58zm-120.28 26.26c14.82,-16.94 21.2,-38.82 31.15,-58.55 1.89,14.11 4.85,28.25 3.97,42.56 -1.31,9.53 -3.67,19.04 -7.73,27.8 -3.09,6.89 -12.06,10.95 -19.01,7.31 -6.3,-4.11 -7.26,-12.35 -8.38,-19.12zm30.43 -47.73l0 0c-3.96,18.97 -10.25,37.57 -21.22,53.73 2.78,3.87 6.61,6.68 10.9,8.72 3.19,-2.85 6.28,-6.04 7.72,-10.17 6.44,-16.58 5.83,-35.1 2.6,-52.28zm622.73 -35.47c18.67,-0.49 37.36,-0.3 56.03,-0.1 0.17,12.96 -0.13,25.91 0.13,38.88 -2.98,1.94 -6.13,4 -9.85,3.94 -12.88,0.28 -25,5.1 -37.74,6.33 -13.14,2.81 -26.66,3.54 -39.61,7.24 -20.39,3.57 -41.08,5.65 -61.09,11.22 -0.02,-15.03 -0.11,-30.04 -0.04,-45.05 25.07,-6.34 50.77,-9.51 76.14,-14.31 10.25,-3.02 20.95,-2.88 31.41,-4.51 -4.9,-2.06 -10.12,-3.17 -15.38,-3.64zm-664.67 17.2c0.45,-7.57 -0.85,-15.58 2.54,-22.66 6.2,1.15 6.42,8.01 3.5,12.33 -2.91,3.89 2.77,6.17 4.89,8.76 -2.99,2.34 -7.33,4.55 -7.04,9.02 2.05,0.53 4.17,0.93 6.28,1.38 0.02,0.4 0.08,1.19 0.11,1.59 -0.18,3.28 -0.47,6.59 -0.6,9.89 -3.42,5.95 -4.06,14.23 2.44,18.37 1.26,-3.55 2.45,-7.12 3.51,-10.74 2.26,6.17 -0.23,13.34 -4.14,18.31 -3.74,2.87 -7.17,-1.87 -8.19,-5.1 -4.06,-13.29 -3.06,-27.43 -3.3,-41.15zm49.38 -117.45c12.74,-5.92 26.68,-8.62 40.42,-11.13 3.64,-0.85 7.46,-0.66 10.74,1.36 -1.24,4.6 -2.89,9.21 -6.1,12.85 -0.17,-1.23 -0.52,-3.68 -0.69,-4.91 -4.5,1.4 -8.93,2.87 -13.35,4.4 2.75,2.4 5.49,4.82 8.21,7.29 -6.02,1.98 -11.02,-2.49 -15.06,-6.25 -5.14,2.83 -8.07,9.08 -13.52,10.97 -4.57,-3.78 -14.82,-6.99 -10.65,-14.58zm55.56 -13.47c11.57,-2.63 23.22,-5.16 34.27,-9.61 4.11,9.06 -1.33,19.2 -5.06,27.58 -0.1,-7.14 1.58,-14.09 3.13,-21.01 -6.31,1.81 -12.5,3.92 -18.61,6.21 -2.8,13.63 -4.99,27.39 -8.22,40.93 -1.17,5.05 -2.87,10.45 -0.36,15.44 -3.03,4 -7.47,7.74 -11.47,11.12 3.45,-23.37 7.45,-46.95 6.32,-70.66zm73.32 -5.1l0 0c-1.71,5.55 -2.56,11.38 -2.62,17.2 4.17,-2.97 9.02,-5.78 11.04,-10.76 1.8,-3.7 0.29,-7.86 -0.13,-11.69 -2.92,1.36 -6.74,2.08 -8.29,5.25zm17.26 21.27l0 0c7.57,-5.6 15.08,-16.38 9.53,-25.71 -8.81,5.36 -5.75,17.33 -9.53,25.71zm9.68 0.17l0 0c8.8,-3.72 19.69,-14.02 13.2,-24.08 -6.02,7 -7.98,16.48 -13.2,24.08zm11.2 -0.64l0 0c7.17,-2.68 12.01,-9.76 13.14,-17.18 -6.4,3.85 -9.08,11.29 -13.14,17.18zm-5.14 5.82l0 0c-2.19,11.25 -6.06,22.07 -8.38,33.26 8.76,-10.74 15.39,-23.41 19.3,-36.72 -3.67,1.08 -7.31,2.25 -10.92,3.46z"/>
   <path class="fil7" d="M39.7 779.61c71.28,-0.06 142.55,0.02 213.81,-0.04 29.15,0.19 58.05,10.63 80.58,29.15 12.15,9.5 21.8,21.63 30.79,34.06 0.03,-21.05 0.03,-42.12 -0.02,-63.17 59.48,0.09 118.95,-0.25 178.44,0.17 -0.29,41.42 -0.06,82.84 -0.12,124.26 -8.3,0 -16.61,-0.02 -24.92,-0.02 19.22,86.92 38.29,173.89 57.64,260.77 19.41,-86.94 39,-173.84 58.35,-260.79 -8.57,0.04 -17.12,0.04 -25.69,0.02 -0.11,-41.44 -0.49,-82.95 -0.02,-124.41 59.37,-0.04 118.73,0 178.1,-0.02 0,41.5 0,82.97 0,124.47 -11.67,-0.04 -23.33,-0.02 -34.98,-0.02 -37.59,155.04 -74.87,310.17 -112.61,465.2 -41.84,-0.13 -83.67,-0.06 -125.49,-0.06 -38.19,-155.01 -76.15,-310.08 -114.29,-465.1 -2.66,-0.04 -5.32,-0.1 -7.96,-0.12 7.36,34.13 10.57,69.46 6.09,104.23 -4.79,41.49 -20.33,82.93 -49.48,113.52 -24.27,25.73 -58.88,41.68 -94.35,42.32 -20.92,0.21 -41.85,0 -62.79,0.11 0,28.57 0.02,57.15 0,85.73 10.67,0.36 21.35,0.1 32.02,0.17 -0.06,39.72 0.11,79.44 -0.08,119.16 -60.75,-0.04 -121.48,-0.04 -182.21,0 -0.19,-39.72 -0.02,-79.44 -0.08,-119.14 10.84,-0.02 21.67,0 32.53,-0.02 0,-115.35 0.08,-230.67 -0.04,-346.02 -11.08,0 -22.16,0.07 -33.24,-0.06 0.07,-41.46 0,-82.89 0.02,-124.35zm839.09 201.15c5.98,-26.49 11.62,-53.07 17.97,-79.48 5.94,27.92 12.23,55.75 18.31,83.63 3.09,15.84 7,31.49 10.25,47.29 3.38,15.9 6.8,31.79 10.4,47.65 4.87,22.11 9.59,44.27 14.27,66.44 -35.92,0.09 -71.87,0.09 -107.79,0.07 1.93,-10.8 4.49,-21.46 6.89,-32.17 5.83,-26.13 11.7,-52.25 17.39,-78.4 4.07,-18.35 8.42,-36.64 12.31,-55.03zm17.82 -1l0 0c-11.44,49.86 -22.49,99.79 -33.42,149.76 21.92,0 43.86,-0.02 65.77,0.02 -10.45,-49.99 -21.86,-99.79 -32.35,-149.78zm-722.82 -92.58c18.35,0.13 36.72,-0.15 55.07,0.11 17.74,0.3 35.64,7.02 47.89,20.13 15.33,16.29 21.47,39.26 21.56,61.2 0.76,23.05 -5.28,47.08 -20.37,64.96 -11.17,12.33 -26.67,21.14 -43.55,21.88 -20.03,0.72 -40.1,0.06 -60.13,0.25 -0.17,-2.42 -0.32,-4.84 -0.45,-7.23 -0.11,-53.77 0,-107.54 -0.02,-161.3zm17.03 16.88l0 0c-0.06,44.93 -0.04,89.88 -0.02,134.81 15.16,-0.29 30.39,0.73 45.52,-0.57 18.04,-2.04 32.35,-16.27 38.83,-32.6 8.19,-20.64 8.27,-44.2 1.72,-65.28 -5.12,-16.58 -18.54,-30.95 -35.87,-34.57 -16.5,-3.36 -33.47,-1.23 -50.18,-1.79zm587.31 102.07c18.7,-75.53 36.85,-151.21 55.89,-226.65 41.31,0.38 82.64,-0.15 123.96,0.24 0.36,0.49 1.09,1.49 1.47,1.98 37.4,154.07 74.95,308.12 112.29,462.22 3.29,0.08 6.59,0.12 9.89,0.19 0.02,-113.34 0.02,-226.67 0.02,-340 -10.61,-0.3 -21.22,0.21 -31.81,-0.22 -0.71,-41.4 -0.09,-82.86 -0.3,-124.28 44.38,-0.06 88.77,0.06 133.15,-0.06 39.51,120.54 78.55,241.25 117.93,361.85 0.53,0.86 1.57,2.64 2.1,3.52 38.34,-121.76 76.46,-243.6 114.84,-365.35 94.73,0.06 189.46,-0.02 284.19,0.04 -0.07,41.48 0.13,82.97 -0.11,124.45 -10.91,-0.06 -21.83,-0.02 -32.72,-0.02 -0.05,76.3 -0.05,152.61 0,228.92 0.97,29.16 6.16,60.8 26.66,83.04 23.24,26.19 69.55,23.7 91.12,-3.36 17.77,-21.59 22.66,-50.61 23.53,-77.8 0.13,-76.93 0.05,-153.85 0.04,-230.78 -10.73,-0.06 -21.43,0 -32.14,-0.04 0.04,-41.48 0,-82.95 0.02,-124.43 60.72,0 121.43,-0.02 182.14,0.02 0.02,41.46 -0.02,82.89 0.02,124.35 -10.65,0.13 -21.28,0.06 -31.9,0.06 -0.15,61.81 -0.02,123.61 -0.08,185.44 -0.17,29.05 0.98,58.24 -2.92,87.12 -5.61,45.37 -21.28,90.43 -50.07,126.4 -26.73,33.9 -66.47,57.78 -109.53,63.11 -35.59,4.43 -72.74,-0.95 -104.84,-17.26 -25.03,-12.55 -46.59,-31.66 -62.82,-54.42 -34.14,-47.71 -46.37,-107.61 -46.93,-165.38 -0.15,-74.76 -0.02,-149.54 -0.06,-224.31 -10.52,0.05 -21.01,-0.1 -31.51,0.11 0.11,113.23 0,226.46 0.06,339.68 10.98,0.08 21.99,-0.04 32.98,0.09 -0.08,41.52 0.04,83.03 -0.06,124.56 -46.99,0.08 -93.99,-0.09 -141,0.08 -0.83,-73.57 0.07,-147.18 -0.98,-220.75 -0.66,1.25 -1.98,3.74 -2.65,4.99 -21.82,71.66 -43.3,143.45 -65.52,214.97 -0.83,0.18 -2.53,0.54 -3.36,0.73 -25.98,-0.24 -51.98,0.51 -77.91,-0.41 -22.62,-75.37 -46.35,-150.41 -68.89,-225.79 -0.89,30.6 -0.1,61.22 -0.29,91.84 -0.01,44.78 0.04,89.56 -0.03,134.36 -52.33,-0.32 -104.65,0.64 -156.96,-0.02 -17.82,0.06 -35.64,-0.09 -53.44,0.1 -9.29,-40.19 -17.88,-80.54 -27.02,-120.75 -39,0.06 -78,0.06 -116.99,0 -9.4,40.08 -17.52,80.46 -27.2,120.46 -41.84,0.59 -83.71,-0.13 -125.56,0.34 -0.68,-41.58 -0.08,-83.19 -0.3,-124.8 11.8,-0.28 23.67,0.64 35.45,-0.57 18.93,-79.36 38.85,-158.52 58.15,-237.81zm51.21 -137.45l0 0c-9.89,41.27 -20.63,82.33 -30.03,123.71l-0.49 0.04c-4.5,19.08 -9.24,38.11 -13.8,57.18 -6.84,26.81 -13.12,53.74 -19.96,80.55 -3.76,16.75 -8.38,33.32 -12.16,50.07 -5.32,22.33 -11,44.59 -16.55,66.87 -0.98,4.88 -2.12,9.74 -3.25,14.61 -10.48,0 -20.94,0.15 -31.39,-0.12 -0.12,30.23 -0.42,60.45 -0.04,90.68 31.79,-0.06 63.6,0.02 95.39,-0.04 8.61,-38.47 16.99,-77.01 25.54,-115.48 0.48,-1.74 0.95,-3.45 1.44,-5.15 44.51,0.05 89.05,-0.06 133.56,0.11 2.36,0.06 4.68,-0.23 6.97,-0.91 3.3,0.36 5.11,2.59 5,5.91 8.12,38.59 17.03,77.03 25.47,115.56 60.01,-0.04 120.05,0.02 180.06,-0.04 -0.13,-57.07 0.43,-114.2 -0.3,-171.23 0.64,-17.72 0.4,-35.51 0.11,-53.22 0.59,-26.94 0.02,-53.87 0.19,-80.8 -0.04,-5.13 -0.02,-10.27 0.23,-15.38 2.28,5.77 4.02,11.74 5.81,17.69 6.72,21.71 13.27,43.48 19.84,65.24l0.63 0.44c5.83,20.84 12.36,41.51 18.74,62.2 17.99,58.35 35.57,116.86 53.83,175.12 18.57,-0.1 37.15,0 55.72,-0.04 22.39,-73.99 45.27,-147.84 67.13,-221.97l0.52 -0.19c4.09,-14.56 8.89,-28.92 12.85,-43.52l0.47 -0.02c5.14,-18.16 11.14,-36.07 15.97,-54.33 1.4,21.07 -0.09,42.23 0.99,63.32 -0.02,12.06 -0.55,24.14 0.26,36.19 -0.4,73.53 -0.02,147.08 0.4,220.61 35.68,-0.2 71.34,-0.02 107.02,-0.09 0.06,-30.24 0.02,-60.47 0.02,-90.71 -10.67,0.05 -21.34,-0.1 -32,0.13 -0.47,-3.87 -0.78,-7.74 -0.68,-11.63 0.3,-45.84 -0.28,-91.67 0.04,-137.49 0.15,-15.84 -0.3,-31.66 0.03,-47.5 0.17,-27.47 -0.18,-54.95 -0.18,-82.42l-0.27 1.15c0.98,-19.86 0.15,-39.83 0.34,-59.73 -0.06,-12.25 0.06,-24.51 0.15,-36.76 21.49,0.06 43.01,-0.34 64.49,0.1 1.66,7.55 0.19,15.76 0.68,23.56 -0.06,21.5 -0.11,43 0,64.5 0.08,24.98 -0.15,49.94 -0.13,74.89 0.47,19.09 -0.3,38.2 0.19,57.26 -0.87,39.12 1.98,78.82 14.01,116.27 10.21,32.55 27.35,63.57 52.84,86.64 40.17,37.25 100.75,49.18 152.78,33.47 33.51,-10.08 62.13,-33.15 81.87,-61.73 27.85,-40.27 39.67,-89.6 41.39,-138 0.37,-25.75 0,-51.52 0.15,-77.27 0.05,-24.73 -0.06,-49.45 0,-74.18 0.03,-25.5 -0.04,-51.01 -0.04,-76.49 0.07,-9.71 0,-19.41 0.06,-29.11 10.68,-0.02 21.37,0.04 32.07,-0.02 0.23,-17.26 -0.11,-34.53 0.17,-51.78 -0.26,-12.97 0.04,-25.92 -0.13,-38.88 -18.67,-0.2 -37.36,-0.39 -56.03,0.1 -30.7,-0.45 -61.43,-0.08 -92.13,-0.21 -0.04,7.55 0.04,15.1 -0.04,22.67 -0.07,15.01 0.02,30.02 0.04,45.05 -0.06,7.68 -0.06,15.38 -0.02,23.09 10.69,0.05 21.39,-0.27 32.09,0.24 -0.11,14.31 -0.11,28.64 -0.01,42.97 0.01,26.07 -0.17,52.14 -0.04,78.21 0.07,24.7 -0.13,49.41 -0.02,74.1 -0.59,33.04 2.66,66.83 -6.5,99.04 -6.24,23.2 -19.29,45.74 -40.32,58.37 -23.18,13.65 -53.58,15.08 -77.53,2.58 -20.58,-10.78 -34.27,-31.24 -41.61,-52.78 -11.61,-33.04 -9.23,-68.53 -9.5,-102.94 0.51,-17.24 -0.24,-34.51 0.14,-51.75 0.32,-28.64 -0.4,-57.28 0.03,-85.9 0,-17.21 -0.07,-34.43 -0.05,-51.63 -0.1,-3.32 -0.14,-6.62 -0.21,-9.93 10.97,-1.43 22.05,-0.34 33.09,-0.73 -0.11,-18.3 0.32,-36.63 -0.17,-54.92 0.47,-11.9 0.06,-23.83 0.17,-35.74 -84.72,-0.15 -169.45,0.25 -254.16,-0.21 -3.87,8.97 -6.13,18.5 -9.25,27.74 -6.23,20.61 -13.4,41.09 -18.93,61.82l0.41 1.1 -1.32 0.73c-5.7,17.07 -11.16,34.46 -16.05,51.86l-0.51 -0.68c-8.53,29.91 -18.63,59.36 -27.61,89.13 -7.01,22.58 -14.43,45.02 -21.28,67.64 -4.78,15.93 -10.19,31.66 -14.84,47.61 -6.04,19.5 -12.36,38.89 -18.42,58.39 -5.5,-13.99 -9.75,-28.47 -14.33,-42.78 -5.63,-17.4 -11.48,-34.73 -17.03,-52.18 -7.33,-23.2 -15.22,-46.23 -22.64,-69.39 -6.3,-20.2 -13.27,-40.18 -19.48,-60.4l-0.42 0.12c-5.07,-17.77 -11.47,-35.13 -16.59,-52.9l-0.62 0.02c-5.57,-18.73 -11.86,-37.21 -17.82,-55.81 -8.2,-23.95 -15.03,-48.4 -24.04,-72.04 -34.39,0.51 -68.79,0.08 -103.18,0.21 -0.06,30.28 -0.04,60.56 0,90.83 10.66,0.02 21.35,-0.15 32.03,0.13 -0.07,18.16 0.04,36.34 0,54.5 -0.11,19.45 0.04,38.89 0.02,58.34 -0.06,19.91 -0.07,39.83 -0.02,59.76 0.06,25.26 -0.11,50.5 -0.02,75.76 0.08,17.09 -0.07,34.15 0.02,51.24 -0.04,24.88 0.15,49.76 -0.19,74.66 -13.17,-0.07 -26.37,-0.11 -39.55,0.02 -4.51,-16.46 -8.51,-33.05 -12.29,-49.69 -6.17,-25.54 -12.7,-50.99 -18.71,-76.55 -5.41,-23.39 -11.66,-46.57 -16.95,-69.98l-0.36 0.13c-2.96,-15.29 -7.17,-30.32 -10.72,-45.48 -3.94,-15.57 -7.49,-31.24 -11.31,-46.85 -14.76,-58.9 -28.18,-118.16 -43.42,-176.95 -32.58,0.26 -65.17,0.17 -97.75,0.06 -6.57,23.97 -11.93,48.27 -18.07,72.36zm-772.94 -71.08l0 0c0.47,29.85 0.08,59.69 0.21,89.54 11.04,0.6 22.47,-0.91 33.28,0.7 0.27,59.71 0.14,119.46 0.08,179.19 -0.04,17.64 0.15,35.29 0.09,52.94 -0.09,20.88 0.06,41.78 -0.11,62.66 0.57,22.73 -0.49,45.51 0.32,68.22 -0.11,5.53 -0.17,11.08 -0.43,16.62 -10.76,-0.25 -21.52,-0.04 -32.28,-0.17 0.22,28.33 -0.7,56.67 0.2,84.99 49.39,-0.14 98.76,0 148.12,-0.04 0.02,-19.24 0,-38.48 -0.21,-57.71 0.82,-9.08 0.02,-18.2 0.25,-27.3 -10.76,0.02 -21.5,0.06 -32.26,0.02 0.66,-32.68 -0.27,-65.38 0.13,-98.06 -0.04,-7.26 0.02,-14.5 0,-21.75 25.92,-0.5 51.86,0.04 77.8,-0.26 20.8,-0.38 41.53,-6.19 59.26,-17.14 22.05,-13.44 39.02,-34.06 50.48,-56.99 8.59,-17.83 14.84,-36.82 17.73,-56.41 5.6,-34.49 4.17,-70.08 -3.55,-104.14 -7.93,-33.6 -23.75,-66.56 -50.45,-89.23 -20.31,-17.47 -46.97,-26.77 -73.66,-26.87 -58.51,-0.02 -116.99,0 -175.5,-0.02 -6.51,0.1 -13.15,-0.68 -19.5,1.21zm325.03 2.93l0 0c0.72,28.86 -0.13,57.73 0.21,86.61 10.27,0.1 20.54,0.13 30.81,-0.04 13.74,54.69 26.94,109.52 40.49,164.24 2.91,12.63 6.33,25.13 9.27,37.76 4.21,16.92 8.14,33.91 12.56,50.79 5.1,20.8 10.1,41.62 15.16,62.43 5.27,19.5 9.4,39.28 14.55,58.82 7.59,30.34 14.69,60.79 22.39,91.11 32.95,0.04 65.89,-0.06 98.85,0.04 10.02,-40.63 19.86,-81.33 29.36,-122.09 5.06,-18.07 8.93,-36.51 13.25,-54.77l0.47 -0.24c5.19,-22.15 10.37,-44.31 15.92,-66.38 5.51,-22.45 10.59,-44.99 16.4,-67.36 2.51,-11.83 5.53,-23.58 8.65,-35.26l-1.48 0.04 1.29 -0.42c9.53,-39.34 19.1,-79.1 28.73,-118.59 10.48,-0.04 20.98,0.02 31.47,-0.02 -0.32,-30.28 0.53,-60.58 -0.45,-90.83 -48.01,0.12 -96.04,-0.07 -144.06,0.08 -0.63,30.2 -0.04,60.43 -0.29,90.65 10.1,0.21 20.22,0 30.32,0.17 -9.57,44.42 -19.95,88.67 -29.5,133.1 -3.12,11.36 -5.23,23.01 -7.71,34.52l-0.45 -0.18c-4.61,23.48 -10.25,46.78 -15.56,70.13 -3.96,20.29 -9.21,40.34 -13.42,60.6 -4.11,19.07 -8.53,38.08 -12.89,57.09 -4.1,-17.5 -8.01,-35.04 -11.82,-52.6 -4.21,-20.76 -9.44,-41.3 -13.63,-62.07l-0.36 0.11c-3,-17.21 -7.36,-34.15 -10.99,-51.21 -3.06,-13.41 -5.68,-26.91 -8.89,-40.25 -10.87,-49.79 -21.99,-99.51 -32.85,-149.31 9.71,0 19.39,0.02 29.08,0 -0.17,-30.3 0.32,-60.64 -0.25,-90.94 -46.23,0.34 -92.45,0.02 -138.68,0.15 -2.62,-0.15 -6.8,0.38 -5.95,4.12z"/>
  </g>
 </g>
</svg>
