<?xml version="1.0" encoding="UTF-8"?>
<!DOCTYPE svg PUBLIC "-//W3C//DTD SVG 1.1//EN" "http://www.w3.org/Graphics/SVG/1.1/DTD/svg11.dtd">
<!-- Creator: CorelDRAW -->
<svg xmlns="http://www.w3.org/2000/svg" xml:space="preserve" width="2000px" height="1600px" version="1.1" style="shape-rendering:geometricPrecision; text-rendering:geometricPrecision; image-rendering:optimizeQuality; fill-rule:evenodd; clip-rule:evenodd"
viewBox="0 0 2000 1600"
 xmlns:xlink="http://www.w3.org/1999/xlink">
 <defs>
  <style type="text/css">
   <![CDATA[
    .fil1 {fill:black}
    .fil0 {fill:#EB8E23}
   ]]>
  </style>
 </defs>
 <g id="Capa_x0020_1">
  <metadata id="CorelCorpID_0Corel-Layer"/>
  <g id="Princeton_x0020_Tigers.cdr">
   <path class="fil0" d="M1204.59 0.29c234.64,15.61 407.47,220.87 418.41,450.19 17.26,253.75 -171.07,506.95 -438.45,509.25l-265.46 1.41 0.85 318.14 151.07 -0.43 11.28 320.02 -706.68 1.13 0 -320.47 162.06 -0.57 0.22 -958.52 -162.28 -0.1 0 -320.05 828.98 0zm-146.32 638.85c97.83,3.94 209.87,-59.13 202.47,-167.56 -3.65,-73.56 -66.54,-127.54 -134.22,-144.54 -47.08,-12.25 -152.94,-7.23 -207.86,-6.81 0.44,106.07 1.6,213.3 0.11,319.2 46.41,-0.88 93.08,-0.45 139.5,-0.29z"/>
   <g>
    <path class="fil1" d="M1623 450.48l0 0c0.26,3.93 0.48,7.86 0.65,11.79l0.01 0.16c0.16,3.88 0.28,7.75 0.35,11.62l0.01 0.35c0.06,3.8 0.08,7.59 0.06,11.38l0 0.6c-0.03,3.7 -0.1,7.41 -0.22,11.11l-0.02 0.88c-0.12,3.62 -0.28,7.23 -0.48,10.84l-0.06 1.11c-0.19,3.49 -0.43,6.97 -0.71,10.44l-0.12 1.61c-0.28,3.33 -0.58,6.65 -0.92,9.97l-0.22 2.05c-0.34,3.2 -0.71,6.4 -1.12,9.59l-0.3 2.32c-0.4,3.07 -0.83,6.13 -1.29,9.18l-0.42 2.71c-0.44,2.83 -0.9,5.65 -1.39,8.47 -0.2,1.15 -0.41,2.31 -0.62,3.46 -0.47,2.63 -0.97,5.26 -1.49,7.88 -0.25,1.27 -0.5,2.53 -0.76,3.79 -0.51,2.47 -1.04,4.92 -1.58,7.38 -0.33,1.45 -0.65,2.91 -0.99,4.36 -0.52,2.3 -1.07,4.59 -1.63,6.87 -0.41,1.63 -0.81,3.27 -1.23,4.9 -0.54,2.1 -1.09,4.2 -1.66,6.29 -0.48,1.78 -0.97,3.56 -1.47,5.34 -0.55,1.95 -1.11,3.89 -1.68,5.84 -0.55,1.86 -1.12,3.73 -1.69,5.59 -0.57,1.87 -1.16,3.73 -1.75,5.6 -0.58,1.81 -1.18,3.63 -1.78,5.44 -22,-48.55 -43.01,-97.62 -67.81,-144.83 -50.34,-99.21 -120.11,-186.4 -185.23,-276 -42.03,-57.64 -87.75,-112.4 -132.94,-167.53 87.54,60.77 170.29,128.62 245.63,204.03 51.15,51.01 93.82,109.46 139.05,165.54 8.19,10.29 16.17,20.86 25.82,29.87zm-51.21 253.84c-0.82,1.65 -1.64,3.29 -2.47,4.93 -1.02,2 -2.05,3.99 -3.09,5.97 -0.84,1.61 -1.69,3.21 -2.55,4.8 -0.97,1.8 -1.95,3.59 -2.94,5.37 -0.85,1.53 -1.7,3.06 -2.56,4.57 -0.99,1.75 -2,3.49 -3.01,5.22 -0.91,1.57 -1.84,3.12 -2.77,4.68 -1.09,1.82 -2.19,3.63 -3.3,5.44 -0.94,1.51 -1.88,3.01 -2.82,4.51 -1.15,1.82 -2.31,3.63 -3.48,5.43 -1.01,1.55 -2.02,3.1 -3.05,4.64 -1.1,1.66 -2.22,3.31 -3.35,4.96 -0.97,1.43 -1.96,2.85 -2.95,4.27 -1.17,1.68 -2.36,3.36 -3.55,5.02 -1.02,1.42 -2.05,2.83 -3.08,4.24 -1.37,1.86 -2.75,3.72 -4.14,5.56 -0.99,1.3 -1.98,2.6 -2.98,3.9 -1.36,1.75 -2.72,3.49 -4.1,5.23 -1.02,1.28 -2.05,2.57 -3.08,3.84 -1.34,1.65 -2.69,3.29 -4.05,4.93 -1.02,1.23 -2.06,2.45 -3.09,3.67 -1.56,1.83 -3.12,3.64 -4.7,5.44 -0.93,1.06 -1.86,2.11 -2.79,3.16 -1.66,1.85 -3.33,3.69 -5.01,5.52 -0.99,1.07 -1.98,2.14 -2.97,3.2 -1.59,1.69 -3.19,3.37 -4.8,5.04 -1.06,1.09 -2.12,2.18 -3.2,3.27 -1.62,1.65 -3.26,3.29 -4.91,4.91 -0.99,0.98 -1.99,1.95 -2.99,2.91 -1.85,1.8 -3.72,3.57 -5.6,5.34 -0.94,0.87 -1.88,1.74 -2.82,2.61 -1.85,1.7 -3.7,3.38 -5.58,5.04 -1.14,1.02 -2.29,2.03 -3.44,3.04 -1.63,1.42 -3.27,2.83 -4.92,4.23 -1.2,1.01 -2.39,2.01 -3.59,3.01 -1.81,1.49 -3.62,2.97 -5.44,4.43 -1.16,0.93 -2.32,1.85 -3.48,2.77 -1.85,1.45 -3.71,2.89 -5.59,4.32 -1.38,1.05 -2.77,2.1 -4.16,3.14l-0.06 0.04 -0.03 0.02c-0.67,0.5 -1.35,1 -2.03,1.49 -40.9,-60.8 -81.19,-122.05 -124.64,-181.08 -27.17,-38.06 -55.87,-74.98 -83.46,-112.62 -0.04,-1.07 -0.13,-3.15 -0.17,-4.33 19.96,-19.89 34.32,-44.46 39.72,-73.16 2.42,-11.56 3.34,-23.43 2.55,-35.3 -1.92,-38.59 -21.78,-74.92 -50.23,-100.53 -18.1,-16.42 -39.52,-28.96 -62.43,-37.44 -7.26,-2.74 -14.65,-5.06 -22.09,-6.93 -4.98,-1.29 -10.61,-2.39 -16.77,-3.33 -4,-0.63 -8.01,-1.14 -12.04,-1.55 -27.81,-3.03 -63.17,-3.51 -97.09,-3.23 -20.22,-25.65 -42.67,-49.45 -64.54,-73.68 -78.22,-86.69 -159.37,-171.33 -250.25,-244.96l177.43 0c129.14,82.32 249.57,178.13 359.7,284.51 103.86,99.99 199.24,208.88 283.2,326.07 21.91,31.16 44.96,61.48 65.65,93.42l-0.02 0.03zm-557.76 894.66l-198.74 0.32c-37.11,-71.59 -77.83,-141.5 -126.34,-206.02 -46.85,-61.54 -90.94,-126.06 -147.76,-179.09 -4.44,-3.69 -2.91,-9.97 -3.41,-14.97 0.39,-26.28 -0.25,-52.6 0.46,-78.92 115.85,90.41 220.31,194.41 320.83,301.36 53.56,57.32 107.16,114.89 154.9,177.24l0.06 0.08zm-412.18 0.66l-6.09 0.01c-18.82,-1.27 -37.69,-0.19 -56.56,-0.71 -42.64,-69.42 -101.16,-127.45 -163.59,-179.09l0 -140.32 39.18 -0.14c48.54,63.64 89.93,132.38 128.84,202.18 21.05,38.48 43.15,76.71 58.22,118.07zm-226.24 -1433.24l0 -166.11 112.76 0c48.06,39.33 94.71,80.59 137.52,125.63 76.9,79.28 153.3,159.16 225.48,242.8 23.24,26.28 44.91,53.91 67.93,80.37l0.03 1.29 0 0.69c-0.63,56.84 0.46,113.68 -0.56,170.52 -46.82,-47 -92.83,-94.82 -141.03,-140.36 -122.77,-118.19 -253.05,-230.91 -402.13,-314.83zm163.3 490.94c50.41,62.39 90.56,132.27 131.92,200.76 36.92,62.22 73.25,124.93 103.93,190.52 30.18,63.95 61.57,127.48 86.69,193.66 -15.79,-18.73 -33.2,-36 -47.82,-55.68 -66.75,-81.73 -135.1,-162.21 -207.11,-239.36 -21.67,-23.27 -44.51,-45.4 -67.46,-67.29 -0.78,-74.16 -0.57,-148.41 -0.15,-222.61zm397.1 -17.91c40.93,-0.25 81.86,-0.18 122.79,-0.04 66.33,98.01 125.89,201.87 163.52,314.52 -50.58,-68.64 -110.98,-128.97 -169.26,-190.9 -38.88,-41.36 -78.32,-82.15 -117.05,-123.58zm-319.02 -118.33c67.88,58.45 134.43,118.68 196.75,183.13 77.29,81.02 150.82,165.69 220.02,253.69 -38.02,0.78 -76.22,1.45 -114.25,0 -38.45,-63 -77.5,-125.75 -119.43,-186.51 -48.45,-69.59 -99.78,-137.05 -150.53,-204.94 -10.75,-15.19 -22.88,-29.44 -32.56,-45.37z"/>
   </g>
  </g>
 </g>
</svg>
