<?xml version="1.0" encoding="UTF-8"?>
<!DOCTYPE svg PUBLIC "-//W3C//DTD SVG 1.1//EN" "http://www.w3.org/Graphics/SVG/1.1/DTD/svg11.dtd">
<!-- Creator: CorelDRAW -->
<svg xmlns="http://www.w3.org/2000/svg" xml:space="preserve" width="2000px" height="1600px" version="1.1" style="shape-rendering:geometricPrecision; text-rendering:geometricPrecision; image-rendering:optimizeQuality; fill-rule:evenodd; clip-rule:evenodd"
viewBox="0 0 2000 1600"
 xmlns:xlink="http://www.w3.org/1999/xlink">
 <defs>
  <style type="text/css">
   <![CDATA[
    .fil2 {fill:#050305;fill-rule:nonzero}
    .fil0 {fill:#B6B7BA;fill-rule:nonzero}
    .fil1 {fill:#FBFDFB;fill-rule:nonzero}
   ]]>
  </style>
 </defs>
 <g id="Capa_x0020_1">
  <metadata id="CorelCorpID_0Corel-Layer"/>
  <g id="Providence_x0020_Friars.cdr">
   <path class="fil0" d="M1166.99 204l58.48 0c65.76,5.73 130.5,22.88 190.37,50.77 43.01,20.91 84.85,46.65 117.09,82.48 -29.84,16.78 -59.62,33.63 -89.38,50.57 5.81,16.9 12.21,33.62 18.29,50.45 0.53,2.77 2.85,6.53 0.11,8.85 -6.75,7.63 -15.58,13.28 -21.47,21.68 -0.08,4.03 1.55,7.84 2.8,11.6 8.93,23.55 16.21,47.68 24.75,71.36 4.85,13.17 6.16,28.99 -1.79,41.23 -5.44,8.96 -17.95,10.64 -22.16,20.64 -10.08,18.91 -20.27,37.76 -30.13,56.8 4.16,14.4 11.25,27.95 13.97,42.69 -21.6,35.39 -46.75,68.67 -67.68,104.48 66.51,37.31 140.37,57.84 213.01,79.39 6.03,1.81 12.32,2.51 18.64,2.53 120.03,-0.16 240.06,0 360.09,-0.08 15.99,0.11 32.05,-0.56 48.02,0.88l0 5.92c-3.12,9.15 -5.25,18.59 -6.83,28.14 -25.06,125.33 -50.29,250.64 -75.3,375.97 -6,28.5 -11.02,57.25 -17.58,85.65l-1184.48 0c-66.1,-1.2 -132.21,-0.18 -198.32,-0.53 -101.52,0.02 -203.04,-0.03 -304.56,0.05 -3.2,-14.48 -5.84,-29.06 -9.62,-43.41 -67.76,0.16 -135.55,0.18 -203.31,0l0 -2.67c10.37,-11.86 18.16,-25.62 26.99,-38.61 13.01,-19.79 26.16,-39.47 39.17,-59.23 6.37,-9.89 14.61,-19.12 16.88,-31.01 18.03,-87.44 36,-174.93 54.16,-262.38 0.85,-4.69 0.83,-9.51 -0.32,-14.16 -8.59,-33.75 -18.13,-67.33 -25.28,-101.44 64.11,-0.37 128.21,-0.05 192.32,-0.18 20.43,0.02 41.12,-0.48 61.2,3.89 8.37,1.68 16.08,5.58 24.43,7.36 6.29,-1.52 11.7,-5.33 17.46,-8.13 32.32,-16 64.86,-31.6 97.82,-46.21 62.72,-28.94 125.09,-61.5 175.97,-108.99 22,-21.25 41.33,-45.58 55.17,-72.94 20.43,-39.38 29.76,-83.83 31.28,-127.97 1.82,-46.21 -7.17,-93.01 -27.54,-134.64 -7.6,-15.15 -17.98,-28.59 -27.31,-42.64 30.19,-2.93 60.64,-4.27 90.29,-11.15 50.91,-9.81 98.32,-31.38 147.02,-48.37 70.1,-24.93 142.9,-43.31 217.28,-48.64z"/>
   <path class="fil1" d="M1237.79 478.59c50.37,-27.31 100.34,-55.36 150.85,-82.46 3.97,12.7 8.32,25.29 12.72,37.87 -8.19,7.44 -16.4,14.85 -24.59,22.32 -2.88,-6.93 -5.86,-13.81 -8.69,-20.75 -27.73,15.2 -55.79,29.82 -83.07,45.79 15.66,0.75 31.31,0.96 46.96,1.79 -3.2,9.49 -6.18,19.04 -9.12,28.64 21.47,-12.59 42.75,-25.47 64.3,-37.95 10.96,30.67 22.08,61.31 31.78,92.43 -19.57,-0.05 -39.17,0.32 -58.72,-0.14 -7.62,-3.09 -13.76,-8.96 -20.88,-13.01 1.74,14.13 5.36,27.97 7.55,42.06 11.07,0.23 22.16,0.1 33.25,0.13 -3.62,8.34 -7.01,16.77 -10.9,24.98 -19.63,2.99 -37.58,11.95 -54.3,22.27 20.3,0.19 40.56,-0.8 60.83,-0.91 -4.61,5.92 -8.56,12.43 -13.89,17.74 -9.92,6.66 -21.15,11.06 -31.34,17.31 9.26,1.01 18.51,1.83 27.76,2.9 4.7,9.55 9.55,19.04 14.54,28.45 -10.91,14.7 -21.47,29.68 -32.83,44.03 -46.21,-8.4 -92.99,-23.65 -128.91,-55.04 -23.94,-20.51 -34.88,-53.86 -30.93,-84.72 4.27,-11.39 9.81,-22.27 14.32,-33.57 20.21,6.16 40.03,13.62 60.27,19.73 -14.46,-35.39 -25.2,-73.33 -23.28,-111.89 -1.04,-4.48 3.14,-6.4 6.32,-8zm530.72 472.8c56.37,-0.14 112.74,0 169.14,-0.08 -5.6,29.25 -11.6,58.4 -17.2,87.63 -16,-9.26 -30.16,-21.44 -45.92,-30.99 -11.35,-1.07 -22.8,-0.32 -34.18,-0.35 -3.31,17.31 -6.83,34.59 -10.19,51.89 15.68,0 31.39,0.03 47.07,0.06 -3.02,16.59 -6.64,33.07 -9.66,49.65 -15.81,0.06 -31.57,0 -47.36,0.08 -3.41,19.31 -7.89,38.43 -11.12,57.79 11.74,-0.83 23.92,1.57 35.36,-1.41 19.9,-10.86 39.68,-22.03 59.26,-33.44 -4.43,30.58 -12.32,60.58 -17.87,90.98 -57.04,-0.16 -114.08,-0.18 -171.15,0.03 9.12,-13.6 19.39,-26.51 27.82,-40.48 13.06,-62.43 26.18,-124.91 38.26,-187.52 -3.17,-14.86 -8.37,-29.17 -12.26,-43.84zm-139.28 6.77c12.96,-7.3 28.29,-6.91 42.72,-7.23 28.9,-0.07 57.84,0.03 86.77,-0.05 -5.63,29.44 -11.73,58.8 -17.25,88.27 -17.52,-0.19 -35.07,-0.3 -52.56,0.02 1.22,-10.66 3.68,-21.14 6,-31.6 -11.74,-0.13 -23.44,-0.05 -35.15,-0.02 -10.51,53.2 -21.01,106.4 -31.52,159.6 11.49,-0.22 22.96,-0.32 34.45,0.1 3.87,-14.61 6.06,-29.62 9.18,-44.4 18.48,0.22 36.96,0.03 55.46,0.06 -6.4,33.44 -13.2,66.8 -19.68,100.21 -34.16,-0.05 -68.32,0 -102.48,-0.02 -13.2,-0.19 -28.42,-3.07 -35.94,-15.18 -8.62,-13.95 -5.12,-31.14 -2.35,-46.26 10.43,-51.66 20.27,-103.42 30.8,-155.05 3.76,-19.3 13.76,-38.71 31.55,-48.45zm-234.38 -6.85c26.72,0 53.47,0.1 80.19,0 6.24,32.56 12.24,65.17 18.45,97.73 3.55,20.62 9.23,40.85 10.54,61.81 6.96,-53.62 20.16,-106.21 29.49,-159.44 25.65,-0.13 51.31,-0.16 76.99,0.03 -10.83,18.88 -22.54,37.33 -32.59,56.62 -11.15,51.06 -21.31,102.4 -32.13,153.54 -1.39,7.2 -3.52,14.32 -3.92,21.68 4.53,13.28 10.21,26.19 15.04,39.39 -27.04,-0.45 -54.06,0.08 -81.1,-0.29 -7.7,-40.73 -15.68,-81.39 -24,-122.01 -2.37,-11.73 -2.64,-23.7 -3.92,-35.57 -8.64,52.64 -18.96,105.12 -29.12,157.44 -25.41,2.08 -51.65,0.16 -77.38,0.96 8.64,-14.69 20.93,-27.25 28.02,-42.72 11.92,-56.93 23.87,-113.92 35.34,-170.93 -1.5,-19.55 -6.96,-38.8 -9.9,-58.24zm-176.96 -0.06c56.35,0.24 112.7,-0.05 169.07,0.14 -6.08,29.41 -11.47,58.98 -17.68,88.37 -14.72,-10.9 -29.73,-21.44 -44.96,-31.6 -11.49,-1.6 -23.23,-0.26 -34.83,-0.59 -3.2,17.34 -6.82,34.59 -10.1,51.92 15.76,0.03 31.52,-0.05 47.3,0.06 -3.68,16.53 -6.53,33.23 -10.13,49.76 -15.79,-0.08 -31.6,-0.22 -47.39,0.08 -2.9,19.33 -7.92,38.27 -10.64,57.63 13.84,-1.31 29.39,3.62 41.68,-4.64 17.98,-10.27 36.22,-20.06 54.24,-30.22 -5.38,30.45 -11.68,60.72 -17.78,91.04 -57.58,-0.21 -115.12,-0.05 -172.7,-0.08 9.2,-13.65 19.44,-26.72 27.95,-40.8 12.91,-62.08 25.65,-124.21 38.11,-186.37 -2.88,-15.17 -8.64,-29.66 -12.14,-44.7zm-470.64 -0.29c28.08,-0.08 56.16,0 84.24,-0.08 -6.32,16.7 -19.33,31.52 -18.82,50.16 -1.66,36.56 -5.07,73.04 -6.27,109.66 -0.24,17.04 -3.15,33.86 -4.51,50.8 14.22,-49.31 31.98,-97.5 47.66,-146.35 2.02,-8.48 8.1,-17.01 4.9,-25.92 -3.76,-12.78 -7.28,-25.63 -11.17,-38.35 106.45,0.11 212.91,0.03 319.36,0 12.32,-0.19 26.16,0.43 35.49,9.68 11.82,10.4 12.06,27.76 9.07,42.05 -10.85,52.89 -20.93,105.93 -31.71,158.81 -4.13,18.61 -10.72,38.21 -25.89,50.77 -10.51,8.67 -24.53,10.75 -37.73,10.93 -76.08,0 -152.16,-0.1 -228.24,0.06 6.85,-14.38 16.29,-27.58 21.73,-42.54 12.69,-61.68 25.57,-123.36 37.79,-185.12 -1.47,-14.64 -3.36,-29.33 -6.06,-43.81 -34.72,90.53 -69.73,180.96 -104.69,271.39 -29.28,0.08 -58.59,-0.14 -87.87,0.13 0.32,-90.78 1.1,-181.55 2.72,-272.27zm268.96 29.68l0 0c-4.29,6.54 -10.24,12.46 -11.33,20.54 -12.35,60.66 -24.83,121.28 -37.25,181.92 5.17,13.06 10.16,26.21 15.68,39.14 8.26,-13.65 18.9,-25.87 26.56,-39.81 13.41,-62.08 25.38,-124.51 38.64,-186.67 -3.84,-14.42 -7.79,-28.82 -12.08,-43.12 -7.31,8.94 -13.39,18.75 -20.22,28zm92.51 26.88l0 0c-10.03,53.25 -21.95,106.21 -30.8,159.66 11.31,-1.58 24.27,2.45 34.59,-2.03 10.37,-52.51 20.74,-105.02 31.12,-157.52 -11.66,-0.24 -23.28,-0.19 -34.91,-0.11zm-488.75 -54.77c21.63,-3.23 43.63,-1.36 65.42,-1.76 15.52,0.5 34.82,-0.64 45.25,13.25 10.21,14.91 6.24,34.19 3.57,50.8 -9.6,48.72 -18.96,97.47 -29.01,146.11 -4.72,21.28 -12.83,45.23 -33.76,55.6 -19.71,9.65 -42.37,5.41 -63.49,6.35 -18.27,-0.49 -39.34,2.55 -54.64,-9.63 -13.5,-11.6 -11.82,-31.47 -8.94,-47.25 10.94,-53.95 21.68,-107.92 32.8,-161.82 4.48,-22.69 18.24,-46.96 42.8,-51.65zm18.56 54.77l0 0c-10.82,52.43 -20.13,105.23 -31.76,157.47 0.7,0.56 2.06,1.68 2.75,2.24 10.85,-0.53 21.76,0.4 32.59,-1.04 10.4,-52.88 20.66,-105.79 31.38,-158.59 -11.65,-0.16 -23.3,-0.13 -34.96,-0.08zm-235.62 -56c34.53,-1.28 69.09,-0.29 103.65,-0.59 15.12,0.56 33.2,-0.88 44.37,11.5 10.72,11.12 9.15,27.97 6.7,41.97 -4.19,19.58 -6.22,40.3 -16.38,57.98 -6.88,12.21 -19.54,19.52 -32.42,23.91 16.24,4.16 28.58,21.02 24.34,37.9 -4.02,19.79 -8.37,39.52 -12.37,59.31 5.76,13.14 11.47,26.31 16.96,39.6 -21.04,0.02 -42.05,0 -63.09,0.02 -6.54,-0.18 -14.32,-0.74 -18.86,-6.11 -4.08,-7.2 -2.61,-15.7 -1.12,-23.38 5.55,-27.17 11.26,-54.3 16.8,-81.44 -11.94,-0.05 -23.89,0 -35.84,-0.05 -7.36,37.01 -14.85,73.99 -21.86,111.06 -28.14,-0.21 -56.3,-0.1 -84.43,-0.05 8.16,-11.97 16.4,-23.87 24.75,-35.71 2.93,-3.76 3.62,-8.61 4.56,-13.14 14.64,-74.27 29.68,-148.49 44.24,-222.78zm53.7 56.27l0 0c-4.34,17.71 -7.33,35.84 -10.98,53.73 11.94,0.19 23.89,0.11 35.84,0.19 3.6,-18.03 7.12,-36.08 10.74,-54.08 -11.86,0.02 -23.76,-0.56 -35.6,0.16zm-279.44 -113.65c52.03,0.13 104.08,-0.14 156.11,0.13 15.55,0.69 33.33,2.56 44.08,15.28 10.93,13.25 9.6,31.71 6.96,47.57 -8.59,43.18 -17.33,86.29 -26.13,129.44 -4.24,21.04 -10.99,43.34 -27.9,57.84 -12.32,10.72 -28.98,14.48 -44.93,14.8 -20.08,0.19 -40.13,-0.21 -60.19,0.21 -5.04,26.43 -10.8,52.72 -16.16,79.1 -0.74,3.33 -0.82,6.83 -0.02,10.19 3.7,17.36 8.1,34.58 11.68,52 -41.58,-0.16 -83.12,-0.11 -124.67,-0.03 10.27,-18.22 22,-35.57 32.67,-53.55 3.73,-6.56 4.34,-14.27 6,-21.52 17.46,-84.96 34.96,-169.95 52.5,-254.91 1.5,-9.17 5.79,-18.58 2.48,-27.86 -4.29,-16.19 -8.29,-32.45 -12.48,-48.69zm87.74 68.08l0 0c-8.8,43.7 -17.39,87.46 -26.22,131.17 14.67,-0.05 29.34,0.08 44.03,-0.08 8.19,-43.79 17.15,-87.42 26.03,-131.04 -14.62,-0.19 -29.23,-0.08 -43.84,-0.05zm887.78 -296.43c6.72,19.97 15.5,40.21 31.68,54.37 17.15,14.32 37.2,24.88 57.98,32.91 -3.6,5.52 -7.2,11.04 -10.64,16.64 -34.14,-16.51 -69.1,-31.42 -105.36,-42.56 8.61,-20.53 18.42,-40.54 26.34,-61.36z"/>
   <path class="fil2" d="M1037.33 243.95c80.38,-21.2 165.71,-31.04 247.74,-13.5 79.49,16.19 157.09,48.78 218.96,102.06 -26.83,16.64 -54.8,31.31 -82.19,46.98 7.15,20.3 14.35,40.59 21.81,60.8 -7.78,8.54 -18.21,15.9 -24.13,25.39 9.04,26.19 18.4,52.35 27.31,78.64 4.1,12.13 10.37,27.02 1.49,38.56 -6.61,10.8 -20.03,12.03 -31.47,11.97 -3.7,8.24 -7.2,16.56 -10.02,25.13 4.48,0.53 9.01,1.11 13.52,1.73 -9.74,16.16 -19.55,32.29 -28.99,48.67 5.84,13.41 11.49,26.9 17.23,40.39 -18.54,26.49 -36.67,53.21 -54.99,79.84 -24.43,-6.16 -48.27,-14.45 -72.61,-20.95 -4.06,6.07 -8.94,11.62 -12,18.29 22.4,15.84 46.93,28.64 71.22,41.47 72,37.7 149.76,62.66 227.6,85.09 11.2,3.89 23.18,2.37 34.8,2.58 125.34,0.06 250.7,-0.1 376.03,0.09 -30.93,153.65 -63.04,307.06 -93.97,460.72 -338.48,0.56 -676.99,0.08 -1015.5,0.23 -214.1,-0.13 -428.18,0.22 -642.26,-0.18 -3.28,-14.37 -6.83,-28.72 -10.24,-43.07 -49.15,0.16 -98.3,0.03 -147.44,0.05 -12.32,-0.13 -24.67,0.59 -36.94,-0.79 19.6,-29.02 38.56,-58.46 58.14,-87.53 3.22,-5.03 7.12,-9.94 8.26,-15.97 18.75,-91.6 37.68,-183.2 56.7,-274.77 1.76,-8.24 -2.3,-16.19 -3.95,-24.14 -5.76,-24.1 -12.91,-47.92 -17.73,-72.24 62.98,0.78 126,-0.1 188.98,0.35 19.82,0.94 40.8,0.56 58.7,10.48 4.08,1.73 8.48,6.43 13.04,2.96 30.26,-15.28 60.61,-30.42 91.12,-45.23 65.25,-30.74 130.72,-63.12 187.01,-108.79 44.61,-36.3 81.12,-84.17 97.65,-139.77 25.18,-82.5 20.22,-177.09 -25.46,-251.65 48.21,-4.8 95.94,-15.41 141.28,-32.66 49.76,-18.97 99.76,-37.6 151.3,-51.23zm336.8 1015.01c13.95,-1.44 27.98,-0.37 41.98,-0.77 8.37,0.11 17.25,-0.96 24.96,3.15 12.64,12.45 2.88,35.38 -13.6,38.24 2.53,7.6 6.61,14.56 9.57,22 1.89,1.12 3.81,2.24 5.73,3.38 -12.69,0.78 -25.44,0.83 -38.13,0 1.33,-0.66 3.97,-2.03 5.31,-2.72 -1.76,-5.39 -3.6,-10.72 -5.47,-16.02 -2.72,-0.06 -5.41,-0.09 -8.08,-0.09 -0.56,5.31 -1.84,10.49 -3.23,15.63 1.1,0.85 3.31,2.59 4.43,3.44 -11.79,0.32 -23.63,0.75 -35.39,-0.34 2.14,-1.04 4.27,-2.06 6.43,-3.04 0.53,-10 2.77,-19.82 5.09,-29.53 1.47,-10.34 3.23,-20.72 6.35,-30.71l-5.95 -2.62zm27.68 16.11l0 0c-0.4,5.2 -0.82,10.4 -1.25,15.6 8.56,0.61 22.29,-1.6 19.44,-13.55 -1.28,0.11 -3.81,0.32 -5.09,0.43l-0.54 -2.51c-4.21,0 -8.37,0.03 -12.56,0.03zm-240.4 -17.07c12.43,0.4 24.86,0.4 37.28,0.03 -1.81,16.96 4.59,33.33 6.51,50.05 0.93,3.92 1.55,7.9 1.92,11.92 1.55,1.82 3.15,3.63 4.77,5.42 -11.89,-0.09 -23.81,0.5 -35.68,-0.51 4.88,-1.47 7.26,-4.85 6.51,-10.08 -8.83,0.05 -17.65,0.19 -26.48,-0.3 -2.51,3.74 -3.33,7.93 0.53,10.94 -11.49,0 -22.98,0.13 -34.48,-0.16 1.84,-1.33 3.63,-2.78 5.34,-4.27 11.33,-18.4 21.57,-37.57 33.7,-55.41 0.03,-2.56 0.06,-5.1 0.08,-7.63zm11.58 19.6l0 0c-0.4,3.1 -1.15,6.11 -2.22,9.07 -1.49,3.78 -4.02,6.61 -7.6,8.45 1.82,0.8 5.44,2.43 7.26,3.23 3.49,0.11 6.69,-0.8 9.6,-2.72 -1.9,-6.08 -2.59,-12.4 -2.75,-18.72 -1.07,0.19 -3.23,0.53 -4.29,0.69zm-220.08 -19.7c10.32,0.4 20.64,0.21 30.96,0.64 -1.5,0.85 -4.46,2.55 -5.95,3.41 -2.96,20.08 -7.2,40 -11.47,59.84 1.12,0.85 3.34,2.53 4.46,3.36 -11.74,0.43 -23.5,0.66 -35.23,-0.22 2.08,-1.11 4.19,-2.21 6.32,-3.25 1.09,-14.48 4.88,-28.56 7.52,-42.8 1.47,-6.93 2.96,-13.92 3.39,-20.98zm-231.98 0.1c19.76,0.8 39.58,-0.48 59.34,0.83 5.2,4.32 10.05,9.63 8.53,17.01 1.65,11.52 -8.24,20.11 -17.97,23.87 1.94,6.61 4.8,12.93 7.62,19.23 2.08,2.1 4.19,4.26 6.3,6.39 -11.44,0.17 -22.88,-0.07 -34.32,0.43 1.94,-6.8 -1.2,-13.22 -3.12,-19.6 -3.2,0.06 -6.4,0.16 -9.58,0.27 -0.21,6.4 -0.45,12.82 0,19.25 -10.82,-0.35 -21.65,-0.03 -32.48,-0.72 5.39,-1.47 6.11,-6.72 7.26,-11.28 0.45,-4.67 1.09,-9.3 2.42,-13.78 0.75,-4.43 1.5,-8.83 2.56,-13.15 0.72,-4.48 1.47,-8.96 2.99,-13.25 0.75,-5.15 0.91,-10.35 0.45,-15.5zm24.64 16.86l0 0c-1.25,5.12 -2.42,10.26 -3.33,15.49 4.29,-0.11 8.61,-0.16 12.93,-0.13 5.66,-1.71 7.04,-6.75 7.28,-12.11 -2.45,-0.91 -4.88,-1.79 -7.3,-2.7 -2.4,-0.13 -7.18,-0.39 -9.58,-0.55zm858.54 3.57c6.18,-17.81 26.82,-24 43.94,-22.48 10.43,0.4 19.52,6.02 29.44,8.56 -5.14,5.28 -10.05,10.8 -14.66,16.56 -5.82,-1.79 -11.58,-3.71 -17.26,-5.84 -5.33,-0.59 -13.14,-0.99 -12.69,6.85 5.87,0.16 11.79,0.51 17.49,2.03 2.72,0.9 5.5,1.76 8.3,2.59 3.14,2.05 6.26,4.24 9.3,6.53 -0.08,4.21 -0.13,8.42 -0.13,12.67 -3.47,7.73 -9.07,14.72 -17.04,18.1 -15.57,6.32 -33.23,4 -48.59,-1.65 -3.44,-1.95 -6.85,-3.84 -10.29,-5.73 6.35,-6.14 12.32,-12.78 16.61,-20.56 -0.69,6.69 4.86,8.29 9.76,10.16 6.8,0.66 13.6,1.01 20.46,0.85l-0.14 -5.47c-3.09,-0.64 -6.16,-1.3 -9.2,-1.94 -9.33,-0.59 -21.22,-2.14 -24.93,-12.25 -0.11,-2.26 -0.27,-6.74 -0.37,-8.98zm-1042.88 -20c1.01,-1.12 3.04,-3.31 4.05,-4.43 -1.17,9.39 -3.6,18.56 -4.77,27.95 -0.72,-1.07 -2.16,-3.2 -2.91,-4.27 -10.19,-0.77 -20.45,-0.05 -30.67,-0.37 -0.1,2.08 -0.34,6.26 -0.45,8.34 10.21,-0.07 20.45,0.11 30.67,-0.77 -3.52,4.35 -3.66,10 -4.51,15.23 -0.83,2.69 -1.65,5.41 -2.43,8.13 -0.61,-1.12 -1.86,-3.36 -2.48,-4.48 -8.58,-0.5 -17.2,-0.08 -25.78,-0.03 -0.35,5.26 -0.91,10.59 -3.1,15.47 1.15,2.08 2.3,4.16 3.47,6.27 -11.52,-0.08 -23.04,0.29 -34.51,-0.54 2,-1.06 4.06,-2.13 6.08,-3.14 3.07,-20.11 7.18,-40.08 11.6,-59.92 -1.04,-0.91 -3.14,-2.69 -4.21,-3.6 19.97,0.03 39.97,-0.16 59.95,0.16zm547.49 -250.91c11.63,-0.08 23.25,-0.13 34.91,0.11 -10.38,52.5 -20.75,105.01 -31.12,157.52 -10.32,4.48 -23.28,0.45 -34.59,2.03 8.85,-53.45 20.77,-106.41 30.8,-159.66zm-470.19 0c11.66,-0.05 23.31,-0.08 34.96,0.08 -10.72,52.8 -20.98,105.71 -31.38,158.59 -10.83,1.44 -21.74,0.51 -32.59,1.04 -0.69,-0.56 -2.05,-1.68 -2.75,-2.24 11.63,-52.24 20.94,-105.04 31.76,-157.47zm-181.92 0.27c11.84,-0.72 23.74,-0.14 35.6,-0.16 -3.62,18 -7.14,36.05 -10.74,54.08 -11.95,-0.08 -23.9,0 -35.84,-0.19 3.65,-17.89 6.64,-36.02 10.98,-53.73zm-191.7 -45.57c14.61,-0.03 29.22,-0.14 43.84,0.05 -8.88,43.62 -17.84,87.25 -26.03,131.04 -14.69,0.16 -29.36,0.03 -44.03,0.08 8.83,-43.71 17.42,-87.47 26.22,-131.17zm751.3 18.42c6.83,-9.25 12.91,-19.06 20.22,-28 4.29,14.3 8.24,28.7 12.08,43.12 -13.26,62.16 -25.23,124.59 -38.64,186.67 -7.66,13.94 -18.3,26.16 -26.56,39.81 -5.52,-12.93 -10.51,-26.08 -15.68,-39.14 12.42,-60.64 24.9,-121.26 37.25,-181.92 1.09,-8.08 7.04,-14 11.33,-20.54zm164.03 -577.52l0 0c-49.55,49.07 -93.55,105.47 -119.63,170.64 -13.84,33.58 -19.73,69.76 -21.6,105.87 -14.96,-23.92 -25.17,-50.8 -29.41,-78.72 -8.93,-55.55 -4.91,-112.22 1.55,-167.76 -7.71,21.01 -13.28,42.72 -19.02,64.32 -14.4,58.08 -24.66,119.52 -10.72,178.74 -40.05,-24.21 -70.26,-60.96 -96.02,-99.38 7.65,36.93 19.97,73.76 41.49,105.09 -27.55,5.79 -55.09,12.38 -81.2,23.09 -24.27,9.69 -47.28,22.17 -70.4,34.27 22.59,-5.92 44.8,-13.28 67.79,-17.71 81.2,-16.77 166.24,-21.86 247.62,-3.41 -5.44,-26.18 -7.84,-53.22 -4.72,-79.89 6.7,-62.75 36.22,-120.32 69.87,-172.69 30.85,-46.89 66.99,-90.11 106.11,-130.27 -29.68,19.44 -55.84,43.7 -81.71,67.81zm57.55 75.47l0 0c-3.18,1.6 -7.36,3.52 -6.32,8 -1.92,38.56 8.82,76.5 23.28,111.89 -20.24,-6.11 -40.06,-13.57 -60.27,-19.73 -4.51,11.3 -10.05,22.18 -14.32,33.57 -3.95,30.86 6.99,64.21 30.93,84.72 35.92,31.39 82.7,46.64 128.91,55.04 11.36,-14.35 21.92,-29.33 32.83,-44.03 -4.99,-9.41 -9.84,-18.9 -14.54,-28.45 -9.25,-1.07 -18.5,-1.89 -27.76,-2.9 10.19,-6.25 21.42,-10.65 31.34,-17.31 5.33,-5.31 9.28,-11.82 13.89,-17.74 -20.27,0.11 -40.53,1.1 -60.83,0.91 16.72,-10.32 34.67,-19.28 54.3,-22.27 3.89,-8.21 7.28,-16.64 10.9,-24.98 -11.09,-0.03 -22.18,0.1 -33.25,-0.13 -2.19,-14.09 -5.81,-27.93 -7.55,-42.06 7.12,4.05 13.26,9.92 20.88,13.01 19.55,0.46 39.15,0.09 58.72,0.14 -9.7,-31.12 -20.82,-61.76 -31.78,-92.43 -21.55,12.48 -42.83,25.36 -64.3,37.95 2.94,-9.6 5.92,-19.15 9.12,-28.64 -15.65,-0.83 -31.3,-1.04 -46.96,-1.79 27.28,-15.97 55.34,-30.59 83.07,-45.79 2.83,6.94 5.81,13.82 8.69,20.75 8.19,-7.47 16.4,-14.88 24.59,-22.32 -4.4,-12.58 -8.75,-25.17 -12.72,-37.87 -50.51,27.1 -100.48,55.15 -150.85,82.46zm-85.1 187.2l0 0c-7.92,20.82 -17.73,40.83 -26.34,61.36 36.26,11.14 71.22,26.05 105.36,42.56 3.44,-5.6 7.04,-11.12 10.64,-16.64 -20.78,-8.03 -40.83,-18.59 -57.98,-32.91 -16.18,-14.16 -24.96,-34.4 -31.68,-54.37zm-368.96 104.21l0 0c-69.94,15.55 -137.62,40.11 -202.53,70.24 15.39,-3.23 30.19,-8.69 45.41,-12.61 82.78,-22.24 167.74,-37.89 253.52,-40.99 76.7,-3.25 154.16,7.41 226.38,33.76 62.24,22.27 120.32,55.55 171.89,96.83 50.64,-0.53 101.28,0.4 151.92,-0.4 -33.6,-12.19 -66.85,-25.6 -98.72,-41.84 -40.69,-21.02 -79.57,-45.39 -120.64,-65.71 -44.48,-22.72 -92.29,-38.96 -141.52,-47.6 -94.51,-17.15 -192.29,-13.6 -285.71,8.32zm-606.56 124.14l0 0c4.19,16.24 8.19,32.5 12.48,48.69 3.31,9.28 -0.98,18.69 -2.48,27.86 -17.54,84.96 -35.04,169.95 -52.5,254.91 -1.66,7.25 -2.27,14.96 -6,21.52 -10.67,17.98 -22.4,35.33 -32.67,53.55 41.55,-0.08 83.09,-0.13 124.67,0.03 -3.58,-17.42 -7.98,-34.64 -11.68,-52 -0.8,-3.36 -0.72,-6.86 0.02,-10.19 5.36,-26.38 11.12,-52.67 16.16,-79.1 20.06,-0.42 40.11,-0.02 60.19,-0.21 15.95,-0.32 32.61,-4.08 44.93,-14.8 16.91,-14.5 23.66,-36.8 27.9,-57.84 8.8,-43.15 17.54,-86.26 26.13,-129.44 2.64,-15.86 3.97,-34.32 -6.96,-47.57 -10.75,-12.72 -28.53,-14.59 -44.08,-15.28 -52.03,-0.27 -104.08,0 -156.11,-0.13zm225.74 57.38l0 0c-14.56,74.29 -29.6,148.51 -44.24,222.78 -0.94,4.53 -1.63,9.38 -4.56,13.14 -8.35,11.84 -16.59,23.74 -24.75,35.71 28.13,-0.05 56.29,-0.16 84.43,0.05 7.01,-37.07 14.5,-74.05 21.86,-111.06 11.95,0.05 23.9,0 35.84,0.05 -5.54,27.14 -11.25,54.27 -16.8,81.44 -1.49,7.68 -2.96,16.18 1.12,23.38 4.54,5.37 12.32,5.93 18.86,6.11 21.04,-0.02 42.05,0 63.09,-0.02 -5.49,-13.29 -11.2,-26.46 -16.96,-39.6 4,-19.79 8.35,-39.52 12.37,-59.31 4.24,-16.88 -8.1,-33.74 -24.34,-37.9 12.88,-4.39 25.54,-11.7 32.42,-23.91 10.16,-17.68 12.19,-38.4 16.38,-57.98 2.45,-14 4.02,-30.85 -6.7,-41.97 -11.17,-12.38 -29.25,-10.94 -44.37,-11.5 -34.56,0.3 -69.12,-0.69 -103.65,0.59zm217.06 1.23l0 0c-24.56,4.69 -38.32,28.96 -42.8,51.65 -11.12,53.9 -21.86,107.87 -32.8,161.82 -2.88,15.78 -4.56,35.65 8.94,47.25 15.3,12.18 36.37,9.14 54.64,9.63 21.12,-0.94 43.78,3.3 63.49,-6.35 20.93,-10.37 29.04,-34.32 33.76,-55.6 10.05,-48.64 19.41,-97.39 29.01,-146.11 2.67,-16.61 6.64,-35.89 -3.57,-50.8 -10.43,-13.89 -29.73,-12.75 -45.25,-13.25 -21.79,0.4 -43.79,-1.47 -65.42,1.76zm127.28 -1.79l0 0c-1.62,90.72 -2.4,181.49 -2.72,272.27 29.28,-0.27 58.59,-0.05 87.87,-0.13 34.96,-90.43 69.97,-180.86 104.69,-271.39 2.7,14.48 4.59,29.17 6.06,43.81 -12.22,61.76 -25.1,123.44 -37.79,185.12 -5.44,14.96 -14.88,28.16 -21.73,42.54 76.08,-0.16 152.16,-0.06 228.24,-0.06 13.2,-0.18 27.22,-2.26 37.73,-10.93 15.17,-12.56 21.76,-32.16 25.89,-50.77 10.78,-52.88 20.86,-105.92 31.71,-158.81 2.99,-14.29 2.75,-31.65 -9.07,-42.05 -9.33,-9.25 -23.17,-9.87 -35.49,-9.68 -106.45,0.03 -212.91,0.11 -319.36,0 3.89,12.72 7.41,25.57 11.17,38.35 3.2,8.91 -2.88,17.44 -4.9,25.92 -15.68,48.85 -33.44,97.04 -47.66,146.35 1.36,-16.94 4.27,-33.76 4.51,-50.8 1.2,-36.62 4.61,-73.1 6.27,-109.66 -0.51,-18.64 12.5,-33.46 18.82,-50.16 -28.08,0.08 -56.16,0 -84.24,0.08zm470.64 0.29l0 0c3.5,15.04 9.26,29.53 12.14,44.7 -12.46,62.16 -25.2,124.29 -38.11,186.37 -8.51,14.08 -18.75,27.15 -27.95,40.8 57.58,0.03 115.12,-0.13 172.7,0.08 6.1,-30.32 12.4,-60.59 17.78,-91.04 -18.02,10.16 -36.26,19.95 -54.24,30.22 -12.29,8.26 -27.84,3.33 -41.68,4.64 2.72,-19.36 7.74,-38.3 10.64,-57.63 15.79,-0.3 31.6,-0.16 47.39,-0.08 3.6,-16.53 6.45,-33.23 10.13,-49.76 -15.78,-0.11 -31.54,-0.03 -47.3,-0.06 3.28,-17.33 6.9,-34.58 10.1,-51.92 11.6,0.33 23.34,-1.01 34.83,0.59 15.23,10.16 30.24,20.7 44.96,31.6 6.21,-29.39 11.6,-58.96 17.68,-88.37 -56.37,-0.19 -112.72,0.1 -169.07,-0.14zm176.96 0.06l0 0c2.94,19.44 8.4,38.69 9.9,58.24 -11.47,57.01 -23.42,114 -35.34,170.93 -7.09,15.47 -19.38,28.03 -28.02,42.72 25.73,-0.8 51.97,1.12 77.38,-0.96 10.16,-52.32 20.48,-104.8 29.12,-157.44 1.28,11.87 1.55,23.84 3.92,35.57 8.32,40.62 16.3,81.28 24,122.01 27.04,0.37 54.06,-0.16 81.1,0.29 -4.83,-13.2 -10.51,-26.11 -15.04,-39.39 0.4,-7.36 2.53,-14.48 3.92,-21.68 10.82,-51.14 20.98,-102.48 32.13,-153.54 10.05,-19.29 21.76,-37.74 32.59,-56.62 -25.68,-0.19 -51.34,-0.16 -76.99,-0.03 -9.33,53.23 -22.53,105.82 -29.49,159.44 -1.31,-20.96 -6.99,-41.19 -10.54,-61.81 -6.21,-32.56 -12.21,-65.17 -18.45,-97.73 -26.72,0.1 -53.47,0 -80.19,0zm234.38 6.85l0 0c-17.79,9.74 -27.79,29.15 -31.55,48.45 -10.53,51.63 -20.37,103.39 -30.8,155.05 -2.77,15.12 -6.27,32.31 2.35,46.26 7.52,12.11 22.74,14.99 35.94,15.18 34.16,0.02 68.32,-0.03 102.48,0.02 6.48,-33.41 13.28,-66.77 19.68,-100.21 -18.5,-0.03 -36.98,0.16 -55.46,-0.06 -3.12,14.78 -5.31,29.79 -9.18,44.4 -11.49,-0.42 -22.96,-0.32 -34.45,-0.1 10.51,-53.2 21.01,-106.4 31.52,-159.6 11.71,-0.03 23.41,-0.11 35.15,0.02 -2.32,10.46 -4.78,20.94 -6,31.6 17.49,-0.32 35.04,-0.21 52.56,-0.02 5.52,-29.47 11.62,-58.83 17.25,-88.27 -28.93,0.08 -57.87,-0.02 -86.77,0.05 -14.43,0.32 -29.76,-0.07 -42.72,7.23zm139.28 -6.77l0 0c3.89,14.67 9.09,28.98 12.26,43.84 -12.08,62.61 -25.2,125.09 -38.26,187.52 -8.43,13.97 -18.7,26.88 -27.82,40.48 57.07,-0.21 114.11,-0.19 171.15,-0.03 5.55,-30.4 13.44,-60.4 17.87,-90.98 -19.58,11.41 -39.36,22.58 -59.26,33.44 -11.44,2.98 -23.62,0.58 -35.36,1.41 3.23,-19.36 7.71,-38.48 11.12,-57.79 15.79,-0.08 31.55,-0.02 47.36,-0.08 3.02,-16.58 6.64,-33.06 9.66,-49.65 -15.68,-0.03 -31.39,-0.06 -47.07,-0.06 3.36,-17.3 6.88,-34.58 10.19,-51.89 11.38,0.03 22.83,-0.72 34.18,0.35 15.76,9.55 29.92,21.73 45.92,30.99 5.6,-29.23 11.6,-58.38 17.2,-87.63 -56.4,0.08 -112.77,-0.06 -169.14,0.08zm-1539.31 288.32l0 0c8.16,34.96 16.96,69.76 25.52,104.61 365.76,-0.08 731.55,-0.05 1097.31,-0.4 169.73,-0.21 339.49,0.43 509.2,-0.29 6.18,-34.75 13.95,-69.2 21.04,-103.76 -551.02,-0.38 -1102.03,-0.08 -1653.07,-0.16z"/>
  </g>
 </g>
</svg>
