<?xml version="1.0" encoding="UTF-8"?>
<!DOCTYPE svg PUBLIC "-//W3C//DTD SVG 1.1//EN" "http://www.w3.org/Graphics/SVG/1.1/DTD/svg11.dtd">
<!-- Creator: CorelDRAW -->
<svg xmlns="http://www.w3.org/2000/svg" xml:space="preserve" width="2000px" height="1600px" version="1.1" style="shape-rendering:geometricPrecision; text-rendering:geometricPrecision; image-rendering:optimizeQuality; fill-rule:evenodd; clip-rule:evenodd"
viewBox="0 0 2000 1600"
 xmlns:xlink="http://www.w3.org/1999/xlink">
 <defs>
  <style type="text/css">
   <![CDATA[
    .fil0 {fill:#101113;fill-rule:nonzero}
    .fil1 {fill:#ACAAA6;fill-rule:nonzero}
    .fil2 {fill:#DCC994;fill-rule:nonzero}
   ]]>
  </style>
 </defs>
 <g id="Capa_x0020_1">
  <metadata id="CorelCorpID_0Corel-Layer"/>
  <g id="Purdue_x0020_Boilermakers.cdr">
   <path class="fil0" d="M455.41 265.57l1221.96 0c61.96,2.4 125.03,9.14 182.79,33.06 30.98,12.8 60.05,31.04 83.26,55.41 21.32,22.42 37.45,49.75 46.77,79.28 16.34,51.83 10.47,107.87 -4.44,159.31 -12.75,43.79 -31.17,85.67 -49.95,127.14 -21.78,46.14 -47.3,90.85 -79.75,130.37 -32.31,39.68 -71.77,73.63 -116.37,98.77 -51.21,29.07 -108.19,46.79 -166.01,56.88 -46.01,8.04 -92.71,11.4 -139.36,12.11 -79.44,-0.11 -158.9,0.11 -238.34,-0.09 -45.33,105.41 -89.82,211.18 -135.04,316.62l-1060.93 0 0 -0.29c55.93,-131.12 111.65,-262.34 167.6,-393.43 71.9,-0.04 143.77,0 215.65,-0.02 39.83,-93.66 79.74,-187.26 119.55,-280.92 -71.71,0 -143.44,0.02 -215.16,-0.02 55.82,-131.42 111.87,-262.77 167.77,-394.18zm579.04 431.2c15.62,-36.71 31.21,-73.41 46.89,-110.08 112.12,0 224.26,0 336.38,0 18.2,0.42 37.08,-1.83 54.6,4.4 4.71,1.88 10.8,4.64 10.81,10.58 0.06,13.7 -6.1,26.51 -12.66,38.22 -16.08,26.99 -44.09,45.68 -74.43,52.75 -20.36,5.24 -41.52,4 -62.33,4.13 -99.76,0 -199.5,0.02 -299.26,0zm-636.27 -110.08l0 0c71.73,-0.02 143.46,0.01 215.18,-0.04 -60.57,142.37 -121.25,284.68 -181.78,427.07 -71.93,0.14 -143.85,0 -215.78,0.07 -35.17,82.82 -70.44,165.63 -105.74,248.41 300.78,0.11 601.56,0.02 902.34,0.04 35.21,-82.82 70.47,-165.64 105.81,-248.41 -72.92,-0.11 -145.86,0 -218.78,-0.08 9.74,-22.94 19.68,-45.82 29.21,-68.86 144.78,-0.24 289.55,-0.02 434.33,-0.09 42.09,-0.26 84.26,1.06 126.29,-2.34 66.81,-4.93 134.11,-17.58 194.86,-46.77 42.77,-20.3 81.17,-49.7 111.8,-85.8 35.02,-40.84 59.98,-89.06 81.5,-138.06 17.71,-41.2 35.52,-82.8 44.6,-126.93 5.78,-28.9 7.29,-59.4 -1.13,-87.94 -8.22,-28.34 -26.75,-53.2 -50.72,-70.23 -27.28,-19.46 -59.71,-30.22 -92.25,-37 -56.49,-11.64 -114.45,-11.64 -171.86,-11.53 -367.36,0.02 -734.71,0 -1102.07,0.02 -35.3,82.8 -70.64,165.61 -105.81,248.47z"/>
   <path class="fil1" d="M1056.27 548.88c129.65,-0.27 259.32,-0.03 388.99,-0.11 20.68,0.53 42.81,3.93 59.31,17.42 12.57,10.17 18.01,27.11 16.31,42.9 -2.14,21.48 -11.64,41.6 -23.59,59.3 -18.78,26.94 -46.73,47.02 -77.87,57.16 -18.76,6.26 -38.57,9.04 -58.32,9.13 -127.9,-0.05 -255.81,0.06 -383.73,-0.05 13.98,-34.79 29.31,-69.07 43.78,-103.67 11.8,-27.32 23.17,-54.82 35.12,-82.08zm-658.09 37.81c35.17,-82.86 70.51,-165.67 105.81,-248.47 367.36,-0.02 734.71,0 1102.07,-0.02 57.41,-0.11 115.37,-0.11 171.86,11.53 32.54,6.78 64.97,17.54 92.25,37 23.97,17.03 42.5,41.89 50.72,70.23 8.42,28.54 6.91,59.04 1.13,87.94 -9.08,44.13 -26.89,85.73 -44.6,126.93 -21.52,49 -46.48,97.22 -81.5,138.06 -30.63,36.1 -69.03,65.5 -111.8,85.8 -60.75,29.19 -128.05,41.84 -194.86,46.77 -42.03,3.4 -84.2,2.08 -126.29,2.34 -144.78,0.07 -289.55,-0.15 -434.33,0.09 -9.53,23.04 -19.47,45.92 -29.21,68.86 72.92,0.08 145.86,-0.03 218.78,0.08 -35.34,82.77 -70.6,165.59 -105.81,248.41 -300.78,-0.02 -601.56,0.07 -902.34,-0.04 35.3,-82.78 70.57,-165.59 105.74,-248.41 71.93,-0.07 143.85,0.07 215.78,-0.07 60.53,-142.39 121.21,-284.7 181.78,-427.07 -71.72,0.05 -143.45,0.02 -215.18,0.04zm129.14 -206.54l0 0c-23.68,56.22 -48.14,112.17 -71.44,168.55 71.59,0.2 143.17,-0.02 214.76,0.11 -36.2,86.04 -73.12,171.8 -109.57,257.75 -34.9,81.62 -69.36,163.42 -104.48,244.91 -71.14,0.54 -142.33,0 -213.48,0.27 -3.06,-0.31 -3.39,3.62 -4.62,5.57 -15.51,36.87 -31.3,73.64 -46.96,110.45 -7.69,18.91 -16.58,37.37 -23.58,56.55 245.52,0.09 491.05,0.02 736.58,0.04 27.59,-0.26 55.23,0.53 82.8,-0.39 22.69,-53.02 45.17,-106.13 67.81,-159.17 1.88,-4.24 3.89,-8.46 4.75,-13.05 -72.54,-0.26 -145.09,0.24 -217.63,-0.24 20.1,-48.16 41,-96.01 61.1,-144.17 18.01,-1.05 36.1,-0.15 54.15,-0.44 158.92,-0.02 317.85,0.03 476.77,-0.02 75.9,-1.5 153.4,-10.31 223.43,-41.37 46.61,-20.52 88.05,-52.56 119.24,-92.85 34.94,-44.58 58.03,-96.82 79.57,-148.78 12.9,-31.9 25.12,-64.5 30.28,-98.68 3.87,-25.78 2.66,-53.65 -10.58,-76.74 -13.08,-23.5 -36.82,-38.75 -61.26,-48.44 -33.99,-13.23 -70.46,-18.47 -106.62,-21.36 -44.38,-3.47 -88.92,-1.64 -133.38,-2.08 -347.18,-0.02 -694.37,0.02 -1041.57,-0.02 -2.74,-0.33 -5.58,0.51 -6.07,3.6zm507.13 316.62l0 0c99.76,0.02 199.5,0 299.26,0 20.81,-0.13 41.97,1.11 62.33,-4.13 30.34,-7.07 58.35,-25.76 74.43,-52.75 6.56,-11.71 12.72,-24.52 12.66,-38.22 -0.01,-5.94 -6.1,-8.7 -10.81,-10.58 -17.52,-6.23 -36.4,-3.98 -54.6,-4.4 -112.12,0 -224.26,0 -336.38,0 -15.68,36.67 -31.27,73.37 -46.89,110.08z"/>
   <path class="fil2" d="M527.32 380.15c0.49,-3.09 3.33,-3.93 6.07,-3.6 347.2,0.04 694.39,0 1041.57,0.02 44.46,0.44 89,-1.39 133.38,2.08 36.16,2.89 72.63,8.13 106.62,21.36 24.44,9.69 48.18,24.94 61.26,48.44 13.24,23.09 14.45,50.96 10.58,76.74 -5.16,34.18 -17.38,66.78 -30.28,98.68 -21.54,51.96 -44.63,104.2 -79.57,148.78 -31.19,40.29 -72.63,72.33 -119.24,92.85 -70.03,31.06 -147.53,39.87 -223.43,41.37 -158.92,0.05 -317.85,0 -476.77,0.02 -18.05,0.29 -36.14,-0.61 -54.15,0.44 -20.1,48.16 -41,96.01 -61.1,144.17 72.54,0.48 145.09,-0.02 217.63,0.24 -0.86,4.59 -2.87,8.81 -4.75,13.05 -22.64,53.04 -45.12,106.15 -67.81,159.17 -27.57,0.92 -55.21,0.13 -82.8,0.39 -245.53,-0.02 -491.06,0.05 -736.58,-0.04 7,-19.18 15.89,-37.64 23.58,-56.55 15.66,-36.81 31.45,-73.58 46.96,-110.45 1.23,-1.95 1.56,-5.88 4.62,-5.57 71.15,-0.27 142.34,0.27 213.48,-0.27 35.12,-81.49 69.58,-163.29 104.48,-244.91 36.45,-85.95 73.37,-171.71 109.57,-257.75 -71.59,-0.13 -143.17,0.09 -214.76,-0.11 23.3,-56.38 47.76,-112.33 71.44,-168.55zm528.95 168.73l0 0c-11.95,27.26 -23.32,54.76 -35.12,82.08 -14.47,34.6 -29.8,68.88 -43.78,103.67 127.92,0.11 255.83,0 383.73,0.05 19.75,-0.09 39.56,-2.87 58.32,-9.13 31.14,-10.14 59.09,-30.22 77.87,-57.16 11.95,-17.7 21.45,-37.82 23.59,-59.3 1.7,-15.79 -3.74,-32.73 -16.31,-42.9 -16.5,-13.49 -38.63,-16.89 -59.31,-17.42 -129.67,0.08 -259.34,-0.16 -388.99,0.11z"/>
  </g>
 </g>
</svg>
