<?xml version="1.0" encoding="UTF-8"?>
<!DOCTYPE svg PUBLIC "-//W3C//DTD SVG 1.1//EN" "http://www.w3.org/Graphics/SVG/1.1/DTD/svg11.dtd">
<!-- Creator: CorelDRAW -->
<svg xmlns="http://www.w3.org/2000/svg" xml:space="preserve" width="2000px" height="1600px" version="1.1" style="shape-rendering:geometricPrecision; text-rendering:geometricPrecision; image-rendering:optimizeQuality; fill-rule:evenodd; clip-rule:evenodd"
viewBox="0 0 2000 1600"
 xmlns:xlink="http://www.w3.org/1999/xlink">
 <defs>
  <style type="text/css">
   <![CDATA[
    .fil2 {fill:#143560;fill-rule:nonzero}
    .fil3 {fill:#A81D34;fill-rule:nonzero}
    .fil1 {fill:#C29A2C;fill-rule:nonzero}
    .fil0 {fill:#FEFEFE;fill-rule:nonzero}
   ]]>
  </style>
 </defs>
 <g id="Capa_x0020_1">
  <metadata id="CorelCorpID_0Corel-Layer"/>
  <g id="Quinnipiac_x0020_Bobcats.cdr">
   <path class="fil0" d="M747.3 553.93c23.55,14.72 49.12,25.92 73.06,39.93 11.2,9.37 20.82,20.57 27.89,33.38 -10.82,-3.75 -21.84,-7.12 -33.33,-7.78 10.9,5.79 22.28,11.23 30.88,20.34 -16.66,3.21 -33.12,7.8 -48.36,15.38 -31.03,-24.09 -45.24,-63.46 -50.14,-101.25zm738.78 965.94c11.97,10.36 25.83,18.45 40.68,23.96 -13.6,12.94 -33.61,19.32 -52.06,15.03 -13.86,-3.44 -26.82,-9.57 -39.32,-16.33 19.03,-0.92 37.97,-8.06 50.7,-22.66zm33.23 -47.64c20.62,4.97 42.54,4.36 62.47,-3.24 7.09,9.57 12.22,22.68 6.07,34.09 -8.22,16.1 -27.66,21.33 -44.43,21.49 -18.5,0.87 -35.75,-6.38 -53,-11.84 6.79,-0.51 14.47,-0.97 19.29,-6.46 9.24,-8.73 9.19,-22.28 9.6,-34.04zm4.33 -67.88c14.88,-0.05 29.02,-4.64 41.93,-11.79 10.95,3.52 22.43,9.7 27.56,20.57 3.62,10.54 -0.61,22.71 -8.93,29.86 -13.81,11.63 -33.17,17.14 -50.76,11.81 5.11,-17.56 -1.32,-35.19 -9.8,-50.45zm-121.67 -139.53c10.08,-6.1 22.03,-10.9 33.89,-7.12 18.15,5.1 27.82,24.29 29.04,41.95 -21.74,9.93 -43.43,19.98 -64.81,30.65 42.33,-7.05 84.74,-21.77 128.15,-14.6 14.82,1.91 28.73,11.28 35.32,24.8 6.35,13.02 -0.36,29.94 -13.09,36.29 -10.34,5.26 -22.33,4.36 -33.56,5.05 0.81,-8.37 2.4,-17.04 -0.21,-25.23 -3.62,-11.56 -14.26,-21.87 -26.99,-21.26 -20.24,0.41 -39.74,6.61 -59.59,9.8 -51.42,9.85 -104.68,9.69 -156.04,-0.44 38.43,-8.77 77.83,-14.39 114.85,-28.4 -7.8,-0.84 -15.64,-1.33 -23.42,-2.14 19.26,-7.2 39.81,-11.54 57.67,-22.07 5.05,-2.79 10.69,-8.42 7.73,-14.68 -5,-11 -18.52,-11.58 -28.94,-12.6zm-463.89 -108.84c16.12,3.7 33.02,4.44 48.94,8.6 65.38,48.15 136.5,90.08 214.12,115.06 24.38,7.79 49.41,13.42 74.77,16.64 -46.49,1.1 -93.6,-2.19 -138.84,-13.5 -41.52,-17.3 -81.56,-38.25 -120.04,-61.57 -28.71,-18.38 -58.36,-37.52 -78.95,-65.23zm77.39 -80.99c9.04,-11.64 11.38,-26.37 13.14,-40.53 4.85,8.83 12.81,17.46 11.82,28.23 -3.98,9.87 -15.69,11.45 -24.96,12.3zm-42.48 -40.94c1.4,14.19 3.52,28.89 12.37,40.63 -9.9,-0.77 -22.56,-3.32 -25.47,-14.5 1.56,-9.87 7.81,-17.96 13.1,-26.13zm-36.27 -86.2c9.11,8.5 19.5,15.49 30.52,21.26 -7.09,11.74 -10.18,25.24 -11.84,38.71 -15.1,-16.05 -16.86,-39.14 -18.68,-59.97zm98.71 21.77c11.18,-5.56 22,-12.12 30.75,-21.15 -1.97,20.77 -3.86,44.07 -19.5,59.63 -1.78,-13.32 -4.36,-26.74 -11.25,-38.48zm-248.96 -63.21c10.18,-3.88 21.16,-5.74 32,-4.03 31.34,4.34 59.69,19.42 87.2,34.17l0.71 0.38c12.53,39.25 26.72,77.96 41.67,116.36 5.57,14.12 11.54,31.14 27.31,36.5 15.41,3.59 31.67,3.54 47.26,1.07 12.65,-2.73 21.05,-13.96 25.67,-25.37 17.79,-41.67 33.74,-84.08 48.66,-126.85 27.97,-14.62 56.93,-29.29 88.68,-33.1 10.85,-1.63 21.69,0.82 31.9,4.39 -7.25,4.65 -14.6,9.16 -21.72,14.01 29.6,0.56 58.18,10.69 82.76,26.95 -1.56,10.28 -3.58,20.47 -6.38,30.47 -5.62,-6.48 -11.28,-12.99 -18.3,-18.02 -0.61,37.87 -12.04,76.17 -35.67,106.13 -6.89,-21.3 -20.16,-42.74 -42.13,-50.78 -15.9,-6.66 -33.36,-3.29 -49.49,0.54 10.57,-11.77 25.19,-21.23 41.55,-21.11 21.92,-1.07 41.08,12.2 56.78,26.11 3.8,-12.4 8.72,-24.83 8.95,-37.97 -27.45,-16.72 -64.91,-26.9 -94.34,-8.98 6.38,-8.73 13.78,-16.57 20.98,-24.58 -63.8,38.76 -101.64,109.12 -118.33,180.11 -14.19,1.2 -28.35,2.93 -42.59,3.16 -14.11,-0.58 -28.15,-2.24 -42.13,-4.08 -12.89,-60.6 -41.06,-119.6 -87.63,-161.48 -8.47,-7.65 -17.58,-14.62 -27.48,-20.31 7.4,8.11 14.59,16.41 21.35,25.08 -29.19,-18.68 -66.42,-9 -94.82,6.38 -0.77,12.94 3.93,25.83 7.78,38.1 13.68,-9.67 27.23,-20.97 44.35,-23.71 20.32,-4.49 41.21,5.21 53.97,20.98 -15.94,-4.06 -33.14,-7.48 -49.04,-1.38 -22.23,7.58 -36.08,28.94 -43.18,50.3 -23.25,-30.47 -33.33,-68.9 -34.37,-106.74 -6.64,5.08 -12.43,11.1 -17.81,17.48 -3.17,-9.98 -4.75,-20.32 -6.05,-30.65 25.08,-15.57 53.89,-25.88 83.72,-25.11 -7.19,-4.9 -14.51,-9.65 -21.79,-14.42zm270.21 -18.17c4.42,-6.89 11.26,-11.61 17.74,-16.38 5.21,3.34 8.96,8.22 11.08,14.03 -14.35,11.87 -28.05,24.58 -40.37,38.56 13.9,-9.21 27.45,-18.96 41.51,-27.97 -0.43,6.59 -0.99,13.17 -1.55,19.78 -16.69,12.96 -30.65,29.76 -49.99,39.02 -9.83,4.9 -20.95,5.56 -31.7,6.17 2.3,-21.18 21.8,-32.25 35.09,-46.29 7.91,-7.57 13.86,-16.91 18.19,-26.92zm-138.23 -4.16c2.48,-5.38 6.23,-9.95 10.95,-13.47 6.05,4.59 11.99,9.36 17.33,14.8 6.5,19.78 22.45,33.89 37.36,47.46 8.44,7.3 13.44,17.56 15.54,28.41 -9.7,-0.64 -19.73,-1.05 -28.66,-5.24 -20.31,-8.98 -34.91,-26.36 -51.34,-40.62 -2.68,-6.23 -1.66,-13.65 -2.43,-20.31 13.58,8.72 26.29,18.75 39.96,27.35 -11.58,-14.06 -25.23,-26.18 -38.71,-38.38zm168.25 -85.23c4.08,-3.04 7.6,-11.56 13.85,-7.96 8.12,3.85 5.36,15.69 -2.73,17.91 -5.2,-1.4 -8.78,-5.25 -11.12,-9.95zm-208.67 -11.38c0.94,-3.93 5.28,-5.13 8.29,-6.99 5.44,0.89 10.65,5.84 8.86,11.74 -0.87,5.71 -7.2,6.86 -11.84,7.7 -2.35,-3.8 -7.04,-7.45 -5.31,-12.45zm275.09 -20.16c3.21,0.1 6.46,0.23 9.7,0.41 4.13,23.42 0.56,51.83 -20.55,66.3 -22.84,-3.19 -46.72,-6.33 -69.13,1.19 -7.57,2.53 -14.54,6.56 -21.92,9.57 23.1,-21.28 56.73,-28.32 86.77,-19.75 14.11,-15.61 16.58,-37.56 15.13,-57.72zm-311.55 -11.43c2.14,0.07 6.4,0.25 8.54,0.36 -3.9,19.9 -3.26,41.92 9.17,58.89 13.11,-1.43 26.56,-2.32 39.47,1.02 17.53,3.93 32.82,14.34 45.2,27.08 -8.4,-4.54 -16.16,-10.31 -25.17,-13.6 -19.08,-6.94 -39.78,-7.74 -59.81,-5.87 -5.33,1.17 -8.04,-4.47 -10.9,-7.81 -12.76,-17.25 -11.86,-40.29 -6.5,-60.07zm274.96 -40.73c26.56,10.64 52.18,28.02 65.48,54.13l-1.41 -0.82c-10.54,-6.81 -22.68,-11.94 -35.47,-11.25 -17.94,0.97 -35.21,7.91 -49.96,17.91 -16.18,10.97 -25.44,29.86 -42.64,39.48 -5.29,3.6 -11.23,0.56 -15.03,-3.58 6.71,-2.62 13.62,-5.51 18.57,-10.97 9.19,-8.65 11.49,-21.82 19.57,-31.28 4.47,-5.49 9.91,-10.21 16.01,-13.84 6.53,-3.75 13.7,-6.04 20.66,-8.8 9.17,-2.86 19.09,-1.79 28.56,-3.27 -6.18,-10.82 -15.34,-19.31 -24.34,-27.71zm-292.65 38.56c15.16,-24.17 42.46,-37.79 69.13,-45.45 -9.9,7.22 -19.78,14.78 -27.05,24.8 9.37,1.71 18.91,3.02 27.84,6.46 7.94,3.22 15.31,7.81 21.82,13.42 14.78,13.4 16.33,35.4 30.88,48.9 4,3.85 8.65,6.96 13.09,10.28 -4.19,2.83 -9.83,4.31 -14.19,0.89 -17,-12.01 -24.4,-33.19 -41.16,-45.52 -22.05,-17.58 -53.95,-28.68 -80.36,-13.78zm283.92 -129.23c15.16,-16.61 31.23,-33.78 52.69,-42.07 -16.2,15 -33.14,31.84 -37.12,54.58 -5.31,-4.03 -10.54,-8.14 -15.57,-12.51zm-259.37 -42.1c21.36,8.5 37.97,25.31 52.64,42.49 -5.13,4.13 -10.3,8.21 -15.49,12.27 -3.77,-22.84 -20.92,-39.7 -37.15,-54.76zm338.47 15.95c24.4,-14.67 51.32,-24.88 75.49,-40.04 -5.11,37.61 -20.19,76.4 -51.22,100.06 -15.59,-6.13 -31.15,-12.91 -47.92,-15.36l-1.15 -0.64c9.55,-8.42 20.77,-14.4 32.31,-19.6 -11.69,0.48 -23.05,3.42 -34.07,7.2 6.94,-12 15.9,-22.74 26.56,-31.62z"/>
   <path class="fil1" d="M881.6 5.15c18.56,-1.48 37.11,-2.75 55.66,-3.77 12.02,32.23 23.91,64.51 35.65,96.81 -0.05,-32.71 0,-65.45 -0.05,-98.19 20.18,0.89 40.42,0.26 60.63,0.46 -0.03,105.7 0.13,211.37 -0.1,317.07 -18.94,0 -37.9,0.02 -56.86,-0.03 -11.58,-35.96 -22.51,-72.12 -34.52,-107.94 -0.82,36.31 -0.21,72.67 -0.31,108.99 -19.96,2.39 -39.96,4.05 -59.92,6.27 -0.33,-106.54 0,-213.1 -0.18,-319.67zm172.84 -3.57c20.26,1.02 40.42,3.06 60.68,4.24 0.1,106.72 0,213.46 0.03,320.18 -19.98,-1.99 -39.91,-4.72 -59.89,-6.74 -0.21,-79.69 -0.03,-159.39 -0.08,-239.08 -0.31,-26.21 0.69,-52.42 -0.74,-78.6zm-251.15 13.2c20.11,-2.63 40.21,-5.18 60.25,-8.27 0.63,107.02 0.02,214.04 0.3,321.07 -18.7,4.08 -37.48,7.83 -56.21,11.74 -12.13,-34.66 -22.15,-70.08 -35.14,-104.4 -1.3,38.18 -0.13,76.43 -0.61,114.63 -20.27,6.99 -40.38,14.44 -60.56,21.64 0,-112.43 0,-224.87 0,-337.33 18.42,-4.11 36.82,-8.39 55.27,-12.35 12.12,31.57 24.81,62.96 35.81,94.93 1.83,-33.84 0.17,-67.78 0.89,-101.66zm330.28 314.69c0.28,-107.21 -0.18,-214.43 0.21,-321.64 40.72,5.67 81.22,12.87 121.41,21.44 7.4,17.25 14.57,34.6 22.08,51.8 2.06,4.52 3.29,9.42 3.16,14.42 0,31.49 -0.18,62.98 0.05,94.47 -0.13,5.33 0.33,11.05 -2.35,15.92 -8.39,16.41 -16.94,32.77 -25.29,49.2 -19.54,-6.56 -39.27,-12.58 -59.2,-17.81 -0.05,35.55 -0.02,71.12 -0.02,106.69 -20.04,-4.82 -40.09,-9.44 -60.05,-14.49zm-500.72 -268.94c20.21,-7.2 40.35,-14.52 60.61,-21.59 -0.18,116.34 0.33,232.65 -0.26,348.97 -21.1,11.07 -40.09,25.56 -60.3,38.04 -0.13,-121.8 -0.02,-243.62 -0.05,-365.42zm658.35 -21.87c20.26,6.15 40.22,13.17 60.4,19.5 0.54,120.57 0.08,241.17 0.23,361.74 -19.85,-12.7 -39.94,-25.03 -60.66,-36.26 0.1,-114.98 0.03,-229.97 0.03,-344.98zm-736.79 61.3c19.49,-11.39 39.42,-22 59.94,-31.44 0,96.56 -0.03,193.15 0.03,289.71 -0.18,11.05 1.12,22.45 -2.38,33.17 -6.51,21.59 -12.65,43.31 -18.96,64.97 -1.71,6.99 -7.58,11.56 -12.37,16.46 -32.36,31.51 -59.87,67.52 -85.49,104.65 -9.72,-14.95 -19.85,-29.68 -29.68,-44.58 -4.23,-5.41 -2.81,-12.58 -3.09,-18.93 0.23,-113.18 0.03,-226.35 0.11,-339.53 -0.59,-3.9 1.91,-6.91 4.72,-9.23 17.68,-15.83 36.23,-30.68 55.22,-44.87 0.1,98.99 -0.08,197.98 0.1,296.99 7.99,-9.16 16.95,-17.36 25.37,-26.08 5.43,-5.16 6.15,-13.12 6.45,-20.16 0.03,-90.36 -0.05,-180.75 0.03,-271.13zm629.02 -9.14c14.58,3.06 29.17,6.05 43.64,9.6 5.87,14.72 2.91,30.74 3.62,46.13 -0.3,5.44 0.44,14.29 -5.51,16.49 -14.01,-2.56 -27.61,-6.97 -41.62,-9.57 -0.33,-20.88 -0.1,-41.75 -0.13,-62.65zm245.54 -1.89c17.07,10.08 35.17,18.83 51.34,30.27 29.45,170 51.27,341.35 70.31,512.86 -21.21,-25.72 -41.42,-52.26 -64.1,-76.7 -2.58,-3.14 -6.13,-6.03 -6.54,-10.31 -3.34,-22.21 -5.18,-44.61 -8.44,-66.81 -0.77,-5.77 -5.62,-9.6 -8.99,-13.91 -12.27,-13.4 -24.16,-27.33 -37.89,-39.27 -0.54,0.05 -1.63,0.13 -2.17,0.18 -3.95,14.11 -6.05,28.68 -10.18,42.77 -16.61,-17 -36.39,-30.35 -54.46,-45.58 22.87,-111.34 47.85,-222.26 71.12,-333.5zm-1127.83 101.62c34.04,-28.89 69.87,-55.66 106.95,-80.51 11.27,13.57 22.12,27.48 33.09,41.26 2.78,2.88 2.86,6.94 2.89,10.69 -0.13,141.6 0.02,283.2 -0.05,424.8 12.88,16.54 26.23,32.72 39.01,49.33 -0.3,37.74 0.13,75.48 -0.23,113.25 -25.16,-26 -48.99,-53.28 -74.08,-79.39 -33.45,34.5 -67.34,68.6 -99.77,104.09 -13.2,-8.44 -26.64,-16.46 -39.84,-24.93 0.21,-153.18 0.05,-306.4 0.08,-459.61 0.05,-5.18 1.12,-10.26 2.7,-15.16 7.74,-23.93 15.26,-47.92 22.69,-71.96 1.35,-4.34 2.78,-8.98 6.56,-11.86zm1285.71 -78.37c38.13,25.36 74.77,52.9 109.71,82.47 3.16,2.61 6.07,5.82 6.66,10.06 8.47,35.19 17.07,70.35 25.69,105.49 1.61,6.58 2.05,13.37 1.94,20.13 -0.3,47.44 0.26,94.91 -0.28,142.35 -23.24,-25.45 -45.5,-51.81 -69.38,-76.66 0.15,-30.44 -0.08,-60.89 0.13,-91.36 0.1,-10.46 -0.85,-21.28 -5.16,-30.93 -10.23,-10.94 -22.51,-19.8 -33.73,-29.65 -0.28,109.58 0.05,219.15 -0.18,328.73 -0.03,10.87 1.17,23.32 9.72,31.11 9.75,9.97 19.19,20.26 29.12,30.06 0.28,-34.22 0.18,-68.47 0.05,-102.71 21.33,22.99 41.69,46.82 61.98,70.73 3.14,4.27 8.17,8.25 7.68,14.14 0.08,32.28 -0.18,64.59 0.08,96.87 -0.13,5.61 0.77,11.84 -3.04,16.53 -10.97,16.26 -22.96,31.77 -35.09,47.16 -32.3,-34.47 -64.45,-69.1 -98.01,-102.33 -5.18,-5.56 -12.5,-9.85 -14.72,-17.5 -8.68,-29.91 -16.92,-59.92 -25.65,-89.8 -3.34,-10.62 -2.09,-21.82 -2.25,-32.74 0.05,-77.35 0,-154.69 0.03,-232.04 0.38,-39.94 -0.77,-79.97 0.51,-119.86 10.54,-23.78 22.71,-46.88 34.19,-70.25zm-1248.89 143.26c14.42,-12.43 28.76,-25.01 43.92,-36.54 6.02,9.77 3.8,21.46 4.08,32.3 -0.02,112.28 -0.02,224.59 0.03,336.87 -0.23,10.28 -3.58,21.03 -11.28,28.2 -14.98,14.87 -29.25,30.44 -43.59,45.96 -2.06,-3.09 -4.95,-6.1 -4.46,-10.19 -0.08,-121.72 0.07,-243.47 -0.08,-365.19 0.15,-11.18 2.27,-23.91 11.38,-31.41zm1091.65 87.42c6.89,-30.16 12.27,-60.68 20.39,-90.53 6.76,42.15 12.96,84.38 18.86,126.67 -12.79,-12.38 -25.73,-24.58 -39.25,-36.14zm-750.14 126.35c6.69,-24.12 25.27,-43.31 46.06,-56.3 -4.46,26.13 3.91,53.64 23.53,71.73 61.37,-38.91 132.01,-63.23 204.4,-69.76 82.12,-7.5 166.28,6.61 240.79,42.18 22.18,10.08 42.7,23.3 63.44,35.9 21.31,-17.66 33.87,-46.11 28.89,-73.82 20.03,11.02 38.74,28.07 44.17,51.09 6.2,24.6 -2.86,49.68 -14.59,71.09 80.84,76.43 131.92,183.2 141.42,293.97 8.8,97.94 -14.88,198.36 -66.48,282.08 -33.63,55.15 -79.18,102.79 -132.05,139.79 35.11,7.2 74.81,7.53 105.56,-13.4 19.5,-13.09 41.47,-26.71 66.07,-23.35 13.6,0.13 24.81,10.08 38.43,9.52 30.65,0.21 60.2,15.64 79.34,39.3 7.96,8.3 14.08,18.68 23.76,25.14 22.53,-5.82 37.3,-26.11 46.77,-46.14 15.52,31.62 16.79,73.82 -8.8,100.72 -1.76,7.4 -4.6,14.52 -6.38,21.92 1.3,1.43 3.9,4.26 5.2,5.69 17.02,-12.73 28.86,-30.57 40.25,-48.18 5.56,19.22 7.29,39.56 4.26,59.38 -1.28,8.99 -4.52,18.12 -1.74,27.15 8.75,32.97 5.08,71.69 -18.45,97.84 -6.22,7.63 -17.5,11.05 -19.83,21.57 -6.91,19.54 -19.39,37.58 -37.05,48.81 -16.53,10.64 -36.59,14.98 -56.09,13.88 -15.44,-0.99 -30.54,3.98 -46.01,2.81 -19.62,-1.38 -41.13,-2.83 -57.03,-15.82 -21.23,-15.64 -41.44,-35.27 -68.26,-40.37 -13.58,-0.92 -26.87,3.39 -40.42,3.62 -27.95,2.66 -54.84,-6.84 -81.53,-13.55 -84.21,-23.83 -166.77,-56.11 -241.13,-102.71 -57.54,-37.31 -112.97,-78.14 -163.82,-124.25 -4.75,-4.21 -10.64,-6.66 -16.36,-9.16 -104.22,-46.29 -189.24,-133.2 -234.34,-237.83 -34.01,-78.06 -45.37,-165.64 -33.25,-249.87 12.79,-91.13 53.87,-177.97 116.09,-245.75 11.53,-12.27 23.47,-24.14 35.9,-35.49 -8.7,-18.32 -14.21,-39.15 -10.72,-59.43zm140.89 124.65c16.92,8.19 32.56,19.98 43.61,35.35 7.4,10.71 12.07,24.72 7.76,37.58 -2.5,7.97 -9.47,13.12 -15.44,18.43 15.34,0.25 31.72,-2.81 43.15,-13.83 8.93,-7.86 13.68,-19.09 17.12,-30.22 16.67,-0.69 33.33,0.34 50.02,0.62 11.58,24.85 -3.32,51.01 -4.21,76.37 -0.69,9.6 4.47,18.07 11,24.63 -0.36,-14.73 4.36,-29.48 16.2,-38.89 -1.99,16.1 3.96,31.49 13.99,43.81 9.34,-12.53 15.87,-27.33 14.13,-43.33 4.7,5 9.83,9.95 12.33,16.49 2.93,7.17 2.19,15.08 2.63,22.66 6.45,-5.87 11.86,-13.55 11.91,-22.61 0.23,-20.65 -8.6,-40.37 -7.7,-61.12 0.43,-5.84 1.53,-11.99 5.41,-16.61 16.07,-1.89 32.48,-1.05 48.63,-0.54 4.65,10.13 7.74,21.44 16.13,29.3 11.38,12.15 28.56,15.85 44.61,15.95 -7.81,-6.61 -16.59,-14.39 -16.72,-25.49 -1.65,-20.44 12.89,-37.47 27.92,-49.33 7.35,-5.92 15.31,-11.15 24.06,-14.75 -10.66,8.88 -19.62,19.62 -26.56,31.62 11.02,-3.78 22.38,-6.72 34.07,-7.2 -11.54,5.2 -22.76,11.18 -32.31,19.6l1.15 0.64c38.15,28.91 80.43,56.44 104.88,98.9 -10.87,2.05 -21.44,5.36 -31.44,10.08 24.75,11.87 38.74,37.39 46.6,62.58 5.05,15.49 7.78,31.59 10,47.69 -13.7,-16 -30.77,-29.96 -51.39,-35.73 -18.12,-5.64 -37.77,-4.51 -55.79,0.97 -31.33,9.29 -59.27,26.93 -85.51,45.99 -5.92,-11.13 -15.9,-21.77 -29.39,-21.85 -19.71,0.18 -37.01,12.43 -50.48,25.83 17.12,-6.05 35.67,-11.03 53.69,-5.59 -6.48,4.77 -13.32,9.49 -17.74,16.38 -26.36,10.31 -55.47,11.46 -83.16,6.84 -9.16,-2.25 -19.19,-3.67 -26.79,-9.67 -5.34,-5.44 -11.28,-10.21 -17.33,-14.8 18.3,-4.8 36.87,0.02 54.1,6.43 -13.4,-13.45 -30.37,-26.16 -50.09,-26.62 -13.53,-0.12 -23.33,10.47 -29.73,21.18 -32.34,-23.73 -67.6,-47.31 -108.35,-52.23 -32.46,-3.6 -63.11,13.65 -84.01,37.38 4.54,-29.27 11.51,-59.33 28.91,-83.85 7.17,-10.77 17.64,-18.68 28.84,-24.83 -9.49,-5.31 -19.93,-8.6 -30.55,-10.82 8.42,-15.46 20.7,-28.3 33.38,-40.29 22.56,-21.64 48.69,-38.94 73.9,-57.16 -8.6,-9.11 -19.98,-14.55 -30.88,-20.34 11.49,0.66 22.51,4.03 33.33,7.78 -7.07,-12.81 -16.69,-24.01 -27.89,-33.38zm41.82 168.63c9.24,0.92 19.55,1.84 26.54,8.67 -0.69,3.12 -1.5,6.23 -2.4,9.32 -3.01,1.86 -7.35,3.06 -8.29,6.99 -1.73,5 2.96,8.65 5.31,12.45 0.69,1.33 2.12,3.98 2.83,5.31 -6.53,-0.15 -13.04,-0.41 -19.54,-0.53 -7.53,-12.84 -6.77,-28.05 -4.45,-42.21zm252.18 14.21c8.03,-3.16 16.56,-4.62 25.18,-4.69 2.66,14.26 0.54,29.14 -7.09,41.62 -5.87,-0.23 -11.74,-0.41 -17.61,-0.54 2.17,-12.07 1.89,-24.39 -0.48,-36.39zm-210.43 5.72c8.73,11.63 17.48,23.3 24.99,35.78 -9.29,-3.4 -18.63,-6.74 -28.18,-9.32 2.3,-8.63 3.5,-17.53 3.19,-26.46zm164.72 38.86c5.64,-7.78 11.97,-15 18.05,-22.43 2.34,4.7 5.92,8.55 11.12,9.95 0.41,1.38 1.17,4.16 1.56,5.54 -10.34,1.89 -20.54,4.44 -30.73,6.94zm-390.1 129.2c-1.88,-45.73 0.59,-93.17 19.25,-135.6 -6.59,32.86 -10.03,66.34 -10.08,99.85 1.32,41.03 8.01,81.94 20.16,121.16 16.07,53.54 48.1,100.54 83.29,143.29 60.4,72.16 135.5,130.27 213.2,182.61 75.69,50.45 161.38,84.08 248.63,108.55 17.58,4.29 34.98,10.03 53.1,11.71 36.31,0.79 71.61,-12.5 108.02,-9.41 -15.51,-11.79 -35.7,-13.53 -54.51,-14.34 -17.02,-0.85 -34.01,1.63 -51.03,0.91 -15.72,-1.7 -30.96,-6.3 -46.24,-10.13 -85.49,-23.42 -169.34,-55.75 -244.32,-103.55 -74.25,-49.02 -145.88,-103.3 -205.98,-169.29 -29.5,-32.58 -55.96,-68.06 -77.06,-106.66 -26.52,-49.36 -38.1,-105.22 -43.13,-160.59 3.39,-3.52 6.81,-7.02 10.26,-10.44 2.81,40.42 3.6,81.71 15.46,120.78 6.2,-2.3 10.18,-7.99 14.93,-12.22 6.43,26.51 15.52,52.69 30.16,75.89 10.13,16.97 24.22,31 36.52,46.34 -0.54,-23.53 0.72,-48.82 14.65,-68.8 11.02,-16.61 33.55,-22.99 52.16,-16.97 15,5.67 26.03,18.2 34.93,31.11 17.1,24.68 27.36,53.15 37.16,81.3 20.59,27.71 50.24,46.85 78.95,65.23 38.48,23.32 78.52,44.27 120.04,61.57 44.04,18.14 90.08,34.43 138.1,36.26 47.8,0.1 88.91,-27.74 126.37,-54.27l0.43 0.05c10.42,1.02 23.94,1.6 28.94,12.6 2.96,6.26 -2.68,11.89 -7.73,14.68 -17.86,10.53 -38.41,14.87 -57.67,22.07 7.78,0.81 15.62,1.3 23.42,2.14 -37.02,14.01 -76.42,19.63 -114.85,28.4 51.36,10.13 104.62,10.29 156.04,0.44 19.85,-3.19 39.35,-9.39 59.59,-9.8 12.73,-0.61 23.37,9.7 26.99,21.26 2.61,8.19 1.02,16.86 0.21,25.23 -25.57,0.67 -57.01,3.07 -71.38,27.74 12.43,-5.28 25.01,-12.37 39.02,-11.25 12.99,1.3 25.7,4.74 38.79,5.38l0.3 0.64c8.48,15.26 14.91,32.89 9.8,50.45 -12.96,-4.26 -25.21,-11.15 -38.86,-12.91 -13.27,-0.49 -26.41,2.52 -38.94,6.66 11.99,2.65 25.36,2.73 35.55,10.51 8.24,6.51 18.11,10.29 28.12,13.17 -0.41,11.76 -0.36,25.31 -9.6,34.04 -4.82,5.49 -12.5,5.95 -19.29,6.46 -14.67,-4.98 -29.12,-11.08 -44.55,-13.53 14.03,5.51 29.24,9.67 40.21,20.67 -12.73,14.6 -31.67,21.74 -50.7,22.66 -12.99,-5.38 -22.38,-16.43 -34.43,-23.4 -5.99,-3.7 -12.86,-5.87 -18.42,-10.26 12.09,-4.23 24.75,-6.63 36.72,-11.28 -15.69,-1.3 -31.52,-2.75 -47.18,-0.61 -21.18,2.73 -42.19,6.97 -63.49,8.53 -19.19,1.86 -37.69,-4.78 -56.09,-9.06 -86.15,-23.33 -170.75,-55.56 -246.33,-103.53 -72.37,-47.57 -142.06,-100.24 -201.37,-163.63 -34.47,-37.15 -65.3,-78.11 -88.42,-123.33 -23.17,-48.48 -34.4,-102.04 -37.82,-155.48zm49.69 -88.29c16.48,-20.21 44.68,-27.71 69.87,-24.45 37.74,4.31 70.38,25.75 101.51,45.91 -0.69,5.08 -1.28,10.13 -1.81,15.23 -27.71,-18.06 -56.58,-35.88 -89.09,-43.66 -21.25,-5.18 -44.19,0.49 -61.6,13.37 -8.21,5.82 -14.52,13.78 -21,21.36 0.03,-9.24 -0.69,-18.83 2.12,-27.76zm476.09 -20.72c25.78,-3.47 54.21,4.26 71.4,24.52 3.58,9.01 2.12,19.34 2.22,28.89 -9.97,-13.25 -22.07,-25.5 -37.71,-31.8 -14.68,-6.4 -31.36,-8.06 -46.88,-3.95 -31.77,7.78 -60.55,24.37 -87.71,42.15 -0.2,-5.56 -0.46,-11.1 -0.76,-16.61 31.16,-18.27 62.72,-38.99 99.44,-43.2zm-478.26 80.53c17.58,-37.02 62.55,-62.95 103.12,-48.89 22.63,6.86 43.38,18.7 63.13,31.51 11.23,6.28 9.47,21.26 13.35,31.93 -27.51,-14.75 -55.86,-29.83 -87.2,-34.17 -10.84,-1.71 -21.82,0.15 -32,4.03 7.28,4.77 14.6,9.52 21.79,14.42 -29.83,-0.77 -58.64,9.54 -83.72,25.11 -0.77,-7.96 -2.55,-16.54 1.53,-23.94zm380.78 -12.12c22.59,-15.39 47.29,-28.6 73.98,-35.19 39.12,-9.8 79.31,16.41 96.13,51.04 4.59,7.73 2.58,16.82 1.61,25.16 -24.58,-16.26 -53.16,-26.39 -82.76,-26.95 7.12,-4.85 14.47,-9.36 21.72,-14.01 -10.21,-3.57 -21.05,-6.02 -31.9,-4.39 -31.75,3.81 -60.71,18.48 -88.68,33.1 3.63,-9.42 4.09,-20.49 9.9,-28.76zm-344.17 -454.37l0 -15.23 3.65 -1.8 0 -37.33 -3.65 1.8 0 -15.32 37.64 -18.61 9.74 6.05 0 17.46 -4 6.43 4 2.49 0 19.78 -9.74 15.67 -37.64 18.61zm28.69 -56.95l2 -3.21 0 -5.34 -2 -1.24 -8.35 4.13 0 9.79 8.35 -4.13zm0 27.54l2 -3.22 0 -7.85 -2 -1.24 -8.35 4.12 0 12.32 8.35 -4.13zm40.78 -13.46l0 -46.15 10.41 -13.98 28.61 -8.56 10.4 7.74 0 46.16 -10.4 13.98 -28.61 8.56 -10.41 -7.75zm19.97 -10.34l9.48 -2.83 2.04 -2.75 0 -33.07 -2.04 -1.52 -9.57 2.87 -2.04 2.74 0 32.97 2.13 1.59zm49.22 1.93l0 -15.22 4.03 -0.6 0 -37.33 -4.03 0.6 0 -15.32 41.53 -6.17 10.75 9.26 0 17.46 -4.42 5.11 4.42 3.81 0 19.78 -10.75 12.46 -41.53 6.16zm31.65 -47.46l2.21 -2.56 0 -5.33 -2.21 -1.9 -9.2 1.36 0 9.8 9.2 -1.37zm0 27.54l2.21 -2.56 0 -7.85 -2.21 -1.9 -9.2 1.36 0 12.32 9.2 -1.37zm43.6 -0.1l0 -46.16 10.86 -10.7 29.87 0.44 10.86 11.03 0 15.12 -18.72 -0.28 0 -8.53 -2.13 -2.16 -9.99 -0.15 -2.13 2.1 0 32.97 2.23 2.26 9.89 0.15 2.13 -2.1 0 -8.15 18.72 0.28 0 14.64 -10.86 10.7 -29.87 -0.44 -10.86 -11.02zm72.49 13.22l25.63 4.3 0 -15.23 -2.29 -0.38 1.15 -3.01 12.81 2.15 1.05 3.38 -2.29 -0.39 0 15.23 25.63 4.29 0 -15.22 -3.92 -0.66 -12.24 -39.38 3.34 0.56 0 -15.32 -35.57 -5.97 0 15.32 2.96 0.5 -12.24 35.28 -4.02 -0.67 0 15.22zm26.78 -25.18l4.11 -12.79 4.02 14.15 -8.13 -1.36zm43.29 -10.43l0 -19.3 54.54 17.6 0 19.3 -14.58 -4.71 0 -3.97 -3.79 -1.22 0 37.33 3.79 1.22 0 15.22 -25.47 -8.21 0 -15.23 3.87 1.25 0 -37.33 -3.87 -1.25 0 3.97 -14.49 -4.67zm76.01 65.32l0 -13 16.69 8.25 0 6.4 2.08 3.26 8.7 4.3 2 -1.15 0 -6.69 -1.92 -2.98 -17.82 -8.81 -9.73 -15.67 0 -20.07 9.73 -6.05 26.78 13.23 9.73 15.67 0 13.38 -16.77 -8.29 0 -6.79 -1.92 -3.07 -9.04 -4.47 -1.82 1.23 0 6.88 1.91 3.08 17.91 8.85 9.73 15.67 0 19.69 -9.73 6.05 -26.78 -13.23 -9.73 -15.67zm-301.36 312.38l0 0c-8.93,-3.44 -18.47,-4.75 -27.84,-6.46 7.27,-10.02 17.15,-17.58 27.05,-24.8 -26.67,7.66 -53.97,21.28 -69.13,45.45 -0.87,0.38 -2.6,1.15 -3.44,1.53 7.04,0.23 14.08,0.33 21.13,0.64 -5.36,19.78 -6.26,42.82 6.5,60.07 2.86,3.34 5.57,8.98 10.9,7.81 20.03,-1.87 40.73,-1.07 59.81,5.87 9.01,3.29 16.77,9.06 25.17,13.6l1.5 1.4c-0.05,-4.57 -0.13,-9.13 -0.25,-13.68 6.99,-0.63 15.54,-0.3 19.82,-7.06 8.19,-12.51 4.21,-28.33 3.01,-42.19 -1.48,10.44 -3.31,21.03 -8.44,30.42 -4.44,-3.32 -9.09,-6.43 -13.09,-10.28 -14.55,-13.5 -16.1,-35.5 -30.88,-48.9 -0.77,-32.28 10.46,-63.97 30.39,-89.23 -25.95,17.71 -44.43,45.5 -52.21,75.81zm167.58 -75.38l0 0c10.44,13.22 19.9,27.56 24.78,43.87 5.41,15.03 5.77,31.13 5.49,46.92 -6.1,3.63 -11.54,8.35 -16.01,13.84 -8.08,9.46 -10.38,22.63 -19.57,31.28 -4.95,5.46 -11.86,8.35 -18.57,10.97 -3.32,-9.39 -4.34,-19.39 -3.47,-29.29 -4.39,13.24 -8.83,28.73 -1.99,41.93 3.57,6.94 11.71,7.83 18.62,8.62 -0.51,4.7 -1.04,9.39 -1.5,14.11 0.51,-0.41 1.55,-1.2 2.06,-1.61 7.38,-3.01 14.35,-7.04 21.92,-9.57 22.41,-7.52 46.29,-4.38 69.13,-1.19 21.11,-14.47 24.68,-42.88 20.55,-66.3 5.92,0.33 11.84,0.69 17.78,0.74l1.41 0.82c-13.3,-26.11 -38.92,-43.49 -65.48,-54.13 9,8.4 18.16,16.89 24.34,27.71 -9.47,1.48 -19.39,0.41 -28.56,3.27l-0.02 -2.68c-0.38,-9.01 -4.21,-17.27 -7.68,-25.41 -9.55,-21.24 -24.37,-40.2 -43.23,-53.9zm-297.98 64.08l0 0c15.7,1.81 31.19,5.1 45.99,10.74 -7.99,-7.96 -15.82,-16.33 -25.39,-22.41 -8.17,-0.23 -14.8,6.56 -20.6,11.67zm433.61 8.57l0 0c15.13,-2.37 30.47,-3.27 45.78,-2.4 -4.75,-6.63 -10.97,-11.97 -18.04,-15.95 -9.57,5.62 -19.14,11.33 -27.74,18.35zm-439.55 42.72l0 0c-7.51,8.04 -12.12,18.22 -16.31,28.25 14.6,-7.17 30.42,-12.61 46.9,-11.87 15.85,-0.51 30.88,4.95 45.68,9.93 -14.16,-20.29 -39.65,-29.14 -63.62,-29.09 -4.21,0.33 -9.46,-0.72 -12.65,2.78zm414.29 29.17l0 0c9.69,-2.86 19.26,-6.41 29.32,-7.97 21.71,-4.1 43.86,1.38 63.26,11.34 -4.03,-11.16 -10.11,-21.37 -17.33,-30.68 -27.35,-3.03 -58.26,4.06 -75.25,27.31zm-405.8 -316.69l0 0c-6.37,3.75 -12.32,8.25 -18.98,11.49 -16.1,-12.76 -29.55,-30.6 -33.81,-51.01 -0.92,-2.27 -0.64,-5.49 -3.11,-6.77 -7.18,6.89 -13.33,15.47 -15.39,25.34 -3.35,21.46 4.05,42.75 14.8,61.07 -34.81,29.22 -65.23,63.64 -89.78,101.87 -48.71,75.28 -73.51,165.56 -70.53,255.16 1.99,80.35 26.54,159.92 69.95,227.54 35.82,56.19 84.39,104.17 141.01,139.33 21.23,13.93 44.71,23.86 67.29,35.22 53.34,47.84 110.85,91.07 171.26,129.63 75.25,46.09 158.44,78.06 243.44,101.05 21.77,5.36 43.82,12.48 66.55,9.95 17.28,-0.43 34.96,-7.5 51.96,-1.32 28.6,8.32 49.68,30.39 74,46.29 20.39,10.46 44.73,12.12 67.06,7.96 15.34,-3.39 31.42,1.46 46.57,-3.65 16.72,-3.8 29.78,-16.13 38.72,-30.26 -11.97,3.06 -24.3,5.02 -36.65,3.7 1.86,-3.35 3.65,-6.79 5.97,-9.85 10.98,-2.58 22.74,-3.73 32.18,-10.54 10.39,-5.85 14.6,-18.1 24.75,-24.19 20.78,-13.81 29.78,-39.71 29.71,-63.77 -9.75,11.48 -20.37,22.91 -34.83,28.37 -2.58,-4.64 -5.19,-9.24 -7.79,-13.83 9.09,-9.82 13.35,-22.94 22.43,-32.74 14.83,-16.66 20.93,-39.96 17.86,-61.91 -8.67,12.61 -19.41,23.99 -33.5,30.5 -6.53,-8.88 -15.34,-15.82 -25.82,-19.4 6.76,-10.97 13.47,-22.5 14.21,-35.7 6.81,-5.89 13.47,-12.4 16.87,-20.92 5.46,-12.22 5.18,-25.85 4.41,-38.92 -12.48,13.17 -27,26.57 -45.75,29.02 -7.2,-2.73 -13.4,-7.38 -20.44,-10.39 -19.73,-9.13 -42.13,-11.17 -63.44,-7.6 -1.18,-5.69 -2.43,-11.36 -3.78,-16.97 15.54,-4.11 31.69,-4.47 47.62,-3.06 -17.15,-18.04 -41.95,-28.79 -66.96,-27.54 -9.03,0.97 -16.36,-5.05 -24.58,-7.5 -11.84,-3.47 -24.88,-2.96 -36.28,1.81 -19.96,7.91 -35.68,23.94 -56.37,30.27 -41.21,13.83 -85.67,5.51 -126.42,-5.69 22.35,-14.24 44.66,-28.71 64.74,-46.09 63.52,-53.44 111.77,-124.91 137.16,-203.94 33.94,-104.32 27.92,-221.15 -17.2,-321.18 -25.16,-56.78 -62.9,-107.58 -108.53,-149.56 13.17,-18.86 22.69,-41.39 20.67,-64.82 -1.07,-11.63 -8.67,-21.18 -16.97,-28.81 -3.29,26.36 -21.59,47.59 -41.92,63.26 -73.68,-53.92 -164.65,-83.85 -255.9,-84.41 -82.71,-1.69 -165.67,20.77 -236.46,63.51zm675.5 -152.67l0 0c4.13,3.54 8.24,7.14 12.33,10.79 -1.97,-13.5 -3.91,-27 -6.13,-40.47 -2.12,9.87 -4.23,19.78 -6.2,29.68zm-1095.88 -76.2l0 0c-6.87,5.69 -8.12,15.28 -8.14,23.71 0.2,117.56 -0.11,235.12 0.15,352.69 10.41,-10.57 20.72,-21.26 30.75,-32.21 5.38,-5.79 6.89,-14.01 6.84,-21.66 -0.21,-115.78 0.1,-231.58 -0.16,-347.36 -9.95,8.09 -19.93,16.2 -29.44,24.83zm1244.93 -135.04l0 0c-8.39,19.16 -19.26,37.25 -26.92,56.7 -1.43,49.22 -0.18,98.6 -0.59,147.88 -0.05,72.39 0.05,144.79 -0.07,217.18 -0.03,6.2 1.04,12.35 2.78,18.3 6.51,22.69 12.96,45.37 19.42,68.08 2.7,9.04 4.03,19.37 11.81,25.75 33,31.59 63.65,65.51 95.59,98.09 8.09,-11.43 17.03,-22.27 24.68,-34.04 3.27,-4.44 2.71,-10.15 2.86,-15.36 -0.28,-29.8 -0.03,-59.61 -0.1,-89.42 0.74,-7.04 -4.98,-11.96 -8.91,-16.99 -13.14,-15.03 -25.54,-30.75 -39.6,-44.91 0,22.35 -0.05,44.7 0.02,67.06 -0.2,10.03 1.87,21.13 -4.82,29.62 -14.42,-15.33 -28.53,-30.95 -43.53,-45.7 -8.99,-8.14 -10.67,-21.1 -11.62,-32.53 -0.07,-111.44 0.06,-222.88 -0.05,-334.32 -0.33,-6.43 2.56,-12.3 5.13,-17.99 13.91,10.95 27.31,22.53 40.71,34.07 4.46,4 9.64,8.14 10.71,14.42 4.77,14.92 3.32,30.69 3.45,46.08 -0.03,20.39 0.07,40.78 -0.13,61.14 0.2,4.75 -0.79,10.41 3.39,13.83 15.39,15.93 29.78,32.79 44.99,48.92 0.61,-37.08 -0.02,-74.15 0.33,-111.23 0.16,-7.91 -0.35,-15.85 -2.27,-23.53 -7.96,-33.05 -15.79,-66.09 -24.19,-99.01 -0.92,-5.72 -6.02,-9.01 -10,-12.56 -30.06,-24.39 -60.38,-48.71 -93.07,-69.53zm-1277.55 66.4l0 0c-3.24,2.73 -6.61,5.74 -7.8,10 -6.54,19.85 -12.69,39.83 -18.97,59.76 -2.78,9.04 -6.4,18.1 -6.17,27.72 0.13,150.55 0,301.09 0.08,451.64 8.85,5.54 17.73,11.05 26.56,16.67 33.84,-35.52 68.06,-70.69 102.28,-105.85 21.53,22.28 41.75,45.8 63.51,67.83 0.67,-23.48 0.03,-46.98 0.41,-70.46 -0.18,-5.44 0.66,-11.66 -3.49,-15.92 -11.08,-14.45 -23.05,-28.23 -33.97,-42.77 -2.45,-2.81 -2.09,-6.69 -2.27,-10.13 0.13,-139.54 0,-279.07 0.08,-418.61 0.12,-3.54 -0.64,-7.14 -3.09,-9.82 -7.84,-10.23 -16,-20.21 -24.17,-30.16 -32.1,21.84 -63.1,45.27 -92.99,70.1zm1123.47 -89.04l0 0c-22.73,104.37 -44.78,208.9 -67.01,313.37 12.74,9.03 25.09,18.6 36.9,28.83 3.4,-15.05 6.82,-30.11 10.13,-45.19 21.67,18.65 41.04,39.83 59.79,61.37 3.01,3.37 5.69,7.22 5.92,11.92 3.19,23.3 5.92,46.65 9.04,69.94 16.05,17.64 30.34,36.78 45.62,55.05 -16.71,-159.31 -39.07,-318.04 -66.12,-475.89 -11.38,-6.56 -22.66,-13.25 -34.27,-19.4zm-242.8 -1.35l0 0c0,13.65 -0.13,27.28 0.2,40.93 8.85,2.04 17.68,4.16 26.59,6.13 -0.13,-13.86 0.61,-27.77 -0.89,-41.57 -8.65,-1.79 -17.28,-3.65 -25.9,-5.49zm-627.86 2.22l0 0c-1.07,7.43 -0.51,14.95 -0.58,22.43 0.15,79.08 -0.11,158.19 0.12,237.27 0.08,11.43 -0.89,24.68 -10.05,32.76 -14.16,13.4 -26.69,28.36 -40.32,42.24 -4.82,-10.77 -3.14,-22.74 -3.29,-34.17 -0.03,-87.99 0.1,-175.98 -0.08,-263.96 -13.34,9.49 -26.36,19.77 -37.76,31.54 -2.38,6.45 -0.69,13.8 -1.13,20.62 0.05,107.12 0.11,214.27 -0.02,321.4 0.1,3.88 -0.05,8.12 2.34,11.43 6.54,10.39 13.48,20.54 20.85,30.37 23.51,-34.37 50.3,-66.5 80,-95.67 3.55,-3.32 6.74,-7.2 7.79,-12.07 5.61,-19.78 11.15,-39.58 17.22,-59.23 2.17,-6.5 2.91,-13.34 2.76,-20.16 -0.41,-95.15 0.33,-190.31 -0.36,-285.47 -12.58,6.74 -25.8,12.45 -37.49,20.67zm736.33 -53.03l0 0c0.16,108.25 -0.48,216.5 0.31,324.75 13.27,6.58 25.65,14.75 38.53,22.02 0.11,-111.34 0.08,-222.67 0.03,-334.01 -12.86,-4.54 -25.83,-8.78 -38.87,-12.76zm-658.24 14.42l0 0c-0.28,112.69 -0.26,225.38 -0.03,338.07 12.99,-8.17 25.8,-16.62 38.89,-24.65 -0.2,-108.94 -0.07,-217.88 -0.07,-326.82 -13.12,3.93 -25.93,8.76 -38.79,13.4zm500.01 -47.51l0 0c-0.06,100.26 0.05,200.52 -0.06,300.78 13.07,2.96 26.11,6.05 39.07,9.36 -0.02,-35.64 -0.46,-71.29 0.23,-106.92 21.67,5.54 43.15,11.77 64.46,18.58 4.93,-9.72 9.85,-19.44 15.01,-29.07 3.67,-7.22 8.32,-14.54 7.65,-22.99 -0.41,-32.38 0.56,-64.79 -0.46,-97.12 -5.82,-18.58 -14.8,-36.06 -22.17,-54.07 -34.32,-7.51 -68.95,-13.66 -103.73,-18.55zm-329.88 4.08l0 0c-0.23,50.29 0.69,100.64 -0.48,150.94 -2.3,-4.7 -4.37,-9.52 -6.13,-14.44 -15.08,-42.54 -30.95,-84.8 -47.41,-126.83 -12.66,2.55 -25.24,5.46 -37.79,8.42 -0.06,104.47 0.07,208.97 -0.06,313.47 13.02,-4.93 26.26,-9.24 39.2,-14.34 -0.46,-58.39 -0.18,-116.78 -0.15,-175.16 19.39,53.03 35.34,107.28 53.74,160.66 12.63,-2.98 25.36,-5.61 38.12,-8.11 -0.1,-99.93 -0.15,-199.89 0.03,-299.82 -13.07,1.41 -26.08,3.22 -39.07,5.21zm251.43 -11.26l0 0c-0.07,98.86 -0.02,197.72 -0.02,296.58 12.99,1.25 25.97,2.81 38.91,4.41 -0.25,-99.24 0.49,-198.53 -0.35,-297.74 -12.71,-2.28 -25.7,-2.2 -38.54,-3.25zm-81.66 -2.39l0 0c-0.17,49.94 0.21,99.85 -0.2,149.76 -17.89,-49.2 -34.88,-98.73 -53.38,-147.72 -12.48,0.38 -24.94,1.38 -37.39,2.12 -0.64,99.39 -0.1,198.78 -0.28,298.18 12.86,-1.53 25.77,-2.89 38.71,-3.86 0.69,-55.47 -0.28,-110.98 0.49,-166.45 19.11,54.17 34.98,109.45 52.77,164.08 12.73,-0.08 25.47,-0.2 38.2,0.31 -0.05,-98.53 -0.03,-197.08 -0.03,-295.61 -12.96,-0.35 -25.92,-0.94 -38.89,-0.81z"/>
   <path class="fil2" d="M1095.17 775.12c14.75,-10 32.02,-16.94 49.96,-17.91 12.79,-0.69 24.93,4.44 35.47,11.25 -5.94,-0.05 -11.86,-0.41 -17.78,-0.74 -3.24,-0.18 -6.49,-0.31 -9.7,-0.41 1.45,20.16 -1.02,42.11 -15.13,57.72 -30.04,-8.57 -63.67,-1.53 -86.77,19.75 -0.51,0.41 -1.55,1.2 -2.06,1.61 0.46,-4.72 0.99,-9.41 1.5,-14.11 -6.91,-0.79 -15.05,-1.68 -18.62,-8.62 -6.84,-13.2 -2.4,-28.69 1.99,-41.93 -0.87,9.9 0.15,19.9 3.47,29.29 3.8,4.14 9.74,7.18 15.03,3.58 17.2,-9.62 26.46,-28.51 42.64,-39.48zm76.58 33.56c16.99,-23.25 47.9,-30.34 75.25,-27.31 7.22,9.31 13.3,19.52 17.33,30.68 -19.4,-9.96 -41.55,-15.44 -63.26,-11.34 -10.06,1.56 -19.63,5.11 -29.32,7.97zm-414.29 -29.17c3.19,-3.5 8.44,-2.45 12.65,-2.78 23.97,-0.05 49.46,8.8 63.62,29.09 -14.8,-4.98 -29.83,-10.44 -45.68,-9.93 -16.48,-0.74 -32.3,4.7 -46.9,11.87 4.19,-10.03 8.8,-20.21 16.31,-28.25zm439.55 -42.72c8.6,-7.02 18.17,-12.73 27.74,-18.35 7.07,3.98 13.29,9.32 18.04,15.95 -15.31,-0.87 -30.65,0.03 -45.78,2.4zm-433.61 -8.57c5.8,-5.11 12.43,-11.9 20.6,-11.67 9.57,6.08 17.4,14.45 25.39,22.41 -14.8,-5.64 -30.29,-8.93 -45.99,-10.74zm297.98 -64.08c18.86,13.7 33.68,32.66 43.23,53.9 3.47,8.14 7.3,16.4 7.68,25.41l0.02 2.68c-6.96,2.76 -14.13,5.05 -20.66,8.8 0.28,-15.79 -0.08,-31.89 -5.49,-46.92 -4.88,-16.31 -14.34,-30.65 -24.78,-43.87zm-167.58 75.38c7.78,-30.31 26.26,-58.1 52.21,-75.81 -19.93,25.26 -31.16,56.95 -30.39,89.23 -6.51,-5.61 -13.88,-10.2 -21.82,-13.42zm696.7 -611.44c32.69,20.82 63.01,45.14 93.07,69.53 3.98,3.55 9.08,6.84 10,12.56 8.4,32.92 16.23,65.96 24.19,99.01 1.92,7.68 2.43,15.62 2.27,23.53 -0.35,37.08 0.28,74.15 -0.33,111.23 -15.21,-16.13 -29.6,-32.99 -44.99,-48.92 -4.18,-3.42 -3.19,-9.08 -3.39,-13.83 0.2,-20.36 0.1,-40.75 0.13,-61.14 -0.13,-15.39 1.32,-31.16 -3.45,-46.08 -1.07,-6.28 -6.25,-10.42 -10.71,-14.42 -13.4,-11.54 -26.8,-23.12 -40.71,-34.07 -2.57,5.69 -5.46,11.56 -5.13,17.99 0.11,111.44 -0.02,222.88 0.05,334.32 0.95,11.43 2.63,24.39 11.62,32.53 15,14.75 29.11,30.37 43.53,45.7 6.69,-8.49 4.62,-19.59 4.82,-29.62 -0.07,-22.36 -0.02,-44.71 -0.02,-67.06 14.06,14.16 26.46,29.88 39.6,44.91 3.93,5.03 9.65,9.95 8.91,16.99 0.07,29.81 -0.18,59.62 0.1,89.42 -0.15,5.21 0.41,10.92 -2.86,15.36 -7.65,11.77 -16.59,22.61 -24.68,34.04 -31.94,-32.58 -62.59,-66.5 -95.59,-98.09 -7.78,-6.38 -9.11,-16.71 -11.81,-25.75 -6.46,-22.71 -12.91,-45.39 -19.42,-68.08 -1.74,-5.95 -2.81,-12.1 -2.78,-18.3 0.12,-72.39 0.02,-144.79 0.07,-217.18 0.41,-49.28 -0.84,-98.66 0.59,-147.88 7.66,-19.45 18.53,-37.54 26.92,-56.7zm-1024.74 -21.77c11.69,-8.22 24.91,-13.93 37.49,-20.67 0.69,95.16 -0.05,190.32 0.36,285.47 0.15,6.82 -0.59,13.66 -2.76,20.16 -6.07,19.65 -11.61,39.45 -17.22,59.23 -1.05,4.87 -4.24,8.75 -7.79,12.07 -29.7,29.17 -56.49,61.3 -80,95.67 -7.37,-9.83 -14.31,-19.98 -20.85,-30.37 -2.39,-3.31 -2.24,-7.55 -2.34,-11.43 0.13,-107.13 0.07,-214.28 0.02,-321.4 0.44,-6.82 -1.25,-14.17 1.13,-20.62 11.4,-11.77 24.42,-22.05 37.76,-31.54 0.18,87.98 0.05,175.97 0.08,263.96 0.15,11.43 -1.53,23.4 3.29,34.17 13.63,-13.88 26.16,-28.84 40.32,-42.24 9.16,-8.08 10.13,-21.33 10.05,-32.76 -0.23,-79.08 0.03,-158.19 -0.12,-237.27 0.07,-7.48 -0.49,-15 0.58,-22.43zm736.33 -53.03c13.04,3.98 26.01,8.22 38.87,12.76 0.05,111.34 0.08,222.67 -0.03,334.01 -12.88,-7.27 -25.26,-15.44 -38.53,-22.02 -0.79,-108.25 -0.15,-216.5 -0.31,-324.75zm-658.24 14.42c12.86,-4.64 25.67,-9.47 38.79,-13.4 0,108.94 -0.13,217.88 0.07,326.82 -13.09,8.03 -25.9,16.48 -38.89,24.65 -0.23,-112.69 -0.25,-225.38 0.03,-338.07zm170.13 -43.43c12.99,-1.99 26,-3.8 39.07,-5.21 -0.18,99.93 -0.13,199.89 -0.03,299.82 -12.76,2.5 -25.49,5.13 -38.12,8.11 -18.4,-53.38 -34.35,-107.63 -53.74,-160.66 -0.03,58.38 -0.31,116.77 0.15,175.16 -12.94,5.1 -26.18,9.41 -39.2,14.34 0.13,-104.5 0,-209 0.06,-313.47 12.55,-2.96 25.13,-5.87 37.79,-8.42 16.46,42.03 32.33,84.29 47.41,126.83 1.76,4.92 3.83,9.74 6.13,14.44 1.17,-50.3 0.25,-100.65 0.48,-150.94zm251.43 -11.26c12.84,1.05 25.83,0.97 38.54,3.25 0.84,99.21 0.1,198.5 0.35,297.74 -12.94,-1.6 -25.92,-3.16 -38.91,-4.41 0,-98.86 -0.05,-197.72 0.02,-296.58zm-81.66 -2.39c12.97,-0.13 25.93,0.46 38.89,0.81 0,98.53 -0.02,197.08 0.03,295.61 -12.73,-0.51 -25.47,-0.39 -38.2,-0.31 -17.79,-54.63 -33.66,-109.91 -52.77,-164.08 -0.77,55.47 0.2,110.98 -0.49,166.45 -12.94,0.97 -25.85,2.33 -38.71,3.86 0.18,-99.4 -0.36,-198.79 0.28,-298.18 12.45,-0.74 24.91,-1.74 37.39,-2.12 18.5,48.99 35.49,98.52 53.38,147.72 0.41,-49.91 0.03,-99.82 0.2,-149.76zm160.11 9.57c34.78,4.89 69.41,11.04 103.73,18.55 7.37,18.01 16.35,35.49 22.17,54.07 1.02,32.33 0.05,64.74 0.46,97.12 0.67,8.45 -3.98,15.77 -7.65,22.99 -5.16,9.63 -10.08,19.35 -15.01,29.07 -21.31,-6.81 -42.79,-13.04 -64.46,-18.58 -0.69,35.63 -0.25,71.28 -0.23,106.92 -12.96,-3.31 -26,-6.4 -39.07,-9.36 0.11,-100.26 0,-200.52 0.06,-300.78zm39.57 70.63l0 0c0.03,20.9 -0.2,41.77 0.13,62.65 14.01,2.6 27.61,7.01 41.62,9.57 5.95,-2.2 5.21,-11.05 5.51,-16.49 -0.71,-15.39 2.25,-31.41 -3.62,-46.13 -14.47,-3.55 -29.06,-6.54 -43.64,-9.6zm252.99 14.62c11.61,6.15 22.89,12.84 34.27,19.4 27.05,157.85 49.41,316.58 66.12,475.89 -15.28,-18.27 -29.57,-37.41 -45.62,-55.05 -3.12,-23.29 -5.85,-46.64 -9.04,-69.94 -0.23,-4.7 -2.91,-8.55 -5.92,-11.92 -18.75,-21.54 -38.12,-42.72 -59.79,-61.37 -3.31,15.08 -6.73,30.14 -10.13,45.19 -11.81,-10.23 -24.16,-19.8 -36.9,-28.83 22.23,-104.47 44.28,-209 67.01,-313.37zm-6.81 237.42l0 0c13.52,11.56 26.46,23.76 39.25,36.14 -5.9,-42.29 -12.1,-84.52 -18.86,-126.67 -8.12,29.85 -13.5,60.37 -20.39,90.53zm-1116.66 -148.38c29.89,-24.83 60.89,-48.26 92.99,-70.1 8.17,9.95 16.33,19.93 24.17,30.16 2.45,2.68 3.21,6.28 3.09,9.82 -0.08,139.54 0.05,279.07 -0.08,418.61 0.18,3.44 -0.18,7.32 2.27,10.13 10.92,14.54 22.89,28.32 33.97,42.77 4.15,4.26 3.31,10.48 3.49,15.92 -0.38,23.48 0.26,46.98 -0.41,70.46 -21.76,-22.03 -41.98,-45.55 -63.51,-67.83 -34.22,35.16 -68.44,70.33 -102.28,105.85 -8.83,-5.62 -17.71,-11.13 -26.56,-16.67 -0.08,-150.55 0.05,-301.09 -0.08,-451.64 -0.23,-9.62 3.39,-18.68 6.17,-27.72 6.28,-19.93 12.43,-39.91 18.97,-59.76 1.19,-4.26 4.56,-7.27 7.8,-10zm25.01 60.96l0 0c-9.11,7.5 -11.23,20.23 -11.38,31.41 0.15,121.72 0,243.47 0.08,365.19 -0.49,4.09 2.4,7.1 4.46,10.19 14.34,-15.52 28.61,-31.09 43.59,-45.96 7.7,-7.17 11.05,-17.92 11.28,-28.2 -0.05,-112.28 -0.05,-224.59 -0.03,-336.87 -0.28,-10.84 1.94,-22.53 -4.08,-32.3 -15.16,11.53 -29.5,24.11 -43.92,36.54zm427.99 236.55c70.79,-42.74 153.75,-65.2 236.46,-63.51 91.25,0.56 182.22,30.49 255.9,84.41 20.33,-15.67 38.63,-36.9 41.92,-63.26 8.3,7.63 15.9,17.18 16.97,28.81 2.02,23.43 -7.5,45.96 -20.67,64.82 45.63,41.98 83.37,92.78 108.53,149.56 45.12,100.03 51.14,216.86 17.2,321.18 -25.39,79.03 -73.64,150.5 -137.16,203.94 -20.08,17.38 -42.39,31.85 -64.74,46.09 40.75,11.2 85.21,19.52 126.42,5.69 20.69,-6.33 36.41,-22.36 56.37,-30.27 11.4,-4.77 24.44,-5.28 36.28,-1.81 8.22,2.45 15.55,8.47 24.58,7.5 25.01,-1.25 49.81,9.5 66.96,27.54 -15.93,-1.41 -32.08,-1.05 -47.62,3.06 1.35,5.61 2.6,11.28 3.78,16.97 21.31,-3.57 43.71,-1.53 63.44,7.6 7.04,3.01 13.24,7.66 20.44,10.39 18.75,-2.45 33.27,-15.85 45.75,-29.02 0.77,13.07 1.05,26.7 -4.41,38.92 -3.4,8.52 -10.06,15.03 -16.87,20.92 -0.74,13.2 -7.45,24.73 -14.21,35.7 10.48,3.58 19.29,10.52 25.82,19.4 14.09,-6.51 24.83,-17.89 33.5,-30.5 3.07,21.95 -3.03,45.25 -17.86,61.91 -9.08,9.8 -13.34,22.92 -22.43,32.74 2.6,4.59 5.21,9.19 7.79,13.83 14.46,-5.46 25.08,-16.89 34.83,-28.37 0.07,24.06 -8.93,49.96 -29.71,63.77 -10.15,6.09 -14.36,18.34 -24.75,24.19 -9.44,6.81 -21.2,7.96 -32.18,10.54 -2.32,3.06 -4.11,6.5 -5.97,9.85 12.35,1.32 24.68,-0.64 36.65,-3.7 -8.94,14.13 -22,26.46 -38.72,30.26 -15.15,5.11 -31.23,0.26 -46.57,3.65 -22.33,4.16 -46.67,2.5 -67.06,-7.96 -24.32,-15.9 -45.4,-37.97 -74,-46.29 -17,-6.18 -34.68,0.89 -51.96,1.32 -22.73,2.53 -44.78,-4.59 -66.55,-9.95 -85,-22.99 -168.19,-54.96 -243.44,-101.05 -60.41,-38.56 -117.92,-81.79 -171.26,-129.63 -22.58,-11.36 -46.06,-21.29 -67.29,-35.22 -56.62,-35.16 -105.19,-83.14 -141.01,-139.33 -43.41,-67.62 -67.96,-147.19 -69.95,-227.54 -2.98,-89.6 21.82,-179.88 70.53,-255.16 24.55,-38.23 54.97,-72.65 89.78,-101.87 -10.75,-18.32 -18.15,-39.61 -14.8,-61.07 2.06,-9.87 8.21,-18.45 15.39,-25.34 2.47,1.28 2.19,4.5 3.11,6.77 4.26,20.41 17.71,38.25 33.81,51.01 6.66,-3.24 12.61,-7.74 18.98,-11.49zm16.41 37.31l0 0c12.25,-4.49 23.79,-10.67 35.86,-15.62 47.69,-19.87 99.26,-30.41 150.94,-30.97 80.1,-1.13 160.53,22.04 227.29,66.42 8.65,-3.75 17.12,-7.94 25.39,-12.45 -64.33,-43.67 -141.96,-67.27 -219.64,-68.01 -77.04,-1.46 -154.54,19.7 -219.84,60.63zm-35.06 24.63l0 0c4.9,37.79 19.11,77.16 50.14,101.25 15.24,-7.58 31.7,-12.17 48.36,-15.38 -25.21,18.22 -51.34,35.52 -73.9,57.16 -12.68,11.99 -24.96,24.83 -33.38,40.29 10.62,2.22 21.06,5.51 30.55,10.82 -11.2,6.15 -21.67,14.06 -28.84,24.83 -17.4,24.52 -24.37,54.58 -28.91,83.85 20.9,-23.73 51.55,-40.98 84.01,-37.38 40.75,4.92 76.01,28.5 108.35,52.23 6.4,-10.71 16.2,-21.3 29.73,-21.18 19.72,0.46 36.69,13.17 50.09,26.62 -17.23,-6.41 -35.8,-11.23 -54.1,-6.43 -4.72,3.52 -8.47,8.09 -10.95,13.47 13.48,12.2 27.13,24.32 38.71,38.38 -13.67,-8.6 -26.38,-18.63 -39.96,-27.35 0.77,6.66 -0.25,14.08 2.43,20.31 16.43,14.26 31.03,31.64 51.34,40.62 8.93,4.19 18.96,4.6 28.66,5.24 -2.1,-10.85 -7.1,-21.11 -15.54,-28.41 -14.91,-13.57 -30.86,-27.68 -37.36,-47.46 7.6,6 17.63,7.42 26.79,9.67 27.69,4.62 56.8,3.47 83.16,-6.84 -4.33,10.01 -10.28,19.35 -18.19,26.92 -13.29,14.04 -32.79,25.11 -35.09,46.29 10.75,-0.61 21.87,-1.27 31.7,-6.17 19.34,-9.26 33.3,-26.06 49.99,-39.02 0.56,-6.61 1.12,-13.19 1.55,-19.78 -14.06,9.01 -27.61,18.76 -41.51,27.97 12.32,-13.98 26.02,-26.69 40.37,-38.56 -2.12,-5.81 -5.87,-10.69 -11.08,-14.03 -18.02,-5.44 -36.57,-0.46 -53.69,5.59 13.47,-13.4 30.77,-25.65 50.48,-25.83 13.49,0.08 23.47,10.72 29.39,21.85 26.24,-19.06 54.18,-36.7 85.51,-45.99 18.02,-5.48 37.67,-6.61 55.79,-0.97 20.62,5.77 37.69,19.73 51.39,35.73 -2.22,-16.1 -4.95,-32.2 -10,-47.69 -7.86,-25.19 -21.85,-50.71 -46.6,-62.58 10,-4.72 20.57,-8.03 31.44,-10.08 -24.45,-42.46 -66.73,-69.99 -104.88,-98.9 16.77,2.45 32.33,9.23 47.92,15.36 31.03,-23.66 46.11,-62.45 51.22,-100.06 -24.17,15.16 -51.09,25.37 -75.49,40.04 -8.75,3.6 -16.71,8.83 -24.06,14.75 -15.03,11.86 -29.57,28.89 -27.92,49.33 0.13,11.1 8.91,18.88 16.72,25.49 -16.05,-0.1 -33.23,-3.8 -44.61,-15.95 -8.39,-7.86 -11.48,-19.17 -16.13,-29.3 -16.15,-0.51 -32.56,-1.35 -48.63,0.54 -3.88,4.62 -4.98,10.77 -5.41,16.61 -0.9,20.75 7.93,40.47 7.7,61.12 -0.05,9.06 -5.46,16.74 -11.91,22.61 -0.44,-7.58 0.3,-15.49 -2.63,-22.66 -2.5,-6.54 -7.63,-11.49 -12.33,-16.49 1.74,16 -4.79,30.8 -14.13,43.33 -10.03,-12.32 -15.98,-27.71 -13.99,-43.81 -11.84,9.41 -16.56,24.16 -16.2,38.89 -6.53,-6.56 -11.69,-15.03 -11,-24.63 0.89,-25.36 15.79,-51.52 4.21,-76.37 -16.69,-0.28 -33.35,-1.31 -50.02,-0.62 -3.44,11.13 -8.19,22.36 -17.12,30.22 -11.43,11.02 -27.81,14.08 -43.15,13.83 5.97,-5.31 12.94,-10.46 15.44,-18.43 4.31,-12.86 -0.36,-26.87 -7.76,-37.58 -11.05,-15.37 -26.69,-27.16 -43.61,-35.35 -23.94,-14.01 -49.51,-25.21 -73.06,-39.93zm101.13 28.45l0 0c16.23,15.06 33.38,31.92 37.15,54.76 5.19,-4.06 10.36,-8.14 15.49,-12.27 -14.67,-17.18 -31.28,-33.99 -52.64,-42.49zm259.37 42.1l0 0c5.03,4.37 10.26,8.48 15.57,12.51 3.98,-22.74 20.92,-39.58 37.12,-54.58 -21.46,8.29 -37.53,25.46 -52.69,42.07zm173.83 -38.96l0 0c-1.86,9.85 -6.28,19.19 -7.4,29.09 25.82,29.73 48.99,62.03 65.89,97.76 51.54,105.11 53.99,232.78 6.43,339.75 -30.83,71.61 -83.75,132.59 -147.88,176.49 27.25,-13.81 51.42,-33.08 74,-53.49 37.87,-34.96 69.08,-77.02 91.33,-123.51 44.61,-92.48 51.78,-202.05 20.57,-299.76 -20.11,-62.65 -55.2,-120.91 -102.94,-166.33zm-603.08 364.96l0 0c3.42,53.44 14.65,107 37.82,155.48 23.12,45.22 53.95,86.18 88.42,123.33 59.31,63.39 129,116.06 201.37,163.63 75.58,47.97 160.18,80.2 246.33,103.53 18.4,4.28 36.9,10.92 56.09,9.06 21.3,-1.56 42.31,-5.8 63.49,-8.53 15.66,-2.14 31.49,-0.69 47.18,0.61 -11.97,4.65 -24.63,7.05 -36.72,11.28 5.56,4.39 12.43,6.56 18.42,10.26 12.05,6.97 21.44,18.02 34.43,23.4 12.5,6.76 25.46,12.89 39.32,16.33 18.45,4.29 38.46,-2.09 52.06,-15.03 -14.85,-5.51 -28.71,-13.6 -40.68,-23.96 -10.97,-11 -26.18,-15.16 -40.21,-20.67 15.43,2.45 29.88,8.55 44.55,13.53 17.25,5.46 34.5,12.71 53,11.84 16.77,-0.16 36.21,-5.39 44.43,-21.49 6.15,-11.41 1.02,-24.52 -6.07,-34.09 -19.93,7.6 -41.85,8.21 -62.47,3.24 -10.01,-2.88 -19.88,-6.66 -28.12,-13.17 -10.19,-7.78 -23.56,-7.86 -35.55,-10.51 12.53,-4.14 25.67,-7.15 38.94,-6.66 13.65,1.76 25.9,8.65 38.86,12.91 17.59,5.33 36.95,-0.18 50.76,-11.81 8.32,-7.15 12.55,-19.32 8.93,-29.86 -5.13,-10.87 -16.61,-17.05 -27.56,-20.57 -12.91,7.15 -27.05,11.74 -41.93,11.79l-0.3 -0.64c-13.09,-0.64 -25.8,-4.08 -38.79,-5.38 -14.01,-1.12 -26.59,5.97 -39.02,11.25 14.37,-24.67 45.81,-27.07 71.38,-27.74 11.23,-0.69 23.22,0.21 33.56,-5.05 12.73,-6.35 19.44,-23.27 13.09,-36.29 -6.59,-13.52 -20.5,-22.89 -35.32,-24.8 -43.41,-7.17 -85.82,7.55 -128.15,14.6 21.38,-10.67 43.07,-20.72 64.81,-30.65 -1.22,-17.66 -10.89,-36.85 -29.04,-41.95 -11.86,-3.78 -23.81,1.02 -33.89,7.12l-0.43 -0.05c-37.46,26.53 -78.57,54.37 -126.37,54.27 -48.02,-1.83 -94.06,-18.12 -138.1,-36.26 45.24,11.31 92.35,14.6 138.84,13.5 -25.36,-3.22 -50.39,-8.85 -74.77,-16.64 -77.62,-24.98 -148.74,-66.91 -214.12,-115.06 -15.92,-4.16 -32.82,-4.9 -48.94,-8.6 -9.8,-28.15 -20.06,-56.62 -37.16,-81.3 -8.9,-12.91 -19.93,-25.44 -34.93,-31.11 -18.61,-6.02 -41.14,0.36 -52.16,16.97 -13.93,19.98 -15.19,45.27 -14.65,68.8 -12.3,-15.34 -26.39,-29.37 -36.52,-46.34 -14.64,-23.2 -23.73,-49.38 -30.16,-75.89 -4.75,4.23 -8.73,9.92 -14.93,12.22 -11.86,-39.07 -12.65,-80.36 -15.46,-120.78 -3.45,3.42 -6.87,6.92 -10.26,10.44 5.03,55.37 16.61,111.23 43.13,160.59 21.1,38.6 47.56,74.08 77.06,106.66 60.1,65.99 131.73,120.27 205.98,169.29 74.98,47.8 158.83,80.13 244.32,103.55 15.28,3.83 30.52,8.43 46.24,10.13 17.02,0.72 34.01,-1.76 51.03,-0.91 18.81,0.81 39,2.55 54.51,14.34 -36.41,-3.09 -71.71,10.2 -108.02,9.41 -18.12,-1.68 -35.52,-7.42 -53.1,-11.71 -87.25,-24.47 -172.94,-58.1 -248.63,-108.55 -77.7,-52.34 -152.8,-110.45 -213.2,-182.61 -35.19,-42.75 -67.22,-89.75 -83.29,-143.29 -12.15,-39.22 -18.84,-80.13 -20.16,-121.16 0.05,-33.51 3.49,-66.99 10.08,-99.85 -18.66,42.43 -21.13,89.87 -19.25,135.6zm49.69 -88.29l0 0c-2.81,8.93 -2.09,18.52 -2.12,27.76 6.48,-7.58 12.79,-15.54 21,-21.36 17.41,-12.88 40.35,-18.55 61.6,-13.37 32.51,7.78 61.38,25.6 89.09,43.66 0.53,-5.1 1.12,-10.15 1.81,-15.23 -31.13,-20.16 -63.77,-41.6 -101.51,-45.91 -25.19,-3.26 -53.39,4.24 -69.87,24.45zm476.09 -20.72l0 0c-36.72,4.21 -68.28,24.93 -99.44,43.2 0.3,5.51 0.56,11.05 0.76,16.61 27.16,-17.78 55.94,-34.37 87.71,-42.15 15.52,-4.11 32.2,-2.45 46.88,3.95 15.64,6.3 27.74,18.55 37.71,31.8 -0.1,-9.55 1.36,-19.88 -2.22,-28.89 -17.19,-20.26 -45.62,-27.99 -71.4,-24.52zm-478.26 80.53l0 0c-4.08,7.4 -2.3,15.98 -1.53,23.94 1.3,10.33 2.88,20.67 6.05,30.65 5.38,-6.38 11.17,-12.4 17.81,-17.48 1.04,37.84 11.12,76.27 34.37,106.74 7.1,-21.36 20.95,-42.72 43.18,-50.3 15.9,-6.1 33.1,-2.68 49.04,1.38 -12.76,-15.77 -33.65,-25.47 -53.97,-20.98 -17.12,2.74 -30.67,14.04 -44.35,23.71 -3.85,-12.27 -8.55,-25.16 -7.78,-38.1 28.4,-15.38 65.63,-25.06 94.82,-6.38 -6.76,-8.67 -13.95,-16.97 -21.35,-25.08 9.9,5.69 19.01,12.66 27.48,20.31 46.57,41.88 74.74,100.88 87.63,161.48 13.98,1.84 28.02,3.5 42.13,4.08 14.24,-0.23 28.4,-1.96 42.59,-3.16 16.69,-70.99 54.53,-141.35 118.33,-180.11 -7.2,8.01 -14.6,15.85 -20.98,24.58 29.43,-17.92 66.89,-7.74 94.34,8.98 -0.23,13.14 -5.15,25.57 -8.95,37.97 -15.7,-13.91 -34.86,-27.18 -56.78,-26.11 -16.36,-0.12 -30.98,9.34 -41.55,21.11 16.13,-3.83 33.59,-7.2 49.49,-0.54 21.97,8.04 35.24,29.48 42.13,50.78 23.63,-29.96 35.06,-68.26 35.67,-106.13 7.02,5.03 12.68,11.54 18.3,18.02 2.8,-10 4.82,-20.19 6.38,-30.47 0.97,-8.34 2.98,-17.43 -1.61,-25.16 -16.82,-34.63 -57.01,-60.84 -96.13,-51.04 -26.69,6.59 -51.39,19.8 -73.98,35.19 -5.81,8.27 -6.27,19.34 -9.9,28.76 -14.92,42.77 -30.87,85.18 -48.66,126.85 -4.62,11.41 -13.02,22.64 -25.67,25.37 -15.59,2.47 -31.85,2.52 -47.26,-1.07 -15.77,-5.36 -21.74,-22.38 -27.31,-36.5 -14.95,-38.4 -29.14,-77.11 -41.67,-116.36l-0.71 -0.38c-3.88,-10.67 -2.12,-25.65 -13.35,-31.93 -19.75,-12.81 -40.5,-24.65 -63.13,-31.51 -40.57,-14.06 -85.54,11.87 -103.12,48.89zm309.36 47.62l0 0c6.89,11.74 9.47,25.16 11.25,38.48 15.64,-15.56 17.53,-38.86 19.5,-59.63 -8.75,9.03 -19.57,15.59 -30.75,21.15zm-98.71 -21.77l0 0c1.82,20.83 3.58,43.92 18.68,59.97 1.66,-13.47 4.75,-26.97 11.84,-38.71 -11.02,-5.77 -21.41,-12.76 -30.52,-21.26zm36.72 39.89l0 0c-2.62,1.1 -6.6,2.14 -5.64,5.84 1.51,11.03 2.35,23.63 10.11,32.33 10.51,8.81 26.08,8.07 38.56,4.6 15.36,-5.62 16.25,-24.86 18.09,-38.64 -5.59,-5.74 -14.88,-5.66 -21.97,-3.21 -6.23,6.48 -7.89,16 -11.87,23.88 -2.98,-7.78 -5.07,-16.08 -9.64,-23.14 -5.21,-3.3 -11.92,-3.42 -17.64,-1.66zm-0.45 46.31l0 0c-5.29,8.17 -11.54,16.26 -13.1,26.13 2.91,11.18 15.57,13.73 25.47,14.5 -8.85,-11.74 -10.97,-26.44 -12.37,-40.63zm42.48 40.94l0 0c9.27,-0.85 20.98,-2.43 24.96,-12.3 0.99,-10.77 -6.97,-19.4 -11.82,-28.23 -1.76,14.16 -4.1,28.89 -13.14,40.53zm-191.59 -321.28c26.41,-14.9 58.31,-3.8 80.36,13.78 16.76,12.33 24.16,33.51 41.16,45.52 4.36,3.42 10,1.94 14.19,-0.89 5.13,-9.39 6.96,-19.98 8.44,-30.42 1.2,13.86 5.18,29.68 -3.01,42.19 -4.28,6.76 -12.83,6.43 -19.82,7.06 0.12,4.55 0.2,9.11 0.25,13.68l-1.5 -1.4c-12.38,-12.74 -27.67,-23.15 -45.2,-27.08 -12.91,-3.34 -26.36,-2.45 -39.47,-1.02 -12.43,-16.97 -13.07,-38.99 -9.17,-58.89 -2.14,-0.11 -6.4,-0.29 -8.54,-0.36 -7.05,-0.31 -14.09,-0.41 -21.13,-0.64 0.84,-0.38 2.57,-1.15 3.44,-1.53zm38.3 8.78l0 0c-2.32,14.16 -3.08,29.37 4.45,42.21 6.5,0.12 13.01,0.38 19.54,0.53 -0.71,-1.33 -2.14,-3.98 -2.83,-5.31 4.64,-0.84 10.97,-1.99 11.84,-7.7 1.79,-5.9 -3.42,-10.85 -8.86,-11.74 0.9,-3.09 1.71,-6.2 2.4,-9.32 -6.99,-6.83 -17.3,-7.75 -26.54,-8.67zm41.75 19.93l0 0c0.31,8.93 -0.89,17.83 -3.19,26.46 9.55,2.58 18.89,5.92 28.18,9.32 -7.51,-12.48 -16.26,-24.15 -24.99,-35.78zm210.43 -5.72l0 0c2.37,12 2.65,24.32 0.48,36.39 5.87,0.13 11.74,0.31 17.61,0.54 7.63,-12.48 9.75,-27.36 7.09,-41.62 -8.62,0.07 -17.15,1.53 -25.18,4.69zm-27.66 22.15l0 0c-6.08,7.43 -12.41,14.65 -18.05,22.43 10.19,-2.5 20.39,-5.05 30.73,-6.94 -0.39,-1.38 -1.15,-4.16 -1.56,-5.54 8.09,-2.22 10.85,-14.06 2.73,-17.91 -6.25,-3.6 -9.77,4.92 -13.85,7.96z"/>
   <path class="fil3" d="M782.36 529.3c65.3,-40.93 142.8,-62.09 219.84,-60.63 77.68,0.74 155.31,24.34 219.64,68.01 -8.27,4.51 -16.74,8.7 -25.39,12.45 -66.76,-44.38 -147.19,-67.55 -227.29,-66.42 -51.68,0.56 -103.25,11.1 -150.94,30.97 -12.07,4.95 -23.61,11.13 -35.86,15.62zm191.08 458.44c5.72,-1.76 12.43,-1.64 17.64,1.66 4.57,7.06 6.66,15.36 9.64,23.14 3.98,-7.88 5.64,-17.4 11.87,-23.88 7.09,-2.45 16.38,-2.53 21.97,3.21 -1.84,13.78 -2.73,33.02 -18.09,38.64 -12.48,3.47 -28.05,4.21 -38.56,-4.6 -7.76,-8.7 -8.6,-21.3 -10.11,-32.33 -0.96,-3.7 3.02,-4.74 5.64,-5.84zm308.19 -402.22c47.74,45.42 82.83,103.68 102.94,166.33 31.21,97.71 24.04,207.28 -20.57,299.76 -22.25,46.49 -53.46,88.55 -91.33,123.51 -22.58,20.41 -46.75,39.68 -74,53.49 64.13,-43.9 117.05,-104.88 147.88,-176.49 47.56,-106.97 45.11,-234.64 -6.43,-339.75 -16.9,-35.73 -40.07,-68.03 -65.89,-97.76 1.12,-9.9 5.54,-19.24 7.4,-29.09z"/>
  </g>
 </g>
</svg>
