<?xml version="1.0" encoding="UTF-8"?>
<!DOCTYPE svg PUBLIC "-//W3C//DTD SVG 1.1//EN" "http://www.w3.org/Graphics/SVG/1.1/DTD/svg11.dtd">
<!-- Creator: CorelDRAW -->
<svg xmlns="http://www.w3.org/2000/svg" xml:space="preserve" width="2000px" height="1600px" version="1.1" style="shape-rendering:geometricPrecision; text-rendering:geometricPrecision; image-rendering:optimizeQuality; fill-rule:evenodd; clip-rule:evenodd"
viewBox="0 0 2000 1600"
 xmlns:xlink="http://www.w3.org/1999/xlink">
 <defs>
  <style type="text/css">
   <![CDATA[
    .fil0 {fill:#002A5C;fill-rule:nonzero}
   ]]>
  </style>
 </defs>
 <g id="Capa_x0020_1">
  <metadata id="CorelCorpID_0Corel-Layer"/>
  <path id="Richmond_x0020_Spiders.cdr" class="fil0" d="M807.76 4.22c6.08,-3.47 14.37,-6.38 20.78,-2.04 13.63,8.66 23.39,22.43 37.94,29.86 10.65,6.78 24.47,15.15 24,29.51 10.38,5.05 17.24,13.95 21.79,24.31 2.51,-0.78 5,-1.57 7.48,-2.35 9.29,9.16 8.38,23.31 15.21,33.96 15.25,1.78 25.9,16.46 25.88,31.3 7.92,7.45 17.32,13.05 25.59,20.09 6.43,4.76 3.53,13.71 6.41,20.25 4.1,10.29 8.79,20.36 13.08,30.56 8.92,5.5 18.45,11.62 22.95,21.54 5.86,13.74 7.74,28.65 10.2,43.25 4.29,6.23 11.85,9.94 15.31,16.9 2.69,7.1 0.47,14.74 0.65,22.06 3.51,12.64 7.56,25.36 15.94,35.72 0.52,6.04 -2.62,11.77 -4.03,17.56 4.63,7.69 11.38,14.41 13.63,23.34 2.15,8.68 4.71,17.24 7.04,25.87 1.62,-3.29 3.35,-6.51 5.15,-9.7 2.54,15.41 0.58,31.03 1.15,46.52 1.42,17.3 4.06,34.49 8.01,51.39 -4.34,5.23 -9.65,10.23 -11.56,16.98 -0.03,6.04 1.38,12.01 1.62,18.06 -2.67,10.02 -8.48,18.89 -11.41,28.83 1.41,10.65 4.21,21.06 5.63,31.71 -4.69,7.64 -9.53,15.18 -13.98,22.95 7.51,-1.83 14.97,-5.02 19.52,-11.59 3.9,-5.73 10,-8.98 16.49,-10.96 3.92,-9.69 6.38,-20.41 13.24,-28.55 2.98,-0.21 5.94,-0.05 8.92,0.44 0.65,-10.59 6.83,-20.01 17.45,-22.66 8.38,-13.68 18.03,-27.65 19.57,-44.09 1.21,-5.99 0.03,-13.1 4.58,-17.87 5.34,-6.77 12.25,-12.3 16.88,-19.62 4.34,-9.74 -2.46,-20.46 1.23,-30.25 1.75,-5.13 6.93,-7.54 11.2,-10.23 1.62,-9.26 2.54,-18.81 6.36,-27.5 4.05,-7.69 11.01,-13.21 16.85,-19.47 0.18,-13.6 -2.78,-27 -3.01,-40.56 -0.37,-5.07 4.6,-7.3 8.03,-9.78 -2.59,-11.3 -5.49,-22.66 -5.18,-34.36 0.47,-32.31 -15.12,-65.36 -2.62,-96.99 -4.99,-12.25 -10.62,-24.31 -14.99,-36.82 -4.66,-12.35 5.84,-24.02 2.7,-36.55 -3.12,-16.38 -7.62,-35.01 2.61,-49.9 7.62,16.01 15.49,31.92 23.11,47.91 2.82,4.89 2.43,10.41 1.04,15.65 8.25,1.98 15.94,8.47 13.4,17.84 6.62,9.92 11.07,22.06 9.08,34.1 -1.46,15.67 2.59,31.24 2.59,46.91 -0.63,11.25 -5.05,22.77 -0.86,33.86 3.82,11.12 3.19,24.96 13.63,32.55 1.65,9.37 -3.04,17.69 -5.39,26.43 1.88,7.43 6.75,14.6 4.79,22.58 -3.22,14.86 1.28,30.3 -4.16,44.85 5.42,-2.7 10.75,-5.63 16.04,-8.59 -3.51,7.78 -6.78,15.65 -10.23,23.45 -4.14,9.89 -11.93,17.56 -17.09,26.85 -4.06,7.64 -10.75,14.62 -10.15,23.83 2.61,-1.7 5.23,-3.45 7.82,-5.21 2.51,3.07 4.9,6.28 7.15,9.61 -3.88,6.02 -7.25,12.32 -11.23,18.29 -3.72,5.65 -9.89,9.39 -12.74,15.64 -3.48,8.33 -4.95,17.41 -9.16,25.44 -3.87,5.05 -8.77,9.23 -12.98,14.02 3.87,1.6 7.75,3.25 11.64,4.9 -8.71,8.97 -16.14,19.02 -22.37,29.83 -5.23,9.13 -13.63,15.85 -22.89,20.61 -2.62,8.27 -4.76,17.46 -11.83,23.19 -10.2,9.08 -18.34,20.2 -28.68,29.12 -9.26,8.22 -22.5,10.67 -30.4,20.62 20.38,-4.76 39.33,-14.21 59.37,-20.12 5.41,1.23 9.99,4.76 15.36,6.28 21.56,-4.9 43.09,-12.75 65.52,-11.44 7.04,0.18 13.08,4.16 18.05,8.82 13.19,0 27.34,-0.5 39.25,6.15 4.45,2.25 5.84,7.17 6.41,11.77 8.51,-0.18 17.11,-1.46 25.59,-0.23 11.04,3.45 21.51,8.55 32.47,12.32 -2.93,2.88 -5.88,5.76 -8.84,8.61 8.9,4.42 18.6,6.83 27.5,11.2 2.7,3.98 2.8,9.86 7.35,12.38 6.52,4.03 13.22,7.77 19.91,11.51 6.96,3.95 15.62,4.53 21.77,9.99 12.98,11.07 19.81,27.14 29.83,40.59 11.67,20.2 39.3,20.51 53.28,38.38 8.21,8.79 9.99,21.15 15.56,31.43 6.52,8.4 16.36,13.87 21.51,23.42 7.59,13.34 18.16,26.06 19.1,42.02 0.32,7.43 1.65,16.33 -3.61,22.42 -3.92,3.01 -8.29,-1.23 -10.78,-4.11 -10.78,-13.42 -19.38,-28.7 -24.38,-45.24 -12.82,-0.83 -19.5,-13 -22.56,-23.99 -4.6,-4.89 -11.38,-7.56 -17.06,-11.17 -4.94,-3.93 -12.17,4.24 -16.3,-1.86 -4.58,-6.04 -7.3,-13.27 -11.7,-19.42 -2.53,-5.07 -8.87,-5.15 -13.29,-7.64 -10.02,-4.16 -15.36,-14.02 -21.74,-22.08 -8.66,-5.34 -19.05,-6.1 -28.78,-7.98 -4.92,-8.71 -9.87,-17.4 -14.68,-26.17 -3.46,0.53 -6.91,1.08 -10.34,1.63 -4.34,-6.94 -8.03,-14.37 -13.29,-20.65 -7.38,-5.08 -15.67,-8.66 -23.45,-13.06 -17.68,4.29 -32.86,-7.01 -49.42,-10.67 -8.93,-2.85 -18.58,1.41 -27.29,-2.7 -16.54,-4.31 -30.67,-17.58 -48.7,-14.75 -10.31,-0.53 -18.73,6.59 -28.78,7.45 -8.66,0.89 -17.58,0.06 -26.01,2.78 -9.5,2.67 -16.43,10.31 -25.48,14 14.83,6.04 31.34,6.2 45.86,13.21 7.78,2.8 15.18,8.95 23.92,6.8 9.16,12.82 27.37,7.77 38.65,17.43 2.87,2.41 1.59,6.78 2.38,10.07 14.65,10.05 33.49,10.94 48.22,20.75 5.31,4.01 3.53,10.78 1.6,16.07 9.08,6.64 18.24,13.19 27.29,19.88 2.09,6.02 3.77,12.2 6.41,18.01 6.28,6.51 14.6,11.01 19.99,18.52 4.89,6.2 4.47,14.52 5.83,21.93 4.58,2.59 9.37,5.26 12.46,9.73 6.38,7.2 5.42,17.85 10.99,25.54 7.61,9.68 18.26,16.51 26.06,26.06 6.15,10.26 8.84,22.24 15.31,32.4 -3.48,1.62 -6.94,3.29 -10.36,4.97 7.58,8.03 11.01,18.42 12.79,29.12 -0.71,2.27 -2.15,6.8 -2.85,9.05 1.46,1.02 4.4,3.06 5.86,4.06 3.82,15.59 8.66,30.98 18.24,44.09 -2.67,8.82 -3.22,18 -2.07,27.13 -1.96,9.42 -0.99,19.13 -2.85,28.57 2.82,8.53 4.81,17.3 6.3,26.17 1.81,10.65 6.41,20.64 7.75,31.4 -0.29,6.28 -6.96,8.66 -11.78,10.88 4.58,19.55 10.84,38.65 16.7,57.86 -4.14,-0.13 -8.27,-0.26 -12.4,-0.34 1.93,6.93 4.16,13.81 5.7,20.88 -0.44,4.24 -2.54,8.08 -3.27,12.29 0.97,6.23 3.32,12.36 2.67,18.77 -1.05,16.53 -1.55,33.12 -2.99,49.63 -0.81,7.7 5.29,14.81 2.75,22.48 -5.39,19.39 -9.16,39.17 -12.16,59.06 -1.05,4.99 -2.57,11.59 -8.38,12.9 -6.83,1.72 -13.37,-4.71 -13.58,-11.39 -0.1,-7.92 2.96,-15.43 4.27,-23.15 2.56,-10.39 -3.8,-20.39 -2.54,-30.75 1.57,-9.71 0.84,-20.77 8.21,-28.36 -1.67,-9 -3.97,-17.93 -5.18,-27.01 -0.26,-11.04 8.12,-21.4 4.58,-32.52 -3.74,-13.4 -7.19,-26.87 -11.09,-40.22 -3.4,-9.68 1.86,-19.25 2.72,-28.8 -7.04,-6.42 -18.39,-12.09 -15.12,-23.58 2.9,-10.91 -2.59,-20.96 -4.19,-31.5 -1.1,-6.62 4.11,-11.73 7.85,-16.41 -0.76,-13.74 -5.99,-26.53 -11.83,-38.78 6.26,-10.18 9.19,-23.13 1.47,-33.41 -9.47,-11.51 -4.71,-26.85 -9.92,-39.85 -4.89,-12.93 -11.62,-25.07 -17.19,-37.68 -1.7,-4.95 -6.41,-7.48 -9.86,-10.96 -4.06,-5.32 -6.89,-11.41 -10.5,-16.99 -10.44,-1.17 -12.19,-13.08 -19.41,-18.76 -8.38,-7.19 -13.32,-17.14 -16.15,-27.65 -17.84,2.27 -27.1,-16.31 -31,-30.78 -5.94,-2.38 -12.35,-4.03 -17.56,-7.87 -5.08,-3.72 -6.88,-10.02 -8.97,-15.62 -7.41,-2.44 -13.3,4.63 -20.73,3.98 -2.41,-6.1 -5.57,-12.3 -12.11,-14.68 -12.09,-5 -16.12,-18.09 -23.19,-27.9 -4.52,-2.59 -11.06,-0.96 -14.57,-5.52 -5.1,-6.25 -13.29,-8.63 -18.34,-14.89 -5.47,-7.14 -15.18,-6.93 -23.26,-7.24 0.05,8.68 0.65,17.34 0.91,26.06 0.11,10.59 6.86,20.3 4.9,31.08 -2.12,17.11 -5.16,34.25 -11.05,50.5 -6.17,12.04 -13.58,23.71 -15.67,37.34 -0.42,9.81 -12.35,11.2 -17.11,17.92 -1.96,13.3 -11.44,25.1 -23.68,30.44 -19.03,5.59 -38.78,14.88 -58.77,8.24 -6.94,-3.51 -13.95,-6.94 -21.56,-8.72 -6.33,-0.83 -8.51,-7.48 -11.65,-12.06 -5.49,1.15 -11.35,2.88 -16.85,0.71 -5.67,-2.15 -8.68,-7.85 -12.32,-12.3 -4.53,0.45 -9.03,0.86 -13.55,1.1 -6.57,-7.85 -15.94,-13.01 -20.83,-22.24 -6.94,-7.09 -16.41,-11.93 -21.48,-20.83 -3.83,-17.79 -13.77,-33.39 -22.98,-48.83 -11.88,15.81 -14.49,35.51 -17.63,54.46 -0.29,4.26 -4.95,5.59 -7.75,7.98 -0.68,7.4 -0.71,14.91 -2.41,22.19 -10.04,26.45 -19.2,54.86 -15.23,83.52 -2.09,1.23 -4.16,2.46 -6.22,3.71 -0.94,4.58 -0.37,9.92 -3.51,13.79 -10.99,12.27 -7.77,29.94 -9.42,45.03 5.05,5.76 12.33,11.93 10.34,20.57 -2.88,7.3 -9.53,12.61 -11.36,20.51 -2.51,4.63 1.02,9.34 2.33,13.77 5.42,14.73 12.48,29.51 12.46,45.52 -5.4,-0.05 -9.58,-3.45 -13.79,-6.3 4.05,11.07 8.19,22.13 11.43,33.46 3.56,13.09 -2.04,26.09 -2.8,39.15 3.06,26.3 23.78,47.52 25.15,73.97 -1.31,0.55 -3.88,1.6 -5.16,2.12 4.82,15.38 7.48,31.42 12.82,46.63 11.62,11.9 12.06,30.04 22.16,42.94 5.89,7.58 7.49,17.34 10.92,26.13 2.04,4.82 2.3,9.97 1.43,15.13 10.24,12.01 22.69,27.26 15.89,44.03 12.95,10.05 27.03,20.05 35.77,34.18 1.51,9.81 -11.62,10.86 -18.48,12.53 -10.62,-12.01 -21.01,-24.25 -32.39,-35.56 -9.55,-9.6 -12.17,-23.36 -17.32,-35.37 -5.63,-5.6 -13.32,-9.76 -15.65,-17.98 -5.42,-16.59 -13.66,-32.03 -19,-48.64 -6.01,-6.49 -13,-12.4 -16.82,-20.75 0.47,-4.37 0.89,-8.69 1.23,-13.03 -5.84,-4.66 -12.87,-8.74 -15.88,-15.94 -8.61,-15.46 -8.12,-33.7 -11.88,-50.55 -3.53,4.08 -6.99,8.16 -10.55,12.25 -0.08,-10.52 1.99,-21.09 0.74,-31.53 -10.31,-11.28 -14.68,-25.83 -19.05,-40.12 7.51,-8.79 2.9,-20.82 -3.27,-28.91 -6.39,-7.59 -2.8,-18.03 -4.92,-26.9 -4.37,-8.92 -16.17,-14.39 -15.05,-25.59 2.46,-19.36 4.21,-38.8 7.96,-57.96 1.57,-6.25 -2.1,-11.98 -3.2,-17.94 -2.59,-8.54 -0.28,-17.46 -0.83,-26.12 -2.59,-9.45 -8.38,-18.76 -5.86,-28.86 3.5,-11.15 10.07,-22.35 7.48,-34.41 -4.11,-19.7 8.11,-37.13 13.63,-55.21 5.52,-10.8 -7.12,-22 -1.31,-32.63 7.12,-14.26 11.86,-29.51 16.22,-44.79 5.84,-10.73 15.05,-19.36 19.81,-30.77 -1.88,-0.16 -5.68,-0.5 -7.56,-0.66 3.51,-16.25 18.97,-24.57 26.45,-38.44 5.6,-9.28 11.68,-18.29 17.2,-27.63 -12.59,8.35 -25.2,16.59 -37.76,24.91 -6.96,5.37 -16.8,4.5 -23.47,10.39 -13.69,10.62 -17.98,28.6 -29.67,40.9 -2.91,2.93 -7.54,0.99 -11.15,1.49 -7.25,10.02 -8.64,23.73 -18.76,31.69 -5.52,5.39 -13.71,5.31 -20.25,8.58 -8.93,10.02 -11.07,23.99 -18.4,35.06 -4.13,-2.22 -7.69,-5.26 -10.86,-8.71 -1.07,13.6 -2.27,27.18 -3.84,40.74 -0.53,6.02 -7.38,5.7 -11.81,6.33 -6.22,15.83 -18.26,28.08 -27.23,42.26 0.47,8.66 4.31,17.87 0,26.14 -5.45,14.73 -14.97,27.45 -20.94,41.92 -5.12,13.42 2.54,27.5 0.32,41.21 -2.38,6.41 -10,8.13 -15.73,10.49 -3.09,11.46 -7.69,22.32 -12.74,33.02 0.89,9.81 2.54,19.68 1.12,29.57 -1.28,8.06 -0.36,17.87 -7.64,23.34 -9.63,-10.65 -16.45,-25.44 -12.71,-40.01 1.7,-18.86 8.11,-37.42 5.99,-56.49 4.11,-9.6 10.07,-19.08 10.47,-29.93 -2.23,-7.65 -8.64,-13.85 -8.8,-22.06 -0.47,-7.75 6.02,-13.11 10.03,-18.92 -8.9,-9.03 -11.41,-25.59 -1.76,-34.85 8.27,-9.48 12.61,-21.38 18.5,-32.29 -1.02,-6.23 -2.67,-12.33 -4.73,-18.27 2.59,-4.16 5.12,-8.37 7.56,-12.61 -1.7,-5.7 -5.81,-13.24 0.1,-17.95 10.89,-10.88 23.52,-20.04 33.18,-32.13 5.05,-5.23 1.47,-12.72 1.94,-19.02 15.7,-12.06 28.83,-27.06 41,-42.57 11.09,-7.83 22.71,-15.6 30.67,-26.88 4.31,-7.11 6.8,-15.33 12.53,-21.53 7.72,-10.08 18.65,-16.7 28.52,-24.34 6.51,-3.97 3.19,-14.96 10.94,-17.6 17.34,-8.48 34.27,-17.82 51.86,-25.8 -13.95,-0.69 -27.95,-0.47 -41.87,0.34 -10.6,0.62 -21.06,4.05 -31.71,2.82 -6.28,-3.35 -10.6,-9.78 -17.77,-11.51 -13.6,-5.47 -28.7,-3.35 -42.57,-7.72 -5.99,-1.6 -7.14,-8.19 -9.16,-13.11 -3.01,0.37 -5.99,0.73 -9,1.13 -15.96,-8.93 -33.73,-14.79 -48.27,-26.09 -7.7,-5.44 -8.74,-17.66 -19.08,-19.6 -8.29,-12.51 -16.04,-25.93 -28.15,-35.22 -8.27,-6.49 -15.73,-13.89 -23.53,-20.9 5.08,-0.29 10.36,-0.58 14.5,-3.96 -14,-13.13 -27.21,-27.34 -37.81,-43.51 -3.82,-7.25 -5.08,-15.54 -8.66,-22.9 -12.69,-12.06 -24.23,-25.8 -31.77,-41.7 -4.05,-7.28 -1.1,-15.47 -0.76,-23.21 -5.8,-14.31 -22.97,-18.61 -29.64,-32.24 -4.87,-6.78 2.96,-15.07 -0.47,-22.34 -6.65,-17.8 -14.84,-35.07 -18.42,-53.83 -7.2,-14.28 -9.69,-30.27 -10.29,-46.08 0,-8.05 11.05,-6.14 15.15,-2.27 8.74,8.21 16.12,21.3 12.12,33.46 11.98,12.35 16.22,29.55 25.82,43.52 5.21,6.96 6.31,15.83 10.44,23.31 6.57,8.48 18.9,16.75 15.55,28.91 2.19,2.99 4.39,6 6.62,9.01 2.06,-3.51 4.24,-6.94 6.56,-10.26 5.92,17.19 15.15,33.91 14.87,52.57 -0.89,10.1 11.12,11.14 17,16.32 9.48,5.5 11.86,16.72 16.33,25.88 10.81,19.23 32.05,32.6 35.85,55.55 9.81,5.03 19.83,9.71 30.09,13.77 9.26,3.03 12.51,13.18 17.11,20.74 2.8,-3.4 5.6,-6.77 8.43,-10.15 11.64,11.49 23.86,22.37 35.43,33.94 1.33,-2.62 2.66,-5.23 4,-7.82 15.25,-0.55 26.56,11.09 33.91,23.13 5.02,-1.47 10,-3.8 15.33,-3.75 6.94,2.67 13.14,6.89 19.63,10.44 1.25,-3.5 2.51,-7.01 3.74,-10.51 13.08,4.42 25.56,11.74 39.72,12.01 8.61,0.81 17.22,-0.37 25.8,-1.1 -4.19,-6.31 -7.96,-12.85 -12.06,-19.21 -4.66,-8.19 -15.62,-8.35 -21.98,-14.47 -5.26,-7.01 -8.98,-14.97 -12.09,-23.1 -1.86,-5.37 -8.32,-7.2 -10.52,-12.38 -6.02,-13.29 -14.16,-25.98 -14.08,-41.13 -6.09,-9.32 -15.77,-15.44 -23,-23.79 -6.12,-11.3 -8.37,-24.2 -9.44,-36.86 -7.17,-6.7 -10.73,-15.97 -15.68,-24.18 -6.2,-10.02 -6.75,-22.22 -11.54,-32.79 -4.73,-8.48 -10.49,-16.32 -15.59,-24.59 4.08,1.17 8.16,2.35 12.27,3.5 -5.76,-24.54 -14.97,-49.71 -9.52,-75.2 1.93,-24.44 -11.28,-47.23 -9.47,-71.72 -2.54,-15.36 -8.51,-29.99 -12.8,-44.92 2.88,1.51 5.76,3.06 8.63,4.57 2.31,-5.81 4.9,-11.51 6.94,-17.42 -1.86,-5.92 -6.6,-11.2 -5.42,-17.77 0.92,-20.62 1.89,-42.31 -8.55,-60.94 3.08,-8.53 7.03,-16.75 9.86,-25.38 4.47,-17.74 3.48,-36.58 9.73,-53.9 3.67,-10.86 7.33,-21.72 10.89,-32.61 4.5,-3.03 9.24,-5.93 14.76,-6.48 1.3,11.25 -4.45,21.45 -6.78,32.15 -3.43,10.68 1.18,22.35 -4.16,32.58 -5.89,10.81 5.47,22.24 -0.47,32.87 -4.21,8.81 -1.68,18.7 -1.47,28.02 10.18,12.74 18.16,29.25 14.6,45.92 -1.57,5.18 -1.7,10.57 -1.23,15.96 2.88,2.49 5.73,5 8.61,7.54 -1.54,9.49 -2.77,19.18 -1.59,28.78 2.56,11.25 10.07,21.87 7.43,33.88 -3.01,12.88 -3.3,26.06 -1.7,39.15 -0.63,12.19 9.34,20.72 12.9,31.63 4.05,8.51 0.05,17.61 -2.62,25.85 8.92,6.6 16.61,15.6 18.84,26.75 2.01,7.69 0.31,15.56 -0.37,23.31 1.05,5.91 3.77,11.38 5.47,17.14 2.93,8.87 0.5,19.1 5.97,27.24 8.53,13.94 15.04,28.96 22,43.75 2.75,7.43 11.86,8.95 15.94,15.36 3.16,4.31 1.93,9.86 2.01,14.86 7.59,2.82 17.66,4.08 21.49,12.24 3.11,8.48 12.55,11.15 18.34,17.35 7.25,6.52 4,17.45 9.13,25.2 4.55,12.64 16.2,20.33 27.32,26.74 0.68,-9.76 -0.87,-19.91 2.43,-29.3 3.11,-9.24 7.14,-18.11 11.57,-26.75 -2.2,-11.75 -13.56,-17.19 -20.44,-25.85 -5.68,-6.33 -9.52,-13.97 -13.01,-21.66 1.34,-2.25 2.67,-4.48 4.01,-6.73 -3.35,-10.44 -6.83,-21.22 -6.41,-32.29 2.61,-8.97 9.08,-16.12 13.79,-24.02 4.34,-0.39 8.66,-0.78 13,-1.15 -1.12,10.96 -2.67,22.03 -1.54,33.05 3.27,8.4 5.41,17.11 6.85,26.01 8.66,7.92 19.63,13.21 27.77,21.9 2.51,-17.35 25.45,-21.85 37.52,-11.28 6.62,-11.91 17.24,-25.82 10.54,-39.88 -3.98,-8.11 1.94,-16.87 -0.78,-25.25 -0.55,-8.08 -7.3,-12.9 -11.99,-18.65 -1.62,-4.66 0.47,-9.13 3.98,-12.2 8.69,4.95 17.61,9.63 25.7,15.52 5.93,12.4 7.66,26.53 14.44,38.65 -1.65,8.71 -0.73,17.53 -1.23,26.29 -2.12,9.79 -7.3,18.56 -13.14,26.59 8.48,4.29 17.59,8.24 24.1,15.41 5.44,6.72 9.32,14.55 14.11,21.74 2.61,-8.13 0.99,-16.43 -1.1,-24.46 -2.72,-7.33 4.55,-12.43 6.43,-18.79 0.84,-14.68 1.49,-29.36 0.55,-44.03 -1.44,-7.2 5,-11.47 10.36,-14.5 5.97,-13.24 2.91,-28.02 -2.66,-40.79 -4.45,-9.34 3.11,-18.76 1.98,-28.42 1.08,-8.63 -4.57,-15.7 -6.62,-23.68 -1.7,-5.52 2.31,-10.26 4.4,-15.02 -1.7,-6.83 -2.22,-14.05 -4.89,-20.59 -3.8,-5.57 -9.06,-10.31 -11.18,-16.88 -4.34,-11.64 1.76,-24.91 -4.5,-36.03 -7.77,-13.32 -20.93,-24.46 -22.58,-40.61 3.59,0.66 7.2,1.41 10.78,2.17 -7.64,-19.1 -20.35,-35.82 -26.21,-55.6 -5.45,-5.42 -12.64,-9.42 -15.23,-17.14 -4.09,-10.46 -14.21,-18.39 -14.05,-30.32 -19.63,-22.56 -35.67,-47.84 -51.34,-73.22 -4.97,-1.8 -11.15,-2.69 -14.03,-7.66 -3.84,-6.83 -6.38,-14.32 -10.73,-20.88 -5.26,-7.25 -4.5,-16.57 -6.56,-24.89 -7.49,-8.94 -19.55,-13.34 -25.51,-23.73 -7.07,-10.46 -13.45,-23.6 -26.98,-26.53 -0.71,-1.73 -2.09,-5.21 -2.78,-6.94z"/>
 </g>
</svg>
