<?xml version="1.0" encoding="UTF-8"?>
<!DOCTYPE svg PUBLIC "-//W3C//DTD SVG 1.1//EN" "http://www.w3.org/Graphics/SVG/1.1/DTD/svg11.dtd">
<!-- Creator: CorelDRAW -->
<svg xmlns="http://www.w3.org/2000/svg" xml:space="preserve" width="2000px" height="1600px" version="1.1" style="shape-rendering:geometricPrecision; text-rendering:geometricPrecision; image-rendering:optimizeQuality; fill-rule:evenodd; clip-rule:evenodd"
viewBox="0 0 2000 1600"
 xmlns:xlink="http://www.w3.org/1999/xlink">
 <defs>
  <style type="text/css">
   <![CDATA[
    .fil1 {fill:#221F1F;fill-rule:nonzero}
    .fil2 {fill:#78797B;fill-rule:nonzero}
    .fil3 {fill:#A7AAAC;fill-rule:nonzero}
    .fil5 {fill:#A91D36;fill-rule:nonzero}
    .fil6 {fill:#BC445F;fill-rule:nonzero}
    .fil4 {fill:#C9CACC;fill-rule:nonzero}
    .fil0 {fill:#FEFEFE;fill-rule:nonzero}
   ]]>
  </style>
 </defs>
 <g id="Capa_x0020_1">
  <metadata id="CorelCorpID_0Corel-Layer"/>
  <g id="Rider_x0020_Broncs.cdr">
   <path class="fil0" d="M1026.15 1116.75c19.81,-0.71 39.65,-0.25 59.48,-0.29 4.81,-0.38 9.68,2.59 10,7.72 -2.53,12.74 -12.78,23.6 -25.8,25.65 2.2,5 2.39,13.74 9.94,12.86l1.32 0.19 -1.01 1.82c-2.07,3.14 -3.26,7.18 -6.38,9.46 -5.52,1.75 -11.42,1.11 -17.11,1.21 -2.22,-0.17 -4.41,-0.58 -6.53,-1.23 -0.83,-3.69 -1.69,-7.35 -2.48,-11.01 -1.11,-5 -2.24,-10 -3.9,-14.83 -4.64,7.11 -8.85,14.54 -12.44,22.22 1,1.04 2.99,3.07 3.99,4.08 -7.38,1.15 -14.87,0.69 -22.28,0.69 -3.43,0 -6.82,-0.34 -10.19,-0.71 0.15,-0.95 0.48,-2.87 0.65,-3.81 8.75,-16.8 18.33,-33.16 27.16,-49.92 -1.49,-1.38 -2.97,-2.74 -4.42,-4.1zm668.23 23.22c3.16,-11.5 12.41,-23.55 25.42,-23.53 12.47,-0.11 24.96,0 37.45,-0.02 -1.57,2.95 -3.02,5.96 -4.77,8.81 -8.93,7.53 -25.57,-3.62 -31.53,8.91 3.12,1.44 6.3,2.78 9.56,3.93 5.27,2.22 13.22,2.89 14.5,9.71 -3.45,12.38 -12.41,25.37 -26.15,26.86 -11.49,1.25 -23.06,0.5 -34.6,0.65 -3.46,0.12 -6.91,-0.44 -9.67,-2.68 2.47,-5.15 4.71,-10.5 8.56,-14.79 4.96,5.71 12.68,3.87 19.37,4.12 4.27,-0.1 8.89,0.25 12.72,-2.11 1,-1.55 1.93,-3.14 2.85,-4.73 -5.09,-2.7 -10.57,-4.48 -16.01,-6.26 -3.64,-1.61 -8.76,-4.05 -7.7,-8.87zm-163.61 0.67c5.79,-10.27 13.37,-21.75 26.04,-23.57 14.5,-1.51 29.14,-0.23 43.72,-0.69 -1.56,2.86 -2.97,5.79 -4.49,8.64 -8.5,8.32 -23.16,-1.82 -31.26,7.38 -6.34,8.16 -11.17,17.51 -14.87,27.14 2.74,2.36 6.25,3.11 9.83,2.94 4.69,-0.06 9.42,0.13 14.14,-0.27 3.27,-1.09 6.2,-3.07 9.71,-3.53 -1.97,3.95 -3.95,7.89 -6.15,11.73 -3.83,5.32 -10.77,5.19 -16.63,5.36 -10.78,-0.02 -21.65,0.54 -32.34,-1.11 -4.56,-1.02 -8.92,-4.92 -7.96,-9.98 1.24,-8.74 6.24,-16.36 10.26,-24.04zm-163.81 -23.84c10.86,-0.74 21.74,-0.42 32.62,-0.23 0.81,2.48 1.61,4.95 2.42,7.46 1.82,5.76 3.62,11.57 5.48,17.35 1.45,-2.7 2.89,-5.38 4.36,-8.02 2.36,-4.12 4.64,-8.26 6.82,-12.46 -0.99,-1.03 -2.98,-3.1 -3.98,-4.13 9.31,-0.6 18.66,-0.58 27.99,0.02 -0.42,2.49 -1.02,4.99 -2.3,7.22 -9.45,17.05 -18.85,34.12 -28.16,51.24 -5.58,0.04 -11.13,0.14 -16.67,0.08 -8.31,1.17 -7.7,-9.29 -10.21,-14.54 -1.51,-4.85 -3.05,-9.67 -4.65,-14.46 -4.51,8.1 -9.05,16.18 -13.34,24.4 1.52,1.21 3.05,2.44 4.58,3.66 -6.02,1.17 -12.15,1.04 -18.22,0.94 -3.77,-0.19 -8.06,0.46 -11.03,-2.39 9.71,-17.28 19.14,-34.72 28.66,-52.07 -1.48,-1.36 -2.93,-2.72 -4.37,-4.07zm-8.74 -654.45c4.26,-1.05 8.6,-0.69 12.91,-0.15 1.13,3.35 2.82,6.93 6.5,8.08 4.35,1.88 8.79,-0.65 12.24,-3.22 2.3,1.19 4.62,2.38 6.94,3.58 -12.36,7.17 -32.65,7.09 -38.59,-8.29zm-1086.18 306.33c73.54,-29.05 152.49,-42.57 231.24,-46.42 74.72,-3.74 151.42,2.16 221.69,29.48 34.05,13.62 67.99,33.2 88.17,64.85 14.52,22.32 17.37,50.77 10.46,76.19 -8.89,33.33 -30.41,61.76 -54.95,85.34 -52.22,48.89 -118.72,79.58 -186.4,100.6 9.08,17.55 19.16,34.73 31.96,49.85 19.33,21.18 41.61,39.58 65.3,55.69 59.39,40.19 128.42,64.08 198.53,77.26 84.12,15.77 170.25,17.62 255.52,13.01 72.94,-3.76 145.39,-13.32 217.57,-24.03 -7.72,7.25 -17.08,12.32 -26.15,17.65 -34.71,19.21 -71.99,33.29 -109.73,45.27 -73.12,22.83 -148.93,36.86 -225.27,42.68 -87.34,6.4 -176.08,1.63 -261.16,-20.08 -72.31,-18.43 -141.84,-50 -200.69,-96.24 -49.73,-38.72 -90.98,-87.74 -122.59,-142.15 -24.65,43.27 -44.69,89.71 -76.7,128.39 14.15,0.21 28.31,-0.13 42.47,0.19 -29.93,24.83 -62.2,46.94 -97.34,63.72 -52.13,24.94 -108.03,42.91 -165.54,49.48 19.5,-21.05 38.39,-42.76 54.89,-66.28 44.94,-62.28 76.93,-132.38 112.41,-200.14 22.19,-43.01 45.02,-85.71 70.6,-126.8 -34.64,19.31 -73.51,31.51 -113.26,33.08 -20.67,0.42 -42.24,-0.76 -61.17,-9.88 -15.94,-7.65 -29.35,-22.28 -32.41,-40.08 -3.86,-19.81 3.87,-39.88 15.01,-56 19.83,-28.56 47.99,-50.02 77.06,-68.46 -7.21,-1.37 -14.49,-2.13 -21.73,-3.24 3.55,-4.12 8.7,-6.17 13.18,-9.03 15.44,-9.69 32.17,-17.1 49.03,-23.9zm120.15 -25.02l0 0c-54.75,10.69 -109.41,25.94 -158.7,52.58 8.14,1.17 16.3,2.17 24.43,3.43 -30.85,16.46 -60.18,36.65 -83.82,62.63 -11.91,13.37 -22.76,28.71 -26.13,46.65 -2.51,12.49 -0.13,26.2 7.68,36.43 9.22,12.73 24.33,19.74 39.39,22.74 46.34,8.24 94.96,-1.85 135.77,-24.81 -26.38,6.27 -55.23,3.28 -79.22,-9.59 -14.21,-7.59 -26.09,-23.39 -23.02,-40.18 3.52,-17.1 16.45,-30.26 29.48,-41.01 25.1,-20.17 54.27,-34.6 84.06,-46.48 22.57,-9.04 46.36,-14.42 70.1,-19.44 49.48,-9.93 99.94,-15.33 150.44,-15.33 31.52,1.11 63.72,6.63 91.58,22.05 19.19,10.77 36.39,27.61 42.12,49.43 6.65,24.19 -2.26,49.84 -16.18,69.77 -19.7,27.7 -47.57,48.51 -76.96,65.02 -50.12,27.68 -106.99,43.33 -164.31,44.06 19.23,-38.14 41.59,-74.73 66.89,-109.16 30.81,-41.17 65.58,-80.38 108.34,-109.44 -65.96,1.3 -131.32,17.74 -190.81,46.07 -27.34,13.16 -53.81,28.51 -77.59,47.41 17.92,0.18 35.85,0.02 53.78,0.1 -24.18,20.35 -41.19,47.49 -57.82,73.99 -54.02,89.61 -95.73,186 -149.37,275.84 -17.83,29.03 -36.42,58.38 -62.01,81.31 8.93,-1.42 17.76,-3.36 26.57,-5.37 68.05,-16.49 134.27,-44.36 189.77,-87.59 -12.32,-0.17 -24.63,-0.03 -36.93,-0.07 19.12,-20.15 34.9,-43.2 48.35,-67.45 16.19,-29.26 31.53,-58.97 47.88,-88.13 42.6,78.66 106.4,145.94 183.98,190.73 71.98,42.13 153.67,65.77 236.2,75.44 92.28,10.69 186.07,5.08 277.18,-12.52 74.95,-14.79 148.76,-37.13 217.73,-70.24 -73.45,11.67 -147.51,20.31 -221.92,22.42 -91.11,2.6 -183.24,-3.56 -271.67,-26.86 -70.23,-18.75 -138.91,-48.83 -194.03,-97.09 -27.03,-24.18 -51.69,-52.74 -64.66,-87.09 59.56,-17.68 117.61,-42.87 167.65,-80.13 27.84,-21.23 53.72,-46.52 69.62,-78.09 11.8,-23.51 16.92,-51.69 8.18,-77.03 -9.9,-27.7 -33.26,-48.09 -58.11,-62.46 -48.9,-27.87 -105.32,-39.31 -160.86,-44.33 -67.78,-5.01 -136.21,-0.38 -203.05,11.79zm1.94 55.69l0 0c-39.33,8.58 -77.02,24.38 -111.16,45.67 -15.11,9.86 -30.23,20.9 -40.26,36.22 -5.39,8.24 -8.51,19.22 -3.51,28.42 6.15,12.83 20.17,18.5 32.95,22.47 25.13,7.43 53.03,8.48 77.78,-1.06 5.13,-2.14 10.84,-4.13 14.08,-9 4.16,-5.79 9.39,-10.75 13.03,-16.88 -17.97,-0.13 -35.94,0.19 -53.91,-0.15 31.76,-30.46 70.8,-52.21 110.67,-70.21 61.98,-27.07 130.54,-44.3 198.43,-35.31 -38.22,26.09 -71.28,59 -100.55,94.68 -29.85,36.59 -55.89,76.24 -78.15,117.87 19.98,-0.46 39.77,-4 59.2,-8.52 47.89,-11.92 94.04,-33.22 131.84,-65.24 18.28,-16.05 35.48,-35.13 42.47,-58.96 5.02,-16 3.76,-34.14 -4.92,-48.64 -10.92,-18.66 -30.21,-30.52 -49.91,-38.14 -28.81,-10.73 -60.02,-13.86 -90.59,-12.38 -49.62,1.53 -99.12,7.91 -147.49,19.16zm518.57 12.62c4.58,-8.12 8.06,-17.18 13.91,-24.4 26.2,-0.5 52.47,-0.02 78.69,-0.23 7.9,-0.2 17.32,1.53 21.44,9.15 4.02,7.42 0.63,16.02 -2.95,22.9 -34.69,65.02 -69.31,130.09 -104,195.11 -2.46,4.33 -4.77,8.74 -6.69,13.36 4.42,0.73 8.89,1.6 13.1,3.27 -4.84,7.76 -8.9,15.94 -13.39,23.89 -27.32,0.14 -54.65,0.06 -81.97,0.06 -7.65,-0.12 -16.8,-2.89 -19.58,-10.83 -3.01,-7.93 0.96,-16.14 4.62,-23.1 35.86,-67.03 71.45,-134.18 107.37,-201.17 0.83,-1.76 1.56,-3.56 2.21,-5.4 -4.3,-0.81 -8.55,-1.63 -12.76,-2.61zm18.31 -15.96l0 0c-1.68,3.16 -3.35,6.33 -5.06,9.47 3.61,1.34 8.26,2.43 9.22,6.84 -0.17,6.38 -4.12,11.66 -6.88,17.14 -35.11,65.64 -70.21,131.27 -105.34,196.9 -2.3,5.08 -6.35,11.44 -2.48,16.78 3.93,3.36 9.37,3.34 14.26,3.38 24.29,-0.08 48.56,-0.02 72.85,-0.04 1.73,-3.16 3.45,-6.32 5.27,-9.43 -4.62,-1.24 -11.07,-3.98 -9,-10.04 2.95,-9.08 8.6,-16.99 12.76,-25.55 33.16,-61.98 66.26,-123.99 99.46,-185.96 2.41,-4.83 5.36,-10.94 2.36,-16.12 -3.62,-3.14 -8.64,-3.4 -13.18,-3.42 -24.75,0.07 -49.49,0 -74.24,0.05zm161.1 -4.19c1.22,-1.71 1.99,-5.02 4.81,-4.41 65.23,-0.07 130.48,-0.04 195.73,-0.02 13.1,0.27 28.27,1.88 36.93,13.01 10.77,12.68 8.09,30.84 4.2,45.71 -9.96,34.31 -27.01,66 -44.14,97.17 -15.75,27.58 -31.09,55.99 -53.18,79.14 -18.24,19.21 -43.6,32.03 -70.35,32.51 -54.87,0.38 -109.75,0.01 -164.62,0.19 -7.43,0.09 -16.05,-1.34 -20.65,-7.86 -4.54,-6.78 -2.45,-15.71 1.38,-22.32 34.39,-64.02 68.68,-128.06 103.07,-192.09 3.18,-6.03 6.82,-11.89 9.12,-18.37 -4.37,-0.76 -8.72,-1.57 -13.03,-2.45 3.31,-6.88 7.12,-13.49 10.73,-20.21zm7.54 4.27l0 0c-1.66,3.14 -3.37,6.26 -5.11,9.35 4.85,0.82 11.17,4.77 8.83,10.57 -3.25,9.07 -8.79,17.11 -13.03,25.75 -33.92,63.18 -67.81,126.38 -101.53,189.68 -2.11,3.52 -3.01,8.58 -0.04,11.95 3.58,2.65 8.22,3.09 12.55,3.11 46.02,-0.04 92.01,0 138.01,-0.02 14.14,-0.1 28.43,0.69 42.39,-2.15 16.52,-3.22 31.48,-12.09 43.82,-23.33 18.45,-17.24 31.59,-39.16 44.4,-60.69 18.78,-32.53 37.21,-65.52 50.45,-100.75 4.25,-12.2 8.5,-24.85 8.12,-37.93 -0.19,-9.56 -5.65,-19.54 -15.13,-22.55 -11,-3.55 -22.78,-3.05 -34.18,-3.09 -59.85,0.06 -119.7,-0.13 -179.55,0.1zm297.85 15.92c4.53,-8.14 8.23,-16.92 13.69,-24.46 84.83,-0.31 169.7,-0.27 254.53,-0.02 -7.66,13.91 -15.02,27.97 -22.63,41.89 -4.25,7.55 -9.23,15.41 -17.28,19.33 -10.07,5.1 -21.68,3.53 -32.55,3.76 -34.19,0.13 -68.41,-0.29 -102.6,0.21 -5.64,10.98 -11.4,21.9 -16.8,33.01 36.13,0.86 72.28,-0.1 108.43,0.46 -8.78,16.53 -17.63,33 -26.77,49.33 -5.47,9.96 -15.53,17.39 -27.14,17.7 -29.39,0.8 -58.83,0.06 -88.22,0.36 -3.12,-0.69 -4.35,2.51 -5.6,4.6 -4.69,8.87 -9.77,17.55 -14.38,26.48 35.96,0.11 71.91,-0.04 107.87,0.07 5.48,-0.15 11.5,0.02 16.25,-3.18 3.87,-3.16 6.28,-7.68 9.19,-11.68 10,-0.04 20.02,-0.02 30.04,-0.02 -10.05,19.6 -20.76,38.85 -31.03,58.31 -4.29,8.05 -8.89,16.46 -16.63,21.67 -6.78,4.37 -15.1,5.31 -22.99,5.29 -65.77,-0.1 -131.53,0.02 -197.3,-0.06 -7.67,0.06 -16.57,-2.72 -19.77,-10.35 -3.2,-7.56 0.5,-15.59 3.94,-22.33 34.78,-64.87 69.55,-129.72 104.22,-194.64 2.36,-4.27 4.69,-8.6 6.46,-13.18 -4.33,-0.81 -8.64,-1.65 -12.93,-2.55zm18.5 -16.05l0 0c-1.78,3.14 -3.5,6.28 -5.27,9.44 3.7,1.19 7.95,2.63 9.24,6.8 0.21,3.43 -1.38,6.59 -2.8,9.62 -36.78,68.62 -73.64,137.19 -110.39,205.83 -1.93,4.36 -4.92,9.44 -2.7,14.27 2.88,4.33 8.66,4.44 13.34,4.58 66.45,-0.08 132.89,0.09 199.35,-0.08 9.04,0.12 18.03,-4.33 22.39,-12.43 10.5,-18.22 20.08,-36.96 30,-55.48 -3.65,-0.04 -7.29,-0.08 -10.92,-0.08 -3.98,6 -9.09,11.94 -16.43,13.56 -12.65,2.55 -25.63,1.59 -38.45,1.8 -32.68,-0.01 -65.35,0.02 -98.03,-0.03 8.76,-16.25 17.8,-32.36 26.46,-48.66 31.43,-0.46 62.87,0.19 94.31,-0.33 8.62,0.08 16.9,-4.41 21,-12.09 7.37,-12.45 13.83,-25.4 20.88,-38.02 -36.25,0 -72.5,0.01 -108.74,-0.02 8.72,-16.96 17.47,-33.91 26.42,-50.75 40.34,0.02 80.71,-0.02 121.05,0.02 5.18,-0.04 10.54,-0.52 15.27,-2.8 6.13,-3.35 9.87,-9.56 13.26,-15.42 5.4,-9.83 10.69,-19.73 15.9,-29.68 -78.37,-0.05 -156.77,0.04 -235.14,-0.05zm302.02 -8.53c66.32,-0.13 132.66,0 198.99,-0.08 11.43,0.22 24.17,1.27 33.2,9.12 9.75,9.18 10.38,23.89 8.1,36.27 -3.95,18.14 -12.3,35 -21.65,50.94 -15.94,26.7 -37.72,53.08 -69,61.53 4.56,13.3 9.34,26.55 15.09,39.41 12.89,0.21 25.81,-0.02 38.72,0.11 -7.86,15.18 -16.27,30.06 -24.33,45.14 -4.62,8.29 -9.33,17.6 -18.32,21.9 -9.56,4.71 -20.51,3 -30.76,3.35 -12.84,0.42 -26.75,-1.75 -36.57,-10.69 -8.55,-7.42 -11.17,-18.85 -15.39,-28.85 -12.18,-30.37 -23.56,-61.08 -36.17,-91.27 -18.98,34.14 -37.03,68.81 -55.42,103.3 4.43,1.01 8.89,1.99 13.34,2.97 -4.47,8.22 -8.7,16.57 -13.63,24.54 -24.21,-0.04 -48.43,-0.06 -72.62,0 -7.26,-0.02 -14.96,0.59 -21.59,-2.95 -6.34,-2.95 -9.66,-10.77 -8.12,-17.46 1.57,-7.5 6.14,-13.81 9.56,-20.55 35.51,-66.52 71.51,-132.8 106.76,-199.47 -4.54,-0.94 -9.04,-1.84 -13.56,-2.76 4.32,-8.23 8.89,-16.34 13.37,-24.5zm5.15 8.58l0 0c-1.72,3.15 -3.45,6.29 -5.15,9.43 4.88,1.09 10.76,4.52 8.79,10.48 -4.5,11.43 -11.32,21.82 -16.84,32.8 -32.07,59.8 -64.12,119.63 -96.25,179.42 -2.03,4.12 -4.92,8.89 -2.75,13.57 2.87,4.21 8.43,4.67 13.1,4.79 25.08,0 50.15,-0.04 75.25,0 1.69,-3.15 3.41,-6.29 5.19,-9.37 -4.02,-1.44 -9.69,-3.09 -9.31,-8.45 1.11,-5.04 4.06,-9.41 6.36,-13.95 19.79,-37.39 39.85,-74.65 59.68,-112.03 15.34,39.58 30.97,79.04 46.36,118.62 2.64,7.93 6.8,15.92 14.4,20.14 12.59,7.05 27.57,4.6 41.37,5.02 8.21,0.3 16.3,-3.66 20.44,-10.88 8.16,-13.64 15.26,-27.9 23.02,-41.77 -8.47,-0.25 -17.03,0.52 -25.42,-0.84 -5.52,-0.82 -7.91,-6.55 -9.71,-11.11 -5.39,-14.41 -10.86,-28.78 -16.25,-43.18 13.05,-2.9 26.08,-7.26 36.82,-15.44 17.19,-12.95 29.53,-31.15 40.18,-49.58 7.77,-14.6 15.5,-29.77 17.87,-46.34 0.88,-8.43 0.77,-18.72 -6.3,-24.6 -8.8,-6.38 -20.23,-6.59 -30.67,-6.76 -63.4,0.05 -126.79,-0.02 -190.18,0.03zm69.73 47.84c19.66,0.27 39.31,-0.36 58.95,0.33 5.08,0.28 13.3,1.45 12.8,8.27 -1.99,12.66 -8.55,24.56 -17.22,33.89 -6.86,6.97 -16.58,10.58 -26.27,10.56 -18.96,0.38 -37.93,0.02 -56.88,0.15 9.62,-17.68 18.95,-35.54 28.62,-53.2zm5.39 8.62l0 0c-6.59,11.65 -13.14,23.35 -18.85,35.46 15.19,-0.06 30.38,0.23 45.57,-0.09 17.19,-1.61 26.98,-19.55 30.48,-34.64 -19.02,-1.48 -38.14,-0.31 -57.2,-0.73zm-629.92 -6.23c13.3,0.1 26.59,-0.15 39.87,0.54 8.01,0.46 16.84,-1.61 24.19,2.49 5.54,3.49 3.64,10.98 2.11,16.15 -5.71,16.86 -14.27,32.57 -22.51,48.3 -10.82,20.15 -21.47,40.51 -34.79,59.17 -6.64,8.89 -14.52,19.26 -26.55,20.1 -20.44,1.49 -40.96,0.52 -61.42,0.79 26.27,-49.24 52.57,-98.44 79.1,-147.54zm4.83 9.47l0 0c-23.37,42.8 -46.19,85.96 -69.25,128.95 12.41,0.11 24.8,-0.02 37.2,0.07 5.9,-0.13 12.6,0.37 17.34,-3.85 8.77,-7.37 14.81,-17.33 20.94,-26.89 13.67,-22.51 26.07,-45.79 37.74,-69.41 4.23,-9.2 9.13,-18.36 10.57,-28.53 -12.76,-1.53 -25.65,-0.07 -38.45,-1.07 -5.3,0.21 -11.11,-1.19 -16.09,0.73zm-396.62 243.3c0.81,-2.88 3.57,-3.62 6.27,-3.22 358.91,0.08 717.85,-0.06 1076.76,0.06 -13.79,24.58 -27.53,49.17 -41.3,73.73 -9.91,17.28 -28.34,30.54 -48.8,30.14 -348.74,-0.1 -697.48,0.17 -1046.22,-0.14 17.45,-33.68 35.71,-66.95 53.29,-100.57zm-39 91.57l0 0c344.64,0.15 689.28,0.02 1033.92,0.06 16.21,0.44 30.89,-9.83 38.7,-23.59 11.44,-20.71 22.86,-41.41 34.28,-62.14 -353.25,-0.02 -706.51,0 -1059.75,0 -15.75,28.52 -31.42,57.11 -47.15,85.67zm457.79 -61.82c8.19,-9.89 21.64,-12.66 33.87,-13.2 9.57,-0.21 19.42,-0.73 28.71,2.13 3.7,0.99 6.4,4.06 7.57,7.64 -0.36,8.87 -4.73,16.78 -9.14,24.23 -4.5,7.42 -9.56,14.93 -17.07,19.62 -7.49,4.79 -16.59,6.13 -25.3,6.55 -9.77,0.14 -19.68,0.63 -29.28,-1.57 -5.34,-1.88 -9.25,-7.36 -7.35,-13.1 3.23,-12.01 9.98,-22.88 17.99,-32.3zm32.45 -0.25l0 0c-5.75,1.32 -9.2,6.53 -12.24,11.11 -3.97,6.19 -8.34,12.4 -10,19.68 0.24,5.19 8,4.59 11.24,2.47 9.5,-6.69 14.52,-17.88 19.43,-28.03 2.03,-5.21 -4.89,-6.19 -8.43,-5.23zm-369.24 -11.74c16.3,-0.85 32.64,-0.1 48.95,-0.41 5.99,-0.11 16.01,-0.53 16.47,7.69 -2.03,7.49 -6.67,14.8 -14.35,17.41 2.38,1.4 5.83,2.64 5.12,6.17 -1.06,8.87 -6.75,16.61 -13.07,22.62 -4.52,4.47 -11.15,4.93 -17.13,5.06 -13.25,0.06 -26.51,-0.08 -39.75,0.04 -3.54,0.06 -7.05,-0.48 -10.5,-1.07 1.35,-5.23 4.43,-9.72 6.98,-14.41 7.11,-12.97 14.31,-25.9 21.34,-38.93 -1.02,-1.05 -3.05,-3.12 -4.06,-4.17zm22.51 20.74l0 0c6.99,0.88 16.99,0 17.16,-9.21 -3.92,-0.38 -7.89,-0.44 -11.82,-0.46 -1.78,3.22 -3.54,6.45 -5.34,9.67zm-5.62 10.44l0 0c-2.62,4.81 -5.32,9.58 -8,14.37 4,-0.04 8.12,0.46 12.09,-0.42 4.88,-2.43 7.68,-7.55 9.21,-12.57 -4.31,-1.36 -8.83,-1.49 -13.3,-1.38zm178.94 -20.13l0 0c-2.15,3.85 -4.28,7.7 -6.37,11.57 7.63,1.09 20.06,-0.84 19.09,-11.11 -4.26,-0.36 -8.49,-0.4 -12.72,-0.46z"/>
   <path class="fil1" d="M1270.56 253.82c16.74,-17.24 33.22,-34.77 50.15,-51.84 2.13,27.86 3.39,55.75 5.46,83.58 2.86,26.25 21.04,48.7 43.55,61.42 -4.39,5.98 -8.8,11.92 -13.01,17.99 16.05,11.54 34.87,19.68 54.6,21.84 29.42,3.93 57.41,20.69 73.01,46.21 7.31,11.44 11.61,24.52 14.21,37.76 13.22,5.34 25.86,12.8 35.39,23.58 4.61,4.98 5.67,12.03 9.4,17.61 15.08,25.65 42.78,41.34 70.92,48.62 18.66,0.11 38.76,3.79 52.53,17.43 16.86,16.21 19.68,42.17 13.97,63.89 -0.44,2.86 -2.53,5.98 -0.48,8.66 5.02,8.66 7.51,18.49 8.04,28.45 4.43,3.75 14.62,6.11 11.77,13.6 -4.93,13.89 -9.22,29.01 -20.39,39.39 -6.39,6.57 -14.59,10.9 -22.83,14.71 87.37,-0.11 174.77,-0.04 262.17,-0.06 21.49,0.16 43.94,6.04 59.83,21.21 17.01,15.19 22.79,39.43 20.76,61.48 -1.8,24.08 -12.7,46.13 -23.96,67.05 -9.52,16.99 -20.08,33.54 -33.11,48.08 15.71,-0.03 31.42,-0.02 47.15,-0.02 -43.58,80.87 -87.53,161.5 -131.27,242.27 -20.15,33.64 -56.44,59.08 -96.44,59.92 -112.58,0.04 -225.15,0 -337.74,0.02 -25.46,21.53 -54.03,39.08 -83.53,54.47 -72.34,37.07 -150.71,61.26 -230.29,76.95 -93.87,18.22 -190.12,23.91 -285.48,17.22 -79.85,-5.15 -158.87,-25.67 -230.54,-61.39 -57.17,-28.47 -109.18,-67.21 -152.88,-113.76 -16.59,14.77 -33.81,28.79 -51.19,42.64 -27.55,22.99 -58.68,41.38 -91.15,56.52 -72.3,33.35 -150.27,52.66 -228.64,65.15 -23.43,3.49 -46.92,6.78 -70.54,8.34 46.48,-35.87 87.8,-78.4 121.42,-126.54 25.46,-35.96 47.3,-74.33 67.57,-113.39 22.66,-45.41 46.01,-90.43 69.58,-135.35 -37.86,4.39 -78.97,3.85 -112.69,-16.09 -28.14,-16.23 -47.64,-47.19 -47.81,-79.93 -1.13,-33.48 15.4,-64.86 37.14,-89.31 -14.42,-1.8 -28.73,-4.73 -43.29,-5.4 0.9,-1.11 1.89,-2.13 3.01,-3.01 56.24,-43.39 119.5,-77.68 186.57,-101.13 96.74,-33.68 200.33,-45.54 302.36,-40.88 9.2,-21.11 21.76,-41.08 38.72,-56.82 56.07,-48.7 120.59,-87.8 190.27,-113.76 -25.42,-8.28 -51.29,-15.13 -76.82,-23.07 21.67,-15.03 43.01,-30.57 65.06,-45.05 55.51,-33.09 119.23,-50.67 183.29,-56.71 -24.67,-7.66 -48.71,-17.26 -73.16,-25.57 27.15,-12.15 54.28,-24.41 81.63,-36.1 57.97,-20.38 120.64,-23.75 181.52,-19.52 5.57,-24.16 15.08,-49.65 35.86,-64.75 3.18,24.94 12.22,49.2 27.17,69.5 7.37,-20.53 17.7,-40.48 33.16,-56.11zm306.88 916.59c5.13,0 9.54,-2.72 14.31,-4.2 -3.45,6.34 -5.92,15.77 -14.37,16.75 -10.67,1.01 -21.45,0.4 -32.14,0.42 -6.44,-0.23 -15.1,-1.02 -16.77,-8.72 10.69,1.65 21.56,1.09 32.34,1.11 5.86,-0.17 12.8,-0.04 16.63,-5.36zm-503.74 3.75c3.12,-2.28 4.31,-6.32 6.38,-9.46 0.69,1.26 2.03,3.81 2.7,5.07 1.59,0.12 4.77,0.37 6.34,0.48 -2.13,4.08 -3.78,8.66 -7.22,11.84 -7.02,1.59 -14.37,0.94 -21.5,0.67 -3.35,-0.65 -2.78,-4.96 -3.81,-7.39 5.69,-0.1 11.59,0.54 17.11,-1.21zm628.38 -25.32c5.44,1.78 10.92,3.56 16.01,6.26 -0.92,1.59 -1.85,3.18 -2.85,4.73 -4.1,-4.14 -11.8,-4.4 -13.16,-10.99zm-670.84 21.68c3.59,-7.68 7.8,-15.11 12.44,-22.22 1.66,4.83 2.79,9.83 3.9,14.83 -2.97,4.92 -5.72,10 -8.42,15.07 1.07,0.96 3.23,2.86 4.31,3.8 -10.79,1.86 -21.94,1.13 -32.8,0.3 0.46,-2.45 1.26,-4.77 2.28,-7.01 7.41,0 14.9,0.46 22.28,-0.69 -1,-1.01 -2.99,-3.04 -3.99,-4.08zm713.77 -22.74c3.08,1.88 7.64,3.09 7.89,7.42 -1.38,8.54 -6.68,16.15 -13,21.84 -7.69,6.61 -18.4,5.99 -27.86,5.95 -9.5,-0.38 -19.14,0.9 -28.52,-1.03 0.19,-1.67 0.57,-5 0.74,-6.67 11.54,-0.15 23.11,0.6 34.6,-0.65 13.74,-1.49 22.7,-14.48 26.15,-26.86zm-377.67 22.95c4.29,-8.22 8.83,-16.3 13.34,-24.4 1.6,4.79 3.14,9.61 4.65,14.46 -3.45,5.65 -6.63,11.46 -9.66,17.34 1.04,1.09 3.09,3.27 4.1,4.38 -9.48,0.71 -19.04,0.83 -28.5,-0.15 0.44,-2.47 1.36,-4.79 2.43,-7.03 6.07,0.1 12.2,0.23 18.22,-0.94 -1.53,-1.22 -3.06,-2.45 -4.58,-3.66zm-491.87 -22.78c4.47,-0.11 8.99,0.02 13.3,1.38 -1.53,5.02 -4.33,10.14 -9.21,12.57 -3.97,0.88 -8.09,0.38 -12.09,0.42 2.68,-4.79 5.38,-9.56 8,-14.37zm352.35 -19.44c3.54,-0.96 10.46,0.02 8.43,5.23 -4.91,10.15 -9.93,21.34 -19.43,28.03 -3.24,2.12 -11,2.72 -11.24,-2.47 1.66,-7.28 6.03,-13.49 10,-19.68 3.04,-4.58 6.49,-9.79 12.24,-11.11zm-173.41 -0.69c4.23,0.06 8.46,0.1 12.72,0.46 0.97,10.27 -11.46,12.2 -19.09,11.11 2.09,-3.87 4.22,-7.72 6.37,-11.57zm-173.32 9.69c1.8,-3.22 3.56,-6.45 5.34,-9.67 3.93,0.02 7.9,0.08 11.82,0.46 -0.17,9.21 -10.17,10.09 -17.16,9.21zm384.43 -12.18c5.61,1.34 9.48,6.95 7.59,12.7 -3.3,12.24 -10.33,23.33 -18.51,32.91 -11.57,12.92 -30.4,13.16 -46.44,12.9 -8.41,-0.43 -19.48,-0.64 -23.43,-9.68 9.6,2.2 19.51,1.71 29.28,1.57 8.71,-0.42 17.81,-1.76 25.3,-6.55 7.51,-4.69 12.57,-12.2 17.07,-19.62 4.41,-7.45 8.78,-15.36 9.14,-24.23zm486.96 -0.1l1.57 -1.18c3.78,-0.02 7.55,0 11.36,0.07 -2.41,3.72 -3.48,9.29 -7.97,11.13 -8.96,1.23 -18.5,-1.45 -26.93,2.82 -3.26,-1.15 -6.44,-2.49 -9.56,-3.93 5.96,-12.53 22.6,-1.38 31.53,-8.91zm-156.44 -0.21c3.68,-2.12 8.45,-0.52 12.57,-0.95 -2.39,3.86 -3.64,9.06 -7.72,11.57 -8.6,1.72 -18.28,-1.88 -26.19,2.74 -6.61,6.84 -10.52,15.78 -14.96,24.1 -3.58,0.17 -7.09,-0.58 -9.83,-2.94 3.7,-9.63 8.53,-18.98 14.87,-27.14 8.1,-9.2 22.76,0.94 31.26,-7.38zm-155.67 -1.01c3.33,0.09 6.67,0.19 10.04,0.34 0.11,2.49 -0.46,4.83 -1.71,6.99 -9.35,17.13 -19,34.12 -28.06,51.4 -7.49,0.02 -15.19,1.15 -22.53,-0.57 -1.06,-2.22 -1.92,-4.5 -2.57,-6.84 5.54,0.06 11.09,-0.04 16.67,-0.08 9.31,-17.12 18.71,-34.19 28.16,-51.24zm-38.37 0.02c1.36,0.07 4.1,0.25 5.46,0.32 1.07,3.16 2.32,6.3 4.38,9.01 -1.47,2.64 -2.91,5.32 -4.36,8.02 -1.86,-5.78 -3.66,-11.59 -5.48,-17.35zm-306.37 0.15c4.06,0.73 8.22,3.33 7.89,8.07 -2.16,12.77 -12.87,23.27 -25.67,25.36 0.64,1.67 1.27,3.37 1.92,5.08 -7.55,0.88 -7.74,-7.86 -9.94,-12.86 13.02,-2.05 23.27,-12.91 25.8,-25.65zm-171.63 -0.13c3.28,1.2 7.41,2.39 8.01,6.47 -0.9,8.03 -6.29,15.98 -14.2,18.47 1.78,1.3 3.53,2.64 5.31,3.98 -0.44,9.97 -6.44,18.84 -13.64,25.35 -7.43,6.42 -17.93,4.31 -26.92,4.65 -13.37,-0.51 -26.89,1.13 -40.17,-0.97 0.8,-2.23 1.61,-4.45 2.43,-6.65 13.24,-0.12 26.5,0.02 39.75,-0.04 5.98,-0.13 12.61,-0.59 17.13,-5.06 6.32,-6.01 12.01,-13.75 13.07,-22.62 0.71,-3.53 -2.74,-4.77 -5.12,-6.17 7.68,-2.61 12.32,-9.92 14.35,-17.41zm194.45 -148c20.11,-37.56 40.11,-75.21 60.46,-112.66 12.57,1.24 25.21,0.31 37.82,0.65 -7.65,18.78 -17.4,36.59 -26.96,54.43 -8.98,16.19 -17.74,32.62 -28.97,47.39 -3.69,4.35 -7.49,10.19 -13.9,10.08 -9.49,0.38 -18.99,0.02 -28.45,0.11zm684.24 -114.25c13.66,-0.42 27.34,-0.15 41.02,-0.13 -4.16,7.29 -9.2,16.09 -18.33,17.39 -10.62,0.65 -21.27,0.1 -31.9,0.23 3.16,-5.77 6.42,-11.51 9.21,-17.49zm-1245.34 15.94c24.63,-27.07 51.51,-52.53 82.35,-72.45 17.09,7.96 33.28,21.18 39.32,39.65 5.07,15.04 1.37,31.52 -5.6,45.33 -10.17,20.07 -26.82,36.03 -44.39,49.73 -46.41,35.06 -102.87,56.02 -160.52,62.51 25.2,-44.5 54.55,-86.78 88.84,-124.77zm-182.23 -64.7c57.32,-15.36 116.56,-23.25 175.85,-24.48 7.34,-0.52 14.67,0.06 22.01,0.5 -73.99,6.61 -145.37,33.37 -208.11,72.64 -24.02,14.77 -44.62,34.16 -66.24,52.07 20.32,0.16 40.67,-0.15 60.99,0.16 -4.65,6.97 -13.22,9.15 -20.69,11.72 -21.91,5.9 -45.51,4.41 -67.03,-2.47 -9.69,-3.3 -20.42,-7.62 -25.04,-17.51 -4.27,-7.8 0.69,-16.42 5.12,-22.91 12.41,-15.92 29.69,-27.07 46.91,-37.13 24.09,-13.64 49.62,-24.9 76.23,-32.59zm1203.64 -197.95c0.79,-3.31 1.71,-6.59 2.61,-9.87 10.02,8.89 23.2,12.32 35.94,15.27 -3.18,2.7 -5.79,7.15 -10.42,7.17 -5.58,0.67 -13.01,0.53 -15.6,6.65 -3.47,9.61 3.14,18.44 5.52,27.43 -15.54,-9.62 -22.45,-29.16 -18.05,-46.65zm-258.99 -196.11c14.22,14.92 34.49,24 55.16,23.98 13.56,-1.88 26.17,5.31 37.16,12.38 14.73,10.21 25.6,25.55 31,42.58 -6.42,-7.41 -13.97,-14.81 -24.06,-16.43 -16.34,8.75 -36.54,15.84 -54.54,7.85 -14.58,-5.86 -26,-21.24 -22.19,-37.45 -11.89,-6.9 -22.22,-18.49 -22.53,-32.91zm37.9 43.46l0 0 0.55 -0.09c5.94,15.38 26.23,15.46 38.59,8.29 1.57,-1.15 3.16,-2.31 4.75,-3.46 -3.41,-1.92 -6.84,-3.74 -10.33,-5.48 -0.34,1.34 -1.01,4.02 -1.36,5.36 -3.45,2.57 -7.89,5.1 -12.24,3.22 -3.68,-1.15 -5.37,-4.73 -6.5,-8.08 1.19,-2.04 2.38,-4.09 3.55,-6.15 -5.25,-1.27 -10.6,-2.13 -15.9,-2.88 -0.62,3.05 -0.98,6.15 -1.11,9.27zm23.66 -5.3l0 0c-0.35,4.06 -2.67,7.33 -5.06,10.42 5.48,0.04 11.11,-1.88 12.74,-7.7 -2.57,-0.92 -5.14,-1.82 -7.68,-2.72zm-97.46 -166.61l0 0c-15.4,22.43 -21.72,49.8 -23.22,76.63 -14.06,19.12 -34.27,32.68 -54.27,44.98 -20.56,12.64 -43.18,21.34 -64.06,33.39 -90.62,50.94 -172.32,118.12 -238.76,198.16 1.7,-16.03 3.54,-32.03 5.04,-48.08 0.32,-2.11 0.07,-4.54 1.7,-6.19 12.49,-15.08 27.11,-28.22 41.88,-41.02 33.83,-28.69 70.06,-54.42 107.26,-78.52 28.38,-18.16 57.3,-35.6 87.71,-50.17 31.15,-14.13 63.25,-29.13 87.26,-54.16 -2.24,-6.38 -2.82,-13.15 -1.5,-19.77 -37.24,-6.29 -75.02,-9.79 -112.78,-8.97 -40.3,1.32 -81.22,5.92 -119.1,20.48 36.96,13.75 69.08,38.47 95.39,67.51 -48.22,-7.99 -97.74,-8.58 -145.96,-0.34 -48.66,8.6 -96.82,24.44 -138.55,51.36 35.06,10.86 69.16,24.52 103.24,38.06 -32.32,8.58 -64.25,18.64 -95.52,30.48 -50.27,19.33 -99.43,43.13 -142.01,76.42 -22.9,18.2 -44.14,39.23 -58.89,64.7 15.86,1.47 31.59,4.67 47.22,7.27 7.28,1.86 14.66,3.4 21.97,5.16 24.2,6.32 48.01,14.25 70.69,24.84 10.22,4.81 20.01,10.43 29.83,16 0.6,0.65 1.8,1.98 2.42,2.65l0.67 -0.48c5.74,3.94 11.38,8.04 16.89,12.3 21.82,17.54 40.46,39.79 50.52,66.17 0.96,0.03 2.86,0.07 3.81,0.09 2.92,-5.13 5.71,-10.34 8.53,-15.54 0.77,-1.39 2.3,-4.19 3.06,-5.59 3.82,-6.95 7.55,-13.95 11.42,-20.86 1.19,-2.26 2.42,-4.5 3.62,-6.73 4.33,-7.85 8.64,-15.72 12.91,-23.6 37.67,0.31 75.37,-0.67 113.01,0.5 50.66,-64.16 110.91,-120.4 176.02,-169.62 -0.17,-0.77 -0.5,-2.28 -0.67,-3.05 -0.78,-12.1 -1.74,-24.23 -0.51,-36.36 -24.58,14.09 -48.15,29.83 -71.25,46.19 -56.17,40.14 -108.93,84.89 -159.22,132.11 -1.93,1.73 -3.45,3.83 -4.83,6 -8.43,6.63 -15.69,14.61 -23.71,21.68 25.65,-45.99 61.57,-85.38 99.69,-121.34 52.09,-48.53 109.49,-91.25 169.81,-128.99 3.36,-2.45 4.93,-6.51 7.19,-9.84 -5.73,30.76 -6.86,63.39 3.62,93.29 2.32,6.1 4.27,12.74 9.21,17.34 23.16,23.8 51.69,42.93 83.53,52.86 25.92,8.12 54.22,8.48 80.17,0.34 32.78,13.97 67.99,25.67 104.07,23.7 2.1,0.8 3.44,2.78 4.98,4.35 12.7,14.85 21.43,32.64 27.77,51.01 4.91,1.15 9.83,2.4 14.89,2.84 15.04,2.05 30.35,1.13 45.33,-0.9 7.09,-0.96 11.34,-7.4 15.23,-12.7 -1.27,-2.05 -2.57,-4.04 -3.95,-5.98 -7.47,-1.26 -15.13,-1.38 -22.39,-3.7 -14.35,-3.79 -27.04,-12.01 -38.03,-21.8 -1.63,-2.58 -3.85,-4.71 -5.85,-6.97 7.04,3.41 14.2,6.99 21.98,8.33 17.85,7.09 37.61,8.26 56.63,9.01 7.66,6.49 11.89,15.82 15.5,24.98 15.53,0 33.06,-4.79 41.13,-19.31 -3.49,-3.85 -7.55,-7.92 -7.84,-13.41 0.04,-5.08 1.76,-10.25 0.02,-15.21 -1.55,-5.92 -6.21,-10.16 -10.23,-14.47 1.27,7.63 -3.51,13.81 -8.29,19.06 -12.55,-8.31 -22.07,-23.6 -18.78,-39.06 11.53,-2.35 22.8,-6.09 33.28,-11.47 0.44,-8.66 0.59,-18.84 -6.71,-24.93 -9.17,-8.83 -22.72,-6.76 -34.25,-7.87 -26.36,-6.67 -51.65,-18.99 -71.99,-37.21 -12.86,-11.39 -22.38,-25.97 -29.35,-41.55 -6.56,-6.57 -15.46,-12.83 -25,-12.91l-0.86 -1c-4.78,-1.64 -9.7,-2.79 -14.64,-3.62 0.73,-18.67 -3.76,-38.06 -15.31,-53.02 -11.43,-14.85 -29.69,-23.26 -48.06,-25.14 -15.68,-1.95 -30.41,-7.76 -45.06,-13.18 -13.09,-8.33 -27.13,-16.44 -36,-29.58 -1.82,-8.03 -1.49,-16.55 1.32,-24.31 -19.37,-19.31 -30.36,-46.15 -31.57,-73.35 -3.06,3.66 -6.74,7.07 -8.45,11.63zm-205.61 420.29l0 0c-13.95,13.99 -28.68,27.41 -40.87,42.99 3.87,2.3 7.69,4.73 11.38,7.32 3.13,3.24 6.23,6.47 9.31,9.75 4.2,-7.93 8.68,-15.69 12.82,-23.64 13.75,-0.23 27.53,0.02 41.28,-0.15 4.51,0.05 9.01,0.05 13.51,0.05 13.24,-43.93 42.4,-82.37 79.64,-108.85 -1.9,-6.03 -3.78,-12.09 -5.6,-18.14 -44.29,24.64 -84.73,55.86 -121.47,90.67zm-748.22 29.45l0 0c-34.84,9.78 -69.25,21.83 -101.24,38.9 -15.42,8.95 -30.62,18.26 -45.9,27.44 8.44,1.17 16.87,2.43 25.32,3.41 -21.13,15.02 -41.15,32.11 -56.86,52.89 -9.79,12.8 -17.37,27.59 -20.36,43.51 -2.99,16.4 0.08,34.14 9.86,47.81 12.21,17.94 33.22,27.92 54.14,31.35 43.51,6.82 88.28,-1.8 128.63,-18.55 -21.15,35.35 -39.99,72.01 -58.95,108.55 -21.5,41.15 -41.09,83.27 -64.01,123.66 -32.12,56.8 -69.83,111.94 -120.94,153.37 45.64,-6.82 91.31,-15.04 135.24,-29.54 36.3,-11.72 71.38,-27.55 103.75,-47.78 27.59,-16.89 52.13,-38.08 77.69,-57.78 -16.69,-0.13 -33.4,-0.01 -50.08,-0.07 23.33,-31.88 40.48,-67.61 59.25,-102.21 43.41,70.81 104.7,130.48 176.88,171.62 76.96,44.23 164.31,68.35 252.32,77.03 75.35,6.95 151.39,2.55 226.21,-8.01 80.18,-11.86 159.83,-31.13 234.19,-63.93 34.73,-15.69 68.71,-34.19 97.64,-59.27 -131.28,25.59 -265.48,41.11 -399.33,33.43 -83,-5.35 -166.37,-20.42 -242.9,-53.91 332.65,-0.02 665.3,0 997.95,0 11.45,-0.06 23.1,0.61 34.29,-2.38 19.42,-4.9 35.4,-19.12 45.74,-35.88 16.5,-30.19 33.03,-60.36 49.51,-90.56 -368.17,-0.03 -736.34,0 -1104.52,-0.01 -20.02,36.83 -39.96,73.73 -60.04,110.53 -21.32,-11.8 -41.86,-25.13 -60.6,-40.74 -23.1,-19.49 -44.37,-42.13 -57.74,-69.49 59.33,-19.65 117.28,-46.53 165.5,-86.9 27.5,-23.43 52.23,-51.53 65.83,-85.4 10.94,-26.72 13.12,-57.93 1.61,-84.83 -11.5,-27.32 -34.5,-47.91 -59.41,-62.99 -30.4,-18.18 -64.33,-29.67 -98.7,-37.62 -38.33,-8.76 -77.66,-12.67 -116.93,-13.28 -75.08,-0.4 -150.54,7.64 -223.04,27.63zm591.03 37.98l0 0c-7.41,13.28 -14.64,26.67 -21.88,40.04 4.62,0.88 9.24,1.75 13.85,2.65 -33.52,62.99 -67.28,125.84 -100.9,188.77 -3.24,6.27 -6.95,12.36 -9.14,19.1 -2.83,8.93 -1.76,19.74 5.25,26.5 7.26,7.62 18.41,8.7 28.35,8.85 27.05,0.1 54.09,-0.02 81.12,0.06 7.26,-13.34 14.58,-26.63 21.78,-39.98 -4.64,-0.98 -9.27,-1.86 -13.89,-2.73 33.26,-62.35 66.67,-124.63 99.96,-186.95 4.24,-8.09 9.27,-15.98 11.17,-25.04 2.07,-9.64 -1.84,-20.69 -10.44,-25.88 -7.91,-5.17 -17.74,-5.17 -26.82,-5.37 -26.15,0 -52.28,0.04 -78.41,-0.02zm168.7 -0.01l0 0c-7.43,13.25 -14.64,26.64 -21.95,39.96 4.61,0.97 9.25,1.88 13.88,2.81 -36.18,67.55 -72.47,135.04 -108.62,202.63 -5.55,10.35 -5.02,24.79 4.45,32.74 10.17,8.93 24.63,7.65 37.22,7.84 36.44,-0.04 72.89,-0.02 109.33,-0.02 17.28,-0.02 34.64,0.29 51.86,-1.42 19.56,-2.01 38.18,-10.21 53.52,-22.38 22.15,-17.28 37.36,-41.45 51.85,-65.11 20.84,-35.73 41.26,-71.98 55.78,-110.81 5.75,-16.3 10.75,-33.79 7.76,-51.19 -2.45,-15.07 -14.29,-28.04 -29.18,-31.63 -16.89,-4.21 -34.54,-3.02 -51.82,-3.37 -58.03,-0.04 -116.05,0.04 -174.08,-0.05zm316.14 0.01l0 0c-7.4,13.28 -14.62,26.65 -21.98,39.97 4.66,0.97 9.33,1.86 14.03,2.78 -34.3,63.67 -68.38,127.47 -102.63,191.19 -3.85,7.1 -8.01,14.33 -9.16,22.45 -1.51,9.17 2.68,19.38 10.81,24.19 7.74,4.99 17.26,5.14 26.17,5.37 58.12,0.02 116.22,-0.02 174.35,0.02 13.75,-0.4 28.62,1.01 41.11,-5.9 12.01,-6.65 18.04,-19.6 24.29,-31.17 11.69,-21.99 23.6,-43.89 35.25,-65.9 -16.51,-0.08 -33.03,0.07 -49.52,-0.1 -3.22,4.44 -5.58,9.58 -9.58,13.39 -3.39,1.69 -7.28,1.46 -10.92,1.57 -31.19,-0.09 -62.38,-0.02 -93.57,-0.04 2.59,-4.65 5.23,-9.27 7.9,-13.89 28.52,-0.15 57.07,0.29 85.59,-0.21 14.47,-0.23 27.63,-8.83 34.6,-21.36 11.73,-20.92 22.93,-42.14 34.41,-63.2 -36.36,0 -72.72,0.02 -109.08,0 2.62,-5.28 5.26,-10.55 7.91,-15.82 27.99,0.04 55.96,0 83.95,0.02 14.46,-0.31 29.25,1.07 43.42,-2.53 12.88,-3.35 21.58,-14.54 27.63,-25.75 9.83,-18.35 19.83,-36.61 29.5,-55.04 -91.49,-0.05 -182.99,0.04 -274.48,-0.04zm307.13 0.1l0 0c-7.24,13.31 -14.62,26.57 -21.79,39.92 4.64,0.9 9.28,1.81 13.91,2.8 -35.94,66.84 -71.78,133.72 -107.6,200.62 -6.19,10.15 -6.84,24.73 2.08,33.52 8.22,8.53 20.85,8.91 31.92,8.99 26.03,-0.12 52.09,0.21 78.12,-0.17 6.94,-13.45 14.62,-26.52 21.59,-39.95 -4.67,-0.8 -9.31,-1.64 -13.92,-2.53 13.87,-25.67 27.53,-51.43 41.45,-77.05 11.65,29.56 23.28,59.14 34.87,88.74 4.1,10.88 12.45,20.17 23.05,25.1 12.12,5.8 25.88,5.59 39,5.84 9.54,-0.42 19.68,-0.36 28.26,-5.21 8.7,-4.54 14.17,-13.12 18.87,-21.42 11.17,-20.44 22.2,-40.94 33.37,-61.38 -16.07,-0.27 -32.13,0.06 -48.18,-0.17 -3.08,-8.43 -6.21,-16.82 -9.29,-25.23 12.68,-5.12 23.04,-14.18 33.96,-22.13 6.33,-4.5 10.87,-10.92 15.5,-17.01 12.8,-17.9 24.06,-36.99 32.53,-57.34 6.42,-15.63 9.98,-33.52 4.75,-50.02 -4.67,-14.9 -20.46,-22.85 -35.05,-24.67 -15.87,-1.71 -31.88,-1.27 -47.8,-1.33 -56.54,0.04 -113.07,-0.07 -169.6,0.08z"/>
   <path class="fil2" d="M1283.87 290.53c1.71,-4.56 5.39,-7.97 8.45,-11.63 1.21,27.2 12.2,54.04 31.57,73.35 -2.81,7.76 -3.14,16.28 -1.32,24.31 8.87,13.14 22.91,21.25 36,29.58 -14.41,-1.19 -28.26,-6.65 -40.37,-14.37 -5.3,-3.16 -8.83,-8.29 -11.9,-13.5 -0.74,-6.55 -0.05,-13.14 1.63,-19.49 -9.1,-9.04 -17.18,-19.75 -19.77,-32.58 0.04,-2.99 0.21,-5.98 0.37,-8.95 -1.21,0.04 -3.62,0.12 -4.83,0.15 -0.67,-8.96 0.34,-17.91 0.17,-26.87zm248.38 394.56c10.99,9.79 23.68,18.01 38.03,21.8 7.26,2.32 14.92,2.44 22.39,3.7 1.38,1.94 2.68,3.93 3.95,5.98 -3.89,5.3 -8.14,11.74 -15.23,12.7 -14.98,2.03 -30.29,2.95 -45.33,0.9 1.32,-0.13 3.95,-0.4 5.25,-0.52 -2.78,-14.9 -6.34,-29.65 -9.06,-44.56zm-453.99 25.73c36.74,-34.81 77.18,-66.03 121.47,-90.67 1.82,6.05 3.7,12.11 5.6,18.14 -37.24,26.48 -66.4,64.92 -79.64,108.85 -4.5,0 -9,0 -13.51,-0.05 0.64,-15.12 3.74,-29.99 8.07,-44.47 -27.09,15.14 -49.37,37.11 -71.48,58.51 -3.69,-2.59 -7.51,-5.02 -11.38,-7.32 12.19,-15.58 26.92,-29 40.87,-42.99zm40.63 -126c23.1,-16.36 46.67,-32.1 71.25,-46.19 -1.23,12.13 -0.27,24.26 0.51,36.36 -0.3,-1.28 -0.9,-3.83 -1.2,-5.11 -11.12,4.88 -21.58,11.09 -32.27,16.78 -64.71,35.58 -126.47,76.54 -184.18,122.63 -5.82,4.86 -11.62,9.75 -18.16,13.64 1.38,-2.17 2.9,-4.27 4.83,-6 50.29,-47.22 103.05,-91.97 159.22,-132.11zm286.46 -74.9c17.93,5.15 33.14,17.77 42.87,33.52 6.84,12 18.43,20.1 29.09,28.43 23.31,17.01 49.25,30.06 75.72,41.4 -3.06,9.41 -4.13,19.71 -0.59,29.18 2.41,7.79 7.36,14.39 12.09,20.92 -21.59,-5.25 -35.65,-26.84 -36.25,-48.37 -32.07,-12.69 -60.34,-33.09 -86.74,-54.95 -28.89,13.78 -64.85,10.21 -90.73,-8.35 22.16,5.42 46.3,4.35 67.18,-5.29 -0.48,-13.29 -7.7,-24.62 -12.64,-36.49zm77.15 -7.82c9.54,0.08 18.44,6.34 25,12.91 6.97,15.58 16.49,30.16 29.35,41.55 20.34,18.22 45.63,30.54 71.99,37.21 11.53,1.11 25.08,-0.96 34.25,7.87 7.3,6.09 7.15,16.27 6.71,24.93 -10.48,5.38 -21.75,9.12 -33.28,11.47 -3.29,15.46 6.23,30.75 18.78,39.06 4.78,-5.25 9.56,-11.43 8.29,-19.06 4.02,4.31 8.68,8.55 10.23,14.47 1.74,4.96 0.02,10.13 -0.02,15.21 0.29,5.49 4.35,9.56 7.84,13.41 -8.07,14.52 -25.6,19.31 -41.13,19.31 -3.61,-9.16 -7.84,-18.49 -15.5,-24.98 -19.02,-0.75 -38.78,-1.92 -56.63,-9.01 6.03,0 12.07,0.21 18.08,0.86 14.66,1.4 29.74,-0.13 43.49,-5.57 -4.6,-6.51 -10.38,-12.39 -13.14,-20 -2.38,-8.99 -8.99,-17.82 -5.52,-27.43 2.59,-6.12 10.02,-5.98 15.6,-6.65 4.63,-0.02 7.24,-4.47 10.42,-7.17 -12.74,-2.95 -25.92,-6.38 -35.94,-15.27 -0.9,3.28 -1.82,6.56 -2.61,9.87 -0.02,-0.9 -0.04,-2.72 -0.04,-3.62 -25.15,-12.61 -48.35,-30.82 -62.14,-55.81 -6.57,-10.63 -8.6,-23.52 -16.29,-33.52 -5.03,-7.45 -11.95,-13.28 -17.79,-20.04zm-226.77 -78.77c29.04,6.97 52.36,27.51 72.22,48.83 4.41,3.54 2.34,9.52 2.82,14.37 0.23,21.26 13.14,39.96 28.56,53.56 -19.84,-7.4 -38.81,-21.32 -45.67,-42.15 -3.01,-6.76 -1.15,-15.07 -5.94,-21.05 -14.92,-20.04 -33.71,-36.69 -51.99,-53.56z"/>
   <path class="fil3" d="M1283.87 290.53c0.17,8.96 -0.84,17.91 -0.17,26.87 1.21,-0.03 3.62,-0.11 4.83,-0.15 -0.16,2.97 -0.33,5.96 -0.37,8.95 -0.69,-2.44 -1.4,-4.87 -2.1,-7.28 -9.05,14 -10.69,31.17 -10.23,47.43 2.93,-8.04 5.3,-16.32 9.21,-23.98 4.98,13.04 10.96,26.15 21.26,35.9 3.07,5.21 6.6,10.34 11.9,13.5 12.11,7.72 25.96,13.18 40.37,14.37 14.65,5.42 29.38,11.23 45.06,13.18 18.37,1.88 36.63,10.29 48.06,25.14 11.55,14.96 16.04,34.35 15.31,53.02 4.94,0.83 9.86,1.98 14.64,3.62l0.86 1c5.84,6.76 12.76,12.59 17.79,20.04 7.69,10 9.72,22.89 16.29,33.52 13.79,24.99 36.99,43.2 62.14,55.81 0,0.9 0.02,2.72 0.04,3.62 -4.4,17.49 2.51,37.03 18.05,46.65 2.76,7.61 8.54,13.49 13.14,20 -13.75,5.44 -28.83,6.97 -43.49,5.57 -6.01,-0.65 -12.05,-0.86 -18.08,-0.86 -7.78,-1.34 -14.94,-4.92 -21.98,-8.33 2,2.26 4.22,4.39 5.85,6.97 2.72,14.91 6.28,29.66 9.06,44.56 -1.3,0.12 -3.93,0.39 -5.25,0.52 -5.06,-0.44 -9.98,-1.69 -14.89,-2.84 -6.34,-18.37 -15.07,-36.16 -27.77,-51.01 -1.54,-1.57 -2.88,-3.55 -4.98,-4.35 -36.08,1.97 -71.29,-9.73 -104.07,-23.7 -25.95,8.14 -54.25,7.78 -80.17,-0.34 -31.84,-9.93 -60.37,-29.06 -83.53,-52.86 -4.94,-4.6 -6.89,-11.24 -9.21,-17.34 -10.48,-29.9 -9.35,-62.53 -3.62,-93.29 -2.26,3.33 -3.83,7.39 -7.19,9.84 -60.32,37.74 -117.72,80.46 -169.81,128.99 -38.12,35.96 -74.04,75.35 -99.69,121.34 8.02,-7.07 15.28,-15.05 23.71,-21.68 6.54,-3.89 12.34,-8.78 18.16,-13.64 57.71,-46.09 119.47,-87.05 184.18,-122.63 10.69,-5.69 21.15,-11.9 32.27,-16.78 0.3,1.28 0.9,3.83 1.2,5.11 0.17,0.77 0.5,2.28 0.67,3.05 -65.11,49.22 -125.36,105.46 -176.02,169.62 -37.64,-1.17 -75.34,-0.19 -113.01,-0.5 -4.27,7.88 -8.58,15.75 -12.91,23.6 -6.97,-7.33 -13.41,-15.44 -22.26,-20.65 5.63,9.48 11.61,18.83 18.64,27.38 -3.87,6.91 -7.6,13.91 -11.42,20.86 -7.12,-4.2 -14.63,-7.85 -22.79,-9.5 6.57,5.06 13.41,9.73 19.73,15.09 -2.82,5.2 -5.61,10.41 -8.53,15.54 -0.95,-0.02 -2.85,-0.06 -3.81,-0.09 -10.06,-26.38 -28.7,-48.63 -50.52,-66.17 10.44,-10.2 22.38,-18.61 34.22,-27.09 -17.97,-0.56 -36.4,4.31 -51.11,14.79l-0.67 0.48c-0.62,-0.67 -1.82,-2 -2.42,-2.65 1.04,-4.81 2.68,-9.46 4.68,-13.96 12.47,-28.66 28.58,-55.79 48.14,-80.2 6.07,-7.7 13.05,-14.63 18.93,-22.49 -11.42,4.89 -21.69,11.96 -31.9,18.93 -29.52,20.79 -55.59,48.05 -69.68,81.72 -22.68,-10.59 -46.49,-18.52 -70.69,-24.84 4.83,-4.62 9.81,-9.08 14.72,-13.6 -12.38,1.93 -25.25,2.91 -36.69,8.44 -15.63,-2.6 -31.36,-5.8 -47.22,-7.27 14.75,-25.47 35.99,-46.5 58.89,-64.7 42.58,-33.29 91.74,-57.09 142.01,-76.42 31.27,-11.84 63.2,-21.9 95.52,-30.48 -34.08,-13.54 -68.18,-27.2 -103.24,-38.06 41.73,-26.92 89.89,-42.76 138.55,-51.36 48.22,-8.24 97.74,-7.65 145.96,0.34 -26.31,-29.04 -58.43,-53.76 -95.39,-67.51 37.88,-14.56 78.8,-19.16 119.1,-20.48 37.76,-0.82 75.54,2.68 112.78,8.97 -1.32,6.62 -0.74,13.39 1.5,19.77 -24.01,25.03 -56.11,40.03 -87.26,54.16 -30.41,14.57 -59.33,32.01 -87.71,50.17 -37.2,24.1 -73.43,49.83 -107.26,78.52 -14.77,12.8 -29.39,25.94 -41.88,41.02 -1.63,1.65 -1.38,4.08 -1.7,6.19 -1.5,16.05 -3.34,32.05 -5.04,48.08 66.44,-80.04 148.14,-147.22 238.76,-198.16 20.88,-12.05 43.5,-20.75 64.06,-33.39 20,-12.3 40.21,-25.86 54.27,-44.98 1.5,-26.83 7.82,-54.2 23.22,-76.63zm-235.1 470.6c22.11,-21.4 44.39,-43.37 71.48,-58.51 -4.33,14.48 -7.43,29.35 -8.07,44.47 -13.75,0.17 -27.53,-0.08 -41.28,0.15 -4.14,7.95 -8.62,15.71 -12.82,23.64 -3.08,-3.28 -6.18,-6.51 -9.31,-9.75zm342.46 -299.43c3.49,1.74 6.92,3.56 10.33,5.48 -1.59,1.15 -3.18,2.31 -4.75,3.46 -2.32,-1.2 -4.64,-2.39 -6.94,-3.58 0.35,-1.34 1.02,-4.02 1.36,-5.36zm-33.56 0.74c0.13,-3.12 0.49,-6.22 1.11,-9.27 5.3,0.75 10.65,1.61 15.9,2.88 -1.17,2.06 -2.36,4.11 -3.55,6.15 -4.31,-0.54 -8.65,-0.9 -12.91,0.15l-0.55 0.09zm-305.01 -100.32l0 0c7.17,4.46 14.79,8.22 21.78,12.99 18.34,11.85 34.07,27.3 47.3,44.57 -2.07,-16.91 -9.36,-32.54 -18.5,-46.74 26.63,-7.41 54.48,-9.31 82.03,-8.98 8.51,-0.2 17.05,0.86 25.56,-0.21 -24.87,-7.94 -51.29,-9.62 -77.23,-10.27 -27.12,0.23 -54.54,2.12 -80.94,8.64zm267.11 56.86l0 0c0.31,14.42 10.64,26.01 22.53,32.91 -3.81,16.21 7.61,31.59 22.19,37.45 18,7.99 38.2,0.9 54.54,-7.85 10.09,1.62 17.64,9.02 24.06,16.43 -5.4,-17.03 -16.27,-32.37 -31,-42.58 -10.99,-7.07 -23.6,-14.26 -37.16,-12.38 -20.67,0.02 -40.94,-9.06 -55.16,-23.98zm-64.04 4.35l0 0c18.28,16.87 37.07,33.52 51.99,53.56 4.79,5.98 2.93,14.29 5.94,21.05 6.86,20.83 25.83,34.75 45.67,42.15 -15.42,-13.6 -28.33,-32.3 -28.56,-53.56 -0.48,-4.85 1.59,-10.83 -2.82,-14.37 -19.86,-21.32 -43.18,-41.86 -72.22,-48.83zm-381.94 46.2l0 0c4.16,2.03 8.47,3.78 12.83,5.35 22.02,8.14 43.03,18.66 63.66,29.79 -4.52,-14.04 -13.41,-26.15 -23.89,-36.36 34.01,-9.07 68.8,-15.23 103.88,-18.34 9.08,-0.92 18.29,-0.57 27.26,-2.47 -24.7,-5.23 -50.12,-6.19 -75.29,-5.04 -37.32,2.3 -74.85,10.33 -108.45,27.07zm531.56 40.39l0 0c4.94,11.87 12.16,23.2 12.64,36.49 -20.88,9.64 -45.02,10.71 -67.18,5.29 25.88,18.56 61.84,22.13 90.73,8.35 26.4,21.86 54.67,42.26 86.74,54.95 0.6,21.53 14.66,43.12 36.25,48.37 -4.73,-6.53 -9.68,-13.13 -12.09,-20.92 -3.54,-9.47 -2.47,-19.77 0.59,-29.18 -26.47,-11.34 -52.41,-24.39 -75.72,-41.4 -10.66,-8.33 -22.25,-16.43 -29.09,-28.43 -9.73,-15.75 -24.94,-28.37 -42.87,-33.52zm-567 53.2l0 0c-53.49,16.11 -106.56,39.6 -147.21,78.87 -8.68,8.81 -17.45,17.87 -23.54,28.73 23.52,-10.03 48.98,-14.96 74.54,-15.05 -5.59,-7.86 -15.96,-9.29 -24.47,-12.28 5.68,-6.5 12.61,-11.73 19.22,-17.23 33.53,-26.61 71.38,-47.68 111.46,-62.66 7.07,-2.74 14.44,-4.64 21.34,-7.78 -10.81,0.6 -20.98,4.68 -31.34,7.4z"/>
   <path class="fil4" d="M1173.2 855.71c4.98,-1.92 10.79,-0.52 16.09,-0.73 12.8,1 25.69,-0.46 38.45,1.07 -1.44,10.17 -6.34,19.33 -10.57,28.53 -11.67,23.62 -24.07,46.9 -37.74,69.41 -6.13,9.56 -12.17,19.52 -20.94,26.89 -4.74,4.22 -11.44,3.72 -17.34,3.85 -12.4,-0.09 -24.79,0.04 -37.2,-0.07 23.06,-42.99 45.88,-86.15 69.25,-128.95zm-321.65 -66.86c8.16,1.65 15.67,5.3 22.79,9.5 -0.76,1.4 -2.29,4.2 -3.06,5.59 -6.32,-5.36 -13.16,-10.03 -19.73,-15.09zm15.57 -38.74c8.85,5.21 15.29,13.32 22.26,20.65 -1.2,2.23 -2.43,4.47 -3.62,6.73 -7.03,-8.55 -13.01,-17.9 -18.64,-27.38zm-75.59 -9.19c14.71,-10.48 33.14,-15.35 51.11,-14.79 -11.84,8.48 -23.78,16.89 -34.22,27.09 -5.51,-4.26 -11.15,-8.36 -16.89,-12.3zm-125.58 -48.17c11.44,-5.53 24.31,-6.51 36.69,-8.44 -4.91,4.52 -9.89,8.98 -14.72,13.6 -7.31,-1.76 -14.69,-3.3 -21.97,-5.16zm162.34 -51.72c10.21,-6.97 20.48,-14.04 31.9,-18.93 -5.88,7.86 -12.86,14.79 -18.93,22.49 -19.56,24.41 -35.67,51.54 -48.14,80.2 -2,4.5 -3.64,9.15 -4.68,13.96 -9.82,-5.57 -19.61,-11.19 -29.83,-16 14.09,-33.67 40.16,-60.93 69.68,-81.72zm10.06 -77.91c10.36,-2.72 20.53,-6.8 31.34,-7.4 -6.9,3.14 -14.27,5.04 -21.34,7.78 -40.08,14.98 -77.93,36.05 -111.46,62.66 -6.61,5.5 -13.54,10.73 -19.22,17.23 8.51,2.99 18.88,4.42 24.47,12.28 -25.56,0.09 -51.02,5.02 -74.54,15.05 6.09,-10.86 14.86,-19.92 23.54,-28.73 40.65,-39.27 93.72,-62.76 147.21,-78.87zm35.44 -93.59c33.6,-16.74 71.13,-24.77 108.45,-27.07 25.17,-1.15 50.59,-0.19 75.29,5.04 -8.97,1.9 -18.18,1.55 -27.26,2.47 -35.08,3.11 -69.87,9.27 -103.88,18.34 10.48,10.21 19.37,22.32 23.89,36.36 -20.63,-11.13 -41.64,-21.65 -63.66,-29.79 -4.36,-1.57 -8.67,-3.32 -12.83,-5.35zm178.87 -107.41c26.4,-6.52 53.82,-8.41 80.94,-8.64 25.94,0.65 52.36,2.33 77.23,10.27 -8.51,1.07 -17.05,0.01 -25.56,0.21 -27.55,-0.33 -55.4,1.57 -82.03,8.98 9.14,14.2 16.43,29.83 18.5,46.74 -13.23,-17.27 -28.96,-32.72 -47.3,-44.57 -6.99,-4.77 -14.61,-8.53 -21.78,-12.99zm223.17 4.23c-0.46,-16.26 1.18,-33.43 10.23,-47.43 0.7,2.41 1.41,4.84 2.1,7.28 2.59,12.83 10.67,23.54 19.77,32.58 -1.68,6.35 -2.37,12.94 -1.63,19.49 -10.3,-9.75 -16.28,-22.86 -21.26,-35.9 -3.91,7.66 -6.28,15.94 -9.21,23.98zm-945.79 373.92c72.5,-19.99 147.96,-28.03 223.04,-27.63 39.27,0.61 78.6,4.52 116.93,13.28 34.37,7.95 68.3,19.44 98.7,37.62 24.91,15.08 47.91,35.67 59.41,62.99 11.51,26.9 9.33,58.11 -1.61,84.83 -13.6,33.87 -38.33,61.97 -65.83,85.4 -48.22,40.37 -106.17,67.25 -165.5,86.9 13.37,27.36 34.64,50 57.74,69.49 18.74,15.61 39.28,28.94 60.6,40.74 20.08,-36.8 40.02,-73.7 60.04,-110.53 368.18,0.01 736.35,-0.02 1104.52,0.01 -16.48,30.2 -33.01,60.37 -49.51,90.56 -10.34,16.76 -26.32,30.98 -45.74,35.88 -11.19,2.99 -22.84,2.32 -34.29,2.38 -332.65,0 -665.3,-0.02 -997.95,0 76.53,33.49 159.9,48.56 242.9,53.91 133.85,7.68 268.05,-7.84 399.33,-33.43 -28.93,25.08 -62.91,43.58 -97.64,59.27 -74.36,32.8 -154.01,52.07 -234.19,63.93 -74.82,10.56 -150.86,14.96 -226.21,8.01 -88.01,-8.68 -175.36,-32.8 -252.32,-77.03 -72.18,-41.14 -133.47,-100.81 -176.88,-171.62 -18.77,34.6 -35.92,70.33 -59.25,102.21 16.68,0.06 33.39,-0.06 50.08,0.07 -25.56,19.7 -50.1,40.89 -77.69,57.78 -32.37,20.23 -67.45,36.06 -103.75,47.78 -43.93,14.5 -89.6,22.72 -135.24,29.54 51.11,-41.43 88.82,-96.57 120.94,-153.37 22.92,-40.39 42.51,-82.51 64.01,-123.66 18.96,-36.54 37.8,-73.2 58.95,-108.55 -40.35,16.75 -85.12,25.37 -128.63,18.55 -20.92,-3.43 -41.93,-13.41 -54.14,-31.35 -9.78,-13.67 -12.85,-31.41 -9.86,-47.81 2.99,-15.92 10.57,-30.71 20.36,-43.51 15.71,-20.78 35.73,-37.87 56.86,-52.89 -8.45,-0.98 -16.88,-2.24 -25.32,-3.41 15.28,-9.18 30.48,-18.49 45.9,-27.44 31.99,-17.07 66.4,-29.12 101.24,-38.9zm-58 28.41l0 0c-16.86,6.8 -33.59,14.21 -49.03,23.9 -4.48,2.86 -9.63,4.91 -13.18,9.03 7.24,1.11 14.52,1.87 21.73,3.24 -29.07,18.44 -57.23,39.9 -77.06,68.46 -11.14,16.12 -18.87,36.19 -15.01,56 3.06,17.8 16.47,32.43 32.41,40.08 18.93,9.12 40.5,10.3 61.17,9.88 39.75,-1.57 78.62,-13.77 113.26,-33.08 -25.58,41.09 -48.41,83.79 -70.6,126.8 -35.48,67.76 -67.47,137.86 -112.41,200.14 -16.5,23.52 -35.39,45.23 -54.89,66.28 57.51,-6.57 113.41,-24.54 165.54,-49.48 35.14,-16.78 67.41,-38.89 97.34,-63.72 -14.16,-0.32 -28.32,0.02 -42.47,-0.19 32.01,-38.68 52.05,-85.12 76.7,-128.39 31.61,54.41 72.86,103.43 122.59,142.15 58.85,46.24 128.38,77.81 200.69,96.24 85.08,21.71 173.82,26.48 261.16,20.08 76.34,-5.82 152.15,-19.85 225.27,-42.68 37.74,-11.98 75.02,-26.06 109.73,-45.27 9.07,-5.33 18.43,-10.4 26.15,-17.65 -72.18,10.71 -144.63,20.27 -217.57,24.03 -85.27,4.61 -171.4,2.76 -255.52,-13.01 -70.11,-13.18 -139.14,-37.07 -198.53,-77.26 -23.69,-16.11 -45.97,-34.51 -65.3,-55.69 -12.8,-15.12 -22.88,-32.3 -31.96,-49.85 67.68,-21.02 134.18,-51.71 186.4,-100.6 24.54,-23.58 46.06,-52.01 54.95,-85.34 6.91,-25.42 4.06,-53.87 -10.46,-76.19 -20.18,-31.65 -54.12,-51.23 -88.17,-64.85 -70.27,-27.32 -146.97,-33.22 -221.69,-29.48 -78.75,3.85 -157.7,17.37 -231.24,46.42zm504.54 330.33l0 0c-17.58,33.62 -35.84,66.89 -53.29,100.57 348.74,0.31 697.48,0.04 1046.22,0.14 20.46,0.4 38.89,-12.86 48.8,-30.14 13.77,-24.56 27.51,-49.15 41.3,-73.73 -358.91,-0.12 -717.85,0.02 -1076.76,-0.06 -2.7,-0.4 -5.46,0.34 -6.27,3.22zm144.49 -320.76c26.13,0.06 52.26,0.02 78.41,0.02 9.08,0.2 18.91,0.2 26.82,5.37 8.6,5.19 12.51,16.24 10.44,25.88 -1.9,9.06 -6.93,16.95 -11.17,25.04 -33.29,62.32 -66.7,124.6 -99.96,186.95 4.62,0.87 9.25,1.75 13.89,2.73 -7.2,13.35 -14.52,26.64 -21.78,39.98 -27.03,-0.08 -54.07,0.04 -81.12,-0.06 -9.94,-0.15 -21.09,-1.23 -28.35,-8.85 -7.01,-6.76 -8.08,-17.57 -5.25,-26.5 2.19,-6.74 5.9,-12.83 9.14,-19.1 33.62,-62.93 67.38,-125.78 100.9,-188.77 -4.61,-0.9 -9.23,-1.77 -13.85,-2.65 7.24,-13.37 14.47,-26.76 21.88,-40.04zm-8.37 33.72l0 0c4.21,0.98 8.46,1.8 12.76,2.61 -0.65,1.84 -1.38,3.64 -2.21,5.4 -35.92,66.99 -71.51,134.14 -107.37,201.17 -3.66,6.96 -7.63,15.17 -4.62,23.1 2.78,7.94 11.93,10.71 19.58,10.83 27.32,0 54.65,0.08 81.97,-0.06 4.49,-7.95 8.55,-16.13 13.39,-23.89 -4.21,-1.67 -8.68,-2.54 -13.1,-3.27 1.92,-4.62 4.23,-9.03 6.69,-13.36 34.69,-65.02 69.31,-130.09 104,-195.11 3.58,-6.88 6.97,-15.48 2.95,-22.9 -4.12,-7.62 -13.54,-9.35 -21.44,-9.15 -26.22,0.21 -52.49,-0.27 -78.69,0.23 -5.85,7.22 -9.33,16.28 -13.91,24.4zm177.07 -33.73c58.03,0.09 116.05,0.01 174.08,0.05 17.28,0.35 34.93,-0.84 51.82,3.37 14.89,3.59 26.73,16.56 29.18,31.63 2.99,17.4 -2.01,34.89 -7.76,51.19 -14.52,38.83 -34.94,75.08 -55.78,110.81 -14.49,23.66 -29.7,47.83 -51.85,65.11 -15.34,12.17 -33.96,20.37 -53.52,22.38 -17.22,1.71 -34.58,1.4 -51.86,1.42 -36.44,0 -72.89,-0.02 -109.33,0.02 -12.59,-0.19 -27.05,1.09 -37.22,-7.84 -9.47,-7.95 -10,-22.39 -4.45,-32.74 36.15,-67.59 72.44,-135.08 108.62,-202.63 -4.63,-0.93 -9.27,-1.84 -13.88,-2.81 7.31,-13.32 14.52,-26.71 21.95,-39.96zm2.34 13.58l0 0c-3.61,6.72 -7.42,13.33 -10.73,20.21 4.31,0.88 8.66,1.69 13.03,2.45 -2.3,6.48 -5.94,12.34 -9.12,18.37 -34.39,64.03 -68.68,128.07 -103.07,192.09 -3.83,6.61 -5.92,15.54 -1.38,22.32 4.6,6.52 13.22,7.95 20.65,7.86 54.87,-0.18 109.75,0.19 164.62,-0.19 26.75,-0.48 52.11,-13.3 70.35,-32.51 22.09,-23.15 37.43,-51.56 53.18,-79.14 17.13,-31.17 34.18,-62.86 44.14,-97.17 3.89,-14.87 6.57,-33.03 -4.2,-45.71 -8.66,-11.13 -23.83,-12.74 -36.93,-13.01 -65.25,-0.02 -130.5,-0.05 -195.73,0.02 -2.82,-0.61 -3.59,2.7 -4.81,4.41zm313.8 -13.57c91.49,0.08 182.99,-0.01 274.48,0.04 -9.67,18.43 -19.67,36.69 -29.5,55.04 -6.05,11.21 -14.75,22.4 -27.63,25.75 -14.17,3.6 -28.96,2.22 -43.42,2.53 -27.99,-0.02 -55.96,0.02 -83.95,-0.02 -2.65,5.27 -5.29,10.54 -7.91,15.82 36.36,0.02 72.72,0 109.08,0 -11.48,21.06 -22.68,42.28 -34.41,63.2 -6.97,12.53 -20.13,21.13 -34.6,21.36 -28.52,0.5 -57.07,0.06 -85.59,0.21 -2.67,4.62 -5.31,9.24 -7.9,13.89 31.19,0.02 62.38,-0.05 93.57,0.04 3.64,-0.11 7.53,0.12 10.92,-1.57 4,-3.81 6.36,-8.95 9.58,-13.39 16.49,0.17 33.01,0.02 49.52,0.1 -11.65,22.01 -23.56,43.91 -35.25,65.9 -6.25,11.57 -12.28,24.52 -24.29,31.17 -12.49,6.91 -27.36,5.5 -41.11,5.9 -58.13,-0.04 -116.23,0 -174.35,-0.02 -8.91,-0.23 -18.43,-0.38 -26.17,-5.37 -8.13,-4.81 -12.32,-15.02 -10.81,-24.19 1.15,-8.12 5.31,-15.35 9.16,-22.45 34.25,-63.72 68.33,-127.52 102.63,-191.19 -4.7,-0.92 -9.37,-1.81 -14.03,-2.78 7.36,-13.32 14.58,-26.69 21.98,-39.97zm-8.41 33.76l0 0c4.29,0.9 8.6,1.74 12.93,2.55 -1.77,4.58 -4.1,8.91 -6.46,13.18 -34.67,64.92 -69.44,129.77 -104.22,194.64 -3.44,6.74 -7.14,14.77 -3.94,22.33 3.2,7.63 12.1,10.41 19.77,10.35 65.77,0.08 131.53,-0.04 197.3,0.06 7.89,0.02 16.21,-0.92 22.99,-5.29 7.74,-5.21 12.34,-13.62 16.63,-21.67 10.27,-19.46 20.98,-38.71 31.03,-58.31 -10.02,0 -20.04,-0.02 -30.04,0.02 -2.91,4 -5.32,8.52 -9.19,11.68 -4.75,3.2 -10.77,3.03 -16.25,3.18 -35.96,-0.11 -71.91,0.04 -107.87,-0.07 4.61,-8.93 9.69,-17.61 14.38,-26.48 1.25,-2.09 2.48,-5.29 5.6,-4.6 29.39,-0.3 58.83,0.44 88.22,-0.36 11.61,-0.31 21.67,-7.74 27.14,-17.7 9.14,-16.33 17.99,-32.8 26.77,-49.33 -36.15,-0.56 -72.3,0.4 -108.43,-0.46 5.4,-11.11 11.16,-22.03 16.8,-33.01 34.19,-0.5 68.41,-0.08 102.6,-0.21 10.87,-0.23 22.48,1.34 32.55,-3.76 8.05,-3.92 13.03,-11.78 17.28,-19.33 7.61,-13.92 14.97,-27.98 22.63,-41.89 -84.83,-0.25 -169.7,-0.29 -254.53,0.02 -5.46,7.54 -9.16,16.32 -13.69,24.46zm315.54 -33.66c56.53,-0.15 113.06,-0.04 169.6,-0.08 15.92,0.06 31.93,-0.38 47.8,1.33 14.59,1.82 30.38,9.77 35.05,24.67 5.23,16.5 1.67,34.39 -4.75,50.02 -8.47,20.35 -19.73,39.44 -32.53,57.34 -4.63,6.09 -9.17,12.51 -15.5,17.01 -10.92,7.95 -21.28,17.01 -33.96,22.13 3.08,8.41 6.21,16.8 9.29,25.23 16.05,0.23 32.11,-0.1 48.18,0.17 -11.17,20.44 -22.2,40.94 -33.37,61.38 -4.7,8.3 -10.17,16.88 -18.87,21.42 -8.58,4.85 -18.72,4.79 -28.26,5.21 -13.12,-0.25 -26.88,-0.04 -39,-5.84 -10.6,-4.93 -18.95,-14.22 -23.05,-25.1 -11.59,-29.6 -23.22,-59.18 -34.87,-88.74 -13.92,25.62 -27.58,51.38 -41.45,77.05 4.61,0.89 9.25,1.73 13.92,2.53 -6.97,13.43 -14.65,26.5 -21.59,39.95 -26.03,0.38 -52.09,0.05 -78.12,0.17 -11.07,-0.08 -23.7,-0.46 -31.92,-8.99 -8.92,-8.79 -8.27,-23.37 -2.08,-33.52 35.82,-66.9 71.66,-133.78 107.6,-200.62 -4.63,-0.99 -9.27,-1.9 -13.91,-2.8 7.17,-13.35 14.55,-26.61 21.79,-39.92zm4.98 9.08l0 0c-4.48,8.16 -9.05,16.27 -13.37,24.5 4.52,0.92 9.02,1.82 13.56,2.76 -35.25,66.67 -71.25,132.95 -106.76,199.47 -3.42,6.74 -7.99,13.05 -9.56,20.55 -1.54,6.69 1.78,14.51 8.12,17.46 6.63,3.54 14.33,2.93 21.59,2.95 24.19,-0.06 48.41,-0.04 72.62,0 4.93,-7.97 9.16,-16.32 13.63,-24.54 -4.45,-0.98 -8.91,-1.96 -13.34,-2.97 18.39,-34.49 36.44,-69.16 55.42,-103.3 12.61,30.19 23.99,60.9 36.17,91.27 4.22,10 6.84,21.43 15.39,28.85 9.82,8.94 23.73,11.11 36.57,10.69 10.25,-0.35 21.2,1.36 30.76,-3.35 8.99,-4.3 13.7,-13.61 18.32,-21.9 8.06,-15.08 16.47,-29.96 24.33,-45.14 -12.91,-0.13 -25.83,0.1 -38.72,-0.11 -5.75,-12.86 -10.53,-26.11 -15.09,-39.41 31.28,-8.45 53.06,-34.83 69,-61.53 9.35,-15.94 17.7,-32.8 21.65,-50.94 2.28,-12.38 1.65,-27.09 -8.1,-36.27 -9.03,-7.85 -21.77,-8.9 -33.2,-9.12 -66.33,0.08 -132.67,-0.05 -198.99,0.08zm-1323.89 11.92c48.37,-11.25 97.87,-17.63 147.49,-19.16 30.57,-1.48 61.78,1.65 90.59,12.38 19.7,7.62 38.99,19.48 49.91,38.14 8.68,14.5 9.94,32.64 4.92,48.64 -6.99,23.83 -24.19,42.91 -42.47,58.96 -37.8,32.02 -83.95,53.32 -131.84,65.24 -19.43,4.52 -39.22,8.06 -59.2,8.52 22.26,-41.63 48.3,-81.28 78.15,-117.87 29.27,-35.68 62.33,-68.59 100.55,-94.68 -67.89,-8.99 -136.45,8.24 -198.43,35.31 -39.87,18 -78.91,39.75 -110.67,70.21 17.97,0.34 35.94,0.02 53.91,0.15 -3.64,6.13 -8.87,11.09 -13.03,16.88 -3.24,4.87 -8.95,6.86 -14.08,9 -24.75,9.54 -52.65,8.49 -77.78,1.06 -12.78,-3.97 -26.8,-9.64 -32.95,-22.47 -5,-9.2 -1.88,-20.18 3.51,-28.42 10.03,-15.32 25.15,-26.36 40.26,-36.22 34.14,-21.29 71.83,-37.09 111.16,-45.67zm-19.01 13.69l0 0c-26.61,7.69 -52.14,18.95 -76.23,32.59 -17.22,10.06 -34.5,21.21 -46.91,37.13 -4.43,6.49 -9.39,15.11 -5.12,22.91 4.62,9.89 15.35,14.21 25.04,17.51 21.52,6.88 45.12,8.37 67.03,2.47 7.47,-2.57 16.04,-4.75 20.69,-11.72 -20.32,-0.31 -40.67,0 -60.99,-0.16 21.62,-17.91 42.22,-37.3 66.24,-52.07 62.74,-39.27 134.12,-66.03 208.11,-72.64 -7.34,-0.44 -14.67,-1.02 -22.01,-0.5 -59.29,1.23 -118.53,9.12 -175.85,24.48zm182.23 64.7l0 0c-34.29,37.99 -63.64,80.27 -88.84,124.77 57.65,-6.49 114.11,-27.45 160.52,-62.51 17.57,-13.7 34.22,-29.66 44.39,-49.73 6.97,-13.81 10.67,-30.29 5.6,-45.33 -6.04,-18.47 -22.23,-31.69 -39.32,-39.65 -30.84,19.92 -57.72,45.38 -82.35,72.45zm1240.94 -25.27c19.06,0.42 38.18,-0.75 57.2,0.73 -3.5,15.09 -13.29,33.03 -30.48,34.64 -15.19,0.32 -30.38,0.03 -45.57,0.09 5.71,-12.11 12.26,-23.81 18.85,-35.46zm4.4 9.33l0 0c-2.79,5.98 -6.05,11.72 -9.21,17.49 10.63,-0.13 21.28,0.42 31.9,-0.23 9.13,-1.3 14.17,-10.1 18.33,-17.39 -13.68,-0.02 -27.36,-0.29 -41.02,0.13zm-684.24 114.25l0 0c9.46,-0.09 18.96,0.27 28.45,-0.11 6.41,0.11 10.21,-5.73 13.9,-10.08 11.23,-14.77 19.99,-31.2 28.97,-47.39 9.56,-17.84 19.31,-35.65 26.96,-54.43 -12.61,-0.34 -25.25,0.59 -37.82,-0.65 -20.35,37.45 -40.35,75.1 -60.46,112.66z"/>
   <path class="fil5" d="M1381.33 457.14c2.54,0.9 5.11,1.8 7.68,2.72 -1.63,5.82 -7.26,7.74 -12.74,7.7 2.39,-3.09 4.71,-6.36 5.06,-10.42zm-643.75 733.44c15.73,-28.56 31.4,-57.15 47.15,-85.67 353.24,0 706.5,-0.02 1059.75,0 -11.42,20.73 -22.84,41.43 -34.28,62.14 -7.81,13.76 -22.49,24.03 -38.7,23.59 -344.64,-0.04 -689.28,0.09 -1033.92,-0.06zm457.79 -61.82l0 0c-8.01,9.42 -14.76,20.29 -17.99,32.3 -1.9,5.74 2.01,11.22 7.35,13.1 3.95,9.04 15.02,9.25 23.43,9.68 16.04,0.26 34.87,0.02 46.44,-12.9 8.18,-9.58 15.21,-20.67 18.51,-32.91 1.89,-5.75 -1.98,-11.36 -7.59,-12.7 -1.17,-3.58 -3.87,-6.65 -7.57,-7.64 -9.29,-2.86 -19.14,-2.34 -28.71,-2.13 -12.23,0.54 -25.68,3.31 -33.87,13.2zm-336.79 -11.99l0 0c1.01,1.05 3.04,3.12 4.06,4.17 -7.03,13.03 -14.23,25.96 -21.34,38.93 -2.55,4.69 -5.63,9.18 -6.98,14.41 3.45,0.59 6.96,1.13 10.5,1.07 -0.82,2.2 -1.63,4.42 -2.43,6.65 13.28,2.1 26.8,0.46 40.17,0.97 8.99,-0.34 19.49,1.77 26.92,-4.65 7.2,-6.51 13.2,-15.38 13.64,-25.35 -1.78,-1.34 -3.53,-2.68 -5.31,-3.98 7.91,-2.49 13.3,-10.44 14.2,-18.47 -0.6,-4.08 -4.73,-5.27 -8.01,-6.47 -0.46,-8.22 -10.48,-7.8 -16.47,-7.69 -16.31,0.31 -32.65,-0.44 -48.95,0.41zm167.57 -0.02l0 0c1.45,1.36 2.93,2.72 4.42,4.1 -8.83,16.76 -18.41,33.12 -27.16,49.92 -0.17,0.94 -0.5,2.86 -0.65,3.81 3.37,0.37 6.76,0.71 10.19,0.71 -1.02,2.24 -1.82,4.56 -2.28,7.01 10.86,0.83 22.01,1.56 32.8,-0.3 -1.08,-0.94 -3.24,-2.84 -4.31,-3.8 2.7,-5.07 5.45,-10.15 8.42,-15.07 0.79,3.66 1.65,7.32 2.48,11.01 2.12,0.65 4.31,1.06 6.53,1.23 1.03,2.43 0.46,6.74 3.81,7.39 7.13,0.27 14.48,0.92 21.5,-0.67 3.44,-3.18 5.09,-7.76 7.22,-11.84 -1.57,-0.11 -4.75,-0.36 -6.34,-0.48 -0.67,-1.26 -2.01,-3.81 -2.7,-5.07l1.01 -1.82 -1.32 -0.19c-0.65,-1.71 -1.28,-3.41 -1.92,-5.08 12.8,-2.09 23.51,-12.59 25.67,-25.36 0.33,-4.74 -3.83,-7.34 -7.89,-8.07 -0.32,-5.13 -5.19,-8.1 -10,-7.72 -19.83,0.04 -39.67,-0.42 -59.48,0.29zm340.81 0.05l0 0c1.44,1.35 2.89,2.71 4.37,4.07 -9.52,17.35 -18.95,34.79 -28.66,52.07 2.97,2.85 7.26,2.2 11.03,2.39 -1.07,2.24 -1.99,4.56 -2.43,7.03 9.46,0.98 19.02,0.86 28.5,0.15 -1.01,-1.11 -3.06,-3.29 -4.1,-4.38 3.03,-5.88 6.21,-11.69 9.66,-17.34 2.51,5.25 1.9,15.71 10.21,14.54 0.65,2.34 1.51,4.62 2.57,6.84 7.34,1.72 15.04,0.59 22.53,0.57 9.06,-17.28 18.71,-34.27 28.06,-51.4 1.25,-2.16 1.82,-4.5 1.71,-6.99 -3.37,-0.15 -6.71,-0.25 -10.04,-0.34 1.28,-2.23 1.88,-4.73 2.3,-7.22 -9.33,-0.6 -18.68,-0.62 -27.99,-0.02 1,1.03 2.99,3.1 3.98,4.13 -2.18,4.2 -4.46,8.34 -6.82,12.46 -2.06,-2.71 -3.31,-5.85 -4.38,-9.01 -1.36,-0.07 -4.1,-0.25 -5.46,-0.32 -0.81,-2.51 -1.61,-4.98 -2.42,-7.46 -10.88,-0.19 -21.76,-0.51 -32.62,0.23zm163.81 23.84l0 0c-4.02,7.68 -9.02,15.3 -10.26,24.04 -0.96,5.06 3.4,8.96 7.96,9.98 1.67,7.7 10.33,8.49 16.77,8.72 10.69,-0.02 21.47,0.59 32.14,-0.42 8.45,-0.98 10.92,-10.41 14.37,-16.75 -4.77,1.48 -9.18,4.2 -14.31,4.2 2.2,-3.84 4.18,-7.78 6.15,-11.73 -3.51,0.46 -6.44,2.44 -9.71,3.53 -4.72,0.4 -9.45,0.21 -14.14,0.27 4.44,-8.32 8.35,-17.26 14.96,-24.1 7.91,-4.62 17.59,-1.02 26.19,-2.74 4.08,-2.51 5.33,-7.71 7.72,-11.57 -4.12,0.43 -8.89,-1.17 -12.57,0.95 1.52,-2.85 2.93,-5.78 4.49,-8.64 -14.58,0.46 -29.22,-0.82 -43.72,0.69 -12.67,1.82 -20.25,13.3 -26.04,23.57zm163.61 -0.67l0 0c-1.06,4.82 4.06,7.26 7.7,8.87 1.36,6.59 9.06,6.85 13.16,10.99 -3.83,2.36 -8.45,2.01 -12.72,2.11 -6.69,-0.25 -14.41,1.59 -19.37,-4.12 -3.85,4.29 -6.09,9.64 -8.56,14.79 2.76,2.24 6.21,2.8 9.67,2.68 -0.17,1.67 -0.55,5 -0.74,6.67 9.38,1.93 19.02,0.65 28.52,1.03 9.46,0.04 20.17,0.66 27.86,-5.95 6.32,-5.69 11.62,-13.3 13,-21.84 -0.25,-4.33 -4.81,-5.54 -7.89,-7.42 -1.28,-6.82 -9.23,-7.49 -14.5,-9.71 8.43,-4.27 17.97,-1.59 26.93,-2.82 4.49,-1.84 5.56,-7.41 7.97,-11.13 -3.81,-0.07 -7.58,-0.09 -11.36,-0.07l-1.57 1.18c1.75,-2.85 3.2,-5.86 4.77,-8.81 -12.49,0.02 -24.98,-0.09 -37.45,0.02 -13.01,-0.02 -22.26,12.03 -25.42,23.53zm-594.73 -343.88c59.85,-0.23 119.7,-0.04 179.55,-0.1 11.4,0.04 23.18,-0.46 34.18,3.09 9.48,3.01 14.94,12.99 15.13,22.55 0.38,13.08 -3.87,25.73 -8.12,37.93 -13.24,35.23 -31.67,68.22 -50.45,100.75 -12.81,21.53 -25.95,43.45 -44.4,60.69 -12.34,11.24 -27.3,20.11 -43.82,23.33 -13.96,2.84 -28.25,2.05 -42.39,2.15 -46,0.02 -91.99,-0.02 -138.01,0.02 -4.33,-0.02 -8.97,-0.46 -12.55,-3.11 -2.97,-3.37 -2.07,-8.43 0.04,-11.95 33.72,-63.3 67.61,-126.5 101.53,-189.68 4.24,-8.64 9.78,-16.68 13.03,-25.75 2.34,-5.8 -3.98,-9.75 -8.83,-10.57 1.74,-3.09 3.45,-6.21 5.11,-9.35zm10.14 8.12l0 0c2.3,6.44 2.83,13.58 -0.82,19.66 -37.05,69.64 -74.72,138.97 -111.69,208.64 -2.95,3.99 1.88,6.63 5.53,6 34.7,-65.06 69.66,-129.97 104.43,-194.99 5.25,-10.17 12.2,-20.02 12.87,-31.86 48.57,-0.61 97.17,-0.07 145.74,-0.26 17.74,0.32 35.9,-1.48 53.14,3.75 -1.38,-3.58 -3.79,-6.9 -7.59,-8.06 -9.69,-3.47 -20.19,-2.88 -30.31,-3.01 -57.08,0.13 -114.19,-0.12 -171.3,0.13zm58.58 42.03l0 0c-26.53,49.1 -52.83,98.3 -79.1,147.54 20.46,-0.27 40.98,0.7 61.42,-0.79 12.03,-0.84 19.91,-11.21 26.55,-20.1 13.32,-18.66 23.97,-39.02 34.79,-59.17 8.24,-15.73 16.8,-31.44 22.51,-48.3 1.53,-5.17 3.43,-12.66 -2.11,-16.15 -7.35,-4.1 -16.18,-2.03 -24.19,-2.49 -13.28,-0.69 -26.57,-0.44 -39.87,-0.54zm76.25 5.18l0 0c-0.48,6.87 -1,13.89 -3.62,20.36 -7.24,18.74 -16.9,36.4 -26.32,54.1 -10.52,19.16 -20.79,38.6 -34.1,56.02 -7.15,9.27 -16.65,18.31 -28.97,19.12 -23.08,1.78 -46.27,0.3 -69.39,1.13 -0.92,2.3 -1.82,4.63 -2.7,6.95 20.54,0.27 41.09,0.04 61.63,0.14 11.53,-0.14 24.48,-0.22 33.47,-8.59 14.81,-13.23 24.23,-31.11 34.23,-47.99 13.03,-23.77 26.59,-47.37 36.63,-72.62 3.33,-9.01 6.38,-20.65 -0.86,-28.62zm-313.61 -55.41c24.75,-0.05 49.49,0.02 74.24,-0.05 4.54,0.02 9.56,0.28 13.18,3.42 3,5.18 0.05,11.29 -2.36,16.12 -33.2,61.97 -66.3,123.98 -99.46,185.96 -4.16,8.56 -9.81,16.47 -12.76,25.55 -2.07,6.06 4.38,8.8 9,10.04 -1.82,3.11 -3.54,6.27 -5.27,9.43 -24.29,0.02 -48.56,-0.04 -72.85,0.04 -4.89,-0.04 -10.33,-0.02 -14.26,-3.38 -3.87,-5.34 0.18,-11.7 2.48,-16.78 35.13,-65.63 70.23,-131.26 105.34,-196.9 2.76,-5.48 6.71,-10.76 6.88,-17.14 -0.96,-4.41 -5.61,-5.5 -9.22,-6.84 1.71,-3.14 3.38,-6.31 5.06,-9.47zm9.62 8.24l0 0c3.43,6.71 3.08,14.41 -0.9,20.81 -34.96,65.4 -69.91,130.82 -104.95,196.19 -2.54,4.88 -5.53,9.59 -7.14,14.88 1.11,2.88 4.42,1.88 6.82,2.34 34.94,-65.44 69.98,-130.83 104.94,-196.27 5,-9.75 11.75,-19.21 11.98,-30.59 18.5,-0.58 37.01,0.09 55.51,-0.25 3.89,0.46 3.63,-4.39 4.47,-6.84 -23.57,-0.84 -47.15,-0.35 -70.73,-0.27zm782.54 -8.24c63.39,-0.05 126.78,0.02 190.18,-0.03 10.44,0.17 21.87,0.38 30.67,6.76 7.07,5.88 7.18,16.17 6.3,24.6 -2.37,16.57 -10.1,31.74 -17.87,46.34 -10.65,18.43 -22.99,36.63 -40.18,49.58 -10.74,8.18 -23.77,12.54 -36.82,15.44 5.39,14.4 10.86,28.77 16.25,43.18 1.8,4.56 4.19,10.29 9.71,11.11 8.39,1.36 16.95,0.59 25.42,0.84 -7.76,13.87 -14.86,28.13 -23.02,41.77 -4.14,7.22 -12.23,11.18 -20.44,10.88 -13.8,-0.42 -28.78,2.03 -41.37,-5.02 -7.6,-4.22 -11.76,-12.21 -14.4,-20.14 -15.39,-39.58 -31.02,-79.04 -46.36,-118.62 -19.83,37.38 -39.89,74.64 -59.68,112.03 -2.3,4.54 -5.25,8.91 -6.36,13.95 -0.38,5.36 5.29,7.01 9.31,8.45 -1.78,3.08 -3.5,6.22 -5.19,9.37 -25.1,-0.04 -50.17,0 -75.25,0 -4.67,-0.12 -10.23,-0.58 -13.1,-4.79 -2.17,-4.68 0.72,-9.45 2.75,-13.57 32.13,-59.79 64.18,-119.62 96.25,-179.42 5.52,-10.98 12.34,-21.37 16.84,-32.8 1.97,-5.96 -3.91,-9.39 -8.79,-10.48 1.7,-3.14 3.43,-6.28 5.15,-9.43zm10.02 8.26l0 0c2.68,7.09 2.26,14.92 -1.76,21.46 -37.15,69.42 -74.41,138.81 -111.65,208.2 -2.82,4.08 3.35,4.77 6.17,4.71 35.52,-65.54 70.44,-131.38 105.76,-197.01 4.87,-9.56 11.4,-18.89 11.58,-30.04 57.3,-0.46 114.6,-0.02 171.9,-0.21 9.21,-0.16 18.48,0.84 27.18,4.04 -2.74,-11 -16.11,-10.86 -25.17,-11.28 -61.34,0.05 -122.69,-0.21 -184.01,0.13zm59.71 39.58l0 0c-9.67,17.66 -19,35.52 -28.62,53.2 18.95,-0.13 37.92,0.23 56.88,-0.15 9.69,0.02 19.41,-3.59 26.27,-10.56 8.67,-9.33 15.23,-21.23 17.22,-33.89 0.5,-6.82 -7.72,-7.99 -12.8,-8.27 -19.64,-0.69 -39.29,-0.06 -58.95,-0.33zm80.69 4.23l0 0c-1.58,13.62 -6.43,26.92 -14.88,37.8 -8.3,11.02 -21.53,18.66 -35.48,18.74 -17.38,0.13 -34.77,-0.19 -52.15,0.09 1.69,6.25 4.16,12.23 6.61,18.22 12.21,31.19 24.51,62.34 36.67,93.55 2.74,9.08 8.05,18.89 18.35,20.53 -5.02,-10.78 -9.13,-21.95 -13.46,-33.02 -11.92,-30.54 -24.07,-60.98 -35.83,-91.58 16.48,-0.44 33.03,0.85 49.48,-0.7 19.39,-2.38 33.88,-18.45 40.5,-35.93 3.47,-8.58 7.09,-19.86 0.19,-27.7zm-3.12 148.63l0 0c3.01,7.95 10.83,12.05 19.03,12.41 1.39,-2.34 2.85,-4.65 4.32,-6.95 -8.08,-0.35 -16.24,-1.31 -23.35,-5.46zm-454.47 -200.75c78.37,0.09 156.77,0 235.14,0.05 -5.21,9.95 -10.5,19.85 -15.9,29.68 -3.39,5.86 -7.13,12.07 -13.26,15.42 -4.73,2.28 -10.09,2.76 -15.27,2.8 -40.34,-0.04 -80.71,0 -121.05,-0.02 -8.95,16.84 -17.7,33.79 -26.42,50.75 36.24,0.03 72.49,0.02 108.74,0.02 -7.05,12.62 -13.51,25.57 -20.88,38.02 -4.1,7.68 -12.38,12.17 -21,12.09 -31.44,0.52 -62.88,-0.13 -94.31,0.33 -8.66,16.3 -17.7,32.41 -26.46,48.66 32.68,0.05 65.35,0.02 98.03,0.03 12.82,-0.21 25.8,0.75 38.45,-1.8 7.34,-1.62 12.45,-7.56 16.43,-13.56 3.63,0 7.27,0.04 10.92,0.08 -9.92,18.52 -19.5,37.26 -30,55.48 -4.36,8.1 -13.35,12.55 -22.39,12.43 -66.46,0.17 -132.9,0 -199.35,0.08 -4.68,-0.14 -10.46,-0.25 -13.34,-4.58 -2.22,-4.83 0.77,-9.91 2.7,-14.27 36.75,-68.64 73.61,-137.21 110.39,-205.83 1.42,-3.03 3.01,-6.19 2.8,-9.62 -1.29,-4.17 -5.54,-5.61 -9.24,-6.8 1.77,-3.16 3.49,-6.3 5.27,-9.44zm9.85 8.21l0 0c0.84,4.12 2.83,8.36 1.76,12.65 -1.99,7.51 -6.3,14.1 -9.83,20.94 -34.42,64.02 -68.7,128.12 -103.12,192.15 -1.32,2.52 -2.15,5.28 -2.95,8.02 2.43,0.14 4.88,0.27 7.34,0.39 37.2,-69.58 74.56,-139.09 111.76,-208.67 3.2,-5.67 4.69,-12.05 5.94,-18.37 65.67,0.08 131.36,0.17 197.05,-0.04 1.23,-2.3 2.47,-4.56 3.74,-6.84 -70.56,-0.65 -141.14,-0.19 -211.69,-0.23zm23.52 105.75l0 0c33.87,0.1 67.76,0.18 101.63,-0.05 1.21,-2.38 2.44,-4.76 3.7,-7.13 -33.08,0 -66.17,-0.19 -99.23,0.08 -4.07,-0.39 -4.33,4.56 -6.1,7.1zm67.34 92l0 0c-38.31,0.05 -76.61,-0.08 -114.9,0.05 -4.05,-0.38 -4.45,4.6 -6.14,7.13 44.8,0.25 89.59,0.06 134.37,0.12 4.97,-0.35 10.37,0.26 14.99,-2.02 1.78,-2.52 2.76,-5.49 4.06,-8.25 -10.63,2.35 -21.54,2.91 -32.38,2.97zm-1124.52 -258.26c66.84,-12.17 135.27,-16.8 203.05,-11.79 55.54,5.02 111.96,16.46 160.86,44.33 24.85,14.37 48.21,34.76 58.11,62.46 8.74,25.34 3.62,53.52 -8.18,77.03 -15.9,31.57 -41.78,56.86 -69.62,78.09 -50.04,37.26 -108.09,62.45 -167.65,80.13 12.97,34.35 37.63,62.91 64.66,87.09 55.12,48.26 123.8,78.34 194.03,97.09 88.43,23.3 180.56,29.46 271.67,26.86 74.41,-2.11 148.47,-10.75 221.92,-22.42 -68.97,33.11 -142.78,55.45 -217.73,70.24 -91.11,17.6 -184.9,23.21 -277.18,12.52 -82.53,-9.67 -164.22,-33.31 -236.2,-75.44 -77.58,-44.79 -141.38,-112.07 -183.98,-190.73 -16.35,29.16 -31.69,58.87 -47.88,88.13 -13.45,24.25 -29.23,47.3 -48.35,67.45 12.3,0.04 24.61,-0.1 36.93,0.07 -55.5,43.23 -121.72,71.1 -189.77,87.59 -8.81,2.01 -17.64,3.95 -26.57,5.37 25.59,-22.93 44.18,-52.28 62.01,-81.31 53.64,-89.84 95.35,-186.23 149.37,-275.84 16.63,-26.5 33.64,-53.64 57.82,-73.99 -17.93,-0.08 -35.86,0.08 -53.78,-0.1 23.78,-18.9 50.25,-34.25 77.59,-47.41 59.49,-28.33 124.85,-44.77 190.81,-46.07 -42.76,29.06 -77.53,68.27 -108.34,109.44 -25.3,34.43 -47.66,71.02 -66.89,109.16 57.32,-0.73 114.19,-16.38 164.31,-44.06 29.39,-16.51 57.26,-37.32 76.96,-65.02 13.92,-19.93 22.83,-45.58 16.18,-69.77 -5.73,-21.82 -22.93,-38.66 -42.12,-49.43 -27.86,-15.42 -60.06,-20.94 -91.58,-22.05 -50.5,0 -100.96,5.4 -150.44,15.33 -23.74,5.02 -47.53,10.4 -70.1,19.44 -29.79,11.88 -58.96,26.31 -84.06,46.48 -13.03,10.75 -25.96,23.91 -29.48,41.01 -3.07,16.79 8.81,32.59 23.02,40.18 23.99,12.87 52.84,15.86 79.22,9.59 -40.81,22.96 -89.43,33.05 -135.77,24.81 -15.06,-3 -30.17,-10.01 -39.39,-22.74 -7.81,-10.23 -10.19,-23.94 -7.68,-36.43 3.37,-17.94 14.22,-33.28 26.13,-46.65 23.64,-25.98 52.97,-46.17 83.82,-62.63 -8.13,-1.26 -16.29,-2.26 -24.43,-3.43 49.29,-26.64 103.95,-41.89 158.7,-52.58zm-101.76 35.92l0 0c-9.7,3.81 -19.68,7.08 -28.76,12.26 6.44,1.32 13.39,2.91 19.62,-0.12 83.75,-33.31 174.46,-45.84 264.18,-46.4 43.08,1.15 86.59,3.74 128.3,15.35 26.51,7.41 52.62,16.84 76.7,30.34 15.88,9.01 31.15,19.7 43.09,33.68 4.77,5.38 8.02,11.9 12.68,17.38 -1.17,-5.62 -3.56,-10.86 -6.61,-15.67 -12.18,-20.12 -31.63,-34.54 -51.96,-45.67 -29.59,-15.89 -62.12,-25.58 -94.94,-32.26 -42.2,-8.57 -85.44,-11.63 -128.47,-10.31 -79.33,2.32 -159.08,13.96 -233.83,41.42zm-23.36 24.35l0 0c-33.69,17.54 -65.97,39.23 -90.9,68.25 -9.94,12.03 -18.89,25.88 -20.78,41.71 -0.33,5.88 -1.04,12.87 2.93,17.76 0.8,-6.82 1.22,-13.76 3.41,-20.31 4.73,-15.27 14.81,-28.06 25.42,-39.71 23.52,-25.27 52.36,-45.14 83.07,-60.65 4.54,-2.26 8.96,-4.74 13.16,-7.59 -5.41,-0.59 -11.38,-2.84 -16.31,0.54zm255.95 18.77l0 0c-53.84,13.03 -106.29,34.02 -151.96,65.63 5.52,0.1 11.65,1.31 16.48,-2.12 19.48,-11.8 39.88,-22.11 60.82,-31.08 40.77,-17.85 84.69,-26.95 128.32,-34.65 3.94,-1.48 6.59,-4.98 9.46,-7.9 -21.26,1.81 -42.36,5.31 -63.12,10.12zm183.54 24.89l0 0c-0.28,8 0.58,16.09 -0.76,24.04 -2.86,18.73 -11.65,36.09 -23.01,51.07 -21.97,28.49 -52.01,49.75 -83.7,66.19 -50.98,26.55 -108.3,40.98 -165.83,40.81 -1.24,2.31 -2.49,4.63 -3.71,6.99 48.77,1.01 97.62,-8.95 142.93,-26.78 42.93,-17.17 83.41,-42.73 113.03,-78.68 11.7,-14.66 22.95,-31 25.1,-50.14 1.2,-11.19 0.88,-23.2 -4.05,-33.5zm-486.9 75.8l0 0c5.27,10.27 14.67,17.59 24.27,23.58 7.42,4.56 15.12,9.03 23.64,11.14 6.19,-0.12 12.05,-2.5 17.67,-4.89 -20.54,-3.79 -42.73,-10.67 -55.77,-28.12 -7.65,-9.29 -9.87,-21.38 -9.96,-33.09 -5.04,9.68 -4.99,21.76 0.15,31.38zm189.04 -23.79l0 0c-13.23,9.69 -23.67,22.57 -33.46,35.57 -16.44,22.47 -30.69,46.44 -44.47,70.62 -41.49,73.58 -77.22,150.25 -119,223.68 -13.97,24 -28.32,47.87 -45.12,70.02 -3.54,4.81 -7.99,9.02 -10.52,14.52 3.66,-0.75 7.49,-1.23 10.87,-2.93 3.02,-2.72 5.17,-6.23 7.56,-9.48 25.14,-35.2 46.54,-72.88 67.23,-110.81 37.56,-68.76 70.59,-139.96 110.57,-207.38 13.72,-22.76 28.07,-45.46 46.32,-64.9 7.32,-7.97 16.86,-13.41 24.32,-21.25 -4.77,0.33 -10.31,-1.03 -14.3,2.34zm144.01 177.03l0 0c3.66,14.2 10.71,27.24 18.64,39.47 14.37,21.45 32.15,40.48 51.69,57.3 28.66,24.77 60.9,45.19 94.81,61.99 68.12,33.52 142.91,52.24 218.32,59.33 96.26,9.94 193.62,7.72 289.64,-3.83 12.14,-1.23 23.45,-6.27 34.63,-10.83 -2.74,-0.05 -5.46,0 -8.16,0.21 -76.15,9.77 -153.01,14.99 -229.79,12.74 -82.76,-2.73 -165.96,-13.92 -244.45,-41.13 -63.45,-22.24 -124.73,-55.15 -171.42,-104.33 -19.68,-21.15 -37.19,-45.17 -46.44,-72.8 -2.49,0.62 -4.98,1.23 -7.47,1.88zm-258.51 176.1l0 0c9.87,2.16 19.33,-2.28 25.88,-9.54 -5.3,-0.39 -10.67,-0.85 -15.96,-0.08 -3.98,2.41 -6.85,6.19 -9.92,9.62z"/>
   <path class="fil6" d="M290.43 779.58c74.75,-27.46 154.5,-39.1 233.83,-41.42 43.03,-1.32 86.27,1.74 128.47,10.31 32.82,6.68 65.35,16.37 94.94,32.26 20.33,11.13 39.78,25.55 51.96,45.67 3.05,4.81 5.44,10.05 6.61,15.67 -4.66,-5.48 -7.91,-12 -12.68,-17.38 -11.94,-13.98 -27.21,-24.67 -43.09,-33.68 -24.08,-13.5 -50.19,-22.93 -76.7,-30.34 -41.71,-11.61 -85.22,-14.2 -128.3,-15.35 -89.72,0.56 -180.43,13.09 -264.18,46.4 -6.23,3.03 -13.18,1.44 -19.62,0.12 9.08,-5.18 19.06,-8.45 28.76,-12.26zm3.77 473.15c3.07,-3.43 5.94,-7.21 9.92,-9.62 5.29,-0.77 10.66,-0.31 15.96,0.08 -6.55,7.26 -16.01,11.7 -25.88,9.54zm258.51 -176.1c2.49,-0.65 4.98,-1.26 7.47,-1.88 9.25,27.63 26.76,51.65 46.44,72.8 46.69,49.18 107.97,82.09 171.42,104.33 78.49,27.21 161.69,38.4 244.45,41.13 76.78,2.25 153.64,-2.97 229.79,-12.74 2.7,-0.21 5.42,-0.26 8.16,-0.21 -11.18,4.56 -22.49,9.6 -34.63,10.83 -96.02,11.55 -193.38,13.77 -289.64,3.83 -75.41,-7.09 -150.2,-25.81 -218.32,-59.33 -33.91,-16.8 -66.15,-37.22 -94.81,-61.99 -19.54,-16.82 -37.32,-35.85 -51.69,-57.3 -7.93,-12.23 -14.98,-25.27 -18.64,-39.47zm964 -74.71c10.84,-0.06 21.75,-0.62 32.38,-2.97 -1.3,2.76 -2.28,5.73 -4.06,8.25 -4.62,2.28 -10.02,1.67 -14.99,2.02 -44.78,-0.06 -89.57,0.13 -134.37,-0.12 1.69,-2.53 2.09,-7.51 6.14,-7.13 38.29,-0.13 76.59,0 114.9,-0.05zm353.76 -5.21c7.11,4.15 15.27,5.11 23.35,5.46 -1.47,2.3 -2.93,4.61 -4.32,6.95 -8.2,-0.36 -16.02,-4.46 -19.03,-12.41zm-421.1 -86.79c1.77,-2.54 2.03,-7.49 6.1,-7.1 33.06,-0.27 66.15,-0.08 99.23,-0.08 -1.26,2.37 -2.49,4.75 -3.7,7.13 -33.87,0.23 -67.76,0.15 -101.63,0.05zm-1040.67 -10.32c3.99,-3.37 9.53,-2.01 14.3,-2.34 -7.46,7.84 -17,13.28 -24.32,21.25 -18.25,19.44 -32.6,42.14 -46.32,64.9 -39.98,67.42 -73.01,138.62 -110.57,207.38 -20.69,37.93 -42.09,75.61 -67.23,110.81 -2.39,3.25 -4.54,6.76 -7.56,9.48 -3.38,1.7 -7.21,2.18 -10.87,2.93 2.53,-5.5 6.98,-9.71 10.52,-14.52 16.8,-22.15 31.15,-46.02 45.12,-70.02 41.78,-73.43 77.51,-150.1 119,-223.68 13.78,-24.18 28.03,-48.15 44.47,-70.62 9.79,-13 20.23,-25.88 33.46,-35.57zm-189.04 23.79c-5.14,-9.62 -5.19,-21.7 -0.15,-31.38 0.09,11.71 2.31,23.8 9.96,33.09 13.04,17.45 35.23,24.33 55.77,28.12 -5.62,2.39 -11.48,4.77 -17.67,4.89 -8.52,-2.11 -16.22,-6.58 -23.64,-11.14 -9.6,-5.99 -19,-13.31 -24.27,-23.58zm1024.96 -71.97c7.24,7.97 4.19,19.61 0.86,28.62 -10.04,25.25 -23.6,48.85 -36.63,72.62 -10,16.88 -19.42,34.76 -34.23,47.99 -8.99,8.37 -21.94,8.45 -33.47,8.59 -20.54,-0.1 -41.09,0.13 -61.63,-0.14 0.88,-2.32 1.78,-4.65 2.7,-6.95 23.12,-0.83 46.31,0.65 69.39,-1.13 12.32,-0.81 21.82,-9.85 28.97,-19.12 13.31,-17.42 23.58,-36.86 34.1,-56.02 9.42,-17.7 19.08,-35.36 26.32,-54.1 2.62,-6.47 3.14,-13.49 3.62,-20.36zm628.97 -3.34c6.9,7.84 3.28,19.12 -0.19,27.7 -6.62,17.48 -21.11,33.55 -40.5,35.93 -16.45,1.55 -33,0.26 -49.48,0.7 11.76,30.6 23.91,61.04 35.83,91.58 4.33,11.07 8.44,22.24 13.46,33.02 -10.3,-1.64 -15.61,-11.45 -18.35,-20.53 -12.16,-31.21 -24.46,-62.36 -36.67,-93.55 -2.45,-5.99 -4.92,-11.97 -6.61,-18.22 17.38,-0.28 34.77,0.04 52.15,-0.09 13.95,-0.08 27.18,-7.72 35.48,-18.74 8.45,-10.88 13.3,-24.18 14.88,-37.8zm-1167.03 -0.49c4.93,10.3 5.25,22.31 4.05,33.5 -2.15,19.14 -13.4,35.48 -25.1,50.14 -29.62,35.95 -70.1,61.51 -113.03,78.68 -45.31,17.83 -94.16,27.79 -142.93,26.78 1.22,-2.36 2.47,-4.68 3.71,-6.99 57.53,0.17 114.85,-14.26 165.83,-40.81 31.69,-16.44 61.73,-37.7 83.7,-66.19 11.36,-14.98 20.15,-32.34 23.01,-51.07 1.34,-7.95 0.48,-16.04 0.76,-24.04zm-183.54 -24.89c20.76,-4.81 41.86,-8.31 63.12,-10.12 -2.87,2.92 -5.52,6.42 -9.46,7.9 -43.63,7.7 -87.55,16.8 -128.32,34.65 -20.94,8.97 -41.34,19.28 -60.82,31.08 -4.83,3.43 -10.96,2.22 -16.48,2.12 45.67,-31.61 98.12,-52.6 151.96,-65.63zm1210.17 -18.43c61.32,-0.34 122.67,-0.08 184.01,-0.13 9.06,0.42 22.43,0.28 25.17,11.28 -8.7,-3.2 -17.97,-4.2 -27.18,-4.04 -57.3,0.19 -114.6,-0.25 -171.9,0.21 -0.18,11.15 -6.71,20.48 -11.58,30.04 -35.32,65.63 -70.24,131.47 -105.76,197.01 -2.82,0.06 -8.99,-0.63 -6.17,-4.71 37.24,-69.39 74.5,-138.78 111.65,-208.2 4.02,-6.54 4.44,-14.37 1.76,-21.46zm-307.34 -0.1c70.55,0.04 141.13,-0.42 211.69,0.23 -1.27,2.28 -2.51,4.54 -3.74,6.84 -65.69,0.21 -131.38,0.12 -197.05,0.04 -1.25,6.32 -2.74,12.7 -5.94,18.37 -37.2,69.58 -74.56,139.09 -111.76,208.67 -2.46,-0.12 -4.91,-0.25 -7.34,-0.39 0.8,-2.74 1.63,-5.5 2.95,-8.02 34.42,-64.03 68.7,-128.13 103.12,-192.15 3.53,-6.84 7.84,-13.43 9.83,-20.94 1.07,-4.29 -0.92,-8.53 -1.76,-12.65zm-316.06 0.04c57.11,-0.25 114.22,0 171.3,-0.13 10.12,0.13 20.62,-0.46 30.31,3.01 3.8,1.16 6.21,4.48 7.59,8.06 -17.24,-5.23 -35.4,-3.43 -53.14,-3.75 -48.57,0.19 -97.17,-0.35 -145.74,0.26 -0.67,11.84 -7.62,21.69 -12.87,31.86 -34.77,65.02 -69.73,129.93 -104.43,194.99 -3.65,0.63 -8.48,-2.01 -5.53,-6 36.97,-69.67 74.64,-139 111.69,-208.64 3.65,-6.08 3.12,-13.22 0.82,-19.66zm-169.16 0.04c23.58,-0.08 47.16,-0.57 70.73,0.27 -0.84,2.45 -0.58,7.3 -4.47,6.84 -18.5,0.34 -37.01,-0.33 -55.51,0.25 -0.23,11.38 -6.98,20.84 -11.98,30.59 -34.96,65.44 -70,130.83 -104.94,196.27 -2.4,-0.46 -5.71,0.54 -6.82,-2.34 1.61,-5.29 4.6,-10 7.14,-14.88 35.04,-65.37 69.99,-130.79 104.95,-196.19 3.98,-6.4 4.33,-14.1 0.9,-20.81zm-673.56 -0.32c4.93,-3.38 10.9,-1.13 16.31,-0.54 -4.2,2.85 -8.62,5.33 -13.16,7.59 -30.71,15.51 -59.55,35.38 -83.07,60.65 -10.61,11.65 -20.69,24.44 -25.42,39.71 -2.19,6.55 -2.61,13.49 -3.41,20.31 -3.97,-4.89 -3.26,-11.88 -2.93,-17.76 1.89,-15.83 10.84,-29.68 20.78,-41.71 24.93,-29.02 57.21,-50.71 90.9,-68.25z"/>
  </g>
 </g>
</svg>
