<?xml version="1.0" encoding="UTF-8"?>
<!DOCTYPE svg PUBLIC "-//W3C//DTD SVG 1.1//EN" "http://www.w3.org/Graphics/SVG/1.1/DTD/svg11.dtd">
<!-- Creator: CorelDRAW -->
<svg xmlns="http://www.w3.org/2000/svg" xml:space="preserve" width="2000px" height="1600px" version="1.1" style="shape-rendering:geometricPrecision; text-rendering:geometricPrecision; image-rendering:optimizeQuality; fill-rule:evenodd; clip-rule:evenodd"
viewBox="0 0 2000 1600"
 xmlns:xlink="http://www.w3.org/1999/xlink">
 <defs>
  <style type="text/css">
   <![CDATA[
    .fil0 {fill:black;fill-rule:nonzero}
    .fil1 {fill:#F7001F;fill-rule:nonzero}
   ]]>
  </style>
 </defs>
 <g id="Capa_x0020_1">
  <metadata id="CorelCorpID_0Corel-Layer"/>
  <g id="RPI_x0020_Engineers.cdr">
   <path class="fil0" d="M128.4 50.68c24.25,-28.12 59.74,-45.48 96.38,-49.98 27.01,-2.91 54.05,3.65 79.28,12.84 59.81,-11.93 121.09,-13.65 181.9,-13.49 46.08,1.39 92.58,8.15 135.48,25.64 36.43,14.65 69.61,38.82 91.78,71.52 15.32,22.89 24.88,49.55 27.79,76.91 1.57,13.04 -0.82,26.69 4.13,39.21 8.02,23.17 28.89,38.88 50.42,48.75 -21.21,8.58 -42.03,23.14 -50.42,45.29 -4.93,11.67 -2.8,24.55 -4.43,36.81 -4.13,40.1 -26.23,76.65 -56.24,102.86 -18.19,16.71 -39.62,29.19 -61.11,41.05 21.27,19.52 37.16,44.23 50.24,69.79 22.56,45.42 36.21,94.9 43.49,144.97 2.15,11.48 9.15,21.24 16.36,30.1 23.13,27.26 52.7,48.23 84.02,65.05 -22.34,23.97 -53.09,40.77 -86,43.55 -29.53,3.15 -58.98,-3.06 -87.17,-11.3 -21.34,8.32 -44.11,13.67 -67.15,13.06 -13.06,0.54 -25.86,-2.39 -38.77,-3.93 2.44,-53.46 2.72,-107.62 -7.97,-160.3 -7.85,-39.25 -21.61,-78.91 -49.01,-108.97 -21.08,-23.62 -52.01,-36.83 -83.3,-39.03 -0.72,54.27 -0.07,108.55 -0.33,162.84 -1.48,25.21 12.04,48.14 26.82,67.48 12.45,15.82 27.17,30.14 44.75,40.21 -28.41,25.97 -66.42,41.85 -105.1,41.05 -22.49,-0.72 -44.9,-4.96 -66.05,-12.69 -30.23,10.78 -63.43,17.23 -95.12,8.93 -26.38,-6.74 -50.07,-23.1 -66.41,-44.79 22.03,-5.3 42.11,-18.8 54.44,-37.9 11.71,-17.85 19.01,-38.82 19.25,-60.24 -0.02,-70.25 0,-140.51 -0.02,-210.75 -0.28,-19.14 -4.39,-39.61 -17.91,-54 -9.63,-11.11 -22.84,-17.95 -35.64,-24.62 15.21,-3.76 30.77,-9.96 40.84,-22.54 9.58,-11.71 13.67,-27.25 13.32,-42.21 -0.2,-68.02 0.17,-136.04 -0.2,-204.04 -0.76,-44.36 -39.29,-81.85 -82.34,-87.13zm1392.25 712.09c16.1,-3.67 32.73,-6.22 49.24,-4.26 26.1,4.5 52.83,7.98 77.2,18.95 32.05,-17.32 69.74,-22.82 105.68,-18.47 42.88,5.78 83.67,24.41 117.25,51.53 1.72,0.8 1.19,2.5 0.48,3.84l-0.94 -2.89c-32.03,1.85 -65.59,6.87 -92.38,25.86 -22.58,15.37 -36.8,41.75 -37.27,69.07 -0.31,63.92 -0.05,127.85 -0.13,191.79 0.13,20.67 11.49,40.16 27.81,52.42 20.24,15.97 45.55,23.27 70.44,28.21 -26.86,4.91 -54.18,13.58 -75,31.97 -14.24,12.49 -23.52,31.01 -23.28,50.11 0.11,63.13 -0.11,126.27 0.11,189.38 0.35,24.71 11.41,49 30.58,64.76 28.01,23.41 65.74,29.67 101.16,30.86 -28.77,23.43 -62.74,40.6 -98.9,49.09 -41.86,9.72 -87.45,5.52 -125.61,-14.82 -37.14,19.76 -81.35,24.32 -122.25,15.61 -37.66,-8.22 -73.13,-25.95 -102.84,-50.42 32.34,0.02 66,-5.8 93.34,-24.04 22.45,-14.52 37.38,-40.12 38.62,-66.85 0,-61.57 0,-123.11 0,-184.68 -0.11,-9.15 0.83,-18.54 -2.21,-27.34 -5.22,-17.8 -18.56,-32.1 -34.06,-41.73 -18.38,-11.8 -39.77,-17.47 -60.94,-21.92 25.71,-5.35 52.07,-13 72.46,-30.41 14.19,-11.8 24.64,-29.34 24.77,-48.14 -0.08,-65.87 0.03,-131.74 -0.04,-197.61 -1.32,-24.54 -13.95,-48.35 -33.84,-62.85 -27.6,-21.38 -63.54,-26.8 -97.49,-28.19 28.56,-23.19 62.18,-40.4 98.04,-48.83zm-22.32 36.21l0 0c11.43,2.65 22.77,6.3 32.94,12.25 23.41,13.17 39.9,36.88 45.92,62.88 5.37,19.86 3.7,40.57 3.94,60.91 0.02,54.4 -0.04,108.8 0.02,163.19 -0.11,17.26 -4.19,34.8 -13.41,49.51 -9.58,14.97 -24.93,25.32 -41.36,31.49 18.09,5.63 34.06,18.08 43.51,34.58 7.89,14.36 11.2,30.88 11.26,47.18 -0.04,63.82 -0.04,127.65 0,191.48 -0.37,21.97 -5.35,44.36 -17.17,63.13 -14.26,23.11 -39.16,37.84 -65.28,43.51 17.99,9.39 38.27,13.43 58.44,14.22 31.75,1.02 65.3,-5.18 90.62,-25.58 17.84,15.12 41.12,22.38 64.09,24.66 28.25,2.72 58.22,0.29 83.63,-13.25 -9.68,-2.96 -19.56,-5.46 -28.45,-10.37 -24.73,-12.71 -42.73,-36.71 -49.16,-63.63 -8.13,-33.45 -3.11,-68.13 -5.13,-102.12 -0.11,-33.43 -0.98,-66.83 -0.7,-100.26 -1.26,-20.71 -1.1,-42.29 7.41,-61.61 8.31,-20.25 26.43,-35.36 47.06,-41.98 -15.93,-6.09 -31.21,-15.54 -40.51,-30.26 -14.85,-21.79 -15.61,-49.35 -14.02,-74.76 -0.07,-40.55 0.65,-81.1 1.17,-121.63 0.39,-33.82 -3.13,-69.74 12.63,-100.95 12.95,-27.88 40.77,-46.66 70.46,-52.64 -21.39,-10.86 -45.73,-14.88 -69.55,-14.32 -27.79,1 -57.22,6.96 -78.86,25.58 -12.83,-9.54 -27.21,-17.1 -42.86,-20.73 -35.25,-8.26 -73.85,-6.78 -106.64,9.52zm-385.43 -306.32c21.23,-2.96 42.73,-3.48 64.16,-2.98 23.68,1.13 47.98,7.34 66.91,22.23 19.02,15.04 31.86,38.14 33.49,62.44 0.15,23.6 -5.65,49.05 -23.17,66.02 10.59,9.35 17.26,22.45 20.45,36.08 8.54,33.75 -3.43,71.63 -29.23,94.86 -23.34,20.63 -55.63,27.3 -85.99,26.91 -26.99,-0.35 -55.49,-3.87 -78.37,-19.35 -10.52,-7.78 -20.84,-18.97 -20.56,-32.9 0.09,-70.96 0.02,-141.91 0.02,-212.87 0.05,-11.39 6.15,-22.64 15.85,-28.71 10.99,-6.78 23.75,-9.95 36.44,-11.73zm-10.06 29.75l0 0c-6.41,1.85 -15.91,4.39 -15.54,12.73 -0.09,68.83 -0.02,137.66 -0.04,206.49 -0.59,5.38 2.91,10.01 6.99,13.1 12.94,10.32 29.84,13.39 45.84,15.41 23.38,2 47.96,1.82 69.74,-8.04 30.82,-13.11 48.85,-51.75 36.7,-83.41 -7.15,-19.24 -25.25,-31.78 -43.9,-38.49 4.87,-4.54 11.83,-5.98 17.26,-9.8 14.52,-7.96 26.95,-21.45 29.3,-38.36 4.19,-17.8 -1,-37.1 -13.24,-50.62 -14.58,-16.9 -37.53,-23.49 -59.13,-24.62 -24.71,-0.24 -49.88,-0.63 -73.98,5.61zm-208.68 -138.89c33.17,-9.24 68.46,-3.05 100.08,8.93 40.79,-8.39 82.48,-11.26 124.03,-12.74 52.44,-2.63 105.73,-0.89 156.71,12.67 37.56,9.91 74.13,26.8 102.64,53.66 31.78,29.62 52.47,71.57 54.08,115.2 0.02,17 0.17,35.54 10.75,49.84 10.76,15.73 29.02,23.06 45.58,30.88 -15.46,4.43 -30.8,11.47 -41.51,23.86 -10.07,11.11 -14.93,26.3 -14.8,41.16 0.32,34.91 -12.98,69.18 -34.51,96.37 -22.52,28.53 -52.36,50.61 -84.54,67.13 -35.64,18.53 -74.46,30.79 -114.16,36.81 -36.73,5.09 -73.87,2.09 -110.73,0.67 0.13,57.71 -0.15,115.43 0.15,173.13 4.28,28.49 19.97,54.26 39.95,74.58 10.36,9.09 21.1,17.76 31.77,26.52 -19.76,12.77 -38.82,27.92 -61.92,34.14 -36.29,9.99 -75,4.54 -110.12,-7.41 -34.33,13.08 -73.76,18.19 -108.72,4.54 -21.15,-7.67 -35.54,-25.8 -52.16,-39.95 11.3,-6.02 22.73,-11.84 34.12,-17.71 11.32,-5.86 18.78,-16.77 24.53,-27.77 7.61,-14.69 12.98,-30.71 14.91,-47.16 0.15,-66.68 0.02,-133.37 0.07,-200.05 0.32,-18.47 0.65,-37.92 -8.02,-54.81 -8.78,-18.67 -26.01,-31.62 -44.27,-40.22 14.21,-4.31 29.27,-9.07 39.66,-20.3 11.26,-11.35 13.28,-28.28 13.69,-43.49 -0.06,-57.22 0.2,-114.44 -0.13,-171.66 -1.69,-18.02 2.15,-36.6 -3.52,-54.14 -5.3,-19.82 -17.39,-38.08 -34.81,-49.22 -12.94,-8.52 -27.86,-13.2 -42.9,-16.41 16.93,-25.13 45.35,-39.84 74.1,-47.05zm-20.55 37.42l0 0c33.55,17.73 52.02,55.74 54.37,92.52 0,70.34 1.35,140.69 0.35,211.06 -1.35,23.82 -4.5,51.44 -24.34,67.55 17.38,18.38 22.99,44.55 23.49,69.13 0.11,63.74 0.02,127.48 0.04,191.22 -0.24,16.97 1.44,34.36 -3.78,50.83 -8.17,29.69 -21.93,61.2 -50.16,76.81 26.93,18.64 62.35,16.9 92.37,7.54 7.45,-1.83 14.25,-5.7 21.75,-7.26 15.45,4.89 30.88,10.23 47.03,12.5 26.73,3.62 55.64,1.71 79.04,-12.96 -26.4,-24.56 -46.46,-57 -52.4,-92.86 -1.54,-68.94 -0.15,-137.94 -0.71,-206.89 40.2,1.02 80.49,4.47 120.72,1.91 40.71,-3.59 80.32,-16.08 116.79,-34.32 32.25,-16.62 62.42,-38.99 83.28,-69.08 14.71,-21.61 23.82,-47.51 23.21,-73.83 0.22,-23.15 7,-47.68 24.77,-63.57 -18.12,-18.82 -25.29,-45.66 -24.34,-71.28 0.33,-44.92 -23.08,-88.21 -58.89,-114.77 -35.01,-26.4 -78.28,-39.18 -121.22,-45.09 -37.51,-5.65 -75.59,-4.66 -113.36,-3.05 -40.01,2.11 -80.43,3.91 -119.38,14.24 -19.27,-8.5 -39.92,-14.32 -61.04,-15.32 -20.19,-1.16 -40.4,4.47 -57.59,14.97zm-468.86 -303.49c23.6,-6.26 48.22,-6.87 72.52,-6.59 26.27,-0.85 53.61,5.15 75.02,20.99 20.02,15.13 33.45,39.06 35.05,64.18 -0.13,23.23 -5.8,48.07 -22.88,64.92 10.32,10.95 18.04,24.53 20.76,39.42 7.6,34.31 -5.96,72.17 -32.93,94.49 -24.49,19.97 -57.33,25.23 -88.06,24.45 -25.28,-1.11 -51.9,-4.65 -73.22,-19.36 -10.28,-7.83 -20.66,-18.58 -20.9,-32.3 -0.09,-68.78 0.04,-137.54 -0.07,-206.3 0.02,-9.15 0.85,-18.91 6.35,-26.56 6.56,-9.46 17.62,-14.3 28.36,-17.34zm2.98 27.53l0 0c-4.57,1.67 -10.63,4.24 -10.39,10.04 -0.22,69.55 0.02,139.09 -0.13,208.61 -0.63,5.74 4.1,10.09 8.21,13.28 14.43,10.08 32.34,13.37 49.55,14.73 23.52,1.9 48.4,0.35 69.59,-10.91 29.29,-15.49 44.96,-55.22 29.58,-85.53 -8.7,-17.52 -27.02,-26.69 -44.08,-34.21 13.41,-5.72 27.15,-12.17 37.06,-23.23 10.52,-11.8 14.12,-28.36 12.93,-43.79 -2.24,-19.58 -15.37,-37.15 -32.86,-45.88 -18,-9.46 -38.84,-11.06 -58.79,-10.58 -20.34,0.84 -41.16,1.02 -60.67,7.47zm-224.15 -102.84l0 0c31.75,16.67 49.81,51.88 53.81,86.48 1.43,72.47 0.34,145 0.65,217.5 -1.35,23.6 -4.5,51.22 -24.34,66.95 9.28,9.87 15.6,22.21 19.04,35.27 7.91,30.47 2.43,62.22 4.65,93.28 0.11,44.92 0.56,89.86 -0.44,134.79 -0.39,15.19 1.63,30.72 -2.82,45.53 -7.94,30.53 -21.91,62.63 -50.38,79.19 10.43,7.17 22.47,11.82 35.01,13.43 26.84,3.82 53.83,-3.39 78.43,-13.78 39.6,15.78 87.33,23.02 125.92,0.72 -25.95,-26.34 -47.68,-59.22 -52.42,-96.56 -0.17,-66.11 0.03,-132.24 -0.08,-198.35 41.48,-7.06 85.88,5.04 117.81,32.53 29.82,25.62 48.57,61.7 59.85,98.86 17.28,57.57 20.06,118.36 18.04,178.08 26.71,2.43 53.59,-4.17 77.78,-15.3 15.56,6.02 31.75,10.52 48.29,12.84 26.29,4.04 54.74,1.89 77.73,-12.56 -11.49,-8.04 -22.81,-16.36 -33.27,-25.75 -21.97,-19.71 -43.81,-43.86 -47.53,-74.37 -5.36,-34.53 -13.95,-68.65 -26.77,-101.19 -10.5,-26.31 -23.41,-51.96 -41.18,-74.15 -14.87,-18.25 -33.04,-34.14 -54.49,-44.18 38.77,-13.24 76.54,-31.99 105.95,-61.05 24.6,-23.86 41.79,-56.78 41.66,-91.56 -0.37,-24.25 6.3,-50.37 25.23,-66.8 -15.28,-14.06 -22.32,-34.75 -24.32,-54.94 -1.56,-12.15 0.02,-24.49 -2.06,-36.6 -3.59,-23.14 -12.91,-45.38 -27.02,-64.07 -21.51,-28.29 -52.65,-47.89 -85.9,-59.59 -49.14,-17.43 -102,-21.29 -153.74,-19.53 -40.66,1.28 -81.45,3.08 -121.64,9.82 -8.06,1.13 -15.73,4.39 -23.9,4.72 -13.5,-5.31 -27.19,-10.5 -41.62,-12.7 -25.73,-4.69 -53.79,-1.78 -75.93,13.04z"/>
   <path class="fil1" d="M873.61 420.94c17.19,-10.5 37.4,-16.13 57.59,-14.97 21.12,1 41.77,6.82 61.04,15.32 38.95,-10.33 79.37,-12.13 119.38,-14.24 37.77,-1.61 75.85,-2.6 113.36,3.05 42.94,5.91 86.21,18.69 121.22,45.09 35.81,26.56 59.22,69.85 58.89,114.77 -0.95,25.62 6.22,52.46 24.34,71.28 -17.77,15.89 -24.55,40.42 -24.77,63.57 0.61,26.32 -8.5,52.22 -23.21,73.83 -20.86,30.09 -51.03,52.46 -83.28,69.08 -36.47,18.24 -76.08,30.73 -116.79,34.32 -40.23,2.56 -80.52,-0.89 -120.72,-1.91 0.56,68.95 -0.83,137.95 0.71,206.89 5.94,35.86 26,68.3 52.4,92.86 -23.4,14.67 -52.31,16.58 -79.04,12.96 -16.15,-2.27 -31.58,-7.61 -47.03,-12.5 -7.5,1.56 -14.3,5.43 -21.75,7.26 -30.02,9.36 -65.44,11.1 -92.37,-7.54 28.23,-15.61 41.99,-47.12 50.16,-76.81 5.22,-16.47 3.54,-33.86 3.78,-50.83 -0.02,-63.74 0.07,-127.48 -0.04,-191.22 -0.5,-24.58 -6.11,-50.75 -23.49,-69.13 19.84,-16.11 22.99,-43.73 24.34,-67.55 1,-70.37 -0.35,-140.72 -0.35,-211.06 -2.35,-36.78 -20.82,-74.79 -54.37,-92.52zm624.72 378.04c32.79,-16.3 71.39,-17.78 106.64,-9.52 15.65,3.63 30.03,11.19 42.86,20.73 21.64,-18.62 51.07,-24.58 78.86,-25.58 23.82,-0.56 48.16,3.46 69.55,14.32 -29.69,5.98 -57.51,24.76 -70.46,52.64 -15.76,31.21 -12.24,67.13 -12.63,100.95 -0.52,40.53 -1.24,81.08 -1.17,121.63 -1.59,25.41 -0.83,52.97 14.02,74.76 9.3,14.72 24.58,24.17 40.51,30.26 -20.63,6.62 -38.75,21.73 -47.06,41.98 -8.51,19.32 -8.67,40.9 -7.41,61.61 -0.28,33.43 0.59,66.83 0.7,100.26 2.02,33.99 -3,68.67 5.13,102.12 6.43,26.92 24.43,50.92 49.16,63.63 8.89,4.91 18.77,7.41 28.45,10.37 -25.41,13.54 -55.38,15.97 -83.63,13.25 -22.97,-2.28 -46.25,-9.54 -64.09,-24.66 -25.32,20.4 -58.87,26.6 -90.62,25.58 -20.17,-0.79 -40.45,-4.83 -58.44,-14.22 26.12,-5.67 51.02,-20.4 65.28,-43.51 11.82,-18.77 16.8,-41.16 17.17,-63.13 -0.04,-63.83 -0.04,-127.66 0,-191.48 -0.06,-16.3 -3.37,-32.82 -11.26,-47.18 -9.45,-16.5 -25.42,-28.95 -43.51,-34.58 16.43,-6.17 31.78,-16.52 41.36,-31.49 9.22,-14.71 13.3,-32.25 13.41,-49.51 -0.06,-54.39 0,-108.79 -0.02,-163.19 -0.24,-20.34 1.43,-41.05 -3.94,-60.91 -6.02,-26 -22.51,-49.71 -45.92,-62.88 -10.17,-5.95 -21.51,-9.6 -32.94,-12.25zm-1314.75 -756.84c22.14,-14.82 50.2,-17.73 75.93,-13.04 14.43,2.2 28.12,7.39 41.62,12.7 8.17,-0.33 15.84,-3.59 23.9,-4.72 40.19,-6.74 80.98,-8.54 121.64,-9.82 51.74,-1.76 104.6,2.1 153.74,19.53 33.25,11.7 64.39,31.3 85.9,59.59 14.11,18.69 23.43,40.93 27.02,64.07 2.08,12.11 0.5,24.45 2.06,36.6 2,20.19 9.04,40.88 24.32,54.94 -18.93,16.43 -25.6,42.55 -25.23,66.8 0.13,34.78 -17.06,67.7 -41.66,91.56 -29.41,29.06 -67.18,47.81 -105.95,61.05 21.45,10.04 39.62,25.93 54.49,44.18 17.77,22.19 30.68,47.84 41.18,74.15 12.82,32.54 21.41,66.66 26.77,101.19 3.72,30.51 25.56,54.66 47.53,74.37 10.46,9.39 21.78,17.71 33.27,25.75 -22.99,14.45 -51.44,16.6 -77.73,12.56 -16.54,-2.32 -32.73,-6.82 -48.29,-12.84 -24.19,11.13 -51.07,17.73 -77.78,15.3 2.02,-59.72 -0.76,-120.51 -18.04,-178.08 -11.28,-37.16 -30.03,-73.24 -59.85,-98.86 -31.93,-27.49 -76.33,-39.59 -117.81,-32.53 0.11,66.11 -0.09,132.24 0.08,198.35 4.74,37.34 26.47,70.22 52.42,96.56 -38.59,22.3 -86.32,15.06 -125.92,-0.72 -24.6,10.39 -51.59,17.6 -78.43,13.78 -12.54,-1.61 -24.58,-6.26 -35.01,-13.43 28.47,-16.56 42.44,-48.66 50.38,-79.19 4.45,-14.81 2.43,-30.34 2.82,-45.53 1,-44.93 0.55,-89.87 0.44,-134.79 -2.22,-31.06 3.26,-62.81 -4.65,-93.28 -3.44,-13.06 -9.76,-25.4 -19.04,-35.27 19.84,-15.73 22.99,-43.35 24.34,-66.95 -0.31,-72.5 0.78,-145.03 -0.65,-217.5 -4,-34.6 -22.06,-69.81 -53.81,-86.48zm221.17 75.31l0 0c-10.74,3.04 -21.8,7.88 -28.36,17.34 -5.5,7.65 -6.33,17.41 -6.35,26.56 0.11,68.76 -0.02,137.52 0.07,206.3 0.24,13.72 10.62,24.47 20.9,32.3 21.32,14.71 47.94,18.25 73.22,19.36 30.73,0.78 63.57,-4.48 88.06,-24.45 26.97,-22.32 40.53,-60.18 32.93,-94.49 -2.72,-14.89 -10.44,-28.47 -20.76,-39.42 17.08,-16.85 22.75,-41.69 22.88,-64.92 -1.6,-25.12 -15.03,-49.05 -35.05,-64.18 -21.41,-15.84 -48.75,-21.84 -75.02,-20.99 -24.3,-0.28 -48.92,0.33 -72.52,6.59zm708.15 375.21l0 0c-12.69,1.78 -25.45,4.95 -36.44,11.73 -9.7,6.07 -15.8,17.32 -15.85,28.71 0,70.96 0.07,141.91 -0.02,212.87 -0.28,13.93 10.04,25.12 20.56,32.9 22.88,15.48 51.38,19 78.37,19.35 30.36,0.39 62.65,-6.28 85.99,-26.91 25.8,-23.23 37.77,-61.11 29.23,-94.86 -3.19,-13.63 -9.86,-26.73 -20.45,-36.08 17.52,-16.97 23.32,-42.42 23.17,-66.02 -1.63,-24.3 -14.47,-47.4 -33.49,-62.44 -18.93,-14.89 -43.23,-21.1 -66.91,-22.23 -21.43,-0.5 -42.93,0.02 -64.16,2.98z"/>
  </g>
 </g>
</svg>
