<?xml version="1.0" encoding="UTF-8"?>
<!DOCTYPE svg PUBLIC "-//W3C//DTD SVG 1.1//EN" "http://www.w3.org/Graphics/SVG/1.1/DTD/svg11.dtd">
<!-- Creator: CorelDRAW -->
<svg xmlns="http://www.w3.org/2000/svg" xml:space="preserve" width="2000px" height="1600px" version="1.1" style="shape-rendering:geometricPrecision; text-rendering:geometricPrecision; image-rendering:optimizeQuality; fill-rule:evenodd; clip-rule:evenodd"
viewBox="0 0 2000 1600"
 xmlns:xlink="http://www.w3.org/1999/xlink">
 <defs>
  <style type="text/css">
   <![CDATA[
    .fil0 {fill:#00563C;fill-rule:nonzero}
    .fil1 {fill:#B5975A;fill-rule:nonzero}
   ]]>
  </style>
 </defs>
 <g id="Capa_x0020_1">
  <metadata id="CorelCorpID_0Corel-Layer"/>
  <g id="Sacramento_x0020_State_x0020_Hornets.cdr">
   <path class="fil0" d="M905.86 34.32c157.45,-31.08 318.8,-37.75 478.9,-32.88 89.91,2.96 179.63,10.81 268.81,22.56 -41.36,3.86 -82.95,5.61 -124.31,9.94 -144.96,14.06 -289.77,35.49 -430.43,74.04 -62.97,17.51 -125.16,38.81 -183.88,67.73 -37.19,18.75 -73.27,40.53 -104.07,68.76 -33.32,30.05 -60.18,69.87 -66.42,115.06 -5.89,35.54 6.34,71.37 24.16,101.78 25.62,43.16 61.52,79.17 99.23,111.87 93.58,80.81 202.65,140.07 306.64,205.9 83.52,50.47 165.44,105.25 234.92,174.27 34.89,35.31 66.88,74.17 89.82,118.38 20.25,38.56 33.41,81.51 33.64,125.29 1.65,60.08 -20.89,118.73 -54.96,167.48 -50.47,71.92 -127.68,120.18 -207.95,152.84 -100.67,40.51 -208.37,60.29 -315.89,71.67 -90.68,9.27 -181.95,12.03 -273.06,10.66 -122.05,-1.98 -243.99,-11.05 -365.15,-25.8 -42.91,-5.41 -85.84,-10.95 -128.41,-18.6 137.81,-181.3 275.71,-362.52 413.9,-543.54 -7.41,92.81 -15.16,185.58 -22.89,278.36 59.72,8.97 120.01,14.43 180.37,15.66 68.04,0.85 136.88,-3.73 202.58,-22.56 46.22,-13.62 91.86,-34.84 125.57,-70.12 21.09,-21.22 36.47,-48.21 42.88,-77.52 22.53,35.18 32.37,79.01 24.44,120.29 -6.18,32.99 -22.79,63.23 -43.83,89.06 -26.97,33.58 -61.35,60.36 -97.61,83.18 53.85,-9.99 106.85,-28.2 153,-58.15 35.59,-23.23 66.57,-55.76 81.43,-96.19 10.92,-27.81 12.8,-59.1 4.12,-87.79 -13.65,-46 -44.32,-84.47 -77.05,-118.54 -62.04,-62.32 -135.13,-112.23 -209.24,-159 -43.81,-27.66 -88.75,-53.49 -132.3,-81.53 -83.82,-51.2 -165.82,-106.78 -236.26,-175.69 -50.5,-50.61 -96.44,-108.91 -118.18,-178.01 -18.98,-59.62 -13.36,-125.39 10,-182.95 27.35,-66.93 81.45,-119.34 142.28,-156.55 83.98,-51.15 179.47,-79.71 275.2,-99.36zm816.42 484.75c79.27,54.39 139.74,135.41 170.15,226.55 32.79,96.42 29.08,204.23 -8.81,298.64 -42.41,107.36 -123.25,195.49 -215.91,262.34 15.53,-58.41 11,-121.11 -9.04,-177.87 -15.89,-44.45 -40.22,-85.81 -70.69,-121.79 42.49,-9.55 80.84,-33.84 109.58,-66.29 31.91,-35.67 52.59,-80.48 62.42,-127.09 10.72,-49.86 9.82,-101.62 1.94,-151.81 -7.6,-48.91 -21.97,-96.53 -39.64,-142.68zm-1529.24 -99.3c39.89,-50.04 87.48,-93.64 139.19,-131.21 -16.09,61.57 -10.43,127.73 12.42,186.84 15.94,41.18 39.09,79.52 67.6,113.21 -53.95,11.2 -100.23,47.43 -130.49,92.66 -36.65,54.26 -51.02,121.09 -49.47,185.91 1.05,71.82 19.96,142.16 45.37,208.93 -63.48,-43.7 -115.16,-104.37 -148.57,-173.8 -36.95,-75.33 -51.06,-161.53 -40.33,-244.71 11.05,-87.2 49.73,-169.43 104.28,-237.83zm1044.72 -285.99c138.61,-31.21 278.81,-54.75 419.5,-74.14 -64.85,82.87 -130.62,165.05 -195.88,247.61 -103.43,0.11 -208.32,10.38 -306.46,44.71 -38.2,13.83 -75.59,31.37 -107.73,56.5 -33.4,26.2 -56.5,67.63 -54.13,110.82 2.08,46.02 26.11,87.48 54.13,122.71 -34.82,-23.25 -68.06,-48.9 -98.97,-77.18 -32.45,-29.95 -62.65,-63.58 -82.38,-103.42 -16.36,-32.84 -23.13,-71.75 -11.9,-107.32 11.98,-39.66 41.54,-71.08 73.6,-95.95 57.95,-43.76 126.09,-71.47 194.67,-93.82 37.83,-12.62 76.74,-21.5 115.55,-30.52z"/>
   <path class="fil1" d="M1687.23 534.47c9.53,22.23 14.22,46.31 18.7,70 9.42,56.61 7.24,115.84 -11.02,170.51 -15.09,45.3 -41.44,87.43 -78.29,118.16 -26.66,22.27 -58.64,38.39 -92.77,45.27 -68.65,-62.76 -146.81,-114.81 -229.87,-156.47 -1.59,-0.96 -3.11,-1.91 -4.63,-2.91 57.68,5.56 116.4,3.06 172.96,-10.05 43.88,-10.33 86.55,-27.32 123.79,-52.95 36.7,-25.23 67.63,-59.92 84.68,-101.34 10.66,-25.36 15.71,-52.79 16.45,-80.22zm-1320.23 182.9c29.41,-30.28 67.73,-51.94 109.12,-60.65 70.05,63.95 149.8,117.05 234.87,158.9 -26.04,-0.95 -52.08,-3.53 -78.11,-1.73 -78.78,3.02 -159.42,22.51 -224.21,69.02 -39.56,28.41 -71.49,68.56 -85.96,115.4 -6.57,20.37 -9.12,41.75 -10.23,63.05 -22.82,-63.82 -30.46,-133.79 -17.9,-200.67 10.15,-53.18 33.97,-104.64 72.42,-143.32z"/>
  </g>
 </g>
</svg>
