<?xml version="1.0" encoding="UTF-8"?>
<!DOCTYPE svg PUBLIC "-//W3C//DTD SVG 1.1//EN" "http://www.w3.org/Graphics/SVG/1.1/DTD/svg11.dtd">
<!-- Creator: CorelDRAW -->
<svg xmlns="http://www.w3.org/2000/svg" xml:space="preserve" width="2000px" height="1600px" version="1.1" style="shape-rendering:geometricPrecision; text-rendering:geometricPrecision; image-rendering:optimizeQuality; fill-rule:evenodd; clip-rule:evenodd"
viewBox="0 0 2000 1600"
 xmlns:xlink="http://www.w3.org/1999/xlink">
 <defs>
  <style type="text/css">
   <![CDATA[
    .fil2 {fill:#072F5B;fill-rule:nonzero}
    .fil1 {fill:#D2D2D2;fill-rule:nonzero}
    .fil3 {fill:#D90022;fill-rule:nonzero}
    .fil0 {fill:#FEFEFE;fill-rule:nonzero}
   ]]>
  </style>
 </defs>
 <g id="Capa_x0020_1">
  <metadata id="CorelCorpID_0Corel-Layer"/>
  <g id="Saint_x0020_Marys_x0020_Gaels.cdr">
   <path class="fil0" d="M970.32 999.89c6.49,-3.84 13.44,-7.99 21.29,-7.52 30.97,0.02 61.92,0.08 92.89,-0.02 -9.7,15.26 -19.36,30.53 -29.15,45.75 -3.95,-6.92 -11.33,-11.5 -19.39,-11.31 -17.61,-0.11 -35.24,-0.05 -52.87,-0.02 -7.17,-0.09 -15.39,2.26 -18.65,9.3 -5.18,12.58 -3.59,26.51 -4.5,39.77 -0.26,19.09 -0.02,38.18 -0.11,57.27 0.04,15.47 2.96,31.16 10.32,44.92 12.62,23.85 37.25,40.85 63.91,44.64 12.03,1.5 20.78,-11.02 20.87,-21.97 0.12,-25.41 0,-50.85 0.04,-76.26 -10.57,0.66 -22.79,1.04 -29.77,10.34 -8.56,-13.41 -18.81,-25.79 -25.71,-40.19 26.92,-0.42 53.81,-0.09 80.72,-0.19 5.9,-0.83 10.66,3.95 12.54,9.11 2.68,7.36 2.71,15.33 2.92,23.09 -0.02,21.88 0,43.76 0.02,65.64 0.29,6.96 -4.25,12.73 -7.93,18.18 -10.3,14.06 -22.52,26.9 -36.98,36.73 -6.21,4.29 -13.53,7.23 -21.18,6.89 -11.71,-0.23 -24.1,1.48 -34.95,-4.06 -22.24,-10.63 -40.76,-28.2 -54.63,-48.41 -11.58,-17.19 -19.66,-37.21 -20.84,-58.04 -0.3,-22.58 0.42,-45.16 -0.49,-67.71 0.38,-11.25 0.63,-23.64 7.86,-32.92 12.03,-16.64 26.35,-31.95 43.77,-43.01z"/>
   <path class="fil1" d="M612.01 139.32l318.75 0c-7.02,11.61 -13.44,23.58 -20.02,35.44 -10.7,19.79 -7.7,45.09 5.37,63.06 34.38,49.22 67.99,99.01 102.75,147.97 34.54,-49.17 68.43,-98.79 102.71,-148.14 12.98,-17.8 15.89,-42.87 5.47,-62.55 -6.51,-12.01 -13.34,-23.85 -20.02,-35.78l318.71 0c-14.67,12.37 -29.09,25.06 -43.4,37.8 -25.25,25.27 -36.09,61.02 -41.86,95.37 -2.71,16.77 -4.04,33.75 -4.32,50.72 1.14,43.56 0.13,87.15 0.66,130.7 68.35,-39.45 145.01,-64.46 223.64,-71.9 90.21,-8.54 183.02,-1.04 268.64,29.81 38.61,13.76 75.41,32.43 109.66,54.9 21.31,13.85 41.27,29.69 61.25,45.35l0 1.5c-56.4,36.13 -112.77,72.33 -169.39,108.12 0,-16.43 -1.69,-33.93 -11.77,-47.57 -7.27,-11.03 -20.02,-15.98 -31.5,-21.31 -34.95,-16 -72.54,-25.9 -110.7,-30 -80,-8.45 -162.73,2.37 -236.17,35.88 -36.09,16.28 -69.58,37.89 -100.74,62.18 -5.31,4.06 -2.39,11.71 -3.13,17.42 1.22,21.71 -3.55,44.88 6.34,65.24 6.09,13.45 17.27,23.57 29.01,32.12 34.18,26.25 71.81,48.39 112.49,62.98 69.35,24.77 145.2,29.11 217.59,17.1 36.11,-6.47 71.57,-17.99 103.76,-35.71 19.9,-12.43 25.63,-37.61 24.82,-59.6 56.6,35.82 112.94,72.05 169.39,108.14l0 1.46c-27.76,22.22 -56.26,43.74 -87.19,61.42 -68.33,39.89 -146,62.62 -224.67,69.36 -88.43,7.42 -179.15,-0.48 -262.94,-30.82 -66.91,-24.06 -128.67,-62.77 -178.54,-113.55 -21.71,-22.79 -36.57,-51.21 -46.28,-80.95 -24.9,23.04 -50.68,45.15 -75.45,68.35 32.68,25.24 66.04,49.74 101.46,71.05 21.22,12.73 43.12,24.72 66.57,32.9 13.47,4.93 27.89,5.69 41.99,7.51 0.38,82.43 0.02,164.86 0.17,247.29 -0.95,38.58 -14.4,76 -33.26,109.34 -34.06,59.54 -88.58,104.87 -148.33,137.19 -40.55,22.24 -84.14,38.19 -128.31,51.57l-15.58 0c-13.07,-5.41 -26.85,-8.73 -40.08,-13.64 -67.38,-23.66 -132.35,-57.93 -183.62,-108.35 -26.74,-26.45 -49.32,-57.34 -64.71,-91.73 -12.6,-28.46 -21.4,-59.31 -20.43,-90.66 0.19,-80.34 -0.21,-160.7 0.19,-241.04 14.61,-1.79 29.52,-2.85 43.43,-8.11 31.58,-11.31 60.46,-28.82 88.63,-46.79 27.1,-17.86 53.53,-36.81 78.83,-57.12 -24.92,-24.04 -50.84,-47.02 -76.36,-70.43 -47.38,-43.06 -94.84,-86.47 -147.61,-122.96 -57.25,-39.49 -121.78,-69.6 -190.43,-82.37 -45.49,-8.69 -92.22,-9.04 -138.2,-4.63 -36.76,3.81 -73.7,12.16 -106.38,29.94 -6.16,3.83 -13.53,8.16 -15.31,15.75 0.76,6.56 7.76,9.26 13.09,11.4 13.93,4.65 28.5,7.04 42.98,9.3 46.3,6.81 93,10.51 139.74,12.6 50.22,1.73 100.3,7.63 149.45,18.08 49.16,10.78 98.46,25.92 140.72,53.99 24.97,15.75 47.8,35.56 64.25,60.28 9.41,13.7 15.5,29.26 23.15,43.93 -29.43,51.01 -74.88,90.95 -124.58,121.56 -54.47,33.72 -116.07,54.74 -178.99,65.67 -79.58,13.72 -161.78,14.97 -241.04,-1.54 -78.73,-16.24 -154.73,-48.93 -217.95,-99.01 -17.48,-13.53 -32.55,-29.79 -48.41,-45.12l0 -1.12c57.19,-36.06 113.87,-72.96 171.06,-109.07 -1.59,8.59 -3.49,17.4 -1.86,26.13 2.77,17.09 14.5,31.48 28.77,40.68 58.56,38.96 129.13,60.02 199.51,58.52 67.26,-2.07 135.61,-16.68 193.92,-51.33 6.59,-4.38 15.83,-9.16 15.85,-18.22 -3,-7.36 -11.2,-10.01 -18.22,-11.91 -61.82,-15.83 -125.96,-17.78 -189.37,-21.08 -50.99,-2.89 -101.86,-8.66 -152.03,-18.33 -39.05,-7.67 -77.82,-17.67 -114.56,-33.08 -26.85,-11.59 -53.13,-25.9 -74.06,-46.62 -14.89,-14.5 -26.54,-32.66 -31.89,-52.85 -2.22,-8.04 1.38,-16.16 4.51,-23.41 11.79,-24.71 31.31,-44.56 51.05,-63.06 64,-57.64 145.46,-94.59 230.3,-108.12 87.44,-13.83 178.56,-11 263.43,15.52 43.63,13.34 84.92,33.13 124.86,54.96 0.27,-41.14 0,-82.28 0.13,-123.42 0.19,-22.14 -1.29,-44.34 -5.14,-66.15 -6.03,-32.62 -16.85,-66.35 -41.06,-90.17 -14.31,-12.84 -28.84,-25.46 -43.19,-38.23zm55.85 21.74l0 0c19.12,14.39 31.53,35.62 38.88,58.05 13.03,39.58 16.37,81.67 15.78,123.11 0.02,42.81 -0.05,85.62 0.04,128.46 35.66,22.28 70.25,46.28 104.04,71.33 0.1,-69.28 0,-138.54 0.06,-207.8 64.1,89.32 127.89,178.88 192.13,268.07 64.25,-89.19 128,-178.75 192.14,-268.03 -0.11,109.77 0,219.51 -0.06,329.28 0.72,41.93 11.96,84.4 35.92,119.18 12.51,18.2 29.26,32.83 45.9,47.14 62.83,53.11 140.52,87.28 221.18,102.07 76.66,13.87 155.94,13.64 232.47,-0.95 79.2,-15.18 154.44,-49.95 217.62,-100.06 -39.1,-25.07 -78.33,-49.85 -117.36,-75.01 -3.05,19.17 -16.28,35.43 -33.11,44.52 -36.15,18.9 -75.5,31.57 -115.81,37.72 -80.05,11.65 -163.94,4.97 -238.95,-26.51 -39.95,-16.6 -76.68,-40.23 -110.32,-67.32 -20.76,-16.97 -33.34,-43.29 -33.36,-70.14 -0.1,-107.09 -0.02,-214.15 -0.04,-321.23 -0.74,-43.49 1.46,-87.7 14.4,-129.52 7.34,-23.99 19.87,-47.23 40.42,-62.36 -51.35,-0.19 -102.7,0.02 -154.04,-0.09 -24.08,-0.99 -48.18,-0.27 -72.28,-0.53 12.45,20.7 14.84,47.04 6.15,69.6 -4.33,12.16 -12.37,22.39 -19.57,32.92 -37.11,53.64 -74.21,107.25 -111.27,160.91 -40.74,-58.92 -81.57,-117.76 -122.2,-176.77 -17.19,-25.35 -18.61,-60.36 -2.6,-86.64 -22.48,0.17 -44.97,-0.44 -67.44,0.51 -52.9,0.09 -105.8,-0.08 -158.72,0.09zm900.66 241.73l0 0c-82.22,7.08 -162.56,33.68 -232.9,76.79 0.05,39.13 -0.1,78.26 0.07,117.42 26.19,-19.41 53.61,-37.34 83,-51.52 46.79,-23.3 97.8,-37.81 149.7,-43.62 80.98,-8.84 165.88,-0.3 239.26,36.94 19.41,8.58 35.54,25.96 38.95,47.37 39.15,-24.97 78.29,-49.95 117.42,-74.94 -39.49,-31.06 -83.38,-56.62 -130.23,-74.78 -83.98,-32.84 -175.9,-41.31 -265.27,-33.66zm-1396.26 54.61l0 0c-36.47,20.49 -70.72,45.67 -98.62,77 -9.48,11.05 -18.71,22.73 -24.19,36.34 -3.19,6.41 1.25,12.94 3.49,18.86 14.75,30.65 44.14,50.91 73.91,65.37 39.28,19.11 81.95,30.13 124.63,38.6 55.71,10.64 112.28,16.16 168.92,18.31 46.81,2.64 93.68,6.07 139.96,13.93 21.08,3.85 42.41,8.17 62.03,17.13 8.73,4.33 18.71,9.94 21.42,20.06 -0.81,6.09 -4.74,11.16 -8.88,15.48 -14.11,14.78 -31.7,25.79 -50.15,34.31 -67.89,32.41 -144.02,46.87 -219.07,42.67 -64.12,-4.91 -127.21,-25.97 -180.57,-62.01 -16.24,-10.34 -32.39,-25.23 -34.36,-45.52 -39.13,24.86 -78.18,49.87 -117.27,74.78 33.8,33.97 74.88,60.04 117.97,80.63 72.03,34.1 151.8,50.38 231.31,51.35 67.04,-0.5 134.52,-8.6 198.63,-28.81 60.97,-19.22 119.26,-50.19 164.67,-95.75 15.47,-16.03 30.02,-33.43 40.17,-53.39 -4.82,-10.31 -8.78,-21.07 -14.97,-30.69 -19.51,-32.29 -51.27,-55.08 -84.69,-71.31 -41.23,-19.75 -85.92,-31.19 -130.83,-38.9 -43.25,-7.36 -87.06,-11.27 -130.91,-12.9 -49.51,-2.37 -99.09,-6.26 -147.88,-15.16 -20.19,-4.1 -40.81,-8.37 -59.16,-18.12 -7,-4.06 -15.07,-10.02 -15.35,-18.88 4.57,-13.46 16.47,-22.49 28.19,-29.57 37.23,-23.94 81.22,-34.82 124.79,-39.43 46.37,-4.63 93.43,-4.55 139.39,3.48 67.78,11.46 132.09,39.2 189.58,76.49 53.91,34.99 102.16,77.76 149.62,120.85 32.03,28.99 63.93,58.12 95.6,87.51 24.57,-20.53 48.94,-41.29 73.26,-62.12 -43.01,-39.28 -83.28,-81.48 -127.74,-119.15 -55.27,-47.19 -113.72,-90.91 -176.3,-127.95 -62.09,-37 -130.47,-64.65 -202.29,-74.97 -36.93,-5.71 -74.41,-6.34 -111.69,-5.07 -73.76,3.23 -147.82,20.33 -212.62,56.55zm675.69 -56.62l0 0c-0.4,52.52 -0.04,105.03 -0.19,157.53 31.42,25.39 62.18,51.65 91.5,79.45 25.81,25.12 51.9,49.96 78.14,74.63 59.3,-49.6 112.73,-105.81 172.2,-155.22 0.29,-52.03 0.15,-104.08 0.08,-156.13 -57.48,78.83 -113.23,158.94 -170.97,237.56 -57.38,-78.94 -113.68,-158.66 -170.76,-237.82zm223 293.49l0 0c-33,29.07 -66.04,58.14 -99.24,87 -24.82,21.94 -50.65,42.71 -77.31,62.39 -35.01,25.71 -71.17,50.15 -110.02,69.72 -19.79,9.62 -40.43,18.35 -62.43,21.1 0.16,77.38 -0.13,154.76 0.14,232.14 4.63,60.46 37,116.09 79.94,157.72 35.01,34.65 77.53,60.95 122.09,81.45 30.55,13.68 62.05,25.63 94.49,33.89 38.75,-10.35 76.47,-24.88 112.34,-42.87 57.91,-29.28 111.57,-70.51 146.56,-125.9 20.57,-33.17 35.26,-71.06 36.4,-110.42 0.15,-75.31 -0.08,-150.62 0.13,-225.9 -36.07,-5.22 -68.35,-23.57 -99.3,-41.76 -37.32,-22.7 -72.73,-48.39 -106.98,-75.45 -24.27,20.4 -48.44,40.93 -72.69,61.37 41.42,33.03 83.98,64.89 129.77,91.63 16.87,9.49 34.06,19.05 52.88,24.08 0.1,49.73 0,99.43 0.06,149.13 -0.34,28.29 -10.84,55.8 -26.81,78.91 -15.68,22.68 -36.11,41.73 -58.18,58.09 -34.84,25.48 -73.8,44.99 -114.31,59.69 -35.65,-12.67 -69.85,-29.5 -101.46,-50.3 -26.93,-18.16 -52.22,-39.62 -70.97,-66.36 -17.04,-23.91 -27.76,-52.79 -27.89,-82.33 0.06,-48.94 -0.04,-97.89 0.06,-146.83 34.99,-10.36 65.67,-31.16 96.07,-50.78 35.52,-23.87 69.47,-50 102.77,-76.85 60.21,-50.4 120.13,-101.29 177.17,-155.24 -0.74,-11.65 -3.68,-23.3 -3.79,-35.12 -0.44,-30.53 0.03,-61.06 -0.21,-91.57 -41.01,35.06 -79.68,72.75 -119.28,109.37zm-150.1 270.72l0 0c-26.01,16.93 -52.63,33.42 -81.53,45.05 0.05,43.09 -0.08,86.16 0.07,129.22 0.1,19.92 5.35,39.66 14.82,57.15 14.14,26.15 35.79,47.4 59.38,65.09 31.97,23.68 67.74,41.88 104.85,56.05 42.28,-16.47 83.25,-37.7 118.09,-67.02 25.54,-21.88 48.19,-49.39 56.54,-82.6 4.82,-17.63 3.34,-36.03 3.55,-54.08 0,-34.61 0,-69.22 0,-103.81 -32.52,-13.46 -62.35,-32.49 -91.4,-52.17 -29.81,-20.41 -58.54,-42.35 -86.72,-64.93 -31.48,25.41 -63.93,49.66 -97.65,72.05z"/>
   <path class="fil2" d="M667.86 161.06c52.92,-0.17 105.82,0 158.72,-0.09 22.47,-0.95 44.96,-0.34 67.44,-0.51 -16.01,26.28 -14.59,61.29 2.6,86.64 40.63,59.01 81.46,117.85 122.2,176.77 37.06,-53.66 74.16,-107.27 111.27,-160.91 7.2,-10.53 15.24,-20.76 19.57,-32.92 8.69,-22.56 6.3,-48.9 -6.15,-69.6 24.1,0.26 48.2,-0.46 72.28,0.53 51.34,0.11 102.69,-0.1 154.04,0.09 -20.55,15.13 -33.08,38.37 -40.42,62.36 -12.94,41.82 -15.14,86.03 -14.4,129.52 0.02,107.08 -0.06,214.14 0.04,321.23 0.02,26.85 12.6,53.17 33.36,70.14 33.64,27.09 70.37,50.72 110.32,67.32 75.01,31.48 158.9,38.16 238.95,26.51 40.31,-6.15 79.66,-18.82 115.81,-37.72 16.83,-9.09 30.06,-25.35 33.11,-44.52 39.03,25.16 78.26,49.94 117.36,75.01 -63.18,50.11 -138.42,84.88 -217.62,100.06 -76.53,14.59 -155.81,14.82 -232.47,0.95 -80.66,-14.79 -158.35,-48.96 -221.18,-102.07 -16.64,-14.31 -33.39,-28.94 -45.9,-47.14 -23.96,-34.78 -35.2,-77.25 -35.92,-119.18 0.06,-109.77 -0.05,-219.51 0.06,-329.28 -64.14,89.28 -127.89,178.84 -192.14,268.03 -64.24,-89.19 -128.03,-178.75 -192.13,-268.07 -0.06,69.26 0.04,138.52 -0.06,207.8 -33.79,-25.05 -68.38,-49.05 -104.04,-71.33 -0.09,-42.84 -0.02,-85.65 -0.04,-128.46 0.59,-41.44 -2.75,-83.53 -15.78,-123.11 -7.35,-22.43 -19.76,-43.66 -38.88,-58.05zm403.09 533.21c39.6,-36.62 78.27,-74.31 119.28,-109.37 0.24,30.51 -0.23,61.04 0.21,91.57 0.11,11.82 3.05,23.47 3.79,35.12 -57.04,53.95 -116.96,104.84 -177.17,155.24 -33.3,26.85 -67.25,52.98 -102.77,76.85 -30.4,19.62 -61.08,40.42 -96.07,50.78 -0.1,48.94 0,97.89 -0.06,146.83 0.13,29.54 10.85,58.42 27.89,82.33 18.75,26.74 44.04,48.2 70.97,66.36 31.61,20.8 65.81,37.63 101.46,50.3 40.51,-14.7 79.47,-34.21 114.31,-59.69 22.07,-16.36 42.5,-35.41 58.18,-58.09 15.97,-23.11 26.47,-50.62 26.81,-78.91 -0.06,-49.7 0.04,-99.4 -0.06,-149.13 -18.82,-5.03 -36.01,-14.59 -52.88,-24.08 -45.79,-26.74 -88.35,-58.6 -129.77,-91.63 24.25,-20.44 48.42,-40.97 72.69,-61.37 34.25,27.06 69.66,52.75 106.98,75.45 30.95,18.19 63.23,36.54 99.3,41.76 -0.21,75.28 0.02,150.59 -0.13,225.9 -1.14,39.36 -15.83,77.25 -36.4,110.42 -34.99,55.39 -88.65,96.62 -146.56,125.9 -35.87,17.99 -73.59,32.52 -112.34,42.87 -32.44,-8.26 -63.94,-20.21 -94.49,-33.89 -44.56,-20.5 -87.08,-46.8 -122.09,-81.45 -42.94,-41.63 -75.31,-97.26 -79.94,-157.72 -0.27,-77.38 0.02,-154.76 -0.14,-232.14 22,-2.75 42.64,-11.48 62.43,-21.1 38.85,-19.57 75.01,-44.01 110.02,-69.72 26.66,-19.68 52.49,-40.45 77.31,-62.39 33.2,-28.86 66.24,-57.93 99.24,-87zm-898.69 -236.87c64.8,-36.22 138.86,-53.32 212.62,-56.55 37.28,-1.27 74.76,-0.64 111.69,5.07 71.82,10.32 140.2,37.97 202.29,74.97 62.58,37.04 121.03,80.76 176.3,127.95 44.46,37.67 84.73,79.87 127.74,119.15 -24.32,20.83 -48.69,41.59 -73.26,62.12 -31.67,-29.39 -63.57,-58.52 -95.6,-87.51 -47.46,-43.09 -95.71,-85.86 -149.62,-120.85 -57.49,-37.29 -121.8,-65.03 -189.58,-76.49 -45.96,-8.03 -93.02,-8.11 -139.39,-3.48 -43.57,4.61 -87.56,15.49 -124.79,39.43 -11.72,7.08 -23.62,16.11 -28.19,29.57 0.28,8.86 8.35,14.82 15.35,18.88 18.35,9.75 38.97,14.02 59.16,18.12 48.79,8.9 98.37,12.79 147.88,15.16 43.85,1.63 87.66,5.54 130.91,12.9 44.91,7.71 89.6,19.15 130.83,38.9 33.42,16.23 65.18,39.02 84.69,71.31 6.19,9.62 10.15,20.38 14.97,30.69 -10.15,19.96 -24.7,37.36 -40.17,53.39 -45.41,45.56 -103.7,76.53 -164.67,95.75 -64.11,20.21 -131.59,28.31 -198.63,28.81 -79.51,-0.97 -159.28,-17.25 -231.31,-51.35 -43.09,-20.59 -84.17,-46.66 -117.97,-80.63 39.09,-24.91 78.14,-49.92 117.27,-74.78 1.97,20.29 18.12,35.18 34.36,45.52 53.36,36.04 116.45,57.1 180.57,62.01 75.05,4.2 151.18,-10.26 219.07,-42.67 18.45,-8.52 36.04,-19.53 50.15,-34.31 4.14,-4.32 8.07,-9.39 8.88,-15.48 -2.71,-10.12 -12.69,-15.73 -21.42,-20.06 -19.62,-8.96 -40.95,-13.28 -62.03,-17.13 -46.28,-7.86 -93.15,-11.29 -139.96,-13.93 -56.64,-2.15 -113.21,-7.67 -168.92,-18.31 -42.68,-8.47 -85.35,-19.49 -124.63,-38.6 -29.77,-14.46 -59.16,-34.72 -73.91,-65.37 -2.24,-5.92 -6.68,-12.45 -3.49,-18.86 5.48,-13.61 14.71,-25.29 24.19,-36.34 27.9,-31.33 62.15,-56.51 98.62,-77zm1396.26 -54.61c89.37,-7.65 181.29,0.82 265.27,33.66 46.85,18.16 90.74,43.72 130.23,74.78 -39.13,24.99 -78.27,49.97 -117.42,74.94 -3.41,-21.41 -19.54,-38.79 -38.95,-47.37 -73.38,-37.24 -158.28,-45.78 -239.26,-36.94 -51.9,5.81 -102.91,20.32 -149.7,43.62 -29.39,14.18 -56.81,32.11 -83,51.52 -0.17,-39.16 -0.02,-78.29 -0.07,-117.42 70.34,-43.11 150.68,-69.71 232.9,-76.79z"/>
   <path class="fil3" d="M920.85 964.99c33.72,-22.39 66.17,-46.64 97.65,-72.05 28.18,22.58 56.91,44.52 86.72,64.93 29.05,19.68 58.88,38.71 91.4,52.17 0,34.59 0,69.2 0,103.81 -0.21,18.05 1.27,36.45 -3.55,54.08 -8.35,33.21 -31,60.72 -56.54,82.6 -34.84,29.32 -75.81,50.55 -118.09,67.02 -37.11,-14.17 -72.88,-32.37 -104.85,-56.05 -23.59,-17.69 -45.24,-38.94 -59.38,-65.09 -9.47,-17.49 -14.72,-37.23 -14.82,-57.15 -0.15,-43.06 -0.02,-86.13 -0.07,-129.22 28.9,-11.63 55.52,-28.12 81.53,-45.05zm49.47 34.9l0 0c-17.42,11.06 -31.74,26.37 -43.77,43.01 -7.23,9.28 -7.48,21.67 -7.86,32.92 0.91,22.55 0.19,45.13 0.49,67.71 1.18,20.83 9.26,40.85 20.84,58.04 13.87,20.21 32.39,37.78 54.63,48.41 10.85,5.54 23.24,3.83 34.95,4.06 7.65,0.34 14.97,-2.6 21.18,-6.89 14.46,-9.83 26.68,-22.67 36.98,-36.73 3.68,-5.45 8.22,-11.22 7.93,-18.18 -0.02,-21.88 -0.04,-43.76 -0.02,-65.64 -0.21,-7.76 -0.24,-15.73 -2.92,-23.09 -1.88,-5.16 -6.64,-9.94 -12.54,-9.11 -26.91,0.1 -53.8,-0.23 -80.72,0.19 6.9,14.4 17.15,26.78 25.71,40.19 6.98,-9.3 19.2,-9.68 29.77,-10.34 -0.04,25.41 0.08,50.85 -0.04,76.26 -0.09,10.95 -8.84,23.47 -20.87,21.97 -26.66,-3.79 -51.29,-20.79 -63.91,-44.64 -7.36,-13.76 -10.28,-29.45 -10.32,-44.92 0.09,-19.09 -0.15,-38.18 0.11,-57.27 0.91,-13.26 -0.68,-27.19 4.5,-39.77 3.26,-7.04 11.48,-9.39 18.65,-9.3 17.63,-0.03 35.26,-0.09 52.87,0.02 8.06,-0.19 15.44,4.39 19.39,11.31 9.79,-15.22 19.45,-30.49 29.15,-45.75 -30.97,0.1 -61.92,0.04 -92.89,0.02 -7.85,-0.47 -14.8,3.68 -21.29,7.52z"/>
  </g>
 </g>
</svg>
