<?xml version="1.0" encoding="UTF-8"?>
<!DOCTYPE svg PUBLIC "-//W3C//DTD SVG 1.1//EN" "http://www.w3.org/Graphics/SVG/1.1/DTD/svg11.dtd">
<!-- Creator: CorelDRAW -->
<svg xmlns="http://www.w3.org/2000/svg" xml:space="preserve" width="2000px" height="1600px" version="1.1" style="shape-rendering:geometricPrecision; text-rendering:geometricPrecision; image-rendering:optimizeQuality; fill-rule:evenodd; clip-rule:evenodd"
viewBox="0 0 2000 1600"
 xmlns:xlink="http://www.w3.org/1999/xlink">
 <defs>
  <style type="text/css">
   <![CDATA[
    .fil1 {fill:#003CA6;fill-rule:nonzero}
    .fil2 {fill:#C9C7C7;fill-rule:nonzero}
    .fil0 {fill:#FEFEFE;fill-rule:nonzero}
   ]]>
  </style>
 </defs>
 <g id="Capa_x0020_1">
  <metadata id="CorelCorpID_0Corel-Layer"/>
  <g id="Saint_x0020_Louis_x0020_Billikens.cdr">
   <path class="fil0" d="M938.84 83.54c12.23,12.99 21.1,28.74 28.33,44.95 16.2,36.86 24.18,76.76 28.66,116.61 4.84,42.56 4.17,85.45 4.15,128.21 -0.2,84.49 0.42,168.99 -0.31,253.48 -48.08,17.26 -92.15,47.34 -123.84,87.66 -38.16,10 -76.84,19.18 -113.26,34.63 44.27,3.32 88.69,3.91 133.02,2.51 29.27,-30.84 65.22,-55.49 104.81,-71.08 39.03,16.14 75.18,40 103.96,71.04 27.41,0.96 54.85,1 82.27,0.15 -2.85,1.39 -5.59,2.95 -8.53,4.07 -59.34,19.28 -118.78,38.3 -178.04,57.86 -0.12,61.02 -0.16,122.04 0.04,183.05 25.19,-4.07 49.74,-11.24 74.03,-18.88 62.58,-20.31 122.81,-47.29 181.24,-77.41 65.18,-33.8 128,-72.04 188.88,-113.07 2.82,1.54 5.65,3.06 8.51,4.58 -21.8,24.85 -47.01,46.46 -73,66.79 -98.22,75.53 -211.96,128.83 -329.43,166.83 -16.97,5.02 -33.76,11.38 -51.06,14.72 -73.07,-20.17 -144.41,-46.82 -212.66,-79.8 -73.07,-35.74 -143.07,-78.9 -203.91,-133.18 -12.41,-11.1 -24.38,-22.7 -35.28,-35.28 41.3,-21.15 86.77,-32.02 131.36,-43.87 -25.6,-2.31 -51.4,-1.82 -76.98,0.34 -32.56,2.88 -65.03,9.2 -95.39,21.55 -17.21,31.42 -27.26,66.23 -33.64,101.33 -3.91,22.52 -6.64,45.31 -7.01,68.17 16.37,-43.22 32.47,-87.15 57.78,-126.13 27.33,35.48 59.49,66.99 92.93,96.68 110.74,96.45 243.05,167.15 383.18,210.27 0.73,26.01 0.19,52.05 0.27,78.06 -36.88,-7.33 -71.47,-22.77 -105.1,-39.13 -16.4,-8.28 -32.58,-16.99 -48.48,-26.17 1.4,1.84 2.83,3.73 4.23,5.63 2.07,4.72 4.44,9.36 7.6,13.49 37.24,51.57 83.56,96.87 137.11,131.34 1.98,1.58 5.21,3.02 4.68,6.16 0,88.67 0.12,177.36 -0.08,266.04 -72.25,-28.19 -140.19,-66.55 -204.4,-109.87 -123.52,-83.79 -232.73,-187.81 -325.95,-304.2 -61.71,-77.12 -116.58,-159.68 -164.32,-246.14 24.11,-53.28 62.38,-99.58 107.55,-136.44 58.09,-47.33 129.11,-77.55 202.59,-90.88 -15.01,-1.34 -30.13,-0.08 -45.14,0.79 -66.55,5.04 -133.25,20.66 -192.12,52.86 -32.61,-42.27 -49.89,-95.82 -49.58,-149.1 1.03,-36.38 6.46,-72.45 12.21,-108.35 9.88,-60.14 22.44,-119.78 33.07,-179.77 2.96,-18.25 6.54,-36.5 7.07,-55.03 91.77,51.1 164.62,139.32 188.64,242.51 -22.28,24.32 -44.23,49.09 -63.68,75.77 -6.72,9.38 -13.32,18.93 -18.39,29.32 2.8,-20.53 6.28,-40.95 9.36,-61.42 -18.98,-33.16 -47.27,-61.53 -81.72,-78.42 -12.09,48.67 -18.9,99.28 -14.1,149.42 2.31,21.65 7.27,43.31 17.54,62.65 32.04,-12.88 66.37,-21.47 101.05,-21.23 31.2,-48.85 70.13,-92.37 112.44,-131.81 42.86,-39.47 89.86,-74.57 140.31,-103.79 8.29,-38.65 12.56,-78.66 7.64,-118.06 -2.37,-18.53 -7.25,-36.88 -15.84,-53.55 51.42,13.03 101.37,38.5 136.33,79.17 6.88,7.52 11.76,16.55 18.22,24.37 28.48,-76.52 35.91,-160.81 20.18,-241zm245.99 522.33c12.56,-6.3 25.07,-12.68 38.01,-18.18 7.19,11.05 0.45,27.24 -12.27,30.27 -10.25,3.37 -21.35,-2.57 -25.74,-12.09zm-497.3 -69.61l0 0c-34,13.43 -60.51,41.66 -77.18,73.64 15.45,-10.33 31.68,-19.58 49.03,-26.33 23.94,-9.37 50.43,-14.96 75.97,-9.41 30.34,6.33 58.47,19.95 85.85,34.04 -18.55,-6.4 -37.85,-10.93 -57.51,-11.85 -30.49,-1.88 -62.75,6.67 -85.07,28.34 40.06,-8.43 81.93,-0.57 119.21,15.15 28.03,11.1 60.7,14.76 88.99,2.53 23.21,-9.78 41.14,-31.29 45.59,-56.22 -24.56,10.04 -54.44,7.45 -75.32,-9.58 -21.77,-18.31 -45.85,-34.72 -73.27,-43.22 -31.23,-9.81 -65.66,-8.33 -96.29,2.91z"/>
   <path class="fil1" d="M1162.31 562.39c25.46,-18.88 55.57,-32.71 87.51,-34.75 31.03,-1.73 63.45,5.06 88.93,23.49 20.44,14.7 37.29,34.35 49.1,56.55 -31.9,-21.31 -69.03,-38.55 -108.26,-36.34 8.35,22.34 0.93,47.7 -14.74,64.93 25.56,2.23 51.34,9.4 72.59,24.16 -52.32,-4.65 -105.58,-3.7 -156.99,7.86 5.21,-7.92 12.36,-14.36 20.22,-19.58 -16.19,-5.35 -28.5,-18.74 -35.34,-34.03 -18.46,9.89 -41.16,15.39 -61.35,7.42 -16.06,-6.08 -27.34,-20.05 -35.18,-34.8 18.77,6.7 40.08,7.52 58.55,-0.53 13.45,-5.34 23.25,-16.34 34.96,-24.38zm-315.97 570.69c15.9,9.18 32.08,17.89 48.48,26.17 33.63,16.36 68.22,31.8 105.1,39.13 15.13,-1.58 29.57,-6.81 43.89,-11.67 37.63,-13.75 73.43,-32.02 108.23,-51.76 -38.34,45.85 -87.86,82 -142.28,106.45 -4.45,1.68 -9.38,5.08 -14.08,2.2 -27.2,-11.34 -52.84,-26.24 -76.81,-43.32 -25.22,-17.64 -47.28,-39.23 -68.3,-61.57 -1.4,-1.9 -2.83,-3.79 -4.23,-5.63zm-244.54 -384.63c25.58,-2.16 51.38,-2.65 76.98,-0.34 -44.59,11.85 -90.06,22.72 -131.36,43.87 10.9,12.58 22.87,24.18 35.28,35.28 60.84,54.28 130.84,97.44 203.91,133.18 68.25,32.98 139.59,59.63 212.66,79.8 17.3,-3.34 34.09,-9.7 51.06,-14.72 117.47,-38 231.21,-91.3 329.43,-166.83 25.99,-20.33 51.2,-41.94 73,-66.79 -2.86,-1.52 -5.69,-3.04 -8.51,-4.58 -6.16,-3.42 -12.68,-6.08 -19.22,-8.63 -33.27,-12.68 -67.62,-22.3 -102.24,-30.46 54.87,-3.24 111.23,0.45 163.24,19.42 3.35,1.4 7.7,2.23 9.08,6.14 25.8,49.97 35.99,106.53 38.92,162.27 -16.54,-42.31 -32.08,-85.67 -57.33,-123.75 -31.33,40.47 -68.38,76.18 -107.39,109.17 -107.96,90.71 -235.4,156.74 -369.66,198.84 -140.13,-43.12 -272.44,-113.82 -383.18,-210.27 -33.44,-29.69 -65.6,-61.2 -92.93,-96.68 -25.31,38.98 -41.41,82.91 -57.78,126.13 0.37,-22.86 3.1,-45.65 7.01,-68.17 6.38,-35.1 16.43,-69.91 33.64,-101.33 30.36,-12.35 62.83,-18.67 95.39,-21.55zm274.03 -34c31.69,-40.32 75.76,-70.4 123.84,-87.66 44.02,16.51 85.01,42.62 116.05,78.2 3.69,3.67 6.1,9.36 11.47,10.84 36.41,9.48 73.25,18.37 108.03,32.93 -16.18,1.52 -32.45,1.3 -48.59,2.94 -27.42,0.85 -54.86,0.81 -82.27,-0.15 -28.78,-31.04 -64.93,-54.9 -103.96,-71.04 -39.59,15.59 -75.54,40.24 -104.81,71.08 -44.33,1.4 -88.75,0.81 -133.02,-2.51 36.42,-15.45 75.1,-24.63 113.26,-34.63zm-188.3 -178.19c30.63,-11.24 65.06,-12.72 96.29,-2.91 27.42,8.5 51.5,24.91 73.27,43.22 20.88,17.03 50.76,19.62 75.32,9.58 -4.45,24.93 -22.38,46.44 -45.59,56.22 -28.29,12.23 -60.96,8.57 -88.99,-2.53 -37.28,-15.72 -79.15,-23.58 -119.21,-15.15 22.32,-21.67 54.58,-30.22 85.07,-28.34 19.66,0.92 38.96,5.45 57.51,11.85 -27.38,-14.09 -55.51,-27.71 -85.85,-34.04 -25.54,-5.55 -52.03,0.04 -75.97,9.41 -17.35,6.75 -33.58,16 -49.03,26.33 16.67,-31.98 43.18,-60.21 77.18,-73.64zm158.57 -536.26l48.85 0c71.53,3.1 143.81,18.13 206.74,53.33 56.91,31.71 106.63,79.31 133.91,139.08 24.98,-15.54 54.79,-20.62 83.73,-22.2 -19.95,31.39 -30.68,67.89 -34.29,104.71 -3.18,32.16 -1.76,64.75 4.15,96.54 36.7,18.64 71.13,41.64 103.31,67.28 13.43,-65.13 44.6,-126.11 88.15,-176.22 43.93,-50.93 99.09,-91.48 158.92,-121.84 14.79,-7.27 29.8,-14.16 45.33,-19.77 -4.03,43.95 0.46,88.14 6.91,131.63 13.44,89.49 37.28,177.23 46.37,267.38 5.19,50.21 2.9,101.77 -11.94,150.26 -9.87,32.02 -24.57,63.04 -46.26,88.81 33.31,24.2 63.33,53.08 87.73,86.32 12.91,17.78 24.73,36.57 33.28,56.87l0 2.33c-75.3,126.09 -164.46,244.23 -267.81,348.73 -108.19,109.84 -231.85,205.13 -368.3,277.25 -52.54,27.42 -106.76,52.21 -163.54,69.51l-2.76 0c-67.66,-21.01 -131.93,-51.73 -193.74,-86.06 -139.1,-78.24 -264.16,-180.29 -372.72,-297.01 -88.69,-95.47 -166.44,-200.89 -233.11,-312.81l0 -1.7c26.04,-57.93 70.32,-106.31 121.31,-143.49 -15.73,-18.15 -27.34,-39.46 -36.63,-61.51 -14.99,-36.28 -22.54,-75.43 -23.9,-114.6 -1.99,-73.11 13.97,-144.99 27.66,-216.36 13.71,-69.47 28.5,-139.3 29.57,-210.37 -0.12,-11.73 -0.81,-23.45 -1.56,-35.16 73.97,28.54 141.77,73.78 195.63,132.05 47.82,51.93 82.39,116.38 96.57,185.72 36.31,-30.9 78.23,-54.42 120.62,-75.86 6.08,-72.96 -14.54,-146.88 -52.17,-209.2 46.2,-0.69 92.92,4.27 136.97,18.71 22.26,7.46 44.03,17.26 62.95,31.34 1.23,-44.74 -1.76,-89.85 -11.83,-133.55 -5.95,-24.19 -13.61,-48.43 -27.14,-69.55 3,-0.21 6.02,-0.41 9.04,-0.59zm91.6 82.27l0 0 1.14 1.27c15.73,80.19 8.3,164.48 -20.18,241 -6.46,-7.82 -11.34,-16.85 -18.22,-24.37 -34.96,-40.67 -84.91,-66.14 -136.33,-79.17 8.59,16.67 13.47,35.02 15.84,53.55 4.92,39.4 0.65,79.41 -7.64,118.06 -50.45,29.22 -97.45,64.32 -140.31,103.79 -42.31,39.44 -81.24,82.96 -112.44,131.81 -34.68,-0.24 -69.01,8.35 -101.05,21.23 -10.27,-19.34 -15.23,-41 -17.54,-62.65 -4.8,-50.14 2.01,-100.75 14.1,-149.42 34.45,16.89 62.74,45.26 81.72,78.42 -3.08,20.47 -6.56,40.89 -9.36,61.42 5.07,-10.39 11.67,-19.94 18.39,-29.32 19.45,-26.68 41.4,-51.45 63.68,-75.77 -24.02,-103.19 -96.87,-191.41 -188.64,-242.51 -0.53,18.53 -4.11,36.78 -7.07,55.03 -10.63,59.99 -23.19,119.63 -33.07,179.77 -5.75,35.9 -11.18,71.97 -12.21,108.35 -0.31,53.28 16.97,106.83 49.58,149.1 58.87,-32.2 125.57,-47.82 192.12,-52.86 15.01,-0.87 30.13,-2.13 45.14,-0.79 -73.48,13.33 -144.5,43.55 -202.59,90.88 -45.17,36.86 -83.44,83.16 -107.55,136.44 47.74,86.46 102.61,169.02 164.32,246.14 93.22,116.39 202.43,220.41 325.95,304.2 64.21,43.32 132.15,81.68 204.4,109.87 14.7,-4.27 28.53,-10.97 42.57,-16.97 75.28,-34.35 145.92,-78.32 212.29,-127.61 59.55,-44.4 115.45,-93.63 167.7,-146.43 107.58,-109.71 199.49,-234.74 273.19,-369.52 -25.27,-55.52 -65.6,-103.52 -113.39,-141.12 -55.92,-44.08 -123.3,-72.19 -192.92,-85.8 42.17,-0.52 84.36,4.68 125.45,14.04 37.41,8.71 73.89,21.85 107.55,40.46 35.18,-45.71 52.86,-104.4 49.43,-161.94 -4.49,-69.06 -18.91,-136.95 -31.45,-204.86 -7.59,-42.23 -17.42,-84.23 -20.74,-127.07 -31.43,16.63 -59.79,38.7 -85.38,63.29 -50.6,48.89 -88.86,111.74 -104.04,180.78 11.54,11.67 22.13,24.22 32.89,36.6 18.71,22.44 37.71,45.12 51.07,71.29 -3.32,-21.77 -6.9,-43.5 -10.02,-65.28 19.14,-32.4 46.74,-60.41 80.57,-77.32 8.12,31.82 13.4,64.42 15.17,97.23 1.86,38.24 -0.75,78.36 -18.37,113.06 -31.78,-12.66 -65.73,-20.76 -100.07,-21.07 -6.65,-8.4 -11.85,-18.12 -18.52,-26.63 -62.09,-84.41 -142.68,-154.57 -232.7,-207.86 -5.17,-39.25 -16.49,-77.61 -32.43,-113.82 -20.96,-47.29 -51.12,-91 -90.69,-124.6 -47.33,-40.77 -107.65,-64.77 -169.34,-72.32zm247.13 523.6l0 0c4.39,9.52 15.49,15.46 25.74,12.09 12.72,-3.03 19.46,-19.22 12.27,-30.27 -12.94,5.5 -25.45,11.88 -38.01,18.18z"/>
   <path class="fil2" d="M937.7 82.27c61.69,7.55 122.01,31.55 169.34,72.32 39.57,33.6 69.73,77.31 90.69,124.6 15.94,36.21 27.26,74.57 32.43,113.82 90.02,53.29 170.61,123.45 232.7,207.86 6.67,8.51 11.87,18.23 18.52,26.63 34.34,0.31 68.29,8.41 100.07,21.07 17.62,-34.7 20.23,-74.82 18.37,-113.06 -1.77,-32.81 -7.05,-65.41 -15.17,-97.23 -33.83,16.91 -61.43,44.92 -80.57,77.32 3.12,21.78 6.7,43.51 10.02,65.28 -13.36,-26.17 -32.36,-48.85 -51.07,-71.29 -10.76,-12.38 -21.35,-24.93 -32.89,-36.6 15.18,-69.04 53.44,-131.89 104.04,-180.78 25.59,-24.59 53.95,-46.66 85.38,-63.29 3.32,42.84 13.15,84.84 20.74,127.07 12.54,67.91 26.96,135.8 31.45,204.86 3.43,57.54 -14.25,116.23 -49.43,161.94 -33.66,-18.61 -70.14,-31.75 -107.55,-40.46 -41.09,-9.36 -83.28,-14.56 -125.45,-14.04 69.62,13.61 137,41.72 192.92,85.8 47.79,37.6 88.12,85.6 113.39,141.12 -73.7,134.78 -165.61,259.81 -273.19,369.52 -52.25,52.8 -108.15,102.03 -167.7,146.43 -66.37,49.29 -137.01,93.26 -212.29,127.61 -14.04,6 -27.87,12.7 -42.57,16.97 0.2,-88.68 0.08,-177.37 0.08,-266.04 0.53,-3.14 -2.7,-4.58 -4.68,-6.16 -53.55,-34.47 -99.87,-79.77 -137.11,-131.34 -3.16,-4.13 -5.53,-8.77 -7.6,-13.49 21.02,22.34 43.08,43.93 68.3,61.57 23.97,17.08 49.61,31.98 76.81,43.32 4.7,2.88 9.63,-0.52 14.08,-2.2 54.42,-24.45 103.94,-60.6 142.28,-106.45 -34.8,19.74 -70.6,38.01 -108.23,51.76 -14.32,4.86 -28.76,10.09 -43.89,11.67 -0.08,-26.01 0.46,-52.05 -0.27,-78.06 134.26,-42.1 261.7,-108.13 369.66,-198.84 39.01,-32.99 76.06,-68.7 107.39,-109.17 25.25,38.08 40.79,81.44 57.33,123.75 -2.93,-55.74 -13.12,-112.3 -38.92,-162.27 -1.38,-3.91 -5.73,-4.74 -9.08,-6.14 -52.01,-18.97 -108.37,-22.66 -163.24,-19.42 34.62,8.16 68.97,17.78 102.24,30.46 6.54,2.55 13.06,5.21 19.22,8.63 -60.88,41.03 -123.7,79.27 -188.88,113.07 -58.43,30.12 -118.66,57.1 -181.24,77.41 -24.29,7.64 -48.84,14.81 -74.03,18.88 -0.2,-61.01 -0.16,-122.03 -0.04,-183.05 59.26,-19.56 118.7,-38.58 178.04,-57.86 2.94,-1.12 5.68,-2.68 8.53,-4.07 16.14,-1.64 32.41,-1.42 48.59,-2.94 -34.78,-14.56 -71.62,-23.45 -108.03,-32.93 -5.37,-1.48 -7.78,-7.17 -11.47,-10.84 -31.04,-35.58 -72.03,-61.69 -116.05,-78.2 0.73,-84.49 0.11,-168.99 0.31,-253.48 0.02,-42.76 0.69,-85.65 -4.15,-128.21 -4.48,-39.85 -12.46,-79.75 -28.66,-116.61 -7.23,-16.21 -16.1,-31.96 -28.33,-44.95l-1.14 -1.27zm224.61 480.12l0 0c-11.71,8.04 -21.51,19.04 -34.96,24.38 -18.47,8.05 -39.78,7.23 -58.55,0.53 7.84,14.75 19.12,28.72 35.18,34.8 20.19,7.97 42.89,2.47 61.35,-7.42 6.84,15.29 19.15,28.68 35.34,34.03 -7.86,5.22 -15.01,11.66 -20.22,19.58 51.41,-11.56 104.67,-12.51 156.99,-7.86 -21.25,-14.76 -47.03,-21.93 -72.59,-24.16 15.67,-17.23 23.09,-42.59 14.74,-64.93 39.23,-2.21 76.36,15.03 108.26,36.34 -11.81,-22.2 -28.66,-41.85 -49.1,-56.55 -25.48,-18.43 -57.9,-25.22 -88.93,-23.49 -31.94,2.04 -62.05,15.87 -87.51,34.75z"/>
  </g>
 </g>
</svg>
