<?xml version="1.0" encoding="UTF-8"?>
<!DOCTYPE svg PUBLIC "-//W3C//DTD SVG 1.1//EN" "http://www.w3.org/Graphics/SVG/1.1/DTD/svg11.dtd">
<!-- Creator: CorelDRAW -->
<svg xmlns="http://www.w3.org/2000/svg" xml:space="preserve" width="2000px" height="1600px" version="1.1" style="shape-rendering:geometricPrecision; text-rendering:geometricPrecision; image-rendering:optimizeQuality; fill-rule:evenodd; clip-rule:evenodd"
viewBox="0 0 2000 1600"
 xmlns:xlink="http://www.w3.org/1999/xlink">
 <defs>
  <style type="text/css">
   <![CDATA[
    .fil1 {fill:black;fill-rule:nonzero}
    .fil3 {fill:#7A0002;fill-rule:nonzero}
    .fil2 {fill:#BD1F23;fill-rule:nonzero}
    .fil0 {fill:#FEFEFE;fill-rule:nonzero}
   ]]>
  </style>
 </defs>
 <g id="Capa_x0020_1">
  <metadata id="CorelCorpID_0Corel-Layer"/>
  <g id="Saint_x0020_Francis_x0020_Red_x0020_Flash.cdr">
   <path class="fil0" d="M658.64 887.52c3.66,-9.58 9.05,-19.57 18.81,-24.07 2.35,5.19 3.58,10.89 2.55,16.59 -3.24,23.07 -13.97,45.24 -30.38,61.83 0.72,-18.37 2.71,-36.97 9.02,-54.35zm810.16 -467.69c44.89,-16.5 89.4,-34.13 134.47,-50.15 -5.04,4.96 -11.63,7.84 -17.48,11.65 -20.28,12.6 -40.52,25.27 -60.27,38.68 -8.92,6.21 -18.42,12.42 -24.09,21.98 -6.65,10.75 -7.72,23.76 -7.77,36.1 14.49,-12.98 31.96,-25.07 52.22,-25.02 10.73,-0.1 21.31,5.73 25.96,15.59 8.36,16.48 8.71,35.56 8.89,53.68 0,25.34 -0.02,50.72 0.72,76.06 14.15,-13.97 18.24,-34.18 26.44,-51.61 6.98,-14.95 12.7,-30.53 20.39,-45.12 1.97,40.21 1.74,83.47 -19.52,119.16 -8.33,14.16 -19.59,27.01 -33.85,35.42 -8.07,4.87 -17.43,6.69 -26.16,9.99 -41.47,15.17 -83.04,30.09 -124.51,45.32 -0.43,-41.67 0.23,-83.32 -0.31,-124.99 -8.96,-3.6 -17.62,-7.89 -26.57,-11.52 -5.16,6.13 -1.73,14.38 0.21,21.1 9.91,26.01 20.21,52.2 25.04,79.74 3.75,19.17 -2.3,40.35 -16.87,53.68 -26.11,24.73 -69.7,29.82 -100.36,10.73 -12,16.36 -26.39,32.09 -45.17,40.6 -9.48,4.58 -21.41,4.24 -29.25,-3.32 -12.19,13.98 -26.37,28.69 -45.48,31.89 -10.07,1.86 -19.96,-2.33 -26.98,-9.4 -14.13,17.19 -30.79,33.01 -50.95,42.84 -11.67,5.67 -26.98,8 -38.07,-0.15 -9.94,-8.36 -11.21,-22.28 -12.29,-34.34 -2.14,-36.66 -0.64,-73.4 -0.89,-110.09 -19.01,16.55 -38.33,32.78 -57.59,49.05 3.24,46.3 2.3,93.21 -6.9,138.81 -7.28,33.7 -19.44,68.3 -44.81,92.77 -21.39,20.88 -53.78,32.71 -83.22,23.97 -22.2,-6.03 -39.45,-23.3 -50.38,-42.98 -11.63,13.21 -30.48,21.21 -47.88,15.95 -1.51,17.27 -3.45,34.8 -9.97,51.02 -17.93,46.65 -62.26,81.15 -111.19,89.63 -37.12,6.97 -77.03,-10.65 -97.91,-41.93 -16.86,-25.5 -26.52,-54.83 -41.33,-81.45 0.94,39.78 2.19,80.56 -9.66,119.04 -8.28,28.02 -25.83,54.24 -51.87,68.5 -15.2,9.04 -32.8,12 -49.64,16.47 -32.35,8.13 -64.64,16.38 -97.01,24.3 1.91,-1.91 3.88,-3.81 6.18,-5.24 32.14,-20.56 64.03,-41.49 96.07,-62.18 22.68,-12.42 27.77,-40.07 30.5,-63.47 5.8,-51.25 6.62,-102.91 5.67,-154.45 -18.26,-1.61 -37.61,-8.05 -49.13,-23.09 -15.46,-18.99 -19.08,-46.12 -10.73,-68.94 10.12,-30.22 34.16,-54.06 61.91,-68.78 22.76,-12.03 48.16,-19.03 73.84,-20.97 29.51,-1.66 61.34,5.95 82.73,27.46 20.13,21.59 25.11,54.53 16.27,82.2 -11.44,36.51 -41.03,63.31 -71.05,85.13 10.12,4.29 19.39,10.7 26.47,19.21 19.44,22.72 25.62,54.35 48.01,74.89 13.82,13.31 34.33,19.8 53.11,14.59 29.08,-7.29 52.46,-29.1 68.27,-53.81 7.21,-11.37 11.55,-24.17 16.89,-36.41 -2.45,-2.61 -4.88,-5.19 -7.31,-7.74 -13.49,30.76 -33.06,61.11 -63.03,77.95 -15.38,8.94 -35.82,11.78 -51.3,1.53 -20.06,-14.05 -30.23,-38.19 -33.93,-61.7 -5.85,-31.94 0.23,-64.87 12.01,-94.74 8.68,-21.33 23.38,-41.29 44.2,-51.97 13.08,-6.71 30.12,-8.66 42.72,0.16 14.02,9.58 18.04,27.8 18.6,43.76 -0.46,37.64 -24.61,72.16 -56.24,91.12 1.82,5.67 2.94,11.8 6.52,16.68 1.79,3.22 5.9,0.66 8.3,-0.33 7.97,-4.32 13.93,-11.5 19.42,-18.55 13.64,-18.48 24.12,-39.25 31.73,-60.89 4.98,-13.03 3.78,-27.26 5.6,-40.88 2.04,-29.92 11.73,-61.14 34.77,-81.6 10.25,-9.79 24.76,-13.98 38.73,-12.22 0.31,-28.3 -0.97,-56.72 1.82,-84.95 22.43,-7.64 44.71,-15.76 67.27,-23.07 -6.8,61.27 -2.89,123.02 1,184.34 2.65,29.72 4.67,59.69 12.08,88.68 -17.27,5.93 -34.67,11.5 -51.79,17.84 12.04,8.61 28.41,14.74 42.52,7.25 20.59,-11.16 32.06,-33.52 39.47,-54.85 7.79,-29.23 5.26,-59.86 5.11,-89.78 -0.89,-49.44 -10.76,-100.18 3.73,-148.63 -8.74,9.87 -13.46,22.49 -17.78,34.75 -7.72,24.12 -12.19,49.13 -19.11,73.46 -5.57,-37.28 -13.24,-75.27 -7.05,-113.04 3.85,-27.56 14.53,-56.71 38.35,-73.07 20.69,-13.87 43.66,-24.06 66.86,-33.01 70.44,-24.42 140.78,-49.18 211.32,-73.3 -34.31,28.34 -70.62,54.29 -105.49,81.99 14.02,-5.01 27.95,-10.4 41.9,-15.58 -7.56,76.31 -8.61,153.22 -6.72,229.87 4.8,-5.52 14.66,-9.89 12.95,-18.55 -4.7,-46.86 -4.29,-97.78 20.34,-139.51 10.99,-19.44 32.32,-36.51 55.95,-30.99 0.69,-3.68 -0.63,-9.58 4.4,-10.35 21.18,-7.81 42.51,-15.3 63.64,-23.27 -6.87,38.25 -7.74,77.26 -8.2,115.99 0.18,15.13 -0.46,30.41 2.48,45.33 1.53,-1.76 4.6,-5.24 6.13,-6.97 -3.27,-11.94 -0.64,-25.38 7.87,-34.52 3.76,-4.73 9.66,-7 13.75,-11.29 12.44,-36.67 5.8,-78.11 24.73,-112.83 11.57,-21.69 34.64,-33.68 57.51,-40.04 13.29,21.67 25.58,43.95 36.18,67.07 0.51,-33.57 -0.03,-67.15 0.79,-100.69 1.08,-25.63 20.26,-48.32 44.05,-56.65zm26.21 -4.34l0 0c-12.87,5.67 -26.57,9.84 -38.35,17.68 -10.42,7.46 -19.29,17.81 -22.99,30.28 -3.07,9.09 -2.3,18.85 -2.48,28.33 -1.15,70.98 -0.43,142.01 -0.84,213.01 34.06,-14.56 69.29,-26.11 104.14,-38.53 -14.21,-1.97 -29.41,2.73 -42.9,-3.06 -0.13,-38.43 -1.12,-76.83 -1.56,-115.23 -1.66,-16.77 13.54,-30.1 28.36,-34.39 1.51,6.26 2.35,12.69 2.43,19.16 0.74,34.03 -0.51,68.09 1.56,102.07 0.43,11.45 9.09,22.23 20.85,23.33 20.44,2.42 38.58,-11.32 50.53,-26.6 24.45,-30.28 32.5,-70.52 30.1,-108.64 -5.44,14.33 -11.8,28.31 -16.71,42.85 -4.88,12.21 -9.78,24.96 -18.88,34.72 -3.01,3.19 -9.58,7.95 -12.29,1.89 -1.56,-26.6 -0.94,-53.32 -1.15,-79.99 -0.38,-17.15 -0.3,-35.37 -8.4,-50.93 -5.04,-10.29 -17.63,-13.15 -28.06,-11.19 -20.36,3.22 -35.59,18.32 -50.48,31.3 -0.54,-21.36 -0.9,-46.27 16.19,-61.96 18.86,-14.81 40.45,-25.75 60.02,-39.6 -22.99,8.61 -46.12,16.81 -69.09,25.5zm-472 131.48l0 0c-22.89,7.97 -46.12,15.23 -67.94,25.96 -21.41,10.32 -44.86,21.59 -55.93,43.99 -19.8,38.94 -16.94,84.52 -11.57,126.55 5.72,-21.2 10.06,-42.97 19.26,-63.03 7.64,-16.99 20.62,-31.27 35.82,-41.85 -12.11,18.55 -17.98,40.45 -19.52,62.39 -3.39,33.32 1.59,66.64 2.53,99.93 0.67,26.42 1.87,52.91 -0.43,79.25 -1.97,24.56 -12.06,48.19 -27.67,67.15 -9.1,10.83 -21.87,19.9 -36.44,20.41 -14.74,-0.25 -28.41,-8.1 -38.45,-18.47 -1.25,1.46 -3.73,4.37 -4.95,5.83 9.91,18.42 25.42,35.25 46.09,41.11 28.36,8.68 59.84,-2.48 80.17,-23.13 22.9,-22.89 34.21,-54.52 41.06,-85.51 10.09,-46.86 9.86,-95.2 7.08,-142.8 23.27,-19.85 46.63,-39.58 69.83,-59.51 0.79,39.4 -1.05,78.83 0.89,118.2 1.25,12.44 0.77,28.54 13.01,35.87 14.41,5.77 29.73,-1.48 41.72,-9.45 15.53,-10.94 29.51,-24.38 40.6,-39.84 5.95,7.82 14.66,14.92 25.21,12.98 20.62,-2.76 34.62,-20.21 47.14,-35.18 3.35,3.4 6.36,7.95 11.4,8.94 10.96,2.48 21.36,-3.52 29.79,-9.88 12.6,-9.92 23.66,-21.98 31.94,-35.75 19.18,15.82 46.57,16.76 69.59,10.12 22.46,-6.39 43,-25.73 43.8,-50.23 0.43,-22.54 -8.54,-43.85 -15.18,-65.03 -4.37,-15.02 -13.52,-28.89 -13.8,-44.91 -0.35,-6.39 5.37,-12.88 12.06,-11.52 6.24,2.19 12.09,5.36 18.17,7.99 -10.68,-20.57 -22.13,-40.72 -33.39,-60.96 -20.11,6.59 -40.55,17.45 -50.39,37.15 -17.96,35.23 -10.4,77.01 -24.48,113.47 -5.41,3.83 -11.83,6.61 -15.66,12.29 -6.69,8.32 -6.87,19.77 -4.24,29.68 -4.16,6.24 -9.53,11.53 -15.58,15.9 -4.71,-8.97 -4.73,-19.37 -5.6,-29.21 -1.81,-44.38 1.53,-88.73 5.8,-132.86 -17.83,6.85 -35.95,12.88 -53.65,20.03 -0.08,4.43 -0.18,8.9 -0.26,13.34 -12.52,-5.49 -27.72,-4.14 -38.43,4.58 -19.95,15.56 -29.28,40.59 -34.72,64.51 -6.49,32.06 -6.36,65.36 -1.56,97.65 -6.16,10.32 -15.61,18.06 -25.83,24.14 -3.4,-77.18 -1.12,-154.62 4.93,-231.63 -19.7,7.69 -39.75,14.51 -59.32,22.48 -1.64,27.75 -2.33,55.6 -3.38,83.4 -26.08,9.48 -52.27,18.68 -78.28,28.44 -0.9,-13.47 -0.43,-27.42 4.16,-40.22 6.42,-18.22 20.65,-32.24 35.7,-43.69 47.57,-36.33 94.76,-73.17 142.64,-109.12 -48.13,16.04 -95.71,33.7 -143.74,50.05zm472.92 -1.76l0 0c0.75,38.12 0.51,76.29 1.87,114.38 10.68,1.66 21.49,0.18 32.24,0.44 -7.51,-5.42 -12.9,-13.62 -13.77,-22.95 -3.4,-38.7 -0.15,-77.67 -2.81,-116.4 -8.2,5.77 -18.45,13.21 -17.53,24.53zm-485.01 80.76l0 0c-14.69,14.54 -21.48,35.28 -20.59,55.72 22.08,-8.17 44.3,-15.91 66.43,-23.94 0.43,-23.76 1.97,-47.49 3.32,-71.2 -16.45,13.03 -34.16,24.68 -49.16,39.42zm-201.74 61.68l0 0c-0.89,29.51 -0.51,59.02 -0.92,88.55 -15.63,-6.16 -33.75,-0.48 -44.53,11.96 -23.23,23.33 -28.39,57.69 -29.82,89.17 0.05,20.23 -9.04,38.73 -17.4,56.67 -9.71,18.37 -20.33,37.35 -36.99,50.36 -5.5,3.62 -14.28,9.35 -19.83,2.75 -4.96,-6.95 -8.89,-16.4 -8.25,-24.57 29.79,-16.84 52.99,-47.73 55.7,-82.4 0.43,-15.2 -1.77,-33.04 -14.44,-43.21 -11.75,-9.22 -28.28,-6.36 -40.47,0.46 -20.01,11.53 -33.37,31.99 -40.85,53.43 -8.79,25.11 -13.98,52.17 -10.1,78.77 2.64,24.09 11.6,49.64 32.09,64.23 16.71,10.81 38.05,4.27 53.07,-6.39 27.47,-19.82 45.07,-50.31 56.93,-81.48 4.8,7.21 9.14,15.18 16.71,19.96 11.77,8.12 27.97,5.57 39.34,-2.05 10.81,-7.1 17.73,-18.39 23.18,-29.84 0.94,4.52 1.99,9.07 3.04,13.59 17.37,-5.9 34.62,-12.16 51.91,-18.31 -7.46,-29.08 -8.94,-59.25 -11.65,-89.05 -3.83,-57.33 -6.28,-114.99 -1.35,-172.35 -18.4,6.74 -37,12.92 -55.37,19.75zm-361.78 88.81l0 0c-28.49,12.87 -53.86,35.33 -65.08,65.1 -8.86,21.69 -6.82,48.41 8.23,66.91 10.65,14.21 28.97,19.65 45.89,21.59 -0.44,-9.55 -9.53,-15.46 -11.65,-24.58 -7.59,-21.46 5.18,-43.56 20.23,-58.23 17.91,-15.45 40.04,-27.08 63.8,-29.61 13.69,-1.07 29.87,1.82 38.15,13.95 10.29,14.8 8.48,34.65 1.73,50.54 -10.83,25.58 -32.04,44.92 -54.6,60.27 -0.59,-32.7 -0.28,-65.38 -0.36,-98.08 -15.89,6.9 -34.95,11.98 -44.04,28.15 -10.43,19.5 -8.28,42.49 -8.41,63.85 0.77,53.71 0.23,107.64 -6.72,160.99 -2.86,21.54 -9.07,45.48 -28.13,58.38 -25.91,17.04 -52.3,33.32 -77.8,50.97 30.33,-6.9 60.38,-15.02 90.53,-22.66 31.37,-8.33 56.1,-33.88 66.76,-64.1 17.11,-47.19 13.69,-98.45 11.47,-147.68 5.34,5.39 9.73,11.65 13.36,18.32 14.36,26.11 23.84,54.75 40.17,79.79 18.21,27.77 52.32,44.02 85.36,40.75 31.83,-3.58 62.01,-19.03 84.18,-42.03 25.17,-24.65 37.46,-59.6 40.68,-94.1 -1.15,-1.12 -3.48,-3.42 -4.62,-4.54 -6.14,14.48 -11.25,29.66 -20.78,42.38 -17.17,24.2 -41.8,45.02 -71.36,51.36 -21.69,4.88 -44.43,-4.37 -59.07,-20.49 -21,-21.42 -26.98,-52.81 -47.42,-74.58 -8.61,-9.56 -20.54,-15.28 -32.98,-17.89 29.35,-19.83 58.43,-43.25 74.09,-75.88 12.65,-26.16 12.26,-59.38 -4.91,-83.45 -12.85,-17.63 -34.21,-26.57 -55.11,-30.12 -31.14,-4.75 -63.1,1.97 -91.59,14.72zm35.08 54.72l0 0c-21.29,9.07 -42.08,23.94 -50.56,46.33 -4.68,11.34 -3.15,24.55 3.29,34.9 1.36,-16.15 2.43,-33.6 12.75,-46.91 12.31,-16.07 32.75,-21.57 50.97,-27.95 0.38,31.24 1.13,62.46 1.51,93.71 21.23,-16.09 41.24,-37.1 46.83,-63.97 2.97,-13.65 0.41,-31.23 -12.67,-38.81 -16.51,-7.92 -35.9,-3.99 -52.12,2.7zm853.16 -170.82c4.72,-20.65 6.15,-41.8 8.68,-62.78 7.03,19.57 11.98,39.83 19.52,59.25 -9.43,1.08 -18.85,2.02 -28.2,3.53zm12.49 -32.93l0 0c-1.87,8.63 -2.91,17.39 -4.6,26.06 4.01,-0.62 8.07,-1.2 12.11,-1.77 -2.86,-7.97 -5.36,-16.09 -7.51,-24.29zm-149.62 17.83c3.27,-7.95 7.84,-15.69 15.46,-20.21 7.33,7.33 5.8,18.32 5.21,27.7 -2.25,25.37 1.86,50.81 0.18,76.18 -4.83,9.64 -10.66,20.19 -20.98,24.74 -5.54,-13.31 -6.1,-27.98 -7.59,-42.14 -1.43,-22.25 -0.66,-45.32 7.72,-66.27zm-1.05 33.03l0 0c-1.53,22.44 -0.36,45.25 4.91,67.15 4.85,-7.21 12.62,-14.1 11.7,-23.61 -0.84,-24.73 -2.22,-49.54 -0.64,-74.27 0.26,-4.63 -0.05,-9.23 -0.64,-13.77 -10.35,12.34 -13.67,28.89 -15.33,44.5zm120.65 17.51c15.51,-10.17 35.1,-9.89 52.96,-10.63 2.91,8.53 1.56,18.65 -5.11,25.09 -12.98,11.34 -34.49,13.21 -48.03,1.89 -5.09,-4.06 -5.88,-12.78 0.18,-16.35zm0.97 7.84l0 0c11.34,17.76 49.64,12.19 47.7,-11.85 -16.1,1.27 -35.08,0.07 -47.7,11.85zm-521.09 105.73c7.44,-6.57 12.01,4.9 12.29,10.91 1.3,24.16 4.19,48.79 -0.48,72.79 -2.1,9.09 -6.95,21.41 -17.89,21.61 -7.82,-4.32 -9.58,-14.2 -11.29,-22.18 -3.68,-22.22 -1.82,-45.58 5.87,-66.78 2.66,-6.08 5.88,-12.5 11.5,-16.35zm-10.5 37.73l0 0c-2.96,20.11 -4.14,42.13 5.08,60.89 8.49,0.56 10.33,-10.78 11.89,-17.25 3.52,-25.42 2.24,-51.61 -1.82,-76.9 -10.3,7.74 -12.59,21.46 -15.15,33.26zm-129.79 76.27l0 0c9.15,-15.13 16.73,-32.25 16.58,-50.23 -11.37,14.1 -14.85,32.68 -16.58,50.23z"/>
   <path class="fil1" d="M495.35 633.53c17.94,-0.38 35.85,0.26 53.79,0.82 -0.51,2.12 -1.51,6.36 -2,8.48 -2.22,-0.23 -6.64,-0.71 -8.84,-0.94 -0.86,3.6 -1.73,7.18 -2.6,10.78 6.41,1.35 10.5,5.34 6.9,12.13 -16.46,-7.1 -32.89,-14.3 -49.01,-22.12 0.59,-3.04 1.18,-6.11 1.76,-9.15zm565.98 555.3c2.15,-0.26 6.42,-0.77 8.56,-1.02 2.48,16.84 5.26,33.65 7.36,50.56 -9.45,3.58 -19.78,3.78 -29.74,4.11 -2.89,-2.4 -2.2,-6.64 -2.81,-9.88 -0.92,-13.93 -2.12,-27.8 -3.27,-41.7 2.22,-0.13 6.67,-0.38 8.89,-0.51 1.05,14.79 2.86,29.48 4.27,44.25 4.16,-0.51 8.33,-1 12.49,-1.46 -1.97,-14.79 -3.83,-29.58 -5.75,-44.35zm57.69 -11.47c2.02,-0.59 6.03,-1.79 8.03,-2.38 4.83,16.86 10.27,33.57 14.84,50.54 -1.99,0.43 -5.98,1.3 -7.94,1.74 -7.72,-7.85 -13.14,-17.61 -20.73,-25.55 2.84,9.65 4.99,19.47 7.54,29.2 -3.14,0.77 -6.26,1.53 -9.35,2.32 -3.73,-17.22 -7.95,-34.31 -11.52,-51.55 1.81,-0.28 5.41,-0.82 7.23,-1.08 6.82,8.1 12.36,17.22 19.42,25.17 -2.07,-9.58 -5.32,-18.86 -7.52,-28.41zm36.69 -11.93c1.94,-0.87 5.8,-2.58 7.75,-3.45 6.66,16.2 13.31,32.42 19.64,48.75 -2.14,0.89 -6.41,2.68 -8.53,3.55 -6.44,-16.23 -12.37,-32.66 -18.86,-48.85zm52 -17.3c-3.38,-4.78 0.33,-8.36 4.83,-10.07 6.49,16.69 11.75,33.86 16.63,51.1 -2.71,1.43 -5.42,2.86 -8.1,4.34 -11.09,-13.95 -22.13,-27.97 -32.52,-42.46 1.86,-0.92 5.59,-2.78 7.43,-3.7 7.15,9.65 13.75,19.75 21.56,28.89 -2.99,-9.48 -6.59,-18.72 -9.83,-28.1zm30.48 -25.35c6.39,-4.34 12.7,-8.79 18.88,-13.41 1.2,1.53 3.63,4.62 4.83,6.16 -4.09,2.96 -8.18,5.93 -12.29,8.84 2.63,3.93 5.31,7.87 8,11.8 3.55,-2.6 7.05,-5.26 10.57,-7.92 1.54,2.15 3.09,4.29 4.65,6.49 -3.65,2.56 -7.23,5.21 -10.7,8.02 2.86,3.89 5.65,7.85 8.4,11.86 4.45,-3.17 8.87,-6.36 13.29,-9.58 1.15,1.56 3.47,4.67 4.65,6.23 -6.95,5.19 -14.05,10.17 -21.21,15.1 -9.63,-14.56 -19.26,-29.12 -29.07,-43.59zm40.7 -30.94c6.67,-5.41 12.47,-11.88 19.31,-17.06 8.28,2.37 12.96,12.03 19.68,17.4 -1.46,2.5 -2.92,4.98 -4.37,7.51 7.87,3.09 15.64,6.38 23.5,9.5 -2.19,2.25 -4.42,4.45 -6.59,6.7 -9.5,-4.17 -19.87,-6.75 -28.26,-13.06 1.46,-1.53 4.37,-4.6 5.83,-6.11 -0.38,-5.18 -6.72,-8.1 -9.61,-12.16 -2.68,2.48 -5.34,5.01 -7.99,7.54 10.01,10.98 19.77,22.23 29.91,33.14 -2.37,2.07 -4.75,4.14 -7.07,6.26 -11.45,-13.24 -22.79,-26.52 -34.34,-39.66zm-489.79 -55.95c19.47,12.75 39.86,24.12 61.32,33.16 -6.23,19.04 -12.57,38.05 -19.01,57 -24.94,-10.85 -49.23,-23.32 -71.77,-38.6 12.7,-15.28 23.66,-32.42 29.46,-51.56zm545.36 -1.76c5.8,-2.2 9.86,5.39 14.54,7.61 -1.66,2.38 -3.3,4.75 -4.93,7.13 -2.28,-1.87 -4.55,-3.73 -6.8,-5.6 -2.5,2.48 -4.88,5.09 -7.18,7.74 2.15,1.82 4.32,3.66 6.49,5.5 8.51,-1.23 16.94,-2.94 25.42,-4.52 5.06,3.7 10.04,7.53 14.57,11.93 -5.7,8.02 -11.25,16.73 -19.6,22.22 -4.01,-3.57 -8,-7.1 -11.98,-10.67 1.38,-1.51 4.11,-4.5 5.46,-6.01 3.22,0.67 5.5,3.55 8.26,5.26 2.24,-2.86 4.54,-5.69 6.84,-8.5 -2.55,-1.89 -5.11,-3.76 -7.66,-5.57 -8.08,1.99 -16.28,3.19 -24.48,4.42 -4.98,-4.04 -10.04,-8.08 -13.77,-13.32 4.96,-5.85 9.53,-12.05 14.82,-17.62zm18.39 -26.22c1.67,-2.3 3.35,-4.6 5.06,-6.87 14.46,9.53 29.16,18.73 43.75,28.05 -1.69,2.69 -3.38,5.39 -5.06,8.08 -14.54,-9.79 -29.16,-19.52 -43.75,-29.26zm30.59 -53.78c2.32,0.89 4.65,1.76 6.97,2.68 -1.3,3.17 -2.65,6.31 -3.96,9.51 13.19,6.44 26.29,13.1 39.53,19.49 -1.38,2.94 -2.76,5.88 -4.14,8.84 -13.06,-7.15 -26.34,-13.8 -39.42,-20.87 -1.66,2.96 -3.33,5.95 -4.99,8.94 -2.19,-1.35 -4.36,-2.68 -6.54,-4.01 4.48,-8.05 8.61,-16.28 12.55,-24.58zm20.31 -52.04c7.74,5.9 15.41,11.93 22.87,18.19 6.44,5.72 15.28,6.95 23.02,10.11 -1.13,3.02 -2.25,6.03 -3.35,9.07 -6.36,-2.32 -12.57,-5.23 -19.19,-6.77 -11.39,-0.28 -22.81,0.08 -34.21,-0.64 0.92,-2.06 2.79,-6.18 3.71,-8.22 7.69,0.59 15.43,0.87 23.14,0.92 -5.77,-5.44 -13.79,-8.92 -18.39,-15.26 0.61,-1.86 1.81,-5.57 2.4,-7.4zm-746.05 21.28c1.73,-17.55 5.21,-36.13 16.58,-50.23 0.15,17.98 -7.43,35.1 -16.58,50.23zm-175.22 -92.19c16.22,-6.69 35.61,-10.62 52.12,-2.7 13.08,7.58 15.64,25.16 12.67,38.81 -5.59,26.87 -25.6,47.88 -46.83,63.97 -0.38,-31.25 -1.13,-62.47 -1.51,-93.71 -18.22,6.38 -38.66,11.88 -50.97,27.95 -10.32,13.31 -11.39,30.76 -12.75,46.91 -6.44,-10.35 -7.97,-23.56 -3.29,-34.9 8.48,-22.39 29.27,-37.26 50.56,-46.33zm305.01 15.92c2.56,-11.8 4.85,-25.52 15.15,-33.26 4.06,25.29 5.34,51.48 1.82,76.9 -1.56,6.47 -3.4,17.81 -11.89,17.25 -9.22,-18.76 -8.04,-40.78 -5.08,-60.89zm548.15 -63.59c20.38,2.91 41.28,0.38 60.45,-7.26 -5.98,85.77 -39.79,169.27 -95.43,234.81 -55.39,66.02 -132.17,113.79 -216,134 -50.69,12.24 -103.76,15.03 -155.39,7.39 9.4,-18.83 18.37,-37.89 27.82,-56.7 50.36,3.12 102.45,0.1 149.64,-19.19 43.39,-16.88 84.98,-39.98 118.53,-72.63 29.43,-27.37 54.91,-59.2 72.71,-95.36 20.03,-38.91 35.26,-81.01 37.67,-125.06zm-16.56 -79.87c12.62,-11.78 31.6,-10.58 47.7,-11.85 1.94,24.04 -36.36,29.61 -47.7,11.85zm-832.36 -6.08c-1.81,-10.09 0.2,-20.62 3.24,-30.3 5.16,0.74 10.3,1.53 15.46,2.32 -0.36,2.33 -1.07,6.98 -1.4,9.3 -2.2,-0.41 -6.6,-1.22 -8.79,-1.63 -0.51,3.83 -1,7.69 -1.49,11.55 2.05,0.25 6.11,0.79 8.16,1.07 6.36,-5.83 12.29,-12.21 19.36,-17.22 5.98,0.99 15,-0.59 18.73,4.93 -1.07,7.97 -0.95,16.38 -3.83,23.91 -5.34,1.36 -10.91,-0.4 -16.3,-0.71 0.23,-2.22 0.69,-6.67 0.92,-8.89 3.14,0.43 6.31,0.84 9.45,1.3 0.49,-3.52 0.95,-7.03 1.43,-10.53 -3.01,-0.43 -6.03,-0.84 -9.02,-1.2 -6.28,5.8 -12.08,12.14 -18.85,17.35 -5.73,0.23 -11.4,-0.87 -17.07,-1.25zm710.74 -19.27c1.66,-15.61 4.98,-32.16 15.33,-44.5 0.59,4.54 0.9,9.14 0.64,13.77 -1.58,24.73 -0.2,49.54 0.64,74.27 0.92,9.51 -6.85,16.4 -11.7,23.61 -5.27,-21.9 -6.44,-44.71 -4.91,-67.15zm150.67 -50.86c2.15,8.2 4.65,16.32 7.51,24.29 -4.04,0.57 -8.1,1.15 -12.11,1.77 1.69,-8.67 2.73,-17.43 4.6,-26.06zm-842.68 -30.28c16.37,5.34 32.83,10.45 49.31,15.48 -0.56,2.81 -1.13,5.65 -1.69,8.46 -16.73,-5.11 -33.55,-9.94 -50.36,-14.85 0.92,-3.04 1.82,-6.05 2.74,-9.09zm505.47 28.82c15,-14.74 32.71,-26.39 49.16,-39.42 -1.35,23.71 -2.89,47.44 -3.32,71.2 -22.13,8.03 -44.35,15.77 -66.43,23.94 -0.89,-20.44 5.9,-41.18 20.59,-55.72zm-489.43 -72.89c16.18,6.49 32.14,13.49 48.27,20.18 -0.62,1.69 -1.82,5.11 -2.41,6.82 -10.83,0.18 -21.69,-0.28 -32.5,0.36 9.02,4.29 18.71,7.05 28.01,10.76 -1,2.63 -1.97,5.26 -2.92,7.89 -16.45,-5.85 -32.96,-11.57 -49.41,-17.4 0.95,-2.6 1.92,-5.16 2.86,-7.74 10.94,-0.84 21.92,-0.84 32.89,-1.35 -9.43,-3.58 -18.86,-7.16 -28.16,-11.04 1.12,-2.84 2.25,-5.67 3.37,-8.48zm974.44 -7.87c-0.92,-11.32 9.33,-18.76 17.53,-24.53 2.66,38.73 -0.59,77.7 2.81,116.4 0.87,9.33 6.26,17.53 13.77,22.95 -10.75,-0.26 -21.56,1.22 -32.24,-0.44 -1.36,-38.09 -1.12,-76.26 -1.87,-114.38zm-969.23 -4.07c4.5,-9.25 8.77,-18.62 13.83,-27.59 1.63,0.95 4.93,2.81 6.59,3.76 -1.58,3.04 -3.19,6.08 -4.78,9.12 13.16,7.13 26.8,13.31 39.99,20.41 -1.03,1.84 -3.04,5.55 -4.04,7.39 -13.39,-6.55 -26.62,-13.52 -40.42,-19.12 -1.25,3.1 -2.5,6.19 -3.71,9.28 -1.86,-0.82 -5.59,-2.43 -7.46,-3.25zm736.96 -63.23c3.3,-7.82 12.29,-10.2 18.68,-14.85 11.93,12.7 23.3,25.91 33.72,39.89 -18.98,7.87 -38.04,15.48 -56.95,23.55 -4.14,-4.83 -8.3,-9.63 -12.52,-14.35 5.68,-11.43 11.4,-22.82 17.07,-34.24zm-703.89 1.99c4.82,-7.13 9.53,-14.31 14.53,-21.31 1.56,1.2 4.63,3.58 6.16,4.75 -3.04,4.4 -6.11,8.77 -9.2,13.14 3.96,2.65 7.9,5.29 11.86,7.97 2.53,-3.73 5.03,-7.46 7.54,-11.19 2.12,1.56 4.26,3.14 6.43,4.72 -2.52,3.56 -4.98,7.13 -7.41,10.76 6.19,4.04 12.37,8.15 18.66,12.06 -1.41,2.5 -2.84,5.01 -4.27,7.51 -14.62,-9.71 -29.66,-18.75 -44.3,-28.41zm40.93 -54.37c7.97,3.32 15.4,10.3 20.54,17.25 -0.87,1.53 -2.58,4.62 -3.42,6.18 8.02,2.4 15.96,5.03 23.93,7.64 -1.68,2.22 -3.37,4.44 -5.05,6.67 -9.3,-4.35 -21.9,-3.04 -28.95,-10.99 1.86,-2.17 3.73,-4.37 5.57,-6.54 -4.12,-3.22 -8.2,-6.46 -12.29,-9.68 -2.38,3.14 -4.78,6.26 -7.18,9.37 11.73,9 23.33,18.14 35,27.21 -1.63,2.25 -3.29,4.53 -4.93,6.78 -13.85,-10.48 -27.64,-21.03 -41.7,-31.25 5.7,-7.87 11.19,-16.12 18.48,-22.64zm63.54 70.67c40.14,-51.86 93.08,-93.49 152.51,-121.15 -25.48,41.21 -51.41,82.14 -76.94,123.32 -2.75,4.63 -6.28,8.72 -10.04,12.57 -40.13,41.96 -66.35,95.51 -82.68,150.8 -8.53,36.13 -10.16,73.53 -8.81,110.53 -13.01,-23.36 -33.44,-43.05 -59.22,-51.46 4.85,-81.2 35.15,-160.53 85.18,-224.61zm466.08 -132.35c11.24,4.12 23.07,7.77 32.9,14.69 -17.85,6.75 -35.61,13.78 -53.42,20.62 6.8,-11.8 13.85,-23.43 20.52,-35.31zm-470.99 2.33c2.43,-2.04 4.88,-4.06 7.34,-6.11 10.88,13.6 21.76,27.19 32.93,40.52 -1.92,1.69 -3.83,3.38 -5.75,5.06 -9.63,-5.34 -19.31,-10.57 -29.1,-15.63 6.34,7.94 13.13,15.51 20.18,22.84 -2.12,2.02 -4.21,4.01 -6.31,6.03 -10.88,-12.27 -22.12,-24.2 -33.16,-36.28 -3.78,-3.04 2.38,-5.83 3.73,-8.13 10.04,4.7 19.93,9.74 29.79,14.82 -6.51,-7.74 -12.98,-15.53 -19.65,-23.12zm43.87 -32.55c6.36,-0.03 7.97,8.66 11.81,12.62 -1.89,1.3 -5.68,3.88 -7.57,5.16 -1.79,-2.66 -3.57,-5.34 -5.36,-8.02 -3.4,2.27 -6.7,4.72 -9.89,7.28 7.33,9.68 14.44,19.55 21.44,29.46 3.06,-2.07 6.08,-4.16 9.17,-6.24 -1.79,-2.63 -3.58,-5.26 -5.37,-7.86 2.46,-1.72 4.96,-3.38 7.46,-5.04 2.74,4.32 5.65,8.56 7.98,13.14 -4.45,7.53 -13.93,10.75 -20.42,16.53 -12.16,-11.81 -20.87,-26.78 -31.53,-39.96 5.83,-7.41 14.36,-12.19 22.28,-17.07zm15.72 -10.5c1.96,-1.23 5.87,-3.71 7.84,-4.96 9.17,14.95 18.01,30.07 26.77,45.28 -2.42,1.4 -4.85,2.83 -7.25,4.29 -8.99,-14.95 -18.24,-29.74 -27.36,-44.61zm23.96 -12.93c7.87,-5.62 16.74,-10.68 26.32,-12.62 2.17,4.55 4.39,9.09 6.69,13.59 -2.04,1.07 -6.11,3.19 -8.15,4.27 -1.4,-2.63 -2.76,-5.29 -4.11,-7.92 -3.45,1.61 -6.88,3.27 -10.27,4.93 1.25,2.45 2.47,4.9 3.75,7.36 8.02,2.12 16.28,3.39 24.17,6 4.22,4.7 7.46,11.34 8,17.68 -6.85,5.19 -15.05,8.48 -23,11.68 -2.86,-4.76 -5.57,-9.58 -8.27,-14.44 2.68,-1.3 5.36,-2.63 8.04,-3.93 1.56,2.83 3.12,5.67 4.76,8.48 2.88,-1.61 5.8,-3.22 8.73,-4.8 -1.22,-2.71 -2.5,-5.42 -3.75,-8.1 -8.3,-2.2 -16.92,-3.2 -25.04,-5.98 -3.19,-5.01 -7.26,-10.17 -7.87,-16.2zm21.41 167.38c99.47,-158.77 197.81,-318.23 296.3,-477.58 -2.22,12.44 -6.13,24.5 -9.2,36.74 -21.79,81.56 -43.33,163.19 -65.05,244.74 69.76,-25.62 139.53,-51.2 209.26,-76.93 -34.57,70.06 -69.37,140.01 -104.02,210.05 77.7,-28.7 155.3,-57.67 232.94,-86.49 -16.07,32.6 -31.5,65.54 -47.7,98.11 21.72,-7.38 43.54,-14.56 65.15,-22.3 -26.42,19.34 -53.09,38.29 -79.33,57.89 -3.27,2.45 -6.59,5.14 -8.18,9.02 -13.46,27.75 -27.34,55.32 -40.9,83.01 62.24,-24.07 124.73,-47.42 186.97,-71.46 -1.33,-35.87 22.82,-69.57 55.39,-83.22 97.93,-36.97 195.94,-73.71 293.9,-110.6 28.13,-11.09 57,-20.44 84.65,-32.65 1.33,-0.23 3.93,-0.67 5.24,-0.9l0 1c-50.06,28.97 -99.06,59.73 -148.7,89.45 -45.69,27.95 -92.01,54.9 -136.77,84.31 10.75,1.87 21.46,6.16 29,14.34 13.59,13.74 17.73,33.44 20.67,51.84 13.64,-30.25 26.93,-60.68 40.08,-91.14 2.99,32.32 5.75,64.69 8.44,97.04 1.12,37.45 1.5,76.47 -13.42,111.6 -13.46,32.83 -39.11,63.31 -74.47,72.79 -43.41,15.61 -86.98,30.94 -130.03,47.42 -8.12,8.82 -15.86,18.3 -26.34,24.53 -28.03,18.57 -64.28,21.51 -96.07,11.98 -18.93,21.26 -45.42,42.13 -75.75,36.84 -18.86,18.78 -46.4,32.86 -73.36,24.15 -16.27,15.89 -34.54,30.94 -56.59,37.89 -15.25,4.93 -32.32,3.73 -46.55,-3.76 -120.62,245.13 -245.1,488.34 -367.23,732.69 -0.86,0.82 -1.94,1.38 -2.93,2.02 2.93,-4.62 4.52,-9.86 6,-15.05 58.94,-185.21 118.35,-370.26 177.49,-555.4 -25.39,-3.14 -48.97,-16.2 -65.48,-35.66 -6.46,2.91 -13.29,4.8 -19.93,7.17 -2.94,5.96 -2.91,13.11 -4.98,19.47 -17.14,63.95 -76.57,112.55 -141.67,120.75 -44.59,5.34 -90.73,-16.78 -115.21,-54.24 -4.11,22.51 -10.35,44.94 -21.71,64.95 -16.79,30.73 -46.61,53.88 -80.62,62.42 -87.71,22.17 -175.47,44.15 -263.28,65.99 72.86,-47.32 145.81,-94.51 218.68,-141.83 6.97,-4.7 15.38,-8.66 18.88,-16.86 6.26,-13.64 7.23,-28.92 9.09,-43.64 3.5,-40.57 5.6,-81.37 4.27,-122.08 -12.98,-4.11 -25.93,-9.78 -35.8,-19.44 -21.84,-20.8 -32.16,-52.73 -27.16,-82.4 4.71,-27.46 19.4,-52.63 39.28,-71.94 30.55,-29.67 72.07,-46.12 113.97,-51.13 34.75,-3.68 71.98,3.45 99.93,25.35 18.01,13.72 29.3,34.51 34.59,56.23 11.88,-6.51 25.01,-11.42 38.74,-11.45 14.33,-0.61 28.15,5.29 39.21,14.08 10.73,-30.33 32.12,-60.52 64.62,-69.34 -0.31,-26.88 0.1,-53.83 3.86,-80.48 9.53,-3.22 19.03,-6.59 28.59,-9.76 44.17,-80.79 87.45,-162.06 130.89,-243.26 -59.02,22.2 -118.47,43.28 -177.65,65.13zm188.66 -233.73l0 0c-32.09,51.89 -64.23,103.73 -96.37,155.57 -2.07,1.1 -2.4,3.98 -3.81,5.62 54.09,-18.4 107.85,-37.89 161.6,-57.23l5.96 -1.82c-40.12,74.64 -80.03,149.37 -119.93,224.1 34.72,-23.76 74.47,-38.48 114.15,-51.58 50.13,-17.43 100.23,-34.85 150.36,-52.28 3.02,-1.17 6.13,-2.32 8.82,-4.21 18.8,-4.3 37.07,-11.4 54.57,-19.42 7.92,-14.59 16.02,-29.36 21.62,-45.02l2.68 -2.15c-10.94,1.26 -20.62,6.77 -30.94,10.1 -68.83,25.88 -137.92,51.07 -206.47,77.67 0.23,-7.69 5.6,-13.8 8.56,-20.57 31.91,-64.05 66.25,-126.91 97.68,-191.16 -3.35,1.02 -6.7,2.12 -9.97,3.32l-0.38 0.59c-58.36,21.51 -116.99,42.36 -175.02,64.74 0,-1.64 0.05,-4.93 0.08,-6.57 6.57,-30.3 16.71,-59.94 21.61,-90.52 1.66,-2.96 2.18,-6.36 2.94,-9.61 -3.04,3.12 -5.54,6.7 -7.74,10.43zm515.85 175.98l0 0c-23.79,8.33 -42.97,31.02 -44.05,56.65 -0.82,33.54 -0.28,67.12 -0.79,100.69 -10.6,-23.12 -22.89,-45.4 -36.18,-67.07 -22.87,6.36 -45.94,18.35 -57.51,40.04 -18.93,34.72 -12.29,76.16 -24.73,112.83 -4.09,4.29 -9.99,6.56 -13.75,11.29 -8.51,9.14 -11.14,22.58 -7.87,34.52 -1.53,1.73 -4.6,5.21 -6.13,6.97 -2.94,-14.92 -2.3,-30.2 -2.48,-45.33 0.46,-38.73 1.33,-77.74 8.2,-115.99 -21.13,7.97 -42.46,15.46 -63.64,23.27 -5.03,0.77 -3.71,6.67 -4.4,10.35 -23.63,-5.52 -44.96,11.55 -55.95,30.99 -24.63,41.73 -25.04,92.65 -20.34,139.51 1.71,8.66 -8.15,13.03 -12.95,18.55 -1.89,-76.65 -0.84,-153.56 6.72,-229.87 -13.95,5.18 -27.88,10.57 -41.9,15.58 34.87,-27.7 71.18,-53.65 105.49,-81.99 -70.54,24.12 -140.88,48.88 -211.32,73.3 -23.2,8.95 -46.17,19.14 -66.86,33.01 -23.82,16.36 -34.5,45.51 -38.35,73.07 -6.19,37.77 1.48,75.76 7.05,113.04 6.92,-24.33 11.39,-49.34 19.11,-73.46 4.32,-12.26 9.04,-24.88 17.78,-34.75 -14.49,48.45 -4.62,99.19 -3.73,148.63 0.15,29.92 2.68,60.55 -5.11,89.78 -7.41,21.33 -18.88,43.69 -39.47,54.85 -14.11,7.49 -30.48,1.36 -42.52,-7.25 17.12,-6.34 34.52,-11.91 51.79,-17.84 -7.41,-28.99 -9.43,-58.96 -12.08,-88.68 -3.89,-61.32 -7.8,-123.07 -1,-184.34 -22.56,7.31 -44.84,15.43 -67.27,23.07 -2.79,28.23 -1.51,56.65 -1.82,84.95 -13.97,-1.76 -28.48,2.43 -38.73,12.22 -23.04,20.46 -32.73,51.68 -34.77,81.6 -1.82,13.62 -0.62,27.85 -5.6,40.88 -7.61,21.64 -18.09,42.41 -31.73,60.89 -5.49,7.05 -11.45,14.23 -19.42,18.55 -2.4,0.99 -6.51,3.55 -8.3,0.33 -3.58,-4.88 -4.7,-11.01 -6.52,-16.68 31.63,-18.96 55.78,-53.48 56.24,-91.12 -0.56,-15.96 -4.58,-34.18 -18.6,-43.76 -12.6,-8.82 -29.64,-6.87 -42.72,-0.16 -20.82,10.68 -35.52,30.64 -44.2,51.97 -11.78,29.87 -17.86,62.8 -12.01,94.74 3.7,23.51 13.87,47.65 33.93,61.7 15.48,10.25 35.92,7.41 51.3,-1.53 29.97,-16.84 49.54,-47.19 63.03,-77.95 2.43,2.55 4.86,5.13 7.31,7.74 -5.34,12.24 -9.68,25.04 -16.89,36.41 -15.81,24.71 -39.19,46.52 -68.27,53.81 -18.78,5.21 -39.29,-1.28 -53.11,-14.59 -22.39,-20.54 -28.57,-52.17 -48.01,-74.89 -7.08,-8.51 -16.35,-14.92 -26.47,-19.21 30.02,-21.82 59.61,-48.62 71.05,-85.13 8.84,-27.67 3.86,-60.61 -16.27,-82.2 -21.39,-21.51 -53.22,-29.12 -82.73,-27.46 -25.68,1.94 -51.08,8.94 -73.84,20.97 -27.75,14.72 -51.79,38.56 -61.91,68.78 -8.35,22.82 -4.73,49.95 10.73,68.94 11.52,15.04 30.87,21.48 49.13,23.09 0.95,51.54 0.13,103.2 -5.67,154.45 -2.73,23.4 -7.82,51.05 -30.5,63.47 -32.04,20.69 -63.93,41.62 -96.07,62.18 -2.3,1.43 -4.27,3.33 -6.18,5.24 32.37,-7.92 64.66,-16.17 97.01,-24.3 16.84,-4.47 34.44,-7.43 49.64,-16.47 26.04,-14.26 43.59,-40.48 51.87,-68.5 11.85,-38.48 10.6,-79.26 9.66,-119.04 14.81,26.62 24.47,55.95 41.33,81.45 20.88,31.28 60.79,48.9 97.91,41.93 48.93,-8.48 93.26,-42.98 111.19,-89.63 6.52,-16.22 8.46,-33.75 9.97,-51.02 17.4,5.26 36.25,-2.74 47.88,-15.95 10.93,19.68 28.18,36.95 50.38,42.98 29.44,8.74 61.83,-3.09 83.22,-23.97 25.37,-24.47 37.53,-59.07 44.81,-92.77 9.2,-45.6 10.14,-92.51 6.9,-138.81 19.26,-16.27 38.58,-32.5 57.59,-49.05 0.25,36.69 -1.25,73.43 0.89,110.09 1.08,12.06 2.35,25.98 12.29,34.34 11.09,8.15 26.4,5.82 38.07,0.15 20.16,-9.83 36.82,-25.65 50.95,-42.84 7.02,7.07 16.91,11.26 26.98,9.4 19.11,-3.2 33.29,-17.91 45.48,-31.89 7.84,7.56 19.77,7.9 29.25,3.32 18.78,-8.51 33.17,-24.24 45.17,-40.6 30.66,19.09 74.25,14 100.36,-10.73 14.57,-13.33 20.62,-34.51 16.87,-53.68 -4.83,-27.54 -15.13,-53.73 -25.04,-79.74 -1.94,-6.72 -5.37,-14.97 -0.21,-21.1 8.95,3.63 17.61,7.92 26.57,11.52 0.54,41.67 -0.12,83.32 0.31,124.99 41.47,-15.23 83.04,-30.15 124.51,-45.32 8.73,-3.3 18.09,-5.12 26.16,-9.99 14.26,-8.41 25.52,-21.26 33.85,-35.42 21.26,-35.69 21.49,-78.95 19.52,-119.16 -7.69,14.59 -13.41,30.17 -20.39,45.12 -8.2,17.43 -12.29,37.64 -26.44,51.61 -0.74,-25.34 -0.72,-50.72 -0.72,-76.06 -0.18,-18.12 -0.53,-37.2 -8.89,-53.68 -4.65,-9.86 -15.23,-15.69 -25.96,-15.59 -20.26,-0.05 -37.73,12.04 -52.22,25.02 0.05,-12.34 1.12,-25.35 7.77,-36.1 5.67,-9.56 15.17,-15.77 24.09,-21.98 19.75,-13.41 39.99,-26.08 60.27,-38.68 5.85,-3.81 12.44,-6.69 17.48,-11.65 -45.07,16.02 -89.58,33.65 -134.47,50.15zm-311.53 122.64l0 0c-0.92,14.77 -3.04,29.41 -3.68,44.2 7.18,-4.08 9.71,-12.23 13.34,-19.11 8.1,-16.99 17.09,-33.52 24.73,-50.69 -11.96,7.84 -22.76,17.27 -34.39,25.6zm-133.8 215.31l0 0c0.46,12.44 0.61,24.91 1.07,37.35 -0.43,22.46 -1.53,44.92 -4.04,67.28 5.45,-10.1 10.71,-20.34 15.26,-30.87 -2.53,-16.3 -2.81,-32.8 -4.4,-49.18 1.18,-10.45 0.13,-20.98 0.49,-31.45 -2.81,2.27 -5.6,4.57 -8.38,6.87zm-91.44 260.22l0 0 -0.46 1.49c-6.57,3.19 -18.09,2.4 -19.6,11.39 -12.49,41.52 -26.93,82.53 -38.33,124.35 4.94,-7.69 9.66,-15.58 12.91,-24.14 4.24,-5.73 7.15,-12.24 10.27,-18.6 16.96,-34.14 33.9,-68.32 50.84,-102.48 -5.08,2.91 -10.24,5.72 -15.63,7.99zm-315.16 -611.48c2.22,-2.35 4.42,-4.67 6.67,-6.97 15.2,9.35 30.27,18.93 45.25,28.66 -2.1,2.05 -4.17,4.12 -6.26,6.16 -1.77,-1.33 -5.29,-3.96 -7.06,-5.26 -2.57,2.55 -5.13,5.16 -7.66,7.79 1.38,1.74 4.11,5.24 5.49,6.98 -1.38,1.61 -4.09,4.85 -5.44,6.46 -10.99,-14.13 -20.74,-29.15 -30.99,-43.82zm12.95 5.93l0 0c4.19,6.13 8.72,12.06 13.11,18.06 2.02,-1.81 4.01,-3.65 6,-5.46 -6.1,-4.58 -12.46,-8.87 -19.11,-12.6zm-121.77 228.54l0 0c6.49,3.58 13.47,6.13 20.32,8.92 0.66,-2.76 1.3,-5.49 1.96,-8.23 -7.43,-0.3 -14.84,-0.76 -22.28,-0.69z"/>
   <path class="fil2" d="M817.59 693.55c11.73,-5.29 24.17,-8.94 36.41,-12.88 -5.47,11.32 -18.86,19.44 -17.2,33.34 0.13,65.77 2.89,131.71 12.04,196.89 -9.69,4.8 -11.91,15.99 -18.5,23.66 -1.43,-4.52 -2.69,-9.12 -3.91,-13.67 3.42,-5.42 6.97,-10.73 10.83,-15.82 -1.81,-1.43 -3.65,-2.81 -5.47,-4.19 -11.6,17.97 -26.62,35.37 -47.03,43.31 -5.73,2.68 -11.96,1.1 -17.68,-0.54 -3.22,2.92 -6.54,5.73 -9.99,8.36 -7.69,-13.75 -10.79,-29.26 -14.08,-44.46 -12.6,30.69 -24.02,63.21 -47.88,87.33 -11.47,11.22 -26.78,20.9 -43.41,19.93 -5.65,-0.26 -9.43,-5.21 -13.75,-8.2 -3.62,3.73 -7.15,7.54 -10.57,11.45 -17.1,-20.32 -20.19,-48.52 -19.68,-74.1 3.17,-32.22 11.78,-66.71 35.8,-89.96 11.5,-11.32 29.38,-20.34 45.09,-12.03 -1.38,2.3 -2.78,4.6 -4.16,6.92 -18.4,-5.49 -33.52,10.07 -41.85,24.58 -13.11,25.37 -18.99,54.6 -17.3,83.06 2.48,16.94 5.21,35.85 18.57,48.03 3.61,-3.37 7.21,-6.77 10.76,-10.19 4.09,1.3 8.18,2.76 12.44,3.53 16.02,-2.1 27.39,-15.21 36.64,-27.32 16.07,-22.45 28.57,-47.75 35.82,-74.4 3.68,-27.33 2.05,-56.44 15.26,-81.6 7.64,-14.08 18.37,-29.08 34.85,-32.91 9.73,-2.43 18.49,2.99 26.65,7.43 0.46,-31.83 -1.72,-63.9 1.3,-95.55zm94.38 337.33c1.51,-8.99 13.49,-9.68 20.06,-12.88 -14.01,37.59 -31.97,75.32 -45.48,113.09 -3.25,8.56 -7.97,16.45 -12.91,24.14 11.4,-41.82 25.84,-82.83 38.33,-124.35zm-457.29 -150.77c4.47,-10.17 14.1,-16.78 24.09,-20.82 -4.16,8.41 -11.72,15.81 -11.72,25.73 1.91,64.74 4.6,129.92 -3.56,194.35 -4.34,30.2 -12,63.9 -38.09,82.99 -14.44,9.48 -30.69,16.2 -47.11,21.36 16.81,-12.8 38.65,-20.47 49.84,-39.42 9.56,-15.67 12.5,-34.19 14.9,-52.1 6.51,-55.11 6.49,-110.71 5.72,-166.1 0.18,-15.4 -0.48,-31.6 5.93,-45.99zm230.84 -15.51c-2.4,-4.26 0.28,-7.41 4.29,-8.91 4.68,12.85 4.71,27 0.29,39.96 -7.01,23.09 -21.37,44.22 -41.4,57.94 8.49,-10.32 18.6,-19.47 24.51,-31.68 8.81,-17.42 17.01,-37.53 12.31,-57.31zm-248.34 -73.76c29.92,-17.35 65.51,-26.44 100.08,-21.79 14.46,1.86 27.97,7.79 40.26,15.43 -2.86,4.21 -6.26,8 -9.89,11.6 11.17,13.36 18.5,30.76 15.13,48.39 -4.14,19.19 -10.5,38.43 -22.25,54.4 -13.24,18.11 -30.23,33.26 -48.83,45.73 -4.34,2.91 -8.33,6.34 -12.13,9.94 17.09,1.12 36.1,3.5 49.03,15.89 14.46,15.59 23.88,34.88 33.24,53.73 11.54,19.85 27.97,38.76 50.25,46.48 29.18,7.81 60.04,-3.96 82.32,-22.95 10.04,-7.74 17.43,-18.16 26.63,-26.77 -15.05,28.36 -41.16,50.15 -70.96,61.65 -31.47,10.27 -69.75,4.21 -92.26,-21.41 -22.45,-26.91 -31.93,-63.11 -58.61,-86.79 -9.4,-8.82 -21.69,-13.39 -34.16,-15.77 25.88,-17.76 52.81,-36.84 67.35,-65.64 11.5,-21.13 13.85,-48.92 -1.33,-68.9 3.43,-3.61 6.9,-7.16 10.45,-10.63 -9.5,-15.23 -28.92,-18.7 -45.37,-20.75 -34.06,0.51 -67.05,15.74 -91.5,39.12 -9.37,10.65 -18.6,22.25 -22.58,36.07 -2.97,9.64 -0.13,19.55 1.45,29.16 -2.04,2.17 -4.06,4.34 -6.1,6.56 -10.81,-9.12 -13.14,-25.16 -12.65,-38.6 3.27,-31.66 25.65,-58.46 52.43,-74.15zm586.29 -33.06c2.78,-2.3 5.57,-4.6 8.38,-6.87 -0.36,10.47 0.69,21 -0.49,31.45 -2.17,4.29 -4.65,8.46 -6.82,12.77 -0.46,-12.44 -0.61,-24.91 -1.07,-37.35zm436 -316.69c8.41,-6.13 18.07,-10.32 27.93,-13.52 -8.1,8.21 -18.14,15.41 -22.15,26.68 -3.04,10.47 -2.89,21.54 -3.17,32.37 0.08,10.63 -0.05,23.45 9.84,30.15 14.69,-12.32 28.18,-25.98 43.38,-37.66 11.52,-8.77 26.6,-14.74 41.03,-10.02 -4.03,7.44 -13.1,13.11 -11.16,22.59 1.71,35.69 3.04,71.44 4.95,107.13 0.49,8.07 3.61,15.79 8.69,22.1 4.32,-3.42 8.41,-7.13 12.34,-10.99 5.55,1.77 11.81,4.7 17.17,0.67 12.52,-8.61 18.45,-23.53 23.43,-37.33 0.61,14.08 -7.89,26.37 -16.4,36.79 -10.71,12.11 -25.68,20.26 -41.62,22.84 -8.66,0.72 -13.9,8.26 -20.49,12.93 -4.93,-10.68 -3.68,-22.56 -4.19,-33.95 -0.92,-27.32 0.2,-54.65 -0.8,-81.97 -0.1,-7.53 -1.81,-14.87 -4.47,-21.89 3.71,-3.81 7.41,-7.62 11.09,-11.45 -6.82,-8.89 -18.83,-3.96 -26.49,1.07 -9.76,7.16 -17.99,16.15 -27.14,24.04 -6.77,6.62 -16.45,12.98 -15.81,23.72 -0.21,39.19 -0.21,78.38 0.99,117.55 -4.01,1.71 -8.22,3.07 -11.9,5.47 -5.95,6.44 -9.66,14.66 -16.02,20.79 -0.62,-69.21 -0.67,-138.48 0.41,-207.69 -0.9,-15.97 7.99,-31.09 20.56,-40.42zm-506.52 -197.24c2.2,-3.73 4.7,-7.31 7.74,-10.43 -0.76,3.25 -1.28,6.65 -2.94,9.61 -8.04,13.57 -12.67,28.72 -18.7,43.2 -8.07,20.67 -16.66,41.16 -24.4,61.96 7.23,-2.42 14.41,-5.03 21.41,-8.07 58.03,-22.38 116.66,-43.23 175.02,-64.74 -1.92,3.55 -4.96,6.26 -8.28,8.45 -12.57,8.61 -24.91,17.58 -37.35,26.37 -4.6,3.12 -7.95,7.64 -10.33,12.62 -30.48,60.84 -62.31,121.03 -92.36,182.09 17.78,-6.49 35.13,-14.05 52.43,-21.71 68.55,-26.6 137.64,-51.79 206.47,-77.67 10.32,-3.33 20,-8.84 30.94,-10.1l-2.68 2.15c-17.17,12.39 -32.76,26.78 -49.14,40.16 -9.35,7.72 -18.93,15.21 -27.05,24.28 -2.69,1.89 -5.8,3.04 -8.82,4.21 -50.13,17.43 -100.23,34.85 -150.36,52.28 -39.68,13.1 -79.43,27.82 -114.15,51.58 39.9,-74.73 79.81,-149.46 119.93,-224.1l-5.96 1.82c1.46,-0.61 4.4,-1.87 5.88,-2.48 -8.18,-4.11 -16.99,-11.98 -26.57,-7.38 -27.21,9.58 -54.47,19.08 -81.74,28.54 -9.65,3.44 -20.1,5.8 -28.13,12.57 -9.17,6.64 -16.4,16.25 -27.23,20.36 32.14,-51.84 64.28,-103.68 96.37,-155.57zm53.91 316.99c36.72,-12.49 73.15,-25.78 109.97,-37.99 -17.74,12.44 -36.97,22.54 -55.5,33.7 -23.66,14.15 -48.39,27.19 -69.01,45.73 -13.23,11.76 -23.09,27.16 -27.85,44.26 -7.35,19.06 -5.51,39.83 -5.16,59.78 8.61,-0.92 16.48,-4.77 24.58,-7.53 28.72,-10.38 57.62,-20.21 86.16,-31.05 1.73,-27.95 1.68,-55.98 3.83,-83.9 13.49,-5.55 27.21,-10.55 41.06,-15.18 -4.55,9.22 -13.16,16.02 -17.17,25.4 -3.38,55.21 -4.32,110.6 -3.3,165.92 1.07,14.79 -1.92,31.32 7.31,44.15 3.8,-3.12 7.41,-6.47 10.86,-9.99 4.6,0.18 9.6,1.33 13.72,-1.38 9.53,-5.39 17.93,-12.9 24.29,-21.8 5.45,-7.36 0.95,-16.68 0.87,-24.91 -2.76,-37.76 -1.76,-77.64 15.21,-112.29 7.23,-14.18 17.91,-29.05 34.31,-32.8 9.22,-2.18 17.55,3.27 25.73,6.66 1.22,-6.26 1.96,-12.59 2.5,-18.9 11.8,-4.47 23.61,-9.02 35.64,-12.83 -5.54,8.92 -13.61,16.17 -18.21,25.65 -2.1,22.97 -2.61,46.07 -3.2,69.14 0.44,19.62 0.44,39.68 6.47,58.59 1.25,4.7 4.44,8.48 7.23,12.36 3.5,-3.37 6.97,-6.79 10.47,-10.22 14.13,4.35 23.66,-9.96 30.51,-20 -1.82,-8.54 -4.19,-18.6 1.89,-26.04 3.83,-6.51 12.26,-8.1 16.76,-13.69 12.29,-32.48 8.89,-68.27 18.98,-101.23 6.39,-21.1 24.05,-37.48 45.02,-43.66 -2.22,8.4 -5.95,16.63 -5.36,25.49 -4.17,5.11 -8.92,10.17 -10.17,16.87 -2.81,9.02 0.23,18.29 2.5,27.05 8.56,29.82 22.44,58.31 26.34,89.33 1.84,11.65 -3.22,23.3 -11.08,31.68 -19.75,18.67 -56.04,21.61 -75.73,1.45 7.71,-1.45 13.41,5.11 20.51,6.85 15.89,4.45 35.21,0.51 46.25,-12.26 7.97,-9.92 6.69,-23.28 2.71,-34.55 2.52,-3.11 5.08,-6.2 7.66,-9.3 -24.65,3.48 -51.61,0.8 -73.79,14.13 -10.01,5.7 -12.11,19.22 -5.31,28.23 -9.48,21.62 -32.37,34.29 -54.29,40.04 -5.55,3.22 -9,9.15 -13.75,13.39 -0.66,-1.46 -1.97,-4.4 -2.63,-5.85 3.34,-6.16 13.16,-12.75 6.56,-19.93 -11.6,10.45 -21.89,22.79 -36.1,29.87 -8.68,5.01 -18.73,6.38 -28.54,7.28 -3.4,4.11 -7.05,8.02 -10.98,11.6 -7.72,-8.61 8.56,-14.44 4.9,-23.51 -7.33,2.51 -10.96,9.94 -16.4,14.92 -18.42,17.91 -40.04,37.38 -67.3,37.69 -3.45,4.52 -7.13,8.89 -11.11,12.98 -5.88,-12.39 -5.11,-26.44 -5.96,-39.78 -0.43,-37.41 -0.18,-74.84 0.18,-112.22 -4.52,-1.71 -9.66,-6.03 -14.46,-2.76 -30.33,17.45 -60.53,35.16 -90.26,53.61 5.82,50.94 5.95,102.94 -4.12,153.37 -5.98,24.53 -14.54,49.54 -31.35,68.89 -12.54,12.72 -26.93,25.24 -44.76,29.4 -15.82,2.94 -33.93,1.2 -46.4,-9.83 10.68,2.29 21.74,6.43 32.7,3.11 22.87,-5.7 38.28,-26.03 48.32,-46.11 19.75,-38.38 13.69,-82.91 13.69,-124.43 -0.97,-36.69 -6.79,-73.51 -1.68,-110.15 3.7,-34.77 24.12,-65.66 49.2,-89.09 -4.01,-2.83 -7.1,-8.02 -12.21,-8.69 -25.85,7.57 -49.31,24.69 -62.44,48.5 -7.21,12.08 -10.81,25.8 -13.57,39.47 -1.5,-33.29 9.17,-72.12 40.01,-89.65 23.31,-13.95 48.47,-24.61 74.25,-33.04zm324.61 53.4l0 0c-1.53,19.73 -5.42,39.09 -10.25,58.23 17.2,-5.62 35.29,-8.1 53.38,-7.69 -12.98,-33.16 -21.85,-67.66 -31.43,-101.87 -9.17,15.33 -9.12,34.09 -11.7,51.33zm-128.75 -3.19l0 0c-14.25,5.93 -21.71,21 -26.82,34.69 -11.24,32.38 -11.73,67.99 -4.75,101.33 1.71,7.85 3.55,17.02 11.03,21.44 3.17,-3.45 6.39,-6.85 9.66,-10.19 4.91,1.2 10.48,3.8 15,0.07 9.04,-6.56 15.56,-16.35 19.88,-26.54 2.3,-26.35 -2.43,-52.84 0.12,-79.21 1.31,-10.52 0.28,-21.36 -4.9,-30.76 1.4,-2.02 2.86,-4.04 4.32,-6.03 -7.36,-3.22 -15.33,-8.3 -23.54,-4.8zm-433.32 202.73l0 0c-13.23,25.78 -13.85,55.7 -12.13,84.01 1.96,10.99 5.21,23.46 14.51,30.46 4.32,-2.2 7.23,-6.39 10.7,-9.66 7.57,4.09 17.2,5.44 23.71,-1.46 14.54,-15.07 13.39,-38.07 13.62,-57.53 -1.33,-18.63 1.1,-38.4 -7.33,-55.7 0.69,-1.51 2.09,-4.55 2.81,-6.06 -6.08,-3.88 -12.95,-8.3 -20.54,-6.62 -11.93,2.05 -19.83,12.6 -25.35,22.56z"/>
   <path class="fil3" d="M769.4 813.78c5.52,-9.96 13.42,-20.51 25.35,-22.56 7.59,-1.68 14.46,2.74 20.54,6.62 -0.72,1.51 -2.12,4.55 -2.81,6.06 8.43,17.3 6,37.07 7.33,55.7 -0.23,19.46 0.92,42.46 -13.62,57.53 -6.51,6.9 -16.14,5.55 -23.71,1.46 -3.47,3.27 -6.38,7.46 -10.7,9.66 -9.3,-7 -12.55,-19.47 -14.51,-30.46 -1.72,-28.31 -1.1,-58.23 12.13,-84.01zm162.63 204.22c5.39,-2.27 10.55,-5.08 15.63,-7.99 -16.94,34.16 -33.88,68.34 -50.84,102.48 -3.12,6.36 -6.03,12.87 -10.27,18.6 13.51,-37.77 31.01,-74.02 45.02,-111.6l0.46 -1.49zm92.51 -222.87c2.17,-4.31 4.65,-8.48 6.82,-12.77 1.59,16.38 1.87,32.88 4.4,49.18 -4.55,10.53 -9.81,20.77 -15.26,30.87 2.51,-22.36 3.61,-44.82 4.04,-67.28zm132.73 -252.66c11.63,-8.33 22.43,-17.76 34.39,-25.6 -7.64,17.17 -16.63,33.7 -24.73,50.69 -3.63,6.88 -6.16,15.03 -13.34,19.11 0.64,-14.79 2.76,-29.43 3.68,-44.2zm43.51 -104.73c16.38,-13.38 31.97,-27.77 49.14,-40.16 -5.6,15.66 -13.7,30.43 -21.62,45.02 -17.5,8.02 -35.77,15.12 -54.57,19.42 8.12,-9.07 17.7,-16.56 27.05,-24.28zm-207.1 -99.79c9.58,-4.6 18.39,3.27 26.57,7.38 -1.48,0.61 -4.42,1.87 -5.88,2.48 -53.75,19.34 -107.51,38.83 -161.6,57.23 1.41,-1.64 1.74,-4.52 3.81,-5.62 10.83,-4.11 18.06,-13.72 27.23,-20.36 8.03,-6.77 18.48,-9.13 28.13,-12.57 27.27,-9.46 54.53,-18.96 81.74,-28.54zm117.78 -63.16c3.27,-1.2 6.62,-2.3 9.97,-3.32 -31.43,64.25 -65.77,127.11 -97.68,191.16 -2.96,6.77 -8.33,12.88 -8.56,20.57 -17.3,7.66 -34.65,15.22 -52.43,21.71 30.05,-61.06 61.88,-121.25 92.36,-182.09 2.38,-4.98 5.73,-9.5 10.33,-12.62 12.44,-8.79 24.78,-17.76 37.35,-26.37 3.32,-2.19 6.36,-4.9 8.28,-8.45l0.38 -0.59zm-172.41 11.44c6.03,-14.48 10.66,-29.63 18.7,-43.2 -4.9,30.58 -15.04,60.22 -21.61,90.52 -0.03,1.64 -0.08,4.93 -0.08,6.57 -7,3.04 -14.18,5.65 -21.41,8.07 7.74,-20.8 16.33,-41.29 24.4,-61.96zm555.96 129.26c22.97,-8.69 46.1,-16.89 69.09,-25.5 -19.57,13.85 -41.16,24.79 -60.02,39.6 -17.09,15.69 -16.73,40.6 -16.19,61.96 14.89,-12.98 30.12,-28.08 50.48,-31.3 10.43,-1.96 23.02,0.9 28.06,11.19 8.1,15.56 8.02,33.78 8.4,50.93 0.21,26.67 -0.41,53.39 1.15,79.99 2.71,6.06 9.28,1.3 12.29,-1.89 9.1,-9.76 14,-22.51 18.88,-34.72 4.91,-14.54 11.27,-28.52 16.71,-42.85 2.4,38.12 -5.65,78.36 -30.1,108.64 -11.95,15.28 -30.09,29.02 -50.53,26.6 -11.76,-1.1 -20.42,-11.88 -20.85,-23.33 -2.07,-33.98 -0.82,-68.04 -1.56,-102.07 -0.08,-6.47 -0.92,-12.9 -2.43,-19.16 -14.82,4.29 -30.02,17.62 -28.36,34.39 0.44,38.4 1.43,76.8 1.56,115.23 13.49,5.79 28.69,1.09 42.9,3.06 -34.85,12.42 -70.08,23.97 -104.14,38.53 0.41,-71 -0.31,-142.03 0.84,-213.01 0.18,-9.48 -0.59,-19.24 2.48,-28.33 3.7,-12.47 12.57,-22.82 22.99,-30.28 11.78,-7.84 25.48,-12.01 38.35,-17.68zm-35.54 25.6l0 0c-12.57,9.33 -21.46,24.45 -20.56,40.42 -1.08,69.21 -1.03,138.48 -0.41,207.69 6.36,-6.13 10.07,-14.35 16.02,-20.79 3.68,-2.4 7.89,-3.76 11.9,-5.47 -1.2,-39.17 -1.2,-78.36 -0.99,-117.55 -0.64,-10.74 9.04,-17.1 15.81,-23.72 9.15,-7.89 17.38,-16.88 27.14,-24.04 7.66,-5.03 19.67,-9.96 26.49,-1.07 -3.68,3.83 -7.38,7.64 -11.09,11.45 2.66,7.02 4.37,14.36 4.47,21.89 1,27.32 -0.12,54.65 0.8,81.97 0.51,11.39 -0.74,23.27 4.19,33.95 6.59,-4.67 11.83,-12.21 20.49,-12.93 15.94,-2.58 30.91,-10.73 41.62,-22.84 8.51,-10.42 17.01,-22.71 16.4,-36.79 -4.98,13.8 -10.91,28.72 -23.43,37.33 -5.36,4.03 -11.62,1.1 -17.17,-0.67 -3.93,3.86 -8.02,7.57 -12.34,10.99 -5.08,-6.31 -8.2,-14.03 -8.69,-22.1 -1.91,-35.69 -3.24,-71.44 -4.95,-107.13 -1.94,-9.48 7.13,-15.15 11.16,-22.59 -14.43,-4.72 -29.51,1.25 -41.03,10.02 -15.2,11.68 -28.69,25.34 -43.38,37.66 -9.89,-6.7 -9.76,-19.52 -9.84,-30.15 0.28,-10.83 0.13,-21.9 3.17,-32.37 4.01,-11.27 14.05,-18.47 22.15,-26.68 -9.86,3.2 -19.52,7.39 -27.93,13.52zm-436.46 105.88c48.03,-16.35 95.61,-34.01 143.74,-50.05 -47.88,35.95 -95.07,72.79 -142.64,109.12 -15.05,11.45 -29.28,25.47 -35.7,43.69 -4.59,12.8 -5.06,26.75 -4.16,40.22 26.01,-9.76 52.2,-18.96 78.28,-28.44 1.05,-27.8 1.74,-55.65 3.38,-83.4 19.57,-7.97 39.62,-14.79 59.32,-22.48 -6.05,77.01 -8.33,154.45 -4.93,231.63 10.22,-6.08 19.67,-13.82 25.83,-24.14 -4.8,-32.29 -4.93,-65.59 1.56,-97.65 5.44,-23.92 14.77,-48.95 34.72,-64.51 10.71,-8.72 25.91,-10.07 38.43,-4.58 0.08,-4.44 0.18,-8.91 0.26,-13.34 17.7,-7.15 35.82,-13.18 53.65,-20.03 -4.27,44.13 -7.61,88.48 -5.8,132.86 0.87,9.84 0.89,20.24 5.6,29.21 6.05,-4.37 11.42,-9.66 15.58,-15.9 -2.63,-9.91 -2.45,-21.36 4.24,-29.68 3.83,-5.68 10.25,-8.46 15.66,-12.29 14.08,-36.46 6.52,-78.24 24.48,-113.47 9.84,-19.7 30.28,-30.56 50.39,-37.15 11.26,20.24 22.71,40.39 33.39,60.96 -6.08,-2.63 -11.93,-5.8 -18.17,-7.99 -6.69,-1.36 -12.41,5.13 -12.06,11.52 0.28,16.02 9.43,29.89 13.8,44.91 6.64,21.18 15.61,42.49 15.18,65.03 -0.8,24.5 -21.34,43.84 -43.8,50.23 -23.02,6.64 -50.41,5.7 -69.59,-10.12 -8.28,13.77 -19.34,25.83 -31.94,35.75 -8.43,6.36 -18.83,12.36 -29.79,9.88 -5.04,-0.99 -8.05,-5.54 -11.4,-8.94 -12.52,14.97 -26.52,32.42 -47.14,35.18 -10.55,1.94 -19.26,-5.16 -25.21,-12.98 -11.09,15.46 -25.07,28.9 -40.6,39.84 -11.99,7.97 -27.31,15.22 -41.72,9.45 -12.24,-7.33 -11.76,-23.43 -13.01,-35.87 -1.94,-39.37 -0.1,-78.8 -0.89,-118.2 -23.2,19.93 -46.56,39.66 -69.83,59.51 2.78,47.6 3.01,95.94 -7.08,142.8 -6.85,30.99 -18.16,62.62 -41.06,85.51 -20.33,20.65 -51.81,31.81 -80.17,23.13 -20.67,-5.86 -36.18,-22.69 -46.09,-41.11 1.22,-1.46 3.7,-4.37 4.95,-5.83 10.04,10.37 23.71,18.22 38.45,18.47 14.57,-0.51 27.34,-9.58 36.44,-20.41 15.61,-18.96 25.7,-42.59 27.67,-67.15 2.3,-26.34 1.1,-52.83 0.43,-79.25 -0.94,-33.29 -5.92,-66.61 -2.53,-99.93 1.54,-21.94 7.41,-43.84 19.52,-62.39 -15.2,10.58 -28.18,24.86 -35.82,41.85 -9.2,20.06 -13.54,41.83 -19.26,63.03 -5.37,-42.03 -8.23,-87.61 11.57,-126.55 11.07,-22.4 34.52,-33.67 55.93,-43.99 21.82,-10.73 45.05,-17.99 67.94,-25.96zm-16.15 13.87l0 0c-25.78,8.43 -50.94,19.09 -74.25,33.04 -30.84,17.53 -41.51,56.36 -40.01,89.65 2.76,-13.67 6.36,-27.39 13.57,-39.47 13.13,-23.81 36.59,-40.93 62.44,-48.5 5.11,0.67 8.2,5.86 12.21,8.69 -25.08,23.43 -45.5,54.32 -49.2,89.09 -5.11,36.64 0.71,73.46 1.68,110.15 0,41.52 6.06,86.05 -13.69,124.43 -10.04,20.08 -25.45,40.41 -48.32,46.11 -10.96,3.32 -22.02,-0.82 -32.7,-3.11 12.47,11.03 30.58,12.77 46.4,9.83 17.83,-4.16 32.22,-16.68 44.76,-29.4 16.81,-19.35 25.37,-44.36 31.35,-68.89 10.07,-50.43 9.94,-102.43 4.12,-153.37 29.73,-18.45 59.93,-36.16 90.26,-53.61 4.8,-3.27 9.94,1.05 14.46,2.76 -0.36,37.38 -0.61,74.81 -0.18,112.22 0.85,13.34 0.08,27.39 5.96,39.78 3.98,-4.09 7.66,-8.46 11.11,-12.98 27.26,-0.31 48.88,-19.78 67.3,-37.69 5.44,-4.98 9.07,-12.41 16.4,-14.92 3.66,9.07 -12.62,14.9 -4.9,23.51 3.93,-3.58 7.58,-7.49 10.98,-11.6 9.81,-0.9 19.86,-2.27 28.54,-7.28 14.21,-7.08 24.5,-19.42 36.1,-29.87 6.6,7.18 -3.22,13.77 -6.56,19.93 0.66,1.45 1.97,4.39 2.63,5.85 4.75,-4.24 8.2,-10.17 13.75,-13.39 21.92,-5.75 44.81,-18.42 54.29,-40.04 -6.8,-9.01 -4.7,-22.53 5.31,-28.23 22.18,-13.33 49.14,-10.65 73.79,-14.13 -2.58,3.1 -5.14,6.19 -7.66,9.3 3.98,11.27 5.26,24.63 -2.71,34.55 -11.04,12.77 -30.36,16.71 -46.25,12.26 -7.1,-1.74 -12.8,-8.3 -20.51,-6.85 19.69,20.16 55.98,17.22 75.73,-1.45 7.86,-8.38 12.92,-20.03 11.08,-31.68 -3.9,-31.02 -17.78,-59.51 -26.34,-89.33 -2.27,-8.76 -5.31,-18.03 -2.5,-27.05 1.25,-6.7 6,-11.76 10.17,-16.87 -0.59,-8.86 3.14,-17.09 5.36,-25.49 -20.97,6.18 -38.63,22.56 -45.02,43.66 -10.09,32.96 -6.69,68.75 -18.98,101.23 -4.5,5.59 -12.93,7.18 -16.76,13.69 -6.08,7.44 -3.71,17.5 -1.89,26.04 -6.85,10.04 -16.38,24.35 -30.51,20 -3.5,3.43 -6.97,6.85 -10.47,10.22 -2.79,-3.88 -5.98,-7.66 -7.23,-12.36 -6.03,-18.91 -6.03,-38.97 -6.47,-58.59 0.59,-23.07 1.1,-46.17 3.2,-69.14 4.6,-9.48 12.67,-16.73 18.21,-25.65 -12.03,3.81 -23.84,8.36 -35.64,12.83 -0.54,6.31 -1.28,12.64 -2.5,18.9 -8.18,-3.39 -16.51,-8.84 -25.73,-6.66 -16.4,3.75 -27.08,18.62 -34.31,32.8 -16.97,34.65 -17.97,74.53 -15.21,112.29 0.08,8.23 4.58,17.55 -0.87,24.91 -6.36,8.9 -14.76,16.41 -24.29,21.8 -4.12,2.71 -9.12,1.56 -13.72,1.38 -3.45,3.52 -7.06,6.87 -10.86,9.99 -9.23,-12.83 -6.24,-29.36 -7.31,-44.15 -1.02,-55.32 -0.08,-110.71 3.3,-165.92 4.01,-9.38 12.62,-16.18 17.17,-25.4 -13.85,4.63 -27.57,9.63 -41.06,15.18 -2.15,27.92 -2.1,55.95 -3.83,83.9 -28.54,10.84 -57.44,20.67 -86.16,31.05 -8.1,2.76 -15.97,6.61 -24.58,7.53 -0.35,-19.95 -2.19,-40.72 5.16,-59.78 4.76,-17.1 14.62,-32.5 27.85,-44.26 20.62,-18.54 45.35,-31.58 69.01,-45.73 18.53,-11.16 37.76,-21.26 55.5,-33.7 -36.82,12.21 -73.25,25.5 -109.97,37.99zm311.25 134.96l0 0c-6.06,3.57 -5.27,12.29 -0.18,16.35 13.54,11.32 35.05,9.45 48.03,-1.89 6.67,-6.44 8.02,-16.56 5.11,-25.09 -17.86,0.74 -37.45,0.46 -52.96,10.63zm13.36 -81.56c2.58,-17.24 2.53,-36 11.7,-51.33 9.58,34.21 18.45,68.71 31.43,101.87 -18.09,-0.41 -36.18,2.07 -53.38,7.69 4.83,-19.14 8.72,-38.5 10.25,-58.23zm4.17 46.12l0 0c9.35,-1.51 18.77,-2.45 28.2,-3.53 -7.54,-19.42 -12.49,-39.68 -19.52,-59.25 -2.53,20.98 -3.96,42.13 -8.68,62.78zm-132.92 -49.31c8.21,-3.5 16.18,1.58 23.54,4.8 -1.46,1.99 -2.92,4.01 -4.32,6.03 5.18,9.4 6.21,20.24 4.9,30.76 -2.55,26.37 2.18,52.86 -0.12,79.21 -4.32,10.19 -10.84,19.98 -19.88,26.54 -4.52,3.73 -10.09,1.13 -15,-0.07 -3.27,3.34 -6.49,6.74 -9.66,10.19 -7.48,-4.42 -9.32,-13.59 -11.03,-21.44 -6.98,-33.34 -6.49,-68.95 4.75,-101.33 5.11,-13.69 12.57,-28.76 26.82,-34.69zm-4.21 34.21l0 0c-8.38,20.95 -9.15,44.02 -7.72,66.27 1.49,14.16 2.05,28.83 7.59,42.14 10.32,-4.55 16.15,-15.1 20.98,-24.74 1.68,-25.37 -2.43,-50.81 -0.18,-76.18 0.59,-9.38 2.12,-20.37 -5.21,-27.7 -7.62,4.52 -12.19,12.26 -15.46,20.21zm-389.33 42.39c18.37,-6.83 36.97,-13.01 55.37,-19.75 -4.93,57.36 -2.48,115.02 1.35,172.35 2.71,29.8 4.19,59.97 11.65,89.05 -17.29,6.15 -34.54,12.41 -51.91,18.31 -1.05,-4.52 -2.1,-9.07 -3.04,-13.59 -5.45,11.45 -12.37,22.74 -23.18,29.84 -11.37,7.62 -27.57,10.17 -39.34,2.05 -7.57,-4.78 -11.91,-12.75 -16.71,-19.96 -11.86,31.17 -29.46,61.66 -56.93,81.48 -15.02,10.66 -36.36,17.2 -53.07,6.39 -20.49,-14.59 -29.45,-40.14 -32.09,-64.23 -3.88,-26.6 1.31,-53.66 10.1,-78.77 7.48,-21.44 20.84,-41.9 40.85,-53.43 12.19,-6.82 28.72,-9.68 40.47,-0.46 12.67,10.17 14.87,28.01 14.44,43.21 -2.71,34.67 -25.91,65.56 -55.7,82.4 -0.64,8.17 3.29,17.62 8.25,24.57 5.55,6.6 14.33,0.87 19.83,-2.75 16.66,-13.01 27.28,-31.99 36.99,-50.36 8.36,-17.94 17.45,-36.44 17.4,-56.67 1.43,-31.48 6.59,-65.84 29.82,-89.17 10.78,-12.44 28.9,-18.12 44.53,-11.96 0.41,-29.53 0.03,-59.04 0.92,-88.55zm8.41 5.9l0 0c-3.02,31.65 -0.84,63.72 -1.3,95.55 -8.16,-4.44 -16.92,-9.86 -26.65,-7.43 -16.48,3.83 -27.21,18.83 -34.85,32.91 -13.21,25.16 -11.58,54.27 -15.26,81.6 -7.25,26.65 -19.75,51.95 -35.82,74.4 -9.25,12.11 -20.62,25.22 -36.64,27.32 -4.26,-0.77 -8.35,-2.23 -12.44,-3.53 -3.55,3.42 -7.15,6.82 -10.76,10.19 -13.36,-12.18 -16.09,-31.09 -18.57,-48.03 -1.69,-28.46 4.19,-57.69 17.3,-83.06 8.33,-14.51 23.45,-30.07 41.85,-24.58 1.38,-2.32 2.78,-4.62 4.16,-6.92 -15.71,-8.31 -33.59,0.71 -45.09,12.03 -24.02,23.25 -32.63,57.74 -35.8,89.96 -0.51,25.58 2.58,53.78 19.68,74.1 3.42,-3.91 6.95,-7.72 10.57,-11.45 4.32,2.99 8.1,7.94 13.75,8.2 16.63,0.97 31.94,-8.71 43.41,-19.93 23.86,-24.12 35.28,-56.64 47.88,-87.33 3.29,15.2 6.39,30.71 14.08,44.46 3.45,-2.63 6.77,-5.44 9.99,-8.36 5.72,1.64 11.95,3.22 17.68,0.54 20.41,-7.94 35.43,-25.34 47.03,-43.31 1.82,1.38 3.66,2.76 5.47,4.19 -3.86,5.09 -7.41,10.4 -10.83,15.82 1.22,4.55 2.48,9.15 3.91,13.67 6.59,-7.67 8.81,-18.86 18.5,-23.66 -9.15,-65.18 -11.91,-131.12 -12.04,-196.89 -1.66,-13.9 11.73,-22.02 17.2,-33.34 -12.24,3.94 -24.68,7.59 -36.41,12.88zm-132.07 171.05l0 0c4.7,19.78 -3.5,39.89 -12.31,57.31 -5.91,12.21 -16.02,21.36 -24.51,31.68 20.03,-13.72 34.39,-34.85 41.4,-57.94 4.42,-12.96 4.39,-27.11 -0.29,-39.96 -4.01,1.5 -6.69,4.65 -4.29,8.91zm-26.88 22.92l0 0c-6.31,17.38 -8.3,35.98 -9.02,54.35 16.41,-16.59 27.14,-38.76 30.38,-61.83 1.03,-5.7 -0.2,-11.4 -2.55,-16.59 -9.76,4.5 -15.15,14.49 -18.81,24.07zm-211.24 -111.06c28.49,-12.75 60.45,-19.47 91.59,-14.72 20.9,3.55 42.26,12.49 55.11,30.12 17.17,24.07 17.56,57.29 4.91,83.45 -15.66,32.63 -44.74,56.05 -74.09,75.88 12.44,2.61 24.37,8.33 32.98,17.89 20.44,21.77 26.42,53.16 47.42,74.58 14.64,16.12 37.38,25.37 59.07,20.49 29.56,-6.34 54.19,-27.16 71.36,-51.36 9.53,-12.72 14.64,-27.9 20.78,-42.38 1.14,1.12 3.47,3.42 4.62,4.54 -3.22,34.5 -15.51,69.45 -40.68,94.1 -22.17,23 -52.35,38.45 -84.18,42.03 -33.04,3.27 -67.15,-12.98 -85.36,-40.75 -16.33,-25.04 -25.81,-53.68 -40.17,-79.79 -3.63,-6.67 -8.02,-12.93 -13.36,-18.32 2.22,49.23 5.64,100.49 -11.47,147.68 -10.66,30.22 -35.39,55.77 -66.76,64.1 -30.15,7.64 -60.2,15.76 -90.53,22.66 25.5,-17.65 51.89,-33.93 77.8,-50.97 19.06,-12.9 25.27,-36.84 28.13,-58.38 6.95,-53.35 7.49,-107.28 6.72,-160.99 0.13,-21.36 -2.02,-44.35 8.41,-63.85 9.09,-16.17 28.15,-21.25 44.04,-28.15 0.08,32.7 -0.23,65.38 0.36,98.08 22.56,-15.35 43.77,-34.69 54.6,-60.27 6.75,-15.89 8.56,-35.74 -1.73,-50.54 -8.28,-12.13 -24.46,-15.02 -38.15,-13.95 -23.76,2.53 -45.89,14.16 -63.8,29.61 -15.05,14.67 -27.82,36.77 -20.23,58.23 2.12,9.12 11.21,15.03 11.65,24.58 -16.92,-1.94 -35.24,-7.38 -45.89,-21.59 -15.05,-18.5 -17.09,-45.22 -8.23,-66.91 11.22,-29.77 36.59,-52.23 65.08,-65.1zm-10.22 14.38l0 0c-26.78,15.69 -49.16,42.49 -52.43,74.15 -0.49,13.44 1.84,29.48 12.65,38.6 2.04,-2.22 4.06,-4.39 6.1,-6.56 -1.58,-9.61 -4.42,-19.52 -1.45,-29.16 3.98,-13.82 13.21,-25.42 22.58,-36.07 24.45,-23.38 57.44,-38.61 91.5,-39.12 16.45,2.05 35.87,5.52 45.37,20.75 -3.55,3.47 -7.02,7.02 -10.45,10.63 15.18,19.98 12.83,47.77 1.33,68.9 -14.54,28.8 -41.47,47.88 -67.35,65.64 12.47,2.38 24.76,6.95 34.16,15.77 26.68,23.68 36.16,59.88 58.61,86.79 22.51,25.62 60.79,31.68 92.26,21.41 29.8,-11.5 55.91,-33.29 70.96,-61.65 -9.2,8.61 -16.59,19.03 -26.63,26.77 -22.28,18.99 -53.14,30.76 -82.32,22.95 -22.28,-7.72 -38.71,-26.63 -50.25,-46.48 -9.36,-18.85 -18.78,-38.14 -33.24,-53.73 -12.93,-12.39 -31.94,-14.77 -49.03,-15.89 3.8,-3.6 7.79,-7.03 12.13,-9.94 18.6,-12.47 35.59,-27.62 48.83,-45.73 11.75,-15.97 18.11,-35.21 22.25,-54.4 3.37,-17.63 -3.96,-35.03 -15.13,-48.39 3.63,-3.6 7.03,-7.39 9.89,-11.6 -12.29,-7.64 -25.8,-13.57 -40.26,-15.43 -34.57,-4.65 -70.16,4.44 -100.08,21.79zm17.5 89.27l0 0c-6.41,14.39 -5.75,30.59 -5.93,45.99 0.77,55.39 0.79,110.99 -5.72,166.1 -2.4,17.91 -5.34,36.43 -14.9,52.1 -11.19,18.95 -33.03,26.62 -49.84,39.42 16.42,-5.16 32.67,-11.88 47.11,-21.36 26.09,-19.09 33.75,-52.79 38.09,-82.99 8.16,-64.43 5.47,-129.61 3.56,-194.35 0,-9.92 7.56,-17.32 11.72,-25.73 -9.99,4.04 -19.62,10.65 -24.09,20.82zm343.31 -70.74l0 0c-5.62,3.85 -8.84,10.27 -11.5,16.35 -7.69,21.2 -9.55,44.56 -5.87,66.78 1.71,7.98 3.47,17.86 11.29,22.18 10.94,-0.2 15.79,-12.52 17.89,-21.61 4.67,-24 1.78,-48.63 0.48,-72.79 -0.28,-6.01 -4.85,-17.48 -12.29,-10.91z"/>
  </g>
 </g>
</svg>
