<?xml version="1.0" encoding="UTF-8"?>
<!DOCTYPE svg PUBLIC "-//W3C//DTD SVG 1.1//EN" "http://www.w3.org/Graphics/SVG/1.1/DTD/svg11.dtd">
<!-- Creator: CorelDRAW -->
<svg xmlns="http://www.w3.org/2000/svg" xml:space="preserve" width="2000px" height="1600px" version="1.1" style="shape-rendering:geometricPrecision; text-rendering:geometricPrecision; image-rendering:optimizeQuality; fill-rule:evenodd; clip-rule:evenodd"
viewBox="0 0 2000 1600"
 xmlns:xlink="http://www.w3.org/1999/xlink">
 <defs>
  <style type="text/css">
   <![CDATA[
    .fil1 {fill:black;fill-rule:nonzero}
    .fil0 {fill:#C52F39;fill-rule:nonzero}
   ]]>
  </style>
 </defs>
 <g id="Capa_x0020_1">
  <metadata id="CorelCorpID_0Corel-Layer"/>
  <g id="San_x0020_Diego_x0020_State_x0020_Aztecs.cdr">
   <path class="fil0" d="M580.44 113.47l659.03 0c-17.85,163.37 -35.7,326.73 -53.66,490.09 -70.85,0 -141.7,0.06 -212.53,-0.02 15.59,-16.02 31.13,-32.09 46.88,-47.96 0.57,-36.05 -0.75,-72.08 -0.4,-108.1 -0.02,-62.1 0.02,-124.19 -0.02,-186.27 -58.28,-0.02 -116.56,-0.04 -174.86,0 -0.12,33.93 0.16,67.87 -0.14,101.8 -82.74,-0.08 -165.49,0 -248.26,-0.04 -5.21,-83.18 -10.65,-166.34 -16.04,-249.5zm54.03 891.3c74.13,0.04 148.26,-0.1 222.39,0.06 -19.29,15.67 -39.23,30.55 -58.84,45.83 -0.21,95.04 -0.06,190.08 -0.07,285.12 77.54,0.04 155.09,0 232.64,0.02 0.14,-37.37 -0.1,-74.75 0.12,-112.12l0.95 -0.87c64.6,-3.81 128.93,-13.24 191.78,-28.81 6.5,97.47 12.92,194.96 19.27,292.45 -216.58,0.1 -433.16,0.02 -649.75,0.04 -4.24,-0.02 -8.55,0.3 -12.74,-0.48 18.59,-160.35 35.97,-320.84 54.25,-481.24zm-23.44 -447.57c77.9,-0.41 155.83,0.55 233.71,-0.61 0.34,48.12 -0.06,96.22 0.2,144.33 57,-0.42 113.95,0.73 170.93,0.49 57.43,0.08 114.86,-0.16 172.29,0.12 6.74,93.18 13.91,186.36 20.34,279.56 -22.47,17.4 -49.13,28.86 -75.91,38.05 -33.14,10.59 -67.47,18.08 -102.12,21.04 0.34,-55.59 0.06,-111.2 0.14,-166.81 -131.97,0.04 -263.97,-0.14 -395.97,0.09 -8.38,-105.37 -15.31,-210.88 -23.61,-316.26z"/>
   <path class="fil1" d="M238.89 389.18c172.69,-0.06 345.36,0 518.03,-0.02 17.15,-0.16 34.31,0.39 51.44,-0.48 60.57,-0.06 121.17,0 181.74,-0.04 0.04,47.24 0,94.47 0.02,141.72 -5.3,0.22 -10.57,0.56 -15.85,0.62 -154.92,-0.04 -309.82,0 -464.72,-0.02 8.95,86.14 17.82,172.29 26.77,258.42 0.38,3.81 0.28,7.66 -0.13,11.5 -9.04,91 -17.71,182.05 -26.82,273.06 29.21,0 58.4,0 87.59,0 -4.73,41.86 -9.33,83.71 -14.15,125.55 -114.61,-0.14 -229.23,-0.02 -343.84,-0.06 27.29,-121.75 55.24,-243.38 82.63,-365.12 -40.71,0.02 -81.42,0 -122.13,0 -12.79,-0.07 -26.33,-3.77 -35.12,-13.59 -7.59,6.7 -17.33,12.41 -27.87,10.93 -32.8,-5.65 -66.03,0.99 -99.01,0.71 -9.72,0.14 -16.96,-7.89 -21.62,-15.56 -9.03,-15.17 -13.95,-32.58 -15.85,-50.07l0 -15.81c0.93,-9.57 5.51,-19.94 15.32,-23.17 19.11,-6.93 39.88,-5.94 59.9,-6.08 21.12,0.04 42.27,-0.32 63.36,0.81 10.02,1.12 19.38,6.26 29.62,5.59 6.35,-0.3 11.4,-4.64 17.22,-6.66 23.22,-8.26 51.16,-6.42 70.65,9.72 16.83,-13.5 39.68,-15.73 60.39,-12.8 -25.73,-109.75 -51.83,-219.41 -77.57,-329.15zm995.68 40.65c81.87,25.02 161.52,63 225.13,121.24 51.62,47.02 90.1,109.75 102.69,178.88 21.82,0.27 43.64,0.04 65.46,0.12 12.8,-12.95 24.32,-27.3 37.59,-39.69 19.11,-3.44 38.35,-6.32 57.55,-9.42 5.15,9.99 9.82,20.21 14.84,30.27 1.24,0.02 3.75,0.02 5,0.02 5.87,-10.59 11.68,-21.24 17.68,-31.76 27.12,6.53 54.15,13.36 81.27,19.86 1.76,9.59 2.09,19.43 4.43,28.92l1.89 1.74c8.68,-6.05 14.79,-15.04 22.59,-22.12 24.55,11.35 48.94,23.03 73.12,35.08 19.04,9.94 38.96,18.76 56.19,31.72l0 2.61c-10.16,9.53 -22.88,15.67 -34.72,22.79 -29.84,16.7 -59.94,32.98 -90.91,47.49 -7.99,-7.2 -15.59,-14.81 -23.12,-22.47 -1.6,0.61 -3.09,1.4 -4.47,2.33 -1.21,9.84 -1.36,19.78 -2.51,29.62 -27,6.84 -54.01,13.58 -80.93,20.69 -7.17,-9.58 -14.13,-19.34 -21.05,-29.09 -1.06,0.16 -3.18,0.48 -4.25,0.64 -4.15,10.19 -8.55,20.29 -12.76,30.45 -19.21,-2.81 -38.4,-5.67 -57.61,-8.42 -2.13,-0.33 -4.45,-0.61 -5.95,-2.29 -12.59,-11.7 -24.86,-23.74 -37.57,-35.28 -19.09,0.14 -38.18,0.02 -57.25,0.06 -3.01,25.06 -8.07,49.9 -16.31,73.78 -19.33,56.68 -55.63,106.71 -101.06,145.37 -56.21,48.18 -124.21,80.67 -194.33,103.12 -92.59,29.35 -189.88,41.82 -286.78,43.38 -46.96,-0.1 -93.91,0.02 -140.85,-0.06 0,-41.81 -0.02,-83.63 0,-125.47 71.38,-0.24 143.06,0.97 214.01,-8.36 38.5,-5 76.76,-13.14 113.2,-26.76 32.02,-12.11 62.67,-28.77 88.24,-51.76 27.61,-24.46 48.44,-56.32 60.46,-91.16 13.62,-39.11 17.27,-81.07 15.24,-122.24 -2,-38.38 -10.06,-77.03 -28.15,-111.18 -16.58,-32.06 -42.45,-58.88 -72.88,-78.05 5.49,-51.54 11.28,-103.06 16.88,-154.6z"/>
  </g>
 </g>
</svg>
