<?xml version="1.0" encoding="UTF-8"?>
<!DOCTYPE svg PUBLIC "-//W3C//DTD SVG 1.1//EN" "http://www.w3.org/Graphics/SVG/1.1/DTD/svg11.dtd">
<!-- Creator: CorelDRAW -->
<svg xmlns="http://www.w3.org/2000/svg" xml:space="preserve" width="2000px" height="1600px" version="1.1" style="shape-rendering:geometricPrecision; text-rendering:geometricPrecision; image-rendering:optimizeQuality; fill-rule:evenodd; clip-rule:evenodd"
viewBox="0 0 2000 1600"
 xmlns:xlink="http://www.w3.org/1999/xlink">
 <defs>
  <style type="text/css">
   <![CDATA[
    .fil1 {fill:#00533C;fill-rule:nonzero}
    .fil0 {fill:#FCB930;fill-rule:nonzero}
   ]]>
  </style>
 </defs>
 <g id="Capa_x0020_1">
  <metadata id="CorelCorpID_0Corel-Layer"/>
  <g id="San_x0020_Francisco_x0020_Dons.cdr">
   <path class="fil0" d="M96.94 0l300.07 0c14.73,2.7 29.82,7.48 40.74,18.21 9.98,9.52 14.96,23.39 15.11,37.04 0.02,261.39 0,522.79 0,784.19 0.76,60.94 -3.87,122.96 11.28,182.65 11.17,47 35.86,91.49 73.47,122.39 28.2,24.41 63.3,38.03 96.32,54.4 78.86,37.73 157.35,76.36 237.79,110.61 34.49,14.24 69.29,28.52 105.88,36.45 33.81,7.84 67.3,-5.4 98.92,-16.03 71.98,-26.62 141.06,-60.32 210.42,-93.04 41.58,-19.93 83.16,-39.84 124.68,-59.92 33.09,-15.79 63.01,-38.89 84.83,-68.53 25.22,-33.74 39.05,-74.73 45.36,-116.06 6.89,-43.56 5.1,-87.8 5.34,-131.72 0,-268.47 -0.03,-536.94 0,-805.42 0.1,-13.66 5.18,-27.47 15.08,-37.03 11.39,-11.03 27.09,-16.04 42.46,-18.19l298.37 0 0 258.17c-19.15,0 -38.29,0 -57.44,-0.02 -13.55,-0.07 -27.94,4.52 -36.67,15.36 -8.01,9.56 -9.44,22.59 -8.99,34.59 1,101.27 0.45,202.56 0.57,303.85 -0.74,108.37 -0.53,216.74 -0.51,325.1 -1.14,81.74 -15.3,164.61 -51.72,238.39 -29.51,60.83 -73.88,113.93 -126.68,155.94 -56.58,45.24 -121.86,78.55 -189.62,103.59 -82.4,30.81 -163.67,64.57 -244.19,100.03 -38.71,16.73 -77.11,34.32 -116.69,49 -19.89,7.21 -40.25,13.69 -61.37,16l-19.48 0c-39.1,-4.82 -75.39,-21.27 -111.49,-36.1 -76.33,-32.89 -152.16,-66.97 -229.51,-97.49 -36.99,-15.13 -74.68,-28.47 -111.76,-43.39 -71.93,-29.68 -140.5,-69.88 -196.34,-124.58 -50.61,-48.97 -89.32,-110.15 -111.68,-176.95 -20.21,-58.5 -28.22,-120.56 -29.49,-182.25 0,-90.69 -0.02,-181.4 0,-272.08 -1.04,-29.75 -0.34,-59.52 -0.53,-89.27 0.15,-84.23 -0.43,-168.48 0.53,-252.71 -0.62,-15.12 2.38,-31.34 -4.8,-45.36 -7.12,-14.19 -23.42,-21.44 -38.74,-21.63 -19.84,-0.11 -39.67,0.02 -59.52,-0.02l0 -258.17z"/>
   <path class="fil1" d="M635.48 35.31c47.39,-16.57 97.7,-23.01 147.7,-24.18 200.12,0.03 400.22,0.03 600.33,0 0.07,47.28 0.02,94.58 0.02,141.86 -96.34,-0.04 -192.68,0.08 -289.02,-0.07 0.07,-9.71 0,-19.42 0.07,-29.11 -62.35,-0.08 -124.67,0 -186.99,-0.04 -0.04,31.34 -0.02,62.66 0,94 111.53,0.03 223.09,0.05 334.64,0 40.84,0.24 82.53,4.93 120.37,21.15 19.45,8.69 39.02,19.61 51.7,37.24 6.01,8.65 9.52,19.15 9.12,29.73 -0.09,41.84 -0.03,83.66 -0.05,125.47 -0.04,9.14 0.92,18.81 -3.37,27.22 -7.68,16.36 -23.55,26.63 -38.99,34.76 -40.29,20.19 -85.61,28.26 -130.34,29.9 -218.84,0.02 -437.68,0 -656.51,0 -0.02,-49.76 0,-99.51 0,-149.27 104.81,0 209.65,0 314.47,0 0,11.33 -0.02,22.67 0,34 61.98,0 123.94,0 185.93,0 0,-31.87 0,-63.75 0,-95.62 -97.41,0 -194.79,0 -292.17,0 -23.27,-0.13 -46.58,0.7 -69.76,-1.72 -38.08,-3.57 -76.3,-12.6 -109.68,-31.77 -22.95,-12.94 -47.6,-33.33 -47.41,-62.08 0.07,-43.29 -0.04,-86.57 0.05,-129.83 -0.05,-11.43 5.95,-22.21 14.7,-29.28 13.19,-10.69 29.34,-16.81 45.19,-22.36z"/>
   <path class="fil1" d="M596.28 590.7c275.7,0 551.4,-0.02 827.09,0 0,55.78 0.02,111.56 -0.02,167.34 -89.09,-0.11 -178.21,0.23 -267.3,-0.17 0.23,-12.16 0.08,-24.33 0.1,-36.49 -59.13,0 -118.26,0 -177.4,0 0,36.32 -0.02,72.61 0.02,108.9 66.57,-0.02 133.15,0 199.72,0 0,35.76 0,71.54 0,107.3 -66.57,0 -133.15,0.03 -199.72,0 -0.08,43.88 0.07,87.74 -0.06,131.62 25.5,10.47 51.23,20.35 76.64,31.04 -0.25,48.51 -0.04,97.04 -0.1,145.57 -152.97,-61.43 -305.94,-122.85 -458.95,-184.2 -0.04,-48.47 0,-96.96 -0.02,-145.44 26.12,10.79 52.46,20.99 78.62,31.63 0,-75.47 0,-150.94 0,-226.42 -26.18,0.02 -52.36,-0.06 -78.51,0.07 -0.24,-43.58 -0.05,-87.16 -0.11,-130.75z"/>
  </g>
 </g>
</svg>
