<?xml version="1.0" encoding="UTF-8"?>
<!DOCTYPE svg PUBLIC "-//W3C//DTD SVG 1.1//EN" "http://www.w3.org/Graphics/SVG/1.1/DTD/svg11.dtd">
<!-- Creator: CorelDRAW -->
<svg xmlns="http://www.w3.org/2000/svg" xml:space="preserve" width="2000px" height="1600px" version="1.1" style="shape-rendering:geometricPrecision; text-rendering:geometricPrecision; image-rendering:optimizeQuality; fill-rule:evenodd; clip-rule:evenodd"
viewBox="0 0 2000 1600"
 xmlns:xlink="http://www.w3.org/1999/xlink">
 <defs>
  <style type="text/css">
   <![CDATA[
    .fil1 {fill:#050707;fill-rule:nonzero}
    .fil3 {fill:#90182C;fill-rule:nonzero}
    .fil4 {fill:#9F434A;fill-rule:nonzero}
    .fil2 {fill:#B1B4B8;fill-rule:nonzero}
    .fil0 {fill:#FEFEFE;fill-rule:nonzero}
   ]]>
  </style>
 </defs>
 <g id="Capa_x0020_1">
  <metadata id="CorelCorpID_0Corel-Layer"/>
  <g id="Santa_x0020_Clara_x0020_Broncos.cdr">
   <path class="fil0" d="M1512.49 521.87c10.97,-4.04 22.82,-4.02 34.12,-1.36 -5.89,5.39 -10.85,13.19 -8.11,21.48 3.74,14.45 23.39,19.77 35.03,11.42 2.54,-1.91 4.7,-4.29 7.01,-6.52 1.85,2.96 3.76,5.89 5.67,8.82 -12.54,10.26 -30.4,14.48 -45.64,7.96 -16.86,-6.52 -27.73,-23.98 -28.08,-41.8zm-108.38 689.38c8.39,-7.03 17.47,-13.34 26.47,-19.6 14.07,-0.71 28.25,-0.37 42.37,-0.17 1.16,0.59 3.5,1.79 4.67,2.38 0.29,-0.63 0.88,-1.93 1.18,-2.58 10.08,0.04 20.16,0.02 30.24,0.02 -4.96,13.8 -10.04,27.57 -15.06,41.35 -10.12,-0.02 -20.26,0.02 -30.38,-0.04 2.2,-6.07 4.45,-12.11 6.61,-18.17 -12.44,0 -24.87,-0.04 -37.31,0.02 -3.7,10.35 -7.5,20.65 -11.24,30.99 15.35,0 30.71,0 46.07,0 4.63,7.13 9.14,14.33 13.77,21.48 -4.59,11.77 -8.08,24.06 -13.36,35.56 -8.4,7.07 -17.68,13.07 -26.4,19.75 -14.35,-0.3 -28.73,0.53 -43.02,-0.37 -1.09,-0.48 -3.21,-1.42 -4.3,-1.89 -0.25,0.57 -0.8,1.71 -1.06,2.28 -10.08,-0.04 -20.16,-0.04 -30.22,-0.02 4.94,-13.61 9.9,-27.21 14.84,-40.84 10.1,-0.06 20.21,0 30.33,-0.04 -2.05,5.75 -4.12,11.52 -6.23,17.25 12.49,-0.02 24.95,0.02 37.43,-0.02 3.67,-10 7.29,-20 10.93,-30.01 -15.37,-0.02 -30.75,0 -46.13,0 -4.47,-7.22 -9.1,-14.33 -13.61,-21.52 4.63,-11.87 8.29,-24.16 13.41,-35.81zm-192.63 -4.12c7.29,-5.24 14.47,-10.61 21.78,-15.83 18.9,-0.02 37.8,0.04 56.73,-0.02 4.51,7.17 9.07,14.29 13.64,21.44 -10.45,29.04 -21.11,58.05 -31.66,87.05 -2.74,6.05 -9.77,8.43 -14.49,12.68 -4.77,3.15 -8.94,7.55 -14.28,9.63 -18.65,0.4 -37.33,0.02 -55.98,0.16 -4.57,-7.17 -9.06,-14.35 -13.58,-21.52 10.63,-29.04 21.08,-58.19 31.78,-87.21 0.74,-3.11 3.76,-4.55 6.06,-6.38zm23.83 7.31l0 0c-10.12,28.27 -20.58,56.43 -30.78,84.66 12.39,-0.02 24.79,0.02 37.2,0 10.25,-28.23 20.53,-56.45 30.85,-84.66 -12.42,-0.02 -24.85,0 -37.27,0zm-228.08 -2.25c7.9,-8.09 18.26,-13.76 27.14,-20.89 14.59,-0.02 29.16,0.02 43.75,-0.02 0.45,0.75 1.34,2.22 1.77,2.97 0.96,-0.69 2.89,-2.05 3.84,-2.74 9.67,-0.57 19.36,-0.03 29.04,-0.19 -5.55,15.06 -10.98,30.18 -16.5,45.27 -10.16,0 -20.32,-0.04 -30.48,0.02 2.72,-7.39 5.38,-14.81 8.03,-22.21 -12.38,0.04 -24.77,0.07 -37.15,0 -10.38,28.21 -20.66,56.47 -30.93,84.74 12.42,-0.06 24.83,-0.04 37.25,-0.04 2.54,-6.89 5.06,-13.78 7.56,-20.67 10.16,0 20.32,0 30.5,0 -3.13,7.78 -5.31,15.93 -8.8,23.57 -8.27,7.32 -17.58,13.52 -26.6,19.9 -19.06,0.81 -38.2,0.08 -57.3,0.34 -4.53,-7.13 -9.06,-14.26 -13.59,-21.38 10.91,-29.52 21.37,-59.23 32.47,-88.67zm-212.3 -20.85c12.47,-0.08 24.91,0 37.37,-0.04 6.03,25.64 12.15,51.27 18.2,76.91 6.61,-17.88 13.11,-35.82 19.57,-53.75 -2.8,-0.04 -5.55,-0.06 -8.31,-0.09 2.8,-7.69 5.59,-15.39 8.43,-23.07 15.67,0.02 31.37,0 47.04,0 -2.78,7.72 -5.65,15.4 -8.45,23.12 -2.79,0 -5.59,0 -8.37,0.02 -10.28,28.19 -20.5,56.43 -30.79,84.62 2.75,0 5.53,0.02 8.31,0.06 -2.74,7.72 -5.56,15.4 -8.27,23.12 -12.84,-0.02 -25.66,0 -38.48,0 -5.89,-25.07 -11.85,-50.11 -17.8,-75.18 -6.32,17.35 -12.7,34.66 -18.98,52.02 2.78,0 5.55,0.02 8.33,0.06 -2.78,7.7 -5.61,15.38 -8.39,23.1 -15.63,0 -31.29,-0.02 -46.92,0.02 2.72,-7.76 5.49,-15.46 8.29,-23.18 2.79,0 5.57,0.02 8.39,0.04 10.23,-28.23 20.53,-56.43 30.77,-84.68 -2.75,0 -5.51,0 -8.25,0 2.72,-7.72 5.55,-15.4 8.31,-23.1zm-205.55 19.87c8.41,-7.21 17.84,-13.14 26.61,-19.93 18.92,0.04 37.84,0.02 56.76,0.02 4.65,7.13 9.2,14.31 13.73,21.54 -10.4,28.35 -20.64,56.77 -31.02,85.12 -0.9,1.97 -1.43,4.39 -3.32,5.73 -8.27,6.34 -16.84,12.33 -25.21,18.55 -18.96,-0.02 -37.9,0.04 -56.84,-0.04 -4.55,-7.15 -9.18,-14.24 -13.57,-21.46 11.03,-29.81 21.33,-59.94 32.86,-89.53zm28.83 3.21l0 0c-10.3,28.23 -20.6,56.49 -30.87,84.72 12.4,-0.08 24.83,-0.04 37.23,-0.02 10.24,-28.25 20.56,-56.47 30.8,-84.72 -12.39,0.06 -24.77,0.04 -37.16,0.02zm-240.32 0c2.76,-7.74 5.57,-15.42 8.39,-23.12 26.36,0 52.73,0 79.11,0 4.59,7.09 8.94,14.33 13.65,21.34 -4.06,11.29 -8.25,22.49 -12.21,33.79 -5.16,3.82 -10.34,7.56 -15.44,11.44 2.39,3.74 4.75,7.48 7.13,11.25 -3.62,10 -7.26,19.98 -10.97,29.96 2.13,0 6.34,0.02 8.47,0.02 -2.85,7.7 -5.69,15.38 -8.39,23.14 -12.91,-0.02 -25.81,0.02 -38.71,-0.04 6.5,-17.86 12.98,-35.74 19.42,-53.62 -10.5,0 -21.01,0 -31.51,0 -3.68,10.16 -7.44,20.3 -11.06,30.5 2.75,0 5.51,0 8.26,0.02 -2.73,7.72 -5.57,15.4 -8.32,23.12 -15.68,0.04 -31.37,0 -47.06,0 2.71,-7.74 5.59,-15.42 8.46,-23.12 2.76,-0.02 5.54,-0.02 8.31,0 10.26,-28.23 20.58,-56.41 30.76,-84.66 -2.78,-0.02 -5.53,-0.02 -8.29,-0.02zm38.63 0l0 0c-3.76,10.33 -7.58,20.67 -11.24,31.05 10.51,-0.04 21.01,-0.02 31.52,-0.02 3.76,-10.34 7.51,-20.68 11.27,-31.01 -10.52,-0.02 -21.03,0 -31.55,-0.02zm-239.73 0.04c2.82,-7.72 5.53,-15.44 8.35,-23.14 26.33,-0.04 52.67,0.02 79,-0.04 4.61,7.13 9.12,14.31 13.74,21.44 -3.72,9.71 -6.83,19.67 -10.97,29.22 -4.6,4.81 -10.41,8.23 -15.51,12.47 2.18,5.19 8.66,10.29 5.37,16.36 -3.99,9.86 -6.75,20.32 -11.4,29.89 -8.7,7.6 -18.11,14.39 -27.13,21.6 -26.92,-0.06 -53.83,-0.02 -80.73,-0.02 2.81,-7.7 5.57,-15.44 8.43,-23.14 2.75,0 5.51,-0.02 8.29,0 10.22,-28.23 20.63,-56.39 30.79,-84.63 -2.73,-0.03 -5.49,-0.03 -8.23,-0.01zm38.56 -0.04l0 0c-3.31,9.55 -6.95,19 -10.26,28.55 10.45,0.03 20.93,0.02 31.38,0.02 3.51,-9.51 7.03,-19.02 10.48,-28.55 -10.54,0 -21.07,0 -31.6,-0.02zm-18.79 51.7l0 0c-3.94,11.01 -8.09,21.96 -11.99,32.98 10.51,0 21.01,0 31.52,0 4.1,-10.96 7.96,-22.01 12.07,-32.98 -10.53,-0.02 -21.07,0 -31.6,0zm621.66 -272.71c18.16,-26.19 36.43,-52.32 54.67,-78.45 -0.14,26.17 -1.6,52.3 -2.05,78.45 -17.55,-0.02 -35.09,-0.02 -52.62,0zm15.32 -8.37l0 0c9.81,0 19.62,0 29.42,0 0.3,-14.59 1.16,-29.16 1.12,-43.77 -10.12,14.63 -20.34,29.2 -30.54,43.77zm497.28 -70.53c-0.43,26.31 -1.67,52.59 -2.18,78.9 -17.55,-0.02 -35.11,0 -52.65,0 18.21,-26.35 36.78,-52.45 54.83,-78.9zm-39.42 70.47l0 0c9.79,0.1 19.58,0.04 29.36,0.06 0.44,-14.59 1.07,-29.18 1.22,-43.79 -10.24,14.53 -20.38,29.16 -30.58,43.73zm-216.2 -95.93c24.01,0.02 47.99,-0.02 71.99,0.02 -8.58,23.61 -17.17,47.24 -25.75,70.87 -24.02,-0.02 -48.03,0.02 -72.03,-0.02 8.53,-23.65 17.21,-47.24 25.79,-70.87zm5.38 8.37l0 0c-6.69,18.17 -13.31,36.39 -19.89,54.62 18.37,0.06 36.75,-0.02 55.12,0.04 6.67,-18.21 13.25,-36.45 19.9,-54.66 -18.39,-0.02 -36.76,0 -55.13,0zm194.07 0c5.69,-15.6 11.42,-31.15 17.07,-46.74 42.33,-0.04 84.69,0 127.04,-0.02 -5.65,15.59 -11.3,31.18 -16.95,46.78 -5.32,-0.04 -10.61,-0.02 -15.91,-0.04 -1.79,51.51 -3.35,103.04 -4.55,154.57 4.67,0 9.35,0.02 14.04,0.02 -5.69,15.59 -11.3,31.21 -17.07,46.76 -29.54,-0.02 -59.07,0.02 -88.61,-0.02 5.59,-15.59 11.42,-31.13 16.99,-46.74 4.02,0 8.06,0 12.11,0 0,-6.73 0.36,-13.45 0.69,-20.16 -20.18,-0.04 -40.34,0 -60.53,-0.02 -4.62,6.75 -9.23,13.5 -14.02,20.16 3.35,0.02 6.7,0.02 10.09,0.04 -5.73,15.57 -11.37,31.17 -17.02,46.74 -29.47,0 -58.95,0 -88.41,0 5.69,-15.57 11.35,-31.15 17.02,-46.74 4.25,-0.02 8.52,-0.02 12.82,-0.02 35.85,-51.53 71.79,-103 107.62,-154.55 -4.15,-0.02 -8.31,-0.04 -12.42,-0.02zm11.58 -8.37l0 0c5.43,0 10.86,0 16.32,-0.02 -39.81,57.14 -79.51,114.32 -119.44,171.39 -3.71,-0.06 -7.39,-0.08 -11.07,-0.08 -3.76,10.12 -7.42,20.3 -11.1,30.48 23.82,0.16 47.67,0.02 71.49,0.06 3.66,-10.18 7.38,-20.36 11.11,-30.52 -4.65,-0.02 -9.3,-0.02 -13.9,-0.02 8.36,-12.19 16.83,-24.3 25.3,-36.41 24.3,0 48.61,0 72.91,0 -0.55,12.13 -1.08,24.28 -1.16,36.43 -4.88,-0.02 -9.73,-0.02 -14.57,-0.02 -3.72,10.18 -7.37,20.36 -11.07,30.54 23.95,0.02 47.89,0 71.83,0.02 3.67,-10.2 7.35,-20.38 11.09,-30.54 -3.7,-0.02 -7.38,-0.02 -11.05,0 1.68,-57.12 3.21,-114.23 5.12,-171.33 6.11,0.02 12.21,0.02 18.31,0.06 3.75,-10.18 7.49,-20.36 11.19,-30.56 -36.72,-0.02 -73.45,0 -110.19,-0.02 -3.8,10.14 -7.44,20.36 -11.12,30.54zm-281.56 8.39c5.67,-15.6 11.31,-31.21 17.06,-46.78 49.87,0 99.77,0.03 149.64,-0.02 8.84,13.88 17.66,27.8 26.54,41.66 -7.44,20.24 -14.74,40.54 -22.13,60.82 -0.92,3.94 -4.65,5.91 -7.56,8.22 -7.22,5.15 -14.35,10.43 -21.48,15.69 4.23,6.83 8.58,13.62 12.88,20.44 -6.64,18.17 -13.2,36.37 -19.89,54.52 5.22,-0.02 10.44,0 15.67,0 -5.83,15.55 -11.34,31.23 -17.19,46.78 -25.3,-0.04 -50.58,-0.02 -75.88,0 12.3,-33.45 24.47,-66.94 36.66,-100.44 -18.39,-0.02 -36.78,0 -55.17,0 -6.58,17.86 -13,35.78 -19.56,53.66 5.2,0 10.38,-0.02 15.6,0 -5.65,15.59 -11.3,31.17 -16.95,46.76 -30.52,0 -61.04,0 -91.54,0 5.69,-15.57 11.38,-31.15 16.97,-46.76 5.22,0 10.41,-0.02 15.63,0 18.73,-51.53 37.61,-103.02 56.24,-154.59 -5.2,0 -10.36,0.02 -15.54,0.04zm22.59 -38.93l0 0c-3.68,10.18 -7.39,20.38 -11.11,30.56 5.2,-0.02 10.4,-0.02 15.6,-0.04 -20.76,57.1 -41.53,114.23 -62.3,171.33 -5.24,-0.02 -10.46,-0.02 -15.68,-0.02 -3.64,10.2 -7.46,20.34 -11.1,30.54 24.87,0 49.74,0.04 74.62,-0.04 3.75,-10.14 7.39,-20.32 11.17,-30.46 -5.24,-0.02 -10.48,-0.04 -15.69,0 8.54,-23.3 17.05,-46.59 25.48,-69.92 24.02,0.02 48.02,-0.02 72.04,0.02 -12.21,33.45 -24.37,66.91 -36.56,100.38 19.67,0.06 39.34,0 59.01,0.02 3.84,-10.12 7.4,-20.36 11.16,-30.52 -5.21,0 -10.45,-0.02 -15.65,-0.02 7.27,-20.6 15.38,-40.94 22.21,-61.69 -3.86,-8.37 -9.69,-15.69 -14.39,-23.61 9.57,-7.03 19.23,-13.92 28.74,-21.05 3.47,-2.15 4.41,-6.32 5.83,-9.85 6.09,-17.03 12.33,-34 18.49,-50.99 -7.42,-11.5 -14.73,-23.08 -22.05,-34.64 -46.61,0 -93.21,0.04 -139.82,0zm-193.3 -7.83c42.33,-0.06 84.67,0.01 126.98,-0.04 -5.57,15.63 -11.28,31.2 -16.99,46.78 -5.3,0 -10.58,0 -15.83,-0.02 -1.87,51.51 -3.35,103.04 -4.57,154.57 4.68,0 9.39,0.02 14.08,0.06 -5.67,15.57 -11.34,31.15 -17,46.72 -29.57,-0.02 -59.15,0.02 -88.72,-0.02 5.75,-15.55 11.26,-31.19 17.01,-46.74 4.02,-0.02 8.04,0 12.07,0 0.02,-6.73 0.4,-13.47 0.71,-20.18 -20.16,-0.02 -40.31,0 -60.47,0 -4.66,6.73 -9.35,13.47 -14.06,20.18 3.33,0 6.66,0 10.01,0 -5.69,15.59 -11.35,31.21 -17.08,46.78 -29.45,-0.06 -58.89,0.02 -88.35,-0.04 5.7,-15.57 11.4,-31.13 16.98,-46.74 4.29,0 8.56,0 12.87,-0.02 35.94,-51.47 71.83,-102.96 107.65,-154.51 -4.11,-0.04 -8.23,-0.04 -12.34,-0.04 5.67,-15.58 11.38,-31.15 17.05,-46.74zm5.49 7.85l0 0c-3.7,10.16 -7.4,20.34 -11.12,30.5 5.49,0.02 10.98,0.02 16.48,0 -39.84,57.08 -79.57,114.25 -119.41,171.33 -3.76,-0.02 -7.5,-0.02 -11.22,0 -3.62,10.18 -7.5,20.28 -11.05,30.5 23.81,0.06 47.64,0.02 71.44,0.02 3.72,-10.18 7.39,-20.36 11.13,-30.52 -4.65,0 -9.28,-0.02 -13.9,-0.02 8.48,-12.13 16.85,-24.36 25.42,-36.43 24.27,0.06 48.55,-0.02 72.83,0.04 -0.53,12.13 -1.1,24.26 -1.16,36.41 -4.88,-0.02 -9.75,-0.02 -14.63,0 -3.7,10.16 -7.35,20.34 -11.05,30.52 23.97,0.02 47.93,0 71.91,0 3.62,-10.2 7.29,-20.38 11.05,-30.52 -3.68,-0.02 -7.37,-0.02 -11.01,-0.02 1.52,-57.1 3.17,-114.23 5.1,-171.33 6.09,0.04 12.19,0.04 18.31,0.06 3.66,-10.18 7.47,-20.28 11.03,-30.5 -36.72,-0.12 -73.45,-0.02 -110.15,-0.04zm-249.65 -7.85c30.5,-0.06 61.02,0.01 91.54,-0.04 -5.81,15.55 -11.36,31.2 -17.11,46.78 -5.2,0 -10.4,0 -15.6,-0.02 -18.76,51.53 -37.39,103.1 -56.29,154.59 19.35,0 38.71,0 58.06,0 1.85,-5.1 3.71,-10.18 5.54,-15.26 15.81,-0.02 31.64,0.06 47.47,-0.04 -7.48,20.71 -15.08,41.37 -22.6,62.06 -60.45,0 -120.88,0 -181.33,0 5.69,-15.59 11.36,-31.17 16.99,-46.76 5.2,0 10.42,0 15.63,0 18.75,-51.51 37.48,-103.04 56.22,-154.57 -5.2,-0.02 -10.4,-0.02 -15.57,0.02 5.61,-15.62 11.36,-31.17 17.05,-46.76zm5.57 7.83l0 0c-3.78,10.16 -7.34,20.38 -11.11,30.54 5.18,0 10.36,0 15.54,0.02 -20.69,57.12 -41.63,114.15 -62.28,171.29 -5.22,-0.02 -10.44,0 -15.64,0 -3.74,10.14 -7.44,20.32 -11.06,30.52 54.82,-0.02 109.63,0.04 164.45,-0.02 5.58,-15.44 11.31,-30.8 16.74,-46.27 -10.18,0.02 -20.36,0 -30.54,0.02 -1.91,5.23 -3.82,10.47 -5.73,15.73 -24.91,0.02 -49.82,0.02 -74.72,0.02 20.65,-57.14 41.6,-114.17 62.28,-171.31 5.19,0 10.41,0 15.63,0 3.62,-10.18 7.32,-20.32 10.97,-30.5 -24.85,-0.08 -49.7,0 -74.53,-0.04zm-209.23 23.73c14.47,-10.46 28.83,-21.05 43.24,-31.58 27.72,0 55.47,0 83.19,0 1.1,1.69 2.19,3.4 3.29,5.12 0.53,-1.28 1.6,-3.85 2.11,-5.12 20.2,0 40.4,0 60.58,0 -10.69,29.35 -21.32,58.75 -32.05,88.09 -20.22,0.04 -40.45,0 -60.67,0.02 5.02,-13.78 10.1,-27.57 15.12,-41.35 -21.93,0 -43.87,-0.02 -65.82,0 -18.73,51.53 -37.57,103 -56.26,154.53 21.94,0.08 43.85,0.02 65.77,0.02 4.79,-12.94 9.43,-25.91 14.18,-38.87 20.2,0 40.38,0 60.56,0 -6.02,15.95 -11.24,32.21 -17.78,47.93 -16.54,13.11 -34.04,25.06 -50.95,37.72 -35.8,0 -71.62,0 -107.42,0 -8.84,-13.88 -17.6,-27.8 -26.54,-41.6 20.01,-54.84 39.91,-109.72 59.9,-164.57 1.06,-5.04 5.77,-7.51 9.55,-10.34zm-1.32 10.89l0 0c-19.71,54.36 -39.54,108.67 -59.37,162.99 7.35,11.62 14.71,23.22 22.14,34.8 33.33,-0.28 66.69,0.35 100,-0.3 7.01,-3.48 12.8,-9.06 19.26,-13.43 9.24,-7.12 19.2,-13.37 28,-21.03 5.28,-11.34 8.59,-23.55 13.27,-35.16 -14.59,-0.06 -29.16,-0.02 -43.71,-0.02 -4.75,13.13 -9.65,26.21 -14.34,39.36 -27.54,0.04 -55.11,0 -82.67,0.02 20.81,-57.08 41.58,-114.23 62.43,-171.31 27.51,0 55,0 82.51,0.02 -4.93,13.8 -10.07,27.53 -14.95,41.35 14.57,-0.04 29.16,0 43.73,-0.02 8.69,-23.96 17.39,-47.94 26.21,-71.87 -14.61,-0.02 -29.2,0 -43.79,-0.02 -1.85,4.96 -3.7,9.93 -5.53,14.89 -3.27,-4.95 -6.48,-9.95 -9.73,-14.91 -25.36,0.3 -50.78,-0.43 -76.12,0.34 -16.23,10.77 -31.51,22.96 -47.34,34.3zm1370.04 -154.24c34.95,4.77 69.54,13.31 101.82,27.79 -3.35,8.5 -5.91,17.3 -7.84,26.24 -34.05,6.89 -68.76,12.51 -103.59,10.89 -0.51,-6.57 -0.77,-13.17 -0.16,-19.73 26.42,-0.45 52.99,-1.71 79.04,-6.59 -24.26,-9.77 -50.43,-13.55 -76.34,-15.72 1.79,-7.79 4.13,-15.43 7.07,-22.88zm-628.52 -49.2c18.31,-26.05 36.39,-52.3 54.76,-78.31 -0.53,26.11 -1.77,52.18 -2.13,78.29 -17.54,0.04 -35.09,0 -52.63,0.02zm15.12 -7.88l0 0c9.91,0 19.81,0 29.71,0 -0.07,-14.65 0.91,-29.28 1.07,-43.93 -10.46,14.51 -20.46,29.32 -30.78,43.93zm-716.06 7.88c18.31,-26.01 36.33,-52.24 54.74,-78.17 -0.41,26.05 -1.79,52.08 -2.15,78.15 -17.52,0.04 -35.04,0 -52.59,0.02zm15.09 -7.88l0 0c9.9,0 19.8,0 29.71,0 -0.06,-14.65 1.02,-29.26 1.04,-43.89 -10.39,14.53 -20.46,29.28 -30.75,43.89zm684.51 -88.09c5.61,-15.42 11.24,-30.86 16.84,-46.3 42.35,0.02 84.72,0 127.1,0.02 -5.61,15.4 -11.23,30.8 -16.84,46.22 -5.41,0 -10.81,0.04 -16.18,0.13 -1.58,51.65 -2.88,103.32 -4.69,154.97 4.77,0 9.55,0 14.33,0 -5.67,15.57 -11.32,31.17 -16.99,46.74 -29.55,0.04 -59.13,0.02 -88.68,0.02 5.63,-15.61 11.34,-31.19 16.99,-46.78 4.04,0.02 8.07,0.02 12.11,0 0.16,-6.72 0.29,-13.45 0.71,-20.16 -20.2,0 -40.43,0 -60.63,0 -4.67,6.73 -9.33,13.44 -14,20.18 3.37,0 6.76,0 10.14,0 -5.81,15.53 -11.38,31.15 -17.05,46.74 -29.48,0.04 -58.93,0.02 -88.41,0 5.59,-15.61 11.36,-31.17 17.03,-46.74 4.24,0 8.51,0 12.76,0 35.98,-51.73 72.07,-103.36 108.02,-155.08 -4.19,0 -8.39,0.02 -12.56,0.04zm11.3 -7.9l0 0c5.44,0 10.87,0 16.33,-0.04 -39.64,56.98 -79.36,113.89 -118.97,170.85 -3.8,0 -7.58,0 -11.36,0 -3.67,10.18 -7.43,20.32 -11.07,30.5 23.86,0.04 47.71,0 71.57,0.04 3.61,-10.2 7.43,-20.34 11.01,-30.54 -4.59,0 -9.17,0 -13.74,0 8.42,-12.13 16.81,-24.28 25.22,-36.42 24.22,-0.02 48.46,0.04 72.68,-0.04 -0.57,12.15 -0.67,24.31 -1.38,36.46 -4.73,0 -9.45,0 -14.16,0 -3.72,10.16 -7.44,20.32 -11.06,30.52 23.92,0 47.86,-0.02 71.79,0.02 3.68,-10.18 7.38,-20.38 11.12,-30.54 -3.66,0 -7.3,0 -10.95,0 1.09,-56.9 3.45,-113.77 4.61,-170.67 6.2,-0.16 12.41,-0.14 18.61,-0.16 3.62,-10.18 7.38,-20.3 10.99,-30.5 -36.73,-0.04 -73.43,0.04 -110.15,-0.04 -3.68,10.2 -7.42,20.36 -11.09,30.56zm-293.38 41.84c9.78,-26.72 19.41,-53.5 29.16,-80.24 69.49,0 138.99,0.02 208.48,0 -9.63,26.76 -19.41,53.48 -29.12,80.22 -15.74,0.04 -31.47,0 -47.18,0.02 4.19,-11.28 8.19,-22.64 12.35,-33.94 -8.92,-0.04 -17.84,-0.02 -26.74,-0.04 -18.87,51.66 -37.67,103.37 -56.4,155.08 5.18,0 10.36,0 15.58,0 -5.73,15.57 -11.4,31.17 -17.09,46.76 -30.6,0 -61.18,-0.02 -91.78,0.02 5.67,-15.61 11.38,-31.19 17.07,-46.78 5.16,0 10.34,0 15.54,0 18.74,-51.69 37.76,-103.3 56.35,-155.06 -8.8,-0.02 -17.62,0.02 -26.42,-0.04 -4.06,11.36 -8.25,22.66 -12.33,34.02 -15.83,-0.04 -31.64,-0.02 -47.47,-0.02zm34.69 -72.32l0 0c-7.68,21.52 -15.65,42.92 -23.41,64.43 10.22,0.04 20.46,0.02 30.7,0.02 4.11,-11.33 8.17,-22.65 12.26,-33.99 14.48,0.04 28.93,0.02 43.4,0.02 -20.75,56.92 -41.51,113.87 -62.22,170.81 -5.2,0 -10.4,0 -15.58,0 -3.72,10.18 -7.38,20.38 -11.16,30.54 25.01,-0.04 49.99,-0.02 74.98,-0.02 3.66,-10.18 7.44,-20.3 11.07,-30.48 -5.2,-0.04 -10.4,-0.06 -15.6,-0.04 20.76,-56.92 41.47,-113.87 62.18,-170.81 14.56,0.02 29.13,-0.02 43.7,0.02 -4.22,11.3 -8.23,22.64 -12.41,33.97 10.1,-0.02 20.2,-0.04 30.33,0.02 7.77,-21.55 15.71,-43.01 23.49,-64.53 -63.9,0.02 -127.81,-0.06 -191.73,0.04zm-248.73 -7.92c24.12,0.04 48.24,-0.04 72.38,0.04 10.89,46.45 21.94,92.88 32.89,139.31 11.42,-30.99 22.62,-62.06 33.96,-93.09 -5.22,0.02 -10.43,0.02 -15.65,0 5.63,-15.42 11.3,-30.84 16.87,-46.28 30.5,0.08 61,-0.02 91.51,0.06 -5.58,15.42 -11.33,30.76 -16.82,46.22 -5.24,0.02 -10.46,0.02 -15.67,0.02 -18.73,51.72 -37.63,103.37 -56.42,155.06 5.18,0 10.36,0 15.56,0.02 -5.59,15.59 -11.3,31.17 -16.97,46.74 -24.68,0 -49.35,-0.02 -74,0 -10.73,-45.46 -21.48,-90.93 -32.37,-136.33 -10.85,29.85 -21.84,59.66 -32.61,89.55 5.18,0.02 10.36,0.02 15.54,0.04 -5.62,15.59 -11.29,31.17 -17,46.74 -30.5,0 -61,-0.02 -91.5,0.02 5.69,-15.59 11.34,-31.19 17.03,-46.78 5.2,0 10.4,0 15.62,0 18.74,-51.71 37.63,-103.34 56.39,-155.04 -5.2,-0.02 -10.37,-0.04 -15.55,-0.02 5.63,-15.42 11.24,-30.84 16.81,-46.28zm-5.47 38.36l0 0c5.16,0.04 10.32,0.04 15.49,0.04 -20.63,56.94 -41.42,113.85 -62.08,170.79 -5.22,0 -10.45,0.02 -15.67,0.02 -3.72,10.18 -7.39,20.36 -11.13,30.52 24.87,0 49.76,-0.02 74.65,0.02 3.74,-10.16 7.44,-20.34 11.08,-30.52 -5.17,-0.02 -10.35,-0.02 -15.51,-0.04 15.16,-41.68 30.32,-83.38 45.48,-125.09 12.47,51.87 24.72,103.77 37.02,155.65 20.79,-0.04 41.59,-0.02 62.38,-0.02 3.64,-10.18 7.5,-20.28 11.09,-30.48 -5.2,-0.04 -10.36,-0.06 -15.54,-0.04 20.66,-56.96 41.49,-113.85 62.12,-170.79 5.24,0 10.48,-0.02 15.74,-0.06 3.54,-10.2 7.24,-20.34 10.96,-30.48 -24.87,0 -49.73,-0.02 -74.62,0.02 -3.69,10.16 -7.41,20.3 -11.07,30.48 5.18,0.02 10.34,0.02 15.54,0.04 -15.6,42.81 -31.06,85.65 -46.77,128.42 -12.68,-52.97 -25.06,-106.01 -37.72,-159 -20.15,0.08 -40.27,0.02 -60.4,0.04 -3.68,10.16 -7.44,20.3 -11.04,30.48zm-199.31 7.96c5.59,-15.44 11.15,-30.88 16.76,-46.32 42.37,0.02 84.75,-0.02 127.12,0.02 -5.59,15.42 -11.2,30.84 -16.82,46.28 -5.39,-0.04 -10.77,-0.04 -16.16,0.05 -1.54,51.65 -2.99,103.32 -4.59,154.99 4.71,0 9.43,0 14.18,0 -5.67,15.59 -11.34,31.17 -16.94,46.78 -29.57,-0.06 -59.17,0 -88.74,-0.04 5.63,-15.57 11.3,-31.13 16.97,-46.68 4.06,-0.14 8.14,-0.14 12.21,-0.08 0.16,-6.72 0.18,-13.45 0.75,-20.16 -20.24,-0.02 -40.48,0 -60.73,0 -4.58,6.75 -9.27,13.44 -13.92,20.18 3.35,0 6.7,0 10.04,0 -5.8,15.53 -11.38,31.15 -17.05,46.74 -29.45,0.04 -58.91,0 -88.37,0.02 5.67,-15.59 11.36,-31.17 17.02,-46.76 4.25,0 8.52,0 12.79,-0.02 35.94,-51.73 72.11,-103.3 107.97,-155.06 -4.16,0 -8.33,0.02 -12.49,0.06zm11.27 -7.92l0 0c5.45,-0.02 10.88,0.02 16.34,0 -39.68,56.92 -79.35,113.85 -118.97,170.81 -3.8,0 -7.62,0 -11.42,0 -3.58,10.2 -7.39,20.32 -11.05,30.5 23.85,0.06 47.69,-0.02 71.56,0.04 3.6,-10.2 7.42,-20.34 11,-30.54 -4.58,0 -9.17,0 -13.74,0 8.47,-12.11 16.84,-24.26 25.22,-36.42 24.26,0 48.52,0 72.8,0 -0.67,12.13 -0.79,24.27 -1.34,36.42 -4.78,0 -9.55,0 -14.31,0 -3.73,10.16 -7.33,20.36 -11.07,30.52 23.96,0 47.93,0 71.89,0 3.6,-10.2 7.36,-20.36 11.06,-30.52 -3.68,0 -7.32,0 -10.98,0 1.28,-56.94 3.17,-113.87 4.88,-170.79 6.1,-0.02 12.23,-0.02 18.33,-0.04 3.7,-10.16 7.43,-20.32 11.09,-30.48 -36.7,-0.04 -73.43,-0.02 -110.15,-0.02 -3.76,10.16 -7.46,20.32 -11.14,30.52zm-256.96 -1.36c16.77,-12.36 33.37,-25.08 50.58,-36.8 26.25,-0.57 52.53,-0.06 78.78,-0.26 3.49,-0.74 6.03,1.2 7.84,3.98 0.61,-1.06 1.87,-3.19 2.5,-4.25 20.01,-0.51 40.05,0 60.07,-0.24 -9.8,27.12 -19.65,54.21 -29.55,81.28 -20.16,-0.06 -40.35,0.02 -60.53,-0.04 4.25,-11.45 8.35,-22.97 12.56,-34.43 -21.91,0 -43.85,0 -65.76,0 -6.68,18.37 -13.47,36.7 -19.99,55.13 28.3,0.02 56.57,0 84.87,0 8.84,13.76 17.48,27.66 26.32,41.43 -7.44,20.69 -15.08,41.33 -22.46,62.04 -1.09,2.7 -1.81,5.85 -4.55,7.39 -16.34,11.95 -32.65,23.98 -49.03,35.87 -27.98,-0.08 -55.96,-0.04 -83.94,-0.02 -0.87,-1.47 -1.73,-2.93 -2.58,-4.39 -0.73,1.02 -2.19,3.09 -2.91,4.12 -19.97,0.63 -39.98,0.04 -59.94,0.27 9.69,-26.58 19.37,-53.18 29.1,-79.74 20.1,-0.04 40.21,-0.02 60.31,0 -3.99,10.94 -7.79,21.99 -11.77,32.96 21.97,-0.02 43.95,0.04 65.92,-0.04 6.52,-17.86 13.06,-35.72 19.49,-53.6 -28.17,-0.06 -56.33,0.02 -84.51,-0.04 -8.82,-13.82 -17.62,-27.66 -26.42,-41.51 8.62,-22.99 16.3,-46.45 25.6,-69.11zm6.28 5.55l0 0c-8.39,20.62 -15.26,41.85 -23.16,62.68 7.41,11.48 14.69,23.04 22.07,34.56 30.47,-0.03 60.95,-0.04 91.43,0 -8.39,23.11 -16.8,46.23 -25.25,69.32 -27.52,0.12 -55.05,0.06 -82.56,0.04 3.78,-11.02 7.8,-21.97 11.7,-32.96 -14.55,-0.02 -29.1,0 -43.64,0 -7.65,21.17 -15.37,42.34 -23.09,63.5 14.51,0 29.02,0 43.55,0 1.74,-4.74 3.49,-9.47 5.2,-14.21 3.15,4.7 6.18,9.47 9.26,14.23 26.03,-0.02 52.06,-0.04 78.11,0 15.47,-11.38 30.93,-22.82 46.53,-34.06 7.24,-20.62 15.35,-40.96 22.07,-61.73 -6.28,-12.05 -14.51,-23.06 -21.54,-34.69 -30.64,0.04 -61.26,-0.02 -91.88,0.04 8.61,-23.65 17.31,-47.26 25.84,-70.93 27.54,0.06 55.09,0.04 82.66,0 -4.14,11.5 -8.47,22.92 -12.51,34.46 14.53,0.06 29.07,0 43.62,0.04 8.01,-21.82 15.89,-43.69 23.86,-65.51 -14.55,0.04 -29.1,0.02 -43.63,0.02 -1.87,5.06 -3.74,10.14 -5.63,15.2 -3.1,-4.92 -6.21,-9.85 -9.38,-14.71 -25.65,-0.02 -51.31,0.02 -76.97,-0.02 -15.47,11.68 -31.72,22.43 -46.66,34.73z"/>
   <path class="fil1" d="M727.16 231.06c62.3,-3.92 125.01,-2.44 186.96,5.57 57.53,7.66 114.89,20.89 167.78,45.31 2.24,1.1 4.78,1.22 7.27,1.42 45.58,1.69 91.12,5.67 136.23,12.64 52.14,8.19 104.13,20.16 152.6,41.5 -2.28,-18.07 -14.16,-34.1 -30.44,-42.05 -26.58,-13.55 -57.51,-12.9 -86.5,-10.87 22.66,-24.28 53.26,-41.39 86.13,-46.85 25.54,-4.31 52.12,-1.45 76.47,7.21 3.29,1.08 6.58,2.42 10.1,2.7 34.37,2.46 69.47,11.08 97.85,31.38 19.57,13.85 34.24,34.66 39.79,58.07 5.89,23.96 3.56,49.09 -2.11,72.86 27.33,8.21 54.11,18.09 80.79,28.17 2.43,1.18 5.73,1.66 6.9,4.47 7.97,14.79 15.53,29.81 23.62,44.56 0.91,2.15 3.45,2.56 5.32,3.59 83.27,35 167.03,68.97 252.37,98.62 3.62,24.87 3.37,50.18 0.3,75.1 22.9,11.7 43.53,27.55 61.41,46 -24.63,37.75 -48.99,75.93 -77.72,110.74 -7.32,-2.82 -13.62,-7.56 -19.78,-12.31 -9.65,21.41 -18.44,43.24 -28.6,64.37 -10.35,3.43 -21.83,4.27 -32.54,7.01 -47.54,9.84 -94.83,20.93 -141.28,35.03 -21.37,-41 -57.91,-73.19 -99.3,-93.06 -28.1,1.16 -55.15,10.2 -82.19,17.27 -27.53,7.68 -55.37,14.71 -83.82,17.88 -6.87,18.92 -13.84,37.82 -20.68,56.77 -3.83,0 -7.65,-0.02 -11.46,0 -1.43,40.18 -2.67,80.39 -3.56,120.58 6.99,0.02 14,0 20.99,0.02 -9.73,27.11 -19.73,54.11 -29.44,81.22 -41.88,-0.02 -83.74,0.02 -125.62,-0.02 8.13,-22.31 16.3,-44.62 24.38,-66.94 -4.97,0.02 -9.91,0.02 -14.85,0.02 -8.09,22.34 -16.34,44.61 -24.38,66.96 -70.78,-0.06 -141.57,0.02 -212.36,-0.02 12.17,-33.47 24.26,-66.98 36.49,-100.42 -6.11,0 -12.19,0 -18.27,0 -2.29,6.42 -4.67,12.8 -7.05,19.18 5.18,0 10.37,0 15.57,0.02 -9.82,27.09 -19.59,54.19 -29.49,81.24 -75.95,-0.04 -151.9,0 -227.84,-0.02 8.09,-22.35 16.24,-44.66 24.37,-66.98 -4.98,0.04 -9.94,0.04 -14.88,0.05 -8.11,22.31 -16.25,44.62 -24.34,66.93 -105.83,-0.02 -211.69,0.02 -317.53,0 2.19,-6.1 4.36,-12.17 6.6,-18.23 -8.23,6.14 -16.54,12.19 -24.83,18.25 -40.99,-0.02 -81.99,-0.04 -122.98,0 -12.07,-18.86 -24.01,-37.8 -36.06,-56.69 21.41,-58.79 42.69,-117.61 64.19,-176.36 -64.4,-11.84 -127.81,-33.34 -182.59,-69.86 -34.33,-0.85 -68.75,0 -103.13,-0.4 8.31,-23.09 16.75,-46.13 25.14,-69.19 -40.25,-46.63 -69.88,-101.54 -92.17,-158.72 45.47,14.21 92.13,24.69 139.47,30.22 4.03,-11.52 8.44,-22.92 12.46,-34.46 1.22,-3.11 1.91,-6.83 5.06,-8.62 18.94,-13.9 37.93,-27.75 56.81,-41.73 7.91,0 15.85,0 23.77,0 -27.89,-37.45 -45.31,-82.99 -46.93,-129.83 -1.41,-34.89 5.1,-69.81 16.92,-102.57 53.4,65.67 129.97,110.4 211.59,130.94 88.78,22.66 182.47,17.94 271.35,-1.61 -37.59,-15.9 -77.62,-25.05 -117.67,-32.22 -80.98,-13.84 -163.35,-17.37 -245.38,-16.81 14.57,-22.47 35.15,-40.33 57.22,-55.16 31.45,-20.83 66.22,-36.15 101.78,-48.47 74.69,-25.37 153.15,-38.26 231.72,-43.4zm-530.6 1035.06c10.53,0 21.07,-0.02 31.6,0 -4.11,10.97 -7.97,22.02 -12.07,32.98 -10.51,0 -21.01,0 -31.52,0 3.9,-11.02 8.05,-21.97 11.99,-32.98zm5.69 8.61l0 0c-1.87,5.31 -3.74,10.63 -5.61,15.97 4.47,0.02 8.96,0.04 13.43,0.07 2.03,-5.47 4.15,-10.9 6.16,-16.36 -4.66,0.08 -9.33,0.18 -13.98,0.32zm415.96 -60.31c12.39,0.02 24.77,0.04 37.16,-0.02 -10.24,28.25 -20.56,56.47 -30.8,84.72 -12.4,-0.02 -24.83,-0.06 -37.23,0.02 10.27,-28.23 20.57,-56.49 30.87,-84.72zm-18.82 76.33l0 0c6.43,-0.03 12.87,-0.03 19.33,-0.03 8.07,-22.67 16.48,-45.23 24.58,-67.9 -6.38,-0.02 -12.78,-0.02 -19.16,-0.02 -8.39,22.61 -16.58,45.27 -24.75,67.95zm-182.87 -76.33c10.52,0.02 21.03,0 31.55,0.02 -3.76,10.33 -7.51,20.67 -11.27,31.01 -10.51,0 -21.01,-0.02 -31.52,0.02 3.66,-10.38 7.48,-20.72 11.24,-31.05zm5.91 8.42l0 0c-1.81,4.89 -3.6,9.77 -5.4,14.65 4.51,0.04 9.02,0.1 13.55,0.16 1.85,-4.94 3.72,-9.88 5.55,-14.83 -4.58,0 -9.13,0 -13.7,0.02zm812.88 -8.4c12.42,0 24.85,-0.02 37.27,0 -10.32,28.21 -20.6,56.43 -30.85,84.66 -12.41,0.02 -24.81,-0.02 -37.2,0 10.2,-28.23 20.66,-56.39 30.78,-84.66zm5.94 8.38l0 0c-8.21,22.63 -16.6,45.21 -24.69,67.88 6.42,0.02 12.84,0.02 19.28,0.05 8.29,-22.64 16.56,-45.28 24.77,-67.95 -6.48,0 -12.92,0 -19.36,0.02zm-1025.9 -8.4c10.53,0.02 21.06,0.02 31.6,0.02 -3.45,9.53 -6.97,19.04 -10.48,28.55 -10.45,0 -20.93,0.01 -31.38,-0.02 3.31,-9.55 6.95,-19 10.26,-28.55zm5.94 8.38l0 0c-1.45,3.94 -2.89,7.88 -4.35,11.82 4.57,0 9.16,0 13.72,0.02 1.42,-3.96 2.84,-7.9 4.28,-11.82 -4.55,-0.02 -9.1,-0.02 -13.65,-0.02zm993.08 -28.21c7.15,-4.59 13.45,-12.55 22.81,-11.74 19.16,0.04 38.29,0.1 57.45,0.06 6.19,9.57 12.25,19.2 18.35,28.85 -10.77,29.57 -21.69,59.07 -32.19,88.74 -1.44,4.06 -3.42,8.09 -7.11,10.56 -8.82,6.63 -17.9,12.87 -26.68,19.55 -21.48,0 -42.96,0.04 -64.44,-0.02 -6.09,-9.59 -12.17,-19.18 -18.22,-28.79 10.99,-30.2 22.02,-60.41 32.91,-90.65 2.46,-8.15 11,-11.58 17.12,-16.56zm-2.89 12.54l0 0c-2.3,1.83 -5.32,3.27 -6.06,6.38 -10.7,29.02 -21.15,58.17 -31.78,87.21 4.52,7.17 9.01,14.35 13.58,21.52 18.65,-0.14 37.33,0.24 55.98,-0.16 5.34,-2.08 9.51,-6.48 14.28,-9.63 4.72,-4.25 11.75,-6.63 14.49,-12.68 10.55,-29 21.21,-58.01 31.66,-87.05 -4.57,-7.15 -9.13,-14.27 -13.64,-21.44 -18.93,0.06 -37.83,0 -56.73,0.02 -7.31,5.22 -14.49,10.59 -21.78,15.83zm-195.92 -12.52c7.15,-4.57 13.43,-12.57 22.76,-11.76 28.79,0.14 57.6,0 86.41,0.12 -7.45,20.63 -15.17,41.15 -22.41,61.85 -16.17,0.27 -32.33,0.08 -48.5,0.13 2.66,-7.38 5.36,-14.74 8.03,-22.13 -6.46,-0.02 -12.89,-0.02 -19.33,-0.02 -8.39,22.77 -16.66,45.59 -24.91,68.41 6.44,0 12.88,0 19.33,0.04 2.59,-7.07 5.18,-14.12 7.76,-21.17 16.09,-0.04 32.18,-0.04 48.26,-0.02 -3.97,10.67 -7.63,21.44 -11.57,32.11 -2.58,8.45 -11.38,12.1 -17.74,17.25 -6.72,4.36 -12.67,11.7 -21.39,11.23 -19.51,0.02 -39.04,-0.04 -58.56,-0.08 -6.02,-9.57 -12.19,-19.04 -18.21,-28.59 10.95,-30.33 22.11,-60.57 33,-90.91 2.46,-8.12 11.03,-11.46 17.07,-16.46zm-8.33 17.58l0 0c-11.1,29.44 -21.56,59.15 -32.47,88.67 4.53,7.12 9.06,14.25 13.59,21.38 19.1,-0.26 38.24,0.47 57.3,-0.34 9.02,-6.38 18.33,-12.58 26.6,-19.9 3.49,-7.64 5.67,-15.79 8.8,-23.57 -10.18,0 -20.34,0 -30.5,0 -2.5,6.89 -5.02,13.78 -7.56,20.67 -12.42,0 -24.83,-0.02 -37.25,0.04 10.27,-28.27 20.55,-56.53 30.93,-84.74 12.38,0.07 24.77,0.04 37.15,0 -2.65,7.4 -5.31,14.82 -8.03,22.21 10.16,-0.06 20.32,-0.02 30.48,-0.02 5.52,-15.09 10.95,-30.21 16.5,-45.27 -9.68,0.16 -19.37,-0.38 -29.04,0.19 -0.95,0.69 -2.88,2.05 -3.84,2.74 -0.43,-0.75 -1.32,-2.22 -1.77,-2.97 -14.59,0.04 -29.16,0 -43.75,0.02 -8.88,7.13 -19.24,12.8 -27.14,20.89zm-232.6 10.55c4.88,-13.33 9.53,-26.74 14.73,-39.97 16.5,0.3 33.02,0.04 49.54,0.2 4.35,18.74 8.82,37.45 13.29,56.18 1.95,-5.4 3.9,-10.79 5.81,-16.19 -2.74,-0.14 -5.47,-0.25 -8.19,-0.37 4.9,-13.2 9.63,-26.47 14.53,-39.68 21.58,0.02 43.18,-0.02 64.78,0.04 -4.86,13.31 -9.57,26.7 -14.65,39.95 -2.74,-0.04 -5.47,-0.08 -8.19,-0.08 -8.23,22.59 -16.46,45.19 -24.65,67.82 2.75,0.04 5.51,0.1 8.29,0.15 -4.77,13.29 -9.65,26.57 -14.53,39.84 -16.86,0.02 -33.71,-0.12 -50.57,0.1 -4.72,-18.12 -8.68,-36.43 -13.19,-54.59 -1.75,4.83 -3.47,9.69 -5.2,14.54 2.72,0.04 5.44,0.07 8.15,0.15 -4.66,13.29 -9.55,26.53 -14.33,39.78 -21.6,0 -43.22,0.02 -64.82,0 4.68,-13.29 9.61,-26.49 14.35,-39.76 2.82,-0.1 5.65,-0.17 8.49,-0.25 8.19,-22.57 16.44,-45.11 24.59,-67.7 -2.74,-0.08 -5.49,-0.12 -8.23,-0.16zm20.3 -31.4l0 0c-2.76,7.7 -5.59,15.38 -8.31,23.1 2.74,0 5.5,0 8.25,0 -10.24,28.25 -20.54,56.45 -30.77,84.68 -2.82,-0.02 -5.6,-0.04 -8.39,-0.04 -2.8,7.72 -5.57,15.42 -8.29,23.18 15.63,-0.04 31.29,-0.02 46.92,-0.02 2.78,-7.72 5.61,-15.4 8.39,-23.1 -2.78,-0.04 -5.55,-0.06 -8.33,-0.06 6.28,-17.36 12.66,-34.67 18.98,-52.02 5.95,25.07 11.91,50.11 17.8,75.18 12.82,0 25.64,-0.02 38.48,0 2.71,-7.72 5.53,-15.4 8.27,-23.12 -2.78,-0.04 -5.56,-0.06 -8.31,-0.06 10.29,-28.19 20.51,-56.43 30.79,-84.62 2.78,-0.02 5.58,-0.02 8.37,-0.02 2.8,-7.72 5.67,-15.4 8.45,-23.12 -15.67,0 -31.37,0.02 -47.04,0 -2.84,7.68 -5.63,15.38 -8.43,23.07 2.76,0.03 5.51,0.05 8.31,0.09 -6.46,17.93 -12.96,35.87 -19.57,53.75 -6.05,-25.64 -12.17,-51.27 -18.2,-76.91 -12.46,0.04 -24.9,-0.04 -37.37,0.04zm-204.07 7.78c7.5,-5.28 14.91,-10.74 22.31,-16.19 21.5,0.04 43,-0.12 64.51,0.1 5.9,9.59 12.03,19.08 18.11,28.59 -10.97,30.4 -22.17,60.72 -33.1,91.11 -2.64,7.91 -10.97,11.26 -16.99,16.18 -7.17,4.61 -13.49,12.64 -22.88,11.78 -19.14,-0.06 -38.28,-0.1 -57.4,-0.08 -6.1,-9.59 -12.21,-19.18 -18.31,-28.75 11.14,-30.52 22.21,-61.08 33.29,-91.62 1.6,-5.16 6.37,-8.11 10.46,-11.12zm-1.48 12.09l0 0c-11.53,29.59 -21.83,59.72 -32.86,89.53 4.39,7.22 9.02,14.31 13.57,21.46 18.94,0.08 37.88,0.02 56.84,0.04 8.37,-6.22 16.94,-12.21 25.21,-18.55 1.89,-1.34 2.42,-3.76 3.32,-5.73 10.38,-28.35 20.62,-56.77 31.02,-85.12 -4.53,-7.23 -9.08,-14.41 -13.73,-21.54 -18.92,0 -37.84,0.02 -56.76,-0.02 -8.77,6.79 -18.2,12.72 -26.61,19.93zm-208.93 -28.28c29.83,-0.04 59.66,0.06 89.49,-0.06 6.17,9.57 12.27,19.2 18.39,28.79 -4.27,11.44 -8.25,23 -12.44,34.48 -1.91,6.36 -8.11,9.61 -12.35,14.23 1.12,2.8 2.62,5.42 4.04,8.09 -2.62,7.59 -5.4,15.13 -8.15,22.69 2.08,0.02 6.22,0.1 8.29,0.12 -4.79,13.11 -9.53,26.24 -14.36,39.34 -18.8,0 -37.63,0.04 -56.45,-0.02 6.46,-17.9 13.07,-35.74 19.45,-53.66 -4.58,0 -9.17,0.02 -13.76,0.06 -1.69,4.73 -3.37,9.47 -5.08,14.22 2.09,0.02 6.26,0.02 8.35,0.02 -4.86,13.17 -9.49,26.44 -14.59,39.52 -21.52,-0.3 -43.04,-0.02 -64.59,-0.18 4.69,-13.12 9.57,-26.15 14.28,-39.24 2.8,-0.06 5.57,-0.14 8.37,-0.18 8.33,-22.74 16.56,-45.53 24.79,-68.29 -2.05,-0.04 -6.11,-0.1 -8.15,-0.14 4.72,-13.29 9.67,-26.52 14.47,-39.79zm-2.56 31.49l0 0c2.76,0 5.51,0 8.29,0.02 -10.18,28.25 -20.5,56.43 -30.76,84.66 -2.77,-0.02 -5.55,-0.02 -8.31,0 -2.87,7.7 -5.75,15.38 -8.46,23.12 15.69,0 31.38,0.04 47.06,0 2.75,-7.72 5.59,-15.4 8.32,-23.12 -2.75,-0.02 -5.51,-0.02 -8.26,-0.02 3.62,-10.2 7.38,-20.34 11.06,-30.5 10.5,0 21.01,0 31.51,0 -6.44,17.88 -12.92,35.76 -19.42,53.62 12.9,0.06 25.8,0.02 38.71,0.04 2.7,-7.76 5.54,-15.44 8.39,-23.14 -2.13,0 -6.34,-0.02 -8.47,-0.02 3.71,-9.98 7.35,-19.96 10.97,-29.96 -2.38,-3.77 -4.74,-7.51 -7.13,-11.25 5.1,-3.88 10.28,-7.62 15.44,-11.44 3.96,-11.3 8.15,-22.5 12.21,-33.79 -4.71,-7.01 -9.06,-14.25 -13.65,-21.34 -26.38,0 -52.75,0 -79.11,0 -2.82,7.7 -5.63,15.38 -8.39,23.12zm1046.19 -28.71c5.12,-4 11.95,-2.66 17.98,-2.88 26.3,0.22 52.59,0 78.89,0.1 -6.95,19.34 -14.13,38.59 -20.93,57.99 -8.35,0.1 -16.69,0.1 -25.02,0.12 4.84,8.35 11,15.93 15.16,24.67 -0.91,7.78 -5.04,14.81 -7.33,22.25 -3.54,8.88 -4.94,19.93 -14.11,25.06 -9.04,5.44 -16.43,14.22 -26.59,17.37 -30.28,0.61 -60.6,0.02 -90.89,0.22 6.84,-19.24 13.94,-38.38 20.85,-57.58 8.35,-0.04 16.7,-0.04 25.07,-0.06 -4.84,-8.21 -10.83,-15.75 -14.92,-24.35 0.88,-8.53 5.35,-16.25 7.87,-24.38 3.25,-7.93 4.39,-17.86 12.31,-22.76 7.28,-5.16 14.33,-10.63 21.66,-15.77zm-19.97 25.54l0 0c-5.12,11.65 -8.78,23.94 -13.41,35.81 4.51,7.19 9.14,14.3 13.61,21.52 15.38,0 30.76,-0.02 46.13,0 -3.64,10.01 -7.26,20.01 -10.93,30.01 -12.48,0.04 -24.94,0 -37.43,0.02 2.11,-5.73 4.18,-11.5 6.23,-17.25 -10.12,0.04 -20.23,-0.02 -30.33,0.04 -4.94,13.63 -9.9,27.23 -14.84,40.84 10.06,-0.02 20.14,-0.02 30.22,0.02 0.26,-0.57 0.81,-1.71 1.06,-2.28 1.09,0.47 3.21,1.41 4.3,1.89 14.29,0.9 28.67,0.07 43.02,0.37 8.72,-6.68 18,-12.68 26.4,-19.75 5.28,-11.5 8.77,-23.79 13.36,-35.56 -4.63,-7.15 -9.14,-14.35 -13.77,-21.48 -15.36,0 -30.72,0 -46.07,0 3.74,-10.34 7.54,-20.64 11.24,-30.99 12.44,-0.06 24.87,-0.02 37.31,-0.02 -2.16,6.06 -4.41,12.1 -6.61,18.17 10.12,0.06 20.26,0.02 30.38,0.04 5.02,-13.78 10.1,-27.55 15.06,-41.35 -10.08,0 -20.16,0.02 -30.24,-0.02 -0.3,0.65 -0.89,1.95 -1.18,2.58 -1.17,-0.59 -3.51,-1.79 -4.67,-2.38 -14.12,-0.2 -28.3,-0.54 -42.37,0.17 -9,6.26 -18.08,12.57 -26.47,19.6zm29.52 25.83l0 0c6.46,0 12.93,-0.02 19.43,-0.04 1.73,-4.9 3.47,-9.81 5.22,-14.69 -6.44,-0.04 -12.86,-0.04 -19.26,-0.06 -1.81,4.92 -3.62,9.85 -5.39,14.79zm-14.75 39.89l0 0c-1.65,4.57 -3.31,9.14 -4.94,13.75 6.52,0 13.01,0 19.55,0 1.65,-4.59 3.35,-9.18 5.04,-13.75 -6.56,-0.02 -13.11,-0.02 -19.65,0zm-1239.61 -94.04c29.85,-0.02 59.7,-0.04 89.56,0.02 6.12,9.55 12.18,19.14 18.35,28.69 -3.9,10.3 -7.31,20.79 -11.29,31.07 -2.08,6.56 -8.46,9.96 -13.52,14 1.71,2.82 3.42,5.65 5.13,8.51 -5.11,13.31 -8.74,27.31 -15.06,40.09 -9.35,9.57 -21.01,16.62 -31.21,25.3 -31.92,0 -63.81,0.04 -95.73,-0.02 4.86,-13.31 9.61,-26.68 14.65,-39.93 2.76,0 5.51,0.04 8.25,0.08 8.23,-22.61 16.44,-45.21 24.67,-67.82 -2.78,-0.08 -5.53,-0.16 -8.31,-0.21 4.83,-13.28 9.67,-26.51 14.51,-39.78zm-2.48 31.53l0 0c2.74,-0.02 5.5,-0.02 8.23,0.01 -10.16,28.24 -20.57,56.4 -30.79,84.63 -2.78,-0.02 -5.54,0 -8.29,0 -2.86,7.7 -5.62,15.44 -8.43,23.14 26.9,0 53.81,-0.04 80.73,0.02 9.02,-7.21 18.43,-14 27.13,-21.6 4.65,-9.57 7.41,-20.03 11.4,-29.89 3.29,-6.07 -3.19,-11.17 -5.37,-16.36 5.1,-4.24 10.91,-7.66 15.51,-12.47 4.14,-9.55 7.25,-19.51 10.97,-29.22 -4.62,-7.13 -9.13,-14.31 -13.74,-21.44 -26.33,0.06 -52.67,0 -79,0.04 -2.82,7.7 -5.53,15.42 -8.35,23.14zm1114.61 -229.48c10.2,-14.57 20.34,-29.2 30.58,-43.73 -0.15,14.61 -0.78,29.2 -1.22,43.79 -9.78,-0.02 -19.57,0.04 -29.36,-0.06zm-457.86 0.06c10.2,-14.57 20.42,-29.14 30.54,-43.77 0.04,14.61 -0.82,29.18 -1.12,43.77 -9.8,0 -19.61,0 -29.42,0zm247.04 -87.62c18.37,0 36.74,-0.02 55.13,0 -6.65,18.21 -13.23,36.45 -19.9,54.66 -18.37,-0.06 -36.75,0.02 -55.12,-0.04 6.58,-18.23 13.2,-36.45 19.89,-54.62zm12.33 16.74l0 0c-2.56,6.87 -5.07,13.76 -7.49,20.69 6.07,-0.02 12.15,-0.04 18.24,-0.02 2.52,-6.89 4.98,-13.8 7.54,-20.67 -6.11,0 -12.21,0 -18.29,0zm-1080.36 287.97c47.2,-121.24 94.2,-242.55 141.6,-363.7 -2.82,11.93 -7.45,23.29 -11.7,34.75 -40.3,109.81 -80.61,219.63 -120.92,329.44 -6.99,19.16 -11.12,39.6 -10.04,60.06 1.02,24.73 10.61,49.52 28.55,66.88 19.06,19.1 46.1,28.32 72.66,29.6 22.35,1 44.72,0.26 67.07,0.47 222.52,0 445.06,0 667.58,0 44.6,0.22 89.17,-0.85 133.77,-0.47 192.34,0 384.67,0 577.01,0 24.34,-0.12 45.01,-15.5 60.71,-32.79 -11.52,17.8 -29.21,31.73 -49.41,38.28 -15.75,5.44 -32.59,2.74 -48.89,3.37 -85.91,1.08 -171.88,0.06 -257.8,0.67 -59.06,0.73 -118.13,0.12 -177.2,0.31 -38.04,-0.33 -76.06,0.85 -114.1,0.5 -58.09,0.17 -116.2,-0.36 -174.28,0.27 -60.75,0.51 -121.51,0.06 -182.28,0.22 -86.6,0.67 -173.23,0.49 -259.85,0.49 -79.39,1.02 -158.82,0.24 -238.22,0.51 -29.47,0.63 -59.72,-8.46 -82.24,-27.84 -22.17,-18.69 -34.58,-47.69 -34.5,-76.52 -0.75,-22.11 4.51,-44 12.48,-64.5zm1128.91 -520.32c10.32,-14.61 20.32,-29.42 30.78,-43.93 -0.16,14.65 -1.14,29.28 -1.07,43.93 -9.9,0 -19.8,0 -29.71,0zm-700.97 0c10.29,-14.61 20.36,-29.36 30.75,-43.89 -0.02,14.63 -1.1,29.24 -1.04,43.89 -9.91,0 -19.81,0 -29.71,0zm1391.89 -46.65c15.22,-15.26 40.54,-18.07 59.27,-7.72 -3.88,4 -7.55,8.27 -11.96,11.68 -8.68,3.23 -18.82,4.77 -25.1,12.29 -3.13,3.03 -3.96,8.74 -0.22,11.66 8.84,6.89 20.93,5.69 31.33,4.15 1.73,1.67 3.5,3.37 5.28,5.06 -11.54,7.76 -25.88,11.85 -39.72,9.31 -10.95,-1.81 -22.33,-8.09 -26.21,-19.08 -3.36,-9.59 0.24,-20.4 7.33,-27.35zm-422.56 -108.67c20.85,-19.79 44.07,-40.18 73.29,-45.32 22.07,-3.92 43.83,4.74 62.04,16.61 25.7,16.37 49.74,36.85 79.63,45.17 9.12,2.66 18.61,3.65 28.06,4.36 -11.01,10.85 -25.05,18.35 -40.05,21.93 23.35,9.39 43.77,24.67 62.67,41.02 -33.59,-12 -68.4,-20.58 -103.55,-26.49 -12.15,1.07 -24.75,2.94 -36.52,-1.67 -18.43,-6.16 -35.09,-20.75 -40.03,-39.99 -2.35,-8.12 -0.91,-16.58 0.98,-24.6 -28.39,-11.1 -60.07,-4.13 -86.52,8.98zm102.67 -4.62l0 0c0.35,17.82 11.22,35.28 28.08,41.8 15.24,6.52 33.1,2.3 45.64,-7.96 -1.91,-2.93 -3.82,-5.86 -5.67,-8.82 -2.31,2.23 -4.47,4.61 -7.01,6.52 -11.64,8.35 -31.29,3.03 -35.03,-11.42 -2.74,-8.29 2.22,-16.09 8.11,-21.48 -11.3,-2.66 -23.15,-2.68 -34.12,1.36zm44.2 8.92l0 0c-4.15,3.42 -1.08,9.51 3.43,10.73 4.67,2.08 8.25,-2.5 11.73,-4.79 -4.41,-2.72 -9.7,-11.42 -15.16,-5.94zm-964.47 -244.34l0 0c-62.54,14.25 -123.38,35.22 -182.35,60.31 89.55,-0.57 179.99,7.27 266.29,32.27 38.91,11.62 77.15,26.94 111.09,49.46 -24.55,19.79 -55.66,28.61 -85.81,35.9 -79.65,17.39 -162.64,18.11 -243.02,5.18 -76.71,-12.94 -153.48,-40.66 -211.9,-93.59 16.1,26.64 36.23,50.84 59.5,71.52 50.15,44.95 114.46,72.83 180.86,82.44 35.26,0.61 70.57,0.08 105.85,0.25 -9.82,26.9 -19.65,53.82 -29.44,80.73 -3.91,0 -7.83,0 -11.75,0 -0.79,40.21 -2.42,80.42 -3.29,120.63 3.58,-0.02 7.17,-0.02 10.77,0 14.65,-40.19 29.26,-80.4 43.89,-120.59 -5.2,-0.04 -10.4,-0.05 -15.59,-0.04 9.92,-26.87 19.55,-53.85 29.45,-80.73 32.73,0.02 65.45,-0.04 98.18,0.02 0.33,1.58 1,4.73 1.34,6.3 63.28,-27.74 129.03,-49.69 195.94,-66.84 42.61,-10.79 85.65,-19.99 129.19,-26.15 -66.5,-54.9 -149.47,-85.91 -233.26,-102.65 -69.05,-13.59 -139.8,-18.49 -210.07,-14.79 105.24,-23.62 216.16,-18.84 319.89,10.07 73.83,20.55 144.62,52.45 208.56,94.78 20.22,-2.44 40.44,-4.7 60.7,-6.75 -15.28,-30.16 -39.48,-54.93 -66.57,-74.74 -33.45,-24.32 -71.42,-41.83 -110.52,-54.98 -50.19,-16.58 -102.61,-25.95 -155.28,-29.87 -88,-6.54 -176.78,2.09 -262.65,21.86zm765.74 -19.18l0 0c15.77,7.62 30.81,18.1 40.05,33.31 9.53,14.97 12.27,33.3 10.55,50.73 9.18,4.33 18.18,8.98 26.96,14.04 2.24,1.47 5.12,2.75 5.73,5.69 3.7,11.54 5.65,23.55 7.62,35.48 9.06,-5.77 18.17,-11.54 26.72,-18.1 3.38,-1.99 2.5,-6.41 3.03,-9.68 1.6,-29.42 -4.94,-61.54 -26.96,-82.62 -24.71,-23.65 -60.7,-29.8 -93.7,-28.85zm129.68 23.67l0 0c19.12,29.75 26.21,66.81 19.26,101.5 11.02,2.84 22.01,5.83 33.06,8.64 5.23,-21.95 6.85,-45.85 -2.47,-66.98 -8.99,-21.07 -28.39,-36.17 -49.85,-43.16zm-329.46 29.89l0 0c77.22,28.59 151.93,66.39 216.06,118.49 -16.79,5.95 -34.55,9.61 -52.43,9.22 -27.06,-0.02 -54.13,-9.41 -74.83,-26.98 0.02,-4.9 0,-9.82 0,-14.73 14.28,10.05 32.55,17.12 49.82,10.58 -40.09,-30.86 -85.26,-56.89 -134.94,-68.29 29.42,24.6 47.77,58.88 71.63,88.29 14.34,17.55 31.92,33.95 54.27,40.17 27,7.86 55.61,0.87 80.99,-9.37 1.85,3.31 3.7,6.61 5.59,9.9 -23.94,18.1 -53.56,31.23 -84.16,28.08 -34.97,-3.27 -64.94,-25.83 -86.12,-52.65 -136.59,10.61 -271.06,39.73 -402.85,76.36 101.37,0.69 202.75,0.1 304.14,0.29 -13.98,38.24 -27.78,76.52 -41.8,114.74 -24.66,-0.06 -49.31,-0.04 -73.96,-0.02 -10.49,28.87 -20.95,57.77 -31.45,86.64 5.16,-0.02 10.32,-0.02 15.5,-0.02 -9.69,27.11 -19.69,54.13 -29.5,81.22 -42.88,0 -85.75,0 -128.63,0 9.86,-27.07 19.69,-54.17 29.55,-81.24 5.18,0.02 10.36,0 15.54,0 10.59,-28.85 20.97,-57.77 31.6,-86.6 -21.34,-0.04 -42.67,0 -63.99,-0.02 -10.54,28.89 -21.09,57.75 -31.57,86.66 5.18,-0.02 10.36,-0.02 15.54,-0.02 -9.69,27.11 -19.73,54.13 -29.5,81.22 -33.27,0 -66.55,0.02 -99.83,-0.02 -5.29,-22.56 -10.75,-45.09 -16,-67.67 -8.18,22.58 -16.43,45.13 -24.56,67.71 -76,-0.06 -151.99,0.04 -227.99,-0.06 8.05,-22.31 16.18,-44.6 24.26,-66.91 -4.95,0 -9.89,0 -14.83,0 -8.09,22.33 -16.27,44.62 -24.38,66.95 -41.74,0 -83.51,0 -125.27,0 2.21,-5.98 4.37,-11.99 6.54,-18 -7.76,5.66 -15.5,11.31 -23.22,16.98 44.7,20.04 92.59,32.49 141.01,39.26 8.38,-4.17 15.08,-11.09 23,-16.05 2.38,-1.95 5.61,-1.38 8.46,-1.55 92.03,0.1 184.07,0 276.1,0.04 -5.45,14.92 -10.83,29.89 -16.34,44.77 38.59,0.02 77.18,0.04 115.78,0 5.45,-14.92 10.79,-29.89 16.34,-44.77 54.64,0 109.3,0 163.96,0 -5.43,14.92 -10.89,29.85 -16.34,44.75 7.93,0.04 15.89,0.04 23.84,0.04 5.32,-14.96 10.91,-29.85 16.29,-44.79 57.22,0.04 114.44,-0.06 171.68,0.04 9.27,15.02 18.98,29.79 28.39,44.75 17.88,0 35.78,-0.02 53.68,0.02 4.53,-12.11 8.72,-24.34 13.31,-36.41 -8.96,-17.99 -16.99,-36.44 -26.58,-54.1 -3.19,8.3 -6.17,16.69 -9.32,25.02 -41.82,-0.04 -83.64,0.08 -125.46,-0.06 8.05,-22.29 16.24,-44.56 24.27,-66.87 -4.96,-0.02 -9.9,-0.02 -14.82,-0.02 -8.08,22.35 -16.17,44.7 -24.38,66.99 -41.74,-0.1 -83.47,-0.02 -125.21,-0.04 9.8,-27.07 19.71,-54.15 29.51,-81.22 5.26,0 10.54,-0.02 15.82,0 27.94,-40.17 55.88,-80.34 83.97,-120.41l-4.03 -0.39c9.82,-26.82 19.59,-53.66 29.28,-80.54 54.64,0.02 109.28,-0.04 163.92,0.02 -7.38,23.57 -19.24,46 -22.19,70.75 2.66,48.5 2.7,97.25 -1.38,145.65 11.99,19.1 23.73,38.5 32.51,59.37 16.78,7.26 34.2,13.09 52.12,16.83 33.34,7.35 68.03,6.3 101.41,-0.23 46.8,-8.84 91.83,-26.35 139.52,-30.54 5.52,-0.24 11.52,-1.85 16.6,1.16 40.29,19.55 75.65,49.34 101.58,85.85 45.63,-13.41 92.1,-23.87 138.82,-32.67 5.47,-13.07 11.34,-26.01 16.95,-39.02 -46.15,10.53 -93.84,19.04 -141.27,13.68 -3.23,-24.63 -2.96,-50.07 4.01,-74.07 8.96,-31.65 29.83,-60.24 58.56,-76.66 4.33,2.42 8.67,4.87 13.04,7.31 -15.21,11.51 -27.92,26.6 -34.88,44.52 23.61,3.76 47.1,8.58 69.91,15.81 27.92,9.25 56.63,20.63 77.4,42.25 13.72,-21.18 27.51,-42.31 41.15,-63.56 -10.55,-7.13 -22.07,-12.87 -31.58,-21.46 -2.38,6.46 -4.93,12.84 -7.66,19.16 -5.16,-6.68 -11.86,-12.54 -15.64,-20.03 5.08,-27.03 9.51,-54.58 7.47,-82.18 -78.35,-27.08 -155.2,-58.43 -230.32,-93.47 0.96,5.88 1.97,11.77 2.95,17.66 -5.33,-2.23 -10.63,-4.49 -15.95,-6.7 -11.04,-21.56 -22.13,-43.1 -32.94,-64.78 -43.85,-16.26 -88.27,-31.29 -133.72,-42.47 -27.13,19.3 -56.86,34.5 -85.89,50.64 7.43,-27.42 9.69,-57.24 0.04,-84.43 -79.15,-40.76 -167.52,-61.41 -255.97,-67.75zm-922.46 82.13l0 0c3.79,47.51 25.07,92.88 57.91,127.23 32.41,-0.05 64.84,0.14 97.25,-0.11 -64.05,-23.97 -114.79,-73.27 -155.16,-127.12zm125.16 242.42l0 0c-14.24,-0.02 -28.48,0.02 -42.71,-0.02 9.78,15.32 19.43,30.72 29.26,46 18.63,-26.78 37.25,-53.58 55.98,-80.3l-4.02 -0.23c8.66,-23.63 17.21,-47.3 25.82,-70.97 -7.92,-2.08 -15.84,-4.11 -23.73,-6.22 -13.57,37.23 -27.04,74.51 -40.6,111.74zm359.74 -91.08l0 0c3.64,15.35 7.13,30.75 10.97,46.07 6.77,-18.59 13.49,-37.19 20.32,-55.76 -10.44,3.17 -20.85,6.44 -31.29,9.69zm-542.21 30.16l0 0c-9.3,22.66 -16.98,46.12 -25.6,69.11 8.8,13.85 17.6,27.69 26.42,41.51 28.18,0.06 56.34,-0.02 84.51,0.04 -6.43,17.88 -12.97,35.74 -19.49,53.6 -21.97,0.08 -43.95,0.02 -65.92,0.04 3.98,-10.97 7.78,-22.02 11.77,-32.96 -20.1,-0.02 -40.21,-0.04 -60.31,0 -9.73,26.56 -19.41,53.16 -29.1,79.74 19.96,-0.23 39.97,0.36 59.94,-0.27 0.72,-1.03 2.18,-3.1 2.91,-4.12 0.85,1.46 1.71,2.92 2.58,4.39 27.98,-0.02 55.96,-0.06 83.94,0.02 16.38,-11.89 32.69,-23.92 49.03,-35.87 2.74,-1.54 3.46,-4.69 4.55,-7.39 7.38,-20.71 15.02,-41.35 22.46,-62.04 -8.84,-13.77 -17.48,-27.67 -26.32,-41.43 -28.3,0 -56.57,0.02 -84.87,0 6.52,-18.43 13.31,-36.76 19.99,-55.13 21.91,0 43.85,0 65.76,0 -4.21,11.46 -8.31,22.98 -12.56,34.43 20.18,0.06 40.37,-0.02 60.53,0.04 9.9,-27.07 19.75,-54.16 29.55,-81.28 -20.02,0.24 -40.06,-0.27 -60.07,0.24 -0.63,1.06 -1.89,3.19 -2.5,4.25 -1.81,-2.78 -4.35,-4.72 -7.84,-3.98 -26.25,0.2 -52.53,-0.31 -78.78,0.26 -17.21,11.72 -33.81,24.44 -50.58,36.8zm245.69 9.28l0 0c4.16,-0.04 8.33,-0.06 12.49,-0.06 -35.86,51.76 -72.03,103.33 -107.97,155.06 -4.27,0.02 -8.54,0.02 -12.79,0.02 -5.66,15.59 -11.35,31.17 -17.02,46.76 29.46,-0.02 58.92,0.02 88.37,-0.02 5.67,-15.59 11.25,-31.21 17.05,-46.74 -3.34,0 -6.69,0 -10.04,0 4.65,-6.74 9.34,-13.43 13.92,-20.18 20.25,0 40.49,-0.02 60.73,0 -0.57,6.71 -0.59,13.44 -0.75,20.16 -4.07,-0.06 -8.15,-0.06 -12.21,0.08 -5.67,15.55 -11.34,31.11 -16.97,46.68 29.57,0.04 59.17,-0.02 88.74,0.04 5.6,-15.61 11.27,-31.19 16.94,-46.78 -4.75,0 -9.47,0 -14.18,0 1.6,-51.67 3.05,-103.34 4.59,-154.99 5.39,-0.09 10.77,-0.09 16.16,-0.05 5.62,-15.44 11.23,-30.86 16.82,-46.28 -42.37,-0.04 -84.75,0 -127.12,-0.02 -5.61,15.44 -11.17,30.88 -16.76,46.32zm204.78 -46.32l0 0c-5.57,15.44 -11.18,30.86 -16.81,46.28 5.18,-0.02 10.35,0 15.55,0.02 -18.76,51.7 -37.65,103.33 -56.39,155.04 -5.22,0 -10.42,0 -15.62,0 -5.69,15.59 -11.34,31.19 -17.03,46.78 30.5,-0.04 61,-0.02 91.5,-0.02 5.71,-15.57 11.38,-31.15 17,-46.74 -5.18,-0.02 -10.36,-0.02 -15.54,-0.04 10.77,-29.89 21.76,-59.7 32.61,-89.55 10.89,45.4 21.64,90.87 32.37,136.33 24.65,-0.02 49.32,0 74,0 5.67,-15.57 11.38,-31.15 16.97,-46.74 -5.2,-0.02 -10.38,-0.02 -15.56,-0.02 18.79,-51.69 37.69,-103.34 56.42,-155.06 5.21,0 10.43,0 15.67,-0.02 5.49,-15.46 11.24,-30.8 16.82,-46.22 -30.51,-0.08 -61.01,0.02 -91.51,-0.06 -5.57,15.44 -11.24,30.86 -16.87,46.28 5.22,0.02 10.43,0.02 15.65,0 -11.34,31.03 -22.54,62.1 -33.96,93.09 -10.95,-46.43 -22,-92.86 -32.89,-139.31 -24.14,-0.08 -48.26,0 -72.38,-0.04zm214.04 80.24l0 0c15.83,0 31.64,-0.02 47.47,0.02 4.08,-11.36 8.27,-22.66 12.33,-34.02 8.8,0.06 17.62,0.02 26.42,0.04 -18.59,51.76 -37.61,103.37 -56.35,155.06 -5.2,0 -10.38,0 -15.54,0 -5.69,15.59 -11.4,31.17 -17.07,46.78 30.6,-0.04 61.18,-0.02 91.78,-0.02 5.69,-15.59 11.36,-31.19 17.09,-46.76 -5.22,0 -10.4,0 -15.58,0 18.73,-51.71 37.53,-103.42 56.4,-155.08 8.9,0.02 17.82,0 26.74,0.04 -4.16,11.3 -8.16,22.66 -12.35,33.94 15.71,-0.02 31.44,0.02 47.18,-0.02 9.71,-26.74 19.49,-53.46 29.12,-80.22 -69.49,0.02 -138.99,0 -208.48,0 -9.75,26.74 -19.38,53.52 -29.16,80.24zm282.08 -33.94l0 0c4.17,-0.02 8.37,-0.04 12.56,-0.04 -35.95,51.72 -72.04,103.35 -108.02,155.08 -4.25,0 -8.52,0 -12.76,0 -5.67,15.57 -11.44,31.13 -17.03,46.74 29.48,0.02 58.93,0.04 88.41,0 5.67,-15.59 11.24,-31.21 17.05,-46.74 -3.38,0 -6.77,0 -10.14,0 4.67,-6.74 9.33,-13.45 14,-20.18 20.2,0 40.43,0 60.63,0 -0.42,6.71 -0.55,13.44 -0.71,20.16 -4.04,0.02 -8.07,0.02 -12.11,0 -5.65,15.59 -11.36,31.17 -16.99,46.78 29.55,0 59.13,0.02 88.68,-0.02 5.67,-15.57 11.32,-31.17 16.99,-46.74 -4.78,0 -9.56,0 -14.33,0 1.81,-51.65 3.11,-103.32 4.69,-154.97 5.37,-0.09 10.77,-0.13 16.18,-0.13 5.61,-15.42 11.23,-30.82 16.84,-46.22 -42.38,-0.02 -84.75,0 -127.1,-0.02 -5.6,15.44 -11.23,30.88 -16.84,46.3zm-877.97 17.2l0 0c-2.46,6.9 -4.98,13.77 -7.48,20.64 9.62,0.06 19.25,0.04 28.88,0.04 2.48,-6.89 5.02,-13.76 7.5,-20.66 -9.65,-0.03 -19.27,-0.02 -28.9,-0.02zm-171.15 28l0 0c11.81,20.9 25.16,40.86 39.73,59.9 15.07,-0.57 30.17,-0.15 45.25,-0.27 -9.08,-14.3 -18.15,-28.57 -27.21,-42.87 0.51,-1.42 1.54,-4.27 2.05,-5.69 -20.11,-2.72 -40.07,-6.38 -59.82,-11.07zm133.85 73.41l0 0c-2.32,6.4 -4.58,12.8 -6.87,19.2 9.77,-0.02 19.53,0.04 29.3,-0.06 2.29,-6.38 4.59,-12.76 6.89,-19.14 -9.78,0 -19.55,0 -29.32,0zm1545.13 26.56l0 0c-2.94,7.45 -5.28,15.09 -7.07,22.88 25.91,2.17 52.08,5.95 76.34,15.72 -26.05,4.88 -52.62,6.14 -79.04,6.59 -0.61,6.56 -0.35,13.16 0.16,19.73 34.83,1.62 69.54,-4 103.59,-10.89 1.93,-8.94 4.49,-17.74 7.84,-26.24 -32.28,-14.48 -66.87,-23.02 -101.82,-27.79zm-1368.72 143.35l0 0c-3.78,2.83 -8.49,5.3 -9.55,10.34 -19.99,54.85 -39.89,109.73 -59.9,164.57 8.94,13.8 17.7,27.72 26.54,41.6 35.8,0 71.62,0 107.42,0 16.91,-12.66 34.41,-24.61 50.95,-37.72 6.54,-15.72 11.76,-31.98 17.78,-47.93 -20.18,0 -40.36,0 -60.56,0 -4.75,12.96 -9.39,25.93 -14.18,38.87 -21.92,0 -43.83,0.06 -65.77,-0.02 18.69,-51.53 37.53,-103 56.26,-154.53 21.95,-0.02 43.89,0 65.82,0 -5.02,13.78 -10.1,27.57 -15.12,41.35 20.22,-0.02 40.45,0.02 60.67,-0.02 10.73,-29.34 21.36,-58.74 32.05,-88.09 -20.18,0 -40.38,0 -60.58,0 -0.51,1.27 -1.58,3.84 -2.11,5.12 -1.1,-1.72 -2.19,-3.43 -3.29,-5.12 -27.72,0 -55.47,0 -83.19,0 -14.41,10.53 -28.77,21.12 -43.24,31.58zm203.66 -31.56l0 0c-5.69,15.59 -11.44,31.14 -17.05,46.76 5.17,-0.04 10.37,-0.04 15.57,-0.02 -18.74,51.53 -37.47,103.06 -56.22,154.57 -5.21,0 -10.43,0 -15.63,0 -5.63,15.59 -11.3,31.17 -16.99,46.76 60.45,0 120.88,0 181.33,0 7.52,-20.69 15.12,-41.35 22.6,-62.06 -15.83,0.1 -31.66,0.02 -47.47,0.04 -1.83,5.08 -3.69,10.16 -5.54,15.26 -19.35,0 -38.71,0 -58.06,0 18.9,-51.49 37.53,-103.06 56.29,-154.59 5.2,0.02 10.4,0.02 15.6,0.02 5.75,-15.58 11.3,-31.23 17.11,-46.78 -30.52,0.05 -61.04,-0.02 -91.54,0.04zm244.16 0l0 0c-5.67,15.59 -11.38,31.16 -17.05,46.74 4.11,0 8.23,0 12.34,0.04 -35.82,51.55 -71.71,103.04 -107.65,154.51 -4.31,0.02 -8.58,0.02 -12.87,0.02 -5.58,15.61 -11.28,31.17 -16.98,46.74 29.46,0.06 58.9,-0.02 88.35,0.04 5.73,-15.57 11.39,-31.19 17.08,-46.78 -3.35,0 -6.68,0 -10.01,0 4.71,-6.71 9.4,-13.45 14.06,-20.18 20.16,0 40.31,-0.02 60.47,0 -0.31,6.71 -0.69,13.45 -0.71,20.18 -4.03,0 -8.05,-0.02 -12.07,0 -5.75,15.55 -11.26,31.19 -17.01,46.74 29.57,0.04 59.15,0 88.72,0.02 5.66,-15.57 11.33,-31.15 17,-46.72 -4.69,-0.04 -9.4,-0.06 -14.08,-0.06 1.22,-51.53 2.7,-103.06 4.57,-154.57 5.25,0.02 10.53,0.02 15.83,0.02 5.71,-15.58 11.42,-31.15 16.99,-46.78 -42.31,0.05 -84.65,-0.02 -126.98,0.04zm170.71 46.76l0 0c5.18,-0.02 10.34,-0.04 15.54,-0.04 -18.63,51.57 -37.51,103.06 -56.24,154.59 -5.22,-0.02 -10.41,0 -15.63,0 -5.59,15.61 -11.28,31.19 -16.97,46.76 30.5,0 61.02,0 91.54,0 5.65,-15.59 11.3,-31.17 16.95,-46.76 -5.22,-0.02 -10.4,0 -15.6,0 6.56,-17.88 12.98,-35.8 19.56,-53.66 18.39,0 36.78,-0.02 55.17,0 -12.19,33.5 -24.36,66.99 -36.66,100.44 25.3,-0.02 50.58,-0.04 75.88,0 5.85,-15.55 11.36,-31.23 17.19,-46.78 -5.23,0 -10.45,-0.02 -15.67,0 6.69,-18.15 13.25,-36.35 19.89,-54.52 -4.3,-6.82 -8.65,-13.61 -12.88,-20.44 7.13,-5.26 14.26,-10.54 21.48,-15.69 2.91,-2.31 6.64,-4.28 7.56,-8.22 7.39,-20.28 14.69,-40.58 22.13,-60.82 -8.88,-13.86 -17.7,-27.78 -26.54,-41.66 -49.87,0.05 -99.77,0.02 -149.64,0.02 -5.75,15.57 -11.39,31.18 -17.06,46.78zm269.98 -0.02l0 0c4.11,-0.02 8.27,0 12.42,0.02 -35.83,51.55 -71.77,103.02 -107.62,154.55 -4.3,0 -8.57,0 -12.82,0.02 -5.67,15.59 -11.33,31.17 -17.02,46.74 29.46,0 58.94,0 88.41,0 5.65,-15.57 11.29,-31.17 17.02,-46.74 -3.39,-0.02 -6.74,-0.02 -10.09,-0.04 4.79,-6.66 9.4,-13.41 14.02,-20.16 20.19,0.02 40.35,-0.02 60.53,0.02 -0.33,6.71 -0.69,13.43 -0.69,20.16 -4.05,0 -8.09,0 -12.11,0 -5.57,15.61 -11.4,31.15 -16.99,46.74 29.54,0.04 59.07,0 88.61,0.02 5.77,-15.55 11.38,-31.17 17.07,-46.76 -4.69,0 -9.37,-0.02 -14.04,-0.02 1.2,-51.53 2.76,-103.06 4.55,-154.57 5.3,0.02 10.59,0 15.91,0.04 5.65,-15.6 11.3,-31.19 16.95,-46.78 -42.35,0.02 -84.71,-0.02 -127.04,0.02 -5.65,15.59 -11.38,31.14 -17.07,46.74zm-827.14 16.74l0 0c-14.78,40.15 -29.24,80.41 -43.96,120.58 9.66,0.02 19.31,0 28.96,0.02 4.67,-12.98 9.43,-25.89 14.1,-38.87 29.16,-0.06 58.3,-0.02 87.46,-0.02 4.83,-13.29 9.63,-26.6 14.52,-39.87 -29.15,0 -58.31,0 -87.47,0 5.06,-13.96 10.22,-27.88 15.24,-41.84 -9.61,0 -19.24,0 -28.85,0zm213.47 0l0 0c-14.63,40.18 -29.26,80.37 -43.87,120.56 7.03,0.04 14.08,0.06 21.13,0 1.83,-5.1 3.68,-10.16 5.55,-15.24 26.4,0.04 52.79,0 79.19,0.02 24.56,-35.07 48.99,-70.22 73.47,-105.32 -45.15,-0.04 -90.3,0 -135.47,-0.02zm280.31 120.6l0 0c3.49,-0.02 6.99,-0.02 10.51,0 14.67,-40.19 29.24,-80.42 43.87,-120.6 -16.97,0 -33.92,0 -50.89,0 -1.42,40.18 -2.68,80.39 -3.49,120.6zm267.04 -120.58l0 0c-6.48,17.4 -12.42,35.03 -19.22,52.29 -5.23,6.15 -12.88,9.85 -19.1,14.99 3,4.55 5.89,9.17 8.82,13.78 -4.74,13.37 -9.86,26.62 -14.39,40.07 3.31,-0.31 6.85,-0.69 8.35,-4.13 27.11,-39.03 54.34,-77.96 81.44,-116.98 -15.3,-0.08 -30.6,-0.04 -45.9,-0.02z"/>
   <path class="fil2" d="M592.22 286.45c85.87,-19.77 174.65,-28.4 262.65,-21.86 52.67,3.92 105.09,13.29 155.28,29.87 39.1,13.15 77.07,30.66 110.52,54.98 27.09,19.81 51.29,44.58 66.57,74.74 -20.26,2.05 -40.48,4.31 -60.7,6.75 -63.94,-42.33 -134.73,-74.23 -208.56,-94.78 -103.73,-28.91 -214.65,-33.69 -319.89,-10.07 70.27,-3.7 141.02,1.2 210.07,14.79 83.79,16.74 166.76,47.75 233.26,102.65 -43.54,6.16 -86.58,15.36 -129.19,26.15 -66.91,17.15 -132.66,39.1 -195.94,66.84 -0.34,-1.57 -1.01,-4.72 -1.34,-6.3 -32.73,-0.06 -65.45,0 -98.18,-0.02 -9.9,26.88 -19.53,53.86 -29.45,80.73 5.19,-0.01 10.39,0 15.59,0.04 -14.63,40.19 -29.24,80.4 -43.89,120.59 -3.6,-0.02 -7.19,-0.02 -10.77,0 0.87,-40.21 2.5,-80.42 3.29,-120.63 3.92,0 7.84,0 11.75,0 9.79,-26.91 19.62,-53.83 29.44,-80.73 -35.28,-0.17 -70.59,0.36 -105.85,-0.25 -66.4,-9.61 -130.71,-37.49 -180.86,-82.44 -23.27,-20.68 -43.4,-44.88 -59.5,-71.52 58.42,52.93 135.19,80.65 211.9,93.59 80.38,12.93 163.37,12.21 243.02,-5.18 30.15,-7.29 61.26,-16.11 85.81,-35.9 -33.94,-22.52 -72.18,-37.84 -111.09,-49.46 -86.3,-25 -176.74,-32.84 -266.29,-32.27 58.97,-25.09 119.81,-46.06 182.35,-60.31zm-382.49 425.88c9.77,0 19.54,0 29.32,0 -2.3,6.38 -4.6,12.76 -6.89,19.14 -9.77,0.1 -19.53,0.04 -29.3,0.06 2.29,-6.4 4.55,-12.8 6.87,-19.2zm-133.85 -73.41c19.75,4.69 39.71,8.35 59.82,11.07 -0.51,1.42 -1.54,4.27 -2.05,5.69 9.06,14.3 18.13,28.57 27.21,42.87 -15.08,0.12 -30.18,-0.3 -45.25,0.27 -14.57,-19.04 -27.92,-39 -39.73,-59.9zm171.15 -28c9.63,0 19.25,-0.01 28.9,0.02 -2.48,6.9 -5.02,13.77 -7.5,20.66 -9.63,0 -19.26,0.02 -28.88,-0.04 2.5,-6.87 5.02,-13.74 7.48,-20.64zm473.59 -56.62c10.44,-3.25 20.85,-6.52 31.29,-9.69 -6.83,18.57 -13.55,37.17 -20.32,55.76 -3.84,-15.32 -7.33,-30.72 -10.97,-46.07zm-359.74 91.08c13.56,-37.23 27.03,-74.51 40.6,-111.74 7.89,2.11 15.81,4.14 23.73,6.22 -8.61,23.67 -17.16,47.34 -25.82,70.97l4.02 0.23c-18.73,26.72 -37.35,53.52 -55.98,80.3 -9.83,-15.28 -19.48,-30.68 -29.26,-46 14.23,0.04 28.47,0 42.71,0.02zm-125.16 -242.42c40.37,53.85 91.11,103.15 155.16,127.12 -32.41,0.25 -64.84,0.06 -97.25,0.11 -32.84,-34.35 -54.12,-79.72 -57.91,-127.23zm922.46 -82.13c88.45,6.34 176.82,26.99 255.97,67.75 9.65,27.19 7.39,57.01 -0.04,84.43 29.03,-16.14 58.76,-31.34 85.89,-50.64 45.45,11.18 89.87,26.21 133.72,42.47 10.81,21.68 21.9,43.22 32.94,64.78 5.32,2.21 10.62,4.47 15.95,6.7 -0.98,-5.89 -1.99,-11.78 -2.95,-17.66 75.12,35.04 151.97,66.39 230.32,93.47 2.04,27.6 -2.39,55.15 -7.47,82.18 3.78,7.49 10.48,13.35 15.64,20.03 2.73,-6.32 5.28,-12.7 7.66,-19.16 9.51,8.59 21.03,14.33 31.58,21.46 -13.64,21.25 -27.43,42.38 -41.15,63.56 -20.77,-21.62 -49.48,-33 -77.4,-42.25 -22.81,-7.23 -46.3,-12.05 -69.91,-15.81 6.96,-17.92 19.67,-33.01 34.88,-44.52 -4.37,-2.44 -8.71,-4.89 -13.04,-7.31 -28.73,16.42 -49.6,45.01 -58.56,76.66 -6.97,24 -7.24,49.44 -4.01,74.07 47.43,5.36 95.12,-3.15 141.27,-13.68 -5.61,13.01 -11.48,25.95 -16.95,39.02 -46.72,8.8 -93.19,19.26 -138.82,32.67 -25.93,-36.51 -61.29,-66.3 -101.58,-85.85 -5.08,-3.01 -11.08,-1.4 -16.6,-1.16 -47.69,4.19 -92.72,21.7 -139.52,30.54 -33.38,6.53 -68.07,7.58 -101.41,0.23 -17.92,-3.74 -35.34,-9.57 -52.12,-16.83 -8.78,-20.87 -20.52,-40.27 -32.51,-59.37 4.08,-48.4 4.04,-97.15 1.38,-145.65 2.95,-24.75 14.81,-47.18 22.19,-70.75 -54.64,-0.06 -109.28,0 -163.92,-0.02 -9.69,26.88 -19.46,53.72 -29.28,80.54l4.03 0.39c-28.09,40.07 -56.03,80.24 -83.97,120.41 -5.28,-0.02 -10.56,0 -15.82,0 -9.8,27.07 -19.71,54.15 -29.51,81.22 41.74,0.02 83.47,-0.06 125.21,0.04 8.21,-22.29 16.3,-44.64 24.38,-66.99 4.92,0 9.86,0 14.82,0.02 -8.03,22.31 -16.22,44.58 -24.27,66.87 41.82,0.14 83.64,0.02 125.46,0.06 3.15,-8.33 6.13,-16.72 9.32,-25.02 9.59,17.66 17.62,36.11 26.58,54.1 -4.59,12.07 -8.78,24.3 -13.31,36.41 -17.9,-0.04 -35.8,-0.02 -53.68,-0.02 -9.41,-14.96 -19.12,-29.73 -28.39,-44.75 -57.24,-0.1 -114.46,0 -171.68,-0.04 -5.38,14.94 -10.97,29.83 -16.29,44.79 -7.95,0 -15.91,0 -23.84,-0.04 5.45,-14.9 10.91,-29.83 16.34,-44.75 -54.66,0 -109.32,0 -163.96,0 -5.55,14.88 -10.89,29.85 -16.34,44.77 -38.6,0.04 -77.19,0.02 -115.78,0 5.51,-14.88 10.89,-29.85 16.34,-44.77 -92.03,-0.04 -184.07,0.06 -276.1,-0.04 -2.85,0.17 -6.08,-0.4 -8.46,1.55 -7.92,4.96 -14.62,11.88 -23,16.05 -48.42,-6.77 -96.31,-19.22 -141.01,-39.26 7.72,-5.67 15.46,-11.32 23.22,-16.98 -2.17,6.01 -4.33,12.02 -6.54,18 41.76,0 83.53,0 125.27,0 8.11,-22.33 16.29,-44.62 24.38,-66.95 4.94,0 9.88,0 14.83,0 -8.08,22.31 -16.21,44.6 -24.26,66.91 76,0.1 151.99,0 227.99,0.06 8.13,-22.58 16.38,-45.13 24.56,-67.71 5.25,22.58 10.71,45.11 16,67.67 33.28,0.04 66.56,0.02 99.83,0.02 9.77,-27.09 19.81,-54.11 29.5,-81.22 -5.18,0 -10.36,0 -15.54,0.02 10.48,-28.91 21.03,-57.77 31.57,-86.66 21.32,0.02 42.65,-0.02 63.99,0.02 -10.63,28.83 -21.01,57.75 -31.6,86.6 -5.18,0 -10.36,0.02 -15.54,0 -9.86,27.07 -19.69,54.17 -29.55,81.24 42.88,0 85.75,0 128.63,0 9.81,-27.09 19.81,-54.11 29.5,-81.22 -5.18,0 -10.34,0 -15.5,0.02 10.5,-28.87 20.96,-57.77 31.45,-86.64 24.65,-0.02 49.3,-0.04 73.96,0.02 14.02,-38.22 27.82,-76.5 41.8,-114.74 -101.39,-0.19 -202.77,0.4 -304.14,-0.29 131.79,-36.63 266.26,-65.75 402.85,-76.36 21.18,26.82 51.15,49.38 86.12,52.65 30.6,3.15 60.22,-9.98 84.16,-28.08 -1.89,-3.29 -3.74,-6.59 -5.59,-9.9 -25.38,10.24 -53.99,17.23 -80.99,9.37 -22.35,-6.22 -39.93,-22.62 -54.27,-40.17 -23.86,-29.41 -42.21,-63.69 -71.63,-88.29 49.68,11.4 94.85,37.43 134.94,68.29 -17.27,6.54 -35.54,-0.53 -49.82,-10.58 0,4.91 0.02,9.83 0,14.73 20.7,17.57 47.77,26.96 74.83,26.98 17.88,0.39 35.64,-3.27 52.43,-9.22 -64.13,-52.1 -138.84,-89.9 -216.06,-118.49zm251.64 205.66l0 0c26.45,-13.11 58.13,-20.08 86.52,-8.98 -1.89,8.02 -3.33,16.48 -0.98,24.6 4.94,19.24 21.6,33.83 40.03,39.99 11.77,4.61 24.37,2.74 36.52,1.67 35.15,5.91 69.96,14.49 103.55,26.49 -18.9,-16.35 -39.32,-31.63 -62.67,-41.02 15,-3.58 29.04,-11.08 40.05,-21.93 -9.45,-0.71 -18.94,-1.7 -28.06,-4.36 -29.89,-8.32 -53.93,-28.8 -79.63,-45.17 -18.21,-11.87 -39.97,-20.53 -62.04,-16.61 -29.22,5.14 -52.44,25.53 -73.29,45.32zm422.56 108.67l0 0c-7.09,6.95 -10.69,17.76 -7.33,27.35 3.88,10.99 15.26,17.27 26.21,19.08 13.84,2.54 28.18,-1.55 39.72,-9.31 -1.78,-1.69 -3.55,-3.39 -5.28,-5.06 -10.4,1.54 -22.49,2.74 -31.33,-4.15 -3.74,-2.92 -2.91,-8.63 0.22,-11.66 6.28,-7.52 16.42,-9.06 25.1,-12.29 4.41,-3.41 8.08,-7.68 11.96,-11.68 -18.73,-10.35 -44.05,-7.54 -59.27,7.72zm-344.74 -344.22c21.46,6.99 40.86,22.09 49.85,43.16 9.32,21.13 7.7,45.03 2.47,66.98 -11.05,-2.81 -22.04,-5.8 -33.06,-8.64 6.95,-34.69 -0.14,-71.75 -19.26,-101.5zm-129.68 -23.67c33,-0.95 68.99,5.2 93.7,28.85 22.02,21.08 28.56,53.2 26.96,82.62 -0.53,3.27 0.35,7.69 -3.03,9.68 -8.55,6.56 -17.66,12.33 -26.72,18.1 -1.97,-11.93 -3.92,-23.94 -7.62,-35.48 -0.61,-2.94 -3.49,-4.22 -5.73,-5.69 -8.78,-5.06 -17.78,-9.71 -26.96,-14.04 1.72,-17.43 -1.02,-35.76 -10.55,-50.73 -9.24,-15.21 -24.28,-25.69 -40.05,-33.31z"/>
   <path class="fil3" d="M1556.69 530.79c5.46,-5.48 10.75,3.22 15.16,5.94 -3.48,2.29 -7.06,6.87 -11.73,4.79 -4.51,-1.22 -7.58,-7.31 -3.43,-10.73zm-137.81 746.18c6.54,-0.02 13.09,-0.02 19.65,0 -1.69,4.57 -3.39,9.16 -5.04,13.75 -6.54,0 -13.03,0 -19.55,0 1.63,-4.61 3.29,-9.18 4.94,-13.75zm-1216.63 -2.24c4.65,-0.14 9.32,-0.24 13.98,-0.32 -2.01,5.46 -4.13,10.89 -6.16,16.36 -4.47,-0.03 -8.96,-0.05 -13.43,-0.07 1.87,-5.34 3.74,-10.66 5.61,-15.97zm1231.38 -37.65c1.77,-4.94 3.58,-9.87 5.39,-14.79 6.4,0.02 12.82,0.02 19.26,0.06 -1.75,4.88 -3.49,9.79 -5.22,14.69 -6.5,0.02 -12.97,0.04 -19.43,0.04zm-192.38 -14.26c6.44,-0.02 12.88,-0.02 19.36,-0.02 -8.21,22.67 -16.48,45.31 -24.77,67.95 -6.44,-0.03 -12.86,-0.03 -19.28,-0.05 8.09,-22.67 16.48,-45.25 24.69,-67.88zm-641.86 67.93c8.17,-22.68 16.36,-45.34 24.75,-67.95 6.38,0 12.78,0 19.16,0.02 -8.1,22.67 -16.51,45.23 -24.58,67.9 -6.46,0 -12.9,0 -19.33,0.03zm-176.96 -67.91c4.57,-0.02 9.12,-0.02 13.7,-0.02 -1.83,4.95 -3.7,9.89 -5.55,14.83 -4.53,-0.06 -9.04,-0.12 -13.55,-0.16 1.8,-4.88 3.59,-9.76 5.4,-14.65zm-201.14 -0.04c4.55,0 9.1,0 13.65,0.02 -1.44,3.92 -2.86,7.86 -4.28,11.82 -4.56,-0.02 -9.15,-0.02 -13.72,-0.02 1.46,-3.94 2.9,-7.88 4.35,-11.82zm1064.94 -333.75c3.68,-10.18 7.32,-20.4 11.12,-30.54 36.74,0.02 73.47,0 110.19,0.02 -3.7,10.2 -7.44,20.38 -11.19,30.56 -6.1,-0.04 -12.2,-0.04 -18.31,-0.06 -1.91,57.1 -3.44,114.21 -5.12,171.33 3.67,-0.02 7.35,-0.02 11.05,0 -3.74,10.16 -7.42,20.34 -11.09,30.54 -23.94,-0.02 -47.88,0 -71.83,-0.02 3.7,-10.18 7.35,-20.36 11.07,-30.54 4.84,0 9.69,0 14.57,0.02 0.08,-12.15 0.61,-24.3 1.16,-36.43 -24.3,0 -48.61,0 -72.91,0 -8.47,12.11 -16.94,24.22 -25.3,36.41 4.6,0 9.25,0 13.9,0.02 -3.73,10.16 -7.45,20.34 -11.11,30.52 -23.82,-0.04 -47.67,0.1 -71.49,-0.06 3.68,-10.18 7.34,-20.36 11.1,-30.48 3.68,0 7.36,0.02 11.07,0.08 39.93,-57.07 79.63,-114.25 119.44,-171.39 -5.46,0.02 -10.89,0.02 -16.32,0.02zm14.27 -26.05l0 0c-2.93,7.52 -5.69,15.14 -7.44,23.06 8.17,-1.69 9.27,-10.52 11.69,-17.05 31.31,-0.26 62.62,-0.12 93.95,-0.08 0.69,-1.95 1.42,-3.9 2.14,-5.83 -33.45,-0.3 -66.89,-0.14 -100.34,-0.1zm7.96 25.52l0 0c-40.94,58.64 -81.54,117.49 -122.79,175.91 -3.53,0.56 -7.09,0.91 -10.5,1.87 -3.52,6.17 -5.22,13.14 -7.48,19.81 1.58,-0.09 4.75,-0.29 6.32,-0.37 1.81,-4.92 3.64,-9.83 5.46,-14.73 3.38,-0.39 6.79,-0.81 10.19,-1.2 42.14,-60.39 84.3,-120.76 126.3,-181.25 -2.52,-0.02 -5.02,-0.04 -7.5,-0.04zm26.64 45.25l0 0c-1.38,21.42 -1.3,42.88 -1.95,64.33 -20.76,0.27 -41.49,-0.3 -62.22,0.31 -0.69,1.22 -2.09,3.66 -2.78,4.89 23.45,0.31 46.92,0.03 70.37,0.17 0.79,-9.41 1.17,-18.84 1.09,-28.27 -0.2,-25.4 3.05,-50.76 1.57,-76.17 -8.43,9.69 -5,23.06 -6.08,34.74zm-4.28 -19.26l0 0c-18.05,26.45 -36.62,52.55 -54.83,78.9 17.54,0 35.1,-0.02 52.65,0 0.51,-26.31 1.75,-52.59 2.18,-78.9zm1.52 108.93l0 0c-1,13.82 -0.45,27.72 -1.38,41.56 -5.2,0.02 -10.39,0.12 -15.57,0.14 -2.76,6.93 -5.32,13.92 -7.78,20.97 1.55,-0.04 4.69,-0.09 6.24,-0.12 2.07,-5.17 4.12,-10.33 6.18,-15.49 5.64,0.22 11.25,-0.69 16.9,-0.47 0.55,-15.8 0.9,-31.59 0.63,-47.38 -1.32,0.2 -3.92,0.59 -5.22,0.79zm-106.7 41.76l0 0c-0.77,1.38 -2.29,4.14 -3.05,5.52 5.37,-0.62 12.4,0.84 14.98,-5.42 -4.02,-0.08 -7.95,-0.1 -11.93,-0.1zm146.38 0.91l0 0c-2.13,2.62 2.38,5.67 4.15,2.85 2.09,-2.64 -2.44,-5.69 -4.15,-2.85zm-344.76 -207.6c46.61,0.04 93.21,0 139.82,0 7.32,11.56 14.63,23.14 22.05,34.64 -6.16,16.99 -12.4,33.96 -18.49,50.99 -1.42,3.53 -2.36,7.7 -5.83,9.85 -9.51,7.13 -19.17,14.02 -28.74,21.05 4.7,7.92 10.53,15.24 14.39,23.61 -6.83,20.75 -14.94,41.09 -22.21,61.69 5.2,0 10.44,0.02 15.65,0.02 -3.76,10.16 -7.32,20.4 -11.16,30.52 -19.67,-0.02 -39.34,0.04 -59.01,-0.02 12.19,-33.47 24.35,-66.93 36.56,-100.38 -24.02,-0.04 -48.02,0 -72.04,-0.02 -8.43,23.33 -16.94,46.62 -25.48,69.92 5.21,-0.04 10.45,-0.02 15.69,0 -3.78,10.14 -7.42,20.32 -11.17,30.46 -24.88,0.08 -49.75,0.04 -74.62,0.04 3.64,-10.2 7.46,-20.34 11.1,-30.54 5.22,0 10.44,0 15.68,0.02 20.77,-57.1 41.54,-114.23 62.3,-171.33 -5.2,0.02 -10.4,0.02 -15.6,0.04 3.72,-10.18 7.43,-20.38 11.11,-30.56zm3.29 4.43l0 0c-2.98,7.56 -5.77,15.2 -7.49,23.14 8.18,-1.71 9.08,-10.71 11.82,-17.09 44.66,-0.48 89.31,0.39 133.97,-0.46 -2.6,-3.28 -6.06,-6.2 -10.55,-5.65 -42.57,0.12 -85.16,0.06 -127.75,0.06zm6.16 25.6l0 0c-21.38,58.83 -42.73,117.69 -64.25,176.46 -5.12,0.02 -10.22,0.12 -15.32,0.12 -2.81,6.89 -5.38,13.89 -7.84,20.91 1.54,0 4.59,0 6.11,0 2.05,-5.23 4.29,-10.37 6.36,-15.59 5.1,-0.06 10.2,-0.22 15.32,-0.32 21.89,-60.54 44.24,-120.91 65.92,-181.56 -1.58,0 -4.73,-0.02 -6.3,-0.02zm38.49 0.51l0 0c-8.58,23.63 -17.26,47.22 -25.79,70.87 24,0.04 48.01,0 72.03,0.02 8.58,-23.63 17.17,-47.26 25.75,-70.87 -24,-0.04 -47.98,0 -71.99,-0.02zm77.19 -0.55l0 0c-9.59,25.3 -18.49,50.88 -28.04,76.2 -20.81,-0.08 -41.64,0.12 -62.46,-0.16 -6.3,0.56 -15.37,-2.18 -18.01,5.72 28.29,0.8 56.61,0.41 84.92,0.23 9.94,-27.31 19.99,-54.6 29.85,-81.95 -1.55,0 -4.68,-0.04 -6.26,-0.04zm-36.78 101.17l0 0c-7.09,18.07 -13.35,36.45 -20.11,54.66 -4.96,14.33 -10.96,28.31 -14.98,42.98 4.49,-0.84 7.76,-3.88 8.92,-8.25 10.38,-30.01 22.13,-59.52 32.13,-89.67 -1.49,0.08 -4.46,0.22 -5.96,0.28zm-108.77 80.55l0 0c5.59,-0.43 13.94,2.27 15.57,-5.45 -5.69,0.25 -12.24,-0.26 -15.57,5.45zm116.11 0.44l0 0c5.69,-0.2 12.41,0.45 15.64,-5.42 -5.61,0.38 -13.77,-2.11 -15.64,5.42zm-283.5 -212.13c36.7,0.02 73.43,-0.08 110.15,0.04 -3.56,10.22 -7.37,20.32 -11.03,30.5 -6.12,-0.02 -12.22,-0.02 -18.31,-0.06 -1.93,57.1 -3.58,114.23 -5.1,171.33 3.64,0 7.33,0 11.01,0.02 -3.76,10.14 -7.43,20.32 -11.05,30.52 -23.98,0 -47.94,0.02 -71.91,0 3.7,-10.18 7.35,-20.36 11.05,-30.52 4.88,-0.02 9.75,-0.02 14.63,0 0.06,-12.15 0.63,-24.28 1.16,-36.41 -24.28,-0.06 -48.56,0.02 -72.83,-0.04 -8.57,12.07 -16.94,24.3 -25.42,36.43 4.62,0 9.25,0.02 13.9,0.02 -3.74,10.16 -7.41,20.34 -11.13,30.52 -23.8,0 -47.63,0.04 -71.44,-0.02 3.55,-10.22 7.43,-20.32 11.05,-30.5 3.72,-0.02 7.46,-0.02 11.22,0 39.84,-57.08 79.57,-114.25 119.41,-171.33 -5.5,0.02 -10.99,0.02 -16.48,0 3.72,-10.16 7.42,-20.34 11.12,-30.5zm3.56 4.31l0 0c-2.99,7.13 -5.65,14.4 -8.03,21.76 1.56,0 4.67,0 6.22,0 1.85,-5.12 3.65,-10.26 5.48,-15.4 31.68,-0.69 63.36,-0.13 95.04,-0.35 0.16,-1.48 0.46,-4.43 0.61,-5.91 -33.1,-0.04 -66.2,0.14 -99.32,-0.1zm-115.22 201.83l0 0c-3.53,0.28 -7.05,0.53 -10.58,0.81 -2.77,7.14 -5.39,14.37 -7.28,21.83 8.52,-1 9.23,-10.43 12.01,-16.73 3.13,-0.14 6.26,-0.28 9.41,-0.42 42.41,-60.33 84.53,-120.9 126.51,-181.56 -1.73,-0.04 -5.24,-0.16 -6.99,-0.22 -41.23,58.62 -81.83,117.69 -123.08,176.29zm149.23 -134.8l0 0c-0.16,22.78 -0.79,45.56 -2.3,68.31 -18.38,0.11 -36.75,-0.22 -55.12,-0.04 -4.03,-0.42 -7.16,2.2 -10,4.64 23.67,1.4 47.4,0.4 71.1,0.57 1.44,-34.63 2.58,-69.31 2.94,-103.96 -7.84,8.23 -5.97,20.12 -6.62,30.48zm-58.8 63.54l0 0c17.53,-0.02 35.07,-0.02 52.62,0 0.45,-26.15 1.91,-52.28 2.05,-78.45 -18.24,26.13 -36.51,52.26 -54.67,78.45zm56.75 29.34l0 0c-1,14.1 -1.4,28.2 -2.34,42.29 -5.12,0.06 -10.24,0.2 -15.34,0.28 -2.72,7.21 -5.37,14.45 -7.4,21.92 8.66,-0.77 9.35,-10.46 12.21,-16.72 5.55,-0.08 11.08,-0.22 16.65,-0.28 0.14,-15.73 1.54,-31.42 1.62,-47.16 -1.34,-0.07 -4.04,-0.23 -5.4,-0.33zm-110.87 47.63l0 0c5.67,-0.37 13.5,1.58 16.04,-5.39 -5.92,-0.04 -12.6,-0.56 -16.04,5.39zm150.45 -4.33l0 0c-0.98,3.23 0.12,4.29 3.31,3.23 0.96,-3.23 -0.14,-4.31 -3.31,-3.23zm-319.18 -207.54c24.83,0.04 49.68,-0.04 74.53,0.04 -3.65,10.18 -7.35,20.32 -10.97,30.5 -5.22,0 -10.44,0 -15.63,0 -20.68,57.14 -41.63,114.17 -62.28,171.31 24.9,0 49.81,0 74.72,-0.02 1.91,-5.26 3.82,-10.5 5.73,-15.73 10.18,-0.02 20.36,0 30.54,-0.02 -5.43,15.47 -11.16,30.83 -16.74,46.27 -54.82,0.06 -109.63,0 -164.45,0.02 3.62,-10.2 7.32,-20.38 11.06,-30.52 5.2,0 10.42,-0.02 15.64,0 20.65,-57.14 41.59,-114.17 62.28,-171.29 -5.18,-0.02 -10.36,-0.02 -15.54,-0.02 3.77,-10.16 7.33,-20.38 11.11,-30.54zm3.52 4.35l0 0c-2.99,7.13 -5.65,14.4 -8.03,21.76 1.52,-0.02 4.59,-0.04 6.1,-0.06 2.03,-5.22 4.04,-10.41 6.07,-15.61 19.65,-0.16 39.32,0 58.97,-0.08 0.16,-1.48 0.45,-4.45 0.61,-5.93 -21.24,-0.02 -42.49,0.1 -63.72,-0.08zm6.13 25.62l0 0c-21.58,58.7 -42.85,117.51 -64.27,176.27 -5.36,0.22 -10.71,0.53 -16.05,0.75 -2.44,6.87 -4.84,13.74 -7.13,20.65 1.6,-0.12 4.83,-0.35 6.42,-0.47 1.81,-4.98 3.57,-9.98 5.42,-14.95 5.22,-0.15 10.53,-0.07 15.63,-1.35 5.3,-10.66 8.15,-22.31 12.6,-33.34 17.98,-49.13 35.82,-98.33 53.7,-147.5 -1.58,-0.02 -4.75,-0.04 -6.32,-0.06zm59.46 161.03l0 0c-1.83,5.16 -3.68,10.3 -5.51,15.44 -25.18,0.47 -50.37,-0.16 -75.53,0.21 -3.68,-0.47 -6.17,1.89 -7.9,4.85 29.32,0.65 58.68,0.57 88.02,0.04 1.75,-4.83 3.52,-9.63 5.37,-14.42 6.09,-0.75 14.71,1.58 17.15,-6.04 -7.2,-0.32 -14.41,-0.2 -21.6,-0.08zm-279.66 -156.38c15.83,-11.34 31.11,-23.53 47.34,-34.3 25.34,-0.77 50.76,-0.04 76.12,-0.34 3.25,4.96 6.46,9.96 9.73,14.91 1.83,-4.96 3.68,-9.93 5.53,-14.89 14.59,0.02 29.18,0 43.79,0.02 -8.82,23.93 -17.52,47.91 -26.21,71.87 -14.57,0.02 -29.16,-0.02 -43.73,0.02 4.88,-13.82 10.02,-27.55 14.95,-41.35 -27.51,-0.02 -55,-0.02 -82.51,-0.02 -20.85,57.08 -41.62,114.23 -62.43,171.31 27.56,-0.02 55.13,0.02 82.67,-0.02 4.69,-13.15 9.59,-26.23 14.34,-39.36 14.55,0 29.12,-0.04 43.71,0.02 -4.68,11.61 -7.99,23.82 -13.27,35.16 -8.8,7.66 -18.76,13.91 -28,21.03 -6.46,4.37 -12.25,9.95 -19.26,13.43 -33.31,0.65 -66.67,0.02 -100,0.3 -7.43,-11.58 -14.79,-23.18 -22.14,-34.8 19.83,-54.32 39.66,-108.63 59.37,-162.99zm42.1 -25.56l0 0c-10.87,8.35 -22.07,16.26 -33.1,24.38 -7.25,5.06 -8.84,14.31 -11.83,22.05 -16.37,45.25 -32.87,90.46 -49.35,135.67 -1.87,4.05 -0.45,8.32 0.75,12.32 2.03,-4.7 4.71,-9.11 6.16,-14.06 17.07,-47.14 34.58,-94.16 51.55,-141.35 1.42,-3.98 3.72,-7.68 7.17,-10.22 8.58,-6.62 17.68,-12.55 26.17,-19.28 5.14,-3.76 10.35,-8.66 17.21,-8.17 22.52,-0.14 45.07,0.04 67.61,-0.04 -1.02,-1.93 -2.04,-3.86 -3.07,-5.77 -21.48,-0.33 -42.96,-0.02 -64.46,-0.28 -5.4,-0.37 -10.66,1.28 -14.81,4.75zm99.79 -4.53l0 0c-7.58,20.99 -15.44,41.86 -22.78,62.93 1.57,0 4.74,0.02 6.32,0.02 6.83,-19.04 13.82,-38.02 20.65,-57.06 8.37,-0.12 16.78,0.57 25.11,-0.32 3.11,0.12 3.72,-3.56 5.41,-5.37 -11.57,-0.53 -23.15,-0.3 -34.71,-0.2zm-59.31 162.9l0 0c-4.88,13.01 -9.35,26.19 -14.33,39.18 -29.34,0.04 -58.68,-0.17 -88.02,0.08 -0.61,1.24 -1.83,3.74 -2.46,4.98 31.66,0.42 63.32,0.16 94.99,0.16 5.04,-12.84 9.31,-25.95 14.41,-38.75 8.78,-0.04 17.68,1.06 26.35,-0.67 1.06,-1.18 3.15,-3.56 4.19,-4.75 -11.7,-0.82 -23.41,-0.51 -35.13,-0.23zm-306.83 -203.62c-17.59,94.49 -36.51,188.75 -54.41,283.19 -2.12,12.56 1.36,26.26 10.01,35.76 8.84,10.31 22.76,14.29 35.97,14.07 510.59,0.08 1021.2,-0.04 1531.81,0.06 -18.07,49.82 -35.99,99.68 -53.99,149.51 -2.78,7.58 -6.26,15.01 -11.12,21.46 -15.7,17.29 -36.37,32.67 -60.71,32.79 -192.34,0 -384.67,0 -577.01,0 -44.6,-0.38 -89.17,0.69 -133.77,0.47 -222.52,0 -445.06,0 -667.58,0 -22.35,-0.21 -44.72,0.53 -67.07,-0.47 -26.56,-1.28 -53.6,-10.5 -72.66,-29.6 -17.94,-17.36 -27.53,-42.15 -28.55,-66.88 -1.08,-20.46 3.05,-40.9 10.04,-60.06 40.31,-109.81 80.62,-219.63 120.92,-329.44 4.25,-11.46 8.88,-22.82 11.7,-34.75 1.55,-5.58 3.84,-10.93 6.42,-16.11zm18.7 360.61l0 0c-4.84,13.27 -9.68,26.5 -14.51,39.78 2.78,0.05 5.53,0.13 8.31,0.21 -8.23,22.61 -16.44,45.21 -24.67,67.82 -2.74,-0.04 -5.49,-0.08 -8.25,-0.08 -5.04,13.25 -9.79,26.62 -14.65,39.93 31.92,0.06 63.81,0.02 95.73,0.02 10.2,-8.68 21.86,-15.73 31.21,-25.3 6.32,-12.78 9.95,-26.78 15.06,-40.09 -1.71,-2.86 -3.42,-5.69 -5.13,-8.51 5.06,-4.04 11.44,-7.44 13.52,-14 3.98,-10.28 7.39,-20.77 11.29,-31.07 -6.17,-9.55 -12.23,-19.14 -18.35,-28.69 -29.86,-0.06 -59.71,-0.04 -89.56,-0.02zm1244.81 2.78l0 0c-7.33,5.14 -14.38,10.61 -21.66,15.77 -7.92,4.9 -9.06,14.83 -12.31,22.76 -2.52,8.13 -6.99,15.85 -7.87,24.38 4.09,8.6 10.08,16.14 14.92,24.35 -8.37,0.02 -16.72,0.02 -25.07,0.06 -6.91,19.2 -14.01,38.34 -20.85,57.58 30.29,-0.2 60.61,0.39 90.89,-0.22 10.16,-3.15 17.55,-11.93 26.59,-17.37 9.17,-5.13 10.57,-16.18 14.11,-25.06 2.29,-7.44 6.42,-14.47 7.33,-22.25 -4.16,-8.74 -10.32,-16.32 -15.16,-24.67 8.33,-0.02 16.67,-0.02 25.02,-0.12 6.8,-19.4 13.98,-38.65 20.93,-57.99 -26.3,-0.1 -52.59,0.12 -78.89,-0.1 -6.03,0.22 -12.86,-1.12 -17.98,2.88zm-1043.63 -2.78l0 0c-4.8,13.27 -9.75,26.5 -14.47,39.79 2.04,0.04 6.1,0.1 8.15,0.14 -8.23,22.76 -16.46,45.55 -24.79,68.29 -2.8,0.04 -5.57,0.12 -8.37,0.18 -4.71,13.09 -9.59,26.12 -14.28,39.24 21.55,0.16 43.07,-0.12 64.59,0.18 5.1,-13.08 9.73,-26.35 14.59,-39.52 -2.09,0 -6.26,0 -8.35,-0.02 1.71,-4.75 3.39,-9.49 5.08,-14.22 4.59,-0.04 9.18,-0.06 13.76,-0.06 -6.38,17.92 -12.99,35.76 -19.45,53.66 18.82,0.06 37.65,0.02 56.45,0.02 4.83,-13.1 9.57,-26.23 14.36,-39.34 -2.07,-0.02 -6.21,-0.1 -8.29,-0.12 2.75,-7.56 5.53,-15.1 8.15,-22.69 -1.42,-2.67 -2.92,-5.29 -4.04,-8.09 4.24,-4.62 10.44,-7.87 12.35,-14.23 4.19,-11.48 8.17,-23.04 12.44,-34.48 -6.12,-9.59 -12.22,-19.22 -18.39,-28.79 -29.83,0.12 -59.66,0.02 -89.49,0.06zm210.41 16.19l0 0c-4.09,3.01 -8.86,5.96 -10.46,11.12 -11.08,30.54 -22.15,61.1 -33.29,91.62 6.1,9.57 12.21,19.16 18.31,28.75 19.12,-0.02 38.26,0.02 57.4,0.08 9.39,0.86 15.71,-7.17 22.88,-11.78 6.02,-4.92 14.35,-8.27 16.99,-16.18 10.93,-30.39 22.13,-60.71 33.1,-91.11 -6.08,-9.51 -12.21,-19 -18.11,-28.59 -21.51,-0.22 -43.01,-0.06 -64.51,-0.1 -7.4,5.45 -14.81,10.91 -22.31,16.19zm183.77 23.62l0 0c2.74,0.04 5.49,0.08 8.23,0.16 -8.15,22.59 -16.4,45.13 -24.59,67.7 -2.84,0.08 -5.67,0.15 -8.49,0.25 -4.74,13.27 -9.67,26.47 -14.35,39.76 21.6,0.02 43.22,0 64.82,0 4.78,-13.25 9.67,-26.49 14.33,-39.78 -2.71,-0.08 -5.43,-0.11 -8.15,-0.15 1.73,-4.85 3.45,-9.71 5.2,-14.54 4.51,18.16 8.47,36.47 13.19,54.59 16.86,-0.22 33.71,-0.08 50.57,-0.1 4.88,-13.27 9.76,-26.55 14.53,-39.84 -2.78,-0.05 -5.54,-0.11 -8.29,-0.15 8.19,-22.63 16.42,-45.23 24.65,-67.82 2.72,0 5.45,0.04 8.19,0.08 5.08,-13.25 9.79,-26.64 14.65,-39.95 -21.6,-0.06 -43.2,-0.02 -64.78,-0.04 -4.9,13.21 -9.63,26.48 -14.53,39.68 2.72,0.12 5.45,0.23 8.19,0.37 -1.91,5.4 -3.86,10.79 -5.81,16.19 -4.47,-18.73 -8.94,-37.44 -13.29,-56.18 -16.52,-0.16 -33.04,0.1 -49.54,-0.2 -5.2,13.23 -9.85,26.64 -14.73,39.97zm240.93 -28.13l0 0c-6.04,5 -14.61,8.34 -17.07,16.46 -10.89,30.34 -22.05,60.58 -33,90.91 6.02,9.55 12.19,19.02 18.21,28.59 19.52,0.04 39.05,0.1 58.56,0.08 8.72,0.47 14.67,-6.87 21.39,-11.23 6.36,-5.15 15.16,-8.8 17.74,-17.25 3.94,-10.67 7.6,-21.44 11.57,-32.11 -16.08,-0.02 -32.17,-0.02 -48.26,0.02 -2.58,7.05 -5.17,14.1 -7.76,21.17 -6.45,-0.04 -12.89,-0.04 -19.33,-0.04 8.25,-22.82 16.52,-45.64 24.91,-68.41 6.44,0 12.87,0 19.33,0.02 -2.67,7.39 -5.37,14.75 -8.03,22.13 16.17,-0.05 32.33,0.14 48.5,-0.13 7.24,-20.7 14.96,-41.22 22.41,-61.85 -28.81,-0.12 -57.62,0.02 -86.41,-0.12 -9.33,-0.81 -15.61,7.19 -22.76,11.76zm198.81 -0.02l0 0c-6.12,4.98 -14.66,8.41 -17.12,16.56 -10.89,30.24 -21.92,60.45 -32.91,90.65 6.05,9.61 12.13,19.2 18.22,28.79 21.48,0.06 42.96,0.02 64.44,0.02 8.78,-6.68 17.86,-12.92 26.68,-19.55 3.69,-2.47 5.67,-6.5 7.11,-10.56 10.5,-29.67 21.42,-59.17 32.19,-88.74 -6.1,-9.65 -12.16,-19.28 -18.35,-28.85 -19.16,0.04 -38.29,-0.02 -57.45,-0.06 -9.36,-0.81 -15.66,7.15 -22.81,11.74zm-78.07 -608.77c3.67,-10.2 7.41,-20.36 11.09,-30.56 36.72,0.08 73.42,0 110.15,0.04 -3.61,10.2 -7.37,20.32 -10.99,30.5 -6.2,0.02 -12.41,0 -18.61,0.16 -1.16,56.9 -3.52,113.77 -4.61,170.67 3.65,0 7.29,0 10.95,0 -3.74,10.16 -7.44,20.36 -11.12,30.54 -23.93,-0.04 -47.87,-0.02 -71.79,-0.02 3.62,-10.2 7.34,-20.36 11.06,-30.52 4.71,0 9.43,0 14.16,0 0.71,-12.15 0.81,-24.31 1.38,-36.46 -24.22,0.08 -48.46,0.02 -72.68,0.04 -8.41,12.14 -16.8,24.29 -25.22,36.42 4.57,0 9.15,0 13.74,0 -3.58,10.2 -7.4,20.34 -11.01,30.54 -23.86,-0.04 -47.71,0 -71.57,-0.04 3.64,-10.18 7.4,-20.32 11.07,-30.5 3.78,0 7.56,0 11.36,0 39.61,-56.96 79.33,-113.87 118.97,-170.85 -5.46,0.04 -10.89,0.04 -16.33,0.04zm14.44 -26.11l0 0c-3.06,7.54 -5.87,15.2 -7.51,23.18 8.18,-1.76 9.08,-10.74 11.82,-17.15 31.29,-0.2 62.57,-0.06 93.86,-0.06 0.65,-1.97 1.34,-3.94 2.01,-5.89 -33.39,-0.16 -66.79,-0.02 -100.18,-0.08zm7.87 25.54l0 0c-40.82,58.5 -81.52,117.1 -122.41,175.52 -3.63,0.27 -7.23,0.53 -10.81,0.81 -2.6,6.85 -5.08,13.74 -7.47,20.67 1.58,0 4.73,0 6.33,0 1.79,-4.86 3.6,-9.71 5.41,-14.55 3.37,-0.39 6.73,-0.79 10.12,-1.18 41.96,-60.45 84.41,-120.57 126.22,-181.13 -1.85,-0.04 -5.54,-0.1 -7.39,-0.14zm26.64 45.38l0 0c-1.55,21.19 -0.75,42.46 -2.14,63.62 -18.73,0.18 -37.47,-0.45 -56.18,0.1 -3.88,-0.41 -5.81,3.29 -8.35,5.44 23.37,0.92 46.79,0.19 70.18,0.41 0.88,-12.66 1.28,-25.34 1.18,-38.02 0.08,-22.31 2.87,-44.56 1.59,-66.87 -8.58,9.83 -5.04,23.47 -6.28,35.32zm-58.91 59.06l0 0c17.54,-0.02 35.09,0.02 52.63,-0.02 0.36,-26.11 1.6,-52.18 2.13,-78.29 -18.37,26.01 -36.45,52.26 -54.76,78.31zm55.82 29.69l0 0c-0.14,13.8 -0.16,27.61 -0.94,41.39 -5.24,0.2 -10.46,0.53 -15.68,0.73 -2.56,6.91 -5.1,13.82 -7.6,20.75 1.6,0 4.75,0.02 6.32,0.02 1.85,-4.94 3.74,-9.88 5.61,-14.81 5.6,-0.17 11.21,-0.39 16.82,-0.57 1.26,-15.89 1.44,-31.82 1.24,-47.75 -1.44,0.06 -4.33,0.18 -5.77,0.24zm-105.66 41.88l0 0c-1.28,1.93 -2.54,3.86 -3.76,5.79 4.18,-0.04 8.39,-0.04 12.59,0 0.59,-1.95 1.2,-3.9 1.81,-5.83 -3.57,0.04 -7.11,0.06 -10.64,0.04zm147.31 -0.39l0 0c-3.63,0.8 -2.6,7.16 1.26,5.88 3.58,-0.82 2.56,-7.16 -1.26,-5.88zm-346.2 -205.53c63.92,-0.1 127.83,-0.02 191.73,-0.04 -7.78,21.52 -15.72,42.98 -23.49,64.53 -10.13,-0.06 -20.23,-0.04 -30.33,-0.02 4.18,-11.33 8.19,-22.67 12.41,-33.97 -14.57,-0.04 -29.14,0 -43.7,-0.02 -20.71,56.94 -41.42,113.89 -62.18,170.81 5.2,-0.02 10.4,0 15.6,0.04 -3.63,10.18 -7.41,20.3 -11.07,30.48 -24.99,0 -49.97,-0.02 -74.98,0.02 3.78,-10.16 7.44,-20.36 11.16,-30.54 5.18,0 10.38,0 15.58,0 20.71,-56.94 41.47,-113.89 62.22,-170.81 -14.47,0 -28.92,0.02 -43.4,-0.02 -4.09,11.34 -8.15,22.66 -12.26,33.99 -10.24,0 -20.48,0.02 -30.7,-0.02 7.76,-21.51 15.73,-42.91 23.41,-64.43zm3.39 4.39l0 0c-6.87,18.33 -13.47,36.76 -20.2,55.13 1.59,0.02 4.78,0.06 6.36,0.1 6.22,-16.34 11.97,-32.82 17.99,-49.22 58.76,-0.26 117.51,0.03 176.27,-0.14 0.2,-1.48 0.63,-4.39 0.85,-5.87 -60.41,0 -120.84,-0.02 -181.27,0zm64.68 25.54l0 0c-18.67,50.44 -36.82,101.07 -55.33,151.58 -3.07,7.89 -4.92,16.34 -9.35,23.64 -5.12,0.93 -10.32,1.28 -15.52,1.24 -2.34,6.86 -4.76,13.67 -7.07,20.52 1.56,0 4.69,0 6.27,0 1.79,-4.88 3.58,-9.76 5.41,-14.63 5.2,-0.23 10.51,-0.18 15.59,-1.52 1.07,-1.92 1.99,-3.91 2.8,-5.96 20.89,-58.38 42.47,-116.51 63.46,-174.83 -1.55,-0.02 -4.68,-0.04 -6.26,-0.04zm87.15 0.12l0 0c-3.52,9.8 -7.09,19.63 -10.59,29.45 1.55,0.02 4.66,0.06 6.22,0.08 3.8,-9.8 7.38,-19.71 10.73,-29.67 -1.59,0.02 -4.76,0.1 -6.36,0.14zm-116.45 181.86l0 0c5.93,-0.1 13,0.98 15.83,-5.77 -5.98,-0.2 -13.78,-1.89 -15.83,5.77zm-292.97 -181.47c3.6,-10.18 7.36,-20.32 11.04,-30.48 20.13,-0.02 40.25,0.04 60.4,-0.04 12.66,52.99 25.04,106.03 37.72,159 15.71,-42.77 31.17,-85.61 46.77,-128.42 -5.2,-0.02 -10.36,-0.02 -15.54,-0.04 3.66,-10.18 7.38,-20.32 11.07,-30.48 24.89,-0.04 49.75,-0.02 74.62,-0.02 -3.72,10.14 -7.42,20.28 -10.96,30.48 -5.26,0.04 -10.5,0.06 -15.74,0.06 -20.63,56.94 -41.46,113.83 -62.12,170.79 5.18,-0.02 10.34,0 15.54,0.04 -3.59,10.2 -7.45,20.3 -11.09,30.48 -20.79,0 -41.59,-0.02 -62.38,0.02 -12.3,-51.88 -24.55,-103.78 -37.02,-155.65 -15.16,41.71 -30.32,83.41 -45.48,125.09 5.16,0.02 10.34,0.02 15.51,0.04 -3.64,10.18 -7.34,20.36 -11.08,30.52 -24.89,-0.04 -49.78,-0.02 -74.65,-0.02 3.74,-10.16 7.41,-20.34 11.13,-30.52 5.22,0 10.45,-0.02 15.67,-0.02 20.66,-56.94 41.45,-113.85 62.08,-170.79 -5.17,0 -10.33,0 -15.49,-0.04zm14.39 -25.2l0 0c-3.62,6.51 -5.37,13.82 -7.66,20.87 1.5,-0.04 4.49,-0.12 5.99,-0.18 1.87,-5.12 3.39,-10.51 6.44,-15.12 16.5,-1.2 33.12,-0.16 49.68,-0.49 -0.2,-1.46 -0.59,-4.35 -0.79,-5.81 -17.86,0.37 -35.92,-1.4 -53.66,0.73zm140.41 -0.89l0 0c-2.77,7.13 -5.35,14.35 -7.71,21.64 1.47,0.04 4.45,0.1 5.92,0.14 2.05,-5.24 4.1,-10.48 6.15,-15.73 19.59,-0.18 39.16,-0.04 58.75,-0.08 0.24,-1.5 0.71,-4.47 0.95,-5.95 -21.35,0.02 -42.69,0.04 -64.06,-0.02zm-134.07 25.54l0 0c-21.68,58.46 -42.53,117.2 -64.19,175.64 -5.33,0.19 -10.65,0.57 -15.97,0.78 -2.42,6.88 -4.84,13.77 -7.16,20.68 1.57,-0.04 4.74,-0.12 6.32,-0.16 1.81,-4.98 3.66,-9.96 5.49,-14.92 5.12,-0.02 10.26,-0.12 15.38,-0.1 22.54,-60.45 44.16,-121.25 66.41,-181.82 -1.57,-0.02 -4.72,-0.08 -6.28,-0.1zm140.3 0.04l0 0c-15.97,43.36 -31.45,86.87 -47.54,130.17 -2.38,5.77 -2.04,12.11 -1.43,18.2 2.32,-4.45 4.94,-8.77 6.45,-13.57 16.01,-44.99 32.83,-89.71 48.82,-134.72 -1.58,-0.02 -4.73,-0.06 -6.3,-0.08zm-113.36 27.82l0 0c-1.56,4.96 -3.07,10.28 -1.48,15.46 12.39,51.15 24.48,102.39 36.57,153.62 1.53,0.04 4.6,0.14 6.12,0.2 -11.4,-50.68 -24.08,-101.09 -35.7,-151.72 -1.22,-6.04 -3.31,-11.83 -5.51,-17.56zm-53.7 148.25l0 0c-0.41,1.52 -1.22,4.55 -1.63,6.06 4.15,-0.41 8.31,-0.72 12.48,-0.9 0.12,-1.38 0.34,-4.14 0.46,-5.52 -3.78,0.14 -7.55,0.26 -11.31,0.36zm137.54 5.81l0 0c4.2,0 8.43,0 12.6,-0.69 0.47,-1.5 1.42,-4.47 1.89,-5.97 -5.59,0.46 -12.44,0.04 -14.49,6.66zm-319.55 -181.33c3.68,-10.2 7.38,-20.36 11.14,-30.52 36.72,0 73.45,-0.02 110.15,0.02 -3.66,10.16 -7.39,20.32 -11.09,30.48 -6.1,0.02 -12.23,0.02 -18.33,0.04 -1.71,56.92 -3.6,113.85 -4.88,170.79 3.66,0 7.3,0 10.98,0 -3.7,10.16 -7.46,20.32 -11.06,30.52 -23.96,0 -47.93,0 -71.89,0 3.74,-10.16 7.34,-20.36 11.07,-30.52 4.76,0 9.53,0 14.31,0 0.55,-12.15 0.67,-24.29 1.34,-36.42 -24.28,0 -48.54,0 -72.8,0 -8.38,12.16 -16.75,24.31 -25.22,36.42 4.57,0 9.16,0 13.74,0 -3.58,10.2 -7.4,20.34 -11,30.54 -23.87,-0.06 -47.71,0.02 -71.56,-0.04 3.66,-10.18 7.47,-20.3 11.05,-30.5 3.8,0 7.62,0 11.42,0 39.62,-56.96 79.29,-113.89 118.97,-170.81 -5.46,0.02 -10.89,-0.02 -16.34,0zm14.37 -26.07l0 0c-3.01,7.54 -5.79,15.18 -7.46,23.16 8.09,-1.84 9.17,-10.68 11.71,-17.15 31.31,-0.22 62.62,-0.08 93.92,-0.08 0.73,-1.93 1.48,-3.86 2.23,-5.79 -33.47,-0.36 -66.95,-0.1 -100.4,-0.14zm7.9 25.5l0 0c-40.8,58.5 -81.48,117.08 -122.38,175.5 -3.6,0.28 -7.21,0.55 -10.83,0.85 -2.56,6.83 -5.04,13.7 -7.42,20.63 1.55,0 4.68,0.02 6.24,0.02 1.81,-4.86 3.66,-9.73 5.49,-14.57 3.35,-0.39 6.7,-0.77 10.06,-1.14 41.91,-60.43 84.26,-120.57 125.94,-181.15 -1.79,-0.04 -5.33,-0.1 -7.1,-0.14zm27.6 19.55l0 0c-1.55,29.79 -1.89,59.64 -3.09,89.45 -18.77,0.16 -37.53,-0.39 -56.29,0.06 -4.12,-0.41 -6.66,3.11 -9.61,5.3 23.96,1.14 47.98,0.63 71.96,0.32 0.89,-20.42 0.44,-40.86 1.6,-61.26 0.65,-14.89 1.69,-29.79 0.79,-44.7 -2.03,3.47 -4.87,6.74 -5.36,10.83zm-59.84 84.89l0 0c17.55,-0.02 35.07,0.02 52.59,-0.02 0.36,-26.07 1.74,-52.1 2.15,-78.15 -18.41,25.93 -36.43,52.16 -54.74,78.17zm55.82 30.06l0 0c-0.21,13.65 -0.17,27.31 -0.94,40.94 -5.22,0.24 -10.46,0.57 -15.67,0.81 -2.58,6.91 -5.14,13.8 -7.64,20.73 1.57,0.02 4.7,0.02 6.28,0.04 2.05,-4.88 3.11,-10.51 6.67,-14.53 5.18,-1.01 10.52,-0.77 15.77,-0.87 1.36,-15.95 1.44,-31.95 1.26,-47.96 -1.43,0.21 -4.29,0.63 -5.73,0.84zm-110.85 47.89l0 0c5.41,0.35 10.63,-1.85 11.1,-7.86 -4.66,1.17 -8.78,3.47 -11.1,7.86zm152.5 -6.81l0 0c-3.56,0.81 -2.62,7.18 1.24,5.9 3.56,-0.82 2.62,-7.2 -1.24,-5.9zm-338.18 -170.82c14.94,-12.3 31.19,-23.05 46.66,-34.73 25.66,0.04 51.32,0 76.97,0.02 3.17,4.86 6.28,9.79 9.38,14.71 1.89,-5.06 3.76,-10.14 5.63,-15.2 14.53,0 29.08,0.02 43.63,-0.02 -7.97,21.82 -15.85,43.69 -23.86,65.51 -14.55,-0.04 -29.09,0.02 -43.62,-0.04 4.04,-11.54 8.37,-22.96 12.51,-34.46 -27.57,0.04 -55.12,0.06 -82.66,0 -8.53,23.67 -17.23,47.28 -25.84,70.93 30.62,-0.06 61.24,0 91.88,-0.04 7.03,11.63 15.26,22.64 21.54,34.69 -6.72,20.77 -14.83,41.11 -22.07,61.73 -15.6,11.24 -31.06,22.68 -46.53,34.06 -26.05,-0.04 -52.08,-0.02 -78.11,0 -3.08,-4.76 -6.11,-9.53 -9.26,-14.23 -1.71,4.74 -3.46,9.47 -5.2,14.21 -14.53,0 -29.04,0 -43.55,0 7.72,-21.16 15.44,-42.33 23.09,-63.5 14.54,0 29.09,-0.02 43.64,0 -3.9,10.99 -7.92,21.94 -11.7,32.96 27.51,0.02 55.04,0.08 82.56,-0.04 8.45,-23.09 16.86,-46.21 25.25,-69.32 -30.48,-0.04 -60.96,-0.03 -91.43,0 -7.38,-11.52 -14.66,-23.08 -22.07,-34.56 7.9,-20.83 14.77,-42.06 23.16,-62.68zm24.53 -12.91l0 0c-8.19,6.89 -20.04,11.14 -23.53,22.19 -6.16,17.68 -12.88,35.16 -18.96,52.89 0.96,1.45 2.89,4.39 3.86,5.84 7.21,-17.82 13.39,-36.05 19.89,-54.14 1.43,-4.08 3.5,-8.1 7.1,-10.68 8.55,-6.61 17.65,-12.5 26.11,-19.23 5.12,-3.76 10.28,-8.77 17.15,-8.27 23.08,-0.4 46.2,0.45 69.26,-0.4 -4.79,-7.81 -14.4,-5.43 -22.12,-5.67 -17.7,0.57 -35.46,-0.65 -53.12,0.41 -9.87,3.22 -17.01,11.58 -25.64,17.06zm116.98 -17.37l0 0c-6.5,19.06 -14.43,37.63 -20.04,56.98 3.01,-1.18 6.93,-1.85 7.82,-5.55 5.84,-14.96 10.86,-30.28 16.4,-45.37 9.37,-0.07 18.76,-0.15 28.13,-0.33 0.36,-1.44 1.07,-4.29 1.42,-5.73 -11.24,-0.04 -22.49,-0.04 -33.73,0zm-128.63 107.08l0 0c17.68,1.3 35.44,0.35 53.16,0.63 15.44,-0.16 30.91,0.43 46.35,-0.4 -2.28,-4.11 -6.26,-6.08 -10.87,-5.63 -25.66,-0.02 -51.33,0.12 -76.99,-0.06 -4.86,-0.59 -8.96,1.4 -11.65,5.46zm82.83 19.55l0 0c-9.53,24.77 -18.11,49.87 -27.47,74.7 -31.38,0.54 -62.79,-0.59 -94.15,0.58 2.48,3.99 6.57,5.98 11.22,5.57 29,-0.06 58.01,-0.06 87.01,-0.06 10.16,-26.88 20.07,-53.85 29.42,-81.01 -1.5,0.06 -4.53,0.16 -6.03,0.22zm-142 42.14l0 0c-6.72,18.01 -13.22,36.09 -19.75,54.16 1.55,0.08 4.66,0.22 6.2,0.3 6.38,-16.11 11.73,-32.59 18.15,-48.68 9.04,0.14 18.06,0.12 27.1,-0.02 0.61,-1.43 1.81,-4.29 2.42,-5.72 -11.38,-0.24 -22.74,-0.24 -34.12,-0.04z"/>
   <path class="fil4" d="M209.22 577.1c8.63,-5.48 15.77,-13.84 25.64,-17.06 17.66,-1.06 35.42,0.16 53.12,-0.41 7.72,0.24 17.33,-2.14 22.12,5.67 -23.06,0.85 -46.18,0 -69.26,0.4 -6.87,-0.5 -12.03,4.51 -17.15,8.27 -8.46,6.73 -17.56,12.62 -26.11,19.23 -3.6,2.58 -5.67,6.6 -7.1,10.68 -6.5,18.09 -12.68,36.32 -19.89,54.14 -0.97,-1.45 -2.9,-4.39 -3.86,-5.84 6.08,-17.73 12.8,-35.21 18.96,-52.89 3.49,-11.05 15.34,-15.3 23.53,-22.19zm1162.8 489.01c1.71,-2.84 6.24,0.21 4.15,2.85 -1.77,2.82 -6.28,-0.23 -4.15,-2.85zm-146.38 -0.91c3.98,0 7.91,0.02 11.93,0.1 -2.58,6.26 -9.61,4.8 -14.98,5.42 0.76,-1.38 2.28,-4.14 3.05,-5.52zm-102.69 5.46c1.87,-7.53 10.03,-5.04 15.64,-5.42 -3.23,5.87 -9.95,5.22 -15.64,5.42zm-116.11 -0.44c3.33,-5.71 9.88,-5.2 15.57,-5.45 -1.63,7.72 -9.98,5.02 -15.57,5.45zm-92.29 -4.17c3.17,-1.08 4.27,0 3.31,3.23 -3.19,1.06 -4.29,0 -3.31,-3.23zm-150.45 4.33c3.44,-5.95 10.12,-5.43 16.04,-5.39 -2.54,6.97 -10.37,5.02 -16.04,5.39zm-99.62 -20.87c7.19,-0.12 14.4,-0.24 21.6,0.08 -2.44,7.62 -11.06,5.29 -17.15,6.04 -1.85,4.79 -3.62,9.59 -5.37,14.42 -29.34,0.53 -58.7,0.61 -88.02,-0.04 1.73,-2.96 4.22,-5.32 7.9,-4.85 25.16,-0.37 50.35,0.26 75.53,-0.21 1.83,-5.14 3.68,-10.28 5.51,-15.44zm-197.08 -23.57c11.72,-0.28 23.43,-0.59 35.13,0.23 -1.04,1.19 -3.13,3.57 -4.19,4.75 -8.67,1.73 -17.57,0.63 -26.35,0.67 -5.1,12.8 -9.37,25.91 -14.41,38.75 -31.67,0 -63.33,0.26 -94.99,-0.16 0.63,-1.24 1.85,-3.74 2.46,-4.98 29.34,-0.25 58.68,-0.04 88.02,-0.08 4.98,-12.99 9.45,-26.17 14.33,-39.18zm864.94 -2.5c1.3,-0.2 3.9,-0.59 5.22,-0.79 0.27,15.79 -0.08,31.58 -0.63,47.38 -5.65,-0.22 -11.26,0.69 -16.9,0.47 -2.06,5.16 -4.11,10.32 -6.18,15.49 -1.55,0.03 -4.69,0.08 -6.24,0.12 2.46,-7.05 5.02,-14.04 7.78,-20.97 5.18,-0.02 10.37,-0.12 15.57,-0.14 0.93,-13.84 0.38,-27.74 1.38,-41.56zm-457.37 -0.69c1.36,0.1 4.06,0.26 5.4,0.33 -0.08,15.74 -1.48,31.43 -1.62,47.16 -5.57,0.06 -11.1,0.2 -16.65,0.28 -2.86,6.26 -3.55,15.95 -12.21,16.72 2.03,-7.47 4.68,-14.71 7.4,-21.92 5.1,-0.08 10.22,-0.22 15.34,-0.28 0.94,-14.09 1.34,-28.19 2.34,-42.29zm240.64 -33.08c1.5,-0.06 4.47,-0.2 5.96,-0.28 -10,30.15 -21.75,59.66 -32.13,89.67 -1.16,4.37 -4.43,7.41 -8.92,8.25 4.02,-14.67 10.02,-28.65 14.98,-42.98 6.76,-18.21 13.02,-36.59 20.11,-54.66zm-238.59 -59.8c0.65,-10.36 -1.22,-22.25 6.62,-30.48 -0.36,34.65 -1.5,69.33 -2.94,103.96 -23.7,-0.17 -47.43,0.83 -71.1,-0.57 2.84,-2.44 5.97,-5.06 10,-4.64 18.37,-0.18 36.74,0.15 55.12,0.04 1.51,-22.75 2.14,-45.53 2.3,-68.31zm458.08 3.9c1.08,-11.68 -2.35,-25.05 6.08,-34.74 1.48,25.41 -1.77,50.77 -1.57,76.17 0.08,9.43 -0.3,18.86 -1.09,28.27 -23.45,-0.14 -46.92,0.14 -70.37,-0.17 0.69,-1.23 2.09,-3.67 2.78,-4.89 20.73,-0.61 41.46,-0.04 62.22,-0.31 0.65,-21.45 0.57,-42.91 1.95,-64.33zm-26.64 -45.25c2.48,0 4.98,0.02 7.5,0.04 -42,60.49 -84.16,120.86 -126.3,181.25 -3.4,0.39 -6.81,0.81 -10.19,1.2 -1.82,4.9 -3.65,9.81 -5.46,14.73 -1.57,0.08 -4.74,0.28 -6.32,0.37 2.26,-6.67 3.96,-13.64 7.48,-19.81 3.41,-0.96 6.97,-1.31 10.5,-1.87 41.25,-58.42 81.85,-117.27 122.79,-175.91zm-156.07 -0.02c1.58,0 4.71,0.04 6.26,0.04 -9.86,27.35 -19.91,54.64 -29.85,81.95 -28.31,0.18 -56.63,0.57 -84.92,-0.23 2.64,-7.9 11.71,-5.16 18.01,-5.72 20.82,0.28 41.65,0.08 62.46,0.16 9.55,-25.32 18.45,-50.9 28.04,-76.2zm-115.68 0.04c1.57,0 4.72,0.02 6.3,0.02 -21.68,60.65 -44.03,121.02 -65.92,181.56 -5.12,0.1 -10.22,0.26 -15.32,0.32 -2.07,5.22 -4.31,10.36 -6.36,15.59 -1.52,0 -4.57,0 -6.11,0 2.46,-7.02 5.03,-14.02 7.84,-20.91 5.1,0 10.2,-0.1 15.32,-0.12 21.52,-58.77 42.87,-117.63 64.25,-176.46zm-308.92 176.13c41.25,-58.6 81.85,-117.67 123.08,-176.29 1.75,0.06 5.26,0.18 6.99,0.22 -41.98,60.66 -84.1,121.23 -126.51,181.56 -3.15,0.14 -6.28,0.28 -9.41,0.42 -2.78,6.3 -3.49,15.73 -12.01,16.73 1.89,-7.46 4.51,-14.69 7.28,-21.83 3.53,-0.28 7.05,-0.53 10.58,-0.81zm-122.77 -176.19c1.57,0.02 4.74,0.04 6.32,0.06 -17.88,49.17 -35.72,98.37 -53.7,147.5 -4.45,11.03 -7.3,22.68 -12.6,33.34 -5.1,1.28 -10.41,1.2 -15.63,1.35 -1.85,4.97 -3.61,9.97 -5.42,14.95 -1.59,0.12 -4.82,0.35 -6.42,0.47 2.29,-6.91 4.69,-13.78 7.13,-20.65 5.34,-0.22 10.69,-0.53 16.05,-0.75 21.42,-58.76 42.69,-117.57 64.27,-176.27zm695.48 -25.48c33.45,-0.04 66.89,-0.2 100.34,0.1 -0.72,1.93 -1.45,3.88 -2.14,5.83 -31.33,-0.04 -62.64,-0.18 -93.95,0.08 -2.42,6.53 -3.52,15.36 -11.69,17.05 1.75,-7.92 4.51,-15.54 7.44,-23.06zm-269.95 -0.06c42.59,0 85.18,0.06 127.75,-0.06 4.49,-0.55 7.95,2.37 10.55,5.65 -44.66,0.85 -89.31,-0.02 -133.97,0.46 -2.74,6.38 -3.64,15.38 -11.82,17.09 1.72,-7.94 4.51,-15.58 7.49,-23.14zm-187.54 -0.1c33.12,0.24 66.22,0.06 99.32,0.1 -0.15,1.48 -0.45,4.43 -0.61,5.91 -31.68,0.22 -63.36,-0.34 -95.04,0.35 -1.83,5.14 -3.63,10.28 -5.48,15.4 -1.55,0 -4.66,0 -6.22,0 2.38,-7.36 5.04,-14.63 8.03,-21.76zm-244.12 0.02c21.23,0.18 42.48,0.06 63.72,0.08 -0.16,1.48 -0.45,4.45 -0.61,5.93 -19.65,0.08 -39.32,-0.08 -58.97,0.08 -2.03,5.2 -4.04,10.39 -6.07,15.61 -1.51,0.02 -4.58,0.04 -6.1,0.06 2.38,-7.36 5.04,-14.63 8.03,-21.76zm-72.18 0.18c11.56,-0.1 23.14,-0.33 34.71,0.2 -1.69,1.81 -2.3,5.49 -5.41,5.37 -8.33,0.89 -16.74,0.2 -25.11,0.32 -6.83,19.04 -13.82,38.02 -20.65,57.06 -1.58,0 -4.75,-0.02 -6.32,-0.02 7.34,-21.07 15.2,-41.94 22.78,-62.93zm-99.79 4.53c4.15,-3.47 9.41,-5.12 14.81,-4.75 21.5,0.26 42.98,-0.05 64.46,0.28 1.03,1.91 2.05,3.84 3.07,5.77 -22.54,0.08 -45.09,-0.1 -67.61,0.04 -6.86,-0.49 -12.07,4.41 -17.21,8.17 -8.49,6.73 -17.59,12.66 -26.17,19.28 -3.45,2.54 -5.75,6.24 -7.17,10.22 -16.97,47.19 -34.48,94.21 -51.55,141.35 -1.45,4.95 -4.13,9.36 -6.16,14.06 -1.2,-4 -2.62,-8.27 -0.75,-12.32 16.48,-45.21 32.98,-90.42 49.35,-135.67 2.99,-7.74 4.58,-16.99 11.83,-22.05 11.03,-8.12 22.23,-16.03 33.1,-24.38zm796.89 -106.7c3.82,-1.28 4.84,5.06 1.26,5.88 -3.86,1.28 -4.89,-5.08 -1.26,-5.88zm-147.31 0.39c3.53,0.02 7.07,0 10.64,-0.04 -0.61,1.93 -1.22,3.88 -1.81,5.83 -4.2,-0.04 -8.41,-0.04 -12.59,0 1.22,-1.93 2.48,-3.86 3.76,-5.79zm-160.12 5.99c2.05,-7.66 9.85,-5.97 15.83,-5.77 -2.83,6.75 -9.9,5.67 -15.83,5.77zm-161.46 -0.1c2.05,-6.62 8.9,-6.2 14.49,-6.66 -0.47,1.5 -1.42,4.47 -1.89,5.97 -4.17,0.69 -8.4,0.69 -12.6,0.69zm-137.54 -5.81c3.76,-0.1 7.53,-0.22 11.31,-0.36 -0.12,1.38 -0.34,4.14 -0.46,5.52 -4.17,0.18 -8.33,0.49 -12.48,0.9 0.41,-1.51 1.22,-4.54 1.63,-6.06zm-94.51 -0.51c3.86,-1.3 4.8,5.08 1.24,5.9 -3.86,1.28 -4.8,-5.09 -1.24,-5.9zm-152.5 6.81c2.32,-4.39 6.44,-6.69 11.1,-7.86 -0.47,6.01 -5.69,8.21 -11.1,7.86zm-231.97 -39.14c11.38,-0.2 22.74,-0.2 34.12,0.04 -0.61,1.43 -1.81,4.29 -2.42,5.72 -9.04,0.14 -18.06,0.16 -27.1,0.02 -6.42,16.09 -11.77,32.57 -18.15,48.68 -1.54,-0.08 -4.65,-0.22 -6.2,-0.3 6.53,-18.07 13.03,-36.15 19.75,-54.16zm1043.76 -9.12c1.44,-0.06 4.33,-0.18 5.77,-0.24 0.2,15.93 0.02,31.86 -1.24,47.75 -5.61,0.18 -11.22,0.4 -16.82,0.57 -1.87,4.93 -3.76,9.87 -5.61,14.81 -1.57,0 -4.72,-0.02 -6.32,-0.02 2.5,-6.93 5.04,-13.84 7.6,-20.75 5.22,-0.2 10.44,-0.53 15.68,-0.73 0.78,-13.78 0.8,-27.59 0.94,-41.39zm-700.94 0.37c1.44,-0.21 4.3,-0.63 5.73,-0.84 0.18,16.01 0.1,32.01 -1.26,47.96 -5.25,0.1 -10.59,-0.14 -15.77,0.87 -3.56,4.02 -4.62,9.65 -6.67,14.53 -1.58,-0.02 -4.71,-0.02 -6.28,-0.04 2.5,-6.93 5.06,-13.82 7.64,-20.73 5.21,-0.24 10.45,-0.57 15.67,-0.81 0.77,-13.63 0.73,-27.29 0.94,-40.94zm-200.82 -33.39c1.5,-0.06 4.53,-0.16 6.03,-0.22 -9.35,27.16 -19.26,54.13 -29.42,81.01 -29,0 -58.01,0 -87.01,0.06 -4.65,0.41 -8.74,-1.58 -11.22,-5.57 31.36,-1.17 62.77,-0.04 94.15,-0.58 9.36,-24.83 17.94,-49.93 27.47,-74.7zm-82.83 -19.55c2.69,-4.06 6.79,-6.05 11.65,-5.46 25.66,0.18 51.33,0.04 76.99,0.06 4.61,-0.45 8.59,1.52 10.87,5.63 -15.44,0.83 -30.91,0.24 -46.35,0.4 -17.72,-0.28 -35.48,0.67 -53.16,-0.63zm473.51 -53.72c2.2,5.73 4.29,11.52 5.51,17.56 11.62,50.63 24.3,101.04 35.7,151.72 -1.52,-0.06 -4.59,-0.16 -6.12,-0.2 -12.09,-51.23 -24.18,-102.47 -36.57,-153.62 -1.59,-5.18 -0.08,-10.5 1.48,-15.46zm514.17 17.54c1.24,-11.85 -2.3,-25.49 6.28,-35.32 1.28,22.31 -1.51,44.56 -1.59,66.87 0.1,12.68 -0.3,25.36 -1.18,38.02 -23.39,-0.22 -46.81,0.51 -70.18,-0.41 2.54,-2.15 4.47,-5.85 8.35,-5.44 18.71,-0.55 37.45,0.08 56.18,-0.1 1.39,-21.16 0.59,-42.43 2.14,-63.62zm-700.01 -25.83c0.49,-4.09 3.33,-7.36 5.36,-10.83 0.9,14.91 -0.14,29.81 -0.79,44.7 -1.16,20.4 -0.71,40.84 -1.6,61.26 -23.98,0.31 -48,0.82 -71.96,-0.32 2.95,-2.19 5.49,-5.71 9.61,-5.3 18.76,-0.45 37.52,0.1 56.29,-0.06 1.2,-29.81 1.54,-59.66 3.09,-89.45zm673.37 -19.55c1.85,0.04 5.54,0.1 7.39,0.14 -41.81,60.56 -84.26,120.68 -126.22,181.13 -3.39,0.39 -6.75,0.79 -10.12,1.18 -1.81,4.84 -3.62,9.69 -5.41,14.55 -1.6,0 -4.75,0 -6.33,0 2.39,-6.93 4.87,-13.82 7.47,-20.67 3.58,-0.28 7.18,-0.54 10.81,-0.81 40.89,-58.42 81.59,-117.02 122.41,-175.52zm-125.78 0.14c1.6,-0.04 4.77,-0.12 6.36,-0.14 -3.35,9.96 -6.93,19.87 -10.73,29.67 -1.56,-0.02 -4.67,-0.06 -6.22,-0.08 3.5,-9.82 7.07,-19.65 10.59,-29.45zm-87.15 -0.12c1.58,0 4.71,0.02 6.26,0.04 -20.99,58.32 -42.57,116.45 -63.46,174.83 -0.81,2.05 -1.73,4.04 -2.8,5.96 -5.08,1.34 -10.39,1.29 -15.59,1.52 -1.83,4.87 -3.62,9.75 -5.41,14.63 -1.58,0 -4.71,0 -6.27,0 2.31,-6.85 4.73,-13.66 7.07,-20.52 5.2,0.04 10.4,-0.31 15.52,-1.24 4.43,-7.3 6.28,-15.75 9.35,-23.64 18.51,-50.51 36.66,-101.14 55.33,-151.58zm-161.24 0c1.57,0.02 4.72,0.06 6.3,0.08 -15.99,45.01 -32.81,89.73 -48.82,134.72 -1.51,4.8 -4.13,9.12 -6.45,13.57 -0.61,-6.09 -0.95,-12.43 1.43,-18.2 16.09,-43.3 31.57,-86.81 47.54,-130.17zm-140.3 -0.04c1.56,0.02 4.71,0.08 6.28,0.1 -22.25,60.57 -43.87,121.37 -66.41,181.82 -5.12,-0.02 -10.26,0.08 -15.38,0.1 -1.83,4.96 -3.68,9.94 -5.49,14.92 -1.58,0.04 -4.75,0.12 -6.32,0.16 2.32,-6.91 4.74,-13.8 7.16,-20.68 5.32,-0.21 10.64,-0.59 15.97,-0.78 21.66,-58.44 42.51,-117.18 64.19,-175.64zm-186.5 0.02c1.77,0.04 5.31,0.1 7.1,0.14 -41.68,60.58 -84.03,120.72 -125.94,181.15 -3.36,0.37 -6.71,0.75 -10.06,1.14 -1.83,4.84 -3.68,9.71 -5.49,14.57 -1.56,0 -4.69,-0.02 -6.24,-0.02 2.38,-6.93 4.86,-13.8 7.42,-20.63 3.62,-0.3 7.23,-0.57 10.83,-0.85 40.9,-58.42 81.58,-117 122.38,-175.5zm693.1 -25.54c33.39,0.06 66.79,-0.08 100.18,0.08 -0.67,1.95 -1.36,3.92 -2.01,5.89 -31.29,0 -62.57,-0.14 -93.86,0.06 -2.74,6.41 -3.64,15.39 -11.82,17.15 1.64,-7.98 4.45,-15.64 7.51,-23.18zm-269.74 0.02c60.43,-0.02 120.86,0 181.27,0 -0.22,1.48 -0.65,4.39 -0.85,5.87 -58.76,0.17 -117.51,-0.12 -176.27,0.14 -6.02,16.4 -11.77,32.88 -17.99,49.22 -1.58,-0.04 -4.77,-0.08 -6.36,-0.1 6.73,-18.37 13.33,-36.8 20.2,-55.13zm-102.79 -0.04c21.37,0.06 42.71,0.04 64.06,0.02 -0.24,1.48 -0.71,4.45 -0.95,5.95 -19.59,0.04 -39.16,-0.1 -58.75,0.08 -2.05,5.25 -4.1,10.49 -6.15,15.73 -1.47,-0.04 -4.45,-0.1 -5.92,-0.14 2.36,-7.29 4.94,-14.51 7.71,-21.64zm-140.41 0.89c17.74,-2.13 35.8,-0.36 53.66,-0.73 0.2,1.46 0.59,4.35 0.79,5.81 -16.56,0.33 -33.18,-0.71 -49.68,0.49 -3.05,4.61 -4.57,10 -6.44,15.12 -1.5,0.06 -4.49,0.14 -5.99,0.18 2.29,-7.05 4.04,-14.36 7.66,-20.87zm-188.06 -0.83c33.45,0.04 66.93,-0.22 100.4,0.14 -0.75,1.93 -1.5,3.86 -2.23,5.79 -31.3,0 -62.61,-0.14 -93.92,0.08 -2.54,6.47 -3.62,15.31 -11.71,17.15 1.67,-7.98 4.45,-15.62 7.46,-23.16zm-123.54 -0.02c11.24,-0.04 22.49,-0.04 33.73,0 -0.35,1.44 -1.06,4.29 -1.42,5.73 -9.37,0.18 -18.76,0.26 -28.13,0.33 -5.54,15.09 -10.56,30.41 -16.4,45.37 -0.89,3.7 -4.81,4.37 -7.82,5.55 5.61,-19.35 13.54,-37.92 20.04,-56.98z"/>
  </g>
 </g>
</svg>
