<?xml version="1.0" encoding="UTF-8"?>
<!DOCTYPE svg PUBLIC "-//W3C//DTD SVG 1.1//EN" "http://www.w3.org/Graphics/SVG/1.1/DTD/svg11.dtd">
<!-- Creator: CorelDRAW -->
<svg xmlns="http://www.w3.org/2000/svg" xml:space="preserve" width="2000px" height="1600px" version="1.1" style="shape-rendering:geometricPrecision; text-rendering:geometricPrecision; image-rendering:optimizeQuality; fill-rule:evenodd; clip-rule:evenodd"
viewBox="0 0 2000 1600"
 xmlns:xlink="http://www.w3.org/1999/xlink">
 <defs>
  <style type="text/css">
   <![CDATA[
    .fil1 {fill:black;fill-rule:nonzero}
    .fil0 {fill:#CE143E;fill-rule:nonzero}
   ]]>
  </style>
 </defs>
 <g id="Capa_x0020_1">
  <metadata id="CorelCorpID_0Corel-Layer"/>
  <g id="Seattle_x0020_Redhawks.cdr">
   <path class="fil0" d="M62.62 580.06l80.17 0c18.5,2.32 37.35,9.24 49.26,24.29 19.16,22.87 21,54.34 19.71,82.86 -23.26,11.98 -46.31,24.4 -69.54,36.46 -0.06,-20.06 0.02,-40.12 -0.02,-60.18 0.11,-6.15 -2.22,-14.71 -9.5,-15.42 -14.52,-0.51 -29.08,-0.15 -43.63,-0.19 -8.09,-0.34 -15.14,5.79 -17.59,13.2 -3.15,9.99 -1.37,20.63 -1.8,30.92 -0.23,12.9 3.66,25.92 12.11,35.82 14.92,17.76 32.62,32.91 48.83,49.47 20.36,20.74 42.3,40.32 58.7,64.54 9.95,14.6 16.81,31.32 19.54,48.8 3.13,17.65 1.75,35.61 2.13,53.41 -0.34,27.3 -12.73,57.71 -39.19,69.13 -10.47,4.76 -22.15,5.91 -33.52,5.86 -23.34,-0.1 -46.68,0 -70.01,-0.06 -16.72,-0.08 -34.05,-5.36 -46.01,-17.46 -14.37,-14.28 -20.29,-34.7 -22.26,-54.34l0 -71.78c23.25,0.03 46.49,-0.16 69.73,0.09 -0.09,20.95 -0.09,41.9 -0.01,62.85 -0.21,5.71 3.33,12.97 9.87,12.82 13.96,0.11 27.93,0.08 41.89,0.02 10.44,0 17.53,-10.77 17.38,-20.46 0.02,-15.05 1.24,-30.71 -4.78,-44.92 -9,-22.12 -27.73,-37.95 -44.57,-54.07 -16.76,-15.45 -32.52,-31.95 -48.1,-48.58 -20.95,-22.82 -39.32,-50.52 -41.41,-82.3l0 -42.57c2.09,-23.28 9.12,-48.08 27.49,-63.82 9.73,-8.68 22.56,-12.24 35.13,-14.39zm1370.72 0l221.72 0c0.28,22.6 0.15,45.22 0.08,67.84 -44.69,-0.07 -89.38,-0.09 -134.07,0 0.1,39.04 -0.17,78.08 0.13,117.12 33.2,-0.06 66.4,-0.36 99.6,0.15 -0.4,22.96 -0.13,45.92 -0.13,68.88 -33.22,0.19 -66.42,-0.02 -99.62,0.12 0.06,39.02 0,78.02 0.02,117.04 44.71,0 89.42,-0.02 134.12,0 0.04,22.6 0.02,45.18 0.02,67.76 -74.32,0.04 -148.63,0.02 -222.95,0.02 5.84,-11.17 13.82,-21.41 18.52,-33.01 0.27,-123.96 0.14,-247.96 0.06,-371.94 -3.64,-12.21 -13.8,-21.67 -17.5,-33.98zm-242.4 0l88.43 0c-0.04,123.72 -0.1,247.43 0.02,371.15 42.98,0.05 85.96,-0.15 128.94,0.11 -0.07,22.51 -0.21,44.99 0.06,67.5 -66.23,0.4 -132.49,0.07 -198.74,0.15 -0.07,-134.96 0.13,-269.93 -0.09,-404.89 -4.46,-12.04 -13.28,-22.24 -18.62,-34.02zm-236.51 0l212.41 0c0.25,22.64 0.25,45.28 0,67.9 -23.8,-0.25 -47.61,-0.06 -71.4,-0.1 0.05,112.67 -0.19,225.36 0.11,338.01 4.66,11.66 12.68,21.91 18.52,33.12 -35.72,0 -71.42,0.04 -107.1,-0.04 5.31,-9.97 11.41,-19.49 16.99,-29.33 2.25,-4.04 1.06,-8.89 1.32,-13.29 -0.02,-109.46 -0.09,-218.91 0.04,-328.37 -23.72,-0.27 -47.44,-0.02 -71.16,-0.11 0.16,-22.6 -0.34,-45.21 0.27,-67.79zm-239.18 0l212.31 0c0.1,22.6 0.08,45.2 0.02,67.79 -23.83,0 -47.66,0 -71.52,0 -0.09,111.39 0.06,222.76 -0.07,334.15 -0.1,2.92 0.36,5.89 2.1,8.36 5.07,8.87 10.81,17.39 15.4,26.5 -0.1,0.78 -0.28,2.32 -0.38,3.08l-105.27 0c4.73,-12.14 13.9,-22.15 18.41,-34.26 0.36,-112.51 -0.15,-225.06 0.25,-337.59 -23.87,-0.55 -47.78,-0.11 -71.67,-0.21 0.19,-22.6 -0.61,-45.24 0.42,-67.82zm-150.79 0l81.6 0c-0.87,3.76 0.88,7.49 1.41,11.19 23.6,130.88 47.3,261.73 70.93,392.59 3.96,13.04 14.82,23.02 18.65,36.1l-84.46 0c-1.18,-13.58 0.98,-27.32 -1.73,-40.77 -2.05,-11.2 -3.87,-22.45 -5.97,-33.63 -26.7,-0.04 -53.41,-0.02 -80.13,-0.02 -2.31,12.49 -4.36,25.05 -6.61,37.56 -2.13,12.19 0.91,24.76 -1.77,36.86l-84.31 0c5.74,-15.06 19.19,-26.87 20.64,-43.48 23.91,-132.13 47.42,-264.34 71.75,-396.4zm40.21 123.3l0 0c-8.93,57.81 -18.08,115.58 -26.98,173.41 18.09,0 36.2,0.08 54.29,-0.04 -9.18,-57.77 -17.62,-115.71 -27.31,-173.37zm-377.13 -123.3l222.61 0c0.49,22.49 -0.25,45 0.4,67.46 -44.79,0.76 -89.59,0.1 -134.37,0.34 -0.04,39.02 -0.02,78.02 -0.02,117.04 33.22,0.16 66.42,-0.18 99.61,0.16 -0.17,23.01 -0.01,46.03 -0.07,69.05 -33.18,0.04 -66.36,0 -99.52,0.04 0.04,39.04 -0.13,78.08 0.07,117.11 44.69,-0.13 89.36,-0.03 134.03,-0.05 0.04,22.6 0.02,45.18 0,67.78 -74.3,0.02 -148.61,-0.04 -222.91,0.02 5.71,-11.32 13.97,-21.52 18.56,-33.26 0.19,-123.24 -0.02,-246.5 0.11,-369.76 0.14,-2.5 -0.53,-4.95 -1.87,-7.05 -5.56,-9.61 -11.55,-19 -16.63,-28.88z"/>
   <path class="fil1" d="M1676.71 580.06l93.68 0c0,113.18 0,226.33 0.02,339.5 0.1,6.94 -0.41,13.94 0.34,20.86 0.38,2.99 2.28,6.79 5.92,6.41 40.37,0.24 80.75,0.04 121.14,0.11 7.71,1.01 8.42,-8.76 8.6,-14.26 0.04,-117.53 0,-235.08 0.02,-352.62l93.57 0c-6.07,6.01 -11.98,12.16 -18.13,18.07 -0.18,114.69 0.02,229.38 -0.11,344.05 -0.47,24.04 -10.22,48.8 -29.23,64.14 -9.79,7.97 -22.13,12.06 -34.51,13.62l-159.59 0c-11.92,-1.63 -23.76,-5.52 -33.31,-12.97 -17.92,-14.03 -28.27,-36.54 -29.62,-58.99 -0.02,-116.37 -0.02,-232.75 0.02,-349.13 -6.27,-6.27 -12.45,-12.62 -18.81,-18.79z"/>
  </g>
 </g>
</svg>
