<?xml version="1.0" encoding="UTF-8"?>
<!DOCTYPE svg PUBLIC "-//W3C//DTD SVG 1.1//EN" "http://www.w3.org/Graphics/SVG/1.1/DTD/svg11.dtd">
<!-- Creator: CorelDRAW -->
<svg xmlns="http://www.w3.org/2000/svg" xml:space="preserve" width="2000px" height="1600px" version="1.1" style="shape-rendering:geometricPrecision; text-rendering:geometricPrecision; image-rendering:optimizeQuality; fill-rule:evenodd; clip-rule:evenodd"
viewBox="0 0 2000 1600"
 xmlns:xlink="http://www.w3.org/1999/xlink">
 <defs>
  <style type="text/css">
   <![CDATA[
    .fil2 {fill:#005FA9;fill-rule:nonzero}
    .fil0 {fill:#A7B0B7;fill-rule:nonzero}
    .fil1 {fill:#FEFEFE;fill-rule:nonzero}
   ]]>
  </style>
 </defs>
 <g id="Capa_x0020_1">
  <metadata id="CorelCorpID_0Corel-Layer"/>
  <g id="Seton_x0020_Hall_x0020_Pirates.cdr">
   <path class="fil0" d="M1160.7 4.58c82.85,-9.18 168.34,-5.56 248.17,20.04 59.4,18.93 114.7,50.66 160.9,92.53 64.89,58.46 111.65,134.8 142.71,215.93 57.07,148.04 65.27,313.3 28.81,467.34 20.19,40.97 32.06,87.67 24.01,133.36 -1.36,12.71 -6.38,24.73 -8.61,37.16 17.47,31.54 32.26,66.52 30.47,103.34 -3.74,49.39 -21.48,98.77 -54.69,136.05 -29.37,33.29 -70.11,54.84 -112.88,65.32 -36.16,8.43 -73.57,12.1 -110.65,10.33 -23.61,45.69 -51,89.72 -84.57,128.8 -61.89,67.67 -132.97,126.05 -202.78,185.22 -78.18,-60.25 -157.83,-119.47 -227.15,-190.12 -33.29,-33.13 -61.17,-71.14 -88.97,-108.83 -44.41,5.84 -91.02,6.84 -133.62,-8.87 -52.73,-20.14 -98.71,-60.45 -121,-112.83 -21.96,-49.71 -19.12,-109.81 8.92,-156.6 -8.9,-16.96 -16.79,-34.7 -20.27,-53.66 -7.74,-43.18 0.79,-88.18 20.45,-127.16 -7.41,-21.24 -12.77,-43.15 -17.38,-65.16 -34.75,-2.44 -69.78,-2.23 -104.27,2.71 -64.63,8.74 -124.77,40.41 -172.85,83.83 -31.29,31.62 -61.5,64.29 -92.53,96.17 -6.59,-52.43 -13.2,-104.86 -18.2,-157.45 -3.12,-29.67 -1.51,-59.63 2.38,-89.15 -14.81,2.61 -29.59,5.43 -44.4,8.05 1.33,-29.83 1.69,-59.74 3.94,-89.51 9.79,-87.98 43.64,-175.11 104.3,-240.61 48.3,-52.45 114.22,-87.38 183.97,-100.99 81.26,-16.07 165.7,-6.02 244.47,17.58 33.8,-75.31 84.03,-143.79 148.48,-195.68 74.54,-60.76 167.67,-96.38 262.84,-107.14z"/>
   <path class="fil1" d="M1101.05 76.23c57.86,-14.84 118.13,-18.97 177.66,-15.43 82.03,4.72 163.91,31.49 228.56,83.08 68.91,53.97 116.52,130.87 146.97,212.08 18.24,48.23 30.82,98.48 39.36,149.3 11.45,69.47 9.53,140.48 0.72,210.13 -4.11,31.21 -9.49,62.3 -17.02,92.84 18.53,30.58 32.65,65.74 30.7,102.07 -1.18,23.17 -8.77,45.51 -19.27,66.04 18.96,26.88 36.95,56.87 39.03,90.49 -1.9,41.74 -17.48,84.44 -48.85,113.03 -27.39,25.14 -63.83,38.01 -100.17,43.08 -34.52,4.43 -70.68,7.66 -104.12,-4.33 -20.19,47.43 -45.92,92.51 -76.59,133.95 -21.22,28.77 -47.13,53.58 -73.01,78.05 -34.21,31.96 -69.32,62.97 -105.22,93.03 -42.44,-32.73 -84.9,-65.55 -125.06,-101.1 -28.95,-25.65 -57.55,-51.94 -82.77,-81.34 -28.73,-33.54 -54.33,-69.57 -79.52,-105.78 -41.64,9.2 -85.56,14.63 -127.56,4.79 -35.24,-10.04 -67.35,-32.29 -87.82,-62.83 -18.89,-28.22 -26.22,-64.58 -17.15,-97.56 5.77,-22.19 19.12,-41.39 33.44,-58.91 -21.16,-21.99 -37.72,-50.85 -36.97,-82.19 -1.13,-32.47 11.17,-63.93 29.34,-90.38 -16.09,-40.92 -27.88,-84.08 -30.47,-128.13 -17.48,0.03 -34.85,-2.26 -52.3,-3.1 -41.93,-2.72 -84.26,-1.79 -125.73,5.43 -75.92,13.25 -145.78,52.51 -201.31,105.27 -3.82,-37.1 -5.33,-74.93 1.28,-111.8 5.1,-30.34 22.65,-56.38 39.05,-81.67 -27.16,4.87 -54.27,9.91 -81.44,14.73 6.84,-80.31 36.14,-160.98 92.1,-220.2 47.59,-50.41 114.91,-79.65 183.51,-85.59 79.98,-7.1 160.83,9.71 234.56,40.36 20.7,-70.22 58.99,-135.15 109.6,-187.97 55.53,-58.53 128.36,-99.79 206.47,-119.44zm-42.39 523.67c26.22,-1.98 52.74,-2.75 78.8,1.35 9.97,21.97 19.73,44.03 29.39,66.12 -34.9,-16.27 -73.18,-22.71 -110.96,-28.45 -45.99,-5.71 -92.46,-3.17 -138.56,-0.46 44.29,-21.22 92.31,-34.95 141.33,-38.56zm91.79 -473.27l0 0c-79.8,13.64 -155.8,51.51 -212.56,109.56 -59.15,60.52 -95.87,140.32 -112.12,222.81 -46.25,-3.84 -90.71,-18.57 -134.1,-34.39 -39.05,-15.27 -80.52,-26.52 -122.77,-25.47 -41.18,-0.43 -82.36,12.61 -115.86,36.59 -49.53,35.62 -82.87,90.52 -100.15,148.38 41.29,-38.26 95.69,-62.55 152.02,-65.86 33.34,-2.46 66.52,4.36 98.17,14.3 -45.15,3.13 -90.05,17.58 -126.41,44.95 -46.51,34.98 -78.16,87.54 -92.2,143.61 69.8,-57.99 164.64,-81.34 253.98,-70.32 28.93,4.02 58.93,2.74 86.79,-6.46 36.98,-11.92 68.22,-37.67 90.95,-68.75 0.69,25.03 2.56,50.15 7.45,74.75 -21.47,-0.23 -42.92,0.13 -64.37,0.66 -4.51,36.78 -3.3,74.24 3.38,110.68 6.41,35.44 20.66,69.04 38.75,100.02 -33.34,8.48 -57.2,43.1 -52.66,77.29 2.95,34.47 34.16,63.83 68.91,63.78 22.14,1.33 43.95,-9.12 58.04,-25.96 -13.89,8.56 -31.67,11.87 -47,5.1 -20.68,-8.09 -34,-31.62 -29.49,-53.48 2.56,-15.32 13.32,-28.24 26.83,-35.41 16.07,19.68 35.85,35.77 56.4,50.56 7.59,48.17 23.83,94.35 42,139.43 -24.09,16.32 -50.02,30.57 -78.41,37.72 -9.28,2.18 -19.27,2.92 -28.45,-0.1 -13.63,-5.26 -23.22,-18.71 -25.16,-33.04 -2.44,-16.83 3.56,-33.36 11.04,-48.15 -6.87,2.03 -13.86,4.44 -19.45,9.1 -27.09,22.19 -35.64,64.55 -17.35,94.84 14.79,24.55 43.57,37.16 71.11,40.29 40.7,3.84 81.24,-7.79 118.24,-23.89 43.59,64.94 87.31,131.11 145.2,184.41 37.82,35.52 77.65,68.91 118.67,100.68 29.83,-23.45 59.07,-47.74 86.18,-74.31 35.96,-34.03 63.02,-75.96 89.75,-117.27 -21.12,17.25 -45.72,31.16 -72.91,35.7 -27.42,4.71 -56.81,-1.56 -79.34,-18.09 -14.01,-10.46 -22.11,-27.81 -21.83,-45.21 -0.15,-30.03 17.37,-57.89 41.23,-75.16 -23.34,5.92 -47.61,10.71 -71.75,7.69 -9.59,-1.72 -20.53,-5.51 -24.81,-15.09 -5.05,-10.28 -1.43,-23.25 7.28,-30.32 10.74,-8.69 24.86,-11.68 38.36,-12.48 55.74,-1.95 111.94,4.23 165.68,19.3 32.28,8.97 62.83,23.03 94.68,33.31 38.37,12.4 80.16,13.04 119.11,2.97 22.25,-6.07 43.72,-17.86 57.61,-36.69 15.73,-21.4 20.65,-49.46 16.91,-75.37 -5.92,-23.52 -27.8,-38.9 -49.25,-47.33 6.51,13.38 12.84,27.27 14.33,42.26 1.61,17.47 -6.92,36.62 -23.32,44.25 -19.45,9.56 -42.06,7 -62.69,3.54 -47.4,-9 -92.02,-28.24 -135.89,-47.67 -46.79,-19.86 -97.25,-33.51 -148.45,-31.75 8.1,-14.27 16.32,-28.47 24.24,-42.87 -34.57,0.18 -69.11,-0.64 -103.66,0.69 7.64,-127.72 15.84,-255.41 23.5,-383.13 27.73,66.19 56.87,132.07 93.28,194.07 25.93,43.07 54.66,84.69 87.92,122.49 28.27,-19.58 55.66,-40.54 81.21,-63.58 37.98,-34.49 66.53,-77.62 96.43,-118.93 24.6,-4.77 49.21,-9.56 73.78,-14.45 -11.81,-10.13 -24.81,-18.74 -37.77,-27.24 -44.36,-28.53 -91.74,-52.08 -140.43,-72.24 -138.61,-57.1 -287.53,-87.62 -436.98,-95.9 56.17,-7.3 112.91,-7.94 169.44,-10.09 24.78,0.15 49.56,-0.57 74.32,0.66 124.08,4.26 245.88,32.03 364.63,66.81 -4.82,-99.69 -39.49,-196.91 -93.38,-280.48 -31.11,-49.12 -75.37,-89.64 -126.77,-116.75 -78.88,-42.21 -172.21,-54.76 -260.06,-39.57z"/>
   <path class="fil2" d="M1150.45 126.63c87.85,-15.19 181.18,-2.64 260.06,39.57 51.4,27.11 95.66,67.63 126.77,116.75 53.89,83.57 88.56,180.79 93.38,280.48 -118.75,-34.78 -240.55,-62.55 -364.63,-66.81 -24.76,-1.23 -49.54,-0.51 -74.32,-0.66 -56.53,2.15 -113.27,2.79 -169.44,10.09 149.45,8.28 298.37,38.8 436.98,95.9 48.69,20.16 96.07,43.71 140.43,72.24 12.96,8.5 25.96,17.11 37.77,27.24 -24.57,4.89 -49.18,9.68 -73.78,14.45 -29.9,41.31 -58.45,84.44 -96.43,118.93 -25.55,23.04 -52.94,44 -81.21,63.58 -33.26,-37.8 -61.99,-79.42 -87.92,-122.49 -36.41,-62 -65.55,-127.88 -93.28,-194.07 -7.66,127.72 -15.86,255.41 -23.5,383.13 34.55,-1.33 69.09,-0.51 103.66,-0.69 -7.92,14.4 -16.14,28.6 -24.24,42.87 51.2,-1.76 101.66,11.89 148.45,31.75 43.87,19.43 88.49,38.67 135.89,47.67 20.63,3.46 43.24,6.02 62.69,-3.54 16.4,-7.63 24.93,-26.78 23.32,-44.25 -1.49,-14.99 -7.82,-28.88 -14.33,-42.26 21.45,8.43 43.33,23.81 49.25,47.33 3.74,25.91 -1.18,53.97 -16.91,75.37 -13.89,18.83 -35.36,30.62 -57.61,36.69 -38.95,10.07 -80.74,9.43 -119.11,-2.97 -31.85,-10.28 -62.4,-24.34 -94.68,-33.31 -53.74,-15.07 -109.94,-21.25 -165.68,-19.3 -13.5,0.8 -27.62,3.79 -38.36,12.48 -8.71,7.07 -12.33,20.04 -7.28,30.32 4.28,9.58 15.22,13.37 24.81,15.09 24.14,3.02 48.41,-1.77 71.75,-7.69 -23.86,17.27 -41.38,45.13 -41.23,75.16 -0.28,17.4 7.82,34.75 21.83,45.21 22.53,16.53 51.92,22.8 79.34,18.09 27.19,-4.54 51.79,-18.45 72.91,-35.7 -26.73,41.31 -53.79,83.24 -89.75,117.27 -27.11,26.57 -56.35,50.86 -86.18,74.31 -41.02,-31.77 -80.85,-65.16 -118.67,-100.68 -57.89,-53.3 -101.61,-119.47 -145.2,-184.41 -37,16.1 -77.54,27.73 -118.24,23.89 -27.54,-3.13 -56.32,-15.74 -71.11,-40.29 -18.29,-30.29 -9.74,-72.65 17.35,-94.84 5.59,-4.66 12.58,-7.07 19.45,-9.1 -7.48,14.79 -13.48,31.32 -11.04,48.15 1.94,14.33 11.53,27.78 25.16,33.04 9.18,3.02 19.17,2.28 28.45,0.1 28.39,-7.15 54.32,-21.4 78.41,-37.72 -18.17,-45.08 -34.41,-91.26 -42,-139.43 -20.55,-14.79 -40.33,-30.88 -56.4,-50.56 -13.51,7.17 -24.27,20.09 -26.83,35.41 -4.51,21.86 8.81,45.39 29.49,53.48 15.33,6.77 33.11,3.46 47,-5.1 -14.09,16.84 -35.9,27.29 -58.04,25.96 -34.75,0.05 -65.96,-29.31 -68.91,-63.78 -4.54,-34.19 19.32,-68.81 52.66,-77.29 -18.09,-30.98 -32.34,-64.58 -38.75,-100.02 -6.68,-36.44 -7.89,-73.9 -3.38,-110.68 21.45,-0.53 42.9,-0.89 64.37,-0.66 -4.89,-24.6 -6.76,-49.72 -7.45,-74.75 -22.73,31.08 -53.97,56.83 -90.95,68.75 -27.86,9.2 -57.86,10.48 -86.79,6.46 -89.34,-11.02 -184.18,12.33 -253.98,70.32 14.04,-56.07 45.69,-108.63 92.2,-143.61 36.36,-27.37 81.26,-41.82 126.41,-44.95 -31.65,-9.94 -64.83,-16.76 -98.17,-14.3 -56.33,3.31 -110.73,27.6 -152.02,65.86 17.28,-57.86 50.62,-112.76 100.15,-148.38 33.5,-23.98 74.68,-37.02 115.86,-36.59 42.25,-1.05 83.72,10.2 122.77,25.47 43.39,15.82 87.85,30.55 134.1,34.39 16.25,-82.49 52.97,-162.29 112.12,-222.81 56.76,-58.05 132.76,-95.92 212.56,-109.56zm-91.79 473.27l0 0c-49.02,3.61 -97.04,17.34 -141.33,38.56 46.1,-2.71 92.57,-5.25 138.56,0.46 37.78,5.74 76.06,12.18 110.96,28.45 -9.66,-22.09 -19.42,-44.15 -29.39,-66.12 -26.06,-4.1 -52.58,-3.33 -78.8,-1.35z"/>
  </g>
 </g>
</svg>
