<?xml version="1.0" encoding="UTF-8"?>
<!DOCTYPE svg PUBLIC "-//W3C//DTD SVG 1.1//EN" "http://www.w3.org/Graphics/SVG/1.1/DTD/svg11.dtd">
<!-- Creator: CorelDRAW -->
<svg xmlns="http://www.w3.org/2000/svg" xml:space="preserve" width="2000px" height="1600px" version="1.1" style="shape-rendering:geometricPrecision; text-rendering:geometricPrecision; image-rendering:optimizeQuality; fill-rule:evenodd; clip-rule:evenodd"
viewBox="0 0 2000 1600"
 xmlns:xlink="http://www.w3.org/1999/xlink">
 <defs>
  <style type="text/css">
   <![CDATA[
    .fil1 {fill:#040606;fill-rule:nonzero}
    .fil5 {fill:#097856;fill-rule:nonzero}
    .fil2 {fill:#643413;fill-rule:nonzero}
    .fil3 {fill:#DACCC0;fill-rule:nonzero}
    .fil4 {fill:#FBB117;fill-rule:nonzero}
    .fil0 {fill:#FEFEFE;fill-rule:nonzero}
   ]]>
  </style>
 </defs>
 <g id="Capa_x0020_1">
  <metadata id="CorelCorpID_0Corel-Layer"/>
  <g id="Siena_x0020_Saints.cdr">
   <path class="fil0" d="M1352.34 281.56c36,0.57 73.76,5.41 104.75,25.13 5.04,2.85 9.23,7.5 14.99,9 28.34,5.6 56.74,14.18 81.04,30.23 10.71,6.99 20.18,15.81 27.78,26.1 -4.94,13.75 -21.55,13.25 -30.99,22.06 -7.76,6.45 -13.72,14.89 -17.45,24.24 -11.93,0.31 -24.33,-1.1 -34.9,-7.01 -11.41,-6.34 -26.32,-7.9 -38.02,-1.52 4.92,2.17 9.74,4.76 13.43,8.8 -11.84,3.56 -23.27,9.83 -30.66,20 -6.04,7.6 -8.92,17.01 -11.2,26.27 3.67,-3.03 7.63,-5.74 11.88,-7.95 0.55,15.62 5.45,30.77 13.32,44.21 0.83,-5.01 0.93,-10.26 3.02,-14.97 10.71,-3.24 22.37,-1.06 33.45,-1.47 -3.6,3.03 -7.41,5.83 -10.61,9.3 27.01,-2.82 54.97,0 79.93,11.14 26.64,10.67 57.01,18.14 85.2,9.11 14.64,-4.61 25.75,-16.06 32.91,-29.3 -3.37,15.98 -15.08,29.45 -29.85,36.1 -18.7,8.61 -40.07,8.89 -60.17,6.42 -19.31,-2.46 -38.34,-7.16 -56.65,-13.74 27.91,29.77 46.94,68.44 50.77,109.26 0.22,3.31 0.8,6.72 0,10.02 -6.61,25.87 -9.66,53.43 -3.49,79.68 3.03,12.8 8.95,25.06 18.04,34.66 1.22,-6.3 2.17,-12.64 3.35,-18.95 2.13,11.09 4.5,22.55 10.82,32.13 5.43,8.52 13.16,15.81 16.19,25.7 2.1,6.49 1.35,13.41 0.84,20.07 -5.51,-25.52 -30.23,-39.42 -51.83,-50.01 -0.02,4.7 2.25,10.93 -2.9,13.75 -16.61,12.76 -37.35,23.69 -58.95,20.07 -15.56,-2.68 -26.67,-15.39 -34.23,-28.36 -0.53,-20.4 -0.23,-40.84 -0.13,-61.24 8.19,-5.48 13.79,-14.02 19.14,-22.13 5.66,-9.26 9.3,-20.28 7.22,-31.18 6.44,1.52 9.93,7.16 12.75,12.63 -0.69,-27.11 -3.22,-56.38 -20.25,-78.71 -20.16,-26.64 -66.9,-25.52 -85.26,2.54 -5.45,7.98 -8.95,17.1 -11.73,26.3l-1.64 -1.03c0.27,1.85 0.59,3.72 0.91,5.6 4.82,-11.84 12.23,-22.97 22.67,-30.55 10.15,-7.22 23.16,-8.57 35.28,-7.87 14.85,3.93 27.77,15.72 31.6,30.82 4.95,19.3 -0.16,39.6 -8,57.43 -3.51,-5.85 -7.66,-11.75 -14,-14.7 -6.48,-3.24 -13.93,-2.31 -20.84,-1.55 7.44,4.25 14.47,9.87 17.83,18.02 4.07,8.69 3.73,18.61 2.49,27.91 -79.88,0.04 -159.77,0 -239.66,0.02 -9.1,-9.79 -17.25,-21.24 -19.41,-34.75 -2.11,-10.91 0.52,-22.03 4.88,-32.07 23.43,-3.28 47.22,-14.02 60.33,-34.54 3.48,-4.34 2.05,-10.15 2.09,-15.27 -2.15,-36.63 1.77,-74.38 17.68,-107.85 12.82,-28.02 32.53,-52.49 55.6,-72.76 -15.03,0.06 -30.12,1.18 -44.84,4.27 10.27,-17.13 28.3,-28.37 47.39,-33.2 11.85,-3.09 24.17,-3.87 36.38,-3.68 -18.42,43.83 -29.72,91.66 -25.96,139.37 4.65,-52.21 22.13,-103.08 48.78,-148.13 -23.16,-7.74 -49.07,-9.75 -72.17,-0.74 -29.72,11.37 -51.72,37.14 -64.9,65.4 16,-5.63 32.97,-7.35 49.7,-9.48 -35.18,23.39 -55.77,63.29 -63.72,103.94 -5.29,-24.11 -0.46,-48.91 4.27,-72.7 -7.75,2.82 -15.47,5.77 -23.18,8.72 6.3,-22.57 18.11,-43.1 30.48,-62.82 -4.18,0.61 -8.35,1.16 -12.5,1.7 11.41,-21.2 33.05,-34.63 55.35,-42 -13.24,-11.87 -28.89,-20.54 -43.43,-30.61 53.47,-12.61 110.44,-12.27 162.88,4.93 -23.41,-21.18 -54.23,-31.28 -83.89,-40.21zm129.68 686.31c9.71,5.79 18.61,13.31 24.59,23.04 10.04,18.99 23.68,35.76 36.57,52.84 23.11,29.28 47.87,57.7 77.35,80.73 27.83,19.63 52.54,46.68 61.64,80.19 -14.89,-14 -29.83,-28.57 -48.04,-38.25 16.63,21.79 35.51,41.81 53.62,62.32 11.77,14.73 10.19,34.23 9.72,51.89 -3.85,0.38 -8.76,3.45 -11.98,0.17 -3.17,-4.72 -4.92,-10.23 -8.04,-14.95 -4.4,-6.97 -10.92,-12.19 -17.14,-17.43 -7.78,-6.36 -14.86,-13.7 -23.81,-18.44 -0.19,-0.11 -0.59,-0.34 -0.78,-0.46 -1.57,-1.69 -3.07,-3.35 -4.65,-4.95 6.17,11.92 12.78,23.66 20.4,34.74 2.93,4.42 7.16,8.16 8.74,13.39 2.97,8.14 1.87,16.94 2.57,25.43 -8.38,-3.96 -16.74,-9.04 -21.43,-17.35 -6.85,-9.85 -3.67,-24.02 -13.37,-32.23 -9.58,-9.12 -16.36,-21.33 -27.98,-28.13 0.08,-0.17 0.27,-0.5 0.34,-0.67 -6.32,-5.27 -9.82,-13.01 -15.12,-19.2 7.98,15.72 16.61,31.13 24.74,46.76 2.29,4.31 1.41,9.39 1.98,14.08 -19.79,-5.18 -35.48,-19.98 -45.21,-37.52 -10.12,-17.39 -15.83,-36.84 -20.06,-56.38 -3.51,3.23 -7.01,6.47 -10.48,9.75 -7.92,-7.54 -12.84,-17.39 -17.29,-27.2 -11.66,-25.22 -28.67,-47.37 -45.13,-69.58 2.69,-0.44 5.41,-0.84 8.14,-1.24 0.07,-37.13 -0.18,-74.25 0.11,-111.35zm180.86 -89.57c2.44,-11.9 9.6,-22 16.74,-31.54 11.35,7.18 24.99,9.51 36.32,16.65 8.92,5.5 11.64,16.23 17.79,24.11 32.02,45.24 69.99,86.19 112,122.27 9.43,7.79 18.46,16.25 29.24,22.23 12.46,7.86 25.22,18.23 28.97,33.18 2.63,11.83 15.17,17.33 25.91,19.56 16.11,3.11 31.16,13.83 37.24,29.39 -6.4,-0.49 -13.72,-0.49 -18.67,-5.14 -7.03,-6.27 -16.69,-10.36 -26.13,-7.75 17.04,10.07 35.22,20.17 46.68,36.87 5.17,7.18 5.89,16.16 6.33,24.71 -5.53,-1.85 -12.29,-2.55 -15.89,-7.68 -3.54,-5.01 -6.44,-10.53 -11.01,-14.7l-0.44 -0.44c-2.28,-3.93 -4.76,-8.12 -9.04,-10.1 -11.32,-5.65 -22.88,-10.8 -34.23,-16.34 7.9,10.69 16.76,20.99 28.07,28.19 5.09,7.14 3.87,16.53 3.7,24.82 -10.74,1.89 -22.99,3.16 -32.31,-3.73 -7.23,-4.84 -9.79,-13.58 -11.63,-21.58 -6.06,1.61 -13.13,7.6 -18.92,2.49 -7.6,-5.52 -17.16,-7.66 -24.44,-13.6 -12.09,-11.81 -14.95,-29.37 -17.2,-45.39 -9.83,1.37 -20.26,2.91 -29.75,-0.91 -9.16,-3.53 -15.2,-13.09 -15.5,-22.77 -0.54,-8 1.73,-16.66 -2.88,-23.88 -15.49,-28.76 -38.32,-52.65 -61.47,-75.37 -19.92,-18.96 -40.38,-37.53 -62.63,-53.74 -5.37,-3.83 -9,-9.43 -11.77,-15.29 5.17,2 10.23,4.23 15.24,6.61 -0.88,-6.99 -1.98,-14.15 -0.32,-21.13zm-450.77 -34.17c20.69,-2.76 42.04,0.21 61.43,7.81 -10.91,30.65 -21.41,61.45 -32.19,92.15 -14.28,-9.9 -27.83,-20.74 -41.48,-31.46 4.07,-22.84 8.32,-45.64 12.24,-68.5zm593.62 -74.53c3.01,-2.95 5.51,-6.4 7.2,-10.29 0.98,5.01 2.08,10.02 2.52,15.13 -3.77,-0.54 -7.16,-2.02 -9.72,-4.84zm19.57 0.02c6.28,-5.47 12.19,-11.51 16.24,-18.88 1.38,6.12 2.65,12.48 1.28,18.73 -0.61,2.83 -1.29,6.34 -4.74,6.91 -5.55,2.34 -9.93,-2.76 -12.78,-6.76zm-498.46 -41.16c40.25,-0.33 80.49,0 120.74,-0.16 0.23,55.79 -0.27,111.6 0.25,167.39 0.61,49.76 0.1,99.53 0.27,149.28 -19.13,-0.04 -38.25,0.13 -57.36,-0.08 1.51,-23.5 3.43,-46.97 4.92,-70.45 -25.15,0.21 -50.29,-0.06 -75.41,0.13 -6.27,23.49 -12.8,46.92 -19.09,70.4 -19.62,0.04 -39.23,-0.02 -58.87,0.04 35.63,-102.78 71.18,-205.58 106.97,-308.29 -7.47,-2.78 -15.13,-5.06 -22.42,-8.26zm-2.74 227.39l0 0c24.62,0.53 49.27,0.05 73.92,0.24 2.99,-69.9 5.83,-139.8 8.84,-209.69 -8.13,-0.04 -16.25,-0.04 -24.36,-0.04 -19.47,69.85 -38.75,139.72 -58.4,209.49zm-90.77 -229.26c24.18,10.65 48.16,21.69 72.35,32.3 -1.97,6.29 -4.21,12.48 -6.38,18.69 -25.01,-3.29 -50.63,-3.26 -75.41,1.77 2.21,-12.32 4.41,-24.63 6.64,-36.95 4.5,0.61 8.98,1.29 13.47,2.09 -3.75,-4.05 -7.47,-8.09 -11.5,-11.82 0.26,-2.02 0.55,-4.06 0.83,-6.08zm-243.37 -0.17c24.8,0.06 49.62,-0.08 74.42,0.06 9.77,89.81 19.53,179.61 29.41,269.41 2.1,0.01 4.21,0.05 6.34,0.11 14.94,-89.85 29.7,-179.73 44.59,-269.58 16.8,0.11 33.62,-0.21 50.44,0.17 -18.28,105.3 -36.04,210.69 -54.15,316 -22.65,-0.04 -45.29,0.15 -67.96,-0.1 -11.07,-91.54 -23.37,-182.93 -35.24,-274.38 -2.17,0.14 -4.32,0.29 -6.48,0.42 -14.03,91.37 -28.03,182.75 -42.19,274.12 -17.56,-0.1 -35.12,0 -52.66,-0.06 17.98,-105.37 35.56,-210.8 53.48,-316.17zm-222.61 -0.02c41.83,0.09 83.66,-0.08 125.47,0.08 -1.1,6.32 -2.17,12.66 -3.33,18.99 -19.62,-0.02 -39.22,0.03 -58.82,-0.04 -6.27,37.64 -12.65,75.24 -18.92,112.87 19.53,0 39.07,0.12 58.59,-0.05 -0.97,6.36 -2.09,12.7 -3.18,19.06 -19.65,0.18 -39.33,-0.05 -58.99,0.12 -8.02,48.76 -16.57,97.43 -24.74,146.15 19.54,-0.04 39.1,0 58.65,-0.02 -1.05,6.36 -2.14,12.72 -3.3,19.09 -41.58,-0.1 -83.18,-0.02 -124.76,-0.04 17.66,-105.43 35.54,-210.82 53.33,-316.21zm-165.2 -0.04c22.02,0.19 44.06,-0.07 66.08,0.13 -17.98,105.34 -35.6,210.75 -53.47,316.1 -22,0.06 -44,-0.02 -66,0.04 17.81,-105.43 35.58,-210.86 53.39,-316.27zm210 -35.24c0.69,-0.44 2.06,-1.31 2.75,-1.75 12.47,0.55 25.1,1.93 37.18,5.31 -37.64,-0.4 -75.28,-0.05 -112.92,-0.17 -2.15,11.98 -4.17,24 -6.02,36.04 -9.71,3.91 -20.45,-0.59 -30.61,-0.15 1.66,-10.97 3.6,-21.89 5.57,-32.8 13.42,-2.46 26.85,-5.2 40.49,-6.34 21.18,-0.23 42.38,0.07 63.56,-0.14zm128.25 -48.78c34.13,3.03 68.1,10.84 99.56,24.59 15.16,6.73 29.66,15.41 41.66,26.97 -40.21,0.33 -80.42,0 -120.61,0.18 -5.2,31.31 -10.65,62.6 -15.77,93.94 -8.23,-6.8 -19.28,-10.61 -25.62,-19.39 4.49,-24.67 8.65,-49.39 12.93,-74.08 -25.62,-0.09 -51.25,-0.02 -76.87,-0.04 -11.24,-10.03 -23.68,-19.77 -38.73,-23.08 53.55,-10.36 109.05,-12.04 162.96,-3.26 -11.85,-10.3 -24.1,-21.39 -39.51,-25.83zm844.15 -60.21c3.55,-2.85 7.32,-5.43 11.28,-7.64 -1.3,7.81 1.24,15.49 7.39,20.58 -6.23,3.48 -14.27,4.24 -19.12,-1.87 2.7,-0.42 5.41,-0.91 8.11,-1.49 -1.71,-3.75 -5.43,-6.13 -7.66,-9.58zm61.36 -8.66c1.33,-10.52 5.82,-20.58 13.25,-28.19 15.91,20.41 37.24,35.42 57.97,50.53 8.3,6.4 17.48,12.42 22.6,21.88 -6.51,0.08 -13.14,-0.03 -19.35,2.14 -3.73,-1.6 -7.48,-3.18 -11.22,-4.67 -0.26,7.14 3.09,14.52 10.29,16.84 4.09,9.81 9.35,19.39 18.06,25.89 -9.09,1.33 -17.66,-2.88 -22.96,-10.16 1.57,4.44 2.92,8.97 4.5,13.43 -4.27,8.63 -10.4,16.1 -16.48,23.47 -0.21,0.28 -0.65,0.82 -0.87,1.08 -4.94,2.25 -9.66,4.96 -14,8.19 -1.36,-1.31 -2.69,-2.63 -4,-3.92 -1.45,1.22 -2.9,2.42 -4.31,3.64 0.84,0.8 2.48,2.38 3.3,3.18 -2.97,1.16 -5.93,2.32 -8.75,3.79 -3.75,-3.07 -6.17,1.28 -8.74,3.35 -7.75,0.73 -15.2,3.89 -23.07,3.49 -9.39,-0.57 -18.53,-2.94 -27.77,-4.38 4,3.31 8.08,6.57 12.17,9.81 -8.41,5.29 -16.7,11.52 -26.43,14.09 -19.76,-5.96 -33.51,-24.17 -40.75,-42.76 13.41,-8.69 29.22,-11.75 44.73,-14.34 -1.07,-1.55 -2.14,-3.07 -3.18,-4.57 14.51,-4.04 29.16,-9.53 40.74,-19.49 6.21,-5.5 11.69,-14.08 8.86,-22.65 -4.59,-16.07 -6.63,-33.03 -4.59,-49.67zm-226.99 -28.88c18.55,3.22 37.42,-2.04 53.71,-10.84 -0.71,20.5 -15.09,38.46 -33.11,47.12 -15.56,8.63 -25.84,23.76 -34.57,38.81 3.05,-17.89 12.92,-33.64 23.91,-47.74 -2.73,-0.47 -5.43,-0.97 -8.12,-1.43 6.96,-3.43 12.9,-8.43 18.78,-13.41 -7.46,-3.14 -14.36,-7.41 -20.6,-12.51zm-1379.45 -69.51c52.22,-0.22 104.45,-0.01 156.68,-0.09 27.43,-0.02 55.2,-0.3 82.14,5.56 13.96,3.14 29.04,10.06 34.62,24.27 7,17.81 2.88,37.37 0.31,55.65 -5.73,31.97 -10.61,64.08 -16.33,96.04 -36.05,-0.23 -72.09,-0.05 -108.13,-0.07 5.49,-32.67 11.37,-65.3 16.31,-98.04 1.46,-7.89 -3.11,-16.21 -10.5,-19.28 -11.12,-4.76 -26.09,-3.52 -34.23,6.21 -4.42,5.15 -6.25,11.89 -7.39,18.44 -4.86,28.12 -9.69,56.23 -14.59,84.32 -1.16,8.33 -2.38,17.51 1.64,25.28 4.29,7.79 12.42,12.29 20.08,16.19 24.57,11.68 49.1,23.41 73.65,35.14 16.63,8.38 33.01,20.88 38.92,39.32 4.84,13.81 0.78,28.34 -1.35,42.25 -7.11,41.52 -13.78,83.1 -21.19,124.57 -4.59,22.45 -9.08,46.66 -24.87,64.3 -12.38,13.24 -30.48,18.88 -47.87,21.74 -25.85,4.15 -52.11,4.45 -78.23,4.3 -25.56,0.13 -51.29,-0.08 -76.53,-4.51 -12.11,-2.33 -24.71,-5.93 -33.87,-14.63 -8.89,-8.92 -11.1,-22.14 -11.06,-34.23 0.42,-16.36 2.8,-32.61 5.67,-48.71 6.65,-39.14 12.78,-78.38 19.62,-117.5 36.38,0.21 72.76,-0.15 109.14,0.19 -7.61,44.5 -15.1,89.03 -22.49,133.56 -1.96,8.52 2.7,18.02 10.76,21.51 10.1,4.32 23.2,3.94 31.68,-3.64 5.75,-5.35 8.15,-13.22 9.41,-20.74 7.14,-42.06 14.24,-84.12 21.43,-126.18 1.73,-7.65 -1.34,-15.84 -7.09,-21.01 -4.78,-4.34 -10.48,-7.44 -16.13,-10.41 -25.64,-12.44 -51.34,-24.71 -76.98,-37.15 -15.96,-8.11 -31.27,-20.7 -36.39,-38.55 -2.84,-8.55 -2.31,-17.73 -0.71,-26.46 5.49,-34.36 11.05,-68.7 17.14,-102.95 4.1,-20.49 8.42,-41.62 19.64,-59.58 4.93,-8.11 12.31,-14.25 19.62,-20.11 -14.13,-5.15 -28.5,-9.6 -42.53,-15z"/>
   <path class="fil1" d="M1422.32 261.18l3.76 0c32.32,4.21 62.4,18.59 89.6,36.06 -2.25,-6.36 -4.54,-12.71 -6.78,-19.07 22.59,6.1 42.87,19.39 58.22,36.97 35.68,-4.3 72.82,-1.75 106.39,11.72 16.62,6.53 31.77,16.49 44.72,28.76 -0.55,-7.13 -1.12,-14.25 -1.79,-21.37 20.76,9.14 43.75,22.61 49.24,46.43 1.79,-3.39 3.65,-6.74 5.58,-10.05 8.97,5.5 15.9,14.15 18.06,24.61 19.65,7.73 38.95,17.16 55.48,30.49 9.14,7.74 18.33,17.28 20.06,29.68 2.4,15.41 3.85,31.07 8.57,46 3.81,12.28 3.85,25.31 2.51,38 -1.33,6.32 4.94,10.3 8.75,14.27 22.17,18.55 47.64,33.19 67.79,54.17 7.62,8.44 15.75,18.42 15.2,30.49 -0.25,10.48 -1.85,21.45 -7.53,30.48 -5.31,6.84 -12.87,12.02 -16.36,20.19 -7.79,17.94 -18.32,35.71 -34.76,46.97 -7.83,5.58 -17.54,7.77 -27.05,7.12 7.15,10.96 7.39,24.92 4.46,37.28 -2.31,8.84 -7.3,17.75 -15.89,21.75 -8.51,4.29 -21.31,4.27 -26.13,-5.35 -6.57,8.72 -14.74,16.59 -24.99,20.76 -10.17,4.31 -21.7,4.65 -32.4,2.42 -24.5,-5.83 -49.41,-10.97 -74.67,-11.22 -9.64,0.27 -20.44,0.52 -28.19,7.03 -2.76,2.38 -6.11,3.75 -9.44,5.01 11.92,6.23 23.94,12.38 36.64,16.9 15.55,5.61 29.28,16.87 35.96,32.22 30.94,47.17 69.91,88.84 112.96,125.19 16.89,15.04 37.96,25.18 52.38,42.99 6.04,6.8 9.71,15.2 12.7,23.69 23.2,3.62 46.56,15.87 57.66,37.39 5.2,11.07 8.89,22.78 13.33,34.19 -1.77,1.77 -3.02,4.02 -2.4,6.61 2.02,20.36 3.91,40.76 6.04,61.14l0 3.8c-17.18,4.28 -36.3,10.22 -53.03,1.1 -8.53,3.41 -17.92,3.18 -26.95,3.28 -22.63,-0.4 -46.32,-6.21 -63.52,-21.66 -5.66,-4.65 -8.77,-12.17 -15.98,-14.82 -17.39,-8.25 -31.05,-23.05 -38.9,-40.53 -15.28,-2.56 -30.76,-8.18 -41.33,-19.98 -12.25,-12.25 -16.46,-29.72 -18.73,-46.29 -9.77,-12.76 -20.82,-24.57 -31.04,-36.99 -15.17,2.65 -33.26,3.09 -45.03,-8.46 -9.28,-10.44 -11.37,-25.03 -12.99,-38.38 -10,-6.53 -19.85,-13.29 -29.89,-19.81 -23.28,1.37 -45.79,-8.61 -63.6,-23.03 -0.21,9.07 -5.56,17.55 -14.11,20.86 -10.99,5.85 -23.57,2.67 -35.24,1.58 10.76,11.54 18.93,25.11 27.92,37.98 22.08,32.55 46.1,64.17 75.39,90.59 15.01,14.31 33.05,25.01 47.66,39.77 12.74,12.9 24.09,27.36 32.32,43.57 9.47,17.98 12.56,38.3 19.47,57.23 5.6,19.74 10.19,40 10.32,60.61 -0.76,9.74 -3.81,19.13 -6.85,28.37 -2.88,11.33 -15.85,15.71 -26.33,15.96 -14.63,0.11 -29.33,5.69 -43.79,1.27 -11.08,-2.57 -20.11,-9.82 -27.79,-17.84 -16.61,0.4 -33.64,-2.37 -47.92,-11.3 -26.88,-16.1 -41.85,-45.9 -49.39,-75.33 -2.57,-13.09 -11.37,-23.58 -16.76,-35.51 -7.36,-12.85 -10.38,-27.75 -18.82,-40.02 -12.31,-18.84 -26.8,-36.13 -41.22,-53.39 -11.01,1.39 -22.69,2.61 -33.3,-1.39 -8.76,-3.39 -15.06,-10.72 -20.19,-18.28 -363.75,-0.04 -727.5,-0.02 -1091.26,0 -19.22,0.66 -38.26,-2.65 -57.29,-4.94 -26.13,-3.88 -53.58,-6.78 -76.38,-21.33 -23.07,-13.6 -39.58,-37.35 -44.54,-63.66 -6.05,-27.75 -0.34,-56.15 3.53,-83.81 9.06,-56.09 18.38,-112.13 27.69,-168.19 9.74,0 19.47,-0.02 29.2,0.02 -8.78,-14.87 -14.7,-31.52 -16.26,-48.76 -1.47,-13.98 2.07,-27.75 3.96,-41.5 7.27,-43.53 14.46,-87.11 23.66,-130.29 -63.28,-36.99 -128.23,-70.97 -192.69,-105.79l0 -0.34c139.68,0 279.35,0 419.03,0 20.67,0.53 41.43,1.54 61.79,5.23 24.51,4.29 48.88,14 66.63,31.93 21.94,21.85 31.16,54.25 28.26,84.65 -2.03,20.13 -5.06,40.15 -8.21,60.13 35.24,-32.12 72.12,-62.46 110.75,-90.42 95.33,-69.11 201.85,-124.17 316,-154.36 82.34,-21.55 168.89,-31.18 253.54,-19.05 -12.32,-7.03 -24.68,-14.02 -37.03,-20.99 37.81,-15.64 79.03,-26.36 120.19,-21.68 -17.69,-6.97 -36.68,-8.76 -55.35,-11.18 14.46,-5.12 29.45,-8.65 44.55,-11.33 35.57,-6.02 72.65,-6.9 107.7,2.65 -1.83,-3.32 -3.58,-6.65 -5.53,-9.87zm-73.29 675.7c12.23,-43.07 23.6,-86.39 36.32,-129.3 -1.75,43.1 -3.5,86.21 -5.43,129.31 -10.3,0 -20.6,0.02 -30.89,-0.01zm519.79 -222.06c5.37,-4.06 4.32,6.17 -0.04,5.18 -3.81,0.97 -1.03,-4.06 0.04,-5.18zm19.83 -14.4c1.54,-3.2 4.84,0.72 6.78,1.52 -1.33,1.49 -2.65,2.99 -3.96,4.5 -1.39,-1.81 -4.96,-3.37 -2.82,-6.02zm-23.45 3.52c2.57,-2.07 4.99,-6.42 8.74,-3.35 -2.17,3.12 -4.89,5.22 -8.74,3.35zm14.19 -10.32c1.41,-1.22 2.86,-2.42 4.31,-3.64 1.31,1.29 2.64,2.61 4,3.92 -0.75,0.52 -2.25,1.58 -3.01,2.1 -0.5,0.21 -1.49,0.59 -2,0.8 -0.82,-0.8 -2.46,-2.38 -3.3,-3.18zm22.31 -7.91c0.22,-0.26 0.66,-0.8 0.87,-1.08 2.71,-0.06 6.31,-1.72 8.08,1.33 2.72,2.99 -1.05,8.52 -4.9,6.59 -3.16,-0.67 -3.16,-4.44 -4.05,-6.84zm-87.76 -110.68c2.44,1.98 4.99,6 1.64,8.47 -2.82,2.88 -6.23,-0.49 -8.4,-2.36 3.85,-0.15 5.77,-2.74 6.76,-6.11zm-461.6 -293.47l0 0c29.66,8.93 60.48,19.03 83.89,40.21 -52.44,-17.2 -109.41,-17.54 -162.88,-4.93 14.54,10.07 30.19,18.74 43.43,30.61 -22.3,7.37 -43.94,20.8 -55.35,42 4.15,-0.54 8.32,-1.09 12.5,-1.7 -12.37,19.72 -24.18,40.25 -30.48,62.82 7.71,-2.95 15.43,-5.9 23.18,-8.72 -4.73,23.79 -9.56,48.59 -4.27,72.7 7.95,-40.65 28.54,-80.55 63.72,-103.94 -16.73,2.13 -33.7,3.85 -49.7,9.48 13.18,-28.26 35.18,-54.03 64.9,-65.4 23.1,-9.01 49.01,-7 72.17,0.74 -26.65,45.05 -44.13,95.92 -48.78,148.13 -3.76,-47.71 7.54,-95.54 25.96,-139.37 -12.21,-0.19 -24.53,0.59 -36.38,3.68 -19.09,4.83 -37.12,16.07 -47.39,33.2 14.72,-3.09 29.81,-4.21 44.84,-4.27 -23.07,20.27 -42.78,44.74 -55.6,72.76 -15.91,33.47 -19.83,71.22 -17.68,107.85 -0.04,5.12 1.39,10.93 -2.09,15.27 -13.11,20.52 -36.9,31.26 -60.33,34.54 -4.36,10.04 -6.99,21.16 -4.88,32.07 2.16,13.51 10.31,24.96 19.41,34.75 79.89,-0.02 159.78,0.02 239.66,-0.02 1.24,-9.3 1.58,-19.22 -2.49,-27.91 -3.36,-8.15 -10.39,-13.77 -17.83,-18.02 6.91,-0.76 14.36,-1.69 20.84,1.55 6.34,2.95 10.49,8.85 14,14.7 7.84,-17.83 12.95,-38.13 8,-57.43 -3.83,-15.1 -16.75,-26.89 -31.6,-30.82 -12.12,-0.7 -25.13,0.65 -35.28,7.87 -10.44,7.58 -17.85,18.71 -22.67,30.55 -0.32,-1.88 -0.64,-3.75 -0.91,-5.6l1.64 1.03c2.78,-9.2 6.28,-18.32 11.73,-26.3 18.36,-28.06 65.1,-29.18 85.26,-2.54 17.03,22.33 19.56,51.6 20.25,78.71 -2.82,-5.47 -6.31,-11.11 -12.75,-12.63 2.08,10.9 -1.56,21.92 -7.22,31.18 -5.35,8.11 -10.95,16.65 -19.14,22.13 -0.1,20.4 -0.4,40.84 0.13,61.24 -0.57,55.74 -0.09,111.51 -0.24,167.26 21.5,-2.51 40.66,-14.57 55.67,-29.68 -8.3,24.96 -32.55,39.72 -55.35,49.77 25.85,3.32 52.65,-5.8 71.26,-24 25.77,-25.04 39.84,-59.63 47.75,-94.11 6.06,12.78 10.36,26.38 12.53,40.38 8.52,-7.9 11.03,-19.92 9.15,-31.06 -1.59,-6.52 1.18,-12.58 4.68,-17.87 -0.82,12.42 4.86,24.04 12.67,33.33 -0.21,-5.96 -0.78,-12.11 1.18,-17.86 3.33,-10.02 10.57,-18.42 12.61,-28.96 2.4,-10.17 0.63,-20.59 -0.86,-30.74 6.23,4.51 9.77,11.47 12.95,18.25 -0.13,-17.77 -5.81,-36.54 -19.98,-48.16 -12.7,-11.61 -30.7,-14.6 -43.54,-25.94 -0.23,2 -0.38,4.02 -0.42,6.04 -1.18,6.31 -2.13,12.65 -3.35,18.95 -9.09,-9.6 -15.01,-21.86 -18.04,-34.66 -6.17,-26.25 -3.12,-53.81 3.49,-79.68 0.8,-3.3 0.22,-6.71 0,-10.02 -3.83,-40.82 -22.86,-79.49 -50.77,-109.26 18.31,6.58 37.34,11.28 56.65,13.74 20.1,2.47 41.47,2.19 60.17,-6.42 14.77,-6.65 26.48,-20.12 29.85,-36.1 -7.16,13.24 -18.27,24.69 -32.91,29.3 -28.19,9.03 -58.56,1.56 -85.2,-9.11 -24.96,-11.14 -52.92,-13.96 -79.93,-11.14 3.2,-3.47 7.01,-6.27 10.61,-9.3 -11.08,0.41 -22.74,-1.77 -33.45,1.47 -2.09,4.71 -2.19,9.96 -3.02,14.97 -7.87,-13.44 -12.77,-28.59 -13.32,-44.21 -4.25,2.21 -8.21,4.92 -11.88,7.95 2.28,-9.26 5.16,-18.67 11.2,-26.27 7.39,-10.17 18.82,-16.44 30.66,-20 -3.69,-4.04 -8.51,-6.63 -13.43,-8.8 11.7,-6.38 26.61,-4.82 38.02,1.52 10.57,5.91 22.97,7.32 34.9,7.01 3.73,-9.35 9.69,-17.79 17.45,-24.24 9.44,-8.81 26.05,-8.31 30.99,-22.06 -7.6,-10.29 -17.07,-19.11 -27.78,-26.1 -24.3,-16.05 -52.7,-24.63 -81.04,-30.23 -5.76,-1.5 -9.95,-6.15 -14.99,-9 -30.99,-19.72 -68.75,-24.56 -104.75,-25.13zm232.42 61.3l0 0c21.39,12.26 45.11,26.62 52.65,51.77 1.75,-9.95 2.48,-20.02 2.52,-30.12 9.19,9.66 16.53,21.22 20.49,34.02 4.06,-9.58 6.72,-19.67 10.55,-29.35 3.83,8.46 5.45,17.66 8.14,26.5 0.55,0.22 1.65,0.7 2.21,0.93 5.73,-13.16 5.02,-29.14 -1.43,-41.87 -25.81,-22 -64.42,-24.28 -95.13,-11.88zm144.19 12.91l0 0c0.78,5.22 1.87,10.38 3.18,15.49 6.75,3.65 13.47,7.35 20.6,10.22 -3.13,-11.96 -13.05,-20.47 -23.78,-25.71zm-727.37 20.71l0 0c27.52,2.89 55.96,2.36 82.46,11.23 -41.51,0 -82.57,8.17 -122.36,19.53 -57.96,16.78 -113.47,41.29 -166.33,70.24 -84.42,46.37 -162.21,104.06 -234.49,167.51 -4.95,6.38 -3.62,15.66 -5.34,23.24 81.45,-51.03 166.63,-96.92 257.17,-129.72 5.79,-1.98 11.61,-3.96 17.06,-6.82 -22.19,0.23 -44.42,2.06 -66.36,5.41 7.91,-9.33 17.73,-16.7 27.33,-24.15 36.59,-27.18 78.18,-47.06 121.09,-62.07 75.43,-26.08 155.41,-36.69 234.95,-38.25 -4.26,-8.27 -9.75,-15.85 -14.15,-24.04 37.35,-6.97 75.51,-10.23 113.49,-8.13 -42.92,-17.05 -89.95,-20.65 -135.72,-19.55 -36.65,1.49 -73.33,6.19 -108.8,15.57zm574.82 13.94l0 0c-6.48,4.28 -15.31,3.45 -21.07,9.05 -8.22,6.55 -9.58,17.52 -13.75,26.57 9.34,9.01 16.94,19.44 24.31,30.07 -2.44,-9.67 -7.15,-18.49 -11.49,-27.39 -3.56,-5.71 -0.59,-13.04 3.28,-17.79 5.81,-0.95 11.75,-0.93 17.62,-1.66 -2.73,-1.46 -5.41,-2.89 -8.12,-4.3 11.77,-4.34 19.51,-15.43 21.34,-27.64 -3.78,4.59 -7.07,9.79 -12.12,13.09zm141.58 -7.39l0 0c4.71,23.81 4.78,48.51 0.27,72.36 -6.84,37.52 -21.68,73.26 -40.97,106.02 -11.15,17.98 -23.09,36.19 -40.23,49.05 -14.9,11.92 -24.57,29.63 -28.44,48.19 -2.25,12.11 -1.18,25.46 5.62,36.03 7.96,11.78 23.41,16.71 37.08,15.15 3.97,-3.34 7.2,-7.77 12.2,-9.74 15.52,-7.75 33.56,-5.33 49.62,-11.27 12.62,-4.25 24.91,-12.55 30.09,-25.3 2.8,-9.71 1.05,-21.48 -6.76,-28.49 -7.34,-6.76 -17.6,-8.08 -27.03,-9.56 7.52,-18.58 19.56,-35.85 36.49,-46.96 20.92,-14.4 48.67,-18.3 65.53,-38.55 -6.4,-3.35 -13.51,-6.27 -20.86,-5.07 -9.58,0.8 -17.52,6.61 -25.71,11.05 1.6,-7.14 6.23,-12.87 10.89,-18.26 -8.87,-10.48 -22.65,-13.93 -35.06,-18.25 9.46,-5.09 20.45,-2.65 30.47,-0.78 7.47,-4.59 16.02,-8.25 25.01,-7.26 13.85,0.99 25.83,8.76 36.55,16.99 -0.95,-5.47 -2.36,-11.07 -5.94,-15.45 -4.61,-6.32 -12.29,-8.99 -19.08,-12.25 12.76,-1.94 25.67,-0.45 38.17,2.46 -1.36,-9.06 -5.11,-17.81 -11.47,-24.47 -11.39,-12.04 -27.49,-18.38 -43.41,-21.7 -15.1,-29.66 -42.06,-52.25 -73.03,-63.94zm-550.57 26.32l0 0c4.78,7.18 9.18,14.67 11.91,22.9 -91.34,-9.17 -184.88,3.25 -270.16,37.37 -34.45,13.94 -68.21,30.49 -98.28,52.45 15.94,-1.65 32,-1.78 47.98,-0.64 9.92,0.84 20.02,0.76 29.71,3.33 -49.27,19.72 -96.86,43.37 -143.88,67.91 -64.77,34.03 -128.31,70.34 -191.26,107.6 -5.96,2.45 -4.61,9.65 -6.46,14.68 -6.28,1.39 -12.84,-0.27 -19.14,1.03 -3.87,1.5 -7.26,3.94 -10.76,6.11 2.09,3.98 4.26,7.95 6.53,11.85 15.03,-5.48 30.04,-11.01 45.09,-16.46 1.44,-8.59 2.83,-17.2 4.36,-25.77 22.97,-0.13 45.96,-0.02 68.95,-0.03 7.49,0.05 14.46,-2.98 21.52,-4.99 34.4,-10.21 69.17,-19.28 104.27,-26.69 45.89,-9.43 92.65,-16.63 139.62,-14.25 -17.62,-9.77 -37.47,-14.04 -56.57,-19.86 77.94,-11.61 157.64,-1.01 233.18,19.59 18.59,5.59 37.75,10.23 54.9,19.62 8.59,4.21 18.51,7.26 28.07,4.8 6.97,-1.92 11.58,-8.24 13.14,-15.06 1.85,-8.21 7.2,-14.8 12.27,-21.28 -4.7,-0.32 -9.41,-0.68 -14.08,-1.1 8.48,-9.17 18.86,-16.52 30.14,-21.85 18.8,-8.29 35.54,-22.55 44.51,-41.26 3.51,-8.13 7.35,-17.35 3.77,-26.13 -8.26,-27.56 -7.77,-56.73 -4.8,-85.05 -8.61,11.28 -13.06,24.97 -19.18,37.64 -3.64,-6.44 -3.64,-14.04 -4.04,-21.18 -0.36,-22.71 4.77,-45.07 10.98,-66.76 -23.87,-3.85 -48.69,-4.42 -72.29,1.48zm312.9 19.81l0 0c-7.99,1.51 -13.6,8.27 -17.34,15.01 -4.78,8.48 -2.87,19.68 3.87,26.55 4.86,7.03 14.23,2.44 21.26,4.73 -2.1,-3.43 -4.23,-6.86 -6.27,-10.29 6.36,2.82 12.7,5.83 18.32,10.02 5.2,4.02 12.16,4.15 18.23,6.11 -2.99,-3.71 -5.92,-7.42 -8.67,-11.29 8.9,3.77 18.01,7.26 27.66,8.59 -10.8,-8.08 -18.8,-19.35 -23.9,-31.75 -2.19,-4.56 -3.32,-10.21 -7.77,-13.15 -7.28,-5.1 -16.84,-6.11 -25.39,-4.53zm189.73 35.43l0 0c-5.83,6.55 -15.07,7.12 -23.05,8.93 5.45,1.7 10.92,3.39 16.36,5.16 -5.86,12.12 -20.19,16.42 -32.74,16.39 -9.75,-0.18 -20.29,0.05 -28.89,-5.24 -9.97,-5.66 -20.63,-10.84 -32.27,-11.43 5.66,3.31 11.6,6.63 15.22,12.36 -12.52,-0.49 -24.56,-3.94 -36.71,-6.61 22.61,16.31 51.09,23.98 78.82,22.13 17.26,-0.68 35.89,-7.01 45.87,-21.94 8.8,-12.99 8.72,-29.56 6.55,-44.51 -1.85,8.57 -2.7,18.17 -9.16,24.76zm-1568.76 -21.87l0 0c42.19,21.01 85.14,40.5 126.89,62.38 -9.56,20.33 -14.21,42.48 -18.27,64.44 -4.78,27.28 -9.18,54.61 -13.58,81.94 -2.3,17.11 -7.1,34.61 -2.17,51.72 6.78,30.74 32.23,53.35 59.83,66.08 -26.19,0 -52.36,0.01 -78.55,-0.02 -8.74,52.34 -17.3,104.72 -26.1,157.04 -2.61,17.45 -4.68,35.15 -3.23,52.8 1.56,17.64 8.66,35.34 22.17,47.2 16.93,15.28 39.94,21.2 62.02,24.19 27.25,3.55 54.8,3.05 82.22,3.07 26.82,-0.67 53.87,-1.05 80.21,-6.61 15.39,-3.35 30.65,-8.72 43.43,-18.11 14.76,-10.4 25.26,-25.91 32.02,-42.46 8.15,-20 12.23,-41.31 15.96,-62.5 6.86,-40.66 13.74,-81.33 20.52,-122.01 1.98,-11.34 3.58,-22.96 1.52,-34.39 -3.54,-25.27 -20.25,-46.99 -40.95,-61.06 -9.77,-7.14 -21.14,-11.51 -31.54,-17.55 30.21,-0.19 60.4,-0.01 90.59,-0.07 4.82,-28.86 9.63,-57.7 14.51,-86.53 3.81,-24.19 9.26,-48.23 10.17,-72.78 0.12,-18.08 -3.88,-37 -15.24,-51.49 -10.78,-14.19 -27.31,-22.8 -44.22,-27.39 -26.04,-6.97 -53.2,-7.28 -79.97,-8 -102.74,0.09 -205.5,-0.15 -308.24,0.11zm1517.64 101.87l0 0c6.24,5.1 13.14,9.37 20.6,12.51 -5.88,4.98 -11.82,9.98 -18.78,13.41 2.69,0.46 5.39,0.96 8.12,1.43 -10.99,14.1 -20.86,29.85 -23.91,47.74 8.73,-15.05 19.01,-30.18 34.57,-38.81 18.02,-8.66 32.4,-26.62 33.11,-47.12 -16.29,8.8 -35.16,14.06 -53.71,10.84zm226.99 28.88l0 0c-2.04,16.64 0,33.6 4.59,49.67 2.83,8.57 -2.65,17.15 -8.86,22.65 -11.58,9.96 -26.23,15.45 -40.74,19.49 1.04,1.5 2.11,3.02 3.18,4.57 -15.51,2.59 -31.32,5.65 -44.73,14.34 -14.99,10.11 -27.29,24.15 -35.5,40.25 6.78,23.29 35.69,38.38 58.74,29.6 19.43,-5.24 39.35,-8.19 59.2,-11.28 -4.32,-3.07 -8.84,-5.79 -13.46,-8.32 2.4,-2.17 4.62,-4.88 7.86,-5.79 14.63,-3.74 29.05,4.87 43.7,2 7.98,-1.55 12.15,-9.66 19.37,-12.65 19.39,-4.91 29.75,-26.82 28.28,-45.56 -0.15,-5.24 -4.05,-9.11 -8.49,-11.28 -1.58,-4.46 -2.93,-8.99 -4.5,-13.43 5.3,7.28 13.87,11.49 22.96,10.16 -8.71,-6.5 -13.97,-16.08 -18.06,-25.89 -7.2,-2.32 -10.55,-9.7 -10.29,-16.84 3.74,1.49 7.49,3.07 11.22,4.67 6.21,-2.17 12.84,-2.06 19.35,-2.14 -5.12,-9.46 -14.3,-15.48 -22.6,-21.88 -20.73,-15.11 -42.06,-30.12 -57.97,-50.53 -7.43,7.61 -11.92,17.67 -13.25,28.19zm-41.47 -0.92l0 0c-6.86,5.75 -1.93,18.84 7.14,19.03 7.83,0.95 13.26,-6.4 12.99,-13.64 -6.15,-3.24 -12.99,-7.01 -20.13,-5.39zm-19.89 9.58l0 0c2.23,3.45 5.95,5.83 7.66,9.58 -2.7,0.58 -5.41,1.07 -8.11,1.49 4.85,6.11 12.89,5.35 19.12,1.87 -6.15,-5.09 -8.69,-12.77 -7.39,-20.58 -3.96,2.21 -7.73,4.79 -11.28,7.64zm148.31 54.59l0 0c8.74,-1.18 17.56,-0.11 25.45,4 -0.25,-3.1 -0.46,-6.19 -0.67,-9.27 -8.5,-3.55 -19.45,-3.49 -24.78,5.27zm-992.46 5.62l0 0c15.41,4.44 27.66,15.53 39.51,25.83 -53.91,-8.78 -109.41,-7.1 -162.96,3.26 15.05,3.31 27.49,13.05 38.73,23.08 25.62,0.02 51.25,-0.05 76.87,0.04 -4.28,24.69 -8.44,49.41 -12.93,74.08 -0.59,3.83 -1.18,7.65 -1.77,11.5 -19.47,0.31 -38.94,-0.11 -58.38,0.17 -2.1,5.7 -2.33,11.91 -3.37,17.87 27.41,12.65 53.63,27.72 80.22,42 3.2,-17.33 5.59,-34.82 8.92,-52.15 5.12,-31.34 10.57,-62.63 15.77,-93.94 40.19,-0.18 80.4,0.15 120.61,-0.18 -12,-11.56 -26.5,-20.24 -41.66,-26.97 -31.46,-13.75 -65.43,-21.56 -99.56,-24.59zm1005.68 -0.15l0 0c2.05,1.64 4.11,3.2 6.26,4.78 -1.77,7.72 -4.76,15.05 -7.58,22.42 6.67,-7.31 12.06,-16.06 14.1,-25.83 -4.19,-1.01 -8.5,-1.43 -12.78,-1.37zm-760.25 44.32l0 0c2.42,11.47 17.12,6.67 25.47,7.36 -9.26,-11.57 -11.34,-26.56 -11.74,-40.9 -6.74,9.98 -13.6,21.14 -13.73,33.54zm-132.84 -24.87l0 0c20.52,8.06 40.13,20.17 52.42,38.95 2.88,0.06 5.75,0.09 8.67,0.15 0.74,-2.24 1.48,-4.47 2.24,-6.7 7.85,0.05 15.72,0.13 23.55,-0.44 -1.91,-3.43 -4.63,-6.27 -7.95,-8.31 -23.08,-15.71 -51.25,-22.91 -78.93,-23.65zm-240.84 29.48l0 0c-21.18,0.21 -42.38,-0.09 -63.56,0.14 -13.64,1.14 -27.07,3.88 -40.49,6.34 -1.97,10.91 -3.91,21.83 -5.57,32.8l-0.22 -0.02c-1.07,7.52 -2.39,15.01 -3.6,22.51 9.94,1.13 19.86,2.42 29.73,4.16 1.62,-8.84 3.14,-17.68 4.7,-26.5 1.85,-12.04 3.87,-24.06 6.02,-36.04 37.64,0.12 75.28,-0.23 112.92,0.17 -12.08,-3.38 -24.71,-4.76 -37.18,-5.31 -0.69,0.44 -2.06,1.31 -2.75,1.75zm-225.29 16.4l0 0c-0.29,0.8 -0.9,2.38 -1.2,3.17 -19.68,116.99 -39.55,233.96 -59.18,350.95 34.66,0.04 69.31,0.02 103.96,0 19.94,-118.1 40.15,-236.16 59.68,-354.33 -34.42,0.25 -68.84,-0.19 -103.26,0.21zm164.53 -0.07l0 0c-19.87,118.03 -39.81,236.04 -59.79,354.03 54.3,0.39 108.63,0.08 162.95,0.16 3.15,-18.92 6.54,-37.77 9.74,-56.67 -19.53,0.1 -39.07,-0.08 -58.59,0.1 5.75,-36.44 12.3,-72.77 18.4,-109.15 19.65,-0.05 39.29,0.21 58.95,-0.15 2.93,-18.86 6.53,-37.62 9.56,-56.46 -19.49,-0.03 -38.95,-0.11 -58.44,0.04 3.43,-25.2 8.36,-50.17 12.29,-75.29 19.6,-0.06 39.22,0 58.84,-0.02 3.23,-18.82 6.4,-37.64 9.77,-56.42 -54.55,-0.52 -109.13,-0.19 -163.68,-0.17zm222.76 -0.1l0 0c-20.05,118.1 -39.84,236.21 -59.88,354.31 30.19,0.07 60.36,-0.18 90.55,0.11 10.48,-56.89 18.99,-114.19 30.09,-170.95 7.43,56.91 14.23,113.92 21.47,170.87 33.45,-0.07 66.9,-0.07 100.36,0 20.33,-118.09 40.46,-236.21 60.57,-354.32 -29.46,0 -58.91,0.04 -88.36,-0.04 -9.77,57.07 -19.44,114.14 -29.06,171.2 -6.71,-57.01 -12.31,-114.15 -18.63,-171.2 -35.7,0.08 -71.41,0.04 -107.11,0.02zm267.24 2.44l0 0c28.17,12.11 56.76,23.22 85.11,34.91 -36.84,106.29 -73.68,212.56 -110.5,318.84 33.22,-0.02 66.44,0.12 99.66,-0.07 6.19,-23.53 12.7,-46.96 19.08,-70.42 13.55,0.07 27.11,0.03 40.67,0.02 -1.33,23.5 -3.2,46.99 -4.93,70.49 32.21,0 64.44,0 96.65,0 -0.1,-23.03 0.36,-46.06 -0.48,-69.07 0.4,-94.93 -0.67,-189.82 -0.48,-284.74 -74.93,0.04 -149.85,-0.06 -224.78,0.04zm-143.37 6.61l0 0c0.51,9.37 1.39,18.74 2.86,28.02 10.07,-6.42 9.24,-19.14 11.22,-29.53 -4.69,0.5 -9.39,0.99 -14.08,1.51zm135.31 10.19l0 0c-0.28,2.02 -0.57,4.06 -0.83,6.08 4.03,3.73 7.75,7.77 11.5,11.82 -4.49,-0.8 -8.97,-1.48 -13.47,-2.09 -2.23,12.32 -4.43,24.63 -6.64,36.95 -1.78,9.64 -3.53,19.28 -5.22,28.93 22.11,1.81 43.96,6.67 64.76,14.42 5.56,-14.95 10.59,-30.09 15.87,-45.12 2.17,-6.21 4.41,-12.4 6.38,-18.69 -24.19,-10.61 -48.17,-21.65 -72.35,-32.3zm445.24 32.17l0 0c-3.52,8.72 3.24,17.2 10.63,21.14 5.3,-3.88 11.01,-7.58 17.64,-8.64 6.25,-1.58 12.99,1.22 19.01,-1.68 10.46,-4.23 21.79,-4.65 32.93,-4.95 -8.68,-2.15 -17.88,-2.23 -26.26,-5.47 -9.7,-5.66 -17.09,-14.72 -21.64,-24.89 -13.56,2.76 -28.19,10.21 -32.31,24.49zm179.13 -18.53l0 0c2.03,2.49 4.38,4.68 7.04,6.53 -0.17,0.84 -0.47,2.48 -0.62,3.3 -2.59,-2.99 -5.57,-5.6 -9.38,-6.86 2.12,7.9 3.15,16.15 0.77,24.15 2.62,-0.95 5.39,-1.88 8.09,-2.82 -0.38,5.28 -0.34,10.73 -2.17,15.76 -2.04,5.37 -6.55,9.16 -10.29,13.29 4.69,2.99 10.19,3.18 15.6,3.16 10.12,-7.56 12.23,-21.03 12.23,-32.84 -0.15,-7.9 -0.51,-17.2 -7.2,-22.59 -3.9,-3.43 -9.6,-3.08 -14.07,-1.08zm-1311.72 16.28l0 0c5.45,-0.36 10.88,-1.12 16.31,-1.75 0.57,-2.51 1.16,-5.05 1.73,-7.56 -6.25,2.63 -12.42,5.52 -18.04,9.31zm1279.32 13.11l0 0c2.85,4 7.23,9.1 12.78,6.76 3.45,-0.57 4.13,-4.08 4.74,-6.91 1.37,-6.25 0.1,-12.61 -1.28,-18.73 -4.05,7.37 -9.96,13.41 -16.24,18.88zm-19.57 -0.02l0 0c2.56,2.82 5.95,4.3 9.72,4.84 -0.44,-5.11 -1.54,-10.12 -2.52,-15.13 -1.69,3.89 -4.19,7.34 -7.2,10.29zm-1271.79 9.62l0 0c-3.81,33.73 -9.96,67.16 -15.16,100.7 -5.18,29.98 -9.03,60.27 -16.68,89.78 -6.46,24.6 -16.69,49.06 -34.61,67.59 -11.66,12.79 -26.92,21.51 -43.2,27 28.55,0.55 57.14,0.03 85.71,0.24 16.32,-95.73 32.38,-191.5 48.57,-287.25 -8.23,0.47 -16.44,1.04 -24.63,1.94zm1153.57 12.55l0 0c15.81,-1.98 31.79,-0.93 47.39,2.13 17.18,2.63 34.43,8.12 51.94,5.38 -9.94,-4.2 -20.4,-6.9 -30.55,-10.52 -15.51,-4.91 -31.55,-10.27 -48.04,-8.76 -8.23,0.7 -16.02,4.95 -20.74,11.77zm-1041.45 272.71l0 0c9.96,-0.14 19.96,0.43 29.92,-0.16 1.58,-2.72 1.7,-6 2.34,-8.99 14.9,-90.57 30.82,-180.99 45.49,-271.58 -9.79,-1.62 -19.64,-2.87 -29.54,-3.48 -16.54,94.64 -32.08,189.48 -48.21,284.21zm1124.27 -277.15l0 0c8.62,2.9 17.42,5.49 25.61,9.58 13.76,7.98 31.58,0.02 39.89,-12.32 -21.14,6.95 -43.77,4.78 -65.5,2.74zm-558.22 56.8l0 0c-3.92,22.86 -8.17,45.66 -12.24,68.5 -2.27,12.89 -4.82,25.75 -6.88,38.66 12.86,6.88 26.08,13.05 38.93,19.95 3.15,-9.05 6.33,-18.08 9.43,-27.15 10.78,-30.7 21.28,-61.5 32.19,-92.15 -19.39,-7.6 -40.74,-10.57 -61.43,-7.81zm454.08 3.24l0 0c-11.73,5.7 -20.23,16.71 -24.59,28.82 -11.26,27.03 -37.43,46.06 -66.04,50.76 12.44,9.28 27.83,13.28 43.05,14.86 -1.6,-3.24 -3.18,-6.44 -4.76,-9.66 35.22,21.37 69.64,44.4 100.59,71.72 17.01,15.35 33.6,31.69 45.79,51.23 3.77,5.18 3.18,11.79 4.17,17.8 1.51,11.06 6.67,21.98 15.56,28.95 10.55,8.05 24.44,10.64 37.45,9.39 4.42,17.31 13.96,35.62 31.87,41.88 9.37,2.84 15.35,11.17 19.69,19.45 3.39,-3.96 7.03,-7.71 10.67,-11.47 1.35,9.85 4.04,20.67 12.72,26.67 11.85,8.21 27.36,5.64 40.37,1.96 1.9,-7.6 3.02,-15.35 3.73,-23.14 0.17,-8.29 1.39,-17.68 -3.7,-24.82 -11.31,-7.2 -20.17,-17.5 -28.07,-28.19 11.35,5.54 22.91,10.69 34.23,16.34 4.28,1.98 6.76,6.17 9.04,10.1l0.44 0.44c3.07,14.04 -4.3,29.67 4.21,42.55 5.66,8.19 16.48,7.92 25.16,6 -0.68,-8.74 -1.52,-17.47 -2.47,-26.17 -0.44,-8.55 -1.16,-17.53 -6.33,-24.71 -11.46,-16.7 -29.64,-26.8 -46.68,-36.87 9.44,-2.61 19.1,1.48 26.13,7.75 4.95,4.65 12.27,4.65 18.67,5.14 -6.08,-15.56 -21.13,-26.28 -37.24,-29.39 -10.74,-2.23 -23.28,-7.73 -25.91,-19.56 -3.75,-14.95 -16.51,-25.32 -28.97,-33.18 -10.78,-5.98 -19.81,-14.44 -29.24,-22.23 -42.01,-36.08 -79.98,-77.03 -112,-122.27 -6.15,-7.88 -8.87,-18.61 -17.79,-24.11 -11.33,-7.14 -24.97,-9.47 -36.32,-16.65 -4.44,-0.91 -9.24,-1.48 -13.43,0.61zm-764.38 27.22l0 0c-2.27,12.51 -4.15,25.12 -6.65,37.6 -19.58,-0.06 -39.14,-0.11 -58.7,0.02 -4.33,26.44 -8.94,52.84 -13.45,79.26 19.56,0.38 39.12,0.22 58.69,0.07 -3.85,24.33 -8.1,48.59 -12.44,72.82 9.73,0.23 19.48,0.17 29.24,0.12 10.26,-59.74 19.98,-119.57 30.43,-179.28 -8.89,-3.91 -18.09,-7.03 -27.12,-10.61zm580.21 93.28l0 0c-0.29,37.1 -0.04,74.22 -0.11,111.35 -10.35,-0.12 -20.69,0.11 -31.01,0.09 10.01,13.18 21.42,25.26 31.61,38.33 11.91,15.27 25.4,30.28 31.07,49.24 3.81,12.49 10.61,23.71 16.9,35.06 1.77,-2.02 3.54,-4.04 5.39,-6 0.66,29.53 13.14,57.81 31.65,80.48 6.12,7.29 12.35,15.39 21.66,18.7 8.33,3.76 18.71,4.65 26.23,-1.37 -2.48,-10.61 -3.31,-21.5 -3.47,-32.36 -0.57,-4.69 0.31,-9.77 -1.98,-14.08 -8.13,-15.63 -16.76,-31.04 -24.74,-46.76 5.3,6.19 8.8,13.93 15.12,19.2 -0.07,0.17 -0.26,0.5 -0.34,0.67 6.42,11.87 15.56,22.02 22.51,33.56 -0.22,17.07 0.21,35.62 10.41,50.15 6.68,9.87 18.89,14.37 30.49,13.91 -0.32,-6.65 -0.63,-13.28 -0.63,-19.91 -0.7,-8.49 0.4,-17.29 -2.57,-25.43 -1.58,-5.23 -5.81,-8.97 -8.74,-13.39 -7.62,-11.08 -14.23,-22.82 -20.4,-34.74 1.58,1.6 3.08,3.26 4.65,4.95 0.19,0.12 0.59,0.35 0.78,0.46 9.63,15.47 24,27.77 32.38,44.08 3.94,13.1 5.79,26.76 9.39,40 7.12,0.64 17.31,3.54 21.77,-4.06 2.95,-9.77 -2.53,-19.54 -2.57,-29.37 0.47,-17.66 2.05,-37.16 -9.72,-51.89 -18.11,-20.51 -36.99,-40.53 -53.62,-62.32 18.21,9.68 33.15,24.25 48.04,38.25 -9.1,-33.51 -33.81,-60.56 -61.64,-80.19 -29.48,-23.03 -54.24,-51.45 -77.35,-80.73 -12.89,-17.08 -26.53,-33.85 -36.57,-52.84 -5.98,-9.73 -14.88,-17.25 -24.59,-23.04zm-293.1 5.29l0 0c-5.47,30.34 -10.71,60.74 -16.54,91.03 8.99,0.51 18.02,0.32 27.05,0.29 8.55,-24.54 17.18,-49.03 25.58,-73.62 -12.04,-5.91 -23.81,-12.33 -36.09,-17.7zm486.19 14.17l0 0c1.98,8.06 2.22,20.88 12.91,22.06 4.63,0.17 11.45,1.79 14.8,-1.52 -7.43,-8.59 -17.73,-15.01 -27.71,-20.54zm-654.35 77.18l0 0c6.67,0.14 13.34,0.06 19.98,-0.4 -3.16,-22.57 -5.02,-45.29 -8.21,-67.86 -4.61,22.61 -8.21,45.45 -11.77,68.26zm317.79 -25.79l0 0c-2.47,8.57 -4.89,17.17 -7.08,25.81 7.88,0 15.77,-0.02 23.67,-0.11 0.31,-6.25 1.05,-12.48 0.96,-18.73 -5.15,-3.75 -11.62,-4.93 -17.55,-6.97z"/>
   <path class="fil2" d="M1584.76 342.86c30.71,-12.4 69.32,-10.12 95.13,11.88 6.45,12.73 7.16,28.71 1.43,41.87 -0.56,-0.23 -1.66,-0.71 -2.21,-0.93 -2.69,-8.84 -4.31,-18.04 -8.14,-26.5 -3.83,9.68 -6.49,19.77 -10.55,29.35 -3.96,-12.8 -11.3,-24.36 -20.49,-34.02 -0.04,10.1 -0.77,20.17 -2.52,30.12 -7.54,-25.15 -31.26,-39.51 -52.65,-51.77zm102.75 448.91c4.72,-6.82 12.51,-11.07 20.74,-11.77 16.49,-1.51 32.53,3.85 48.04,8.76 10.15,3.62 20.61,6.32 30.55,10.52 -17.51,2.74 -34.76,-2.75 -51.94,-5.38 -15.6,-3.06 -31.58,-4.11 -47.39,-2.13zm170.19 -51.54c4.47,-2 10.17,-2.35 14.07,1.08 6.69,5.39 7.05,14.69 7.2,22.59 0,11.81 -2.11,25.28 -12.23,32.84 -5.41,0.02 -10.91,-0.17 -15.6,-3.16 3.74,-4.13 8.25,-7.92 10.29,-13.29 1.83,-5.03 1.79,-10.48 2.17,-15.76 -2.7,0.94 -5.47,1.87 -8.09,2.82 2.38,-8 1.35,-16.25 -0.77,-24.15 3.81,1.26 6.79,3.87 9.38,6.86 0.15,-0.82 0.45,-2.46 0.62,-3.3 -2.66,-1.85 -5.01,-4.04 -7.04,-6.53zm-759.68 -23.83c4.69,-0.52 9.39,-1.01 14.08,-1.51 -1.98,10.39 -1.15,23.11 -11.22,29.53 -1.47,-9.28 -2.35,-18.65 -2.86,-28.02zm-45.03 -54.76c27.68,0.74 55.85,7.94 78.93,23.65 3.32,2.04 6.04,4.88 7.95,8.31 -7.83,0.57 -15.7,0.49 -23.55,0.44 -0.76,2.23 -1.5,4.46 -2.24,6.7 -2.92,-0.06 -5.79,-0.09 -8.67,-0.15 -12.29,-18.78 -31.9,-30.89 -52.42,-38.95zm132.84 24.87c0.13,-12.4 6.99,-23.56 13.73,-33.54 0.4,14.34 2.48,29.33 11.74,40.9 -8.35,-0.69 -23.05,4.11 -25.47,-7.36zm484.21 -221.92c6.46,-6.59 7.31,-16.19 9.16,-24.76 2.17,14.95 2.25,31.52 -6.55,44.51 -9.98,14.93 -28.61,21.26 -45.87,21.94 -27.73,1.85 -56.21,-5.82 -78.82,-22.13 12.15,2.67 24.19,6.12 36.71,6.61 -3.62,-5.73 -9.56,-9.05 -15.22,-12.36 11.64,0.59 22.3,5.77 32.27,11.43 8.6,5.29 19.14,5.06 28.89,5.24 12.55,0.03 26.88,-4.27 32.74,-16.39 -5.44,-1.77 -10.91,-3.46 -16.36,-5.16 7.98,-1.81 17.22,-2.38 23.05,-8.93zm-502.63 -55.24c23.6,-5.9 48.42,-5.33 72.29,-1.48 -6.21,21.69 -11.34,44.05 -10.98,66.76 0.4,7.14 0.4,14.74 4.04,21.18 6.12,-12.67 10.57,-26.36 19.18,-37.64 -2.97,28.32 -3.46,57.49 4.8,85.05 3.58,8.78 -0.26,18 -3.77,26.13 -8.97,18.71 -25.71,32.97 -44.51,41.26 -11.28,5.33 -21.66,12.68 -30.14,21.85 4.67,0.42 9.38,0.78 14.08,1.1 -5.07,6.48 -10.42,13.07 -12.27,21.28 -1.56,6.82 -6.17,13.14 -13.14,15.06 -9.56,2.46 -19.48,-0.59 -28.07,-4.8 -17.15,-9.39 -36.31,-14.03 -54.9,-19.62 -75.54,-20.6 -155.24,-31.2 -233.18,-19.59 19.1,5.82 38.95,10.09 56.57,19.86 -46.97,-2.38 -93.73,4.82 -139.62,14.25 -35.1,7.41 -69.87,16.48 -104.27,26.69 -7.06,2.01 -14.03,5.04 -21.52,4.99 -22.99,0.01 -45.98,-0.1 -68.95,0.03 -1.53,8.57 -2.92,17.18 -4.36,25.77 -15.05,5.45 -30.06,10.98 -45.09,16.46 -2.27,-3.9 -4.44,-7.87 -6.53,-11.85 3.5,-2.17 6.89,-4.61 10.76,-6.11 6.3,-1.3 12.86,0.36 19.14,-1.03 1.85,-5.03 0.5,-12.23 6.46,-14.68 62.95,-37.26 126.49,-73.57 191.26,-107.6 47.02,-24.54 94.61,-48.19 143.88,-67.91 -9.69,-2.57 -19.79,-2.49 -29.71,-3.33 -15.98,-1.14 -32.04,-1.01 -47.98,0.64 30.07,-21.96 63.83,-38.51 98.28,-52.45 85.28,-34.12 178.82,-46.54 270.16,-37.37 -2.73,-8.23 -7.13,-15.72 -11.91,-22.9zm550.57 -26.32c30.97,11.69 57.93,34.28 73.03,63.94 15.92,3.32 32.02,9.66 43.41,21.7 6.36,6.66 10.11,15.41 11.47,24.47 -12.5,-2.91 -25.41,-4.4 -38.17,-2.46 6.79,3.26 14.47,5.93 19.08,12.25 3.58,4.38 4.99,9.98 5.94,15.45 -10.72,-8.23 -22.7,-16 -36.55,-16.99 -8.99,-0.99 -17.54,2.67 -25.01,7.26 -10.02,-1.87 -21.01,-4.31 -30.47,0.78 12.41,4.32 26.19,7.77 35.06,18.25 -4.66,5.39 -9.29,11.12 -10.89,18.26 8.19,-4.44 16.13,-10.25 25.71,-11.05 7.35,-1.2 14.46,1.72 20.86,5.07 -16.86,20.25 -44.61,24.15 -65.53,38.55 -16.93,11.11 -28.97,28.38 -36.49,46.96 9.43,1.48 19.69,2.8 27.03,9.56 7.81,7.01 9.56,18.78 6.76,28.49 -5.18,12.75 -17.47,21.05 -30.09,25.3 -16.06,5.94 -34.1,3.52 -49.62,11.27 -5,1.97 -8.23,6.4 -12.2,9.74 -13.67,1.56 -29.12,-3.37 -37.08,-15.15 -6.8,-10.57 -7.87,-23.92 -5.62,-36.03 3.87,-18.56 13.54,-36.27 28.44,-48.19 17.14,-12.86 29.08,-31.07 40.23,-49.05 19.29,-32.76 34.13,-68.5 40.97,-106.02 4.51,-23.85 4.44,-48.55 -0.27,-72.36zm-141.58 7.39c5.05,-3.3 8.34,-8.5 12.12,-13.09 -1.83,12.21 -9.57,23.3 -21.34,27.64 2.71,1.41 5.39,2.84 8.12,4.3 -5.87,0.73 -11.81,0.71 -17.62,1.66 -3.87,4.75 -6.84,12.08 -3.28,17.79 4.34,8.9 9.05,17.72 11.49,27.39 -7.37,-10.63 -14.97,-21.06 -24.31,-30.07 4.17,-9.05 5.53,-20.02 13.75,-26.57 5.76,-5.6 14.59,-4.77 21.07,-9.05zm-574.82 -13.94c35.47,-9.38 72.15,-14.08 108.8,-15.57 45.77,-1.1 92.8,2.5 135.72,19.55 -37.98,-2.1 -76.14,1.16 -113.49,8.13 4.4,8.19 9.89,15.77 14.15,24.04 -79.54,1.56 -159.52,12.17 -234.95,38.25 -42.91,15.01 -84.5,34.89 -121.09,62.07 -9.6,7.45 -19.42,14.82 -27.33,24.15 21.94,-3.35 44.17,-5.18 66.36,-5.41 -5.45,2.86 -11.27,4.84 -17.06,6.82 -90.54,32.8 -175.72,78.69 -257.17,129.72 1.72,-7.58 0.39,-16.86 5.34,-23.24 72.28,-63.45 150.07,-121.14 234.49,-167.51 52.86,-28.95 108.37,-53.46 166.33,-70.24 39.79,-11.36 80.85,-19.53 122.36,-19.53 -26.5,-8.87 -54.94,-8.34 -82.46,-11.23zm727.37 -20.71c10.73,5.24 20.65,13.75 23.78,25.71 -7.13,-2.87 -13.85,-6.57 -20.6,-10.22 -1.31,-5.11 -2.4,-10.27 -3.18,-15.49z"/>
   <path class="fil3" d="M1480.31 429.16c8.55,-1.58 18.11,-0.57 25.39,4.53 4.45,2.94 5.58,8.59 7.77,13.15 5.1,12.4 13.1,23.67 23.9,31.75 -9.65,-1.33 -18.76,-4.82 -27.66,-8.59 2.75,3.87 5.68,7.58 8.67,11.29 -6.07,-1.96 -13.03,-2.09 -18.23,-6.11 -5.62,-4.19 -11.96,-7.2 -18.32,-10.02 2.04,3.43 4.17,6.86 6.27,10.29 -7.03,-2.29 -16.4,2.3 -21.26,-4.73 -6.74,-6.87 -8.65,-18.07 -3.87,-26.55 3.74,-6.74 9.35,-13.5 17.34,-15.01zm156.19 800.82c8.95,4.74 16.03,12.08 23.81,18.44 6.22,5.24 12.74,10.46 17.14,17.43 3.12,4.72 4.87,10.23 8.04,14.95 3.22,3.28 8.13,0.21 11.98,-0.17 0.04,9.83 5.52,19.6 2.57,29.37 -4.46,7.6 -14.65,4.7 -21.77,4.06 -3.6,-13.24 -5.45,-26.9 -9.39,-40 -8.38,-16.31 -22.75,-28.61 -32.38,-44.08zm-36.5 -9.56c11.62,6.8 18.4,19.01 27.98,28.13 9.7,8.21 6.52,22.38 13.37,32.23 4.69,8.31 13.05,13.39 21.43,17.35 0,6.63 0.31,13.26 0.63,19.91 -11.6,0.46 -23.81,-4.04 -30.49,-13.91 -10.2,-14.53 -10.63,-33.08 -10.41,-50.15 -6.95,-11.54 -16.09,-21.69 -22.51,-33.56zm348.4 -79.96c4.57,4.17 7.47,9.69 11.01,14.7 3.6,5.13 10.36,5.83 15.89,7.68 0.95,8.7 1.79,17.43 2.47,26.17 -8.68,1.92 -19.5,2.19 -25.16,-6 -8.51,-12.88 -1.14,-28.51 -4.21,-42.55zm-497.5 -61.15c10.32,0.02 20.66,-0.21 31.01,-0.09 -2.73,0.4 -5.45,0.8 -8.14,1.24 16.46,22.21 33.47,44.36 45.13,69.58 4.45,9.81 9.37,19.66 17.29,27.2 3.47,-3.28 6.97,-6.52 10.48,-9.75 4.23,19.54 9.94,38.99 20.06,56.38 9.73,17.54 25.42,32.34 45.21,37.52 0.16,10.86 0.99,21.75 3.47,32.36 -7.52,6.02 -17.9,5.13 -26.23,1.37 -9.31,-3.31 -15.54,-11.41 -21.66,-18.7 -18.51,-22.67 -30.99,-50.95 -31.65,-80.48 -1.85,1.96 -3.62,3.98 -5.39,6 -6.29,-11.35 -13.09,-22.57 -16.9,-35.06 -5.67,-18.96 -19.16,-33.97 -31.07,-49.24 -10.19,-13.07 -21.6,-25.15 -31.61,-38.33zm224.21 -91.98c9.98,5.53 20.28,11.95 27.71,20.54 -3.35,3.31 -10.17,1.69 -14.8,1.52 -10.69,-1.18 -10.93,-14 -12.91,-22.06zm-482.12 -36.04c2.06,-12.91 4.61,-25.77 6.88,-38.66 13.65,10.72 27.2,21.56 41.48,31.46 -3.1,9.07 -6.28,18.1 -9.43,27.15 -12.85,-6.9 -26.07,-13.07 -38.93,-19.95zm473.2 -103.92c4.19,-2.09 8.99,-1.52 13.43,-0.61 -7.14,9.54 -14.3,19.64 -16.74,31.54 -1.66,6.98 -0.56,14.14 0.32,21.13 -5.01,-2.38 -10.07,-4.61 -15.24,-6.61 2.77,5.86 6.4,11.46 11.77,15.29 22.25,16.21 42.71,34.78 62.63,53.74 23.15,22.72 45.98,46.61 61.47,75.37 4.61,7.22 2.34,15.88 2.88,23.88 0.3,9.68 6.34,19.24 15.5,22.77 9.49,3.82 19.92,2.28 29.75,0.91 2.25,16.02 5.11,33.58 17.2,45.39 7.28,5.94 16.84,8.08 24.44,13.6 5.79,5.11 12.86,-0.88 18.92,-2.49 1.84,8 4.4,16.74 11.63,21.58 9.32,6.89 21.57,5.62 32.31,3.73 -0.71,7.79 -1.83,15.54 -3.73,23.14 -13.01,3.68 -28.52,6.25 -40.37,-1.96 -8.68,-6 -11.37,-16.82 -12.72,-26.67 -3.64,3.76 -7.28,7.51 -10.67,11.47 -4.34,-8.28 -10.32,-16.61 -19.69,-19.45 -17.91,-6.26 -27.45,-24.57 -31.87,-41.88 -13.01,1.25 -26.9,-1.34 -37.45,-9.39 -8.89,-6.97 -14.05,-17.89 -15.56,-28.95 -0.99,-6.01 -0.4,-12.62 -4.17,-17.8 -12.19,-19.54 -28.78,-35.88 -45.79,-51.23 -30.95,-27.32 -65.37,-50.35 -100.59,-71.72 1.58,3.22 3.16,6.42 4.76,9.66 -15.22,-1.58 -30.61,-5.58 -43.05,-14.86 28.61,-4.7 54.78,-23.73 66.04,-50.76 4.36,-12.11 12.86,-23.12 24.59,-28.82zm104.14 -60.04c21.73,2.04 44.36,4.21 65.5,-2.74 -8.31,12.34 -26.13,20.3 -39.89,12.32 -8.19,-4.09 -16.99,-6.68 -25.61,-9.58zm-546.44 -7.98c24.78,-5.03 50.4,-5.06 75.41,-1.77 -5.28,15.03 -10.31,30.17 -15.87,45.12 -20.8,-7.75 -42.65,-12.61 -64.76,-14.42 1.69,-9.65 3.44,-19.29 5.22,-28.93zm-306.04 0.78c0.59,-3.85 1.18,-7.67 1.77,-11.5 6.34,8.78 17.39,12.59 25.62,19.39 -3.33,17.33 -5.72,34.82 -8.92,52.15 -26.59,-14.28 -52.81,-29.35 -80.22,-42 1.04,-5.96 1.27,-12.17 3.37,-17.87 19.44,-0.28 38.91,0.14 58.38,-0.17zm-371.87 -23.62c5.62,-3.79 11.79,-6.68 18.04,-9.31 -0.57,2.51 -1.16,5.05 -1.73,7.56 -5.43,0.63 -10.86,1.39 -16.31,1.75zm1132.59 2.25c4.12,-14.28 18.75,-21.73 32.31,-24.49 4.55,10.17 11.94,19.23 21.64,24.89 8.38,3.24 17.58,3.32 26.26,5.47 -11.14,0.3 -22.47,0.72 -32.93,4.95 -6.02,2.9 -12.76,0.1 -19.01,1.68 -6.63,1.06 -12.34,4.76 -17.64,8.64 -7.39,-3.94 -14.15,-12.42 -10.63,-21.14zm-976.26 -28.38l0.22 0.02c10.16,-0.44 20.9,4.06 30.61,0.15 -1.56,8.82 -3.08,17.66 -4.7,26.5 -9.87,-1.74 -19.79,-3.03 -29.73,-4.16 1.21,-7.5 2.53,-14.99 3.6,-22.51zm900.32 -8.04c12.84,11.34 30.84,14.33 43.54,25.94 14.17,11.62 19.85,30.39 19.98,48.16 -3.18,-6.78 -6.72,-13.74 -12.95,-18.25 1.49,10.15 3.26,20.57 0.86,30.74 -2.04,10.54 -9.28,18.94 -12.61,28.96 -1.96,5.75 -1.39,11.9 -1.18,17.86 -7.81,-9.29 -13.49,-20.91 -12.67,-33.33 -3.5,5.29 -6.27,11.35 -4.68,17.87 1.88,11.14 -0.63,23.16 -9.15,31.06 -2.17,-14 -6.47,-27.6 -12.53,-40.38 -7.91,34.48 -21.98,69.07 -47.75,94.11 -18.61,18.2 -45.41,27.32 -71.26,24 22.8,-10.05 47.05,-24.81 55.35,-49.77 -15.01,15.11 -34.17,27.17 -55.67,29.68 0.15,-55.75 -0.33,-111.52 0.24,-167.26 7.56,12.97 18.67,25.68 34.23,28.36 21.6,3.62 42.34,-7.31 58.95,-20.07 5.15,-2.82 2.88,-9.05 2.9,-13.75 21.6,10.59 46.32,24.49 51.83,50.01 0.51,-6.66 1.26,-13.58 -0.84,-20.07 -3.03,-9.89 -10.76,-17.18 -16.19,-25.7 -6.32,-9.58 -8.69,-21.04 -10.82,-32.13 0.04,-2.02 0.19,-4.04 0.42,-6.04zm316.42 -61.18c4.44,2.17 8.34,6.04 8.49,11.28 1.47,18.74 -8.89,40.65 -28.28,45.56 -7.22,2.99 -11.39,11.1 -19.37,12.65 -14.65,2.87 -29.07,-5.74 -43.7,-2 -3.24,0.91 -5.46,3.62 -7.86,5.79 4.62,2.53 9.14,5.25 13.46,8.32 -19.85,3.09 -39.77,6.04 -59.2,11.28 -23.05,8.78 -51.96,-6.31 -58.74,-29.6 8.21,-16.1 20.51,-30.14 35.5,-40.25 7.24,18.59 20.99,36.8 40.75,42.76 9.73,-2.57 18.02,-8.8 26.43,-14.09 -4.09,-3.24 -8.17,-6.5 -12.17,-9.81 9.24,1.44 18.38,3.81 27.77,4.38 7.87,0.4 15.32,-2.76 23.07,-3.49 3.85,1.87 6.57,-0.23 8.74,-3.35 2.82,-1.47 5.78,-2.63 8.75,-3.79 0.51,-0.21 1.5,-0.59 2,-0.8 0.76,-0.52 2.26,-1.58 3.01,-2.1 4.34,-3.23 9.06,-5.94 14,-8.19 0.89,2.4 0.89,6.17 4.05,6.84 3.85,1.93 7.62,-3.6 4.9,-6.59 -1.77,-3.05 -5.37,-1.39 -8.08,-1.33 6.08,-7.37 12.21,-14.84 16.48,-23.47zm-30.4 39.26l0 0c-2.14,2.65 1.43,4.21 2.82,6.02 1.31,-1.51 2.63,-3.01 3.96,-4.5 -1.94,-0.8 -5.24,-4.72 -6.78,-1.52zm-19.83 14.4l0 0c-1.07,1.12 -3.85,6.15 -0.04,5.18 4.36,0.99 5.41,-9.24 0.04,-5.18z"/>
   <path class="fil4" d="M101.28 442.72c102.74,-0.26 205.5,-0.02 308.24,-0.11 26.77,0.72 53.93,1.03 79.97,8 16.91,4.59 33.44,13.2 44.22,27.39 11.36,14.49 15.36,33.41 15.24,51.49 -0.91,24.55 -6.36,48.59 -10.17,72.78 -4.88,28.83 -9.69,57.67 -14.51,86.53 -30.19,0.06 -60.38,-0.12 -90.59,0.07 10.4,6.04 21.77,10.41 31.54,17.55 20.7,14.07 37.41,35.79 40.95,61.06 2.06,11.43 0.46,23.05 -1.52,34.39 -6.78,40.68 -13.66,81.35 -20.52,122.01 -3.73,21.19 -7.81,42.5 -15.96,62.5 -6.76,16.55 -17.26,32.06 -32.02,42.46 -12.78,9.39 -28.04,14.76 -43.43,18.11 -26.34,5.56 -53.39,5.94 -80.21,6.61 -27.42,-0.02 -54.97,0.48 -82.22,-3.07 -22.08,-2.99 -45.09,-8.91 -62.02,-24.19 -13.51,-11.86 -20.61,-29.56 -22.17,-47.2 -1.45,-17.65 0.62,-35.35 3.23,-52.8 8.8,-52.32 17.36,-104.7 26.1,-157.04 26.19,0.03 52.36,0.02 78.55,0.02 -27.6,-12.73 -53.05,-35.34 -59.83,-66.08 -4.93,-17.11 -0.13,-34.61 2.17,-51.72 4.4,-27.33 8.8,-54.66 13.58,-81.94 4.06,-21.96 8.71,-44.11 18.27,-64.44 -41.75,-21.88 -84.7,-41.37 -126.89,-62.38zm1286.55 310.5c3.9,-0.08 7.83,-0.14 11.79,-0.15 -2.88,65.18 -5.75,130.36 -8.13,195.54 -19.36,0.42 -38.71,0.09 -58.04,0.19 18.13,-65.2 36.42,-130.34 54.38,-195.58zm-38.8 183.66l0 0c10.29,0.03 20.59,0.01 30.89,0.01 1.93,-43.1 3.68,-86.21 5.43,-129.31 -12.72,42.91 -24.09,86.23 -36.32,129.3zm-107.64 -227.09c74.93,-0.1 149.85,0 224.78,-0.04 -0.19,94.92 0.88,189.81 0.48,284.74 0.84,23.01 0.38,46.04 0.48,69.07 -32.21,0 -64.44,0 -96.65,0 1.73,-23.5 3.6,-46.99 4.93,-70.49 -13.56,0.01 -27.12,0.05 -40.67,-0.02 -6.38,23.46 -12.89,46.89 -19.08,70.42 -33.22,0.19 -66.44,0.05 -99.66,0.07 36.82,-106.28 73.66,-212.55 110.5,-318.84 -28.35,-11.69 -56.94,-22.8 -85.11,-34.91zm53.18 11.5l0 0c14.84,7.4 30.52,12.99 45.75,19.51 -35.82,103.62 -71.75,207.22 -107.73,310.78 24.63,0.17 49.28,0.02 73.93,0.08 6.45,-23.49 12.78,-46.99 19.2,-70.48 20.81,-0.02 41.63,0.02 62.45,-0.02 -1.44,23.53 -3.35,46.99 -4.91,70.5 23.85,-0.06 47.71,0.09 71.56,-0.08 -0.11,-109.94 -0.06,-219.9 -0.02,-329.87 -53.41,-0.63 -106.82,-0.68 -160.23,-0.42zm-320.42 -13.94c35.7,0.02 71.41,0.06 107.11,-0.02 6.32,57.05 11.92,114.19 18.63,171.2 9.62,-57.06 19.29,-114.13 29.06,-171.2 29.45,0.08 58.9,0.04 88.36,0.04 -20.11,118.11 -40.24,236.23 -60.57,354.32 -33.46,-0.07 -66.91,-0.07 -100.36,0 -7.24,-56.95 -14.04,-113.96 -21.47,-170.87 -11.1,56.76 -19.61,114.06 -30.09,170.95 -30.19,-0.29 -60.36,-0.04 -90.55,-0.11 20.04,-118.1 39.83,-236.21 59.88,-354.31zm9.91 11.91l0 0c-18.46,110.19 -37.35,220.28 -55.66,330.51 22.02,-0.19 44.08,0.29 66.1,-0.21 0.21,-0.42 0.64,-1.28 0.85,-1.69 13.16,-83.81 25.53,-167.78 39.03,-251.53 11.2,84.42 21.73,168.94 32.55,253.41 26.67,0 53.34,0 80,0 18.67,-110.19 37.66,-220.34 56.39,-330.51 -21.51,0.09 -43.01,0.02 -64.52,0.04 -13.68,82.43 -26.95,164.95 -41.05,247.31 -9.54,-82.38 -18.02,-164.88 -27.18,-247.3 -28.84,-0.05 -57.67,0.04 -86.51,-0.03zm-232.67 -11.81c54.55,-0.02 109.13,-0.35 163.68,0.17 -3.37,18.78 -6.54,37.6 -9.77,56.42 -19.62,0.02 -39.24,-0.04 -58.84,0.02 -3.93,25.12 -8.86,50.09 -12.29,75.29 19.49,-0.15 38.95,-0.07 58.44,-0.04 -3.03,18.84 -6.63,37.6 -9.56,56.46 -19.66,0.36 -39.3,0.1 -58.95,0.15 -6.1,36.38 -12.65,72.71 -18.4,109.15 19.52,-0.18 39.06,0 58.59,-0.1 -3.2,18.9 -6.59,37.75 -9.74,56.67 -54.32,-0.08 -108.65,0.23 -162.95,-0.16 19.98,-117.99 39.92,-236 59.79,-354.03zm10.13 11.84l0 0c-18.68,110.14 -37.25,220.31 -55.82,330.46 43.5,0.04 87.01,-0.07 130.49,0.06 2.76,-0.34 6.02,0.61 8.5,-0.86 2.21,-10.63 3.69,-21.39 5.6,-32.07 -19.58,-0.08 -39.19,0.24 -58.79,-0.18 7.72,-44.15 15.21,-88.34 22.61,-132.55 19.57,-0.4 39.15,0.19 58.71,-0.25 2.57,-10.78 3.79,-21.84 5.94,-32.7 -19.6,-0.08 -39.2,0.04 -58.8,-0.08 5.54,-32.97 11.13,-65.96 16.61,-98.95 19.6,-0.06 39.18,-0.06 58.78,0 2.04,-10.93 3.79,-21.9 5.77,-32.86 -46.53,-0.07 -93.06,-0.03 -139.6,-0.02zm-174.66 -11.77c34.42,-0.4 68.84,0.04 103.26,-0.21 -19.53,118.17 -39.74,236.23 -59.68,354.33 -34.65,0.02 -69.3,0.04 -103.96,0 19.63,-116.99 39.5,-233.96 59.18,-350.95 0.3,-0.79 0.91,-2.37 1.2,-3.17zm9.39 11.79l0 0c-18.54,110.16 -37.13,220.31 -55.77,330.44 26.72,0 53.44,0 80.17,0 18.53,-110.15 37.2,-220.3 55.77,-330.46 -26.72,-0.03 -53.45,-0.03 -80.17,0.02zm1208.19 -146.76c7.14,-1.62 13.98,2.15 20.13,5.39 0.27,7.24 -5.16,14.59 -12.99,13.64 -9.07,-0.19 -14,-13.28 -7.14,-19.03zm9.5 2.48l0 0c-0.99,3.37 -2.91,5.96 -6.76,6.11 2.17,1.87 5.58,5.24 8.4,2.36 3.35,-2.47 0.8,-6.49 -1.64,-8.47zm-1624.11 -111.68l0 0c22.89,10.71 46,20.94 69.07,31.28 -21.49,26.65 -25.72,61.96 -31.59,94.53 -4.74,27.13 -8.93,54.33 -13.81,81.43 -2.89,15.47 -0.87,32.13 7.3,45.73 8.9,15.26 23.81,25.89 39.45,33.39 24.32,11.81 48.72,23.47 73.05,35.22 5.69,2.99 11.67,5.93 16.05,10.75 3.43,3.9 1.74,9.44 1.26,14.05 -6.78,39.53 -13.75,79.03 -20.5,118.55 -0.87,4.54 -1.61,9.26 -4,13.32 -4.34,7.31 -14.97,7.52 -21.79,3.88 -5.04,-2.81 -2.7,-9.14 -2.03,-13.63 8.17,-47.34 15.98,-94.73 23.9,-142.1 -44.51,0.02 -89.03,-0.05 -133.54,0.04 -5.91,36.38 -12,72.74 -18.06,109.09 -3.64,22.87 -8.38,45.69 -8.82,68.93 0,13.39 2.63,27.47 11.07,38.23 8.59,10.97 21.79,17.1 35.01,20.49 20.4,5.2 41.58,5.95 62.51,6.56 27.94,-0.12 55.96,0.68 83.85,-1.76 21.3,-1.98 43.49,-4.97 62.02,-16.45 15.22,-9.22 25.01,-25.07 30.93,-41.47 8.55,-23.94 12.35,-49.18 16.54,-74.15 5.84,-34.37 11.6,-68.76 17.39,-103.13 2.05,-11.41 2.95,-23.35 -0.75,-34.51 -6.28,-20.61 -23.31,-35.87 -41.81,-45.74 -27.71,-13.84 -56.11,-26.28 -83.64,-40.47 -7.86,-3.39 -11.4,-11.91 -9.46,-20.1 4.61,-29.27 10.11,-58.42 14.91,-87.65 1.11,-5.57 1.95,-11.85 6.42,-15.85 5.26,-4.19 12.84,-4.15 18.95,-2 5.53,2.38 3.39,9.45 3.09,14.11 -5.85,34.75 -12.04,69.45 -18.36,104.12 43.45,0.65 86.91,0.15 130.36,0.24 3.03,0.84 2.57,-3.23 3.24,-4.93 3.56,-22.25 7.5,-44.42 11.12,-66.65 3.3,-20.99 7.95,-41.82 9.34,-63.08 0.74,-14.12 -0.69,-29.2 -8.82,-41.2 -8.04,-12.38 -22.14,-19.11 -35.99,-22.78 -21.12,-5.32 -43.02,-6.15 -64.68,-6.57 -76.4,0.22 -152.8,-0.37 -229.18,0.28z"/>
   <path class="fil5" d="M189.83 463.35c76.38,-0.65 152.78,-0.06 229.18,-0.28 21.66,0.42 43.56,1.25 64.68,6.57 13.85,3.67 27.95,10.4 35.99,22.78 8.13,12 9.56,27.08 8.82,41.2 -1.39,21.26 -6.04,42.09 -9.34,63.08 -3.62,22.23 -7.56,44.4 -11.12,66.65 -0.67,1.7 -0.21,5.77 -3.24,4.93 -43.45,-0.09 -86.91,0.41 -130.36,-0.24 6.32,-34.67 12.51,-69.37 18.36,-104.12 0.3,-4.66 2.44,-11.73 -3.09,-14.11 -6.11,-2.15 -13.69,-2.19 -18.95,2 -4.47,4 -5.31,10.28 -6.42,15.85 -4.8,29.23 -10.3,58.38 -14.91,87.65 -1.94,8.19 1.6,16.71 9.46,20.1 27.53,14.19 55.93,26.63 83.64,40.47 18.5,9.87 35.53,25.13 41.81,45.74 3.7,11.16 2.8,23.1 0.75,34.51 -5.79,34.37 -11.55,68.76 -17.39,103.13 -4.19,24.97 -7.99,50.21 -16.54,74.15 -5.92,16.4 -15.71,32.25 -30.93,41.47 -18.53,11.48 -40.72,14.47 -62.02,16.45 -27.89,2.44 -55.91,1.64 -83.85,1.76 -20.93,-0.61 -42.11,-1.36 -62.51,-6.56 -13.22,-3.39 -26.42,-9.52 -35.01,-20.49 -8.44,-10.76 -11.07,-24.84 -11.07,-38.23 0.44,-23.24 5.18,-46.06 8.82,-68.93 6.06,-36.35 12.15,-72.71 18.06,-109.09 44.51,-0.09 89.03,-0.02 133.54,-0.04 -7.92,47.37 -15.73,94.76 -23.9,142.1 -0.67,4.49 -3.01,10.82 2.03,13.63 6.82,3.64 17.45,3.43 21.79,-3.88 2.39,-4.06 3.13,-8.78 4,-13.32 6.75,-39.52 13.72,-79.02 20.5,-118.55 0.48,-4.61 2.17,-10.15 -1.26,-14.05 -4.38,-4.82 -10.36,-7.76 -16.05,-10.75 -24.33,-11.75 -48.73,-23.41 -73.05,-35.22 -15.64,-7.5 -30.55,-18.13 -39.45,-33.39 -8.17,-13.6 -10.19,-30.26 -7.3,-45.73 4.88,-27.1 9.07,-54.3 13.81,-81.43 5.87,-32.57 10.1,-67.88 31.59,-94.53 -23.07,-10.34 -46.18,-20.57 -69.07,-31.28zm1148.72 575.37c5.93,2.04 12.4,3.22 17.55,6.97 0.09,6.25 -0.65,12.48 -0.96,18.73 -7.9,0.09 -15.79,0.11 -23.67,0.11 2.19,-8.64 4.61,-17.24 7.08,-25.81zm-317.79 25.79c3.56,-22.81 7.16,-45.65 11.77,-68.26 3.19,22.57 5.05,45.29 8.21,67.86 -6.64,0.46 -13.31,0.54 -19.98,0.4zm168.16 -91.35c12.28,5.37 24.05,11.79 36.09,17.7 -8.4,24.59 -17.03,49.08 -25.58,73.62 -9.03,0.03 -18.06,0.22 -27.05,-0.29 5.83,-30.29 11.07,-60.69 16.54,-91.03zm-287.11 -98.57c9.03,3.58 18.23,6.7 27.12,10.61 -10.45,59.71 -20.17,119.54 -30.43,179.28 -9.76,0.05 -19.51,0.11 -29.24,-0.12 4.34,-24.23 8.59,-48.49 12.44,-72.82 -19.57,0.15 -39.13,0.31 -58.69,-0.07 4.51,-26.42 9.12,-52.82 13.45,-79.26 19.56,-0.13 39.12,-0.08 58.7,-0.02 2.5,-12.48 4.38,-25.09 6.65,-37.6zm-255.75 189.89c16.13,-94.73 31.67,-189.57 48.21,-284.21 9.9,0.61 19.75,1.86 29.54,3.48 -14.67,90.59 -30.59,181.01 -45.49,271.58 -0.64,2.99 -0.76,6.27 -2.34,8.99 -9.96,0.59 -19.96,0.02 -29.92,0.16zm-112.12 -285.26c8.19,-0.9 16.4,-1.47 24.63,-1.94 -16.19,95.75 -32.25,191.52 -48.57,287.25 -28.57,-0.21 -57.16,0.31 -85.71,-0.24 16.28,-5.49 31.54,-14.21 43.2,-27 17.92,-18.53 28.15,-42.99 34.61,-67.59 7.65,-29.51 11.5,-59.8 16.68,-89.78 5.2,-33.54 11.35,-66.97 15.16,-100.7zm790.16 176.63c19.65,-69.77 38.93,-139.64 58.4,-209.49 8.11,0 16.23,0 24.36,0.04 -3.01,69.89 -5.85,139.79 -8.84,209.69 -24.65,-0.19 -49.3,0.29 -73.92,-0.24zm63.73 -202.63l0 0c-17.96,65.24 -36.25,130.38 -54.38,195.58 19.33,-0.1 38.68,0.23 58.04,-0.19 2.38,-65.18 5.25,-130.36 8.13,-195.54 -3.96,0.01 -7.89,0.07 -11.79,0.15zm-93.26 -31.93c53.41,-0.26 106.82,-0.21 160.23,0.42 -0.04,109.97 -0.09,219.93 0.02,329.87 -23.85,0.17 -47.71,0.02 -71.56,0.08 1.56,-23.51 3.47,-46.97 4.91,-70.5 -20.82,0.04 -41.64,0 -62.45,0.02 -6.42,23.49 -12.75,46.99 -19.2,70.48 -24.65,-0.06 -49.3,0.09 -73.93,-0.08 35.98,-103.56 71.91,-207.16 107.73,-310.78 -15.23,-6.52 -30.91,-12.11 -45.75,-19.51zm32.27 7.17l0 0c7.29,3.2 14.95,5.48 22.42,8.26 -35.79,102.71 -71.34,205.51 -106.97,308.29 19.64,-0.06 39.25,0 58.87,-0.04 6.29,-23.48 12.82,-46.91 19.09,-70.4 25.12,-0.19 50.26,0.08 75.41,-0.13 -1.49,23.48 -3.41,46.95 -4.92,70.45 19.11,0.21 38.23,0.04 57.36,0.08 -0.17,-49.75 0.34,-99.52 -0.27,-149.28 -0.52,-55.79 -0.02,-111.6 -0.25,-167.39 -40.25,0.16 -80.49,-0.17 -120.74,0.16zm-342.78 -9.2c28.84,0.07 57.67,-0.02 86.51,0.03 9.16,82.42 17.64,164.92 27.18,247.3 14.1,-82.36 27.37,-164.88 41.05,-247.31 21.51,-0.02 43.01,0.05 64.52,-0.04 -18.73,110.17 -37.72,220.32 -56.39,330.51 -26.66,0 -53.33,0 -80,0 -10.82,-84.47 -21.35,-168.99 -32.55,-253.41 -13.5,83.75 -25.87,167.72 -39.03,251.53 -0.21,0.41 -0.64,1.27 -0.85,1.69 -22.02,0.5 -44.08,0.02 -66.1,0.21 18.31,-110.23 37.2,-220.32 55.66,-330.51zm5.9 7.16l0 0c-17.92,105.37 -35.5,210.8 -53.48,316.17 17.54,0.06 35.1,-0.04 52.66,0.06 14.16,-91.37 28.16,-182.75 42.19,-274.12 2.16,-0.13 4.31,-0.28 6.48,-0.42 11.87,91.45 24.17,182.84 35.24,274.38 22.67,0.25 45.31,0.06 67.96,0.1 18.11,-105.31 35.87,-210.7 54.15,-316 -16.82,-0.38 -33.64,-0.06 -50.44,-0.17 -14.89,89.85 -29.65,179.73 -44.59,269.58 -2.13,-0.06 -4.24,-0.1 -6.34,-0.11 -9.88,-89.8 -19.64,-179.6 -29.41,-269.41 -24.8,-0.14 -49.62,0 -74.42,-0.06zm-228.44 -7.13c46.54,-0.01 93.07,-0.05 139.6,0.02 -1.98,10.96 -3.73,21.93 -5.77,32.86 -19.6,-0.06 -39.18,-0.06 -58.78,0 -5.48,32.99 -11.07,65.98 -16.61,98.95 19.6,0.12 39.2,0 58.8,0.08 -2.15,10.86 -3.37,21.92 -5.94,32.7 -19.56,0.44 -39.14,-0.15 -58.71,0.25 -7.4,44.21 -14.89,88.4 -22.61,132.55 19.6,0.42 39.21,0.1 58.79,0.18 -1.91,10.68 -3.39,21.44 -5.6,32.07 -2.48,1.47 -5.74,0.52 -8.5,0.86 -43.48,-0.13 -86.99,-0.02 -130.49,-0.06 18.57,-110.15 37.14,-220.32 55.82,-330.46zm5.83 7.11l0 0c-17.79,105.39 -35.67,210.78 -53.33,316.21 41.58,0.02 83.18,-0.06 124.76,0.04 1.16,-6.37 2.25,-12.73 3.3,-19.09 -19.55,0.02 -39.11,-0.02 -58.65,0.02 8.17,-48.72 16.72,-97.39 24.74,-146.15 19.66,-0.17 39.34,0.06 58.99,-0.12 1.09,-6.36 2.21,-12.7 3.18,-19.06 -19.52,0.17 -39.06,0.05 -58.59,0.05 6.27,-37.63 12.65,-75.23 18.92,-112.87 19.6,0.07 39.2,0.02 58.82,0.04 1.16,-6.33 2.23,-12.67 3.33,-18.99 -41.81,-0.16 -83.64,0.01 -125.47,-0.08zm-171.1 -7.09c26.72,-0.05 53.45,-0.05 80.17,-0.02 -18.57,110.16 -37.24,220.31 -55.77,330.46 -26.73,0 -53.45,0 -80.17,0 18.64,-110.13 37.23,-220.28 55.77,-330.44zm5.9 7.05l0 0c-17.81,105.41 -35.58,210.84 -53.39,316.27 22,-0.06 44,0.02 66,-0.04 17.87,-105.35 35.49,-210.76 53.47,-316.1 -22.02,-0.2 -44.06,0.06 -66.08,-0.13zm1343.93 -84.17c4.28,-0.06 8.59,0.36 12.78,1.37 -2.04,9.77 -7.43,18.52 -14.1,25.83 2.82,-7.37 5.81,-14.7 7.58,-22.42 -2.15,-1.58 -4.21,-3.14 -6.26,-4.78zm-13.22 -5.47c5.33,-8.76 16.28,-8.82 24.78,-5.27 0.21,3.08 0.42,6.17 0.67,9.27 -7.89,-4.11 -16.71,-5.18 -25.45,-4zm-1693.39 -161.64l0 0c14.03,5.4 28.4,9.85 42.53,15 -7.31,5.86 -14.69,12 -19.62,20.11 -11.22,17.96 -15.54,39.09 -19.64,59.58 -6.09,34.25 -11.65,68.59 -17.14,102.95 -1.6,8.73 -2.13,17.91 0.71,26.46 5.12,17.85 20.43,30.44 36.39,38.55 25.64,12.44 51.34,24.71 76.98,37.15 5.65,2.97 11.35,6.07 16.13,10.41 5.75,5.17 8.82,13.36 7.09,21.01 -7.19,42.06 -14.29,84.12 -21.43,126.18 -1.26,7.52 -3.66,15.39 -9.41,20.74 -8.48,7.58 -21.58,7.96 -31.68,3.64 -8.06,-3.49 -12.72,-12.99 -10.76,-21.51 7.39,-44.53 14.88,-89.06 22.49,-133.56 -36.38,-0.34 -72.76,0.02 -109.14,-0.19 -6.84,39.12 -12.97,78.36 -19.62,117.5 -2.87,16.1 -5.25,32.35 -5.67,48.71 -0.04,12.09 2.17,25.31 11.06,34.23 9.16,8.7 21.76,12.3 33.87,14.63 25.24,4.43 50.97,4.64 76.53,4.51 26.12,0.15 52.38,-0.15 78.23,-4.3 17.39,-2.86 35.49,-8.5 47.87,-21.74 15.79,-17.64 20.28,-41.85 24.87,-64.3 7.41,-41.47 14.08,-83.05 21.19,-124.57 2.13,-13.91 6.19,-28.44 1.35,-42.25 -5.91,-18.44 -22.29,-30.94 -38.92,-39.32 -24.55,-11.73 -49.08,-23.46 -73.65,-35.14 -7.66,-3.9 -15.79,-8.4 -20.08,-16.19 -4.02,-7.77 -2.8,-16.95 -1.64,-25.28 4.9,-28.09 9.73,-56.2 14.59,-84.32 1.14,-6.55 2.97,-13.29 7.39,-18.44 8.14,-9.73 23.11,-10.97 34.23,-6.21 7.39,3.07 11.96,11.39 10.5,19.28 -4.94,32.74 -10.82,65.37 -16.31,98.04 36.04,0.02 72.08,-0.16 108.13,0.07 5.72,-31.96 10.6,-64.07 16.33,-96.04 2.57,-18.28 6.69,-37.84 -0.31,-55.65 -5.58,-14.21 -20.66,-21.13 -34.62,-24.27 -26.94,-5.86 -54.71,-5.58 -82.14,-5.56 -52.23,0.08 -104.46,-0.13 -156.68,0.09z"/>
  </g>
 </g>
</svg>
