<?xml version="1.0" encoding="UTF-8"?>
<!DOCTYPE svg PUBLIC "-//W3C//DTD SVG 1.1//EN" "http://www.w3.org/Graphics/SVG/1.1/DTD/svg11.dtd">
<!-- Creator: CorelDRAW -->
<svg xmlns="http://www.w3.org/2000/svg" xml:space="preserve" width="2000px" height="1600px" version="1.1" style="shape-rendering:geometricPrecision; text-rendering:geometricPrecision; image-rendering:optimizeQuality; fill-rule:evenodd; clip-rule:evenodd"
viewBox="0 0 2000 1600"
 xmlns:xlink="http://www.w3.org/1999/xlink">
 <defs>
  <style type="text/css">
   <![CDATA[
    .fil1 {fill:black;fill-rule:nonzero}
    .fil2 {fill:#6C5224;fill-rule:nonzero}
    .fil3 {fill:#A7855F;fill-rule:nonzero}
    .fil4 {fill:#CFAB79;fill-rule:nonzero}
    .fil5 {fill:#ED2C23;fill-rule:nonzero}
    .fil0 {fill:#FEFEFE;fill-rule:nonzero}
   ]]>
  </style>
 </defs>
 <g id="Capa_x0020_1">
  <metadata id="CorelCorpID_0Corel-Layer"/>
  <g id="SIU_x0020_Edwardsville_x0020_Cougars.cdr">
   <path class="fil0" d="M1250.16 385.21c40.11,20.9 79.56,44.01 113.82,73.77 -20.7,9.4 -44.28,15.96 -66.93,10.29 -35.33,-8.38 -57.12,-49.93 -46.89,-84.06zm749.84 305.99l-2.32 -27.52c-53.54,27.73 -106.43,56.77 -159.91,84.61 -14.07,-4.78 -27.5,-11.41 -41.32,-16.88 -75.23,-31.77 -150.81,-62.86 -225.82,-95.11 -0.18,-0.35 -0.57,-1.05 -0.75,-1.41 -13.31,-2.31 -25.14,-9.84 -37.75,-14.5 0.96,2.62 2.21,5.11 3.84,7.41 12.5,18.2 24.7,36.62 36.97,54.98 28.93,8.48 57.19,19 85.39,29.59 58.25,22.23 115.63,46.73 172.54,72.22 2.48,1.8 5.11,0.71 7.43,-0.76 52.4,-30.15 104.99,-60 157.41,-90.1 1.08,-0.64 3.22,-1.91 4.29,-2.53z"/>
   <path class="fil1" d="M577.71 250.89c196.73,-51.98 402.77,-69.34 605.29,-48.94 172.42,17.29 342.14,61.22 501.5,129.24 69.02,29.72 136.51,63.44 199.89,103.88 9.1,5.16 11.26,17.89 5.14,26.19 -9.51,12.81 -19.8,25.01 -29.58,37.62 35.57,29.23 66.44,63.81 94.48,100.21 15.4,20.82 30.91,41.81 43.25,64.59 -53.54,27.73 -106.43,56.77 -159.91,84.61 -14.07,-4.78 -27.5,-11.41 -41.32,-16.88 -75.23,-31.77 -150.81,-62.86 -225.82,-95.11 -0.18,-0.35 -0.57,-1.05 -0.75,-1.41 -16.68,-31.55 -37.04,-61.17 -59.75,-88.71 -19.86,-23.1 -42.08,-45.69 -70.42,-58.06 -12.88,-5.85 -27.4,-7.19 -41.29,-5.17 -6.94,1.39 -14.11,5.03 -17.08,11.83 -3.52,7.98 -1.24,16.92 1.45,24.76 6.82,18.32 18.2,34.51 30.03,49.91 3.2,4.42 7.48,8.13 9.76,13.17 -67.08,-35.68 -143.28,-49.62 -218.26,-56.3 -95.25,-7.14 -191.21,-2.05 -285.58,12.2 -2.36,-0.41 -8.75,4.13 -7.41,-0.66 1.74,-0.1 5.21,-0.3 6.94,-0.39 46.48,-11.87 92.67,-24.97 137.89,-41.01 26.31,-9.49 52.51,-19.7 77.04,-33.19 13.66,-7.84 27.79,-16.37 36.86,-29.61 6.33,-9.12 4.44,-21.75 -2.34,-30.05 -10.21,-12.55 -25.69,-19.04 -40.56,-24.24 -37.32,-12.18 -76.69,-16.12 -115.63,-18.99 -8.4,-0.33 -16.8,-0.78 -25.2,-0.58 18.79,-4.42 38.12,-6.22 57.28,-8.4 60.03,-6.35 120.74,-7.02 180.82,-0.96 -2.92,-3.21 -7.21,-4.46 -10.93,-6.41 -69.95,-35.49 -144.81,-61.16 -221.62,-76.88 -131.4,-27.06 -267.82,-25.17 -399.51,-1.25 -37.07,7.04 -74.06,15.01 -110.1,26.23 -21.97,6.32 -43.58,13.76 -65.19,21.19 7.4,-0.37 14.34,-3.22 21.53,-4.84 74.2,-18.73 151.51,-23.97 227.72,-18.16 94.52,7.5 188.02,29.64 275.6,66.05 2.89,1.15 5.73,2.51 8.03,4.66 -47.77,7.54 -95.03,18.22 -141.98,29.89 -57.38,14.52 -114.03,32.01 -169.31,53.23 -8.24,3.1 -16.31,6.65 -24.73,9.3 -171,53.5 -328.09,146.4 -464.63,261.64 -48.32,41.05 -94.39,84.88 -136.56,132.24 -4.27,4.7 -7.86,10.06 -12.75,14.19l0 -3.16c3.02,-2.08 4.83,-5.32 6.55,-8.48 81.78,-147.59 197.74,-276.44 337.62,-371.06 61.15,-41.1 126.37,-76.96 195.98,-101.54 -1.75,-1.29 -3.78,-2.01 -5.86,-2.49 -69.95,-19.59 -142.84,-26.78 -215.27,-28.5 1.12,-1.56 2.54,-2.71 4.31,-3.45 81.39,-39.21 167.2,-68.6 254.38,-91.95zm974.98 1011.74c16.44,0.12 32.87,-0.02 49.31,0.04 11.89,0.53 24.91,2.73 33.64,11.6 8.44,9 10,22.35 8.11,34.11 -2.47,13.83 -12.96,25.16 -25.51,30.89 13.17,21.28 26.15,42.68 39.48,63.88 -10.17,0.3 -20.32,0.2 -30.46,0.04 -11.42,-19.95 -23.27,-39.64 -34.61,-59.63 -4.85,-0.22 -9.69,-0.22 -14.52,0.15 0.27,19.84 -0.04,39.68 0.17,59.52 -8.53,0.16 -17.05,0.04 -25.56,0.08 -0.05,-46.89 0.01,-93.78 -0.05,-140.68zm25.58 20.47l0 0c-0.1,13.04 0.05,26.1 -0.12,39.15 0.53,0.43 1.58,1.29 2.1,1.74 8.91,0.04 18.36,0.62 26.63,-3.3 14.81,-6.29 14.44,-33.54 -2.09,-37.22 -8.81,-0.99 -17.7,-0.35 -26.52,-0.37zm-281.53 120.03c18.81,-46.69 35.96,-94.11 55.06,-140.65 8.83,0.41 17.67,0.06 26.52,0.25 17.15,46.87 34.6,93.67 52.02,140.44 -9.1,0.22 -18.2,0.2 -27.31,0.02 -4.17,-12.51 -9.23,-24.71 -13.35,-37.24 -17.77,-0.33 -35.54,0.06 -53.32,-0.2 -4.58,12.46 -9.2,24.87 -13.54,37.4 -8.7,0.24 -17.41,0.28 -26.08,-0.02zm65.89 -108.18l0 0c-6.62,17.07 -12.61,34.42 -19.23,51.51 13.29,0.08 26.62,0.45 39.91,-0.18 -6.64,-17.21 -12.82,-34.59 -18.84,-52.01l-1.84 0.68zm-554.34 -32.32c8.52,0.14 17.04,-0.13 25.57,0.18 -0.15,29.35 -0.06,58.72 -0.06,88.09 0.65,10.9 2.28,23.82 12.17,30.43 10.67,6.33 24.47,6.35 35.8,1.77 10.83,-4.81 14.28,-17.37 15.06,-28.18 0.7,-30.82 -0.66,-61.77 0.66,-92.54 8.33,0.57 16.69,0.2 25.03,0.27 0,30.11 0.06,60.23 -0.02,90.36 -0.7,14.44 -3.45,30.32 -14.64,40.57 -11.94,10.86 -29.02,12.95 -44.51,12.52 -15.2,0.09 -32,-3.12 -42.66,-14.85 -9.4,-10.37 -11.66,-24.81 -12.38,-38.26 -0.02,-30.13 0.02,-60.24 -0.02,-90.36zm972.22 20.92c5.65,-13.45 19.68,-21.81 33.79,-23.45 10.43,-0.72 21.42,-1.03 31.19,3.28 8.81,3.5 16.39,10.38 20.13,19.17 -6.78,4.21 -13.56,8.38 -20.19,12.83 -3.26,-7.68 -9.3,-14.91 -17.87,-16.49 -10.99,-3.16 -24.19,5.75 -23.82,17.5 -0.62,6.92 4.48,12.61 9.94,16.1 14.56,9.12 32.76,12.65 44.75,25.69 11.4,12.25 11.34,31.84 3.2,45.84 -6.69,12.14 -19.83,19.6 -33.31,21.47 -22.01,3.61 -48.94,-3.54 -58.55,-25.61 7.17,-4.32 13.99,-9.43 21.61,-12.88 4.29,14.07 20.47,23.27 34.64,18.16 13.89,-2.94 18.57,-23.15 7.76,-32.07 -13.71,-11.17 -32.49,-14.21 -45.22,-26.84 -11.64,-10.56 -13.64,-28.59 -8.05,-42.7zm-670.44 -22.86c11.77,-1.29 23.93,-1.82 35.57,0.87 14.57,3.35 27.48,12.71 35.04,25.63 -6.69,5.03 -14.35,8.6 -21.46,13 -9.65,-24.19 -44.69,-26.97 -62.15,-10.04 -12.18,11.46 -15.65,29.08 -15.71,45.16 0.21,15.71 4.31,33.25 17.87,42.88 15.5,10.48 36,9.94 53.23,4.38 0.06,-10.21 -0.06,-20.42 0.08,-30.63 -11.13,0 -22.24,-0.06 -33.37,0.03 0,-6.6 0.02,-13.19 0,-19.78 19.57,0.24 39.17,-0.43 58.72,0.33 -0.39,21.85 -0.08,43.72 -0.17,65.59 -25.24,7.19 -52.53,11.46 -78.35,4.87 -19.04,-4.81 -35.26,-19.43 -41.05,-38.36 -7.05,-23.46 -6.47,-50.26 5.28,-72.15 9.26,-17.34 27.37,-28.55 46.47,-31.78zm-520.3 0.33c19.24,-2.73 40.25,-2.32 57.3,8.08 15.38,9.18 25.16,25.79 28.24,43.19 4.08,21.38 2.48,44.81 -8.4,64.05 -9.14,16.37 -26.77,26.76 -45.17,28.94 -19.34,2.45 -40.5,0.52 -56.83,-11.03 -15.28,-10.66 -23.43,-28.91 -25.75,-46.95 -2.11,-20.49 -0.51,-42.49 10.97,-60.21 8.71,-13.93 23.68,-23.01 39.64,-26.07zm3.53 20.97l0 0c-14.87,5.46 -23.56,20.69 -25.94,35.7 -3.1,18.34 -1.44,38.92 10.02,54.24 13.7,18.36 44.49,19.3 59.23,1.77 10.44,-11.94 13.5,-28.7 13.07,-44.14 -0.87,-13.93 -4.26,-28.69 -14.28,-39 -10.58,-11.09 -28.03,-13.8 -42.1,-8.57zm-252.29 -17.74c14.19,-5.38 29.8,-5.36 44.65,-3.51 15.55,2.89 31.44,12.28 37.01,27.7 -5.98,5.32 -13.99,8.69 -20.87,13.1 -2.42,-7.33 -7.06,-14.11 -14.02,-17.74 -16.54,-8.38 -39.19,-4.85 -50.86,10.12 -9.44,11.55 -11.83,27.03 -11.97,41.53 0.43,12.72 2.65,26.19 10.82,36.42 9.64,12.54 27.24,16.63 42.15,13.24 10.82,-2.24 19.71,-10.57 23.68,-20.74 7.29,3.53 13.92,8.24 21.09,12.03 -4.79,14.14 -19.14,23.03 -32.86,27.22 -19.33,4.62 -40.54,3.47 -58.66,-5.01 -14.7,-6.84 -25.5,-20.5 -29.9,-35.97 -5.81,-20.31 -5.73,-42.71 1.97,-62.51 6.55,-16.76 20.79,-30.05 37.77,-35.88zm364.84 -358.06c17.04,-0.27 34.07,-0.02 51.11,-0.12 -0.14,57.97 0,115.93 -0.06,173.91 0.21,20.21 2.92,42.54 17.26,58.04 13.39,14.15 33.72,17.85 52.35,18.73 18.6,0.39 38.3,-0.88 54.71,-10.51 12.14,-7.07 20.17,-19.72 23.66,-33.13 4.09,-15.88 4.33,-32.41 4.13,-48.7 0.16,-52.82 -0.29,-105.66 0.24,-158.45 16.86,0.19 33.71,0.21 50.57,0 0.35,56.71 0.08,113.44 0.14,170.18 -0.23,28.61 -3.31,59.38 -21.07,83 -16.33,21.85 -43.58,31.97 -69.73,35.65 -30.37,4.07 -61.63,3.61 -91.45,-3.82 -23.93,-6.1 -46.77,-20.6 -58.08,-43.17 -15.26,-29.15 -13.78,-63.05 -13.7,-94.97 -0.06,-48.88 0.12,-97.76 -0.08,-146.64zm-123.46 -0.06c17.13,-0.1 34.24,-0.06 51.37,-0.02 -0.02,94.49 -0.02,188.97 0,283.46 -1.46,3.08 -5.61,1.32 -8.24,1.81 -11.7,0.25 -23.37,-0.9 -35.05,0.02 -2.49,-0.45 -6.7,0.72 -8.08,-1.83 0,-94.49 0.02,-188.95 0,-283.44zm-230.66 12.85c24.54,-17.1 55.86,-20.8 84.99,-18.27 23.51,2.01 47.75,9.73 64.57,26.98 5.32,5.43 10.43,11.57 12.81,18.92 -15.01,8.19 -29.74,16.88 -44.52,25.47 -6.66,-15.57 -20.62,-28.08 -37.22,-32 -13.72,-3.72 -28.85,-2.36 -41.36,4.5 -9.35,4.95 -17.17,13.74 -18.98,24.41 -2.42,10.66 1.98,21.96 10.01,29.11 9.55,8.56 21.48,13.78 33.2,18.64 23.89,9.76 49.09,17.3 70.59,32.03 12.88,8.89 24.14,21.05 29.13,36.14 10.53,31.08 -0.89,67.9 -26.52,88.19 -14.79,12.1 -33.31,18.85 -52.02,21.89 -25.1,3.91 -51.16,3.08 -75.62,-4.02 -24.28,-7.35 -47.5,-23 -58.51,-46.46l0.63 -1.44c15.43,-8.62 30.61,-17.82 46.4,-25.77 8.25,20.5 28.22,35.59 50.05,38.55 15.44,2.2 32.24,1.03 45.94,-6.98 17.32,-10.03 23.91,-35.92 11.61,-52.21 -10.05,-12.76 -25.49,-19.31 -39.97,-25.65 -26.14,-11.18 -54.39,-19.97 -75.81,-39.48 -14.33,-12.75 -22.63,-31.73 -22.12,-50.91 -0.78,-24.48 12.68,-48.02 32.72,-61.64zm468.68 -243.7c174.2,-30.68 352.84,-34.05 528.41,-13.41 43.28,4.81 86.22,12.16 129.19,19.16 11.27,1.75 21.15,7.6 31.4,12.24 51.51,24.51 100.53,54.7 144.09,91.66 48.1,41.04 90.27,90.7 115.78,149.03 -3.52,-14.21 -9.49,-27.63 -15,-41.14 -36.97,-86.28 -100.2,-162.17 -181.34,-210.04 28.93,8.48 57.19,19 85.39,29.59 58.25,22.23 115.63,46.73 172.54,72.22 2.48,1.8 5.11,0.71 7.43,-0.76 52.4,-30.15 104.99,-60 157.41,-90.1l2.85 -0.13c-39.9,78.38 -80.8,156.3 -120.97,234.57 4.64,-3.56 8.4,-8.1 12.28,-12.47 30.59,-33.07 61.78,-65.62 92.04,-99.01 -7.34,52.14 -15.02,104.21 -22.47,156.33 -0.8,3.04 0.39,5.87 1.82,8.52 10.75,21.4 11.98,46.83 5.39,69.67 -7.5,26.14 -23.48,49.15 -42.66,68.1 -19.82,20.09 -43.44,36.09 -68.41,49.05 -51.74,26.45 -110.03,39.53 -168.04,39.39 13.41,-9.08 27.58,-17.13 40.35,-27.19 16.35,-12.74 32.74,-26.97 41.69,-46.13 4.95,-10.58 5.47,-24.67 -3.22,-33.48 -36.47,1.91 -73.03,4.11 -109.45,6.39 -12.96,14.21 -28.56,25.77 -45.53,34.75 -35.49,19.04 -74.39,30.66 -113.41,40.01 -37.48,8.46 -75.43,15.48 -113.74,18.5 33.21,-31.46 61.27,-69.79 75.27,-113.72 10.91,-33.8 8.86,-70.63 -0.65,-104.49 -10.7,-37.81 -34.61,-70.94 -64.86,-95.61 -30.32,-24.93 -66.05,-42.49 -102.88,-55.57 -75.37,-26.5 -155.43,-36.01 -234.83,-40.18 -40.91,-1.13 -81.92,-2.09 -122.75,1.28 -74.02,5.21 -147.5,16.35 -220.72,27.99 19.1,-9.59 39.31,-16.9 59.23,-24.65 88.52,-32.65 180.34,-55.55 272.83,-73.68 -19.41,-2.65 -39.07,-3.17 -58.6,-4.42 -206.43,-10.5 -414.76,28.57 -604.51,110.21 -70.38,30.49 -138.82,66.13 -201.81,110.04 0,-0.62 0.02,-1.89 0.02,-2.51 5.78,-1.33 9.8,-5.97 14.52,-9.18 28.37,-20.66 58.06,-39.51 88.34,-57.24 70.52,-41.79 145.16,-76.09 221.17,-106.57 7.66,-2.13 14.95,-5.26 22.39,-7.97 95.35,-35.16 193.92,-61.61 294.02,-79.05zm134.83 -447.93l0 0c3.84,3.02 8.99,2.55 13.55,3.41 9.84,0.62 19.23,3.8 28.96,5.2 64,12.91 127.03,31.09 187.39,56.15 75.13,30.68 145.47,72.37 210.29,121.05 28.07,20.72 55.02,42.9 83.58,62.95 17.83,11.81 36.81,24.31 58.82,25.63 8.82,-0.5 19.04,-0.78 25.02,-8.44 9.36,-12.49 5.03,-29.37 -0.25,-42.66 -9.91,-23.39 -25.91,-43.54 -42.76,-62.29 -49.86,-53.32 -111.45,-94.15 -175.33,-128.71 -11.77,-4.54 -24.5,-5.98 -36.68,-9.12 -115.75,-23.68 -234.73,-31.61 -352.59,-23.17zm294.92 157.86l0 0c-10.23,34.13 11.56,75.68 46.89,84.06 22.65,5.67 46.23,-0.89 66.93,-10.29 -34.26,-29.76 -73.71,-52.87 -113.82,-73.77z"/>
   <path class="fil2" d="M955.24 227.35c117.86,-8.44 236.84,-0.51 352.59,23.17 12.18,3.14 24.91,4.58 36.68,9.12 63.88,34.56 125.47,75.39 175.33,128.71 16.85,18.75 32.85,38.9 42.76,62.29 5.28,13.29 9.61,30.17 0.25,42.66 -5.98,7.66 -16.2,7.94 -25.02,8.44 -22.01,-1.32 -40.99,-13.82 -58.82,-25.63 -28.56,-20.05 -55.51,-42.23 -83.58,-62.95 -64.82,-48.68 -135.16,-90.37 -210.29,-121.05 -60.36,-25.06 -123.39,-43.24 -187.39,-56.15 -9.73,-1.4 -19.12,-4.58 -28.96,-5.2 -4.56,-0.86 -9.71,-0.39 -13.55,-3.41zm1040.47 466.38c1.08,-0.64 3.22,-1.91 4.29,-2.53 -6.1,41.82 -12.16,83.65 -18.09,125.49 -30.26,33.39 -61.45,65.94 -92.04,99.01 -3.88,4.37 -7.64,8.91 -12.28,12.47 40.17,-78.27 81.07,-156.19 120.97,-234.57l-2.85 0.13z"/>
   <path class="fil3" d="M592.37 265.9c131.69,-23.92 268.11,-25.81 399.51,1.25 76.81,15.72 151.67,41.39 221.62,76.88 3.72,1.95 8.01,3.2 10.93,6.41 -60.08,-6.06 -120.79,-5.39 -180.82,0.96 -3.57,-4.89 -9.96,-5.4 -15.2,-7.43 -105.54,-35.29 -215.58,-57.82 -326.82,-63.38 -67.77,-3.25 -135.96,0.32 -202.79,12.28 -5.46,0.43 -11.81,3.37 -16.53,-0.74 36.04,-11.22 73.03,-19.19 110.1,-26.23zm-41.52 470.34c164.81,-77.94 344.21,-128.63 526.98,-134.95 40.05,-0.37 80.2,-0.48 120.06,4.06 93.33,8.42 185.44,31.63 271.06,69.87 3.23,1.56 6.12,3.74 9.06,5.81 -42.97,-7 -85.91,-14.35 -129.19,-19.16 -175.57,-20.64 -354.21,-17.27 -528.41,13.41 -100.1,17.44 -198.67,43.89 -294.02,79.05 -7.44,2.71 -14.73,5.84 -22.39,7.97 1.83,-2.36 3.86,-4.66 6.67,-5.91 13.27,-6.94 26.81,-13.37 40.18,-20.15zm257.13 -345.32c46.95,-11.67 94.21,-22.35 141.98,-29.89 -148.33,42.66 -292.87,104.7 -417.06,197.52 -71.8,53.25 -136.19,116.94 -187.62,190.18 -25.5,37.23 -48.55,76.6 -64.55,118.89l2.1 1.25c-30.28,17.73 -59.97,36.58 -88.34,57.24 -4.72,3.21 -8.74,7.85 -14.52,9.18 0,-3.71 0.21,-7.41 0.8,-11.05 4.52,-28.38 11.08,-56.46 20.42,-83.67 23.52,-71.18 64.06,-136.12 114.89,-190.98 79.44,-85.38 181.37,-146.91 288.37,-191.54 3.49,-1.56 7.05,-3.16 10.95,-3.28 -0.37,-0.33 -1.09,-0.99 -1.46,-1.32 8.42,-2.65 16.49,-6.2 24.73,-9.3 55.28,-21.22 111.93,-38.71 169.31,-53.23z"/>
   <path class="fil4" d="M498.8 292.87c66.83,-11.96 135.02,-15.53 202.79,-12.28 111.24,5.56 221.28,28.09 326.82,63.38 5.24,2.03 11.63,2.54 15.2,7.43 -19.16,2.18 -38.49,3.98 -57.28,8.4 8.4,-0.2 16.8,0.25 25.2,0.58 38.94,2.87 78.31,6.81 115.63,18.99 14.87,5.2 30.35,11.69 40.56,24.24 6.78,8.3 8.67,20.93 2.34,30.05 -9.07,13.24 -23.2,21.77 -36.86,29.61 -24.53,13.49 -50.73,23.7 -77.04,33.19 -45.22,16.04 -91.41,29.14 -137.89,41.01 -1.73,0.09 -5.2,0.29 -6.94,0.39 -1.34,4.79 5.05,0.25 7.41,0.66 94.37,-14.25 190.33,-19.34 285.58,-12.2 74.98,6.68 151.18,20.62 218.26,56.3 -2.28,-5.04 -6.56,-8.75 -9.76,-13.17 -11.83,-15.4 -23.21,-31.59 -30.03,-49.91 -2.69,-7.84 -4.97,-16.78 -1.45,-24.76 2.97,-6.8 10.14,-10.44 17.08,-11.83 13.89,-2.02 28.41,-0.68 41.29,5.17 28.34,12.37 50.56,34.96 70.42,58.06 22.71,27.54 43.07,57.16 59.75,88.71 -13.31,-2.31 -25.14,-9.84 -37.75,-14.5 0.96,2.62 2.21,5.11 3.84,7.41 12.5,18.2 24.7,36.62 36.97,54.98 81.14,47.87 144.37,123.76 181.34,210.04 5.51,13.51 11.48,26.93 15,41.14 -25.51,-58.33 -67.68,-107.99 -115.78,-149.03 -43.56,-36.96 -92.58,-67.15 -144.09,-91.66 -10.25,-4.64 -20.13,-10.49 -31.4,-12.24 -2.94,-2.07 -5.83,-4.25 -9.06,-5.81 -85.62,-38.24 -177.73,-61.45 -271.06,-69.87 -39.86,-4.54 -80.01,-4.43 -120.06,-4.06 -182.77,6.32 -362.17,57.01 -526.98,134.95 -13.37,6.78 -26.91,13.21 -40.18,20.15 -2.81,1.25 -4.84,3.55 -6.67,5.91 -76.01,30.48 -150.65,64.78 -221.17,106.57l-2.1 -1.25c16,-42.29 39.05,-81.66 64.55,-118.89 51.43,-73.24 115.82,-136.93 187.62,-190.18 124.19,-92.82 268.73,-154.86 417.06,-197.52 -2.3,-2.15 -5.14,-3.51 -8.03,-4.66 -87.58,-36.41 -181.08,-58.55 -275.6,-66.05 -76.21,-5.81 -153.52,-0.57 -227.72,18.16 -7.19,1.62 -14.13,4.47 -21.53,4.84 21.61,-7.43 43.22,-14.87 65.19,-21.19 4.72,4.11 11.07,1.17 16.53,0.74z"/>
   <path class="fil5" d="M1086.72 927.34c33.46,-18.11 72.36,-23.47 109.96,-22.05 36.27,1.04 73.59,8.97 103.82,29.96 40.42,27.5 61.57,77.82 59.4,125.88 -59.6,-0.1 -119.19,0 -178.79,-0.04 -10.84,0.35 -21.77,-0.72 -32.53,0.55 0.39,16.49 2.81,34.03 13,47.57 12.67,16.78 38.12,21.17 56.3,11.27 9.98,-4.99 16.59,-14.52 21.21,-24.36 38.24,4.81 76.51,9.31 114.75,14.03 -8.81,22.41 -27.07,39.99 -47.1,52.72 -31.05,19.16 -68.18,26 -104.23,25.78 -41.18,0.14 -83.65,-5.61 -120.41,-25.22 -25.78,-13.64 -47.22,-35.88 -58.21,-63.05 -13.96,-34.14 -13.18,-73.9 1.69,-107.62 12.12,-27.95 34.3,-51.14 61.14,-65.42zm77.02 49.46l0 0c-11.11,13.62 -13.52,32.2 -12.9,49.21 25.96,-0.23 51.92,0 77.9,-0.12 0.68,-15.72 -0.94,-32.6 -10.17,-45.87 -12.05,-17.43 -40.93,-19.42 -54.83,-3.22z"/>
  </g>
 </g>
</svg>
