<?xml version="1.0" encoding="UTF-8"?>
<!DOCTYPE svg PUBLIC "-//W3C//DTD SVG 1.1//EN" "http://www.w3.org/Graphics/SVG/1.1/DTD/svg11.dtd">
<!-- Creator: CorelDRAW -->
<svg xmlns="http://www.w3.org/2000/svg" xml:space="preserve" width="2000px" height="1600px" version="1.1" style="shape-rendering:geometricPrecision; text-rendering:geometricPrecision; image-rendering:optimizeQuality; fill-rule:evenodd; clip-rule:evenodd"
viewBox="0 0 2000 1600"
 xmlns:xlink="http://www.w3.org/1999/xlink">
 <defs>
  <style type="text/css">
   <![CDATA[
    .fil0 {fill:#E41837;fill-rule:nonzero}
   ]]>
  </style>
 </defs>
 <g id="Capa_x0020_1">
  <metadata id="CorelCorpID_0Corel-Layer"/>
  <path id="SMU_x0020_Mustangs.cdr" class="fil0" d="M1776.72 279.4c4.5,-8.84 13.59,-17.56 24.34,-15.37 6.57,3.88 7.75,12.3 9.76,19.02 8.34,37.48 13.92,75.63 24.72,112.54 5.47,18.37 13.73,36.66 28.38,49.56 25.81,22.38 48.11,50.45 57.91,83.62 8.65,28.1 6.59,58.15 14.7,86.38 6.55,24.61 17.41,47.73 25.84,71.71 7.58,21.54 19.47,41.09 30.28,61.08 5.19,9.68 9.75,21.29 5.94,32.25 -2.72,8.14 -10.18,13.08 -17.02,17.51 -12.18,7.89 -21.36,19.28 -30.62,30.23 -4.2,4.81 -9.3,9.71 -15.95,10.54 -6.41,1.03 -10.99,-4.4 -16.42,-6.71 -11.78,-5.42 -26.58,-7.75 -34.21,-19.32 -8.86,-14.89 -7.62,-32.9 -10.43,-49.43 -3.55,-15.05 -14.91,-26.41 -25.14,-37.31 -12.13,-11.54 -23.89,-23.95 -39.01,-31.53 -20.41,-11.36 -43.73,-15.4 -64.98,-24.65 -19.32,-9.56 -25.76,-31.73 -33.97,-49.96 -3.85,-8.23 -7.29,-17.8 -15.63,-22.52 -9.55,-5.04 -20.97,-3.07 -30.82,0 -13.37,4.21 -25.64,11.12 -38.32,16.92 -39.95,18.79 -80.75,35.65 -121.48,52.64 -29.69,12.93 -58.94,28.24 -82.9,50.33 -14.15,12.89 -24.77,28.99 -35.31,44.82 -7.48,11.34 -10.54,24.76 -16.23,36.96 -4.18,8.88 -6.32,19.67 -1.05,28.62 8.98,14.92 10.56,32.62 12.74,49.51 2.1,18.94 2.94,38.02 3.02,57.07 1.39,35.81 15.77,69.43 20.14,104.79 0.67,9.89 1.24,20.79 -4.31,29.52 -4.82,7.58 -14.69,9.34 -19.92,16.52 -7.29,9.39 -16.09,18.95 -28.37,21.17 -13.5,3.32 -25.53,-5.27 -37.1,-10.79 -14.09,-7.79 -29.88,-11.42 -45.45,-14.89 -27.55,-5.92 -55.5,-9.76 -83.36,-14.03 -7.65,-1.09 -15.42,-2.52 -23.18,-1.78 -6.6,0.78 -11.59,5.65 -16.65,9.49 -11.61,9.62 -23.94,18.33 -36.89,26.06 -5.55,3.8 -12.2,7.09 -15.37,13.35 -0.17,4.24 1.72,8.19 3.63,11.87 5.21,9.55 11.99,18.3 20.36,25.3 18.94,16.23 37.9,32.6 58.63,46.54 13.14,8.3 28.13,18.52 30.99,34.96 1.2,10.21 -10.42,14.57 -15.9,21.34 8.3,11.69 20.43,19.76 30.51,29.79 8.28,8.06 19,14.68 23.33,25.93 2.9,7.06 -1.76,14.76 -7.81,18.4 -9.81,5.87 -21.48,7.24 -32.65,8.12 -12.41,0.5 -25.87,2.69 -37.14,-3.97 -14.79,-8.75 -23.83,-24.06 -32.15,-38.57 -10.16,-19.15 -30.34,-29.79 -49.45,-38.07 -12.89,-5.66 -27.1,-8.56 -38.67,-16.9 -10.23,-7.09 -16.13,-18.39 -22.89,-28.51 -10.18,-15.96 -23.72,-29.44 -38.21,-41.49 -11.8,10.48 -22.45,22.3 -34.88,32.04 -16.67,10.39 -36.34,16.74 -56.08,16.44 -6.7,-0.04 -12.74,3.23 -18.33,6.55 -14.86,9.05 -29.79,18.25 -46.07,24.53 -5.06,1.76 -11.61,3.5 -16.16,-0.34 -4.83,-4.54 -4.12,-12.18 -1.81,-17.83 8.92,-22.23 18.52,-44.24 29.61,-65.48 3.54,-6.91 8.21,-14.53 16.5,-16.07 15.96,-2.89 31.87,6.32 47.77,1.91 8.29,-2.07 14.25,-8.73 18.56,-15.74 4.68,-7.65 12.01,-13.09 17.36,-20.2 -10.06,-9.51 -20.62,-20.03 -34.67,-22.95 -27.5,-6.45 -55.91,-1.91 -83.71,-4.79 -16.82,-1.59 -33.44,-8.59 -44.89,-21.23 -6.3,-9.85 -7.83,-21.85 -11.57,-32.77 -6.38,-23.41 -15.11,-46.36 -28.32,-66.82 -8.3,-12.44 -15.65,-25.82 -27.02,-35.83 -30.35,-28.43 -64.27,-52.73 -97.11,-78.16 -40.26,-42.12 -73.28,-91.41 -96.15,-145.04 -8.88,-23.35 -20.01,-45.79 -28.17,-69.41 -1.26,-2.78 -1.87,-6.62 -5.15,-7.71 -6.66,-2.44 -13.88,-2.39 -20.87,-3.04 -29.52,-1.68 -59.13,-5.42 -87.53,-13.97 -19.03,-5.83 -37.27,-15.2 -51.59,-29.22 -8.21,-7.37 -15.18,-17.49 -26.5,-20.18 -15.54,-3.66 -31.66,-2.44 -47.49,-2.48 -34.75,1.6 -69.8,3.72 -104.36,-1.62 -23.64,-4.15 -45.14,-15.64 -65.55,-27.8 -24.56,-14.65 -47.39,-33.63 -61.86,-58.66 -15.39,-27.15 -27.35,-60.01 -17.15,-91.1 4.83,-2.02 10.2,-4.67 15.49,-2.61 4.6,1.41 7.37,5.59 10.27,9.11 7.43,9.35 18,15.37 28.26,21.1 26.17,13.84 54.87,22.2 83.8,27.97 24.82,4.87 50.31,7.56 75.57,4.94 27.95,-2.42 54.8,-12.08 82.89,-13.42 17.05,-0.86 34.29,0.59 50.9,4.58 11.15,2.71 22.76,8.25 28.05,19.06 6.66,14.3 7.83,30.59 15.33,44.6 8.75,16.69 20.81,33.64 39.05,40.63 16.65,6.19 33.95,-0.57 50.29,-4.26 24.63,-4.64 46.42,-17.58 68.47,-28.79 40.58,-20.96 81.89,-40.73 124.8,-56.5 33.74,-12.33 68.62,-22.18 104.44,-26 31.05,-3.46 62.47,-1.7 93.22,3.72 46.79,8.08 94.03,13.94 141.56,15.52 72.27,1.36 144.15,-11.39 213.56,-30.87 7.58,-2.14 15.71,-4.22 21.29,-10.18 -7.07,-9.3 -18.37,-13.54 -27.13,-20.87 -14.67,-11.66 -32,-21.94 -40.23,-39.56 -2.01,-5.04 -5.2,-10.81 -2.89,-16.25 4.3,-2.44 9.42,-0.4 13.77,0.9 20.01,7.6 38.65,18.75 59.4,24.46 28.98,7.73 58.92,11.86 88.86,13.27 6.48,0.17 13.12,0.28 19.21,-2.27 -2.52,-3.88 -5.54,-7.45 -9.37,-10.07 -23.13,-16.68 -49.53,-29.73 -68.07,-51.99 -5.37,-6.72 -11.21,-14.89 -9.3,-24 2.59,-6.74 11.19,-5.63 16.92,-4.64 30.09,7.03 54.18,27.65 81.96,40.04 27.27,12.35 55.68,22.07 84.49,30.13 6.34,1.83 12.85,3.23 19.48,3.7 -4.37,-13.11 -19.13,-20.56 -20.55,-34.96 -1.01,-5.09 2.66,-10.29 7.78,-11.13 7.38,-1.26 14.58,1.78 21.44,4.2 27.91,10.81 54.74,24.1 81.72,36.97 3.4,1.45 6.93,3.47 10.81,2.77 1.1,-5.77 -1.19,-11.5 -1,-17.28 0.61,-5.18 6.65,-5.86 10.73,-4.81 10.98,2.36 18.35,11.53 27.46,17.39 37.63,25.07 80.69,41.57 125.06,49.83 5.54,0.73 11.52,2.11 16.92,-0.03 2.33,-3.08 1.09,-7.41 1.51,-11.02 -0.19,-32.25 1.85,-65.8 16.71,-95.07zm-902.31 511.03l0 0c5.53,27.66 -0.56,56.78 8.84,83.74 12.06,23.05 21.65,47.66 26.31,73.34 4.2,18.29 11.76,37.21 27.28,48.78 7.35,5.66 16.48,8.37 25.61,9.24 25.96,2.7 51.7,11.9 71.9,28.72 3.61,2.79 6.78,6.23 8.27,10.62 1.83,3.82 3.44,10.63 9.15,8.7 8.09,-3.99 15.06,-10.84 18.9,-19.05 1.09,-3.44 3.19,-8.57 -0.59,-11.08 -8.23,-5.78 -18.27,-8.21 -26.79,-13.51 -16,-10.16 -33.89,-17.38 -48.5,-29.68 -12.56,-10.38 -23.6,-24.19 -26.75,-40.49 -1.34,-5.04 3.23,-8.61 7.94,-8.12 26.16,-0.53 52.32,1.15 78.5,0.12 6.2,0.15 13.65,-0.02 18.23,4.94 5.5,8.33 -3.76,18.58 1.3,27.15 4.89,4.26 12.68,1.11 17.8,5.2 6.13,4.96 11.74,10.98 19.57,13.31 6.6,-9.4 11.63,-19.79 16.72,-30.04 8.42,-20.16 10.14,-42.48 9.21,-64.12 -0.59,-8.22 -1.07,-16.59 -3.44,-24.55 -0.82,-2.56 -2.08,-5.35 -4.68,-6.49 -8.36,0.57 -16.69,2.25 -25.11,1.56 -23.08,-1.2 -45.95,-4.94 -68.71,-8.84 -35.79,-6.55 -71.2,-17.03 -103.34,-34.35 -19.09,-8.59 -38.53,-16.47 -57.62,-25.1zm376.16 161.93l0 0c-11.66,16.8 -24.97,32.38 -37.4,48.59 -2.5,3.48 -6.74,9.26 -1.3,12.2 26.37,16.96 58.88,19.08 89.4,19.25 2.21,-5.35 6.33,-9.3 10.61,-13.04 3.72,-3.15 0.65,-8.02 -1.16,-11.32 -11.94,-18.16 -21.08,-37.96 -29.73,-57.84 -4.01,-8.65 -4.89,-18.58 -10.5,-26.48 -8.16,8.42 -13.35,19.05 -19.92,28.64z"/>
 </g>
</svg>
