<?xml version="1.0" encoding="UTF-8"?>
<!DOCTYPE svg PUBLIC "-//W3C//DTD SVG 1.1//EN" "http://www.w3.org/Graphics/SVG/1.1/DTD/svg11.dtd">
<!-- Creator: CorelDRAW -->
<svg xmlns="http://www.w3.org/2000/svg" xml:space="preserve" width="2000px" height="1600px" version="1.1" style="shape-rendering:geometricPrecision; text-rendering:geometricPrecision; image-rendering:optimizeQuality; fill-rule:evenodd; clip-rule:evenodd"
viewBox="0 0 2000 1600"
 xmlns:xlink="http://www.w3.org/1999/xlink">
 <defs>
  <style type="text/css">
   <![CDATA[
    .fil2 {fill:#00553E;fill-rule:nonzero}
    .fil0 {fill:#BBAC75;fill-rule:nonzero}
    .fil1 {fill:#FEFEFE;fill-rule:nonzero}
   ]]>
  </style>
 </defs>
 <g id="Capa_x0020_1">
  <metadata id="CorelCorpID_0Corel-Layer"/>
  <g id="South_x0020_Florida_x0020_Bulls.cdr">
   <path class="fil0" d="M465.41 160.88c16.03,-53.6 31.78,-107.31 47.86,-160.88 36.29,45.66 69.13,94.33 95.35,146.49 15.61,32.51 29.66,66.87 31.93,103.26 1.75,49.64 -15.88,98.22 -42.69,139.42 -32.64,50.21 -76.76,92.24 -125.69,126.39 92.61,24.78 189.11,26.77 284.33,30 79.29,2.22 158.58,1.99 237.9,2.72 -107.34,161.45 -215.32,322.49 -322.42,484.1 9.77,20.03 19.22,40.21 28.56,60.44 -31.3,50.81 -62.6,101.59 -93.73,152.5 32.74,0.19 65.46,-0.05 98.17,0.13 28.12,-51.98 55.56,-104.35 83.42,-156.49 6.58,-10.86 10.7,-23.39 18.77,-33.21 27.31,-18.17 55.22,-35.46 82.77,-53.31 2.58,-1.78 5.03,-3.84 6.76,-6.5 87.28,-145.09 174.51,-290.23 261.89,-435.23 102.87,-0.6 206.13,-2.2 308.24,-16.03 46.21,-6.66 92.71,-15.49 135.71,-34.31 -28.9,-46.37 -48.14,-99.97 -48.82,-154.98 -0.6,-33.86 10.18,-66.94 25.95,-96.6 21.46,-40.24 51.43,-75.19 83.55,-107.26 59.73,-57.59 127.35,-106.83 199.23,-148.14 -18.48,57.26 -36.24,114.8 -49.92,173.42 -4.99,22.42 -10.08,45.03 -11.15,68.06 -0.96,23.19 15.54,41.88 31.28,56.87 36.4,33.26 78.35,60.57 110.68,98.22 28.92,32.32 49.47,72.92 54.2,116.36 5.16,50.63 -3.48,102.63 -24.05,149.13 -30.1,67.91 -85.87,121.25 -148.53,159.5 -81.85,49.82 -175.03,78.25 -268.97,94.33 -45.01,7.73 -90.52,11.96 -136.08,14.12 -29,47.05 -57.65,94.33 -86.86,141.25 -30.08,43.66 -76.21,72.9 -122.53,96.79 -2.9,1.28 -4.88,3.73 -6.39,6.42 -29.69,52.03 -59.51,103.99 -89.32,155.94 1.75,20.79 4.54,42.43 -2.67,62.56 -9.55,27.75 -32.14,48.14 -54.74,65.59 -36.27,27.44 -75.69,50.28 -114.86,73.26 -32.58,18.98 -65.48,37.41 -98.24,56.08 -7.1,3.89 -14.08,9.53 -22.69,8.61 -190.62,-0.23 -381.26,0.11 -571.88,-0.18 -3.79,0.76 -5.2,-3.34 -7.02,-5.67 -27.37,-44.25 -55.51,-88.03 -80.89,-133.44 -16.19,-29.73 -32.16,-60.36 -39.03,-93.78 -5.51,-26.45 -1.07,-55.45 14.8,-77.64 15.64,-21.6 36.58,-38.62 57.73,-54.57 6.66,-4.99 10.21,-12.72 14.62,-19.53 28.38,-45.72 56.92,-91.35 85.32,-137.07 -15.61,-33.29 -31.22,-70.13 -23.52,-107.64 4.28,-23.48 20.26,-41.93 32.79,-61.41 -55.9,-8.64 -111.59,-22.38 -162.79,-46.89 -51.27,-24.18 -99.36,-61.54 -123.28,-114.23 -18.75,-39.5 -19.95,-84.54 -14.91,-127.2 4.57,-40.23 16.95,-79.68 37.18,-114.82 22.79,-39.98 55.35,-73.65 91.59,-101.7 62.03,-48.22 133.91,-80.98 202.26,-118.89 31.62,-17.89 63.08,-36.82 89.66,-61.83 18.17,-17.36 33.65,-38.33 41.17,-62.53z"/>
   <path class="fil1" d="M528.36 100.26c27.39,35.56 51.48,74.69 64.12,118.06 11.31,37.88 4.49,79 -11.46,114.51 -24.25,53.18 -67.23,94.83 -111.98,131.12 -19.14,15.72 -39.45,30 -58.22,46.16 -4.81,4.57 -10.81,9.27 -11.7,16.32 2.93,7.2 10.78,10.52 17.16,14.09 26.05,12.48 54.64,18.33 82.81,23.95 89.95,16.05 181.43,20.75 272.6,23.94 47.6,1.72 95.24,1.49 142.87,2.43 -97.05,145.86 -194.17,291.68 -291.58,437.29 9.13,20.49 19.58,40.39 28.4,61.01 -0.88,5.3 -5.06,9.61 -7.57,14.34 -37.75,61.43 -75.77,122.68 -113.23,184.27 66.78,0.21 133.57,0 200.36,0.1 28.3,-52.89 56.34,-105.94 84.53,-158.87 7.91,-13.96 14.39,-28.82 23.08,-42.27 27.39,-18.92 56.08,-36.05 83.89,-54.43 2.59,-1.78 4.67,-4.18 6.4,-6.82 84.69,-140.75 169.36,-281.52 254.06,-422.28 114.12,-0.7 228.94,-4.28 341.45,-25.11 32.84,-6.4 65.71,-14.28 96.47,-27.7 11.17,-5.49 23.1,-11.26 30.57,-21.57 4.86,-6.34 1.49,-14.54 -1.38,-20.91 -8.2,-16.74 -18.78,-32.17 -26.84,-48.98 -20.03,-38.88 -31.31,-83.52 -25.22,-127.31 7.23,-42.74 31.69,-80.23 59.57,-112.5 38.33,-43.13 83.74,-79.68 132.69,-110.1 -9.27,32.01 -18.25,64.12 -25.17,96.74 -5.01,23.23 -9.63,47.96 -1.65,71.12 11.41,34.46 39.98,58.97 67.36,81.01 36.48,29.32 75.95,57.23 101.2,97.57 19.4,30.28 26.89,67.15 23.99,102.79 -2.84,57.44 -26.44,113.07 -64.14,156.28 -51.46,59.63 -122.71,98.33 -195.79,125.03 -96.24,34.6 -198.63,49.46 -300.56,52.09 -28.59,46.34 -56.97,92.79 -85.56,139.13 -7.21,11.7 -13.86,23.87 -23.13,34.1 -25.56,28.69 -58.59,49.53 -92.58,66.73 -7.57,4.29 -17.65,6.27 -21.41,15.02 -33.21,58.27 -66.74,116.39 -99.76,174.79 -4.36,22.88 8.98,49.01 -5.43,70.18 -17.44,25.96 -44.6,43.03 -70.03,60.26 -50.18,32.48 -102.55,61.41 -154.45,91.02 -10.71,4.8 -19.9,14.15 -31.91,15.19 -180.12,0 -360.27,0 -540.42,0 -26.68,-43.94 -54.69,-87.12 -79.32,-132.29 -11.82,-22.51 -23.65,-45.77 -27.49,-71.2 -2.56,-15.87 1.2,-33.05 12.04,-45.22 15.01,-17.41 33.26,-31.67 51.54,-45.48 6.58,-4.8 10,-12.43 14.28,-19.11 33.99,-54.8 68.19,-109.45 102.19,-164.22 -11.33,-23.27 -23.81,-46.4 -29.82,-71.72 -4.02,-16.06 -2.4,-33.87 6.97,-47.81 19.14,-29.03 38.82,-57.7 57.99,-86.7 -59.74,-4.47 -119.53,-14.08 -176.21,-33.92 -44.93,-15.93 -89.29,-38.56 -121.25,-74.8 -19.97,-22.66 -33.49,-51.17 -36.99,-81.3 -6.01,-69.69 13.16,-142.87 59.16,-196.49 35.59,-42.27 82.56,-72.8 130.31,-99.58 58.46,-32.74 119.94,-60.47 174.74,-99.35 35.25,-25.09 67.44,-55.79 88.88,-93.7 16.86,-29.01 26.18,-61.77 30.57,-94.9z"/>
   <path class="fil2" d="M540.08 180.36c15.85,26.24 26.35,56.99 23.24,87.93 -2.46,33.97 -17.44,65.92 -37.94,92.66 -34.64,45.61 -82.63,77.88 -125.84,114.54 -13.37,12.4 -28.69,25.04 -34.02,43.16 -4.36,18.9 9.89,35.69 24.85,45.14 31.52,20.02 68.64,28.3 104.73,35.95 99,18.64 200.04,22.45 300.53,24.88 18.46,0.18 36.95,-0.1 55.4,0.1 -88.87,133.73 -178.34,267.07 -267.19,400.8 9.97,20.7 19.66,41.56 29.45,62.34 -48.12,78.17 -96.18,156.37 -144.25,234.56 94.12,0 188.27,0 282.39,0 36.24,-68.61 72.87,-137.04 109.11,-205.65 1.82,-3.32 3.6,-6.9 7.1,-8.73 23.81,-15.32 47.65,-30.62 71.54,-45.84 5.14,-3.5 11.38,-6.14 14.46,-11.86 82.9,-137.48 165.48,-275.18 248.4,-412.64 113.8,-1.1 228.58,-4.57 340.32,-28.12 38.25,-8.67 76.97,-19.16 110.7,-39.81 14.52,-9.43 29.29,-21.65 33.94,-39.09 4.05,-14.75 -2.45,-29.61 -8.82,-42.69 -12.53,-23.55 -27.34,-46.05 -36.29,-71.32 -13.11,-35.8 -16.64,-76.92 -0.89,-112.51 19.19,-44.3 53.29,-80.64 91.01,-110.02 -9.24,34.88 -11.2,73.5 4.28,106.92 17.42,38.61 51.36,65.92 83.86,91.51 33.19,26.32 69.11,52.55 88.64,91.3 16.61,32.5 15.59,70.67 8.46,105.58 -10.42,51.25 -40.83,96.73 -79.71,130.94 -62.37,54.82 -141.27,86.68 -220.74,107.56 -78.38,20.24 -159.42,29.35 -240.28,29.66 -29.79,47.62 -58.88,95.69 -88.38,143.52 -11.38,17.83 -20.88,37.44 -36.92,51.77 -28.71,26.22 -63.39,44.96 -98.76,60.6 -38.75,67.36 -77.08,134.96 -115.85,202.26 1.05,17.21 2.64,34.39 3.61,51.62 0.44,4.65 -2.48,8.72 -5.28,12.17 -12.37,13.97 -27.86,24.64 -43.1,35.22 -58.46,39.5 -120.78,72.81 -182.01,107.72 -5.84,3.66 -13.02,1.91 -19.52,2.32 -166.76,-0.13 -333.51,0 -500.3,-0.05 -27.83,-45.4 -58.5,-89.37 -80.49,-138.03 -5.77,-13.61 -11.9,-27.76 -11.9,-42.77 -0.32,-9.03 6.29,-15.98 12.35,-21.77 13.68,-12.59 28.82,-23.42 43.34,-34.94 3.44,-2.66 6.16,-6.13 8.43,-9.81 40.36,-65.12 81.04,-130.05 121.35,-195.19 -11.2,-22.77 -23.55,-45.14 -32.14,-69.08 -3.68,-11.23 -7.34,-24.73 -0.08,-35.33 30.16,-45.38 60.76,-90.44 90.89,-135.81 -48.41,0.13 -96.84,-4.44 -144.51,-12.77 -48.83,-8.96 -97.7,-22.09 -141.2,-46.63 -30.34,-17.36 -58.48,-42.24 -70.8,-75.79 -9.01,-23.06 -8.07,-48.36 -5.77,-72.59 4.43,-43.99 22.19,-86.36 50.2,-120.56 35.01,-43.24 82.35,-74.13 130.05,-101.65 66.18,-38.14 137.09,-69.1 197.35,-116.75 37.73,-29.43 69.22,-68.54 83,-114.93z"/>
  </g>
 </g>
</svg>
