<?xml version="1.0" encoding="UTF-8"?>
<!DOCTYPE svg PUBLIC "-//W3C//DTD SVG 1.1//EN" "http://www.w3.org/Graphics/SVG/1.1/DTD/svg11.dtd">
<!-- Creator: CorelDRAW -->
<svg xmlns="http://www.w3.org/2000/svg" xml:space="preserve" width="2000px" height="1600px" version="1.1" style="shape-rendering:geometricPrecision; text-rendering:geometricPrecision; image-rendering:optimizeQuality; fill-rule:evenodd; clip-rule:evenodd"
viewBox="0 0 2000 1600"
 xmlns:xlink="http://www.w3.org/1999/xlink">
 <defs>
  <style type="text/css">
   <![CDATA[
    .fil3 {fill:black}
    .fil1 {fill:#FEFEFE}
    .fil0 {fill:#134A93;fill-rule:nonzero}
    .fil2 {fill:#90182B;fill-rule:nonzero}
   ]]>
  </style>
 </defs>
 <g id="Capa_x0020_1">
  <metadata id="CorelCorpID_0Corel-Layer"/>
  <g id="South_x0020_Carolina_x0020_State_x0020_Bulldogs.cdr">
   <path class="fil0" d="M729.88 0l549.05 0c120.05,77.22 240.25,154.22 360.2,231.62 -0.1,103.65 -0.03,207.32 -0.05,310.97 -161.47,0 -322.96,0.02 -484.42,0 -6.46,-15.7 -16.02,-30.72 -17.21,-47.98 -0.13,-16.48 8.45,-31.57 8.88,-48 0.41,-8.38 -8.73,-14.23 -8.2,-22.38 5.3,-13.83 15.19,-25.26 24.43,-36.62 0.43,43.03 0.08,86.06 0.18,129.11 150.15,0 300.31,0 450.47,0 -0.02,-90.32 0.05,-180.64 -0.05,-270.97 -107.16,-68.71 -214.21,-137.59 -321.29,-206.41 -7.17,-4.34 -13.7,-9.86 -21.52,-12.94 -9.09,-1.19 -18.3,-0.41 -27.41,-0.53 -160.71,0 -321.39,0.05 -482.1,-0.03 -7.95,0.23 -16.12,-0.91 -23.92,0.96 -8.81,4.29 -16.61,10.27 -24.96,15.32 -107.58,67.79 -214.92,135.95 -322.6,203.56 -0.28,150.38 -0.05,300.74 -0.13,451.1 71.83,50.35 143.83,100.47 215.6,150.92 -1.64,11.25 -4.14,23.14 1.97,33.61 -80.76,-57.49 -162.4,-113.74 -243.46,-170.77 0.05,-159.73 0,-319.45 0.03,-479.17 122.19,-77.1 244.24,-154.42 366.51,-231.37zm66.87 1229.65c8.69,0.36 17.32,1.24 25.95,2.4 -0.1,29 0.1,58.02 -0.13,87.02 124.75,0.4 249.49,0.05 374.24,0.17 0,-28.66 -0.03,-57.33 0.02,-86 8.56,2.7 17.14,5.3 25.84,7.57 0,34.78 0,69.53 0,104.28 -141.98,-0.03 -283.96,0.15 -425.92,-0.08 0.11,-38.46 0.11,-76.92 0,-115.36zm341.28 -10.95c8.78,0.71 17.44,2.5 26.02,4.49 -0.1,21.93 -0.03,43.84 -0.05,65.77 -104.08,0.05 -208.15,-0.08 -312.23,0.08 -0.15,-17.47 -0.02,-34.88 -0.1,-52.32 8.55,1.79 17.29,2.12 25.97,1.14 -0.08,8.38 -0.08,16.75 -0.13,25.16 86.87,0.17 173.73,0.02 260.6,0.07 0.02,-14.81 0.07,-29.6 -0.08,-44.39zm-491.38 -108.84c48.15,-0.18 96.33,-0.03 144.5,-0.08 -0.98,8.63 -1.92,17.24 -2.62,25.89l-0.48 0c-39.85,0 -79.7,-0.15 -119.52,0.1 -6.51,-9.28 -13.78,-17.99 -21.88,-25.91zm99.23 -170.48c8.7,-0.96 -0.08,10.33 -2.25,2.63 0.56,-0.66 1.69,-1.97 2.25,-2.63zm393.31 -8.68c2.6,0.03 7.77,0.05 10.37,0.05 24.36,2.85 48.71,5.73 73.06,8.48 -0.2,19.23 0.68,38.46 -0.43,57.67l-0.58 3.61c-4.84,-7.07 -8.5,-14.89 -14.03,-21.48 -4.26,-5.07 -8.88,-9.94 -11.83,-15.97 -9.82,-3.61 -17.16,-11.36 -26.15,-16.46 -9.64,-6.23 -20.59,-10.02 -30.41,-15.9zm-508.82 -34.57c3.56,-0.71 9.79,2.67 9.39,6.66 -3.64,0.86 -9.74,-2.73 -9.39,-6.66zm751.88 -129.24c73.76,46.28 147.33,92.87 220.94,139.38 -0.63,56.28 0.91,112.53 0.56,168.84 -0.08,86.51 -0.08,173.02 0.63,259.53 -110.72,73.08 -220.72,147.33 -331.66,220.04 -39.3,1.13 -78.77,0.58 -118.11,-0.13 -136.38,0.1 -272.73,-0.08 -409.11,0.08 -6.49,-0.36 -13.93,1.38 -19.36,-3.16 -75.68,-53.02 -151.54,-105.87 -227.28,-158.84 -32.07,-22.79 -64.91,-44.59 -96.55,-67.93 -2.78,-71.58 -4.17,-143.27 -6.64,-214.89 55.67,-0.08 111.32,0 166.97,-0.05 -1.34,8.48 -1.97,17.06 -1.97,25.64l-1.9 0.05c-45.4,0.48 -90.8,0.05 -136.2,0.2 1.59,58.62 2.9,117.25 5.35,175.85 97.44,67.48 194.4,135.64 291.61,203.45 8.3,5.18 15.7,13.83 26.22,13.76 167.35,0.23 334.74,-0.63 502.08,0.78 7.35,-0.2 15.47,0.83 21.83,-3.66 85.81,-57.24 171.82,-114.22 257.67,-171.41 16.61,-11.83 34.73,-21.67 50.5,-34.57 2.02,-17.59 -0.03,-35.36 0.07,-53 -0.15,-114.29 0.41,-228.64 -0.9,-342.91 0.25,-3.89 -3.82,-5.43 -6.31,-7.47 -59.13,-37.07 -118.03,-74.5 -177.06,-111.7 -2.1,-13.1 -7.02,-25.44 -11.38,-37.88zm-46.77 -98.75c106.35,69.65 212.04,140.34 318.16,210.37 -0.53,63.02 1.03,126.03 0.58,189.08 -0.43,30.28 1.06,60.54 0.63,90.82 -0.43,69.55 1.29,139.08 0.51,208.63 -119.63,77.45 -238.82,155.59 -358.49,232.96l-589.5 0c-118.84,-81.26 -237.73,-162.5 -356.6,-243.73 -1.71,-94.16 -3.71,-188.29 -6.33,-282.4l0 -16.46c153.31,-0.02 306.6,0.06 459.91,-0.04 -4.21,8.32 -7.49,17.05 -10.17,25.96 -141.15,-0.05 -282.27,-0.17 -423.39,0.08 2.14,86.33 3.68,172.69 5.95,259.03 111.67,76.14 223.17,152.53 334.79,228.74 5.45,4.12 12.64,2.75 19.03,3.06 41.21,-0.63 82.4,1.06 123.61,0.53 142.16,0.02 284.34,-0.05 426.5,0.05 9.61,0.83 16.75,-6.54 24.4,-11.08 108.11,-70.46 216.33,-140.82 324.52,-211.16 -0.18,-36.97 0.55,-73.94 -0.61,-110.89 -0.22,-48.81 0.56,-97.64 -0.65,-146.42 0.55,-67.48 -0.84,-134.94 -0.58,-202.42 -86.11,-57.37 -172.5,-114.32 -258.75,-171.44 -7.73,-4.41 -10.35,-13.29 -14.26,-20.69 -5.43,-11.43 -12.52,-21.91 -19.26,-32.58zm-561.59 -2.32c10.32,3 5.3,16.53 -0.76,21.5 0.28,-7.17 0.46,-14.33 0.76,-21.5zm2.12 -402.53c11.48,-0.93 23.02,1.14 33.34,6.29 18.29,8.81 36.64,17.56 54.99,26.24 20.14,10.45 42.93,13.81 65.18,16.51 11.56,1.59 23.55,0.7 34.76,4.57 -27.44,5.78 -55.73,0.65 -82.2,-7.22 -36.87,-11.84 -70.44,-31.52 -106.07,-46.39zm113.72 -56.75c8.8,-2.96 16.73,3.5 25.13,5.07 -11.99,13.53 -26.45,25.61 -33.69,42.57 -4.44,12.82 -3.3,26.65 -3.73,40 -17.69,-7.19 -35.76,-13.7 -52.95,-21.98 -4.64,-13.68 -0.1,-29.45 9.92,-39.59 14.43,-15.3 35.43,-21.53 55.32,-26.07zm-61.03 56.15l0 0c9.24,0.1 9.87,-12.42 15.75,-17.69 3.28,-6.11 14.82,-10.1 9.67,-18.1 -11.36,9.34 -22.01,21.13 -25.42,35.79zm43.79 -30.26l0 0c-10.42,10.9 -14.84,25.79 -20.52,39.39 1.54,-0.05 4.67,-0.17 6.21,-0.22 5.02,-12.97 11.43,-25.24 18.27,-37.3 -0.98,-0.48 -2.98,-1.39 -3.96,-1.87zm-15.72 7.09l0 0c-5.73,8.3 -14.34,15.52 -16.18,25.84l3.61 0.53c6.44,-7.16 11.26,-15.62 17.49,-22.96 -1.24,-0.86 -3.69,-2.55 -4.92,-3.41zm108.16 -34.17c16.96,-5.6 36.22,-5.68 52.27,2.75 10.14,5.55 16.85,15.32 23.27,24.61 8.45,12.39 18.8,23.47 30.58,32.75 5.2,5.78 8.84,12.77 12.09,19.79 -12.16,8.45 -23.95,17.44 -35.03,27.28 -7.72,-10.22 -19.08,-18.27 -32.4,-17.77 -17.54,-1.59 -30.92,12.9 -48,13.45 -26.85,1.67 -53.73,-2.47 -79.65,-9.16 -2.42,-10.24 -4.36,-20.87 -2.57,-31.39 3.35,-22.18 19.45,-40.73 38.48,-51.56 11.54,-3.61 24.03,-4.89 36.07,-3.86 18.19,4.87 30.81,19.84 43.6,32.63 -5.17,-19.15 -24.07,-28.47 -38.71,-39.52zm43.21 26.7l0 0c14.23,17.87 29.45,36.44 33.39,59.71 1.23,-0.48 3.73,-1.44 4.97,-1.92 -1.19,-13.15 -7.7,-25.06 -14.51,-36.06 -6.21,-9.16 -12.5,-18.55 -21.15,-25.56 -0.68,0.95 -2.02,2.87 -2.7,3.83zm-58.58 -0.5l0 0c0.51,5.65 3.66,10.57 5.78,15.72 6.44,13.8 8.23,29.07 10.9,43.91 1.11,-0.91 3.36,-2.7 4.47,-3.61 -1.39,-19.86 -6.31,-40.55 -17.74,-57.13l-3.41 1.11zm-19.86 2.54l0 0c3.81,10.02 8.91,19.84 10.07,30.64 0.98,8.1 -0.86,16.15 -2.14,24.1 6.78,0.76 7.24,-6.43 7.9,-11.3 1.38,-14.87 -2.3,-30.31 -10.23,-42.93 -1.41,-0.13 -4.21,-0.38 -5.6,-0.51zm103.82 7.98l0 0c-0.37,0.78 -1.13,2.32 -1.51,3.1 5.35,10.78 12.34,20.67 17.31,31.68 1.69,3.08 5,10.87 8.69,5.3 -3.71,-11.08 -10.3,-20.87 -15.8,-31.1 -2.38,-3.43 -3.87,-8.53 -8.69,-8.98zm-111.14 9.54l0 0c2.43,13.15 4.42,26.42 3.23,39.85 9.47,-1.09 5.35,-12.75 5.96,-19.11 -1.21,-7.26 -0.15,-18.62 -9.19,-20.74zm63.15 11.05l0 0c2.8,7.27 5.62,14.51 8.45,21.76 1.34,-0.36 3.99,-1.09 5.32,-1.44 -2.42,-7.72 -5.4,-15.29 -8.88,-22.59 -1.24,0.56 -3.68,1.69 -4.89,2.27zm37.5 4.87l0 0c3.33,10.58 9.36,20.04 13.9,30.11 1.34,-0.53 3.96,-1.61 5.28,-2.17 -3.64,-7.7 -6.94,-15.57 -11.01,-23.09 -1.74,-2.6 -4.03,-8.46 -8.17,-4.85zm-276.27 -216.02c2.68,-1.74 5.63,-3.23 8.93,-2.93 160.71,-0.05 321.44,0.05 482.18,-0.02 7.92,0.6 17.06,-2.15 23.84,3.23 109.1,71.9 218.45,143.39 327.53,215.29 0,74.37 0,148.74 0,223.14 -134.62,-0.05 -269.23,0.13 -403.84,-0.1 0.15,-45.65 -0.1,-91.28 0.13,-136.93 0.5,-14.34 -4.3,-28.44 -11.31,-40.79 12.34,-0.12 24.68,-0.12 37.02,-0.05 0.08,50.6 0.18,101.2 -0.05,151.8 117.38,0.46 234.78,0.08 352.15,0.2 -0.05,-61.14 0.23,-122.29 -0.15,-183.44 -96.86,-63.14 -193.31,-126.89 -290.04,-190.26 -8.08,-5.05 -15.5,-11.33 -24.25,-15.24 -10.3,-2.15 -20.98,-0.68 -31.4,-0.99 -144.63,-0.02 -289.26,0.1 -433.87,-0.05 -10.07,0.51 -21.37,-2.22 -30.26,3.86 -104.68,67.79 -209.59,135.25 -314.32,202.96 -0.02,128.98 0.15,257.97 -0.08,386.95 52.65,35.13 105.39,70.13 158.29,104.88 3.13,13.4 8.5,26.07 12.92,39.04 -3.31,-1.74 -6.64,-3.43 -9.79,-5.45 -62.39,-41.31 -124.7,-82.72 -187.08,-123.98 -0.15,-138.7 -0.25,-277.38 0.05,-416.05 111.22,-71.58 222.28,-143.37 333.4,-215.07z"/>
   <path class="fil1" d="M1338.33 1323.31c-2.89,-0.38 -5.47,-1.65 -7.27,-4.02 -2.74,-3.58 -2.68,-8.16 -2.59,-12.44 0.06,-2.96 2.67,-6.02 4.51,-8.18 2.4,-2.82 4.99,-5.52 7.57,-8.18 2.41,-2.48 4.86,-4.92 7.29,-7.38 1.15,-1.17 2.79,-2.68 3.81,-3.97 3.13,-4.87 5.55,-9.98 9.27,-14.49l0.8 -0.97 1.16 -0.47c5.85,-2.39 23.07,-0.6 30.57,0.14 1.07,-0.2 2.61,-0.58 3.69,-1.13 -0.51,-15.71 -13.05,-28.15 -24.43,-37.66 -7.62,-6.37 -25.11,-11.93 -34.91,-9.47 -36.43,9.17 -72.64,19.28 -109.33,27.39l-0.88 0.2 -0.9 -0.13c-19.42,-2.76 -36.82,-11.68 -55.67,-16.29l-0.19 -0.05 -0.18 -0.06c-12.02,-3.95 -24.76,-5.47 -37.05,-8.34l-0.58 -0.13 -0.53 -0.27c-3.35,-1.69 -6.44,-3.8 -9.31,-6.2 -10.14,-8.5 -17.01,-20.48 -27.27,-28.46l-0.1 -0.08 -0.09 -0.08c-2.92,-2.51 -8.41,-2.79 -11.99,-3.36 -21.17,-2.88 -43.4,-11 -64.87,-7.7 -39.81,6.1 -83,5.77 -119.89,23.66 2.83,8.11 5.52,16.05 3.1,24.9l-0.1 0.35 -0.14 0.33c-4.23,9.68 -13.78,16.61 -24.08,18.49l-0.09 0.02 -0.09 0.01c-12.76,1.86 -24.61,-1.59 -37.06,-3.7 -64.44,-10.96 -130.39,-8.39 -195.05,-0.76 -11.65,1.93 -19.88,-7.19 -23.33,-17.28 -12.7,-2.41 -24.15,-8.74 -34.57,-16.05 -2.91,-1.92 -5.59,-4.14 -8.11,-6.54 -9.06,-8.64 -16.4,-20.64 -27.09,-27.22l-5.11 -3.14 4.04 -4.44c1.89,-2.07 3.79,-4.12 5.68,-6.17 -0.3,-8.93 0.63,-17.71 4.96,-25.68 1.09,-8.48 -0.37,-16.35 2.29,-24.99l1.29 -4.19 4.32 0.76c9.09,1.6 18.52,1.33 27.7,1.05 17.27,-0.54 34.12,-1.16 49.89,7.14l0.21 0.11 0.19 0.13c15.39,10.04 21.82,26.38 31.67,40.93 4.77,3.67 11.54,4.53 17.26,2.98l0.16 -0.05 0.17 -0.03c25.73,-5.14 52.03,-9.23 78.26,-5.65 1.97,0.27 8.31,1.04 9.01,-1.6 6.72,-28.48 3.96,-58.07 18.14,-84.73 4.65,-9.21 12,-16.42 20.35,-22.24 -27.15,-30.56 -53.39,-62.13 -75.34,-96.68 -16.36,10.73 -34.67,21.73 -54.85,15.96l-0.23 -0.07 -0.22 -0.08c-25.14,-9.87 -37.08,-33.92 -51.98,-54.46 -4.11,-2.91 -8.87,-5.26 -13.27,-7.67 -11.94,-6.53 -22.79,-14.08 -23.6,-28.97l-0.04 -0.8 0.21 -0.77c4.13,-15.22 0.73,-31.43 -1.87,-46.62l-0.49 -2.87 2.26 -1.83c2.11,-1.71 4.25,-3.39 6.39,-5.06 -6.09,-15.71 -12.47,-31.37 -12.22,-48.57 -0.17,-7.72 3.91,-12.58 7.31,-18.86 0.61,-4.17 0.42,-8.31 -0.34,-12.47 -1.35,-7.45 -4.38,-14.68 -7.12,-21.71 -3.37,-8.64 -6.48,-17.28 -7,-26.62 -1.04,-6.99 -0.57,-14.13 1.27,-20.95 7.34,-27.2 35.68,-48.34 64.03,-44.56 6.18,0.67 11.22,3.92 15.38,8.17 4.17,-5.07 8.92,-9.4 15.91,-10.58 20.4,-3.44 39.58,9.01 51.16,24.95 5.96,7.64 9.12,16.37 13.64,24.71 3.52,0.61 7.31,0.56 10.92,1.09 -6.47,-3.61 -12,-8.49 -15.3,-15.89 -11.93,-26.75 -19.98,-55.01 -31.56,-81.88 -6.58,-13.02 -2.48,-26.95 1.34,-40.09l0.03 -0.1 0.03 -0.1c3.64,-10.79 7.36,-21.95 16.95,-28.67 0.89,-18.72 7.07,-36.6 14.16,-53.81l0.07 -0.15c5.58,-12.38 11.87,-25.01 22.89,-33.14 -12.12,-17.09 -17.94,-39.95 -10,-59.69 -14.24,-5.9 -28.54,-11.84 -38.97,-23.81l-0.1 -0.12c-8.65,-10.61 -11.85,-26.45 -5.04,-38.82l0.04 -0.09 0.05 -0.08c1.92,-3.19 4.11,-6.23 6.52,-9.07 14.02,-16.52 35.67,-26.51 57.42,-25.36 11.24,-0.04 21.29,3.79 31.52,7.6 2.79,-16.51 11.53,-31.72 24.98,-41.97 17.3,-13.18 38.85,-21.37 60.72,-21.13 4.15,-9.08 9.64,-17.77 20.18,-20.18 16.78,-5.95 37.23,1 44.4,17.42 20.9,-4.66 43.88,-4.43 61.96,8.37 21.93,15.53 36.15,38.64 50.22,60.97l10.76 17.09c20.71,-2.26 44.37,-2.22 58.16,15.49 30,2.51 49.17,37.77 38.53,65.21 -1.85,4.77 -4.25,9.28 -7.03,13.58 -9.44,14.64 -23.27,26.68 -31.21,42.12 -1.73,3.35 -4.12,7.63 -4.05,11.54 0.23,0.73 0.51,1.43 0.83,2.11 2.51,5.33 6.21,9.22 8,15.17l0.21 0.69 0 0.73c0.05,15.45 -5.91,29.15 -8.66,44.04 -0.58,4.48 -0.28,8.94 0.64,13.35 1.68,8 5.32,15.68 8.77,23.05 6.5,13.89 12.79,27.77 10.36,43.5 -0.05,0.72 -0.14,1.45 -0.25,2.17 -0.51,3.34 -1.64,6.49 -2.85,9.63 -1.17,3 -2.75,6.62 -3.1,10.06 19.35,8.86 39.72,15.37 59.7,22.61 30.9,11.2 62.93,19.08 92.56,33.61 0.92,-0.13 1.86,-0.36 2.72,-0.52 5.47,-1.08 10.58,-0.92 14.12,4.02 31.49,36.93 47.6,83.17 63.32,128.19 2.79,7.4 4.65,15.07 5.86,22.88 3.95,25.4 0.95,51.4 5.32,76.64l0.86 4.97 -4.98 0.79c-4.74,0.75 -9.97,2.07 -13.65,5.28 3.14,2.89 6.31,6.04 9.78,8.07 5.53,-1.3 10.74,-3.42 16.51,-4.11l0.15 -0.02 0.16 -0.01c3.1,-0.17 6.19,0.08 9.23,0.66 6.01,1.14 11.64,3.5 17.21,5.94 8.68,3.81 18.13,8.44 27.86,6.07l0.18 -0.04 0.18 -0.03c2.91,-0.48 5.81,-0.99 8.71,-1.46l7.94 -1.31 -2.39 7.68c-2.28,7.36 -4.98,14.61 -8.88,21.28l-0.12 0.2 -0.14 0.19c-3.99,5.55 -8.6,10.6 -13.38,15.47 -2.66,2.71 -5.84,5.31 -8.3,8.28 0.79,5.08 2.11,10.1 3.28,15.1l0.78 3.32 -2.83 1.92c-14.08,9.55 -32.95,12.94 -48.91,6.19l-0.18 -0.07 -0.18 -0.09c-12.38,-6.43 -19.58,-17.64 -27.82,-28.24 -16.26,-0.54 -32.2,-5.3 -45.39,-15.03l-0.26 -0.19 -0.23 -0.22c-10.47,-10.02 -14.22,-23.21 -18.75,-36.4 -1.11,-0.43 -2.83,-0.66 -3.75,-0.81 -2.13,-0.34 -4.22,-0.7 -6.22,-1.56l-1.63 -0.71 -0.81 -1.57c-3.08,-5.96 -5.07,-12.34 -7.01,-18.73 -2.55,-8.39 -5.13,-17.28 -10.65,-24.28 -10.6,-10.13 -22.9,-18.36 -34.08,-27.82 -15.39,-11.97 -28.21,-26.97 -37.85,-43.89 -4.6,0.3 -9.19,0.73 -13.76,1.28 -0.68,24.28 -2.9,48.7 -11.11,71.72 -7.19,20.14 -14.85,40.87 -31.45,55.32l-0.11 0.09 -0.1 0.09c-3.4,2.64 -5.02,6.82 -6.01,11.02 3.45,0.62 6.91,1.22 10.39,1.71l4.58 0.65 -0.64 9.24 -1.12 0c2.97,1.21 5.9,2.42 8.48,3.84 24.42,11.81 45.74,30.4 58.49,54.55 0.92,1.06 1.98,1.82 3.42,2.06 4.16,0.67 11.12,-3.2 14.92,-4.9l0.11 -0.05 0.12 -0.04c4.32,-1.68 8.79,-2.27 13.41,-1.93 11.05,0.84 20.07,6.55 30.39,9.57l0.17 0.05 0.17 0.06c11.41,4.25 25.13,9.58 24.65,24.27 -0.11,3.56 -2,6.63 -5.23,8.22 -4.69,2.3 -10.6,3.89 -15.65,5.25 -4.77,1.28 -9.65,2.42 -14.38,3.83l-0.15 0.04c-0.85,0.23 -2.01,0.71 -2.77,1.44 0.34,1.47 0.77,2.92 1.27,4.35 0.95,1.44 1.89,2.78 2.77,4.3 4.04,6.93 6.7,15.21 4.9,23.24 0.08,9.57 2.25,20.81 10.37,26.64 8.02,5.39 16.37,10.16 23.84,16.34 5.12,1.91 9.36,1.67 14.47,-0.61l0.47 -0.2 0.5 -0.11c12.48,-2.7 26.68,-2.97 36.49,6.52 1.91,1.52 3.63,3.25 5.2,5.13 3.26,3.92 5.72,8.37 8.08,12.87 4.04,7.71 8.06,16.59 16.62,20.17l0.29 0.12 0.27 0.16c2.14,1.23 4.33,2.36 6.56,3.41 22.1,10.4 46.4,13.09 65.78,29.42 9.86,8.31 20.37,16.2 24.63,28.98 4.08,12.21 -2.08,24.69 -11.41,32.62 4.14,8.96 7.64,19.92 7.51,29.25 0.15,10.76 0.34,21.53 -0.93,32.24l-0.42 3.62 -3.58 0.68c-30.04,5.72 -60.66,5.58 -91.1,4.99 -17.94,-0.36 -35.8,1.47 -53.48,-2.8zm-309.81 -1031.62c-3.76,-7.39 -7.71,-14.65 -10.23,-22.66l-0.98 -3.1 2.45 -2.14c1.23,-1.07 2.64,-1.85 4.15,-2.19 -5.22,-8.27 -11.37,-16.06 -17.39,-23.61 0.75,1.77 1.39,3.63 1.92,5.59l4.86 17.97 -13.17 -13.17c-11.86,-11.85 -24.22,-26.56 -40.96,-31.23 -11.09,-0.89 -22.56,0.28 -33.2,3.54 -17.5,10.1 -32.47,27.26 -35.57,47.71l-0.01 0.09c-1.5,8.78 -0.1,17.84 1.83,26.49 24.52,6.13 49.88,9.84 75.18,8.28l0.15 -0.01c2.37,-0.08 4.71,-0.48 7.01,-1.1 4.42,-1.19 8.68,-3.13 12.84,-5.04 9.27,-4.24 17.99,-8.18 28.44,-7.32 4.42,-0.13 8.67,0.56 12.68,1.9zm18.88 3.13l1.51 3.21 -4.77 2.02c-0.23,0.09 -0.45,0.19 -0.68,0.29 1.85,1.57 3.59,3.28 5.23,5.09 10.08,-8.66 20.7,-16.68 31.61,-24.26l1.02 -0.71 0.64 -0.07 -13.98 -11.02c-7.72,-6.08 -14.82,-12.91 -21.22,-20.35 5.63,10.43 12.16,20.22 15.96,31.55l0.77 2.29 -1.34 2.03c-1.68,2.54 -4.21,4.42 -7.41,4.16 -1.32,-0.11 -2.45,-0.54 -3.45,-1.17 0.06,0.5 0.11,1.01 0.16,1.52l0.33 3.73 -3.49 1.35c-0.3,0.11 -0.59,0.23 -0.89,0.34zm-18.62 -54.35c0.09,-0.19 0.18,-0.37 0.27,-0.56l1.51 -3.11 3.43 0.32c1.6,0.15 3.1,0.62 4.48,1.39 -0.71,-0.99 -1.41,-1.99 -2.1,-2.99 -5.82,-8.48 -12.2,-18.06 -21.51,-23.03 -11.73,-6.26 -25.43,-7.36 -38.39,-4.98 9.86,6.88 19.81,13.69 26.3,23.52l1.31 -1.85c0.91,-1.28 1.8,-2.57 2.7,-3.84l3.07 -4.32 4.12 3.33c5.75,4.67 10.47,10.23 14.81,16.12zm-261.58 424.38l0.06 0.08c3.85,5.7 5.09,12.02 5.55,18.54 4.64,-3.32 8.11,-8.94 6.12,-14.14 -3.96,-1.34 -7.94,-2.76 -11.73,-4.48z"/>
   <path class="fil2" d="M1065.93 608.86c13.8,-2.02 26.35,-9.09 40.33,-10.27 18.07,-1.92 35.88,3 53.25,7.32 39.04,11.15 76.92,26.07 114.19,42.09 13.81,7.4 28.6,13.1 44.34,14.36 5.83,18.5 16.05,35.18 25.62,51.91 26.07,33.59 40.1,75.86 40.48,118.31 -24.1,17.82 -54.11,24.86 -83.54,26.95 -10.65,-12.36 -21.35,-25.11 -35.48,-33.64 -19.13,-11.3 -34.04,-28.46 -46.36,-46.71 18.42,-9.77 38.13,-18.5 52.75,-33.84 6.66,-7.02 11.28,-17.77 21.88,-19.43 9.01,-1.29 14.13,8.15 22.08,10.29 3.08,-0.91 3,-4.94 0.23,-6.26 -5.61,-5.4 -12.95,-8.37 -19.69,-11.96 2.73,-9.18 11.94,-12.57 18.25,-18.67 1.49,-5.51 -7.22,-2.1 -10,-1.79 -14.16,7.34 -21.85,22.03 -31.95,33.64 -18.47,20.14 -42.72,35.83 -69.52,41.86 -29.05,3.49 -58.98,-3.28 -84.34,-17.69 -8.84,-4.94 -16.46,-11.78 -25.19,-16.88 2.8,8.71 13.02,12.67 15.52,21.07 -5.1,2.65 -10.6,4.32 -15.7,6.94 8.84,-0.17 17.29,-3.25 26.1,-3.43 10.42,0.53 19.38,6.46 28.44,10.98 8.63,4.46 18.2,6.48 27.63,8.43 6.41,34.97 -7.01,69.95 -23.95,100.01 -11.4,19.71 -24.58,39.62 -44.46,51.68 -14.89,8.31 -24.96,22.79 -33.77,36.92 -3.58,4.62 -0.68,9.85 2.78,13.51 13.45,-19.44 25.84,-42.17 48.8,-51.69l2.48 0c2.82,6.21 2.87,13.4 6.18,19.51 4.97,9.77 12.95,17.41 20.14,25.49 3.66,3.94 0.98,9.74 -0.96,13.9 -13.78,24.71 -31.5,49.09 -57.64,61.71 -9.44,5.52 -21,3.03 -30.86,7.27 -10.83,4.46 -22.62,5.5 -33.87,8.4 -12.17,3.05 -24.86,-0.61 -37,2.65 -11.68,2.9 -23.82,2.7 -35.51,5.5 -23.16,5.65 -48.93,3.91 -69.7,-8.45 -30.18,-17.27 -56.81,-40.33 -79.47,-66.6 -22.18,-25.64 -44.69,-52.19 -57.04,-84.22 -20.61,-51.43 -25.89,-109.68 -11.02,-163.35 6.2,-25.44 20.64,-49.24 41.71,-65.01 9.79,-7.45 21.83,-10.98 33.92,-12.12 9.19,14.69 26.1,22.36 42.95,23.65 44.8,2.93 89.59,-10.63 127.4,-34.3 14.48,-9.79 23.06,-26.09 37.9,-35.45 8.13,-5.51 17.79,-8.21 25.74,-13.99 4.95,-3.4 9.75,-7.64 15.93,-8.6zm-312.56 -530.63c8.89,-6.08 20.19,-3.35 30.26,-3.86 144.61,0.15 289.24,0.03 433.87,0.05 10.42,0.31 21.1,-1.16 31.4,0.99 8.75,3.91 16.17,10.19 24.25,15.24 96.73,63.37 193.18,127.12 290.04,190.26 0.38,61.15 0.1,122.3 0.15,183.44 -117.37,-0.12 -234.77,0.26 -352.15,-0.2 0.23,-50.6 0.13,-101.2 0.05,-151.8 -12.34,-0.07 -24.68,-0.07 -37.02,0.05 -6.61,-7.39 -14.49,-14.73 -24.86,-15.69 -9.03,-0.48 -12.62,-10.6 -20.64,-13.4 -14.03,-5.68 -29.61,-3.99 -44.29,-2.65 -4.6,-9.72 -11.08,-18.38 -16.84,-27.43 -13.04,-18.88 -25.38,-39.73 -45.52,-51.92 -18.15,-10.98 -40.26,-9.08 -60.29,-5.98 -4.14,-4.39 -6.16,-10.83 -11.79,-13.73 -11.48,-6.41 -26.37,-6.71 -37.8,-0.1 -5.98,3.66 -8.76,10.42 -12.09,16.23 -25.79,-1.46 -51.96,9.54 -69.6,28.26 -9.24,9.54 -14.14,22.24 -16.33,35.16 -14.87,-4.75 -30.13,-11.23 -46.06,-8.03 -22,3.99 -46.06,16.43 -52.47,39.55 -4.31,11.3 0.89,23.14 8.31,31.75 10.07,12.61 25.99,17.61 40.55,23.01 -8.83,20.19 -4.29,45.05 11.13,60.8 -11.81,5.45 -18.7,17.03 -24.25,28.24 -8.96,18.95 -15.42,39.32 -16.78,60.31 -9.97,4.8 -13,16.26 -16.56,25.74 -3.35,12.07 -8.2,25.62 -2.27,37.68 11.56,26.96 19.99,55.09 31.52,82.05 3.56,8.22 9.29,15.82 17.57,19.78 -4.14,2.48 -9.17,3.28 -13.71,1.42 -5.3,-7.95 -8.1,-17.34 -13.95,-25.01 -10.98,-15.83 -29.4,-29.3 -49.57,-26.55 -7.77,0.86 -12.97,7.09 -17.64,12.69 -5.17,-6.03 -11.58,-11.99 -20.19,-11.25 -20.94,1.11 -40.45,13.57 -52.57,30.35 -12.34,17.32 -9.33,40.36 -1.99,59.06 5.1,12.69 11.81,26.9 7.98,40.66 -7.4,8.17 -7.32,19.35 -5.96,29.62 -52.9,-34.75 -105.64,-69.75 -158.29,-104.88 0.23,-128.98 0.06,-257.97 0.08,-386.95 104.73,-67.71 209.64,-135.17 314.32,-202.96zm434.4 709.1c6.41,-0.33 12.82,-0.5 19.26,-0.45 12.79,27 37.93,44.14 61.09,61.47 18.5,12.45 19.74,36.72 28.17,55.52 3.84,-0.98 7.67,-1.99 11.53,-2.97 4.42,12.57 6.56,28.19 18.78,35.88 12.99,9.59 28.87,13.98 44.89,14.11 8.26,10.35 15.55,22.46 27.66,28.75 14.39,6.08 31.47,2.9 44.19,-5.73 0.43,-9.67 -0.17,-19.99 6.31,-27.99 4.6,-4.7 9.06,-9.56 12.9,-14.89 6.43,-7.92 10.42,-17.44 12.97,-27.26 -6.94,1.47 -13.68,4.22 -20.82,4.27 -16,-2.1 -28.95,-14.51 -45.38,-14.66 -5.35,0.55 -10.37,2.47 -15.39,4.24 -4.32,-1.82 -8.58,-3.71 -12.82,-5.66 3.48,-6.84 10.42,-9.43 17.74,-9.99 -4.34,-25.54 -1.87,-51.58 -5.22,-77.2 59.03,37.2 117.93,74.63 177.06,111.7 2.49,2.04 6.56,3.58 6.31,7.47 1.31,114.27 0.75,228.62 0.9,342.91 -0.1,17.64 1.95,35.41 -0.07,53 -15.77,12.9 -33.89,22.74 -50.5,34.57 -85.85,57.19 -171.86,114.17 -257.67,171.41 -6.36,4.49 -14.48,3.46 -21.83,3.66 -167.34,-1.41 -334.73,-0.55 -502.08,-0.78 -10.52,0.07 -17.92,-8.58 -26.22,-13.76 -97.21,-67.81 -194.17,-135.97 -291.61,-203.45 -2.45,-58.6 -3.76,-117.23 -5.35,-175.85 45.4,-0.15 90.8,0.28 136.2,-0.2 -5.75,10.42 0.03,24.43 -10.27,32.48 10.95,6.89 18.1,17.79 26.85,27 12.9,10.77 27.84,20.59 44.87,22.76 2.1,8.81 8.86,19.18 19.34,17.01 52.11,-6.23 104.75,-8.98 157.19,-5.52l0 0.47c0.11,38.44 0.11,76.9 0,115.36 141.96,0.23 283.94,0.05 425.92,0.08 0,-34.75 0,-69.5 0,-104.28 35.69,-7.7 71.04,-16.96 106.91,-23.9 9.53,-1.77 19.58,-3.96 29.12,-0.96 18.32,5.23 32,20.95 39.12,38.11 1.36,3.43 3.18,8.71 -1.27,10.75 -10.6,3.76 -21.72,-1.04 -32.53,-0.1 -11.02,12.09 -15.39,29.15 -27.88,40.07l-1.54 0.84 -1.16 1.33c-3.33,2.65 -6.41,9.17 -1.57,11.92 11.38,5.83 24.71,5.3 37.18,6.03 39.9,-0.51 80.55,5.4 119.87,-3.59 3.46,-21.04 -0.2,-42.72 -7.92,-62.43 8.55,-6.18 16.45,-16.41 13.8,-27.58 -3.71,-17.14 -18.65,-28.42 -32.43,-37.66 -23.52,-16.6 -51.99,-23.17 -77.68,-35.38 -7.11,-15.65 -14.13,-35.43 -32.25,-40.98 -13.25,-4.57 -25.84,6.36 -39.04,2.07l1.24 -1.24c-1.32,-0.03 -3.97,-0.05 -5.3,-0.08 -7.9,-7.8 -18.63,-12.06 -26.3,-20.09 -4.67,-7.59 -6.31,-16.55 -9.84,-24.65l-0.13 -0.43 -0.07 -0.28c-0.51,-3.48 -0.74,-7.11 -3.21,-9.84 -0.02,-7.04 -1.64,-13.88 -2.47,-20.82 8.4,-10.12 24.15,-6.97 34.6,-13.96 5.22,-4.09 2.27,-11.45 -1.69,-15.24 -7.45,-7.02 -17.54,-9.77 -26.81,-13.48 -6.76,-2.39 -13.17,-5.72 -20.13,-7.42 -11.39,-1.64 -20.82,6.01 -31.3,8.86l0.2 -3.78c1.11,-19.21 0.23,-38.44 0.43,-57.67 -24.35,-2.75 -48.7,-5.63 -73.06,-8.48 -5.2,-0.73 -10.37,-1.71 -15.52,-2.62 4.32,-15.37 19.66,-22.72 26.35,-36.57 17.26,-31.87 26.07,-68.09 27.38,-104.23zm-519.24 348.44c39.82,-0.25 79.67,-0.1 119.52,-0.1 -1.36,4.87 -0.63,12.5 -7.19,13.53 -5.08,0.4 -10.15,-0.61 -15.2,-0.98 -22.89,-2.3 -45.83,1.21 -68.24,5.77 -5.98,1.29 -13.3,2.2 -18.29,-2.14 -4.17,-4.95 -7.22,-10.65 -10.6,-16.08zm405.8 -30.38c6.97,3.08 13.88,6.74 18.7,12.87 -5.42,1.79 -11.02,2.85 -16.7,3.31 -0.71,-5.4 -1.39,-10.8 -2,-16.18zm-137.64 -19.91c6.14,-0.28 12.39,-1.39 18.48,-0.05 5.09,5.12 7.52,12.24 12.46,17.51 12.17,12.59 28.67,19.41 42.15,30.34 -11.43,0.78 -24,1.31 -33.82,-5.61 -15.77,-11 -33.16,-22.94 -39.27,-42.19zm-28.29 -1.14c7.6,-0.07 15.17,0.3 22.74,1.14 1.26,13.35 13.43,20.44 20.01,30.94 -17.71,-4.52 -31.47,-18.37 -42.75,-32.08zm53.58 -1.39c8.28,-1.36 16.63,-2.29 25.01,-2.95 1.84,14.41 10.02,26.73 16.5,39.37 -18.32,-5.35 -33.46,-19.23 -41.51,-36.42zm44.82 -1.96c-2.9,-7.63 8.93,-6.74 13.5,-5.53 10.12,17.79 25.79,31.82 34.2,50.78 -4.19,0.58 -8.69,2.85 -12.82,1.11 -7.15,-5.56 -11.87,-13.48 -17.59,-20.35 -6.24,-8.3 -13.83,-16.02 -17.29,-26.01zm-14.03 -3.81c2.5,-0.46 5,-0.81 7.52,-1.06 2.75,5.09 2.85,11.25 5.9,16.27 8.15,13.45 19.66,24.46 27.92,37.81 -5.76,0.22 -14.26,4.16 -18,-2.2 -9.56,-15.92 -23.72,-31.04 -23.34,-50.82zm45.83 -2.78c3.68,-1.26 7.39,-2.4 11.15,-3.46 3.71,10.68 9.34,20.54 16.25,29.5 4.65,5.4 5.3,12.57 5.81,19.39 -8.53,-2.12 -11.43,-10.78 -15.22,-17.59 -5,-9.9 -11.71,-18.76 -17.99,-27.84zm-6.69 -1.79c10.22,14.03 20.39,28.46 24.08,45.8 -11.54,-11.56 -17.37,-27.48 -29.51,-38.54 1.72,-2.49 3.54,-4.92 5.43,-7.26zm25.56 3.38c-4.21,-8.33 7.27,-8.66 12.57,-10.9 -0.45,14.28 13.68,20.36 20.9,30.58 5.27,7.25 14.51,9.97 19.71,17.29 -3.69,0.4 -7.62,3.48 -11.26,1.59 -17.11,-8.55 -33.66,-20.77 -41.92,-38.56zm15.98 -12.17c2.04,-0.63 6.13,-1.91 8.18,-2.57 11.05,16.83 28.99,27.18 42.09,42.1 2.83,4.01 -2.32,8.05 -5.98,5.75 -15.6,-6.82 -25.74,-21.05 -37.25,-32.91 -3.53,-3.38 -5.65,-7.77 -7.04,-12.37zm21 -5.7c1.11,-0.23 3.35,-0.63 4.49,-0.83 14.66,11.48 25.49,27.03 39.7,39.09 1.41,6.64 -8.23,7.42 -11.76,3.79 -12.5,-10 -24.59,-20.9 -34.4,-33.57 -3.18,-2.9 -1.94,-7.22 1.97,-8.48zm11.71 -0.88c-3.36,-6.11 3.35,-7.37 6.91,-3.48 13.27,11.73 26.05,24.17 40.38,34.7 -5.3,10.8 -17.34,1.43 -22.64,-4.55 -7.27,-9.79 -17.54,-16.86 -24.65,-26.67zm14.03 -14.08c0.98,-0.23 2.98,-0.66 3.96,-0.89 10.04,8.33 17.24,20.02 29.02,26.37 4.24,3.46 12.12,4.9 11.61,11.74 -10.7,3.89 -20.06,-4.29 -27.56,-10.8 -6.91,-6.61 -14.23,-12.85 -20.52,-20.04 0.06,-2.85 1.22,-4.97 3.49,-6.38zm8.28 -5.86c0.55,-4.09 4.18,-6.18 7.06,-8.5 7.29,10.87 16.38,20.97 28.37,26.72 4.26,2.73 10.29,4.01 12.19,9.29 -1.95,2.27 -3.94,4.52 -6.01,6.69 -16.61,-7.35 -32.68,-17.92 -41.61,-34.2zm13.62 -10.35c-3.3,-4.82 1.77,-8.9 4.32,-12.49 11.61,12.24 23.32,24.53 37.5,33.87 7.12,2.67 -1.14,12.16 -6.13,8.43 -14.14,-6.49 -28.97,-15.07 -35.69,-29.81zm8.05 -19.43c1.47,-4.04 5.78,-10.75 10.7,-7.09 11.69,10.98 21.08,25.84 37.25,30.76 -2.57,5.1 -4.16,12.42 -10.22,14.36 -11.83,-5.67 -18.39,-17.89 -29.07,-25.16 -3.68,-3.43 -11.46,-6.61 -8.66,-12.87zm10.78 -25.92c10.75,1.59 15.49,12.27 22.06,19.54 5.62,7.26 14.25,11.25 20.44,17.89 -0.18,2.2 -0.58,6.59 -0.78,8.76 -19.16,-4.77 -28.98,-24.28 -45.03,-34.37 1.09,-3.94 2.17,-7.9 3.31,-11.82zm-15.12 -27.53c3.64,-3.05 8.66,3.41 5.61,6.64 -3.69,2.9 -8.43,-3.43 -5.61,-6.64zm17.54 21.33c-2.34,-9.72 -6.41,-18.93 -8.1,-28.8 19.89,7.47 35.89,22.23 48.99,38.54 3.2,3.28 2.97,7.97 3.28,12.24 -13.15,-14.46 -26.6,-29.28 -43.81,-38.99 2.27,4.06 5.04,7.84 8.55,10.95 11,9.99 21.58,20.52 31.04,32 2.53,2.7 3.79,6.23 3.74,9.94 -6.14,4.02 -10.98,-3.05 -14.39,-7.24 -7.87,-11.31 -17.21,-21.76 -29.3,-28.64zm128.56 -104.28c1.18,-2.25 3.05,-2.95 5.63,-2.12 4.49,8.71 6.41,18.45 8.45,27.96 -7.95,-6.36 -12.39,-16 -14.08,-25.84zm26.32 -5.76c1.24,0.1 3.68,0.31 4.92,0.41 2.98,9.06 5.96,18.24 7.82,27.61 0.74,5.95 -6.43,3.78 -7.42,-0.05 -3.71,-8.74 -6.66,-18.4 -5.32,-27.97zm-14.26 5.15c-2.09,-4.59 4.59,-4.59 6.94,-6.11 2.55,10.83 5.58,21.53 8.08,32.38 -3.06,-1.41 -7.65,-1.16 -8.68,-5.09 -3.13,-6.69 -5.28,-13.86 -6.34,-21.18zm26.52 -9.69c1.9,0.05 5.68,0.15 7.58,0.23 1.94,9.71 5.27,19.33 5.24,29.32 -0.2,3.54 -6.68,3.81 -7.36,0.61 -4.5,-9.31 -6.29,-19.86 -5.46,-30.16zm15.68 -2.57c0.25,-4.47 6.66,-2.45 9.66,-3.23 1.47,12.09 1.89,24.32 0.28,36.44 -1.39,-0.66 -4.22,-1.97 -5.63,-2.6 -2.7,-9.92 -4.59,-20.34 -4.31,-30.61zm16.15 -4.7c1.97,-1.61 4.14,-2.95 6.48,-4.01 -0.07,11.48 2.17,22.69 5.03,33.74 -2.86,2.45 -6.87,2.17 -10.28,3.11 -1.56,-10.83 -3.5,-21.99 -1.23,-32.84zm14.31 -7.59c2.22,-1.52 4.51,-2.93 6.89,-4.22 1.33,11.36 3.81,22.64 3.98,34.12 -0.78,4.01 -5.88,4.01 -8.65,5.98 -3.03,-11.63 -5.3,-24.05 -2.22,-35.88zm-673.19 -55.17c5.55,-1.82 12.59,-3.76 16.5,2.07 7.78,6.06 3.49,16.4 4.04,24.68 0.79,22.59 3.08,45.25 7.9,67.36 4.01,15.16 10.47,30.13 9.44,46.15 -7.85,8.31 -18.62,13.38 -29.43,16.69 -15.04,4.21 -31.01,-4.07 -39.74,-16.23 -8.43,-11.86 -19.41,-22.01 -25.04,-35.66 -5.42,-13.93 -25.81,-10.27 -31.19,-24.18 -4.34,-8.07 0.3,-16.35 2.5,-24.2 -0.91,-9.51 -6.36,-19.03 -2.88,-28.64 2.8,-6.39 10.98,-6.51 16.71,-8.76 10.5,-3.66 21.62,-3.81 32.6,-3.23 6.16,1.01 10.58,-3.86 15.27,-6.86 6.79,-5.18 15.37,-6.72 23.32,-9.19zm-51 -18.5c-0.36,-4.64 4.74,-4.64 7.77,-6.03 2.45,11.23 4.34,22.66 4.32,34.19 -1.09,-0.17 -3.26,-0.47 -4.35,-0.63 -3.73,-8.75 -6.66,-18.04 -7.74,-27.53zm-12.9 -8.28c1.77,0.26 5.3,0.76 7.07,1.01 0.33,12.04 5.15,23.3 6.26,35.16 -3.46,0.4 -6.89,0.7 -10.35,0.91 -1.77,-5.18 -3.79,-10.25 -6.26,-15.1 1.99,-7.16 2.83,-14.58 3.28,-21.98zm26.25 3.59c2.29,-1.72 4.36,-3.96 7.22,-4.72 3.45,11.18 4.94,22.86 5.37,34.52 -2.2,0.15 -6.56,0.43 -8.73,0.58 -2,-10.04 -2.75,-20.24 -3.86,-30.38zm-46.11 -13.38c5.15,1.39 14.56,2.93 12.14,10.45 -1.79,11.79 0.38,23.47 1.99,35.13 2.55,4.29 -7.19,4.01 -6.36,0.28 -3.03,-15.2 -8.7,-30.16 -7.77,-45.86zm-12.37 2.73c-0.2,-3.99 7.35,-5.07 6.67,0.1 2.37,17.41 8.05,34.14 10.8,51.48 -7.93,-1.51 -7.6,-10.12 -9.67,-16.23 -2.7,-11.76 -10.29,-22.83 -7.8,-35.35zm72.74 -4.85c1.08,-3.63 4.84,-13.2 8.65,-6.69 2.48,15.17 3.21,30.67 6.59,45.73 -4.22,-0.12 -8.56,0.46 -12.62,-0.91 -4.49,-12.03 -3.71,-25.54 -2.62,-38.13zm15.16 -5.42c4.6,-2.22 9.19,-4.39 13.81,-6.54 0.76,11.63 -1.19,23.39 1.49,34.9 2.42,6.16 -5.48,8.56 -8.51,12.39 -7.9,-11.98 -5.53,-27.18 -6.79,-40.75zm77.93 -59.36c-2.85,-8.35 -5.37,-16.81 -8.7,-24.98 2.37,0.88 7.09,2.62 9.46,3.48 -0.3,7.17 -0.48,14.33 -0.76,21.5zm138.93 -27.79c3.51,-0.2 7.02,-0.37 10.52,-0.58 1.87,9.01 6.09,18.7 2.81,27.81 -3.69,1.97 -9.27,6.06 -12.77,1.8 -2.07,-9.54 -1.21,-19.39 -0.56,-29.03zm-22.69 -1.31c4.32,0.03 8.66,-0.02 12.95,0.48 3.33,10.3 3.48,21.3 4.39,32 -5.32,1.21 -11.18,5.65 -16.58,2.63 -3.58,-11.36 -0.83,-23.47 -0.76,-35.11zm-12.61 0.33c1.33,0.68 3.98,2.07 5.32,2.75 0.55,11.18 1.09,22.36 2.2,33.51 -3.26,0.64 -6.51,1.47 -9.82,1.42 -5.55,-11.79 -4.87,-26.73 2.3,-37.68zm-20.9 4.27c0.91,-4.98 7.04,-3.13 10.62,-4.27 0.26,12.54 -0.22,25.06 -0.7,37.6 -4.85,-0.35 -9.64,-0.75 -14.46,-1.23 1.61,-10.68 2.02,-21.58 4.54,-32.1zm73.29 -4.47c5.22,-1.11 10.49,-2.12 15.74,-3.21 1.67,7.5 5.23,15.02 4.27,22.82 -2.85,4.77 -8.61,8.53 -14.21,8.78 -5,-8.25 -4.34,-19 -5.8,-28.39zm-89.62 0.45c0.2,-3.61 10.02,-5.88 8.25,-0.27 0.23,11.33 -1.38,22.58 -1.99,33.86 -3.68,-1.69 -9.87,-1.31 -11.23,-5.9 0.4,-9.39 2.04,-18.78 4.97,-27.69zm-14.49 13.4c0.86,-6.38 0.56,-15.49 8.69,-16.88 -0.99,8.55 -1.57,17.44 -5.08,25.46 -4.74,-0.02 -3.58,-5.37 -3.61,-8.58zm128.08 -20.34c3.18,-3.18 7.62,-4.39 11.61,-6.18 2.09,7.6 4.64,15.17 5.33,23.09 -2.91,3.91 -9.77,9.34 -13.94,4.22 -4.21,-5.91 -6.38,-14.36 -3,-21.13zm20.37 -12.39c2.92,-2.57 6.31,-4.62 9.56,-6.74 3.03,8.36 4.52,17.11 5.1,25.95 -3.33,2.02 -6.46,4.56 -10.25,5.65 -3.55,-3.23 -3.71,-8.68 -5.07,-13.02 -0.23,-3.81 -3.26,-8.99 0.66,-11.84zm26.87 -8.45c3.01,0.58 6.01,1.28 8.99,2.09 -0.56,3.41 -2.5,5.38 -5.88,5.86 -1.14,-2.63 -2.17,-5.28 -3.11,-7.95zm-12.29 -5.88c12.02,1.91 10.28,16.25 10.15,25.31 -1.69,0.05 -5.05,0.13 -6.74,0.18 -1.08,-8.51 -2.4,-16.96 -3.41,-25.49zm-210.42 140.67l0 0c-5.63,18.92 -7.47,39.26 -7.5,59 7.65,11.03 17.92,19.94 27.01,29.75 7.92,0.63 15.82,1.29 23.75,1.87 1.01,10.02 2.62,19.99 2.82,30.08 -1.21,-0.17 -3.63,-0.5 -4.87,-0.65 -2.12,-7.93 -2.7,-16.13 -3.88,-24.2 -14.84,0.93 -29.71,0.75 -44.57,0.88 1.44,12.77 1.49,25.99 5.47,38.33 7.65,9.29 17.7,16.33 26.6,24.38 5.71,5.93 14.24,3.56 21.53,3.66 9.11,-0.48 18.3,0.43 27.38,-0.78 6.69,-7.67 11.71,-16.66 17.59,-24.91 4.55,-5.81 0.99,-13.35 0.48,-19.84 -2.85,-13.8 -2.32,-27.98 -4.26,-41.86 -7.45,-9.87 -16.46,-18.6 -24.91,-27.61 -7.45,-3.69 -16.53,-2.63 -24.66,-3.97 0.91,-9.46 1.16,-19.05 3.61,-28.26 1.24,-0.13 3.74,-0.33 4.97,-0.43 -0.28,8.05 -1.46,16.05 -2.47,24.03 14.99,0.78 30.03,0.53 45.05,0.27 0.5,-12.72 4.69,-25.13 4.29,-37.8 -6.16,-9.69 -13.02,-19.03 -20.17,-28.01 -13.73,-1.85 -27.88,-1.37 -41.74,-0.91 -11.38,7.79 -21.8,17.21 -31.52,26.98zm120.58 -12.82l0 0c-6.53,6.46 -16.83,11.25 -17.87,21.42 -6.43,39.5 -6.58,80.15 0.43,119.57 0.71,8.13 8.63,11.96 14.16,16.71 7.5,5.32 14.01,12.21 22.44,16.1 13.52,0.86 27.1,-0.33 40.65,0.03 6.01,-9.77 13.61,-18.5 19.28,-28.47 -0.98,-18.65 -5.67,-37.1 -6.18,-55.9 -14.61,-0.38 -29.22,-0.3 -43.84,-0.1 0.61,13.98 1.77,27.96 3.99,41.79 -1.54,0.4 -4.57,1.24 -6.11,1.64 -5.45,-29.98 -5.95,-60.72 -2.67,-90.98 0.78,-5.42 0.35,-13.3 7.9,-13.37 -1.11,11.91 -2.32,23.85 -2.85,35.81 14.73,0.6 29.5,0.73 44.24,-0.05 -0.03,-16 3.43,-31.7 4.44,-47.55 -5.63,-10.24 -13.43,-19.13 -19.51,-29.1 -12.37,0.33 -24.71,-0.15 -37.02,-0.38 -9.26,-0.9 -14.77,8.03 -21.48,12.83zm224.05 202.39l0 0c-0.48,5.4 1.01,11.84 -3,16.26 -9.36,11.05 -25.82,11.98 -35,23.21 -9.95,11.31 -12.22,27.26 -10.48,41.77 1.87,0.08 5.61,0.23 7.47,0.3 0.76,-14.33 1.82,-31.64 14.87,-40.58 12.01,-6.81 27.38,-11.08 33.66,-24.68 3.66,-6.38 2.7,-20.11 -7.52,-16.28z"/>
   <path class="fil3" d="M1337.57 1305.35c1.04,6.28 7.09,12.72 13.79,10.29 9.21,-2.7 11.05,-13.08 16.02,-19.99 4.87,-6.71 9.56,-14.44 17.57,-17.77 -2.91,14.36 -19.66,21.78 -20.12,37.15 11.86,3.89 25.09,3.86 35.84,-3.13 3.35,-16.81 9.79,-34.5 24.12,-44.97 3.71,-2.9 5.81,-0.08 7.55,3.05 -18.63,6.29 -24.93,27.84 -27.51,45.33 16.56,-1.59 33.26,-3.41 49.84,-1.29 8.08,0 18.63,1.89 24.48,-4.97 0.23,-2.32 0.08,-25.17 0.11,-25.17 0.83,-10.52 -10.05,-18.89 -8.41,-29.32 0.88,-7.54 9.79,-10.52 10.98,-17.94 1.71,-10.67 -5.48,-20.04 -12.27,-27.41 -9.28,-10.5 -23.32,-13.98 -35.4,-20.04 -18.5,-8.8 -37.51,-17.05 -54.26,-28.97 -3.54,-1.94 -4.42,-5.95 -5.66,-9.38 -3.96,-13.46 -15.59,-23.25 -28.01,-28.7 -13.86,0.67 -27.48,7.42 -32.55,6.21 -7.22,-4.67 -13,-11.41 -20.85,-15.14 -4.62,-2.68 -10.72,-3.71 -13.4,-8.81 -5.83,-10.27 -9.59,-22.26 -7.52,-34.15 0.29,-2.35 -3.16,-8.2 -5.68,-12.11 -0.56,-0.87 -1.07,-1.65 -1.49,-2.26 -0.63,-0.93 -1.03,-1.5 -1.03,-1.5 -7.57,-15.24 -20.75,-26.55 -33.74,-37.02 -4.92,-3.86 -8.86,-9.01 -14.74,-11.51 -3.71,10.88 -5.3,22.64 -11.66,32.46 -13.8,23.04 -30.71,44.89 -52.69,60.66 -30.47,22.29 -68.19,30.11 -104.69,35.99 -9.41,1.39 -19.3,1.09 -28.06,5.4 19.99,17.19 45.38,31.62 72.63,28.92 -5.2,-13.09 -21.8,-14.99 -28.39,-26.82 11.99,2.77 21.1,12.08 29.91,20.16 14.76,17.31 27.93,38.18 49.59,47.6 20.97,4.21 42.87,5.8 62.78,14.38 13.51,6.13 29.78,8.41 43.69,2.4 23.29,-11.38 49.54,-13.88 74.98,-16.51 6.21,-0.7 12.11,-3.73 16.53,-8.12 3.98,-4.67 5.98,-10.83 10.75,-14.84 -0.81,6.66 -2.98,13.22 -2.32,20.04 6.41,-2.37 10.47,-8 15.37,-12.44 -1.72,4.54 -3.61,8.98 -5.28,13.55 12.03,4.24 19.87,12.08 29.22,19.41 8.96,8.02 19.97,17.76 18.05,31.16 0.23,8.53 -4.45,7.73 -10.56,10.97 -6.85,1.16 -21.29,0.45 -25.92,-0.88 -4.24,4.91 -9.05,9.68 -10.69,16.21 0.12,3.14 -13.41,15.39 -20.9,19.82zm-4.13 1.6c0.07,-3.4 20.49,-22.43 22.28,-24.95 3.05,-4.72 5.45,-9.85 9.04,-14.19 4.49,-1.83 21.88,-0.13 28.89,0.56 3.72,-0.61 6.81,-1.77 8.46,-3.89 0.65,-18.42 -12.87,-32.48 -26.21,-43.73 -8.88,-7.33 -27.91,-13.33 -39.31,-10.48 -36.36,9.16 -72.55,19.26 -109.2,27.36 -19.03,-2.7 -36.54,-11.63 -55.19,-16.2 -12.21,-4.01 -25.01,-5.56 -37.48,-8.46 -15.06,-7.59 -22.71,-24 -35.76,-34.14 -4.03,-3.48 -9.56,-3.74 -14.56,-4.52 -22.03,-3 -43.83,-10.95 -66.29,-7.7 -42.02,6.64 -86.69,5.81 -125.25,26.1 2.77,8.3 6.86,17.13 4.41,26.07 -3.56,8.15 -11.73,14 -20.41,15.59 -11.99,1.75 -23.78,-1.71 -35.51,-3.68 -64.96,-11.08 -131.41,-8.48 -196.6,-0.78 -10.19,1.76 -16.68,-8.13 -18.72,-16.76 -13.17,-1.77 -25.01,-8.28 -35.74,-15.8 -13.83,-9.13 -21.14,-25.11 -35.33,-33.84 2.35,-2.57 4.72,-5.12 7.07,-7.67 -0.48,-8.96 0.1,-18 4.69,-25.92 1.24,-8.25 -0.27,-16.93 2.25,-25.14 25.16,4.45 52.54,-4.72 76.14,7.7 14.53,9.49 21.22,26.37 30.69,40.18 6.03,5.04 14.73,6.41 22.25,4.36 25.14,-5.02 50.98,-9.03 76.62,-5.6 5.1,0.76 12.87,0.88 14.51,-5.37 6.54,-27.71 4.04,-57.87 17.75,-83.64 5.12,-10.14 13.93,-17.64 23.46,-23.47 -29.45,-32.96 -58.04,-67 -81.38,-104.63 -16.03,10.55 -34.8,23.9 -54.99,18.12 -23.93,-9.39 -35.92,-33.79 -50.25,-53.4 -12.84,-9.41 -34.42,-14.26 -35.46,-33.34 4.39,-16.15 0.99,-32.68 -1.76,-48.76 3.05,-2.47 6.13,-4.87 9.23,-7.26 -6.18,-16.15 -13.5,-32.61 -13.22,-50.25 -0.18,-6.59 4.24,-11.73 7.12,-17.24 3.81,-22.46 -13.18,-41.01 -14.29,-62.91 -5.1,-32.81 27.38,-64.38 59.81,-60.06 6.92,0.75 12.14,5.8 16.1,11.12 4.29,-5.72 8.99,-12.26 16.56,-13.57 18.5,-3.08 35.91,8.63 46.36,23.04 6.18,7.9 9.41,17.49 14.36,26.09 4.74,1.27 9.74,0.89 14.56,1.82 4.64,6.87 4.82,15.34 5,23.29 10.7,-2.37 20.74,-15.11 14.31,-25.74 -11.71,-3.88 -25.04,-8.33 -30.47,-20.57 -11.96,-26.75 -19.98,-55.06 -31.59,-81.96 -5.96,-11.64 -1.79,-24.86 1.61,-36.6 3.46,-10.27 7.07,-21.78 17.11,-27.45 0.38,-19.03 6.72,-37.3 13.88,-54.72 5.83,-12.92 12.62,-26.8 25.59,-33.92 -14.2,-17.23 -21.7,-42.82 -10.52,-63.54 -14.86,-6.26 -31.01,-11.96 -41.92,-24.48 -7.37,-9.04 -10.37,-22.69 -4.54,-33.29 12.19,-20.29 35.79,-33.34 59.56,-32.02 12.59,-0.08 24.18,5.32 35.81,9.46 1.29,-17.54 9.69,-34.22 23.82,-44.85 17.21,-13.24 39.04,-21.14 60.9,-20.01 3.66,-8.53 8.33,-18.32 18.37,-20.46 15.6,-5.71 35.43,1.49 39.8,18.52 20.57,-5.33 44.16,-6.21 62.31,6.54 21.2,15.11 35.23,37.88 48.88,59.55 -11.78,-9.28 -22.13,-20.36 -30.58,-32.75 -6.42,-9.29 -13.13,-19.06 -23.27,-24.61 -16.05,-8.43 -35.31,-8.35 -52.27,-2.75 14.64,11.05 33.54,20.37 38.71,39.52 -12.79,-12.79 -25.41,-27.76 -43.6,-32.63 -12.04,-1.03 -24.53,0.25 -36.07,3.86 -19.03,10.83 -35.13,29.38 -38.48,51.56 -1.79,10.52 0.15,21.15 2.57,31.39 25.92,6.69 52.8,10.83 79.65,9.16 17.08,-0.55 30.46,-15.04 48,-13.45 13.32,-0.5 24.68,7.55 32.4,17.77 11.08,-9.84 22.87,-18.83 35.03,-27.28 20.09,-2.45 45.45,-3.94 58.42,14.99 27.92,0.61 46.36,33.57 36.52,58.57 -8.1,21.3 -27.66,35.24 -38.03,55.22 -2.27,4.57 -4.95,9.39 -4.57,14.66 1.82,6.52 7.07,11.41 9.01,17.87 0.05,14.87 -5.96,28.82 -8.61,43.26 -3.81,28.92 24.38,51.15 19.74,80.12 -0.5,8.86 -7.22,16.79 -6.18,25.59 20.29,9.59 41.89,16.28 62.94,24.11 31.19,11.1 63.54,19.18 93.32,34.01 4.6,-0.2 10.53,-3.38 13.83,1.47 31.12,36.39 47.07,82.37 62.61,126.89 11.89,31.57 5.28,65.97 10.93,98.62 -7.67,1.21 -15.54,3.76 -19.78,10.78 5.37,4.16 9.74,9.74 15.97,12.72 6.01,-1.19 11.71,-3.69 17.82,-4.42 19.53,-1.08 35.45,17.34 55.19,12.54 2.9,-0.48 5.78,-0.98 8.71,-1.46 -2.17,6.99 -4.72,13.91 -8.43,20.24 -3.84,5.33 -8.3,10.19 -12.9,14.89 -3.38,3.43 -7.19,6.46 -9.97,10.4 0.76,5.95 2.3,11.76 3.66,17.59 -12.72,8.63 -29.8,11.81 -44.19,5.73 -12.11,-6.29 -19.4,-18.4 -27.66,-28.75 -16.02,-0.13 -31.9,-4.52 -44.89,-14.11 -10.1,-9.66 -13.61,-23.31 -18.05,-36.03 -3,-2.75 -8.35,-2.07 -12.13,-3.71 -7.32,-14.16 -8.18,-31.37 -18.4,-44.09 -10.75,-10.32 -23.25,-18.68 -34.63,-28.32 -15.72,-12.21 -28.67,-27.68 -38.16,-45.17 -7.19,0.38 -14.33,1.06 -21.45,2.04 -0.53,25.09 -2.29,50.63 -10.92,74.43 -6.74,19.25 -14.24,39.49 -30.04,53.25 -5.9,4.59 -7.62,11.93 -8.78,18.95 5.15,0.91 10.32,1.89 15.52,2.62 -2.6,0 -7.77,-0.02 -10.37,-0.05 -1.36,0 -4.06,0.03 -5.43,0.03 7.12,6.76 17.12,8.58 25.52,13.25 23.65,11.4 44.37,29.42 56.6,52.89 6.82,8.58 16.79,2.4 24.53,-1.06 14.19,-5.5 27.41,3.91 40.61,7.77 9.14,3.41 21.81,7.66 21.43,19.46 -0.04,0.98 -0.36,2.89 -2.46,3.92 -6.89,3.38 -21.75,6.53 -29.27,8.78 -3.59,0.95 -5.87,3.09 -6.75,5.31 0.45,2.54 1.16,5.04 2.05,7.49 0.11,0.24 1.43,1.93 2.96,4.59 2.72,4.64 6.19,12.47 4.22,20.16 0,11.43 2.72,24.28 12.57,31.34 8.07,5.43 16.58,10.25 24.05,16.56 6.81,2.75 12.59,2.47 19.05,-0.41 10.75,-2.32 23.67,-2.97 32.15,5.4 13.58,10.63 14.44,31.98 31.27,39.02 22.84,13.17 51,15.07 71.62,32.33 8.91,7.62 19.26,15.17 23.12,26.75 3.83,11.48 -3.66,23.27 -12.95,29.58 3.74,7.27 8.94,20.04 8.79,30.78 0.14,10.53 0.35,21.1 -0.89,31.6 -29.68,5.65 -59.99,5.38 -90.07,4.9 -17.54,-0.46 -35.51,1.49 -52.69,-2.73 -6.11,-0.63 -5.89,-6.58 -5.78,-11.46zm-403.74 -1072.86c1.39,0.13 4.19,0.38 5.6,0.51 7.93,12.62 11.61,28.06 10.23,42.93 -0.66,4.87 -1.12,12.06 -7.9,11.3 1.28,-7.95 3.12,-16 2.14,-24.1 -1.16,-10.8 -6.26,-20.62 -10.07,-30.64zm-72.93 5.43c1.23,0.86 3.68,2.55 4.92,3.41 -6.23,7.34 -11.05,15.8 -17.49,22.96l-3.61 -0.53c1.84,-10.32 10.45,-17.54 16.18,-25.84zm176.75 2.55c4.82,0.45 6.31,5.55 8.69,8.98 5.5,10.23 12.09,20.02 15.8,31.1 -3.69,5.57 -7,-2.22 -8.69,-5.3 -4.97,-11.01 -11.96,-20.9 -17.31,-31.68 0.38,-0.78 1.14,-2.32 1.51,-3.1zm-111.14 9.54c9.04,2.12 7.98,13.48 9.19,20.74 -0.61,6.36 3.51,18.02 -5.96,19.11 1.19,-13.43 -0.8,-26.7 -3.23,-39.85zm63.15 11.05c1.21,-0.58 3.65,-1.71 4.89,-2.27 3.48,7.3 6.46,14.87 8.88,22.59 -1.33,0.35 -3.98,1.08 -5.32,1.44 -2.83,-7.25 -5.65,-14.49 -8.45,-21.76zm37.5 4.87c4.14,-3.61 6.43,2.25 8.17,4.85 4.07,7.52 7.37,15.39 11.01,23.09 -1.32,0.56 -3.94,1.64 -5.28,2.17 -4.54,-10.07 -10.57,-19.53 -13.9,-30.11zm106.22 83.33c7.77,1.44 12.62,8.64 19.43,12.17 -8.61,4.72 -16.78,-4.67 -19.43,-12.17zm-2.17 12.57c4.82,1.42 8.25,5.43 12.26,8.23 3.79,1.36 0.15,4.74 -2.22,4.27 -5.88,-0.46 -10.72,-6.77 -10.04,-12.5zm-182.72 22.06c7.73,-6.61 16.26,-15.5 27.51,-12.72 -3.35,6.01 -10.24,8.18 -15.19,12.52 -7.9,5.57 -14.44,15.44 -25.39,13.7 1.44,-6.81 8.46,-9.24 13.07,-13.5zm30.52 0.05c9.21,-5.48 19.7,-12.82 30.96,-9.64 5.48,1.77 13.1,5.1 11.96,12.16 -5.5,1.62 -9.54,-3.43 -14.51,-4.72 -4.84,-0.22 -9.51,1.32 -14.11,2.6 9.95,4.87 16.56,14.62 15.63,25.92 5.55,-4.36 11.07,-11.4 19.07,-9.16l1.62 3.36c-6.66,5.07 -13.73,9.69 -19.18,16.17 0.86,3.51 1.62,7.02 2.37,10.55 -6.89,-2.12 -13.37,-6.1 -20.79,-5.75 -12.7,-0.35 -25.69,-1.92 -38.14,1.41 -7.41,1.92 -14.81,4.12 -22.48,4.67 -0.05,-7.37 6.79,-8.98 12.26,-11.18 -1.38,-3.83 -2.75,-7.65 -4.03,-11.51 -7.15,-4.31 -15.68,-3.91 -23.32,-6.46 -1.26,-6.13 6.28,-5.27 10.14,-5.9 7.67,1.08 14.64,5.02 22.41,5.65 12.19,-1.92 20.22,-11.94 30.14,-18.17zm-33.19 25.51c1.84,3.71 3.76,7.42 5.7,11.08 3.64,-0.88 7.32,-1.61 10.85,-2.9 -0.93,-3.38 -2.09,-6.69 -3.25,-9.99 -4.44,0.58 -8.88,1.16 -13.3,1.81zm182.56 -31.49c2.83,-1.79 8.1,0.02 8.03,3.76 -1.69,5.12 -11.71,0.76 -8.03,-3.76zm-79.9 5.53c5.38,1.49 11.23,3.91 13.63,9.41 5.93,11.83 2.32,26.35 -4.72,36.9 -1.16,-0.06 -3.48,-0.16 -4.64,-0.21 0.58,-10.45 7.04,-20.67 3.35,-31.24 -2.7,-4.97 -8.02,-8.58 -7.62,-14.86zm-30.84 43.15c6.01,-8.25 24.1,-3.05 22.97,7.52 -7.02,-4.59 -16.38,-2.85 -22.97,-7.52zm-219.15 26.1c3.58,-4.55 9.29,-11.11 15.42,-6.59 -3.61,3.46 -7.27,6.86 -10.8,10.42 -1.54,-1.29 -3.08,-2.57 -4.62,-3.83zm217.56 -4.6c5.78,2.07 11.79,9.06 9.47,15.42 -7.22,0.88 -13.68,-9.87 -9.47,-15.42zm54.19 12.47c7.59,1.01 19.12,2.37 19.71,12.11 -0.36,7.27 -2.76,14.64 -6.97,20.6 -1.19,-0.23 -3.56,-0.69 -4.74,-0.91 -1.97,-6.29 3.1,-13.02 3.4,-19.59 -4.59,-3.28 -10.22,-6.15 -11.4,-12.21zm42.97 25.08c-0.43,-9.26 2.78,-21.02 12.98,-23.49 -1.97,8.63 -5.89,16.91 -4.7,25.99 3.36,-4.77 6.03,-10.19 10.93,-13.68 -1.26,13.63 -3.11,27.59 3.63,40.18 -4.49,-0.18 -8.83,-1.79 -10.6,-6.16 -4.16,-7.52 -10.62,-14.15 -12.24,-22.84zm-51.15 -13.09c2.47,-0.43 4.94,-0.76 7.44,-0.99 1.95,3.56 0.74,9.84 -4.16,9.59 -4.42,0.08 -2.4,-6.03 -3.28,-8.6zm-261.86 45.75c6.67,-2.95 12.75,-7.29 19.84,-9.21 14.64,-2.75 27.76,6.11 42.07,7.27 -4.54,9.08 -14.84,4.11 -22.28,2.5 1.05,4.84 1.46,9.81 0.6,14.73 -5.2,-4.21 -7.62,-10.52 -10.32,-16.43 -0.78,0.51 -2.32,1.57 -3.08,2.1 3.05,5.5 5.88,11.33 5.48,17.82 -9.52,-2.32 -9.72,-13.81 -16.31,-19.59 -4.94,9.47 6.04,17.04 4.32,25.95 -1.24,-0.08 -3.71,-0.23 -4.95,-0.31 -3.86,-6.21 -4.97,-14.08 -10.75,-19.02 1.44,8.95 6.49,16.63 10.12,24.78 -1.23,1.03 -3.73,3.15 -4.97,4.21 0.98,7.32 1.94,14.71 1.16,22.13 -1.31,-1.06 -3.94,-3.15 -5.27,-4.21 -1.37,-12.72 -2.35,-26.83 -11.76,-36.57 -4.37,-6.76 -14.69,2.8 -17.29,-5.88 7.39,-4.29 15.77,-6.43 23.39,-10.27zm296.43 8.35c-5.42,-5.12 -5.7,-13.75 0.41,-18.52 2.55,2.47 5.37,4.59 8.5,6.33 0.1,1.44 0.3,4.29 0.43,5.73 2.35,2.27 4.19,4.9 4.42,8.31 9.59,1.48 -3.81,16.63 8.53,15.11 -0.91,4.6 -1.62,9.24 -2.3,13.88 -4.01,-2.85 -9.16,-4.49 -12.14,-8.55 0.08,-2.17 0.2,-6.54 0.28,-8.73 -3.76,-3.99 -11.76,-6.89 -8.13,-13.56zm-207.95 55.78c1.59,0.07 4.75,0.22 6.31,0.3 2.5,7.52 2.98,15.44 4.72,23.14 7.04,10.4 19.41,16.48 31.93,16.3 3.91,-0.85 2.49,6.04 0.07,6.94 -12.26,0.96 -24.48,-4.16 -33.87,-11.86 -9.79,-8.53 -10.65,-22.79 -9.16,-34.82zm237.73 371.3c10.22,-3.83 11.18,9.9 7.52,16.28 -6.28,13.6 -21.65,17.87 -33.66,24.68 -13.05,8.94 -14.11,26.25 -14.87,40.58 -1.86,-0.07 -5.6,-0.22 -7.47,-0.3 -1.74,-14.51 0.53,-30.46 10.48,-41.77 9.18,-11.23 25.64,-12.16 35,-23.21 4.01,-4.42 2.52,-10.86 3,-16.26zm248.36 211.59c2.87,1.94 5.78,4.03 8.12,6.66 12.6,13.78 26.73,26.8 43.81,34.78 5.88,2.87 12.75,3.1 18.5,6.28 1.14,5.22 -5.93,3.48 -8.88,3.08 -21.58,-5.2 -38.79,-20.49 -53.96,-35.94 -3.78,-4.21 -9.33,-8.35 -7.59,-14.86zm-643.56 28.82c21.98,-3.03 44.26,-4.32 66.42,-2.93 10.8,1.06 22.89,2.9 30.56,11.38 0.15,3.91 -2.5,4.75 -5.32,2.42 -14.11,-9.36 -31.75,-8.65 -47.95,-8.58 -17.01,-0.25 -33.82,2.7 -50.7,4.17 -6.09,-6.13 3.91,-5.18 6.99,-6.46zm101.62 -933.1c3.41,-14.66 14.06,-26.45 25.42,-35.79 5.15,8 -6.39,11.99 -9.67,18.1 -5.88,5.27 -6.51,17.79 -15.75,17.69zm179.44 -30.64c0.68,-0.96 2.02,-2.88 2.7,-3.83 8.65,7.01 14.94,16.4 21.15,25.56 6.81,11 13.32,22.91 14.51,36.06 -1.24,0.48 -3.74,1.44 -4.97,1.92 -3.94,-23.27 -19.16,-41.84 -33.39,-59.71zm-135.65 0.38c0.98,0.48 2.98,1.39 3.96,1.87 -6.84,12.06 -13.25,24.33 -18.27,37.3 -1.54,0.05 -4.67,0.17 -6.21,0.22 5.68,-13.6 10.1,-28.49 20.52,-39.39zm-94.84 533.38c9.72,-9.77 20.14,-19.19 31.52,-26.98 13.86,-0.46 28.01,-0.94 41.74,0.91 7.15,8.98 14.01,18.32 20.17,28.01 0.4,12.67 -3.79,25.08 -4.29,37.8 -15.02,0.26 -30.06,0.51 -45.05,-0.27 1.01,-7.98 2.19,-15.98 2.47,-24.03 -1.23,0.1 -3.73,0.3 -4.97,0.43 -2.45,9.21 -2.7,18.8 -3.61,28.26 8.13,1.34 17.21,0.28 24.66,3.97 8.45,9.01 17.46,17.74 24.91,27.61 1.94,13.88 1.41,28.06 4.26,41.86 0.51,6.49 4.07,14.03 -0.48,19.84 -5.88,8.25 -10.9,17.24 -17.59,24.91 -9.08,1.21 -18.27,0.3 -27.38,0.78 -7.29,-0.1 -15.82,2.27 -21.53,-3.66 -8.9,-8.05 -18.95,-15.09 -26.6,-24.38 -3.98,-12.34 -4.03,-25.56 -5.47,-38.33 14.86,-0.13 29.73,0.05 44.57,-0.88 1.18,8.07 1.76,16.27 3.88,24.2 1.24,0.15 3.66,0.48 4.87,0.65 -0.2,-10.09 -1.81,-20.06 -2.82,-30.08 -7.93,-0.58 -15.83,-1.24 -23.75,-1.87 -9.09,-9.81 -19.36,-18.72 -27.01,-29.75 0.03,-19.74 1.87,-40.08 7.5,-59zm34.6 -18.3c-9.29,7.49 -18.67,15.04 -26.95,23.65 -4.42,16.45 -5.35,33.71 -6.72,50.67 7.55,8 15.12,16.03 22.64,24.08 9.39,0.83 18.8,1.66 28.24,2.27 0.99,15.37 2.9,30.66 4.97,45.93 -7.67,1.03 -15.47,1.44 -23.19,1.06 -2.45,-7.72 -2.75,-15.93 -3.63,-23.93 -9.16,0.08 -18.35,0 -27.54,0.16 0.91,8.32 2.15,16.6 3.39,24.88 9.18,8.1 17.84,16.98 27.96,23.92 11.73,-0.68 23.72,0.53 35.28,-1.01 5.8,-7.24 10.55,-15.24 15.85,-22.84 -3.54,-16.83 -4.45,-33.99 -5.88,-51.05 -6.92,-8.43 -14.46,-16.5 -22.31,-24.02 -9.29,-2.05 -18.88,-2.23 -28.29,-3.18 0.83,-15.42 2.77,-30.72 5.42,-45.91 7.98,-0.05 15.95,0.13 23.93,0.73 -1.52,7.95 -2.7,15.95 -3.76,23.98 9.03,-0.08 18.07,-0.05 27.1,-0.08 1.04,-8.53 2.12,-17.08 3.91,-25.49 -5.55,-8 -11.38,-15.8 -17.01,-23.72 -11.13,0.48 -22.33,-0.66 -33.41,-0.1zm85.98 5.48c6.71,-4.8 12.22,-13.73 21.48,-12.83 12.31,0.23 24.65,0.71 37.02,0.38 6.08,9.97 13.88,18.86 19.51,29.1 -1.01,15.85 -4.47,31.55 -4.44,47.55 -14.74,0.78 -29.51,0.65 -44.24,0.05 0.53,-11.96 1.74,-23.9 2.85,-35.81 -7.55,0.07 -7.12,7.95 -7.9,13.37 -3.28,30.26 -2.78,61 2.67,90.98 1.54,-0.4 4.57,-1.24 6.11,-1.64 -2.22,-13.83 -3.38,-27.81 -3.99,-41.79 14.62,-0.2 29.23,-0.28 43.84,0.1 0.51,18.8 5.2,37.25 6.18,55.9 -5.67,9.97 -13.27,18.7 -19.28,28.47 -13.55,-0.36 -27.13,0.83 -40.65,-0.03 -8.43,-3.89 -14.94,-10.78 -22.44,-16.1 -5.53,-4.75 -13.45,-8.58 -14.16,-16.71 -7.01,-39.42 -6.86,-80.07 -0.43,-119.57 1.04,-10.17 11.34,-14.96 17.87,-21.42zm-8.38 19.55c-6.94,40.36 -8.12,82.38 0.76,122.48 9.14,8.6 19.56,15.74 29.48,23.44 10.92,-0.78 21.9,-0.45 32.88,-0.45 5.1,-7.57 10.3,-15.09 15.72,-22.44 -2.5,-14.71 -4.67,-29.52 -5.53,-44.44 -8.85,-0.05 -17.71,-0.08 -26.57,0.08 0.99,14.23 2.85,28.39 5.35,42.47 -8.23,0.38 -16.45,0.35 -24.71,0.33 -7.29,-39.73 -7.41,-80.68 -0.63,-120.48 8.21,-0.05 16.41,-0.03 24.63,-0.05 -1.99,11.71 -3.43,23.49 -4.46,35.33 8.78,0.02 17.56,0.02 26.34,0.02 0.94,-12.26 2.33,-24.5 4.42,-36.61 -5.35,-7.47 -10.7,-14.94 -15.65,-22.67 -11.53,0.03 -23.06,0.1 -34.54,-0.75 -9.24,7.82 -18.58,15.54 -27.49,23.74zm59.71 -540.99l3.41 -1.11c11.43,16.58 16.35,37.27 17.74,57.13 -1.11,0.91 -3.36,2.7 -4.47,3.61 -2.67,-14.84 -4.46,-30.11 -10.9,-43.91 -2.12,-5.15 -5.27,-10.07 -5.78,-15.72zm348.04 788.85c-2.73,-3.8 -6.71,-6.88 -11.51,-7.91 -8.55,-2.01 -17.44,-3.63 -24.91,-8.58 -11.4,-7.42 -23.72,2.88 -35.45,3.91 11.71,7.93 22.03,17.59 32,27.56 1.36,0.1 4,0.31 5.5,0.41 1.41,-1.54 3.01,-2.7 4.01,-3.26 -0.22,-0.21 23.22,-7.88 26.06,-8.57 1.84,-1.62 5.07,-2.48 4.3,-3.56zm-407.87 -813.86c-19.89,4.54 -40.89,10.77 -55.32,26.07 -10.02,10.14 -14.56,25.91 -9.92,39.59 17.19,8.28 35.26,14.79 52.95,21.98 0.43,-13.35 -0.71,-27.18 3.73,-40 7.24,-16.96 21.7,-29.04 33.69,-42.57 -8.4,-1.57 -16.33,-8.03 -25.13,-5.07zm-113.72 56.75c35.63,14.87 69.2,34.55 106.07,46.39 26.47,7.87 54.76,13 82.2,7.22 -11.21,-3.87 -23.2,-2.98 -34.76,-4.57 -22.25,-2.7 -45.04,-6.06 -65.18,-16.51 -18.35,-8.68 -36.7,-17.43 -54.99,-26.24 -10.32,-5.15 -21.86,-7.22 -33.34,-6.29zm277.7 54.72c-3.71,9.21 -16.22,7.85 -20.84,16.17 -1.99,2.85 -3.99,5.71 -6.18,8.41 -1.21,-1.52 -3.66,-4.57 -4.9,-6.11 -2.52,0.51 -7.57,1.52 -10.12,2.02 3.13,-9.46 15.14,-11.89 18.37,-21.4 2.5,-5.05 0,-13.07 -6.18,-13.6 -19.23,-3.13 -37.5,7.04 -52.19,18.42 -7.27,5.05 -11.91,14.36 -21.68,14.81 -0.23,1.82 -0.63,5.48 -0.83,7.3 7.87,-2.18 16.05,-2.78 24.2,-2.73 -6.96,7.37 -17.08,9.36 -25.29,14.71 15.9,-1.33 33.11,-5.09 47.73,3.66 2.9,2.3 10.39,4.02 7.37,9.04 -8.94,-1.62 -16.26,-8.33 -25.44,-8.89 -12.62,0.51 -25.26,2.58 -37.3,6.44 -16.03,4.82 -28.85,16.58 -45,21.17 -9.13,2.45 -18.62,5.35 -28.16,4.09 7.04,-10.35 21.3,-6.76 31.49,-11.66 15.22,-6.48 28.34,-17.54 44.7,-21.63 -2.4,-5.02 -4.82,-10.01 -7.55,-14.89 -5.12,1.85 -10.22,3.74 -15.34,5.56 -1.47,4.89 -2.23,10.42 -6.14,14.1 -24.65,2.35 -48.32,-5.45 -70.99,-14.18 -2.77,-1.59 -6.94,-3.2 -6.03,-7.17 20.85,1.17 39.65,17.19 61.17,12.85 3.29,-5.65 8.53,-12.17 6.62,-18.98 -9.37,-1.01 -6.64,13.05 -13.48,17.21 1.21,-6.36 3.61,-12.41 4.42,-18.85 -10.58,-3.68 -21.53,-6.18 -31.73,-10.88 -1.23,3.28 -2.42,6.57 -3.58,9.87 2.9,0.35 5.83,0.71 8.76,0.99 1.97,-1.95 4.01,-3.81 6.16,-5.58l-1.32 6.79c3.51,1.01 6.99,2.09 10.48,3.25 -3.13,2.07 -6.11,5.23 -10.2,4.95 -14.38,0.98 -25.11,-10.32 -37.48,-15.72 -12.31,-8.23 -31.21,-8.13 -41.46,3.33 12.04,2.27 23.45,7.42 32.61,15.65 8.63,6.76 14.73,17.43 25.79,20.66 3.63,1.62 9.08,1.26 10.45,5.91 -8.21,4.44 -17.19,-1.67 -24.23,-5.78 -14.29,-10.65 -25.31,-27.51 -43.94,-30.99 -9.11,-2.25 -14.96,6.21 -20.04,12.19 -7.77,9.84 -12.82,24.3 -6.18,35.96 3.99,2.57 8.33,4.62 12.04,7.65 1.54,-1.95 3.03,-3.94 4.44,-5.98 0.43,-7.85 -9.59,-12.32 -8.4,-20.32 9.99,0.73 14.76,12.74 25.18,12.8 0.2,-3.84 0.36,-7.65 0.51,-11.49 18.37,7.78 42.14,9.21 53.52,27.97 6.36,8.47 0.51,18.14 -2.12,26.75 0.66,6.2 7.78,3.88 11.84,2.75 13.33,-5.3 28.59,-3.81 41.24,2.67 29.45,17.92 65.99,18.93 99.15,13.78 -3.3,7.32 -11.56,7.95 -18.34,9.72 12.18,12.94 33.41,16.55 39.84,34.72 -9.31,-5.4 -17.33,-12.79 -26.97,-17.69 -8.66,-4.44 -16.03,-10.83 -22.99,-17.51 -7.37,-2.4 -15.6,-1.39 -23.3,-1.74 11.43,23.19 33.67,37.45 54.59,51.08 -4.97,0.15 -10.05,-0.23 -14.41,-2.78 -17.39,-8.91 -30.66,-23.85 -42.5,-39.04 -2.55,-3.06 -2.88,-7.14 -3.96,-10.8 -5.43,-1.21 -10.9,-2.33 -16.41,-3.21 2.86,10.83 10.2,19.94 11.97,31.14 5.75,1.16 10.37,4.57 10.52,10.93 2.62,-1.51 5.25,-3.03 7.87,-4.57 7.98,6.36 13.3,15.3 13.56,25.69 -0.94,0.99 -2.83,2.98 -3.76,3.97 -2.58,-7.9 -3.64,-16.71 -9.82,-22.82 -2.58,3.06 -5.18,6.11 -7.82,9.11 -2.55,-5.07 -3.94,-10.75 -7.37,-15.32 -2.88,1.75 -5.83,3.34 -8.84,4.8 -2.27,-8.71 -0.85,-18.37 -5.8,-26.27 -4.8,-7.78 -11.16,-14.44 -16.46,-21.81 -7.69,-3.2 -15.04,-7.19 -22.56,-10.77 -8.65,-1.62 -18.12,-1.01 -26.12,2.92 5.73,2.96 14.41,3.49 16.51,10.81 -0.84,7.36 -1.82,14.94 -3.71,22.08 -7.8,5.55 -17.19,0.65 -24.58,-3.06 -6.34,-0.53 -10.45,5.46 -15.3,8.53 -4.39,-4.76 -8.3,-10.47 -14.56,-12.97 -4.44,-2.47 -11.38,-3.3 -11.91,-9.56 2.7,-10.07 7.35,-19.48 16.86,-24.58 -10.07,1.46 -20.67,2.65 -29.15,8.83 -18.7,12.69 -41.16,22.74 -52.44,43.48 -8.86,14.44 -9.77,34.5 0.45,48.43 7.27,4.09 11.44,-4.87 15.3,-9.41 -2.3,-4.95 -4.27,-10.35 -3.08,-15.88 2.57,-16.1 10.62,-33.05 26.37,-39.84 -0.63,9.16 -5.35,17.89 -3.13,27.18 4.19,-1.74 8.2,-4.04 12.64,-5.23 4.37,-0.7 7.9,2.65 11.49,4.54 7.24,-6.33 16.75,-4.03 23.59,1.65 3.36,-1.7 6.62,-3.87 10.43,-4.47 6.05,-0.18 10.44,4.47 14.86,7.92 9.11,-4.99 17.89,1.29 24,7.88 8.66,-6.67 16.96,-14.14 27.21,-18.3 -2.5,5.48 -5.68,10.6 -8.69,15.82 0.33,5.13 0.46,10.25 0.56,15.4 14.26,5.8 30.36,8.86 45.63,6.05 -5.68,-8.68 -18.22,-11.38 -21.28,-21.62 17.49,1.49 29.86,17.31 34.83,33.01 3.99,10.27 1.92,22.1 7.39,31.87 7.57,16.35 30.04,12.24 41.72,24.1 -17.46,6.13 -35.43,-5.37 -47.9,-16.88 -11.13,3.81 -23.7,9.29 -35.13,3.5 -14.16,-7.39 -22.69,-21.85 -29.68,-35.65 -5.6,-12.93 -17.01,-23.95 -30.86,-27.41 -15.07,-2.75 -30.51,-2.68 -45.75,-1.99 -12.27,0.53 -23.6,5.6 -35.51,7.89 -8.76,2.02 -19.16,5.18 -22.21,14.77 -4.27,8.68 1.74,17.31 3.15,25.84 -2.87,-1.16 -5.75,-2.32 -8.63,-3.51 -3.51,6.92 -0.2,15.04 -3.61,22.03 -7.01,15.8 -11.98,34.23 -5.85,51.11 5.93,13.58 19.2,24.45 34.35,25.26 -3.08,-4.62 -6.06,-9.39 -6.41,-15.07 -3.01,-3.58 -6.52,-7.52 -5.66,-12.61 -0.15,-12.82 8.03,-23.25 11.64,-34.98 -6.31,5.32 -8.76,13.47 -12.39,20.62 -1.8,-1.67 -3.61,-3.34 -5.41,-5 2.75,-11.94 3.89,-27.91 16.61,-33.64 -3.31,-8.1 -8.28,-15.42 -11.53,-23.57 5.68,1.13 9.49,5.4 12.03,10.29 11.84,18.91 7.63,42.55 16.01,62.69 1.94,-0.3 5.85,-0.93 7.79,-1.23 1.21,10.09 5.6,22.46 17.24,24.02 -1.54,-6.26 -3.56,-12.42 -4.32,-18.83 7.75,5.25 6.94,17.57 15.98,21.05 -1.21,-6.46 -4.12,-12.79 -2.98,-19.48 4.17,6.56 6.56,14.48 12.59,19.68 5.94,-1.01 2.91,-8.25 3.74,-12.16 3.48,4.36 6.76,9.59 13.05,9.84 0.45,-12.84 -9.04,-22.84 -11.51,-35.03 14.71,7.14 12.52,28.57 26.27,37.15 13.35,10.9 31.47,7.85 47.01,4.85 9.19,-1.29 16.61,-7.15 25.09,-10.35 9.09,-3.89 19.43,-4.9 27.48,-11.03 2.17,-1.94 5.71,-3.63 5.35,-7.09 -2.37,-5.07 -6.36,-9.19 -10.06,-13.27 -5.56,-4.24 -12.98,-5.88 -17.22,-11.81 6.79,-2.38 16.21,8.12 19.79,-0.81 3.23,3.3 6.51,6.61 9.89,9.79 0.41,-4.32 0.91,-8.61 1.46,-12.9 4.75,9.95 7.65,21.33 17.06,28.14 -0.32,-5.3 -0.83,-10.57 -0.9,-15.87 6.41,8.53 7.59,21.07 18.32,25.94 -1.49,-6.84 -4.32,-13.25 -5.73,-20.06 4.57,4.62 7.55,10.6 12.52,14.84 9.33,-4.62 17.49,-11.56 27.66,-14.61 -11.23,-9.22 -21.81,-20.32 -25.22,-34.91 -2.95,-12.87 -12.72,-22.46 -17.05,-34.65 12.23,5.68 16.78,19.41 23.84,29.93 1.75,-3.96 3.49,-7.95 5.4,-11.83 4.14,9.89 0.11,20.92 2.8,31.09l2.68 -0.13c2.45,-7.69 1.26,-17.16 9.14,-22.03 -0.26,6.84 -1.16,13.63 -2.12,20.42 0.73,0.91 2.22,2.75 2.95,3.68 -1.44,2.35 -2.9,4.72 -4.06,7.25 3.1,1.79 4.94,1.03 5.57,-2.25 2.3,-8.88 -1.56,-20.72 7.57,-26.5 0.21,5.76 -0.73,11.46 -1.99,17.06 0.68,0.08 2.04,0.23 2.7,0.28 1.19,-4.44 2.52,-8.88 5.15,-12.75 1.79,9.11 -0.51,18.3 0.2,27.49 6.97,-3.92 4.04,-12.57 5.73,-18.91 1.92,1.64 3.84,3.34 5.75,5.03 1.19,-1.24 3.56,-3.71 4.75,-4.95 1.34,4.97 -0.15,10.07 -0.33,15.09 6.01,-2.07 7.82,-8.38 10.65,-13.37 0.23,3.43 0.45,6.86 0.76,10.32 1.86,-0.25 5.65,-0.78 7.54,-1.04 1.54,-3.58 3.03,-7.19 4.85,-10.62 0.58,3.58 1.29,7.14 2.07,10.7 3.4,-0.2 8.1,0.73 10.5,-2.25 2.67,-6.23 4.46,-12.94 8.7,-18.39 -0.43,7.54 -1.81,15.01 -2.24,22.56 5.45,-3.76 8.88,-9.57 9.56,-16.1 1.31,-9.06 6.44,-16.74 9.67,-25.09 -4.39,-20.11 -18.4,-37.53 -18.1,-58.72 -0.81,-10.68 5.71,-19.87 7.02,-30.21 2.62,-11.66 -2.48,-23.12 -7.9,-33.14 -2.95,-4.9 -5.58,-10.93 -11.56,-12.62 -1.11,5.13 -1.21,10.96 -5.58,14.56 -0.75,-6.1 -0.48,-12.26 -1.18,-18.34 -7.42,-5.23 -6.11,6.56 -8.58,10.72 -2.07,-7.14 -3.54,-14.43 -5.58,-21.57 -2.15,5.37 -3.43,11.02 -5.6,16.4 -1.09,-6.06 -1.74,-12.16 -2.68,-18.25 -2.14,-1.89 -4.19,-3.83 -6.16,-5.9 -1.46,-8.94 3.74,-17.74 2.2,-26.6 -5.96,-4.27 -14.21,-4.72 -19.41,-10.52 -4.64,1.53 -9.16,3.83 -14.13,3.78 1.94,-6.23 6.23,-12.14 1.11,-18.3 4.59,-0.35 9.24,-0.48 13.88,-0.63 8.4,-8.43 15.65,-18.07 24.96,-25.56 5.38,-4.04 13.98,-8.13 19.63,-2.32 5.73,5.22 1.32,13.25 1.42,19.78 -0.79,4.77 4.16,8.15 4.19,12.87 -6.34,11.79 -15.45,21.83 -22.24,33.34 -2.09,3.41 -2.97,7.5 -2.42,11.46 10.95,7.69 23.09,13.52 34.25,20.94 2.57,2.6 7.09,1.67 8.58,-1.61 8.07,-14.51 17.26,-28.32 27.2,-41.62 8.96,-11.13 13.07,-26.55 9.26,-40.5 -3.58,-12.37 -14.56,-23.5 -28.01,-23.7 -1.21,13.68 7.95,28.87 -0.98,41.36 -7.3,-17.16 2.14,-41.11 -15.42,-53.55 -25.04,-16.07 -59.26,-0.28 -73.37,23.4zm-210.32 3.68c2.75,4.87 7.83,7.8 13.15,9.09 2.09,-2.28 3.05,-4.95 2.93,-8.05 -5.23,-1.42 -10.73,-1.11 -16.08,-1.04zm68.24 15.24c-3.53,5.38 -5.6,11.54 -8.1,17.44 3.69,0.89 7.5,1.84 11.36,1.11 2.12,-4.09 1.36,-8.02 -2.3,-11.81 2.5,-1.59 4.97,-3.23 7.45,-4.87 -2.7,-0.98 -5.43,-2.37 -8.41,-1.87zm-117.17 50.05c-2.83,3.48 -5.02,7.52 -6.54,11.73 0.33,9.29 7.22,18.05 17.06,17.8 0.94,-7.25 1.47,-14.92 5.65,-21.15 3.31,-5.4 9.07,-9.19 10.83,-15.52 -8.4,4.49 -18.12,4.39 -27,7.14zm-16.68 28.74c-13.45,9.67 -20.14,26.25 -24.56,41.69 14.84,-12.18 31.5,-21.8 47.09,-32.88 -7.31,-3.43 -14.03,-15.57 -22.53,-8.81zm49.97 17.01c-0.79,2.73 -1.44,5.48 -1.92,8.28 -1.52,2.14 -3.03,4.29 -4.52,6.46 4.09,1.74 8.13,3.56 12.16,5.45 3.08,-4.44 2.1,-9.44 0.48,-14.23 4.62,-1.52 9.32,-2.78 13.93,-4.22 -5.88,-3.83 -13.75,-5.25 -20.13,-1.74zm-57.09 77.73c5.07,-1.13 10.15,-2.3 15.24,-3.38 -5.88,-10.12 -7.09,-22.03 -6.56,-33.51 -9.08,9.74 -15.32,24.05 -8.68,36.89zm19.41 -4.92c6.31,-1.39 12.54,-3.05 18.67,-5.15 -2.12,-5.3 -1.94,-15.65 -9.79,-15.32 -9.03,2.07 -9.72,12.92 -8.88,20.47zm22.96 -5.53c5.68,-0.65 11.36,-1.41 17.01,-2.29 -1.64,-5.25 -3.25,-15.57 -11.18,-12.8 -7.04,1.67 -6.41,9.47 -5.83,15.09zm23.75 -1.01c5.88,-0.17 11.79,-0.53 17.67,-0.9 -0.68,-6.46 -5.86,-11.99 -12.77,-10.33 -5.78,0.48 -5.08,7.04 -4.9,11.23zm24.33 0.28c4.77,0.63 10.45,5.65 14.58,1.31 -1.41,-7.64 -14.46,-12.03 -14.58,-1.31zm24.2 8.08c3,4.74 7.5,8.25 11.43,12.19 -1.51,-9.52 -0.93,-19.13 0.2,-28.62 -4.79,4.64 -10.22,9.64 -11.63,16.43zm-163.28 47.19c10.83,-10.09 3.38,-30.26 17.14,-38.16 -0.66,-3.43 -1.34,-6.84 -2.02,-10.22 -11.66,13.12 -15.68,31.22 -15.12,48.38zm17.16 -33.97c-3.33,1.72 -3.38,3.43 -0.18,5.15 3.33,-1.72 3.41,-3.43 0.18,-5.15zm-9.44 27.08c-1.23,6.81 -3.15,13.83 -1.41,20.77 4.67,-13.12 8.23,-27.16 8.43,-41.16 -4.19,6.03 -5.66,13.32 -7.02,20.39zm13.91 -20.14c0.83,4.19 3.08,7.27 6.71,9.26 -6.26,10.5 -9.59,22.51 -11.48,34.53 4.49,-3.84 5.37,-10 7.95,-15.04 2.32,-5.66 6.36,-10.35 9.41,-15.58 0.51,-7.46 -5.42,-12.74 -12.59,-13.17zm398.81 62.56c5.4,-5.5 5.98,-13.5 6.82,-20.72 -6.49,4.85 -6.77,13.35 -6.82,20.72zm-401.77 3.76c-0.85,-3.08 -1.84,-6.08 -3.02,-9.01 0.55,-2.62 1.06,-5.24 1.59,-7.87 -5.43,4.62 -6.39,14.08 1.43,16.88zm325.23 15.02c-6.18,0.96 -10.98,5.2 -15.93,8.6 -7.95,5.78 -17.61,8.48 -25.74,13.99 -14.84,9.36 -23.42,25.66 -37.9,35.45 -37.81,23.67 -82.6,37.23 -127.4,34.3 -16.85,-1.29 -33.76,-8.96 -42.95,-23.65 -12.09,1.14 -24.13,4.67 -33.92,12.12 -21.07,15.77 -35.51,39.57 -41.71,65.01 -14.87,53.67 -9.59,111.92 11.02,163.35 12.35,32.03 34.86,58.58 57.04,84.22 22.66,26.27 49.29,49.33 79.47,66.6 20.77,12.36 46.54,14.1 69.7,8.45 11.69,-2.8 23.83,-2.6 35.51,-5.5 12.14,-3.26 24.83,0.4 37,-2.65 11.25,-2.9 23.04,-3.94 33.87,-8.4 9.86,-4.24 21.42,-1.75 30.86,-7.27 26.14,-12.62 43.86,-37 57.64,-61.71 1.94,-4.16 4.62,-9.96 0.96,-13.9 -7.19,-8.08 -15.17,-15.72 -20.14,-25.49 -3.31,-6.11 -3.36,-13.3 -6.18,-19.51l-2.48 0c-22.96,9.52 -35.35,32.25 -48.8,51.69 -3.46,-3.66 -6.36,-8.89 -2.78,-13.51 8.81,-14.13 18.88,-28.61 33.77,-36.92 19.88,-12.06 33.06,-31.97 44.46,-51.68 16.94,-30.06 30.36,-65.04 23.95,-100.01 -9.43,-1.95 -19,-3.97 -27.63,-8.43 -9.06,-4.52 -18.02,-10.45 -28.44,-10.98 -8.81,0.18 -17.26,3.26 -26.1,3.43 5.1,-2.62 10.6,-4.29 15.7,-6.94 -2.5,-8.4 -12.72,-12.36 -15.52,-21.07 8.73,5.1 16.35,11.94 25.19,16.88 25.36,14.41 55.29,21.18 84.34,17.69 26.8,-6.03 51.05,-21.72 69.52,-41.86 10.1,-11.61 17.79,-26.3 31.95,-33.64 2.78,-0.31 11.49,-3.72 10,1.79 -6.31,6.1 -15.52,9.49 -18.25,18.67 6.74,3.59 14.08,6.56 19.69,11.96 2.77,1.32 2.85,5.35 -0.23,6.26 -7.95,-2.14 -13.07,-11.58 -22.08,-10.29 -10.6,1.66 -15.22,12.41 -21.88,19.43 -14.62,15.34 -34.33,24.07 -52.75,33.84 12.32,18.25 27.23,35.41 46.36,46.71 14.13,8.53 24.83,21.28 35.48,33.64 29.43,-2.09 59.44,-9.13 83.54,-26.95 -0.38,-42.45 -14.41,-84.72 -40.48,-118.31 -9.57,-16.73 -19.79,-33.41 -25.62,-51.91 -15.74,-1.26 -30.53,-6.96 -44.34,-14.36 -37.27,-16.02 -75.15,-30.94 -114.19,-42.09 -17.37,-4.32 -35.18,-9.24 -53.25,-7.32 -13.98,1.18 -26.53,8.25 -40.33,10.27zm-281.64 -3.08c-3.16,6.36 -4.37,13.43 -6.06,20.24l3.43 -4.9c1.67,3.49 2.75,7.17 2.38,11.11 2.92,-4.04 4.56,-8.76 5.88,-13.53 -1.47,0.18 -4.4,0.58 -5.86,0.78 1.26,-4.16 5.02,-10.22 0.23,-13.7zm-179.74 45.4c-10.42,16.1 -4.51,36.64 2.58,52.9 6.76,12.97 6.23,28.01 8.25,42.14 10.4,4.01 20.54,8.58 30.96,12.52 8.71,3.13 21.08,2.2 25.72,-6.97 3.18,-6.3 6.49,-12.67 12.14,-17.13 5.58,1.61 12.34,5.25 17.69,1.03 6.16,-3.73 5.15,-11.61 5.93,-17.69 12.87,0.89 27.31,2.42 38.36,-5.73 12.09,-8.38 16.93,-23.95 14.97,-38.1 -4.65,-1.09 -9.29,-2.1 -13.96,-3.01 -5.25,10.65 -16.73,15.6 -28.19,15.07 -2.52,6.64 -4.84,13.9 -10.7,18.42 -6.18,5.28 -14.66,6.06 -22.46,5.6 -5.2,8.76 -13.07,16.38 -23.42,18.28 -7.92,1.51 -19.71,3.81 -24.33,-4.88 -6.26,-9.91 -0.91,-23.21 -8.23,-32.53 -5.09,-6.15 -13.07,-0.73 -19.55,-1.31 4.39,-6.31 13.35,-12.21 20.74,-7.06 11.61,9.54 8.63,26.19 14.08,38.48 13.05,2.96 32.18,-1.21 33.34,-17.34 0.18,-17.18 -17.87,-26.47 -23.27,-41.43 18.73,4.44 24.68,25.74 33.26,40.45 8.59,5.2 21.76,-4.21 22.64,-13.8 -1.01,-13.91 -9.87,-28.19 -23.67,-32.38 -5.83,-2.17 -13.38,-3.08 -15.65,-9.87 9.82,-1.41 19.69,1.31 27.56,7.24 9.92,5.83 12.62,17.8 18.83,26.73 7.06,-1.62 15.67,-2.65 19.81,-9.49 3.91,-11.33 -5.4,-20.82 -11.74,-29.02 -8.53,-10.9 -20.79,-22.31 -35.78,-20.01 -9.11,0.88 -13.78,9.16 -18.12,16.05 -8.38,-8.76 -19.64,-17.12 -32.56,-13.94 -14.38,4.45 -26.47,14.77 -35.23,26.78zm184.18 -6.86c5.7,-3.38 12.04,-14.62 5.4,-20.32 -3.25,5.73 -12.67,14.44 -5.4,20.32zm199.34 -19.18c1.01,8.53 2.33,16.98 3.41,25.49 1.69,-0.05 5.05,-0.13 6.74,-0.18 0.13,-9.06 1.87,-23.4 -10.15,-25.31zm12.29 5.88c0.94,2.67 1.97,5.32 3.11,7.95 3.38,-0.48 5.32,-2.45 5.88,-5.86 -2.98,-0.81 -5.98,-1.51 -8.99,-2.09zm-26.87 8.45c-3.92,2.85 -0.89,8.03 -0.66,11.84 1.36,4.34 1.52,9.79 5.07,13.02 3.79,-1.09 6.92,-3.63 10.25,-5.65 -0.58,-8.84 -2.07,-17.59 -5.1,-25.95 -3.25,2.12 -6.64,4.17 -9.56,6.74zm-179.51 10.75c5.83,3.26 11.73,6.31 17.77,9.14 1.59,-4.19 2.97,-8.46 4.34,-12.72 -5.03,-4.32 -9.95,-8.71 -15.07,-12.9 -3.18,5.1 -5.3,10.75 -7.04,16.48zm159.14 1.64c-3.38,6.77 -1.21,15.22 3,21.13 4.17,5.12 11.03,-0.31 13.94,-4.22 -0.69,-7.92 -3.24,-15.49 -5.33,-23.09 -3.99,1.79 -8.43,3 -11.61,6.18zm-128.08 20.34c0.03,3.21 -1.13,8.56 3.61,8.58 3.51,-8.02 4.09,-16.91 5.08,-25.46 -8.13,1.39 -7.83,10.5 -8.69,16.88zm14.49 -13.4c-2.93,8.91 -4.57,18.3 -4.97,27.69 1.36,4.59 7.55,4.21 11.23,5.9 0.61,-11.28 2.22,-22.53 1.99,-33.86 1.77,-5.61 -8.05,-3.34 -8.25,0.27zm89.62 -0.45c1.46,9.39 0.8,20.14 5.8,28.39 5.6,-0.25 11.36,-4.01 14.21,-8.78 0.96,-7.8 -2.6,-15.32 -4.27,-22.82 -5.25,1.09 -10.52,2.1 -15.74,3.21zm-73.29 4.47c-2.52,10.52 -2.93,21.42 -4.54,32.1 4.82,0.48 9.61,0.88 14.46,1.23 0.48,-12.54 0.96,-25.06 0.7,-37.6 -3.58,1.14 -9.71,-0.71 -10.62,4.27zm20.9 -4.27c-7.17,10.95 -7.85,25.89 -2.3,37.68 3.31,0.05 6.56,-0.78 9.82,-1.42 -1.11,-11.15 -1.65,-22.33 -2.2,-33.51 -1.34,-0.68 -3.99,-2.07 -5.32,-2.75zm12.61 -0.33c-0.07,11.64 -2.82,23.75 0.76,35.11 5.4,3.02 11.26,-1.42 16.58,-2.63 -0.91,-10.7 -1.06,-21.7 -4.39,-32 -4.29,-0.5 -8.63,-0.45 -12.95,-0.48zm22.69 1.31c-0.65,9.64 -1.51,19.49 0.56,29.03 3.5,4.26 9.08,0.17 12.77,-1.8 3.28,-9.11 -0.94,-18.8 -2.81,-27.81 -3.5,0.21 -7.01,0.38 -10.52,0.58zm-195.91 69.73c0.38,18.93 -5.98,40.56 7.34,56.66 7.73,-19.71 11.66,-40.68 17.82,-60.92 -8.35,1.59 -16.73,2.98 -25.16,4.26zm-20.95 17.42c1.26,13.57 -1.11,28.77 6.79,40.75 3.03,-3.83 10.93,-6.23 8.51,-12.39 -2.68,-11.51 -0.73,-23.27 -1.49,-34.9 -4.62,2.15 -9.21,4.32 -13.81,6.54zm-15.16 5.42c-1.09,12.59 -1.87,26.1 2.62,38.13 4.06,1.37 8.4,0.79 12.62,0.91 -3.38,-15.06 -4.11,-30.56 -6.59,-45.73 -3.81,-6.51 -7.57,3.06 -8.65,6.69zm-72.74 4.85c-2.49,12.52 5.1,23.59 7.8,35.35 2.07,6.11 1.74,14.72 9.67,16.23 -2.75,-17.34 -8.43,-34.07 -10.8,-51.48 0.68,-5.17 -6.87,-4.09 -6.67,-0.1zm12.37 -2.73c-0.93,15.7 4.74,30.66 7.77,45.86 -0.83,3.73 8.91,4.01 6.36,-0.28 -1.61,-11.66 -3.78,-23.34 -1.99,-35.13 2.42,-7.52 -6.99,-9.06 -12.14,-10.45zm46.11 13.38c1.11,10.14 1.86,20.34 3.86,30.38 2.17,-0.15 6.53,-0.43 8.73,-0.58 -0.43,-11.66 -1.92,-23.34 -5.37,-34.52 -2.86,0.76 -4.93,3 -7.22,4.72zm-26.25 -3.59c-0.45,7.4 -1.29,14.82 -3.28,21.98 2.47,4.85 4.49,9.92 6.26,15.1 3.46,-0.21 6.89,-0.51 10.35,-0.91 -1.11,-11.86 -5.93,-23.12 -6.26,-35.16 -1.77,-0.25 -5.3,-0.75 -7.07,-1.01zm12.9 8.28c1.08,9.49 4.01,18.78 7.74,27.53 1.09,0.16 3.26,0.46 4.35,0.63 0.02,-11.53 -1.87,-22.96 -4.32,-34.19 -3.03,1.39 -8.13,1.39 -7.77,6.03zm51 18.5c-7.95,2.47 -16.53,4.01 -23.32,9.19 -4.69,3 -9.11,7.87 -15.27,6.86 -10.98,-0.58 -22.1,-0.43 -32.6,3.23 -5.73,2.25 -13.91,2.37 -16.71,8.76 -3.48,9.61 1.97,19.13 2.88,28.64 -2.2,7.85 -6.84,16.13 -2.5,24.2 5.38,13.91 25.77,10.25 31.19,24.18 5.63,13.65 16.61,23.8 25.04,35.66 8.73,12.16 24.7,20.44 39.74,16.23 10.81,-3.31 21.58,-8.38 29.43,-16.69 1.03,-16.02 -5.43,-30.99 -9.44,-46.15 -4.82,-22.11 -7.11,-44.77 -7.9,-67.36 -0.55,-8.28 3.74,-18.62 -4.04,-24.68 -3.91,-5.83 -10.95,-3.89 -16.5,-2.07zm673.19 55.17c-3.08,11.83 -0.81,24.25 2.22,35.88 2.77,-1.97 7.87,-1.97 8.65,-5.98 -0.17,-11.48 -2.65,-22.76 -3.98,-34.12 -2.38,1.29 -4.67,2.7 -6.89,4.22zm-14.31 7.59c-2.27,10.85 -0.33,22.01 1.23,32.84 3.41,-0.94 7.42,-0.66 10.28,-3.11 -2.86,-11.05 -5.1,-22.26 -5.03,-33.74 -2.34,1.06 -4.51,2.4 -6.48,4.01zm-16.15 4.7c-0.28,10.27 1.61,20.69 4.31,30.61 1.41,0.63 4.24,1.94 5.63,2.6 1.61,-12.12 1.19,-24.35 -0.28,-36.44 -3,0.78 -9.41,-1.24 -9.66,3.23zm-15.68 2.57c-0.83,10.3 0.96,20.85 5.46,30.16 0.68,3.2 7.16,2.93 7.36,-0.61 0.03,-9.99 -3.3,-19.61 -5.24,-29.32 -1.9,-0.08 -5.68,-0.18 -7.58,-0.23zm-26.52 9.69c1.06,7.32 3.21,14.49 6.34,21.18 1.03,3.93 5.62,3.68 8.68,5.09 -2.5,-10.85 -5.53,-21.55 -8.08,-32.38 -2.35,1.52 -9.03,1.52 -6.94,6.11zm14.26 -5.15c-1.34,9.57 1.61,19.23 5.32,27.97 0.99,3.83 8.16,6 7.42,0.05 -1.86,-9.37 -4.84,-18.55 -7.82,-27.61 -1.24,-0.1 -3.68,-0.31 -4.92,-0.41zm-26.32 5.76c1.69,9.84 6.13,19.48 14.08,25.84 -2.04,-9.51 -3.96,-19.25 -8.45,-27.96 -2.58,-0.83 -4.45,-0.13 -5.63,2.12zm29.3 32.3c-3.69,7.7 1.26,17.54 6.71,23.6 11.89,11.48 28.27,21.45 45.35,16.05 8.3,11.38 17.26,23.14 30.46,29.15 8.58,4.11 20.39,6.28 27.71,-1.37 4.17,-5.02 0.63,-11.13 -1.08,-16.3 -10.98,0.08 -22.69,0.93 -32.66,-4.52 -4.19,-1.44 -4.32,-6.46 -5.17,-9.99 9.99,2.62 18.82,9.69 29.6,8.96 16.53,0.35 28.44,-13.78 35.23,-27.31 -11.38,-2.14 -22.54,-5.5 -32.76,-11 -7.7,-4.19 -17.31,-6.84 -25.56,-2.73 0.25,5.68 1.26,11.34 1.08,17.06 -3.08,-0.98 -5.32,-2.82 -6.76,-5.47 -5.17,-12.8 -18.95,-18.2 -27.53,-28.27 -14.26,6.13 -29.58,8.84 -44.62,12.14zm-157.86 71.98c12.09,6.88 21.43,17.33 29.3,28.64 3.41,4.19 8.25,11.26 14.39,7.24 0.05,-3.71 -1.21,-7.24 -3.74,-9.94 -9.46,-11.48 -20.04,-22.01 -31.04,-32 -3.51,-3.11 -6.28,-6.89 -8.55,-10.95 17.21,9.71 30.66,24.53 43.81,38.99 -0.31,-4.27 -0.08,-8.96 -3.28,-12.24 -13.1,-16.31 -29.1,-31.07 -48.99,-38.54 1.69,9.87 5.76,19.08 8.1,28.8zm-17.54 -21.33c-2.82,3.21 1.92,9.54 5.61,6.64 3.05,-3.23 -1.97,-9.69 -5.61,-6.64zm15.12 27.53c-1.14,3.92 -2.22,7.88 -3.31,11.82 16.05,10.09 25.87,29.6 45.03,34.37 0.2,-2.17 0.6,-6.56 0.78,-8.76 -6.19,-6.64 -14.82,-10.63 -20.44,-17.89 -6.57,-7.27 -11.31,-17.95 -22.06,-19.54zm-10.78 25.92c-2.8,6.26 4.98,9.44 8.66,12.87 10.68,7.27 17.24,19.49 29.07,25.16 6.06,-1.94 7.65,-9.26 10.22,-14.36 -16.17,-4.92 -25.56,-19.78 -37.25,-30.76 -4.92,-3.66 -9.23,3.05 -10.7,7.09zm-8.05 19.43c6.72,14.74 21.55,23.32 35.69,29.81 4.99,3.73 13.25,-5.76 6.13,-8.43 -14.18,-9.34 -25.89,-21.63 -37.5,-33.87 -2.55,3.59 -7.62,7.67 -4.32,12.49zm-13.62 10.35c8.93,16.28 25,26.85 41.61,34.2 2.07,-2.17 4.06,-4.42 6.01,-6.69 -1.9,-5.28 -7.93,-6.56 -12.19,-9.29 -11.99,-5.75 -21.08,-15.85 -28.37,-26.72 -2.88,2.32 -6.51,4.41 -7.06,8.5zm-8.28 5.86c-2.27,1.41 -3.43,3.53 -3.49,6.38 6.29,7.19 13.61,13.43 20.52,20.04 7.5,6.51 16.86,14.69 27.56,10.8 0.51,-6.84 -7.37,-8.28 -11.61,-11.74 -11.78,-6.35 -18.98,-18.04 -29.02,-26.37 -0.98,0.23 -2.98,0.66 -3.96,0.89zm-298.07 12.46c-17.62,17.52 -23.5,43.36 -24.05,67.46 -0.38,8.53 2.12,17.54 -1.24,25.74 -2.27,6.16 -9.03,10.48 -15.62,9.09 -32.2,-4.82 -65.29,-1.19 -96.35,8.12 -12.17,-8.68 -21.86,-20.29 -29.83,-32.8 -5.86,-9.37 -14.74,-17.27 -25.7,-19.79 -10.87,-3.18 -21.7,1.99 -32.6,2.04 -8.63,0.71 -16.91,-2.19 -25.39,-3.02 -0.1,4.46 -0.2,8.93 -0.25,13.4 19.41,3.66 39.09,-5.4 58.35,-0.26 2.9,2.83 10.7,5.43 7.59,10.4 -8.38,-1.18 -15.8,-7.77 -24.6,-6.01 -14.69,3.11 -29.56,5.83 -44.65,5.15 -1.49,6.03 -1.91,12.27 -0.63,18.4 21.91,-11.53 49.54,-15.09 71.85,-2.65 -0.76,4.49 -4.82,5.55 -8.5,3.51 -22.14,-8.35 -48.03,-4.27 -66.96,9.79 6.21,5.45 12.34,11 17.64,17.39 10.83,13.47 26.45,22.76 43.18,26.83 7.47,2.24 15.02,-1.14 22.59,-0.38 -3.23,4.79 -9.06,5.73 -13.8,8.3 0.68,6.38 7.62,11.86 14.05,10.45 33.62,-3.66 67.41,-5.28 101.07,-8.33 31.42,-2.17 63.25,1.36 93.56,9.92 12.97,3.33 27.05,5.07 40,0.75 7.8,-5.75 14.38,-15.54 12.62,-25.66 -1.87,-3.86 -5.3,-6.61 -7.65,-10.12 3.08,-7.5 12.49,-8.25 19.2,-10.6 40.79,-10.47 82.33,-19.63 124.47,-21.75 -8.1,-8.94 -18.5,-16.31 -29.78,-20.52 -10.77,0.25 -22.05,0.23 -31.42,-5.91 -19.08,-7.14 -36.11,-18.5 -52.06,-31.01 -2.17,2.92 -4.29,5.88 -6.59,8.7 0.56,-4.29 0.66,-8.55 0.26,-12.79 -5.63,2.47 -9.22,7.67 -13.73,11.58 1.79,-6.28 4.21,-12.41 5.42,-18.87 -5.73,4.24 -9.06,10.57 -12.89,16.37 0.15,-2.49 0.45,-7.49 0.6,-10.01 -3.91,3.15 -7.62,6.56 -11.48,9.76 3.33,-9.56 11.91,-16.43 13.98,-26.45 -9.24,7.88 -16.68,17.49 -24.63,26.55 0.45,-2.55 0.91,-5.1 1.36,-7.62 -2.32,-1.16 -4.62,-2.32 -6.89,-3.53 -2.29,2.82 -4.62,5.6 -7.01,8.38 0.35,-2.25 1.03,-6.72 1.36,-8.94 -3.28,3.03 -6.46,6.21 -10.07,8.89 4.54,-11.59 11.91,-21.68 18.75,-31.93 -7.52,3.54 -17.36,7.04 -18.98,16.38 -0.98,4.62 -5.2,7.22 -8.25,10.42 0.91,-5.22 2.07,-10.37 2.6,-15.64 -6.59,5.65 -13.45,10.92 -20.24,16.3 1.62,-5.38 2.98,-10.88 5.22,-16.03 3.61,-6.61 11.13,-10.19 13.88,-17.38 -18.09,5.98 -21.6,26.92 -30.73,41.13 2.09,-16.76 9.86,-32.7 21.8,-44.64 4.85,-5.48 13.63,-3.74 18.17,-9.67 -3.36,-0.78 -7.19,-1.97 -10.45,-0.05 -13.78,6.92 -21.75,20.67 -30.03,33.01 0.56,-9.69 7.22,-17.41 13.25,-24.43 4.85,-5.78 12.49,-9.01 15.6,-16.15 -5.66,1.77 -11.31,4.22 -15.37,8.73zm284.04 1.62c7.11,9.81 17.38,16.88 24.65,26.67 5.3,5.98 17.34,15.35 22.64,4.55 -14.33,-10.53 -27.11,-22.97 -40.38,-34.7 -3.56,-3.89 -10.27,-2.63 -6.91,3.48zm-11.71 0.88c-3.91,1.26 -5.15,5.58 -1.97,8.48 9.81,12.67 21.9,23.57 34.4,33.57 3.53,3.63 13.17,2.85 11.76,-3.79 -14.21,-12.06 -25.04,-27.61 -39.7,-39.09 -1.14,0.2 -3.38,0.6 -4.49,0.83zm-21 5.7c1.39,4.6 3.51,8.99 7.04,12.37 11.51,11.86 21.65,26.09 37.25,32.91 3.66,2.3 8.81,-1.74 5.98,-5.75 -13.1,-14.92 -31.04,-25.27 -42.09,-42.1 -2.05,0.66 -6.14,1.94 -8.18,2.57zm-15.98 12.17c8.26,17.79 24.81,30.01 41.92,38.56 3.64,1.89 7.57,-1.19 11.26,-1.59 -5.2,-7.32 -14.44,-10.04 -19.71,-17.29 -7.22,-10.22 -21.35,-16.3 -20.9,-30.58 -5.3,2.24 -16.78,2.57 -12.57,10.9zm-25.56 -3.38c-1.89,2.34 -3.71,4.77 -5.43,7.26 12.14,11.06 17.97,26.98 29.51,38.54 -3.69,-17.34 -13.86,-31.77 -24.08,-45.8zm6.69 1.79c6.28,9.08 12.99,17.94 17.99,27.84 3.79,6.81 6.69,15.47 15.22,17.59 -0.51,-6.82 -1.16,-13.99 -5.81,-19.39 -6.91,-8.96 -12.54,-18.82 -16.25,-29.5 -3.76,1.06 -7.47,2.2 -11.15,3.46zm-45.83 2.78c-0.38,19.78 13.78,34.9 23.34,50.82 3.74,6.36 12.24,2.42 18,2.2 -8.26,-13.35 -19.77,-24.36 -27.92,-37.81 -3.05,-5.02 -3.15,-11.18 -5.9,-16.27 -2.52,0.25 -5.02,0.6 -7.52,1.06zm14.03 3.81c3.46,9.99 11.05,17.71 17.29,26.01 5.72,6.87 10.44,14.79 17.59,20.35 4.13,1.74 8.63,-0.53 12.82,-1.11 -8.41,-18.96 -24.08,-32.99 -34.2,-50.78 -4.57,-1.21 -16.4,-2.1 -13.5,5.53zm-44.82 1.96c8.05,17.19 23.19,31.07 41.51,36.42 -6.48,-12.64 -14.66,-24.96 -16.5,-39.37 -8.38,0.66 -16.73,1.59 -25.01,2.95zm-53.58 1.39c11.28,13.71 25.04,27.56 42.75,32.08 -6.58,-10.5 -18.75,-17.59 -20.01,-30.94 -7.57,-0.84 -15.14,-1.21 -22.74,-1.14zm28.29 1.14c6.11,19.25 23.5,31.19 39.27,42.19 9.82,6.92 22.39,6.39 33.82,5.61 -13.48,-10.93 -29.98,-17.75 -42.15,-30.34 -4.94,-5.27 -7.37,-12.39 -12.46,-17.51 -6.09,-1.34 -12.34,-0.23 -18.48,0.05zm137.64 19.91c0.61,5.38 1.29,10.78 2,16.18 5.68,-0.46 11.28,-1.52 16.7,-3.31 -4.82,-6.13 -11.73,-9.79 -18.7,-12.87z"/>
  </g>
 </g>
</svg>
