<?xml version="1.0" encoding="UTF-8"?>
<!DOCTYPE svg PUBLIC "-//W3C//DTD SVG 1.1//EN" "http://www.w3.org/Graphics/SVG/1.1/DTD/svg11.dtd">
<!-- Creator: CorelDRAW -->
<svg xmlns="http://www.w3.org/2000/svg" xml:space="preserve" width="2000px" height="1600px" version="1.1" style="shape-rendering:geometricPrecision; text-rendering:geometricPrecision; image-rendering:optimizeQuality; fill-rule:evenodd; clip-rule:evenodd"
viewBox="0 0 2000 1600"
 xmlns:xlink="http://www.w3.org/1999/xlink">
 <defs>
  <style type="text/css">
   <![CDATA[
    .fil1 {fill:black;fill-rule:nonzero}
    .fil2 {fill:#CD1041;fill-rule:nonzero}
    .fil0 {fill:#FEFEFE;fill-rule:nonzero}
   ]]>
  </style>
 </defs>
 <g id="Capa_x0020_1">
  <metadata id="CorelCorpID_0Corel-Layer"/>
  <g id="South_x0020_Dakota_x0020_Coyotes.cdr">
   <path class="fil0" d="M771.37 533.95c83,0.05 165.99,-0.05 248.99,0.03 32.13,32.61 65.25,64.18 97.35,96.81 -0.03,13.87 0,27.71 0,41.58 -36.62,-0.03 -73.25,0.02 -109.84,-0.03 0,-9.73 0,-19.45 0,-29.18 -74.29,-0.03 -148.58,0 -222.87,0 0.11,22.25 -0.22,44.52 0.18,66.8 16.13,12.31 31.47,25.62 47.42,38.19 0.08,-18.28 0,-36.54 0.02,-54.83 114.57,0 229.14,-0.03 343.71,0.03 32.91,31.64 65.06,64.1 97.57,96.18 0.03,153.29 -0.07,306.56 0.05,459.86 -31.85,33.07 -65.39,64.46 -97.52,97.27 -114.59,-0.02 -229.19,0 -343.78,-0.02 -0.03,-47.19 0,-94.38 -0.03,-141.57 -20.16,0.03 -40.33,-0.07 -60.47,0.06 -32.73,-32.13 -64.56,-65.12 -96.99,-97.56 0.03,-25.27 -0.02,-50.56 0.03,-75.83 36.59,0.02 73.22,0 109.81,0 0,21.15 -0.02,42.34 0,63.49 74.29,0 148.58,0 222.84,0 0.05,-20.87 0.03,-41.73 0.03,-62.6 -21.85,-17.65 -43.53,-35.51 -65.4,-53.11 0,31.6 -0.03,63.17 0,94.73 -36.6,0.05 -73.22,0.03 -109.85,0.03 -0.02,-61.44 0.06,-122.87 -0.02,-184.31 -52.55,-42.69 -105.12,-85.36 -157.49,-128.26 0.13,-43.83 0.05,-87.67 0.03,-131.5 32.02,-32.13 64.15,-64.18 96.23,-96.26zm-432.72 251.08c3.02,55.85 11.88,111.42 26.89,165.31 20.78,72.74 62.23,142.23 125.9,185.02 -15.67,18.08 -29.13,38.2 -38.91,60.06 -15.92,35.13 -21.69,74.39 -18.62,112.74 3.91,52.19 22.12,102.18 44.96,148.88 18.87,38.1 45.48,72.99 80.28,97.83 38.12,27.81 84.9,41.6 131.58,45.13l-352.08 0 0 -814.97zm541.52 -713.28c7.21,-3.91 14.48,-7.7 21.66,-11.61 11.66,19.58 25.27,38.25 33.48,59.68 7.72,19.94 12.92,41 13.74,62.41 2.31,32.6 1.34,65.57 -5.16,97.67 33.83,31.14 52.19,75.13 63.72,118.79 16.18,-36.42 39.67,-69.49 68.45,-97.02 -7.24,-22.76 -9.76,-46.78 -9.15,-70.58 -0.58,-28.45 3.26,-57.09 12.37,-84.12 6.35,-19.78 18.09,-37.18 27.23,-55.72 24.63,9.5 50.67,17.07 71.64,33.81 39.83,29.33 61.95,77.25 68.3,125.38 44.9,35.15 79.03,83 101.54,135.14 15.77,36.19 25.09,74.9 30.12,113.98 6.3,-21.43 15.82,-42.41 31.01,-59.02 8.63,-9.22 17.5,-18.21 26,-27.56 18.87,14.58 39.42,27.41 54.94,45.82 26.06,29.87 49.68,63.06 61.48,101.31 9.15,24.36 11.26,50.47 16.87,75.66 51.66,90.21 61.16,202.72 27.1,300.75 -17.5,51.23 -45.06,99.54 -83.08,138.32 -35.32,36.44 -81.01,64.76 -131.81,72.28 29.92,27.91 55.19,62.45 65.55,102.55 12.65,47.47 4.75,97.91 -11.73,143.42 -16.48,45.67 -39.98,90.9 -78.78,121.45 -33.12,26.69 -75.94,39.01 -118.05,39.75 -87.65,1.72 -171.53,-32.36 -259.15,-30.96 -67.74,1.98 -133.69,18.97 -200.67,27.5 -45.64,5.64 -93.05,7.47 -137.5,-6.27 -37.87,-11.38 -71.67,-35.28 -95.31,-66.92 -20.65,-27.15 -34.44,-58.75 -46.56,-90.44 -17.65,-48.43 -26.72,-102.5 -11.4,-152.79 13.74,-46.71 48.13,-83.91 86.2,-112.69 -43.51,-9.9 -81.15,-37.74 -108.47,-72.38 -29.52,-37.31 -48.62,-82.01 -59.61,-128.08 -20.95,-84.12 -28.73,-172.7 -13.06,-258.42 9.55,-51.76 27.48,-102.5 56.44,-146.67 19.55,-28.95 42.16,-56.18 69.13,-78.53 16.79,-12.46 33.67,-24.83 50.79,-36.87 11.94,32.38 27.86,63.8 32.26,98.44 19.86,-100.52 76.7,-191.83 152.28,-260.12 7.82,-17.22 11.81,-36.14 19.71,-53.46 20.54,-49.27 59.55,-90.47 107.48,-113.88zm-36.55 82.82l0 0c-18.89,21.08 -31.21,47.21 -39.52,74.06 29.19,1.62 58.8,6.68 85.03,20.14 4.7,2.26 8.84,5.99 13.92,7.31 3.48,-23.44 3.05,-47.24 1.78,-70.83 -0.86,-23.22 -8.1,-45.84 -18.69,-66.42 -16.03,9.48 -29.87,22.23 -42.52,35.74zm269.09 44.95l0 0c-2.67,25.68 -2.95,51.86 2.41,77.23 12.65,-8.22 25.5,-16.25 39.21,-22.6 14.63,-6.32 29.87,-11.07 45.03,-15.97 -5.54,-22.02 -14.93,-43.41 -29.71,-60.86 -11.41,-13.51 -26.31,-23.69 -42.32,-31.03 -7.97,16.71 -12.26,34.94 -14.62,53.23zm-464.93 291.82l0 0c-10.54,42.48 -12.42,89.44 6.43,129.93 0.48,6.65 1.65,13.71 -0.1,20.19 -9.02,9.45 -18.34,18.56 -27.69,27.68 -0.27,10.67 -0.12,21.34 -0.15,32 -10.44,-9.22 -20.09,-19.38 -31.29,-27.71 -18.33,-13.2 -40.68,-20.14 -63.16,-21.25 -32.74,-1.53 -65.27,7.08 -94.78,20.77 -12.6,61.03 -11.15,124.47 -0.71,185.71 8.58,47.62 22.02,95.18 47.13,136.96 16.18,26.8 36.96,51.69 64.03,67.99 23.29,14.66 51.68,20.07 78.81,15.77 -0.08,19.58 -0.03,39.19 -0.03,58.8 -27.33,18.61 -54.35,38.78 -74.51,65.32 -20.17,25.9 -29.95,59.12 -28.3,91.81 2.06,44.78 19,87.27 38.91,126.89 17.37,34.05 45.64,63.82 82.16,76.98 45.87,16.88 96,11.93 143.37,5.43 66.79,-9.83 133.11,-25.75 200.97,-25.83 33.65,0.61 67.07,5.33 100.14,11.4 54.15,9.38 108.55,23.6 163.94,18.75 32.56,-2.87 64.38,-16.41 87.42,-39.88 28.82,-29.48 45.33,-68.44 57.8,-107.15 12.42,-39.77 15.67,-84.57 -2.44,-123.15 -20.14,-43.66 -59.88,-73.09 -96.46,-102.27 0.03,-14.86 0.05,-29.69 0,-44.55 23.57,10.74 50.16,15.24 75.89,11.3 37.06,-5.26 70.38,-25.45 97.25,-50.79 34.92,-33.25 60.72,-75.36 77.71,-120.31 33.91,-89.04 29.39,-194.92 -22.47,-276.22 -58.72,-1.22 -121.35,9.42 -168.44,46.86 -24.08,21.41 -49.12,41.75 -72.3,64.15 -10.29,-10.06 -20.7,-19.96 -30.99,-29.99l2.21 0.15c36.34,-11.05 66.47,-41.68 75.18,-79.01 8.45,-32.46 7.97,-66.42 5.89,-99.63 -3.07,-40.01 -6.71,-80.39 -18.64,-118.89 -19.18,-63.8 -57.15,-123.33 -111.93,-162.16 -42.74,10.61 -81.4,34.97 -111.82,66.56 -42.64,44.98 -66.85,105.02 -75.05,165.93 -14.58,-0.13 -29.13,-0.06 -43.71,-0.03 -1.75,-42.92 -7.44,-86.07 -21.33,-126.89 -10.04,-28.59 -24.77,-56.86 -48.95,-76.01 -33.62,-25.78 -76.21,-37.18 -117.89,-40.69 -68.5,58.34 -119.87,137.68 -142.1,225.08zm-158.04 43.04l0 0c-16.21,24.64 -24.67,53.31 -31.17,81.78 29.46,-8.61 61.26,-13.15 91.38,-5.2 9.96,-46.18 15.09,-95.62 -2.03,-140.81 -22.5,18.32 -41.52,40.59 -58.18,64.23zm950.21 -62.45l0 0c-19.48,25.09 -25.88,58.03 -24.05,89.2 0.61,21.64 2.46,43.32 7.31,64.46 31.47,-9.53 64.38,-14.2 97.28,-13.54 -7.68,-27.41 -14.51,-55.77 -30.38,-79.82 -14.35,-21.85 -30.02,-43.38 -50.16,-60.3zm-497.48 331.23l0 0c-0.03,11.51 0.02,23.04 -0.05,34.54 58.33,47.83 116.93,95.34 175.31,143.09 -0.2,42.08 0.23,84.17 -0.2,126.25 -29.82,31.57 -61.49,61.62 -91.91,92.73 -2.62,2.13 -4.75,6.14 -8.79,5.3 -24.79,0.06 -49.57,-0.05 -74.36,0 0,10.8 0,21.59 0,32.39 74.08,0 148.14,0 222.22,0 0,-144.77 0,-289.53 0,-434.3 -74.08,0 -148.14,0 -222.22,0z"/>
   <path class="fil1" d="M942.47 803.16c74.08,0 148.14,0 222.22,0 0,144.77 0,289.53 0,434.3 -74.08,0 -148.14,0 -222.22,0 0,-10.8 0,-21.59 0,-32.39 24.79,-0.05 49.57,0.06 74.36,0 4.04,0.84 6.17,-3.17 8.79,-5.3 30.42,-31.11 62.09,-61.16 91.91,-92.73 0.43,-42.08 0,-84.17 0.2,-126.25 -58.38,-47.75 -116.98,-95.26 -175.31,-143.09 0.07,-11.5 0.02,-23.03 0.05,-34.54zm497.48 -331.23c20.14,16.92 35.81,38.45 50.16,60.3 15.87,24.05 22.7,52.41 30.38,79.82 -32.9,-0.66 -65.81,4.01 -97.28,13.54 -4.85,-21.14 -6.7,-42.82 -7.31,-64.46 -1.83,-31.17 4.57,-64.11 24.05,-89.2zm-950.21 62.45c16.66,-23.64 35.68,-45.91 58.18,-64.23 17.12,45.19 11.99,94.63 2.03,140.81 -30.12,-7.95 -61.92,-3.41 -91.38,5.2 6.5,-28.47 14.96,-57.14 31.17,-81.78zm622.97 -334.86c2.36,-18.29 6.65,-36.52 14.62,-53.23 16.01,7.34 30.91,17.52 42.32,31.03 14.78,17.45 24.17,38.84 29.71,60.86 -15.16,4.9 -30.4,9.65 -45.03,15.97 -13.71,6.35 -26.56,14.38 -39.21,22.6 -5.36,-25.37 -5.08,-51.55 -2.41,-77.23zm-269.09 -44.95c12.65,-13.51 26.49,-26.26 42.52,-35.74 10.59,20.58 17.83,43.2 18.69,66.42 1.27,23.59 1.7,47.39 -1.78,70.83 -5.08,-1.32 -9.22,-5.05 -13.92,-7.31 -26.23,-13.46 -55.84,-18.52 -85.03,-20.14 8.31,-26.85 20.63,-52.98 39.52,-74.06zm9.53 -120.16c21.96,-11.3 43.15,-24.12 65.6,-34.41 15.31,24.96 30.65,49.96 45.71,75.07 14.88,26.9 24.59,56.74 28.7,87.19 3.51,34.06 3.81,68.57 -0.38,102.58 8.86,10.52 16.61,21.9 23.8,33.6 2.84,-3.65 6.96,-6.63 8.58,-11.04 -8.25,-59.46 -5.51,-122.6 20.01,-177.81 13.08,-25.25 26.77,-50.21 40.13,-75.33 23.06,8.79 46.15,17.55 69.21,26.31 27.76,10.24 53,26.92 73.88,47.8 31.19,31.75 51.58,73.48 59.84,117.06 48.94,43.68 86.37,99.71 109.41,161.04 10.56,-11.58 21.51,-22.81 32.18,-34.29 19.37,14.23 38.52,28.78 57.9,43.03 28.95,20.82 51.41,49.19 71.45,78.37 26.66,37.82 42.18,82.67 49.24,128.16 1.55,8.15 2.21,16.73 6.5,24.07 57.02,106.7 61.06,238.59 14.76,349.9 -32.87,80.79 -90.49,154.65 -169.73,193.91 27.68,41.22 41.32,91.43 38.45,140.98 -2.62,50.24 -18.72,98.85 -40.28,143.95 -21.33,44.78 -53.51,85.51 -96.31,111.45 -35.33,21.84 -76.75,31.92 -117.92,34l-29.38 0c-52.35,-2.69 -103.5,-14.65 -154.98,-23.46 -31.74,-5.26 -64,-9.48 -96.2,-6.76 -73.32,5.21 -144.69,25.22 -218.06,30.22l-54.53 0c-46.68,-3.53 -93.46,-17.32 -131.58,-45.13 -34.8,-24.84 -61.41,-59.73 -80.28,-97.83 -22.84,-46.7 -41.05,-96.69 -44.96,-148.88 -3.07,-38.35 2.7,-77.61 18.62,-112.74 9.78,-21.86 23.24,-41.98 38.91,-60.06 -63.67,-42.79 -105.12,-112.28 -125.9,-185.02 -15.01,-53.89 -23.87,-109.46 -26.89,-165.31l0 -54.02c4.7,-92.47 30.12,-186.52 86.7,-261.11 22.1,-29.13 46.94,-56.71 76.98,-77.82 29.08,-20.92 57.88,-42.26 87.07,-63.03 4.11,10.56 8.27,21.1 12.34,31.69 26.59,-50.84 61.1,-97.47 101.84,-137.85 5.18,-4.91 11.46,-9.5 13.18,-16.87 14,-45.38 36.04,-89.6 70.84,-122.67 19.09,-19.58 40.96,-36.75 65.55,-48.94zm27.02 37.34l0 0c-47.93,23.41 -86.94,64.61 -107.48,113.88 -7.9,17.32 -11.89,36.24 -19.71,53.46 -75.58,68.29 -132.42,159.6 -152.28,260.12 -4.4,-34.64 -20.32,-66.06 -32.26,-98.44 -17.12,12.04 -34,24.41 -50.79,36.87 -26.97,22.35 -49.58,49.58 -69.13,78.53 -28.96,44.17 -46.89,94.91 -56.44,146.67 -15.67,85.72 -7.89,174.3 13.06,258.42 10.99,46.07 30.09,90.77 59.61,128.08 27.32,34.64 64.96,62.48 108.47,72.38 -38.07,28.78 -72.46,65.98 -86.2,112.69 -15.32,50.29 -6.25,104.36 11.4,152.79 12.12,31.69 25.91,63.29 46.56,90.44 23.64,31.64 57.44,55.54 95.31,66.92 44.45,13.74 91.86,11.91 137.5,6.27 66.98,-8.53 132.93,-25.52 200.67,-27.5 87.62,-1.4 171.5,32.68 259.15,30.96 42.11,-0.74 84.93,-13.06 118.05,-39.75 38.8,-30.55 62.3,-75.78 78.78,-121.45 16.48,-45.51 24.38,-95.95 11.73,-143.42 -10.36,-40.1 -35.63,-74.64 -65.55,-102.55 50.8,-7.52 96.49,-35.84 131.81,-72.28 38.02,-38.78 65.58,-87.09 83.08,-138.32 34.06,-98.03 24.56,-210.54 -27.1,-300.75 -5.61,-25.19 -7.72,-51.3 -16.87,-75.66 -11.8,-38.25 -35.42,-71.44 -61.48,-101.31 -15.52,-18.41 -36.07,-31.24 -54.94,-45.82 -8.5,9.35 -17.37,18.34 -26,27.56 -15.19,16.61 -24.71,37.59 -31.01,59.02 -5.03,-39.08 -14.35,-77.79 -30.12,-113.98 -22.51,-52.14 -56.64,-99.99 -101.54,-135.14 -6.35,-48.13 -28.47,-96.05 -68.3,-125.38 -20.97,-16.74 -47.01,-24.31 -71.64,-33.81 -9.14,18.54 -20.88,35.94 -27.23,55.72 -9.11,27.03 -12.95,55.67 -12.37,84.12 -0.61,23.8 1.91,47.82 9.15,70.58 -28.78,27.53 -52.27,60.6 -68.45,97.02 -11.53,-43.66 -29.89,-87.65 -63.72,-118.79 6.5,-32.1 7.47,-65.07 5.16,-97.67 -0.82,-21.41 -6.02,-42.47 -13.74,-62.41 -8.21,-21.43 -21.82,-40.1 -33.48,-59.68 -7.18,3.91 -14.45,7.7 -21.66,11.61zm-225.96 549.52c36.47,-37.67 73.93,-74.42 111.06,-111.42 70.94,0.13 141.84,0.08 212.78,0 14.58,-0.03 29.13,-0.1 43.71,0.03 3.12,0.05 6.25,0.12 9.4,0.22 22.95,21.39 44.52,44.2 66.97,66.11 15.11,14.23 29.56,29.16 44.26,43.81 0.06,16.41 -0.02,32.79 0.06,49.2 15.06,0.05 30.09,0.07 45.15,-0.03 22.55,22.81 46.17,44.5 68.32,67.74 10.29,10.03 20.7,19.93 30.99,29.99 4.11,4.17 8.22,8.38 12.31,12.6 0,104.13 -0.07,208.28 0.05,312.41 0.05,14.86 0.03,29.69 0,44.55 -0.12,40.25 -0.07,80.53 -0.02,120.79 -35.38,35.86 -71.34,71.21 -106.75,107.07 -2.26,1.98 -4.44,4.88 -7.87,4.45 -13.33,0.43 -26.69,-0.11 -40.03,0.1 -5.68,5.71 -11.4,11.4 -17.09,17.09 -74.16,0.02 -148.29,0 -222.45,0.02 -40.41,0.31 -80.79,-1.19 -121.2,-0.66 -0.23,-47.16 0,-94.35 -0.12,-141.53 -20.32,-0.06 -40.67,-0.08 -60.98,0.02 -32.44,-31.97 -63.93,-64.91 -96.41,-96.84 -0.03,-2.21 -0.05,-6.6 -0.08,-8.81 0,-19.61 -0.05,-39.22 0.03,-58.8 0.02,-2.97 0.07,-5.94 0.12,-8.89 9.48,0.06 18.95,0.03 28.45,0 0.1,-20.92 -0.05,-41.82 0.08,-62.75 42.92,-0.13 85.84,0.02 128.76,-0.05 0.13,-26.19 0,-52.37 0.08,-78.53 -52.45,-42.77 -104.97,-85.41 -157.44,-128.13 -0.13,-33.3 0,-66.59 -0.08,-99.89 0.03,-10.66 -0.12,-21.33 0.15,-32 9.35,-9.12 18.67,-18.23 27.69,-27.68 1.75,-6.48 0.58,-13.54 0.1,-20.19zm117.16 -87.32l0 0c-32.08,32.08 -64.21,64.13 -96.23,96.26 0.02,43.83 0.1,87.67 -0.03,131.5 52.37,42.9 104.94,85.57 157.49,128.26 0.08,61.44 0,122.87 0.02,184.31 36.63,0 73.25,0.02 109.85,-0.03 -0.03,-31.56 0,-63.13 0,-94.73 21.87,17.6 43.55,35.46 65.4,53.11 0,20.87 0.02,41.73 -0.03,62.6 -74.26,0 -148.55,0 -222.84,0 -0.02,-21.15 0,-42.34 0,-63.49 -36.59,0 -73.22,0.02 -109.81,0 -0.05,25.27 0,50.56 -0.03,75.83 32.43,32.44 64.26,65.43 96.99,97.56 20.14,-0.13 40.31,-0.03 60.47,-0.06 0.03,47.19 0,94.38 0.03,141.57 114.59,0.02 229.19,0 343.78,0.02 32.13,-32.81 65.67,-64.2 97.52,-97.27 -0.12,-153.3 -0.02,-306.57 -0.05,-459.86 -32.51,-32.08 -64.66,-64.54 -97.57,-96.18 -114.57,-0.06 -229.14,-0.03 -343.71,-0.03 -0.02,18.29 0.06,36.55 -0.02,54.83 -15.95,-12.57 -31.29,-25.88 -47.42,-38.19 -0.4,-22.28 -0.07,-44.55 -0.18,-66.8 74.29,0 148.58,-0.03 222.87,0 0,9.73 0,19.45 0,29.18 36.59,0.05 73.22,0 109.84,0.03 0,-13.87 -0.03,-27.71 0,-41.58 -32.1,-32.63 -65.22,-64.2 -97.35,-96.81 -83,-0.08 -165.99,0.02 -248.99,-0.03zm215.8 307.97l0 0c42.36,35.17 85.2,69.82 128.03,104.46 0.1,-34.85 0.07,-69.67 0.02,-104.51 -42.69,0 -85.39,-0.13 -128.05,0.05zm58.51 371.46l0 0c23.17,0.05 46.35,0.05 69.54,0 0.08,-23.19 0.05,-46.38 0,-69.54 -23.26,23.09 -46.45,46.28 -69.54,69.54z"/>
   <path class="fil2" d="M647.78 491.34c22.23,-87.4 73.6,-166.74 142.1,-225.08 41.68,3.51 84.27,14.91 117.89,40.69 24.18,19.15 38.91,47.42 48.95,76.01 13.89,40.82 19.58,83.97 21.33,126.89 -70.94,0.08 -141.84,0.13 -212.78,0 -37.13,37 -74.59,73.75 -111.06,111.42 -18.85,-40.49 -16.97,-87.45 -6.43,-129.93zm397.9 722.04c23.09,-23.26 46.28,-46.45 69.54,-69.54 0.05,23.16 0.08,46.35 0,69.54 -23.19,0.05 -46.37,0.05 -69.54,0zm253.59 -76.9c36.58,29.18 76.32,58.61 96.46,102.27 18.11,38.58 14.86,83.38 2.44,123.15 -12.47,38.71 -28.98,77.67 -57.8,107.15 -23.04,23.47 -54.86,37.01 -87.42,39.88 -55.39,4.85 -109.79,-9.37 -163.94,-18.75 -33.07,-6.07 -66.49,-10.79 -100.14,-11.4 -67.86,0.08 -134.18,16 -200.97,25.83 -47.37,6.5 -97.5,11.45 -143.37,-5.43 -36.52,-13.16 -64.79,-42.93 -82.16,-76.98 -19.91,-39.62 -36.85,-82.11 -38.91,-126.89 -1.65,-32.69 8.13,-65.91 28.3,-91.81 20.16,-26.54 47.18,-46.71 74.51,-65.32 0.03,2.21 0.05,6.6 0.08,8.81 32.48,31.93 63.97,64.87 96.41,96.84 20.31,-0.1 40.66,-0.08 60.98,-0.02 0.12,47.18 -0.11,94.37 0.12,141.53 40.41,-0.53 80.79,0.97 121.2,0.66 74.16,-0.02 148.29,0 222.45,-0.02 5.69,-5.69 11.41,-11.38 17.09,-17.09 13.34,-0.21 26.7,0.33 40.03,-0.1 3.43,0.43 5.61,-2.47 7.87,-4.45 35.41,-35.86 71.37,-71.21 106.75,-107.07 -0.05,-40.26 -0.1,-80.54 0.02,-120.79zm-312.1 -294.56c42.66,-0.18 85.36,-0.05 128.05,-0.05 0.05,34.84 0.08,69.66 -0.02,104.51 -42.83,-34.64 -85.67,-69.29 -128.03,-104.46zm372.04 -139.15c47.09,-37.44 109.72,-48.08 168.44,-46.86 51.86,81.3 56.38,187.18 22.47,276.22 -16.99,44.95 -42.79,87.06 -77.71,120.31 -26.87,25.34 -60.19,45.53 -97.25,50.79 -25.73,3.94 -52.32,-0.56 -75.89,-11.3 -0.12,-104.13 -0.05,-208.28 -0.05,-312.41 -4.09,-4.22 -8.2,-8.43 -12.31,-12.6 23.18,-22.4 48.22,-42.74 72.3,-64.15zm-922.17 -29.82c29.51,-13.69 62.04,-22.3 94.78,-20.77 22.48,1.11 44.83,8.05 63.16,21.25 11.2,8.33 20.85,18.49 31.29,27.71 0.08,33.3 -0.05,66.59 0.08,99.89 52.47,42.72 104.99,85.36 157.44,128.13 -0.08,26.16 0.05,52.34 -0.08,78.53 -42.92,0.07 -85.84,-0.08 -128.76,0.05 -0.13,20.93 0.02,41.83 -0.08,62.75 -9.5,0.03 -18.97,0.06 -28.45,0 -0.05,2.95 -0.1,5.92 -0.12,8.89 -27.13,4.3 -55.52,-1.11 -78.81,-15.77 -27.07,-16.3 -47.85,-41.19 -64.03,-67.99 -25.11,-41.78 -38.55,-89.34 -47.13,-136.96 -10.44,-61.24 -11.89,-124.68 0.71,-185.71zm659.77 -329c30.42,-31.59 69.08,-55.95 111.82,-66.56 54.78,38.83 92.75,98.36 111.93,162.16 11.93,38.5 15.57,78.88 18.64,118.89 2.08,33.21 2.56,67.17 -5.89,99.63 -8.71,37.33 -38.84,67.96 -75.18,79.01l-2.21 -0.15c-22.15,-23.24 -45.77,-44.93 -68.32,-67.74 -15.06,0.1 -30.09,0.08 -45.15,0.03 -0.08,-16.41 0,-32.79 -0.06,-49.2 -14.7,-14.65 -29.15,-29.58 -44.26,-43.81 -22.45,-21.91 -44.02,-44.72 -66.97,-66.11 -3.15,-0.1 -6.28,-0.17 -9.4,-0.22 8.2,-60.91 32.41,-120.95 75.05,-165.93z"/>
  </g>
 </g>
</svg>
