<?xml version="1.0" encoding="UTF-8"?>
<!DOCTYPE svg PUBLIC "-//W3C//DTD SVG 1.1//EN" "http://www.w3.org/Graphics/SVG/1.1/DTD/svg11.dtd">
<!-- Creator: CorelDRAW -->
<svg xmlns="http://www.w3.org/2000/svg" xml:space="preserve" width="2000px" height="1600px" version="1.1" style="shape-rendering:geometricPrecision; text-rendering:geometricPrecision; image-rendering:optimizeQuality; fill-rule:evenodd; clip-rule:evenodd"
viewBox="0 0 2000 1600"
 xmlns:xlink="http://www.w3.org/1999/xlink">
 <defs>
  <style type="text/css">
   <![CDATA[
    .fil1 {fill:#003C7C;fill-rule:nonzero}
    .fil2 {fill:#D10F41;fill-rule:nonzero}
    .fil0 {fill:#FEFEFE;fill-rule:nonzero}
   ]]>
  </style>
 </defs>
 <g id="Capa_x0020_1">
  <metadata id="CorelCorpID_0Corel-Layer"/>
  <g id="South_x0020_Alabama_x0020_Jaguars.cdr">
   <path class="fil0" d="M851.27 58.86c61.81,-15.2 125.47,-22.44 189.06,-23.76 99.63,-0.32 199.13,14.5 295,41.41 39.73,11.46 79.24,24.23 116.91,41.42 31.87,16.48 62.43,35.4 93.24,53.79 41.55,25.1 82.79,50.7 124.02,76.33 -5.09,9.24 -6.83,19.69 -9.49,29.77 54.72,41.58 108.72,84.09 163.03,126.19 -11.36,22.21 -26.84,41.96 -40.24,62.9 -2.5,18.36 -6.3,36.92 -15.33,53.33 -14.48,27.82 -39.21,50.07 -68.2,61.96 6.67,-7.66 14.5,-14.29 20.49,-22.55 24.31,-31.42 35.31,-71.36 36.46,-110.67 12.61,-13.63 24.35,-28.04 37.26,-41.4 -33.86,-2.49 -67.73,-5.01 -101.6,-7.37 19.66,16.95 39.41,33.81 59.22,50.58 -8.85,51.45 -36.65,98.12 -72.81,135.15 -5.58,5.48 -12.84,8.9 -20.21,11.28 -43.3,12.57 -88.89,11.19 -133.48,10.02 -17.7,-1.28 -35.45,-1.34 -53.1,-3.23 -20.66,-0.83 -41.09,-4.31 -61.73,-5.5 -20.42,-1.95 -41.04,-0.45 -61.23,2.89 -46.12,7.3 -91.77,19.32 -134.26,38.92 -34.8,15.99 -67.33,37.43 -94.26,64.8 -25.6,26.74 -46.69,58.97 -55.69,95.21 -3.93,26.72 4.2,54.6 20.13,76.21 18.43,24.63 45.08,42.13 73.55,53.09 90.48,32.29 188.64,44.14 283.93,30.85 42.92,-5.93 85.45,-16.41 125.3,-33.61 -6.98,40.72 -24.1,79.88 -49.62,112.41 -9.51,11.46 -19.54,22.82 -31.94,31.25 -27.39,16.05 -59.54,21.87 -90.94,22.45 -37.86,-0.24 -75.53,-6.63 -112.03,-16.5 -32.95,-8.86 -65.54,-19.14 -97.56,-30.94 -42.41,-16.71 -82.75,-38.16 -122.46,-60.41 -34.46,-19.51 -68.37,-40.05 -101.71,-61.45 -68.47,-46.37 -146.74,-75.76 -225.43,-99.75 -34.63,-15.72 -63.89,-46.15 -72,-84.07 -10.01,-46.52 3.67,-94.57 24.56,-136.17 -47.96,46.21 -90.22,101.41 -108.67,166.3 -14.33,48.99 -11.47,102.41 6.86,149.95 23.8,62.45 68.56,115.15 120.92,155.84 -23.88,-10.41 -45.92,-24.74 -67.58,-39.16 -74.68,-50.87 -135.43,-121.92 -173.57,-203.88 -42.59,-91.12 -59.77,-193.16 -54.76,-293.3 0.81,-27.35 7.73,-53.95 14.91,-80.2 22.36,-79.65 62.04,-154.52 116.25,-217.07 44.4,-50.81 97.31,-95.27 158.02,-125.28 8.37,19.94 19.81,38.35 31.51,56.48 26.78,40.73 55.76,80.01 85.93,118.3 2.57,3.86 7.29,3.27 11.28,2.67 -10.98,-21.49 -24.48,-41.59 -37.58,-61.83 -31.68,-40.9 -59.92,-84.89 -79.65,-132.86 -2.83,-7.24 -6.01,-16.01 -1.64,-23.27 3.93,-6.03 11.9,-5.12 18.07,-4.57 32.58,4 65.1,8.26 97.63,12.64 18.22,2.95 36.76,1.8 55.08,3.59 29.05,0.57 58.04,2.48 87.08,2.97 8.33,0.02 16.67,1.59 24.97,0.38 -6.52,-1.02 -13.16,-0.7 -19.68,-1.78 -50.64,-7.35 -101.37,-14.19 -152.01,-21.6 9.49,-4.31 19.81,-6.3 29.79,-9.15zm-165.22 787.51c14.63,-6.69 31.75,-4.46 46.19,1.7 33.99,16.07 68.64,30.74 102.77,46.58 -26.52,15.87 -51.67,35.68 -68.21,62.2 -13.99,22.38 -20.4,49.87 -15.62,76.01 2.71,20.01 11.59,38.39 21.97,55.44 -29.68,-15.58 -53.93,-39.34 -77.9,-62.36 -12.74,-13.61 -27.22,-26.07 -36.06,-42.78 -16.81,-30.43 -16.16,-67.93 -4.22,-99.93 5.75,-15.2 15.77,-30.04 31.08,-36.86zm759.16 55.97c10.45,-28.58 20.47,-57.33 31.32,-85.76 4.31,26.29 8.79,52.53 13.08,78.82 3.82,-7.14 7.71,-14.23 11.62,-21.32 4.22,5.43 8.36,10.93 12.44,16.48 4.33,-4.76 8.7,-9.5 13.29,-14.04 1.38,3.57 2.78,7.16 4.21,10.74 13.63,-19.4 25.65,-39.91 39.49,-59.17 -3.08,27.62 -6.67,55.18 -9.26,82.85 -37.96,22.83 -81.98,33.08 -125.64,37.69 -67.56,6.84 -135.74,0.74 -202.48,-10.62 -16.37,-3.22 -32.99,-5.6 -48.94,-10.66 20.04,-0.4 40.07,0.73 60.11,0.79 33.91,2.14 68.01,0.25 101.88,3.31 31.51,1.59 65.46,1.95 93.13,-15.48 3.18,-3.76 3.8,-9.15 5.75,-13.63zm-287.96 -123.58c9.51,-3.59 21.8,-3.46 29.06,4.55 4.14,3.48 3.93,9.25 5.35,14.05 8.65,33.61 31.15,62.66 59.52,82.18 17.39,12.35 37.31,20.38 57.27,27.54 -27.39,5.2 -55.53,5.35 -83.3,4.18 -38.09,-2.97 -78.37,-11.79 -107.4,-38.24 -23,-20.43 -33.34,-51.54 -33.78,-81.67 18.94,17.05 42.85,27.1 66.52,35.74 -8.17,-8.2 -15.77,-19.47 -13.4,-31.6 2.38,-9.3 11.9,-13.8 20.16,-16.73zm206.89 -171.31c81.71,12.27 164.73,21.23 247.35,14.04 20.9,-2.06 41.77,-5.61 61.77,-12.17 -20.55,32.61 -42.87,64.1 -63.38,96.74 -0.3,-21.43 2.14,-42.79 3.29,-64.15 -6.56,7.94 -12.04,16.69 -18.03,25.06 -3.1,-7.71 -5.69,-15.61 -8.83,-23.27 -6.03,8.57 -10.96,17.85 -16.43,26.77 -4.08,-7.64 -5.76,-16.22 -8.84,-24.25 -5.6,6.25 -9.09,13.97 -13.67,20.94 -17.61,28.07 -34.15,56.82 -52.32,84.51 -2.21,-12.98 -0.6,-26.18 -1.13,-39.26 -0.97,-19.07 0.05,-38.2 -0.95,-57.27 -40.67,-14.69 -81.22,-29.64 -121.88,-44.33 -2.42,-0.94 -4.72,-2.09 -6.95,-3.36zm-587.02 -476.97l0 0c5.93,22.98 16.8,44.34 28.46,64.89 17.85,30.9 38.75,59.97 61.15,87.72 6.13,6.83 12,14.65 20.85,18.05 1.32,-3.57 2.78,-7.24 2.44,-11.13 -2.14,-27.75 -8.83,-55.12 -8.53,-83.07 -0.2,-16.62 1.02,-35.41 12.95,-48.24 8.07,-8.68 20.42,-9.11 31.42,-9.87 -3.54,-0.72 -7.09,-1.38 -10.57,-2.27 -41.81,-11.96 -83.49,-24.49 -125.74,-34.89 -4.15,-0.98 -8.29,-2.1 -12.53,-2.34 -4.04,6.42 -1.13,14.32 0.1,21.15zm507.89 67.06l0 0c-9.01,24.67 -18.88,49 -27.86,73.7 84.87,15.69 169.57,32.55 254.52,47.73 -6.92,-2.38 -13.18,-6.13 -19.55,-9.66 -22.85,-12.38 -45.72,-24.74 -68.52,-37.22 -2.78,-1.76 -6.01,-2.49 -9.24,-2 -17.16,1.59 -34.25,4.08 -51.47,5.01 3.72,-9.79 8.09,-19.34 11.68,-29.17 -30.05,-15.76 -59.54,-32.57 -89.56,-48.39zm-764.07 237.62l0 0c-10.28,5.35 -15.75,16.46 -20.4,26.57 -3.97,8.32 -1.47,18.04 3.05,25.62 2.32,3.8 5.4,7.82 10.09,8.62 7.13,-1.27 14.25,-5.73 16.75,-12.8 2.44,-7.09 7.24,-13.48 7.52,-21.19 0.57,-8.98 -1.83,-18.16 -6.39,-25.86 -2.38,-3.7 -7.31,-2.49 -10.62,-0.96zm799.95 30.45l0 0c-87.86,3.99 -175.54,15.27 -261.09,35.97 -88.37,21.66 -174.73,53.68 -253.25,100.01 82.81,-35.25 169.19,-61.77 256.93,-81.58 94.21,-20.89 190.44,-33.76 287.01,-34.82 92.32,-1.57 185.05,7.15 274.85,29.02 9.49,-10.12 18.75,-20.49 28.09,-30.76 -66.59,-10.32 -133.79,-16.67 -201.15,-18.52 -43.76,-2.19 -87.63,-1.21 -131.39,0.68zm-65.72 63.83l0 0c-89.11,12.72 -177.3,37.16 -257.45,78.69 91.83,-33.53 187.4,-57.16 284.48,-68.99 93.32,-11.08 188.96,-10.45 280.73,11.43 8.45,-5.18 15.82,-11.98 23.68,-18.01 -109.53,-17.2 -221.6,-18.3 -331.44,-3.12zm-709.28 36.46l0 0c-0.3,11.61 8.2,21.72 18.67,25.84 7.7,0.15 12.73,-8.39 13.37,-15.25 -0.25,-8.53 1.21,-17.64 -2.69,-25.61 -3.38,-7.13 -9.18,-12.74 -15.34,-17.51 -12.52,5.58 -13.18,20.68 -14.01,32.53zm-87.31 8.64l0 0c0.15,11.25 9.66,19.75 19.39,23.78 4.69,2.25 9.85,-0.7 12.5,-4.65 4.42,-5.48 2.49,-12.85 2.44,-19.26 -0.61,-12.89 -10.78,-23.1 -21.59,-28.88 -11.45,4.65 -13.08,18.2 -12.74,29.01zm83.23 57.33l0 0c-4.58,3.71 -7,9.41 -8.6,14.95 -2.57,8.38 3.08,16.58 9.24,21.74 4.57,4.59 12.42,1.1 14.29,-4.46 2.59,-7.62 4.06,-16.54 -0.68,-23.67 -2.67,-5.19 -7.41,-13.21 -14.25,-8.56zm-63.59 21.15l0 0c-12.36,5.92 -13.42,21.78 -13.65,33.8 -1.13,13.27 9.49,25.27 21.63,29.03 7.99,0.44 12.77,-7.71 14.42,-14.48 0.4,-12.38 1.36,-26.38 -7.28,-36.5 -4.27,-4.55 -8.26,-11.64 -15.12,-11.85z"/>
   <path class="fil1" d="M755.93 60.31c102.24,-36.87 211.72,-53.94 320.35,-49.22 125.09,0.91 249.41,30 363.54,80.73 37.8,17 73.85,37.58 109.59,58.5 47.39,28.7 94.1,59.32 135.13,96.8 -2.17,8.26 -3.89,16.62 -6.01,24.88 55.54,39.58 109.2,81.77 160.56,126.62 -10.83,26.37 -26.98,49.98 -42.57,73.66 0.55,17.07 -1.83,34.48 -9.58,49.88 -15.94,32.82 -45.16,57.03 -75.97,75.4 -5.39,3.65 -12.59,5.26 -16.2,11.08 -61.51,91.37 -97.31,199.76 -103.07,309.71 -0.93,8.58 1.38,17.81 -2.84,25.76 -14.82,32.44 -30.77,64.46 -49.9,94.59 -9.11,13.99 -18.92,28.31 -33.47,37.18 -38.3,26.08 -86.05,33.17 -131.51,31.72 -37.08,-1.91 -74.19,-5.09 -110.59,-12.84 -87.1,-12.61 -169.15,-48.39 -244.04,-93.62 -48.49,-30.02 -97.05,-60.41 -149.01,-84.21 -3.23,-1.32 -6.52,-3.34 -10.13,-2.7 -10.15,7.03 -16.56,17.99 -22.85,28.33 -16.24,28.26 -27.47,59.88 -29.77,92.55 -1.86,40.75 8.35,81.29 24.85,118.34 -83.24,-25.44 -163.9,-61.9 -233.7,-114.43 -71.28,-53.15 -129.71,-123.79 -166.64,-204.8 -42.57,-92.49 -58.12,-196.07 -51.47,-297.26 1.61,-21.51 3.8,-43.07 8.22,-64.19 19.64,-79.01 53.21,-155.11 102.47,-220.22 53.15,-70.94 124.6,-127.02 203.95,-166 0.66,-10.53 4.86,-22.19 15.07,-26.9 14.4,-7.29 30.79,-2.68 45.59,0.66zm-737.52 1395.2c327.33,-0.67 654.69,-0.1 982.05,-0.29 0,11 -0.02,21.97 0,32.97 -240.73,0 -481.47,0 -722.22,0 -68.62,-0.23 -137.31,0.45 -205.92,-0.34 -18.09,-10.53 -36.52,-20.7 -53.91,-32.34zm1849.29 -215.15c8.11,-9.13 21.1,-10.54 32.53,-11.79 20.53,-1.1 41.1,-0.32 61.66,-0.53 11.17,0.4 23.21,-0.08 33.31,5.5 5.01,2.59 5.93,8.98 3.55,13.74 -21.3,56.29 -42.77,112.51 -64.25,168.72 -15.84,-0.02 -31.68,0.02 -47.5,-0.02 10.61,-27.86 21.29,-55.68 31.85,-83.55 -13.25,-0.03 -26.48,0.02 -39.71,-0.03 -10.85,27.8 -21.28,55.76 -31.98,83.6 -15.86,0 -31.72,-0.02 -47.56,0 19.94,-52.17 39.79,-104.38 59.69,-156.58 2.71,-6.37 4.2,-13.46 8.41,-19.06zm43.63 7.49l0 0c-8.09,20.94 -16.14,41.9 -23.99,62.94 13.25,0.1 26.49,0.02 39.75,0.06 8,-21 15.94,-42 24.03,-62.96 -13.27,-0.1 -26.54,-0.02 -39.79,-0.04zm-348.95 168.15c24.1,-62.74 47.97,-125.57 71.87,-188.4 23.72,0.04 47.42,0.02 71.12,0.02 -1.51,36.54 -2.26,73.15 -3.19,109.67 11.38,-13.19 20.6,-28.14 31.11,-42.02 16.24,-22.51 32.57,-44.98 48.69,-67.59 25.18,-0.17 50.36,0.04 75.57,-0.11 -23.79,62.83 -47.89,125.56 -71.73,188.37 -16.16,0.14 -32.32,-0.07 -48.46,0.12 10.34,-31.38 20.86,-62.72 31.32,-94.06 0.96,-2.99 1.66,-6.07 2.3,-9.13 -23.93,34.35 -47.61,68.9 -71.6,103.19 -16.69,-0.17 -33.38,-0.02 -50.07,-0.08 3.1,-37.99 5.31,-76.04 8.19,-114.03 -16.32,37.59 -30.93,75.98 -46.31,113.99 -16.26,0.12 -32.55,0.02 -48.81,0.06zm-72.64 -184.69c16.9,-4.37 34.52,-3.08 51.81,-3.29 14.59,0.19 29.24,-0.57 43.78,0.87 6.52,1.1 14.08,1.68 18.81,6.94 3.47,3.76 1.62,9.35 0.2,13.61 -21.05,55.51 -42.49,110.84 -63.28,166.43 -15.9,0.3 -31.81,0 -47.71,0.15 10.49,-27.88 21.17,-55.69 31.83,-83.53 -13.36,-0.11 -26.71,-0.13 -40.05,0.02 -10.32,27.62 -20.79,55.23 -31.51,82.7 -15.48,1.94 -31.87,0.09 -47.69,0.9 21.43,-56.51 43.04,-112.97 64.53,-169.45 2.74,-8.47 11.13,-13.23 19.28,-15.35zm27.69 16.58l0 0c-7.77,21.07 -15.97,41.96 -23.91,62.96 13.25,0 26.5,-0.08 39.77,0.04 8.13,-20.95 16.12,-41.98 24.01,-63.04 -13.29,0 -26.6,-0.06 -39.87,0.04zm-188.05 -20.25c34.59,0.02 69.18,-0.11 103.79,0.04 8.35,0.72 18.73,1.38 23.91,9.04 3.44,5.12 0.15,11.17 -1.4,16.36 -7.45,19.3 -14.59,38.73 -22.19,57.96 -1.89,5.95 -7.85,8.56 -12.84,11.38 2.61,3.85 5.35,8.41 3.18,13.17 -6.82,20.3 -15.14,40.09 -22.49,60.22 -5.75,15.18 -23.8,19.17 -38.24,20.06 -35.14,0.32 -70.3,-0.02 -105.44,0.15 23.89,-62.79 47.9,-125.55 71.72,-188.38zm40.26 21.95l0 0c-7.88,20.37 -15.46,40.81 -23.4,61.13 13,0.17 25.99,0.17 38.99,0 7.58,-20.4 15.43,-40.7 23.23,-61.04 -12.95,-0.15 -25.89,-0.02 -38.82,-0.09zm-30.96 80.88l0 0c-7.68,21.3 -16.2,42.28 -23.99,63.53 12.97,-0.1 25.99,0.24 38.99,-0.21 7.7,-21.3 16.03,-42.34 24.07,-63.51 -13.03,0.11 -26.05,-0.17 -39.07,0.19zm-174.26 -84.06c5.59,-14.97 23.89,-17.03 37.67,-18.24 23.91,-0.28 47.84,-0.19 71.77,-0.04 8.81,0.91 19.75,1.23 25.52,9.11 1.91,4.82 -0.47,9.87 -2.04,14.46 -21.1,54.61 -41.44,109.54 -62.78,164.04 -15.74,-0.31 -31.47,-0.12 -47.19,-0.1 10.39,-27.78 21.05,-55.46 31.64,-83.15 -13.31,-0.13 -26.6,-0.09 -39.92,-0.04 -10.61,27.75 -20.93,55.61 -31.85,83.25 -15.79,-0.23 -31.59,-0.06 -47.37,-0.1 21.57,-56.38 42.98,-112.82 64.55,-169.19zm46.82 1.23l0 0c-7.56,21.21 -15.99,42.08 -23.82,63.21 13.25,-0.02 26.52,-0.02 39.79,-0.02 8.03,-21.11 16.18,-42.17 24.08,-63.34 -13.36,0.04 -26.71,-0.15 -40.05,0.15zm-155.36 -19.92c16.41,-0.23 32.8,-0.02 49.21,-0.12 -21.25,55.41 -42.38,110.9 -63.44,166.38 19.05,0.06 38.13,-0.04 57.2,0.06 -2.61,7.31 -5.48,14.53 -8.02,21.85 -35.53,0.24 -71.05,0.02 -106.57,0.13 23.88,-62.76 48.11,-125.4 71.62,-188.3zm-164.52 -59.47c17.11,-6.33 35.63,-6.35 53.63,-6.05 24.02,0.04 48.06,-0.07 72.07,0.04 10.64,0.7 21.94,1.44 31.32,7.03 5.8,3.39 8.47,11.12 5.5,17.26 -29,76.55 -58.16,153.03 -87.42,229.47 -21.49,0 -42.97,-0.02 -64.44,0.02 14.48,-37.58 28.75,-75.27 43.06,-112.92 -18.03,0.02 -36.05,-0.3 -54.06,0.17 -13.91,37.75 -28.45,75.25 -42.79,112.84 -21.44,-0.22 -42.89,-0.13 -64.31,-0.07 29.13,-76.65 58.39,-153.26 87.56,-229.91 3.21,-8.84 11.39,-14.7 19.88,-17.88zm43.57 20.53l0 0c-10.83,28.5 -21.76,56.97 -32.55,85.47 17.98,0.06 35.97,0.31 53.95,-0.13 10.45,-28.56 21.64,-56.87 32.32,-85.34 -17.9,0.02 -35.82,0.02 -53.72,0zm-456.71 -535.76c6.86,0.21 10.85,7.3 15.12,11.85 8.64,10.12 7.68,24.12 7.28,36.5 -1.65,6.77 -6.43,14.92 -14.42,14.48 -12.14,-3.76 -22.76,-15.76 -21.63,-29.03 0.23,-12.02 1.29,-27.88 13.65,-33.8zm63.59 -21.15c6.84,-4.65 11.58,3.37 14.25,8.56 4.74,7.13 3.27,16.05 0.68,23.67 -1.87,5.56 -9.72,9.05 -14.29,4.46 -6.16,-5.16 -11.81,-13.36 -9.24,-21.74 1.6,-5.54 4.02,-11.24 8.6,-14.95zm-83.23 -57.33c-0.34,-10.81 1.29,-24.36 12.74,-29.01 10.81,5.78 20.98,15.99 21.59,28.88 0.05,6.41 1.98,13.78 -2.44,19.26 -2.65,3.95 -7.81,6.9 -12.5,4.65 -9.73,-4.03 -19.24,-12.53 -19.39,-23.78zm87.31 -8.64c0.83,-11.85 1.49,-26.95 14.01,-32.53 6.16,4.77 11.96,10.38 15.34,17.51 3.9,7.97 2.44,17.08 2.69,25.61 -0.64,6.86 -5.67,15.4 -13.37,15.25 -10.47,-4.12 -18.97,-14.23 -18.67,-25.84zm709.28 -36.46c109.84,-15.18 221.91,-14.08 331.44,3.12 -7.86,6.03 -15.23,12.83 -23.68,18.01 -91.77,-21.88 -187.41,-22.51 -280.73,-11.43 -97.08,11.83 -192.65,35.46 -284.48,68.99 80.15,-41.53 168.34,-65.97 257.45,-78.69zm65.72 -63.83c43.76,-1.89 87.63,-2.87 131.39,-0.68 67.36,1.85 134.56,8.2 201.15,18.52 -9.34,10.27 -18.6,20.64 -28.09,30.76 -89.8,-21.87 -182.53,-30.59 -274.85,-29.02 -96.57,1.06 -192.8,13.93 -287.01,34.82 -87.74,19.81 -174.12,46.33 -256.93,81.58 78.52,-46.33 164.88,-78.35 253.25,-100.01 85.55,-20.7 173.23,-31.98 261.09,-35.97zm-799.95 -30.45c3.31,-1.53 8.24,-2.74 10.62,0.96 4.56,7.7 6.96,16.88 6.39,25.86 -0.28,7.71 -5.08,14.1 -7.52,21.19 -2.5,7.07 -9.62,11.53 -16.75,12.8 -4.69,-0.8 -7.77,-4.82 -10.09,-8.62 -4.52,-7.58 -7.02,-17.3 -3.05,-25.62 4.65,-10.11 10.12,-21.22 20.4,-26.57zm764.07 -237.62c30.02,15.82 59.51,32.63 89.56,48.39 -3.59,9.83 -7.96,19.38 -11.68,29.17 17.22,-0.93 34.31,-3.42 51.47,-5.01 3.23,-0.49 6.46,0.24 9.24,2 22.8,12.48 45.67,24.84 68.52,37.22 6.37,3.53 12.63,7.28 19.55,9.66 -84.95,-15.18 -169.65,-32.04 -254.52,-47.73 8.98,-24.7 18.85,-49.03 27.86,-73.7zm-507.89 -67.06c-1.23,-6.83 -4.14,-14.73 -0.1,-21.15 4.24,0.24 8.38,1.36 12.53,2.34 42.25,10.4 83.93,22.93 125.74,34.89 3.48,0.89 7.03,1.55 10.57,2.27 -11,0.76 -23.35,1.19 -31.42,9.87 -11.93,12.83 -13.15,31.62 -12.95,48.24 -0.3,27.95 6.39,55.32 8.53,83.07 0.34,3.89 -1.12,7.56 -2.44,11.13 -8.85,-3.4 -14.72,-11.22 -20.85,-18.05 -22.4,-27.75 -43.3,-56.82 -61.15,-87.72 -11.66,-20.55 -22.53,-41.91 -28.46,-64.89zm74.15 -71.62l0 0c-9.98,2.85 -20.3,4.84 -29.79,9.15 50.64,7.41 101.37,14.25 152.01,21.6 6.52,1.08 13.16,0.76 19.68,1.78 -8.3,1.21 -16.64,-0.36 -24.97,-0.38 -29.04,-0.49 -58.03,-2.4 -87.08,-2.97 -18.32,-1.79 -36.86,-0.64 -55.08,-3.59 -32.53,-4.38 -65.05,-8.64 -97.63,-12.64 -6.17,-0.55 -14.14,-1.46 -18.07,4.57 -4.37,7.26 -1.19,16.03 1.64,23.27 19.73,47.97 47.97,91.96 79.65,132.86 13.1,20.24 26.6,40.34 37.58,61.83 -3.99,0.6 -8.71,1.19 -11.28,-2.67 -30.17,-38.29 -59.15,-77.57 -85.93,-118.3 -11.7,-18.13 -23.14,-36.54 -31.51,-56.48 -60.71,30.01 -113.62,74.47 -158.02,125.28 -54.21,62.55 -93.89,137.42 -116.25,217.07 -7.18,26.25 -14.1,52.85 -14.91,80.2 -5.01,100.14 12.17,202.18 54.76,293.3 38.14,81.96 98.89,153.01 173.57,203.88 21.66,14.42 43.7,28.75 67.58,39.16 -52.36,-40.69 -97.12,-93.39 -120.92,-155.84 -18.33,-47.54 -21.19,-100.96 -6.86,-149.95 18.45,-64.89 60.71,-120.09 108.67,-166.3 -20.89,41.6 -34.57,89.65 -24.56,136.17 8.11,37.92 37.37,68.35 72,84.07 78.69,23.99 156.96,53.38 225.43,99.75 33.34,21.4 67.25,41.94 101.71,61.45 39.71,22.25 80.05,43.7 122.46,60.41 32.02,11.8 64.61,22.08 97.56,30.94 36.5,9.87 74.17,16.26 112.03,16.5 31.4,-0.58 63.55,-6.4 90.94,-22.45 12.4,-8.43 22.43,-19.79 31.94,-31.25 25.52,-32.53 42.64,-71.69 49.62,-112.41 -39.85,17.2 -82.38,27.68 -125.3,33.61 -95.29,13.29 -193.45,1.44 -283.93,-30.85 -28.47,-10.96 -55.12,-28.46 -73.55,-53.09 -15.93,-21.61 -24.06,-49.49 -20.13,-76.21 9,-36.24 30.09,-68.47 55.69,-95.21 26.93,-27.37 59.46,-48.81 94.26,-64.8 42.49,-19.6 88.14,-31.62 134.26,-38.92 20.19,-3.34 40.81,-4.84 61.23,-2.89 20.64,1.19 41.07,4.67 61.73,5.5 17.65,1.89 35.4,1.95 53.1,3.23 44.59,1.17 90.18,2.55 133.48,-10.02 7.37,-2.38 14.63,-5.8 20.21,-11.28 36.16,-37.03 63.96,-83.7 72.81,-135.15 -19.81,-16.77 -39.56,-33.63 -59.22,-50.58 33.87,2.36 67.74,4.88 101.6,7.37 -12.91,13.36 -24.65,27.77 -37.26,41.4 -1.15,39.31 -12.15,79.25 -36.46,110.67 -5.99,8.26 -13.82,14.89 -20.49,22.55 28.99,-11.89 53.72,-34.14 68.2,-61.96 9.03,-16.41 12.83,-34.97 15.33,-53.33 13.4,-20.94 28.88,-40.69 40.24,-62.9 -54.31,-42.1 -108.31,-84.61 -163.03,-126.19 2.66,-10.08 4.4,-20.53 9.49,-29.77 -41.23,-25.63 -82.47,-51.23 -124.02,-76.33 -30.81,-18.39 -61.37,-37.31 -93.24,-53.79 -37.67,-17.19 -77.18,-29.96 -116.91,-41.42 -95.87,-26.91 -195.37,-41.73 -295,-41.41 -63.59,1.32 -127.25,8.56 -189.06,23.76zm512.87 548.59l0 0c2.23,1.27 4.53,2.42 6.95,3.36 40.66,14.69 81.21,29.64 121.88,44.33 1,19.07 -0.02,38.2 0.95,57.27 0.53,13.08 -1.08,26.28 1.13,39.26 18.17,-27.69 34.71,-56.44 52.32,-84.51 4.58,-6.97 8.07,-14.69 13.67,-20.94 3.08,8.03 4.76,16.61 8.84,24.25 5.47,-8.92 10.4,-18.2 16.43,-26.77 3.14,7.66 5.73,15.56 8.83,23.27 5.99,-8.37 11.47,-17.12 18.03,-25.06 -1.15,21.36 -3.59,42.72 -3.29,64.15 20.51,-32.64 42.83,-64.13 63.38,-96.74 -20,6.56 -40.87,10.11 -61.77,12.17 -82.62,7.19 -165.64,-1.77 -247.35,-14.04zm-206.89 171.31l0 0c-8.26,2.93 -17.78,7.43 -20.16,16.73 -2.37,12.13 5.23,23.4 13.4,31.6 -23.67,-8.64 -47.58,-18.69 -66.52,-35.74 0.44,30.13 10.78,61.24 33.78,81.67 29.03,26.45 69.31,35.27 107.4,38.24 27.77,1.17 55.91,1.02 83.3,-4.18 -19.96,-7.16 -39.88,-15.19 -57.27,-27.54 -28.37,-19.52 -50.87,-48.57 -59.52,-82.18 -1.42,-4.8 -1.21,-10.57 -5.35,-14.05 -7.26,-8.01 -19.55,-8.14 -29.06,-4.55zm287.96 123.58l0 0c-1.95,4.48 -2.57,9.87 -5.75,13.63 -27.67,17.43 -61.62,17.07 -93.13,15.48 -33.87,-3.06 -67.97,-1.17 -101.88,-3.31 -20.04,-0.06 -40.07,-1.19 -60.11,-0.79 15.95,5.06 32.57,7.44 48.94,10.66 66.74,11.36 134.92,17.46 202.48,10.62 43.66,-4.61 87.68,-14.86 125.64,-37.69 2.59,-27.67 6.18,-55.23 9.26,-82.85 -13.84,19.26 -25.86,39.77 -39.49,59.17 -1.43,-3.58 -2.83,-7.17 -4.21,-10.74 -4.59,4.54 -8.96,9.28 -13.29,14.04 -4.08,-5.55 -8.22,-11.05 -12.44,-16.48 -3.91,7.09 -7.8,14.18 -11.62,21.32 -4.29,-26.29 -8.77,-52.53 -13.08,-78.82 -10.85,28.43 -20.87,57.18 -31.32,85.76zm-759.16 -55.97l0 0c-15.31,6.82 -25.33,21.66 -31.08,36.86 -11.94,32 -12.59,69.5 4.22,99.93 8.84,16.71 23.32,29.17 36.06,42.78 23.97,23.02 48.22,46.78 77.9,62.36 -10.38,-17.05 -19.26,-35.43 -21.97,-55.44 -4.78,-26.14 1.63,-53.63 15.62,-76.01 16.54,-26.52 41.69,-46.33 68.21,-62.2 -34.13,-15.84 -68.78,-30.51 -102.77,-46.58 -14.44,-6.16 -31.56,-8.39 -46.19,-1.7z"/>
   <path class="fil2" d="M443.78 192.29c77.84,-67.14 168.51,-118.16 263.55,-156.66 -9.15,5.86 -19.05,10.39 -28.41,15.84 -101.35,56.65 -193.25,132.44 -261.13,227.16 -47.16,65.97 -82.07,141.31 -97.59,221.1 -13.67,68.27 -12.91,139.29 1.93,207.33 24.95,116.4 91.33,221.06 177.3,302.21 56.12,53.38 120.59,97.61 189.17,133.39 26.16,13.21 52.45,26.41 79.99,36.52 -25.33,-6.09 -49.69,-15.82 -74.13,-24.8 -84.34,-32.57 -164.79,-76.18 -235.84,-132.3 -83.45,-65.93 -154.3,-150.8 -192.73,-250.79 -26.91,-68.95 -36.95,-144.39 -28.71,-217.94 7.92,-73.17 34.08,-143.82 72.66,-206.29 35.82,-58.47 82.17,-110.03 133.94,-154.77zm1246.47 1252.95c23.33,-0.66 46.67,-0.07 70.03,-0.32 11.16,-0.26 23.9,2.04 31.02,11.57 12.16,15.59 10.66,39.22 -0.7,54.83 -6.5,9.32 -17.67,13.69 -28.41,15.82 12.31,18.43 20.51,39.13 27.45,60.09 -14.01,-0.09 -28.01,0.19 -42,-0.17 -4.22,-13.83 -9.58,-27.25 -14.93,-40.65 -2.29,-5.07 -4.24,-10.61 -8.43,-14.45 -2.99,-1.75 -6.51,-2.34 -9.72,-3.42 -4.65,19.34 -7.69,39.07 -11.45,58.6 -13.25,0.17 -26.49,0.04 -39.72,0.09 8.85,-47.35 18.53,-94.56 26.86,-141.99zm34.37 28.6l0 0c-1.78,9.7 -3.67,19.39 -5.47,29.09 10.51,0 21.19,0.23 31.53,-1.93 9.98,-2.44 15.62,-17.03 7.77,-24.49 -10.49,-4.94 -22.64,-2.29 -33.83,-2.67zm-139.65 -27.99c13.8,-2.1 28.48,-0.4 42.62,-0.76 6.77,47.35 13.37,94.72 20.49,142.03 -12.98,0.21 -25.97,0.04 -38.94,0.11 -0.51,-7.67 -1,-15.33 -1.62,-22.98 -14.03,-0.23 -28.07,-0.23 -42.1,-0.02 -3.21,7.56 -6.61,15.06 -9.56,22.74 -14.33,0.55 -28.67,0.13 -43,0.26 24.23,-47.01 48.01,-94.3 72.11,-141.38zm15.48 36.86l0 0c-7.83,16.84 -14.54,34.19 -22.1,51.16 8.81,0.04 17.64,0.02 26.48,0.06 -1.43,-17.07 -1.79,-34.31 -4.38,-51.22zm-191.82 -37.75c13.14,0 26.28,0 39.43,0 -4.67,26.01 -9.94,51.94 -14.89,77.91 -1.42,8.85 -3.84,20.04 3.36,27.11 10.28,7.46 26.84,4.06 33.04,-7.2 5.41,-9.51 6.67,-20.59 8.79,-31.14 4.01,-22.17 8.7,-44.21 12.25,-66.44 13.36,-0.49 26.73,-0.15 40.11,-0.24 -4.61,24.12 -9.34,48.24 -13.99,72.34 -3.66,20.5 -8.03,42.58 -23.34,57.84 -15.31,14.21 -37.92,15.8 -57.71,13.81 -13.55,-1.09 -26.82,-7.71 -34.38,-19.24 -10.42,-15.54 -9.09,-35.33 -6.5,-52.98 4.55,-23.93 9.11,-47.88 13.83,-71.77zm-241.89 0.74c13.95,-1.72 28.39,-0.38 42.53,-0.61 6.54,47.41 13.9,94.7 20.15,142.14 -12.87,0 -25.72,-0.02 -38.58,0 -0.49,-7.69 -1,-15.36 -1.66,-23.02 -14.04,-0.15 -28.05,-0.21 -42.09,0.02 -3.16,7.58 -6.58,15.03 -9.51,22.72 -14.33,0.59 -28.68,0.13 -43.02,0.28 24.25,-47.08 48.08,-94.39 72.18,-141.53zm15.5 36.97l0 0c-7.97,16.82 -14.59,34.23 -22.19,51.22 8.83,0.02 17.64,0 26.48,0.04 -1.36,-17.09 -1.94,-34.29 -4.29,-51.26zm-113.37 -37.62c13.31,-0.09 26.61,-0.28 39.92,0.12 -6.82,31.01 -12.1,62.32 -18.49,93.41 -2.85,13.46 -6.06,27.82 -15.57,38.33 -10.34,10.87 -26.46,12.84 -40.68,12.76 -14.1,0.02 -30.24,-2 -40.01,-13.27 -8.7,-10.11 -8.79,-24.19 -7.6,-36.74 12.51,-1.72 25.02,-3.35 37.56,-4.69 0.34,6.22 -2.14,14.02 2.87,19 5.01,3.97 13.04,3.81 17.65,-0.74 4.16,-4.65 5.3,-11.02 6.62,-16.88 5.95,-30.43 11.74,-60.9 17.73,-91.3zm795.66 -2.02c16.95,-1.25 35.95,0.17 49.73,11.19 9.3,7.2 12.91,18.92 14.46,30.11 -12.31,1.31 -24.67,1.53 -37.01,2.14 -0.93,-6.98 -3.82,-14.88 -11.21,-17.13 -6.67,-1.51 -15.35,-2.21 -20.07,3.8 -4.35,4.5 -2.08,12.25 3.34,14.86 14.75,8.62 32.57,12.62 44.93,25.1 11.53,11.38 13.95,29.66 8.32,44.48 -5.92,16.8 -22.08,29.16 -39.73,31.03 -16.41,2.06 -33.93,1.61 -49.17,-5.42 -15.82,-7.73 -22.85,-26.37 -22,-43.14 12.36,-0.83 24.67,-2.23 37.05,-2.66 0.45,7.77 1.4,17.56 9.28,21.53 9.58,4.89 24.33,3.19 29.32,-7.45 2.68,-5.93 -0.36,-13.12 -5.98,-16.01 -14.27,-7.77 -30.62,-11.87 -43.34,-22.34 -13.49,-11.34 -14.53,-32.4 -6.61,-47.26 7.44,-14.1 23.32,-21.53 38.69,-22.83zm-590.63 12.36c20.58,-13.63 48.29,-17.05 71.15,-7.31 15.38,6.59 24.17,22.26 27.86,37.91 -12.99,1.71 -25.99,3.58 -39.07,4.56 -2.1,-5.03 -4.52,-10.43 -9.42,-13.29 -10.05,-6.14 -24.19,-3.4 -31.51,5.73 -10.32,12.42 -14.66,28.9 -15.59,44.74 -0.85,11.19 4.27,23.59 14.86,28.5 10.45,4.45 22.26,1.12 31.62,-4.38 1.1,-5.16 2.14,-10.32 3.06,-15.52 -8.09,-0.11 -16.16,-0.09 -24.21,-0.09 2.15,-9.68 3.44,-19.53 5.82,-29.15 19.68,-1.87 39.85,-0.25 59.73,-0.78 -4.33,22.27 -8.62,44.54 -12.91,66.84 -22.78,12.59 -49.86,20.15 -75.83,14.65 -19.83,-3.97 -35.52,-21 -39.07,-40.75 -6.3,-33.25 4.36,-72.17 33.51,-91.66zm-579.78 -227.77c16.16,0 32.34,0 48.5,0 -10.41,27.88 -21.28,55.58 -31.64,83.49 12.89,0.17 25.76,0.04 38.65,0.08 10.61,-27.88 21.17,-55.76 31.89,-83.57 16.16,-0.07 32.32,0.1 48.47,-0.11 -23.73,62.89 -47.83,125.66 -71.72,188.49 -16.2,0.04 -32.4,-0.09 -48.61,0.08 10.43,-27.79 21.22,-55.41 31.62,-83.21 -12.87,-0.21 -25.73,0 -38.58,-0.15 -10.68,27.73 -21.19,55.53 -31.83,83.28 -16.18,0.04 -32.34,-0.13 -48.47,0.11 23.65,-62.92 47.81,-125.66 71.72,-188.49zm-124.49 0.12c36.99,-0.27 73.98,-0.06 110.99,-0.1 -2.76,7.24 -5.61,14.46 -8.16,21.78 -10.21,0.41 -20.44,-0.04 -30.66,0.41 -21.1,55.46 -42.59,110.79 -63.91,166.17 -16.18,0 -32.36,-0.04 -48.54,0.04 21.04,-55.5 42.59,-110.82 63.47,-166.36 -10.41,-0.13 -20.81,-0.02 -31.19,-0.11 2.65,-7.28 5.54,-14.48 8,-21.83zm-145.07 -0.12c16.16,0 32.32,-0.02 48.5,0 -21.08,55.44 -42.17,110.9 -63.4,166.28 12.97,0.21 25.94,0.06 38.9,0.1 20.95,-55.5 42.27,-110.88 63.27,-166.34 16.2,-0.13 32.4,0.04 48.61,-0.11 -21.22,56.04 -42.6,112.01 -63.98,167.98 -4.91,14.74 -21.94,19.09 -35.72,20.21 -23.35,0.6 -46.71,0.07 -70.09,0.28 -11.1,0.17 -23.42,-3.61 -29.45,-13.63 -2.42,-3.53 -0.1,-7.75 0.96,-11.28 20.89,-54.46 41.53,-109.03 62.4,-163.49zm-156.04 18.92c4.33,-11.75 17.13,-17.4 28.85,-18.31 19.75,-1.21 39.54,-0.36 59.31,-0.61 12.72,0.19 25.63,-0.73 38.18,1.84 5.71,0.87 10.36,5.97 10.72,11.75 -0.96,5.45 -3.12,10.59 -5.07,15.75 -17.86,46.65 -35.57,93.34 -53.38,140.01 -6.06,15.29 -24.42,19.45 -39.2,19.05 -24.04,-0.13 -48.1,0.13 -72.13,-0.11 -9.92,-0.46 -22.93,-2.69 -25.76,-13.99 4.1,-14.86 10.51,-28.94 15.73,-43.42 14.3,-37.31 28.39,-74.7 42.75,-111.96zm-7.62 147.44l0 0c12.88,0.06 25.75,-0.06 38.64,0.09 18.54,-48.04 36.63,-96.26 55.12,-144.31 -12.8,-0.44 -25.67,0.47 -38.41,-1.08 -18.39,48.45 -37.01,96.82 -55.35,145.3zm-149.19 -226.01c10.89,-4.88 23.1,-5.52 34.86,-5.77 47.53,0.06 95.04,-0.11 142.57,0.08 -11.72,7.71 -23.66,15.06 -35.36,22.78 -4.18,2.64 -8.47,6.03 -13.76,5.48 -27.83,-0.04 -55.67,-0.02 -83.51,-0.04 -10.81,28.18 -21.51,56.4 -32.25,84.59 23.74,0.15 47.5,-0.29 71.26,0.2 11.34,1.06 23.93,1.27 33.29,8.66 5.9,4.63 5.84,12.99 2.91,19.3 -10.72,28.09 -21.45,56.18 -32.1,84.28 -2.64,7.34 -7.27,14.16 -14.15,18.13 -12.95,7.75 -28.43,9.85 -43.27,10.32 -47.39,0.08 -94.81,-0.09 -142.2,0.08l0 -0.29c13.52,-8.03 27.37,-15.46 40.92,-23.42 4.39,-2.45 8.87,-5.5 14.16,-5.1 26.73,-0.02 53.49,0.13 80.24,-0.04 10.66,-28.01 21.23,-56.08 32.02,-84.05 -24.61,-0.44 -49.24,0.32 -73.85,-0.36 -11.15,-1.16 -24.08,-1.63 -32.4,-10.15 -6.1,-7.41 -1.53,-17.15 1.4,-24.86 10.19,-26.2 20.04,-52.55 30.11,-78.8 3.33,-9.15 10.28,-16.9 19.11,-21.02z"/>
  </g>
 </g>
</svg>
