<?xml version="1.0" encoding="UTF-8"?>
<!DOCTYPE svg PUBLIC "-//W3C//DTD SVG 1.1//EN" "http://www.w3.org/Graphics/SVG/1.1/DTD/svg11.dtd">
<!-- Creator: CorelDRAW -->
<svg xmlns="http://www.w3.org/2000/svg" xml:space="preserve" width="2000px" height="1600px" version="1.1" style="shape-rendering:geometricPrecision; text-rendering:geometricPrecision; image-rendering:optimizeQuality; fill-rule:evenodd; clip-rule:evenodd"
viewBox="0 0 2000 1600"
 xmlns:xlink="http://www.w3.org/1999/xlink">
 <defs>
  <style type="text/css">
   <![CDATA[
    .fil1 {fill:#002375;fill-rule:nonzero}
    .fil0 {fill:#23357A;fill-rule:nonzero}
    .fil2 {fill:#FF5E15;fill-rule:nonzero}
   ]]>
  </style>
 </defs>
 <g id="Capa_x0020_1">
  <metadata id="CorelCorpID_0Corel-Layer"/>
  <g id="Syracuse_x0020_Orange.cdr">
   <path class="fil0" d="M640.36 0.03c236.97,0.08 473.93,0.11 710.89,-0.03l-0.17 3.09c-236.85,0.28 -473.7,0.37 -710.55,-0.05l-0.17 -3.01zm9.29 1597.77c25.66,-2.26 51.47,-0.53 77.2,-1.04 78.96,0 157.92,-0.02 236.9,0 84.54,1.93 169.1,0.87 253.63,1.12 48.22,-0.42 96.46,0.75 144.65,-0.59l0.48 2.62c-224.9,-0.05 -449.79,-0.02 -674.68,-0.02 -13.57,-0.28 -27.23,0.78 -40.75,-0.67l2.57 -1.42zm194.03 -535.66l2.63 -1.78c0.92,56.24 0.11,112.54 0.41,168.81 102.46,0.31 204.94,-0.5 307.39,0.42 -14.91,3.6 -30.26,2.34 -45.43,2.23 -88.21,-0.14 -176.39,0.36 -264.58,-0.25 -1.33,-56.44 -0.64,-112.96 -0.42,-169.43 -134.61,0.45 -269.26,-0.06 -403.9,0.28 -8.64,0 -17.26,-0.36 -25.84,-0.98 5.99,-3.98 13.52,-1.89 20.26,-2.34 126.34,0.17 252.71,0.03 379.05,0.09 10.76,0.08 21.54,-0.42 32.27,0.44l-1.84 2.51zm310.41 -83.42c5.1,27.43 1.47,55.52 2.11,83.25l-3.01 0.03c0.67,-27.76 -1.08,-55.6 0.9,-83.28zm432.64 -138.82l0.31 -2.6c1.72,9.76 0.92,19.71 1.05,29.58 -0.05,153.29 -0.02,306.58 -0.02,459.87 -0.51,16.33 1.17,32.8 -1.03,49.08l-0.34 -2.62c-1.11,-59.11 -0.17,-118.31 -0.47,-177.46 0.33,-118.61 -0.67,-237.26 0.5,-355.85zm-742.71 -468.82l2.68 -0.17c0,72.44 -0.03,144.85 0.02,217.25 -0.11,11.04 0.67,22.13 -0.81,33.09 -4.82,-20.93 -1.72,-42.51 -2.45,-63.74 0.39,-62.13 -0.89,-124.31 0.56,-186.43zm741.79 -141.62l1.64 -2.56c1.51,103.68 0.11,207.47 0.7,311.21l-3.06 -0.11c-0.7,-92.9 0,-185.79 -0.37,-278.71 -0.05,-9.96 -0.05,-19.91 1.09,-29.83zm-1173.04 -5.38l0.72 2.6c1.57,15.47 0.62,31.02 0.92,46.51 0.2,116.14 -0.19,232.28 0.06,348.42 0.05,46.35 -0.61,92.73 0.59,139.08l-3.24 0.5c0.17,-168.23 0.06,-336.46 0.09,-504.69 0.16,-10.82 -0.76,-21.68 0.86,-32.42z"/>
   <path class="fil1" d="M635.71 2.98c1.2,0 3.6,0.03 4.82,0.06 236.85,0.42 473.7,0.33 710.55,0.05 1.2,-0.02 3.62,-0.05 4.82,-0.05 19.12,19.17 37.18,39.66 58.67,56.27 24.89,24.33 48.83,49.64 74.03,73.61 10.56,6.99 18.47,16.89 27.31,25.75 20.85,19.06 40.05,39.83 60.37,59.42 3.31,3.65 7.61,6.72 9.53,11.37 -1.14,9.92 -1.14,19.87 -1.09,29.83 0.37,92.92 -0.33,185.81 0.37,278.71l0.05 2.81c-143.95,-0.05 -287.94,-0.03 -431.89,0 0.05,-56.69 0,-113.35 0.03,-170.01 -102.21,0.05 -204.38,-0.23 -306.58,0.11l-2.68 0.17c-1.45,62.12 -0.17,124.3 -0.56,186.43 0.73,21.23 -2.37,42.81 2.45,63.74 161.91,0.92 323.81,0.14 485.74,0.42 12.63,0.33 25.39,-1.04 37.96,0.64 45.54,44.65 90.28,90.19 135.54,135.17 27.04,27.59 55.27,54.13 81.58,82.42 -1.17,118.59 -0.17,237.24 -0.5,355.85 0.3,59.15 -0.64,118.35 0.47,177.46 -21.6,23.69 -45.23,45.51 -67.61,68.48 -47.8,47.88 -95.8,95.63 -143.48,143.62 -4.41,4.07 -8.11,9.25 -13.58,11.98 -48.19,1.34 -96.43,0.17 -144.65,0.59 -84.53,-0.25 -169.09,0.81 -253.63,-1.12 -78.98,-0.02 -157.94,0 -236.9,0 -25.73,0.51 -51.54,-1.22 -77.2,1.04 -13.88,-9.51 -23.22,-24.59 -37.49,-33.78 -21.27,-19.57 -40.83,-40.92 -61.62,-60.96 -31.58,-24.8 -56.33,-57.25 -87.8,-82.25 -14.96,-14.74 -29.68,-29.76 -44.62,-44.56 -4.29,-3.07 -3.18,-8.61 -3.51,-13.16 0.28,-91.08 -0.03,-182.16 0.17,-273.25 -0.17,-9.53 1.17,-19.53 -2.9,-28.51l2.06 0.11c8.58,0.62 17.2,0.98 25.84,0.98 134.64,-0.34 269.29,0.17 403.9,-0.28 -0.22,56.47 -0.91,112.99 0.42,169.43 88.19,0.61 176.37,0.11 264.58,0.25 15.17,0.11 30.52,1.37 45.43,-2.23l2.18 -0.45c-0.42,-55.71 -0.28,-111.42 -0.09,-167.17 -0.64,-27.73 2.99,-55.82 -2.11,-83.25 -174.64,-1.03 -349.31,-0.05 -523.95,-0.47 -67.54,-68.34 -135.74,-136.04 -203.69,-203.99 -3.68,-4.49 -9.97,-7.78 -11.39,-13.57 -1.2,-46.35 -0.54,-92.73 -0.59,-139.08 -0.25,-116.14 0.14,-232.28 -0.06,-348.42 -0.3,-15.49 0.65,-31.04 -0.92,-46.51 6.58,-8.87 15.19,-15.89 22.78,-23.83 66.44,-66.67 133.36,-132.86 199.44,-199.87zm3.62 34.95l0 0c-44.06,45.07 -89.66,88.63 -133.08,134.31 -21.32,18.62 -40.36,39.66 -60.87,59.15 -8.72,6.66 -5.99,18.42 -6.38,27.9 0.25,151.42 0.05,302.87 0.08,454.29 0.19,11.04 -0.64,22.16 0.61,33.17 3.85,7.89 11.07,13.38 17,19.62 39.55,38.49 77.71,78.38 117.7,116.39 23.61,22.72 45.55,47.36 70.1,68.93 179.18,1.11 358.42,-0.14 537.63,0.61 0.56,101.12 0.2,202.26 0.23,303.38 -36.63,0.97 -73.28,0.16 -109.9,0.42 -84.75,-0.2 -169.48,0.41 -254.21,-0.28 -0.31,-55.94 0.11,-111.85 -0.2,-167.79 -6.21,-0.86 -12.43,-1.86 -18.7,-1.89 -114.3,0.03 -228.6,0.03 -342.92,0 -5.19,0.05 -10.37,0.42 -15.56,0.92 0.2,89.21 0.17,178.43 0.12,267.64 0.08,3.43 0,7.31 3.09,9.59 16.95,17.45 35.51,33.22 52.79,50.34 52.17,50.92 105.24,100.92 157.3,151.95 4.07,5.04 10.62,6.41 16.81,6.16 224,-0.11 448.03,0.06 672.03,-0.08 5.43,0.44 10.17,-2.46 13.71,-6.33 66.61,-67.14 133.84,-133.67 200.84,-200.42 7.36,-6.22 3.59,-16.89 4.51,-25.23 -0.16,-160.76 0,-321.52 -0.05,-482.25 -0.06,-3.51 -0.2,-7.36 -3.29,-9.61 -26.2,-25.81 -51.67,-52.37 -78.49,-77.57 -39.1,-38.94 -78.12,-77.98 -117.08,-117.06 -3.49,-3.04 -6.92,-7.33 -12.07,-6.58 -177.54,-0.3 -355.11,0.39 -532.65,-0.36 -0.47,-101.62 -0.44,-203.26 0.17,-304.88 120.29,-0.7 240.58,-0.31 360.88,-0.2 0.78,56.83 0.36,113.66 0.19,170.49 5.1,0.61 10.2,1.06 15.33,1.12 106.86,-0.06 213.74,0 320.6,-0.03 14.58,-0.08 29.27,0.78 43.79,-1.23 -0.09,-89.07 -0.03,-178.18 0,-267.25 0,-3.57 -0.17,-7.5 -3.35,-9.79 -68.78,-66.8 -137.85,-133.33 -206.58,-200.22 -4.29,-3.63 -8.61,-8.73 -14.83,-7.97 -224.94,0 -449.89,0 -674.84,-0.34 -8.81,-1.59 -14.91,5.38 -20.46,10.98z"/>
   <path class="fil2" d="M639.33 37.93c5.55,-5.6 11.65,-12.57 20.46,-10.98 224.95,0.34 449.9,0.34 674.84,0.34 6.22,-0.76 10.54,4.34 14.83,7.97 68.73,66.89 137.8,133.42 206.58,200.22 3.18,2.29 3.35,6.22 3.35,9.79 -0.03,89.07 -0.09,178.18 0,267.25 -14.52,2.01 -29.21,1.15 -43.79,1.23 -106.86,0.03 -213.74,-0.03 -320.6,0.03 -5.13,-0.06 -10.23,-0.51 -15.33,-1.12 0.17,-56.83 0.59,-113.66 -0.19,-170.49 -120.3,-0.11 -240.59,-0.5 -360.88,0.2 -0.61,101.62 -0.64,203.26 -0.17,304.88 177.54,0.75 355.11,0.06 532.65,0.36 5.15,-0.75 8.58,3.54 12.07,6.58 38.96,39.08 77.98,78.12 117.08,117.06 26.82,25.2 52.29,51.76 78.49,77.57 3.09,2.25 3.23,6.1 3.29,9.61 0.05,160.73 -0.11,321.49 0.05,482.25 -0.92,8.34 2.85,19.01 -4.51,25.23 -67,66.75 -134.23,133.28 -200.84,200.42 -3.54,3.87 -8.28,6.77 -13.71,6.33 -224,0.14 -448.03,-0.03 -672.03,0.08 -6.19,0.25 -12.74,-1.12 -16.81,-6.16 -52.06,-51.03 -105.13,-101.03 -157.3,-151.95 -17.28,-17.12 -35.84,-32.89 -52.79,-50.34 -3.09,-2.28 -3.01,-6.16 -3.09,-9.59 0.05,-89.21 0.08,-178.43 -0.12,-267.64 5.19,-0.5 10.37,-0.87 15.56,-0.92 114.32,0.03 228.62,0.03 342.92,0 6.27,0.03 12.49,1.03 18.7,1.89 0.31,55.94 -0.11,111.85 0.2,167.79 84.73,0.69 169.46,0.08 254.21,0.28 36.62,-0.26 73.27,0.55 109.9,-0.42 -0.03,-101.12 0.33,-202.26 -0.23,-303.38 -179.21,-0.75 -358.45,0.5 -537.63,-0.61 -24.55,-21.57 -46.49,-46.21 -70.1,-68.93 -39.99,-38.01 -78.15,-77.9 -117.7,-116.39 -5.93,-6.24 -13.15,-11.73 -17,-19.62 -1.25,-11.01 -0.42,-22.13 -0.61,-33.17 -0.03,-151.42 0.17,-302.87 -0.08,-454.29 0.39,-9.48 -2.34,-21.24 6.38,-27.9 20.51,-19.49 39.55,-40.53 60.87,-59.15 43.42,-45.68 89.02,-89.24 133.08,-134.31z"/>
  </g>
 </g>
</svg>
