<?xml version="1.0" encoding="UTF-8"?>
<!DOCTYPE svg PUBLIC "-//W3C//DTD SVG 1.1//EN" "http://www.w3.org/Graphics/SVG/1.1/DTD/svg11.dtd">
<!-- Creator: CorelDRAW -->
<svg xmlns="http://www.w3.org/2000/svg" xml:space="preserve" width="2000px" height="1600px" version="1.1" style="shape-rendering:geometricPrecision; text-rendering:geometricPrecision; image-rendering:optimizeQuality; fill-rule:evenodd; clip-rule:evenodd"
viewBox="0 0 2000 1600"
 xmlns:xlink="http://www.w3.org/1999/xlink">
 <defs>
  <style type="text/css">
   <![CDATA[
    .fil1 {fill:#010101;fill-rule:nonzero}
    .fil2 {fill:#940E2E;fill-rule:nonzero}
    .fil3 {fill:#BDBCBB;fill-rule:nonzero}
    .fil4 {fill:#F5E41F;fill-rule:nonzero}
    .fil0 {fill:#F6F6F6;fill-rule:nonzero}
   ]]>
  </style>
 </defs>
 <g id="Capa_x0020_1">
  <metadata id="CorelCorpID_0Corel-Layer"/>
  <g id="Temple_x0020_Owls.cdr">
   <path class="fil0" d="M564.87 460.33c65.04,-80.4 164.67,-127.82 265.39,-144.63 46.12,-8.94 95.48,-0.43 135.09,25.11 25.59,17.03 41.27,44.35 55.93,70.54 -8.03,6.73 -15.57,13.9 -22.95,21.28 12.17,25.06 20.69,53.24 14.54,81.21 -21.66,104.7 -72.96,201.58 -140.58,283.87 -47.05,-10.67 -95.81,-21.99 -144.04,-14.28 -20.42,11.91 -33.03,32.54 -49.31,48.98 2.43,-16.7 8.41,-32.49 14.93,-47.96 -39.93,8.35 -78.89,22.2 -113,44.94 -18.75,-22.04 -33.62,-47.74 -38.58,-76.52 -17.03,-84.81 7.22,-172.7 47.15,-247.65 15.95,-31.58 41.44,-56.53 62.78,-84.28 -30.07,11.05 -57.55,27.8 -87.35,39.39zm753.26 -82.88c23.98,-6.46 48.66,-9.69 73.4,-12.34 -20.75,90.21 -65.69,172.06 -105.57,254.78 -3.82,6.41 -6.78,14.71 -14.27,17.67 -21.94,9 -45.48,13.52 -68.98,16.06 2.64,-38.1 11.8,-75.66 9.59,-114.02 -18.59,25.7 -30.98,55.28 -50.54,80.45 -14.93,18.96 -26.78,40.63 -44.29,57.44 -37.35,12.82 -76.63,20.26 -115.16,28.94 23.12,-43.06 45.75,-86.76 58.09,-134.34 13.74,-51.03 31.36,-103.78 19.67,-157.02 32.92,-6.95 66.17,-12.72 99.74,-15.63 10.4,32.01 6.04,66.01 7.97,99.04 4.8,-3.34 10.14,-6.36 13.05,-11.75 17.56,-26.4 28.72,-56.74 48.71,-81.63 5.55,25.65 6.36,52.05 11.42,77.81 35.67,-23.23 40.04,-69.73 57.17,-105.46zm121.89 -18.59c29.16,-7.65 59.12,-11.9 89.02,-15.84 -11.15,57.07 -33.78,110.68 -54.15,164.78 2.15,2.64 6.41,7.87 8.57,10.46 15.84,-3.45 31.46,-7.92 46.82,-13.1 -12.07,24.84 -21.5,51.36 -37.02,74.37 -15.3,8.19 -32.81,10.66 -49.3,15.41 -35.89,8.56 -71.13,19.99 -107.56,26.08 12.99,-35.46 34.27,-67.2 47.31,-102.66 22.53,-51.83 36.86,-106.58 56.31,-159.5zm299.98 -50.43c30.99,-4.1 61.76,-11.16 93.22,-10.46 -3.5,24.09 -11.74,47.21 -23.38,68.55 -36.21,-4.96 -72.64,0.59 -108.09,7.97 18.53,30.45 54.63,42.3 80.34,65.47 -8.52,25.54 -16.71,51.62 -30.45,74.8 -16.27,9.8 -35.94,11.15 -53.94,16 -45.04,9.27 -88.91,24.19 -134.55,30.71 -9.86,-28.23 13.15,-54.37 22.04,-80.02 14.28,4.48 28.83,12.72 44.29,8.46 18.22,-3.93 37.35,-7.59 53.24,-17.89 8.52,-4.85 7.49,-18.48 0.11,-23.92 -19.4,-17.3 -43.54,-27.86 -64.66,-42.73 7.17,-27.97 18,-54.75 29.47,-81.15 30.34,-7.82 61.49,-11.1 92.36,-15.79zm-929.3 150.93l0 0c-52.44,17.3 -90.26,63.26 -111.6,112.57 -13.63,34.59 -24.03,73.93 -12.07,110.52 6.41,21.77 22.74,42.08 45.21,48.33 27.59,5.12 54.8,-6.63 77.16,-21.82 45.32,-33.41 76.04,-84.76 87.19,-139.62 4.15,-33.79 4.47,-74.79 -23.28,-99.2 -16.33,-16.17 -41.76,-16.44 -62.61,-10.78z"/>
   <path class="fil1" d="M810.7 459.36c20.85,-5.66 46.28,-5.39 62.61,10.78 27.75,24.41 27.43,65.41 23.28,99.2 -11.15,54.86 -41.87,106.21 -87.19,139.62 -22.36,15.19 -49.57,26.94 -77.16,21.82 -22.47,-6.25 -38.8,-26.56 -45.21,-48.33 -11.96,-36.59 -1.56,-75.93 12.07,-110.52 21.34,-49.31 59.16,-95.27 111.6,-112.57zm445.74 -129.59c3.34,-14.98 14.76,-30.07 31.57,-21.29 10.78,5.77 -0.48,12.34 -6.95,15.3 -7.76,3.56 -16.33,4.53 -24.62,5.99zm23.11 -56.04c9.92,-2 19.89,-3.94 29.91,-5.5 -8.3,11.48 -21.02,18 -34.43,21.61 1.13,-4.04 3.39,-12.07 4.52,-16.11zm304.29 -28.51c3.13,-7.6 2.91,-18.86 11.54,-22.74 4.47,-0.27 13.36,-0.81 17.83,-1.08 -1.67,15.2 -16.33,21.34 -29.37,23.82zm238.72 -27.21c9.8,0.05 19.56,1.56 28.88,5.01 -9.65,10.24 -22.79,14.87 -36.43,16.43 2.32,-7.22 4.91,-14.33 7.55,-21.44zm-811.68 -191.51c57.23,-8.78 116.93,-8.14 172.92,7.7 33.35,9.33 61.75,32.39 79.8,61.7 23.12,33.84 41.44,70.49 60.62,106.54 -3.82,-56.91 -23.87,-111.28 -40.84,-165.33 76.57,10.67 152.44,36.05 214.19,83.53 17.46,14.71 24.68,37.34 30.93,58.46 10.73,-0.59 21.34,-2.04 31.9,-4.42 2,-12.77 3.78,-25.65 5.34,-38.52 20.26,7 37.88,19.29 55.61,31.03 124.04,-18.96 248.03,-38.42 372.29,-55.88 -23.38,22.37 -53.18,41.12 -64.66,72.91 -8.73,24.84 -17.46,49.74 -27.21,74.2 16.38,1.89 32.76,-0.7 49.14,-1.13 -18.37,6.25 -37.02,11.86 -55.18,18.75 -17.3,39.12 -30.55,79.86 -47.04,119.36 -2.69,6.73 -5.23,13.52 -7.6,20.37 -16.22,39.44 -30.39,79.8 -47.04,119.08 -11.85,30.18 -51.67,42.84 -53.24,77.44 -8.73,44.67 -19.51,90.04 -41.33,130.29 -32.06,46.02 -92.09,52.11 -142.58,62.35 41.12,5.12 81.74,-6.79 122.81,-7.65 -19.46,48.39 -55.67,94.13 -106.48,111.27 -32.01,7.38 -64.93,-1.29 -96.94,-4.8 28.88,16.76 61.27,25.49 92.52,36.75 -11.59,23.18 -34.97,37.99 -56.31,51.41 -24.46,15.36 -53.02,21.23 -79.21,32.76 12.61,3.51 25.43,6.2 38.09,9.7 -8.08,11.64 -21.98,16.71 -34.16,22.85 -46.99,21.66 -98.99,28.02 -150.18,29.04 8.41,6.85 16.92,13.64 25.01,20.97 -31.47,4.79 -63.32,3.12 -95,3.77 34.91,12.44 71.45,21.23 108.36,24.95 140.21,-30.99 280.36,-63 419.87,-97.11 -107.77,37.35 -217.96,67.25 -329.02,93.17 -14.66,3.4 -29.26,7.22 -43.32,12.45 55.61,8.03 111.22,16.11 166.61,25.54 14.06,2.75 28.13,5.18 42.35,7.17 36.32,2.26 71.83,14.55 108.26,13.09 59.87,-16.11 119.52,-33.08 179.28,-49.62 -49.85,20.09 -101.58,35.29 -151.58,55.01 30.12,10.46 62.77,9 93.7,16.22 -0.1,3.61 -0.21,10.78 -0.32,14.33 -15.73,8.3 -32.49,14.23 -48.93,20.86 -21.39,9.05 -39.66,29.31 -64.82,25.75 -37.99,-5.17 -75.33,-15.51 -113.75,-17.94 27.21,14.12 57.6,19.56 86.7,28.4 -30.77,15.79 -64.72,34.49 -100.5,25.49 -25.76,-8.19 -51.41,-17.14 -77.86,-22.9 20.8,13.25 44.4,20.9 66.17,32.33 -37.34,5.28 -75.6,9 -112.89,1.4 -17.25,-5.39 -32.87,-14.87 -50.22,-20.05 8.08,8.63 17.02,16.22 25.75,24.2 -24.73,2.04 -49.52,2.8 -74.3,2.21 -29.48,0.97 -54.32,-17.19 -81.86,-24.63 7.76,8.68 16.71,16.22 25.11,24.36 -42.35,0.37 -87.08,4.63 -125.55,-16.87 -15.41,5.55 -31.14,10.24 -46.61,15.68 -3.5,15.57 -5.82,31.42 -8.51,47.15 -1.13,6.79 -2.21,13.58 -3.29,20.37 -2.21,12.18 -4.69,24.3 -6.52,36.53 40.14,-7.27 79.37,-18.69 118.92,-28.5 -40.3,18.75 -84.06,28.67 -124.9,45.86 -8.57,12.44 -13.31,27.75 -25.81,37.18 -12.34,10.13 -19.67,24.57 -29.1,37.18 -17.08,9.7 -34.11,19.61 -50.71,30.23 -25.7,11.37 -57.12,10.18 -82.66,-1.13 15.9,-20.16 36.21,-37.94 45.75,-62.35 4.58,-27.16 -4.58,-55.45 -19.07,-78.3 -11.91,-20.15 -36.59,-24.3 -54.1,-37.71 -12.78,-10.24 -29.1,1.23 -40.69,8.13 6.84,5.5 13.9,10.89 20.64,16.6 -63.15,28.67 -133.48,31.25 -201.16,40.3 3.94,5.82 8.14,11.48 12.29,17.25 -24.25,6.3 -49.41,6.9 -74.09,10.99 0,7.92 -0.11,15.9 0.21,23.93 19.35,-1.73 38.8,-2.32 58.25,-1.89 -26.56,10.29 -62.4,4.69 -79.75,31.2 -6.79,8.35 -12.87,17.19 -19.34,25.76 -20.96,23.71 -53.02,35.35 -84.22,35.89 8.67,-19.73 25.64,-39.24 21.98,-61.92 -22.47,-16.27 -43.75,-36.64 -72.04,-41.82 -6.15,7.39 -10.46,15.95 -13.85,24.9 -16.28,-4.26 -28.72,-20.15 -46.88,-14.17 -0.92,11.15 -1.62,22.36 -2.32,33.57 -14.39,0.43 -27.37,-5.77 -39.82,-12.29 -1.73,9.43 -3.07,18.86 -4.26,28.4 -19.29,-3.72 -38.69,-15.03 -45.32,-34.59 -9.37,-27.22 -16.59,-56.1 -12.07,-84.98 10.56,-8.62 25.11,-13.9 32.12,-25.92 8.67,-32.17 44.94,-40.52 71.29,-53.24 16.76,-12.88 34.16,-27.91 56.15,-29.64 30.66,8.36 56.26,28.4 80.18,48.55 43.27,-19.56 82.93,-46.34 119.09,-77.05 13.09,-11.37 25.59,-23.82 34.38,-38.96 -38.37,8.51 -75.01,26.67 -115,26.83 -13.14,0.44 -26.24,0.17 -39.33,-0.59 9.97,-12.07 21.77,-22.79 29.15,-36.8 -21.23,4.31 -38.85,18.37 -60.19,22.41 -28.51,5.82 -57.98,2.43 -86.54,-1.34 3.56,-8.09 7.33,-16.12 11.05,-24.09 -46.78,10.62 -96.62,8.68 -140,-13.31 7.17,-7.38 14.93,-14.17 22.58,-21.07 -48.5,-3.77 -97.32,-17.3 -136.98,-46.23 -12.61,-9.54 -25.59,-19.72 -32.6,-34.27 16.76,-1.03 33.52,-1.4 50.22,-2.7 -64.07,-20.1 -116.66,-77.32 -123.56,-145.16 16.06,6.35 32.01,13.03 48.72,17.51 -21.02,-28.83 -51.84,-51.52 -62.89,-86.81 -16.16,-47.69 -19.13,-102.92 1.3,-149.8 13.74,22.09 27.59,44.13 43.26,64.87 -9.69,-36.91 -21.6,-73.82 -22.3,-112.35 -1.3,-76.62 28.23,-152.71 78.08,-210.53 1.07,20.16 0.7,40.42 3.28,60.46 10.78,-61.8 35.78,-120.97 74.31,-170.65 73.5,-95.54 175.56,-164.57 282.15,-218.35 -12.45,16.01 -25.87,31.2 -38.64,46.94 -49.63,61.7 -87.02,132.34 -116.45,205.63 -44.18,118.11 -47.36,255.3 7.93,370.3 36.15,76.03 101.03,138.8 180.24,168.44 1.89,-7 12.77,-16.81 3.56,-22.9 -46.23,-37.5 -72.53,-95 -78.4,-153.52 -11.59,-85.89 17.94,-170.12 53.02,-247.17 -16.71,3.18 -33.09,7.81 -49.47,12.12 43.33,-77 111.38,-137.46 184.88,-185.04 86.81,-54.53 190.38,-93.17 294.11,-75.39 42.89,7.55 82.77,29.16 111.92,61.65 5.93,-10.94 12.45,-22.09 13.36,-34.76 -4.85,-9.1 -13.41,-15.41 -20.42,-22.68 -100.12,-96.35 -227.07,-168.61 -365.61,-189.41 86.16,-35.4 180.57,-50.76 273.52,-44.67 72.42,13.74 132.02,60.46 188.01,105.51 -22.31,-51.03 -66.44,-87.03 -103.84,-126.58zm-104.11 98.07l0 0c14.82,10.45 30.12,20.37 46.4,28.51 16.7,9.37 36.37,3.07 54.42,4.2 16.44,-0.81 32.33,4.09 46.56,12.07 -14.49,6.95 -29.31,13.2 -43.86,20.04 15.79,13.85 30.01,32.23 51.51,37.08 24.41,3.55 47.37,23.76 72.37,12.71 -5.55,-15.57 -16.65,-27.96 -27.37,-40.19 -26.46,-29.53 -56.31,-58.42 -93.82,-73.13 -34.27,-9.48 -72.04,-12.5 -106.21,-1.29zm212.31 -5.55l0 0c6.95,11.53 12.61,28.34 28.78,28.56 37.34,6.2 83.84,12.07 104.27,48.6 -26.14,4.53 -54.32,1.89 -78.03,15.68 3.99,6.79 5.01,20.43 16,18.49 35.67,-2.86 71.83,-6.9 106.26,-17.09 -8.13,-25.97 -16.48,-55.87 -41.11,-71.07 -40.9,-23.49 -90.04,-27 -136.17,-23.17zm222.87 34.65l0 0c1.94,13.15 5.12,26.08 8.84,38.85 30.77,14.01 65.36,6.95 97.1,0.7 4.58,-9.43 -6.84,-11.59 -12.77,-15.3 -29.21,-13.8 -60.94,-22.15 -93.17,-24.25zm447.79 18.21l0 0c11.37,21.13 -3.99,41.55 -12.34,60.73 -6.36,15.14 -21.77,22.58 -33.35,33.03 36.53,-1.45 72.96,-7.11 108.63,-15.09 6.95,-5.49 9.32,-14.6 13.58,-22.03 -14.5,-11.1 1.67,-24.36 -2.59,-37.35 -11.37,-4.04 -20.91,7.11 -31.42,9.86 1.84,-6.46 3.94,-12.87 6.2,-19.23 15.04,-1.4 30.5,-1.19 43.22,8.3 5.71,-9.7 9.97,-20.1 12.93,-30.93 -35.24,1.56 -69.83,8.94 -104.86,12.71zm-118.17 19.24l0 0c5.93,22.14 -7.06,42.03 -15.74,61.43 -6.08,16.06 -23,22.85 -34.86,33.78 36.32,-2.26 72.05,-10.02 108.26,-13.68 6.52,-11.1 12.34,-22.63 16.43,-34.87 -18.26,6.42 -33.41,20.48 -53.29,22.1 6.14,-19.13 14.33,-37.72 24.84,-54.86 9.05,-8.84 20.31,-15.03 29.64,-23.55 -25.28,2 -50.12,6.95 -75.28,9.65zm-123.88 21.45l0 0c5.22,22.14 -8.03,41.81 -15.68,61.59 -6.36,15.79 -23.87,21.77 -35.25,33.19 26.08,-2.86 52,-7.11 77.98,-11.15 -4.64,-9.06 -9.86,-20.48 -1.78,-29.37 26.13,-7.98 56.79,-10.83 75.92,-32.71 8.73,-9.48 6.58,-27.91 -8.03,-29.74 -31.3,-4.37 -62.18,5 -93.16,8.19zm-78.51 14.38l0 0c-14.18,10.4 -26.62,23.01 -40.69,33.63 -5.49,-8.52 -10.94,-17.03 -16.33,-25.54 -18.1,1.61 -36.04,4.58 -53.77,8.46 2.42,5.65 4.9,11.31 7.43,16.97 -7.06,17.14 -12.44,35.19 -22.09,51.14 -8.68,9.64 -20.42,15.79 -30.23,24.08 21.88,-0.48 43.43,-4.36 64.77,-8.94 -7.33,-17.57 -0.05,-35.3 9.22,-50.44 6.08,10.13 11.9,20.48 18.15,30.55 14.45,-11.74 28.19,-24.51 43.27,-35.51 -5.22,22.37 -23.17,36.38 -40.03,50.06 25.92,-2.31 51.51,-7 77.27,-10.56 -2.91,-5.82 -5.87,-11.58 -8.78,-17.35 7.76,-17.24 13.68,-35.35 23.22,-51.73 7.27,-9.64 18.05,-15.9 26.73,-24.25 -19.46,2.1 -39.99,1.51 -58.14,9.43zm-238.88 36.43l0 0c2.53,5.93 6.47,11.53 7.33,18.05 -6.2,17.84 -13.42,35.4 -22.26,52.05 -8.45,9.76 -20.52,15.36 -30.55,23.28 38.8,-4.42 77.76,-9 115.75,-18.32 2.91,-9.59 10.99,-20.15 4.31,-30.01 -6.41,-12.13 5.87,-25.01 15.36,-31.47 10.61,-5.93 13.2,-18.32 17.08,-28.83 -35.94,3.23 -71.29,10.62 -107.02,15.25zm-128.95 21.77l0 0c-5.71,10.88 -10.61,22.25 -13.31,34.32 13.26,-6.79 25.71,-14.92 39.07,-21.6 -5.01,16.43 -11.15,32.54 -19.13,47.74 -6.3,13.36 -20.91,19.18 -31.52,28.4 26.99,-1.3 53.51,-6.36 80.18,-10.4 -3.29,-5.55 -6.57,-11.1 -9.81,-16.71 7.49,-19.77 15.9,-39.17 25.6,-57.98 9.54,2.8 18.91,6.09 28.45,9.11 4.1,-9.76 8.24,-19.45 12.12,-29.32 -37.61,2.11 -74.52,10.57 -111.65,16.44zm538.7 27.7l0 0c-13.42,31.84 -27.16,63.96 -34.71,97.8 22.69,15.63 47.91,27.64 69.09,45.42 0,2 -0.11,5.98 -0.17,7.98 -20.04,8.35 -41.49,15.14 -63.31,15.79 -11.26,-5.82 -18,-17.25 -26.41,-26.25 -11.74,28.13 -25.27,55.56 -35.56,84.23 -6.95,17.78 8.68,40.63 28.72,33.51 61.48,-15.08 123.67,-28.07 184.56,-45.74 11.53,-30.45 24.25,-60.46 34.32,-91.39 -24.41,-17.46 -51.78,-31.04 -73.93,-51.41 30.45,-4.85 65.64,-16.81 92.36,5.33 9.92,-26.4 21.45,-52.16 30.02,-79.05 4.9,-15.78 -15.79,-26.29 -29.05,-23.38 -58.79,8.3 -117.36,17.62 -175.93,27.16zm-829.68 -6.95l0 0c-115.2,21.01 -221.14,89.61 -286.72,186.71 24.03,-9.54 47.04,-21.93 72.26,-28.18 -32.71,54.58 -61.92,112.62 -71.35,176.26 -11.31,68.48 -6.62,146.83 40.47,201.8 5.23,-4.42 10.56,-8.79 15.84,-13.1 34.11,-22.74 73.07,-36.59 113,-44.94 -6.52,15.47 -12.5,31.26 -14.93,47.96 16.28,-16.44 28.89,-37.07 49.31,-48.98 48.23,-7.71 96.99,3.61 144.04,14.28 67.62,-82.29 118.92,-179.17 140.58,-283.87 6.15,-27.97 -2.37,-56.15 -14.54,-81.21 7.38,-7.38 14.92,-14.55 22.95,-21.28 2.96,-5.77 8.19,-11.86 5.28,-18.75 -17.46,-31.37 -43.22,-59.17 -76.3,-74.15 -43.38,-20.48 -93.49,-22.47 -139.89,-12.55zm619.74 42.67l0 0c-30.29,100.39 -65.15,200.29 -119.79,290.39 57.44,-10.56 113.43,-27.53 170.01,-41.65 9.59,-3.18 22.42,-4.04 26.4,-15.09 18.76,-40.09 38.37,-79.86 55.72,-120.6 -19.99,20.91 -44.08,39.45 -73.66,43.17 21.45,-57.55 44.19,-115.05 54.8,-175.89 -37.88,6.04 -76.08,10.89 -113.48,19.67zm-121.73 18.27l0 0c-11.75,31.74 -19.51,65.69 -38.8,93.98 -6.25,-30.77 -5.44,-62.4 -12.01,-93.12 -23.12,28.83 -34,65.58 -57.87,93.98 -1.51,-25.22 -2.75,-50.49 -7.55,-75.33 -43.65,3.93 -86.92,12.01 -130.03,20.2 4.96,17.46 13.26,34.87 11.59,53.4 -14.01,94.68 -44.29,188.39 -99.85,267.17 43.92,-11.59 88.05,-22.42 131.97,-33.9 7.76,-2.64 16.97,-3.39 22.63,-9.97 27.16,-30.93 49.63,-65.57 71.93,-100.11 -0.97,29.47 -10.56,57.76 -11.58,87.18 29.69,-5.55 59.44,-12.01 88.1,-21.66 9.86,-2.48 12.29,-13.42 17.19,-20.96 46.13,-88.86 93.01,-179.28 115.05,-277.67 -33.63,5.39 -67.52,9.32 -100.77,16.81zm-1149.43 144.68l0 0c-25.92,41.39 -26.13,92.36 -21.66,139.4 9.7,84.71 40.79,166.08 84.65,238.88 12.18,20.2 29.21,36.86 42.57,56.31 -42.95,-14.6 -66.33,-56.58 -90.69,-91.77 -6.3,-10.56 -12.82,-21.01 -20.85,-30.34 -2.86,-14.44 -11.42,-26.94 -17.62,-40.09 -8.73,-18.43 -15.41,-37.82 -25.11,-55.77 -3.4,-22.95 -11.75,-44.94 -19.02,-66.87 -10.83,22.85 -14.39,48.23 -14.71,73.34 -0.17,29.31 -2.11,60.94 14.33,86.86 27.1,55.83 67.09,104.86 115.8,143.23 20.31,17.51 44.78,29.8 63.31,49.46 -32.49,-3.61 -59.7,-22.63 -88.75,-35.67l0.28 -4.58c-8.84,-4.74 -17.68,-9.43 -27.06,-12.93 -3.82,-9 -12.77,-14.22 -19.5,-20.85 -13.58,-13.47 -26.19,-28.19 -41.71,-39.5 -3.72,-13.85 -16.27,-22.58 -26.46,-31.58 -0.7,18.38 -1.99,37.24 2.53,55.29 3.83,15.46 15.9,26.73 26.89,37.45 32.39,30.23 70.22,54.58 110.74,72.58 13.63,6.47 29.64,9 40.74,19.99 -3.62,1.51 -10.89,4.58 -14.55,6.15 -10.19,-3.51 -20.86,-5.39 -31.58,-4.1 -2.75,-1.35 -8.24,-3.99 -10.94,-5.28 -11.42,-1.89 -22.79,-4.04 -34.16,-5.5l-1.24 -2.42c-14.17,-5.12 -28.61,-9.54 -43.38,-12.56 9.05,18.65 21.02,38.16 41.01,46.4 33.84,14.06 71.18,15.09 107.28,13.04 0.27,2.32 0.87,7.06 1.13,9.38 -12.6,4.74 -24.84,10.24 -36.58,16.81l-2.75 -1.46c-5.23,2.75 -10.4,5.5 -15.57,8.3 38.74,44.89 102.86,30.12 154.81,30.45 -7.38,9.43 -14.98,18.7 -22.2,28.29 37.23,17.24 78.29,12.18 117.31,5.44 -0.81,7.27 -1.57,14.6 -2.32,21.93 44.89,7.49 88.8,-6.57 128.79,-25.76 -7.01,17.46 -15.58,34.28 -22.85,51.68 20.48,0 40.74,-3.56 59.59,-11.53 -13.84,-22.09 -28.61,-43.65 -41.97,-66.01 -10.83,9.86 -19.72,24.73 -35.51,26.72 -22.31,2.97 -47.15,4.37 -66.6,-8.94 -18.65,-13.53 -42.47,-11.85 -63.7,-17.78 -19.56,-4.31 -34.54,-18.32 -48.06,-32.17 -17.52,-18.7 -46.4,-19.67 -63.7,-38.8 -12.77,-11.37 -18.15,-27.96 -21.06,-44.29 14.87,1.83 29.74,3.88 44.72,5.49 -13.47,-26.88 -31.47,-51.03 -51.19,-73.6 24.89,9.53 51.3,13.52 77.92,14.33 -7.44,7.81 -15.04,15.36 -22.74,22.85 14.33,24.84 47.47,20.47 71.77,25 -5.44,8.84 -11.04,17.57 -16.48,26.4 28.77,20.37 64.71,11.7 97.31,10.35 -7.7,9.16 -15.41,18.21 -22.95,27.54 24.08,5.33 48.49,0.91 71.07,-8.09 -7.33,13.42 -14.71,26.78 -21.5,40.47 16.33,-6.09 32.01,-13.74 47.53,-21.77 -12.13,-16.38 -27.21,-30.77 -46.29,-38.69 -52.65,-25.7 -101.79,-58.41 -147.32,-95.11 -77,-63.26 -130.89,-152.65 -152.07,-249.97 -0.97,-17.14 -3.02,-34.27 -7.59,-50.87 4.47,-15.14 -1.3,-31.2 -3.13,-46.39 -2.32,-32.66 5.17,-64.72 5.39,-97.21 8.51,-35.14 17.03,-70.49 23.28,-106.1 -29.64,21.6 -48.5,53.99 -67.63,84.54zm1426.13 90.15l0 0c-20.42,2.64 -38.52,12.99 -49.52,30.61 47.53,-6.47 93.17,-22.2 139.78,-33.19 17.08,-3.24 29.48,-15.9 39.66,-29.16 -43.97,7.76 -86.32,22.37 -129.92,31.74zm-1113.16 167.8l0 0c5.44,37.72 18.64,76.84 46.72,103.79 3.34,-0.6 9.91,-1.78 13.25,-2.32 -12.45,-28.29 -33.89,-52.27 -41.22,-82.82 -17.51,-59.87 -4.8,-122.27 3.5,-182.51 -23.49,50.92 -27.97,108.68 -22.25,163.86zm865.18 -104.05l0 0c-26.29,7.33 -60.46,8.89 -71.94,38.47 59.01,-10.83 116.24,-29.58 174.7,-43.05 16.92,-3.07 33.2,-12.23 38.91,-29.42 -48.12,7.16 -94.19,23.71 -141.67,34zm300.2 -13.85l0 0c-20.26,8.08 -39.07,19.13 -58.36,29.1 -5.12,3.45 -12.34,5.49 -14.6,11.8 -12.99,3.5 -29.26,4.15 -38.21,15.46 -18.21,2.38 -35.78,7.6 -53.45,12.18l-1.19 4.53c-11.26,0.75 -22.41,1.62 -33.62,2.26 39.33,-23.38 86.27,-34.65 120.05,-66.76 -15.94,2.8 -31.79,6.19 -47.68,8.89 -6.25,-5.39 -12.51,-10.67 -18.65,-16.06 -9.91,9.92 -18.75,20.96 -29.96,29.42 -15.84,7.65 -33.41,10.51 -50.11,15.68 0.64,21.29 3.93,43.65 -5.77,63.59 -9.7,22.04 -13.09,46.34 -23.65,68 -11.16,22.26 -33.79,34.49 -50.6,51.68 -12.45,16.38 -20.32,36.16 -35.4,50.6 -18.54,20.2 -48.39,25.86 -64.34,48.92 -10.89,15.58 -27.65,24.9 -45.64,30.02 12.44,-11.1 33.35,-18.81 32.43,-38.53 -31.68,-8.62 -56.68,23.39 -88.96,17.19 21.12,-18.27 57.87,-25.43 61.59,-57.77 -15.57,-1.02 -31.36,-1.72 -46.18,-6.89 43.43,-10.94 90.31,-29.48 111.54,-72.05 -21.61,0.76 -43.7,7.76 -64.98,1.08 11.2,-5.44 22.95,-9.7 34.75,-13.58 36.32,-11.1 69.68,-39.93 78.41,-77.92 -24.36,4.42 -47.26,14.07 -71.24,19.94 28.4,-17.19 61.27,-29.1 80.83,-57.77 -32.82,7.6 -65.58,15.63 -97.8,25.28 -14.39,2.64 -19.19,17.4 -25.11,28.77 -26.84,58.36 -61.92,112.57 -99.85,164.19 -24.52,35.03 -46.35,75.82 -85.63,96.29 -22.68,-2.04 -43.97,-12.71 -67.03,-12.77 -18.54,32.01 -35.46,66.44 -65.2,89.72 -11,-5.92 -22.1,-11.58 -33.3,-16.92 -47.26,26.78 -94.79,55.99 -148.89,66.34 -25.97,-27.97 -64.18,-39.77 -98.88,-52.97 7.87,16.59 16.81,32.71 27.21,47.85 16.28,25 46.02,35.02 68.98,52.43 4.52,-4.21 9.1,-8.46 13.68,-12.61 8.46,14.22 16.92,28.45 25.98,42.35 7.49,-11.37 12.5,-24.03 16.86,-36.86 4.96,4.15 9.86,8.3 14.87,12.51 6.25,-9.16 12.24,-18.54 18.86,-27.38 9.7,-15.52 30.4,-15.25 46.56,-17.3 20.75,-2.64 32.87,17.57 46.56,29.53 9.7,-21.28 16.76,-46.07 36.43,-60.56 19.5,-10.03 43.43,-12.61 64.55,-6.63 12.77,8.35 20.32,22.31 31.2,32.76 13.31,-1.29 16.6,-19.67 26.51,-27.43 11.42,-15.84 32.49,-6.68 48.18,-4.2 16.7,2.53 29.74,13.53 43.37,22.63 11.37,3.45 23.55,-0.16 35.24,-0.27 -2.8,6.42 -5.65,12.88 -8.4,19.35 28.13,0.97 55.93,-5.07 84.11,-3.45 -5.01,8.19 -10.13,16.33 -15.14,24.46 34.81,-0.59 69.57,-4.69 104.43,-3.34 -19.99,15.74 -44.4,23.87 -67.46,33.9 -30.02,12.66 -60.46,24.41 -92.04,32.49 -13.9,4.36 -31.85,5.55 -37.61,21.5 28.5,-0.65 55.45,-10.78 82.06,-19.99 50.23,-18 97.59,-42.79 146.47,-64.07 19.66,-8.14 40.19,-14.6 58.52,-25.76 -65.15,-10.02 -131,-17.13 -194.53,-35.46 -49.25,-15.03 -101.68,-22.2 -147,-47.85 13.09,-0.86 26.24,-1.24 39.44,-1.77 -25,-12.13 -52.48,-17.46 -77.54,-29.21 37.02,-2.48 74.85,0.27 109.98,13.04 29.32,10.51 61.05,9.86 91.5,5.17 -9.81,-12.01 -20.05,-23.65 -29.53,-35.88 16.17,3.39 31.95,8.46 48.12,12.23 35.78,7.7 74.25,-1.4 103.08,-23.98 -19.18,-11.16 -41.87,-15.9 -58.79,-30.88 28.51,2.91 56.75,13.69 85.68,8.25 21.77,-3.07 40.96,-15.15 56.1,-30.66 -36.97,-11.11 -78.62,-12.67 -109.71,-38.05 36.8,2.43 71.99,16.17 109.12,16.12 21.55,2.1 41.76,-9.06 55.01,-25.49 -7.87,-4.64 -15.73,-9.06 -23.76,-13.1 -11.1,-7.49 -22.31,-14.82 -33.63,-21.93 -12.39,-7.71 -23.06,-17.83 -30.98,-30.12 32.76,7.6 63.91,22.52 97.96,24.25 20.1,0.75 40.96,2.69 60.68,-2.54 24.57,-13.09 44.29,-35.94 54.32,-61.91 -7.93,1.02 -16.76,0.11 -23.28,5.55l4.52 -4.09c-19.02,-2.7 -38.2,-3.02 -57.28,-3.88 -13.52,-0.97 -27.48,-5.82 -40.79,-2.64 -12.77,-4.53 -26.08,-6.85 -39.55,-6.96 -3.93,-2.37 -11.86,-7.11 -15.79,-9.48 49.74,-6.09 100.44,-9.48 148.24,-25.76 18.27,-6.57 38.85,-13.85 49.09,-31.74 19.29,-34.37 25.43,-74.36 27.53,-113.26 -11.1,5.98 -26.35,8.08 -33.51,19.18zm-463.52 56.04l0 0c-14.5,3.72 -23.07,16.71 -31.74,27.75 31.03,-4.25 61.64,-12.01 91.33,-21.93 12.23,-3.45 17.84,-15.41 23.07,-25.81 -27.97,4.85 -55.45,12.18 -82.66,19.99zm-222.71 56.8l0 0c-17.46,2.64 -30.45,15.25 -37.29,31.03 52.05,-9.1 102.38,-26.08 153.68,-38.52 16.06,-2.16 26.29,-14.77 32.98,-28.46 -50.66,8.09 -99.31,25.12 -149.37,35.95zm-697.34 -29.37l0 0c10.13,66.49 47.69,126.74 95.71,172.86 46.71,46.67 94.4,95.97 155.51,123.4 -0.16,-8.35 -0.43,-16.65 -0.65,-25 -41.87,-27.91 -85.73,-53.29 -124.2,-85.95 -40.42,-35.73 -75.07,-78.29 -99.96,-126.2 -9.92,-19.24 -17.19,-39.6 -26.41,-59.11zm1085.15 23.93l0 0c-8.57,12.49 -12.61,27.31 -17.46,41.48 15.47,-4.74 31.79,-9.1 44.51,-19.66 11.86,-12.5 14.17,-30.55 17.35,-46.77 -15.84,6.08 -32.98,11.85 -44.4,24.95zm-215.22 21.98l0 0c-16.43,21.61 -29.69,45.48 -46.5,66.82 -18.38,26.02 -40.04,49.63 -57.87,76.03 -10.19,14.49 -8.3,32.82 -4.91,49.2 9.92,-6.15 16.65,-15.74 22.53,-25.54 37.98,-60.3 84.7,-115.37 115.8,-179.82 -10.35,2.59 -22.74,3.39 -29.05,13.31zm-187.09 43.43l0 0c6.74,9.05 14.93,16.92 22.69,25.17 -11.53,1.02 -23.07,1.77 -34.54,2.74 15.25,20.05 31.36,39.45 44.72,60.9 46.4,-33.09 82.98,-78.19 113.49,-125.83 -49.15,10.83 -97.38,25.44 -146.36,37.02zm363.62 8.89l0 0c-9.32,10.62 -13.15,24.57 -18.1,37.45 32.27,-3.28 64.98,-22.2 76.08,-54.04 -19.83,3.12 -40.3,6.68 -57.98,16.59zm-588.32 -0.21l0 0c-12.88,9.26 -22.47,22.25 -33.36,33.73 -8.99,-10.51 -17.94,-21.12 -27.05,-31.47 -13.25,4.9 -25.92,11.26 -37.61,19.18 17.25,18.49 39.07,32.39 53.78,53.24 -28.13,-8.62 -51.52,-39.55 -83.2,-29.42 14.39,10.45 30.01,19.4 42.89,31.9 16.71,15.41 31.58,35.13 54.97,40.47 2.75,-9.27 5.55,-18.59 8.62,-27.81 9.43,8.73 13.36,29.48 29.26,26.46 31.47,-20.42 26.19,-64.82 49.03,-91.44 18.49,-13.04 41.44,-16.81 62.99,-21.72 -2.04,5.61 -4.09,11.21 -6.14,16.87 15.84,10.51 32.76,19.61 47.1,32.28 24.25,22.36 41.92,52.21 47.74,84.92 -9.97,0.86 -19.88,1.78 -29.8,2.75 -1.02,19.02 -1.72,38.2 -4.85,57.06 -0.54,9.81 -10.51,14.01 -17.29,19.08 -23.07,14.12 -46.94,27.15 -72.59,35.88 20.32,-21.39 49.36,-33.35 66.87,-57.33 8.84,-26.24 7.38,-54.53 10.62,-81.8 6.73,-1.45 13.47,-2.85 20.26,-4.31 -12.66,-25.65 -32.87,-46.93 -57.28,-61.7 10.18,27 17.3,58.52 1.67,85.03 -13.9,26.84 -44.67,37.56 -73.28,37.67 5.33,5.39 10.61,10.78 15.89,16.27 -10.72,0.27 -21.44,0.38 -32.11,0.65 10.18,34.16 8.51,69.62 0.16,103.94 30.71,-10.34 57.17,-29.42 86.05,-43.48 12.02,-6.57 25.22,1.02 37.18,3.88 24.68,-21.55 37.56,-53.19 38.1,-85.68 8.84,-0.75 17.68,-1.45 26.62,-2.1 -0.11,-9.43 -0.05,-18.91 -1.08,-28.29 -1.99,-23.49 -17.94,-45.59 -8.46,-69.24 -11.58,-22.74 -35.02,-35.24 -53.02,-52.11 -5.6,-5.23 -4.42,-13.74 -5.98,-20.58 -29.96,-10.51 -65.53,-11.91 -93.01,5.87 -24.68,14.66 -39.39,40.09 -59.54,59.65 3.93,-26.3 20.69,-47.47 33.35,-70.05 -12.71,2.96 -26.08,5.01 -37.5,11.75zm61 69.4l0 0c11.8,1.62 26.56,0.86 33.51,12.77 12.61,14.44 -2.37,37.99 -19.77,38.42 -13.63,2.32 -20.91,-11.26 -29.32,-19.18 -9.8,10.24 -19.39,20.74 -28.23,31.84 22.85,24.36 67.36,27.11 87.45,-1.99 27.11,-30.71 6.15,-85.68 -35.72,-88.21 -2.7,8.73 -5.39,17.51 -7.92,26.35zm459.86 9l0 0c-10.51,8.62 -12.24,22.63 -15.15,35.03 35.08,4.52 68.33,-22.42 81.7,-53.4 -22.74,1.99 -49.74,-0.06 -66.55,18.37zm-597.11 85.95l0 0c18.91,2.64 32.17,-12.83 42.09,-26.51 -15.42,-15.41 -26.89,17.19 -44.3,9.16 -4.63,-5.23 -13.96,-10.46 -11.31,-18.59 0.59,-10.4 12.39,-23.12 2.1,-31.8 -6.63,-6.03 -15.04,-19.18 -25.22,-12.88 -23.06,28.4 -3.66,84.28 36.64,80.62zm-64.39 -37.45l0 0c-8.46,14.55 -14.55,30.44 -16.01,47.31 22.69,18.43 39.23,46.61 70.92,50.33 6.3,14.87 10.88,30.71 19.94,44.29 9.75,12.07 24.03,19.08 37.28,26.62 3.56,-36.1 -8.62,-70.7 -27.96,-100.66 -9.65,1.57 -19.29,3.18 -28.94,4.69 2.26,-5.12 4.58,-10.18 6.9,-15.25 -13.58,-5.6 -28.02,-10.13 -39.45,-19.56 -10.4,-10.61 -15.62,-24.95 -22.68,-37.77zm-42.41 95.54l0 0c6.79,-0.7 13.63,-1.35 20.53,-2.05 7.01,6.68 14.01,13.36 20.96,20.15 -3.88,-13.15 -7.81,-26.24 -11.74,-39.34 -7.33,0.65 -14.61,1.35 -21.88,2.05 -1.46,-23.44 -0.43,-46.88 0.1,-70.26 -9.85,28.66 -13.9,59.43 -7.97,89.45zm167.58 -83.85l0 0c-6.73,9 -14.06,17.67 -19.12,27.75 -5.34,17.3 3.88,34.27 12.28,48.88 10.24,-16.22 22.2,-31.2 36.1,-44.41 -5.22,-14.17 -14.06,-27.64 -29.26,-32.22zm26.46 77.11l0 0c-8.51,-0.38 -10.4,14.39 -1.02,14.28 8.46,0.38 10.24,-14.44 1.02,-14.28zm-131.53 14.98l0 0c5.12,17.08 17.02,31.04 34.11,37.07 -2.64,-18.69 -18.65,-29.26 -34.11,-37.07zm-275.36 6.47l0 0c10.4,17.08 32.5,16.97 50.12,19.88 -5.45,-7.06 -10.67,-14.39 -17.46,-20.21 -10.67,-2.85 -21.88,-0.37 -32.66,0.33zm399.29 46.88l0 0c-4.74,-2.38 -9.43,-4.8 -14.11,-7.22 0.75,10.07 1.24,20.15 1.88,30.28 22.09,-5.87 29.26,-29.47 35.13,-48.82 -7.92,8.35 -15.41,17.03 -22.9,25.76zm-311.94 1.13l0 0c12.02,18.16 34.16,25.7 55.23,21.18 -14.33,-15.31 -34.54,-21.99 -55.23,-21.18zm90.96 37.61l0 0c8.62,13.09 25.43,8.46 37.94,4.96 -12.29,-4.04 -25.12,-5.55 -37.94,-4.96zm553.13 6.41l0 0c-32.92,32.82 -40.57,91.23 -10.23,128.09 -5.28,-36.91 6.46,-77.65 40.03,-97.59 13.42,15.09 23.17,32.82 33.25,50.17 1.62,-23.12 -2.26,-47.74 -15.73,-67.03 -12.56,-12.07 -30.94,-12.77 -47.32,-13.64zm-127.33 8.52l0 0c-25.16,25.86 -26.56,65.79 -19.99,99.31 11.75,-22.74 18.32,-48.66 38.15,-66.34 33.95,17.25 44.51,57.34 46.61,92.52 13.1,-14.65 11.16,-35.56 10.67,-53.83 -0.97,-27.21 -14.87,-51.35 -28.45,-74.14 -15.63,-0.32 -31.85,-2.32 -46.99,2.48zm516.93 18.75l0 0c18.69,12.28 41.76,12.45 63.1,16.16 35.45,4.26 70.53,12.67 106.42,12.99 -30.72,-11.1 -63.32,-15.19 -94.95,-22.69 -24.35,-5.76 -49.52,-9.96 -74.57,-6.46zm-642.91 21.93l0 0c-18.54,17.35 -23.28,43.86 -24.41,68.16 9.05,-13.14 18.8,-25.86 29.42,-37.82 32.92,13.42 39.77,54.1 39.28,85.67 15.2,-18.05 28.4,-39.87 27.05,-64.39 0.97,-23.92 -17.89,-41.38 -32.38,-57.87 -12.99,1.45 -27.22,-0.38 -38.96,6.25zm590.26 3.83l0 0c2.16,6.46 7.65,10.23 14.23,11.53 30.87,8.35 62.02,16.65 94.03,19.29 -35.14,-13.04 -70.49,-28.51 -108.26,-30.82zm-323.8 80.98l0 0c8.68,14.18 12.13,30.56 16.71,46.4 30.17,-35.62 31.57,-93.22 0.05,-128.35 -22.74,19.23 -33.84,55.71 -16.76,81.95zm-105.24 64.08l0 0c3.72,-18.65 6.36,-37.46 11.21,-55.78 6.58,-28.39 -2.48,-59.32 -24.03,-79.1 -37.18,37.72 -24.41,101.84 12.82,134.88zm383.02 -117.8l0 0c-1.83,1.89 -5.39,5.66 -7.17,7.55 24.58,9.1 49.74,16.86 75.44,22.2 -21.23,-13.04 -43.97,-23.87 -68.27,-29.75zm-739.68 80.51l0 0c-25.71,20.8 -55.24,35.83 -83.15,53.24 12.88,12.23 27.54,23.6 45.1,28.18 10.73,0.59 20.8,-4.21 31.04,-6.9 -4.8,-5.39 -9.59,-10.72 -14.39,-16.06 31.04,-6.95 70.92,-5.82 91.45,-34.11 -11.37,-1.72 -22.74,-3.45 -34.01,-5.55 30.13,-15.95 66.88,-17.78 93.01,-41.87 -17.4,-13.63 -36.05,-25.43 -54.85,-37.02 -26.3,18 -48.18,41.66 -74.2,60.09zm199.96 -59.17l0 0c-34.43,32.55 -22.09,94.3 18.16,116.34 -4.2,-25.11 1.62,-49.58 4.64,-74.25 -3.18,-14.39 -5.55,-39.13 -22.8,-42.09zm479.37 0.49l0 0c-1.35,1.88 -4.1,5.65 -5.44,7.54 12.01,4.85 24.25,9.27 36.91,12.23 -9.54,-8.03 -20.37,-14.22 -31.47,-19.77zm-902.42 90.9l0 0c-2.43,9.32 -0.86,19.02 -0.65,28.56 8.62,-7.06 16.71,-14.66 24.79,-22.25 20.75,12.44 28.13,35.99 34.43,57.81 8.09,-3.77 13.91,-10.56 19.51,-17.29 12.93,15.35 26.51,32.11 46.56,38.2 9.8,4.26 21.88,4.15 30.07,11.59 -3.99,16 -17.19,28.56 -18.16,45.69 15.62,-0.05 31.3,0.05 46.93,0.86 6.95,-13.2 13.79,-28.99 8.68,-43.97 -16.06,-27.64 -51.14,-34.05 -70.38,-58.57 -19.94,-23.71 -43.91,-44.4 -72.04,-57.71 -18.22,-11.05 -35.73,7.22 -49.74,17.08zm-61.92 28.13l0 0c-0.37,11.48 -0.05,23.06 1.57,34.49 8.03,-8.41 15.84,-16.98 24.25,-25.06 6.89,3.23 13.79,6.52 20.74,9.86 -0.91,-11.96 -1.61,-23.92 -2.31,-35.89 -17.09,-2.69 -31.53,6.41 -44.25,16.6zm79.22 85.41l0 0c6.57,-23.12 31.84,-43.81 19.18,-68.98 -1.99,-7.59 -8.46,-12.61 -13.26,-18.32 -26.18,21.72 -22.36,60.89 -5.92,87.3zm656.32 -39.61l0 0c-22.31,-0.81 -49.25,-10.88 -67.62,6.95 -11.43,8.62 -9.38,23.28 -8.3,35.78 23.49,-9.05 48.44,-7.65 71.56,1.89 26.29,-18.05 28.4,-51.95 30.6,-80.78 -8.51,12.13 -14.87,26.35 -26.24,36.16zm-708.59 67.04l0 0c1.35,-18.17 10.02,-33.95 17.19,-50.23 -2.37,-13.58 -4.8,-29.15 -17.95,-36.53 -20.47,23.55 -22.63,64.5 0.76,86.76zm-68.01 -66.39l0 0c-0.1,3.82 -0.27,11.53 -0.37,15.36 9.1,-3.83 18.32,-7.44 27.96,-9.54 -1.56,-5.55 -3.18,-11.1 -4.79,-16.54 -8.19,2.31 -15.74,6.08 -22.8,10.72zm15.04 73.66l0 0c1.51,4.85 4.63,6.52 9.37,5.01 3.08,-10.02 6.42,-19.99 8.14,-30.34 1.51,-10.88 -8.14,-17.99 -14.33,-25.27 -11.96,14.01 -12.56,35.08 -3.18,50.6zm694.04 -12.88l0 0c-13.04,15.47 -26.35,30.72 -39.17,46.4 33.62,-1.62 71.45,-16.38 86.7,-48.34 -14.06,-8.14 -36.64,-13.96 -47.53,1.94zm-462.39 21.83l0 0c-4.9,13.9 -9.91,27.75 -13.31,42.08 19.08,-6.57 35.35,-20.48 42.9,-39.5 -9.81,-1.83 -19.67,-2.58 -29.59,-2.58zm216.14 -936.97l0 0c-11.75,29.1 -16.22,61.59 -10.56,92.58 6.68,23.17 36.58,28.94 55.6,17.35 27.92,-17.4 42.14,-49.25 50.82,-79.75 -16.44,-2.05 -36.75,2.05 -48.98,-11.96 -16.44,-17.19 -13.31,-42.57 -14.98,-64.34 -17.89,8.94 -24.68,28.83 -31.9,46.12z"/>
   <path class="fil2" d="M1637.3 651.57c7.16,-11.1 22.41,-13.2 33.51,-19.18 -2.1,38.9 -8.24,78.89 -27.53,113.26 -10.24,17.89 -30.82,25.17 -49.09,31.74 -47.8,16.28 -98.5,19.67 -148.24,25.76 3.93,2.37 11.86,7.11 15.79,9.48 -7.17,12.77 -14.55,25.44 -20.8,38.64 24.09,-1.24 43.97,-15.09 60.35,-31.68 13.31,-3.18 27.27,1.67 40.79,2.64 -12.23,14.55 -25,28.66 -35.83,44.34 33.62,2.75 64.12,-15.09 88.59,-36.37 6.52,-5.44 15.35,-4.53 23.28,-5.55 -10.03,25.97 -29.75,48.82 -54.32,61.91 -19.72,5.23 -40.58,3.29 -60.68,2.54 -34.05,-1.73 -65.2,-16.65 -97.96,-24.25 7.92,12.29 18.59,22.41 30.98,30.12 -17.94,9.05 -36.64,18.22 -49.09,34.59 27.97,4.96 58.58,4.26 82.72,-12.66 8.03,4.04 15.89,8.46 23.76,13.1 -13.25,16.43 -33.46,27.59 -55.01,25.49 -37.13,0.05 -72.32,-13.69 -109.12,-16.12 31.09,25.38 72.74,26.94 109.71,38.05 -15.14,15.51 -34.33,27.59 -56.1,30.66 -28.93,5.44 -57.17,-5.34 -85.68,-8.25 16.92,14.98 39.61,19.72 58.79,30.88 -28.83,22.58 -67.3,31.68 -103.08,23.98 -16.17,-3.77 -31.95,-8.84 -48.12,-12.23 9.48,12.23 19.72,23.87 29.53,35.88 -30.45,4.69 -62.18,5.34 -91.5,-5.17 -35.13,-12.77 -72.96,-15.52 -109.98,-13.04 25.06,11.75 52.54,17.08 77.54,29.21 -13.2,0.53 -26.35,0.91 -39.44,1.77 45.32,25.65 97.75,32.82 147,47.85 63.53,18.33 129.38,25.44 194.53,35.46 -18.33,11.16 -38.86,17.62 -58.52,25.76 -48.88,21.28 -96.24,46.07 -146.47,64.07 -26.61,9.21 -53.56,19.34 -82.06,19.99 5.76,-15.95 23.71,-17.14 37.61,-21.5 31.58,-8.08 62.02,-19.83 92.04,-32.49 23.06,-10.03 47.47,-18.16 67.46,-33.9 -34.86,-1.35 -69.62,2.75 -104.43,3.34 5.01,-8.13 10.13,-16.27 15.14,-24.46 -28.18,-1.62 -55.98,4.42 -84.11,3.45 2.75,-6.47 5.6,-12.93 8.4,-19.35 -11.69,0.11 -23.87,3.72 -35.24,0.27 -13.63,-9.1 -26.67,-20.1 -43.37,-22.63 -15.69,-2.48 -36.76,-11.64 -48.18,4.2 -9.91,7.76 -13.2,26.14 -26.51,27.43 -10.88,-10.45 -18.43,-24.41 -31.2,-32.76 -21.12,-5.98 -45.05,-3.4 -64.55,6.63 -19.67,14.49 -26.73,39.28 -36.43,60.56 -13.69,-11.96 -25.81,-32.17 -46.56,-29.53 -16.16,2.05 -36.86,1.78 -46.56,17.3 -6.62,8.84 -12.61,18.22 -18.86,27.38 -5.01,-4.21 -9.91,-8.36 -14.87,-12.51 -4.36,12.83 -9.37,25.49 -16.86,36.86 -9.06,-13.9 -17.52,-28.13 -25.98,-42.35 -4.58,4.15 -9.16,8.4 -13.68,12.61 -22.96,-17.41 -52.7,-27.43 -68.98,-52.43 -10.4,-15.14 -19.34,-31.26 -27.21,-47.85 34.7,13.2 72.91,25 98.88,52.97 54.1,-10.35 101.63,-39.56 148.89,-66.34 11.2,5.34 22.3,11 33.3,16.92 29.74,-23.28 46.66,-57.71 65.2,-89.72 23.06,0.06 44.35,10.73 67.03,12.77 39.28,-20.47 61.11,-61.26 85.63,-96.29 37.93,-51.62 73.01,-105.83 99.85,-164.19 5.92,-11.37 10.72,-26.13 25.11,-28.77 32.22,-9.65 64.98,-17.68 97.8,-25.28 -19.56,28.67 -52.43,40.58 -80.83,57.77 23.98,-5.87 46.88,-15.52 71.24,-19.94 -8.73,37.99 -42.09,66.82 -78.41,77.92 -11.8,3.88 -23.55,8.14 -34.75,13.58 21.28,6.68 43.37,-0.32 64.98,-1.08 -21.23,42.57 -68.11,61.11 -111.54,72.05 14.82,5.17 30.61,5.87 46.18,6.89 -3.72,32.34 -40.47,39.5 -61.59,57.77 32.28,6.2 57.28,-25.81 88.96,-17.19 0.92,19.72 -19.99,27.43 -32.43,38.53 17.99,-5.12 34.75,-14.44 45.64,-30.02 15.95,-23.06 45.8,-28.72 64.34,-48.92 15.08,-14.44 22.95,-34.22 35.4,-50.6 16.81,-17.19 39.44,-29.42 50.6,-51.68 10.56,-21.66 13.95,-45.96 23.65,-68 9.7,-19.94 6.41,-42.3 5.77,-63.59 16.7,-5.17 34.27,-8.03 50.11,-15.68 11.21,-8.46 20.05,-19.5 29.96,-29.42 6.14,5.39 12.4,10.67 18.65,16.06 15.89,-2.7 31.74,-6.09 47.68,-8.89 -33.78,32.11 -80.72,43.38 -120.05,66.76 11.21,-0.64 22.36,-1.51 33.62,-2.26 -3.98,14.71 -7.86,29.42 -10.5,44.45 31.46,-7.06 49.19,-35.83 65.14,-61.16 8.95,-11.31 25.22,-11.96 38.21,-15.46 -9.22,20.58 -19.35,40.9 -26.14,62.45 14.28,-4.52 28.51,-10.4 39.5,-20.85 25.06,-23.12 47.74,-50.17 59.6,-82.5zm-359.31 612.79c11.1,5.55 21.93,11.74 31.47,19.77 -12.66,-2.96 -24.9,-7.38 -36.91,-12.23 1.34,-1.89 4.09,-5.66 5.44,-7.54zm-679.33 58.68c26.02,-18.43 47.9,-42.09 74.2,-60.09 18.8,11.59 37.45,23.39 54.85,37.02 -26.13,24.09 -62.88,25.92 -93.01,41.87 11.27,2.1 22.64,3.83 34.01,5.55 -20.53,28.29 -60.41,27.16 -91.45,34.11 4.8,5.34 9.59,10.67 14.39,16.06 -10.24,2.69 -20.31,7.49 -31.04,6.9 -17.56,-4.58 -32.22,-15.95 -45.1,-28.18 27.91,-17.41 57.44,-32.44 83.15,-53.24zm739.68 -80.51c24.3,5.88 47.04,16.71 68.27,29.75 -25.7,-5.34 -50.86,-13.1 -75.44,-22.2 1.78,-1.89 5.34,-5.66 7.17,-7.55zm46.02 -27.26c37.77,2.31 73.12,17.78 108.26,30.82 -32.01,-2.64 -63.16,-10.94 -94.03,-19.29 -6.58,-1.3 -12.07,-5.07 -14.23,-11.53zm52.65 -25.76c25.05,-3.5 50.22,0.7 74.57,6.46 31.63,7.5 64.23,11.59 94.95,22.69 -35.89,-0.32 -70.97,-8.73 -106.42,-12.99 -21.34,-3.71 -44.41,-3.88 -63.1,-16.16zm-942.73 -33.68c12.82,-0.59 25.65,0.92 37.94,4.96 -12.51,3.5 -29.32,8.13 -37.94,-4.96zm-90.96 -37.61c20.69,-0.81 40.9,5.87 55.23,21.18 -21.07,4.52 -43.21,-3.02 -55.23,-21.18zm-87.35 -48.01c10.78,-0.7 21.99,-3.18 32.66,-0.33 6.79,5.82 12.01,13.15 17.46,20.21 -17.62,-2.91 -39.72,-2.8 -50.12,-19.88zm275.36 -6.47c15.46,7.81 31.47,18.38 34.11,37.07 -17.09,-6.03 -28.99,-19.99 -34.11,-37.07zm131.53 -14.98c9.22,-0.16 7.44,14.66 -1.02,14.28 -9.38,0.11 -7.49,-14.66 1.02,-14.28zm-194.04 6.74c-5.93,-30.02 -1.88,-60.79 7.97,-89.45 -0.53,23.38 -1.56,46.82 -0.1,70.26 7.27,-0.7 14.55,-1.4 21.88,-2.05 3.93,13.1 7.86,26.19 11.74,39.34 -6.95,-6.79 -13.95,-13.47 -20.96,-20.15 -6.9,0.7 -13.74,1.35 -20.53,2.05zm42.41 -95.54c7.06,12.82 12.28,27.16 22.68,37.77 11.43,9.43 25.87,13.96 39.45,19.56 -2.32,5.07 -4.64,10.13 -6.9,15.25 9.65,-1.51 19.29,-3.12 28.94,-4.69 19.34,29.96 31.52,64.56 27.96,100.66 -13.25,-7.54 -27.53,-14.55 -37.28,-26.62 -9.06,-13.58 -13.64,-29.42 -19.94,-44.29 -31.69,-3.72 -48.23,-31.9 -70.92,-50.33 1.46,-16.87 7.55,-32.76 16.01,-47.31zm661.5 -48.5c16.81,-18.43 43.81,-16.38 66.55,-18.37 -13.37,30.98 -46.62,57.92 -81.7,53.4 2.91,-12.4 4.64,-26.41 15.15,-35.03zm-520.86 -78.4c11.42,-6.74 24.79,-8.79 37.5,-11.75 -12.66,22.58 -29.42,43.75 -33.35,70.05 20.15,-19.56 34.86,-44.99 59.54,-59.65 27.48,-17.78 63.05,-16.38 93.01,-5.87 1.56,6.84 0.38,15.35 5.98,20.58 18,16.87 41.44,29.37 53.02,52.11 -9.48,23.65 6.47,45.75 8.46,69.24 1.03,9.38 0.97,18.86 1.08,28.29 -8.94,0.65 -17.78,1.35 -26.62,2.1 -0.54,32.49 -13.42,64.13 -38.1,85.68 -11.96,-2.86 -25.16,-10.45 -37.18,-3.88 -28.88,14.06 -55.34,33.14 -86.05,43.48 8.35,-34.32 10.02,-69.78 -0.16,-103.94 10.67,-0.27 21.39,-0.38 32.11,-0.65 -5.28,-5.49 -10.56,-10.88 -15.89,-16.27 28.61,-0.11 59.38,-10.83 73.28,-37.67 15.63,-26.51 8.51,-58.03 -1.67,-85.03 24.41,14.77 44.62,36.05 57.28,61.7 -6.79,1.46 -13.53,2.86 -20.26,4.31 -3.24,27.27 -1.78,55.56 -10.62,81.8 -17.51,23.98 -46.55,35.94 -66.87,57.33 25.65,-8.73 49.52,-21.76 72.59,-35.88 6.78,-5.07 16.75,-9.27 17.29,-19.08 3.13,-18.86 3.83,-38.04 4.85,-57.06 9.92,-0.97 19.83,-1.89 29.8,-2.75 -5.82,-32.71 -23.49,-62.56 -47.74,-84.92 -14.34,-12.67 -31.26,-21.77 -47.1,-32.28 2.05,-5.66 4.1,-11.26 6.14,-16.87 -21.55,4.91 -44.5,8.68 -62.99,21.72 -22.84,26.62 -17.56,71.02 -49.03,91.44 -15.9,3.02 -19.83,-17.73 -29.26,-26.46 -3.07,9.22 -5.87,18.54 -8.62,27.81 -23.39,-5.34 -38.26,-25.06 -54.97,-40.47 -12.88,-12.5 -28.5,-21.45 -42.89,-31.9 31.68,-10.13 55.07,20.8 83.2,29.42 -14.71,-20.85 -36.53,-34.75 -53.78,-53.24 11.69,-7.92 24.36,-14.28 37.61,-19.18 9.11,10.35 18.06,20.96 27.05,31.47 10.89,-11.48 20.48,-24.47 33.36,-33.73zm588.32 0.21c17.68,-9.91 38.15,-13.47 57.98,-16.59 -11.1,31.84 -43.81,50.76 -76.08,54.04 4.95,-12.88 8.78,-26.83 18.1,-37.45zm-176.53 -52.32c6.31,-9.92 18.7,-10.72 29.05,-13.31 -31.1,64.45 -77.82,119.52 -115.8,179.82 -5.88,9.8 -12.61,19.39 -22.53,25.54 -3.39,-16.38 -5.28,-34.71 4.91,-49.2 17.83,-26.4 39.49,-50.01 57.87,-76.03 16.81,-21.34 30.07,-45.21 46.5,-66.82zm215.22 -21.98c11.42,-13.1 28.56,-18.87 44.4,-24.95 -3.18,16.22 -5.49,34.27 -17.35,46.77 -12.72,10.56 -29.04,14.92 -44.51,19.66 4.85,-14.17 8.89,-28.99 17.46,-41.48zm-1085.15 -23.93c9.22,19.51 16.49,39.87 26.41,59.11 24.89,47.91 59.54,90.47 99.96,126.2 38.47,32.66 82.33,58.04 124.2,85.95 0.22,8.35 0.49,16.65 0.65,25 -61.11,-27.43 -108.8,-76.73 -155.51,-123.4 -48.02,-46.12 -85.58,-106.37 -95.71,-172.86zm697.34 29.37c50.06,-10.83 98.71,-27.86 149.37,-35.95 -6.69,13.69 -16.92,26.3 -32.98,28.46 -51.3,12.44 -101.63,29.42 -153.68,38.52 6.84,-15.78 19.83,-28.39 37.29,-31.03zm222.71 -56.8c27.21,-7.81 54.69,-15.14 82.66,-19.99 -5.23,10.4 -10.84,22.36 -23.07,25.81 -29.69,9.92 -60.3,17.68 -91.33,21.93 8.67,-11.04 17.24,-24.03 31.74,-27.75zm163.32 -42.19c47.48,-10.29 93.55,-26.84 141.67,-34 -5.71,17.19 -21.99,26.35 -38.91,29.42 -58.46,13.47 -115.69,32.22 -174.7,43.05 11.48,-29.58 45.65,-31.14 71.94,-38.47zm-865.18 104.05c-5.72,-55.18 -1.24,-112.94 22.25,-163.86 -8.3,60.24 -21.01,122.64 -3.5,182.51 7.33,30.55 28.77,54.53 41.22,82.82 -3.34,0.54 -9.91,1.72 -13.25,2.32 -28.08,-26.95 -41.28,-66.07 -46.72,-103.79zm1113.16 -167.8c43.6,-9.37 85.95,-23.98 129.92,-31.74 -10.18,13.26 -22.58,25.92 -39.66,29.16 -46.61,10.99 -92.25,26.72 -139.78,33.19 11,-17.62 29.1,-27.97 49.52,-30.61zm-849.66 -26.19c7.22,-17.29 14.01,-37.18 31.9,-46.12 1.67,21.77 -1.46,47.15 14.98,64.34 12.23,14.01 32.54,9.91 48.98,11.96 -8.68,30.5 -22.9,62.35 -50.82,79.75 -19.02,11.59 -48.92,5.82 -55.6,-17.35 -5.66,-30.99 -1.19,-63.48 10.56,-92.58zm-576.47 -63.96c19.13,-30.55 37.99,-62.94 67.63,-84.54 -6.25,35.61 -14.77,70.96 -23.28,106.1 -30.82,38.63 -60.95,87.78 -48.23,139.24 15.03,-13.26 28.29,-28.29 42.84,-42.03 1.83,15.19 7.6,31.25 3.13,46.39 -15.58,22.52 -27.92,48.5 -24.47,76.73 11.26,-7.92 21.72,-16.81 32.06,-25.86 21.18,97.32 75.07,186.71 152.07,249.97 45.53,36.7 94.67,69.41 147.32,95.11 19.08,7.92 34.16,22.31 46.29,38.69 -15.52,8.03 -31.2,15.68 -47.53,21.77 6.79,-13.69 14.17,-27.05 21.5,-40.47 -22.58,9 -46.99,13.42 -71.07,8.09 7.54,-9.33 15.25,-18.38 22.95,-27.54 -32.6,1.35 -68.54,10.02 -97.31,-10.35 5.44,-8.83 11.04,-17.56 16.48,-26.4 -24.3,-4.53 -57.44,-0.16 -71.77,-25 7.7,-7.49 15.3,-15.04 22.74,-22.85 -26.62,-0.81 -53.03,-4.8 -77.92,-14.33 19.72,22.57 37.72,46.72 51.19,73.6 -14.98,-1.61 -29.85,-3.66 -44.72,-5.49 2.91,16.33 8.29,32.92 21.06,44.29 17.3,19.13 46.18,20.1 63.7,38.8 13.52,13.85 28.5,27.86 48.06,32.17 21.23,5.93 45.05,4.25 63.7,17.78 19.45,13.31 44.29,11.91 66.6,8.94 15.79,-1.99 24.68,-16.86 35.51,-26.72 13.36,22.36 28.13,43.92 41.97,66.01 -18.85,7.97 -39.11,11.53 -59.59,11.53 7.27,-17.4 15.84,-34.22 22.85,-51.68 -39.99,19.19 -83.9,33.25 -128.79,25.76 0.75,-7.33 1.51,-14.66 2.32,-21.93 -39.02,6.74 -80.08,11.8 -117.31,-5.44 7.22,-9.59 14.82,-18.86 22.2,-28.29 -51.95,-0.33 -116.07,14.44 -154.81,-30.45 5.17,-2.8 10.34,-5.55 15.57,-8.3l2.75 1.46c20.1,12.18 43.1,19.67 66.87,17.35 -9.32,-12.07 -19.78,-23.12 -30.29,-34.16 -0.26,-2.32 -0.86,-7.06 -1.13,-9.38 -36.1,2.05 -73.44,1.02 -107.28,-13.04 -19.99,-8.24 -31.96,-27.75 -41.01,-46.4 14.77,3.02 29.21,7.44 43.38,12.56l1.24 2.42c5.76,18.38 23.65,26.57 41,30.72 -2.2,-8.46 -4.63,-16.81 -6.84,-25.22 2.7,1.29 8.19,3.93 10.94,5.28 10.62,8.41 21.07,17.14 32.33,24.79 -0.27,-6.95 -0.54,-13.85 -0.75,-20.69 3.66,-1.57 10.93,-4.64 14.55,-6.15 -11.1,-10.99 -27.11,-13.52 -40.74,-19.99 -40.52,-18 -78.35,-42.35 -110.74,-72.58 -10.99,-10.72 -23.06,-21.99 -26.89,-37.45 -4.52,-18.05 -3.23,-36.91 -2.53,-55.29 10.19,9 22.74,17.73 26.46,31.58 3.72,30.28 12.77,61.37 36.75,82.07 3.66,-13.91 4.42,-28.29 4.96,-42.57 6.73,6.63 15.68,11.85 19.5,20.85 5.55,16.17 12.4,32.17 25.01,44.19 0.7,-8.89 1.24,-17.79 1.77,-26.68 29.05,13.04 56.26,32.06 88.75,35.67 -18.53,-19.66 -43,-31.95 -63.31,-49.46 -48.71,-38.37 -88.7,-87.4 -115.8,-143.23 -16.44,-25.92 -14.5,-57.55 -14.33,-86.86 0.32,-25.11 3.88,-50.49 14.71,-73.34 7.27,21.93 15.62,43.92 19.02,66.87 -6.74,35.51 -14.28,74.04 2.75,108.04 8.94,-16.76 15.84,-34.48 22.36,-52.27 6.2,13.15 14.76,25.65 17.62,40.09 -4.8,23.01 -7.06,46.78 -1.24,69.84 10.51,-11.21 16.43,-25.43 22.09,-39.5 24.36,35.19 47.74,77.17 90.69,91.77 -13.36,-19.45 -30.39,-36.11 -42.57,-56.31 -43.86,-72.8 -74.95,-154.17 -84.65,-238.88 -4.47,-47.04 -4.26,-98.01 21.66,-139.4zm1183 -357.85c32.23,2.1 63.96,10.45 93.17,24.25 5.93,3.71 17.35,5.87 12.77,15.3 -31.74,6.25 -66.33,13.31 -97.1,-0.7 -3.72,-12.77 -6.9,-25.7 -8.84,-38.85zm-222.87 -34.65c46.13,-3.83 95.27,-0.32 136.17,23.17 24.63,15.2 32.98,45.1 41.11,71.07 -34.43,10.19 -70.59,14.23 -106.26,17.09 -10.99,1.94 -12.01,-11.7 -16,-18.49 23.71,-13.79 51.89,-11.15 78.03,-15.68 -20.43,-36.53 -66.93,-42.4 -104.27,-48.6 -16.17,-0.22 -21.83,-17.03 -28.78,-28.56zm-212.31 5.55c34.17,-11.21 71.94,-8.19 106.21,1.29 37.51,14.71 67.36,43.6 93.82,73.13 10.72,12.23 21.82,24.62 27.37,40.19 -25,11.05 -47.96,-9.16 -72.37,-12.71 -21.5,-4.85 -35.72,-23.23 -51.51,-37.08 14.55,-6.84 29.37,-13.09 43.86,-20.04 -14.23,-7.98 -30.12,-12.88 -46.56,-12.07 -18.05,-1.13 -37.72,5.17 -54.42,-4.2 -16.28,-8.14 -31.58,-18.06 -46.4,-28.51zm435.56 842.99l0 0c3.88,11.26 7.54,22.63 9.97,34.32 4.09,0.22 8.24,0.43 12.39,0.65 2.59,-11.86 5.66,-23.61 8.62,-35.35 -10.34,0.05 -20.69,0.16 -30.98,0.38z"/>
   <path class="fil3" d="M1308.38 366.84c33.25,-7.49 67.14,-11.42 100.77,-16.81 -22.04,98.39 -68.92,188.81 -115.05,277.67 -4.9,7.54 -7.33,18.48 -17.19,20.96 -28.66,9.65 -58.41,16.11 -88.1,21.66 1.02,-29.42 10.61,-57.71 11.58,-87.18 -22.3,34.54 -44.77,69.18 -71.93,100.11 -5.66,6.58 -14.87,7.33 -22.63,9.97 -43.92,11.48 -88.05,22.31 -131.97,33.9 55.56,-78.78 85.84,-172.49 99.85,-267.17 1.67,-18.53 -6.63,-35.94 -11.59,-53.4 43.11,-8.19 86.38,-16.27 130.03,-20.2 4.8,24.84 6.04,50.11 7.55,75.33 23.87,-28.4 34.75,-65.15 57.87,-93.98 6.57,30.72 5.76,62.35 12.01,93.12 19.29,-28.29 27.05,-62.24 38.8,-93.98zm-735 1150.67c40.2,7.38 77.22,-17.35 117.26,-16.92 -22.47,15.41 -50.01,18.75 -75.07,27.91 -19.93,7.06 -40.08,14.55 -61.53,14.77 6.47,-8.57 12.55,-17.41 19.34,-25.76zm566.34 -47.04c39.01,-9.43 76.3,-26.41 116.55,-30.12 -25.38,15.25 -54.53,21.93 -81.85,32.76 -29.96,11.69 -60.67,21.45 -90.47,33.73 -14.6,6.04 -29.8,10.99 -45.48,13.42 9.43,-12.61 16.76,-27.05 29.1,-37.18 24.95,7.16 48.39,-7.17 72.15,-12.61zm-867.13 -40.63c7.06,-4.64 14.61,-8.41 22.8,-10.72 1.61,5.44 3.23,10.99 4.79,16.54 -9.64,2.1 -18.86,5.71 -27.96,9.54 0.1,-3.83 0.27,-11.54 0.37,-15.36zm776.6 -0.65c11.37,-9.81 17.73,-24.03 26.24,-36.16 -2.2,28.83 -4.31,62.73 -30.6,80.78 -23.12,-9.54 -48.07,-10.94 -71.56,-1.89 -1.08,-12.5 -3.13,-27.16 8.3,-35.78 18.37,-17.83 45.31,-7.76 67.62,-6.95zm56.69 -37.18c1.08,-6.79 2.16,-13.58 3.29,-20.37 19.66,6.25 40.19,1.51 60.13,0.06 -20.53,8.56 -41.92,14.71 -63.42,20.31zm-792.23 -8.62c12.72,-10.19 27.16,-19.29 44.25,-16.6 0.7,11.97 1.4,23.93 2.31,35.89 -6.95,-3.34 -13.85,-6.63 -20.74,-9.86 -8.41,8.08 -16.22,16.65 -24.25,25.06 -1.62,-11.43 -1.94,-23.01 -1.57,-34.49zm61.92 -28.13c14.01,-9.86 31.52,-28.13 49.74,-17.08 28.13,13.31 52.1,34 72.04,57.71 19.24,24.52 54.32,30.93 70.38,58.57 5.11,14.98 -1.73,30.77 -8.68,43.97 -15.63,-0.81 -31.31,-0.91 -46.93,-0.86 0.97,-17.13 14.17,-29.69 18.16,-45.69 -8.19,-7.44 -20.27,-7.33 -30.07,-11.59 -20.05,-6.09 -33.63,-22.85 -46.56,-38.2 -5.6,6.73 -11.42,13.52 -19.51,17.29 -6.3,-21.82 -13.68,-45.37 -34.43,-57.81 -8.08,7.59 -16.17,15.19 -24.79,22.25 -0.21,-9.54 -1.78,-19.24 0.65,-28.56zm418.53 -143.82c11.74,-6.63 25.97,-4.8 38.96,-6.25 14.49,16.49 33.35,33.95 32.38,57.87 1.35,24.52 -11.85,46.34 -27.05,64.39 0.49,-31.57 -6.36,-72.25 -39.28,-85.67 -10.62,11.96 -20.37,24.68 -29.42,37.82 1.13,-24.3 5.87,-50.81 24.41,-68.16zm125.98 -40.68c15.14,-4.8 31.36,-2.8 46.99,-2.48 13.58,22.79 27.48,46.93 28.45,74.14 0.49,18.27 2.43,39.18 -10.67,53.83 -2.1,-35.18 -12.66,-75.27 -46.61,-92.52 -19.83,17.68 -26.4,43.6 -38.15,66.34 -6.57,-33.52 -5.17,-73.45 19.99,-99.31zm127.33 -8.52c16.38,0.87 34.76,1.57 47.32,13.64 13.47,19.29 17.35,43.91 15.73,67.03 -10.08,-17.35 -19.83,-35.08 -33.25,-50.17 -33.57,19.94 -45.31,60.68 -40.03,97.59 -30.34,-36.86 -22.69,-95.27 10.23,-128.09zm764.15 49.63c62.57,-18.81 125.5,-36.64 188.44,-54.37 -27.16,16.54 -58.79,22.85 -87.83,35.13 -33.68,11.16 -65.31,29.26 -100.93,33.57 0.11,-3.55 0.22,-10.72 0.32,-14.33zm-272.01 -41.87c45.64,-9.37 89.99,-25 136.49,-29.58 -29.69,16.7 -65.79,17.35 -94.14,36.75 -14.22,-1.99 -28.29,-4.42 -42.35,-7.17zm-1314.91 -53.72c11.74,-6.57 23.98,-12.07 36.58,-16.81 10.51,11.04 20.97,22.09 30.29,34.16 -23.77,2.32 -46.77,-5.17 -66.87,-17.35zm490.62 0.81c7.49,-8.73 14.98,-17.41 22.9,-25.76 -5.87,19.35 -13.04,42.95 -35.13,48.82 -0.64,-10.13 -1.13,-20.21 -1.88,-30.28 4.68,2.42 9.37,4.84 14.11,7.22zm-513.74 -60.68c10.72,-1.29 21.39,0.59 31.58,4.1 0.21,6.84 0.48,13.74 0.75,20.69 -11.26,-7.65 -21.71,-16.38 -32.33,-24.79zm-4.1 19.94c-17.35,-4.15 -35.24,-12.34 -41,-30.72 11.37,1.46 22.74,3.61 34.16,5.5 2.21,8.41 4.64,16.76 6.84,25.22zm498.98 -104.7c15.2,4.58 24.04,18.05 29.26,32.22 -13.9,13.21 -25.86,28.19 -36.1,44.41 -8.4,-14.61 -17.62,-31.58 -12.28,-48.88 5.06,-10.08 12.39,-18.75 19.12,-27.75zm645.93 -4.09c10.29,-0.22 20.64,-0.33 30.98,-0.38 -2.96,11.74 -6.03,23.49 -8.62,35.35 -4.15,-0.22 -8.3,-0.43 -12.39,-0.65 -2.43,-11.69 -6.09,-23.06 -9.97,-34.32zm-1187.91 -6.58c9.38,3.5 18.22,8.19 27.06,12.93l-0.28 4.58c-0.53,8.89 -1.07,17.79 -1.77,26.68 -12.61,-12.02 -19.46,-28.02 -25.01,-44.19zm-24.46 21.72c-23.98,-20.7 -33.03,-51.79 -36.75,-82.07 15.52,11.31 28.13,26.03 41.71,39.5 -0.54,14.28 -1.3,28.66 -4.96,42.57zm1257.09 -53.14c12.45,-16.37 31.15,-25.54 49.09,-34.59 11.32,7.11 22.53,14.44 33.63,21.93 -24.14,16.92 -54.75,17.62 -82.72,12.66zm-1235.32 -35.72c-5.82,-23.06 -3.56,-46.83 1.24,-69.84 8.03,9.33 14.55,19.78 20.85,30.34 -5.66,14.07 -11.58,28.29 -22.09,39.5zm1390.35 -71.61c19.08,0.86 38.26,1.18 57.28,3.88l-4.52 4.09c-24.47,21.28 -54.97,39.12 -88.59,36.37 10.83,-15.68 23.6,-29.79 35.83,-44.34zm-80.34 -9.6c13.47,0.11 26.78,2.43 39.55,6.96 -16.38,16.59 -36.26,30.44 -60.35,31.68 6.25,-13.2 13.63,-25.87 20.8,-38.64zm-1348.75 23.55c-17.03,-34 -9.49,-72.53 -2.75,-108.04 9.7,17.95 16.38,37.34 25.11,55.77 -6.52,17.79 -13.42,35.51 -22.36,52.27zm1359.69 -116.07c17.67,-4.58 35.24,-9.8 53.45,-12.18 -15.95,25.33 -33.68,54.1 -65.14,61.16 2.64,-15.03 6.52,-29.74 10.5,-44.45l1.19 -4.53zm-1296.11 33.3c-3.45,-28.23 8.89,-54.21 24.47,-76.73 4.57,16.6 6.62,33.73 7.59,50.87 -10.34,9.05 -20.8,17.94 -32.06,25.86zm1402.37 -72.74c19.29,-9.97 38.1,-21.02 58.36,-29.1 -11.86,32.33 -34.54,59.38 -59.6,82.5 -10.99,10.45 -25.22,16.33 -39.5,20.85 6.79,-21.55 16.92,-41.87 26.14,-62.45 2.26,-6.31 9.48,-8.35 14.6,-11.8zm-1423.87 -8.35c-12.72,-51.46 17.41,-100.61 48.23,-139.24 -0.22,32.49 -7.71,64.55 -5.39,97.21 -14.55,13.74 -27.81,28.77 -42.84,42.03zm1693.62 -276.92c32.66,15.57 67.79,-3.67 101.68,-4.1 -35.61,11.05 -71.94,21.56 -109.28,24.47 2.37,-6.85 4.91,-13.64 7.6,-20.37zm-1038.32 -89.5c46.4,-9.92 96.51,-7.93 139.89,12.55 33.08,14.98 58.84,42.78 76.3,74.15 2.91,6.89 -2.32,12.98 -5.28,18.75 -14.66,-26.19 -30.34,-53.51 -55.93,-70.54 -39.61,-25.54 -88.97,-34.05 -135.09,-25.11 -100.72,16.81 -200.35,64.23 -265.39,144.63 29.8,-11.59 57.28,-28.34 87.35,-39.39 -21.34,27.75 -46.83,52.7 -62.78,84.28 -39.93,74.95 -64.18,162.84 -47.15,247.65 4.96,28.78 19.83,54.48 38.58,76.52 -5.28,4.31 -10.61,8.68 -15.84,13.1 -47.09,-54.97 -51.78,-133.32 -40.47,-201.8 9.43,-63.64 38.64,-121.68 71.35,-176.26 -25.22,6.25 -48.23,18.64 -72.26,28.18 65.58,-97.1 171.52,-165.7 286.72,-186.71zm290.98 -20.75c37.13,-5.87 74.04,-14.33 111.65,-16.44 -3.88,9.87 -8.02,19.56 -12.12,29.32 -9.54,-3.02 -18.91,-6.31 -28.45,-9.11 -9.7,18.81 -18.11,38.21 -25.6,57.98 3.24,5.61 6.52,11.16 9.81,16.71 -26.67,4.04 -53.19,9.1 -80.18,10.4 10.61,-9.22 25.22,-15.04 31.52,-28.4 7.98,-15.2 14.12,-31.31 19.13,-47.74 -13.36,6.68 -25.81,14.81 -39.07,21.6 2.7,-12.07 7.6,-23.44 13.31,-34.32zm367.83 -58.2c18.15,-7.92 38.68,-7.33 58.14,-9.43 -8.68,8.35 -19.46,14.61 -26.73,24.25 -9.54,16.38 -15.46,34.49 -23.22,51.73 2.91,5.77 5.87,11.53 8.78,17.35 -25.76,3.56 -51.35,8.25 -77.27,10.56 16.86,-13.68 34.81,-27.69 40.03,-50.06 -15.08,11 -28.82,23.77 -43.27,35.51 -6.25,-10.07 -12.07,-20.42 -18.15,-30.55 -9.27,15.14 -16.55,32.87 -9.22,50.44 -21.34,4.58 -42.89,8.46 -64.77,8.94 9.81,-8.29 21.55,-14.44 30.23,-24.08 9.65,-15.95 15.03,-34 22.09,-51.14 -2.53,-5.66 -5.01,-11.32 -7.43,-16.97 17.73,-3.88 35.67,-6.85 53.77,-8.46 5.39,8.51 10.84,17.02 16.33,25.54 14.07,-10.62 26.51,-23.23 40.69,-33.63zm202.39 -35.83c25.16,-2.7 50,-7.65 75.28,-9.65 -9.33,8.52 -20.59,14.71 -29.64,23.55 -10.51,17.14 -18.7,35.73 -24.84,54.86 19.88,-1.62 35.03,-15.68 53.29,-22.1 -4.09,12.24 -9.91,23.77 -16.43,34.87 -36.21,3.66 -71.94,11.42 -108.26,13.68 11.86,-10.93 28.78,-17.72 34.86,-33.78 8.68,-19.4 21.67,-39.29 15.74,-61.43zm118.17 -19.24c35.03,-3.77 69.62,-11.15 104.86,-12.71 -2.96,10.83 -7.22,21.23 -12.93,30.93 -12.72,-9.49 -28.18,-9.7 -43.22,-8.3 -2.26,6.36 -4.36,12.77 -6.2,19.23 10.51,-2.75 20.05,-13.9 31.42,-9.86 4.26,12.99 -11.91,26.25 2.59,37.35 -4.26,7.43 -6.63,16.54 -13.58,22.03 -35.67,7.98 -72.1,13.64 -108.63,15.09 11.58,-10.45 26.99,-17.89 33.35,-33.03 8.35,-19.18 23.71,-39.6 12.34,-60.73zm32.82 46.13l0 0c-2.64,7.11 -5.23,14.22 -7.55,21.44 13.64,-1.56 26.78,-6.19 36.43,-16.43 -9.32,-3.45 -19.08,-4.96 -28.88,-5.01zm-274.87 -5.44c30.98,-3.19 61.86,-12.56 93.16,-8.19 14.61,1.83 16.76,20.26 8.03,29.74 -19.13,21.88 -49.79,24.73 -75.92,32.71 -8.08,8.89 -2.86,20.31 1.78,29.37 -25.98,4.04 -51.9,8.29 -77.98,11.15 11.38,-11.42 28.89,-17.4 35.25,-33.19 7.65,-19.78 20.9,-39.45 15.68,-61.59zm36.15 32.65l0 0c13.04,-2.48 27.7,-8.62 29.37,-23.82 -4.47,0.27 -13.36,0.81 -17.83,1.08 -8.63,3.88 -8.41,15.14 -11.54,22.74zm-353.54 18.16c35.73,-4.63 71.08,-12.02 107.02,-15.25 -3.88,10.51 -6.47,22.9 -17.08,28.83 -9.49,6.46 -21.77,19.34 -15.36,31.47 6.68,9.86 -1.4,20.42 -4.31,30.01 -37.99,9.32 -76.95,13.9 -115.75,18.32 10.03,-7.92 22.1,-13.52 30.55,-23.28 8.84,-16.65 16.06,-34.21 22.26,-52.05 -0.86,-6.52 -4.8,-12.12 -7.33,-18.05zm49.25 10.35l0 0c-1.13,4.04 -3.39,12.07 -4.52,16.11 13.41,-3.61 26.13,-10.13 34.43,-21.61 -10.02,1.56 -19.99,3.5 -29.91,5.5zm-23.11 56.04l0 0c8.29,-1.46 16.86,-2.43 24.62,-5.99 6.47,-2.96 17.73,-9.53 6.95,-15.3 -16.81,-8.78 -28.23,6.31 -31.57,21.29zm383.61 -16.92c58.57,-9.54 117.14,-18.86 175.93,-27.16 13.26,-2.91 33.95,7.6 29.05,23.38 -8.57,26.89 -20.1,52.65 -30.02,79.05 -26.72,-22.14 -61.91,-10.18 -92.36,-5.33 22.15,20.37 49.52,33.95 73.93,51.41 -10.07,30.93 -22.79,60.94 -34.32,91.39 -60.89,17.67 -123.08,30.66 -184.56,45.74 -20.04,7.12 -35.67,-15.73 -28.72,-33.51 10.29,-28.67 23.82,-56.1 35.56,-84.23 8.41,9 15.15,20.43 26.41,26.25 21.82,-0.65 43.27,-7.44 63.31,-15.79 0.06,-2 0.17,-5.98 0.17,-7.98 -21.18,-17.78 -46.4,-29.79 -69.09,-45.42 7.55,-33.84 21.29,-65.96 34.71,-97.8zm99.95 -4.42l0 0c-30.87,4.69 -62.02,7.97 -92.36,15.79 -11.47,26.4 -22.3,53.18 -29.47,81.15 21.12,14.87 45.26,25.43 64.66,42.73 7.38,5.44 8.41,19.07 -0.11,23.92 -15.89,10.3 -35.02,13.96 -53.24,17.89 -15.46,4.26 -30.01,-3.98 -44.29,-8.46 -8.89,25.65 -31.9,51.79 -22.04,80.02 45.64,-6.52 89.51,-21.44 134.55,-30.71 18,-4.85 37.67,-6.2 53.94,-16 13.74,-23.18 21.93,-49.26 30.45,-74.8 -25.71,-23.17 -61.81,-35.02 -80.34,-65.47 35.45,-7.38 71.88,-12.93 108.09,-7.97 11.64,-21.34 19.88,-44.46 23.38,-68.55 -31.46,-0.7 -62.23,6.36 -93.22,10.46zm-309.89 40.14c37.4,-8.78 75.6,-13.63 113.48,-19.67 -10.61,60.84 -33.35,118.34 -54.8,175.89 29.58,-3.72 53.67,-22.26 73.66,-43.17 -17.35,40.74 -36.96,80.51 -55.72,120.6 -3.98,11.05 -16.81,11.91 -26.4,15.09 -56.58,14.12 -112.57,31.09 -170.01,41.65 54.64,-90.1 89.5,-190 119.79,-290.39zm9.91 10.29l0 0c-19.45,52.92 -33.78,107.67 -56.31,159.5 -13.04,35.46 -34.32,67.2 -47.31,102.66 36.43,-6.09 71.67,-17.52 107.56,-26.08 16.49,-4.75 34,-7.22 49.3,-15.41 15.52,-23.01 24.95,-49.53 37.02,-74.37 -15.36,5.18 -30.98,9.65 -46.82,13.1 -2.16,-2.59 -6.42,-7.82 -8.57,-10.46 20.37,-54.1 43,-107.71 54.15,-164.78 -29.9,3.94 -59.86,8.19 -89.02,15.84zm-121.89 18.59l0 0c-17.13,35.73 -21.5,82.23 -57.17,105.46 -5.06,-25.76 -5.87,-52.16 -11.42,-77.81 -19.99,24.89 -31.15,55.23 -48.71,81.63 -2.91,5.39 -8.25,8.41 -13.05,11.75 -1.93,-33.03 2.43,-67.03 -7.97,-99.04 -33.57,2.91 -66.82,8.68 -99.74,15.63 11.69,53.24 -5.93,105.99 -19.67,157.02 -12.34,47.58 -34.97,91.28 -58.09,134.34 38.53,-8.68 77.81,-16.12 115.16,-28.94 17.51,-16.81 29.36,-38.48 44.29,-57.44 19.56,-25.17 31.95,-54.75 50.54,-80.45 2.21,38.36 -6.95,75.92 -9.59,114.02 23.5,-2.54 47.04,-7.06 68.98,-16.06 7.49,-2.96 10.45,-11.26 14.27,-17.67 39.88,-82.72 84.82,-164.57 105.57,-254.78 -24.74,2.65 -49.42,5.88 -73.4,12.34z"/>
   <path class="fil4" d="M772.87 902.46c2.53,-8.84 5.22,-17.62 7.92,-26.35 41.87,2.53 62.83,57.5 35.72,88.21 -20.09,29.1 -64.6,26.35 -87.45,1.99 8.84,-11.1 18.43,-21.6 28.23,-31.84 8.41,7.92 15.69,21.5 29.32,19.18 17.4,-0.43 32.38,-23.98 19.77,-38.42 -6.95,-11.91 -21.71,-11.15 -33.51,-12.77zm-253.59 609.99c9.92,0 19.78,0.75 29.59,2.58 -7.55,19.02 -23.82,32.93 -42.9,39.5 3.4,-14.33 8.41,-28.18 13.31,-42.08zm462.39 -21.83c10.89,-15.9 33.47,-10.08 47.53,-1.94 -15.25,31.96 -53.08,46.72 -86.7,48.34 12.82,-15.68 26.13,-30.93 39.17,-46.4zm-694.04 12.88c-9.38,-15.52 -8.78,-36.59 3.18,-50.6 6.19,7.28 15.84,14.39 14.33,25.27 -1.72,10.35 -5.06,20.32 -8.14,30.34 -4.74,1.51 -7.86,-0.16 -9.37,-5.01zm52.97 -7.27c-23.39,-22.26 -21.23,-63.21 -0.76,-86.76 13.15,7.38 15.58,22.95 17.95,36.53 -7.17,16.28 -15.84,32.06 -17.19,50.23zm52.27 -27.43c-16.44,-26.41 -20.26,-65.58 5.92,-87.3 4.8,5.71 11.27,10.73 13.26,18.32 12.66,25.17 -12.61,45.86 -19.18,68.98zm405.75 -204.93c17.25,2.96 19.62,27.7 22.8,42.09 -3.02,24.67 -8.84,49.14 -4.64,74.25 -40.25,-22.04 -52.59,-83.79 -18.16,-116.34zm156.7 96.46c-37.23,-33.04 -50,-97.16 -12.82,-134.88 21.55,19.78 30.61,50.71 24.03,79.1 -4.85,18.32 -7.49,37.13 -11.21,55.78zm105.24 -64.08c-17.08,-26.24 -5.98,-62.72 16.76,-81.95 31.52,35.13 30.12,92.73 -0.05,128.35 -4.58,-15.84 -8.03,-32.22 -16.71,-46.4zm-424.94 -298.84c-40.3,3.66 -59.7,-52.22 -36.64,-80.62 10.18,-6.3 18.59,6.85 25.22,12.88 10.29,8.68 -1.51,21.4 -2.1,31.8 -2.65,8.13 6.68,13.36 11.31,18.59 17.41,8.03 28.88,-24.57 44.3,-9.16 -9.92,13.68 -23.18,29.15 -42.09,26.51z"/>
  </g>
 </g>
</svg>
