<?xml version="1.0" encoding="UTF-8"?>
<!DOCTYPE svg PUBLIC "-//W3C//DTD SVG 1.1//EN" "http://www.w3.org/Graphics/SVG/1.1/DTD/svg11.dtd">
<!-- Creator: CorelDRAW -->
<svg xmlns="http://www.w3.org/2000/svg" xml:space="preserve" width="2000px" height="1600px" version="1.1" style="shape-rendering:geometricPrecision; text-rendering:geometricPrecision; image-rendering:optimizeQuality; fill-rule:evenodd; clip-rule:evenodd"
viewBox="0 0 2000 1600"
 xmlns:xlink="http://www.w3.org/1999/xlink">
 <defs>
  <style type="text/css">
   <![CDATA[
    .fil0 {fill:#F5821F;fill-rule:nonzero}
   ]]>
  </style>
 </defs>
 <g id="Capa_x0020_1">
  <metadata id="CorelCorpID_0Corel-Layer"/>
  <path id="Tennessee_x0020_Volunteers.cdr" class="fil0" d="M198.95 0l1602.1 0 0 540.53c-66.63,0.02 -133.28,0 -199.91,0.02 0.52,-34.84 -12.7,-68.99 -33.87,-96.32 -18.93,-24.27 -43.75,-43.72 -71.29,-57.32 -47.22,-23.82 -101.94,-31.2 -154.06,-23.67 -50.17,7.41 -98.97,29.62 -134.36,66.47 -9.96,10.84 -19.45,22.4 -26.19,35.51 -0.72,102.44 -0.11,204.97 -0.32,307.43 0,124.26 0,248.49 0.02,372.72 1.01,75.75 36.11,150.61 94.99,198.55 43.31,35.98 99.25,56.21 155.56,56.23 -0.08,66.61 -0.02,133.24 -0.04,199.85l-862.11 0c0,-66.63 0,-133.26 0,-199.91 46.42,-0.09 92.78,-13.65 131.73,-38.97 55.9,-35.73 96.32,-94.15 111.35,-158.66 5.89,-24.18 7.83,-49.15 7.45,-73.99 0,-216.15 -0.02,-432.32 0.02,-648.47 -0.38,-6.21 1.45,-13.18 -2.42,-18.61 -20.15,-33.28 -51.16,-59.22 -86.04,-76.02 -52.86,-25.47 -114.49,-31.29 -171.54,-18.23 -50.97,11.55 -99.37,39.6 -130.27,82.35 -19.22,26.3 -29.96,58.47 -30.42,91.04 -66.8,0 -133.58,0 -200.38,0l0 -540.53z"/>
 </g>
</svg>
