<?xml version="1.0" encoding="UTF-8"?>
<!DOCTYPE svg PUBLIC "-//W3C//DTD SVG 1.1//EN" "http://www.w3.org/Graphics/SVG/1.1/DTD/svg11.dtd">
<!-- Creator: CorelDRAW -->
<svg xmlns="http://www.w3.org/2000/svg" xml:space="preserve" width="2000px" height="1600px" version="1.1" style="shape-rendering:geometricPrecision; text-rendering:geometricPrecision; image-rendering:optimizeQuality; fill-rule:evenodd; clip-rule:evenodd"
viewBox="0 0 2000 1600"
 xmlns:xlink="http://www.w3.org/1999/xlink">
 <defs>
  <style type="text/css">
   <![CDATA[
    .fil2 {fill:#FEFEFE}
    .fil0 {fill:#FFCC01}
    .fil1 {fill:#670099;fill-rule:nonzero}
   ]]>
  </style>
 </defs>
 <g id="Capa_x0020_1">
  <metadata id="CorelCorpID_0Corel-Layer"/>
  <g id="Tennessee_x0020_Tech_x0020_Golden_x0020_Eagles.cdr">
   <path class="fil0" d="M1380.63 786.07c62.65,-3.7 125.05,-11.33 187.32,-18.98 0.27,-0.04 0.49,-0.06 0.76,-0.09 72.22,-7.26 143.68,-20.72 215.39,-31.63 10.35,-1.58 19.89,1.17 27.82,8.02 7.92,6.85 12.02,15.89 11.97,26.36 -0.36,64.4 0.22,128.81 0.98,193.21 21.73,-0.09 43.47,0.23 65.22,0.03 9.57,-0.08 17.85,3.28 24.65,10.02 6.81,6.74 10.24,14.98 10.25,24.56 0.03,147.72 -0.19,295.43 0.11,443.15 0.02,9.99 -3.72,18.6 -11.03,25.4 -42.61,39.62 -85.49,78.94 -127.7,118.99 -9.43,8.95 -22.1,11.82 -34.47,7.8 -41.89,-13.59 -85.61,-21.41 -128.31,-32.02 -114.01,-22.88 -229.39,-39.35 -345.39,-47.8 -132.56,-9.65 -265.64,-13.28 -398.49,-8.57 -110.34,3.91 -220.85,11 -329.98,28.41 -0.25,0.04 -0.46,0.07 -0.71,0.1 -102.37,14.14 -203.65,36.13 -302.84,65.11 -16.37,4.79 -33.19,0.19 -44.74,-12.14 -38.03,-36.96 -77.08,-72.86 -115.68,-109.23 -7.21,-6.8 -10.89,-15.35 -10.86,-25.27 0.46,-151.28 -0.03,-302.56 0.23,-453.83 0.03,-19.05 15.59,-34.55 34.63,-34.53 15.64,0.03 31.27,-0.22 46.9,-0.21 0.41,-63.74 -0.6,-127.49 -0.76,-191.24 -0.02,-10.75 4.35,-20.02 12.67,-26.83 8.31,-6.82 18.26,-9.29 28.79,-7.15 71.76,14.57 144.16,25.59 216.77,34.97 11.7,-64.39 33.79,-126.72 64.07,-184.74 -6.21,0.7 -12.42,1.37 -18.65,2 -11.83,1.2 -22.56,-3.21 -30.13,-12.38 -7.58,-9.18 -9.88,-20.54 -6.47,-31.94 32.17,-107.53 98.13,-200.67 176.01,-280.15 -8.69,-3.01 -17.41,-5.95 -26.19,-8.71 -16.1,-5.05 -26.06,-20.54 -23.97,-37.28 1.83,-14.61 9.97,-25.96 21.59,-34.41 95.91,-73.21 205.75,-128.19 322.17,-160.07 0.33,-0.1 0.62,-0.17 0.96,-0.25 60.83,-14.8 122.88,-26.33 185.76,-24.51 65.45,-2.16 129.3,10.65 192.89,24.64 0.74,0.16 1.36,0.32 2.08,0.52 39.65,11.33 78.51,25 112.85,48.4 0.24,0.16 0.44,0.3 0.68,0.48 27.6,19.79 50.85,46.08 58.37,79.99 3,11.57 3.4,22.63 2.28,33.58 16.03,4.34 32.03,8.65 47.73,14.83 68.71,22.58 136.43,55.89 178.61,117.03 35.45,51.38 39.92,116.65 28.06,176.39 -19.58,98.54 -83.89,189.14 -175.52,232.61 -11.95,5.68 -25.15,4.32 -35.7,-3.66 -10.54,-7.98 -15.43,-20.31 -13.22,-33.36 2.73,-16.16 4.44,-37.26 -4.03,-52.1 -12.89,-20.13 -40.79,-27.86 -63.44,-26.94 -0.3,0.01 -0.55,0.02 -0.85,0.02 -15.32,0.24 -30.25,9.7 -41.06,19.83 -14.43,13.51 -19.48,35.53 -18.15,54.66 2.37,34.32 14.96,67.65 29.77,98.91z"/>
   <path class="fil1" d="M901.69 58.35c58.13,-14.14 117.56,-25.4 177.66,-23.51 62.65,-2.24 124.53,10.43 185.4,23.81 35.83,10.24 71.82,22.57 102.87,43.73 20.52,14.71 39.48,34.51 44.9,59.99 4.52,16.68 0.04,33.71 -4.47,49.86 25.33,8.08 51.57,13.09 76.33,22.99 61.24,20.02 124.31,49.44 161.93,104.13 30.07,43.42 32.72,99.65 22.6,150.01 -17.33,87.86 -74.75,169.36 -156.43,208.11 4.29,-25.29 4.86,-53.01 -8.53,-75.8 -19.61,-31.36 -58.81,-45.02 -94.42,-43.58 -24.31,0.38 -46.8,12.9 -64.16,29.17 -22.19,20.78 -31.06,52.56 -29.01,82.28 3.26,46.95 22.26,90.79 43.3,132.23 71.1,-3.07 141.86,-11.67 212.51,-20.36 72.81,-7.32 144.86,-20.85 217.13,-31.85 -0.41,76.18 0.46,152.4 1.41,228.62 33.22,-1.25 66.43,-0.3 99.69,-0.6 0.04,147.74 -0.19,295.48 0.12,443.21 -42.7,39.71 -85.67,79.11 -127.95,119.23 -43,-13.96 -87.6,-21.96 -131.4,-32.88 -115.65,-23.24 -232.72,-40.88 -350.46,-48.54 -133.75,-10.65 -268.1,-12.36 -402.23,-8.64 -111.71,5 -223.62,11.18 -334.19,28.82 -104.06,14.37 -207.01,36.7 -307.81,66.17 -4.05,1.17 -7.43,0.19 -10.16,-3 -38.41,-37.35 -77.85,-73.6 -116.83,-110.35 0.45,-151.3 -0.04,-302.61 0.22,-453.87 27.04,0.04 54.12,-0.76 81.16,0.45 1.17,-75.5 -0.2,-151.04 -0.38,-226.57 100.71,20.44 202.72,34.01 304.8,45.77 5.16,0.26 10.32,0.19 15.48,0.03 3.03,-20.02 11.11,-38.83 14.22,-58.85 -26.21,15.02 -53.51,28.03 -80.32,41.87 12.97,-91.32 48.39,-178.91 99.09,-255.71 -29.2,3.91 -58.36,7.86 -87.68,10.81 31.97,-106.86 99.85,-198.93 178.31,-276.63 9.25,-9.56 20.36,-17.25 28.63,-27.76 -26.74,-8.8 -53.05,-18.96 -79.9,-27.38 0.6,-4.85 4.05,-8.19 7.89,-10.92 92.45,-70.64 198.4,-123.73 310.68,-154.49zm405.56 255.17c15.29,-2.5 31.59,-6.33 46.61,-0.53 -3,11.11 -4.82,22.49 -6.83,33.83 -31.17,-3.38 -62.11,-8.61 -93.2,-12.59 16.34,-10.01 34.81,-16.35 53.42,-20.71zm351.19 1106.38c19.87,-3.75 39.06,4.82 58.13,9.1 5.27,1.9 15.78,4.29 12.59,12.29 0.57,7.81 -9.9,4.25 -14.56,5.42 -0.72,-1.86 -2.12,-5.57 -2.81,-7.47 -14.29,-3.34 -28.28,-8 -42.92,-9.59 -0.31,3.94 -0.57,7.92 -0.8,11.9 16.91,3.57 34.09,6.94 50.32,13.01 9.03,8.61 0.53,26.92 -8.99,32.69 -15.47,-0.53 -30.14,-6.6 -45.46,-8.61 -11.23,-1.78 -27.49,-6.52 -22.03,-21.39 3.75,0.08 11.3,0.27 15.05,0.34 -0.04,1.86 -0.08,5.58 -0.11,7.44 15.35,3.11 30.6,6.75 45.5,11.6 2.05,-4.74 4.02,-9.48 5.92,-14.22 -17.94,-3.19 -36.18,-6.41 -53.09,-13.2 -8.53,-8.07 1.59,-20.02 3.26,-29.31zm-1333.6 2.12c12.78,-2.42 31.17,-8.6 37.09,7.66 -6.53,1.94 -16.05,11.04 -19.95,0.46 -15.81,3.37 -31.55,7.39 -47.52,10.01 2.74,12.48 7.4,24.42 10.96,36.67 16.12,-3.91 32.39,-7.09 48.5,-11.04 -0.91,-3.94 -1.78,-7.84 -2.65,-11.75 -8.99,1.02 -17.86,2.96 -26.66,5.08 -0.87,-3.26 -1.74,-6.48 -2.65,-9.71 13.88,-3.94 27.91,-7.77 42.35,-8.49 2.05,9.86 7.59,19.72 6.38,29.88 -6.11,6.07 -15.25,6.6 -23.14,8.61 -18.01,2.73 -35.53,8.42 -53.81,9.1 -7.85,-16.65 -13.12,-34.51 -16.76,-52.48 14.6,-8.54 31.86,-9.52 47.86,-14zm80.35 -13.53c19.38,-7.06 40.09,-8.31 60.26,-11.61 7.58,-1.55 15.24,-0.98 22.79,0.42 2.92,17.56 10.39,34.47 9.63,52.56 -21.35,7.62 -44.29,9.7 -66.66,12.78 -6.11,0.57 -16.69,1.25 -17.67,-6.94 -3.91,-15.51 -8.65,-31.06 -8.35,-47.21zm15.44 7.28l0 0c3.18,11.83 6.18,23.7 8.76,35.68 17.71,-2.62 35.3,-5.76 52.9,-8.87 -3.15,-11.95 -6.26,-23.93 -9.18,-35.95 -17.6,2.46 -35.11,5.53 -52.48,9.14zm1123.44 -20.06c24.01,2.12 47.63,7.05 71.48,10.35 -0.49,2.39 -1.48,7.09 -1.93,9.48 -19.12,0.61 -37.39,-7.39 -56.51,-7.21 -0.34,2.93 -1.02,8.69 -1.36,11.57 10.16,2.01 20.36,3.68 30.68,4.7 -0.08,3.72 -0.15,7.44 -0.19,11.15 -11.3,-1.33 -22.53,-3.34 -33.75,-5.12 -0.91,4.82 -1.75,9.71 -2.54,14.6 18.54,1.78 36.86,5.31 55.14,8.76 -1.75,3.26 0.34,10.43 -5.09,10.2 -23.05,-3.07 -45.96,-6.9 -68.86,-10.96 2.31,-19.6 9.1,-38.26 12.93,-57.52zm-1009.64 -10.13c5.34,-0.34 10.73,-0.64 16.11,-0.91 2.66,15.81 5.58,31.63 8.38,47.44 17.71,-1.93 35.23,-5.76 53.06,-6.22 -0.04,3.91 -0.08,7.85 -0.12,11.79 -22.75,1.52 -45.24,6.07 -68.1,5.73 -2.32,-19.41 -7.66,-38.34 -9.33,-57.83zm903.96 -4.32c5.38,0.19 10.8,0.42 16.23,0.64 -1.67,16.46 -5.66,32.58 -6.64,49.11 16.95,1.44 33.71,4.7 50.78,5.24 -0.08,3.67 -0.12,7.39 -0.16,11.14 -23.24,-1.13 -46.18,-5.65 -69.43,-7.13 1.63,-19.9 6.67,-39.24 9.22,-59zm-129.16 -7.47c1.21,-0.8 3.64,-2.43 4.89,-3.26 24.99,0.11 50.47,1.89 74.85,7.62 0.35,3.98 0.69,7.96 1.03,11.98 -5.05,0.69 -10.09,1.37 -15.13,2.05 -0.53,-1.71 -1.63,-5.08 -2.16,-6.79 -15.97,-3.45 -32.46,-3.18 -48.66,-4.62 -1.74,12.66 -4.09,25.37 -4.05,38.22 16.72,0 33.4,1.56 50.09,2.47 0.08,-4.18 0.19,-8.31 0.27,-12.44 -7.93,-0.38 -15.86,-0.72 -23.74,-1.59 -0.34,-2.55 -1.03,-7.55 -1.37,-10.09 14.64,0.72 29.31,1.86 43.91,3.14 -2.73,11.04 1.67,31.33 -13.68,33.45 -23.25,-1.52 -46.76,-2.54 -69.67,-7.01 -1.82,-4.44 -4.13,-8.99 -2.8,-13.88 2.27,-13.09 1.97,-26.62 6.22,-39.25zm-669.38 0.23c22.86,-1.6 46.41,-7.89 69.05,-2.28 19.3,4.66 27.23,31.59 12.9,45.39 -21.09,16.84 -50.36,11.98 -75.47,14.98 -0.83,-19.53 -5.65,-38.56 -6.48,-58.09zm16.57 8.49l0 0c2.27,12.21 4.17,24.54 5.2,36.97 15.5,-1.1 33.55,0.8 46.56,-9.29 5.27,-8.42 2.47,-19.98 -3.07,-27.76 -15.85,-6.06 -32.42,-0.26 -48.69,0.08zm521.49 37.85c13.54,-20.22 29.08,-38.99 44.14,-58.06 6.9,1.1 15.89,0.3 18.81,8.34 10.12,18.36 22.07,35.76 30.83,54.8 -5.73,-0.12 -11.42,-0.46 -17.07,-1.1 -3.53,-3.83 -5.76,-8.61 -8.46,-12.97 -14.06,0.04 -28.02,-2.43 -42.05,-2.39 -4.44,3.07 -7.17,7.92 -11.04,11.6 -5.08,0.15 -10.12,0.08 -15.16,-0.22zm33.48 -21.85l0 0c9.37,0.69 18.7,1.1 28.1,1.41 -3.49,-8.04 -7.39,-15.89 -11.41,-23.67 -6.72,6.49 -12.29,14.03 -16.69,22.26zm-133.03 -39.4c23.86,-2.39 47.82,0.61 71.71,0.23 0.34,2.69 1.03,8.12 1.33,10.85 -18.77,0.3 -37.5,-0.95 -56.28,-0.95 0.2,4.09 0.39,8.23 0.61,12.36 10.43,0.19 20.86,0.46 31.32,0.49 0.12,2.77 0.35,8.27 0.46,11.04 -11.3,-0.46 -22.64,-0.84 -33.94,-0.27 -0.11,4.25 -0.19,8.5 -0.3,12.78 18.77,2.85 37.77,1.82 56.65,2.73 -0.11,3.68 -0.19,7.36 -0.26,11.08 -24.16,0 -48.32,-1.07 -72.47,-0.8 -0.84,-19.87 1.9,-39.7 1.17,-59.54zm-195.06 -1.51c15.43,-2.35 25.67,10.39 37.5,17.74 11,7.06 21.81,14.45 32.24,22.3 -1.94,-13.73 -1.79,-27.61 -1.41,-41.45 5.69,0.04 17.86,-1.48 15.47,8.35 0.08,17.29 0.19,34.62 0.76,51.95 -3.3,-0.27 -9.97,-0.84 -13.31,-1.1 -18.24,-13.39 -37.27,-25.75 -55.78,-38.8 0.08,13.39 0.38,26.81 0.8,40.2 -5.08,0 -10.16,0.04 -15.21,0.04 0.12,-19.76 -0.45,-39.48 -1.06,-59.23zm-116.23 5.27c24.16,-1.67 48.28,-3.26 72.47,-4.14 -0.08,3.68 -0.19,7.4 -0.27,11.11 -17.97,0.73 -35.91,1.75 -53.88,2.09 0.11,3.26 0.38,9.78 0.49,13.08 10.73,-0.38 21.46,-0.64 32.2,-0.75 0.49,3.14 0.94,6.29 1.44,9.44 -10.92,0.83 -21.85,1.7 -32.73,2.42 0.08,3.34 0.23,10.05 0.3,13.39 18.7,0.19 37.32,-2.08 56.01,-1.67 3.15,3.87 3.68,11.87 -3.03,11.34 -23.17,-0.11 -46.3,2.16 -69.51,1.86 -0.04,-19.46 -0.38,-38.95 -3.49,-58.17zm240.19 -1241.99c-78.76,19.84 -152.44,57.76 -216,108.12 0.39,0.83 1.1,2.54 1.48,3.37 18.89,8 40.77,7.81 58.71,17.67 -21.7,8.38 -40.2,22.64 -59.58,35.16 -62,44.86 -115.24,104.73 -143.87,176.33 20.74,-2.32 41.33,-5.43 62,-8.12 -0.83,0.84 -2.5,2.58 -3.34,3.45 -40.65,63.82 -72.69,133.63 -91.12,207.16 19.42,-7.01 38.19,-15.54 57.26,-23.39 -2.69,47.13 -11.57,93.66 -20.7,139.93 -2.62,16.3 -6.83,32.3 -11.57,48.12 18.43,3.64 37.31,2.99 55.93,4.43 119.99,7.7 240.31,8.16 360.48,5.58 -16.31,-52.71 -9.44,-109.4 1.37,-162.49 -37.24,16.11 -64.59,47.62 -85.63,81.41 -3.98,-27.79 -4.67,-56.8 3.68,-83.92 10.65,-36.02 31.13,-68.41 56.92,-95.48 -29.28,-2.39 -58.21,3.07 -87.3,4.85 17.67,-53.62 71.71,-87.75 125.25,-97.19 -3.11,-16.64 -9.36,-33.1 -7.69,-50.28 1.59,-13.77 4.7,-27.53 11.18,-39.86 -15.09,-5.23 -31.81,-9.59 -42.13,-22.82 -27.19,-34.21 -21.53,-87.94 8.31,-118.73 -26.62,-28.6 -54.42,-56.2 -79.67,-86.01 71.48,26.74 143.94,51.08 217.25,72.54 18.12,3.91 39.36,14.19 56.38,1.6 16.27,-9.64 16.04,-30.08 20.33,-46.3 6.07,6.59 11.64,13.65 18.09,19.86 19.41,15.7 50.24,13.5 67.72,-4.09 -1.02,-28.63 -26.12,-50.47 -49.67,-64.05 -47.33,-26.16 -102.16,-33.41 -155.33,-37.43 -43.19,-4.17 -86.46,2.2 -128.74,10.58zm73.99 214.45c16.23,15.01 44.06,14.1 59.65,-1.44 6.82,-6 10.42,-14.53 14.33,-22.53 -7.32,-3.26 -14.49,-7.55 -22.6,-8.12 -10.2,6.3 -17.06,17.22 -27.99,22.3 -5.72,-13.19 -7.66,-27.91 -14.44,-40.57 -5.81,-3.79 -12.48,-5.84 -18.81,-8.53 -10.58,18.65 -7.25,45.16 9.86,58.89zm140.99 -29.89c-30.23,20.86 -58.78,45.59 -78.08,77.21 -19.53,29.28 -26.4,66.17 -19.84,100.64 0.88,0.72 2.62,2.13 3.49,2.85 106.83,0.64 213.54,5.08 320.4,3.83 -14.41,-9.37 -29.85,-17.37 -46.68,-21.24 -66.4,-19.26 -136.03,-21.23 -204.66,-23.13 -20.59,-1.93 -37.85,11.76 -56.09,19.04 11.23,-18.24 23.67,-35.72 36.48,-52.86 16.31,4.13 33.3,2.61 49.91,3.94 56.84,4.59 113.91,5.69 170.6,11.91 26.09,3.03 51.19,11.41 75.62,20.81 41.06,16.58 77.47,47.67 94.61,89.23 21.5,-31.74 35.04,-71.44 26.58,-109.85 -6.44,-34.97 -29.65,-64.55 -57.18,-85.93 -21.96,-17.29 -48.88,-26.17 -74.94,-35.12 -61.54,-17.18 -125.59,-25.06 -189.45,-24.49 -18.62,2.99 -34.58,14.22 -50.77,23.16zm-104.48 426.77c-23.32,30.6 -32.19,68.75 -44.06,104.62 30.64,0.99 61.24,-1.75 91.88,-1.97 -9.14,-40.12 -17.52,-80.51 -20.59,-121.62 -11.07,2.93 -20.51,9.71 -27.23,18.97zm-877.52 100.68c-0.69,16.49 -0.49,33.03 -0.38,49.52 14.79,-8.38 31.47,-7.66 47.66,-4.82 -0.68,40.88 0.69,81.76 -1.06,122.6 24.01,2.24 48.16,2.05 72.24,3.26 -14.14,-38.22 -7.24,-79.82 -9.14,-119.6 16.84,-0.91 32.92,3.6 46.68,13.39 -0.53,-14.41 -0.94,-28.79 -1.02,-43.16 -51.69,-6.94 -103.6,-12.13 -154.98,-21.19zm1343.87 21.69c1.83,3.07 3.65,6.14 5.54,9.25 1.82,46.22 1.44,92.53 0.38,138.79 47.78,1.29 95.64,0.72 143.42,0.26 -0.27,-17.86 -0.5,-35.72 0.3,-53.58 -22.53,18.55 -52.78,16.2 -80.01,15.74 0.26,-10.2 0.23,-20.36 0.11,-30.53 22.83,-0.91 45.55,-3.1 68.37,-3.83 -0.34,-10.05 -0.34,-20.06 -0.11,-30.07 -22.75,2.28 -45.58,2.92 -68.33,4.44 -0.08,-7.7 -0.12,-15.36 -0.19,-23.06 26.39,-2.8 55.32,-11.33 79.82,3.34 -0.19,-16.34 -0.15,-32.69 -0.19,-49.03 -49.52,7.39 -99.54,11.53 -149.11,18.28zm-162.75 12.17c2.8,5.54 5.76,11.26 5.72,17.63 1.03,39.36 0.84,78.76 -0.03,118.13 47.28,1.85 94.68,0.11 142.01,0.94 0.95,-15.62 0.57,-31.24 0.38,-46.83 -23.47,15.06 -52.37,11.19 -78.8,12.1 -0.72,-8.91 -0.83,-17.86 -0.53,-26.81 22.79,-0.08 45.54,-1.97 68.29,-2.96 -0.15,-9.02 -0.19,-18.01 -0.22,-27 -22.72,0.72 -45.36,3.19 -68.07,3.94 0.04,-7.58 0.23,-15.09 0.53,-22.63 26.36,-0.69 54.64,-9.18 78.8,5.76 -0.46,-14.52 -0.34,-29.01 0.19,-43.49 -49.3,5.42 -98.82,7.73 -148.27,11.22zm-1011.69 -8.5c3.45,6.79 6.44,14.04 6.67,21.81 2.2,41.03 1.33,82.17 3.41,123.2 47.48,-0.34 95.04,0.8 142.51,-0.56 -0.57,-14 -1.17,-27.95 -1.1,-41.94 -23.93,14.94 -53.24,7.12 -79.82,8.11 -0.11,-8.84 -0.19,-17.63 -0.11,-26.47 22.14,0.38 44.21,2.66 66.39,2.92 1.64,-8.53 1.45,-17.18 -0.3,-25.67 -22.6,-1.37 -45.47,0.26 -67.84,-3.68 0,-6.6 -0.11,-13.23 -0.26,-19.83 26.8,-0.84 55.36,-0.65 79.33,13.16 -0.08,-13.09 -0.31,-26.13 -0.46,-39.21 -49.45,-4.44 -99.05,-6.75 -148.42,-11.84zm869.14 20.56c-11.3,1.97 -19.03,12.51 -19.11,23.74 -1.36,16.19 -0.95,37.54 15.59,46.15 20.17,8.07 42.32,0.91 63.1,5.15 7.92,5.2 4.51,18.28 -4.89,18.96 -24.12,2.05 -49.64,0.88 -70.84,-12.13 0.08,14.14 0.46,28.25 0.68,42.4 38.07,0.22 76.19,0.6 114.26,-0.16 15.62,0.16 31.85,-12.09 30.9,-28.82 -0.26,-16.15 4.67,-37.84 -11.6,-48.04 -23.17,-10.35 -50.66,4.13 -73.38,-7.74 1.29,-5.99 1.75,-14.94 9.56,-15.81 22.26,-3.72 46.98,-4.02 67.23,7.47 0,-13.69 0.08,-27.38 -0.07,-41.07 -40.54,1.06 -81.8,0.27 -121.43,9.9zm-703.54 -8.23c2.24,5.19 5.72,10.16 5.95,16 3.11,38.76 3.11,77.66 3.38,116.5 15.62,0.34 31.24,0.3 46.83,0 -9.52,-17.75 -8.23,-38.34 -7.21,-57.76 17.9,19.64 37.58,37.62 55.07,57.6 17.25,0.65 34.5,0.19 51.76,0.53 1.36,-42.13 -2.35,-84.26 -1.18,-126.39 -13.54,-0.19 -27.11,-0.45 -40.65,-0.83 0.23,16.34 0.61,32.65 0.87,48.99 -18.96,-14.67 -32.65,-35.04 -49.94,-51.61 -21.69,0.15 -43.23,-2.5 -64.88,-3.03zm289.79 7.58c-1.44,16.61 -0.23,33.26 -0.8,49.91 -18.16,-14.79 -31.62,-34.32 -49.11,-49.83 -21.68,-0.23 -43.37,-0.04 -65.07,-1.02 3,5.31 6.3,10.77 6,17.14 3.03,36.25 1.28,72.61 2.12,108.94 15.85,0 31.7,0 47.55,0.04 -12.4,-15.96 -7.17,-37.05 -7.58,-55.63 18.73,18.24 37.24,36.67 55.4,55.44 17.41,0.11 34.85,0.53 52.22,-0.38 -1.18,-41.29 0.34,-82.7 -0.23,-124.08 -13.5,1.37 -27.08,1.75 -40.5,-0.53zm244.59 5.27c-11.87,2.55 -17.29,15.55 -17.03,26.59 -0.98,15.35 1.75,34.09 17.52,41.1 19.19,7.28 40.46,0.27 60.22,4.1 6.75,4.06 8.31,16.46 -1.06,17.97 -24.8,5.24 -50.97,0.38 -73.61,-10.69 0.08,13.54 0.46,27.08 0.84,40.61 34.85,0.38 69.7,0.08 104.55,0.23 12.55,-0.26 27.6,-1.18 35.6,-12.32 7.47,-11.68 7.97,-26.55 5.88,-39.86 -1.32,-13.12 -12.89,-25.18 -26.35,-25.22 -19.76,-1.93 -40.54,4.1 -59.46,-4.02 0.45,-7.81 5,-15.32 13.19,-16.61 21.58,-2.46 43.76,-0.3 63.63,8.88 -0.11,-12.55 -0.07,-25.11 0.19,-37.62 -41.37,0.72 -83.38,-1.93 -124.11,6.86zm-183.73 -5.23c5.58,12.29 4.55,25.98 4.63,39.14 -0.04,28.55 0.26,57.1 -0.87,85.62 47.51,0.91 95.03,-0.19 142.54,0.53 0.84,-13.16 0.65,-26.35 1.14,-39.55 -24.12,14.75 -53.01,6.45 -79.52,9.18 -0.04,-8.12 -0.08,-16.23 -0.08,-24.35 22.49,-0.04 45.01,0 67.54,-0.04 0.46,-7.62 0.57,-15.28 0.46,-22.94 -22.61,0.04 -45.24,0.15 -67.85,0.15 -0.11,-6.1 -0.26,-12.24 -0.41,-18.35 26.43,0.61 55.4,-6.29 79.29,8.42 0.15,-12.02 0.11,-24.04 -0.15,-36.06 -41.94,0.41 -83.85,0.41 -125.78,0.41 -7.06,0 -14.04,-1.06 -20.94,-2.16zm130.83 171.93c-19.61,5.92 -38.34,16.35 -51.8,32.01 -16.53,17.94 -21.73,42.85 -25.75,66.13 -2.39,27.23 -4.47,56.39 7.85,81.72 10.35,22.95 32.8,38.19 56.16,45.7 54.65,16.72 112.28,16.15 168.79,19.41 54.19,0.99 108.38,3.8 162.6,2.7 -1.29,-26.85 2.35,-53.66 0.38,-80.47 -54.68,19.3 -113.84,16.91 -170.68,11.45 -20.25,-2.88 -47.67,-7.17 -53.13,-30.87 -4.28,-27.15 -2.65,-60.14 20.33,-78.95 16.95,-12.78 39.28,-13.95 59.65,-16.15 50.47,-1.9 106.18,-3.68 148.91,27.83 0.15,-30.07 0.8,-60.14 1.06,-90.25 -62.64,-2.73 -125.4,-3.53 -188.12,-3.6 -45.66,0 -91.85,1.82 -136.25,13.34zm-895.99 -6.75c-0.91,48.92 0.41,97.88 -0.72,146.83 8.07,-5.08 11.64,-14.63 18.23,-21.23 12.6,-15.85 29.28,-29.01 49,-34.51 16.19,-5.04 33.37,-3.83 50.06,-5.38 0.15,75.91 -0.2,151.79 0.18,227.71 29.28,-7.89 59.12,-13.31 88.85,-19.07 35.35,-4.55 69.89,-13.88 105.23,-18.05 0.08,-1.37 0.15,-4.06 0.23,-5.43 -14.14,-8.42 -30.22,-19.79 -31.7,-37.65 -2.05,-48.96 0.34,-97.95 -0.46,-146.91 24.92,-1.06 50.02,-1.82 74.86,0.68 15.55,1.37 29.69,8.95 42.17,17.87 -0.12,-34.93 0.19,-69.82 -0.19,-104.7 -131.89,-0.27 -263.82,0.07 -395.74,-0.16zm413.03 0.35c5.69,5.91 12.32,11.14 16.68,18.24 4.18,19.71 4.4,40.12 3.11,60.18 1.45,62.64 1.26,125.48 -0.49,188.05 119.72,-14.76 240.27,-21.43 360.78,-24.27 -0.57,-28.48 1.14,-56.96 0,-85.44 -20.78,11.95 -43.68,20.4 -67.84,21.2 -44.59,3.49 -89.34,4.17 -134.05,5.46 -0.42,-10.85 -0.61,-21.65 -0.83,-32.46 51.87,-2.92 103.86,-4.1 155.77,-5.54 0.04,-17.06 -0.22,-34.13 0.35,-51.15 -51.73,-0.15 -103.45,2.04 -155.1,4.4 -0.08,-12.21 -0.08,-24.39 -0.11,-36.56 28.17,-1.18 56.38,-0.68 84.6,-0.45 22.98,1.28 46.15,-1.45 68.86,3.1 17.1,2.2 32.73,9.75 48.31,16.65 0.04,-27.19 -0.53,-54.38 -0.57,-81.57 -126.5,-0.34 -252.97,0.57 -379.47,0.16zm830.62 0.03c7.7,8.46 18.92,16.2 18.09,29.16 0.68,76.34 -1.37,152.67 -0.57,229.05 54.87,5.31 109.4,13.53 163.97,21.04 -0.34,-34.66 0.04,-69.36 -0.8,-104.01 31.51,3.64 62.91,7.85 94.31,12.47 -0.34,36.71 -0.49,73.46 0,110.16 52.22,12.52 105,22.83 156.08,39.74l2.51 -1.21c-0.16,-34.05 -1.98,-68.3 0.26,-102.42 0.19,-78.08 0.27,-156.16 -0.04,-234.2 -60.82,-0.12 -121.65,-0.23 -182.43,0.03 10.01,9.9 20.44,21.66 21.12,36.52 1.4,23.4 -0.99,46.83 -0.34,70.27 -30.61,-3.53 -61.44,-4.63 -92.11,-7.7 -0.08,-32.84 0.75,-65.72 -0.95,-98.48 -59.69,0.8 -119.38,-1.06 -179.1,-0.42zm-1011.43 340c-78.83,15.97 -158.09,31.29 -234.69,56.28 28.86,26.12 57.79,52.18 85.97,79.1 83.88,-25.37 170.22,-41.22 256.61,-55.33 83.88,-11.26 167.99,-22.14 252.66,-25.18 93.25,-6.9 186.8,-8 280.28,-7.69 81,-0.35 161.88,3.98 242.69,8.87 159.99,10.84 319.03,36.1 474.16,76.86 27.8,-28.32 56.89,-55.47 83.69,-84.71 -180.57,-50.36 -367.14,-75.92 -553.79,-90.02 -63.14,-5.28 -126.54,-5.81 -189.83,-8.12 -93.52,-2.65 -187.03,0.64 -280.5,3.38 -139.82,7.28 -279.29,22.33 -417.25,46.56z"/>
   <path class="fil2" d="M1555.67 1188.51c50.17,5.31 100.27,11.68 150.02,20.4 -5.92,5 -12.17,9.67 -18.66,13.95 -37.5,-6.97 -75.54,-10.39 -113.27,-15.92 0.46,34.58 -0.79,69.2 1.06,103.79 -46.68,-5.92 -93.01,-15.02 -140.04,-17.71 -0.22,-7.66 10.01,-11.64 14.34,-17.41 35.57,5.01 70.98,11.68 106.63,16.27 0.11,-34.47 0.04,-68.94 -0.08,-103.37zm-414.77 -854.62c6.82,-6 10.42,-14.53 14.33,-22.53 -7.32,-3.26 -14.49,-7.55 -22.6,-8.12 -10.2,6.3 -17.06,17.22 -27.99,22.3 -5.72,-13.19 -7.66,-27.91 -14.44,-40.57 -5.81,-3.79 -12.48,-5.84 -18.81,-8.53 -10.58,18.65 -7.25,45.16 9.86,58.89 16.23,15.01 44.06,14.1 59.65,-1.44zm256.87 93.74c26.09,3.03 51.19,11.41 75.62,20.81 41.06,16.58 77.47,47.67 94.61,89.23 21.5,-31.74 35.04,-71.44 26.58,-109.85 -6.44,-34.97 -29.65,-64.55 -57.18,-85.93 -21.96,-17.29 -48.88,-26.17 -74.94,-35.12 -61.54,-17.18 -125.59,-25.06 -189.45,-24.49 -18.62,2.99 -34.58,14.22 -50.77,23.16 -30.23,20.86 -58.78,45.59 -78.08,77.21 -19.53,29.28 -26.4,66.17 -19.84,100.64 0.88,0.72 2.62,2.13 3.49,2.85 106.83,0.64 213.54,5.08 320.4,3.83 -14.41,-9.37 -29.85,-17.37 -46.68,-21.24 -66.4,-19.26 -136.03,-21.23 -204.66,-23.13 -20.59,-1.93 -37.85,11.76 -56.09,19.04 11.23,-18.24 23.67,-35.72 36.48,-52.86 16.31,4.13 33.3,2.61 49.91,3.94 56.84,4.59 113.91,5.69 170.6,11.91zm-43.91 -114.64c-3,11.11 -4.82,22.49 -6.83,33.83 -31.17,-3.38 -62.11,-8.61 -93.2,-12.59 16.34,-10.01 34.81,-16.35 53.42,-20.71 15.29,-2.5 31.59,-6.33 46.61,-0.53zm-943.36 922.84c-2.27,-44.93 1.52,-89.91 -0.3,-134.88 39.32,-1.75 79.1,-3.34 118.2,2.12 0.19,-11.75 -1.67,-23.7 0.26,-35.38 4.67,-5.95 11.49,-9.71 17.41,-14.26 0.23,24.92 0.11,49.87 0.08,74.82 -19.72,-7.66 -40.88,-11.45 -62.01,-10.69 -18.39,0.57 -36.97,-1.37 -55.17,1.97 1.82,54 -2.47,108.04 1.02,162.04 0.72,12.36 10.7,20.43 18.36,28.89 2.2,4.97 -5.2,4.29 -8.12,5.39 -50.74,4.55 -99.99,18.61 -150.43,25.33 6.56,-8.08 13.54,-15.78 20.29,-23.7 35.11,-5.88 69.74,-14.45 105,-19.57 -4.4,-20.4 -4.93,-41.26 -4.59,-62.08zm29.62 40.77c-2.05,-48.96 0.34,-97.95 -0.46,-146.91 24.92,-1.06 50.02,-1.82 74.86,0.68 15.55,1.37 29.69,8.95 42.17,17.87 -0.12,-34.93 0.19,-69.82 -0.19,-104.7 -131.89,-0.27 -263.82,0.07 -395.74,-0.16 -0.91,48.92 0.41,97.88 -0.72,146.83 8.07,-5.08 11.64,-14.63 18.23,-21.23 12.6,-15.85 29.28,-29.01 49,-34.51 16.19,-5.04 33.37,-3.83 50.06,-5.38 0.15,75.91 -0.2,151.79 0.18,227.71 29.28,-7.89 59.12,-13.31 88.85,-19.07 35.35,-4.55 69.89,-13.88 105.23,-18.05 0.08,-1.37 0.15,-4.06 0.23,-5.43 -14.14,-8.42 -30.22,-19.79 -31.7,-37.65zm-156.46 -159.16c-25.68,0.53 -52.6,0.38 -76.11,12.25 -14.64,6.33 -24.42,19.42 -36.52,29.28 6.6,-13.88 11.04,-28.97 19.42,-41.9 13.35,-10.55 29.99,-16.84 47.09,-16.73 22.61,-0.23 45.25,-0.64 67.81,0.38 -7.21,5.84 -10.39,18.51 -21.69,16.72zm439.42 130.07c-1.51,-27.34 -1.13,-54.87 -0.18,-82.25 25.36,1.06 50.58,-2.5 75.91,-2.88 26.66,-1.86 53.47,-0.91 80.05,-3.91 4.97,-4.55 10.55,-8.41 17.07,-10.35 0.03,9.94 -0.08,19.87 -0.19,29.81 -51.84,2.58 -103.75,3.03 -155.52,7.01 0.23,15.36 0.19,30.68 0.19,46.04 -5.87,5.42 -11.56,11.03 -17.33,16.53zm183.84 -58.36c0.04,-17.06 -0.22,-34.13 0.35,-51.15 -51.73,-0.15 -103.45,2.04 -155.1,4.4 -0.08,-12.21 -0.08,-24.39 -0.11,-36.56 28.17,-1.18 56.38,-0.68 84.6,-0.45 22.98,1.28 46.15,-1.45 68.86,3.1 17.1,2.2 32.73,9.75 48.31,16.65 0.04,-27.19 -0.53,-54.38 -0.57,-81.57 -126.5,-0.34 -252.97,0.57 -379.47,0.16 5.69,5.91 12.32,11.14 16.68,18.24 4.18,19.71 4.4,40.12 3.11,60.18 1.45,62.64 1.26,125.48 -0.49,188.05 119.72,-14.76 240.27,-21.43 360.78,-24.27 -0.57,-28.48 1.14,-56.96 0,-85.44 -20.78,11.95 -43.68,20.4 -67.84,21.2 -44.59,3.49 -89.34,4.17 -134.05,5.46 -0.42,-10.85 -0.61,-21.65 -0.83,-32.46 51.87,-2.92 103.86,-4.1 155.77,-5.54zm-279.93 87.22c99.2,-10.31 198.75,-18.39 298.52,-19.98 0.19,-6.15 -1.86,-12.67 0.22,-18.59 5.96,-6.86 12.67,-13 18.58,-19.87 -0.94,19.12 -1.17,38.3 0.12,57.42 -113.04,1.82 -225.97,9.63 -338.29,22.6 6.25,-7.85 13.34,-14.98 20.85,-21.58zm251.04 -182.13c-45.62,-0.31 -91.24,-0.12 -136.82,-0.04 0,16.04 -0.3,32.12 0.34,48.2 -5.42,4.21 -11.26,7.85 -17.71,10.31 -0.15,-22.98 -0.07,-45.92 -1.55,-68.86 -1.9,-7.13 6.22,-9.94 11.75,-8.69 46.91,0.19 93.82,-0.04 140.69,0.12 17.33,-0.12 34.58,2.84 50.97,8.41 -5.5,-13.87 4.77,-26.12 18.05,-28.97 -0.35,18.17 0.49,36.41 -0.8,54.57 -20.33,-9.56 -42.4,-14.98 -64.92,-15.05zm242.35 73.53c-0.8,-17.83 1.56,-35.99 8,-52.68 7.78,-19 26.55,-31.55 46.08,-35.91 40.88,-9.93 83.57,-8.53 125.02,-3.68 18.09,1.79 34.21,10.73 51.27,16.08 1.18,-9.93 -3.19,-22.45 5.8,-29.69 3.53,-4.17 8.31,-6.9 13.43,-8.65 -1.45,19.12 -0.95,38.27 -0.76,57.38 -48.05,-23.59 -103.26,-22.34 -155.29,-17.52 -23.28,3.6 -49.86,10.81 -62.98,32.27 -13.47,25.75 -16.08,56.92 -7.7,84.68 -15.13,-8.23 -21.88,-25.9 -22.87,-42.28zm30.79 30.14c-4.28,-27.15 -2.65,-60.14 20.33,-78.95 16.95,-12.78 39.28,-13.95 59.65,-16.15 50.47,-1.9 106.18,-3.68 148.91,27.83 0.15,-30.07 0.8,-60.14 1.06,-90.25 -62.64,-2.73 -125.4,-3.53 -188.12,-3.6 -45.66,0 -91.85,1.82 -136.25,13.34 -19.61,5.92 -38.34,16.35 -51.8,32.01 -16.53,17.94 -21.73,42.85 -25.75,66.13 -2.39,27.23 -4.47,56.39 7.85,81.72 10.35,22.95 32.8,38.19 56.16,45.7 54.65,16.72 112.28,16.15 168.79,19.41 54.19,0.99 108.38,3.8 162.6,2.7 -1.29,-26.85 2.35,-53.66 0.38,-80.47 -54.68,19.3 -113.84,16.91 -170.68,11.45 -20.25,-2.88 -47.67,-7.17 -53.13,-30.87zm-49.07 62.15c70.72,5.08 141.64,7.7 212.59,9.26 10.5,0.3 21,-0.04 31.51,-0.8 0.34,-6.52 -1.18,-13.46 1.29,-19.68 4.32,-6.75 11.07,-11.38 17.25,-16.27 0.91,17.94 0.46,35.87 0.46,53.81 -29.43,2.81 -58.97,0.19 -88.43,0 -54.38,-2.54 -108.87,-3.64 -163.1,-8.53 -25.86,-2.58 -52.29,-5.16 -76.22,-16.04 -13.96,-4.97 -26.02,-14.18 -34.36,-26.43 29.92,17.93 65.07,21.31 99.01,24.68zm320.4 -187.14c0.68,76.34 -1.37,152.67 -0.57,229.05 54.87,5.31 109.4,13.53 163.97,21.04 -0.34,-34.66 0.04,-69.36 -0.8,-104.01 31.51,3.64 62.91,7.85 94.31,12.47 -0.34,36.71 -0.49,73.46 0,110.16 52.22,12.52 105,22.83 156.08,39.74l2.51 -1.21c-0.16,-34.05 -1.98,-68.3 0.26,-102.42 0.19,-78.08 0.27,-156.16 -0.04,-234.2 -60.82,-0.12 -121.65,-0.23 -182.43,0.03 10.01,9.9 20.44,21.66 21.12,36.52 1.4,23.4 -0.99,46.83 -0.34,70.27 -30.61,-3.53 -61.44,-4.63 -92.11,-7.7 -0.08,-32.84 0.75,-65.72 -0.95,-98.48 -59.69,0.8 -119.38,-1.06 -179.1,-0.42 7.7,8.46 18.92,16.2 18.09,29.16zm385.73 275.01c0.45,-92.42 -0.72,-184.83 0.57,-277.2 6.4,-5.39 12.4,-11.19 18.5,-16.88 1.4,104.36 0.19,208.76 0.61,313.15 -41.9,-11.72 -84.11,-22.49 -126.85,-30.79 -3.94,-0.68 -7.62,-2.2 -11.3,-3.64 4.82,-3.95 9.71,-7.81 14.68,-11.61 34.54,9.11 69.43,17.07 103.79,26.97zm-235.45 -293.09c0.72,27.57 0.22,55.13 0.41,82.7 0.8,10.54 -10.96,14.68 -18.27,19.42 0,-28.9 0.19,-57.79 -0.04,-86.69 5.61,-5.5 11.53,-10.73 17.9,-15.43z"/>
  </g>
 </g>
</svg>
