<?xml version="1.0" encoding="UTF-8"?>
<!DOCTYPE svg PUBLIC "-//W3C//DTD SVG 1.1//EN" "http://www.w3.org/Graphics/SVG/1.1/DTD/svg11.dtd">
<!-- Creator: CorelDRAW -->
<svg xmlns="http://www.w3.org/2000/svg" xml:space="preserve" width="2000px" height="1600px" version="1.1" style="shape-rendering:geometricPrecision; text-rendering:geometricPrecision; image-rendering:optimizeQuality; fill-rule:evenodd; clip-rule:evenodd"
viewBox="0 0 2000 1600"
 xmlns:xlink="http://www.w3.org/1999/xlink">
 <defs>
  <style type="text/css">
   <![CDATA[
    .fil1 {fill:#002C56;fill-rule:nonzero}
    .fil3 {fill:#0068AE;fill-rule:nonzero}
    .fil0 {fill:#008546;fill-rule:nonzero}
    .fil2 {fill:#FEFEFE;fill-rule:nonzero}
   ]]>
  </style>
 </defs>
 <g id="Capa_x0020_1">
  <metadata id="CorelCorpID_0Corel-Layer"/>
  <g id="Texas_x0020_A_x0026_M_x0020_CC_x0020_Islanders.cdr">
   <path class="fil0" d="M952.1 0l86.88 0c51.64,1.5 103.34,3.18 154.78,8.07 33.59,3.54 62.78,28.57 73.59,60.24 -0.08,-17.91 -0.06,-35.81 0,-53.71 84.33,12.55 168.39,27.21 251.65,45.63 27.72,6.15 55.35,12.89 82.68,20.65 40.2,11.02 70.69,48.65 75.3,89.79 4.47,-17.76 18.42,-32.53 35.72,-38.3 20.01,-6.82 42.04,-3.66 61.43,3.72 26.2,10.11 52.49,19.98 78.62,30.21 -0.13,35.8 0,71.59 -0.07,107.37 -17.65,-6.67 -35.11,-13.82 -52.85,-20.28 21.6,16.68 43.9,34.8 55.01,60.48 4.03,8.95 6.27,18.62 7.44,28.34l0 18.82c-1.5,16.07 -6.19,32.82 -17.73,44.68 -10.15,10.83 -25.14,16.02 -39.74,16.35 -18.36,0.82 -36.19,-4.55 -53.23,-10.79 -89.48,-30.2 -179.77,-58.7 -272.06,-79.06 -0.09,-62.55 0.19,-125.11 -0.15,-187.67 -7.95,-1.63 -15.85,-3.49 -23.78,-5.23 -0.02,27.53 -0.04,55.05 0.02,82.58 4.6,0.88 9.22,1.75 13.85,2.61 0,34.93 0.02,69.86 -0.02,104.79 -62.75,-10.48 -125.49,-21.11 -188.24,-31.73 -0.02,-62.41 0,-124.84 0,-187.25 -3.2,-0.42 -6.4,-0.84 -9.56,-1.26 -0.02,31.33 -0.04,62.64 0.02,93.97 0.21,11.67 -1.02,23.49 -5.16,34.47 -7.99,22.63 -26.67,41.79 -50.11,48.14 -17.47,5.09 -35.81,2.03 -53.63,1.26 -31.75,-1.92 -63.48,-4.04 -95.23,-5.83 0.02,-62.54 0.04,-125.06 -0.02,-187.61 -3.2,-0.02 -6.36,-0.04 -9.54,-0.04 0,62.43 0,124.86 0,187.29 -28.19,0.1 -56.38,-0.1 -84.56,0.11 -12.84,-24.25 -24.95,-48.86 -37.6,-73.19 0,24.49 0.02,48.99 -0.02,73.5 -61.16,2.3 -122.23,6.9 -183.15,12.88 -3.87,-16.31 -7.91,-32.56 -11.8,-48.83 -6.52,0.81 -13.03,1.61 -19.55,2.32 -0.21,16.73 -0.02,33.48 -0.11,50.21 -92.95,12.55 -184.99,31.17 -276.37,52.17 -0.06,-62.33 0,-124.66 -0.02,-187 -3.2,0.81 -6.38,1.61 -9.58,2.42 0,3.79 0,7.59 0,11.4 -18.63,5.35 -37.25,10.67 -55.93,15.85 17.65,3.89 35.98,11.42 46.41,26.98 11.28,16.49 10.5,37.61 8.18,56.58 -3.39,28.13 -16.37,55.38 -37.73,74.27 -16.4,14.78 -36.69,24.74 -57.93,30.49 -67.96,20.94 -134.63,45.99 -200.49,72.81l0 -97.2 0.02 1.68c4.47,-1.8 8.93,-3.6 13.4,-5.38 0,-30.66 0.02,-61.3 -0.02,-91.96 -4.48,1.76 -8.99,3.49 -13.4,5.44l0 -95.96c36.14,-14.35 72.51,-28.15 108.77,-42.19 -0.04,18.39 0,36.79 -0.02,55.18 4,-13.22 9.75,-26.02 18.12,-37.08 17.44,-23.72 44.11,-39.1 71.98,-47.35 67.16,-20 134.93,-38.16 203.55,-52.48 0.02,58.89 -0.04,117.75 0.02,176.63 26.19,-5.02 52.37,-10.19 78.56,-15.23 0,10.87 -0.28,21.77 0.5,32.63 2.51,-11.24 5.88,-22.26 8.97,-33.36 17.32,-61.62 34.7,-123.23 51.98,-184.85 30.15,-3.57 60.25,-7.34 90.35,-10.98 3.37,-1.51 3.41,3.1 4.43,4.98 22.9,78.14 45.77,156.3 68.92,234.41 -0.04,-81.9 -0.02,-163.8 -0.02,-245.68 28.27,-1.24 56.51,-2.93 84.79,-4.04 7.63,15.54 15.49,30.97 23.44,46.35 0.08,-15.75 0.02,-31.48 0.04,-47.23zm-199.25 1087.06c11.79,15.35 25.85,28.82 41.18,40.57 -0.02,27.17 -0.04,54.32 0,81.49 -0.09,5.16 0.48,10.39 -0.52,15.5 -27.51,4.33 -55.05,8.63 -82.37,14.03 0,103.28 0,206.58 0,309.86 189.91,-39.26 387.81,-39.28 577.72,0 0,-103.28 0,-206.58 0,-309.86 -27.51,-5.33 -55.16,-9.93 -82.89,-13.95 0.02,-32.38 0.04,-64.75 0,-97.11 15.33,-11.73 29.41,-25.18 41.18,-40.53 0.11,34.13 -0.04,68.28 0.07,102.4 27.75,4.52 55.38,9.81 82.84,15.87 0,131.56 0,263.11 0.02,394.67l-0.67 0c-215.4,-53.33 -443.77,-53.11 -659.2,0l-0.29 0c0.04,-131.56 0,-263.11 0.02,-394.67 27.44,-6.08 55.07,-11.36 82.84,-15.85 0.11,-34.14 -0.04,-68.27 0.07,-102.42zm50.84 -195.01c37.36,-34.64 88.89,-49.76 138.9,-52.42 35.8,-1.46 73.26,0.27 106.1,16.04 17.73,8.48 33.98,22.45 40.49,41.5 -32.98,11.23 -56.74,46.04 -52.91,81.09 -1.72,3.26 -3.66,6.4 -5.63,9.55 -4.85,-19.72 -6.05,-40.72 -0.1,-60.35 -4.38,2.82 -8.83,5.56 -13.31,8.19 3.24,-10.43 9.83,-19.13 16.71,-27.39 -19.41,8.36 -29.03,30.2 -29.99,50.3 3.66,-2.18 7.3,-4.44 10.92,-6.68 -7.68,23.32 -5.25,48.8 2.61,71.74 1.63,-2.68 3.25,-5.39 4.88,-8.09 0.73,13.05 7.94,23.97 15.72,33.96 -30.55,-11.6 -46.51,-45.67 -46.09,-76.88 -2.68,4.27 -5.36,8.53 -8.1,12.78 -6.96,-20.37 -7.98,-43.08 0.72,-63.08 -5.17,3.49 -10.34,6.96 -15.65,10.25 2.05,-12.84 11,-22.3 19.3,-31.58 -10.95,4.58 -20.18,12.86 -25.91,23.27 -6.21,10.96 -8.85,23.47 -10.52,35.87 3.6,-2.36 7.17,-4.76 10.75,-7.13 -8.01,25.35 -7.38,53.06 1.26,78.14 3.09,-4.26 6.19,-8.49 9.35,-12.7 1.08,8.48 1.59,17.18 4.37,25.35 2.23,6.59 6.02,12.49 9.51,18.47 -18.05,-5.96 -32.6,-20.06 -40.53,-37.16 -7.22,-14.67 -9.98,-31.11 -9.79,-47.36 -3.32,4.88 -6.61,9.77 -9.95,14.64 -9.58,-21.79 -6.03,-46.24 0.75,-68.24 -5.98,5 -11.74,10.23 -17.76,15.18 1.82,-8.95 4.23,-17.98 9.27,-25.72 4.68,-7.57 11.86,-13.03 18.09,-19.22 -15.75,6.4 -27.98,19.59 -35.14,34.8 -6.56,13.62 -9.41,28.74 -10.31,43.77 3.85,-2.71 7.66,-5.45 11.46,-8.21 -6.1,23.82 -6.36,49.5 1.51,72.95 2.4,-4.02 4.75,-8.06 7.15,-12.07 0.56,9.41 0.84,19.03 4.02,28.03 2.71,8.7 7.88,16.31 13.09,23.69 -23.78,-11.46 -44.44,-31.29 -52.68,-56.82 -4.08,-11.47 -4.31,-23.76 -4.19,-35.77 -3.87,5.54 -7.78,11.04 -11.9,16.38 -3.72,-11.38 -5.92,-23.38 -5,-35.37 0.63,-11.44 4.46,-22.32 7.78,-33.19 -6.33,5.14 -12.27,10.69 -18.4,16.04 2.09,-11.36 5.9,-22.48 12.21,-32.21 5.54,-9.01 13.28,-16.27 20.54,-23.84 -34.43,18.15 -52.37,57.87 -53.73,95.52 4.46,-4.31 8.87,-8.66 13.26,-13.03 -5.14,24.28 -4.33,50.28 4.75,73.55 2.95,-4.97 5.9,-9.91 8.87,-14.84 0.56,23.27 12.19,44.19 25.01,62.91 -27.13,-9.42 -49.61,-31.56 -58.85,-58.82 -3.54,-9.83 -4.56,-20.3 -5.92,-30.59 -3.6,4.77 -7.22,9.53 -10.94,14.22 -5.94,-18.87 -8.77,-39.36 -3.7,-58.77 1.5,-5.63 3.45,-11.11 5.22,-16.67 -6,5.92 -11.69,12.15 -17.81,17.96 2.23,-16.04 7.36,-31.74 15.97,-45.51 5.75,-9.72 13.75,-17.9 19.37,-27.71 -35.45,25.77 -54.71,70.63 -54.02,113.92 3.78,-3.38 7.49,-6.83 11.15,-10.33 -5.55,19.12 -5.05,39.47 -0.07,58.65 -14.11,-20.87 -20.54,-46.85 -17.59,-71.89 3.08,-34.07 20.27,-66.13 45.43,-89.07zm-133.77 -457.83c216.57,-47.84 443.59,-47.82 660.16,0 -0.04,131.53 0.02,263.07 -0.02,394.6 -27.46,-6.61 -55.07,-12.67 -82.87,-17.63 -0.04,27.59 0.03,55.17 -0.04,82.74 -11.82,-15.29 -25.85,-28.8 -41.18,-40.56 0.08,-30.16 -0.08,-60.34 0.08,-90.5 27.74,4.02 55.36,8.91 82.79,14.6 0.04,-103.3 0,-206.58 0.02,-309.87 -190.12,-37.69 -387.6,-37.69 -577.72,0 0.04,103.29 -0.04,206.59 0.02,309.87 27.44,-5.73 55.05,-10.58 82.8,-14.6 0.15,30.16 0,60.34 0.07,90.5 -15.31,11.78 -29.37,25.27 -41.18,40.58 -0.09,-27.61 0.02,-55.2 -0.07,-82.8 -27.77,5.06 -55.38,11.04 -82.84,17.67 -0.04,-131.53 0.02,-263.05 -0.02,-394.6zm982.56 -181.76c7.01,19.39 13.64,38.93 20.58,58.34 0,-11.09 -0.02,-22.21 0,-33.3 20.86,7.09 41.73,14.08 62.58,21.23 -13.28,-10.1 -26.48,-20.56 -37.27,-33.36 -11.96,-13.45 -19.66,-30.05 -24.11,-47.35 -4.02,13.17 -11.15,25.53 -21.78,34.44zm-489.57 -154.03c-0.11,31.68 0,63.37 -0.03,95.05 4.15,-0.1 8.85,1.59 12.74,-0.27 1.01,-2.99 0.57,-6.21 0.73,-9.3 -0.27,-26.13 0.27,-52.27 -0.27,-78.39 -0.83,-6.42 -8.09,-6.78 -13.17,-7.09zm-847.08 182.96c-15.52,-1.63 -31.33,-4.45 -45.12,-12.07 -11.06,-5.83 -19.45,-15.77 -24.32,-27.17 0.17,20.77 0.1,41.56 0.04,62.33 23.24,-7.34 46.18,-15.66 69.4,-23.09z"/>
   <path class="fil1" d="M827.07 831.83c46.98,-25.98 100.37,-39.32 153.81,-41.87 66.11,-3.14 133.8,9.77 192.05,41.87 11.5,6.38 22.56,13.58 33.04,21.54 15.33,11.76 29.36,25.27 41.18,40.56 23.28,30.01 37.06,68.16 34.15,106.37 -1.96,31.6 -14.95,61.83 -34.15,86.76 -11.77,15.35 -25.85,28.8 -41.18,40.53 -10.44,8.05 -21.6,15.12 -33.05,21.58 -58.85,32.49 -127.31,45.18 -194.09,41.79 -52.75,-2.86 -105.37,-16.14 -151.74,-41.79 -11.52,-6.39 -22.58,-13.57 -33.06,-21.54 -15.33,-11.75 -29.39,-25.22 -41.18,-40.57 -23.28,-29.89 -36.96,-67.95 -34.2,-106.06 1.92,-31.71 14.93,-62.06 34.2,-87.05 11.81,-15.31 25.87,-28.8 41.18,-40.58 10.45,-7.99 21.54,-15.16 33.04,-21.54zm-23.38 60.22c-25.16,22.94 -42.35,55 -45.43,89.07 -2.95,25.04 3.48,51.02 17.59,71.89 -4.98,-19.18 -5.48,-39.53 0.07,-58.65 -3.66,3.5 -7.37,6.95 -11.15,10.33 -0.69,-43.29 18.57,-88.15 54.02,-113.92 -5.62,9.81 -13.62,17.99 -19.37,27.71 -8.61,13.77 -13.74,29.47 -15.97,45.51 6.12,-5.81 11.81,-12.04 17.81,-17.96 -1.77,5.56 -3.72,11.04 -5.22,16.67 -5.07,19.41 -2.24,39.9 3.7,58.77 3.72,-4.69 7.34,-9.45 10.94,-14.22 1.36,10.29 2.38,20.76 5.92,30.59 9.24,27.26 31.72,49.4 58.85,58.82 -12.82,-18.72 -24.45,-39.64 -25.01,-62.91 -2.97,4.93 -5.92,9.87 -8.87,14.84 -9.08,-23.27 -9.89,-49.27 -4.75,-73.55 -4.39,4.37 -8.8,8.72 -13.26,13.03 1.36,-37.65 19.3,-77.37 53.73,-95.52 -7.26,7.57 -15,14.83 -20.54,23.84 -6.31,9.73 -10.12,20.85 -12.21,32.21 6.13,-5.35 12.07,-10.9 18.4,-16.04 -3.32,10.87 -7.15,21.75 -7.78,33.19 -0.92,11.99 1.28,23.99 5,35.37 4.12,-5.34 8.03,-10.84 11.9,-16.38 -0.12,12.01 0.11,24.3 4.19,35.77 8.24,25.53 28.9,45.36 52.68,56.82 -5.21,-7.38 -10.38,-14.99 -13.09,-23.69 -3.18,-9 -3.46,-18.62 -4.02,-28.03 -2.4,4.01 -4.75,8.05 -7.15,12.07 -7.87,-23.45 -7.61,-49.13 -1.51,-72.95 -3.8,2.76 -7.61,5.5 -11.46,8.21 0.9,-15.03 3.75,-30.15 10.31,-43.77 7.16,-15.21 19.39,-28.4 35.14,-34.8 -6.23,6.19 -13.41,11.65 -18.09,19.22 -5.04,7.74 -7.45,16.77 -9.27,25.72 6.02,-4.95 11.78,-10.18 17.76,-15.18 -6.78,22 -10.33,46.45 -0.75,68.24 3.34,-4.87 6.63,-9.76 9.95,-14.64 -0.19,16.25 2.57,32.69 9.79,47.36 7.93,17.1 22.48,31.2 40.53,37.16 -3.49,-5.98 -7.28,-11.88 -9.51,-18.47 -2.78,-8.17 -3.29,-16.87 -4.37,-25.35 -3.16,4.21 -6.26,8.44 -9.35,12.7 -8.64,-25.08 -9.27,-52.79 -1.26,-78.14 -3.58,2.37 -7.15,4.77 -10.75,7.13 1.67,-12.4 4.31,-24.91 10.52,-35.87 5.73,-10.41 14.96,-18.69 25.91,-23.27 -8.3,9.28 -17.25,18.74 -19.3,31.58 5.31,-3.29 10.48,-6.76 15.65,-10.25 -8.7,20 -7.68,42.71 -0.72,63.08 2.74,-4.25 5.42,-8.51 8.1,-12.78 -0.42,31.21 15.54,65.28 46.09,76.88 -7.78,-9.99 -14.99,-20.91 -15.72,-33.96 -1.63,2.7 -3.25,5.41 -4.88,8.09 -7.86,-22.94 -10.29,-48.42 -2.61,-71.74 -3.62,2.24 -7.26,4.5 -10.92,6.68 0.96,-20.1 10.58,-41.94 29.99,-50.3 -6.88,8.26 -13.47,16.96 -16.71,27.39 4.48,-2.63 8.93,-5.37 13.31,-8.19 -5.95,19.63 -4.75,40.63 0.1,60.35 1.97,-3.15 3.91,-6.29 5.63,-9.55 -3.83,-35.05 19.93,-69.86 52.91,-81.09 -6.51,-19.05 -22.76,-33.02 -40.49,-41.5 -32.84,-15.77 -70.3,-17.5 -106.1,-16.04 -50.01,2.66 -101.54,17.78 -138.9,52.42z"/>
   <path class="fil2" d="M965.99 13.89c26.02,0 52.04,0.02 78.06,0 0.04,84.47 0.02,168.93 0.02,253.4 -20.84,-0.08 -41.69,-0.77 -62.54,-0.48 -19.58,-38.67 -39.24,-77.3 -59.13,-115.8 0,39.05 0,78.11 0,117.16 -21.56,0.82 -43.1,2.2 -64.66,3.06 0.04,-84.48 -0.13,-168.95 0.08,-253.43 20.7,-0.67 41.37,-1.78 62.05,-2.95 20.21,38.82 39.3,78.26 59.44,117.12 0.21,-17.63 0.05,-35.28 0.09,-52.93 -4.48,0 -8.95,0 -13.41,-0.02 0.02,-21.71 0,-43.42 0,-65.13zm101.56 66c0.11,-21.89 -0.2,-43.77 0.15,-65.63 40.6,2.76 81.28,4.67 121.91,7.22 31.88,2.24 60.03,27.69 66.49,58.83 2.2,9.46 1.57,19.22 1.63,28.83 -0.04,34.5 0.03,68.99 -0.04,103.48 -0.58,27.63 -20.7,53.73 -47.75,60.19 -12.61,3.58 -25.7,1.55 -38.52,0.86 -30.01,-1.78 -59.99,-3.78 -90,-5.54 0.08,-62.51 -0.06,-124.99 0.08,-187.5 -4.66,-0.34 -9.32,-0.63 -13.95,-0.74zm-376.45 -45.17c24.16,-2.76 48.26,-6.13 72.45,-8.62 23.79,82.28 48.24,164.39 72.31,246.59 -24.18,2.28 -48.36,4.22 -72.52,6.65 -4.03,-16.4 -8.01,-32.81 -11.98,-49.23 -14.72,1.65 -29.38,3.57 -44.07,5.29 0.02,16.81 0,33.59 0.02,50.4 -26.49,4.04 -52.99,8.01 -79.49,11.88 0.37,-13.68 -0.92,-27.52 0.64,-41.12 20.79,-73.97 41.62,-147.93 62.64,-221.84zm590.08 -3.85c58.29,9.56 116.58,19.22 174.87,28.93 0,21.85 0.02,43.69 -0.02,65.54 -31.14,-5.64 -62.26,-11.35 -93.39,-17.04 -0.02,9.49 0,18.99 -0.02,28.5 26.36,4.67 52.69,9.58 79.06,14.37 -0.02,21.82 0,43.65 -0.02,65.47 -26.35,-4.79 -52.7,-9.6 -79.02,-14.45 -0.02,9.47 0,18.92 0,28.38 8.45,1.42 16.9,2.84 25.37,4.26 0,-3.93 0.03,-7.86 0.07,-11.79 22.67,4.26 45.3,8.64 67.97,12.96 0,25.69 0,51.41 -0.02,77.1 -53.81,-9.02 -107.61,-18.07 -161.42,-27.23 -0.04,-62.56 0.08,-125.1 -0.04,-187.67 -4.46,-0.57 -8.91,-1.17 -13.35,-1.8 -0.06,-21.84 0.04,-43.69 -0.04,-65.53zm-836.39 52.2c27.13,-6.46 54.27,-12.82 81.42,-19.2 0.06,62.64 -0.04,125.26 0.04,187.9 3.5,-0.75 7.01,-1.48 10.54,-2.25 -0.02,-3.92 -0.02,-7.83 -0.04,-11.76 22.69,-4.41 45.35,-8.93 68.08,-13.19 -0.08,25.7 -0.04,51.4 -0.02,77.07 -48.69,10.56 -97.46,20.81 -146.17,31.26 0.1,-62.51 0.02,-125 0.04,-187.48 -4.63,0.99 -9.25,2.12 -13.85,3.25 -0.08,-21.86 -0.02,-43.74 -0.04,-65.6zm1034.25 -18.38c37.77,9.31 75.5,18.76 113.25,28.03 42.5,8.82 74.37,51.86 71.22,95.01 1.36,22.26 -6.24,48.02 -27.47,58.73 8.45,25.96 18.16,51.52 26.82,77.45 1.46,14.18 0.17,28.59 0.63,42.86 -27.19,-7.72 -54.3,-15.65 -81.45,-23.47 -0.02,-16.96 0.04,-33.9 -0.02,-50.85 1.7,0.42 5.13,1.28 6.86,1.7 -2.76,-10.77 -5.33,-21.57 -7.93,-32.36 -6.67,-1.73 -13.32,-3.49 -19.99,-5.23 -0.02,27.05 0,54.09 0,81.15 -22.69,-5.47 -45.36,-10.95 -68.02,-16.48 0.02,-62.57 -0.02,-125.13 0.02,-187.69 -4.64,-1.09 -9.28,-2.09 -13.92,-3.09 0,-21.92 -0.02,-43.84 0,-65.76zm-340.16 8.58c11.27,0.52 22.54,1.31 33.79,2.27 14.64,1.57 26.92,15.09 27.09,29.81 0,28.72 -0.02,57.47 0,86.19 0.29,14.47 -13.01,27.06 -27.4,26.37 -11.15,-0.67 -22.32,-1.44 -33.46,-2.38 0.02,-47.41 0.08,-94.83 -0.02,-142.26zm-799.23 39.09c27.23,-7.78 54.44,-15.71 81.67,-23.51 -0.02,25.83 0.02,51.68 -0.02,77.51 -22.52,6.36 -45.01,12.72 -67.51,19.16 -0.02,-3.89 -0.02,-7.78 -0.02,-11.65 -7.55,2.49 -15.6,3.95 -22.53,8.01 -5.35,3.11 -9.08,10.2 -6.4,16.14 3.83,2.85 8.85,2.89 13.39,3.62 20.95,2.03 43.23,2.11 62.01,12.89 11.8,6.5 19.56,19.15 20.79,32.46 2.17,28.77 -5.1,59.02 -23.55,81.63 -14.06,17.11 -33.42,29.55 -54.46,36.26 -28.97,9.56 -57.96,19.04 -86.93,28.62 -0.06,-25.86 -0.02,-51.71 -0.04,-77.56 22.69,-7.53 45.35,-15.16 68.04,-22.65 -0.02,3.91 -0.02,7.84 -0.02,11.76 7.5,-2.6 15.47,-4.08 22.46,-7.93 6.61,-3.68 7.74,-12.34 7.01,-19.14 -2.16,-5.85 -9.29,-6.77 -14.6,-7.82 -21.11,-3.16 -43.97,-2.28 -62.89,-13.64 -12.16,-6.96 -19.01,-20.74 -19.75,-34.44 -1.67,-26.78 6.68,-54.66 25,-74.63 15.41,-17.21 36.41,-28.53 58.35,-35.09zm381.55 -8.39c3.27,-0.02 6.57,-0.02 9.87,-0.02 6.3,26.77 13.08,53.44 19.31,80.25 -17.09,1.86 -34.13,4.22 -51.22,6.11 7.38,-28.78 14.78,-57.54 22.04,-86.34zm829.72 33.15c11.63,3.01 23.3,5.94 34.91,9.05 12.09,3.23 20.98,15.75 19.72,28.26 -0.33,7.43 0.75,15.02 -0.84,22.34 -2.4,7.95 -11.41,13.13 -19.45,10.94 -11.52,-2.93 -22.96,-6.13 -34.4,-9.33 0.12,-20.43 0,-40.83 0.06,-61.26zm173.07 6.44c19.73,-4.27 39.41,2.74 57.46,10.14 19.26,7.49 38.63,14.67 57.85,22.26 -0.05,25.89 0,51.8 -0.04,77.68 -19.44,-7.43 -38.82,-15.15 -58.3,-22.49 -0.1,-3.97 -0.12,-7.95 -0.12,-11.92 -8.74,-2.72 -17.03,-7.92 -26.46,-7.34 -0.81,15.1 8.64,28.05 19.33,37.67 21.35,19.45 47.5,34.51 63.08,59.57 13.28,20.89 15.52,47.93 7.34,71.11 -4.23,11.92 -13.8,21.94 -26.06,25.57 -18.32,5.53 -37.88,0.93 -55.41,-5.31 -25.22,-8.78 -50.53,-17.34 -75.73,-26.2 0.06,-25.85 -0.02,-51.69 0.04,-77.54 22.47,7.76 45.05,15.21 67.52,23.03 -0.02,3.91 -0.02,7.84 0,11.75 8.53,2.47 16.83,8.08 26.02,6.09 2.65,-13.39 -6.38,-25.08 -15.84,-33.34 -21.37,-18.59 -46.81,-33.32 -62.97,-57.24 -14.58,-20.79 -18.74,-48.32 -11.46,-72.58 4.62,-15.41 17.84,-27.86 33.75,-30.91zm-1572.85 36.23c27.11,-10.53 54.24,-21.04 81.42,-31.5 0.07,84.58 -0.06,169.16 0.05,253.74 -27.13,10.6 -54.36,20.96 -81.47,31.58 0,-22 0,-44.01 0,-66.01 4.63,-1.82 9.25,-3.7 13.89,-5.54 0,-40.6 0.04,-81.19 -0.02,-121.77 -4.62,1.86 -9.25,3.7 -13.87,5.55 0,-22.01 0,-44.03 0,-66.05zm560 287.81c190.12,-37.69 387.6,-37.69 577.72,0 -0.02,103.29 0.02,206.57 -0.02,309.87 -27.43,-5.69 -55.05,-10.58 -82.79,-14.6 -0.16,30.16 0,60.34 -0.08,90.5 -10.48,-7.96 -21.54,-15.16 -33.04,-21.54 0.02,-35.53 0,-71.05 0,-106.58 27.73,3.37 55.38,7.44 82.88,12.3 -0.02,-80.9 0.02,-161.8 -0.02,-242.72 -168.76,-30.06 -342.82,-30.08 -511.58,0 -0.06,80.92 0,161.82 -0.04,242.72 27.52,-4.84 55.17,-8.95 82.9,-12.3 0,35.53 -0.02,71.05 0,106.58 -11.5,6.38 -22.59,13.55 -33.04,21.54 -0.07,-30.16 0.08,-60.34 -0.07,-90.5 -27.75,4.02 -55.36,8.87 -82.8,14.6 -0.06,-103.28 0.02,-206.58 -0.02,-309.87zm227.47 354.57c47.71,-7.15 96.76,-5.77 143.92,4.56 33.32,7.53 66.01,19.57 94.54,38.61 20.45,13.99 40.05,32.08 48.04,56.2 6.54,19.07 -0.23,41.16 -15.27,54.25 3.18,-11.06 3.66,-23.63 -3.01,-33.57 -1.97,12.45 -7.11,25.22 -17.86,32.59 -7.32,5.48 -16.34,7.86 -25.21,9.33 6.76,-11.84 14.68,-25.58 9.96,-39.62 -0.34,-3.95 -2.82,0.73 -3.14,1.88 -6.94,16.3 -23.09,27.15 -40.13,30.58 -11.49,2.68 -23.43,1.91 -34.97,-0.08 17.04,-8.83 35.84,-22.34 37.04,-43.3 -6.34,10.32 -15.52,19.27 -27.32,22.91 -13.15,4.47 -27.44,3.42 -40.66,-0.13 14.43,-13.41 27.13,-31.41 25.58,-52.08 -33.09,12.2 -53.85,52.29 -42.31,86.11 7.32,21.56 26.31,36.87 46.62,45.68 27.48,12.02 58.33,14.58 87.91,11.44 25.34,-3.28 50.19,-12.88 69.77,-29.53 -5.1,28.96 -22.17,54.31 -42.67,74.75 -26.46,25.74 -59.42,44.27 -94.33,55.9 -40.61,13.68 -83.84,18.55 -126.55,17.19 -42.27,-2.19 -84.12,-12.27 -122.88,-29.26 -28.69,-12.82 -56.3,-29.3 -78.22,-52.11 -20.18,-20 -35.16,-46.14 -38.69,-74.61 -3.64,-32.31 4.75,-65.59 22.42,-92.8 16.29,-25.5 39.78,-45.87 65.94,-60.8 31.15,-17.92 66.07,-28.59 101.48,-34.09zm-144.58 305.46c10.48,7.97 21.54,15.15 33.06,21.54 -0.04,28.89 -0.04,57.77 0,86.66 -0.08,5.91 0.46,11.87 -0.54,17.71 -27.5,3.72 -55.03,7.4 -82.36,12.42 0.02,80.9 -0.09,161.82 0.06,242.72 168.93,-30.16 343.09,-29.97 512.02,0.02 0.04,-80.89 0.02,-161.75 0.02,-242.63 -25.98,-4.69 -52.1,-8.62 -78.33,-11.73 -1.73,-0.61 -5.58,0.08 -4.93,-2.95 -0.25,-34.07 0.02,-68.15 -0.11,-102.22 11.45,-6.46 22.61,-13.53 33.05,-21.58 0.04,32.36 0.02,64.73 0,97.11 27.73,4.02 55.38,8.62 82.89,13.95 0,103.28 0,206.58 0,309.86 -189.91,-39.28 -387.81,-39.26 -577.72,0 0,-103.28 0,-206.58 0,-309.86 27.32,-5.4 54.86,-9.7 82.37,-14.03 1,-5.11 0.43,-10.34 0.52,-15.5 -0.04,-27.17 -0.02,-54.32 0,-81.49zm9.66 -235.58l0 0c-25.16,22.94 -42.35,55 -45.43,89.07 -2.95,25.04 3.48,51.02 17.59,71.89 14.29,23.57 35.81,42.06 58.82,56.86 32.46,20.44 69.29,33.3 106.89,40.33 46.77,8.37 95.35,8.74 141.78,-2.07 36.73,-8.55 71.95,-24.24 102.22,-46.83 22.73,-17.61 44.63,-38.75 54.96,-66.2 -21.1,14.23 -46.6,21.05 -71.9,21.67 -34.99,0.84 -71.68,-6.08 -100.61,-26.73 -17.15,-11.96 -29.13,-30.95 -31.74,-51.78 -3.83,-35.05 19.93,-69.86 52.91,-81.09 -6.51,-19.05 -22.76,-33.02 -40.49,-41.5 -32.84,-15.77 -70.3,-17.5 -106.1,-16.04 -50.01,2.66 -101.54,17.78 -138.9,52.42zm-642.51 -705.55l0 0c0.06,14.85 -0.06,29.72 0.07,44.57 4.6,-1.84 9.22,-3.68 13.84,-5.54 0,47.72 -0.02,95.41 0.02,143.12 -4.64,1.86 -9.27,3.72 -13.91,5.6 0,14.9 -0.06,29.81 0.04,44.74 20.46,-7.82 40.91,-15.73 61.31,-23.74 -0.07,-77.47 -0.02,-154.96 -0.03,-232.45 -20.45,7.91 -40.88,15.83 -61.34,23.7zm1557.63 -30.85l0 0c-10.97,4.45 -17.99,15.27 -20.36,26.52 -3.68,18.72 -1.25,39.03 8.91,55.42 11.3,18.87 29.52,31.88 46.71,44.95 10.41,7.99 21.14,16 28.9,26.75 5.82,8.2 9.67,18.72 7.3,28.82 -2.11,7.95 -11.61,11.63 -19.09,9.62 -9.08,-2.42 -17.68,-6.31 -26.65,-9.09 -0.1,-3.96 -0.12,-7.91 -0.13,-11.86 -15.79,-5.34 -31.6,-10.67 -47.37,-16.13 -0.06,18.89 -0.04,37.8 0,56.7 24.91,8.56 49.78,17.24 74.73,25.71 14.04,4.47 29.6,7.96 44.03,3.09 9.97,-3.22 17,-12.26 19.95,-22.06 5.94,-20.31 3.6,-43.49 -8.59,-61.12 -17.76,-26.89 -48,-41.43 -68.88,-65.38 -8.39,-9.53 -14.39,-21.88 -13.76,-34.8 0.12,-7.22 7.55,-11.73 14.26,-10.69 11.28,1.13 21.42,6.88 32.13,10.27 -0.02,3.95 -0.02,7.89 0,11.84 12.76,5.02 25.54,9.96 38.32,14.95 0,-18.86 0.02,-37.71 -0.02,-56.57 -21.3,-8.1 -42.57,-16.32 -63.86,-24.43 -14.7,-5.36 -31.56,-8.68 -46.53,-2.51zm-157.87 -5.69l0 0c-0.04,13.59 0.12,27.19 -0.09,40.79 9.12,2.4 18.08,5.56 27.42,7.11 3.71,0.96 7.33,-2.41 7.14,-6.13 0.18,-6.46 0.06,-12.93 0.06,-19.41 0.65,-7.76 -5.42,-15.18 -12.9,-16.75 -7.2,-1.91 -14.44,-3.68 -21.63,-5.61zm-834.95 -23.82l0 0c-4.73,17.48 -9.03,35.07 -13.57,52.6 8.57,-1.17 17.17,-2.07 25.76,-3.24 -4.18,-16.42 -7.82,-32.99 -12.19,-49.36zm-383.45 -4.27l0 0c-19.56,5.75 -38.26,15.62 -52.56,30.33 -18.12,19.03 -26.06,46.41 -23.35,72.3 1.22,11.3 8.98,21.36 19.41,25.77 19,8.55 40.5,6.36 60.38,11.34 6.91,1.84 14.65,5.52 16.61,13.09 2.85,12.19 -2.03,27.1 -14.14,32.37 -11.25,4.83 -23.25,7.66 -34.86,11.55 -0.02,-3.89 -0.02,-7.76 -0.02,-11.63 -15.98,5.44 -32.13,10.4 -47.98,16.21 0.17,18.84 0.04,37.67 0.08,56.51 25.52,-8.38 51.04,-16.81 76.57,-25.16 19.22,-6.84 37.08,-18.57 49.24,-35.14 15.41,-20.53 21.1,-47.16 18.99,-72.45 -1.15,-10.7 -7.93,-20.53 -17.72,-25.11 -19.81,-9.71 -42.6,-7.01 -63.68,-11.59 -6.15,-1.42 -13.2,-4.39 -15.15,-11 -2.53,-11.21 4.4,-22.59 14.48,-27.3 11.12,-5.27 23.34,-7.63 34.97,-11.52 0.02,3.95 0.04,7.9 0.06,11.84 15.81,-4.52 31.66,-8.87 47.43,-13.47 -0.1,-18.91 0.03,-37.8 -0.08,-56.72 -22.9,6.58 -45.78,13.23 -68.68,19.78zm806.44 -38.08l0 0c-0.02,40.86 -0.02,81.71 0,122.56 8.45,0.27 16.85,1.44 25.3,1.5 8.41,-0.18 16.09,-7.65 15.4,-16.27 0.08,-26.14 -0.06,-52.27 0.06,-78.39 0.21,-7.03 0.44,-14.89 -4.79,-20.35 -8.74,-10.79 -23.93,-7.02 -35.97,-9.05zm340.09 38.63l0 0c4.63,1.08 9.27,2.13 13.93,3.2 -0.02,62.61 0,125.21 0,187.81 15.94,3.89 31.88,7.78 47.86,11.55 0.12,-27.13 -0.04,-54.24 0.08,-81.36 12.76,3.34 25.52,6.69 38.26,10.08 4.22,18.26 9.07,36.35 13.46,54.55 -3.55,-0.92 -7.06,-1.84 -10.56,-2.76 -0.02,10.1 0.02,20.22 -0.04,30.34 20.44,5.94 40.89,11.86 61.36,17.72 -0.39,-9.73 0.8,-19.6 -0.62,-29.26 -9.66,-27.86 -19.7,-55.6 -29.53,-83.43 8.13,-2.72 15.87,-7.26 20.93,-14.35 9.27,-12.09 9.66,-27.98 9.25,-42.54 1.92,-37.5 -26.5,-74.14 -63.33,-81.51 -33.68,-8.3 -67.33,-16.73 -101.02,-24.97 -0.02,14.97 0.02,29.95 -0.03,44.93zm-1034.24 -31.48l0 0c0.04,14.99 0,29.99 0.02,44.97 4.62,-1.13 9.24,-2.28 13.86,-3.43 0.09,62.7 0,125.38 0.05,188.08 41.97,-8.97 83.93,-18 125.91,-26.85 0.14,-19.03 0.02,-38.07 0.06,-57.1 -15.94,3.1 -31.88,6.26 -47.84,9.29 -0.06,3.91 -0.08,7.84 -0.1,11.77 -10.21,2.05 -20.39,4.33 -30.6,6.42 -0.04,-62.53 0,-125.07 -0.02,-187.6 -20.47,4.72 -40.89,9.62 -61.34,14.45zm836.43 -48.31l0 0c0.04,15.05 -0.08,30.09 0.06,45.13 4.37,0.54 8.77,1.09 13.18,1.57 0.4,62.7 0.06,125.4 0.17,188.09 47.1,8.05 94.24,15.89 141.36,23.92 -0.08,-19.03 0,-38.04 -0.04,-57.07 -15.96,-3.12 -31.94,-6.15 -47.91,-9.19 -0.01,3.87 0.03,7.76 0.06,11.63 -15.17,-2.59 -30.33,-5.18 -45.51,-7.65 -0.11,-16.27 -0.05,-32.53 -0.03,-48.8 26.27,4.88 52.59,9.42 78.85,14.46 0.36,-15.08 0.11,-30.18 0.13,-45.28 -26.31,-4.75 -52.6,-9.65 -78.91,-14.35 -0.15,-16.27 -0.15,-32.53 0,-48.8 31.08,5.73 62.16,11.53 93.32,16.99 0.02,-15.02 -0.02,-30.04 0.02,-45.06 -51.58,-8.51 -103.17,-17.13 -154.75,-25.59zm-592.42 1.19l0 0c-20.1,70.92 -39.92,141.91 -60,212.83 -2.07,9.66 -0.55,19.66 -1,29.45 19.8,-2.87 39.55,-5.98 59.35,-8.81 0.09,-10.08 0.04,-20.16 0.06,-30.24 -4.33,0.56 -8.65,1.13 -12.96,1.71 1.8,-7.19 3.59,-14.37 5.73,-21.46 23.02,-2.44 45.95,-5.64 68.97,-8.21 3.88,16.43 7.97,32.81 11.84,49.23 17.4,-1.15 34.72,-3.06 52.08,-4.52 -22.29,-75.61 -44.53,-151.24 -66.63,-226.93 -19.14,2.33 -38.28,4.77 -57.44,6.95zm378.73 -18.78l0 0c0.09,15.12 -0.04,30.22 0.07,45.34 4.62,0.02 9.26,0.1 13.88,0.35 -0.08,62.62 0.02,125.24 -0.04,187.86 33.36,2.3 66.76,4.15 100.12,6.26 19.51,0.98 39.2,-9.23 48.75,-26.44 5.99,-9.98 7.85,-21.85 7.35,-33.34 -0.11,-37.67 0.08,-75.34 -0.09,-113.04 -1.04,-30.62 -27.06,-58.06 -57.64,-60.47 -37.46,-2.3 -74.94,-4.35 -112.4,-6.52zm-101.52 -1.09l0 0c0,15.01 -0.02,30.03 0,45.03 4.46,0 8.93,0 13.39,0 0.02,28.27 0.02,56.53 0,84.77 -3.5,0 -6.99,0.02 -10.5,0.02 -21.52,-42.86 -43,-85.75 -64.76,-128.5 -15.47,0.64 -30.91,1.73 -46.37,2.09 -0.04,77.78 -0.02,155.56 -0.02,233.33 14.85,-0.61 29.7,-1.51 44.55,-2.12 0,-42.91 0,-85.83 0,-128.75 3.5,0.02 7.03,0.02 10.54,0.04 21.34,42.31 43.34,84.31 64.44,126.75 15.55,0.31 31.13,-0.03 46.69,0.69 0.02,-77.77 -0.02,-155.55 0.02,-233.33 -19.33,-0.04 -38.65,-0.02 -57.98,-0.02z"/>
   <path class="fil3" d="M976.05 23.95c19.33,0 38.65,-0.02 57.98,0.02 -0.04,77.78 0,155.56 -0.02,233.33 -15.56,-0.72 -31.14,-0.38 -46.69,-0.69 -21.1,-42.44 -43.1,-84.44 -64.44,-126.75 -3.51,-0.02 -7.04,-0.02 -10.54,-0.04 0,42.92 0,85.84 0,128.75 -14.85,0.61 -29.7,1.51 -44.55,2.12 0,-77.77 -0.02,-155.55 0.02,-233.33 15.46,-0.36 30.9,-1.45 46.37,-2.09 21.76,42.75 43.24,85.64 64.76,128.5 3.51,0 7,-0.02 10.5,-0.02 0.02,-28.24 0.02,-56.5 0,-84.77 -4.46,0 -8.93,0 -13.39,0 -0.02,-15 0,-30.02 0,-45.03zm101.52 1.09c37.46,2.17 74.94,4.22 112.4,6.52 30.58,2.41 56.6,29.85 57.64,60.47 0.17,37.7 -0.02,75.37 0.09,113.04 0.5,11.49 -1.36,23.36 -7.35,33.34 -9.55,17.21 -29.24,27.42 -48.75,26.44 -33.36,-2.11 -66.76,-3.96 -100.12,-6.26 0.06,-62.62 -0.04,-125.24 0.04,-187.86 -4.62,-0.25 -9.26,-0.33 -13.88,-0.35 -0.11,-15.12 0.02,-30.22 -0.07,-45.34zm-378.73 18.78c19.16,-2.18 38.3,-4.62 57.44,-6.95 22.1,75.69 44.34,151.32 66.63,226.93 -17.36,1.46 -34.68,3.37 -52.08,4.52 -3.87,-16.42 -7.96,-32.8 -11.84,-49.23 -23.02,2.57 -45.95,5.77 -68.97,8.21 -2.14,7.09 -3.93,14.27 -5.73,21.46 4.31,-0.58 8.63,-1.15 12.96,-1.71 -0.02,10.08 0.03,20.16 -0.06,30.24 -19.8,2.83 -39.55,5.94 -59.35,8.81 0.45,-9.79 -1.07,-19.79 1,-29.45 20.08,-70.92 39.9,-141.91 60,-212.83zm592.42 -1.19c51.58,8.46 103.17,17.08 154.75,25.59 -0.04,15.02 0,30.04 -0.02,45.06 -31.16,-5.46 -62.24,-11.26 -93.32,-16.99 -0.15,16.27 -0.15,32.53 0,48.8 26.31,4.7 52.6,9.6 78.91,14.35 -0.02,15.1 0.23,30.2 -0.13,45.28 -26.26,-5.04 -52.58,-9.58 -78.85,-14.46 -0.02,16.27 -0.08,32.53 0.03,48.8 15.18,2.47 30.34,5.06 45.51,7.65 -0.03,-3.87 -0.07,-7.76 -0.06,-11.63 15.97,3.04 31.95,6.07 47.91,9.19 0.04,19.03 -0.04,38.04 0.04,57.07 -47.12,-8.03 -94.26,-15.87 -141.36,-23.92 -0.11,-62.69 0.23,-125.39 -0.17,-188.09 -4.41,-0.48 -8.81,-1.03 -13.18,-1.57 -0.14,-15.04 -0.02,-30.08 -0.06,-45.13zm-836.43 48.31c20.45,-4.83 40.87,-9.73 61.34,-14.45 0.02,62.53 -0.02,125.07 0.02,187.6 10.21,-2.09 20.39,-4.37 30.6,-6.42 0.02,-3.93 0.04,-7.86 0.1,-11.77 15.96,-3.03 31.9,-6.19 47.84,-9.29 -0.04,19.03 0.08,38.07 -0.06,57.1 -41.98,8.85 -83.94,17.88 -125.91,26.85 -0.05,-62.7 0.04,-125.38 -0.05,-188.08 -4.62,1.15 -9.24,2.3 -13.86,3.43 -0.02,-14.98 0.02,-29.98 -0.02,-44.97zm1034.24 31.48c0.05,-14.98 0.01,-29.96 0.03,-44.93 33.69,8.24 67.34,16.67 101.02,24.97 36.83,7.37 65.25,44.01 63.33,81.51 0.41,14.56 0.02,30.45 -9.25,42.54 -5.06,7.09 -12.8,11.63 -20.93,14.35 9.83,27.83 19.87,55.57 29.53,83.43 1.42,9.66 0.23,19.53 0.62,29.26 -20.47,-5.86 -40.92,-11.78 -61.36,-17.72 0.06,-10.12 0.02,-20.24 0.04,-30.34 3.5,0.92 7.01,1.84 10.56,2.76 -4.39,-18.2 -9.24,-36.29 -13.46,-54.55 -12.74,-3.39 -25.5,-6.74 -38.26,-10.08 -0.12,27.12 0.04,54.23 -0.08,81.36 -15.98,-3.77 -31.92,-7.66 -47.86,-11.55 0,-62.6 -0.02,-125.2 0,-187.81 -4.66,-1.07 -9.3,-2.12 -13.93,-3.2zm-1146.53 -0.55c22.9,-6.55 45.78,-13.2 68.68,-19.78 0.11,18.92 -0.02,37.81 0.08,56.72 -15.77,4.6 -31.62,8.95 -47.43,13.47 -0.02,-3.94 -0.04,-7.89 -0.06,-11.84 -11.63,3.89 -23.85,6.25 -34.97,11.52 -10.08,4.71 -17.01,16.09 -14.48,27.3 1.95,6.61 9,9.58 15.15,11 21.08,4.58 43.87,1.88 63.68,11.59 9.79,4.58 16.57,14.41 17.72,25.11 2.11,25.29 -3.58,51.92 -18.99,72.45 -12.16,16.57 -30.02,28.3 -49.24,35.14 -25.53,8.35 -51.05,16.78 -76.57,25.16 -0.04,-18.84 0.09,-37.67 -0.08,-56.51 15.85,-5.81 32,-10.77 47.98,-16.21 0,3.87 0,7.74 0.02,11.63 11.61,-3.89 23.61,-6.72 34.86,-11.55 12.11,-5.27 16.99,-20.18 14.14,-32.37 -1.96,-7.57 -9.7,-11.25 -16.61,-13.09 -19.88,-4.98 -41.38,-2.79 -60.38,-11.34 -10.43,-4.41 -18.19,-14.47 -19.41,-25.77 -2.71,-25.89 5.23,-53.27 23.35,-72.3 14.3,-14.71 33,-24.58 52.56,-30.33zm1376.27 33.78c14.97,-6.17 31.83,-2.85 46.53,2.51 21.29,8.11 42.56,16.33 63.86,24.43 0.04,18.86 0.02,37.71 0.02,56.57 -12.78,-4.99 -25.56,-9.93 -38.32,-14.95 -0.02,-3.95 -0.02,-7.89 0,-11.84 -10.71,-3.39 -20.85,-9.14 -32.13,-10.27 -6.71,-1.04 -14.14,3.47 -14.26,10.69 -0.63,12.92 5.37,25.27 13.76,34.8 20.88,23.95 51.12,38.49 68.88,65.38 12.19,17.63 14.53,40.81 8.59,61.12 -2.95,9.8 -9.98,18.84 -19.95,22.06 -14.43,4.87 -29.99,1.38 -44.03,-3.09 -24.95,-8.47 -49.82,-17.15 -74.73,-25.71 -0.04,-18.9 -0.06,-37.81 0,-56.7 15.77,5.46 31.58,10.79 47.37,16.13 0.01,3.95 0.03,7.9 0.13,11.86 8.97,2.78 17.57,6.67 26.65,9.09 7.48,2.01 16.98,-1.67 19.09,-9.62 2.37,-10.1 -1.48,-20.62 -7.3,-28.82 -7.76,-10.75 -18.49,-18.76 -28.9,-26.75 -17.19,-13.07 -35.41,-26.08 -46.71,-44.95 -10.16,-16.39 -12.59,-36.7 -8.91,-55.42 2.37,-11.25 9.39,-22.07 20.36,-26.52zm-1557.63 30.85c20.46,-7.87 40.89,-15.79 61.34,-23.7 0.01,77.49 -0.04,154.98 0.03,232.45 -20.4,8.01 -40.85,15.92 -61.31,23.74 -0.1,-14.93 -0.04,-29.84 -0.04,-44.74 4.64,-1.88 9.27,-3.74 13.91,-5.6 -0.04,-47.71 -0.02,-95.4 -0.02,-143.12 -4.62,1.86 -9.24,3.7 -13.84,5.54 -0.13,-14.85 -0.01,-29.72 -0.07,-44.57zm583.03 308.33c168.76,-30.08 342.82,-30.06 511.58,0 0.04,80.92 0,161.82 0.02,242.72 -27.5,-4.86 -55.15,-8.93 -82.88,-12.3 0,35.53 0.02,71.05 0,106.58 -58.25,-32.1 -125.94,-45.01 -192.05,-41.87 -53.44,2.55 -106.83,15.89 -153.81,41.87 -0.02,-35.53 0,-71.05 0,-106.58 -27.73,3.35 -55.38,7.46 -82.9,12.3 0.04,-80.9 -0.02,-161.8 0.04,-242.72zm82.88 654.34c46.37,25.65 98.99,38.93 151.74,41.79 66.78,3.39 135.24,-9.3 194.09,-41.79 0.13,34.07 -0.14,68.15 0.11,102.22 -0.65,3.03 3.2,2.34 4.93,2.95 26.23,3.11 52.35,7.04 78.33,11.73 0,80.88 0.02,161.74 -0.02,242.63 -168.93,-29.99 -343.09,-30.18 -512.02,-0.02 -0.15,-80.9 -0.04,-161.82 -0.06,-242.72 27.33,-5.02 54.86,-8.7 82.36,-12.42 1,-5.84 0.46,-11.8 0.54,-17.71 -0.04,-28.89 -0.04,-57.77 0,-86.66zm723.83 -1012.05l0 0c-0.06,20.43 0.06,40.83 -0.06,61.26 11.44,3.2 22.88,6.4 34.4,9.33 8.04,2.19 17.05,-2.99 19.45,-10.94 1.59,-7.32 0.51,-14.91 0.84,-22.34 1.26,-12.51 -7.63,-25.03 -19.72,-28.26 -11.61,-3.11 -23.28,-6.04 -34.91,-9.05zm-829.72 -33.15l0 0c-7.26,28.8 -14.66,57.56 -22.04,86.34 17.09,-1.89 34.13,-4.25 51.22,-6.11 -6.23,-26.81 -13.01,-53.48 -19.31,-80.25 -3.3,0 -6.6,0 -9.87,0.02zm417.68 -30.7l0 0c0.1,47.43 0.04,94.85 0.02,142.26 11.14,0.94 22.31,1.71 33.46,2.38 14.39,0.69 27.69,-11.9 27.4,-26.37 -0.02,-28.72 0,-57.47 0,-86.19 -0.17,-14.72 -12.45,-28.24 -27.09,-29.81 -11.25,-0.96 -22.52,-1.75 -33.79,-2.27z"/>
  </g>
 </g>
</svg>
