<?xml version="1.0" encoding="UTF-8"?>
<!DOCTYPE svg PUBLIC "-//W3C//DTD SVG 1.1//EN" "http://www.w3.org/Graphics/SVG/1.1/DTD/svg11.dtd">
<!-- Creator: CorelDRAW -->
<svg xmlns="http://www.w3.org/2000/svg" xml:space="preserve" width="2000px" height="1600px" version="1.1" style="shape-rendering:geometricPrecision; text-rendering:geometricPrecision; image-rendering:optimizeQuality; fill-rule:evenodd; clip-rule:evenodd"
viewBox="0 0 2000 1600"
 xmlns:xlink="http://www.w3.org/1999/xlink">
 <defs>
  <style type="text/css">
   <![CDATA[
    .fil2 {fill:#1866B0;fill-rule:nonzero}
    .fil0 {fill:#F58023;fill-rule:nonzero}
    .fil1 {fill:#FEFEFE;fill-rule:nonzero}
   ]]>
  </style>
 </defs>
 <g id="Capa_x0020_1">
  <metadata id="CorelCorpID_0Corel-Layer"/>
  <g id="Texas_x0020_Arlington_x0020_Mavericks.cdr">
   <path class="fil0" d="M1207.71 0.02c9.36,-0.48 15.57,7.38 22.41,12.45 34.86,30.34 66.47,64.52 94.11,101.56 12.85,17.52 24.72,36.18 31.33,57.04 32,1.7 63.91,5.43 95.5,10.88 3.27,0.71 6.98,0.99 9.38,3.67 26.47,24.97 44.65,59 77.05,77.38 20.91,12.88 46.95,22.41 58.56,45.7 15.16,42.29 20.64,89.37 47.89,126.43 58.51,77.1 124.48,149.28 171.53,234.41 7.91,15.03 14.65,31.16 15.87,48.32 0.38,7.15 -2.48,13.92 -5.4,20.28 -9.33,19.57 -22.51,36.91 -33.24,55.67 -9.76,17.12 -12.75,37.04 -21.34,54.66 -4.31,8.75 -11.61,16.38 -20.99,19.52 -18.13,6.82 -37.65,2.41 -56.36,3.04 -21.96,3.12 -39.32,19.7 -61.35,22.8 -18.91,2.48 -39.91,2.84 -56.59,-7.74 -13.31,-8.36 -17.69,-24.46 -21.14,-38.81 -3.75,-21.3 -12.85,-41.7 -26.09,-58.74 -29.89,-33.54 -62.67,-65.74 -102.82,-86.78 -44.04,-23.12 -95.73,-24.77 -139.95,-47.51 -22.76,-11.89 -39.09,-32.53 -60.06,-46.98 -20.35,-12.62 -48.16,-11.05 -67.13,3.6 -26.84,20.26 -41.75,52.33 -50.62,83.94 -11.49,38.61 -1.98,79.86 13.08,116.06 14.3,30.25 38.18,54.71 62.13,77.53 38.31,36.1 81.05,67.67 115.51,107.7 27.43,31.38 48.9,68.93 57.22,110.05 2.68,20.13 4.99,40.38 6.13,60.66 -10.34,-25.8 -26.52,-49.58 -48.57,-66.8 -34.84,-26.67 -75.53,-44.87 -117.51,-57.01 -60.18,-17.5 -122.65,-24.37 -184.43,-33.67 -62.37,-9.56 -125.22,-15.82 -187.3,-27.18 -57.42,-10.65 -115.1,-24.67 -167.27,-51.64 -33.49,-17.16 -62.42,-41.96 -87.67,-69.62 -35.49,-38.33 -65.26,-81.58 -100.72,-119.96 -41.2,-44.57 -89.47,-82.32 -128.16,-129.22 41.3,4.94 83.06,3.78 124.3,9.25 -33.06,-17.89 -69.16,-30.34 -99.98,-52.27 -22.59,-15.67 -40.47,-37.7 -51.7,-62.77 58.34,16.17 120.98,18 179.75,2.94 13,-3.55 26.06,-7.3 38.15,-13.36 -44.21,-0.53 -88.91,1.16 -132.51,-7.73 44.24,-18.64 85.41,-44.6 120.34,-77.56 32.88,-30.06 60.92,-64.85 90.03,-98.46 -42.11,5.02 -85.51,2.91 -125.8,-11 39.55,-13.62 78.03,-30.27 115.18,-49.52 69.51,-35.62 139.28,-73.39 216.17,-90.43 -39.32,-25.6 -75.93,-58.97 -94.61,-102.93 89.31,34.81 186.82,40.92 281.73,37.98 46.45,-1.24 93.09,-4.79 139.39,0.64 23.63,2.71 47.25,8.64 67.94,20.73 -2.66,-39.04 1.93,-78.18 -1.37,-117.2zm-347.32 1096.85c56.38,-2.1 112.79,-3.09 169.2,-5.25 0,17.32 0,34.66 0,52 -31.92,0.58 -63.84,1.52 -95.73,2.74 0.03,9.68 0.03,19.36 0.05,29.05 30.63,-0.66 61.25,-1.52 91.85,-2.69 0.05,17.34 0.03,34.71 0.03,52.05 -30.68,0.51 -61.36,1.27 -91.98,2.69 0.1,9.25 0.1,18.53 0.03,27.78 32.57,-0.68 65.12,-2.03 97.7,-2.58 -0.05,17.06 -0.1,34.12 0.03,51.18 -57.07,2.33 -114.16,3.37 -171.23,5.33 0.05,-70.76 -0.03,-141.54 0.05,-212.3zm199.62 -5.22c39.83,0.99 79.66,2.91 119.48,4.21 19.88,0.83 41.07,3.34 57.63,15.36 21.29,15.56 24.59,46.77 14.93,69.87 -7.05,16.5 -24.31,24.87 -40.74,29.23 14.63,3.5 27.61,13.44 33.67,27.35 10.06,24.06 8.85,50.99 17.42,75.53 -26.55,-1.85 -53.19,-2.69 -79.69,-5.23 -2.4,-17.54 -3.29,-35.29 -7.07,-52.6 -1.67,-7.58 -5.4,-16.25 -13.59,-18.51 -8.64,-2.25 -17.74,-1.75 -26.59,-2 0.02,23.8 -0.13,47.64 0.08,71.44 -25.23,-0.86 -50.48,-0.38 -75.66,-1.93 0.31,-70.9 0.06,-141.81 0.13,-212.72zm-291.06 13.97c25.68,-2.77 51.41,-5.23 77.14,-7.76 -23.78,73.19 -48.01,146.25 -71.87,219.44 -29.59,3.17 -59.22,5.96 -88.86,8.98 -23.25,-68.45 -46.49,-136.9 -69.51,-205.43 26.95,-2.71 53.84,-5.78 80.84,-7.88 11.72,40.81 23.78,81.53 35.83,122.27 12.57,-43.1 24.31,-86.4 36.43,-129.62zm517.98 -0.54c19.73,10.19 36.21,25.94 49.49,43.61 9.79,12.98 18.76,26.95 23.63,42.59 3.14,10.06 2.21,20.74 2.28,31.13 0,33.31 0,66.63 0,99.94 -25.17,-2.36 -50.32,-4.89 -75.5,-7.18 0.18,-70.04 -0.02,-140.06 0.1,-210.09zm166.03 20.28c34.79,-7.83 70.74,0.69 103.34,13.21 -0.03,18.89 0,37.75 -0.03,56.64 -17.79,-8.77 -37.42,-17.11 -57.7,-13.74 -13.81,1.7 -26.54,11 -31.46,24.16 -9.91,27.53 0.41,63.28 27.99,76.33 18.89,9.48 41.07,8.83 61.2,4.21 0,18.99 -0.08,37.95 0.05,56.94 -35.87,5.35 -73.98,1.24 -105.95,-16.65 -31.58,-16.86 -54.73,-48.53 -60.89,-83.84 -4.56,-25.89 -4.18,-54.13 8.59,-77.76 11.11,-20.66 32.17,-34.65 54.86,-39.5zm-983.37 20.89c34.02,-6.38 68.12,-12.21 102.09,-18.76 23.89,67.69 47.06,135.64 70.43,203.53 -26.39,3.88 -52.78,7.73 -79.17,11.66 -4.24,-14.83 -8.77,-29.56 -13.01,-44.39 -20.56,3.8 -41.17,7.4 -61.73,11.28 -4.03,16.25 -8.14,32.48 -12.12,48.75 -25.22,5.63 -50.37,11.66 -75.57,17.32 22.92,-76.49 46.06,-152.92 69.08,-229.39zm1108.94 -7.75c24.47,5.73 48.98,11.28 73.45,17.06 0.05,27.61 -0.08,55.19 0.07,82.8 14.5,-21.83 28.09,-44.24 42.06,-66.42 1.73,-2.49 3.55,-7 7.51,-4.87 26.84,6.21 53.69,12.5 80.54,18.71 -21.3,28.34 -43.07,56.28 -64.37,84.62 23.91,44.19 48.35,88.08 71.92,132.44 -29.48,-6.82 -58.91,-13.97 -88.42,-20.69 -16.43,-34.5 -32.68,-69.08 -49.08,-103.58 -0.54,30.62 -0.06,61.22 -0.26,91.85 -24.49,-5.18 -49.03,-10.2 -73.52,-15.42 0.1,-72.18 -0.13,-144.35 0.1,-216.5zm-1301.15 57.37c35.66,-11.08 71.33,-22.21 106.95,-33.44 0.1,72.38 0.08,144.76 0.03,217.14 -21.78,5.75 -43.51,11.74 -65.31,17.44 -0.33,-55.01 -0.86,-110.03 -1.16,-165.04 -13.06,58.21 -24.39,116.82 -36.71,175.21 -20.16,6.49 -40.46,12.39 -60.7,18.71 -12.29,-51.42 -23.42,-103.11 -36.02,-154.45 -0.86,30.07 -0.05,60.16 -0.41,90.23 -1.14,25.48 -0.38,50.98 -0.55,76.49 -20.62,7.8 -41.4,15.18 -62.12,22.71 -0.07,-61.12 0,-122.27 -0.02,-183.42 -30.5,-0.94 -61.1,-0.38 -91.55,-2.48 8.37,-4.34 17.6,-6.34 26.39,-9.54 57.35,-18.71 114.52,-38.05 171.76,-57.06 8.32,36.88 16.74,73.72 24.95,110.61 8.57,-40.95 16,-82.14 24.47,-123.11zm1550.49 17.67c19.27,-5.63 39.55,-0.89 58.33,4.38 25.81,7.79 50.43,19.22 73.75,32.68 0.1,18.46 0.03,36.92 0.05,55.37 -20.43,-15.03 -43.17,-27.4 -67.76,-33.97 -5.13,-1.01 -11.29,-2.89 -15.7,0.89 -4.84,5.02 -1.21,13 3.5,16.78 13.49,11.64 30.37,18.25 45,28.29 20.59,13.24 39.42,32.33 44.6,57.04 1.01,10.7 0.25,21.5 0.5,32.25 0.81,14.5 -9.05,28.62 -22.56,33.62 -16.4,6.21 -34.53,3.52 -51.11,-0.48 -32.68,-9.13 -63.61,-23.81 -92.38,-41.63 0,-18.43 -0.05,-36.89 0.02,-55.32 23.99,17.59 50.05,34.02 79.58,40.06 6.49,1.7 18.1,0.2 16.13,-9.16 -3.07,-9.88 -12.86,-15.11 -21,-20.35 -22.74,-13.44 -47.5,-26.27 -62.61,-48.83 -12.96,-18.73 -16.89,-42.87 -12.35,-65 2.71,-12.25 11.64,-23.28 24.01,-26.62zm-941.32 185.55c14.3,-0.15 28.63,-0.91 42.93,-1.32 -0.31,34.2 0.5,68.42 -0.41,102.62 14.27,0.38 28.57,-0.5 42.84,-1.09 0,11.56 0,23.13 0,34.69 -28.57,0.6 -57.14,2.28 -85.71,2.51 0.46,-45.82 -0.23,-91.63 0.35,-137.41zm102.93 -2.21c14.4,-0.66 28.83,-1.26 43.28,-0.94 0,45.84 0.02,91.7 -0.03,137.54 -14.37,-0.23 -28.75,0.1 -43.1,0.66 -0.07,-45.74 0.23,-91.5 -0.15,-137.26zm68.53 -0.81c15.82,-0.76 31.61,0.89 47.43,0.48 8.98,24.06 18.05,48.1 27.15,72.1 0.69,-23.83 0.1,-47.68 0.31,-71.51 12.77,0.96 25.58,0.48 38.38,1.01 0.66,45.94 0.08,91.88 0.28,137.79 -15.97,-0.76 -31.99,-0.84 -47.97,-1.27 -9.17,-24.01 -17.46,-48.37 -26.82,-72.3 0,23.93 0.03,47.89 0,71.84 -12.9,-0.48 -25.78,-0.98 -38.66,-0.73 -0.08,-45.81 0.1,-91.62 -0.1,-137.41zm176.75 7.76c22.39,-5.1 46.27,-2.36 67.49,6.13 -0.51,12.71 -1.78,25.38 -2.18,38.11 -12.88,-10.19 -30.2,-15.44 -46.37,-11.38 -9.86,2.28 -17.01,11.2 -18.96,20.89 -3.27,14.62 -1.93,31.79 8.21,43.55 5.53,6.41 14.27,7.93 22.34,7.81 0.05,-6.16 0.07,-12.32 0.1,-18.46 -5.91,-0.35 -11.79,-0.58 -17.67,-0.83 -0.16,-10.8 -0.13,-21.6 -0.08,-32.38 19.45,0.91 38.84,2.61 58.28,3.45 -0.07,24.54 0.16,49.11 -0.07,73.65 0.71,5.19 -5.86,4.94 -9.15,6.36 -29.21,6.59 -63.18,3.09 -85.97,-17.95 -22.24,-20.76 -26.52,-55.32 -16.76,-83.1 6.26,-18.03 22.31,-31.64 40.79,-35.85zm-470.78 3.09c19.27,-1.24 38.53,-2.69 57.83,-3.95 12.57,-0.64 27.02,1.57 35.51,11.89 13.08,17.39 8.65,45.71 -11.18,56.25 4.57,5.43 8.19,11.61 10.04,18.54 4.49,15.92 9.71,31.63 13.69,47.71 -14.7,0.83 -29.41,1.9 -44.11,2.94 -3.83,-13.79 -7.07,-27.74 -11.26,-41.4 -0.71,-4.08 -3.93,-6.62 -7.12,-8.75 -0.53,17.11 -0.15,34.23 -0.23,51.37 -14.37,0.98 -28.75,2.23 -43.15,2.81 0.03,-45.81 0.05,-91.6 -0.02,-137.41zm555.91 0.84c32.73,3.02 65.39,6.95 98.12,9.96 0.15,11.59 0.1,23.17 0.07,34.76 -9.08,-0.99 -18.13,-1.95 -27.18,-2.86 -0.23,34.37 0.23,68.75 -0.23,103.13 -14.29,-1.7 -28.62,-3.05 -42.89,-4.64 -0.1,-34.35 0.03,-68.71 -0.05,-103.03 -9.3,-0.97 -18.56,-1.93 -27.84,-2.92 -0.07,-11.48 -0.07,-22.94 0,-34.4zm-656.84 10.19c14.73,-2.59 29.66,-3.5 44.49,-5.37 14.58,44.21 29.34,88.4 43.41,132.79 -14.73,1.52 -29.46,3.22 -44.19,4.82 -2.21,-8.88 -4.46,-17.75 -6.85,-26.55 -10.52,1.12 -21.04,2.23 -31.51,3.68 -2.66,9.38 -5.42,18.76 -8.14,28.14 -14.04,1.67 -28.11,3.17 -42.16,4.74 14.76,-47.48 30.48,-94.69 44.95,-142.25zm800.74 8.01c23.48,-5.12 49.21,4.59 64.37,23.07 13.23,15.8 18.28,36.86 18.02,57.12 -0.25,14.96 -3.06,30.65 -12.17,42.92 -8.64,11.89 -23.24,18.86 -37.87,18.74 -23.35,1.14 -46.52,-11.34 -58.89,-31.06 -13.49,-20.92 -15.42,-47.46 -10.65,-71.34 3.73,-18.76 17.92,-35.75 37.19,-39.45zm-973.92 18.03c32.5,-5.2 64.85,-11.18 97.3,-16.58 0.08,11.43 -0.1,22.89 0.23,34.35 -9.05,1.87 -18.17,3.45 -27.3,4.82 -0.33,34.37 -0.05,68.78 -0.15,103.18 -14.13,2.61 -28.35,4.81 -42.47,7.48 -0.02,-34.38 0.03,-68.76 -0.02,-103.14 -9.28,1.58 -18.56,3.2 -27.84,4.75 0,-11.61 -0.25,-23.25 0.25,-34.86zm1072.72 -4.49c15.46,3.3 30.87,6.77 46.36,9.91 8.9,25.23 17.45,50.55 26.17,75.83 0.78,-23.3 0.2,-46.65 0.38,-69.95 12.67,2.59 25.32,5.38 38.03,8.07 0,45.53 0,91.08 0,136.64l-7.91 0c-12.98,-3.62 -26.24,-6.11 -39.4,-8.87 -8.75,-25.99 -17.75,-51.87 -25.76,-78.06 -0.94,24.11 -0.23,48.22 -0.48,72.33 -12.47,-2.71 -24.92,-5.4 -37.37,-8.09 -0.02,-45.94 0,-91.87 -0.02,-137.81zm-1128.14 16.83c13.77,-3.12 27.51,-6.28 41.2,-9.68 -0.02,29.13 0.05,58.26 0,87.39 -0.1,16.45 -4.92,33.51 -16.33,45.78 -10.16,11.26 -24.71,17.14 -39.29,20.18l-22.49 0c-16.81,-4.38 -25.96,-21.75 -25.76,-38.23 -0.2,-30.19 -0.07,-60.41 -0.02,-90.61 13.71,-3.19 27.38,-6.49 41.09,-9.6 0.11,25.83 0.11,51.66 0,77.52 0.13,9.51 -1.54,20.11 5.18,27.96 4.51,-2.23 10.59,-3.06 13.05,-8.03 3.35,-6.87 3.1,-14.78 3.4,-22.24 -0.03,-26.79 -0.08,-53.61 -0.03,-80.44zm370.83 -19.39c-0.05,7.02 -0.08,14.07 -0.11,21.12 4.21,-1.02 9.46,-0.23 12.63,-3.81 4.61,-3.93 4.18,-11.3 0.58,-15.69 -3.9,-2.41 -8.82,-1.04 -13.1,-1.62zm362.58 -291.73c-11.54,-3.24 -23.71,-2.61 -35.57,-2.83 -0.05,14.75 -0.03,29.51 0,44.26 12.73,-0.13 25.93,2.79 38.31,-1.37 16.12,-6.97 14.52,-35.39 -2.74,-40.06zm-627.71 103.26c-6.62,-21.6 -13.39,-43.12 -20.67,-64.49 -7.02,23.93 -13.96,47.86 -20.76,71.87 13.79,-2.46 27.58,-5.12 41.43,-7.38zm927.7 235.09c-0.81,14.63 -0.89,30.63 6.99,43.56 3.86,6.97 14.96,10.47 20.54,3.52 6.11,-8.47 6.64,-19.52 7.1,-29.59 -0.16,-12.42 -1.02,-25.78 -8.14,-36.43 -3.27,-4.79 -9.96,-8.31 -15.64,-5.8 -8.52,4.81 -9.86,15.92 -10.85,24.74zm-775.95 8.32c-2.2,-9.94 -4.36,-19.88 -6.97,-29.72 -3.12,10.4 -5.7,20.97 -8.54,31.47 5.14,-0.64 10.32,-1.2 15.51,-1.75z"/>
   <path class="fil1" d="M1235.9 58.41c10.9,24.31 14.25,50.95 21.6,76.36 3.86,11.94 8.17,24.49 17.44,33.41 13.9,14.15 33.09,21.14 47.92,34.15 -2.31,-18.05 -18.56,-27.91 -31.77,-37.83 -15.54,-10.95 -20.56,-30.29 -25.88,-47.46 -4.56,-17.51 -12.73,-34.04 -15.19,-52.12 15.7,20.23 32.45,39.58 48.63,59.4 16.07,20.66 33.16,42.92 35.62,69.95 31.59,0.5 63.12,3.75 94.38,8.11 10.37,0.81 16.94,9.81 23.86,16.48 19.93,22.31 36.91,48.04 62.31,64.75 14,8.95 30.76,13.46 43.18,24.87 10.67,9.45 13.71,24.06 18.28,36.96 10.21,30.19 12.27,64.04 32.7,89.92 21.7,27.31 42.46,55.32 64.82,82.12 29.06,36.07 58.42,72.05 84.17,110.58 12.4,17.88 19.8,38.66 32.96,56.08 7.15,10.35 18.23,21.65 13.31,35.39 -8.9,25.99 -31.49,44.39 -41.37,69.92 -5.76,14.02 -7.05,29.36 -12.32,43.51 -2.46,7.86 -11.67,8.89 -18.46,10.67 -8.82,2.21 -20.18,1.22 -25.15,-7.48 -8.62,-15.64 -5.53,-35.19 -14.96,-50.58 -5.25,-9.33 -15.84,-14.55 -26.26,-15.08 -16.25,-1.52 -32.22,2.51 -47.84,6.41 7.76,4.03 16.07,8.12 21.02,15.7 12.32,17.67 14.75,40.23 27.43,57.77 -12.38,7.86 -26.09,14.25 -40.77,16.05 -15.82,1.98 -31.44,-4.41 -44.04,-13.56 0,-44.39 -8.16,-90.89 -34.73,-127.52 -21.93,-30.55 -55.87,-50.27 -91.29,-61.25 -35.39,-11.39 -72.43,-15.85 -108.91,-22.21 -18.18,-3.37 -36.58,-6.97 -53.34,-15.03 -11.66,-5.48 -20.36,-15.42 -28.22,-25.3 -23.65,-30.45 -33.66,-71.7 -23.98,-109.3 6.51,-27.48 23.96,-52.48 48.9,-66.17 -56.91,1.75 -115.32,16.05 -161.16,51.16 -51.34,38.29 -81.94,99.38 -91.14,161.93 -7.55,52.3 -3.85,107.72 18.43,156.19 22.24,42.24 53.29,79.53 88.91,111.12 34.45,31 73.72,55.97 108.99,85.99 25.1,21.32 47.41,46.98 59.75,77.88 -27.73,-27.43 -64.67,-42.64 -101.23,-54.38 -43.83,-13.94 -89.21,-22.13 -134.41,-30.24 -24.26,-21.48 -44.52,-47.41 -61.91,-74.72 -53,-83.81 -58.14,-160.41 -53.06,-254.83 -20.46,63.79 -18.72,155.9 -0.51,221.68 9.89,35.77 26.67,69.76 50.25,98.51 -65.41,-9.15 -131.12,-15.94 -196.3,-26.64 -30.17,-5.17 -60.44,-10.83 -89.42,-20.89 -19.42,-7.58 -39.37,-14.91 -56.05,-27.74 -22.84,-16.76 -38.23,-42.11 -45.79,-69.13 -7.91,-28.07 -11.41,-57.2 -13.05,-86.25 -4.41,-89.34 11.58,-180.23 49.74,-261.35 33.97,-72.56 87.46,-135.74 153.43,-181.19 74.2,-51.64 161.61,-81.46 250.19,-96.69 57.68,-10.02 116.27,-13.87 174.75,-14.2 17.85,15.46 42.44,24.31 65.92,18.38 -22.56,-6.54 -47.23,-15.39 -59.25,-37.27 -19.44,-34.93 -15.34,-76.81 -11.13,-114.99zm-208.72 200.71l0 0c-85.79,25.43 -168.74,68.73 -228.67,136.41 -49.36,55.07 -80.39,125.09 -92.54,197.75 -13.66,81.76 -7.37,166.36 14.48,246.14 3.09,9.84 4.81,20.51 11.51,28.75 -3.3,-40.82 -8.88,-81.56 -8.49,-122.6 -0.92,-58.08 5.65,-116.52 22.18,-172.29 20.46,-69.92 58.36,-135.05 111.07,-185.6 53.59,-52.84 120.9,-90.03 191.27,-115.56 53.95,-19.57 110.16,-32.47 166.84,-41.27 3.43,-0.15 5.51,-2.03 6.22,-5.6 -65.54,4.36 -130.82,15.28 -193.87,33.87zm412.83 4.54l0 0c0.38,17.31 10.34,32.55 23.05,43.58 18.96,17.13 43.85,31.74 50.24,58.41 -15.34,-3.88 -18.05,-21.63 -30.27,-29.49 -6.23,7.66 -9.4,19.12 -3.39,27.81 9.12,13.01 25.47,17.77 40.28,20.94 4.74,10.6 10.49,20.92 18.48,29.46 7.91,9.1 18.58,16.86 31.21,16.61 -1.29,-6.19 -6.16,-10.55 -9.05,-15.95 -13.41,-23.96 -10.04,-54.38 -27.2,-76.64 -25.18,-32.04 -69.65,-41.12 -93.35,-74.73zm-102.24 163.95l0 0 0.96 4.84c53.44,7.3 101.99,34.96 141.94,70.32 31.36,27.99 59.35,60.24 80.17,96.85 4.38,6.77 5.47,15.69 11.84,21.04 0.86,-10.55 -3.83,-20.38 -7.15,-30.14 -19.7,-50.05 -55.12,-93.91 -100.22,-123.26 -37.87,-24.6 -82.59,-37.58 -127.54,-39.65zm404.05 254.5l0 0c-12.7,16.56 -13.33,41.17 -2.99,59.05 4.69,8.67 15.47,15.51 25.35,11.36 8.88,-2.9 13.26,-11.72 17.22,-19.45 -19.7,-4.18 -31.51,-26.32 -26.24,-45.23 1.67,-6.31 8.72,-7.93 13.08,-11.94 -9.15,-3.67 -20.36,-2.08 -26.42,6.21z"/>
   <path class="fil2" d="M777.54 96.1c27.94,14.56 59.1,21.66 90.38,23.96 78.39,5.83 156.78,-8.36 235.19,-2.48 45.33,3.24 93.9,17.57 122.73,55.06 -97.68,0.08 -196.28,10.52 -289.47,40.92 -81.86,26.82 -159.36,70.63 -218.68,133.73 -60.87,63.66 -101.01,145.39 -120.12,231.01 -10.14,44.06 -14.68,89.26 -15.37,134.41 0.41,46.12 4.01,92.61 16.33,137.21 -49.26,-56.59 -88.5,-121.97 -144.53,-172.52 -15.62,-13.77 -32.73,-25.89 -51.31,-35.29 13.76,1.34 27.43,3.78 41.25,4.76 34.58,3.3 69.28,1.22 103.94,0.38 -21.3,-24.28 -47.97,-43.45 -76.77,-57.9 -32.98,-16.33 -67.86,-29.1 -98.84,-49.26 37.24,13.84 78.59,12.55 116.36,1.52 38.05,-11.25 75.9,-33.41 94.34,-69.94 -33.93,1.52 -68,1.24 -101.82,-1.95 19.17,-9.08 37.47,-20.11 53.6,-33.93 30.87,-25.86 53.79,-59.32 80.03,-89.51 21.45,-25.23 45.79,-48.17 73.6,-66.3 -21.17,5.88 -42.59,11.51 -64.65,12.4 -14.91,0.4 -29.81,0.12 -44.67,-1.01 9.66,-4.42 19.73,-7.86 29.46,-12.15 47.84,-20.94 91.32,-50.45 138.85,-72 34.53,-15.77 71.6,-27.33 109.72,-28.85 22.95,-0.02 47.06,2.97 68.76,-6.39 -46.67,-5.27 -92.2,-23.85 -128.23,-54.15 -7.63,-6.31 -14.35,-13.66 -20.08,-21.73zm-335.51 1367.03c8.45,-2.06 16.89,-4.14 25.36,-6.01 0.1,24.82 0,49.64 0.07,74.43 -0.02,13.34 -2.56,27.25 -10.6,38.23 -10.62,14.33 -28.57,21.63 -45.96,22.9 -9.33,0.53 -19.95,-2.13 -25.1,-10.63 -6.92,-11.23 -6.33,-25.07 -6.54,-37.8 0.13,-22.18 -0.15,-44.36 0.16,-66.55 8.44,-1.85 16.85,-3.82 25.27,-5.85 0.08,27.45 -0.1,54.89 0.05,82.32 0.13,7.73 2.84,17.67 11.59,19.36 13.13,2.67 25.12,-9.07 25.37,-21.93 0.79,-29.48 0.08,-58.99 0.33,-88.47zm1128.21 107.56c0.05,-40.41 -0.4,-80.82 0.23,-121.23 10.67,2.46 21.4,4.82 32.2,6.92 11.71,33.7 22.94,67.57 34.68,101.29 1.52,0.4 4.56,1.21 6.11,1.62 0.56,-31.29 0.1,-62.57 0.23,-93.86 7.25,1.37 14.45,2.97 21.65,4.72 -0.1,40.31 0.1,80.64 -0.1,120.95 -10.78,-2.46 -21.58,-4.81 -32.43,-6.92 -11.51,-33.18 -22.23,-66.67 -33.57,-99.96 -1.69,-0.53 -5.12,-1.6 -6.84,-2.13 -0.03,31.08 0,62.19 0,93.3 -7.38,-1.65 -14.78,-3.22 -22.16,-4.7zm-1072.38 -119.55c27.02,-4.75 54.07,-9.36 81.1,-14.05 0,6.04 0.03,12.09 0.03,18.13 -9.06,1.47 -18.11,3.04 -27.13,4.59 -0.25,34.35 -0.08,68.73 -0.1,103.08 -8.88,1.59 -17.75,3.17 -26.67,4.56 -0.03,-34.33 0.02,-68.65 -0.03,-102.98 -9.1,1.6 -18.2,3.3 -27.4,4.36 0.1,-5.9 0.15,-11.81 0.2,-17.69zm970.87 -17.8c23,-3.52 46.83,9.02 58.59,28.8 11.16,19.11 13.06,42.79 8.11,64.11 -3.04,13.67 -12.27,26.6 -26.01,31.01 -25.2,8.57 -54.12,-5.15 -66.9,-27.69 -10.85,-19.34 -12.27,-42.94 -7.38,-64.24 3.68,-16.12 16.79,-30.01 33.59,-31.99zm7.61 17.52l0 0c-12.12,4.41 -15.21,18.76 -16.45,30.14 -1.3,16.99 -1.1,35.52 7.91,50.58 6.49,11.05 23.98,15.36 33.18,5.32 8.77,-10.57 9.28,-25.17 9.66,-38.28 -0.58,-13.01 -1.52,-27.02 -9.08,-38.08 -5.27,-8.06 -15.87,-12.93 -25.22,-9.68zm-806.7 -25.73c10.78,-1.45 21.58,-2.64 32.38,-3.68 12.55,39.02 25.4,77.93 38.23,116.84 -9.05,0.97 -18.05,2.01 -27.05,3.12 -2.56,-8.84 -4.79,-17.77 -6.92,-26.69 -14.68,1.62 -29.36,3.29 -44.04,4.84 -2.92,9.48 -5.58,19.04 -8.52,28.52 -7.98,0.81 -15.97,1.7 -23.93,2.64 13.13,-41.91 26.62,-83.71 39.85,-125.59zm12.12 16.73l0 0c-5.32,20.23 -10.7,40.46 -16,60.71 11.92,-1.36 23.84,-2.61 35.73,-4.1 -4.01,-19.22 -8.7,-38.26 -12.86,-57.42 -2.31,0.25 -4.59,0.5 -6.87,0.81zm646.32 -25.2c27.25,2.89 54.53,5.73 81.79,8.54 0,6.09 0,12.17 0,18.28 -9.08,-1.06 -18.15,-2.03 -27.23,-2.86 -0.05,34.35 0.08,68.72 -0.08,103.1 -8.57,-1.75 -18.63,-0.68 -26.36,-3.85 -0.51,-34 -0.1,-68 -0.18,-101.99 -9.28,-1.12 -18.53,-2.16 -27.81,-2.89 -0.1,-6.11 -0.13,-12.22 -0.13,-18.33zm-555.84 -2.18c21.55,-0.31 43.2,-5.28 64.65,-2.16 19.47,2.79 24.51,28.45 15.16,43.1 -4.44,8.21 -13.69,11.05 -21.02,15.92 5.23,2.05 10.88,4.54 13.01,10.22 6.84,15.41 10.22,32.09 15.26,48.17 -9.08,0.86 -18.2,1.44 -27.3,1.95 -3.98,-13.18 -6.29,-26.9 -11.31,-39.7 -3.5,-8.67 -13.64,-10.24 -21.8,-8.62 0,16.86 0,33.72 0,50.6 -8.9,0.63 -17.8,1.24 -26.72,1.8 0.17,-40.44 0.02,-80.87 0.07,-121.28zm24.75 15.21l0 0c0.02,12.4 -0.05,24.79 0.07,37.19 8.6,-1.17 18.48,0.4 25.78,-5.3 9.18,-7.12 9.56,-23.07 0.21,-30.17 -7.86,-4.79 -17.47,-2.1 -26.06,-1.72zm425.35 -11.94c21.62,-11.87 48.32,-10.04 71.01,-2.23 0.74,5.73 -0.25,11.53 -0.63,17.31 -14.38,-4.92 -30.48,-8.44 -45.16,-2.76 -11.94,4.21 -19.47,16.07 -21.37,28.19 -2.94,17.04 -0.86,37.01 12.04,49.74 8.98,9.36 23.76,11.23 35.42,6.16 -0.15,-10.42 -0.07,-20.81 -0.1,-31.23 -5.91,-0.38 -11.79,-0.64 -17.67,-0.94 -0.08,-5.37 -0.15,-10.73 -0.25,-16.07 14.02,0.6 28.04,1.8 42.05,2.48 0.13,21.17 -0.15,42.34 0.18,63.51 -25.65,6.77 -55.47,4.81 -77.19,-11.66 -16.69,-12.53 -24.52,-34.2 -23.23,-54.61 0.13,-18.64 8.02,-38.46 24.9,-47.89zm-327.77 -10.6c8.87,-0.46 17.77,-0.56 26.64,-1.09 0.03,34.43 0,68.88 0,103.31 14.15,-0.63 28.32,-1.27 42.49,-1.32 0,5.98 -0.05,11.97 -0.1,17.98 -23,0.93 -46.02,1.39 -68.98,2.51 -0.08,-40.47 0,-80.93 -0.05,-121.39zm171.78 -2.99c11.15,-0.23 22.33,0.18 33.51,0.89 11.56,31.56 23.46,63 35.14,94.53 1.52,0.31 4.54,0.92 6.06,1.22 0.18,-31.79 0.03,-63.56 0.08,-95.32 7.37,0.53 14.78,0.63 22.18,0.58 -0.1,40.46 0.35,80.92 -0.23,121.39 -11.33,-0.31 -22.64,-0.44 -33.92,-1.2 -10.77,-30.52 -22.26,-60.79 -33.06,-91.31 -1.16,-3.83 -3.09,-7.36 -6.31,-9.81 -0.81,3.27 -1.24,6.61 -1.32,10.01 0.08,30.29 0.13,60.59 0,90.89 -7.38,-0.31 -14.75,-0.71 -22.13,-0.94 -0.05,-40.31 -0.05,-80.62 0,-120.93zm-68.45 0c8.87,-0.03 17.75,-0.03 26.62,0 -0.1,40.56 0.18,81.13 -0.13,121.69 -8.9,0.1 -17.79,0.1 -26.67,-0.23 0.38,-40.49 0,-80.97 0.18,-121.46z"/>
  </g>
 </g>
</svg>
