<?xml version="1.0" encoding="UTF-8"?>
<!DOCTYPE svg PUBLIC "-//W3C//DTD SVG 1.1//EN" "http://www.w3.org/Graphics/SVG/1.1/DTD/svg11.dtd">
<!-- Creator: CorelDRAW -->
<svg xmlns="http://www.w3.org/2000/svg" xml:space="preserve" width="2000px" height="1600px" version="1.1" style="shape-rendering:geometricPrecision; text-rendering:geometricPrecision; image-rendering:optimizeQuality; fill-rule:evenodd; clip-rule:evenodd"
viewBox="0 0 2000 1600"
 xmlns:xlink="http://www.w3.org/1999/xlink">
 <defs>
  <style type="text/css">
   <![CDATA[
    .fil0 {fill:#E06F1D}
   ]]>
  </style>
 </defs>
 <g id="Capa_x0020_1">
  <metadata id="CorelCorpID_0Corel-Layer"/>
  <path id="Texas_x0020_Longhorns.cdr" class="fil0" d="M28.06 295.38c60.59,-13.04 123.53,-5.55 183.2,8.7 90.61,21.58 172.83,67.39 251.8,115.39 53.81,32.41 106.65,66.55 162.28,95.78 40.3,16.47 84.32,23.76 127.77,21.56 31.66,-1.95 63.65,-9.57 90.79,-26.55 11.99,-7.9 27.16,-6.34 40.56,-3.81 9.08,-5.75 20.94,-8.34 30.82,-2.86 9.77,5.93 21.4,9 32.78,6.52 20.13,-3.73 41.23,-11.69 61.28,-2.87 18.67,-10.43 39.69,-1.71 59.26,0.29 8.82,1.33 17.36,-1.59 25.6,-4.4 10.99,-3.58 20.89,7.08 31.79,3.3 27.16,-6.19 54.73,3.17 78.77,15.39 21.86,10.36 43.68,22.89 68.28,24.86 18.26,2.02 35.6,-5.14 53.37,-7.88 81.69,-17.67 153.04,-63.7 221.58,-109.4 51.15,-34.1 102.17,-69.16 158.39,-94.53 35.42,-16.24 73.04,-27.67 111.68,-32.94 54.32,-8.13 110.36,-11.48 164.47,-0.1 11.18,1.46 17.78,13.02 17.42,23.58 1.05,15.5 -14.22,25.21 -26.91,30.05 -26.46,7.8 -54.26,0.79 -81.27,3.89 -48.87,6.36 -97.59,17.49 -142.53,38.2 -40.76,18.34 -76.8,45.27 -111.73,72.77 -64.94,51.43 -125.6,109.76 -199.54,148.46 -16.77,8.67 -34.19,16.03 -52.09,21.99 12.78,22.4 39.28,29.36 61.32,39.08 13.64,5.68 29.59,14.99 30.36,31.56 -0.33,13.17 -3.76,28.9 -16.6,35.37 -52.14,34.09 -122.93,34.24 -177.61,5.8 -13.84,-7.18 -26.42,-21.81 -43.43,-18.62 -4.42,6.12 -6.14,13.74 -6.01,21.18 2.79,38.9 -8.46,77.62 -25.45,112.32 -20.81,43.61 -49.3,83.3 -67.38,128.29 -11.64,28.95 -18.04,60.74 -13.46,91.91 1.79,15.83 7.68,30.77 11.41,46.19 4.71,17.78 14.7,34.65 14.17,53.48 -4.35,16.14 -10.74,31.68 -14.45,48.03 -1.84,6.88 -2.23,14.6 -7.01,20.3 -12.53,16.32 -25.8,32.79 -43.55,43.68 -6.83,4.35 -15.04,5.09 -22.82,6.37 -34.6,5.27 -70.12,8.49 -104.8,2.15 -11.18,-2.33 -22.76,-4.63 -32.43,-11.07 -15.19,-9.87 -28.39,-22.64 -39.46,-36.91 -3.07,-4.24 -6.63,-8.51 -7.34,-13.86 -2.69,-14.91 -4.3,-30.51 -11.95,-43.91 -3.58,-6.21 -9.87,-11.87 -8.66,-19.72 3.32,-41.43 29.3,-78.18 27.39,-120.43 -3.05,-42.3 -19.19,-82.3 -37.88,-119.92 -24.63,-50.33 -54.19,-99.74 -63.43,-155.85 -2.96,-15.04 -2.81,-30.41 -3.32,-45.63 -3.48,-3.65 -9.13,-6.52 -14.14,-4.7 -38.57,20.25 -80.95,38.1 -125.4,35.83 -16.39,-0.51 -32.37,-5.48 -46.77,-13.17 -21.31,-9.7 -46.52,-16.37 -60.1,-37.09 -7.98,-10.51 -1.59,-24.91 6.16,-33.63 12.58,-12.15 30.74,-14.55 46.83,-19.38 18.51,-5.04 36.03,-14.56 49.46,-28.39 -63.83,-21.23 -121.53,-56.98 -175.47,-96.55 -78.1,-56.54 -151.76,-121.25 -240.32,-161.4 -60.95,-28.1 -129.74,-40.2 -196.44,-30.58 -13.46,3.45 -21.77,-11.03 -26.86,-21.15 -3.22,-16.5 11.67,-32.89 27.62,-34.97z"/>
 </g>
</svg>
