<?xml version="1.0" encoding="UTF-8"?>
<!DOCTYPE svg PUBLIC "-//W3C//DTD SVG 1.1//EN" "http://www.w3.org/Graphics/SVG/1.1/DTD/svg11.dtd">
<!-- Creator: CorelDRAW -->
<svg xmlns="http://www.w3.org/2000/svg" xml:space="preserve" width="2000px" height="1600px" version="1.1" style="shape-rendering:geometricPrecision; text-rendering:geometricPrecision; image-rendering:optimizeQuality; fill-rule:evenodd; clip-rule:evenodd"
viewBox="0 0 2000 1600"
 xmlns:xlink="http://www.w3.org/1999/xlink">
 <defs>
  <style type="text/css">
   <![CDATA[
    .fil1 {fill:#561C1F;fill-rule:nonzero}
    .fil0 {fill:#AB9054;fill-rule:nonzero}
   ]]>
  </style>
 </defs>
 <g id="Capa_x0020_1">
  <metadata id="CorelCorpID_0Corel-Layer"/>
  <g id="Texas_x0020_State_x0020_Bobcats.cdr">
   <path class="fil0" d="M961.53 1308.21c30.34,-0.27 60.69,0.15 91.03,-0.22 0.67,36.84 0.23,73.69 0.23,110.52 -30.04,0.39 -60.11,0.22 -90.15,0.13l-0.86 -0.72c-0.56,-36.55 0.03,-73.14 -0.25,-109.71zm218.41 -924.74c10.57,1.87 20.49,6.45 29.69,11.88 3.39,2.26 7.2,4.18 9.8,7.42 -0.19,12.66 -5.86,24.38 -10.79,35.79 10.87,-3.43 19.05,-12.3 24.32,-22.11 1.61,4.51 3.25,9.32 2.31,14.15 -2.36,8.85 -11.46,15.12 -20.55,14.51 -9.42,0.11 -17.06,-6.7 -22.36,-13.81 -9.74,-13.84 -12.21,-31.3 -12.42,-47.83zm-278.29 -178.47c24.69,15.19 50.97,27.63 78.09,37.88 38.52,14.6 77.59,30.86 108.69,58.6 -48.2,-20.52 -102.07,-27.58 -153.89,-19.7 -1.84,-0.7 -2.68,-2.61 -3.83,-4.03 -10.83,-15.93 -20.58,-32.9 -26.24,-51.42 -1.98,-6.9 -3.69,-14.12 -2.82,-21.33zm-96.7 -205l1.74 0c0.94,5.27 3.8,9.86 6.07,14.62 20.79,41.76 44.92,82.94 79.39,114.97 19.61,18.41 42.12,33.43 65.59,46.46 63.81,34.92 132.9,58.69 197.64,91.67 24.97,13.08 49.76,27.01 71.51,45.08 18.74,15.15 34.66,33.99 45.16,55.76 9.7,19.33 14.78,40.51 19.81,61.39 23.51,26.66 41.2,59.83 44.33,95.69 1.04,15.69 -0.02,32.53 -8.4,46.27 -3,5.29 -8.15,8.68 -12.38,12.83 -2.38,5.11 -3.14,10.84 -5.3,16.05 -4.34,11.07 -10.96,22.32 -22.08,27.67 -5.6,2.48 -11.25,-0.95 -16.29,-3.11 -2.38,-0.88 -5.38,-2.83 -7.58,-0.54 -18.17,13.9 -40.3,24.52 -63.64,23.76 10.17,-17.4 20.59,-34.91 26.9,-54.16 1.15,-4.1 2.83,-8.54 1.11,-12.72 -3.6,-10.95 -8.95,-21.52 -16.88,-29.96 -5.3,-5.68 -12.34,-9.95 -20.12,-10.98 -28.45,-3.54 -58.34,0.93 -83.56,14.91 -7.51,4.6 -16.03,9.63 -18.93,18.49 -3.94,10.85 -0.18,22.87 5.98,32.12 8.77,13.32 21.16,24.11 34.94,32.04 9.45,5.94 21.29,5.02 31.77,2.92 12.89,-2.71 23.82,-10.62 32.9,-19.84 1.97,28.33 -12.69,56.01 -35.27,72.63 -1.16,16.81 -5.35,33.77 -14.26,48.23 -10.52,17.54 -28.81,29.48 -48.59,33.98 -32.82,7.66 -66.81,0.73 -98.45,-8.85 16.35,-5.1 33.23,-9.53 48.01,-18.49 4.08,-2.49 7.95,-5.57 10.09,-9.92 -33.54,7.95 -71.06,1.98 -99.14,-18.46 20.56,-3.96 41.33,-10.04 58.5,-22.46 9.13,-6.83 17.71,-17.25 16.5,-29.35 -1.99,-10.72 -11.43,-17.85 -20.48,-22.77 -26.44,-14.05 -56.48,-18.21 -85.48,-23.9 15.71,-28.88 38.89,-52.75 61.49,-76.29 -12.63,4.25 -23.47,12.36 -33.86,20.48 -17.57,14.76 -33.58,31.77 -45.63,51.36 -48.98,-4.84 -99.38,-0.36 -145.57,17.21 -35.1,13.25 -68,33.6 -93.28,61.54 8.05,-56.03 30.3,-110.83 67.65,-153.77 27.37,-31.79 63.47,-55.52 102.89,-69.56 -53.58,9.43 -102.42,38.46 -140.48,76.75 -6.55,6.3 -12.04,13.58 -18.51,19.95 0.86,-14.95 4.56,-29.56 7.65,-44.16 14.68,-61.57 41.19,-121.4 83.13,-169.34 31.58,-36.28 72.55,-64.58 118.26,-79.85 -3.95,-5.8 -8.56,-11.08 -12.47,-16.91 -15.34,-22.43 -26.69,-47.38 -35.54,-73.02 -1.01,-2.52 -1.74,-5.47 -4.22,-6.97 -27.17,-18.59 -46.46,-48.92 -50.45,-81.71 9.69,12.67 20.62,24.77 34.25,33.28 -17.06,-41.3 -19.65,-86.91 -16.42,-131.02zm33.64 89.86l0 0c-0.16,2.73 -0.22,5.49 0.06,8.21 4.23,50.45 18.45,100.24 42.84,144.7 8.49,15.47 18.76,29.82 29.38,43.88 -21.45,4.51 -41.4,14.33 -59.24,26.93 -38.2,27.44 -66.81,66.24 -88.21,107.71 -13.85,26.77 -24.78,55.01 -33.71,83.78 19.92,-19.49 45.89,-31.51 72.32,-39.37 51.56,-15.79 106.15,-16.41 159.56,-13.86 1.76,0.67 3.61,1.21 5.49,1.63 -5.55,-0.15 -11.11,-0.21 -16.63,0.35 -51.53,5.52 -101.28,25.62 -142.71,56.66 -33.57,25.23 -61.27,58.46 -79.07,96.57 -5.15,10.12 -8.27,21.1 -12.77,31.51 0.5,-0.05 1.5,-0.11 1.99,-0.15 6.01,-5.7 13.13,-10.02 20.23,-14.18 35.17,-19.51 75.87,-26.54 115.69,-27.46 13.48,-0.76 26.91,1.25 40.39,0.84 28.4,-38.37 71.69,-63.25 116.54,-77.6 9.92,-2.35 19.71,-5.88 29.92,-6.7 -34.04,24.05 -60.61,57.75 -78.89,95.02 25.11,7.06 51.71,13.6 71.82,31.28 9.72,8.35 17.82,20.37 16.87,33.71 -0.75,14.96 -10.37,27.43 -20.42,37.72 -4.91,5.23 -11.05,9.1 -15.84,14.45 18.14,1.41 37.3,0.84 53.84,-7.56 6.53,-3.32 11.31,-9.05 15.44,-14.94 2.58,5.16 4.78,10.92 3.77,16.79 -1.78,12.86 -11.06,22.94 -20.43,31.16 -2.46,2.46 -6.49,3.69 -7.56,7.26 21.04,0.66 43.22,0.16 62.09,-10.35 14.88,-7.91 24.94,-23.57 26.41,-40.32 1.48,-7.07 -0.57,-14.48 0.1,-21.38 16,-9.19 26.21,-25.69 32.59,-42.54 -5.76,3.03 -10.96,7.12 -17.23,9.09 -12.3,4.75 -26.46,4.16 -38.47,-1.18 -6.73,-4.06 -12.25,-9.79 -18.1,-14.99 -15.98,-15.5 -31.56,-32.51 -39.71,-53.58 -3.62,-9.05 -4.48,-20.09 0.67,-28.72 6.54,-9.06 16.26,-15.22 25.97,-20.43 21.62,-10.62 45.55,-16.75 69.65,-17.48 11.93,-0.09 24.57,0.42 35.13,6.69 17.45,9.9 28.94,27.32 37.58,44.94 2.79,6.19 6.81,12.75 5.03,19.81 -3.29,17.54 -12.57,33.12 -20.73,48.71 13.82,-0.62 26.4,-8.5 36.04,-18 3.03,-2.6 4.59,-6.8 7.93,-8.9 5.3,3.08 10.7,7.31 17.28,6.33 7.94,-1.18 12.87,-8.52 15.92,-15.32 8.05,-18.64 11.55,-39.57 8.57,-59.74 -1.9,-7.38 -6.32,-16.8 -14.99,-17.3 -0.97,5.92 -2.1,13.2 -7.89,16.37 0.17,-12.9 2.1,-26.17 -2.28,-38.65 15.39,2.23 28.72,14.13 32.91,29.09 4.31,11.61 2.57,24.13 0.18,35.93 4.46,-2.78 6.64,-7.86 8.1,-12.7 2.62,-9.61 3.22,-19.81 1.47,-29.64 -4.26,-30.07 -17.21,-59.35 -38.7,-81.1 -1.96,-2.05 -4.43,-3.72 -5.84,-6.21 -2.55,-10.26 -4.64,-20.63 -7.5,-30.8 -5.83,-20.77 -15.41,-40.58 -29.45,-57.06 -20.21,-23.93 -46.74,-41.36 -73.67,-56.82 -60.98,-34.47 -127.04,-58.46 -190.12,-88.6 -40.66,-19.68 -81.59,-41.56 -112.93,-74.81 -10.78,-11.47 -19.5,-24.7 -26.68,-38.68zm-197.66 722.69c29.49,-0.28 59,0.45 88.5,-0.48 19.05,0.07 38.11,-0.07 57.16,0.06 -0.25,30.16 0.28,60.33 -0.23,90.5 -3.75,2.98 -6.74,6.79 -10.45,9.81 -36.08,0.84 -72.24,-0.19 -108.35,0.51 0.19,9.58 0,19.16 0.2,28.75 39.62,-0.08 79.29,-0.48 118.91,0.19 -0.24,29.17 -0.05,58.34 -0.11,87.51 0.18,1.63 -0.33,2.98 -1.56,4.05 -3.12,3.08 -5.97,6.55 -9.59,9.07 -35.93,0.56 -71.95,-0.5 -107.86,0.5 0.2,9.39 0.21,18.78 0.01,28.17 39.7,0.47 79.41,-0.23 119.11,0.34 -0.38,30.06 0.18,60.13 -0.25,90.17 -3.72,3.81 -7.22,8.2 -11.76,11.03 -75.29,0.15 -150.61,0.2 -225.89,-0.03 -0.28,-47.23 -0.04,-94.48 -0.13,-141.72 0.33,-39.44 -0.76,-78.92 0.83,-118.34 1.29,-23.5 6.45,-48.72 23.35,-66.21 7.91,-7.59 14.96,-16.34 24.51,-22 13.12,-7.81 28.42,-11.46 43.6,-11.88zm-20.56 20.96l0 0c-13.36,3.86 -25.49,12.76 -31.88,25.27 -10.13,18.84 -10.24,40.84 -10.97,61.7 0.04,74.49 -0.02,149 0.01,223.51 63.61,-0.11 127.24,-0.01 190.85,-0.01 0.56,-18.35 0.9,-36.82 -0.2,-55.14 -39.42,0.45 -78.85,0.3 -118.27,0.06 -0.59,-17.22 0.02,-34.47 -0.25,-51.68 0.17,-7.68 -0.51,-15.41 0.53,-23.05 39.45,0.11 78.9,0.25 118.33,-0.07 0.55,-18.2 0.17,-36.42 0.17,-54.63 -39.59,-0.26 -79.19,0.1 -118.78,-0.17 -0.42,-24.92 -0.36,-49.9 0,-74.82 36.33,-0.76 72.68,-0.22 109.02,-0.36 3.12,-0.31 6.71,0.79 9.58,-0.71 0.57,-17.78 0.24,-35.61 0.14,-53.4 -39.55,-0.33 -79.07,-0.08 -118.61,-0.16 -9.95,0.33 -20.05,0.88 -29.67,3.66zm220.3 -21.24c36.99,-0.48 73.98,0.05 110.96,-0.28 0.46,25.33 -0.33,50.67 0.95,75.99 0.88,18.16 6.34,37.1 20.38,49.51 6.95,-11.76 9.64,-25.41 10.4,-38.89 1.39,-25.38 0.24,-50.8 0.78,-76.19 1.8,-4.12 5.85,-7.81 9.59,-10.19 36.67,-0.34 73.35,-0.03 110.01,-0.15 0.04,24.8 -0.01,49.58 0.04,74.37 -0.47,24.18 -2.8,49.13 -13.91,71.03 -5.38,10.63 -13.06,19.98 -21.92,27.92 -2.67,1.82 0.42,4.05 1.85,5.38 16.62,14.54 26.56,35.44 30.31,56.97 4.74,24.67 3.51,49.89 3.65,74.86 -0.03,13.84 0.05,27.69 -0.05,41.55 -3.11,3.12 -6.2,6.28 -9.45,9.25 -36.56,-0.3 -73.13,-0.19 -109.67,-0.03 -1.49,-22.52 0.23,-45.19 -0.93,-67.74 -0.41,-13.94 -1.71,-28.34 -8.13,-40.95 -3.04,-6.16 -7.64,-11.31 -11.93,-16.58 -7.18,10.14 -9.45,22.72 -10.74,34.83 -1.76,27.1 -0.69,54.27 -1.22,81.4 -3.34,2.82 -5.89,6.94 -9.81,8.83 -36.46,0.35 -72.95,-0.21 -109.42,0.27 -0.79,-21.62 -0.12,-43.26 -0.34,-64.87 0.11,-26.56 1.35,-54.14 13.03,-78.53 5.49,-11.41 13.67,-21.36 23.07,-29.76 2.7,-1.8 -0.6,-3.93 -1.92,-5.22 -17.62,-15.3 -27.51,-37.75 -30.96,-60.52 -4.68,-27.22 -2.83,-54.95 -3.22,-82.42 0.11,-10.38 -0.22,-20.75 0.14,-31.1 2.96,-2.79 5.8,-5.69 8.46,-8.74zm20.69 17.58l0 0c-0.31,25.57 -0.77,51.18 0.97,76.71 1.91,19.42 6.17,39.71 18.92,55.14 8.12,10.93 20.15,17.66 30.99,25.46 -11.41,7.89 -23.66,15.26 -31.98,26.67 -12.02,15.8 -16.56,35.87 -17.92,55.33 -1.74,18.34 -1.05,36.77 -1.19,55.15 0.11,6.58 -0.44,13.18 0.51,19.71 24.18,-0.06 48.36,-0.1 72.55,-0.03 0.47,-25.51 -1.46,-51.25 2.85,-76.51 2.14,-9.43 4.96,-18.9 10.34,-27.03 5.81,-9.9 14.29,-17.83 22.58,-25.65 1.33,-0.98 2.75,-3.01 4.66,-2.23 15.67,12.75 29.67,29.05 34.42,49.15 5.87,26.7 3.96,54.22 4.34,81.36l0.89 0.8c23.23,0.19 46.49,0.05 69.74,0.07 3.23,0.43 1.86,-3.87 2.21,-5.69 -0.7,-31.65 2.09,-63.79 -5.15,-94.9 -3.89,-14.9 -11.48,-29.12 -23.14,-39.35 -6.3,-6.4 -14.33,-10.52 -21.44,-15.83 -2.01,-1.64 1.09,-2.99 2.22,-3.78 15.79,-9.1 30.03,-22 37.32,-39.03 9.35,-22.53 9.97,-47.41 10.14,-71.45 -0.26,-14.71 0.34,-29.42 -0.28,-44.1 -24.12,-0.14 -48.25,-0.37 -72.37,0.11 -0.73,21.82 0.83,43.73 -1.72,65.48 -1.42,12.41 -3.81,25.1 -10.3,35.97 -7.04,12.03 -16.77,22.67 -27.97,30.84 -15.72,-12.45 -29.78,-28.65 -34.88,-48.51 -6.63,-27.21 -3.63,-55.42 -4.57,-83.09l-0.93 -0.86c-23.93,-0.09 -47.88,-0.28 -71.81,0.09zm657.82 -15.36c18.57,-3.11 37.46,-1.88 56.2,-2.13 38.75,-0.09 77.5,0.22 116.24,-0.17 0.77,28.85 0.04,57.72 0.38,86.58 0.99,6.75 -5.55,10.9 -10.09,14.58 -33.62,0.64 -67.3,-0.1 -100.92,0.36 -0.28,9.19 -0.25,18.4 0,27.59 20.98,0.69 42.06,-1.05 62.95,1.6 17.04,2.48 34.84,9.72 44.57,24.67 10.2,17.37 11.36,38.05 12.75,57.66l0 65.76c-1.24,8.58 -2.34,17.24 -4.89,25.58 -4.84,16.24 -12.6,32.76 -27.06,42.57 -20.17,13.71 -45.76,15.14 -69.38,14.07 -46.44,-0.48 -92.92,0.44 -139.35,-0.43 0.22,-29.14 0.05,-58.3 0.06,-87.42 -0.68,-6.24 5.85,-9.33 9.42,-13.37 37.77,-0.02 75.56,0.24 113.33,-0.1 0.08,-9.37 0.45,-18.77 -0.2,-28.13 -22.36,-0.31 -44.77,0.88 -67.07,-1.02 -15.53,-1.67 -32.08,-6.72 -41.81,-19.77 -14.77,-19.37 -15.49,-44.9 -15.63,-68.22 0.56,-32.69 -2.9,-66.83 9.61,-97.87 4.5,-12.1 14.53,-20.54 23.36,-29.42 7.37,-7.34 17.51,-11.01 27.53,-12.97zm-12.4 23.36l0 0c-9.18,7.07 -13.03,18.8 -15.15,29.74 -4.97,21.4 -3.68,43.51 -3.87,65.29 -0.22,15.18 0.23,30.42 2.52,45.45 1.63,7.93 4.54,15.77 9.44,22.3 4.99,6.76 13.26,10.05 21.22,11.82 15.36,2.81 31.04,1.82 46.57,1.99 14.9,-0.2 29.81,0.32 44.69,-0.19 0.95,25.19 0.22,50.46 0.39,75.68 -40.93,0.16 -81.84,0 -122.76,0.06 0.11,18.05 -0.42,36.11 0.28,54.14 45.9,-0.51 91.81,0.17 137.72,-0.37 14.22,-0.7 30.77,-0.05 41.68,-10.82 9.32,-11.06 10.73,-26.19 12.18,-40.01 2.05,-18.55 1.46,-37.22 1.57,-55.84 0.05,-14.1 -0.73,-28.22 -3.17,-42.12 -2.3,-11.29 -7.54,-23.18 -18.34,-28.64 -12.25,-6.13 -26.34,-6.28 -39.74,-6.97 -19.68,-0.04 -39.38,0.13 -59.07,-0.01 -0.08,-24.94 -0.09,-49.88 -0.03,-74.81 37.13,-0.6 74.29,-0.06 111.44,-0.26 0,-17.84 0.15,-35.69 -0.06,-53.51 -1.04,-0.23 -3.11,-0.71 -4.15,-0.95 -40.43,0.18 -80.88,-0.18 -121.29,0.14 -14.15,1.01 -29.65,-0.21 -42.07,7.89zm-1205.43 -10.65c-1.18,-6.66 5.18,-11.04 9.76,-14.54 73.78,-0.3 147.58,-0.16 221.36,-0.05 0.48,29.2 0.03,58.42 0.25,87.62 0.79,5.78 -4.96,9 -8.55,12.5 -15.83,1.04 -31.83,0.11 -47.72,0.42 -0.08,82.75 0.03,165.52 -0.05,248.29 -0.93,5.04 -6.23,8.13 -9.78,11.52 -35.79,0.25 -71.62,0.2 -107.41,0.05l-0.83 -0.86c-0.42,-86.05 0.16,-172.13 -0.28,-258.17 -18.78,-0.25 -37.58,-0.07 -56.38,-0.1 -0.74,-28.87 -0.04,-57.79 -0.37,-86.68zm29.54 2.92l0 0c-0.14,18.21 -0.36,36.42 0.08,54.62 18.78,-0.09 37.57,0.16 56.35,-0.07 0.25,86.48 -0.25,172.95 0.25,259.42 23.62,-0.38 47.25,0.03 70.87,-0.19 -0.01,-82.25 -0.01,-164.51 0,-246.75 -0.08,-4.51 -0.22,-9.06 0.75,-13.48 18.63,0.27 37.27,0.33 55.9,-0.05 0.38,-17.86 0.37,-35.74 0,-53.59 -31.71,-0.38 -63.41,-0.07 -95.13,-0.18 -29.69,0.21 -59.4,-0.34 -89.07,0.27zm868.33 -7.28c14.69,-7.79 31.61,-10.7 48.12,-10.35 27.91,0.03 55.82,0.01 83.73,0.01 19.8,-0.36 40.65,3.61 56.69,15.86 11.99,8.94 20.31,22.13 24.81,36.28 5.42,15.97 6.4,33.01 6.85,49.74 -0.08,81.93 0.08,163.86 -0.08,245.78 -1.33,5.2 -7.4,7.81 -10.43,12.16 -35.85,0.21 -71.71,0.02 -107.57,0.07 -0.22,-31.65 -0.12,-63.29 -0.04,-94.93 -11.46,-0.65 -22.97,-0.33 -34.43,-0.19 -0.42,27.9 0.19,55.82 -0.29,83.7 -2.43,4.42 -7.07,7.36 -10.28,11.26 -36.08,0.27 -72.18,0.33 -108.26,-0.06 0.25,-81.8 -0.03,-163.61 0.13,-245.41 0.71,-26.89 3.15,-56.43 21.49,-77.7 8.91,-9.69 18.02,-19.62 29.56,-26.22zm12.2 13.84l0 0c-13.71,5.92 -23.98,18.52 -28.19,32.73 -5.15,15.41 -6.2,31.77 -6.45,47.91 0.05,48.76 0.01,97.54 0.05,146.3 0.21,26.81 -0.58,53.64 0.37,80.42 23.76,-0.16 47.52,-0.17 71.26,0 0.92,-31.89 -0.17,-63.83 0.56,-95.72 26.77,0.19 53.55,0.28 80.33,0 0.82,31.89 -0.19,63.83 0.54,95.72 23.85,-0.05 47.74,-0.25 71.6,0.03 0.77,-67.76 0.08,-135.57 0.33,-203.33 -0.12,-15.58 0.37,-31.21 -1.46,-46.7 -1.76,-16.65 -5.62,-34.31 -17.71,-46.69 -13.28,-13.59 -33.23,-17.12 -51.47,-17.5 -25.41,0 -50.81,0.07 -76.21,-0.01 -14.7,0 -29.91,0.81 -43.55,6.84zm37.37 47.78c26.91,-0.32 53.84,-0.23 80.77,-0.04 -0.03,36.79 0.44,73.59 -0.21,110.36 -26.8,-0.14 -53.6,-0.21 -80.39,0 -0.41,-36.77 -0.1,-73.54 -0.17,-110.32zm18.05 28.33l0 0c-0.14,21.32 -0.25,42.67 0.08,63.99 11.46,0.09 22.95,0.48 34.39,-0.22 -0.14,-21.24 -0.14,-42.48 0,-63.72 -11.49,-0.26 -22.98,-0.09 -34.47,-0.05zm-335.3 320.46c14.74,-3.78 30.07,-2.79 45.14,-2.9 27.99,0.05 55.97,-0.09 83.96,0.07 23.58,0.51 48.47,8.64 63.6,27.61 16.51,20.37 20.23,47.58 21,72.97 0.19,83.94 -0.01,167.89 0.1,251.82 1.19,7.15 -6.05,11.04 -10.39,15.39 -5.04,1.12 -10.21,0.02 -15.31,0.22 -32.19,0.11 -64.39,0.05 -96.6,0.02 -0.35,-31.46 -0.06,-62.91 -0.1,-94.36 -14.33,-0.23 -28.66,0.1 -42.98,-0.17 -0.38,25.27 -0.13,50.54 -0.13,75.81 -0.21,3.85 1.03,8.73 -2.8,11.25 -3.48,2.76 -6.01,8.24 -11.18,7.47 -36.18,-0.13 -72.35,0.21 -108.51,-0.07 0.07,-78.25 0,-156.51 0.04,-234.79 -0.2,-25.59 -0.09,-52.27 10.31,-76.16 6.13,-15.02 18.18,-26.35 29.79,-37.17 9.48,-8.7 21.59,-14.22 34.06,-17.01zm4.65 21.31l0 0c-15.05,3.08 -29.19,11.91 -36.95,25.41 -10.99,19.17 -11.69,41.94 -12.25,63.46 -0.17,75.24 0.16,150.48 -0.17,225.71 7.63,0.88 15.33,0.21 23.01,0.39 17.15,-0.11 34.33,0.29 51.48,-0.25 0.6,-31.57 0.16,-63.16 0.22,-94.74 30.35,-0.16 60.69,0.18 91.03,-0.19 0.74,31.67 0.03,63.38 0.37,95.05 24.52,0.42 49.06,-0.17 73.58,0.31 0.84,-4.88 0.51,-9.82 0.54,-14.72 -0.01,-59.65 0,-119.3 0,-178.94 -0.09,-20.7 0.56,-41.47 -1.72,-62.07 -2.43,-17.73 -8.06,-36.76 -22.8,-48.16 -15.24,-12.13 -35.58,-13.87 -54.33,-13.67 -25.87,0.05 -51.76,-0.01 -77.63,0.02 -11.5,-0.16 -23.11,0.01 -34.38,2.39zm-590.73 -13.66c20.04,-8.54 42.37,-6.72 63.66,-7 44.75,0.06 89.52,-0.16 134.28,0.11 0.39,30.23 0.05,60.47 0.19,90.7 0.67,6.22 -5.74,9.28 -9.15,13.48 -36.47,0.59 -72.97,-0.31 -109.43,0.43 0.19,8.35 0.12,16.7 0,25.07 23.64,1.55 47.52,-1.45 71.03,2 18.8,2.91 38.65,12.38 46.99,30.46 7.63,17.59 9.64,37.04 10.17,56.03 -0.55,16.14 0.18,32.26 0.54,48.4 0.13,19.83 -3.43,39.88 -11.91,57.89 -4.48,9.89 -10.99,19.03 -19.76,25.56 -14.57,11.31 -33.34,14.57 -51.25,15.97l-170.3 0c0.53,-31.06 -0.06,-62.16 0.27,-93.23 -0.06,-2.33 2.07,-3.81 3.37,-5.43 2.83,-2.73 5.63,-6.67 10.11,-5.97 38.9,0.08 77.81,-0.04 116.71,0.08 0.59,-8.66 0.36,-17.35 0.27,-26.01 -21.94,-0.28 -43.9,0.35 -65.82,-0.36 -17.68,-0.72 -37.01,-4.9 -48.94,-19.06 -14.44,-16.6 -16.7,-39.44 -17.75,-60.47l0 -58.05c1.52,-16.98 2.75,-34.35 9.39,-50.27 3.15,-8.05 7.85,-15.56 14.32,-21.36 7.37,-6.66 13.51,-15.18 23.01,-18.97zm9.5 15.95l0 0c-10.2,3.16 -15.86,13.17 -19.3,22.58 -8.55,27.21 -6.74,56.07 -6.88,84.2 0.88,19.87 -0.73,41.5 10.62,58.94 6.7,11.12 20.26,14.85 32.42,15.85 29.85,2.25 59.86,-0.07 89.75,1.38 -0.07,24.71 0.09,49.4 -0.11,74.11 -43.54,0.01 -87.08,-0.31 -130.6,0.15 -0.14,18.44 -0.26,36.88 0.08,55.33 48.87,0.34 97.76,0.07 146.63,0.12 12.95,-0.57 26.8,-0.56 38.29,-7.39 7.64,-4.77 10.97,-13.68 13.67,-21.81 5.49,-23.19 5.16,-47.19 5.1,-70.87 -0.11,-18.91 0.13,-38.19 -5.02,-56.56 -2.01,-7.46 -5.63,-14.77 -11.69,-19.74 -9.68,-7.36 -22.11,-9.77 -34.01,-10.27 -25.81,-1.24 -51.65,-0.06 -77.47,-0.79 0.16,-24.66 -0.1,-49.3 0.13,-73.97 38.73,0.05 77.47,0.05 116.2,-0.01 0.59,-0.2 1.8,-0.59 2.41,-0.79 0.28,-18.38 0.04,-36.78 0.11,-55.16 -41.3,-0.01 -82.6,0.03 -123.9,0 -15.52,0.31 -31.52,-0.32 -46.43,4.7zm224.22 -13.95c4.2,-3.31 7.25,-9.64 13.37,-9.03 55.99,0.06 111.99,0 167.96,0.01 24.26,0.24 48.55,-0.45 72.79,0.34 -0.31,31.54 0.15,63.09 -0.27,94.61 -3.53,2.95 -6.2,7.33 -10.38,9.31 -18.49,0.75 -37.04,-0.36 -55.54,0.54 0.21,82.43 -0.02,164.86 0.11,247.28 0.34,6.45 -6.38,9.8 -10.16,14.04l-111.83 0c-0.36,-87.01 -0.17,-174.06 -0.09,-261.07 -22.05,-0.45 -44.11,0.13 -66.18,-0.29 0.28,-31.91 -0.17,-63.83 0.22,-95.74zm27.37 9.24l0 0c-0.67,18.67 -0.55,37.42 -0.14,56.1 21.72,0.06 43.46,0.23 65.19,-0.06 1,4.96 0.84,10.03 0.78,15.06 0.02,81.39 -0.08,162.77 0.05,244.14 0.26,0.51 0.79,1.56 1.06,2.07 23.97,0.14 47.98,0.23 71.97,-0.1 0.36,-87.04 0.16,-174.11 0.09,-261.17 22.1,-0.17 44.21,0.28 66.31,-0.27 -0.18,-18.58 0.34,-37.18 -0.27,-55.76 -68.35,0 -136.69,0.02 -205.04,-0.01zm566.56 -9.11c4.31,-3.27 7.21,-9.94 13.46,-9.15 56.51,0.03 113.01,0 169.52,0.02 22.19,0.22 44.41,-0.48 66.57,0.36 -0.45,31.54 0.18,63.11 -0.32,94.66 -3.23,2.95 -6.32,6.03 -9.26,9.27 -18.07,0.53 -36.17,-0.21 -54.22,0.37 -0.27,83.87 0.01,167.74 -0.14,251.63 -3.73,3.03 -6.38,8.96 -11.96,8.24 -36.56,-0.01 -73.1,-0.01 -109.64,0.02 -0.49,-39.36 -0.07,-78.74 -0.21,-118.11 0.17,-47.06 -0.3,-94.12 0.23,-141.16 -21.38,-1.04 -42.82,0.05 -64.23,-0.54 0.34,-31.88 -0.11,-63.75 0.2,-95.61zm30.54 9.06l0 0c-0.86,10.7 -0.2,21.46 -0.42,32.2 0.23,8.15 -0.67,16.39 0.67,24.49 21.05,-0.18 42.15,-0.54 63.2,0.16 -0.14,86.81 -0.29,173.62 0.08,260.43 24.41,0.28 48.86,0.31 73.28,-0.03 0.35,-87.09 -0.32,-174.18 0.31,-261.27 21.17,0.01 42.33,0.31 63.49,-0.14 -0.15,-18.65 0.33,-37.3 -0.23,-55.93 -66.78,0.31 -133.58,0.17 -200.38,0.09zm275.62 4.68c15.92,-16.43 39.59,-22.58 61.87,-22.89 46.65,0 93.29,0 139.96,0.02 6.09,0.04 12.22,-0.3 18.31,0.36 -0.38,30.71 0.14,61.45 -0.24,92.14 -2.85,3.64 -6.44,6.64 -9.72,9.87 -1.76,1.9 -4.53,1.25 -6.78,1.42 -39.29,-0.08 -78.57,-0.05 -117.85,-0.02 -0.01,8.65 0.14,17.29 -0.08,25.94 15.91,1.04 31.88,0.2 47.82,0.48 28.9,-0.01 57.81,-0.03 86.73,0 0.02,31.04 -0.03,62.06 0.03,93.09 -3.84,3.72 -7.65,7.47 -11.24,11.43 -41.1,0.44 -82.24,-0.48 -123.32,0.44 0.15,8.41 0.09,16.82 0.05,25.23 44.79,0.94 89.65,0.16 134.48,0.38 -0.02,25.75 0.03,51.51 0,77.28 -0.22,5.5 0.51,11.11 -0.42,16.57 -3.27,3.41 -6.37,7.23 -10.34,9.83 -81.97,0.31 -163.93,0.17 -245.91,0.11 -0.4,-83.47 -0.08,-166.95 -0.19,-250.42 0.32,-22.39 3.22,-45.67 14.45,-65.43 5.47,-10.2 14.68,-17.45 22.39,-25.83zm12.92 13l0 0c-9.55,9.17 -13.9,22.11 -16.93,34.66 -4.34,23.15 -2.96,46.77 -3.22,70.19 0.14,64.92 -0.22,129.83 0.19,194.73 69.58,0.32 139.18,0.3 208.76,0.02 -0.05,-18.67 0.29,-37.36 -0.13,-56.04 -44.64,0.02 -89.28,0.27 -133.92,-0.14 -0.4,-24.82 -0.56,-49.71 0.17,-74.49 44.63,0.03 89.27,0.24 133.89,-0.13 0.07,-18.72 0.14,-37.46 -0.03,-56.18 -44.68,-0.18 -89.39,0.02 -134.08,-0.14 -0.23,-24.72 -0.6,-49.51 0.21,-74.21 44.62,0.14 89.26,0.25 133.87,-0.08 0.02,-18.61 0.28,-37.26 -0.09,-55.87 -46.07,0.19 -92.16,-0.05 -138.23,0.13 -17.99,0.2 -37.44,4.21 -50.46,17.55zm-512.26 67.86l0 0c-0.22,21 -0.27,42.03 0.01,63.03 14.31,-0.31 28.61,-0.01 42.9,-0.15 0.19,-20.93 -0.08,-41.88 0.11,-62.81 -14.34,-0.17 -28.69,0 -43.02,-0.07z"/>
   <path class="fil1" d="M838.59 89.86c7.18,13.98 15.9,27.21 26.68,38.68 31.34,33.25 72.27,55.13 112.93,74.81 63.08,30.14 129.14,54.13 190.12,88.6 26.93,15.46 53.46,32.89 73.67,56.82 14.04,16.48 23.62,36.29 29.45,57.06 2.86,10.17 4.95,20.54 7.5,30.8 1.41,2.49 3.88,4.16 5.84,6.21 21.49,21.75 34.44,51.03 38.7,81.1 1.75,9.83 1.15,20.03 -1.47,29.64 -1.46,4.84 -3.64,9.92 -8.1,12.7 2.39,-11.8 4.13,-24.32 -0.18,-35.93 -4.19,-14.96 -17.52,-26.86 -32.91,-29.09 4.38,12.48 2.45,25.75 2.28,38.65 5.79,-3.17 6.92,-10.45 7.89,-16.37 8.67,0.5 13.09,9.92 14.99,17.3 2.98,20.17 -0.52,41.1 -8.57,59.74 -3.05,6.8 -7.98,14.14 -15.92,15.32 -6.58,0.98 -11.98,-3.25 -17.28,-6.33 -3.34,2.1 -4.9,6.3 -7.93,8.9 -9.64,9.5 -22.22,17.38 -36.04,18 8.16,-15.59 17.44,-31.17 20.73,-48.71 1.78,-7.06 -2.24,-13.62 -5.03,-19.81 -8.64,-17.62 -20.13,-35.04 -37.58,-44.94 -10.56,-6.27 -23.2,-6.78 -35.13,-6.69 -24.1,0.73 -48.03,6.86 -69.65,17.48 -9.71,5.21 -19.43,11.37 -25.97,20.43 -5.15,8.63 -4.29,19.67 -0.67,28.72 8.15,21.07 23.73,38.08 39.71,53.58 5.85,5.2 11.37,10.93 18.1,14.99 12.01,5.34 26.17,5.93 38.47,1.18 6.27,-1.97 11.47,-6.06 17.23,-9.09 -6.38,16.85 -16.59,33.35 -32.59,42.54 -0.67,6.9 1.38,14.31 -0.1,21.38 -1.47,16.75 -11.53,32.41 -26.41,40.32 -18.87,10.51 -41.05,11.01 -62.09,10.35 1.07,-3.57 5.1,-4.8 7.56,-7.26 9.37,-8.22 18.65,-18.3 20.43,-31.16 1.01,-5.87 -1.19,-11.63 -3.77,-16.79 -4.13,5.89 -8.91,11.62 -15.44,14.94 -16.54,8.4 -35.7,8.97 -53.84,7.56 4.79,-5.35 10.93,-9.22 15.84,-14.45 10.05,-10.29 19.67,-22.76 20.42,-37.72 0.95,-13.34 -7.15,-25.36 -16.87,-33.71 -20.11,-17.68 -46.71,-24.22 -71.82,-31.28 18.28,-37.27 44.85,-70.97 78.89,-95.02 -10.21,0.82 -20,4.35 -29.92,6.7 -44.85,14.35 -88.14,39.23 -116.54,77.6 -13.48,0.41 -26.91,-1.6 -40.39,-0.84 -39.82,0.92 -80.52,7.95 -115.69,27.46 -7.1,4.16 -14.22,8.48 -20.23,14.18 -0.49,0.04 -1.49,0.1 -1.99,0.15 4.5,-10.41 7.62,-21.39 12.77,-31.51 17.8,-38.11 45.5,-71.34 79.07,-96.57 41.43,-31.04 91.18,-51.14 142.71,-56.66 5.52,-0.56 11.08,-0.5 16.63,-0.35 -1.88,-0.42 -3.73,-0.96 -5.49,-1.63 -53.41,-2.55 -108,-1.93 -159.56,13.86 -26.43,7.86 -52.4,19.88 -72.32,39.37 8.93,-28.77 19.86,-57.01 33.71,-83.78 21.4,-41.47 50.01,-80.27 88.21,-107.71 17.84,-12.6 37.79,-22.42 59.24,-26.93 -10.62,-14.06 -20.89,-28.41 -29.38,-43.88 -24.39,-44.46 -38.61,-94.25 -42.84,-144.7 -0.28,-2.72 -0.22,-5.48 -0.06,-8.21zm653.6 1179.91c13.02,-13.34 32.47,-17.35 50.46,-17.55 46.07,-0.18 92.16,0.06 138.23,-0.13 0.37,18.61 0.11,37.26 0.09,55.87 -44.61,0.33 -89.25,0.22 -133.87,0.08 -0.81,24.7 -0.44,49.49 -0.21,74.21 44.69,0.16 89.4,-0.04 134.08,0.14 0.17,18.72 0.1,37.46 0.03,56.18 -44.62,0.37 -89.26,0.16 -133.89,0.13 -0.73,24.78 -0.57,49.67 -0.17,74.49 44.64,0.41 89.28,0.16 133.92,0.14 0.42,18.68 0.08,37.37 0.13,56.04 -69.58,0.28 -139.18,0.3 -208.76,-0.02 -0.41,-64.9 -0.05,-129.81 -0.19,-194.73 0.26,-23.42 -1.12,-47.04 3.22,-70.19 3.03,-12.55 7.38,-25.49 16.93,-34.66zm-288.54 -17.68c66.8,0.08 133.6,0.22 200.38,-0.09 0.56,18.63 0.08,37.28 0.23,55.93 -21.16,0.45 -42.32,0.15 -63.49,0.14 -0.63,87.09 0.04,174.18 -0.31,261.27 -24.42,0.34 -48.87,0.31 -73.28,0.03 -0.37,-86.81 -0.22,-173.62 -0.08,-260.43 -21.05,-0.7 -42.15,-0.34 -63.2,-0.16 -1.34,-8.1 -0.44,-16.34 -0.67,-24.49 0.22,-10.74 -0.44,-21.5 0.42,-32.2zm-267.46 2.47c11.27,-2.38 22.88,-2.55 34.38,-2.39 25.87,-0.03 51.76,0.03 77.63,-0.02 18.75,-0.2 39.09,1.54 54.33,13.67 14.74,11.4 20.37,30.43 22.8,48.16 2.28,20.6 1.63,41.37 1.72,62.07 0,59.64 -0.01,119.29 0,178.94 -0.03,4.9 0.3,9.84 -0.54,14.72 -24.52,-0.48 -49.06,0.11 -73.58,-0.31 -0.34,-31.67 0.37,-63.38 -0.37,-95.05 -30.34,0.37 -60.68,0.03 -91.03,0.19 -0.06,31.58 0.38,63.17 -0.22,94.74 -17.15,0.54 -34.33,0.14 -51.48,0.25 -7.68,-0.18 -15.38,0.49 -23.01,-0.39 0.33,-75.23 0,-150.47 0.17,-225.71 0.56,-21.52 1.26,-44.29 12.25,-63.46 7.76,-13.5 21.9,-22.33 36.95,-25.41zm25.34 53.65l0 0c0.28,36.57 -0.31,73.16 0.25,109.71l0.86 0.72c30.04,0.09 60.11,0.26 90.15,-0.13 0,-36.83 0.44,-73.68 -0.23,-110.52 -30.34,0.37 -60.69,-0.05 -91.03,0.22zm-354.98 -56.07c68.35,0.03 136.69,0.01 205.04,0.01 0.61,18.58 0.09,37.18 0.27,55.76 -22.1,0.55 -44.21,0.1 -66.31,0.27 0.07,87.06 0.27,174.13 -0.09,261.17 -23.99,0.33 -48,0.24 -71.97,0.1 -0.27,-0.51 -0.8,-1.56 -1.06,-2.07 -0.13,-81.37 -0.03,-162.75 -0.05,-244.14 0.06,-5.03 0.22,-10.1 -0.78,-15.06 -21.73,0.29 -43.47,0.12 -65.19,0.06 -0.41,-18.68 -0.53,-37.43 0.14,-56.1zm-251.59 4.71c14.91,-5.02 30.91,-4.39 46.43,-4.7 41.3,0.03 82.6,-0.01 123.9,0 -0.07,18.38 0.17,36.78 -0.11,55.16 -0.61,0.2 -1.82,0.59 -2.41,0.79 -38.73,0.06 -77.47,0.06 -116.2,0.01 -0.23,24.67 0.03,49.31 -0.13,73.97 25.82,0.73 51.66,-0.45 77.47,0.79 11.9,0.5 24.33,2.91 34.01,10.27 6.06,4.97 9.68,12.28 11.69,19.74 5.15,18.37 4.91,37.65 5.02,56.56 0.06,23.68 0.39,47.68 -5.1,70.87 -2.7,8.13 -6.03,17.04 -13.67,21.81 -11.49,6.83 -25.34,6.82 -38.29,7.39 -48.87,-0.05 -97.76,0.22 -146.63,-0.12 -0.34,-18.45 -0.22,-36.89 -0.08,-55.33 43.52,-0.46 87.06,-0.14 130.6,-0.15 0.2,-24.71 0.04,-49.4 0.11,-74.11 -29.89,-1.45 -59.9,0.87 -89.75,-1.38 -12.16,-1 -25.72,-4.73 -32.42,-15.85 -11.35,-17.44 -9.74,-39.07 -10.62,-58.94 0.14,-28.13 -1.67,-56.99 6.88,-84.2 3.44,-9.41 9.1,-19.42 19.3,-22.58zm1151.82 -419c12.42,-8.1 27.92,-6.88 42.07,-7.89 40.41,-0.32 80.86,0.04 121.29,-0.14 1.04,0.24 3.11,0.72 4.15,0.95 0.21,17.82 0.06,35.67 0.06,53.51 -37.15,0.2 -74.31,-0.34 -111.44,0.26 -0.06,24.93 -0.05,49.87 0.03,74.81 19.69,0.14 39.39,-0.03 59.07,0.01 13.4,0.69 27.49,0.84 39.74,6.97 10.8,5.46 16.04,17.35 18.34,28.64 2.44,13.9 3.22,28.02 3.17,42.12 -0.11,18.62 0.48,37.29 -1.57,55.84 -1.45,13.82 -2.86,28.95 -12.18,40.01 -10.91,10.77 -27.46,10.12 -41.68,10.82 -45.91,0.54 -91.82,-0.14 -137.72,0.37 -0.7,-18.03 -0.17,-36.09 -0.28,-54.14 40.92,-0.06 81.83,0.1 122.76,-0.06 -0.17,-25.22 0.56,-50.49 -0.39,-75.68 -14.88,0.51 -29.79,-0.01 -44.69,0.19 -15.53,-0.17 -31.21,0.82 -46.57,-1.99 -7.96,-1.77 -16.23,-5.06 -21.22,-11.82 -4.9,-6.53 -7.81,-14.37 -9.44,-22.3 -2.29,-15.03 -2.74,-30.27 -2.52,-45.45 0.19,-21.78 -1.1,-43.89 3.87,-65.29 2.12,-10.94 5.97,-22.67 15.15,-29.74zm-295.36 -1.17c13.64,-6.03 28.85,-6.84 43.55,-6.84 25.4,0.08 50.8,0.01 76.21,0.01 18.24,0.38 38.19,3.91 51.47,17.5 12.09,12.38 15.95,30.04 17.71,46.69 1.83,15.49 1.34,31.12 1.46,46.7 -0.25,67.76 0.44,135.57 -0.33,203.33 -23.86,-0.28 -47.75,-0.08 -71.6,-0.03 -0.73,-31.89 0.28,-63.83 -0.54,-95.72 -26.78,0.28 -53.56,0.19 -80.33,0 -0.73,31.89 0.36,63.83 -0.56,95.72 -23.74,-0.17 -47.5,-0.16 -71.26,0 -0.95,-26.78 -0.16,-53.61 -0.37,-80.42 -0.04,-48.76 0,-97.54 -0.05,-146.3 0.25,-16.14 1.3,-32.5 6.45,-47.91 4.21,-14.21 14.48,-26.81 28.19,-32.73zm37.37 47.78l0 0c0.07,36.78 -0.24,73.55 0.17,110.32 26.79,-0.21 53.59,-0.14 80.39,0 0.65,-36.77 0.18,-73.57 0.21,-110.36 -26.93,-0.19 -53.86,-0.28 -80.77,0.04zm-387.43 -54.61c23.93,-0.37 47.88,-0.18 71.81,-0.09l0.93 0.86c0.94,27.67 -2.06,55.88 4.57,83.09 5.1,19.86 19.16,36.06 34.88,48.51 11.2,-8.17 20.93,-18.81 27.97,-30.84 6.49,-10.87 8.88,-23.56 10.3,-35.97 2.55,-21.75 0.99,-43.66 1.72,-65.48 24.12,-0.48 48.25,-0.25 72.37,-0.11 0.62,14.68 0.02,29.39 0.28,44.1 -0.17,24.04 -0.79,48.92 -10.14,71.45 -7.29,17.03 -21.53,29.93 -37.32,39.03 -1.13,0.79 -4.23,2.14 -2.22,3.78 7.11,5.31 15.14,9.43 21.44,15.83 11.66,10.23 19.25,24.45 23.14,39.35 7.24,31.11 4.45,63.25 5.15,94.9 -0.35,1.82 1.02,6.12 -2.21,5.69 -23.25,-0.02 -46.51,0.12 -69.74,-0.07l-0.89 -0.8c-0.38,-27.14 1.53,-54.66 -4.34,-81.36 -4.75,-20.1 -18.75,-36.4 -34.42,-49.15 -1.91,-0.78 -3.33,1.25 -4.66,2.23 -8.29,7.82 -16.77,15.75 -22.58,25.65 -5.38,8.13 -8.2,17.6 -10.34,27.03 -4.31,25.26 -2.38,51 -2.85,76.51 -24.19,-0.07 -48.37,-0.03 -72.55,0.03 -0.95,-6.53 -0.4,-13.13 -0.51,-19.71 0.14,-18.38 -0.55,-36.81 1.19,-55.15 1.36,-19.46 5.9,-39.53 17.92,-55.33 8.32,-11.41 20.57,-18.78 31.98,-26.67 -10.84,-7.8 -22.87,-14.53 -30.99,-25.46 -12.75,-15.43 -17.01,-35.72 -18.92,-55.14 -1.74,-25.53 -1.28,-51.14 -0.97,-76.71zm-240.99 3.66c9.62,-2.78 19.72,-3.33 29.67,-3.66 39.54,0.08 79.06,-0.17 118.61,0.16 0.1,17.79 0.43,35.62 -0.14,53.4 -2.87,1.5 -6.46,0.4 -9.58,0.71 -36.34,0.14 -72.69,-0.4 -109.02,0.36 -0.36,24.92 -0.42,49.9 0,74.82 39.59,0.27 79.19,-0.09 118.78,0.17 0,18.21 0.38,36.43 -0.17,54.63 -39.43,0.32 -78.88,0.18 -118.33,0.07 -1.04,7.64 -0.36,15.37 -0.53,23.05 0.27,17.21 -0.34,34.46 0.25,51.68 39.42,0.24 78.85,0.39 118.27,-0.06 1.1,18.32 0.76,36.79 0.2,55.14 -63.61,0 -127.24,-0.1 -190.85,0.01 -0.03,-74.51 0.03,-149.02 -0.01,-223.51 0.73,-20.86 0.84,-42.86 10.97,-61.7 6.39,-12.51 18.52,-21.41 31.88,-25.27zm-289.48 -3.39c29.67,-0.61 59.38,-0.06 89.07,-0.27 31.72,0.11 63.42,-0.2 95.13,0.18 0.37,17.85 0.38,35.73 0,53.59 -18.63,0.38 -37.27,0.32 -55.9,0.05 -0.97,4.42 -0.83,8.97 -0.75,13.48 -0.01,82.24 -0.01,164.5 0,246.75 -23.62,0.22 -47.25,-0.19 -70.87,0.19 -0.5,-86.47 0,-172.94 -0.25,-259.42 -18.78,0.23 -37.57,-0.02 -56.35,0.07 -0.44,-18.2 -0.22,-36.41 -0.08,-54.62zm570.76 -625.12l0 0c-0.87,7.21 0.84,14.43 2.82,21.33 5.66,18.52 15.41,35.49 26.24,51.42 1.15,1.42 1.99,3.33 3.83,4.03 51.82,-7.88 105.69,-0.82 153.89,19.7 -31.1,-27.74 -70.17,-44 -108.69,-58.6 -27.12,-10.25 -53.4,-22.69 -78.09,-37.88zm278.29 178.47l0 0c0.21,16.53 2.68,33.99 12.42,47.83 5.3,7.11 12.94,13.92 22.36,13.81 9.09,0.61 18.19,-5.66 20.55,-14.51 0.94,-4.83 -0.7,-9.64 -2.31,-14.15 -5.27,9.81 -13.45,18.68 -24.32,22.11 4.93,-11.41 10.6,-23.13 10.79,-35.79 -2.6,-3.24 -6.41,-5.16 -9.8,-7.42 -9.2,-5.43 -19.12,-10.01 -29.69,-11.88z"/>
  </g>
 </g>
</svg>
