<?xml version="1.0" encoding="UTF-8"?>
<!DOCTYPE svg PUBLIC "-//W3C//DTD SVG 1.1//EN" "http://www.w3.org/Graphics/SVG/1.1/DTD/svg11.dtd">
<!-- Creator: CorelDRAW -->
<svg xmlns="http://www.w3.org/2000/svg" xml:space="preserve" width="2000px" height="1600px" version="1.1" style="shape-rendering:geometricPrecision; text-rendering:geometricPrecision; image-rendering:optimizeQuality; fill-rule:evenodd; clip-rule:evenodd"
viewBox="0 0 2000 1600"
 xmlns:xlink="http://www.w3.org/1999/xlink">
 <defs>
  <style type="text/css">
   <![CDATA[
    .fil4 {fill:#1699D3;fill-rule:nonzero}
    .fil1 {fill:#172552;fill-rule:nonzero}
    .fil2 {fill:#C09963;fill-rule:nonzero}
    .fil3 {fill:#DEDFDD;fill-rule:nonzero}
    .fil0 {fill:#FEFEFE;fill-rule:nonzero}
   ]]>
  </style>
 </defs>
 <g id="Capa_x0020_1">
  <metadata id="CorelCorpID_0Corel-Layer"/>
  <g id="The_x0020_Citadel_x0020_Bulldogs.cdr">
   <path class="fil0" d="M378.36 1265.33c10.78,0.35 21.51,1.74 32.15,3.47 -5.73,21.77 -11.63,43.53 -17.94,65.13 -3.01,-7.91 -3.88,-16.39 -5.69,-24.59 -2.8,-14.67 -6.17,-29.24 -8.52,-44.01zm111.05 -14.6c8.44,-5.64 17.75,-9.76 26.99,-13.87 5.45,21.03 8.82,42.53 12.93,63.85 -14.19,-15.91 -27.14,-32.94 -39.92,-49.98zm-210.46 -21.41c9.93,2.83 18.73,8.28 27.87,12.89 -1.56,3.58 -3.24,7.14 -5.51,10.34 -10.97,15.62 -21.25,31.83 -34.22,45.91 4.01,-23.03 6.95,-46.27 11.86,-69.14zm321.24 -61.05c3.47,2.19 5.9,5.56 8.46,8.7 10.66,13.41 21.33,26.88 30.87,41.15 -18,-8.78 -35.46,-18.59 -53.2,-27.91 3.72,-7.85 8.88,-14.89 13.87,-21.94zm-442.04 45.98c12.63,-20.78 26.82,-40.55 41.93,-59.58 5.58,8.17 10.82,16.63 15.42,25.39 -18.68,12.04 -38.11,23.01 -57.35,34.19zm-32.63 -139.85c13.98,-6.66 27.81,-13.67 42.21,-19.45 2.78,9.11 5.01,18.4 6.21,27.87 -23.22,2.11 -46.57,3.24 -69.86,2.63 6.66,-4.57 14.24,-7.47 21.44,-11.05zm500.37 -21.47c10.4,4.25 19.67,10.65 29.39,16.21 11.92,7.32 24.21,14.2 35.25,22.84 -19.42,-0.95 -38.85,-1.64 -58.26,-2.47 -2.99,-0.04 -5.89,-0.84 -8.75,-1.6 -0.15,-11.68 -1.5,-23.72 2.37,-34.98zm-136 -61.42c2.4,-3.57 4.72,-7.91 9.29,-8.96 4.57,2.21 4.99,7.85 6.72,12.02 -5.42,-0.55 -10.74,-1.77 -16.01,-3.06zm-23.53 -2.67c2.36,-4.34 5.6,-8.1 9.79,-10.78 3.41,3.37 5.66,7.6 6.84,12.25 -5.6,0.36 -11.18,-0.21 -16.63,-1.47zm-47.48 1.54c1.65,-3.67 3.52,-8.13 7.81,-9.25 4.11,0.66 5.88,5.27 8.32,8.17 -5.32,1.08 -10.74,1.29 -16.13,1.08zm26.97 -2.04c1.26,-4.45 4.17,-8 7.73,-10.83 4.36,2.68 7.98,6.42 9.64,11.37 -5.79,0.28 -11.6,0.13 -17.37,-0.54zm-347.39 -19.42c22.89,-4.06 46.23,-4.58 69.37,-6.19 -0.17,9.73 -2.29,19.25 -4.02,28.78 -22.04,-6.73 -43.66,-14.82 -65.35,-22.59zm435.92 -8.08c0.99,-3.09 1.56,-8.67 6.21,-7.26 5.07,2.19 6.95,7.81 8.17,12.76 3.41,13.78 3.68,29.2 -3.39,41.95 -10.55,-3.79 -21.05,-7.68 -31.56,-11.53 9.26,-10.36 17.01,-22.36 20.57,-35.92zm99.01 -10.32c21.98,4.4 43.7,10.19 65.07,16.97 -21.64,5.96 -43.47,11.29 -65.6,14.93 0.02,-10.65 -0.21,-21.28 0.53,-31.9zm-161.03 -16.48c4.21,-4.27 11.74,-5.3 16.23,-0.91 2.97,10.87 -0.74,23.39 -9.56,30.62 -5.07,-4.3 -7.34,-10.68 -10.78,-16.17 -3.03,5.79 -5.11,12.06 -8.57,17.64 -5.64,-3.79 -8.1,-10.21 -11.24,-15.88 3.5,-4.41 7.2,-8.75 11.58,-12.31 3.52,-3.09 9.07,0.69 12.34,-2.99zm23.32 -2.27c5.23,-10.02 20.53,-14.8 28.95,-6 9.88,20.57 -8.21,51.66 -32.4,47.55 5.29,-13.11 8.4,-27.76 3.45,-41.55zm-121.26 -14.21c5.58,-4.76 13.5,-9.16 20.84,-5.69 -6.69,2.72 -13.58,5.2 -20.84,5.69zm278.23 -53.16c0.11,-4.02 -1.05,-9.6 2.7,-12.3 6.88,-0.73 13.81,0.15 20.71,0.55 -7.54,4.44 -15.18,8.78 -23.41,11.75zm-529.2 -12.25c4.82,-0.62 8,2.54 8.78,7.15 -3.14,-2.12 -6.06,-4.54 -8.78,-7.15zm175.88 -2.99c3.07,3.97 7.36,7.6 8.54,12.59 -1.91,11.01 -3.81,22.06 -4.38,33.26 -5.41,-14.59 -5.49,-30.55 -4.16,-45.85zm188.06 22.65c-3.31,-9.08 -1.83,-20.48 6.97,-25.87 1.41,8.21 0.04,16.5 -0.28,24.75 -2.25,0.32 -4.48,0.7 -6.69,1.12z"/>
   <path class="fil1" d="M383.16 185.72l16.27 0c11.26,1.31 22.95,5.08 30.46,14.05 7.71,9.28 11.25,21.6 10.55,33.58 -2.04,66.76 -6.23,133.43 -10.84,200.04 -0.29,10.9 -5.71,21.14 -14.31,27.77 -1.04,11.87 -0.59,24.06 -4.93,35.37 32.53,1.66 64.92,7.15 96.04,16.82 13.51,4.37 27.52,9.47 37.47,20.1 3.65,3.87 3.48,9.81 1.67,14.49 -6.43,18.21 -12.4,36.58 -17.58,55.17 54.86,15.84 106.38,43.14 150.17,79.79 6.08,4.61 11.24,11.58 19.17,12.89 8.83,0.21 11.31,-9.77 14.03,-16.26 0.71,-3.53 4.82,-3.36 7.45,-4.63 0.59,90.43 0.15,180.89 0.23,271.33 -3.47,-0.02 -6.91,-0.04 -10.36,-0.06 -5.81,-31.67 -14.71,-62.8 -27.07,-92.55 -10.3,5.73 -20.59,11.52 -30.68,17.62 -0.58,14.78 3,30.42 -2.81,44.53 -4.47,9.41 -16.49,9.16 -25.37,8.88 0.27,4.53 -0.13,9.26 1.47,13.6 2.17,0.91 4.4,1.66 6.65,2.44 1.96,3.71 4.87,7.04 9.29,7.64 23.39,5.52 46.78,11.27 69.43,19.39 -25.43,7.29 -51.2,13.21 -76.99,19.1 -2.32,3.33 -5.31,6.11 -8.95,7.98 0.76,14.34 -3.24,28.27 -5.72,42.27 2.62,0.86 5.26,1.58 7.81,2.65 1.49,4.13 1.01,9.77 5.62,11.98 23.87,13.37 46.96,28.04 70.27,42.32 -25.92,1.1 -51.87,-0.15 -77.79,-0.97 -2.72,24.25 -11.81,47.08 -21.54,69.26 13.35,16.99 26.89,33.84 39.94,51.08 26.04,-27.73 46.65,-60.44 61.03,-95.62 6.7,-15.01 10.8,-31.92 6.99,-48.24 -1.3,-6.18 -5.11,-11.32 -8.74,-16.27 1.92,-2.23 2.87,-7.94 6.68,-4.93 18.9,8.95 37.24,19 56.1,28.07 0.07,-56.93 -0.06,-113.87 0.05,-170.78 -0.07,-8.86 -0.99,-17.96 -4.64,-26.11 -2.56,-6.06 -8.52,-9.39 -13.36,-13.36 5.17,-0.68 10.37,-1.08 15.57,-0.97 31.18,0.19 62.36,-0.13 93.54,0.17 -11.54,7.39 -14.17,21.97 -14.93,34.65 0,73.66 -0.06,147.32 0.01,220.97 0.27,10.77 10.29,17.07 16.44,24.65 -2,3.37 -6.19,2.15 -9.35,2.55 -15.94,-0.11 -31.87,-0.03 -47.79,-0.09 -26.13,68.11 -70.5,129.16 -127.39,174.84 -54.78,44.24 -121.03,74.22 -190.53,85.69 -18.56,3.24 -37.36,4.69 -56.16,5.68l-24.76 0c-69.2,-2.29 -137.85,-21.68 -197.47,-56.99 -62.89,-37.05 -115.67,-91.01 -151.31,-154.71 -31.24,-55.45 -48.78,-118.23 -52.19,-181.71l0 -39.95c1.58,-24.05 4.4,-48.07 9.83,-71.6 14.3,-63.86 44.26,-124.11 86.36,-174.22 45.33,-54.19 104.72,-96.52 170.84,-121.43 -6.82,-21.22 -15.47,-41.85 -25.51,-61.74 -3.39,-5.92 -0.38,-13.27 4.92,-16.89 12.07,-8.69 26.09,-14.08 40.07,-18.82 29.47,-9.75 59.95,-16.86 90.94,-19.39 -7.05,-9.58 -5.95,-21.98 -6.71,-33.2 -11.22,-5.64 -13.56,-18.95 -15.33,-30.17 -6.32,-49.93 -11.68,-99.98 -15.87,-150.14 -1.29,-16.62 -2.61,-33.27 -2.72,-49.96 -0.44,-10.8 5.14,-20.59 11.26,-29.06 8.15,-11.15 21.58,-17.22 35.08,-18.59zm1416.71 684.38c6.93,-1.22 14,-1.17 21.05,-1.11 30.24,0.31 60.53,-0.32 90.78,0.29 -1.87,9.5 -12.88,13.14 -15.13,22.42 -3.84,9.98 -2.64,20.78 -2.76,31.22 -0.04,58.8 0.08,117.6 -0.06,176.4 18.97,-1.28 37.93,1.29 56.9,0.59 13.52,-0.65 29.12,-3.89 37.1,-16 3.57,-4.56 4.71,-13.07 12.25,-11.58l0 77.67c-66.57,-0.11 -133.16,0.23 -199.73,-0.17 2.76,-6.99 8.8,-11.62 13.54,-17.16 3.7,-4.25 4.25,-10.19 4.32,-15.58 -0.11,-72.37 0,-144.73 -0.05,-217.11 0.15,-12.63 -8.88,-22.57 -18.21,-29.88zm28.53 7.65c8.33,3.47 16.31,8 25.01,10.52 11.14,-2.4 21.7,-7.09 32.61,-10.38 -19.2,-0.5 -38.42,-0.27 -57.62,-0.14zm-4.7 4.33c1.06,5.31 2.32,10.63 2.45,16.07 0.29,71.07 -0.45,142.16 0.59,213.22 0.52,8.67 -1.54,17.16 -4.76,25.17 9.83,-4.02 20.36,-6.56 29.64,-11.76 0.69,-76.93 0.02,-153.92 0.32,-230.89 -9.37,-4.06 -18.8,-7.96 -28.24,-11.81zm34.4 11.81c0.07,75.56 -0.12,151.14 0.09,226.72 9.24,-4.86 17.53,-11.22 25.98,-17.29 0.25,-27.78 0.04,-55.55 0.12,-83.32 0.23,-35.6 -1.03,-71.2 -0.35,-106.8 0.98,-10.27 4.92,-19.92 6.99,-29.96 -10.97,3.5 -21.92,6.99 -32.83,10.65zm52.41 213.2c-15.79,-0.27 -33.21,3.2 -43.73,16.04 34.94,0.41 69.89,0.15 104.84,0.13 4.46,-7.85 9.09,-15.6 13.52,-23.45 -22.85,12.88 -49.75,7.2 -74.63,7.28zm66.27 19.01c4.61,3.84 9.28,7.69 14.02,11.41 0.15,-12.19 0.42,-24.38 -0.21,-36.56 -5.08,8.12 -9.37,16.67 -13.81,25.15zm-149.6 15.62c52.57,0.36 105.16,0.21 157.73,0.07 -4.18,-4.13 -8.32,-8.32 -12.28,-12.65 -34.67,-0.17 -69.32,-0.07 -103.98,-0.07 -14.8,-0.15 -28.29,6.78 -41.47,12.65zm-491.92 -271.36c2.23,-1.73 4.72,-2.36 7.5,-1.88 47.64,3.54 95.62,-3.66 143.11,3.2 28.09,3.77 56.7,14.61 75.54,36.65 23.7,27.33 31.18,64.95 30.53,100.24 -0.26,45.98 -19.18,94.04 -57.48,121.32 -28.06,19.14 -63.49,20.59 -96.31,20.13 -34.7,-1.03 -69.42,-0.11 -104.15,-0.67 1.11,-6.26 7.14,-8.83 11.54,-12.45 3.68,-2.97 4.65,-7.91 5.77,-12.25 3.64,-18.15 4.33,-36.73 5.22,-55.18 2,-55.24 1.09,-110.53 -0.83,-165.75 -0.1,-13.93 -8.31,-26.77 -20.44,-33.36zm30 5.91c10.04,3.83 20.11,7.96 30.68,10.07 22.8,1.36 45.77,0.27 68.52,3.2 24.74,2.77 50.65,11.68 66.3,32.14 17.74,23.64 23.97,54 24.52,83.05 0.49,38.24 -11.47,77.65 -38.23,105.71 -7.51,7.5 -17.3,12.34 -27.43,15.14 -24.93,6.48 -50.95,3.34 -76.38,3.49 -16.27,-0.48 -31.66,5.71 -46.78,10.89 25.2,0.61 50.38,1.68 75.58,2.42 31.92,0.04 66.4,-3.77 92.21,-24.4 28.89,-23.48 44.36,-60.34 47.35,-96.87 2.15,-28.31 -1.88,-57.49 -13.48,-83.51 -11.74,-26.27 -36.27,-45.08 -63.53,-53.12 -45.14,-13.68 -92.89,-8.86 -139.33,-8.21zm-5.7 5.73c2.27,7.16 5.77,14.17 5.72,21.87 -0.02,67.92 -0.08,135.85 0.02,203.77 0.13,9.47 -4.42,18.08 -6.69,27.07 11.26,-3.32 22.34,-7.2 33.6,-10.61 0.4,-77.26 0.06,-154.54 0.17,-231.79 -10.91,-3.55 -21.79,-7.18 -32.82,-10.31zm44.57 11.32c6.9,4.22 13.6,8.76 20.67,12.74 4.63,2.84 10.21,0.74 15.3,0.74 18.85,-1.41 39.82,1.58 54.03,15.18 15.34,13.53 22.63,34.04 23.7,54.08 1.37,22.72 2.59,45.75 -0.95,68.34 -3.47,22.4 -13.41,45.07 -32.04,58.86 -15.35,10.47 -34.78,9.39 -52.5,9.14 -8.83,1.94 -16.57,7.16 -24.68,11.01 27.64,-0.61 55.92,3.98 83.03,-3.47 16.32,-6.17 28.4,-20.02 37.73,-34.28 9.07,-13.18 12.42,-29.11 15.94,-44.44 6.9,-33.98 7.22,-71.41 -9.64,-102.67 -9.84,-19.1 -28.45,-32.53 -48.85,-38.49 -26.4,-8.08 -54.42,-7.75 -81.74,-6.74zm-5.04 5.02c0,73.89 -0.16,147.78 0.07,221.64 8.27,-3.9 16.57,-7.79 24.71,-12.02 -0.25,-64.76 0.21,-129.52 -0.23,-194.28 -8.29,-4.97 -16.25,-10.44 -24.55,-15.34zm36.68 18.99c-0.07,62 -0.09,124.02 0,186.04 10.36,0.82 21.09,0.9 31.05,-2.51 14.82,-4.88 25.77,-17.64 32,-31.54 10.53,-24.46 9.81,-51.76 9.71,-77.87 -1.02,-21.54 -4.81,-45.22 -20.81,-61.07 -13.62,-13.22 -33.95,-15.24 -51.95,-13.05zm142.86 -48.24c7.01,-1.56 14.23,-0.92 21.35,-1.01 61.74,0 123.49,0.04 185.22,-0.02 -0.11,22.36 0.46,44.76 -0.3,67.1 -7.97,-3.18 -12.27,-11.79 -20.67,-14.42 -27.56,-11.06 -57.54,-1.35 -86.13,-4.13 0.05,20.21 -0.14,40.4 0.09,60.61 25.47,-1.12 51.45,3.89 76.48,-2.74 8.59,-2.02 15.9,-7.13 23.31,-11.66 1.13,25.35 0.71,50.84 0.21,76.21 -5.35,-1.45 -9.81,-4.61 -13.86,-8.19 -4.23,-4.04 -10.5,-3.03 -15.78,-3.62 -23.46,-0.89 -46.99,-0.84 -70.45,0.02 0,25.05 0,50.1 0,75.16 24.13,-3.18 48.49,2.17 72.62,-1.03 11.15,-1.52 22.61,-5.84 29.81,-14.87 2.18,-2.92 4.77,-5.53 8.39,-6.57 0.3,23.35 0.05,46.72 0.13,70.07 -68.72,0.02 -137.47,-0.02 -206.21,0.02 -3.09,0.5 -6.51,-0.74 -6.51,-4.36 6.28,-3.96 13.39,-7.32 17.29,-14 9.89,-14.29 8.3,-32.36 8.29,-48.82 -0.02,-53.33 0.05,-106.69 -0.04,-160.02 -0.84,-13.49 -0.46,-28 -7.68,-39.96 -3.66,-6.13 -10.4,-9.18 -15.56,-13.77zm30.13 6.72c13.11,5.73 25.93,14.97 40.86,13.79 36.76,-0.19 73.54,-0.04 110.31,-0.07 3.82,-4.58 7.59,-9.2 11.33,-13.87 -54.17,0.19 -108.33,-0.08 -162.5,0.15zm157.2 16.08c3.45,5.6 6.9,11.22 10.65,16.63 0.08,-10.04 0.08,-20.06 0.02,-30.1 -3.85,4.25 -7.39,8.76 -10.67,13.47zm-160.21 -9.28c9.34,21.72 6.4,45.77 6.27,68.74 -0.27,41.95 -0.04,83.89 -0.11,125.85 -0.4,19.64 0.15,39.94 -7.72,58.38 11.3,-4.17 22.73,-8 33.98,-12.36 -0.32,-76.08 0.27,-152.17 -0.3,-228.27 -10.82,-3.81 -21.35,-8.38 -32.12,-12.34zm49.18 14.25c7.72,4.99 16.33,8.59 25.43,10.11 22.57,3.85 45.47,-0.19 68.19,0.71 8.84,0.13 16.46,5.14 24.61,7.88 -4.36,-6.51 -8.87,-12.93 -13.35,-19.37 -34.95,0.21 -69.92,0.54 -104.88,0.67zm-10.22 2.93c0.47,32.02 -0.48,64.04 -0.39,96.06 8.6,-4.31 16.79,-9.35 25.15,-14.08 -0.02,-23.96 0.3,-47.92 -0.17,-71.88 -8.18,-3.43 -16.25,-7.11 -24.59,-10.1zm35.1 85.98c-10.32,2.82 -19.31,9.3 -28.74,14.23 34.74,0.06 69.46,-0.09 104.21,0.06 3.35,-6.12 6.59,-12.31 9.67,-18.57 -27.86,7.41 -56.78,3.37 -85.14,4.28zm80.59 17.22c2.76,4.12 5.58,8.21 8.53,12.23 0.18,-9.43 0.2,-18.86 0,-28.29 -3.14,5.19 -5.9,10.6 -8.53,16.06zm-111.18 2.74c8.06,4.31 16,9.72 25.14,11.26 29.41,-0.8 58.9,-1.08 88.25,1.3 -3.6,-4.33 -5.22,-12.86 -12.04,-12.57 -33.79,-0.02 -67.56,0 -101.35,0.01zm-4.3 4.06c-0.02,36.57 -0.54,73.14 -0.63,109.72 8.51,-3.77 17.24,-7.68 24.3,-13.85 1.13,-28.06 0.02,-56.23 0.53,-84.32 -8,-4.04 -16.05,-7.93 -24.2,-11.55zm111.42 99.16c-16.49,2.25 -33.16,0.88 -49.75,1.01 -19.08,-0.19 -39.62,1.32 -55.66,12.77 37.57,1.35 75.22,0.28 112.82,0.55 4.67,-7.2 9.43,-14.36 13.74,-21.81 -6.96,2.7 -13.68,6.4 -21.15,7.48zm13.13 17.55c3.46,3.37 6.95,6.7 10.51,10.02 0.02,-9.05 0.02,-18.1 0.08,-27.15 -3.79,5.55 -7.28,11.28 -10.59,17.13zm-134.42 4.87c-8.69,2.99 -17.41,5.91 -25.85,9.57 54.25,0.03 108.5,0.01 162.74,0 -2.36,-4.04 -5.06,-7.85 -7.9,-11.55 -34.99,0.31 -69.98,0.08 -104.95,0.14 -8.04,0.11 -16.35,-0.98 -24.04,1.84zm-507.56 -260.05c0.91,-2.44 3.35,-2.94 5.71,-2.77 31.62,0 63.26,0.04 94.88,0 -2.5,16.02 0,32.44 5.35,47.64 24.21,67.66 48.19,135.39 73.05,202.82 3.98,10.88 12.83,19.03 17.06,29.81 -38.19,0.63 -76.4,-0.11 -114.61,0.38 6.79,-6.51 12.94,-14.67 12.99,-24.49 0.42,-18.75 -9.81,-35.28 -14.7,-52.86 -21.6,0.11 -43.18,0.08 -64.76,0.02 -4.84,17.01 -14.5,32.91 -14.92,50.93 -0.53,10.04 5.28,18.8 12.04,25.62 -12.19,1.28 -24.47,0.36 -36.7,0.63 -20.88,-0.23 -41.77,0.48 -62.63,-0.38 3.12,-7.07 10.8,-10.08 14.84,-16.42 20.03,-27.68 30.03,-60.76 40.72,-92.8 14.95,-43.66 29.56,-87.43 44.53,-131.07 2.67,-7.94 3.01,-16.91 -0.21,-24.74 -2.22,-5.81 -8.43,-8.25 -12.64,-12.32zm28.11 6.3c4.71,4.17 9.09,8.91 14.67,11.91 14.7,3.8 27.75,-5.09 40.02,-11.78 -18.23,-0.3 -36.46,-0.05 -54.69,-0.13zm34.36 18.65c26.14,76.11 54.16,151.56 81.35,227.29 11.57,4.4 22.84,9.55 34.48,13.78 -3.47,-7.32 -7.52,-14.37 -10.32,-21.97 -24.55,-67.77 -48.8,-135.65 -72.86,-203.62 -2.74,-9.75 -2.65,-20.01 -3.91,-30.02 -9.67,4.65 -19.31,9.4 -28.74,14.54zm-37.71 -11.93c0.87,13.13 -2.71,25.91 -6.21,38.42 -7.58,25.7 -17.68,50.56 -26.29,75.91 -5.86,17.67 -11.86,35.29 -18.17,52.82 -10.7,28.8 -20.65,58.28 -37.03,84.49 7.95,-3.03 16.16,-5.35 23.98,-8.65 2.44,-0.78 2.82,-3.61 3.79,-5.61 24.65,-72.44 49.55,-144.82 74.27,-217.24 3.41,-9.81 -7.69,-15.55 -14.34,-20.14zm20.11 12.86c1.7,8.86 -3.18,16.82 -5.69,24.97 -13.6,39.74 -27.95,79.2 -41.16,119.05 7.98,-7.2 19.73,-12.11 22.66,-23.33 6.69,-20.4 13.34,-40.82 21.26,-60.78 1.24,-2.84 2.25,-6.02 4.84,-7.95 11.01,25.6 18.53,52.56 29.58,78.16 10.02,5.08 20,10.22 30.19,14.97 -16.36,-49.03 -34.36,-97.53 -51.3,-146.36 -3.48,0.32 -6.93,0.76 -10.38,1.27zm-0.21 77.7c-5.2,15.33 -10.24,30.7 -15.39,46.05 11.26,0 22.5,-0.03 33.75,0.04 -6.09,-15.37 -11.8,-30.89 -18.36,-46.09zm-41.41 70.05c31.3,0.39 62.65,0.63 93.95,-0.13 -8.12,-4.97 -16.78,-8.93 -25.24,-13.26 -6.84,-3.79 -14.88,-2.3 -22.33,-2.51 -8.17,0.3 -16.45,-0.78 -24.55,0.59 -7.85,4.21 -14.63,10.11 -21.83,15.31zm-1.22 6c3.26,4.27 6.58,8.5 9.89,12.77 22.08,0.24 44.17,-0.04 66.27,0.17 10.42,1.22 17.48,-7.76 25.37,-12.94 -33.85,0 -67.7,0.02 -101.53,0zm-31.44 75.59c7.1,3.31 14.21,6.64 21.37,9.88 -1.14,-7.05 -2.02,-14.27 -0.84,-21.39 2.23,-16.53 11.12,-31.28 13.96,-47.64 -2.76,-4.87 -6.66,-8.99 -10.17,-13.31 -9.08,23.79 -16.21,48.32 -24.32,72.46zm118.76 -56.88c6.7,21.79 17.39,43.41 14.86,66.88 10.57,-4.42 21.42,-8.2 31.5,-13.76 -8.25,-22.59 -16.53,-45.16 -25.07,-67.64 -7.16,4.75 -14.28,9.53 -21.29,14.52zm-146.84 71.28c13.83,-0.23 27.72,0.76 41.49,-0.82 -5.81,-3.41 -11.68,-7.09 -18.27,-8.71 -8.17,1.91 -15.71,5.87 -23.22,9.53zm168.17 -0.35c19.77,0.52 39.55,0.38 59.34,0.33 -10.63,-4.63 -21.76,-7.91 -32.71,-11.55 -8.87,3.74 -17.88,7.18 -26.63,11.22zm-368.61 -277.18c9.83,1.01 19.62,2.84 29.55,2.8 52.01,-0.06 104.05,-0.02 156.09,-0.02 7.41,-0.06 14.67,-1.73 21.94,-2.97 0.16,24.15 -0.32,48.31 -0.8,72.46 -4.32,-7.93 -11.02,-15.32 -20.28,-16.99 -15.13,-1.81 -30.4,-1.05 -45.56,-0.21 0.32,54.76 -0.79,109.48 -0.5,164.25 0.32,16.53 -2.09,34.11 5.92,49.37 3.03,7.92 13.41,8.59 16.61,16.53 -40.13,0.86 -80.3,0.42 -120.45,0.21 3.5,-11.16 17.12,-14.53 20.24,-25.75 1.19,-3.77 1.47,-7.76 1.51,-11.68 -0.1,-64.23 0.04,-128.46 -0.06,-192.68 -15.37,-2.77 -31.03,-1.19 -46.4,0.62 -7.83,2.29 -11.01,10.75 -15.64,16.63 -0.59,-0.09 -1.77,-0.32 -2.36,-0.44 -0.74,-24.01 -0.36,-48.09 0.19,-72.13zm15.39 9.58c4.27,5.7 8.71,11.24 13.13,16.84 50.21,0.36 100.43,0.1 150.66,0.13 5.05,-5.6 10.14,-11.16 14.96,-16.95 -59.59,-0.25 -119.17,-0.21 -178.75,-0.02zm-6.36 3.45c-0.02,10.76 0.04,21.5 -0.25,32.27 5.41,-4.82 10.19,-10.29 14.54,-16.08 -4.59,-5.54 -9.3,-11.01 -14.29,-16.19zm175.66 18.46c4.46,5.67 9.1,11.22 13.88,16.64 -0.07,-10.85 0,-21.71 -0.09,-32.55 -4.84,5.09 -9.35,10.46 -13.79,15.91zm-169.05 16.34c19.24,-4.25 39.2,-1.77 58.74,-1.45 -0.3,67.89 -0.02,135.77 -0.15,203.66 -0.23,7.41 -3.05,14.36 -4.89,21.45 10.21,-4 21.81,-5.49 30.8,-11.98 0.7,-74.92 0.11,-149.89 0.28,-224.82 -23.69,-0.02 -47.39,0 -71.08,0 -4.65,4.3 -9.24,8.66 -13.7,13.14zm91.05 -13.16c-0.27,75.16 0.25,150.32 -0.25,225.48 10.13,5.01 20.61,9.24 30.92,13.87 -2.88,-9.05 -5.43,-18.36 -5.07,-27.94 0.27,-66.38 -0.25,-132.76 0.25,-199.15 18.68,0.21 37.35,0.21 56.03,0.02 -3.02,-4.11 -6.11,-8.17 -9.18,-12.21 -24.24,-0.13 -48.47,-0.02 -72.7,-0.07zm-3.85 231.52c-8.93,2.9 -17.58,6.61 -26.42,9.81 17.66,1.12 35.39,0.61 53.07,0.31 -6.67,-3.2 -13.41,-6.23 -20.25,-9.03 -2.06,-0.69 -4.21,-1.98 -6.4,-1.09zm134.46 -357.88c10.44,-2.16 20.23,-6.48 29.86,-10.97 -0.72,5.16 3.2,15.14 -4.43,15.8 -0.75,-1.25 -2.25,-3.79 -2.99,-5.04 -3.41,1.24 -6.8,2.49 -10.18,3.79 -1.22,15.65 -1.27,31.37 -0.38,47.06 2.08,1.2 4.18,2.4 6.29,3.6 -8.72,5.7 -19.33,7.76 -29.56,8.48 2.02,-2.44 4.11,-4.84 6.28,-7.16 0.29,-15.93 0.17,-31.87 0.04,-47.79 -3.2,0.76 -6.38,1.52 -9.56,2.36 -1.28,4.4 -2.74,8.97 -8.12,9.12 -0.57,-4.42 -1.21,-8.85 -1.35,-13.31 7.6,-3.33 16.12,-3.73 24.1,-5.94zm63.06 -31.3c5.83,-5.85 13.87,-8.61 21.6,-11.03 1,4.06 -1.58,7.01 -4.21,9.7 -0.28,16.99 -0.24,33.98 -0.03,50.97 2.05,2.06 4.38,4.19 4.51,7.35 -5.48,4.61 -12.51,7.03 -19.08,9.66 -5.51,-0.69 -1.34,-6.67 0.89,-8.86 0.19,-8.23 -0.25,-16.44 -0.4,-24.67 -4.06,1.47 -8.09,2.96 -12.11,4.46 -0.14,8.27 -0.33,16.57 0.03,24.86 1.91,2.93 3.38,6.11 4.54,9.43 -7.79,3.31 -15.72,6.4 -23.93,8.59 -0.11,-3.85 2.21,-6.67 4.77,-9.2 0.26,-15.87 0.32,-31.75 -0.02,-47.6 -1.36,-1.72 -6.16,-4.1 -3.24,-6.69 5.67,-6.91 14.15,-10.84 22.44,-13.81 -0.69,4.31 -2.94,8.02 -4.69,11.95 -1.05,5.65 -0.65,11.44 -0.87,17.18 4.66,-1.64 9.27,-3.47 13.82,-5.49 -0.03,-6.82 -0.07,-13.66 -0.91,-20.42 -2.11,-1.62 -4.82,-3.39 -3.11,-6.38zm26.23 -10.91c14.97,-7.53 32.31,-4.61 47.97,-1.07 -0.71,4.15 -1.4,8.32 -2.2,12.48 -3.44,-3.19 -6.42,-6.9 -10.11,-9.81 -4.93,-2.65 -10.78,-1.22 -16.08,-1.03 0.06,7.45 -0.11,14.91 -0.43,22.36 5.65,0.38 10.17,-2.84 14.07,-6.55 0.95,5.24 1.66,10.59 1.01,15.92 -5.24,-0.17 -8.89,-5.9 -14.61,-4.95 -0.09,9.54 -0.05,19.1 -0.02,28.65 6.04,0.59 12.29,1.65 18.25,-0.1 2.53,-3.1 2.97,-7.47 5.81,-10.36 4.91,4.88 2.97,12.8 2.74,19.07 -14.97,-5.11 -30.49,-1.17 -45.35,1.98 1.05,-2.86 2.17,-5.7 3.47,-8.46 0.36,-17.6 0.93,-35.22 0.76,-52.82 -1.79,-1.77 -3.54,-3.54 -5.28,-5.31zm-64.61 14.7c22.58,-12.93 43.74,-30.59 70.23,-34.59 24.99,-3.22 53.49,-1.05 72.48,17.49 -12.63,26.47 -12.86,57.37 -5.51,85.37 1.05,4.4 2.92,8.63 3.26,13.18 -2.02,16.38 -14.32,30.21 -29.03,36.84 -4.28,1.14 -8.87,3.41 -13.33,2.21 -0.88,-3.18 1.39,-5.97 2.48,-8.78 6.76,-14.18 10.72,-30.6 7.14,-46.16 -13.91,-2.87 -28.5,-0.91 -41.66,4.17 -20.48,7.41 -38.48,20.63 -59.68,26.19 -34.99,10.37 -73.42,15.72 -108.78,4.14 -21.39,-6.69 -38.66,-22.42 -51.18,-40.59 -3.01,-4.44 -4.78,-9.56 -6.3,-14.67 17.45,8.5 35.33,17.49 54.99,19.11 9.98,1.1 20.13,-0.48 29.52,-3.99 -35.85,-12.03 -62.23,-47.54 -63.71,-85.21 7.24,5.33 12.85,12.51 20.11,17.84 18.88,15.34 42.88,25.68 67.54,24.12 18.14,-1.39 35.78,-7.49 51.43,-16.67zm-1.96 7.32c-21.86,12.11 -47.85,17.79 -72.59,12.8 -21.77,-3.8 -40.91,-15.97 -57.1,-30.54 6.19,27.2 25.86,50.76 51.44,61.83 6,2.53 12.63,3.31 18.56,6.11 0.05,0.58 0.19,1.68 0.24,2.23 -26.15,15.47 -58.91,9.93 -85.73,-0.99 15.6,20.29 37.89,36.1 63.32,40.88 32.17,6.21 65.42,-0.15 95.88,-11.14 14.23,-4.84 26.84,-13.24 40.67,-18.99 16.91,-7.45 35.5,-12.77 54.13,-10.27 8.69,1.03 16.78,4.55 24.73,8.09 -7.28,-27.21 -6.63,-56.62 3.5,-83.04 -15.7,-14.56 -38.71,-15.58 -58.88,-13.57 -29.25,4.01 -52.85,23.09 -78.17,36.6zm117.18 60.76c0.67,16.04 -3.43,31.67 -9.35,46.44 14.51,-4.52 27.12,-17.26 28.72,-32.71 -1.44,-9.12 -12,-11.29 -19.37,-13.73zm-967.12 -110.88c0.87,0.19 2.65,0.55 3.54,0.74 -0.4,0.86 -1.2,2.61 -1.6,3.47 0.88,2.82 1.79,5.89 -1.68,7.52 -0.19,-3.92 -0.28,-7.82 -0.26,-11.73zm9.9 9.96c-4.15,-2.7 -3.16,-9.46 -0.04,-12.68 0.06,1.67 0.18,5.01 0.23,6.68 0.12,1.98 0.56,4.06 -0.19,6zm12.59 -3.22c-2.51,-4.03 -3.41,-9.56 0.14,-13.29 0.19,4.42 0.19,8.86 -0.14,13.29zm204.61 -4.47c-0.15,-4.04 -1.41,-9.11 2.88,-11.49 -0.38,1.96 -0.78,3.93 -1.2,5.91 0.59,1.62 1.18,3.25 1.79,4.89 -0.88,0.17 -2.59,0.52 -3.47,0.69zm-187.81 -0.69c-5.65,-0.68 -3.41,-8.49 -1.41,-11.94 0.56,3.96 1.05,7.94 1.41,11.94zm172.57 -12.97c0.88,0.08 2.67,0.27 3.55,0.36 -0.48,0.99 -1.43,2.97 -1.91,3.98 0.67,1.79 1.32,3.6 1.98,5.41 -0.89,0.16 -2.72,0.48 -3.63,0.63 -0.02,-3.47 0,-6.93 0.01,-10.38zm-14.36 5.77c0.25,-3.71 0.17,-7.58 2.33,-10.78 -0.02,1.81 -0.06,5.43 -0.06,7.24 0.51,1.01 1.58,3.01 2.11,4.02 -1.1,-0.12 -3.27,-0.36 -4.38,-0.48zm-144.68 2c0.42,-3.92 0.7,-7.85 1.54,-11.67 0.88,3.82 1.56,7.73 2.32,11.61 -0.95,0.02 -2.89,0.04 -3.86,0.06zm134.05 -2.66c-5.02,-2.31 -4.07,-9.7 -0.59,-12.98 -0.15,2.08 -0.3,4.16 -0.45,6.25 0.34,2.23 0.7,4.46 1.04,6.73zm-97.12 -0.94c0.38,-4.05 -0.76,-9.07 3.11,-11.81 -0.35,2.17 -0.69,4.35 -1.03,6.5 0.59,1.64 1.2,3.27 1.81,4.91 -0.97,0.1 -2.92,0.31 -3.89,0.4zm81.39 -0.78c-3.48,-3.88 -3.33,-9.26 -0.36,-13.37 0.36,4.44 0.57,8.89 0.36,13.37zm-13.35 -1.12c-3.05,-3.68 -3.58,-9.22 -0.25,-12.9 0.31,4.29 0.44,8.59 0.25,12.9zm-31.66 -0.56c-5.14,-1.46 -5.54,-9.9 -0.61,-11.84 -0.38,2.02 -0.78,4.03 -1.18,6.05 0.44,1.45 1.33,4.35 1.79,5.79zm-20.87 -1.58c0.28,-3.65 0.57,-7.35 2.66,-10.45 0.29,4.17 0.44,8.34 0.57,12.53 -0.82,-0.53 -2.42,-1.56 -3.23,-2.08zm36.87 0.97c-5.64,-1.58 -2.93,-8.53 -1.9,-12.51 0.78,4.13 1.44,8.31 1.9,12.51zm-45.94 -231.63c5.35,-2.38 10.68,-5.34 16.66,-5.7 6.27,-0.51 12.18,2.1 17.97,4.1 -3.76,-8.38 -12.04,-15.68 -21.79,-13.91 -7.85,0.84 -10.86,9.05 -12.84,15.51zm11.54 1.33c-4.8,1.41 -12.21,4.04 -10.55,10.46 0.91,7.33 1.05,15.5 5.43,21.77 6.8,5.22 17.86,3.58 24.02,-1.96 4.07,-7.98 3.84,-17.26 4.51,-25.98 -7.12,-3.83 -15.33,-6.65 -23.41,-4.29zm-6.17 51.37c-4.65,1.33 -7.64,8.14 -12.99,5.7 -2.59,1.03 -5.14,2.11 -7.71,3.18 -5.11,4.91 -8.86,10.89 -12.12,17.14 0.36,0.9 1.11,2.69 1.49,3.58 0,1.89 0.24,3.75 0.7,5.58 -2.11,5.26 -2.67,11.24 -0.68,16.63 2.57,5.62 8.26,8.71 13.48,11.47 4.5,-3.2 8.46,-7.03 12.55,-10.71 5.77,2.9 5.6,11.24 7.58,16.78 -3.18,1.89 -6.28,3.87 -9.29,6 -3.85,-0.21 -7.68,-0.47 -11.49,-0.85 -3.48,6.97 -2.72,14.78 -2.03,22.28 5.39,-2.82 10.72,-6.44 16.93,-7.06 0.78,0.61 2.36,1.86 3.14,2.49 3.66,-1.22 7.3,-2.55 10.65,-4.48 2.91,-0.83 5.87,-1.63 8.78,-2.55 8.32,5.79 19.11,5.34 28.13,9.66 2.79,0.65 4.04,3.28 5.55,5.43 -1.62,-0.25 -4.9,-0.73 -6.52,-0.95 2.31,1.22 4.65,2.34 7.07,3.35 -0.04,-10.92 1.16,-22.36 -3.92,-32.46 -8.71,5.2 -18.44,-0.11 -26.04,-4.84 1.46,-4.68 3.46,-9.18 5.67,-13.54 6.02,1.16 11.89,3.12 17.16,6.29 2.35,-0.35 4.69,-0.69 7.05,-1.03 1.87,-4.71 4.35,-9.24 5.39,-14.21 -0.3,-4.99 -1.14,-10 -0.36,-14.99 -0.46,-0.71 -1.37,-2.12 -1.83,-2.82 -0.51,-5.05 -1.27,-10.06 -2.28,-15.01 -6.36,-2.93 -13.47,-6.48 -20.44,-3.32 -5.87,-1.84 -11.3,-4.74 -16.57,-7.82 -5.28,-3.32 -11.58,-0.06 -17.05,1.08zm-5.96 98.52c-2.67,1.33 -6.53,2.43 -5.79,6.55 -1.03,-1.22 -2.04,-2.46 -3.03,-3.68 -1.16,0.67 -3.49,2 -4.65,2.67 -0.25,-1.66 -0.74,-4.99 -0.99,-6.67 -0.38,2.71 -0.53,5.45 -0.67,8.17 3.05,0.08 6.1,0.14 9.17,0.14 -3.89,5.22 -10.16,10.19 -8.86,17.5 -0.04,4.92 3.1,12.63 9.18,10.9 6.21,-1.16 13.47,-1.3 17.79,-6.57 5.22,-4.84 7.6,-11.64 10.46,-17.95 5.05,8.88 9.71,18.65 18.91,24.02 -0.84,1.58 -1.66,3.18 -2.49,4.76 -5.66,-6.4 -10.61,-13.37 -15.18,-20.57 -4.61,6.63 -8.35,14.71 -16.29,17.96 -4.84,-0.81 -9.68,-0.03 -14.19,1.78 0.72,3.65 1.03,7.41 1.96,11.02 3.24,2.65 4.08,-3.73 1.32,-4.97 -0.14,-1.5 -0.39,-4.55 -0.5,-6.07 3.12,1.94 5.54,4.7 8,7.39 1.81,-1.05 3.62,-2.08 5.45,-3.11 5.9,0.92 12.02,3.11 17.96,1.26 6.42,-2.13 12.97,0.97 19.47,-0.17 0.53,-2.63 1.04,-5.24 1.54,-7.87 1.64,1.96 3.64,2.88 5.94,2.76 -0.47,-1.69 -0.99,-3.39 -1.54,-5.04 3.37,-3.15 7.05,-6.63 6.91,-11.66 1.43,-9.7 -7.71,-15.58 -11.62,-23.39 -6.7,-2.97 -14.21,-4 -21.5,-4.27 -1.96,1.7 -3.71,3.6 -5.5,5.47 -5.72,-6.69 -14.44,-3.05 -21.26,-0.36zm149.43 5.16c-2.42,10.84 -4.56,21.75 -6.35,32.7 61.59,18.69 118.25,53.37 162.29,100.38 8.23,-14.34 16.02,-28.91 23.81,-43.48 -4.8,1.27 -9.91,3.75 -14.86,1.71 -8.65,-3.16 -14.55,-10.68 -21.67,-16.13 -41.99,-34.32 -90.8,-60.93 -143.22,-75.18zm-466.06 198.06c-32.19,60.62 -48.04,129.71 -46.08,198.3 1.53,50.1 12.29,99.96 32.14,146.02 25.83,60.67 67.1,114.55 118.59,155.71 54.85,44.04 121.54,73.18 191.16,83.36 74.53,10.95 152.17,0.83 221.01,-29.91 67.92,-29.9 126.99,-79.35 168.88,-140.55 17.67,-26.21 33.23,-54.17 43.35,-84.21 3.69,-10.17 8.93,-19.85 16.34,-27.81 -13.85,0.17 -27.7,-0.53 -41.54,-0.44 -26.33,82.23 -83.26,154 -156.8,199.11 -57.96,35.79 -126.12,54.93 -194.25,54.15 -76.95,0.15 -153.58,-25.32 -215.43,-71.03 -53.56,-39.31 -96.23,-93.37 -121.69,-154.76 -25.03,-59.81 -33.47,-126.33 -24.8,-190.53 8.3,-62.82 33.44,-123.28 72.03,-173.53 40.42,-53.05 95.57,-94.46 157.51,-119.1 -2.36,-11.03 -4.84,-22.06 -8.33,-32.8 -90.36,34.26 -167.21,102.43 -212.09,188.02zm368.48 -161.22c-3.11,0.87 -1.76,6.24 1.4,5.6 3.22,-0.82 1.85,-6.44 -1.4,-5.6zm90.17 4c-0.88,7.96 -1.53,15.92 -1.91,23.92 3.68,2.42 9.41,4.34 9.03,9.75 0.99,2.8 -1.43,8.52 3.24,8.27 12.88,-5.41 25.39,-13.45 39.9,-13.01 10.29,-0.11 18.06,7.66 24.29,14.91 13.26,15.83 24.36,34.63 43.12,44.69 12.86,7.5 29.49,12.57 35.83,27.39 5.26,11.5 1.28,23.98 -0.59,35.7 16.08,27.33 27.39,57.33 33.91,88.38 0.64,-11.62 -1.34,-23.13 -2.73,-34.61 -4,-30.35 -10.93,-60.23 -19.33,-89.64 -2.02,-6.52 -3.01,-13.85 -7.94,-18.97 -42.77,-45.05 -97.26,-78.99 -156.82,-96.78zm-414.46 163.2c-33.62,57.29 -50.59,124.15 -48.71,190.53 1.49,56.23 16.37,112.09 43.32,161.5 34.15,62.98 87.5,115.43 151.29,148.14 66.06,34.51 143.15,47.1 216.82,36.17 59.24,-8.63 116.14,-32.51 163.87,-68.63 58.55,-43.92 103.68,-105.98 126.11,-175.75 -11.54,-12.67 -22.13,-26.17 -33.77,-38.74 -0.21,10.62 0.19,21.5 -2.97,31.79 -14.66,43.42 -39.08,83.41 -70.36,116.85 0.65,0.94 1.96,2.78 2.61,3.7 -1.3,-0.25 -3.89,-0.75 -5.18,-0.99 -31.66,32.59 -69.96,58.78 -112.21,75.64 0.34,3.77 0.7,7.54 0.97,11.33 -2.99,-2.71 -5.94,-5.39 -8.9,-8.12 -40.18,14.63 -83.21,21.68 -125.96,19.64 -2.47,8.23 -4.78,16.5 -7.5,24.65 -2.02,-8.46 -3.91,-16.93 -5.83,-25.41 -38.11,-2.99 -75.37,-13.37 -110.15,-29.05 -4.42,6.42 -8.97,12.78 -14.14,18.65 0.65,-8.25 1.74,-16.44 2.67,-24.67 -36.02,-18.47 -68.15,-44.17 -94.91,-74.49 -7.39,4.11 -14.82,8.19 -22.61,11.52 3.41,-7.14 8.21,-13.44 12.21,-20.24 2.17,-2.29 -0.59,-4.48 -1.72,-6.37 -24.97,-32.02 -43.45,-68.97 -54.72,-107.94 -5.09,-0.06 -10.17,-0.11 -15.26,-0.21 4.42,-2.36 8.86,-4.65 13.32,-6.89 -9.55,-36.42 -12.06,-74.37 -9.15,-111.83 -3.01,-1.22 -6,-2.5 -8.99,-3.72 3.26,-0.89 6.52,-1.84 9.79,-2.68 4.02,-36.76 14.75,-72.63 30.84,-105.89 -2.87,-3.35 -5.75,-6.7 -8.57,-10.09 4.57,-0.63 9.16,-1.24 13.73,-1.81 -3.9,-12.21 -10.07,-26.76 -1.58,-38.48 8.1,-13.98 25.74,-16.82 35.68,-28.86 10.8,-12.51 18.97,-26.97 27.58,-41.01 5.64,-9.41 16.06,-14.85 26.59,-16.76 9.64,-2.28 19.2,0.73 28.51,2.88 9.55,-3.96 18.04,-10.12 27.55,-14.25 0.49,-4.97 0.49,-10.11 2.17,-14.88 2.09,-2.3 5.22,-3.29 7.83,-4.87 -0.56,-7.83 -1.53,-15.62 -2.78,-23.37 -74.04,29.29 -137.53,84.19 -177.49,153.01zm314.63 -143.85c-7.73,-0.84 -15.51,0.3 -23.26,-0.29 -4.04,-0.44 -7.85,1.16 -11.62,2.29 -1.35,-0.38 -4.04,-1.18 -5.39,-1.58 -4.95,2.07 -10.13,4.55 -15.6,2.95 -4.8,-1.41 -9.03,1.7 -13.16,3.6 -5.92,-1.31 -11.98,-1.33 -17.71,0.78 -8.67,-0.93 -15.6,5.56 -24.1,5.89 -9.56,1.12 -17.83,6.76 -27.29,8.07 -1.68,6.38 -2.77,13.49 0.53,19.56 4.89,0.31 10.44,0.39 14.53,-2.74 7.47,-6.47 18,-5.27 27.18,-6.46 7.45,-6.74 18.23,-1 26.29,-6.66 15.37,-0.72 31.27,-0.19 46.36,-4.02 6.46,2.09 13.26,2.04 19.39,-1.09 6.51,0.9 13.37,2.1 19.6,-0.72 4.42,1.2 8.97,1.64 13.53,1.58 10.03,2.27 20.91,-0.82 30.47,3.7 3.51,1.86 7.43,2.36 11.37,2.34 9.49,3.07 19.72,3.88 29.68,4.44 1.66,-6.33 2.47,-12.84 2.19,-19.37 -9.77,-0.48 -19.16,-4.37 -28.99,-3.49 -9.26,-2.9 -18.99,-7.41 -28.8,-4.97 -9.18,-3.94 -19.51,-4.73 -29.39,-3.87 -5.11,-2.44 -10.73,-2.46 -15.81,0.06zm100.28 38.89c-4.21,15.43 -7.2,31.62 -15.29,45.68 -18.1,31.6 -50,55.28 -85.75,62.59 -23.77,3.81 -48.42,-1.9 -69.34,-13.41 -26.91,-14.65 -47.84,-38.78 -61.12,-66.17 -19.7,-2.84 -37.16,-15.45 -57.54,-14.32 -13.58,0.53 -25.51,8.57 -34.27,18.47 -7.98,8.29 -11.62,19.68 -19.7,27.87 -13.21,14.4 -32.03,24.97 -38.62,44.42 -6.96,19.85 6.21,39.12 5.71,59.08 1.64,16.42 -3.68,33.3 1.24,49.36 2.3,8.85 12.68,11.6 20.7,11.98 16.25,0.47 29.95,-9.81 40.96,-20.65 16.13,-16.25 28.03,-38.42 26.74,-61.85 -1.16,-25.43 -13.47,-50.55 -6.61,-76.11 3.16,-9.45 6.99,-21.79 17.96,-24.36 -3.1,5.84 -7.54,11.02 -9.48,17.44 -4.48,13.36 -2.86,27.77 -0.06,41.32 2.59,13.25 8.25,26.05 7.81,39.81 0.87,24.4 -10.94,47.56 -27.41,64.93 -3.34,3.89 -8.1,7.01 -9.16,12.36 -6.23,23.22 -12.8,47.66 -7.93,71.77 8.94,-30.66 27.58,-57.01 40.42,-85.96 7.11,-16.19 11.77,-33.73 11.47,-51.52 -0.29,-6.35 -1.22,-12.67 -1.05,-19.01 2,2.17 4.42,4.36 4.34,7.64 2.08,17.23 -0.36,34.89 -6.11,51.23 -6.9,19.85 -18.12,37.78 -26.9,56.77 -14.05,32.99 -29.33,66.83 -30.11,103.33 1.14,25.49 4.95,51.2 14.36,75.05 9.91,25.14 27.39,48.19 51.62,60.89 12.71,7.11 27.81,13.3 42.48,8.82 10.49,-2.72 16.72,-13.03 18.85,-23.05 -8.64,-11.33 -16.57,-23.69 -19.73,-37.77 -2.55,-10.82 -5.66,-22 -3.6,-33.2 3.2,7.51 3.51,15.85 6.17,23.55 7.22,23.42 22.29,45.58 44.8,56.53 13.37,6.65 29.58,4.97 42.61,-1.7 9.96,-4.72 17.11,-13.52 26.52,-19.12 7.98,-5.26 17.2,-8.53 26.74,-9.41 -0.48,0.97 -1.41,2.9 -1.89,3.87 -7.2,3.41 -14.95,5.73 -21.65,10.21 14.26,20.09 44.05,25.94 65.4,14.24 13.83,-7.31 24.31,-20.07 30.46,-34.3 7.3,-18.27 12.04,-37.47 15.51,-56.8 0.45,-3.09 1.29,-6.17 3.73,-8.29 1.01,8.29 -0.42,16.57 -1.92,24.71 -3.45,16.45 -7.2,33.18 -15.57,47.96 -6.17,11.18 0.33,24.5 8.59,32.65 8.33,8.78 22.29,10.23 32.96,5.08 12.15,-4.8 20.45,-15.44 27.86,-25.73 21.05,-31.29 34.77,-68.51 33.32,-106.65 1.14,-36.63 -14,-70.72 -28.95,-103.27 -5.3,17.02 -9.05,34.49 -12.97,51.88 6.91,5.34 14.32,11.01 17.48,19.51 4.06,11.04 3.28,24.93 -5.18,33.77 -7.22,8.13 -19.12,10.44 -29.41,8.26 -15.07,-2.99 -27.87,-11.98 -40.53,-20.15 -14.75,-9.75 -31.64,-18.82 -49.93,-16.89 -3.69,-0.31 -8.89,2.3 -11.22,-1.85 5.79,-4.51 13.85,-2.63 20.69,-3.12 26.06,0.59 46.61,18.43 68.42,30.3 11.2,5.01 27.37,5.94 35.35,-5.07 7.92,-8.76 6.34,-22.72 -0.7,-31.5 -8.35,-10.32 -21.16,-15.24 -32.56,-21.37 -17.01,-9.56 -36,-15.05 -55.18,-18.12 -45.96,-6.99 -92.78,0.23 -137.33,11.98 -33.81,8.67 -66.71,23.55 -92.86,47.01 -8.19,8.73 -12.84,21.85 -10.3,33.76 2.63,12.47 18.32,19.81 29.75,14.49 14.97,-6.42 24.76,-20.53 39.35,-27.58 6.4,-3.05 12.9,-6.88 20.27,-6.15 -2.55,4.68 -7.85,6.13 -12.23,8.53 -15.39,8.04 -28.78,19.3 -42.11,30.31 -9.22,7.82 -23.58,8.34 -33.87,2.32 -8.65,-6.08 -12.61,-17.28 -11.77,-27.56 0.55,-11.68 7.33,-21.73 14.17,-30.73 -1.01,-15.1 -2.46,-30.2 -2.25,-45.35 0.14,-29.12 6.14,-60.26 26.88,-82.07 -6.94,-33.09 -8.99,-67.09 -7.28,-100.8 -0.26,-2.82 0.82,-6.84 -2.42,-8.29 -7.6,-4.95 -14.85,-10.53 -20.57,-17.64 -3.69,-4.76 -8.04,-9.77 -8.17,-16.13 5.26,4.04 9.43,9.24 14.11,13.9 10.96,11.41 29.6,10.44 39.78,22.9 13.14,17.39 21.6,38.87 39.37,52.38 11.16,8.59 27.41,13.18 40.11,5.12 8.02,-4 11.3,-12.62 14.76,-20.26 3.7,8.09 -1.43,16.66 -6.87,22.53 -6.88,7.54 -17.01,10.67 -26.8,12.11 -0.06,5.15 -0.27,10.92 2.63,15.41 3.08,2.37 7.25,2.4 10.91,3.32 16.21,-8.73 36.72,-13.79 53.98,-4.97 8.57,4.17 12.34,13.33 16.4,21.35 2,4.57 9.14,6.63 8.13,12.23 -5.54,1.43 -11.25,1.88 -16.91,2.61 -8.76,1.35 -14.29,-6.8 -21.37,-10.29 -0.53,5.39 3.43,12.9 -3.18,15.83 -6.67,2.57 -14.15,2.31 -21.18,2 -2.94,-3.5 -1.49,-8.57 -2.36,-12.74 -6.73,3.43 -10.39,10.38 -16.35,14.7 -5.96,2.94 -12.78,3.58 -19.31,3.07 7.98,-12.06 7.25,-27.51 15.5,-39.41 -17.86,-5.89 -37.62,-6.19 -55.27,0.59 -16.59,5.79 -29.3,19.6 -36.69,35.22 -8.4,17.69 -10.36,37.79 -8.8,57.12 0.93,11.95 1.03,24.15 5.09,35.58 26.7,-18.26 56.36,-32.51 87.92,-40 10.86,-2.19 21.03,-6.76 30.74,-11.96 10.23,-5.6 20.96,-10.44 30.08,-17.79 27.18,-20.88 45.98,-51.94 77.31,-67.43 18.02,-8.97 40.21,-13.1 59.05,-4.13 14.31,6.34 21.13,22.72 21.85,37.54 1.27,25.45 -10.63,48.73 -19.43,71.87 4.86,2.97 9.7,6.02 15.03,8.09 7.88,-24.76 13.81,-50.26 16.61,-76.11 1.6,-19.6 1.2,-41.68 -11.96,-57.62 -10.42,-13.01 -29.38,-15.22 -44.39,-9.89 -14.72,3.83 -26.87,14.08 -41.71,17.38 0.67,-1.01 1.98,-3.05 2.65,-4.06 9.31,-4.61 19.41,-8.32 26.7,-16.1 -14.47,-0.34 -28.83,2.56 -42.57,6.94 -15.22,5.12 -27.46,15.9 -38.78,26.89 -5.48,0.1 -0.55,-5.33 0.69,-7.64 2.4,-3.08 5.06,-9.67 -0.33,-11.18 -12.49,-4.42 -27.22,-12.03 -28.74,-26.83 5.07,3.9 9.1,9.12 14.7,12.36 10.33,5.71 23.87,6.13 33.85,-0.57 18.04,-11.41 25.34,-32.92 40.4,-47.24 18.42,-17.01 44.69,-20.31 64.78,-34.59 3.81,-2.46 2.1,-8.02 2.9,-11.83 0.53,-13.94 -0.48,-31.68 -13.91,-39.62 -6.81,-4.86 -15.41,-3.03 -23.16,-3.87 14.23,-13.65 39.89,-1.88 42.02,16.92 1.87,36.78 -2.04,75.16 12.02,110.17 6.19,16.51 18.04,29.94 30.8,41.73 6.06,5.37 14.1,9.53 22.42,8.23 6.17,-3.45 10.91,-10.04 11.03,-17.28 2.13,-19.9 -0.36,-40.85 7.65,-59.71 7.22,-18.53 14.4,-38.97 8.63,-58.91 -4.36,-13.76 -18.34,-20.44 -29.77,-27.45 -17.92,-10.14 -28.07,-28.9 -43.12,-42.35 -8.76,-7.99 -20.12,-14.22 -32.33,-13.54 -14.87,1.09 -28.95,9.24 -38.4,20.57zm192.19 -5.9c-8.28,16 -16.72,31.92 -25.06,47.88 12.44,40.94 22.09,83.07 24.74,125.85 1.72,-25.96 0.53,-52 0.88,-77.98 -0.36,-31.92 0.74,-63.87 -0.56,-95.75zm-326.51 10.61c-10.86,12.38 -21.29,26.23 -24.69,42.72 6.08,-9.83 12.98,-19.12 20.67,-27.75 5.49,-6.36 12.04,-11.73 17.09,-18.48 -4.4,0.58 -10.02,-0.61 -13.07,3.51zm62.67 1.68c-12.4,15.61 -23.91,32.36 -30.48,51.35 14.93,-19.07 31.09,-37.2 49.62,-52.86 -6.15,-1.41 -14.63,-4.95 -19.14,1.51zm-2.17 77.44c-25.07,13.07 -56.06,13.72 -81.74,1.95 -31.92,-14.21 -55.96,-42.42 -69.85,-74.04 -1.63,0.63 -4.91,1.86 -6.55,2.49 7.62,19.66 19.37,37.64 34.14,52.69 18,18.17 41.06,32.3 66.62,36.21 22.35,3.54 45.66,-1.43 64.98,-13.09 31,-18.36 52.55,-50.95 59.23,-86.15 -2.66,-0.31 -5.35,-0.59 -8.02,-0.84 -7.82,33.18 -27.96,64.84 -58.81,80.78zm75.79 22.84c1.25,15.73 2.36,31.49 3.04,47.28 9.83,-3.11 19.77,-6.96 30.31,-5.15 -0.82,-9.02 -5.12,-18.8 -0.95,-27.52 3.12,9.26 3.64,19.12 6.51,28.46 9.51,5.6 17.89,13.41 22.88,23.35 10.22,19.41 10.26,42.27 7.79,63.52 -1.98,9.95 4.23,18.94 7.64,27.85 0.45,1.54 3.21,6.21 4.07,2.65 3.72,-22.8 2.12,-46.23 -0.34,-69.11 -0.02,-7.14 -6.23,-11.48 -9.75,-16.97 -20.57,-28.45 -27.45,-64.36 -27.7,-98.87 -14.02,9.06 -31.29,12.61 -43.5,24.51zm-241.83 0.27c-3.03,33.18 -2.04,67.04 6.66,99.33 1.89,-0.82 3.78,-1.64 5.66,-2.44 -2.46,-20.84 -7.01,-41.58 -5.71,-62.66 -0.92,-8.94 -0.06,-17.85 0.26,-26.78 0.86,-4.5 -3.9,-5.68 -6.87,-7.45zm230.32 11.5c-0.49,11.7 0.33,23.39 0.61,35.09 1.54,-0.08 4.59,-0.19 6.13,-0.27 0.65,-14.13 0.48,-28.3 -0.68,-42.4 -2.42,2.08 -6.54,3.64 -6.06,7.58zm-20.78 38.42c2.21,-0.42 4.44,-0.8 6.69,-1.12 0.32,-8.25 1.69,-16.54 0.28,-24.75 -8.8,5.39 -10.28,16.79 -6.97,25.87zm-188.06 -22.65c-1.33,15.3 -1.25,31.26 4.16,45.85 0.57,-11.2 2.47,-22.25 4.38,-33.26 -1.18,-4.99 -5.47,-8.62 -8.54,-12.59zm-175.88 2.99c2.72,2.61 5.64,5.03 8.78,7.15 -0.78,-4.61 -3.96,-7.77 -8.78,-7.15zm529.2 12.25c8.23,-2.97 15.87,-7.31 23.41,-11.75 -6.9,-0.4 -13.83,-1.28 -20.71,-0.55 -3.75,2.7 -2.59,8.28 -2.7,12.3zm-524.42 7.87c-12.92,28.95 -21.6,59.83 -25.28,91.33 21.45,-2.34 43.01,-3.56 64.48,-5.69 2.15,-3.89 10.36,-4.4 8.99,-9.41 -6.72,1.58 -13.62,4.07 -20.61,2.4 -6.95,-1.55 -15.05,-4 -18.3,-11.01 -5.57,-11.3 -3.76,-24.29 -1.74,-36.23 0.92,-11.98 0.53,-24.4 -2.99,-35.92 -3.03,-0.67 -3.48,2.53 -4.55,4.53zm643.05 0.21c10.76,4.09 21.12,9.85 32.38,12.3 10.47,-3.46 20.55,-8.13 30.78,-12.3 -21.07,-0.15 -42.12,-0.17 -63.16,0zm0.19 5.94c0.05,67.26 -0.29,134.51 0.17,201.75 9.52,4.1 18.84,8.65 28.32,12.82 -0.07,-67.24 0.34,-134.47 -0.21,-201.69 -9.5,-4.14 -18.8,-8.71 -28.28,-12.88zm33.27 13.6c0.14,68.06 -0.13,136.13 0.12,204.19 6.28,3.6 12.78,6.86 18.93,10.69 3.96,1.73 4.48,7.94 1.16,10.51 -3.52,3.16 -9.45,3.81 -11.62,8.23 6.82,3.35 14.06,5.75 21.01,8.84 -1.62,-6.29 -2.93,-12.69 -2.93,-19.18 0,-71.17 0.06,-142.33 -0.02,-213.49 0,-8.04 1.64,-15.92 2.95,-23.79 -9.92,4.57 -19.77,9.28 -29.6,14zm-430.32 25.54c7.26,-0.49 14.15,-2.97 20.84,-5.69 -7.34,-3.47 -15.26,0.93 -20.84,5.69zm231.43 -4.64c1.83,23.61 4.32,47.33 2.45,71.04 -0.32,5.62 -1.37,11.2 -1.2,16.86 1.2,8.46 4.96,16.29 9.09,23.68 2.34,-10.63 0.55,-21.58 2.06,-32.27 0.45,-4.17 5.86,-3.28 8.72,-4.7 0.9,-14.16 0.65,-28.35 1.01,-42.52 -2.47,-0.93 -5.01,-1.71 -7.37,-2.86 -1.64,-6.53 -1.75,-13.31 -2.52,-19.98 -3.99,-3.18 -8.07,-6.3 -12.24,-9.25zm-110.17 18.85c4.95,13.79 1.84,28.44 -3.45,41.55 24.19,4.11 42.28,-26.98 32.4,-47.55 -8.42,-8.8 -23.72,-4.02 -28.95,6zm-23.32 2.27c-3.27,3.68 -8.82,-0.1 -12.34,2.99 -4.38,3.56 -8.08,7.9 -11.58,12.31 3.14,5.67 5.6,12.09 11.24,15.88 3.46,-5.58 5.54,-11.85 8.57,-17.64 3.44,5.49 5.71,11.87 10.78,16.17 8.82,-7.23 12.53,-19.75 9.56,-30.62 -4.49,-4.39 -12.02,-3.36 -16.23,0.91zm-289.24 12.17c-2.07,2.95 -2.19,6.76 -3.16,10.17 -2.19,0.48 -4.4,0.96 -6.59,1.45 -1.98,12.95 -3.92,25.92 -5.5,38.93 2.13,1.03 4.26,2.08 6.4,3.13 1.08,13.71 0.02,27.62 2.95,41.16 1.6,4.25 -3.24,6 -5.7,8.25 2.73,12.84 4.27,26.11 9.38,38.3 1.02,-15.5 -0.16,-31.29 3.84,-46.47 4.19,-13.72 0.77,-28.08 2.02,-42.1 0.59,-21.01 5.93,-41.39 9.81,-61.92 -4.68,2.66 -9.83,4.97 -13.45,9.1zm450.27 4.31c-0.74,10.62 -0.51,21.25 -0.53,31.9 22.13,-3.64 43.96,-8.97 65.6,-14.93 -21.37,-6.78 -43.09,-12.57 -65.07,-16.97zm-99.01 10.32c-3.56,13.56 -11.31,25.56 -20.57,35.92 10.51,3.85 21.01,7.74 31.56,11.53 7.07,-12.75 6.8,-28.17 3.39,-41.95 -1.22,-4.95 -3.1,-10.57 -8.17,-12.76 -4.65,-1.41 -5.22,4.17 -6.21,7.26zm-435.92 8.08c21.69,7.77 43.31,15.86 65.35,22.59 1.73,-9.53 3.85,-19.05 4.02,-28.78 -23.14,1.61 -46.48,2.13 -69.37,6.19zm3.33 5.56c-2.86,34.57 0.04,69.58 8.48,103.22 18.8,-9.37 37.42,-19.11 56.23,-28.56 0.09,-1.01 0.3,-3.02 0.39,-4.03 2.25,-1.51 7.05,-2.02 5.53,-5.87 -1.7,-11.52 -2.63,-23.16 -2.48,-34.82 -3.73,-2.17 -6.74,-5.28 -8.82,-9.07 -19.9,-6.59 -39.65,-13.67 -59.33,-20.87zm344.06 13.86c5.77,0.67 11.58,0.82 17.37,0.54 -1.66,-4.95 -5.28,-8.69 -9.64,-11.37 -3.56,2.83 -6.47,6.38 -7.73,10.83zm-26.97 2.04c5.39,0.21 10.81,0 16.13,-1.08 -2.44,-2.9 -4.21,-7.51 -8.32,-8.17 -4.29,1.12 -6.16,5.58 -7.81,9.25zm47.48 -1.54c5.45,1.26 11.03,1.83 16.63,1.47 -1.18,-4.65 -3.43,-8.88 -6.84,-12.25 -4.19,2.68 -7.43,6.44 -9.79,10.78zm23.53 2.67c5.27,1.29 10.59,2.51 16.01,3.06 -1.73,-4.17 -2.15,-9.81 -6.72,-12.02 -4.57,1.05 -6.89,5.39 -9.29,8.96zm136 61.42c-3.87,11.26 -2.52,23.3 -2.37,34.98 2.86,0.76 5.76,1.56 8.75,1.6 19.41,0.83 38.84,1.52 58.26,2.47 -11.04,-8.64 -23.33,-15.52 -35.25,-22.84 -9.72,-5.56 -18.99,-11.96 -29.39,-16.21zm-500.37 21.47c-7.2,3.58 -14.78,6.48 -21.44,11.05 23.29,0.61 46.64,-0.52 69.86,-2.63 -1.2,-9.47 -3.43,-18.76 -6.21,-27.87 -14.4,5.78 -28.23,12.79 -42.21,19.45zm598.75 -8.68c12.64,13.63 24.53,28.09 37.79,41.08 13.96,1.05 28.04,-0.04 42.04,-0.27 -26.14,-14.47 -53.17,-27.33 -79.83,-40.81zm-610.56 23.81c10.71,37.52 29.39,72.53 53.03,103.46 10.31,-14.53 20.44,-29.18 31.01,-43.54 -6.42,-18.19 -11.9,-36.74 -15.65,-55.68 -2.96,-1.25 -5.55,-3.14 -7.78,-5.43 -20.21,0.16 -40.4,1.34 -60.61,1.19zm687.66 49.54c9.14,0 18.31,-0.02 27.45,-0.04 -6.95,-3.11 -13.77,-6.74 -21.22,-8.48 -4.08,0.38 -4.59,5.59 -6.23,8.52zm-643.22 75.18c19.24,-11.18 38.67,-22.15 57.35,-34.19 -4.6,-8.76 -9.84,-17.22 -15.42,-25.39 -15.11,19.03 -29.3,38.8 -41.93,59.58zm442.04 -45.98c-4.99,7.05 -10.15,14.09 -13.87,21.94 17.74,9.32 35.2,19.13 53.2,27.91 -9.54,-14.27 -20.21,-27.74 -30.87,-41.15 -2.56,-3.14 -4.99,-6.51 -8.46,-8.7zm-421.07 39.29c24.63,27.99 54.37,51.45 87.26,69.03 2.31,-17.18 5.07,-34.26 7.56,-51.41 -20.07,-10.59 -38.55,-24.15 -54.32,-40.49 -13.6,7.44 -27.01,15.22 -40.5,22.87zm192.65 2.99c-17.26,4.5 -35.77,-1.25 -48.65,-13.25 -1.75,4.66 -4.32,9.27 -4.4,14.38 21.58,16 49.01,22.25 75.49,23.37 21.87,0.5 44.49,0.72 65.28,-7.16 17.27,-6.23 34.41,-13.09 50.6,-21.81 -2.3,-5.43 -4.07,-11.05 -5.69,-16.71 -12.44,13.32 -30.15,24.33 -49.07,21.41 -17.37,-1.79 -33.03,-11.46 -44.07,-24.72 -11.85,9.96 -23.74,21.35 -39.49,24.49zm178.02 8.56c-8.57,3.12 -18.11,0.34 -26.44,4.51 -0.02,3.2 -0.06,6.42 -0.09,9.64 -0.73,0.8 -2.17,2.44 -2.88,3.24 3.7,17.88 8.02,35.65 11.31,53.64 38.84,-16.1 74.39,-39.97 104.02,-69.8 -18.03,-8.4 -35.65,-17.67 -52.99,-27.44 -8.17,11.6 -19.41,21.48 -32.93,26.21zm-57.05 4.19c-36.32,16.34 -77.16,24.68 -116.85,18.59 -22.19,-3.36 -42.69,-13.07 -61.97,-24.12 -6.78,5.26 -14.55,9.11 -22.99,10.86 7.11,4.27 14.54,7.98 21.91,11.75 1.77,-2.13 3.54,-4.23 5.35,-6.3 16.44,9.92 35.09,14.7 53.35,19.98 0.38,2.21 0.78,4.42 1.18,6.65 14.25,1.01 28.5,1.96 42.73,3.14 0.74,-2.93 1.46,-5.87 2.26,-8.78 20.56,-1.43 40.5,-6.84 60.31,-12.23 1.26,1.98 2.48,4.02 3.75,6.04 12.21,-6.15 24.52,-12.14 36.65,-18.44 -0.57,-4.88 1.47,-9.26 3.16,-13.66 -2.21,-1.73 -4.57,-3.37 -7.29,-4.09 -7.43,3.01 -14.18,7.46 -21.55,10.61zm-213.79 6.02c-4.91,22.87 -7.85,46.11 -11.86,69.14 12.97,-14.08 23.25,-30.29 34.22,-45.91 2.27,-3.2 3.95,-6.76 5.51,-10.34 -9.14,-4.61 -17.94,-10.06 -27.87,-12.89zm210.46 21.41c12.78,17.04 25.73,34.07 39.92,49.98 -4.11,-21.32 -7.48,-42.82 -12.93,-63.85 -9.24,4.11 -18.55,8.23 -26.99,13.87zm-170.71 -10.75c-0.74,1.24 -2.22,3.72 -2.97,4.94 -1.12,0.17 -3.35,0.51 -4.47,0.66 -9.32,13.22 -19.13,26.08 -28.63,39.16 31.96,14.67 66.36,23.87 101.37,27.24 -3.52,-15.54 -7.22,-31.06 -10.63,-46.65 -1.92,-0.6 -3.85,-1.2 -5.77,-1.77 -0.25,-2.05 -0.51,-4.11 -0.78,-6.15 -16.21,-5.29 -32.17,-11.33 -48.12,-17.43zm102.65 19.18c-0.72,2.69 -1.43,5.39 -2.17,8.08 -1.6,1.39 -4.34,1.94 -4.91,4.21 -4.08,13.92 -7.72,27.96 -11.79,41.88 39.39,1.03 78.93,-5.02 116.09,-18.17 -9.94,-12.15 -19.94,-24.28 -29.47,-36.78 -3.42,-5.67 -10.49,-6.61 -15.35,-10.59 -16.72,6.69 -34.65,9.14 -52.4,11.37zm-42.99 6.17c2.35,14.77 5.72,29.34 8.52,44.01 1.81,8.2 2.68,16.68 5.69,24.59 6.31,-21.6 12.21,-43.36 17.94,-65.13 -10.64,-1.73 -21.37,-3.12 -32.15,-3.47z"/>
   <path class="fil2" d="M375.83 459.49c1.98,-6.46 4.99,-14.67 12.84,-15.51 9.75,-1.77 18.03,5.53 21.79,13.91 -5.79,-2 -11.7,-4.61 -17.97,-4.1 -5.98,0.36 -11.31,3.32 -16.66,5.7zm68.06 339.29c30.85,-15.94 50.99,-47.6 58.81,-80.78 2.67,0.25 5.36,0.53 8.02,0.84 -6.68,35.2 -28.23,67.79 -59.23,86.15 -19.32,11.66 -42.63,16.63 -64.98,13.09 -25.56,-3.91 -48.62,-18.04 -66.62,-36.21 -14.77,-15.05 -26.52,-33.03 -34.14,-52.69 1.64,-0.63 4.92,-1.86 6.55,-2.49 13.89,31.62 37.93,59.83 69.85,74.04 25.68,11.77 56.67,11.12 81.74,-1.95zm-26.46 -122.72c5.08,-2.52 10.7,-2.5 15.81,-0.06 9.88,-0.86 20.21,-0.07 29.39,3.87 9.81,-2.44 19.54,2.07 28.8,4.97 9.83,-0.88 19.22,3.01 28.99,3.49 0.28,6.53 -0.53,13.04 -2.19,19.37 -9.96,-0.56 -20.19,-1.37 -29.68,-4.44 -3.94,0.02 -7.86,-0.48 -11.37,-2.34 -9.56,-4.52 -20.44,-1.43 -30.47,-3.7 -4.56,0.06 -9.11,-0.38 -13.53,-1.58 -6.23,2.82 -13.09,1.62 -19.6,0.72 -6.13,3.13 -12.93,3.18 -19.39,1.09 -15.09,3.83 -30.99,3.3 -46.36,4.02 -8.06,5.66 -18.84,-0.08 -26.29,6.66 -9.18,1.19 -19.71,-0.01 -27.18,6.46 -4.09,3.13 -9.64,3.05 -14.53,2.74 -3.3,-6.07 -2.21,-13.18 -0.53,-19.56 9.46,-1.31 17.73,-6.95 27.29,-8.07 8.5,-0.33 15.43,-6.82 24.1,-5.89 5.73,-2.11 11.79,-2.09 17.71,-0.78 4.13,-1.9 8.36,-5.01 13.16,-3.6 5.47,1.6 10.65,-0.88 15.6,-2.95 1.35,0.4 4.04,1.2 5.39,1.58 3.77,-1.13 7.58,-2.73 11.62,-2.29 7.75,0.59 15.53,-0.55 23.26,0.29zm4.34 15.06l0 0c-0.46,-4.2 -1.12,-8.38 -1.9,-12.51 -1.03,3.98 -3.74,10.93 1.9,12.51zm-36.87 -0.97l0 0c0.81,0.52 2.41,1.55 3.23,2.08 -0.13,-4.19 -0.28,-8.36 -0.57,-12.53 -2.09,3.1 -2.38,6.8 -2.66,10.45zm20.87 1.58l0 0c-0.46,-1.44 -1.35,-4.34 -1.79,-5.79 0.4,-2.02 0.8,-4.03 1.18,-6.05 -4.93,1.94 -4.53,10.38 0.61,11.84zm31.66 0.56l0 0c0.19,-4.31 0.06,-8.61 -0.25,-12.9 -3.33,3.68 -2.8,9.22 0.25,12.9zm13.35 1.12l0 0c0.21,-4.48 0,-8.93 -0.36,-13.37 -2.97,4.11 -3.12,9.49 0.36,13.37zm-81.39 0.78l0 0c0.97,-0.09 2.92,-0.3 3.89,-0.4 -0.61,-1.64 -1.22,-3.27 -1.81,-4.91 0.34,-2.15 0.68,-4.33 1.03,-6.5 -3.87,2.74 -2.73,7.76 -3.11,11.81zm97.12 0.94l0 0c-0.34,-2.27 -0.7,-4.5 -1.04,-6.73 0.15,-2.09 0.3,-4.17 0.45,-6.25 -3.48,3.28 -4.43,10.67 0.59,12.98zm-134.05 2.66l0 0c0.97,-0.02 2.91,-0.04 3.86,-0.06 -0.76,-3.88 -1.44,-7.79 -2.32,-11.61 -0.84,3.82 -1.12,7.75 -1.54,11.67zm144.68 -2l0 0c1.11,0.12 3.28,0.36 4.38,0.48 -0.53,-1.01 -1.6,-3.01 -2.11,-4.02 0,-1.81 0.04,-5.43 0.06,-7.24 -2.16,3.2 -2.08,7.07 -2.33,10.78zm14.36 -5.77l0 0c-0.01,3.45 -0.03,6.91 -0.01,10.38 0.91,-0.15 2.74,-0.47 3.63,-0.63 -0.66,-1.81 -1.31,-3.62 -1.98,-5.41 0.48,-1.01 1.43,-2.99 1.91,-3.98 -0.88,-0.09 -2.67,-0.28 -3.55,-0.36zm-172.57 12.97l0 0c-0.36,-4 -0.85,-7.98 -1.41,-11.94 -2,3.45 -4.24,11.26 1.41,11.94zm187.81 0.69l0 0c0.88,-0.17 2.59,-0.52 3.47,-0.69 -0.61,-1.64 -1.2,-3.27 -1.79,-4.89 0.42,-1.98 0.82,-3.95 1.2,-5.91 -4.29,2.38 -3.03,7.45 -2.88,11.49zm-204.61 4.47l0 0c0.33,-4.43 0.33,-8.87 0.14,-13.29 -3.55,3.73 -2.65,9.26 -0.14,13.29zm-12.59 3.22l0 0c0.75,-1.94 0.31,-4.02 0.19,-6 -0.05,-1.67 -0.17,-5.01 -0.23,-6.68 -3.12,3.22 -4.11,9.98 0.04,12.68zm-9.9 -9.96l0 0c-0.02,3.91 0.07,7.81 0.26,11.73 3.47,-1.63 2.56,-4.7 1.68,-7.52 0.4,-0.86 1.2,-2.61 1.6,-3.47 -0.89,-0.19 -2.67,-0.55 -3.54,-0.74zm147.45 -48.7c3.25,-0.84 4.62,4.78 1.4,5.6 -3.16,0.64 -4.51,-4.73 -1.4,-5.6zm-51.85 -42c6.82,-2.69 15.54,-6.33 21.26,0.36 1.79,-1.87 3.54,-3.77 5.5,-5.47 7.29,0.27 14.8,1.3 21.5,4.27 3.91,7.81 13.05,13.69 11.62,23.39 0.14,5.03 -3.54,8.51 -6.91,11.66 0.55,1.65 1.07,3.35 1.54,5.04 -2.3,0.12 -4.3,-0.8 -5.94,-2.76 -0.5,2.63 -1.01,5.24 -1.54,7.87 -6.5,1.14 -13.05,-1.96 -19.47,0.17 -5.94,1.85 -12.06,-0.34 -17.96,-1.26 -1.83,1.03 -3.64,2.06 -5.45,3.11 -2.46,-2.69 -4.88,-5.45 -8,-7.39 0.11,1.52 0.36,4.57 0.5,6.07 2.76,1.24 1.92,7.62 -1.32,4.97 -0.93,-3.61 -1.24,-7.37 -1.96,-11.02 4.51,-1.81 9.35,-2.59 14.19,-1.78 7.94,-3.25 11.68,-11.33 16.29,-17.96 4.57,7.2 9.52,14.17 15.18,20.57 0.83,-1.58 1.65,-3.18 2.49,-4.76 -9.2,-5.37 -13.86,-15.14 -18.91,-24.02 -2.86,6.31 -5.24,13.11 -10.46,17.95 -4.32,5.27 -11.58,5.41 -17.79,6.57 -6.08,1.73 -9.22,-5.98 -9.18,-10.9 -1.3,-7.31 4.97,-12.28 8.86,-17.5 -3.07,0 -6.12,-0.06 -9.17,-0.14 0.14,-2.72 0.29,-5.46 0.67,-8.17 0.25,1.68 0.74,5.01 0.99,6.67 1.16,-0.67 3.49,-2 4.65,-2.67 0.99,1.22 2,2.46 3.03,3.68 -0.74,-4.12 3.12,-5.22 5.79,-6.55zm5.96 -98.52c5.47,-1.14 11.77,-4.4 17.05,-1.08 5.27,3.08 10.7,5.98 16.57,7.82 6.97,-3.16 14.08,0.39 20.44,3.32 1.01,4.95 1.77,9.96 2.28,15.01 0.46,0.7 1.37,2.11 1.83,2.82 -0.78,4.99 0.06,10 0.36,14.99 -1.04,4.97 -3.52,9.5 -5.39,14.21 -2.36,0.34 -4.7,0.68 -7.05,1.03 -5.27,-3.17 -11.14,-5.13 -17.16,-6.29 -2.21,4.36 -4.21,8.86 -5.67,13.54 7.6,4.73 17.33,10.04 26.04,4.84 5.08,10.1 3.88,21.54 3.92,32.46 -2.42,-1.01 -4.76,-2.13 -7.07,-3.35 1.62,0.22 4.9,0.7 6.52,0.95 -1.51,-2.15 -2.76,-4.78 -5.55,-5.43 -9.02,-4.32 -19.81,-3.87 -28.13,-9.66 -2.91,0.92 -5.87,1.72 -8.78,2.55 -3.35,1.93 -6.99,3.26 -10.65,4.48 -0.78,-0.63 -2.36,-1.88 -3.14,-2.49 -6.21,0.62 -11.54,4.24 -16.93,7.06 -0.69,-7.5 -1.45,-15.31 2.03,-22.28 3.81,0.38 7.64,0.64 11.49,0.85 3.01,-2.13 6.11,-4.11 9.29,-6 -1.98,-5.54 -1.81,-13.88 -7.58,-16.78 -4.09,3.68 -8.05,7.51 -12.55,10.71 -5.22,-2.76 -10.91,-5.85 -13.48,-11.47 -1.99,-5.39 -1.43,-11.37 0.68,-16.63 -0.46,-1.83 -0.7,-3.69 -0.7,-5.58 -0.38,-0.89 -1.13,-2.68 -1.49,-3.58 3.26,-6.25 7.01,-12.23 12.12,-17.14 2.57,-1.07 5.12,-2.15 7.71,-3.18 5.35,2.44 8.34,-4.37 12.99,-5.7zm6.17 -51.37c8.08,-2.36 16.29,0.46 23.41,4.29 -0.67,8.72 -0.44,18 -4.51,25.98 -6.16,5.54 -17.22,7.18 -24.02,1.96 -4.38,-6.27 -4.52,-14.44 -5.43,-21.77 -1.66,-6.42 5.75,-9.05 10.55,-10.46z"/>
   <path class="fil3" d="M517.71 714.95c9.45,-11.33 23.53,-19.48 38.4,-20.57 12.21,-0.68 23.57,5.55 32.33,13.54 15.05,13.45 25.2,32.21 43.12,42.35 11.43,7.01 25.41,13.69 29.77,27.45 5.77,19.94 -1.41,40.38 -8.63,58.91 -8.01,18.86 -5.52,39.81 -7.65,59.71 -0.12,7.24 -4.86,13.83 -11.03,17.28 -8.32,1.3 -16.36,-2.86 -22.42,-8.23 -12.76,-11.79 -24.61,-25.22 -30.8,-41.73 -14.06,-35.01 -10.15,-73.39 -12.02,-110.17 -2.13,-18.8 -27.79,-30.57 -42.02,-16.92 7.75,0.84 16.35,-0.99 23.16,3.87 13.43,7.94 14.44,25.68 13.91,39.62 -0.8,3.81 0.91,9.37 -2.9,11.83 -20.09,14.28 -46.36,17.58 -64.78,34.59 -15.06,14.32 -22.36,35.83 -40.4,47.24 -9.98,6.7 -23.52,6.28 -33.85,0.57 -5.6,-3.24 -9.63,-8.46 -14.7,-12.36 1.52,14.8 16.25,22.41 28.74,26.83 5.39,1.51 2.73,8.1 0.33,11.18 -1.24,2.31 -6.17,7.74 -0.69,7.64 11.32,-10.99 23.56,-21.77 38.78,-26.89 13.74,-4.38 28.1,-7.28 42.57,-6.94 -7.29,7.78 -17.39,11.49 -26.7,16.1 -0.67,1.01 -1.98,3.05 -2.65,4.06 14.84,-3.3 26.99,-13.55 41.71,-17.38 15.01,-5.33 33.97,-3.12 44.39,9.89 13.16,15.94 13.56,38.02 11.96,57.62 -2.8,25.85 -8.73,51.35 -16.61,76.11 -5.33,-2.07 -10.17,-5.12 -15.03,-8.09 8.8,-23.14 20.7,-46.42 19.43,-71.87 -0.72,-14.82 -7.54,-31.2 -21.85,-37.54 -18.84,-8.97 -41.03,-4.84 -59.05,4.13 -31.33,15.49 -50.13,46.55 -77.31,67.43 -9.12,7.35 -19.85,12.19 -30.08,17.79 -9.71,5.2 -19.88,9.77 -30.74,11.96 -31.56,7.49 -61.22,21.74 -87.92,40 -4.06,-11.43 -4.16,-23.63 -5.09,-35.58 -1.56,-19.33 0.4,-39.43 8.8,-57.12 7.39,-15.62 20.1,-29.43 36.69,-35.22 17.65,-6.78 37.41,-6.48 55.27,-0.59 -8.25,11.9 -7.52,27.35 -15.5,39.41 6.53,0.51 13.35,-0.13 19.31,-3.07 5.96,-4.32 9.62,-11.27 16.35,-14.7 0.87,4.17 -0.58,9.24 2.36,12.74 7.03,0.31 14.51,0.57 21.18,-2 6.61,-2.93 2.65,-10.44 3.18,-15.83 7.08,3.49 12.61,11.64 21.37,10.29 5.66,-0.73 11.37,-1.18 16.91,-2.61 1.01,-5.6 -6.13,-7.66 -8.13,-12.23 -4.06,-8.02 -7.83,-17.18 -16.4,-21.35 -17.26,-8.82 -37.77,-3.76 -53.98,4.97 -3.66,-0.92 -7.83,-0.95 -10.91,-3.32 -2.9,-4.49 -2.69,-10.26 -2.63,-15.41 9.79,-1.44 19.92,-4.57 26.8,-12.11 5.44,-5.87 10.57,-14.44 6.87,-22.53 -3.46,7.64 -6.74,16.26 -14.76,20.26 -12.7,8.06 -28.95,3.47 -40.11,-5.12 -17.77,-13.51 -26.23,-34.99 -39.37,-52.38 -10.18,-12.46 -28.82,-11.49 -39.78,-22.9 -4.68,-4.66 -8.85,-9.86 -14.11,-13.9 0.13,6.36 4.48,11.37 8.17,16.13 5.72,7.11 12.97,12.69 20.57,17.64 3.24,1.45 2.16,5.47 2.42,8.29 -1.71,33.71 0.34,67.71 7.28,100.8 -20.74,21.81 -26.74,52.95 -26.88,82.07 -0.21,15.15 1.24,30.25 2.25,45.35 -6.84,9 -13.62,19.05 -14.17,30.73 -0.84,10.28 3.12,21.48 11.77,27.56 10.29,6.02 24.65,5.5 33.87,-2.32 13.33,-11.01 26.72,-22.27 42.11,-30.31 4.38,-2.4 9.68,-3.85 12.23,-8.53 -7.37,-0.73 -13.87,3.1 -20.27,6.15 -14.59,7.05 -24.38,21.16 -39.35,27.58 -11.43,5.32 -27.12,-2.02 -29.75,-14.49 -2.54,-11.91 2.11,-25.03 10.3,-33.76 26.15,-23.46 59.05,-38.34 92.86,-47.01 44.55,-11.75 91.37,-18.97 137.33,-11.98 19.18,3.07 38.17,8.56 55.18,18.12 11.4,6.13 24.21,11.05 32.56,21.37 7.04,8.78 8.62,22.74 0.7,31.5 -7.98,11.01 -24.15,10.08 -35.35,5.07 -21.81,-11.87 -42.36,-29.71 -68.42,-30.3 -6.84,0.49 -14.9,-1.39 -20.69,3.12 2.33,4.15 7.53,1.54 11.22,1.85 18.29,-1.93 35.18,7.14 49.93,16.89 12.66,8.17 25.46,17.16 40.53,20.15 10.29,2.18 22.19,-0.13 29.41,-8.26 8.46,-8.84 9.24,-22.73 5.18,-33.77 -3.16,-8.5 -10.57,-14.17 -17.48,-19.51 3.92,-17.39 7.67,-34.86 12.97,-51.88 14.95,32.55 30.09,66.64 28.95,103.27 1.45,38.14 -12.27,75.36 -33.32,106.65 -7.41,10.29 -15.71,20.93 -27.86,25.73 -10.67,5.15 -24.63,3.7 -32.96,-5.08 -8.26,-8.15 -14.76,-21.47 -8.59,-32.65 8.37,-14.78 12.12,-31.51 15.57,-47.96 1.5,-8.14 2.93,-16.42 1.92,-24.71 -2.44,2.12 -3.28,5.2 -3.73,8.29 -3.47,19.33 -8.21,38.53 -15.51,56.8 -6.15,14.23 -16.63,26.99 -30.46,34.3 -21.35,11.7 -51.14,5.85 -65.4,-14.24 6.7,-4.48 14.45,-6.8 21.65,-10.21 0.48,-0.97 1.41,-2.9 1.89,-3.87 -9.54,0.88 -18.76,4.15 -26.74,9.41 -9.41,5.6 -16.56,14.4 -26.52,19.12 -13.03,6.67 -29.24,8.35 -42.61,1.7 -22.51,-10.95 -37.58,-33.11 -44.8,-56.53 -2.66,-7.7 -2.97,-16.04 -6.17,-23.55 -2.06,11.2 1.05,22.38 3.6,33.2 3.16,14.08 11.09,26.44 19.73,37.77 -2.13,10.02 -8.36,20.33 -18.85,23.05 -14.67,4.48 -29.77,-1.71 -42.48,-8.82 -24.23,-12.7 -41.71,-35.75 -51.62,-60.89 -9.41,-23.85 -13.22,-49.56 -14.36,-75.05 0.78,-36.5 16.06,-70.34 30.11,-103.33 8.78,-18.99 20,-36.92 26.9,-56.77 5.75,-16.34 8.19,-34 6.11,-51.23 0.08,-3.28 -2.34,-5.47 -4.34,-7.64 -0.17,6.34 0.76,12.66 1.05,19.01 0.3,17.79 -4.36,35.33 -11.47,51.52 -12.84,28.95 -31.48,55.3 -40.42,85.96 -4.87,-24.11 1.7,-48.55 7.93,-71.77 1.06,-5.35 5.82,-8.47 9.16,-12.36 16.47,-17.37 28.28,-40.53 27.41,-64.93 0.44,-13.76 -5.22,-26.56 -7.81,-39.81 -2.8,-13.55 -4.42,-27.96 0.06,-41.32 1.94,-6.42 6.38,-11.6 9.48,-17.44 -10.97,2.57 -14.8,14.91 -17.96,24.36 -6.86,25.56 5.45,50.68 6.61,76.11 1.29,23.43 -10.61,45.6 -26.74,61.85 -11.01,10.84 -24.71,21.12 -40.96,20.65 -8.02,-0.38 -18.4,-3.13 -20.7,-11.98 -4.92,-16.06 0.4,-32.94 -1.24,-49.36 0.5,-19.96 -12.67,-39.23 -5.71,-59.08 6.59,-19.45 25.41,-30.02 38.62,-44.42 8.08,-8.19 11.72,-19.58 19.7,-27.87 8.76,-9.9 20.69,-17.94 34.27,-18.47 20.38,-1.13 37.84,11.48 57.54,14.32 13.28,27.39 34.21,51.52 61.12,66.17 20.92,11.51 45.57,17.22 69.34,13.41 35.75,-7.31 67.65,-30.99 85.75,-62.59 8.09,-14.06 11.08,-30.25 15.29,-45.68zm-145.94 495.6c15.75,-3.14 27.64,-14.53 39.49,-24.49 11.04,13.26 26.7,22.93 44.07,24.72 18.92,2.92 36.63,-8.09 49.07,-21.41 1.62,5.66 3.39,11.28 5.69,16.71 -16.19,8.72 -33.33,15.58 -50.6,21.81 -20.79,7.88 -43.41,7.66 -65.28,7.16 -26.48,-1.12 -53.91,-7.37 -75.49,-23.37 0.08,-5.11 2.65,-9.72 4.4,-14.38 12.88,12 31.39,17.75 48.65,13.25zm136.4 -377.16c-0.48,-3.94 3.64,-5.5 6.06,-7.58 1.16,14.1 1.33,28.27 0.68,42.4 -1.54,0.08 -4.59,0.19 -6.13,0.27 -0.28,-11.7 -1.1,-23.39 -0.61,-35.09zm-230.32 -11.5c2.97,1.77 7.73,2.95 6.87,7.45 -0.32,8.93 -1.18,17.84 -0.26,26.78 -1.3,21.08 3.25,41.82 5.71,62.66 -1.88,0.8 -3.77,1.62 -5.66,2.44 -8.7,-32.29 -9.69,-66.15 -6.66,-99.33zm241.83 -0.27c12.21,-11.9 29.48,-15.45 43.5,-24.51 0.25,34.51 7.13,70.42 27.7,98.87 3.52,5.49 9.73,9.83 9.75,16.97 2.46,22.88 4.06,46.31 0.34,69.11 -0.86,3.56 -3.62,-1.11 -4.07,-2.65 -3.41,-8.91 -9.62,-17.9 -7.64,-27.85 2.47,-21.25 2.43,-44.11 -7.79,-63.52 -4.99,-9.94 -13.37,-17.75 -22.88,-23.35 -2.87,-9.34 -3.39,-19.2 -6.51,-28.46 -4.17,8.72 0.13,18.5 0.95,27.52 -10.54,-1.81 -20.48,2.04 -30.31,5.15 -0.68,-15.79 -1.79,-31.55 -3.04,-47.28zm-73.62 -100.28c4.51,-6.46 12.99,-2.92 19.14,-1.51 -18.53,15.66 -34.69,33.79 -49.62,52.86 6.57,-18.99 18.08,-35.74 30.48,-51.35zm-62.67 -1.68c3.05,-4.12 8.67,-2.93 13.07,-3.51 -5.05,6.75 -11.6,12.12 -17.09,18.48 -7.69,8.63 -14.59,17.92 -20.67,27.75 3.4,-16.49 13.83,-30.34 24.69,-42.72z"/>
   <path class="fil4" d="M524.67 615.87c52.42,14.25 101.23,40.86 143.22,75.18 7.12,5.45 13.02,12.97 21.67,16.13 4.95,2.04 10.06,-0.44 14.86,-1.71 -7.79,14.57 -15.58,29.14 -23.81,43.48 -44.04,-47.01 -100.7,-81.69 -162.29,-100.38 1.79,-10.95 3.93,-21.86 6.35,-32.7zm-31.93 607.43c7.37,-3.15 14.12,-7.6 21.55,-10.61 2.72,0.72 5.08,2.36 7.29,4.09 -1.69,4.4 -3.73,8.78 -3.16,13.66 -12.13,6.3 -24.44,12.29 -36.65,18.44 -1.27,-2.02 -2.49,-4.06 -3.75,-6.04 -19.81,5.39 -39.75,10.8 -60.31,12.23 -0.8,2.91 -1.52,5.85 -2.26,8.78 -14.23,-1.18 -28.48,-2.13 -42.73,-3.14 -0.4,-2.23 -0.8,-4.44 -1.18,-6.65 -18.26,-5.28 -36.91,-10.06 -53.35,-19.98 -1.81,2.07 -3.58,4.17 -5.35,6.3 -7.37,-3.77 -14.8,-7.48 -21.91,-11.75 8.44,-1.75 16.21,-5.6 22.99,-10.86 19.28,11.05 39.78,20.76 61.97,24.12 39.69,6.09 80.53,-2.25 116.85,-18.59zm1142.31 -91.93c7.69,-2.82 16,-1.73 24.04,-1.84 34.97,-0.06 69.96,0.17 104.95,-0.14 2.84,3.7 5.54,7.51 7.9,11.55 -54.24,0.01 -108.49,0.03 -162.74,0 8.44,-3.66 17.16,-6.58 25.85,-9.57zm-396.88 9.22c8.75,-4.04 17.76,-7.48 26.63,-11.22 10.95,3.64 22.08,6.92 32.71,11.55 -19.79,0.05 -39.57,0.19 -59.34,-0.33zm-168.17 0.35c7.51,-3.66 15.05,-7.62 23.22,-9.53 6.59,1.62 12.46,5.3 18.27,8.71 -13.77,1.58 -27.66,0.59 -41.49,0.82zm-268.63 -1.87c1.64,-2.93 2.15,-8.14 6.23,-8.52 7.45,1.74 14.27,5.37 21.22,8.48 -9.14,0.02 -18.31,0.04 -27.45,0.04zm1025.81 2.65c13.18,-5.87 26.67,-12.8 41.47,-12.65 34.66,0 69.31,-0.1 103.98,0.07 3.96,4.33 8.1,8.52 12.28,12.65 -52.57,0.14 -105.16,0.29 -157.73,-0.07zm-854.78 -12.12c2.19,-0.89 4.34,0.4 6.4,1.09 6.84,2.8 13.58,5.83 20.25,9.03 -17.68,0.3 -35.41,0.81 -53.07,-0.31 8.84,-3.2 17.49,-6.91 26.42,-9.81zm797.07 -3.1c3.31,-5.85 6.8,-11.58 10.59,-17.13 -0.06,9.05 -0.06,18.1 -0.08,27.15 -3.56,-3.32 -7.05,-6.65 -10.51,-10.02zm207.31 -0.4c4.44,-8.48 8.73,-17.03 13.81,-25.15 0.63,12.18 0.36,24.37 0.21,36.56 -4.74,-3.72 -9.41,-7.57 -14.02,-11.41zm-220.44 -17.15c7.47,-1.08 14.19,-4.78 21.15,-7.48 -4.31,7.45 -9.07,14.61 -13.74,21.81 -37.6,-0.27 -75.25,0.8 -112.82,-0.55 16.04,-11.45 36.58,-12.96 55.66,-12.77 16.59,-0.13 33.26,1.24 49.75,-1.01zm154.17 -1.86c24.88,-0.08 51.78,5.6 74.63,-7.28 -4.43,7.85 -9.06,15.6 -13.52,23.45 -34.95,0.02 -69.9,0.28 -104.84,-0.13 10.52,-12.84 27.94,-16.31 43.73,-16.04zm-1186.24 -41.37c26.66,13.48 53.69,26.34 79.83,40.81 -14,0.23 -28.08,1.32 -42.04,0.27 -13.26,-12.99 -25.15,-27.45 -37.79,-41.08zm492.57 3.94c7.01,-4.99 14.13,-9.77 21.29,-14.52 8.54,22.48 16.82,45.05 25.07,67.64 -10.08,5.56 -20.93,9.34 -31.5,13.76 2.53,-23.47 -8.16,-45.09 -14.86,-66.88zm-118.76 56.88c8.11,-24.14 15.24,-48.67 24.32,-72.46 3.51,4.32 7.41,8.44 10.17,13.31 -2.84,16.36 -11.73,31.11 -13.96,47.64 -1.18,7.12 -0.3,14.34 0.84,21.39 -7.16,-3.24 -14.27,-6.57 -21.37,-9.88zm31.44 -75.59c33.83,0.02 67.68,0 101.53,0 -7.89,5.18 -14.95,14.16 -25.37,12.94 -22.1,-0.21 -44.19,0.07 -66.27,-0.17 -3.31,-4.27 -6.63,-8.5 -9.89,-12.77zm1.22 -6c7.2,-5.2 13.98,-11.1 21.83,-15.31 8.1,-1.37 16.38,-0.29 24.55,-0.59 7.45,0.21 15.49,-1.28 22.33,2.51 8.46,4.33 17.12,8.29 25.24,13.26 -31.3,0.76 -62.65,0.52 -93.95,0.13zm514.18 -35.16c8.15,3.62 16.2,7.51 24.2,11.55 -0.51,28.09 0.6,56.26 -0.53,84.32 -7.06,6.17 -15.79,10.08 -24.3,13.85 0.09,-36.58 0.61,-73.15 0.63,-109.72zm4.3 -4.06c33.79,-0.01 67.56,-0.03 101.35,-0.01 6.82,-0.29 8.44,8.24 12.04,12.57 -29.35,-2.38 -58.84,-2.1 -88.25,-1.3 -9.14,-1.54 -17.08,-6.95 -25.14,-11.26zm111.18 -2.74c2.63,-5.46 5.39,-10.87 8.53,-16.06 0.2,9.43 0.18,18.86 0,28.29 -2.95,-4.02 -5.77,-8.11 -8.53,-12.23zm-80.59 -17.22c28.36,-0.91 57.28,3.13 85.14,-4.28 -3.08,6.26 -6.32,12.45 -9.67,18.57 -34.75,-0.15 -69.47,0 -104.21,-0.06 9.43,-4.93 18.42,-11.41 28.74,-14.23zm-1496.69 -39.56c3.62,-4.13 8.77,-6.44 13.45,-9.1 -3.88,20.53 -9.22,40.91 -9.81,61.92 -1.25,14.02 2.17,28.38 -2.02,42.1 -4,15.18 -2.82,30.97 -3.84,46.47 -5.11,-12.19 -6.65,-25.46 -9.38,-38.3 2.46,-2.25 7.3,-4 5.7,-8.25 -2.93,-13.54 -1.87,-27.45 -2.95,-41.16 -2.14,-1.05 -4.27,-2.1 -6.4,-3.13 1.58,-13.01 3.52,-25.98 5.5,-38.93 2.19,-0.49 4.4,-0.97 6.59,-1.45 0.97,-3.41 1.09,-7.22 3.16,-10.17zm422.73 -33.29c4.17,2.95 8.25,6.07 12.24,9.25 0.77,6.67 0.88,13.45 2.52,19.98 2.36,1.15 4.9,1.93 7.37,2.86 -0.36,14.17 -0.11,28.36 -1.01,42.52 -2.86,1.42 -8.27,0.53 -8.72,4.7 -1.51,10.69 0.28,21.64 -2.06,32.27 -4.13,-7.39 -7.89,-15.22 -9.09,-23.68 -0.17,-5.66 0.88,-11.24 1.2,-16.86 1.87,-23.71 -0.62,-47.43 -2.45,-71.04zm1038.86 -13.13c8.34,2.99 16.41,6.67 24.59,10.1 0.47,23.96 0.15,47.92 0.17,71.88 -8.36,4.73 -16.55,9.77 -25.15,14.08 -0.09,-32.02 0.86,-64.04 0.39,-96.06zm-245.62 -1.45c8.3,4.9 16.26,10.37 24.55,15.34 0.44,64.76 -0.02,129.52 0.23,194.28 -8.14,4.23 -16.44,8.12 -24.71,12.02 -0.23,-73.86 -0.07,-147.75 -0.07,-221.64zm-422.84 -0.26c24.23,0.05 48.46,-0.06 72.7,0.07 3.07,4.04 6.16,8.1 9.18,12.21 -18.68,0.19 -37.35,0.19 -56.03,-0.02 -0.5,66.39 0.02,132.77 -0.25,199.15 -0.36,9.58 2.19,18.89 5.07,27.94 -10.31,-4.63 -20.79,-8.86 -30.92,-13.87 0.5,-75.16 -0.02,-150.32 0.25,-225.48zm-91.05 13.16c4.46,-4.48 9.05,-8.84 13.7,-13.14 23.69,0 47.39,-0.02 71.08,0 -0.17,74.93 0.42,149.9 -0.28,224.82 -8.99,6.49 -20.59,7.98 -30.8,11.98 1.84,-7.09 4.66,-14.04 4.89,-21.45 0.13,-67.89 -0.15,-135.77 0.15,-203.66 -19.54,-0.32 -39.5,-2.8 -58.74,1.45zm769.73 -14.38c34.96,-0.13 69.93,-0.46 104.88,-0.67 4.48,6.44 8.99,12.86 13.35,19.37 -8.15,-2.74 -15.77,-7.75 -24.61,-7.88 -22.72,-0.9 -45.62,3.14 -68.19,-0.71 -9.1,-1.52 -17.71,-5.12 -25.43,-10.11zm-482.57 0.34c3.45,-0.51 6.9,-0.95 10.38,-1.27 16.94,48.83 34.94,97.33 51.3,146.36 -10.19,-4.75 -20.17,-9.89 -30.19,-14.97 -11.05,-25.6 -18.57,-52.56 -29.58,-78.16 -2.59,1.93 -3.6,5.11 -4.84,7.95 -7.92,19.96 -14.57,40.38 -21.26,60.78 -2.93,11.22 -14.68,16.13 -22.66,23.33 13.21,-39.85 27.56,-79.31 41.16,-119.05 2.51,-8.15 7.39,-16.11 5.69,-24.97zm231.77 -3.88c27.32,-1.01 55.34,-1.34 81.74,6.74 20.4,5.96 39.01,19.39 48.85,38.49 16.86,31.26 16.54,68.69 9.64,102.67 -3.52,15.33 -6.87,31.26 -15.94,44.44 -9.33,14.26 -21.41,28.11 -37.73,34.28 -27.11,7.45 -55.39,2.86 -83.03,3.47 8.11,-3.85 15.85,-9.07 24.68,-11.01 17.72,0.25 37.15,1.33 52.5,-9.14 18.63,-13.79 28.57,-36.46 32.04,-58.86 3.54,-22.59 2.32,-45.62 0.95,-68.34 -1.07,-20.04 -8.36,-40.55 -23.7,-54.08 -14.21,-13.6 -35.18,-16.59 -54.03,-15.18 -5.09,0 -10.67,2.1 -15.3,-0.74 -7.07,-3.98 -13.77,-8.52 -20.67,-12.74zm453.97 0.57c10.91,-3.66 21.86,-7.15 32.83,-10.65 -2.07,10.04 -6.01,19.69 -6.99,29.96 -0.68,35.6 0.58,71.2 0.35,106.8 -0.08,27.77 0.13,55.54 -0.12,83.32 -8.45,6.07 -16.74,12.43 -25.98,17.29 -0.21,-75.58 -0.02,-151.16 -0.09,-226.72zm-705.85 -9.55c6.65,4.59 17.75,10.33 14.34,20.14 -24.72,72.42 -49.62,144.8 -74.27,217.24 -0.97,2 -1.35,4.83 -3.79,5.61 -7.82,3.3 -16.03,5.62 -23.98,8.65 16.38,-26.21 26.33,-55.69 37.03,-84.49 6.31,-17.53 12.31,-35.15 18.17,-52.82 8.61,-25.35 18.71,-50.21 26.29,-75.91 3.5,-12.51 7.08,-25.29 6.21,-38.42zm671.45 -2.26c9.44,3.85 18.87,7.75 28.24,11.81 -0.3,76.97 0.37,153.96 -0.32,230.89 -9.28,5.2 -19.81,7.74 -29.64,11.76 3.22,-8.01 5.28,-16.5 4.76,-25.17 -1.04,-71.06 -0.3,-142.15 -0.59,-213.22 -0.13,-5.44 -1.39,-10.76 -2.45,-16.07zm-217.95 0.53c10.77,3.96 21.3,8.53 32.12,12.34 0.57,76.1 -0.02,152.19 0.3,228.27 -11.25,4.36 -22.68,8.19 -33.98,12.36 7.87,-18.44 7.32,-38.74 7.72,-58.38 0.07,-41.96 -0.16,-83.9 0.11,-125.85 0.13,-22.97 3.07,-47.02 -6.27,-68.74zm-246.19 -0.61c11.03,3.13 21.91,6.76 32.82,10.31 -0.11,77.25 0.23,154.53 -0.17,231.79 -11.26,3.41 -22.34,7.29 -33.6,10.61 2.27,-8.99 6.82,-17.6 6.69,-27.07 -0.1,-67.92 -0.04,-135.85 -0.02,-203.77 0.05,-7.7 -3.45,-14.71 -5.72,-21.87zm-169.6 14.27c9.43,-5.14 19.07,-9.89 28.74,-14.54 1.26,10.01 1.17,20.27 3.91,30.02 24.06,67.97 48.31,135.85 72.86,203.62 2.8,7.6 6.85,14.65 10.32,21.97 -11.64,-4.23 -22.91,-9.38 -34.48,-13.78 -27.19,-75.73 -55.21,-151.18 -81.35,-227.29zm576 -4.38c3.28,-4.71 6.82,-9.22 10.67,-13.47 0.06,10.04 0.06,20.06 -0.02,30.1 -3.75,-5.41 -7.2,-11.03 -10.65,-16.63zm-711.71 3.01c4.44,-5.45 8.95,-10.82 13.79,-15.91 0.09,10.84 0.02,21.7 0.09,32.55 -4.78,-5.42 -9.42,-10.97 -13.88,-16.64zm-249.51 -2.88c9.83,-4.72 19.68,-9.43 29.6,-14 -1.31,7.87 -2.95,15.75 -2.95,23.79 0.08,71.16 0.02,142.32 0.02,213.49 0,6.49 1.31,12.89 2.93,19.18 -6.95,-3.09 -14.19,-5.49 -21.01,-8.84 2.17,-4.42 8.1,-5.07 11.62,-8.23 3.32,-2.57 2.8,-8.78 -1.16,-10.51 -6.15,-3.83 -12.65,-7.09 -18.93,-10.69 -0.25,-68.06 0.02,-136.13 -0.12,-204.19zm-33.27 -13.6c9.48,4.17 18.78,8.74 28.28,12.88 0.55,67.22 0.14,134.45 0.21,201.69 -9.48,-4.17 -18.8,-8.72 -28.32,-12.82 -0.46,-67.24 -0.12,-134.49 -0.17,-201.75zm1056.93 -0.67c19.2,-0.13 38.42,-0.36 57.62,0.14 -10.91,3.29 -21.47,7.98 -32.61,10.38 -8.7,-2.52 -16.68,-7.05 -25.01,-10.52zm-672.8 -0.13c18.23,0.08 36.46,-0.17 54.69,0.13 -12.27,6.69 -25.32,15.58 -40.02,11.78 -5.58,-3 -9.96,-7.74 -14.67,-11.91zm-277.01 -1.18c4.99,5.18 9.7,10.65 14.29,16.19 -4.35,5.79 -9.13,11.26 -14.54,16.08 0.29,-10.77 0.23,-21.51 0.25,-32.27zm730.17 -0.63c54.17,-0.23 108.33,0.04 162.5,-0.15 -3.74,4.67 -7.51,9.29 -11.33,13.87 -36.77,0.03 -73.55,-0.12 -110.31,0.07 -14.93,1.18 -27.75,-8.06 -40.86,-13.79zm-243.5 0.46c46.44,-0.65 94.19,-5.47 139.33,8.21 27.26,8.04 51.79,26.85 63.53,53.12 11.6,26.02 15.63,55.2 13.48,83.51 -2.99,36.53 -18.46,73.39 -47.35,96.87 -25.81,20.63 -60.29,24.44 -92.21,24.4 -25.2,-0.74 -50.38,-1.81 -75.58,-2.42 15.12,-5.18 30.51,-11.37 46.78,-10.89 25.43,-0.15 51.45,2.99 76.38,-3.49 10.13,-2.8 19.92,-7.64 27.43,-15.14 26.76,-28.06 38.72,-67.47 38.23,-105.71 -0.55,-29.05 -6.78,-59.41 -24.52,-83.05 -15.65,-20.46 -41.56,-29.37 -66.3,-32.14 -22.75,-2.93 -45.72,-1.84 -68.52,-3.2 -10.57,-2.11 -20.64,-6.24 -30.68,-10.07zm-480.31 -3.28c59.58,-0.19 119.16,-0.23 178.75,0.02 -4.82,5.79 -9.91,11.35 -14.96,16.95 -50.23,-0.03 -100.45,0.23 -150.66,-0.13 -4.42,-5.6 -8.86,-11.14 -13.13,-16.84zm-113.67 -0.51c21.04,-0.17 42.09,-0.15 63.16,0 -10.23,4.17 -20.31,8.84 -30.78,12.3 -11.26,-2.45 -21.62,-8.21 -32.38,-12.3zm475.48 -60.19c7.37,2.44 17.93,4.61 19.37,13.73 -1.6,15.45 -14.21,28.19 -28.72,32.71 5.92,-14.77 10.02,-30.4 9.35,-46.44zm-117.18 -60.76c25.32,-13.51 48.92,-32.59 78.17,-36.6 20.17,-2.01 43.18,-0.99 58.88,13.57 -10.13,26.42 -10.78,55.83 -3.5,83.04 -7.95,-3.54 -16.04,-7.06 -24.73,-8.09 -18.63,-2.5 -37.22,2.82 -54.13,10.27 -13.83,5.75 -26.44,14.15 -40.67,18.99 -30.46,10.99 -63.71,17.35 -95.88,11.14 -25.43,-4.78 -47.72,-20.59 -63.32,-40.88 26.82,10.92 59.58,16.46 85.73,0.99 -0.05,-0.55 -0.19,-1.65 -0.24,-2.23 -5.93,-2.8 -12.56,-3.58 -18.56,-6.11 -25.58,-11.07 -45.25,-34.63 -51.44,-61.83 16.19,14.57 35.33,26.74 57.1,30.54 24.74,4.99 50.73,-0.69 72.59,-12.8zm66.57 -22.02l0 0c1.74,1.77 3.49,3.54 5.28,5.31 0.17,17.6 -0.4,35.22 -0.76,52.82 -1.3,2.76 -2.42,5.6 -3.47,8.46 14.86,-3.15 30.38,-7.09 45.35,-1.98 0.23,-6.27 2.17,-14.19 -2.74,-19.07 -2.84,2.89 -3.28,7.26 -5.81,10.36 -5.96,1.75 -12.21,0.69 -18.25,0.1 -0.03,-9.55 -0.07,-19.11 0.02,-28.65 5.72,-0.95 9.37,4.78 14.61,4.95 0.65,-5.33 -0.06,-10.68 -1.01,-15.92 -3.9,3.71 -8.42,6.93 -14.07,6.55 0.32,-7.45 0.49,-14.91 0.43,-22.36 5.3,-0.19 11.15,-1.62 16.08,1.03 3.69,2.91 6.67,6.62 10.11,9.81 0.8,-4.16 1.49,-8.33 2.2,-12.48 -15.66,-3.54 -33,-6.46 -47.97,1.07zm-26.23 10.91l0 0c-1.71,2.99 1,4.76 3.11,6.38 0.84,6.76 0.88,13.6 0.91,20.42 -4.55,2.02 -9.16,3.85 -13.82,5.49 0.22,-5.74 -0.18,-11.53 0.87,-17.18 1.75,-3.93 4,-7.64 4.69,-11.95 -8.29,2.97 -16.77,6.9 -22.44,13.81 -2.92,2.59 1.88,4.97 3.24,6.69 0.34,15.85 0.28,31.73 0.02,47.6 -2.56,2.53 -4.88,5.35 -4.77,9.2 8.21,-2.19 16.14,-5.28 23.93,-8.59 -1.16,-3.32 -2.63,-6.5 -4.54,-9.43 -0.36,-8.29 -0.17,-16.59 -0.03,-24.86 4.02,-1.5 8.05,-2.99 12.11,-4.46 0.15,8.23 0.59,16.44 0.4,24.67 -2.23,2.19 -6.4,8.17 -0.89,8.86 6.57,-2.63 13.6,-5.05 19.08,-9.66 -0.13,-3.16 -2.46,-5.29 -4.51,-7.35 -0.21,-16.99 -0.25,-33.98 0.03,-50.97 2.63,-2.69 5.21,-5.64 4.21,-9.7 -7.73,2.42 -15.77,5.18 -21.6,11.03zm-63.06 31.3l0 0c-7.98,2.21 -16.5,2.61 -24.1,5.94 0.14,4.46 0.78,8.89 1.35,13.31 5.38,-0.15 6.84,-4.72 8.12,-9.12 3.18,-0.84 6.36,-1.6 9.56,-2.36 0.13,15.92 0.25,31.86 -0.04,47.79 -2.17,2.32 -4.26,4.72 -6.28,7.16 10.23,-0.72 20.84,-2.78 29.56,-8.48 -2.11,-1.2 -4.21,-2.4 -6.29,-3.6 -0.89,-15.69 -0.84,-31.41 0.38,-47.06 3.38,-1.3 6.77,-2.55 10.18,-3.79 0.74,1.25 2.24,3.79 2.99,5.04 7.63,-0.66 3.71,-10.64 4.43,-15.8 -9.63,4.49 -19.42,8.81 -29.86,10.97zm-396.96 -62.67c1.3,31.88 0.2,63.83 0.56,95.75 -0.35,25.98 0.84,52.02 -0.88,77.98 -2.65,-42.78 -12.3,-84.91 -24.74,-125.85 8.34,-15.96 16.78,-31.88 25.06,-47.88zm-607.1 110.86c39.96,-68.82 103.45,-123.72 177.49,-153.01 1.25,7.75 2.22,15.54 2.78,23.37 -2.61,1.58 -5.74,2.57 -7.83,4.87 -1.68,4.77 -1.68,9.91 -2.17,14.88 -9.51,4.13 -18,10.29 -27.55,14.25 -9.31,-2.15 -18.87,-5.16 -28.51,-2.88 -10.53,1.91 -20.95,7.35 -26.59,16.76 -8.61,14.04 -16.78,28.5 -27.58,41.01 -9.94,12.04 -27.58,14.88 -35.68,28.86 -8.49,11.72 -2.32,26.27 1.58,38.48 -4.57,0.57 -9.16,1.18 -13.73,1.81 2.82,3.39 5.7,6.74 8.57,10.09 -16.09,33.26 -26.82,69.13 -30.84,105.89 -3.27,0.84 -6.53,1.79 -9.79,2.68 2.99,1.22 5.98,2.5 8.99,3.72 -2.91,37.46 -0.4,75.41 9.15,111.83 -4.46,2.24 -8.9,4.53 -13.32,6.89 5.09,0.1 10.17,0.15 15.26,0.21 11.27,38.97 29.75,75.92 54.72,107.94 1.13,1.89 3.89,4.08 1.72,6.37 -4,6.8 -8.8,13.1 -12.21,20.24 7.79,-3.33 15.22,-7.41 22.61,-11.52 26.76,30.32 58.89,56.02 94.91,74.49 -0.93,8.23 -2.02,16.42 -2.67,24.67 5.17,-5.87 9.72,-12.23 14.14,-18.65 34.78,15.68 72.04,26.06 110.15,29.05 1.92,8.48 3.81,16.95 5.83,25.41 2.72,-8.15 5.03,-16.42 7.5,-24.65 42.75,2.04 85.78,-5.01 125.96,-19.64 2.96,2.73 5.91,5.41 8.9,8.12 -0.27,-3.79 -0.63,-7.56 -0.97,-11.33 42.25,-16.86 80.55,-43.05 112.21,-75.64 1.29,0.24 3.88,0.74 5.18,0.99 -0.65,-0.92 -1.96,-2.76 -2.61,-3.7 31.28,-33.44 55.7,-73.43 70.36,-116.85 3.16,-10.29 2.76,-21.17 2.97,-31.79 11.64,12.57 22.23,26.07 33.77,38.74 -22.43,69.77 -67.56,131.83 -126.11,175.75 -47.73,36.12 -104.63,60 -163.87,68.63 -73.67,10.93 -150.76,-1.66 -216.82,-36.17 -63.79,-32.71 -117.14,-85.16 -151.29,-148.14 -26.95,-49.41 -41.83,-105.27 -43.32,-161.5 -1.88,-66.38 15.09,-133.24 48.71,-190.53zm414.46 -163.2c59.56,17.79 114.05,51.73 156.82,96.78 4.93,5.12 5.92,12.45 7.94,18.97 8.4,29.41 15.33,59.29 19.33,89.64 1.39,11.48 3.37,22.99 2.73,34.61 -6.52,-31.05 -17.83,-61.05 -33.91,-88.38 1.87,-11.72 5.85,-24.2 0.59,-35.7 -6.34,-14.82 -22.97,-19.89 -35.83,-27.39 -18.76,-10.06 -29.86,-28.86 -43.12,-44.69 -6.23,-7.25 -14,-15.02 -24.29,-14.91 -14.51,-0.44 -27.02,7.6 -39.9,13.01 -4.67,0.25 -2.25,-5.47 -3.24,-8.27 0.38,-5.41 -5.35,-7.33 -9.03,-9.75 0.38,-8 1.03,-15.96 1.91,-23.92zm-458.65 157.22c44.88,-85.59 121.73,-153.76 212.09,-188.02 3.49,10.74 5.97,21.77 8.33,32.8 -61.94,24.64 -117.09,66.05 -157.51,119.1 -38.59,50.25 -63.73,110.71 -72.03,173.53 -8.67,64.2 -0.23,130.72 24.8,190.53 25.46,61.39 68.13,115.45 121.69,154.76 61.85,45.71 138.48,71.18 215.43,71.03 68.13,0.78 136.29,-18.36 194.25,-54.15 73.54,-45.11 130.47,-116.88 156.8,-199.11 13.84,-0.09 27.69,0.61 41.54,0.44 -7.41,7.96 -12.65,17.64 -16.34,27.81 -10.12,30.04 -25.68,58 -43.35,84.21 -41.89,61.2 -100.96,110.65 -168.88,140.55 -68.84,30.74 -146.48,40.86 -221.01,29.91 -69.62,-10.18 -136.31,-39.32 -191.16,-83.36 -51.49,-41.16 -92.76,-95.04 -118.59,-155.71 -19.85,-46.06 -30.61,-95.92 -32.14,-146.02 -1.96,-68.59 13.89,-137.68 46.08,-198.3z"/>
  </g>
 </g>
</svg>
