<?xml version="1.0" encoding="UTF-8"?>
<!DOCTYPE svg PUBLIC "-//W3C//DTD SVG 1.1//EN" "http://www.w3.org/Graphics/SVG/1.1/DTD/svg11.dtd">
<!-- Creator: CorelDRAW -->
<svg xmlns="http://www.w3.org/2000/svg" xml:space="preserve" width="2000px" height="1600px" version="1.1" style="shape-rendering:geometricPrecision; text-rendering:geometricPrecision; image-rendering:optimizeQuality; fill-rule:evenodd; clip-rule:evenodd"
viewBox="0 0 2000 1600"
 xmlns:xlink="http://www.w3.org/1999/xlink">
 <defs>
  <style type="text/css">
   <![CDATA[
    .fil1 {fill:black}
    .fil0 {fill:#B8B9BB}
    .fil2 {fill:#FDCE0E;fill-rule:nonzero}
    .fil3 {fill:#FEFEFE;fill-rule:nonzero}
   ]]>
  </style>
 </defs>
 <g id="Capa_x0020_1">
  <metadata id="CorelCorpID_0Corel-Layer"/>
  <g id="Towson_x0020_Tigers.cdr">
   <path class="fil0" d="M1981.85 181.66c-35.14,121.08 -70.25,242.19 -105.41,363.25 -8.8,29.28 -15.64,59.39 -29.45,86.86 -22.09,45.66 -58.97,83.53 -103.01,108.46 -33.45,19.22 -70.25,32.04 -107.69,40.82 24.68,-21.16 42.19,-49.6 53.75,-79.77 14.49,-38.23 19.75,-79.81 16.04,-120.5 -0.27,-2.8 -1.01,-5.48 -1.85,-8.13 -5.79,18.07 -10.13,36.57 -15.98,54.63 -56.72,6.53 -113.45,13.01 -170.17,19.48 1.35,-4.84 2.59,-9.71 3.84,-14.59 -29.71,17.34 -64.2,22.74 -97.96,25.79 -26.91,2.97 -53.77,6.27 -80.7,9.13 -2.63,0.24 -5.09,1.23 -7.49,2.21 71.49,17.63 141.34,42.3 207.22,75.27 65.83,32.74 127.39,73.77 183.93,120.75 36.81,30.19 70.79,63.63 106.41,95.19 -28.49,17.87 -58.45,33.4 -87.35,50.63 -2.93,27.79 -13.14,55.26 -32,76.19 -21.01,23.68 -50.17,38.63 -80.28,47.18 -26.31,7.41 -53.72,11.13 -81.03,10.58 9.48,-29.78 15.71,-60.56 18.68,-91.64 -15.16,-5.81 -31.67,-6.42 -47.69,-5.68 -33.64,1.79 -66.78,9.68 -98.31,21.34 -23.1,8.81 -45.52,19.94 -65.27,34.93 14.43,11.45 28.09,25.86 32,44.49 3.46,13.17 0.78,26.71 -0.19,39.98 0.28,16.41 14.38,27.72 27.1,35.74 20.23,-6.31 38.44,-17.47 54.93,-30.57 8,11.29 15.4,23.41 18.77,36.95 3.98,15.45 2.4,31.54 1.65,47.28 10.92,6.36 22.42,12.13 31.95,20.49 -20.65,10.15 -41.05,23.24 -53.51,43.14 -12.06,18.8 -15.06,42.42 -11.41,64.17 1.49,9.49 3.74,18.86 5.6,28.29 -29.69,-13.75 -63.77,-22.68 -96.21,-13.94 -32.61,8.3 -57.29,33.96 -74.32,61.85l-0.65 0c-55.68,-118.12 -152.47,-217.43 -271.69,-271.66 -33.6,-15.83 -69.34,-26.23 -104.27,-38.5 -30.31,-10.3 -60.86,-19.81 -91.79,-28 -85.45,-24.15 -169.32,-54.59 -248.78,-94.38 -99.07,-48.72 -190.04,-112.86 -273.24,-185.14 7.16,2.23 13.45,6.42 20.15,9.64 132.28,67.54 269.68,125.87 411.99,168.62 6.12,-10.38 12.27,-20.58 16.85,-27.65 -73.64,-16.34 -145.14,-41.85 -212.8,-75.16 -83.47,-41.05 -161.96,-92.63 -231.43,-154.56 -25.28,3.57 -50.74,5.47 -75.96,9.24 -2.86,14.34 -1.73,29.16 1.94,43.24 9.24,35.64 28.88,67.2 48.06,98.19 -46.84,-11.31 -94.08,-23.41 -137.39,-45.03 -31.54,-16 -61.62,-38.4 -78.23,-70.38 -16.25,-30.72 -16.82,-67.48 -8.27,-100.57 28.5,-101.12 57.51,-202.1 85.89,-303.24 -48.99,4.86 -97.87,10.86 -146.82,16.15l0 -5.01c2.46,-5.22 3.92,-10.78 5.2,-16.38 14.08,-54.05 27.96,-108.17 42.17,-162.19 72.4,-5.37 144.88,-9.84 217.32,-14.78 396.19,-26.63 792.36,-53.24 1188.55,-79.79 179.96,-12.28 359.98,-23.87 539.92,-36.48l6.84 0 0 2.8c-6.95,19.97 -11.98,40.56 -18.15,60.77zm-1309.75 676.11c-65.68,-29.75 -130.29,-63.12 -188.16,-106.46 -23.35,13.28 -49.9,19.89 -76.44,22.81 -21.77,2.66 -43.59,4.87 -65.37,7.59 12.25,8.04 26.12,13.3 39.11,20.04 85.9,41.05 173.79,78.59 265.03,106.14l1.52 -0.5c7.2,-16.95 15.49,-33.45 24.31,-49.62zm-81.61 -100.15c41.22,14.29 83.02,26.88 125.13,38.27 7.33,-7.8 14.93,-15.34 22.76,-22.65 -12.04,-10.71 -23.77,-21.75 -35.31,-32.97 -39.57,4.78 -79.18,9.01 -118.75,13.73 1.13,2.38 4.02,2.67 6.17,3.62z"/>
   <path class="fil1" d="M1987.2 128.48c-38.55,133.41 -77.37,266.74 -116.04,400.11 -6.7,22.5 -12.78,45.18 -19.79,67.58 -18.3,55.3 -57.84,102.19 -106.93,132.97 -24.4,15.24 -50.72,27.91 -78.63,35.3 23.28,-28.63 37.35,-63.77 44.65,-99.68 9.87,-46.06 6.23,-93.66 -2.5,-139.56 -9.77,30.76 -17.92,62.11 -26.82,93.16 -50,5.68 -99.96,11.79 -149.98,16.97 2.76,-9.31 5.34,-18.66 7.98,-28 -23.27,22.88 -55.81,33.18 -87.46,37.7 -47.76,5.66 -95.55,10.89 -143.3,16.49 -3.08,0.44 -6.19,0.35 -9.18,-0.38 -37.83,-7.92 -76.06,-13.9 -114.48,-18.05 -2.05,-0.29 -4.07,-0.69 -6.05,-1.2 -8.14,0.28 -16.17,-1.39 -24.27,-1.79 -20.68,-1.59 -40.59,-7.81 -60.78,-12.18 -14.61,-3.27 -29.03,-8.24 -44.11,-8.76 -16.88,-0.84 -33.59,2.8 -49.85,6.9 -21.18,5.65 -19.58,12.57 -40.95,17.54l-23.36 0.33c-3.95,2.57 -9.05,2.96 -13.5,4.32 -90.2,22.36 -184.61,34.36 -277.13,20.97 5.62,4.57 11.55,14.32 22.44,33.18 9.22,9.73 17.96,19.92 27.58,29.26 -44.32,4.87 -88.61,10.32 -132.95,15.01 -30.38,-10.5 -59.77,-23.95 -88.91,-37.53 -18.65,-8.72 -36.99,-18.11 -55.26,-27.6 -5.24,-2.66 -10.17,-6.02 -15.89,-7.62 7.88,8.76 15.73,17.59 23.93,26.08 5.43,2.4 10.83,8.53 22.38,21.05 8.68,7.67 18.63,17.07 27.98,23.96 -20.5,10.4 -42.97,16.38 -65.73,19.1 -61.03,7.09 -122.08,14.1 -183.13,21.15 -8.7,31.24 -2.3,64.89 12.34,93.31 6.8,14.5 15.57,27.93 23.32,41.91 -29.56,-7.28 -58.76,-16.23 -86.82,-28.1 -25.91,-11.07 -51.09,-24.84 -71.9,-44.04 -20.2,-18.45 -35,-43.62 -38.23,-71.04 -2.52,-18.48 -0.38,-37.34 4.4,-55.28 29.96,-105.64 59.96,-211.28 89.92,-316.92 -49.24,5.53 -98.5,11.05 -147.75,16.5 14.21,-54.42 28.26,-108.88 42.38,-163.33 330.93,-22.63 661.94,-44.44 992.91,-66.77 313.17,-21.02 626.31,-41.94 939.47,-63.02zm-457.71 620.32c60.89,29.6 117.88,66.84 170.87,108.86 40.27,31.88 78.52,66.25 116,101.33 -24.72,14.1 -49.37,28.32 -74.17,42.27 -2.42,1.65 -6.36,2.8 -5.94,6.45 -1.45,18.23 -6.32,36.29 -15.03,52.4 -14.34,26.98 -39.73,46.61 -67.66,58.06 -27.65,11.35 -57.62,17.07 -87.48,17.07 8.17,-28.61 14.55,-57.94 15.9,-87.75 -12.89,-7.72 -28.25,-9.37 -42.97,-9.87 -35.14,-0.67 -70.08,6.38 -103.43,17.1 -33.33,11.2 -66.02,26.56 -92.47,50.14 17.86,11.64 36.22,27.16 39.75,49.43 3.64,15.46 -4.59,31.39 0.97,46.61 5.62,15.73 19.77,26.03 33.5,34.38 19.57,-5.62 38.52,-14.19 54.4,-27.07 14.1,22.15 17.93,50.13 11.3,75.47 8.17,4 16.08,8.51 23.85,13.25 -18.92,9.49 -35.34,24.4 -45.09,43.3 -12.06,23.54 -14.34,51.2 -9.43,76.95 -28.91,-11.94 -62.15,-15.69 -92.19,-5.71 -25.88,8.53 -47.12,27.45 -62.21,49.79 -4.15,-9.28 -9.08,-18.17 -14.04,-27.03 -64.81,-111.49 -167.79,-200.71 -288.32,-247.01 -138.3,-50.06 -283.31,-82.69 -415.69,-148.23 -68.46,-33.47 -132.96,-74.97 -192.39,-122.65 130.94,62.59 266.35,116.98 406.82,154.04 3.41,-2.95 6.8,-5.96 10.17,-8.93 -7.58,-2.46 -15.29,-4.46 -23,-6.48 -14.5,-4 -28.95,-8.16 -43.35,-12.48 6.12,-10.38 12.27,-20.58 16.85,-27.65 2.4,-2.93 4.74,-5.93 7.05,-8.95 -108.44,-22.86 -211.77,-66.94 -306,-124.86 -42.78,-26.59 -84.36,-55.62 -121.55,-89.72 102.69,51.03 208.35,97.13 318.61,129.21 9.53,-23.24 20.31,-45.97 33.32,-67.45 -61.16,-26.71 -120.8,-57.43 -175.91,-95.22 -20.8,-14.44 -41.39,-29.49 -59.39,-47.37 85.66,41.44 175.45,74.8 268.08,96.87 10.61,-12.4 22.32,-23.85 35.33,-33.71 -33.16,-28.4 -64.78,-58.76 -92.63,-92.44 73.58,8.29 148.16,1.52 220.37,-13.85 35.83,-7.56 71.12,-17.33 106.32,-27.33 15.05,-4.12 30.06,-8.63 45.47,-11.18 11.22,-2.12 22.45,0.87 33.41,3.16 22.99,5.33 45.71,11.89 68.95,16.09 15.37,2.48 30.93,3.13 46.36,5.11 119.54,13.39 238.44,42.21 346.69,95.6zm-209.32 383.39c-6.05,10.86 -10.57,22.82 -11.16,35.33 -1.64,22.69 7.47,44.96 20.78,62.9 10.8,10.17 26.84,11.35 40.93,11.52 -9.52,-9.04 -19.02,-19.22 -22.13,-32.36 -4.78,-15.41 3.89,-31.46 -1.14,-46.82 -4.52,-13.43 -15.87,-22.97 -27.28,-30.57z"/>
   <path class="fil2" d="M996.9 675.41c12.95,-4.06 25.69,-9.6 39.37,-10.53 11.5,0.03 22.02,5.44 32.89,8.55 -4.47,5.45 -9.81,10.15 -13.81,15.98 -8.44,11.54 -13.84,25.22 -15.83,39.39 17.62,-19.18 38.77,-36.11 63.36,-45.28 7.79,0.5 15.27,3.07 22.99,4.27 10.17,2.25 20.61,3.07 30.72,5.56 -30.57,9.55 -62.02,21.7 -84.51,45.45 -11.28,12.27 -19.64,28.78 -17.45,45.83 3.07,28.63 18.04,54.82 37.6,75.46 25.92,27.43 59.69,46.01 94.48,59.85 -22.12,-25.56 -41.89,-53.9 -53.24,-85.98 -6.63,-19.27 -10,-40.45 -4.96,-60.49 4.21,-15.2 16.42,-26.38 28.54,-35.64 22.53,-16.36 48.17,-27.79 73.6,-38.8 24.84,1.47 49.5,6.42 73.96,11.16 111.47,23.05 217.3,70.74 310.42,135.93 44.84,31.59 87.5,66.74 124.63,107.25 -39.62,-0.17 -79.22,-0.53 -118.84,-0.99 -8.48,-0.15 -17.56,1.16 -25.28,-3.16 -14.32,-7.26 -27.14,-17.05 -40.09,-26.46 5.66,15.14 10.67,30.52 16.74,45.51 -7.71,0.09 -15.5,-0.57 -22.91,-2.65 -2.63,-3.12 -6.96,-3.85 -10.5,-5.41 -40.86,-14.38 -82.97,-26.99 -126.4,-29.94 -65.27,-2.25 -130.87,7.14 -193.14,26.76 -10.59,3.58 -21.41,6.7 -31.47,11.69 61.79,-14.7 125.35,-20.01 188.65,-23.06 -67.68,16.87 -132.04,46.07 -190.29,84.32 -2.19,1.51 -4.26,3.16 -6.28,4.86 43.88,-16.74 87.75,-33.7 132.45,-48.21 25.3,-7.96 50.67,-16.31 77,-20.1 -46.12,20.14 -90.44,45.89 -127.18,80.61 -0.18,0.86 -0.56,2.57 -0.73,3.41 -3.33,3.28 -7.01,6.21 -11.39,7.93 -4.34,1.39 -8.67,2.8 -12.89,4.49 -33.91,12 -66.96,26.9 -97.32,46.27 -10.89,6.87 -21.12,14.74 -30.48,23.6 14.21,-32.88 40.4,-59.09 68.31,-80.82 -10.86,1.03 -21.54,3.2 -32.17,5.56 -31.66,4.86 -61.07,19.05 -87.75,36.31 1.6,-19.51 10.49,-37.45 19.92,-54.25 19.5,-34.08 44.36,-64.65 69.62,-94.55 -20.17,9.77 -39.73,20.87 -58.25,33.5 -50.04,33.79 -92.11,80.44 -116.42,136.04 -1.88,-1.03 -3.79,-1.98 -5.73,-2.84 21.29,-61.87 58.34,-118.17 106.02,-162.88 -4.75,-1.5 -9.6,-2.55 -14.52,-3.12 -42.45,-6.13 -85.71,-0.3 -126.91,10.57 -34.42,9.2 -67.91,22.06 -99.52,38.52 14.66,-17.81 33.5,-31.89 53.79,-42.73 34.76,-18.66 73.41,-28.84 112.19,-35.01 38.59,-6.24 77.77,-7.29 116.78,-7.41 -20.67,-3.48 -41.66,-4.82 -62.25,-8.84 -30.4,-6.2 -61.39,-9.37 -92.36,-10.72 -83.95,-2.8 -169.32,10.19 -246.52,44.04 4.84,-12.06 9.28,-24.48 16.33,-35.45l1.05 -0.61c24.93,-16.61 54.83,-23.27 84.19,-26.72 20.34,-2.67 40.85,-2.23 61.31,-2.76 -18.25,-7.55 -37.94,-10.9 -57.3,-14.35 -19.56,-3.01 -39.52,-4.68 -59.23,-2.17 11.69,-16.72 27.31,-30.76 44.34,-42 33.54,23.66 71.88,39.26 109.73,54.61 20.97,-10.57 40.52,-23.88 58.36,-39.1 22.42,-19.55 42.48,-42.5 55.13,-69.66l-1.09 0.38c-35.06,10.92 -71.16,21.79 -108.26,20.69 -27.64,-2.14 -54.31,-10.88 -80.14,-20.5 -23.22,-8.7 -45.6,-19.45 -67.48,-31.07 -3.97,-2.43 -7.97,-4.85 -11.91,-7.27 23.33,1.14 46.78,2.42 70.08,-0.1 6.8,-0.3 13.6,-2.23 20.42,-1.54 38.78,13.32 79.54,20.78 120.45,23.28 14,-0.02 28.46,1.37 42.08,-2.65 -28.13,-11.62 -57.1,-22.38 -82.44,-39.71 22.75,-6.9 45.3,-14.31 67.74,-22.1zm334.36 84.32l0 0c-26.76,5.95 -52.78,15.36 -77.24,27.76 -23.79,12.17 -46.48,27.58 -63.54,48.4 4.22,-0.73 8.21,-2.42 12.32,-3.68 17.92,-3.01 35.91,-6.91 54.21,-6.44 5.9,0.52 12.5,0.76 17.26,4.82 5.12,4.59 4,12.1 4.49,18.27l-0.45 0.66c14.38,-2.83 29.19,-1.14 43.29,2.42 26.34,7.01 50.78,20.12 72.65,36.23 22.06,-0.09 44.23,-6.95 61.39,-21.03 6.7,4.94 14.06,9.41 22.36,11.05 15.05,3.58 32.55,-3.56 39.45,-17.71 6.17,-12.21 5.03,-26.52 2.21,-39.47l-0.78 1.33c-6.8,5.09 -15.11,8.38 -23.7,7.7 -15.6,-1.16 -29.94,-8.17 -43.64,-15.22 -33.61,-18.1 -64.68,-40.72 -99.27,-57.03 -6.82,-1.79 -14.14,0.88 -21.01,1.94z"/>
   <path class="fil3" d="M80.27 288.53c622.43,-41.52 1244.87,-83.2 1867.31,-124.72 -0.49,0.57 -1.48,1.69 -1.96,2.27 -545.45,63.02 -1090.91,126.05 -1636.36,188.99 -33.15,115.23 -65.96,230.61 -99.05,345.88 -9.51,34.31 -18.51,69.09 -20.5,104.78 -1.01,20.82 0.71,42.44 10.08,61.39 -21.52,-6.49 -41.92,-16.72 -60.4,-29.5 -17.45,-12.34 -33.41,-28.53 -40.34,-49.18 -5.55,-16.67 -3.24,-34.69 0.4,-51.51 34.68,-123.04 69.96,-245.92 104.53,-369.01 -49.52,5.53 -99.05,11.15 -148.57,16.56 8.04,-32.04 16.44,-64 24.86,-95.95zm1766.95 -70.32c26.93,-3.35 53.92,-6.38 80.91,-9.3 -33.61,118.94 -67.46,237.81 -101.16,356.73 -8.66,29.92 -21.64,58.93 -40.59,83.79 -13.43,17.5 -30.15,32.78 -49.86,42.91 13.21,-35.48 13.18,-74.21 11.02,-111.5 -4.66,-61.74 -19.08,-122.4 -38.11,-181.2 -17.2,63.26 -35.71,126.15 -53.39,189.27 -26.97,3.24 -53.98,6.19 -80.97,9.32 34.21,-120.25 68.23,-240.55 102.44,-360.78 26.97,-2.88 53.86,-6.27 80.83,-9.11 11.55,59.36 23.53,118.61 35.22,177.95 18.5,-62.5 35.76,-125.4 53.66,-188.08zm-386.06 44.25c54.61,-6.36 109.24,-12.52 163.87,-18.78 -27.41,97.79 -55.01,195.54 -82.53,293.31 -5.43,19.75 -14.67,39.39 -31.09,52.36 -19.16,15.2 -43.69,21.26 -67.5,24.33 -53.7,6.15 -107.39,12.3 -161.07,18.4 27.01,-96.98 54.28,-193.89 81.37,-290.86 5.16,-18.57 12.99,-37.18 27.14,-50.74 18.78,-17.8 44.82,-24.71 69.81,-28.02zm-289.6 33.03c53.03,-5.95 106,-12.29 159.05,-18.04 -9.75,35.05 -19.85,70 -29.6,105.04 -24.13,-8.22 -48.02,-17.31 -72.25,-25.19 -25.58,2.36 -51.08,5.79 -76.63,8.53 -7.01,25.2 -14.09,50.38 -21.1,75.58 52.93,-6.31 105.89,-12.31 158.8,-18.67 -14.15,50.21 -28.23,100.44 -42.52,150.59 -4.83,16.65 -12.38,33.03 -25.06,45.18 -11.91,11.83 -27.7,18.75 -43.58,23.38 -8.14,0.28 -16.17,-1.39 -24.27,-1.79 -20.68,-1.59 -40.59,-7.81 -60.78,-12.18 -14.61,-3.27 -29.03,-8.24 -44.11,-8.76 -16.88,-0.84 -33.59,2.8 -49.85,6.9 6.11,-21.85 12.23,-43.7 18.51,-65.51 23.85,8.29 47.54,17.07 71.47,25.07 25.85,-1.94 51.6,-5.66 77.41,-8.48 6.72,-24.85 13.81,-49.62 20.61,-74.45 -52.78,5.77 -105.51,12.09 -158.29,17.94 13.45,-48.8 27.13,-97.54 40.63,-146.33 5.45,-19.25 13.68,-38.76 29.16,-52.13 19.87,-17.5 46.8,-23.66 72.4,-26.68zm-216.89 24.74c27.58,-3.01 55.14,-6.23 82.7,-9.43 -27.1,96.93 -54.53,193.75 -81.73,290.65 -3.94,14.32 -9.51,28.3 -18,40.57 -4.1,4.36 -10.42,4.59 -15.79,6.23 -91.98,22.8 -188.34,34.84 -282.61,20.15 8.55,11.92 18.57,22.7 27.92,34 -42.68,5.07 -85.41,9.73 -128.09,14.76 33.98,-120.3 67.96,-240.59 101.86,-360.89 27.66,-3.41 55.36,-6.4 83.03,-9.58 -27.5,96.76 -54.57,193.65 -81.84,290.49 24.49,-2.63 48.93,-5.67 73.44,-8.27 27.39,-96.89 54.84,-193.77 82.21,-290.66 27.58,-3.13 55.14,-6.46 82.76,-9.36 -27.06,96.82 -54.47,193.55 -81.63,290.33 24.49,-2.63 48.95,-5.54 73.44,-8.33 27.53,-96.87 54.77,-193.82 82.33,-290.66zm-184.19 405.28c21.88,11.61 44.26,22.36 67.48,31.06 25.83,9.62 52.5,18.36 80.14,20.5 37.1,1.1 73.2,-9.77 108.26,-20.69 -22.28,14.78 -46.05,27.34 -70.82,37.41 -13.65,5.12 -28.05,10.69 -42.93,8.72 -22.02,-3.02 -42.69,-11.98 -62.27,-22.15 -28.47,-15.37 -55.18,-33.98 -79.86,-54.85zm581.79 32.28c34.59,16.31 65.66,38.93 99.27,57.03 13.7,7.05 28.04,14.06 43.64,15.22 8.59,0.68 16.9,-2.61 23.7,-7.7 -7.43,14.56 -22.04,26.31 -38.94,26.29 -19.25,-0.33 -36.8,-10.19 -51.88,-21.39 -27.45,-20.67 -49.85,-47.03 -75.79,-69.45zm-32.4 72.69c1.14,-16.99 15.31,-34.35 33.35,-33.45 8.25,8.21 17.33,15.58 26.61,22.61 -3.56,11.16 -20.06,11.14 -24.86,0.97 -0.17,8.04 0.97,16.06 4.48,23.37 -10.74,-9.69 -25.09,-14.95 -39.58,-13.5zm-117.07 1.73c22.08,-6.91 44.48,-13.58 67.56,-15.94 6.42,-0.4 16.31,-1.09 18.44,6.82 1.11,9.6 -5.18,18.05 -10.04,25.77 -0.49,-6.17 0.63,-13.68 -4.49,-18.27 -4.76,-4.06 -11.36,-4.3 -17.26,-4.82 -18.3,-0.47 -36.29,3.43 -54.21,6.44zm-442.91 19.94c19.71,-2.51 39.67,-0.84 59.23,2.17 19.36,3.45 39.05,6.8 57.3,14.35 -20.46,0.53 -40.97,0.09 -61.31,2.76 -29.36,3.45 -59.26,10.11 -84.19,26.72 7.96,-16.36 18.72,-31.04 28.97,-46zm686.09 116.56c33.96,-6.52 69.07,-8.9 103.3,-3.09 7.41,2.08 15.2,2.74 22.91,2.65 7.62,0.64 14.78,3.75 22.21,5.48 36.99,10.17 73.94,20.5 110.95,30.59 -0.09,24.04 -12.11,48.33 -33.01,60.84 -33.18,-21.64 -66.21,-43.54 -99.48,-65.01 -6.63,-1.92 -13.74,-1.22 -20.55,-1.62 -45.58,0.06 -90.99,8.5 -134.12,23.07 -31.79,11.03 -62.7,25.62 -89.56,46.1 -21.77,16.47 -40.82,37.5 -51.47,62.89 -9.69,22.93 -11.04,48.95 -5.05,73.01 8.37,34.09 28.1,64.04 50.25,90.76 12.84,-8.4 27.91,-13.26 43.28,-13.43 25.52,-0.24 50.3,8.86 71.85,22.08 -17.26,15.66 -24.25,39.64 -24.69,62.32 -32.19,-13.84 -69.2,-3.1 -96.4,16.69 -34.49,-48.95 -73.24,-95.05 -116.91,-136.06 -11.49,-65.75 6.85,-136.72 50.51,-187.5 4.38,-1.72 8.06,-4.65 11.39,-7.93 3.11,-2.87 6.52,-5.44 10.08,-7.77 53.31,-34.4 111.98,-61.79 174.51,-74.07zm-300.53 88.87c10.63,-2.36 21.31,-4.53 32.17,-5.56 -27.91,21.73 -54.1,47.94 -68.31,80.82 9.36,-8.86 19.59,-16.73 30.48,-23.6 30.36,-19.37 63.41,-34.27 97.32,-46.27 -48.75,28.86 -87.34,74.71 -107.74,127.53 -19.43,-13.47 -39.85,-25.51 -60.65,-36.73 15.87,-38.46 44.21,-70.76 76.73,-96.19zm452.82 51.11c3.9,-14.02 6.3,-28.38 8.99,-42.67 11.6,8.19 22.65,17.16 34,25.7 -11.24,11.33 -27.89,14.28 -42.99,16.97zm-171.51 150.17c12.08,-5.11 23.45,-11.6 34.73,-18.23 3.46,9.75 1.71,20.49 -2.04,29.9 -10.27,-5.46 -21.72,-8.05 -32.69,-11.67zm-633.59 -283.54c-11.24,9.19 -21.68,19.35 -31.11,30.57 -2.31,3.02 -4.65,6.02 -7.05,8.95 -4.58,7.07 -10.73,17.27 -16.85,27.65 14.4,4.32 28.85,8.48 43.35,12.48 7.71,2.02 15.42,4.02 23,6.48 55.85,-47.51 124.4,-78.65 195.57,-95.01 -43.76,32.67 -79.3,76.63 -101.22,126.7 22.84,5.41 45.94,10.46 67.98,18.65 21.29,-61.87 58.34,-118.17 106.02,-162.88 -4.75,-1.5 -9.6,-2.55 -14.52,-3.12 -42.45,-6.13 -85.71,-0.3 -126.91,10.57 -34.42,9.2 -67.91,22.06 -99.52,38.52 14.66,-17.81 33.5,-31.89 53.79,-42.73 34.76,-18.66 73.41,-28.84 112.19,-35.01 38.59,-6.24 77.77,-7.29 116.78,-7.41 -20.67,-3.48 -41.66,-4.82 -62.25,-8.84 -44.78,-0.76 -89.81,3.07 -133.31,14.08 -45.2,11.36 -89.69,30.75 -125.94,60.35zm-381.67 -524.88l0 0c-3.1,-0.46 -2.76,3.24 -3.61,5.12 -20.08,71.79 -40.12,143.6 -60.35,215.34 25.53,-2.92 51.05,-5.83 76.57,-8.77 20.5,-73.39 40.92,-146.82 61.74,-220.13 -24.8,2.78 -49.56,5.69 -74.35,8.44zm1035 -118.36l0 0c-20.56,73.42 -40.86,146.93 -61.83,220.23 25.56,-2.81 51.08,-5.87 76.63,-8.67 20.61,-73.41 40.99,-146.88 61.81,-220.23 -25.55,2.91 -51.07,5.94 -76.61,8.67zm-1021.55 48.78c54.27,-6.29 108.57,-12.38 162.86,-18.67 -27.68,98.36 -55.3,196.72 -83.09,295.03 -5.43,19.85 -15.41,39.03 -31.84,51.92 -18.65,-8.72 -36.99,-18.11 -55.26,-27.6 -5.24,-2.66 -10.17,-6.02 -15.89,-7.62 14.73,16.37 29.38,33.01 46.31,47.13 -7.65,7.43 -36.09,10.66 -47.09,11.84 -51.81,5.89 -103.62,11.93 -155.43,17.72 27.2,-97.16 54.42,-194.34 81.64,-291.51 5.47,-19.58 14.08,-39.35 29.94,-52.76 18.86,-16.07 43.79,-22.38 67.85,-25.48z"/>
  </g>
 </g>
</svg>
