<?xml version="1.0" encoding="UTF-8"?>
<!DOCTYPE svg PUBLIC "-//W3C//DTD SVG 1.1//EN" "http://www.w3.org/Graphics/SVG/1.1/DTD/svg11.dtd">
<!-- Creator: CorelDRAW -->
<svg xmlns="http://www.w3.org/2000/svg" xml:space="preserve" width="2000px" height="1600px" version="1.1" style="shape-rendering:geometricPrecision; text-rendering:geometricPrecision; image-rendering:optimizeQuality; fill-rule:evenodd; clip-rule:evenodd"
viewBox="0 0 2000 1600"
 xmlns:xlink="http://www.w3.org/1999/xlink">
 <defs>
  <style type="text/css">
   <![CDATA[
    .fil0 {fill:black}
    .fil2 {fill:#004890;fill-rule:nonzero}
    .fil1 {fill:#EE3D33;fill-rule:nonzero}
    .fil3 {fill:#FEFEFE;fill-rule:nonzero}
   ]]>
  </style>
 </defs>
 <g id="Capa_x0020_1">
  <metadata id="CorelCorpID_0Corel-Layer"/>
  <g id="Tulsa_x0020_Golden_x0020_Hurricane.cdr">
   <path class="fil0" d="M516.05 24.32c15.21,-15.29 40.67,-18.13 59.37,-7.81 16.6,8.92 27.31,27.67 26.08,46.55 0,18.52 -11.83,35.58 -28.13,43.8 21.19,127.46 42.78,254.88 63.89,382.37 -17.44,-2.97 -34.86,-6.1 -52.26,-9.3 -17.01,-123.6 -34.12,-247.17 -51.18,-370.74 -11.91,-4.94 -22.67,-13.47 -28.2,-25.33 -10.02,-19.29 -5.74,-44.88 10.43,-59.54zm514.62 1106.59c34.48,-11.15 67.75,-25.8 100.08,-42.09 33.76,31.38 75.08,55.46 120.5,64.83 58.74,12.45 119.62,3.85 176.93,-11.58 6.71,-1.82 13.39,-3.74 20.08,-5.73 19.6,44.72 42.8,87.76 66.86,130.2 7.02,12.22 14.26,24.31 22.21,35.94 -49.54,10.63 -99.16,24.36 -144.22,48.03 14.98,26 29.74,54.97 26.28,85.94 -2.1,20.24 -16.29,36.89 -32.71,47.78 -17.55,12.96 -40.01,15.57 -61.15,16.7 -38.47,1.64 -76.97,-3.08 -114.78,-9.94 -54.67,-12.84 -111.41,-14.76 -167.22,-10.32 -10.99,0.07 -19.57,8.45 -30.36,9.55 -6.81,1.18 -15.85,0.51 -19.18,-6.56 -4.64,-10.17 -2.05,-21.57 0.51,-31.92 11.14,-35.65 12.17,-73.41 14.29,-110.4 2.23,-67.7 1.92,-135.61 -3.53,-203.16 8.53,-2.23 17.01,-4.61 25.41,-7.27zm225.29 -128.42c16.06,-18.95 34.48,-35.73 52.23,-53.1 3,-2.79 6.02,-5.58 9.02,-8.4 2.61,15.78 4.66,31.66 7.38,47.44 -3.28,1.92 -6.64,3.77 -9.99,5.53l0.17 1.08c-17.93,9.61 -39.06,13.04 -58.81,7.45zm112.74 -285.2c4.33,-5.95 8.58,-11.94 12.7,-18.04 3.69,-5.45 7.33,-10.94 10.91,-16.47 6.05,11.45 11.71,23.11 17.45,34.71 -14.65,6.51 -29.1,13.53 -43.16,21.21 -4.08,-0.82 -8.18,-1.69 -12.17,-2.51 4.87,-6.2 9.55,-12.55 14.27,-18.9zm-75.08 -239.62c-37.86,11.04 -72.47,31 -105.23,52.57 -67.6,45.54 -127.55,102.54 -176.14,168.01 -5.66,8.25 -11.04,16.7 -16.55,25.06 -30.02,10.06 -59.02,22.87 -87.73,36.17 -3.54,-6.36 -7.58,-12.4 -12.17,-18.01 -0.54,-0.49 -1.61,-1.46 -2.15,-1.98 -5.35,-4.04 -11.04,-7.58 -16.96,-10.65l-0.74 -0.16c-8.1,-1.56 -16.34,-2.48 -24.57,-2.3 1.41,-19.72 3.05,-39.45 3.74,-59.2 4.87,-0.92 9.71,-1.95 14.55,-3.02 48.24,-11.81 97.42,-30.1 132.59,-66.58 23.44,-23.74 39.4,-55.56 42.14,-88.96 1.54,-18.93 -12.09,-38.12 -31.25,-40.89 -13.66,-2.84 -26.8,3.54 -37.84,10.94 -30.79,18.6 -66.75,27.1 -102.36,29.69 -10.91,0.9 -21.85,1.21 -32.79,1.1 -55.63,-95.7 -112.81,-190.63 -164.17,-288.76 -6.89,-14.73 -15.91,-28.85 -19.39,-44.91 -1.84,-5.74 2.82,-10.94 8.27,-11.86 13.71,-2.54 27.59,0.74 41.14,2.84 30.33,5.72 61.3,10.28 92.22,7.46 31.46,-1.92 61.61,-11.61 92.01,-19.14 35.15,-8.48 71.01,-16.03 107.36,-15.21 29.23,-0.05 59.68,6.61 83.15,24.87 20.72,15.83 33.81,39.88 40.14,64.86 3.76,14.91 8.17,29.66 13.19,44.21 18.24,-25.79 43.55,-47.34 74.11,-56.71 20.36,-6.79 42.39,-8.66 63.5,-4.43 -4.56,88.63 13.47,176.64 39.06,261.07 -5.76,1.11 -11.47,2.41 -17.13,3.92zm-641.96 -342.56c4.38,4.82 11.04,10.04 9.09,17.42 -1.66,6.12 -10.55,8.27 -14.86,3.77 -14.39,-15.55 -30.2,-30 -48.05,-41.5 -5.64,-3 -5.84,-10.91 -1.56,-15.14 3.3,-2.41 8.06,-3 11.47,-0.33 16.45,9.55 29.95,23.08 43.91,35.78zm336.31 1375.81c6.38,-2.74 13.93,2.84 13.01,9.81 -1.87,5.53 -6.68,9.27 -9.94,13.96 -11.63,15.22 -14.47,34.76 -23.18,51.46 -4.41,6.23 -15.37,3.54 -16.19,-4.07 -0.21,-7.43 4.4,-13.91 6.58,-20.83 6.38,-18.36 14.14,-37.81 29.72,-50.33zm-309.32 -354.32c11.4,1.02 22.85,1.02 34.25,0.02 18.37,141.84 36.64,283.65 54.92,425.48 -10.22,0 -20.44,0.06 -30.66,-0.1 -19.34,-141.81 -39.39,-283.54 -58.51,-425.4zm51.72 -1.95c6,-0.97 11.99,-2.1 17.91,-3.53 23.82,143.7 48.11,287.33 72.06,431.01 -5.51,-0.05 -11.02,-0.05 -16.53,-0.13 -24.38,-142.45 -49,-284.87 -73.44,-427.35zm-35.14 -319.15c0.79,4.97 1.74,9.94 2.74,14.91 -18.19,22.06 -35.86,44.55 -52.62,67.73 -0.48,-4.12 -0.99,-8.22 -1.48,-12.3 15.34,-24.79 38.83,-43.62 51.36,-70.34zm-76.44 -171.27c11.14,-0.38 22.03,2.72 33.12,3.36 6.61,0.74 13.45,-0.05 19.96,1.64 -0.95,1.02 -2.85,3.02 -3.77,4.02 4.36,26 8.94,51.95 13.02,77.98 -18.01,-11.1 -39.4,-19.39 -60.87,-16.55 -3.07,-20.85 -5.61,-41.81 -8.84,-62.66 2.23,-2.79 4.56,-5.56 7.38,-7.79z"/>
   <path class="fil1" d="M1030.67 1130.91c34.48,-11.15 67.75,-25.8 100.08,-42.09 33.76,31.38 75.08,55.46 120.5,64.83 58.74,12.45 119.62,3.85 176.93,-11.58 15.21,37.17 31.61,73.98 52.02,108.62 8.15,13.98 17.7,27.07 28.41,39.21 -27.08,5.2 -54.2,10.56 -80.66,18.37 -15.3,4.69 -30.82,9.89 -43.68,19.75 -6.99,6.05 -16.85,3.12 -25.26,3.56 16.71,26.26 35.41,52.74 41.01,84.02 3.05,16.11 -0.71,34.61 -14.08,45.21 -21.19,16.96 -49.67,19.57 -75.83,20.06 -24.61,0.26 -49.82,3.41 -73.8,-3.74 -32.22,-7.2 -64.14,-19.83 -97.67,-17.42 -40.99,0.26 -83.07,-0.72 -122.39,12.76 2.84,-26.67 24.08,-45.21 39.96,-64.89 9.35,-11.24 19.03,-23.77 19.26,-39.09 -20.85,18.6 -38.7,40.3 -57.76,60.69 5.68,-59.07 11.17,-118.19 12.88,-177.55 0.82,-17.08 0.74,-34.24 -1.23,-51.25 6,20.03 15.91,39.47 32.05,53.2 1.64,-5.33 5.1,-10.55 4.58,-16.27 -4.92,-10.06 -13.52,-17.77 -18.39,-27.87 -12.37,-24.36 -11.27,-52.41 -16.93,-78.53zm225.29 -128.42c16.06,-18.95 34.48,-35.73 52.23,-53.1 1.97,14.88 4.25,29.72 6.41,44.57l0.17 1.08c-17.93,9.61 -39.06,13.04 -58.81,7.45zm112.74 -285.2c4.33,-5.95 8.58,-11.94 12.7,-18.04 3.23,7.53 6.23,15.14 8.97,22.88 -7.25,-1.51 -14.48,-3.18 -21.67,-4.84zm-406.43 -560.33c29.16,-2.48 59.89,-1.89 86.82,10.84 28.2,13.88 53.59,37.09 63.24,67.7 7.02,19.91 3.87,41.22 4.56,61.84 10.4,7.35 17.58,17.95 24.18,28.64 0.44,-12.58 -0.36,-25.16 0.29,-37.71 0.38,-6.43 5.68,-10.96 9.55,-15.57 27.33,-28.85 66.96,-41.99 105.44,-47.19 2.38,85.1 12.03,170.6 37.27,252.16 -37.86,11.04 -72.47,31 -105.23,52.57 -67.6,45.54 -127.55,102.54 -176.14,168.01 -40.88,7.84 -79,25.62 -116.45,43.22 -0.54,-0.49 -1.61,-1.46 -2.15,-1.98 12.81,-24.92 34.12,-43.75 53.72,-63.22 11.96,-11.88 25.51,-22.13 37.37,-34.09 -2.43,-4.02 -4.66,-9.89 -9.66,-10.89 -9.14,3.15 -17.03,8.99 -24.59,14.91 -28.89,23.36 -51.38,53.31 -73.8,82.64l-0.74 -0.16c0.18,-21.74 -5.82,-42.88 -6.28,-64.52 48.24,-11.81 97.42,-30.1 132.59,-66.58 23.44,-23.74 39.4,-55.56 42.14,-88.96 1.54,-18.93 -12.09,-38.12 -31.25,-40.89 -13.66,-2.84 -26.8,3.54 -37.84,10.94 -30.79,18.6 -66.75,27.1 -102.36,29.69 -39.86,-43.08 -70.24,-93.7 -99.08,-144.52 -22.36,-40.65 -44.67,-81.41 -64.68,-123.27 29.87,20.01 58.86,41.35 89.32,60.53 4.05,-6.04 7.99,-12.16 11.89,-18.31 -46.78,-23.13 -91.99,-54.44 -119.99,-99.44 23.67,4.53 47.42,8.99 71.55,10.01 39.24,2.36 78.66,-3.99 115.83,-16.57 27.39,-9.43 55.54,-17.21 84.48,-19.83zm16.04 137.84l0 0c13.53,48.75 22.21,98.7 30.56,148.55 23.64,4.02 47.13,18.96 55.02,42.5 7.41,21.26 -0.02,44 -9.6,63.27 23.61,1.71 49.64,-8.23 71.29,5.15 18.77,-25 47.21,-40.02 76.25,-49.85 -6.32,-48.31 -18.75,-96.04 -19.77,-144.91 -10.55,4.94 -20.9,10.32 -31.3,15.5 -5,-17.17 -10.35,-34.71 -21.5,-49.03 -14.29,-19.45 -37.93,-29.74 -61.32,-32.82 -29.74,-3.89 -59.97,-1.89 -89.63,1.64zm210.77 847.74l0 0c4.89,15.8 9.99,31.58 13.57,47.77 9.41,42.68 16.42,87.4 7.28,130.77 22.18,8.2 45.77,12.35 69.39,13.17 16.42,0.1 33.46,0.97 49.13,-4.82 14.66,-5.53 30.46,-6.58 45.96,-7.05 -1.23,-16.36 -11.86,-29.33 -21.29,-41.9 -7.45,-11.02 -13.37,-27.23 -4.63,-39.17 7.37,-10.5 20.9,-12.14 32.55,-14.27 -8.99,-22.23 -18.36,-44.31 -26.41,-66.91 -25.28,6.15 -51.61,6.28 -77.46,4.59 -30.33,-2.08 -61.07,-7.58 -88.09,-22.18z"/>
   <path class="fil2" d="M243.8 497.83c44.14,-24.13 94.34,-34.86 144.06,-39.29 66.35,-2 132.08,9.73 197.14,21.39 17.4,3.2 34.82,6.33 52.26,9.3 27,4.56 54.1,8.48 81.38,10.96 40.35,4.69 80.85,9.2 121.52,9.27 10.94,0.11 21.88,-0.2 32.79,-1.1 35.61,-2.59 71.57,-11.09 102.36,-29.69 11.04,-7.4 24.18,-13.78 37.84,-10.94 19.16,2.77 32.79,21.96 31.25,40.89 -2.74,33.4 -18.7,65.22 -42.14,88.96 -35.17,36.48 -84.35,54.77 -132.59,66.58 -4.84,1.07 -9.68,2.1 -14.55,3.02 -60.37,11.68 -122.6,10.96 -183.25,2.05 -6.51,-1.69 -13.35,-0.9 -19.96,-1.64 -11.09,-0.64 -21.98,-3.74 -33.12,-3.36 -2.82,2.23 -5.15,5 -7.38,7.79 -29.84,39.73 -56.04,82 -82.25,124.14 -12.01,19.77 -24.44,39.32 -35.81,59.45 28.56,-21.16 50.39,-50.21 69.52,-79.82 14.35,-19.11 34.56,-33.86 57.38,-41.11 21.47,-2.84 42.86,5.45 60.87,16.55 8.83,9.53 17.52,19.95 20.2,33.02 4.64,17.21 0.16,35.06 -6.09,51.25 -12.53,26.72 -36.02,45.55 -51.36,70.34 -18.44,28.75 -35.63,58.38 -50.44,89.17 21.9,-22.39 32.48,-52.64 51.92,-76.87 16.76,-23.18 34.43,-45.67 52.62,-67.73 24.33,-28.82 48.72,-57.74 75.21,-84.63 22.28,-19.06 48.62,-35.51 78.2,-39.4 8.23,-0.18 16.47,0.74 24.57,2.3l0.74 0.16c5.92,3.07 11.61,6.61 16.96,10.65 0.54,0.52 1.61,1.49 2.15,1.98 4.59,5.61 8.63,11.65 12.17,18.01 9.32,17.34 13.4,38.68 6.04,57.5 -6.35,16.83 -20.51,28.87 -34.22,39.76 -12.11,9.35 -21.03,21.93 -30.43,33.81 -23.75,31.05 -46.44,62.89 -68.65,95.04 55.66,-28.39 101.13,-73.9 135.4,-125.67 29.72,-43.63 52.16,-91.61 79.59,-136.61 5.51,-8.36 10.89,-16.81 16.55,-25.06 48.59,-65.47 108.54,-122.47 176.14,-168.01 32.76,-21.57 67.37,-41.53 105.23,-52.57 5.66,-1.51 11.37,-2.81 17.13,-3.92 26.54,-4.68 55.54,-2.61 78.93,11.81 20.46,12.22 34.6,33.43 40.34,56.33 6.43,25.21 4.15,51.95 -2.54,76.85 -9.83,22.31 -22.49,43.27 -35.17,64.04 -3.58,5.53 -7.22,11.02 -10.91,16.47 -4.12,6.1 -8.37,12.09 -12.7,18.04 -4.72,6.35 -9.4,12.7 -14.27,18.9 -4.46,5.53 -9.07,10.96 -13.42,16.55 8.68,-4.38 17.03,-9.35 25.59,-14.04 14.06,-7.68 28.51,-14.7 43.16,-21.21 23.8,-9.73 48.67,-20.83 75.03,-18.29 21.52,1.49 41.52,16.57 47.98,37.32 6.81,21.29 -0.05,45.06 -14.25,61.79 -8.42,10.78 -20.39,17.8 -31.22,25.84 11.4,49.44 15.52,101.47 2.89,151.11 38.04,-25.18 68.47,-60.09 94.78,-96.98 14.12,-19.39 26.18,-40.19 41.06,-59.02 26,-31.92 57.15,-59.89 92.58,-81.02 32.02,-19.01 68.88,-31.41 106.43,-30.12 20.32,0.79 40.35,5.68 58.9,14.03 11.16,-8.4 24.07,-15.44 38.37,-16.08 20,-0.95 39.8,6.89 55.46,19.03 17,13.55 25.15,36.71 21.28,58.02 -3.23,22.59 -16.21,41.93 -27.1,61.45 -27,46.19 -50.23,94.45 -71.47,143.5 -3.97,9.63 -8.76,18.96 -11.73,29 14.6,0.51 29.77,4.61 40.01,15.65 16.55,16.16 17.19,42.16 10.2,62.94 -9.58,27.92 -35.22,47.49 -62.68,56.07 -37.84,12.48 -79.36,5.59 -115.1,-10.35 -42.65,18.78 -90.75,32.97 -137.37,21.72 -34.61,-7.78 -63.43,-31.48 -83.69,-59.86 -30.13,12.35 -60.71,23.62 -91.86,33.1 -6.69,1.99 -13.37,3.91 -20.08,5.73 -57.31,15.43 -118.19,24.03 -176.93,11.58 -45.42,-9.37 -86.74,-33.45 -120.5,-64.83 -32.33,16.29 -65.6,30.94 -100.08,42.09 -8.4,2.66 -16.88,5.04 -25.41,7.27 -36.45,9.3 -75.52,13.96 -112.28,3.79 -19.93,-5.48 -38.45,-16.06 -52.84,-30.92 -28.44,17.76 -59.12,32.33 -91.86,40.07 -5.92,1.43 -11.91,2.56 -17.91,3.53 -5.79,0.87 -11.63,1.51 -17.47,1.97 -11.4,1 -22.85,1 -34.25,-0.02 -22.56,-1.82 -44.75,-7.56 -65.62,-16.27 -31.77,21.6 -72.01,31.23 -109.92,23.85 -25.36,-4.74 -49.26,-18.6 -64.71,-39.45 -14.55,-19.31 -21.51,-43.65 -21.57,-67.67 -0.43,-29.54 8,-58.33 18.81,-85.54 -3.15,-0.66 -6.28,-1.3 -9.38,-1.94 -26.02,43.21 -49.23,88.14 -77.9,129.72 -27.3,40.67 -59.45,81.43 -105.2,102.1 -38.71,17.98 -83.48,16.06 -123.75,4.66 -31.64,-8.4 -62.2,-21.26 -89.86,-38.83 -13.94,-8.66 -25.85,-22.21 -28.79,-38.76 -3.39,-16.39 4.84,-34.45 19.54,-42.49 11.66,-6.59 25.77,-6.36 38.53,-3.87 10.73,2.07 20.82,7.73 31.99,6.99 22.36,-0.43 41.7,-13.88 57.28,-28.77 22.16,-20.59 36.71,-47.46 52.38,-72.9 71.62,-119.68 137.1,-242.97 210.26,-361.72 -61.84,-7.46 -124.6,-7.35 -186.46,-0.31 -16.09,0.46 -32.2,-8.43 -39.68,-22.8 -8.99,-16.6 -5.99,-37.29 3,-53.25 12.76,-22.57 33.86,-39.12 56.2,-51.52zm1117.54 402.74c-14.95,13.19 -29.71,26.61 -44.13,40.42 -3,2.82 -6.02,5.61 -9.02,8.4 -17.75,17.37 -36.17,34.15 -52.23,53.1 19.75,5.59 40.88,2.16 58.81,-7.45l-0.17 -1.08c3.35,-1.76 6.71,-3.61 9.99,-5.53 26.1,-20.77 39.14,-54.95 36.75,-87.86zm412.04 -38.84c-34.33,30.97 -63.63,67.6 -87.38,107.26 -9.09,16.21 -17.98,33.4 -18.67,52.41 33.58,-0.82 62.96,-24.44 80.51,-51.72 22.85,-42.6 45.36,-85.4 67.75,-128.26 -15.6,2.84 -30.74,9.09 -42.21,20.31zm-752.96 131.46c24.26,-9.58 47.06,-22.49 69.17,-36.24 20.39,-12.4 38.21,-28.38 56.58,-43.5 -31.15,16.47 -61.45,34.61 -92.86,50.62 -13.6,6.25 -23.59,17.8 -32.89,29.12z"/>
   <path class="fil3" d="M1294.9 913.35c28.3,-25.9 56.04,-52.62 86.55,-75.9 12.25,30.43 19.14,64.04 13.12,96.72 -6.53,39.92 -32.15,76.83 -68.83,94.58 -27.62,13.93 -61.4,15.83 -89.89,3.33 -12.57,-5.2 -23.59,-13.27 -33.94,-21.93 28.1,-34.91 60.64,-65.91 92.99,-96.8zm-779.11 -850.4c-2,-20.85 18.29,-40.04 39.17,-35.48 -1.23,2.92 -1.85,6.59 -5.1,7.97 -20.03,9.04 -21.21,35.56 -15.12,53.85 -10.01,-5.13 -18.57,-14.55 -18.95,-26.34zm-180.39 415.65c19.96,-3.72 40.07,-7.82 60.46,-7.61 101.54,-1.77 199.85,27.77 300.06,39.24 49.23,5.1 98.49,12.14 148.11,11.38 42.32,0.66 85.38,-6.13 123.78,-24.57 12.14,-4.99 21.82,-15.45 35.22,-17.37 13.32,-2.38 26.95,8.28 28.59,21.55 1.69,12.14 -2.21,24.23 -5.77,35.7 -12.16,36.86 -41.11,66.07 -74.82,84.15 -59.28,31.84 -127.59,42.42 -194.19,42.7 -47.98,-1.23 -95.68,-7.42 -143.27,-13.39 -13.5,15.57 -25.44,32.43 -37.1,49.41 -33.99,50.26 -65.55,102.1 -96.75,154.16 -5.99,10.29 -12.7,20.21 -17.85,31.02 12.5,-6.3 24.97,-12.66 37.68,-18.5 26.02,-18.19 45.85,-43.77 64.14,-69.37 13.48,-23.87 35.53,-44.46 62.76,-50.77 17.01,0.54 34.76,5.41 47.98,16.58 13.78,11.65 19.31,31.25 15.27,48.62 -5.13,26.18 -23.37,46.8 -40.71,65.96 -24.87,32.68 -44.34,69.08 -63.63,105.23 -6.56,13.52 -14.47,26.54 -18.52,41.14 26.72,-6.51 45.65,-28.9 59.05,-51.62 17.57,-33.25 40.83,-62.99 64.04,-92.42 26.2,-32.51 53.28,-64.35 81.76,-94.88 14.65,-16.68 33.74,-29 53.69,-38.43 15.76,-7.19 34.84,-11.55 51.16,-3.58 12.22,5.53 18.52,18.24 23.77,29.81 6.38,14.22 7.45,31.49 -0.51,45.29 -9.92,18.75 -30.13,28.03 -43.29,43.99 -18.91,22.18 -35.74,46.03 -52.95,69.54 -19.09,27.51 -39.19,54.41 -56.54,83.08 61.64,-23.29 116.15,-64.17 156.49,-116.2 39.27,-49.21 66.19,-106.48 97.85,-160.56 30.74,-51.15 71.14,-95.93 115.17,-135.94 42.68,-38.12 89.3,-72.44 141.07,-97.19 26.77,-12.86 56.23,-22.64 86.27,-20.62 24.9,1.51 49.98,13.78 63.25,35.48 14.27,21.69 15.86,48.92 12.86,74.03 -1.26,8.25 -2.23,16.7 -5.59,24.43 -38.8,79.16 -95.21,149.27 -162.91,205.6 -60.43,50.77 -129.31,90.04 -198.86,126.77 -29.2,13.14 -48,40.91 -64.63,67.09 43.7,-11.63 83.77,-34.02 121.32,-58.74 36.48,-27.23 70.24,-57.89 104.41,-87.91 31.61,-27.44 60.4,-58.3 95.11,-82 38.84,-27.15 80.44,-50.64 124.68,-67.78 18.26,-6.55 37.98,-13.16 57.5,-8.42 15.14,3.53 27.8,16 30.95,31.3 4.17,18.75 -4.1,38.22 -17.45,51.31 -8.5,8.91 -19.7,14.42 -29.15,22.15 -1.41,9.84 2.28,19.81 3.79,29.56 10.86,51.21 8.66,105.7 -10.58,154.67 63.4,-30.3 108.26,-87.45 146.12,-144.8 24.46,-39.35 57.73,-72.93 95.93,-99.01 32.94,-22.13 71.64,-38.6 111.99,-37.14 22.11,-0.18 43.73,6.38 63.4,16.16 11.71,-11.09 27.05,-20.21 43.83,-18.49 18.75,2.1 37.88,10.63 49.26,26.18 11.24,15.75 9.81,37.16 2.92,54.38 -6.51,15.8 -15.7,30.28 -24.05,45.13 -34.84,60.56 -63.79,124.37 -89.58,189.2 14.93,-4.38 32.68,-5.86 46.08,3.56 9.5,6.1 15.19,16.99 16.19,28.11 1.56,18.54 -5.3,37.47 -18.24,50.84 -18.01,18.57 -43.8,28.13 -69.32,29.72 -28.28,1.99 -56.27,-5.84 -81.74,-17.65 -40.7,18.21 -86.04,33.22 -131,24.08 -36.4,-7.15 -66.19,-33.15 -85.5,-63.91 -52.59,21.51 -106.31,41.31 -162.31,51.92 -44.8,8.55 -91.62,11.01 -136.17,-0.28 -43.08,-10.43 -81.97,-34.74 -113.12,-65.91 -49.95,25.28 -101.95,48.31 -157.38,58.14 -30.77,5 -63.56,5.69 -92.84,-6.4 -16.11,-6.48 -29.91,-17.52 -41.21,-30.56 -41.04,27.67 -88.61,48.08 -138.63,49.75 -31.49,1.3 -63.05,-5.46 -91.63,-18.57 -27.74,21.03 -63.56,31.79 -98.26,27.3 -24.06,-2.89 -47.6,-14.24 -62.84,-33.4 -14.5,-17.57 -20.85,-40.58 -21.31,-63.07 -0.18,-32.99 10.52,-64.88 24.1,-94.6 -7.68,-1.56 -15.34,-3.1 -23.03,-4.45 0.9,-8.25 2.15,-16.45 3.31,-24.67 -43.01,68.7 -77.65,143.24 -130.11,205.64 -23.72,27.95 -54.43,51.77 -90.78,59.92 -25.87,5.97 -52.97,4.25 -78.61,-1.9 -34.84,-7.81 -68.42,-21.44 -98.6,-40.55 -11.81,-7.99 -23.18,-20.21 -22.75,-35.42 -0.79,-12.84 9.12,-24.9 21.62,-27.23 15.09,-3.49 29.69,2.99 43.96,6.81 22.64,4.3 45.6,-4.87 63.4,-18.52 18.24,-14.09 34.04,-31.41 46.26,-50.95 22.03,-33.94 42.14,-69.09 62.4,-104.05 50.98,-88.22 100.13,-177.5 152.62,-264.82 9.27,-15.39 18.83,-30.66 28.74,-45.65 -49.82,-8.73 -100.67,-9.6 -151.11,-8.12 -18.85,0.59 -37.6,2.49 -56.33,4.69 -17.72,1.08 -33.48,-14.93 -32.81,-32.53 0.44,-23.01 16.65,-41.94 33.71,-55.64 31.82,-24.95 71.16,-37.96 110.25,-46.31zm-36.37 33.5l0 0c-27,9.38 -54.23,22.21 -73.37,44.09 -5.99,7.58 -12.32,16.57 -11.04,26.77 0.72,5.68 7.1,8.35 12.2,6.86 21.21,-2.92 42.65,-3.94 64.04,-4.71 60.58,-0.82 122.18,0.59 180.84,17.39 -16.11,16.98 -27.74,37.5 -40.34,57.1 -55.84,91.78 -107.46,186.05 -161.28,279.03 -20.9,36.07 -41.57,72.32 -64.5,107.15 -13.99,22.06 -32.2,41.43 -53.26,56.87 -19.87,14.42 -44.31,23.21 -69.08,21.57 -13.4,0.23 -25.13,-7.89 -38.4,-8.4 -3.82,0 -9.81,-0.28 -9.63,5.2 1.92,9.42 10.55,15.03 18.24,19.62 31.22,18.37 65.75,31.07 101.49,37.04 29.61,4.69 61.32,0.64 87.04,-15.42 29.43,-17.83 51.08,-45.42 70.57,-73.18 34.74,-49.49 62.53,-103.31 93.37,-155.19 51.16,-87.24 101.93,-174.9 159.44,-258.18 12.34,-17.34 24.74,-34.86 40.14,-49.67 20.41,2.95 40.88,5.43 61.37,7.71 38.4,4.08 77.03,8.71 115.71,6.41 45.01,-2.08 90.09,-10.1 131.97,-27.13 23.62,-9.63 46.39,-22.67 64.04,-41.37 17.37,-18.85 30.25,-43.45 30.51,-69.5 -9.4,0.75 -16.04,8.07 -24.13,12.02 -24.62,12.5 -51.13,21.28 -78.36,25.72 -65.75,10.57 -132.51,1.99 -198.14,-5.23 -95.44,-9.12 -188.45,-36.55 -284.49,-40.55 -42.32,-2.97 -84.76,5.12 -124.95,17.98zm990.31 4.05l0 0c-38.71,14.86 -73.98,37.32 -107.23,61.84 -48.9,36.7 -93.65,79.23 -131.08,127.67 -35.5,45.26 -58.3,98.59 -88.5,147.26 -28.48,47.37 -63.22,91.63 -106.79,126.08 -35.1,27.95 -75.47,48.88 -117.76,63.61 -8.4,2.64 -17.34,8.63 -26.31,5.43 -5.96,-5.28 -1,-13.99 1.03,-20.06 10.3,-21.93 25.15,-41.32 38.45,-61.5 21.87,-31.79 44.16,-63.33 67.65,-93.96 12.65,-16.04 24.67,-33.07 41.34,-45.27 9.74,-8.32 22.57,-17.26 22.44,-31.55 -0.74,-11.2 -5.97,-22.24 -13.55,-30.41 -9.99,-7.17 -23.23,-2.56 -33.43,1.77 -17.67,8.35 -34.53,19.26 -47.56,33.96 -28.82,31.18 -56.39,63.48 -82.92,96.6 -18.91,24.16 -37.99,48.39 -53.21,75.08 -12.01,22.59 -27.15,44.37 -48.44,59.15 -13.39,9.55 -29.58,15.98 -46.23,15.55 -7.48,0.15 -14.63,-5.72 -14.84,-13.37 -0.48,-13.5 5.23,-26.21 10.76,-38.2 20.5,-41.37 42.45,-82.2 68.68,-120.26 11.89,-18.14 29.64,-31.95 39.17,-51.72 5.91,-11.35 10.4,-25.98 3.27,-37.81 -7.6,-11.5 -22.31,-15.68 -35.37,-16.55 -19.34,5.53 -34.79,20.83 -44.62,37.96 -16.78,24.49 -35.66,47.78 -58.02,67.42 -19.29,17.53 -45.7,23.44 -66.78,38.22 -1.23,8.84 -2.46,17.65 -3.44,26.52 10.58,1.92 21.11,3.94 31.66,6.07 -15.54,28.3 -29.4,58.27 -34.12,90.5 -3.1,20.8 -1.69,43.31 9.25,61.76 10.15,17.42 28.92,28.61 48.52,31.92 34.84,6.02 71.65,-6.69 96.85,-31.13 25.9,14.07 55,23.16 84.64,23.01 54.63,1.45 106.38,-23.26 149.36,-55.18 0.34,-1.2 0.95,-3.59 1.26,-4.79 8.27,6.63 13.52,16.06 20.9,23.59 10.91,11.66 25.46,19.62 40.91,23.39 29.23,6.68 59.84,3.02 88.6,-4.18 50.19,-12.91 97.86,-34.32 143.22,-59.07 26.82,28.23 58.41,53.13 95.55,66.07 48.72,17.52 102.08,14.8 152.08,4.61 58.48,-12.15 114.58,-33.51 169.25,-57.2 7.4,12.8 15.21,25.54 25.18,36.55 17.93,20.98 44.08,35.04 71.93,36.09 38.8,1.57 76.2,-12.78 110.61,-29.43 29.3,15.88 63.91,26.03 97.13,17.83 19.44,-4.79 39.71,-16.24 46.75,-36.04 2.84,-9.25 4.74,-22.37 -4.53,-28.62 -10.15,-5.73 -21.73,-1.15 -31.95,1.82 -10.78,3.46 -22.87,1.23 -32.09,-5.22 -1.11,-3.72 1.97,-7.1 2.89,-10.58 29.02,-71.37 59.66,-142.32 98.37,-209.05 8.32,-14.86 17.65,-29.31 23.69,-45.29 4.33,-11.48 3.92,-26.49 -6.43,-34.61 -9.4,-6.89 -21.11,-12.27 -32.99,-10.99 -13.96,2.82 -23.49,14.63 -31.66,25.36 -22.01,-15.39 -48.72,-24.51 -75.75,-23.34 -37.3,1.44 -71.93,18.73 -101.49,40.43 -29.66,22.13 -56.28,48.85 -76.23,80.12 -27.85,42.73 -58.48,84.41 -97.42,117.73 -29.51,25.54 -64.14,45.6 -101.95,55.8 -3.08,-2.69 -6.12,-5.38 -9.15,-8.07 27,-43.5 38.27,-96.04 32.43,-146.83 -1.41,-21.55 -8.55,-42.27 -9.58,-63.84 -0.89,-10.3 6.48,-18.49 14.76,-23.44 13.96,-9.32 30.81,-19.52 33.25,-37.78 2.56,-11.14 -6.1,-22.72 -17.5,-23.23 -20.8,-1.49 -40.14,8.22 -58.94,15.75 -56.84,25.72 -110.84,59.15 -155.72,102.77 -23.98,22.21 -48.36,43.98 -72.98,65.45 -31.99,27.15 -63.01,56.07 -99.8,76.79 -36.63,21.09 -75.18,40.94 -117.27,48.01 -7.99,2.31 -19.42,-1.64 -18.26,-11.58 2.2,-17.55 12.96,-32.43 22.72,-46.65 15.37,-20.18 31.97,-41.03 55.3,-52.3 59.33,-31.31 118.38,-63.91 171.91,-104.62 77.11,-57.56 141.66,-132.48 184.05,-219.04 4.66,-13.99 5.48,-29.13 4.77,-43.78 -1.18,-19.98 -10.38,-40.96 -28.79,-50.61 -24.85,-13.22 -54.67,-7.46 -79.9,1.61zm-65.42 111.12c29.12,-25.1 61.19,-48.64 98.75,-58.97 3.99,-0.46 10.4,-2.35 12.34,2.57 1.03,5.2 -1.07,10.29 -3.05,14.98 -20.28,43.11 -50.1,80.97 -83.02,115.12 -49.18,50.28 -104.43,96.13 -168.55,126.05 -8.97,3.49 -18.55,10.35 -28.43,6.97 3.15,-8.07 8.27,-15.06 13.27,-22.05 43.8,-68.63 97.36,-131.11 158.69,-184.67zm-22.39 52.03l0 0c-31.95,32.5 -62.58,66.6 -88.71,104 19.72,-11.53 37.89,-25.52 55.74,-39.71 36.91,-30.3 71.42,-63.81 101.13,-101.26 9.33,-12.27 19.21,-24.41 25.72,-38.5 -35.27,19.7 -64.99,47.6 -93.88,75.47zm602.1 128.56c11.94,-2.53 25.08,-4.63 36.63,0.46 9.2,3.59 13.55,14.07 13.14,23.42 -0.41,9.06 -2.3,18.29 -6.51,26.41 -20.72,39.14 -41.36,78.33 -62.01,117.5 -16.09,32.61 -44.24,59.2 -77.8,73.21 -17.57,6.91 -38.32,11.45 -56.22,3.23 -13.48,-6.18 -19.47,-21.96 -18.45,-36 1.77,-24.43 12.99,-46.85 24.85,-67.83 21.67,-36.81 48.82,-70.29 79.28,-100.15 9.22,-8.92 18.85,-17.4 29.31,-24.83 11.14,-8.14 24.61,-12.01 37.78,-15.42zm-36.25 42.81l0 0c-20.72,17.65 -38.88,38.11 -55.76,59.4 -21.42,27.74 -42.35,57.02 -53.28,90.68 -2.26,9.5 -6.25,21.72 1.07,29.89 9.58,5.21 21.24,2.67 31.2,-0.17 30.23,-9.81 55.84,-32.2 71.01,-59.97 21.26,-40.27 42.47,-80.59 63.78,-120.83 3.77,-6.4 4.69,-13.86 5.25,-21.13 -22.79,-1.05 -46.26,6.76 -63.27,22.13zm-404.04 31.4l0 0c-40.06,35.86 -79.74,72.21 -116.55,111.43 -4.07,4.18 -8.15,8.4 -11.04,13.5 12.86,6.18 26.8,10.91 41.27,10.38 32.58,-0.08 63.17,-19.63 79.84,-47.11 17.24,-27.15 20.47,-61.25 13.58,-92.19 -3.1,-0.46 -4.95,2.33 -7.1,3.99z"/>
  </g>
 </g>
</svg>
