<?xml version="1.0" encoding="UTF-8"?>
<!DOCTYPE svg PUBLIC "-//W3C//DTD SVG 1.1//EN" "http://www.w3.org/Graphics/SVG/1.1/DTD/svg11.dtd">
<!-- Creator: CorelDRAW -->
<svg xmlns="http://www.w3.org/2000/svg" xml:space="preserve" width="2000px" height="1600px" version="1.1" style="shape-rendering:geometricPrecision; text-rendering:geometricPrecision; image-rendering:optimizeQuality; fill-rule:evenodd; clip-rule:evenodd"
viewBox="0 0 2000 1600"
 xmlns:xlink="http://www.w3.org/1999/xlink">
 <defs>
  <style type="text/css">
   <![CDATA[
    .fil0 {fill:black;fill-rule:nonzero}
    .fil1 {fill:#006141;fill-rule:nonzero}
    .fil3 {fill:#C2B55E;fill-rule:nonzero}
    .fil2 {fill:#D63646;fill-rule:nonzero}
    .fil4 {fill:#FEFEFE;fill-rule:nonzero}
   ]]>
  </style>
 </defs>
 <g id="Capa_x0020_1">
  <metadata id="CorelCorpID_0Corel-Layer"/>
  <g id="UAB_x0020_Blazers.cdr">
   <path class="fil0" d="M409.18 5.62c3.07,-4.21 8.48,-5.98 13.53,-5.56 22.92,0.89 44.83,9.2 65.02,19.6 22.66,10.59 43.68,24.38 64.06,38.82 19.32,14.42 38.8,29.11 54.55,47.51 15.05,18.64 16.97,44.35 13.66,67.23 6.87,-6.98 12.15,-15.33 19.28,-22.1 2.53,-3.04 6.19,-5.64 7.46,-9.49 -11.35,-25.01 -20.06,-52.5 -16.68,-80.28 0.95,-6.11 2.68,-12.07 5.54,-17.57 14.8,1.36 29.51,4.53 42.94,11.15 18.43,8.01 33.55,21.84 51.14,31.29 16.07,-0.21 32.12,-1.31 48.21,0.23 1.96,-5.39 6.09,-11.8 12.68,-11.1 7.4,0.95 14.32,4.04 21.25,6.66 21.27,9.18 43.11,19.05 59.45,36.01 22.75,23.29 43.64,48.62 60.54,76.53 11.2,-7.19 22.89,-13.59 33.61,-21.52 12.94,-5.9 28.12,-0.7 40.43,4.5 14.78,19.9 23.27,44.21 40.7,62.22 26.15,-21.73 54.84,-42.05 88.31,-50.46 13.42,-3.55 27.27,-5.75 41.2,-5.75 22.27,11.5 43.01,27.02 57.03,48.07 7.65,10.58 12.43,22.84 19.53,33.73 24.53,-11.04 51.29,-15.82 77.34,-21.97 10.07,-2.9 21.8,-1.4 30.24,5.03 5.22,3.68 6.28,10.21 7.92,15.96 5.31,19.5 9.62,39.29 13.28,59.16 -2.45,23.91 -5.37,47.97 -4.8,72.1 3.07,15.3 11.1,29.41 21.86,40.65 -1.65,12.94 -2.2,26.16 -5.56,38.78 -5.64,6.13 -13.7,9.3 -20.97,13.07 -1.33,33.61 -6.2,66.97 -11.27,100.21 -34.12,-23.23 -68.14,-46.81 -104.23,-66.96 -27.25,-15.2 -55.76,-28.69 -86.09,-36.51 -4.36,5.12 -8.38,10.57 -11.55,16.51 -8.62,15.82 -16.72,32.31 -19.47,50.3 -34.93,-19.18 -52.58,-57.42 -62.98,-94.13 -13.43,10.98 -28.36,19.98 -43.58,28.25 -13.02,7.04 -26.62,13.62 -41.42,15.77 7.02,-16.95 9.14,-36.34 3.62,-54.04 -16.96,15.41 -31.72,33.79 -52.12,45.01 -8.96,5.23 -18.88,8.61 -29.09,10.36 4.23,-17.59 7.53,-36.81 0.63,-54.16 -0.55,-0.09 -1.65,-0.28 -2.2,-0.36 -16.87,22.24 -41.79,38.82 -69.53,43.47 0.93,-10.72 2.01,-23.13 -6.58,-31.29 -17.82,26.44 -44.97,49.74 -77.97,52.37 0.42,-11.08 1.6,-22.8 -3.05,-33.2 -2.81,-7.21 -7.9,-13.15 -13.34,-18.5 -7.88,12.1 -16.43,24.1 -28.07,32.88 -13.87,10.78 -31.44,15.37 -48.68,17 -3.57,-21.95 -12.43,-45.23 -31.33,-58.38 -11.18,12.98 -15.86,29.88 -20.91,45.9 -4.48,16.94 -10.59,34.34 -7.53,52.12 1.8,10.93 7,22.98 17.96,27.42 10.99,4.29 22.98,-0.65 31.9,-7.27 11.8,-9.18 21.4,-21.06 28.31,-34.27 5.05,2.28 10,5.03 13.83,9.15 13.7,13.91 21.82,32.24 27.54,50.64 16.47,-12.82 32.08,-28.42 38.87,-48.67 23,16.28 35.43,44.71 35.37,72.52 17.08,-13.53 30.15,-32.03 38.24,-52.2 17.74,13.32 28,34.29 33.66,55.28 2.75,10.32 3.58,21.04 2.79,31.68 15.44,-5.21 29.16,-14.95 39.62,-27.39 19.88,19.16 29.46,48.3 25.46,75.53 19.03,-6.6 35.5,-19.88 47.99,-35.52 11.55,26.85 14.4,56.83 13.41,85.81 25.96,-18.94 47.17,-43.78 64.38,-70.78 7.71,16 12.22,33.4 14.06,51.06 74.78,21.27 145.8,54.88 210.89,97.23 0.55,0.66 1.63,1.99 2.18,2.67 -7.23,14.06 -11.73,30.23 -23.66,41.25 -7.33,8.41 -15.26,16.28 -24.04,23.23 3.68,12.45 6.9,25.54 5.12,38.63 -31.42,5.79 -53.22,31.31 -78.9,48.01 -16.41,6.33 -34.72,2.73 -51.76,2.44 -16.58,17.44 -38.14,29.43 -61.27,35.79 7.31,-18.14 10.65,-38.97 5.14,-57.99 -22.2,13.02 -47.7,21.71 -73.58,21.94 6.91,-14.21 8.16,-30.89 5.22,-46.24 -21.03,5.86 -44.65,11.93 -65.81,3.72 12.02,-6.93 16.89,-20.78 17.31,-33.97 -15.39,2.05 -31.44,0.86 -46.09,-4.44 -9.45,-15.73 -18.27,-32.01 -29.96,-46.3 -30.49,-38.89 -69.71,-70.75 -113.49,-93.54 -19.54,-9.3 -39.86,-16.93 -60.58,-23.15 -32.98,-10.51 -66.93,-18.12 -101.37,-21.63 -7.23,-0.44 -14.49,-0.36 -21.72,0 8.73,23.72 24.23,44.13 40.66,63.05 28.1,31.8 60.38,59.56 93.39,86.11 63.83,50.89 131.99,95.97 200.85,139.67 71.46,47.3 136.16,105.29 188.21,173.54 79.82,103.7 129.22,231.04 137.51,361.81 0.85,18.12 2.79,36.36 1.1,54.44 -37.23,-73.7 -100.97,-130.38 -170.32,-173.33 -75.67,-46.61 -157.9,-81.06 -239.48,-115.75 -82.08,-34.48 -164.26,-68.97 -243.82,-109.01 -107.53,-54.44 -212.97,-116.77 -299.65,-201.49 -39.79,-38.94 -75.02,-82.33 -106.52,-128.17 -15.9,-23.17 -31.86,-46.45 -44.21,-71.77 -29.15,-60.26 -45.6,-126.67 -48.1,-193.56 -0.5,-14.34 0.45,-28.65 1.25,-42.95 -8.54,-3.42 -17.7,-5.05 -26.89,-4.25 7.27,-18.62 16.7,-36.38 27.57,-53.13 3.27,-5.26 7.71,-9.93 9.62,-15.92 -12.75,-4.2 -26.26,-4.9 -39.56,-3.65 12.96,-28.95 34.65,-54.09 61.38,-71.13l0.55 -1.41c-12.48,-8.42 -27.26,-12.6 -42.04,-14.61 19.65,-19.98 38.86,-41.21 63.77,-54.76 6.55,-3.79 13.91,-5.88 20.44,-9.64 -12.17,-14.72 -29.53,-24.8 -48.24,-28.44 3.13,-5.52 9.09,-8.54 14.14,-12.05 21.46,-12.37 45.9,-19.18 70.51,-21.02 9.05,0 18.35,-1.1 27.13,1.63 -9.37,-16.45 -27.19,-25.01 -39.81,-38.46 26.57,-11.65 55.92,-15.01 84.63,-16.09 10.55,0.47 21,-2.07 31.46,-0.17 21.16,-0.17 42.39,1.76 63.05,6.49 -3.81,-15.45 -15.25,-27.44 -27.06,-37.4 33.59,-5.73 67.8,1.51 99.47,12.84 -16.53,-38.08 -36.62,-76.14 -40.15,-118.21 -1.27,-14 0.45,-28.02 2.56,-41.84 2.47,-12.94 5.52,-26.37 13.57,-37.13z"/>
   <path class="fil1" d="M1141.43 225.4c11.27,-1.55 22.99,-3.19 34.11,0.15 2.68,0.61 4.46,2.91 6.34,4.75 17.78,19.6 34.91,39.81 51.23,60.64 10.7,13.87 5.47,33.47 14.12,48.12 3.95,-0.17 3.34,-4.38 4.29,-7.1 0.98,-6.22 5.33,-11.12 9.52,-15.52 13.36,-13.17 30.17,-22.2 47.36,-29.39 9.19,-3.62 19.66,-6.49 29.4,-3.36 3.81,0.99 3.13,5.41 3.58,8.41 -11.19,3.36 -25.27,-2.68 -34.25,6.77 -6.28,6.38 -14.02,11.27 -19.54,18.37l0.17 1.4c15.52,13.44 30.81,27.27 44.06,43 2.26,2.6 4.38,5.82 8.08,6.39 0.55,-10.11 -4.31,-19.14 -8.92,-27.74 -0.09,-4.53 6.02,-5.12 9.21,-6.75 7.64,19.71 6.66,41.51 3.34,62.01 -1.16,7.95 3.05,15.12 6.52,21.91 -41.13,-3.66 -81.13,-16.26 -118.4,-33.68 -12.18,-5.88 -24.25,-12.1 -35.1,-20.19 -29.03,-20.17 -64.46,-29.75 -99.5,-31.42 -38.45,0.84 -76.45,7.82 -114.36,13.91 -66.49,11.9 -132.66,25.58 -198.76,39.56 -52.77,11.14 -106.11,22.77 -160.34,21.71 -19.49,0.09 -39.28,-2.11 -57.78,-8.39 -1.23,2.26 -2.48,4.52 -2.96,7.06 -7.4,30.3 -15.71,60.38 -21.93,90.95 -3.08,15.31 -6.51,30.79 -5.9,46.5 0.07,7.35 3.64,13.97 6.77,20.4 10.42,20.53 23.7,39.39 36.68,58.33 1.9,2.26 3.47,5.82 6.94,5.84 33.46,4.33 67.38,9.13 98.82,22.03 49.93,20.25 97.82,46.17 140.53,79.15 10.74,8.91 22.22,17.15 31.4,27.77 -9.92,-4.61 -18.76,-11.17 -28.46,-16.16 -44.36,-23.8 -90.58,-44.52 -138.74,-59.41 -41.44,-10.63 -84.06,-16.66 -126.83,-18.31 -3.32,0.34 -6.03,-1.33 -7.74,-4.06 -36.05,-45.6 -72.22,-91.1 -107.87,-137 9.24,-3.85 19.13,-7.02 26.41,-14.23 -3.07,-18.84 -2.94,-38.69 3.21,-56.91 7,-1.91 14.91,0.21 21.82,-3.05 -5.29,-6.28 -12.16,-10.89 -17.82,-16.79 -20.81,-21.41 -37.83,-47.78 -43.01,-77.59 -1.96,-13.45 -2.36,-27.53 2.01,-40.57 7.91,-27.21 21.44,-55.46 47.19,-69.79 37.04,-5.82 74.72,3.72 108.89,17.82 15.11,6.57 29.93,14.31 42.77,24.78 2.77,1.82 3.4,5.05 2.68,8.14 -0.34,8.14 -3.44,15.71 -6.38,23.17 27.82,-12.98 56.72,-23.93 86.6,-31.12 45.81,-9.6 92.77,-14.63 139.6,-12.43 22.5,2.28 44.99,-1.55 67.51,-1.67 19.03,-0.68 38.06,-1.86 57.11,-1.48 36.81,-1.27 73.44,6.64 108.08,18.6 1.41,-1.8 2.6,-3.7 3.55,-5.75 -4.48,-8.9 -12.1,-15.94 -15.69,-25.37 11.8,-6.47 21.46,-15.94 32.43,-23.55 8.12,-5.94 18.31,-7.32 27.95,-8.86zm-125.27 1113.26c24.06,-2.52 48.23,-4.67 72.44,-4.38 5.75,0.42 12.51,-0.5 17.04,3.96 8.79,7.63 15.16,17.59 20.93,27.61 8.06,15.09 14.46,31.37 16.49,48.48 -37.34,-32.67 -81.86,-55.59 -126.9,-75.67zm-106.98 -161.61c25.75,-3.96 51.86,-5.61 77.91,-4.25 7.87,0.25 13.64,6.25 19.77,10.46 34.42,26.56 60.62,63.62 75.59,104.32 -40.36,-0.34 -80.6,4.14 -120.85,6.6 -6.54,-2.04 -12.1,-6.28 -18.15,-9.35 -50.57,-27.55 -103.45,-50.51 -156.13,-73.62 6.11,-4.73 13.74,-6.68 20.78,-9.58 32.73,-11.6 66.79,-19.28 101.08,-24.58zm-179.79 -115.38c39.91,-11.97 81.92,-20.32 123.7,-15.71 24.68,10.64 46.24,27.32 66.68,44.55 14.66,13.11 29.56,26.45 41.04,42.54 -76.36,-6.3 -155.44,6.74 -223.01,43.8 -36.22,-12.24 -69.83,-32.13 -97.97,-57.99 -4.55,-4 -8.86,-8.24 -12.56,-13.04 32.2,-18.55 66.72,-32.96 102.12,-44.15zm-51.57 -138.74c2.26,-0.61 4.23,0.81 6.13,1.82 37.17,22.24 74.13,44.97 108.97,70.77 6.38,5.39 13.7,9.76 19.13,16.19 -62.05,2.43 -124.63,14.4 -180.11,43.22 -12.43,5.94 -23.68,13.99 -35.84,20.42 -22.68,-22.2 -49.07,-41.27 -66.74,-68.06 -1.06,-2.34 -4.7,-5.69 -1.63,-7.95 23.02,-21.39 48.69,-40.21 76.98,-54.04 23.11,-10.95 47.82,-18.54 73.11,-22.37zm271.64 -68.71c22.92,16.77 49.22,30.36 77.8,33.32 6.09,0.93 12.94,-0.34 18.25,3.45 15.75,10.04 34.99,14.65 53.55,12.81 5.21,-0.3 11.19,-3.79 15.54,0.65 9.33,7.72 22.2,7.13 33.54,5.97 8.01,-0.91 15.15,-4.95 22.01,-8.97 15.6,8.88 33.61,13.07 51.54,12.73 -22.64,13.66 -49.33,22.01 -75.94,19.56 -21.34,-1.76 -42.58,-4.74 -63.52,-9.16 -28.33,-7.19 -55.07,-19.28 -83.13,-27.38 -21.56,-6.45 -40.74,-22.07 -49.64,-42.98zm-456.7 -16.72c29.87,-10.39 61.29,-15.59 92.75,-17.87 20.26,20.17 38.21,42.65 59.73,61.55 3.4,2.98 6.72,6.09 9.98,9.28 -49.22,21.61 -103.47,33.42 -147.58,65.48 -3.59,2.05 -6.55,6.53 -10.82,6.59 -19.75,-23.66 -39.94,-47.23 -55.78,-73.76 -3.67,-6.83 -8.07,-13.47 -9.74,-21.12 19.43,-12.04 39.66,-23.05 61.46,-30.15zm-57.28 -117.94c23.77,-4.35 48.72,-6.78 72.46,-1.41 8.5,10.1 14.61,22.05 22.33,32.77 8.83,13.97 19.3,26.78 29.15,40.02 -51.82,1.52 -101.82,17.99 -149.14,38.14 -15.3,-27.15 -29.09,-55.94 -34.31,-86.92 17.59,-12.36 38.67,-18.45 59.51,-22.6zm-58.54 -80.11c30.7,-6.95 63.07,-6.55 93.81,-0.1 6.55,0.82 9.77,7.12 13.17,11.99 7.68,11.2 12.58,23.95 17.28,36.61 -12.08,-1.94 -24.04,-5.11 -36.39,-4.58 -34.59,-0.6 -67.3,12.15 -98.95,24.59 -7.27,-18.67 -8.2,-39.01 -8.29,-58.8 3.81,-6.3 12.73,-7.49 19.37,-9.71zm-0.46 -105.18c5.92,4.93 9.23,12.11 14.52,17.65 15.52,19.33 35.46,34.32 52.94,51.68 -28.69,-3.51 -57.51,-0.05 -86.26,0.4 4.33,-23.64 8.18,-47.95 18.8,-69.73zm-199.4 -10.25c12.41,-2.1 25.2,-1.7 37.59,0.29 -4.8,7.49 -11.5,13.47 -16.66,20.68 -20.17,25.77 -35.84,54.76 -48.2,84.99 -3.41,7.06 -5.14,14.91 -9.43,21.55 -5.33,-16.03 -11.02,-33.11 -8.19,-50.15 9.45,-25.4 24.85,-47.91 38.42,-71.19 1.67,-2.43 3.05,-5.9 6.47,-6.17zm-42.75 -13.07c4.61,-11.31 8.54,-23.83 17.68,-32.37 0.25,7.91 2.05,16.43 -0.66,24 -10.61,15.62 -21.35,31.39 -28.54,48.98 2.13,-13.93 7.16,-27.25 11.52,-40.61zm145.27 -55.39c7.55,-0.91 15.22,-0.09 22.81,0.04 -3.19,3.06 -7.08,5.2 -10.78,7.59 -20.15,13.68 -37.89,30.47 -55.69,47 0.23,-7.87 -2.07,-18.18 5.52,-23.36 12.49,-10.66 24.06,-22.71 38.14,-31.27zm-178.06 8.22c7.76,-8.29 16.04,-16.32 25.22,-23.05 -4.27,10.05 -9.01,19.96 -14.27,29.56 -3.24,-2.39 -10.99,-1.54 -10.95,-6.51zm131.04 -65.94c8.71,-11.29 24.8,-9.18 37.42,-9.01 -1.67,15.46 -1.63,31.14 -3.99,46.51 -20.24,13.83 -39.03,29.82 -56.01,47.51 -3.57,3.43 -6.6,7.57 -10.78,10.3 -6.94,1.2 -14.02,1.33 -21,2.34 0.21,-10.84 0.4,-21.67 0.43,-32.49 -0.62,-7.08 5.43,-11.71 9.34,-16.75 14.04,-16.87 29.47,-32.51 44.59,-48.41zm-99.71 -19.69c8.88,-4.94 17.36,-12.15 27.83,-12.98 -5.14,8.01 -9.86,16.28 -15.16,24.15 -6.33,0.29 -12.56,-3.62 -18.76,-5.33 0.04,-3.26 4.04,-4.08 6.09,-5.84zm230.58 -31.39c4.21,-1.82 8.67,-5.37 13.47,-3.24 11.82,4.08 24.23,9.03 32.92,18.31 -1.42,10.91 -7.59,20.42 -11.02,30.74 -1.67,3.77 -2.28,8.67 -6.38,10.68 -17.28,10.97 -35.06,21.12 -52.27,32.2 -3.29,1.86 -6.42,4.42 -10.27,5.09 -9.45,-3.02 -17.82,-8.58 -26.83,-12.62 -0.47,-15.96 0.55,-31.92 2.43,-47.76 17.86,-13.42 38.1,-23.3 57.95,-33.4zm-177.74 44.52c15.56,-19.15 32.98,-36.87 51.16,-53.51 -1.71,7.7 -3.15,15.48 -5.39,23.05 -6.26,7.1 -14.17,12.53 -20.95,19.11 -6.6,6.62 -15.82,9.75 -24.82,11.35zm-18.91 -87.99c17.81,-2.96 35.93,-4.04 53.94,-3.09 -7.23,8.31 -14.76,17.48 -24.17,23.03 -10.27,-6.05 -20.02,-13.05 -29.77,-19.94zm166.33 -18.78c13.53,-1.84 27.74,-2.68 41.08,0.74 -5.45,11.14 -12.13,21.67 -19.36,31.74 -2.56,3.97 -7.04,5.79 -11.04,7.95 -21.37,11.06 -42.56,22.77 -61.78,37.34 -9.03,2.19 -18.77,0.48 -28.08,0.69 2.86,-12.81 6.16,-25.64 11.87,-37.53 2.24,-5.62 8.39,-7.65 13.1,-10.65 18.19,-9.9 35.65,-21.16 54.21,-30.28zm-93.89 -35.69c29.7,-5.24 61.38,-6.91 90.38,2.84 -5.87,2.92 -12.28,4.46 -18.35,6.87 -15.79,6.19 -30.89,14.19 -47.06,19.45 -5.5,-11.76 -12.86,-23.36 -24.97,-29.16zm714.53 -13.53c4.99,-5.77 11.65,-9.81 18.63,-12.75 6.36,6.11 13.34,11.78 18.22,19.22 -12.05,-0.95 -24.25,-1.46 -36.07,-4.06 -0.19,-0.59 -0.59,-1.81 -0.78,-2.41zm-561.06 -21.69c9.09,0.83 17.51,4.59 25.46,8.88 -4.44,6.96 -7.3,15.12 -13.15,21.04 -2.43,-10.64 -8.31,-19.9 -12.31,-29.92zm304.01 -77.17c33.68,-6.53 68.12,-11.37 102.48,-8.52 18.69,2.85 33.93,15.29 48.33,26.66 16.13,12.6 31.38,26.34 47.19,39.3 10.34,12.44 10.87,29.58 16.53,44.19 -20.12,-9.6 -36.7,-24.88 -54.76,-37.67 -21.84,-15.59 -44.14,-31.23 -69.47,-40.66 -5.03,-1.95 -10.36,-2.83 -15.64,-3.66 2.98,6.13 8.83,12.05 7.31,19.39 -11.46,-0.99 -23,-2.28 -34.48,-0.72 -10.11,1.29 -21.23,2.77 -28.82,10.3 -14.57,13.61 -25.37,30.89 -33.3,49.09 -3.42,7.42 -4.86,15.5 -5.92,23.53 -12.43,0.32 -21.82,-10.13 -34.29,-10.34 25.83,-27.23 17.67,-69.56 39.15,-99.09 4.06,-5.16 8.9,-10.57 15.69,-11.8zm-276.69 -105.23c19.05,1.82 37.46,7.95 54.84,15.75 43.03,20.22 83.35,48.63 112.25,86.8 -13.19,22.58 -14.42,49.13 -16.56,74.5 -6.38,-8.69 -6.66,-20.23 -7.16,-30.59 -0.28,-14.91 2.53,-30.38 11.56,-42.58 -20.04,-22.39 -43.7,-41.27 -68.31,-58.38 -15.05,-9.38 -30.13,-19.28 -47.11,-24.84 18.4,19.85 42.88,34.89 56.07,59.28 -14.48,-3.89 -29.98,-6.63 -44.71,-2.47 15.37,7.93 33.15,13.81 43.99,28.16 -12.28,0.53 -23.61,6.22 -32.87,14.04 18.65,3.3 38.71,7 53.66,19.45 4.4,8.1 1.88,18.35 2.37,27.32 -8.52,-2.98 -17.21,-5.37 -25.9,-7.78 -2.71,-5.5 -5.84,-11.04 -10.98,-14.65 -14.54,-11.29 -33.34,-13.79 -50.57,-18.69 3.85,-4.13 9.71,-5.27 13.81,-9.03 3.55,-3.19 2.3,-8.52 0.63,-12.35 -8.33,-16.77 -21.03,-30.82 -34.38,-43.76 8,-0.85 16.2,-1.91 23.11,-6.37 -1.03,-22.52 -19.79,-38.16 -33.74,-53.81zm726.8 231.87l0 0c-10.56,8.12 -19.22,18.38 -28.53,27.85 15.16,3.97 30.53,7.93 44.36,15.54 8.96,5.05 16.68,12.01 25.58,17.19 0.68,-8.1 -7.06,-13.7 -7.16,-21.69 2.49,1.22 5.16,2.32 7.06,4.46 10.91,10.99 20.53,23.76 34.33,31.41 5.69,-7.4 -0.44,-16.32 -5.09,-22.47 -16.3,-20.19 -33.01,-40.87 -54.74,-55.5 -5.1,-3.89 -11.37,0.32 -15.81,3.21z"/>
   <path class="fil2" d="M912.18 448.37c0.55,0.08 1.65,0.27 2.2,0.36 6.9,17.35 3.6,36.57 -0.63,54.16 10.21,-1.75 20.13,-5.13 29.09,-10.36 20.4,-11.22 35.16,-29.6 52.12,-45.01 5.52,17.7 3.4,37.09 -3.62,54.04 14.8,-2.15 28.4,-8.73 41.42,-15.77 15.22,-8.27 30.15,-17.27 43.58,-28.25 10.4,36.71 28.05,74.95 62.98,94.13 2.75,-17.99 10.85,-34.48 19.47,-50.3 3.17,-5.94 7.19,-11.39 11.55,-16.51 30.33,7.82 58.84,21.31 86.09,36.51 36.09,20.15 70.11,43.73 104.23,66.96 34.36,26.7 65.18,57.55 95.46,88.74 9.6,10.93 20.32,21.05 28.16,33.38 13.13,-15.67 10.8,-39.11 4.04,-57.15 17.15,7.68 32.71,18.9 45.07,33.09 15.35,17.65 29.08,37.55 49.27,50.17 22.34,13.68 46.89,24.32 72.71,29.28 19.53,2.31 39.57,5.27 58.94,0.05 32.03,-8.71 60.83,-28.86 80.34,-55.67 14.59,-18.92 23.13,-41.76 28.25,-64.91 0.11,0.61 0.32,1.86 0.42,2.47 1.48,17.21 3.49,34.64 0.36,51.78 -4.02,27.51 -17.27,52.82 -34.73,74.13 28.39,-2.67 58.75,1.94 82.16,19.24 18.92,13.57 31.5,34.63 37.71,56.83 -22.13,-12.05 -46.51,-20.23 -71.75,-21.93 -29.94,-2.11 -59.78,3.26 -88.91,9.67 -19.05,3.76 -39.39,7.99 -58.27,1.12 -14.54,-4.46 -25.9,-14.82 -37.86,-23.66 5.6,20.61 20.78,37.86 39.81,47.29 -30.11,-4.65 -59.69,5.44 -86.81,17.49 -31.65,13.49 -64.72,27.78 -99.9,25.88 -8.84,-0.53 -17.64,-1.63 -26.3,-3.3 -17.55,-4.8 -35.76,-8.99 -51.19,-19.05 -10.93,-7.25 -21.12,-15.5 -31.71,-23.17 3.8,28.67 5.89,62.28 -13.45,86.13 -5.1,-21.82 -11.42,-44.27 -25.77,-62.01 -6.68,-8.82 -15.5,-15.62 -23.85,-22.73 -13.85,-10.99 -28.21,-21.46 -43.39,-30.53 -65.09,-42.35 -136.11,-75.96 -210.89,-97.23 -1.84,-17.66 -6.35,-35.06 -14.06,-51.06 -17.21,27 -38.42,51.84 -64.38,70.78 0.99,-28.98 -1.86,-58.96 -13.41,-85.81 -12.49,15.64 -28.96,28.92 -47.99,35.52 4,-27.23 -5.58,-56.37 -25.46,-75.53 -10.46,12.44 -24.18,22.18 -39.62,27.39 0.79,-10.64 -0.04,-21.36 -2.79,-31.68 -5.66,-20.99 -15.92,-41.96 -33.66,-55.28 -8.09,20.17 -21.16,38.67 -38.24,52.2 0.06,-27.81 -12.37,-56.24 -35.37,-72.52 -6.79,20.25 -22.4,35.85 -38.87,48.67 -5.72,-18.4 -13.84,-36.73 -27.54,-50.64 -3.83,-4.12 -8.78,-6.87 -13.83,-9.15 -6.91,13.21 -16.51,25.09 -28.31,34.27 -8.92,6.62 -20.91,11.56 -31.9,7.27 -10.96,-4.44 -16.16,-16.49 -17.96,-27.42 -3.06,-17.78 3.05,-35.18 7.53,-52.12 5.05,-16.02 9.73,-32.92 20.91,-45.9 18.9,13.15 27.76,36.43 31.33,58.38 17.24,-1.63 34.81,-6.22 48.68,-17 11.64,-8.78 20.19,-20.78 28.07,-32.88 5.44,5.35 10.53,11.29 13.34,18.5 4.65,10.4 3.47,22.12 3.05,33.2 33,-2.63 60.15,-25.93 77.97,-52.37 8.59,8.16 7.51,20.57 6.58,31.29 27.74,-4.65 52.66,-21.23 69.53,-43.47z"/>
   <path class="fil3" d="M749.15 207.93c11.25,-8.33 26.26,-6.82 39.08,-3.61 15.54,4.31 30.97,10.61 43.55,20.93 9.49,8.92 19.22,17.61 28.71,26.53 -25.64,2.01 -51.31,3.2 -76.94,5.14 -4.63,-14.73 -5.9,-30.61 -2.28,-45.73 -15.07,14.08 -23.95,33 -32.54,51.4 -10.02,2.73 -19.83,6.24 -29.58,9.85 -6.66,-10.23 -4.88,-23.97 1.25,-34.02 7.23,-12.07 17.42,-22.26 28.75,-30.49zm1074.17 439.85c9.24,10.51 14.57,24.06 17.23,37.68 6.09,30.85 -7.14,64.25 -32.28,83.03 21.12,-3.62 43.66,-0.89 62.71,9.21 27.76,13.56 48.16,39.14 60.17,67.15 10.44,22.92 14.72,48.27 15.03,73.35 -27.86,-32.03 -64.95,-57.11 -106.83,-66.05 -22.33,-4.7 -45.25,-2.26 -67.78,-1.02 -13.56,1.44 -27.26,2.41 -40.32,6.45 24.46,8.86 50.49,12.71 76.13,16.85 11.16,1.76 22.43,2.48 33.75,2.86 -16.75,15.16 -40.7,16.95 -62.23,16.44 -39.91,-0.63 -79.35,-10.5 -119.37,-7.84 -20.91,0.8 -39.49,11.33 -59.24,16.92 -32.09,10.61 -67.06,16.17 -100.3,7.63 -7.19,-2.29 -14.84,-3.83 -21.16,-8.12 8.66,1.67 17.46,2.77 26.3,3.3 35.18,1.9 68.25,-12.39 99.9,-25.88 27.12,-12.05 56.7,-22.14 86.81,-17.49 -19.03,-9.43 -34.21,-26.68 -39.81,-47.29 11.96,8.84 23.32,19.2 37.86,23.66 18.88,6.87 39.22,2.64 58.27,-1.12 29.13,-6.41 58.97,-11.78 88.91,-9.67 25.24,1.7 49.62,9.88 71.75,21.93 -6.21,-22.2 -18.79,-43.26 -37.71,-56.83 -23.41,-17.3 -53.77,-21.91 -82.16,-19.24 17.46,-21.31 30.71,-46.62 34.73,-74.13 3.13,-17.14 1.12,-34.57 -0.36,-51.78zm-925.11 -105.92c31.54,-4.93 63.58,-4.65 95.4,-3.93 27.97,1.9 55.68,6.55 83.47,10.31 21.52,2.58 42.66,8.38 64.44,8.31 18.14,-0.46 37.29,-1.54 53.02,-11.6 3.09,8.24 3.01,17.08 2.41,25.75 44.55,19.22 88.7,39.41 131.43,62.43 14.29,8.1 29.05,15.67 41.9,26.03 17.1,12.54 34.12,25.24 51.86,36.94 12.29,7.56 24.51,15.77 38.71,19.28 -2.89,9.85 -12.22,15.58 -21.12,19.36 33.18,20.7 70.37,34.23 107.77,45.14 15.35,4.82 31.46,6.3 47,10.09 -17.81,15.9 -40.3,25.37 -62.94,32.09 -26.39,7.51 -55.27,10.36 -81.64,1.21 -11.14,-3.36 -20.95,-9.83 -30.36,-16.52 -35.16,-25.01 -63.91,-57.84 -99.28,-82.6 -15.75,-10.51 -31.06,-21.78 -48.33,-29.66 -13.81,30.63 -44.68,55.52 -79.52,53.61 3.26,-17.9 -0.06,-36.66 -9.58,-52.17 -10.84,-20.47 -28.82,-35.71 -46.83,-49.67 -22.71,-17.25 -47.72,-31.5 -74.61,-41.14 -22.07,-8.35 -45.06,-13.89 -68.04,-18.99 -30.27,-6.59 -61.21,-9.45 -91.42,-16.34 -5.43,-1.18 -10.89,-2.18 -16.36,-3.15 -13.03,-2.18 -25.35,-7.55 -38.61,-8.54 2.48,-3.41 6.77,-4.04 10.51,-5.27 13.57,-3.65 26.74,-8.9 40.72,-10.97z"/>
   <path class="fil4" d="M800.91 214.93c16.56,7.79 38.94,10.74 19.85,32.58 0.72,-22.99 -0.45,-20.79 -19.85,-32.58zm219.8 149.92c10.89,-1.9 22.07,-3.46 33.09,-1.77 5.39,0.76 11.5,4.78 10.34,11.04 -1.95,16.7 -7.21,32.87 -13.6,48.39 -7.36,16.89 -15.79,34.08 -29.96,46.39 1.19,-22.14 -1.48,-45.02 -12.18,-64.74 -2.83,-4.76 -5.2,-10.23 -9.97,-13.36 -8.57,20.51 -21.85,38.73 -36.6,55.2 -6.32,6.3 -12.2,13.36 -20.09,17.76 -0.46,-14.55 -2.05,-29.75 -9.45,-42.58 -4.5,-8.12 -11.08,-14.78 -17.61,-21.25 -11.16,23.91 -27.82,47.11 -52.67,58.06 -0.84,-10.68 -6.53,-20.09 -12.39,-28.74 -4.8,-6.53 -9.7,-13.27 -16.53,-17.82 -7.38,18.48 -16.51,36.6 -29.77,51.61 -6.55,6.94 -13.85,14.27 -23.42,16.56 -3.51,-24.89 -25.4,-41.89 -46.6,-52.29 -11.44,23.34 -28.63,44.29 -51.61,57 -3.05,-21.9 -17.61,-41.33 -37.38,-51 54.36,-4.65 107.78,-16.19 161.27,-26.53 71.93,-12.87 143.2,-29.05 215.13,-41.93zm98.59 23.07c10.36,-12.41 28.03,-15.64 43.09,-11.2 17.67,3.84 32.09,15.18 47.82,23.4 19.85,10.66 39.88,21.38 61.4,28.31 23.51,7.99 47.21,15.43 71.16,22.03 8.25,0.83 10.28,10.49 11.65,17.13 2.96,22.05 -1.05,44.88 -9.62,65.31 -15.28,-21.99 -22.89,-49.79 -19.66,-76.48 -11.04,4.84 -19.64,13.45 -28.29,21.55 -4.4,-12.52 -9.28,-25.12 -17.74,-35.54 -6.57,8.07 -13.32,17.08 -23.34,20.99 -6.15,-9.34 -10.38,-19.72 -14.61,-30.02 -5.98,8.18 -13.8,14.67 -22.09,20.36 -12.03,-14.38 -20.02,-32.1 -23.87,-50.4 -14.38,10.1 -23.96,25.28 -33.39,39.76 -12.87,21.1 -24.5,43.07 -33.76,65.99 -19.87,-22.75 -23.51,-55.1 -20.82,-84.11 2.11,-12.77 2.26,-27.33 12.07,-37.08zm-487.76 220.86c21.08,-7.32 41.86,-18.91 55.27,-37.21 10.65,14.5 20.19,35.45 8.75,52.22 -21.21,-5.56 -42.52,-10.76 -64.02,-15.01zm79.03 19.17c23.62,-4.59 43.91,-20.57 56.92,-40.42 9.17,18.33 7.46,39.53 4.65,59.18 14.12,6.53 30.97,2.89 43.13,-6.09 10.02,-8.78 17.31,-20.19 23.97,-31.63 12.9,20.44 12.33,47.31 4.32,69.45 22.34,8.06 47.84,0.04 65.88,-14.19 7.12,13.41 5.73,29.27 3.91,43.79 -1.17,6.85 -2.24,13.87 -5.56,20.06 22.39,6.35 47.34,-0.97 65.52,-14.77 5.64,23.1 3.32,48.92 -9.92,69.11 7.15,8.37 19.62,6.58 28.9,3.38 25.02,-10 44.51,-29.87 61.3,-50.32 9.51,32.94 0.42,69.9 -20.93,96.37 -5.48,7.7 -16.26,7.04 -24.49,5.39 -9.85,-1.67 -19.03,-6.93 -25.14,-14.88 -10.23,-13.05 -19.41,-27 -30.89,-39.05 -29.62,-31.1 -62.41,-59.14 -97.08,-84.44 -19.12,-13.85 -38.99,-26.75 -60.09,-37.38 -27,-13.87 -55.77,-23.75 -84.4,-33.56zm353.59 229.21c13.09,-13.38 29.2,-23.15 44.5,-33.7 1.29,11.06 3.79,22.6 10.66,31.65 2.56,3.99 7.69,1.79 11.29,0.86 13.99,-5.24 25.86,-14.9 36.43,-25.24 4.54,6.74 8.71,14.02 9.64,22.26 15.67,0.68 30.82,-7.9 40.97,-19.45 14.63,1.91 28.48,9.64 38.42,20.47 -12.96,13.34 -27.74,27 -46.77,30.19 -15.77,1.65 -29.79,-7.61 -42.88,-15.1 -15.94,10.32 -37.69,13.77 -54.31,3.01 -17.32,8.54 -38.33,4.27 -55.12,-3.64 0.32,-4.8 4.08,-8.06 7.17,-11.31z"/>
  </g>
 </g>
</svg>
