<?xml version="1.0" encoding="UTF-8"?>
<!DOCTYPE svg PUBLIC "-//W3C//DTD SVG 1.1//EN" "http://www.w3.org/Graphics/SVG/1.1/DTD/svg11.dtd">
<!-- Creator: CorelDRAW -->
<svg xmlns="http://www.w3.org/2000/svg" xml:space="preserve" width="2000px" height="1600px" version="1.1" style="shape-rendering:geometricPrecision; text-rendering:geometricPrecision; image-rendering:optimizeQuality; fill-rule:evenodd; clip-rule:evenodd"
viewBox="0 0 2000 1600"
 xmlns:xlink="http://www.w3.org/1999/xlink">
 <defs>
  <style type="text/css">
   <![CDATA[
    .fil0 {fill:#EB3642}
    .fil1 {fill:#001341;fill-rule:nonzero}
    .fil2 {fill:#FEFEFE;fill-rule:nonzero}
   ]]>
  </style>
 </defs>
 <g id="Capa_x0020_1">
  <metadata id="CorelCorpID_0Corel-Layer"/>
  <g id="UConn_x0020_Huskies.cdr">
   <path class="fil0" d="M1079.52 1065.66c26.57,6.63 52.64,15.86 76.35,29.7l4.8 2.81 0 5.55c-0.02,91.39 -0.04,182.77 0.01,274.16l0.01 5.63 -4.9 2.78c-34.59,19.65 -73.42,31.21 -112.86,35.65 -65,7.32 -133.06,-3.28 -190.28,-35.86l-4.89 -2.79 0 -5.62c-0.02,-91.25 0.04,-182.51 -0.04,-273.77l0 -5.62 4.87 -2.78c23.71,-13.57 49.55,-23.45 76.21,-29.37 -4.93,-3.92 -9.63,-8.1 -14.09,-12.51 -21.15,-20.91 -38.05,-46.05 -49.86,-73.32l-0.12 -0.3 -0.11 -0.3c-0.11,-0.31 -0.29,-0.55 -0.51,-0.79 -1.13,-1.22 -3.38,-2.43 -4.82,-3.24 -2.42,-1.37 -4.78,-2.71 -6.98,-4.42 -56.66,-38.6 -101.6,-91.94 -138.48,-149.24 -3.18,-4.95 -6.32,-9.94 -9.37,-14.99 -1.54,4.83 -3.05,9.66 -4.59,14.49l-6.71 21.1 -10.92 -19.27c-23.21,-40.93 -42.46,-83.99 -59.45,-127.84 -21.65,-55.83 -40.6,-112.74 -56.14,-170.59l-1.07 -3.97 2.13 -3.53c22.21,-36.85 48.27,-71.32 77.03,-103.3 -2.44,-1.31 -4.88,-2.63 -7.32,-3.95l-7.91 -4.3 3.73 -8.2c10.31,-22.67 23.34,-44 37.66,-64.34l0.14 -0.2 0.15 -0.19c2.28,-2.93 2.67,-11.96 3.44,-15.98 13.12,-80.48 36.17,-160.66 79.43,-230.43 19.14,-30.87 42.05,-59.99 71.55,-81.59l6.46 -4.73 5.86 5.46c44.66,41.67 73.81,97.72 89.42,156.36 38.29,-3.3 76.66,-6.74 115.06,-2.8 12.71,0.44 25.35,1.63 38.02,2.69 15.56,-58.62 44.84,-114.56 89.29,-156.36l5.91 -5.55 6.49 4.84c30.2,22.51 53.81,52.53 73.26,84.52 42.35,69.64 65.07,149.26 77.91,229.23 0.45,2.25 0.68,4.5 0.93,6.78 0.19,1.73 0.48,5.2 1.64,6.64l0.15 0.19 0.14 0.2c14.74,20.48 27.56,42.31 38.41,65.08l4.01 8.42 -8.27 4.32c-2.46,1.28 -4.92,2.59 -7.37,3.9 28.61,32.06 55,66.23 76.85,103.27l1.96 3.33 -0.86 3.76c-6.72,29.16 -16.49,57.44 -25.44,85.95l-0.05 0.18c-24.46,73.02 -51.86,145.49 -89.92,212.66l-11.17 19.7 -6.51 -21.69c-1.44,-4.82 -3,-9.6 -4.58,-14.38 -31.17,51.73 -68.92,99.78 -114.77,139.26 -14.02,12.08 -29.04,23.01 -44.85,32.62 -13.96,32.56 -34.97,62.24 -62.02,85.22l-0.14 0.12c-0.64,0.52 -1.27,1.03 -1.91,1.54zm-138.93 82.85c-0.02,61.48 0,122.95 -0.02,184.43 41.61,11.07 86.22,11.05 127.82,-0.07 0.02,-61.38 -0.06,-122.76 0.02,-184.14 -41.55,-11.06 -86.26,-11.35 -127.82,-0.22zm-345.09 0.18c0.1,61.42 0.07,122.84 0.02,184.25 41.24,11.16 85.55,10.97 126.84,0.11 0.01,-18.34 0,-36.68 0,-55.03l0 -9.67 9.67 0c24.6,0 49.2,-0.02 73.81,0.02l9.63 0.02 0.02 9.63c0.08,33.15 -0.08,66.29 0.08,99.43l0.03 5.59 -4.83 2.81c-34.19,19.95 -72.91,31.37 -112.1,35.97 -65.17,7.64 -133.33,-3.18 -190.86,-35.5l-4.9 -2.76 -0.03 -5.63c-0.42,-91.08 0.1,-182.15 -0.25,-273.23l-0.02 -5.5 4.72 -2.83c36.68,-21.97 78.79,-33.85 121.22,-37.59 62.51,-5.51 127.61,5.36 182.18,37.31l4.79 2.8 -0.01 5.55c-0.02,28.49 0.02,56.99 -0.02,85.49l-0.01 9.65 -9.65 0c-24.6,0.02 -49.19,0.02 -73.79,0l-9.65 0 -0.01 -9.66c-0.02,-13.8 -0.03,-27.6 -0.02,-41.41 -41.28,-10.79 -85.65,-11.08 -126.86,0.18zm1019.59 53.63c-0.18,67.47 0.05,134.95 -0.06,202.42l-0.02 9.65 -9.65 0.01c-22.1,0.02 -44.21,0.02 -66.32,0l-9.66 -0.01 0 -9.66c-0.02,-109.33 -0.02,-218.65 -0.02,-327.97l0 -9.7 9.7 0.03c26.32,0.07 52.63,-0.18 78.95,0.13l5.31 0.07 2.79 4.51c34.97,56.4 70.19,112.64 105.48,168.84 7.77,12.37 15.42,24.82 23.19,37.19 0.3,-67.04 -0.11,-134.08 0.08,-201.12l0.02 -9.62 9.62 -0.02c22.23,-0.06 44.46,0.17 66.69,-0.12l9.75 -0.12 0.05 9.75c0.48,109.38 0.09,218.76 0.19,328.14l0.01 9.72 -9.73 -0.04c-26.24,-0.12 -52.48,0.29 -78.72,-0.2l-5.27 -0.09 -2.77 -4.48c-42.96,-69.26 -86.43,-138.19 -129.61,-207.31zm-1363.54 130.79c20.35,6.53 41.36,12.08 62.77,12.61 22.01,-0.12 43.65,-5.91 64.57,-12.53 -0.02,-85.48 -0.02,-170.95 0,-256.43l0 -9.67 9.67 0c24.49,0 48.98,-0.02 73.47,0l9.66 0 0 9.67c0.02,100.15 -0.02,200.31 0.02,300.46l0.01 5.53 -4.76 2.8c-36.6,21.6 -78.33,33.78 -120.52,37.71 -62.83,5.84 -128.2,-5.57 -182.91,-37.82l-4.76 -2.81 0 -5.53c0.1,-100.11 0,-200.23 0.04,-300.35l0 -9.66 9.66 0c24.5,-0.02 48.99,0 73.48,0l9.67 0 0 9.67c-0.04,85.45 0.1,170.9 -0.07,256.35zm1163.57 -54.92c0.3,-67.15 -0.11,-134.31 0.06,-201.46l0.03 -9.64 9.63 0c22.25,-0.02 44.49,0 66.74,0l9.67 0 0 9.67c0,109.33 0.02,218.66 0,327.99l0 9.67 -9.67 0c-26.11,0 -52.22,-0.04 -78.34,0.02l-5.36 0.01 -2.85 -4.55c-43.45,-69.28 -86.78,-138.63 -130.16,-207.95 -0.18,67.6 0.06,135.21 -0.04,202.81l-0.02 9.66 -9.66 0c-22.14,0 -44.29,0 -66.44,-0.02l-9.66 -0.01 0 -9.66c-0.02,-109.32 -0.04,-218.64 0,-327.96l0 -9.64 9.65 -0.02c26.28,-0.06 52.56,0.02 78.84,-0.04l5.36 -0.02 2.85 4.55c43.16,68.84 86.27,137.71 129.37,206.59z"/>
   <path class="fil1" d="M1330.86 1515.27c17.16,-6.6 37.52,-3.14 52.27,7.7 -3.87,5.67 -7.9,11.24 -11.81,16.88 -8.86,-5.37 -20.32,-11.25 -30.61,-6.66 -3.82,2.86 -1.51,7.95 2.45,9.13 12.16,4.45 26.58,4.8 36.39,14.27 10.97,11.76 5.53,33.22 -9.18,39.28 -19.6,8.25 -43.19,3.12 -59.48,-9.98 4.39,-5.33 8.84,-10.61 13.27,-15.91 9.25,6.77 20.94,12.05 32.63,9.62 4.88,-0.49 6.5,-8.04 1.72,-9.84 -12.48,-5.88 -28.51,-5.05 -38.43,-15.88 -10.36,-12.22 -4.07,-33.17 10.78,-38.61zm-568.58 -1423.66c18.67,-29.62 40.58,-58.03 69.05,-78.88 45.3,42.27 74.1,99.94 88.67,159.62 40.45,-3.42 81.19,-7.68 121.75,-3.48 15.38,0.52 30.69,2.17 46.04,3.33 14.51,-59.66 43.46,-117.2 88.56,-159.6 29.18,21.75 51.78,51.03 70.77,81.78 41.49,68.7 64.02,147.16 76.65,225.94 1.24,5.95 0.53,12.72 4.53,17.73 14.4,20.01 26.92,41.34 37.53,63.59 -6.16,3.22 -12.25,6.53 -18.35,9.82 31.35,34.21 60.38,70.84 83.97,110.85 -6.64,28.83 -16.37,56.97 -25.23,85.23 -24.25,72.41 -51.42,144.37 -89.16,210.96 -3.54,-11.81 -7.76,-23.38 -11.3,-35.19 -32.61,57.89 -73.18,111.98 -123.63,155.52 -14.45,12.35 -29.9,23.57 -46.23,33.29 -13.35,32.3 -33.89,61.83 -60.59,84.51 -20.44,16.7 -45.15,29.07 -71.57,32.01 -31.27,-3.68 -59.95,-20.11 -82.23,-41.9 -20.15,-20.14 -36.46,-44.14 -47.78,-70.29 -2.46,-6.9 -10.43,-8.78 -15.7,-13 -55.69,-37.87 -99.76,-90.47 -136.06,-146.67 -6.89,-10.92 -13.74,-21.89 -19.72,-33.33 -4.24,11.57 -7.86,23.38 -11.6,35.13 -22.97,-40.53 -41.99,-83.18 -58.85,-126.57 -21.48,-55.52 -40.37,-112.11 -55.81,-169.61 24.04,-39.86 52.64,-76.9 84.3,-110.96 -6.1,-3.22 -12.19,-6.49 -18.25,-9.78 10.06,-22.12 22.8,-42.92 36.77,-62.78 4.49,-5.75 3.95,-13.45 5.34,-20.22 12.91,-79.25 35.77,-158.23 78.13,-227.05zm66.09 -28.38c-30.46,24.52 -52,58.3 -68.94,93.12 -23.01,49.17 -36.94,102.51 -42.67,156.41 15.52,-37.2 30.77,-74.53 47.45,-111.22 17.17,-36.42 38.19,-70.99 61.99,-103.42 12.97,22.06 19.41,47.49 21.38,72.88 -16.79,23.84 -30.65,49.99 -39.73,77.76 5.94,-0.95 11.91,-1.84 17.9,-2.5 -9.57,20.81 -15.56,43.29 -18.17,66.01 33.02,-34 71.34,-62.68 112.77,-85.59 -11.34,-1.71 -22.76,-2.62 -34.18,-3.53 6.12,-3.09 11.83,-6.9 17.67,-10.47 -6.31,-29.74 -15.61,-58.98 -29.34,-86.17 -11.55,-23.52 -26.62,-45.64 -46.13,-63.28zm352.43 0.09c-23.48,20.79 -40.04,48.27 -52.64,76.72 -10.03,23.37 -18.19,47.7 -22.64,72.78 5.63,3.48 11.2,7.1 17.03,10.26 -11.21,1.18 -22.45,1.78 -33.58,3.69 41.47,23.09 79.87,51.87 113.02,85.89 -3.6,-22.74 -8.89,-45.44 -18.54,-66.44 5.88,0.76 11.75,1.73 17.67,2.29 -8.83,-27.95 -23.46,-53.67 -39.5,-78.03 1.82,-25.1 8.36,-50.42 21.32,-72.19 27.21,36.98 50.79,76.75 68.98,118.94 14.05,31.61 27.03,63.69 40.5,95.55 -6.75,-60.23 -22.83,-120.01 -51.55,-173.6 -15.62,-28.31 -34.61,-55.54 -60.07,-75.86zm-176.87 240.28c-4.74,19.84 -7.87,40.02 -11.16,60.15 -9.12,61.02 -15.27,122.52 -18.27,184.14 -29.05,21.21 -54.13,47.76 -74.26,77.53 -4.72,-23.73 -6.66,-48.04 -5.73,-72.21 -10.21,-3.42 -20.39,-7.22 -29.43,-13.18 -19.51,-12.23 -34.04,-32.72 -37.16,-55.75 16.51,-2.34 33.33,-1.57 49.8,0.75 -1.8,-6.42 -3.93,-12.77 -5.77,-19.19 27.92,18.36 45.15,48.4 58.64,78.14 8.57,-8.82 12.5,-20.92 15.3,-32.61 6.8,-28.72 5.25,-58.48 4.44,-87.72 -15.23,-19.22 -34.37,-36.25 -57.5,-45.19 -10.53,13.43 -20.2,27.58 -28.66,42.4 3.79,1.88 7.64,3.66 11.53,5.38 -18.5,23.88 -44.91,41.96 -74.48,48.83 -1.55,37.72 3.67,75.49 10.81,112.47 -21.25,-25.91 -33.48,-58.05 -40.46,-90.51 -21.7,-7.66 -43.99,-13.58 -66.71,-17.2 -12.95,10.6 -25.64,21.52 -38.45,32.3 12.4,7.97 24.61,16.25 37.15,24 -20.43,2.55 -40.85,5.26 -61.27,7.95 15.02,61.67 35.69,121.96 60.21,180.5 4.14,-9.25 7.64,-18.75 11.44,-28.14 15.75,30.98 34.15,60.75 56.21,87.67 12.12,14.4 24.91,28.62 40.51,39.36 -9.52,-34.76 -21.97,-68.68 -35.59,-102.01 31.95,24.47 56.16,57.46 75.79,92.28 16.77,29.76 30.38,61.23 41.95,93.35 8.42,22.22 13.18,46.2 26.94,66.02 19.72,30.84 56.39,51.42 93.36,47.95 31.81,-3.27 60.84,-22.91 77.47,-49.99 12.73,-19.18 17.36,-41.99 25.37,-63.22 15.32,-42.36 33.98,-83.82 58.96,-121.42 16.2,-24.6 35.81,-47.07 59.15,-65.12 -13.73,33.36 -26.23,67.37 -35.65,102.22 11.67,-8.03 21.67,-18.17 31.16,-28.6 26.41,-29.46 47.37,-63.35 65.52,-98.37 3.76,9.44 7.47,18.89 11.4,28.27 24.37,-58.66 45.23,-118.94 60.19,-180.71 -20.55,-2.73 -41.11,-5.61 -61.7,-7.94 12.85,-7.37 24.95,-16.04 37.49,-23.94 -12.5,-10.95 -25.22,-21.71 -38.13,-32.16 -22.81,3 -45.13,9.37 -66.82,16.99 -7.03,32.44 -19.37,64.39 -40.37,90.44 7.04,-36.99 11.9,-74.59 10.93,-112.31 -29.39,-7.14 -56.45,-24.67 -74.41,-49.08 3.78,-1.74 7.51,-3.58 11.21,-5.47 -8.23,-14.01 -17.17,-27.66 -27.37,-40.29 -1.35,-2.91 -4.39,-0.41 -6.32,0.13 -17.29,7.88 -32.27,20.13 -45,34.1 -2.94,3.79 -7.68,7.18 -7.64,12.44 -1.16,22.68 -1.42,45.48 1.64,68.03 2.75,17.11 5.87,35.88 18.41,48.84 13.33,-29.72 30.63,-59.8 58.63,-77.93 -2.1,6.31 -3.96,12.7 -6.09,18.99 16.53,-2.23 33.28,-2.77 49.89,-0.99 -1.61,11.79 -6,23.14 -12.79,32.92 -12.35,18.5 -32.69,29.96 -53.61,36.21 0.48,24.36 -1.03,48.78 -5.71,72.72 -19.91,-30.34 -45.81,-56.56 -74.7,-78.43 -1.06,-35.73 -5.24,-71.28 -8.71,-106.83 -5.46,-45.88 -11.15,-91.9 -21.58,-136.96zm-58.34 420.48c14.53,-16.07 36.01,-25.34 57.55,-26.03 22.64,-0.35 44.53,9.73 60.5,25.5 -0.33,22.07 -5.13,44.98 -18.68,62.88 -7.97,10.78 -19.41,18.64 -32.03,23.01 -1.12,10.7 9.04,17.53 18.46,18.95 13.65,2.03 27.95,1.47 41.09,-3.02 13.35,-4.57 23.55,-15.14 31.6,-26.34 13.65,-19.41 23.69,-41.03 35.09,-61.75 6.15,-10.01 12.93,-21.33 24.98,-24.78 -27.65,50.28 -45.38,105.13 -61.23,160.03 -5.49,22.7 -10.66,46.12 -23.96,65.8 -16.37,25.45 -43.58,44.18 -73.61,48.77 -36.77,-4.32 -68.71,-30.89 -83.8,-64.16 -8.09,-16.48 -10.91,-34.73 -15.93,-52.23 -15.77,-54.34 -33.05,-108.76 -60.65,-158.44 10.63,3.66 17.63,13.06 23.24,22.3 8.13,13.99 15.02,28.66 23.13,42.67 10.28,17.73 21.37,36.98 40.56,46.27 15.02,6.52 32.34,7.53 48.27,4.22 8.88,-1.55 15.89,-8.69 16.64,-17.79 -15.75,-5.55 -29.36,-16.64 -37.81,-31.04 -9.62,-16.5 -13.32,-35.95 -13.41,-54.82zm18.23 9.21c23.7,-16.3 56.68,-16.06 80.41,0.13 -9.76,-15.19 -29.57,-20.01 -46.59,-18.5 -12.79,1.67 -27.21,6.39 -33.82,18.37zm-0.91 123.43c0.64,17.51 8.98,35.63 24.88,44.18 10.57,6.56 24.77,5.56 34.82,-1.57 14.2,-9.27 21.46,-26.16 22.2,-42.71 -8.73,0.04 -18.22,0.99 -25.14,6.87 -5.73,4.49 -7.65,11.81 -11.77,17.5 -1.45,2.53 -6.21,3.09 -7.72,0.44 -4.39,-6.09 -6.37,-14.07 -12.75,-18.58 -6.95,-5.42 -16.05,-6.19 -24.52,-6.13zm-32.59 42.65c0.58,14.13 4.24,28.92 13.83,39.73 7.69,9.33 20.59,10.16 30.54,15.97 12.77,7.41 28.22,10.04 42.62,6.48 8.49,-2.2 15.88,-7.18 24.01,-10.33 6.64,-2.85 14.25,-4.24 19.49,-9.58 11.75,-10.78 15.91,-27.25 16.45,-42.67 0.12,-13.88 -2.5,-29.25 -13.26,-39.04 5.62,25.16 -5.03,50.73 -20.57,70.19 -1.82,-3.77 -4.43,-7.06 -7.62,-9.75 -2.71,4.82 -5.09,10.02 -9.33,13.74 -11.09,10.2 -29.13,11.36 -41.55,2.92 -6.06,-3.87 -9.93,-10.16 -12.68,-16.62 -3.5,2.59 -6.73,5.67 -7.99,10 -15.5,-19.58 -25.89,-45.01 -20.69,-70.27 -10.72,9.84 -13.51,25.3 -13.25,39.23zm269.96 614.31c22.82,-0.02 45.62,-0.02 68.44,0 -0.06,6.54 -0.06,13.08 -0.02,19.64 -14.94,-0.02 -29.9,0 -44.84,0 -0.02,4.4 -0.02,8.81 0,13.24 13.54,0 27.07,0 40.62,0 0.02,6.18 0.02,12.35 0.02,18.54 -13.55,0 -27.1,0 -40.64,0 -0.02,4.39 0,8.81 0,13.24 15.05,-0.02 30.11,0.02 45.18,-0.02 -0.01,6.66 -0.01,13.33 0,20.01 -22.91,-0.04 -45.8,-0.02 -68.72,-0.02 -0.02,-28.22 0.04,-56.43 -0.04,-84.63zm-77.06 -0.83c9.02,0 18.06,0 27.1,0 0,29.03 0,58.06 0,87.09 -9.04,0 -18.08,0 -27.1,0 0,-29.03 0,-58.06 0,-87.09zm-71.1 0.77c9.39,0.04 18.77,0.14 28.18,-0.08 -10.97,11.91 -21.42,24.25 -32.3,36.25 11.2,16.1 22.18,32.38 33.3,48.54 -9.44,-0.04 -18.86,-0.04 -28.29,0 -7.06,-10.45 -14.34,-20.77 -21.23,-31.33 -2.98,3.09 -5.94,6.21 -8.88,9.35 -0.02,7.31 0,14.63 0,21.96 -7.86,-0.02 -15.7,0 -23.53,0 0,-28.22 0,-56.43 0,-84.65 7.85,0 15.69,0 23.55,0 -0.02,11.32 -0.12,22.66 0.06,33.98 9.83,-11.24 19.31,-22.77 29.14,-34.02zm-156.06 2.31c17.32,-7.61 38.57,-4.01 53.65,7.1 -3.95,5.61 -7.92,11.2 -11.87,16.8 -6.61,-4.28 -13.93,-7.59 -21.84,-8.31 -4.46,-0.71 -10.94,0.86 -10.8,6.47 1.66,4.22 6.54,5.17 10.43,6.31 10.64,2.51 22.25,4.62 30.57,12.3 10.71,11.93 5.42,33.16 -9.28,39.27 -19.59,8.28 -43.28,3.17 -59.49,-10.04 4.41,-5.29 8.86,-10.53 13.29,-15.79 9.54,6.87 21.87,12.56 33.75,9.13 3.47,-0.87 3.04,-4.78 3.64,-7.49 -12.41,-8.11 -29.47,-5.98 -40.49,-16.72 -11.24,-11.38 -6.07,-32.88 8.44,-39.03zm-141.25 -2.29c7.97,0.04 15.94,0.02 23.92,0.02 0.04,14.59 0,29.19 0,43.78 0.17,5.3 -0.16,11.3 3.5,15.63 7.06,9.47 25.41,6.41 27.13,-6 0.83,-17.78 0.1,-35.62 0.37,-53.41 7.97,0 15.95,0 23.92,-0.02 -0.13,17.17 0.04,34.31 -0.08,51.48 -0.05,13.88 -8.42,28.04 -22.16,32.16 -15.15,4.63 -33.75,3.99 -46.11,-6.94 -7.9,-7.42 -10.4,-18.76 -10.43,-29.21 -0.08,-15.83 0.07,-31.66 -0.06,-47.49zm-127.36 0.04c7.86,-0.02 15.71,-0.02 23.55,-0.02 0.04,10.47 0,20.94 0.04,31.43 10.08,-0.02 20.18,0 30.27,-0.02 0,-10.49 0.06,-20.96 -0.04,-31.43 7.72,0.02 15.44,0.04 23.18,-0.04 -0.13,28.26 -0.02,56.49 -0.08,84.75 -7.68,-0.08 -15.36,-0.06 -23.06,-0.02 0,-10.86 0.02,-21.71 0,-32.55 -10.11,-0.02 -20.19,0 -30.27,-0.02 -0.04,10.84 -0.02,21.69 -0.02,32.55 -7.86,0 -15.7,-0.02 -23.53,0 -0.02,-28.22 0.04,-56.43 -0.04,-84.63zm571.27 -436.9c26.28,-0.06 52.56,0.02 78.84,-0.04 43.91,70.04 87.76,140.11 131.62,210.19 5.18,7.74 9.32,16.23 15.4,23.38 0.66,-77.84 0.08,-155.7 0.27,-233.55 22.24,-0.02 44.49,0 66.73,0 0,109.32 0.02,218.64 0,327.99 -26.13,0 -52.25,-0.04 -78.36,0.02 -46.25,-73.76 -92.37,-147.59 -138.54,-221.36 -2.83,-4.2 -4.73,-9.41 -9.37,-11.94 -0.37,77.76 -0.04,155.52 -0.16,233.28 -22.15,0 -44.29,0 -66.43,-0.02 -0.02,-109.33 -0.04,-218.63 0,-327.95zm-1030.24 -0.02c24.48,-0.02 48.98,0 73.47,0 -0.04,87.78 0.11,175.58 -0.08,263.37 23.43,7.76 47.51,14.67 72.36,15.27 25.52,-0.12 50.25,-7.34 74.33,-15.16 -0.02,-87.84 -0.02,-175.66 0,-263.48 24.48,0 48.98,-0.02 73.46,0 0.02,100.15 -0.02,200.32 0.02,300.47 -35.37,20.88 -75.78,32.35 -116.5,36.4 -60.81,5.4 -124.13,-5.3 -177.1,-36.52 0.1,-100.11 0,-200.24 0.04,-300.35zm1596.05 -0.02c22.25,-0.06 44.53,0.17 66.78,-0.12 0.49,109.36 0.1,218.74 0.2,328.11 -26.21,-0.12 -52.41,0.29 -78.59,-0.2 -47.48,-76.54 -95.59,-152.67 -143.21,-229.09 -1.07,-1.69 -2.46,-3 -4.18,-3.95 -0.37,77.74 -0.04,155.5 -0.18,233.24 -22.1,0.02 -44.2,0.02 -66.3,0 -0.02,-109.33 -0.02,-218.65 -0.02,-327.97 26.28,0.08 52.58,-0.18 78.86,0.13 34.97,56.42 70.41,112.54 105.51,168.89 13.76,21.45 26.73,43.39 40.84,64.62 0.66,-77.87 0.08,-155.77 0.29,-233.66zm-1135.13 -8.32c60.5,-5.19 123.61,5.09 176.44,36.01 -0.02,28.49 0.02,56.99 -0.02,85.48 -24.6,0.02 -49.17,0.02 -73.77,0 -0.02,-16.25 -0.04,-32.49 0,-48.75 -47.32,-13.85 -99.01,-14.24 -146.23,0.27 0.12,66.27 0.08,132.53 0.02,198.79 47.26,14.36 98.85,14.11 146.19,0.18 0.02,-20.79 0,-41.57 0,-62.38 24.6,0 49.19,-0.01 73.79,0.02 0.08,33.15 -0.08,66.31 0.08,99.46 -33.04,19.27 -70.5,30.21 -108.36,34.72 -63.12,7.33 -129.23,-3 -184.99,-34.34 -0.42,-91.07 0.1,-182.14 -0.25,-273.22 35.42,-21.21 76.15,-32.49 117.1,-36.24zm446.91 6.4c25.97,6.43 51.52,15.37 74.68,28.9 -0.02,91.38 -0.04,182.78 0.02,274.16 -33.46,19.01 -71.04,30.14 -109.16,34.45 -62.96,7.07 -128.99,-3.09 -184.42,-34.66 -0.02,-91.27 0.04,-182.51 -0.03,-273.78 23.06,-13.2 48.24,-22.78 74.17,-28.47 21.81,13.63 45.75,25.53 71.82,27.95 26.44,-2.31 51.19,-13.74 72.92,-28.55zm-145.39 66.38c-0.02,66.34 0,132.7 -0.02,199.06 47.64,14.21 99.53,14.19 147.15,-0.08 0.04,-66.24 -0.05,-132.5 0.04,-198.77 -47.57,-14.16 -99.59,-14.53 -147.17,-0.21z"/>
   <path class="fil2" d="M859.33 503.11c-0.38,35.32 35.82,36.03 41.11,13.68 -8.63,-4.23 -14,-10.44 -21.91,-8.59 4.85,2.3 4.69,6.17 6.79,11.51 -11.38,-0.91 -16.34,-3.41 -15.96,-16.43 -3.35,-0.06 -6.7,-0.11 -10.03,-0.17zm289.17 14.8c1.45,-5.88 1.39,-12.01 0,-17.88 -0.38,1.12 -32.71,43.52 -19.3,6.39 -51.09,20.92 10.27,36.47 19.3,11.49zm-59.53 -291.14c41.47,23.09 79.87,51.87 113.02,85.89 -3.6,-22.74 -8.89,-45.44 -18.54,-66.44 5.88,0.76 11.75,1.73 17.67,2.29 -8.83,-27.95 -23.46,-53.67 -39.5,-78.03 1.82,-25.1 8.36,-50.42 21.32,-72.19 27.21,36.98 50.79,76.75 68.98,118.94 14.05,31.61 27.03,63.69 40.5,95.55 -6.75,-60.23 -22.83,-120.01 -51.55,-173.6 -15.62,-28.31 -34.61,-55.54 -60.07,-75.86 -23.48,20.79 -40.04,48.27 -52.64,76.72 -10.03,23.37 -18.19,47.7 -22.64,72.78 5.63,3.48 11.2,7.1 17.03,10.26 -11.21,1.18 -22.45,1.78 -33.58,3.69zm-202.8 -3.62c6.12,-3.09 11.83,-6.9 17.67,-10.47 -6.31,-29.74 -15.61,-58.98 -29.34,-86.17 -11.55,-23.52 -26.62,-45.64 -46.13,-63.28 -30.46,24.52 -52,58.3 -68.94,93.12 -23.01,49.17 -36.94,102.51 -42.67,156.41 15.52,-37.2 30.77,-74.53 47.45,-111.22 17.17,-36.42 38.19,-70.99 61.99,-103.42 12.97,22.06 19.41,47.49 21.38,72.88 -16.79,23.84 -30.65,49.99 -39.73,77.76 5.94,-0.95 11.91,-1.84 17.9,-2.5 -9.57,20.81 -15.56,43.29 -18.17,66.01 33.02,-34 71.34,-62.68 112.77,-85.59 -11.34,-1.71 -22.76,-2.62 -34.18,-3.53zm157.26 706.97c-1.82,-3.77 -4.43,-7.06 -7.62,-9.75 -2.71,4.82 -5.09,10.02 -9.33,13.74 -11.09,10.2 -29.13,11.36 -41.55,2.92 -6.06,-3.87 -9.93,-10.16 -12.68,-16.62 -3.5,2.59 -6.73,5.67 -7.99,10 -15.5,-19.58 -25.89,-45.01 -20.69,-70.27 -10.72,9.84 -13.51,25.3 -13.25,39.23 0.58,14.13 4.24,28.92 13.83,39.73 7.69,9.33 20.59,10.16 30.54,15.97 12.77,7.41 28.22,10.04 42.62,6.48 8.49,-2.2 15.88,-7.18 24.01,-10.33 6.64,-2.85 14.25,-4.24 19.49,-9.58 11.75,-10.78 15.91,-27.25 16.45,-42.67 0.12,-13.88 -2.5,-29.25 -13.26,-39.04 5.62,25.16 -5.03,50.73 -20.57,70.19zm0.8 -196.7c-9.76,-15.19 -29.57,-20.01 -46.59,-18.5 -12.79,1.67 -27.21,6.39 -33.82,18.37 23.7,-16.3 56.68,-16.06 80.41,0.13zm64.69 -107.6c-19.91,-30.34 -45.81,-56.56 -74.7,-78.43 -1.06,-35.73 -5.24,-71.28 -8.71,-106.83 -5.46,-45.88 -11.15,-91.9 -21.58,-136.96 -4.74,19.84 -7.87,40.02 -11.16,60.15 -9.12,61.02 -15.27,122.52 -18.27,184.14 -29.05,21.21 -54.13,47.76 -74.26,77.53 -4.72,-23.73 -6.66,-48.04 -5.73,-72.21 -10.21,-3.42 -20.39,-7.22 -29.43,-13.18 -19.51,-12.23 -34.04,-32.72 -37.16,-55.75 16.51,-2.34 33.33,-1.57 49.8,0.75 -1.8,-6.42 -3.93,-12.77 -5.77,-19.19 27.92,18.36 45.15,48.4 58.64,78.14 8.57,-8.82 12.5,-20.92 15.3,-32.61 6.8,-28.72 5.25,-58.48 4.44,-87.72 -15.23,-19.22 -34.37,-36.25 -57.5,-45.19 -10.53,13.43 -20.2,27.58 -28.66,42.4 3.79,1.88 7.64,3.66 11.53,5.38 -18.5,23.88 -44.91,41.96 -74.48,48.83 -1.55,37.72 3.67,75.49 10.81,112.47 -21.25,-25.91 -33.48,-58.05 -40.46,-90.51 -21.7,-7.66 -43.99,-13.58 -66.71,-17.2 -12.95,10.6 -25.64,21.52 -38.45,32.3 12.4,7.97 24.61,16.25 37.15,24 -20.43,2.55 -40.85,5.26 -61.27,7.95 15.02,61.67 35.69,121.96 60.21,180.5 4.14,-9.25 7.64,-18.75 11.44,-28.14 15.75,30.98 34.15,60.75 56.21,87.67 12.12,14.4 24.91,28.62 40.51,39.36 -9.52,-34.76 -21.97,-68.68 -35.59,-102.01 31.95,24.47 56.16,57.46 75.79,92.28 16.77,29.76 30.38,61.23 41.95,93.35 8.42,22.22 13.18,46.2 26.94,66.02 19.72,30.84 56.39,51.42 93.36,47.95 31.81,-3.27 60.84,-22.91 77.47,-49.99 12.73,-19.18 17.36,-41.99 25.37,-63.22 15.32,-42.36 33.98,-83.82 58.96,-121.42 16.2,-24.6 35.81,-47.07 59.15,-65.12 -13.73,33.36 -26.23,67.37 -35.65,102.22 11.67,-8.03 21.67,-18.17 31.16,-28.6 26.41,-29.46 47.37,-63.35 65.52,-98.37 3.76,9.44 7.47,18.89 11.4,28.27 24.37,-58.66 45.23,-118.94 60.19,-180.71 -20.55,-2.73 -41.11,-5.61 -61.7,-7.94 12.85,-7.37 24.95,-16.04 37.49,-23.94 -12.5,-10.95 -25.22,-21.71 -38.13,-32.16 -22.81,3 -45.13,9.37 -66.82,16.99 -7.03,32.44 -19.37,64.39 -40.37,90.44 7.04,-36.99 11.9,-74.59 10.93,-112.31 -29.39,-7.14 -56.45,-24.67 -74.41,-49.08 3.78,-1.74 7.51,-3.58 11.21,-5.47 -8.23,-14.01 -17.17,-27.66 -27.37,-40.29 -1.35,-2.91 -4.39,-0.41 -6.32,0.13 -17.29,7.88 -32.27,20.13 -45,34.1 -2.94,3.79 -7.68,7.18 -7.64,12.44 -1.16,22.68 -1.42,45.48 1.64,68.03 2.75,17.11 5.87,35.88 18.41,48.84 13.33,-29.72 30.63,-59.8 58.63,-77.93 -2.1,6.31 -3.96,12.7 -6.09,18.99 16.53,-2.23 33.28,-2.77 49.89,-0.99 -1.61,11.79 -6,23.14 -12.79,32.92 -12.35,18.5 -32.69,29.96 -53.61,36.21 0.48,24.36 -1.03,48.78 -5.71,72.72zm-163.33 98.26c14.53,-16.07 36.01,-25.34 57.55,-26.03 22.64,-0.35 44.53,9.73 60.5,25.5 -0.33,22.07 -5.13,44.98 -18.68,62.88 -7.97,10.78 -19.41,18.64 -32.03,23.01 -1.12,10.7 9.04,17.53 18.46,18.95 13.65,2.03 27.95,1.47 41.09,-3.02 13.35,-4.57 23.55,-15.14 31.6,-26.34 13.65,-19.41 23.69,-41.03 35.09,-61.75 6.15,-10.01 12.93,-21.33 24.98,-24.78 -27.65,50.28 -45.38,105.13 -61.23,160.03 -5.49,22.7 -10.66,46.12 -23.96,65.8 -16.37,25.45 -43.58,44.18 -73.61,48.77 -36.77,-4.32 -68.71,-30.89 -83.8,-64.16 -8.09,-16.48 -10.91,-34.73 -15.93,-52.23 -15.77,-54.34 -33.05,-108.76 -60.65,-158.44 10.63,3.66 17.63,13.06 23.24,22.3 8.13,13.99 15.02,28.66 23.13,42.67 10.28,17.73 21.37,36.98 40.56,46.27 15.02,6.52 32.34,7.53 48.27,4.22 8.88,-1.55 15.89,-8.69 16.64,-17.79 -15.75,-5.55 -29.36,-16.64 -37.81,-31.04 -9.62,-16.5 -13.32,-35.95 -13.41,-54.82z"/>
  </g>
 </g>
</svg>
