<?xml version="1.0" encoding="UTF-8"?>
<!DOCTYPE svg PUBLIC "-//W3C//DTD SVG 1.1//EN" "http://www.w3.org/Graphics/SVG/1.1/DTD/svg11.dtd">
<!-- Creator: CorelDRAW -->
<svg xmlns="http://www.w3.org/2000/svg" xml:space="preserve" width="2000px" height="1600px" version="1.1" style="shape-rendering:geometricPrecision; text-rendering:geometricPrecision; image-rendering:optimizeQuality; fill-rule:evenodd; clip-rule:evenodd"
viewBox="0 0 2000 1600"
 xmlns:xlink="http://www.w3.org/1999/xlink">
 <defs>
  <style type="text/css">
   <![CDATA[
    .fil0 {fill:#0052A0}
    .fil2 {fill:#7D92C6;fill-rule:nonzero}
    .fil3 {fill:#D53346;fill-rule:nonzero}
    .fil1 {fill:#FEFEFE;fill-rule:nonzero}
   ]]>
  </style>
 </defs>
 <g id="Capa_x0020_1">
  <metadata id="CorelCorpID_0Corel-Layer"/>
  <g id="UMass_x0020_Lowell_x0020_River_x0020_Hawks.cdr">
   <path class="fil0" d="M1843.73 314.85c48.3,41.85 85.86,98.41 96.89,162.09 2.5,13.28 3.35,26.79 3.33,40.29 23.84,29.34 39.36,64.79 48.01,101.42 16.08,68.69 8.49,143.96 -26.84,205.63 -19.7,34.76 -48.09,64.34 -81.41,86.29 -30.28,19.73 -60.62,39.37 -90.94,59.01 7.54,-28.52 15.26,-57 22.85,-85.52 9.25,-30.46 13.78,-62.27 13.27,-94.1 -10.29,-6.35 -20.14,-13.41 -29.43,-21.15 -27.11,21.24 -56.04,40.09 -86.22,56.67 -11.27,41.57 -22.24,83.21 -33.54,124.77 13.8,0 27.6,0.02 41.43,-0.02 -9.42,33.69 -19.14,67.32 -28.21,101.11 13.95,-0.21 28.09,1.1 41.81,-2.23 29.49,-3.87 61.09,-2.92 88.18,10.61 15.19,7.49 28.64,20.26 33.5,36.88 5.05,16.1 2.84,33.38 -1.01,49.5 -4.12,16.43 -8.53,32.82 -12.67,49.26 -3.06,-0.02 -6.1,-0.05 -9.1,-0.05 8.71,28.87 -0.33,58.99 -9.48,86.57 -8.42,24.36 -28.09,43.73 -51.88,53.17 -21.67,9.12 -45.41,12.83 -68.83,12.27 -12.57,-0.21 -24.82,-3.27 -37.34,-3.77 -415.63,-31.89 -834.81,-19.64 -1247.61,38.97 -120.88,17.16 -241.22,37.95 -360.81,62.54 34.48,-127.63 68.75,-255.27 103.25,-382.87 -32.91,-0.83 -66.7,3.2 -98.68,-6.63 -20.8,-6.14 -40.79,-18.42 -51.78,-37.62 -7.67,-12.29 -11.85,-26.97 -10.05,-41.49 2.62,-25.07 10.43,-49.2 16.66,-73.51 13.3,-49.21 26.13,-98.57 39.75,-147.68 0.81,-0.15 2.4,-0.43 3.21,-0.58 67.28,-0.04 134.58,-0.02 201.86,0 30.25,-73.24 69.2,-143.25 119.03,-205.02 -35.84,4.78 -70.96,14.05 -105.25,25.37 -50.58,16.76 -99.34,39.36 -143.98,68.56 26.51,-55.26 66.62,-103.2 112.73,-143.19 13.28,-11.96 28.68,-21.17 43.48,-31.1 162.43,-106.12 347.73,-178.64 540.42,-204.12 -46.17,-19.94 -93.64,-36.83 -141.86,-51.11 4.28,-2.03 8.88,-3.29 13.49,-4.35 81.42,-20.82 164.61,-34.1 248.13,-42.83 81.75,-8.47 163.99,-12.28 246.17,-11.93 108.03,0.85 216.26,8.65 322.61,28.15 74.13,13.82 147.74,33.07 216.78,63.86 39.36,17.8 77.34,39.49 110.08,67.88z"/>
   <path class="fil1" d="M263.22 1133.17c6.27,0.56 13.76,-0.15 18.69,4.57 3.31,5.01 1.01,11.47 -0.13,16.87 -2.94,9.75 -4.38,20.38 -10.63,28.72 -5.74,5.92 -14.9,4.89 -22.4,5.94 3.94,-18.91 9.96,-37.31 14.47,-56.1zm954.88 2.28c-3.21,26.3 -7.99,52.39 -11.59,78.63 -6.97,0.09 -13.91,0.09 -20.86,0 10.97,-26.15 21.75,-52.37 32.45,-78.63zm-408.64 -11.74c5.73,0.33 16,-0.33 15.64,8.07 -1.55,9.6 -3.68,19.5 -8.25,28.19 -3.71,6.6 -12.36,5.54 -18.73,6.48 3.77,-14.26 7.72,-28.46 11.34,-42.74zm879.3 -461.25c32.1,5.82 63.87,13.95 94.37,25.58 -28.17,-2.32 -56.48,-2.15 -84.62,0.38 -3.77,-8.45 -6.97,-17.14 -9.75,-25.96zm-155.91 -17.59c45.53,2.98 91.05,6.79 136.13,14.03 3,10.58 6.37,21.05 10.68,31.19 -42.7,4.35 -85.14,10.64 -127.73,15.65 -8.13,-19.68 -14.59,-40.05 -19.08,-60.87zm-143.13 -6.29c41.52,1.99 83.05,3.06 124.56,5.32 4.31,21.79 10.79,43.13 18.88,63.82 -41.87,3.48 -84.5,6.29 -126.08,-1.42 -7.49,-22.09 -13.61,-44.68 -17.36,-67.72zm-92.28 -8.69c24.28,4.84 49.05,6.35 73.72,7.86 3.52,21.75 8.79,43.2 15.48,64.2 -37.75,-10.37 -74.05,-34.79 -89.2,-72.06zm382.47 -10.45c32.47,7.22 64.89,16.27 94.51,31.7 16.7,8.9 32.74,19.66 45.57,33.7 -42.78,-21.34 -89.49,-33.14 -136.3,-41.75 -1.49,-7.84 -2.71,-15.74 -3.78,-23.65zm-150.99 -12.69c44.45,3.34 88.96,6.36 133.33,10.83 -0.06,7.63 1.29,15.15 2.63,22.64 -44.68,-6.87 -89.77,-10.93 -134.89,-13.31 -0.16,-1.51 -0.5,-4.53 -0.66,-6.04 -0.29,-4.7 -0.35,-9.42 -0.41,-14.12zm-142.36 -41.61c7.36,17.59 26.26,24.67 43.45,28.74 26.37,6.4 53.46,9 80.43,11.36 0.08,6.87 0.64,13.72 1.32,20.55 -41.39,-2.15 -82.82,-3.56 -124.23,-5.13 -2.36,-18.4 -2.22,-37.04 -0.97,-55.52zm-94.7 44.64c-4.8,-28.13 0.8,-59.44 20.46,-81 20.57,0.02 42.68,4.03 58.42,18.29 -4.22,23.88 -4.11,48.38 -1.78,72.47 -25.82,-1.82 -52.04,-2.75 -77.1,-9.76zm310.96 -116.12c-6.94,-4.33 -6.5,-13.95 -1.43,-19.58 6.83,4.45 13.8,8.71 20.34,13.62 -3.58,6.51 -12.25,10.94 -18.91,5.96zm-102.82 -38.23c24.55,7.45 48.47,16.83 71.82,27.44 0.43,11.78 6.1,23.51 16.39,29.68 11.61,7.68 27.46,6.89 38.63,-1.22l0.42 0.25c7.01,4.2 13.99,8.52 20.9,12.93 -21.88,13.56 -46.92,24.86 -73.22,23.2 -21.54,-1.05 -40.13,-15.02 -52.79,-31.64 -13.31,-17.36 -20.86,-38.82 -22.15,-60.64zm-1454.92 496.51c13.51,-52.73 28.12,-105.19 42.01,-157.82 23.94,-0.06 47.9,0 71.85,-0.04 -15.4,57.45 -30.84,114.88 -46.17,172.35 -0.91,5.26 -3.44,11.2 -0.98,16.33 4.6,3.7 12.71,2.05 15.82,-3 3.06,-4.68 4.4,-10.21 5.98,-15.5 15.41,-56.73 30.19,-113.64 45.88,-170.28 23.88,0.27 47.76,0.04 71.64,0.12 -13.22,48.72 -26.18,97.54 -39.28,146.3 -3.78,13.55 -7.12,27.35 -13.03,40.16 -8.47,17.53 -25.77,28.98 -43.77,35.04 -24.69,8.24 -51.76,9.36 -77.11,3.44 -14.59,-3.67 -30.2,-11.37 -36.05,-26.16 -5.01,-13.43 0.45,-27.65 3.21,-40.94zm95.75 -150.2l0 0c-13.66,51.45 -27.59,102.81 -41.24,154.26 -2.05,9.02 -4.35,20.03 2.75,27.52 1.51,-16.14 6.56,-31.56 10.61,-47.14 12.03,-44.93 24.11,-89.86 36.1,-134.79 -2.05,0.05 -6.15,0.11 -8.22,0.15zm55.34 137.31l0 0c-4.64,15.34 -7.99,32.33 -19.99,43.91 -14.8,14.53 -35.6,20.95 -55.73,23.43 -24.05,2.32 -50.17,0.73 -70.53,-13.64 4.12,5.65 9.31,10.58 15.68,13.62 17.39,8.69 37.48,9.38 56.54,8.28 21.63,-1.86 44.21,-8.2 60.1,-23.72 11.26,-10.99 14.88,-26.82 19.23,-41.37 13.34,-49.25 26.4,-98.59 39.71,-147.86 -2.01,-0.04 -6,-0.17 -8.01,-0.21 -12.56,45.78 -24.58,91.72 -37,137.56zm701.06 -144.47c24.33,-1.16 48.86,-0.15 73.28,-0.5 -16.33,60.91 -32.51,121.83 -49.03,182.68 19.31,0.29 38.62,0 57.95,0.16 -4.22,15.25 -8.18,30.59 -12.38,45.84 -43.71,-0.02 -87.41,-0.02 -131.12,0 20.44,-76.05 40.56,-152.21 61.3,-228.18zm55.15 7.18l0 0c-15.44,58.48 -31.27,116.86 -46.9,175.31 2.01,0.02 6.07,0.06 8.1,0.06 15.83,-58.44 31.31,-116.99 47.1,-175.43 -2.78,0 -5.55,0.02 -8.3,0.06zm8.38 185.2l0 0c-2.13,6.66 -3.58,13.51 -5.48,20.24 -35.66,-0.06 -71.32,0.12 -106.98,-0.08 -0.93,2.54 -1.84,5.11 -2.75,7.69 38.58,0.46 77.15,0.05 115.73,0.21 2.83,-10.28 5.58,-20.61 8.32,-30.94 -2.8,0.85 -8.36,-1.55 -8.84,2.88zm-396.37 -102.32c7.82,-16.86 26.55,-24.75 43.92,-27.4 16.72,-2.33 34.27,-2.36 50.39,3.09 7.16,2.75 15.11,7.05 17.44,14.92 1.87,11.42 -1.76,22.76 -4.74,33.67 -16.24,-0.06 -32.49,0 -48.75,-0.04 1.9,-7.16 4.51,-14.26 4.92,-21.73 -2.25,-6 -11.65,-3.73 -14.75,0.54 -5.28,7.4 -9.11,20.67 0.47,26.34 13.79,8.75 29.16,15.71 40.46,27.83 8.16,8.78 6.48,21.86 4.31,32.64 -3.4,14.82 -8.34,31.64 -22.58,39.59 -20.1,11.57 -44.47,13.78 -67.1,10.57 -12.08,-2.29 -26.46,-7.26 -30.85,-20.01 -2.79,-13.74 2.19,-27.33 5.44,-40.52 16.27,-0.52 32.58,-0.12 48.86,-0.22 -2.23,9.74 -5.92,19.2 -7.03,29.17 -0.4,5.82 7.3,5.99 11.25,4.54 9.03,-3.67 10.33,-14.86 11.45,-23.26 1.34,-9.11 -8.36,-13.19 -14.32,-17.72 -12.15,-8.88 -28.73,-14.05 -35.16,-28.81 -5.03,-14.4 0.39,-29.92 6.37,-43.19zm35.93 -5.29l0 0c-5.69,9.27 -9.42,23.19 -0.44,31.7 -0.25,-11.22 1.12,-24.5 10.91,-31.7 5.34,-4.25 12.42,-3.11 18.71,-2.63 -7.85,-8.34 -23.08,-7.22 -29.18,2.63zm63.3 -8.9l0 0c-0.78,7.72 -1.84,15.42 -3.91,22.91 -8.23,0.02 -16.49,0.04 -24.73,-0.15 -0.89,2.59 -1.78,5.17 -2.65,7.78 11.16,0.31 22.29,0.09 33.45,0.19 2.02,-9.98 7.69,-23.16 -2.16,-30.73zm-100.74 47.86l0 0c1.3,5.12 2.75,10.68 7.41,13.85 14.05,10.8 30.05,18.89 43.4,30.71 -1.55,-4.18 -3.27,-8.46 -6.63,-11.55 -13.2,-13.01 -31.53,-19.31 -44.18,-33.01zm83.4 25.73l0 0c0.44,15.13 -2.61,30.5 -9.41,44.06 -6.52,12.25 -20.74,16.95 -33.35,20.15 -19.63,4.08 -41.28,4.02 -59.26,-5.87 4.73,9.99 16.28,13.16 26.28,14.9 20.53,3.12 42.48,0.66 60.84,-9.46 13.58,-7.8 16.99,-24.56 20.03,-38.68 2.16,-8.71 1,-18.23 -5.13,-25.1zm-72.84 27.54l0 0c-1.62,8.47 -4.6,19.12 3.24,25.5 0.81,-8.71 2.8,-17.24 5.32,-25.6 -2.85,0.02 -5.71,0.06 -8.56,0.1zm165.08 -113.51c17.17,-3.23 35.28,-3.41 52.17,1.35 7.84,2.44 16.33,6.6 19.82,14.52 2.53,11.78 -1.26,23.68 -4.36,35 -16.23,-0.12 -32.45,0 -48.68,-0.08 1.76,-7.2 4.45,-14.28 4.89,-21.73 -2.42,-6 -11.76,-3.67 -14.9,0.64 -5.05,7.39 -8.96,20.47 0.43,26.16 13.76,8.79 29.12,15.72 40.5,27.75 7.87,8.3 6.6,20.71 4.8,31.06 -3.39,15.44 -8.21,33.03 -22.97,41.39 -20.17,11.55 -44.62,13.78 -67.3,10.51 -11.86,-2.27 -25.64,-7.11 -30.42,-19.33 -3.14,-13.69 1.55,-27.66 5.36,-40.74 15.98,-1.62 32.49,-0.21 48.68,-0.66 -2.09,10.49 -6.9,20.59 -6.85,31.39 4.61,5.9 14.56,2.73 17.75,-3.27 3.71,-7.18 5.78,-15.71 4.22,-23.72 -12.31,-15.33 -34,-19.64 -46.06,-35.26 -9.44,-14.24 -3.29,-32.24 2.65,-46.63 6.7,-16.32 23.75,-25.16 40.27,-28.35zm-3.42 21.15l0 0c-5.63,9.31 -9.45,23.12 -0.64,31.79 0.04,-11.16 1.26,-24.34 10.95,-31.56 5.38,-4.28 12.48,-3.25 18.83,-2.75 -7.84,-8.28 -22.95,-7.18 -29.14,2.52zm63.25 -8.79l0 0c-0.77,7.72 -1.82,15.39 -3.83,22.91 -8.32,0.02 -16.64,0.02 -24.96,-0.05 -0.83,2.53 -1.66,5.05 -2.48,7.6 11.13,0.52 22.26,0.14 33.42,0.29 2.11,-9.98 7.7,-23.18 -2.15,-30.75zm-100.56 47.7l0 0c0.99,5.63 2.96,11.44 8.03,14.69 13.89,10.35 29.41,18.42 42.49,29.93 -1.29,-3.27 -2.34,-6.75 -4.66,-9.44 -13.02,-14.59 -33.03,-20.38 -45.86,-35.18zm83.07 25.78l0 0c0.81,14.78 -2.38,29.68 -8.65,43.05 -6.11,12.73 -20.43,17.92 -33.24,21.13 -19.88,4.3 -41.84,4.22 -60.12,-5.75 5.05,10.01 16.56,13.32 26.78,14.98 20.35,3.06 42.06,0.56 60.29,-9.36 13.35,-7.51 16.99,-23.71 20.01,-37.51 2.28,-9.15 1.66,-19.4 -5.07,-26.54zm-69.04 53.13l0 0c0.29,-8.72 2.36,-17.16 4.97,-25.44 -1.99,-0.1 -5.94,-0.33 -7.91,-0.45 -2.77,8.36 -5.54,19.85 2.94,25.89zm355.27 -139.03c18.15,-3.35 38,-3.79 54.97,4.43 10.2,4.82 17.81,15.62 16.63,27.21 -1.74,15.17 -6.31,29.82 -10.07,44.58 -5.08,18.23 -9.28,36.77 -15.94,54.55 -4.88,13.1 -15.85,23.2 -28.39,28.95 -17.8,8.2 -38.1,9.81 -57.35,7.06 -11.69,-2.09 -24.48,-6.97 -30.32,-18.09 -5.38,-10.41 -1.69,-22.37 0.62,-33.11 6.59,-26.53 14.14,-52.83 22.13,-78.99 6.58,-20.7 27.42,-32.76 47.72,-36.59zm-10.6 29.8l0 0c-6.43,23.55 -12.62,47.14 -18.99,70.71 -2.36,9.32 -5.59,18.59 -5.78,28.29 -0.6,4.33 2.98,7.21 5.47,10.19 0.68,-6.38 1.44,-12.75 3.2,-18.92 7.41,-27.32 14.61,-54.7 22.04,-82.01 2.03,-6.58 4.2,-14.2 10.68,-17.76 5.05,-3.16 11.18,-1.94 16.76,-1.63 -3.51,-6.32 -10.57,-10.18 -17.79,-8.03 -9.36,1.53 -13.5,11.01 -15.59,19.16zm67.88 -15.62l0 0c2.3,14.52 -3.06,28.53 -6.49,42.4 -5.9,21.09 -10.64,42.55 -18.13,63.16 -6.17,16.91 -23.29,26.84 -40.09,30.5 -18.81,4.06 -39.73,4.02 -56.77,-6 6.81,11.96 21.44,15.36 34.19,16.12 20.28,1.04 42.41,-2.81 57.95,-16.84 10.99,-9.63 13.59,-24.67 17.79,-37.94 5.9,-22.57 12.77,-44.92 17.53,-67.77 2.14,-8.44 0.29,-17.43 -5.98,-23.63zm-47.24 12.33l0 0c-4.76,3.15 -5.94,9.25 -7.64,14.34 -7.55,28.29 -15.23,56.58 -22.7,84.91 -0.75,4.33 -2.71,8.98 -0.71,13.27 2.59,2.05 6.61,1.51 9.46,0.23 4.39,-3.01 5.59,-8.55 7.2,-13.29 7.6,-27.79 14.9,-55.65 22.44,-83.46 1.05,-4.33 2.4,-8.67 2.34,-13.17 -0.89,-4.67 -7.04,-4.22 -10.39,-2.83zm-826.29 -25.16c22.6,-0.09 45.22,-0.03 67.84,-0.05 -2.11,24.78 -4.7,49.53 -6.64,74.32 11.11,-24.57 21.07,-49.63 31.89,-74.32 22.76,0.05 45.51,-0.04 68.27,0.02 -14.48,54.47 -29.28,108.86 -43.66,163.35 -15.36,0.14 -30.71,0.04 -46.09,0.06 9.79,-36.07 19.45,-72.16 29.09,-108.28 -15.81,36.04 -31.29,72.21 -46.99,108.28 -10.87,0 -21.71,0 -32.56,0.02 2.74,-35.06 6.98,-70.03 8.84,-105.13 -8.84,35.16 -18.62,70.07 -27.87,105.11 -15.3,0 -30.57,0.02 -45.87,0 14.49,-54.49 29.18,-108.94 43.75,-163.38zm52.67 7.86l0 0c-2.44,31.72 -5.48,63.39 -7.99,95.11 4.39,-8.52 9.03,-17.36 9.21,-27.17 1.47,-22.95 4.27,-45.82 5.36,-68.79 -1.65,0.21 -4.94,0.64 -6.58,0.85zm90.56 -0.17l0 0c-12.27,46.73 -25.1,93.32 -37.35,140.07 -7.24,0.14 -14.47,0.12 -21.71,-0.07 -0.95,2.61 -1.88,5.24 -2.82,7.89 10.21,0.1 20.41,0.19 30.61,-0.1 13.02,-49.49 26.53,-98.84 39.61,-148.32 -2.79,0.16 -5.56,0.35 -8.34,0.53zm-40.54 3.73l0 0c-20.05,45.42 -39.92,90.95 -59.95,136.38 -4.16,0.02 -8.3,0.02 -12.44,0.04 -0.33,2.59 -0.66,5.19 -0.99,7.82 6.5,0 12.97,0 19.47,-0.02 12.34,-27.67 24.48,-55.42 36.86,-83.09 3.66,-8.05 5.48,-16.74 7.78,-25.23 3,-12 6.89,-23.77 9.27,-35.9zm-112.41 136.4l0 0c-7.33,0.04 -14.65,0.04 -21.98,-0.04 -0.66,2.63 -1.32,5.25 -1.99,7.9 10.02,-0.06 20.06,0 30.07,-0.08 7.62,-28.91 15.77,-57.7 23.18,-86.67 1.95,-14.98 3.29,-30.09 4.12,-45.18 -11.22,41.33 -22.21,82.74 -33.4,124.07zm214.44 -147.87c25.24,0 50.49,0.02 75.76,0 -4.66,54.47 -9.25,108.94 -13.88,163.43 -17.89,0.02 -35.77,0.02 -53.65,0 1.62,-9.81 3.46,-19.58 5.2,-29.34 -6.11,0.04 -12.23,0.04 -18.34,-0.09 -3.93,9.75 -7.39,19.68 -11.19,29.47 -18.11,-0.08 -36.22,0.02 -54.33,-0.06 23.51,-54.45 46.88,-108.96 70.43,-163.41zm60.78 7.66l0 0c-4.06,46.75 -7.85,93.52 -11.96,140.25 -10.1,-0.02 -20.18,-0.06 -30.26,0.02 -0.46,2.57 -0.89,5.17 -1.34,7.76 12.56,0 25.14,0 37.7,0 4.12,-49.5 8.55,-98.98 12.5,-148.48 -1.65,0.1 -4.99,0.35 -6.64,0.45zm-75.56 97.49l0 0c2.88,0.02 5.78,0.05 8.67,0.07 8.28,-19.58 16.06,-39.37 24.3,-58.96 4.51,-10.41 5.34,-21.9 6.31,-33.07 -13.12,30.64 -26.35,61.25 -39.28,91.96zm17.01 -0.12l0 0c5.8,0 11.59,0 17.39,0 3.45,-22.14 6.99,-44.29 10.05,-66.49 -9.37,22.06 -18.48,44.24 -27.44,66.49zm-18.67 13.62l0 0c-3.53,9.74 -7.24,19.45 -10.84,29.18 -9.46,0.56 -19.08,-0.93 -28.39,0.74 -1.16,2.3 -2.05,4.7 -3,7.1 12.43,0.06 24.89,0 37.35,0.06 4.26,-9.48 6.46,-20.07 11.63,-29.01 8.34,-0.62 16.74,0 25.1,-0.13 0.56,-2.67 1.1,-5.34 1.66,-7.98 -11.15,-0.07 -22.33,-0.11 -33.51,0.04zm720.58 -118.71c16.95,0.13 33.9,0.06 50.87,0.04 -5.74,36.3 -13.17,72.37 -18.07,108.8 14.3,-36.34 28.58,-72.68 43.21,-108.88 18.15,0.27 36.32,0.02 54.49,0.12 -6.23,37.73 -13.45,75.33 -18.81,113.18 13.89,-38.1 28.21,-76.07 44.43,-113.24 16.99,0.09 34,0.04 51.01,0.02 -22.39,54.47 -44.68,108.96 -67.03,163.43 -21.81,0.06 -43.62,0 -65.45,0.04 2.06,-28.04 5.21,-56.04 6.66,-84.12 -12.11,28.06 -24.57,56 -36.65,84.08 -21.73,0.08 -43.46,-0.02 -65.19,0.04 6.89,-54.49 13.58,-109.02 20.53,-163.51zm34.37 7.82l0 0c-6.99,44.35 -15.85,88.43 -22,132.87 4.21,-11.51 9.94,-22.54 12.67,-34.52 5.53,-32.99 11.4,-65.94 16.82,-98.95 -1.86,0.15 -5.6,0.46 -7.49,0.6zm79.95 -0.1l0 0c-5.61,33.24 -11.47,66.41 -17.14,99.62 -1.59,9.82 -4.05,19.52 -4.2,29.5 3.21,-9.4 6.52,-18.75 10.2,-27.96 3.67,-9.19 4.35,-19.15 6.17,-28.77 4,-24.27 8.55,-48.47 12.13,-72.8 -2.4,0.14 -4.8,0.27 -7.16,0.41zm70.77 3.42l0 0c-18.64,45.59 -37.43,91.09 -55.98,136.73 -15.08,0.35 -30.17,-0.29 -45.23,0.24 -1.95,1.87 -0.9,5.16 -1.47,7.64 17.54,0.02 35.07,0 52.62,0 20.16,-49.54 41.02,-98.82 60.64,-148.57 -3.68,0.52 -9.65,-1.2 -10.58,3.96zm-151.32 136.73l0 0c-14.94,0.2 -29.88,0 -44.82,0.12 -0.21,1.93 -0.66,5.82 -0.87,7.74 17.2,0.04 34.39,0.02 51.61,0.02 13.06,-29.26 25.83,-58.67 38.95,-87.89 5.32,-10.68 4.61,-22.97 5.42,-34.56 -16.66,38.24 -33.67,76.32 -50.29,114.57zm190 -147.87c33.3,0.17 66.62,0 99.94,0.08 -3.04,10.93 -5.9,21.92 -8.92,32.87 -15.81,-0.09 -31.58,0.08 -47.37,-0.11 -2.88,10.25 -5.59,20.53 -8.32,30.82 12.11,0.02 24.21,-0.04 36.34,0.04 -2.69,10.43 -5.59,20.78 -8.28,31.21 -12.13,0.04 -24.25,0.06 -36.38,-0.02 -3.33,11.81 -6.33,23.71 -9.64,35.55 15.95,0.02 31.91,0 47.88,0 -3.02,11.05 -5.81,22.14 -9.02,33.13 -33.38,-0.16 -66.76,-0.02 -100.14,-0.08 14.65,-54.49 29.09,-109.04 43.91,-163.49zm81.83 7.58l0 0c-0.89,3.27 -1.74,6.54 -2.61,9.83 -15.81,-0.03 -31.62,0 -47.43,-0.03 -4.33,15.48 -8.32,31.05 -12.56,46.57 2.75,-0.13 5.52,-0.23 8.32,-0.33 3.35,-12.85 6.78,-25.69 10.28,-38.47 15.52,-0.15 31.06,0.31 46.57,-0.15 3.47,-4.86 3.68,-11.69 5.52,-17.45 -2.71,0 -5.42,0 -8.09,0.03zm-28.81 66.36l0 0c-0.39,1.33 -1.18,4 -1.59,5.32 -12.09,0.27 -24.17,0.09 -36.24,0.09 -4.72,17.09 -9.25,34.23 -13.82,51.34 2.05,-0.02 6.17,-0.08 8.21,-0.1 3.81,-14.45 7.6,-28.91 11.66,-43.28 12.1,0.04 24.21,0.13 36.34,-0.02 1.42,-5.42 2.87,-10.82 4.32,-16.24 -2.79,0.82 -8.42,-1.47 -8.88,2.89zm-5.85 64.32l0 0c-0.91,3.21 -1.76,6.42 -2.61,9.63 -25.52,0.16 -51.03,0 -76.53,0.08 -0.66,2.59 -1.31,5.19 -1.95,7.8 28.15,0 56.27,-0.04 84.4,0.02 1.69,-5.81 3.29,-11.65 4.84,-17.48 -2.73,-0.03 -5.46,-0.05 -8.15,-0.05zm69.45 -138.07c17.55,-0.25 35.12,-0.08 52.67,-0.11 -11.74,43.44 -23.27,86.94 -35.02,130.38 13.76,-0.02 27.54,-0.02 41.31,-0.02 -2.96,11.01 -5.96,22 -8.82,33.03 -31.29,0.08 -62.56,0 -93.85,0.04 14.65,-54.43 29.37,-108.83 43.71,-163.32zm34.08 9.7l0 0c-10.99,40.17 -21.52,80.49 -32.47,120.68 1.99,0.08 5.96,0.24 7.95,0.33 11.4,-41.17 22.27,-82.47 33.25,-123.74 -2.68,0.89 -8.04,-1.34 -8.73,2.73zm6.75 128.44l0 0c-0.91,3.2 -1.8,6.45 -2.69,9.68 -23.12,-0.23 -46.21,0.15 -69.33,-0.21 -0.95,2.61 -1.88,5.24 -2.79,7.87 26.13,0.1 52.29,0.23 78.45,-0.06 1.47,-5.84 3,-11.68 4.53,-17.49 -2.75,0.06 -5.46,0.12 -8.17,0.21zm69.84 -138.27c17.51,0.02 35.04,0 52.55,0 -11.86,43.42 -23.18,86.98 -35.12,130.38 13.8,0 27.61,0.02 41.41,-0.02 -3.02,11.03 -5.94,22.08 -8.96,33.11 -31.23,-0.08 -62.44,0 -93.67,-0.04 14.57,-54.49 29.2,-108.96 43.79,-163.43zm34.48 7.45l0 0c-10.99,41.04 -21.98,82.1 -33.01,123.14 2.74,-0.04 5.49,-0.06 8.28,-0.11 10.74,-41.1 22.18,-82.03 32.76,-123.17 -2.01,0.04 -6.02,0.1 -8.03,0.14zm6.23 130.8l0 0c-0.91,3.2 -1.78,6.43 -2.65,9.66 -23.3,-0.02 -46.6,0 -69.88,-0.02 -0.67,2.59 -1.29,5.19 -1.91,7.8 25.95,0.02 51.9,-0.02 77.86,0.02 1.65,-5.88 3.18,-11.77 4.63,-17.71 -2.01,0.06 -6.04,0.18 -8.05,0.25zm55.53 90.72c26.42,-12.38 57.05,-14.07 85.38,-8.15 14.82,3.66 31.97,11.28 36.07,27.54 3.69,19.77 -4.67,38.89 -8.86,57.87 -19.07,0.04 -38.16,-0.09 -57.22,0.04 14.78,9.58 31.42,18.46 40.73,34.02 8.65,17.82 2.67,38.02 -1.96,56.06 -4.1,17.47 -11.99,35.51 -27.88,45.28 -22.54,13.97 -50.08,17.92 -76.16,16.12 -15.02,-1.07 -30.07,-5.32 -42.36,-14.28 0.25,3.38 0.5,6.75 0.75,10.16 -27.03,-2.02 -54.1,-3.62 -81.11,-5.77 -0.89,-14.55 -0.62,-29.14 -2.5,-43.6 -3.44,14.36 -7.53,28.56 -11.3,42.83 -26.9,-1.26 -53.77,-2.87 -80.65,-4.16 10.51,-38.94 21.05,-77.89 31.58,-116.84 2.42,-9.1 5.44,-18.06 6.87,-27.4 -19.29,47.89 -39.21,95.53 -58.85,143.27 -30.2,-0.91 -60.35,-2.32 -90.52,-3 1.47,-19.31 3.62,-38.57 4.71,-57.9 -8.48,19.14 -16.67,38.39 -25.31,57.45 -55.54,-1.51 -111.11,-1.51 -166.67,-1.47 1.47,-13.17 4.51,-26.12 5.77,-39.3 -4.01,0.02 -4.8,4.01 -6.1,6.81 -4.22,10.92 -8.55,21.81 -12.89,32.69 -58.43,0.56 -116.83,2.01 -175.21,4.29 6.54,-24.15 12.83,-48.39 19.48,-72.52 -1.76,0 -5.28,0.02 -7.04,0.04 -6.48,24.24 -12.87,48.49 -19.43,72.68 -33.44,1.68 -66.89,3.01 -100.31,5.14 20.12,-75.19 40.27,-150.37 60.43,-225.56 33.01,0 65.99,-0.04 99,0.04 -6.43,24.18 -12.97,48.35 -19.55,72.5 1.75,-0.02 5.25,-0.08 7.01,-0.1 6.5,-24.18 12.94,-48.37 19.6,-72.5 32.99,0.13 66,0.04 98.98,0.04 -13.72,51.76 -28.16,103.33 -41.32,155.24 22.26,-51.62 44.36,-103.29 66.78,-154.84 62.02,0.1 124.06,0.06 186.11,0.02 -1.89,14.86 -3.89,29.69 -5.82,44.55 6.69,-14.53 11.63,-29.78 17.72,-44.55 27.25,0.06 54.51,0.04 81.76,0.02 -2.01,15.62 -4.43,31.18 -6.46,46.83 7.1,-15.25 12.65,-31.17 19.11,-46.71 50.68,-0.25 101.4,-0.06 152.1,-0.08 -2.27,8.03 -4.63,16.06 -6.52,24.21 5.55,-7.86 10.37,-16.2 15.61,-24.25 27.15,0.02 54.3,-0.02 81.47,0.04 -1.69,2.38 -3.39,4.78 -5.02,7.2zm-11.68 20.92l0 0c-11.21,13.19 -14.84,30.69 -18.44,47.15 -2.44,12.08 -1.98,26.65 7.72,35.59 12.96,11.59 28.75,19.33 42.65,29.68 4.25,3.37 9.09,7.53 9.03,13.47 -0.15,9.37 -3.13,18.44 -5.73,27.36 -2.05,7.26 -8.88,13.39 -16.81,12.02 -4.51,0.52 -7.66,-4.12 -6.31,-8.21 1.88,-11.01 5.48,-21.65 8.09,-32.51 -19.1,0.04 -38.22,0 -57.32,0.04 -3.81,14.61 -8.78,29.49 -7.25,44.78 0.83,8.63 6.98,15.75 14.39,19.76 14.03,7.83 30.54,9.61 46.35,9.63 22.06,-1.02 45.59,-5.45 62.91,-20.1 12.38,-12.27 16.08,-30.21 20.35,-46.48 2.89,-13.78 6.17,-30.52 -3.77,-42.3 -13.39,-14.96 -32.1,-23.3 -48.59,-34.17 -5.67,-3.53 -7.86,-10.61 -5.77,-16.84 2.33,-9.4 2.83,-21.34 12.02,-26.88 4.3,-2.26 13.39,-2.63 13.14,4.22 -1.24,10.45 -4.82,20.44 -7.26,30.67 19.1,0.1 38.2,-0.09 57.3,0.1 3.44,-14.17 8.78,-28.35 7.72,-43.15 -0.48,-7.51 -5.86,-13.59 -12.29,-16.95 -17.82,-9.74 -38.91,-10.24 -58.69,-8.98 -19.33,1.78 -39.86,7.37 -53.44,22.1zm-796.6 186.69l0 0c27.19,-1.74 54.4,-3.02 81.64,-4.05 6.54,-24.3 13.08,-48.6 19.43,-72.93 7.95,-0.11 15.89,-0.07 23.86,-0.15 -6.33,24.05 -12.87,48.03 -19.18,72.08 27.09,-0.95 54.18,-2.05 81.27,-2.42 17.67,-66.1 35.78,-132.07 52.91,-198.28 -25.68,0.02 -51.36,-0.06 -77.04,0.02 -3.56,-1.01 -4.06,2.69 -4.76,5.07 -5.92,22.46 -12.15,44.83 -18.03,67.28 -7.97,0.09 -15.91,0 -23.86,0.4 6.33,-24.26 13.04,-48.43 19.52,-72.64 -26.87,-0.31 -53.75,-0.06 -80.59,-0.13 -18.48,68.54 -36.82,137.15 -55.17,205.75zm284.39 -204.71l0 0c-28.69,65.48 -56.56,131.31 -85.08,196.87 21.25,-0.35 42.51,-0.91 63.76,-0.77 5.34,-12.91 10.33,-25.95 15.44,-38.94 7.3,-0.05 14.61,-0.05 21.91,0.12 -2.25,12.73 -4.36,25.47 -6.2,38.28 20.96,-0.18 41.92,-0.33 62.87,0.11 5.71,-65.42 11.05,-130.86 16.49,-196.29 -29.7,0.53 -59.7,-0.73 -89.19,0.62zm109.16 -0.62l0 0c-5.61,65.54 -10.7,131.1 -16.06,196.66 22,0.02 44,0.25 66,0.89 15.41,-34.91 30.93,-69.78 45.92,-104.9 -2.22,35.34 -6.02,70.59 -8.61,105.94 24.56,0.49 49.11,1.07 73.63,2.46 27.61,-66.99 55.24,-133.96 82.78,-200.97 -20.03,0 -40.06,-0.06 -60.08,0.04 -15.41,38.45 -30.44,77.07 -46.42,115.27 5.9,-38.39 10.79,-76.94 16.27,-115.39 -21.46,0.23 -42.94,-0.11 -64.4,0.18 -14.28,37.69 -28.95,75.25 -43.48,112.83 4.26,-37.7 9.54,-75.31 14.36,-112.95 -19.97,-0.02 -39.94,0.08 -59.91,-0.06zm254.86 0.04l0 0c-18.26,67.57 -36.74,135.05 -54.68,202.7 20.28,0.71 40.54,1.95 60.8,3.11 8.88,-31.42 16.72,-63.1 26.1,-94.37 1.32,32.1 2.57,64.22 4.45,96.27 20.44,1.12 40.85,2.71 61.27,4.18 -3.14,-41.7 -6.6,-83.38 -9.66,-125.08 19.54,-28.89 38.93,-57.88 58.51,-86.77 -19.4,0.02 -38.81,-0.08 -58.2,0.06 -15.33,24.28 -30.61,48.61 -46.15,72.79 5.94,-24.42 12.89,-48.59 19.31,-72.87 -20.59,0.02 -41.18,0.02 -61.75,-0.02zm97.86 90.17l0 0c1.64,14.4 2.4,28.87 3.6,43.31 21.69,-0.08 43.4,0.08 65.11,-0.08 -12.71,-8.94 -26.74,-16.33 -37.89,-27.28 -12.69,-14.71 -9.11,-35.61 -5.96,-53.12 -8.38,12.33 -16.87,24.58 -24.86,37.17zm-1458.2 -100.25c39.16,0.1 78.35,-0.74 117.49,1.06 16.47,1.18 34.5,1.82 48.11,12.45 8.07,5.82 12.79,14.9 16.06,24.07 3.23,-12.37 6.52,-24.73 9.83,-37.06 53.77,0.02 107.53,0.04 161.3,-0.02 -2.09,17.53 -6.19,34.83 -6.96,52.5 5.96,-17.67 12.79,-35.04 19.31,-52.5 64.41,0.08 128.81,0 193.21,0.04 36.01,0.54 72.12,-1.43 108.05,1.76 13.35,0.87 27.15,6.6 34.35,18.4 8.13,12.85 5.73,29.01 2.26,42.96 -4.08,15.73 -10.14,32.96 -25.19,41.37 7.64,7.26 8.73,18.21 6,27.96 -7.32,31.8 -16.41,63.2 -24.81,94.76 -95.03,6.08 -189.85,15.02 -284.51,25.47 13.08,-48.67 26.14,-97.37 39.19,-146.06 3.85,-15.92 9.38,-31.46 12.11,-47.62 -28.25,66.02 -56.97,131.81 -85.47,197.7 -31.71,3.87 -63.37,7.94 -94.99,12.37 6.66,-79.65 13.49,-159.31 19.7,-238.98 -21.75,81.85 -43.6,163.67 -65.52,245.48 -58.54,8.78 -117.05,17.88 -175.22,28.79 12.54,-46.61 25.39,-93.17 37.75,-139.84 2.05,-4.41 -0.15,-8.03 -5.09,-7.8 -13.54,49.52 -26.76,99.15 -40.3,148.69 -34.85,6.54 -69.72,12.98 -104.49,19.95 29.33,-108.6 58.61,-217.25 87.83,-325.9zm-74.5 313.51l0 0c28.27,-5.55 56.56,-11.05 84.95,-16 13.75,-49.92 27.07,-99.94 40.63,-149.89 6.43,0.68 14.48,-0.35 19.16,5.07 1.86,6.97 -0.6,14.15 -2.01,21 -10.72,39.74 -21.44,79.47 -32.28,119.18 26.16,-4.63 52.32,-9.14 78.56,-13.3 9.27,-34.29 18.93,-68.5 27.65,-102.94 1.9,-9.44 5.89,-19.89 0.84,-29.03 -6,-10.89 -18.72,-14.74 -29.94,-17.68 13.82,-1.98 29.39,-4.12 39.2,-15.17 9.2,-10.96 13.45,-25.08 17.07,-38.7 2.94,-11.77 5.07,-24.19 2.59,-36.25 -3.13,-13.64 -15.61,-23.49 -28.96,-26.18 -17.88,-3.6 -36.23,-3.02 -54.36,-3.95 -27.03,-0.36 -54.08,-0.07 -81.13,-0.19 -27.4,101.32 -54.63,202.68 -81.97,304.03zm273.26 -303.29l0 0c-23.64,89.14 -47.46,178.21 -71.32,267.28 21.44,-3.62 42.99,-6.67 64.47,-10.02 22.91,-85.78 45.88,-171.54 68.64,-257.34 -20.59,0 -41.18,-0.14 -61.79,0.08zm77.75 -0.12l0 0c-6.75,82.72 -13.58,165.41 -20.57,248.11 25.93,-3.02 51.75,-6.89 77.69,-9.77 34.58,-79.38 68.74,-158.93 103.35,-238.3 -21.73,-0.1 -43.46,0.06 -65.17,-0.08 -16.7,44.04 -32.82,88.28 -49.75,132.22 6.54,-44.04 12.99,-88.12 19.66,-132.16 -21.73,-0.02 -43.46,0.02 -65.21,-0.02zm173.25 -0.06l0 0c-20.92,77.33 -41.51,154.75 -62.35,232.11 36.59,-4.37 73.28,-7.9 109.97,-11.4 3.79,-13.85 7.54,-27.71 11.3,-41.56 -15.52,1.62 -31.06,2.94 -46.58,4.43 6.5,-23.94 12.93,-47.91 19.41,-71.85 10.08,0.1 20.16,0 30.24,0.12 3.68,-12.19 6.51,-24.58 10.16,-36.77 -10.21,-0.21 -20.41,-0.08 -30.61,-0.08 3.46,-12.13 6.31,-24.4 10.06,-36.45 15.37,0.27 30.75,0.08 46.13,0.13 3.45,-12.9 6.97,-25.77 10.32,-38.7 -36.01,0.16 -72.04,0.12 -108.05,0.02zm61.18 219.53l0 0c21.02,-2.05 42.07,-3.71 63.12,-5.4 9.85,-36.14 19.55,-72.31 29.24,-108.49 4.82,0.79 11.69,-0.55 14.71,4.23 0.93,6.18 -0.8,12.39 -2.29,18.37 -7.58,28.09 -14.9,56.21 -22.5,84.27 19.52,-1.36 39.03,-2.63 58.55,-4.14 7.2,-27.38 14.5,-54.73 21.83,-82.07 1.78,-7.04 3.56,-15.15 -0.77,-21.65 -4.4,-8.07 -13.99,-10.14 -22.14,-12.31 10.91,-1.99 23.55,-3.46 30.9,-12.85 7.63,-10.23 10.97,-22.91 13.68,-35.18 1.84,-10.5 2.87,-22.93 -4.83,-31.48 -6.93,-8.42 -18.27,-10.7 -28.57,-11.4 -30.57,-2.2 -61.22,-0.92 -91.83,-1.52 -19.91,73.16 -39.48,146.4 -59.1,219.62zm-2.55 -171.09l0 0c-1.47,5.61 -3,11.22 -4.59,16.83 10.18,0.1 20.38,0.02 30.59,0.06 -5.14,18.63 -10.04,37.31 -15.07,55.98 -10.08,-0.04 -20.16,0.08 -30.24,-0.14 -5.07,17.11 -9.23,34.45 -14.19,51.59 13.22,-1.43 26.49,-2.32 39.71,-3.89 10.74,-40.17 21.5,-80.36 32.41,-120.49 -12.87,0.02 -25.75,-0.06 -38.62,0.06zm-364.99 74.2l0 0c3.5,4.09 6.6,8.5 9.44,13.09 1.96,-8.05 4.09,-16.03 6.47,-23.98 -4.78,4.35 -10.05,8.11 -15.91,10.89zm-70.53 -34.5l0 0c8.55,-0.11 9.46,-9.48 11.44,-15.71 1.29,-5.98 4.16,-11.88 3.67,-18.05 -1.41,-0.51 -4.22,-1.55 -5.65,-2.07 -3.07,11.97 -6.52,23.82 -9.46,35.83z"/>
   <path class="fil2" d="M647.21 1282.11c12.58,-1.72 25.33,-2.26 37.96,-3.81 -0.73,2.82 -1.43,5.65 -2.14,8.49 -12.99,1.51 -26.03,2.65 -39.07,3.76 0.71,-3.02 1.78,-5.83 3.25,-8.44zm852.79 -826.68c0.58,-9.85 1.02,-20.09 5.76,-29.01 25.14,10.57 50,21.91 73.9,35.1 -4.12,6.5 -7,13.68 -7.84,21.35 -23.35,-10.61 -47.27,-19.99 -71.82,-27.44zm137.69 43.46c7.41,5.71 14.67,11.63 21.6,17.92 -3.7,2.59 -7.41,5.16 -11.13,7.7 -6.91,-4.41 -13.89,-8.73 -20.9,-12.93 3.66,-4.08 7.16,-8.28 10.43,-12.69zm-325.37 29.89c7.91,-7.7 17.76,-13.66 28.83,-15.3 12.11,-2.42 24.42,0.33 35.97,3.98 -2.09,9.87 -4.91,19.59 -6.38,29.61 -15.74,-14.26 -37.85,-18.27 -58.42,-18.29zm80.84 -1.74c32.38,31.47 75.1,50.12 118.54,60.53 -0.29,5.9 -0.69,11.8 -1.26,17.67 -26.97,-2.36 -54.06,-4.96 -80.43,-11.36 -17.19,-4.07 -36.09,-11.15 -43.45,-28.74 1.53,-12.81 3.29,-25.62 6.6,-38.1zm135.94 64.85c40.79,8.41 82.02,14.41 122.97,21.98 3.54,0.64 7.37,1.18 10.18,3.71 -44.37,-4.47 -88.88,-7.49 -133.33,-10.83 0.06,4.7 0.12,9.42 0.41,14.12 -1.2,-9.63 -0.81,-19.33 -0.23,-28.98zm-1388.27 209.85c2.07,-0.04 6.17,-0.1 8.22,-0.15 -11.99,44.93 -24.07,89.86 -36.1,134.79 -4.05,15.58 -9.1,31 -10.61,47.14 -7.1,-7.49 -4.8,-18.5 -2.75,-27.52 13.65,-51.45 27.58,-102.81 41.24,-154.26zm55.34 137.31c12.42,-45.84 24.44,-91.78 37,-137.56 2.01,0.04 6,0.17 8.01,0.21 -13.31,49.27 -26.37,98.61 -39.71,147.86 -4.35,14.55 -7.97,30.38 -19.23,41.37 -15.89,15.52 -38.47,21.86 -60.1,23.72 -19.06,1.1 -39.15,0.41 -56.54,-8.28 -6.37,-3.04 -11.56,-7.97 -15.68,-13.62 20.36,14.37 46.48,15.96 70.53,13.64 20.13,-2.48 40.93,-8.9 55.73,-23.43 12,-11.58 15.35,-28.57 19.99,-43.91zm756.21 -137.29c2.75,-0.04 5.52,-0.06 8.3,-0.06 -15.79,58.44 -31.27,116.99 -47.1,175.43 -2.03,0 -6.09,-0.04 -8.1,-0.06 15.63,-58.45 31.46,-116.83 46.9,-175.31zm-648.87 65.46c1.64,-0.21 4.93,-0.64 6.58,-0.85 -1.09,22.97 -3.89,45.84 -5.36,68.79 -0.18,9.81 -4.82,18.65 -9.21,27.17 2.51,-31.72 5.55,-63.39 7.99,-95.11zm90.56 -0.17c2.78,-0.18 5.55,-0.37 8.34,-0.53 -13.08,49.48 -26.59,98.83 -39.61,148.32 -10.2,0.29 -20.4,0.2 -30.61,0.1 0.94,-2.65 1.87,-5.28 2.82,-7.89 7.24,0.19 14.47,0.21 21.71,0.07 12.25,-46.75 25.08,-93.34 37.35,-140.07zm122.27 -0.08c1.65,-0.1 4.99,-0.35 6.64,-0.45 -3.95,49.5 -8.38,98.98 -12.5,148.48 -12.56,0 -25.14,0 -37.7,0 0.45,-2.59 0.88,-5.19 1.34,-7.76 10.08,-0.08 20.16,-0.04 30.26,-0.02 4.11,-46.73 7.9,-93.5 11.96,-140.25zm677.73 0.1c1.89,-0.14 5.63,-0.45 7.49,-0.6 -5.42,33.01 -11.29,65.96 -16.82,98.95 -2.73,11.98 -8.46,23.01 -12.67,34.52 6.15,-44.44 15.01,-88.52 22,-132.87zm79.95 -0.1c2.36,-0.14 4.76,-0.27 7.16,-0.41 -3.58,24.33 -8.13,48.53 -12.13,72.8 -1.82,9.62 -2.5,19.58 -6.17,28.77 -3.68,9.21 -6.99,18.56 -10.2,27.96 0.15,-9.98 2.61,-19.68 4.2,-29.5 5.67,-33.21 11.53,-66.38 17.14,-99.62zm70.77 3.42c0.93,-5.16 6.9,-3.44 10.58,-3.96 -19.62,49.75 -40.48,99.03 -60.64,148.57 -17.55,0 -35.08,0.02 -52.62,0 0.57,-2.48 -0.48,-5.77 1.47,-7.64 15.06,-0.53 30.15,0.11 45.23,-0.24 18.55,-45.64 37.34,-91.14 55.98,-136.73zm120.51 -3.56c2.67,-0.03 5.38,-0.03 8.09,-0.03 -1.84,5.76 -2.05,12.59 -5.52,17.45 -15.51,0.46 -31.05,0 -46.57,0.15 -3.5,12.78 -6.93,25.62 -10.28,38.47 -2.8,0.1 -5.57,0.2 -8.32,0.33 4.24,-15.52 8.23,-31.09 12.56,-46.57 15.81,0.03 31.62,0 47.43,0.03 0.87,-3.29 1.72,-6.56 2.61,-9.83zm68.87 2.31c0.69,-4.07 6.05,-1.84 8.73,-2.73 -10.98,41.27 -21.85,82.57 -33.25,123.74 -1.99,-0.09 -5.96,-0.25 -7.95,-0.33 10.95,-40.19 21.48,-80.51 32.47,-120.68zm111.07 -2.38c2.01,-0.04 6.02,-0.1 8.03,-0.14 -10.58,41.14 -22.02,82.07 -32.76,123.17 -2.79,0.05 -5.54,0.07 -8.28,0.11 11.03,-41.04 22.02,-82.1 33.01,-123.14zm-588.75 21.05c2.09,-8.15 6.23,-17.63 15.59,-19.16 7.22,-2.15 14.28,1.71 17.79,8.03 -5.58,-0.31 -11.71,-1.53 -16.76,1.63 -6.48,3.56 -8.65,11.18 -10.68,17.76 -7.43,27.31 -14.63,54.69 -22.04,82.01 -1.76,6.17 -2.52,12.54 -3.2,18.92 -2.49,-2.98 -6.07,-5.86 -5.47,-10.19 0.19,-9.7 3.42,-18.97 5.78,-28.29 6.37,-23.57 12.56,-47.16 18.99,-70.71zm-702.96 -17.03c-2.38,12.13 -6.27,23.9 -9.27,35.9 -2.3,8.49 -4.12,17.18 -7.78,25.23 -12.38,27.67 -24.52,55.42 -36.86,83.09 -6.5,0.02 -12.97,0.02 -19.47,0.02 0.33,-2.63 0.66,-5.23 0.99,-7.82 4.14,-0.02 8.28,-0.02 12.44,-0.04 20.03,-45.43 39.9,-90.96 59.95,-136.38zm246.79 8.57c6.1,-9.85 21.33,-10.97 29.18,-2.63 -6.29,-0.48 -13.37,-1.62 -18.71,2.63 -9.79,7.2 -11.16,20.48 -10.91,31.7 -8.98,-8.51 -5.25,-22.43 0.44,-31.7zm63.3 -8.9c9.85,7.57 4.18,20.75 2.16,30.73 -11.16,-0.1 -22.29,0.12 -33.45,-0.19 0.87,-2.61 1.76,-5.19 2.65,-7.78 8.24,0.19 16.5,0.17 24.73,0.15 2.07,-7.49 3.13,-15.19 3.91,-22.91zm71.48 8.77c6.19,-9.7 21.3,-10.8 29.14,-2.52 -6.35,-0.5 -13.45,-1.53 -18.83,2.75 -9.69,7.22 -10.91,20.4 -10.95,31.56 -8.81,-8.67 -4.99,-22.48 0.64,-31.79zm63.25 -8.79c9.85,7.57 4.26,20.77 2.15,30.75 -11.16,-0.15 -22.29,0.23 -33.42,-0.29 0.82,-2.55 1.65,-5.07 2.48,-7.6 8.32,0.07 16.64,0.07 24.96,0.05 2.01,-7.52 3.06,-15.19 3.83,-22.91zm-357.57 94.03c12.93,-30.71 26.16,-61.32 39.28,-91.96 -0.97,11.17 -1.8,22.66 -6.31,33.07 -8.24,19.59 -16.02,39.38 -24.3,58.96 -2.89,-0.02 -5.79,-0.05 -8.67,-0.07zm683.59 -92.27c6.27,6.2 8.12,15.19 5.98,23.63 -4.76,22.85 -11.63,45.2 -17.53,67.77 -4.2,13.27 -6.8,28.31 -17.79,37.94 -15.54,14.03 -37.67,17.88 -57.95,16.84 -12.75,-0.76 -27.38,-4.16 -34.19,-16.12 17.04,10.02 37.96,10.06 56.77,6 16.8,-3.66 33.92,-13.59 40.09,-30.5 7.49,-20.61 12.23,-42.07 18.13,-63.16 3.43,-13.87 8.79,-27.88 6.49,-42.4zm-883.25 134.99c11.19,-41.33 22.18,-82.74 33.4,-124.07 -0.83,15.09 -2.17,30.2 -4.12,45.18 -7.41,28.97 -15.56,57.76 -23.18,86.67 -10.01,0.08 -20.05,0.02 -30.07,0.08 0.67,-2.65 1.33,-5.27 1.99,-7.9 7.33,0.08 14.65,0.08 21.98,0.04zm952.35 -0.06c16.62,-38.25 33.63,-76.33 50.29,-114.57 -0.81,11.59 -0.1,23.88 -5.42,34.56 -13.12,29.22 -25.89,58.63 -38.95,87.89 -17.22,0 -34.41,0.02 -51.61,-0.02 0.21,-1.92 0.66,-5.81 0.87,-7.74 14.94,-0.12 29.88,0.08 44.82,-0.12zm-630.59 -88.81c12.65,13.7 30.98,20 44.18,33.01 3.36,3.09 5.08,7.37 6.63,11.55 -13.35,-11.82 -29.35,-19.91 -43.4,-30.71 -4.66,-3.17 -6.11,-8.73 -7.41,-13.85zm134.91 -0.18c12.83,14.8 32.84,20.59 45.86,35.18 2.32,2.69 3.37,6.17 4.66,9.44 -13.08,-11.51 -28.6,-19.58 -42.49,-29.93 -5.07,-3.25 -7.04,-9.06 -8.03,-14.69zm738.7 15.06c0.46,-4.36 6.09,-2.07 8.88,-2.89 -1.45,5.42 -2.9,10.82 -4.32,16.24 -12.13,0.15 -24.24,0.06 -36.34,0.02 -4.06,14.37 -7.85,28.83 -11.66,43.28 -2.04,0.02 -6.16,0.08 -8.21,0.1 4.57,-17.11 9.1,-34.25 13.82,-51.34 12.07,0 24.15,0.18 36.24,-0.09 0.41,-1.32 1.2,-3.99 1.59,-5.32zm-790.21 10.85c6.13,6.87 7.29,16.39 5.13,25.1 -3.04,14.12 -6.45,30.88 -20.03,38.68 -18.36,10.12 -40.31,12.58 -60.84,9.46 -10,-1.74 -21.55,-4.91 -26.28,-14.9 17.98,9.89 39.63,9.95 59.26,5.87 12.61,-3.2 26.83,-7.9 33.35,-20.15 6.8,-13.56 9.85,-28.93 9.41,-44.06zm134.58 -0.13c6.73,7.14 7.35,17.39 5.07,26.54 -3.02,13.8 -6.66,30 -20.01,37.51 -18.23,9.92 -39.94,12.42 -60.29,9.36 -10.22,-1.66 -21.73,-4.97 -26.78,-14.98 18.28,9.97 40.24,10.05 60.12,5.75 12.81,-3.21 27.13,-8.4 33.24,-21.13 6.27,-13.37 9.46,-28.27 8.65,-43.05zm-207.42 27.67c2.85,-0.04 5.71,-0.08 8.56,-0.1 -2.52,8.36 -4.51,16.89 -5.32,25.6 -7.84,-6.38 -4.86,-17.03 -3.24,-25.5zm138.38 25.46c-8.48,-6.04 -5.71,-17.53 -2.94,-25.89 1.97,0.12 5.92,0.35 7.91,0.45 -2.61,8.28 -4.68,16.72 -4.97,25.44zm-272.7 -19.08c11.18,-0.15 22.36,-0.11 33.51,-0.04 -0.56,2.64 -1.1,5.31 -1.66,7.98 -8.36,0.13 -16.76,-0.49 -25.1,0.13 -5.17,8.94 -7.37,19.53 -11.63,29.01 -12.46,-0.06 -24.92,0 -37.35,-0.06 0.95,-2.4 1.84,-4.8 3,-7.1 9.31,-1.67 18.93,-0.18 28.39,-0.74 3.6,-9.73 7.31,-19.44 10.84,-29.18zm521.64 9c0.48,-4.43 6.04,-2.03 8.84,-2.88 -2.74,10.33 -5.49,20.66 -8.32,30.94 -38.58,-0.16 -77.15,0.25 -115.73,-0.21 0.91,-2.58 1.82,-5.15 2.75,-7.69 35.66,0.2 71.32,0.02 106.98,0.08 1.9,-6.73 3.35,-13.58 5.48,-20.24zm469.88 10.55c2.69,0 5.42,0.02 8.15,0.05 -1.55,5.83 -3.15,11.67 -4.84,17.48 -28.13,-0.06 -56.25,-0.02 -84.4,-0.02 0.64,-2.61 1.29,-5.21 1.95,-7.8 25.5,-0.08 51.01,0.08 76.53,-0.08 0.85,-3.21 1.7,-6.42 2.61,-9.63zm110.28 0.07c2.71,-0.09 5.42,-0.15 8.17,-0.21 -1.53,5.81 -3.06,11.65 -4.53,17.49 -26.16,0.29 -52.32,0.16 -78.45,0.06 0.91,-2.63 1.84,-5.26 2.79,-7.87 23.12,0.36 46.21,-0.02 69.33,0.21 0.89,-3.23 1.78,-6.48 2.69,-9.68zm110.55 -0.02c2.01,-0.07 6.04,-0.19 8.05,-0.25 -1.45,5.94 -2.98,11.83 -4.63,17.71 -25.96,-0.04 -51.91,0 -77.86,-0.02 0.62,-2.61 1.24,-5.21 1.91,-7.8 23.28,0.02 46.58,0 69.88,0.02 0.87,-3.23 1.74,-6.46 2.65,-9.66zm59.27 108.66c21.46,-12.48 47.68,-14.09 71.75,-10.37 11.11,2.24 24.38,5.24 29.92,16.37 -18.66,-10.34 -40.74,-11.31 -61.52,-9.16 -13.02,1.43 -26.45,4.18 -37.38,11.79 -8.07,5.57 -12.72,14.61 -15.77,23.68 -5.33,16.39 -10.28,33.67 -7.3,51.05 -9.21,-10.49 -8.09,-25.25 -4.62,-37.81 3.77,-16.93 9.07,-35.99 24.92,-45.55zm-1587.96 277.73c26.1,-95.38 51.16,-191.06 77.53,-286.36 40.21,0.98 80.58,-1.53 120.67,2.74 10.95,1.01 22.27,5.62 28.1,15.45 -7.41,-3.93 -15.25,-7.28 -23.71,-7.8 -39.63,-3.83 -79.53,-2.07 -119.29,-2.5 -24.75,91.47 -49.21,183.02 -74.07,274.45 -0.62,4.47 -6.04,3.05 -9.23,4.02zm268.62 -285.69c15.42,-0.23 30.84,-0.09 46.26,-0.09 -0.79,2.59 -1.56,5.18 -2.32,7.78 -12.5,-0.1 -25.02,0.07 -37.52,-0.14 -21.94,80.38 -43.13,160.98 -64.63,241.51 -2.84,0.37 -5.67,0.74 -8.51,1.14 22.27,-83.4 44.62,-166.76 66.72,-250.2zm79.02 -0.05c16.39,-0.14 32.8,-0.08 49.19,-0.02 -0.42,2.59 -0.83,5.18 -1.24,7.79 -13.93,-0.15 -27.86,0.02 -41.77,-0.15 -6.47,74.32 -12.62,148.67 -18.48,223.05 -2.23,0.45 -4.47,0.93 -6.68,1.41 5.73,-77.4 12.64,-154.72 18.98,-232.08zm87.49 15.61c1.91,-5.4 4,-10.76 6.52,-15.92 15.9,0.52 31.79,0.11 47.71,0.25 -1.12,2.59 -2.22,5.16 -3.32,7.76 -12.95,0.02 -25.89,0 -38.82,-0.02 -17.14,44.93 -33.92,89.96 -50.93,134.93 -5.07,12.73 -9.11,25.87 -14.9,38.29 2.07,-13.43 3.23,-27.11 6.66,-40.29 15.61,-41.68 31.42,-83.32 47.08,-125zm82.89 -10.27c0.74,-2.44 1.28,-6.37 4.94,-5.38 29.64,-0.02 59.27,-0.08 88.93,0.04 -0.62,2.53 -1.22,5.05 -1.82,7.6 -28.11,0.23 -56.23,0.08 -84.33,0.06 -18.79,68.98 -37.13,138.08 -55.65,207.14 -2.84,0.12 -5.65,0.24 -8.47,0.39 19.1,-69.87 37.67,-139.88 56.4,-209.85zm121.66 -5.32c30.3,0.09 60.68,-1.05 90.87,1.91 8.69,0.58 16.99,4.97 21.44,12.62 -11.96,-5.87 -25.51,-5.83 -38.55,-6.39 -22.6,-0.56 -45.2,-0.62 -67.8,-0.31 -17.28,64.98 -34.72,129.9 -52.38,194.78 -2.69,0.14 -5.38,0.31 -8.07,0.49 18.01,-67.73 36.4,-135.38 54.49,-203.1zm145.61 191.83c17.36,-64.1 34.23,-128.29 51.72,-192.34 21.6,0.18 43.23,-0.06 64.83,0.14 -0.72,2.57 -1.44,5.18 -2.15,7.76 -18.91,0.17 -37.83,0.07 -56.74,0.05 -16.5,61.19 -32.89,122.38 -49.22,183.62 -2.81,0.23 -5.62,0.5 -8.44,0.77zm155.94 -192.2c21.71,-0.16 43.41,-0.04 65.12,-0.06 -0.83,2.65 -1.65,5.32 -2.44,7.99 -18.81,-0.21 -37.6,0 -56.41,-0.12 -6.79,23.94 -13.21,48.01 -19.48,72.12 -13.39,0.43 -26.78,0.08 -40.17,0.22 0.44,-1.9 1.29,-5.73 1.72,-7.63 10.68,-0.25 21.38,-0.11 32.1,-0.11 6.68,-24.08 13.08,-48.28 19.56,-72.41zm124.17 0.33c25.37,0.13 50.76,-0.45 76.11,0.29 -0.33,2.49 -0.68,4.97 -0.99,7.47 -22.27,-0.02 -44.56,-0.14 -66.83,0.03 -2.87,-0.44 -3.31,3.16 -4.45,4.94 -24.54,56.77 -48.71,113.72 -73.73,170.26 -3.02,-0.02 -6.05,-0.04 -9.05,-0.02 26.16,-61.07 52.63,-121.98 78.94,-182.97zm95.83 181.35c5.01,-60.49 9.89,-120.98 15.3,-181.45 14.67,0.12 29.32,0 44.01,0.08 -0.31,2.59 -0.6,5.2 -0.87,7.81 -12.41,-0.11 -24.81,-0.07 -37.22,-0.07 -4.39,51.33 -8.65,102.67 -12.94,154.01 -0.7,6.38 -0.43,12.98 -2.27,19.17 -1.52,0.12 -4.52,0.35 -6.01,0.45zm51.1 -48.65c17.32,-44.16 34.35,-88.47 51.59,-132.68 16.78,-0.12 33.55,-0.06 50.33,-0.04 -0.25,1.91 -0.76,5.74 -1.01,7.64 -14.49,0.35 -28.96,-0.23 -43.42,0.31 -21.09,53.19 -41.97,106.48 -63.53,159.45 0.86,-11.67 1.26,-23.79 6.04,-34.68zm93.21 -1.64c17.88,-43.66 34.74,-87.76 53.02,-131.26 14.42,0.33 28.87,0.06 43.33,0.16 -1.09,2.59 -2.17,5.18 -3.2,7.76 -11.49,0.02 -22.96,-0.02 -34.42,0 -21.83,52.88 -42.8,106.17 -64.98,158.9 -0.15,-12.03 1.28,-24.48 6.25,-35.56zm124.42 -130.83c15.41,-0.6 30.87,-0.14 46.31,-0.25 -0.89,2.65 -1.76,5.3 -2.61,7.97 -12.46,-0.43 -24.91,-0.14 -37.37,-0.25 -16.25,59.46 -32.14,119.04 -48.24,178.56 -2.69,-0.11 -5.38,-0.19 -8.03,-0.27 16.51,-61.94 33.5,-123.78 49.94,-185.76zm87.1 -0.1c13.25,-0.35 26.51,-0.13 39.76,-0.15 -1.72,2.55 -3.44,5.12 -5.14,7.7 -9.41,0.06 -18.81,0.06 -28.23,0 -16.59,26.16 -32.74,52.61 -49.35,78.77 -1.78,2.69 -3.36,5.71 -2.84,9.06 1.35,31.75 3.06,63.49 4.45,95.22 -2.63,-0.17 -5.23,-0.33 -7.82,-0.46 -1.51,-32.26 -2.98,-64.52 -4.64,-96.79 -0.04,-3.45 -0.82,-7.3 1.35,-10.3 17.46,-27.69 35.14,-55.28 52.46,-83.05zm-404.69 19.99c-4.01,37.19 -10.86,74.07 -15.93,111.15 -12.96,0.11 -25.89,0.02 -38.83,0.06 0.94,-2.63 1.87,-5.23 2.82,-7.82 9.99,0.02 19.99,0.08 29.99,-0.04 4.24,-25.93 8.75,-51.8 12.97,-77.71 1.35,-9.06 5.34,-17.36 8.98,-25.64zm534.65 3.15c8.78,6.8 5.43,18.83 2.71,27.83 -1.96,-0.08 -5.91,-0.25 -7.9,-0.33 2.67,-8.96 4.8,-18.11 5.19,-27.5zm-936.75 4.88c4.66,4.65 7.08,11.3 5.2,17.84 -2.63,11.07 -4.47,23.9 -14.08,31.35 -8.54,6.81 -20.09,6.25 -30.38,6.25 0.64,-2.65 1.33,-5.28 1.99,-7.91 9.69,-0.16 22.06,-0.06 27.46,-9.78 6.04,-11.59 9.07,-24.75 9.81,-37.75zm-541.81 10.74c7.64,6.77 6.79,17.61 4.14,26.49 -3.23,11.55 -5.28,24.77 -15.05,32.9 -9.95,8.39 -23.71,8.14 -35.98,8.01 0.43,-2.54 0.86,-5.09 1.32,-7.61 10.02,-1.02 21.67,0.08 29.74,-7.06 8.24,-8.55 10.12,-20.84 13.35,-31.81 2.19,-6.76 2.6,-13.86 2.48,-20.92zm1105.66 34c0.31,-8.61 4.76,-16.18 8.32,-23.78 -2.77,44.48 -7.16,88.87 -10.82,133.28 -1.61,0.02 -4.82,0.04 -6.44,0.06 2.65,-36.55 6.17,-73.03 8.94,-109.56zm330.44 -14.65c3.21,6.46 6.6,13.2 12.91,17.22 14.24,9.76 30.75,16.82 42.34,30.07 4.56,4.98 6.44,11.71 6.17,18.41 -3.66,-5.79 -6.81,-12.1 -12.07,-16.63 -12.89,-11.18 -29.61,-16.85 -42.48,-28 -6.11,-5.2 -7.76,-13.46 -6.87,-21.07zm-1053.99 24.11c1.63,-2.4 1.2,-8.3 5.55,-7.58 6.58,-0.29 13.18,0 19.78,-0.02 -0.68,2.59 -1.34,5.2 -2.01,7.81 -7.78,0.04 -15.56,0.08 -23.32,-0.21zm166.68 10.51c6.16,1.86 12.14,4.91 14.96,11.05 -5.03,-1.51 -10.04,-3.06 -15.07,-4.45 0.02,-1.65 0.09,-4.94 0.11,-6.6zm-26.91 7.49c11.26,10.39 2.96,26.27 0.46,38.68 -5.15,19.02 -10.02,38.1 -15.3,57.08 -2.75,0.16 -5.48,0.31 -8.19,0.5 6.85,-25.6 13.66,-51.22 20.47,-76.83 1.76,-6.33 2.17,-12.91 2.56,-19.43zm218.35 20.2c2.76,-0.17 5.53,-0.33 8.3,-0.47 -5.85,21.97 -11.59,43.97 -17.69,65.89 -2.65,0.04 -5.28,0.1 -7.91,0.18 5.49,-21.93 11.69,-43.68 17.3,-65.6zm-730.05 0.23c8.47,2.21 17.84,5.15 22.02,13.66 -6.99,-3.15 -14.4,-5.18 -21.69,-7.49 -0.08,-1.54 -0.25,-4.62 -0.33,-6.17zm1441.89 9.95c5.61,6.13 7.87,14.51 6.27,22.68 -2.44,13.83 -5.96,30.22 -19.32,37.61 -8.05,4.36 -21.55,5.15 -25.13,-5.34 11.03,3.99 24.71,0.6 30.05,-10.49 6.13,-13.83 9.75,-29.27 8.13,-44.46zm-1477.57 2.69c8.84,8.39 4.91,21.63 2.76,32 -8.92,32.96 -17.66,65.99 -26.91,98.88 -2.77,0.37 -5.54,0.76 -8.32,1.18 9.65,-35.62 19.33,-71.23 28.91,-106.85 2.34,-8.22 3.05,-16.74 3.56,-25.21zm1398.25 12.3c13.87,0 27.73,-0.07 41.6,0.04 -0.71,2.54 -1.37,5.11 -2.03,7.68 -11.15,-0.09 -22.31,-0.11 -33.44,-0.03 -3.75,13.04 -6.56,26.45 -5.65,40.09 -2.67,-3.23 -5.67,-6.6 -6,-10.97 -1.43,-12.54 2.46,-24.81 5.52,-36.81zm-457.25 4.38c1.76,-0.12 5.28,-0.35 7.03,-0.47 -1.05,10.57 -3.1,21.02 -4.61,31.54 -1.82,0.02 -5.48,0.08 -7.31,0.1 1.68,-10.39 3.25,-20.78 4.89,-31.17z"/>
   <path class="fil3" d="M177.94 1068.83c37.99,0.14 75.99,-0.5 113.96,0.62 17.26,1.14 35.08,0.72 51.55,6.72 7.79,2.72 14.49,7.62 20.84,12.75 1.62,-6.27 2.86,-12.66 5.07,-18.77 3.63,-1.47 7.79,-0.56 11.61,-0.81 146.94,0.19 293.89,-0.1 440.82,0.17 21.57,1.39 45.76,-0.93 64.05,12.87 15.4,11.09 20.86,31.44 18.07,49.57 -3.04,20.32 -9.04,41.57 -23.76,56.66 5.86,12.23 2.55,25.95 -0.62,38.41 -8.15,30.75 -16.16,61.55 -24.73,92.17 -103.25,6.58 -206.24,16.41 -309.05,27.8 4.73,-19.48 11.34,-38.52 14.9,-58.24 -8.01,20.06 -16.97,39.71 -25.42,59.6 -38.57,5.07 -77.19,9.96 -115.74,15.13 3.1,-40.87 7.26,-81.7 9.81,-122.62 -11.32,41.99 -22.4,84.07 -33.7,126.08 -104.61,15.64 -208.85,33.75 -312.59,54.4 31.54,-117.52 63.33,-234.99 94.93,-352.51zm152.25 144.37c5.86,-2.78 11.13,-6.54 15.91,-10.89 -2.38,7.95 -4.51,15.93 -6.47,23.98 -2.84,-4.59 -5.94,-9 -9.44,-13.09zm1314.8 -32.43c7.99,-12.59 16.48,-24.84 24.86,-37.17 -3.15,17.51 -6.73,38.41 5.96,53.12 11.15,10.95 25.18,18.34 37.89,27.28 -21.71,0.16 -43.42,0 -65.11,0.08 -1.2,-14.44 -1.96,-28.91 -3.6,-43.31zm-1385.33 -2.07c2.94,-12.01 6.39,-23.86 9.46,-35.83 1.43,0.52 4.24,1.56 5.65,2.07 0.49,6.17 -2.38,12.07 -3.67,18.05 -1.98,6.23 -2.89,15.6 -11.44,15.71zm435.52 -39.7c12.87,-0.12 25.75,-0.04 38.62,-0.06 -10.91,40.13 -21.67,80.32 -32.41,120.49 -13.22,1.57 -26.49,2.46 -39.71,3.89 4.96,-17.14 9.12,-34.48 14.19,-51.59 10.08,0.22 20.16,0.1 30.24,0.14 5.03,-18.67 9.93,-37.35 15.07,-55.98 -10.21,-0.04 -20.41,0.04 -30.59,-0.06 1.59,-5.61 3.12,-11.22 4.59,-16.83zm735.46 -225.24c1.11,-4.22 2.27,-8.42 3.43,-12.62 15.19,0.02 30.38,-0.02 45.59,0.02 -7.16,26.47 -14.3,52.94 -21.27,79.47 -15.21,0.33 -30.44,-0.6 -45.68,0.33 1.49,-5.9 3.09,-11.8 4.7,-17.65 12.11,0.02 24.22,-0.03 36.32,0.04 4.51,-16.52 8.88,-33.05 13.33,-49.59 -12.15,-0.02 -24.3,0.02 -36.42,0zm359.42 -337.63c3.83,-1.87 7.62,-3.83 11.36,-5.88 10.97,18.15 31.05,27.81 50.46,34.29 -10.62,4.8 -22.04,10.7 -33.96,9.11 -8.78,-4.39 -7.43,-16.08 -11.09,-23.84 -1.99,-3.98 -7.1,-1.54 -10.52,-2.24 -2.09,-3.83 -3.87,-7.8 -6.25,-11.44zm19.85 -11.26c7.02,-4.83 13.8,-9.98 20.36,-15.44 10.91,6.81 22.15,13.55 31.07,22.97 3.16,3.58 6.78,8.82 4.22,13.7 -4.64,6.77 -14.26,9.02 -21.67,5.77 -13.66,-5.52 -24.09,-16.49 -33.98,-27zm-700.46 -333.93c110.02,-5.49 220.88,-2.16 329.59,16.47 80.52,14.07 160.53,36.71 232.5,76.26 60.89,33.32 115.32,80.87 149.71,141.76 6.87,10.86 8.49,24.69 4.1,36.81 -7.39,20.89 -23.86,36.78 -40.34,50.81 -23.69,19.47 -50.1,35.37 -77.33,49.3 -3.15,2 -6.91,1.09 -10.33,0.57 -31.91,-5.71 -63.97,-10.76 -95.88,-16.53 27.24,-14.8 55.65,-30.3 74.98,-55.21 21.15,-1.08 45.03,-6.05 58.67,-23.76 11.88,-15.96 8.19,-37.54 1.16,-54.7 0.43,8.67 -0.85,18.61 -8.96,23.53 -7.16,-16.35 -14.88,-33.75 -29.6,-44.72 6.42,10.27 13.29,21.21 13.08,33.78 0.23,8.35 -4.55,16.3 -11.59,20.61 -5.69,-1.58 -10.03,-6.48 -15.21,-9.36 -58.13,-37.29 -122.08,-64.81 -187.68,-85.98 -133.63,-42.86 -275.7,-56.09 -415.36,-46.15 9.56,8.34 20.28,15.72 27.17,26.67 90.04,5.32 180.23,18.5 266.13,46.67 29.53,9.89 58.43,21.79 85.72,36.86 -0.27,38.45 11.22,78.55 38.72,106.47 -30.01,-11.77 -55.34,-32.37 -83.69,-47.35 -24.46,-13.31 -51.53,-24.42 -79.9,-23.05 -30.69,1.47 -60.97,18.42 -76.06,45.57 -16.88,29.3 -16.68,66.32 -3.53,96.99 13.55,32.47 40.08,58.07 70.38,75.17 52.88,29.59 114.88,37.54 174.64,36.86 60.49,-2.57 120.03,-17.7 180.79,-16.25 -71.83,40.04 -152.17,63.72 -233.54,74.17 -85.24,10.29 -173.32,6.62 -255.56,-19.47 -36.17,-11.68 -71.19,-28 -101.57,-51.08 -4.55,-3.21 -8.44,-7.95 -14.26,-8.75 -50.47,-10.14 -102.42,-10.58 -153.57,-6.36 -67.37,5.96 -134.04,19.31 -198.72,39.06 29.18,-54.31 72.85,-99.61 121.73,-136.61 50,-37.5 105.32,-67.98 163.74,-90.15 -49.26,2.73 -98.05,11.55 -146.17,22.17 -138.94,31.7 -271.58,89.15 -391.77,165.43 -2.38,1.68 -4.68,3.44 -6.91,5.28 -0.02,-1.35 0.12,-2.67 1.18,-3.62 85.8,-115.69 201.46,-209.79 333.86,-267.03 -115.82,-2.44 -232.15,1.12 -346.86,18.29 23.82,-13.43 49.09,-24.13 74.15,-35.01 191.61,-79.9 399.62,-121.56 607.35,-118.33 -37.35,-30.01 -76.14,-59.9 -121.08,-77.63 31.84,-4.64 64.02,-6.42 96.12,-8.46zm-1038.78 542.01c69.37,-0.16 138.74,-0.02 208.13,-0.06 -5.92,21.61 -11.63,43.27 -17.46,64.92 97.68,-0.1 195.33,0.02 293.01,-0.06 -0.53,8.65 -1.22,17.3 -2.27,25.91 19.16,-22.85 50.7,-29.91 79.28,-29.1 21.77,0.69 46.27,5.55 60.28,23.84 18.09,-17.26 43.77,-23.57 68.13,-23.9 18.77,-0.08 38.54,2.42 54.7,12.67 10.32,6.43 17.63,17.73 18.19,30.02 0.99,18.22 -5.88,35.52 -10.12,52.94 -5.32,-0.04 -10.64,-0.06 -15.94,-0.14 8.1,10.94 10.58,25.12 8.7,38.41 -2.78,22.24 -10.56,45.57 -28.56,60.11 -18.96,15.46 -44.5,19.11 -68.23,18.9 -21.94,-0.46 -46.01,-6 -60.43,-23.88 -15.73,14.34 -36.94,20.92 -57.74,23.11 -21.36,2.34 -43.69,-0.18 -62.87,-10.28 -0.09,1.86 -0.23,5.61 -0.31,7.49 -119.29,0.19 -238.59,0.1 -357.88,0.04 1.74,-6.27 3.46,-12.54 5.15,-18.79 -30.54,18.44 -68.02,22.14 -102.7,16.45 -19.6,-3.58 -39.9,-11.48 -52.24,-27.89 -7.45,-9.92 -12.29,-22.27 -10.97,-34.83 1.8,-19.31 7.47,-37.96 12.25,-56.67 13.27,-49.75 26.76,-99.44 39.9,-149.21zm9.52 11.95l0 0c-14.65,54.86 -29.69,109.59 -43.89,164.58 -3.17,14.82 -8.96,30.59 -3.29,45.55 5.24,15.31 19.6,25.31 34.35,30.36 23.28,7.76 48.66,7.97 72.66,3.64 28.27,-5.28 56.58,-21.19 68.75,-48.36 -4.26,17.09 -9.06,34.04 -13.6,51.05 21.55,0.04 43.11,0 64.66,0.02 0.82,-3.41 1.63,-6.81 2.5,-10.18 -0.12,3.33 -0.25,6.66 -0.35,10.02 61.27,0.41 122.57,0 183.87,0.18 4.06,-10.07 7.1,-20.55 11.71,-30.42 -0.49,10.31 -3.1,20.3 -4.67,30.44 24.29,-0.1 48.59,0 72.89,-0.06 0.86,-8.81 1.57,-17.65 1.98,-26.49 5.18,17.24 22.91,26 39.53,28.46 19.97,2.81 41.06,2.4 60.01,-5.11 15.79,-6.11 28.87,-18.86 34.61,-34.87 -0.13,10.86 3.16,22.47 12.54,28.93 18.52,13.32 43.02,13.99 64.85,11.32 20.91,-3.25 44.27,-11.53 54,-31.98 6.93,-15.68 12.04,-33.23 9.66,-50.49 -2.54,-16.21 -18,-24.84 -30.09,-33.61 13.43,-0.1 26.88,0 40.34,-0.06 3.45,-13.29 8.25,-26.7 7.26,-40.63 -0.73,-11.36 -10.2,-19.76 -20.14,-23.82 -18.64,-7.59 -39.48,-7.92 -59.14,-5.07 -19.64,3.09 -40.34,12.4 -49.61,31.03 -7.41,15.74 -13.31,34.2 -7.57,51.42 3.87,11.43 14.86,17.7 24.23,24.13 -13.1,0.17 -26.18,0 -39.28,0.08 -1.55,-17.92 -17.63,-28.24 -31.29,-37.12 13.64,-0.11 27.3,0.18 40.94,-0.15 3.29,-13.94 8.65,-27.98 6.83,-42.52 -1.72,-10.95 -11.41,-18.49 -21.13,-22.35 -17.28,-6.79 -36.38,-7.06 -54.62,-5.05 -19.66,2.73 -40.85,10.61 -51.2,28.74 -7.92,14.51 -13.37,31.44 -11.01,48.12 2.45,14.05 14.43,23.36 25.87,30.36 -12.41,-0.03 -24.85,-0.09 -37.29,0 -1.7,6.56 -3.31,13.14 -5.05,19.68 2.63,-41.6 6.95,-83.11 10.22,-124.67 -30.58,0.06 -61.17,-0.16 -91.74,0.11 -21.91,51.38 -44.26,102.58 -66.12,153.98 1.25,-7.96 3.6,-15.66 5.76,-23.42 11.69,-43.48 23.28,-87 35.01,-130.48 -28.83,-0.27 -57.65,-0.44 -86.46,0.08 -3.66,9.02 -7.39,18.05 -11.38,26.94 0.47,-9.1 1.71,-18.12 2.31,-27.21 -27.71,0.02 -55.44,-0.06 -83.15,0.04 5.82,-21.73 11.68,-43.42 17.43,-65.12 -60.89,-0.02 -121.79,0.02 -182.7,-0.02zm800.75 -12.26c39.15,0.11 78.29,0 117.44,0.07 -16.53,60.9 -32.72,121.89 -49.09,182.85 10.21,-0.1 20.41,0.03 30.63,-0.12 6.19,-22.87 11.53,-46.02 19.44,-68.37 5.62,-16.11 17.38,-29.72 32.16,-38.14 20.86,-11.97 45.65,-15.92 69.41,-13.91 13.65,1.18 27.23,5.17 38.61,13.04 0.44,-3.38 0.89,-6.75 1.39,-10.08 146.5,-0.54 293.02,-0.09 439.54,-0.23 -11.55,43.64 -23.35,87.23 -35.02,130.83 4.55,-0.39 9.77,1 13.97,-0.83 12.09,-43.08 23.36,-86.44 34.91,-129.69 32.18,-0.66 64.36,-0.23 96.56,-0.23 -11.34,43.67 -23.4,87.13 -34.82,130.75 13.69,0 27.42,-0.04 41.12,0.02 -6.65,25.13 -13.46,50.23 -20.16,75.35 -187.33,-0.06 -374.68,0.11 -562.03,-0.08 1.2,-8.24 2.11,-16.51 3.37,-24.73 -22.99,23.55 -57.92,31.25 -89.75,27.36 -15.11,-1.53 -29.97,-7.12 -41.33,-17.36 -1.22,4.98 -2.55,9.93 -3.95,14.85 -58.4,-0.14 -116.8,0 -175.18,-0.06 24.37,-90.39 48.44,-180.87 72.78,-271.29zm9.35 12.26l0 0c-22.2,82.24 -44.1,164.56 -66.24,246.82 50,0.06 100,-0.06 149.98,0.06 3.39,-12.74 7.26,-25.39 9.85,-38.32 1.55,9.6 4.34,19.6 11.67,26.51 12.97,12.64 32.18,15.44 49.58,15.23 24.01,-0.15 49.46,-7.76 65.77,-26.26 9,-9.75 12.62,-22.85 16.58,-35.16 6.1,-20.24 11.44,-40.71 15.99,-61.34 -4.14,39.84 -9.85,79.51 -14.61,119.3 27.11,0 54.25,0 81.38,0 5.46,-12.25 10.82,-24.52 16.18,-36.79 -0.13,12.19 -0.64,24.38 -1.76,36.52 27.07,0.62 54.16,0.09 81.23,0.27 20.73,-50.24 41.24,-100.59 61.87,-150.86 -1.46,7.86 -3.7,15.58 -5.83,23.32 -11.51,42.47 -22.7,85.04 -34.27,127.5 113.34,0.08 226.69,0.02 340.06,0.04 4.55,-17.11 9.18,-34.18 13.72,-51.32 -13.77,0.72 -27.53,-0.21 -41.29,0.56 11.51,-43.71 23.36,-87.31 35.02,-130.98 -23.78,-0.02 -47.56,-0.02 -71.32,0 -11.63,43.5 -23.45,86.94 -34.87,130.48 -13.08,0.97 -26.18,-0.25 -39.26,0.37 11.34,-43.68 23.39,-87.18 34.87,-130.83 -84.87,-0.06 -169.72,-0.02 -254.58,-0.02 -4.78,10.56 -9.21,21.28 -13.77,31.91 0.67,-10.72 2.71,-21.27 4.08,-31.91 -23.57,0 -47.14,-0.06 -70.71,0.04 -4.54,10.43 -8.8,21.01 -13.56,31.35 1.53,-10.49 3.85,-20.86 5.22,-31.37 -23.22,0.04 -46.44,-0.23 -69.66,0.15 -1.39,10.59 -2.55,21.23 -4.06,31.82 -1.82,-6.35 -3.85,-12.91 -8.42,-17.9 -9.46,-10.78 -24.07,-15.21 -37.89,-16.78 -23.06,-2.21 -47.54,1.49 -67.18,14.36 -11.59,7.47 -20.11,19.19 -24.25,32.29 -8.14,24.15 -13.7,49.04 -20.47,73.61 -18.63,0.02 -37.25,0.04 -55.88,-0.02 16.35,-60.89 32.58,-121.79 49.01,-182.63 -30.73,0 -61.46,0.02 -92.18,-0.02zm834.01 284.34c26.51,-5.05 54.57,-6.25 80.48,2.46 13.59,4.68 26.86,13.48 32.7,27.11 3.74,8.39 4.49,17.93 2.48,26.89 -3.29,17.22 -7.29,34.27 -11.34,51.32 -9.83,-0.04 -19.64,0 -29.45,-0.1 5.53,5.5 11.22,11.11 14.65,18.23 6.13,12.04 5.8,26.07 4.1,39.13 -3.11,19.4 -9.33,38.33 -18.52,55.67 -7.93,14.88 -23.2,24.03 -38.43,29.99 -26.84,10.28 -56.44,11.26 -84.5,6.06 -211.23,-17.3 -423.44,-21.54 -635.27,-15.52 -56.91,1.78 -113.82,4.06 -170.61,8.2 22.37,-83.2 44.62,-166.43 66.93,-249.65 262.26,0.11 524.53,0.23 786.78,0.21zm-17.3 19.04l0 0c1.63,-2.42 3.33,-4.82 5.02,-7.2 -27.17,-0.06 -54.32,-0.02 -81.47,-0.04 -5.24,8.05 -10.06,16.39 -15.61,24.25 1.89,-8.15 4.25,-16.18 6.52,-24.21 -50.7,0.02 -101.42,-0.17 -152.1,0.08 -6.46,15.54 -12.01,31.46 -19.11,46.71 2.03,-15.65 4.45,-31.21 6.46,-46.83 -27.25,0.02 -54.51,0.04 -81.76,-0.02 -6.09,14.77 -11.03,30.02 -17.72,44.55 1.93,-14.86 3.93,-29.69 5.82,-44.55 -62.05,0.04 -124.09,0.08 -186.11,-0.02 -22.42,51.55 -44.52,103.22 -66.78,154.84 13.16,-51.91 27.6,-103.48 41.32,-155.24 -32.98,0 -65.99,0.09 -98.98,-0.04 -6.66,24.13 -13.1,48.32 -19.6,72.5 -1.76,0.02 -5.26,0.08 -7.01,0.1 6.58,-24.15 13.12,-48.32 19.55,-72.5 -33.01,-0.08 -65.99,-0.04 -99,-0.04 -20.16,75.19 -40.31,150.37 -60.43,225.56 33.42,-2.13 66.87,-3.46 100.31,-5.14 6.56,-24.19 12.95,-48.44 19.43,-72.68 1.76,-0.02 5.28,-0.04 7.04,-0.04 -6.65,24.13 -12.94,48.37 -19.48,72.52 58.38,-2.28 116.78,-3.73 175.21,-4.29 4.34,-10.88 8.67,-21.77 12.89,-32.69 1.3,-2.8 2.09,-6.79 6.1,-6.81 -1.26,13.18 -4.3,26.13 -5.77,39.3 55.56,-0.04 111.13,-0.04 166.67,1.47 8.64,-19.06 16.83,-38.31 25.31,-57.45 -1.09,19.33 -3.24,38.59 -4.71,57.9 30.17,0.68 60.32,2.09 90.52,3 19.64,-47.74 39.56,-95.38 58.85,-143.27 -1.43,9.34 -4.45,18.3 -6.87,27.4 -10.53,38.95 -21.07,77.9 -31.58,116.84 26.88,1.29 53.75,2.9 80.65,4.16 3.77,-14.27 7.86,-28.47 11.3,-42.83 1.88,14.46 1.61,29.05 2.5,43.6 27.01,2.15 54.08,3.75 81.11,5.77 -0.25,-3.41 -0.5,-6.78 -0.75,-10.16 12.29,8.96 27.34,13.21 42.36,14.28 26.08,1.8 53.62,-2.15 76.16,-16.12 15.89,-9.77 23.78,-27.81 27.88,-45.28 4.63,-18.04 10.61,-38.24 1.96,-56.06 -9.31,-15.56 -25.95,-24.44 -40.73,-34.02 19.06,-0.13 38.15,0 57.22,-0.04 4.19,-18.98 12.55,-38.1 8.86,-57.87 -4.1,-16.26 -21.25,-23.88 -36.07,-27.54 -28.33,-5.92 -58.96,-4.23 -85.38,8.15zm-1520.21 -7.76l0 0c-29.22,108.65 -58.5,217.3 -87.83,325.9 34.77,-6.97 69.64,-13.41 104.49,-19.95 13.54,-49.54 26.76,-99.17 40.3,-148.69 4.94,-0.23 7.14,3.39 5.09,7.8 -12.36,46.67 -25.21,93.23 -37.75,139.84 58.17,-10.91 116.68,-20.01 175.22,-28.79 21.92,-81.81 43.77,-163.63 65.52,-245.48 -6.21,79.67 -13.04,159.33 -19.7,238.98 31.62,-4.43 63.28,-8.5 94.99,-12.37 28.5,-65.89 57.22,-131.68 85.47,-197.7 -2.73,16.16 -8.26,31.7 -12.11,47.62 -13.05,48.69 -26.11,97.39 -39.19,146.06 94.66,-10.45 189.48,-19.39 284.51,-25.47 8.4,-31.56 17.49,-62.96 24.81,-94.76 2.73,-9.75 1.64,-20.7 -6,-27.96 15.05,-8.41 21.11,-25.64 25.19,-41.37 3.47,-13.95 5.87,-30.11 -2.26,-42.96 -7.2,-11.8 -21,-17.53 -34.35,-18.4 -35.93,-3.19 -72.04,-1.22 -108.05,-1.76 -64.4,-0.04 -128.8,0.04 -193.21,-0.04 -6.52,17.46 -13.35,34.83 -19.31,52.5 0.77,-17.67 4.87,-34.97 6.96,-52.5 -53.77,0.06 -107.53,0.04 -161.3,0.02 -3.31,12.33 -6.6,24.69 -9.83,37.06 -3.27,-9.17 -7.99,-18.25 -16.06,-24.07 -13.61,-10.63 -31.64,-11.27 -48.11,-12.45 -39.14,-1.8 -78.33,-0.96 -117.49,-1.06z"/>
  </g>
 </g>
</svg>
