<?xml version="1.0" encoding="UTF-8"?>
<!DOCTYPE svg PUBLIC "-//W3C//DTD SVG 1.1//EN" "http://www.w3.org/Graphics/SVG/1.1/DTD/svg11.dtd">
<!-- Creator: CorelDRAW -->
<svg xmlns="http://www.w3.org/2000/svg" xml:space="preserve" width="2000px" height="1600px" version="1.1" style="shape-rendering:geometricPrecision; text-rendering:geometricPrecision; image-rendering:optimizeQuality; fill-rule:evenodd; clip-rule:evenodd"
viewBox="0 0 2000 1600"
 xmlns:xlink="http://www.w3.org/1999/xlink">
 <defs>
  <style type="text/css">
   <![CDATA[
    .fil2 {fill:#031B48;fill-rule:nonzero}
    .fil0 {fill:#BABBBD;fill-rule:nonzero}
    .fil1 {fill:#FEFEFE;fill-rule:nonzero}
   ]]>
  </style>
 </defs>
 <g id="Capa_x0020_1">
  <metadata id="CorelCorpID_0Corel-Layer"/>
  <g id="UNF_x0020_Ospreys.cdr">
   <path class="fil0" d="M420.76 0.02c378.95,0.09 757.9,0.09 1136.84,-0.02 1.12,83.12 0.13,166.27 0.48,249.39 22.96,0.66 45.93,0.09 68.9,0.33 -0.09,14.71 -0.13,29.4 -0.04,44.11 42.28,0.37 84.57,-0.05 126.88,0.22 29.54,27.44 58.94,55.08 88.47,82.57 0.37,198.45 -0.26,396.88 0.26,595.31 -41.3,-14.3 -82.36,-29.42 -124.2,-42.07 -32.38,-10.22 -65.15,-19.05 -97.7,-28.65 -14.52,14.86 -28.5,30.25 -42.73,45.38 0.27,35.64 0.62,71.28 -0.17,106.93 -72.12,-16.01 -144.5,-30.98 -217.55,-42.03 -57.16,-8.52 -114.51,-16.5 -172.23,-20.03 7.81,6.99 16.93,12.27 25.08,18.83 31.43,24.4 57.78,55.85 74.36,92.15 12.05,25.87 17.49,54.87 14.59,83.32 7.44,6.6 17.65,7.76 26.51,11.58 31.74,12.49 61.09,33.67 78.85,63.24 14.2,24.02 21.61,52.15 20.56,80.1 1.2,34.41 -7.15,68.55 -20.45,100.07 -19.4,44.74 -55.71,83.76 -102.66,99.39 -2.96,-18.05 -9.47,-35.89 -21.42,-49.96 -22.42,-27.51 -55.5,-44.35 -89.52,-52.66 -40.12,-9.9 -82.25,-6.4 -122.17,2.68 -26.1,5.96 -51.6,14.47 -76.24,24.9 -2.19,-8.68 -3.48,-17.54 -4.67,-26.37 -17.42,24.73 -27.59,53.82 -36.27,82.58 -8.33,-13.42 -14.03,-28.37 -17.54,-43.74 -3.92,-25.91 -0.26,-53.37 12.84,-76.3 16.93,-31.13 46.04,-54.41 78.24,-68.35 28.76,-12.26 60.35,-17.38 91.5,-16.86 -19.42,17.32 -38.93,35.16 -52.61,57.61 25.34,-3.99 50.74,-8 76.44,-8.77 42.7,-0.31 86.19,5.9 125.12,24.16 24.79,11.72 46.56,29.42 63.66,50.83 18.06,-21.5 28.34,-48.55 33.16,-75.98 1.34,-14.31 1.17,-28.76 0.38,-43.09 -4.76,-36.39 -24.47,-72.06 -56.71,-90.89 -31.81,-18.76 -69.58,-22.33 -105.66,-24.61 -3.03,7.25 -6.09,14.46 -9.21,21.7 19.45,-4.52 41.21,-6.77 59.19,3.81 13.19,7.52 19.22,24.8 13.98,38.98 -6.83,16.04 -27.88,24.81 -43.79,17.03 -6.78,-3 -9.93,-10.17 -15.2,-14.86 -14.94,-2.79 -30.4,-2.5 -45.46,-0.83 -5,0.21 -9.05,3.31 -13.02,5.96 -11.99,8.28 -25.38,14.71 -39.59,18.08 -17.97,3.79 -36.56,7.02 -54.87,3.51 -52.52,-5.13 -99.85,-36.65 -153.53,-33.74 10.98,14.67 20.52,30.56 24.99,48.51 -37.94,-1.18 -76.59,-1.31 -113.35,9.47 17.32,12.74 35.62,24.99 48.46,42.62 -76.3,18.24 -150.66,46.45 -217.52,87.84 -56.79,34.76 -108.7,78.19 -150.22,130.42 -4.27,5.62 -8.7,11.14 -13.66,16.18 15.83,-81.7 58.16,-156.84 115,-217.01 -37.4,12.01 -72.49,30.27 -106.6,49.56 11.42,-36.61 33.41,-69.2 60.39,-96.17 39.83,-39.83 89.17,-68.72 140.54,-91.08 -25.13,-0.63 -50.2,1.54 -75.02,5.24 49.48,-46.47 116.18,-69.58 182.23,-79.57 32.6,-6.29 65.92,-6.38 98.97,-7.32 1.54,-6.78 0.75,-13.79 0.88,-20.65 -25.08,-0.44 -49.83,4.84 -73.65,12.25 11.74,-36.32 43.79,-62.89 79.2,-74.79 30.2,-10.81 63.63,-9.19 94.08,-0.27 34.39,9.87 64.69,29.88 93.23,50.9 9.78,6.86 18.52,15.46 29.79,19.97 -17.78,-32.94 -44.02,-60.83 -73.63,-83.49 -60.88,-46.67 -140.14,-68.31 -216.3,-59.41 -60.43,5.72 -118.92,28.02 -168.79,62.47 9.85,-28.78 29.93,-52.41 51.82,-72.9 -42.41,3.86 -84.48,10.8 -126.43,18.06 -62.55,10.35 -124.21,25.16 -185.92,39.63 -1.49,-35.64 -0.04,-71.37 -0.7,-107.04 0.2,-4.53 -3.83,-7.38 -6.46,-10.48 -9.52,-9.51 -18.24,-19.77 -27.86,-29.15 -2.44,-3.16 -6.43,-1.25 -9.61,-0.7 -49.71,14.27 -99.17,29.46 -147.92,46.76 -16.88,5.39 -33.3,12.16 -50.2,17.49 0,-45.66 -0.28,-91.3 0.14,-136.94 12.77,-8.35 25.12,-17.34 37.7,-26 0.48,-126.66 -0.09,-253.29 0.04,-379.95 -12.76,-6.01 -25.36,-12.37 -37.99,-18.64 0.07,-38.69 0.11,-77.4 -0.02,-116.09 95.95,-1.03 191.92,0.42 287.84,-0.72 -0.32,-59.06 -0.21,-118.13 -0.04,-177.19 -7.91,-4.86 -16.2,-9.05 -24.46,-13.22 -0.09,-34.52 -0.07,-69.03 -0.03,-103.53z"/>
   <path class="fil1" d="M478.4 57.63c31.87,0.04 63.74,0.04 95.59,0 3.97,11.27 8.07,22.47 11.99,33.74 8.05,22.6 16.47,45.04 24.14,67.78 7.36,20.05 14.53,40.18 21.52,60.37 1.23,-46.28 0.31,-92.62 0.49,-138.94 -5.75,-2.91 -11.4,-5.98 -17.23,-8.72 -2.35,-1.45 -4.74,-2.85 -7.11,-4.28 0.05,-3.31 0.11,-6.62 0.18,-9.91 26.65,-0.02 53.31,0 79.97,-0.02 0.08,104.89 0.04,209.81 0.02,314.7 -20.19,-0.02 -40.36,-0.07 -60.55,0.02 -14.14,-40.18 -27.33,-80.69 -41.32,-120.92 -8.79,-27.05 -18.78,-53.72 -26.85,-81.02 -1.62,10.79 -1.69,21.68 -0.97,32.56 -0.32,46.75 0.27,93.53 0.05,140.33 -0.22,9.61 0.7,19.29 -0.86,28.81 -26.35,0.5 -52.72,0 -79.06,0.22 -0.09,-3.29 -0.16,-6.6 -0.22,-9.89 8.06,-4.34 16.09,-8.79 24.5,-12.47 0.05,-89.77 -0.08,-179.56 -0.13,-269.34 -8.2,-4.19 -16.39,-8.35 -24.4,-12.91 0.09,-3.38 0.16,-6.73 0.25,-10.11zm646.81 378.86c32.05,0.02 64.12,-0.05 96.19,0.02 -0.04,111.14 -0.02,222.26 -0.02,333.37 -3.44,-0.31 -6.86,-0.61 -10.28,-0.94 -28.45,-3.71 -57.24,-4.36 -85.87,-5.94 -0.02,-4.17 -0.02,-8.31 -0.02,-12.47 9.32,-4.63 19.71,-7.7 28.41,-13.22 2.61,-8.11 0.33,-17.21 0.35,-25.69 1.06,-30.61 1.03,-61.32 0.11,-91.94 1.08,-11.75 0.51,-23.52 -0.13,-35.27 1.62,-37.99 0.15,-76.02 0.62,-114.03 0.02,-2.9 0.7,-6.95 -2.92,-8 -8.61,-4.87 -17.56,-9.08 -26.42,-13.46 -0.02,-4.15 -0.04,-8.29 -0.02,-12.43zm-250.99 -0.03c60.41,0.12 120.83,-0.15 181.26,0.14 13.55,13 27.47,25.58 40.91,38.71 -0.51,38.65 0.59,77.38 -0.55,115.96 -11.9,14.1 -24.33,27.84 -36.89,41.39 7.45,19.57 13.85,39.52 21.26,59.1 7.34,22.2 16.18,43.88 23.13,66.22 0.63,0.74 1.9,2.23 2.54,2.98 -21.53,0.44 -42.97,-1.67 -64.45,-1.78 -1.84,-5.61 -3.61,-11.22 -5.9,-16.66 -9.97,-28.6 -20.38,-57.05 -30.58,-85.6 -3.9,-11.75 -8.52,-23.25 -12.18,-35.11 12.58,-14.23 25.67,-28.04 37.46,-42.9 -0.26,-30.89 -0.22,-61.78 -0.02,-92.66 -20.39,-2.19 -40.97,-0.35 -61.45,-1.01 -0.24,91.15 -0.11,182.31 -0.06,273.46 -31.57,-0.13 -63.07,1.1 -94.57,2.08 0.05,-4.12 0.09,-8.24 0.16,-12.36 9.79,-4.67 19.11,-10.26 28.82,-15.12 0.09,-89.95 -0.06,-179.89 0.07,-269.83 -9.63,-4.89 -19.23,-9.8 -29,-14.38 0.02,-4.21 0.02,-8.42 0.04,-12.63zm-227.45 33.63c13.96,-11.26 27.93,-22.53 42.06,-33.56 37.51,0.53 75.08,-0.55 112.55,0.42 14.09,12.05 26.94,25.56 40.86,37.83 0.02,79.69 -0.02,159.39 0.02,239.07 -0.13,5.28 0.46,10.68 -0.51,15.92 -13.3,11.61 -26.63,23.32 -39.96,34.94 -13.15,2.17 -26.67,1.8 -39.78,4.21 -24.97,1.66 -49.83,4.23 -74.62,7.54 -13.26,-8.79 -27.18,-16.55 -40.62,-25.04 0.06,-93.77 0.06,-187.55 0,-281.33zm67.58 258.6l0 0c16.57,-0.9 33.21,-1.97 49.63,-4.34 3.62,-0.3 7.23,-0.52 10.85,-0.76 1.45,-22.21 0.31,-44.53 0.64,-66.8 0,-4.38 0,-8.77 0.02,-13.15 0,-15.32 0.02,-30.67 -0.02,-45.99 0.08,-32.95 -0.05,-65.89 0.08,-98.84 0.07,-4.56 -0.5,-9.08 -1.09,-13.59 -19.97,0.33 -39.94,0.13 -59.91,0.11 -0.37,81.13 0.02,162.26 -0.2,243.36zm-256.65 -292.2c31.41,0.02 62.83,-0.07 94.24,0.04 0,103.36 -0.04,206.74 0.02,310.12 15.92,-1.5 31.68,-4.56 47.48,-6.8 5.5,-10 9.21,-20.91 14.84,-30.84 4.04,-0.33 8.07,-0.7 12.13,-1.03 -0.03,25.71 -0.05,51.4 0.02,77.11 -15.96,4.26 -32.58,4.74 -48.62,8.47 -40.21,6.44 -80.21,13.96 -120.09,22.14 -0.02,-4.04 -0.15,-8.07 0.18,-12.06 8.79,-7.85 19.46,-13.37 28.41,-21.09 -0.2,-106.34 -0.09,-212.7 -0.05,-319.06 -9.31,-5.17 -18.96,-9.77 -28.52,-14.49 -0.02,-4.18 -0.02,-8.35 -0.04,-12.51zm798.14 0c60.54,0.04 121.11,-0.11 181.66,0.09 12.14,11.53 24.11,23.25 36.72,34.32 2.56,2.02 4.4,4.87 3.85,8.29 -0.11,96.67 0.11,193.34 -0.11,290.01 -13.74,9.47 -26.87,19.77 -40.57,29.31 -60.22,-10.17 -120.76,-18.22 -181.44,-25.03 -0.09,-4.08 -0.13,-8.16 -0.18,-12.21 9.69,-4.02 19.16,-8.55 28.96,-12.32 0.44,-95.14 0.02,-190.3 0.2,-285.46 -9.71,-4.78 -19.34,-9.77 -29.11,-14.44 0,-4.19 0.02,-8.38 0.02,-12.56zm94.41 302.94l0 0c19.71,2.48 39.24,6.05 58.95,8.51 -0.02,-87.57 0.04,-175.13 -0.02,-262.68 -19.6,0.02 -39.2,0.02 -58.77,0 -0.22,84.73 0.08,169.45 -0.16,254.17zm188.96 -342.95c17.49,-13.08 34.28,-27.11 51.29,-40.81 46.26,-0.27 92.53,0.06 138.79,-0.18 17.01,15.96 34.46,31.5 51.05,47.9 0.94,91.76 0.13,183.63 0.39,275.41 0,68.64 0,137.27 0,205.88 -19.11,-4.87 -37.59,-11.97 -56.66,-16.99 -8.84,-3.33 -18.22,-4.91 -26.99,-8.39 0.14,-71.38 0.03,-142.77 0.07,-214.17 -14.95,-3.18 -30.25,-4.21 -45.16,-7.47 15.06,-19.23 30.45,-38.23 44.79,-57.96 0.85,-54.28 0.13,-108.64 0.37,-162.96 -24.44,0.02 -48.88,0.04 -73.33,-0.03 -0.04,140.72 0,281.4 -0.02,422.11 -21.57,-4.51 -42.83,-10.63 -64.47,-15.01 -18.56,-4.5 -37.28,-8.51 -55.96,-12.56 -0.09,-5.05 -0.11,-10.07 -0.2,-15.06 4.19,-1.23 8.35,-2.5 12.5,-3.91 7.71,-1.97 15.43,-3.94 23.17,-5.83 0.57,-129.99 -0.13,-259.98 0.37,-389.97zm-1320.07 -24.09c0,-5.46 0.04,-10.92 0.19,-16.37 35.45,0.11 70.92,0 106.36,0.04 39.83,-0.04 79.66,0.07 119.49,-0.04 0.38,19.64 0.05,39.3 0.2,58.94 -33.76,0 -67.54,0.07 -101.29,-0.02 -0.18,49.69 -0.11,99.39 -0.05,149.08 13.51,-2.52 27.32,-3.09 40.69,-6.31 13.7,-1.75 27.35,-3.71 41.01,-5.72 -2.39,11.48 -3.66,23.17 -5.41,34.77 -3.2,13.08 -4.26,26.56 -6.4,39.85 -12.54,2.19 -25.28,3.31 -37.66,6.35 -10.75,1.85 -21.6,3.01 -32.27,5.2 0,70.28 -0.07,140.56 0.04,210.83 -6.07,1.84 -12.3,3.25 -18.43,4.89 -34.46,9.73 -68.9,19.71 -102.79,31.35 -0.92,0.28 -2.74,0.83 -3.66,1.12 -0.02,-6.32 -0.07,-12.63 0.35,-18.92 12.78,-7.54 24,-17.45 36.91,-24.77 0.9,-7.87 0.57,-15.78 0.62,-23.68 -0.05,-142.68 0.04,-285.36 -0.05,-428.04 -12.8,-5.81 -25.16,-12.54 -37.85,-18.55zm1087.66 -314.72c26.4,-0.06 52.81,0.09 79.23,-0.08 0.35,44.58 0.19,89.17 0.08,133.76 19.38,1.93 39.05,1.4 58.49,0.33 -0.07,-36.96 0.07,-73.92 -0.07,-110.9 -7.93,-4.32 -16.39,-7.78 -23.93,-12.8 -0.44,-3.42 -0.25,-6.91 -0.25,-10.35 26.49,0.04 52.97,0.07 79.47,-0.02 0.13,104.89 0.44,209.78 -0.18,314.67 -18.34,-0.26 -36.69,0.29 -55.02,-0.33 -0.06,-44.28 -0.04,-88.56 -0.02,-132.84 -19.47,0.09 -38.95,-0.17 -58.44,0.16 -0.05,44.34 0.35,88.69 -0.2,133.01 -26.39,-0.13 -52.76,-0.02 -79.16,-0.06 -0.13,-3.27 -0.21,-6.54 -0.3,-9.8 7.98,-4.39 16.02,-8.68 24.33,-12.39 0.22,-89.68 0.37,-179.38 -0.07,-269.05 -7.71,-5.11 -16.44,-8.44 -24.28,-13.29 0.08,-3.35 0.19,-6.68 0.32,-10.02zm-160.78 45.64c0.1,-15.23 -0.18,-30.47 0.17,-45.7 46.74,0.11 93.47,0.02 140.21,0.04 0.08,15.21 0,30.41 0.06,45.62 -13.15,0.06 -26.28,0.06 -39.41,0 -0.02,89.3 -0.13,178.61 0.04,267.94 -14.77,1.95 -29.72,0.65 -44.56,1.01 -12.83,-0.36 -25.78,1.05 -38.47,-1.34 0.98,-3.29 0.06,-7.87 3.44,-9.97 6.93,-4.89 16.66,-6.34 22.05,-13.03 0.66,-35.84 -0.02,-71.72 0.22,-107.56 -0.57,-6.51 -1.1,-13.09 -0.11,-19.58 0.24,-31.48 0.13,-62.95 0.09,-94.43 0.02,-7.63 0.04,-15.26 0.06,-22.87 -14.6,-0.26 -29.19,-0.08 -43.79,-0.13zm-211.61 -35.82c0.49,-3.31 0.99,-6.62 1.49,-9.93 50.49,0.14 100.97,0.2 151.46,-0.04 10.41,9.34 20.54,18.96 30.86,28.39 2.52,2.67 6.36,5.35 5.81,9.56 -0.15,36.62 0.39,73.32 -0.26,109.93 -9.61,15.28 -22.25,28.52 -32.03,43.66 3.11,13.49 8.42,26.33 11.71,39.77 0.78,2.08 1.6,4.21 2.39,6.31 7.47,25.47 15.16,50.9 23.6,76.05 -9.18,1.4 -18.5,1.07 -27.75,1 -8.37,-0.65 -17.45,1.69 -25.36,-1.36 -3.75,-9.75 -6.09,-19.97 -9.38,-29.85 -8.03,-26.28 -16.44,-52.46 -24.29,-78.81 -2.63,-7.41 -4.19,-15.19 -7.41,-22.4 10.59,-14.42 21.79,-28.37 32.22,-42.88 -0.13,-32.33 -0.15,-64.64 0,-96.97 -17.47,-1.45 -35.03,-0.27 -52.54,-0.68 -0.15,90.99 0.09,182 -0.13,273 -13.42,-0.05 -26.83,0 -40.25,-0.02 -12.93,0.06 -25.87,-0.14 -38.8,0.13 -0.72,-3.82 -0.48,-7.65 0.37,-11.42 8.11,-3.05 15.52,-7.63 23.48,-11.07 0.11,-89.37 0.2,-178.77 -0.04,-268.16 -7.48,-6.14 -17.03,-9.01 -25.15,-14.21zm-196.01 19.38c10.87,-10.74 23.76,-19.79 35.86,-29.33 31.26,0.2 62.52,0.22 93.78,0 11.07,10.2 22.05,20.52 33.19,30.67 3.26,2.1 2.38,6.27 2.63,9.58 -0.18,80.62 0.08,161.25 -0.16,241.87 -10.28,9.69 -20.89,19.05 -30.99,28.94 -2.48,2.83 -6.34,3.81 -9.96,3.64 -29.44,0.11 -58.87,-0.29 -88.29,0.19 -12.8,-8.37 -23.9,-19 -36.17,-28.08 -0.07,-85.82 -0.26,-171.66 0.11,-257.48zm56.84 41.94l0 0c0.15,67.38 -0.2,134.79 0.17,202.19 17.1,-0.08 34.2,-0.1 51.3,0.03 0.33,-77.27 0.17,-154.55 0.06,-231.82 -17.12,0.07 -34.26,0.11 -51.38,-0.02 -0.22,9.87 -0.09,19.73 -0.15,29.62z"/>
   <path class="fil2" d="M599.88 861.31c8.57,-1.9 17.36,-2.72 26.15,-2.45 1.56,3.35 3.73,6.64 3.62,10.52 0.2,13.17 0.17,26.37 0,39.57 0.09,5.39 -2.54,11.26 -8,13.02 -10.61,3.88 -22.21,3.44 -33.17,5.85 -11.84,1.73 -24.13,6.16 -35.95,2.11 -1.21,-6.98 -1.82,-14.01 -1.62,-21.07 0.31,-12.52 -1.03,-25.23 2.13,-37.49 14.48,-7.54 31.21,-6.79 46.84,-10.06zm586.21 390.41c14.57,-11.09 34.92,-13.96 52.06,-7.65 5.35,1.93 10.87,5.35 12.38,11.23 1.87,5 -1.51,9.84 -2.89,14.53 -5.68,1.89 -12.76,3.88 -17.89,-0.31 -3.61,-2.56 -4.34,-7.08 -4.93,-11.09 -12.19,-5.52 -25.6,-6.16 -38.73,-6.71zm140.66 -35.16c27.71,10.46 52.42,29.84 66.97,55.88 10.83,19.38 16.51,41.67 16.22,63.9 1.36,39.65 -8.44,79.61 -27.57,114.34 -15,27.22 -36.98,51.42 -65.39,64.88 -9.8,-30.53 -33.56,-54.54 -60.22,-71.24 -28.78,-18.13 -62.41,-27.12 -96.04,-30.25 -47.83,-3.31 -95.81,5.96 -140.66,22.27 -3.64,1.21 -7.32,2.15 -11.03,3.11 -0.28,-14.64 -1.12,-30.58 6.58,-43.66 -0.02,-0.97 -0.07,-2.94 -0.09,-3.9 -30.12,16.85 -49.69,47.17 -61.46,78.82 -6.27,-26.06 4.75,-52.76 20.32,-73.39 25.6,-33.23 63.65,-56.75 105.02,-64.23 -19.99,18.02 -36.02,41.39 -41.7,68 31.88,-10.89 65.46,-15.36 98.93,-17.4 33.19,-0.59 66.77,3.09 98.58,12.86 36.19,11.45 70.94,32.99 90.6,66.31 1.75,2.07 3.73,7.44 6.55,3.47 22.61,-21.2 37.73,-49.56 45.73,-79.31 9.34,-35.6 10,-74.86 -5.5,-108.86 -9.95,-24 -27.01,-44.06 -45.84,-61.6zm33.39 -353.89c5.37,-5.43 13.35,-1.93 19.82,-1.14 13.08,2.87 27.09,2.15 39.52,7.67 6.25,2.74 6.6,10.04 5.96,15.92 -4.32,0.15 -8.66,0.33 -12.95,0.5 -0.11,-2.65 -0.18,-5.28 -0.27,-7.89 -13.96,-1.47 -27.73,-4.34 -41.67,-5.96 0.24,4.6 0.57,9.23 1.01,13.83 15.78,3.03 32.2,3.18 47.5,8.33 8.68,3.22 8.31,13.81 8.18,21.46 0.02,5.99 0.06,15.08 -7.63,16.22 -13.94,0.4 -27.44,-4.01 -41.21,-5.56 -6.82,-1.19 -14.95,-0.95 -19.82,-6.67 -3.44,-3.75 -3.29,-9.12 -3.94,-13.81 4.53,-0.24 9.07,-0.44 13.63,-0.61 -0.02,1.8 -0.06,5.37 -0.09,7.17 15.26,1.97 30.32,5.28 45.6,7.25 0.04,-4.71 0.11,-9.4 0.2,-14.09 -16.05,-5.07 -33.59,-3.38 -49.24,-9.6 -5.65,-1.74 -6.09,-8.23 -6.25,-13.16 0.03,-6.62 -0.83,-13.59 1.65,-19.86zm-634.39 -17.64c11.49,-0.27 22.84,-3.45 34.33,-2.59 6.55,1.64 7.6,8.39 7.91,14.16 -4.6,1.29 -9.21,2.63 -13.79,3.95 -0.06,-1.82 -0.15,-5.48 -0.22,-7.3 -13.81,2.36 -27.84,3.5 -41.8,4.56 0,4.47 -0.02,8.94 0,13.41 14.45,-0.72 28.8,-3.02 43.27,-3.4 4.14,-0.35 8.05,1.21 11.86,2.66 0.62,9.53 1.67,19.27 -0.13,28.73 -3.59,7.92 -13.35,7.79 -20.74,8.49 -13.92,0.68 -27.64,4.08 -41.6,3.99 -7.98,-0.77 -8.6,-10.04 -8.42,-16.36 4.54,-1.11 9.08,-2.3 13.63,-3.44 -0.02,1.91 -0.06,5.68 -0.08,7.59 14.95,-1.89 29.92,-3.73 44.96,-5.02 -0.07,-4.65 -0.11,-9.28 -0.14,-13.92 -14.49,0.68 -28.87,2.78 -43.33,3.42 -4.41,0.2 -11.27,-0.27 -11.71,-5.92 -0.77,-8.53 -1.73,-17.63 1.03,-25.85 6.05,-7.4 16.51,-5.94 24.97,-7.16zm495.76 -3.34c6.69,0.53 13.33,1.52 19.97,2.48 7.45,8.86 14.53,18.02 22.1,26.79 7.1,-7.41 13.72,-15.43 21.81,-21.77 5.92,-0.57 11.77,1.05 17.65,1.69 -11.45,10.39 -22.32,21.37 -33.5,32 -0.02,9.78 0,19.53 -0.09,29.31 -4.97,-0.74 -9.93,-1.51 -14.9,-2.23 -0.27,-9.65 0.68,-19.38 -0.42,-28.98 -10.3,-13.53 -22.36,-25.69 -32.62,-39.29zm-116.35 -8.39c21.96,1.03 43.86,2.91 65.8,4.43 -0.04,3.7 -0.06,7.41 -0.06,11.13 -16.95,-1.07 -33.83,-2.83 -50.79,-3.18 -0.03,4.56 -0.03,9.17 -0.03,13.75 10,1.09 20,2.28 30.08,2.48 -0.02,3.61 -0.02,7.21 0,10.82 -10.06,-0.26 -20.06,-1.36 -30.08,-2.1 0,5.61 0.05,11.22 0.18,16.83 17.38,0.6 34.79,1.04 52.08,2.88 -0.02,3.72 -0.04,7.47 -0.02,11.24 -22.4,0.16 -44.72,-2.21 -67.12,-2.87 -0.07,-21.81 0.02,-43.6 -0.04,-65.41zm245.09 -93.87c0.24,-84.72 -0.06,-169.44 0.16,-254.17 19.57,0.02 39.17,0.02 58.77,0 0.06,87.55 0,175.11 0.02,262.68 -19.71,-2.46 -39.24,-6.03 -58.95,-8.51zm-635.9 -10.74c0.22,-81.1 -0.17,-162.23 0.2,-243.36 19.97,0.02 39.94,0.22 59.91,-0.11 0.59,4.51 1.16,9.03 1.09,13.59 -0.13,32.95 0,65.89 -0.08,98.84 0.04,15.32 0.02,30.67 0.02,45.99 -0.02,4.38 -0.02,8.77 -0.02,13.15 -0.33,22.27 0.81,44.59 -0.64,66.8 -3.62,0.24 -7.23,0.46 -10.85,0.76 -16.42,2.37 -33.06,3.44 -49.63,4.34zm867.17 -461.21c1.97,-0.11 5.94,-0.35 7.91,-0.46 2.63,6.27 4.65,12.76 7.28,19 3.57,-5.5 4.54,-12.27 6.71,-18.39 2.12,-0.15 6.35,-0.41 8.48,-0.57 0.11,9.58 0.13,19.18 -0.02,28.76l-5.09 -0.09c0,-6.86 0.05,-13.72 -0.28,-20.58 -2.87,6.62 -4.85,13.55 -7.43,20.25 -1.01,0.11 -3.03,0.31 -4.06,0.4 -3.05,-6.8 -5.08,-13.96 -7.67,-20.93 -0.37,7.23 -0.33,14.46 -0.46,21.67 -1.23,-0.39 -3.68,-1.2 -4.91,-1.59 -1.14,-9.12 -0.35,-18.33 -0.46,-27.47zm-29.05 -0.13c8.07,-0.11 16.16,-0.11 24.25,-0.11 0,1.18 0,3.55 0,4.73 -2.96,0.02 -5.9,0.05 -8.82,0.09 -0.37,7.65 1.14,15.65 -0.81,23.08l-4.34 1.6c-0.46,-8.17 -0.33,-16.35 -0.19,-24.53 -3.36,-0.13 -6.71,-0.26 -10.04,-0.37 -0.03,-1.12 -0.05,-3.38 -0.05,-4.49zm-757.23 -138.54c0.06,-9.89 -0.07,-19.75 0.15,-29.62 17.12,0.13 34.26,0.09 51.38,0.02 0.11,77.27 0.27,154.55 -0.06,231.82 -17.1,-0.13 -34.2,-0.11 -51.3,-0.03 -0.37,-67.4 -0.02,-134.81 -0.17,-202.19zm-356.41 -110.35c366.78,-0.07 733.56,0.08 1100.34,-0.09 0.37,107.54 -0.14,215.06 0.26,322.61 12.74,-9.3 24.42,-19.99 37.33,-29.07 56.45,0.37 112.89,0.07 169.34,0.16 26.3,23.76 51.58,48.59 77.93,72.29 0.22,187.16 0.02,374.32 0.11,561.48 -69.1,-24.46 -139.05,-46.54 -210.03,-64.86 -18.23,19.62 -36.67,39.06 -54.78,58.79 -0.19,30.36 0.16,60.7 -0.17,91.06 -148.08,-33.21 -298.58,-57.06 -450.3,-64.1 -1.38,1.14 -2.72,2.32 -4.08,3.53 35.69,12.87 68.79,32.71 98.3,56.45 31.63,26.26 59.58,58.79 73.63,97.94 7.47,21.61 11.2,45.24 5.96,67.8 4.1,3.53 8.24,7.04 12.06,10.89 -33.78,-10.06 -68.9,-15.32 -104.15,-15.93 -9.21,31.98 -28.1,62.49 -57.48,79.44 -26.08,16.37 -58.7,20.01 -88.29,12.56 -33.76,-6.75 -64.84,-23.08 -98.87,-28.74 -26.65,-5.79 -54.91,-4.89 -80.82,3.84 -2.91,1.18 -5.5,2.96 -8.15,4.58 17.23,7.19 33.82,17.93 43.03,34.7 -44.7,-1.03 -89.35,8 -130.41,25.56 19.44,11.92 41.1,20.87 57.96,36.76 -89.46,19.95 -174.45,60.28 -246.35,117.17 -22.4,17.45 -42.74,37.31 -62.1,58.04 27.45,-68.89 73.61,-131.21 134.97,-173.46 6.53,-4.53 13.48,-8.35 20.38,-12.27 -28.41,2.96 -56.24,10.48 -83.47,19.03 -23.52,7.71 -46.49,17.38 -67.93,29.83 22.84,-35.23 54.4,-64.14 89.08,-87.46 36.04,-24.07 75.57,-42.73 116.51,-56.76 14.82,-4.89 29.55,-10.41 45.09,-12.54 0.18,-0.74 0.53,-2.23 0.71,-2.96 -18.79,-2.45 -37.47,-6.15 -56.45,-6.59 -15.17,-0.53 -30.34,0.13 -45.51,0.19 29.51,-17.77 62.85,-28.03 96.39,-34.96 48.77,-9.6 98.64,-12.76 148.29,-11.84 -4.14,-18.63 -3.94,-37.88 0.18,-56.49 -21.83,-0.87 -43.69,1.8 -64.98,6.54 23.02,-20.74 51.08,-38.19 82.65,-40.8 34.94,-3.59 69.16,9.08 99.3,25.71 22.69,12.43 43.86,27.45 64.22,43.32 13.64,10.04 33.43,15.43 48.69,5.72 -33.93,-76.04 -102.13,-134.75 -181.02,-160.39 -85.38,-28.48 -182.86,-22.63 -262.09,21.26 26.75,-28.37 63.4,-44.35 99.68,-56.75 -116.29,9.55 -232.08,26.43 -345.61,53.59 -13.28,2.41 -26.17,6.71 -39.59,8.38 0.09,-30.96 -0.17,-61.93 0.16,-92.88 -16.68,-17.85 -33.06,-36 -50.53,-53.07 -64.88,17.38 -128.87,37.96 -192.25,60.21 -0.02,-33.43 -0.08,-66.85 0.03,-100.28 12.51,-9.06 25.69,-17.26 37.63,-27.01 1.28,-5.59 0.6,-11.4 0.73,-17.08 -0.13,-126.46 0.06,-252.94 -0.09,-379.4 0.59,-3.82 -3.48,-5.46 -6.11,-7.02 -10.81,-5.3 -21.64,-10.59 -32.36,-16.11 0.37,-28.63 -0.02,-57.28 0.2,-85.91 95.64,0.27 191.28,-0.06 286.92,0.16 0.48,-69.36 0.06,-138.74 0.2,-208.12 -8.07,-4.49 -16.36,-8.55 -24.38,-13.13 0.2,-24.51 0.02,-49.02 0.09,-73.52zm39.57 39.17l0 0c-0.09,3.38 -0.16,6.73 -0.25,10.11 8.01,4.56 16.2,8.72 24.4,12.91 0.05,89.78 0.18,179.57 0.13,269.34 -8.41,3.68 -16.44,8.13 -24.5,12.47 0.06,3.29 0.13,6.6 0.22,9.89 26.34,-0.22 52.71,0.28 79.06,-0.22 1.56,-9.52 0.64,-19.2 0.86,-28.81 0.22,-46.8 -0.37,-93.58 -0.05,-140.33 -0.72,-10.88 -0.65,-21.77 0.97,-32.56 8.07,27.3 18.06,53.97 26.85,81.02 13.99,40.23 27.18,80.74 41.32,120.92 20.19,-0.09 40.36,-0.04 60.55,-0.02 0.02,-104.89 0.06,-209.81 -0.02,-314.7 -26.66,0.02 -53.32,0 -79.97,0.02 -0.07,3.29 -0.13,6.6 -0.18,9.91 2.37,1.43 4.76,2.83 7.11,4.28 5.83,2.74 11.48,5.81 17.23,8.72 -0.18,46.32 0.74,92.66 -0.49,138.94 -6.99,-20.19 -14.16,-40.32 -21.52,-60.37 -7.67,-22.74 -16.09,-45.18 -24.14,-67.78 -3.92,-11.27 -8.02,-22.47 -11.99,-33.74 -31.85,0.04 -63.72,0.04 -95.59,0zm260 29.24l0 0c-0.37,85.82 -0.18,171.66 -0.11,257.48 12.27,9.08 23.37,19.71 36.17,28.08 29.42,-0.48 58.85,-0.08 88.29,-0.19 3.62,0.17 7.48,-0.81 9.96,-3.64 10.1,-9.89 20.71,-19.25 30.99,-28.94 0.24,-80.62 -0.02,-161.25 0.16,-241.87 -0.25,-3.31 0.63,-7.48 -2.63,-9.58 -11.14,-10.15 -22.12,-20.47 -33.19,-30.67 -31.26,0.22 -62.52,0.2 -93.78,0 -12.1,9.54 -24.99,18.59 -35.86,29.33zm196.01 -19.38l0 0c8.12,5.2 17.67,8.07 25.15,14.21 0.24,89.39 0.15,178.79 0.04,268.16 -7.96,3.44 -15.37,8.02 -23.48,11.07 -0.85,3.77 -1.09,7.6 -0.37,11.42 12.93,-0.27 25.87,-0.07 38.8,-0.13 13.42,0.02 26.83,-0.03 40.25,0.02 0.22,-91 -0.02,-182.01 0.13,-273 17.51,0.41 35.07,-0.77 52.54,0.68 -0.15,32.33 -0.13,64.64 0,96.97 -10.43,14.51 -21.63,28.46 -32.22,42.88 3.22,7.21 4.78,14.99 7.41,22.4 7.85,26.35 16.26,52.53 24.29,78.81 3.29,9.88 5.63,20.1 9.38,29.85 7.91,3.05 16.99,0.71 25.36,1.36 9.25,0.07 18.57,0.4 27.75,-1 -8.44,-25.15 -16.13,-50.58 -23.6,-76.05 -0.79,-2.1 -1.61,-4.23 -2.39,-6.31 -3.29,-13.44 -8.6,-26.28 -11.71,-39.77 9.78,-15.14 22.42,-28.38 32.03,-43.66 0.65,-36.61 0.11,-73.31 0.26,-109.93 0.55,-4.21 -3.29,-6.89 -5.81,-9.56 -10.32,-9.43 -20.45,-19.05 -30.86,-28.39 -50.49,0.24 -100.97,0.18 -151.46,0.04 -0.5,3.31 -1,6.62 -1.49,9.93zm211.61 35.82l0 0c14.6,0.05 29.19,-0.13 43.79,0.13 -0.02,7.61 -0.04,15.24 -0.06,22.87 0.04,31.48 0.15,62.95 -0.09,94.43 -0.99,6.49 -0.46,13.07 0.11,19.58 -0.24,35.84 0.44,71.72 -0.22,107.56 -5.39,6.69 -15.12,8.14 -22.05,13.03 -3.38,2.1 -2.46,6.68 -3.44,9.97 12.69,2.39 25.64,0.98 38.47,1.34 14.84,-0.36 29.79,0.94 44.56,-1.01 -0.17,-89.33 -0.06,-178.64 -0.04,-267.94 13.13,0.06 26.26,0.06 39.41,0 -0.06,-15.21 0.02,-30.41 -0.06,-45.62 -46.74,-0.02 -93.47,0.07 -140.21,-0.04 -0.35,15.23 -0.07,30.47 -0.17,45.7zm160.78 -45.64l0 0c-0.13,3.34 -0.24,6.67 -0.32,10.02 7.84,4.85 16.57,8.18 24.28,13.29 0.44,89.67 0.29,179.37 0.07,269.05 -8.31,3.71 -16.35,8 -24.33,12.39 0.09,3.26 0.17,6.53 0.3,9.8 26.4,0.04 52.77,-0.07 79.16,0.06 0.55,-44.32 0.15,-88.67 0.2,-133.01 19.49,-0.33 38.97,-0.07 58.44,-0.16 -0.02,44.28 -0.04,88.56 0.02,132.84 18.33,0.62 36.68,0.07 55.02,0.33 0.62,-104.89 0.31,-209.78 0.18,-314.67 -26.5,0.09 -52.98,0.06 -79.47,0.02 0,3.44 -0.19,6.93 0.25,10.35 7.54,5.02 16,8.48 23.93,12.8 0.14,36.98 0,73.94 0.07,110.9 -19.44,1.07 -39.11,1.6 -58.49,-0.33 0.11,-44.59 0.27,-89.18 -0.08,-133.76 -26.42,0.17 -52.83,0.02 -79.23,0.08zm-1087.66 314.72l0 0c12.69,6.01 25.05,12.74 37.85,18.55 0.09,142.68 0,285.36 0.05,428.04 -0.05,7.9 0.28,15.81 -0.62,23.68 -12.91,7.32 -24.13,17.23 -36.91,24.77 -0.42,6.29 -0.37,12.6 -0.35,18.92 0.92,-0.29 2.74,-0.84 3.66,-1.12 33.89,-11.64 68.33,-21.62 102.79,-31.35 6.13,-1.64 12.36,-3.05 18.43,-4.89 -0.11,-70.27 -0.04,-140.55 -0.04,-210.83 10.67,-2.19 21.52,-3.35 32.27,-5.2 12.38,-3.04 25.12,-4.16 37.66,-6.35 2.14,-13.29 3.2,-26.77 6.4,-39.85 1.75,-11.6 3.02,-23.29 5.41,-34.77 -13.66,2.01 -27.31,3.97 -41.01,5.72 -13.37,3.22 -27.18,3.79 -40.69,6.31 -0.06,-49.69 -0.13,-99.39 0.05,-149.08 33.75,0.09 67.53,0.02 101.29,0.02 -0.15,-19.64 0.18,-39.3 -0.2,-58.94 -39.83,0.11 -79.66,0 -119.49,0.04 -35.44,-0.04 -70.91,0.07 -106.36,-0.04 -0.15,5.45 -0.19,10.91 -0.19,16.37zm1320.07 24.09l0 0c-0.5,129.99 0.2,259.98 -0.37,389.97 -7.74,1.89 -15.46,3.86 -23.17,5.83 -4.15,1.41 -8.31,2.68 -12.5,3.91 0.09,4.99 0.11,10.01 0.2,15.06 18.68,4.05 37.4,8.06 55.96,12.56 21.64,4.38 42.9,10.5 64.47,15.01 0.02,-140.71 -0.02,-281.39 0.02,-422.11 24.45,0.07 48.89,0.05 73.33,0.03 -0.24,54.32 0.48,108.68 -0.37,162.96 -14.34,19.73 -29.73,38.73 -44.79,57.96 14.91,3.26 30.21,4.29 45.16,7.47 -0.04,71.4 0.07,142.79 -0.07,214.17 8.77,3.48 18.15,5.06 26.99,8.39 19.07,5.02 37.55,12.12 56.66,16.99 0,-68.61 0,-137.24 0,-205.88 -0.26,-91.78 0.55,-183.65 -0.39,-275.41 -16.59,-16.4 -34.04,-31.94 -51.05,-47.9 -46.26,0.24 -92.53,-0.09 -138.79,0.18 -17.01,13.7 -33.8,27.73 -51.29,40.81zm-283.37 40.01l0 0c0,4.18 -0.02,8.37 -0.02,12.56 9.77,4.67 19.4,9.66 29.11,14.44 -0.18,95.16 0.24,190.32 -0.2,285.46 -9.8,3.77 -19.27,8.3 -28.96,12.32 0.05,4.05 0.09,8.13 0.18,12.21 60.68,6.81 121.22,14.86 181.44,25.03 13.7,-9.54 26.83,-19.84 40.57,-29.31 0.22,-96.67 0,-193.34 0.11,-290.01 0.55,-3.42 -1.29,-6.27 -3.85,-8.29 -12.61,-11.07 -24.58,-22.79 -36.72,-34.32 -60.55,-0.2 -121.12,-0.05 -181.66,-0.09zm-798.14 0l0 0c0.02,4.16 0.02,8.33 0.04,12.51 9.56,4.72 19.21,9.32 28.52,14.49 -0.04,106.36 -0.15,212.72 0.05,319.06 -8.95,7.72 -19.62,13.24 -28.41,21.09 -0.33,3.99 -0.2,8.02 -0.18,12.06 39.88,-8.18 79.88,-15.7 120.09,-22.14 16.04,-3.73 32.66,-4.21 48.62,-8.47 -0.07,-25.71 -0.05,-51.4 -0.02,-77.11 -4.06,0.33 -8.09,0.7 -12.13,1.03 -5.63,9.93 -9.34,20.84 -14.84,30.84 -15.8,2.24 -31.56,5.3 -47.48,6.8 -0.06,-103.38 -0.02,-206.76 -0.02,-310.12 -31.41,-0.11 -62.83,-0.02 -94.24,-0.04zm189.07 33.6l0 0c0.06,93.78 0.06,187.56 0,281.33 13.44,8.49 27.36,16.25 40.62,25.04 24.79,-3.31 49.65,-5.88 74.62,-7.54 13.11,-2.41 26.63,-2.04 39.78,-4.21 13.33,-11.62 26.66,-23.33 39.96,-34.94 0.97,-5.24 0.38,-10.64 0.51,-15.92 -0.04,-79.68 0,-159.38 -0.02,-239.07 -13.92,-12.27 -26.77,-25.78 -40.86,-37.83 -37.47,-0.97 -75.04,0.11 -112.55,-0.42 -14.13,11.03 -28.1,22.3 -42.06,33.56zm227.45 -33.63l0 0c-0.02,4.21 -0.02,8.42 -0.04,12.63 9.77,4.58 19.37,9.49 29,14.38 -0.13,89.94 0.02,179.88 -0.07,269.83 -9.71,4.86 -19.03,10.45 -28.82,15.12 -0.07,4.12 -0.11,8.24 -0.16,12.36 31.5,-0.98 63,-2.21 94.57,-2.08 -0.05,-91.15 -0.18,-182.31 0.06,-273.46 20.48,0.66 41.06,-1.18 61.45,1.01 -0.2,30.88 -0.24,61.77 0.02,92.66 -11.79,14.86 -24.88,28.67 -37.46,42.9 3.66,11.86 8.28,23.36 12.18,35.11 10.2,28.55 20.61,57 30.58,85.6 2.29,5.44 4.06,11.05 5.9,16.66 21.48,0.11 42.92,2.22 64.45,1.78 -0.64,-0.75 -1.91,-2.24 -2.54,-2.98 -6.95,-22.34 -15.79,-44.02 -23.13,-66.22 -7.41,-19.58 -13.81,-39.53 -21.26,-59.1 12.56,-13.55 24.99,-27.29 36.89,-41.39 1.14,-38.58 0.04,-77.31 0.55,-115.96 -13.44,-13.13 -27.36,-25.71 -40.91,-38.71 -60.43,-0.29 -120.85,-0.02 -181.26,-0.14zm250.99 0.03l0 0c-0.02,4.14 0,8.28 0.02,12.43 8.86,4.38 17.81,8.59 26.42,13.46 3.62,1.05 2.94,5.1 2.92,8 -0.47,38.01 1,76.04 -0.62,114.03 0.64,11.75 1.21,23.52 0.13,35.27 0.92,30.62 0.95,61.33 -0.11,91.94 -0.02,8.48 2.26,17.58 -0.35,25.69 -8.7,5.52 -19.09,8.59 -28.41,13.22 0,4.16 0,8.3 0.02,12.47 28.63,1.58 57.42,2.23 85.87,5.94 3.42,0.33 6.84,0.63 10.28,0.94 0,-111.11 -0.02,-222.23 0.02,-333.37 -32.07,-0.07 -64.14,0 -96.19,-0.02zm-266.69 371.18l0 0c-148.66,8.64 -296.67,30.76 -440.85,68.26 13.27,16.14 29.11,29.97 42.47,45.97 0.85,19.4 -0.09,38.85 0.41,58.27 44.74,-11.4 90.32,-19.27 135.8,-27.1 52.72,-8.79 105.79,-15.38 158.97,-20.89 35.82,-2.43 71.48,-6.81 107.41,-7.36 22.58,-2.15 45.34,-1.1 67.91,-3.31 37.95,-0.75 75.94,-0.7 113.9,-0.09 47.57,2.94 95.34,3.29 142.77,8.44 111.39,8.79 221.78,27.01 331.21,49.19 0.3,-18.87 -0.64,-37.77 0.41,-56.6 13.59,-16 28.54,-31.04 42.84,-46.54 -214.81,-55.63 -437.78,-78.21 -659.45,-70.45 -14.55,1.56 -29.22,1.34 -43.8,2.21zm100.71 155.58l0 0c31.96,6.73 64.09,13.83 94.26,26.72 31.39,14.14 59.54,34.61 85.07,57.52 23.9,21.44 45.16,46.07 60.9,74.13 -1.21,-43.53 -22.65,-84.39 -52.96,-114.88 -16.09,-15.68 -33.67,-30.39 -53.44,-41.11 -44.57,-1.73 -89.22,-3.59 -133.83,-2.38zm281.4 144.72l0 0c0.13,11.18 1.29,22.51 -1.03,33.56 -1.03,4.86 -1.45,9.84 -1.54,14.82 2.83,-1.25 5.66,-2.48 8.48,-3.75 1.71,-1.84 2.92,-4.96 6.03,-4.25 5.92,8.43 7.48,18.98 5.13,28.93 2.37,1.73 4.76,3.49 7.15,5.26 8.9,-27.01 -4.56,-55.96 -24.22,-74.57zm-267.81 87.75l0 0c8.15,27.4 29.75,49.69 56.2,60.1 14.84,5.11 30.83,6.29 46.37,4.45 27.05,-3.53 51.38,-20.51 65.69,-43.49 -12.14,3.4 -25.34,4.1 -37.3,-0.41 -13.99,29.79 -62.48,31.36 -79.01,3.26 -5.17,-7.28 -4.01,-16.64 -3.02,-24.97 5.57,0.46 11.15,0.68 16.74,0.38 5.81,-3.44 11.29,-7.68 14.16,-13.99 -16.15,-12.82 -32.83,-25.16 -51.47,-34.15 -8.43,-4.32 -17.4,-7.43 -26.02,-11.34 -7.78,18.97 -7.78,40.58 -2.34,60.16zm266.75 -27.12l0 0c2.39,1.6 4.76,3.13 7.19,4.76 2.24,-3.88 4.41,-7.81 6.4,-11.82 -4.51,2.41 -9.05,4.76 -13.59,7.06zm-205.39 36.83l0 0c1.84,4.8 3.37,9.97 7.05,13.74 11.12,11.38 31.26,11.9 43.01,1.23 4.69,-3.75 6.29,-9.71 8.2,-15.13 -8.48,7.08 -18.65,12.92 -30.12,11.8 -10.83,0.72 -20.03,-5.26 -28.14,-11.64zm-67.24 -374.5c19.36,0.24 38.74,-0.15 58.09,0.35 5.84,-0.26 11.71,3.84 12.06,9.95 0.15,9.76 2.61,21.11 -4.82,28.96 -5.77,0.46 -11.55,0.77 -17.32,1.14 8.75,8.44 18.92,15.26 27.49,23.9 -6.64,0.06 -13.28,0.5 -19.88,-0.16 -10,-6.36 -17.03,-16.42 -26.59,-23.34 -4.36,-1.52 -9.21,-0.66 -13.75,-1.06 -0.02,8.16 0,16.31 0.07,24.47 -5.11,0.06 -10.19,0.09 -15.26,0.17 -0.17,-21.46 -0.02,-42.92 -0.09,-64.38zm15.31 11.01l0 0c-0.03,5.91 -0.05,11.83 -0.07,17.75 13.2,-0.09 26.41,0.37 39.61,-0.15 0.33,-5.75 0.24,-11.49 -0.33,-17.19 -13.08,-0.35 -26.15,-0.39 -39.21,-0.41zm-145.3 -6.6c21.9,-0.68 43.82,-3.53 65.74,-1.87 5.09,9.71 3.8,21.18 2.61,31.66 -2.63,7.34 -12.1,6.95 -18.5,7.49 -11.9,0.2 -23.74,1.5 -35.6,2.37 0.05,8.16 0.05,16.33 0.11,24.49 -4.6,-0.81 -12.1,3.85 -14.9,-1.25 0.61,-20.96 -0.77,-41.96 0.54,-62.89zm14.3 11l0 0c-0.03,5.33 -0.07,10.65 -0.16,16 13,1.67 26.11,-1.14 39.2,-0.81 1.53,-5.5 1.82,-11.22 1.51,-16.9 -13.55,-0.46 -27.07,0.61 -40.55,1.71zm-285.35 31.57l0 0c-0.17,13.79 -0.08,27.57 -0.06,41.38 16.2,-2.34 32.22,-5.91 48.55,-7.47 0.05,-13.83 0.18,-27.66 -0.09,-41.52 -16.02,3.22 -32.15,5.83 -48.4,7.61z"/>
  </g>
 </g>
</svg>
