<?xml version="1.0" encoding="UTF-8"?>
<!DOCTYPE svg PUBLIC "-//W3C//DTD SVG 1.1//EN" "http://www.w3.org/Graphics/SVG/1.1/DTD/svg11.dtd">
<!-- Creator: CorelDRAW -->
<svg xmlns="http://www.w3.org/2000/svg" xml:space="preserve" width="2000px" height="1600px" version="1.1" style="shape-rendering:geometricPrecision; text-rendering:geometricPrecision; image-rendering:optimizeQuality; fill-rule:evenodd; clip-rule:evenodd"
viewBox="0 0 2000 1600"
 xmlns:xlink="http://www.w3.org/1999/xlink">
 <defs>
  <style type="text/css">
   <![CDATA[
    .fil0 {fill:black}
    .fil1 {fill:#FEFEFE}
    .fil2 {fill:#85172E;fill-rule:nonzero}
   ]]>
  </style>
 </defs>
 <g id="Capa_x0020_1">
  <metadata id="CorelCorpID_0Corel-Layer"/>
  <g id="Union_x0020_Dutchmen_x0020_.cdr">
   <path class="fil0" d="M848.71 469.5l-0.04 600.82 55.92 64.67 191.66 0.02 57.07 -67.66 -0.04 -596.51 -75.26 -0.03 -0.07 -470.81 593.97 0.07 -0.04 470.71 -72.68 0.03 -0.15 785.56 -313.38 343.63 -575.45 -0.03 -310.82 -342.29 0.05 -786.87 -71.33 -0.03 -0.03 -470.76 588.8 0.14 -0.2 469.37 -67.98 -0.03z"/>
   <path class="fil1" d="M810.1 430.87l-0.05 653.84 76.88 88.9 227.27 0.02 77.75 -92.16 -0.05 -649.24 -75.26 -0.03 -0.07 -393.58 516.72 0.07 -0.03 393.49 -72.67 0.02 -0.16 809.2 -291.81 319.98 -541.3 -0.03 -289.3 -318.59 0.05 -810.56 -71.33 -0.02 -0.03 -393.53 511.54 0.12 -0.16 392.13 -67.99 -0.03z"/>
   <path class="fil2" d="M405.33 77.28l434.28 0.1 -0.13 314.88 -68 -0.03 -0.06 706.86 97.85 113.14 262.88 0.03 98.42 -116.68 -0.06 -701.96 -75.26 -0.02 -0.05 -316.35 439.47 0.05 -0.03 316.27 -72.67 0.03 -0.15 832.83 -270.24 296.33 -507.16 -0.03 -267.78 -294.89 0.05 -834.24 -71.33 -0.03 -0.03 -316.29z"/>
  </g>
 </g>
</svg>
