<?xml version="1.0" encoding="UTF-8"?>
<!DOCTYPE svg PUBLIC "-//W3C//DTD SVG 1.1//EN" "http://www.w3.org/Graphics/SVG/1.1/DTD/svg11.dtd">
<!-- Creator: CorelDRAW -->
<svg xmlns="http://www.w3.org/2000/svg" xml:space="preserve" width="2000px" height="1600px" version="1.1" style="shape-rendering:geometricPrecision; text-rendering:geometricPrecision; image-rendering:optimizeQuality; fill-rule:evenodd; clip-rule:evenodd"
viewBox="0 0 2000 1600"
 xmlns:xlink="http://www.w3.org/1999/xlink">
 <defs>
  <style type="text/css">
   <![CDATA[
    .fil4 {fill:#CD1041}
    .fil1 {fill:black;fill-rule:nonzero}
    .fil0 {fill:#D1D2D3;fill-rule:nonzero}
    .fil3 {fill:#FACDC0;fill-rule:nonzero}
    .fil2 {fill:#FEFEFE;fill-rule:nonzero}
   ]]>
  </style>
 </defs>
 <g id="Capa_x0020_1">
  <metadata id="CorelCorpID_0Corel-Layer"/>
  <g id="UNLV_x0020_Rebels.cdr">
   <path class="fil0" d="M957.43 0l139.38 0c16.31,2.52 32.88,1.99 49.3,3.77 51.1,5.97 102.67,8.92 153.27,18.71 54.42,6.86 107.23,22.05 159.87,36.89 31.3,9.71 63.52,16.49 94.26,27.96 35.64,10.4 70.15,24.34 104.46,38.46 12.11,4.23 23.35,10.43 34.72,16.32 34.15,15.24 66.32,34.56 100.35,50.11 25.24,13.13 50.14,26.89 74.89,40.88l0 160.64c-2.62,30.92 -2.68,62.02 -4.87,92.96 -21.59,-7.69 -43.43,-15.06 -63.95,-25.41 -15.24,61.1 -28.96,122.61 -43.08,183.99 -7.67,35.3 -16.72,70.35 -23.43,105.88 36.15,17.03 70.53,39.72 96,70.92 12.13,15.03 22.97,31.6 28.8,50.16 3.16,9.3 0.11,18.99 -1.32,28.32 -9,50.98 -26.82,100.15 -50.22,146.23 -16.46,33.01 -36.83,63.78 -56.58,94.83 16.18,47.23 22.86,98.51 13.33,147.86 -9.1,49.3 -35.26,94.85 -72.09,128.65 -55.19,50.83 -129.18,75.93 -202.41,85.67 -77.21,10.53 -155.95,4.11 -231.55,-13.74 -18.51,32.3 -48.15,56.82 -80.96,73.62 -39.79,20.64 -83.96,32.34 -128.55,35.86 -30.66,2.4 -62.8,-4.43 -87.48,-23.42 -12.92,-10.25 -28.04,-19.3 -45.04,-19.35 -11.21,-0.59 -21.43,4.71 -30.51,10.76 -27.76,17.99 -61.3,28.29 -94.52,24.9 -31.3,-3.03 -61.09,-18.48 -81.74,-42.14 -2.83,-3.16 -5.48,-6.47 -8.69,-9.2 -7.22,-0.12 -14.1,2.91 -21.16,4.18 -91.64,19.76 -194,-1.7 -264.36,-65.35 -34.89,-31.61 -60.66,-74.41 -67.62,-121.33 -3.11,-18.36 -2.34,-37.04 -0.36,-55.44 -98.72,-85.19 -173.94,-197.68 -213.5,-322.02l0 -8.74c17.69,-56.31 46.47,-110.4 89.93,-151.05 2.27,-2.2 4.79,-4.62 4.13,-8.11 -0.79,-22.97 -2.27,-45.93 -1.58,-68.93 1.91,-80.75 6.98,-161.37 7.67,-242.15 0.99,-22.35 2.11,-44.73 2.17,-67.11 -17.67,8.97 -34.31,19.72 -51.82,28.95 -1.38,-83.32 2.26,-166.57 4.4,-249.85 -0.12,-8.31 6.51,-14.4 11.98,-19.78 10.28,-8.44 22.92,-13.25 34.9,-18.71 34.39,-13.76 66.1,-33.36 100.46,-47.21 71.14,-28.8 142.43,-58.37 217.3,-76.16 26.28,-8.16 53.3,-13.59 80.26,-18.84 67.32,-12.97 135.48,-20.85 203.67,-27.42 17.87,-1.58 35.68,-3.85 53.63,-4.11 22.76,-0.33 45.6,0.89 68.26,-1.91z"/>
   <path class="fil1" d="M888.41 34.59c153.81,-12.34 308.45,5.64 460.11,29.47 -1.71,51.36 -1.42,102.82 -3.95,154.18 -19.6,-1.47 -38.51,-7.41 -58.09,-8.87 -10.93,47.33 -7.31,332 -6.6,396.88 19.55,4.97 46.36,21.42 66.58,16.95 28.26,-54.56 12.56,-133.24 16.95,-191.94 24.38,7.37 47.79,20.87 72.49,26.44 5.49,-17.87 -24.32,-215.74 -44.25,-221.69 -12.79,-4.33 -25.77,-8.23 -38.56,-12.57 0.51,-52.43 0.89,-104.89 3.31,-157.29 182.79,45.69 313.19,96.47 477.12,185.97 -0.43,62.88 1.35,125.84 -2.04,188.68 -19.12,-7.5 -35,-20.98 -53.55,-29.57 -39.37,115.24 -57.39,239.64 -84.83,358.03 41.48,15.28 129.04,57.38 133.08,112.33 5.48,74.59 -70.92,191.42 -113.13,255.67 121.95,304.53 -241.96,380.47 -476.17,315.61 -22.76,82.85 -162.7,139.22 -240.37,109.23 -42.21,-16.3 -75.74,-58.02 -124.75,-24.45 -55.56,38.07 -129.05,29.08 -160.13,-35 -135.54,51.38 -381.98,-26.33 -332.56,-211.74 -50.04,-40.27 -93.86,-88.12 -130.18,-141.06 -36.42,-53.33 -66.76,-111.32 -85.9,-173.13 17.64,-56.46 49.5,-109.99 96.56,-146.69 -15.03,-149.2 12.56,-300.38 6.47,-450 -17.92,7.8 -34.26,18.91 -51.77,27.68 0.05,-62.83 2.8,-125.59 4.56,-188.37 196.31,-110.63 414.52,-161.5 637.12,-182.28 8.24,27.18 16.97,58 29.08,83.66 5.33,-27.51 4.1,-58.13 3.4,-86.13zm-401.37 579.18c5.45,-62.79 17.34,-298.43 7.85,-344.34 -21.26,8.1 -43.28,14.48 -63.57,24.95 -10.31,3.66 -20.07,418.35 -15.78,439.78 7.02,35.04 65.51,-51.31 71.5,-120.39zm422.11 -427.67c6.47,23.38 16.27,75.65 33.98,92.22 0.22,-28.55 8.48,-65.55 0.94,-93.44 -11.64,-0.03 -23.42,-1.45 -34.92,1.22zm-386.78 754.32c-144.45,-67.49 -150.4,-136.19 -231.98,-73.33 -30,23.6 -53.68,54.29 -73.39,86.74 38.77,-33.26 81.65,-64.28 131.81,-77.36 199.97,127.9 368.2,186.9 609.26,169.71 326.58,-23.28 513.33,-209.32 557.59,-223.75 82.64,1.23 165.46,12.39 244.55,36.73 -35.93,-31.16 -207.07,-85.46 -245.87,-74.94 -73.54,54.27 -151.36,103.19 -234.36,141.73 -239.47,112.25 -514.97,127.84 -757.61,14.47zm72.8 -196.27c-19.42,50.32 -53.05,93.13 -89.65,131.99 59.22,31.99 121.15,60.13 186.79,76.03 -61.19,-52.36 -97.59,-126.69 -97.14,-208.02zm252.53 -13.15c-29.55,46.82 -38.34,105.73 -26.44,159.64 25.5,-56.99 56.41,-112.41 98.57,-158.9 7.32,-8.85 19.91,-8.52 29.85,-12.62 -8.03,-0.99 -16.9,3.59 -24.26,-0.64 -12.24,-44.6 -31.36,-86.97 -45.55,-130.94 -1.92,2.53 -2.53,5.58 -2.27,8.72 0.56,42.85 -3.93,85.59 -3.14,128.44 -8.87,2.3 -17.97,3.67 -26.76,6.3zm102.19 -12.52c16.87,18.31 35.35,35.28 50.06,55.47 18.2,-18.33 36.02,-37.04 54.47,-55.14 -34.84,0.67 -69.69,-2.77 -104.53,-0.33zm156.33 6.38c43.28,54.98 77.74,117.25 99.02,183.98 65.66,-19.51 126.39,-57.67 184.22,-93.19 -90.55,-40.69 -185.22,-73.49 -283.24,-90.79zm468.4 -424.36c-3.06,40.63 22.32,150.33 30.15,196.2 33.61,-142.64 64.42,-174.34 -30.15,-196.2zm-452.37 270.52c5.28,-108.26 14.84,-272.94 6.35,-380.46 -15.3,-3.87 -31.2,-2.39 -46.62,-5.38 -3.75,98.8 -4.75,197.68 -6.81,296.53 0.41,28.75 -2.57,57.68 0.89,86.31 15.37,1.17 30.79,1.86 46.19,3zm-247.56 2.78c-14.9,-47.09 -26.32,-103.37 -52.15,-146.05 -3.47,51.15 -1.84,102.52 -4.84,153.73 19.19,2.14 38.61,-2.38 56.99,-7.68zm-193.8 -20.03c3.57,-112.72 3.29,-225.54 6.86,-338.28 -12.39,-0.66 -23.78,5.12 -35.87,6.71 -26.11,2.36 -16.13,92.8 -16.39,114.47 -1.1,96.13 -5.88,192.31 -8.53,288.42 13.71,-26.74 33.52,-49.58 53.93,-71.32z"/>
   <path class="fil2" d="M653.67 821.18c-14.02,-43.69 -16.44,-91.89 -3.37,-136.06 20.68,30.41 38.49,64.92 39.87,102.37 6.32,62.16 32.68,122.02 73.84,168.99 -52.1,-28.95 -91.86,-78.76 -110.34,-135.3zm63.72 -44.63c16.11,-32.09 51.62,-47.64 84.6,-56.31 -30.66,52.97 -38.84,118.1 -22.6,177.05 5.04,20.37 13.91,39.46 23.37,58.1 -49.6,-46.14 -80.09,-111.42 -85.37,-178.84zm404.76 370.98c65.33,-7.37 131.09,8.31 191.1,33.52 42.05,17.13 80.31,42.11 122.17,59.7 48.68,20.72 101.22,36.73 154.72,33.31 34.97,-2.11 70,-15.83 93.68,-42.34 2.04,11.73 -5.02,22.2 -10.1,32.17 -21.41,37.62 -60.59,60.41 -99.71,75.86 -92.84,36.3 -197.32,33.65 -292.07,5.99 -25.08,-6.58 -48.68,-17.44 -73.23,-25.49 -21.13,-31 -43.66,-61.97 -73.54,-85.16 -14.04,-10.71 -30.61,-19.22 -48.63,-19.48 -1,-9.73 -10.2,-14.99 -18.48,-17.92 -18.05,-5.91 -37.32,-6.24 -56.13,-6.11 30.59,-26.34 70.68,-39.18 110.22,-44.05zm-452.04 96.73c35.66,-29.82 77.82,-53.91 124.37,-60.64 33.77,-4.97 69.51,-0.48 99.69,16.04 -17.9,7.31 -36.33,16.82 -46.88,33.77 -9.66,14.4 -11.47,33.04 -6.75,49.53 -23.71,10.4 -48.31,18.83 -73.62,24.31 -44.28,9.77 -78.61,52.28 -78.71,97.71 -45.68,21.15 -98.39,28.65 -147.56,16.39 -41.04,-10.17 -81.6,-32.27 -103.82,-69.46 -4.29,-7.19 -9.61,-14.63 -8.67,-23.45 15.09,20.08 37.7,35.91 63.5,36.86 32.9,1.12 63.01,-16.04 88.27,-35.51 33.34,-25.01 57.88,-59.39 90.18,-85.55z"/>
   <path class="fil3" d="M888.07 1232.72c41.98,-21.78 145.52,-29.2 165.71,-13.23 10.09,7.97 -12.23,32.39 36.45,24.62 131.05,95.15 166.27,223.47 -42.95,253.83 -83.65,12.14 -84.79,-129.04 -168.38,-91.99 31.73,3.9 54.9,30.63 64.95,59.46 -84.84,-47.43 -145.35,99.08 -199.82,-24.82 -59.5,-135.34 106.39,-88.28 146.64,-170.79 -16.44,-9.83 -31.05,-20.59 -2.6,-37.08zm-14.32 -78.18c-0.31,-8.8 9.97,-10.35 16.49,-11.75 -1.71,8.26 -1.91,16.69 -0.25,24.98 -6.22,-3.24 -17.85,-3.52 -16.24,-13.23zm-43.33 -48.58c23.01,-10.69 49.37,-6.35 73.3,-1.53 -3.87,7.59 -7.85,15.11 -12.03,22.53 -22.38,-0.63 -44.26,2.9 -36.27,29.18 -18.66,-4.38 -38.03,-5.19 -56.92,-2.01 3.34,-6.07 8.44,-10.76 13.1,-15.73 0.36,-13.1 6.35,-26.79 18.82,-32.44zm375.39 -21.9c21.95,-10.1 33.66,31.44 37.41,43.71 -20.92,-6.67 -42.31,-12.23 -64.2,-14.55 6.9,-11.22 14.37,-23.43 26.79,-29.16zm-254.62 -15.12c8.05,8.44 16.03,16.98 24.14,25.39 51.34,-23.35 124.16,-36.56 159.38,20.14 -51.42,-1.02 -81.65,26.54 -120.28,2.17 -16.93,-10.33 -41.09,-10.28 -54.45,5.96 48.16,-10.94 66.64,19.53 50.39,25.69 -12.15,4.52 -23.55,10.66 -34.15,18.13 -0.36,-8.82 2.98,-16.95 8.38,-23.76 -9.45,-1.43 -19.16,-0.97 -28.04,2.75 22.86,49.19 -79.68,59.43 -42.1,-13.86 7.78,-14.37 23.66,-56.33 36.73,-62.61zm-14.58 192.35c-5.15,0.76 -4.49,8.56 0.58,8.62 100.86,-0.23 36.52,25.86 58.25,34.15 13.47,-10.76 36.15,-52.4 10.96,-51.87 -23.43,1.17 -46.93,3.67 -69.79,9.1z"/>
   <path class="fil4" d="M409.65 790.88c-56.65,7.78 -31.38,-249.08 -30.84,-275.91 4.43,-220.23 -21.51,-224.82 65.43,-269.53 0.11,-28.37 3.34,-56.74 1.35,-85.08 -64.86,19.75 -130.07,54.16 -189.82,85.85 0.33,31.35 -3.21,62.7 -1.2,94 80.42,-35.03 48.49,-30.59 46.7,386.91 0.08,27.64 -1.94,55.34 0.59,82.9 89.72,-34.66 88.17,0.57 167.49,49.09 115.49,-108.37 118.38,-254.3 120.24,-400.42 3.19,-251.62 -16.07,-257.54 57.86,-279.85 1.3,-26.28 0.69,-52.61 1.35,-78.92 -56,15.86 -113.1,28.17 -167.88,48.18 -2.77,27.42 -0.38,55.05 -2.57,82.51 82.68,-18.02 57.62,-14.73 51.82,230.68 -2.28,96.43 16.88,310.7 -120.52,329.59zm283.99 -89.58c12.1,-66.09 48.94,-127.01 101.6,-168.71 -59.29,17.97 -109.17,63.24 -133.9,119.9 12.16,15.32 22.99,31.61 32.3,48.81zm24.87 27.02c24.37,-21.1 55.27,-32.98 86.36,-39.97 -3.1,-7.9 -6.14,-15.83 -9.25,-23.7 -17.56,5.3 -34.74,11.93 -50.67,21.05 11.65,-16.84 27.4,-30.92 46.03,-39.58 -1.3,-7.06 -2.5,-14.12 -3.51,-21.21 -11.04,6.02 -21.42,13.08 -31.36,20.77 7.78,-15.67 17.72,-30.38 30.34,-42.59 -0.03,-7.67 0.17,-15.34 0.66,-22.99 -38.7,39.81 -62.91,93.06 -68.6,148.22zm414.67 213.17c-79.57,-13.94 -164.46,-11.47 -239.19,21.65 -14.63,5.96 -27.81,14.78 -42.19,21.23 95.33,3.57 191.2,-11.98 281.38,-42.88zm36.17 -14.19c-93.22,-230.1 -95.6,-170.25 -172.61,-98.01 -21.71,-19.56 -38.1,-57.03 -62.76,-71.22 1.96,41.5 21.23,82.05 52.48,109.48 23.58,-16.82 46.68,-34.41 68.01,-54.01 -19.01,34.31 -45.01,64.13 -73.05,91.35 60.3,-3.43 132.35,-6.06 187.93,22.41zm226.41 -737.83c73.25,18.85 61.9,124.89 72.11,185.18 21.36,122.48 36.12,246 49.17,369.6 46.8,0.67 93.39,7.01 138.97,17.49 14.11,-59.31 73.4,-366.26 102.11,-403.2 13.51,-1.32 25.75,5.02 36.32,12.69 1.81,-32.55 3.72,-65.15 2.02,-97.75 -53.58,-30.63 -112.52,-68.04 -171.81,-86.56 -5.37,27.9 -1.86,59.39 -1.19,87.66 41.13,22.82 60.92,34.64 52.91,84.9 -8.22,51.66 -64.6,319.45 -82.81,355.74 -8.22,-47.65 -81.28,-460.28 -56.59,-472.66 17.89,-1.43 32.52,10.25 49.07,14.71 4.3,-102.51 39.46,-83.95 -188.96,-146.62 -0.56,26.28 -1.89,52.54 -1.32,78.82zm-281.03 -48.82c77.24,7.66 57.19,26.46 49.4,280.01 -5.6,182.34 23.48,187.84 -58.32,185.74 0.02,24.32 -0.23,48.64 0.15,72.96 181.87,34.79 251.46,89.13 334.76,110.93 7.17,-94.88 0.8,-190.85 5.53,-285.92 -12.64,-9.76 -28.78,-12.49 -42.82,-19.5 -4.02,233.4 -32.38,172.3 -165.81,145.7 -0.84,-110 -2.83,-351.49 11.72,-457.21 3.32,-24.09 42.63,-8.85 56.41,-7.47 0.92,-25.16 0.97,-50.35 0.59,-75.53 -63.08,-8.98 -126.38,-19.32 -190.11,-22.2 -2.7,24.06 -1.12,48.33 -1.5,72.49zm-447.48 33.68c86.48,-11.14 58.37,-28.63 52.39,353.67 18.58,-12.37 38.05,-23.45 58.52,-32.4 0.4,-95.93 1.27,-192.98 7.24,-288.7 46.09,100.2 131.58,362.67 168.31,467.21 25.41,1.22 50.83,-2.68 76.22,-0.11 13.67,-139.44 -7.17,-400.6 15.14,-521.34 3.57,-19.37 35.44,-14.05 49.06,-14.3 0.69,-22.13 5.17,-50.65 -0.4,-72.16 -56.74,0.99 -113.61,-5.1 -170.23,0.94 0.95,23.71 -1.75,47.46 0.16,71.14 76.75,1.4 59.57,-3.96 55.64,217.66 -0.97,45.86 -1.17,91.76 -4.56,137.54 -39.68,-92.72 -120.94,-320.52 -149.35,-420.88 -50.08,6.85 -108.09,6.52 -156.05,23.88 -0.66,25.95 -1.22,51.9 -2.09,77.85z"/>
  </g>
 </g>
</svg>
