<?xml version="1.0" encoding="UTF-8"?>
<!DOCTYPE svg PUBLIC "-//W3C//DTD SVG 1.1//EN" "http://www.w3.org/Graphics/SVG/1.1/DTD/svg11.dtd">
<!-- Creator: CorelDRAW -->
<svg xmlns="http://www.w3.org/2000/svg" xml:space="preserve" width="2000px" height="1600px" version="1.1" style="shape-rendering:geometricPrecision; text-rendering:geometricPrecision; image-rendering:optimizeQuality; fill-rule:evenodd; clip-rule:evenodd"
viewBox="0 0 2000 1600"
 xmlns:xlink="http://www.w3.org/1999/xlink">
 <defs>
  <style type="text/css">
   <![CDATA[
    .fil0 {fill:black;fill-rule:nonzero}
    .fil1 {fill:#156936;fill-rule:nonzero}
    .fil2 {fill:#FEFEFE;fill-rule:nonzero}
   ]]>
  </style>
 </defs>
 <g id="Capa_x0020_1">
  <metadata id="CorelCorpID_0Corel-Layer"/>
  <g id="USC_x0020_Upstate_x0020_Spartans.cdr">
   <path class="fil0" d="M551.31 119.1c179.79,0.02 359.58,-0.02 539.36,0.02 -49.42,176.34 -99.09,352.6 -148.34,528.98 11.71,3.11 23.52,6.72 33.69,13.51 16.92,0.03 33.83,0.01 50.76,0.01 8.56,-31.14 17.49,-62.16 26.03,-93.3 42.57,-0.33 85.13,-0.06 127.69,-0.15 42.09,-149.65 84.2,-299.31 125.98,-449.07 179.83,0 359.67,0 539.52,0 -50.74,180.85 -101.49,361.69 -152.26,542.54 10.47,-0.76 21.98,2.44 31.27,-3.89 33.5,-14.16 70.63,-16.18 106.57,-15.69 29.09,0.4 58.47,-1.69 87.22,3.87 22.65,4.22 46,12.2 62.21,29.35 14.57,14.67 20.28,36.23 18.75,56.49 -0.56,16.09 -5.91,31.41 -10.09,46.81 -7.55,26.93 -15.11,53.86 -22.69,80.76 -4.53,18.13 -11.02,36.06 -21.91,51.42 -16.54,23.65 -42.49,39.34 -69.94,47.18 -27.06,7.96 -55.45,9.98 -83.53,9.49 -32.79,-0.49 -66.03,2.07 -98.34,-5 -18.71,-4.07 -38.09,-10.33 -51.81,-24.36 -2.31,8.32 -4.6,16.65 -6.98,24.98 -8.48,-0.07 -16.93,-0.04 -25.39,-0.04 -17.78,64.09 -35.92,128.07 -53.81,192.14 -4.69,16.11 -8.28,32.67 -15.89,47.74 -20.62,42.84 -52.49,79.4 -88.42,110.11 -41.07,35.02 -88.21,62.29 -137.43,84.1 -62.8,27.6 -129.27,46.17 -196.55,58.97 -101.8,19.29 -205.63,25.21 -309.08,24.81 -41.69,-0.98 -83.44,-2.16 -125,-5.87 -79.43,-7.05 -159.1,-20 -234.08,-48 -32.84,-12.38 -64.64,-27.9 -93.47,-48 -30.38,-21.3 -57.54,-48.08 -75.91,-80.57 -22.7,-39.8 -32,-88.07 -21.72,-133.05 18.5,-66.98 37.76,-133.74 56.05,-200.78 -41.56,14.26 -86.09,12.75 -129.4,12.64 -38.14,-0.58 -76.96,2.54 -114.39,-6.58 -22.69,-5.46 -45.85,-16.37 -58.82,-36.64 -11.18,-16.91 -12.74,-38.16 -9.96,-57.74 2.09,-12.8 6.09,-25.15 9.51,-37.62 25.23,-90.18 50.74,-180.28 75.81,-270.5 112.93,0 225.85,0 338.77,0 41.97,-149.7 83.95,-299.4 126.02,-449.07zm393.07 814.35c-26.34,19.76 -59.16,28.62 -91.45,32.31 -8.71,32.25 -18.02,64.36 -26.96,96.56 -1.18,4.58 -2.29,10.07 0.87,14.14 3.26,4.17 9.11,4.04 13.89,4.15 53.35,-0.13 106.71,0.13 160.05,-0.13 23.09,-2.09 43.34,-21 48.25,-43.49 6.8,-24.71 13.97,-49.32 20.66,-74.05 -16.31,0.14 -32.62,0 -48.93,0.09 -14.94,0.09 -30.13,-5.25 -40.89,-15.8 -8.83,-8.6 -14.42,-20.09 -17.05,-32.05 -5.13,7.03 -11.47,13.07 -18.44,18.27z"/>
   <path class="fil1" d="M577.91 155.57c154.99,-0.22 309.98,-0.13 464.98,-0.04 -8.64,34.46 -19.06,68.46 -28.38,102.73 -35.93,127.88 -71.78,255.82 -107.69,383.69 -28.56,1.58 -57.31,0.53 -85.92,0.57 -35.51,3.29 -72.51,9.92 -102.07,31.21 -9.42,-17.14 -27.42,-29.65 -47.07,-31.07 -70.93,0.06 -141.87,0.18 -212.8,-0.05 6.8,-24.82 14.13,-49.47 20.8,-74.33 -5.8,-0.05 -11.6,-0.18 -17.4,-0.4 38.51,-137.43 77.49,-274.75 115.55,-412.31zm-13.37 810.9c32.64,-2.93 66.24,-14.51 88.27,-39.87 11.73,18.89 33.38,28.18 54.05,33.63 12.33,3.11 24.97,4.91 37.58,6.24 23.68,0.31 47.37,-0.09 71.06,0.31 -8.06,30.39 -17.13,60.54 -25.18,90.94 -0.9,10.18 -1.88,21.09 2.63,30.63 6.36,16.97 24.53,28.06 42.4,27.37 57.58,-0.17 115.18,0.23 172.76,-0.2 35.3,-4.64 66.29,-32.82 74.87,-67.33 7.92,-28.43 15.91,-56.83 23.94,-85.21 17.95,0.14 35.89,0.09 53.84,0.01 8.1,-0.41 15.49,4.08 23.59,3.66 21.8,-0.09 43.6,0.02 65.38,-0.09 9.31,0.16 18.13,-3.49 27.42,-3.53 56.87,0.02 113.76,0.09 170.65,-0.04 3.51,-10.6 5.83,-21.54 9.36,-32.14 4.89,6.24 9.26,13.02 15.42,18.11 10.71,9.25 24.96,13.71 38.96,14.14 20.07,0 40.16,-0.2 60.24,0.08 -16.48,60.74 -33.98,121.19 -50.78,181.84 -4.57,15.55 -7.89,31.64 -15.62,46.06 -24.82,47.79 -63.98,86.76 -107.54,117.77 -49.26,35.15 -104.8,60.62 -162,79.86 -89.96,30.23 -184.5,44.58 -278.79,51.99 -11.01,-0.92 -21.74,2.88 -32.74,1.8 -11.6,-0.96 -22.96,2.53 -34.54,2.02 -22.39,-0.82 -44.75,0.33 -67.13,-0.02 -18.18,0.35 -36.34,-0.83 -54.51,-0.03 -7.92,0.32 -15.83,-0.29 -23.67,-1.48 -9.98,-1.51 -20.14,0.69 -30.09,-1.32 -8.29,-1.78 -16.83,-0.24 -25.12,-1.84 -78.38,-6.84 -157.23,-19.03 -231.01,-47.38 -28.49,-11.09 -56.11,-24.8 -81.11,-42.47 -27.51,-19.38 -51.91,-44 -67.69,-73.96 -18.38,-34.73 -25.89,-76.92 -13.51,-114.87 12.11,-42.98 24.08,-86.01 36.2,-128.99 45.96,-0.02 91.91,-0.04 137.85,0.01 2.18,-0.38 6.13,0.51 6.6,-2.6 6.42,-21.96 12.09,-44.16 18.76,-66.05 6.55,1.67 13.2,3.26 20,3.11 16.4,-0.09 32.8,0.09 49.2,-0.16zm769.08 -810.94c155.09,-0.18 310.17,-0.01 465.27,-0.07 -33.48,117.67 -66.16,235.59 -99.37,353.35 -5.68,19.8 -10.69,39.82 -16.98,59.42 -46.55,-0.11 -93.09,-0.08 -139.62,-0.02 -9.09,31.34 -17.23,62.96 -26.78,94.16 -13.51,-0.18 -27.11,0.75 -40.56,-0.4 -23.27,-13.44 -50.43,-17.16 -76.78,-19.55 -29.03,0.46 -58.11,0.5 -87.14,-0.01 -24.35,2.09 -49.02,5 -71.94,13.94 -4.64,1.75 -8.8,4.66 -13.62,5.86 -7.31,0.72 -14.67,0.11 -22,0.18 7.56,-31.66 17.47,-62.75 25.85,-94.22 -4.12,0 -8.23,0 -12.32,0 38.83,-137.48 77.03,-275.17 115.99,-412.64z"/>
   <path class="fil2" d="M1779.95 680.44c30.98,-4.25 62.31,-1.93 93.45,-2.54 21.6,0.34 43.84,1.81 64.05,10.12 10.69,4.58 20.58,12.71 24.28,24.11 4.3,12.56 1.83,26.13 -1.64,38.58 -5.55,19.53 -10.95,39.11 -16.55,58.62 -52.96,-0.02 -105.9,0.03 -158.86,-0.02 -6.17,22.73 -12.8,45.32 -18.98,68.07 -1.82,4.4 0.81,10.56 5.89,10.91 8.51,0.42 17.03,0.09 25.56,0.2 7.2,0.67 14.22,-4.58 15.85,-11.55 4.93,-17.38 9.84,-34.74 14.62,-52.14 37.16,0.07 74.34,0.02 111.52,0.02 -6.98,22.91 -10.3,47.96 -25.27,67.47 -13.52,18.16 -35,28.42 -56.58,33.42 -32.23,7.81 -65.6,5.41 -98.43,5.78 -24.05,0.29 -48.69,-0.22 -71.72,-7.95 -12.73,-4.42 -25.37,-12.98 -29.6,-26.4 -4.78,-15 -0.62,-30.87 3.72,-45.43 9.57,-33.98 19.02,-68 28.62,-101.98 4.98,-17.91 14.46,-35.18 29.42,-46.62 17.31,-13.6 39.2,-19.63 60.65,-22.67zm-1033.02 17.78c25.73,-16.05 56.93,-19.2 86.57,-20.32 34.3,0.76 69.28,-2.79 102.92,5.87 14.71,3.91 30.36,11.89 36,27.03 6.12,16.15 0.74,33.51 -3.77,49.37 -37.2,0.16 -74.39,0.05 -111.59,0.05 2.47,-10.14 6.07,-20.04 8.09,-30.27 1.02,-4.66 -2.82,-9.11 -7.51,-8.93 -8.2,0.33 -17.54,-2.13 -24.76,2.86 -5.17,3.41 -6.13,9.87 -7.77,15.36 -1.29,5.24 -3.61,10.53 -2.69,16.04 1.06,3.52 3.58,6.67 7.15,7.89 35.18,14.43 70.4,28.8 105.58,43.19 11.23,4.82 17.63,17.17 18.07,29 0.83,19.22 -6.09,38.26 -16.56,54.16 -14.15,20.99 -38.49,32.28 -62.66,37.11 -31.87,6.89 -64.61,4.42 -96.94,4.86 -20.56,0.32 -41.34,-0.46 -61.36,-5.57 -15.35,-3.83 -31.73,-12.23 -37.18,-28.18 -6.56,-18.91 1.73,-38.29 6.49,-56.6 37.22,0.11 74.42,0.02 111.63,0.06 -3.51,12.11 -6.91,24.27 -10.27,36.42 -1.62,4.27 0.64,9.9 5.45,10.63 9.06,0.51 18.13,0.13 27.2,0.2 6.15,0.24 12.4,-3.85 14.24,-9.8 2.05,-6.49 3.82,-13.09 5.62,-19.67 1.91,-5.69 -0.24,-13.29 -6.4,-15.2 -33.17,-13.65 -66.4,-27.16 -99.62,-40.74 -6,-2.59 -12.78,-4.39 -17.14,-9.59 -7.84,-8.78 -9.35,-21.47 -7.42,-32.68 3.85,-24.82 16.89,-49.07 38.63,-62.55zm823.1 -94.45c34.16,0.09 68.31,-0.03 102.47,0.06 -8.76,31.25 -17.49,62.52 -26.34,93.74 8.43,-0.02 16.89,-0.06 25.36,0.05 -3.4,11.95 -6.82,23.89 -9.98,35.89 -8.57,0.22 -17.11,-0.03 -25.66,0.29 -13.16,48.16 -26.98,96.14 -40.32,144.25 -1.35,4.02 0.72,8.93 5.01,10 5.73,0.87 11.59,0.31 17.37,0.35 -3.62,12.91 -7.18,25.81 -10.87,38.7 -28.2,-0.05 -56.4,-0.03 -84.58,-0.01 -7.31,-0.08 -15.02,0.78 -21.78,-2.53 -9,-4 -14.31,-14.15 -13.39,-23.82 0.51,-4.83 1.95,-9.49 3.29,-14.14 14.39,-50.98 28.55,-102.04 43.02,-153 -8.51,0.02 -17,0.06 -25.47,-0.05 3.53,-11.96 6.84,-23.98 10.15,-36 8.4,0.02 16.79,-0.04 25.21,0.07 9.07,-31.21 17.55,-62.6 26.51,-93.85zm-516.03 93.82c8.85,-31.24 17.7,-62.47 26.27,-93.78 34.18,0 68.36,-0.02 102.54,0.02 -8.6,31.27 -17.45,62.48 -26.24,93.72 8.46,0.02 16.91,0.04 25.37,-0.02 -3.37,12.04 -6.78,24.04 -10.09,36.09 -8.48,0 -16.97,0 -25.44,0 -13.27,48 -26.93,95.91 -40.31,143.89 -1.49,4.03 0.28,8.43 3.98,10.5 6,0.91 12.11,0.31 18.17,0.48 -3.35,12.91 -7.29,25.67 -10.64,38.58 -31.07,0.03 -62.12,-0.04 -93.19,0.03 -6.62,0.13 -13.59,-1.43 -18.62,-5.96 -7.49,-6.18 -9.68,-17.02 -7.09,-26.11 14.94,-53.81 30.3,-107.52 45.12,-161.39 -8.38,-0.04 -16.76,0 -25.12,-0.04 3.27,-12.03 6.69,-24.05 10.09,-36.05 8.4,0.02 16.8,0 25.2,0.04zm-939.88 -93.84c40.44,0.11 80.89,0.04 121.32,0.04 -21.41,76.52 -42.94,153.01 -64.39,229.52 -1.26,4.93 -3.29,9.74 -3.6,14.89 -0.28,4.93 5.22,7.63 9.54,7.25 17.07,-0.02 34.17,-0.03 51.25,0 7.1,0.55 14.11,-4.38 15.71,-11.34 22.62,-80.11 44.93,-160.27 67.56,-240.36 40.44,0.11 80.89,0.02 121.33,0.04 -7,24.73 -13.98,49.45 -20.82,74.22 84.18,-0.24 168.34,0 252.52,-0.11 7.74,-0.2 15.63,3.27 20.47,9.4 5.09,6.65 5.58,15.65 3.6,23.54 -11.58,41.22 -23.18,82.41 -34.71,123.63 -5.67,18.98 -9.49,38.93 -19.89,56.07 -9.49,16.38 -25,29.26 -43.12,34.87 -22.58,7.69 -46.71,5.95 -70.17,6.06 -17.79,-0.6 -35.7,-7.86 -47.67,-21.31 -8.03,28.67 -16.14,57.33 -24.1,86.02 -31.13,-0.04 -62.24,0 -93.35,0 20.09,-71.02 39.87,-142.13 59.93,-213.16 31.02,-0.02 62.03,-0.02 93.07,0 -6.02,22.4 -12.53,44.65 -18.69,67 -0.89,3.16 -1.49,7.31 1.4,9.67 2.38,2.51 6.14,2.16 9.29,2.31 13.91,-0.15 27.82,0.16 41.72,-0.15 6.24,-0.11 12.15,-4.58 13.62,-10.69 10.04,-35.51 19.98,-71.03 29.93,-106.56 1.4,-3.18 -0.29,-6.25 -1.27,-9.22 -3,-1.09 -6.08,-2.01 -9.3,-1.8 -59.61,0.04 -119.21,0.1 -178.81,-0.01 -13.14,45.74 -25.76,91.65 -38.7,137.45 -4.86,16.5 -13.64,32.23 -27.06,43.29 -18.02,15.03 -41.47,21.39 -64.32,24.39 -15.11,2.13 -30.4,2.28 -45.62,2.19 -31.51,0 -63,0 -94.5,0 -19.49,-0.11 -39.31,-1.49 -57.93,-7.69 -11.91,-4.08 -23.82,-11.42 -28.98,-23.44 -5.62,-12.87 -3.47,-27.42 0.24,-40.51 24.81,-88.5 49.65,-176.99 74.5,-265.5zm1155.47 80.75c33.96,-8.77 69.25,-6.22 103.96,-6.59 21.94,-0.25 44.29,0.62 65.49,6.84 12.92,3.91 26.07,11.31 31.81,24.14 5.84,13.11 3.46,27.93 -0.27,41.29 -16.56,58.97 -33.04,117.98 -49.69,176.92 -49.16,-0.07 -98.3,-0.01 -147.47,-0.03 -9.74,0.56 -19.09,4.11 -28.9,4.29 -18.26,0.31 -36.51,0.07 -54.77,0.13 -12.9,0.09 -25.7,-8.6 -28.99,-21.35 -4.13,-13.13 2.3,-26.09 5.36,-38.67 3.54,-11.05 5.24,-22.8 10.54,-33.22 8.8,-15.01 23.2,-27.43 40.38,-31.52 45.37,-11.78 90.66,-23.89 136.07,-35.53 3.67,-13.23 7.53,-26.43 11.13,-39.71 1.67,-4.47 -1.22,-9.7 -5.98,-10.41 -8.28,-0.51 -16.58,-0.04 -24.86,-0.22 -7.18,-0.68 -14.71,3.96 -16.52,11.11 -4.33,14.96 -8.4,30 -12.69,44.98 -37.18,0.03 -74.35,-0.06 -111.53,0.05 5.8,-19.51 9.22,-40.42 21.38,-57.29 12.75,-18.78 33.95,-29.92 55.55,-35.21zm35.23 139.77l0 0c-4.83,2.38 -10.02,4.66 -13.51,8.95 -7.2,8.16 -7.72,19.63 -11.18,29.52 -1.52,7.82 -6.78,15.75 -3.2,23.71 6.84,3.4 14.64,1.58 21.98,2.02 5.99,-0.33 12.68,1.25 17.98,-2.33 3.48,-2.2 5.68,-5.87 6.71,-9.8 6.64,-23.51 13.15,-47.09 19.86,-70.58 -12.93,6.09 -25.73,12.4 -38.64,18.51zm501.53 -92.03l0 0c-3.2,11.11 -6.16,22.29 -9.4,33.4 15.8,-0.06 31.58,-0.02 47.4,-0.02 2.71,-9.93 5.47,-19.85 8.33,-29.74 0.89,-3.6 2.23,-7.48 0.74,-11.11 -1.98,-2.84 -5.54,-4.09 -8.89,-3.89 -8,0.01 -15.98,-0.1 -23.94,0.07 -6.57,0.07 -12.64,4.96 -14.24,11.29z"/>
  </g>
 </g>
</svg>
