<?xml version="1.0" encoding="UTF-8"?>
<!DOCTYPE svg PUBLIC "-//W3C//DTD SVG 1.1//EN" "http://www.w3.org/Graphics/SVG/1.1/DTD/svg11.dtd">
<!-- Creator: CorelDRAW -->
<svg xmlns="http://www.w3.org/2000/svg" xml:space="preserve" width="2000px" height="1600px" version="1.1" style="shape-rendering:geometricPrecision; text-rendering:geometricPrecision; image-rendering:optimizeQuality; fill-rule:evenodd; clip-rule:evenodd"
viewBox="0 0 2000 1600"
 xmlns:xlink="http://www.w3.org/1999/xlink">
 <defs>
  <style type="text/css">
   <![CDATA[
    .fil1 {fill:#113156;fill-rule:nonzero}
    .fil0 {fill:#ACAAA4;fill-rule:nonzero}
   ]]>
  </style>
 </defs>
 <g id="Capa_x0020_1">
  <metadata id="CorelCorpID_0Corel-Layer"/>
  <g id="Utah_x0020_State_x0020_Aggies.cdr">
   <path class="fil0" d="M35.09 541.82c16.34,-13.15 37.32,-19.83 58.23,-19.64 376.07,-0.07 752.17,-0.02 1128.24,-0.02 117.39,-0.29 234.78,0.62 352.14,-0.6 139.07,-0.03 278.13,-0.03 417.22,0 -0.24,47.76 1.01,95.49 0.65,143.26 -74.8,-4.79 -149.58,-9.61 -224.43,-13.39 -0.1,14.75 -0.1,29.51 -0.03,44.28 70.3,5.25 140.6,10.71 210.81,17.15 -0.63,44.94 0.86,89.82 0.45,134.73 -70.11,-10.58 -140.31,-20.67 -210.73,-29 1.08,17.41 0.48,34.87 0.62,52.33 77.47,11.57 154.85,23.69 231.74,38.69l0 138.01c-29.65,-8.89 -60.07,-15.14 -90.15,-22.52 -104.53,-24.21 -210.07,-44.12 -316.24,-59.76 -1.39,-30.8 -0.56,-61.63 -0.82,-92.43 -1.41,-37.46 0.19,-74.97 -1.2,-112.43 0.41,-39.07 -0.52,-78.13 -0.62,-117.2 -35.33,-1.34 -70.71,-1.6 -106.03,-2.63 1.41,30.39 0.35,60.81 0.74,91.23 1.36,36.65 -0.24,73.37 1.17,110.01 -0.41,37.97 0.5,75.88 0.55,113.85 -118.18,-15.24 -237.08,-25.15 -356.17,-29.61 -11.33,-25 -22.25,-50.22 -33.91,-75.11 -53.92,-2.01 -107.91,-1.22 -161.87,-1.2 -10.92,24.65 -21.8,49.29 -32.74,73.92 -113.13,2.9 -226.16,9.75 -338.64,22.2 0.12,-102.56 1.42,-205.12 1.73,-307.71 -41.49,1.63 -83,2.42 -124.43,4.53 -0.1,15.42 0.04,30.87 -0.1,46.3 -17.53,1.22 -35.11,2.01 -52.67,2.96 18.59,5.83 38.73,12.65 50.47,29.3 8.93,11.88 8.64,27.4 8.28,41.53 -1.48,35.91 0.17,71.86 -1.17,107.76 0.19,12.15 0.48,24.96 -5.7,35.91 -11.79,22.39 -32.41,38.73 -53.82,51.42 -15.64,9.03 -32.6,16.22 -50.52,19.12 -84.45,13.74 -168.28,31.06 -251.71,49.96 -41.44,8.41 -84.67,-27.76 -83.3,-70.09 0.19,-38.39 -0.1,-76.78 0.14,-115.18 15.35,-2.42 30.73,-4.62 46.08,-7.02 -22.87,-10.42 -41.79,-30.61 -47.35,-55.54l0 -175.86c3.43,-23.95 15.81,-46.71 35.09,-61.51zm185.29 -457.36c180.63,-0.03 361.22,-0.05 541.85,0.02 0.12,131.78 -0.07,263.59 0.09,395.4 -8,0.36 -16,0.46 -24,0.38 0,-123.76 0.03,-247.49 -0.02,-371.25 -164.86,-0.05 -329.7,-0.05 -494.56,0 -0.05,123.76 -0.03,247.49 -0.03,371.25 -7.83,0.05 -15.66,-0.02 -23.49,-0.38 0.35,-131.81 0.02,-263.62 0.16,-395.42zm1055.12 0c180.6,-0.03 361.22,-0.05 541.84,0.02 0,131.81 0.07,263.59 -0.02,395.4 -7.95,0.36 -15.93,0.46 -23.86,0.38 -0.07,-123.76 -0.02,-247.49 -0.02,-371.23 -164.7,-0.05 -329.37,-0.12 -494.06,0.02 0.02,123.74 0.07,247.48 -0.03,371.21 -7.97,0.08 -15.92,-0.02 -23.88,-0.4 -0.02,-131.79 -0.04,-263.6 0.03,-395.4zm-537.18 893.39c7.91,-0.56 15.84,-1.08 23.74,-1.59 0.5,59.84 0,119.69 0.26,179.55 0.84,26.32 2.54,53.32 12.55,77.99 10.66,27.42 35.29,47.14 62.59,56.62 49.25,17.53 102.44,17.53 154.11,17.37 56.45,-0.77 113.44,3.11 169.34,-6.88 32.91,-6.06 67.83,-17.46 89.13,-44.91 21.77,-28.38 24.16,-65.82 25.34,-100.21 0.09,-59.81 0.17,-119.64 -0.03,-179.45 8,0.52 15.98,1.1 24,1.77 0.03,59.14 0.17,118.3 -0.07,177.44 -1.27,40.67 -5.05,84.98 -31.85,117.77 -25.8,31.57 -66.62,45.1 -105.44,52.07 -39.57,7.19 -79.91,7.33 -120,6.95 -59.76,-0.72 -120.34,3.57 -179.16,-9.54 -36.98,-7.9 -75.24,-23.83 -97.42,-56 -22.97,-32.95 -25.84,-74.68 -27.01,-113.55 -0.2,-58.47 0,-116.94 -0.08,-175.4zm-525.29 74.61c10.13,-2.37 20.31,-4.55 30.51,-6.61 0.41,54.97 0.03,109.94 0.2,164.91 1.1,47.42 21.1,93.03 50.87,129.43 29.73,36.58 69.25,64.05 111.23,84.87 85.39,41.19 180.36,57.41 274.18,64.47 47.88,4.1 95.98,2.33 143.96,2.69 146.1,0 292.21,0 438.32,0 81.2,1.07 162.73,-5.99 242.06,-23.59 77.7,-17.87 155.59,-47.57 214.78,-102.69 46.08,-43.16 78.51,-105.12 74.32,-169.48 -0.21,-50.02 0.24,-100.03 -0.24,-150.06 8.89,1.58 17.73,3.37 26.52,5.41l-2.28 0.55c-0.19,48.84 -0.14,97.68 -0.02,146.54 2.54,46.54 -12.7,92.74 -37.58,131.69 -39.04,60.91 -101.25,103.4 -167.43,130.3 -95.66,38.82 -199.59,51.81 -302.08,55.83 -194.16,0.07 -388.31,0.07 -582.45,0 -99.61,-3.88 -200.4,-16.26 -293.94,-52.36 -64.47,-25.12 -125.86,-63.81 -166.99,-120.48 -30.8,-42.35 -49.53,-94.78 -46.64,-147.5 0.05,-48.47 0.08,-96.93 -0.02,-145.38 -1.82,0.35 -5.46,1.1 -7.28,1.46zm530.68 -169.51c41.99,-83.57 84.72,-166.78 127.48,-249.97 -42.09,-0.4 -84.15,0.94 -126.21,1.13 -0.36,27.69 0.48,55.4 -0.67,83.09 0.17,55.26 0,110.51 -0.6,165.75zm435.4 -250.11c43.12,85.32 86.35,170.59 128.53,256.38 -0.6,-38.92 -0.5,-77.89 -0.45,-116.81 -1.61,-45.63 0.43,-91.33 -1.32,-136.96 -42.25,-1.22 -84.53,-1.37 -126.76,-2.61zm-160.81 29.46c-12.02,26.3 -24.05,52.6 -35.81,79.02 23.04,0 46.09,0.02 69.15,-0.03 -11.16,-26.29 -22.03,-52.74 -33.34,-78.99z"/>
   <path class="fil1" d="M943.95 538.28c54.28,0.07 108.53,0.04 162.81,0 65.17,126.25 130.27,252.55 192.26,380.4 -50.71,-3.52 -101.44,-6.94 -152.24,-8.69 -11.02,-25.2 -22.49,-50.18 -33.56,-75.35 -64.36,-2.3 -128.81,-1.58 -193.22,-1.73 -11.19,24.89 -22.11,49.87 -33.15,74.8 -45.1,1.13 -90.23,2.69 -135.28,5.49 63.16,-125.49 127.33,-250.44 192.38,-374.92zm-760.72 -491.57l615.57 0 0 432.93 -36.48 0c-0.16,-131.73 0.03,-263.46 -0.09,-395.16 -180.63,-0.07 -361.22,-0.05 -541.85,-0.02 -0.14,131.72 0.19,263.45 -0.16,395.18l-36.99 0 0 -432.93zm555.09 432.93l-494.61 0c0,-123.55 -0.02,-247.08 0.03,-370.63 164.86,-0.05 329.7,-0.05 494.56,0 0.05,123.55 0.02,247.08 0.02,370.63zm-555.11 579.28c9.94,-2.13 19.88,-4.33 29.82,-6.46 1.82,-0.36 5.46,-1.11 7.28,-1.46 0.1,48.45 0.07,96.91 0.02,145.38 -2.89,52.72 15.84,105.15 46.64,147.5 41.13,56.67 102.52,95.36 166.99,120.48 93.54,36.1 194.33,48.48 293.94,52.36 194.14,0.07 388.29,0.07 582.45,0 102.49,-4.02 206.42,-17.01 302.08,-55.83 66.18,-26.9 128.39,-69.39 167.43,-130.3 24.88,-38.95 40.12,-85.15 37.58,-131.69 -0.12,-48.86 -0.17,-97.7 0.02,-146.54l2.28 -0.55c11.57,2.54 23.18,5.01 34.75,7.59 0,52.84 0.03,105.68 0,158.52 -1.72,47.04 -17.91,92.91 -43.09,132.45 -40.43,63.48 -103.4,109.73 -171.66,139.62 -94.3,41.46 -197.58,56.91 -299.67,63.3l-641.99 0c-98.46,-6.17 -197.89,-20.76 -289.55,-58.82 -69.01,-28.55 -133.54,-72.81 -176.15,-135.09 -31.61,-46.16 -50.85,-101.89 -49.15,-158.18 0,-47.43 0,-94.85 -0.02,-142.28zm60.33 -13.07c163.21,-33.35 328.63,-55.96 494.78,-68 0.08,58.46 -0.12,116.93 0.08,175.4 1.17,38.87 4.04,80.6 27.01,113.55 22.18,32.17 60.44,48.1 97.42,56 58.82,13.11 119.4,8.82 179.16,9.54 40.09,0.38 80.43,0.24 120,-6.95 38.82,-6.97 79.64,-20.5 105.44,-52.07 26.8,-32.79 30.58,-77.1 31.85,-117.77 0.24,-59.14 0.1,-118.3 0.07,-177.44 165.85,12.29 330.93,35.02 493.87,68.29 0.48,50.03 0.03,100.04 0.24,150.06 4.19,64.36 -28.24,126.32 -74.32,169.48 -59.19,55.12 -137.08,84.82 -214.78,102.69 -79.33,17.6 -160.86,24.66 -242.06,23.59 -146.11,0 -292.22,0 -438.32,0 -47.98,-0.36 -96.08,1.41 -143.96,-2.69 -93.82,-7.06 -188.79,-23.28 -274.18,-64.47 -41.98,-20.82 -81.5,-48.29 -111.23,-84.87 -29.77,-36.4 -49.77,-82.01 -50.87,-129.43 -0.17,-54.97 0.21,-109.94 -0.2,-164.91zm518.52 -69.59c12.24,-0.71 24.46,-1.6 36.72,-2.17 0.07,40.59 0,81.17 0.02,121.77 0.07,28.72 -0.55,57.53 1.97,86.2 1.96,18.56 5.34,38.35 17.72,53.08 13.49,15.45 33.73,22.37 53.13,26.85 48.04,10.37 97.46,7.71 146.25,8.07 43.14,-0.33 86.51,1.73 129.34,-4.62 24.77,-3.93 51.45,-9.68 69.89,-27.95 17.85,-19.26 19.45,-47.19 21.01,-72.05 1.77,-63.76 0.33,-127.57 0.86,-191.35 12.12,0.74 24.24,1.5 36.38,2.25 0.2,59.81 0.12,119.64 0.03,179.45 -1.18,34.39 -3.57,71.83 -25.34,100.21 -21.3,27.45 -56.22,38.85 -89.13,44.91 -55.9,9.99 -112.89,6.11 -169.34,6.88 -51.67,0.16 -104.86,0.16 -154.11,-17.37 -27.3,-9.48 -51.93,-29.2 -62.59,-56.62 -10.01,-24.67 -11.71,-51.67 -12.55,-77.99 -0.26,-59.86 0.24,-119.71 -0.26,-179.55zm-668.6 -433.24c86.2,-1.2 172.41,-1.53 258.61,-2.33 25.53,-0.5 52.19,12.7 63.48,36.32 7.11,13.82 4.28,29.75 4.81,44.64 -0.82,16.89 -0.58,33.78 -0.62,50.66 -46.73,2.16 -93.42,5.03 -140.12,7.57 -0.03,-14.66 0.07,-29.32 0.02,-43.98 0.79,-9.6 -10.01,-15.47 -18.47,-14.8 -29.65,1.25 -59.3,2.47 -88.95,3.74 -8.1,0.26 -15.02,7.86 -14.71,15.93 -0.07,20.93 0,41.87 0.02,62.8 41.68,-0.19 83.33,1.15 125.01,1.32 34.78,1.96 70.37,-1.92 104.45,6.89 16.24,4.48 35.29,13.51 38.3,32.03 0.96,15.18 0.51,30.44 0.17,45.65 -1.17,34.18 0.89,68.43 -1.27,102.57 -4.33,17.86 -18.87,31.01 -33.01,41.72 -16.45,11.93 -35.06,21.92 -55.4,24.84 -77.22,12.26 -154.06,26.78 -230.44,43.42 -8.69,1.8 -17.27,4.53 -26.2,4.67 -29.34,0.99 -57.1,-24.91 -57.01,-54.46 0.05,-30.83 -0.05,-61.63 0.07,-92.43 46.64,-7.38 93.3,-14.93 140.17,-20.75 -0.09,17.77 -0.19,35.55 -0.02,53.32 0.09,7.11 8.21,11.88 14.73,10.35 28,-4.53 56.02,-8.89 84.05,-13.03 7.97,-1.06 16.12,-8.03 15.49,-16.6 0.29,-20.74 -0.6,-41.53 0.77,-62.28 -66.9,1.73 -133.77,5.61 -200.65,8.41 -20.26,-1.05 -38.44,-14.47 -49.27,-31.07 -4.26,-6.8 -6.94,-14.68 -6.56,-22.75 0.1,-45.56 0.02,-91.09 0.05,-136.62 -0.05,-12.12 -0.65,-24.58 3.33,-36.19 9.07,-29.11 38.44,-51.02 69.17,-49.56zm1037.13 -4.6c44.72,-0.62 89.39,1.01 134.1,0.5 117.37,-0.21 234.71,1.2 352.05,1.22 35.12,1.51 70.28,-0.38 105.39,1.15 82.37,-0.09 164.72,1.49 247.09,1.73 0.55,32.98 0.12,65.99 0.22,98.99 -74.85,-4.05 -149.73,-8.5 -224.65,-10.85 1.25,27.45 0.55,54.95 0.72,82.42 70.28,5.77 140.55,11.57 210.71,18.69 0.16,30.22 0.04,60.43 0.07,90.65 -69.94,-9.75 -139.98,-18.73 -210.16,-26.32 -0.41,30.3 0.43,60.6 0.6,90.9 77.92,11.54 155.62,24.67 232.94,39.73 -0.05,31.05 -0.03,62.09 0,93.11 -120.44,-28.89 -242.16,-52.41 -364.72,-70.28 -1.06,-108.07 -1.34,-216.17 -2.37,-324.26 -49.68,-2.01 -99.41,-2.61 -149.11,-3.62 -0.07,79.62 1.42,159.19 1.2,238.78 1.03,24.67 0.55,49.34 0.5,74.04 -44.98,-5.16 -90.01,-9.92 -135.13,-13.63 -1.37,-33.66 -0.43,-67.36 -0.67,-101.03 -1.2,-36.67 -0.39,-73.37 -0.63,-110.06 -1.22,-30.54 -0.28,-61.13 -0.64,-91.69 -52.79,-0.89 -105.56,-1.94 -158.38,-2.42 -13.05,-25.92 -25.67,-52.05 -39.13,-77.75zm-424.08 1.1c71.19,-1.17 142.42,-0.38 213.63,-0.57 -12.64,25.89 -26.01,51.42 -38.8,77.24 -52.67,-0.45 -105.29,1.13 -157.94,1.15 -1.17,60.51 0,121.03 -1.24,181.51 -0.39,38.85 0.86,77.73 -0.72,116.55 -45.2,3 -90.4,6.33 -135.48,11 0.08,-64.87 1.03,-129.75 0.89,-194.66 1.58,-37.1 -0.55,-74.28 1.27,-111.38 -48.93,0.98 -97.89,2.4 -146.83,4.05 0.03,-27.86 0.03,-55.69 0,-83.55 34.92,-1.58 69.92,-0.38 104.87,-0.72 53.43,-1.17 106.92,-0.4 160.35,-0.62zm532.41 -59.88l0 -432.93 615.57 0 0 432.93 -37.17 0c0.09,-131.73 0.02,-263.43 0.02,-395.16 -180.62,-0.07 -361.24,-0.05 -541.84,-0.02 -0.07,131.73 -0.05,263.47 -0.03,395.18l-36.55 0zm554.54 0l-494.11 0c0.1,-123.53 0.05,-247.06 0.03,-370.59 164.69,-0.14 329.36,-0.07 494.06,-0.02 0,123.53 -0.05,247.06 0.02,370.61zm-841.87 278.45l0 0c43.4,0.04 86.81,-0.27 130.21,0.52 -21.03,-49.58 -41.49,-99.4 -62.73,-148.88 -22.95,49.24 -44.82,98.99 -67.48,148.36z"/>
  </g>
 </g>
</svg>
