<?xml version="1.0" encoding="UTF-8"?>
<!DOCTYPE svg PUBLIC "-//W3C//DTD SVG 1.1//EN" "http://www.w3.org/Graphics/SVG/1.1/DTD/svg11.dtd">
<!-- Creator: CorelDRAW -->
<svg xmlns="http://www.w3.org/2000/svg" xml:space="preserve" width="2000px" height="1600px" version="1.1" style="shape-rendering:geometricPrecision; text-rendering:geometricPrecision; image-rendering:optimizeQuality; fill-rule:evenodd; clip-rule:evenodd"
viewBox="0 0 2000 1600"
 xmlns:xlink="http://www.w3.org/1999/xlink">
 <defs>
  <style type="text/css">
   <![CDATA[
    .fil1 {fill:black;fill-rule:nonzero}
    .fil0 {fill:#BA8D08;fill-rule:nonzero}
    .fil2 {fill:#FEFEFE;fill-rule:nonzero}
   ]]>
  </style>
 </defs>
 <g id="Capa_x0020_1">
  <metadata id="CorelCorpID_0Corel-Layer"/>
  <g id="Vanderbilt_x0020_Commodores.cdr">
   <path class="fil0" d="M1001.78 0l0.71 0c68.23,193.32 137.45,386.28 206.25,579.42 203,-0.05 406.01,0 609.01,-0.02l0 3.88 -0.02 -2.89c-160.21,121.81 -320.54,243.47 -480.72,365.28 77.65,205.29 155.54,410.5 233.26,615.77 4.77,12.83 10.09,25.45 14.05,38.56l-0.38 0c-67.86,-42.19 -136.95,-82.38 -205.29,-123.81 -126.6,-75.75 -252.8,-152.12 -379.51,-227.68 -186.04,112.13 -372.26,224 -558.35,336.05 -8.09,4.89 -16.66,9.13 -23.81,15.44l-1.09 0c14.73,-43.46 32.25,-85.93 48.12,-128.99 66.28,-175.14 132.82,-350.2 199,-525.36 -152.52,-115.88 -304.99,-231.73 -457.51,-347.59 -7.78,-5.98 -15.82,-11.64 -23.25,-18.05l0 -0.99c58.32,0.91 116.69,0.12 175.04,0.38 144.66,0.02 289.34,-0.05 434,0.02 50.71,-139.69 101.3,-279.43 151.91,-419.17 19.73,-53.35 38.19,-107.18 58.58,-160.25z"/>
   <path class="fil1" d="M993.99 132.03c2.41,-6.34 3.85,-13.31 8.27,-18.69 59.76,167.81 119.63,335.6 179.37,503.41 71.78,-0.2 143.57,0.68 215.33,-0.61 104.97,0.15 209.93,-0.18 314.88,0.15 -139.16,106.83 -279.43,212.21 -418.79,318.81 71.96,189.47 143.74,378.98 215.45,568.55 -169.89,-101.58 -339.42,-203.74 -509.29,-305.37 -80.91,48.91 -162,97.49 -242.99,146.28 -88.24,52.89 -176.12,106.45 -264.64,158.88 71.65,-189.51 143.54,-378.95 215.35,-568.41 -139.41,-106.53 -279.58,-212.09 -418.92,-318.76 105.06,-0.26 210.08,0 315.11,-0.13 71.73,1.32 143.52,0.38 215.25,0.63 58.52,-161.57 117.12,-323.14 175.62,-484.74z"/>
   <path class="fil2" d="M785.1 651.67c57.26,0 114.51,0 171.79,0 0.06,25.1 -0.12,50.17 0.11,75.28 -14.05,0.3 -28.07,0.07 -42.1,0.15 28.66,112.91 56.73,225.98 85.86,338.74 31.7,-112.71 62.02,-225.85 93.11,-338.74 -13.74,0 -27.51,0 -41.25,0 -0.03,-25.13 0.05,-50.26 -0.03,-75.38 52.84,-0.11 105.69,-0.05 158.53,-0.03 -0.05,25.13 -0.03,50.28 -0.03,75.41 -12.19,0 -24.39,0 -36.56,0 -42.57,146.23 -85.17,292.44 -127.64,438.67 -34.87,0 -69.71,0 -104.58,0 -39.76,-146.21 -79.39,-292.44 -119.2,-438.64 -12.65,-0.05 -25.3,-0.05 -37.96,0 -0.1,-25.16 -0.02,-50.31 -0.05,-75.46z"/>
  </g>
 </g>
</svg>
