<?xml version="1.0" encoding="UTF-8"?>
<!DOCTYPE svg PUBLIC "-//W3C//DTD SVG 1.1//EN" "http://www.w3.org/Graphics/SVG/1.1/DTD/svg11.dtd">
<!-- Creator: CorelDRAW -->
<svg xmlns="http://www.w3.org/2000/svg" xml:space="preserve" width="2000px" height="1600px" version="1.1" style="shape-rendering:geometricPrecision; text-rendering:geometricPrecision; image-rendering:optimizeQuality; fill-rule:evenodd; clip-rule:evenodd"
viewBox="0 0 2000 1600"
 xmlns:xlink="http://www.w3.org/1999/xlink">
 <defs>
  <style type="text/css">
   <![CDATA[
    .fil1 {fill:black;fill-rule:nonzero}
    .fil0 {fill:#FCB813;fill-rule:nonzero}
    .fil2 {fill:#FEFEFE;fill-rule:nonzero}
   ]]>
  </style>
 </defs>
 <g id="Capa_x0020_1">
  <metadata id="CorelCorpID_0Corel-Layer"/>
  <g id="Virginia_x0020_Commonwealth_x0020_Rams.cdr">
   <path class="fil0" d="M404.42 382.71l31.73 0c33.05,1.97 66.06,9.19 95.95,23.72 31.51,14.93 59.09,37.55 81.02,64.56 423.87,0.03 847.74,0.01 1271.6,0.01 38.42,0.08 76.86,-0.16 115.28,0.14l0 0.38c-54.89,72.37 -109.2,145.15 -163.81,217.72 -3.4,4.55 -7.53,8.81 -9.26,14.35 -36.54,113.4 -73.12,226.78 -109.62,340.2 -16.1,56.86 -55.54,105.56 -105.06,137.05 -37.64,23.66 -82.16,33.66 -126.06,36.45l-169.26 0c-31.63,-2.36 -63.34,-8.78 -91.97,-22.88 -2.51,7.6 -4.89,15.26 -7.39,22.88l-332.09 0c-33.27,-2.08 -67.21,-8.27 -96.26,-25.41 -23.63,-13.59 -43.62,-33.29 -57.75,-56.58 -14.28,27.43 -28.85,54.7 -43.4,81.99l-367.51 0c1.35,-64.74 1.84,-129.48 3.34,-194.2 -29.1,0.24 -58.29,-0.65 -87.34,0.41 -24.91,12.37 -52.08,22.04 -80.28,20.98 -28.18,0.15 -54.85,-12.23 -76.58,-29.48 -37.82,-29.03 -61.5,-73.27 -71.99,-119.18 -4.29,-18.05 -6.41,-36.51 -7.71,-54.96l0 -33.74c3.44,-59.85 19.53,-118.74 45.59,-172.66 31.6,-64.96 77.2,-123.94 135.71,-166.78 64.8,-47.72 142.38,-79.82 223.12,-84.97z"/>
   <path class="fil1" d="M345.48 435.2c46.32,-11.28 95.45,-10.4 141.38,2.31 23.4,6.51 45.04,18.5 63.7,33.94 22.08,17.4 40.04,39.94 51.97,65.39 23.27,49.37 25.2,105.15 25.46,158.77 9.72,-16.85 18.27,-34.35 27.61,-51.41 3.06,-4.18 1.32,-9.35 1.11,-14.05 -3.25,-38.16 -6.36,-76.34 -9.54,-114.5 421.33,-0.07 842.65,-0.04 1263.96,-0.02 -35.91,48.05 -72.06,95.93 -107.99,143.98 -5.05,7.42 -11.75,13.79 -15.59,21.95 -35.62,110.49 -71.25,220.99 -106.88,331.49 -3.68,11.06 -6.75,22.36 -11.41,33.07 -14.69,35.07 -38.18,66.78 -68.92,89.36 -22.27,16.75 -48.65,27.55 -75.93,32.74 -23.93,4.72 -48.41,5.61 -72.74,5.39 -33.49,0 -66.98,0 -100.48,0 -32.12,0.29 -65.19,-1.04 -95.37,-13.09 -21.47,-8.46 -40.35,-23.51 -52.72,-43.03 -6.11,18.68 -11.97,37.46 -18.04,56.15 -79.67,-0.09 -159.35,0 -239.02,-0.03 -35.43,-0.3 -71.67,2.17 -106.09,-8.01 -32.81,-9.06 -62.12,-32.16 -75.97,-63.59 -10.58,-23.83 -11.71,-50.82 -7.4,-76.25 3.31,-21.71 10.43,-42.52 16.43,-63.55 -37.15,70.54 -74.66,140.88 -111.88,211.38 -98.49,0.04 -196.97,0.04 -295.46,0 2.43,-142.2 4.4,-284.39 7.02,-426.58 0.21,-38.89 2.76,-78.33 -5.22,-116.69 -2.36,-8.27 -4.11,-18.24 -11.67,-23.44 -10.56,-4.07 -22.4,-0.36 -31.88,4.92 -17.01,9.56 -30.78,23.81 -43.38,38.5 -30.35,36.11 -55.26,76.91 -72.77,120.76 -7.96,20.37 -14.7,41.51 -16.6,63.38 -0.67,11.25 -0.41,23.53 6.17,33.16 5.99,8.67 17.75,11.14 27.51,8.74 13.24,-3.27 23.98,-12.57 32.86,-22.49 18.27,-20.82 31.17,-45.71 42.14,-70.97 7.46,-18.14 14.63,-36.69 17.36,-56.21 14.93,24.3 16.88,54.19 14.5,81.96 -5.8,63.69 -41.15,123.27 -92.49,160.98 -25.58,18.33 -56.65,31.67 -88.66,29.55 -19.93,-1.07 -37.05,-13.06 -51.6,-25.74 -25.84,-23.01 -41.75,-55.35 -49.07,-88.81 -10.58,-47.79 -6.43,-97.69 4.94,-144.93 18.22,-73.28 55.13,-142.06 107.36,-196.71 49.65,-51.74 113.27,-91 183.29,-107.77z"/>
   <path class="fil2" d="M287.88 500.69c36.66,-19.59 79.61,-28.37 120.99,-23.07 38.4,4.65 77.88,15.15 108.21,40.32 26.49,21.56 41.99,53.94 48.59,86.93 9.81,45.8 6,92.86 5.72,139.28 -1.15,61.15 -1.85,122.3 -2.97,183.45 17.17,-30.37 32.81,-61.63 49.35,-92.38 32.25,-60.96 64.53,-121.91 96.75,-182.9 -2.22,-26.98 -4.48,-53.96 -6.68,-80.96 69.67,0.04 139.35,0 209.02,0.04 -96.47,182.11 -193.03,364.18 -289.41,546.35 -68.32,0.24 -136.65,-0.04 -204.98,0.13 1.79,-127.34 4.02,-254.68 6.1,-382.04 2.12,-45.37 0.67,-91.55 -12.12,-135.47 -8.72,-29.85 -22.58,-59.81 -47.08,-79.98 -22.29,-18.61 -53.24,-25.06 -81.49,-19.7zm-15.72 373.53c8.25,-8.68 15.91,-17.9 23.66,-27.03 -11.25,36.27 -30.56,72.18 -62.55,94.09 -21.97,14.97 -51.6,22.74 -76.84,11.55 45.71,-13.29 83.68,-44.45 115.73,-78.61zm-74.99 -264.48c11.16,-3.46 23.89,-5.37 34.73,0.15 8.27,3.92 13.12,12.16 16.52,20.3 -21.49,24.87 -40,52.25 -55.69,81.11 -18.4,34.57 -33.9,71.21 -40.63,109.98 -3.27,20.38 -4.54,42.25 3.87,61.6 4.94,11.53 15.16,19.57 25.87,25.45 -14.39,8.2 -31.84,12.12 -48.09,7.71 -16.89,-3.98 -30.87,-17.19 -36.41,-33.55 -11.23,-34.07 -11.26,-70.82 -5.85,-105.96 7.19,-46.05 23.66,-90.38 46.47,-130.9 1.95,-3.77 5.63,-6.08 8.92,-8.55 15.46,-11.22 32.04,-21.35 50.29,-27.34zm1156.99 -38.4c61.49,0.06 122.98,0.07 184.45,0 -45.9,144.42 -92.14,288.75 -138.09,433.18 25.78,-0.11 51.56,-0.02 77.34,-0.06 46.03,-144.37 91.97,-288.75 138.05,-433.1 61.17,0.07 122.36,-0.04 183.53,0.05 -19.16,25.26 -38.04,50.75 -57.25,75.97 -1.98,2.7 -4.29,5.3 -5.24,8.55 -32.25,101.34 -64.57,202.66 -96.87,303.98 -9.65,30.2 -18.52,61.19 -35.23,88.44 -16.73,27.77 -42.6,50.65 -73.62,60.91 -19.57,6.84 -40.49,8.29 -61.08,8.58 -33.42,-0.01 -66.84,0 -100.28,0 -23.62,-0.14 -47.38,0.8 -70.84,-2.58 -17.5,-2.58 -35.46,-9.72 -46.28,-24.37 -10.31,-13.16 -12.56,-30.81 -10.09,-46.95 3.75,-26.63 13.44,-51.91 21.26,-77.53 32.34,-101.5 64.65,-203.03 97.01,-304.55 1.06,-3.7 2.96,-7.36 2.31,-11.32 -3.03,-26.39 -6.06,-52.79 -9.08,-79.2zm-350.7 13.31c24.57,-10.89 51.84,-13.09 78.4,-13.29 78.88,0.05 157.75,-0.02 236.64,0.04 -18.7,58.88 -37.44,117.75 -56.34,176.56 -44.19,0 -88.39,-0.02 -132.57,0 6.53,-21.08 13.5,-42.03 19.83,-63.16 -26.87,-0.13 -53.73,0.05 -80.61,-0.12 -34.16,106.55 -68.03,213.17 -102.01,319.76 27.27,0.06 54.52,0 81.79,0.02 9.05,-29.27 18.03,-58.59 27.21,-87.82 44.26,0 88.49,0 132.75,0 -21.34,67.06 -42.95,134.05 -64.14,201.17 -79.73,0.07 -159.47,0.03 -239.19,0.02 -24.94,-0.71 -52,-1.96 -72.95,-17.14 -14.52,-10.15 -21.88,-27.94 -22.16,-45.28 -0.46,-24.44 7.59,-47.88 14.93,-70.86 29.72,-93.36 59.51,-186.71 89.25,-280.07 7.12,-22.83 14.61,-45.89 27.38,-66.3 14.39,-23.68 36.14,-42.9 61.79,-53.53z"/>
  </g>
 </g>
</svg>
