<?xml version="1.0" encoding="UTF-8"?>
<!DOCTYPE svg PUBLIC "-//W3C//DTD SVG 1.1//EN" "http://www.w3.org/Graphics/SVG/1.1/DTD/svg11.dtd">
<!-- Creator: CorelDRAW -->
<svg xmlns="http://www.w3.org/2000/svg" xml:space="preserve" width="2000px" height="1600px" version="1.1" style="shape-rendering:geometricPrecision; text-rendering:geometricPrecision; image-rendering:optimizeQuality; fill-rule:evenodd; clip-rule:evenodd"
viewBox="0 0 2000 1600"
 xmlns:xlink="http://www.w3.org/1999/xlink">
 <defs>
  <style type="text/css">
   <![CDATA[
    .fil1 {fill:black;fill-rule:nonzero}
    .fil0 {fill:#005738;fill-rule:nonzero}
    .fil3 {fill:#9A6B38;fill-rule:nonzero}
    .fil4 {fill:#EEDDC5;fill-rule:nonzero}
    .fil2 {fill:#FCB827;fill-rule:nonzero}
    .fil5 {fill:#FEFEFE;fill-rule:nonzero}
   ]]>
  </style>
 </defs>
 <g id="Capa_x0020_1">
  <metadata id="CorelCorpID_0Corel-Layer"/>
  <g id="Vermont_x0020_Catamounts.cdr">
   <path class="fil0" d="M444.67 178.98c159.44,-0.02 318.88,0 478.32,-0.02 0.03,86.85 0.05,173.7 0,260.56 -31.34,-0.08 -62.68,0.02 -94.01,-0.06 2.8,8.16 5.7,16.29 8.4,24.49 -9.52,-4.08 -19.46,-7.24 -29.55,-9.61 -4.64,-13.22 -9.32,-26.39 -13.78,-39.66 34.67,-0.05 69.35,-0.05 104.02,0 0.23,-70.27 0.05,-140.56 0.1,-210.83 -142.9,-0.05 -285.78,-0.03 -428.66,-0.03 0.03,70.3 -0.02,140.56 0.03,210.83 40.43,0.1 80.86,-0.28 121.3,0.2 11.64,34.4 23.89,68.59 35.69,102.96 -6.6,5.45 -13.83,10.11 -21.3,14.24 -10.75,-30.85 -21.58,-61.65 -32.2,-92.53 -42.78,-0.06 -85.58,-0.03 -128.36,-0.03 -0.02,-86.83 0,-173.68 0,-260.51zm641.3 1071.8c6.7,-6.96 13.05,-14.29 19.11,-21.81 2.22,8.41 5.4,16.54 8.33,24.74 2.01,-5.76 4.1,-11.49 5.96,-17.3 2.42,9.27 2.32,18.88 0.49,28.25 6.34,-2.62 12.66,-5.3 18.8,-8.4 -8.18,24.58 -16.79,49.04 -25.07,73.6 -9.2,-26.37 -18.37,-52.74 -27.62,-79.08zm-191.13 -198.65c21.2,-18.5 47.72,-35.82 77.2,-31.92 -4.95,13.32 -14.96,23.66 -22.55,35.44 -5,7.59 -10.4,14.87 -15.95,22.06 -12.08,15.64 -21.25,33.2 -31.52,50.04 -9.58,14.47 -10.49,32.33 -16.58,48.25 -9.69,-26.04 -18.4,-52.41 -27.65,-78.57 8.05,-18.12 22.73,-32.08 37.05,-45.3zm459.39 -820.89c124.43,0.02 248.86,-0.21 373.32,0.1 -0.15,51.97 -0.05,103.92 -0.05,155.9 -38.52,0.17 -77.04,-0.23 -115.57,0.2 -114.65,336.08 -229.75,672 -344.43,1008.05 36.74,0.1 73.5,0 110.27,0.05 0.05,50.76 0.02,101.48 0.02,152.23 -174.95,0 -349.88,0 -524.81,0 -0.05,-50.75 -0.05,-101.47 0,-152.23 36.17,0 72.35,-0.02 108.53,0.03 -20.79,-60.31 -41.81,-120.56 -62.93,-180.74 5.38,-10.57 14.25,-19.57 25.33,-24.03 7.69,-2.87 16.15,0.49 23.87,-1.6 5.48,-3.98 10.55,-8.51 16.28,-12.18 -4.74,17.58 -3.16,35.69 -2.83,53.63 0.59,10.8 -5.07,20.31 -10.52,29.15 33.27,3.34 54.37,-26.27 79.92,-41.81 5.69,5.88 14.22,11.06 14.55,20.07 0.64,13.33 -4.18,26.02 -7.11,38.83 8.61,-1.5 17.28,-3.54 25,-7.79 16.86,48.46 33.88,96.84 50.7,145.32 117.5,-342.37 234.93,-684.74 352.28,-1027.13 -37.28,-0.08 -74.55,0.02 -111.85,-0.05 0.03,-52 0.03,-104 0.03,-156zm-857.33 -0.03c124.41,-0.02 248.84,-0.02 373.25,0 0.03,52.03 0,104.03 0,156.05 -38.4,0.03 -76.77,0 -115.16,0 7.41,20.97 14.7,41.99 22.01,63.01 -9.32,-0.03 -18.67,0.61 -27.85,2.39 -14.03,2.45 -26.31,10.42 -40.33,13.05 -22.29,4.58 -43.28,14.85 -60.81,29.3 -12.69,-35.87 -24.94,-71.9 -37.71,-107.75 -37.78,0 -75.59,0 -113.4,0 0,-52.02 -0.03,-104.02 0,-156.05zm805.1 -52.25c159.46,0.02 318.9,0 478.34,0.02 0,86.83 0.03,173.68 0,260.51 -43.57,0.03 -87.13,-0.03 -130.7,0.03 -46.5,137.09 -93.81,273.93 -140.23,411.06 -1.43,4.2 -2.93,8.38 -4.41,12.58 -3.39,9.53 -6.54,19.11 -9.83,28.69 -2.07,5.91 -4.08,11.85 -6.09,17.78 -14.62,42.65 -29.17,85.33 -43.77,127.98 -3.57,10.29 -7.01,20.63 -10.57,30.93 -1.99,5.7 -3.93,11.44 -5.89,17.17 -29.3,85.65 -58.47,171.36 -87.9,256.97 29.89,0 59.8,0 89.71,0 0,85.78 0,171.54 0,257.32l-629.94 0c0,-85.78 0,-171.54 0,-257.32 28.92,-0.03 57.84,0.02 86.78,-0.03 -23.7,-68.38 -47.52,-136.71 -71.41,-204.99 8.12,-1.46 17.42,-1.38 23.43,-8.03 27.95,79.19 55.27,158.58 83.01,237.84 -32.33,0.12 -64.64,0 -96.94,0.07 -0.03,69.2 -0.03,138.4 0,207.6 193.4,0.05 386.8,0.02 580.2,0.02 0.05,-69.22 0.03,-138.42 0,-207.62 -33.14,-0.07 -66.32,0.05 -99.46,-0.07 108.48,-317.61 217.07,-635.21 325.71,-952.79 41.14,-0.08 82.29,0 123.46,-0.03 0,-70.27 -0.02,-140.53 0,-210.8 -142.88,-0.05 -285.76,-0.03 -428.64,-0.03 -0.05,70.24 0.03,140.51 -0.05,210.75 33.45,0.16 66.93,0.08 100.41,0.03 -73.68,216.48 -148.33,432.64 -222.34,648.99 -12.34,35.37 -24,70.96 -36.72,106.19 -3,-10.9 -5.12,-23.87 -16.02,-29.83 13.47,-37.5 25.93,-75.39 39.03,-113.02 4.43,-12.61 8.69,-25.3 12.81,-38.01 5.35,-14.09 9.89,-28.46 14.78,-42.7 17.4,-50.19 34.52,-100.49 51.77,-150.73 1.91,-5.63 3.85,-11.23 5.79,-16.87 14.47,-42.06 28.84,-84.15 43.31,-126.21 1.35,-3.98 2.72,-7.92 4.1,-11.9 2.16,-6.27 4.3,-12.56 6.45,-18.85 20.76,-60.74 41.75,-121.38 62.36,-182.14 -30.19,-0.06 -60.38,0.02 -90.54,-0.06 0,-86.82 -0.03,-173.65 0,-260.5z"/>
   <path class="fil1" d="M680.37 0l54.85 0c52.97,2.93 105.76,10.85 156.76,25.61 100.56,27.26 191.34,93.09 244.49,183.21 45.5,65.65 64.92,144.53 82.44,221.3 3.49,14.16 5.81,28.71 11.24,42.34 12.05,31.72 25.96,62.88 43.34,92.08 10.29,14.03 20.41,28.3 32.02,41.3 6.5,7.66 16.08,11.18 24.67,15.82 -2.15,6.29 -4.29,12.58 -6.45,18.85 -33.61,-19.01 -70.65,-31.69 -108.76,-37.76 6.31,4.87 12.66,9.71 18.82,14.78 -17.32,3.49 -31.92,-9.83 -46.52,-17.05 -24.2,-15.38 -48.53,-34.8 -78.24,-36.71 -43.34,4.43 -82.24,26.06 -118.75,48.46 -6.09,3.64 -9.66,10.01 -13.71,15.59 -18.22,25.63 -35.06,52.82 -58.62,74.02 5.29,-8.92 8.33,-18.96 6.87,-29.43l1.02 -2.93c10.09,-26.22 10.07,-56.05 1.69,-82.75 -10.07,-31.47 -34.63,-60.08 -67.95,-67.24 9.6,-1.88 19.36,-0.94 28.71,1.84 -8.1,-9.71 -16.59,-19.32 -27.19,-26.37 -20.51,-14.78 -45.22,-21.74 -69.45,-27.65 -32.79,-7.21 -67.03,4.44 -93.3,24.13 -14.77,10.17 -26.39,23.97 -39.9,35.62 4.03,-13.89 14.73,-23.82 24.08,-34.22 -29.63,11.92 -51.97,38.34 -61.22,68.66 18.49,-10.93 39.67,-18.34 61.35,-17.63 13.6,17.94 35.03,26.68 51.57,41.28 2.09,1.78 4.12,3.61 6.21,5.45 29.68,-11.21 58.07,-25.86 88.92,-33.83 0.23,0.15 0.71,0.4 0.94,0.55 -27.36,14.27 -55.97,26.81 -80.43,45.97 35.23,-6.6 69.15,-21 105.43,-21.28 -30.07,10.37 -60.33,20.21 -90.12,31.34 31.85,-2.29 63.39,-8.18 95.36,-8.89 -30.72,7.87 -61.93,13.81 -92.53,22.16 24.3,6.65 49.68,10.02 73.02,19.9 -12.23,-0.74 -24.38,-2.21 -36.59,-2.82 -15.11,-1.46 -30.19,-3.83 -45.42,-2.78 9.96,5.63 20.89,9.27 30.62,15.36 -12.74,-1.32 -25.1,-4.69 -37.5,-7.57 -5.79,4.85 -10.3,11.04 -12.72,18.2 21.96,3.21 44.77,4.35 66.55,-0.77 -4.25,10.85 -13.32,18.57 -19.16,28.48 -14.11,23.5 -20.66,50.45 -26.95,76.87 -4.49,14.8 -9.07,32.44 -23.54,40.61 -19.85,6.88 -41.81,0.59 -61.66,8.03 2.16,13.12 13.25,23.62 26.04,26.39 18.24,4.08 39.79,-0.48 51.41,-16.1 24.89,-26.98 45.48,-58.01 73.91,-81.55 12.1,-10.19 24.05,-20.64 37.2,-29.48 -1.38,5.02 -4.56,9.17 -8,12.94 -8.08,8.87 -15.06,18.96 -24.97,25.94 -9.83,7.08 -16.71,17.2 -23.9,26.78 -5.86,8.1 -11.95,17.32 -10.75,27.84 0.33,8.69 8.74,13.91 10.83,21.99 2.34,8.92 3.31,18.14 4.61,27.26 -6.11,-8.97 -10.16,-19.24 -16.74,-27.9 -2.85,-3.61 -9.4,-8.07 -13.17,-3.31 -6.96,7.67 -11.85,17.35 -20.76,23.08 -12.79,10.35 -31.55,8.36 -43.55,19.98 -6.62,5.86 -6.47,15.87 -3.49,23.54 4.59,11.74 13.18,21.22 20.64,31.16 -12.03,-8.26 -24.74,-15.62 -38.6,-20.43 8.59,19.95 18.75,39.28 31.19,57.12 -26.5,-4.64 -53.53,-1.3 -79.67,3.95 -15.8,3.26 -31.39,7.97 -47.54,9.24 -34.45,3.01 -69.23,-1.4 -103.6,3.22 -30.8,3.64 -61.35,10.85 -92.53,9.93 -14.37,-0.41 -26.65,-8.66 -38.7,-15.54 -17.22,-10.04 -35.08,-21.3 -55.59,-22.17 -8.18,-0.63 -16.08,1.91 -23.75,4.44 3.21,5.25 7.08,10.06 10.29,15.33 3.21,8.51 0.72,20.87 10.81,25.43 18.93,8.36 40.58,2.8 59.64,-2.42 -7.92,8.43 -15.97,16.74 -24,25.05 12.71,5.19 21.5,15.87 31.97,24.23 11.42,8.91 26.6,8.33 40.28,7.94 14.65,1 29.43,0.31 44.06,2.09 -17.15,11.93 -38.78,13.53 -57.58,21.79 3.31,1.17 6.72,1.65 10.21,1.42 37.84,-2.7 75.49,-7.31 112.72,-14.52 -8.39,4.05 -17,7.7 -25.89,10.55 -9.94,3.31 -19.64,7.29 -29.38,11.23 -38.19,15.95 -70.59,42.6 -107.89,60.31 -9.79,4.79 -21.13,1.4 -31.34,4.43 -4.87,1.48 -9.48,7.24 -6.6,12.31 10.24,3.77 17.71,-14.07 27.01,-6.45 -0.13,3.39 -0.41,6.78 -0.79,10.17 14.37,-0.77 26.67,-8.82 36.53,-18.78 26.01,-24.38 62.24,-30.72 94.17,-43.92 17.7,-7.9 37.58,-9.73 56.71,-7.77 30.32,2.67 59.01,13.68 88.74,19.36 58.34,5.81 118.06,10.98 175.97,-1.27 18.81,-2.3 30.93,-18.83 40.41,-33.58 5.1,-8.56 8.89,-17.79 12.87,-26.88 9.48,-22.42 21.71,-43.52 35.03,-63.85 -1.83,10.4 -3.24,20.89 -4.51,31.39 29.89,-15.31 66.14,-12.23 94.5,-30.98 10.67,-6.65 10.7,-21.05 8.48,-32 -5.2,-20.99 -11.08,-44.31 -2.09,-65.07 2.55,11.85 4.44,24 9.43,35.16 6.32,15.23 16.51,28.46 27.85,40.33 4.56,-5.43 8.66,-11.29 10.87,-18.06 8.51,-23.44 14.4,-48.06 26.96,-69.81 20.1,-39.39 58.75,-64.06 84.1,-99.44 9.28,-10.98 3.34,-26.4 8.64,-38.93 8.03,16.51 8.76,36.71 0.71,53.35 -7.23,15.56 -19.72,27.69 -31.51,39.82 -12.18,11.79 -22.75,25.12 -32.95,38.62 -22.82,32.03 -24.71,73.69 -46.16,106.4 -3.72,6.06 -8.97,10.95 -14.5,15.34 6.04,0.23 12.1,0.61 18.12,1.6 -6.35,6.65 -15.8,7.82 -23.83,11.44 -21.91,9.38 -41.8,24.2 -55.59,43.8 -7.64,10.9 -17.96,19.44 -26.44,29.6 -13.18,14.73 -21.28,32.94 -30.76,50.04 8.29,-5.17 17.25,-12.2 27.7,-10.09 5.27,2.09 9.63,7.16 9.17,13.12 -0.46,10.5 -4.33,20.43 -5.99,30.75 10.96,-6.49 19.47,-16.1 29.66,-23.59 13.1,-9.66 22.11,-23.57 34.83,-33.66 -8.79,23.7 -22.65,45.48 -28.05,70.48 7.69,-5.86 16.12,-13.89 26.7,-11.34 6.78,0.71 10.47,6.95 12.28,12.84 0.79,3.57 1.48,7.13 2.24,10.7 8.97,-9.45 17.43,-19.67 23.34,-31.36 3.44,-8.77 4.15,-18.32 6.93,-27.29 3.11,-0.76 6.24,-1.35 9.4,-1.94 -4.79,23.52 -11.08,47.29 -8.74,71.52 4.46,-8 7.52,-16.74 12.46,-24.46 3.79,-5.99 11.13,-7.59 17.55,-9.2l3.09 -0.56c7.84,3.42 12.12,11.01 14.93,18.68 -0.31,-4.41 -0.49,-8.82 -0.69,-13.2 -4.03,-5.17 -8.69,-10.8 -8.05,-17.78 0.53,-12.28 7.54,-22.96 12.81,-33.66 0.92,-1.68 1.84,-3.31 2.81,-4.94 6.59,26.67 0.43,55.97 13.6,80.97 5.88,-8.84 11.8,-17.89 19.87,-24.95 4.31,-3.72 9.07,-6.87 13.81,-10.03 -4.23,-10.98 -18.32,-12.05 -23,-22.63 -8.34,-16.25 -3.9,-35.82 -12.26,-52.15 6.73,-25.71 22.91,-48.41 44.2,-64.13 14.45,-11.97 27.7,-25.37 42.93,-36.43 -4.12,12.71 -8.38,25.4 -12.81,38.01 -5.22,4.28 -10.6,8.36 -16.2,12.13 -16.44,11.18 -28.77,27.62 -36.85,45.65 2.98,15.95 2.12,32.26 4.26,48.34 3.23,2.32 6.47,4.58 9.76,6.9 10.9,5.96 13.02,18.93 16.02,29.83 3.85,31.09 -2.88,66.86 -29.5,86.48 -6.14,3.1 -12.46,5.78 -18.8,8.4 1.83,-9.37 1.93,-18.98 -0.49,-28.25 -0.38,-2.29 -0.76,-4.56 -1.14,-6.83 -3.24,-1.73 -6.45,-3.49 -9.61,-5.27 -0.89,1.14 -2.65,3.49 -3.54,4.66 -6.06,7.52 -12.41,14.85 -19.11,21.81 -6.9,6.95 -14.55,13.2 -22.9,18.32 -7.72,4.25 -16.39,6.29 -25,7.79 2.93,-12.81 7.75,-25.5 7.11,-38.83 -0.33,-9.01 -8.86,-14.19 -14.55,-20.07 -25.55,15.54 -46.65,45.15 -79.92,41.81 5.45,-8.84 11.11,-18.35 10.52,-29.15 -0.33,-17.94 -1.91,-36.05 2.83,-53.63 -5.73,3.67 -10.8,8.2 -16.28,12.18 -7.72,2.09 -16.18,-1.27 -23.87,1.6 -11.08,4.46 -19.95,13.46 -25.33,24.03 -1.6,2.85 -3.18,5.73 -4.79,8.59 -12.89,-12.18 -12.12,-31.5 -8.35,-47.42 6.09,-15.92 7,-33.78 16.58,-48.25 10.27,-16.84 19.44,-34.4 31.52,-50.04 5.55,-7.19 10.95,-14.47 15.95,-22.06 7.59,-11.78 17.6,-22.12 22.55,-35.44 -29.48,-3.9 -56,13.42 -77.2,31.92 -14.32,13.22 -29,27.18 -37.05,45.3 -5.02,11.28 -10.95,22.21 -18.27,32.2 -6.01,6.65 -15.31,6.57 -23.43,8.03 -68.85,10.98 -140.54,14.04 -208.41,-4.36 -30.63,-9.81 -62.22,-19.11 -94.7,-17.86 -27.57,5.4 -53.43,16.66 -80.21,24.77 -14.88,7.26 -31.36,11.54 -44.28,22.31 -12.71,9.63 -27.56,15.62 -42.7,20.13 -15.26,14.14 -28.76,32.33 -49.45,38.78 -15.29,2.09 -28.87,-7.87 -38.73,-18.47 -8.63,-8.61 -14.31,-19.75 -23.03,-28.16 -9.65,-1.47 -19.69,-0.71 -28.92,-4.5 -10.21,-3.5 -19.66,-10.99 -23.28,-21.41 -2.93,-11.13 3.03,-21.86 4.02,-32.84 0.87,-10.55 6.45,-19.79 8.54,-30.04 -6.3,-5.47 -12.69,-11.31 -15.87,-19.23l0 -10.68c3.28,-15.03 14.57,-28.1 29.12,-33.25 13.55,-5.6 29.75,-10.72 37.22,-24.4 1.4,-16.72 1.83,-36.97 17.63,-47.19 20.43,5.22 38.52,-11.13 58.88,-7.54 14.65,2.04 24.1,14.83 37.27,20.28 36.56,20.36 80.67,20.69 120.61,11.67 56.69,-13.61 116.77,-9.27 171.98,-29.55 8.05,-3.42 16.94,-6.04 23.54,-11.95 7.8,-14.65 2.09,-32.41 9.35,-47.24 3.26,-8.1 7.31,-17.07 4.31,-25.88 -8.87,-13 -26.4,-15.88 -35.57,-28.46 -4.33,-5.61 -3.72,-12.89 -3.13,-19.52 -9.71,-19.74 -18.12,-40.43 -20.69,-62.47 2.98,-1.15 6.14,-4.84 9.5,-2.83 7.47,4.61 14.19,10.35 21.56,15.11 0.53,-12.08 2.26,-24.94 -3.11,-36.28 -0.64,5.68 -0.59,11.44 -1.63,17.07 -2.12,2.93 -5.97,3.67 -8.51,0.84 -17.58,-12.23 -31.24,-29.32 -41.73,-47.82 -14.55,-3.82 -18.04,-19.34 -22.43,-31.62 -15.95,5.63 -31.72,11.82 -47.82,16.94 14.37,-10.47 29.84,-19.46 43.95,-30.31l0.21 -3.29c-19.11,1.22 -36.06,11.49 -54.96,13.88 17.73,-10.82 36.89,-19.03 55.39,-28.43 -27.47,1.73 -54.6,6.85 -81.94,9.81 23.7,-10.65 48.82,-17.63 73.56,-25.38 -28.49,-4.1 -57.3,-3.97 -85.99,-4.96 29.35,-5.25 59.13,-7.32 88.81,-9.23 -30.57,-7.51 -62.21,-10.32 -92.25,-20.1 6.83,-0.53 13.68,-0.76 20.51,-0.18 30.27,2.42 60.36,6.75 90.27,11.9 3.44,-4.08 6.95,-8.08 10.49,-12.05 -14.21,-7.24 -30.06,-11.01 -43.77,-19.19 -4.05,-2.52 -0.35,-6.64 2.47,-8.12 13.48,-9.56 28.36,-16.87 43.06,-24.31 7.47,-4.13 14.7,-8.79 21.3,-14.24 7.47,-7.31 13.27,-16.2 21.48,-22.8 17.53,-14.45 38.52,-24.72 60.81,-29.3 14.02,-2.63 26.3,-10.6 40.33,-13.05 9.18,-1.78 18.53,-2.42 27.85,-2.39 10.37,0.53 20.69,1.83 30.83,4.07 10.09,2.37 20.03,5.53 29.55,9.61 23.72,13.55 51.44,16.25 78.2,17.88 42.7,1.2 86.14,5.84 126.08,21.97 7.44,3.69 15.73,8.02 19.47,15.87 0.99,14.98 -12.38,24.99 -22.47,33.86 16.23,-3.54 32,-9.73 48.81,-9.96 7.65,-32 11.09,-64.89 11.95,-97.74 -0.05,-55.05 -13.6,-109.29 -33.58,-160.3 -20.25,-45.1 -43.79,-89.89 -78.34,-125.81 -25.56,-22.47 -55.75,-39.77 -87.64,-51.54 -97.74,-28.33 -202.04,-47.06 -303.16,-26.01 -41.41,7.05 -77.81,30.8 -119.34,37.37 -7.8,1.53 -17.35,1.28 -22.78,-5.43 -3.77,-3.97 -2.85,-9.96 -2.93,-14.93 1.07,-22.11 17.07,-40.84 36.03,-50.77 59.13,-31.52 126.24,-44.87 192.69,-48.41zm-96.08 1088.82c70.47,7.31 142.11,3.33 211.41,-11.29 4.05,-0.05 9.15,-3.57 12.54,-0.02 0.23,5.17 -3.67,9.14 -6.55,13.01 -5.91,3.72 -12.05,7.67 -19.18,8.44 -59.93,8.25 -121.2,7.61 -180.77,-3.26 -16.76,-2.86 -33.17,-7.88 -50.24,-8.92 10.95,0.05 21.91,0.58 32.79,2.04zm904.79 -179.19c2.01,-5.93 4.02,-11.87 6.09,-17.78 25.48,22.16 42.8,52.02 55.16,83.13 4.69,12.87 12.86,25.58 10.24,39.87 -28.13,-31.99 -48.1,-69.88 -71.49,-105.22zm15.92 -46.47c1.48,-4.2 2.98,-8.38 4.41,-12.58 35.95,43.13 68.89,88.99 96.41,138.01 6.16,10.57 10.14,22.9 20.05,30.8 16.05,0.25 31.87,6.5 43.16,17.99 18.9,19.08 27.59,45.19 37.37,69.58 3.37,7.39 5.05,16.53 12.64,20.97 32.23,22.72 55.54,56.17 71.03,92.05 4.54,12.68 22.91,14.34 24.89,28.51 4.21,16.48 8.26,33.88 4.46,50.85 -1.96,4.76 -8.1,4.79 -12.12,6.75 -2.55,8.49 -4.74,18.9 -13.79,22.85 -8.38,4.97 -18.14,3.06 -27.26,2.42 -5.76,-1.01 -9.63,3.98 -13.68,7.06 -19.59,-1.6 -32.3,-18.47 -50.65,-23.28 -9.86,-6.55 -12.64,-19.57 -14.42,-30.58 -30.24,-24.71 -32.28,-66.78 -53.4,-97.53 -15.9,-26.11 -35.75,-51.44 -63.52,-65.63 -13.58,1.81 -27.31,3.77 -41.02,2.52 -35.74,-5.73 -70.03,-19.03 -100.71,-38.21 1.96,-5.73 3.9,-11.47 5.89,-17.17 28.25,15.92 57.17,32.4 89.4,38.65 25.02,4.96 52.46,0.43 72.89,-15.37 7.9,-10.09 2.85,-24.2 5.17,-35.97 2.27,2.6 4.46,5.2 6.73,7.85 4.89,5.58 9.63,11.74 11.18,19.21 5.56,24.71 7.14,50.42 16.05,74.31 7.42,17.35 19.19,32.49 26.07,50.12 5.81,15.11 11.11,30.55 19.08,44.71 3.57,6.37 9.83,10.63 13.76,16.74 3.54,6.5 5.96,13.53 9.25,20.18 1.55,-0.18 4.66,-0.54 6.24,-0.71 7.18,7.49 12.41,16.81 20.79,23.21 5.53,4.71 12.74,6.6 19.62,8.48 -0.97,-6.72 -2.65,-13.32 -5.13,-19.64 9.74,8.63 22.14,16.35 35.75,14.39 4.56,-0.92 11.08,-2.01 11.49,-7.82 1.48,-10.16 -14.37,-14.57 -9.71,-25.09 4.95,7.71 15.57,4.73 23.26,6.9 0.49,-11.44 -0.73,-23.06 -3.77,-34.09 -5.53,-10.14 -19.08,-12.97 -23.74,-23.85 -11.08,-23.62 -22.93,-47.33 -40.51,-66.9 2.93,5.32 5.17,11.03 5.96,17.12 -11.85,-7.24 -22.55,-16.84 -29.53,-28.94 -7.77,-14.02 -15.69,-28.03 -21.04,-43.19 -7.95,-20.23 -15.09,-42.26 -31.85,-57.12 -12.28,-10.98 -28.76,-16.41 -45.15,-15.59 -6.39,-4.89 -12.76,-9.91 -17.86,-16.18 -25.65,-55.46 -58.11,-107.52 -94.14,-156.79zm-342.21 -50.39c5.93,-10.35 8.61,-22.53 16.79,-31.52 -13.18,65.45 -45.07,126.37 -87.9,177.3 -16.16,17.25 -25,39.57 -38.52,58.7 0.84,-15.9 7.38,-30.6 14.39,-44.61 6.85,-13.48 10.27,-28.38 17.45,-41.71 21.79,-42.06 57.71,-75.06 77.79,-118.16zm91.1 -48.06c9.84,0.31 17.89,5.25 22.43,13.91 -1.94,5.64 -3.88,11.24 -5.79,16.87 -6.11,-9.96 -11.87,-20.13 -16.64,-30.78zm-268.58 -103.97c2.65,-5.04 5.55,-9.96 9.17,-14.37 -6.29,24.41 -17.43,47.24 -27.59,70.24 -10.04,26.47 -36.05,46.17 -64.05,49.35 34.88,-28.53 61.25,-65.81 82.47,-105.22zm-266.12 -141.02c19.24,-10.16 38.6,-22.85 60.95,-23.9 -12.72,9.56 -26.48,17.81 -37.76,29.17 24.61,1.38 51,-0.89 73.43,11.42 -10.43,4.56 -21.51,7.56 -31.44,13.22 -11.57,6.12 -21.94,14.17 -32.9,21.25 -5.65,3.92 -12.81,0.28 -18.57,-1.6 -15.77,-7.65 -28.02,-21.2 -44.79,-27.06 9.43,-12.54 21.22,-23.06 33.99,-32.11 -0.72,2.4 -2.17,7.19 -2.91,9.61z"/>
   <path class="fil2" d="M469.51 203.82c142.88,0 285.76,-0.02 428.66,0.03 -0.05,70.27 0.13,140.56 -0.1,210.83 -34.67,-0.05 -69.35,-0.05 -104.02,0 4.46,13.27 9.14,26.44 13.78,39.66 -10.14,-2.24 -20.46,-3.54 -30.83,-4.07 -7.31,-21.02 -14.6,-42.04 -22.01,-63.01 38.39,0 76.76,0.03 115.16,0 0,-52.02 0.03,-104.02 0,-156.05 -124.41,-0.02 -248.84,-0.02 -373.25,0 -0.03,52.03 0,104.03 0,156.05 37.81,0 75.62,0 113.4,0 12.77,35.85 25.02,71.88 37.71,107.75 -8.21,6.6 -14.01,15.49 -21.48,22.8 -11.8,-34.37 -24.05,-68.56 -35.69,-102.96 -40.44,-0.48 -80.87,-0.1 -121.3,-0.2 -0.05,-70.27 0,-140.53 -0.03,-210.83zm857.35 0c142.88,0 285.76,-0.02 428.64,0.03 -0.02,70.27 0,140.53 0,210.8 -41.17,0.03 -82.32,-0.05 -123.46,0.03 -108.64,317.58 -217.23,635.18 -325.71,952.79 33.14,0.12 66.32,0 99.46,0.07 0.03,69.2 0.05,138.4 0,207.62 -193.4,0 -386.8,0.03 -580.2,-0.02 -0.03,-69.2 -0.03,-138.4 0,-207.6 32.3,-0.07 64.61,0.05 96.94,-0.07 -27.74,-79.26 -55.06,-158.65 -83.01,-237.84 7.32,-9.99 13.25,-20.92 18.27,-32.2 9.25,26.16 17.96,52.53 27.65,78.57 -3.77,15.92 -4.54,35.24 8.35,47.42 1.61,-2.86 3.19,-5.74 4.79,-8.59 21.12,60.18 42.14,120.43 62.93,180.74 -36.18,-0.05 -72.36,-0.03 -108.53,-0.03 -0.05,50.76 -0.05,101.48 0,152.23 174.93,0 349.86,0 524.81,0 0,-50.75 0.03,-101.47 -0.02,-152.23 -36.77,-0.05 -73.53,0.05 -110.27,-0.05 114.68,-336.05 229.78,-671.97 344.43,-1008.05 38.53,-0.43 77.05,-0.03 115.57,-0.2 0,-51.98 -0.1,-103.93 0.05,-155.9 -124.46,-0.31 -248.89,-0.08 -373.32,-0.1 0,52 0,104 -0.03,156 37.3,0.07 74.57,-0.03 111.85,0.05 -117.35,342.39 -234.78,684.76 -352.28,1027.13 -16.82,-48.48 -33.84,-96.86 -50.7,-145.32 8.35,-5.12 16,-11.37 22.9,-18.32 9.25,26.34 18.42,52.71 27.62,79.08 8.28,-24.56 16.89,-49.02 25.07,-73.6 26.62,-19.62 33.35,-55.39 29.5,-86.48 12.72,-35.23 24.38,-70.82 36.72,-106.19 74.01,-216.35 148.66,-432.51 222.34,-648.99 -33.48,0.05 -66.96,0.13 -100.41,-0.03 0.08,-70.24 0,-140.51 0.05,-210.75z"/>
   <path class="fil3" d="M563.6 49.58c33.58,-11.9 68.99,-18.47 104.56,-20.25 31.42,0.1 63.01,-1.66 94.27,2.24 32.92,0.56 65.6,6.47 97.12,15.87 24.64,7.18 49.91,12.08 74.47,19.57 24.67,9.07 47.59,22.31 72.23,31.49 52.87,33.4 96.1,82.26 122.73,138.93 10.14,22.06 21.32,43.67 30.37,66.24 22.34,53.48 37.68,109.65 48.02,166.65 14.32,39.64 32.18,78.39 41.35,119.74 -24.84,-0.53 -48.1,-10.39 -70.8,-19.46 -20.25,-8.03 -38.93,-20.1 -60.25,-25.35 0.28,-44.2 5.29,-88.41 1.47,-132.59 -1.78,-21.09 -7.21,-41.65 -11.89,-62.24 -12.41,-50.19 -29.46,-99.9 -57,-143.97 -29.14,-47.37 -72.18,-87.06 -124.07,-107.95 -71.34,-28.95 -149.05,-34.02 -224.9,-40.59 -60.28,-7.03 -120.94,7.59 -176.35,30.68 -6.09,2.98 -12.95,2.95 -19.57,2.72l0.48 -0.69c12,-21.78 35.42,-32.81 57.76,-41.04zm134.75 441.86c26.27,-19.69 60.51,-31.34 93.3,-24.13 24.23,5.91 48.94,12.87 69.45,27.65 10.6,7.05 19.09,16.66 27.19,26.37 -9.35,-2.78 -19.11,-3.72 -28.71,-1.84 33.32,7.16 57.88,35.77 67.95,67.24 8.38,26.7 8.4,56.53 -1.69,82.75 -11.95,-24.77 -28.66,-46.98 -46.62,-67.7 -14.88,-16.28 -30.55,-32.12 -48.92,-44.46 -0.23,-0.15 -0.71,-0.4 -0.94,-0.55 -10.45,-5.79 -23.18,-14.17 -35.34,-8.13 -21.17,9.93 -41.63,21.73 -59.79,36.51 -16.54,-14.6 -37.97,-23.34 -51.57,-41.28 -21.68,-0.71 -42.86,6.7 -61.35,17.63 9.25,-30.32 31.59,-56.74 61.22,-68.66 -9.35,10.4 -20.05,20.33 -24.08,34.22 13.51,-11.65 25.13,-25.45 39.9,-35.62zm191.55 9.45c42.59,-5.25 86.36,-2.49 128.12,7.62 -21.86,4 -43.44,9.3 -64.56,16.23 -12.1,3.06 -23.41,8.41 -34.24,14.52 -9.94,-12.66 -19.98,-25.27 -29.32,-38.37zm-305.56 57.28c9.4,-6.35 19.9,-12.82 31.82,-10.6 -1.63,6.47 -3.67,12.79 -6.09,19 -8.33,-3.51 -16.89,-6.54 -25.73,-8.4zm524.36 19.13c28.46,-1.55 52.15,16.08 78.57,23.18 14.6,7.22 29.2,20.54 46.52,17.05 8.74,-1.07 17.33,1.5 25.61,4.05 21.65,6.8 41.35,18.47 60.23,30.83 -14.47,42.06 -28.84,84.15 -43.31,126.21 -4.54,-8.66 -12.59,-13.6 -22.43,-13.91 4.77,10.65 10.53,20.82 16.64,30.78 -17.25,50.24 -34.37,100.54 -51.77,150.73 -14.85,14.83 -28.41,31.9 -47.49,41.53 15.24,-18.5 33.27,-35.34 42.88,-57.76 -14.57,7.95 -28.56,17.22 -40.49,28.87 -17.04,16.3 -30.03,36.25 -46.75,52.84 -10.82,10.29 -20.51,22.82 -23.21,37.88 -3.82,17.84 3.98,35.13 9.86,51.59 5.05,13.07 2.7,27.32 4.69,40.9 1.38,13.63 15.9,19.79 20.05,32.22 -8.07,7.06 -13.99,16.11 -19.87,24.95 -13.17,-25 -7.01,-54.3 -13.6,-80.97 -0.97,1.63 -1.89,3.26 -2.81,4.94 -5.27,-0.79 -11.67,-1.3 -14.78,4.05 -10.47,11.88 -4.91,28.31 -7.31,42.47 -6.42,1.61 -13.76,3.21 -17.55,9.2 -4.94,7.72 -8,16.46 -12.46,24.46 -2.34,-24.23 3.95,-48 8.74,-71.52 -3.16,0.59 -6.29,1.18 -9.4,1.94 -16.33,11.82 -19.44,33.4 -32.51,47.95 -1.81,-5.89 -5.5,-12.13 -12.28,-12.84 -10.58,-2.55 -19.01,5.48 -26.7,11.34 5.4,-25 19.26,-46.78 28.05,-70.48 -12.72,10.09 -21.73,24 -34.83,33.66 -10.19,7.49 -18.7,17.1 -29.66,23.59 1.66,-10.32 5.53,-20.25 5.99,-30.75 0.46,-5.96 -3.9,-11.03 -9.17,-13.12 -10.45,-2.11 -19.41,4.92 -27.7,10.09 9.48,-17.1 17.58,-35.31 30.76,-50.04 8.48,-10.16 18.8,-18.7 26.44,-29.6 13.79,-19.6 33.68,-34.42 55.59,-43.8 8.03,-3.62 17.48,-4.79 23.83,-11.44 -6.02,-0.99 -12.08,-1.37 -18.12,-1.6 5.53,-4.39 10.78,-9.28 14.5,-15.34 21.45,-32.71 23.34,-74.37 46.16,-106.4 10.2,-13.5 20.77,-26.83 32.95,-38.62 11.79,-12.13 24.28,-24.26 31.51,-39.82 8.05,-16.64 7.32,-36.84 -0.71,-53.35 -5.3,12.53 0.64,27.95 -8.64,38.93 -25.35,35.38 -64,60.05 -84.1,99.44 -12.56,21.75 -18.45,46.37 -26.96,69.81 -2.21,6.77 -6.31,12.63 -10.87,18.06 -11.34,-11.87 -21.53,-25.1 -27.85,-40.33 -4.99,-11.16 -6.88,-23.31 -9.43,-35.16 -8.99,20.76 -3.11,44.08 2.09,65.07 2.22,10.95 2.19,25.35 -8.48,32 -28.36,18.75 -64.61,15.67 -94.5,30.98 1.27,-10.5 2.68,-20.99 4.51,-31.39 -13.32,20.33 -25.55,41.43 -35.03,63.85 -6.96,-14.24 -15.26,-27.98 -27.06,-38.75 -13.96,-13.81 -27.72,-27.83 -41.94,-41.35 9.33,16.63 17.89,34.62 33.43,46.49 -36.74,-2.7 -70.55,-19.41 -107.03,-23.44 -14.83,-2.06 -29.43,2.22 -43.59,6.04 9.68,5.38 19.82,10.73 26.95,19.49 6.86,7.75 10.75,17.48 14.32,27.06 -18.55,-12.92 -38.9,-23.57 -61.04,-28.69 -12.11,-2.7 -24.67,-6.14 -37.1,-3.67 -29.78,6.53 -60.15,14.04 -90.88,10.6 -37.15,-0.76 -69.88,20.23 -105.99,25.73 -13.68,0.39 -28.86,0.97 -40.28,-7.94 -10.47,-8.36 -19.26,-19.04 -31.97,-24.23 8.03,-8.31 16.08,-16.62 24,-25.05 -19.06,5.22 -40.71,10.78 -59.64,2.42 -10.09,-4.56 -7.6,-16.92 -10.81,-25.43 -3.21,-5.27 -7.08,-10.08 -10.29,-15.33 7.67,-2.53 15.57,-5.07 23.75,-4.44 20.51,0.87 38.37,12.13 55.59,22.17 12.05,6.88 24.33,15.13 38.7,15.54 31.18,0.92 61.73,-6.29 92.53,-9.93 34.37,-4.62 69.15,-0.21 103.6,-3.22 16.15,-1.27 31.74,-5.98 47.54,-9.24 26.14,-5.25 53.17,-8.59 79.67,-3.95 -12.44,-17.84 -22.6,-37.17 -31.19,-57.12 13.86,4.81 26.57,12.17 38.6,20.43 -7.46,-9.94 -16.05,-19.42 -20.64,-31.16 -2.98,-7.67 -3.13,-17.68 3.49,-23.54 12,-11.62 30.76,-9.63 43.55,-19.98 8.91,-5.73 13.8,-15.41 20.76,-23.08 3.77,-4.76 10.32,-0.3 13.17,3.31 6.58,8.66 10.63,18.93 16.74,27.9 -1.3,-9.12 -2.27,-18.34 -4.61,-27.26 -2.09,-8.08 -10.5,-13.3 -10.83,-21.99 -1.2,-10.52 4.89,-19.74 10.75,-27.84 7.19,-9.58 14.07,-19.7 23.9,-26.78 9.91,-6.98 16.89,-17.07 24.97,-25.94 3.44,-3.77 6.62,-7.92 8,-12.94l0.79 -0.54c9.99,-6.75 19.49,-14.14 29.25,-21.24 -0.21,-11.6 -0.28,-24 -6.58,-34.19 -6.85,-10.96 -17.47,-19.11 -28.81,-25.05 -10.7,-5.73 -23.29,-4.81 -34.65,-8.46 22.9,-0.66 46.73,1.2 67.67,11.29 14.29,6.65 23.62,19.85 33.93,31.21 1.46,10.47 -1.58,20.51 -6.87,29.43 23.56,-21.2 40.4,-48.39 58.62,-74.02 15.74,-10.77 32.59,-19.97 50.45,-26.75 9.04,-3.41 18.52,-7.26 28.4,-5.94 24.79,2.45 47.34,13.81 70.45,22.25 -1.91,-14.7 -7.34,-28.84 -17.17,-40.08zm386.47 314.55c3.29,-9.58 6.44,-19.16 9.83,-28.69 36.03,49.27 68.49,101.33 94.14,156.79 -7.05,23.77 -17.96,48.41 -38.77,63.21 -12.26,8.77 -28.13,4.69 -41.13,0 -27.36,-10.24 -50.8,-28.18 -73.93,-45.55 14.6,-42.65 29.15,-85.33 43.77,-127.98 23.39,35.34 43.36,73.23 71.49,105.22 2.62,-14.29 -5.55,-27 -10.24,-39.87 -12.36,-31.11 -29.68,-60.97 -55.16,-83.13zm-1297.96 150.57c14.62,-9.55 31.84,-13.78 48.33,-18.83 6.24,-2.37 13.42,1.28 17.07,6.45 5.88,10.4 8.68,22.85 5.55,34.6 -6.6,3 -13.27,5.86 -20.08,8.36 -11.13,-9.61 -20.38,-24.01 -35.79,-26.58 -10.29,-1.83 -15.9,8.13 -20.77,15.26 0.59,-6.52 -0.58,-15 5.69,-19.26zm1411.72 21.28c17.5,-3.75 30.67,9.5 45.17,16.48 4.53,2.14 8.18,5.73 10.37,10.29 14.06,26.55 19.95,56.56 33.78,83.24 6.7,12.97 17.1,23.44 25.45,35.29 9.28,12.33 17.02,25.7 25.48,38.57 9,13.76 24.84,20.79 34.19,34.22 -4.66,10.52 11.19,14.93 9.71,25.09 -0.41,5.81 -6.93,6.9 -11.49,7.82 -13.61,1.96 -26.01,-5.76 -35.75,-14.39 2.48,6.32 4.16,12.92 5.13,19.64 -6.88,-1.88 -14.09,-3.77 -19.62,-8.48 -8.38,-6.4 -13.61,-15.72 -20.79,-23.21 -1.58,0.17 -4.69,0.53 -6.24,0.71 -3.29,-6.65 -5.71,-13.68 -9.25,-20.18 -3.93,-6.11 -10.19,-10.37 -13.76,-16.74 -7.97,-14.16 -13.27,-29.6 -19.08,-44.71 -6.88,-17.63 -18.65,-32.77 -26.07,-50.12 -8.91,-23.89 -10.49,-49.6 -16.05,-74.31 -1.55,-7.47 -6.29,-13.63 -11.18,-19.21zm-1349.76 25.73c18.9,1.09 37.42,5.68 55.31,11.62 -17.38,6.03 -38.65,8.4 -54.4,-3.04 -0.22,-2.16 -0.68,-6.44 -0.91,-8.58zm-59.49 18.29c6.16,13.2 21.7,16.36 30.85,26.75 -12.25,4.82 -32.31,5.86 -32.41,23.29 -9.48,-15.72 -2.67,-33.86 1.56,-50.04zm92.53 14.68c5.89,-2.6 12.33,-0.54 18.4,0.25 -3.49,10.8 -13.81,16.87 -24.36,19.19 -11.06,-3.26 -23.11,-0.21 -33.73,-5.51 0.81,-1.6 2.47,-4.76 3.31,-6.37 7.57,1.38 15.13,4.08 22.9,3.65 6.12,-1.33 8.62,-7.95 13.48,-11.21zm-22.72 43.44c2.39,-7.29 8.05,-12.44 14.14,-16.72 5.86,7.88 13.45,14.3 23.13,16.74 -9.81,5.84 -18.37,13.86 -24.36,23.62 -2.65,8.56 2.7,16.05 8.97,21.25 -17.48,-1.15 -27.23,-17.74 -37.68,-29.58 6.55,-3.52 13.15,-7.98 15.8,-15.31zm715.82 -505.1l0 0c-21.22,39.41 -47.59,76.69 -82.47,105.22 28,-3.18 54.01,-22.88 64.05,-49.35 10.16,-23 21.3,-45.83 27.59,-70.24 -3.62,4.41 -6.52,9.33 -9.17,14.37zm177.48 152.03l0 0c-20.08,43.1 -56,76.1 -77.79,118.16 -7.18,13.33 -10.6,28.23 -17.45,41.71 -7.01,14.01 -13.55,28.71 -14.39,44.61 13.52,-19.13 22.36,-41.45 38.52,-58.7 42.83,-50.93 74.72,-111.85 87.9,-177.3 -8.18,8.99 -10.86,21.17 -16.79,31.52zm-443.6 -293.05l0 0c0.74,-2.42 2.19,-7.21 2.91,-9.61 -12.77,9.05 -24.56,19.57 -33.99,32.11 16.77,5.86 29.02,19.41 44.79,27.06 5.76,1.88 12.92,5.52 18.57,1.6 10.96,-7.08 21.33,-15.13 32.9,-21.25 9.93,-5.66 21.01,-8.66 31.44,-13.22 -22.43,-12.31 -48.82,-10.04 -73.43,-11.42 11.28,-11.36 25.04,-19.61 37.76,-29.17 -22.35,1.05 -41.71,13.74 -60.95,23.9z"/>
   <path class="fil4" d="M653.23 20.64c10.88,-2.22 22.07,-1.76 33.07,-2.63 12.46,-2.93 25.2,-0.23 37.73,0.41 19.62,-0.15 39.21,1.68 58.58,4.59 6.77,0.68 13.58,1.3 20.33,2.49 5.07,0.87 10.19,1.58 15.26,2.5 4.28,0.89 8.61,1.66 12.89,2.55 20.67,3.87 41.05,9.14 61.12,15.31 22.6,6.96 44.69,15.62 66.04,25.76 1.27,0.64 3.85,1.93 5.12,2.57 14.78,7.19 29.07,15.39 42.88,24.31 -24.64,-9.18 -47.56,-22.42 -72.23,-31.49 -24.56,-7.49 -49.83,-12.39 -74.47,-19.57 -31.52,-9.4 -64.2,-15.31 -97.12,-15.87 -31.26,-3.9 -62.85,-2.14 -94.27,-2.24 -35.57,1.78 -70.98,8.35 -104.56,20.25 -22.34,8.23 -45.76,19.26 -57.76,41.04 -3.97,-2.08 -7.9,-4.25 -11.87,-6.34 -0.33,-4.69 -0.71,-9.86 2.83,-13.55 28.38,-27.21 67.23,-39.95 105.53,-45.18 7.54,-1.42 15.21,-1.93 22.88,-2.49 9.19,-2.04 18.67,-1.91 28.02,-2.42zm140.79 528c12.16,-6.04 24.89,2.34 35.34,8.13 -30.85,7.97 -59.24,22.62 -88.92,33.83 -2.09,-1.84 -4.12,-3.67 -6.21,-5.45 18.16,-14.78 38.62,-26.58 59.79,-36.51zm36.28 8.68c18.37,12.34 34.04,28.18 48.92,44.46 17.96,20.72 34.67,42.93 46.62,67.7l-1.02 2.93c-10.31,-11.36 -19.64,-24.56 -33.93,-31.21 -20.94,-10.09 -44.77,-11.95 -67.67,-11.29 11.36,3.65 23.95,2.73 34.65,8.46 11.34,5.94 21.96,14.09 28.81,25.05 6.3,10.19 6.37,22.59 6.58,34.19 -9.76,7.1 -19.26,14.49 -29.25,21.24 1.48,-9.91 5.45,-20.89 -0.46,-30.14 -12.87,-22.29 -36.61,-34.54 -59.11,-45.01 12.21,0.61 24.36,2.08 36.59,2.82 -23.34,-9.88 -48.72,-13.25 -73.02,-19.9 30.6,-8.35 61.81,-14.29 92.53,-22.16 -31.97,0.71 -63.51,6.6 -95.36,8.89 29.79,-11.13 60.05,-20.97 90.12,-31.34 -36.28,0.28 -70.2,14.68 -105.43,21.28 24.46,-19.16 53.07,-31.7 80.43,-45.97zm159.98 54.91c36.51,-22.4 75.41,-44.03 118.75,-48.46 29.71,1.91 54.04,21.33 78.24,36.71 -26.42,-7.1 -50.11,-24.73 -78.57,-23.18 9.83,11.24 15.26,25.38 17.17,40.08 -23.11,-8.44 -45.66,-19.8 -70.45,-22.25 -9.88,-1.32 -19.36,2.53 -28.4,5.94 -17.86,6.78 -34.71,15.98 -50.45,26.75 4.05,-5.58 7.62,-11.95 13.71,-15.59zm224.69 -9.48c38.11,6.07 75.15,18.75 108.76,37.76 -1.38,3.98 -2.75,7.92 -4.1,11.9 -18.88,-12.36 -38.58,-24.03 -60.23,-30.83 -8.28,-2.55 -16.87,-5.12 -25.61,-4.05 -6.16,-5.07 -12.51,-9.91 -18.82,-14.78zm-602.91 11.72c8.36,-3.16 17.15,-5.09 25.94,-6.55 -7.29,3.62 -13.1,9.35 -11.8,18.22 -4.79,-3.57 -14.45,-4.25 -14.14,-11.67zm561.6 344.39c11.93,-11.65 25.92,-20.92 40.49,-28.87 -9.61,22.42 -27.64,39.26 -42.88,57.76 19.08,-9.63 32.64,-26.7 47.49,-41.53 -4.89,14.24 -9.43,28.61 -14.78,42.7 -15.23,11.06 -28.48,24.46 -42.93,36.43 -21.29,15.72 -37.47,38.42 -44.2,64.13 8.36,16.33 3.92,35.9 12.26,52.15 4.68,10.58 18.77,11.65 23,22.63 -4.74,3.16 -9.5,6.31 -13.81,10.03 -4.15,-12.43 -18.67,-18.59 -20.05,-32.22 -1.99,-13.58 0.36,-27.83 -4.69,-40.9 -5.88,-16.46 -13.68,-33.75 -9.86,-51.59 2.7,-15.06 12.39,-27.59 23.21,-37.88 16.72,-16.59 29.71,-36.54 46.75,-52.84zm-388.56 15.54c14.22,13.52 27.98,27.54 41.94,41.35 11.8,10.77 20.1,24.51 27.06,38.75 -3.98,9.09 -7.77,18.32 -12.87,26.88 -13.25,2.8 -25.81,8.74 -39.54,9.14 2.88,-3.87 6.78,-7.84 6.55,-13.01 -3.39,-3.55 -8.49,-0.03 -12.54,0.02 -69.3,14.62 -140.94,18.6 -211.41,11.29 -10.88,-1.46 -21.84,-1.99 -32.79,-2.04 -18.24,-1.96 -36.03,-7.01 -53.81,-11.44 8.89,-2.85 17.5,-6.5 25.89,-10.55 -37.23,7.21 -74.88,11.82 -112.72,14.52 -3.49,0.23 -6.9,-0.25 -10.21,-1.42 18.8,-8.26 40.43,-9.86 57.58,-21.79 -14.63,-1.78 -29.41,-1.09 -44.06,-2.09 36.11,-5.5 68.84,-26.49 105.99,-25.73 30.73,3.44 61.1,-4.07 90.88,-10.6 12.43,-2.47 24.99,0.97 37.1,3.67 22.14,5.12 42.49,15.77 61.04,28.69 -3.57,-9.58 -7.46,-19.31 -14.32,-27.06 -7.13,-8.76 -17.27,-14.11 -26.95,-19.49 14.16,-3.82 28.76,-8.1 43.59,-6.04 36.48,4.03 70.29,20.74 107.03,23.44 -15.54,-11.87 -24.1,-29.86 -33.43,-46.49zm775.27 108.76c20.81,-14.8 31.72,-39.44 38.77,-63.21 5.1,6.27 11.47,11.29 17.86,16.18 16.39,-0.82 32.87,4.61 45.15,15.59 16.76,14.86 23.9,36.89 31.85,57.12 5.35,15.16 13.27,29.17 21.04,43.19 6.98,12.1 17.68,21.7 29.53,28.94 -0.79,-6.09 -3.03,-11.8 -5.96,-17.12 17.58,19.57 29.43,43.28 40.51,66.9 4.66,10.88 18.21,13.71 23.74,23.85 3.04,11.03 4.26,22.65 3.77,34.09 -7.69,-2.17 -18.31,0.81 -23.26,-6.9 -9.35,-13.43 -25.19,-20.46 -34.19,-34.22 -8.46,-12.87 -16.2,-26.24 -25.48,-38.57 -8.35,-11.85 -18.75,-22.32 -25.45,-35.29 -13.83,-26.68 -19.72,-56.69 -33.78,-83.24 -2.19,-4.56 -5.84,-8.15 -10.37,-10.29 -14.5,-6.98 -27.67,-20.23 -45.17,-16.48 -2.27,-2.65 -4.46,-5.25 -6.73,-7.85 -2.32,11.77 2.73,25.88 -5.17,35.97 -20.43,15.8 -47.87,20.33 -72.89,15.37 -32.23,-6.25 -61.15,-22.73 -89.4,-38.65 3.56,-10.3 7,-20.64 10.57,-30.93 23.13,17.37 46.57,35.31 73.93,45.55 13,4.69 28.87,8.77 41.13,0zm-473.13 44.1c3.11,-5.35 9.51,-4.84 14.78,-4.05 -5.27,10.7 -12.28,21.38 -12.81,33.66 -0.64,6.98 4.02,12.61 8.05,17.78 0.2,4.38 0.38,8.79 0.69,13.2 -2.81,-7.67 -7.09,-15.26 -14.93,-18.68l-3.09 0.56c2.4,-14.16 -3.16,-30.59 7.31,-42.47zm-70.49 54.5c13.07,-14.55 16.18,-36.13 32.51,-47.95 -2.78,8.97 -3.49,18.52 -6.93,27.29 -5.91,11.69 -14.37,21.91 -23.34,31.36 -0.76,-3.57 -1.45,-7.13 -2.24,-10.7z"/>
   <path class="fil5" d="M999.55 535.26c8.43,-7.34 20.76,-5.32 30.73,-2.75 -0.92,2.98 -1.4,6.5 -4.59,8.03 -29.25,21.58 -57.45,44.73 -82.7,70.98 -1.89,-13.74 -7.87,-29.81 1.73,-42.02 12.87,-18.72 36.82,-22.52 54.83,-34.24zm-253.1 1.91c5.58,-0.2 11.21,-0.18 16.79,0.16 1.15,10.01 -6.26,17.37 -14.11,22.14 0.26,-7.55 -0.81,-15.01 -2.68,-22.3zm-28.05 3.95c5.25,-0.2 10.88,-2.65 15.98,-0.86 3.72,6.72 6.34,13.98 9.93,20.76 -10.85,-2.67 -22.03,-8.74 -25.91,-19.9zm-68.76 54.07c15.59,-3.9 32,-4.72 47.87,-2.17 7.26,0.82 10.75,8 14.19,13.53 -2.47,11.26 -17.3,15.97 -16.74,27.95 5.58,10.7 14.14,19.49 21.51,28.99 -25.84,-1.25 -51.37,-5.91 -76.36,-12.36 -3.9,-20.56 16.69,-31.69 30.34,-42.19 -4.25,-7.89 -12.94,-10.8 -20.81,-13.75zm-53.94 36.79c0.16,-7.8 0.94,-16.21 5.96,-22.53 0.87,5.38 -2.85,13.58 3.73,16.49 11.23,6.39 20.56,16.4 24.53,28.86 -1.48,10.5 -9.15,19.39 -17.71,25.18 -0.81,-0.36 -2.44,-1.05 -3.26,-1.41 -7.16,-14.52 -12.58,-30.29 -13.25,-46.59zm163.32 8.94c15.23,-1.05 30.31,1.32 45.42,2.78 22.5,10.47 46.24,22.72 59.11,45.01 5.91,9.25 1.94,20.23 0.46,30.14l-0.79 0.54c-13.15,8.84 -25.1,19.29 -37.2,29.48 -28.43,23.54 -49.02,54.57 -73.91,81.55 -11.62,15.62 -33.17,20.18 -51.41,16.1 -12.79,-2.77 -23.88,-13.27 -26.04,-26.39 19.85,-7.44 41.81,-1.15 61.66,-8.03 14.47,-8.17 19.05,-25.81 23.54,-40.61 6.29,-26.42 12.84,-53.37 26.95,-76.87 5.84,-9.91 14.91,-17.63 19.16,-28.48 -21.78,5.12 -44.59,3.98 -66.55,0.77 2.42,-7.16 6.93,-13.35 12.72,-18.2 12.4,2.88 24.76,6.25 37.5,7.57 -9.73,-6.09 -20.66,-9.73 -30.62,-15.36zm-118.32 29.71c5.12,-2.32 10.8,-1.87 16.25,-1.43 -1.78,5.12 -4.18,10.01 -6.8,14.75 -3.08,-4.28 -10.83,-7.18 -9.45,-13.32zm20.96 -1.41c5.3,0.62 10.63,1.2 15.95,1.84 -2.26,3.95 -4.66,7.85 -7.31,11.57 -3.08,-4.34 -5.93,-8.82 -8.64,-13.41zm25.13 2.19c8.3,0.92 16.63,1.56 24.96,2.2 -1.04,16.12 -11.21,29.19 -19.05,42.62 -1.58,-14.98 -2.12,-30.17 -5.91,-44.82zm-69.41 16.54c5.79,-4.23 11.65,-8.41 17.53,-12.51 4.56,16.97 6.78,34.45 9.68,51.75 -10.7,-11.83 -20.81,-24.51 -27.21,-39.24zm97.51 104.53c-1.25,-13.96 -4.03,-27.92 -3.49,-41.96 9.37,13.79 17.83,28.16 26.57,42.32 -4.15,4.87 -9.3,9.17 -15.9,9.96 -19.39,3.06 -39.16,2.09 -58.65,4.34 -10.75,-12.34 -16.15,-28.08 -19.87,-43.73 13.35,11.88 24.2,26.58 39.54,36.18 0.38,-5.5 1.02,-10.98 2.32,-16.35 4.84,2.93 9.07,6.7 12.82,10.93 1.09,-4.26 2.29,-8.49 3.56,-12.69 4.74,3.21 9.05,6.98 13.1,11zm-456.56 190.63c0.53,-8.41 3.49,-19.01 12.89,-21.22 9.12,-1.1 15.51,8.4 15.74,16.61 1.84,7.79 -5.83,13.07 -6.44,20.43 -0.89,8.64 0.92,17.22 2.75,25.63 -12.48,-10.06 -28.51,-23.44 -24.94,-41.45zm-56.54 91.95c-1.78,-7.72 3.06,-14.73 6.4,-21.25 12.56,5.76 28.17,11.62 31.51,26.75 -4.63,1.4 -7,-2.9 -9.83,-5.65 -2.91,15.28 12.43,24.68 20.91,35 -21.78,3.03 -45.98,-12.28 -48.99,-34.85zm266.52 11.51c9.74,-3.94 19.44,-7.92 29.38,-11.23 17.78,4.43 35.57,9.48 53.81,11.44 17.07,1.04 33.48,6.06 50.24,8.92 59.57,10.87 120.84,11.51 180.77,3.26 7.13,-0.77 13.27,-4.72 19.18,-8.44 13.73,-0.4 26.29,-6.34 39.54,-9.14 -9.48,14.75 -21.6,31.28 -40.41,33.58 -57.91,12.25 -117.63,7.08 -175.97,1.27 -29.73,-5.68 -58.42,-16.69 -88.74,-19.36 -19.13,-1.96 -39.01,-0.13 -56.71,7.77 -31.93,13.2 -68.16,19.54 -94.17,43.92 -9.86,9.96 -22.16,18.01 -36.53,18.78 0.38,-3.39 0.66,-6.78 0.79,-10.17 -9.3,-7.62 -16.77,10.22 -27.01,6.45 -2.88,-5.07 1.73,-10.83 6.6,-12.31 10.21,-3.03 21.55,0.36 31.34,-4.43 37.3,-17.71 69.7,-44.36 107.89,-60.31zm443.72 56.54c6.22,-7.34 15.47,-11.36 25.02,-11.57 1.15,16.56 -7.08,32.33 -17.22,44.79 -11.03,6.63 -22.57,14.35 -27.11,27.09 -0.53,-21.38 4.89,-44 19.31,-60.31zm-695.69 2.24c7.24,-2.93 15.39,-6.55 23.23,-3.79 -2.62,2.59 -5.35,5.07 -8.05,7.56 14.14,-0.15 28.28,-1.22 42.45,-0.56 -13.78,11.21 -31.85,14.35 -49.12,14.65 -5.81,-0.28 -12.33,-1.81 -16.15,-6.6 -2.3,-5.53 3.74,-8.84 7.64,-11.26zm84.28 48.87c14.09,-9.05 26.62,-20.28 40.2,-30.07 -6.87,20.74 -25.12,37.97 -47.21,40.77 -2.6,-5.17 -4.2,-11.57 -1.81,-17.1 4.41,-7.03 11.9,-11.69 19.88,-13.73 -0.87,8.1 -6.5,13.89 -11.06,20.13zm827.06 16.15c2.62,-13.3 9.3,-27.74 21.96,-34.14 8.64,1.17 10.78,11.34 10.96,18.57 0.38,24.11 -13.08,47.11 -32.18,61.2 4.81,-15.08 -0.46,-30.42 -0.74,-45.63zm-140.05 -24.74c4.23,-3.85 10.57,-11.54 16.38,-6.14 7.54,7.44 3.72,18.96 2.32,28.08 -6.7,18.93 -22.12,33.83 -40.18,42.19 8.31,-20.97 5.66,-46.5 21.48,-64.13zm81.42 -2.44c3.95,-6.3 14.63,-6.93 18.19,0.1 6.83,12.3 4.95,27.51 -0.2,40.05 -7.95,17.68 -20.36,33.4 -36.64,44.07 13.58,-19.33 11.8,-44.07 10.45,-66.44 2.83,-5.89 4.71,-12.26 8.2,-17.78z"/>
  </g>
 </g>
</svg>
