<?xml version="1.0" encoding="UTF-8"?>
<!DOCTYPE svg PUBLIC "-//W3C//DTD SVG 1.1//EN" "http://www.w3.org/Graphics/SVG/1.1/DTD/svg11.dtd">
<!-- Creator: CorelDRAW -->
<svg xmlns="http://www.w3.org/2000/svg" xml:space="preserve" width="2000px" height="1600px" version="1.1" style="shape-rendering:geometricPrecision; text-rendering:geometricPrecision; image-rendering:optimizeQuality; fill-rule:evenodd; clip-rule:evenodd"
viewBox="0 0 2000 1600"
 xmlns:xlink="http://www.w3.org/1999/xlink">
 <defs>
  <style type="text/css">
   <![CDATA[
    .fil0 {fill:#003D7D;fill-rule:nonzero}
    .fil2 {fill:#13B5EA;fill-rule:nonzero}
    .fil1 {fill:#FEFEFE;fill-rule:nonzero}
   ]]>
  </style>
 </defs>
 <g id="Capa_x0020_1">
  <metadata id="CorelCorpID_0Corel-Layer"/>
  <g id="Villanova_x0020_Wildcats.cdr">
   <path class="fil0" d="M99.68 0.16c261.96,-0.26 523.95,-0.15 785.9,-0.05 -0.07,57.03 0.06,114.05 -0.05,171.08 -17.98,3.91 -36.86,12.19 -46.27,28.91 -6.9,12.35 -5.74,27.32 -1.06,40.23 53.79,145.23 107.83,290.36 161.59,435.62 53.63,-141.79 105.62,-284.24 158.66,-426.25 5.66,-14.18 10.52,-30.33 4.4,-45.22 -7.98,-19.48 -28.97,-29.07 -48.33,-33.31 -0.06,-57.06 -0.06,-114.11 0,-171.16 261.93,0.02 523.84,0.02 785.77,0.02 0.05,57 0.02,114.01 0,171.01 -31.41,12.11 -54.64,38.71 -71.82,66.77 -16,25.57 -25.47,54.35 -36.06,82.39 -129.62,345.48 -259.34,690.94 -388.93,1036.44 -4.86,13.48 -9.85,27.06 -11.86,41.34 -1.05,6.97 0.16,15.3 6.28,19.75 8.28,6.43 18.6,9.31 27.86,14.02 -0.05,56.05 -0.03,112.1 0,168.15 -283.8,0.21 -567.62,0.03 -851.42,0.08 -0.1,-56.08 0.03,-112.15 -0.08,-168.23 9.6,-4.91 20.51,-7.64 28.81,-14.79 5.94,-5.19 6.51,-13.97 5.05,-21.19 -3.4,-19.17 -10.96,-37.22 -17.65,-55.39 -130.05,-346.79 -260.26,-693.5 -390.34,-1040.27 -12.6,-35.7 -29.4,-70.84 -55.92,-98.41 -12.58,-13.02 -27.37,-24.31 -44.45,-30.66 -0.1,-56.98 0.05,-113.93 -0.08,-170.88z"/>
   <path class="fil1" d="M138.34 38.64c236.21,-0.02 472.4,-0.02 708.61,0 0.03,36.12 0.03,72.26 0,108.37 -20.3,7.44 -39.02,21.89 -47.23,42.39 -8.97,22.02 -4.83,46.97 3.53,68.5 65.54,176.69 131.16,353.35 196.72,530.04 66.08,-177.36 131.78,-354.82 197.71,-532.22 8.3,-21.97 11.52,-47.59 1.28,-69.46 -8.77,-19 -26.72,-32.1 -45.91,-39.3 0.2,-36.14 -0.23,-72.28 0.2,-108.45 236.16,0.26 472.32,0 708.48,0.13 -0.03,36.17 0,72.31 0,108.45 -31.3,17.62 -53.94,47.25 -71.35,78.04 -14.02,24.41 -22.82,51.27 -32.8,77.45 -121.9,324.8 -243.77,649.57 -365.65,974.35 -9.51,25.75 -19.8,51.24 -28.42,77.32 -6.87,23.05 -13.32,47.97 -6.79,71.84 4.11,14.77 17.46,23.85 30.46,30.33 -0.08,34.98 0,69.96 -0.06,104.95 -258.1,-0.1 -516.22,0.31 -774.32,-0.21 0.31,-34.98 -0.03,-69.94 0.15,-104.92 14.02,-6.43 27.73,-16.9 31.15,-32.82 6.1,-28.81 -3.65,-57.83 -12.86,-84.86 -134.43,-358.24 -268.83,-716.5 -403.33,-1074.72 -18.44,-46.06 -46.38,-91.16 -89.77,-117.37 0.44,-35.93 0.05,-71.89 0.2,-107.83zm1443.17 63c-180.14,464.65 -359.99,929.41 -539.92,1394.16l278.04 0c0,-5.74 0,-11.47 -0.05,-17.18 -19.89,-18.11 -35.73,-42.73 -36.38,-70.35 -0.43,-27.14 8.52,-53.25 17.57,-78.46 122.54,-326.72 245.16,-653.4 367.78,-980.1 14.49,-37.97 28.12,-76.27 43.17,-114.01 19.44,-45.37 45.09,-89.82 83.13,-122.1 0,-3.99 -0.02,-7.95 0.03,-11.94l-213.37 -0.02zm-1376.34 0.02c0.03,4.04 0.05,8.08 0.1,12.12 15.62,12.32 28.3,27.86 40,43.78 20.86,29.06 37.1,61.24 49.67,94.68 130.26,347.13 260.55,694.2 390.75,1041.36 12.94,35.65 29.35,71.12 31.28,109.57 0.93,29.3 -15.07,56.23 -36.39,75.22 -0.21,5.78 -0.24,11.6 -0.16,17.41 92.68,0 185.33,0.03 278.01,-0.02l-539.66 -1394.12c-71.2,-0.05 -142.4,-0.02 -213.6,0zm284.52 0l510 1317.51 510.75 -1317.51c-98.75,-0.05 -197.53,-0.02 -296.28,-0.02 -0.02,3.96 -0.02,7.95 0,11.91 26.16,19.06 44.87,48.3 50.45,80.25 5.32,28.55 -0.03,58.03 -10.24,84.89l-254.71 684.68c-83.57,-226.39 -167.91,-452.51 -251.77,-678.82 -10.06,-25.28 -16.56,-52.68 -13.86,-80.05 3.06,-35.8 22.53,-69.76 51.7,-90.67 0.13,-4.06 0.15,-8.13 0.18,-12.19 -98.75,0 -197.5,-0.03 -296.22,0.02z"/>
   <path class="fil2" d="M418.77 101.66c23.64,-0.02 47.28,-0.05 70.92,0l510 1317.51 510.75 -1317.51 71.07 -0.02 -539.92 1394.16 -83.16 -0.02c-179.7,-464.79 -359.99,-929.34 -539.66,-1394.12z"/>
  </g>
 </g>
</svg>
