<?xml version="1.0" encoding="UTF-8"?>
<!DOCTYPE svg PUBLIC "-//W3C//DTD SVG 1.1//EN" "http://www.w3.org/Graphics/SVG/1.1/DTD/svg11.dtd">
<!-- Creator: CorelDRAW -->
<svg xmlns="http://www.w3.org/2000/svg" xml:space="preserve" width="2000px" height="1600px" version="1.1" style="shape-rendering:geometricPrecision; text-rendering:geometricPrecision; image-rendering:optimizeQuality; fill-rule:evenodd; clip-rule:evenodd"
viewBox="0 0 2000 1600"
 xmlns:xlink="http://www.w3.org/1999/xlink">
 <defs>
  <style type="text/css">
   <![CDATA[
    .fil1 {fill:#FEFEFE}
    .fil0 {fill:#FC5A1E;fill-rule:nonzero}
   ]]>
  </style>
 </defs>
 <g id="Capa_x0020_1">
  <metadata id="CorelCorpID_0Corel-Layer"/>
  <g id="Virginia_x0020_Cavaliers.cdr">
   <path class="fil0" d="M0 687.43c60.31,47.07 120.3,94.59 181.85,140.04 29.03,21.45 58.14,42.81 88.38,62.51 105.12,65.55 213.41,126.92 328.16,174.06 90.17,33.39 180.23,68.19 273.91,90.68 38.79,9.57 78.01,17.48 116.86,26.82 4.89,1 9.91,3.11 14.93,1.58 41.67,-9.99 84.06,-16.65 125.85,-26.18 41.92,-9.28 83,-22.31 122.66,-38.79 42.65,-14.85 85.13,-30.22 127.47,-45.96 41.11,-14.86 80.67,-33.55 120,-52.58 81.93,-40.3 161.05,-86.2 238.14,-135.1 90.24,-61.61 175.7,-129.85 261.79,-197.08 -4.35,15.32 -13.65,28.42 -23.02,41.01 -25.07,36.33 -57.25,66.95 -89.76,96.5 -32.61,28.27 -64.99,57.13 -100.91,81.18 -65.82,44.19 -134.1,84.6 -203.11,123.52 -47.94,26.83 -96.28,53.09 -146.42,75.65 -37.1,16.48 -75.14,30.76 -113.33,44.41 -63.43,22.76 -127.63,43.3 -191.87,63.64 43.46,11.46 87.87,18.87 131.99,27.33 41.65,7.35 83.35,15.46 125.76,16.84 4.42,-9.75 8.64,-20.74 18.23,-26.56 5.6,-3.58 13.99,-3.82 18.52,1.64 8.15,9.37 9.31,22.56 10.22,34.46 86.13,12.9 173.15,19.61 260.05,24.78 9.02,-7.04 18.72,-14.63 30.58,-15.5 13.39,-0.77 28.67,-0.15 39.1,9.46 10.28,9.49 11.08,25.23 6.78,37.77 -4.62,13.55 -12.37,27.47 -25.5,34.29 -13.32,5.19 -26.86,-2.49 -39.88,-4.98 -3.9,-0.84 -6.75,2.53 -7.74,5.87 -15.33,42.41 -46.06,79.2 -85.45,101.25 -32.57,19.18 -71.96,26.31 -109.11,19.01 -28.69,-5.91 -57.75,-16.46 -78.96,-37.42 -25.64,-25.42 -39.52,-61.31 -41.14,-97.08 -0.49,-8.37 -0.69,-16.76 -1.14,-25.13 -44.03,-6.2 -87.68,-14.84 -131.34,-23.16 -78.82,-15.28 -157.45,-31.42 -236.03,-47.87 -7.15,-1.25 -14.39,-4.25 -21.67,-2.38 -91.62,19.27 -183.34,38.01 -275.29,55.62 -34.35,6.37 -68.66,13.06 -103.27,17.72 -1.14,18.72 -0.74,37.75 -5.69,56 -8.61,34.84 -29.93,67.72 -62.02,85.04 -37.52,19.65 -82.42,27.6 -123.7,16.06 -55.44,-15.66 -101.83,-59 -122.45,-112.62 -2,-4.29 -3.27,-11.46 -9.38,-11.04 -12.21,2.33 -24.11,8.79 -36.88,6.28 -11.1,-3.21 -18.27,-13.38 -23.67,-23 -6.39,-12.39 -11.05,-27.78 -4.9,-41.17 4.81,-10.74 16.16,-17 27.55,-18.14 9.86,-0.86 20.43,-1.64 29.67,2.64 6.95,3.09 12.9,7.89 18.89,12.51 84.71,-4.78 169.31,-12.19 253.42,-23.38 2.29,-0.36 4.49,-1.03 6.58,-2.03 1.35,-11.72 2.08,-24.73 10.34,-34.01 4.98,-5.95 14.26,-4.76 20.01,-0.58 8.5,6.13 12.5,16.3 16.61,25.58 49.36,-1.56 97.79,-11.99 146.26,-20.54 37.26,-7.39 74.85,-13.66 111.53,-23.58 -87.26,-27.73 -174.59,-55.62 -259.88,-89.09 -48.27,-18.67 -94.63,-41.9 -140.4,-65.96 -57.17,-30.34 -113.51,-62.24 -169.02,-95.53 -43.5,-26.71 -87.75,-52.8 -126.56,-86.22 -48.72,-40.52 -97.39,-81.98 -137.34,-131.47 -12.97,-18.36 -28.6,-35.68 -35.26,-57.62zm413.2 -564.95c4.8,-4.2 11.39,-4.22 17.43,-4.29 145.13,0.09 290.26,0 435.41,0.05 5.37,-0.18 10.68,1.18 14.92,4.57 -2.95,6.35 -7.86,11.44 -13.61,15.3 -27.53,19.32 -57.89,36.22 -78.96,63.13 -7.73,9.04 -6.57,21.83 -4.24,32.66 5.44,23.18 18.43,43.48 29.11,64.46 51.56,95.84 103.72,191.38 157.81,285.82 6.22,10.59 12.26,21.27 19.18,31.39 22.01,-34.75 40.88,-71.36 60.91,-107.27 43.56,-80.33 87.31,-160.62 128.99,-241.98 7.99,-16.72 14.85,-35.39 12.27,-54.22 -3.28,-11.59 -12.94,-19.77 -21.2,-27.91 -20.38,-19.26 -45.45,-32.49 -66.46,-50.96 -3.22,-2.69 -4.99,-6.53 -6.77,-10.2 4.8,-3.57 10.66,-4.99 16.61,-4.79 145.1,-0.02 290.19,0.02 435.27,-0.02 4.98,0 9.82,1.31 14.61,2.55 -0.2,4.6 -1.89,8.9 -5.61,11.75 -15.13,13.03 -32,23.95 -46.68,37.54 -12.81,11.57 -24.8,24.05 -38.12,35.06 -13.5,10.97 -24.18,24.9 -34.38,38.91 -22.07,30.31 -38.21,64.28 -56.24,97.03 -88.33,165.54 -175.62,331.62 -263.68,497.31 -39.17,73.43 -77.91,147.09 -118.24,219.9 -3.53,6.41 -7.26,12.7 -11.28,18.8 -20.31,-33.22 -37.92,-68.01 -56.66,-102.14 -119.31,-222.51 -236.13,-446.35 -355.45,-668.86 -21.18,-39.51 -44.34,-79.81 -80.03,-108.07 -17.47,-15.81 -33.57,-33.22 -52.44,-47.45 -10.86,-9.29 -24.01,-16.28 -32.47,-28.07zm104.21 32.97l0 0zm0 0c39.77,32.58 75.45,71.35 99.27,117.2 20.12,37.08 39.48,74.56 58.98,111.95 105.92,204.57 210.23,409.94 314.66,615.25 111,-218.54 221.91,-437.14 334.95,-654.64 16.41,-30.93 32.09,-62.28 49.76,-92.52 23.3,-37.26 54.07,-69.44 87.91,-97.28 -88.06,-0.02 -176.1,0.15 -264.14,-0.09 18.47,16.41 33.06,38.59 36.19,63.51 2.46,17.87 -2.82,35.92 -11.23,51.58 -76.48,147.21 -155.19,293.25 -233.24,439.64 -13.88,-22.98 -26.02,-46.98 -39.28,-70.34 -66.66,-121.59 -134,-242.83 -198.82,-365.42 -9.33,-16.83 -14.74,-36.68 -10.57,-55.84 4.6,-25.23 20.9,-46.54 39.79,-63.11 -88.06,0.25 -176.15,0 -264.23,0.11zm-176.37 1190.9l0 0zm0 0c3.86,11.85 7.86,24.26 16.7,33.5 14.25,14.9 34.79,22.36 55.06,23.69 25.54,1.74 51.41,-3.1 75.01,-12.83 26.38,-12.1 50.18,-34.79 55.58,-64.28 -67.46,6.57 -134.89,13.19 -202.35,19.92zm1112.53 -18.46l0 0zm0 0c-0.02,7.75 3.22,14.9 6.93,21.54 14.77,26 41.17,43.66 69.12,52.85 29.07,9.77 62.35,8.59 89.51,-6.28 17.12,-9.55 32.68,-24.83 36.44,-44.79 -67.33,-7.79 -134.63,-15.97 -202,-23.32z"/>
   <path class="fil1" d="M675.66 384.6c105.92,204.57 210.23,409.94 314.66,615.25 111,-218.54 221.91,-437.14 334.95,-654.64 16.41,-30.93 32.09,-62.28 49.76,-92.52 23.3,-37.26 54.07,-69.44 87.91,-97.28 -88.06,-0.02 -176.1,0.15 -264.14,-0.09 18.47,16.41 33.06,38.59 36.19,63.51 2.46,17.87 -2.82,35.92 -11.23,51.58 -76.48,147.21 -155.19,293.25 -233.24,439.64 -13.88,-22.98 -26.02,-46.98 -39.28,-70.34 -66.66,-121.59 -134,-242.83 -198.82,-365.42 -9.33,-16.83 -14.74,-36.68 -10.57,-55.84 4.6,-25.23 20.9,-46.54 39.79,-63.11 -88.06,0.25 -176.15,0 -264.23,0.11 39.77,32.58 75.45,71.35 99.27,117.2 20.12,37.08 39.48,74.56 58.98,111.95z"/>
  </g>
 </g>
</svg>
