<?xml version="1.0" encoding="UTF-8"?>
<!DOCTYPE svg PUBLIC "-//W3C//DTD SVG 1.1//EN" "http://www.w3.org/Graphics/SVG/1.1/DTD/svg11.dtd">
<!-- Creator: CorelDRAW -->
<svg xmlns="http://www.w3.org/2000/svg" xml:space="preserve" width="2000px" height="1600px" version="1.1" style="shape-rendering:geometricPrecision; text-rendering:geometricPrecision; image-rendering:optimizeQuality; fill-rule:evenodd; clip-rule:evenodd"
viewBox="0 0 2000 1600"
 xmlns:xlink="http://www.w3.org/1999/xlink">
 <defs>
  <style type="text/css">
   <![CDATA[
    .fil2 {fill:black;fill-rule:nonzero}
    .fil0 {fill:#492580;fill-rule:nonzero}
    .fil1 {fill:#92949B;fill-rule:nonzero}
    .fil3 {fill:#FBFDFB;fill-rule:nonzero}
   ]]>
  </style>
 </defs>
 <g id="Capa_x0020_1">
  <metadata id="CorelCorpID_0Corel-Layer"/>
  <g id="Weber_x0020_State_x0020_Wildcats.cdr">
   <path class="fil0" d="M798.33 559.2c-26.4,-13.09 -30.66,-56.33 -6.28,-73.45 -1.14,8.4 4.34,15.06 9.17,21.26 -3.08,14.91 2.63,32.94 16.28,40.55 20.24,-8.79 17,-36.02 14.53,-54.13 6.77,2.59 13.62,5.06 20.62,7 1.67,12.48 4.91,25.49 1.06,37.89 -3.95,12.51 -16.77,18.52 -26.32,26.13 -0.84,0.19 -2.43,0.57 -3.27,0.76 -8.06,-3.99 -17.31,-3.54 -25.79,-6.01zm494.99 -50.25c1.45,-0.53 4.34,-1.6 5.82,-2.13 22.06,12.97 31.31,44.92 15.79,66.23 -13.81,19.2 -46.64,13.61 -56.37,-6.93 -6.55,-14.19 -2.36,-30.35 1.74,-44.62l3.39 -1.86c2.97,5.4 6.01,10.84 9.62,15.82 1.94,13.39 3.43,30.02 16.47,37.47 5.37,0.38 10.43,-3.76 12.48,-8.56 7.53,-18.14 5.1,-41.04 -8.94,-55.42zm49.19 99.51c41.11,-9.85 88.28,-26.55 104.83,-69.54 5.93,22.33 22.29,40.36 41.31,52.76 25.22,17.01 55.8,25.26 86.16,24.69 -15.79,18.3 -38.35,28.72 -59.61,39.22 52.19,51.31 88.82,118.49 102.32,190.49 1.56,8.22 3.35,16.51 2.82,24.96 -32.49,-31.92 -77.75,-50.29 -123.17,-50.94 18.9,24.23 28.95,53.6 32.64,83.84 43.78,36.21 60.25,94.68 67.7,148.84 -10.38,-9.81 -22.29,-22.48 -38.03,-20.35 -9.59,4.57 -6.89,16.55 -8.75,25.11 -11.64,95.74 -23.82,197.23 -81.71,277.71 -6.81,-97.79 -11.56,-200.42 -59.26,-288.59 -25.6,-48.5 -72.35,-87.22 -127.89,-94.15 15.9,-25.71 34.85,-51.31 40.4,-81.63 2.21,-13.19 -10.88,-19.36 -18.6,-26.89 9.93,-6.46 22.18,-8.29 33.09,-12.63 22.71,-6.65 41.46,-21.72 59.95,-35.79 23.96,-19.13 35.03,-51.16 31.72,-81.17 -3.99,-35.65 -21.53,-70.3 -49.98,-92.55 -10.23,-8.22 -23.05,-12.06 -35.94,-13.39zm-833.16 201.3c10.2,-25.22 22.1,-50.52 41.05,-70.45 12.44,102.06 32.33,206.78 88.28,294.91 -18.48,31.27 -33.39,64.63 -43.93,99.43 -21.26,67.79 -28.41,138.8 -44.35,207.84 -28.11,-82.01 -41.96,-168.54 -45.42,-255.04 -2.36,-58.09 2.02,-116.32 11.26,-173.69 -13.16,20.09 -26.82,40.21 -44.2,56.95 8.56,-54.09 17.95,-108.53 37.31,-159.95z"/>
   <path class="fil1" d="M141.22 112.97c19.97,7.84 29.98,28.87 47.17,40.55 76.26,39.94 161.01,64.1 231.46,114.73 10.46,2.28 21.64,-1.75 32.45,-1.3 68.31,-2.58 137.77,1.83 203.96,19.78 -0.38,-13.05 -11.83,-21.98 -19.1,-31.72 47.51,-35.04 104.3,-58.05 163.53,-61.78 -8.6,-8.1 -20.43,-12.55 -27.12,-22.55 45.11,-8.37 91.52,-6.77 136.82,-0.69 46.9,6.85 94.18,17.99 135.68,41.69 26.33,-17.19 56.87,-26.51 87.53,-32.37 31.87,-5.51 64.7,-8.03 96.81,-2.78 4.83,0.73 9.28,2.48 13.39,5.22 -8.79,7.64 -17.92,14.83 -26.78,22.32 35.91,-2.16 73.41,-1.56 107.3,11.91 11.26,5.25 24.42,11.18 29.48,23.39 -1.67,12.82 -9.2,24.16 -11.56,36.94 28.41,-13.35 60.4,-14.45 91.1,-17.73 104.64,-7.87 209.82,-6.23 314.23,-17.15 33.71,-3.77 65.66,-15.86 95.14,-32.22 -21.57,32.6 -47.66,61.96 -74.71,90.07 -12.86,13.13 -27.42,24.46 -39.63,38.27l1.63 -7.07c-46.44,20.84 -93.8,41.23 -144.16,50.24 -30.09,5.44 -60.98,5.1 -91.14,0.76 21.18,10.47 41.84,21.95 63.44,31.54 0.69,4.3 -3.91,6.39 -6.23,9.2 -33.33,30.47 -72.09,55.24 -114.65,70.6 4.03,1.14 8.1,2.25 12.21,3.35 -19.36,2.81 -38.84,-2.43 -58.28,0.3 9.36,-9.39 18.68,-18.82 27.28,-28.9 -28.04,6.5 -54.89,16.88 -82.39,25.21 6.69,-18.33 -13.2,-26.58 -27.96,-22.29 25.87,-21.26 53.56,-40.51 77.37,-64.2 -43.48,17.08 -87.87,32.63 -128.72,55.49 -19.63,10.69 -36.71,25.56 -50.14,43.44 4.64,-16.47 9.78,-32.75 13.96,-49.29 2.06,-9.02 1.3,-21.12 -6.92,-26.86 -10.27,-3 -21.15,-3.08 -31.69,-4.49 13.17,-42.9 57.06,-68.62 68.4,-112.29 -47.97,34.2 -95.67,74.06 -119.79,129.29 11.95,9.93 27.13,13.85 41.85,17.77 5.47,41.84 16.39,82.69 23.28,124.31 -7.69,21.79 1.21,45.26 -4.42,67.25 1.34,-13.54 3.47,-32.56 -10.5,-40.4 -15.78,-6.88 -32.67,1.26 -48.46,4 -48.34,12.25 -94.98,-16.4 -143.44,-11.68 -7.26,0.38 -13.04,5.06 -18.6,9.17 -1.14,-11.38 -3.99,-22.6 -3.12,-34.05 0.73,-11.86 -1.79,-23.5 -3.61,-35.14 -5.21,-33.02 -11.6,-65.85 -18.72,-98.49 14.38,-1.67 29.1,-3.53 42.19,-10.15 -16.02,-46.22 -35.07,-91.37 -57.02,-135.08 0.23,34.81 6.12,69.35 12.7,103.43 -14.45,2.05 -30.47,-1.56 -43.7,5.78 -9.28,4.91 -6.81,16.89 -4.6,25.14 7.26,25.57 17.8,50.06 25.63,75.47 -32.82,-36.51 -62.76,-76.99 -104.72,-103.77 -33.66,-21.45 -69.8,-39.44 -107.76,-51.84 32.37,27.08 65.47,53.4 94.98,83.64 -11.71,-2.28 -25.29,-4.83 -35.37,3.5 -7.38,6.01 -3.5,16.13 -3.31,24.12 -32.87,-12.67 -63.53,-30.39 -96.2,-43.44 8.44,14.65 21.03,26.17 31.34,39.41 -25.03,3.8 -51.62,6.24 -73.18,20.88 -10.88,6.89 -18.57,17.42 -25.45,28.07 8.03,-1.33 16.01,-2.77 24.04,-4.1 1.9,21.94 16.47,40.81 34.46,52.56 22.83,13.96 50.21,16.32 76.34,17.5 -37.31,20.12 -75.84,47.85 -86.57,91.37 -13.24,53.59 17.27,105.52 50.67,145 -13.51,12.44 -28.15,27.69 -26.21,47.66 3.35,31.08 22.29,57.44 30.16,87.22 -1.1,4.61 -5.09,7.73 -7.83,11.34 -21.3,23.51 -40.32,49.07 -56.76,76.19 -55.95,-88.13 -75.84,-192.85 -88.28,-294.91 -18.95,19.93 -30.85,45.23 -41.05,70.45 -19.36,51.42 -28.75,105.86 -37.31,159.95 17.38,-16.74 31.04,-36.86 44.2,-56.95 -9.24,57.37 -13.62,115.6 -11.26,173.69 -37.62,52.45 -68.24,109.39 -97.19,166.99 -10.88,-38.73 -23.62,-77.07 -29.93,-116.9 -14.99,-84.94 -7.8,-174.33 25.18,-254.32 9.09,-23.28 21.34,-45.08 33.17,-67.02 -27.66,-3.24 -55.84,-1.37 -82.74,5.85 18.26,-56.63 17.84,-122.59 60.29,-168.73 -37.08,3.12 -73.41,-9.7 -103.69,-30.43 37.16,-13.93 80.38,-27.92 101.18,-64.48l0.8 -1.44c17.88,-15.9 35,-32.76 55.46,-45.54 -17.27,2.82 -35.68,7.88 -52.8,2.1 -39.33,-22.67 -76.56,-51.62 -99.81,-91.41 20.31,-2.89 40.86,-0.61 61.02,2.28 -50.71,-20.35 -97.69,-50.47 -135.38,-90.22 -58.24,-57.82 -101.49,-136.29 -99.32,-220.21zm573.77 390.47c4.83,-3.69 9.01,-8.6 14.87,-10.77 7.34,-0.99 14.46,1.83 21.53,3.31 -4.11,13.24 -6.39,27.12 -4.75,41.01 -11.8,-9.97 -21.87,-21.65 -31.65,-33.55zm214.27 482.4c20.16,-14.73 47.74,-10.12 70.63,-5.4 9.97,27.69 21.38,55.19 37.17,80.14 -4.87,-27.27 -18.11,-54.13 -13.39,-82.27 29.56,-7.99 60.37,1.29 87.45,13.31 10,3.15 10.19,15.25 12.97,23.62 11.18,46.44 6.66,101.45 -28.07,137.17 -2.97,-5.6 -5.86,-11.19 -8.79,-16.74 -10.61,6.81 -16.09,18.45 -22.71,28.68 -8.18,-8.6 -14.79,-18.53 -22.93,-27.12 -4.68,8.94 -9.29,17.88 -14.23,26.63 -7.95,-6.97 -15.9,-13.89 -23.89,-20.77 -5.67,4.83 -8.86,15.63 -17.04,15.74 -40.7,-32.59 -62.69,-84.29 -65.69,-135.68 -0.46,-12.67 -4.11,-29.1 8.52,-37.31zm-607.4 -655.82l0 0c7.65,8.22 16.93,14.57 25.76,21.38 47.81,35.6 104.26,66.6 165.58,64.81 -12.29,-12.7 -28.38,-20.65 -42.11,-31.57 24.04,-4.56 46.86,-13.46 69.68,-22.14 -43.55,-2.01 -87.52,2.06 -130.62,-6.16 -30.66,-4.3 -59.45,-15.75 -88.29,-26.32z"/>
   <path class="fil2" d="M99.11 0c16.32,20.31 31.84,41.19 48.08,61.54 11.49,14.04 19.71,30.59 32.53,43.52 13.61,13.96 30.92,23.7 49.03,30.43 69.95,26.1 138.91,55.42 203.92,92.4 47.51,-1.94 95.29,-1.6 142.68,3.19 15.44,2.86 28.3,-8.25 42.15,-13.04 29.74,-11.91 55.19,-32.91 86.19,-41.81 -10.19,-7.19 -21.34,-13.01 -30.66,-21.38 29.22,-7.49 58.39,-15.06 87.61,-22.63 40.89,-10.8 83.76,-8.75 125.41,-3.99 54.35,6.81 108.14,18.98 159.64,37.81 40.86,-17.54 84.49,-29.75 129.22,-30.2 56.22,-0.73 112.1,7.07 168.13,10.45 -8.79,13.66 -23.7,21.99 -34.88,33.59 31.8,10.39 67.36,11.79 95.05,32.45 72.32,-4.79 144.63,3.04 216.75,7.83 62.38,2.82 124.8,-10.72 182.35,-34.38 37.24,-16.93 70.75,-41.12 101.72,-67.67 -3.24,14.38 -5.82,28.91 -8.94,43.32 -9.97,35.38 -25.64,68.78 -42.03,101.53 -34.13,69.46 -77.76,135.19 -134.97,187.75 -19.17,17.84 -39.4,34.5 -57.85,53.11 -29.02,18.75 -62.16,33.24 -97.04,35.18 16.89,7.61 33.93,16.7 52.8,17.92 25.9,2.01 51.69,5.13 77.6,6.92 -10.12,12.63 -21.19,24.5 -29.6,38.38 -11.45,17.08 -16.58,38.12 -31.45,52.91 -5.52,6.39 -13.96,8.71 -20.39,13.81 10.53,20.54 25.45,38.46 37.62,58.05 22.63,34.04 40.01,71.7 48.88,111.75 20.27,87.26 28.34,176.96 32.44,266.31 -20.27,-24.08 -36.7,-51.24 -57.21,-75.09 23.59,62.04 16.17,129.98 4.76,193.77 -6.7,35.94 -15.25,71.51 -25.64,106.58 -17.57,-50.29 -31.95,-101.71 -51.5,-151.32 -25.11,128.23 -69.58,251.67 -117.77,372.82 -2.21,-2.97 -4.22,-6.13 -5.59,-9.51 -18.71,-44.66 -38.11,-89.05 -57.21,-133.55 -3.35,-7.19 -5.06,-15.49 -10.95,-21.12 -14.35,54.7 -29.07,109.29 -43.41,163.95 -21.6,-47.97 -39.86,-97.42 -61.54,-145.31 -23.66,-38.38 -64.86,-60.82 -93.99,-94.45 -91.56,65.73 -215.53,73.84 -319.72,35.65 -16.43,-6.43 -33.09,-13.58 -46.21,-25.72 -43.79,29.79 -87.64,61.05 -121.76,102.02 -16.17,18.98 -27.05,41.58 -39.71,62.84 -17.46,29.52 -34.2,59.45 -51.74,88.89 -8.29,-59.3 -17.42,-118.48 -24.91,-177.86 -39.03,54.2 -61.66,117.42 -89.43,177.64 -4.18,8.17 -6.2,17.84 -12.59,24.72 -15.44,-74.06 -35.26,-147.51 -42.79,-222.98 -16.63,30.24 -31.8,61.24 -48.01,91.67 -39.37,-64.97 -72.92,-133.55 -100.99,-204.19 -26.59,-68.88 -48.46,-140.81 -51.81,-215.06 -1.56,-45.8 4.61,-94.41 30.85,-133.18 -39.06,10.2 -76.99,24.35 -115.94,34.88 28.3,-47.47 58.28,-93.99 84.98,-142.41 18.11,-40.55 27.39,-84.64 32.14,-128.64 -40.09,-16.51 -74.82,-43.6 -106.43,-72.85 -18.94,-17.53 -38.91,-34.04 -57.36,-52.15 36.52,-2.51 73.15,-4.03 109.7,-5.78 43.33,-0.5 90,2.66 129.26,-19.1 -37.02,-26.28 -71.36,-57.09 -97,-94.82 -20.43,-26.44 -37.28,-55.92 -61.7,-79.01 -51.66,-55.76 -95.71,-123.32 -105.71,-200.12 -3.73,-41.99 -0.61,-84.6 -8.06,-126.25 -0.88,-10.12 2.96,-19.93 3,-30.01zm843.61 402.52c-6.58,-34.08 -12.47,-68.62 -12.7,-103.43 21.95,43.71 41,88.86 57.02,135.08 -13.09,6.62 -27.81,8.48 -42.19,10.15 7.12,32.64 13.51,65.47 18.72,98.49 1.82,11.64 4.34,23.28 3.61,35.14 -20.69,-4.75 -41.23,-10.12 -61.81,-15.36 -25.64,-6.4 -52.53,-4.42 -77.98,1.86 9.55,-7.61 22.37,-13.62 26.32,-26.13 3.85,-12.4 0.61,-25.41 -1.06,-37.89 1.41,0.38 4.14,1.1 5.51,1.45 -17.3,-22.67 -35.83,-44.39 -55.61,-64.94 -29.51,-30.24 -62.61,-56.56 -94.98,-83.64 37.96,12.4 74.1,30.39 107.76,51.84 41.96,26.78 71.9,67.26 104.72,103.77 -7.83,-25.41 -18.37,-49.9 -25.63,-75.47 -2.21,-8.25 -4.68,-20.23 4.6,-25.14 13.23,-7.34 29.25,-3.73 43.7,-5.78zm187.87 39.06c24.12,-55.23 71.82,-95.09 119.79,-129.29 -11.34,43.67 -55.23,69.39 -68.4,112.29 10.54,1.41 21.42,1.49 31.69,4.49 8.22,5.74 8.98,17.84 6.92,26.86 -4.18,16.54 -9.32,32.82 -13.96,49.29 13.43,-17.88 30.51,-32.75 50.14,-43.44 40.85,-22.86 85.24,-38.41 128.72,-55.49 -23.81,23.69 -51.5,42.94 -77.37,64.2 -22.1,17.05 -43.1,35.72 -61.05,57.06 3.31,-1.48 9.93,-4.52 13.23,-6.05 -4.1,14.27 -8.29,30.43 -1.74,44.62 9.73,20.54 42.56,26.13 56.37,6.93 15.52,-21.31 6.27,-53.26 -15.79,-66.23 12.4,-4.41 24.61,-9.36 36.94,-14.04 27.5,-8.33 54.35,-18.71 82.39,-25.21 -8.6,10.08 -17.92,19.51 -27.28,28.9 -0.95,0.99 -2.92,2.97 -3.88,3.96 14.46,7.04 28.53,14.87 42.3,23.2 -13.96,13.43 -31.19,22.29 -47.66,32.11 -4.94,-19.67 -24.04,-29.48 -41.69,-35.49 5.59,19.06 8.29,41.61 -4.3,58.58 -13.46,17 -38.26,17.15 -57.09,10.31 -13.66,-5.18 -27.66,-9.25 -41.73,-12.98 -8.06,-6.39 -3.88,-18.56 -5.63,-27.35 -5.14,8.11 -9.17,16.97 -15.33,24.35 -5.67,5.36 -13.66,7.11 -20.46,10.5 -6.89,-41.62 -17.81,-82.47 -23.28,-124.31 -14.72,-3.92 -29.9,-7.84 -41.85,-17.77zm-808.73 -111.56c28.84,10.57 57.63,22.02 88.29,26.32 43.1,8.22 87.07,4.15 130.62,6.16 -22.82,8.68 -45.64,17.58 -69.68,22.14 13.73,10.92 29.82,18.87 42.11,31.57 -61.32,1.79 -117.77,-29.21 -165.58,-64.81 -8.83,-6.81 -18.11,-13.16 -25.76,-21.38zm345.81 91.1c32.67,13.05 63.33,30.77 96.2,43.44 13.96,6.31 27.69,13.12 42.03,18.6 -3.46,0.65 -10.38,1.94 -13.85,2.59 -24.38,17.12 -20.12,60.36 6.28,73.45 8.48,2.47 17.73,2.02 25.79,6.01 -17.69,4.22 -36.44,5.93 -54.36,2.05 -13.35,-4.03 -19.7,-17.84 -23.12,-30.27 -1.64,-13.89 0.64,-27.77 4.75,-41.01 -7.07,-1.48 -14.19,-4.3 -21.53,-3.31 -5.86,2.17 -10.04,7.08 -14.87,10.77 -29.78,-5.94 -60.75,-2.02 -90.57,1.94 -8.03,1.33 -16.01,2.77 -24.04,4.1 6.88,-10.65 14.57,-21.18 25.45,-28.07 21.56,-14.64 48.15,-17.08 73.18,-20.88 -10.31,-13.24 -22.9,-24.76 -31.34,-39.41zm146.48 65.24c5.94,2.39 11.87,4.79 17.88,7.07 2.47,18.11 5.71,45.34 -14.53,54.13 -13.65,-7.61 -19.36,-25.64 -16.28,-40.55 4.03,4.07 8.18,8.03 12.4,11.98 1.14,-10.84 1.26,-21.79 0.53,-32.63zm471.72 25.37c1.86,-0.69 5.59,-2.09 7.45,-2.78 14.04,14.38 16.47,37.28 8.94,55.42 -2.05,4.8 -7.11,8.94 -12.48,8.56 -13.04,-7.45 -14.53,-24.08 -16.47,-37.47 5.48,4.99 11.19,9.67 16.93,14.34 0.57,-12.85 -0.68,-25.71 -4.37,-38.07zm-589.56 122.98c6.7,-16.55 21.23,-35.15 41.23,-32.26 61.21,2.78 122.56,18.79 175.29,50.44 -71.74,-9.82 -143.86,-21.08 -216.52,-18.18zm273.99 -22.71c5.56,-4.11 11.34,-8.79 18.6,-9.17 48.46,-4.72 95.1,23.93 143.44,11.68 15.79,-2.74 32.68,-10.88 48.46,-4 13.97,7.84 11.84,26.86 10.5,40.4 -1.78,7.53 -6.77,13.5 -12.09,18.83 -6.2,-7.72 -11.83,-16.89 -21.38,-20.85 -16.93,-7.3 -38.53,3.12 -44.7,20.16 -0.57,15.22 20.85,22.22 17.2,38.65 -12.9,24.27 -36.48,41.46 -47.44,67.02 24.92,8.3 54.13,9.36 73.27,29.64 -36.71,-4.76 -73.19,-12.18 -110.31,-12.94 -26.21,-1.33 -52.27,1.87 -78.1,5.67 3.27,-3.42 6.77,-6.85 11.53,-8.06 25.37,-9.28 52.3,-12.33 78.74,-16.97 -4.64,-25.33 -21.76,-45.68 -30.36,-69.49 -3.92,-11.19 10.12,-16.89 16.25,-23.93 11.48,-8.56 8.21,-29.94 -6.28,-33.32 -12.13,-2.59 -25.79,-1.45 -36.44,5.29 -7.99,5.09 -9.82,14.91 -12.97,23.12 -11.68,-17.95 -26.06,-39.4 -17.92,-61.73zm251.21 68.58c38.07,-28.45 84.9,-44.73 132.25,-47.55 17.81,-2.85 27.28,16.4 32,30.43 -55.31,-3.69 -109.97,8.26 -164.25,17.12zm-544.64 10.92c1.98,-13.66 4.76,-27.31 10.73,-39.87 64.17,2.63 128.8,10.05 190.27,29.33 16.39,6.05 33.7,11.45 47.58,22.4 -82.23,-11.45 -165.58,-19.36 -248.58,-11.86zm589.56 8.29c40.74,-12.78 83.3,-19.1 125.87,-21.19 3.95,12.06 6.84,24.46 7.61,37.17 -62.96,-7.04 -126.18,1.63 -188.22,11.6 15.75,-13.36 35.42,-21 54.74,-27.58zm-591.8 14.41c82.92,-9.73 171.7,-4.67 246.53,35.46 -79.96,-4.76 -160.22,-5.71 -240.1,0.68 -3.31,-11.83 -6.05,-23.85 -6.43,-36.14zm541.13 56.91c52.88,-37.35 122.33,-43.74 184.98,-34.92 0.04,11.3 -0.83,22.67 -5.02,33.28 -59.91,-4.9 -120.12,-3.91 -179.96,1.64zm-157.06 47.78c2.36,-2.51 3.23,-9.48 7.84,-8.14 4.14,16.05 13.27,29.89 23.32,42.83 12.55,-10.31 18.52,-26.25 30.12,-37.2 0.5,18.9 8.26,37.01 22.03,50.05 6.42,-7.64 12.17,-15.78 17.72,-24.04 2.66,0.57 7.99,1.72 10.65,2.32 -0.76,40.86 14.42,81.25 6.13,122.14 33.47,-32.02 48.91,-77.71 61.85,-121.03 13.88,0.72 35.11,-2.7 41.19,13.62 4.79,21.56 -8.14,41.27 -17.99,59.37 -34.42,61.89 -52.34,130.89 -70.33,198.83 -7.8,39.1 2.85,86.5 -28.15,117.54 -17.95,21.26 -47.4,18.1 -72.2,22.06 -39.63,5.1 -79.88,7.15 -119.48,0.49 -16.5,-3.08 -37.73,-1.37 -47.58,-17.99 -20.81,-33.21 -31.16,-72.46 -56.87,-102.7 -36.21,-38.61 -65.58,-82.96 -93.19,-127.96 -24.46,-41.58 -47.97,-84.18 -63.6,-129.98 -3.96,-14.38 -9.97,-30.01 -4.76,-44.81 3.62,-7.19 12.25,-6.39 18.03,-2.51 45.19,24.5 99.51,39.22 150.18,24.08 13.24,38.61 40.47,70.37 68.85,98.86 -4.99,-37.12 -0.34,-74.82 9.89,-110.69 0.3,-4.15 3.65,-5.93 7.07,-7.42 3.39,13.32 9.89,25.98 21.19,34.27 9.4,-17.3 16.58,-36.32 29.06,-51.61 4.3,13.65 12.52,25.63 23.43,34.88 9.85,-10.73 18.68,-22.45 25.6,-35.26zm-129.44 166.95l0 0c-12.63,8.21 -8.98,24.64 -8.52,37.31 3,51.39 24.99,103.09 65.69,135.68 8.18,-0.11 11.37,-10.91 17.04,-15.74 7.99,6.88 15.94,13.8 23.89,20.77 4.94,-8.75 9.55,-17.69 14.23,-26.63 8.14,8.59 14.75,18.52 22.93,27.12 6.62,-10.23 12.1,-21.87 22.71,-28.68 2.93,5.55 5.82,11.14 8.79,16.74 34.73,-35.72 39.25,-90.73 28.07,-137.17 -2.78,-8.37 -2.97,-20.47 -12.97,-23.62 -27.08,-12.02 -57.89,-21.3 -87.45,-13.31 -4.72,28.14 8.52,55 13.39,82.27 -15.79,-24.95 -27.2,-52.45 -37.17,-80.14 -22.89,-4.72 -50.47,-9.33 -70.63,5.4zm201.18 159.87l0 0c-12.82,14.23 -28.87,28.07 -30.09,48.69 -7.3,-6.92 -13.16,-15.14 -18.86,-23.39 -6.77,10.99 -13.81,22.06 -16.66,34.84 -6.36,-10.65 -13.51,-20.81 -19.75,-31.5 -6.5,11.34 -12.78,22.94 -16.62,35.49 -3.76,-13.27 -9.13,-25.98 -14.83,-38.49 -10.73,7.76 -17.42,19.32 -23.17,30.96 -6.5,-35.53 -47.7,-47.77 -59.64,-80.26 -4.57,30.66 -6.39,64.97 11.52,91.94 12.06,11.53 31.35,6.58 44.7,0.3 12.55,4.3 33.59,15.14 41.8,-0.57 4.64,12.56 21.3,8.79 31.76,8.56 14.92,-6.43 33.71,4.22 46.64,-8.94 14.19,0.84 33.85,4.03 41.76,-11.18 13.43,-28.11 8.07,-60.6 2.14,-89.96 -5.75,11.83 -11.57,23.85 -20.7,33.51zm-989.22 -1032.74l0 0c-2.17,83.92 41.08,162.39 99.32,220.21 37.69,39.75 84.67,69.87 135.38,90.22 -20.16,-2.89 -40.71,-5.17 -61.02,-2.28 23.25,39.79 60.48,68.74 99.81,91.41 17.12,5.78 35.53,0.72 52.8,-2.1 -20.46,12.78 -37.58,29.64 -55.46,45.54l-0.8 1.44c-41.61,21.07 -88.02,30.32 -134.27,32.94 -10.27,1.52 -21.3,-0.68 -31.04,3.58 17.38,14.53 34.77,29.21 53.67,41.84 18.64,12.32 38.61,24.46 61.43,26.32 -11.07,36.29 -17.15,73.99 -30.54,109.59 -11.34,30.13 -25.6,59.07 -41.2,87.22 35.45,-4.9 71.33,-7.49 106.4,-15.02 -23.21,26.78 -42.57,57.21 -54.74,90.61 -22.22,58.27 -22.1,122.78 -9.63,183.26 17.69,86.65 57.94,166.08 91.56,247.18 5.9,-45.88 15.6,-91.52 31.99,-134.89 10.5,-26.78 23.82,-53.25 44.89,-73.34 -5.25,27.35 -9.78,55.04 -9.43,83 -1.91,77.64 17.42,153.41 28.6,229.72 20.08,-42 35.03,-86.5 58.2,-127.09 21.64,-39.83 49.94,-76.68 85.81,-104.64 -4.79,11.79 -9.77,23.73 -10.61,36.63 -5.02,51.39 17.12,100.19 18.83,151.09 34.12,-51.24 78.43,-95.63 129.44,-130.09 21.27,-13.7 43.75,-26.29 68.36,-32.87 5.82,13.28 17.8,22.25 30.05,29.29 33.2,18.49 71.21,26.66 108.86,29.21 72.62,4.8 146.3,-17.72 204.08,-61.92 50.47,46.94 116.7,82.43 144.7,148.84 5.05,-6.96 6.23,-15.79 8.82,-23.81 14.38,-49.22 20.54,-102.7 5.63,-152.53 15.82,10 27.2,25.44 37.66,40.62 27.39,42.6 44.05,90.99 58.12,139.33 3.8,12.18 5.33,25.11 10.65,36.83 52.68,-118 100.65,-241.78 107.65,-372.21 12.21,12.78 19.02,29.71 28.26,44.66 13.47,22.59 22.94,47.32 35.99,70.06 3.5,-60.1 5.13,-121.95 -13.51,-179.95 -16.39,-52.61 -48.23,-98.75 -84.48,-139.64 34.84,23.35 76.61,36.78 106.28,67.4 -6.66,-101.07 -31.54,-208.68 -106.09,-282.17 31.84,-6.73 43.97,-39.71 62.46,-62.38 -66.53,1.37 -126.21,-37.05 -169.61,-84.63 33.01,5.13 66.87,8.33 100,2.28 38.68,-8.33 77.9,-24.35 104.49,-54.82 -14.15,-3.91 -28.15,-8.17 -42.34,-11.86 -7.98,13.01 -21.07,21.34 -34.5,27.92 -37.85,19.51 -81.29,19.74 -122.67,23.2 -4.11,-1.1 -8.18,-2.21 -12.21,-3.35 42.56,-15.36 81.32,-40.13 114.65,-70.6 2.32,-2.81 6.92,-4.9 6.23,-9.2 -21.6,-9.59 -42.26,-21.07 -63.44,-31.54 30.16,4.34 61.05,4.68 91.14,-0.76 50.36,-9.01 97.72,-29.4 144.16,-50.24l-1.63 7.07c-32.26,35.3 -68.06,70.98 -114.31,86.69 -1.18,4.45 -2.32,8.94 -3.42,13.39 32.41,-11.45 63.6,-27.05 91.17,-47.59 47.7,-38.72 91.03,-83.83 122.75,-136.78 8.75,-15.1 17.46,-30.58 21.72,-47.66 -0.87,0.91 -2.7,2.7 -3.57,3.61 -29.48,16.36 -61.43,28.45 -95.14,32.22 -104.41,10.92 -209.59,9.28 -314.23,17.15 -30.7,3.28 -62.69,4.38 -91.1,17.73 2.36,-12.78 9.89,-24.12 11.56,-36.94 -5.06,-12.21 -18.22,-18.14 -29.48,-23.39 -33.89,-13.47 -71.39,-14.07 -107.3,-11.91 8.86,-7.49 17.99,-14.68 26.78,-22.32 -4.11,-2.74 -8.56,-4.49 -13.39,-5.22 -32.11,-5.25 -64.94,-2.73 -96.81,2.78 -30.66,5.86 -61.2,15.18 -87.53,32.37 -41.5,-23.7 -88.78,-34.84 -135.68,-41.69 -45.3,-6.08 -91.71,-7.68 -136.82,0.69 6.69,10 18.52,14.45 27.12,22.55 -59.23,3.73 -116.02,26.74 -163.53,61.78 7.27,9.74 18.72,18.67 19.1,31.72 -66.19,-17.95 -135.65,-22.36 -203.96,-19.78 -10.81,-0.45 -21.99,3.58 -32.45,1.3 -70.45,-50.63 -155.2,-74.79 -231.46,-114.73 -17.19,-11.68 -27.2,-32.71 -47.17,-40.55z"/>
   <path class="fil3" d="M1842.71 209.21c0.87,-0.91 2.7,-2.7 3.57,-3.61 -4.26,17.08 -12.97,32.56 -21.72,47.66 -31.72,52.95 -75.05,98.06 -122.75,136.78 -27.57,20.54 -58.76,36.14 -91.17,47.59 1.1,-4.45 2.24,-8.94 3.42,-13.39 46.25,-15.71 82.05,-51.39 114.31,-86.69 12.21,-13.81 26.77,-25.14 39.63,-38.27 27.05,-28.11 53.14,-57.47 74.71,-90.07zm-1075.53 231.23c10.08,-8.33 23.66,-5.78 35.37,-3.5 19.78,20.55 38.31,42.27 55.61,64.94 -1.37,-0.35 -4.1,-1.07 -5.51,-1.45 -7,-1.94 -13.85,-4.41 -20.62,-7 -6.01,-2.28 -11.94,-4.68 -17.88,-7.07 0.73,10.84 0.61,21.79 -0.53,32.63 -4.22,-3.95 -8.37,-7.91 -12.4,-11.98 -4.83,-6.2 -10.31,-12.86 -9.17,-21.26 3.47,-0.65 10.39,-1.94 13.85,-2.59 -14.34,-5.48 -28.07,-12.29 -42.03,-18.6 -0.19,-7.99 -4.07,-18.11 3.31,-24.12zm839.46 4.61c14.19,3.69 28.19,7.95 42.34,11.86 -26.59,30.47 -65.81,46.49 -104.49,54.82 -33.13,6.05 -66.99,2.85 -100,-2.28 43.4,47.58 103.08,86 169.61,84.63 -18.49,22.67 -30.62,55.65 -62.46,62.38 74.55,73.49 99.43,181.1 106.09,282.17 -29.67,-30.62 -71.44,-44.05 -106.28,-67.4 36.25,40.89 68.09,87.03 84.48,139.64 18.64,58 17.01,119.85 13.51,179.95 -13.05,-22.74 -22.52,-47.47 -35.99,-70.06 -9.24,-14.95 -16.05,-31.88 -28.26,-44.66 -7,130.43 -54.97,254.21 -107.65,372.21 -5.32,-11.72 -6.85,-24.65 -10.65,-36.83 -14.07,-48.34 -30.73,-96.73 -58.12,-139.33 -10.46,-15.18 -21.84,-30.62 -37.66,-40.62 14.91,49.83 8.75,103.31 -5.63,152.53 -2.59,8.02 -3.77,16.85 -8.82,23.81 -28,-66.41 -94.23,-101.9 -144.7,-148.84 -57.78,44.2 -131.46,66.72 -204.08,61.92 -37.65,-2.55 -75.66,-10.72 -108.86,-29.21 -12.25,-7.04 -24.23,-16.01 -30.05,-29.29 -24.61,6.58 -47.09,19.17 -68.36,32.87 -51.01,34.46 -95.32,78.85 -129.44,130.09 -1.71,-50.9 -23.85,-99.7 -18.83,-151.09 0.84,-12.9 5.82,-24.84 10.61,-36.63 -35.87,27.96 -64.17,64.81 -85.81,104.64 -23.17,40.59 -38.12,85.09 -58.2,127.09 -11.18,-76.31 -30.51,-152.08 -28.6,-229.72 -0.35,-27.96 4.18,-55.65 9.43,-83 -21.07,20.09 -34.39,46.56 -44.89,73.34 -16.39,43.37 -26.09,89.01 -31.99,134.89 -33.62,-81.1 -73.87,-160.53 -91.56,-247.18 -12.47,-60.48 -12.59,-124.99 9.63,-183.26 12.17,-33.4 31.53,-63.83 54.74,-90.61 -35.07,7.53 -70.95,10.12 -106.4,15.02 15.6,-28.15 29.86,-57.09 41.2,-87.22 13.39,-35.6 19.47,-73.3 30.54,-109.59 -22.82,-1.86 -42.79,-14 -61.43,-26.32 -18.9,-12.63 -36.29,-27.31 -53.67,-41.84 9.74,-4.26 20.77,-2.06 31.04,-3.58 46.25,-2.62 92.66,-11.87 134.27,-32.94 -20.8,36.56 -64.02,50.55 -101.18,64.48 30.28,20.73 66.61,33.55 103.69,30.43 -42.45,46.14 -42.03,112.1 -60.29,168.73 26.9,-7.22 55.08,-9.09 82.74,-5.85 -11.83,21.94 -24.08,43.74 -33.17,67.02 -32.98,79.99 -40.17,169.38 -25.18,254.32 6.31,39.83 19.05,78.17 29.93,116.9 28.95,-57.6 59.57,-114.54 97.19,-166.99 3.46,86.5 17.31,173.03 45.42,255.04 15.94,-69.04 23.09,-140.05 44.35,-207.84 10.54,-34.8 25.45,-68.16 43.93,-99.43 16.44,-27.12 35.46,-52.68 56.76,-76.19 2.74,-3.61 6.73,-6.73 7.83,-11.34 -7.87,-29.78 -26.81,-56.14 -30.16,-87.22 -1.94,-19.97 12.7,-35.22 26.21,-47.66 -33.4,-39.48 -63.91,-91.41 -50.67,-145 10.73,-43.52 49.26,-71.25 86.57,-91.37 -26.13,-1.18 -53.51,-3.54 -76.34,-17.5 -17.99,-11.75 -32.56,-30.62 -34.46,-52.56 29.82,-3.96 60.79,-7.88 90.57,-1.94 9.78,11.9 19.85,23.58 31.65,33.55 3.42,12.43 9.77,26.24 23.12,30.27 17.92,3.88 36.67,2.17 54.36,-2.05 0.84,-0.19 2.43,-0.57 3.27,-0.76 25.45,-6.28 52.34,-8.26 77.98,-1.86 20.58,5.24 41.12,10.61 61.81,15.36 -0.87,11.45 1.98,22.67 3.12,34.05 -8.14,22.33 6.24,43.78 17.92,61.73 3.15,-8.21 4.98,-18.03 12.97,-23.12 10.65,-6.74 24.31,-7.88 36.44,-5.29 14.49,3.38 17.76,24.76 6.28,33.32 -6.13,7.04 -20.17,12.74 -16.25,23.93 8.6,23.81 25.72,44.16 30.36,69.49 -26.44,4.64 -53.37,7.69 -78.74,16.97 -4.76,1.21 -8.26,4.64 -11.53,8.06 25.83,-3.8 51.89,-7 78.1,-5.67 37.12,0.76 73.6,8.18 110.31,12.94 -19.14,-20.28 -48.35,-21.34 -73.27,-29.64 10.96,-25.56 34.54,-42.75 47.44,-67.02 3.65,-16.43 -17.77,-23.43 -17.2,-38.65 6.17,-17.04 27.77,-27.46 44.7,-20.16 9.55,3.96 15.18,13.13 21.38,20.85 5.32,-5.33 10.31,-11.3 12.09,-18.83 5.63,-21.99 -3.27,-45.46 4.42,-67.25 6.8,-3.39 14.79,-5.14 20.46,-10.5 6.16,-7.38 10.19,-16.24 15.33,-24.35 1.75,8.79 -2.43,20.96 5.63,27.35 14.07,3.73 28.07,7.8 41.73,12.98 18.83,6.84 43.63,6.69 57.09,-10.31 12.59,-16.97 9.89,-39.52 4.3,-58.58 17.65,6.01 36.75,15.82 41.69,35.49 16.47,-9.82 33.7,-18.68 47.66,-32.11 -13.77,-8.33 -27.84,-16.16 -42.3,-23.2 0.96,-0.99 2.93,-2.97 3.88,-3.96 19.44,-2.73 38.92,2.51 58.28,-0.3 41.38,-3.46 84.82,-3.69 122.67,-23.2 13.43,-6.58 26.52,-14.91 34.5,-27.92zm-359.57 82.5c17.95,-21.34 38.95,-40.01 61.05,-57.06 14.76,-4.29 34.65,3.96 27.96,22.29 -12.33,4.68 -24.54,9.63 -36.94,14.04 -1.48,0.53 -4.37,1.6 -5.82,2.13 -1.86,0.69 -5.59,2.09 -7.45,2.78 3.69,12.36 4.94,25.22 4.37,38.07 -5.74,-4.67 -11.45,-9.35 -16.93,-14.34 -3.61,-4.98 -6.65,-10.42 -9.62,-15.82l-3.39 1.86c-3.3,1.53 -9.92,4.57 -13.23,6.05zm-116.63 618.16c9.13,-9.66 14.95,-21.68 20.7,-33.51 5.93,29.36 11.29,61.85 -2.14,89.96 -7.91,15.21 -27.57,12.02 -41.76,11.18 -12.93,13.16 -31.72,2.51 -46.64,8.94 -10.46,0.23 -27.12,4 -31.76,-8.56 -8.21,15.71 -29.25,4.87 -41.8,0.57 -13.35,6.28 -32.64,11.23 -44.7,-0.3 -17.91,-26.97 -16.09,-61.28 -11.52,-91.94 11.94,32.49 53.14,44.73 59.64,80.26 5.75,-11.64 12.44,-23.2 23.17,-30.96 5.7,12.51 11.07,25.22 14.83,38.49 3.84,-12.55 10.12,-24.15 16.62,-35.49 6.24,10.69 13.39,20.85 19.75,31.5 2.85,-12.78 9.89,-23.85 16.66,-34.84 5.7,8.25 11.56,16.47 18.86,23.39 1.22,-20.62 17.27,-34.46 30.09,-48.69zm212.07 -537.25l0 0c12.89,1.33 25.71,5.17 35.94,13.39 28.45,22.25 45.99,56.9 49.98,92.55 3.31,30.01 -7.76,62.04 -31.72,81.17 -18.49,14.07 -37.24,29.14 -59.95,35.79 -10.91,4.34 -23.16,6.17 -33.09,12.63 7.72,7.53 20.81,13.7 18.6,26.89 -5.55,30.32 -24.5,55.92 -40.4,81.63 55.54,6.93 102.29,45.65 127.89,94.15 47.7,88.17 52.45,190.8 59.26,288.59 57.89,-80.48 70.07,-181.97 81.71,-277.71 1.86,-8.56 -0.84,-20.54 8.75,-25.11 15.74,-2.13 27.65,10.54 38.03,20.35 -7.45,-54.16 -23.92,-112.63 -67.7,-148.84 -3.69,-30.24 -13.74,-59.61 -32.64,-83.84 45.42,0.65 90.68,19.02 123.17,50.94 0.53,-8.45 -1.26,-16.74 -2.82,-24.96 -13.5,-72 -50.13,-139.18 -102.32,-190.49 21.26,-10.5 43.82,-20.92 59.61,-39.22 -30.36,0.57 -60.94,-7.68 -86.16,-24.69 -19.02,-12.4 -35.38,-30.43 -41.31,-52.76 -16.55,42.99 -63.72,59.69 -104.83,69.54zm-646.2 26.25l0 0c72.66,-2.9 144.78,8.36 216.52,18.18 -52.73,-31.65 -114.08,-47.66 -175.29,-50.44 -20,-2.89 -34.53,15.71 -41.23,32.26zm525.2 45.87l0 0c54.28,-8.86 108.94,-20.81 164.25,-17.12 -4.72,-14.03 -14.19,-33.28 -32,-30.43 -47.35,2.82 -94.18,19.1 -132.25,47.55zm-544.64 10.92l0 0c83,-7.5 166.35,0.41 248.58,11.86 -13.88,-10.95 -31.19,-16.35 -47.58,-22.4 -61.47,-19.28 -126.1,-26.7 -190.27,-29.33 -5.97,12.56 -8.75,26.21 -10.73,39.87zm589.56 8.29l0 0c-19.32,6.58 -38.99,14.22 -54.74,27.58 62.04,-9.97 125.26,-18.64 188.22,-11.6 -0.77,-12.71 -3.66,-25.11 -7.61,-37.17 -42.57,2.09 -85.13,8.41 -125.87,21.19zm-591.8 14.41l0 0c0.38,12.29 3.12,24.31 6.43,36.14 79.88,-6.39 160.14,-5.44 240.1,-0.68 -74.83,-40.13 -163.61,-45.19 -246.53,-35.46zm541.13 56.91l0 0c59.84,-5.55 120.05,-6.54 179.96,-1.64 4.19,-10.61 5.06,-21.98 5.02,-33.28 -62.65,-8.82 -132.1,-2.43 -184.98,34.92zm-157.06 47.78l0 0c-6.92,12.81 -15.75,24.53 -25.6,35.26 -10.91,-9.25 -19.13,-21.23 -23.43,-34.88 -12.48,15.29 -19.66,34.31 -29.06,51.61 -11.3,-8.29 -17.8,-20.95 -21.19,-34.27 -3.42,1.49 -6.77,3.27 -7.07,7.42 -10.23,35.87 -14.88,73.57 -9.89,110.69 -28.38,-28.49 -55.61,-60.25 -68.85,-98.86 -50.67,15.14 -104.99,0.42 -150.18,-24.08 -5.78,-3.88 -14.41,-4.68 -18.03,2.51 -5.21,14.8 0.8,30.43 4.76,44.81 15.63,45.8 39.14,88.4 63.6,129.98 27.61,45 56.98,89.35 93.19,127.96 25.71,30.24 36.06,69.49 56.87,102.7 9.85,16.62 31.08,14.91 47.58,17.99 39.6,6.66 79.85,4.61 119.48,-0.49 24.8,-3.96 54.25,-0.8 72.2,-22.06 31,-31.04 20.35,-78.44 28.15,-117.54 17.99,-67.94 35.91,-136.94 70.33,-198.83 9.85,-18.1 22.78,-37.81 17.99,-59.37 -6.08,-16.32 -27.31,-12.9 -41.19,-13.62 -12.94,43.32 -28.38,89.01 -61.85,121.03 8.29,-40.89 -6.89,-81.28 -6.13,-122.14 -2.66,-0.6 -7.99,-1.75 -10.65,-2.32 -5.55,8.26 -11.3,16.4 -17.72,24.04 -13.77,-13.04 -21.53,-31.15 -22.03,-50.05 -11.6,10.95 -17.57,26.89 -30.12,37.2 -10.05,-12.94 -19.18,-26.78 -23.32,-42.83 -4.61,-1.34 -5.48,5.63 -7.84,8.14z"/>
  </g>
 </g>
</svg>
