<?xml version="1.0" encoding="UTF-8"?>
<!DOCTYPE svg PUBLIC "-//W3C//DTD SVG 1.1//EN" "http://www.w3.org/Graphics/SVG/1.1/DTD/svg11.dtd">
<!-- Creator: CorelDRAW -->
<svg xmlns="http://www.w3.org/2000/svg" xml:space="preserve" width="2000px" height="1600px" version="1.1" style="shape-rendering:geometricPrecision; text-rendering:geometricPrecision; image-rendering:optimizeQuality; fill-rule:evenodd; clip-rule:evenodd"
viewBox="0 0 2000 1600"
 xmlns:xlink="http://www.w3.org/1999/xlink">
 <defs>
  <style type="text/css">
   <![CDATA[
    .fil0 {fill:#493192;fill-rule:nonzero}
    .fil1 {fill:#D1AC7B;fill-rule:nonzero}
    .fil2 {fill:#FEFEFE;fill-rule:nonzero}
   ]]>
  </style>
 </defs>
 <g id="Capa_x0020_1">
  <metadata id="CorelCorpID_0Corel-Layer"/>
  <g id="Western_x0020_Carolina_x0020_Catamounts.cdr">
   <path class="fil0" d="M1003.38 32.36c79.44,1.49 160.76,20.52 226.66,66.43 40.13,27.59 72.92,65.22 95.95,108.04 24.41,11.58 48.87,24.08 68.9,42.62 47.17,-8.36 96.34,0.18 139.69,19.88 45.38,20.58 85.51,54.1 110.88,97.27 12.55,21.26 20.95,44.83 25.45,69.08 22.2,-0.73 44.39,-2 66.59,-2.66 -15.14,17.95 -30.45,35.76 -45.59,53.71 37.56,32.23 75.46,64.1 113.07,96.28 2.69,2.36 5.84,4.24 9.34,5.23 21.67,6.94 43.23,15.57 61.54,29.34 -1.52,6.04 -3.4,11.98 -5.41,17.9 28.65,12.88 54.12,34.77 66.95,63.87 12.04,26.26 12.44,57.83 -0.38,83.89 -10.19,21.56 -28.22,38.37 -48.49,50.46 -0.45,33.48 -18.92,64.38 -44.31,85.26 -35,29.31 -79.29,44.24 -123.03,54.78 -4.64,45.41 -15.44,92.34 -43.63,129.27 20.32,20.27 28.93,49.86 27,78.07 -2.16,34.36 -17.17,66.77 -37.82,93.89 -27.83,36.22 -65.42,63.93 -106,84.35 -89.76,44.26 -191.67,56.07 -290.65,54.62 14.74,-17.67 29.72,-35.14 44.07,-53.13 -53.26,12.14 -108.5,19.28 -163,12.55 -16.25,-2.28 -32.3,-5.64 -48.41,-8.58 39.32,-21.84 78.99,-43.79 113.78,-72.54 -38.8,-26.89 -85.71,-38.35 -131.53,-46.63 -105.09,-16.99 -213.1,-11.22 -317.13,10.14 -85.81,18.18 -169.8,48.43 -244.06,95.64 -46.68,29.67 -89.14,66.41 -123.3,110.05 -18.06,22.65 -32.84,47.64 -46.66,73.04 -24.45,-42.29 -33.09,-91.96 -34.51,-140.24 -3.07,-100.04 34.49,-197.67 91.81,-278.4 -55.93,28.36 -109.69,61.61 -157.54,102.27 -29.18,24.99 -56.18,52.95 -77.21,85.21 -5.4,7.67 -9.8,16.05 -16.17,23.01 -12.65,-55.14 -11.36,-112.59 -2.26,-168.13 14.7,-89.86 53.03,-175.39 108.59,-247.34 15.88,-21 33.65,-40.38 51.64,-59.56 -76.32,37.56 -139.36,97.1 -193.4,161.86 -24.94,29.66 -46.91,61.61 -69.49,93.03 -2.16,-61.34 -2.28,-122.98 5.59,-183.95 13.54,-112.84 50.21,-223.32 110.53,-319.85 77.71,-125.77 193.24,-225.09 322.66,-294.99 -18.66,-54.45 -35.63,-109.51 -51.68,-164.8 -21.81,-8.07 -44.16,-14.5 -66.51,-20.85 55.26,-22.09 113.75,-36.87 173.28,-40.2 52.77,-3.38 105.75,2.41 157.41,13.1 77.03,16.44 152.56,40.26 224.66,72.06 5.26,2.1 10.51,5.56 16.46,4.49 27.71,-2.84 55.51,-4.55 83.32,-5.64 1.99,-26.99 3.43,-53.99 5.49,-80.96 -11.78,-16.94 -22.68,-34.47 -33.14,-52.24zm592.56 471.92c26.56,16.13 53.05,32.33 79.29,48.94 -21.64,-1.7 -43.51,-1.19 -64.99,2.03 -4.78,-16.99 -9.73,-33.93 -14.3,-50.97zm-1091 -346.69l0 0c8.89,26.87 17.88,53.71 26.69,80.61 15.54,-0.74 31.11,-0.64 46.65,-1.53 -9.67,12.35 -20.06,24.16 -30.14,36.19 15.19,0.82 30.37,0.82 45.56,0.89 -11.1,11.36 -22.4,22.53 -33.22,34.14 1.68,6.8 3.4,13.61 5.11,20.42 -41.73,21.99 -83.81,44.69 -119.24,76.21 101.26,-39.82 203.43,-77.66 307.91,-108.27 -28.7,-30.06 -63.26,-53.94 -99.12,-74.64 -47.5,-26.79 -98.01,-48.23 -150.2,-64.02zm442.97 162.03l0 0c-62.96,42.41 -104.48,112.33 -118.93,186.16 65.22,-69.03 154.49,-118.58 250.44,-124.17 -26.24,-14.24 -53.74,-26 -81.3,-37.46 54.83,-17.14 113.3,-20.8 170.31,-15.72 69.69,6.5 137.68,28.35 198.71,62.45 15.06,8 28.9,18.67 45.53,23.39 31.04,10.06 65.17,4.65 94.2,-9.11 2.01,14.55 1.4,29.69 -3.56,43.63 -5.15,15.59 -17.98,27.4 -32.91,33.6 23.54,7.87 48.63,0.58 70.27,-9.53 -6.14,22.07 -25.6,37.95 -46.98,44.32 -32.94,10.16 -68.04,5.39 -101.18,-1.29 -41.07,-7.6 -86.66,-6.5 -122.82,16.66 -35.81,22.52 -55.85,63.67 -61.16,104.66 16.38,-21.67 39.72,-36.7 63.77,-48.59 49.6,-23.9 104.97,-33.52 159.7,-34.51 -27.51,7.57 -54.76,16.58 -80.08,29.92 -76.11,37.99 -137.8,105.62 -164.39,186.87 -20.14,59.2 -21.59,123.43 -11.28,184.68 4.78,-22.07 11.13,-43.86 20.27,-64.56 17.96,-41.34 47.16,-78.04 84.67,-103.23 45.13,-30.46 100.37,-45.69 154.7,-43.28 23.84,0.38 45.48,11.25 68.24,16.94 41.9,11.3 86.07,20.06 129.44,12.67 23.98,-4.24 48.54,-16.02 60.65,-38.19 10.36,-18.65 9.45,-41.96 -0.12,-60.75 -17.25,2.18 -26.8,18.61 -30.61,34 -8.58,-1.75 -17.17,-3.38 -25.75,-5 -13.21,-43.05 -21.99,-88.13 -19.33,-133.31 9.88,-3.4 20.37,-4.14 30.73,-4.9 22.99,-0.81 46.07,-0.38 68.93,2.54 -29.03,-24.36 -58.23,-48.51 -87.29,-72.84 -2.67,-2.51 -6.04,-3.91 -9.68,-3.73 -18.46,-1.17 -36.87,-2.82 -55.31,-3.89 17.37,-12.7 33.02,-31.03 34.21,-53.46 1.07,-24.46 -14.98,-45.59 -32.31,-61.18 -42.13,-38.37 -98.92,-57.93 -155.32,-60.6 18.49,17.96 35.45,37.77 47.97,60.4 -42.41,-23.37 -86.65,-43.51 -132.21,-59.99 -66.52,-24 -136.49,-40.86 -207.49,-41.52 -60.45,-0.51 -122.34,13.48 -172.73,47.92zm198.73 86.2l0 0c-1.7,34.21 17.45,67.65 45.36,86.68 39.8,26.87 98.72,13.48 126.2,-24.87 -17.07,-7.39 -35.38,-10.94 -52.93,-16.89 -11.3,15.72 -29.41,24.21 -46.07,32.97 -6.07,-19.25 -12.06,-38.76 -13.87,-58.95 -19.63,-6.14 -38.8,-13.64 -58.69,-18.94zm-87.16 265.5l0 0c-90.13,13.63 -179.3,33.6 -266.85,58.99 -84.19,24.84 -167.41,54.5 -245.15,95.67 -39.65,21.41 -78.33,45.72 -110.76,77.31 84.07,-37.59 169.78,-71.49 256.76,-101.74 74.29,-25.67 149.64,-48.56 226.21,-66.44 79.35,-18.18 160.41,-31.79 242.06,-30.37 8.18,-15.62 17.37,-30.66 27.56,-45.03 -43.53,-0.36 -86.81,5.54 -129.83,11.61zm792.74 6.78l0 0c-11.43,21.41 -24.46,43.68 -45.9,56.45 -7.69,-2.66 -15.41,-5.15 -23.08,-7.82 1.27,-11.1 -2.87,-21.61 -7.82,-31.26 -14.35,0.86 -25.76,12.65 -29.31,26.06 -6.15,19.91 2.16,41.8 16.74,55.87 21.68,21.58 54.55,30.73 84.39,24.35 18.03,-3.58 35.96,-14.04 43.83,-31.31 8.21,-18.69 10.14,-41.65 -0.28,-59.91 -8.12,-15.34 -23.11,-25.5 -38.57,-32.43zm-824.33 75.25l0 0c-80.49,16.07 -160.21,35.98 -238.58,60.29 -82.47,25.68 -163.58,56.23 -240.84,95.01 -67.66,34.41 -133,75.33 -186.85,129.34 51.31,-24 102.86,-47.46 154.92,-69.76 138.8,-58.9 279.95,-113.52 426.04,-151.49 62.5,-15.75 126.14,-28.6 190.73,-30.83 4.01,-17.71 9.01,-35.2 15.59,-52.14 -40.63,4.52 -80.89,11.86 -121.01,19.58zm575.87 59.58l0 0c0.48,18.16 -0.43,36.29 -0.64,54.45 17.5,-14.83 35.59,-29.06 51.99,-45.11 3.23,14.4 6.68,28.78 9.91,43.2 14.4,-14.29 27.88,-29.51 42.46,-43.65 1.09,14.52 2.21,29.08 3.17,43.63 18.32,-15.11 36.8,-30.02 54.51,-45.89 -18.77,-9.86 -36.35,-21.97 -52.37,-35.84 -32.92,19.41 -71.19,27.48 -109.03,29.21zm-114.46 104.35l0 0c17.42,-41.72 45.99,-79.44 83.98,-104.43 -24.05,-1.57 -48.05,-4.47 -71.62,-9.6 -22.96,32.59 -31.87,77.67 -12.36,114.03zm-490.7 -71.77l0 0c-70.35,16.31 -140.09,35.51 -208.61,58.36 -70.24,23.7 -139.81,50.72 -204.36,87.42 -30.96,18.18 -61.44,38.27 -85.87,64.86 141.05,-62.04 285.92,-116.75 435.76,-153.52 62.19,-14.81 125.46,-26.79 189.51,-29.18 -0.36,-17.65 0.76,-35.28 2.51,-52.83 -43.37,6.12 -86.25,15.17 -128.94,24.89zm724.12 71.09l0 0c50.39,-4.88 95.41,-37.77 119.46,-81.7 -18.92,3.37 -38.24,0.12 -56.2,-6.18 -14.58,33.35 -36.34,63.42 -63.26,87.88zm-626.42 65.29l0 0c-7.13,40.66 -6.47,83.33 6.28,122.85 13.53,41.78 44.49,76.7 82.54,98.11 47.16,26.82 102.35,36.57 156.11,35.93 -11.86,25.73 -30.22,47.7 -49.07,68.6 55.83,-10.06 109.85,-28.95 160.84,-53.69 -0.96,29.28 -19.3,53.92 -36.42,76.22 34.75,-8.13 68.91,-18.95 101.69,-33.12 30.89,-13.69 61.39,-30.1 85.36,-54.32 16.71,-16.97 29.56,-39.57 28.88,-63.98 0.15,-21.23 -13.31,-41.68 -32.61,-50.31 -19.76,-9.19 -42.69,-7.32 -63.16,-1.63 -52.8,16 -107.28,26.95 -162.34,30.84 -45.92,2.99 -93.28,1.21 -136.89,-14.68 -17.22,-7.98 -33.62,-18.19 -47.77,-30.83 -15.75,-17.71 -26.95,-39.02 -35.76,-60.88 -18.59,-46.83 -25.47,-97.42 -26.54,-147.56 -16.94,22.96 -25.93,50.69 -31.14,78.45zm384.01 -4.97l0 0c-21.06,18.08 -32.77,45.2 -34.85,72.58 23.42,-20.44 55.85,-28.88 86.43,-24.74 22.85,3.51 46.19,8.94 69.33,4.6 9.75,-1.88 20.37,-6.48 24.51,-16.2 2.66,-7.14 4.39,-15.6 0.48,-22.61 -13.92,-27.86 -45.79,-45.13 -76.72,-42.26 -25.17,2.42 -49.93,12.09 -69.18,28.63zm-118.15 147.6l0 0c28.6,7.06 57.34,-3.02 85.03,-9.62 -34.54,-31.34 -45.79,-79.85 -48.15,-124.68 -26.87,38.63 -47.5,86.48 -36.88,134.3zm230.68 -39.59l0 0c14.93,0.89 29.76,3.66 43.68,9.22 17.65,-25.42 29.46,-54.73 35.02,-85.13 -24.81,26.64 -48.84,54.68 -78.7,75.91zm-129.68 27.71l0 0c35.48,-10.52 71.19,-21.18 108.09,-25.15 2.77,-10.97 5.69,-21.89 8.48,-32.83 -12.92,8.88 -25.95,17.65 -38.98,26.38 -6.35,-10.97 -11.86,-22.4 -17.85,-33.55 -19.92,21.72 -39.85,43.43 -59.74,65.15z"/>
   <path class="fil1" d="M948.77 0l20.3 0c29.43,1.42 58.97,1.27 88.25,5.1 76.37,8.82 152.25,35.41 212.01,84.78 30.38,24.86 56.33,55.16 76.09,89.09 3.48,6.22 10.9,8.05 16.71,11.33 14.91,7.36 28.83,16.58 42.11,26.54 84.9,-8.61 172.09,25.32 231.47,86.09 27.48,28.3 48.25,63.12 59.53,100.98 37.1,-1.65 74.21,-3.28 111.31,-4.62 -23.46,28.14 -47.44,55.87 -71.16,83.81 27.02,23.59 54.73,46.4 81.8,69.94 10.47,10.01 25.78,11.02 38.23,17.58 21.33,8.12 39.36,22.5 54.83,39.03 -0.87,3.71 -1.68,7.44 -2.44,11.18 35.94,23.36 62.65,61.58 68.7,104.38l0 35.17c-4.98,37.16 -28.27,69.46 -58.29,90.92 -5.64,33.83 -23.95,64.71 -49.62,87.22 -33.6,30.24 -76.37,47.69 -119.32,60.01 -5.28,35.71 -15.46,70.93 -33.01,102.6 19.3,27.15 27.1,61.67 22.25,94.53 -6.58,46.6 -33.73,87.59 -66.6,120.13 -52.52,51.14 -120.3,84.09 -190.24,104.05 -58.75,16.5 -119.8,24.28 -180.75,24.78 -32.59,1.07 -65.22,-0.17 -97.78,1.12 11.07,-13.89 22.81,-27.22 34.21,-40.86 -35.61,2.89 -71.7,3.07 -106.9,-3.58 -39.24,-7.32 -78.52,-14.33 -117.71,-21.84 34.79,-19.61 69.82,-38.76 104.68,-58.19 -4.08,-5.61 -8.91,-11.27 -9.8,-18.44 -1.6,-7.24 1.35,-14.24 3.56,-20.97 -60.88,-14.05 -123.74,-16.79 -185.96,-14.73 -97.7,4.29 -195.3,22.95 -286.12,59.7 -79.37,32.21 -154.03,80 -208.76,146.7 -32.03,38.22 -52.93,83.86 -78.2,126.47l-2.72 0c-12.59,-33.19 -32.35,-63.49 -43.4,-97.37 -31.42,-98.89 -19.4,-207.95 21.64,-302.2 -44.5,30.71 -86.91,65.96 -118.81,110.02 -21.99,32.41 -43.3,65.25 -65.01,97.86 -5.92,-30.91 -11.28,-61.9 -17.02,-92.8 -6.88,-34.26 -7.85,-69.46 -5.76,-104.26 4.11,-71.67 22.55,-142.25 52.64,-207.36 -55.16,60.09 -98.33,129.62 -146.23,195.32 -1.83,-41.49 -2.09,-83.07 -3.99,-124.57l0 -72.38c3.53,-83.99 16.51,-167.9 43.18,-247.77 29.28,-89.57 75.17,-173.64 134.37,-246.93 70.22,-87.29 158.73,-158.89 255.65,-214.63 -14.2,-41.91 -26.77,-84.34 -39.65,-126.66 -46.22,-13.94 -93.05,-25.7 -139.63,-38.27 61.66,-24.15 122.31,-52.42 187.5,-65.9 60.19,-13.19 122.57,-15.45 183.7,-8.13 48.15,5.61 95.44,16.79 142.09,29.76 48.03,13.29 95.06,30.12 140.96,49.55 7.62,3.13 15.31,7.93 23.95,6.28 15.49,-1.65 31.06,-2.49 46.62,-3.69 0.82,-14.17 1.71,-28.34 2.87,-42.48 -19.63,-30.61 -37.71,-62.18 -56.33,-93.39zm-443.83 157.59c52.19,15.79 102.7,37.23 150.2,64.02 35.86,20.7 70.42,44.58 99.12,74.64 -104.48,30.61 -206.65,68.45 -307.91,108.27 35.43,-31.52 77.51,-54.22 119.24,-76.21 -1.71,-6.81 -3.43,-13.62 -5.11,-20.42 10.82,-11.61 22.12,-22.78 33.22,-34.14 -15.19,-0.07 -30.37,-0.07 -45.56,-0.89 10.08,-12.03 20.47,-23.84 30.14,-36.19 -15.54,0.89 -31.11,0.79 -46.65,1.53 -8.81,-26.9 -17.8,-53.74 -26.69,-80.61zm442.97 162.03c50.39,-34.44 112.28,-48.43 172.73,-47.92 71,0.66 140.97,17.52 207.49,41.52 45.56,16.48 89.8,36.62 132.21,59.99 -12.52,-22.63 -29.48,-42.44 -47.97,-60.4 56.4,2.67 113.19,22.23 155.32,60.6 17.33,15.59 33.38,36.72 32.31,61.18 -1.19,22.43 -16.84,40.76 -34.21,53.46 18.44,1.07 36.85,2.72 55.31,3.89 3.64,-0.18 7.01,1.22 9.68,3.73 29.06,24.33 58.26,48.48 87.29,72.84 -22.86,-2.92 -45.94,-3.35 -68.93,-2.54 -10.36,0.76 -20.85,1.5 -30.73,4.9 -2.66,45.18 6.12,90.26 19.33,133.31 8.58,1.62 17.17,3.25 25.75,5 3.81,-15.39 13.36,-31.82 30.61,-34 9.57,18.79 10.48,42.1 0.12,60.75 -12.11,22.17 -36.67,33.95 -60.65,38.19 -43.37,7.39 -87.54,-1.37 -129.44,-12.67 -22.76,-5.69 -44.4,-16.56 -68.24,-16.94 -54.33,-2.41 -109.57,12.82 -154.7,43.28 -37.51,25.19 -66.71,61.89 -84.67,103.23 -9.14,20.7 -15.49,42.49 -20.27,64.56 -10.31,-61.25 -8.86,-125.48 11.28,-184.68 26.59,-81.25 88.28,-148.88 164.39,-186.87 25.32,-13.34 52.57,-22.35 80.08,-29.92 -54.73,0.99 -110.1,10.61 -159.7,34.51 -24.05,11.89 -47.39,26.92 -63.77,48.59 5.31,-40.99 25.35,-82.14 61.16,-104.66 36.16,-23.16 81.75,-24.26 122.82,-16.66 33.14,6.68 68.24,11.45 101.18,1.29 21.38,-6.37 40.84,-22.25 46.98,-44.32 -21.64,10.11 -46.73,17.4 -70.27,9.53 14.93,-6.2 27.76,-18.01 32.91,-33.6 4.96,-13.94 5.57,-29.08 3.56,-43.63 -29.03,13.76 -63.16,19.17 -94.2,9.11 -16.63,-4.72 -30.47,-15.39 -45.53,-23.39 -61.03,-34.1 -129.02,-55.95 -198.71,-62.45 -57.01,-5.08 -115.48,-1.42 -170.31,15.72 27.56,11.46 55.06,23.22 81.3,37.46 -95.95,5.59 -185.22,55.14 -250.44,124.17 14.45,-73.83 55.97,-143.75 118.93,-186.16zm111.57 351.7c43.02,-6.07 86.3,-11.97 129.83,-11.61 -10.19,14.37 -19.38,29.41 -27.56,45.03 -81.65,-1.42 -162.71,12.19 -242.06,30.37 -76.57,17.88 -151.92,40.77 -226.21,66.44 -86.98,30.25 -172.69,64.15 -256.76,101.74 32.43,-31.59 71.11,-55.9 110.76,-77.31 77.74,-41.17 160.96,-70.83 245.15,-95.67 87.55,-25.39 176.72,-45.36 266.85,-58.99zm792.74 6.78c15.46,6.93 30.45,17.09 38.57,32.43 10.42,18.26 8.49,41.22 0.28,59.91 -7.87,17.27 -25.8,27.73 -43.83,31.31 -29.84,6.38 -62.71,-2.77 -84.39,-24.35 -14.58,-14.07 -22.89,-35.96 -16.74,-55.87 3.55,-13.41 14.96,-25.2 29.31,-26.06 4.95,9.65 9.09,20.16 7.82,31.26 7.67,2.67 15.39,5.16 23.08,7.82 21.44,-12.77 34.47,-35.04 45.9,-56.45zm-824.33 75.25c40.12,-7.72 80.38,-15.06 121.01,-19.58 -6.58,16.94 -11.58,34.43 -15.59,52.14 -64.59,2.23 -128.23,15.08 -190.73,30.83 -146.09,37.97 -287.24,92.59 -426.04,151.49 -52.06,22.3 -103.61,45.76 -154.92,69.76 53.85,-54.01 119.19,-94.93 186.85,-129.34 77.26,-38.78 158.37,-69.33 240.84,-95.01 78.37,-24.31 158.09,-44.22 238.58,-60.29zm-29.29 92.16c42.69,-9.72 85.57,-18.77 128.94,-24.89 -1.75,17.55 -2.87,35.18 -2.51,52.83 -64.05,2.39 -127.32,14.37 -189.51,29.18 -149.84,36.77 -294.71,91.48 -435.76,153.52 24.43,-26.59 54.91,-46.68 85.87,-64.86 64.55,-36.7 134.12,-63.72 204.36,-87.42 68.52,-22.85 138.26,-42.05 208.61,-58.36zm97.7 136.38c5.21,-27.76 14.2,-55.49 31.14,-78.45 1.07,50.14 7.95,100.73 26.54,147.56 8.81,21.86 20.01,43.17 35.76,60.88 14.15,12.64 30.55,22.85 47.77,30.83 43.61,15.89 90.97,17.67 136.89,14.68 55.06,-3.89 109.54,-14.84 162.34,-30.84 20.47,-5.69 43.4,-7.56 63.16,1.63 19.3,8.63 32.76,29.08 32.61,50.31 0.68,24.41 -12.17,47.01 -28.88,63.98 -23.97,24.22 -54.47,40.63 -85.36,54.32 -32.78,14.17 -66.94,24.99 -101.69,33.12 17.12,-22.3 35.46,-46.94 36.42,-76.22 -50.99,24.74 -105.01,43.63 -160.84,53.69 18.85,-20.9 37.21,-42.87 49.07,-68.6 -53.76,0.64 -108.95,-9.11 -156.11,-35.93 -38.05,-21.41 -69.01,-56.33 -82.54,-98.11 -12.75,-39.52 -13.41,-82.19 -6.28,-122.85zm384.01 -4.97c19.25,-16.54 44.01,-26.21 69.18,-28.63 30.93,-2.87 62.8,14.4 76.72,42.26 3.91,7.01 2.18,15.47 -0.48,22.61 -4.14,9.72 -14.76,14.32 -24.51,16.2 -23.14,4.34 -46.48,-1.09 -69.33,-4.6 -30.58,-4.14 -63.01,4.3 -86.43,24.74 2.08,-27.38 13.79,-54.5 34.85,-72.58zm115.63 -472.64l0 0c4.57,17.04 9.52,33.98 14.3,50.97 21.48,-3.22 43.35,-3.73 64.99,-2.03 -26.24,-16.61 -52.73,-32.81 -79.29,-48.94zm-592.56 -471.92c10.46,17.77 21.36,35.3 33.14,52.24 -2.06,26.97 -3.5,53.97 -5.49,80.96 -27.81,1.09 -55.61,2.8 -83.32,5.64 -5.95,1.07 -11.2,-2.39 -16.46,-4.49 -72.1,-31.8 -147.63,-55.62 -224.66,-72.06 -51.66,-10.69 -104.64,-16.48 -157.41,-13.1 -59.53,3.33 -118.02,18.11 -173.28,40.2 22.35,6.35 44.7,12.78 66.51,20.85 16.05,55.29 33.02,110.35 51.68,164.8 -129.42,69.9 -244.95,169.22 -322.66,294.99 -60.32,96.53 -96.99,207.01 -110.53,319.85 -7.87,60.97 -7.75,122.61 -5.59,183.95 22.58,-31.42 44.55,-63.37 69.49,-93.03 54.04,-64.76 117.08,-124.3 193.4,-161.86 -17.99,19.18 -35.76,38.56 -51.64,59.56 -55.56,71.95 -93.89,157.48 -108.59,247.34 -9.1,55.54 -10.39,112.99 2.26,168.13 6.37,-6.96 10.77,-15.34 16.17,-23.01 21.03,-32.26 48.03,-60.22 77.21,-85.21 47.85,-40.66 101.61,-73.91 157.54,-102.27 -57.32,80.73 -94.88,178.36 -91.81,278.4 1.42,48.28 10.06,97.95 34.51,140.24 13.82,-25.4 28.6,-50.39 46.66,-73.04 34.16,-43.64 76.62,-80.38 123.3,-110.05 74.26,-47.21 158.25,-77.46 244.06,-95.64 104.03,-21.36 212.04,-27.13 317.13,-10.14 45.82,8.28 92.73,19.74 131.53,46.63 -34.79,28.75 -74.46,50.7 -113.78,72.54 16.11,2.94 32.16,6.3 48.41,8.58 54.5,6.73 109.74,-0.41 163,-12.55 -14.35,17.99 -29.33,35.46 -44.07,53.13 98.98,1.45 200.89,-10.36 290.65,-54.62 40.58,-20.42 78.17,-48.13 106,-84.35 20.65,-27.12 35.66,-59.53 37.82,-93.89 1.93,-28.21 -6.68,-57.8 -27,-78.07 28.19,-36.93 38.99,-83.86 43.63,-129.27 43.74,-10.54 88.03,-25.47 123.03,-54.78 25.39,-20.88 43.86,-51.78 44.31,-85.26 20.27,-12.09 38.3,-28.9 48.49,-50.46 12.82,-26.06 12.42,-57.63 0.38,-83.89 -12.83,-29.1 -38.3,-50.99 -66.95,-63.87 2.01,-5.92 3.89,-11.86 5.41,-17.9 -18.31,-13.77 -39.87,-22.4 -61.54,-29.34 -3.5,-0.99 -6.65,-2.87 -9.34,-5.23 -37.61,-32.18 -75.51,-64.05 -113.07,-96.28 15.14,-17.95 30.45,-35.76 45.59,-53.71 -22.2,0.66 -44.39,1.93 -66.59,2.66 -4.5,-24.25 -12.9,-47.82 -25.45,-69.08 -25.37,-43.17 -65.5,-76.69 -110.88,-97.27 -43.35,-19.7 -92.52,-28.24 -139.69,-19.88 -20.03,-18.54 -44.49,-31.04 -68.9,-42.62 -23.03,-42.82 -55.82,-80.45 -95.95,-108.04 -65.9,-45.91 -147.22,-64.94 -226.66,-66.43z"/>
   <path class="fil2" d="M1146.64 405.82c19.89,5.3 39.06,12.8 58.69,18.94 1.81,20.19 7.8,39.7 13.87,58.95 16.66,-8.76 34.77,-17.25 46.07,-32.97 17.55,5.95 35.86,9.5 52.93,16.89 -27.48,38.35 -86.4,51.74 -126.2,24.87 -27.91,-19.03 -47.06,-52.47 -45.36,-86.68zm457.12 407.11c37.84,-1.73 76.11,-9.8 109.03,-29.21 16.02,13.87 33.6,25.98 52.37,35.84 -17.71,15.87 -36.19,30.78 -54.51,45.89 -0.96,-14.55 -2.08,-29.11 -3.17,-43.63 -14.58,14.14 -28.06,29.36 -42.46,43.65 -3.23,-14.42 -6.68,-28.8 -9.91,-43.2 -16.4,16.05 -34.49,30.28 -51.99,45.11 0.21,-18.16 1.12,-36.29 0.64,-54.45zm-114.46 104.35c-19.51,-36.36 -10.6,-81.44 12.36,-114.03 23.57,5.13 47.57,8.03 71.62,9.6 -37.99,24.99 -66.56,62.71 -83.98,104.43zm233.42 -0.68c26.92,-24.46 48.68,-54.53 63.26,-87.88 17.96,6.3 37.28,9.55 56.2,6.18 -24.05,43.93 -69.07,76.82 -119.46,81.7zm-360.56 207.92c-10.62,-47.82 10.01,-95.67 36.88,-134.3 2.36,44.83 13.61,93.34 48.15,124.68 -27.69,6.6 -56.43,16.68 -85.03,9.62zm230.68 -39.59c29.86,-21.23 53.89,-49.27 78.7,-75.91 -5.56,30.4 -17.37,59.71 -35.02,85.13 -13.92,-5.56 -28.75,-8.33 -43.68,-9.22zm-129.68 27.71c19.89,-21.72 39.82,-43.43 59.74,-65.15 5.99,11.15 11.5,22.58 17.85,33.55 13.03,-8.73 26.06,-17.5 38.98,-26.38 -2.79,10.94 -5.71,21.86 -8.48,32.83 -36.9,3.97 -72.61,14.63 -108.09,25.15z"/>
  </g>
 </g>
</svg>
