<?xml version="1.0" encoding="UTF-8"?>
<!DOCTYPE svg PUBLIC "-//W3C//DTD SVG 1.1//EN" "http://www.w3.org/Graphics/SVG/1.1/DTD/svg11.dtd">
<!-- Creator: CorelDRAW -->
<svg xmlns="http://www.w3.org/2000/svg" xml:space="preserve" width="2000px" height="1600px" version="1.1" style="shape-rendering:geometricPrecision; text-rendering:geometricPrecision; image-rendering:optimizeQuality; fill-rule:evenodd; clip-rule:evenodd"
viewBox="0 0 2000 1600"
 xmlns:xlink="http://www.w3.org/1999/xlink">
 <defs>
  <style type="text/css">
   <![CDATA[
    .fil1 {fill:black;fill-rule:nonzero}
    .fil2 {fill:#6C4022;fill-rule:nonzero}
    .fil0 {fill:#AAA9AB;fill-rule:nonzero}
    .fil3 {fill:#B7A269;fill-rule:nonzero}
    .fil4 {fill:#FEFEFE;fill-rule:nonzero}
   ]]>
  </style>
 </defs>
 <g id="Capa_x0020_1">
  <metadata id="CorelCorpID_0Corel-Layer"/>
  <g id="Western_x0020_Michigan_x0020_Broncos.cdr">
   <path class="fil0" d="M6.17 42.88l1870.55 0c-0.13,170.78 0,341.56 -0.08,512.34 -40.28,0.13 -80.57,-0.23 -120.85,0.15 -22.49,110.08 -45.62,220.02 -68.31,330.06 21.76,17.68 48.71,27.57 75.86,33.3 39.26,8.08 79.77,8.46 119.56,4.52 -35.37,36.81 -74.87,70.13 -119.03,95.92 -14.32,8.54 -29.6,15.23 -45.05,21.38 29.57,39.87 67.03,73.09 106.25,103.21 54.74,41.67 113.81,77.46 174.93,108.94l0 0.66c-90.76,20.19 -182.6,35.69 -275.06,45.58 -41.52,4.29 -83.19,7.25 -124.94,7.84 -11.69,56.56 -23.45,113.09 -35.16,169.65 -5.92,26.85 -10.57,54.01 -17.21,80.69l-583.27 0c-0.3,-5.92 -2.44,-11.46 -3.87,-17.16 -5.69,-21.5 -11.48,-42.98 -17.07,-64.51 -0.57,-2.11 -1.48,-4.01 -2.41,-5.9 -8.18,29.1 -15.13,58.59 -23.76,87.57l-582.98 0c-21.08,-105.47 -43.7,-210.65 -65.18,-316.06 -14.84,8.13 -29.62,16.36 -44.61,24.22 -4.27,2.39 -9.36,1.38 -14.01,1.34 -15.06,-0.62 -29.54,-5.14 -44,-8.97 -31.88,-8.86 -63.28,-19.34 -95.33,-27.5 -9.91,-32.18 -19.55,-65.01 -37.36,-93.87 -7.14,-10.68 -17.08,-19.07 -25.26,-28.9 4.06,-10.79 8.39,-21.46 12.52,-32.22 1.71,-3.77 -1.38,-7.42 -2.46,-10.91 -8.33,-18.63 -12.53,-38.69 -18.58,-58.06l0 -4.78c5.64,-5.36 9.85,-11.92 14.65,-17.97 16.81,-21.64 33.81,-43.17 52.14,-63.55 15.35,-17.02 31.71,-33.57 51.05,-46.04 9.37,-1.53 18.93,-0.51 28.38,-0.68 13.23,-11.16 26.65,-22.14 39.64,-33.57 -19.85,-94.72 -39.52,-189.5 -58.99,-284.31 -40.27,-0.24 -80.51,0.1 -120.76,-0.17 0.09,-170.74 -0.04,-341.5 0.06,-512.24z"/>
   <path class="fil1" d="M49.34 86.05c212.22,-0.02 424.42,0 636.62,0 -0.04,58.58 0.07,117.18 -0.06,175.77 0.72,-1.44 1.35,-2.9 1.92,-4.42 17.23,-57.13 34.21,-114.36 51.63,-171.44 134.71,0.36 269.43,-0.27 404.12,0.3 17.44,58.45 34.78,116.93 52.96,175.15 -0.32,-58.47 -0.06,-116.91 -0.13,-175.36 212.2,0 424.4,-0.02 636.62,0 0,142 0,284.01 0,426 -37.44,0.02 -74.86,-0.02 -112.26,0.02 -27.13,130.15 -53.97,260.38 -81.12,390.53 9.83,7.76 19.83,15.35 29.54,23.26 11.26,9.7 24.69,16.36 37.88,22.98 23.64,11.65 50.38,18.5 76.77,14.46 -28.12,19.72 -60.68,32.43 -93.91,40.53 -17.24,3.97 -34.78,7.31 -52.5,7.78 24.19,28.05 47.97,56.59 72.39,84.5 33.23,37.57 69.24,73.06 109.91,102.6 17.43,12.96 36.45,23.53 55.16,34.44 -102.07,20.15 -206.07,31.52 -310.17,30.34 -17.02,83.21 -34.54,166.3 -51.62,249.49 -171.65,0.04 -343.3,0.02 -514.93,0.02 -18.94,-70.68 -37.63,-141.42 -56.57,-212.11 -7.59,23.76 -13.01,48.24 -19.77,72.26 -12.46,46.62 -24.7,93.3 -37.32,139.87 -171.54,0.02 -343.08,-0.12 -514.63,0.07 -23.97,-113.2 -47.06,-226.62 -70.72,-339.9 -28.73,16.83 -57.22,34.17 -86.82,49.47 -5.82,1.38 -11.84,-1.18 -17.59,-2.26 -30.11,-7.65 -59.67,-17.23 -89.46,-26.07 -3.93,-12.94 -8.47,-25.73 -13.71,-38.22 4.37,-3.11 8.9,-6 13.4,-8.92 -0.93,-5.01 -1.9,-10 -2.86,-14.97 -7.37,-0.93 -14.75,-1.59 -22.15,-2.16 -5.99,-11.41 -12.43,-22.72 -21.27,-32.18 3.26,-9 7.21,-17.73 11.59,-26.23 -10.79,-18.33 -17.93,-38.56 -23.45,-59.03 15.2,-19.75 30.61,-39.37 47.08,-58.1 12.14,-13.51 24.27,-27.4 39.05,-38.09 10.1,-0.38 20.21,-0.22 30.32,-0.72 23.17,-19.94 46.61,-39.6 70.25,-58.99 -23.87,-114.86 -47.78,-229.7 -71.44,-344.59 -37.57,-0.17 -75.16,-0.02 -112.75,-0.08 0,-141.99 0,-284 0,-426z"/>
   <path class="fil2" d="M129.45 166c157.42,-0.55 314.84,-0.08 472.26,-0.25 3.05,-0.74 5.33,0.97 4.57,4.19 -0.11,87.2 -0.04,174.39 -0.04,261.58 -27.57,-0.19 -55.16,-0.19 -82.71,0 -0.36,0.4 -1.06,1.19 -1.4,1.59 0.15,2.2 0.43,4.39 0.81,6.57 7.53,37.87 14.78,75.82 22.32,113.7 0.49,2.16 1.29,4.25 2.06,6.34l0.16 0.41c-14.22,3.59 -27.65,9.78 -40.69,16.38 -1.88,0.95 -3.87,1.52 -5.95,1.71 -30.12,2.41 -60.93,6.18 -88.49,19.37 -15.97,7.71 -30.87,21.08 -34.13,39.28 -3.89,19.54 5.04,38.46 15.35,54.5 -34.54,16.64 -69.66,32.41 -102.13,52.9 -18.92,-95.05 -39.31,-189.81 -58.73,-284.76 -2.14,-8.85 -3.15,-17.95 -6.09,-26.59l-0.53 -1.61c-32.22,0.19 -64.46,0.13 -96.68,0.04 0.13,-88.47 0.04,-176.91 0.04,-265.35zm669.37 -0.21c94.96,-0.08 189.93,0 284.88,-0.04 43.89,144.25 87.17,288.71 130.78,433.06 -42.47,-10.84 -83.83,-25.83 -126.78,-34.82 -64.32,-13.06 -130.66,-3 -193.73,12.04 16.58,-20.01 18.29,-47.7 14.3,-72.37 -6.33,2.87 -12.01,6.95 -18.33,9.83 -17.09,8.37 -36.13,12.03 -55.04,12.7 -23.99,1.44 -48.09,-0.76 -71.98,2.39 -7.36,0.51 -14.5,2.86 -21.88,3.11 8.35,-12.16 15.37,-25.84 16.13,-40.84 -20.09,16.82 -42.2,32.26 -67.72,39.42 36.13,-121.6 72.9,-243 109.37,-364.48zm477.8 -0.02c158.88,-0.02 317.78,-0.04 476.68,0.02 0,88.54 0.08,177.09 -0.03,265.65 -32.32,-0.09 -64.63,0.04 -96.95,-0.07l-0.44 1.57c-8.61,37.4 -15.75,75.16 -23.73,112.72 -12.55,60.39 -25.15,120.76 -37.54,181.17 -6.24,2.15 -10.93,7.29 -17.23,9.38 -28.48,11.68 -60.53,11.49 -90.41,6.09 -53.8,-10.29 -103.17,-35.15 -151.81,-59.34 -6.9,-3.11 -13.57,-7.02 -21.08,-8.48l0.23 -0.57c3.87,-10.4 4.76,-21.59 7.27,-32.33l-2.26 0.19c15.06,-10.38 29.86,-21.31 43.6,-33.44 -11.69,2.81 -23.66,3.99 -35.65,4.27 9.41,-46.81 18.59,-93.66 27.97,-140.46 2.37,-12.96 5.67,-25.74 7.25,-38.84l0.19 -1.61c-28.71,-0.74 -57.44,0.09 -86.15,-0.42 0.15,-88.5 -0.04,-177 0.09,-265.5zm-702.92 433.93c23.66,-12.01 49.24,-19.47 73.91,-29.09 -4.21,4.91 -10.13,7.84 -14.8,12.24 -13.11,11.31 -25.24,26.07 -26.15,44.13 -25.46,5.53 -50.02,14.43 -74.35,23.61 7.01,-18.75 19.08,-35.43 34.29,-48.43 2.41,-0.64 4.82,-1.4 7.1,-2.46zm399.7 14.4c30.85,-3.38 62.24,-6.17 93.03,-0.76 46.63,7.13 91.2,25.12 138.54,27.82 19.53,1.46 39.09,-1.14 58.12,-5.41 -1.34,3.97 -6.05,4.48 -9.29,6.22 -40.95,17.46 -85.81,20.84 -128.87,30.38 -14.8,3.57 -29.96,6.72 -43.66,13.57 -12.54,3.08 -25.08,6.19 -37.27,10.46 1.94,0.93 3.89,1.88 5.89,2.79 -3.04,-0.61 -6.02,-1.33 -8.81,-2.62 -13.98,-6.13 -28.35,-11.45 -42.88,-16.09 -1.77,-0.48 -3.17,-1.43 -4.23,-2.89 39.37,-16.35 81.55,-25.41 123.77,-30.51 -66.24,-19.7 -138.86,-15.56 -203.11,9.47 -11.84,-2.01 -23.45,-5.26 -35.22,-7.61 -7.55,-1.8 -15.41,-2.51 -22.64,-5.45 37.37,-14.83 76.68,-24.78 116.63,-29.37zm96.77 93.72c81.2,-20.08 169.09,-20.42 247.88,9.7 24.28,9.62 46.62,23.47 70.91,33.13 30.45,12.96 63.41,19.88 96.56,19.24 -14.66,6.77 -31.23,7.61 -47.13,8.67 -47.5,1.06 -94.08,-14.95 -141.65,-9.7 -16.17,1.96 -32.55,5.11 -47.23,12.39 -12.64,1.35 -25.24,3.06 -37.59,6.09 -9.02,-7.81 -19.4,-13.83 -28.77,-21.15 -0.11,-0.44 -0.34,-1.29 -0.45,-1.73 36.94,-14.73 77.38,-22.2 117.15,-18.39 -4.57,-3.94 -10.67,-5.29 -16.15,-7.45 -54.86,-19.11 -114.63,-20.9 -171.61,-11.58 -4.18,1.16 -7.82,-1.48 -11.41,-3.07 -14.61,-7 -29.2,-14.08 -44,-20.67 -2.16,-0.93 -4.06,-2.28 -5.84,-3.74 6.6,2.34 12.98,5.3 19.33,8.26zm510.67 37.34c4.7,-5.01 8.15,-11.08 13.15,-15.84 -8.43,40.7 -16.78,81.42 -25.35,122.07 -24.69,-16.53 -49.7,-32.58 -75.53,-47.25 -1.44,-0.89 -2.73,-1.94 -3.85,-3.15 34.9,-9.58 67.46,-28.71 91.58,-55.83zm-344.08 60.5c22.1,-3.04 44.49,-3.46 66.77,-2.38 78.29,4.84 153.42,34.03 219.53,75.3 26.43,16.07 50.34,35.86 76.62,52.18 31.02,19.58 64.48,35.79 100.13,44.88 -17.59,5.63 -36.83,4.21 -54.76,0.76 -36.32,-7.33 -68.41,-26.91 -103.13,-38.94 -46.09,-16.4 -96.09,-25.79 -144.8,-16.98 1.04,0.85 2.1,1.7 3.2,2.58 -9.05,-0.12 -18.14,0.64 -26.77,3.43 -8.84,-7.91 -17.44,-16.41 -24.46,-25.98 17.72,-5.88 36.55,-6.96 55.07,-7.53 37.91,0.06 75.8,5.12 112.35,15.22 -21.58,-20.93 -48.07,-36.28 -75.43,-48.37 -54.46,-23.28 -114.57,-32.98 -173.6,-29.09 -10.31,-8.27 -20.59,-16.58 -30.72,-25.08zm157.78 139.39c45.2,0.63 88.65,17.65 126.5,41.54 46.08,29.24 85.28,67.74 123.08,106.73 29.73,29.49 57.38,62.22 93.74,83.93 -3.49,2.5 -7.46,-0.28 -11.12,-0.8 -63.34,-15.46 -122.56,-44.42 -177.46,-79.16 -23.55,-14.29 -44.21,-32.64 -65.03,-50.51 29.7,19.27 62.34,33.45 95.22,46.35 13.09,4.75 26.03,10.31 39.75,12.96 -37.89,-29.24 -70.24,-64.97 -107.8,-94.69 -32.08,-25.63 -67.64,-48.31 -107.62,-59.2 -4.14,-0.66 -7.69,-3.22 -9.26,-7.15zm-920.59 108.58c5.01,-1.5 10.4,-4.31 15.54,-1.6 53.43,18.26 110.53,30.61 167.15,22.6 3.68,-0.19 8.05,-2.2 11.18,0.68 14.08,10.19 25.96,24.37 30.7,41.31 5.67,19.28 1.94,40.95 -9.41,57.48 -15.79,24.1 -35.9,44.97 -55.71,65.75 -21.94,22.22 -44.61,43.68 -67.92,64.46 1.98,-0.36 3.95,-0.7 5.91,-1.22 88.71,-27.04 179.1,-49.05 270.91,-62.6 11.1,-1.47 22.16,-3.71 33.37,-4.02 -17.87,65.33 -34.8,130.93 -52.54,196.3 -129.47,0.12 -258.96,0.19 -388.42,-0.04 -23.06,-111 -46.44,-221.95 -68.96,-333.07 34.02,-19.68 70.74,-34.35 108.2,-46.03zm530.6 172.35c73.72,-3.02 147.56,2.03 220.93,9.22 86.02,8.88 171.79,20.63 258.16,25.67 -11.57,57.29 -23.94,114.41 -35.37,171.71 -76.69,0.65 -153.41,0.1 -230.11,0.27 -52.87,-0.1 -105.75,0.23 -158.63,-0.17 -18.47,-68.86 -36.89,-137.75 -54.98,-206.7z"/>
   <path class="fil3" d="M94.9 131.12c181.89,-0.1 363.77,0.25 545.67,-0.17 0.78,111.71 0.04,223.47 0.36,335.2 -11.71,-11.39 -23.19,-23.02 -34.69,-34.63 0,-87.19 -0.07,-174.38 0.04,-261.58 0.76,-3.22 -1.52,-4.93 -4.57,-4.19 -157.42,0.17 -314.84,-0.3 -472.26,0.25 0,88.44 0.09,176.88 -0.04,265.35 -11.61,11.35 -22.94,22.96 -34.51,34.34 -0.04,-111.51 -0.04,-223.05 0,-334.57zm670.98 24.57c2.64,-8.2 4.75,-16.56 7.67,-24.67 111.99,0.33 223.98,-0.11 335.98,0.21 47.62,158.71 95.61,317.33 143.47,475.98 -12.96,-2.2 -25.81,-5.12 -38.52,-8.4 -43.61,-144.35 -86.89,-288.81 -130.78,-433.06 -94.95,0.04 -189.92,-0.04 -284.88,0.04 -36.47,121.48 -73.24,242.88 -109.37,364.48 -12.49,4.78 -25.86,7.17 -39,9.69 38.41,-128.12 77.01,-256.16 115.43,-384.27zm476.07 -24.57c182,0.02 364.01,-0.02 546,0.02 0.02,111.65 -0.05,223.28 0.04,334.93 -11.77,-11.36 -23.26,-22.98 -34.72,-34.63 0.11,-88.56 0.03,-177.11 0.03,-265.65 -158.9,-0.06 -317.8,-0.04 -476.68,-0.02 -0.13,88.5 0.06,177 -0.09,265.5 -11.63,11.29 -22.77,23.09 -34.56,34.21 -0.07,-111.46 -0.02,-222.9 -0.02,-334.36zm-1015.33 301.8c2.94,8.64 3.95,17.74 6.09,26.59 19.42,94.95 39.81,189.71 58.73,284.76 -6.3,3.76 -12.37,7.88 -18.21,12.32 -0.54,20.89 2.24,41.74 6.64,62.14 -2.22,1.76 -4.44,3.57 -6.64,5.37 -24.73,-119.18 -49.62,-238.31 -74.1,-357.53 9.29,-11.1 18.33,-22.43 27.49,-33.65zm295.51 0.19c13.89,10.9 27.21,22.53 41.06,33.49 5.75,28.11 11.27,56.29 16.54,84.48 -10.96,2.22 -21.76,5.18 -32.41,8.64 -0.77,-2.09 -1.57,-4.18 -2.06,-6.34 -7.54,-37.88 -14.79,-75.83 -22.32,-113.7 -0.38,-2.18 -0.66,-4.37 -0.81,-6.57zm799.5 33.59c13.49,-11.27 26.99,-22.6 40.86,-33.4 -1.58,13.1 -4.88,25.88 -7.25,38.84 -9.38,46.8 -18.56,93.65 -27.97,140.46 -11.69,0.23 -23.36,-0.17 -35.03,-0.55 10.08,-48.39 18.8,-97.12 29.39,-145.35zm310.52 78.96c7.98,-37.56 15.12,-75.32 23.73,-112.72 9.24,11.43 19.38,22.45 27.56,34.56 -27.88,135.2 -56.08,270.34 -84.07,405.52 -10.03,-7.52 -20.47,-14.46 -30.73,-21.63 8.57,-40.65 16.92,-81.37 25.35,-122.07l0.62 -2.49c12.39,-60.41 24.99,-120.78 37.54,-181.17zm-798.96 7.26c17.51,-1.55 35.77,-3.49 51.25,-12.56 -0.65,14.01 -12.58,23.74 -24.67,28.58 -35.5,14.44 -75.14,13.41 -110.76,27.46 -11.76,4.51 -22.73,13.71 -23.96,27.03 -15.71,15.56 -34.76,27.29 -52.11,40.75 9.62,1.53 19.36,-0.38 29.05,-0.23 77.38,0.42 153.82,18.1 226.23,44.57 67.42,24.78 131.59,57.82 192.5,95.79 57.53,35.88 111.25,77.82 160.02,124.91 56.11,53.29 105.54,113.55 165.85,162.38 62.75,51.42 136.75,87.53 213.58,112.63 3.04,0.95 6.02,2.11 8.52,4.21 -52.73,4.56 -105.98,1.9 -158.42,-4.93 -71.28,-9.92 -142.39,-30.09 -203.69,-68.69 -30.43,-19.3 -58,-43.38 -80.15,-71.86 -41.42,-56.19 -93.79,-103.59 -150.68,-143.7 -55.18,-38.4 -115.43,-70.32 -179.98,-89.7 -29.89,-8.63 -60.72,-14.99 -91.92,-15.37 -6.6,-16.85 -13.05,-34.11 -23.56,-48.95 -11.01,0.26 -22.02,-0.1 -33,0.64 -9.23,0.61 -18.35,2.19 -27.42,3.86 17,25.55 23.41,56.77 22.98,87.13 -0.97,32.28 -9.49,65.22 -28.94,91.42 -8.48,11.58 -19.72,20.8 -31.79,28.43 -30.62,10.4 -64.97,12.35 -95.93,2.16 -20.52,-6.18 -36.84,-24.27 -40.8,-45.33 -1.95,-12.87 -0.65,-26.19 3.21,-38.58 6.64,-18.23 22.12,-30.93 36.24,-43.34 -16.09,-3.93 -32.11,-8.19 -47.88,-13.24 -30.28,16.05 -60.87,31.55 -90.94,47.97 4.95,6.28 7.28,14.17 6.62,22.14 -32.28,17.06 -63,36.93 -95.03,54.35 6.93,-12.2 15.22,-23.53 24.23,-34.23 1.58,-6.4 -1.65,-13.17 -4.34,-18.96 -21.26,8.82 -41.07,20.7 -60.31,33.26 -0.89,-7.76 -2.75,-15.37 -5.6,-22.63 -22.29,5.69 -43.47,14.99 -64.44,24.36 -2.14,1.04 -4.68,1.8 -5.9,4.06 8.12,-0.78 16.38,-2.07 24.5,-0.61 3.4,0.9 7.13,3.59 7.42,7.33 -0.89,38.9 -21.29,77.02 -53.3,99.07 5.04,-8.46 9.64,-17.29 11.86,-26.97 -11.84,11.18 -26.49,19 -41.73,24.54 -9.16,3.07 -19.03,5.98 -28.75,3.98 -8.57,-2.33 -17.55,-9.16 -17.53,-18.84 -1.08,-13.89 6.72,-26.34 14.57,-37.08 6.76,-9.24 15.14,-17.04 23.1,-25.2 -12.81,0.59 -25.62,1.71 -38.43,2.3 8.79,-11.59 20.08,-21.27 27.95,-33.51l0.23 -0.38 0.36 0c7.34,0.36 14.55,-1.25 21.82,-1.95 2.73,-0.53 6,-0.36 8.1,-2.51 56.8,-55.29 113.84,-110.32 170.63,-165.62 -1.5,0.88 -2.98,1.77 -4.48,2.68 -17.76,7.44 -35.08,16.22 -51.4,26.49 -0.48,-0.27 -1.41,-0.78 -1.88,-1.04 -2.7,-10.86 -3.46,-22.19 -2.85,-33.32 6.19,2.08 12.47,3.9 18.71,5.88 23.61,-18.58 45.73,-39.55 71.94,-54.46l0.62 2.09c-3.56,12.67 -6.56,25.52 -9.41,38.38 47.84,-29.88 96.49,-58.61 147.02,-83.75 21.58,-10.54 43.55,-20.36 66.45,-27.71 0.78,2.51 1.6,5.01 2.43,7.54 -19.29,14.36 -41.74,23.73 -61.27,37.76 4.8,-0.61 9.39,-2.09 14.02,-3.44 30.25,-8.42 60.82,-15.56 91.31,-23.07 -5.9,-11.73 -12.82,-24.27 -10.98,-37.88 1.4,-12.33 10.85,-21.25 19.01,-29.69 20.89,-20.36 48.69,-32 76.95,-37.73 31.23,-6.52 63.24,-6.64 94.95,-9.07zm-417.73 79.96c11.33,-14.99 30.99,-19.01 48.37,-22.52 -14.91,14.73 -28.67,30.97 -37.97,49.89 -2.56,4.63 -4.06,9.94 -7.57,14.02 -7.57,-12.09 -12.05,-28.94 -2.83,-41.39zm867.42 28.58c12.66,-5.52 24.96,-11.93 36.44,-19.69l2.26 -0.19c-2.51,10.74 -3.4,21.93 -7.27,32.33 -10.8,-2.58 -21.6,-5.22 -32.2,-8.44 0.19,-1.01 0.57,-3 0.77,-4.01zm-506.09 345.18c17.61,-15.63 28.77,-37.32 34.92,-59.79 62.94,19.96 116.87,62.15 159.09,112.13 19.45,23.66 37.99,48.91 48.97,77.74 3.82,9.73 1.27,22.28 -7.83,28.16 -7.25,5.25 -16.49,5.46 -25.01,6.6 -38.12,4.93 -76.28,9.62 -114.41,14.69 13.84,-13.53 16.97,-34.65 14.29,-53.08 -3.98,-19.22 -13.89,-36.66 -24.89,-52.69 -21.86,-30.97 -51.45,-56.38 -85.13,-73.76zm-485.37 17.16c21.07,-14.99 44.41,-27.27 69.23,-34.8 8.74,3.62 17.05,8.42 24.28,14.57 -13.22,18.2 -26.9,36.24 -37.28,56.3 2.96,-11.01 5.31,-22.77 2.9,-34.08 -1.35,-6.79 -8.5,-10.13 -14.82,-10.4 -15.24,-0.76 -29.71,4.99 -44.31,8.41zm68.47 80.7c0.7,-2.79 3.75,-3.46 5.86,-4.84 22.52,111.12 45.9,222.07 68.96,333.07 -9.4,11.48 -18.47,23.21 -28.2,34.39 -17.48,-85.26 -35.33,-170.44 -52.94,-255.66 -4.22,-21.36 -9.34,-42.58 -12.92,-64.04 2.1,-1.46 4.45,-2.83 5.19,-5.46 5.47,-12.19 9.83,-24.82 14.05,-37.46zm609.52 122.94c11.69,-0.76 23.42,-1.37 35.14,-1.46 18.09,68.95 36.51,137.84 54.98,206.7 -8.77,11.61 -17.54,23.2 -26.61,34.55 -20.89,-80 -42.79,-159.75 -63.51,-239.79zm-93.47 8.22c12.14,-1.09 24.25,-2.68 36.39,-3.88 -20.85,78.51 -41.78,157.01 -62.67,235.53 -8.82,-11.54 -17.76,-22.96 -26.53,-34.54 17.74,-65.37 34.67,-130.97 52.54,-196.3l0.27 -0.81zm607.7 25.21c11.56,0.71 23.15,0.91 34.71,1.81 -13.79,68.23 -28.18,136.35 -42.31,204.51 -9.25,-11.53 -19.13,-22.69 -27.77,-34.61 11.43,-57.3 23.8,-114.42 35.37,-171.71zm-971.36 -506.41l0 0c-31.79,15.9 -62.83,33.51 -91.86,54.08 -17.69,14.78 -40.89,20.97 -63.42,23.4 2.32,2.46 5.71,3.39 8.75,4.7 20.64,8.43 42.77,13.4 65.1,13.95 34.25,0.45 68.47,-10.21 96.47,-29.91 19.95,-14.91 29.36,-41.27 26.57,-65.59 -13.62,-1.56 -28.79,-8.49 -41.61,-0.63zm-320.29 237.8l0 0c6.81,-0.72 13.63,-2.03 20.51,-1.41 -5.92,7.94 -16.69,10.35 -24.45,16.31 -8.43,5 -15.57,14.97 -12.34,25.1 5.03,4.14 12.3,2.62 18.18,1.52 19.77,-5.96 33.76,-23.32 42.14,-41.46 2.43,-6.17 6.55,-12.45 4.99,-19.34 -18.06,-1.08 -36.48,6.26 -49.03,19.28z"/>
   <path class="fil4" d="M637.87 569.15c5.98,-0.5 11.85,-1.79 17.79,-2.47 -2.59,1.52 -5.26,2.85 -8.05,3.93 -24.67,9.62 -50.25,17.08 -73.91,29.09 -2.28,1.06 -4.69,1.82 -7.1,2.46 -15.37,3.76 -29.35,11.6 -42.92,19.51 -15.88,9.37 -30.76,20.3 -44.7,32.32 23.28,-37.44 62.84,-62.09 104.32,-74.84 17.88,-4.77 36.04,-9.17 54.57,-10zm343.46 26.54c26.24,-2.62 52.83,-4.78 79.11,-1.13 43.01,5.59 83.47,22.21 125.61,31.78 28.49,6.73 58.11,9.2 87.21,5.56 -3.15,1.82 -6.6,3.13 -10.17,3.85 -19.03,4.27 -38.59,6.87 -58.12,5.41 -47.34,-2.7 -91.91,-20.69 -138.54,-27.82 -30.79,-5.41 -62.18,-2.62 -93.03,0.76 -39.95,4.59 -79.26,14.54 -116.63,29.37l-1.32 0.53c-9.95,-1.95 -19.95,-3.64 -29.99,-4.97 49.3,-22.26 101.88,-38.14 155.87,-43.34zm-308.39 68.49c47.61,-10.14 96.97,-11.73 145.14,-4.81 76.91,10.8 149.43,40.48 219.62,72.55 62.57,27.76 122.3,62.27 176.21,104.57 49.68,38.39 94.25,82.77 138.16,127.48 46.87,48.08 94.4,95.84 147.29,137.4 47.93,37.81 99.92,70.47 154.74,97.32 6.13,3.13 12.41,5.98 18.44,9.3 -0.96,0.11 -2.88,0.34 -3.85,0.45 -2.5,-2.1 -5.48,-3.26 -8.52,-4.21 -76.83,-25.1 -150.83,-61.21 -213.58,-112.63 -60.31,-48.83 -109.74,-109.09 -165.85,-162.38 -48.77,-47.09 -102.49,-89.03 -160.02,-124.91 -60.91,-37.97 -125.08,-71.01 -192.5,-95.79 -72.41,-26.47 -148.85,-44.15 -226.23,-44.57 -9.69,-0.15 -19.43,1.76 -29.05,0.23zm408.33 21.74c43.08,-9.07 87.4,-11.57 131.29,-8.78 21.75,1.61 43.59,3.87 64.69,9.69 74.17,20.12 138.29,67.61 214.33,82.13 -2.03,0.34 -4.05,0.79 -6.06,0.93 -33.15,0.64 -66.11,-6.28 -96.56,-19.24 -24.29,-9.66 -46.63,-23.51 -70.91,-33.13 -78.79,-30.12 -166.68,-29.78 -247.88,-9.7 -6.35,-2.96 -12.73,-5.92 -19.33,-8.26l-0.95 -0.39c-2,-0.91 -3.95,-1.86 -5.89,-2.79 12.19,-4.27 24.73,-7.38 37.27,-10.46zm-746.17 65.6c22.02,-13.25 45.56,-23.62 68.75,-34.54 -0.38,1.52 -0.76,3.06 -1.14,4.6l-0.62 -2.09c-26.21,14.91 -48.33,35.88 -71.94,54.46 -6.24,-1.98 -12.52,-3.8 -18.71,-5.88 6.99,-6.72 15.47,-11.52 23.66,-16.55zm384.77 18.22c9.07,-1.67 18.19,-3.25 27.42,-3.86 9.94,15.28 13.34,33.65 16.2,51.35 4.01,30.11 3.27,61.5 -6.53,90.49 -6.96,20.5 -19.83,39.53 -38.34,51.2 -11.64,6.94 -23.46,13.85 -36.5,17.8 12.07,-7.63 23.31,-16.85 31.79,-28.43 19.45,-26.2 27.97,-59.14 28.94,-91.42 0.43,-30.36 -5.98,-61.58 -22.98,-87.13zm-352.3 6.2c1.5,-0.91 2.98,-1.8 4.48,-2.68 -56.79,55.3 -113.83,110.33 -170.63,165.62 -2.1,2.15 -5.37,1.98 -8.1,2.51 -7.27,0.7 -14.48,2.31 -21.82,1.95 62.69,-58.82 128.22,-114.63 196.07,-167.4zm844.35 11.4c12.35,-3.03 24.95,-4.74 37.59,-6.09 78.01,-5.54 156.05,14.29 226.01,48.03 30.93,15.12 60.08,33.72 87.61,54.36 40.4,29.55 78.79,62.62 123.97,84.88 5.06,2.68 10.72,4.31 15.41,7.72 -0.67,-0.15 -2.02,-0.45 -2.7,-0.6 -35.65,-9.09 -69.11,-25.3 -100.13,-44.88 -26.28,-16.32 -50.19,-36.11 -76.62,-52.18 -66.11,-41.27 -141.24,-70.46 -219.53,-75.3 -22.28,-1.08 -44.67,-0.66 -66.77,2.38 -8.54,-5.51 -16.82,-11.96 -24.84,-18.32zm-749.81 19.09c9.16,-6.07 18.57,-11.78 27.99,-17.49 4.55,8.27 0.17,19.11 -8.73,22.03 -6.74,3.36 -14.25,0.4 -19.26,-4.54zm911.44 120.06c8.63,-2.79 17.72,-3.55 26.77,-3.43 31.5,1.36 61.54,12.86 89.78,26.16 34.95,17.16 68.17,38.22 97.55,63.84 36.89,32.33 65.75,72.24 97.42,109.37 18.93,22.01 39.71,42.85 64.25,58.61 -3.95,-0.81 -8.01,-1.68 -11.46,-3.79 -36.36,-21.71 -64.01,-54.44 -93.74,-83.93 -37.8,-38.99 -77,-77.49 -123.08,-106.73 -37.85,-23.89 -81.3,-40.91 -126.5,-41.54l-0.93 -0.02c-6.97,-5.88 -13.76,-11.97 -20.06,-18.54zm-1231.18 21.31c9.28,-2.62 18.9,-4.06 28.54,-4.08 -7.87,12.24 -19.16,21.92 -27.95,33.51 -13.23,14.61 -26.49,29.28 -38.98,44.54 5.37,13.94 9.83,28.25 14.75,42.37 -2.11,8.16 -6.49,15.67 -9.22,23.7 -6.47,0.11 -12.93,-0.65 -19.38,-1.05 2.87,-8.86 6.61,-17.38 10.38,-25.86 -8.08,-14.31 -13.47,-30.04 -16.72,-46.11 13.53,-21.38 30.65,-40.17 47.8,-58.65 3.36,-3.08 5.81,-7.76 10.78,-8.37zm99.07 141.14c14.97,-12.64 30.57,-26.15 49.96,-31.2 -12.16,15.15 -25.84,29.45 -35.18,46.61 17.9,-11.52 33.46,-26.21 50.48,-38.86 -3.8,15.8 -8.52,31.4 -13.68,46.81 -1.77,5.97 -8.47,7.99 -12.92,11.59 -24.07,15.14 -48.68,29.91 -75.15,40.46 -23.6,-3.89 -47.21,-8.5 -70.68,-13.38 -1.37,-7.72 -2.89,-15.45 -4.08,-23.19 23.04,-0.4 45.75,4.04 68.58,6.3 12.6,-16.51 27.38,-31.18 42.67,-45.14z"/>
  </g>
 </g>
</svg>
