<?xml version="1.0" encoding="UTF-8"?>
<!DOCTYPE svg PUBLIC "-//W3C//DTD SVG 1.1//EN" "http://www.w3.org/Graphics/SVG/1.1/DTD/svg11.dtd">
<!-- Creator: CorelDRAW -->
<svg xmlns="http://www.w3.org/2000/svg" xml:space="preserve" width="2000px" height="1600px" version="1.1" style="shape-rendering:geometricPrecision; text-rendering:geometricPrecision; image-rendering:optimizeQuality; fill-rule:evenodd; clip-rule:evenodd"
viewBox="0 0 2000 1600"
 xmlns:xlink="http://www.w3.org/1999/xlink">
 <defs>
  <style type="text/css">
   <![CDATA[
    .fil1 {fill:black;fill-rule:nonzero}
    .fil2 {fill:#A8A8A8;fill-rule:nonzero}
    .fil0 {fill:#C5003B;fill-rule:nonzero}
    .fil3 {fill:#FEFEFE;fill-rule:nonzero}
   ]]>
  </style>
 </defs>
 <g id="Capa_x0020_1">
  <metadata id="CorelCorpID_0Corel-Layer"/>
  <g id="Western_x0020_Kentucky_x0020_Hilltoppers.cdr">
   <path class="fil0" d="M279.16 207.11c132.42,-34.4 268.54,-53.94 405.15,-60.82 226.58,-11.04 456.34,15.31 671.32,89.33 147.65,48.84 279.34,143.4 375.17,265.65 51.48,66.02 91.95,141.04 115.73,221.45 20.84,70.61 28.92,145.18 22.06,218.52 -30.98,-8.42 -60.16,-23.56 -84.62,-44.38 -43.7,7.4 -87.31,15.16 -131.03,22.35 -24.37,-26.09 -57.08,-42.72 -90.35,-54.54 -52.98,-18.24 -109.2,-24.67 -164.96,-26.6 -113.84,-2.71 -227.38,13.89 -337.95,40.1 -95.74,23.12 -189.66,54.15 -279.66,94.3 -89.4,40.68 -176.19,87.04 -260.06,138.16 -17.56,-20.25 -31.88,-43.02 -45.79,-65.85 -4.64,-7.7 -8.36,-15.9 -11.8,-24.16 84.79,-15.66 169.62,-39.51 243.93,-84.48 23.31,-14.67 46.43,-30.33 65.6,-50.27 -63.34,32.44 -131.57,54.13 -200.28,72 -48.9,12.22 -98.58,22.06 -148.88,26.18 -12.03,-23.31 -19.09,-48.67 -29.03,-72.85 34.28,0.02 68.35,-4.36 102.14,-9.65 41.06,-7.26 81.09,-20.37 118.67,-38.41 -61.05,8.48 -122.86,10.93 -184.43,8.88 -22.44,-0.42 -44.83,-2.38 -67.04,-5.67 -11.35,-28.8 -22.2,-58.07 -27.45,-88.68 16.46,3.79 32.85,7.98 49.52,10.76 25.31,3.96 50.97,4.81 76.54,3.89 -47.94,-17.92 -96.63,-34.76 -141.51,-59.69 -6.43,-4.33 -14.6,-7.44 -18.62,-14.41 -13.89,-36.21 -24.26,-73.79 -30.28,-112.13 -7.14,-44.85 -13.66,-89.8 -22.04,-134.42 -7.11,-40.19 -20.82,-78.92 -37.89,-115.91 -18.03,-37.68 -39.22,-75.82 -72.73,-101.96 45.3,-19.87 92.84,-33.98 140.57,-46.69zm1462.69 818.19c11.04,-3.79 22.25,-7.08 33.27,-11.02 9.44,9.42 21.85,14.6 34.12,19.22 -5.49,10.62 -7.85,23.59 -0.99,34.21 -25.24,11.44 -40.24,44.78 -27.41,70.24 -22.04,9.81 -38.69,34 -34.47,58.62 -31.48,7.68 -47.71,46.44 -35.04,75.23 2.69,5.84 7.68,10.08 12.22,14.49 -27.64,31.69 -59.9,59.14 -94.04,83.61 -16.88,11.42 -33.06,23.99 -51.21,33.41 -39.23,21.24 -82.6,33.95 -126.51,40.99 -49.05,7.68 -99.08,9.02 -148.46,3.91 -12.53,-1.25 -24.93,-3.32 -37.18,-6.17 -12.43,-20.46 -22.98,-41.98 -35.55,-62.35 55.21,14.98 113.11,17.33 169.86,12.15 35.06,-3.93 70.26,-14.03 99.6,-34.14 -46.98,13.02 -96.26,15.16 -144.72,13.26 -53.71,-2.36 -107.53,-9.92 -158.62,-27.03 -11.14,-21.38 -20.56,-43.59 -30,-65.74 53.23,18.1 108.71,29.64 164.79,33.9 43.8,2.94 88.58,3.39 131.25,-8.33 34.26,-9.35 67.13,-24.84 94.89,-47.14 -68.76,25.29 -143.23,38.73 -216.43,29.67 -73.25,-7.49 -146.93,-22.23 -213.26,-55.29 -3.86,-2.68 -4.85,-7.86 -6.99,-11.8 -17.99,-42.59 -28.94,-87.8 -38.08,-133.01 48.93,57.64 119.26,94.37 192.37,110.86 50.16,11.37 102.12,12.66 153.24,8.57 26.18,-2.38 52.36,-6.55 77.51,-14.44 20.89,-7.46 41.63,-15.4 61.9,-24.37 2.76,-1.13 5.51,-2.45 8.55,-2.59 39.86,-0.54 80.91,-13.3 110.45,-40.87 27.98,-25.95 46.13,-61.2 54.94,-98.05zm-937.48 -708.8l0 0c-104.02,5.82 -208.21,17.71 -309.3,43.82 15.31,52.93 30.8,105.79 46.06,158.73 0.38,2.19 1.44,3.95 3.15,5.32 6.95,5.76 14.58,10.71 21.29,16.76 2.9,1.81 3.41,5.23 3.88,8.34 12.56,84.76 24.8,169.57 35.35,254.62 -0.05,2.97 2.38,4.78 4.24,6.69 19.99,18.58 40.28,36.85 61.14,54.46 103.89,-62.16 217.47,-109.51 336.8,-131.76 98.4,-18.7 199.32,-21.45 299.06,-14.18 12.03,0.87 24.67,-0.73 35.13,-7.11 8.92,-5.06 15.04,-13.49 21.97,-20.81 16.76,-17.76 32.51,-36.52 50.69,-52.89 18.95,-17.92 25.22,-44.9 25.71,-70.12 0.1,-28.35 0.03,-56.69 0,-85.04 5.09,-5.82 11.99,-10.34 15.68,-17.19 7.42,-34.94 14.46,-69.98 21.6,-104.97 -79.33,-15.75 -159.62,-26.21 -240.08,-34 -143.63,-13.52 -288.24,-18.32 -432.37,-10.67z"/>
   <path class="fil1" d="M189.52 195.43c218.91,-67.67 449.49,-98.28 678.43,-87.96 147.13,6.85 293.56,31.59 434.23,75.48 79.77,24.44 157.8,55.64 229.8,98.09 79.71,46.6 152.72,105.35 212.65,175.75 52.01,60.98 93.87,130.82 121.49,206.14 33.63,91.46 46.43,190.37 38.38,287.43 7.09,1.6 14.25,3.06 21.4,4.45 -2.89,13.49 -8.24,26.56 -16.36,37.76 20.74,-0.35 42.34,10.84 49.75,30.99 9.63,27.06 -0.78,60.58 -24.96,76.57 4.88,28.7 -8.87,62.56 -37.93,72.38 3.63,20.67 -1.72,43.77 -17.26,58.51 -11.37,11.21 -27.99,16.39 -43.72,13.61 -0.24,21.95 -10.81,45.33 -31.69,54.63 -17.15,8.59 -36.57,3.74 -54.54,1.27 -50.97,61.17 -114.52,112.34 -187,145.77 -94.68,43.89 -202.35,58.25 -305.46,43.4 -8.61,-1.63 -17.61,-2.26 -25.83,-5.35 -22.86,-37.08 -41.37,-76.73 -60.77,-115.63 -6.57,-3.3 -13.51,-5.63 -20.22,-8.52 -14.13,-31.53 -27.01,-63.58 -38.03,-96.33 -8.9,-3.49 -17.78,-7.02 -26.61,-10.67 -13.42,-43.93 -26.49,-88.18 -34.44,-133.48 -6.2,-40.87 -9.78,-82.15 -11.24,-123.47 31.27,35.76 66.26,68.44 104.92,96.11 35.06,25.29 74.76,43.7 116.06,56.23 69.44,-28.07 138.71,-56.58 208.12,-84.69 4.99,-2.2 10.62,-3.56 14.6,-7.52 43.09,-42.45 86.58,-84.53 129.36,-127.26 -31.27,-22.68 -69.11,-33.79 -106.66,-40.69 -60.04,-10.64 -121.43,-10.97 -182.13,-7.37 -113.82,7.37 -226.37,29.67 -335.74,61.62 -49.8,14.72 -99.01,31.51 -147.16,50.95 -73.34,30.76 -142.29,70.9 -210.12,112.18 -39.91,24.63 -79.42,49.98 -118.13,76.52 -35.25,-37.13 -66.73,-78.1 -91.01,-123.29 -5.46,-9.77 -10.73,-19.63 -15.84,-29.57 -7.56,-1.72 -15.12,-3.3 -22.7,-4.85 -11.14,-19.78 -21.97,-39.82 -30.73,-60.79 -7.77,-19.22 -14.85,-38.71 -22.25,-58.09 -5.86,-2.15 -11.72,-4.31 -17.63,-6.41 -17.05,-43.93 -27.65,-89.94 -37.82,-135.86 -5.41,-1.34 -10.83,-2.63 -16.24,-4 -8.27,-27.97 -15.5,-56.27 -20.94,-84.93 -8.73,-48.17 -14.62,-96.8 -23.54,-144.95 -7.23,-39.06 -17.59,-77.51 -30.02,-115.23 -7.16,-21.36 -13.78,-43.09 -25.03,-62.73 -23.62,-42.26 -55.81,-79.01 -90.28,-112.73 39.49,-16.6 79.99,-30.66 120.84,-43.47zm614.85 121.07c144.13,-7.65 288.74,-2.85 432.37,10.67 80.46,7.79 160.75,18.25 240.08,34 -7.14,34.99 -14.18,70.03 -21.6,104.97 -3.69,6.85 -10.59,11.37 -15.68,17.19 0.03,28.35 0.1,56.69 0,85.04 -0.49,25.22 -6.76,52.2 -25.71,70.12 -18.18,16.37 -33.93,35.13 -50.69,52.89 -6.93,7.32 -13.05,15.75 -21.97,20.81 -10.46,6.38 -23.1,7.98 -35.13,7.11 -99.74,-7.27 -200.66,-4.52 -299.06,14.18 -119.33,22.25 -232.91,69.6 -336.8,131.76 -20.86,-17.61 -41.15,-35.88 -61.14,-54.46 -1.86,-1.91 -4.29,-3.72 -4.24,-6.69 -10.55,-85.05 -22.79,-169.86 -35.35,-254.62 -0.47,-3.11 -0.98,-6.53 -3.88,-8.34 -6.71,-6.05 -14.34,-11 -21.29,-16.76 -1.71,-1.37 -2.77,-3.13 -3.15,-5.32 -15.26,-52.94 -30.75,-105.8 -46.06,-158.73 101.09,-26.11 205.28,-38 309.3,-43.82zm16.84 27.11l0 0c3.43,24.32 6.52,48.69 9.91,73.01 5.23,-0.21 10.5,-0.54 15.75,-0.92 -5.56,47.42 -11.14,94.84 -17.05,142.22 -9.86,-71.06 -18.38,-142.31 -28.02,-213.4 -30.2,2.33 -60.48,4.27 -90.58,8.1 -11.09,79.02 -19.68,158.37 -29.99,237.51 -4.64,-51.21 -10.69,-102.31 -16.98,-153.35 5.63,-1.11 11.28,-2.26 16.93,-3.32 2.14,-25.97 4.47,-51.95 6.31,-77.96 -51.26,6.8 -102.24,15.68 -152.86,26.25 10.29,37.48 20.96,74.83 31.25,112.31 8.8,-2.33 17.65,-4.59 26.44,-7.06 12.57,86.6 22.37,173.6 32.8,260.49 35.55,-16.44 72.12,-30.52 109.01,-43.63 6.79,-57.03 13.24,-114.08 19.92,-171.11 0.29,-2.21 0.57,-4.52 2.15,-6.24 0.63,6.9 0.54,13.87 1.53,20.77 5.81,47.65 11.35,95.36 17.99,142.92 39.25,-12.22 79.13,-22.32 119.14,-31.9 8.64,-82.18 17.87,-164.31 26.28,-246.51 6.35,-0.21 12.69,-0.63 19.04,-0.75 2.97,-23.92 5.98,-47.82 8.97,-71.74 -42.66,0.58 -85.35,1.57 -127.94,4.31zm136.21 -3.79l0 0c-0.35,24.11 4.85,47.91 4.21,72.02 5.47,-0.16 10.95,-0.52 16.44,-0.82 0.75,54.27 0.61,108.54 0.59,162.82 -5.47,0.73 -10.93,1.46 -16.37,2.19 -3.01,24.67 -5.67,49.39 -8.62,74.07 32.92,-5.7 65.96,-10.64 99.13,-14.71 0.05,-29.06 -0.02,-58.14 0.05,-87.2 21.66,26.12 40.66,54.35 62.84,80.06 28.92,-2.12 57.93,-2.71 86.86,-4.24 -3.62,-21 -7.65,-41.93 -11.58,-62.87 -8.29,0.15 -16.53,0.73 -24.79,0.83 -19.69,-23.38 -39.16,-46.95 -59.48,-69.77 18.32,-26.51 38.52,-51.66 57.64,-77.56 7.68,0.64 15.4,0.71 23.12,0.62 2.14,-21.53 4.1,-43.07 6.29,-64.59 -26.33,-2.47 -52.79,-3.2 -79.12,-5.39 -20.81,32.54 -41.6,65.1 -61.87,98 0.14,-33.63 0,-67.28 0.07,-100.9 -31.79,-1.36 -63.6,-1.72 -95.41,-2.56zm244.59 11.13l0 0c1.56,22.02 3.7,44.01 5.21,66.02 6.61,0.57 13.23,1.09 19.87,1.37 -0.07,49.99 0.02,99.98 -0.05,149.99 -0.19,13.87 1.16,29 10.55,40.02 10.13,12.51 26.98,16.2 42.31,16.44 24.73,0.02 49.45,0.63 74.12,2 15.07,1.25 32.14,-0.42 43.33,-11.77 12.85,-11.73 15.49,-30.07 16.27,-46.58 0.12,-38.92 -0.02,-77.86 0.07,-116.81 6.83,0.83 13.7,1.53 20.58,2.33 5.08,-25 10.71,-49.91 15.63,-74.97 -37.79,-4.45 -75.44,-10.21 -113.32,-13.96 -0.07,66.47 0.02,132.94 -0.05,199.39 -10.88,-0.52 -21.52,-3.2 -32.4,-3.39 0.12,-66.59 -0.02,-133.15 0.07,-199.72 -34.05,-3.72 -68.09,-7.16 -102.19,-10.36zm-922.85 -143.84l0 0c-47.73,12.71 -95.27,26.82 -140.57,46.69 33.51,26.14 54.7,64.28 72.73,101.96 17.07,36.99 30.78,75.72 37.89,115.91 8.38,44.62 14.9,89.57 22.04,134.42 6.02,38.34 16.39,75.92 30.28,112.13 4.02,6.97 12.19,10.08 18.62,14.41 44.88,24.93 93.57,41.77 141.51,59.69 -25.57,0.92 -51.23,0.07 -76.54,-3.89 -16.67,-2.78 -33.06,-6.97 -49.52,-10.76 5.25,30.61 16.1,59.88 27.45,88.68 22.21,3.29 44.6,5.25 67.04,5.67 61.57,2.05 123.38,-0.4 184.43,-8.88 -37.58,18.04 -77.61,31.15 -118.67,38.41 -33.79,5.29 -67.86,9.67 -102.14,9.65 9.94,24.18 17,49.54 29.03,72.85 50.3,-4.12 99.98,-13.96 148.88,-26.18 68.71,-17.87 136.94,-39.56 200.28,-72 -19.17,19.94 -42.29,35.6 -65.6,50.27 -74.31,44.97 -159.14,68.82 -243.93,84.48 3.44,8.26 7.16,16.46 11.8,24.16 13.91,22.83 28.23,45.6 45.79,65.85 83.87,-51.12 170.66,-97.48 260.06,-138.16 90,-40.15 183.92,-71.18 279.66,-94.3 110.57,-26.21 224.11,-42.81 337.95,-40.1 55.76,1.93 111.98,8.36 164.96,26.6 33.27,11.82 65.98,28.45 90.35,54.54 43.72,-7.19 87.33,-14.95 131.03,-22.35 24.46,20.82 53.64,35.96 84.62,44.38 6.86,-73.34 -1.22,-147.91 -22.06,-218.52 -23.78,-80.41 -64.25,-155.43 -115.73,-221.45 -95.83,-122.25 -227.52,-216.81 -375.17,-265.65 -214.98,-74.02 -444.74,-100.37 -671.32,-89.33 -136.61,6.88 -272.73,26.42 -405.15,60.82zm1366.64 746.24l0 0c-8.4,0.84 -13.18,8.47 -19.09,13.51 -43.07,40.05 -85.45,80.91 -128.89,120.49 -60.4,26.82 -121.55,52.08 -182.13,78.52 13.75,3.06 27.88,3.89 41.91,4.83 27.46,1.48 55.24,2.85 82.48,-1.79 4.27,-0.35 7.66,-3.06 10.88,-5.6 20.53,-16.49 41.3,-32.64 61.88,-49.05 3.23,-3.34 8.08,-2.43 12.27,-2.8 29.97,-1.09 61.29,-5.94 86.55,-23.17 20.98,-14.72 40.62,-32.35 53.52,-54.77 8.78,-15.12 13.73,-32.09 16.93,-49.19 31.06,-7.58 62.07,-15.28 93.15,-22.74 15.92,17.49 39.93,25.36 63.03,26.44 15.59,0.19 33.08,-4.31 42.57,-17.66 -37.48,-3.77 -71.27,-22.65 -101.9,-43.21 -44.51,8.03 -88.73,17.66 -133.16,26.19zm96.05 71.95l0 0c-8.81,36.85 -26.96,72.1 -54.94,98.05 -29.54,27.57 -70.59,40.33 -110.45,40.87 -3.04,0.14 -5.79,1.46 -8.55,2.59 -20.27,8.97 -41.01,16.91 -61.9,24.37 -25.15,7.89 -51.33,12.06 -77.51,14.44 -51.12,4.09 -103.08,2.8 -153.24,-8.57 -73.11,-16.49 -143.44,-53.22 -192.37,-110.86 9.14,45.21 20.09,90.42 38.08,133.01 2.14,3.94 3.13,9.12 6.99,11.8 66.33,33.06 140.01,47.8 213.26,55.29 73.2,9.06 147.67,-4.38 216.43,-29.67 -27.76,22.3 -60.63,37.79 -94.89,47.14 -42.67,11.72 -87.45,11.27 -131.25,8.33 -56.08,-4.26 -111.56,-15.8 -164.79,-33.9 9.44,22.15 18.86,44.36 30,65.74 51.09,17.11 104.91,24.67 158.62,27.03 48.46,1.9 97.74,-0.24 144.72,-13.26 -29.34,20.11 -64.54,30.21 -99.6,34.14 -56.75,5.18 -114.65,2.83 -169.86,-12.15 12.57,20.37 23.12,41.89 35.55,62.35 12.25,2.85 24.65,4.92 37.18,6.17 49.38,5.11 99.41,3.77 148.46,-3.91 43.91,-7.04 87.28,-19.75 126.51,-40.99 18.15,-9.42 34.33,-21.99 51.21,-33.41 34.14,-24.47 66.4,-51.92 94.04,-83.61 -4.54,-4.41 -9.53,-8.65 -12.22,-14.49 -12.67,-28.79 3.56,-67.55 35.04,-75.23 -4.22,-24.62 12.43,-48.81 34.47,-58.62 -12.83,-25.46 2.17,-58.8 27.41,-70.24 -6.86,-10.62 -4.5,-23.59 0.99,-34.21 -12.27,-4.62 -24.68,-9.8 -34.12,-19.22 -11.02,3.94 -22.23,7.23 -33.27,11.02zm120.55 -3.69l0 0c-6.05,1.74 -11.96,4.68 -16.01,9.6 -8.12,9.77 -6.1,25.76 4,33.42 9.4,8.97 23.17,6.8 34.99,7.74 9.28,0.1 18.7,2.14 27.9,0.4 15.64,-4.75 21.9,-23.64 19.05,-38.43 -2.05,-9.44 -12.01,-14.52 -21.09,-13.84 -16.25,0.38 -32.85,-2.8 -48.84,1.11zm-37.39 70.99l0 0c-10.22,3.62 -18.55,13.07 -18.74,24.25 -0.78,13.4 11.86,23.85 24.46,24.84 18.04,1.55 36.17,2.28 54.25,2.61 15.87,-1.83 21.52,-20.39 20.02,-34.07 -0.71,-9.3 -8.69,-16.86 -17.8,-17.77 -13.29,-1.23 -26.68,-0.9 -39.92,-2.59 -7.51,-1.18 -15.23,-0.03 -22.27,2.73zm-24.25 69.79l0 0c-6.85,1.36 -13.73,4.07 -18.56,9.27 -8.68,9.49 -7.6,25.93 2.31,34.17 9.47,8.73 23.17,6.47 34.92,7.7 10.05,0.12 20.15,2.66 30.16,1.32 14.53,-4.97 20.46,-22.84 17.12,-36.83 -2.17,-8.43 -10.76,-13.33 -19,-13.8 -15.61,-1.2 -31.34,-4.02 -46.95,-1.83zm-43.99 64.42l0 0c-18.17,1.32 -27.29,27.15 -14.26,39.72 7.74,9.51 20.93,7.7 31.76,9.94 11.04,2.66 23.92,-2.66 27.97,-13.71 4.15,-9.44 5.39,-23.83 -5.04,-29.59 -12.57,-5.56 -26.7,-9.05 -40.43,-6.36z"/>
   <path class="fil2" d="M549.91 78.97c280.01,-31.71 568.33,-4.96 834.04,90.94 147.19,53.02 284.1,139.55 386.86,258.41 58.56,67.58 105.04,145.82 134.77,230.21 29.55,82.79 41.56,171.15 39.8,258.84 7.91,3.62 17.44,3.44 26.01,5.53 -4.49,15.94 -9.2,31.81 -13.51,47.82 20.58,10.72 37.11,30.64 40.95,53.88 2.94,16.97 -0.12,34.26 -3.96,50.86 -3.34,14.12 -10.01,28.04 -21.94,36.82 4.14,31.53 -14.42,61.36 -38.6,80.03 3.51,25.13 -8.14,50.39 -26.2,67.46 -10.79,11.09 -25.53,16.79 -40.12,20.89 -7.8,20.91 -22.21,39.22 -41.63,50.43 2.35,18.63 -2.99,38.41 -16.25,52.02 -14.6,16.2 -38.26,23.31 -59.43,18.22 -11.11,-2.1 -20.74,-8.41 -29.38,-15.4 -59.74,54.98 -131.48,96.99 -209.07,121.1 -56.72,17.84 -116.22,26.53 -175.65,26.7 -43.82,-0.12 -87.94,-3.82 -130.35,-15.35 -23.57,-38.08 -43.72,-78.11 -63.95,-117.99 -5.72,-5.7 -14.71,-6.85 -21.76,-10.67 -13.42,-31.74 -27.47,-63.27 -39.15,-95.67 -7.73,-5.6 -17.9,-6.8 -26.14,-11.6 -2.59,-2.45 -3.18,-6.24 -4.52,-9.37 -17.47,-52.79 -32.85,-106.57 -40.03,-161.83 -5.37,-44.48 -8.85,-89.43 -7.25,-134.24 -49.07,14.29 -97.01,32.21 -144.55,50.88 -73.58,30.52 -142.5,70.95 -210.4,112.32 -47.78,29.48 -94.84,60.16 -140.81,92.41 -28.09,-27.9 -54.58,-57.5 -78.1,-89.38 -18.86,-25.05 -34.56,-52.27 -49.4,-79.84 -7.2,-1.55 -14.43,-3.06 -21.66,-4.5 -12.05,-20.51 -23.14,-41.56 -33.69,-62.86 -9.77,-19.41 -16.63,-40.08 -24.61,-60.23 -5.84,-2.24 -11.7,-4.36 -17.59,-6.36 -16.71,-43.52 -30.42,-88.2 -40.12,-133.81 -5.91,-1.7 -11.89,-3.11 -17.92,-4.34 -12.55,-47.72 -23.45,-95.99 -30.86,-144.8 -6.24,-38.62 -11.35,-77.4 -18.77,-115.8 -9,-46.6 -22.72,-92.18 -38.78,-136.82 -13.78,-35.2 -37.42,-65.41 -62.04,-93.67 -22.54,-26.11 -48.86,-48.5 -74.15,-71.81 14.46,-7.37 29.67,-13.12 44.6,-19.45 161.64,-65.48 331.78,-111.09 505.31,-129.98zm1095.89 874.38c44.43,-8.53 88.65,-18.16 133.16,-26.19 30.63,20.56 64.42,39.44 101.9,43.21 -9.49,13.35 -26.98,17.85 -42.57,17.66 -23.1,-1.08 -47.11,-8.95 -63.03,-26.44 -31.08,7.46 -62.09,15.16 -93.15,22.74 -3.2,17.1 -8.15,34.07 -16.93,49.19 -12.9,22.42 -32.54,40.05 -53.52,54.77 -25.26,17.23 -56.58,22.08 -86.55,23.17 -4.19,0.37 -9.04,-0.54 -12.27,2.8 -20.58,16.41 -41.35,32.56 -61.88,49.05 -3.22,2.54 -6.61,5.25 -10.88,5.6 -27.24,4.64 -55.02,3.27 -82.48,1.79 -14.03,-0.94 -28.16,-1.77 -41.91,-4.83 60.58,-26.44 121.73,-51.7 182.13,-78.52 43.44,-39.58 85.82,-80.44 128.89,-120.49 5.91,-5.04 10.69,-12.67 19.09,-13.51zm216.6 68.26c15.99,-3.91 32.59,-0.73 48.84,-1.11 9.08,-0.68 19.04,4.4 21.09,13.84 2.85,14.79 -3.41,33.68 -19.05,38.43 -9.2,1.74 -18.62,-0.3 -27.9,-0.4 -11.82,-0.94 -25.59,1.23 -34.99,-7.74 -10.1,-7.66 -12.12,-23.65 -4,-33.42 4.05,-4.92 9.96,-7.86 16.01,-9.6zm-37.39 70.99c7.04,-2.76 14.76,-3.91 22.27,-2.73 13.24,1.69 26.63,1.36 39.92,2.59 9.11,0.91 17.09,8.47 17.8,17.77 1.5,13.68 -4.15,32.24 -20.02,34.07 -18.08,-0.33 -36.21,-1.06 -54.25,-2.61 -12.6,-0.99 -25.24,-11.44 -24.46,-24.84 0.19,-11.18 8.52,-20.63 18.74,-24.25zm-24.25 69.79c15.61,-2.19 31.34,0.63 46.95,1.83 8.24,0.47 16.83,5.37 19,13.8 3.34,13.99 -2.59,31.86 -17.12,36.83 -10.01,1.34 -20.11,-1.2 -30.16,-1.32 -11.75,-1.23 -25.45,1.03 -34.92,-7.7 -9.91,-8.24 -10.99,-24.68 -2.31,-34.17 4.83,-5.2 11.71,-7.91 18.56,-9.27zm-43.99 64.42c13.73,-2.69 27.86,0.8 40.43,6.36 10.43,5.76 9.19,20.15 5.04,29.59 -4.05,11.05 -16.93,16.37 -27.97,13.71 -10.83,-2.24 -24.02,-0.43 -31.76,-9.94 -13.03,-12.57 -3.91,-38.4 14.26,-39.72zm-1567.25 -1031.38c-40.85,12.81 -81.35,26.87 -120.84,43.47 34.47,33.72 66.66,70.47 90.28,112.73 11.25,19.64 17.87,41.37 25.03,62.73 12.43,37.72 22.79,76.17 30.02,115.23 8.92,48.15 14.81,96.78 23.54,144.95 5.44,28.66 12.67,56.96 20.94,84.93 5.41,1.37 10.83,2.66 16.24,4 10.17,45.92 20.77,91.93 37.82,135.86 5.91,2.1 11.77,4.26 17.63,6.41 7.4,19.38 14.48,38.87 22.25,58.09 8.76,20.97 19.59,41.01 30.73,60.79 7.58,1.55 15.14,3.13 22.7,4.85 5.11,9.94 10.38,19.8 15.84,29.57 24.28,45.19 55.76,86.16 91.01,123.29 38.71,-26.54 78.22,-51.89 118.13,-76.52 67.83,-41.28 136.78,-81.42 210.12,-112.18 48.15,-19.44 97.36,-36.23 147.16,-50.95 109.37,-31.95 221.92,-54.25 335.74,-61.62 60.7,-3.6 122.09,-3.27 182.13,7.37 37.55,6.9 75.39,18.01 106.66,40.69 -42.78,42.73 -86.27,84.81 -129.36,127.26 -3.98,3.96 -9.61,5.32 -14.6,7.52 -69.41,28.11 -138.68,56.62 -208.12,84.69 -41.3,-12.53 -81,-30.94 -116.06,-56.23 -38.66,-27.67 -73.65,-60.35 -104.92,-96.11 1.46,41.32 5.04,82.6 11.24,123.47 7.95,45.3 21.02,89.55 34.44,133.48 8.83,3.65 17.71,7.18 26.61,10.67 11.02,32.75 23.9,64.8 38.03,96.33 6.71,2.89 13.65,5.22 20.22,8.52 19.4,38.9 37.91,78.55 60.77,115.63 8.22,3.09 17.22,3.72 25.83,5.35 103.11,14.85 210.78,0.49 305.46,-43.4 72.48,-33.43 136.03,-84.6 187,-145.77 17.97,2.47 37.39,7.32 54.54,-1.27 20.88,-9.3 31.45,-32.68 31.69,-54.63 15.73,2.78 32.35,-2.4 43.72,-13.61 15.54,-14.74 20.89,-37.84 17.26,-58.51 29.06,-9.82 42.81,-43.68 37.93,-72.38 24.18,-15.99 34.59,-49.51 24.96,-76.57 -7.41,-20.15 -29.01,-31.34 -49.75,-30.99 8.12,-11.2 13.47,-24.27 16.36,-37.76 -7.15,-1.39 -14.31,-2.85 -21.4,-4.45 8.05,-97.06 -4.75,-195.97 -38.38,-287.43 -27.62,-75.32 -69.48,-145.16 -121.49,-206.14 -59.93,-70.4 -132.94,-129.15 -212.65,-175.75 -72,-42.45 -150.03,-73.65 -229.8,-98.09 -140.67,-43.89 -287.1,-68.63 -434.23,-75.48 -228.94,-10.32 -459.52,20.29 -678.43,87.96zm866.63 767.64c6.97,8.22 14.81,15.64 22.72,22.96 23.17,21.66 46.41,43.44 72.14,62.09 31.72,23.5 67.11,41.7 104.05,55.47 3.39,0.92 7.11,3.16 10.64,1.32 62.99,-25.55 125.88,-51.35 188.91,-76.85 7.54,-2.92 12.32,-9.82 18.01,-15.17 24.4,-24.15 49.03,-48.01 73.47,-72.09 -12.88,-5.09 -26.42,-8.1 -39.89,-10.98 -52.72,-10.45 -106.73,-12 -160.3,-10.43 -97.83,3.7 -194.93,19.78 -289.75,43.68z"/>
   <path class="fil3" d="M821.21 343.61c42.59,-2.74 85.28,-3.73 127.94,-4.31 -2.99,23.92 -6,47.82 -8.97,71.74 -6.35,0.12 -12.69,0.54 -19.04,0.75 -8.41,82.2 -17.64,164.33 -26.28,246.51 -40.01,9.58 -79.89,19.68 -119.14,31.9 -6.64,-47.56 -12.18,-95.27 -17.99,-142.92 -0.99,-6.9 -0.9,-13.87 -1.53,-20.77 -1.58,1.72 -1.86,4.03 -2.15,6.24 -6.68,57.03 -13.13,114.08 -19.92,171.11 -36.89,13.11 -73.46,27.19 -109.01,43.63 -10.43,-86.89 -20.23,-173.89 -32.8,-260.49 -8.79,2.47 -17.64,4.73 -26.44,7.06 -10.29,-37.48 -20.96,-74.83 -31.25,-112.31 50.62,-10.57 101.6,-19.45 152.86,-26.25 -1.84,26.01 -4.17,51.99 -6.31,77.96 -5.65,1.06 -11.3,2.21 -16.93,3.32 6.29,51.04 12.34,102.14 16.98,153.35 10.31,-79.14 18.9,-158.49 29.99,-237.51 30.1,-3.83 60.38,-5.77 90.58,-8.1 9.64,71.09 18.16,142.34 28.02,213.4 5.91,-47.38 11.49,-94.8 17.05,-142.22 -5.25,0.38 -10.52,0.71 -15.75,0.92 -3.39,-24.32 -6.48,-48.69 -9.91,-73.01zm136.21 -3.79c31.81,0.84 63.62,1.2 95.41,2.56 -0.07,33.62 0.07,67.27 -0.07,100.9 20.27,-32.9 41.06,-65.46 61.87,-98 26.33,2.19 52.79,2.92 79.12,5.39 -2.19,21.52 -4.15,43.06 -6.29,64.59 -7.72,0.09 -15.44,0.02 -23.12,-0.62 -19.12,25.9 -39.32,51.05 -57.64,77.56 20.32,22.82 39.79,46.39 59.48,69.77 8.26,-0.1 16.5,-0.68 24.79,-0.83 3.93,20.94 7.96,41.87 11.58,62.87 -28.93,1.53 -57.94,2.12 -86.86,4.24 -22.18,-25.71 -41.18,-53.94 -62.84,-80.06 -0.07,29.06 0,58.14 -0.05,87.2 -33.17,4.07 -66.21,9.01 -99.13,14.71 2.95,-24.68 5.61,-49.4 8.62,-74.07 5.44,-0.73 10.9,-1.46 16.37,-2.19 0.02,-54.28 0.16,-108.55 -0.59,-162.82 -5.49,0.3 -10.97,0.66 -16.44,0.82 0.64,-24.11 -4.56,-47.91 -4.21,-72.02zm244.59 11.13c34.1,3.2 68.14,6.64 102.19,10.36 -0.09,66.57 0.05,133.13 -0.07,199.72 10.88,0.19 21.52,2.87 32.4,3.39 0.07,-66.45 -0.02,-132.92 0.05,-199.39 37.88,3.75 75.53,9.51 113.32,13.96 -4.92,25.06 -10.55,49.97 -15.63,74.97 -6.88,-0.8 -13.75,-1.5 -20.58,-2.33 -0.09,38.95 0.05,77.89 -0.07,116.81 -0.78,16.51 -3.42,34.85 -16.27,46.58 -11.19,11.35 -28.26,13.02 -43.33,11.77 -24.67,-1.37 -49.39,-1.98 -74.12,-2 -15.33,-0.24 -32.18,-3.93 -42.31,-16.44 -9.39,-11.02 -10.74,-26.15 -10.55,-40.02 0.07,-50.01 -0.02,-100 0.05,-149.99 -6.64,-0.28 -13.26,-0.8 -19.87,-1.37 -1.51,-22.01 -3.65,-44 -5.21,-66.02z"/>
  </g>
 </g>
</svg>
