<?xml version="1.0" encoding="UTF-8"?>
<!DOCTYPE svg PUBLIC "-//W3C//DTD SVG 1.1//EN" "http://www.w3.org/Graphics/SVG/1.1/DTD/svg11.dtd">
<!-- Creator: CorelDRAW -->
<svg xmlns="http://www.w3.org/2000/svg" xml:space="preserve" width="2000px" height="1600px" version="1.1" style="shape-rendering:geometricPrecision; text-rendering:geometricPrecision; image-rendering:optimizeQuality; fill-rule:evenodd; clip-rule:evenodd"
viewBox="0 0 2000 1600"
 xmlns:xlink="http://www.w3.org/1999/xlink">
 <defs>
  <style type="text/css">
   <![CDATA[
    .fil2 {fill:#A90633;fill-rule:nonzero}
    .fil1 {fill:#FCB829;fill-rule:nonzero}
    .fil0 {fill:#FEFEFE;fill-rule:nonzero}
   ]]>
  </style>
 </defs>
 <g id="Capa_x0020_1">
  <metadata id="CorelCorpID_0Corel-Layer"/>
  <g id="Winthrop_x0020_Eagles.cdr">
   <path class="fil0" d="M363.01 525.5c26.93,-91.38 57.97,-181.81 97.81,-268.42 111.82,27.71 226.87,41.66 342.01,43.03 56.18,1.84 112.36,-0.6 168.54,-0.05 80.19,1.29 161.3,8.24 238.17,32.48 38.11,12.68 75.89,29.66 105.75,57.09 13.41,12.21 24.81,29.27 23.08,48.17 -1.59,18.9 -16.62,33.16 -32.18,42.13 -33.8,18.74 -74.01,20.95 -111.79,17.91 -42.88,-3.78 -88.74,-14.41 -119.95,-46.12 -14.08,20.95 -25.05,46.72 -19.19,72.33 5.01,23.57 23.57,41.77 44.54,52.22 33.94,16.8 73.27,18.84 110.26,13.92 64.45,-9.13 124.23,-40.21 173.75,-81.74 23.6,-19.11 43.71,-41.9 63.39,-64.89 -11.85,32.01 -24.68,63.67 -36.79,95.58 79.49,12.89 156.62,49.28 211.27,109.33 32.77,35.67 56.88,79.59 67.48,126.95 10.34,47.16 6.69,97.66 -12.44,142.15 -18.2,43.32 -49.96,79.98 -87.43,107.93 -29.03,-39.8 -66.1,-73.89 -108.96,-98.28 -75.28,-43.17 -164.29,-56.05 -249.94,-51.96 -116.77,5.78 -230.37,38.45 -339.1,79.77 -152.44,58.8 -296.64,136.91 -435.94,221.82 4.2,-92.37 10.32,-184.92 26.39,-276.1 -38.42,7 -76.66,15.06 -114.3,25.45 23,-141.7 60.33,-280.76 106.14,-416.69 -36.84,5.44 -73.73,10.42 -110.57,15.99z"/>
   <path class="fil1" d="M331.64 0c149.3,38.11 301.9,63.57 455.55,75.24 73.61,5.47 147.47,7.15 221.2,3.47 106.21,-3.01 214.19,12.42 312.35,54.39 87.42,37.36 167.81,97.74 216.06,180.93 -9.52,14.86 -19.32,29.53 -29.14,44.18 86.35,2.95 172.43,32.02 239.83,86.72 72.41,57.76 122.34,140.62 147.26,229.26 30.46,108.34 25.66,227.05 -17.22,331.42 -29.11,71.32 -77.07,135.13 -138.77,181.43 -69.9,53.15 -155.5,82.8 -242.17,93.12 -17.24,-44.74 -42.44,-87.57 -79.05,-119.18 -35.41,-31.21 -80.89,-49.49 -127.34,-55.97 -56.31,-7.75 -113.58,-1.22 -168.75,11.15 -99.27,22.79 -193.53,62.94 -284.66,107.69 -179.53,89.76 -348.15,199.6 -512.52,314.37 -29.65,20.17 -58.09,42.23 -88.12,61.78 -8.19,-110.49 -13.63,-221.37 -9.74,-332.18 1.86,-61.52 5.75,-122.99 10.34,-184.38 -41.51,12.52 -82.75,25.98 -123.43,40.94 15.38,-156.64 45.79,-311.68 88.15,-463.18 -38.89,5.8 -77.6,13.06 -115.73,22.76 26.49,-127.42 65.17,-252.05 109.58,-374.31 39.12,-105.83 82.63,-210.33 136.32,-309.65zm61.75 132.63l0 0c-35.02,68.6 -64.45,139.95 -90.97,212.23 -26.21,72.07 -49.26,145.31 -68.24,219.61 37.54,-6.9 75.06,-14.13 112.7,-20.51 -44.95,144.12 -80.03,291.3 -105.7,440.03 41.2,-12.31 82.6,-24.03 124.39,-34.17 -12.54,78.3 -19.78,157.34 -24.68,236.47 -4.09,68.57 -6.12,137.24 -5.29,205.92 164.84,-112.51 335.71,-217.8 518.61,-298.53 95.04,-41.37 193.64,-76.43 296.12,-93.74 62.35,-10.19 126.57,-13.72 189,-2.08 48.76,9 96.31,28.36 134.7,60.2 31.99,26.11 56.57,60.41 73.58,97.89 65.93,-18.53 127.84,-54.08 173.46,-105.61 57.45,-63.91 87.68,-150.5 85.74,-236.13 -0.86,-96.16 -41.59,-191.46 -111.07,-258.01 -66.16,-65.12 -156.61,-101.19 -247.97,-111.66 9.33,-11.61 17.91,-23.77 26.78,-35.72 -31.99,-59.27 -81.82,-107.98 -139.35,-142.46 -76.24,-45.61 -164.6,-67.15 -252.48,-74.36 -55.2,-5.08 -110.63,-1.45 -165.92,-2.1 -90.12,0.21 -180.37,-3.96 -269.83,-15.01 -85.12,-10.39 -169.35,-26.47 -253.58,-42.26z"/>
   <path class="fil2" d="M393.39 132.63c84.23,15.79 168.46,31.87 253.58,42.26 89.46,11.05 179.71,15.22 269.83,15.01 55.29,0.65 110.72,-2.98 165.92,2.1 87.88,7.21 176.24,28.75 252.48,74.36 57.53,34.48 107.36,83.19 139.35,142.46 -8.87,11.95 -17.45,24.11 -26.78,35.72 91.36,10.47 181.81,46.54 247.97,111.66 69.48,66.55 110.21,161.85 111.07,258.01 1.94,85.63 -28.29,172.22 -85.74,236.13 -45.62,51.53 -107.53,87.08 -173.46,105.61 -17.01,-37.48 -41.59,-71.78 -73.58,-97.89 -38.39,-31.84 -85.94,-51.2 -134.7,-60.2 -62.43,-11.64 -126.65,-8.11 -189,2.08 -102.48,17.31 -201.08,52.37 -296.12,93.74 -182.9,80.73 -353.77,186.02 -518.61,298.53 -0.83,-68.68 1.2,-137.35 5.29,-205.92 4.9,-79.13 12.14,-158.17 24.68,-236.47 -41.79,10.14 -83.19,21.86 -124.39,34.17 25.67,-148.73 60.75,-295.91 105.7,-440.03 -37.64,6.38 -75.16,13.61 -112.7,20.51 18.98,-74.3 42.03,-147.54 68.24,-219.61 26.52,-72.28 55.95,-143.63 90.97,-212.23zm-30.38 392.87l0 0c36.84,-5.57 73.73,-10.55 110.57,-15.99 -45.81,135.93 -83.14,274.99 -106.14,416.69 37.64,-10.39 75.88,-18.45 114.3,-25.45 -16.07,91.18 -22.19,183.73 -26.39,276.1 139.3,-84.91 283.5,-163.02 435.94,-221.82 108.73,-41.32 222.33,-73.99 339.1,-79.77 85.65,-4.09 174.66,8.79 249.94,51.96 42.86,24.39 79.93,58.48 108.96,98.28 37.47,-27.95 69.23,-64.61 87.43,-107.93 19.13,-44.49 22.78,-94.99 12.44,-142.15 -10.6,-47.36 -34.71,-91.28 -67.48,-126.95 -54.65,-60.05 -131.78,-96.44 -211.27,-109.33 12.11,-31.91 24.94,-63.57 36.79,-95.58 -19.68,22.99 -39.79,45.78 -63.39,64.89 -49.52,41.53 -109.3,72.61 -173.75,81.74 -36.99,4.92 -76.32,2.88 -110.26,-13.92 -20.97,-10.45 -39.53,-28.65 -44.54,-52.22 -5.86,-25.61 5.11,-51.38 19.19,-72.33 31.21,31.71 77.07,42.34 119.95,46.12 37.78,3.04 77.99,0.83 111.79,-17.91 15.56,-8.97 30.59,-23.23 32.18,-42.13 1.73,-18.9 -9.67,-35.96 -23.08,-48.17 -29.86,-27.43 -67.64,-44.41 -105.75,-57.09 -76.87,-24.24 -157.98,-31.19 -238.17,-32.48 -56.18,-0.55 -112.36,1.89 -168.54,0.05 -115.14,-1.37 -230.19,-15.32 -342.01,-43.03 -39.84,86.61 -70.88,177.04 -97.81,268.42z"/>
  </g>
 </g>
</svg>
