<?xml version="1.0" encoding="UTF-8"?>
<!DOCTYPE svg PUBLIC "-//W3C//DTD SVG 1.1//EN" "http://www.w3.org/Graphics/SVG/1.1/DTD/svg11.dtd">
<!-- Creator: CorelDRAW -->
<svg xmlns="http://www.w3.org/2000/svg" xml:space="preserve" width="2000px" height="1600px" version="1.1" style="shape-rendering:geometricPrecision; text-rendering:geometricPrecision; image-rendering:optimizeQuality; fill-rule:evenodd; clip-rule:evenodd"
viewBox="0 0 2000 1600"
 xmlns:xlink="http://www.w3.org/1999/xlink">
 <defs>
  <style type="text/css">
   <![CDATA[
    .fil3 {fill:black}
    .fil2 {fill:#FEFEFE}
    .fil1 {fill:#767779;fill-rule:nonzero}
    .fil0 {fill:#FFC20E;fill-rule:nonzero}
   ]]>
  </style>
 </defs>
 <g id="Capa_x0020_1">
  <metadata id="CorelCorpID_0Corel-Layer"/>
  <g id="Wisconsin_x0020_Milwaukee_x0020_Panthers.cdr">
   <path class="fil0" d="M220.09 1111.46c-4.45,32.07 -9.72,64.03 -14.7,96.01l-1.44 9.29 -8.62 -3.77c-20.67,-9.05 -41.27,-18.29 -61.7,-27.87l-0.45 -0.21 -0.35 -0.22c-0.3,-0.17 -0.68,-0.31 -0.99,-0.46 -3.75,-1.68 -6.54,-4.26 -7.11,-8.46 -6.21,-28.69 -11.04,-57.84 -16.56,-86.68 -1.87,-9.82 -3.8,-19.65 -5.85,-29.44 0.78,32.97 0.8,65.97 0.43,98.95l-0.13 11.59 -10.36 -5.2c-29.82,-14.94 -59.24,-30.68 -88.32,-47.03l-3.94 -2.22 0.26 -4.52c4.93,-83.92 10.56,-169.68 17.43,-253l0.91 -11.03 9.74 5.25c33.18,17.88 67.06,34.4 101.25,50.26l3.29 1.53 0.75 3.56c8.54,40.89 17.3,81.73 25.78,122.64 2.24,-11.64 4.16,-23.35 5.98,-34.94 3.28,-20.88 6.15,-41.83 9.54,-62.7l1.48 -9.1 8.49 3.59c30.84,13.06 62.16,24.93 93.75,36.04l4.04 1.43 0.7 4.22c15.68,94.73 31.29,189.47 46.89,284.2l1.97 11.98 -11.47 -3.95c-28.23,-9.73 -56.23,-20.12 -83.98,-31.13l-4.04 -1.6 -0.49 -4.32c-4.24,-37.54 -8.09,-75.13 -12.18,-112.69zm1050.75 -687.46c34.56,8 69.87,13.48 105.41,13.46 -3.01,4.22 -6.69,8.41 -6.96,13.85 -34.16,-1.9 -68.79,-9.78 -98.45,-27.31zm645.48 580.06c-0.2,8.12 -0.66,16.24 -0.87,24.36 16.92,-0.79 33.86,-1.46 50.81,-1.22l7.27 0.11 -0.13 7.27c-0.41,22.35 -1.85,44.66 -2.12,67.01l-0.09 7.1 -7.1 0.06c-17.15,0.14 -34.3,0.82 -51.45,1.38 -0.74,9.38 -0.84,18.83 -1.03,28.25 19.11,-1.01 38.25,-1.36 57.38,-1.61l7.79 -0.1 -0.46 7.77c-1.48,24.93 -2.35,50.24 -2.72,74.41l-7.31 -0.18c-0.99,-0.03 -1.98,-0.05 -2.98,-0.07l-16.53 0.32c-40.42,0.79 -80.78,3.8 -120.95,8.31l-8.38 0.94 0.34 -8.42c3.73,-94.74 6.68,-189.5 10.47,-284.24l0.25 -6.28 6.25 -0.63c47.19,-4.81 94.61,-8 142.06,-7.53l7.45 0.08 -0.28 7.44c-0.85,22.43 -1.54,44.87 -2.38,67.31l-0.27 7.04 -7.04 -0.07c-19.33,-0.19 -38.68,0.15 -57.98,1.19zm-276.65 -46.98l5.81 -1.08c47.25,-8.79 94.76,-16.22 142.43,-22.37l8.38 -1.08 -0.21 8.44c-0.55,22.61 -1.57,45.21 -2.66,67.8l-0.29 6.06 -6.02 0.78c-19.74,2.53 -39.47,5.22 -59.15,8.24 -0.35,8.07 -0.59,16.15 -0.97,24.22 16.68,-2.44 33.36,-4.94 50.09,-7.05l8.47 -1.07 -0.32 8.52c-0.85,22.56 -1.6,45.12 -2.84,67.66l-0.32 5.9 -5.84 0.87c-17.53,2.6 -35.15,4.63 -52.61,7.67 -0.2,9.32 -0.68,18.62 -1.08,27.94 18.94,-2.9 37.92,-5.62 56.93,-8.1l8.6 -1.12 -0.43 8.66c-1.12,22.48 -1.88,44.97 -2.75,67.45l-0.23 6.1 -6.05 0.81c-47.52,6.29 -94.82,14.15 -141.92,23.06l-9.01 1.71 0.43 -9.16c4.44,-95.47 9.81,-194.98 11.56,-290.86zm-86.3 163.94c20.99,43.05 42.33,85.92 62.98,129.13l3.95 8.27 -8.96 1.93c-27.33,5.89 -54.63,11.94 -81.9,18.12l-6.12 1.39 -2.25 -5.86c-10.68,-27.92 -20.81,-56.05 -31.28,-84.05 -0.73,30.73 -1.45,61.46 -1.88,92.2l-0.08 5.69 -5.55 1.26c-25.57,5.85 -51.15,11.7 -76.8,17.2l-8.94 1.92 0.18 -9.14c1.84,-92.31 1.27,-192.77 6.77,-285.29l0.33 -5.59 5.5 -1.09c25.43,-5.01 50.68,-10.89 75.94,-16.67l9.12 -2.09 -0.26 9.35c-0.69,24.53 -1.09,49.06 -1.63,73.59 9.75,-28.45 19.27,-56.97 29.13,-85.39l1.33 -3.81 3.93 -0.88c26.89,-6.04 53.82,-11.9 80.74,-17.78l13.58 -2.96 -5.35 12.83c-20.59,49.34 -41.88,98.39 -62.48,147.72zm-193.36 140.38c-8.64,27.11 -27.26,51.04 -52.24,64.93 -23.52,13.07 -50.76,19.73 -77.67,18.63l-15.84 -0.65 1.1 -1.17c-5.45,-1.07 -10.68,-3.24 -15.83,-5.4l-9.93 -4.16 0.67 -0.67 -2.67 -2.24c-4.53,-3.82 -8.71,-8.04 -12.54,-12.56l-4.43 -5.24 5 -4.71c3.62,-3.41 7.33,-6.72 11.12,-9.93 -3.97,1.78 -7.89,3.64 -11.78,5.57l-6.97 3.47 -2.95 -7.21c-8.45,-20.6 -8.74,-42.77 -8.56,-64.7 0.47,-57.18 0.74,-114.38 0.41,-171.57l-0.04 -6.21 6.14 -0.98c27.06,-4.34 54.12,-8.67 81.06,-13.73l8.79 -1.65 -0.22 8.94c-1.39,58.56 -1.83,117.13 -2.81,175.7 -0.14,8.76 -1.59,20.36 2.68,28.36 4.16,5.48 14.44,0.94 17.58,-3.84 5.16,-8.68 4.45,-21.14 4.82,-30.78 0.99,-59.25 2.42,-118.49 3.44,-177.73l0.1 -5.79 5.67 -1.18c27.06,-5.62 54.04,-11.6 80.99,-17.68l9.07 -2.05 -0.23 9.3c-1.3,50.75 -2.86,101.5 -4.61,152.24 -0.98,28.59 0.27,57.23 -9.32,84.69zm-304.34 52.85c-13.33,0.3 -26.65,0.14 -39.98,0.05 -1.72,9.8 -3.12,19.65 -4.83,29.45l-1.05 6.03 -6.12 -0.04c-27.62,-0.16 -55.24,0.41 -82.85,-0.3l-8.88 -0.22 2.01 -8.66c21.25,-91.34 43.44,-182.47 64.56,-273.84l1.3 -5.63 5.77 0.02c32.06,0.05 64.11,0.07 96.16,-0.59l5.95 -0.13 1.28 5.82c1.93,8.83 4.33,17.56 6.68,26.3l1.27 4.75 -2.6 1.94 2.18 -0.69 2.06 7.14c1.93,6.69 3.76,13.42 5.13,20.25l0.6 2.98 1.04 3.76c1.82,6.65 3.47,13.35 5.12,20.04l0.37 1.53 0.91 3.54c15.27,59.69 29.77,119.57 45.04,179.26l2.12 8.26 -8.5 0.75c-27.23,2.41 -54.58,2.12 -81.88,3.32l-6.33 0.28 -1.12 -6.24c-1.73,-9.72 -3.59,-19.43 -5.41,-29.13zm-167.54 23.97c-0.09,0.43 -0.16,0.91 -0.24,1.34 -1.08,5.63 -5.07,9.69 -10.93,8.71 -24.33,-0.45 -48.66,-0.95 -72.93,-2.59l-5.56 -0.38 -1.06 -5.47c-4.76,-24.44 -9.79,-48.82 -14.6,-73.25 -2.62,-13.27 -5.45,-26.5 -7.94,-39.79 -4.41,36.51 -10.36,72.85 -14.92,109.35l-0.83 6.72 -6.77 -0.38c-27.11,-1.55 -54.2,-4.85 -81.24,-7.47 -9.01,-29.71 -14.88,-59.52 -22.16,-89.61 -15.94,-65.86 -31.9,-131.71 -47.6,-197.62l-2.47 -10.37 10.54 1.52c25.69,3.7 51.4,7.21 77.23,9.73l5.49 0.54 0.94 5.44c6.61,38.27 13.13,76.57 19.15,114.94 6.2,-36.63 12.88,-73.17 18.99,-109.81l1.07 -6.46 6.53 0.42c22.45,1.43 44.88,3.16 67.36,4.06l5.78 0.23 1.05 5.68c7.13,38.37 14.76,76.65 21.92,115.02 0.2,-1.51 0.41,-3.01 0.63,-4.5 5.39,-36.14 10.32,-72.33 15.62,-108.48l0.91 -6.19 6.26 0c25.25,0.02 50.53,1.44 75.76,0.05l9.28 -0.51 -1.77 9.12c-17.42,89.75 -35.56,179.35 -53.23,269.05l-0.12 0.59 -0.14 0.37zm-313.72 -96.11c17.56,2.72 35.08,5.76 52.7,8.09l6.38 0.84 -0.09 6.44c-0.29,21.65 0.81,43.31 0.53,64.97l-0.1 8.21 -8.14 -1.13c-46.45,-6.47 -92.57,-15.13 -138.4,-25.02l-5.59 -1.2 -0.12 -5.73c-1.08,-51.54 -1.14,-103.11 -2.2,-154.65l-0.12 -5.64 0.19 -0.05 -0.02 -2.44c-0.04,-6.99 -0.06,-13.99 0.06,-20.98l0.02 -0.98 -0.57 -0.04 -0.02 -6.78c-0.02,-7.01 -0.02,-14.03 0,-21.05l0.01 -4.21 -0.56 -0.17 0.06 -5.42c0.18,-16.93 -0.2,-33.86 -0.24,-50.79l-0.02 -9.13 8.9 2.06c26.11,6.04 52.47,10.87 78.87,15.44l5.96 1.04 0.04 6.05c0.4,58.6 1.36,117.2 2.07,175.8l0 0.17c-0.1,8.76 -0.08,17.55 0.4,26.3zm-136.1 50.89c-26.82,-6.41 -53.37,-13.86 -79.83,-21.62l-5.08 -1.48 -0.12 -5.3c-2.15,-90.76 -3.78,-181.53 -5.08,-272.31l-0.13 -9.8 9.41 2.75c26.3,7.67 52.82,14.59 79.39,21.27l5.39 1.35 0.09 5.56c1.37,90.81 3.51,181.61 4.89,272.42l0.14 9.33 -9.07 -2.17zm588.57 -51.58c5.18,0.07 10.37,0.01 15.55,0 -2.62,-17.22 -5.39,-34.42 -8.01,-51.63 -2.37,17.23 -4.9,34.44 -7.54,51.63zm-510.92 -910.96c90.39,-14.86 181.8,-23.13 273.33,-26.43 3.69,-0.12 7.39,0.18 11.06,0.71 -8.31,1.47 -16.78,1.8 -25.14,3.06 -64.97,4.46 -129.95,10.38 -194.31,20.66 -86.28,13.68 -171.98,33.51 -253.64,64.99 -49.41,19.28 -97.52,42.95 -140.23,74.67 -28.26,21.15 -54.16,46.07 -73.29,75.92 -20.61,31.7 -32.76,69.58 -30.83,107.57 2.08,30.28 16.64,58.37 35.71,81.48 23.11,27.77 52.08,50.08 82.58,69.16 40.02,24.89 83,44.6 126.99,61.3 31.03,11.84 62.69,21.8 94.43,31.47 15.73,5.25 31.84,9.18 48,12.84 27.24,6.75 54.62,13.1 82.21,18.35 40.21,8.04 80.72,14.62 121.34,20.28 46.74,6.21 93.67,11.17 140.71,14.63 20.2,0.98 40.42,3.77 60.67,2.85 5.97,0.82 11.97,1.47 18,1.69 102.93,4.08 206.11,2.45 308.76,-6.41 16.18,8.37 31.82,18.06 49.06,24.19 -60.83,5.17 -121.88,7.33 -182.88,8.28 -19.01,-0.53 -37.99,1.2 -56.96,0.14 -107.07,-0.42 -214.17,-6.14 -320.59,-17.89 -111.52,-12.6 -222.78,-31.39 -330.32,-64.05 -66.91,-20.8 -133.08,-46.72 -191.57,-85.87 -33.59,-22.64 -64.64,-50.29 -86.34,-84.83 -19.18,-29.99 -29.66,-65.6 -29.01,-101.25 -0.2,-46.72 17.45,-92.71 47.07,-128.62 26.36,-32.43 60.3,-57.88 96.36,-78.57 47.13,-26.87 98.08,-46.41 149.9,-62.05 55.35,-16.65 111.95,-28.75 168.93,-38.27z"/>
   <path class="fil1" d="M1502.9 684.29c12.04,2.14 24.31,3.93 36.51,1.89 -2.14,5.82 -4.69,11.5 -8.09,16.7 0.63,-7.93 -25.69,-17.15 -25.59,-7.82 -1.16,-3.54 -1.99,-7.15 -2.83,-10.77zm-43.48 224.65c-36.84,20.67 -80.41,25.92 -121.99,22.54 47.48,16.86 143.93,12.03 185.83,-17.97 -19.05,0.61 -37.99,-2.18 -56.72,-5.36 -2.42,-0.39 -5.02,-0.75 -7.12,0.79zm-192.31 -251c26.43,-10.28 54.93,-13.82 83.06,-15.65 -21.45,5.27 -43.46,10.46 -62.27,22.6 -15.8,9.61 -29.56,25.06 -31.56,44.07 -2.58,23.21 8.78,45 21.48,63.56 23.94,33.98 56.13,60.79 87.46,87.61 -22.25,-13.91 -42.53,-30.83 -62.5,-47.83 -23.17,-20.68 -45.79,-42.75 -62.01,-69.5 -9.04,-15.25 -16.27,-33.84 -10.77,-51.63 5.49,-16.76 21.52,-26.98 37.11,-33.23zm38.42 33.31c21.72,1.08 44.81,6.45 60.65,22.35 17.14,14.6 21.74,38.44 22.35,59.88 -0.04,11.3 3.89,23.43 13.48,30.15 12.5,8.8 28.68,9.53 43.4,8.08 -8.84,10.59 -20.93,19.85 -35.04,21.28 -16.83,1.75 -31.41,-9.51 -42.59,-20.75 -13.6,-13.96 -15.92,-34.1 -18.32,-52.5 -2.28,-18.63 -11.28,-36.71 -26.46,-48.13 -7.6,-5.09 -12.34,-13.03 -17.47,-20.36zm214.98 -139.31c-9.05,1.71 -18.09,3.46 -26.87,6.17 2.08,24.43 -13.01,46.13 -29.44,62.66 -1.22,1.04 -4.42,4.34 -0.79,4.5 60.59,11.48 152.15,22.57 201.87,-23.27 20.26,-18.57 30.26,-46.19 30.74,-73.31 22.5,-1.81 45.14,-0.27 67.7,-0.92 -20.46,-16.41 -42.88,-30.27 -63.32,-46.7 22.17,1.46 44.61,2.38 66.66,-0.75 7.47,-1.71 12.01,-9.41 18.65,-13.14 -62.44,-41.3 -99.13,-44.33 -162.08,-69.05 -15.09,-3.97 -30.58,-7.33 -46.17,-8.23 -22.24,3.71 -44.12,12.85 -60.69,28.46 -15.88,0.25 -31.76,0.09 -47.62,-0.04 11.56,-14.86 44.33,-42.47 59.16,-55.31 -13.54,4.42 -26.16,-4.26 -39.37,-5.64 -32.29,1.51 -69.57,20.89 -104.1,18.38 -64.09,-4.33 -127.6,-14.88 -190.69,-26.79 -32.15,-5.29 -62.95,-16.34 -94.67,-23.55 28.95,17.73 58.81,34.06 88.11,51.2 -7.53,6.05 -15.43,11.71 -23.49,17.06 -29.34,-11.59 -134.55,-48.22 -216.58,-59.99 -12.3,-1.32 -24.44,-2.11 -36.34,-2.27 -18.63,1.6 -9.54,5.74 -14.86,22.36 -11.15,0.26 -40.63,7.05 -44.1,19.38 -0.11,1.39 0.03,2.72 0.35,3.99 23.05,34.09 101.15,57.23 125.75,65.53 14.62,-8.75 29.57,-17 43.86,-26.32 -31.37,-9.82 -68.16,-13.41 -96.2,-23.09 98.12,-16.1 133.72,-25.81 234.54,2.79 -6.63,4.77 -5.54,4.61 -9.41,5.03 -19.58,2.14 -60.34,8.46 -77.47,17.59 27.83,6.21 55.05,15.02 81.34,25.98 36.43,-14.33 49.75,-19.68 91.85,-16.96 -10.48,-11.89 -21.48,-23.31 -32.22,-34.98 70.7,20.5 164.21,35.76 237.28,19.2 -13.62,11.93 -28.04,22.93 -41.6,34.94 38.79,-1.73 77.69,0.85 116.37,3.93 49.31,4.56 98.4,12.41 146.24,25.36 -7.9,29.18 -26.47,54.79 -49.64,73.84 -37.19,-22.11 -92.91,-46.23 -133.83,-58.61 -58.9,-17.82 -108.98,-34.87 -175.17,-32.21 -23.15,1.08 -47.13,4.99 -67.49,16.64 -0.87,0.42 -2.6,1.24 -3.46,1.67 -14.17,-3.57 -28.75,-6.48 -43.4,-6.64 11.07,9.55 22.07,20.09 27.73,33.86 1.05,3.21 -4.26,2.62 -5.97,3.8 -79.15,22.02 -172.16,46.66 -252.94,68.97 11.43,-62.05 46.85,-102.66 46.85,-102.66 -110.53,78.11 -106.37,194.63 5.54,287.22 -54.04,-67.59 -61.21,-132.84 -52.64,-183.12l308.24 -72.61c16.64,1.56 28.92,2.74 39.56,3.82l0.32 -0.07c15.07,1.57 29.16,3.21 42.16,4.85l-324.22 93.61 366.16 -87.81c17.57,2.84 25.94,4.2 33.35,5.49 24.08,4.42 0,0 24.08,4.42l-316.12 101.96 337.85 -84.45c13.58,-0.41 27.13,2.46 40.65,3.83zm236.94 -6.58c-10.81,36.2 -35.81,65.6 -58.94,94.61 57.52,10.99 66.46,-52.54 58.94,-94.61zm-1429.26 318.19c31.61,-249.1 261.06,-393.17 471.04,-464.36 -239.72,30.36 -487.15,184.04 -598.03,403.06 40.02,24.89 83,44.6 126.99,61.3zm224.64 62.66c-56.6,-165.04 -14.44,-312.41 93.36,-441.52 -115.13,75.07 -228.73,270.53 -223.57,410.33 15.73,5.25 31.84,9.18 48,12.84 27.24,6.75 54.62,13.1 82.21,18.35zm322.72 37.76c-190.47,-53.68 -272.63,-160.8 -255.39,-364.74 -48.36,102.37 -11.87,257.49 54.01,347.26 46.74,6.21 93.67,11.17 140.71,14.63 20.2,0.98 40.42,3.77 60.67,2.85zm755.04 -279.36c12.12,-0.02 24.17,-1.65 36.1,-3.72 -2.42,10.99 -10.2,19.36 -17.24,27.67 -1.44,-3.71 -6.13,-13.27 -19.14,-11.65 0.08,-4.11 0.18,-8.2 0.28,-12.3z"/>
   <path class="fil2" d="M1479.94 860.72c10.44,-12.04 18.65,-25.94 25.41,-40.33 -22.64,17.12 -49.01,28.48 -75.68,37.68 5.44,9.91 17.47,13.42 28,14.47 9.16,1.29 16.59,-5.57 22.27,-11.82zm9.53 -369.34c-3.6,4.7 -7.22,9.67 -8.49,11.74 -68.02,-17.26 -167.94,-41.49 -237.67,-25.65 0.86,-0.43 2.59,-1.25 3.46,-1.67 20.36,-11.65 44.34,-15.56 67.49,-16.64 66.19,-2.66 116.27,14.39 175.17,32.21l0.04 0.01zm274.36 -10.63c-40.64,-31.24 -90.44,-45.64 -142.19,-52.35 0.24,-5.67 1.22,-18.24 2.08,-30.23 62.89,24.68 99.58,27.73 161.99,69.01 -6.64,3.73 -11.18,11.43 -18.65,13.14 -1.07,0.16 -2.15,0.3 -3.23,0.43zm-911.61 -107.6c3.47,-12.33 32.95,-19.12 44.1,-19.38 5.32,-16.62 -3.77,-20.76 14.86,-22.36 11.9,0.16 24.04,0.95 36.34,2.27 -46.86,-6.72 -86.16,-5.34 -99.43,13.47 -3.97,10.75 -1.76,20.77 4.48,29.99 -0.32,-1.27 -0.46,-2.6 -0.35,-3.99zm296.52 216.12c92.76,-20.39 192.3,-42.49 285.31,-63.09 -7.41,-1.29 -15.78,-2.65 -33.35,-5.49l-366.16 87.81c-19.12,5.28 -46.9,12.25 -69.03,18.01 0.05,0.85 0.1,1.71 0.16,2.57 58.42,-12.4 126.36,-27.57 183.07,-39.81zm-211.7 44.78l-63.54 15.14 63.77 -13.88c-0.08,-0.42 -0.16,-0.84 -0.23,-1.26zm-1.07 -41.43c0.27,-2.1 0.58,-4.2 0.95,-6.29l-90.74 25.44 89.79 -19.15zm16.8 87.67c-8.11,1.73 -16.21,3.51 -24.06,6.18 8.17,-1.63 16.23,-3.87 24.4,-5.51 -0.12,-0.22 -0.23,-0.45 -0.34,-0.67zm14.58 -94.37l348.93 -75.81c-10.64,-1.08 -22.92,-2.26 -39.56,-3.82l-308.24 72.61c-0.41,2.31 -0.79,4.65 -1.13,7.02zm6.96 90.01c173.1,-39.26 346.37,-77.89 519.33,-117.82 8.78,-2.71 17.82,-4.46 26.87,-6.17 -13.52,-1.37 -27.07,-4.24 -40.65,-3.83l-337.85 84.45c-55.99,14.19 -112.03,28.17 -168.02,42.36 8.28,27.72 23.1,57.04 47.13,87.1 -23.74,-29.7 -38.46,-58.67 -46.81,-86.09zm656 20.98c-1.63,11.5 -6.09,22.42 -12.5,32.07 4.09,-2.06 29.07,-17.84 31.64,-20.42 -1.44,-3.71 -6.13,-13.27 -19.14,-11.65zm-128.79 39.15c8.55,-6.38 29.59,-30.56 29.8,-33.18 0.63,-7.93 -25.69,-17.15 -25.59,-7.82 0,-0.41 3.89,20.85 -4.21,41zm10.55 127.32c8.2,8 18.95,13.05 29.8,16.33 19.36,-10.91 28.79,-33.08 34.89,-53.46 -24.78,16.25 -32.62,27.67 -64.69,37.13z"/>
   <path class="fil3" d="M323.14 1254.35c-15.61,-94.73 -31.21,-189.46 -46.9,-284.19 -31.72,-11.17 -63.19,-23.1 -94.16,-36.21 -6.61,40.68 -12.56,91.82 -23.01,130.82 -10.52,-51.91 -21.7,-103.67 -32.53,-155.5 -34.32,-15.92 -68.34,-32.51 -101.63,-50.45 -1.77,21.46 -2.83,42.98 -4.68,64.42 11.5,12.29 23.07,24.49 33.86,37.4 -11.96,-9.23 -22.3,-20.47 -34.25,-29.79 -0.24,7.15 -1.54,14.33 -1.12,21.48 15.92,15.41 31.88,30.88 46.3,47.68 -5.23,-2.79 -9.14,-7.37 -13.64,-11.12 -10.91,-9.44 -22.03,-18.67 -33.78,-27.05 -0.36,7.22 -1.03,14.43 -1.12,21.66 13.68,11.38 27.75,22.54 39.78,35.67 -13.49,-9.49 -26.69,-19.38 -40.65,-28.18 -2.43,40.23 -5.76,80.42 -8.11,120.65 28.96,16.3 58.29,31.98 88.01,46.88 0.61,-55.09 0.16,-110.24 -3.19,-165.23 16.38,44.68 28.66,131.03 39.56,181.29 0.22,2.51 3.09,2.87 4.82,3.99 20.38,9.55 40.92,18.77 61.54,27.79 8.17,-52.54 17.15,-105.03 21.93,-158.02 7.05,58.25 12.72,116.68 19.3,175 27.65,10.96 55.54,21.32 83.67,31.01zm947.7 -830.35c34.56,8 69.87,13.48 105.41,13.46 -3.01,4.22 -6.69,8.41 -6.96,13.85 -34.16,-1.9 -68.79,-9.78 -98.45,-27.31zm-195.89 -166.65c17.59,-7.92 37.42,-7.39 56.29,-6.94 45.32,2.73 89.76,13.21 133.47,25 8.47,2.16 16.79,5.84 25.73,5.37 44,-0.77 88.03,2.22 131.72,7.6 73.52,9.52 146.36,26.05 216.33,50.63 2.08,8.02 2.4,16.41 4.07,24.53 34.69,8.47 67.94,22.13 99.66,38.4 28.15,14.86 55.31,31.94 79.74,52.42 -6.92,20.46 -12.07,41.71 -21.76,61.11 1.59,9.39 1.89,18.94 2.55,28.43l197.25 89.76c-8.89,-6.86 -172.84,-57.93 -197.62,-66.03 -0.77,8.59 -2.63,17.02 -4.44,25.43 66.25,27.06 132.17,54.87 198.37,82.07 -68.58,-17.5 -141.37,-40.6 -206.21,-59.61 -3.36,6.65 -7.61,12.78 -12.23,18.6 69.3,27.83 139.17,54.2 208.49,81.95 -77.34,-19.53 -154.44,-39.95 -231.78,-59.49 -18.94,12.21 -41.21,18.1 -63.48,20.09 -20.83,35.73 -56.07,61.39 -94.47,75.57 6.58,-21.23 12.46,-43.2 11.67,-65.63 -13.68,0.9 -27.38,1.61 -41.06,2.48 -20.63,29.18 -46.09,58.27 -81.11,69.67 3.17,-23.53 5.8,-48.43 -2.57,-71.21 -21.94,-2.14 -43.65,-6.27 -64.8,-12.4 -10.16,2.54 -21.19,5.15 -28.91,12.72 13.34,6.11 26.73,12.2 40.07,18.3 0.81,16.84 1.99,33.64 2.95,50.47 10.99,2.91 21.95,5.91 32.98,8.78 4.5,11 12.04,41.75 22.88,45.21 15.78,-6.75 30.54,-15.79 43.71,-26.75 -1.16,12.97 -4.76,25.55 -9.67,37.58 8.47,2.53 16.88,5.3 25.37,7.88 18.77,-10.93 35.3,-25.32 51.51,-39.68 -6.78,29.44 -16.08,58.43 -29.11,85.73 8.77,6.95 15.59,15.9 24,23.27 -32.35,28.04 -72.54,45.38 -113.14,57.74 -55.35,16.15 -115.27,20.52 -171.39,5.58 -18.39,-6.64 -35.49,-17.35 -48.91,-31.64 2.67,-12.86 -1.83,-25.79 -7.55,-37.15 -10.26,-19.49 -24.65,-36.63 -40.39,-51.9 -48.07,-14.43 -101.51,-6.92 -145.48,16.64 12.38,17.75 28.89,32.12 45.89,45.29 27.91,21.16 58.06,39.19 88.74,56.03 -102.65,8.86 -205.83,10.49 -308.76,6.41 -5.07,-0.19 -10.12,-0.67 -15.14,-1.31 -0.96,-0.13 -1.92,-0.25 -2.86,-0.38 -190.47,-53.68 -272.63,-160.8 -255.39,-364.74 -48.36,102.37 -11.87,257.49 54.01,347.26 -40.62,-5.66 -81.13,-12.24 -121.34,-20.28 -56.6,-165.04 -14.44,-312.41 93.36,-441.52 -115.13,75.07 -228.73,270.53 -223.57,410.33 -31.74,-9.67 -63.4,-19.63 -94.43,-31.47 31.61,-249.1 261.06,-393.17 471.04,-464.36 -239.72,30.36 -487.15,184.04 -598.03,403.06 -3.17,-1.98 -6.28,-3.97 -9.33,-5.97l-0.57 -0.38c-2.51,-1.65 -4.97,-3.31 -7.41,-4.97 -24.06,-16.5 -46.58,-35.38 -65.27,-57.84 -19.07,-23.11 -33.63,-51.2 -35.71,-81.48 -1.93,-37.99 10.22,-75.87 30.83,-107.57 19.13,-29.85 45.03,-54.77 73.29,-75.92 42.71,-31.72 90.82,-55.39 140.23,-74.67 81.66,-31.48 167.36,-51.31 253.64,-64.99 64.36,-10.28 129.34,-16.2 194.31,-20.66 -122.71,22.08 -756.46,133.37 -578.27,387.44 143.85,-185.06 401.77,-277.36 624.73,-315.13 -6.05,-11.2 -10.2,-24.37 -6.6,-37.05 3.5,-12.6 14.76,-21.15 26.26,-26.16 21.97,-9.37 46.21,-11.16 69.81,-12.05 46.83,-0.88 93.47,5.11 139.7,11.99 10.61,-2.41 20.83,-6.78 31.48,-9.33 -7.54,-9.89 -15.44,-20.58 -16.9,-33.32 -1.04,-6.99 3.03,-14.13 9.53,-16.84zm67.06 375.21c-55.99,14.19 -112.03,28.17 -168.02,42.36 -4.74,-15.86 -7.35,-31.2 -8.32,-45.84 58.42,-12.4 126.36,-27.57 183.07,-39.81 92.76,-20.39 192.3,-42.49 285.31,-63.09 24.08,4.42 0,0 24.08,4.42l-316.12 101.96zm-174.66 -46.64c-1.83,12.76 -2.6,26.34 -1.83,40.59 22.12,-5.76 49.9,-12.73 69.02,-18.01l324.22 -93.61c-13,-1.64 -27.09,-3.28 -42.16,-4.85l-349.25 75.88zm132.13 -260.51l0 0c28.95,17.73 58.81,34.06 88.11,51.2 -7.53,6.05 -15.43,11.71 -23.49,17.06 -46.11,-18.22 -279.51,-98.24 -316.01,-46.52 -18.65,50.47 98.98,84.98 130.23,95.52 14.62,-8.75 29.57,-17 43.86,-26.32 -31.37,-9.82 -68.16,-13.41 -96.2,-23.09 98.12,-16.1 133.72,-25.81 234.54,2.79 -6.63,4.77 -5.54,4.61 -9.41,5.03 -19.58,2.14 -60.34,8.46 -77.47,17.59 27.83,6.21 55.05,15.02 81.34,25.98 36.43,-14.33 49.75,-19.68 91.85,-16.96 -10.48,-11.89 -21.48,-23.31 -32.22,-34.98 70.7,20.5 164.21,35.76 237.28,19.2 -13.62,11.93 -28.04,22.93 -41.6,34.94 38.79,-1.73 77.69,0.85 116.37,3.93 49.31,4.56 98.4,12.41 146.24,25.36 -7.9,29.18 -26.47,54.79 -49.64,73.84 -37.19,-22.11 -92.91,-46.23 -133.83,-58.61 -58.9,-17.82 -108.98,-34.87 -175.17,-32.21 -23.15,1.08 -47.13,4.99 -67.49,16.64 -0.87,0.42 -2.6,1.24 -3.46,1.67 -14.17,-3.57 -28.75,-6.48 -43.4,-6.64 11.07,9.55 22.07,20.09 27.73,33.86 1.05,3.21 -4.26,2.62 -5.97,3.8 -79.15,22.02 -172.16,46.66 -252.94,68.97 11.43,-62.05 46.85,-102.66 46.85,-102.66 -45.46,32.12 -71.5,70.75 -78.64,111.52l-90.76 25.45 89.81 -19.16c-1.73,13.65 -1.37,27.51 1.07,41.43l-63.56 15.15 63.78 -13.89c2.76,15.01 7.94,30.07 15.5,44.99 -8.11,1.73 -16.22,3.51 -24.07,6.18 8.18,-1.63 16.24,-3.87 24.41,-5.51 14.32,27.97 37.03,55.43 68,81.06 -23.74,-29.7 -38.46,-58.67 -46.81,-86.09 173.1,-39.26 346.37,-77.89 519.33,-117.82 2.08,24.43 -13.01,46.13 -29.44,62.66 -1.22,1.04 -4.42,4.34 -0.79,4.5 60.59,11.48 152.15,22.57 201.87,-23.27 20.26,-18.57 30.26,-46.19 30.74,-73.31 22.5,-1.81 45.14,-0.27 67.7,-0.92 -20.46,-16.41 -42.88,-30.27 -63.32,-46.7 22.17,1.46 44.61,2.38 66.66,-0.75 7.47,-1.71 12.01,-9.41 18.65,-13.14 -62.44,-41.3 -99.13,-44.33 -162.08,-69.05 -15.09,-3.97 -30.58,-7.33 -46.17,-8.23 -22.24,3.71 -44.12,12.85 -60.69,28.46 -15.88,0.25 -31.76,0.09 -47.62,-0.04 11.56,-14.86 44.33,-42.47 59.16,-55.31 -13.54,4.42 -26.16,-4.26 -39.37,-5.64 -32.29,1.51 -69.57,20.89 -104.1,18.38 -64.09,-4.33 -127.6,-14.88 -190.69,-26.79 -32.15,-5.29 -62.95,-16.34 -94.67,-23.55zm657.97 219.95l0 0c-10.81,36.2 -35.81,65.6 -58.94,94.61 57.52,10.99 66.46,-52.54 58.94,-94.61zm-490.34 112.58l0 0c-15.59,6.25 -31.62,16.47 -37.11,33.23 -5.5,17.79 1.73,36.38 10.77,51.63 16.22,26.75 38.84,48.82 62.01,69.5 19.97,17 40.25,33.92 62.5,47.83 -31.33,-26.82 -63.52,-53.63 -87.46,-87.61 -12.7,-18.56 -24.06,-40.35 -21.48,-63.56 2,-19.01 15.76,-34.46 31.56,-44.07 18.81,-12.14 40.82,-17.33 62.27,-22.6 -28.13,1.83 -56.63,5.37 -83.06,15.65zm363.48 26.67c-0.1,4.1 -0.2,8.2 -0.28,12.3 -1.63,11.5 -6.09,22.42 -12.5,32.07 4.09,-2.06 29.07,-17.84 31.64,-20.42 7.04,-8.31 14.82,-16.68 17.24,-27.67 -11.93,2.07 -23.98,3.7 -36.1,3.72zm-127.69 -0.32c0.84,3.62 1.67,7.23 2.83,10.77 0,-0.41 3.89,20.85 -4.21,41 8.55,-6.38 29.59,-30.56 29.8,-33.18 3.4,-5.2 5.95,-10.88 8.09,-16.7 -12.22,2.04 -24.45,0.25 -36.51,-1.89zm-197.37 6.96l0 0c5.13,7.33 9.87,15.27 17.47,20.36 15.18,11.42 24.18,29.5 26.46,48.13 2.4,18.4 4.72,38.54 18.32,52.5 11.18,11.24 25.76,22.5 42.59,20.75 14.11,-1.43 26.2,-10.69 35.04,-21.28 -14.72,1.45 -30.9,0.72 -43.4,-8.08 -9.59,-6.72 -13.52,-18.85 -13.48,-30.15 -0.61,-21.44 -5.21,-45.28 -22.35,-59.88 -15.84,-15.9 -38.93,-21.27 -60.65,-22.35zm124.14 166.82l0 0c5.44,9.91 17.47,13.42 28,14.47 9.16,1.29 16.59,-5.57 22.27,-11.82 10.44,-12.04 18.65,-25.94 25.41,-40.33 -22.64,17.12 -49.01,28.48 -75.68,37.68zm82.4 5.31c8.2,8 18.95,13.05 29.8,16.33 19.36,-10.91 28.79,-33.08 34.89,-53.46 -24.78,16.25 -32.62,27.67 -64.69,37.13zm-52.65 45.56c-36.84,20.67 -80.41,25.92 -121.99,22.54 47.48,16.86 143.93,12.03 185.83,-17.97 -19.05,0.61 -37.99,-2.18 -56.72,-5.36 -2.42,-0.39 -5.02,-0.75 -7.12,0.79zm376.08 26.86c-3.8,94.73 -6.74,189.5 -10.48,284.24 40.39,-4.54 80.98,-7.57 121.62,-8.36 -9,-7.17 -19.22,-12.5 -29.56,-17.43 15.35,1.3 29.84,8.18 42.26,17.06 2.36,0.02 4.73,0.06 7.13,0.12 0.04,-2.62 0.14,-5.21 0.24,-7.79 -13.11,-11.61 -29.35,-19.96 -46.53,-23.43 16.26,0.73 32.44,3.23 47.37,9.78 -0.02,-3.97 0,-7.93 0.04,-11.89 -9.83,-4.55 -20.34,-7.08 -30.62,-10.27 10.46,-0.05 20.82,1.36 31.11,3.09 0.18,-8.98 0.48,-17.96 1.01,-26.91 -21.66,0.28 -43.32,0.69 -64.92,2.05 0.45,-14.31 0.25,-28.74 1.87,-42.97 19.32,-0.58 38.65,-1.43 57.99,-1.59 0.28,-22.36 1.71,-44.69 2.13,-67.06 -19.38,-0.27 -38.74,0.65 -58.06,1.58 0,-12.96 1.06,-25.87 1.06,-38.8 21.7,-1.36 43.46,-1.81 65.21,-1.59 0.85,-22.45 1.54,-44.89 2.38,-67.32 -47.19,-0.47 -94.34,2.72 -141.25,7.49zm-192.53 129.82c-2.95,60.86 -4.8,121.79 -7.63,182.66 47.23,-8.94 94.68,-16.83 142.32,-23.13 0.86,-22.53 1.63,-45.03 2.75,-67.54 -21.86,2.85 -43.69,6.02 -65.47,9.42 0.51,-14.17 1.42,-28.34 1.53,-42.51 19.44,-3.66 39.14,-5.86 58.69,-8.77 1.24,-22.5 1.99,-45.02 2.83,-67.53 -19.61,2.48 -39.15,5.49 -58.72,8.32 0.84,-12.98 1.06,-25.95 1.75,-38.92 21.67,-3.4 43.41,-6.39 65.17,-9.18 1.08,-22.52 2.1,-45.06 2.65,-67.63 -47.54,6.14 -94.91,13.55 -142.04,22.31 -0.12,6.49 -0.49,12.95 -0.74,19.44 10.9,1.57 22.6,2.61 32.09,8.74 -10.79,-0.86 -21.6,-0.66 -32.31,0.85 -0.57,8.19 -0.81,16.43 -1.16,24.67 14.41,-1.5 27.64,-1.89 43.43,1.74 -20.96,1.13 -29.63,7.28 -43.86,12.84 -0.57,8.33 -0.85,16.7 -1.06,25.06 13.71,-5.23 27.86,-10.4 42.72,-10.71 -9.71,3.03 -37.34,15.06 -42.94,19.87zm-33.16 187.65c-21.1,-44.16 -42.94,-87.99 -64.38,-132.01 20.99,-50.36 42.73,-100.4 63.73,-150.75 -26.92,5.88 -53.83,11.73 -80.69,17.77 -14.96,43.1 -29.15,86.49 -44.54,129.46 1.48,-40.08 1.83,-80.17 2.95,-120.25 -25.34,5.8 -50.67,11.7 -76.16,16.73 -1.89,31.74 -1.47,63.62 -2.65,95.42 -1.24,63.19 -2.85,126.38 -4.11,189.58 25.63,-5.5 51.16,-11.34 76.71,-17.18 0.61,-43.04 1.77,-86.08 2.75,-129.1 15.37,39.27 29.34,79.08 44.42,118.47 27.3,-6.19 54.62,-12.24 81.97,-18.14zm-256.68 5.84c9.3,-26.54 7.71,-54.99 8.97,-82.65 1.43,-50.72 3.3,-101.45 4.59,-152.18 -27,6.1 -54.02,12.09 -81.11,17.71 -1.02,59.24 -2.45,118.47 -3.44,177.73 -0.45,11.58 0.28,24.2 -5.91,34.49 -5.98,9.32 -22.66,14.33 -29.88,3.88 -5.48,-9.79 -3.91,-21.6 -3.77,-32.36 1.02,-58.58 1.42,-117.17 2.81,-175.74 -27,5.07 -54.12,9.41 -81.25,13.76 0.34,57.23 -0.08,114.44 -0.41,171.67 -0.31,20.82 0,42.34 8.02,61.89 19.12,-9.51 39.19,-17.29 59.94,-22.4 -18.28,11.1 -35.53,23.86 -51.1,38.52 3.56,4.21 7.45,8.14 11.68,11.69 15.94,-11.49 32.88,-21.56 50.56,-30.09 -14.93,10.42 -27.78,23.25 -40.5,36.03 6.56,2.75 13.54,5.82 20.77,5.5 8.59,-6.27 16.67,-13.42 26.2,-18.28 -6.48,6.29 -12.71,12.86 -18.9,19.44 25.57,1.05 51.51,-5.26 73.86,-17.72 23.4,-12.98 40.82,-35.5 48.87,-60.89zm-203.35 79.69c-15.27,-59.68 -29.78,-119.57 -45.05,-179.26 -8.2,1.4 -16.27,3.32 -24.49,4.48 7.53,-3.65 15.31,-6.76 23.19,-9.61 -1.63,-6.62 -3.26,-13.26 -5.07,-19.85 -11.69,2.46 -22.86,6.7 -34.2,10.3 10.26,-6.82 21.39,-12.21 32.45,-17.53 -1.33,-6.64 -3.12,-13.19 -4.99,-19.67 -12.54,3.96 -24.57,9.25 -36.44,14.83 9.83,-10.81 21.82,-19.4 33.49,-28.1 -2.38,-8.85 -4.79,-17.67 -6.76,-26.63 -32.11,0.67 -64.21,0.65 -96.32,0.59 -21.13,91.39 -43.32,182.5 -64.57,273.85 27.56,0.71 55.13,0.14 82.71,0.3 2.06,-11.81 3.67,-23.7 5.93,-35.48 17.32,0.08 34.67,0.42 51.99,-0.19 2.18,11.75 4.46,23.5 6.56,35.28 27.18,-1.2 54.46,-0.91 81.57,-3.31zm-115.65 -204.26c4.44,38.21 11.05,76.12 16.73,114.15 -10.81,-0.16 -21.6,0.24 -32.39,-0.25 5.89,-37.88 11.26,-75.85 15.66,-113.9zm-152.85 201.32c17.67,-89.69 35.81,-179.29 53.23,-269.03 -25.38,1.4 -50.79,-0.02 -76.16,-0.04 -5.31,36.15 -10.28,72.35 -15.63,108.49 -3.02,19.95 -3.67,40.16 -5.81,60.2 -3.86,-17.63 -5.43,-35.69 -8.73,-53.44 -7.27,-39.03 -15.04,-77.98 -22.29,-117.01 -22.54,-0.91 -45.02,-2.64 -67.53,-4.07 -6.31,37.87 -13.25,75.65 -19.61,113.52 -2.99,17.73 -2.6,35.81 -5.13,53.57 -8.08,-57.56 -17.79,-114.91 -27.67,-172.18 -25.95,-2.54 -51.77,-6.06 -77.56,-9.77 15.7,65.9 31.66,131.74 47.6,197.6 10.32,0.16 20.78,-0.28 30.9,2 -9.47,1.61 -18.95,3.78 -27.89,7.31 -0.12,6.9 3.05,13.84 4.23,20.76 11.97,-2.44 23.99,-4.5 36.08,-6.27 -11.48,4.66 -23.6,8.02 -34.14,14.74 1.87,6.68 3.36,13.48 4.97,20.24 10.4,-3.42 20.62,-7.39 31.31,-9.82 -9.51,6.17 -19.53,11.49 -29.05,17.65 1.05,6.05 2.44,12.06 4.23,17.96 25.37,2.46 50.69,5.52 76.14,6.98 6.96,-55.7 17.18,-111.07 20.14,-167.2 2.77,6.98 2.4,14.68 3.68,22.01 2.69,25.32 8.45,50.16 13.32,75.12 4.86,24.43 9.85,48.82 14.61,73.27 24.37,1.65 48.82,2.14 73.23,2.59 3.22,0.83 2.85,-3.36 3.53,-5.18zm-255.12 -78.48c-19.6,-2.6 -39.05,-6.06 -58.59,-8.98 -0.86,-10.87 -0.92,-21.78 -0.81,-32.67 -0.7,-58.61 -1.67,-117.21 -2.06,-175.84 -26.53,-4.6 -53.02,-9.46 -79.26,-15.53 0.04,16.94 0.41,33.93 0.23,50.89 11.11,3.4 22.39,6.58 32.82,11.77 -10.71,-1.44 -21.52,-1.95 -32.33,-2.03 -0.02,7 -0.02,14.02 0,21.01 12.94,0.83 25.77,2.76 38.58,4.7 -12.69,0.73 -25.45,1.06 -38.01,3.24 -0.11,6.94 -0.09,13.88 -0.06,20.82 11.72,-0.77 23.49,-0.87 35.21,0.18 -11.74,2.73 -23.65,4.63 -35.26,7.84 1.06,51.55 1.12,103.1 2.2,154.65 45.65,9.85 91.6,18.48 137.87,24.92 0.27,-21.67 -0.83,-43.31 -0.53,-64.97zm-186.16 28.57c-1.38,-90.82 -3.52,-181.62 -4.9,-272.42 -26.65,-6.7 -53.26,-13.64 -79.65,-21.34 1.29,90.74 2.93,181.5 5.07,272.24 26.33,7.73 52.77,15.14 79.48,21.52z"/>
  </g>
 </g>
</svg>
