<?xml version="1.0" encoding="UTF-8"?>
<!DOCTYPE svg PUBLIC "-//W3C//DTD SVG 1.1//EN" "http://www.w3.org/Graphics/SVG/1.1/DTD/svg11.dtd">
<!-- Creator: CorelDRAW -->
<svg xmlns="http://www.w3.org/2000/svg" xml:space="preserve" width="2000px" height="1600px" version="1.1" style="shape-rendering:geometricPrecision; text-rendering:geometricPrecision; image-rendering:optimizeQuality; fill-rule:evenodd; clip-rule:evenodd"
viewBox="0 0 2000 1600"
 xmlns:xlink="http://www.w3.org/1999/xlink">
 <defs>
  <style type="text/css">
   <![CDATA[
    .fil0 {fill:#A7A9AC}
    .fil1 {fill:#006E51;fill-rule:nonzero}
    .fil3 {fill:#B30738;fill-rule:nonzero}
    .fil2 {fill:#FEFEFE;fill-rule:nonzero}
   ]]>
  </style>
 </defs>
 <g id="Capa_x0020_1">
  <metadata id="CorelCorpID_0Corel-Layer"/>
  <g id="Wisconsin_x0020_Green_x0020_Bay_x0020_Phoenix.cdr">
   <path class="fil0" d="M1638.15 999.58l23.39 0.18 -50.25 53.03c11.49,26.43 7.76,56.71 -16.89,73.77l-32.5 22.5c-0.02,-8.63 5.05,-39.84 -0.08,-49l-462.15 -0.17 7.88 -37.14c-16.77,22.02 -35.92,35.66 -58.32,51.89l-83.67 60.62 53.76 -88.24c16.21,-26.61 15.93,-33.54 5.35,-64.15 -25.86,56.39 -78.29,85.32 -85.98,108.19 -4.06,13.21 -6.72,29.72 -0.36,42.59l48.57 98.23 -81.14 -73.65c-26.43,-24 -42.24,-60.25 -37.32,-96.12 4.32,-31.52 16.5,-55.65 26.33,-85.21l-74.51 -0.12c-7.2,10.29 -8.59,25.14 -7.67,37.01l5.9 76.46 -43.68 -63.03c-10.41,-15.04 -15.5,-32.46 -17.37,-50.34l-236.97 0.02 -4.7 -11.87 -2.62 11.95 -120.82 0 0.77 -3.86c-40.41,12.92 -90.37,13.22 -131.3,3.26 -103.68,-25.22 -81.45,-157.76 -17.12,-205.34 8.95,-6.62 18.71,-12.06 28.96,-16.37 0.8,-0.49 39.65,-72.09 108.73,-78.59 -13.89,-4.5 -28.25,-7.52 -42.74,-9.25 -58.67,-7 -101.9,-9.19 -145.61,36l-77.16 79.79 43.1 -102.28c20.87,-49.55 53.92,-80.4 95.33,-98.9 -13.92,-0.27 -34.33,-1.6 -47.98,-3.58 -60.26,-8.74 -112.27,-58.41 -144.13,-107.32l-63.18 -97 92.95 68.99c63.36,47.02 253.75,9.65 322.51,-13.64 60.38,-20.45 80.16,-27.36 148.6,-25.13 55.28,1.81 112.26,27.11 160.91,52.35 16.52,-15.95 48.18,-29.87 48.26,-29.94 8.34,-14.14 17.82,-27.42 30.45,-38.12 30.48,-26.17 77.41,-14.56 117.66,-11.73 40.32,2.83 55.81,8.42 93.38,-9.69 13.89,-6.7 26.84,-12.37 42.48,-12.92 31.87,-1.92 47.89,13.12 68.84,-1.14l94.65 -64.45 -65.99 93.58c-10.11,14.33 -23.57,27.86 -40.06,34.62 20.67,6.89 24.46,15.83 53.36,12.1 15.74,-2.32 29.31,-14.12 39.43,-25.69l57.71 -66.01 -21.97 84.88c-8.99,34.72 -31.54,67.26 -66.15,80.09 -11.54,4.27 -29.57,6.97 -44.11,12.63 35.27,7.95 76.68,-13.16 106,-30.46 23.68,-13.96 43.92,-33.55 67.39,-48.29 110.91,-69.64 220.17,-7.35 322.77,1.71 115.36,10.19 102.16,-42.05 197.87,-29.83l5.2 -6.02 -2.65 6.36c13.15,1.82 26.12,4.75 38.64,9.25l131.87 47.35 -139.93 -7.07c-20.73,-1.05 -41.21,8.01 -58.92,18.52l-18.89 45.34c-15.67,37.64 -43.18,71.15 -79.89,89.79 -55.34,28.11 -102.33,7.26 -139.85,15.8 -9.87,2.25 -19.84,4.98 -29.54,8.44 39.9,14.18 54.54,31.39 108.11,27.02l54.52 -4.44c-44.2,46.15 -62.51,75.26 -135.27,73.81 -23.9,-0.47 -44.81,-3.05 -67.53,1.57 -35.94,6.95 -57.22,24.1 -98.56,21.54 21.37,3.84 64.49,4.04 87.45,4.79l-10.93 7.93 137.69 -0.06 3.2 11.95 8.11 -11.86 148.2 0.04 -121.33 150.44c-2.81,13.88 -5.75,27.74 -8.49,41.64z"/>
   <path class="fil1" d="M1113.6 419.06c8.76,-0.79 16.93,-4.42 24.13,-9.33 -7.01,9.94 -15.48,19.13 -26.22,25.06 -9.84,5.74 -21.71,5.87 -31.84,10.95 -12.43,5.55 -21.25,16.41 -28.89,27.28 23.68,-4.34 49.13,-2.71 70.7,8.72 14.82,8.43 32.58,9.15 49.15,7.28 21.23,-2.98 38.73,-16.94 52.43,-32.62 -7.24,28 -25.19,55.41 -53.26,65.82 -18.5,6.06 -38.41,8.46 -55.67,17.96 -6.53,3.27 -10.37,10.88 -8.6,18.07 1.74,8.25 10.02,12.65 17.42,14.93 15.07,4.35 31.23,4.59 46.63,1.95 28.45,-5.93 55.06,-18.54 79.87,-33.38 24.15,-14.03 44.18,-33.89 67.9,-48.6 21.69,-13.81 46.3,-22.98 71.76,-26.66 34.53,-5.19 69.73,-1.87 103.76,5.02 44.76,8.88 88.77,22.28 134.37,26.46 31.61,2.64 64.33,2.14 94.59,-8.47 16.93,-5.69 32.44,-15.04 49.75,-19.7 12.21,-3.38 25.03,-4.05 37.64,-3.19 17.6,1.11 35.24,3.99 51.89,9.97 -27.48,-1.39 -53.44,10.49 -76.18,24.83 -25.11,15.6 -46.62,36.14 -71.26,52.39 -22.33,14.92 -48.89,21.47 -75.04,25.87 20.14,2.92 40.58,3.09 60.87,2.21 23.98,-0.41 47.81,-10.4 63.59,-28.68 -13.76,33.04 -37.85,62.89 -70.12,79.25 -27.93,14.21 -60.4,14.6 -90.94,11.93 -14.72,-1.46 -29.66,-1.1 -44.13,2.14 -30.15,6.93 -60.28,17.84 -84.01,38.3 22.17,0.46 43.98,5.98 64.29,14.74 16.59,6.67 32.25,16 49.9,19.72 17.94,3.79 36.42,5.14 54.7,3.65 -20.92,21.85 -52.66,29.37 -82.03,27.9 -23.94,0.24 -48.26,-3.55 -71.89,1.95 -20.65,4 -39.92,12.68 -60.18,18.03 -19.17,5.14 -39.7,4.4 -58.66,-1.4 -33.62,-9.99 -64.05,-30.42 -85.68,-58.08 5.06,30.62 18.2,62.34 44.59,80.49 27.25,17.21 59.53,25.41 91.56,26.46 -11.26,8.17 -24.76,12.47 -38.33,14.89 1.49,7.04 2.43,14.26 1.9,21.47 -1.2,13.95 -6.94,27.37 -16.57,37.58 5.52,7.06 8.91,15.51 10.13,24.39 15.33,-25.31 31.1,-50.39 46.64,-75.57 2.66,-4.36 5.36,-8.66 8.16,-12.93 2.76,0.04 5.53,0.07 8.34,0.09 50.59,-0.03 101.17,0.05 151.78,-0.03 3.61,13.47 7.14,26.97 10.73,40.44 9.28,-13.39 18.28,-26.96 27.46,-40.39 31.29,-0.04 62.59,-0.04 93.89,0 -30.12,37.41 -60.25,74.81 -90.39,112.21 -2.79,3.7 -6.7,6.99 -7.61,11.75 -3,14.6 -6.05,29.2 -8.93,43.82 -50.05,0.31 -100.11,0.07 -150.16,0.12 -0.82,-5.57 -1.66,-11.14 -2.5,-16.69 -13.64,0.06 -27.3,-0.14 -40.94,0.12 -2.95,5.6 -6.07,11.1 -9.2,16.58 -28.88,0.02 -57.75,0 -86.63,0 1.49,-2.46 3.02,-4.91 4.54,-7.36 -11.58,4.01 -23.73,6.42 -36,6.51 -51.66,0 -103.35,0 -155.01,0 4.98,-24.35 10.02,-48.69 15.04,-73.02 4.14,-20.16 9.01,-52.74 -9.66,-67.89 -9.71,43.82 -18.35,89.87 -27.78,134.19 -6.19,29.44 -21.35,56.88 -42.75,77.97 -12.38,11.41 -25.97,21.42 -39.59,31.29 7.32,-12.01 14.29,-24.85 15.8,-39.05 0.94,-12.75 -3.08,-25.14 -6.7,-37.19 -8.11,-24.69 -18.82,-48.44 -30.3,-71.71 2.32,22.82 -1.01,46.35 -11.31,66.98 -12.88,26.56 -33.55,48.27 -54.88,68.27 -11.69,11.78 -25,23.26 -30.68,39.36 -5.84,18.8 -8.27,40.14 0.74,58.37 -21.37,-19.4 -34.79,-48.82 -30.71,-77.92 5.11,-37.87 25.41,-71.47 32.9,-108.74 -6.85,-0.06 -13.69,-0.06 -20.54,-0.06 -20.17,-0.01 -40.34,0.04 -60.51,-0.03 -10.06,0.33 -20.14,-0.5 -30.16,0.31 -16.14,14.58 -20.43,38.11 -18.82,58.98 -11.94,-17.24 -14.91,-38.79 -14.51,-59.31 -6.67,0.05 -13.33,0.05 -20.02,0.04 -74.25,0.03 -148.5,0.01 -222.77,0.01 -5.74,-14.49 -1.2,-29.78 0.67,-44.52 -9.83,-0.06 -19.67,0 -29.51,-0.06 -3.1,14.87 -6.03,29.78 -9.28,44.62 -26.27,-0.07 -52.54,-0.05 -78.81,0 1.28,-6.46 2.62,-12.92 3.96,-19.36 -15.43,10.24 -32.96,16.99 -51.04,20.78 -34.18,7.06 -69.9,6.68 -103.86,-1.39 -18.8,-4.76 -36.93,-15.57 -46.68,-32.81 -11.02,-19.42 -10.4,-43.03 -6.01,-64.26 5.55,-27.78 20.1,-54.27 43.01,-71.39 10.71,-7.75 22.58,-13.85 35.18,-17.84 27.67,-9.08 57.37,-9.08 86.09,-6.46 20,2.23 41.03,6.82 56.74,20.18 6.32,5.09 10.5,12.15 14.69,18.97 0.71,-4.78 1.49,-9.56 2.33,-14.34 8.05,-0.05 16.1,-0.02 24.18,-0.2 -28.61,-9.57 -53.52,-27.32 -81.81,-37.58 -31.43,-11.11 -67.01,-8.59 -96.98,5.79 15.31,-23.24 37.07,-42.48 62.6,-53.71 23.08,-9.51 48.74,-6.44 72.75,-2.89 12.06,1.66 24.14,4.23 36.39,3.65 8.45,-0.36 16.21,-4.51 22.55,-9.87 10.73,-9.1 18.75,-20.89 25.52,-33.11 -27.01,11.79 -57.63,15.89 -86.59,9.84 -13.98,-2.93 -26.99,-8.97 -40.49,-13.39 -15.61,-5.21 -31.81,-8.48 -48.09,-10.57 -66.57,-7.8 -114.5,-7.96 -163,42.19 31.91,-75.73 94.87,-101.61 171.95,-108.78 7.11,-1.12 15.52,-0.41 21.09,-5.73 5.06,-6.7 -1.37,-14.92 -7.47,-18.19 -11.98,-7 -26.18,-2.25 -38.92,-0.5 -38.05,7.08 -77.14,6.96 -115.44,2.11 -17.65,-2.57 -34.53,-9.29 -49.8,-18.37 -32.51,-19.68 -59.27,-48.04 -79.92,-79.74 19.67,14.6 44.18,20.19 68.01,23.48 44.01,5.6 88.58,2.4 132.41,-3.15 47.76,-6.48 95.42,-15.37 141.12,-30.97 17.65,-5.86 35.06,-12.51 53.14,-16.98 28.72,-7.25 58.64,-8.31 88.13,-7.06 30.13,0.67 59.34,9.58 87.27,20.27 26.75,10.18 52.37,23.1 77.61,36.52 4.66,-3.4 8.2,-8.06 12.68,-11.67 12.15,-10.16 25.97,-18.35 40.58,-24.44 2.95,-1.34 6.36,-2.48 7.9,-5.6 7.54,-13.11 16.13,-25.96 27.78,-35.8 11.6,-10.16 27.92,-11.75 42.7,-11.81 20.04,0.96 39.97,3.62 59.98,5.04 17.1,1.18 34.22,4.6 51.41,2.76 12.05,-1.13 24.26,-2.52 35.61,-6.96 17.08,-6.32 32.71,-17.92 51.54,-18.38 18.67,-1.8 36.49,7.38 55.15,4.61zm25.84 592.04c18.16,0.1 36.33,-0.07 54.49,0.06 6.14,0.33 13.35,1.01 17.46,6.21 4.87,6.94 2.94,16.09 0.47,23.56 -3.34,9.66 -12.82,16.18 -22.85,17 -11,0.82 -22.03,0 -33.03,0.43 -1.36,6.99 -2.76,13.98 -4.29,20.94 -8.81,-0.11 -17.6,-0.04 -26.39,-0.07 4.84,-22.69 9.34,-45.43 14.14,-68.13zm20.19 30.07c7.16,-0.36 14.44,0.6 21.54,-0.55 5.53,-1.29 7.9,-12.29 0.89,-12.72 -6.48,-0.99 -13.06,-0.34 -19.57,-0.49 -1.03,4.57 -1.97,9.15 -2.86,13.76zm160.24 -22.38c12.18,-1.03 25.55,-2.04 36.67,3.97 8.43,4.54 10.35,15.29 8.74,23.96 -1.56,12.54 -8.54,25.17 -20.55,30.3 -13.16,5.4 -28.09,5.24 -41.9,2.79 -8.86,-1.49 -16.65,-8.67 -17.1,-17.96 -0.7,-12.35 3.07,-25.81 12.63,-34.19 5.9,-5.31 13.76,-7.88 21.51,-8.87zm3.61 15.28c-10.47,2.94 -14.65,15.84 -12.51,25.54 2.04,6.94 10.82,7.16 16.66,5.81 10.61,-2.88 14.77,-15.89 12.73,-25.69 -2.47,-6.65 -10.98,-7.37 -16.88,-5.66zm-103.89 -13.95c7.6,0 15.25,-0.01 22.87,0.02 -1.33,6.84 -2.76,13.69 -4.18,20.53 8.23,0.04 16.47,0 24.73,0.02 1.37,-6.86 2.79,-13.69 4.23,-20.55 7.63,-0.03 15.27,-0.03 22.91,0 -3.92,19.73 -8.14,39.38 -12.11,59.1 -7.68,0 -15.34,0 -23,0 1.61,-7.84 3.26,-15.67 4.87,-23.52 -8.25,-0.07 -16.47,-0.02 -24.68,-0.05 -1.7,7.84 -3.25,15.73 -4.93,23.57 -7.61,0 -15.22,0 -22.83,0 3.86,-19.74 8.07,-39.41 12.12,-59.12zm154.58 0c20.31,-0.03 40.61,0.06 60.92,-0.03 -0.99,4.87 -1.99,9.73 -3.05,14.6 -12.66,0 -25.31,0 -37.96,0 -0.49,2.59 -0.97,5.18 -1.44,7.76 11.72,-0.13 23.45,0 35.17,-0.08 -1.03,4.85 -2.02,9.7 -2.98,14.55 -11.81,0.1 -23.6,0.03 -35.39,0.05 -0.5,2.57 -0.98,5.14 -1.44,7.73 12.63,0 25.28,-0.12 37.92,0.07 -1.06,4.78 -2.07,9.59 -2.91,14.42 -20.34,0.11 -40.68,0.05 -61.02,0.04 4.02,-19.71 8.09,-39.42 12.18,-59.11zm64.5 0.02c8.67,-0.03 17.34,-0.03 26.03,-0.02 5.33,10.58 10.51,21.24 15.87,31.79 2.19,-10.57 4.56,-21.13 6.72,-31.7 7.35,-0.14 14.72,-0.1 22.09,-0.07 -4.1,19.69 -8.16,39.4 -12.21,59.1 -8.38,-0.01 -16.76,0.07 -25.12,-0.08 -5.55,-10.76 -11.19,-21.49 -16.93,-32.15 -2.02,10.75 -4.5,21.39 -6.49,32.15 -7.39,0.14 -14.77,0.08 -22.14,0.07 4.09,-19.69 8.19,-39.38 12.18,-59.09zm76.02 -0.02c7.64,0 15.3,-0.01 22.96,0.02 -4.34,19.62 -7.71,39.52 -12.51,59.02 -7.54,0.27 -15.1,0 -22.64,0.07 4,-19.73 8.08,-39.42 12.19,-59.11zm28.43 0.04c9.1,0.02 18.2,-0.26 27.3,0.19 1.95,3.92 4.19,7.69 6.59,11.39 3.22,-3.87 6.46,-7.71 9.65,-11.6 9.03,-0.03 18.06,-0.05 27.09,0.02 -9.1,9.65 -18.32,19.19 -27.59,28.67 5.61,10.43 11.5,21.64 10.53,33.89 0.01,10.58 -5.42,20.76 -14.11,26.77 -0.03,-15.75 -7.49,-30.09 -13.78,-44.13 -4.31,4.63 -8.58,9.31 -12.9,13.94 -9.46,-0.12 -18.9,0.01 -28.36,-0.11 10.52,-10.26 21.16,-20.41 31.82,-30.52 -5.45,-9.49 -10.95,-18.95 -16.24,-28.51z"/>
   <path class="fil2" d="M1520.21 839.92c21.21,-0.36 42.44,-0.05 63.66,-0.15 4.88,18.69 9.9,37.35 14.82,56.05 12.82,-18.58 25.36,-37.32 38.01,-56.02 21.26,-0.07 42.53,-0.02 63.8,-0.02 -27.23,34.04 -54.7,67.88 -81.98,101.88 -3.77,4.52 -8.57,35.3 -10.23,42.94 -18.56,-0.2 -37.14,0.24 -55.7,-0.24 2.98,-13.54 5.59,-27.14 8.5,-40.7 -13.69,-34.56 -27.16,-69.19 -40.88,-103.74zm-777.49 -318.01c17.65,-13.2 39.4,-19.28 60.65,-23.86 3.04,3.41 6.39,7.18 6.51,12.03 0.75,14.87 3,24.46 19.1,27.78 13.15,2.78 26.62,3.38 39.98,4.39 -14.81,3.9 -48.99,7.38 -62.6,2.74 -7.36,-2.38 -13.95,-7.93 -22.07,-7.3 -7.33,1.42 -11.43,9.22 -18.81,10.59 -22.87,4.95 -25.68,-15.22 -45.83,18.41 -0.75,-17.71 10.06,-33.75 23.07,-44.78zm91.47 -37.26c17.46,-15.13 41.23,-7.52 58.18,-7.67 9.34,0.24 18.52,-1.7 27.81,-2.47 -7.44,3.2 -14.91,6.41 -22.74,8.48 -15.23,3.58 -25,17.5 -39.22,23.1 -10.71,-2.72 -20.24,-10.98 -24.03,-21.44zm-568.88 351.55c29.97,-21.4 68.69,-24.52 104.36,-21.76 39.73,3.26 77.06,14.29 73.18,61.62 -23.7,0.29 -47.4,0 -71.09,0.16 -1.53,-21.64 -22.58,-21.94 -39.66,-20.02 -43.82,4.93 -59.93,83.82 -17.94,91.59 20.58,3.82 40.62,1.54 48.77,-20.17 -7.2,-0.06 -14.38,-0.03 -21.56,-0.03 2.47,-12.58 5.23,-25.1 7.7,-37.68 29.92,-0.02 59.84,-0.05 89.77,0.01 -4.35,22.02 -9.03,43.99 -13.48,66 -0.29,4.81 -4.99,7.07 -8.31,9.75 -35.74,27.01 -93.4,28.38 -136.41,21.55 -41.02,-6.54 -62.46,-30.22 -57.61,-72.67 3.17,-30.18 16.85,-60.61 42.28,-78.35zm152.01 -7.31c8.81,13.07 9.99,16.65 8.83,33.15 -17.35,-0.03 -34.67,0.06 -52.01,-0.05 0.82,2.14 1.66,4.3 2.47,6.46 19.12,-0.01 38.24,0.12 57.35,-0.07 1.1,-17.89 0.08,-28.91 -16.64,-39.49zm-125.88 24.6c-22.71,21.76 -26.43,70.97 2.81,88.94 -31.23,-40.45 -3.51,-110.5 58.83,-91.66 -11.82,-15.67 -47.89,-10.6 -61.64,2.72zm126.69 42.84c-3.43,15.85 -6.45,31.77 -9.91,47.61 -0.34,1.85 -2.06,2.96 -3.31,4.21 -35.59,32.93 -94.61,33.24 -139.06,24.34 -10.16,-2.01 -19.53,-6.46 -28.51,-11.45 26.41,27.89 97.69,25.82 130.61,17.1 17.74,-4.66 34.08,-13.86 47.78,-25.99 3.78,-18.63 7.71,-37.22 11.5,-55.83 -3.04,0 -6.07,0 -9.1,0.01zm-68.17 17.21c-0.41,2.09 -0.82,4.21 -1.22,6.34 5.76,0.02 11.52,0.03 17.27,-0.12 0.72,-2.11 1.43,-4.23 2.15,-6.34 -6.07,0.02 -12.15,0 -18.2,0.12zm839.86 -94.39c47.67,0.16 95.35,-0.01 143,0.07 18.16,0.28 39.14,5.16 40.07,27.08 0.84,19.88 -12.16,43.77 -26.36,45.49 0.21,1.75 0.41,3.52 0.65,5.3 5.88,12.58 1.8,26.78 -3.72,38.69 -12.04,26.1 -39.03,33.62 -65.66,33.81 -37.19,-0.03 -74.36,-0.02 -111.54,-0.02 -0.34,1.6 -1.06,4.77 -1.41,6.34 41.13,0.21 82.24,0.04 123.37,0.11 34.8,-0.44 62.89,-16.36 68.64,-52.78 1.44,-9.89 -0.84,-21.44 -9.49,-27.51 0.89,-0.78 1.82,-1.56 2.76,-2.29 5.21,3.58 10.62,7.55 13.09,13.64 10.71,25.02 -7.69,60.19 -34.22,70.58 -15.65,6.34 -32.82,6.26 -49.39,6.05 -41.28,-0.02 -82.58,0 -123.86,-0.02 11.43,-54.83 22.5,-109.74 34.07,-164.54zm160.82 4.8c7.54,9.8 6.05,23.19 2.28,34.19 -3.89,10.6 -14.44,16.14 -24.04,20.63 3.58,1.63 7.15,3.37 10.61,5.31 17.67,-9.24 27.48,-24.04 23.73,-44.93 -1.23,-6.94 -6.73,-11.89 -12.58,-15.2zm-123.94 21.8c-2.33,11.84 -4.58,23.7 -6.81,35.57 3.04,-0.01 6.09,-0.01 9.15,-0.03 1.77,-9.72 3.59,-19.42 5.47,-29.1 21.03,0.15 42.07,-0.31 63.1,0.24 -1.29,-4.97 -6.43,-6.77 -11.06,-6.63 -19.96,-0.12 -39.91,0.03 -59.85,-0.05zm12.35 34.72c10.41,0.01 49.13,1.56 57.6,-1.68 9.75,-3.74 11.55,-18.67 -3.33,-18.87 -16.69,-0.09 -33.36,0.02 -50.04,-0.02 -1.42,6.86 -2.87,13.69 -4.23,20.57zm-24.38 23.54c-3.02,13.25 -5.79,26.54 -8.76,39.81 3.02,0.03 6.07,0.05 9.12,0.1 2.53,-11.16 4.9,-22.33 7.42,-33.47 23.13,0.17 46.28,-0.34 69.42,0.28 -2.33,-4.58 -7.17,-6.91 -12.22,-6.67 -21.66,-0.12 -43.32,0.02 -64.98,-0.05zm11.38 39.46c11.62,-0.04 55.92,1.88 64.72,-2.51 10.9,-5.45 11.36,-22.78 -4.23,-22.78 -18.42,-0.07 -36.85,0.02 -55.25,-0.02 -1.78,8.44 -3.48,16.88 -5.24,25.31zm-764.74 -103.53c39.7,-0.38 79.41,-0.07 119.13,-0.17 10.92,0.48 22.98,0.25 32.23,6.97 17.72,13.78 12.82,55.96 -18.32,66.85 7.56,2.48 11.26,10.61 10.82,18.15 -1.36,19.27 -8.43,36.12 -1.2,52.88 -20.31,-0.12 -40.61,-0.02 -60.92,-0.07 -0.83,-14.46 10.89,-44.3 -5.54,-44.4 -13.64,-0.38 -27.31,-0.02 -40.97,-0.14 -3.1,14.84 -6.17,29.68 -9.17,44.56 -18.59,-0.02 -37.17,0.02 -55.74,-0.04 9.84,-48.2 20.03,-96.34 29.68,-144.59zm141 4.04c7.6,11.52 3.77,26.15 -1.92,37.62 -4.72,9.28 -14.07,14.72 -23.55,18.13 3.05,1.61 5.93,3.54 8.38,5.99 19.82,-6.87 29.21,-20.69 28.6,-42.36 -0.2,-7.95 -4.27,-15.73 -11.51,-19.38zm-109.16 18.41c-3.19,13.64 -5.45,27.48 -8.33,41.19 3.02,0.02 6.05,0.04 9.08,0.05 2.25,-11.58 4.68,-23.11 6.84,-34.71 17.44,0.12 34.92,-0.38 52.37,0.34 -1.82,-5.11 -7.22,-6.72 -12.12,-6.75 -15.93,-0.17 -31.89,0.12 -47.84,-0.12zm11 40.78c12.84,-0.02 25.67,0.02 38.5,0.02 11.46,0.1 21.14,-7.93 18.22,-20.19 -1.34,-4.87 -6.89,-6.34 -11.31,-6.34 -13.33,-0.17 -26.65,0.04 -39.98,-0.07 -1.78,8.86 -3.7,17.7 -5.43,26.58zm80.9 9.82c8.16,18.61 -7.21,39.04 1.95,57.53 -12.58,-0.11 -25.15,-0.23 -37.73,0.05 -0.14,1.56 -0.41,4.66 -0.55,6.22 15.48,0.15 30.97,0.03 46.46,0.07 -10.57,-19.54 12.33,-54.62 -10.13,-63.87zm-105.23 12.95c-3,14.88 -5.97,29.77 -9.26,44.59 -9.46,-0.19 -18.92,-0.08 -28.38,-0.08 -0.32,1.61 -0.97,4.81 -1.3,6.42 12.5,0 25.01,-0.1 37.51,0.07 3.33,-14.84 6.17,-29.76 9.31,-44.64 18.57,0.04 37.15,-0.08 55.73,0.07 -2.11,-3.32 -5.09,-6.6 -9.41,-6.37 -18.06,-0.28 -36.14,-0.11 -54.2,-0.06zm163.78 -86.22c49.7,0.2 99.39,-0.12 149.11,0.15 -2.63,11.76 -4.96,23.58 -7.37,35.37 -31.14,0.19 -62.28,0.03 -93.41,0.09 -1.34,6.27 -2.66,12.54 -3.93,18.84 28.91,0.02 57.8,0 86.7,0 -2.27,11.88 -4.97,23.69 -7.24,35.56 -28.75,0.07 -57.5,-0.17 -86.26,0.12 -2.52,5.97 -2.86,12.82 -4.52,19.14 31.13,0.04 62.29,0 93.42,0.02 -2.48,11.88 -4.83,23.77 -7.42,35.63 -49.69,-0.3 -99.39,0.2 -149.08,-0.24 10.19,-48.19 19.82,-96.5 30,-144.68zm125.06 21.47c-30.91,0.07 -61.82,-0.16 -92.72,0.1 -3.87,10.33 -4.73,22.07 -7.49,32.94 3.05,-0.06 6.14,-0.11 9.2,-0.16 1.75,-8.82 3.64,-17.63 5.42,-26.46 31.15,-0.03 62.32,0.05 93.48,-0.03 1.37,-6.87 2.91,-13.69 4.47,-20.51 -3.05,-0.02 -6.08,-0.04 -9.12,-0.04 -1.13,4.7 -2.22,9.43 -3.24,14.16zm-14.66 40.23c-1.1,4.73 -2.16,9.44 -3.21,14.19 -28.94,0.04 -57.89,-0.15 -86.83,0.09 -2.16,11.12 -4.59,22.19 -6.78,33.31 3.01,-0.02 6.04,0 9.1,0 1.81,-8.82 3.75,-17.62 5.39,-26.48 28.89,-0.12 57.79,-0.18 86.68,0.04 1.73,-6.99 3.25,-14.05 4.76,-21.1 -3.05,-0.01 -6.08,-0.03 -9.11,-0.05zm-7.77 68.94c-40.35,0.09 -80.73,0.14 -121.08,-0.02 -0.48,2.18 -0.94,4.37 -1.39,6.57 43.39,-0.14 86.8,0 130.2,-0.05 1.65,-7.3 3.36,-14.57 5.04,-21.84 -3.07,-0.01 -6.12,-0.01 -9.15,-0.01 -1.25,5.1 -2.52,10.21 -3.62,15.35zm58.83 -130.63c49.66,0.04 99.32,0.09 149,-0.01 -2.31,11.87 -4.9,23.71 -7.28,35.59 -31.12,0.05 -62.26,-0.02 -93.38,0.03 -1.37,6.26 -2.6,12.56 -3.94,18.83 28.91,0 57.82,0 86.74,0 -2.43,11.86 -4.81,23.74 -7.35,35.58 -28.87,-0.04 -57.76,-0.02 -86.64,-0.02 -1.35,6.41 -2.74,12.84 -3.99,19.28 31.09,0 62.17,0 93.27,0 -2.24,11.89 -4.86,23.7 -7.23,35.58 -49.71,-0.16 -99.42,0.2 -149.14,-0.19 10.11,-48.19 19.81,-96.46 29.94,-144.67zm127.79 7.32c-1.07,4.71 -2.16,9.42 -3.24,14.14 -31.12,0 -62.22,-0.02 -93.33,0.01 -2.31,10.99 -4.59,21.99 -6.83,33.01 3.05,-0.04 6.11,-0.05 9.2,-0.09 1.68,-8.86 3.65,-17.66 5.41,-26.49 31.14,-0.05 62.28,0.03 93.43,-0.05 1.49,-6.86 2.96,-13.73 4.49,-20.58 -3.05,0.02 -6.1,0.03 -9.13,0.05zm-17.88 54.37c-1.04,4.73 -2.14,9.44 -3.24,14.17 -28.92,0.06 -57.83,-0.12 -86.76,0.09 -2.17,11.12 -4.59,22.21 -6.82,33.33 3.04,-0.02 6.05,0 9.1,0 1.85,-8.81 3.76,-17.62 5.42,-26.46 28.92,-0.17 57.83,-0.17 86.76,0 1.64,-7.01 3.12,-14.07 4.71,-21.09 -3.07,-0.02 -6.12,-0.02 -9.17,-0.04zm-8.53 68.8c-40.03,0.43 -80.11,0.19 -120.16,0.11 -0.58,2.16 -1.13,4.33 -1.66,6.53 43.46,0 86.9,0 130.35,0 1.63,-7.29 3.38,-14.55 5.01,-21.84 -3.05,-0.01 -6.1,-0.03 -9.14,-0.03 -1.66,4.9 -1.76,11.26 -4.4,15.23zm59.05 -130.47c21.18,0.03 42.36,0.02 63.54,0.02 18.91,39.49 44.44,83.49 56.53,125.26 -1.25,-20.78 -6.68,-41.07 -14,-60.49 3.96,-21.68 9.15,-43.15 13.56,-64.76 17.78,0.07 35.59,-0.2 53.38,0.14 -9.24,44.04 -18.3,88.12 -27.34,132.19 -1.88,8.88 -3.32,17.87 -6.11,26.53 -7.75,24.45 -21.95,46.95 -41.16,64 5.62,-39.61 -40.6,-123.73 -58.23,-158 -5.88,26.6 -10.95,53.37 -16.73,79.98 -17.78,-0.19 -35.57,0.08 -53.36,-0.14 10.15,-48.2 19.95,-96.49 29.92,-144.73zm54.1 7.39c19.04,36.7 35.3,74.81 55.78,110.76 -6.01,-32.13 -33.41,-81.84 -48.36,-111.02 -1.85,0.07 -5.55,0.19 -7.42,0.26zm97.73 1.19c-8.78,40.94 -17.12,81.95 -25.48,122.96 -4.1,19.75 -12.58,38.48 -24.32,54.85 1.04,4.16 2.26,8.29 3.31,12.46 15.25,-18.8 25.55,-41.49 29.73,-65.32 8.46,-41.68 17.2,-83.3 25.82,-124.95 -3.03,0 -6.05,0 -9.06,0zm-126.4 31.67c-6.1,30.13 -12.44,60.22 -18.46,90.36 -8.92,0.1 -17.85,0.12 -26.76,-0.02 -0.48,2.16 -0.93,4.32 -1.36,6.5 11.95,0.03 23.89,0.02 35.85,0 5.78,-28.14 11.59,-56.29 17.29,-84.46 -2.04,-4.22 -4.16,-8.38 -6.56,-12.38zm447.43 -40.11c14.9,-0.19 55.72,-1.32 68.3,0.51 10.16,47.98 19.84,96.07 29.94,144.05 -19.78,0.27 -39.55,0.01 -59.31,0.15 -0.81,-5.6 -1.63,-11.17 -2.45,-16.74 -19.14,0.09 -38.27,-0.17 -57.39,0.14 -2.88,5.62 -6.05,11.07 -9.17,16.57 -19.72,0 -39.43,-0.02 -59.13,0.02 29.3,-48.5 59.7,-96.33 89.21,-144.7zm55.65 5.48c8.44,41.71 17.17,83.35 25.73,125.04 -12.65,0.02 -25.28,0.07 -37.91,-0.03 0.31,2.16 0.67,4.33 1.05,6.51 14.94,-0.07 29.88,-0.02 44.82,-0.03 -9.01,-43.85 -18.09,-87.69 -27.16,-131.54 -1.62,0.02 -4.9,0.05 -6.53,0.05zm-81.75 86.91c3.75,0 7.52,0.02 11.31,0.02 13.18,-22.41 26.35,-44.83 39.48,-67.27 -0.69,-5.32 -1.32,-10.63 -2.14,-15.91 -16.44,27.59 -32.39,55.47 -48.65,83.16zm25.02 0.04c10.88,-0.04 21.76,0 32.66,-0.02 -2.23,-16.11 -4.24,-32.23 -6.36,-48.36 -8.82,16.09 -17.51,32.25 -26.3,48.38zm-45.74 38.18c-9.08,-0.14 -18.15,-0.04 -27.21,-0.1 -1.32,2.14 -2.64,4.26 -3.91,6.42 13.02,0.07 26.05,0.02 39.07,0.04 3.15,-5.56 6.29,-11.12 9.44,-16.69 21.78,-0.07 43.58,0.05 65.36,-0.06 -0.22,-1.59 -0.7,-4.79 -0.94,-6.39 -24.08,-0.01 -48.14,0 -72.21,0 -3.24,5.57 -6.33,11.23 -9.6,16.78zm276.65 -125.13c-22.45,27.92 -45.14,55.64 -67.38,83.73 -4.13,13.43 -5.85,27.6 -9.07,41.33 -9.63,-0.02 -19.26,0.03 -28.87,-0.05 -0.5,2.14 -0.98,4.3 -1.42,6.48 12.73,-0.02 25.46,0.05 38.19,-0.05 2.78,-13.53 5.21,-27.15 8.52,-40.53 23.82,-30.62 48.99,-60.27 72.76,-90.96 -4.27,-0.02 -8.5,0 -12.73,0.05zm-95.98 -0.03c5.48,20.99 11.12,41.93 16.43,62.95 1.56,-1.98 3.12,-3.95 4.7,-5.94 -4.72,-19.06 -9.93,-38.01 -14.83,-57.03 -1.57,0 -4.73,0.02 -6.3,0.02z"/>
   <path class="fil3" d="M1372.27 503.74c18.47,-7.28 38.2,-11.77 58.11,-11.77 25.67,0.27 50.77,6.43 75.41,13.08 31.47,8.6 62.38,19.21 94.34,25.92 20.87,4.41 42.12,8.07 63.54,7.13 -24.8,20.39 -55.3,34.72 -87.51,37.32 -24.99,2.25 -50.38,2.04 -75.08,-2.67 12.15,9 24.39,18.25 38.49,24.01 6.87,2.95 14.07,4.97 21.11,7.4 -34,4.11 -67,16.21 -95.55,35.13 -24.3,15.73 -49.45,31.07 -77.58,38.9 -30,8.76 -61.87,8.86 -92.62,4.49 -22.1,-3.15 -44.28,-6.8 -65.53,-13.81 -7.72,-2.49 -15.11,-6 -21.69,-10.76 3.75,29.61 27.62,50.39 47.42,70.44 -25.18,1.92 -49.56,-7.64 -71.1,-19.81 -16.04,-8.84 -33.11,-17.36 -51.72,-18.5 -11.22,-0.74 -23.08,3.89 -29.35,13.55 -6.74,9.15 -6.94,21.03 -5.81,31.86 -27.49,-10.73 -47.4,-34.24 -63.18,-58.32 -9.48,-15.23 -19.01,-31.85 -19.45,-50.24 -5.35,11.58 -11.45,23.6 -22.16,31.15 -7.56,5.06 -15.3,10.03 -23.94,13.03 6.34,-25.5 11.1,-52.83 3.81,-78.66 -3.5,-12.82 -12.62,-23.78 -24.46,-29.75 -15.04,-8.1 -32.22,-10.4 -48.91,-12.56 26.89,0.6 54.04,2.33 80.75,-1.81 30.19,-4.22 55.64,-27.85 87.24,-24.29 -9.61,8.45 -17.53,19.56 -19.11,32.55 -2.24,18.32 5.54,36.5 16.44,50.84 15.25,19.72 40.54,28.6 64.77,29.8 19.28,0.79 38.88,-0.84 57.46,-6.26 24.92,-8.12 46.94,-22.94 67.84,-38.4 25.23,-18.99 48.84,-39.99 73.45,-59.77 14,-10.91 28.19,-22.05 44.57,-29.22z"/>
  </g>
 </g>
</svg>
