<?xml version="1.0" encoding="UTF-8"?>
<!DOCTYPE svg PUBLIC "-//W3C//DTD SVG 1.1//EN" "http://www.w3.org/Graphics/SVG/1.1/DTD/svg11.dtd">
<!-- Creator: CorelDRAW -->
<svg xmlns="http://www.w3.org/2000/svg" xml:space="preserve" width="2000px" height="1600px" version="1.1" style="shape-rendering:geometricPrecision; text-rendering:geometricPrecision; image-rendering:optimizeQuality; fill-rule:evenodd; clip-rule:evenodd"
viewBox="0 0 2000 1600"
 xmlns:xlink="http://www.w3.org/1999/xlink">
 <defs>
  <style type="text/css">
   <![CDATA[
    .fil1 {fill:black;fill-rule:nonzero}
    .fil2 {fill:#8A6D4A;fill-rule:nonzero}
    .fil0 {fill:#FEFEFE;fill-rule:nonzero}
   ]]>
  </style>
 </defs>
 <g id="Capa_x0020_1">
  <metadata id="CorelCorpID_0Corel-Layer"/>
  <g id="Wofford_x0020_Terriers.cdr">
   <path class="fil0" d="M890.45 635.08c23.03,-25.33 54.33,-41.75 86.22,-53.08 98.12,37.37 187.91,96.72 260.95,172.18 -10.12,-4.86 -20.74,-8.61 -31.19,-12.72 -18.16,29.75 -32.54,62.14 -55.46,88.76 -12.66,14.77 -29.04,27.62 -48.52,31.49 -21.71,4.07 -45.94,-1.82 -61.8,-17.65 -17.32,-16.38 -26.69,-39.21 -32.61,-61.86 -9.23,-37.28 -9.63,-76.4 -3.77,-114.22 -36.38,-15.93 -76.14,-21.06 -113.82,-32.9zm175.89 842.16c16.13,-5.58 35.53,-5.47 49.89,4.6 5.05,3.3 7.88,8.81 10.37,14.11 -8.98,-8.13 -20.8,-12.63 -32.89,-12.65 -18.93,-0.22 -38.54,6.29 -51.85,20.14 1.98,-12.84 12.74,-22.1 24.48,-26.2zm-218.65 -7.36c13.82,-3.99 29.39,-3.03 41.99,4.27 8.9,4.95 15.55,14.01 16.93,24.21 -12.09,-20.41 -37.89,-23.58 -58.92,-28.48zm392.06 -21.14c11.48,-12.09 29.71,-15.51 45.57,-11.87 -13.59,5.8 -28.72,9.2 -39.9,19.47 -5.78,5.07 -9.2,12.13 -11.35,19.39 -3.31,-9.21 -1.17,-19.94 5.68,-26.99zm-591.79 -77.12c15.68,-8 35.39,-3.53 48.38,7.59 9.73,7.8 14.96,21.26 10.89,33.4 -7.48,-13.13 -15.52,-27.2 -29.37,-34.52 -9.05,-5.26 -19.66,-6.18 -29.9,-6.47zm-151.02 -141.47c9.98,-5.32 21.67,-1.28 30.39,4.59 10,6.94 18.54,17.33 20.18,29.71 1.12,7.3 -2.23,14.52 -7.24,19.7 0.43,-12.31 -2.52,-25.48 -11.46,-34.46 -8.61,-9.37 -20.63,-14.21 -31.87,-19.54zm-136.18 -148.96c18,-0.13 34.28,12.25 42.03,28 6.27,11.8 4.42,27.57 -6.27,36.2 1.14,-11.26 -0.27,-23.15 -6.36,-32.88 -7.4,-12.56 -20.34,-20.18 -29.4,-31.32zm1196.32 -68.34c10.67,-8.34 23.66,-15.03 37.55,-14.25 6.71,-0.19 12.9,2.88 18.18,6.77 -1.96,16.67 -3.78,33.48 -8.56,49.64 -3.85,12.38 -10.68,24.88 -22.54,31.19 -7.67,4.4 -16.65,5.46 -25.33,5.91 -5.79,-6.49 -5.08,-15.59 -3.42,-23.48 -8.36,13.7 -18.65,27.17 -32.92,35.12 -10.38,6 -23.37,5.53 -34.11,0.74 -1.21,-12.98 8.14,-24.42 5.44,-37.43 -8.9,11.54 -16.09,25.46 -29.53,32.44 -5.75,3.29 -12.34,4.36 -18.78,5.28 -5.67,-10.38 0.96,-22.65 -4.25,-33.12 -12.52,12.9 -18.39,31.31 -33.1,42.25 -8.68,6.7 -19.96,8.67 -30.7,8.22 -3.78,-12.07 -2.36,-24.92 -2.05,-37.34 -9.84,4.51 -14.98,14.87 -23.36,21.34 -8.19,7.58 -19.24,11.75 -30.43,11.13 -4.79,-7.49 -3.6,-16.81 -6.47,-24.97 -7.08,9.89 -16.27,19.06 -27.94,23.21 -5.44,2.23 -12.92,1.1 -15.75,-4.54 -2.63,-5.36 -4.13,-12.02 -1.33,-17.59 2.48,-5.04 8.01,-7.24 13.01,-9.03 12.05,-3.74 24.84,-5.47 36.21,-11.24 13.93,-6.5 26.38,-16.68 41.77,-19.62 5.85,-1.17 11.76,0.2 17.22,2.38 13.89,-7.68 27.73,-16.76 43.79,-18.92 8.16,-1.34 16.46,0.57 23.96,3.84 10.9,-5.03 21.8,-10.94 33.97,-12.08 7.22,-0.97 14.5,0.33 21.53,2.02 11.01,-6.34 20.28,-15.62 32.36,-20.09 8.34,-3.06 17.8,-1.96 25.58,2.22zm-631.49 -592.24c61.85,-20.79 126.07,-36.16 191.47,-38.99 37.41,-1.44 75.46,-0.36 111.84,9.35 35.5,9.35 68.61,27.28 96.11,51.57 45.42,39.62 76.07,92.49 105.96,144.04 19.23,-25.14 32.65,-54.07 51.16,-79.71 6.34,-9.05 13.02,-17.99 21.35,-25.34 5.53,-5.39 14.23,-3.31 20.45,-0.23 10.18,5.37 19.4,14.92 20.68,26.81 0.72,11.64 -6.83,21.49 -14.23,29.66 -15.28,16.45 -33.8,29.6 -48.32,46.79 -6.53,7.78 -11.86,17.53 -10.91,28.04 1.03,16.52 8.67,32.03 18.58,45.04 5.68,7.23 12.83,14.07 21.95,16.49 5.98,1.49 11.92,-2.2 14.9,-7.28 5.48,-8.69 6.38,-19.19 7.73,-29.12 -7.5,-9.01 -19.88,-10.72 -30.89,-10.29 -1.35,-17.91 22.04,-22.39 25.52,-38.32 -0.96,-10.99 -6.69,-21.28 -5.93,-32.47 0.07,-3.08 1.98,-5.6 3.48,-8.13 19.56,19.93 25.85,48.54 29.42,75.3 2.56,19.55 3.12,39.26 4.04,58.94 35.82,6.61 74.61,12.95 102.11,39.04 26.14,25.82 40.45,61.8 45.58,97.71 5.35,35.73 -4.31,71.91 -20.18,103.81 -11.48,22.07 -26.27,43.6 -47.71,57.04 -15.08,9.5 -34.79,13.1 -51.5,5.8 -12.5,-6.07 -19.31,-19.11 -24.12,-31.51 -7.71,-20.07 -10.58,-41.55 -17.41,-61.91 -2.63,-9.5 -7.58,-19.84 -2.84,-29.53 9.74,-22.04 28.12,-38.63 40.1,-59.35 12.71,-20.26 15.84,-46.51 6.87,-68.83 -3.25,-7.66 -6.63,-15.68 -12.11,-21.91 -23.82,-12.18 -51.41,-14.65 -77.73,-12.6 -30.95,2.94 -61.68,12.58 -87.44,30.22 -17.12,11.77 -32.18,27.93 -38.61,48.04 -6.78,20.82 -3.21,45.29 11.04,62.25 11.14,13.37 26.88,21.98 42.83,28.34 3.51,-11.28 -5.48,-22.02 -2.11,-33.35 5.37,-23.46 41.77,-29.08 54.79,-9.35 0.44,8.77 -3.26,17.53 -9.58,23.6 -4.63,4.36 -9.97,7.84 -15.01,11.69 20.58,2.2 41.64,2.89 61.46,9.43 6.83,2.54 13.93,5.62 18.9,11.13 8.49,15.03 13.87,31.97 14.7,49.27 1.16,21.4 -5.87,43.29 -20.18,59.38 -11.91,13.55 -28.16,22.85 -45.44,27.61 -42.5,11.82 -87.48,10.41 -129.8,23.02 -66.24,19.39 -126.99,53.91 -182.83,93.93 -24.74,18.36 -50.97,35.14 -72.41,57.5 -10.47,11.29 -20.58,23.98 -24.06,39.33 -3.55,14.52 3.28,30.4 15.16,39.08 13.69,8.54 30.7,10.24 46.45,8.34 19.56,-2.56 37,-13.6 50.46,-27.64 28.08,-29.56 44.78,-68.23 74.8,-96.14 15.46,-14.52 35.24,-24.67 56.45,-27.06 31.55,-3.86 62.36,6.45 93.69,7.74 34.29,0.63 68.72,-2.95 102.02,-11.31 24.36,-6.36 48.74,-15.14 68.99,-30.51 12.97,-9.8 23.41,-23.36 27.39,-39.33 10.93,9.77 15.75,24.33 18.72,38.25 3.44,18.76 4.38,38.98 -2.85,56.99 -4.59,11.88 -16.83,18.8 -28.86,20.94 -29.59,4.31 -58.26,-11.4 -87.81,-5.8 -19.11,3.22 -35.71,14.61 -48.93,28.34 -15.25,14.85 -28.13,33.12 -47.61,42.81 -16.63,8.36 -36.5,7.28 -53.55,0.79 -16.46,-6.16 -32.1,-15.8 -50.07,-16.82 -23.29,-1.21 -45.73,9.13 -63.71,23.31 -27.31,21.14 -45.57,52.04 -74.54,71.23 -21.31,14.38 -48.58,16.88 -73.39,12.52 -24.09,-4.25 -45.76,-18.99 -59.35,-39.23 -17.91,-25.92 -24.29,-58.05 -24.54,-89.11 0.49,-39.68 10.38,-78.83 26.07,-115.14 25.95,-59.8 66.07,-112.03 108.45,-161.04 24.9,-27.97 52.67,-53.14 79.81,-78.85 27.98,-27.23 58.01,-53.44 78.28,-87.26 11.7,-19.41 19.63,-42.78 14.35,-65.5 -7.14,-32 -24.62,-60.27 -40.54,-88.48 -19.93,-33.66 -36.91,-69.07 -58.49,-101.75 -14.69,-21.86 -31.6,-42.99 -53.96,-57.43 -16.8,-11.2 -36.71,-16.37 -56.29,-20.19 -62.26,-11.08 -125.59,-1.71 -188.27,-3.7zm460.43 275.17l0 0c-9.77,7.41 -17.86,20.27 -13.21,32.8 15.1,-14.53 33.84,-25.57 54.34,-30.29 10.47,-2.61 21.57,-5.24 29.7,-12.85 -23.01,-10.5 -51.26,-4.88 -70.83,10.34zm-332.22 10.24l0 0c-11.69,20.54 -15.6,46.54 -6.86,68.9 8.79,22.79 33.51,39.21 58.16,35.41 16.99,-2.18 31.15,-14.33 38.86,-29.23 -7.6,-14.78 -27.24,-16.02 -35.76,-29.93 15.1,-7.39 32.39,-3.37 48.16,-7.6 4.78,-7.55 1.71,-17.14 2.04,-25.51 -27.44,-4.29 -48.02,-26.85 -75.52,-30.62 -12.95,-2 -23.17,8.29 -29.08,18.58z"/>
   <path class="fil1" d="M1074.69 1465.97c17.17,-2.02 36.77,-3.03 51.22,8.19 17.96,14.04 16.87,44.38 -0.05,58.85 -15.34,13.69 -37.81,17.48 -57.5,13.05 -13.35,-2.89 -26.52,-11.73 -30.49,-25.37 -3.44,-12.26 -3.6,-26.54 3.97,-37.32 7.49,-10.59 20.5,-15.39 32.85,-17.4zm-20.89 -759.95c5.91,-10.29 16.13,-20.58 29.08,-18.58 27.5,3.77 48.08,26.33 75.52,30.62 -0.33,8.37 2.74,17.96 -2.04,25.51 -15.77,4.23 -33.06,0.21 -48.16,7.6 8.52,13.91 28.16,15.15 35.76,29.93 -7.71,14.9 -21.87,27.05 -38.86,29.23 -24.65,3.8 -49.37,-12.62 -58.16,-35.41 -8.74,-22.36 -4.83,-48.36 6.86,-68.9zm332.22 -10.24c19.57,-15.22 47.82,-20.84 70.83,-10.34 -8.13,7.61 -19.23,10.24 -29.7,12.85 -20.5,4.72 -39.24,15.76 -54.34,30.29 -4.65,-12.53 3.44,-25.39 13.21,-32.8zm-124.16 -695.78l6.16 0c2.38,1.26 4.68,2.68 7.03,4.09 0.61,8.04 -0.63,16.27 -4.51,23.41 -9.01,17.2 -25.03,29.17 -35.4,45.42 -19.43,29.73 -29.7,64.45 -35.52,99.21 -7.64,47.04 -7.33,95.04 -3.04,142.39 60.52,31.71 124.54,56.54 183.44,91.37 17.46,10.36 34.63,21.32 50.47,34.06 14.61,11.33 29.98,23.28 48.66,26.66 13.3,2.58 26.81,0.26 39.79,-2.95 9.46,2.3 17.42,9.82 22.07,18.27 7.89,15.19 7.01,32.85 7.95,49.44 0.75,46.36 23.53,89.6 21.13,136.25 36.72,5.52 72.34,20.9 100.07,45.86 33.05,29.15 52.36,72.25 54.17,116.12l0 18.29c-1.45,50 -25.63,97.77 -62.13,131.41 -12.5,10.86 -28.16,18.74 -37.05,33.26 -4.12,7.01 -7.17,15.12 -6.93,23.35 17.71,26.69 28.48,58.13 29.94,90.18 0.29,14.69 -1.6,29.95 -8.9,42.94 -7.58,13.42 -21.89,23.51 -37.53,24.18 -14.34,0.74 -28.83,-3.43 -43.04,-0.15 -9.36,2.6 -17.59,8 -25.55,13.39 -15.97,11.16 -31.01,23.61 -47.41,34.15 -58.92,39.08 -121.62,71.94 -183.46,106.09 2.65,12.09 14.72,17.65 21.5,26.99 5.35,7.35 5.22,17.49 1.53,25.56 -4.83,10.83 -12.4,20.82 -13.5,32.98 -2.18,22.36 3.34,44.9 -0.48,67.17 -1.32,10.67 -8.67,19.4 -17.63,24.83 -22.61,14 -49.13,19.06 -74.05,27.42 -79.26,26.7 -161.82,44.74 -245.53,48.36l-55.75 0c-14.67,-0.95 -29.42,-1.55 -43.8,-4.79 -34.54,-7.35 -65.89,-24.22 -97.93,-38.42 -65.24,-28.75 -129.15,-60.81 -189.57,-98.79 -57.66,-36.27 -112.02,-78.14 -159.96,-126.63 -47.34,-47.44 -87.98,-101.35 -121.68,-159.24 -13.24,-22.96 -26.77,-46.94 -29.74,-73.73l0 -12.83c0.61,-4.74 1.67,-9.41 3.33,-13.87 3.96,-11.68 15.84,-19.23 17.44,-31.95 3.84,-15.08 -0.27,-31.26 5.17,-45.95 7.14,-15.82 26.87,-18.59 42.29,-18.59 14.63,-11.57 18.25,-32.13 33.71,-42.87 13.3,-9.11 30.07,-11.28 45.82,-11.64 28.18,-0.75 56.02,4.44 84.02,6.74 19.46,-14.93 40.58,-27.56 59.75,-42.88 19.58,-15.5 37.64,-34.43 46.3,-58.29 6.89,-19.31 7.23,-40.25 6.35,-60.5 -1.75,-37.32 -9.09,-74.24 -9.09,-111.64 1.45,-88.06 15.93,-175.26 34.24,-261.21 8.07,-37.42 15.75,-74.97 25.87,-111.91 6.49,-22.92 13.97,-45.71 24.85,-66.97 14.29,-26.89 34.16,-50.31 55.28,-72.06 35.04,-34.95 74.5,-64.97 113.22,-95.64 13.72,-10.47 29.7,-20.18 47.61,-19.47 -0.15,15.56 -3.25,30.97 -8.58,45.56 -12.27,33.97 -32.18,64.69 -43.01,99.23 -7.8,23.62 -8.75,48.88 -7.24,73.51 3.48,57.64 23.75,112.2 38.36,167.55 26.97,-6.11 53.71,-13.19 80.45,-20.23 18.94,-43.53 34.22,-88.54 52.87,-132.18 12.41,-29.52 24.43,-59.32 40.46,-87.08 7.73,-13.46 16.69,-26.27 27.57,-37.37 18.4,-18.49 39.55,-33.84 59.84,-50.15 36.36,-28.57 68.16,-63.66 109.3,-85.71zm-336.27 420.61l0 0c62.68,1.99 126.01,-7.38 188.27,3.7 19.58,3.82 39.49,8.99 56.29,20.19 22.36,14.44 39.27,35.57 53.96,57.43 21.58,32.68 38.56,68.09 58.49,101.75 15.92,28.21 33.4,56.48 40.54,88.48 5.28,22.72 -2.65,46.09 -14.35,65.5 -20.27,33.82 -50.3,60.03 -78.28,87.26 -27.14,25.71 -54.91,50.88 -79.81,78.85 -42.38,49.01 -82.5,101.24 -108.45,161.04 -15.69,36.31 -25.58,75.46 -26.07,115.14 0.25,31.06 6.63,63.19 24.54,89.11 13.59,20.24 35.26,34.98 59.35,39.23 24.81,4.36 52.08,1.86 73.39,-12.52 28.97,-19.19 47.23,-50.09 74.54,-71.23 17.98,-14.18 40.42,-24.52 63.71,-23.31 17.97,1.02 33.61,10.66 50.07,16.82 17.05,6.49 36.92,7.57 53.55,-0.79 19.48,-9.69 32.36,-27.96 47.61,-42.81 13.22,-13.73 29.82,-25.12 48.93,-28.34 29.55,-5.6 58.22,10.11 87.81,5.8 12.03,-2.14 24.27,-9.06 28.86,-20.94 7.23,-18.01 6.29,-38.23 2.85,-56.99 -2.97,-13.92 -7.79,-28.48 -18.72,-38.25 -3.98,15.97 -14.42,29.53 -27.39,39.33 -20.25,15.37 -44.63,24.15 -68.99,30.51 -33.3,8.36 -67.73,11.94 -102.02,11.31 -31.33,-1.29 -62.14,-11.6 -93.69,-7.74 -21.21,2.39 -40.99,12.54 -56.45,27.06 -30.02,27.91 -46.72,66.58 -74.8,96.14 -13.46,14.04 -30.9,25.08 -50.46,27.64 -15.75,1.9 -32.76,0.2 -46.45,-8.34 -11.88,-8.68 -18.71,-24.56 -15.16,-39.08 3.48,-15.35 13.59,-28.04 24.06,-39.33 21.44,-22.36 47.67,-39.14 72.41,-57.5 55.84,-40.02 116.59,-74.54 182.83,-93.93 42.32,-12.61 87.3,-11.2 129.8,-23.02 17.28,-4.76 33.53,-14.06 45.44,-27.61 14.31,-16.09 21.34,-37.98 20.18,-59.38 -0.83,-17.3 -6.21,-34.24 -14.7,-49.27 -4.97,-5.51 -12.07,-8.59 -18.9,-11.13 -19.82,-6.54 -40.88,-7.23 -61.46,-9.43 5.04,-3.85 10.38,-7.33 15.01,-11.69 6.32,-6.07 10.02,-14.83 9.58,-23.6 -13.02,-19.73 -49.42,-14.11 -54.79,9.35 -3.37,11.33 5.62,22.07 2.11,33.35 -15.95,-6.36 -31.69,-14.97 -42.83,-28.34 -14.25,-16.96 -17.82,-41.43 -11.04,-62.25 6.43,-20.11 21.49,-36.27 38.61,-48.04 25.76,-17.64 56.49,-27.28 87.44,-30.22 26.32,-2.05 53.91,0.42 77.73,12.6 5.48,6.23 8.86,14.25 12.11,21.91 8.97,22.32 5.84,48.57 -6.87,68.83 -11.98,20.72 -30.36,37.31 -40.1,59.35 -4.74,9.69 0.21,20.03 2.84,29.53 6.83,20.36 9.7,41.84 17.41,61.91 4.81,12.4 11.62,25.44 24.12,31.51 16.71,7.3 36.42,3.7 51.5,-5.8 21.44,-13.44 36.23,-34.97 47.71,-57.04 15.87,-31.9 25.53,-68.08 20.18,-103.81 -5.13,-35.91 -19.44,-71.89 -45.58,-97.71 -27.5,-26.09 -66.29,-32.43 -102.11,-39.04 -0.92,-19.68 -1.48,-39.39 -4.04,-58.94 -3.57,-26.76 -9.86,-55.37 -29.42,-75.3 -1.5,2.53 -3.41,5.05 -3.48,8.13 -0.76,11.19 4.97,21.48 5.93,32.47 -3.48,15.93 -26.87,20.41 -25.52,38.32 11.01,-0.43 23.39,1.28 30.89,10.29 -1.35,9.93 -2.25,20.43 -7.73,29.12 -2.98,5.08 -8.92,8.77 -14.9,7.28 -9.12,-2.42 -16.27,-9.26 -21.95,-16.49 -9.91,-13.01 -17.55,-28.52 -18.58,-45.04 -0.95,-10.51 4.38,-20.26 10.91,-28.04 14.52,-17.19 33.04,-30.34 48.32,-46.79 7.4,-8.17 14.95,-18.02 14.23,-29.66 -1.28,-11.89 -10.5,-21.44 -20.68,-26.81 -6.22,-3.08 -14.92,-5.16 -20.45,0.23 -8.33,7.35 -15.01,16.29 -21.35,25.34 -18.51,25.64 -31.93,54.57 -51.16,79.71 -29.89,-51.55 -60.54,-104.42 -105.96,-144.04 -27.5,-24.29 -60.61,-42.22 -96.11,-51.57 -36.38,-9.71 -74.43,-10.79 -111.84,-9.35 -65.4,2.83 -129.62,18.2 -191.47,38.99zm-35.14 214.47l0 0c37.68,11.84 77.44,16.97 113.82,32.9 -5.86,37.82 -5.46,76.94 3.77,114.22 5.92,22.65 15.29,45.48 32.61,61.86 15.86,15.83 40.09,21.72 61.8,17.65 19.48,-3.87 35.86,-16.72 48.52,-31.49 22.92,-26.62 37.3,-59.01 55.46,-88.76 10.45,4.11 21.07,7.86 31.19,12.72 -73.04,-75.46 -162.83,-134.81 -260.95,-172.18 -31.89,11.33 -63.19,27.75 -86.22,53.08zm-486.18 324.58l0 0c-0.94,10.77 1.31,21.8 6.54,31.28 4.52,8.23 10.61,15.42 16.22,22.92 20.59,-14.26 36.34,-34.4 48.34,-56.17 -22.74,-8.14 -48.81,-7.31 -71.1,1.97zm-67.78 54.4l0 0c-14.87,19.56 -30.33,39.15 -40.27,61.8 -5.07,10.77 -3,23.1 0.79,33.91 6.11,18.12 15.06,35.11 24.21,51.85 31.57,56.8 70.83,109.28 116.44,155.55 43.74,44.7 93.15,83.66 145.67,117.53 65.91,42.4 136.62,76.91 209.23,106.19 32.11,12.68 63.1,29.8 97.66,34.9 78.61,8.92 158.68,3.56 235.73,-14.29 57.38,-13.68 113.82,-33.75 164.61,-64.11 -12.6,3.71 -26.16,6.49 -39.1,2.81 -10.05,-2.79 -18.36,-10.81 -21.62,-20.69 -7.08,-21.06 5.13,-46.45 26.14,-53.83 12.63,-4.83 26.63,-2.69 39.05,1.78 0.09,-18.18 0.57,-36.85 -5.25,-54.32 -2.01,-6.4 -5.58,-12.18 -10.1,-17.08 -35.57,5.06 -68.78,19.31 -101.99,32.32 -23.89,9.55 -48.57,16.86 -72.99,24.97 -33.35,10.54 -67.67,20.07 -102.93,20 -30.85,-0.25 -60.54,-10.32 -88.58,-22.38 -37.23,-15.99 -72.29,-36.41 -107.82,-55.74 -114.56,-60.94 -223.5,-135.1 -312.9,-229.81 -45.25,-47.89 -85.26,-100.79 -118.34,-157.78 -12.74,15.32 -25.3,30.79 -37.64,46.42zm1220.59 -1.21l0 0c-7.78,-4.18 -17.24,-5.28 -25.58,-2.22 -12.08,4.47 -21.35,13.75 -32.36,20.09 -7.03,-1.69 -14.31,-2.99 -21.53,-2.02 -12.17,1.14 -23.07,7.05 -33.97,12.08 -7.5,-3.27 -15.8,-5.18 -23.96,-3.84 -16.06,2.16 -29.9,11.24 -43.79,18.92 -5.46,-2.18 -11.37,-3.55 -17.22,-2.38 -15.39,2.94 -27.84,13.12 -41.77,19.62 -11.37,5.77 -24.16,7.5 -36.21,11.24 -5,1.79 -10.53,3.99 -13.01,9.03 -2.8,5.57 -1.3,12.23 1.33,17.59 2.83,5.64 10.31,6.77 15.75,4.54 11.67,-4.15 20.86,-13.32 27.94,-23.21 2.87,8.16 1.68,17.48 6.47,24.97 11.19,0.62 22.24,-3.55 30.43,-11.13 8.38,-6.47 13.52,-16.83 23.36,-21.34 -0.31,12.42 -1.73,25.27 2.05,37.34 10.74,0.45 22.02,-1.52 30.7,-8.22 14.71,-10.94 20.58,-29.35 33.1,-42.25 5.21,10.47 -1.42,22.74 4.25,33.12 6.44,-0.92 13.03,-1.99 18.78,-5.28 13.44,-6.98 20.63,-20.9 29.53,-32.44 2.7,13.01 -6.65,24.45 -5.44,37.43 10.74,4.79 23.73,5.26 34.11,-0.74 14.27,-7.95 24.56,-21.42 32.92,-35.12 -1.66,7.89 -2.37,16.99 3.42,23.48 8.68,-0.45 17.66,-1.51 25.33,-5.91 11.86,-6.31 18.69,-18.81 22.54,-31.19 4.78,-16.16 6.6,-32.97 8.56,-49.64 -5.28,-3.89 -11.47,-6.96 -18.18,-6.77 -13.89,-0.78 -26.88,5.91 -37.55,14.25zm-317.33 435.89l0 0c-6.85,7.05 -8.99,17.78 -5.68,26.99 2.15,-7.26 5.57,-14.32 11.35,-19.39 11.18,-10.27 26.31,-13.67 39.9,-19.47 -15.86,-3.64 -34.09,-0.22 -45.57,11.87zm-884 -379.31c10.2,-1.46 20.95,-0.55 30.25,4.14 19.22,8.94 32.13,29.6 32.09,50.76 0.41,12.34 -2.7,26.03 -12.74,34.12 -9.1,7.64 -21.87,8.52 -33.12,6.54 -22.92,-4.59 -44.3,-22.52 -48.28,-46.23 -1.81,-13.07 -0.02,-27.77 9.13,-37.89 5.8,-6.49 14.25,-9.93 22.67,-11.44zm5.01 11.76l0 0c9.06,11.14 22,18.76 29.4,31.32 6.09,9.73 7.5,21.62 6.36,32.88 10.69,-8.63 12.54,-24.4 6.27,-36.2 -7.75,-15.75 -24.03,-28.13 -42.03,-28zm131.96 132.54c25.46,-4.68 52.94,9.91 63.03,33.8 6.56,15.21 6,33.73 -2.33,48.17 -6.14,10.61 -18.95,15.71 -30.86,14.64 -20.97,-1.73 -40.13,-14.18 -52.47,-30.88 -9.51,-12.83 -13.82,-30.56 -7.46,-45.69 5.77,-11.26 18.02,-17.82 30.09,-20.04zm4.22 16.42l0 0c11.24,5.33 23.26,10.17 31.87,19.54 8.94,8.98 11.89,22.15 11.46,34.46 5.01,-5.18 8.36,-12.4 7.24,-19.7 -1.64,-12.38 -10.18,-22.77 -20.18,-29.71 -8.72,-5.87 -20.41,-9.91 -30.39,-4.59zm152.45 123.94c24.16,-4.32 51.19,6.81 63.8,28.2 7.51,12.72 8.58,28.79 3.86,42.67 -8.46,12.1 -23.03,19.55 -37.79,19.67 -24.7,0.22 -49.06,-16.36 -56.83,-40.02 -3.56,-11.44 -3.2,-24.64 3.08,-35.08 5.12,-8.45 14.33,-13.65 23.88,-15.44zm-1.43 17.53l0 0c10.24,0.29 20.85,1.21 29.9,6.47 13.85,7.32 21.89,21.39 29.37,34.52 4.07,-12.14 -1.16,-25.6 -10.89,-33.4 -12.99,-11.12 -32.7,-15.59 -48.38,-7.59zm208.49 86.99c17.48,-2.23 36.49,1.52 49.96,13.41 15.14,12.81 19.95,36.47 10.78,54.05 -7.17,12.69 -21.87,19.12 -35.96,19.82 -17.39,1.19 -35.66,-4.48 -48.04,-17.02 -12.4,-12.58 -15.95,-32.27 -10.87,-48.87 4.92,-14.03 20.65,-19.55 34.13,-21.39zm-8.76 11.27l0 0c21.03,4.9 46.83,8.07 58.92,28.48 -1.38,-10.2 -8.03,-19.26 -16.93,-24.21 -12.6,-7.3 -28.17,-8.26 -41.99,-4.27zm218.65 7.36l0 0c-11.74,4.1 -22.5,13.36 -24.48,26.2 13.31,-13.85 32.92,-20.36 51.85,-20.14 12.09,0.02 23.91,4.52 32.89,12.65 -2.49,-5.3 -5.32,-10.81 -10.37,-14.11 -14.36,-10.07 -33.76,-10.18 -49.89,-4.6z"/>
   <path class="fil2" d="M336.49 1014.06c12.34,-15.63 24.9,-31.1 37.64,-46.42 33.08,56.99 73.09,109.89 118.34,157.78 89.4,94.71 198.34,168.87 312.9,229.81 35.53,19.33 70.59,39.75 107.82,55.74 28.04,12.06 57.73,22.13 88.58,22.38 35.26,0.07 69.58,-9.46 102.93,-20 24.42,-8.11 49.1,-15.42 72.99,-24.97 33.21,-13.01 66.42,-27.26 101.99,-32.32 4.52,4.9 8.09,10.68 10.1,17.08 5.82,17.47 5.34,36.14 5.25,54.32 -12.42,-4.47 -26.42,-6.61 -39.05,-1.78 -21.01,7.38 -33.22,32.77 -26.14,53.83 3.26,9.88 11.57,17.9 21.62,20.69 12.94,3.68 26.5,0.9 39.1,-2.81 -50.79,30.36 -107.23,50.43 -164.61,64.11 -77.05,17.85 -157.12,23.21 -235.73,14.29 -34.56,-5.1 -65.55,-22.22 -97.66,-34.9 -72.61,-29.28 -143.32,-63.79 -209.23,-106.19 -52.52,-33.87 -101.93,-72.83 -145.67,-117.53 -45.61,-46.27 -84.87,-98.75 -116.44,-155.55 -9.15,-16.74 -18.1,-33.73 -24.21,-51.85 -3.79,-10.81 -5.86,-23.14 -0.79,-33.91 9.94,-22.65 25.4,-42.24 40.27,-61.8zm67.78 -54.4c22.29,-9.28 48.36,-10.11 71.1,-1.97 -12,21.77 -27.75,41.91 -48.34,56.17 -5.61,-7.5 -11.7,-14.69 -16.22,-22.92 -5.23,-9.48 -7.48,-20.51 -6.54,-31.28zm-48.52 109.77l0 0c-8.42,1.51 -16.87,4.95 -22.67,11.44 -9.15,10.12 -10.94,24.82 -9.13,37.89 3.98,23.71 25.36,41.64 48.28,46.23 11.25,1.98 24.02,1.1 33.12,-6.54 10.04,-8.09 13.15,-21.78 12.74,-34.12 0.04,-21.16 -12.87,-41.82 -32.09,-50.76 -9.3,-4.69 -20.05,-5.6 -30.25,-4.14zm136.97 144.3l0 0c-12.07,2.22 -24.32,8.78 -30.09,20.04 -6.36,15.13 -2.05,32.86 7.46,45.69 12.34,16.7 31.5,29.15 52.47,30.88 11.91,1.07 24.72,-4.03 30.86,-14.64 8.33,-14.44 8.89,-32.96 2.33,-48.17 -10.09,-23.89 -37.57,-38.48 -63.03,-33.8zm156.67 140.36l0 0c-9.55,1.79 -18.76,6.99 -23.88,15.44 -6.28,10.44 -6.64,23.64 -3.08,35.08 7.77,23.66 32.13,40.24 56.83,40.02 14.76,-0.12 29.33,-7.57 37.79,-19.67 4.72,-13.88 3.65,-29.95 -3.86,-42.67 -12.61,-21.39 -39.64,-32.52 -63.8,-28.2zm207.06 104.52l0 0c-13.48,1.84 -29.21,7.36 -34.13,21.39 -5.08,16.6 -1.53,36.29 10.87,48.87 12.38,12.54 30.65,18.21 48.04,17.02 14.09,-0.7 28.79,-7.13 35.96,-19.82 9.17,-17.58 4.36,-41.24 -10.78,-54.05 -13.47,-11.89 -32.48,-15.64 -49.96,-13.41zm218.24 7.36l0 0c-12.35,2.01 -25.36,6.81 -32.85,17.4 -7.57,10.78 -7.41,25.06 -3.97,37.32 3.97,13.64 17.14,22.48 30.49,25.37 19.69,4.43 42.16,0.64 57.5,-13.05 16.92,-14.47 18.01,-44.81 0.05,-58.85 -14.45,-11.22 -34.05,-10.21 -51.22,-8.19z"/>
  </g>
 </g>
</svg>
