<?xml version="1.0" encoding="UTF-8"?>
<!DOCTYPE svg PUBLIC "-//W3C//DTD SVG 1.1//EN" "http://www.w3.org/Graphics/SVG/1.1/DTD/svg11.dtd">
<!-- Creator: CorelDRAW -->
<svg xmlns="http://www.w3.org/2000/svg" xml:space="preserve" width="2000px" height="1600px" version="1.1" style="shape-rendering:geometricPrecision; text-rendering:geometricPrecision; image-rendering:optimizeQuality; fill-rule:evenodd; clip-rule:evenodd"
viewBox="0 0 2000 1600"
 xmlns:xlink="http://www.w3.org/1999/xlink">
 <defs>
  <style type="text/css">
   <![CDATA[
    .fil0 {fill:#FDC52E}
    .fil1 {fill:#513629;fill-rule:nonzero}
   ]]>
  </style>
 </defs>
 <g id="Capa_x0020_1">
  <metadata id="CorelCorpID_0Corel-Layer"/>
  <g id="Wyoming_x0020_Cowboys.cdr">
   <path class="fil0" d="M1107.3 36.61c0.1,6.65 -0.58,13.3 -0.42,19.97 0.04,1.67 0.64,11.65 2.5,12.43 9.24,3.89 18.56,7.48 27.52,12.03 17.75,9.01 31.67,24.95 38.77,43.49 0.46,1.2 0.73,2.28 0.88,3.55 0.94,7.58 0.35,14.9 -0.24,22.46 -0.23,3.03 -1.2,5.57 -3.05,7.99 -7.57,9.94 -17.7,17.28 -28.55,23.28 -18.35,10.15 -36.73,16.62 -57.94,13.97 -9.29,-1.16 -18.17,-3.9 -27.03,-6.82 -4.42,-1.46 -8.81,-2.92 -13.22,-4.31 -0.9,1.14 -2,2.18 -3.27,3.08 -16.44,11.62 -34.81,18.89 -51.84,29.26 -0.13,0.08 -0.24,0.14 -0.38,0.22 -0.84,0.48 -1.64,1.08 -2.38,1.71 -4.85,4.1 -8.58,9.08 -13.77,13.18 -4.33,3.56 -13.34,11.05 -14.68,16.66 -0.84,3.53 1.73,7.76 3.63,10.48 12.33,17.63 25.49,34.85 40.49,50.32 11.5,-5.6 14.26,-18.28 27.61,-21.43 1.2,-0.29 2.26,-0.41 3.5,-0.41 3.14,0.01 6.2,-0.4 9.18,-1.17 0.04,-1.7 0.09,-3.4 0.15,-5.09 0.2,-5.11 2.67,-9.41 6.97,-12.16 4.31,-2.74 9.26,-3.16 13.97,-1.19 12.71,5.34 16.72,16.21 21.43,26.89 -0.96,-11.64 -0.35,-23.39 6.41,-29.8 0.49,-0.46 0.93,-0.83 1.48,-1.23 2.83,-2.07 5.44,-3.15 8.3,-4.69 0.95,-2.32 1.67,-5.45 2.79,-7.83 1.9,-4.04 5.1,-6.78 9.39,-8.04 11.47,-3.39 21.17,-9.16 33.33,-11.58 18.52,-3.68 38.1,-3.59 55.5,4.55 13.63,6.37 17.34,9.36 21.42,19.75 7.84,3.03 14.7,8.49 18.02,16.4 2.29,5.17 5.09,11.29 9.23,15.22 2.26,2.14 3.65,4.57 4.34,7.61 1.93,8.52 5.04,16.71 6.93,25.29 1.16,5.3 -0.39,10.41 -4.3,14.15 -7.98,7.65 -16.44,15.76 -22.17,25.29 -3.18,5.27 -8.86,8 -14.97,7.17 -1.87,-0.25 -5.41,-1.2 -7.63,-1.43 -3.91,2.45 -7.73,3.82 -11.6,5.58 -0.28,0.6 -0.54,1.22 -0.79,1.8 -1.96,4.51 -3.86,8.46 -7.12,12.22 -1.28,1.47 -2.59,2.52 -4.3,3.43 -2.98,1.59 -6.22,2.49 -9.58,2.72 -3.51,0.25 -6.63,-0.26 -10.04,-0.96 -0.38,-0.08 -0.85,-0.19 -1.3,-0.27 -11.4,4.27 -21.63,8.78 -33.99,9.86 0.31,1.39 0.54,2.93 0.73,4.77 0.04,0.34 0.06,0.63 0.07,0.97 0.16,3.9 -0.83,9.99 -0.19,13.38 0.33,1.79 0.86,3.48 1.55,5.16 2.47,6.1 6.12,12.1 8.84,18.24 5.27,11.89 8.59,24.29 10.93,37.06 12.51,68.54 6.15,139.12 19.8,207.14 1.07,3.78 1.19,7.43 0.92,11.23 1.28,-0.52 2.5,-1.06 3.53,-1.49 4.83,-2.05 9.53,-3.94 14.73,-4.88 4.56,-0.83 8.82,0.3 12.37,3.28 14.83,12.4 19.59,29.59 24.09,47.49 1.54,6.11 -0.68,12.2 -5.77,15.9 -5.09,3.7 -11.57,3.92 -16.9,0.57 -2.02,-1.27 -6.79,-5.1 -10.48,-7.67 -0.3,1.51 -0.44,3.1 -0.56,4.46 -0.55,5.96 -0.98,11.26 -3.65,16.79 -4.17,8.68 -11.77,13.45 -20.71,15.77 0.27,1.76 0.58,3.42 0.98,4.68 1.38,1.22 3.35,2.35 4.9,3.32 3.8,2.4 7.24,4.82 10.29,8.15 3.77,3.89 7.03,8.19 9.91,12.78 8.05,12.8 12.36,27.67 20.4,39.99 0.16,0.25 0.29,0.46 0.44,0.72 0.19,0.33 0.66,0.71 1.3,1.13 0.17,-0.23 0.33,-0.45 0.48,-0.66 1.29,-14.28 1.91,-28.61 2.57,-42.92 0.38,-8.21 7.28,-14.62 15.49,-14.4 8.21,0.23 14.76,7 14.69,15.22 -0.16,19.83 7.01,35.47 12.75,53.89 3.14,10.08 5.3,19.81 5.87,29.96 6.9,2.57 13.12,6.48 18.16,12.47 7.38,8.74 10.39,19.81 13.49,30.57 1.26,4.4 0.52,8.89 -1.84,12.46 4.01,1.24 8,2.66 11.93,4.54 9.21,4.16 14.53,11.7 18.96,20.37 3.21,6.28 1.76,13.71 -3.58,18.31 -2.05,1.76 -4.41,2.9 -6.88,3.4 13.47,8.6 25.96,18.53 36.27,31.17 7.27,8.91 12.88,18.92 17.54,29.39 2.78,6.22 1.18,13.25 -4.01,17.66 -1.2,1.02 -2.51,1.83 -3.88,2.42 4.62,0.8 9.25,1.47 13.78,2.16 0.34,0.05 0.63,0.11 0.97,0.18 20.58,4.53 32.55,19.01 46.3,33.38 4.24,4.43 5.39,10.59 3.03,16.25 -2.36,5.66 -7.55,9.18 -13.68,9.29 -0.79,0.01 -1.59,-0.04 -2.37,-0.1 -3.14,5.73 -6.26,12.38 -10.33,16.3 -1.44,1.4 -3.03,2.56 -4.72,3.54 0.83,0.51 1.67,1.07 2.5,1.69 3.14,2.33 6.11,4.88 8.95,7.56 11.28,10.7 21.43,25.97 34.15,34.47 7.96,5.32 12.2,12.32 17.06,20.22 2.91,4.73 3.06,10.25 0.4,15.13 -1.9,3.49 -4.79,6.28 -8.42,7.95 -9.45,4.32 -18.39,-0.56 -25.9,-6.06 -5.35,-3.93 -10.41,-8.23 -15.89,-11.99 -3.34,-2.29 -9.38,-6.12 -13.54,-6.34 -0.41,-0.03 -1.01,-0.05 -1.67,-0.04 0.68,2.77 2.2,6.3 2.93,7.85 0.93,1.97 3.3,7.81 4.31,8.93 11.08,10.28 24.58,17.28 35.47,28.16 8.27,8.25 14.1,17.62 17.36,28.89 1.85,6.38 -0.52,12.95 -6.02,16.68 -5.49,3.74 -12.47,3.53 -17.73,-0.54 -2.96,-2.3 -10.76,-9.74 -14.41,-10.21 -1.55,-0.2 -7.25,-0.87 -10.11,-0.23 -0.28,0.89 -0.5,1.81 -0.53,2.56 12.81,7.56 26.36,13.75 38.96,21.78 4.95,3.15 7.52,8.48 6.91,14.32 -0.62,5.84 -4.25,10.52 -9.75,12.56 -13.48,5.02 -27.31,9.41 -40.87,14.27 -8.09,2.89 -16.21,5.88 -24.13,9.2 -3.82,1.6 -10.18,4.2 -13.49,6.64 -0.08,0.06 -0.14,0.11 -0.22,0.16 -2.09,1.49 -4.04,3.16 -5.9,4.93 -11.08,10.51 -18.68,22.41 -31.55,31.52 -10.35,7.64 -19.25,7.43 -30.79,10.74 -0.1,0.02 -0.18,0.05 -0.28,0.07 -25.88,6.88 -49.81,20.86 -73.2,33.54 -19.95,10.82 -39.51,21.84 -61.59,27.82 -3.87,1.05 -7.56,0.63 -11.1,-1.27 -11.6,-6.23 -22.54,-13.73 -31.63,-23.34 -4.66,-4.55 -5.81,-8.8 -7.92,-14.67 -2.51,-7 0.37,-14.64 6.8,-18.25 -3.78,0.48 -7.48,-0.5 -10.7,-2.86 -4.11,-3.03 -6.28,-7.48 -6.14,-12.58 0.27,-9.77 -0.13,-17.47 6.6,-25.66 2.44,-3.07 5.23,-5.8 8.29,-8.25 4.4,-3.53 9.17,-6.33 14.02,-9.19 3.84,-2.26 8.4,-4.88 11.51,-8.17 2.65,-3.12 5.64,-5.25 8.9,-6.72 -1.43,-41.69 -3.52,-83.37 -7.48,-124.9 -3.46,-29.64 -4.41,-59.45 -6.35,-89.2 -2.12,0.42 -4.15,1.06 -5.98,2 -2.93,1.51 -5.75,3.72 -8.34,5.74 -4.79,3.73 -9.49,7.46 -14.43,11 -3.95,2.82 -8.08,4.94 -12.67,6.51 -1.26,0.43 -2.88,0.82 -4.26,1.27 -0.94,2.34 -1.77,6.68 -2.09,8.46 -5.09,27.72 -6.01,57.25 -5.63,85.39 0.34,25.4 1.89,50.79 3.83,76.12 0.03,0.32 0.04,0.6 0.04,0.92 0.09,5.65 -1.15,14.76 0.36,20.02 0.06,0.21 0.11,0.38 0.16,0.59 3.44,14.04 6.74,26.93 3.56,41.24 0.4,4.68 2,11.29 2.89,15.58 2.12,10.26 4.44,20.49 6.74,30.71 2.4,10.64 4.84,21.27 7.13,31.92 1.37,6.36 3.42,14.7 3.78,21.17 1.77,24.12 12.68,48.16 17.66,71.96 1.17,5.6 -0.71,11 -5.1,14.67 -4.39,3.67 -10.04,4.56 -15.34,2.41 -1.96,-0.79 -3.87,-1.7 -5.73,-2.71 -5.61,-3.03 -13,-9.04 -18.83,-10.79 -9.59,-2.87 -18.42,-5.14 -26.92,-10.72 -4.33,-2.84 -6.75,-7.25 -6.82,-12.42 -0.41,-28.62 -20.48,-56.19 -13.88,-84.26 0.37,-1.56 0.85,-3.08 1.41,-4.57 0.87,-2.29 5.48,-10.57 5.63,-12.12 0.02,-0.2 0.04,-0.37 0.07,-0.57 3.06,-22.38 -1.44,-46.03 -4.53,-68.31 -6.36,-15.56 -11.59,-31.61 -14.75,-48.15 -0.14,-0.74 -0.22,-1.38 -0.25,-2.13 -0.36,-7.82 0.36,-17.79 -1.88,-25.29 -0.09,-0.31 -0.16,-0.57 -0.24,-0.88 -1.06,-4.56 -4.71,-10.3 -6.68,-14.68 -0.27,-0.6 -0.47,-1.13 -0.66,-1.76 -2.58,-8.41 -3.76,-17.4 -6.67,-25.6 -0.04,-0.11 -0.07,-0.2 -0.11,-0.31 -13.05,-39.56 -36.66,-82.25 -31.45,-124.97 0.85,-8.38 5.55,-14.78 11.95,-19.42 0.2,-0.51 0.39,-1.02 0.57,-1.53 -1.73,-1.41 -3.93,-2.44 -5.74,-2.96 -0.19,-0.05 -0.35,-0.1 -0.53,-0.16 -10.31,-3.39 -15.54,-10.21 -22.17,-18.04 -0.14,-0.17 -0.26,-0.32 -0.4,-0.5 -4.62,-5.94 -10.49,-11.05 -15.33,-16.93 -3.33,-4.04 -6.2,-8.38 -9,-12.79 -1.76,-2.76 -3.64,-5.87 -5.72,-8.85 0.22,12.34 -0.14,24.68 -0.86,37 0.08,3.96 -1.08,7.83 -3.45,11.07 -3.44,4.74 -6.81,5.83 -11.67,7.75 -3.59,1.99 -7.5,2.4 -11.51,1.22 -4.28,-1.26 -7.47,-4.01 -9.38,-8.04 -2.97,-6.3 -6.41,-11.47 -10.36,-17.14 -5.36,-7.69 -9.7,-14.75 -13.45,-23.42 -3.35,-7.73 -5.61,-15.69 -6.5,-24.08 -0.16,-1.43 -0.21,-2.93 -0.26,-4.43 -1.05,0 -2.09,-0.02 -3.01,-0.11 -3.9,-0.41 -7.12,-2.07 -9.72,-5 -7.12,-8.04 -12.9,-16.87 -19.03,-25.65 -3.31,-4.74 -3.67,-10.54 -0.98,-15.66 2.93,-5.57 5.11,-10.85 8.93,-16 0.36,-0.48 0.69,-0.88 1.1,-1.32 4.41,-4.7 9.93,-7.58 15.6,-10.42 1.04,-0.52 3.18,-1.54 4.92,-2.54 -4.32,-8.3 -8.67,-15.87 -11.33,-24.73 -5.56,-4.52 -13.13,-9.59 -19.69,-8.52 -1.07,1.68 -2.25,4.14 -3.23,5.78 -18.96,32.12 -32.34,66.53 -53.01,97.44 11.95,6.36 22.81,14.39 34.23,22.23 0.09,0.06 0.17,0.12 0.27,0.19 3.37,2.42 6.36,4.55 9.11,7.73 0.63,0.74 1.12,1.42 1.61,2.26 15.34,26.32 15.18,53.64 22.12,82.13 0.35,1.43 0.47,2.7 0.42,4.17 -0.05,1.28 -0.17,2.56 -0.36,3.83 -0.83,5.84 -3.23,10.73 -4.16,16.11 -0.77,4.45 -3.19,7.98 -7.05,10.32 -3.87,2.35 -8.11,2.85 -12.42,1.48 -9.99,-3.2 -19.19,-7.68 -26.26,-15.63 -2.11,-2.17 -4.97,-4.1 -7.42,-5.82 -1.08,-0.76 -2.13,-1.51 -3.16,-2.26 13.94,17.64 27.76,35.38 41.57,53.12 5.75,7.4 10.94,13.09 13.56,22.42 9.29,33.13 26.81,79.98 4.4,111.25 -4.71,6.56 -13.74,8.27 -20.51,3.86 -16.2,-10.53 -23.73,-19.19 -32.28,-36.06 -1.79,-3.51 -3.52,-6.75 -6.09,-9.77 -6.71,-7.86 -14.99,-16.67 -14.72,-27.7 0.13,-5.28 2.51,-10.49 5.31,-15.5 -6.35,-5.33 -11.85,-11.48 -16.39,-18.8 -4.91,-7.89 -7.73,-15.82 -11.53,-24.15 -1.42,-3.11 -3,-6.16 -5.03,-8.93 -9.53,-13.02 -21.66,-24.99 -33.36,-36.07 -12.18,-11.53 -24.78,-22.65 -36.69,-34.45 -9.86,-9.77 -21.13,-21.73 -27.14,-34.35 -2.43,-5.12 -1.85,-10.88 1.35,-15.28 -0.96,-5.37 -0.41,-10.58 2.71,-15.66 3.27,-6.05 6.75,-11.99 10.2,-17.94 -18.71,-6.45 -37.43,-12.84 -55.51,-21.02 -2.81,-1.27 -6.72,-2.24 -9.71,-3.08 -5.53,-1.56 -11.07,-3.08 -16.54,-4.87 -14.2,-4.64 -31.58,-12 -36.5,-27.53 -1.09,-3.45 -1.46,-7.05 -1.12,-10.64 1.48,-22.55 15.55,-40.28 30.99,-55.54 0.32,-0.31 0.6,-0.56 0.94,-0.85 12.12,-10.12 22.37,-22.59 32.71,-34.47 1,-1.15 2.05,-2.24 3.15,-3.3 3.11,-2.99 6.51,-5.54 10,-8.06 3.43,-2.47 8.91,-6.05 11.11,-9.85 1.39,-2.66 2.43,-5.41 1.76,-8.43 -0.89,-4 -4.35,-9.33 -6.45,-12.85 -4.8,-8.08 -8.86,-15.71 -11.56,-24.79 -1.29,-4.33 -3.74,-9.08 -5.68,-13.17 -3.23,-6.82 -6.31,-13.6 -8.75,-20.75 -6.95,-20.37 -7.55,-40.24 -1.01,-60.85 2.53,-7.95 5.13,-15.88 7.8,-23.77 -2.79,4.73 -6.4,8.78 -11.48,12.33 -3.08,2.15 -5.84,3.57 -8.36,6.45 -0.14,0.16 -0.26,0.29 -0.4,0.44 -2.15,2.27 -3.9,4.85 -5.4,7.58 -3,5.43 -5.14,11.51 -7.27,17.32 -4.09,11.15 -8.21,21.6 -15.82,30.91 -4.29,5.24 -11.24,6.98 -17.5,4.37 -6.25,-2.6 -9.91,-8.77 -9.2,-15.51 0.2,-1.96 0.5,-3.91 0.88,-5.84 0.86,-4.43 2.11,-8.74 3.43,-13.04 1.81,-5.92 4.36,-13.28 3.97,-19.57 -0.01,-0.22 -0.02,-0.4 -0.03,-0.62 -0.1,-4.81 -1.63,-9.45 -3.97,-13.61 -1.17,-2.11 -1.76,-4.14 -1.9,-6.54 -1.08,-19.5 0.8,-39.09 4.35,-58.26 1.19,-6.47 1.73,-13.09 1.38,-19.66 -0.28,-0.12 -0.56,-0.24 -0.84,-0.37 -4.07,-1.88 -6.84,-5.07 -8.13,-9.37 -2.25,-7.49 -0.76,-13.22 1.07,-20.4 0.06,-0.23 0.11,-0.42 0.18,-0.65 4.03,-13.28 9.62,-26.82 11.76,-40.55 0.07,-0.46 0.15,-0.85 0.26,-1.3 2.99,-12.06 3.31,-22.81 8.82,-34.37 4.57,-11.32 8.95,-22.78 12.4,-34.51 -0.36,-0.97 -0.73,-1.93 -1.08,-2.89 -2.74,-7.28 -4.85,-13.93 -4.39,-21.85 0.63,-19.04 11.38,-33.14 22.72,-47.36 9.98,-12.52 13.49,-28.53 23.4,-41.25 9.94,-12.74 23.27,-18.64 39.03,-20.74 0.15,-0.02 0.27,-0.04 0.41,-0.05 24.27,-2.57 44.93,6.12 67.42,13.1 10.88,2.61 15.17,9.35 22.03,17.23 9.41,10.81 18.14,20.75 20.98,35.3 2.95,15.12 8.05,29.27 9.51,44.79 3.25,34.5 -1.27,60 -12.9,90.62 0.63,0.63 1.25,1.26 1.88,1.89 3.85,0.56 7.72,0.98 11.6,1.31 28.39,2.41 56.52,0.1 84.8,5.37 19.01,3.54 36.22,10.78 50.55,23.93 4.43,4.06 8.26,8.43 12.07,13.06 0.67,0.82 1.68,2.13 2.7,3.34 8.02,-2.21 16.55,-2.25 24.65,0.07 4.18,1.2 8.44,2.35 12.76,3.24 0.95,-7.49 1.83,-14.98 3.55,-22.42 0.25,-1.15 0.54,-2.28 0.88,-3.4 1.16,-3.79 2.79,-7.32 4.55,-10.86 1.18,-2.38 4.09,-7.63 3.86,-10.43 -0.03,-0.42 -0.04,-0.78 -0.04,-1.2 0,-1.09 -7.79,-11.28 -8.76,-12.89 -3.74,-6.18 -6.68,-12.77 -8.88,-19.65 -9.4,-29.41 -4.57,-61.97 -1.44,-92.05 1.84,-17.63 3.51,-36.4 0.85,-54.01 -0.49,-3.25 -1.33,-10.87 -3.62,-13.41 -7.21,-7.99 -14.22,-16.47 -22.3,-23.62 -6.09,-5.39 -8.71,-11.03 -13.46,-17.02 -21.63,-24.25 -33.66,-56.14 -36.01,-88.37 -1.08,-11.25 4.15,-21.66 12.33,-29.14 7.35,-6.73 14.25,-13.87 21.9,-20.27 19.71,-16.51 36.88,-35.94 55.64,-53.51 0.11,-0.11 0.21,-0.2 0.33,-0.3 0.82,-0.85 1.38,-4.19 1.66,-6.33 -3.19,-5.31 -20.5,-20.09 -24.64,-24.05 -11.74,-11.24 -23.54,-24.89 -25.34,-41.72 -0.05,-0.5 -0.08,-0.93 -0.08,-1.44 -0.13,-11.12 -0.05,-21.58 6.02,-31.46 1.25,-2.03 2.71,-3.52 4.72,-4.81 24.91,-15.95 55.95,-20.85 84.85,-15.37 8.44,-6.81 16.61,-13.97 24.25,-21.66 3.79,-3.83 8.89,-5.29 14.14,-4.07 3.74,0.87 7.47,1.8 11.18,2.81 4.04,1.11 7.13,3.52 9.18,7.17 0.32,0.56 1.01,1.72 1.58,2.37 2.47,0 9.09,-1.82 11.04,-2.29 5.58,-1.36 11.06,0.36 14.86,4.66 5.98,6.74 10.85,11.6 10.68,21.47zm35.32 1393.1c5.39,-2.75 11.6,-6.43 13.41,-9.91 0.02,-0.04 0.04,-0.08 0.06,-0.13 -4.98,3.38 -9.1,6.87 -13.47,10.04zm-374.12 -284.95c-0.44,-2.12 -0.38,-4.26 0.16,-6.51 0.5,-2.04 1.13,-4.04 1.86,-6.01 1.44,-3.85 3.71,-8.01 5.49,-12.06 -9.21,0.68 -17.47,-4.3 -24.78,-9.99 -2.87,10.91 1.19,14.61 11.39,27.26 1.97,2.44 3.93,4.87 5.88,7.31zm-151.99 -451.07c1.15,-3.21 2.31,-6.41 3.49,-9.61 0.15,-0.41 0.29,-0.75 0.48,-1.15 4.48,-9.66 10.61,-17.95 16.23,-26.9 5.51,-8.77 12.54,-15.18 19.5,-22.63 1.51,-1.61 2.86,-3.45 4.18,-5.22 4.27,-5.75 8.16,-10.82 14.09,-14.97 4.67,-3.43 9.4,-7.2 13.34,-11.57 -1.9,-10.71 -4.8,-21.26 -7.72,-31.68 -0.79,-2.57 -2.65,-6.09 -3.85,-8.53 -2.52,-5.13 -5.18,-10.2 -7.84,-15.25 -2.69,-5.11 -5.48,-10.21 -8.18,-15.35 -2.15,0.47 -4.26,1.14 -6.32,1.93 -5.91,25.83 -12.32,51.37 -25.83,74.56 -5.98,11.62 -4.19,29.99 -4.89,42.88 -0.02,0.35 -0.04,0.65 -0.08,1 -1.59,13.12 -3.43,28.48 -6.6,42.49zm475.4 -87.23c-1.27,6.03 -2.09,12.15 -1.71,18.09 0.02,0.41 0.03,0.75 0.03,1.16 -0.09,6.42 4.36,16.28 5.97,22.78 0.05,0.18 0.09,0.34 0.12,0.52 3.16,14.88 1.04,26.23 0.02,40.84 -0.77,11.07 0.68,18.79 5.71,27.03 5.24,-2.28 10.55,-3.73 15.81,-5.96 0.78,-0.33 1.62,-1.05 2.19,-1.89 -0.62,-1.19 -1.38,-2.37 -2.05,-3.46 -3.27,-5.3 -5.94,-10.12 -7.09,-15.92 -3.18,-4.95 -5.68,-10.27 -7.62,-15.86 -6.01,-17.36 -5.6,-34.6 -9.77,-51.94 -1.07,-4.43 -1.55,-8.94 -1.61,-13.49 0,-0.64 0,-1.27 0,-1.9zm-405.37 385.03c4.36,-9.4 8.63,-18.84 12.92,-28.27 -3.72,2.17 -7.53,4.22 -11.42,6.1 -6.74,3.26 -13.37,6.74 -19.91,10.37 1.84,1.14 3.67,2.28 5.49,3.43 3.91,2.47 8.43,5.32 12.92,8.37zm509.66 339.38c2.48,-4.12 4.82,-8.3 7.1,-12.46 0.98,-1.78 2.23,-3.29 3.69,-4.49 2.46,-10.55 6.89,-19.99 12.85,-29.57 5.99,-9.64 13.05,-18.72 18.17,-28.87 -7.95,-13.31 -15.58,-26.82 -23.64,-40.07 -7.66,-12.6 -16.53,-26.82 -26.36,-38.76 -0.39,28.41 3.11,57.16 4.23,85.33 0.9,22.64 0.91,46.1 3.96,68.89z"/>
   <path class="fil1" d="M1014.14 42.44c10.91,-8.51 21.46,-17.5 31.21,-27.31 3.55,0.82 7.1,1.7 10.63,2.67 7.57,13.48 16.12,10.56 29.34,7.35 2.95,3.32 7.03,6.51 6.88,11.42 0.26,13.22 -4.36,39.77 11.33,46.36 8.88,3.74 17.91,7.2 26.54,11.57 14.41,7.32 25.74,20.39 31.5,35.43 0.79,6.42 0.19,13 -0.31,19.44 -6.26,8.2 -14.99,14.16 -23.86,19.22 -44.4,24.4 -59.3,7.89 -102.66,-3.05 -0.07,3.29 -0.12,6.57 -0.2,9.86 -15.99,11.29 -34.31,18.54 -50.98,28.69 -7.17,4.08 -11.73,11.23 -18.14,16.24 -16.73,13.73 -28.51,26.97 -13.96,47.57 14.46,20.89 30.26,41.04 48.58,58.72 22.98,-4.02 27.44,-21.93 35.36,-23.8 8.49,0.02 16.67,-2.08 24.21,-5.96 0,-4.94 0.05,-9.88 0.24,-14.82 11.53,4.84 11.87,22.92 24.35,37.68 6.74,-2.21 13.82,-2.4 20.83,-2.28 -0.57,-6.57 -5.92,-36.72 -1.11,-41.28 2.43,-1.77 5.26,-2.82 7.86,-4.3 5.37,-2.48 5.73,-9.18 7.99,-13.97 10.86,-3.2 20.78,-9.13 32,-11.25 15.24,-3.13 31.82,-3.34 46.17,3.41 12.74,5.91 11.94,5.76 16.24,18.6 5.95,0.81 13.3,3.91 15.71,9.82 3.23,7.32 6.82,14.64 12.72,20.24 1.93,8.49 5.03,16.67 6.91,25.19 -9.06,8.68 -18.14,17.55 -24.66,28.4 -5.6,-0.76 -12.06,-3.44 -17.14,0.38 -4.6,3.1 -10,4.56 -14.84,7.2 -3.64,4.77 -4.64,11.09 -8.6,15.65 -5.97,3.19 -12.55,-2.44 -18.58,0.49 -9.99,3.72 -19.84,8.23 -30.62,9.16 -4.72,-4.72 -10.56,-7.96 -16.59,-10.66 -3.74,27.98 2.31,18.66 3.71,32.03 0.2,5.18 -0.97,10.4 0.05,15.57 2.98,16.14 14.02,22.19 21.3,60.38 12.25,68.79 6.1,139.54 20,208.11 2.56,7.8 -4.26,18.17 4.22,23.72 11.4,3.13 21.44,-5.72 32.31,-7.68 11.79,9.87 15.55,25.33 19.13,39.59 -9.61,-6.03 -22.48,-21.22 -30.88,-5.01 -7.08,13.65 2.41,28.58 -17.77,32.88 -4.91,1.06 -7.89,5.35 -10.73,9.11 1.19,5.9 1.13,12.24 3.87,17.74 4.26,6.26 12.25,8.33 17.24,13.91 13.88,14.17 18.07,34.43 28.68,50.69 3.91,6.78 11.69,9.07 18.41,12.02 3.75,-4.76 8.54,-8.91 11.17,-14.44 1.54,-15.56 2.21,-31.24 2.93,-46.87 -0.3,37.93 21.32,60.1 18.53,95.56 23.31,3.94 26.55,15.58 32.33,35.63 -4.57,-4.27 -8.97,-8.71 -13.37,-13.15 -4.2,0.55 -9.49,-0.83 -12.59,2.8 -5.66,6.15 -2.65,16.19 2.47,21.65 12.83,7.77 28.36,8.77 41.74,15.23 5.79,2.55 9.11,8.14 11.87,13.53 -6.84,-4.89 -13.43,-10.07 -20.18,-15.05 -5.21,6.84 -10.36,13.73 -15.49,20.63 1.55,2.4 3.1,4.82 4.62,7.27 21.44,11.21 43.14,23.63 58.6,42.71 6.48,7.8 11.34,16.76 15.45,25.99 -41.18,-27.1 -45.67,-0.3 -34.05,11.59 3.95,4.05 7.74,8.65 13.13,10.82 12.26,4.8 25.37,6.63 38.32,8.61 16.5,3.63 27.54,17.46 38.64,29.07 -4.06,0.07 -9.54,-1.78 -12.22,2.44 -12.62,19.35 -5.05,19.83 -29.73,23.37 0.6,4.96 -1.19,11.68 3.79,14.92 4.67,2.94 10.07,4.58 14.5,7.92 16.47,12.18 26.66,30.98 43.71,42.47 5.74,3.74 9.09,9.89 12.59,15.57 -5.12,9.41 -28.47,-23.14 -49.67,-24.3 -21.3,-1.17 -20.63,13.75 -13.19,29.38 2.27,4.51 3.74,9.68 7.44,13.29 18.2,17 41.34,24.56 48.82,50.4 -6.7,-5.19 -12.91,-12.06 -21.73,-13.25 -8.11,-0.98 -17.83,-1.57 -24.09,4.69 -4.05,7.25 -5.96,18.68 1.67,24.31 13.29,8.06 27.57,14.45 40.71,22.82 -17.01,6.34 -69.59,22.79 -82.2,32.12 -14.36,10.23 -23.13,26.37 -37.55,36.51 -7.57,5.65 -17.3,5.95 -26.09,8.46 -27.28,7.25 -51.96,21.41 -76.52,34.86 -18.84,10.07 -37.57,20.89 -58.34,26.52 -10.27,-5.51 -20.05,-12.14 -28.04,-20.67 -2.58,-2.43 -3.31,-5.97 -4.44,-9.14 21.25,-10.99 50.45,-18.87 36.47,-48.71 -6.72,0.54 -14.14,-0.19 -20.01,3.76 -8.47,5.68 -15.76,13.4 -25.63,16.77 0.16,-5.63 -0.62,-11.93 3.26,-16.58 8.82,-11.23 23.83,-14.68 33.41,-25.11 3.22,-3.96 8.33,-4.45 13.05,-4.86 -1.44,-46.17 -3.56,-92.34 -7.95,-138.34 -4.02,-34.33 -4.64,-68.94 -7.36,-103.39 -27.73,-0.9 -29.8,6.69 -51.54,22.24 -14.1,10.08 -20.35,-0.07 -25.1,25.79 -9.2,50.11 -5.96,113.62 -1.99,165.39 0.12,7.97 -1.31,16.14 0.94,23.97 2.9,11.82 6.36,23.94 3.07,36.1 -0.54,9.8 20.07,90.73 20.63,101.88 1.84,25.58 12.75,49.21 17.95,74.1 -9.17,-3.71 -16.33,-11.17 -25.89,-13.97 -7.87,-2.41 -16.01,-4.33 -22.97,-8.89 -0.46,-32.23 -19.67,-57.78 -14.28,-80.6 1.53,-6.59 6.7,-11.83 7.37,-18.67 3.39,-24.83 -1.48,-49.77 -4.79,-74.31 -6.3,-15.17 -11.53,-30.86 -14.62,-47.02 -0.45,-9.66 0.31,-19.53 -2.5,-28.91 -1.46,-6.25 -5.01,-11.65 -7.61,-17.43 -2.65,-8.65 -3.84,-17.67 -6.87,-26.21 -12.63,-38.3 -35.53,-80.38 -30.77,-118.59 0.46,-5.26 4.9,-8.68 9.21,-10.94 1.76,-4.77 3.82,-9.49 4.67,-14.5 -3.12,-7.32 -10.42,-12.45 -17.93,-14.62 -6.75,-2.23 -10.99,-8.29 -15.36,-13.45 -4.77,-6.15 -10.7,-11.27 -15.61,-17.28 -8.84,-10.68 -14.06,-24.35 -25.12,-32.91 -0.69,1.02 -2.07,3.03 -2.76,4.05 -3.12,-0.76 -6.25,-1.52 -9.39,-2.24 -2.05,4.56 -4.54,9.23 -4.32,14.4 0.36,13.86 0.07,27.72 -0.76,41.57 0.43,4 -4.68,4.07 -7.23,5.65 -8.09,-17.17 -15.82,-22.11 -23.61,-40.11 -9.13,-21.09 -3.42,-31.59 -7.72,-35.13 -3.96,-3.31 -9.59,-2.02 -14.33,-2.52 -6.7,-7.56 -12.19,-16.01 -17.94,-24.26 2.48,-4.72 4.49,-9.73 7.68,-14.02 8.68,-9.27 32.96,-10.92 23.68,-28.75 -4.51,-9 -10.02,-17.67 -12.07,-27.67 -10.27,-8.99 -23.48,-18.28 -37.87,-14.54 -6.39,0.98 -8.43,7.8 -11.49,12.52 -21.73,36.82 -36.43,77.83 -63.34,111.5 18.23,5.78 33.46,17.62 49.01,28.29 2.27,1.64 4.65,3.21 6.49,5.34 13.87,23.79 14.14,52 20.5,78.11 -0.24,6.14 -3.26,11.9 -4.31,17.94 -7.33,-2.34 -14.57,-5.55 -19.73,-11.47 -7.82,-8.23 -20.31,-12.38 -24.86,-23.4 2.05,-8.44 7.44,-15.64 9.49,-24.06 1.31,-5.91 -3.8,-11.01 -9.07,-12.59 -11.55,-2.61 -7.32,6.62 -30.25,-12.68 -3.66,-3.22 -10.59,-3.03 -12.65,1.9 -10.81,26.25 -5.46,33.23 10.02,52.54 22.13,27.33 43.64,55.13 65.27,82.84 4.14,5.39 9.13,10.47 10.94,17.22 7.44,26.23 24.93,72.89 6.66,98.37 -26.6,-17.29 -23.24,-29.29 -35.11,-42.97 -16.86,-20.02 -12.17,-15.99 -1.05,-37.73 -30.18,-18.48 -27.86,-39.21 -40.61,-56.47 -27.66,-37.94 -82.48,-74.55 -95.74,-102.44 1.55,-1.39 3.12,-2.77 4.68,-4.13 -0.89,-4.15 -3.91,-8.66 -1.22,-12.68 6.13,-11.43 13.07,-22.44 19.13,-33.91 -23.87,-8.51 -48.13,-16 -71.26,-26.45 -12.72,-5.76 -57.15,-11.56 -55.04,-31.14 1.12,-18.44 13.97,-33.58 26.55,-46.02 12.83,-10.71 23.44,-23.64 34.43,-36.14 7.75,-9.03 20.17,-13.25 26.13,-23.89 12.04,-22.81 -7.52,-32.32 -15.04,-57.61 -5.37,-18.09 -28.6,-45.33 -15.52,-85.9 6.07,-19.74 12.99,-39.22 20.1,-58.59 4.15,-8.94 10.08,-16.92 15.33,-25.23 4.81,-7.7 11.61,-13.76 17.74,-20.34 5.54,-5.91 9.23,-13.52 16.02,-18.22 7.68,-5.62 15.03,-11.82 20.51,-19.69 -1.88,-13.57 -5.41,-26.81 -9.15,-39.97 -2.18,-7.91 -20.15,-39.89 -25.52,-50.82 -9.95,-0.52 -19.5,2.61 -28.25,7.07 -6.06,26.68 -12,54.05 -25.98,77.92 -8.05,15.2 -5.86,32.84 -6.75,49.37 -9.71,80.14 -17.8,62.94 -31.85,79 -15.07,15.91 -15.5,39.87 -29.21,56.63 1.47,-13.95 9.23,-26.7 8.34,-40.97 -0.16,-7.31 -2.34,-14.33 -5.89,-20.67 -1.02,-18.26 0.81,-36.68 4.12,-54.68 2.06,-11.07 2.41,-22.46 0.41,-33.57 -2.81,-0.93 -5.7,-1.67 -8.39,-2.91 -1.24,-4.13 0.23,-8.35 1.24,-12.33 4.29,-14.15 9.94,-27.93 12.23,-42.61 2.63,-10.64 3.1,-21.9 7.97,-31.87 5.41,-13.39 10.56,-26.96 14.35,-40.87 -2.1,-7.91 -6.7,-15.33 -6.15,-23.8 0.43,-15.09 10.52,-27.35 19.45,-38.65 19.28,-24.09 15.25,-51.44 52.63,-56.44 21.44,-2.27 41.81,6.48 61.89,12.68 6.74,1.46 10.32,7.77 14.57,12.55 7.23,8.41 15.36,17 17.55,28.28 2.84,14.5 7.82,28.57 9.3,43.32 3.25,35.51 -1.99,59.8 -15.55,92.86 4.1,4.11 8.21,8.21 12.3,12.35 33.34,5.9 67.57,1.22 100.9,7.4 51.21,9.56 54.25,43.28 67.11,41.89 6.7,-3.14 14.33,-3.91 21.46,-1.81 9.72,2.72 19.55,5.16 29.68,5.49 2.22,-11.92 2.79,-24.09 5.53,-35.91 2.15,-10.11 10.47,-18.36 9.61,-29.17 0,-8.44 -6.98,-13.98 -10.94,-20.7 -27.16,-44.76 0.53,-106.7 -7.46,-160.15 -1.19,-7.39 -2.08,-15.5 -7.33,-21.27 -7.62,-8.49 -14.95,-17.26 -23.51,-24.82 -4.93,-4.37 -7.86,-10.38 -11.94,-15.46 -19.61,-21.84 -30.41,-50.82 -32.5,-79.91 -0.68,-6.51 2.83,-12.45 7.48,-16.71 7.18,-6.56 13.88,-13.66 21.41,-19.84 19.9,-16.79 37.28,-36.28 56.26,-54.06 4.96,-4.37 6.29,-11.38 6.87,-17.65 1.72,-16.54 -47.15,-39.17 -50.17,-67.37 -0.08,-7.75 -0.39,-16.59 3.79,-23.39 23.53,-15.07 53.53,-18.69 80.46,-11.8zm74.25 516.15c-1.12,2.13 -2.62,4.13 -2.64,6.66 -2.3,20.33 -11.95,39.48 -10.62,60.26 -0.12,9.34 4.22,17.78 6.42,26.63 6.19,29.19 -11.89,49.26 13.59,81.03 3.7,-0.24 7.7,0.29 11.09,-1.59 5.63,-2.8 11.76,-4.34 17.53,-6.76 6.55,-2.81 11.54,-9.34 12.01,-16.5 -1.74,-8.79 -9.96,-14.92 -10.35,-24.2 -13.99,-19.1 -11.99,-43.81 -17.23,-65.81 -4.04,-16.55 3.62,-33.25 0.4,-49.85 -0.95,-5.46 -2.94,-10.65 -4.7,-15.87 -5.37,1.43 -10.76,2.98 -15.5,6zm-406.93 397.14c-14.81,7.18 -29.12,15.35 -43.15,23.92 12.19,6.77 44.72,26.11 53.82,35.45 11.12,-23.22 21.45,-46.8 32.32,-70.13 -3.74,-3.02 -7.47,-6.05 -11.18,-9.11 -10.05,7.44 -20.51,14.43 -31.81,19.87zm495.69 306.85c1.52,34.79 0.88,70.26 11.25,103.9 11.66,-11.94 20.17,-26.28 28.14,-40.8 0.95,-0.09 2.86,-0.28 3.81,-0.38 3.26,-29.89 24.27,-44.25 34.66,-70.87 -17.76,-29.08 -40.98,-73.47 -63.7,-96.75 -4.56,-4.7 -10.82,-7.01 -16.52,-9.91 -4.77,38.22 0.98,76.57 2.36,114.81z"/>
  </g>
 </g>
</svg>
