<?xml version="1.0" encoding="UTF-8"?>
<!DOCTYPE svg PUBLIC "-//W3C//DTD SVG 1.1//EN" "http://www.w3.org/Graphics/SVG/1.1/DTD/svg11.dtd">
<!-- Creator: CorelDRAW -->
<svg xmlns="http://www.w3.org/2000/svg" xml:space="preserve" width="2000px" height="1600px" version="1.1" style="shape-rendering:geometricPrecision; text-rendering:geometricPrecision; image-rendering:optimizeQuality; fill-rule:evenodd; clip-rule:evenodd"
viewBox="0 0 2000 1600"
 xmlns:xlink="http://www.w3.org/1999/xlink">
 <defs>
  <style type="text/css">
   <![CDATA[
    .fil0 {fill:#B6B5B8}
    .fil1 {fill:#FEFEFE}
    .fil2 {fill:#02296E;fill-rule:nonzero}
   ]]>
  </style>
 </defs>
 <g id="Capa_x0020_1">
  <metadata id="CorelCorpID_0Corel-Layer"/>
  <g id="Xavier_x0020_Musketeers.cdr">
   <path class="fil0" d="M1000.05 1489.34l155.54 -91.61 -155.54 -233.79 -155.54 233.79 155.54 91.61zm187.78 110.59l0.12 0.07 -187.9 -0.03 -187.89 0.03 0.12 -0.07 -808.68 -0.15 245.74 -234.89 367.4 -564.78 -357.01 -549.35 -250 -251.03 990.32 0.24 990.33 -0.24 -250.01 251.03 -357.01 549.35 367.4 564.78 245.75 234.89 -808.68 0.15zm-187.78 -1489.14l-155.59 91.49 155.59 233.47 155.59 -233.47 -155.59 -91.49z"/>
   <path class="fil1" d="M1000.05 1533.84l209.91 -123.62 -209.91 -315.51 -209.9 315.51 209.9 123.62zm47.15 27.77l0.03 0.02 -47.18 -0.01 -47.17 0.01 0.03 -0.02 -853.71 -0.16 179.86 -171.91 383.42 -589.42 -372.76 -573.6 -187.66 -188.42 897.99 0.22 898 -0.22 -187.66 188.42 -372.76 573.6 383.42 589.42 179.86 171.91 -853.71 0.16zm-47.15 -1495.31l-209.99 123.49 209.99 315.1 210 -315.1 -210 -123.49z"/>
   <path class="fil2" d="M1000.05 574.04l-264.4 -396.75 171.16 -100.65 -712.41 -0.17 125.3 125.82 388.52 597.84 -399.45 614.05 -113.97 108.94 711.71 0.13 -170.73 -100.55 264.27 -396.81 264.27 396.81 -170.72 100.55 711.7 -0.13 -113.97 -108.94 -399.45 -614.05 388.53 -597.84 125.3 -125.82 -712.42 0.17 171.17 100.65 -264.41 396.75z"/>
  </g>
 </g>
</svg>
